<?xml version="1.0" encoding="UTF-8" standalone="no"?>
<!DOCTYPE svg PUBLIC "-//W3C//DTD SVG 1.1//EN"
 "http://www.w3.org/Graphics/SVG/1.1/DTD/svg11.dtd">
<!-- Generated by graphviz version 7.0.5 (20221223.1930)
 -->
<!-- Title: /github/workspace/include/fcarouge/algorithm.hpp Pages: 1 -->
<!--zoomable 181 -->
<svg id="main" version="1.1" xmlns="http://www.w3.org/2000/svg" xmlns:xlink="http://www.w3.org/1999/xlink" xml:space="preserve" onload="init(evt)">
<style type="text/css"><![CDATA[
.edge:hover path { stroke: red; }
.edge:hover polygon { stroke: red; fill: red; }
]]></style>
<script type="text/javascript"><![CDATA[
var edges = document.getElementsByTagName('g');
if (edges && edges.length) {
  for (var i=0;i<edges.length;i++) {
    if (edges[i].id.substr(0,4)=='edge') {
      edges[i].setAttribute('class','edge');
    }
  }
}
]]></script>
        <defs>
                <circle id="rim" cx="0" cy="0" r="7"/>
                <circle id="rim2" cx="0" cy="0" r="3.5"/>
                <g id="zoomPlus">
                        <use xlink:href="#rim" fill="#404040">
                                <set attributeName="fill" to="#808080" begin="zoomplus.mouseover" end="zoomplus.mouseout"/>
                        </use>
                        <path d="M-4,0h8M0,-4v8" fill="none" stroke="white" stroke-width="1.5" pointer-events="none"/>
                </g>
                <g id="zoomMin">
                        <use xlink:href="#rim" fill="#404040">
                                <set attributeName="fill" to="#808080" begin="zoomminus.mouseover" end="zoomminus.mouseout"/>
                        </use>
                        <path d="M-4,0h8" fill="none" stroke="white" stroke-width="1.5" pointer-events="none"/>
                </g>
                <g id="dirArrow">
                        <path fill="none" stroke="white" stroke-width="1.5" d="M0,-3.0v7 M-2.5,-0.5L0,-3.0L2.5,-0.5"/>
                </g>
               <g id="resetDef">
                       <use xlink:href="#rim2" fill="#404040">
                               <set attributeName="fill" to="#808080" begin="reset.mouseover" end="reset.mouseout"/>
                       </use>
               </g>
        </defs>

<script type="text/javascript">
var viewWidth = 5208;
var viewHeight = 181;
var sectionId = 'dynsection-0';
</script>
<script xlink:href="svgpan.js"/>
<svg id="graph" class="graph">
<g id="viewport">
<title>/github/workspace/include/fcarouge/algorithm.hpp</title>
<!-- Node1 -->
<g id="node1" class="node">
<title>Node1</title>
<g id="a_node1"><a xlink:title="The collection of Kalman algorithms.">
<polygon fill="#999999" stroke="#666666" points="2787.5,-173 2657.5,-173 2657.5,-143 2787.5,-143 2787.5,-173"/>
<text text-anchor="start" x="2665.5" y="-161" font-family="Helvetica,sans-Serif" font-size="10.00">/github/workspace/include</text>
<text text-anchor="middle" x="2722.5" y="-150" font-family="Helvetica,sans-Serif" font-size="10.00">/fcarouge/algorithm.hpp</text>
</a>
</g>
</g>
<!-- Node2 -->
<g id="node2" class="node">
<title>Node2</title>
<g id="a_node2"><a xlink:href="kalman_8hpp.xhtml" target="_top" xlink:title="The Kalman filter class and library top&#45;level header.">
<polygon fill="white" stroke="#666666" points="2787.5,-107 2657.5,-107 2657.5,-77 2787.5,-77 2787.5,-107"/>
<text text-anchor="start" x="2665.5" y="-95" font-family="Helvetica,sans-Serif" font-size="10.00">/github/workspace/include</text>
<text text-anchor="middle" x="2722.5" y="-84" font-family="Helvetica,sans-Serif" font-size="10.00">/fcarouge/kalman.hpp</text>
</a>
</g>
</g>
<!-- Node1&#45;&gt;Node2 -->
<g id="edge1" class="edge">
<title>Node1&#45;&gt;Node2</title>
<path fill="none" stroke="#63b8ff" d="M2722.5,-131.39C2722.5,-123.13 2722.5,-114.28 2722.5,-107.16"/>
<polygon fill="#63b8ff" stroke="#63b8ff" points="2719,-131.28 2722.5,-141.28 2726,-131.28 2719,-131.28"/>
</g>
<!-- Node3 -->
<g id="node3" class="node">
<title>Node3</title>
<g id="a_node3"><a xlink:href="predict__1x1x0_8cpp.xhtml" target="_top" xlink:title=" ">
<polygon fill="white" stroke="#666666" points="147,-35.5 0,-35.5 0,-5.5 147,-5.5 147,-35.5"/>
<text text-anchor="start" x="8" y="-23.5" font-family="Helvetica,sans-Serif" font-size="10.00">/github/workspace/benchmark</text>
<text text-anchor="middle" x="73.5" y="-12.5" font-family="Helvetica,sans-Serif" font-size="10.00">/predict_1x1x0.cpp</text>
</a>
</g>
</g>
<!-- Node2&#45;&gt;Node3 -->
<g id="edge2" class="edge">
<title>Node2&#45;&gt;Node3</title>
<path fill="none" stroke="#63b8ff" d="M2645.82,-90.48C2245.84,-87.66 407.48,-73.04 155.5,-41 146.21,-39.82 136.44,-38.01 127.01,-35.96"/>
<polygon fill="#63b8ff" stroke="#63b8ff" points="2645.69,-93.98 2655.72,-90.55 2645.74,-86.98 2645.69,-93.98"/>
</g>
<!-- Node4 -->
<g id="node4" class="node">
<title>Node4</title>
<g id="a_node4"><a xlink:href="predict__1x1x1_8cpp.xhtml" target="_top" xlink:title=" ">
<polygon fill="white" stroke="#666666" points="312,-35.5 165,-35.5 165,-5.5 312,-5.5 312,-35.5"/>
<text text-anchor="start" x="173" y="-23.5" font-family="Helvetica,sans-Serif" font-size="10.00">/github/workspace/benchmark</text>
<text text-anchor="middle" x="238.5" y="-12.5" font-family="Helvetica,sans-Serif" font-size="10.00">/predict_1x1x1.cpp</text>
</a>
</g>
</g>
<!-- Node2&#45;&gt;Node4 -->
<g id="edge3" class="edge">
<title>Node2&#45;&gt;Node4</title>
<path fill="none" stroke="#63b8ff" d="M2645.82,-90.37C2261.64,-87.11 555.25,-71.01 320.5,-41 311.21,-39.81 301.44,-38 292.01,-35.95"/>
<polygon fill="#63b8ff" stroke="#63b8ff" points="2645.53,-93.87 2655.56,-90.46 2645.59,-86.87 2645.53,-93.87"/>
</g>
<!-- Node5 -->
<g id="node5" class="node">
<title>Node5</title>
<g id="a_node5"><a xlink:href="predict__linalg__x1x_8cpp.xhtml" target="_top" xlink:title=" ">
<polygon fill="white" stroke="#666666" points="477,-35.5 330,-35.5 330,-5.5 477,-5.5 477,-35.5"/>
<text text-anchor="start" x="338" y="-23.5" font-family="Helvetica,sans-Serif" font-size="10.00">/github/workspace/benchmark</text>
<text text-anchor="middle" x="403.5" y="-12.5" font-family="Helvetica,sans-Serif" font-size="10.00">/predict_linalg_x1x.cpp</text>
</a>
</g>
</g>
<!-- Node2&#45;&gt;Node5 -->
<g id="edge4" class="edge">
<title>Node2&#45;&gt;Node5</title>
<path fill="none" stroke="#63b8ff" d="M2645.79,-90.25C2277.91,-86.51 703.05,-68.98 485.5,-41 476.21,-39.81 466.44,-37.99 457.01,-35.94"/>
<polygon fill="#63b8ff" stroke="#63b8ff" points="2645.54,-93.74 2655.58,-90.35 2645.62,-86.75 2645.54,-93.74"/>
</g>
<!-- Node6 -->
<g id="node6" class="node">
<title>Node6</title>
<g id="a_node6"><a xlink:href="update__1x1x0_8cpp.xhtml" target="_top" xlink:title=" ">
<polygon fill="white" stroke="#666666" points="642,-35.5 495,-35.5 495,-5.5 642,-5.5 642,-35.5"/>
<text text-anchor="start" x="503" y="-23.5" font-family="Helvetica,sans-Serif" font-size="10.00">/github/workspace/benchmark</text>
<text text-anchor="middle" x="568.5" y="-12.5" font-family="Helvetica,sans-Serif" font-size="10.00">/update_1x1x0.cpp</text>
</a>
</g>
</g>
<!-- Node2&#45;&gt;Node6 -->
<g id="edge5" class="edge">
<title>Node2&#45;&gt;Node6</title>
<path fill="none" stroke="#63b8ff" d="M2645.95,-91.3C2320.16,-92.23 1047.58,-92.43 650.5,-41 641.21,-39.8 631.44,-37.98 622.01,-35.92"/>
<polygon fill="#63b8ff" stroke="#63b8ff" points="2645.63,-94.8 2655.62,-91.27 2645.61,-87.8 2645.63,-94.8"/>
</g>
<!-- Node7 -->
<g id="node7" class="node">
<title>Node7</title>
<g id="a_node7"><a xlink:href="update__1x1x1_8cpp.xhtml" target="_top" xlink:title=" ">
<polygon fill="white" stroke="#666666" points="807,-35.5 660,-35.5 660,-5.5 807,-5.5 807,-35.5"/>
<text text-anchor="start" x="668" y="-23.5" font-family="Helvetica,sans-Serif" font-size="10.00">/github/workspace/benchmark</text>
<text text-anchor="middle" x="733.5" y="-12.5" font-family="Helvetica,sans-Serif" font-size="10.00">/update_1x1x1.cpp</text>
</a>
</g>
</g>
<!-- Node2&#45;&gt;Node7 -->
<g id="edge6" class="edge">
<title>Node2&#45;&gt;Node7</title>
<path fill="none" stroke="#63b8ff" d="M2646.26,-91.11C2337.42,-91.22 1178.62,-88.41 815.5,-41 806.21,-39.79 796.45,-37.96 787.02,-35.91"/>
<polygon fill="#63b8ff" stroke="#63b8ff" points="2645.8,-94.61 2655.8,-91.1 2645.8,-87.61 2645.8,-94.61"/>
</g>
<!-- Node8 -->
<g id="node8" class="node">
<title>Node8</title>
<g id="a_node8"><a xlink:href="update__linalg__xx0_8cpp.xhtml" target="_top" xlink:title=" ">
<polygon fill="white" stroke="#666666" points="972,-35.5 825,-35.5 825,-5.5 972,-5.5 972,-35.5"/>
<text text-anchor="start" x="833" y="-23.5" font-family="Helvetica,sans-Serif" font-size="10.00">/github/workspace/benchmark</text>
<text text-anchor="middle" x="898.5" y="-12.5" font-family="Helvetica,sans-Serif" font-size="10.00">/update_linalg_xx0.cpp</text>
</a>
</g>
</g>
<!-- Node2&#45;&gt;Node8 -->
<g id="edge7" class="edge">
<title>Node2&#45;&gt;Node8</title>
<path fill="none" stroke="#63b8ff" d="M2645.72,-90.89C2353.33,-90.13 1309.44,-84.37 980.5,-41 971.36,-39.8 961.75,-38 952.46,-35.98"/>
<polygon fill="#63b8ff" stroke="#63b8ff" points="2645.51,-94.38 2655.52,-90.91 2645.53,-87.38 2645.51,-94.38"/>
</g>
<!-- Node9 -->
<g id="node9" class="node">
<title>Node9</title>
<g id="a_node9"><a xlink:href="ekf__4x1x0__soaring_8cpp.xhtml" target="_top" xlink:title=" ">
<polygon fill="white" stroke="#666666" points="1121,-35.5 990,-35.5 990,-5.5 1121,-5.5 1121,-35.5"/>
<text text-anchor="start" x="998" y="-23.5" font-family="Helvetica,sans-Serif" font-size="10.00">/github/workspace/sample</text>
<text text-anchor="middle" x="1055.5" y="-12.5" font-family="Helvetica,sans-Serif" font-size="10.00">/ekf_4x1x0_soaring.cpp</text>
</a>
</g>
</g>
<!-- Node2&#45;&gt;Node9 -->
<g id="edge8" class="edge">
<title>Node2&#45;&gt;Node9</title>
<path fill="none" stroke="#63b8ff" d="M2645.51,-90.85C2369.2,-89.97 1428.16,-83.82 1130.5,-41 1122.11,-39.79 1113.31,-38 1104.8,-35.98"/>
<polygon fill="#63b8ff" stroke="#63b8ff" points="2645.48,-94.35 2655.49,-90.88 2645.5,-87.35 2645.48,-94.35"/>
</g>
<!-- Node10 -->
<g id="node10" class="node">
<title>Node10</title>
<g id="a_node10"><a xlink:href="kf__1x1x0__building__height_8cpp.xhtml" target="_top" xlink:title=" ">
<polygon fill="white" stroke="#666666" points="1285.5,-35.5 1139.5,-35.5 1139.5,-5.5 1285.5,-5.5 1285.5,-35.5"/>
<text text-anchor="start" x="1147.5" y="-23.5" font-family="Helvetica,sans-Serif" font-size="10.00">/github/workspace/sample</text>
<text text-anchor="middle" x="1212.5" y="-12.5" font-family="Helvetica,sans-Serif" font-size="10.00">/kf_1x1x0_building_height.cpp</text>
</a>
</g>
</g>
<!-- Node2&#45;&gt;Node10 -->
<g id="edge9" class="edge">
<title>Node2&#45;&gt;Node10</title>
<path fill="none" stroke="#63b8ff" d="M2645.82,-90.32C2388.8,-87.73 1559.16,-76.74 1294.5,-41 1285.36,-39.77 1275.76,-37.96 1266.47,-35.93"/>
<polygon fill="#63b8ff" stroke="#63b8ff" points="2645.71,-93.82 2655.75,-90.42 2645.78,-86.82 2645.71,-93.82"/>
</g>
<!-- Node11 -->
<g id="node11" class="node">
<title>Node11</title>
<g id="a_node11"><a xlink:href="kf__1x1x0__liquid__temperature_8cpp.xhtml" target="_top" xlink:title=" ">
<polygon fill="white" stroke="#666666" points="1465,-35.5 1304,-35.5 1304,-5.5 1465,-5.5 1465,-35.5"/>
<text text-anchor="start" x="1312" y="-23.5" font-family="Helvetica,sans-Serif" font-size="10.00">/github/workspace/sample</text>
<text text-anchor="middle" x="1384.5" y="-12.5" font-family="Helvetica,sans-Serif" font-size="10.00">/kf_1x1x0_liquid_temperature.cpp</text>
</a>
</g>
</g>
<!-- Node2&#45;&gt;Node11 -->
<g id="edge10" class="edge">
<title>Node2&#45;&gt;Node11</title>
<path fill="none" stroke="#63b8ff" d="M2645.75,-89.67C2410.69,-85.32 1702.82,-70.09 1474.5,-41 1464.67,-39.75 1454.32,-37.96 1444.28,-35.96"/>
<polygon fill="#63b8ff" stroke="#63b8ff" points="2645.67,-93.17 2655.73,-89.85 2645.8,-86.17 2645.67,-93.17"/>
</g>
<!-- Node12 -->
<g id="node12" class="node">
<title>Node12</title>
<g id="a_node12"><a xlink:href="kf__1x1x1__dog__position_8cpp.xhtml" target="_top" xlink:title=" ">
<polygon fill="white" stroke="#666666" points="1619.5,-35.5 1483.5,-35.5 1483.5,-5.5 1619.5,-5.5 1619.5,-35.5"/>
<text text-anchor="start" x="1491.5" y="-23.5" font-family="Helvetica,sans-Serif" font-size="10.00">/github/workspace/sample</text>
<text text-anchor="middle" x="1551.5" y="-12.5" font-family="Helvetica,sans-Serif" font-size="10.00">/kf_1x1x1_dog_position.cpp</text>
</a>
</g>
</g>
<!-- Node2&#45;&gt;Node12 -->
<g id="edge11" class="edge">
<title>Node2&#45;&gt;Node12</title>
<path fill="none" stroke="#63b8ff" d="M2645.76,-89.51C2430.72,-85.02 1825.19,-70.09 1628.5,-41 1620.04,-39.75 1611.16,-37.96 1602.57,-35.97"/>
<polygon fill="#63b8ff" stroke="#63b8ff" points="2645.64,-93.01 2655.71,-89.72 2645.79,-86.01 2645.64,-93.01"/>
</g>
<!-- Node13 -->
<g id="node13" class="node">
<title>Node13</title>
<g id="a_node13"><a xlink:href="kf__2x1x1__rocket__altitude_8cpp.xhtml" target="_top" xlink:title=" ">
<polygon fill="white" stroke="#666666" points="1783,-35.5 1638,-35.5 1638,-5.5 1783,-5.5 1783,-35.5"/>
<text text-anchor="start" x="1646" y="-23.5" font-family="Helvetica,sans-Serif" font-size="10.00">/github/workspace/sample</text>
<text text-anchor="middle" x="1710.5" y="-12.5" font-family="Helvetica,sans-Serif" font-size="10.00">/kf_2x1x1_rocket_altitude.cpp</text>
</a>
</g>
</g>
<!-- Node2&#45;&gt;Node13 -->
<g id="edge12" class="edge">
<title>Node2&#45;&gt;Node13</title>
<path fill="none" stroke="#63b8ff" d="M2646.09,-91.6C2486.45,-91.82 2106.28,-86.95 1791.5,-41 1782.77,-39.73 1773.6,-37.95 1764.7,-35.99"/>
<polygon fill="#63b8ff" stroke="#63b8ff" points="2645.69,-95.1 2655.68,-91.58 2645.67,-88.1 2645.69,-95.1"/>
</g>
<!-- Node14 -->
<g id="node14" class="node">
<title>Node14</title>
<g id="a_node14"><a xlink:href="kf__6x2x0__vehicle__location_8cpp.xhtml" target="_top" xlink:title=" ">
<polygon fill="white" stroke="#666666" points="1952,-35.5 1801,-35.5 1801,-5.5 1952,-5.5 1952,-35.5"/>
<text text-anchor="start" x="1809" y="-23.5" font-family="Helvetica,sans-Serif" font-size="10.00">/github/workspace/sample</text>
<text text-anchor="middle" x="1876.5" y="-12.5" font-family="Helvetica,sans-Serif" font-size="10.00">/kf_6x2x0_vehicle_location.cpp</text>
</a>
</g>
</g>
<!-- Node2&#45;&gt;Node14 -->
<g id="edge13" class="edge">
<title>Node2&#45;&gt;Node14</title>
<path fill="none" stroke="#63b8ff" d="M2646.01,-90.01C2508.37,-87.33 2210.13,-77.45 1961.5,-41 1952.51,-39.68 1943.07,-37.91 1933.88,-35.97"/>
<polygon fill="#63b8ff" stroke="#63b8ff" points="2645.66,-93.5 2655.72,-90.19 2645.79,-86.51 2645.66,-93.5"/>
</g>
<!-- Node15 -->
<g id="node15" class="node">
<title>Node15</title>
<g id="a_node15"><a xlink:href="kf__8x4x0__deep__sort__bounding__box_8cpp.xhtml" target="_top" xlink:title=" ">
<polygon fill="white" stroke="#666666" points="2120.5,-41 1970.5,-41 1970.5,0 2120.5,0 2120.5,-41"/>
<text text-anchor="start" x="1978.5" y="-29" font-family="Helvetica,sans-Serif" font-size="10.00">/github/workspace/sample</text>
<text text-anchor="start" x="1978.5" y="-18" font-family="Helvetica,sans-Serif" font-size="10.00">/kf_8x4x0_deep_sort_bounding</text>
<text text-anchor="middle" x="2045.5" y="-7" font-family="Helvetica,sans-Serif" font-size="10.00">_box.cpp</text>
</a>
</g>
</g>
<!-- Node2&#45;&gt;Node15 -->
<g id="edge14" class="edge">
<title>Node2&#45;&gt;Node15</title>
<path fill="none" stroke="#63b8ff" d="M2645.89,-88.07C2532.49,-82.93 2313.52,-69.96 2129.5,-41 2126.69,-40.56 2123.83,-40.07 2120.96,-39.56"/>
<polygon fill="#63b8ff" stroke="#63b8ff" points="2645.54,-91.56 2655.69,-88.5 2645.85,-84.56 2645.54,-91.56"/>
</g>
<!-- Node16 -->
<g id="node16" class="node">
<title>Node16</title>
<g id="a_node16"><a xlink:href="kalman__assign__move__5x4x3_8cpp.xhtml" target="_top" xlink:title=" ">
<polygon fill="white" stroke="#666666" points="2300.5,-35.5 2138.5,-35.5 2138.5,-5.5 2300.5,-5.5 2300.5,-35.5"/>
<text text-anchor="start" x="2146.5" y="-23.5" font-family="Helvetica,sans-Serif" font-size="10.00">/github/workspace/test</text>
<text text-anchor="middle" x="2219.5" y="-12.5" font-family="Helvetica,sans-Serif" font-size="10.00">/kalman_assign_move_5x4x3.cpp</text>
</a>
</g>
</g>
<!-- Node2&#45;&gt;Node16 -->
<g id="edge15" class="edge">
<title>Node2&#45;&gt;Node16</title>
<path fill="none" stroke="#63b8ff" d="M2645.76,-83.86C2562.61,-75.63 2426.16,-60.66 2309.5,-41 2300.83,-39.54 2291.73,-37.81 2282.79,-35.98"/>
<polygon fill="#63b8ff" stroke="#63b8ff" points="2645.34,-87.34 2655.63,-84.83 2646.02,-80.37 2645.34,-87.34"/>
</g>
<!-- Node17 -->
<g id="node17" class="node">
<title>Node17</title>
<g id="a_node17"><a xlink:href="kalman__constructor__default_8cpp.xhtml" target="_top" xlink:title=" ">
<polygon fill="white" stroke="#666666" points="2476.5,-35.5 2318.5,-35.5 2318.5,-5.5 2476.5,-5.5 2476.5,-35.5"/>
<text text-anchor="start" x="2326.5" y="-23.5" font-family="Helvetica,sans-Serif" font-size="10.00">/github/workspace/test</text>
<text text-anchor="middle" x="2397.5" y="-12.5" font-family="Helvetica,sans-Serif" font-size="10.00">/kalman_constructor_default.cpp</text>
</a>
</g>
</g>
<!-- Node2&#45;&gt;Node17 -->
<g id="edge16" class="edge">
<title>Node2&#45;&gt;Node17</title>
<path fill="none" stroke="#63b8ff" d="M2645.89,-75.04C2599.45,-65.32 2539.04,-52.58 2485.5,-41 2478.01,-39.38 2470.16,-37.66 2462.36,-35.95"/>
<polygon fill="#63b8ff" stroke="#63b8ff" points="2645.09,-78.45 2655.59,-77.07 2646.52,-71.6 2645.09,-78.45"/>
</g>
<!-- Node18 -->
<g id="node18" class="node">
<title>Node18</title>
<g id="a_node18"><a xlink:href="kalman__constructor__default__1x1x3_8cpp.xhtml" target="_top" xlink:title=" ">
<polygon fill="white" stroke="#666666" points="2634.5,-41 2494.5,-41 2494.5,0 2634.5,0 2634.5,-41"/>
<text text-anchor="start" x="2502.5" y="-29" font-family="Helvetica,sans-Serif" font-size="10.00">/github/workspace/test</text>
<text text-anchor="start" x="2502.5" y="-18" font-family="Helvetica,sans-Serif" font-size="10.00">/kalman_constructor_default</text>
<text text-anchor="middle" x="2564.5" y="-7" font-family="Helvetica,sans-Serif" font-size="10.00">_1x1x3.cpp</text>
</a>
</g>
</g>
<!-- Node2&#45;&gt;Node18 -->
<g id="edge17" class="edge">
<title>Node2&#45;&gt;Node18</title>
<path fill="none" stroke="#63b8ff" d="M2679.26,-71.98C2657.69,-62.49 2631.62,-51.02 2609.78,-41.42"/>
<polygon fill="#63b8ff" stroke="#63b8ff" points="2677.81,-75.17 2688.38,-75.99 2680.63,-68.76 2677.81,-75.17"/>
</g>
<!-- Node19 -->
<g id="node19" class="node">
<title>Node19</title>
<g id="a_node19"><a xlink:href="kalman__constructor__default__1x4x1_8cpp.xhtml" target="_top" xlink:title=" ">
<polygon fill="white" stroke="#666666" points="2792.5,-41 2652.5,-41 2652.5,0 2792.5,0 2792.5,-41"/>
<text text-anchor="start" x="2660.5" y="-29" font-family="Helvetica,sans-Serif" font-size="10.00">/github/workspace/test</text>
<text text-anchor="start" x="2660.5" y="-18" font-family="Helvetica,sans-Serif" font-size="10.00">/kalman_constructor_default</text>
<text text-anchor="middle" x="2722.5" y="-7" font-family="Helvetica,sans-Serif" font-size="10.00">_1x4x1.cpp</text>
</a>
</g>
</g>
<!-- Node2&#45;&gt;Node19 -->
<g id="edge18" class="edge">
<title>Node2&#45;&gt;Node19</title>
<path fill="none" stroke="#63b8ff" d="M2722.5,-65.36C2722.5,-57.45 2722.5,-48.87 2722.5,-41.42"/>
<polygon fill="#63b8ff" stroke="#63b8ff" points="2719,-65.09 2722.5,-75.09 2726,-65.09 2719,-65.09"/>
</g>
<!-- Node20 -->
<g id="node20" class="node">
<title>Node20</title>
<g id="a_node20"><a xlink:href="kalman__constructor__default__1x4x3_8cpp.xhtml" target="_top" xlink:title=" ">
<polygon fill="white" stroke="#666666" points="2950.5,-41 2810.5,-41 2810.5,0 2950.5,0 2950.5,-41"/>
<text text-anchor="start" x="2818.5" y="-29" font-family="Helvetica,sans-Serif" font-size="10.00">/github/workspace/test</text>
<text text-anchor="start" x="2818.5" y="-18" font-family="Helvetica,sans-Serif" font-size="10.00">/kalman_constructor_default</text>
<text text-anchor="middle" x="2880.5" y="-7" font-family="Helvetica,sans-Serif" font-size="10.00">_1x4x3.cpp</text>
</a>
</g>
</g>
<!-- Node2&#45;&gt;Node20 -->
<g id="edge19" class="edge">
<title>Node2&#45;&gt;Node20</title>
<path fill="none" stroke="#63b8ff" d="M2765.74,-71.98C2787.31,-62.49 2813.38,-51.02 2835.22,-41.42"/>
<polygon fill="#63b8ff" stroke="#63b8ff" points="2764.37,-68.76 2756.62,-75.99 2767.19,-75.17 2764.37,-68.76"/>
</g>
<!-- Node21 -->
<g id="node21" class="node">
<title>Node21</title>
<g id="a_node21"><a xlink:href="kalman__constructor__default__5x1x1_8cpp.xhtml" target="_top" xlink:title=" ">
<polygon fill="white" stroke="#666666" points="3108.5,-41 2968.5,-41 2968.5,0 3108.5,0 3108.5,-41"/>
<text text-anchor="start" x="2976.5" y="-29" font-family="Helvetica,sans-Serif" font-size="10.00">/github/workspace/test</text>
<text text-anchor="start" x="2976.5" y="-18" font-family="Helvetica,sans-Serif" font-size="10.00">/kalman_constructor_default</text>
<text text-anchor="middle" x="3038.5" y="-7" font-family="Helvetica,sans-Serif" font-size="10.00">_5x1x1.cpp</text>
</a>
</g>
</g>
<!-- Node2&#45;&gt;Node21 -->
<g id="edge20" class="edge">
<title>Node2&#45;&gt;Node21</title>
<path fill="none" stroke="#63b8ff" d="M2798.97,-75.56C2845.47,-65.99 2906.01,-53.24 2959.5,-41 2962.39,-40.34 2965.34,-39.65 2968.32,-38.95"/>
<polygon fill="#63b8ff" stroke="#63b8ff" points="2798.34,-72.11 2789.25,-77.55 2799.75,-78.97 2798.34,-72.11"/>
</g>
<!-- Node22 -->
<g id="node22" class="node">
<title>Node22</title>
<g id="a_node22"><a xlink:href="kalman__constructor__default__5x1x3_8cpp.xhtml" target="_top" xlink:title=" ">
<polygon fill="white" stroke="#666666" points="3266.5,-41 3126.5,-41 3126.5,0 3266.5,0 3266.5,-41"/>
<text text-anchor="start" x="3134.5" y="-29" font-family="Helvetica,sans-Serif" font-size="10.00">/github/workspace/test</text>
<text text-anchor="start" x="3134.5" y="-18" font-family="Helvetica,sans-Serif" font-size="10.00">/kalman_constructor_default</text>
<text text-anchor="middle" x="3196.5" y="-7" font-family="Helvetica,sans-Serif" font-size="10.00">_5x1x3.cpp</text>
</a>
</g>
</g>
<!-- Node2&#45;&gt;Node22 -->
<g id="edge21" class="edge">
<title>Node2&#45;&gt;Node22</title>
<path fill="none" stroke="#63b8ff" d="M2799.29,-83.95C2879.18,-75.98 3007.71,-61.43 3117.5,-41 3120.42,-40.46 3123.39,-39.87 3126.38,-39.26"/>
<polygon fill="#63b8ff" stroke="#63b8ff" points="2798.98,-80.46 2789.37,-84.92 2799.66,-87.43 2798.98,-80.46"/>
</g>
<!-- Node23 -->
<g id="node23" class="node">
<title>Node23</title>
<g id="a_node23"><a xlink:href="kalman__constructor__default__5x4x0_8cpp.xhtml" target="_top" xlink:title=" ">
<polygon fill="white" stroke="#666666" points="3424.5,-41 3284.5,-41 3284.5,0 3424.5,0 3424.5,-41"/>
<text text-anchor="start" x="3292.5" y="-29" font-family="Helvetica,sans-Serif" font-size="10.00">/github/workspace/test</text>
<text text-anchor="start" x="3292.5" y="-18" font-family="Helvetica,sans-Serif" font-size="10.00">/kalman_constructor_default</text>
<text text-anchor="middle" x="3354.5" y="-7" font-family="Helvetica,sans-Serif" font-size="10.00">_5x4x0.cpp</text>
</a>
</g>
</g>
<!-- Node2&#45;&gt;Node23 -->
<g id="edge22" class="edge">
<title>Node2&#45;&gt;Node23</title>
<path fill="none" stroke="#63b8ff" d="M2798.94,-87.76C2906.08,-82.39 3106.72,-69.29 3275.5,-41 3278.43,-40.51 3281.4,-39.97 3284.4,-39.39"/>
<polygon fill="#63b8ff" stroke="#63b8ff" points="2798.94,-84.26 2789.12,-88.24 2799.28,-91.25 2798.94,-84.26"/>
</g>
<!-- Node24 -->
<g id="node24" class="node">
<title>Node24</title>
<g id="a_node24"><a xlink:href="kalman__constructor__default__5x4x1_8cpp.xhtml" target="_top" xlink:title=" ">
<polygon fill="white" stroke="#666666" points="3582.5,-41 3442.5,-41 3442.5,0 3582.5,0 3582.5,-41"/>
<text text-anchor="start" x="3450.5" y="-29" font-family="Helvetica,sans-Serif" font-size="10.00">/github/workspace/test</text>
<text text-anchor="start" x="3450.5" y="-18" font-family="Helvetica,sans-Serif" font-size="10.00">/kalman_constructor_default</text>
<text text-anchor="middle" x="3512.5" y="-7" font-family="Helvetica,sans-Serif" font-size="10.00">_5x4x1.cpp</text>
</a>
</g>
</g>
<!-- Node2&#45;&gt;Node24 -->
<g id="edge23" class="edge">
<title>Node2&#45;&gt;Node24</title>
<path fill="none" stroke="#63b8ff" d="M2799.07,-89.92C2929.89,-87.11 3204.49,-77.04 3433.5,-41 3436.43,-40.54 3439.41,-40.02 3442.42,-39.46"/>
<polygon fill="#63b8ff" stroke="#63b8ff" points="2799.06,-86.42 2789.14,-90.12 2799.21,-93.41 2799.06,-86.42"/>
</g>
<!-- Node25 -->
<g id="node25" class="node">
<title>Node25</title>
<g id="a_node25"><a xlink:href="kalman__constructor__default__5x4x3_8cpp.xhtml" target="_top" xlink:title=" ">
<polygon fill="white" stroke="#666666" points="3740.5,-41 3600.5,-41 3600.5,0 3740.5,0 3740.5,-41"/>
<text text-anchor="start" x="3608.5" y="-29" font-family="Helvetica,sans-Serif" font-size="10.00">/github/workspace/test</text>
<text text-anchor="start" x="3608.5" y="-18" font-family="Helvetica,sans-Serif" font-size="10.00">/kalman_constructor_default</text>
<text text-anchor="middle" x="3670.5" y="-7" font-family="Helvetica,sans-Serif" font-size="10.00">_5x4x3.cpp</text>
</a>
</g>
</g>
<!-- Node2&#45;&gt;Node25 -->
<g id="edge24" class="edge">
<title>Node2&#45;&gt;Node25</title>
<path fill="none" stroke="#63b8ff" d="M2799.26,-91.32C2951.35,-90.91 3301.33,-84.78 3591.5,-41 3594.43,-40.56 3597.42,-40.06 3600.42,-39.51"/>
<polygon fill="#63b8ff" stroke="#63b8ff" points="2799.29,-87.82 2789.3,-91.34 2799.31,-94.82 2799.29,-87.82"/>
</g>
<!-- Node26 -->
<g id="node26" class="node">
<title>Node26</title>
<g id="a_node26"><a xlink:href="kalman__constructor__default__float__1x1x1_8cpp.xhtml" target="_top" xlink:title=" ">
<polygon fill="white" stroke="#666666" points="3898.5,-41 3758.5,-41 3758.5,0 3898.5,0 3898.5,-41"/>
<text text-anchor="start" x="3766.5" y="-29" font-family="Helvetica,sans-Serif" font-size="10.00">/github/workspace/test</text>
<text text-anchor="start" x="3766.5" y="-18" font-family="Helvetica,sans-Serif" font-size="10.00">/kalman_constructor_default</text>
<text text-anchor="middle" x="3828.5" y="-7" font-family="Helvetica,sans-Serif" font-size="10.00">_float_1x1x1.cpp</text>
</a>
</g>
</g>
<!-- Node2&#45;&gt;Node26 -->
<g id="edge25" class="edge">
<title>Node2&#45;&gt;Node26</title>
<path fill="none" stroke="#63b8ff" d="M2799.16,-89.19C3004.93,-84.02 3566.18,-67.83 3749.5,-41 3752.44,-40.57 3755.42,-40.08 3758.43,-39.54"/>
<polygon fill="#63b8ff" stroke="#63b8ff" points="2799.3,-85.69 2789.39,-89.43 2799.47,-92.68 2799.3,-85.69"/>
</g>
<!-- Node27 -->
<g id="node27" class="node">
<title>Node27</title>
<g id="a_node27"><a xlink:href="kalman__constructor__move__5x4x3_8cpp.xhtml" target="_top" xlink:title=" ">
<polygon fill="white" stroke="#666666" points="4050.5,-41 3916.5,-41 3916.5,0 4050.5,0 4050.5,-41"/>
<text text-anchor="start" x="3924.5" y="-29" font-family="Helvetica,sans-Serif" font-size="10.00">/github/workspace/test</text>
<text text-anchor="start" x="3924.5" y="-18" font-family="Helvetica,sans-Serif" font-size="10.00">/kalman_constructor_move</text>
<text text-anchor="middle" x="3983.5" y="-7" font-family="Helvetica,sans-Serif" font-size="10.00">_5x4x3.cpp</text>
</a>
</g>
</g>
<!-- Node2&#45;&gt;Node27 -->
<g id="edge26" class="edge">
<title>Node2&#45;&gt;Node27</title>
<path fill="none" stroke="#63b8ff" d="M2799.29,-89.86C3026.43,-86.14 3692.51,-72.76 3907.5,-41 3910.33,-40.58 3913.21,-40.1 3916.1,-39.57"/>
<polygon fill="#63b8ff" stroke="#63b8ff" points="2799.3,-86.35 2789.36,-90.02 2799.42,-93.35 2799.3,-86.35"/>
</g>
<!-- Node28 -->
<g id="node28" class="node">
<title>Node28</title>
<g id="a_node28"><a xlink:href="kalman__f_8cpp.xhtml" target="_top" xlink:title=" ">
<polygon fill="white" stroke="#666666" points="4184.5,-35.5 4068.5,-35.5 4068.5,-5.5 4184.5,-5.5 4184.5,-35.5"/>
<text text-anchor="start" x="4076.5" y="-23.5" font-family="Helvetica,sans-Serif" font-size="10.00">/github/workspace/test</text>
<text text-anchor="middle" x="4126.5" y="-12.5" font-family="Helvetica,sans-Serif" font-size="10.00">/kalman_f.cpp</text>
</a>
</g>
</g>
<!-- Node2&#45;&gt;Node28 -->
<g id="edge27" class="edge">
<title>Node2&#45;&gt;Node28</title>
<path fill="none" stroke="#63b8ff" d="M2798.92,-90.61C3044.86,-88.95 3814.17,-80.67 4059.5,-41 4067.03,-39.78 4074.92,-37.98 4082.52,-35.96"/>
<polygon fill="#63b8ff" stroke="#63b8ff" points="2799.09,-87.11 2789.12,-90.67 2799.14,-94.11 2799.09,-87.11"/>
</g>
<!-- Node29 -->
<g id="node29" class="node">
<title>Node29</title>
<g id="a_node29"><a xlink:href="kalman__f__5x4x3_8cpp.xhtml" target="_top" xlink:title=" ">
<polygon fill="white" stroke="#666666" points="4318.5,-35.5 4202.5,-35.5 4202.5,-5.5 4318.5,-5.5 4318.5,-35.5"/>
<text text-anchor="start" x="4210.5" y="-23.5" font-family="Helvetica,sans-Serif" font-size="10.00">/github/workspace/test</text>
<text text-anchor="middle" x="4260.5" y="-12.5" font-family="Helvetica,sans-Serif" font-size="10.00">/kalman_f_5x4x3.cpp</text>
</a>
</g>
</g>
<!-- Node2&#45;&gt;Node29 -->
<g id="edge28" class="edge">
<title>Node2&#45;&gt;Node29</title>
<path fill="none" stroke="#63b8ff" d="M2798.92,-90.91C3060.81,-90.22 3920.94,-84.59 4193.5,-41 4201.04,-39.79 4208.92,-38 4216.53,-35.98"/>
<polygon fill="#63b8ff" stroke="#63b8ff" points="2799.14,-87.41 2789.15,-90.94 2799.16,-94.41 2799.14,-87.41"/>
</g>
<!-- Node30 -->
<g id="node30" class="node">
<title>Node30</title>
<g id="a_node30"><a xlink:href="kalman__format_8cpp.xhtml" target="_top" xlink:title=" ">
<polygon fill="white" stroke="#666666" points="4452.5,-35.5 4336.5,-35.5 4336.5,-5.5 4452.5,-5.5 4452.5,-35.5"/>
<text text-anchor="start" x="4344.5" y="-23.5" font-family="Helvetica,sans-Serif" font-size="10.00">/github/workspace/test</text>
<text text-anchor="middle" x="4394.5" y="-12.5" font-family="Helvetica,sans-Serif" font-size="10.00">/kalman_format.cpp</text>
</a>
</g>
</g>
<!-- Node2&#45;&gt;Node30 -->
<g id="edge29" class="edge">
<title>Node2&#45;&gt;Node30</title>
<path fill="none" stroke="#63b8ff" d="M2798.81,-91.17C3075.79,-91.38 4027.57,-88.53 4327.5,-41 4335.16,-39.79 4343.17,-37.96 4350.89,-35.91"/>
<polygon fill="#63b8ff" stroke="#63b8ff" points="2799.2,-87.67 2789.19,-91.16 2799.19,-94.67 2799.2,-87.67"/>
</g>
<!-- Node31 -->
<g id="node31" class="node">
<title>Node31</title>
<g id="a_node31"><a xlink:href="kalman__format__arguments_8cpp.xhtml" target="_top" xlink:title=" ">
<polygon fill="white" stroke="#666666" points="4624,-35.5 4471,-35.5 4471,-5.5 4624,-5.5 4624,-35.5"/>
<text text-anchor="start" x="4479" y="-23.5" font-family="Helvetica,sans-Serif" font-size="10.00">/github/workspace/test</text>
<text text-anchor="middle" x="4547.5" y="-12.5" font-family="Helvetica,sans-Serif" font-size="10.00">/kalman_format_arguments.cpp</text>
</a>
</g>
</g>
<!-- Node2&#45;&gt;Node31 -->
<g id="edge30" class="edge">
<title>Node2&#45;&gt;Node31</title>
<path fill="none" stroke="#63b8ff" d="M2799.13,-90.78C3090.97,-89.61 4132.91,-82.58 4461.5,-41 4471.07,-39.79 4481.14,-37.99 4490.88,-35.97"/>
<polygon fill="#63b8ff" stroke="#63b8ff" points="2799.34,-87.27 2789.36,-90.81 2799.37,-94.27 2799.34,-87.27"/>
</g>
<!-- Node32 -->
<g id="node32" class="node">
<title>Node32</title>
<g id="a_node32"><a xlink:href="kalman__format__float__1x1x1_8cpp.xhtml" target="_top" xlink:title=" ">
<polygon fill="white" stroke="#666666" points="4797,-35.5 4642,-35.5 4642,-5.5 4797,-5.5 4797,-35.5"/>
<text text-anchor="start" x="4650" y="-23.5" font-family="Helvetica,sans-Serif" font-size="10.00">/github/workspace/test</text>
<text text-anchor="middle" x="4719.5" y="-12.5" font-family="Helvetica,sans-Serif" font-size="10.00">/kalman_format_float_1x1x1.cpp</text>
</a>
</g>
</g>
<!-- Node2&#45;&gt;Node32 -->
<g id="edge31" class="edge">
<title>Node2&#45;&gt;Node32</title>
<path fill="none" stroke="#63b8ff" d="M2798.89,-91.01C3108.32,-90.73 4269.38,-86.59 4633.5,-41 4643.07,-39.8 4653.14,-38.01 4662.88,-36"/>
<polygon fill="#63b8ff" stroke="#63b8ff" points="2799.32,-87.51 2789.33,-91.01 2799.33,-94.51 2799.32,-87.51"/>
</g>
<!-- Node33 -->
<g id="node33" class="node">
<title>Node33</title>
<g id="a_node33"><a xlink:href="kalman__h_8cpp.xhtml" target="_top" xlink:title=" ">
<polygon fill="white" stroke="#666666" points="4931.5,-35.5 4815.5,-35.5 4815.5,-5.5 4931.5,-5.5 4931.5,-35.5"/>
<text text-anchor="start" x="4823.5" y="-23.5" font-family="Helvetica,sans-Serif" font-size="10.00">/github/workspace/test</text>
<text text-anchor="middle" x="4873.5" y="-12.5" font-family="Helvetica,sans-Serif" font-size="10.00">/kalman_h.cpp</text>
</a>
</g>
</g>
<!-- Node2&#45;&gt;Node33 -->
<g id="edge32" class="edge">
<title>Node2&#45;&gt;Node33</title>
<path fill="none" stroke="#63b8ff" d="M2799.08,-90.34C3151.13,-87.13 4605.54,-72.11 4806.5,-41 4814.16,-39.81 4822.18,-38 4829.9,-35.95"/>
<polygon fill="#63b8ff" stroke="#63b8ff" points="2799.24,-86.84 2789.27,-90.43 2799.31,-93.84 2799.24,-86.84"/>
</g>
<!-- Node34 -->
<g id="node34" class="node">
<title>Node34</title>
<g id="a_node34"><a xlink:href="kalman__h__5x4x3_8cpp.xhtml" target="_top" xlink:title=" ">
<polygon fill="white" stroke="#666666" points="5065.5,-35.5 4949.5,-35.5 4949.5,-5.5 5065.5,-5.5 5065.5,-35.5"/>
<text text-anchor="start" x="4957.5" y="-23.5" font-family="Helvetica,sans-Serif" font-size="10.00">/github/workspace/test</text>
<text text-anchor="middle" x="5007.5" y="-12.5" font-family="Helvetica,sans-Serif" font-size="10.00">/kalman_h_5x4x3.cpp</text>
</a>
</g>
</g>
<!-- Node2&#45;&gt;Node34 -->
<g id="edge33" class="edge">
<title>Node2&#45;&gt;Node34</title>
<path fill="none" stroke="#63b8ff" d="M2799.19,-90.46C3165.21,-87.7 4725.68,-74.1 4940.5,-41 4948.16,-39.82 4956.18,-38.01 4963.9,-35.96"/>
<polygon fill="#63b8ff" stroke="#63b8ff" points="2799.43,-86.95 2789.46,-90.53 2799.48,-93.95 2799.43,-86.95"/>
</g>
<!-- Node35 -->
<g id="node35" class="node">
<title>Node35</title>
<g id="a_node35"><a xlink:href="kalman__println_8cpp.xhtml" target="_top" xlink:title=" ">
<polygon fill="white" stroke="#666666" points="5199.5,-35.5 5083.5,-35.5 5083.5,-5.5 5199.5,-5.5 5199.5,-35.5"/>
<text text-anchor="start" x="5091.5" y="-23.5" font-family="Helvetica,sans-Serif" font-size="10.00">/github/workspace/test</text>
<text text-anchor="middle" x="5141.5" y="-12.5" font-family="Helvetica,sans-Serif" font-size="10.00">/kalman_println.cpp</text>
</a>
</g>
</g>
<!-- Node2&#45;&gt;Node35 -->
<g id="edge34" class="edge">
<title>Node2&#45;&gt;Node35</title>
<path fill="none" stroke="#63b8ff" d="M2799.13,-90.56C3178.41,-88.24 4845.75,-76.1 5074.5,-41 5082.16,-39.82 5090.18,-38.02 5097.9,-35.97"/>
<polygon fill="#63b8ff" stroke="#63b8ff" points="2799.25,-87.06 2789.27,-90.62 2799.29,-94.06 2799.25,-87.06"/>
</g>
</g>
</svg>
        <g id="navigator" transform="translate(0 0)" fill="#404254">
                <rect fill="#f2f5e9" fill-opacity="0.5" stroke="#606060" stroke-width=".5" x="0" y="0" width="60" height="60"/>
                <use id="zoomplus" xlink:href="#zoomPlus" x="17" y="9" onmousedown="handleZoom(evt,'in')"/>
                <use id="zoomminus" xlink:href="#zoomMin" x="42" y="9" onmousedown="handleZoom(evt,'out')"/>
                <use id="reset" xlink:href="#resetDef" x="30" y="36" onmousedown="handleReset()"/>
                <g id="arrowUp" xlink:href="#dirArrow" transform="translate(30 24)" onmousedown="handlePan(0,-1)">
                  <use xlink:href="#rim" fill="#404040">
                        <set attributeName="fill" to="#808080" begin="arrowUp.mouseover" end="arrowUp.mouseout"/>
                  </use>
                  <path fill="none" stroke="white" stroke-width="1.5" d="M0,-3.0v7 M-2.5,-0.5L0,-3.0L2.5,-0.5"/>
                </g>
                <g id="arrowRight" xlink:href="#dirArrow" transform="rotate(90) translate(36 -43)" onmousedown="handlePan(1,0)">
                  <use xlink:href="#rim" fill="#404040">
                        <set attributeName="fill" to="#808080" begin="arrowRight.mouseover" end="arrowRight.mouseout"/>
                  </use>
                  <path fill="none" stroke="white" stroke-width="1.5" d="M0,-3.0v7 M-2.5,-0.5L0,-3.0L2.5,-0.5"/>
                </g>
                <g id="arrowDown" xlink:href="#dirArrow" transform="rotate(180) translate(-30 -48)" onmousedown="handlePan(0,1)">
                  <use xlink:href="#rim" fill="#404040">
                        <set attributeName="fill" to="#808080" begin="arrowDown.mouseover" end="arrowDown.mouseout"/>
                  </use>
                  <path fill="none" stroke="white" stroke-width="1.5" d="M0,-3.0v7 M-2.5,-0.5L0,-3.0L2.5,-0.5"/>
                </g>
                <g id="arrowLeft" xlink:href="#dirArrow" transform="rotate(270) translate(-36 17)" onmousedown="handlePan(-1,0)">
                  <use xlink:href="#rim" fill="#404040">
                        <set attributeName="fill" to="#808080" begin="arrowLeft.mouseover" end="arrowLeft.mouseout"/>
                  </use>
                  <path fill="none" stroke="white" stroke-width="1.5" d="M0,-3.0v7 M-2.5,-0.5L0,-3.0L2.5,-0.5"/>
                </g>
        </g>
        <svg viewBox="0 0 15 15" width="100%" height="30px" preserveAspectRatio="xMaxYMin meet">
         <g id="arrow_out" transform="scale(0.3 0.3)">
          <a xlink:href="algorithm_8hpp__dep__incl_org.svg" target="_base">
           <rect id="button" ry="5" rx="5" y="6" x="6" height="38" width="38"
                fill="#f2f5e9" fill-opacity="0.5" stroke="#606060" stroke-width="1.0"/>
           <path id="arrow"
             d="M 11.500037,31.436501 C 11.940474,20.09759 22.043105,11.32322 32.158766,21.979434 L 37.068811,17.246167 C 37.068811,17.246167 37.088388,32 37.088388,32 L 22.160133,31.978069 C 22.160133,31.978069 26.997745,27.140456 26.997745,27.140456 C 18.528582,18.264221 13.291696,25.230495 11.500037,31.436501 z"
             style="fill:#404040;"/>
          </a>
         </g>
        </svg>
</svg>
