<?xml version="1.0" encoding="UTF-8" standalone="no"?>
<!DOCTYPE svg PUBLIC "-//W3C//DTD SVG 1.1//EN"
 "http://www.w3.org/Graphics/SVG/1.1/DTD/svg11.dtd">
<!-- Generated by graphviz version 3.0.0 (20221109.1736)
 -->
<!-- Title: /github/workspace/include/fcarouge/algorithm.hpp Pages: 1 -->
<!--zoomable 184 -->
<svg id="main" version="1.1" xmlns="http://www.w3.org/2000/svg" xmlns:xlink="http://www.w3.org/1999/xlink" xml:space="preserve" onload="init(evt)">
<style type="text/css"><![CDATA[
.edge:hover path { stroke: red; }
.edge:hover polygon { stroke: red; fill: red; }
]]></style>
<script type="text/javascript"><![CDATA[
var edges = document.getElementsByTagName('g');
if (edges && edges.length) {
  for (var i=0;i<edges.length;i++) {
    if (edges[i].id.substr(0,4)=='edge') {
      edges[i].setAttribute('class','edge');
    }
  }
}
]]></script>
        <defs>
                <circle id="rim" cx="0" cy="0" r="7"/>
                <circle id="rim2" cx="0" cy="0" r="3.5"/>
                <g id="zoomPlus">
                        <use xlink:href="#rim" fill="#404040">
                                <set attributeName="fill" to="#808080" begin="zoomplus.mouseover" end="zoomplus.mouseout"/>
                        </use>
                        <path d="M-4,0h8M0,-4v8" fill="none" stroke="white" stroke-width="1.5" pointer-events="none"/>
                </g>
                <g id="zoomMin">
                        <use xlink:href="#rim" fill="#404040">
                                <set attributeName="fill" to="#808080" begin="zoomminus.mouseover" end="zoomminus.mouseout"/>
                        </use>
                        <path d="M-4,0h8" fill="none" stroke="white" stroke-width="1.5" pointer-events="none"/>
                </g>
                <g id="dirArrow">
                        <path fill="none" stroke="white" stroke-width="1.5" d="M0,-3.0v7 M-2.5,-0.5L0,-3.0L2.5,-0.5"/>
                </g>
               <g id="resetDef">
                       <use xlink:href="#rim2" fill="#404040">
                               <set attributeName="fill" to="#808080" begin="reset.mouseover" end="reset.mouseout"/>
                       </use>
               </g>
        </defs>

<script type="text/javascript">
var viewWidth = 4742;
var viewHeight = 184;
var sectionId = 'dynsection-0';
</script>
<script xlink:href="svgpan.js"/>
<svg id="graph" class="graph">
<g id="viewport">
<title>/github/workspace/include/fcarouge/algorithm.hpp</title>
<polygon fill="white" stroke="transparent" points="-4,4 -4,-180 4737.5,-180 4737.5,4 -4,4"/>
<!-- Node1 -->
<g id="node1" class="node">
<title>Node1</title>
<g id="a_node1"><a xlink:title="The collection of Kalman algorithms.">
<polygon fill="#bfbfbf" stroke="black" points="2342.5,-145.5 2342.5,-175.5 2472.5,-175.5 2472.5,-145.5 2342.5,-145.5"/>
<text text-anchor="start" x="2350.5" y="-163.5" font-family="Helvetica,sans-Serif" font-size="10.00">/github/workspace/include</text>
<text text-anchor="middle" x="2407.5" y="-152.5" font-family="Helvetica,sans-Serif" font-size="10.00">/fcarouge/algorithm.hpp</text>
</a>
</g>
</g>
<!-- Node2 -->
<g id="node2" class="node">
<title>Node2</title>
<g id="a_node2"><a xlink:href="kalman_8hpp.xhtml" target="_top" xlink:title="The Kalman filter class and library top&#45;level header.">
<polygon fill="white" stroke="black" points="2342.5,-78.5 2342.5,-108.5 2472.5,-108.5 2472.5,-78.5 2342.5,-78.5"/>
<text text-anchor="start" x="2350.5" y="-96.5" font-family="Helvetica,sans-Serif" font-size="10.00">/github/workspace/include</text>
<text text-anchor="middle" x="2407.5" y="-85.5" font-family="Helvetica,sans-Serif" font-size="10.00">/fcarouge/kalman.hpp</text>
</a>
</g>
</g>
<!-- Node1&#45;&gt;Node2 -->
<g id="edge1" class="edge">
<title>Node1&#45;&gt;Node2</title>
<path fill="none" stroke="midnightblue" d="M2407.5,-135.11C2407.5,-126.15 2407.5,-116.32 2407.5,-108.58"/>
<polygon fill="midnightblue" stroke="midnightblue" points="2404,-135.4 2407.5,-145.4 2411,-135.4 2404,-135.4"/>
</g>
<!-- Node3 -->
<g id="node3" class="node">
<title>Node3</title>
<g id="a_node3"><a xlink:href="eigen__predict__x1x_8cpp.xhtml" target="_top" xlink:title=" ">
<polygon fill="white" stroke="black" points="0,-6 0,-36 147,-36 147,-6 0,-6"/>
<text text-anchor="start" x="8" y="-24" font-family="Helvetica,sans-Serif" font-size="10.00">/github/workspace/benchmark</text>
<text text-anchor="middle" x="73.5" y="-13" font-family="Helvetica,sans-Serif" font-size="10.00">/eigen_predict_x1x.cpp</text>
</a>
</g>
</g>
<!-- Node2&#45;&gt;Node3 -->
<g id="edge2" class="edge">
<title>Node2&#45;&gt;Node3</title>
<path fill="none" stroke="midnightblue" d="M2331.97,-91.78C1964.78,-88.14 374.76,-70.85 155.5,-42 145.04,-40.62 133.98,-38.44 123.48,-36.01"/>
<polygon fill="midnightblue" stroke="midnightblue" points="2332.19,-95.28 2342.22,-91.88 2332.26,-88.28 2332.19,-95.28"/>
</g>
<!-- Node4 -->
<g id="node4" class="node">
<title>Node4</title>
<g id="a_node4"><a xlink:href="eigen__update__xx0_8cpp.xhtml" target="_top" xlink:title=" ">
<polygon fill="white" stroke="black" points="165,-6 165,-36 312,-36 312,-6 165,-6"/>
<text text-anchor="start" x="173" y="-24" font-family="Helvetica,sans-Serif" font-size="10.00">/github/workspace/benchmark</text>
<text text-anchor="middle" x="238.5" y="-13" font-family="Helvetica,sans-Serif" font-size="10.00">/eigen_update_xx0.cpp</text>
</a>
</g>
</g>
<!-- Node2&#45;&gt;Node4 -->
<g id="edge3" class="edge">
<title>Node2&#45;&gt;Node4</title>
<path fill="none" stroke="midnightblue" d="M2332.17,-92.85C2006.88,-94 721.03,-95.06 320.5,-42 310.19,-40.63 299.29,-38.49 288.92,-36.1"/>
<polygon fill="midnightblue" stroke="midnightblue" points="2332.44,-96.34 2342.43,-92.81 2332.41,-89.34 2332.44,-96.34"/>
</g>
<!-- Node5 -->
<g id="node5" class="node">
<title>Node5</title>
<g id="a_node5"><a xlink:href="predict__1x1x0_8cpp.xhtml" target="_top" xlink:title=" ">
<polygon fill="white" stroke="black" points="330,-6 330,-36 477,-36 477,-6 330,-6"/>
<text text-anchor="start" x="338" y="-24" font-family="Helvetica,sans-Serif" font-size="10.00">/github/workspace/benchmark</text>
<text text-anchor="middle" x="403.5" y="-13" font-family="Helvetica,sans-Serif" font-size="10.00">/predict_1x1x0.cpp</text>
</a>
</g>
</g>
<!-- Node2&#45;&gt;Node5 -->
<g id="edge4" class="edge">
<title>Node2&#45;&gt;Node5</title>
<path fill="none" stroke="midnightblue" d="M2332.09,-92.66C2022.97,-92.99 851.9,-90.93 485.5,-42 475.19,-40.62 464.29,-38.47 453.92,-36.08"/>
<polygon fill="midnightblue" stroke="midnightblue" points="2332.29,-96.16 2342.28,-92.65 2332.28,-89.16 2332.29,-96.16"/>
</g>
<!-- Node6 -->
<g id="node6" class="node">
<title>Node6</title>
<g id="a_node6"><a xlink:href="predict__1x1x1_8cpp.xhtml" target="_top" xlink:title=" ">
<polygon fill="white" stroke="black" points="495,-6 495,-36 642,-36 642,-6 495,-6"/>
<text text-anchor="start" x="503" y="-24" font-family="Helvetica,sans-Serif" font-size="10.00">/github/workspace/benchmark</text>
<text text-anchor="middle" x="568.5" y="-13" font-family="Helvetica,sans-Serif" font-size="10.00">/predict_1x1x1.cpp</text>
</a>
</g>
</g>
<!-- Node2&#45;&gt;Node6 -->
<g id="edge5" class="edge">
<title>Node2&#45;&gt;Node6</title>
<path fill="none" stroke="midnightblue" d="M2332.34,-92.44C2040.62,-91.9 983.01,-86.82 650.5,-42 640.19,-40.61 629.29,-38.45 618.92,-36.06"/>
<polygon fill="midnightblue" stroke="midnightblue" points="2332.39,-95.94 2342.4,-92.46 2332.4,-88.94 2332.39,-95.94"/>
</g>
<!-- Node7 -->
<g id="node7" class="node">
<title>Node7</title>
<g id="a_node7"><a xlink:href="update__1x1x0_8cpp.xhtml" target="_top" xlink:title=" ">
<polygon fill="white" stroke="black" points="660,-6 660,-36 807,-36 807,-6 660,-6"/>
<text text-anchor="start" x="668" y="-24" font-family="Helvetica,sans-Serif" font-size="10.00">/github/workspace/benchmark</text>
<text text-anchor="middle" x="733.5" y="-13" font-family="Helvetica,sans-Serif" font-size="10.00">/update_1x1x0.cpp</text>
</a>
</g>
</g>
<!-- Node2&#45;&gt;Node7 -->
<g id="edge6" class="edge">
<title>Node2&#45;&gt;Node7</title>
<path fill="none" stroke="midnightblue" d="M2332.22,-92.18C2058.16,-90.7 1114.08,-82.7 815.5,-42 805.19,-40.59 794.29,-38.43 783.93,-36.04"/>
<polygon fill="midnightblue" stroke="midnightblue" points="2332.44,-95.68 2342.46,-92.24 2332.48,-88.68 2332.44,-95.68"/>
</g>
<!-- Node8 -->
<g id="node8" class="node">
<title>Node8</title>
<g id="a_node8"><a xlink:href="update__1x1x1_8cpp.xhtml" target="_top" xlink:title=" ">
<polygon fill="white" stroke="black" points="825,-6 825,-36 972,-36 972,-6 825,-6"/>
<text text-anchor="start" x="833" y="-24" font-family="Helvetica,sans-Serif" font-size="10.00">/github/workspace/benchmark</text>
<text text-anchor="middle" x="898.5" y="-13" font-family="Helvetica,sans-Serif" font-size="10.00">/update_1x1x1.cpp</text>
</a>
</g>
</g>
<!-- Node2&#45;&gt;Node8 -->
<g id="edge7" class="edge">
<title>Node2&#45;&gt;Node8</title>
<path fill="none" stroke="midnightblue" d="M2332.01,-91.86C2076.47,-89.37 1245.26,-78.58 980.5,-42 970.19,-40.58 959.3,-38.4 948.93,-36.01"/>
<polygon fill="midnightblue" stroke="midnightblue" points="2332.26,-95.36 2342.3,-91.96 2332.33,-88.36 2332.26,-95.36"/>
</g>
<!-- Node9 -->
<g id="node9" class="node">
<title>Node9</title>
<g id="a_node9"><a xlink:href="ekf__4x1x0__soaring_8cpp.xhtml" target="_top" xlink:title=" ">
<polygon fill="white" stroke="black" points="990,-6 990,-36 1121,-36 1121,-6 990,-6"/>
<text text-anchor="start" x="998" y="-24" font-family="Helvetica,sans-Serif" font-size="10.00">/github/workspace/sample</text>
<text text-anchor="middle" x="1055.5" y="-13" font-family="Helvetica,sans-Serif" font-size="10.00">/ekf_4x1x0_soaring.cpp</text>
</a>
</g>
</g>
<!-- Node2&#45;&gt;Node9 -->
<g id="edge8" class="edge">
<title>Node2&#45;&gt;Node9</title>
<path fill="none" stroke="midnightblue" d="M2331.98,-91.7C2094.43,-88.85 1364.37,-77.36 1130.5,-42 1121.17,-40.59 1111.34,-38.46 1101.97,-36.1"/>
<polygon fill="midnightblue" stroke="midnightblue" points="2332.2,-95.21 2342.25,-91.82 2332.29,-88.21 2332.2,-95.21"/>
</g>
<!-- Node10 -->
<g id="node10" class="node">
<title>Node10</title>
<g id="a_node10"><a xlink:href="kf__1x1x0__building__height_8cpp.xhtml" target="_top" xlink:title=" ">
<polygon fill="white" stroke="black" points="1139.5,-6 1139.5,-36 1285.5,-36 1285.5,-6 1139.5,-6"/>
<text text-anchor="start" x="1147.5" y="-24" font-family="Helvetica,sans-Serif" font-size="10.00">/github/workspace/sample</text>
<text text-anchor="middle" x="1212.5" y="-13" font-family="Helvetica,sans-Serif" font-size="10.00">/kf_1x1x0_building_height.cpp</text>
</a>
</g>
</g>
<!-- Node2&#45;&gt;Node10 -->
<g id="edge9" class="edge">
<title>Node2&#45;&gt;Node10</title>
<path fill="none" stroke="midnightblue" d="M2331.88,-90.98C2115.33,-86.32 1495.49,-70.79 1294.5,-42 1284.35,-40.55 1273.61,-38.39 1263.38,-36.03"/>
<polygon fill="midnightblue" stroke="midnightblue" points="2332.12,-94.49 2342.2,-91.2 2332.27,-87.49 2332.12,-94.49"/>
</g>
<!-- Node11 -->
<g id="node11" class="node">
<title>Node11</title>
<g id="a_node11"><a xlink:href="kf__1x1x0__liquid__temperature_8cpp.xhtml" target="_top" xlink:title=" ">
<polygon fill="white" stroke="black" points="1304,-6 1304,-36 1465,-36 1465,-6 1304,-6"/>
<text text-anchor="start" x="1312" y="-24" font-family="Helvetica,sans-Serif" font-size="10.00">/github/workspace/sample</text>
<text text-anchor="middle" x="1384.5" y="-13" font-family="Helvetica,sans-Serif" font-size="10.00">/kf_1x1x0_liquid_temperature.cpp</text>
</a>
</g>
</g>
<!-- Node2&#45;&gt;Node11 -->
<g id="edge10" class="edge">
<title>Node2&#45;&gt;Node11</title>
<path fill="none" stroke="midnightblue" d="M2332.24,-92.61C2173.12,-91.93 1791.18,-85.46 1474.5,-42 1463.56,-40.5 1451.98,-38.35 1440.89,-36.02"/>
<polygon fill="midnightblue" stroke="midnightblue" points="2332.38,-96.11 2342.39,-92.65 2332.41,-89.11 2332.38,-96.11"/>
</g>
<!-- Node12 -->
<g id="node12" class="node">
<title>Node12</title>
<g id="a_node12"><a xlink:href="kf__1x1x1__dog__position_8cpp.xhtml" target="_top" xlink:title=" ">
<polygon fill="white" stroke="black" points="1483.5,-6 1483.5,-36 1619.5,-36 1619.5,-6 1483.5,-6"/>
<text text-anchor="start" x="1491.5" y="-24" font-family="Helvetica,sans-Serif" font-size="10.00">/github/workspace/sample</text>
<text text-anchor="middle" x="1551.5" y="-13" font-family="Helvetica,sans-Serif" font-size="10.00">/kf_1x1x1_dog_position.cpp</text>
</a>
</g>
</g>
<!-- Node2&#45;&gt;Node12 -->
<g id="edge11" class="edge">
<title>Node2&#45;&gt;Node12</title>
<path fill="none" stroke="midnightblue" d="M2332.24,-92.34C2192.61,-91 1884.36,-83.14 1628.5,-42 1619.09,-40.49 1609.16,-38.34 1599.67,-36"/>
<polygon fill="midnightblue" stroke="midnightblue" points="2332.37,-95.84 2342.4,-92.43 2332.43,-88.84 2332.37,-95.84"/>
</g>
<!-- Node13 -->
<g id="node13" class="node">
<title>Node13</title>
<g id="a_node13"><a xlink:href="kf__2x1x1__rocket__altitude_8cpp.xhtml" target="_top" xlink:title=" ">
<polygon fill="white" stroke="black" points="1638,-6 1638,-36 1783,-36 1783,-6 1638,-6"/>
<text text-anchor="start" x="1646" y="-24" font-family="Helvetica,sans-Serif" font-size="10.00">/github/workspace/sample</text>
<text text-anchor="middle" x="1710.5" y="-13" font-family="Helvetica,sans-Serif" font-size="10.00">/kf_2x1x1_rocket_altitude.cpp</text>
</a>
</g>
</g>
<!-- Node2&#45;&gt;Node13 -->
<g id="edge12" class="edge">
<title>Node2&#45;&gt;Node13</title>
<path fill="none" stroke="midnightblue" d="M2332.1,-90.21C2215.52,-85.79 1984.76,-73.57 1791.5,-42 1781.92,-40.44 1771.81,-38.32 1762.1,-36.05"/>
<polygon fill="midnightblue" stroke="midnightblue" points="2332.22,-93.72 2342.34,-90.59 2332.48,-86.72 2332.22,-93.72"/>
</g>
<!-- Node14 -->
<g id="node14" class="node">
<title>Node14</title>
<g id="a_node14"><a xlink:href="kf__6x2x0__vehicle__location_8cpp.xhtml" target="_top" xlink:title=" ">
<polygon fill="white" stroke="black" points="1801,-6 1801,-36 1952,-36 1952,-6 1801,-6"/>
<text text-anchor="start" x="1809" y="-24" font-family="Helvetica,sans-Serif" font-size="10.00">/github/workspace/sample</text>
<text text-anchor="middle" x="1876.5" y="-13" font-family="Helvetica,sans-Serif" font-size="10.00">/kf_6x2x0_vehicle_location.cpp</text>
</a>
</g>
</g>
<!-- Node2&#45;&gt;Node14 -->
<g id="edge13" class="edge">
<title>Node2&#45;&gt;Node14</title>
<path fill="none" stroke="midnightblue" d="M2332.16,-86.71C2243.17,-79.23 2090.87,-64.46 1961.5,-42 1951.94,-40.34 1941.85,-38.26 1932.09,-36.07"/>
<polygon fill="midnightblue" stroke="midnightblue" points="2331.9,-90.2 2342.16,-87.54 2332.48,-83.22 2331.9,-90.2"/>
</g>
<!-- Node15 -->
<g id="node15" class="node">
<title>Node15</title>
<g id="a_node15"><a xlink:href="kf__8x4x0__deep__sort__bounding__box_8cpp.xhtml" target="_top" xlink:title=" ">
<polygon fill="white" stroke="black" points="1970.5,-0.5 1970.5,-41.5 2120.5,-41.5 2120.5,-0.5 1970.5,-0.5"/>
<text text-anchor="start" x="1978.5" y="-29.5" font-family="Helvetica,sans-Serif" font-size="10.00">/github/workspace/sample</text>
<text text-anchor="start" x="1978.5" y="-18.5" font-family="Helvetica,sans-Serif" font-size="10.00">/kf_8x4x0_deep_sort_bounding</text>
<text text-anchor="middle" x="2045.5" y="-7.5" font-family="Helvetica,sans-Serif" font-size="10.00">_box.cpp</text>
</a>
</g>
</g>
<!-- Node2&#45;&gt;Node15 -->
<g id="edge14" class="edge">
<title>Node2&#45;&gt;Node15</title>
<path fill="none" stroke="midnightblue" d="M2332.23,-79.96C2276.18,-70.35 2197.86,-56.34 2129.5,-42 2126.57,-41.38 2123.58,-40.74 2120.56,-40.08"/>
<polygon fill="midnightblue" stroke="midnightblue" points="2331.98,-83.47 2342.43,-81.7 2333.16,-76.57 2331.98,-83.47"/>
</g>
<!-- Node16 -->
<g id="node16" class="node">
<title>Node16</title>
<g id="a_node16"><a xlink:href="eigen__f_8cpp.xhtml" target="_top" xlink:title=" ">
<polygon fill="white" stroke="black" points="2138.5,-6 2138.5,-36 2254.5,-36 2254.5,-6 2138.5,-6"/>
<text text-anchor="start" x="2146.5" y="-24" font-family="Helvetica,sans-Serif" font-size="10.00">/github/workspace/test</text>
<text text-anchor="middle" x="2196.5" y="-13" font-family="Helvetica,sans-Serif" font-size="10.00">/eigen_f.cpp</text>
</a>
</g>
</g>
<!-- Node2&#45;&gt;Node16 -->
<g id="edge15" class="edge">
<title>Node2&#45;&gt;Node16</title>
<path fill="none" stroke="midnightblue" d="M2355.74,-75.2C2319.76,-63.18 2272.41,-47.36 2238.72,-36.11"/>
<polygon fill="midnightblue" stroke="midnightblue" points="2354.97,-78.64 2365.56,-78.49 2357.19,-72 2354.97,-78.64"/>
</g>
<!-- Node17 -->
<g id="node17" class="node">
<title>Node17</title>
<g id="a_node17"><a xlink:href="eigen__h_8cpp.xhtml" target="_top" xlink:title=" ">
<polygon fill="white" stroke="black" points="2272.5,-6 2272.5,-36 2388.5,-36 2388.5,-6 2272.5,-6"/>
<text text-anchor="start" x="2280.5" y="-24" font-family="Helvetica,sans-Serif" font-size="10.00">/github/workspace/test</text>
<text text-anchor="middle" x="2330.5" y="-13" font-family="Helvetica,sans-Serif" font-size="10.00">/eigen_h.cpp</text>
</a>
</g>
</g>
<!-- Node2&#45;&gt;Node17 -->
<g id="edge16" class="edge">
<title>Node2&#45;&gt;Node17</title>
<path fill="none" stroke="midnightblue" d="M2384.52,-71.46C2372.01,-60 2356.86,-46.14 2345.8,-36"/>
<polygon fill="midnightblue" stroke="midnightblue" points="2382.18,-74.06 2391.92,-78.23 2386.91,-68.9 2382.18,-74.06"/>
</g>
<!-- Node18 -->
<g id="node18" class="node">
<title>Node18</title>
<g id="a_node18"><a xlink:href="kalman__constructor__default_8cpp.xhtml" target="_top" xlink:title=" ">
<polygon fill="white" stroke="black" points="2406.5,-6 2406.5,-36 2564.5,-36 2564.5,-6 2406.5,-6"/>
<text text-anchor="start" x="2414.5" y="-24" font-family="Helvetica,sans-Serif" font-size="10.00">/github/workspace/test</text>
<text text-anchor="middle" x="2485.5" y="-13" font-family="Helvetica,sans-Serif" font-size="10.00">/kalman_constructor_default.cpp</text>
</a>
</g>
</g>
<!-- Node2&#45;&gt;Node18 -->
<g id="edge17" class="edge">
<title>Node2&#45;&gt;Node18</title>
<path fill="none" stroke="midnightblue" d="M2430.77,-71.46C2443.45,-60 2458.8,-46.14 2470.01,-36"/>
<polygon fill="midnightblue" stroke="midnightblue" points="2428.36,-68.93 2423.28,-78.23 2433.05,-74.12 2428.36,-68.93"/>
</g>
<!-- Node19 -->
<g id="node19" class="node">
<title>Node19</title>
<g id="a_node19"><a xlink:href="kalman__constructor__default__eigen__1x1x3_8cpp.xhtml" target="_top" xlink:title=" ">
<polygon fill="white" stroke="black" points="2582.5,-0.5 2582.5,-41.5 2722.5,-41.5 2722.5,-0.5 2582.5,-0.5"/>
<text text-anchor="start" x="2590.5" y="-29.5" font-family="Helvetica,sans-Serif" font-size="10.00">/github/workspace/test</text>
<text text-anchor="start" x="2590.5" y="-18.5" font-family="Helvetica,sans-Serif" font-size="10.00">/kalman_constructor_default</text>
<text text-anchor="middle" x="2652.5" y="-7.5" font-family="Helvetica,sans-Serif" font-size="10.00">_eigen_1x1x3.cpp</text>
</a>
</g>
</g>
<!-- Node2&#45;&gt;Node19 -->
<g id="edge18" class="edge">
<title>Node2&#45;&gt;Node19</title>
<path fill="none" stroke="midnightblue" d="M2465.96,-75.68C2501.55,-65.44 2547.19,-52.3 2584.41,-41.59"/>
<polygon fill="midnightblue" stroke="midnightblue" points="2464.84,-72.36 2456.2,-78.49 2466.77,-79.09 2464.84,-72.36"/>
</g>
<!-- Node20 -->
<g id="node20" class="node">
<title>Node20</title>
<g id="a_node20"><a xlink:href="kalman__constructor__default__eigen__1x4x1_8cpp.xhtml" target="_top" xlink:title=" ">
<polygon fill="white" stroke="black" points="2740.5,-0.5 2740.5,-41.5 2880.5,-41.5 2880.5,-0.5 2740.5,-0.5"/>
<text text-anchor="start" x="2748.5" y="-29.5" font-family="Helvetica,sans-Serif" font-size="10.00">/github/workspace/test</text>
<text text-anchor="start" x="2748.5" y="-18.5" font-family="Helvetica,sans-Serif" font-size="10.00">/kalman_constructor_default</text>
<text text-anchor="middle" x="2810.5" y="-7.5" font-family="Helvetica,sans-Serif" font-size="10.00">_eigen_1x4x1.cpp</text>
</a>
</g>
</g>
<!-- Node2&#45;&gt;Node20 -->
<g id="edge19" class="edge">
<title>Node2&#45;&gt;Node20</title>
<path fill="none" stroke="midnightblue" d="M2482.96,-82.77C2548.86,-73.79 2646.92,-59.26 2731.5,-42 2734.41,-41.41 2737.38,-40.77 2740.37,-40.12"/>
<polygon fill="midnightblue" stroke="midnightblue" points="2482.11,-79.35 2472.67,-84.16 2483.05,-86.29 2482.11,-79.35"/>
</g>
<!-- Node21 -->
<g id="node21" class="node">
<title>Node21</title>
<g id="a_node21"><a xlink:href="kalman__constructor__default__eigen__1x4x3_8cpp.xhtml" target="_top" xlink:title=" ">
<polygon fill="white" stroke="black" points="2898.5,-0.5 2898.5,-41.5 3038.5,-41.5 3038.5,-0.5 2898.5,-0.5"/>
<text text-anchor="start" x="2906.5" y="-29.5" font-family="Helvetica,sans-Serif" font-size="10.00">/github/workspace/test</text>
<text text-anchor="start" x="2906.5" y="-18.5" font-family="Helvetica,sans-Serif" font-size="10.00">/kalman_constructor_default</text>
<text text-anchor="middle" x="2968.5" y="-7.5" font-family="Helvetica,sans-Serif" font-size="10.00">_eigen_1x4x3.cpp</text>
</a>
</g>
</g>
<!-- Node2&#45;&gt;Node21 -->
<g id="edge20" class="edge">
<title>Node2&#45;&gt;Node21</title>
<path fill="none" stroke="midnightblue" d="M2482.74,-87.97C2577.98,-81.48 2746.84,-67.4 2889.5,-42 2892.43,-41.48 2895.4,-40.91 2898.4,-40.3"/>
<polygon fill="midnightblue" stroke="midnightblue" points="2482.37,-84.49 2472.62,-88.65 2482.84,-91.48 2482.37,-84.49"/>
</g>
<!-- Node22 -->
<g id="node22" class="node">
<title>Node22</title>
<g id="a_node22"><a xlink:href="kalman__constructor__default__eigen__5x1x1_8cpp.xhtml" target="_top" xlink:title=" ">
<polygon fill="white" stroke="black" points="3056.5,-0.5 3056.5,-41.5 3196.5,-41.5 3196.5,-0.5 3056.5,-0.5"/>
<text text-anchor="start" x="3064.5" y="-29.5" font-family="Helvetica,sans-Serif" font-size="10.00">/github/workspace/test</text>
<text text-anchor="start" x="3064.5" y="-18.5" font-family="Helvetica,sans-Serif" font-size="10.00">/kalman_constructor_default</text>
<text text-anchor="middle" x="3126.5" y="-7.5" font-family="Helvetica,sans-Serif" font-size="10.00">_eigen_5x1x1.cpp</text>
</a>
</g>
</g>
<!-- Node2&#45;&gt;Node22 -->
<g id="edge21" class="edge">
<title>Node2&#45;&gt;Node22</title>
<path fill="none" stroke="midnightblue" d="M2483.09,-90.67C2603.34,-86.83 2845.27,-75.33 3047.5,-42 3050.43,-41.52 3053.41,-40.98 3056.42,-40.4"/>
<polygon fill="midnightblue" stroke="midnightblue" points="2482.78,-87.18 2472.89,-90.99 2483,-94.18 2482.78,-87.18"/>
</g>
<!-- Node23 -->
<g id="node23" class="node">
<title>Node23</title>
<g id="a_node23"><a xlink:href="kalman__constructor__default__eigen__5x1x3_8cpp.xhtml" target="_top" xlink:title=" ">
<polygon fill="white" stroke="black" points="3214.5,-0.5 3214.5,-41.5 3354.5,-41.5 3354.5,-0.5 3214.5,-0.5"/>
<text text-anchor="start" x="3222.5" y="-29.5" font-family="Helvetica,sans-Serif" font-size="10.00">/github/workspace/test</text>
<text text-anchor="start" x="3222.5" y="-18.5" font-family="Helvetica,sans-Serif" font-size="10.00">/kalman_constructor_default</text>
<text text-anchor="middle" x="3284.5" y="-7.5" font-family="Helvetica,sans-Serif" font-size="10.00">_eigen_5x1x3.cpp</text>
</a>
</g>
</g>
<!-- Node2&#45;&gt;Node23 -->
<g id="edge22" class="edge">
<title>Node2&#45;&gt;Node23</title>
<path fill="none" stroke="midnightblue" d="M2482.94,-92.35C2625.15,-91.05 2942.26,-83.29 3205.5,-42 3208.44,-41.54 3211.42,-41.02 3214.43,-40.45"/>
<polygon fill="midnightblue" stroke="midnightblue" points="2482.56,-88.85 2472.59,-92.44 2482.62,-95.85 2482.56,-88.85"/>
</g>
<!-- Node24 -->
<g id="node24" class="node">
<title>Node24</title>
<g id="a_node24"><a xlink:href="kalman__constructor__default__eigen__5x4x0_8cpp.xhtml" target="_top" xlink:title=" ">
<polygon fill="white" stroke="black" points="3372.5,-0.5 3372.5,-41.5 3512.5,-41.5 3512.5,-0.5 3372.5,-0.5"/>
<text text-anchor="start" x="3380.5" y="-29.5" font-family="Helvetica,sans-Serif" font-size="10.00">/github/workspace/test</text>
<text text-anchor="start" x="3380.5" y="-18.5" font-family="Helvetica,sans-Serif" font-size="10.00">/kalman_constructor_default</text>
<text text-anchor="middle" x="3442.5" y="-7.5" font-family="Helvetica,sans-Serif" font-size="10.00">_eigen_5x4x0.cpp</text>
</a>
</g>
</g>
<!-- Node2&#45;&gt;Node24 -->
<g id="edge23" class="edge">
<title>Node2&#45;&gt;Node24</title>
<path fill="none" stroke="midnightblue" d="M2482.76,-90.42C2677.42,-84.75 3194.09,-67.67 3363.5,-42 3366.44,-41.55 3369.42,-41.05 3372.43,-40.49"/>
<polygon fill="midnightblue" stroke="midnightblue" points="2482.52,-86.93 2472.63,-90.72 2482.72,-93.93 2482.52,-86.93"/>
</g>
<!-- Node25 -->
<g id="node25" class="node">
<title>Node25</title>
<g id="a_node25"><a xlink:href="kalman__constructor__default__eigen__5x4x1_8cpp.xhtml" target="_top" xlink:title=" ">
<polygon fill="white" stroke="black" points="3530.5,-0.5 3530.5,-41.5 3670.5,-41.5 3670.5,-0.5 3530.5,-0.5"/>
<text text-anchor="start" x="3538.5" y="-29.5" font-family="Helvetica,sans-Serif" font-size="10.00">/github/workspace/test</text>
<text text-anchor="start" x="3538.5" y="-18.5" font-family="Helvetica,sans-Serif" font-size="10.00">/kalman_constructor_default</text>
<text text-anchor="middle" x="3600.5" y="-7.5" font-family="Helvetica,sans-Serif" font-size="10.00">_eigen_5x4x1.cpp</text>
</a>
</g>
</g>
<!-- Node2&#45;&gt;Node25 -->
<g id="edge24" class="edge">
<title>Node2&#45;&gt;Node25</title>
<path fill="none" stroke="midnightblue" d="M2482.81,-91.07C2699.25,-86.66 3320.34,-71.71 3521.5,-42 3524.44,-41.57 3527.43,-41.07 3530.44,-40.52"/>
<polygon fill="midnightblue" stroke="midnightblue" points="2482.44,-87.58 2472.51,-91.28 2482.58,-94.58 2482.44,-87.58"/>
</g>
<!-- Node26 -->
<g id="node26" class="node">
<title>Node26</title>
<g id="a_node26"><a xlink:href="kalman__constructor__default__eigen__5x4x3_8cpp.xhtml" target="_top" xlink:title=" ">
<polygon fill="white" stroke="black" points="3688.5,-0.5 3688.5,-41.5 3828.5,-41.5 3828.5,-0.5 3688.5,-0.5"/>
<text text-anchor="start" x="3696.5" y="-29.5" font-family="Helvetica,sans-Serif" font-size="10.00">/github/workspace/test</text>
<text text-anchor="start" x="3696.5" y="-18.5" font-family="Helvetica,sans-Serif" font-size="10.00">/kalman_constructor_default</text>
<text text-anchor="middle" x="3758.5" y="-7.5" font-family="Helvetica,sans-Serif" font-size="10.00">_eigen_5x4x3.cpp</text>
</a>
</g>
</g>
<!-- Node2&#45;&gt;Node26 -->
<g id="edge25" class="edge">
<title>Node2&#45;&gt;Node26</title>
<path fill="none" stroke="midnightblue" d="M2483.12,-91.56C2720.11,-88.3 3446.47,-75.75 3679.5,-42 3682.44,-41.57 3685.43,-41.08 3688.44,-40.54"/>
<polygon fill="midnightblue" stroke="midnightblue" points="2482.83,-88.07 2472.87,-91.7 2482.92,-95.07 2482.83,-88.07"/>
</g>
<!-- Node27 -->
<g id="node27" class="node">
<title>Node27</title>
<g id="a_node27"><a xlink:href="kalman__constructor__default__float__1x1x1_8cpp.xhtml" target="_top" xlink:title=" ">
<polygon fill="white" stroke="black" points="3846.5,-0.5 3846.5,-41.5 3986.5,-41.5 3986.5,-0.5 3846.5,-0.5"/>
<text text-anchor="start" x="3854.5" y="-29.5" font-family="Helvetica,sans-Serif" font-size="10.00">/github/workspace/test</text>
<text text-anchor="start" x="3854.5" y="-18.5" font-family="Helvetica,sans-Serif" font-size="10.00">/kalman_constructor_default</text>
<text text-anchor="middle" x="3916.5" y="-7.5" font-family="Helvetica,sans-Serif" font-size="10.00">_float_1x1x1.cpp</text>
</a>
</g>
</g>
<!-- Node2&#45;&gt;Node27 -->
<g id="edge26" class="edge">
<title>Node2&#45;&gt;Node27</title>
<path fill="none" stroke="midnightblue" d="M2483.16,-91.95C2739.28,-89.75 3572.34,-79.81 3837.5,-42 3840.44,-41.58 3843.43,-41.1 3846.44,-40.56"/>
<polygon fill="midnightblue" stroke="midnightblue" points="2482.82,-88.45 2472.85,-92.04 2482.88,-95.45 2482.82,-88.45"/>
</g>
<!-- Node28 -->
<g id="node28" class="node">
<title>Node28</title>
<g id="a_node28"><a xlink:href="kalman__f_8cpp.xhtml" target="_top" xlink:title=" ">
<polygon fill="white" stroke="black" points="4004.5,-6 4004.5,-36 4120.5,-36 4120.5,-6 4004.5,-6"/>
<text text-anchor="start" x="4012.5" y="-24" font-family="Helvetica,sans-Serif" font-size="10.00">/github/workspace/test</text>
<text text-anchor="middle" x="4062.5" y="-13" font-family="Helvetica,sans-Serif" font-size="10.00">/kalman_f.cpp</text>
</a>
</g>
</g>
<!-- Node2&#45;&gt;Node28 -->
<g id="edge27" class="edge">
<title>Node2&#45;&gt;Node28</title>
<path fill="none" stroke="midnightblue" d="M2483.13,-92.68C2757.36,-92.92 3698.97,-90.14 3995.5,-42 4004.01,-40.62 4012.95,-38.47 4021.43,-36.07"/>
<polygon fill="midnightblue" stroke="midnightblue" points="2482.89,-89.18 2472.88,-92.67 2482.88,-96.18 2482.89,-89.18"/>
</g>
<!-- Node29 -->
<g id="node29" class="node">
<title>Node29</title>
<g id="a_node29"><a xlink:href="kalman__format_8cpp.xhtml" target="_top" xlink:title=" ">
<polygon fill="white" stroke="black" points="4138.5,-6 4138.5,-36 4254.5,-36 4254.5,-6 4138.5,-6"/>
<text text-anchor="start" x="4146.5" y="-24" font-family="Helvetica,sans-Serif" font-size="10.00">/github/workspace/test</text>
<text text-anchor="middle" x="4196.5" y="-13" font-family="Helvetica,sans-Serif" font-size="10.00">/kalman_format.cpp</text>
</a>
</g>
</g>
<!-- Node2&#45;&gt;Node29 -->
<g id="edge28" class="edge">
<title>Node2&#45;&gt;Node29</title>
<path fill="none" stroke="midnightblue" d="M2483.11,-92.9C2771.94,-94.01 3805.56,-94.18 4129.5,-42 4138.01,-40.63 4146.95,-38.48 4155.43,-36.09"/>
<polygon fill="midnightblue" stroke="midnightblue" points="2482.76,-89.4 2472.75,-92.86 2482.73,-96.4 2482.76,-89.4"/>
</g>
<!-- Node30 -->
<g id="node30" class="node">
<title>Node30</title>
<g id="a_node30"><a xlink:href="kalman__format__arguments_8cpp.xhtml" target="_top" xlink:title=" ">
<polygon fill="white" stroke="black" points="4273,-6 4273,-36 4426,-36 4426,-6 4273,-6"/>
<text text-anchor="start" x="4281" y="-24" font-family="Helvetica,sans-Serif" font-size="10.00">/github/workspace/test</text>
<text text-anchor="middle" x="4349.5" y="-13" font-family="Helvetica,sans-Serif" font-size="10.00">/kalman_format_arguments.cpp</text>
</a>
</g>
</g>
<!-- Node2&#45;&gt;Node30 -->
<g id="edge29" class="edge">
<title>Node2&#45;&gt;Node30</title>
<path fill="none" stroke="midnightblue" d="M2483.28,-92.47C2786.18,-92.04 3910.61,-87.36 4263.5,-42 4274.29,-40.61 4285.72,-38.46 4296.59,-36.06"/>
<polygon fill="midnightblue" stroke="midnightblue" points="2482.85,-88.97 2472.85,-92.49 2482.85,-95.97 2482.85,-88.97"/>
</g>
<!-- Node31 -->
<g id="node31" class="node">
<title>Node31</title>
<g id="a_node31"><a xlink:href="kalman__format__float__1x1x1_8cpp.xhtml" target="_top" xlink:title=" ">
<polygon fill="white" stroke="black" points="4444,-6 4444,-36 4599,-36 4599,-6 4444,-6"/>
<text text-anchor="start" x="4452" y="-24" font-family="Helvetica,sans-Serif" font-size="10.00">/github/workspace/test</text>
<text text-anchor="middle" x="4521.5" y="-13" font-family="Helvetica,sans-Serif" font-size="10.00">/kalman_format_float_1x1x1.cpp</text>
</a>
</g>
</g>
<!-- Node2&#45;&gt;Node31 -->
<g id="edge30" class="edge">
<title>Node2&#45;&gt;Node31</title>
<path fill="none" stroke="midnightblue" d="M2482.8,-92.68C2802.27,-93.1 4046.9,-91.5 4435.5,-42 4446.3,-40.62 4457.72,-38.47 4468.59,-36.08"/>
<polygon fill="midnightblue" stroke="midnightblue" points="2482.73,-89.18 2472.72,-92.66 2482.72,-96.18 2482.73,-89.18"/>
</g>
<!-- Node32 -->
<g id="node32" class="node">
<title>Node32</title>
<g id="a_node32"><a xlink:href="kalman__h_8cpp.xhtml" target="_top" xlink:title=" ">
<polygon fill="white" stroke="black" points="4617.5,-6 4617.5,-36 4733.5,-36 4733.5,-6 4617.5,-6"/>
<text text-anchor="start" x="4625.5" y="-24" font-family="Helvetica,sans-Serif" font-size="10.00">/github/workspace/test</text>
<text text-anchor="middle" x="4675.5" y="-13" font-family="Helvetica,sans-Serif" font-size="10.00">/kalman_h.cpp</text>
</a>
</g>
</g>
<!-- Node2&#45;&gt;Node32 -->
<g id="edge31" class="edge">
<title>Node2&#45;&gt;Node32</title>
<path fill="none" stroke="midnightblue" d="M2482.83,-91.96C2844.63,-89.23 4395.29,-75.65 4608.5,-42 4617.13,-40.64 4626.21,-38.46 4634.8,-36.03"/>
<polygon fill="midnightblue" stroke="midnightblue" points="2482.7,-88.47 2472.73,-92.04 2482.75,-95.47 2482.7,-88.47"/>
</g>
</g>
</svg>
        <g id="navigator" transform="translate(0 0)" fill="#404254">
                <rect fill="#f2f5e9" fill-opacity="0.5" stroke="#606060" stroke-width=".5" x="0" y="0" width="60" height="60"/>
                <use id="zoomplus" xlink:href="#zoomPlus" x="17" y="9" onmousedown="handleZoom(evt,'in')"/>
                <use id="zoomminus" xlink:href="#zoomMin" x="42" y="9" onmousedown="handleZoom(evt,'out')"/>
                <use id="reset" xlink:href="#resetDef" x="30" y="36" onmousedown="handleReset()"/>
                <g id="arrowUp" xlink:href="#dirArrow" transform="translate(30 24)" onmousedown="handlePan(0,-1)">
                  <use xlink:href="#rim" fill="#404040">
                        <set attributeName="fill" to="#808080" begin="arrowUp.mouseover" end="arrowUp.mouseout"/>
                  </use>
                  <path fill="none" stroke="white" stroke-width="1.5" d="M0,-3.0v7 M-2.5,-0.5L0,-3.0L2.5,-0.5"/>
                </g>
                <g id="arrowRight" xlink:href="#dirArrow" transform="rotate(90) translate(36 -43)" onmousedown="handlePan(1,0)">
                  <use xlink:href="#rim" fill="#404040">
                        <set attributeName="fill" to="#808080" begin="arrowRight.mouseover" end="arrowRight.mouseout"/>
                  </use>
                  <path fill="none" stroke="white" stroke-width="1.5" d="M0,-3.0v7 M-2.5,-0.5L0,-3.0L2.5,-0.5"/>
                </g>
                <g id="arrowDown" xlink:href="#dirArrow" transform="rotate(180) translate(-30 -48)" onmousedown="handlePan(0,1)">
                  <use xlink:href="#rim" fill="#404040">
                        <set attributeName="fill" to="#808080" begin="arrowDown.mouseover" end="arrowDown.mouseout"/>
                  </use>
                  <path fill="none" stroke="white" stroke-width="1.5" d="M0,-3.0v7 M-2.5,-0.5L0,-3.0L2.5,-0.5"/>
                </g>
                <g id="arrowLeft" xlink:href="#dirArrow" transform="rotate(270) translate(-36 17)" onmousedown="handlePan(-1,0)">
                  <use xlink:href="#rim" fill="#404040">
                        <set attributeName="fill" to="#808080" begin="arrowLeft.mouseover" end="arrowLeft.mouseout"/>
                  </use>
                  <path fill="none" stroke="white" stroke-width="1.5" d="M0,-3.0v7 M-2.5,-0.5L0,-3.0L2.5,-0.5"/>
                </g>
        </g>
        <svg viewBox="0 0 15 15" width="100%" height="30px" preserveAspectRatio="xMaxYMin meet">
         <g id="arrow_out" transform="scale(0.3 0.3)">
          <a xlink:href="algorithm_8hpp__dep__incl_org.svg" target="_base">
           <rect id="button" ry="5" rx="5" y="6" x="6" height="38" width="38"
                fill="#f2f5e9" fill-opacity="0.5" stroke="#606060" stroke-width="1.0"/>
           <path id="arrow"
             d="M 11.500037,31.436501 C 11.940474,20.09759 22.043105,11.32322 32.158766,21.979434 L 37.068811,17.246167 C 37.068811,17.246167 37.088388,32 37.088388,32 L 22.160133,31.978069 C 22.160133,31.978069 26.997745,27.140456 26.997745,27.140456 C 18.528582,18.264221 13.291696,25.230495 11.500037,31.436501 z"
             style="fill:#404040;"/>
          </a>
         </g>
        </svg>
</svg>
