<?xml version="1.0" encoding="UTF-8" standalone="no"?>
<!DOCTYPE svg PUBLIC "-//W3C//DTD SVG 1.1//EN"
 "http://www.w3.org/Graphics/SVG/1.1/DTD/svg11.dtd">
<!-- Generated by graphviz version 2.49.3 (20211027.1534)
 -->
<!-- Title: sample/ardupilot_soaring.cpp Pages: 1 -->
<!--zoomable 308 -->
<svg id="main" version="1.1" xmlns="http://www.w3.org/2000/svg" xmlns:xlink="http://www.w3.org/1999/xlink" xml:space="preserve" onload="init(evt)">
<style type="text/css"><![CDATA[
.edge:hover path { stroke: red; }
.edge:hover polygon { stroke: red; fill: red; }
]]></style>
<script type="text/javascript"><![CDATA[
var edges = document.getElementsByTagName('g');
if (edges && edges.length) {
  for (var i=0;i<edges.length;i++) {
    if (edges[i].id.substr(0,4)=='edge') {
      edges[i].setAttribute('class','edge');
    }
  }
}
]]></script>
        <defs>
                <circle id="rim" cx="0" cy="0" r="7"/>
                <circle id="rim2" cx="0" cy="0" r="3.5"/>
                <g id="zoomPlus">
                        <use xlink:href="#rim" fill="#404040">
                                <set attributeName="fill" to="#808080" begin="zoomplus.mouseover" end="zoomplus.mouseout"/>
                        </use>
                        <path d="M-4,0h8M0,-4v8" fill="none" stroke="white" stroke-width="1.5" pointer-events="none"/>
                </g>
                <g id="zoomMin">
                        <use xlink:href="#rim" fill="#404040">
                                <set attributeName="fill" to="#808080" begin="zoomminus.mouseover" end="zoomminus.mouseout"/>
                        </use>
                        <path d="M-4,0h8" fill="none" stroke="white" stroke-width="1.5" pointer-events="none"/>
                </g>
                <g id="dirArrow">
                        <path fill="none" stroke="white" stroke-width="1.5" d="M0,-3.0v7 M-2.5,-0.5L0,-3.0L2.5,-0.5"/>
                </g>
               <g id="resetDef">
                       <use xlink:href="#rim2" fill="#404040">
                               <set attributeName="fill" to="#808080" begin="reset.mouseover" end="reset.mouseout"/>
                       </use>
               </g>
        </defs>

<script type="text/javascript">
var viewWidth = 616;
var viewHeight = 308;
var sectionId = 'dynsection-0';
</script>
<script xlink:href="svgpan.js"/>
<svg id="graph" class="graph">
<g id="viewport">
<title>sample/ardupilot_soaring.cpp</title>
<polygon fill="white" stroke="transparent" points="-4,4 -4,-304 612.37,-304 612.37,4 -4,4"/>
<!-- Node1 -->
<g id="node1" class="node">
<title>Node1</title>
<g id="a_node1"><a xlink:title=" ">
<polygon fill="#bfbfbf" stroke="black" points="449.87,-280.5 449.87,-299.5 592.87,-299.5 592.87,-280.5 449.87,-280.5"/>
<text text-anchor="middle" x="521.37" y="-287.5" font-family="Helvetica,sans-Serif" font-size="10.00">sample/ardupilot_soaring.cpp</text>
</a>
</g>
</g>
<!-- Node2 -->
<g id="node2" class="node">
<title>Node2</title>
<g id="a_node2"><a xlink:href="kalman__eigen_8hpp.xhtml" target="_top" xlink:title="Kalman operation for Eigen 3 types.">
<polygon fill="white" stroke="black" points="343.87,-224.5 343.87,-243.5 478.87,-243.5 478.87,-224.5 343.87,-224.5"/>
<text text-anchor="middle" x="411.37" y="-231.5" font-family="Helvetica,sans-Serif" font-size="10.00">fcarouge/kalman_eigen.hpp</text>
</a>
</g>
</g>
<!-- Node1&#45;&gt;Node2 -->
<g id="edge1" class="edge">
<title>Node1&#45;&gt;Node2</title>
<path fill="none" stroke="midnightblue" d="M503.7,-280.32C485.98,-271.62 458.47,-258.12 438.08,-248.11"/>
<polygon fill="midnightblue" stroke="midnightblue" points="439.52,-244.92 429,-243.65 436.43,-251.2 439.52,-244.92"/>
</g>
<!-- Node13 -->
<g id="node13" class="node">
<title>Node13</title>
<g id="a_node13"><a xlink:title=" ">
<polygon fill="white" stroke="#bfbfbf" points="496.87,-224.5 496.87,-243.5 545.87,-243.5 545.87,-224.5 496.87,-224.5"/>
<text text-anchor="middle" x="521.37" y="-231.5" font-family="Helvetica,sans-Serif" font-size="10.00">cassert</text>
</a>
</g>
</g>
<!-- Node1&#45;&gt;Node13 -->
<g id="edge19" class="edge">
<title>Node1&#45;&gt;Node13</title>
<path fill="none" stroke="midnightblue" d="M521.37,-280.08C521.37,-273.01 521.37,-262.86 521.37,-253.99"/>
<polygon fill="midnightblue" stroke="midnightblue" points="524.87,-253.75 521.37,-243.75 517.87,-253.75 524.87,-253.75"/>
</g>
<!-- Node14 -->
<g id="node14" class="node">
<title>Node14</title>
<g id="a_node14"><a xlink:title=" ">
<polygon fill="white" stroke="#bfbfbf" points="564.37,-224.5 564.37,-243.5 608.37,-243.5 608.37,-224.5 564.37,-224.5"/>
<text text-anchor="middle" x="586.37" y="-231.5" font-family="Helvetica,sans-Serif" font-size="10.00">cmath</text>
</a>
</g>
</g>
<!-- Node1&#45;&gt;Node14 -->
<g id="edge20" class="edge">
<title>Node1&#45;&gt;Node14</title>
<path fill="none" stroke="midnightblue" d="M531.81,-280.32C541.52,-272.26 556.19,-260.08 567.87,-250.37"/>
<polygon fill="midnightblue" stroke="midnightblue" points="570.28,-252.92 575.74,-243.83 565.81,-247.53 570.28,-252.92"/>
</g>
<!-- Node3 -->
<g id="node3" class="node">
<title>Node3</title>
<g id="a_node3"><a xlink:href="internal_2kalman__eigen_8hpp.xhtml" target="_top" xlink:title="Kalman operation for Eigen 3 types.">
<polygon fill="white" stroke="black" points="166.87,-168.5 166.87,-187.5 295.87,-187.5 295.87,-168.5 166.87,-168.5"/>
<text text-anchor="middle" x="231.37" y="-175.5" font-family="Helvetica,sans-Serif" font-size="10.00">internal/kalman_eigen.hpp</text>
</a>
</g>
</g>
<!-- Node2&#45;&gt;Node3 -->
<g id="edge2" class="edge">
<title>Node2&#45;&gt;Node3</title>
<path fill="none" stroke="midnightblue" d="M382.85,-224.44C352.3,-215.28 303.66,-200.69 269.77,-190.52"/>
<polygon fill="midnightblue" stroke="midnightblue" points="270.34,-187.04 259.76,-187.52 268.33,-193.74 270.34,-187.04"/>
</g>
<!-- Node9 -->
<g id="node9" class="node">
<title>Node9</title>
<g id="a_node9"><a xlink:title=" ">
<polygon fill="white" stroke="#bfbfbf" points="338.37,-56.5 338.37,-75.5 376.37,-75.5 376.37,-56.5 338.37,-56.5"/>
<text text-anchor="middle" x="357.37" y="-63.5" font-family="Helvetica,sans-Serif" font-size="10.00">tuple</text>
</a>
</g>
</g>
<!-- Node2&#45;&gt;Node9 -->
<g id="edge18" class="edge">
<title>Node2&#45;&gt;Node9</title>
<path fill="none" stroke="midnightblue" d="M417.98,-224.44C433.13,-203.72 467.35,-149.76 444.37,-112 431.82,-91.37 406.42,-79.78 386.29,-73.55"/>
<polygon fill="midnightblue" stroke="midnightblue" points="387.2,-70.17 376.63,-70.83 385.31,-76.91 387.2,-70.17"/>
</g>
<!-- Node12 -->
<g id="node12" class="node">
<title>Node12</title>
<g id="a_node12"><a xlink:title=" ">
<polygon fill="white" stroke="#bfbfbf" points="386.87,-112.5 386.87,-131.5 435.87,-131.5 435.87,-112.5 386.87,-112.5"/>
<text text-anchor="middle" x="411.37" y="-119.5" font-family="Helvetica,sans-Serif" font-size="10.00">cstddef</text>
</a>
</g>
</g>
<!-- Node2&#45;&gt;Node12 -->
<g id="edge17" class="edge">
<title>Node2&#45;&gt;Node12</title>
<path fill="none" stroke="midnightblue" d="M411.37,-224.37C411.37,-206.62 411.37,-165.67 411.37,-141.6"/>
<polygon fill="midnightblue" stroke="midnightblue" points="414.87,-141.59 411.37,-131.59 407.87,-141.59 414.87,-141.59"/>
</g>
<!-- Node4 -->
<g id="node4" class="node">
<title>Node4</title>
<g id="a_node4"><a xlink:href="kalman_8hpp.xhtml" target="_top" xlink:title="The main Kalman filter class.">
<polygon fill="white" stroke="black" points="177.87,-112.5 177.87,-131.5 284.87,-131.5 284.87,-112.5 177.87,-112.5"/>
<text text-anchor="middle" x="231.37" y="-119.5" font-family="Helvetica,sans-Serif" font-size="10.00">fcarouge/kalman.hpp</text>
</a>
</g>
</g>
<!-- Node3&#45;&gt;Node4 -->
<g id="edge3" class="edge">
<title>Node3&#45;&gt;Node4</title>
<path fill="none" stroke="midnightblue" d="M231.37,-168.08C231.37,-161.01 231.37,-150.86 231.37,-141.99"/>
<polygon fill="midnightblue" stroke="midnightblue" points="234.87,-141.75 231.37,-131.75 227.87,-141.75 234.87,-141.75"/>
</g>
<!-- Node6 -->
<g id="node6" class="node">
<title>Node6</title>
<g id="a_node6"><a xlink:title=" ">
<polygon fill="white" stroke="#bfbfbf" points="280.87,-0.5 280.87,-19.5 339.87,-19.5 339.87,-0.5 280.87,-0.5"/>
<text text-anchor="middle" x="310.37" y="-7.5" font-family="Helvetica,sans-Serif" font-size="10.00">functional</text>
</a>
</g>
</g>
<!-- Node3&#45;&gt;Node6 -->
<g id="edge15" class="edge">
<title>Node3&#45;&gt;Node6</title>
<path fill="none" stroke="midnightblue" d="M258.32,-168.42C294.8,-155.18 358.4,-125.94 385.37,-76 397.64,-53.28 369.84,-34.89 344.69,-23.54"/>
<polygon fill="midnightblue" stroke="midnightblue" points="345.84,-20.23 335.26,-19.54 343.1,-26.67 345.84,-20.23"/>
</g>
<!-- Node7 -->
<g id="node7" class="node">
<title>Node7</title>
<g id="a_node7"><a xlink:title=" ">
<polygon fill="white" stroke="#bfbfbf" points="64.37,-0.5 64.37,-19.5 126.37,-19.5 126.37,-0.5 64.37,-0.5"/>
<text text-anchor="middle" x="95.37" y="-7.5" font-family="Helvetica,sans-Serif" font-size="10.00">type_traits</text>
</a>
</g>
</g>
<!-- Node3&#45;&gt;Node7 -->
<g id="edge16" class="edge">
<title>Node3&#45;&gt;Node7</title>
<path fill="none" stroke="midnightblue" d="M166.68,-171.55C108.65,-162.57 28.71,-138.81 2.37,-76 -8.99,-48.91 24.45,-31.32 54.35,-21.36"/>
<polygon fill="midnightblue" stroke="midnightblue" points="55.77,-24.58 64.28,-18.27 53.69,-17.9 55.77,-24.58"/>
</g>
<!-- Node8 -->
<g id="node8" class="node">
<title>Node8</title>
<g id="a_node8"><a xlink:title=" ">
<polygon fill="white" stroke="#bfbfbf" points="11.37,-56.5 11.37,-75.5 67.37,-75.5 67.37,-56.5 11.37,-56.5"/>
<text text-anchor="middle" x="39.37" y="-63.5" font-family="Helvetica,sans-Serif" font-size="10.00">concepts</text>
</a>
</g>
</g>
<!-- Node3&#45;&gt;Node8 -->
<g id="edge13" class="edge">
<title>Node3&#45;&gt;Node8</title>
<path fill="none" stroke="midnightblue" d="M170.46,-168.47C141.6,-162.09 107.95,-151.04 82.37,-132 66.12,-119.91 54.18,-99.74 47.05,-85.07"/>
<polygon fill="midnightblue" stroke="midnightblue" points="50.05,-83.21 42.73,-75.55 43.68,-86.1 50.05,-83.21"/>
</g>
<!-- Node11 -->
<g id="node11" class="node">
<title>Node11</title>
<g id="a_node11"><a xlink:title=" ">
<polygon fill="white" stroke="#bfbfbf" points="91.37,-112.5 91.37,-131.5 159.37,-131.5 159.37,-112.5 91.37,-112.5"/>
<text text-anchor="middle" x="125.37" y="-119.5" font-family="Helvetica,sans-Serif" font-size="10.00">Eigen/Eigen</text>
</a>
</g>
</g>
<!-- Node3&#45;&gt;Node11 -->
<g id="edge12" class="edge">
<title>Node3&#45;&gt;Node11</title>
<path fill="none" stroke="midnightblue" d="M214.34,-168.32C197.34,-159.66 170.99,-146.24 151.38,-136.25"/>
<polygon fill="midnightblue" stroke="midnightblue" points="152.86,-133.08 142.36,-131.65 149.68,-139.31 152.86,-133.08"/>
</g>
<!-- Node3&#45;&gt;Node12 -->
<g id="edge14" class="edge">
<title>Node3&#45;&gt;Node12</title>
<path fill="none" stroke="midnightblue" d="M259.89,-168.44C291.6,-158.93 342.82,-143.56 376.79,-133.37"/>
<polygon fill="midnightblue" stroke="midnightblue" points="378.17,-136.61 386.74,-130.39 376.16,-129.91 378.17,-136.61"/>
</g>
<!-- Node5 -->
<g id="node5" class="node">
<title>Node5</title>
<g id="a_node5"><a xlink:href="internal_2kalman_8hpp.xhtml" target="_top" xlink:title="The main Kalman filter class.">
<polygon fill="white" stroke="black" points="180.87,-56.5 180.87,-75.5 281.87,-75.5 281.87,-56.5 180.87,-56.5"/>
<text text-anchor="middle" x="231.37" y="-63.5" font-family="Helvetica,sans-Serif" font-size="10.00">internal/kalman.hpp</text>
</a>
</g>
</g>
<!-- Node4&#45;&gt;Node5 -->
<g id="edge4" class="edge">
<title>Node4&#45;&gt;Node5</title>
<path fill="none" stroke="midnightblue" d="M231.37,-112.08C231.37,-105.01 231.37,-94.86 231.37,-85.99"/>
<polygon fill="midnightblue" stroke="midnightblue" points="234.87,-85.75 231.37,-75.75 227.87,-85.75 234.87,-85.75"/>
</g>
<!-- Node4&#45;&gt;Node6 -->
<g id="edge8" class="edge">
<title>Node4&#45;&gt;Node6</title>
<path fill="none" stroke="midnightblue" d="M247.65,-112.4C260.96,-104.58 279.32,-91.85 290.37,-76 299.97,-62.23 305.08,-43.7 307.72,-29.95"/>
<polygon fill="midnightblue" stroke="midnightblue" points="311.23,-30.17 309.4,-19.74 304.32,-29.03 311.23,-30.17"/>
</g>
<!-- Node4&#45;&gt;Node7 -->
<g id="edge10" class="edge">
<title>Node4&#45;&gt;Node7</title>
<path fill="none" stroke="midnightblue" d="M181.48,-112.42C158.2,-106.03 131.84,-94.97 114.37,-76 102.81,-63.44 98.25,-44.22 96.47,-29.93"/>
<polygon fill="midnightblue" stroke="midnightblue" points="99.94,-29.4 95.56,-19.76 92.96,-30.03 99.94,-29.4"/>
</g>
<!-- Node4&#45;&gt;Node8 -->
<g id="edge7" class="edge">
<title>Node4&#45;&gt;Node8</title>
<path fill="none" stroke="midnightblue" d="M200.95,-112.44C167.41,-103.01 113.42,-87.83 77.18,-77.63"/>
<polygon fill="midnightblue" stroke="midnightblue" points="78.04,-74.24 67.46,-74.9 76.14,-80.98 78.04,-74.24"/>
</g>
<!-- Node4&#45;&gt;Node9 -->
<g id="edge9" class="edge">
<title>Node4&#45;&gt;Node9</title>
<path fill="none" stroke="midnightblue" d="M251.33,-112.44C272.22,-103.49 305.2,-89.36 328.83,-79.23"/>
<polygon fill="midnightblue" stroke="midnightblue" points="330.51,-82.32 338.32,-75.16 327.75,-75.89 330.51,-82.32"/>
</g>
<!-- Node10 -->
<g id="node10" class="node">
<title>Node10</title>
<g id="a_node10"><a xlink:title=" ">
<polygon fill="white" stroke="#bfbfbf" points="123.87,-56.5 123.87,-75.5 162.87,-75.5 162.87,-56.5 123.87,-56.5"/>
<text text-anchor="middle" x="143.37" y="-63.5" font-family="Helvetica,sans-Serif" font-size="10.00">utility</text>
</a>
</g>
</g>
<!-- Node4&#45;&gt;Node10 -->
<g id="edge11" class="edge">
<title>Node4&#45;&gt;Node10</title>
<path fill="none" stroke="midnightblue" d="M217.23,-112.32C203.5,-103.9 182.43,-90.97 166.31,-81.07"/>
<polygon fill="midnightblue" stroke="midnightblue" points="167.83,-77.9 157.47,-75.65 164.17,-83.87 167.83,-77.9"/>
</g>
<!-- Node5&#45;&gt;Node6 -->
<g id="edge5" class="edge">
<title>Node5&#45;&gt;Node6</title>
<path fill="none" stroke="midnightblue" d="M244.06,-56.32C256.27,-47.98 274.95,-35.21 289.37,-25.35"/>
<polygon fill="midnightblue" stroke="midnightblue" points="291.43,-28.19 297.71,-19.65 287.48,-22.41 291.43,-28.19"/>
</g>
<!-- Node5&#45;&gt;Node7 -->
<g id="edge6" class="edge">
<title>Node5&#45;&gt;Node7</title>
<path fill="none" stroke="midnightblue" d="M209.82,-56.44C187.34,-47.52 151.88,-33.44 126.39,-23.32"/>
<polygon fill="midnightblue" stroke="midnightblue" points="127.4,-19.95 116.82,-19.52 124.82,-26.46 127.4,-19.95"/>
</g>
</g>
</svg>
        <g id="navigator" transform="translate(0 0)" fill="#404254">
                <rect fill="#f2f5e9" fill-opacity="0.5" stroke="#606060" stroke-width=".5" x="0" y="0" width="60" height="60"/>
                <use id="zoomplus" xlink:href="#zoomPlus" x="17" y="9" onmousedown="handleZoom(evt,'in')"/>
                <use id="zoomminus" xlink:href="#zoomMin" x="42" y="9" onmousedown="handleZoom(evt,'out')"/>
                <use id="reset" xlink:href="#resetDef" x="30" y="36" onmousedown="handleReset()"/>
                <g id="arrowUp" xlink:href="#dirArrow" transform="translate(30 24)" onmousedown="handlePan(0,-1)">
                  <use xlink:href="#rim" fill="#404040">
                        <set attributeName="fill" to="#808080" begin="arrowUp.mouseover" end="arrowUp.mouseout"/>
                  </use>
                  <path fill="none" stroke="white" stroke-width="1.5" d="M0,-3.0v7 M-2.5,-0.5L0,-3.0L2.5,-0.5"/>
                </g>
                <g id="arrowRight" xlink:href="#dirArrow" transform="rotate(90) translate(36 -43)" onmousedown="handlePan(1,0)">
                  <use xlink:href="#rim" fill="#404040">
                        <set attributeName="fill" to="#808080" begin="arrowRight.mouseover" end="arrowRight.mouseout"/>
                  </use>
                  <path fill="none" stroke="white" stroke-width="1.5" d="M0,-3.0v7 M-2.5,-0.5L0,-3.0L2.5,-0.5"/>
                </g>
                <g id="arrowDown" xlink:href="#dirArrow" transform="rotate(180) translate(-30 -48)" onmousedown="handlePan(0,1)">
                  <use xlink:href="#rim" fill="#404040">
                        <set attributeName="fill" to="#808080" begin="arrowDown.mouseover" end="arrowDown.mouseout"/>
                  </use>
                  <path fill="none" stroke="white" stroke-width="1.5" d="M0,-3.0v7 M-2.5,-0.5L0,-3.0L2.5,-0.5"/>
                </g>
                <g id="arrowLeft" xlink:href="#dirArrow" transform="rotate(270) translate(-36 17)" onmousedown="handlePan(-1,0)">
                  <use xlink:href="#rim" fill="#404040">
                        <set attributeName="fill" to="#808080" begin="arrowLeft.mouseover" end="arrowLeft.mouseout"/>
                  </use>
                  <path fill="none" stroke="white" stroke-width="1.5" d="M0,-3.0v7 M-2.5,-0.5L0,-3.0L2.5,-0.5"/>
                </g>
        </g>
        <svg viewBox="0 0 15 15" width="100%" height="30px" preserveAspectRatio="xMaxYMin meet">
         <g id="arrow_out" transform="scale(0.3 0.3)">
          <a xlink:href="ardupilot__soaring_8cpp__incl_org.svg" target="_base">
           <rect id="button" ry="5" rx="5" y="6" x="6" height="38" width="38"
                fill="#f2f5e9" fill-opacity="0.5" stroke="#606060" stroke-width="1.0"/>
           <path id="arrow"
             d="M 11.500037,31.436501 C 11.940474,20.09759 22.043105,11.32322 32.158766,21.979434 L 37.068811,17.246167 C 37.068811,17.246167 37.088388,32 37.088388,32 L 22.160133,31.978069 C 22.160133,31.978069 26.997745,27.140456 26.997745,27.140456 C 18.528582,18.264221 13.291696,25.230495 11.500037,31.436501 z"
             style="fill:#404040;"/>
          </a>
         </g>
        </svg>
</svg>
