<?xml version="1.0" encoding="UTF-8" standalone="no"?>
<!DOCTYPE svg PUBLIC "-//W3C//DTD SVG 1.1//EN"
 "http://www.w3.org/Graphics/SVG/1.1/DTD/svg11.dtd">
<!-- Generated by graphviz version 12.2.0 (20241103.1931)
 -->
<!-- Title: /github/workspace/benchmark/baseline.cpp Pages: 1 -->
<svg width="355pt" height="149pt"
 viewBox="0.00 0.00 354.50 149.00" xmlns="http://www.w3.org/2000/svg" xmlns:xlink="http://www.w3.org/1999/xlink">
<g id="graph0" class="graph" transform="scale(1 1) rotate(0) translate(4 145)">
<title>/github/workspace/benchmark/baseline.cpp</title>
<!-- Node1 -->
<g id="Node000001" class="node">
<title>Node1</title>
<g id="a_Node000001"><a xlink:title=" ">
<polygon fill="#999999" stroke="#666666" points="224.88,-141 78.38,-141 78.38,-110.5 224.88,-110.5 224.88,-141"/>
<text text-anchor="start" x="86.38" y="-127.5" font-family="Helvetica,sans-Serif" font-size="10.00">/github/workspace/benchmark</text>
<text text-anchor="middle" x="151.62" y="-116.25" font-family="Helvetica,sans-Serif" font-size="10.00">/baseline.cpp</text>
</a>
</g>
</g>
<!-- Node2 -->
<g id="Node000002" class="node">
<title>Node2</title>
<g id="a_Node000002"><a xlink:href="benchmark_8hpp.xhtml" target="_top" xlink:title="Benchmarking support.">
<polygon fill="white" stroke="#666666" points="132.62,-74.5 50.62,-74.5 50.62,-55.25 132.62,-55.25 132.62,-74.5"/>
<text text-anchor="middle" x="91.62" y="-61" font-family="Helvetica,sans-Serif" font-size="10.00">benchmark.hpp</text>
</a>
</g>
</g>
<!-- Node1&#45;&gt;Node2 -->
<g id="edge1_Node000001_Node000002" class="edge">
<title>Node1&#45;&gt;Node2</title>
<g id="a_edge1_Node000001_Node000002"><a xlink:title=" ">
<path fill="none" stroke="#63b8ff" d="M136.79,-110.2C128.36,-101.92 117.76,-91.52 108.94,-82.87"/>
<polygon fill="#63b8ff" stroke="#63b8ff" points="111.54,-80.52 101.95,-76.01 106.64,-85.51 111.54,-80.52"/>
</a>
</g>
</g>
<!-- Node3 -->
<g id="Node000003" class="node">
<title>Node3</title>
<g id="a_Node000003"><a xlink:title=" ">
<polygon fill="#e0e0e0" stroke="#999999" points="45.25,-19.25 0,-19.25 0,0 45.25,0 45.25,-19.25"/>
<text text-anchor="middle" x="22.62" y="-5.75" font-family="Helvetica,sans-Serif" font-size="10.00">chrono</text>
</a>
</g>
</g>
<!-- Node1&#45;&gt;Node3 -->
<g id="edge6_Node000001_Node000003" class="edge">
<title>Node1&#45;&gt;Node3</title>
<g id="a_edge6_Node000001_Node000003"><a xlink:title=" ">
<path fill="none" stroke="#63b8ff" d="M96.49,-110.07C76.79,-102.36 55.95,-90.98 41.62,-74.5 31.05,-62.33 26.36,-44.49 24.28,-30.75"/>
<polygon fill="#63b8ff" stroke="#63b8ff" points="27.78,-30.61 23.18,-21.07 20.83,-31.4 27.78,-30.61"/>
</a>
</g>
</g>
<!-- Node5 -->
<g id="Node000005" class="node">
<title>Node5</title>
<g id="a_Node000005"><a xlink:title=" ">
<polygon fill="#e0e0e0" stroke="#999999" points="272.88,-74.5 150.38,-74.5 150.38,-55.25 272.88,-55.25 272.88,-74.5"/>
<text text-anchor="middle" x="211.62" y="-61" font-family="Helvetica,sans-Serif" font-size="10.00">benchmark/benchmark.h</text>
</a>
</g>
</g>
<!-- Node1&#45;&gt;Node5 -->
<g id="edge4_Node000001_Node000005" class="edge">
<title>Node1&#45;&gt;Node5</title>
<g id="a_edge4_Node000001_Node000005"><a xlink:title=" ">
<path fill="none" stroke="#63b8ff" d="M166.46,-110.2C174.89,-101.92 185.49,-91.52 194.31,-82.87"/>
<polygon fill="#63b8ff" stroke="#63b8ff" points="196.61,-85.51 201.3,-76.01 191.71,-80.52 196.61,-85.51"/>
</a>
</g>
</g>
<!-- Node6 -->
<g id="Node000006" class="node">
<title>Node6</title>
<g id="a_Node000006"><a xlink:title=" ">
<polygon fill="#e0e0e0" stroke="#999999" points="346.5,-74.5 290.75,-74.5 290.75,-55.25 346.5,-55.25 346.5,-74.5"/>
<text text-anchor="middle" x="318.62" y="-61" font-family="Helvetica,sans-Serif" font-size="10.00">algorithm</text>
</a>
</g>
</g>
<!-- Node1&#45;&gt;Node6 -->
<g id="edge5_Node000001_Node000006" class="edge">
<title>Node1&#45;&gt;Node6</title>
<g id="a_edge5_Node000001_Node000006"><a xlink:title=" ">
<path fill="none" stroke="#63b8ff" d="M193.34,-110.05C220.72,-100.39 256.2,-87.88 282.4,-78.65"/>
<polygon fill="#63b8ff" stroke="#63b8ff" points="283.32,-82.03 291.59,-75.41 280.99,-75.43 283.32,-82.03"/>
</a>
</g>
</g>
<!-- Node2&#45;&gt;Node3 -->
<g id="edge2_Node000002_Node000003" class="edge">
<title>Node2&#45;&gt;Node3</title>
<g id="a_edge2_Node000002_Node000003"><a xlink:title=" ">
<path fill="none" stroke="#63b8ff" d="M79.92,-54.84C69.85,-47.07 55.08,-35.67 43.06,-26.4"/>
<polygon fill="#63b8ff" stroke="#63b8ff" points="45.41,-23.79 35.36,-20.45 41.13,-29.33 45.41,-23.79"/>
</a>
</g>
</g>
<!-- Node4 -->
<g id="Node000004" class="node">
<title>Node4</title>
<g id="a_Node000004"><a xlink:title=" ">
<polygon fill="#e0e0e0" stroke="#999999" points="124.12,-19.25 63.12,-19.25 63.12,0 124.12,0 124.12,-19.25"/>
<text text-anchor="middle" x="93.62" y="-5.75" font-family="Helvetica,sans-Serif" font-size="10.00">type_traits</text>
</a>
</g>
</g>
<!-- Node2&#45;&gt;Node4 -->
<g id="edge3_Node000002_Node000004" class="edge">
<title>Node2&#45;&gt;Node4</title>
<g id="a_edge3_Node000002_Node000004"><a xlink:title=" ">
<path fill="none" stroke="#63b8ff" d="M91.96,-55.08C92.2,-48.49 92.55,-39.21 92.87,-30.82"/>
<polygon fill="#63b8ff" stroke="#63b8ff" points="96.35,-31.25 93.23,-21.12 89.36,-30.98 96.35,-31.25"/>
</a>
</g>
</g>
</g>
</svg>
