<?xml version="1.0" encoding="UTF-8" standalone="no"?>
<!DOCTYPE svg PUBLIC "-//W3C//DTD SVG 1.1//EN"
 "http://www.w3.org/Graphics/SVG/1.1/DTD/svg11.dtd">
<!-- Generated by graphviz version 7.0.5 (20221223.1930)
 -->
<!-- Title: /github/workspace/benchmark/include/benchmark.hpp Pages: 1 -->
<svg width="1145pt" height="104pt"
 viewBox="0.00 0.00 1145.00 104.00" xmlns="http://www.w3.org/2000/svg" xmlns:xlink="http://www.w3.org/1999/xlink">
<g id="graph0" class="graph" transform="scale(1 1) rotate(0) translate(4 100)">
<title>/github/workspace/benchmark/include/benchmark.hpp</title>
<!-- Node1 -->
<g id="node1" class="node">
<title>Node1</title>
<g id="a_node1"><a xlink:title="Benchmarking support.">
<polygon fill="#999999" stroke="#666666" points="642,-96 495,-96 495,-66 642,-66 642,-96"/>
<text text-anchor="start" x="503" y="-84" font-family="Helvetica,sans-Serif" font-size="10.00">/github/workspace/benchmark</text>
<text text-anchor="middle" x="568.5" y="-73" font-family="Helvetica,sans-Serif" font-size="10.00">/include/benchmark.hpp</text>
</a>
</g>
</g>
<!-- Node2 -->
<g id="node2" class="node">
<title>Node2</title>
<g id="a_node2"><a xlink:href="baseline_8cpp.xhtml" target="_top" xlink:title=" ">
<polygon fill="white" stroke="#666666" points="147,-30 0,-30 0,0 147,0 147,-30"/>
<text text-anchor="start" x="8" y="-18" font-family="Helvetica,sans-Serif" font-size="10.00">/github/workspace/benchmark</text>
<text text-anchor="middle" x="73.5" y="-7" font-family="Helvetica,sans-Serif" font-size="10.00">/baseline.cpp</text>
</a>
</g>
</g>
<!-- Node1&#45;&gt;Node2 -->
<g id="edge1" class="edge">
<title>Node1&#45;&gt;Node2</title>
<path fill="none" stroke="#63b8ff" d="M483.65,-70.95C400.05,-61.74 268.75,-46.51 155.5,-30 152.78,-29.6 150.02,-29.19 147.23,-28.76"/>
<polygon fill="#63b8ff" stroke="#63b8ff" points="483.04,-74.4 493.37,-72.01 483.81,-67.44 483.04,-74.4"/>
</g>
<!-- Node3 -->
<g id="node3" class="node">
<title>Node3</title>
<g id="a_node3"><a xlink:href="predict__1x1x0_8cpp.xhtml" target="_top" xlink:title=" ">
<polygon fill="white" stroke="#666666" points="312,-30 165,-30 165,0 312,0 312,-30"/>
<text text-anchor="start" x="173" y="-18" font-family="Helvetica,sans-Serif" font-size="10.00">/github/workspace/benchmark</text>
<text text-anchor="middle" x="238.5" y="-7" font-family="Helvetica,sans-Serif" font-size="10.00">/predict_1x1x0.cpp</text>
</a>
</g>
</g>
<!-- Node1&#45;&gt;Node3 -->
<g id="edge2" class="edge">
<title>Node1&#45;&gt;Node3</title>
<path fill="none" stroke="#63b8ff" d="M483.79,-63.57C430.83,-53.3 363.29,-40.2 312.49,-30.35"/>
<polygon fill="#63b8ff" stroke="#63b8ff" points="482.88,-66.96 493.37,-65.43 484.22,-60.09 482.88,-66.96"/>
</g>
<!-- Node4 -->
<g id="node4" class="node">
<title>Node4</title>
<g id="a_node4"><a xlink:href="predict__1x1x1_8cpp.xhtml" target="_top" xlink:title=" ">
<polygon fill="white" stroke="#666666" points="477,-30 330,-30 330,0 477,0 477,-30"/>
<text text-anchor="start" x="338" y="-18" font-family="Helvetica,sans-Serif" font-size="10.00">/github/workspace/benchmark</text>
<text text-anchor="middle" x="403.5" y="-7" font-family="Helvetica,sans-Serif" font-size="10.00">/predict_1x1x1.cpp</text>
</a>
</g>
</g>
<!-- Node1&#45;&gt;Node4 -->
<g id="edge3" class="edge">
<title>Node1&#45;&gt;Node4</title>
<path fill="none" stroke="#63b8ff" d="M520.91,-61.54C495.39,-51.64 464.42,-39.63 440.69,-30.43"/>
<polygon fill="#63b8ff" stroke="#63b8ff" points="519.47,-64.74 530.06,-65.09 522,-58.21 519.47,-64.74"/>
</g>
<!-- Node5 -->
<g id="node5" class="node">
<title>Node5</title>
<g id="a_node5"><a xlink:href="predict__linalg__x1x_8cpp.xhtml" target="_top" xlink:title=" ">
<polygon fill="white" stroke="#666666" points="642,-30 495,-30 495,0 642,0 642,-30"/>
<text text-anchor="start" x="503" y="-18" font-family="Helvetica,sans-Serif" font-size="10.00">/github/workspace/benchmark</text>
<text text-anchor="middle" x="568.5" y="-7" font-family="Helvetica,sans-Serif" font-size="10.00">/predict_linalg_x1x.cpp</text>
</a>
</g>
</g>
<!-- Node1&#45;&gt;Node5 -->
<g id="edge4" class="edge">
<title>Node1&#45;&gt;Node5</title>
<path fill="none" stroke="#63b8ff" d="M568.5,-54.39C568.5,-46.13 568.5,-37.28 568.5,-30.16"/>
<polygon fill="#63b8ff" stroke="#63b8ff" points="565,-54.28 568.5,-64.28 572,-54.28 565,-54.28"/>
</g>
<!-- Node6 -->
<g id="node6" class="node">
<title>Node6</title>
<g id="a_node6"><a xlink:href="update__1x1x0_8cpp.xhtml" target="_top" xlink:title=" ">
<polygon fill="white" stroke="#666666" points="807,-30 660,-30 660,0 807,0 807,-30"/>
<text text-anchor="start" x="668" y="-18" font-family="Helvetica,sans-Serif" font-size="10.00">/github/workspace/benchmark</text>
<text text-anchor="middle" x="733.5" y="-7" font-family="Helvetica,sans-Serif" font-size="10.00">/update_1x1x0.cpp</text>
</a>
</g>
</g>
<!-- Node1&#45;&gt;Node6 -->
<g id="edge5" class="edge">
<title>Node1&#45;&gt;Node6</title>
<path fill="none" stroke="#63b8ff" d="M616.09,-61.54C641.61,-51.64 672.58,-39.63 696.31,-30.43"/>
<polygon fill="#63b8ff" stroke="#63b8ff" points="615,-58.21 606.94,-65.09 617.53,-64.74 615,-58.21"/>
</g>
<!-- Node7 -->
<g id="node7" class="node">
<title>Node7</title>
<g id="a_node7"><a xlink:href="update__1x1x1_8cpp.xhtml" target="_top" xlink:title=" ">
<polygon fill="white" stroke="#666666" points="972,-30 825,-30 825,0 972,0 972,-30"/>
<text text-anchor="start" x="833" y="-18" font-family="Helvetica,sans-Serif" font-size="10.00">/github/workspace/benchmark</text>
<text text-anchor="middle" x="898.5" y="-7" font-family="Helvetica,sans-Serif" font-size="10.00">/update_1x1x1.cpp</text>
</a>
</g>
</g>
<!-- Node1&#45;&gt;Node7 -->
<g id="edge6" class="edge">
<title>Node1&#45;&gt;Node7</title>
<path fill="none" stroke="#63b8ff" d="M653.21,-63.57C706.17,-53.3 773.71,-40.2 824.51,-30.35"/>
<polygon fill="#63b8ff" stroke="#63b8ff" points="652.78,-60.09 643.63,-65.43 654.12,-66.96 652.78,-60.09"/>
</g>
<!-- Node8 -->
<g id="node8" class="node">
<title>Node8</title>
<g id="a_node8"><a xlink:href="update__linalg__xx0_8cpp.xhtml" target="_top" xlink:title=" ">
<polygon fill="white" stroke="#666666" points="1137,-30 990,-30 990,0 1137,0 1137,-30"/>
<text text-anchor="start" x="998" y="-18" font-family="Helvetica,sans-Serif" font-size="10.00">/github/workspace/benchmark</text>
<text text-anchor="middle" x="1063.5" y="-7" font-family="Helvetica,sans-Serif" font-size="10.00">/update_linalg_xx0.cpp</text>
</a>
</g>
</g>
<!-- Node1&#45;&gt;Node8 -->
<g id="edge7" class="edge">
<title>Node1&#45;&gt;Node8</title>
<path fill="none" stroke="#63b8ff" d="M653.35,-70.95C736.95,-61.74 868.25,-46.51 981.5,-30 984.22,-29.6 986.98,-29.19 989.77,-28.76"/>
<polygon fill="#63b8ff" stroke="#63b8ff" points="653.19,-67.44 643.63,-72.01 653.96,-74.4 653.19,-67.44"/>
</g>
</g>
</svg>
