<?xml version="1.0" encoding="UTF-8" standalone="no"?>
<!DOCTYPE svg PUBLIC "-//W3C//DTD SVG 1.1//EN"
 "http://www.w3.org/Graphics/SVG/1.1/DTD/svg11.dtd">
<!-- Generated by graphviz version 2.49.3 (20211027.1534)
 -->
<!-- Title: benchmark/benchmark_simple.cpp Pages: 1 -->
<svg width="375pt" height="162pt"
 viewBox="0.00 0.00 375.00 162.00" xmlns="http://www.w3.org/2000/svg" xmlns:xlink="http://www.w3.org/1999/xlink">
<g id="graph0" class="graph" transform="scale(1 1) rotate(0) translate(4 158)">
<title>benchmark/benchmark_simple.cpp</title>
<polygon fill="white" stroke="transparent" points="-4,4 -4,-158 371,-158 371,4 -4,4"/>
<!-- Node1 -->
<g id="node1" class="node">
<title>Node1</title>
<g id="a_node1"><a xlink:title=" ">
<polygon fill="#bfbfbf" stroke="black" points="107,-123.5 107,-153.5 223,-153.5 223,-123.5 107,-123.5"/>
<text text-anchor="start" x="115" y="-141.5" font-family="Helvetica,sans-Serif" font-size="10.00">benchmark/benchmark</text>
<text text-anchor="middle" x="165" y="-130.5" font-family="Helvetica,sans-Serif" font-size="10.00">_simple.cpp</text>
</a>
</g>
</g>
<!-- Node2 -->
<g id="node2" class="node">
<title>Node2</title>
<g id="a_node2"><a xlink:href="benchmark_8hpp.xhtml" target="_top" xlink:title="Benchmarking support.">
<polygon fill="white" stroke="black" points="46.5,-56.5 46.5,-86.5 151.5,-86.5 151.5,-56.5 46.5,-56.5"/>
<text text-anchor="start" x="54.5" y="-74.5" font-family="Helvetica,sans-Serif" font-size="10.00">fcarouge/benchmark</text>
<text text-anchor="middle" x="99" y="-63.5" font-family="Helvetica,sans-Serif" font-size="10.00">/benchmark.hpp</text>
</a>
</g>
</g>
<!-- Node1&#45;&gt;Node2 -->
<g id="edge1" class="edge">
<title>Node1&#45;&gt;Node2</title>
<path fill="none" stroke="midnightblue" d="M150.68,-123.4C141.86,-114.71 130.38,-103.4 120.48,-93.66"/>
<polygon fill="midnightblue" stroke="midnightblue" points="122.87,-91.1 113.29,-86.58 117.96,-96.09 122.87,-91.1"/>
</g>
<!-- Node3 -->
<g id="node3" class="node">
<title>Node3</title>
<g id="a_node3"><a xlink:title=" ">
<polygon fill="white" stroke="#bfbfbf" points="0,-0.5 0,-19.5 46,-19.5 46,-0.5 0,-0.5"/>
<text text-anchor="middle" x="23" y="-7.5" font-family="Helvetica,sans-Serif" font-size="10.00">chrono</text>
</a>
</g>
</g>
<!-- Node1&#45;&gt;Node3 -->
<g id="edge6" class="edge">
<title>Node1&#45;&gt;Node3</title>
<path fill="none" stroke="midnightblue" d="M106.84,-127.63C81.82,-120.45 54.38,-108.12 37,-87 23.84,-71.01 21.46,-46.67 21.64,-29.86"/>
<polygon fill="midnightblue" stroke="midnightblue" points="25.15,-29.77 22.08,-19.63 18.16,-29.47 25.15,-29.77"/>
</g>
<!-- Node5 -->
<g id="node5" class="node">
<title>Node5</title>
<g id="a_node5"><a xlink:title=" ">
<polygon fill="white" stroke="#bfbfbf" points="169.5,-62 169.5,-81 292.5,-81 292.5,-62 169.5,-62"/>
<text text-anchor="middle" x="231" y="-69" font-family="Helvetica,sans-Serif" font-size="10.00">benchmark/benchmark.h</text>
</a>
</g>
</g>
<!-- Node1&#45;&gt;Node5 -->
<g id="edge4" class="edge">
<title>Node1&#45;&gt;Node5</title>
<path fill="none" stroke="midnightblue" d="M179.32,-123.4C189.82,-113.06 204.07,-99.02 214.95,-88.31"/>
<polygon fill="midnightblue" stroke="midnightblue" points="217.5,-90.71 222.17,-81.19 212.59,-85.72 217.5,-90.71"/>
</g>
<!-- Node6 -->
<g id="node6" class="node">
<title>Node6</title>
<g id="a_node6"><a xlink:title=" ">
<polygon fill="white" stroke="#bfbfbf" points="311,-62 311,-81 367,-81 367,-62 311,-62"/>
<text text-anchor="middle" x="339" y="-69" font-family="Helvetica,sans-Serif" font-size="10.00">algorithm</text>
</a>
</g>
</g>
<!-- Node1&#45;&gt;Node6 -->
<g id="edge5" class="edge">
<title>Node1&#45;&gt;Node6</title>
<path fill="none" stroke="midnightblue" d="M203.76,-123.45C231.24,-113.43 268.95,-99.57 302,-87 303.89,-86.28 305.82,-85.54 307.78,-84.79"/>
<polygon fill="midnightblue" stroke="midnightblue" points="309.45,-87.89 317.51,-81.01 306.92,-81.37 309.45,-87.89"/>
</g>
<!-- Node2&#45;&gt;Node3 -->
<g id="edge2" class="edge">
<title>Node2&#45;&gt;Node3</title>
<path fill="none" stroke="midnightblue" d="M80.99,-56.4C69.26,-47.22 53.98,-35.26 42.06,-25.92"/>
<polygon fill="midnightblue" stroke="midnightblue" points="44.09,-23.07 34.06,-19.66 39.78,-28.58 44.09,-23.07"/>
</g>
<!-- Node4 -->
<g id="node4" class="node">
<title>Node4</title>
<g id="a_node4"><a xlink:title=" ">
<polygon fill="white" stroke="#bfbfbf" points="68,-0.5 68,-19.5 130,-19.5 130,-0.5 68,-0.5"/>
<text text-anchor="middle" x="99" y="-7.5" font-family="Helvetica,sans-Serif" font-size="10.00">type_traits</text>
</a>
</g>
</g>
<!-- Node2&#45;&gt;Node4 -->
<g id="edge3" class="edge">
<title>Node2&#45;&gt;Node4</title>
<path fill="none" stroke="midnightblue" d="M99,-56.4C99,-48.47 99,-38.46 99,-29.86"/>
<polygon fill="midnightblue" stroke="midnightblue" points="102.5,-29.66 99,-19.66 95.5,-29.66 102.5,-29.66"/>
</g>
</g>
</svg>
