<?xml version="1.0" encoding="UTF-8" standalone="no"?>
<!DOCTYPE svg PUBLIC "-//W3C//DTD SVG 1.1//EN"
 "http://www.w3.org/Graphics/SVG/1.1/DTD/svg11.dtd">
<!-- Generated by graphviz version 2.49.3 (20211027.1534)
 -->
<!-- Title: sample/building_height.cpp Pages: 1 -->
<svg width="458pt" height="196pt"
 viewBox="0.00 0.00 458.00 196.00" xmlns="http://www.w3.org/2000/svg" xmlns:xlink="http://www.w3.org/1999/xlink">
<g id="graph0" class="graph" transform="scale(1 1) rotate(0) translate(4 192)">
<title>sample/building_height.cpp</title>
<polygon fill="white" stroke="transparent" points="-4,4 -4,-192 454,-192 454,4 -4,4"/>
<!-- Node1 -->
<g id="node1" class="node">
<title>Node1</title>
<g id="a_node1"><a xlink:title=" ">
<polygon fill="#bfbfbf" stroke="black" points="178.5,-168.5 178.5,-187.5 312.5,-187.5 312.5,-168.5 178.5,-168.5"/>
<text text-anchor="middle" x="245.5" y="-175.5" font-family="Helvetica,sans-Serif" font-size="10.00">sample/building_height.cpp</text>
</a>
</g>
</g>
<!-- Node2 -->
<g id="node2" class="node">
<title>Node2</title>
<g id="a_node2"><a xlink:href="kalman_8hpp.xhtml" target="_top" xlink:title="The main Kalman filter class.">
<polygon fill="white" stroke="black" points="144,-112.5 144,-131.5 251,-131.5 251,-112.5 144,-112.5"/>
<text text-anchor="middle" x="197.5" y="-119.5" font-family="Helvetica,sans-Serif" font-size="10.00">fcarouge/kalman.hpp</text>
</a>
</g>
</g>
<!-- Node1&#45;&gt;Node2 -->
<g id="edge1" class="edge">
<title>Node1&#45;&gt;Node2</title>
<path fill="none" stroke="midnightblue" d="M237.57,-168.08C230.65,-160.3 220.43,-148.8 212.05,-139.37"/>
<polygon fill="midnightblue" stroke="midnightblue" points="214.54,-136.9 205.28,-131.75 209.31,-141.55 214.54,-136.9"/>
</g>
<!-- Node9 -->
<g id="node9" class="node">
<title>Node9</title>
<g id="a_node9"><a xlink:title=" ">
<polygon fill="white" stroke="#bfbfbf" points="269,-112.5 269,-131.5 318,-131.5 318,-112.5 269,-112.5"/>
<text text-anchor="middle" x="293.5" y="-119.5" font-family="Helvetica,sans-Serif" font-size="10.00">cassert</text>
</a>
</g>
</g>
<!-- Node1&#45;&gt;Node9 -->
<g id="edge10" class="edge">
<title>Node1&#45;&gt;Node9</title>
<path fill="none" stroke="midnightblue" d="M253.43,-168.08C260.35,-160.3 270.57,-148.8 278.95,-139.37"/>
<polygon fill="midnightblue" stroke="midnightblue" points="281.69,-141.55 285.72,-131.75 276.46,-136.9 281.69,-141.55"/>
</g>
<!-- Node3 -->
<g id="node3" class="node">
<title>Node3</title>
<g id="a_node3"><a xlink:href="internal_2kalman_8hpp.xhtml" target="_top" xlink:title="The main Kalman filter class.">
<polygon fill="white" stroke="black" points="19,-56.5 19,-75.5 120,-75.5 120,-56.5 19,-56.5"/>
<text text-anchor="middle" x="69.5" y="-63.5" font-family="Helvetica,sans-Serif" font-size="10.00">internal/kalman.hpp</text>
</a>
</g>
</g>
<!-- Node2&#45;&gt;Node3 -->
<g id="edge2" class="edge">
<title>Node2&#45;&gt;Node3</title>
<path fill="none" stroke="midnightblue" d="M177.22,-112.44C156.15,-103.56 122.98,-89.56 99.01,-79.45"/>
<polygon fill="midnightblue" stroke="midnightblue" points="100.26,-76.18 89.69,-75.52 97.54,-82.63 100.26,-76.18"/>
</g>
<!-- Node4 -->
<g id="node4" class="node">
<title>Node4</title>
<g id="a_node4"><a xlink:title=" ">
<polygon fill="white" stroke="#bfbfbf" points="0,-0.5 0,-19.5 59,-19.5 59,-0.5 0,-0.5"/>
<text text-anchor="middle" x="29.5" y="-7.5" font-family="Helvetica,sans-Serif" font-size="10.00">functional</text>
</a>
</g>
</g>
<!-- Node2&#45;&gt;Node4 -->
<g id="edge7" class="edge">
<title>Node2&#45;&gt;Node4</title>
<path fill="none" stroke="midnightblue" d="M143.63,-115.48C94.11,-109.16 25.97,-96.88 9.5,-76 -1.42,-62.16 7.2,-42.36 16.28,-28.25"/>
<polygon fill="midnightblue" stroke="midnightblue" points="19.24,-30.12 22.12,-19.92 13.51,-26.11 19.24,-30.12"/>
</g>
<!-- Node5 -->
<g id="node5" class="node">
<title>Node5</title>
<g id="a_node5"><a xlink:title=" ">
<polygon fill="white" stroke="#bfbfbf" points="97.5,-0.5 97.5,-19.5 159.5,-19.5 159.5,-0.5 97.5,-0.5"/>
<text text-anchor="middle" x="128.5" y="-7.5" font-family="Helvetica,sans-Serif" font-size="10.00">type_traits</text>
</a>
</g>
</g>
<!-- Node2&#45;&gt;Node5 -->
<g id="edge8" class="edge">
<title>Node2&#45;&gt;Node5</title>
<path fill="none" stroke="midnightblue" d="M191.89,-112.41C186.01,-103.38 176.52,-88.74 168.5,-76 158.48,-60.1 147.29,-41.86 139.29,-28.76"/>
<polygon fill="midnightblue" stroke="midnightblue" points="142.07,-26.59 133.88,-19.87 136.09,-30.23 142.07,-26.59"/>
</g>
<!-- Node6 -->
<g id="node6" class="node">
<title>Node6</title>
<g id="a_node6"><a xlink:href="kalman__operator_8hpp.xhtml" target="_top" xlink:title="Kalman operation for standard types.">
<polygon fill="white" stroke="black" points="177,-56.5 177,-75.5 318,-75.5 318,-56.5 177,-56.5"/>
<text text-anchor="middle" x="247.5" y="-63.5" font-family="Helvetica,sans-Serif" font-size="10.00">internal/kalman_operator.hpp</text>
</a>
</g>
</g>
<!-- Node2&#45;&gt;Node6 -->
<g id="edge5" class="edge">
<title>Node2&#45;&gt;Node6</title>
<path fill="none" stroke="midnightblue" d="M205.76,-112.08C212.96,-104.3 223.61,-92.8 232.35,-83.37"/>
<polygon fill="midnightblue" stroke="midnightblue" points="235.17,-85.47 239.4,-75.75 230.03,-80.71 235.17,-85.47"/>
</g>
<!-- Node7 -->
<g id="node7" class="node">
<title>Node7</title>
<g id="a_node7"><a xlink:title=" ">
<polygon fill="white" stroke="#bfbfbf" points="336.5,-56.5 336.5,-75.5 392.5,-75.5 392.5,-56.5 336.5,-56.5"/>
<text text-anchor="middle" x="364.5" y="-63.5" font-family="Helvetica,sans-Serif" font-size="10.00">concepts</text>
</a>
</g>
</g>
<!-- Node2&#45;&gt;Node7 -->
<g id="edge6" class="edge">
<title>Node2&#45;&gt;Node7</title>
<path fill="none" stroke="midnightblue" d="M223.96,-112.44C252.18,-103.32 297.04,-88.81 328.47,-78.65"/>
<polygon fill="midnightblue" stroke="midnightblue" points="329.72,-81.92 338.16,-75.52 327.57,-75.26 329.72,-81.92"/>
</g>
<!-- Node8 -->
<g id="node8" class="node">
<title>Node8</title>
<g id="a_node8"><a xlink:title=" ">
<polygon fill="white" stroke="#bfbfbf" points="411,-56.5 411,-75.5 450,-75.5 450,-56.5 411,-56.5"/>
<text text-anchor="middle" x="430.5" y="-63.5" font-family="Helvetica,sans-Serif" font-size="10.00">utility</text>
</a>
</g>
</g>
<!-- Node2&#45;&gt;Node8 -->
<g id="edge9" class="edge">
<title>Node2&#45;&gt;Node8</title>
<path fill="none" stroke="midnightblue" d="M241.13,-112.48C280.5,-104.54 340.19,-91.9 401.12,-75.92"/>
<polygon fill="midnightblue" stroke="midnightblue" points="402.14,-79.27 410.91,-73.32 400.35,-72.5 402.14,-79.27"/>
</g>
<!-- Node3&#45;&gt;Node4 -->
<g id="edge3" class="edge">
<title>Node3&#45;&gt;Node4</title>
<path fill="none" stroke="midnightblue" d="M62.89,-56.08C57.24,-48.46 48.96,-37.26 42.05,-27.94"/>
<polygon fill="midnightblue" stroke="midnightblue" points="44.75,-25.7 35.98,-19.75 39.12,-29.87 44.75,-25.7"/>
</g>
<!-- Node3&#45;&gt;Node5 -->
<g id="edge4" class="edge">
<title>Node3&#45;&gt;Node5</title>
<path fill="none" stroke="midnightblue" d="M78.98,-56.32C87.7,-48.34 100.84,-36.31 111.4,-26.65"/>
<polygon fill="midnightblue" stroke="midnightblue" points="113.83,-29.17 118.85,-19.83 109.11,-24 113.83,-29.17"/>
</g>
</g>
</svg>
