<?xml version="1.0" encoding="UTF-8" standalone="no"?>
<!DOCTYPE svg PUBLIC "-//W3C//DTD SVG 1.1//EN"
 "http://www.w3.org/Graphics/SVG/1.1/DTD/svg11.dtd">
<!-- Generated by graphviz version 12.2.0 (20241103.1931)
 -->
<!-- Title: fcarouge::kalman&lt; typename &gt; Pages: 1 -->
<!--zoomable 957 -->

<svg id="main" version="1.1" xmlns="http://www.w3.org/2000/svg" xmlns:xlink="http://www.w3.org/1999/xlink" xml:space="preserve" onload="init(evt)">

<style type="text/css"><![CDATA[
.node, .edge {opacity: 0.7;}
.node.selected, .edge.selected {opacity: 1;}
.edge:hover path { stroke: red; }
.edge:hover polygon { stroke: red; fill: red; }
]]></style>

<defs>
  <circle id="rim" cx="0" cy="0" r="7"/>
  <circle id="rim2" cx="0" cy="0" r="3.5"/>
  <g id="zoomPlus">
    <use xlink:href="#rim" fill="#404040"><set attributeName="fill" to="#808080" begin="zoomplus.mouseover" end="zoomplus.mouseout"/></use>
    <path d="M-4,0h8M0,-4v8" fill="none" stroke="white" stroke-width="1.5" pointer-events="none"/>
  </g>
  <g id="zoomMin">
    <use xlink:href="#rim" fill="#404040"><set attributeName="fill" to="#808080" begin="zoomminus.mouseover" end="zoomminus.mouseout"/></use>
    <path d="M-4,0h8" fill="none" stroke="white" stroke-width="1.5" pointer-events="none"/>
  </g>
  <g id="arrowUp" transform="translate(30 24)">
    <use xlink:href="#rim"/>
    <path pointer-events="none" fill="none" stroke="white" stroke-width="1.5" d="M0,-3.0v7 M-2.5,-0.5L0,-3.0L2.5,-0.5"/>
  </g>
  <g id="arrowRight" transform="rotate(90) translate(36 -43)">
    <use xlink:href="#rim"/>
    <path pointer-events="none" fill="none" stroke="white" stroke-width="1.5" d="M0,-3.0v7 M-2.5,-0.5L0,-3.0L2.5,-0.5"/>
  </g>
  <g id="arrowDown" transform="rotate(180) translate(-30 -48)">
    <use xlink:href="#rim"/>
    <path pointer-events="none" fill="none" stroke="white" stroke-width="1.5" d="M0,-3.0v7 M-2.5,-0.5L0,-3.0L2.5,-0.5"/>
  </g>
  <g id="arrowLeft" transform="rotate(270) translate(-36 17)">
    <use xlink:href="#rim"/>
    <path pointer-events="none" fill="none" stroke="white" stroke-width="1.5" d="M0,-3.0v7 M-2.5,-0.5L0,-3.0L2.5,-0.5"/>
  </g>
  <g id="resetDef">
    <use xlink:href="#rim2" fill="#404040"><set attributeName="fill" to="#808080" begin="reset.mouseover" end="reset.mouseout"/></use>
  </g>
</defs>
<script type="application/ecmascript">
var viewWidth = 1852;
var viewHeight = 957;
var sectionId = 'dynsection-0';
</script>
<script type="application/ecmascript" xlink:href="svg.min.js"/>
<svg id="graph" class="graph">
<g id="viewport">
<title>fcarouge::kalman&lt; typename &gt;</title>
<!-- Node1 -->
<g id="Node000001" class="node">
<title>Node1</title>
<g id="a_Node000001"><a xlink:title="A generic Kalman filter.">
<polygon fill="#999999" stroke="none" points="964.75,-720.75 824.75,-720.75 824.75,0 964.75,0 964.75,-720.75"/>
<text text-anchor="start" x="828.75" y="-707.25" font-family="Helvetica,sans-Serif" font-size="10.00">fcarouge::kalman&lt; typename &gt;</text>
<text text-anchor="start" x="848.94" y="-692" font-family="Helvetica,sans-Serif" font-size="10.00">&#45;</text>
<text text-anchor="start" x="876.12" y="-692" font-family="Helvetica,sans-Serif" font-size="10.00">filter</text>
<text text-anchor="start" x="847.44" y="-676.75" font-family="Helvetica,sans-Serif" font-size="10.00">+</text>
<text text-anchor="start" x="876.12" y="-676.75" font-family="Helvetica,sans-Serif" font-size="10.00">kalman()</text>
<text text-anchor="start" x="847.44" y="-661.5" font-family="Helvetica,sans-Serif" font-size="10.00">+</text>
<text text-anchor="start" x="876.12" y="-661.5" font-family="Helvetica,sans-Serif" font-size="10.00">kalman()</text>
<text text-anchor="start" x="847.44" y="-646.25" font-family="Helvetica,sans-Serif" font-size="10.00">+</text>
<text text-anchor="start" x="876.12" y="-646.25" font-family="Helvetica,sans-Serif" font-size="10.00">kalman()</text>
<text text-anchor="start" x="847.44" y="-631" font-family="Helvetica,sans-Serif" font-size="10.00">+</text>
<text text-anchor="start" x="876.12" y="-631" font-family="Helvetica,sans-Serif" font-size="10.00">operator=()</text>
<text text-anchor="start" x="847.44" y="-615.75" font-family="Helvetica,sans-Serif" font-size="10.00">+</text>
<text text-anchor="start" x="876.12" y="-615.75" font-family="Helvetica,sans-Serif" font-size="10.00">operator=()</text>
<text text-anchor="start" x="847.44" y="-600.5" font-family="Helvetica,sans-Serif" font-size="10.00">+</text>
<text text-anchor="start" x="876.12" y="-600.5" font-family="Helvetica,sans-Serif" font-size="10.00">~kalman()</text>
<text text-anchor="start" x="847.44" y="-585.25" font-family="Helvetica,sans-Serif" font-size="10.00">+</text>
<text text-anchor="start" x="876.12" y="-585.25" font-family="Helvetica,sans-Serif" font-size="10.00">x()</text>
<text text-anchor="start" x="847.44" y="-570" font-family="Helvetica,sans-Serif" font-size="10.00">+</text>
<text text-anchor="start" x="876.12" y="-570" font-family="Helvetica,sans-Serif" font-size="10.00">z()</text>
<text text-anchor="start" x="847.44" y="-554.75" font-family="Helvetica,sans-Serif" font-size="10.00">+</text>
<text text-anchor="start" x="876.12" y="-554.75" font-family="Helvetica,sans-Serif" font-size="10.00">u()</text>
<text text-anchor="start" x="847.44" y="-539.5" font-family="Helvetica,sans-Serif" font-size="10.00">+</text>
<text text-anchor="start" x="876.12" y="-539.5" font-family="Helvetica,sans-Serif" font-size="10.00">p()</text>
<text text-anchor="start" x="847.44" y="-524.25" font-family="Helvetica,sans-Serif" font-size="10.00">+</text>
<text text-anchor="start" x="876.12" y="-524.25" font-family="Helvetica,sans-Serif" font-size="10.00">q()</text>
<text text-anchor="start" x="847.44" y="-509" font-family="Helvetica,sans-Serif" font-size="10.00">+</text>
<text text-anchor="start" x="876.12" y="-509" font-family="Helvetica,sans-Serif" font-size="10.00">r()</text>
<text text-anchor="start" x="847.44" y="-493.75" font-family="Helvetica,sans-Serif" font-size="10.00">+</text>
<text text-anchor="start" x="876.12" y="-493.75" font-family="Helvetica,sans-Serif" font-size="10.00">f()</text>
<text text-anchor="start" x="847.44" y="-478.5" font-family="Helvetica,sans-Serif" font-size="10.00">+</text>
<text text-anchor="start" x="876.12" y="-478.5" font-family="Helvetica,sans-Serif" font-size="10.00">h()</text>
<text text-anchor="start" x="847.44" y="-463.25" font-family="Helvetica,sans-Serif" font-size="10.00">+</text>
<text text-anchor="start" x="876.12" y="-463.25" font-family="Helvetica,sans-Serif" font-size="10.00">g()</text>
<text text-anchor="start" x="847.44" y="-448" font-family="Helvetica,sans-Serif" font-size="10.00">+</text>
<text text-anchor="start" x="876.12" y="-448" font-family="Helvetica,sans-Serif" font-size="10.00">k()</text>
<text text-anchor="start" x="847.44" y="-432.75" font-family="Helvetica,sans-Serif" font-size="10.00">+</text>
<text text-anchor="start" x="876.12" y="-432.75" font-family="Helvetica,sans-Serif" font-size="10.00">y()</text>
<text text-anchor="start" x="847.44" y="-417.5" font-family="Helvetica,sans-Serif" font-size="10.00">+</text>
<text text-anchor="start" x="876.12" y="-417.5" font-family="Helvetica,sans-Serif" font-size="10.00">s()</text>
<text text-anchor="start" x="847.44" y="-402.25" font-family="Helvetica,sans-Serif" font-size="10.00">+</text>
<text text-anchor="start" x="876.12" y="-402.25" font-family="Helvetica,sans-Serif" font-size="10.00">predict()</text>
<text text-anchor="start" x="847.44" y="-387" font-family="Helvetica,sans-Serif" font-size="10.00">+</text>
<text text-anchor="start" x="876.12" y="-387" font-family="Helvetica,sans-Serif" font-size="10.00">predict()</text>
<text text-anchor="start" x="847.44" y="-371.75" font-family="Helvetica,sans-Serif" font-size="10.00">+</text>
<text text-anchor="start" x="876.12" y="-371.75" font-family="Helvetica,sans-Serif" font-size="10.00">update()</text>
<text text-anchor="start" x="847.44" y="-356.5" font-family="Helvetica,sans-Serif" font-size="10.00">+</text>
<text text-anchor="start" x="876.12" y="-356.5" font-family="Helvetica,sans-Serif" font-size="10.00">update()</text>
<text text-anchor="start" x="848.56" y="-341.25" font-family="Helvetica,sans-Serif" font-size="10.00">*</text>
<text text-anchor="start" x="876.12" y="-341.25" font-family="Helvetica,sans-Serif" font-size="10.00">filter</text>
<text text-anchor="start" x="848.56" y="-326" font-family="Helvetica,sans-Serif" font-size="10.00">*</text>
<text text-anchor="start" x="876.12" y="-326" font-family="Helvetica,sans-Serif" font-size="10.00">kalman()</text>
<text text-anchor="start" x="848.56" y="-310.75" font-family="Helvetica,sans-Serif" font-size="10.00">*</text>
<text text-anchor="start" x="876.12" y="-310.75" font-family="Helvetica,sans-Serif" font-size="10.00">kalman()</text>
<text text-anchor="start" x="848.56" y="-295.5" font-family="Helvetica,sans-Serif" font-size="10.00">*</text>
<text text-anchor="start" x="876.12" y="-295.5" font-family="Helvetica,sans-Serif" font-size="10.00">kalman()</text>
<text text-anchor="start" x="848.56" y="-280.25" font-family="Helvetica,sans-Serif" font-size="10.00">*</text>
<text text-anchor="start" x="876.12" y="-280.25" font-family="Helvetica,sans-Serif" font-size="10.00">operator=()</text>
<text text-anchor="start" x="848.56" y="-265" font-family="Helvetica,sans-Serif" font-size="10.00">*</text>
<text text-anchor="start" x="876.12" y="-265" font-family="Helvetica,sans-Serif" font-size="10.00">operator=()</text>
<text text-anchor="start" x="848.56" y="-249.75" font-family="Helvetica,sans-Serif" font-size="10.00">*</text>
<text text-anchor="start" x="876.12" y="-249.75" font-family="Helvetica,sans-Serif" font-size="10.00">~kalman()</text>
<text text-anchor="start" x="848.56" y="-234.5" font-family="Helvetica,sans-Serif" font-size="10.00">*</text>
<text text-anchor="start" x="876.12" y="-234.5" font-family="Helvetica,sans-Serif" font-size="10.00">x()</text>
<text text-anchor="start" x="848.56" y="-219.25" font-family="Helvetica,sans-Serif" font-size="10.00">*</text>
<text text-anchor="start" x="876.12" y="-219.25" font-family="Helvetica,sans-Serif" font-size="10.00">z()</text>
<text text-anchor="start" x="848.56" y="-204" font-family="Helvetica,sans-Serif" font-size="10.00">*</text>
<text text-anchor="start" x="876.12" y="-204" font-family="Helvetica,sans-Serif" font-size="10.00">u()</text>
<text text-anchor="start" x="848.56" y="-188.75" font-family="Helvetica,sans-Serif" font-size="10.00">*</text>
<text text-anchor="start" x="876.12" y="-188.75" font-family="Helvetica,sans-Serif" font-size="10.00">p()</text>
<text text-anchor="start" x="848.56" y="-173.5" font-family="Helvetica,sans-Serif" font-size="10.00">*</text>
<text text-anchor="start" x="876.12" y="-173.5" font-family="Helvetica,sans-Serif" font-size="10.00">q()</text>
<text text-anchor="start" x="848.56" y="-158.25" font-family="Helvetica,sans-Serif" font-size="10.00">*</text>
<text text-anchor="start" x="876.12" y="-158.25" font-family="Helvetica,sans-Serif" font-size="10.00">r()</text>
<text text-anchor="start" x="848.56" y="-143" font-family="Helvetica,sans-Serif" font-size="10.00">*</text>
<text text-anchor="start" x="876.12" y="-143" font-family="Helvetica,sans-Serif" font-size="10.00">f()</text>
<text text-anchor="start" x="848.56" y="-127.75" font-family="Helvetica,sans-Serif" font-size="10.00">*</text>
<text text-anchor="start" x="876.12" y="-127.75" font-family="Helvetica,sans-Serif" font-size="10.00">h()</text>
<text text-anchor="start" x="848.56" y="-112.5" font-family="Helvetica,sans-Serif" font-size="10.00">*</text>
<text text-anchor="start" x="876.12" y="-112.5" font-family="Helvetica,sans-Serif" font-size="10.00">g()</text>
<text text-anchor="start" x="848.56" y="-97.25" font-family="Helvetica,sans-Serif" font-size="10.00">*</text>
<text text-anchor="start" x="876.12" y="-97.25" font-family="Helvetica,sans-Serif" font-size="10.00">k()</text>
<text text-anchor="start" x="848.56" y="-82" font-family="Helvetica,sans-Serif" font-size="10.00">*</text>
<text text-anchor="start" x="876.12" y="-82" font-family="Helvetica,sans-Serif" font-size="10.00">y()</text>
<text text-anchor="start" x="848.56" y="-66.75" font-family="Helvetica,sans-Serif" font-size="10.00">*</text>
<text text-anchor="start" x="876.12" y="-66.75" font-family="Helvetica,sans-Serif" font-size="10.00">s()</text>
<text text-anchor="start" x="848.56" y="-51.5" font-family="Helvetica,sans-Serif" font-size="10.00">*</text>
<text text-anchor="start" x="876.12" y="-51.5" font-family="Helvetica,sans-Serif" font-size="10.00">predict()</text>
<text text-anchor="start" x="848.56" y="-36.25" font-family="Helvetica,sans-Serif" font-size="10.00">*</text>
<text text-anchor="start" x="876.12" y="-36.25" font-family="Helvetica,sans-Serif" font-size="10.00">predict()</text>
<text text-anchor="start" x="848.56" y="-21" font-family="Helvetica,sans-Serif" font-size="10.00">*</text>
<text text-anchor="start" x="876.12" y="-21" font-family="Helvetica,sans-Serif" font-size="10.00">update()</text>
<text text-anchor="start" x="848.56" y="-5.75" font-family="Helvetica,sans-Serif" font-size="10.00">*</text>
<text text-anchor="start" x="876.12" y="-5.75" font-family="Helvetica,sans-Serif" font-size="10.00">update()</text>
<polygon fill="#666666" stroke="#666666" points="824.75,-703.5 824.75,-703.5 964.75,-703.5 964.75,-703.5 824.75,-703.5"/>
<polygon fill="#666666" stroke="#666666" points="824.75,-688.25 824.75,-688.25 874.12,-688.25 874.12,-688.25 824.75,-688.25"/>
<polygon fill="#666666" stroke="#666666" points="874.12,-688.25 874.12,-688.25 964.75,-688.25 964.75,-688.25 874.12,-688.25"/>
<polygon fill="none" stroke="#666666" points="824.75,0 824.75,-720.75 964.75,-720.75 964.75,0 824.75,0"/>
</a>
</g>
</g>
<!-- Node2 -->
<g id="Node000002" class="node">
<title>Node2</title>
<g id="a_Node000002"><a xlink:title=" ">
<polygon fill="white" stroke="none" points="952.38,-829 837.12,-829 837.12,-756.75 952.38,-756.75 952.38,-829"/>
<text text-anchor="start" x="841.12" y="-815.5" font-family="Helvetica,sans-Serif" font-size="10.00">fcarouge::kalman_filter</text>
<text text-anchor="start" x="841.12" y="-804.25" font-family="Helvetica,sans-Serif" font-size="10.00">::internal::conditional</text>
<text text-anchor="start" x="841.12" y="-793" font-family="Helvetica,sans-Serif" font-size="10.00">_member_types&lt; Filter &gt;</text>
<text text-anchor="start" x="893.25" y="-777.75" font-family="Helvetica,sans-Serif" font-size="10.00"> </text>
<text text-anchor="start" x="893.25" y="-762.5" font-family="Helvetica,sans-Serif" font-size="10.00"> </text>
<polygon fill="#666666" stroke="#666666" points="837.12,-789.25 837.12,-789.25 952.38,-789.25 952.38,-789.25 837.12,-789.25"/>
<polygon fill="#666666" stroke="#666666" points="837.12,-774 837.12,-774 952.38,-774 952.38,-774 837.12,-774"/>
<polygon fill="none" stroke="#666666" points="837.12,-756.75 837.12,-829 952.38,-829 952.38,-756.75 837.12,-756.75"/>
</a>
</g>
</g>
<!-- Node2&#45;&gt;Node1 -->
<g id="edge1_Node000001_Node000002" class="edge">
<title>Node2&#45;&gt;Node1</title>
<g id="a_edge1_Node000001_Node000002"><a xlink:title=" ">
<path fill="none" stroke="#63b8ff" d="M894.75,-745.6C894.75,-737.92 894.75,-729.47 894.75,-720.39"/>
<polygon fill="none" stroke="#63b8ff" points="891.25,-745.5 894.75,-755.5 898.25,-745.5 891.25,-745.5"/>
</a>
</g>
</g>
<!-- Node3 -->
<g id="Node000003" class="node">
<title>Node3</title>
<g id="a_Node000003"><a xlink:title=" ">
<polygon fill="white" stroke="none" points="141.5,-942.88 0,-942.88 0,-870.62 141.5,-870.62 141.5,-942.88"/>
<text text-anchor="start" x="4" y="-929.38" font-family="Helvetica,sans-Serif" font-size="10.00">fcarouge::kalman_filter</text>
<text text-anchor="start" x="4" y="-918.12" font-family="Helvetica,sans-Serif" font-size="10.00">::internal::conditional</text>
<text text-anchor="start" x="4" y="-906.88" font-family="Helvetica,sans-Serif" font-size="10.00">_estimate_uncertainty&lt; Filter &gt;</text>
<text text-anchor="start" x="69.25" y="-891.62" font-family="Helvetica,sans-Serif" font-size="10.00"> </text>
<text text-anchor="start" x="69.25" y="-876.38" font-family="Helvetica,sans-Serif" font-size="10.00"> </text>
<polygon fill="#666666" stroke="#666666" points="0,-903.12 0,-903.12 141.5,-903.12 141.5,-903.12 0,-903.12"/>
<polygon fill="#666666" stroke="#666666" points="0,-887.88 0,-887.88 141.5,-887.88 141.5,-887.88 0,-887.88"/>
<polygon fill="none" stroke="#666666" points="0,-870.62 0,-942.88 141.5,-942.88 141.5,-870.62 0,-870.62"/>
</a>
</g>
</g>
<!-- Node3&#45;&gt;Node2 -->
<g id="edge2_Node000002_Node000003" class="edge">
<title>Node3&#45;&gt;Node2</title>
<g id="a_edge2_Node000002_Node000003"><a xlink:title=" ">
<path fill="none" stroke="#63b8ff" d="M145.18,-866.74C147.04,-866.12 148.9,-865.54 150.75,-865 279.62,-827.49 686.07,-804.16 837.31,-796.58"/>
<polygon fill="none" stroke="#63b8ff" points="144.11,-863.4 135.93,-870.14 146.53,-869.97 144.11,-863.4"/>
</a>
</g>
</g>
<!-- Node4 -->
<g id="Node000004" class="node">
<title>Node4</title>
<g id="a_Node000004"><a xlink:title=" ">
<polygon fill="white" stroke="none" points="264.12,-942.88 159.38,-942.88 159.38,-870.62 264.12,-870.62 264.12,-942.88"/>
<text text-anchor="start" x="163.38" y="-929.38" font-family="Helvetica,sans-Serif" font-size="10.00">fcarouge::kalman_filter</text>
<text text-anchor="start" x="163.38" y="-918.12" font-family="Helvetica,sans-Serif" font-size="10.00">::internal::conditional</text>
<text text-anchor="start" x="181" y="-906.88" font-family="Helvetica,sans-Serif" font-size="10.00">_gain&lt; Filter &gt;</text>
<text text-anchor="start" x="210.25" y="-891.62" font-family="Helvetica,sans-Serif" font-size="10.00"> </text>
<text text-anchor="start" x="210.25" y="-876.38" font-family="Helvetica,sans-Serif" font-size="10.00"> </text>
<polygon fill="#666666" stroke="#666666" points="159.38,-903.12 159.38,-903.12 264.12,-903.12 264.12,-903.12 159.38,-903.12"/>
<polygon fill="#666666" stroke="#666666" points="159.38,-887.88 159.38,-887.88 264.12,-887.88 264.12,-887.88 159.38,-887.88"/>
<polygon fill="none" stroke="#666666" points="159.38,-870.62 159.38,-942.88 264.12,-942.88 264.12,-870.62 159.38,-870.62"/>
</a>
</g>
</g>
<!-- Node4&#45;&gt;Node2 -->
<g id="edge3_Node000002_Node000004" class="edge">
<title>Node4&#45;&gt;Node2</title>
<g id="a_edge3_Node000002_Node000004"><a xlink:title=" ">
<path fill="none" stroke="#63b8ff" d="M270.33,-865.93C271.14,-865.6 271.94,-865.3 272.75,-865 375.82,-827.21 703.5,-804.77 837.16,-796.99"/>
<polygon fill="none" stroke="#63b8ff" points="268.94,-862.71 261.31,-870.06 271.86,-869.07 268.94,-862.71"/>
</a>
</g>
</g>
<!-- Node5 -->
<g id="Node000005" class="node">
<title>Node5</title>
<g id="a_Node000005"><a xlink:title=" ">
<polygon fill="white" stroke="none" points="391.75,-948.5 281.75,-948.5 281.75,-865 391.75,-865 391.75,-948.5"/>
<text text-anchor="start" x="285.75" y="-935" font-family="Helvetica,sans-Serif" font-size="10.00">fcarouge::kalman_filter</text>
<text text-anchor="start" x="285.75" y="-923.75" font-family="Helvetica,sans-Serif" font-size="10.00">::internal::conditional</text>
<text text-anchor="start" x="285.75" y="-912.5" font-family="Helvetica,sans-Serif" font-size="10.00">_innovation_uncertainty</text>
<text text-anchor="start" x="317.62" y="-901.25" font-family="Helvetica,sans-Serif" font-size="10.00">&lt; Filter &gt;</text>
<text text-anchor="start" x="335.25" y="-886" font-family="Helvetica,sans-Serif" font-size="10.00"> </text>
<text text-anchor="start" x="335.25" y="-870.75" font-family="Helvetica,sans-Serif" font-size="10.00"> </text>
<polygon fill="#666666" stroke="#666666" points="281.75,-897.5 281.75,-897.5 391.75,-897.5 391.75,-897.5 281.75,-897.5"/>
<polygon fill="#666666" stroke="#666666" points="281.75,-882.25 281.75,-882.25 391.75,-882.25 391.75,-882.25 281.75,-882.25"/>
<polygon fill="none" stroke="#666666" points="281.75,-865 281.75,-948.5 391.75,-948.5 391.75,-865 281.75,-865"/>
</a>
</g>
</g>
<!-- Node5&#45;&gt;Node2 -->
<g id="edge4_Node000002_Node000005" class="edge">
<title>Node5&#45;&gt;Node2</title>
<g id="a_edge4_Node000002_Node000005"><a xlink:title=" ">
<path fill="none" stroke="#63b8ff" d="M401.85,-865.1C559.65,-808.61 745.16,-796.83 837.28,-794.38"/>
<polygon fill="none" stroke="#63b8ff" points="401.11,-861.64 392.92,-868.37 403.51,-868.22 401.11,-861.64"/>
</a>
</g>
</g>
<!-- Node6 -->
<g id="Node000006" class="node">
<title>Node6</title>
<g id="a_Node000006"><a xlink:title=" ">
<polygon fill="white" stroke="none" points="514.12,-942.88 409.38,-942.88 409.38,-870.62 514.12,-870.62 514.12,-942.88"/>
<text text-anchor="start" x="413.38" y="-929.38" font-family="Helvetica,sans-Serif" font-size="10.00">fcarouge::kalman_filter</text>
<text text-anchor="start" x="413.38" y="-918.12" font-family="Helvetica,sans-Serif" font-size="10.00">::internal::conditional</text>
<text text-anchor="start" x="417.88" y="-906.88" font-family="Helvetica,sans-Serif" font-size="10.00">_innovation&lt; Filter &gt;</text>
<text text-anchor="start" x="460.25" y="-891.62" font-family="Helvetica,sans-Serif" font-size="10.00"> </text>
<text text-anchor="start" x="460.25" y="-876.38" font-family="Helvetica,sans-Serif" font-size="10.00"> </text>
<polygon fill="#666666" stroke="#666666" points="409.38,-903.12 409.38,-903.12 514.12,-903.12 514.12,-903.12 409.38,-903.12"/>
<polygon fill="#666666" stroke="#666666" points="409.38,-887.88 409.38,-887.88 514.12,-887.88 514.12,-887.88 409.38,-887.88"/>
<polygon fill="none" stroke="#666666" points="409.38,-870.62 409.38,-942.88 514.12,-942.88 514.12,-870.62 409.38,-870.62"/>
</a>
</g>
</g>
<!-- Node6&#45;&gt;Node2 -->
<g id="edge5_Node000002_Node000006" class="edge">
<title>Node6&#45;&gt;Node2</title>
<g id="a_edge5_Node000002_Node000006"><a xlink:title=" ">
<path fill="none" stroke="#63b8ff" d="M520.87,-865.79C521.5,-865.52 522.12,-865.26 522.75,-865 628.62,-821.62 762.42,-804.35 837.28,-797.74"/>
<polygon fill="none" stroke="#63b8ff" points="519.61,-862.51 512.13,-870.01 522.66,-868.81 519.61,-862.51"/>
</a>
</g>
</g>
<!-- Node7 -->
<g id="Node000007" class="node">
<title>Node7</title>
<g id="a_Node000007"><a xlink:title=" ">
<polygon fill="white" stroke="none" points="639.25,-942.88 532.25,-942.88 532.25,-870.62 639.25,-870.62 639.25,-942.88"/>
<text text-anchor="start" x="536.25" y="-929.38" font-family="Helvetica,sans-Serif" font-size="10.00">fcarouge::kalman_filter</text>
<text text-anchor="start" x="536.25" y="-918.12" font-family="Helvetica,sans-Serif" font-size="10.00">::internal::conditional</text>
<text text-anchor="start" x="536.25" y="-906.88" font-family="Helvetica,sans-Serif" font-size="10.00">_input_control&lt; Filter &gt;</text>
<text text-anchor="start" x="584.25" y="-891.62" font-family="Helvetica,sans-Serif" font-size="10.00"> </text>
<text text-anchor="start" x="584.25" y="-876.38" font-family="Helvetica,sans-Serif" font-size="10.00"> </text>
<polygon fill="#666666" stroke="#666666" points="532.25,-903.12 532.25,-903.12 639.25,-903.12 639.25,-903.12 532.25,-903.12"/>
<polygon fill="#666666" stroke="#666666" points="532.25,-887.88 532.25,-887.88 639.25,-887.88 639.25,-887.88 532.25,-887.88"/>
<polygon fill="none" stroke="#666666" points="532.25,-870.62 532.25,-942.88 639.25,-942.88 639.25,-870.62 532.25,-870.62"/>
</a>
</g>
</g>
<!-- Node7&#45;&gt;Node2 -->
<g id="edge6_Node000002_Node000007" class="edge">
<title>Node7&#45;&gt;Node2</title>
<g id="a_edge6_Node000002_Node000007"><a xlink:title=" ">
<path fill="none" stroke="#63b8ff" d="M647.33,-865.66C647.8,-865.44 648.28,-865.22 648.75,-865 710.54,-836.83 786.17,-816.95 837.13,-805.5"/>
<polygon fill="none" stroke="#63b8ff" points="646.02,-862.4 638.68,-870.04 649.18,-868.64 646.02,-862.4"/>
</a>
</g>
</g>
<!-- Node8 -->
<g id="Node000008" class="node">
<title>Node8</title>
<g id="a_Node000008"><a xlink:title=" ">
<polygon fill="white" stroke="none" points="762.12,-942.88 657.38,-942.88 657.38,-870.62 762.12,-870.62 762.12,-942.88"/>
<text text-anchor="start" x="661.38" y="-929.38" font-family="Helvetica,sans-Serif" font-size="10.00">fcarouge::kalman_filter</text>
<text text-anchor="start" x="661.38" y="-918.12" font-family="Helvetica,sans-Serif" font-size="10.00">::internal::conditional</text>
<text text-anchor="start" x="677.5" y="-906.88" font-family="Helvetica,sans-Serif" font-size="10.00">_input&lt; Filter &gt;</text>
<text text-anchor="start" x="708.25" y="-891.62" font-family="Helvetica,sans-Serif" font-size="10.00"> </text>
<text text-anchor="start" x="708.25" y="-876.38" font-family="Helvetica,sans-Serif" font-size="10.00"> </text>
<polygon fill="#666666" stroke="#666666" points="657.38,-903.12 657.38,-903.12 762.12,-903.12 762.12,-903.12 657.38,-903.12"/>
<polygon fill="#666666" stroke="#666666" points="657.38,-887.88 657.38,-887.88 762.12,-887.88 762.12,-887.88 657.38,-887.88"/>
<polygon fill="none" stroke="#666666" points="657.38,-870.62 657.38,-942.88 762.12,-942.88 762.12,-870.62 657.38,-870.62"/>
</a>
</g>
</g>
<!-- Node8&#45;&gt;Node2 -->
<g id="edge7_Node000002_Node000008" class="edge">
<title>Node8&#45;&gt;Node2</title>
<g id="a_edge7_Node000002_Node000008"><a xlink:title=" ">
<path fill="none" stroke="#63b8ff" d="M771.59,-865.19C797.9,-849.02 818.77,-836.83 837.4,-826.13"/>
<polygon fill="none" stroke="#63b8ff" points="770,-862.05 763.33,-870.28 773.68,-868.01 770,-862.05"/>
</a>
</g>
</g>
<!-- Node9 -->
<g id="Node000009" class="node">
<title>Node9</title>
<g id="a_Node000009"><a xlink:title=" ">
<polygon fill="white" stroke="none" points="885.12,-942.88 780.38,-942.88 780.38,-870.62 885.12,-870.62 885.12,-942.88"/>
<text text-anchor="start" x="784.38" y="-929.38" font-family="Helvetica,sans-Serif" font-size="10.00">fcarouge::kalman_filter</text>
<text text-anchor="start" x="784.38" y="-918.12" font-family="Helvetica,sans-Serif" font-size="10.00">::internal::conditional</text>
<text text-anchor="start" x="800.12" y="-906.88" font-family="Helvetica,sans-Serif" font-size="10.00">_state&lt; Filter &gt;</text>
<text text-anchor="start" x="831.25" y="-891.62" font-family="Helvetica,sans-Serif" font-size="10.00"> </text>
<text text-anchor="start" x="831.25" y="-876.38" font-family="Helvetica,sans-Serif" font-size="10.00"> </text>
<polygon fill="#666666" stroke="#666666" points="780.38,-903.12 780.38,-903.12 885.12,-903.12 885.12,-903.12 780.38,-903.12"/>
<polygon fill="#666666" stroke="#666666" points="780.38,-887.88 780.38,-887.88 885.12,-887.88 885.12,-887.88 780.38,-887.88"/>
<polygon fill="none" stroke="#666666" points="780.38,-870.62 780.38,-942.88 885.12,-942.88 885.12,-870.62 780.38,-870.62"/>
</a>
</g>
</g>
<!-- Node9&#45;&gt;Node2 -->
<g id="edge8_Node000002_Node000009" class="edge">
<title>Node9&#45;&gt;Node2</title>
<g id="a_edge8_Node000002_Node000009"><a xlink:title=" ">
<path fill="none" stroke="#63b8ff" d="M857.71,-860.7C863.6,-850.09 869.78,-838.93 875.37,-828.84"/>
<polygon fill="none" stroke="#63b8ff" points="854.72,-858.89 852.93,-869.34 860.84,-862.29 854.72,-858.89"/>
</a>
</g>
</g>
<!-- Node10 -->
<g id="Node000010" class="node">
<title>Node10</title>
<g id="a_Node000010"><a xlink:title=" ">
<polygon fill="white" stroke="none" points="1012.75,-942.88 902.75,-942.88 902.75,-870.62 1012.75,-870.62 1012.75,-942.88"/>
<text text-anchor="start" x="906.75" y="-929.38" font-family="Helvetica,sans-Serif" font-size="10.00">fcarouge::kalman_filter</text>
<text text-anchor="start" x="906.75" y="-918.12" font-family="Helvetica,sans-Serif" font-size="10.00">::internal::conditional</text>
<text text-anchor="start" x="906.75" y="-906.88" font-family="Helvetica,sans-Serif" font-size="10.00">_output_model&lt; Filter &gt;</text>
<text text-anchor="start" x="956.25" y="-891.62" font-family="Helvetica,sans-Serif" font-size="10.00"> </text>
<text text-anchor="start" x="956.25" y="-876.38" font-family="Helvetica,sans-Serif" font-size="10.00"> </text>
<polygon fill="#666666" stroke="#666666" points="902.75,-903.12 902.75,-903.12 1012.75,-903.12 1012.75,-903.12 902.75,-903.12"/>
<polygon fill="#666666" stroke="#666666" points="902.75,-887.88 902.75,-887.88 1012.75,-887.88 1012.75,-887.88 902.75,-887.88"/>
<polygon fill="none" stroke="#666666" points="902.75,-870.62 902.75,-942.88 1012.75,-942.88 1012.75,-870.62 902.75,-870.62"/>
</a>
</g>
</g>
<!-- Node10&#45;&gt;Node2 -->
<g id="edge9_Node000002_Node000010" class="edge">
<title>Node10&#45;&gt;Node2</title>
<g id="a_edge9_Node000002_Node000010"><a xlink:title=" ">
<path fill="none" stroke="#63b8ff" d="M932.38,-860.7C926.41,-850.09 920.12,-838.93 914.44,-828.84"/>
<polygon fill="none" stroke="#63b8ff" points="929.29,-862.34 937.25,-869.34 935.39,-858.91 929.29,-862.34"/>
</a>
</g>
</g>
<!-- Node11 -->
<g id="Node000011" class="node">
<title>Node11</title>
<g id="a_Node000011"><a xlink:title=" ">
<polygon fill="white" stroke="none" points="1162.25,-942.88 1031.25,-942.88 1031.25,-870.62 1162.25,-870.62 1162.25,-942.88"/>
<text text-anchor="start" x="1035.25" y="-929.38" font-family="Helvetica,sans-Serif" font-size="10.00">fcarouge::kalman_filter</text>
<text text-anchor="start" x="1035.25" y="-918.12" font-family="Helvetica,sans-Serif" font-size="10.00">::internal::conditional</text>
<text text-anchor="start" x="1035.25" y="-906.88" font-family="Helvetica,sans-Serif" font-size="10.00">_output_uncertainty&lt; Filter &gt;</text>
<text text-anchor="start" x="1095.25" y="-891.62" font-family="Helvetica,sans-Serif" font-size="10.00"> </text>
<text text-anchor="start" x="1095.25" y="-876.38" font-family="Helvetica,sans-Serif" font-size="10.00"> </text>
<polygon fill="#666666" stroke="#666666" points="1031.25,-903.12 1031.25,-903.12 1162.25,-903.12 1162.25,-903.12 1031.25,-903.12"/>
<polygon fill="#666666" stroke="#666666" points="1031.25,-887.88 1031.25,-887.88 1162.25,-887.88 1162.25,-887.88 1031.25,-887.88"/>
<polygon fill="none" stroke="#666666" points="1031.25,-870.62 1031.25,-942.88 1162.25,-942.88 1162.25,-870.62 1031.25,-870.62"/>
</a>
</g>
</g>
<!-- Node11&#45;&gt;Node2 -->
<g id="edge10_Node000002_Node000011" class="edge">
<title>Node11&#45;&gt;Node2</title>
<g id="a_edge10_Node000002_Node000011"><a xlink:title=" ">
<path fill="none" stroke="#63b8ff" d="M1023.46,-865.16C999.95,-852.14 974.26,-837.91 952.06,-825.62"/>
<polygon fill="none" stroke="#63b8ff" points="1021.62,-868.14 1032.07,-869.93 1025.01,-862.02 1021.62,-868.14"/>
</a>
</g>
</g>
<!-- Node12 -->
<g id="Node000012" class="node">
<title>Node12</title>
<g id="a_Node000012"><a xlink:title=" ">
<polygon fill="white" stroke="none" points="1285.12,-942.88 1180.38,-942.88 1180.38,-870.62 1285.12,-870.62 1285.12,-942.88"/>
<text text-anchor="start" x="1184.38" y="-929.38" font-family="Helvetica,sans-Serif" font-size="10.00">fcarouge::kalman_filter</text>
<text text-anchor="start" x="1184.38" y="-918.12" font-family="Helvetica,sans-Serif" font-size="10.00">::internal::conditional</text>
<text text-anchor="start" x="1197.5" y="-906.88" font-family="Helvetica,sans-Serif" font-size="10.00">_output&lt; Filter &gt;</text>
<text text-anchor="start" x="1231.25" y="-891.62" font-family="Helvetica,sans-Serif" font-size="10.00"> </text>
<text text-anchor="start" x="1231.25" y="-876.38" font-family="Helvetica,sans-Serif" font-size="10.00"> </text>
<polygon fill="#666666" stroke="#666666" points="1180.38,-903.12 1180.38,-903.12 1285.12,-903.12 1285.12,-903.12 1180.38,-903.12"/>
<polygon fill="#666666" stroke="#666666" points="1180.38,-887.88 1180.38,-887.88 1285.12,-887.88 1285.12,-887.88 1180.38,-887.88"/>
<polygon fill="none" stroke="#666666" points="1180.38,-870.62 1180.38,-942.88 1285.12,-942.88 1285.12,-870.62 1180.38,-870.62"/>
</a>
</g>
</g>
<!-- Node12&#45;&gt;Node2 -->
<g id="edge11_Node000002_Node000012" class="edge">
<title>Node12&#45;&gt;Node2</title>
<g id="a_edge11_Node000002_Node000012"><a xlink:title=" ">
<path fill="none" stroke="#63b8ff" d="M1173.19,-865.65C1172.71,-865.43 1172.23,-865.21 1171.75,-865 1099.45,-832.7 1009.71,-813.04 952.33,-802.81"/>
<polygon fill="none" stroke="#63b8ff" points="1171.41,-868.68 1181.91,-870.08 1174.58,-862.43 1171.41,-868.68"/>
</a>
</g>
</g>
<!-- Node13 -->
<g id="Node000013" class="node">
<title>Node13</title>
<g id="a_Node000013"><a xlink:title=" ">
<polygon fill="white" stroke="none" points="1424.75,-942.88 1302.75,-942.88 1302.75,-870.62 1424.75,-870.62 1424.75,-942.88"/>
<text text-anchor="start" x="1306.75" y="-929.38" font-family="Helvetica,sans-Serif" font-size="10.00">fcarouge::kalman_filter</text>
<text text-anchor="start" x="1306.75" y="-918.12" font-family="Helvetica,sans-Serif" font-size="10.00">::internal::conditional</text>
<text text-anchor="start" x="1306.75" y="-906.88" font-family="Helvetica,sans-Serif" font-size="10.00">_prediction_types&lt; Filter &gt;</text>
<text text-anchor="start" x="1362.25" y="-891.62" font-family="Helvetica,sans-Serif" font-size="10.00"> </text>
<text text-anchor="start" x="1362.25" y="-876.38" font-family="Helvetica,sans-Serif" font-size="10.00"> </text>
<polygon fill="#666666" stroke="#666666" points="1302.75,-903.12 1302.75,-903.12 1424.75,-903.12 1424.75,-903.12 1302.75,-903.12"/>
<polygon fill="#666666" stroke="#666666" points="1302.75,-887.88 1302.75,-887.88 1424.75,-887.88 1424.75,-887.88 1302.75,-887.88"/>
<polygon fill="none" stroke="#666666" points="1302.75,-870.62 1302.75,-942.88 1424.75,-942.88 1424.75,-870.62 1302.75,-870.62"/>
</a>
</g>
</g>
<!-- Node13&#45;&gt;Node2 -->
<g id="edge12_Node000002_Node000013" class="edge">
<title>Node13&#45;&gt;Node2</title>
<g id="a_edge12_Node000002_Node000013"><a xlink:title=" ">
<path fill="none" stroke="#63b8ff" d="M1296.7,-866.12C1295.72,-865.73 1294.73,-865.36 1293.75,-865 1177,-822.15 1031.27,-804.56 952.22,-797.78"/>
<polygon fill="none" stroke="#63b8ff" points="1295.29,-869.33 1305.86,-870.08 1298.07,-862.9 1295.29,-869.33"/>
</a>
</g>
</g>
<!-- Node14 -->
<g id="Node000014" class="node">
<title>Node14</title>
<g id="a_Node000014"><a xlink:title=" ">
<polygon fill="white" stroke="none" points="1581,-942.88 1442.5,-942.88 1442.5,-870.62 1581,-870.62 1581,-942.88"/>
<text text-anchor="start" x="1446.5" y="-929.38" font-family="Helvetica,sans-Serif" font-size="10.00">fcarouge::kalman_filter</text>
<text text-anchor="start" x="1446.5" y="-918.12" font-family="Helvetica,sans-Serif" font-size="10.00">::internal::conditional</text>
<text text-anchor="start" x="1446.5" y="-906.88" font-family="Helvetica,sans-Serif" font-size="10.00">_process_uncertainty&lt; Filter &gt;</text>
<text text-anchor="start" x="1510.25" y="-891.62" font-family="Helvetica,sans-Serif" font-size="10.00"> </text>
<text text-anchor="start" x="1510.25" y="-876.38" font-family="Helvetica,sans-Serif" font-size="10.00"> </text>
<polygon fill="#666666" stroke="#666666" points="1442.5,-903.12 1442.5,-903.12 1581,-903.12 1581,-903.12 1442.5,-903.12"/>
<polygon fill="#666666" stroke="#666666" points="1442.5,-887.88 1442.5,-887.88 1581,-887.88 1581,-887.88 1442.5,-887.88"/>
<polygon fill="none" stroke="#666666" points="1442.5,-870.62 1442.5,-942.88 1581,-942.88 1581,-870.62 1442.5,-870.62"/>
</a>
</g>
</g>
<!-- Node14&#45;&gt;Node2 -->
<g id="edge13_Node000002_Node000014" class="edge">
<title>Node14&#45;&gt;Node2</title>
<g id="a_edge13_Node000002_Node000014"><a xlink:title=" ">
<path fill="none" stroke="#63b8ff" d="M1438.55,-866.6C1436.94,-866.04 1435.34,-865.5 1433.75,-865 1264.11,-811.35 1052.06,-798.14 952.03,-794.91"/>
<polygon fill="none" stroke="#63b8ff" points="1437.12,-869.8 1447.71,-870.14 1439.64,-863.27 1437.12,-869.8"/>
</a>
</g>
</g>
<!-- Node15 -->
<g id="Node000015" class="node">
<title>Node15</title>
<g id="a_Node000015"><a xlink:title=" ">
<polygon fill="white" stroke="none" points="1716.88,-942.88 1598.62,-942.88 1598.62,-870.62 1716.88,-870.62 1716.88,-942.88"/>
<text text-anchor="start" x="1602.62" y="-929.38" font-family="Helvetica,sans-Serif" font-size="10.00">fcarouge::kalman_filter</text>
<text text-anchor="start" x="1602.62" y="-918.12" font-family="Helvetica,sans-Serif" font-size="10.00">::internal::conditional</text>
<text text-anchor="start" x="1602.62" y="-906.88" font-family="Helvetica,sans-Serif" font-size="10.00">_state_transition&lt; Filter &gt;</text>
<text text-anchor="start" x="1656.25" y="-891.62" font-family="Helvetica,sans-Serif" font-size="10.00"> </text>
<text text-anchor="start" x="1656.25" y="-876.38" font-family="Helvetica,sans-Serif" font-size="10.00"> </text>
<polygon fill="#666666" stroke="#666666" points="1598.62,-903.12 1598.62,-903.12 1716.88,-903.12 1716.88,-903.12 1598.62,-903.12"/>
<polygon fill="#666666" stroke="#666666" points="1598.62,-887.88 1598.62,-887.88 1716.88,-887.88 1716.88,-887.88 1598.62,-887.88"/>
<polygon fill="none" stroke="#666666" points="1598.62,-870.62 1598.62,-942.88 1716.88,-942.88 1716.88,-870.62 1598.62,-870.62"/>
</a>
</g>
</g>
<!-- Node15&#45;&gt;Node2 -->
<g id="edge14_Node000002_Node000015" class="edge">
<title>Node15&#45;&gt;Node2</title>
<g id="a_edge14_Node000002_Node000015"><a xlink:title=" ">
<path fill="none" stroke="#63b8ff" d="M1593.28,-866.24C1592.1,-865.8 1590.93,-865.39 1589.75,-865 1471.7,-825.76 1096.62,-803.74 952.2,-796.54"/>
<polygon fill="none" stroke="#63b8ff" points="1591.85,-869.44 1602.43,-870.07 1594.55,-862.98 1591.85,-869.44"/>
</a>
</g>
</g>
<!-- Node16 -->
<g id="Node000016" class="node">
<title>Node16</title>
<g id="a_Node000016"><a xlink:title=" ">
<polygon fill="white" stroke="none" points="1844.38,-942.88 1735.12,-942.88 1735.12,-870.62 1844.38,-870.62 1844.38,-942.88"/>
<text text-anchor="start" x="1739.12" y="-929.38" font-family="Helvetica,sans-Serif" font-size="10.00">fcarouge::kalman_filter</text>
<text text-anchor="start" x="1739.12" y="-918.12" font-family="Helvetica,sans-Serif" font-size="10.00">::internal::conditional</text>
<text text-anchor="start" x="1739.12" y="-906.88" font-family="Helvetica,sans-Serif" font-size="10.00">_update_types&lt; Filter &gt;</text>
<text text-anchor="start" x="1788.25" y="-891.62" font-family="Helvetica,sans-Serif" font-size="10.00"> </text>
<text text-anchor="start" x="1788.25" y="-876.38" font-family="Helvetica,sans-Serif" font-size="10.00"> </text>
<polygon fill="#666666" stroke="#666666" points="1735.12,-903.12 1735.12,-903.12 1844.38,-903.12 1844.38,-903.12 1735.12,-903.12"/>
<polygon fill="#666666" stroke="#666666" points="1735.12,-887.88 1735.12,-887.88 1844.38,-887.88 1844.38,-887.88 1735.12,-887.88"/>
<polygon fill="none" stroke="#666666" points="1735.12,-870.62 1735.12,-942.88 1844.38,-942.88 1844.38,-870.62 1735.12,-870.62"/>
</a>
</g>
</g>
<!-- Node16&#45;&gt;Node2 -->
<g id="edge15_Node000002_Node000016" class="edge">
<title>Node16&#45;&gt;Node2</title>
<g id="a_edge15_Node000002_Node000016"><a xlink:title=" ">
<path fill="none" stroke="#63b8ff" d="M1729.21,-866.24C1728.06,-865.81 1726.9,-865.39 1725.75,-865 1581.9,-816.34 1115.91,-799.67 952.23,-795.24"/>
<polygon fill="none" stroke="#63b8ff" points="1727.56,-869.34 1738.12,-870.13 1730.36,-862.92 1727.56,-869.34"/>
</a>
</g>
</g>
</g>
</svg>

<g id="navigator" transform="translate(0 0)" fill="#404254">
  <rect fill="#f2f5e9" fill-opacity="0.5" stroke="#606060" stroke-width=".5" x="0" y="0" width="60" height="60"/>
  <use id="zoomplus" xlink:href="#zoomPlus" x="17" y="9" onmousedown="handleZoom(evt,'in')"/>
  <use id="zoomminus" xlink:href="#zoomMin" x="42" y="9" onmousedown="handleZoom(evt,'out')"/>
  <use id="reset" xlink:href="#resetDef" x="30" y="36" onmousedown="handleReset()"/>
   <use id="arrowup" xlink:href="#arrowUp" x="0" y="0" onmousedown="handlePan(0,-1)"/>
  <use id="arrowright" xlink:href="#arrowRight" x="0" y="0" onmousedown="handlePan(1,0)"/>
  <use id="arrowdown" xlink:href="#arrowDown" x="0" y="0" onmousedown="handlePan(0,1)"/>
  <use id="arrowleft" xlink:href="#arrowLeft" x="0" y="0" onmousedown="handlePan(-1,0)"/>
</g>
<svg viewBox="0 0 15 15" width="100%" height="30px" preserveAspectRatio="xMaxYMin meet">
 <g id="arrow_out" transform="scale(0.3 0.3)">
  <a xlink:href="classfcarouge_1_1kalman__inherit__graph_org.svg" target="_base">
   <rect id="button" ry="5" rx="5" y="6" x="6" height="38" width="38"
        fill="#f2f5e9" fill-opacity="0.5" stroke="#606060" stroke-width="1.0"/>
   <path id="arrow"
     d="M 11.500037,31.436501 C 11.940474,20.09759 22.043105,11.32322 32.158766,21.979434 L 37.068811,17.246167 C 37.068811,17.246167 37.088388,32 37.088388,32 L 22.160133,31.978069 C 22.160133,31.978069 26.997745,27.140456 26.997745,27.140456 C 18.528582,18.264221 13.291696,25.230495 11.500037,31.436501 z"
     style="fill:#404040;"/>
  </a>
 </g>
</svg>

<style type='text/css'>
<![CDATA[
[data-mouse-over-selected='false'] { opacity: 0.7; }
[data-mouse-over-selected='true']  { opacity: 1.0; }
]]>
</style>
<script type="application/ecmascript"><![CDATA[
document.addEventListener('DOMContentLoaded', (event) => {
  highlightEdges();
  highlightAdjacentNodes();
});
]]></script>
</svg>
