<?xml version="1.0" encoding="UTF-8" standalone="no"?>
<!DOCTYPE svg PUBLIC "-//W3C//DTD SVG 1.1//EN"
 "http://www.w3.org/Graphics/SVG/1.1/DTD/svg11.dtd">
<!-- Generated by graphviz version 12.2.0 (20241103.1931)
 -->
<!-- Title: fcarouge::kalman&lt; typename &gt; Pages: 1 -->
<svg width="1167pt" height="1037pt"
 viewBox="0.00 0.00 1166.88 1036.75" xmlns="http://www.w3.org/2000/svg" xmlns:xlink="http://www.w3.org/1999/xlink">
<g id="graph0" class="graph" transform="scale(1 1) rotate(0) translate(4 1032.75)">
<title>fcarouge::kalman&lt; typename &gt;</title>
<!-- Node1 -->
<g id="Node000001" class="node">
<title>Node1</title>
<g id="a_Node000001"><a xlink:title="A generic Kalman filter.">
<polygon fill="#999999" stroke="none" points="635.88,-812.25 495.88,-812.25 495.88,0 635.88,0 635.88,-812.25"/>
<text text-anchor="start" x="499.88" y="-798.75" font-family="Helvetica,sans-Serif" font-size="10.00">fcarouge::kalman&lt; typename &gt;</text>
<text text-anchor="start" x="507.69" y="-783.5" font-family="Helvetica,sans-Serif" font-size="10.00">&#45;</text>
<text text-anchor="start" x="522.5" y="-783.5" font-family="Helvetica,sans-Serif" font-size="10.00">filter</text>
<text text-anchor="start" x="506.19" y="-768.25" font-family="Helvetica,sans-Serif" font-size="10.00">+</text>
<text text-anchor="start" x="522.5" y="-768.25" font-family="Helvetica,sans-Serif" font-size="10.00">kalman()</text>
<text text-anchor="start" x="506.19" y="-753" font-family="Helvetica,sans-Serif" font-size="10.00">+</text>
<text text-anchor="start" x="522.5" y="-753" font-family="Helvetica,sans-Serif" font-size="10.00">kalman()</text>
<text text-anchor="start" x="506.19" y="-737.75" font-family="Helvetica,sans-Serif" font-size="10.00">+</text>
<text text-anchor="start" x="522.5" y="-737.75" font-family="Helvetica,sans-Serif" font-size="10.00">kalman()</text>
<text text-anchor="start" x="506.19" y="-722.5" font-family="Helvetica,sans-Serif" font-size="10.00">+</text>
<text text-anchor="start" x="522.5" y="-722.5" font-family="Helvetica,sans-Serif" font-size="10.00">operator=()</text>
<text text-anchor="start" x="506.19" y="-707.25" font-family="Helvetica,sans-Serif" font-size="10.00">+</text>
<text text-anchor="start" x="522.5" y="-707.25" font-family="Helvetica,sans-Serif" font-size="10.00">operator=()</text>
<text text-anchor="start" x="506.19" y="-692" font-family="Helvetica,sans-Serif" font-size="10.00">+</text>
<text text-anchor="start" x="522.5" y="-692" font-family="Helvetica,sans-Serif" font-size="10.00">~kalman()</text>
<text text-anchor="start" x="506.19" y="-676.75" font-family="Helvetica,sans-Serif" font-size="10.00">+</text>
<text text-anchor="start" x="522.5" y="-676.75" font-family="Helvetica,sans-Serif" font-size="10.00">x()</text>
<text text-anchor="start" x="506.19" y="-661.5" font-family="Helvetica,sans-Serif" font-size="10.00">+</text>
<text text-anchor="start" x="522.5" y="-661.5" font-family="Helvetica,sans-Serif" font-size="10.00">z()</text>
<text text-anchor="start" x="506.19" y="-646.25" font-family="Helvetica,sans-Serif" font-size="10.00">+</text>
<text text-anchor="start" x="522.5" y="-646.25" font-family="Helvetica,sans-Serif" font-size="10.00">u()</text>
<text text-anchor="start" x="506.19" y="-631" font-family="Helvetica,sans-Serif" font-size="10.00">+</text>
<text text-anchor="start" x="522.5" y="-631" font-family="Helvetica,sans-Serif" font-size="10.00">p()</text>
<text text-anchor="start" x="506.19" y="-615.75" font-family="Helvetica,sans-Serif" font-size="10.00">+</text>
<text text-anchor="start" x="522.5" y="-615.75" font-family="Helvetica,sans-Serif" font-size="10.00">q()</text>
<text text-anchor="start" x="506.19" y="-600.5" font-family="Helvetica,sans-Serif" font-size="10.00">+</text>
<text text-anchor="start" x="522.5" y="-600.5" font-family="Helvetica,sans-Serif" font-size="10.00">r()</text>
<text text-anchor="start" x="506.19" y="-585.25" font-family="Helvetica,sans-Serif" font-size="10.00">+</text>
<text text-anchor="start" x="522.5" y="-585.25" font-family="Helvetica,sans-Serif" font-size="10.00">f()</text>
<text text-anchor="start" x="506.19" y="-570" font-family="Helvetica,sans-Serif" font-size="10.00">+</text>
<text text-anchor="start" x="522.5" y="-570" font-family="Helvetica,sans-Serif" font-size="10.00">h()</text>
<text text-anchor="start" x="506.19" y="-554.75" font-family="Helvetica,sans-Serif" font-size="10.00">+</text>
<text text-anchor="start" x="522.5" y="-554.75" font-family="Helvetica,sans-Serif" font-size="10.00">g()</text>
<text text-anchor="start" x="506.19" y="-539.5" font-family="Helvetica,sans-Serif" font-size="10.00">+</text>
<text text-anchor="start" x="522.5" y="-539.5" font-family="Helvetica,sans-Serif" font-size="10.00">k()</text>
<text text-anchor="start" x="506.19" y="-524.25" font-family="Helvetica,sans-Serif" font-size="10.00">+</text>
<text text-anchor="start" x="522.5" y="-524.25" font-family="Helvetica,sans-Serif" font-size="10.00">y()</text>
<text text-anchor="start" x="506.19" y="-509" font-family="Helvetica,sans-Serif" font-size="10.00">+</text>
<text text-anchor="start" x="522.5" y="-509" font-family="Helvetica,sans-Serif" font-size="10.00">s()</text>
<text text-anchor="start" x="506.19" y="-493.75" font-family="Helvetica,sans-Serif" font-size="10.00">+</text>
<text text-anchor="start" x="522.5" y="-493.75" font-family="Helvetica,sans-Serif" font-size="10.00">predict()</text>
<text text-anchor="start" x="506.19" y="-478.5" font-family="Helvetica,sans-Serif" font-size="10.00">+</text>
<text text-anchor="start" x="522.5" y="-478.5" font-family="Helvetica,sans-Serif" font-size="10.00">predict()</text>
<text text-anchor="start" x="506.19" y="-463.25" font-family="Helvetica,sans-Serif" font-size="10.00">+</text>
<text text-anchor="start" x="522.5" y="-463.25" font-family="Helvetica,sans-Serif" font-size="10.00">update()</text>
<text text-anchor="start" x="506.19" y="-448" font-family="Helvetica,sans-Serif" font-size="10.00">+</text>
<text text-anchor="start" x="522.5" y="-448" font-family="Helvetica,sans-Serif" font-size="10.00">update()</text>
<text text-anchor="start" x="507.31" y="-432.75" font-family="Helvetica,sans-Serif" font-size="10.00">*</text>
<text text-anchor="start" x="522.5" y="-432.75" font-family="Helvetica,sans-Serif" font-size="10.00">state</text>
<text text-anchor="start" x="507.31" y="-417.5" font-family="Helvetica,sans-Serif" font-size="10.00">*</text>
<text text-anchor="start" x="522.5" y="-417.5" font-family="Helvetica,sans-Serif" font-size="10.00">output</text>
<text text-anchor="start" x="507.31" y="-402.25" font-family="Helvetica,sans-Serif" font-size="10.00">*</text>
<text text-anchor="start" x="522.5" y="-402.25" font-family="Helvetica,sans-Serif" font-size="10.00">estimate_uncertainty</text>
<text text-anchor="start" x="507.31" y="-387" font-family="Helvetica,sans-Serif" font-size="10.00">*</text>
<text text-anchor="start" x="522.5" y="-387" font-family="Helvetica,sans-Serif" font-size="10.00">gain</text>
<text text-anchor="start" x="507.31" y="-371.75" font-family="Helvetica,sans-Serif" font-size="10.00">*</text>
<text text-anchor="start" x="522.5" y="-371.75" font-family="Helvetica,sans-Serif" font-size="10.00">innovation</text>
<text text-anchor="start" x="507.31" y="-356.5" font-family="Helvetica,sans-Serif" font-size="10.00">*</text>
<text text-anchor="start" x="522.5" y="-356.5" font-family="Helvetica,sans-Serif" font-size="10.00">innovation_uncertainty</text>
<text text-anchor="start" x="507.31" y="-341.25" font-family="Helvetica,sans-Serif" font-size="10.00">*</text>
<text text-anchor="start" x="522.5" y="-341.25" font-family="Helvetica,sans-Serif" font-size="10.00">filter</text>
<text text-anchor="start" x="507.31" y="-326" font-family="Helvetica,sans-Serif" font-size="10.00">*</text>
<text text-anchor="start" x="522.5" y="-326" font-family="Helvetica,sans-Serif" font-size="10.00">kalman()</text>
<text text-anchor="start" x="507.31" y="-310.75" font-family="Helvetica,sans-Serif" font-size="10.00">*</text>
<text text-anchor="start" x="522.5" y="-310.75" font-family="Helvetica,sans-Serif" font-size="10.00">kalman()</text>
<text text-anchor="start" x="507.31" y="-295.5" font-family="Helvetica,sans-Serif" font-size="10.00">*</text>
<text text-anchor="start" x="522.5" y="-295.5" font-family="Helvetica,sans-Serif" font-size="10.00">kalman()</text>
<text text-anchor="start" x="507.31" y="-280.25" font-family="Helvetica,sans-Serif" font-size="10.00">*</text>
<text text-anchor="start" x="522.5" y="-280.25" font-family="Helvetica,sans-Serif" font-size="10.00">operator=()</text>
<text text-anchor="start" x="507.31" y="-265" font-family="Helvetica,sans-Serif" font-size="10.00">*</text>
<text text-anchor="start" x="522.5" y="-265" font-family="Helvetica,sans-Serif" font-size="10.00">operator=()</text>
<text text-anchor="start" x="507.31" y="-249.75" font-family="Helvetica,sans-Serif" font-size="10.00">*</text>
<text text-anchor="start" x="522.5" y="-249.75" font-family="Helvetica,sans-Serif" font-size="10.00">~kalman()</text>
<text text-anchor="start" x="507.31" y="-234.5" font-family="Helvetica,sans-Serif" font-size="10.00">*</text>
<text text-anchor="start" x="522.5" y="-234.5" font-family="Helvetica,sans-Serif" font-size="10.00">x()</text>
<text text-anchor="start" x="507.31" y="-219.25" font-family="Helvetica,sans-Serif" font-size="10.00">*</text>
<text text-anchor="start" x="522.5" y="-219.25" font-family="Helvetica,sans-Serif" font-size="10.00">z()</text>
<text text-anchor="start" x="507.31" y="-204" font-family="Helvetica,sans-Serif" font-size="10.00">*</text>
<text text-anchor="start" x="522.5" y="-204" font-family="Helvetica,sans-Serif" font-size="10.00">u()</text>
<text text-anchor="start" x="507.31" y="-188.75" font-family="Helvetica,sans-Serif" font-size="10.00">*</text>
<text text-anchor="start" x="522.5" y="-188.75" font-family="Helvetica,sans-Serif" font-size="10.00">p()</text>
<text text-anchor="start" x="507.31" y="-173.5" font-family="Helvetica,sans-Serif" font-size="10.00">*</text>
<text text-anchor="start" x="522.5" y="-173.5" font-family="Helvetica,sans-Serif" font-size="10.00">q()</text>
<text text-anchor="start" x="507.31" y="-158.25" font-family="Helvetica,sans-Serif" font-size="10.00">*</text>
<text text-anchor="start" x="522.5" y="-158.25" font-family="Helvetica,sans-Serif" font-size="10.00">r()</text>
<text text-anchor="start" x="507.31" y="-143" font-family="Helvetica,sans-Serif" font-size="10.00">*</text>
<text text-anchor="start" x="522.5" y="-143" font-family="Helvetica,sans-Serif" font-size="10.00">f()</text>
<text text-anchor="start" x="507.31" y="-127.75" font-family="Helvetica,sans-Serif" font-size="10.00">*</text>
<text text-anchor="start" x="522.5" y="-127.75" font-family="Helvetica,sans-Serif" font-size="10.00">h()</text>
<text text-anchor="start" x="507.31" y="-112.5" font-family="Helvetica,sans-Serif" font-size="10.00">*</text>
<text text-anchor="start" x="522.5" y="-112.5" font-family="Helvetica,sans-Serif" font-size="10.00">g()</text>
<text text-anchor="start" x="507.31" y="-97.25" font-family="Helvetica,sans-Serif" font-size="10.00">*</text>
<text text-anchor="start" x="522.5" y="-97.25" font-family="Helvetica,sans-Serif" font-size="10.00">k()</text>
<text text-anchor="start" x="507.31" y="-82" font-family="Helvetica,sans-Serif" font-size="10.00">*</text>
<text text-anchor="start" x="522.5" y="-82" font-family="Helvetica,sans-Serif" font-size="10.00">y()</text>
<text text-anchor="start" x="507.31" y="-66.75" font-family="Helvetica,sans-Serif" font-size="10.00">*</text>
<text text-anchor="start" x="522.5" y="-66.75" font-family="Helvetica,sans-Serif" font-size="10.00">s()</text>
<text text-anchor="start" x="507.31" y="-51.5" font-family="Helvetica,sans-Serif" font-size="10.00">*</text>
<text text-anchor="start" x="522.5" y="-51.5" font-family="Helvetica,sans-Serif" font-size="10.00">predict()</text>
<text text-anchor="start" x="507.31" y="-36.25" font-family="Helvetica,sans-Serif" font-size="10.00">*</text>
<text text-anchor="start" x="522.5" y="-36.25" font-family="Helvetica,sans-Serif" font-size="10.00">predict()</text>
<text text-anchor="start" x="507.31" y="-21" font-family="Helvetica,sans-Serif" font-size="10.00">*</text>
<text text-anchor="start" x="522.5" y="-21" font-family="Helvetica,sans-Serif" font-size="10.00">update()</text>
<text text-anchor="start" x="507.31" y="-5.75" font-family="Helvetica,sans-Serif" font-size="10.00">*</text>
<text text-anchor="start" x="522.5" y="-5.75" font-family="Helvetica,sans-Serif" font-size="10.00">update()</text>
<polygon fill="#666666" stroke="#666666" points="495.88,-795 495.88,-795 635.88,-795 635.88,-795 495.88,-795"/>
<polygon fill="#666666" stroke="#666666" points="495.88,-779.75 495.88,-779.75 520.5,-779.75 520.5,-779.75 495.88,-779.75"/>
<polygon fill="#666666" stroke="#666666" points="520.5,-779.75 520.5,-779.75 635.88,-779.75 635.88,-779.75 520.5,-779.75"/>
<polygon fill="none" stroke="#666666" points="495.88,0 495.88,-812.25 635.88,-812.25 635.88,0 495.88,0"/>
</a>
</g>
</g>
<!-- Node2 -->
<g id="Node000002" class="node">
<title>Node2</title>
<g id="a_Node000002"><a xlink:title=" ">
<polygon fill="white" stroke="none" points="629.88,-920.5 501.88,-920.5 501.88,-848.25 629.88,-848.25 629.88,-920.5"/>
<text text-anchor="start" x="505.88" y="-907" font-family="Helvetica,sans-Serif" font-size="10.00">fcarouge::kalman_internal</text>
<text text-anchor="start" x="505.88" y="-895.75" font-family="Helvetica,sans-Serif" font-size="10.00">::conditional_member_types</text>
<text text-anchor="start" x="546.75" y="-884.5" font-family="Helvetica,sans-Serif" font-size="10.00">&lt; Filter &gt;</text>
<text text-anchor="start" x="564.38" y="-869.25" font-family="Helvetica,sans-Serif" font-size="10.00"> </text>
<text text-anchor="start" x="564.38" y="-854" font-family="Helvetica,sans-Serif" font-size="10.00"> </text>
<polygon fill="#666666" stroke="#666666" points="501.88,-880.75 501.88,-880.75 629.88,-880.75 629.88,-880.75 501.88,-880.75"/>
<polygon fill="#666666" stroke="#666666" points="501.88,-865.5 501.88,-865.5 629.88,-865.5 629.88,-865.5 501.88,-865.5"/>
<polygon fill="none" stroke="#666666" points="501.88,-848.25 501.88,-920.5 629.88,-920.5 629.88,-848.25 501.88,-848.25"/>
</a>
</g>
</g>
<!-- Node2&#45;&gt;Node1 -->
<g id="edge1_Node000001_Node000002" class="edge">
<title>Node2&#45;&gt;Node1</title>
<g id="a_edge1_Node000001_Node000002"><a xlink:title=" ">
<path fill="none" stroke="#63b8ff" d="M565.88,-837.05C565.88,-829.44 565.88,-821.06 565.88,-812.04"/>
<polygon fill="none" stroke="#63b8ff" points="562.38,-836.84 565.88,-846.84 569.38,-836.84 562.38,-836.84"/>
</a>
</g>
</g>
<!-- Node3 -->
<g id="Node000003" class="node">
<title>Node3</title>
<g id="a_Node000003"><a xlink:title=" ">
<polygon fill="white" stroke="none" points="119.75,-1028.75 0,-1028.75 0,-956.5 119.75,-956.5 119.75,-1028.75"/>
<text text-anchor="start" x="4" y="-1015.25" font-family="Helvetica,sans-Serif" font-size="10.00">fcarouge::kalman_internal</text>
<text text-anchor="start" x="4" y="-1004" font-family="Helvetica,sans-Serif" font-size="10.00">::conditional_input_control</text>
<text text-anchor="start" x="40.75" y="-992.75" font-family="Helvetica,sans-Serif" font-size="10.00">&lt; Filter &gt;</text>
<text text-anchor="start" x="58.38" y="-977.5" font-family="Helvetica,sans-Serif" font-size="10.00"> </text>
<text text-anchor="start" x="58.38" y="-962.25" font-family="Helvetica,sans-Serif" font-size="10.00"> </text>
<polygon fill="#666666" stroke="#666666" points="0,-989 0,-989 119.75,-989 119.75,-989 0,-989"/>
<polygon fill="#666666" stroke="#666666" points="0,-973.75 0,-973.75 119.75,-973.75 119.75,-973.75 0,-973.75"/>
<polygon fill="none" stroke="#666666" points="0,-956.5 0,-1028.75 119.75,-1028.75 119.75,-956.5 0,-956.5"/>
</a>
</g>
</g>
<!-- Node3&#45;&gt;Node2 -->
<g id="edge2_Node000002_Node000003" class="edge">
<title>Node3&#45;&gt;Node2</title>
<g id="a_edge2_Node000002_Node000003"><a xlink:title=" ">
<path fill="none" stroke="#63b8ff" d="M130.56,-956.31C265.76,-913.51 418.07,-896.41 502.19,-889.55"/>
<polygon fill="none" stroke="#63b8ff" points="129.5,-952.97 121.05,-959.37 131.65,-959.63 129.5,-952.97"/>
</a>
</g>
</g>
<!-- Node4 -->
<g id="Node000004" class="node">
<title>Node4</title>
<g id="a_Node000004"><a xlink:title=" ">
<polygon fill="white" stroke="none" points="261.62,-1023.12 138.12,-1023.12 138.12,-962.12 261.62,-962.12 261.62,-1023.12"/>
<text text-anchor="start" x="142.12" y="-1009.62" font-family="Helvetica,sans-Serif" font-size="10.00">fcarouge::kalman_internal</text>
<text text-anchor="start" x="142.12" y="-998.38" font-family="Helvetica,sans-Serif" font-size="10.00">::conditional_input&lt; Filter &gt;</text>
<text text-anchor="start" x="198.38" y="-983.12" font-family="Helvetica,sans-Serif" font-size="10.00"> </text>
<text text-anchor="start" x="198.38" y="-967.88" font-family="Helvetica,sans-Serif" font-size="10.00"> </text>
<polygon fill="#666666" stroke="#666666" points="138.12,-994.62 138.12,-994.62 261.62,-994.62 261.62,-994.62 138.12,-994.62"/>
<polygon fill="#666666" stroke="#666666" points="138.12,-979.38 138.12,-979.38 261.62,-979.38 261.62,-979.38 138.12,-979.38"/>
<polygon fill="none" stroke="#666666" points="138.12,-962.12 138.12,-1023.12 261.62,-1023.12 261.62,-962.12 138.12,-962.12"/>
</a>
</g>
</g>
<!-- Node4&#45;&gt;Node2 -->
<g id="edge3_Node000002_Node000004" class="edge">
<title>Node4&#45;&gt;Node2</title>
<g id="a_edge3_Node000002_Node000004"><a xlink:title=" ">
<path fill="none" stroke="#63b8ff" d="M267.37,-957.81C268.54,-957.36 269.71,-956.92 270.88,-956.5 348.38,-928.38 441.37,-908.06 501.95,-896.51"/>
<polygon fill="none" stroke="#63b8ff" points="266.09,-954.55 258.15,-961.56 268.73,-961.03 266.09,-954.55"/>
</a>
</g>
</g>
<!-- Node5 -->
<g id="Node000005" class="node">
<title>Node5</title>
<g id="a_Node000005"><a xlink:title=" ">
<polygon fill="white" stroke="none" points="402.25,-1028.75 279.5,-1028.75 279.5,-956.5 402.25,-956.5 402.25,-1028.75"/>
<text text-anchor="start" x="283.5" y="-1015.25" font-family="Helvetica,sans-Serif" font-size="10.00">fcarouge::kalman_internal</text>
<text text-anchor="start" x="283.5" y="-1004" font-family="Helvetica,sans-Serif" font-size="10.00">::conditional_output_model</text>
<text text-anchor="start" x="321.75" y="-992.75" font-family="Helvetica,sans-Serif" font-size="10.00">&lt; Filter &gt;</text>
<text text-anchor="start" x="339.38" y="-977.5" font-family="Helvetica,sans-Serif" font-size="10.00"> </text>
<text text-anchor="start" x="339.38" y="-962.25" font-family="Helvetica,sans-Serif" font-size="10.00"> </text>
<polygon fill="#666666" stroke="#666666" points="279.5,-989 279.5,-989 402.25,-989 402.25,-989 279.5,-989"/>
<polygon fill="#666666" stroke="#666666" points="279.5,-973.75 279.5,-973.75 402.25,-973.75 402.25,-973.75 279.5,-973.75"/>
<polygon fill="none" stroke="#666666" points="279.5,-956.5 279.5,-1028.75 402.25,-1028.75 402.25,-956.5 279.5,-956.5"/>
</a>
</g>
</g>
<!-- Node5&#45;&gt;Node2 -->
<g id="edge4_Node000002_Node000005" class="edge">
<title>Node5&#45;&gt;Node2</title>
<g id="a_edge4_Node000002_Node000005"><a xlink:title=" ">
<path fill="none" stroke="#63b8ff" d="M412.2,-955.9C446.57,-939.48 476.39,-925.73 501.92,-914.12"/>
<polygon fill="none" stroke="#63b8ff" points="410.76,-952.71 403.26,-960.19 413.79,-959.03 410.76,-952.71"/>
</a>
</g>
</g>
<!-- Node6 -->
<g id="Node000006" class="node">
<title>Node6</title>
<g id="a_Node000006"><a xlink:title=" ">
<polygon fill="white" stroke="none" points="563.75,-1028.75 420,-1028.75 420,-956.5 563.75,-956.5 563.75,-1028.75"/>
<text text-anchor="start" x="424" y="-1015.25" font-family="Helvetica,sans-Serif" font-size="10.00">fcarouge::kalman_internal</text>
<text text-anchor="start" x="424" y="-1004" font-family="Helvetica,sans-Serif" font-size="10.00">::conditional_output_uncertainty</text>
<text text-anchor="start" x="472.75" y="-992.75" font-family="Helvetica,sans-Serif" font-size="10.00">&lt; Filter &gt;</text>
<text text-anchor="start" x="490.38" y="-977.5" font-family="Helvetica,sans-Serif" font-size="10.00"> </text>
<text text-anchor="start" x="490.38" y="-962.25" font-family="Helvetica,sans-Serif" font-size="10.00"> </text>
<polygon fill="#666666" stroke="#666666" points="420,-989 420,-989 563.75,-989 563.75,-989 420,-989"/>
<polygon fill="#666666" stroke="#666666" points="420,-973.75 420,-973.75 563.75,-973.75 563.75,-973.75 420,-973.75"/>
<polygon fill="none" stroke="#666666" points="420,-956.5 420,-1028.75 563.75,-1028.75 563.75,-956.5 420,-956.5"/>
</a>
</g>
</g>
<!-- Node6&#45;&gt;Node2 -->
<g id="edge5_Node000002_Node000006" class="edge">
<title>Node6&#45;&gt;Node2</title>
<g id="a_edge5_Node000002_Node000006"><a xlink:title=" ">
<path fill="none" stroke="#63b8ff" d="M522.71,-947.35C528.97,-938.37 535.47,-929.03 541.47,-920.42"/>
<polygon fill="none" stroke="#63b8ff" points="520.02,-945.09 517.18,-955.3 525.76,-949.09 520.02,-945.09"/>
</a>
</g>
</g>
<!-- Node7 -->
<g id="Node000007" class="node">
<title>Node7</title>
<g id="a_Node000007"><a xlink:title=" ">
<polygon fill="white" stroke="none" points="700,-1028.75 581.75,-1028.75 581.75,-956.5 700,-956.5 700,-1028.75"/>
<text text-anchor="start" x="585.75" y="-1015.25" font-family="Helvetica,sans-Serif" font-size="10.00">fcarouge::kalman_internal</text>
<text text-anchor="start" x="585.75" y="-1004" font-family="Helvetica,sans-Serif" font-size="10.00">::conditional_prediction</text>
<text text-anchor="start" x="607.5" y="-992.75" font-family="Helvetica,sans-Serif" font-size="10.00">_types&lt; Filter &gt;</text>
<text text-anchor="start" x="639.38" y="-977.5" font-family="Helvetica,sans-Serif" font-size="10.00"> </text>
<text text-anchor="start" x="639.38" y="-962.25" font-family="Helvetica,sans-Serif" font-size="10.00"> </text>
<polygon fill="#666666" stroke="#666666" points="581.75,-989 581.75,-989 700,-989 700,-989 581.75,-989"/>
<polygon fill="#666666" stroke="#666666" points="581.75,-973.75 581.75,-973.75 700,-973.75 700,-973.75 581.75,-973.75"/>
<polygon fill="none" stroke="#666666" points="581.75,-956.5 581.75,-1028.75 700,-1028.75 700,-956.5 581.75,-956.5"/>
</a>
</g>
</g>
<!-- Node7&#45;&gt;Node2 -->
<g id="edge6_Node000002_Node000007" class="edge">
<title>Node7&#45;&gt;Node2</title>
<g id="a_edge6_Node000002_Node000007"><a xlink:title=" ">
<path fill="none" stroke="#63b8ff" d="M609.62,-947.35C603.28,-938.37 596.69,-929.03 590.61,-920.42"/>
<polygon fill="none" stroke="#63b8ff" points="606.61,-949.15 615.24,-955.3 612.33,-945.12 606.61,-949.15"/>
</a>
</g>
</g>
<!-- Node8 -->
<g id="Node000008" class="node">
<title>Node8</title>
<g id="a_Node000008"><a xlink:title=" ">
<polygon fill="white" stroke="none" points="869.5,-1028.75 718.25,-1028.75 718.25,-956.5 869.5,-956.5 869.5,-1028.75"/>
<text text-anchor="start" x="722.25" y="-1015.25" font-family="Helvetica,sans-Serif" font-size="10.00">fcarouge::kalman_internal</text>
<text text-anchor="start" x="722.25" y="-1004" font-family="Helvetica,sans-Serif" font-size="10.00">::conditional_process_uncertainty</text>
<text text-anchor="start" x="774.75" y="-992.75" font-family="Helvetica,sans-Serif" font-size="10.00">&lt; Filter &gt;</text>
<text text-anchor="start" x="792.38" y="-977.5" font-family="Helvetica,sans-Serif" font-size="10.00"> </text>
<text text-anchor="start" x="792.38" y="-962.25" font-family="Helvetica,sans-Serif" font-size="10.00"> </text>
<polygon fill="#666666" stroke="#666666" points="718.25,-989 718.25,-989 869.5,-989 869.5,-989 718.25,-989"/>
<polygon fill="#666666" stroke="#666666" points="718.25,-973.75 718.25,-973.75 869.5,-973.75 869.5,-973.75 718.25,-973.75"/>
<polygon fill="none" stroke="#666666" points="718.25,-956.5 718.25,-1028.75 869.5,-1028.75 869.5,-956.5 718.25,-956.5"/>
</a>
</g>
</g>
<!-- Node8&#45;&gt;Node2 -->
<g id="edge7_Node000002_Node000008" class="edge">
<title>Node8&#45;&gt;Node2</title>
<g id="a_edge7_Node000002_Node000008"><a xlink:title=" ">
<path fill="none" stroke="#63b8ff" d="M708.32,-951.76C682.23,-939.6 654.02,-926.45 629.64,-915.09"/>
<polygon fill="none" stroke="#63b8ff" points="706.67,-954.85 717.22,-955.9 709.63,-948.5 706.67,-954.85"/>
</a>
</g>
</g>
<!-- Node9 -->
<g id="Node000009" class="node">
<title>Node9</title>
<g id="a_Node000009"><a xlink:title=" ">
<polygon fill="white" stroke="none" points="1018.38,-1028.75 887.38,-1028.75 887.38,-956.5 1018.38,-956.5 1018.38,-1028.75"/>
<text text-anchor="start" x="891.38" y="-1015.25" font-family="Helvetica,sans-Serif" font-size="10.00">fcarouge::kalman_internal</text>
<text text-anchor="start" x="891.38" y="-1004" font-family="Helvetica,sans-Serif" font-size="10.00">::conditional_state_transition</text>
<text text-anchor="start" x="933.75" y="-992.75" font-family="Helvetica,sans-Serif" font-size="10.00">&lt; Filter &gt;</text>
<text text-anchor="start" x="951.38" y="-977.5" font-family="Helvetica,sans-Serif" font-size="10.00"> </text>
<text text-anchor="start" x="951.38" y="-962.25" font-family="Helvetica,sans-Serif" font-size="10.00"> </text>
<polygon fill="#666666" stroke="#666666" points="887.38,-989 887.38,-989 1018.38,-989 1018.38,-989 887.38,-989"/>
<polygon fill="#666666" stroke="#666666" points="887.38,-973.75 887.38,-973.75 1018.38,-973.75 1018.38,-973.75 887.38,-973.75"/>
<polygon fill="none" stroke="#666666" points="887.38,-956.5 887.38,-1028.75 1018.38,-1028.75 1018.38,-956.5 887.38,-956.5"/>
</a>
</g>
</g>
<!-- Node9&#45;&gt;Node2 -->
<g id="edge8_Node000002_Node000009" class="edge">
<title>Node9&#45;&gt;Node2</title>
<g id="a_edge8_Node000002_Node000009"><a xlink:title=" ">
<path fill="none" stroke="#63b8ff" d="M876.8,-956C787.11,-925.83 691.29,-906.47 629.67,-895.63"/>
<polygon fill="none" stroke="#63b8ff" points="875.39,-959.22 885.99,-959.15 877.66,-952.6 875.39,-959.22"/>
</a>
</g>
</g>
<!-- Node10 -->
<g id="Node000010" class="node">
<title>Node10</title>
<g id="a_Node000010"><a xlink:title=" ">
<polygon fill="white" stroke="none" points="1158.88,-1028.75 1036.88,-1028.75 1036.88,-956.5 1158.88,-956.5 1158.88,-1028.75"/>
<text text-anchor="start" x="1040.88" y="-1015.25" font-family="Helvetica,sans-Serif" font-size="10.00">fcarouge::kalman_internal</text>
<text text-anchor="start" x="1040.88" y="-1004" font-family="Helvetica,sans-Serif" font-size="10.00">::conditional_update_types</text>
<text text-anchor="start" x="1078.75" y="-992.75" font-family="Helvetica,sans-Serif" font-size="10.00">&lt; Filter &gt;</text>
<text text-anchor="start" x="1096.38" y="-977.5" font-family="Helvetica,sans-Serif" font-size="10.00"> </text>
<text text-anchor="start" x="1096.38" y="-962.25" font-family="Helvetica,sans-Serif" font-size="10.00"> </text>
<polygon fill="#666666" stroke="#666666" points="1036.88,-989 1036.88,-989 1158.88,-989 1158.88,-989 1036.88,-989"/>
<polygon fill="#666666" stroke="#666666" points="1036.88,-973.75 1036.88,-973.75 1158.88,-973.75 1158.88,-973.75 1036.88,-973.75"/>
<polygon fill="none" stroke="#666666" points="1036.88,-956.5 1036.88,-1028.75 1158.88,-1028.75 1158.88,-956.5 1036.88,-956.5"/>
</a>
</g>
</g>
<!-- Node10&#45;&gt;Node2 -->
<g id="edge9_Node000002_Node000010" class="edge">
<title>Node10&#45;&gt;Node2</title>
<g id="a_edge9_Node000002_Node000010"><a xlink:title=" ">
<path fill="none" stroke="#63b8ff" d="M1026.44,-956.4C881.82,-911.69 717.97,-895.15 629.7,-888.9"/>
<polygon fill="none" stroke="#63b8ff" points="1025.23,-959.69 1035.82,-959.36 1027.34,-953.01 1025.23,-959.69"/>
</a>
</g>
</g>
</g>
</svg>
