<?xml version="1.0" encoding="UTF-8" standalone="no"?>
<!DOCTYPE svg PUBLIC "-//W3C//DTD SVG 1.1//EN"
 "http://www.w3.org/Graphics/SVG/1.1/DTD/svg11.dtd">
<!-- Generated by graphviz version 2.49.3 (20211027.1534)
 -->
<!-- Title: fcarouge::kalman&lt; Type, State, Output, Input, Transpose, Symmetrize, Divide, Identity, Multiply, PredictionArguments &gt; Pages: 1 -->
<svg width="1380pt" height="2251pt"
 viewBox="0.00 0.00 1380.00 2251.00" xmlns="http://www.w3.org/2000/svg" xmlns:xlink="http://www.w3.org/1999/xlink">
<g id="graph0" class="graph" transform="scale(1 1) rotate(0) translate(4 2247)">
<title>fcarouge::kalman&lt; Type, State, Output, Input, Transpose, Symmetrize, Divide, Identity, Multiply, PredictionArguments &gt;</title>
<polygon fill="white" stroke="transparent" points="-4,4 -4,-2247 1376,-2247 1376,4 -4,4"/>
<!-- Node1 -->
<g id="node1" class="node">
<title>Node1</title>
<g id="a_node1"><a xlink:title="Kalman filter.">
<polygon fill="#bfbfbf" stroke="black" points="759,-0.5 759,-871.5 883,-871.5 883,-0.5 759,-0.5"/>
<text text-anchor="start" x="767" y="-859.5" font-family="Helvetica,sans-Serif" font-size="10.00">fcarouge::kalman&lt; Type,</text>
<text text-anchor="start" x="767" y="-848.5" font-family="Helvetica,sans-Serif" font-size="10.00"> State, Output, Input,</text>
<text text-anchor="start" x="767" y="-837.5" font-family="Helvetica,sans-Serif" font-size="10.00"> Transpose, Symmetrize,</text>
<text text-anchor="start" x="767" y="-826.5" font-family="Helvetica,sans-Serif" font-size="10.00"> Divide, Identity, Multiply,</text>
<text text-anchor="middle" x="821" y="-815.5" font-family="Helvetica,sans-Serif" font-size="10.00"> PredictionArguments &gt;</text>
<polyline fill="none" stroke="black" points="759,-808.5 883,-808.5 "/>
<text text-anchor="middle" x="821" y="-796.5" font-family="Helvetica,sans-Serif" font-size="10.00"> </text>
<polyline fill="none" stroke="black" points="759,-789.5 883,-789.5 "/>
<text text-anchor="start" x="767" y="-777.5" font-family="Helvetica,sans-Serif" font-size="10.00">+ kalman()</text>
<text text-anchor="start" x="767" y="-766.5" font-family="Helvetica,sans-Serif" font-size="10.00">+ kalman()</text>
<text text-anchor="start" x="767" y="-755.5" font-family="Helvetica,sans-Serif" font-size="10.00">+ kalman()</text>
<text text-anchor="start" x="767" y="-744.5" font-family="Helvetica,sans-Serif" font-size="10.00">+ operator=()</text>
<text text-anchor="start" x="767" y="-733.5" font-family="Helvetica,sans-Serif" font-size="10.00">+ operator=()</text>
<text text-anchor="start" x="767" y="-722.5" font-family="Helvetica,sans-Serif" font-size="10.00">+ ~kalman()</text>
<text text-anchor="start" x="767" y="-711.5" font-family="Helvetica,sans-Serif" font-size="10.00">+ x()</text>
<text text-anchor="start" x="767" y="-700.5" font-family="Helvetica,sans-Serif" font-size="10.00">+ x()</text>
<text text-anchor="start" x="767" y="-689.5" font-family="Helvetica,sans-Serif" font-size="10.00">+ z()</text>
<text text-anchor="start" x="767" y="-678.5" font-family="Helvetica,sans-Serif" font-size="10.00">+ u()</text>
<text text-anchor="start" x="767" y="-667.5" font-family="Helvetica,sans-Serif" font-size="10.00">+ p()</text>
<text text-anchor="start" x="767" y="-656.5" font-family="Helvetica,sans-Serif" font-size="10.00">+ p()</text>
<text text-anchor="start" x="767" y="-645.5" font-family="Helvetica,sans-Serif" font-size="10.00">+ q()</text>
<text text-anchor="start" x="767" y="-634.5" font-family="Helvetica,sans-Serif" font-size="10.00">+ q()</text>
<text text-anchor="start" x="767" y="-623.5" font-family="Helvetica,sans-Serif" font-size="10.00">+ q()</text>
<text text-anchor="start" x="767" y="-612.5" font-family="Helvetica,sans-Serif" font-size="10.00">+ r()</text>
<text text-anchor="start" x="767" y="-601.5" font-family="Helvetica,sans-Serif" font-size="10.00">+ r()</text>
<text text-anchor="start" x="767" y="-590.5" font-family="Helvetica,sans-Serif" font-size="10.00">+ r()</text>
<text text-anchor="start" x="767" y="-579.5" font-family="Helvetica,sans-Serif" font-size="10.00">+ f()</text>
<text text-anchor="start" x="767" y="-568.5" font-family="Helvetica,sans-Serif" font-size="10.00">+ f()</text>
<text text-anchor="start" x="767" y="-557.5" font-family="Helvetica,sans-Serif" font-size="10.00">+ f()</text>
<text text-anchor="start" x="767" y="-546.5" font-family="Helvetica,sans-Serif" font-size="10.00">+ h()</text>
<text text-anchor="start" x="767" y="-535.5" font-family="Helvetica,sans-Serif" font-size="10.00">+ h()</text>
<text text-anchor="start" x="767" y="-524.5" font-family="Helvetica,sans-Serif" font-size="10.00">+ h()</text>
<text text-anchor="start" x="767" y="-513.5" font-family="Helvetica,sans-Serif" font-size="10.00">+ g()</text>
<text text-anchor="start" x="767" y="-502.5" font-family="Helvetica,sans-Serif" font-size="10.00">+ g()</text>
<text text-anchor="start" x="767" y="-491.5" font-family="Helvetica,sans-Serif" font-size="10.00">+ g()</text>
<text text-anchor="start" x="767" y="-480.5" font-family="Helvetica,sans-Serif" font-size="10.00">+ operator()()</text>
<text text-anchor="start" x="767" y="-469.5" font-family="Helvetica,sans-Serif" font-size="10.00">+ update()</text>
<text text-anchor="start" x="767" y="-458.5" font-family="Helvetica,sans-Serif" font-size="10.00">+ predict()</text>
<text text-anchor="start" x="767" y="-447.5" font-family="Helvetica,sans-Serif" font-size="10.00">* implementation</text>
<text text-anchor="start" x="767" y="-436.5" font-family="Helvetica,sans-Serif" font-size="10.00">* value_type</text>
<text text-anchor="start" x="767" y="-425.5" font-family="Helvetica,sans-Serif" font-size="10.00">* state</text>
<text text-anchor="start" x="767" y="-414.5" font-family="Helvetica,sans-Serif" font-size="10.00">* output</text>
<text text-anchor="start" x="767" y="-403.5" font-family="Helvetica,sans-Serif" font-size="10.00">* input</text>
<text text-anchor="start" x="767" y="-392.5" font-family="Helvetica,sans-Serif" font-size="10.00">* estimate_uncertainty</text>
<text text-anchor="start" x="767" y="-381.5" font-family="Helvetica,sans-Serif" font-size="10.00">* process_uncertainty</text>
<text text-anchor="start" x="767" y="-370.5" font-family="Helvetica,sans-Serif" font-size="10.00">* output_uncertainty</text>
<text text-anchor="start" x="767" y="-359.5" font-family="Helvetica,sans-Serif" font-size="10.00">* state_transition</text>
<text text-anchor="start" x="767" y="-348.5" font-family="Helvetica,sans-Serif" font-size="10.00">* output_model</text>
<text text-anchor="start" x="767" y="-337.5" font-family="Helvetica,sans-Serif" font-size="10.00">* input_control</text>
<text text-anchor="start" x="767" y="-326.5" font-family="Helvetica,sans-Serif" font-size="10.00">* kalman()</text>
<text text-anchor="start" x="767" y="-315.5" font-family="Helvetica,sans-Serif" font-size="10.00">* kalman()</text>
<text text-anchor="start" x="767" y="-304.5" font-family="Helvetica,sans-Serif" font-size="10.00">* kalman()</text>
<text text-anchor="start" x="767" y="-293.5" font-family="Helvetica,sans-Serif" font-size="10.00">* operator=()</text>
<text text-anchor="start" x="767" y="-282.5" font-family="Helvetica,sans-Serif" font-size="10.00">* operator=()</text>
<text text-anchor="start" x="767" y="-271.5" font-family="Helvetica,sans-Serif" font-size="10.00">* ~kalman()</text>
<text text-anchor="start" x="767" y="-260.5" font-family="Helvetica,sans-Serif" font-size="10.00">* x()</text>
<text text-anchor="start" x="767" y="-249.5" font-family="Helvetica,sans-Serif" font-size="10.00">* x()</text>
<text text-anchor="start" x="767" y="-238.5" font-family="Helvetica,sans-Serif" font-size="10.00">* z()</text>
<text text-anchor="start" x="767" y="-227.5" font-family="Helvetica,sans-Serif" font-size="10.00">* u()</text>
<text text-anchor="start" x="767" y="-216.5" font-family="Helvetica,sans-Serif" font-size="10.00">* p()</text>
<text text-anchor="start" x="767" y="-205.5" font-family="Helvetica,sans-Serif" font-size="10.00">* p()</text>
<text text-anchor="start" x="767" y="-194.5" font-family="Helvetica,sans-Serif" font-size="10.00">* q()</text>
<text text-anchor="start" x="767" y="-183.5" font-family="Helvetica,sans-Serif" font-size="10.00">* q()</text>
<text text-anchor="start" x="767" y="-172.5" font-family="Helvetica,sans-Serif" font-size="10.00">* q()</text>
<text text-anchor="start" x="767" y="-161.5" font-family="Helvetica,sans-Serif" font-size="10.00">* r()</text>
<text text-anchor="start" x="767" y="-150.5" font-family="Helvetica,sans-Serif" font-size="10.00">* r()</text>
<text text-anchor="start" x="767" y="-139.5" font-family="Helvetica,sans-Serif" font-size="10.00">* r()</text>
<text text-anchor="start" x="767" y="-128.5" font-family="Helvetica,sans-Serif" font-size="10.00">* f()</text>
<text text-anchor="start" x="767" y="-117.5" font-family="Helvetica,sans-Serif" font-size="10.00">* f()</text>
<text text-anchor="start" x="767" y="-106.5" font-family="Helvetica,sans-Serif" font-size="10.00">* f()</text>
<text text-anchor="start" x="767" y="-95.5" font-family="Helvetica,sans-Serif" font-size="10.00">* h()</text>
<text text-anchor="start" x="767" y="-84.5" font-family="Helvetica,sans-Serif" font-size="10.00">* h()</text>
<text text-anchor="start" x="767" y="-73.5" font-family="Helvetica,sans-Serif" font-size="10.00">* h()</text>
<text text-anchor="start" x="767" y="-62.5" font-family="Helvetica,sans-Serif" font-size="10.00">* g()</text>
<text text-anchor="start" x="767" y="-51.5" font-family="Helvetica,sans-Serif" font-size="10.00">* g()</text>
<text text-anchor="start" x="767" y="-40.5" font-family="Helvetica,sans-Serif" font-size="10.00">* g()</text>
<text text-anchor="start" x="767" y="-29.5" font-family="Helvetica,sans-Serif" font-size="10.00">* operator()()</text>
<text text-anchor="start" x="767" y="-18.5" font-family="Helvetica,sans-Serif" font-size="10.00">* update()</text>
<text text-anchor="start" x="767" y="-7.5" font-family="Helvetica,sans-Serif" font-size="10.00">* predict()</text>
</a>
</g>
</g>
<!-- Node2 -->
<g id="node2" class="node">
<title>Node2</title>
<g id="a_node2"><a xlink:href="structfcarouge_1_1internal_1_1kalman.xhtml" target="_top" xlink:title=" ">
<polygon fill="white" stroke="black" points="709,-919.5 709,-1647.5 933,-1647.5 933,-919.5 709,-919.5"/>
<text text-anchor="start" x="717" y="-1635.5" font-family="Helvetica,sans-Serif" font-size="10.00">fcarouge::internal</text>
<text text-anchor="start" x="717" y="-1624.5" font-family="Helvetica,sans-Serif" font-size="10.00">::kalman&lt; double, double,</text>
<text text-anchor="start" x="717" y="-1613.5" font-family="Helvetica,sans-Serif" font-size="10.00"> double, std::identity,</text>
<text text-anchor="start" x="717" y="-1602.5" font-family="Helvetica,sans-Serif" font-size="10.00"> std::identity, std::divides</text>
<text text-anchor="start" x="717" y="-1591.5" font-family="Helvetica,sans-Serif" font-size="10.00">&lt; void &gt;, internal::identity,</text>
<text text-anchor="middle" x="821" y="-1580.5" font-family="Helvetica,sans-Serif" font-size="10.00"> std::multiplies&lt; void &gt;, PredictionArguments... &gt;</text>
<polyline fill="none" stroke="black" points="709,-1573.5 933,-1573.5 "/>
<text text-anchor="start" x="717" y="-1561.5" font-family="Helvetica,sans-Serif" font-size="10.00">+ x</text>
<text text-anchor="start" x="717" y="-1550.5" font-family="Helvetica,sans-Serif" font-size="10.00">+ p</text>
<text text-anchor="start" x="717" y="-1539.5" font-family="Helvetica,sans-Serif" font-size="10.00">+ q</text>
<text text-anchor="start" x="717" y="-1528.5" font-family="Helvetica,sans-Serif" font-size="10.00">+ r</text>
<text text-anchor="start" x="717" y="-1517.5" font-family="Helvetica,sans-Serif" font-size="10.00">+ h</text>
<text text-anchor="start" x="717" y="-1506.5" font-family="Helvetica,sans-Serif" font-size="10.00">+ f</text>
<text text-anchor="start" x="717" y="-1495.5" font-family="Helvetica,sans-Serif" font-size="10.00">+ g</text>
<text text-anchor="start" x="717" y="-1484.5" font-family="Helvetica,sans-Serif" font-size="10.00">+ k</text>
<text text-anchor="start" x="717" y="-1473.5" font-family="Helvetica,sans-Serif" font-size="10.00">+ y</text>
<text text-anchor="start" x="717" y="-1462.5" font-family="Helvetica,sans-Serif" font-size="10.00">+ s</text>
<text text-anchor="start" x="717" y="-1451.5" font-family="Helvetica,sans-Serif" font-size="10.00">+ transition_observation_h</text>
<text text-anchor="start" x="717" y="-1440.5" font-family="Helvetica,sans-Serif" font-size="10.00">+ noise_observation_r</text>
<text text-anchor="start" x="717" y="-1429.5" font-family="Helvetica,sans-Serif" font-size="10.00">+ transition_state_f</text>
<text text-anchor="start" x="717" y="-1418.5" font-family="Helvetica,sans-Serif" font-size="10.00">+ noise_process_q</text>
<text text-anchor="start" x="717" y="-1407.5" font-family="Helvetica,sans-Serif" font-size="10.00">+ transition_control_g</text>
<text text-anchor="start" x="717" y="-1396.5" font-family="Helvetica,sans-Serif" font-size="10.00">+ transpose</text>
<text text-anchor="start" x="717" y="-1385.5" font-family="Helvetica,sans-Serif" font-size="10.00">+ divide</text>
<text text-anchor="start" x="717" y="-1374.5" font-family="Helvetica,sans-Serif" font-size="10.00">+ symmetrize</text>
<text text-anchor="start" x="717" y="-1363.5" font-family="Helvetica,sans-Serif" font-size="10.00">+ identity</text>
<text text-anchor="start" x="717" y="-1352.5" font-family="Helvetica,sans-Serif" font-size="10.00">+ multiply</text>
<polyline fill="none" stroke="black" points="709,-1345.5 933,-1345.5 "/>
<text text-anchor="start" x="717" y="-1333.5" font-family="Helvetica,sans-Serif" font-size="10.00">+ update()</text>
<text text-anchor="start" x="717" y="-1322.5" font-family="Helvetica,sans-Serif" font-size="10.00">+ predict()</text>
<text text-anchor="start" x="717" y="-1311.5" font-family="Helvetica,sans-Serif" font-size="10.00">+ predict()</text>
<text text-anchor="start" x="717" y="-1300.5" font-family="Helvetica,sans-Serif" font-size="10.00">* state</text>
<text text-anchor="start" x="717" y="-1289.5" font-family="Helvetica,sans-Serif" font-size="10.00">* output</text>
<text text-anchor="start" x="717" y="-1278.5" font-family="Helvetica,sans-Serif" font-size="10.00">* input</text>
<text text-anchor="start" x="717" y="-1267.5" font-family="Helvetica,sans-Serif" font-size="10.00">* estimate_uncertainty</text>
<text text-anchor="start" x="717" y="-1256.5" font-family="Helvetica,sans-Serif" font-size="10.00">* process_uncertainty</text>
<text text-anchor="start" x="717" y="-1245.5" font-family="Helvetica,sans-Serif" font-size="10.00">* output_uncertainty</text>
<text text-anchor="start" x="717" y="-1234.5" font-family="Helvetica,sans-Serif" font-size="10.00">* state_transition</text>
<text text-anchor="start" x="717" y="-1223.5" font-family="Helvetica,sans-Serif" font-size="10.00">* output_model</text>
<text text-anchor="start" x="717" y="-1212.5" font-family="Helvetica,sans-Serif" font-size="10.00">* input_control</text>
<text text-anchor="start" x="717" y="-1201.5" font-family="Helvetica,sans-Serif" font-size="10.00">* gain</text>
<text text-anchor="start" x="717" y="-1190.5" font-family="Helvetica,sans-Serif" font-size="10.00">* innovation</text>
<text text-anchor="start" x="717" y="-1179.5" font-family="Helvetica,sans-Serif" font-size="10.00">* innovation_uncertainty</text>
<text text-anchor="start" x="717" y="-1168.5" font-family="Helvetica,sans-Serif" font-size="10.00">* x</text>
<text text-anchor="start" x="717" y="-1157.5" font-family="Helvetica,sans-Serif" font-size="10.00">* p</text>
<text text-anchor="start" x="717" y="-1146.5" font-family="Helvetica,sans-Serif" font-size="10.00">* q</text>
<text text-anchor="start" x="717" y="-1135.5" font-family="Helvetica,sans-Serif" font-size="10.00">* r</text>
<text text-anchor="start" x="717" y="-1124.5" font-family="Helvetica,sans-Serif" font-size="10.00">* h</text>
<text text-anchor="start" x="717" y="-1113.5" font-family="Helvetica,sans-Serif" font-size="10.00">* f</text>
<text text-anchor="start" x="717" y="-1102.5" font-family="Helvetica,sans-Serif" font-size="10.00">* g</text>
<text text-anchor="start" x="717" y="-1091.5" font-family="Helvetica,sans-Serif" font-size="10.00">* k</text>
<text text-anchor="start" x="717" y="-1080.5" font-family="Helvetica,sans-Serif" font-size="10.00">* y</text>
<text text-anchor="start" x="717" y="-1069.5" font-family="Helvetica,sans-Serif" font-size="10.00">* s</text>
<text text-anchor="start" x="717" y="-1058.5" font-family="Helvetica,sans-Serif" font-size="10.00">* transition_observation_h</text>
<text text-anchor="start" x="717" y="-1047.5" font-family="Helvetica,sans-Serif" font-size="10.00">* noise_observation_r</text>
<text text-anchor="start" x="717" y="-1036.5" font-family="Helvetica,sans-Serif" font-size="10.00">* transition_state_f</text>
<text text-anchor="start" x="717" y="-1025.5" font-family="Helvetica,sans-Serif" font-size="10.00">* noise_process_q</text>
<text text-anchor="start" x="717" y="-1014.5" font-family="Helvetica,sans-Serif" font-size="10.00">* transition_control_g</text>
<text text-anchor="start" x="717" y="-1003.5" font-family="Helvetica,sans-Serif" font-size="10.00">* transpose</text>
<text text-anchor="start" x="717" y="-992.5" font-family="Helvetica,sans-Serif" font-size="10.00">* divide</text>
<text text-anchor="start" x="717" y="-981.5" font-family="Helvetica,sans-Serif" font-size="10.00">* symmetrize</text>
<text text-anchor="start" x="717" y="-970.5" font-family="Helvetica,sans-Serif" font-size="10.00">* identity</text>
<text text-anchor="start" x="717" y="-959.5" font-family="Helvetica,sans-Serif" font-size="10.00">* multiply</text>
<text text-anchor="start" x="717" y="-948.5" font-family="Helvetica,sans-Serif" font-size="10.00">* update()</text>
<text text-anchor="start" x="717" y="-937.5" font-family="Helvetica,sans-Serif" font-size="10.00">* predict()</text>
<text text-anchor="start" x="717" y="-926.5" font-family="Helvetica,sans-Serif" font-size="10.00">* predict()</text>
</a>
</g>
</g>
<!-- Node2&#45;&gt;Node1 -->
<g id="edge1" class="edge">
<title>Node2&#45;&gt;Node1</title>
<path fill="none" stroke="#404040" d="M821,-919.33C821,-907.62 821,-895.84 821,-884.04"/>
<polygon fill="none" stroke="#404040" points="821,-883.74 817,-877.74 821,-871.74 825,-877.74 821,-883.74"/>
<text text-anchor="middle" x="833" y="-893" font-family="Helvetica,sans-Serif" font-size="10.00"> &#45;filter</text>
</g>
<!-- Node3 -->
<g id="node3" class="node">
<title>Node3</title>
<g id="a_node3"><a xlink:href="structfcarouge_1_1internal_1_1kalman.xhtml" target="_top" xlink:title=" ">
<polygon fill="white" stroke="black" points="745.5,-1739.5 745.5,-2027.5 896.5,-2027.5 896.5,-1739.5 745.5,-1739.5"/>
<text text-anchor="start" x="753.5" y="-2015.5" font-family="Helvetica,sans-Serif" font-size="10.00">fcarouge::internal</text>
<text text-anchor="start" x="753.5" y="-2004.5" font-family="Helvetica,sans-Serif" font-size="10.00">::kalman&lt; State, Output,</text>
<text text-anchor="start" x="753.5" y="-1993.5" font-family="Helvetica,sans-Serif" font-size="10.00"> Input, Transpose, Symmetrize,</text>
<text text-anchor="start" x="753.5" y="-1982.5" font-family="Helvetica,sans-Serif" font-size="10.00"> Divide, Identity, Multiply,</text>
<text text-anchor="middle" x="821" y="-1971.5" font-family="Helvetica,sans-Serif" font-size="10.00"> PredictionArguments &gt;</text>
<polyline fill="none" stroke="black" points="745.5,-1964.5 896.5,-1964.5 "/>
<text text-anchor="middle" x="821" y="-1952.5" font-family="Helvetica,sans-Serif" font-size="10.00"> </text>
<polyline fill="none" stroke="black" points="745.5,-1945.5 896.5,-1945.5 "/>
<text text-anchor="start" x="753.5" y="-1933.5" font-family="Helvetica,sans-Serif" font-size="10.00">+ update()</text>
<text text-anchor="start" x="753.5" y="-1922.5" font-family="Helvetica,sans-Serif" font-size="10.00">+ predict()</text>
<text text-anchor="start" x="753.5" y="-1911.5" font-family="Helvetica,sans-Serif" font-size="10.00">+ predict()</text>
<text text-anchor="start" x="753.5" y="-1900.5" font-family="Helvetica,sans-Serif" font-size="10.00">* state</text>
<text text-anchor="start" x="753.5" y="-1889.5" font-family="Helvetica,sans-Serif" font-size="10.00">* output</text>
<text text-anchor="start" x="753.5" y="-1878.5" font-family="Helvetica,sans-Serif" font-size="10.00">* input</text>
<text text-anchor="start" x="753.5" y="-1867.5" font-family="Helvetica,sans-Serif" font-size="10.00">* estimate_uncertainty</text>
<text text-anchor="start" x="753.5" y="-1856.5" font-family="Helvetica,sans-Serif" font-size="10.00">* process_uncertainty</text>
<text text-anchor="start" x="753.5" y="-1845.5" font-family="Helvetica,sans-Serif" font-size="10.00">* output_uncertainty</text>
<text text-anchor="start" x="753.5" y="-1834.5" font-family="Helvetica,sans-Serif" font-size="10.00">* state_transition</text>
<text text-anchor="start" x="753.5" y="-1823.5" font-family="Helvetica,sans-Serif" font-size="10.00">* output_model</text>
<text text-anchor="start" x="753.5" y="-1812.5" font-family="Helvetica,sans-Serif" font-size="10.00">* input_control</text>
<text text-anchor="start" x="753.5" y="-1801.5" font-family="Helvetica,sans-Serif" font-size="10.00">* gain</text>
<text text-anchor="start" x="753.5" y="-1790.5" font-family="Helvetica,sans-Serif" font-size="10.00">* innovation</text>
<text text-anchor="start" x="753.5" y="-1779.5" font-family="Helvetica,sans-Serif" font-size="10.00">* innovation_uncertainty</text>
<text text-anchor="start" x="753.5" y="-1768.5" font-family="Helvetica,sans-Serif" font-size="10.00">* update()</text>
<text text-anchor="start" x="753.5" y="-1757.5" font-family="Helvetica,sans-Serif" font-size="10.00">* predict()</text>
<text text-anchor="start" x="753.5" y="-1746.5" font-family="Helvetica,sans-Serif" font-size="10.00">* predict()</text>
</a>
</g>
</g>
<!-- Node3&#45;&gt;Node2 -->
<g id="edge2" class="edge">
<title>Node3&#45;&gt;Node2</title>
<path fill="none" stroke="orange" d="M821,-1729.17C821,-1703.56 821,-1676.06 821,-1647.76"/>
<polygon fill="orange" stroke="orange" points="817.5,-1729.26 821,-1739.26 824.5,-1729.26 817.5,-1729.26"/>
<text text-anchor="start" x="821" y="-1713" font-family="Helvetica,sans-Serif" font-size="10.00"> &lt; double, double, double,</text>
<text text-anchor="start" x="821" y="-1702" font-family="Helvetica,sans-Serif" font-size="10.00"> std::identity, std::identity,</text>
<text text-anchor="start" x="821" y="-1691" font-family="Helvetica,sans-Serif" font-size="10.00"> std::divides&lt; void &gt;, internal</text>
<text text-anchor="start" x="821" y="-1680" font-family="Helvetica,sans-Serif" font-size="10.00">::identity, std::multiplies&lt; void</text>
<text text-anchor="middle" x="884.5" y="-1669" font-family="Helvetica,sans-Serif" font-size="10.00"> &gt;, PredictionArguments... &gt;</text>
</g>
<!-- Node4 -->
<g id="node4" class="node">
<title>Node4</title>
<g id="a_node4"><a xlink:title=" ">
<polygon fill="white" stroke="#bfbfbf" points="0,-2174.5 0,-2231.5 40,-2231.5 40,-2174.5 0,-2174.5"/>
<text text-anchor="middle" x="20" y="-2219.5" font-family="Helvetica,sans-Serif" font-size="10.00">State</text>
<polyline fill="none" stroke="#bfbfbf" points="0,-2212.5 40,-2212.5 "/>
<text text-anchor="middle" x="20" y="-2200.5" font-family="Helvetica,sans-Serif" font-size="10.00"> </text>
<polyline fill="none" stroke="#bfbfbf" points="0,-2193.5 40,-2193.5 "/>
<text text-anchor="middle" x="20" y="-2181.5" font-family="Helvetica,sans-Serif" font-size="10.00"> </text>
</a>
</g>
</g>
<!-- Node4&#45;&gt;Node3 -->
<g id="edge3" class="edge">
<title>Node4&#45;&gt;Node3</title>
<path fill="none" stroke="#404040" d="M37.16,-2174.32C60.74,-2138.76 106.59,-2077.84 162,-2046 347.46,-1939.43 601.37,-1902.79 733.33,-1890.49"/>
<polygon fill="none" stroke="#404040" points="733.37,-1890.49 738.99,-1885.96 745.32,-1889.41 739.71,-1893.93 733.37,-1890.49"/>
<text text-anchor="middle" x="168.5" y="-2093" font-family="Helvetica,sans-Serif" font-size="10.00"> +x</text>
</g>
<!-- Node5 -->
<g id="node5" class="node">
<title>Node5</title>
<g id="a_node5"><a xlink:title=" ">
<polygon fill="white" stroke="#bfbfbf" points="58.5,-2163.5 58.5,-2242.5 179.5,-2242.5 179.5,-2163.5 58.5,-2163.5"/>
<text text-anchor="start" x="66.5" y="-2230.5" font-family="Helvetica,sans-Serif" font-size="10.00">decay_t&lt; std::invoke</text>
<text text-anchor="start" x="66.5" y="-2219.5" font-family="Helvetica,sans-Serif" font-size="10.00">_result_t&lt; Divide, State,</text>
<text text-anchor="middle" x="119" y="-2208.5" font-family="Helvetica,sans-Serif" font-size="10.00"> State &gt; &gt;</text>
<polyline fill="none" stroke="#bfbfbf" points="58.5,-2201.5 179.5,-2201.5 "/>
<text text-anchor="middle" x="119" y="-2189.5" font-family="Helvetica,sans-Serif" font-size="10.00"> </text>
<polyline fill="none" stroke="#bfbfbf" points="58.5,-2182.5 179.5,-2182.5 "/>
<text text-anchor="middle" x="119" y="-2170.5" font-family="Helvetica,sans-Serif" font-size="10.00"> </text>
</a>
</g>
</g>
<!-- Node5&#45;&gt;Node3 -->
<g id="edge4" class="edge">
<title>Node5&#45;&gt;Node3</title>
<path fill="none" stroke="#404040" d="M157.12,-2163.39C193.54,-2128.41 251.43,-2077.65 310,-2046 448.91,-1970.92 628.22,-1924.41 733.31,-1901.59"/>
<polygon fill="none" stroke="#404040" points="733.39,-1901.57 738.42,-1896.4 745.13,-1899.05 740.1,-1904.22 733.39,-1901.57"/>
<text text-anchor="middle" x="316" y="-2104" font-family="Helvetica,sans-Serif" font-size="10.00"> +f</text>
<text text-anchor="middle" x="316" y="-2093" font-family="Helvetica,sans-Serif" font-size="10.00">+p</text>
<text text-anchor="middle" x="316" y="-2082" font-family="Helvetica,sans-Serif" font-size="10.00">+q</text>
</g>
<!-- Node6 -->
<g id="node6" class="node">
<title>Node6</title>
<g id="a_node6"><a xlink:title=" ">
<polygon fill="white" stroke="#bfbfbf" points="197.5,-2163.5 197.5,-2242.5 324.5,-2242.5 324.5,-2163.5 197.5,-2163.5"/>
<text text-anchor="start" x="205.5" y="-2230.5" font-family="Helvetica,sans-Serif" font-size="10.00">decay_t&lt; std::invoke</text>
<text text-anchor="start" x="205.5" y="-2219.5" font-family="Helvetica,sans-Serif" font-size="10.00">_result_t&lt; Divide, Output,</text>
<text text-anchor="middle" x="261" y="-2208.5" font-family="Helvetica,sans-Serif" font-size="10.00"> Output &gt; &gt;</text>
<polyline fill="none" stroke="#bfbfbf" points="197.5,-2201.5 324.5,-2201.5 "/>
<text text-anchor="middle" x="261" y="-2189.5" font-family="Helvetica,sans-Serif" font-size="10.00"> </text>
<polyline fill="none" stroke="#bfbfbf" points="197.5,-2182.5 324.5,-2182.5 "/>
<text text-anchor="middle" x="261" y="-2170.5" font-family="Helvetica,sans-Serif" font-size="10.00"> </text>
</a>
</g>
</g>
<!-- Node6&#45;&gt;Node3 -->
<g id="edge5" class="edge">
<title>Node6&#45;&gt;Node3</title>
<path fill="none" stroke="#404040" d="M301.37,-2163.49C338.43,-2129.54 395.93,-2080.28 452,-2046 543.08,-1990.32 656.76,-1943.61 733.69,-1914.98"/>
<polygon fill="none" stroke="#404040" points="733.98,-1914.87 738.22,-1909.04 745.24,-1910.72 741,-1916.55 733.98,-1914.87"/>
<text text-anchor="middle" x="458" y="-2093" font-family="Helvetica,sans-Serif" font-size="10.00"> +r</text>
</g>
<!-- Node7 -->
<g id="node7" class="node">
<title>Node7</title>
<g id="a_node7"><a xlink:title=" ">
<polygon fill="white" stroke="#bfbfbf" points="342.5,-2163.5 342.5,-2242.5 469.5,-2242.5 469.5,-2163.5 342.5,-2163.5"/>
<text text-anchor="start" x="350.5" y="-2230.5" font-family="Helvetica,sans-Serif" font-size="10.00">decay_t&lt; std::invoke</text>
<text text-anchor="start" x="350.5" y="-2219.5" font-family="Helvetica,sans-Serif" font-size="10.00">_result_t&lt; Divide, Output,</text>
<text text-anchor="middle" x="406" y="-2208.5" font-family="Helvetica,sans-Serif" font-size="10.00"> State &gt; &gt;</text>
<polyline fill="none" stroke="#bfbfbf" points="342.5,-2201.5 469.5,-2201.5 "/>
<text text-anchor="middle" x="406" y="-2189.5" font-family="Helvetica,sans-Serif" font-size="10.00"> </text>
<polyline fill="none" stroke="#bfbfbf" points="342.5,-2182.5 469.5,-2182.5 "/>
<text text-anchor="middle" x="406" y="-2170.5" font-family="Helvetica,sans-Serif" font-size="10.00"> </text>
</a>
</g>
</g>
<!-- Node7&#45;&gt;Node3 -->
<g id="edge6" class="edge">
<title>Node7&#45;&gt;Node3</title>
<path fill="none" stroke="#404040" d="M446.93,-2163.27C482.01,-2130.73 534.44,-2083.64 583,-2046 631.8,-2008.18 688.98,-1969.22 735.07,-1939.04"/>
<polygon fill="none" stroke="#404040" points="735.27,-1938.9 738.11,-1932.27 745.32,-1932.35 742.48,-1938.97 735.27,-1938.9"/>
<text text-anchor="middle" x="590" y="-2093" font-family="Helvetica,sans-Serif" font-size="10.00"> +h</text>
</g>
<!-- Node8 -->
<g id="node8" class="node">
<title>Node8</title>
<g id="a_node8"><a xlink:title=" ">
<polygon fill="white" stroke="#bfbfbf" points="487.5,-2163.5 487.5,-2242.5 608.5,-2242.5 608.5,-2163.5 487.5,-2163.5"/>
<text text-anchor="start" x="495.5" y="-2230.5" font-family="Helvetica,sans-Serif" font-size="10.00">decay_t&lt; std::invoke</text>
<text text-anchor="start" x="495.5" y="-2219.5" font-family="Helvetica,sans-Serif" font-size="10.00">_result_t&lt; Divide, State,</text>
<text text-anchor="middle" x="548" y="-2208.5" font-family="Helvetica,sans-Serif" font-size="10.00"> Input &gt; &gt;</text>
<polyline fill="none" stroke="#bfbfbf" points="487.5,-2201.5 608.5,-2201.5 "/>
<text text-anchor="middle" x="548" y="-2189.5" font-family="Helvetica,sans-Serif" font-size="10.00"> </text>
<polyline fill="none" stroke="#bfbfbf" points="487.5,-2182.5 608.5,-2182.5 "/>
<text text-anchor="middle" x="548" y="-2170.5" font-family="Helvetica,sans-Serif" font-size="10.00"> </text>
</a>
</g>
</g>
<!-- Node8&#45;&gt;Node3 -->
<g id="edge7" class="edge">
<title>Node8&#45;&gt;Node3</title>
<path fill="none" stroke="#404040" d="M581.2,-2163.39C619.72,-2118.59 684.68,-2043.05 737.27,-1981.88"/>
<polygon fill="none" stroke="#404040" points="737.45,-1981.67 738.32,-1974.52 745.27,-1972.57 744.39,-1979.73 737.45,-1981.67"/>
<text text-anchor="middle" x="683" y="-2093" font-family="Helvetica,sans-Serif" font-size="10.00"> +g</text>
</g>
<!-- Node9 -->
<g id="node9" class="node">
<title>Node9</title>
<g id="a_node9"><a xlink:title=" ">
<polygon fill="white" stroke="#bfbfbf" points="626.5,-2163.5 626.5,-2242.5 737.5,-2242.5 737.5,-2163.5 626.5,-2163.5"/>
<text text-anchor="start" x="634.5" y="-2230.5" font-family="Helvetica,sans-Serif" font-size="10.00">decay_t&lt; std::invoke</text>
<text text-anchor="start" x="634.5" y="-2219.5" font-family="Helvetica,sans-Serif" font-size="10.00">_result_t&lt; Transpose,</text>
<text text-anchor="middle" x="682" y="-2208.5" font-family="Helvetica,sans-Serif" font-size="10.00"> output_model &gt; &gt;</text>
<polyline fill="none" stroke="#bfbfbf" points="626.5,-2201.5 737.5,-2201.5 "/>
<text text-anchor="middle" x="682" y="-2189.5" font-family="Helvetica,sans-Serif" font-size="10.00"> </text>
<polyline fill="none" stroke="#bfbfbf" points="626.5,-2182.5 737.5,-2182.5 "/>
<text text-anchor="middle" x="682" y="-2170.5" font-family="Helvetica,sans-Serif" font-size="10.00"> </text>
</a>
</g>
</g>
<!-- Node9&#45;&gt;Node3 -->
<g id="edge8" class="edge">
<title>Node9&#45;&gt;Node3</title>
<path fill="none" stroke="#404040" d="M698.91,-2163.39C712.7,-2131.87 733.16,-2085.14 753.41,-2038.9"/>
<polygon fill="none" stroke="#404040" points="753.45,-2038.79 752.2,-2031.69 758.27,-2027.79 759.52,-2034.9 753.45,-2038.79"/>
<text text-anchor="middle" x="754" y="-2093" font-family="Helvetica,sans-Serif" font-size="10.00"> +k</text>
</g>
<!-- Node10 -->
<g id="node10" class="node">
<title>Node10</title>
<g id="a_node10"><a xlink:title=" ">
<polygon fill="white" stroke="#bfbfbf" points="755,-2174.5 755,-2231.5 799,-2231.5 799,-2174.5 755,-2174.5"/>
<text text-anchor="middle" x="777" y="-2219.5" font-family="Helvetica,sans-Serif" font-size="10.00">output</text>
<polyline fill="none" stroke="#bfbfbf" points="755,-2212.5 799,-2212.5 "/>
<text text-anchor="middle" x="777" y="-2200.5" font-family="Helvetica,sans-Serif" font-size="10.00"> </text>
<polyline fill="none" stroke="#bfbfbf" points="755,-2193.5 799,-2193.5 "/>
<text text-anchor="middle" x="777" y="-2181.5" font-family="Helvetica,sans-Serif" font-size="10.00"> </text>
</a>
</g>
</g>
<!-- Node10&#45;&gt;Node3 -->
<g id="edge9" class="edge">
<title>Node10&#45;&gt;Node3</title>
<path fill="none" stroke="#404040" d="M780.83,-2174.38C785.09,-2143.66 792.31,-2091.52 799.47,-2039.86"/>
<polygon fill="none" stroke="#404040" points="799.49,-2039.69 796.35,-2033.2 801.14,-2027.8 804.28,-2034.3 799.49,-2039.69"/>
<text text-anchor="middle" x="803.5" y="-2093" font-family="Helvetica,sans-Serif" font-size="10.00"> +y</text>
</g>
<!-- Node11 -->
<g id="node11" class="node">
<title>Node11</title>
<g id="a_node11"><a xlink:title=" ">
<polygon fill="white" stroke="#bfbfbf" points="817,-2174.5 817,-2231.5 913,-2231.5 913,-2174.5 817,-2174.5"/>
<text text-anchor="middle" x="865" y="-2219.5" font-family="Helvetica,sans-Serif" font-size="10.00">output_uncertainty</text>
<polyline fill="none" stroke="#bfbfbf" points="817,-2212.5 913,-2212.5 "/>
<text text-anchor="middle" x="865" y="-2200.5" font-family="Helvetica,sans-Serif" font-size="10.00"> </text>
<polyline fill="none" stroke="#bfbfbf" points="817,-2193.5 913,-2193.5 "/>
<text text-anchor="middle" x="865" y="-2181.5" font-family="Helvetica,sans-Serif" font-size="10.00"> </text>
</a>
</g>
</g>
<!-- Node11&#45;&gt;Node3 -->
<g id="edge10" class="edge">
<title>Node11&#45;&gt;Node3</title>
<path fill="none" stroke="#404040" d="M861.17,-2174.38C856.91,-2143.66 849.69,-2091.52 842.53,-2039.86"/>
<polygon fill="none" stroke="#404040" points="842.51,-2039.69 837.72,-2034.3 840.86,-2027.8 845.65,-2033.2 842.51,-2039.69"/>
<text text-anchor="middle" x="863" y="-2093" font-family="Helvetica,sans-Serif" font-size="10.00"> +s</text>
</g>
<!-- Node12 -->
<g id="node12" class="node">
<title>Node12</title>
<g id="a_node12"><a xlink:title=" ">
<polygon fill="white" stroke="#bfbfbf" points="931.5,-2174.5 931.5,-2231.5 988.5,-2231.5 988.5,-2174.5 931.5,-2174.5"/>
<text text-anchor="middle" x="960" y="-2219.5" font-family="Helvetica,sans-Serif" font-size="10.00">function&lt;</text>
<polyline fill="none" stroke="#bfbfbf" points="931.5,-2212.5 988.5,-2212.5 "/>
<text text-anchor="middle" x="960" y="-2200.5" font-family="Helvetica,sans-Serif" font-size="10.00"> </text>
<polyline fill="none" stroke="#bfbfbf" points="931.5,-2193.5 988.5,-2193.5 "/>
<text text-anchor="middle" x="960" y="-2181.5" font-family="Helvetica,sans-Serif" font-size="10.00"> </text>
</a>
</g>
</g>
<!-- Node12&#45;&gt;Node3 -->
<g id="edge11" class="edge">
<title>Node12&#45;&gt;Node3</title>
<path fill="none" stroke="#404040" d="M931.94,-2174.41C924.05,-2165.57 916,-2155.37 910,-2145 906.77,-2139.41 890.4,-2092.12 872.57,-2039.33"/>
<polygon fill="none" stroke="#404040" points="872.46,-2039 866.75,-2034.6 868.63,-2027.63 874.33,-2032.04 872.46,-2039"/>
<text text-anchor="start" x="910" y="-2137" font-family="Helvetica,sans-Serif" font-size="10.00"> +noise_observation</text>
<text text-anchor="middle" x="961" y="-2126" font-family="Helvetica,sans-Serif" font-size="10.00">_r</text>
<text text-anchor="start" x="910" y="-2115" font-family="Helvetica,sans-Serif" font-size="10.00">+noise_process</text>
<text text-anchor="middle" x="961" y="-2104" font-family="Helvetica,sans-Serif" font-size="10.00">_q</text>
<text text-anchor="start" x="910" y="-2093" font-family="Helvetica,sans-Serif" font-size="10.00">+transition_control</text>
<text text-anchor="middle" x="961" y="-2082" font-family="Helvetica,sans-Serif" font-size="10.00">_g</text>
<text text-anchor="start" x="910" y="-2071" font-family="Helvetica,sans-Serif" font-size="10.00">+transition_observation</text>
<text text-anchor="middle" x="961" y="-2060" font-family="Helvetica,sans-Serif" font-size="10.00">_h</text>
<text text-anchor="middle" x="961" y="-2049" font-family="Helvetica,sans-Serif" font-size="10.00">+transition_state_f</text>
</g>
<!-- Node13 -->
<g id="node13" class="node">
<title>Node13</title>
<g id="a_node13"><a xlink:title=" ">
<polygon fill="white" stroke="#bfbfbf" points="1007,-2174.5 1007,-2231.5 1069,-2231.5 1069,-2174.5 1007,-2174.5"/>
<text text-anchor="middle" x="1038" y="-2219.5" font-family="Helvetica,sans-Serif" font-size="10.00">Transpose</text>
<polyline fill="none" stroke="#bfbfbf" points="1007,-2212.5 1069,-2212.5 "/>
<text text-anchor="middle" x="1038" y="-2200.5" font-family="Helvetica,sans-Serif" font-size="10.00"> </text>
<polyline fill="none" stroke="#bfbfbf" points="1007,-2193.5 1069,-2193.5 "/>
<text text-anchor="middle" x="1038" y="-2181.5" font-family="Helvetica,sans-Serif" font-size="10.00"> </text>
</a>
</g>
</g>
<!-- Node13&#45;&gt;Node3 -->
<g id="edge12" class="edge">
<title>Node13&#45;&gt;Node3</title>
<path fill="none" stroke="#404040" d="M1035.69,-2174.27C1032.06,-2135.5 1024.18,-2067.42 1012,-2046 986.98,-2001.99 945.13,-1964.57 906.98,-1936.87"/>
<polygon fill="none" stroke="#404040" points="906.64,-1936.63 899.43,-1936.41 896.85,-1929.68 904.06,-1929.89 906.64,-1936.63"/>
<text text-anchor="middle" x="1058" y="-2093" font-family="Helvetica,sans-Serif" font-size="10.00"> +transpose</text>
</g>
<!-- Node14 -->
<g id="node14" class="node">
<title>Node14</title>
<g id="a_node14"><a xlink:title=" ">
<polygon fill="white" stroke="#bfbfbf" points="1087,-2174.5 1087,-2231.5 1131,-2231.5 1131,-2174.5 1087,-2174.5"/>
<text text-anchor="middle" x="1109" y="-2219.5" font-family="Helvetica,sans-Serif" font-size="10.00">Divide</text>
<polyline fill="none" stroke="#bfbfbf" points="1087,-2212.5 1131,-2212.5 "/>
<text text-anchor="middle" x="1109" y="-2200.5" font-family="Helvetica,sans-Serif" font-size="10.00"> </text>
<polyline fill="none" stroke="#bfbfbf" points="1087,-2193.5 1131,-2193.5 "/>
<text text-anchor="middle" x="1109" y="-2181.5" font-family="Helvetica,sans-Serif" font-size="10.00"> </text>
</a>
</g>
</g>
<!-- Node14&#45;&gt;Node3 -->
<g id="edge13" class="edge">
<title>Node14&#45;&gt;Node3</title>
<path fill="none" stroke="#404040" d="M1111.86,-2174.45C1113.9,-2141.21 1112.66,-2084.94 1087,-2046 1045.04,-1982.32 968.48,-1939.77 908.24,-1914.4"/>
<polygon fill="none" stroke="#404040" points="907.91,-1914.26 900.84,-1915.69 896.81,-1909.71 903.88,-1908.29 907.91,-1914.26"/>
<text text-anchor="middle" x="1129" y="-2093" font-family="Helvetica,sans-Serif" font-size="10.00"> +divide</text>
</g>
<!-- Node15 -->
<g id="node15" class="node">
<title>Node15</title>
<g id="a_node15"><a xlink:title=" ">
<polygon fill="white" stroke="#bfbfbf" points="1149,-2174.5 1149,-2231.5 1217,-2231.5 1217,-2174.5 1149,-2174.5"/>
<text text-anchor="middle" x="1183" y="-2219.5" font-family="Helvetica,sans-Serif" font-size="10.00">Symmetrize</text>
<polyline fill="none" stroke="#bfbfbf" points="1149,-2212.5 1217,-2212.5 "/>
<text text-anchor="middle" x="1183" y="-2200.5" font-family="Helvetica,sans-Serif" font-size="10.00"> </text>
<polyline fill="none" stroke="#bfbfbf" points="1149,-2193.5 1217,-2193.5 "/>
<text text-anchor="middle" x="1183" y="-2181.5" font-family="Helvetica,sans-Serif" font-size="10.00"> </text>
</a>
</g>
</g>
<!-- Node15&#45;&gt;Node3 -->
<g id="edge14" class="edge">
<title>Node15&#45;&gt;Node3</title>
<path fill="none" stroke="#404040" d="M1180.09,-2174.44C1175.46,-2135.18 1165.35,-2065.71 1150,-2046 1090.08,-1969.03 983.95,-1926.33 908.44,-1904.46"/>
<polygon fill="none" stroke="#404040" points="908.14,-1904.38 901.28,-1906.6 896.59,-1901.13 903.45,-1898.9 908.14,-1904.38"/>
<text text-anchor="middle" x="1204" y="-2093" font-family="Helvetica,sans-Serif" font-size="10.00"> +symmetrize</text>
</g>
<!-- Node16 -->
<g id="node16" class="node">
<title>Node16</title>
<g id="a_node16"><a xlink:title=" ">
<polygon fill="white" stroke="#bfbfbf" points="1235,-2174.5 1235,-2231.5 1283,-2231.5 1283,-2174.5 1235,-2174.5"/>
<text text-anchor="middle" x="1259" y="-2219.5" font-family="Helvetica,sans-Serif" font-size="10.00">Identity</text>
<polyline fill="none" stroke="#bfbfbf" points="1235,-2212.5 1283,-2212.5 "/>
<text text-anchor="middle" x="1259" y="-2200.5" font-family="Helvetica,sans-Serif" font-size="10.00"> </text>
<polyline fill="none" stroke="#bfbfbf" points="1235,-2193.5 1283,-2193.5 "/>
<text text-anchor="middle" x="1259" y="-2181.5" font-family="Helvetica,sans-Serif" font-size="10.00"> </text>
</a>
</g>
</g>
<!-- Node16&#45;&gt;Node3 -->
<g id="edge15" class="edge">
<title>Node16&#45;&gt;Node3</title>
<path fill="none" stroke="#404040" d="M1258.39,-2174.34C1256.98,-2134.96 1252.33,-2065.34 1237,-2046 1156.92,-1944.99 1005.21,-1907.06 908.8,-1892.88"/>
<polygon fill="none" stroke="#404040" points="908.63,-1892.86 902.13,-1895.98 896.75,-1891.19 903.25,-1888.06 908.63,-1892.86"/>
<text text-anchor="middle" x="1276" y="-2093" font-family="Helvetica,sans-Serif" font-size="10.00"> +identity</text>
</g>
<!-- Node17 -->
<g id="node17" class="node">
<title>Node17</title>
<g id="a_node17"><a xlink:title=" ">
<polygon fill="white" stroke="#bfbfbf" points="1301,-2174.5 1301,-2231.5 1351,-2231.5 1351,-2174.5 1301,-2174.5"/>
<text text-anchor="middle" x="1326" y="-2219.5" font-family="Helvetica,sans-Serif" font-size="10.00">Multiply</text>
<polyline fill="none" stroke="#bfbfbf" points="1301,-2212.5 1351,-2212.5 "/>
<text text-anchor="middle" x="1326" y="-2200.5" font-family="Helvetica,sans-Serif" font-size="10.00"> </text>
<polyline fill="none" stroke="#bfbfbf" points="1301,-2193.5 1351,-2193.5 "/>
<text text-anchor="middle" x="1326" y="-2181.5" font-family="Helvetica,sans-Serif" font-size="10.00"> </text>
</a>
</g>
</g>
<!-- Node17&#45;&gt;Node3 -->
<g id="edge16" class="edge">
<title>Node17&#45;&gt;Node3</title>
<path fill="none" stroke="#404040" d="M1329.33,-2174.25C1331.83,-2140.02 1330.62,-2081.96 1300,-2046 1201.8,-1930.68 1018.28,-1897.45 909.13,-1888.03"/>
<polygon fill="none" stroke="#404040" points="908.81,-1888.01 902.51,-1891.52 896.85,-1887.05 903.15,-1883.54 908.81,-1888.01"/>
<text text-anchor="middle" x="1351" y="-2093" font-family="Helvetica,sans-Serif" font-size="10.00"> +multiply</text>
</g>
</g>
</svg>
