<?xml version="1.0" encoding="UTF-8" standalone="no"?>
<!DOCTYPE svg PUBLIC "-//W3C//DTD SVG 1.1//EN"
 "http://www.w3.org/Graphics/SVG/1.1/DTD/svg11.dtd">
<!-- Generated by graphviz version 3.0.0 (20221109.1736)
 -->
<!-- Title: fcarouge::kalman::predict Pages: 1 -->
<svg width="301pt" height="182pt"
 viewBox="0.00 0.00 301.00 181.50" xmlns="http://www.w3.org/2000/svg" xmlns:xlink="http://www.w3.org/1999/xlink">
<g id="graph0" class="graph" transform="scale(1 1) rotate(0) translate(4 177.5)">
<title>fcarouge::kalman::predict</title>
<polygon fill="white" stroke="transparent" points="-4,4 -4,-177.5 297,-177.5 297,4 -4,4"/>
<!-- Node1 -->
<g id="node1" class="node">
<title>Node1</title>
<g id="a_node1"><a xlink:title=" ">
<polygon fill="#bfbfbf" stroke="black" points="169,-71.5 169,-90.5 293,-90.5 293,-71.5 169,-71.5"/>
<text text-anchor="middle" x="231" y="-78.5" font-family="Helvetica,sans-Serif" font-size="10.00">fcarouge::kalman::predict</text>
</a>
</g>
</g>
<!-- Node2 -->
<g id="node2" class="node">
<title>Node2</title>
<g id="a_node2"><a xlink:href="namespacefcarouge_1_1benchmark_1_1anonymous__namespace_02eigen__predict__x1x_8cpp_03.xhtml#ad46931b27b2da87e85e386a668513266" target="_top" xlink:title=" ">
<polygon fill="white" stroke="black" points="3.5,-121 3.5,-173 129.5,-173 129.5,-121 3.5,-121"/>
<text text-anchor="start" x="11.5" y="-161" font-family="Helvetica,sans-Serif" font-size="10.00">fcarouge::benchmark</text>
<text text-anchor="start" x="11.5" y="-150" font-family="Helvetica,sans-Serif" font-size="10.00">::anonymous_namespace</text>
<text text-anchor="start" x="11.5" y="-139" font-family="Helvetica,sans-Serif" font-size="10.00">{eigen_predict_x1x::cpp}</text>
<text text-anchor="middle" x="66.5" y="-128" font-family="Helvetica,sans-Serif" font-size="10.00">::bench</text>
</a>
</g>
</g>
<!-- Node1&#45;&gt;Node2 -->
<g id="edge1" class="edge">
<title>Node1&#45;&gt;Node2</title>
<path fill="none" stroke="midnightblue" d="M197.1,-94.36C177.77,-102.21 152.69,-112.4 129.76,-121.71"/>
<polygon fill="midnightblue" stroke="midnightblue" points="198.42,-97.6 206.37,-90.6 195.79,-91.12 198.42,-97.6"/>
</g>
<!-- Node3 -->
<g id="node3" class="node">
<title>Node3</title>
<g id="a_node3"><a xlink:href="namespacefcarouge_1_1benchmark_1_1anonymous__namespace_02predict__1x1x0_8cpp_03.xhtml#a6caf56d33c3263048fd278be894f6eff" target="_top" xlink:title=" ">
<polygon fill="white" stroke="black" points="0,-60.5 0,-101.5 133,-101.5 133,-60.5 0,-60.5"/>
<text text-anchor="start" x="8" y="-89.5" font-family="Helvetica,sans-Serif" font-size="10.00">fcarouge::benchmark</text>
<text text-anchor="start" x="8" y="-78.5" font-family="Helvetica,sans-Serif" font-size="10.00">::anonymous_namespace</text>
<text text-anchor="middle" x="66.5" y="-67.5" font-family="Helvetica,sans-Serif" font-size="10.00">{predict_1x1x0::cpp}::bench</text>
</a>
</g>
</g>
<!-- Node1&#45;&gt;Node3 -->
<g id="edge2" class="edge">
<title>Node1&#45;&gt;Node3</title>
<path fill="none" stroke="midnightblue" d="M158.39,-81C149.97,-81 141.42,-81 133.09,-81"/>
<polygon fill="midnightblue" stroke="midnightblue" points="158.57,-84.5 168.57,-81 158.57,-77.5 158.57,-84.5"/>
</g>
<!-- Node4 -->
<g id="node4" class="node">
<title>Node4</title>
<g id="a_node4"><a xlink:href="namespacefcarouge_1_1benchmark_1_1anonymous__namespace_02predict__1x1x1_8cpp_03.xhtml#a453f0ffca8059675ac4b4a114d0f5e73" target="_top" xlink:title=" ">
<polygon fill="white" stroke="black" points="0,-0.5 0,-41.5 133,-41.5 133,-0.5 0,-0.5"/>
<text text-anchor="start" x="8" y="-29.5" font-family="Helvetica,sans-Serif" font-size="10.00">fcarouge::benchmark</text>
<text text-anchor="start" x="8" y="-18.5" font-family="Helvetica,sans-Serif" font-size="10.00">::anonymous_namespace</text>
<text text-anchor="middle" x="66.5" y="-7.5" font-family="Helvetica,sans-Serif" font-size="10.00">{predict_1x1x1::cpp}::bench</text>
</a>
</g>
</g>
<!-- Node1&#45;&gt;Node4 -->
<g id="edge3" class="edge">
<title>Node1&#45;&gt;Node4</title>
<path fill="none" stroke="midnightblue" d="M194.8,-68C173.86,-60.27 146.83,-50.29 123.07,-41.52"/>
<polygon fill="midnightblue" stroke="midnightblue" points="193.66,-71.31 204.25,-71.49 196.08,-64.75 193.66,-71.31"/>
</g>
</g>
</svg>
