<?xml version="1.0" encoding="UTF-8" standalone="no"?>
<!DOCTYPE svg PUBLIC "-//W3C//DTD SVG 1.1//EN"
 "http://www.w3.org/Graphics/SVG/1.1/DTD/svg11.dtd">
<!-- Generated by graphviz version 2.44.0 ()
 -->
<!-- Title: fcarouge::kalman&lt; State, Output, Input, Transpose, Symmetrize, Divide, Identity, PredictionArguments &gt; Pages: 1 -->
<svg width="962pt" height="248pt"
 viewBox="0.00 0.00 962.00 248.00" xmlns="http://www.w3.org/2000/svg" xmlns:xlink="http://www.w3.org/1999/xlink">
<g id="graph0" class="graph" transform="scale(1 1) rotate(0) translate(4 244)">
<title>fcarouge::kalman&lt; State, Output, Input, Transpose, Symmetrize, Divide, Identity, PredictionArguments &gt;</title>
<polygon fill="white" stroke="transparent" points="-4,4 -4,-244 958,-244 958,4 -4,4"/>
<!-- Node1 -->
<g id="node1" class="node">
<title>Node1</title>
<g id="a_node1"><a xlink:title=" ">
<polygon fill="#bfbfbf" stroke="black" points="463,-0.5 463,-112.5 605,-112.5 605,-0.5 463,-0.5"/>
<text text-anchor="start" x="471" y="-100.5" font-family="Helvetica,sans-Serif" font-size="10.00">fcarouge::kalman&lt; State,</text>
<text text-anchor="start" x="471" y="-89.5" font-family="Helvetica,sans-Serif" font-size="10.00"> Output, Input, Transpose,</text>
<text text-anchor="start" x="471" y="-78.5" font-family="Helvetica,sans-Serif" font-size="10.00"> Symmetrize, Divide, Identity,</text>
<text text-anchor="middle" x="534" y="-67.5" font-family="Helvetica,sans-Serif" font-size="10.00"> PredictionArguments &gt;</text>
<polyline fill="none" stroke="black" points="463,-60.5 605,-60.5 "/>
<text text-anchor="middle" x="534" y="-48.5" font-family="Helvetica,sans-Serif" font-size="10.00"> </text>
<polyline fill="none" stroke="black" points="463,-41.5 605,-41.5 "/>
<text text-anchor="start" x="471" y="-29.5" font-family="Helvetica,sans-Serif" font-size="10.00">+ predict()</text>
<text text-anchor="start" x="471" y="-18.5" font-family="Helvetica,sans-Serif" font-size="10.00">+ predict()</text>
<text text-anchor="start" x="471" y="-7.5" font-family="Helvetica,sans-Serif" font-size="10.00">+ update()</text>
</a>
</g>
</g>
<!-- Node2 -->
<g id="node2" class="node">
<title>Node2</title>
<g id="a_node2"><a xlink:title=" ">
<polygon fill="white" stroke="#bfbfbf" points="0,-166 0,-234 128,-234 128,-166 0,-166"/>
<text text-anchor="start" x="8" y="-222" font-family="Helvetica,sans-Serif" font-size="10.00">measurement_uncertainty</text>
<text text-anchor="middle" x="64" y="-211" font-family="Helvetica,sans-Serif" font-size="10.00">_r(*)()</text>
<polyline fill="none" stroke="#bfbfbf" points="0,-204 128,-204 "/>
<text text-anchor="middle" x="64" y="-192" font-family="Helvetica,sans-Serif" font-size="10.00"> </text>
<polyline fill="none" stroke="#bfbfbf" points="0,-185 128,-185 "/>
<text text-anchor="middle" x="64" y="-173" font-family="Helvetica,sans-Serif" font-size="10.00"> </text>
</a>
</g>
</g>
<!-- Node2&#45;&gt;Node1 -->
<g id="edge1" class="edge">
<title>Node2&#45;&gt;Node1</title>
<path fill="none" stroke="#404040" d="M123.7,-165.92C128.16,-163.82 132.62,-161.82 137,-160 241.38,-116.67 368.99,-87.66 450.87,-71.87"/>
<polygon fill="none" stroke="#404040" points="451.07,-71.84 456.22,-66.79 462.86,-69.59 457.71,-74.64 451.07,-71.84"/>
<text text-anchor="middle" x="255" y="-134" font-family="Helvetica,sans-Serif" font-size="10.00"> +noise_observation</text>
</g>
<!-- Node3 -->
<g id="node3" class="node">
<title>Node3</title>
<g id="a_node3"><a xlink:title=" ">
<polygon fill="white" stroke="#bfbfbf" points="146,-166 146,-234 274,-234 274,-166 146,-166"/>
<text text-anchor="start" x="154" y="-222" font-family="Helvetica,sans-Serif" font-size="10.00">control_g(*)(const</text>
<text text-anchor="middle" x="210" y="-211" font-family="Helvetica,sans-Serif" font-size="10.00"> PredictionArguments &amp;...)</text>
<polyline fill="none" stroke="#bfbfbf" points="146,-204 274,-204 "/>
<text text-anchor="middle" x="210" y="-192" font-family="Helvetica,sans-Serif" font-size="10.00"> </text>
<polyline fill="none" stroke="#bfbfbf" points="146,-185 274,-185 "/>
<text text-anchor="middle" x="210" y="-173" font-family="Helvetica,sans-Serif" font-size="10.00"> </text>
</a>
</g>
</g>
<!-- Node3&#45;&gt;Node1 -->
<g id="edge2" class="edge">
<title>Node3&#45;&gt;Node1</title>
<path fill="none" stroke="#404040" d="M271.98,-165.83C276.03,-163.82 280.06,-161.86 284,-160 338.99,-134.02 402.4,-108.06 451.6,-88.77"/>
<polygon fill="none" stroke="#404040" points="451.65,-88.75 455.79,-82.84 462.83,-84.39 458.7,-90.29 451.65,-88.75"/>
<text text-anchor="middle" x="385.5" y="-134" font-family="Helvetica,sans-Serif" font-size="10.00"> +transition_control</text>
</g>
<!-- Node4 -->
<g id="node4" class="node">
<title>Node4</title>
<g id="a_node4"><a xlink:title=" ">
<polygon fill="white" stroke="#bfbfbf" points="292.5,-166 292.5,-234 457.5,-234 457.5,-166 292.5,-166"/>
<text text-anchor="start" x="300.5" y="-222" font-family="Helvetica,sans-Serif" font-size="10.00">state_transition_f</text>
<text text-anchor="middle" x="375" y="-211" font-family="Helvetica,sans-Serif" font-size="10.00">(*)(const PredictionArguments &amp;...)</text>
<polyline fill="none" stroke="#bfbfbf" points="292.5,-204 457.5,-204 "/>
<text text-anchor="middle" x="375" y="-192" font-family="Helvetica,sans-Serif" font-size="10.00"> </text>
<polyline fill="none" stroke="#bfbfbf" points="292.5,-185 457.5,-185 "/>
<text text-anchor="middle" x="375" y="-173" font-family="Helvetica,sans-Serif" font-size="10.00"> </text>
</a>
</g>
</g>
<!-- Node4&#45;&gt;Node1 -->
<g id="edge3" class="edge">
<title>Node4&#45;&gt;Node1</title>
<path fill="none" stroke="#404040" d="M412.28,-165.82C427.44,-152.33 445.49,-136.27 462.99,-120.7"/>
<polygon fill="none" stroke="#404040" points="463.11,-120.59 464.93,-113.62 472.07,-112.61 470.25,-119.59 463.11,-120.59"/>
<text text-anchor="middle" x="487" y="-134" font-family="Helvetica,sans-Serif" font-size="10.00"> +transition_state</text>
</g>
<!-- Node5 -->
<g id="node5" class="node">
<title>Node5</title>
<g id="a_node5"><a xlink:title=" ">
<polygon fill="white" stroke="#bfbfbf" points="476,-160.5 476,-239.5 592,-239.5 592,-160.5 476,-160.5"/>
<text text-anchor="start" x="484" y="-227.5" font-family="Helvetica,sans-Serif" font-size="10.00">invoke_result_t&lt; divide</text>
<text text-anchor="start" x="484" y="-216.5" font-family="Helvetica,sans-Serif" font-size="10.00">&lt; State, State &gt;, State,</text>
<text text-anchor="middle" x="534" y="-205.5" font-family="Helvetica,sans-Serif" font-size="10.00"> State &gt;</text>
<polyline fill="none" stroke="#bfbfbf" points="476,-198.5 592,-198.5 "/>
<text text-anchor="middle" x="534" y="-186.5" font-family="Helvetica,sans-Serif" font-size="10.00"> </text>
<polyline fill="none" stroke="#bfbfbf" points="476,-179.5 592,-179.5 "/>
<text text-anchor="middle" x="534" y="-167.5" font-family="Helvetica,sans-Serif" font-size="10.00"> </text>
</a>
</g>
</g>
<!-- Node5&#45;&gt;Node1 -->
<g id="edge4" class="edge">
<title>Node5&#45;&gt;Node1</title>
<path fill="none" stroke="#404040" d="M534,-160.33C534,-149.29 534,-136.92 534,-124.69"/>
<polygon fill="none" stroke="#404040" points="534,-124.56 530,-118.56 534,-112.56 538,-118.56 534,-124.56"/>
<text text-anchor="middle" x="583.5" y="-134" font-family="Helvetica,sans-Serif" font-size="10.00"> +estimate_uncertainty</text>
</g>
<!-- Node6 -->
<g id="node6" class="node">
<title>Node6</title>
<g id="a_node6"><a xlink:title=" ">
<polygon fill="white" stroke="#bfbfbf" points="609.5,-171.5 609.5,-228.5 702.5,-228.5 702.5,-171.5 609.5,-171.5"/>
<text text-anchor="middle" x="656" y="-216.5" font-family="Helvetica,sans-Serif" font-size="10.00">observation_h(*)()</text>
<polyline fill="none" stroke="#bfbfbf" points="609.5,-209.5 702.5,-209.5 "/>
<text text-anchor="middle" x="656" y="-197.5" font-family="Helvetica,sans-Serif" font-size="10.00"> </text>
<polyline fill="none" stroke="#bfbfbf" points="609.5,-190.5 702.5,-190.5 "/>
<text text-anchor="middle" x="656" y="-178.5" font-family="Helvetica,sans-Serif" font-size="10.00"> </text>
</a>
</g>
</g>
<!-- Node6&#45;&gt;Node1 -->
<g id="edge5" class="edge">
<title>Node6&#45;&gt;Node1</title>
<path fill="none" stroke="#404040" d="M651.18,-171.38C647.91,-158.25 642.57,-142.87 634,-131 628.37,-123.2 621.67,-115.88 614.43,-109.12"/>
<polygon fill="none" stroke="#404040" points="614.03,-108.77 606.89,-107.82 605.02,-100.85 612.16,-101.81 614.03,-108.77"/>
<text text-anchor="middle" x="692" y="-134" font-family="Helvetica,sans-Serif" font-size="10.00"> +transition_observation</text>
</g>
<!-- Node7 -->
<g id="node7" class="node">
<title>Node7</title>
<g id="a_node7"><a xlink:title=" ">
<polygon fill="white" stroke="#bfbfbf" points="720,-166 720,-234 896,-234 896,-166 720,-166"/>
<text text-anchor="start" x="728" y="-222" font-family="Helvetica,sans-Serif" font-size="10.00">process_noise_uncertainty</text>
<text text-anchor="middle" x="808" y="-211" font-family="Helvetica,sans-Serif" font-size="10.00">_q(*)(const PredictionArguments &amp;...)</text>
<polyline fill="none" stroke="#bfbfbf" points="720,-204 896,-204 "/>
<text text-anchor="middle" x="808" y="-192" font-family="Helvetica,sans-Serif" font-size="10.00"> </text>
<polyline fill="none" stroke="#bfbfbf" points="720,-185 896,-185 "/>
<text text-anchor="middle" x="808" y="-173" font-family="Helvetica,sans-Serif" font-size="10.00"> </text>
</a>
</g>
</g>
<!-- Node7&#45;&gt;Node1 -->
<g id="edge6" class="edge">
<title>Node7&#45;&gt;Node1</title>
<path fill="none" stroke="#404040" d="M784.63,-165.87C774.55,-153.53 761.87,-140.28 748,-131 708.53,-104.61 658.64,-86.76 616.95,-75.26"/>
<polygon fill="none" stroke="#404040" points="616.74,-75.21 609.92,-77.53 605.15,-72.11 611.98,-69.8 616.74,-75.21"/>
<text text-anchor="middle" x="797" y="-134" font-family="Helvetica,sans-Serif" font-size="10.00"> +noise_process</text>
</g>
<!-- Node8 -->
<g id="node8" class="node">
<title>Node8</title>
<g id="a_node8"><a xlink:title=" ">
<polygon fill="white" stroke="#bfbfbf" points="914,-171.5 914,-228.5 954,-228.5 954,-171.5 914,-171.5"/>
<text text-anchor="middle" x="934" y="-216.5" font-family="Helvetica,sans-Serif" font-size="10.00">State</text>
<polyline fill="none" stroke="#bfbfbf" points="914,-209.5 954,-209.5 "/>
<text text-anchor="middle" x="934" y="-197.5" font-family="Helvetica,sans-Serif" font-size="10.00"> </text>
<polyline fill="none" stroke="#bfbfbf" points="914,-190.5 954,-190.5 "/>
<text text-anchor="middle" x="934" y="-178.5" font-family="Helvetica,sans-Serif" font-size="10.00"> </text>
</a>
</g>
</g>
<!-- Node8&#45;&gt;Node1 -->
<g id="edge7" class="edge">
<title>Node8&#45;&gt;Node1</title>
<path fill="none" stroke="#404040" d="M916.36,-171.33C912.93,-167.19 909.11,-163.24 905,-160 879.19,-139.67 868.18,-141.35 837,-131 763.91,-106.74 678.48,-86.74 617,-73.76"/>
<polygon fill="none" stroke="#404040" points="616.78,-73.72 610.09,-76.41 605.03,-71.26 611.73,-68.58 616.78,-73.72"/>
<text text-anchor="middle" x="888.5" y="-134" font-family="Helvetica,sans-Serif" font-size="10.00"> +state</text>
</g>
</g>
</svg>
