<?xml version="1.0" encoding="UTF-8" standalone="no"?>
<!DOCTYPE svg PUBLIC "-//W3C//DTD SVG 1.1//EN"
 "http://www.w3.org/Graphics/SVG/1.1/DTD/svg11.dtd">
<!-- Generated by graphviz version 3.0.0 (20220413.0106)
 -->
<!-- Title: fcarouge::kalman&lt; Type, State, Output, Input, Transpose, Symmetrize, Divide, Identity, PredictionArguments &gt; Pages: 1 -->
<svg width="1424pt" height="1679pt"
 viewBox="0.00 0.00 1423.50 1679.00" xmlns="http://www.w3.org/2000/svg" xmlns:xlink="http://www.w3.org/1999/xlink">
<g id="graph0" class="graph" transform="scale(1 1) rotate(0) translate(4 1675)">
<title>fcarouge::kalman&lt; Type, State, Output, Input, Transpose, Symmetrize, Divide, Identity, PredictionArguments &gt;</title>
<polygon fill="white" stroke="transparent" points="-4,4 -4,-1675 1419.5,-1675 1419.5,4 -4,4"/>
<!-- Node1 -->
<g id="node1" class="node">
<title>Node1</title>
<g id="a_node1"><a xlink:title="Kalman filter.">
<polygon fill="#bfbfbf" stroke="black" points="411,-0.5 411,-860.5 598,-860.5 598,-0.5 411,-0.5"/>
<text text-anchor="start" x="419" y="-848.5" font-family="Helvetica,sans-Serif" font-size="10.00">fcarouge::kalman&lt; Type,</text>
<text text-anchor="start" x="419" y="-837.5" font-family="Helvetica,sans-Serif" font-size="10.00"> State, Output, Input,</text>
<text text-anchor="start" x="419" y="-826.5" font-family="Helvetica,sans-Serif" font-size="10.00"> Transpose, Symmetrize,</text>
<text text-anchor="middle" x="504.5" y="-815.5" font-family="Helvetica,sans-Serif" font-size="10.00"> Divide, Identity, PredictionArguments &gt;</text>
<polyline fill="none" stroke="black" points="411,-808.5 598,-808.5 "/>
<text text-anchor="middle" x="504.5" y="-796.5" font-family="Helvetica,sans-Serif" font-size="10.00"> </text>
<polyline fill="none" stroke="black" points="411,-789.5 598,-789.5 "/>
<text text-anchor="start" x="419" y="-777.5" font-family="Helvetica,sans-Serif" font-size="10.00">+ kalman()</text>
<text text-anchor="start" x="419" y="-766.5" font-family="Helvetica,sans-Serif" font-size="10.00">+ kalman()</text>
<text text-anchor="start" x="419" y="-755.5" font-family="Helvetica,sans-Serif" font-size="10.00">+ kalman()</text>
<text text-anchor="start" x="419" y="-744.5" font-family="Helvetica,sans-Serif" font-size="10.00">+ operator=()</text>
<text text-anchor="start" x="419" y="-733.5" font-family="Helvetica,sans-Serif" font-size="10.00">+ operator=()</text>
<text text-anchor="start" x="419" y="-722.5" font-family="Helvetica,sans-Serif" font-size="10.00">+ ~kalman()</text>
<text text-anchor="start" x="419" y="-711.5" font-family="Helvetica,sans-Serif" font-size="10.00">+ x()</text>
<text text-anchor="start" x="419" y="-700.5" font-family="Helvetica,sans-Serif" font-size="10.00">+ x()</text>
<text text-anchor="start" x="419" y="-689.5" font-family="Helvetica,sans-Serif" font-size="10.00">+ z()</text>
<text text-anchor="start" x="419" y="-678.5" font-family="Helvetica,sans-Serif" font-size="10.00">+ u()</text>
<text text-anchor="start" x="419" y="-667.5" font-family="Helvetica,sans-Serif" font-size="10.00">+ p()</text>
<text text-anchor="start" x="419" y="-656.5" font-family="Helvetica,sans-Serif" font-size="10.00">+ p()</text>
<text text-anchor="start" x="419" y="-645.5" font-family="Helvetica,sans-Serif" font-size="10.00">+ q()</text>
<text text-anchor="start" x="419" y="-634.5" font-family="Helvetica,sans-Serif" font-size="10.00">+ q()</text>
<text text-anchor="start" x="419" y="-623.5" font-family="Helvetica,sans-Serif" font-size="10.00">+ q()</text>
<text text-anchor="start" x="419" y="-612.5" font-family="Helvetica,sans-Serif" font-size="10.00">+ r()</text>
<text text-anchor="start" x="419" y="-601.5" font-family="Helvetica,sans-Serif" font-size="10.00">+ r()</text>
<text text-anchor="start" x="419" y="-590.5" font-family="Helvetica,sans-Serif" font-size="10.00">+ r()</text>
<text text-anchor="start" x="419" y="-579.5" font-family="Helvetica,sans-Serif" font-size="10.00">+ f()</text>
<text text-anchor="start" x="419" y="-568.5" font-family="Helvetica,sans-Serif" font-size="10.00">+ f()</text>
<text text-anchor="start" x="419" y="-557.5" font-family="Helvetica,sans-Serif" font-size="10.00">+ f()</text>
<text text-anchor="start" x="419" y="-546.5" font-family="Helvetica,sans-Serif" font-size="10.00">+ h()</text>
<text text-anchor="start" x="419" y="-535.5" font-family="Helvetica,sans-Serif" font-size="10.00">+ h()</text>
<text text-anchor="start" x="419" y="-524.5" font-family="Helvetica,sans-Serif" font-size="10.00">+ h()</text>
<text text-anchor="start" x="419" y="-513.5" font-family="Helvetica,sans-Serif" font-size="10.00">+ g()</text>
<text text-anchor="start" x="419" y="-502.5" font-family="Helvetica,sans-Serif" font-size="10.00">+ g()</text>
<text text-anchor="start" x="419" y="-491.5" font-family="Helvetica,sans-Serif" font-size="10.00">+ g()</text>
<text text-anchor="start" x="419" y="-480.5" font-family="Helvetica,sans-Serif" font-size="10.00">+ operator()()</text>
<text text-anchor="start" x="419" y="-469.5" font-family="Helvetica,sans-Serif" font-size="10.00">+ update()</text>
<text text-anchor="start" x="419" y="-458.5" font-family="Helvetica,sans-Serif" font-size="10.00">+ predict()</text>
<text text-anchor="start" x="419" y="-447.5" font-family="Helvetica,sans-Serif" font-size="10.00">* implementation</text>
<text text-anchor="start" x="419" y="-436.5" font-family="Helvetica,sans-Serif" font-size="10.00">* value_type</text>
<text text-anchor="start" x="419" y="-425.5" font-family="Helvetica,sans-Serif" font-size="10.00">* state</text>
<text text-anchor="start" x="419" y="-414.5" font-family="Helvetica,sans-Serif" font-size="10.00">* output</text>
<text text-anchor="start" x="419" y="-403.5" font-family="Helvetica,sans-Serif" font-size="10.00">* input</text>
<text text-anchor="start" x="419" y="-392.5" font-family="Helvetica,sans-Serif" font-size="10.00">* estimate_uncertainty</text>
<text text-anchor="start" x="419" y="-381.5" font-family="Helvetica,sans-Serif" font-size="10.00">* process_uncertainty</text>
<text text-anchor="start" x="419" y="-370.5" font-family="Helvetica,sans-Serif" font-size="10.00">* output_uncertainty</text>
<text text-anchor="start" x="419" y="-359.5" font-family="Helvetica,sans-Serif" font-size="10.00">* state_transition</text>
<text text-anchor="start" x="419" y="-348.5" font-family="Helvetica,sans-Serif" font-size="10.00">* output_model</text>
<text text-anchor="start" x="419" y="-337.5" font-family="Helvetica,sans-Serif" font-size="10.00">* input_control</text>
<text text-anchor="start" x="419" y="-326.5" font-family="Helvetica,sans-Serif" font-size="10.00">* kalman()</text>
<text text-anchor="start" x="419" y="-315.5" font-family="Helvetica,sans-Serif" font-size="10.00">* kalman()</text>
<text text-anchor="start" x="419" y="-304.5" font-family="Helvetica,sans-Serif" font-size="10.00">* kalman()</text>
<text text-anchor="start" x="419" y="-293.5" font-family="Helvetica,sans-Serif" font-size="10.00">* operator=()</text>
<text text-anchor="start" x="419" y="-282.5" font-family="Helvetica,sans-Serif" font-size="10.00">* operator=()</text>
<text text-anchor="start" x="419" y="-271.5" font-family="Helvetica,sans-Serif" font-size="10.00">* ~kalman()</text>
<text text-anchor="start" x="419" y="-260.5" font-family="Helvetica,sans-Serif" font-size="10.00">* x()</text>
<text text-anchor="start" x="419" y="-249.5" font-family="Helvetica,sans-Serif" font-size="10.00">* x()</text>
<text text-anchor="start" x="419" y="-238.5" font-family="Helvetica,sans-Serif" font-size="10.00">* z()</text>
<text text-anchor="start" x="419" y="-227.5" font-family="Helvetica,sans-Serif" font-size="10.00">* u()</text>
<text text-anchor="start" x="419" y="-216.5" font-family="Helvetica,sans-Serif" font-size="10.00">* p()</text>
<text text-anchor="start" x="419" y="-205.5" font-family="Helvetica,sans-Serif" font-size="10.00">* p()</text>
<text text-anchor="start" x="419" y="-194.5" font-family="Helvetica,sans-Serif" font-size="10.00">* q()</text>
<text text-anchor="start" x="419" y="-183.5" font-family="Helvetica,sans-Serif" font-size="10.00">* q()</text>
<text text-anchor="start" x="419" y="-172.5" font-family="Helvetica,sans-Serif" font-size="10.00">* q()</text>
<text text-anchor="start" x="419" y="-161.5" font-family="Helvetica,sans-Serif" font-size="10.00">* r()</text>
<text text-anchor="start" x="419" y="-150.5" font-family="Helvetica,sans-Serif" font-size="10.00">* r()</text>
<text text-anchor="start" x="419" y="-139.5" font-family="Helvetica,sans-Serif" font-size="10.00">* r()</text>
<text text-anchor="start" x="419" y="-128.5" font-family="Helvetica,sans-Serif" font-size="10.00">* f()</text>
<text text-anchor="start" x="419" y="-117.5" font-family="Helvetica,sans-Serif" font-size="10.00">* f()</text>
<text text-anchor="start" x="419" y="-106.5" font-family="Helvetica,sans-Serif" font-size="10.00">* f()</text>
<text text-anchor="start" x="419" y="-95.5" font-family="Helvetica,sans-Serif" font-size="10.00">* h()</text>
<text text-anchor="start" x="419" y="-84.5" font-family="Helvetica,sans-Serif" font-size="10.00">* h()</text>
<text text-anchor="start" x="419" y="-73.5" font-family="Helvetica,sans-Serif" font-size="10.00">* h()</text>
<text text-anchor="start" x="419" y="-62.5" font-family="Helvetica,sans-Serif" font-size="10.00">* g()</text>
<text text-anchor="start" x="419" y="-51.5" font-family="Helvetica,sans-Serif" font-size="10.00">* g()</text>
<text text-anchor="start" x="419" y="-40.5" font-family="Helvetica,sans-Serif" font-size="10.00">* g()</text>
<text text-anchor="start" x="419" y="-29.5" font-family="Helvetica,sans-Serif" font-size="10.00">* operator()()</text>
<text text-anchor="start" x="419" y="-18.5" font-family="Helvetica,sans-Serif" font-size="10.00">* update()</text>
<text text-anchor="start" x="419" y="-7.5" font-family="Helvetica,sans-Serif" font-size="10.00">* predict()</text>
</a>
</g>
</g>
<!-- Node2 -->
<g id="node2" class="node">
<title>Node2</title>
<g id="a_node2"><a xlink:href="structfcarouge_1_1internal_1_1kalman.xhtml" target="_top" xlink:title=" ">
<polygon fill="white" stroke="black" points="434,-908.5 434,-1174.5 575,-1174.5 575,-908.5 434,-908.5"/>
<text text-anchor="start" x="442" y="-1162.5" font-family="Helvetica,sans-Serif" font-size="10.00">fcarouge::internal</text>
<text text-anchor="start" x="442" y="-1151.5" font-family="Helvetica,sans-Serif" font-size="10.00">::kalman&lt; double, double,</text>
<text text-anchor="start" x="442" y="-1140.5" font-family="Helvetica,sans-Serif" font-size="10.00"> double, internal::transpose,</text>
<text text-anchor="start" x="442" y="-1129.5" font-family="Helvetica,sans-Serif" font-size="10.00"> internal::symmetrize, internal</text>
<text text-anchor="start" x="442" y="-1118.5" font-family="Helvetica,sans-Serif" font-size="10.00">::divide, internal::identity,</text>
<text text-anchor="middle" x="504.5" y="-1107.5" font-family="Helvetica,sans-Serif" font-size="10.00"> PredictionArguments... &gt;</text>
<polyline fill="none" stroke="black" points="434,-1100.5 575,-1100.5 "/>
<text text-anchor="middle" x="504.5" y="-1088.5" font-family="Helvetica,sans-Serif" font-size="10.00"> </text>
<polyline fill="none" stroke="black" points="434,-1081.5 575,-1081.5 "/>
<text text-anchor="start" x="442" y="-1069.5" font-family="Helvetica,sans-Serif" font-size="10.00">+ update()</text>
<text text-anchor="start" x="442" y="-1058.5" font-family="Helvetica,sans-Serif" font-size="10.00">+ predict()</text>
<text text-anchor="start" x="442" y="-1047.5" font-family="Helvetica,sans-Serif" font-size="10.00">+ predict()</text>
<text text-anchor="start" x="442" y="-1036.5" font-family="Helvetica,sans-Serif" font-size="10.00">* state</text>
<text text-anchor="start" x="442" y="-1025.5" font-family="Helvetica,sans-Serif" font-size="10.00">* output</text>
<text text-anchor="start" x="442" y="-1014.5" font-family="Helvetica,sans-Serif" font-size="10.00">* input</text>
<text text-anchor="start" x="442" y="-1003.5" font-family="Helvetica,sans-Serif" font-size="10.00">* estimate_uncertainty</text>
<text text-anchor="start" x="442" y="-992.5" font-family="Helvetica,sans-Serif" font-size="10.00">* process_uncertainty</text>
<text text-anchor="start" x="442" y="-981.5" font-family="Helvetica,sans-Serif" font-size="10.00">* output_uncertainty</text>
<text text-anchor="start" x="442" y="-970.5" font-family="Helvetica,sans-Serif" font-size="10.00">* state_transition</text>
<text text-anchor="start" x="442" y="-959.5" font-family="Helvetica,sans-Serif" font-size="10.00">* output_model</text>
<text text-anchor="start" x="442" y="-948.5" font-family="Helvetica,sans-Serif" font-size="10.00">* input_control</text>
<text text-anchor="start" x="442" y="-937.5" font-family="Helvetica,sans-Serif" font-size="10.00">* update()</text>
<text text-anchor="start" x="442" y="-926.5" font-family="Helvetica,sans-Serif" font-size="10.00">* predict()</text>
<text text-anchor="start" x="442" y="-915.5" font-family="Helvetica,sans-Serif" font-size="10.00">* predict()</text>
</a>
</g>
</g>
<!-- Node2&#45;&gt;Node1 -->
<g id="edge1" class="edge">
<title>Node2&#45;&gt;Node1</title>
<path fill="none" stroke="#404040" d="M504.5,-908.36C504.5,-897.01 504.5,-885.18 504.5,-872.99"/>
<polygon fill="none" stroke="#404040" points="504.5,-872.68 500.5,-866.68 504.5,-860.68 508.5,-866.68 504.5,-872.68"/>
<text text-anchor="middle" x="516.5" y="-882" font-family="Helvetica,sans-Serif" font-size="10.00"> &#45;filter</text>
</g>
<!-- Node3 -->
<g id="node3" class="node">
<title>Node3</title>
<g id="a_node3"><a xlink:href="classdouble.xhtml" target="_top" xlink:title=" ">
<polygon fill="white" stroke="black" points="0,-1371 0,-1428 45,-1428 45,-1371 0,-1371"/>
<text text-anchor="middle" x="22.5" y="-1416" font-family="Helvetica,sans-Serif" font-size="10.00">double</text>
<polyline fill="none" stroke="black" points="0,-1409 45,-1409 "/>
<text text-anchor="middle" x="22.5" y="-1397" font-family="Helvetica,sans-Serif" font-size="10.00"> </text>
<polyline fill="none" stroke="black" points="0,-1390 45,-1390 "/>
<text text-anchor="middle" x="22.5" y="-1378" font-family="Helvetica,sans-Serif" font-size="10.00"> </text>
</a>
</g>
</g>
<!-- Node3&#45;&gt;Node2 -->
<g id="edge2" class="edge">
<title>Node3&#45;&gt;Node2</title>
<path fill="none" stroke="#404040" d="M25.53,-1370.85C29.31,-1345.13 37.46,-1306.46 54.5,-1277 81.09,-1231.03 95.23,-1222.34 139.5,-1193 228.9,-1133.75 345.37,-1090.71 422.42,-1066.19"/>
<polygon fill="none" stroke="#404040" points="422.52,-1066.16 427.04,-1060.55 433.97,-1062.56 429.44,-1068.18 422.52,-1066.16"/>
<text text-anchor="middle" x="146" y="-1223.5" font-family="Helvetica,sans-Serif" font-size="10.00"> +x</text>
</g>
<!-- Node4 -->
<g id="node4" class="node">
<title>Node4</title>
<g id="a_node4"><a xlink:href="classstd_1_1invoke__result__t_3_01internal_1_1divide_3_01double_00_01double_01_4_00_01double_00_01double_01_4.xhtml" target="_top" xlink:title=" ">
<polygon fill="white" stroke="black" points="63.5,-1360 63.5,-1439 185.5,-1439 185.5,-1360 63.5,-1360"/>
<text text-anchor="start" x="71.5" y="-1427" font-family="Helvetica,sans-Serif" font-size="10.00">invoke_result_t&lt; internal</text>
<text text-anchor="start" x="71.5" y="-1416" font-family="Helvetica,sans-Serif" font-size="10.00">::divide&lt; double, double</text>
<text text-anchor="middle" x="124.5" y="-1405" font-family="Helvetica,sans-Serif" font-size="10.00"> &gt;, double, double &gt;</text>
<polyline fill="none" stroke="black" points="63.5,-1398 185.5,-1398 "/>
<text text-anchor="middle" x="124.5" y="-1386" font-family="Helvetica,sans-Serif" font-size="10.00"> </text>
<polyline fill="none" stroke="black" points="63.5,-1379 185.5,-1379 "/>
<text text-anchor="middle" x="124.5" y="-1367" font-family="Helvetica,sans-Serif" font-size="10.00"> </text>
</a>
</g>
</g>
<!-- Node4&#45;&gt;Node2 -->
<g id="edge3" class="edge">
<title>Node4&#45;&gt;Node2</title>
<path fill="none" stroke="#404040" d="M128.87,-1359.97C135.8,-1315.01 153.19,-1240.74 195.5,-1193 255.45,-1125.35 352.65,-1085.06 422.02,-1063.44"/>
<polygon fill="none" stroke="#404040" points="422.29,-1063.36 426.87,-1057.79 433.77,-1059.88 429.19,-1065.45 422.29,-1063.36"/>
<text text-anchor="middle" x="201.5" y="-1251" font-family="Helvetica,sans-Serif" font-size="10.00"> +f</text>
<text text-anchor="middle" x="201.5" y="-1240" font-family="Helvetica,sans-Serif" font-size="10.00">+g</text>
<text text-anchor="middle" x="201.5" y="-1229" font-family="Helvetica,sans-Serif" font-size="10.00">+h</text>
<text text-anchor="middle" x="201.5" y="-1218" font-family="Helvetica,sans-Serif" font-size="10.00">+p</text>
<text text-anchor="middle" x="201.5" y="-1207" font-family="Helvetica,sans-Serif" font-size="10.00">+q</text>
<text text-anchor="middle" x="201.5" y="-1196" font-family="Helvetica,sans-Serif" font-size="10.00">+r</text>
</g>
<!-- Node5 -->
<g id="node5" class="node">
<title>Node5</title>
<g id="a_node5"><a xlink:title=" ">
<polygon fill="white" stroke="black" points="161.5,-1602.5 161.5,-1659.5 291.5,-1659.5 291.5,-1602.5 161.5,-1602.5"/>
<text text-anchor="middle" x="226.5" y="-1647.5" font-family="Helvetica,sans-Serif" font-size="10.00">function&lt; output_model()&gt;</text>
<polyline fill="none" stroke="black" points="161.5,-1640.5 291.5,-1640.5 "/>
<text text-anchor="middle" x="226.5" y="-1628.5" font-family="Helvetica,sans-Serif" font-size="10.00"> </text>
<polyline fill="none" stroke="black" points="161.5,-1621.5 291.5,-1621.5 "/>
<text text-anchor="middle" x="226.5" y="-1609.5" font-family="Helvetica,sans-Serif" font-size="10.00"> </text>
</a>
</g>
</g>
<!-- Node5&#45;&gt;Node2 -->
<g id="edge4" class="edge">
<title>Node5&#45;&gt;Node2</title>
<path fill="none" stroke="#404040" d="M220.94,-1602.16C209.99,-1540.18 190.98,-1387.56 243.5,-1277 281.94,-1196.08 362.35,-1130.75 423.82,-1089.79"/>
<polygon fill="none" stroke="#404040" points="423.86,-1089.76 426.69,-1083.13 433.9,-1083.18 431.08,-1089.82 423.86,-1089.76"/>
<text text-anchor="middle" x="301" y="-1397" font-family="Helvetica,sans-Serif" font-size="10.00"> +transition_observation_h</text>
</g>
<!-- Node11 -->
<g id="node11" class="node">
<title>Node11</title>
<g id="a_node11"><a xlink:href="structfcarouge_1_1internal_1_1kalman.xhtml" target="_top" xlink:title=" ">
<polygon fill="white" stroke="black" points="887,-1277.5 887,-1521.5 1074,-1521.5 1074,-1277.5 887,-1277.5"/>
<text text-anchor="start" x="895" y="-1509.5" font-family="Helvetica,sans-Serif" font-size="10.00">fcarouge::internal</text>
<text text-anchor="start" x="895" y="-1498.5" font-family="Helvetica,sans-Serif" font-size="10.00">::kalman&lt; State, Output,</text>
<text text-anchor="start" x="895" y="-1487.5" font-family="Helvetica,sans-Serif" font-size="10.00"> Input, Transpose, Symmetrize,</text>
<text text-anchor="middle" x="980.5" y="-1476.5" font-family="Helvetica,sans-Serif" font-size="10.00"> Divide, Identity, PredictionArguments &gt;</text>
<polyline fill="none" stroke="black" points="887,-1469.5 1074,-1469.5 "/>
<text text-anchor="middle" x="980.5" y="-1457.5" font-family="Helvetica,sans-Serif" font-size="10.00"> </text>
<polyline fill="none" stroke="black" points="887,-1450.5 1074,-1450.5 "/>
<text text-anchor="start" x="895" y="-1438.5" font-family="Helvetica,sans-Serif" font-size="10.00">+ update()</text>
<text text-anchor="start" x="895" y="-1427.5" font-family="Helvetica,sans-Serif" font-size="10.00">+ predict()</text>
<text text-anchor="start" x="895" y="-1416.5" font-family="Helvetica,sans-Serif" font-size="10.00">+ predict()</text>
<text text-anchor="start" x="895" y="-1405.5" font-family="Helvetica,sans-Serif" font-size="10.00">* state</text>
<text text-anchor="start" x="895" y="-1394.5" font-family="Helvetica,sans-Serif" font-size="10.00">* output</text>
<text text-anchor="start" x="895" y="-1383.5" font-family="Helvetica,sans-Serif" font-size="10.00">* input</text>
<text text-anchor="start" x="895" y="-1372.5" font-family="Helvetica,sans-Serif" font-size="10.00">* estimate_uncertainty</text>
<text text-anchor="start" x="895" y="-1361.5" font-family="Helvetica,sans-Serif" font-size="10.00">* process_uncertainty</text>
<text text-anchor="start" x="895" y="-1350.5" font-family="Helvetica,sans-Serif" font-size="10.00">* output_uncertainty</text>
<text text-anchor="start" x="895" y="-1339.5" font-family="Helvetica,sans-Serif" font-size="10.00">* state_transition</text>
<text text-anchor="start" x="895" y="-1328.5" font-family="Helvetica,sans-Serif" font-size="10.00">* output_model</text>
<text text-anchor="start" x="895" y="-1317.5" font-family="Helvetica,sans-Serif" font-size="10.00">* input_control</text>
<text text-anchor="start" x="895" y="-1306.5" font-family="Helvetica,sans-Serif" font-size="10.00">* update()</text>
<text text-anchor="start" x="895" y="-1295.5" font-family="Helvetica,sans-Serif" font-size="10.00">* predict()</text>
<text text-anchor="start" x="895" y="-1284.5" font-family="Helvetica,sans-Serif" font-size="10.00">* predict()</text>
</a>
</g>
</g>
<!-- Node5&#45;&gt;Node11 -->
<g id="edge16" class="edge">
<title>Node5&#45;&gt;Node11</title>
<path fill="none" stroke="#404040" d="M274.22,-1602.37C313.84,-1581 372.41,-1552.94 427.5,-1540 475.67,-1528.68 827.78,-1543.18 872.5,-1522 873.71,-1521.43 874.92,-1520.83 876.11,-1520.22"/>
<polygon fill="none" stroke="#404040" points="876.24,-1520.15 879.46,-1513.69 886.66,-1514.19 883.43,-1520.64 876.24,-1520.15"/>
<text text-anchor="middle" x="485" y="-1554" font-family="Helvetica,sans-Serif" font-size="10.00"> +transition_observation_h</text>
</g>
<!-- Node6 -->
<g id="node6" class="node">
<title>Node6</title>
<g id="a_node6"><a xlink:title=" ">
<polygon fill="white" stroke="black" points="346,-1602.5 346,-1659.5 497,-1659.5 497,-1602.5 346,-1602.5"/>
<text text-anchor="middle" x="421.5" y="-1647.5" font-family="Helvetica,sans-Serif" font-size="10.00">function&lt; output_uncertainty()&gt;</text>
<polyline fill="none" stroke="black" points="346,-1640.5 497,-1640.5 "/>
<text text-anchor="middle" x="421.5" y="-1628.5" font-family="Helvetica,sans-Serif" font-size="10.00"> </text>
<polyline fill="none" stroke="black" points="346,-1621.5 497,-1621.5 "/>
<text text-anchor="middle" x="421.5" y="-1609.5" font-family="Helvetica,sans-Serif" font-size="10.00"> </text>
</a>
</g>
</g>
<!-- Node6&#45;&gt;Node2 -->
<g id="edge5" class="edge">
<title>Node6&#45;&gt;Node2</title>
<path fill="none" stroke="#404040" d="M400.39,-1602.45C394.74,-1593.53 389.4,-1583.28 386.5,-1573 350.73,-1446.4 356.11,-1405 386.5,-1277 395.36,-1239.69 411.14,-1201.57 428.34,-1167.21"/>
<polygon fill="none" stroke="#404040" points="428.51,-1166.87 427.68,-1159.71 433.97,-1156.19 434.8,-1163.35 428.51,-1166.87"/>
<text text-anchor="middle" x="434.5" y="-1397" font-family="Helvetica,sans-Serif" font-size="10.00"> +noise_observation_r</text>
</g>
<!-- Node6&#45;&gt;Node11 -->
<g id="edge17" class="edge">
<title>Node6&#45;&gt;Node11</title>
<path fill="none" stroke="#404040" d="M493.64,-1602.4C511.6,-1594.13 530.33,-1584.22 546.5,-1573 563.54,-1561.18 560.59,-1548.52 579.5,-1540 638.97,-1513.2 813.84,-1550.54 872.5,-1522 873.74,-1521.4 874.97,-1520.78 876.19,-1520.13"/>
<polygon fill="none" stroke="#404040" points="876.6,-1519.89 879.76,-1513.41 886.96,-1513.83 883.8,-1520.31 876.6,-1519.89"/>
<text text-anchor="middle" x="627.5" y="-1554" font-family="Helvetica,sans-Serif" font-size="10.00"> +noise_observation_r</text>
</g>
<!-- Node7 -->
<g id="node7" class="node">
<title>Node7</title>
<g id="a_node7"><a xlink:title=" ">
<polygon fill="white" stroke="black" points="533,-1597 533,-1665 694,-1665 694,-1597 533,-1597"/>
<text text-anchor="start" x="541" y="-1653" font-family="Helvetica,sans-Serif" font-size="10.00">function&lt; state_transition</text>
<text text-anchor="middle" x="613.5" y="-1642" font-family="Helvetica,sans-Serif" font-size="10.00">(const PredictionArguments &amp;...)&gt;</text>
<polyline fill="none" stroke="black" points="533,-1635 694,-1635 "/>
<text text-anchor="middle" x="613.5" y="-1623" font-family="Helvetica,sans-Serif" font-size="10.00"> </text>
<polyline fill="none" stroke="black" points="533,-1616 694,-1616 "/>
<text text-anchor="middle" x="613.5" y="-1604" font-family="Helvetica,sans-Serif" font-size="10.00"> </text>
</a>
</g>
</g>
<!-- Node7&#45;&gt;Node2 -->
<g id="edge6" class="edge">
<title>Node7&#45;&gt;Node2</title>
<path fill="none" stroke="#404040" d="M532.86,-1599.32C523.69,-1596.3 514.44,-1593.45 505.5,-1591 464.48,-1579.74 438.6,-1605.78 411.5,-1573 360.48,-1511.29 478.15,-1527.34 482.5,-1522 557.75,-1429.74 555.86,-1291.11 539.49,-1186.61"/>
<polygon fill="none" stroke="#404040" points="539.48,-1186.52 534.56,-1181.25 537.54,-1174.68 542.46,-1179.96 539.48,-1186.52"/>
<text text-anchor="middle" x="591.5" y="-1397" font-family="Helvetica,sans-Serif" font-size="10.00"> +transition_state_f</text>
</g>
<!-- Node7&#45;&gt;Node11 -->
<g id="edge18" class="edge">
<title>Node7&#45;&gt;Node11</title>
<path fill="none" stroke="#404040" d="M648.52,-1596.94C671.68,-1577.07 703.72,-1553.16 736.5,-1540 793.08,-1517.29 818.64,-1550.58 872.5,-1522 873.72,-1521.36 874.92,-1520.69 876.12,-1520.01"/>
<polygon fill="none" stroke="#404040" points="876.55,-1519.74 879.52,-1513.17 886.73,-1513.39 883.76,-1519.96 876.55,-1519.74"/>
<text text-anchor="middle" x="778.5" y="-1554" font-family="Helvetica,sans-Serif" font-size="10.00"> +transition_state_f</text>
</g>
<!-- Node8 -->
<g id="node8" class="node">
<title>Node8</title>
<g id="a_node8"><a xlink:title=" ">
<polygon fill="white" stroke="black" points="721,-1597 721,-1665 882,-1665 882,-1597 721,-1597"/>
<text text-anchor="start" x="729" y="-1653" font-family="Helvetica,sans-Serif" font-size="10.00">function&lt; process_uncertainty</text>
<text text-anchor="middle" x="801.5" y="-1642" font-family="Helvetica,sans-Serif" font-size="10.00">(const PredictionArguments &amp;...)&gt;</text>
<polyline fill="none" stroke="black" points="721,-1635 882,-1635 "/>
<text text-anchor="middle" x="801.5" y="-1623" font-family="Helvetica,sans-Serif" font-size="10.00"> </text>
<polyline fill="none" stroke="black" points="721,-1616 882,-1616 "/>
<text text-anchor="middle" x="801.5" y="-1604" font-family="Helvetica,sans-Serif" font-size="10.00"> </text>
</a>
</g>
</g>
<!-- Node8&#45;&gt;Node2 -->
<g id="edge7" class="edge">
<title>Node8&#45;&gt;Node2</title>
<path fill="none" stroke="#404040" d="M792.16,-1596.62C787,-1579.46 780.11,-1558.35 772.5,-1540 718.04,-1408.62 639.32,-1266.5 581.28,-1167.93"/>
<polygon fill="none" stroke="#404040" points="581.12,-1167.67 574.62,-1164.54 575.02,-1157.34 581.51,-1160.47 581.12,-1167.67"/>
<text text-anchor="middle" x="804.5" y="-1397" font-family="Helvetica,sans-Serif" font-size="10.00"> +noise_process_q</text>
</g>
<!-- Node8&#45;&gt;Node11 -->
<g id="edge19" class="edge">
<title>Node8&#45;&gt;Node11</title>
<path fill="none" stroke="#404040" d="M812.34,-1596.61C819.43,-1578.42 830.07,-1556.37 844.5,-1540 854.28,-1528.9 861.26,-1531.62 872.5,-1522 874.31,-1520.45 876.12,-1518.87 877.92,-1517.27"/>
<polygon fill="none" stroke="#404040" points="878.05,-1517.15 879.77,-1510.15 886.9,-1509.05 885.18,-1516.05 878.05,-1517.15"/>
<text text-anchor="middle" x="885.5" y="-1554" font-family="Helvetica,sans-Serif" font-size="10.00"> +noise_process_q</text>
</g>
<!-- Node9 -->
<g id="node9" class="node">
<title>Node9</title>
<g id="a_node9"><a xlink:title=" ">
<polygon fill="white" stroke="black" points="1117,-1591.5 1117,-1670.5 1254,-1670.5 1254,-1591.5 1117,-1591.5"/>
<text text-anchor="start" x="1125" y="-1658.5" font-family="Helvetica,sans-Serif" font-size="10.00">function&lt; input_control</text>
<text text-anchor="start" x="1125" y="-1647.5" font-family="Helvetica,sans-Serif" font-size="10.00">(const PredictionArguments</text>
<text text-anchor="middle" x="1185.5" y="-1636.5" font-family="Helvetica,sans-Serif" font-size="10.00"> &amp;...)&gt;</text>
<polyline fill="none" stroke="black" points="1117,-1629.5 1254,-1629.5 "/>
<text text-anchor="middle" x="1185.5" y="-1617.5" font-family="Helvetica,sans-Serif" font-size="10.00"> </text>
<polyline fill="none" stroke="black" points="1117,-1610.5 1254,-1610.5 "/>
<text text-anchor="middle" x="1185.5" y="-1598.5" font-family="Helvetica,sans-Serif" font-size="10.00"> </text>
</a>
</g>
</g>
<!-- Node9&#45;&gt;Node2 -->
<g id="edge8" class="edge">
<title>Node9&#45;&gt;Node2</title>
<path fill="none" stroke="#404040" d="M1197.56,-1591.32C1200.96,-1575.36 1202.92,-1556.73 1199.5,-1540 1165.93,-1375.73 1177.76,-1303.31 1051.5,-1193 918.79,-1077.06 704.39,-1049.67 587.32,-1043.68"/>
<polygon fill="none" stroke="#404040" points="587.25,-1043.68 581.07,-1047.4 575.26,-1043.12 581.44,-1039.41 587.25,-1043.68"/>
<text text-anchor="middle" x="1241.5" y="-1397" font-family="Helvetica,sans-Serif" font-size="10.00"> +transition_control_g</text>
</g>
<!-- Node9&#45;&gt;Node11 -->
<g id="edge20" class="edge">
<title>Node9&#45;&gt;Node11</title>
<path fill="none" stroke="#404040" d="M1126.47,-1591.33C1119.11,-1585.54 1111.92,-1579.37 1105.5,-1573 1092.58,-1560.18 1080,-1545.91 1068.12,-1531.23"/>
<polygon fill="none" stroke="#404040" points="1067.88,-1530.93 1061.02,-1528.72 1060.42,-1521.53 1067.28,-1523.74 1067.88,-1530.93"/>
<text text-anchor="middle" x="1152.5" y="-1554" font-family="Helvetica,sans-Serif" font-size="10.00"> +transition_control_g</text>
</g>
<!-- Node10 -->
<g id="node10" class="node">
<title>Node10</title>
<g id="a_node10"><a xlink:title=" ">
<polygon fill="white" stroke="black" points="1283.5,-1591.5 1283.5,-1670.5 1391.5,-1670.5 1391.5,-1591.5 1283.5,-1591.5"/>
<text text-anchor="start" x="1291.5" y="-1658.5" font-family="Helvetica,sans-Serif" font-size="10.00">function&lt; state(const</text>
<text text-anchor="start" x="1291.5" y="-1647.5" font-family="Helvetica,sans-Serif" font-size="10.00"> state &amp;, const state</text>
<text text-anchor="middle" x="1337.5" y="-1636.5" font-family="Helvetica,sans-Serif" font-size="10.00">_transition &amp;)&gt;</text>
<polyline fill="none" stroke="black" points="1283.5,-1629.5 1391.5,-1629.5 "/>
<text text-anchor="middle" x="1337.5" y="-1617.5" font-family="Helvetica,sans-Serif" font-size="10.00"> </text>
<polyline fill="none" stroke="black" points="1283.5,-1610.5 1391.5,-1610.5 "/>
<text text-anchor="middle" x="1337.5" y="-1598.5" font-family="Helvetica,sans-Serif" font-size="10.00"> </text>
</a>
</g>
</g>
<!-- Node10&#45;&gt;Node2 -->
<g id="edge9" class="edge">
<title>Node10&#45;&gt;Node2</title>
<path fill="none" stroke="#404040" d="M1344.03,-1591.49C1353.68,-1521.3 1363.66,-1371.13 1292.5,-1277 1206.16,-1162.78 771.21,-1083.57 587.06,-1054.64"/>
<polygon fill="none" stroke="#404040" points="586.89,-1054.61 580.35,-1057.64 575.03,-1052.77 581.58,-1049.74 586.89,-1054.61"/>
<text text-anchor="middle" x="1383" y="-1397" font-family="Helvetica,sans-Serif" font-size="10.00"> +predict_state</text>
</g>
<!-- Node10&#45;&gt;Node11 -->
<g id="edge21" class="edge">
<title>Node10&#45;&gt;Node11</title>
<path fill="none" stroke="#404040" d="M1283.33,-1593.03C1259.03,-1576.61 1229.95,-1557.15 1203.5,-1540 1164.97,-1515.02 1122.31,-1488.14 1084.7,-1464.71"/>
<polygon fill="none" stroke="#404040" points="1084.42,-1464.54 1077.22,-1464.77 1074.24,-1458.2 1081.44,-1457.97 1084.42,-1464.54"/>
<text text-anchor="middle" x="1284" y="-1554" font-family="Helvetica,sans-Serif" font-size="10.00"> +predict_state</text>
</g>
<!-- Node11&#45;&gt;Node2 -->
<g id="edge10" class="edge">
<title>Node11&#45;&gt;Node2</title>
<path fill="none" stroke="orange" d="M881.19,-1269.75C856.61,-1242.46 829.08,-1215.22 800.5,-1193 730.64,-1138.68 638.14,-1095.39 575.26,-1069.44"/>
<polygon fill="orange" stroke="orange" points="878.78,-1272.3 888.04,-1277.44 884.01,-1267.64 878.78,-1272.3"/>
<text text-anchor="start" x="866.5" y="-1240" font-family="Helvetica,sans-Serif" font-size="10.00"> &lt; double, double, double,</text>
<text text-anchor="start" x="866.5" y="-1229" font-family="Helvetica,sans-Serif" font-size="10.00"> internal::transpose, internal</text>
<text text-anchor="start" x="866.5" y="-1218" font-family="Helvetica,sans-Serif" font-size="10.00">::symmetrize, internal::divide,</text>
<text text-anchor="middle" x="957" y="-1207" font-family="Helvetica,sans-Serif" font-size="10.00"> internal::identity, PredictionArguments... &gt;</text>
</g>
<!-- Node12 -->
<g id="node12" class="node">
<title>Node12</title>
<g id="a_node12"><a xlink:title=" ">
<polygon fill="white" stroke="black" points="904.5,-1602.5 904.5,-1659.5 944.5,-1659.5 944.5,-1602.5 904.5,-1602.5"/>
<text text-anchor="middle" x="924.5" y="-1647.5" font-family="Helvetica,sans-Serif" font-size="10.00">State</text>
<polyline fill="none" stroke="black" points="904.5,-1640.5 944.5,-1640.5 "/>
<text text-anchor="middle" x="924.5" y="-1628.5" font-family="Helvetica,sans-Serif" font-size="10.00"> </text>
<polyline fill="none" stroke="black" points="904.5,-1621.5 944.5,-1621.5 "/>
<text text-anchor="middle" x="924.5" y="-1609.5" font-family="Helvetica,sans-Serif" font-size="10.00"> </text>
</a>
</g>
</g>
<!-- Node12&#45;&gt;Node11 -->
<g id="edge11" class="edge">
<title>Node12&#45;&gt;Node11</title>
<path fill="none" stroke="#404040" d="M926.52,-1602.2C928.16,-1584.29 930.96,-1560.6 935.5,-1540 935.97,-1537.86 936.46,-1535.7 936.97,-1533.53"/>
<polygon fill="none" stroke="#404040" points="936.98,-1533.51 934.53,-1526.72 939.85,-1521.86 942.3,-1528.64 936.98,-1533.51"/>
<text text-anchor="middle" x="942" y="-1554" font-family="Helvetica,sans-Serif" font-size="10.00"> +x</text>
</g>
<!-- Node13 -->
<g id="node13" class="node">
<title>Node13</title>
<g id="a_node13"><a xlink:title=" ">
<polygon fill="white" stroke="black" points="969.5,-1591.5 969.5,-1670.5 1085.5,-1670.5 1085.5,-1591.5 969.5,-1591.5"/>
<text text-anchor="start" x="977.5" y="-1658.5" font-family="Helvetica,sans-Serif" font-size="10.00">invoke_result_t&lt; divide</text>
<text text-anchor="start" x="977.5" y="-1647.5" font-family="Helvetica,sans-Serif" font-size="10.00">&lt; State, State &gt;, State,</text>
<text text-anchor="middle" x="1027.5" y="-1636.5" font-family="Helvetica,sans-Serif" font-size="10.00"> State &gt;</text>
<polyline fill="none" stroke="black" points="969.5,-1629.5 1085.5,-1629.5 "/>
<text text-anchor="middle" x="1027.5" y="-1617.5" font-family="Helvetica,sans-Serif" font-size="10.00"> </text>
<polyline fill="none" stroke="black" points="969.5,-1610.5 1085.5,-1610.5 "/>
<text text-anchor="middle" x="1027.5" y="-1598.5" font-family="Helvetica,sans-Serif" font-size="10.00"> </text>
</a>
</g>
</g>
<!-- Node13&#45;&gt;Node11 -->
<g id="edge12" class="edge">
<title>Node13&#45;&gt;Node11</title>
<path fill="none" stroke="#404040" d="M1021.59,-1591.37C1019.01,-1575.42 1015.82,-1556.78 1012.5,-1540 1012.09,-1537.95 1011.68,-1535.88 1011.26,-1533.8"/>
<polygon fill="none" stroke="#404040" points="1011.2,-1533.51 1006.07,-1528.44 1008.78,-1521.76 1013.91,-1526.83 1011.2,-1533.51"/>
<text text-anchor="middle" x="1023.5" y="-1565" font-family="Helvetica,sans-Serif" font-size="10.00"> +f</text>
<text text-anchor="middle" x="1023.5" y="-1554" font-family="Helvetica,sans-Serif" font-size="10.00">+p</text>
<text text-anchor="middle" x="1023.5" y="-1543" font-family="Helvetica,sans-Serif" font-size="10.00">+q</text>
</g>
<!-- Node13&#45;&gt;Node11 -->
<g id="edge13" class="edge">
<title>Node13&#45;&gt;Node11</title>
<path fill="none" stroke="#404040" d="M1032.12,-1591.41C1032.69,-1585.26 1033.19,-1578.96 1033.5,-1573 1034.27,-1558.35 1036.15,-1554.43 1033.5,-1540 1033.12,-1537.94 1032.72,-1535.87 1032.28,-1533.8"/>
<polygon fill="none" stroke="#404040" points="1032.23,-1533.56 1026.98,-1528.62 1029.52,-1521.87 1034.77,-1526.82 1032.23,-1533.56"/>
<text text-anchor="middle" x="1040.5" y="-1554" font-family="Helvetica,sans-Serif" font-size="10.00"> +r</text>
</g>
<!-- Node13&#45;&gt;Node11 -->
<g id="edge14" class="edge">
<title>Node13&#45;&gt;Node11</title>
<path fill="none" stroke="#404040" d="M973.58,-1591.35C968.73,-1585.74 964.52,-1579.61 961.5,-1573 955.93,-1560.83 952.87,-1547.7 951.61,-1534.3"/>
<polygon fill="none" stroke="#404040" points="951.58,-1533.91 947.26,-1528.14 950.93,-1521.93 955.25,-1527.71 951.58,-1533.91"/>
<text text-anchor="middle" x="968.5" y="-1554" font-family="Helvetica,sans-Serif" font-size="10.00"> +h</text>
</g>
<!-- Node13&#45;&gt;Node11 -->
<g id="edge15" class="edge">
<title>Node13&#45;&gt;Node11</title>
<path fill="none" stroke="#404040" d="M1002.2,-1591.5C999.16,-1585.5 996.44,-1579.22 994.5,-1573 990.55,-1560.36 987.54,-1546.95 985.28,-1533.42"/>
<polygon fill="none" stroke="#404040" points="985.27,-1533.38 980.41,-1528.05 983.47,-1521.52 988.32,-1526.85 985.27,-1533.38"/>
<text text-anchor="middle" x="1001.5" y="-1554" font-family="Helvetica,sans-Serif" font-size="10.00"> +g</text>
</g>
</g>
</svg>
