<?xml version="1.0" encoding="UTF-8" standalone="no"?>
<!DOCTYPE svg PUBLIC "-//W3C//DTD SVG 1.1//EN"
 "http://www.w3.org/Graphics/SVG/1.1/DTD/svg11.dtd">
<!-- Generated by graphviz version 9.0.0 (20230911.1827)
 -->
<!-- Title: fcarouge::kalman&lt; Filter &gt; Pages: 1 -->
<svg width="659pt" height="1306pt"
 viewBox="0.00 0.00 659.00 1306.00" xmlns="http://www.w3.org/2000/svg" xmlns:xlink="http://www.w3.org/1999/xlink">
<g id="graph0" class="graph" transform="scale(1 1) rotate(0) translate(4 1302)">
<title>fcarouge::kalman&lt; Filter &gt;</title>
<!-- Node1 -->
<g id="Node000001" class="node">
<title>Node1</title>
<g id="a_Node000001"><a xlink:title=" ">
<polygon fill="#999999" stroke="none" points="374,-1084 253,-1084 253,0 374,0 374,-1084"/>
<text text-anchor="start" x="257.62" y="-1070.5" font-family="Helvetica,sans-Serif" font-size="10.00">fcarouge::kalman&lt; Filter &gt;</text>
<text text-anchor="start" x="260" y="-1055.5" font-family="Helvetica,sans-Serif" font-size="10.00">&#45;</text>
<text text-anchor="start" x="270" y="-1055.5" font-family="Helvetica,sans-Serif" font-size="10.00">filter</text>
<text text-anchor="start" x="258.5" y="-1040.5" font-family="Helvetica,sans-Serif" font-size="10.00">+</text>
<text text-anchor="start" x="270" y="-1040.5" font-family="Helvetica,sans-Serif" font-size="10.00">kalman()</text>
<text text-anchor="start" x="258.5" y="-1025.5" font-family="Helvetica,sans-Serif" font-size="10.00">+</text>
<text text-anchor="start" x="270" y="-1025.5" font-family="Helvetica,sans-Serif" font-size="10.00">kalman()</text>
<text text-anchor="start" x="258.5" y="-1010.5" font-family="Helvetica,sans-Serif" font-size="10.00">+</text>
<text text-anchor="start" x="270" y="-1010.5" font-family="Helvetica,sans-Serif" font-size="10.00">kalman()</text>
<text text-anchor="start" x="258.5" y="-995.5" font-family="Helvetica,sans-Serif" font-size="10.00">+</text>
<text text-anchor="start" x="270" y="-995.5" font-family="Helvetica,sans-Serif" font-size="10.00">operator=()</text>
<text text-anchor="start" x="258.5" y="-980.5" font-family="Helvetica,sans-Serif" font-size="10.00">+</text>
<text text-anchor="start" x="270" y="-980.5" font-family="Helvetica,sans-Serif" font-size="10.00">operator=()</text>
<text text-anchor="start" x="258.5" y="-965.5" font-family="Helvetica,sans-Serif" font-size="10.00">+</text>
<text text-anchor="start" x="270" y="-965.5" font-family="Helvetica,sans-Serif" font-size="10.00">~kalman()</text>
<text text-anchor="start" x="258.5" y="-950.5" font-family="Helvetica,sans-Serif" font-size="10.00">+</text>
<text text-anchor="start" x="270" y="-950.5" font-family="Helvetica,sans-Serif" font-size="10.00">x()</text>
<text text-anchor="start" x="258.5" y="-935.5" font-family="Helvetica,sans-Serif" font-size="10.00">+</text>
<text text-anchor="start" x="270" y="-935.5" font-family="Helvetica,sans-Serif" font-size="10.00">x()</text>
<text text-anchor="start" x="258.5" y="-920.5" font-family="Helvetica,sans-Serif" font-size="10.00">+</text>
<text text-anchor="start" x="270" y="-920.5" font-family="Helvetica,sans-Serif" font-size="10.00">z()</text>
<text text-anchor="start" x="258.5" y="-905.5" font-family="Helvetica,sans-Serif" font-size="10.00">+</text>
<text text-anchor="start" x="270" y="-905.5" font-family="Helvetica,sans-Serif" font-size="10.00">u()</text>
<text text-anchor="start" x="258.5" y="-890.5" font-family="Helvetica,sans-Serif" font-size="10.00">+</text>
<text text-anchor="start" x="270" y="-890.5" font-family="Helvetica,sans-Serif" font-size="10.00">p()</text>
<text text-anchor="start" x="258.5" y="-875.5" font-family="Helvetica,sans-Serif" font-size="10.00">+</text>
<text text-anchor="start" x="270" y="-875.5" font-family="Helvetica,sans-Serif" font-size="10.00">p()</text>
<text text-anchor="start" x="258.5" y="-860.5" font-family="Helvetica,sans-Serif" font-size="10.00">+</text>
<text text-anchor="start" x="270" y="-860.5" font-family="Helvetica,sans-Serif" font-size="10.00">q()</text>
<text text-anchor="start" x="258.5" y="-845.5" font-family="Helvetica,sans-Serif" font-size="10.00">+</text>
<text text-anchor="start" x="270" y="-845.5" font-family="Helvetica,sans-Serif" font-size="10.00">q()</text>
<text text-anchor="start" x="258.5" y="-830.5" font-family="Helvetica,sans-Serif" font-size="10.00">+</text>
<text text-anchor="start" x="270" y="-830.5" font-family="Helvetica,sans-Serif" font-size="10.00">r()</text>
<text text-anchor="start" x="258.5" y="-815.5" font-family="Helvetica,sans-Serif" font-size="10.00">+</text>
<text text-anchor="start" x="270" y="-815.5" font-family="Helvetica,sans-Serif" font-size="10.00">r()</text>
<text text-anchor="start" x="258.5" y="-800.5" font-family="Helvetica,sans-Serif" font-size="10.00">+</text>
<text text-anchor="start" x="270" y="-800.5" font-family="Helvetica,sans-Serif" font-size="10.00">f()</text>
<text text-anchor="start" x="258.5" y="-785.5" font-family="Helvetica,sans-Serif" font-size="10.00">+</text>
<text text-anchor="start" x="270" y="-785.5" font-family="Helvetica,sans-Serif" font-size="10.00">f()</text>
<text text-anchor="start" x="258.5" y="-770.5" font-family="Helvetica,sans-Serif" font-size="10.00">+</text>
<text text-anchor="start" x="270" y="-770.5" font-family="Helvetica,sans-Serif" font-size="10.00">h()</text>
<text text-anchor="start" x="258.5" y="-755.5" font-family="Helvetica,sans-Serif" font-size="10.00">+</text>
<text text-anchor="start" x="270" y="-755.5" font-family="Helvetica,sans-Serif" font-size="10.00">h()</text>
<text text-anchor="start" x="258.5" y="-740.5" font-family="Helvetica,sans-Serif" font-size="10.00">+</text>
<text text-anchor="start" x="270" y="-740.5" font-family="Helvetica,sans-Serif" font-size="10.00">g()</text>
<text text-anchor="start" x="258.5" y="-725.5" font-family="Helvetica,sans-Serif" font-size="10.00">+</text>
<text text-anchor="start" x="270" y="-725.5" font-family="Helvetica,sans-Serif" font-size="10.00">g()</text>
<text text-anchor="start" x="258.5" y="-710.5" font-family="Helvetica,sans-Serif" font-size="10.00">+</text>
<text text-anchor="start" x="270" y="-710.5" font-family="Helvetica,sans-Serif" font-size="10.00">k()</text>
<text text-anchor="start" x="258.5" y="-695.5" font-family="Helvetica,sans-Serif" font-size="10.00">+</text>
<text text-anchor="start" x="270" y="-695.5" font-family="Helvetica,sans-Serif" font-size="10.00">y()</text>
<text text-anchor="start" x="258.5" y="-680.5" font-family="Helvetica,sans-Serif" font-size="10.00">+</text>
<text text-anchor="start" x="270" y="-680.5" font-family="Helvetica,sans-Serif" font-size="10.00">s()</text>
<text text-anchor="start" x="258.5" y="-665.5" font-family="Helvetica,sans-Serif" font-size="10.00">+</text>
<text text-anchor="start" x="270" y="-665.5" font-family="Helvetica,sans-Serif" font-size="10.00">transition()</text>
<text text-anchor="start" x="258.5" y="-650.5" font-family="Helvetica,sans-Serif" font-size="10.00">+</text>
<text text-anchor="start" x="270" y="-650.5" font-family="Helvetica,sans-Serif" font-size="10.00">observation()</text>
<text text-anchor="start" x="258.5" y="-635.5" font-family="Helvetica,sans-Serif" font-size="10.00">+</text>
<text text-anchor="start" x="270" y="-635.5" font-family="Helvetica,sans-Serif" font-size="10.00">predict()</text>
<text text-anchor="start" x="258.5" y="-620.5" font-family="Helvetica,sans-Serif" font-size="10.00">+</text>
<text text-anchor="start" x="270" y="-620.5" font-family="Helvetica,sans-Serif" font-size="10.00">predict()</text>
<text text-anchor="start" x="258.5" y="-605.5" font-family="Helvetica,sans-Serif" font-size="10.00">+</text>
<text text-anchor="start" x="270" y="-605.5" font-family="Helvetica,sans-Serif" font-size="10.00">update()</text>
<text text-anchor="start" x="258.5" y="-590.5" font-family="Helvetica,sans-Serif" font-size="10.00">+</text>
<text text-anchor="start" x="270" y="-590.5" font-family="Helvetica,sans-Serif" font-size="10.00">update()</text>
<text text-anchor="start" x="259.62" y="-575.5" font-family="Helvetica,sans-Serif" font-size="10.00">*</text>
<text text-anchor="start" x="270" y="-575.5" font-family="Helvetica,sans-Serif" font-size="10.00">implementation</text>
<text text-anchor="start" x="259.62" y="-560.5" font-family="Helvetica,sans-Serif" font-size="10.00">*</text>
<text text-anchor="start" x="270" y="-560.5" font-family="Helvetica,sans-Serif" font-size="10.00">state</text>
<text text-anchor="start" x="259.62" y="-545.5" font-family="Helvetica,sans-Serif" font-size="10.00">*</text>
<text text-anchor="start" x="270" y="-545.5" font-family="Helvetica,sans-Serif" font-size="10.00">output</text>
<text text-anchor="start" x="259.62" y="-530.5" font-family="Helvetica,sans-Serif" font-size="10.00">*</text>
<text text-anchor="start" x="270" y="-530.5" font-family="Helvetica,sans-Serif" font-size="10.00">estimate_uncertainty</text>
<text text-anchor="start" x="259.62" y="-515.5" font-family="Helvetica,sans-Serif" font-size="10.00">*</text>
<text text-anchor="start" x="270" y="-515.5" font-family="Helvetica,sans-Serif" font-size="10.00">gain</text>
<text text-anchor="start" x="259.62" y="-500.5" font-family="Helvetica,sans-Serif" font-size="10.00">*</text>
<text text-anchor="start" x="270" y="-500.5" font-family="Helvetica,sans-Serif" font-size="10.00">innovation</text>
<text text-anchor="start" x="259.62" y="-485.5" font-family="Helvetica,sans-Serif" font-size="10.00">*</text>
<text text-anchor="start" x="270" y="-485.5" font-family="Helvetica,sans-Serif" font-size="10.00">innovation_uncertainty</text>
<text text-anchor="start" x="259.62" y="-470.5" font-family="Helvetica,sans-Serif" font-size="10.00">*</text>
<text text-anchor="start" x="270" y="-470.5" font-family="Helvetica,sans-Serif" font-size="10.00">filter</text>
<text text-anchor="start" x="259.62" y="-455.5" font-family="Helvetica,sans-Serif" font-size="10.00">*</text>
<text text-anchor="start" x="270" y="-455.5" font-family="Helvetica,sans-Serif" font-size="10.00">kalman()</text>
<text text-anchor="start" x="259.62" y="-440.5" font-family="Helvetica,sans-Serif" font-size="10.00">*</text>
<text text-anchor="start" x="270" y="-440.5" font-family="Helvetica,sans-Serif" font-size="10.00">kalman()</text>
<text text-anchor="start" x="259.62" y="-425.5" font-family="Helvetica,sans-Serif" font-size="10.00">*</text>
<text text-anchor="start" x="270" y="-425.5" font-family="Helvetica,sans-Serif" font-size="10.00">kalman()</text>
<text text-anchor="start" x="259.62" y="-410.5" font-family="Helvetica,sans-Serif" font-size="10.00">*</text>
<text text-anchor="start" x="270" y="-410.5" font-family="Helvetica,sans-Serif" font-size="10.00">operator=()</text>
<text text-anchor="start" x="259.62" y="-395.5" font-family="Helvetica,sans-Serif" font-size="10.00">*</text>
<text text-anchor="start" x="270" y="-395.5" font-family="Helvetica,sans-Serif" font-size="10.00">operator=()</text>
<text text-anchor="start" x="259.62" y="-380.5" font-family="Helvetica,sans-Serif" font-size="10.00">*</text>
<text text-anchor="start" x="270" y="-380.5" font-family="Helvetica,sans-Serif" font-size="10.00">~kalman()</text>
<text text-anchor="start" x="259.62" y="-365.5" font-family="Helvetica,sans-Serif" font-size="10.00">*</text>
<text text-anchor="start" x="270" y="-365.5" font-family="Helvetica,sans-Serif" font-size="10.00">x()</text>
<text text-anchor="start" x="259.62" y="-350.5" font-family="Helvetica,sans-Serif" font-size="10.00">*</text>
<text text-anchor="start" x="270" y="-350.5" font-family="Helvetica,sans-Serif" font-size="10.00">x()</text>
<text text-anchor="start" x="259.62" y="-335.5" font-family="Helvetica,sans-Serif" font-size="10.00">*</text>
<text text-anchor="start" x="270" y="-335.5" font-family="Helvetica,sans-Serif" font-size="10.00">z()</text>
<text text-anchor="start" x="259.62" y="-320.5" font-family="Helvetica,sans-Serif" font-size="10.00">*</text>
<text text-anchor="start" x="270" y="-320.5" font-family="Helvetica,sans-Serif" font-size="10.00">u()</text>
<text text-anchor="start" x="259.62" y="-305.5" font-family="Helvetica,sans-Serif" font-size="10.00">*</text>
<text text-anchor="start" x="270" y="-305.5" font-family="Helvetica,sans-Serif" font-size="10.00">p()</text>
<text text-anchor="start" x="259.62" y="-290.5" font-family="Helvetica,sans-Serif" font-size="10.00">*</text>
<text text-anchor="start" x="270" y="-290.5" font-family="Helvetica,sans-Serif" font-size="10.00">p()</text>
<text text-anchor="start" x="259.62" y="-275.5" font-family="Helvetica,sans-Serif" font-size="10.00">*</text>
<text text-anchor="start" x="270" y="-275.5" font-family="Helvetica,sans-Serif" font-size="10.00">q()</text>
<text text-anchor="start" x="259.62" y="-260.5" font-family="Helvetica,sans-Serif" font-size="10.00">*</text>
<text text-anchor="start" x="270" y="-260.5" font-family="Helvetica,sans-Serif" font-size="10.00">q()</text>
<text text-anchor="start" x="259.62" y="-245.5" font-family="Helvetica,sans-Serif" font-size="10.00">*</text>
<text text-anchor="start" x="270" y="-245.5" font-family="Helvetica,sans-Serif" font-size="10.00">r()</text>
<text text-anchor="start" x="259.62" y="-230.5" font-family="Helvetica,sans-Serif" font-size="10.00">*</text>
<text text-anchor="start" x="270" y="-230.5" font-family="Helvetica,sans-Serif" font-size="10.00">r()</text>
<text text-anchor="start" x="259.62" y="-215.5" font-family="Helvetica,sans-Serif" font-size="10.00">*</text>
<text text-anchor="start" x="270" y="-215.5" font-family="Helvetica,sans-Serif" font-size="10.00">f()</text>
<text text-anchor="start" x="259.62" y="-200.5" font-family="Helvetica,sans-Serif" font-size="10.00">*</text>
<text text-anchor="start" x="270" y="-200.5" font-family="Helvetica,sans-Serif" font-size="10.00">f()</text>
<text text-anchor="start" x="259.62" y="-185.5" font-family="Helvetica,sans-Serif" font-size="10.00">*</text>
<text text-anchor="start" x="270" y="-185.5" font-family="Helvetica,sans-Serif" font-size="10.00">h()</text>
<text text-anchor="start" x="259.62" y="-170.5" font-family="Helvetica,sans-Serif" font-size="10.00">*</text>
<text text-anchor="start" x="270" y="-170.5" font-family="Helvetica,sans-Serif" font-size="10.00">h()</text>
<text text-anchor="start" x="259.62" y="-155.5" font-family="Helvetica,sans-Serif" font-size="10.00">*</text>
<text text-anchor="start" x="270" y="-155.5" font-family="Helvetica,sans-Serif" font-size="10.00">g()</text>
<text text-anchor="start" x="259.62" y="-140.5" font-family="Helvetica,sans-Serif" font-size="10.00">*</text>
<text text-anchor="start" x="270" y="-140.5" font-family="Helvetica,sans-Serif" font-size="10.00">g()</text>
<text text-anchor="start" x="259.62" y="-125.5" font-family="Helvetica,sans-Serif" font-size="10.00">*</text>
<text text-anchor="start" x="270" y="-125.5" font-family="Helvetica,sans-Serif" font-size="10.00">k()</text>
<text text-anchor="start" x="259.62" y="-110.5" font-family="Helvetica,sans-Serif" font-size="10.00">*</text>
<text text-anchor="start" x="270" y="-110.5" font-family="Helvetica,sans-Serif" font-size="10.00">y()</text>
<text text-anchor="start" x="259.62" y="-95.5" font-family="Helvetica,sans-Serif" font-size="10.00">*</text>
<text text-anchor="start" x="270" y="-95.5" font-family="Helvetica,sans-Serif" font-size="10.00">s()</text>
<text text-anchor="start" x="259.62" y="-80.5" font-family="Helvetica,sans-Serif" font-size="10.00">*</text>
<text text-anchor="start" x="270" y="-80.5" font-family="Helvetica,sans-Serif" font-size="10.00">transition()</text>
<text text-anchor="start" x="259.62" y="-65.5" font-family="Helvetica,sans-Serif" font-size="10.00">*</text>
<text text-anchor="start" x="270" y="-65.5" font-family="Helvetica,sans-Serif" font-size="10.00">observation()</text>
<text text-anchor="start" x="259.62" y="-50.5" font-family="Helvetica,sans-Serif" font-size="10.00">*</text>
<text text-anchor="start" x="270" y="-50.5" font-family="Helvetica,sans-Serif" font-size="10.00">predict()</text>
<text text-anchor="start" x="259.62" y="-35.5" font-family="Helvetica,sans-Serif" font-size="10.00">*</text>
<text text-anchor="start" x="270" y="-35.5" font-family="Helvetica,sans-Serif" font-size="10.00">predict()</text>
<text text-anchor="start" x="259.62" y="-20.5" font-family="Helvetica,sans-Serif" font-size="10.00">*</text>
<text text-anchor="start" x="270" y="-20.5" font-family="Helvetica,sans-Serif" font-size="10.00">update()</text>
<text text-anchor="start" x="259.62" y="-5.5" font-family="Helvetica,sans-Serif" font-size="10.00">*</text>
<text text-anchor="start" x="270" y="-5.5" font-family="Helvetica,sans-Serif" font-size="10.00">update()</text>
<polygon fill="#666666" stroke="#666666" points="253,-1067 253,-1067 374,-1067 374,-1067 253,-1067"/>
<polygon fill="#666666" stroke="#666666" points="253,-1052 253,-1052 268,-1052 268,-1052 253,-1052"/>
<polygon fill="#666666" stroke="#666666" points="268,-1052 268,-1052 374,-1052 374,-1052 268,-1052"/>
<polygon fill="none" stroke="#666666" points="253,0 253,-1084 374,-1084 374,0 253,0"/>
</a>
</g>
</g>
<!-- Node2 -->
<g id="Node000002" class="node">
<title>Node2</title>
<g id="a_Node000002"><a xlink:title=" ">
<polygon fill="white" stroke="none" points="364,-1191 263,-1191 263,-1120 364,-1120 364,-1191"/>
<text text-anchor="start" x="267.75" y="-1177.5" font-family="Helvetica,sans-Serif" font-size="10.00">fcarouge::internal</text>
<text text-anchor="start" x="267.75" y="-1166.25" font-family="Helvetica,sans-Serif" font-size="10.00">::conditional_member</text>
<text text-anchor="start" x="280.12" y="-1155" font-family="Helvetica,sans-Serif" font-size="10.00">_types&lt; Filter &gt;</text>
<text text-anchor="start" x="312" y="-1140.5" font-family="Helvetica,sans-Serif" font-size="10.00"> </text>
<text text-anchor="start" x="312" y="-1125.5" font-family="Helvetica,sans-Serif" font-size="10.00"> </text>
<polygon fill="#666666" stroke="#666666" points="263,-1152 263,-1152 364,-1152 364,-1152 263,-1152"/>
<polygon fill="#666666" stroke="#666666" points="263,-1137 263,-1137 364,-1137 364,-1137 263,-1137"/>
<polygon fill="none" stroke="#666666" points="263,-1120 263,-1191 364,-1191 364,-1120 263,-1120"/>
</a>
</g>
</g>
<!-- Node2&#45;&gt;Node1 -->
<g id="edge1_Node000001_Node000002" class="edge">
<title>Node2&#45;&gt;Node1</title>
<g id="a_edge1_Node000001_Node000002"><a xlink:title=" ">
<path fill="none" stroke="#63b8ff" d="M313.5,-1109.04C313.5,-1101.43 313.5,-1093.01 313.5,-1083.88"/>
<polygon fill="none" stroke="#63b8ff" points="310,-1108.8 313.5,-1118.8 317,-1108.8 310,-1108.8"/>
</a>
</g>
</g>
<!-- Node3 -->
<g id="Node000003" class="node">
<title>Node3</title>
<g id="a_Node000003"><a xlink:title=" ">
<polygon fill="white" stroke="none" points="87,-1298 0,-1298 0,-1227 87,-1227 87,-1298"/>
<text text-anchor="start" x="4.88" y="-1284.5" font-family="Helvetica,sans-Serif" font-size="10.00">fcarouge::internal</text>
<text text-anchor="start" x="4.88" y="-1273.25" font-family="Helvetica,sans-Serif" font-size="10.00">::conditional_input</text>
<text text-anchor="start" x="24.38" y="-1262" font-family="Helvetica,sans-Serif" font-size="10.00">&lt; Filter &gt;</text>
<text text-anchor="start" x="42" y="-1247.5" font-family="Helvetica,sans-Serif" font-size="10.00"> </text>
<text text-anchor="start" x="42" y="-1232.5" font-family="Helvetica,sans-Serif" font-size="10.00"> </text>
<polygon fill="#666666" stroke="#666666" points="0,-1259 0,-1259 87,-1259 87,-1259 0,-1259"/>
<polygon fill="#666666" stroke="#666666" points="0,-1244 0,-1244 87,-1244 87,-1244 0,-1244"/>
<polygon fill="none" stroke="#666666" points="0,-1227 0,-1298 87,-1298 87,-1227 0,-1227"/>
</a>
</g>
</g>
<!-- Node3&#45;&gt;Node2 -->
<g id="edge2_Node000002_Node000003" class="edge">
<title>Node3&#45;&gt;Node2</title>
<g id="a_edge2_Node000002_Node000003"><a xlink:title=" ">
<path fill="none" stroke="#63b8ff" d="M97.05,-1226.64C157.55,-1198.39 220.3,-1179.79 263.09,-1168.6"/>
<polygon fill="none" stroke="#63b8ff" points="95.86,-1223.33 88.34,-1230.79 98.87,-1229.65 95.86,-1223.33"/>
</a>
</g>
</g>
<!-- Node4 -->
<g id="Node000004" class="node">
<title>Node4</title>
<g id="a_Node000004"><a xlink:title=" ">
<polygon fill="white" stroke="none" points="192,-1298 105,-1298 105,-1227 192,-1227 192,-1298"/>
<text text-anchor="start" x="109.88" y="-1284.5" font-family="Helvetica,sans-Serif" font-size="10.00">fcarouge::internal</text>
<text text-anchor="start" x="109.88" y="-1273.25" font-family="Helvetica,sans-Serif" font-size="10.00">::conditional_input</text>
<text text-anchor="start" x="112.12" y="-1262" font-family="Helvetica,sans-Serif" font-size="10.00">_control&lt; Filter &gt;</text>
<text text-anchor="start" x="147" y="-1247.5" font-family="Helvetica,sans-Serif" font-size="10.00"> </text>
<text text-anchor="start" x="147" y="-1232.5" font-family="Helvetica,sans-Serif" font-size="10.00"> </text>
<polygon fill="#666666" stroke="#666666" points="105,-1259 105,-1259 192,-1259 192,-1259 105,-1259"/>
<polygon fill="#666666" stroke="#666666" points="105,-1244 105,-1244 192,-1244 192,-1244 105,-1244"/>
<polygon fill="none" stroke="#666666" points="105,-1227 105,-1298 192,-1298 192,-1227 105,-1227"/>
</a>
</g>
</g>
<!-- Node4&#45;&gt;Node2 -->
<g id="edge3_Node000002_Node000004" class="edge">
<title>Node4&#45;&gt;Node2</title>
<g id="a_edge3_Node000002_Node000004"><a xlink:title=" ">
<path fill="none" stroke="#63b8ff" d="M201.49,-1226.41C226.02,-1210.67 245.82,-1198.26 263.25,-1187.44"/>
<polygon fill="none" stroke="#63b8ff" points="199.64,-1223.43 193.12,-1231.79 203.43,-1229.32 199.64,-1223.43"/>
</a>
</g>
</g>
<!-- Node5 -->
<g id="Node000005" class="node">
<title>Node5</title>
<g id="a_Node000005"><a xlink:title=" ">
<polygon fill="white" stroke="none" points="303,-1298 210,-1298 210,-1227 303,-1227 303,-1298"/>
<text text-anchor="start" x="214.88" y="-1284.5" font-family="Helvetica,sans-Serif" font-size="10.00">fcarouge::internal</text>
<text text-anchor="start" x="214.88" y="-1273.25" font-family="Helvetica,sans-Serif" font-size="10.00">::conditional_output</text>
<text text-anchor="start" x="221.62" y="-1262" font-family="Helvetica,sans-Serif" font-size="10.00">_model&lt; Filter &gt;</text>
<text text-anchor="start" x="255" y="-1247.5" font-family="Helvetica,sans-Serif" font-size="10.00"> </text>
<text text-anchor="start" x="255" y="-1232.5" font-family="Helvetica,sans-Serif" font-size="10.00"> </text>
<polygon fill="#666666" stroke="#666666" points="210,-1259 210,-1259 303,-1259 303,-1259 210,-1259"/>
<polygon fill="#666666" stroke="#666666" points="210,-1244 210,-1244 303,-1244 303,-1244 210,-1244"/>
<polygon fill="none" stroke="#666666" points="210,-1227 210,-1298 303,-1298 303,-1227 210,-1227"/>
</a>
</g>
</g>
<!-- Node5&#45;&gt;Node2 -->
<g id="edge4_Node000002_Node000005" class="edge">
<title>Node5&#45;&gt;Node2</title>
<g id="a_edge4_Node000002_Node000005"><a xlink:title=" ">
<path fill="none" stroke="#63b8ff" d="M280.62,-1217.07C285.36,-1208.34 290.26,-1199.3 294.79,-1190.96"/>
<polygon fill="none" stroke="#63b8ff" points="277.58,-1215.33 275.89,-1225.79 283.73,-1218.67 277.58,-1215.33"/>
</a>
</g>
</g>
<!-- Node6 -->
<g id="Node000006" class="node">
<title>Node6</title>
<g id="a_Node000006"><a xlink:title=" ">
<polygon fill="white" stroke="none" points="421.5,-1298 321.5,-1298 321.5,-1227 421.5,-1227 421.5,-1298"/>
<text text-anchor="start" x="326.12" y="-1284.5" font-family="Helvetica,sans-Serif" font-size="10.00">fcarouge::internal</text>
<text text-anchor="start" x="326.12" y="-1273.25" font-family="Helvetica,sans-Serif" font-size="10.00">::conditional_process</text>
<text text-anchor="start" x="326.12" y="-1262" font-family="Helvetica,sans-Serif" font-size="10.00">_uncertainty&lt; Filter &gt;</text>
<text text-anchor="start" x="370" y="-1247.5" font-family="Helvetica,sans-Serif" font-size="10.00"> </text>
<text text-anchor="start" x="370" y="-1232.5" font-family="Helvetica,sans-Serif" font-size="10.00"> </text>
<polygon fill="#666666" stroke="#666666" points="321.5,-1259 321.5,-1259 421.5,-1259 421.5,-1259 321.5,-1259"/>
<polygon fill="#666666" stroke="#666666" points="321.5,-1244 321.5,-1244 421.5,-1244 421.5,-1244 321.5,-1244"/>
<polygon fill="none" stroke="#666666" points="321.5,-1227 321.5,-1298 421.5,-1298 421.5,-1227 321.5,-1227"/>
</a>
</g>
</g>
<!-- Node6&#45;&gt;Node2 -->
<g id="edge5_Node000002_Node000006" class="edge">
<title>Node6&#45;&gt;Node2</title>
<g id="a_edge5_Node000002_Node000006"><a xlink:title=" ">
<path fill="none" stroke="#63b8ff" d="M346.96,-1217.07C342.13,-1208.34 337.14,-1199.3 332.53,-1190.96"/>
<polygon fill="none" stroke="#63b8ff" points="343.88,-1218.73 351.78,-1225.79 350.01,-1215.35 343.88,-1218.73"/>
</a>
</g>
</g>
<!-- Node7 -->
<g id="Node000007" class="node">
<title>Node7</title>
<g id="a_Node000007"><a xlink:title=" ">
<polygon fill="white" stroke="none" points="539.5,-1298 439.5,-1298 439.5,-1227 539.5,-1227 539.5,-1298"/>
<text text-anchor="start" x="444.12" y="-1284.5" font-family="Helvetica,sans-Serif" font-size="10.00">fcarouge::internal</text>
<text text-anchor="start" x="444.12" y="-1273.25" font-family="Helvetica,sans-Serif" font-size="10.00">::conditional_output</text>
<text text-anchor="start" x="444.12" y="-1262" font-family="Helvetica,sans-Serif" font-size="10.00">_uncertainty&lt; Filter &gt;</text>
<text text-anchor="start" x="488" y="-1247.5" font-family="Helvetica,sans-Serif" font-size="10.00"> </text>
<text text-anchor="start" x="488" y="-1232.5" font-family="Helvetica,sans-Serif" font-size="10.00"> </text>
<polygon fill="#666666" stroke="#666666" points="439.5,-1259 439.5,-1259 539.5,-1259 539.5,-1259 439.5,-1259"/>
<polygon fill="#666666" stroke="#666666" points="439.5,-1244 439.5,-1244 539.5,-1244 539.5,-1244 439.5,-1244"/>
<polygon fill="none" stroke="#666666" points="439.5,-1227 439.5,-1298 539.5,-1298 539.5,-1227 439.5,-1227"/>
</a>
</g>
</g>
<!-- Node7&#45;&gt;Node2 -->
<g id="edge6_Node000002_Node000007" class="edge">
<title>Node7&#45;&gt;Node2</title>
<g id="a_edge6_Node000002_Node000007"><a xlink:title=" ">
<path fill="none" stroke="#63b8ff" d="M429.88,-1225.93C408.44,-1213.14 384.48,-1198.84 363.89,-1186.56"/>
<polygon fill="none" stroke="#63b8ff" points="427.86,-1228.8 438.24,-1230.92 431.44,-1222.79 427.86,-1228.8"/>
</a>
</g>
</g>
<!-- Node8 -->
<g id="Node000008" class="node">
<title>Node8</title>
<g id="a_Node000008"><a xlink:title=" ">
<polygon fill="white" stroke="none" points="651,-1298 558,-1298 558,-1227 651,-1227 651,-1298"/>
<text text-anchor="start" x="562.88" y="-1284.5" font-family="Helvetica,sans-Serif" font-size="10.00">fcarouge::internal</text>
<text text-anchor="start" x="562.88" y="-1273.25" font-family="Helvetica,sans-Serif" font-size="10.00">::conditional_state</text>
<text text-anchor="start" x="562.88" y="-1262" font-family="Helvetica,sans-Serif" font-size="10.00">_transition&lt; Filter &gt;</text>
<text text-anchor="start" x="603" y="-1247.5" font-family="Helvetica,sans-Serif" font-size="10.00"> </text>
<text text-anchor="start" x="603" y="-1232.5" font-family="Helvetica,sans-Serif" font-size="10.00"> </text>
<polygon fill="#666666" stroke="#666666" points="558,-1259 558,-1259 651,-1259 651,-1259 558,-1259"/>
<polygon fill="#666666" stroke="#666666" points="558,-1244 558,-1244 651,-1244 651,-1244 558,-1244"/>
<polygon fill="none" stroke="#666666" points="558,-1227 558,-1298 651,-1298 651,-1227 558,-1227"/>
</a>
</g>
</g>
<!-- Node8&#45;&gt;Node2 -->
<g id="edge7_Node000002_Node000008" class="edge">
<title>Node8&#45;&gt;Node2</title>
<g id="a_edge7_Node000002_Node000008"><a xlink:title=" ">
<path fill="none" stroke="#63b8ff" d="M547.83,-1227.12C480.05,-1197.57 410.08,-1178.61 363.91,-1167.58"/>
<polygon fill="none" stroke="#63b8ff" points="546.31,-1230.27 556.87,-1231.14 549.15,-1223.88 546.31,-1230.27"/>
</a>
</g>
</g>
</g>
</svg>
