<?xml version="1.0" encoding="UTF-8" standalone="no"?>
<!DOCTYPE svg PUBLIC "-//W3C//DTD SVG 1.1//EN"
 "http://www.w3.org/Graphics/SVG/1.1/DTD/svg11.dtd">
<!-- Generated by graphviz version 12.2.0 (20241103.1931)
 -->
<!-- Title: fcarouge::kalman&lt; Filter &gt; Pages: 1 -->
<!--zoomable 1247 -->

<svg id="main" version="1.1" xmlns="http://www.w3.org/2000/svg" xmlns:xlink="http://www.w3.org/1999/xlink" xml:space="preserve" onload="init(evt)">

<style type="text/css"><![CDATA[
.node, .edge {opacity: 0.7;}
.node.selected, .edge.selected {opacity: 1;}
.edge:hover path { stroke: red; }
.edge:hover polygon { stroke: red; fill: red; }
]]></style>

<defs>
  <circle id="rim" cx="0" cy="0" r="7"/>
  <circle id="rim2" cx="0" cy="0" r="3.5"/>
  <g id="zoomPlus">
    <use xlink:href="#rim" fill="#404040"><set attributeName="fill" to="#808080" begin="zoomplus.mouseover" end="zoomplus.mouseout"/></use>
    <path d="M-4,0h8M0,-4v8" fill="none" stroke="white" stroke-width="1.5" pointer-events="none"/>
  </g>
  <g id="zoomMin">
    <use xlink:href="#rim" fill="#404040"><set attributeName="fill" to="#808080" begin="zoomminus.mouseover" end="zoomminus.mouseout"/></use>
    <path d="M-4,0h8" fill="none" stroke="white" stroke-width="1.5" pointer-events="none"/>
  </g>
  <g id="arrowUp" transform="translate(30 24)">
    <use xlink:href="#rim"/>
    <path pointer-events="none" fill="none" stroke="white" stroke-width="1.5" d="M0,-3.0v7 M-2.5,-0.5L0,-3.0L2.5,-0.5"/>
  </g>
  <g id="arrowRight" transform="rotate(90) translate(36 -43)">
    <use xlink:href="#rim"/>
    <path pointer-events="none" fill="none" stroke="white" stroke-width="1.5" d="M0,-3.0v7 M-2.5,-0.5L0,-3.0L2.5,-0.5"/>
  </g>
  <g id="arrowDown" transform="rotate(180) translate(-30 -48)">
    <use xlink:href="#rim"/>
    <path pointer-events="none" fill="none" stroke="white" stroke-width="1.5" d="M0,-3.0v7 M-2.5,-0.5L0,-3.0L2.5,-0.5"/>
  </g>
  <g id="arrowLeft" transform="rotate(270) translate(-36 17)">
    <use xlink:href="#rim"/>
    <path pointer-events="none" fill="none" stroke="white" stroke-width="1.5" d="M0,-3.0v7 M-2.5,-0.5L0,-3.0L2.5,-0.5"/>
  </g>
  <g id="resetDef">
    <use xlink:href="#rim2" fill="#404040"><set attributeName="fill" to="#808080" begin="reset.mouseover" end="reset.mouseout"/></use>
  </g>
</defs>
<script type="application/ecmascript">
var viewWidth = 884;
var viewHeight = 1247;
var sectionId = 'dynsection-1';
</script>
<script type="application/ecmascript" xlink:href="svg.min.js"/>
<svg id="graph" class="graph">
<g id="viewport">
<title>fcarouge::kalman&lt; Filter &gt;</title>
<!-- Node1 -->
<g id="Node000001" class="node">
<title>Node1</title>
<g id="a_Node000001"><a xlink:title="A generic Kalman filter.">
<polygon fill="#999999" stroke="none" points="525.5,-1010.5 405.75,-1010.5 405.75,0 525.5,0 525.5,-1010.5"/>
<text text-anchor="start" x="409.75" y="-997" font-family="Helvetica,sans-Serif" font-size="10.00">fcarouge::kalman&lt; Filter &gt;</text>
<text text-anchor="start" x="464.12" y="-981.75" font-family="Helvetica,sans-Serif" font-size="10.00"> </text>
<text text-anchor="start" x="411" y="-966.5" font-family="Helvetica,sans-Serif" font-size="10.00">+</text>
<text text-anchor="start" x="422.25" y="-966.5" font-family="Helvetica,sans-Serif" font-size="10.00">kalman()</text>
<text text-anchor="start" x="411" y="-951.25" font-family="Helvetica,sans-Serif" font-size="10.00">+</text>
<text text-anchor="start" x="422.25" y="-951.25" font-family="Helvetica,sans-Serif" font-size="10.00">kalman()</text>
<text text-anchor="start" x="411" y="-936" font-family="Helvetica,sans-Serif" font-size="10.00">+</text>
<text text-anchor="start" x="422.25" y="-936" font-family="Helvetica,sans-Serif" font-size="10.00">kalman()</text>
<text text-anchor="start" x="411" y="-920.75" font-family="Helvetica,sans-Serif" font-size="10.00">+</text>
<text text-anchor="start" x="422.25" y="-920.75" font-family="Helvetica,sans-Serif" font-size="10.00">operator=()</text>
<text text-anchor="start" x="411" y="-905.5" font-family="Helvetica,sans-Serif" font-size="10.00">+</text>
<text text-anchor="start" x="422.25" y="-905.5" font-family="Helvetica,sans-Serif" font-size="10.00">operator=()</text>
<text text-anchor="start" x="411" y="-890.25" font-family="Helvetica,sans-Serif" font-size="10.00">+</text>
<text text-anchor="start" x="422.25" y="-890.25" font-family="Helvetica,sans-Serif" font-size="10.00">~kalman()</text>
<text text-anchor="start" x="411" y="-875" font-family="Helvetica,sans-Serif" font-size="10.00">+</text>
<text text-anchor="start" x="422.25" y="-875" font-family="Helvetica,sans-Serif" font-size="10.00">x()</text>
<text text-anchor="start" x="411" y="-859.75" font-family="Helvetica,sans-Serif" font-size="10.00">+</text>
<text text-anchor="start" x="422.25" y="-859.75" font-family="Helvetica,sans-Serif" font-size="10.00">x()</text>
<text text-anchor="start" x="411" y="-844.5" font-family="Helvetica,sans-Serif" font-size="10.00">+</text>
<text text-anchor="start" x="422.25" y="-844.5" font-family="Helvetica,sans-Serif" font-size="10.00">z()</text>
<text text-anchor="start" x="411" y="-829.25" font-family="Helvetica,sans-Serif" font-size="10.00">+</text>
<text text-anchor="start" x="422.25" y="-829.25" font-family="Helvetica,sans-Serif" font-size="10.00">u()</text>
<text text-anchor="start" x="411" y="-814" font-family="Helvetica,sans-Serif" font-size="10.00">+</text>
<text text-anchor="start" x="422.25" y="-814" font-family="Helvetica,sans-Serif" font-size="10.00">p()</text>
<text text-anchor="start" x="411" y="-798.75" font-family="Helvetica,sans-Serif" font-size="10.00">+</text>
<text text-anchor="start" x="422.25" y="-798.75" font-family="Helvetica,sans-Serif" font-size="10.00">p()</text>
<text text-anchor="start" x="411" y="-783.5" font-family="Helvetica,sans-Serif" font-size="10.00">+</text>
<text text-anchor="start" x="422.25" y="-783.5" font-family="Helvetica,sans-Serif" font-size="10.00">q()</text>
<text text-anchor="start" x="411" y="-768.25" font-family="Helvetica,sans-Serif" font-size="10.00">+</text>
<text text-anchor="start" x="422.25" y="-768.25" font-family="Helvetica,sans-Serif" font-size="10.00">q()</text>
<text text-anchor="start" x="411" y="-753" font-family="Helvetica,sans-Serif" font-size="10.00">+</text>
<text text-anchor="start" x="422.25" y="-753" font-family="Helvetica,sans-Serif" font-size="10.00">r()</text>
<text text-anchor="start" x="411" y="-737.75" font-family="Helvetica,sans-Serif" font-size="10.00">+</text>
<text text-anchor="start" x="422.25" y="-737.75" font-family="Helvetica,sans-Serif" font-size="10.00">r()</text>
<text text-anchor="start" x="411" y="-722.5" font-family="Helvetica,sans-Serif" font-size="10.00">+</text>
<text text-anchor="start" x="422.25" y="-722.5" font-family="Helvetica,sans-Serif" font-size="10.00">f()</text>
<text text-anchor="start" x="411" y="-707.25" font-family="Helvetica,sans-Serif" font-size="10.00">+</text>
<text text-anchor="start" x="422.25" y="-707.25" font-family="Helvetica,sans-Serif" font-size="10.00">f()</text>
<text text-anchor="start" x="411" y="-692" font-family="Helvetica,sans-Serif" font-size="10.00">+</text>
<text text-anchor="start" x="422.25" y="-692" font-family="Helvetica,sans-Serif" font-size="10.00">h()</text>
<text text-anchor="start" x="411" y="-676.75" font-family="Helvetica,sans-Serif" font-size="10.00">+</text>
<text text-anchor="start" x="422.25" y="-676.75" font-family="Helvetica,sans-Serif" font-size="10.00">h()</text>
<text text-anchor="start" x="411" y="-661.5" font-family="Helvetica,sans-Serif" font-size="10.00">+</text>
<text text-anchor="start" x="422.25" y="-661.5" font-family="Helvetica,sans-Serif" font-size="10.00">g()</text>
<text text-anchor="start" x="411" y="-646.25" font-family="Helvetica,sans-Serif" font-size="10.00">+</text>
<text text-anchor="start" x="422.25" y="-646.25" font-family="Helvetica,sans-Serif" font-size="10.00">g()</text>
<text text-anchor="start" x="411" y="-631" font-family="Helvetica,sans-Serif" font-size="10.00">+</text>
<text text-anchor="start" x="422.25" y="-631" font-family="Helvetica,sans-Serif" font-size="10.00">k()</text>
<text text-anchor="start" x="411" y="-615.75" font-family="Helvetica,sans-Serif" font-size="10.00">+</text>
<text text-anchor="start" x="422.25" y="-615.75" font-family="Helvetica,sans-Serif" font-size="10.00">y()</text>
<text text-anchor="start" x="411" y="-600.5" font-family="Helvetica,sans-Serif" font-size="10.00">+</text>
<text text-anchor="start" x="422.25" y="-600.5" font-family="Helvetica,sans-Serif" font-size="10.00">s()</text>
<text text-anchor="start" x="411" y="-585.25" font-family="Helvetica,sans-Serif" font-size="10.00">+</text>
<text text-anchor="start" x="422.25" y="-585.25" font-family="Helvetica,sans-Serif" font-size="10.00">predict()</text>
<text text-anchor="start" x="411" y="-570" font-family="Helvetica,sans-Serif" font-size="10.00">+</text>
<text text-anchor="start" x="422.25" y="-570" font-family="Helvetica,sans-Serif" font-size="10.00">predict()</text>
<text text-anchor="start" x="411" y="-554.75" font-family="Helvetica,sans-Serif" font-size="10.00">+</text>
<text text-anchor="start" x="422.25" y="-554.75" font-family="Helvetica,sans-Serif" font-size="10.00">update()</text>
<text text-anchor="start" x="411" y="-539.5" font-family="Helvetica,sans-Serif" font-size="10.00">+</text>
<text text-anchor="start" x="422.25" y="-539.5" font-family="Helvetica,sans-Serif" font-size="10.00">update()</text>
<text text-anchor="start" x="412.12" y="-524.25" font-family="Helvetica,sans-Serif" font-size="10.00">*</text>
<text text-anchor="start" x="422.25" y="-524.25" font-family="Helvetica,sans-Serif" font-size="10.00">state</text>
<text text-anchor="start" x="412.12" y="-509" font-family="Helvetica,sans-Serif" font-size="10.00">*</text>
<text text-anchor="start" x="422.25" y="-509" font-family="Helvetica,sans-Serif" font-size="10.00">output</text>
<text text-anchor="start" x="412.12" y="-493.75" font-family="Helvetica,sans-Serif" font-size="10.00">*</text>
<text text-anchor="start" x="422.25" y="-493.75" font-family="Helvetica,sans-Serif" font-size="10.00">estimate_uncertainty</text>
<text text-anchor="start" x="412.12" y="-478.5" font-family="Helvetica,sans-Serif" font-size="10.00">*</text>
<text text-anchor="start" x="422.25" y="-478.5" font-family="Helvetica,sans-Serif" font-size="10.00">gain</text>
<text text-anchor="start" x="412.12" y="-463.25" font-family="Helvetica,sans-Serif" font-size="10.00">*</text>
<text text-anchor="start" x="422.25" y="-463.25" font-family="Helvetica,sans-Serif" font-size="10.00">innovation</text>
<text text-anchor="start" x="412.12" y="-448" font-family="Helvetica,sans-Serif" font-size="10.00">*</text>
<text text-anchor="start" x="422.25" y="-448" font-family="Helvetica,sans-Serif" font-size="10.00">innovation_uncertainty</text>
<text text-anchor="start" x="412.12" y="-432.75" font-family="Helvetica,sans-Serif" font-size="10.00">*</text>
<text text-anchor="start" x="422.25" y="-432.75" font-family="Helvetica,sans-Serif" font-size="10.00">kalman()</text>
<text text-anchor="start" x="412.12" y="-417.5" font-family="Helvetica,sans-Serif" font-size="10.00">*</text>
<text text-anchor="start" x="422.25" y="-417.5" font-family="Helvetica,sans-Serif" font-size="10.00">kalman()</text>
<text text-anchor="start" x="412.12" y="-402.25" font-family="Helvetica,sans-Serif" font-size="10.00">*</text>
<text text-anchor="start" x="422.25" y="-402.25" font-family="Helvetica,sans-Serif" font-size="10.00">kalman()</text>
<text text-anchor="start" x="412.12" y="-387" font-family="Helvetica,sans-Serif" font-size="10.00">*</text>
<text text-anchor="start" x="422.25" y="-387" font-family="Helvetica,sans-Serif" font-size="10.00">operator=()</text>
<text text-anchor="start" x="412.12" y="-371.75" font-family="Helvetica,sans-Serif" font-size="10.00">*</text>
<text text-anchor="start" x="422.25" y="-371.75" font-family="Helvetica,sans-Serif" font-size="10.00">operator=()</text>
<text text-anchor="start" x="412.12" y="-356.5" font-family="Helvetica,sans-Serif" font-size="10.00">*</text>
<text text-anchor="start" x="422.25" y="-356.5" font-family="Helvetica,sans-Serif" font-size="10.00">~kalman()</text>
<text text-anchor="start" x="412.12" y="-341.25" font-family="Helvetica,sans-Serif" font-size="10.00">*</text>
<text text-anchor="start" x="422.25" y="-341.25" font-family="Helvetica,sans-Serif" font-size="10.00">x()</text>
<text text-anchor="start" x="412.12" y="-326" font-family="Helvetica,sans-Serif" font-size="10.00">*</text>
<text text-anchor="start" x="422.25" y="-326" font-family="Helvetica,sans-Serif" font-size="10.00">x()</text>
<text text-anchor="start" x="412.12" y="-310.75" font-family="Helvetica,sans-Serif" font-size="10.00">*</text>
<text text-anchor="start" x="422.25" y="-310.75" font-family="Helvetica,sans-Serif" font-size="10.00">z()</text>
<text text-anchor="start" x="412.12" y="-295.5" font-family="Helvetica,sans-Serif" font-size="10.00">*</text>
<text text-anchor="start" x="422.25" y="-295.5" font-family="Helvetica,sans-Serif" font-size="10.00">u()</text>
<text text-anchor="start" x="412.12" y="-280.25" font-family="Helvetica,sans-Serif" font-size="10.00">*</text>
<text text-anchor="start" x="422.25" y="-280.25" font-family="Helvetica,sans-Serif" font-size="10.00">p()</text>
<text text-anchor="start" x="412.12" y="-265" font-family="Helvetica,sans-Serif" font-size="10.00">*</text>
<text text-anchor="start" x="422.25" y="-265" font-family="Helvetica,sans-Serif" font-size="10.00">p()</text>
<text text-anchor="start" x="412.12" y="-249.75" font-family="Helvetica,sans-Serif" font-size="10.00">*</text>
<text text-anchor="start" x="422.25" y="-249.75" font-family="Helvetica,sans-Serif" font-size="10.00">q()</text>
<text text-anchor="start" x="412.12" y="-234.5" font-family="Helvetica,sans-Serif" font-size="10.00">*</text>
<text text-anchor="start" x="422.25" y="-234.5" font-family="Helvetica,sans-Serif" font-size="10.00">q()</text>
<text text-anchor="start" x="412.12" y="-219.25" font-family="Helvetica,sans-Serif" font-size="10.00">*</text>
<text text-anchor="start" x="422.25" y="-219.25" font-family="Helvetica,sans-Serif" font-size="10.00">r()</text>
<text text-anchor="start" x="412.12" y="-204" font-family="Helvetica,sans-Serif" font-size="10.00">*</text>
<text text-anchor="start" x="422.25" y="-204" font-family="Helvetica,sans-Serif" font-size="10.00">r()</text>
<text text-anchor="start" x="412.12" y="-188.75" font-family="Helvetica,sans-Serif" font-size="10.00">*</text>
<text text-anchor="start" x="422.25" y="-188.75" font-family="Helvetica,sans-Serif" font-size="10.00">f()</text>
<text text-anchor="start" x="412.12" y="-173.5" font-family="Helvetica,sans-Serif" font-size="10.00">*</text>
<text text-anchor="start" x="422.25" y="-173.5" font-family="Helvetica,sans-Serif" font-size="10.00">f()</text>
<text text-anchor="start" x="412.12" y="-158.25" font-family="Helvetica,sans-Serif" font-size="10.00">*</text>
<text text-anchor="start" x="422.25" y="-158.25" font-family="Helvetica,sans-Serif" font-size="10.00">h()</text>
<text text-anchor="start" x="412.12" y="-143" font-family="Helvetica,sans-Serif" font-size="10.00">*</text>
<text text-anchor="start" x="422.25" y="-143" font-family="Helvetica,sans-Serif" font-size="10.00">h()</text>
<text text-anchor="start" x="412.12" y="-127.75" font-family="Helvetica,sans-Serif" font-size="10.00">*</text>
<text text-anchor="start" x="422.25" y="-127.75" font-family="Helvetica,sans-Serif" font-size="10.00">g()</text>
<text text-anchor="start" x="412.12" y="-112.5" font-family="Helvetica,sans-Serif" font-size="10.00">*</text>
<text text-anchor="start" x="422.25" y="-112.5" font-family="Helvetica,sans-Serif" font-size="10.00">g()</text>
<text text-anchor="start" x="412.12" y="-97.25" font-family="Helvetica,sans-Serif" font-size="10.00">*</text>
<text text-anchor="start" x="422.25" y="-97.25" font-family="Helvetica,sans-Serif" font-size="10.00">k()</text>
<text text-anchor="start" x="412.12" y="-82" font-family="Helvetica,sans-Serif" font-size="10.00">*</text>
<text text-anchor="start" x="422.25" y="-82" font-family="Helvetica,sans-Serif" font-size="10.00">y()</text>
<text text-anchor="start" x="412.12" y="-66.75" font-family="Helvetica,sans-Serif" font-size="10.00">*</text>
<text text-anchor="start" x="422.25" y="-66.75" font-family="Helvetica,sans-Serif" font-size="10.00">s()</text>
<text text-anchor="start" x="412.12" y="-51.5" font-family="Helvetica,sans-Serif" font-size="10.00">*</text>
<text text-anchor="start" x="422.25" y="-51.5" font-family="Helvetica,sans-Serif" font-size="10.00">predict()</text>
<text text-anchor="start" x="412.12" y="-36.25" font-family="Helvetica,sans-Serif" font-size="10.00">*</text>
<text text-anchor="start" x="422.25" y="-36.25" font-family="Helvetica,sans-Serif" font-size="10.00">predict()</text>
<text text-anchor="start" x="412.12" y="-21" font-family="Helvetica,sans-Serif" font-size="10.00">*</text>
<text text-anchor="start" x="422.25" y="-21" font-family="Helvetica,sans-Serif" font-size="10.00">update()</text>
<text text-anchor="start" x="412.12" y="-5.75" font-family="Helvetica,sans-Serif" font-size="10.00">*</text>
<text text-anchor="start" x="422.25" y="-5.75" font-family="Helvetica,sans-Serif" font-size="10.00">update()</text>
<polygon fill="#666666" stroke="#666666" points="405.75,-993.25 405.75,-993.25 525.5,-993.25 525.5,-993.25 405.75,-993.25"/>
<polygon fill="#666666" stroke="#666666" points="405.75,-978 405.75,-978 525.5,-978 525.5,-978 405.75,-978"/>
<polygon fill="none" stroke="#666666" points="405.75,0 405.75,-1010.5 525.5,-1010.5 525.5,0 405.75,0"/>
</a>
</g>
</g>
<!-- Node2 -->
<g id="Node000002" class="node">
<title>Node2</title>
<g id="a_Node000002"><a xlink:title=" ">
<polygon fill="white" stroke="none" points="474.38,-1130 374.88,-1130 374.88,-1057.75 474.38,-1057.75 474.38,-1130"/>
<text text-anchor="start" x="378.88" y="-1116.5" font-family="Helvetica,sans-Serif" font-size="10.00">fcarouge::internal</text>
<text text-anchor="start" x="378.88" y="-1105.25" font-family="Helvetica,sans-Serif" font-size="10.00">::conditional_member</text>
<text text-anchor="start" x="391.25" y="-1094" font-family="Helvetica,sans-Serif" font-size="10.00">_types&lt; Filter &gt;</text>
<text text-anchor="start" x="423.12" y="-1078.75" font-family="Helvetica,sans-Serif" font-size="10.00"> </text>
<text text-anchor="start" x="423.12" y="-1063.5" font-family="Helvetica,sans-Serif" font-size="10.00"> </text>
<polygon fill="#666666" stroke="#666666" points="374.88,-1090.25 374.88,-1090.25 474.38,-1090.25 474.38,-1090.25 374.88,-1090.25"/>
<polygon fill="#666666" stroke="#666666" points="374.88,-1075 374.88,-1075 474.38,-1075 474.38,-1075 374.88,-1075"/>
<polygon fill="none" stroke="#666666" points="374.88,-1057.75 374.88,-1130 474.38,-1130 474.38,-1057.75 374.88,-1057.75"/>
</a>
</g>
</g>
<!-- Node2&#45;&gt;Node1 -->
<g id="edge1_Node000001_Node000002" class="edge">
<title>Node2&#45;&gt;Node1</title>
<g id="a_edge1_Node000001_Node000002"><a xlink:title=" ">
<path fill="none" stroke="#63b8ff" d="M427.86,-1046.62C428.6,-1036.01 429.45,-1023.84 430.39,-1010.43"/>
<polygon fill="none" stroke="#63b8ff" points="424.38,-1046.21 427.17,-1056.43 431.36,-1046.69 424.38,-1046.21"/>
</a>
</g>
</g>
<!-- Node3 -->
<g id="Node000003" class="node">
<title>Node3</title>
<g id="a_Node000003"><a xlink:title=" ">
<polygon fill="white" stroke="none" points="85.25,-1239.25 0,-1239.25 0,-1167 85.25,-1167 85.25,-1239.25"/>
<text text-anchor="start" x="4" y="-1225.75" font-family="Helvetica,sans-Serif" font-size="10.00">fcarouge::internal</text>
<text text-anchor="start" x="4" y="-1214.5" font-family="Helvetica,sans-Serif" font-size="10.00">::conditional_input</text>
<text text-anchor="start" x="6.25" y="-1203.25" font-family="Helvetica,sans-Serif" font-size="10.00">_control&lt; Filter &gt;</text>
<text text-anchor="start" x="41.12" y="-1188" font-family="Helvetica,sans-Serif" font-size="10.00"> </text>
<text text-anchor="start" x="41.12" y="-1172.75" font-family="Helvetica,sans-Serif" font-size="10.00"> </text>
<polygon fill="#666666" stroke="#666666" points="0,-1199.5 0,-1199.5 85.25,-1199.5 85.25,-1199.5 0,-1199.5"/>
<polygon fill="#666666" stroke="#666666" points="0,-1184.25 0,-1184.25 85.25,-1184.25 85.25,-1184.25 0,-1184.25"/>
<polygon fill="none" stroke="#666666" points="0,-1167 0,-1239.25 85.25,-1239.25 85.25,-1167 0,-1167"/>
</a>
</g>
</g>
<!-- Node3&#45;&gt;Node2 -->
<g id="edge2_Node000002_Node000003" class="edge">
<title>Node3&#45;&gt;Node2</title>
<g id="a_edge2_Node000002_Node000003"><a xlink:title=" ">
<path fill="none" stroke="#63b8ff" d="M95.4,-1166.76C196.27,-1124.74 310.95,-1107.04 375.12,-1099.61"/>
<polygon fill="none" stroke="#63b8ff" points="94.28,-1163.43 86.45,-1170.58 97.02,-1169.87 94.28,-1163.43"/>
</a>
</g>
</g>
<!-- Node4 -->
<g id="Node000004" class="node">
<title>Node4</title>
<g id="a_Node000004"><a xlink:title=" ">
<polygon fill="white" stroke="none" points="188.25,-1239.25 103,-1239.25 103,-1167 188.25,-1167 188.25,-1239.25"/>
<text text-anchor="start" x="107" y="-1225.75" font-family="Helvetica,sans-Serif" font-size="10.00">fcarouge::internal</text>
<text text-anchor="start" x="107" y="-1214.5" font-family="Helvetica,sans-Serif" font-size="10.00">::conditional_input</text>
<text text-anchor="start" x="126.5" y="-1203.25" font-family="Helvetica,sans-Serif" font-size="10.00">&lt; Filter &gt;</text>
<text text-anchor="start" x="144.12" y="-1188" font-family="Helvetica,sans-Serif" font-size="10.00"> </text>
<text text-anchor="start" x="144.12" y="-1172.75" font-family="Helvetica,sans-Serif" font-size="10.00"> </text>
<polygon fill="#666666" stroke="#666666" points="103,-1199.5 103,-1199.5 188.25,-1199.5 188.25,-1199.5 103,-1199.5"/>
<polygon fill="#666666" stroke="#666666" points="103,-1184.25 103,-1184.25 188.25,-1184.25 188.25,-1184.25 103,-1184.25"/>
<polygon fill="none" stroke="#666666" points="103,-1167 103,-1239.25 188.25,-1239.25 188.25,-1167 103,-1167"/>
</a>
</g>
</g>
<!-- Node4&#45;&gt;Node2 -->
<g id="edge3_Node000002_Node000004" class="edge">
<title>Node4&#45;&gt;Node2</title>
<g id="a_edge3_Node000002_Node000004"><a xlink:title=" ">
<path fill="none" stroke="#63b8ff" d="M198.45,-1166.53C262.48,-1136.3 330.07,-1117.14 374.98,-1106.05"/>
<polygon fill="none" stroke="#63b8ff" points="197.05,-1163.32 189.57,-1170.82 200.09,-1169.62 197.05,-1163.32"/>
</a>
</g>
</g>
<!-- Node5 -->
<g id="Node000005" class="node">
<title>Node5</title>
<g id="a_Node000005"><a xlink:title=" ">
<polygon fill="white" stroke="none" points="297.25,-1239.25 206,-1239.25 206,-1167 297.25,-1167 297.25,-1239.25"/>
<text text-anchor="start" x="210" y="-1225.75" font-family="Helvetica,sans-Serif" font-size="10.00">fcarouge::internal</text>
<text text-anchor="start" x="210" y="-1214.5" font-family="Helvetica,sans-Serif" font-size="10.00">::conditional_output</text>
<text text-anchor="start" x="216.75" y="-1203.25" font-family="Helvetica,sans-Serif" font-size="10.00">_model&lt; Filter &gt;</text>
<text text-anchor="start" x="250.12" y="-1188" font-family="Helvetica,sans-Serif" font-size="10.00"> </text>
<text text-anchor="start" x="250.12" y="-1172.75" font-family="Helvetica,sans-Serif" font-size="10.00"> </text>
<polygon fill="#666666" stroke="#666666" points="206,-1199.5 206,-1199.5 297.25,-1199.5 297.25,-1199.5 206,-1199.5"/>
<polygon fill="#666666" stroke="#666666" points="206,-1184.25 206,-1184.25 297.25,-1184.25 297.25,-1184.25 206,-1184.25"/>
<polygon fill="none" stroke="#666666" points="206,-1167 206,-1239.25 297.25,-1239.25 297.25,-1167 206,-1167"/>
</a>
</g>
</g>
<!-- Node5&#45;&gt;Node2 -->
<g id="edge4_Node000002_Node000005" class="edge">
<title>Node5&#45;&gt;Node2</title>
<g id="a_edge4_Node000002_Node000005"><a xlink:title=" ">
<path fill="none" stroke="#63b8ff" d="M306.69,-1166.99C334.05,-1149.92 356.11,-1136.41 375.12,-1124.84"/>
<polygon fill="none" stroke="#63b8ff" points="305.11,-1163.85 298.48,-1172.12 308.82,-1169.79 305.11,-1163.85"/>
</a>
</g>
</g>
<!-- Node6 -->
<g id="Node000006" class="node">
<title>Node6</title>
<g id="a_Node000006"><a xlink:title=" ">
<polygon fill="white" stroke="none" points="414,-1239.25 315.25,-1239.25 315.25,-1167 414,-1167 414,-1239.25"/>
<text text-anchor="start" x="319.25" y="-1225.75" font-family="Helvetica,sans-Serif" font-size="10.00">fcarouge::internal</text>
<text text-anchor="start" x="319.25" y="-1214.5" font-family="Helvetica,sans-Serif" font-size="10.00">::conditional_output</text>
<text text-anchor="start" x="319.25" y="-1203.25" font-family="Helvetica,sans-Serif" font-size="10.00">_uncertainty&lt; Filter &gt;</text>
<text text-anchor="start" x="363.12" y="-1188" font-family="Helvetica,sans-Serif" font-size="10.00"> </text>
<text text-anchor="start" x="363.12" y="-1172.75" font-family="Helvetica,sans-Serif" font-size="10.00"> </text>
<polygon fill="#666666" stroke="#666666" points="315.25,-1199.5 315.25,-1199.5 414,-1199.5 414,-1199.5 315.25,-1199.5"/>
<polygon fill="#666666" stroke="#666666" points="315.25,-1184.25 315.25,-1184.25 414,-1184.25 414,-1184.25 315.25,-1184.25"/>
<polygon fill="none" stroke="#666666" points="315.25,-1167 315.25,-1239.25 414,-1239.25 414,-1167 315.25,-1167"/>
</a>
</g>
</g>
<!-- Node6&#45;&gt;Node2 -->
<g id="edge5_Node000002_Node000006" class="edge">
<title>Node6&#45;&gt;Node2</title>
<g id="a_edge5_Node000002_Node000006"><a xlink:title=" ">
<path fill="none" stroke="#63b8ff" d="M389.75,-1157.22C394.89,-1148.03 400.23,-1138.48 405.14,-1129.71"/>
<polygon fill="none" stroke="#63b8ff" points="386.84,-1155.25 385.01,-1165.69 392.95,-1158.67 386.84,-1155.25"/>
</a>
</g>
</g>
<!-- Node7 -->
<g id="Node000007" class="node">
<title>Node7</title>
<g id="a_Node000007"><a xlink:title=" ">
<polygon fill="white" stroke="none" points="538.75,-1239.25 432.5,-1239.25 432.5,-1167 538.75,-1167 538.75,-1239.25"/>
<text text-anchor="start" x="436.5" y="-1225.75" font-family="Helvetica,sans-Serif" font-size="10.00">fcarouge::internal</text>
<text text-anchor="start" x="436.5" y="-1214.5" font-family="Helvetica,sans-Serif" font-size="10.00">::conditional_prediction</text>
<text text-anchor="start" x="452.25" y="-1203.25" font-family="Helvetica,sans-Serif" font-size="10.00">_types&lt; Filter &gt;</text>
<text text-anchor="start" x="484.12" y="-1188" font-family="Helvetica,sans-Serif" font-size="10.00"> </text>
<text text-anchor="start" x="484.12" y="-1172.75" font-family="Helvetica,sans-Serif" font-size="10.00"> </text>
<polygon fill="#666666" stroke="#666666" points="432.5,-1199.5 432.5,-1199.5 538.75,-1199.5 538.75,-1199.5 432.5,-1199.5"/>
<polygon fill="#666666" stroke="#666666" points="432.5,-1184.25 432.5,-1184.25 538.75,-1184.25 538.75,-1184.25 432.5,-1184.25"/>
<polygon fill="none" stroke="#666666" points="432.5,-1167 432.5,-1239.25 538.75,-1239.25 538.75,-1167 432.5,-1167"/>
</a>
</g>
</g>
<!-- Node7&#45;&gt;Node2 -->
<g id="edge6_Node000002_Node000007" class="edge">
<title>Node7&#45;&gt;Node2</title>
<g id="a_edge6_Node000002_Node000007"><a xlink:title=" ">
<path fill="none" stroke="#63b8ff" d="M460.09,-1157.22C454.86,-1148.03 449.43,-1138.48 444.44,-1129.71"/>
<polygon fill="none" stroke="#63b8ff" points="456.92,-1158.73 464.9,-1165.69 463,-1155.27 456.92,-1158.73"/>
</a>
</g>
</g>
<!-- Node8 -->
<g id="Node000008" class="node">
<title>Node8</title>
<g id="a_Node000008"><a xlink:title=" ">
<polygon fill="white" stroke="none" points="656,-1239.25 557.25,-1239.25 557.25,-1167 656,-1167 656,-1239.25"/>
<text text-anchor="start" x="561.25" y="-1225.75" font-family="Helvetica,sans-Serif" font-size="10.00">fcarouge::internal</text>
<text text-anchor="start" x="561.25" y="-1214.5" font-family="Helvetica,sans-Serif" font-size="10.00">::conditional_process</text>
<text text-anchor="start" x="561.25" y="-1203.25" font-family="Helvetica,sans-Serif" font-size="10.00">_uncertainty&lt; Filter &gt;</text>
<text text-anchor="start" x="605.12" y="-1188" font-family="Helvetica,sans-Serif" font-size="10.00"> </text>
<text text-anchor="start" x="605.12" y="-1172.75" font-family="Helvetica,sans-Serif" font-size="10.00"> </text>
<polygon fill="#666666" stroke="#666666" points="557.25,-1199.5 557.25,-1199.5 656,-1199.5 656,-1199.5 557.25,-1199.5"/>
<polygon fill="#666666" stroke="#666666" points="557.25,-1184.25 557.25,-1184.25 656,-1184.25 656,-1184.25 557.25,-1184.25"/>
<polygon fill="none" stroke="#666666" points="557.25,-1167 557.25,-1239.25 656,-1239.25 656,-1167 557.25,-1167"/>
</a>
</g>
</g>
<!-- Node8&#45;&gt;Node2 -->
<g id="edge7_Node000002_Node000008" class="edge">
<title>Node8&#45;&gt;Node2</title>
<g id="a_edge7_Node000002_Node000008"><a xlink:title=" ">
<path fill="none" stroke="#63b8ff" d="M547.83,-1167.15C517.8,-1149.6 509.42,-1145.13 483.62,-1130 480.54,-1128.19 477.37,-1126.32 474.17,-1124.43"/>
<polygon fill="none" stroke="#63b8ff" points="545.69,-1169.95 556.09,-1171.99 549.23,-1163.91 545.69,-1169.95"/>
</a>
</g>
</g>
<!-- Node9 -->
<g id="Node000009" class="node">
<title>Node9</title>
<g id="a_Node000009"><a xlink:title=" ">
<polygon fill="white" stroke="none" points="765.25,-1239.25 674,-1239.25 674,-1167 765.25,-1167 765.25,-1239.25"/>
<text text-anchor="start" x="678" y="-1225.75" font-family="Helvetica,sans-Serif" font-size="10.00">fcarouge::internal</text>
<text text-anchor="start" x="678" y="-1214.5" font-family="Helvetica,sans-Serif" font-size="10.00">::conditional_state</text>
<text text-anchor="start" x="678" y="-1203.25" font-family="Helvetica,sans-Serif" font-size="10.00">_transition&lt; Filter &gt;</text>
<text text-anchor="start" x="718.12" y="-1188" font-family="Helvetica,sans-Serif" font-size="10.00"> </text>
<text text-anchor="start" x="718.12" y="-1172.75" font-family="Helvetica,sans-Serif" font-size="10.00"> </text>
<polygon fill="#666666" stroke="#666666" points="674,-1199.5 674,-1199.5 765.25,-1199.5 765.25,-1199.5 674,-1199.5"/>
<polygon fill="#666666" stroke="#666666" points="674,-1184.25 674,-1184.25 765.25,-1184.25 765.25,-1184.25 674,-1184.25"/>
<polygon fill="none" stroke="#666666" points="674,-1167 674,-1239.25 765.25,-1239.25 765.25,-1167 674,-1167"/>
</a>
</g>
</g>
<!-- Node9&#45;&gt;Node2 -->
<g id="edge8_Node000002_Node000009" class="edge">
<title>Node9&#45;&gt;Node2</title>
<g id="a_edge8_Node000002_Node000009"><a xlink:title=" ">
<path fill="none" stroke="#63b8ff" d="M663.83,-1167.28C586.12,-1138 557.06,-1158.42 483.62,-1130 480.51,-1128.8 477.37,-1127.43 474.25,-1125.96"/>
<polygon fill="none" stroke="#63b8ff" points="662.08,-1170.35 672.67,-1170.76 664.65,-1163.84 662.08,-1170.35"/>
</a>
</g>
</g>
<!-- Node10 -->
<g id="Node000010" class="node">
<title>Node10</title>
<g id="a_Node000010"><a xlink:title=" ">
<polygon fill="white" stroke="none" points="876.38,-1239.25 782.88,-1239.25 782.88,-1167 876.38,-1167 876.38,-1239.25"/>
<text text-anchor="start" x="786.88" y="-1225.75" font-family="Helvetica,sans-Serif" font-size="10.00">fcarouge::internal</text>
<text text-anchor="start" x="786.88" y="-1214.5" font-family="Helvetica,sans-Serif" font-size="10.00">::conditional_update</text>
<text text-anchor="start" x="796.25" y="-1203.25" font-family="Helvetica,sans-Serif" font-size="10.00">_types&lt; Filter &gt;</text>
<text text-anchor="start" x="828.12" y="-1188" font-family="Helvetica,sans-Serif" font-size="10.00"> </text>
<text text-anchor="start" x="828.12" y="-1172.75" font-family="Helvetica,sans-Serif" font-size="10.00"> </text>
<polygon fill="#666666" stroke="#666666" points="782.88,-1199.5 782.88,-1199.5 876.38,-1199.5 876.38,-1199.5 782.88,-1199.5"/>
<polygon fill="#666666" stroke="#666666" points="782.88,-1184.25 782.88,-1184.25 876.38,-1184.25 876.38,-1184.25 782.88,-1184.25"/>
<polygon fill="none" stroke="#666666" points="782.88,-1167 782.88,-1239.25 876.38,-1239.25 876.38,-1167 782.88,-1167"/>
</a>
</g>
</g>
<!-- Node10&#45;&gt;Node2 -->
<g id="edge9_Node000002_Node000010" class="edge">
<title>Node10&#45;&gt;Node2</title>
<g id="a_edge9_Node000002_Node000010"><a xlink:title=" ">
<path fill="none" stroke="#63b8ff" d="M772.04,-1166.91C697.17,-1145.37 542.25,-1150.19 483.62,-1130 480.47,-1128.91 477.3,-1127.64 474.15,-1126.24"/>
<polygon fill="none" stroke="#63b8ff" points="770.89,-1170.21 781.48,-1169.97 773.05,-1163.56 770.89,-1170.21"/>
</a>
</g>
</g>
<!-- Node11 -->
<g id="Node000011" class="node">
<title>Node11</title>
<g id="a_Node000011"><a xlink:title=" ">
<polygon fill="white" stroke="none" points="522.5,-1118.75 492.75,-1118.75 492.75,-1069 522.5,-1069 522.5,-1118.75"/>
<text text-anchor="start" x="496.75" y="-1105.25" font-family="Helvetica,sans-Serif" font-size="10.00">Filter</text>
<text text-anchor="start" x="506.12" y="-1090" font-family="Helvetica,sans-Serif" font-size="10.00"> </text>
<text text-anchor="start" x="506.12" y="-1074.75" font-family="Helvetica,sans-Serif" font-size="10.00"> </text>
<polygon fill="#666666" stroke="#666666" points="492.75,-1101.5 492.75,-1101.5 522.5,-1101.5 522.5,-1101.5 492.75,-1101.5"/>
<polygon fill="#666666" stroke="#666666" points="492.75,-1086.25 492.75,-1086.25 522.5,-1086.25 522.5,-1086.25 492.75,-1086.25"/>
<polygon fill="none" stroke="#666666" points="492.75,-1069 492.75,-1118.75 522.5,-1118.75 522.5,-1069 492.75,-1069"/>
</a>
</g>
</g>
<!-- Node11&#45;&gt;Node1 -->
<g id="edge10_Node000001_Node000011" class="edge">
<title>Node11&#45;&gt;Node1</title>
<g id="a_edge10_Node000001_Node000011"><a xlink:title=" ">
<path fill="none" stroke="#63b8ff" d="M505.93,-1069.15C505.09,-1057.47 503.98,-1041.9 502.65,-1023.4"/>
<polygon fill="none" stroke="#63b8ff" points="502.65,-1023.35 498.23,-1017.65 501.79,-1011.38 506.21,-1017.08 502.65,-1023.35"/>
</a>
</g>
<text text-anchor="middle" x="514.88" y="-1030.25" font-family="Helvetica,sans-Serif" font-size="10.00" fill="grey"> &#45;filter</text>
</g>
</g>
</svg>

<g id="navigator" transform="translate(0 0)" fill="#404254">
  <rect fill="#f2f5e9" fill-opacity="0.5" stroke="#606060" stroke-width=".5" x="0" y="0" width="60" height="60"/>
  <use id="zoomplus" xlink:href="#zoomPlus" x="17" y="9" onmousedown="handleZoom(evt,'in')"/>
  <use id="zoomminus" xlink:href="#zoomMin" x="42" y="9" onmousedown="handleZoom(evt,'out')"/>
  <use id="reset" xlink:href="#resetDef" x="30" y="36" onmousedown="handleReset()"/>
   <use id="arrowup" xlink:href="#arrowUp" x="0" y="0" onmousedown="handlePan(0,-1)"/>
  <use id="arrowright" xlink:href="#arrowRight" x="0" y="0" onmousedown="handlePan(1,0)"/>
  <use id="arrowdown" xlink:href="#arrowDown" x="0" y="0" onmousedown="handlePan(0,1)"/>
  <use id="arrowleft" xlink:href="#arrowLeft" x="0" y="0" onmousedown="handlePan(-1,0)"/>
</g>
<svg viewBox="0 0 15 15" width="100%" height="30px" preserveAspectRatio="xMaxYMin meet">
 <g id="arrow_out" transform="scale(0.3 0.3)">
  <a xlink:href="classfcarouge_1_1kalman__coll__graph_org.svg" target="_base">
   <rect id="button" ry="5" rx="5" y="6" x="6" height="38" width="38"
        fill="#f2f5e9" fill-opacity="0.5" stroke="#606060" stroke-width="1.0"/>
   <path id="arrow"
     d="M 11.500037,31.436501 C 11.940474,20.09759 22.043105,11.32322 32.158766,21.979434 L 37.068811,17.246167 C 37.068811,17.246167 37.088388,32 37.088388,32 L 22.160133,31.978069 C 22.160133,31.978069 26.997745,27.140456 26.997745,27.140456 C 18.528582,18.264221 13.291696,25.230495 11.500037,31.436501 z"
     style="fill:#404040;"/>
  </a>
 </g>
</svg>

<style type='text/css'>
<![CDATA[
[data-mouse-over-selected='false'] { opacity: 0.7; }
[data-mouse-over-selected='true']  { opacity: 1.0; }
]]>
</style>
<script type="application/ecmascript"><![CDATA[
document.addEventListener('DOMContentLoaded', (event) => {
  highlightEdges();
  highlightAdjacentNodes();
});
]]></script>
</svg>
