<?xml version="1.0" encoding="UTF-8" standalone="no"?>
<!DOCTYPE svg PUBLIC "-//W3C//DTD SVG 1.1//EN"
 "http://www.w3.org/Graphics/SVG/1.1/DTD/svg11.dtd">
<!-- Generated by graphviz version 2.49.3 (20211027.1534)
 -->
<!-- Title: fcarouge::kalman&lt; Type, State, Output, Input, Transpose, Symmetrize, Divide, Identity, std::tuple&lt; UpdateArguments... &gt;, std::tuple&lt; PredictionArguments... &gt; &gt; Pages: 1 -->
<!--zoomable 2234 -->
<svg id="main" version="1.1" xmlns="http://www.w3.org/2000/svg" xmlns:xlink="http://www.w3.org/1999/xlink" xml:space="preserve" onload="init(evt)">
<style type="text/css"><![CDATA[
.edge:hover path { stroke: red; }
.edge:hover polygon { stroke: red; fill: red; }
]]></style>
<script type="text/javascript"><![CDATA[
var edges = document.getElementsByTagName('g');
if (edges && edges.length) {
  for (var i=0;i<edges.length;i++) {
    if (edges[i].id.substr(0,4)=='edge') {
      edges[i].setAttribute('class','edge');
    }
  }
}
]]></script>
        <defs>
                <circle id="rim" cx="0" cy="0" r="7"/>
                <circle id="rim2" cx="0" cy="0" r="3.5"/>
                <g id="zoomPlus">
                        <use xlink:href="#rim" fill="#404040">
                                <set attributeName="fill" to="#808080" begin="zoomplus.mouseover" end="zoomplus.mouseout"/>
                        </use>
                        <path d="M-4,0h8M0,-4v8" fill="none" stroke="white" stroke-width="1.5" pointer-events="none"/>
                </g>
                <g id="zoomMin">
                        <use xlink:href="#rim" fill="#404040">
                                <set attributeName="fill" to="#808080" begin="zoomminus.mouseover" end="zoomminus.mouseout"/>
                        </use>
                        <path d="M-4,0h8" fill="none" stroke="white" stroke-width="1.5" pointer-events="none"/>
                </g>
                <g id="dirArrow">
                        <path fill="none" stroke="white" stroke-width="1.5" d="M0,-3.0v7 M-2.5,-0.5L0,-3.0L2.5,-0.5"/>
                </g>
               <g id="resetDef">
                       <use xlink:href="#rim2" fill="#404040">
                               <set attributeName="fill" to="#808080" begin="reset.mouseover" end="reset.mouseout"/>
                       </use>
               </g>
        </defs>

<script type="text/javascript">
var viewWidth = 1381;
var viewHeight = 2234;
var sectionId = 'dynsection-0';
</script>
<script xlink:href="svgpan.js"/>
<svg id="graph" class="graph">
<g id="viewport">
<title>fcarouge::kalman&lt; Type, State, Output, Input, Transpose, Symmetrize, Divide, Identity, std::tuple&lt; UpdateArguments... &gt;, std::tuple&lt; PredictionArguments... &gt; &gt;</title>
<polygon fill="white" stroke="transparent" points="-4,4 -4,-2230 1377,-2230 1377,4 -4,4"/>
<!-- Node1 -->
<g id="node1" class="node">
<title>Node1</title>
<g id="a_node1"><a xlink:title=" ">
<polygon fill="#bfbfbf" stroke="black" points="725.5,-0.5 725.5,-1641.5 916.5,-1641.5 916.5,-0.5 725.5,-0.5"/>
<text text-anchor="start" x="733.5" y="-1629.5" font-family="Helvetica,sans-Serif" font-size="10.00">fcarouge::kalman&lt; Type,</text>
<text text-anchor="start" x="733.5" y="-1618.5" font-family="Helvetica,sans-Serif" font-size="10.00"> State, Output, Input,</text>
<text text-anchor="start" x="733.5" y="-1607.5" font-family="Helvetica,sans-Serif" font-size="10.00"> Transpose, Symmetrize,</text>
<text text-anchor="start" x="733.5" y="-1596.5" font-family="Helvetica,sans-Serif" font-size="10.00"> Divide, Identity, std::</text>
<text text-anchor="start" x="733.5" y="-1585.5" font-family="Helvetica,sans-Serif" font-size="10.00">tuple&lt; UpdateArguments...</text>
<text text-anchor="middle" x="821" y="-1574.5" font-family="Helvetica,sans-Serif" font-size="10.00"> &gt;, std::tuple&lt; PredictionArguments... &gt; &gt;</text>
<polyline fill="none" stroke="black" points="725.5,-1567.5 916.5,-1567.5 "/>
<text text-anchor="middle" x="821" y="-1555.5" font-family="Helvetica,sans-Serif" font-size="10.00"> </text>
<polyline fill="none" stroke="black" points="725.5,-1548.5 916.5,-1548.5 "/>
<text text-anchor="start" x="733.5" y="-1536.5" font-family="Helvetica,sans-Serif" font-size="10.00">+ kalman()</text>
<text text-anchor="start" x="733.5" y="-1525.5" font-family="Helvetica,sans-Serif" font-size="10.00">+ kalman()</text>
<text text-anchor="start" x="733.5" y="-1514.5" font-family="Helvetica,sans-Serif" font-size="10.00">+ kalman()</text>
<text text-anchor="start" x="733.5" y="-1503.5" font-family="Helvetica,sans-Serif" font-size="10.00">+ operator=()</text>
<text text-anchor="start" x="733.5" y="-1492.5" font-family="Helvetica,sans-Serif" font-size="10.00">+ operator=()</text>
<text text-anchor="start" x="733.5" y="-1481.5" font-family="Helvetica,sans-Serif" font-size="10.00">+ ~kalman()</text>
<text text-anchor="start" x="733.5" y="-1470.5" font-family="Helvetica,sans-Serif" font-size="10.00">+ x()</text>
<text text-anchor="start" x="733.5" y="-1459.5" font-family="Helvetica,sans-Serif" font-size="10.00">+ x()</text>
<text text-anchor="start" x="733.5" y="-1448.5" font-family="Helvetica,sans-Serif" font-size="10.00">+ x()</text>
<text text-anchor="start" x="733.5" y="-1437.5" font-family="Helvetica,sans-Serif" font-size="10.00">+ x()</text>
<text text-anchor="start" x="733.5" y="-1426.5" font-family="Helvetica,sans-Serif" font-size="10.00">+ x()</text>
<text text-anchor="start" x="733.5" y="-1415.5" font-family="Helvetica,sans-Serif" font-size="10.00">+ z()</text>
<text text-anchor="start" x="733.5" y="-1404.5" font-family="Helvetica,sans-Serif" font-size="10.00">+ u()</text>
<text text-anchor="start" x="733.5" y="-1393.5" font-family="Helvetica,sans-Serif" font-size="10.00">+ p()</text>
<text text-anchor="start" x="733.5" y="-1382.5" font-family="Helvetica,sans-Serif" font-size="10.00">+ p()</text>
<text text-anchor="start" x="733.5" y="-1371.5" font-family="Helvetica,sans-Serif" font-size="10.00">+ p()</text>
<text text-anchor="start" x="733.5" y="-1360.5" font-family="Helvetica,sans-Serif" font-size="10.00">+ p()</text>
<text text-anchor="start" x="733.5" y="-1349.5" font-family="Helvetica,sans-Serif" font-size="10.00">+ p()</text>
<text text-anchor="start" x="733.5" y="-1338.5" font-family="Helvetica,sans-Serif" font-size="10.00">+ q()</text>
<text text-anchor="start" x="733.5" y="-1327.5" font-family="Helvetica,sans-Serif" font-size="10.00">+ q()</text>
<text text-anchor="start" x="733.5" y="-1316.5" font-family="Helvetica,sans-Serif" font-size="10.00">+ q()</text>
<text text-anchor="start" x="733.5" y="-1305.5" font-family="Helvetica,sans-Serif" font-size="10.00">+ q()</text>
<text text-anchor="start" x="733.5" y="-1294.5" font-family="Helvetica,sans-Serif" font-size="10.00">+ q()</text>
<text text-anchor="start" x="733.5" y="-1283.5" font-family="Helvetica,sans-Serif" font-size="10.00">+ q()</text>
<text text-anchor="start" x="733.5" y="-1272.5" font-family="Helvetica,sans-Serif" font-size="10.00">+ q()</text>
<text text-anchor="start" x="733.5" y="-1261.5" font-family="Helvetica,sans-Serif" font-size="10.00">+ r()</text>
<text text-anchor="start" x="733.5" y="-1250.5" font-family="Helvetica,sans-Serif" font-size="10.00">+ r()</text>
<text text-anchor="start" x="733.5" y="-1239.5" font-family="Helvetica,sans-Serif" font-size="10.00">+ r()</text>
<text text-anchor="start" x="733.5" y="-1228.5" font-family="Helvetica,sans-Serif" font-size="10.00">+ r()</text>
<text text-anchor="start" x="733.5" y="-1217.5" font-family="Helvetica,sans-Serif" font-size="10.00">+ r()</text>
<text text-anchor="start" x="733.5" y="-1206.5" font-family="Helvetica,sans-Serif" font-size="10.00">+ r()</text>
<text text-anchor="start" x="733.5" y="-1195.5" font-family="Helvetica,sans-Serif" font-size="10.00">+ r()</text>
<text text-anchor="start" x="733.5" y="-1184.5" font-family="Helvetica,sans-Serif" font-size="10.00">+ f()</text>
<text text-anchor="start" x="733.5" y="-1173.5" font-family="Helvetica,sans-Serif" font-size="10.00">+ f()</text>
<text text-anchor="start" x="733.5" y="-1162.5" font-family="Helvetica,sans-Serif" font-size="10.00">+ f()</text>
<text text-anchor="start" x="733.5" y="-1151.5" font-family="Helvetica,sans-Serif" font-size="10.00">+ f()</text>
<text text-anchor="start" x="733.5" y="-1140.5" font-family="Helvetica,sans-Serif" font-size="10.00">+ f()</text>
<text text-anchor="start" x="733.5" y="-1129.5" font-family="Helvetica,sans-Serif" font-size="10.00">+ f()</text>
<text text-anchor="start" x="733.5" y="-1118.5" font-family="Helvetica,sans-Serif" font-size="10.00">+ f()</text>
<text text-anchor="start" x="733.5" y="-1107.5" font-family="Helvetica,sans-Serif" font-size="10.00">+ h()</text>
<text text-anchor="start" x="733.5" y="-1096.5" font-family="Helvetica,sans-Serif" font-size="10.00">+ h()</text>
<text text-anchor="start" x="733.5" y="-1085.5" font-family="Helvetica,sans-Serif" font-size="10.00">+ h()</text>
<text text-anchor="start" x="733.5" y="-1074.5" font-family="Helvetica,sans-Serif" font-size="10.00">+ h()</text>
<text text-anchor="start" x="733.5" y="-1063.5" font-family="Helvetica,sans-Serif" font-size="10.00">+ h()</text>
<text text-anchor="start" x="733.5" y="-1052.5" font-family="Helvetica,sans-Serif" font-size="10.00">+ h()</text>
<text text-anchor="start" x="733.5" y="-1041.5" font-family="Helvetica,sans-Serif" font-size="10.00">+ h()</text>
<text text-anchor="start" x="733.5" y="-1030.5" font-family="Helvetica,sans-Serif" font-size="10.00">+ g()</text>
<text text-anchor="start" x="733.5" y="-1019.5" font-family="Helvetica,sans-Serif" font-size="10.00">+ g()</text>
<text text-anchor="start" x="733.5" y="-1008.5" font-family="Helvetica,sans-Serif" font-size="10.00">+ g()</text>
<text text-anchor="start" x="733.5" y="-997.5" font-family="Helvetica,sans-Serif" font-size="10.00">+ g()</text>
<text text-anchor="start" x="733.5" y="-986.5" font-family="Helvetica,sans-Serif" font-size="10.00">+ g()</text>
<text text-anchor="start" x="733.5" y="-975.5" font-family="Helvetica,sans-Serif" font-size="10.00">+ g()</text>
<text text-anchor="start" x="733.5" y="-964.5" font-family="Helvetica,sans-Serif" font-size="10.00">+ g()</text>
<text text-anchor="start" x="733.5" y="-953.5" font-family="Helvetica,sans-Serif" font-size="10.00">+ k()</text>
<text text-anchor="start" x="733.5" y="-942.5" font-family="Helvetica,sans-Serif" font-size="10.00">+ y()</text>
<text text-anchor="start" x="733.5" y="-931.5" font-family="Helvetica,sans-Serif" font-size="10.00">+ s()</text>
<text text-anchor="start" x="733.5" y="-920.5" font-family="Helvetica,sans-Serif" font-size="10.00">+ transition()</text>
<text text-anchor="start" x="733.5" y="-909.5" font-family="Helvetica,sans-Serif" font-size="10.00">+ transition()</text>
<text text-anchor="start" x="733.5" y="-898.5" font-family="Helvetica,sans-Serif" font-size="10.00">+ observation()</text>
<text text-anchor="start" x="733.5" y="-887.5" font-family="Helvetica,sans-Serif" font-size="10.00">+ observation()</text>
<text text-anchor="start" x="733.5" y="-876.5" font-family="Helvetica,sans-Serif" font-size="10.00">+ operator()()</text>
<text text-anchor="start" x="733.5" y="-865.5" font-family="Helvetica,sans-Serif" font-size="10.00">+ update()</text>
<text text-anchor="start" x="733.5" y="-854.5" font-family="Helvetica,sans-Serif" font-size="10.00">+ predict()</text>
<text text-anchor="start" x="733.5" y="-843.5" font-family="Helvetica,sans-Serif" font-size="10.00">* implementation</text>
<text text-anchor="start" x="733.5" y="-832.5" font-family="Helvetica,sans-Serif" font-size="10.00">* value_type</text>
<text text-anchor="start" x="733.5" y="-821.5" font-family="Helvetica,sans-Serif" font-size="10.00">* state</text>
<text text-anchor="start" x="733.5" y="-810.5" font-family="Helvetica,sans-Serif" font-size="10.00">* output</text>
<text text-anchor="start" x="733.5" y="-799.5" font-family="Helvetica,sans-Serif" font-size="10.00">* input</text>
<text text-anchor="start" x="733.5" y="-788.5" font-family="Helvetica,sans-Serif" font-size="10.00">* estimate_uncertainty</text>
<text text-anchor="start" x="733.5" y="-777.5" font-family="Helvetica,sans-Serif" font-size="10.00">* process_uncertainty</text>
<text text-anchor="start" x="733.5" y="-766.5" font-family="Helvetica,sans-Serif" font-size="10.00">* output_uncertainty</text>
<text text-anchor="start" x="733.5" y="-755.5" font-family="Helvetica,sans-Serif" font-size="10.00">* state_transition</text>
<text text-anchor="start" x="733.5" y="-744.5" font-family="Helvetica,sans-Serif" font-size="10.00">* output_model</text>
<text text-anchor="start" x="733.5" y="-733.5" font-family="Helvetica,sans-Serif" font-size="10.00">* input_control</text>
<text text-anchor="start" x="733.5" y="-722.5" font-family="Helvetica,sans-Serif" font-size="10.00">* gain</text>
<text text-anchor="start" x="733.5" y="-711.5" font-family="Helvetica,sans-Serif" font-size="10.00">* innovation</text>
<text text-anchor="start" x="733.5" y="-700.5" font-family="Helvetica,sans-Serif" font-size="10.00">* innovation_uncertainty</text>
<text text-anchor="start" x="733.5" y="-689.5" font-family="Helvetica,sans-Serif" font-size="10.00">* kalman()</text>
<text text-anchor="start" x="733.5" y="-678.5" font-family="Helvetica,sans-Serif" font-size="10.00">* kalman()</text>
<text text-anchor="start" x="733.5" y="-667.5" font-family="Helvetica,sans-Serif" font-size="10.00">* kalman()</text>
<text text-anchor="start" x="733.5" y="-656.5" font-family="Helvetica,sans-Serif" font-size="10.00">* operator=()</text>
<text text-anchor="start" x="733.5" y="-645.5" font-family="Helvetica,sans-Serif" font-size="10.00">* operator=()</text>
<text text-anchor="start" x="733.5" y="-634.5" font-family="Helvetica,sans-Serif" font-size="10.00">* ~kalman()</text>
<text text-anchor="start" x="733.5" y="-623.5" font-family="Helvetica,sans-Serif" font-size="10.00">* x()</text>
<text text-anchor="start" x="733.5" y="-612.5" font-family="Helvetica,sans-Serif" font-size="10.00">* x()</text>
<text text-anchor="start" x="733.5" y="-601.5" font-family="Helvetica,sans-Serif" font-size="10.00">* x()</text>
<text text-anchor="start" x="733.5" y="-590.5" font-family="Helvetica,sans-Serif" font-size="10.00">* x()</text>
<text text-anchor="start" x="733.5" y="-579.5" font-family="Helvetica,sans-Serif" font-size="10.00">* x()</text>
<text text-anchor="start" x="733.5" y="-568.5" font-family="Helvetica,sans-Serif" font-size="10.00">* z()</text>
<text text-anchor="start" x="733.5" y="-557.5" font-family="Helvetica,sans-Serif" font-size="10.00">* u()</text>
<text text-anchor="start" x="733.5" y="-546.5" font-family="Helvetica,sans-Serif" font-size="10.00">* p()</text>
<text text-anchor="start" x="733.5" y="-535.5" font-family="Helvetica,sans-Serif" font-size="10.00">* p()</text>
<text text-anchor="start" x="733.5" y="-524.5" font-family="Helvetica,sans-Serif" font-size="10.00">* p()</text>
<text text-anchor="start" x="733.5" y="-513.5" font-family="Helvetica,sans-Serif" font-size="10.00">* p()</text>
<text text-anchor="start" x="733.5" y="-502.5" font-family="Helvetica,sans-Serif" font-size="10.00">* p()</text>
<text text-anchor="start" x="733.5" y="-491.5" font-family="Helvetica,sans-Serif" font-size="10.00">* q()</text>
<text text-anchor="start" x="733.5" y="-480.5" font-family="Helvetica,sans-Serif" font-size="10.00">* q()</text>
<text text-anchor="start" x="733.5" y="-469.5" font-family="Helvetica,sans-Serif" font-size="10.00">* q()</text>
<text text-anchor="start" x="733.5" y="-458.5" font-family="Helvetica,sans-Serif" font-size="10.00">* q()</text>
<text text-anchor="start" x="733.5" y="-447.5" font-family="Helvetica,sans-Serif" font-size="10.00">* q()</text>
<text text-anchor="start" x="733.5" y="-436.5" font-family="Helvetica,sans-Serif" font-size="10.00">* q()</text>
<text text-anchor="start" x="733.5" y="-425.5" font-family="Helvetica,sans-Serif" font-size="10.00">* q()</text>
<text text-anchor="start" x="733.5" y="-414.5" font-family="Helvetica,sans-Serif" font-size="10.00">* r()</text>
<text text-anchor="start" x="733.5" y="-403.5" font-family="Helvetica,sans-Serif" font-size="10.00">* r()</text>
<text text-anchor="start" x="733.5" y="-392.5" font-family="Helvetica,sans-Serif" font-size="10.00">* r()</text>
<text text-anchor="start" x="733.5" y="-381.5" font-family="Helvetica,sans-Serif" font-size="10.00">* r()</text>
<text text-anchor="start" x="733.5" y="-370.5" font-family="Helvetica,sans-Serif" font-size="10.00">* r()</text>
<text text-anchor="start" x="733.5" y="-359.5" font-family="Helvetica,sans-Serif" font-size="10.00">* r()</text>
<text text-anchor="start" x="733.5" y="-348.5" font-family="Helvetica,sans-Serif" font-size="10.00">* r()</text>
<text text-anchor="start" x="733.5" y="-337.5" font-family="Helvetica,sans-Serif" font-size="10.00">* f()</text>
<text text-anchor="start" x="733.5" y="-326.5" font-family="Helvetica,sans-Serif" font-size="10.00">* f()</text>
<text text-anchor="start" x="733.5" y="-315.5" font-family="Helvetica,sans-Serif" font-size="10.00">* f()</text>
<text text-anchor="start" x="733.5" y="-304.5" font-family="Helvetica,sans-Serif" font-size="10.00">* f()</text>
<text text-anchor="start" x="733.5" y="-293.5" font-family="Helvetica,sans-Serif" font-size="10.00">* f()</text>
<text text-anchor="start" x="733.5" y="-282.5" font-family="Helvetica,sans-Serif" font-size="10.00">* f()</text>
<text text-anchor="start" x="733.5" y="-271.5" font-family="Helvetica,sans-Serif" font-size="10.00">* f()</text>
<text text-anchor="start" x="733.5" y="-260.5" font-family="Helvetica,sans-Serif" font-size="10.00">* h()</text>
<text text-anchor="start" x="733.5" y="-249.5" font-family="Helvetica,sans-Serif" font-size="10.00">* h()</text>
<text text-anchor="start" x="733.5" y="-238.5" font-family="Helvetica,sans-Serif" font-size="10.00">* h()</text>
<text text-anchor="start" x="733.5" y="-227.5" font-family="Helvetica,sans-Serif" font-size="10.00">* h()</text>
<text text-anchor="start" x="733.5" y="-216.5" font-family="Helvetica,sans-Serif" font-size="10.00">* h()</text>
<text text-anchor="start" x="733.5" y="-205.5" font-family="Helvetica,sans-Serif" font-size="10.00">* h()</text>
<text text-anchor="start" x="733.5" y="-194.5" font-family="Helvetica,sans-Serif" font-size="10.00">* h()</text>
<text text-anchor="start" x="733.5" y="-183.5" font-family="Helvetica,sans-Serif" font-size="10.00">* g()</text>
<text text-anchor="start" x="733.5" y="-172.5" font-family="Helvetica,sans-Serif" font-size="10.00">* g()</text>
<text text-anchor="start" x="733.5" y="-161.5" font-family="Helvetica,sans-Serif" font-size="10.00">* g()</text>
<text text-anchor="start" x="733.5" y="-150.5" font-family="Helvetica,sans-Serif" font-size="10.00">* g()</text>
<text text-anchor="start" x="733.5" y="-139.5" font-family="Helvetica,sans-Serif" font-size="10.00">* g()</text>
<text text-anchor="start" x="733.5" y="-128.5" font-family="Helvetica,sans-Serif" font-size="10.00">* g()</text>
<text text-anchor="start" x="733.5" y="-117.5" font-family="Helvetica,sans-Serif" font-size="10.00">* g()</text>
<text text-anchor="start" x="733.5" y="-106.5" font-family="Helvetica,sans-Serif" font-size="10.00">* k()</text>
<text text-anchor="start" x="733.5" y="-95.5" font-family="Helvetica,sans-Serif" font-size="10.00">* y()</text>
<text text-anchor="start" x="733.5" y="-84.5" font-family="Helvetica,sans-Serif" font-size="10.00">* s()</text>
<text text-anchor="start" x="733.5" y="-73.5" font-family="Helvetica,sans-Serif" font-size="10.00">* transition()</text>
<text text-anchor="start" x="733.5" y="-62.5" font-family="Helvetica,sans-Serif" font-size="10.00">* transition()</text>
<text text-anchor="start" x="733.5" y="-51.5" font-family="Helvetica,sans-Serif" font-size="10.00">* observation()</text>
<text text-anchor="start" x="733.5" y="-40.5" font-family="Helvetica,sans-Serif" font-size="10.00">* observation()</text>
<text text-anchor="start" x="733.5" y="-29.5" font-family="Helvetica,sans-Serif" font-size="10.00">* operator()()</text>
<text text-anchor="start" x="733.5" y="-18.5" font-family="Helvetica,sans-Serif" font-size="10.00">* update()</text>
<text text-anchor="start" x="733.5" y="-7.5" font-family="Helvetica,sans-Serif" font-size="10.00">* predict()</text>
</a>
</g>
</g>
<!-- Node2 -->
<g id="node2" class="node">
<title>Node2</title>
<g id="a_node2"><a xlink:href="structfcarouge_1_1internal_1_1kalman_3_01_state_00_01_output_00_01_input_00_01_transpose_00_01_s189f7199b0f919964d120b8cacfaae8a.xhtml" target="_top" xlink:title=" ">
<polygon fill="white" stroke="black" points="741,-1689.5 741,-1988.5 901,-1988.5 901,-1689.5 741,-1689.5"/>
<text text-anchor="start" x="749" y="-1976.5" font-family="Helvetica,sans-Serif" font-size="10.00">fcarouge::internal</text>
<text text-anchor="start" x="749" y="-1965.5" font-family="Helvetica,sans-Serif" font-size="10.00">::kalman&lt; State, Output,</text>
<text text-anchor="start" x="749" y="-1954.5" font-family="Helvetica,sans-Serif" font-size="10.00"> Input, Transpose, Symmetrize,</text>
<text text-anchor="start" x="749" y="-1943.5" font-family="Helvetica,sans-Serif" font-size="10.00"> Divide, Identity, std::tuple</text>
<text text-anchor="start" x="749" y="-1932.5" font-family="Helvetica,sans-Serif" font-size="10.00">&lt; UpdateArguments... &gt;, std::</text>
<text text-anchor="middle" x="821" y="-1921.5" font-family="Helvetica,sans-Serif" font-size="10.00">tuple&lt; PredictionArguments... &gt; &gt;</text>
<polyline fill="none" stroke="black" points="741,-1914.5 901,-1914.5 "/>
<text text-anchor="middle" x="821" y="-1902.5" font-family="Helvetica,sans-Serif" font-size="10.00"> </text>
<polyline fill="none" stroke="black" points="741,-1895.5 901,-1895.5 "/>
<text text-anchor="start" x="749" y="-1883.5" font-family="Helvetica,sans-Serif" font-size="10.00">+ update()</text>
<text text-anchor="start" x="749" y="-1872.5" font-family="Helvetica,sans-Serif" font-size="10.00">+ predict()</text>
<text text-anchor="start" x="749" y="-1861.5" font-family="Helvetica,sans-Serif" font-size="10.00">+ predict()</text>
<text text-anchor="start" x="749" y="-1850.5" font-family="Helvetica,sans-Serif" font-size="10.00">* state</text>
<text text-anchor="start" x="749" y="-1839.5" font-family="Helvetica,sans-Serif" font-size="10.00">* output</text>
<text text-anchor="start" x="749" y="-1828.5" font-family="Helvetica,sans-Serif" font-size="10.00">* input</text>
<text text-anchor="start" x="749" y="-1817.5" font-family="Helvetica,sans-Serif" font-size="10.00">* estimate_uncertainty</text>
<text text-anchor="start" x="749" y="-1806.5" font-family="Helvetica,sans-Serif" font-size="10.00">* process_uncertainty</text>
<text text-anchor="start" x="749" y="-1795.5" font-family="Helvetica,sans-Serif" font-size="10.00">* output_uncertainty</text>
<text text-anchor="start" x="749" y="-1784.5" font-family="Helvetica,sans-Serif" font-size="10.00">* state_transition</text>
<text text-anchor="start" x="749" y="-1773.5" font-family="Helvetica,sans-Serif" font-size="10.00">* output_model</text>
<text text-anchor="start" x="749" y="-1762.5" font-family="Helvetica,sans-Serif" font-size="10.00">* input_control</text>
<text text-anchor="start" x="749" y="-1751.5" font-family="Helvetica,sans-Serif" font-size="10.00">* gain</text>
<text text-anchor="start" x="749" y="-1740.5" font-family="Helvetica,sans-Serif" font-size="10.00">* innovation</text>
<text text-anchor="start" x="749" y="-1729.5" font-family="Helvetica,sans-Serif" font-size="10.00">* innovation_uncertainty</text>
<text text-anchor="start" x="749" y="-1718.5" font-family="Helvetica,sans-Serif" font-size="10.00">* update()</text>
<text text-anchor="start" x="749" y="-1707.5" font-family="Helvetica,sans-Serif" font-size="10.00">* predict()</text>
<text text-anchor="start" x="749" y="-1696.5" font-family="Helvetica,sans-Serif" font-size="10.00">* predict()</text>
</a>
</g>
</g>
<!-- Node2&#45;&gt;Node1 -->
<g id="edge1" class="edge">
<title>Node2&#45;&gt;Node1</title>
<path fill="none" stroke="#404040" d="M821,-1689.45C821,-1677.97 821,-1665.98 821,-1653.56"/>
<polygon fill="none" stroke="#404040" points="821,-1653.51 817,-1647.51 821,-1641.51 825,-1647.51 821,-1653.51"/>
<text text-anchor="middle" x="833" y="-1663" font-family="Helvetica,sans-Serif" font-size="10.00"> &#45;filter</text>
</g>
<!-- Node3 -->
<g id="node3" class="node">
<title>Node3</title>
<g id="a_node3"><a xlink:title=" ">
<polygon fill="white" stroke="#bfbfbf" points="0,-2157.5 0,-2214.5 40,-2214.5 40,-2157.5 0,-2157.5"/>
<text text-anchor="middle" x="20" y="-2202.5" font-family="Helvetica,sans-Serif" font-size="10.00">State</text>
<polyline fill="none" stroke="#bfbfbf" points="0,-2195.5 40,-2195.5 "/>
<text text-anchor="middle" x="20" y="-2183.5" font-family="Helvetica,sans-Serif" font-size="10.00"> </text>
<polyline fill="none" stroke="#bfbfbf" points="0,-2176.5 40,-2176.5 "/>
<text text-anchor="middle" x="20" y="-2164.5" font-family="Helvetica,sans-Serif" font-size="10.00"> </text>
</a>
</g>
</g>
<!-- Node3&#45;&gt;Node2 -->
<g id="edge2" class="edge">
<title>Node3&#45;&gt;Node2</title>
<path fill="none" stroke="#404040" d="M32.15,-2157.41C51.04,-2117.81 91.27,-2045.42 148,-2007 328.69,-1884.63 590.95,-1851.82 728.65,-1843.1"/>
<polygon fill="none" stroke="#404040" points="728.79,-1843.09 734.54,-1838.74 740.77,-1842.37 735.02,-1846.73 728.79,-1843.09"/>
<text text-anchor="middle" x="154.5" y="-2065" font-family="Helvetica,sans-Serif" font-size="10.00"> +x</text>
</g>
<!-- Node4 -->
<g id="node4" class="node">
<title>Node4</title>
<g id="a_node4"><a xlink:title=" ">
<polygon fill="white" stroke="#bfbfbf" points="58.5,-2146.5 58.5,-2225.5 179.5,-2225.5 179.5,-2146.5 58.5,-2146.5"/>
<text text-anchor="start" x="66.5" y="-2213.5" font-family="Helvetica,sans-Serif" font-size="10.00">decay_t&lt; std::invoke</text>
<text text-anchor="start" x="66.5" y="-2202.5" font-family="Helvetica,sans-Serif" font-size="10.00">_result_t&lt; Divide, State,</text>
<text text-anchor="middle" x="119" y="-2191.5" font-family="Helvetica,sans-Serif" font-size="10.00"> State &gt; &gt;</text>
<polyline fill="none" stroke="#bfbfbf" points="58.5,-2184.5 179.5,-2184.5 "/>
<text text-anchor="middle" x="119" y="-2172.5" font-family="Helvetica,sans-Serif" font-size="10.00"> </text>
<polyline fill="none" stroke="#bfbfbf" points="58.5,-2165.5 179.5,-2165.5 "/>
<text text-anchor="middle" x="119" y="-2153.5" font-family="Helvetica,sans-Serif" font-size="10.00"> </text>
</a>
</g>
</g>
<!-- Node4&#45;&gt;Node2 -->
<g id="edge3" class="edge">
<title>Node4&#45;&gt;Node2</title>
<path fill="none" stroke="#404040" d="M148.32,-2146.26C180.63,-2106.08 236.16,-2044.05 297,-2007 434.95,-1923 619.38,-1877.09 728.64,-1855.61"/>
<polygon fill="none" stroke="#404040" points="728.82,-1855.58 733.95,-1850.51 740.6,-1853.3 735.47,-1858.37 728.82,-1855.58"/>
<text text-anchor="middle" x="303" y="-2076" font-family="Helvetica,sans-Serif" font-size="10.00"> +f</text>
<text text-anchor="middle" x="303" y="-2065" font-family="Helvetica,sans-Serif" font-size="10.00">+p</text>
<text text-anchor="middle" x="303" y="-2054" font-family="Helvetica,sans-Serif" font-size="10.00">+q</text>
</g>
<!-- Node5 -->
<g id="node5" class="node">
<title>Node5</title>
<g id="a_node5"><a xlink:title=" ">
<polygon fill="white" stroke="#bfbfbf" points="197.5,-2146.5 197.5,-2225.5 324.5,-2225.5 324.5,-2146.5 197.5,-2146.5"/>
<text text-anchor="start" x="205.5" y="-2213.5" font-family="Helvetica,sans-Serif" font-size="10.00">decay_t&lt; std::invoke</text>
<text text-anchor="start" x="205.5" y="-2202.5" font-family="Helvetica,sans-Serif" font-size="10.00">_result_t&lt; Divide, Output,</text>
<text text-anchor="middle" x="261" y="-2191.5" font-family="Helvetica,sans-Serif" font-size="10.00"> Output &gt; &gt;</text>
<polyline fill="none" stroke="#bfbfbf" points="197.5,-2184.5 324.5,-2184.5 "/>
<text text-anchor="middle" x="261" y="-2172.5" font-family="Helvetica,sans-Serif" font-size="10.00"> </text>
<polyline fill="none" stroke="#bfbfbf" points="197.5,-2165.5 324.5,-2165.5 "/>
<text text-anchor="middle" x="261" y="-2153.5" font-family="Helvetica,sans-Serif" font-size="10.00"> </text>
</a>
</g>
</g>
<!-- Node5&#45;&gt;Node2 -->
<g id="edge4" class="edge">
<title>Node5&#45;&gt;Node2</title>
<path fill="none" stroke="#404040" d="M292.48,-2146.45C326.02,-2107.3 382.3,-2046.9 441,-2007 531.89,-1945.23 649.34,-1897.79 729.45,-1869.53"/>
<polygon fill="none" stroke="#404040" points="729.67,-1869.45 734.01,-1863.7 741,-1865.5 736.65,-1871.25 729.67,-1869.45"/>
<text text-anchor="middle" x="447" y="-2065" font-family="Helvetica,sans-Serif" font-size="10.00"> +r</text>
</g>
<!-- Node6 -->
<g id="node6" class="node">
<title>Node6</title>
<g id="a_node6"><a xlink:title=" ">
<polygon fill="white" stroke="#bfbfbf" points="342.5,-2146.5 342.5,-2225.5 469.5,-2225.5 469.5,-2146.5 342.5,-2146.5"/>
<text text-anchor="start" x="350.5" y="-2213.5" font-family="Helvetica,sans-Serif" font-size="10.00">decay_t&lt; std::invoke</text>
<text text-anchor="start" x="350.5" y="-2202.5" font-family="Helvetica,sans-Serif" font-size="10.00">_result_t&lt; Divide, Output,</text>
<text text-anchor="middle" x="406" y="-2191.5" font-family="Helvetica,sans-Serif" font-size="10.00"> State &gt; &gt;</text>
<polyline fill="none" stroke="#bfbfbf" points="342.5,-2184.5 469.5,-2184.5 "/>
<text text-anchor="middle" x="406" y="-2172.5" font-family="Helvetica,sans-Serif" font-size="10.00"> </text>
<polyline fill="none" stroke="#bfbfbf" points="342.5,-2165.5 469.5,-2165.5 "/>
<text text-anchor="middle" x="406" y="-2153.5" font-family="Helvetica,sans-Serif" font-size="10.00"> </text>
</a>
</g>
</g>
<!-- Node6&#45;&gt;Node2 -->
<g id="edge5" class="edge">
<title>Node6&#45;&gt;Node2</title>
<path fill="none" stroke="#404040" d="M438.97,-2146.31C471.97,-2108.68 525.17,-2050.9 577,-2007 625.08,-1966.27 683.14,-1926.21 730.57,-1895.54"/>
<polygon fill="none" stroke="#404040" points="730.73,-1895.43 733.62,-1888.82 740.83,-1888.94 737.94,-1895.55 730.73,-1895.43"/>
<text text-anchor="middle" x="584" y="-2065" font-family="Helvetica,sans-Serif" font-size="10.00"> +h</text>
</g>
<!-- Node7 -->
<g id="node7" class="node">
<title>Node7</title>
<g id="a_node7"><a xlink:title=" ">
<polygon fill="white" stroke="#bfbfbf" points="487.5,-2146.5 487.5,-2225.5 608.5,-2225.5 608.5,-2146.5 487.5,-2146.5"/>
<text text-anchor="start" x="495.5" y="-2213.5" font-family="Helvetica,sans-Serif" font-size="10.00">decay_t&lt; std::invoke</text>
<text text-anchor="start" x="495.5" y="-2202.5" font-family="Helvetica,sans-Serif" font-size="10.00">_result_t&lt; Divide, State,</text>
<text text-anchor="middle" x="548" y="-2191.5" font-family="Helvetica,sans-Serif" font-size="10.00"> Input &gt; &gt;</text>
<polyline fill="none" stroke="#bfbfbf" points="487.5,-2184.5 608.5,-2184.5 "/>
<text text-anchor="middle" x="548" y="-2172.5" font-family="Helvetica,sans-Serif" font-size="10.00"> </text>
<polyline fill="none" stroke="#bfbfbf" points="487.5,-2165.5 608.5,-2165.5 "/>
<text text-anchor="middle" x="548" y="-2153.5" font-family="Helvetica,sans-Serif" font-size="10.00"> </text>
</a>
</g>
</g>
<!-- Node7&#45;&gt;Node2 -->
<g id="edge6" class="edge">
<title>Node7&#45;&gt;Node2</title>
<path fill="none" stroke="#404040" d="M577.95,-2146.34C606,-2110.21 649.16,-2054.8 687,-2007 701.87,-1988.21 717.75,-1968.3 733.18,-1949.02"/>
<polygon fill="none" stroke="#404040" points="733.21,-1948.98 733.84,-1941.8 740.72,-1939.62 740.09,-1946.8 733.21,-1948.98"/>
<text text-anchor="middle" x="694" y="-2065" font-family="Helvetica,sans-Serif" font-size="10.00"> +g</text>
</g>
<!-- Node8 -->
<g id="node8" class="node">
<title>Node8</title>
<g id="a_node8"><a xlink:title=" ">
<polygon fill="white" stroke="#bfbfbf" points="626.5,-2146.5 626.5,-2225.5 737.5,-2225.5 737.5,-2146.5 626.5,-2146.5"/>
<text text-anchor="start" x="634.5" y="-2213.5" font-family="Helvetica,sans-Serif" font-size="10.00">decay_t&lt; std::invoke</text>
<text text-anchor="start" x="634.5" y="-2202.5" font-family="Helvetica,sans-Serif" font-size="10.00">_result_t&lt; Transpose,</text>
<text text-anchor="middle" x="682" y="-2191.5" font-family="Helvetica,sans-Serif" font-size="10.00"> output_model &gt; &gt;</text>
<polyline fill="none" stroke="#bfbfbf" points="626.5,-2184.5 737.5,-2184.5 "/>
<text text-anchor="middle" x="682" y="-2172.5" font-family="Helvetica,sans-Serif" font-size="10.00"> </text>
<polyline fill="none" stroke="#bfbfbf" points="626.5,-2165.5 737.5,-2165.5 "/>
<text text-anchor="middle" x="682" y="-2153.5" font-family="Helvetica,sans-Serif" font-size="10.00"> </text>
</a>
</g>
</g>
<!-- Node8&#45;&gt;Node2 -->
<g id="edge7" class="edge">
<title>Node8&#45;&gt;Node2</title>
<path fill="none" stroke="#404040" d="M697.54,-2146.43C712.02,-2110.49 734.62,-2054.4 756.54,-1999.98"/>
<polygon fill="none" stroke="#404040" points="756.58,-1999.89 755.11,-1992.83 761.06,-1988.76 762.53,-1995.82 756.58,-1999.89"/>
<text text-anchor="middle" x="758" y="-2065" font-family="Helvetica,sans-Serif" font-size="10.00"> +k</text>
</g>
<!-- Node9 -->
<g id="node9" class="node">
<title>Node9</title>
<g id="a_node9"><a xlink:title=" ">
<polygon fill="white" stroke="#bfbfbf" points="755,-2157.5 755,-2214.5 799,-2214.5 799,-2157.5 755,-2157.5"/>
<text text-anchor="middle" x="777" y="-2202.5" font-family="Helvetica,sans-Serif" font-size="10.00">output</text>
<polyline fill="none" stroke="#bfbfbf" points="755,-2195.5 799,-2195.5 "/>
<text text-anchor="middle" x="777" y="-2183.5" font-family="Helvetica,sans-Serif" font-size="10.00"> </text>
<polyline fill="none" stroke="#bfbfbf" points="755,-2176.5 799,-2176.5 "/>
<text text-anchor="middle" x="777" y="-2164.5" font-family="Helvetica,sans-Serif" font-size="10.00"> </text>
</a>
</g>
</g>
<!-- Node9&#45;&gt;Node2 -->
<g id="edge8" class="edge">
<title>Node9&#45;&gt;Node2</title>
<path fill="none" stroke="#404040" d="M780.53,-2157.35C784.93,-2122.8 792.83,-2060.88 800.49,-2000.85"/>
<polygon fill="none" stroke="#404040" points="800.49,-2000.79 797.29,-1994.33 802.01,-1988.88 805.22,-1995.34 800.49,-2000.79"/>
<text text-anchor="middle" x="805.5" y="-2065" font-family="Helvetica,sans-Serif" font-size="10.00"> +y</text>
</g>
<!-- Node10 -->
<g id="node10" class="node">
<title>Node10</title>
<g id="a_node10"><a xlink:title=" ">
<polygon fill="white" stroke="#bfbfbf" points="817,-2157.5 817,-2214.5 913,-2214.5 913,-2157.5 817,-2157.5"/>
<text text-anchor="middle" x="865" y="-2202.5" font-family="Helvetica,sans-Serif" font-size="10.00">output_uncertainty</text>
<polyline fill="none" stroke="#bfbfbf" points="817,-2195.5 913,-2195.5 "/>
<text text-anchor="middle" x="865" y="-2183.5" font-family="Helvetica,sans-Serif" font-size="10.00"> </text>
<polyline fill="none" stroke="#bfbfbf" points="817,-2176.5 913,-2176.5 "/>
<text text-anchor="middle" x="865" y="-2164.5" font-family="Helvetica,sans-Serif" font-size="10.00"> </text>
</a>
</g>
</g>
<!-- Node10&#45;&gt;Node2 -->
<g id="edge9" class="edge">
<title>Node10&#45;&gt;Node2</title>
<path fill="none" stroke="#404040" d="M861.47,-2157.35C857.07,-2122.8 849.17,-2060.88 841.51,-2000.85"/>
<polygon fill="none" stroke="#404040" points="841.51,-2000.79 836.78,-1995.34 839.99,-1988.88 844.71,-1994.33 841.51,-2000.79"/>
<text text-anchor="middle" x="864" y="-2065" font-family="Helvetica,sans-Serif" font-size="10.00"> +s</text>
</g>
<!-- Node11 -->
<g id="node11" class="node">
<title>Node11</title>
<g id="a_node11"><a xlink:title=" ">
<polygon fill="white" stroke="#bfbfbf" points="931,-2157.5 931,-2214.5 977,-2214.5 977,-2157.5 931,-2157.5"/>
<text text-anchor="middle" x="954" y="-2202.5" font-family="Helvetica,sans-Serif" font-size="10.00">Output</text>
<polyline fill="none" stroke="#bfbfbf" points="931,-2195.5 977,-2195.5 "/>
<text text-anchor="middle" x="954" y="-2183.5" font-family="Helvetica,sans-Serif" font-size="10.00"> </text>
<polyline fill="none" stroke="#bfbfbf" points="931,-2176.5 977,-2176.5 "/>
<text text-anchor="middle" x="954" y="-2164.5" font-family="Helvetica,sans-Serif" font-size="10.00"> </text>
</a>
</g>
</g>
<!-- Node11&#45;&gt;Node2 -->
<g id="edge10" class="edge">
<title>Node11&#45;&gt;Node2</title>
<path fill="none" stroke="#404040" d="M943.34,-2157.35C929.97,-2122.65 905.95,-2060.36 882.72,-2000.1"/>
<polygon fill="none" stroke="#404040" points="882.71,-2000.08 876.82,-1995.92 878.4,-1988.88 884.29,-1993.04 882.71,-2000.08"/>
<text text-anchor="middle" x="937.5" y="-2065" font-family="Helvetica,sans-Serif" font-size="10.00"> +z</text>
</g>
<!-- Node12 -->
<g id="node12" class="node">
<title>Node12</title>
<g id="a_node12"><a xlink:title=" ">
<polygon fill="white" stroke="#bfbfbf" points="995.5,-2157.5 995.5,-2214.5 1052.5,-2214.5 1052.5,-2157.5 995.5,-2157.5"/>
<text text-anchor="middle" x="1024" y="-2202.5" font-family="Helvetica,sans-Serif" font-size="10.00">function&lt;</text>
<polyline fill="none" stroke="#bfbfbf" points="995.5,-2195.5 1052.5,-2195.5 "/>
<text text-anchor="middle" x="1024" y="-2183.5" font-family="Helvetica,sans-Serif" font-size="10.00"> </text>
<polyline fill="none" stroke="#bfbfbf" points="995.5,-2176.5 1052.5,-2176.5 "/>
<text text-anchor="middle" x="1024" y="-2164.5" font-family="Helvetica,sans-Serif" font-size="10.00"> </text>
</a>
</g>
</g>
<!-- Node12&#45;&gt;Node2 -->
<g id="edge11" class="edge">
<title>Node12&#45;&gt;Node2</title>
<path fill="none" stroke="#404040" d="M1006.06,-2157.5C1000.5,-2148.33 994.62,-2137.92 990,-2128 965.96,-2076.4 974.9,-2057.17 948,-2007 936.61,-1985.76 922.62,-1964.34 908.14,-1944.25"/>
<polygon fill="none" stroke="#404040" points="908.1,-1944.19 901.32,-1941.71 901.01,-1934.51 907.78,-1936.99 908.1,-1944.19"/>
<text text-anchor="start" x="990" y="-2120" font-family="Helvetica,sans-Serif" font-size="10.00"> +noise_observation</text>
<text text-anchor="middle" x="1034" y="-2109" font-family="Helvetica,sans-Serif" font-size="10.00">_r</text>
<text text-anchor="start" x="990" y="-2098" font-family="Helvetica,sans-Serif" font-size="10.00">+noise_process</text>
<text text-anchor="middle" x="1034" y="-2087" font-family="Helvetica,sans-Serif" font-size="10.00">_q</text>
<text text-anchor="middle" x="1034" y="-2076" font-family="Helvetica,sans-Serif" font-size="10.00">+observation</text>
<text text-anchor="start" x="990" y="-2065" font-family="Helvetica,sans-Serif" font-size="10.00">+observation</text>
<text text-anchor="middle" x="1034" y="-2054" font-family="Helvetica,sans-Serif" font-size="10.00">_state_h</text>
<text text-anchor="middle" x="1034" y="-2043" font-family="Helvetica,sans-Serif" font-size="10.00">+transition</text>
<text text-anchor="start" x="990" y="-2032" font-family="Helvetica,sans-Serif" font-size="10.00">+transition_control</text>
<text text-anchor="middle" x="1034" y="-2021" font-family="Helvetica,sans-Serif" font-size="10.00">_g</text>
<text text-anchor="middle" x="1034" y="-2010" font-family="Helvetica,sans-Serif" font-size="10.00">+transition_state_f</text>
</g>
<!-- Node13 -->
<g id="node13" class="node">
<title>Node13</title>
<g id="a_node13"><a xlink:title=" ">
<polygon fill="white" stroke="#bfbfbf" points="1071,-2157.5 1071,-2214.5 1133,-2214.5 1133,-2157.5 1071,-2157.5"/>
<text text-anchor="middle" x="1102" y="-2202.5" font-family="Helvetica,sans-Serif" font-size="10.00">Transpose</text>
<polyline fill="none" stroke="#bfbfbf" points="1071,-2195.5 1133,-2195.5 "/>
<text text-anchor="middle" x="1102" y="-2183.5" font-family="Helvetica,sans-Serif" font-size="10.00"> </text>
<polyline fill="none" stroke="#bfbfbf" points="1071,-2176.5 1133,-2176.5 "/>
<text text-anchor="middle" x="1102" y="-2164.5" font-family="Helvetica,sans-Serif" font-size="10.00"> </text>
</a>
</g>
</g>
<!-- Node13&#45;&gt;Node2 -->
<g id="edge12" class="edge">
<title>Node13&#45;&gt;Node2</title>
<path fill="none" stroke="#404040" d="M1101.06,-2157.5C1099.12,-2113.92 1093.47,-2031.44 1078,-2007 1039.3,-1945.86 969.2,-1902.55 911.97,-1875.38"/>
<polygon fill="none" stroke="#404040" points="911.97,-1875.38 904.84,-1876.48 901.08,-1870.33 908.21,-1869.23 911.97,-1875.38"/>
<text text-anchor="middle" x="1125" y="-2065" font-family="Helvetica,sans-Serif" font-size="10.00"> +transpose</text>
</g>
<!-- Node14 -->
<g id="node14" class="node">
<title>Node14</title>
<g id="a_node14"><a xlink:title=" ">
<polygon fill="white" stroke="#bfbfbf" points="1152,-2157.5 1152,-2214.5 1196,-2214.5 1196,-2157.5 1152,-2157.5"/>
<text text-anchor="middle" x="1174" y="-2202.5" font-family="Helvetica,sans-Serif" font-size="10.00">Divide</text>
<polyline fill="none" stroke="#bfbfbf" points="1152,-2195.5 1196,-2195.5 "/>
<text text-anchor="middle" x="1174" y="-2183.5" font-family="Helvetica,sans-Serif" font-size="10.00"> </text>
<polyline fill="none" stroke="#bfbfbf" points="1152,-2176.5 1196,-2176.5 "/>
<text text-anchor="middle" x="1174" y="-2164.5" font-family="Helvetica,sans-Serif" font-size="10.00"> </text>
</a>
</g>
</g>
<!-- Node14&#45;&gt;Node2 -->
<g id="edge13" class="edge">
<title>Node14&#45;&gt;Node2</title>
<path fill="none" stroke="#404040" d="M1178.26,-2157.5C1182.54,-2119.93 1184.6,-2052.11 1153,-2007 1096.66,-1926.58 989.98,-1882.76 912.71,-1860.44"/>
<polygon fill="none" stroke="#404040" points="912.61,-1860.41 905.76,-1862.64 901.06,-1857.17 907.92,-1854.94 912.61,-1860.41"/>
<text text-anchor="middle" x="1197" y="-2065" font-family="Helvetica,sans-Serif" font-size="10.00"> +divide</text>
</g>
<!-- Node15 -->
<g id="node15" class="node">
<title>Node15</title>
<g id="a_node15"><a xlink:title=" ">
<polygon fill="white" stroke="#bfbfbf" points="1214,-2157.5 1214,-2214.5 1282,-2214.5 1282,-2157.5 1214,-2157.5"/>
<text text-anchor="middle" x="1248" y="-2202.5" font-family="Helvetica,sans-Serif" font-size="10.00">Symmetrize</text>
<polyline fill="none" stroke="#bfbfbf" points="1214,-2195.5 1282,-2195.5 "/>
<text text-anchor="middle" x="1248" y="-2183.5" font-family="Helvetica,sans-Serif" font-size="10.00"> </text>
<polyline fill="none" stroke="#bfbfbf" points="1214,-2176.5 1282,-2176.5 "/>
<text text-anchor="middle" x="1248" y="-2164.5" font-family="Helvetica,sans-Serif" font-size="10.00"> </text>
</a>
</g>
</g>
<!-- Node15&#45;&gt;Node2 -->
<g id="edge14" class="edge">
<title>Node15&#45;&gt;Node2</title>
<path fill="none" stroke="#404040" d="M1246.56,-2157.48C1243.73,-2113.46 1236.09,-2029.85 1218,-2007 1143.07,-1912.38 1004.78,-1870.68 912.83,-1852.79"/>
<polygon fill="none" stroke="#404040" points="912.81,-1852.79 906.18,-1855.61 901.02,-1850.58 907.65,-1847.75 912.81,-1852.79"/>
<text text-anchor="middle" x="1273" y="-2065" font-family="Helvetica,sans-Serif" font-size="10.00"> +symmetrize</text>
</g>
<!-- Node16 -->
<g id="node16" class="node">
<title>Node16</title>
<g id="a_node16"><a xlink:title=" ">
<polygon fill="white" stroke="#bfbfbf" points="1302,-2157.5 1302,-2214.5 1350,-2214.5 1350,-2157.5 1302,-2157.5"/>
<text text-anchor="middle" x="1326" y="-2202.5" font-family="Helvetica,sans-Serif" font-size="10.00">Identity</text>
<polyline fill="none" stroke="#bfbfbf" points="1302,-2195.5 1350,-2195.5 "/>
<text text-anchor="middle" x="1326" y="-2183.5" font-family="Helvetica,sans-Serif" font-size="10.00"> </text>
<polyline fill="none" stroke="#bfbfbf" points="1302,-2176.5 1350,-2176.5 "/>
<text text-anchor="middle" x="1326" y="-2164.5" font-family="Helvetica,sans-Serif" font-size="10.00"> </text>
</a>
</g>
</g>
<!-- Node16&#45;&gt;Node2 -->
<g id="edge15" class="edge">
<title>Node16&#45;&gt;Node2</title>
<path fill="none" stroke="#404040" d="M1330.83,-2157.49C1335.89,-2119.31 1338.87,-2050.08 1304,-2007 1208.5,-1889.01 1024.92,-1854.14 913.65,-1843.99"/>
<polygon fill="none" stroke="#404040" points="913.4,-1843.97 907.08,-1847.44 901.45,-1842.95 907.76,-1839.47 913.4,-1843.97"/>
<text text-anchor="middle" x="1353" y="-2065" font-family="Helvetica,sans-Serif" font-size="10.00"> +identity</text>
</g>
</g>
</svg>
        <g id="navigator" transform="translate(0 0)" fill="#404254">
                <rect fill="#f2f5e9" fill-opacity="0.5" stroke="#606060" stroke-width=".5" x="0" y="0" width="60" height="60"/>
                <use id="zoomplus" xlink:href="#zoomPlus" x="17" y="9" onmousedown="handleZoom(evt,'in')"/>
                <use id="zoomminus" xlink:href="#zoomMin" x="42" y="9" onmousedown="handleZoom(evt,'out')"/>
                <use id="reset" xlink:href="#resetDef" x="30" y="36" onmousedown="handleReset()"/>
                <g id="arrowUp" xlink:href="#dirArrow" transform="translate(30 24)" onmousedown="handlePan(0,-1)">
                  <use xlink:href="#rim" fill="#404040">
                        <set attributeName="fill" to="#808080" begin="arrowUp.mouseover" end="arrowUp.mouseout"/>
                  </use>
                  <path fill="none" stroke="white" stroke-width="1.5" d="M0,-3.0v7 M-2.5,-0.5L0,-3.0L2.5,-0.5"/>
                </g>
                <g id="arrowRight" xlink:href="#dirArrow" transform="rotate(90) translate(36 -43)" onmousedown="handlePan(1,0)">
                  <use xlink:href="#rim" fill="#404040">
                        <set attributeName="fill" to="#808080" begin="arrowRight.mouseover" end="arrowRight.mouseout"/>
                  </use>
                  <path fill="none" stroke="white" stroke-width="1.5" d="M0,-3.0v7 M-2.5,-0.5L0,-3.0L2.5,-0.5"/>
                </g>
                <g id="arrowDown" xlink:href="#dirArrow" transform="rotate(180) translate(-30 -48)" onmousedown="handlePan(0,1)">
                  <use xlink:href="#rim" fill="#404040">
                        <set attributeName="fill" to="#808080" begin="arrowDown.mouseover" end="arrowDown.mouseout"/>
                  </use>
                  <path fill="none" stroke="white" stroke-width="1.5" d="M0,-3.0v7 M-2.5,-0.5L0,-3.0L2.5,-0.5"/>
                </g>
                <g id="arrowLeft" xlink:href="#dirArrow" transform="rotate(270) translate(-36 17)" onmousedown="handlePan(-1,0)">
                  <use xlink:href="#rim" fill="#404040">
                        <set attributeName="fill" to="#808080" begin="arrowLeft.mouseover" end="arrowLeft.mouseout"/>
                  </use>
                  <path fill="none" stroke="white" stroke-width="1.5" d="M0,-3.0v7 M-2.5,-0.5L0,-3.0L2.5,-0.5"/>
                </g>
        </g>
        <svg viewBox="0 0 15 15" width="100%" height="30px" preserveAspectRatio="xMaxYMin meet">
         <g id="arrow_out" transform="scale(0.3 0.3)">
          <a xlink:href="classfcarouge_1_1kalman_3_01_type_00_01_state_00_01_output_00_01_input_00_01_transpose_00_01_sym88fca00c8ff67227248815b09642797b_org.svg" target="_base">
           <rect id="button" ry="5" rx="5" y="6" x="6" height="38" width="38"
                fill="#f2f5e9" fill-opacity="0.5" stroke="#606060" stroke-width="1.0"/>
           <path id="arrow"
             d="M 11.500037,31.436501 C 11.940474,20.09759 22.043105,11.32322 32.158766,21.979434 L 37.068811,17.246167 C 37.068811,17.246167 37.088388,32 37.088388,32 L 22.160133,31.978069 C 22.160133,31.978069 26.997745,27.140456 26.997745,27.140456 C 18.528582,18.264221 13.291696,25.230495 11.500037,31.436501 z"
             style="fill:#404040;"/>
          </a>
         </g>
        </svg>
</svg>
