<?xml version="1.0" encoding="UTF-8" standalone="no"?>
<!DOCTYPE svg PUBLIC "-//W3C//DTD SVG 1.1//EN"
 "http://www.w3.org/Graphics/SVG/1.1/DTD/svg11.dtd">
<!-- Generated by graphviz version 12.2.0 (20241103.1931)
 -->
<!-- Title: fcarouge::kalman&lt; typename &gt; Pages: 1 -->
<svg width="1167pt" height="1034pt"
 viewBox="0.00 0.00 1166.88 1033.75" xmlns="http://www.w3.org/2000/svg" xmlns:xlink="http://www.w3.org/1999/xlink">
<g id="graph0" class="graph" transform="scale(1 1) rotate(0) translate(4 1029.75)">
<title>fcarouge::kalman&lt; typename &gt;</title>
<!-- Node1 -->
<g id="Node000001" class="node">
<title>Node1</title>
<g id="a_Node000001"><a xlink:title="A generic Kalman filter.">
<polygon fill="#999999" stroke="none" points="683.88,-797 543.88,-797 543.88,0 683.88,0 683.88,-797"/>
<text text-anchor="start" x="547.88" y="-783.5" font-family="Helvetica,sans-Serif" font-size="10.00">fcarouge::kalman&lt; typename &gt;</text>
<text text-anchor="start" x="612.38" y="-768.25" font-family="Helvetica,sans-Serif" font-size="10.00"> </text>
<text text-anchor="start" x="554.19" y="-753" font-family="Helvetica,sans-Serif" font-size="10.00">+</text>
<text text-anchor="start" x="570.5" y="-753" font-family="Helvetica,sans-Serif" font-size="10.00">kalman()</text>
<text text-anchor="start" x="554.19" y="-737.75" font-family="Helvetica,sans-Serif" font-size="10.00">+</text>
<text text-anchor="start" x="570.5" y="-737.75" font-family="Helvetica,sans-Serif" font-size="10.00">kalman()</text>
<text text-anchor="start" x="554.19" y="-722.5" font-family="Helvetica,sans-Serif" font-size="10.00">+</text>
<text text-anchor="start" x="570.5" y="-722.5" font-family="Helvetica,sans-Serif" font-size="10.00">kalman()</text>
<text text-anchor="start" x="554.19" y="-707.25" font-family="Helvetica,sans-Serif" font-size="10.00">+</text>
<text text-anchor="start" x="570.5" y="-707.25" font-family="Helvetica,sans-Serif" font-size="10.00">operator=()</text>
<text text-anchor="start" x="554.19" y="-692" font-family="Helvetica,sans-Serif" font-size="10.00">+</text>
<text text-anchor="start" x="570.5" y="-692" font-family="Helvetica,sans-Serif" font-size="10.00">operator=()</text>
<text text-anchor="start" x="554.19" y="-676.75" font-family="Helvetica,sans-Serif" font-size="10.00">+</text>
<text text-anchor="start" x="570.5" y="-676.75" font-family="Helvetica,sans-Serif" font-size="10.00">~kalman()</text>
<text text-anchor="start" x="554.19" y="-661.5" font-family="Helvetica,sans-Serif" font-size="10.00">+</text>
<text text-anchor="start" x="570.5" y="-661.5" font-family="Helvetica,sans-Serif" font-size="10.00">x()</text>
<text text-anchor="start" x="554.19" y="-646.25" font-family="Helvetica,sans-Serif" font-size="10.00">+</text>
<text text-anchor="start" x="570.5" y="-646.25" font-family="Helvetica,sans-Serif" font-size="10.00">z()</text>
<text text-anchor="start" x="554.19" y="-631" font-family="Helvetica,sans-Serif" font-size="10.00">+</text>
<text text-anchor="start" x="570.5" y="-631" font-family="Helvetica,sans-Serif" font-size="10.00">u()</text>
<text text-anchor="start" x="554.19" y="-615.75" font-family="Helvetica,sans-Serif" font-size="10.00">+</text>
<text text-anchor="start" x="570.5" y="-615.75" font-family="Helvetica,sans-Serif" font-size="10.00">p()</text>
<text text-anchor="start" x="554.19" y="-600.5" font-family="Helvetica,sans-Serif" font-size="10.00">+</text>
<text text-anchor="start" x="570.5" y="-600.5" font-family="Helvetica,sans-Serif" font-size="10.00">q()</text>
<text text-anchor="start" x="554.19" y="-585.25" font-family="Helvetica,sans-Serif" font-size="10.00">+</text>
<text text-anchor="start" x="570.5" y="-585.25" font-family="Helvetica,sans-Serif" font-size="10.00">r()</text>
<text text-anchor="start" x="554.19" y="-570" font-family="Helvetica,sans-Serif" font-size="10.00">+</text>
<text text-anchor="start" x="570.5" y="-570" font-family="Helvetica,sans-Serif" font-size="10.00">f()</text>
<text text-anchor="start" x="554.19" y="-554.75" font-family="Helvetica,sans-Serif" font-size="10.00">+</text>
<text text-anchor="start" x="570.5" y="-554.75" font-family="Helvetica,sans-Serif" font-size="10.00">h()</text>
<text text-anchor="start" x="554.19" y="-539.5" font-family="Helvetica,sans-Serif" font-size="10.00">+</text>
<text text-anchor="start" x="570.5" y="-539.5" font-family="Helvetica,sans-Serif" font-size="10.00">g()</text>
<text text-anchor="start" x="554.19" y="-524.25" font-family="Helvetica,sans-Serif" font-size="10.00">+</text>
<text text-anchor="start" x="570.5" y="-524.25" font-family="Helvetica,sans-Serif" font-size="10.00">k()</text>
<text text-anchor="start" x="554.19" y="-509" font-family="Helvetica,sans-Serif" font-size="10.00">+</text>
<text text-anchor="start" x="570.5" y="-509" font-family="Helvetica,sans-Serif" font-size="10.00">y()</text>
<text text-anchor="start" x="554.19" y="-493.75" font-family="Helvetica,sans-Serif" font-size="10.00">+</text>
<text text-anchor="start" x="570.5" y="-493.75" font-family="Helvetica,sans-Serif" font-size="10.00">s()</text>
<text text-anchor="start" x="554.19" y="-478.5" font-family="Helvetica,sans-Serif" font-size="10.00">+</text>
<text text-anchor="start" x="570.5" y="-478.5" font-family="Helvetica,sans-Serif" font-size="10.00">predict()</text>
<text text-anchor="start" x="554.19" y="-463.25" font-family="Helvetica,sans-Serif" font-size="10.00">+</text>
<text text-anchor="start" x="570.5" y="-463.25" font-family="Helvetica,sans-Serif" font-size="10.00">predict()</text>
<text text-anchor="start" x="554.19" y="-448" font-family="Helvetica,sans-Serif" font-size="10.00">+</text>
<text text-anchor="start" x="570.5" y="-448" font-family="Helvetica,sans-Serif" font-size="10.00">update()</text>
<text text-anchor="start" x="554.19" y="-432.75" font-family="Helvetica,sans-Serif" font-size="10.00">+</text>
<text text-anchor="start" x="570.5" y="-432.75" font-family="Helvetica,sans-Serif" font-size="10.00">update()</text>
<text text-anchor="start" x="555.31" y="-417.5" font-family="Helvetica,sans-Serif" font-size="10.00">*</text>
<text text-anchor="start" x="570.5" y="-417.5" font-family="Helvetica,sans-Serif" font-size="10.00">state</text>
<text text-anchor="start" x="555.31" y="-402.25" font-family="Helvetica,sans-Serif" font-size="10.00">*</text>
<text text-anchor="start" x="570.5" y="-402.25" font-family="Helvetica,sans-Serif" font-size="10.00">output</text>
<text text-anchor="start" x="555.31" y="-387" font-family="Helvetica,sans-Serif" font-size="10.00">*</text>
<text text-anchor="start" x="570.5" y="-387" font-family="Helvetica,sans-Serif" font-size="10.00">estimate_uncertainty</text>
<text text-anchor="start" x="555.31" y="-371.75" font-family="Helvetica,sans-Serif" font-size="10.00">*</text>
<text text-anchor="start" x="570.5" y="-371.75" font-family="Helvetica,sans-Serif" font-size="10.00">gain</text>
<text text-anchor="start" x="555.31" y="-356.5" font-family="Helvetica,sans-Serif" font-size="10.00">*</text>
<text text-anchor="start" x="570.5" y="-356.5" font-family="Helvetica,sans-Serif" font-size="10.00">innovation</text>
<text text-anchor="start" x="555.31" y="-341.25" font-family="Helvetica,sans-Serif" font-size="10.00">*</text>
<text text-anchor="start" x="570.5" y="-341.25" font-family="Helvetica,sans-Serif" font-size="10.00">innovation_uncertainty</text>
<text text-anchor="start" x="555.31" y="-326" font-family="Helvetica,sans-Serif" font-size="10.00">*</text>
<text text-anchor="start" x="570.5" y="-326" font-family="Helvetica,sans-Serif" font-size="10.00">kalman()</text>
<text text-anchor="start" x="555.31" y="-310.75" font-family="Helvetica,sans-Serif" font-size="10.00">*</text>
<text text-anchor="start" x="570.5" y="-310.75" font-family="Helvetica,sans-Serif" font-size="10.00">kalman()</text>
<text text-anchor="start" x="555.31" y="-295.5" font-family="Helvetica,sans-Serif" font-size="10.00">*</text>
<text text-anchor="start" x="570.5" y="-295.5" font-family="Helvetica,sans-Serif" font-size="10.00">kalman()</text>
<text text-anchor="start" x="555.31" y="-280.25" font-family="Helvetica,sans-Serif" font-size="10.00">*</text>
<text text-anchor="start" x="570.5" y="-280.25" font-family="Helvetica,sans-Serif" font-size="10.00">operator=()</text>
<text text-anchor="start" x="555.31" y="-265" font-family="Helvetica,sans-Serif" font-size="10.00">*</text>
<text text-anchor="start" x="570.5" y="-265" font-family="Helvetica,sans-Serif" font-size="10.00">operator=()</text>
<text text-anchor="start" x="555.31" y="-249.75" font-family="Helvetica,sans-Serif" font-size="10.00">*</text>
<text text-anchor="start" x="570.5" y="-249.75" font-family="Helvetica,sans-Serif" font-size="10.00">~kalman()</text>
<text text-anchor="start" x="555.31" y="-234.5" font-family="Helvetica,sans-Serif" font-size="10.00">*</text>
<text text-anchor="start" x="570.5" y="-234.5" font-family="Helvetica,sans-Serif" font-size="10.00">x()</text>
<text text-anchor="start" x="555.31" y="-219.25" font-family="Helvetica,sans-Serif" font-size="10.00">*</text>
<text text-anchor="start" x="570.5" y="-219.25" font-family="Helvetica,sans-Serif" font-size="10.00">z()</text>
<text text-anchor="start" x="555.31" y="-204" font-family="Helvetica,sans-Serif" font-size="10.00">*</text>
<text text-anchor="start" x="570.5" y="-204" font-family="Helvetica,sans-Serif" font-size="10.00">u()</text>
<text text-anchor="start" x="555.31" y="-188.75" font-family="Helvetica,sans-Serif" font-size="10.00">*</text>
<text text-anchor="start" x="570.5" y="-188.75" font-family="Helvetica,sans-Serif" font-size="10.00">p()</text>
<text text-anchor="start" x="555.31" y="-173.5" font-family="Helvetica,sans-Serif" font-size="10.00">*</text>
<text text-anchor="start" x="570.5" y="-173.5" font-family="Helvetica,sans-Serif" font-size="10.00">q()</text>
<text text-anchor="start" x="555.31" y="-158.25" font-family="Helvetica,sans-Serif" font-size="10.00">*</text>
<text text-anchor="start" x="570.5" y="-158.25" font-family="Helvetica,sans-Serif" font-size="10.00">r()</text>
<text text-anchor="start" x="555.31" y="-143" font-family="Helvetica,sans-Serif" font-size="10.00">*</text>
<text text-anchor="start" x="570.5" y="-143" font-family="Helvetica,sans-Serif" font-size="10.00">f()</text>
<text text-anchor="start" x="555.31" y="-127.75" font-family="Helvetica,sans-Serif" font-size="10.00">*</text>
<text text-anchor="start" x="570.5" y="-127.75" font-family="Helvetica,sans-Serif" font-size="10.00">h()</text>
<text text-anchor="start" x="555.31" y="-112.5" font-family="Helvetica,sans-Serif" font-size="10.00">*</text>
<text text-anchor="start" x="570.5" y="-112.5" font-family="Helvetica,sans-Serif" font-size="10.00">g()</text>
<text text-anchor="start" x="555.31" y="-97.25" font-family="Helvetica,sans-Serif" font-size="10.00">*</text>
<text text-anchor="start" x="570.5" y="-97.25" font-family="Helvetica,sans-Serif" font-size="10.00">k()</text>
<text text-anchor="start" x="555.31" y="-82" font-family="Helvetica,sans-Serif" font-size="10.00">*</text>
<text text-anchor="start" x="570.5" y="-82" font-family="Helvetica,sans-Serif" font-size="10.00">y()</text>
<text text-anchor="start" x="555.31" y="-66.75" font-family="Helvetica,sans-Serif" font-size="10.00">*</text>
<text text-anchor="start" x="570.5" y="-66.75" font-family="Helvetica,sans-Serif" font-size="10.00">s()</text>
<text text-anchor="start" x="555.31" y="-51.5" font-family="Helvetica,sans-Serif" font-size="10.00">*</text>
<text text-anchor="start" x="570.5" y="-51.5" font-family="Helvetica,sans-Serif" font-size="10.00">predict()</text>
<text text-anchor="start" x="555.31" y="-36.25" font-family="Helvetica,sans-Serif" font-size="10.00">*</text>
<text text-anchor="start" x="570.5" y="-36.25" font-family="Helvetica,sans-Serif" font-size="10.00">predict()</text>
<text text-anchor="start" x="555.31" y="-21" font-family="Helvetica,sans-Serif" font-size="10.00">*</text>
<text text-anchor="start" x="570.5" y="-21" font-family="Helvetica,sans-Serif" font-size="10.00">update()</text>
<text text-anchor="start" x="555.31" y="-5.75" font-family="Helvetica,sans-Serif" font-size="10.00">*</text>
<text text-anchor="start" x="570.5" y="-5.75" font-family="Helvetica,sans-Serif" font-size="10.00">update()</text>
<polygon fill="#666666" stroke="#666666" points="543.88,-779.75 543.88,-779.75 683.88,-779.75 683.88,-779.75 543.88,-779.75"/>
<polygon fill="#666666" stroke="#666666" points="543.88,-764.5 543.88,-764.5 683.88,-764.5 683.88,-764.5 543.88,-764.5"/>
<polygon fill="none" stroke="#666666" points="543.88,0 543.88,-797 683.88,-797 683.88,0 543.88,0"/>
</a>
</g>
</g>
<!-- Node2 -->
<g id="Node000002" class="node">
<title>Node2</title>
<g id="a_Node000002"><a xlink:title=" ">
<polygon fill="white" stroke="none" points="629.88,-916.5 501.88,-916.5 501.88,-844.25 629.88,-844.25 629.88,-916.5"/>
<text text-anchor="start" x="505.88" y="-903" font-family="Helvetica,sans-Serif" font-size="10.00">fcarouge::kalman_internal</text>
<text text-anchor="start" x="505.88" y="-891.75" font-family="Helvetica,sans-Serif" font-size="10.00">::conditional_member_types</text>
<text text-anchor="start" x="546.75" y="-880.5" font-family="Helvetica,sans-Serif" font-size="10.00">&lt; Filter &gt;</text>
<text text-anchor="start" x="564.38" y="-865.25" font-family="Helvetica,sans-Serif" font-size="10.00"> </text>
<text text-anchor="start" x="564.38" y="-850" font-family="Helvetica,sans-Serif" font-size="10.00"> </text>
<polygon fill="#666666" stroke="#666666" points="501.88,-876.75 501.88,-876.75 629.88,-876.75 629.88,-876.75 501.88,-876.75"/>
<polygon fill="#666666" stroke="#666666" points="501.88,-861.5 501.88,-861.5 629.88,-861.5 629.88,-861.5 501.88,-861.5"/>
<polygon fill="none" stroke="#666666" points="501.88,-844.25 501.88,-916.5 629.88,-916.5 629.88,-844.25 501.88,-844.25"/>
</a>
</g>
</g>
<!-- Node2&#45;&gt;Node1 -->
<g id="edge1_Node000001_Node000002" class="edge">
<title>Node2&#45;&gt;Node1</title>
<g id="a_edge1_Node000001_Node000002"><a xlink:title=" ">
<path fill="none" stroke="#63b8ff" d="M570.5,-833.09C571.57,-822.42 572.79,-810.22 574.13,-796.87"/>
<polygon fill="none" stroke="#63b8ff" points="567.03,-832.67 569.52,-842.97 573.99,-833.37 567.03,-832.67"/>
</a>
</g>
</g>
<!-- Node3 -->
<g id="Node000003" class="node">
<title>Node3</title>
<g id="a_Node000003"><a xlink:title=" ">
<polygon fill="white" stroke="none" points="119.75,-1025.75 0,-1025.75 0,-953.5 119.75,-953.5 119.75,-1025.75"/>
<text text-anchor="start" x="4" y="-1012.25" font-family="Helvetica,sans-Serif" font-size="10.00">fcarouge::kalman_internal</text>
<text text-anchor="start" x="4" y="-1001" font-family="Helvetica,sans-Serif" font-size="10.00">::conditional_input_control</text>
<text text-anchor="start" x="40.75" y="-989.75" font-family="Helvetica,sans-Serif" font-size="10.00">&lt; Filter &gt;</text>
<text text-anchor="start" x="58.38" y="-974.5" font-family="Helvetica,sans-Serif" font-size="10.00"> </text>
<text text-anchor="start" x="58.38" y="-959.25" font-family="Helvetica,sans-Serif" font-size="10.00"> </text>
<polygon fill="#666666" stroke="#666666" points="0,-986 0,-986 119.75,-986 119.75,-986 0,-986"/>
<polygon fill="#666666" stroke="#666666" points="0,-970.75 0,-970.75 119.75,-970.75 119.75,-970.75 0,-970.75"/>
<polygon fill="none" stroke="#666666" points="0,-953.5 0,-1025.75 119.75,-1025.75 119.75,-953.5 0,-953.5"/>
</a>
</g>
</g>
<!-- Node3&#45;&gt;Node2 -->
<g id="edge2_Node000002_Node000003" class="edge">
<title>Node3&#45;&gt;Node2</title>
<g id="a_edge2_Node000002_Node000003"><a xlink:title=" ">
<path fill="none" stroke="#63b8ff" d="M130.56,-953.3C265.76,-910.33 418.07,-892.83 502.19,-885.74"/>
<polygon fill="none" stroke="#63b8ff" points="129.49,-949.97 121.06,-956.38 131.65,-956.63 129.49,-949.97"/>
</a>
</g>
</g>
<!-- Node4 -->
<g id="Node000004" class="node">
<title>Node4</title>
<g id="a_Node000004"><a xlink:title=" ">
<polygon fill="white" stroke="none" points="261.62,-1020.12 138.12,-1020.12 138.12,-959.12 261.62,-959.12 261.62,-1020.12"/>
<text text-anchor="start" x="142.12" y="-1006.62" font-family="Helvetica,sans-Serif" font-size="10.00">fcarouge::kalman_internal</text>
<text text-anchor="start" x="142.12" y="-995.38" font-family="Helvetica,sans-Serif" font-size="10.00">::conditional_input&lt; Filter &gt;</text>
<text text-anchor="start" x="198.38" y="-980.12" font-family="Helvetica,sans-Serif" font-size="10.00"> </text>
<text text-anchor="start" x="198.38" y="-964.88" font-family="Helvetica,sans-Serif" font-size="10.00"> </text>
<polygon fill="#666666" stroke="#666666" points="138.12,-991.62 138.12,-991.62 261.62,-991.62 261.62,-991.62 138.12,-991.62"/>
<polygon fill="#666666" stroke="#666666" points="138.12,-976.38 138.12,-976.38 261.62,-976.38 261.62,-976.38 138.12,-976.38"/>
<polygon fill="none" stroke="#666666" points="138.12,-959.12 138.12,-1020.12 261.62,-1020.12 261.62,-959.12 138.12,-959.12"/>
</a>
</g>
</g>
<!-- Node4&#45;&gt;Node2 -->
<g id="edge3_Node000002_Node000004" class="edge">
<title>Node4&#45;&gt;Node2</title>
<g id="a_edge3_Node000002_Node000004"><a xlink:title=" ">
<path fill="none" stroke="#63b8ff" d="M267.37,-954.81C268.54,-954.36 269.71,-953.92 270.88,-953.5 348.4,-925.24 441.38,-904.58 501.96,-892.78"/>
<polygon fill="none" stroke="#63b8ff" points="266.09,-951.55 258.15,-958.57 268.73,-958.03 266.09,-951.55"/>
</a>
</g>
</g>
<!-- Node5 -->
<g id="Node000005" class="node">
<title>Node5</title>
<g id="a_Node000005"><a xlink:title=" ">
<polygon fill="white" stroke="none" points="402.25,-1025.75 279.5,-1025.75 279.5,-953.5 402.25,-953.5 402.25,-1025.75"/>
<text text-anchor="start" x="283.5" y="-1012.25" font-family="Helvetica,sans-Serif" font-size="10.00">fcarouge::kalman_internal</text>
<text text-anchor="start" x="283.5" y="-1001" font-family="Helvetica,sans-Serif" font-size="10.00">::conditional_output_model</text>
<text text-anchor="start" x="321.75" y="-989.75" font-family="Helvetica,sans-Serif" font-size="10.00">&lt; Filter &gt;</text>
<text text-anchor="start" x="339.38" y="-974.5" font-family="Helvetica,sans-Serif" font-size="10.00"> </text>
<text text-anchor="start" x="339.38" y="-959.25" font-family="Helvetica,sans-Serif" font-size="10.00"> </text>
<polygon fill="#666666" stroke="#666666" points="279.5,-986 279.5,-986 402.25,-986 402.25,-986 279.5,-986"/>
<polygon fill="#666666" stroke="#666666" points="279.5,-970.75 279.5,-970.75 402.25,-970.75 402.25,-970.75 279.5,-970.75"/>
<polygon fill="none" stroke="#666666" points="279.5,-953.5 279.5,-1025.75 402.25,-1025.75 402.25,-953.5 279.5,-953.5"/>
</a>
</g>
</g>
<!-- Node5&#45;&gt;Node2 -->
<g id="edge4_Node000002_Node000005" class="edge">
<title>Node5&#45;&gt;Node2</title>
<g id="a_edge4_Node000002_Node000005"><a xlink:title=" ">
<path fill="none" stroke="#63b8ff" d="M412.22,-952.89C446.6,-936.33 476.43,-922.39 501.95,-910.6"/>
<polygon fill="none" stroke="#63b8ff" points="410.75,-949.71 403.27,-957.21 413.8,-956.01 410.75,-949.71"/>
</a>
</g>
</g>
<!-- Node6 -->
<g id="Node000006" class="node">
<title>Node6</title>
<g id="a_Node000006"><a xlink:title=" ">
<polygon fill="white" stroke="none" points="563.75,-1025.75 420,-1025.75 420,-953.5 563.75,-953.5 563.75,-1025.75"/>
<text text-anchor="start" x="424" y="-1012.25" font-family="Helvetica,sans-Serif" font-size="10.00">fcarouge::kalman_internal</text>
<text text-anchor="start" x="424" y="-1001" font-family="Helvetica,sans-Serif" font-size="10.00">::conditional_output_uncertainty</text>
<text text-anchor="start" x="472.75" y="-989.75" font-family="Helvetica,sans-Serif" font-size="10.00">&lt; Filter &gt;</text>
<text text-anchor="start" x="490.38" y="-974.5" font-family="Helvetica,sans-Serif" font-size="10.00"> </text>
<text text-anchor="start" x="490.38" y="-959.25" font-family="Helvetica,sans-Serif" font-size="10.00"> </text>
<polygon fill="#666666" stroke="#666666" points="420,-986 420,-986 563.75,-986 563.75,-986 420,-986"/>
<polygon fill="#666666" stroke="#666666" points="420,-970.75 420,-970.75 563.75,-970.75 563.75,-970.75 420,-970.75"/>
<polygon fill="none" stroke="#666666" points="420,-953.5 420,-1025.75 563.75,-1025.75 563.75,-953.5 420,-953.5"/>
</a>
</g>
</g>
<!-- Node6&#45;&gt;Node2 -->
<g id="edge5_Node000002_Node000006" class="edge">
<title>Node6&#45;&gt;Node2</title>
<g id="a_edge5_Node000002_Node000006"><a xlink:title=" ">
<path fill="none" stroke="#63b8ff" d="M522.45,-944.31C528.92,-934.93 535.66,-925.17 541.84,-916.21"/>
<polygon fill="none" stroke="#63b8ff" points="519.76,-942.04 516.96,-952.26 525.52,-946.02 519.76,-942.04"/>
</a>
</g>
</g>
<!-- Node7 -->
<g id="Node000007" class="node">
<title>Node7</title>
<g id="a_Node000007"><a xlink:title=" ">
<polygon fill="white" stroke="none" points="700,-1025.75 581.75,-1025.75 581.75,-953.5 700,-953.5 700,-1025.75"/>
<text text-anchor="start" x="585.75" y="-1012.25" font-family="Helvetica,sans-Serif" font-size="10.00">fcarouge::kalman_internal</text>
<text text-anchor="start" x="585.75" y="-1001" font-family="Helvetica,sans-Serif" font-size="10.00">::conditional_prediction</text>
<text text-anchor="start" x="607.5" y="-989.75" font-family="Helvetica,sans-Serif" font-size="10.00">_types&lt; Filter &gt;</text>
<text text-anchor="start" x="639.38" y="-974.5" font-family="Helvetica,sans-Serif" font-size="10.00"> </text>
<text text-anchor="start" x="639.38" y="-959.25" font-family="Helvetica,sans-Serif" font-size="10.00"> </text>
<polygon fill="#666666" stroke="#666666" points="581.75,-986 581.75,-986 700,-986 700,-986 581.75,-986"/>
<polygon fill="#666666" stroke="#666666" points="581.75,-970.75 581.75,-970.75 700,-970.75 700,-970.75 581.75,-970.75"/>
<polygon fill="none" stroke="#666666" points="581.75,-953.5 581.75,-1025.75 700,-1025.75 700,-953.5 581.75,-953.5"/>
</a>
</g>
</g>
<!-- Node7&#45;&gt;Node2 -->
<g id="edge6_Node000002_Node000007" class="edge">
<title>Node7&#45;&gt;Node2</title>
<g id="a_edge6_Node000002_Node000007"><a xlink:title=" ">
<path fill="none" stroke="#63b8ff" d="M609.88,-944.31C603.33,-934.93 596.5,-925.17 590.23,-916.21"/>
<polygon fill="none" stroke="#63b8ff" points="606.85,-946.08 615.45,-952.27 612.59,-942.07 606.85,-946.08"/>
</a>
</g>
</g>
<!-- Node8 -->
<g id="Node000008" class="node">
<title>Node8</title>
<g id="a_Node000008"><a xlink:title=" ">
<polygon fill="white" stroke="none" points="869.5,-1025.75 718.25,-1025.75 718.25,-953.5 869.5,-953.5 869.5,-1025.75"/>
<text text-anchor="start" x="722.25" y="-1012.25" font-family="Helvetica,sans-Serif" font-size="10.00">fcarouge::kalman_internal</text>
<text text-anchor="start" x="722.25" y="-1001" font-family="Helvetica,sans-Serif" font-size="10.00">::conditional_process_uncertainty</text>
<text text-anchor="start" x="774.75" y="-989.75" font-family="Helvetica,sans-Serif" font-size="10.00">&lt; Filter &gt;</text>
<text text-anchor="start" x="792.38" y="-974.5" font-family="Helvetica,sans-Serif" font-size="10.00"> </text>
<text text-anchor="start" x="792.38" y="-959.25" font-family="Helvetica,sans-Serif" font-size="10.00"> </text>
<polygon fill="#666666" stroke="#666666" points="718.25,-986 718.25,-986 869.5,-986 869.5,-986 718.25,-986"/>
<polygon fill="#666666" stroke="#666666" points="718.25,-970.75 718.25,-970.75 869.5,-970.75 869.5,-970.75 718.25,-970.75"/>
<polygon fill="none" stroke="#666666" points="718.25,-953.5 718.25,-1025.75 869.5,-1025.75 869.5,-953.5 718.25,-953.5"/>
</a>
</g>
</g>
<!-- Node8&#45;&gt;Node2 -->
<g id="edge7_Node000002_Node000008" class="edge">
<title>Node8&#45;&gt;Node2</title>
<g id="a_edge7_Node000002_Node000008"><a xlink:title=" ">
<path fill="none" stroke="#63b8ff" d="M708.25,-949.02C685.66,-938.51 661.33,-927.12 638.88,-916.5 635.82,-915.06 632.7,-913.57 629.55,-912.07"/>
<polygon fill="none" stroke="#63b8ff" points="706.58,-952.11 717.12,-953.15 709.53,-945.76 706.58,-952.11"/>
</a>
</g>
</g>
<!-- Node9 -->
<g id="Node000009" class="node">
<title>Node9</title>
<g id="a_Node000009"><a xlink:title=" ">
<polygon fill="white" stroke="none" points="1018.38,-1025.75 887.38,-1025.75 887.38,-953.5 1018.38,-953.5 1018.38,-1025.75"/>
<text text-anchor="start" x="891.38" y="-1012.25" font-family="Helvetica,sans-Serif" font-size="10.00">fcarouge::kalman_internal</text>
<text text-anchor="start" x="891.38" y="-1001" font-family="Helvetica,sans-Serif" font-size="10.00">::conditional_state_transition</text>
<text text-anchor="start" x="933.75" y="-989.75" font-family="Helvetica,sans-Serif" font-size="10.00">&lt; Filter &gt;</text>
<text text-anchor="start" x="951.38" y="-974.5" font-family="Helvetica,sans-Serif" font-size="10.00"> </text>
<text text-anchor="start" x="951.38" y="-959.25" font-family="Helvetica,sans-Serif" font-size="10.00"> </text>
<polygon fill="#666666" stroke="#666666" points="887.38,-986 887.38,-986 1018.38,-986 1018.38,-986 887.38,-986"/>
<polygon fill="#666666" stroke="#666666" points="887.38,-970.75 887.38,-970.75 1018.38,-970.75 1018.38,-970.75 887.38,-970.75"/>
<polygon fill="none" stroke="#666666" points="887.38,-953.5 887.38,-1025.75 1018.38,-1025.75 1018.38,-953.5 887.38,-953.5"/>
</a>
</g>
</g>
<!-- Node9&#45;&gt;Node2 -->
<g id="edge8_Node000002_Node000009" class="edge">
<title>Node9&#45;&gt;Node2</title>
<g id="a_edge8_Node000002_Node000009"><a xlink:title=" ">
<path fill="none" stroke="#63b8ff" d="M876.62,-953.14C773.39,-923.51 738.54,-947.41 638.88,-916.5 635.79,-915.54 632.66,-914.47 629.53,-913.32"/>
<polygon fill="none" stroke="#63b8ff" points="875.47,-956.45 886.05,-955.95 877.47,-949.74 875.47,-956.45"/>
</a>
</g>
</g>
<!-- Node10 -->
<g id="Node000010" class="node">
<title>Node10</title>
<g id="a_Node000010"><a xlink:title=" ">
<polygon fill="white" stroke="none" points="1158.88,-1025.75 1036.88,-1025.75 1036.88,-953.5 1158.88,-953.5 1158.88,-1025.75"/>
<text text-anchor="start" x="1040.88" y="-1012.25" font-family="Helvetica,sans-Serif" font-size="10.00">fcarouge::kalman_internal</text>
<text text-anchor="start" x="1040.88" y="-1001" font-family="Helvetica,sans-Serif" font-size="10.00">::conditional_update_types</text>
<text text-anchor="start" x="1078.75" y="-989.75" font-family="Helvetica,sans-Serif" font-size="10.00">&lt; Filter &gt;</text>
<text text-anchor="start" x="1096.38" y="-974.5" font-family="Helvetica,sans-Serif" font-size="10.00"> </text>
<text text-anchor="start" x="1096.38" y="-959.25" font-family="Helvetica,sans-Serif" font-size="10.00"> </text>
<polygon fill="#666666" stroke="#666666" points="1036.88,-986 1036.88,-986 1158.88,-986 1158.88,-986 1036.88,-986"/>
<polygon fill="#666666" stroke="#666666" points="1036.88,-970.75 1036.88,-970.75 1158.88,-970.75 1158.88,-970.75 1036.88,-970.75"/>
<polygon fill="none" stroke="#666666" points="1036.88,-953.5 1036.88,-1025.75 1158.88,-1025.75 1158.88,-953.5 1036.88,-953.5"/>
</a>
</g>
</g>
<!-- Node10&#45;&gt;Node2 -->
<g id="edge9_Node000002_Node000010" class="edge">
<title>Node10&#45;&gt;Node2</title>
<g id="a_edge9_Node000002_Node000010"><a xlink:title=" ">
<path fill="none" stroke="#63b8ff" d="M1025.82,-953.53C927.72,-930.24 719.34,-938.91 638.88,-916.5 635.76,-915.63 632.61,-914.64 629.47,-913.54"/>
<polygon fill="none" stroke="#63b8ff" points="1024.91,-956.91 1035.47,-956.06 1026.69,-950.14 1024.91,-956.91"/>
</a>
</g>
</g>
<!-- Node11 -->
<g id="Node000011" class="node">
<title>Node11</title>
<g id="a_Node000011"><a xlink:title=" ">
<polygon fill="white" stroke="none" points="677.75,-905.25 648,-905.25 648,-855.5 677.75,-855.5 677.75,-905.25"/>
<text text-anchor="start" x="652" y="-891.75" font-family="Helvetica,sans-Serif" font-size="10.00">Filter</text>
<text text-anchor="start" x="661.38" y="-876.5" font-family="Helvetica,sans-Serif" font-size="10.00"> </text>
<text text-anchor="start" x="661.38" y="-861.25" font-family="Helvetica,sans-Serif" font-size="10.00"> </text>
<polygon fill="#666666" stroke="#666666" points="648,-888 648,-888 677.75,-888 677.75,-888 648,-888"/>
<polygon fill="#666666" stroke="#666666" points="648,-872.75 648,-872.75 677.75,-872.75 677.75,-872.75 648,-872.75"/>
<polygon fill="none" stroke="#666666" points="648,-855.5 648,-905.25 677.75,-905.25 677.75,-855.5 648,-855.5"/>
</a>
</g>
</g>
<!-- Node11&#45;&gt;Node1 -->
<g id="edge10_Node000001_Node000011" class="edge">
<title>Node11&#45;&gt;Node1</title>
<g id="a_edge10_Node000001_Node000011"><a xlink:title=" ">
<path fill="none" stroke="#63b8ff" d="M660.45,-855.58C659.24,-843.77 657.63,-828.05 655.75,-809.56"/>
<polygon fill="none" stroke="#63b8ff" points="655.74,-809.51 651.15,-803.95 654.52,-797.57 659.11,-803.13 655.74,-809.51"/>
</a>
</g>
<text text-anchor="middle" x="668.43" y="-816.75" font-family="Helvetica,sans-Serif" font-size="10.00" fill="grey"> &#45;filter</text>
</g>
</g>
</svg>
