<?xml version="1.0" encoding="UTF-8" standalone="no"?>
<!DOCTYPE svg PUBLIC "-//W3C//DTD SVG 1.1//EN"
 "http://www.w3.org/Graphics/SVG/1.1/DTD/svg11.dtd">
<!-- Generated by graphviz version 2.44.0 ()
 -->
<!-- Title: fcarouge::kalman&lt; State, Output, Input, Transpose, Symmetrize, Divide, Identity, PredictionArguments &gt; Pages: 1 -->
<!--zoomable 358 -->
<svg id="main" version="1.1" xmlns="http://www.w3.org/2000/svg" xmlns:xlink="http://www.w3.org/1999/xlink" xml:space="preserve" onload="init(evt)">
<style type="text/css"><![CDATA[
.edge:hover path { stroke: red; }
.edge:hover polygon { stroke: red; fill: red; }
]]></style>
<script type="text/javascript"><![CDATA[
var edges = document.getElementsByTagName('g');
if (edges && edges.length) {
  for (var i=0;i<edges.length;i++) {
    if (edges[i].id.substr(0,4)=='edge') {
      edges[i].setAttribute('class','edge');
    }
  }
}
]]></script>
        <defs>
                <circle id="rim" cx="0" cy="0" r="7"/>
                <circle id="rim2" cx="0" cy="0" r="3.5"/>
                <g id="zoomPlus">
                        <use xlink:href="#rim" fill="#404040">
                                <set attributeName="fill" to="#808080" begin="zoomplus.mouseover" end="zoomplus.mouseout"/>
                        </use>
                        <path d="M-4,0h8M0,-4v8" fill="none" stroke="white" stroke-width="1.5" pointer-events="none"/>
                </g>
                <g id="zoomMin">
                        <use xlink:href="#rim" fill="#404040">
                                <set attributeName="fill" to="#808080" begin="zoomminus.mouseover" end="zoomminus.mouseout"/>
                        </use>
                        <path d="M-4,0h8" fill="none" stroke="white" stroke-width="1.5" pointer-events="none"/>
                </g>
                <g id="dirArrow">
                        <path fill="none" stroke="white" stroke-width="1.5" d="M0,-3.0v7 M-2.5,-0.5L0,-3.0L2.5,-0.5"/>
                </g>
               <g id="resetDef">
                       <use xlink:href="#rim2" fill="#404040">
                               <set attributeName="fill" to="#808080" begin="reset.mouseover" end="reset.mouseout"/>
                       </use>
               </g>
        </defs>

<script type="text/javascript">
var viewWidth = 969;
var viewHeight = 358;
var sectionId = 'dynsection-0';
</script>
<script xlink:href="svgpan.js"/>
<svg id="graph" class="graph">
<g id="viewport">
<title>fcarouge::kalman&lt; State, Output, Input, Transpose, Symmetrize, Divide, Identity, PredictionArguments &gt;</title>
<polygon fill="white" stroke="transparent" points="-4,4 -4,-354 965,-354 965,4 -4,4"/>
<!-- Node1 -->
<g id="node1" class="node">
<title>Node1</title>
<g id="a_node1"><a xlink:title="Kalman filter.">
<polygon fill="#bfbfbf" stroke="black" points="411,-0.5 411,-222.5 565,-222.5 565,-0.5 411,-0.5"/>
<text text-anchor="start" x="419" y="-210.5" font-family="Helvetica,sans-Serif" font-size="10.00">fcarouge::kalman&lt; State,</text>
<text text-anchor="start" x="419" y="-199.5" font-family="Helvetica,sans-Serif" font-size="10.00"> Output, Input, Transpose,</text>
<text text-anchor="start" x="419" y="-188.5" font-family="Helvetica,sans-Serif" font-size="10.00"> Symmetrize, Divide, Identity,</text>
<text text-anchor="middle" x="488" y="-177.5" font-family="Helvetica,sans-Serif" font-size="10.00"> PredictionArguments &gt;</text>
<polyline fill="none" stroke="black" points="411,-170.5 565,-170.5 "/>
<text text-anchor="middle" x="488" y="-158.5" font-family="Helvetica,sans-Serif" font-size="10.00"> </text>
<polyline fill="none" stroke="black" points="411,-151.5 565,-151.5 "/>
<text text-anchor="start" x="419" y="-139.5" font-family="Helvetica,sans-Serif" font-size="10.00">+ update()</text>
<text text-anchor="start" x="419" y="-128.5" font-family="Helvetica,sans-Serif" font-size="10.00">+ predict()</text>
<text text-anchor="start" x="419" y="-117.5" font-family="Helvetica,sans-Serif" font-size="10.00">* state</text>
<text text-anchor="start" x="419" y="-106.5" font-family="Helvetica,sans-Serif" font-size="10.00">* output</text>
<text text-anchor="start" x="419" y="-95.5" font-family="Helvetica,sans-Serif" font-size="10.00">* input</text>
<text text-anchor="start" x="419" y="-84.5" font-family="Helvetica,sans-Serif" font-size="10.00">* estimate_uncertainty</text>
<text text-anchor="start" x="419" y="-73.5" font-family="Helvetica,sans-Serif" font-size="10.00">* process_noise_uncertainty</text>
<text text-anchor="start" x="419" y="-62.5" font-family="Helvetica,sans-Serif" font-size="10.00">* state_transition</text>
<text text-anchor="start" x="419" y="-51.5" font-family="Helvetica,sans-Serif" font-size="10.00">* observation</text>
<text text-anchor="start" x="419" y="-40.5" font-family="Helvetica,sans-Serif" font-size="10.00">* observation_noise_uncertainty</text>
<text text-anchor="start" x="419" y="-29.5" font-family="Helvetica,sans-Serif" font-size="10.00">* control</text>
<text text-anchor="start" x="419" y="-18.5" font-family="Helvetica,sans-Serif" font-size="10.00">* update()</text>
<text text-anchor="start" x="419" y="-7.5" font-family="Helvetica,sans-Serif" font-size="10.00">* predict()</text>
</a>
</g>
</g>
<!-- Node2 -->
<g id="node2" class="node">
<title>Node2</title>
<g id="a_node2"><a xlink:title=" ">
<polygon fill="white" stroke="#bfbfbf" points="0,-281.5 0,-338.5 164,-338.5 164,-281.5 0,-281.5"/>
<text text-anchor="middle" x="82" y="-326.5" font-family="Helvetica,sans-Serif" font-size="10.00">observation_noise_uncertainty(*)()</text>
<polyline fill="none" stroke="#bfbfbf" points="0,-319.5 164,-319.5 "/>
<text text-anchor="middle" x="82" y="-307.5" font-family="Helvetica,sans-Serif" font-size="10.00"> </text>
<polyline fill="none" stroke="#bfbfbf" points="0,-300.5 164,-300.5 "/>
<text text-anchor="middle" x="82" y="-288.5" font-family="Helvetica,sans-Serif" font-size="10.00"> </text>
</a>
</g>
</g>
<!-- Node2&#45;&gt;Node1 -->
<g id="edge1" class="edge">
<title>Node2&#45;&gt;Node1</title>
<path fill="none" stroke="#404040" d="M106.26,-281.46C119.35,-267.88 136.4,-252.09 154,-241 230.91,-192.56 328.98,-157.52 398.92,-136.39"/>
<polygon fill="none" stroke="#404040" points="399.27,-136.28 403.87,-130.74 410.77,-132.86 406.16,-138.4 399.27,-136.28"/>
<text text-anchor="middle" x="202" y="-244" font-family="Helvetica,sans-Serif" font-size="10.00"> +noise_observation_r</text>
</g>
<!-- Node3 -->
<g id="node3" class="node">
<title>Node3</title>
<g id="a_node3"><a xlink:title=" ">
<polygon fill="white" stroke="#bfbfbf" points="182.5,-281.5 182.5,-338.5 265.5,-338.5 265.5,-281.5 182.5,-281.5"/>
<text text-anchor="middle" x="224" y="-326.5" font-family="Helvetica,sans-Serif" font-size="10.00">observation(*)()</text>
<polyline fill="none" stroke="#bfbfbf" points="182.5,-319.5 265.5,-319.5 "/>
<text text-anchor="middle" x="224" y="-307.5" font-family="Helvetica,sans-Serif" font-size="10.00"> </text>
<polyline fill="none" stroke="#bfbfbf" points="182.5,-300.5 265.5,-300.5 "/>
<text text-anchor="middle" x="224" y="-288.5" font-family="Helvetica,sans-Serif" font-size="10.00"> </text>
</a>
</g>
</g>
<!-- Node3&#45;&gt;Node1 -->
<g id="edge2" class="edge">
<title>Node3&#45;&gt;Node1</title>
<path fill="none" stroke="#404040" d="M235.71,-281.25C242.3,-267.94 251.54,-252.44 263,-241 301.97,-202.1 355.12,-171.02 399.97,-149.18"/>
<polygon fill="none" stroke="#404040" points="400.06,-149.14 403.75,-142.94 410.88,-143.96 407.19,-150.16 400.06,-149.14"/>
<text text-anchor="middle" x="320.5" y="-244" font-family="Helvetica,sans-Serif" font-size="10.00"> +transition_observation_h</text>
</g>
<!-- Node4 -->
<g id="node4" class="node">
<title>Node4</title>
<g id="a_node4"><a xlink:title=" ">
<polygon fill="white" stroke="#bfbfbf" points="284,-276 284,-344 412,-344 412,-276 284,-276"/>
<text text-anchor="start" x="292" y="-332" font-family="Helvetica,sans-Serif" font-size="10.00">control(*)(const Prediction</text>
<text text-anchor="middle" x="348" y="-321" font-family="Helvetica,sans-Serif" font-size="10.00">Arguments &amp;...)</text>
<polyline fill="none" stroke="#bfbfbf" points="284,-314 412,-314 "/>
<text text-anchor="middle" x="348" y="-302" font-family="Helvetica,sans-Serif" font-size="10.00"> </text>
<polyline fill="none" stroke="#bfbfbf" points="284,-295 412,-295 "/>
<text text-anchor="middle" x="348" y="-283" font-family="Helvetica,sans-Serif" font-size="10.00"> </text>
</a>
</g>
</g>
<!-- Node4&#45;&gt;Node1 -->
<g id="edge3" class="edge">
<title>Node4&#45;&gt;Node1</title>
<path fill="none" stroke="#404040" d="M367.65,-275.72C374.5,-264.54 382.37,-252.09 390,-241 394.33,-234.7 398.85,-228.29 403.46,-221.86"/>
<polygon fill="none" stroke="#404040" points="403.75,-221.47 404.03,-214.27 410.79,-211.76 410.51,-218.96 403.75,-221.47"/>
<text text-anchor="middle" x="437" y="-244" font-family="Helvetica,sans-Serif" font-size="10.00"> +transition_control_g</text>
</g>
<!-- Node5 -->
<g id="node5" class="node">
<title>Node5</title>
<g id="a_node5"><a xlink:title=" ">
<polygon fill="white" stroke="#bfbfbf" points="430,-270.5 430,-349.5 546,-349.5 546,-270.5 430,-270.5"/>
<text text-anchor="start" x="438" y="-337.5" font-family="Helvetica,sans-Serif" font-size="10.00">invoke_result_t&lt; divide</text>
<text text-anchor="start" x="438" y="-326.5" font-family="Helvetica,sans-Serif" font-size="10.00">&lt; State, State &gt;, State,</text>
<text text-anchor="middle" x="488" y="-315.5" font-family="Helvetica,sans-Serif" font-size="10.00"> State &gt;</text>
<polyline fill="none" stroke="#bfbfbf" points="430,-308.5 546,-308.5 "/>
<text text-anchor="middle" x="488" y="-296.5" font-family="Helvetica,sans-Serif" font-size="10.00"> </text>
<polyline fill="none" stroke="#bfbfbf" points="430,-289.5 546,-289.5 "/>
<text text-anchor="middle" x="488" y="-277.5" font-family="Helvetica,sans-Serif" font-size="10.00"> </text>
</a>
</g>
</g>
<!-- Node5&#45;&gt;Node1 -->
<g id="edge4" class="edge">
<title>Node5&#45;&gt;Node1</title>
<path fill="none" stroke="#404040" d="M488,-270.18C488,-259.58 488,-247.51 488,-234.87"/>
<polygon fill="none" stroke="#404040" points="488,-234.61 484,-228.61 488,-222.61 492,-228.61 488,-234.61"/>
<text text-anchor="middle" x="542.5" y="-244" font-family="Helvetica,sans-Serif" font-size="10.00"> +estimate_uncertainty_p</text>
</g>
<!-- Node6 -->
<g id="node6" class="node">
<title>Node6</title>
<g id="a_node6"><a xlink:title=" ">
<polygon fill="white" stroke="#bfbfbf" points="564.5,-276 564.5,-344 729.5,-344 729.5,-276 564.5,-276"/>
<text text-anchor="start" x="572.5" y="-332" font-family="Helvetica,sans-Serif" font-size="10.00">process_noise_uncertainty</text>
<text text-anchor="middle" x="647" y="-321" font-family="Helvetica,sans-Serif" font-size="10.00">(*)(const PredictionArguments &amp;...)</text>
<polyline fill="none" stroke="#bfbfbf" points="564.5,-314 729.5,-314 "/>
<text text-anchor="middle" x="647" y="-302" font-family="Helvetica,sans-Serif" font-size="10.00"> </text>
<polyline fill="none" stroke="#bfbfbf" points="564.5,-295 729.5,-295 "/>
<text text-anchor="middle" x="647" y="-283" font-family="Helvetica,sans-Serif" font-size="10.00"> </text>
</a>
</g>
</g>
<!-- Node6&#45;&gt;Node1 -->
<g id="edge5" class="edge">
<title>Node6&#45;&gt;Node1</title>
<path fill="none" stroke="#404040" d="M625.82,-275.89C618.29,-264.61 609.54,-252.05 601,-241 592.27,-229.71 582.84,-218.13 573.27,-206.76"/>
<polygon fill="none" stroke="#404040" points="572.99,-206.43 566.05,-204.44 565.22,-197.28 572.15,-199.27 572.99,-206.43"/>
<text text-anchor="middle" x="650" y="-244" font-family="Helvetica,sans-Serif" font-size="10.00"> +noise_process_q</text>
</g>
<!-- Node7 -->
<g id="node7" class="node">
<title>Node7</title>
<g id="a_node7"><a xlink:title=" ">
<polygon fill="white" stroke="#bfbfbf" points="747.5,-276 747.5,-344 902.5,-344 902.5,-276 747.5,-276"/>
<text text-anchor="start" x="755.5" y="-332" font-family="Helvetica,sans-Serif" font-size="10.00">state_transition(*)</text>
<text text-anchor="middle" x="825" y="-321" font-family="Helvetica,sans-Serif" font-size="10.00">(const PredictionArguments &amp;...)</text>
<polyline fill="none" stroke="#bfbfbf" points="747.5,-314 902.5,-314 "/>
<text text-anchor="middle" x="825" y="-302" font-family="Helvetica,sans-Serif" font-size="10.00"> </text>
<polyline fill="none" stroke="#bfbfbf" points="747.5,-295 902.5,-295 "/>
<text text-anchor="middle" x="825" y="-283" font-family="Helvetica,sans-Serif" font-size="10.00"> </text>
</a>
</g>
</g>
<!-- Node7&#45;&gt;Node1 -->
<g id="edge6" class="edge">
<title>Node7&#45;&gt;Node1</title>
<path fill="none" stroke="#404040" d="M768.21,-275.89C715.66,-245.24 636.71,-199.21 575.99,-163.81"/>
<polygon fill="none" stroke="#404040" points="575.63,-163.6 568.43,-164.03 565.26,-157.55 572.46,-157.12 575.63,-163.6"/>
<text text-anchor="middle" x="767" y="-244" font-family="Helvetica,sans-Serif" font-size="10.00"> +transition_state_f</text>
</g>
<!-- Node8 -->
<g id="node8" class="node">
<title>Node8</title>
<g id="a_node8"><a xlink:title=" ">
<polygon fill="white" stroke="#bfbfbf" points="921,-281.5 921,-338.5 961,-338.5 961,-281.5 921,-281.5"/>
<text text-anchor="middle" x="941" y="-326.5" font-family="Helvetica,sans-Serif" font-size="10.00">State</text>
<polyline fill="none" stroke="#bfbfbf" points="921,-319.5 961,-319.5 "/>
<text text-anchor="middle" x="941" y="-307.5" font-family="Helvetica,sans-Serif" font-size="10.00"> </text>
<polyline fill="none" stroke="#bfbfbf" points="921,-300.5 961,-300.5 "/>
<text text-anchor="middle" x="941" y="-288.5" font-family="Helvetica,sans-Serif" font-size="10.00"> </text>
</a>
</g>
</g>
<!-- Node8&#45;&gt;Node1 -->
<g id="edge7" class="edge">
<title>Node8&#45;&gt;Node1</title>
<path fill="none" stroke="#404040" d="M923.49,-281.16C920.04,-277.04 916.18,-273.14 912,-270 810.55,-193.91 668.36,-151.14 577.2,-129.93"/>
<polygon fill="none" stroke="#404040" points="576.94,-129.87 570.2,-132.44 565.24,-127.21 571.98,-124.64 576.94,-129.87"/>
<text text-anchor="middle" x="902" y="-244" font-family="Helvetica,sans-Serif" font-size="10.00"> +state_x</text>
</g>
</g>
</svg>
        <g id="navigator" transform="translate(0 0)" fill="#404254">
                <rect fill="#f2f5e9" fill-opacity="0.5" stroke="#606060" stroke-width=".5" x="0" y="0" width="60" height="60"/>
                <use id="zoomplus" xlink:href="#zoomPlus" x="17" y="9" onmousedown="handleZoom(evt,'in')"/>
                <use id="zoomminus" xlink:href="#zoomMin" x="42" y="9" onmousedown="handleZoom(evt,'out')"/>
                <use id="reset" xlink:href="#resetDef" x="30" y="36" onmousedown="handleReset()"/>
                <g id="arrowUp" xlink:href="#dirArrow" transform="translate(30 24)" onmousedown="handlePan(0,-1)">
                  <use xlink:href="#rim" fill="#404040">
                        <set attributeName="fill" to="#808080" begin="arrowUp.mouseover" end="arrowUp.mouseout"/>
                  </use>
                  <path fill="none" stroke="white" stroke-width="1.5" d="M0,-3.0v7 M-2.5,-0.5L0,-3.0L2.5,-0.5"/>
                </g>
                <g id="arrowRight" xlink:href="#dirArrow" transform="rotate(90) translate(36 -43)" onmousedown="handlePan(1,0)">
                  <use xlink:href="#rim" fill="#404040">
                        <set attributeName="fill" to="#808080" begin="arrowRight.mouseover" end="arrowRight.mouseout"/>
                  </use>
                  <path fill="none" stroke="white" stroke-width="1.5" d="M0,-3.0v7 M-2.5,-0.5L0,-3.0L2.5,-0.5"/>
                </g>
                <g id="arrowDown" xlink:href="#dirArrow" transform="rotate(180) translate(-30 -48)" onmousedown="handlePan(0,1)">
                  <use xlink:href="#rim" fill="#404040">
                        <set attributeName="fill" to="#808080" begin="arrowDown.mouseover" end="arrowDown.mouseout"/>
                  </use>
                  <path fill="none" stroke="white" stroke-width="1.5" d="M0,-3.0v7 M-2.5,-0.5L0,-3.0L2.5,-0.5"/>
                </g>
                <g id="arrowLeft" xlink:href="#dirArrow" transform="rotate(270) translate(-36 17)" onmousedown="handlePan(-1,0)">
                  <use xlink:href="#rim" fill="#404040">
                        <set attributeName="fill" to="#808080" begin="arrowLeft.mouseover" end="arrowLeft.mouseout"/>
                  </use>
                  <path fill="none" stroke="white" stroke-width="1.5" d="M0,-3.0v7 M-2.5,-0.5L0,-3.0L2.5,-0.5"/>
                </g>
        </g>
        <svg viewBox="0 0 15 15" width="100%" height="30px" preserveAspectRatio="xMaxYMin meet">
         <g id="arrow_out" transform="scale(0.3 0.3)">
          <a xlink:href="classfcarouge_1_1kalman__coll__graph_org.svg" target="_base">
           <rect id="button" ry="5" rx="5" y="6" x="6" height="38" width="38"
                fill="#f2f5e9" fill-opacity="0.5" stroke="#606060" stroke-width="1.0"/>
           <path id="arrow"
             d="M 11.500037,31.436501 C 11.940474,20.09759 22.043105,11.32322 32.158766,21.979434 L 37.068811,17.246167 C 37.068811,17.246167 37.088388,32 37.088388,32 L 22.160133,31.978069 C 22.160133,31.978069 26.997745,27.140456 26.997745,27.140456 C 18.528582,18.264221 13.291696,25.230495 11.500037,31.436501 z"
             style="fill:#404040;"/>
          </a>
         </g>
        </svg>
</svg>
