<?xml version="1.0" encoding="UTF-8" standalone="no"?>
<!DOCTYPE svg PUBLIC "-//W3C//DTD SVG 1.1//EN"
 "http://www.w3.org/Graphics/SVG/1.1/DTD/svg11.dtd">
<!-- Generated by graphviz version 12.2.0 (20241103.1931)
 -->
<!-- Title: fcarouge::kalman&lt; typename &gt; Pages: 1 -->
<svg width="2004pt" height="945pt"
 viewBox="0.00 0.00 2004.12 945.25" xmlns="http://www.w3.org/2000/svg" xmlns:xlink="http://www.w3.org/1999/xlink">
<g id="graph0" class="graph" transform="scale(1 1) rotate(0) translate(4 941.25)">
<title>fcarouge::kalman&lt; typename &gt;</title>
<!-- Node1 -->
<g id="Node000001" class="node">
<title>Node1</title>
<g id="a_Node000001"><a xlink:title="A generic Kalman filter.">
<polygon fill="#999999" stroke="none" points="1029.12,-720.75 889.12,-720.75 889.12,0 1029.12,0 1029.12,-720.75"/>
<text text-anchor="start" x="893.12" y="-707.25" font-family="Helvetica,sans-Serif" font-size="10.00">fcarouge::kalman&lt; typename &gt;</text>
<text text-anchor="start" x="913.31" y="-692" font-family="Helvetica,sans-Serif" font-size="10.00">&#45;</text>
<text text-anchor="start" x="940.5" y="-692" font-family="Helvetica,sans-Serif" font-size="10.00">filter</text>
<text text-anchor="start" x="911.81" y="-676.75" font-family="Helvetica,sans-Serif" font-size="10.00">+</text>
<text text-anchor="start" x="940.5" y="-676.75" font-family="Helvetica,sans-Serif" font-size="10.00">kalman()</text>
<text text-anchor="start" x="911.81" y="-661.5" font-family="Helvetica,sans-Serif" font-size="10.00">+</text>
<text text-anchor="start" x="940.5" y="-661.5" font-family="Helvetica,sans-Serif" font-size="10.00">kalman()</text>
<text text-anchor="start" x="911.81" y="-646.25" font-family="Helvetica,sans-Serif" font-size="10.00">+</text>
<text text-anchor="start" x="940.5" y="-646.25" font-family="Helvetica,sans-Serif" font-size="10.00">kalman()</text>
<text text-anchor="start" x="911.81" y="-631" font-family="Helvetica,sans-Serif" font-size="10.00">+</text>
<text text-anchor="start" x="940.5" y="-631" font-family="Helvetica,sans-Serif" font-size="10.00">operator=()</text>
<text text-anchor="start" x="911.81" y="-615.75" font-family="Helvetica,sans-Serif" font-size="10.00">+</text>
<text text-anchor="start" x="940.5" y="-615.75" font-family="Helvetica,sans-Serif" font-size="10.00">operator=()</text>
<text text-anchor="start" x="911.81" y="-600.5" font-family="Helvetica,sans-Serif" font-size="10.00">+</text>
<text text-anchor="start" x="940.5" y="-600.5" font-family="Helvetica,sans-Serif" font-size="10.00">~kalman()</text>
<text text-anchor="start" x="911.81" y="-585.25" font-family="Helvetica,sans-Serif" font-size="10.00">+</text>
<text text-anchor="start" x="940.5" y="-585.25" font-family="Helvetica,sans-Serif" font-size="10.00">x()</text>
<text text-anchor="start" x="911.81" y="-570" font-family="Helvetica,sans-Serif" font-size="10.00">+</text>
<text text-anchor="start" x="940.5" y="-570" font-family="Helvetica,sans-Serif" font-size="10.00">z()</text>
<text text-anchor="start" x="911.81" y="-554.75" font-family="Helvetica,sans-Serif" font-size="10.00">+</text>
<text text-anchor="start" x="940.5" y="-554.75" font-family="Helvetica,sans-Serif" font-size="10.00">u()</text>
<text text-anchor="start" x="911.81" y="-539.5" font-family="Helvetica,sans-Serif" font-size="10.00">+</text>
<text text-anchor="start" x="940.5" y="-539.5" font-family="Helvetica,sans-Serif" font-size="10.00">p()</text>
<text text-anchor="start" x="911.81" y="-524.25" font-family="Helvetica,sans-Serif" font-size="10.00">+</text>
<text text-anchor="start" x="940.5" y="-524.25" font-family="Helvetica,sans-Serif" font-size="10.00">q()</text>
<text text-anchor="start" x="911.81" y="-509" font-family="Helvetica,sans-Serif" font-size="10.00">+</text>
<text text-anchor="start" x="940.5" y="-509" font-family="Helvetica,sans-Serif" font-size="10.00">r()</text>
<text text-anchor="start" x="911.81" y="-493.75" font-family="Helvetica,sans-Serif" font-size="10.00">+</text>
<text text-anchor="start" x="940.5" y="-493.75" font-family="Helvetica,sans-Serif" font-size="10.00">f()</text>
<text text-anchor="start" x="911.81" y="-478.5" font-family="Helvetica,sans-Serif" font-size="10.00">+</text>
<text text-anchor="start" x="940.5" y="-478.5" font-family="Helvetica,sans-Serif" font-size="10.00">h()</text>
<text text-anchor="start" x="911.81" y="-463.25" font-family="Helvetica,sans-Serif" font-size="10.00">+</text>
<text text-anchor="start" x="940.5" y="-463.25" font-family="Helvetica,sans-Serif" font-size="10.00">g()</text>
<text text-anchor="start" x="911.81" y="-448" font-family="Helvetica,sans-Serif" font-size="10.00">+</text>
<text text-anchor="start" x="940.5" y="-448" font-family="Helvetica,sans-Serif" font-size="10.00">k()</text>
<text text-anchor="start" x="911.81" y="-432.75" font-family="Helvetica,sans-Serif" font-size="10.00">+</text>
<text text-anchor="start" x="940.5" y="-432.75" font-family="Helvetica,sans-Serif" font-size="10.00">y()</text>
<text text-anchor="start" x="911.81" y="-417.5" font-family="Helvetica,sans-Serif" font-size="10.00">+</text>
<text text-anchor="start" x="940.5" y="-417.5" font-family="Helvetica,sans-Serif" font-size="10.00">s()</text>
<text text-anchor="start" x="911.81" y="-402.25" font-family="Helvetica,sans-Serif" font-size="10.00">+</text>
<text text-anchor="start" x="940.5" y="-402.25" font-family="Helvetica,sans-Serif" font-size="10.00">predict()</text>
<text text-anchor="start" x="911.81" y="-387" font-family="Helvetica,sans-Serif" font-size="10.00">+</text>
<text text-anchor="start" x="940.5" y="-387" font-family="Helvetica,sans-Serif" font-size="10.00">predict()</text>
<text text-anchor="start" x="911.81" y="-371.75" font-family="Helvetica,sans-Serif" font-size="10.00">+</text>
<text text-anchor="start" x="940.5" y="-371.75" font-family="Helvetica,sans-Serif" font-size="10.00">update()</text>
<text text-anchor="start" x="911.81" y="-356.5" font-family="Helvetica,sans-Serif" font-size="10.00">+</text>
<text text-anchor="start" x="940.5" y="-356.5" font-family="Helvetica,sans-Serif" font-size="10.00">update()</text>
<text text-anchor="start" x="912.94" y="-341.25" font-family="Helvetica,sans-Serif" font-size="10.00">*</text>
<text text-anchor="start" x="940.5" y="-341.25" font-family="Helvetica,sans-Serif" font-size="10.00">filter</text>
<text text-anchor="start" x="912.94" y="-326" font-family="Helvetica,sans-Serif" font-size="10.00">*</text>
<text text-anchor="start" x="940.5" y="-326" font-family="Helvetica,sans-Serif" font-size="10.00">kalman()</text>
<text text-anchor="start" x="912.94" y="-310.75" font-family="Helvetica,sans-Serif" font-size="10.00">*</text>
<text text-anchor="start" x="940.5" y="-310.75" font-family="Helvetica,sans-Serif" font-size="10.00">kalman()</text>
<text text-anchor="start" x="912.94" y="-295.5" font-family="Helvetica,sans-Serif" font-size="10.00">*</text>
<text text-anchor="start" x="940.5" y="-295.5" font-family="Helvetica,sans-Serif" font-size="10.00">kalman()</text>
<text text-anchor="start" x="912.94" y="-280.25" font-family="Helvetica,sans-Serif" font-size="10.00">*</text>
<text text-anchor="start" x="940.5" y="-280.25" font-family="Helvetica,sans-Serif" font-size="10.00">operator=()</text>
<text text-anchor="start" x="912.94" y="-265" font-family="Helvetica,sans-Serif" font-size="10.00">*</text>
<text text-anchor="start" x="940.5" y="-265" font-family="Helvetica,sans-Serif" font-size="10.00">operator=()</text>
<text text-anchor="start" x="912.94" y="-249.75" font-family="Helvetica,sans-Serif" font-size="10.00">*</text>
<text text-anchor="start" x="940.5" y="-249.75" font-family="Helvetica,sans-Serif" font-size="10.00">~kalman()</text>
<text text-anchor="start" x="912.94" y="-234.5" font-family="Helvetica,sans-Serif" font-size="10.00">*</text>
<text text-anchor="start" x="940.5" y="-234.5" font-family="Helvetica,sans-Serif" font-size="10.00">x()</text>
<text text-anchor="start" x="912.94" y="-219.25" font-family="Helvetica,sans-Serif" font-size="10.00">*</text>
<text text-anchor="start" x="940.5" y="-219.25" font-family="Helvetica,sans-Serif" font-size="10.00">z()</text>
<text text-anchor="start" x="912.94" y="-204" font-family="Helvetica,sans-Serif" font-size="10.00">*</text>
<text text-anchor="start" x="940.5" y="-204" font-family="Helvetica,sans-Serif" font-size="10.00">u()</text>
<text text-anchor="start" x="912.94" y="-188.75" font-family="Helvetica,sans-Serif" font-size="10.00">*</text>
<text text-anchor="start" x="940.5" y="-188.75" font-family="Helvetica,sans-Serif" font-size="10.00">p()</text>
<text text-anchor="start" x="912.94" y="-173.5" font-family="Helvetica,sans-Serif" font-size="10.00">*</text>
<text text-anchor="start" x="940.5" y="-173.5" font-family="Helvetica,sans-Serif" font-size="10.00">q()</text>
<text text-anchor="start" x="912.94" y="-158.25" font-family="Helvetica,sans-Serif" font-size="10.00">*</text>
<text text-anchor="start" x="940.5" y="-158.25" font-family="Helvetica,sans-Serif" font-size="10.00">r()</text>
<text text-anchor="start" x="912.94" y="-143" font-family="Helvetica,sans-Serif" font-size="10.00">*</text>
<text text-anchor="start" x="940.5" y="-143" font-family="Helvetica,sans-Serif" font-size="10.00">f()</text>
<text text-anchor="start" x="912.94" y="-127.75" font-family="Helvetica,sans-Serif" font-size="10.00">*</text>
<text text-anchor="start" x="940.5" y="-127.75" font-family="Helvetica,sans-Serif" font-size="10.00">h()</text>
<text text-anchor="start" x="912.94" y="-112.5" font-family="Helvetica,sans-Serif" font-size="10.00">*</text>
<text text-anchor="start" x="940.5" y="-112.5" font-family="Helvetica,sans-Serif" font-size="10.00">g()</text>
<text text-anchor="start" x="912.94" y="-97.25" font-family="Helvetica,sans-Serif" font-size="10.00">*</text>
<text text-anchor="start" x="940.5" y="-97.25" font-family="Helvetica,sans-Serif" font-size="10.00">k()</text>
<text text-anchor="start" x="912.94" y="-82" font-family="Helvetica,sans-Serif" font-size="10.00">*</text>
<text text-anchor="start" x="940.5" y="-82" font-family="Helvetica,sans-Serif" font-size="10.00">y()</text>
<text text-anchor="start" x="912.94" y="-66.75" font-family="Helvetica,sans-Serif" font-size="10.00">*</text>
<text text-anchor="start" x="940.5" y="-66.75" font-family="Helvetica,sans-Serif" font-size="10.00">s()</text>
<text text-anchor="start" x="912.94" y="-51.5" font-family="Helvetica,sans-Serif" font-size="10.00">*</text>
<text text-anchor="start" x="940.5" y="-51.5" font-family="Helvetica,sans-Serif" font-size="10.00">predict()</text>
<text text-anchor="start" x="912.94" y="-36.25" font-family="Helvetica,sans-Serif" font-size="10.00">*</text>
<text text-anchor="start" x="940.5" y="-36.25" font-family="Helvetica,sans-Serif" font-size="10.00">predict()</text>
<text text-anchor="start" x="912.94" y="-21" font-family="Helvetica,sans-Serif" font-size="10.00">*</text>
<text text-anchor="start" x="940.5" y="-21" font-family="Helvetica,sans-Serif" font-size="10.00">update()</text>
<text text-anchor="start" x="912.94" y="-5.75" font-family="Helvetica,sans-Serif" font-size="10.00">*</text>
<text text-anchor="start" x="940.5" y="-5.75" font-family="Helvetica,sans-Serif" font-size="10.00">update()</text>
<polygon fill="#666666" stroke="#666666" points="889.12,-703.5 889.12,-703.5 1029.12,-703.5 1029.12,-703.5 889.12,-703.5"/>
<polygon fill="#666666" stroke="#666666" points="889.12,-688.25 889.12,-688.25 938.5,-688.25 938.5,-688.25 889.12,-688.25"/>
<polygon fill="#666666" stroke="#666666" points="938.5,-688.25 938.5,-688.25 1029.12,-688.25 1029.12,-688.25 938.5,-688.25"/>
<polygon fill="none" stroke="#666666" points="889.12,0 889.12,-720.75 1029.12,-720.75 1029.12,0 889.12,0"/>
</a>
</g>
</g>
<!-- Node2 -->
<g id="Node000002" class="node">
<title>Node2</title>
<g id="a_Node000002"><a xlink:title=" ">
<polygon fill="white" stroke="none" points="1023.12,-829 895.12,-829 895.12,-756.75 1023.12,-756.75 1023.12,-829"/>
<text text-anchor="start" x="899.12" y="-815.5" font-family="Helvetica,sans-Serif" font-size="10.00">fcarouge::kalman_internal</text>
<text text-anchor="start" x="899.12" y="-804.25" font-family="Helvetica,sans-Serif" font-size="10.00">::conditional_member_types</text>
<text text-anchor="start" x="940" y="-793" font-family="Helvetica,sans-Serif" font-size="10.00">&lt; Filter &gt;</text>
<text text-anchor="start" x="957.62" y="-777.75" font-family="Helvetica,sans-Serif" font-size="10.00"> </text>
<text text-anchor="start" x="957.62" y="-762.5" font-family="Helvetica,sans-Serif" font-size="10.00"> </text>
<polygon fill="#666666" stroke="#666666" points="895.12,-789.25 895.12,-789.25 1023.12,-789.25 1023.12,-789.25 895.12,-789.25"/>
<polygon fill="#666666" stroke="#666666" points="895.12,-774 895.12,-774 1023.12,-774 1023.12,-774 895.12,-774"/>
<polygon fill="none" stroke="#666666" points="895.12,-756.75 895.12,-829 1023.12,-829 1023.12,-756.75 895.12,-756.75"/>
</a>
</g>
</g>
<!-- Node2&#45;&gt;Node1 -->
<g id="edge1_Node000001_Node000002" class="edge">
<title>Node2&#45;&gt;Node1</title>
<g id="a_edge1_Node000001_Node000002"><a xlink:title=" ">
<path fill="none" stroke="#63b8ff" d="M959.12,-745.6C959.12,-737.92 959.12,-729.47 959.12,-720.39"/>
<polygon fill="none" stroke="#63b8ff" points="955.63,-745.5 959.13,-755.5 962.63,-745.5 955.63,-745.5"/>
</a>
</g>
</g>
<!-- Node3 -->
<g id="Node000003" class="node">
<title>Node3</title>
<g id="a_Node000003"><a xlink:title=" ">
<polygon fill="white" stroke="none" points="118.25,-937.25 0,-937.25 0,-865 118.25,-865 118.25,-937.25"/>
<text text-anchor="start" x="4" y="-923.75" font-family="Helvetica,sans-Serif" font-size="10.00">fcarouge::kalman_internal</text>
<text text-anchor="start" x="4" y="-912.5" font-family="Helvetica,sans-Serif" font-size="10.00">::conditional_estimate</text>
<text text-anchor="start" x="13.75" y="-901.25" font-family="Helvetica,sans-Serif" font-size="10.00">_uncertainty&lt; Filter &gt;</text>
<text text-anchor="start" x="57.62" y="-886" font-family="Helvetica,sans-Serif" font-size="10.00"> </text>
<text text-anchor="start" x="57.62" y="-870.75" font-family="Helvetica,sans-Serif" font-size="10.00"> </text>
<polygon fill="#666666" stroke="#666666" points="0,-897.5 0,-897.5 118.25,-897.5 118.25,-897.5 0,-897.5"/>
<polygon fill="#666666" stroke="#666666" points="0,-882.25 0,-882.25 118.25,-882.25 118.25,-882.25 0,-882.25"/>
<polygon fill="none" stroke="#666666" points="0,-865 0,-937.25 118.25,-937.25 118.25,-865 0,-865"/>
</a>
</g>
</g>
<!-- Node3&#45;&gt;Node2 -->
<g id="edge2_Node000002_Node000003" class="edge">
<title>Node3&#45;&gt;Node2</title>
<g id="a_edge2_Node000002_Node000003"><a xlink:title=" ">
<path fill="none" stroke="#63b8ff" d="M128.68,-865.07C291.58,-822.46 730.09,-802.42 895.19,-796.12"/>
<polygon fill="none" stroke="#63b8ff" points="128.06,-861.61 119.35,-867.65 129.92,-868.36 128.06,-861.61"/>
</a>
</g>
</g>
<!-- Node4 -->
<g id="Node000004" class="node">
<title>Node4</title>
<g id="a_Node000004"><a xlink:title=" ">
<polygon fill="white" stroke="none" points="256.38,-931.62 135.88,-931.62 135.88,-870.62 256.38,-870.62 256.38,-931.62"/>
<text text-anchor="start" x="139.88" y="-918.12" font-family="Helvetica,sans-Serif" font-size="10.00">fcarouge::kalman_internal</text>
<text text-anchor="start" x="139.88" y="-906.88" font-family="Helvetica,sans-Serif" font-size="10.00">::conditional_gain&lt; Filter &gt;</text>
<text text-anchor="start" x="194.62" y="-891.62" font-family="Helvetica,sans-Serif" font-size="10.00"> </text>
<text text-anchor="start" x="194.62" y="-876.38" font-family="Helvetica,sans-Serif" font-size="10.00"> </text>
<polygon fill="#666666" stroke="#666666" points="135.88,-903.12 135.88,-903.12 256.38,-903.12 256.38,-903.12 135.88,-903.12"/>
<polygon fill="#666666" stroke="#666666" points="135.88,-887.88 135.88,-887.88 256.38,-887.88 256.38,-887.88 135.88,-887.88"/>
<polygon fill="none" stroke="#666666" points="135.88,-870.62 135.88,-931.62 256.38,-931.62 256.38,-870.62 135.88,-870.62"/>
</a>
</g>
</g>
<!-- Node4&#45;&gt;Node2 -->
<g id="edge3_Node000002_Node000004" class="edge">
<title>Node4&#45;&gt;Node2</title>
<g id="a_edge3_Node000002_Node000004"><a xlink:title=" ">
<path fill="none" stroke="#63b8ff" d="M259.65,-866.74C261.48,-866.12 263.31,-865.54 265.12,-865 382.47,-830.43 746.73,-806.13 895.18,-797.42"/>
<polygon fill="none" stroke="#63b8ff" points="258.72,-863.35 250.61,-870.17 261.2,-869.9 258.72,-863.35"/>
</a>
</g>
</g>
<!-- Node5 -->
<g id="Node000005" class="node">
<title>Node5</title>
<g id="a_Node000005"><a xlink:title=" ">
<polygon fill="white" stroke="none" points="392.25,-937.25 274,-937.25 274,-865 392.25,-865 392.25,-937.25"/>
<text text-anchor="start" x="278" y="-923.75" font-family="Helvetica,sans-Serif" font-size="10.00">fcarouge::kalman_internal</text>
<text text-anchor="start" x="278" y="-912.5" font-family="Helvetica,sans-Serif" font-size="10.00">::conditional_innovation</text>
<text text-anchor="start" x="287.75" y="-901.25" font-family="Helvetica,sans-Serif" font-size="10.00">_uncertainty&lt; Filter &gt;</text>
<text text-anchor="start" x="331.62" y="-886" font-family="Helvetica,sans-Serif" font-size="10.00"> </text>
<text text-anchor="start" x="331.62" y="-870.75" font-family="Helvetica,sans-Serif" font-size="10.00"> </text>
<polygon fill="#666666" stroke="#666666" points="274,-897.5 274,-897.5 392.25,-897.5 392.25,-897.5 274,-897.5"/>
<polygon fill="#666666" stroke="#666666" points="274,-882.25 274,-882.25 392.25,-882.25 392.25,-882.25 274,-882.25"/>
<polygon fill="none" stroke="#666666" points="274,-865 274,-937.25 392.25,-937.25 392.25,-865 274,-865"/>
</a>
</g>
</g>
<!-- Node5&#45;&gt;Node2 -->
<g id="edge4_Node000002_Node000005" class="edge">
<title>Node5&#45;&gt;Node2</title>
<g id="a_edge4_Node000002_Node000005"><a xlink:title=" ">
<path fill="none" stroke="#63b8ff" d="M402.93,-864.83C582.92,-810.56 792.06,-797.9 895.26,-794.82"/>
<polygon fill="none" stroke="#63b8ff" points="401.92,-861.48 393.39,-867.76 403.98,-868.17 401.92,-861.48"/>
</a>
</g>
</g>
<!-- Node6 -->
<g id="Node000006" class="node">
<title>Node6</title>
<g id="a_Node000006"><a xlink:title=" ">
<polygon fill="white" stroke="none" points="528.25,-937.25 410,-937.25 410,-865 528.25,-865 528.25,-937.25"/>
<text text-anchor="start" x="414" y="-923.75" font-family="Helvetica,sans-Serif" font-size="10.00">fcarouge::kalman_internal</text>
<text text-anchor="start" x="414" y="-912.5" font-family="Helvetica,sans-Serif" font-size="10.00">::conditional_innovation</text>
<text text-anchor="start" x="450" y="-901.25" font-family="Helvetica,sans-Serif" font-size="10.00">&lt; Filter &gt;</text>
<text text-anchor="start" x="467.62" y="-886" font-family="Helvetica,sans-Serif" font-size="10.00"> </text>
<text text-anchor="start" x="467.62" y="-870.75" font-family="Helvetica,sans-Serif" font-size="10.00"> </text>
<polygon fill="#666666" stroke="#666666" points="410,-897.5 410,-897.5 528.25,-897.5 528.25,-897.5 410,-897.5"/>
<polygon fill="#666666" stroke="#666666" points="410,-882.25 410,-882.25 528.25,-882.25 528.25,-882.25 410,-882.25"/>
<polygon fill="none" stroke="#666666" points="410,-865 410,-937.25 528.25,-937.25 528.25,-865 410,-865"/>
</a>
</g>
</g>
<!-- Node6&#45;&gt;Node2 -->
<g id="edge5_Node000002_Node000006" class="edge">
<title>Node6&#45;&gt;Node2</title>
<g id="a_edge5_Node000002_Node000006"><a xlink:title=" ">
<path fill="none" stroke="#63b8ff" d="M538.87,-864.77C668.34,-823 813.81,-805.64 895.44,-798.44"/>
<polygon fill="none" stroke="#63b8ff" points="537.83,-861.43 529.43,-867.88 540.02,-868.08 537.83,-861.43"/>
</a>
</g>
</g>
<!-- Node7 -->
<g id="Node000007" class="node">
<title>Node7</title>
<g id="a_Node000007"><a xlink:title=" ">
<polygon fill="white" stroke="none" points="666,-937.25 546.25,-937.25 546.25,-865 666,-865 666,-937.25"/>
<text text-anchor="start" x="550.25" y="-923.75" font-family="Helvetica,sans-Serif" font-size="10.00">fcarouge::kalman_internal</text>
<text text-anchor="start" x="550.25" y="-912.5" font-family="Helvetica,sans-Serif" font-size="10.00">::conditional_input_control</text>
<text text-anchor="start" x="587" y="-901.25" font-family="Helvetica,sans-Serif" font-size="10.00">&lt; Filter &gt;</text>
<text text-anchor="start" x="604.62" y="-886" font-family="Helvetica,sans-Serif" font-size="10.00"> </text>
<text text-anchor="start" x="604.62" y="-870.75" font-family="Helvetica,sans-Serif" font-size="10.00"> </text>
<polygon fill="#666666" stroke="#666666" points="546.25,-897.5 546.25,-897.5 666,-897.5 666,-897.5 546.25,-897.5"/>
<polygon fill="#666666" stroke="#666666" points="546.25,-882.25 546.25,-882.25 666,-882.25 666,-882.25 546.25,-882.25"/>
<polygon fill="none" stroke="#666666" points="546.25,-865 546.25,-937.25 666,-937.25 666,-865 546.25,-865"/>
</a>
</g>
</g>
<!-- Node7&#45;&gt;Node2 -->
<g id="edge6_Node000002_Node000007" class="edge">
<title>Node7&#45;&gt;Node2</title>
<g id="a_edge6_Node000002_Node000007"><a xlink:title=" ">
<path fill="none" stroke="#63b8ff" d="M676.66,-864.7C756.2,-835.75 839.4,-816.76 895.28,-805.57"/>
<polygon fill="none" stroke="#63b8ff" points="675.56,-861.37 667.39,-868.13 677.99,-867.94 675.56,-861.37"/>
</a>
</g>
</g>
<!-- Node8 -->
<g id="Node000008" class="node">
<title>Node8</title>
<g id="a_Node000008"><a xlink:title=" ">
<polygon fill="white" stroke="none" points="807.88,-931.62 684.38,-931.62 684.38,-870.62 807.88,-870.62 807.88,-931.62"/>
<text text-anchor="start" x="688.38" y="-918.12" font-family="Helvetica,sans-Serif" font-size="10.00">fcarouge::kalman_internal</text>
<text text-anchor="start" x="688.38" y="-906.88" font-family="Helvetica,sans-Serif" font-size="10.00">::conditional_input&lt; Filter &gt;</text>
<text text-anchor="start" x="744.62" y="-891.62" font-family="Helvetica,sans-Serif" font-size="10.00"> </text>
<text text-anchor="start" x="744.62" y="-876.38" font-family="Helvetica,sans-Serif" font-size="10.00"> </text>
<polygon fill="#666666" stroke="#666666" points="684.38,-903.12 684.38,-903.12 807.88,-903.12 807.88,-903.12 684.38,-903.12"/>
<polygon fill="#666666" stroke="#666666" points="684.38,-887.88 684.38,-887.88 807.88,-887.88 807.88,-887.88 684.38,-887.88"/>
<polygon fill="none" stroke="#666666" points="684.38,-870.62 684.38,-931.62 807.88,-931.62 807.88,-870.62 684.38,-870.62"/>
</a>
</g>
</g>
<!-- Node8&#45;&gt;Node2 -->
<g id="edge7_Node000002_Node000008" class="edge">
<title>Node8&#45;&gt;Node2</title>
<g id="a_edge7_Node000002_Node000008"><a xlink:title=" ">
<path fill="none" stroke="#63b8ff" d="M815.25,-865.64C841.05,-852.77 870.2,-838.23 895.48,-825.62"/>
<polygon fill="none" stroke="#63b8ff" points="813.92,-862.4 806.53,-869.99 817.04,-868.66 813.92,-862.4"/>
</a>
</g>
</g>
<!-- Node9 -->
<g id="Node000009" class="node">
<title>Node9</title>
<g id="a_Node000009"><a xlink:title=" ">
<polygon fill="white" stroke="none" points="950.25,-931.62 826,-931.62 826,-870.62 950.25,-870.62 950.25,-931.62"/>
<text text-anchor="start" x="830" y="-918.12" font-family="Helvetica,sans-Serif" font-size="10.00">fcarouge::kalman_internal</text>
<text text-anchor="start" x="830" y="-906.88" font-family="Helvetica,sans-Serif" font-size="10.00">::conditional_state&lt; Filter &gt;</text>
<text text-anchor="start" x="886.62" y="-891.62" font-family="Helvetica,sans-Serif" font-size="10.00"> </text>
<text text-anchor="start" x="886.62" y="-876.38" font-family="Helvetica,sans-Serif" font-size="10.00"> </text>
<polygon fill="#666666" stroke="#666666" points="826,-903.12 826,-903.12 950.25,-903.12 950.25,-903.12 826,-903.12"/>
<polygon fill="#666666" stroke="#666666" points="826,-887.88 826,-887.88 950.25,-887.88 950.25,-887.88 826,-887.88"/>
<polygon fill="none" stroke="#666666" points="826,-870.62 826,-931.62 950.25,-931.62 950.25,-870.62 826,-870.62"/>
</a>
</g>
</g>
<!-- Node9&#45;&gt;Node2 -->
<g id="edge8_Node000002_Node000009" class="edge">
<title>Node9&#45;&gt;Node2</title>
<g id="a_edge8_Node000002_Node000009"><a xlink:title=" ">
<path fill="none" stroke="#63b8ff" d="M914.06,-861.31C921.18,-850.66 928.86,-839.17 935.82,-828.75"/>
<polygon fill="none" stroke="#63b8ff" points="911.2,-859.29 908.55,-869.55 917.02,-863.18 911.2,-859.29"/>
</a>
</g>
</g>
<!-- Node10 -->
<g id="Node000010" class="node">
<title>Node10</title>
<g id="a_Node000010"><a xlink:title=" ">
<polygon fill="white" stroke="none" points="1091.5,-937.25 968.75,-937.25 968.75,-865 1091.5,-865 1091.5,-937.25"/>
<text text-anchor="start" x="972.75" y="-923.75" font-family="Helvetica,sans-Serif" font-size="10.00">fcarouge::kalman_internal</text>
<text text-anchor="start" x="972.75" y="-912.5" font-family="Helvetica,sans-Serif" font-size="10.00">::conditional_output_model</text>
<text text-anchor="start" x="1011" y="-901.25" font-family="Helvetica,sans-Serif" font-size="10.00">&lt; Filter &gt;</text>
<text text-anchor="start" x="1028.62" y="-886" font-family="Helvetica,sans-Serif" font-size="10.00"> </text>
<text text-anchor="start" x="1028.62" y="-870.75" font-family="Helvetica,sans-Serif" font-size="10.00"> </text>
<polygon fill="#666666" stroke="#666666" points="968.75,-897.5 968.75,-897.5 1091.5,-897.5 1091.5,-897.5 968.75,-897.5"/>
<polygon fill="#666666" stroke="#666666" points="968.75,-882.25 968.75,-882.25 1091.5,-882.25 1091.5,-882.25 968.75,-882.25"/>
<polygon fill="none" stroke="#666666" points="968.75,-865 968.75,-937.25 1091.5,-937.25 1091.5,-865 968.75,-865"/>
</a>
</g>
</g>
<!-- Node10&#45;&gt;Node2 -->
<g id="edge9_Node000002_Node000010" class="edge">
<title>Node10&#45;&gt;Node2</title>
<g id="a_edge9_Node000002_Node000010"><a xlink:title=" ">
<path fill="none" stroke="#63b8ff" d="M1000.35,-855.57C994.4,-846.67 988.24,-837.44 982.55,-828.92"/>
<polygon fill="none" stroke="#63b8ff" points="997.37,-857.41 1005.84,-863.78 1003.19,-853.52 997.37,-857.41"/>
</a>
</g>
</g>
<!-- Node11 -->
<g id="Node000011" class="node">
<title>Node11</title>
<g id="a_Node000011"><a xlink:title=" ">
<polygon fill="white" stroke="none" points="1253,-937.25 1109.25,-937.25 1109.25,-865 1253,-865 1253,-937.25"/>
<text text-anchor="start" x="1113.25" y="-923.75" font-family="Helvetica,sans-Serif" font-size="10.00">fcarouge::kalman_internal</text>
<text text-anchor="start" x="1113.25" y="-912.5" font-family="Helvetica,sans-Serif" font-size="10.00">::conditional_output_uncertainty</text>
<text text-anchor="start" x="1162" y="-901.25" font-family="Helvetica,sans-Serif" font-size="10.00">&lt; Filter &gt;</text>
<text text-anchor="start" x="1179.62" y="-886" font-family="Helvetica,sans-Serif" font-size="10.00"> </text>
<text text-anchor="start" x="1179.62" y="-870.75" font-family="Helvetica,sans-Serif" font-size="10.00"> </text>
<polygon fill="#666666" stroke="#666666" points="1109.25,-897.5 1109.25,-897.5 1253,-897.5 1253,-897.5 1109.25,-897.5"/>
<polygon fill="#666666" stroke="#666666" points="1109.25,-882.25 1109.25,-882.25 1253,-882.25 1253,-882.25 1109.25,-882.25"/>
<polygon fill="none" stroke="#666666" points="1109.25,-865 1109.25,-937.25 1253,-937.25 1253,-865 1109.25,-865"/>
</a>
</g>
</g>
<!-- Node11&#45;&gt;Node2 -->
<g id="edge10_Node000002_Node000011" class="edge">
<title>Node11&#45;&gt;Node2</title>
<g id="a_edge10_Node000002_Node000011"><a xlink:title=" ">
<path fill="none" stroke="#63b8ff" d="M1099.08,-860.86C1073.89,-848.8 1046.55,-835.72 1022.79,-824.34"/>
<polygon fill="none" stroke="#63b8ff" points="1097.46,-863.96 1107.99,-865.12 1100.48,-857.65 1097.46,-863.96"/>
</a>
</g>
</g>
<!-- Node12 -->
<g id="Node000012" class="node">
<title>Node12</title>
<g id="a_Node000012"><a xlink:title=" ">
<polygon fill="white" stroke="none" points="1400.88,-931.62 1271.38,-931.62 1271.38,-870.62 1400.88,-870.62 1400.88,-931.62"/>
<text text-anchor="start" x="1275.38" y="-918.12" font-family="Helvetica,sans-Serif" font-size="10.00">fcarouge::kalman_internal</text>
<text text-anchor="start" x="1275.38" y="-906.88" font-family="Helvetica,sans-Serif" font-size="10.00">::conditional_output&lt; Filter &gt;</text>
<text text-anchor="start" x="1334.62" y="-891.62" font-family="Helvetica,sans-Serif" font-size="10.00"> </text>
<text text-anchor="start" x="1334.62" y="-876.38" font-family="Helvetica,sans-Serif" font-size="10.00"> </text>
<polygon fill="#666666" stroke="#666666" points="1271.38,-903.12 1271.38,-903.12 1400.88,-903.12 1400.88,-903.12 1271.38,-903.12"/>
<polygon fill="#666666" stroke="#666666" points="1271.38,-887.88 1271.38,-887.88 1400.88,-887.88 1400.88,-887.88 1271.38,-887.88"/>
<polygon fill="none" stroke="#666666" points="1271.38,-870.62 1271.38,-931.62 1400.88,-931.62 1400.88,-870.62 1271.38,-870.62"/>
</a>
</g>
</g>
<!-- Node12&#45;&gt;Node2 -->
<g id="edge11_Node000002_Node000012" class="edge">
<title>Node12&#45;&gt;Node2</title>
<g id="a_edge11_Node000002_Node000012"><a xlink:title=" ">
<path fill="none" stroke="#63b8ff" d="M1266.22,-866.48C1264.85,-865.97 1263.48,-865.48 1262.12,-865 1181.55,-836.78 1085.02,-816.3 1022.91,-804.76"/>
<polygon fill="none" stroke="#63b8ff" points="1264.81,-869.68 1275.4,-870.08 1267.37,-863.17 1264.81,-869.68"/>
</a>
</g>
</g>
<!-- Node13 -->
<g id="Node000013" class="node">
<title>Node13</title>
<g id="a_Node000013"><a xlink:title=" ">
<polygon fill="white" stroke="none" points="1537.25,-937.25 1419,-937.25 1419,-865 1537.25,-865 1537.25,-937.25"/>
<text text-anchor="start" x="1423" y="-923.75" font-family="Helvetica,sans-Serif" font-size="10.00">fcarouge::kalman_internal</text>
<text text-anchor="start" x="1423" y="-912.5" font-family="Helvetica,sans-Serif" font-size="10.00">::conditional_prediction</text>
<text text-anchor="start" x="1444.75" y="-901.25" font-family="Helvetica,sans-Serif" font-size="10.00">_types&lt; Filter &gt;</text>
<text text-anchor="start" x="1476.62" y="-886" font-family="Helvetica,sans-Serif" font-size="10.00"> </text>
<text text-anchor="start" x="1476.62" y="-870.75" font-family="Helvetica,sans-Serif" font-size="10.00"> </text>
<polygon fill="#666666" stroke="#666666" points="1419,-897.5 1419,-897.5 1537.25,-897.5 1537.25,-897.5 1419,-897.5"/>
<polygon fill="#666666" stroke="#666666" points="1419,-882.25 1419,-882.25 1537.25,-882.25 1537.25,-882.25 1419,-882.25"/>
<polygon fill="none" stroke="#666666" points="1419,-865 1419,-937.25 1537.25,-937.25 1537.25,-865 1419,-865"/>
</a>
</g>
</g>
<!-- Node13&#45;&gt;Node2 -->
<g id="edge12_Node000002_Node000013" class="edge">
<title>Node13&#45;&gt;Node2</title>
<g id="a_edge12_Node000002_Node000013"><a xlink:title=" ">
<path fill="none" stroke="#63b8ff" d="M1408.36,-864.79C1268.29,-820.39 1109.52,-803.83 1023,-797.51"/>
<polygon fill="none" stroke="#63b8ff" points="1407.24,-868.1 1417.83,-867.85 1409.39,-861.44 1407.24,-868.1"/>
</a>
</g>
</g>
<!-- Node14 -->
<g id="Node000014" class="node">
<title>Node14</title>
<g id="a_Node000014"><a xlink:title=" ">
<polygon fill="white" stroke="none" points="1706.75,-937.25 1555.5,-937.25 1555.5,-865 1706.75,-865 1706.75,-937.25"/>
<text text-anchor="start" x="1559.5" y="-923.75" font-family="Helvetica,sans-Serif" font-size="10.00">fcarouge::kalman_internal</text>
<text text-anchor="start" x="1559.5" y="-912.5" font-family="Helvetica,sans-Serif" font-size="10.00">::conditional_process_uncertainty</text>
<text text-anchor="start" x="1612" y="-901.25" font-family="Helvetica,sans-Serif" font-size="10.00">&lt; Filter &gt;</text>
<text text-anchor="start" x="1629.62" y="-886" font-family="Helvetica,sans-Serif" font-size="10.00"> </text>
<text text-anchor="start" x="1629.62" y="-870.75" font-family="Helvetica,sans-Serif" font-size="10.00"> </text>
<polygon fill="#666666" stroke="#666666" points="1555.5,-897.5 1555.5,-897.5 1706.75,-897.5 1706.75,-897.5 1555.5,-897.5"/>
<polygon fill="#666666" stroke="#666666" points="1555.5,-882.25 1555.5,-882.25 1706.75,-882.25 1706.75,-882.25 1555.5,-882.25"/>
<polygon fill="none" stroke="#666666" points="1555.5,-865 1555.5,-937.25 1706.75,-937.25 1706.75,-865 1555.5,-865"/>
</a>
</g>
</g>
<!-- Node14&#45;&gt;Node2 -->
<g id="edge13_Node000002_Node000014" class="edge">
<title>Node14&#45;&gt;Node2</title>
<g id="a_edge13_Node000002_Node000014"><a xlink:title=" ">
<path fill="none" stroke="#63b8ff" d="M1545,-864.98C1351.5,-815.65 1129.57,-800.65 1022.72,-795.95"/>
<polygon fill="none" stroke="#63b8ff" points="1543.92,-868.32 1554.48,-867.44 1545.68,-861.54 1543.92,-868.32"/>
</a>
</g>
</g>
<!-- Node15 -->
<g id="Node000015" class="node">
<title>Node15</title>
<g id="a_Node000015"><a xlink:title=" ">
<polygon fill="white" stroke="none" points="1855.62,-937.25 1724.62,-937.25 1724.62,-865 1855.62,-865 1855.62,-937.25"/>
<text text-anchor="start" x="1728.62" y="-923.75" font-family="Helvetica,sans-Serif" font-size="10.00">fcarouge::kalman_internal</text>
<text text-anchor="start" x="1728.62" y="-912.5" font-family="Helvetica,sans-Serif" font-size="10.00">::conditional_state_transition</text>
<text text-anchor="start" x="1771" y="-901.25" font-family="Helvetica,sans-Serif" font-size="10.00">&lt; Filter &gt;</text>
<text text-anchor="start" x="1788.62" y="-886" font-family="Helvetica,sans-Serif" font-size="10.00"> </text>
<text text-anchor="start" x="1788.62" y="-870.75" font-family="Helvetica,sans-Serif" font-size="10.00"> </text>
<polygon fill="#666666" stroke="#666666" points="1724.62,-897.5 1724.62,-897.5 1855.62,-897.5 1855.62,-897.5 1724.62,-897.5"/>
<polygon fill="#666666" stroke="#666666" points="1724.62,-882.25 1724.62,-882.25 1855.62,-882.25 1855.62,-882.25 1724.62,-882.25"/>
<polygon fill="none" stroke="#666666" points="1724.62,-865 1724.62,-937.25 1855.62,-937.25 1855.62,-865 1724.62,-865"/>
</a>
</g>
</g>
<!-- Node15&#45;&gt;Node2 -->
<g id="edge14_Node000002_Node000015" class="edge">
<title>Node15&#45;&gt;Node2</title>
<g id="a_edge14_Node000002_Node000015"><a xlink:title=" ">
<path fill="none" stroke="#63b8ff" d="M1713.73,-864.77C1565.56,-828 1176.7,-805 1022.91,-797.01"/>
<polygon fill="none" stroke="#63b8ff" points="1712.79,-868.14 1723.35,-867.29 1714.57,-861.37 1712.79,-868.14"/>
</a>
</g>
</g>
<!-- Node16 -->
<g id="Node000016" class="node">
<title>Node16</title>
<g id="a_Node000016"><a xlink:title=" ">
<polygon fill="white" stroke="none" points="1996.12,-937.25 1874.12,-937.25 1874.12,-865 1996.12,-865 1996.12,-937.25"/>
<text text-anchor="start" x="1878.12" y="-923.75" font-family="Helvetica,sans-Serif" font-size="10.00">fcarouge::kalman_internal</text>
<text text-anchor="start" x="1878.12" y="-912.5" font-family="Helvetica,sans-Serif" font-size="10.00">::conditional_update_types</text>
<text text-anchor="start" x="1916" y="-901.25" font-family="Helvetica,sans-Serif" font-size="10.00">&lt; Filter &gt;</text>
<text text-anchor="start" x="1933.62" y="-886" font-family="Helvetica,sans-Serif" font-size="10.00"> </text>
<text text-anchor="start" x="1933.62" y="-870.75" font-family="Helvetica,sans-Serif" font-size="10.00"> </text>
<polygon fill="#666666" stroke="#666666" points="1874.12,-897.5 1874.12,-897.5 1996.12,-897.5 1996.12,-897.5 1874.12,-897.5"/>
<polygon fill="#666666" stroke="#666666" points="1874.12,-882.25 1874.12,-882.25 1996.12,-882.25 1996.12,-882.25 1874.12,-882.25"/>
<polygon fill="none" stroke="#666666" points="1874.12,-865 1874.12,-937.25 1996.12,-937.25 1996.12,-865 1874.12,-865"/>
</a>
</g>
</g>
<!-- Node16&#45;&gt;Node2 -->
<g id="edge15_Node000002_Node000016" class="edge">
<title>Node16&#45;&gt;Node2</title>
<g id="a_edge15_Node000002_Node000016"><a xlink:title=" ">
<path fill="none" stroke="#63b8ff" d="M1863.18,-864.95C1685.07,-819.89 1197.98,-801.18 1022.82,-795.69"/>
<polygon fill="none" stroke="#63b8ff" points="1862.18,-868.31 1872.74,-867.5 1863.98,-861.54 1862.18,-868.31"/>
</a>
</g>
</g>
</g>
</svg>
