<?xml version="1.0" encoding="UTF-8" standalone="no"?>
<!DOCTYPE svg PUBLIC "-//W3C//DTD SVG 1.1//EN"
 "http://www.w3.org/Graphics/SVG/1.1/DTD/svg11.dtd">
<!-- Generated by graphviz version 3.0.0 (20221109.1736)
 -->
<!-- Title: /github/workspace/linalg Pages: 1 -->
<svg width="246pt" height="140pt"
 viewBox="0.00 0.00 246.00 140.00" xmlns="http://www.w3.org/2000/svg" xmlns:xlink="http://www.w3.org/1999/xlink">
<g id="graph0" class="graph" transform="scale(1 1) rotate(0) translate(4 136)">
<title>/github/workspace/linalg</title>
<polygon fill="white" stroke="transparent" points="-4,4 -4,-136 242,-136 242,4 -4,4"/>
<g id="clust1" class="cluster">
<title>clusterdir_c1845e5bf011c2136883d0d7188f50e9</title>
<g id="a_clust1"><a xlink:href="dir_c1845e5bf011c2136883d0d7188f50e9.xhtml" target="_top">
<polygon fill="#edf6ed" stroke="#404040" stroke-width="2" points="8,-56 8,-124 230,-124 230,-56 8,-56"/>
</a>
</g>
</g>
<g id="clust2" class="cluster">
<title>clusterdir_e6c5ed0f3a4dd8c39ba2a3155e1bbb7c</title>
<g id="a_clust2"><a xlink:href="dir_e6c5ed0f3a4dd8c39ba2a3155e1bbb7c.xhtml" target="_top">
<polygon fill="#d6ebd6" stroke="#404040" points="80,-64 80,-116 222,-116 222,-64 80,-64"/>
</a>
</g>
</g>
<!-- dir_c1845e5bf011c2136883d0d7188f50e9 -->
<g id="node1" class="node">
<title>dir_c1845e5bf011c2136883d0d7188f50e9</title>
<text text-anchor="middle" x="43" y="-87.5" font-family="Helvetica,sans-Serif" font-size="10.00">linalg</text>
</g>
<!-- dir_e6c5ed0f3a4dd8c39ba2a3155e1bbb7c -->
<g id="node2" class="node">
<title>dir_e6c5ed0f3a4dd8c39ba2a3155e1bbb7c</title>
<text text-anchor="middle" x="187" y="-87.5" font-family="Helvetica,sans-Serif" font-size="10.00">eigen</text>
</g>
<!-- dir_171332e70b2c51067b72c12a9b837707 -->
<g id="node3" class="node">
<title>dir_171332e70b2c51067b72c12a9b837707</title>
<g id="a_node3"><a xlink:href="dir_171332e70b2c51067b72c12a9b837707.xhtml" target="_top" xlink:title="fcarouge">
<polygon fill="#bee0be" stroke="#404040" points="142,-108 88,-108 88,-72 142,-72 142,-108"/>
<text text-anchor="middle" x="115" y="-87.5" font-family="Helvetica,sans-Serif" font-size="10.00">fcarouge</text>
</a>
</g>
</g>
<!-- dir_d44c64559bbebec7f509842c48db8b23 -->
<g id="node4" class="node">
<title>dir_d44c64559bbebec7f509842c48db8b23</title>
<g id="a_node4"><a xlink:href="dir_d44c64559bbebec7f509842c48db8b23.xhtml" target="_top" xlink:title="include">
<polygon fill="none" stroke="red" points="142,-36 88,-36 88,0 142,0 142,-36"/>
<text text-anchor="middle" x="115" y="-15.5" font-family="Helvetica,sans-Serif" font-size="10.00">include</text>
</a>
</g>
</g>
<!-- dir_171332e70b2c51067b72c12a9b837707&#45;&gt;dir_d44c64559bbebec7f509842c48db8b23 -->
<g id="edge1" class="edge">
<title>dir_171332e70b2c51067b72c12a9b837707&#45;&gt;dir_d44c64559bbebec7f509842c48db8b23</title>
<path fill="none" stroke="black" d="M115,-71.7C115,-63.98 115,-54.71 115,-46.11"/>
<polygon fill="black" stroke="black" points="118.5,-46.1 115,-36.1 111.5,-46.1 118.5,-46.1"/>
<g id="a_edge1&#45;headlabel"><a xlink:href="dir_000004_000006.xhtml" target="_top" xlink:title="1">
<text text-anchor="middle" x="121.34" y="-47.2" font-family="Helvetica,sans-Serif" font-size="10.00">1</text>
</a>
</g>
</g>
</g>
</svg>
