<?xml version="1.0" encoding="UTF-8" standalone="no"?>
<!DOCTYPE svg PUBLIC "-//W3C//DTD SVG 1.1//EN"
 "http://www.w3.org/Graphics/SVG/1.1/DTD/svg11.dtd">
<!-- Generated by graphviz version 12.2.0 (20241103.1931)
 -->
<!-- Title: /github/workspace/support Pages: 1 -->
<svg width="705pt" height="162pt"
 viewBox="0.00 0.00 705.00 161.75" xmlns="http://www.w3.org/2000/svg" xmlns:xlink="http://www.w3.org/1999/xlink">
<g id="graph0" class="graph" transform="scale(1 1) rotate(0) translate(4 157.75)">
<title>/github/workspace/support</title>
<g id="clust1" class="cluster">
<title>clusterdir_5815af820a9cc9481f1d0990a0d60286</title>
<g id="a_clust1"><a xlink:href="dir_5815af820a9cc9481f1d0990a0d60286.xhtml" target="_top">
<polygon fill="#edf6ed" stroke="#404040" stroke-width="2" points="8,-39.25 8,-145.75 689,-145.75 689,-39.25 8,-39.25"/>
</a>
</g>
</g>
<g id="clust2" class="cluster">
<title>clusterdir_b2f5a9b0c45dbeb1baf4e9d55733efbc</title>
<g id="a_clust2"><a xlink:href="dir_b2f5a9b0c45dbeb1baf4e9d55733efbc.xhtml" target="_top">
<polygon fill="#d6ebd6" stroke="#404040" points="168,-47.25 168,-82.5 295,-82.5 295,-47.25 168,-47.25"/>
</a>
</g>
</g>
<g id="clust3" class="cluster">
<title>clusterdir_9465ff112e2182c1b8baafa22795bcd6</title>
<g id="a_clust3"><a xlink:href="dir_9465ff112e2182c1b8baafa22795bcd6.xhtml" target="_top">
<polygon fill="#d6ebd6" stroke="#404040" points="162,-102.5 162,-137.75 299,-137.75 299,-102.5 162,-102.5"/>
</a>
</g>
</g>
<g id="clust4" class="cluster">
<title>clusterdir_1621ce20bb0f106b02cf49e2771a1732</title>
<g id="a_clust4"><a xlink:href="dir_1621ce20bb0f106b02cf49e2771a1732.xhtml" target="_top">
<polygon fill="#d6ebd6" stroke="#404040" points="303,-47.25 303,-82.5 440,-82.5 440,-47.25 303,-47.25"/>
</a>
</g>
</g>
<g id="clust5" class="cluster">
<title>clusterdir_f363eccae44c3be20d27623281005db7</title>
<g id="a_clust5"><a xlink:href="dir_f363eccae44c3be20d27623281005db7.xhtml" target="_top">
<polygon fill="#d6ebd6" stroke="#404040" points="447,-102.5 447,-137.75 567,-137.75 567,-102.5 447,-102.5"/>
</a>
</g>
</g>
<g id="clust6" class="cluster">
<title>clusterdir_ad3aec80637e09f6ac03fe9cf2951131</title>
<g id="a_clust6"><a xlink:href="dir_ad3aec80637e09f6ac03fe9cf2951131.xhtml" target="_top">
<polygon fill="#d6ebd6" stroke="#404040" points="16,-47.25 16,-82.5 160,-82.5 160,-47.25 16,-47.25"/>
</a>
</g>
</g>
<g id="clust7" class="cluster">
<title>clusterdir_39431477b87e8017262cc5952830cc45</title>
<g id="a_clust7"><a xlink:href="dir_39431477b87e8017262cc5952830cc45.xhtml" target="_top">
<polygon fill="#d6ebd6" stroke="#404040" points="448,-47.25 448,-82.5 575,-82.5 575,-47.25 448,-47.25"/>
</a>
</g>
</g>
<g id="clust8" class="cluster">
<title>clusterdir_25c76f26246955dc126b00d046180701</title>
<g id="a_clust8"><a xlink:href="dir_25c76f26246955dc126b00d046180701.xhtml" target="_top">
<polygon fill="#d6ebd6" stroke="#404040" points="307,-102.5 307,-137.75 439,-137.75 439,-102.5 307,-102.5"/>
</a>
</g>
</g>
<g id="clust9" class="cluster">
<title>clusterdir_fec69b9e6d3473b06a0798720a294dfb</title>
<g id="a_clust9"><a xlink:href="dir_fec69b9e6d3473b06a0798720a294dfb.xhtml" target="_top">
<polygon fill="#d6ebd6" stroke="#404040" points="16,-102.5 16,-137.75 154,-137.75 154,-102.5 16,-102.5"/>
</a>
</g>
</g>
<!-- dir_5815af820a9cc9481f1d0990a0d60286 -->
<g id="node1" class="node">
<title>dir_5815af820a9cc9481f1d0990a0d60286</title>
<text text-anchor="middle" x="601" y="-116.25" font-family="Helvetica,sans-Serif" font-size="10.00">support</text>
</g>
<!-- dir_b2f5a9b0c45dbeb1baf4e9d55733efbc -->
<g id="node2" class="node">
<title>dir_b2f5a9b0c45dbeb1baf4e9d55733efbc</title>
<text text-anchor="middle" x="196" y="-61" font-family="Helvetica,sans-Serif" font-size="10.00">eigen</text>
</g>
<!-- dir_7e92a10fa1b0fca219294b16abd4710c -->
<g id="node3" class="node">
<title>dir_7e92a10fa1b0fca219294b16abd4710c</title>
<g id="a_node3"><a xlink:href="dir_7e92a10fa1b0fca219294b16abd4710c.xhtml" target="_top" xlink:title="fcarouge">
<polygon fill="#bee0be" stroke="#404040" points="286.75,-74.5 233.25,-74.5 233.25,-55.25 286.75,-55.25 286.75,-74.5"/>
<text text-anchor="middle" x="260" y="-61" font-family="Helvetica,sans-Serif" font-size="10.00">fcarouge</text>
</a>
</g>
</g>
<!-- dir_d44c64559bbebec7f509842c48db8b23 -->
<g id="node19" class="node">
<title>dir_d44c64559bbebec7f509842c48db8b23</title>
<g id="a_node19"><a xlink:href="dir_d44c64559bbebec7f509842c48db8b23.xhtml" target="_top" xlink:title="include">
<polygon fill="#edf6ed" stroke="red" points="590.38,-19.25 543.62,-19.25 543.62,0 590.38,0 590.38,-19.25"/>
<text text-anchor="middle" x="567" y="-5.75" font-family="Helvetica,sans-Serif" font-size="10.00">include</text>
</a>
</g>
</g>
<!-- dir_7e92a10fa1b0fca219294b16abd4710c&#45;&gt;dir_d44c64559bbebec7f509842c48db8b23 -->
<g id="edge1" class="edge">
<title>dir_7e92a10fa1b0fca219294b16abd4710c&#45;&gt;dir_d44c64559bbebec7f509842c48db8b23</title>
<g id="a_edge1"><a xlink:href="dir_000005_000014.xhtml" target="_top">
<path fill="none" stroke="#63b8ff" d="M271.23,-54.83C278.66,-49.36 288.87,-42.78 299,-39.25 341.25,-24.55 469.86,-15.84 532.28,-12.37"/>
<polygon fill="#63b8ff" stroke="#63b8ff" points="532.17,-15.89 541.97,-11.85 531.8,-8.9 532.17,-15.89"/>
</a>
</g>
<g id="a_edge1&#45;headlabel"><a xlink:href="dir_000005_000014.xhtml" target="_top" xlink:title="1">
<text text-anchor="middle" x="530.25" y="-14.96" font-family="Helvetica,sans-Serif" font-size="10.00" fill="#63b8ff">1</text>
</a>
</g>
</g>
<!-- dir_9465ff112e2182c1b8baafa22795bcd6 -->
<g id="node4" class="node">
<title>dir_9465ff112e2182c1b8baafa22795bcd6</title>
<text text-anchor="middle" x="195" y="-116.25" font-family="Helvetica,sans-Serif" font-size="10.00">eigexed</text>
</g>
<!-- dir_e5b188ee29900239e7a863318756cf30 -->
<g id="node5" class="node">
<title>dir_e5b188ee29900239e7a863318756cf30</title>
<g id="a_node5"><a xlink:href="dir_e5b188ee29900239e7a863318756cf30.xhtml" target="_top" xlink:title="fcarouge">
<polygon fill="#bee0be" stroke="#404040" points="290.75,-129.75 237.25,-129.75 237.25,-110.5 290.75,-110.5 290.75,-129.75"/>
<text text-anchor="middle" x="264" y="-116.25" font-family="Helvetica,sans-Serif" font-size="10.00">fcarouge</text>
</a>
</g>
</g>
<!-- dir_e5b188ee29900239e7a863318756cf30&#45;&gt;dir_7e92a10fa1b0fca219294b16abd4710c -->
<g id="edge2" class="edge">
<title>dir_e5b188ee29900239e7a863318756cf30&#45;&gt;dir_7e92a10fa1b0fca219294b16abd4710c</title>
<g id="a_edge2"><a xlink:href="dir_000006_000005.xhtml" target="_top">
<path fill="none" stroke="#63b8ff" d="M263.34,-110.33C262.84,-103.74 262.15,-94.46 261.52,-86.07"/>
<polygon fill="#63b8ff" stroke="#63b8ff" points="265.03,-86.08 260.79,-76.37 258.05,-86.6 265.03,-86.08"/>
</a>
</g>
<g id="a_edge2&#45;headlabel"><a xlink:href="dir_000006_000005.xhtml" target="_top" xlink:title="1">
<text text-anchor="middle" x="268.01" y="-84.07" font-family="Helvetica,sans-Serif" font-size="10.00" fill="#63b8ff">1</text>
</a>
</g>
</g>
<!-- dir_e336bd576f52f793a6c73d300cd26dff -->
<g id="node7" class="node">
<title>dir_e336bd576f52f793a6c73d300cd26dff</title>
<g id="a_node7"><a xlink:href="dir_e336bd576f52f793a6c73d300cd26dff.xhtml" target="_top" xlink:title="fcarouge">
<polygon fill="#bee0be" stroke="#404040" points="431.75,-74.5 378.25,-74.5 378.25,-55.25 431.75,-55.25 431.75,-74.5"/>
<text text-anchor="middle" x="405" y="-61" font-family="Helvetica,sans-Serif" font-size="10.00">fcarouge</text>
</a>
</g>
</g>
<!-- dir_e5b188ee29900239e7a863318756cf30&#45;&gt;dir_e336bd576f52f793a6c73d300cd26dff -->
<g id="edge4" class="edge">
<title>dir_e5b188ee29900239e7a863318756cf30&#45;&gt;dir_e336bd576f52f793a6c73d300cd26dff</title>
<g id="a_edge4"><a xlink:href="dir_000006_000007.xhtml" target="_top">
<path fill="none" stroke="#63b8ff" d="M284.07,-110.06C290.1,-107.47 296.77,-104.75 303,-102.5 332.23,-91.95 340.99,-93.64 370,-82.5 372.35,-81.6 374.75,-80.61 377.16,-79.57"/>
<polygon fill="#63b8ff" stroke="#63b8ff" points="378.41,-82.84 386.05,-75.5 375.5,-76.48 378.41,-82.84"/>
</a>
</g>
<g id="a_edge4&#45;headlabel"><a xlink:href="dir_000006_000007.xhtml" target="_top" xlink:title="1">
<text text-anchor="middle" x="377.7" y="-82.41" font-family="Helvetica,sans-Serif" font-size="10.00" fill="#63b8ff">1</text>
</a>
</g>
</g>
<!-- dir_e5b188ee29900239e7a863318756cf30&#45;&gt;dir_d44c64559bbebec7f509842c48db8b23 -->
<g id="edge3" class="edge">
<title>dir_e5b188ee29900239e7a863318756cf30&#45;&gt;dir_d44c64559bbebec7f509842c48db8b23</title>
<g id="a_edge3"><a xlink:href="dir_000006_000014.xhtml" target="_top">
<path fill="none" stroke="#63b8ff" d="M281.83,-110.06C288.33,-107.15 295.85,-104.23 303,-102.5 332.88,-95.26 558.06,-105.01 579,-82.5 592.16,-68.35 585.34,-45.5 577.7,-29.36"/>
<polygon fill="#63b8ff" stroke="#63b8ff" points="580.96,-28.04 573.22,-20.8 574.76,-31.28 580.96,-28.04"/>
</a>
</g>
<g id="a_edge3&#45;headlabel"><a xlink:href="dir_000006_000014.xhtml" target="_top" xlink:title="1">
<text text-anchor="middle" x="584.44" y="-24.69" font-family="Helvetica,sans-Serif" font-size="10.00" fill="#63b8ff">1</text>
</a>
</g>
</g>
<!-- dir_1621ce20bb0f106b02cf49e2771a1732 -->
<g id="node6" class="node">
<title>dir_1621ce20bb0f106b02cf49e2771a1732</title>
<text text-anchor="middle" x="336" y="-61" font-family="Helvetica,sans-Serif" font-size="10.00">indexed</text>
</g>
<!-- dir_e336bd576f52f793a6c73d300cd26dff&#45;&gt;dir_d44c64559bbebec7f509842c48db8b23 -->
<g id="edge5" class="edge">
<title>dir_e336bd576f52f793a6c73d300cd26dff&#45;&gt;dir_d44c64559bbebec7f509842c48db8b23</title>
<g id="a_edge5"><a xlink:href="dir_000007_000014.xhtml" target="_top">
<path fill="none" stroke="#63b8ff" d="M417.06,-54.77C424.49,-49.55 434.4,-43.26 444,-39.25 472.46,-27.35 506.8,-19.89 531.95,-15.57"/>
<polygon fill="#63b8ff" stroke="#63b8ff" points="532.35,-19.05 541.66,-14 531.23,-12.15 532.35,-19.05"/>
</a>
</g>
<g id="a_edge5&#45;headlabel"><a xlink:href="dir_000007_000014.xhtml" target="_top" xlink:title="1">
<text text-anchor="middle" x="530.75" y="-18.32" font-family="Helvetica,sans-Serif" font-size="10.00" fill="#63b8ff">1</text>
</a>
</g>
</g>
<!-- dir_f363eccae44c3be20d27623281005db7 -->
<g id="node8" class="node">
<title>dir_f363eccae44c3be20d27623281005db7</title>
<text text-anchor="middle" x="471" y="-116.25" font-family="Helvetica,sans-Serif" font-size="10.00">lazy</text>
</g>
<!-- dir_be9d8d76351512e80436fb53ca2e56d8 -->
<g id="node9" class="node">
<title>dir_be9d8d76351512e80436fb53ca2e56d8</title>
<g id="a_node9"><a xlink:href="dir_be9d8d76351512e80436fb53ca2e56d8.xhtml" target="_top" xlink:title="fcarouge">
<polygon fill="#bee0be" stroke="#404040" points="558.75,-129.75 505.25,-129.75 505.25,-110.5 558.75,-110.5 558.75,-129.75"/>
<text text-anchor="middle" x="532" y="-116.25" font-family="Helvetica,sans-Serif" font-size="10.00">fcarouge</text>
</a>
</g>
</g>
<!-- dir_be9d8d76351512e80436fb53ca2e56d8&#45;&gt;dir_d44c64559bbebec7f509842c48db8b23 -->
<g id="edge6" class="edge">
<title>dir_be9d8d76351512e80436fb53ca2e56d8&#45;&gt;dir_d44c64559bbebec7f509842c48db8b23</title>
<g id="a_edge6"><a xlink:href="dir_000008_000014.xhtml" target="_top">
<path fill="none" stroke="#63b8ff" d="M547.08,-110.03C552.03,-107.32 557.63,-104.54 563,-102.5 598.88,-88.87 623.21,-112.62 647,-82.5 658.91,-67.42 658.07,-54.97 647,-39.25 636.72,-24.65 618.27,-17.46 601.68,-13.93"/>
<polygon fill="#63b8ff" stroke="#63b8ff" points="602.55,-10.53 592.1,-12.29 601.37,-17.43 602.55,-10.53"/>
</a>
</g>
<g id="a_edge6&#45;headlabel"><a xlink:href="dir_000008_000014.xhtml" target="_top" xlink:title="1">
<text text-anchor="middle" x="605.08" y="-4.21" font-family="Helvetica,sans-Serif" font-size="10.00" fill="#63b8ff">1</text>
</a>
</g>
</g>
<!-- dir_77010ae1c659866f3d80deb588daf66a -->
<g id="node10" class="node">
<title>dir_77010ae1c659866f3d80deb588daf66a</title>
<g id="a_node10"><a xlink:href="dir_77010ae1c659866f3d80deb588daf66a.xhtml" target="_top" xlink:title="main">
<polygon fill="#d6ebd6" stroke="#404040" points="680.5,-129.75 643.5,-129.75 643.5,-110.5 680.5,-110.5 680.5,-129.75"/>
<text text-anchor="middle" x="662" y="-116.25" font-family="Helvetica,sans-Serif" font-size="10.00">main</text>
</a>
</g>
</g>
<!-- dir_ad3aec80637e09f6ac03fe9cf2951131 -->
<g id="node11" class="node">
<title>dir_ad3aec80637e09f6ac03fe9cf2951131</title>
<text text-anchor="middle" x="52" y="-61" font-family="Helvetica,sans-Serif" font-size="10.00">mp_units</text>
</g>
<!-- dir_d96b870306bee9c1c6578f3dbc9d0bad -->
<g id="node12" class="node">
<title>dir_d96b870306bee9c1c6578f3dbc9d0bad</title>
<g id="a_node12"><a xlink:href="dir_d96b870306bee9c1c6578f3dbc9d0bad.xhtml" target="_top" xlink:title="fcarouge">
<polygon fill="#bee0be" stroke="#404040" points="151.75,-74.5 98.25,-74.5 98.25,-55.25 151.75,-55.25 151.75,-74.5"/>
<text text-anchor="middle" x="125" y="-61" font-family="Helvetica,sans-Serif" font-size="10.00">fcarouge</text>
</a>
</g>
</g>
<!-- dir_39431477b87e8017262cc5952830cc45 -->
<g id="node13" class="node">
<title>dir_39431477b87e8017262cc5952830cc45</title>
<text text-anchor="middle" x="476" y="-61" font-family="Helvetica,sans-Serif" font-size="10.00">naive</text>
</g>
<!-- dir_df0e3dd92e86a858066bbf68bf2b7fbd -->
<g id="node14" class="node">
<title>dir_df0e3dd92e86a858066bbf68bf2b7fbd</title>
<g id="a_node14"><a xlink:href="dir_df0e3dd92e86a858066bbf68bf2b7fbd.xhtml" target="_top" xlink:title="fcarouge">
<polygon fill="#bee0be" stroke="#404040" points="566.75,-74.5 513.25,-74.5 513.25,-55.25 566.75,-55.25 566.75,-74.5"/>
<text text-anchor="middle" x="540" y="-61" font-family="Helvetica,sans-Serif" font-size="10.00">fcarouge</text>
</a>
</g>
</g>
<!-- dir_df0e3dd92e86a858066bbf68bf2b7fbd&#45;&gt;dir_d44c64559bbebec7f509842c48db8b23 -->
<g id="edge7" class="edge">
<title>dir_df0e3dd92e86a858066bbf68bf2b7fbd&#45;&gt;dir_d44c64559bbebec7f509842c48db8b23</title>
<g id="a_edge7"><a xlink:href="dir_000010_000014.xhtml" target="_top">
<path fill="none" stroke="#63b8ff" d="M544.46,-55.08C547.95,-48.19 552.95,-38.34 557.35,-29.66"/>
<polygon fill="#63b8ff" stroke="#63b8ff" points="560.36,-31.46 561.76,-20.96 554.12,-28.3 560.36,-31.46"/>
</a>
</g>
<g id="a_edge7&#45;headlabel"><a xlink:href="dir_000010_000014.xhtml" target="_top" xlink:title="1">
<text text-anchor="middle" x="561.95" y="-30.73" font-family="Helvetica,sans-Serif" font-size="10.00" fill="#63b8ff">1</text>
</a>
</g>
</g>
<!-- dir_25c76f26246955dc126b00d046180701 -->
<g id="node15" class="node">
<title>dir_25c76f26246955dc126b00d046180701</title>
<text text-anchor="middle" x="337" y="-116.25" font-family="Helvetica,sans-Serif" font-size="10.00">naixed</text>
</g>
<!-- dir_9dcaf2bc6bc3ec8f6ef0131c84f5acc6 -->
<g id="node16" class="node">
<title>dir_9dcaf2bc6bc3ec8f6ef0131c84f5acc6</title>
<g id="a_node16"><a xlink:href="dir_9dcaf2bc6bc3ec8f6ef0131c84f5acc6.xhtml" target="_top" xlink:title="fcarouge">
<polygon fill="#bee0be" stroke="#404040" points="430.75,-129.75 377.25,-129.75 377.25,-110.5 430.75,-110.5 430.75,-129.75"/>
<text text-anchor="middle" x="404" y="-116.25" font-family="Helvetica,sans-Serif" font-size="10.00">fcarouge</text>
</a>
</g>
</g>
<!-- dir_9dcaf2bc6bc3ec8f6ef0131c84f5acc6&#45;&gt;dir_e336bd576f52f793a6c73d300cd26dff -->
<g id="edge10" class="edge">
<title>dir_9dcaf2bc6bc3ec8f6ef0131c84f5acc6&#45;&gt;dir_e336bd576f52f793a6c73d300cd26dff</title>
<g id="a_edge10"><a xlink:href="dir_000011_000007.xhtml" target="_top">
<path fill="none" stroke="#63b8ff" d="M404.17,-110.33C404.29,-103.82 404.46,-94.67 404.62,-86.37"/>
<polygon fill="#63b8ff" stroke="#63b8ff" points="408.11,-86.44 404.8,-76.37 401.12,-86.3 408.11,-86.44"/>
</a>
</g>
<g id="a_edge10&#45;headlabel"><a xlink:href="dir_000011_000007.xhtml" target="_top" xlink:title="1">
<text text-anchor="middle" x="410.91" y="-84.7" font-family="Helvetica,sans-Serif" font-size="10.00" fill="#63b8ff">1</text>
</a>
</g>
</g>
<!-- dir_9dcaf2bc6bc3ec8f6ef0131c84f5acc6&#45;&gt;dir_df0e3dd92e86a858066bbf68bf2b7fbd -->
<g id="edge9" class="edge">
<title>dir_9dcaf2bc6bc3ec8f6ef0131c84f5acc6&#45;&gt;dir_df0e3dd92e86a858066bbf68bf2b7fbd</title>
<g id="a_edge9"><a xlink:href="dir_000011_000010.xhtml" target="_top">
<path fill="none" stroke="#63b8ff" d="M424.1,-110.14C430.13,-107.56 436.79,-104.82 443,-102.5 470.12,-92.37 478.09,-93.18 505,-82.5 507.2,-81.63 509.45,-80.68 511.71,-79.7"/>
<polygon fill="#63b8ff" stroke="#63b8ff" points="513.03,-82.94 520.66,-75.59 510.11,-76.58 513.03,-82.94"/>
</a>
</g>
<g id="a_edge9&#45;headlabel"><a xlink:href="dir_000011_000010.xhtml" target="_top" xlink:title="1">
<text text-anchor="middle" x="512.32" y="-82.52" font-family="Helvetica,sans-Serif" font-size="10.00" fill="#63b8ff">1</text>
</a>
</g>
</g>
<!-- dir_9dcaf2bc6bc3ec8f6ef0131c84f5acc6&#45;&gt;dir_d44c64559bbebec7f509842c48db8b23 -->
<g id="edge8" class="edge">
<title>dir_9dcaf2bc6bc3ec8f6ef0131c84f5acc6&#45;&gt;dir_d44c64559bbebec7f509842c48db8b23</title>
<g id="a_edge8"><a xlink:href="dir_000011_000014.xhtml" target="_top">
<path fill="none" stroke="#63b8ff" d="M422.27,-110.07C428.68,-107.24 436.03,-104.36 443,-102.5 478.89,-92.9 584.35,-110.3 609,-82.5 621.75,-68.12 617.98,-56.24 609,-39.25 606.24,-34.02 602.04,-29.57 597.35,-25.84"/>
<polygon fill="#63b8ff" stroke="#63b8ff" points="599.49,-23.06 589.23,-20.41 595.59,-28.88 599.49,-23.06"/>
</a>
</g>
<g id="a_edge8&#45;headlabel"><a xlink:href="dir_000011_000014.xhtml" target="_top" xlink:title="1">
<text text-anchor="middle" x="602.8" y="-17.99" font-family="Helvetica,sans-Serif" font-size="10.00" fill="#63b8ff">1</text>
</a>
</g>
</g>
<!-- dir_fec69b9e6d3473b06a0798720a294dfb -->
<g id="node17" class="node">
<title>dir_fec69b9e6d3473b06a0798720a294dfb</title>
<text text-anchor="middle" x="49" y="-116.25" font-family="Helvetica,sans-Serif" font-size="10.00">quantity</text>
</g>
<!-- dir_d45b43f6818aeab396ed81797090b4ba -->
<g id="node18" class="node">
<title>dir_d45b43f6818aeab396ed81797090b4ba</title>
<g id="a_node18"><a xlink:href="dir_d45b43f6818aeab396ed81797090b4ba.xhtml" target="_top" xlink:title="fcarouge">
<polygon fill="#bee0be" stroke="#404040" points="145.75,-129.75 92.25,-129.75 92.25,-110.5 145.75,-110.5 145.75,-129.75"/>
<text text-anchor="middle" x="119" y="-116.25" font-family="Helvetica,sans-Serif" font-size="10.00">fcarouge</text>
</a>
</g>
</g>
<!-- dir_d45b43f6818aeab396ed81797090b4ba&#45;&gt;dir_7e92a10fa1b0fca219294b16abd4710c -->
<g id="edge11" class="edge">
<title>dir_d45b43f6818aeab396ed81797090b4ba&#45;&gt;dir_7e92a10fa1b0fca219294b16abd4710c</title>
<g id="a_edge11"><a xlink:href="dir_000012_000005.xhtml" target="_top">
<path fill="none" stroke="#63b8ff" d="M139.07,-110.06C145.1,-107.47 151.77,-104.75 158,-102.5 187.23,-91.95 195.99,-93.64 225,-82.5 227.35,-81.6 229.75,-80.61 232.16,-79.57"/>
<polygon fill="#63b8ff" stroke="#63b8ff" points="233.41,-82.84 241.05,-75.5 230.5,-76.48 233.41,-82.84"/>
</a>
</g>
<g id="a_edge11&#45;headlabel"><a xlink:href="dir_000012_000005.xhtml" target="_top" xlink:title="1">
<text text-anchor="middle" x="232.7" y="-82.41" font-family="Helvetica,sans-Serif" font-size="10.00" fill="#63b8ff">1</text>
</a>
</g>
</g>
<!-- dir_d45b43f6818aeab396ed81797090b4ba&#45;&gt;dir_e336bd576f52f793a6c73d300cd26dff -->
<g id="edge13" class="edge">
<title>dir_d45b43f6818aeab396ed81797090b4ba&#45;&gt;dir_e336bd576f52f793a6c73d300cd26dff</title>
<g id="a_edge13"><a xlink:href="dir_000012_000007.xhtml" target="_top">
<path fill="none" stroke="#63b8ff" d="M136.85,-110.15C143.35,-107.24 150.87,-104.31 158,-102.5 249.73,-79.22 278.76,-107.63 370,-82.5 372.94,-81.69 375.93,-80.65 378.87,-79.48"/>
<polygon fill="#63b8ff" stroke="#63b8ff" points="380.01,-82.8 387.69,-75.5 377.14,-76.42 380.01,-82.8"/>
</a>
</g>
<g id="a_edge13&#45;headlabel"><a xlink:href="dir_000012_000007.xhtml" target="_top" xlink:title="1">
<text text-anchor="middle" x="379.28" y="-82.37" font-family="Helvetica,sans-Serif" font-size="10.00" fill="#63b8ff">1</text>
</a>
</g>
</g>
<!-- dir_d45b43f6818aeab396ed81797090b4ba&#45;&gt;dir_d96b870306bee9c1c6578f3dbc9d0bad -->
<g id="edge12" class="edge">
<title>dir_d45b43f6818aeab396ed81797090b4ba&#45;&gt;dir_d96b870306bee9c1c6578f3dbc9d0bad</title>
<g id="a_edge12"><a xlink:href="dir_000012_000009.xhtml" target="_top">
<path fill="none" stroke="#63b8ff" d="M119.99,-110.33C120.73,-103.74 121.78,-94.46 122.72,-86.07"/>
<polygon fill="#63b8ff" stroke="#63b8ff" points="126.18,-86.69 123.82,-76.36 119.22,-85.91 126.18,-86.69"/>
</a>
</g>
<g id="a_edge12&#45;headlabel"><a xlink:href="dir_000012_000009.xhtml" target="_top" xlink:title="1">
<text text-anchor="middle" x="128.76" y="-85.2" font-family="Helvetica,sans-Serif" font-size="10.00" fill="#63b8ff">1</text>
</a>
</g>
</g>
</g>
</svg>
