<?xml version="1.0" encoding="UTF-8" standalone="no"?>
<!DOCTYPE svg PUBLIC "-//W3C//DTD SVG 1.1//EN"
 "http://www.w3.org/Graphics/SVG/1.1/DTD/svg11.dtd">
<!-- Generated by graphviz version 3.0.0 (20220413.0242)
 -->
<!-- Title: include/fcarouge Pages: 1 -->
<svg width="190pt" height="199pt"
 viewBox="0.00 0.00 190.00 199.00" xmlns="http://www.w3.org/2000/svg" xmlns:xlink="http://www.w3.org/1999/xlink">
<g id="graph0" class="graph" transform="scale(1 1) rotate(0) translate(4 195)">
<title>include/fcarouge</title>
<polygon fill="white" stroke="transparent" points="-4,4 -4,-195 186,-195 186,4 -4,4"/>
<g id="clust1" class="cluster">
<title>clusterdir_d44c64559bbebec7f509842c48db8b23</title>
<g id="a_clust1"><a xlink:href="dir_d44c64559bbebec7f509842c48db8b23.xhtml" target="_top" xlink:title="include">
<polygon fill="#edf6ed" stroke="#404040" stroke-dasharray="5,2" points="8,-8 8,-183 174,-183 174,-8 8,-8"/>
<text text-anchor="middle" x="91" y="-171" font-family="Helvetica,sans-Serif" font-size="10.00">include</text>
</a>
</g>
</g>
<g id="clust2" class="cluster">
<title>clusterdir_533ca38e4d6dcb24d3c950d504c67ecf</title>
<g id="a_clust2"><a xlink:href="dir_533ca38e4d6dcb24d3c950d504c67ecf.xhtml" target="_top">
<polygon fill="#edf6ed" stroke="#404040" stroke-width="2" points="16,-16 16,-156 166,-156 166,-16 16,-16"/>
</a>
</g>
</g>
<g id="clust3" class="cluster">
<title>clusterdir_58817dbcd177a26bda361ab0426398a1</title>
<g id="a_clust3"><a xlink:href="dir_58817dbcd177a26bda361ab0426398a1.xhtml" target="_top">
<polygon fill="#d6ebd6" stroke="#404040" points="88,-24 88,-148 158,-148 158,-24 88,-24"/>
</a>
</g>
</g>
<!-- dir_533ca38e4d6dcb24d3c950d504c67ecf -->
<g id="node1" class="node">
<title>dir_533ca38e4d6dcb24d3c950d504c67ecf</title>
<text text-anchor="middle" x="51" y="-119.5" font-family="Helvetica,sans-Serif" font-size="10.00">fcarouge</text>
</g>
<!-- dir_378fe1080454d2b2e5da42d8158af554 -->
<g id="node4" class="node">
<title>dir_378fe1080454d2b2e5da42d8158af554</title>
<g id="a_node4"><a xlink:href="dir_378fe1080454d2b2e5da42d8158af554.xhtml" target="_top" xlink:title="internal">
<polygon fill="#d6ebd6" stroke="#404040" points="78,-68 24,-68 24,-32 78,-32 78,-68"/>
<text text-anchor="middle" x="51" y="-47.5" font-family="Helvetica,sans-Serif" font-size="10.00">internal</text>
</a>
</g>
</g>
<!-- dir_533ca38e4d6dcb24d3c950d504c67ecf&#45;&gt;dir_378fe1080454d2b2e5da42d8158af554 -->
<g id="edge1" class="edge">
<title>dir_533ca38e4d6dcb24d3c950d504c67ecf&#45;&gt;dir_378fe1080454d2b2e5da42d8158af554</title>
<path fill="none" stroke="black" d="M51,-103.7C51,-95.98 51,-86.71 51,-78.11"/>
<polygon fill="black" stroke="black" points="54.5,-78.1 51,-68.1 47.5,-78.1 54.5,-78.1"/>
<g id="a_edge1&#45;headlabel"><a xlink:href="dir_000003_000007.xhtml" target="_top" xlink:title="3">
<text text-anchor="middle" x="57.34" y="-79.2" font-family="Helvetica,sans-Serif" font-size="10.00">3</text>
</a>
</g>
</g>
<!-- dir_58817dbcd177a26bda361ab0426398a1 -->
<g id="node2" class="node">
<title>dir_58817dbcd177a26bda361ab0426398a1</title>
<text text-anchor="middle" x="123" y="-119.5" font-family="Helvetica,sans-Serif" font-size="10.00">eigen</text>
</g>
<!-- dir_a5f48ff4e46e760ef906c6947b169acf -->
<g id="node3" class="node">
<title>dir_a5f48ff4e46e760ef906c6947b169acf</title>
<g id="a_node3"><a xlink:href="dir_a5f48ff4e46e760ef906c6947b169acf.xhtml" target="_top" xlink:title="internal">
<polygon fill="#bee0be" stroke="#404040" points="150,-68 96,-68 96,-32 150,-32 150,-68"/>
<text text-anchor="middle" x="123" y="-47.5" font-family="Helvetica,sans-Serif" font-size="10.00">internal</text>
</a>
</g>
</g>
<!-- dir_58817dbcd177a26bda361ab0426398a1&#45;&gt;dir_a5f48ff4e46e760ef906c6947b169acf -->
<g id="edge2" class="edge">
<title>dir_58817dbcd177a26bda361ab0426398a1&#45;&gt;dir_a5f48ff4e46e760ef906c6947b169acf</title>
<path fill="none" stroke="black" d="M123,-103.7C123,-95.98 123,-86.71 123,-78.11"/>
<polygon fill="black" stroke="black" points="126.5,-78.1 123,-68.1 119.5,-78.1 126.5,-78.1"/>
<g id="a_edge2&#45;headlabel"><a xlink:href="dir_000002_000006.xhtml" target="_top" xlink:title="1">
<text text-anchor="middle" x="129.34" y="-79.2" font-family="Helvetica,sans-Serif" font-size="10.00">1</text>
</a>
</g>
</g>
</g>
</svg>
