<?xml version="1.0" encoding="UTF-8" standalone="no"?>
<!DOCTYPE svg PUBLIC "-//W3C//DTD SVG 1.1//EN"
 "http://www.w3.org/Graphics/SVG/1.1/DTD/svg11.dtd">
<!-- Generated by graphviz version 3.0.0 (20221109.1736)
 -->
<!-- Title: /github/workspace/linalg Pages: 1 -->
<svg width="546pt" height="140pt"
 viewBox="0.00 0.00 546.00 140.00" xmlns="http://www.w3.org/2000/svg" xmlns:xlink="http://www.w3.org/1999/xlink">
<g id="graph0" class="graph" transform="scale(1 1) rotate(0) translate(4 136)">
<title>/github/workspace/linalg</title>
<polygon fill="white" stroke="transparent" points="-4,4 -4,-136 542,-136 542,4 -4,4"/>
<g id="clust1" class="cluster">
<title>clusterdir_c1845e5bf011c2136883d0d7188f50e9</title>
<g id="a_clust1"><a xlink:href="dir_c1845e5bf011c2136883d0d7188f50e9.xhtml" target="_top">
<polygon fill="#edf6ed" stroke="#404040" stroke-width="2" points="8,-56 8,-124 530,-124 530,-56 8,-56"/>
</a>
</g>
</g>
<g id="clust4" class="cluster">
<title>clusterdir_5c422dffce8b56da66aa5bce35afaadd</title>
<g id="a_clust4"><a xlink:href="dir_5c422dffce8b56da66aa5bce35afaadd.xhtml" target="_top">
<polygon fill="#d6ebd6" stroke="#404040" points="380,-64 380,-116 522,-116 522,-64 380,-64"/>
</a>
</g>
</g>
<g id="clust2" class="cluster">
<title>clusterdir_e6c5ed0f3a4dd8c39ba2a3155e1bbb7c</title>
<g id="a_clust2"><a xlink:href="dir_e6c5ed0f3a4dd8c39ba2a3155e1bbb7c.xhtml" target="_top">
<polygon fill="#d6ebd6" stroke="#404040" points="230,-64 230,-116 372,-116 372,-64 230,-64"/>
</a>
</g>
</g>
<g id="clust3" class="cluster">
<title>clusterdir_a5865fd9dbf72bad167b68249efe8e33</title>
<g id="a_clust3"><a xlink:href="dir_a5865fd9dbf72bad167b68249efe8e33.xhtml" target="_top">
<polygon fill="#d6ebd6" stroke="#404040" points="80,-64 80,-116 222,-116 222,-64 80,-64"/>
</a>
</g>
</g>
<!-- dir_c1845e5bf011c2136883d0d7188f50e9 -->
<g id="node1" class="node">
<title>dir_c1845e5bf011c2136883d0d7188f50e9</title>
<text text-anchor="middle" x="43" y="-87.5" font-family="Helvetica,sans-Serif" font-size="10.00">linalg</text>
</g>
<!-- dir_e6c5ed0f3a4dd8c39ba2a3155e1bbb7c -->
<g id="node2" class="node">
<title>dir_e6c5ed0f3a4dd8c39ba2a3155e1bbb7c</title>
<text text-anchor="middle" x="337" y="-87.5" font-family="Helvetica,sans-Serif" font-size="10.00">eigen</text>
</g>
<!-- dir_171332e70b2c51067b72c12a9b837707 -->
<g id="node3" class="node">
<title>dir_171332e70b2c51067b72c12a9b837707</title>
<g id="a_node3"><a xlink:href="dir_171332e70b2c51067b72c12a9b837707.xhtml" target="_top" xlink:title="fcarouge">
<polygon fill="#bee0be" stroke="#404040" points="292,-108 238,-108 238,-72 292,-72 292,-108"/>
<text text-anchor="middle" x="265" y="-87.5" font-family="Helvetica,sans-Serif" font-size="10.00">fcarouge</text>
</a>
</g>
</g>
<!-- dir_d44c64559bbebec7f509842c48db8b23 -->
<g id="node8" class="node">
<title>dir_d44c64559bbebec7f509842c48db8b23</title>
<g id="a_node8"><a xlink:href="dir_d44c64559bbebec7f509842c48db8b23.xhtml" target="_top" xlink:title="include">
<polygon fill="none" stroke="red" points="292,-36 238,-36 238,0 292,0 292,-36"/>
<text text-anchor="middle" x="265" y="-15.5" font-family="Helvetica,sans-Serif" font-size="10.00">include</text>
</a>
</g>
</g>
<!-- dir_171332e70b2c51067b72c12a9b837707&#45;&gt;dir_d44c64559bbebec7f509842c48db8b23 -->
<g id="edge1" class="edge">
<title>dir_171332e70b2c51067b72c12a9b837707&#45;&gt;dir_d44c64559bbebec7f509842c48db8b23</title>
<path fill="none" stroke="black" d="M265,-71.7C265,-63.98 265,-54.71 265,-46.11"/>
<polygon fill="black" stroke="black" points="268.5,-46.1 265,-36.1 261.5,-46.1 268.5,-46.1"/>
<g id="a_edge1&#45;headlabel"><a xlink:href="dir_000004_000008.xhtml" target="_top" xlink:title="1">
<text text-anchor="middle" x="271.34" y="-47.2" font-family="Helvetica,sans-Serif" font-size="10.00">1</text>
</a>
</g>
</g>
<!-- dir_a5865fd9dbf72bad167b68249efe8e33 -->
<g id="node4" class="node">
<title>dir_a5865fd9dbf72bad167b68249efe8e33</title>
<text text-anchor="middle" x="187" y="-87.5" font-family="Helvetica,sans-Serif" font-size="10.00">lazy</text>
</g>
<!-- dir_0a4f59775a28c8901f3ddbf67298531c -->
<g id="node5" class="node">
<title>dir_0a4f59775a28c8901f3ddbf67298531c</title>
<g id="a_node5"><a xlink:href="dir_0a4f59775a28c8901f3ddbf67298531c.xhtml" target="_top" xlink:title="fcarouge">
<polygon fill="#bee0be" stroke="#404040" points="142,-108 88,-108 88,-72 142,-72 142,-108"/>
<text text-anchor="middle" x="115" y="-87.5" font-family="Helvetica,sans-Serif" font-size="10.00">fcarouge</text>
</a>
</g>
</g>
<!-- dir_0a4f59775a28c8901f3ddbf67298531c&#45;&gt;dir_d44c64559bbebec7f509842c48db8b23 -->
<g id="edge2" class="edge">
<title>dir_0a4f59775a28c8901f3ddbf67298531c&#45;&gt;dir_d44c64559bbebec7f509842c48db8b23</title>
<path fill="none" stroke="black" d="M130.65,-71.93C136.58,-66.24 143.68,-60.27 151,-56 174.96,-42.03 204.87,-32.58 228.04,-26.73"/>
<polygon fill="black" stroke="black" points="228.94,-30.11 237.84,-24.36 227.3,-23.3 228.94,-30.11"/>
<g id="a_edge2&#45;headlabel"><a xlink:href="dir_000005_000008.xhtml" target="_top" xlink:title="1">
<text text-anchor="middle" x="226.11" y="-31.21" font-family="Helvetica,sans-Serif" font-size="10.00">1</text>
</a>
</g>
</g>
<!-- dir_5c422dffce8b56da66aa5bce35afaadd -->
<g id="node6" class="node">
<title>dir_5c422dffce8b56da66aa5bce35afaadd</title>
<text text-anchor="middle" x="487" y="-87.5" font-family="Helvetica,sans-Serif" font-size="10.00">naive</text>
</g>
<!-- dir_24e45c3c0a20829319c2ae855f697b9d -->
<g id="node7" class="node">
<title>dir_24e45c3c0a20829319c2ae855f697b9d</title>
<g id="a_node7"><a xlink:href="dir_24e45c3c0a20829319c2ae855f697b9d.xhtml" target="_top" xlink:title="fcarouge">
<polygon fill="#bee0be" stroke="#404040" points="442,-108 388,-108 388,-72 442,-72 442,-108"/>
<text text-anchor="middle" x="415" y="-87.5" font-family="Helvetica,sans-Serif" font-size="10.00">fcarouge</text>
</a>
</g>
</g>
<!-- dir_24e45c3c0a20829319c2ae855f697b9d&#45;&gt;dir_d44c64559bbebec7f509842c48db8b23 -->
<g id="edge3" class="edge">
<title>dir_24e45c3c0a20829319c2ae855f697b9d&#45;&gt;dir_d44c64559bbebec7f509842c48db8b23</title>
<path fill="none" stroke="black" d="M397.43,-71.67C391.07,-66.09 383.58,-60.26 376,-56 352.81,-42.97 324.3,-33.59 301.98,-27.53"/>
<polygon fill="black" stroke="black" points="302.77,-24.12 292.21,-24.98 301,-30.89 302.77,-24.12"/>
<g id="a_edge3&#45;headlabel"><a xlink:href="dir_000006_000008.xhtml" target="_top" xlink:title="1">
<text text-anchor="middle" x="306.96" y="-19.78" font-family="Helvetica,sans-Serif" font-size="10.00">1</text>
</a>
</g>
</g>
</g>
</svg>
