<?xml version="1.0" encoding="UTF-8" standalone="no"?>
<!DOCTYPE svg PUBLIC "-//W3C//DTD SVG 1.1//EN"
 "http://www.w3.org/Graphics/SVG/1.1/DTD/svg11.dtd">
<!-- Generated by graphviz version 9.0.0 (20230911.1827)
 -->
<!-- Title: /github/workspace/support Pages: 1 -->
<!--zoomable 107 -->

<svg id="main" version="1.1" xmlns="http://www.w3.org/2000/svg" xmlns:xlink="http://www.w3.org/1999/xlink" xml:space="preserve" onload="init(evt)">
<style type="text/css"><![CDATA[
.node, .edge {opacity: 0.7;}
.node.selected, .edge.selected {opacity: 1;}
.edge:hover path { stroke: red; }
.edge:hover polygon { stroke: red; fill: red; }
]]></style>

<defs>
  <circle id="rim" cx="0" cy="0" r="7"/>
  <circle id="rim2" cx="0" cy="0" r="3.5"/>
  <g id="zoomPlus">
    <use xlink:href="#rim" fill="#404040"><set attributeName="fill" to="#808080" begin="zoomplus.mouseover" end="zoomplus.mouseout"/></use>
    <path d="M-4,0h8M0,-4v8" fill="none" stroke="white" stroke-width="1.5" pointer-events="none"/>
  </g>
  <g id="zoomMin">
    <use xlink:href="#rim" fill="#404040"><set attributeName="fill" to="#808080" begin="zoomminus.mouseover" end="zoomminus.mouseout"/></use>
    <path d="M-4,0h8" fill="none" stroke="white" stroke-width="1.5" pointer-events="none"/>
  </g>
  <g id="arrowUp" transform="translate(30 24)">
    <use xlink:href="#rim"/>
    <path pointer-events="none" fill="none" stroke="white" stroke-width="1.5" d="M0,-3.0v7 M-2.5,-0.5L0,-3.0L2.5,-0.5"/>
  </g>
  <g id="arrowRight" transform="rotate(90) translate(36 -43)">
    <use xlink:href="#rim"/>
    <path pointer-events="none" fill="none" stroke="white" stroke-width="1.5" d="M0,-3.0v7 M-2.5,-0.5L0,-3.0L2.5,-0.5"/>
  </g>
  <g id="arrowDown" transform="rotate(180) translate(-30 -48)">
    <use xlink:href="#rim"/>
    <path pointer-events="none" fill="none" stroke="white" stroke-width="1.5" d="M0,-3.0v7 M-2.5,-0.5L0,-3.0L2.5,-0.5"/>
  </g>
  <g id="arrowLeft" transform="rotate(270) translate(-36 17)">
    <use xlink:href="#rim"/>
    <path pointer-events="none" fill="none" stroke="white" stroke-width="1.5" d="M0,-3.0v7 M-2.5,-0.5L0,-3.0L2.5,-0.5"/>
  </g>
  <g id="resetDef">
    <use xlink:href="#rim2" fill="#404040"><set attributeName="fill" to="#808080" begin="reset.mouseover" end="reset.mouseout"/></use>
  </g>
</defs>
<script type="application/ecmascript">
var viewWidth = 544;
var viewHeight = 107;
var sectionId = 'dynsection-0';
</script>
<script type="application/ecmascript" xlink:href="svg.min.js"/>
<svg id="graph" class="graph">
<g id="viewport">
<title>/github/workspace/support</title>
<g id="clust1" class="cluster">
<title>clusterdir_5815af820a9cc9481f1d0990a0d60286</title>
<g id="a_clust1"><a xlink:href="dir_5815af820a9cc9481f1d0990a0d60286.xhtml" target="_top">
<polygon fill="#edf6ed" stroke="#404040" stroke-width="2" points="8,-39.25 8,-90.5 528,-90.5 528,-39.25 8,-39.25"/>
</a>
</g>
</g>
<g id="clust4" class="cluster">
<title>clusterdir_39431477b87e8017262cc5952830cc45</title>
<g id="a_clust4"><a xlink:href="dir_39431477b87e8017262cc5952830cc45.xhtml" target="_top">
<polygon fill="#d6ebd6" stroke="#404040" points="393,-47.25 393,-82.5 520,-82.5 520,-47.25 393,-47.25"/>
</a>
</g>
</g>
<g id="clust2" class="cluster">
<title>clusterdir_b2f5a9b0c45dbeb1baf4e9d55733efbc</title>
<g id="a_clust2"><a xlink:href="dir_b2f5a9b0c45dbeb1baf4e9d55733efbc.xhtml" target="_top">
<polygon fill="#d6ebd6" stroke="#404040" points="258,-47.25 258,-82.5 385,-82.5 385,-47.25 258,-47.25"/>
</a>
</g>
</g>
<g id="clust3" class="cluster">
<title>clusterdir_f363eccae44c3be20d27623281005db7</title>
<g id="a_clust3"><a xlink:href="dir_f363eccae44c3be20d27623281005db7.xhtml" target="_top">
<polygon fill="#d6ebd6" stroke="#404040" points="130,-47.25 130,-82.5 250,-82.5 250,-47.25 130,-47.25"/>
</a>
</g>
</g>
<!-- dir_5815af820a9cc9481f1d0990a0d60286 -->
<g id="node1" class="node">
<title>dir_5815af820a9cc9481f1d0990a0d60286</title>
<text text-anchor="middle" x="96" y="-61" font-family="Helvetica,sans-Serif" font-size="10.00">support</text>
</g>
<!-- dir_b2f5a9b0c45dbeb1baf4e9d55733efbc -->
<g id="node2" class="node">
<title>dir_b2f5a9b0c45dbeb1baf4e9d55733efbc</title>
<text text-anchor="middle" x="357" y="-61" font-family="Helvetica,sans-Serif" font-size="10.00">eigen</text>
</g>
<!-- dir_7e92a10fa1b0fca219294b16abd4710c -->
<g id="node3" class="node">
<title>dir_7e92a10fa1b0fca219294b16abd4710c</title>
<g id="a_node3"><a xlink:href="dir_7e92a10fa1b0fca219294b16abd4710c.xhtml" target="_top" xlink:title="fcarouge">
<polygon fill="#bee0be" stroke="#404040" points="319.75,-74.5 266.25,-74.5 266.25,-55.25 319.75,-55.25 319.75,-74.5"/>
<text text-anchor="middle" x="293" y="-61" font-family="Helvetica,sans-Serif" font-size="10.00">fcarouge</text>
</a>
</g>
</g>
<!-- dir_d44c64559bbebec7f509842c48db8b23 -->
<g id="node9" class="node">
<title>dir_d44c64559bbebec7f509842c48db8b23</title>
<g id="a_node9"><a xlink:href="dir_d44c64559bbebec7f509842c48db8b23.xhtml" target="_top" xlink:title="include">
<polygon fill="#edf6ed" stroke="red" points="316.38,-19.25 269.62,-19.25 269.62,0 316.38,0 316.38,-19.25"/>
<text text-anchor="middle" x="293" y="-5.75" font-family="Helvetica,sans-Serif" font-size="10.00">include</text>
</a>
</g>
</g>
<!-- dir_7e92a10fa1b0fca219294b16abd4710c&#45;&gt;dir_d44c64559bbebec7f509842c48db8b23 -->
<g id="edge1" class="edge">
<title>dir_7e92a10fa1b0fca219294b16abd4710c&#45;&gt;dir_d44c64559bbebec7f509842c48db8b23</title>
<g id="a_edge1"><a xlink:href="dir_000004_000008.xhtml" target="_top">
<path fill="none" stroke="#63b8ff" d="M293,-55.08C293,-48.57 293,-39.42 293,-31.12"/>
<polygon fill="#63b8ff" stroke="#63b8ff" points="296.5,-31.12 293,-21.12 289.5,-31.12 296.5,-31.12"/>
</a>
</g>
<g id="a_edge1&#45;headlabel"><a xlink:href="dir_000004_000008.xhtml" target="_top" xlink:title="1">
<text text-anchor="middle" x="299.34" y="-29.33" font-family="Helvetica,sans-Serif" font-size="10.00" fill="#63b8ff">1</text>
</a>
</g>
</g>
<!-- dir_f363eccae44c3be20d27623281005db7 -->
<g id="node4" class="node">
<title>dir_f363eccae44c3be20d27623281005db7</title>
<text text-anchor="middle" x="226" y="-61" font-family="Helvetica,sans-Serif" font-size="10.00">lazy</text>
</g>
<!-- dir_be9d8d76351512e80436fb53ca2e56d8 -->
<g id="node5" class="node">
<title>dir_be9d8d76351512e80436fb53ca2e56d8</title>
<g id="a_node5"><a xlink:href="dir_be9d8d76351512e80436fb53ca2e56d8.xhtml" target="_top" xlink:title="fcarouge">
<polygon fill="#bee0be" stroke="#404040" points="191.75,-74.5 138.25,-74.5 138.25,-55.25 191.75,-55.25 191.75,-74.5"/>
<text text-anchor="middle" x="165" y="-61" font-family="Helvetica,sans-Serif" font-size="10.00">fcarouge</text>
</a>
</g>
</g>
<!-- dir_be9d8d76351512e80436fb53ca2e56d8&#45;&gt;dir_d44c64559bbebec7f509842c48db8b23 -->
<g id="edge2" class="edge">
<title>dir_be9d8d76351512e80436fb53ca2e56d8&#45;&gt;dir_d44c64559bbebec7f509842c48db8b23</title>
<g id="a_edge2"><a xlink:href="dir_000005_000008.xhtml" target="_top">
<path fill="none" stroke="#63b8ff" d="M176.14,-54.97C182.99,-49.82 192.14,-43.54 201,-39.25 219.16,-30.46 240.62,-23.6 258.25,-18.8"/>
<polygon fill="#63b8ff" stroke="#63b8ff" points="258.95,-22.24 267.74,-16.33 257.18,-15.46 258.95,-22.24"/>
</a>
</g>
<g id="a_edge2&#45;headlabel"><a xlink:href="dir_000005_000008.xhtml" target="_top" xlink:title="1">
<text text-anchor="middle" x="257.65" y="-21.64" font-family="Helvetica,sans-Serif" font-size="10.00" fill="#63b8ff">1</text>
</a>
</g>
</g>
<!-- dir_77010ae1c659866f3d80deb588daf66a -->
<g id="node6" class="node">
<title>dir_77010ae1c659866f3d80deb588daf66a</title>
<g id="a_node6"><a xlink:href="dir_77010ae1c659866f3d80deb588daf66a.xhtml" target="_top" xlink:title="main">
<polygon fill="#d6ebd6" stroke="#404040" points="53.5,-74.5 16.5,-74.5 16.5,-55.25 53.5,-55.25 53.5,-74.5"/>
<text text-anchor="middle" x="35" y="-61" font-family="Helvetica,sans-Serif" font-size="10.00">main</text>
</a>
</g>
</g>
<!-- dir_39431477b87e8017262cc5952830cc45 -->
<g id="node7" class="node">
<title>dir_39431477b87e8017262cc5952830cc45</title>
<text text-anchor="middle" x="492" y="-61" font-family="Helvetica,sans-Serif" font-size="10.00">naive</text>
</g>
<!-- dir_df0e3dd92e86a858066bbf68bf2b7fbd -->
<g id="node8" class="node">
<title>dir_df0e3dd92e86a858066bbf68bf2b7fbd</title>
<g id="a_node8"><a xlink:href="dir_df0e3dd92e86a858066bbf68bf2b7fbd.xhtml" target="_top" xlink:title="fcarouge">
<polygon fill="#bee0be" stroke="#404040" points="454.75,-74.5 401.25,-74.5 401.25,-55.25 454.75,-55.25 454.75,-74.5"/>
<text text-anchor="middle" x="428" y="-61" font-family="Helvetica,sans-Serif" font-size="10.00">fcarouge</text>
</a>
</g>
</g>
<!-- dir_df0e3dd92e86a858066bbf68bf2b7fbd&#45;&gt;dir_d44c64559bbebec7f509842c48db8b23 -->
<g id="edge3" class="edge">
<title>dir_df0e3dd92e86a858066bbf68bf2b7fbd&#45;&gt;dir_d44c64559bbebec7f509842c48db8b23</title>
<g id="a_edge3"><a xlink:href="dir_000006_000008.xhtml" target="_top">
<path fill="none" stroke="#63b8ff" d="M415.84,-54.98C408.39,-49.84 398.48,-43.56 389,-39.25 369.33,-30.31 346.15,-23.31 327.49,-18.47"/>
<polygon fill="#63b8ff" stroke="#63b8ff" points="328.55,-15.12 318,-16.1 326.85,-21.92 328.55,-15.12"/>
</a>
</g>
<g id="a_edge3&#45;headlabel"><a xlink:href="dir_000006_000008.xhtml" target="_top" xlink:title="1">
<text text-anchor="middle" x="331.26" y="-9" font-family="Helvetica,sans-Serif" font-size="10.00" fill="#63b8ff">1</text>
</a>
</g>
</g>
</g>
</svg>

<g id="navigator" transform="translate(0 0)" fill="#404254">
  <rect fill="#f2f5e9" fill-opacity="0.5" stroke="#606060" stroke-width=".5" x="0" y="0" width="60" height="60"/>
  <use id="zoomplus" xlink:href="#zoomPlus" x="17" y="9" onmousedown="handleZoom(evt,'in')"/>
  <use id="zoomminus" xlink:href="#zoomMin" x="42" y="9" onmousedown="handleZoom(evt,'out')"/>
  <use id="reset" xlink:href="#resetDef" x="30" y="36" onmousedown="handleReset()"/>
   <use id="arrowup" xlink:href="#arrowUp" x="0" y="0" onmousedown="handlePan(0,-1)"/>
  <use id="arrowright" xlink:href="#arrowRight" x="0" y="0" onmousedown="handlePan(1,0)"/>
  <use id="arrowdown" xlink:href="#arrowDown" x="0" y="0" onmousedown="handlePan(0,1)"/>
  <use id="arrowleft" xlink:href="#arrowLeft" x="0" y="0" onmousedown="handlePan(-1,0)"/>
</g>
<svg viewBox="0 0 15 15" width="100%" height="30px" preserveAspectRatio="xMaxYMin meet">
 <g id="arrow_out" transform="scale(0.3 0.3)">
  <a xlink:href="dir_5815af820a9cc9481f1d0990a0d60286_dep_org.svg" target="_base">
   <rect id="button" ry="5" rx="5" y="6" x="6" height="38" width="38"
        fill="#f2f5e9" fill-opacity="0.5" stroke="#606060" stroke-width="1.0"/>
   <path id="arrow"
     d="M 11.500037,31.436501 C 11.940474,20.09759 22.043105,11.32322 32.158766,21.979434 L 37.068811,17.246167 C 37.068811,17.246167 37.088388,32 37.088388,32 L 22.160133,31.978069 C 22.160133,31.978069 26.997745,27.140456 26.997745,27.140456 C 18.528582,18.264221 13.291696,25.230495 11.500037,31.436501 z"
     style="fill:#404040;"/>
  </a>
 </g>
</svg>

<style type='text/css'>
<![CDATA[
[data-mouse-over-selected='false'] { opacity: 0.7; }
[data-mouse-over-selected='true']  { opacity: 1.0; }
]]>
</style>
<script type="application/ecmascript"><![CDATA[
document.addEventListener('DOMContentLoaded', (event) => {
  highlightEdges();
  highlightAdjacentNodes();
});
]]></script>
</svg>
