<?xml version="1.0" encoding="UTF-8" standalone="no"?>
<!DOCTYPE svg PUBLIC "-//W3C//DTD SVG 1.1//EN"
 "http://www.w3.org/Graphics/SVG/1.1/DTD/svg11.dtd">
<!-- Generated by graphviz version 2.49.3 (20211027.1534)
 -->
<!-- Title: include/fcarouge/internal/eigen.hpp Pages: 1 -->
<!--zoomable 207 -->
<svg id="main" version="1.1" xmlns="http://www.w3.org/2000/svg" xmlns:xlink="http://www.w3.org/1999/xlink" xml:space="preserve" onload="init(evt)">
<style type="text/css"><![CDATA[
.edge:hover path { stroke: red; }
.edge:hover polygon { stroke: red; fill: red; }
]]></style>
<script type="text/javascript"><![CDATA[
var edges = document.getElementsByTagName('g');
if (edges && edges.length) {
  for (var i=0;i<edges.length;i++) {
    if (edges[i].id.substr(0,4)=='edge') {
      edges[i].setAttribute('class','edge');
    }
  }
}
]]></script>
        <defs>
                <circle id="rim" cx="0" cy="0" r="7"/>
                <circle id="rim2" cx="0" cy="0" r="3.5"/>
                <g id="zoomPlus">
                        <use xlink:href="#rim" fill="#404040">
                                <set attributeName="fill" to="#808080" begin="zoomplus.mouseover" end="zoomplus.mouseout"/>
                        </use>
                        <path d="M-4,0h8M0,-4v8" fill="none" stroke="white" stroke-width="1.5" pointer-events="none"/>
                </g>
                <g id="zoomMin">
                        <use xlink:href="#rim" fill="#404040">
                                <set attributeName="fill" to="#808080" begin="zoomminus.mouseover" end="zoomminus.mouseout"/>
                        </use>
                        <path d="M-4,0h8" fill="none" stroke="white" stroke-width="1.5" pointer-events="none"/>
                </g>
                <g id="dirArrow">
                        <path fill="none" stroke="white" stroke-width="1.5" d="M0,-3.0v7 M-2.5,-0.5L0,-3.0L2.5,-0.5"/>
                </g>
               <g id="resetDef">
                       <use xlink:href="#rim2" fill="#404040">
                               <set attributeName="fill" to="#808080" begin="reset.mouseover" end="reset.mouseout"/>
                       </use>
               </g>
        </defs>

<script type="text/javascript">
var viewWidth = 638;
var viewHeight = 207;
var sectionId = 'dynsection-0';
</script>
<script xlink:href="svgpan.js"/>
<svg id="graph" class="graph">
<g id="viewport">
<title>include/fcarouge/internal/eigen.hpp</title>
<polygon fill="white" stroke="transparent" points="-4,4 -4,-203 633.5,-203 633.5,4 -4,4"/>
<!-- Node1 -->
<g id="node1" class="node">
<title>Node1</title>
<g id="a_node1"><a xlink:title="Kalman operation for Eigen 3 types.">
<polygon fill="#bfbfbf" stroke="black" points="386,-168.5 386,-198.5 508,-198.5 508,-168.5 386,-168.5"/>
<text text-anchor="start" x="394" y="-186.5" font-family="Helvetica,sans-Serif" font-size="10.00">include/fcarouge/internal</text>
<text text-anchor="middle" x="447" y="-175.5" font-family="Helvetica,sans-Serif" font-size="10.00">/eigen.hpp</text>
</a>
</g>
</g>
<!-- Node2 -->
<g id="node2" class="node">
<title>Node2</title>
<g id="a_node2"><a xlink:href="kalman_8hpp.xhtml" target="_top" xlink:title="The main Kalman filter class.">
<polygon fill="white" stroke="black" points="221.5,-112.5 221.5,-131.5 328.5,-131.5 328.5,-112.5 221.5,-112.5"/>
<text text-anchor="middle" x="275" y="-119.5" font-family="Helvetica,sans-Serif" font-size="10.00">fcarouge/kalman.hpp</text>
</a>
</g>
</g>
<!-- Node1&#45;&gt;Node2 -->
<g id="edge1" class="edge">
<title>Node1&#45;&gt;Node2</title>
<path fill="none" stroke="midnightblue" d="M406.24,-168.4C376.78,-158.21 337.41,-144.59 309.5,-134.93"/>
<polygon fill="midnightblue" stroke="midnightblue" points="310.37,-131.53 299.78,-131.57 308.09,-138.15 310.37,-131.53"/>
</g>
<!-- Node6 -->
<g id="node6" class="node">
<title>Node6</title>
<g id="a_node6"><a xlink:title=" ">
<polygon fill="white" stroke="#bfbfbf" points="109.5,-0.5 109.5,-19.5 168.5,-19.5 168.5,-0.5 109.5,-0.5"/>
<text text-anchor="middle" x="139" y="-7.5" font-family="Helvetica,sans-Serif" font-size="10.00">functional</text>
</a>
</g>
</g>
<!-- Node1&#45;&gt;Node6 -->
<g id="edge14" class="edge">
<title>Node1&#45;&gt;Node6</title>
<path fill="none" stroke="midnightblue" d="M385.58,-177.07C275.11,-165.89 50.07,-136.12 4,-76 -1.4,-68.94 -1.19,-63.21 4,-56 15.34,-40.27 63.55,-26.91 99.14,-18.93"/>
<polygon fill="midnightblue" stroke="midnightblue" points="100.23,-22.27 109.26,-16.72 98.75,-15.43 100.23,-22.27"/>
</g>
<!-- Node7 -->
<g id="node7" class="node">
<title>Node7</title>
<g id="a_node7"><a xlink:title=" ">
<polygon fill="white" stroke="#bfbfbf" points="323,-0.5 323,-19.5 385,-19.5 385,-0.5 323,-0.5"/>
<text text-anchor="middle" x="354" y="-7.5" font-family="Helvetica,sans-Serif" font-size="10.00">type_traits</text>
</a>
</g>
</g>
<!-- Node1&#45;&gt;Node7 -->
<g id="edge15" class="edge">
<title>Node1&#45;&gt;Node7</title>
<path fill="none" stroke="midnightblue" d="M451.53,-168.27C458.55,-143.36 469.05,-91.17 447,-56 435.51,-37.67 414.2,-26.62 394.88,-20.07"/>
<polygon fill="midnightblue" stroke="midnightblue" points="395.9,-16.72 385.31,-17.11 393.83,-23.41 395.9,-16.72"/>
</g>
<!-- Node8 -->
<g id="node8" class="node">
<title>Node8</title>
<g id="a_node8"><a xlink:title=" ">
<polygon fill="white" stroke="#bfbfbf" points="382,-56.5 382,-75.5 438,-75.5 438,-56.5 382,-56.5"/>
<text text-anchor="middle" x="410" y="-63.5" font-family="Helvetica,sans-Serif" font-size="10.00">concepts</text>
</a>
</g>
</g>
<!-- Node1&#45;&gt;Node8 -->
<g id="edge12" class="edge">
<title>Node1&#45;&gt;Node8</title>
<path fill="none" stroke="midnightblue" d="M442.47,-168.34C435.77,-147.43 423.24,-108.31 415.86,-85.27"/>
<polygon fill="midnightblue" stroke="midnightblue" points="419.16,-84.12 412.78,-75.67 412.5,-86.26 419.16,-84.12"/>
</g>
<!-- Node10 -->
<g id="node10" class="node">
<title>Node10</title>
<g id="a_node10"><a xlink:title=" ">
<polygon fill="white" stroke="#bfbfbf" points="494,-112.5 494,-131.5 562,-131.5 562,-112.5 494,-112.5"/>
<text text-anchor="middle" x="528" y="-119.5" font-family="Helvetica,sans-Serif" font-size="10.00">Eigen/Eigen</text>
</a>
</g>
</g>
<!-- Node1&#45;&gt;Node10 -->
<g id="edge11" class="edge">
<title>Node1&#45;&gt;Node10</title>
<path fill="none" stroke="midnightblue" d="M466.2,-168.4C478.82,-159.13 495.3,-147.03 508.06,-137.65"/>
<polygon fill="midnightblue" stroke="midnightblue" points="510.23,-140.4 516.22,-131.66 506.09,-134.76 510.23,-140.4"/>
</g>
<!-- Node11 -->
<g id="node11" class="node">
<title>Node11</title>
<g id="a_node11"><a xlink:title=" ">
<polygon fill="white" stroke="#bfbfbf" points="580.5,-112.5 580.5,-131.5 629.5,-131.5 629.5,-112.5 580.5,-112.5"/>
<text text-anchor="middle" x="605" y="-119.5" font-family="Helvetica,sans-Serif" font-size="10.00">cstddef</text>
</a>
</g>
</g>
<!-- Node1&#45;&gt;Node11 -->
<g id="edge13" class="edge">
<title>Node1&#45;&gt;Node11</title>
<path fill="none" stroke="midnightblue" d="M484.45,-168.4C511.19,-158.33 546.82,-144.91 572.4,-135.28"/>
<polygon fill="midnightblue" stroke="midnightblue" points="573.89,-138.46 582.01,-131.66 571.42,-131.91 573.89,-138.46"/>
</g>
<!-- Node3 -->
<g id="node3" class="node">
<title>Node3</title>
<g id="a_node3"><a xlink:href="format_8hpp.xhtml" target="_top" xlink:title=" ">
<polygon fill="white" stroke="black" points="13.5,-56.5 13.5,-75.5 110.5,-75.5 110.5,-56.5 13.5,-56.5"/>
<text text-anchor="middle" x="62" y="-63.5" font-family="Helvetica,sans-Serif" font-size="10.00">internal/format.hpp</text>
</a>
</g>
</g>
<!-- Node2&#45;&gt;Node3 -->
<g id="edge2" class="edge">
<title>Node2&#45;&gt;Node3</title>
<path fill="none" stroke="midnightblue" d="M241.25,-112.44C204.48,-103.12 145.56,-88.18 105.38,-78"/>
<polygon fill="midnightblue" stroke="midnightblue" points="106.15,-74.58 95.6,-75.52 104.43,-81.37 106.15,-74.58"/>
</g>
<!-- Node5 -->
<g id="node5" class="node">
<title>Node5</title>
<g id="a_node5"><a xlink:href="internal_2kalman_8hpp.xhtml" target="_top" xlink:title=" ">
<polygon fill="white" stroke="black" points="224.5,-56.5 224.5,-75.5 325.5,-75.5 325.5,-56.5 224.5,-56.5"/>
<text text-anchor="middle" x="275" y="-63.5" font-family="Helvetica,sans-Serif" font-size="10.00">internal/kalman.hpp</text>
</a>
</g>
</g>
<!-- Node2&#45;&gt;Node5 -->
<g id="edge4" class="edge">
<title>Node2&#45;&gt;Node5</title>
<path fill="none" stroke="midnightblue" d="M275,-112.08C275,-105.01 275,-94.86 275,-85.99"/>
<polygon fill="midnightblue" stroke="midnightblue" points="278.5,-85.75 275,-75.75 271.5,-85.75 278.5,-85.75"/>
</g>
<!-- Node2&#45;&gt;Node6 -->
<g id="edge8" class="edge">
<title>Node2&#45;&gt;Node6</title>
<path fill="none" stroke="midnightblue" d="M225.12,-112.42C201.83,-106.03 175.47,-94.97 158,-76 146.44,-63.44 141.88,-44.22 140.1,-29.93"/>
<polygon fill="midnightblue" stroke="midnightblue" points="143.57,-29.4 139.19,-19.76 136.6,-30.03 143.57,-29.4"/>
</g>
<!-- Node2&#45;&gt;Node7 -->
<g id="edge9" class="edge">
<title>Node2&#45;&gt;Node7</title>
<path fill="none" stroke="midnightblue" d="M291.9,-112.35C305.44,-104.58 323.95,-91.95 335,-76 344.52,-62.26 349.33,-43.73 351.72,-29.97"/>
<polygon fill="midnightblue" stroke="midnightblue" points="355.23,-30.15 353.21,-19.74 348.31,-29.13 355.23,-30.15"/>
</g>
<!-- Node2&#45;&gt;Node8 -->
<g id="edge7" class="edge">
<title>Node2&#45;&gt;Node8</title>
<path fill="none" stroke="midnightblue" d="M296.39,-112.44C318.71,-103.52 353.91,-89.44 379.21,-79.32"/>
<polygon fill="midnightblue" stroke="midnightblue" points="380.73,-82.48 388.71,-75.52 378.13,-75.98 380.73,-82.48"/>
</g>
<!-- Node9 -->
<g id="node9" class="node">
<title>Node9</title>
<g id="a_node9"><a xlink:title=" ">
<polygon fill="white" stroke="#bfbfbf" points="167.5,-56.5 167.5,-75.5 206.5,-75.5 206.5,-56.5 167.5,-56.5"/>
<text text-anchor="middle" x="187" y="-63.5" font-family="Helvetica,sans-Serif" font-size="10.00">utility</text>
</a>
</g>
</g>
<!-- Node2&#45;&gt;Node9 -->
<g id="edge10" class="edge">
<title>Node2&#45;&gt;Node9</title>
<path fill="none" stroke="midnightblue" d="M260.86,-112.32C247.14,-103.9 226.07,-90.97 209.94,-81.07"/>
<polygon fill="midnightblue" stroke="midnightblue" points="211.46,-77.9 201.11,-75.65 207.8,-83.87 211.46,-77.9"/>
</g>
<!-- Node4 -->
<g id="node4" class="node">
<title>Node4</title>
<g id="a_node4"><a xlink:title=" ">
<polygon fill="white" stroke="#bfbfbf" points="40,-0.5 40,-19.5 84,-19.5 84,-0.5 40,-0.5"/>
<text text-anchor="middle" x="62" y="-7.5" font-family="Helvetica,sans-Serif" font-size="10.00">format</text>
</a>
</g>
</g>
<!-- Node3&#45;&gt;Node4 -->
<g id="edge3" class="edge">
<title>Node3&#45;&gt;Node4</title>
<path fill="none" stroke="midnightblue" d="M62,-56.08C62,-49.01 62,-38.86 62,-29.99"/>
<polygon fill="midnightblue" stroke="midnightblue" points="65.5,-29.75 62,-19.75 58.5,-29.75 65.5,-29.75"/>
</g>
<!-- Node5&#45;&gt;Node6 -->
<g id="edge5" class="edge">
<title>Node5&#45;&gt;Node6</title>
<path fill="none" stroke="midnightblue" d="M253.45,-56.44C230.97,-47.52 195.52,-33.44 170.02,-23.32"/>
<polygon fill="midnightblue" stroke="midnightblue" points="171.04,-19.95 160.45,-19.52 168.45,-26.46 171.04,-19.95"/>
</g>
<!-- Node5&#45;&gt;Node7 -->
<g id="edge6" class="edge">
<title>Node5&#45;&gt;Node7</title>
<path fill="none" stroke="midnightblue" d="M287.7,-56.32C299.9,-47.98 318.58,-35.21 333.01,-25.35"/>
<polygon fill="midnightblue" stroke="midnightblue" points="335.06,-28.19 341.34,-19.65 331.11,-22.41 335.06,-28.19"/>
</g>
</g>
</svg>
        <g id="navigator" transform="translate(0 0)" fill="#404254">
                <rect fill="#f2f5e9" fill-opacity="0.5" stroke="#606060" stroke-width=".5" x="0" y="0" width="60" height="60"/>
                <use id="zoomplus" xlink:href="#zoomPlus" x="17" y="9" onmousedown="handleZoom(evt,'in')"/>
                <use id="zoomminus" xlink:href="#zoomMin" x="42" y="9" onmousedown="handleZoom(evt,'out')"/>
                <use id="reset" xlink:href="#resetDef" x="30" y="36" onmousedown="handleReset()"/>
                <g id="arrowUp" xlink:href="#dirArrow" transform="translate(30 24)" onmousedown="handlePan(0,-1)">
                  <use xlink:href="#rim" fill="#404040">
                        <set attributeName="fill" to="#808080" begin="arrowUp.mouseover" end="arrowUp.mouseout"/>
                  </use>
                  <path fill="none" stroke="white" stroke-width="1.5" d="M0,-3.0v7 M-2.5,-0.5L0,-3.0L2.5,-0.5"/>
                </g>
                <g id="arrowRight" xlink:href="#dirArrow" transform="rotate(90) translate(36 -43)" onmousedown="handlePan(1,0)">
                  <use xlink:href="#rim" fill="#404040">
                        <set attributeName="fill" to="#808080" begin="arrowRight.mouseover" end="arrowRight.mouseout"/>
                  </use>
                  <path fill="none" stroke="white" stroke-width="1.5" d="M0,-3.0v7 M-2.5,-0.5L0,-3.0L2.5,-0.5"/>
                </g>
                <g id="arrowDown" xlink:href="#dirArrow" transform="rotate(180) translate(-30 -48)" onmousedown="handlePan(0,1)">
                  <use xlink:href="#rim" fill="#404040">
                        <set attributeName="fill" to="#808080" begin="arrowDown.mouseover" end="arrowDown.mouseout"/>
                  </use>
                  <path fill="none" stroke="white" stroke-width="1.5" d="M0,-3.0v7 M-2.5,-0.5L0,-3.0L2.5,-0.5"/>
                </g>
                <g id="arrowLeft" xlink:href="#dirArrow" transform="rotate(270) translate(-36 17)" onmousedown="handlePan(-1,0)">
                  <use xlink:href="#rim" fill="#404040">
                        <set attributeName="fill" to="#808080" begin="arrowLeft.mouseover" end="arrowLeft.mouseout"/>
                  </use>
                  <path fill="none" stroke="white" stroke-width="1.5" d="M0,-3.0v7 M-2.5,-0.5L0,-3.0L2.5,-0.5"/>
                </g>
        </g>
        <svg viewBox="0 0 15 15" width="100%" height="30px" preserveAspectRatio="xMaxYMin meet">
         <g id="arrow_out" transform="scale(0.3 0.3)">
          <a xlink:href="eigen_8hpp__incl_org.svg" target="_base">
           <rect id="button" ry="5" rx="5" y="6" x="6" height="38" width="38"
                fill="#f2f5e9" fill-opacity="0.5" stroke="#606060" stroke-width="1.0"/>
           <path id="arrow"
             d="M 11.500037,31.436501 C 11.940474,20.09759 22.043105,11.32322 32.158766,21.979434 L 37.068811,17.246167 C 37.068811,17.246167 37.088388,32 37.088388,32 L 22.160133,31.978069 C 22.160133,31.978069 26.997745,27.140456 26.997745,27.140456 C 18.528582,18.264221 13.291696,25.230495 11.500037,31.436501 z"
             style="fill:#404040;"/>
          </a>
         </g>
        </svg>
</svg>
