<?xml version="1.0" encoding="UTF-8" standalone="no"?>
<!DOCTYPE svg PUBLIC "-//W3C//DTD SVG 1.1//EN"
 "http://www.w3.org/Graphics/SVG/1.1/DTD/svg11.dtd">
<!-- Generated by graphviz version 3.0.0 (20221109.1736)
 -->
<!-- Title: /github/workspace/benchmark/eigen_predict_x1x.cpp Pages: 1 -->
<!--zoomable 263 -->
<svg id="main" version="1.1" xmlns="http://www.w3.org/2000/svg" xmlns:xlink="http://www.w3.org/1999/xlink" xml:space="preserve" onload="init(evt)">
<style type="text/css"><![CDATA[
.edge:hover path { stroke: red; }
.edge:hover polygon { stroke: red; fill: red; }
]]></style>
<script type="text/javascript"><![CDATA[
var edges = document.getElementsByTagName('g');
if (edges && edges.length) {
  for (var i=0;i<edges.length;i++) {
    if (edges[i].id.substr(0,4)=='edge') {
      edges[i].setAttribute('class','edge');
    }
  }
}
]]></script>
        <defs>
                <circle id="rim" cx="0" cy="0" r="7"/>
                <circle id="rim2" cx="0" cy="0" r="3.5"/>
                <g id="zoomPlus">
                        <use xlink:href="#rim" fill="#404040">
                                <set attributeName="fill" to="#808080" begin="zoomplus.mouseover" end="zoomplus.mouseout"/>
                        </use>
                        <path d="M-4,0h8M0,-4v8" fill="none" stroke="white" stroke-width="1.5" pointer-events="none"/>
                </g>
                <g id="zoomMin">
                        <use xlink:href="#rim" fill="#404040">
                                <set attributeName="fill" to="#808080" begin="zoomminus.mouseover" end="zoomminus.mouseout"/>
                        </use>
                        <path d="M-4,0h8" fill="none" stroke="white" stroke-width="1.5" pointer-events="none"/>
                </g>
                <g id="dirArrow">
                        <path fill="none" stroke="white" stroke-width="1.5" d="M0,-3.0v7 M-2.5,-0.5L0,-3.0L2.5,-0.5"/>
                </g>
               <g id="resetDef">
                       <use xlink:href="#rim2" fill="#404040">
                               <set attributeName="fill" to="#808080" begin="reset.mouseover" end="reset.mouseout"/>
                       </use>
               </g>
        </defs>

<script type="text/javascript">
var viewWidth = 1317;
var viewHeight = 263;
var sectionId = 'dynsection-0';
</script>
<script xlink:href="svgpan.js"/>
<svg id="graph" class="graph">
<g id="viewport">
<title>/github/workspace/benchmark/eigen_predict_x1x.cpp</title>
<polygon fill="white" stroke="transparent" points="-4,4 -4,-259 1312.5,-259 1312.5,4 -4,4"/>
<!-- Node1 -->
<g id="node1" class="node">
<title>Node1</title>
<g id="a_node1"><a xlink:title=" ">
<polygon fill="#bfbfbf" stroke="black" points="784.5,-224.5 784.5,-254.5 931.5,-254.5 931.5,-224.5 784.5,-224.5"/>
<text text-anchor="start" x="792.5" y="-242.5" font-family="Helvetica,sans-Serif" font-size="10.00">/github/workspace/benchmark</text>
<text text-anchor="middle" x="858" y="-231.5" font-family="Helvetica,sans-Serif" font-size="10.00">/eigen_predict_x1x.cpp</text>
</a>
</g>
</g>
<!-- Node2 -->
<g id="node2" class="node">
<title>Node2</title>
<g id="a_node2"><a xlink:href="benchmark_8hpp.xhtml" target="_top" xlink:title="Benchmarking support.">
<polygon fill="white" stroke="black" points="51.5,-168.5 51.5,-187.5 134.5,-187.5 134.5,-168.5 51.5,-168.5"/>
<text text-anchor="middle" x="93" y="-175.5" font-family="Helvetica,sans-Serif" font-size="10.00">benchmark.hpp</text>
</a>
</g>
</g>
<!-- Node1&#45;&gt;Node2 -->
<g id="edge1" class="edge">
<title>Node1&#45;&gt;Node2</title>
<path fill="none" stroke="midnightblue" d="M784.3,-232.77C630.44,-220.8 278.33,-193.41 145.25,-183.06"/>
<polygon fill="midnightblue" stroke="midnightblue" points="145.16,-179.55 134.92,-182.26 144.62,-186.53 145.16,-179.55"/>
</g>
<!-- Node3 -->
<g id="node3" class="node">
<title>Node3</title>
<g id="a_node3"><a xlink:title=" ">
<polygon fill="white" stroke="#bfbfbf" points="0,-112.5 0,-131.5 46,-131.5 46,-112.5 0,-112.5"/>
<text text-anchor="middle" x="23" y="-119.5" font-family="Helvetica,sans-Serif" font-size="10.00">chrono</text>
</a>
</g>
</g>
<!-- Node1&#45;&gt;Node3 -->
<g id="edge28" class="edge">
<title>Node1&#45;&gt;Node3</title>
<path fill="none" stroke="midnightblue" d="M784.35,-238.7C594.48,-238.54 99.21,-233.71 42,-188 28.39,-177.12 24.17,-157.05 23.03,-142.08"/>
<polygon fill="midnightblue" stroke="midnightblue" points="26.52,-141.73 22.65,-131.86 19.52,-141.98 26.52,-141.73"/>
</g>
<!-- Node5 -->
<g id="node5" class="node">
<title>Node5</title>
<g id="a_node5"><a xlink:href="internal_2utility_8hpp.xhtml" target="_top" xlink:title=" ">
<polygon fill="white" stroke="black" points="286,-56.5 286,-75.5 418,-75.5 418,-56.5 286,-56.5"/>
<text text-anchor="middle" x="352" y="-63.5" font-family="Helvetica,sans-Serif" font-size="10.00">fcarouge/internal/utility.hpp</text>
</a>
</g>
</g>
<!-- Node1&#45;&gt;Node5 -->
<g id="edge4" class="edge">
<title>Node1&#45;&gt;Node5</title>
<path fill="none" stroke="midnightblue" d="M784.16,-235.51C702.58,-230.77 567.94,-218.65 456,-188 395.72,-171.49 361.29,-184.26 327,-132 317.1,-116.91 327.25,-97.31 337.43,-83.6"/>
<polygon fill="midnightblue" stroke="midnightblue" points="340.37,-85.53 343.92,-75.54 334.92,-81.14 340.37,-85.53"/>
</g>
<!-- Node7 -->
<g id="node7" class="node">
<title>Node7</title>
<g id="a_node7"><a xlink:href="kalman_8hpp.xhtml" target="_top" xlink:title="The Kalman filter class and library top&#45;level header.">
<polygon fill="white" stroke="black" points="464.5,-168.5 464.5,-187.5 571.5,-187.5 571.5,-168.5 464.5,-168.5"/>
<text text-anchor="middle" x="518" y="-175.5" font-family="Helvetica,sans-Serif" font-size="10.00">fcarouge/kalman.hpp</text>
</a>
</g>
</g>
<!-- Node1&#45;&gt;Node7 -->
<g id="edge7" class="edge">
<title>Node1&#45;&gt;Node7</title>
<path fill="none" stroke="midnightblue" d="M784.23,-225.59C722.04,-214.71 634.25,-199.34 576.74,-189.28"/>
<polygon fill="midnightblue" stroke="midnightblue" points="577.18,-185.8 566.72,-187.53 575.97,-192.7 577.18,-185.8"/>
</g>
<!-- Node10 -->
<g id="node10" class="node">
<title>Node10</title>
<g id="a_node10"><a xlink:title=" ">
<polygon fill="white" stroke="#bfbfbf" points="816.5,-56.5 816.5,-75.5 865.5,-75.5 865.5,-56.5 816.5,-56.5"/>
<text text-anchor="middle" x="841" y="-63.5" font-family="Helvetica,sans-Serif" font-size="10.00">cstddef</text>
</a>
</g>
</g>
<!-- Node1&#45;&gt;Node10 -->
<g id="edge30" class="edge">
<title>Node1&#45;&gt;Node10</title>
<path fill="none" stroke="midnightblue" d="M805.31,-224.45C787.09,-216.79 768.6,-205.23 758,-188 727.48,-138.39 822.7,-161.27 842,-132 850.92,-118.47 849.52,-99.66 846.57,-85.76"/>
<polygon fill="midnightblue" stroke="midnightblue" points="849.9,-84.68 844.04,-75.86 843.12,-86.41 849.9,-84.68"/>
</g>
<!-- Node18 -->
<g id="node18" class="node">
<title>Node18</title>
<g id="a_node18"><a xlink:title=" ">
<polygon fill="white" stroke="#bfbfbf" points="767,-168.5 767,-187.5 835,-187.5 835,-168.5 767,-168.5"/>
<text text-anchor="middle" x="801" y="-175.5" font-family="Helvetica,sans-Serif" font-size="10.00">Eigen/Eigen</text>
</a>
</g>
</g>
<!-- Node1&#45;&gt;Node18 -->
<g id="edge25" class="edge">
<title>Node1&#45;&gt;Node18</title>
<path fill="none" stroke="midnightblue" d="M844.49,-224.4C836.04,-215.58 825.12,-204.18 816.34,-195.02"/>
<polygon fill="midnightblue" stroke="midnightblue" points="818.74,-192.46 809.29,-187.66 813.68,-197.3 818.74,-192.46"/>
</g>
<!-- Node19 -->
<g id="node19" class="node">
<title>Node19</title>
<g id="a_node19"><a xlink:title=" ">
<polygon fill="white" stroke="#bfbfbf" points="853.5,-168.5 853.5,-187.5 976.5,-187.5 976.5,-168.5 853.5,-168.5"/>
<text text-anchor="middle" x="915" y="-175.5" font-family="Helvetica,sans-Serif" font-size="10.00">benchmark/benchmark.h</text>
</a>
</g>
</g>
<!-- Node1&#45;&gt;Node19 -->
<g id="edge26" class="edge">
<title>Node1&#45;&gt;Node19</title>
<path fill="none" stroke="midnightblue" d="M871.51,-224.4C879.96,-215.58 890.88,-204.18 899.66,-195.02"/>
<polygon fill="midnightblue" stroke="midnightblue" points="902.32,-197.3 906.71,-187.66 897.26,-192.46 902.32,-197.3"/>
</g>
<!-- Node20 -->
<g id="node20" class="node">
<title>Node20</title>
<g id="a_node20"><a xlink:title=" ">
<polygon fill="white" stroke="#bfbfbf" points="995,-168.5 995,-187.5 1051,-187.5 1051,-168.5 995,-168.5"/>
<text text-anchor="middle" x="1023" y="-175.5" font-family="Helvetica,sans-Serif" font-size="10.00">algorithm</text>
</a>
</g>
</g>
<!-- Node1&#45;&gt;Node20 -->
<g id="edge27" class="edge">
<title>Node1&#45;&gt;Node20</title>
<path fill="none" stroke="midnightblue" d="M897.1,-224.4C925.16,-214.28 962.57,-200.79 989.31,-191.15"/>
<polygon fill="midnightblue" stroke="midnightblue" points="990.77,-194.34 998.99,-187.66 988.4,-187.76 990.77,-194.34"/>
</g>
<!-- Node21 -->
<g id="node21" class="node">
<title>Node21</title>
<g id="a_node21"><a xlink:title=" ">
<polygon fill="white" stroke="#bfbfbf" points="1069,-168.5 1069,-187.5 1113,-187.5 1113,-168.5 1069,-168.5"/>
<text text-anchor="middle" x="1091" y="-175.5" font-family="Helvetica,sans-Serif" font-size="10.00">cmath</text>
</a>
</g>
</g>
<!-- Node1&#45;&gt;Node21 -->
<g id="edge29" class="edge">
<title>Node1&#45;&gt;Node21</title>
<path fill="none" stroke="midnightblue" d="M916.49,-224.49C954.54,-215.24 1005.45,-202.59 1058.71,-188.28"/>
<polygon fill="midnightblue" stroke="midnightblue" points="1059.94,-191.58 1068.68,-185.59 1058.11,-184.82 1059.94,-191.58"/>
</g>
<!-- Node22 -->
<g id="node22" class="node">
<title>Node22</title>
<g id="a_node22"><a xlink:title=" ">
<polygon fill="white" stroke="#bfbfbf" points="1131,-168.5 1131,-187.5 1177,-187.5 1177,-168.5 1131,-168.5"/>
<text text-anchor="middle" x="1154" y="-175.5" font-family="Helvetica,sans-Serif" font-size="10.00">cstdint</text>
</a>
</g>
</g>
<!-- Node1&#45;&gt;Node22 -->
<g id="edge31" class="edge">
<title>Node1&#45;&gt;Node22</title>
<path fill="none" stroke="midnightblue" d="M931.76,-226.13C982.51,-217.21 1051.64,-204.27 1121.18,-188.04"/>
<polygon fill="midnightblue" stroke="midnightblue" points="1122.06,-191.43 1130.99,-185.72 1120.45,-184.61 1122.06,-191.43"/>
</g>
<!-- Node23 -->
<g id="node23" class="node">
<title>Node23</title>
<g id="a_node23"><a xlink:title=" ">
<polygon fill="white" stroke="#bfbfbf" points="1195,-168.5 1195,-187.5 1241,-187.5 1241,-168.5 1195,-168.5"/>
<text text-anchor="middle" x="1218" y="-175.5" font-family="Helvetica,sans-Serif" font-size="10.00">cstring</text>
</a>
</g>
</g>
<!-- Node1&#45;&gt;Node23 -->
<g id="edge32" class="edge">
<title>Node1&#45;&gt;Node23</title>
<path fill="none" stroke="midnightblue" d="M931.75,-229.75C996.25,-221.5 1092.57,-207.75 1184.88,-188.03"/>
<polygon fill="midnightblue" stroke="midnightblue" points="1185.63,-191.45 1194.66,-185.92 1184.15,-184.61 1185.63,-191.45"/>
</g>
<!-- Node24 -->
<g id="node24" class="node">
<title>Node24</title>
<g id="a_node24"><a xlink:title=" ">
<polygon fill="white" stroke="#bfbfbf" points="1259.5,-168.5 1259.5,-187.5 1308.5,-187.5 1308.5,-168.5 1259.5,-168.5"/>
<text text-anchor="middle" x="1284" y="-175.5" font-family="Helvetica,sans-Serif" font-size="10.00">random</text>
</a>
</g>
</g>
<!-- Node1&#45;&gt;Node24 -->
<g id="edge33" class="edge">
<title>Node1&#45;&gt;Node24</title>
<path fill="none" stroke="midnightblue" d="M931.79,-231.9C1008.69,-224.36 1132.8,-210.36 1249.06,-187.95"/>
<polygon fill="midnightblue" stroke="midnightblue" points="1250.06,-191.32 1259.2,-185.96 1248.72,-184.45 1250.06,-191.32"/>
</g>
<!-- Node2&#45;&gt;Node3 -->
<g id="edge2" class="edge">
<title>Node2&#45;&gt;Node3</title>
<path fill="none" stroke="midnightblue" d="M81.75,-168.32C71.2,-160.18 55.2,-147.84 42.56,-138.09"/>
<polygon fill="midnightblue" stroke="midnightblue" points="44.51,-135.17 34.45,-131.83 40.23,-140.71 44.51,-135.17"/>
</g>
<!-- Node4 -->
<g id="node4" class="node">
<title>Node4</title>
<g id="a_node4"><a xlink:title=" ">
<polygon fill="white" stroke="#bfbfbf" points="81,-0.5 81,-19.5 143,-19.5 143,-0.5 81,-0.5"/>
<text text-anchor="middle" x="112" y="-7.5" font-family="Helvetica,sans-Serif" font-size="10.00">type_traits</text>
</a>
</g>
</g>
<!-- Node2&#45;&gt;Node4 -->
<g id="edge3" class="edge">
<title>Node2&#45;&gt;Node4</title>
<path fill="none" stroke="midnightblue" d="M92.59,-168.41C91.82,-148.49 90.79,-97.64 98,-56 99.55,-47.03 102.4,-37.36 105.12,-29.29"/>
<polygon fill="midnightblue" stroke="midnightblue" points="108.45,-30.39 108.51,-19.8 101.85,-28.04 108.45,-30.39"/>
</g>
<!-- Node5&#45;&gt;Node4 -->
<g id="edge6" class="edge">
<title>Node5&#45;&gt;Node4</title>
<path fill="none" stroke="midnightblue" d="M313.97,-56.44C270.1,-46.57 198.24,-30.4 153.11,-20.25"/>
<polygon fill="midnightblue" stroke="midnightblue" points="153.87,-16.83 143.35,-18.05 152.34,-23.66 153.87,-16.83"/>
</g>
<!-- Node6 -->
<g id="node6" class="node">
<title>Node6</title>
<g id="a_node6"><a xlink:title=" ">
<polygon fill="white" stroke="#bfbfbf" points="445,-0.5 445,-19.5 501,-19.5 501,-0.5 445,-0.5"/>
<text text-anchor="middle" x="473" y="-7.5" font-family="Helvetica,sans-Serif" font-size="10.00">concepts</text>
</a>
</g>
</g>
<!-- Node5&#45;&gt;Node6 -->
<g id="edge5" class="edge">
<title>Node5&#45;&gt;Node6</title>
<path fill="none" stroke="midnightblue" d="M371.17,-56.44C390.91,-47.64 421.89,-33.81 444.49,-23.72"/>
<polygon fill="midnightblue" stroke="midnightblue" points="446.21,-26.79 453.92,-19.52 443.36,-20.4 446.21,-26.79"/>
</g>
<!-- Node7&#45;&gt;Node4 -->
<g id="edge22" class="edge">
<title>Node7&#45;&gt;Node4</title>
<path fill="none" stroke="midnightblue" d="M464.42,-176.45C376.33,-174.56 205.89,-166.41 158,-132 124.94,-108.25 115.63,-57.54 113.02,-29.9"/>
<polygon fill="midnightblue" stroke="midnightblue" points="116.49,-29.33 112.26,-19.62 109.51,-29.85 116.49,-29.33"/>
</g>
<!-- Node7&#45;&gt;Node6 -->
<g id="edge19" class="edge">
<title>Node7&#45;&gt;Node6</title>
<path fill="none" stroke="midnightblue" d="M536.39,-168.47C550.1,-161 567.81,-148.71 576,-132 579.91,-124.02 579.44,-120.2 576,-112 559.85,-73.54 521.12,-42.38 496.02,-25.29"/>
<polygon fill="midnightblue" stroke="midnightblue" points="497.74,-22.23 487.46,-19.65 493.88,-28.07 497.74,-22.23"/>
</g>
<!-- Node8 -->
<g id="node8" class="node">
<title>Node8</title>
<g id="a_node8"><a xlink:href="algorithm_8hpp.xhtml" target="_top" xlink:title="The collection of Kalman algorithms.">
<polygon fill="white" stroke="black" points="739,-112.5 739,-131.5 813,-131.5 813,-112.5 739,-112.5"/>
<text text-anchor="middle" x="776" y="-119.5" font-family="Helvetica,sans-Serif" font-size="10.00">algorithm.hpp</text>
</a>
</g>
</g>
<!-- Node7&#45;&gt;Node8 -->
<g id="edge8" class="edge">
<title>Node7&#45;&gt;Node8</title>
<path fill="none" stroke="midnightblue" d="M558.88,-168.44C605.04,-158.78 680.05,-143.08 728.7,-132.9"/>
<polygon fill="midnightblue" stroke="midnightblue" points="729.59,-136.29 738.66,-130.82 728.16,-129.44 729.59,-136.29"/>
</g>
<!-- Node9 -->
<g id="node9" class="node">
<title>Node9</title>
<g id="a_node9"><a xlink:href="format_8hpp.xhtml" target="_top" xlink:title=" ">
<polygon fill="white" stroke="black" points="623.5,-112.5 623.5,-131.5 720.5,-131.5 720.5,-112.5 623.5,-112.5"/>
<text text-anchor="middle" x="672" y="-119.5" font-family="Helvetica,sans-Serif" font-size="10.00">internal/format.hpp</text>
</a>
</g>
</g>
<!-- Node7&#45;&gt;Node9 -->
<g id="edge9" class="edge">
<title>Node7&#45;&gt;Node9</title>
<path fill="none" stroke="midnightblue" d="M542.4,-168.44C568.2,-159.4 609.08,-145.06 638.02,-134.92"/>
<polygon fill="midnightblue" stroke="midnightblue" points="639.43,-138.13 647.71,-131.52 637.12,-131.52 639.43,-138.13"/>
</g>
<!-- Node7&#45;&gt;Node10 -->
<g id="edge20" class="edge">
<title>Node7&#45;&gt;Node10</title>
<path fill="none" stroke="midnightblue" d="M571.61,-175.84C648.7,-173.08 785.59,-163.72 822,-132 835.14,-120.55 839.43,-100.57 840.72,-85.78"/>
<polygon fill="midnightblue" stroke="midnightblue" points="844.22,-85.86 841.21,-75.7 837.23,-85.52 844.22,-85.86"/>
</g>
<!-- Node12 -->
<g id="node12" class="node">
<title>Node12</title>
<g id="a_node12"><a xlink:href="internal_2kalman_8hpp.xhtml" target="_top" xlink:title=" ">
<polygon fill="white" stroke="black" points="178.5,-112.5 178.5,-131.5 279.5,-131.5 279.5,-112.5 178.5,-112.5"/>
<text text-anchor="middle" x="229" y="-119.5" font-family="Helvetica,sans-Serif" font-size="10.00">internal/kalman.hpp</text>
</a>
</g>
</g>
<!-- Node7&#45;&gt;Node12 -->
<g id="edge13" class="edge">
<title>Node7&#45;&gt;Node12</title>
<path fill="none" stroke="midnightblue" d="M472.21,-168.44C421.26,-158.92 338.97,-143.55 284.43,-133.36"/>
<polygon fill="midnightblue" stroke="midnightblue" points="285.05,-129.91 274.58,-131.52 283.77,-136.79 285.05,-129.91"/>
</g>
<!-- Node13 -->
<g id="node13" class="node">
<title>Node13</title>
<g id="a_node13"><a xlink:title=" ">
<polygon fill="white" stroke="#bfbfbf" points="140.5,-56.5 140.5,-75.5 199.5,-75.5 199.5,-56.5 140.5,-56.5"/>
<text text-anchor="middle" x="170" y="-63.5" font-family="Helvetica,sans-Serif" font-size="10.00">functional</text>
</a>
</g>
</g>
<!-- Node7&#45;&gt;Node13 -->
<g id="edge21" class="edge">
<title>Node7&#45;&gt;Node13</title>
<path fill="none" stroke="midnightblue" d="M464.19,-173.91C371.12,-168.02 188.16,-153.79 169,-132 158.07,-119.57 159.99,-100.06 163.62,-85.65"/>
<polygon fill="midnightblue" stroke="midnightblue" points="167.05,-86.42 166.55,-75.83 160.34,-84.41 167.05,-86.42"/>
</g>
<!-- Node15 -->
<g id="node15" class="node">
<title>Node15</title>
<g id="a_node15"><a xlink:href="utility_8hpp.xhtml" target="_top" xlink:title="The collection of utilities supporting the library.">
<polygon fill="white" stroke="black" points="336.5,-112.5 336.5,-131.5 393.5,-131.5 393.5,-112.5 336.5,-112.5"/>
<text text-anchor="middle" x="365" y="-119.5" font-family="Helvetica,sans-Serif" font-size="10.00">utility.hpp</text>
</a>
</g>
</g>
<!-- Node7&#45;&gt;Node15 -->
<g id="edge17" class="edge">
<title>Node7&#45;&gt;Node15</title>
<path fill="none" stroke="midnightblue" d="M493.76,-168.44C468.13,-159.4 427.51,-145.06 398.76,-134.92"/>
<polygon fill="midnightblue" stroke="midnightblue" points="399.72,-131.54 389.13,-131.52 397.39,-138.15 399.72,-131.54"/>
</g>
<!-- Node16 -->
<g id="node16" class="node">
<title>Node16</title>
<g id="a_node16"><a xlink:title=" ">
<polygon fill="white" stroke="#bfbfbf" points="411.5,-112.5 411.5,-131.5 450.5,-131.5 450.5,-112.5 411.5,-112.5"/>
<text text-anchor="middle" x="431" y="-119.5" font-family="Helvetica,sans-Serif" font-size="10.00">utility</text>
</a>
</g>
</g>
<!-- Node7&#45;&gt;Node16 -->
<g id="edge23" class="edge">
<title>Node7&#45;&gt;Node16</title>
<path fill="none" stroke="midnightblue" d="M504.02,-168.32C490.45,-159.9 469.62,-146.97 453.68,-137.07"/>
<polygon fill="midnightblue" stroke="midnightblue" points="455.29,-133.95 444.94,-131.65 451.59,-139.9 455.29,-133.95"/>
</g>
<!-- Node17 -->
<g id="node17" class="node">
<title>Node17</title>
<g id="a_node17"><a xlink:title=" ">
<polygon fill="white" stroke="#bfbfbf" points="469,-112.5 469,-131.5 567,-131.5 567,-112.5 469,-112.5"/>
<text text-anchor="middle" x="518" y="-119.5" font-family="Helvetica,sans-Serif" font-size="10.00">internal/kalman.tpp</text>
</a>
</g>
</g>
<!-- Node7&#45;&gt;Node17 -->
<g id="edge24" class="edge">
<title>Node7&#45;&gt;Node17</title>
<path fill="none" stroke="midnightblue" d="M518,-168.08C518,-161.01 518,-150.86 518,-141.99"/>
<polygon fill="midnightblue" stroke="midnightblue" points="521.5,-141.75 518,-131.75 514.5,-141.75 521.5,-141.75"/>
</g>
<!-- Node9&#45;&gt;Node5 -->
<g id="edge10" class="edge">
<title>Node9&#45;&gt;Node5</title>
<path fill="none" stroke="midnightblue" d="M623.4,-112.8C566.84,-103.25 473.41,-87.49 412.28,-77.17"/>
<polygon fill="midnightblue" stroke="midnightblue" points="412.82,-73.71 402.38,-75.5 411.66,-80.62 412.82,-73.71"/>
</g>
<!-- Node9&#45;&gt;Node10 -->
<g id="edge11" class="edge">
<title>Node9&#45;&gt;Node10</title>
<path fill="none" stroke="midnightblue" d="M698.78,-112.44C727.92,-103.13 774.61,-88.21 806.48,-78.03"/>
<polygon fill="midnightblue" stroke="midnightblue" points="807.81,-81.28 816.27,-74.9 805.68,-74.61 807.81,-81.28"/>
</g>
<!-- Node11 -->
<g id="node11" class="node">
<title>Node11</title>
<g id="a_node11"><a xlink:title=" ">
<polygon fill="white" stroke="#bfbfbf" points="650,-56.5 650,-75.5 694,-75.5 694,-56.5 650,-56.5"/>
<text text-anchor="middle" x="672" y="-63.5" font-family="Helvetica,sans-Serif" font-size="10.00">format</text>
</a>
</g>
</g>
<!-- Node9&#45;&gt;Node11 -->
<g id="edge12" class="edge">
<title>Node9&#45;&gt;Node11</title>
<path fill="none" stroke="midnightblue" d="M672,-112.08C672,-105.01 672,-94.86 672,-85.99"/>
<polygon fill="midnightblue" stroke="midnightblue" points="675.5,-85.75 672,-75.75 668.5,-85.75 675.5,-85.75"/>
</g>
<!-- Node12&#45;&gt;Node5 -->
<g id="edge14" class="edge">
<title>Node12&#45;&gt;Node5</title>
<path fill="none" stroke="midnightblue" d="M248.49,-112.44C268.64,-103.6 300.32,-89.69 323.33,-79.59"/>
<polygon fill="midnightblue" stroke="midnightblue" points="324.85,-82.74 332.6,-75.52 322.04,-76.33 324.85,-82.74"/>
</g>
<!-- Node12&#45;&gt;Node13 -->
<g id="edge15" class="edge">
<title>Node12&#45;&gt;Node13</title>
<path fill="none" stroke="midnightblue" d="M219.52,-112.32C210.8,-104.34 197.66,-92.31 187.1,-82.65"/>
<polygon fill="midnightblue" stroke="midnightblue" points="189.39,-80 179.65,-75.83 184.67,-85.17 189.39,-80"/>
</g>
<!-- Node14 -->
<g id="node14" class="node">
<title>Node14</title>
<g id="a_node14"><a xlink:title=" ">
<polygon fill="white" stroke="#bfbfbf" points="218,-56.5 218,-75.5 256,-75.5 256,-56.5 218,-56.5"/>
<text text-anchor="middle" x="237" y="-63.5" font-family="Helvetica,sans-Serif" font-size="10.00">tuple</text>
</a>
</g>
</g>
<!-- Node12&#45;&gt;Node14 -->
<g id="edge16" class="edge">
<title>Node12&#45;&gt;Node14</title>
<path fill="none" stroke="midnightblue" d="M230.32,-112.08C231.38,-104.93 232.91,-94.64 234.23,-85.69"/>
<polygon fill="midnightblue" stroke="midnightblue" points="237.7,-86.16 235.7,-75.75 230.78,-85.13 237.7,-86.16"/>
</g>
<!-- Node15&#45;&gt;Node5 -->
<g id="edge18" class="edge">
<title>Node15&#45;&gt;Node5</title>
<path fill="none" stroke="midnightblue" d="M362.85,-112.08C361.13,-104.93 358.65,-94.64 356.5,-85.69"/>
<polygon fill="midnightblue" stroke="midnightblue" points="359.85,-84.65 354.11,-75.75 353.04,-86.29 359.85,-84.65"/>
</g>
</g>
</svg>
        <g id="navigator" transform="translate(0 0)" fill="#404254">
                <rect fill="#f2f5e9" fill-opacity="0.5" stroke="#606060" stroke-width=".5" x="0" y="0" width="60" height="60"/>
                <use id="zoomplus" xlink:href="#zoomPlus" x="17" y="9" onmousedown="handleZoom(evt,'in')"/>
                <use id="zoomminus" xlink:href="#zoomMin" x="42" y="9" onmousedown="handleZoom(evt,'out')"/>
                <use id="reset" xlink:href="#resetDef" x="30" y="36" onmousedown="handleReset()"/>
                <g id="arrowUp" xlink:href="#dirArrow" transform="translate(30 24)" onmousedown="handlePan(0,-1)">
                  <use xlink:href="#rim" fill="#404040">
                        <set attributeName="fill" to="#808080" begin="arrowUp.mouseover" end="arrowUp.mouseout"/>
                  </use>
                  <path fill="none" stroke="white" stroke-width="1.5" d="M0,-3.0v7 M-2.5,-0.5L0,-3.0L2.5,-0.5"/>
                </g>
                <g id="arrowRight" xlink:href="#dirArrow" transform="rotate(90) translate(36 -43)" onmousedown="handlePan(1,0)">
                  <use xlink:href="#rim" fill="#404040">
                        <set attributeName="fill" to="#808080" begin="arrowRight.mouseover" end="arrowRight.mouseout"/>
                  </use>
                  <path fill="none" stroke="white" stroke-width="1.5" d="M0,-3.0v7 M-2.5,-0.5L0,-3.0L2.5,-0.5"/>
                </g>
                <g id="arrowDown" xlink:href="#dirArrow" transform="rotate(180) translate(-30 -48)" onmousedown="handlePan(0,1)">
                  <use xlink:href="#rim" fill="#404040">
                        <set attributeName="fill" to="#808080" begin="arrowDown.mouseover" end="arrowDown.mouseout"/>
                  </use>
                  <path fill="none" stroke="white" stroke-width="1.5" d="M0,-3.0v7 M-2.5,-0.5L0,-3.0L2.5,-0.5"/>
                </g>
                <g id="arrowLeft" xlink:href="#dirArrow" transform="rotate(270) translate(-36 17)" onmousedown="handlePan(-1,0)">
                  <use xlink:href="#rim" fill="#404040">
                        <set attributeName="fill" to="#808080" begin="arrowLeft.mouseover" end="arrowLeft.mouseout"/>
                  </use>
                  <path fill="none" stroke="white" stroke-width="1.5" d="M0,-3.0v7 M-2.5,-0.5L0,-3.0L2.5,-0.5"/>
                </g>
        </g>
        <svg viewBox="0 0 15 15" width="100%" height="30px" preserveAspectRatio="xMaxYMin meet">
         <g id="arrow_out" transform="scale(0.3 0.3)">
          <a xlink:href="eigen__predict__x1x_8cpp__incl_org.svg" target="_base">
           <rect id="button" ry="5" rx="5" y="6" x="6" height="38" width="38"
                fill="#f2f5e9" fill-opacity="0.5" stroke="#606060" stroke-width="1.0"/>
           <path id="arrow"
             d="M 11.500037,31.436501 C 11.940474,20.09759 22.043105,11.32322 32.158766,21.979434 L 37.068811,17.246167 C 37.068811,17.246167 37.088388,32 37.088388,32 L 22.160133,31.978069 C 22.160133,31.978069 26.997745,27.140456 26.997745,27.140456 C 18.528582,18.264221 13.291696,25.230495 11.500037,31.436501 z"
             style="fill:#404040;"/>
          </a>
         </g>
        </svg>
</svg>
