<?xml version="1.0" encoding="UTF-8" standalone="no"?>
<!DOCTYPE svg PUBLIC "-//W3C//DTD SVG 1.1//EN"
 "http://www.w3.org/Graphics/SVG/1.1/DTD/svg11.dtd">
<!-- Generated by graphviz version 12.2.0 (20241103.1931)
 -->
<!-- Title: /github/workspace/support/eigexed/fcarouge/linalg.hpp Pages: 1 -->
<!--zoomable 216 -->

<svg id="main" version="1.1" xmlns="http://www.w3.org/2000/svg" xmlns:xlink="http://www.w3.org/1999/xlink" xml:space="preserve" onload="init(evt)">

<style type="text/css"><![CDATA[
.node, .edge {opacity: 0.7;}
.node.selected, .edge.selected {opacity: 1;}
.edge:hover path { stroke: red; }
.edge:hover polygon { stroke: red; fill: red; }
]]></style>

<defs>
  <circle id="rim" cx="0" cy="0" r="7"/>
  <circle id="rim2" cx="0" cy="0" r="3.5"/>
  <g id="zoomPlus">
    <use xlink:href="#rim" fill="#404040"><set attributeName="fill" to="#808080" begin="zoomplus.mouseover" end="zoomplus.mouseout"/></use>
    <path d="M-4,0h8M0,-4v8" fill="none" stroke="white" stroke-width="1.5" pointer-events="none"/>
  </g>
  <g id="zoomMin">
    <use xlink:href="#rim" fill="#404040"><set attributeName="fill" to="#808080" begin="zoomminus.mouseover" end="zoomminus.mouseout"/></use>
    <path d="M-4,0h8" fill="none" stroke="white" stroke-width="1.5" pointer-events="none"/>
  </g>
  <g id="arrowUp" transform="translate(30 24)">
    <use xlink:href="#rim"/>
    <path pointer-events="none" fill="none" stroke="white" stroke-width="1.5" d="M0,-3.0v7 M-2.5,-0.5L0,-3.0L2.5,-0.5"/>
  </g>
  <g id="arrowRight" transform="rotate(90) translate(36 -43)">
    <use xlink:href="#rim"/>
    <path pointer-events="none" fill="none" stroke="white" stroke-width="1.5" d="M0,-3.0v7 M-2.5,-0.5L0,-3.0L2.5,-0.5"/>
  </g>
  <g id="arrowDown" transform="rotate(180) translate(-30 -48)">
    <use xlink:href="#rim"/>
    <path pointer-events="none" fill="none" stroke="white" stroke-width="1.5" d="M0,-3.0v7 M-2.5,-0.5L0,-3.0L2.5,-0.5"/>
  </g>
  <g id="arrowLeft" transform="rotate(270) translate(-36 17)">
    <use xlink:href="#rim"/>
    <path pointer-events="none" fill="none" stroke="white" stroke-width="1.5" d="M0,-3.0v7 M-2.5,-0.5L0,-3.0L2.5,-0.5"/>
  </g>
  <g id="resetDef">
    <use xlink:href="#rim2" fill="#404040"><set attributeName="fill" to="#808080" begin="reset.mouseover" end="reset.mouseout"/></use>
  </g>
</defs>
<script type="application/ecmascript">
var viewWidth = 566;
var viewHeight = 216;
var sectionId = 'dynsection-0';
</script>
<script type="application/ecmascript" xlink:href="svg.min.js"/>
<svg id="graph" class="graph">
<g id="viewport">
<title>/github/workspace/support/eigexed/fcarouge/linalg.hpp</title>
<!-- Node1 -->
<g id="Node000001" class="node">
<title>Node1</title>
<g id="a_Node000001"><a xlink:title="Scalar type indexed&#45;based linear algebra with Eigen implementation.">
<polygon fill="#999999" stroke="#666666" points="303.12,-207.5 167.12,-207.5 167.12,-177 303.12,-177 303.12,-207.5"/>
<text text-anchor="start" x="175.12" y="-194" font-family="Helvetica,sans-Serif" font-size="10.00">/github/workspace/support</text>
<text text-anchor="middle" x="235.12" y="-182.75" font-family="Helvetica,sans-Serif" font-size="10.00">/eigexed/fcarouge/linalg.hpp</text>
</a>
</g>
</g>
<!-- Node2 -->
<g id="Node000002" class="node">
<title>Node2</title>
<g id="a_Node000002"><a xlink:href="eigen_8hpp.xhtml" target="_top" xlink:title="Linear algebra facade for Eigen3 third party implementation.">
<polygon fill="white" stroke="#666666" points="431,-141 333.25,-141 333.25,-121.75 431,-121.75 431,-141"/>
<text text-anchor="middle" x="382.12" y="-127.5" font-family="Helvetica,sans-Serif" font-size="10.00">fcarouge/eigen.hpp</text>
</a>
</g>
</g>
<!-- Node1&#45;&gt;Node2 -->
<g id="edge1_Node000001_Node000002" class="edge">
<title>Node1&#45;&gt;Node2</title>
<g id="a_edge1_Node000001_Node000002"><a xlink:title=" ">
<path fill="none" stroke="#63b8ff" d="M271.84,-176.55C295.52,-167.06 326.06,-154.83 349,-145.64"/>
<polygon fill="#63b8ff" stroke="#63b8ff" points="350.19,-148.93 358.18,-141.97 347.59,-142.44 350.19,-148.93"/>
</a>
</g>
</g>
<!-- Node3 -->
<g id="Node000003" class="node">
<title>Node3</title>
<g id="a_Node000003"><a xlink:href="utility_8hpp.xhtml" target="_top" xlink:title=" ">
<polygon fill="white" stroke="#666666" points="342.5,-85.75 217.75,-85.75 217.75,-55.25 342.5,-55.25 342.5,-85.75"/>
<text text-anchor="start" x="225.75" y="-72.25" font-family="Helvetica,sans-Serif" font-size="10.00">fcarouge/kalman_internal</text>
<text text-anchor="middle" x="280.12" y="-61" font-family="Helvetica,sans-Serif" font-size="10.00">/utility.hpp</text>
</a>
</g>
</g>
<!-- Node1&#45;&gt;Node3 -->
<g id="edge18_Node000001_Node000003" class="edge">
<title>Node1&#45;&gt;Node3</title>
<g id="a_edge18_Node000001_Node000003"><a xlink:title=" ">
<path fill="none" stroke="#63b8ff" d="M240.64,-176.57C248.14,-156.62 261.65,-120.67 270.75,-96.45"/>
<polygon fill="#63b8ff" stroke="#63b8ff" points="273.93,-97.94 274.17,-87.35 267.38,-95.48 273.93,-97.94"/>
</a>
</g>
</g>
<!-- Node5 -->
<g id="Node000005" class="node">
<title>Node5</title>
<g id="a_Node000005"><a xlink:title=" ">
<polygon fill="#e0e0e0" stroke="#999999" points="48.25,-19.25 0,-19.25 0,0 48.25,0 48.25,-19.25"/>
<text text-anchor="middle" x="24.12" y="-5.75" font-family="Helvetica,sans-Serif" font-size="10.00">cstddef</text>
</a>
</g>
</g>
<!-- Node1&#45;&gt;Node5 -->
<g id="edge19_Node000001_Node000005" class="edge">
<title>Node1&#45;&gt;Node5</title>
<g id="a_edge19_Node000001_Node000005"><a xlink:title=" ">
<path fill="none" stroke="#63b8ff" d="M166.69,-177.4C117.38,-163.41 54.41,-136.36 24.12,-85.75 14.2,-69.16 15.77,-46.6 18.85,-30.54"/>
<polygon fill="#63b8ff" stroke="#63b8ff" points="22.16,-31.74 20.99,-21.21 15.34,-30.17 22.16,-31.74"/>
</a>
</g>
</g>
<!-- Node12 -->
<g id="Node000012" class="node">
<title>Node12</title>
<g id="a_Node000012"><a xlink:href="indexed_8hpp.xhtml" target="_top" xlink:title="Index typed linear algebra implementation.">
<polygon fill="white" stroke="#666666" points="243.88,-141 136.38,-141 136.38,-121.75 243.88,-121.75 243.88,-141"/>
<text text-anchor="middle" x="190.12" y="-127.5" font-family="Helvetica,sans-Serif" font-size="10.00">fcarouge/indexed.hpp</text>
</a>
</g>
</g>
<!-- Node1&#45;&gt;Node12 -->
<g id="edge11_Node000001_Node000012" class="edge">
<title>Node1&#45;&gt;Node12</title>
<g id="a_edge11_Node000001_Node000012"><a xlink:title=" ">
<path fill="none" stroke="#63b8ff" d="M224,-176.7C217.94,-168.77 210.38,-158.88 203.95,-150.46"/>
<polygon fill="#63b8ff" stroke="#63b8ff" points="206.83,-148.47 197.98,-142.65 201.27,-152.72 206.83,-148.47"/>
</a>
</g>
</g>
<!-- Node2&#45;&gt;Node3 -->
<g id="edge2_Node000002_Node000003" class="edge">
<title>Node2&#45;&gt;Node3</title>
<g id="a_edge2_Node000002_Node000003"><a xlink:title=" ">
<path fill="none" stroke="#63b8ff" d="M366.63,-121.43C353.03,-113.58 332.73,-101.87 315.22,-91.76"/>
<polygon fill="#63b8ff" stroke="#63b8ff" points="317.02,-88.76 306.61,-86.79 313.52,-94.82 317.02,-88.76"/>
</a>
</g>
</g>
<!-- Node9 -->
<g id="Node000009" class="node">
<title>Node9</title>
<g id="a_Node000009"><a xlink:title=" ">
<polygon fill="#e0e0e0" stroke="#999999" points="404,-80.12 360.25,-80.12 360.25,-60.88 404,-60.88 404,-80.12"/>
<text text-anchor="middle" x="382.12" y="-66.62" font-family="Helvetica,sans-Serif" font-size="10.00">format</text>
</a>
</g>
</g>
<!-- Node2&#45;&gt;Node9 -->
<g id="edge8_Node000002_Node000009" class="edge">
<title>Node2&#45;&gt;Node9</title>
<g id="a_edge8_Node000002_Node000009"><a xlink:title=" ">
<path fill="none" stroke="#63b8ff" d="M382.12,-121.43C382.12,-113.65 382.12,-102.08 382.12,-92.03"/>
<polygon fill="#63b8ff" stroke="#63b8ff" points="385.63,-92.04 382.13,-82.04 378.63,-92.04 385.63,-92.04"/>
</a>
</g>
</g>
<!-- Node10 -->
<g id="Node000010" class="node">
<title>Node10</title>
<g id="a_Node000010"><a xlink:title=" ">
<polygon fill="#e0e0e0" stroke="#999999" points="557.75,-80.12 506.5,-80.12 506.5,-60.88 557.75,-60.88 557.75,-80.12"/>
<text text-anchor="middle" x="532.12" y="-66.62" font-family="Helvetica,sans-Serif" font-size="10.00">sstream</text>
</a>
</g>
</g>
<!-- Node2&#45;&gt;Node10 -->
<g id="edge9_Node000002_Node000010" class="edge">
<title>Node2&#45;&gt;Node10</title>
<g id="a_edge9_Node000002_Node000010"><a xlink:title=" ">
<path fill="none" stroke="#63b8ff" d="M406.2,-121.35C429.72,-112.48 466.49,-98.46 498.12,-85.75 498.9,-85.44 499.69,-85.12 500.49,-84.8"/>
<polygon fill="#63b8ff" stroke="#63b8ff" points="501.63,-88.11 509.55,-81.07 498.97,-81.64 501.63,-88.11"/>
</a>
</g>
</g>
<!-- Node11 -->
<g id="Node000011" class="node">
<title>Node11</title>
<g id="a_Node000011"><a xlink:title=" ">
<polygon fill="#e0e0e0" stroke="#999999" points="488.62,-80.12 421.62,-80.12 421.62,-60.88 488.62,-60.88 488.62,-80.12"/>
<text text-anchor="middle" x="455.12" y="-66.62" font-family="Helvetica,sans-Serif" font-size="10.00">Eigen/Eigen</text>
</a>
</g>
</g>
<!-- Node2&#45;&gt;Node11 -->
<g id="edge10_Node000002_Node000011" class="edge">
<title>Node2&#45;&gt;Node11</title>
<g id="a_edge10_Node000002_Node000011"><a xlink:title=" ">
<path fill="none" stroke="#63b8ff" d="M393.21,-121.43C404.36,-112.44 421.79,-98.39 435.32,-87.48"/>
<polygon fill="#63b8ff" stroke="#63b8ff" points="437.17,-90.48 442.76,-81.48 432.77,-85.03 437.17,-90.48"/>
</a>
</g>
</g>
<!-- Node4 -->
<g id="Node000004" class="node">
<title>Node4</title>
<g id="a_Node000004"><a xlink:title=" ">
<polygon fill="#e0e0e0" stroke="#999999" points="181,-19.25 125.25,-19.25 125.25,0 181,0 181,-19.25"/>
<text text-anchor="middle" x="153.12" y="-5.75" font-family="Helvetica,sans-Serif" font-size="10.00">concepts</text>
</a>
</g>
</g>
<!-- Node3&#45;&gt;Node4 -->
<g id="edge3_Node000003_Node000004" class="edge">
<title>Node3&#45;&gt;Node4</title>
<g id="a_edge3_Node000003_Node000004"><a xlink:title=" ">
<path fill="none" stroke="#63b8ff" d="M248.41,-54.8C228.32,-45.48 202.52,-33.52 182.83,-24.4"/>
<polygon fill="#63b8ff" stroke="#63b8ff" points="184.52,-21.32 173.97,-20.29 181.58,-27.67 184.52,-21.32"/>
</a>
</g>
</g>
<!-- Node3&#45;&gt;Node5 -->
<g id="edge4_Node000003_Node000005" class="edge">
<title>Node3&#45;&gt;Node5</title>
<g id="a_edge4_Node000003_Node000005"><a xlink:title=" ">
<path fill="none" stroke="#63b8ff" d="M217.5,-55.1C167.82,-43.67 100.17,-28.11 59.46,-18.75"/>
<polygon fill="#63b8ff" stroke="#63b8ff" points="60.49,-15.4 49.96,-16.57 58.92,-22.22 60.49,-15.4"/>
</a>
</g>
</g>
<!-- Node6 -->
<g id="Node000006" class="node">
<title>Node6</title>
<g id="a_Node000006"><a xlink:title=" ">
<polygon fill="#e0e0e0" stroke="#999999" points="239.62,-19.25 202.62,-19.25 202.62,0 239.62,0 239.62,-19.25"/>
<text text-anchor="middle" x="221.12" y="-5.75" font-family="Helvetica,sans-Serif" font-size="10.00">tuple</text>
</a>
</g>
</g>
<!-- Node3&#45;&gt;Node6 -->
<g id="edge5_Node000003_Node000006" class="edge">
<title>Node3&#45;&gt;Node6</title>
<g id="a_edge5_Node000003_Node000006"><a xlink:title=" ">
<path fill="none" stroke="#63b8ff" d="M265.54,-54.95C257.25,-46.67 246.82,-36.27 238.16,-27.62"/>
<polygon fill="#63b8ff" stroke="#63b8ff" points="240.84,-25.36 231.29,-20.77 235.9,-30.31 240.84,-25.36"/>
</a>
</g>
</g>
<!-- Node7 -->
<g id="Node000007" class="node">
<title>Node7</title>
<g id="a_Node000007"><a xlink:title=" ">
<polygon fill="#e0e0e0" stroke="#999999" points="377.62,-19.25 316.62,-19.25 316.62,0 377.62,0 377.62,-19.25"/>
<text text-anchor="middle" x="347.12" y="-5.75" font-family="Helvetica,sans-Serif" font-size="10.00">type_traits</text>
</a>
</g>
</g>
<!-- Node3&#45;&gt;Node7 -->
<g id="edge6_Node000003_Node000007" class="edge">
<title>Node3&#45;&gt;Node7</title>
<g id="a_edge6_Node000003_Node000007"><a xlink:title=" ">
<path fill="none" stroke="#63b8ff" d="M296.69,-54.95C306.3,-46.5 318.44,-35.83 328.4,-27.08"/>
<polygon fill="#63b8ff" stroke="#63b8ff" points="330.46,-29.93 335.66,-20.7 325.84,-24.67 330.46,-29.93"/>
</a>
</g>
</g>
<!-- Node8 -->
<g id="Node000008" class="node">
<title>Node8</title>
<g id="a_Node000008"><a xlink:title=" ">
<polygon fill="#e0e0e0" stroke="#999999" points="298.38,-19.25 259.88,-19.25 259.88,0 298.38,0 298.38,-19.25"/>
<text text-anchor="middle" x="279.12" y="-5.75" font-family="Helvetica,sans-Serif" font-size="10.00">utility</text>
</a>
</g>
</g>
<!-- Node3&#45;&gt;Node8 -->
<g id="edge7_Node000003_Node000008" class="edge">
<title>Node3&#45;&gt;Node8</title>
<g id="a_edge7_Node000003_Node000008"><a xlink:title=" ">
<path fill="none" stroke="#63b8ff" d="M279.88,-54.95C279.75,-47.71 279.6,-38.84 279.47,-30.94"/>
<polygon fill="#63b8ff" stroke="#63b8ff" points="282.97,-31.15 279.3,-21.21 275.98,-31.27 282.97,-31.15"/>
</a>
</g>
</g>
<!-- Node12&#45;&gt;Node3 -->
<g id="edge12_Node000012_Node000003" class="edge">
<title>Node12&#45;&gt;Node3</title>
<g id="a_edge12_Node000012_Node000003"><a xlink:title=" ">
<path fill="none" stroke="#63b8ff" d="M203.79,-121.43C215.57,-113.73 233.04,-102.3 248.29,-92.33"/>
<polygon fill="#63b8ff" stroke="#63b8ff" points="250.19,-95.26 256.64,-86.86 246.36,-89.41 250.19,-95.26"/>
</a>
</g>
</g>
<!-- Node12&#45;&gt;Node4 -->
<g id="edge13_Node000012_Node000004" class="edge">
<title>Node12&#45;&gt;Node4</title>
<g id="a_edge13_Node000012_Node000004"><a xlink:title=" ">
<path fill="none" stroke="#63b8ff" d="M187.34,-121.37C181.42,-102.22 167.46,-57.01 159.31,-30.65"/>
<polygon fill="#63b8ff" stroke="#63b8ff" points="162.68,-29.7 156.39,-21.18 155.99,-31.76 162.68,-29.7"/>
</a>
</g>
</g>
<!-- Node12&#45;&gt;Node5 -->
<g id="edge14_Node000012_Node000005" class="edge">
<title>Node12&#45;&gt;Node5</title>
<g id="a_edge14_Node000012_Node000005"><a xlink:title=" ">
<path fill="none" stroke="#63b8ff" d="M136.1,-126.87C104.88,-122.04 67.15,-110.93 43.12,-85.75 29.06,-71.01 24.99,-47.43 24.01,-30.62"/>
<polygon fill="#63b8ff" stroke="#63b8ff" points="27.51,-30.77 23.78,-20.86 20.51,-30.93 27.51,-30.77"/>
</a>
</g>
</g>
<!-- Node12&#45;&gt;Node6 -->
<g id="edge17_Node000012_Node000006" class="edge">
<title>Node12&#45;&gt;Node6</title>
<g id="a_edge17_Node000012_Node000006"><a xlink:title=" ">
<path fill="none" stroke="#63b8ff" d="M192.31,-121.57C195.79,-107.53 202.88,-79.2 209.12,-55.25 211.25,-47.1 213.65,-38.13 215.74,-30.38"/>
<polygon fill="#63b8ff" stroke="#63b8ff" points="219.06,-31.53 218.3,-20.97 212.3,-29.7 219.06,-31.53"/>
</a>
</g>
</g>
<!-- Node12&#45;&gt;Node9 -->
<g id="edge15_Node000012_Node000009" class="edge">
<title>Node12&#45;&gt;Node9</title>
<g id="a_edge15_Node000012_Node000009"><a xlink:title=" ">
<path fill="none" stroke="#63b8ff" d="M229.72,-121.28C262.66,-113.28 310.54,-100.59 351.12,-85.75 351.77,-85.51 352.42,-85.27 353.07,-85.02"/>
<polygon fill="#63b8ff" stroke="#63b8ff" points="354.38,-88.27 362.24,-81.17 351.67,-81.81 354.38,-88.27"/>
</a>
</g>
</g>
<!-- Node13 -->
<g id="Node000013" class="node">
<title>Node13</title>
<g id="a_Node000013"><a xlink:title=" ">
<polygon fill="#e0e0e0" stroke="#999999" points="123.88,-80.12 52.38,-80.12 52.38,-60.88 123.88,-60.88 123.88,-80.12"/>
<text text-anchor="middle" x="88.12" y="-66.62" font-family="Helvetica,sans-Serif" font-size="10.00">initializer_list</text>
</a>
</g>
</g>
<!-- Node12&#45;&gt;Node13 -->
<g id="edge16_Node000012_Node000013" class="edge">
<title>Node12&#45;&gt;Node13</title>
<g id="a_edge16_Node000012_Node000013"><a xlink:title=" ">
<path fill="none" stroke="#63b8ff" d="M174.63,-121.43C158.46,-112.1 132.82,-97.3 113.65,-86.23"/>
<polygon fill="#63b8ff" stroke="#63b8ff" points="115.48,-83.25 105.07,-81.28 111.98,-89.31 115.48,-83.25"/>
</a>
</g>
</g>
</g>
</svg>

<g id="navigator" transform="translate(0 0)" fill="#404254">
  <rect fill="#f2f5e9" fill-opacity="0.5" stroke="#606060" stroke-width=".5" x="0" y="0" width="60" height="60"/>
  <use id="zoomplus" xlink:href="#zoomPlus" x="17" y="9" onmousedown="handleZoom(evt,'in')"/>
  <use id="zoomminus" xlink:href="#zoomMin" x="42" y="9" onmousedown="handleZoom(evt,'out')"/>
  <use id="reset" xlink:href="#resetDef" x="30" y="36" onmousedown="handleReset()"/>
   <use id="arrowup" xlink:href="#arrowUp" x="0" y="0" onmousedown="handlePan(0,-1)"/>
  <use id="arrowright" xlink:href="#arrowRight" x="0" y="0" onmousedown="handlePan(1,0)"/>
  <use id="arrowdown" xlink:href="#arrowDown" x="0" y="0" onmousedown="handlePan(0,1)"/>
  <use id="arrowleft" xlink:href="#arrowLeft" x="0" y="0" onmousedown="handlePan(-1,0)"/>
</g>
<svg viewBox="0 0 15 15" width="100%" height="30px" preserveAspectRatio="xMaxYMin meet">
 <g id="arrow_out" transform="scale(0.3 0.3)">
  <a xlink:href="eigexed_2fcarouge_2linalg_8hpp__incl_org.svg" target="_base">
   <rect id="button" ry="5" rx="5" y="6" x="6" height="38" width="38"
        fill="#f2f5e9" fill-opacity="0.5" stroke="#606060" stroke-width="1.0"/>
   <path id="arrow"
     d="M 11.500037,31.436501 C 11.940474,20.09759 22.043105,11.32322 32.158766,21.979434 L 37.068811,17.246167 C 37.068811,17.246167 37.088388,32 37.088388,32 L 22.160133,31.978069 C 22.160133,31.978069 26.997745,27.140456 26.997745,27.140456 C 18.528582,18.264221 13.291696,25.230495 11.500037,31.436501 z"
     style="fill:#404040;"/>
  </a>
 </g>
</svg>

<style type='text/css'>
<![CDATA[
[data-mouse-over-selected='false'] { opacity: 0.7; }
[data-mouse-over-selected='true']  { opacity: 1.0; }
]]>
</style>
<script type="application/ecmascript"><![CDATA[
document.addEventListener('DOMContentLoaded', (event) => {
  highlightEdges();
  highlightAdjacentNodes();
});
]]></script>
</svg>
