<?xml version="1.0" encoding="UTF-8" standalone="no"?>
<!DOCTYPE svg PUBLIC "-//W3C//DTD SVG 1.1//EN"
 "http://www.w3.org/Graphics/SVG/1.1/DTD/svg11.dtd">
<!-- Generated by graphviz version 2.49.3 (20211027.1534)
 -->
<!-- Title: include/fcarouge/internal/eigen.hpp Pages: 1 -->
<svg width="781pt" height="263pt"
 viewBox="0.00 0.00 781.50 263.00" xmlns="http://www.w3.org/2000/svg" xmlns:xlink="http://www.w3.org/1999/xlink">
<g id="graph0" class="graph" transform="scale(1 1) rotate(0) translate(4 259)">
<title>include/fcarouge/internal/eigen.hpp</title>
<polygon fill="white" stroke="transparent" points="-4,4 -4,-259 777.5,-259 777.5,4 -4,4"/>
<!-- Node1 -->
<g id="node1" class="node">
<title>Node1</title>
<g id="a_node1"><a xlink:title=" ">
<polygon fill="#bfbfbf" stroke="black" points="453.5,-224.5 453.5,-254.5 575.5,-254.5 575.5,-224.5 453.5,-224.5"/>
<text text-anchor="start" x="461.5" y="-242.5" font-family="Helvetica,sans-Serif" font-size="10.00">include/fcarouge/internal</text>
<text text-anchor="middle" x="514.5" y="-231.5" font-family="Helvetica,sans-Serif" font-size="10.00">/eigen.hpp</text>
</a>
</g>
</g>
<!-- Node2 -->
<g id="node2" class="node">
<title>Node2</title>
<g id="a_node2"><a xlink:href="kalman_8hpp.xhtml" target="_top" xlink:title="The main Kalman filter class.">
<polygon fill="white" stroke="black" points="335,-168.5 335,-187.5 442,-187.5 442,-168.5 335,-168.5"/>
<text text-anchor="middle" x="388.5" y="-175.5" font-family="Helvetica,sans-Serif" font-size="10.00">fcarouge/kalman.hpp</text>
</a>
</g>
</g>
<!-- Node1&#45;&gt;Node2 -->
<g id="edge1" class="edge">
<title>Node1&#45;&gt;Node2</title>
<path fill="none" stroke="midnightblue" d="M484.64,-224.4C463.88,-214.59 436.4,-201.62 416.14,-192.05"/>
<polygon fill="midnightblue" stroke="midnightblue" points="417.37,-188.76 406.83,-187.66 414.38,-195.09 417.37,-188.76"/>
</g>
<!-- Node7 -->
<g id="node7" class="node">
<title>Node7</title>
<g id="a_node7"><a xlink:title=" ">
<polygon fill="white" stroke="#bfbfbf" points="366.5,-0.5 366.5,-19.5 428.5,-19.5 428.5,-0.5 366.5,-0.5"/>
<text text-anchor="middle" x="397.5" y="-7.5" font-family="Helvetica,sans-Serif" font-size="10.00">type_traits</text>
</a>
</g>
</g>
<!-- Node1&#45;&gt;Node7 -->
<g id="edge22" class="edge">
<title>Node1&#45;&gt;Node7</title>
<path fill="none" stroke="midnightblue" d="M453.17,-235.14C354.23,-229.03 164.26,-214.25 102.5,-188 41.36,-162.01 19.67,-140.44 3.5,-76 1.34,-67.38 -2.42,-62.63 3.5,-56 26.7,-30 259.52,-16.98 355.98,-12.67"/>
<polygon fill="midnightblue" stroke="midnightblue" points="356.4,-16.16 366.24,-12.22 356.1,-9.16 356.4,-16.16"/>
</g>
<!-- Node9 -->
<g id="node9" class="node">
<title>Node9</title>
<g id="a_node9"><a xlink:title=" ">
<polygon fill="white" stroke="#bfbfbf" points="568,-56.5 568,-75.5 617,-75.5 617,-56.5 568,-56.5"/>
<text text-anchor="middle" x="592.5" y="-63.5" font-family="Helvetica,sans-Serif" font-size="10.00">cstddef</text>
</a>
</g>
</g>
<!-- Node1&#45;&gt;Node9 -->
<g id="edge20" class="edge">
<title>Node1&#45;&gt;Node9</title>
<path fill="none" stroke="midnightblue" d="M548.71,-224.49C583.62,-208.1 635.79,-177.31 658.5,-132 669.28,-110.49 644.92,-91.92 622.8,-80.2"/>
<polygon fill="midnightblue" stroke="midnightblue" points="624.09,-76.93 613.57,-75.61 620.97,-83.2 624.09,-76.93"/>
</g>
<!-- Node10 -->
<g id="node10" class="node">
<title>Node10</title>
<g id="a_node10"><a xlink:title=" ">
<polygon fill="white" stroke="#bfbfbf" points="13,-56.5 13,-75.5 72,-75.5 72,-56.5 13,-56.5"/>
<text text-anchor="middle" x="42.5" y="-63.5" font-family="Helvetica,sans-Serif" font-size="10.00">functional</text>
</a>
</g>
</g>
<!-- Node1&#45;&gt;Node10 -->
<g id="edge21" class="edge">
<title>Node1&#45;&gt;Node10</title>
<path fill="none" stroke="midnightblue" d="M453.11,-233.59C338.14,-223.02 97.28,-193.87 45.5,-132 34.97,-119.42 35.42,-100.2 37.78,-85.92"/>
<polygon fill="midnightblue" stroke="midnightblue" points="41.29,-86.25 39.91,-75.75 34.44,-84.82 41.29,-86.25"/>
</g>
<!-- Node11 -->
<g id="node11" class="node">
<title>Node11</title>
<g id="a_node11"><a xlink:title=" ">
<polygon fill="white" stroke="#bfbfbf" points="593.5,-112.5 593.5,-131.5 649.5,-131.5 649.5,-112.5 593.5,-112.5"/>
<text text-anchor="middle" x="621.5" y="-119.5" font-family="Helvetica,sans-Serif" font-size="10.00">concepts</text>
</a>
</g>
</g>
<!-- Node1&#45;&gt;Node11 -->
<g id="edge19" class="edge">
<title>Node1&#45;&gt;Node11</title>
<path fill="none" stroke="midnightblue" d="M527.62,-224.34C547.6,-202.77 585.54,-161.81 606.56,-139.13"/>
<polygon fill="midnightblue" stroke="midnightblue" points="609.24,-141.38 613.47,-131.67 604.1,-136.63 609.24,-141.38"/>
</g>
<!-- Node14 -->
<g id="node14" class="node">
<title>Node14</title>
<g id="a_node14"><a xlink:title=" ">
<polygon fill="white" stroke="#bfbfbf" points="705.5,-168.5 705.5,-187.5 773.5,-187.5 773.5,-168.5 705.5,-168.5"/>
<text text-anchor="middle" x="739.5" y="-175.5" font-family="Helvetica,sans-Serif" font-size="10.00">Eigen/Eigen</text>
</a>
</g>
</g>
<!-- Node1&#45;&gt;Node14 -->
<g id="edge18" class="edge">
<title>Node1&#45;&gt;Node14</title>
<path fill="none" stroke="midnightblue" d="M567.54,-224.47C607.2,-213.99 660.71,-199.84 697.44,-190.12"/>
<polygon fill="midnightblue" stroke="midnightblue" points="698.56,-193.45 707.33,-187.51 696.77,-186.68 698.56,-193.45"/>
</g>
<!-- Node3 -->
<g id="node3" class="node">
<title>Node3</title>
<g id="a_node3"><a xlink:href="format_8hpp.xhtml" target="_top" xlink:title=" ">
<polygon fill="white" stroke="black" points="71,-112.5 71,-131.5 168,-131.5 168,-112.5 71,-112.5"/>
<text text-anchor="middle" x="119.5" y="-119.5" font-family="Helvetica,sans-Serif" font-size="10.00">internal/format.hpp</text>
</a>
</g>
</g>
<!-- Node2&#45;&gt;Node3 -->
<g id="edge2" class="edge">
<title>Node2&#45;&gt;Node3</title>
<path fill="none" stroke="midnightblue" d="M345.88,-168.44C298.75,-158.98 222.81,-143.74 172.04,-133.55"/>
<polygon fill="midnightblue" stroke="midnightblue" points="172.42,-130.05 161.92,-131.52 171.04,-136.92 172.42,-130.05"/>
</g>
<!-- Node5 -->
<g id="node5" class="node">
<title>Node5</title>
<g id="a_node5"><a xlink:href="internal_2kalman_8hpp.xhtml" target="_top" xlink:title=" ">
<polygon fill="white" stroke="black" points="436,-112.5 436,-131.5 537,-131.5 537,-112.5 436,-112.5"/>
<text text-anchor="middle" x="486.5" y="-119.5" font-family="Helvetica,sans-Serif" font-size="10.00">internal/kalman.hpp</text>
</a>
</g>
</g>
<!-- Node2&#45;&gt;Node5 -->
<g id="edge4" class="edge">
<title>Node2&#45;&gt;Node5</title>
<path fill="none" stroke="midnightblue" d="M404.25,-168.32C419.82,-159.74 443.88,-146.49 461.96,-136.52"/>
<polygon fill="midnightblue" stroke="midnightblue" points="463.72,-139.55 470.79,-131.65 460.35,-133.42 463.72,-139.55"/>
</g>
<!-- Node6 -->
<g id="node6" class="node">
<title>Node6</title>
<g id="a_node6"><a xlink:href="utility_8hpp.xhtml" target="_top" xlink:title=" ">
<polygon fill="white" stroke="black" points="398,-56.5 398,-75.5 455,-75.5 455,-56.5 398,-56.5"/>
<text text-anchor="middle" x="426.5" y="-63.5" font-family="Helvetica,sans-Serif" font-size="10.00">utility.hpp</text>
</a>
</g>
</g>
<!-- Node2&#45;&gt;Node6 -->
<g id="edge11" class="edge">
<title>Node2&#45;&gt;Node6</title>
<path fill="none" stroke="midnightblue" d="M391.48,-168.37C397.64,-150.54 411.89,-109.3 420.19,-85.27"/>
<polygon fill="midnightblue" stroke="midnightblue" points="423.57,-86.19 423.53,-75.59 416.96,-83.9 423.57,-86.19"/>
</g>
<!-- Node2&#45;&gt;Node7 -->
<g id="edge15" class="edge">
<title>Node2&#45;&gt;Node7</title>
<path fill="none" stroke="midnightblue" d="M387.92,-168.46C386.71,-148.65 384.34,-98.02 388.5,-56 389.37,-47.17 391.19,-37.51 392.97,-29.4"/>
<polygon fill="midnightblue" stroke="midnightblue" points="396.4,-30.08 395.27,-19.55 389.58,-28.49 396.4,-30.08"/>
</g>
<!-- Node2&#45;&gt;Node9 -->
<g id="edge13" class="edge">
<title>Node2&#45;&gt;Node9</title>
<path fill="none" stroke="midnightblue" d="M442.17,-170.87C474.73,-165.04 515.78,-153.76 546.5,-132 563.55,-119.93 576.5,-99.45 584.25,-84.71"/>
<polygon fill="midnightblue" stroke="midnightblue" points="587.47,-86.1 588.77,-75.59 581.19,-82.99 587.47,-86.1"/>
</g>
<!-- Node2&#45;&gt;Node10 -->
<g id="edge14" class="edge">
<title>Node2&#45;&gt;Node10</title>
<path fill="none" stroke="midnightblue" d="M334.93,-176.49C252.89,-174.61 101.43,-166.43 61.5,-132 48.3,-120.62 44.02,-100.63 42.75,-85.81"/>
<polygon fill="midnightblue" stroke="midnightblue" points="46.24,-85.54 42.27,-75.72 39.25,-85.87 46.24,-85.54"/>
</g>
<!-- Node2&#45;&gt;Node11 -->
<g id="edge12" class="edge">
<title>Node2&#45;&gt;Node11</title>
<path fill="none" stroke="midnightblue" d="M425.42,-168.44C468.54,-158.45 539.53,-142 583.23,-131.87"/>
<polygon fill="midnightblue" stroke="midnightblue" points="584.23,-135.23 593.18,-129.56 582.65,-128.41 584.23,-135.23"/>
</g>
<!-- Node12 -->
<g id="node12" class="node">
<title>Node12</title>
<g id="a_node12"><a xlink:title=" ">
<polygon fill="white" stroke="#bfbfbf" points="186,-112.5 186,-131.5 225,-131.5 225,-112.5 186,-112.5"/>
<text text-anchor="middle" x="205.5" y="-119.5" font-family="Helvetica,sans-Serif" font-size="10.00">utility</text>
</a>
</g>
</g>
<!-- Node2&#45;&gt;Node12 -->
<g id="edge16" class="edge">
<title>Node2&#45;&gt;Node12</title>
<path fill="none" stroke="midnightblue" d="M358.65,-168.44C329.53,-160.05 283.75,-146.77 234.94,-132.1"/>
<polygon fill="midnightblue" stroke="midnightblue" points="235.73,-128.68 225.14,-129.14 233.71,-135.38 235.73,-128.68"/>
</g>
<!-- Node13 -->
<g id="node13" class="node">
<title>Node13</title>
<g id="a_node13"><a xlink:title=" ">
<polygon fill="white" stroke="#bfbfbf" points="243.5,-112.5 243.5,-131.5 341.5,-131.5 341.5,-112.5 243.5,-112.5"/>
<text text-anchor="middle" x="292.5" y="-119.5" font-family="Helvetica,sans-Serif" font-size="10.00">internal/kalman.tpp</text>
</a>
</g>
</g>
<!-- Node2&#45;&gt;Node13 -->
<g id="edge17" class="edge">
<title>Node2&#45;&gt;Node13</title>
<path fill="none" stroke="midnightblue" d="M373.08,-168.32C357.96,-159.82 334.68,-146.73 317.03,-136.8"/>
<polygon fill="midnightblue" stroke="midnightblue" points="318.32,-133.51 307.89,-131.65 314.89,-139.61 318.32,-133.51"/>
</g>
<!-- Node4 -->
<g id="node4" class="node">
<title>Node4</title>
<g id="a_node4"><a xlink:title=" ">
<polygon fill="white" stroke="#bfbfbf" points="97.5,-56.5 97.5,-75.5 141.5,-75.5 141.5,-56.5 97.5,-56.5"/>
<text text-anchor="middle" x="119.5" y="-63.5" font-family="Helvetica,sans-Serif" font-size="10.00">format</text>
</a>
</g>
</g>
<!-- Node3&#45;&gt;Node4 -->
<g id="edge3" class="edge">
<title>Node3&#45;&gt;Node4</title>
<path fill="none" stroke="midnightblue" d="M119.5,-112.08C119.5,-105.01 119.5,-94.86 119.5,-85.99"/>
<polygon fill="midnightblue" stroke="midnightblue" points="123,-85.75 119.5,-75.75 116,-85.75 123,-85.75"/>
</g>
<!-- Node5&#45;&gt;Node6 -->
<g id="edge5" class="edge">
<title>Node5&#45;&gt;Node6</title>
<path fill="none" stroke="midnightblue" d="M476.86,-112.32C467.99,-104.34 454.63,-92.31 443.89,-82.65"/>
<polygon fill="midnightblue" stroke="midnightblue" points="446.09,-79.92 436.32,-75.83 441.41,-85.13 446.09,-79.92"/>
</g>
<!-- Node5&#45;&gt;Node7 -->
<g id="edge10" class="edge">
<title>Node5&#45;&gt;Node7</title>
<path fill="none" stroke="midnightblue" d="M485.35,-112.16C483.23,-98.81 477.67,-73.22 464.5,-56 454.33,-42.71 439.07,-32.02 425.68,-24.41"/>
<polygon fill="midnightblue" stroke="midnightblue" points="427.26,-21.28 416.79,-19.63 423.94,-27.45 427.26,-21.28"/>
</g>
<!-- Node8 -->
<g id="node8" class="node">
<title>Node8</title>
<g id="a_node8"><a xlink:title=" ">
<polygon fill="white" stroke="#bfbfbf" points="511.5,-56.5 511.5,-75.5 549.5,-75.5 549.5,-56.5 511.5,-56.5"/>
<text text-anchor="middle" x="530.5" y="-63.5" font-family="Helvetica,sans-Serif" font-size="10.00">array</text>
</a>
</g>
</g>
<!-- Node5&#45;&gt;Node8 -->
<g id="edge7" class="edge">
<title>Node5&#45;&gt;Node8</title>
<path fill="none" stroke="midnightblue" d="M493.77,-112.08C500.04,-104.38 509.29,-93.03 516.93,-83.65"/>
<polygon fill="midnightblue" stroke="midnightblue" points="519.77,-85.71 523.37,-75.75 514.34,-81.29 519.77,-85.71"/>
</g>
<!-- Node5&#45;&gt;Node9 -->
<g id="edge8" class="edge">
<title>Node5&#45;&gt;Node9</title>
<path fill="none" stroke="midnightblue" d="M503.53,-112.32C520.53,-103.66 546.88,-90.24 566.49,-80.25"/>
<polygon fill="midnightblue" stroke="midnightblue" points="568.19,-83.31 575.51,-75.65 565.01,-77.08 568.19,-83.31"/>
</g>
<!-- Node5&#45;&gt;Node10 -->
<g id="edge9" class="edge">
<title>Node5&#45;&gt;Node10</title>
<path fill="none" stroke="midnightblue" d="M435.75,-116.58C359.94,-109.69 212.72,-95.14 88.5,-76 86.43,-75.68 84.3,-75.33 82.16,-74.97"/>
<polygon fill="midnightblue" stroke="midnightblue" points="82.59,-71.49 72.13,-73.16 81.35,-78.38 82.59,-71.49"/>
</g>
<!-- Node6&#45;&gt;Node7 -->
<g id="edge6" class="edge">
<title>Node6&#45;&gt;Node7</title>
<path fill="none" stroke="midnightblue" d="M421.71,-56.08C417.74,-48.69 411.97,-37.95 407.07,-28.81"/>
<polygon fill="midnightblue" stroke="midnightblue" points="410.01,-26.91 402.2,-19.75 403.85,-30.22 410.01,-26.91"/>
</g>
</g>
</svg>
