<?xml version="1.0" encoding="UTF-8" standalone="no"?>
<!DOCTYPE svg PUBLIC "-//W3C//DTD SVG 1.1//EN"
 "http://www.w3.org/Graphics/SVG/1.1/DTD/svg11.dtd">
<!-- Generated by graphviz version 3.0.0 (20221109.1736)
 -->
<!-- Title: /github/workspace/benchmark/eigen_predict_x1x.cpp Pages: 1 -->
<!--zoomable 319 -->
<svg id="main" version="1.1" xmlns="http://www.w3.org/2000/svg" xmlns:xlink="http://www.w3.org/1999/xlink" xml:space="preserve" onload="init(evt)">
<style type="text/css"><![CDATA[
.edge:hover path { stroke: red; }
.edge:hover polygon { stroke: red; fill: red; }
]]></style>
<script type="text/javascript"><![CDATA[
var edges = document.getElementsByTagName('g');
if (edges && edges.length) {
  for (var i=0;i<edges.length;i++) {
    if (edges[i].id.substr(0,4)=='edge') {
      edges[i].setAttribute('class','edge');
    }
  }
}
]]></script>
        <defs>
                <circle id="rim" cx="0" cy="0" r="7"/>
                <circle id="rim2" cx="0" cy="0" r="3.5"/>
                <g id="zoomPlus">
                        <use xlink:href="#rim" fill="#404040">
                                <set attributeName="fill" to="#808080" begin="zoomplus.mouseover" end="zoomplus.mouseout"/>
                        </use>
                        <path d="M-4,0h8M0,-4v8" fill="none" stroke="white" stroke-width="1.5" pointer-events="none"/>
                </g>
                <g id="zoomMin">
                        <use xlink:href="#rim" fill="#404040">
                                <set attributeName="fill" to="#808080" begin="zoomminus.mouseover" end="zoomminus.mouseout"/>
                        </use>
                        <path d="M-4,0h8" fill="none" stroke="white" stroke-width="1.5" pointer-events="none"/>
                </g>
                <g id="dirArrow">
                        <path fill="none" stroke="white" stroke-width="1.5" d="M0,-3.0v7 M-2.5,-0.5L0,-3.0L2.5,-0.5"/>
                </g>
               <g id="resetDef">
                       <use xlink:href="#rim2" fill="#404040">
                               <set attributeName="fill" to="#808080" begin="reset.mouseover" end="reset.mouseout"/>
                       </use>
               </g>
        </defs>

<script type="text/javascript">
var viewWidth = 990;
var viewHeight = 319;
var sectionId = 'dynsection-0';
</script>
<script xlink:href="svgpan.js"/>
<svg id="graph" class="graph">
<g id="viewport">
<title>/github/workspace/benchmark/eigen_predict_x1x.cpp</title>
<polygon fill="white" stroke="transparent" points="-4,4 -4,-315 985.5,-315 985.5,4 -4,4"/>
<!-- Node1 -->
<g id="node1" class="node">
<title>Node1</title>
<g id="a_node1"><a xlink:title=" ">
<polygon fill="#bfbfbf" stroke="black" points="457.5,-280.5 457.5,-310.5 604.5,-310.5 604.5,-280.5 457.5,-280.5"/>
<text text-anchor="start" x="465.5" y="-298.5" font-family="Helvetica,sans-Serif" font-size="10.00">/github/workspace/benchmark</text>
<text text-anchor="middle" x="531" y="-287.5" font-family="Helvetica,sans-Serif" font-size="10.00">/eigen_predict_x1x.cpp</text>
</a>
</g>
</g>
<!-- Node2 -->
<g id="node2" class="node">
<title>Node2</title>
<g id="a_node2"><a xlink:href="benchmark_8hpp.xhtml" target="_top" xlink:title="Benchmarking support.">
<polygon fill="white" stroke="black" points="25.5,-224.5 25.5,-243.5 108.5,-243.5 108.5,-224.5 25.5,-224.5"/>
<text text-anchor="middle" x="67" y="-231.5" font-family="Helvetica,sans-Serif" font-size="10.00">benchmark.hpp</text>
</a>
</g>
</g>
<!-- Node1&#45;&gt;Node2 -->
<g id="edge1" class="edge">
<title>Node1&#45;&gt;Node2</title>
<path fill="none" stroke="midnightblue" d="M457.19,-286.18C375.38,-276.77 239.59,-260.58 123,-244 121.54,-243.79 120.05,-243.58 118.56,-243.36"/>
<polygon fill="midnightblue" stroke="midnightblue" points="118.97,-239.88 108.56,-241.85 117.93,-246.8 118.97,-239.88"/>
</g>
<!-- Node3 -->
<g id="node3" class="node">
<title>Node3</title>
<g id="a_node3"><a xlink:title=" ">
<polygon fill="white" stroke="#bfbfbf" points="0,-168.5 0,-187.5 46,-187.5 46,-168.5 0,-168.5"/>
<text text-anchor="middle" x="23" y="-175.5" font-family="Helvetica,sans-Serif" font-size="10.00">chrono</text>
</a>
</g>
</g>
<!-- Node1&#45;&gt;Node3 -->
<g id="edge29" class="edge">
<title>Node1&#45;&gt;Node3</title>
<path fill="none" stroke="midnightblue" d="M457.28,-292.64C321.96,-288.46 45.06,-276.05 16,-244 4.71,-231.55 8.82,-211.76 14.3,-197.28"/>
<polygon fill="midnightblue" stroke="midnightblue" points="17.61,-198.43 18.32,-187.86 11.17,-195.68 17.61,-198.43"/>
</g>
<!-- Node5 -->
<g id="node5" class="node">
<title>Node5</title>
<g id="a_node5"><a xlink:href="internal_2utility_8hpp.xhtml" target="_top" xlink:title=" ">
<polygon fill="white" stroke="black" points="475,-56.5 475,-75.5 607,-75.5 607,-56.5 475,-56.5"/>
<text text-anchor="middle" x="541" y="-63.5" font-family="Helvetica,sans-Serif" font-size="10.00">fcarouge/internal/utility.hpp</text>
</a>
</g>
</g>
<!-- Node1&#45;&gt;Node5 -->
<g id="edge4" class="edge">
<title>Node1&#45;&gt;Node5</title>
<path fill="none" stroke="midnightblue" d="M457.25,-287.68C391.55,-280.26 301.67,-266.37 274,-244 226.23,-205.37 192.82,-158.47 233,-112 262.36,-78.04 383.34,-69.21 464.65,-67.19"/>
<polygon fill="midnightblue" stroke="midnightblue" points="464.94,-70.68 474.86,-66.97 464.78,-63.68 464.94,-70.68"/>
</g>
<!-- Node7 -->
<g id="node7" class="node">
<title>Node7</title>
<g id="a_node7"><a xlink:href="kalman_8hpp.xhtml" target="_top" xlink:title="The Kalman filter class and library top&#45;level header.">
<polygon fill="white" stroke="black" points="314.5,-224.5 314.5,-243.5 421.5,-243.5 421.5,-224.5 314.5,-224.5"/>
<text text-anchor="middle" x="368" y="-231.5" font-family="Helvetica,sans-Serif" font-size="10.00">fcarouge/kalman.hpp</text>
</a>
</g>
</g>
<!-- Node1&#45;&gt;Node7 -->
<g id="edge7" class="edge">
<title>Node1&#45;&gt;Node7</title>
<path fill="none" stroke="midnightblue" d="M492.37,-280.4C464.66,-270.28 427.69,-256.79 401.28,-247.15"/>
<polygon fill="midnightblue" stroke="midnightblue" points="402.31,-243.8 391.72,-243.66 399.91,-250.37 402.31,-243.8"/>
</g>
<!-- Node11 -->
<g id="node11" class="node">
<title>Node11</title>
<g id="a_node11"><a xlink:title=" ">
<polygon fill="white" stroke="#bfbfbf" points="241.5,-112.5 241.5,-131.5 290.5,-131.5 290.5,-112.5 241.5,-112.5"/>
<text text-anchor="middle" x="266" y="-119.5" font-family="Helvetica,sans-Serif" font-size="10.00">cstddef</text>
</a>
</g>
</g>
<!-- Node1&#45;&gt;Node11 -->
<g id="edge31" class="edge">
<title>Node1&#45;&gt;Node11</title>
<path fill="none" stroke="midnightblue" d="M457.47,-289.83C411.24,-284.14 351.89,-271.6 306,-244 277.91,-227.1 269.37,-218.74 258,-188 252.45,-173 255.41,-154.87 259.21,-141.57"/>
<polygon fill="midnightblue" stroke="midnightblue" points="262.65,-142.3 262.43,-131.71 256,-140.13 262.65,-142.3"/>
</g>
<!-- Node20 -->
<g id="node20" class="node">
<title>Node20</title>
<g id="a_node20"><a xlink:title=" ">
<polygon fill="white" stroke="#bfbfbf" points="440,-224.5 440,-243.5 508,-243.5 508,-224.5 440,-224.5"/>
<text text-anchor="middle" x="474" y="-231.5" font-family="Helvetica,sans-Serif" font-size="10.00">Eigen/Eigen</text>
</a>
</g>
</g>
<!-- Node1&#45;&gt;Node20 -->
<g id="edge26" class="edge">
<title>Node1&#45;&gt;Node20</title>
<path fill="none" stroke="midnightblue" d="M517.49,-280.4C509.04,-271.58 498.12,-260.18 489.34,-251.02"/>
<polygon fill="midnightblue" stroke="midnightblue" points="491.74,-248.46 482.29,-243.66 486.68,-253.3 491.74,-248.46"/>
</g>
<!-- Node21 -->
<g id="node21" class="node">
<title>Node21</title>
<g id="a_node21"><a xlink:title=" ">
<polygon fill="white" stroke="#bfbfbf" points="526.5,-224.5 526.5,-243.5 649.5,-243.5 649.5,-224.5 526.5,-224.5"/>
<text text-anchor="middle" x="588" y="-231.5" font-family="Helvetica,sans-Serif" font-size="10.00">benchmark/benchmark.h</text>
</a>
</g>
</g>
<!-- Node1&#45;&gt;Node21 -->
<g id="edge27" class="edge">
<title>Node1&#45;&gt;Node21</title>
<path fill="none" stroke="midnightblue" d="M544.51,-280.4C552.96,-271.58 563.88,-260.18 572.66,-251.02"/>
<polygon fill="midnightblue" stroke="midnightblue" points="575.32,-253.3 579.71,-243.66 570.26,-248.46 575.32,-253.3"/>
</g>
<!-- Node22 -->
<g id="node22" class="node">
<title>Node22</title>
<g id="a_node22"><a xlink:title=" ">
<polygon fill="white" stroke="#bfbfbf" points="668,-224.5 668,-243.5 724,-243.5 724,-224.5 668,-224.5"/>
<text text-anchor="middle" x="696" y="-231.5" font-family="Helvetica,sans-Serif" font-size="10.00">algorithm</text>
</a>
</g>
</g>
<!-- Node1&#45;&gt;Node22 -->
<g id="edge28" class="edge">
<title>Node1&#45;&gt;Node22</title>
<path fill="none" stroke="midnightblue" d="M570.1,-280.4C598.16,-270.28 635.57,-256.79 662.31,-247.15"/>
<polygon fill="midnightblue" stroke="midnightblue" points="663.77,-250.34 671.99,-243.66 661.4,-243.76 663.77,-250.34"/>
</g>
<!-- Node23 -->
<g id="node23" class="node">
<title>Node23</title>
<g id="a_node23"><a xlink:title=" ">
<polygon fill="white" stroke="#bfbfbf" points="742,-224.5 742,-243.5 786,-243.5 786,-224.5 742,-224.5"/>
<text text-anchor="middle" x="764" y="-231.5" font-family="Helvetica,sans-Serif" font-size="10.00">cmath</text>
</a>
</g>
</g>
<!-- Node1&#45;&gt;Node23 -->
<g id="edge30" class="edge">
<title>Node1&#45;&gt;Node23</title>
<path fill="none" stroke="midnightblue" d="M589.49,-280.49C627.54,-271.24 678.45,-258.59 731.71,-244.28"/>
<polygon fill="midnightblue" stroke="midnightblue" points="732.94,-247.58 741.68,-241.59 731.11,-240.82 732.94,-247.58"/>
</g>
<!-- Node24 -->
<g id="node24" class="node">
<title>Node24</title>
<g id="a_node24"><a xlink:title=" ">
<polygon fill="white" stroke="#bfbfbf" points="804,-224.5 804,-243.5 850,-243.5 850,-224.5 804,-224.5"/>
<text text-anchor="middle" x="827" y="-231.5" font-family="Helvetica,sans-Serif" font-size="10.00">cstdint</text>
</a>
</g>
</g>
<!-- Node1&#45;&gt;Node24 -->
<g id="edge32" class="edge">
<title>Node1&#45;&gt;Node24</title>
<path fill="none" stroke="midnightblue" d="M604.76,-282.13C655.51,-273.21 724.64,-260.27 794.18,-244.04"/>
<polygon fill="midnightblue" stroke="midnightblue" points="795.06,-247.43 803.99,-241.72 793.45,-240.61 795.06,-247.43"/>
</g>
<!-- Node25 -->
<g id="node25" class="node">
<title>Node25</title>
<g id="a_node25"><a xlink:title=" ">
<polygon fill="white" stroke="#bfbfbf" points="868,-224.5 868,-243.5 914,-243.5 914,-224.5 868,-224.5"/>
<text text-anchor="middle" x="891" y="-231.5" font-family="Helvetica,sans-Serif" font-size="10.00">cstring</text>
</a>
</g>
</g>
<!-- Node1&#45;&gt;Node25 -->
<g id="edge33" class="edge">
<title>Node1&#45;&gt;Node25</title>
<path fill="none" stroke="midnightblue" d="M604.75,-285.75C669.25,-277.5 765.57,-263.75 857.88,-244.03"/>
<polygon fill="midnightblue" stroke="midnightblue" points="858.63,-247.45 867.66,-241.92 857.15,-240.61 858.63,-247.45"/>
</g>
<!-- Node26 -->
<g id="node26" class="node">
<title>Node26</title>
<g id="a_node26"><a xlink:title=" ">
<polygon fill="white" stroke="#bfbfbf" points="932.5,-224.5 932.5,-243.5 981.5,-243.5 981.5,-224.5 932.5,-224.5"/>
<text text-anchor="middle" x="957" y="-231.5" font-family="Helvetica,sans-Serif" font-size="10.00">random</text>
</a>
</g>
</g>
<!-- Node1&#45;&gt;Node26 -->
<g id="edge34" class="edge">
<title>Node1&#45;&gt;Node26</title>
<path fill="none" stroke="midnightblue" d="M604.79,-287.9C681.69,-280.36 805.8,-266.36 922.06,-243.95"/>
<polygon fill="midnightblue" stroke="midnightblue" points="923.06,-247.32 932.2,-241.96 921.72,-240.45 923.06,-247.32"/>
</g>
<!-- Node2&#45;&gt;Node3 -->
<g id="edge2" class="edge">
<title>Node2&#45;&gt;Node3</title>
<path fill="none" stroke="midnightblue" d="M59.73,-224.08C53.46,-216.38 44.21,-205.03 36.57,-195.65"/>
<polygon fill="midnightblue" stroke="midnightblue" points="39.16,-193.29 30.13,-187.75 33.73,-197.71 39.16,-193.29"/>
</g>
<!-- Node4 -->
<g id="node4" class="node">
<title>Node4</title>
<g id="a_node4"><a xlink:title=" ">
<polygon fill="white" stroke="#bfbfbf" points="182,-0.5 182,-19.5 244,-19.5 244,-0.5 182,-0.5"/>
<text text-anchor="middle" x="213" y="-7.5" font-family="Helvetica,sans-Serif" font-size="10.00">type_traits</text>
</a>
</g>
</g>
<!-- Node2&#45;&gt;Node4 -->
<g id="edge3" class="edge">
<title>Node2&#45;&gt;Node4</title>
<path fill="none" stroke="midnightblue" d="M72.72,-224.3C94.48,-191.22 172.28,-72.91 201.66,-28.24"/>
<polygon fill="midnightblue" stroke="midnightblue" points="204.59,-30.16 207.16,-19.88 198.74,-26.32 204.59,-30.16"/>
</g>
<!-- Node5&#45;&gt;Node4 -->
<g id="edge6" class="edge">
<title>Node5&#45;&gt;Node4</title>
<path fill="none" stroke="midnightblue" d="M489.03,-56.44C423.93,-45.73 313.73,-27.58 254.16,-17.78"/>
<polygon fill="midnightblue" stroke="midnightblue" points="254.44,-14.28 244,-16.1 253.3,-21.18 254.44,-14.28"/>
</g>
<!-- Node6 -->
<g id="node6" class="node">
<title>Node6</title>
<g id="a_node6"><a xlink:title=" ">
<polygon fill="white" stroke="#bfbfbf" points="695,-0.5 695,-19.5 751,-19.5 751,-0.5 695,-0.5"/>
<text text-anchor="middle" x="723" y="-7.5" font-family="Helvetica,sans-Serif" font-size="10.00">concepts</text>
</a>
</g>
</g>
<!-- Node5&#45;&gt;Node6 -->
<g id="edge5" class="edge">
<title>Node5&#45;&gt;Node6</title>
<path fill="none" stroke="midnightblue" d="M569.84,-56.44C601.04,-47.19 650.91,-32.39 685.22,-22.21"/>
<polygon fill="midnightblue" stroke="midnightblue" points="686.3,-25.54 694.89,-19.34 684.31,-18.83 686.3,-25.54"/>
</g>
<!-- Node7&#45;&gt;Node4 -->
<g id="edge23" class="edge">
<title>Node7&#45;&gt;Node4</title>
<path fill="none" stroke="midnightblue" d="M327.76,-224.44C304.9,-217.8 277.12,-206.52 258,-188 213.82,-145.2 210.76,-65.62 211.87,-29.58"/>
<polygon fill="midnightblue" stroke="midnightblue" points="215.37,-29.66 212.33,-19.52 208.37,-29.35 215.37,-29.66"/>
</g>
<!-- Node7&#45;&gt;Node6 -->
<g id="edge20" class="edge">
<title>Node7&#45;&gt;Node6</title>
<path fill="none" stroke="midnightblue" d="M421.59,-225.11C424.77,-224.71 427.93,-224.34 431,-224 481.52,-218.4 852.5,-225.33 887,-188 927.15,-144.56 908.85,-100.6 870,-56 842.91,-24.9 794.97,-14.95 761.22,-11.95"/>
<polygon fill="midnightblue" stroke="midnightblue" points="761.46,-8.46 751.24,-11.22 760.96,-15.44 761.46,-8.46"/>
</g>
<!-- Node8 -->
<g id="node8" class="node">
<title>Node8</title>
<g id="a_node8"><a xlink:href="algorithm_8hpp.xhtml" target="_top" xlink:title="The collection of Kalman algorithms.">
<polygon fill="white" stroke="black" points="279,-168.5 279,-187.5 353,-187.5 353,-168.5 279,-168.5"/>
<text text-anchor="middle" x="316" y="-175.5" font-family="Helvetica,sans-Serif" font-size="10.00">algorithm.hpp</text>
</a>
</g>
</g>
<!-- Node7&#45;&gt;Node8 -->
<g id="edge8" class="edge">
<title>Node7&#45;&gt;Node8</title>
<path fill="none" stroke="midnightblue" d="M359.41,-224.08C351.84,-216.22 340.62,-204.57 331.49,-195.08"/>
<polygon fill="midnightblue" stroke="midnightblue" points="333.88,-192.53 324.43,-187.75 328.84,-197.38 333.88,-192.53"/>
</g>
<!-- Node9 -->
<g id="node9" class="node">
<title>Node9</title>
<g id="a_node9"><a xlink:href="format_8hpp.xhtml" target="_top" xlink:title=" ">
<polygon fill="white" stroke="black" points="371.5,-168.5 371.5,-187.5 468.5,-187.5 468.5,-168.5 371.5,-168.5"/>
<text text-anchor="middle" x="420" y="-175.5" font-family="Helvetica,sans-Serif" font-size="10.00">internal/format.hpp</text>
</a>
</g>
</g>
<!-- Node7&#45;&gt;Node9 -->
<g id="edge9" class="edge">
<title>Node7&#45;&gt;Node9</title>
<path fill="none" stroke="midnightblue" d="M376.59,-224.08C384.16,-216.22 395.38,-204.57 404.51,-195.08"/>
<polygon fill="midnightblue" stroke="midnightblue" points="407.16,-197.38 411.57,-187.75 402.12,-192.53 407.16,-197.38"/>
</g>
<!-- Node10 -->
<g id="node10" class="node">
<title>Node10</title>
<g id="a_node10"><a xlink:href="utility_8hpp.xhtml" target="_top" xlink:title="The collection of utilities supporting the library.">
<polygon fill="white" stroke="black" points="492,-112.5 492,-131.5 590,-131.5 590,-112.5 492,-112.5"/>
<text text-anchor="middle" x="541" y="-119.5" font-family="Helvetica,sans-Serif" font-size="10.00">fcarouge/utility.hpp</text>
</a>
</g>
</g>
<!-- Node7&#45;&gt;Node10 -->
<g id="edge19" class="edge">
<title>Node7&#45;&gt;Node10</title>
<path fill="none" stroke="midnightblue" d="M416.96,-224.44C469.42,-214.76 546.37,-198.95 555,-188 565.68,-174.44 559.11,-154.55 551.8,-140.35"/>
<polygon fill="midnightblue" stroke="midnightblue" points="554.8,-138.54 546.82,-131.57 548.71,-142 554.8,-138.54"/>
</g>
<!-- Node7&#45;&gt;Node11 -->
<g id="edge21" class="edge">
<title>Node7&#45;&gt;Node11</title>
<path fill="none" stroke="midnightblue" d="M326.42,-224.48C305.96,-218.03 282.97,-206.92 270,-188 260.82,-174.61 260.68,-155.79 262.33,-141.84"/>
<polygon fill="midnightblue" stroke="midnightblue" points="265.8,-142.32 263.89,-131.9 258.88,-141.23 265.8,-142.32"/>
</g>
<!-- Node13 -->
<g id="node13" class="node">
<title>Node13</title>
<g id="a_node13"><a xlink:href="internal_2kalman_8hpp.xhtml" target="_top" xlink:title=" ">
<polygon fill="white" stroke="black" points="776.5,-168.5 776.5,-187.5 877.5,-187.5 877.5,-168.5 776.5,-168.5"/>
<text text-anchor="middle" x="827" y="-175.5" font-family="Helvetica,sans-Serif" font-size="10.00">internal/kalman.hpp</text>
</a>
</g>
</g>
<!-- Node7&#45;&gt;Node13 -->
<g id="edge14" class="edge">
<title>Node7&#45;&gt;Node13</title>
<path fill="none" stroke="midnightblue" d="M421.6,-225.21C424.78,-224.79 427.93,-224.38 431,-224 576.83,-205.78 616.35,-207.08 766.25,-188.04"/>
<polygon fill="midnightblue" stroke="midnightblue" points="766.81,-191.5 776.28,-186.76 765.92,-184.56 766.81,-191.5"/>
</g>
<!-- Node17 -->
<g id="node17" class="node">
<title>Node17</title>
<g id="a_node17"><a xlink:title=" ">
<polygon fill="white" stroke="#bfbfbf" points="486.5,-168.5 486.5,-187.5 545.5,-187.5 545.5,-168.5 486.5,-168.5"/>
<text text-anchor="middle" x="516" y="-175.5" font-family="Helvetica,sans-Serif" font-size="10.00">functional</text>
</a>
</g>
</g>
<!-- Node7&#45;&gt;Node17 -->
<g id="edge22" class="edge">
<title>Node7&#45;&gt;Node17</title>
<path fill="none" stroke="midnightblue" d="M391.45,-224.44C416.13,-215.44 455.19,-201.19 482.98,-191.05"/>
<polygon fill="midnightblue" stroke="midnightblue" points="484.46,-194.23 492.66,-187.52 482.06,-187.66 484.46,-194.23"/>
</g>
<!-- Node18 -->
<g id="node18" class="node">
<title>Node18</title>
<g id="a_node18"><a xlink:title=" ">
<polygon fill="white" stroke="#bfbfbf" points="602.5,-168.5 602.5,-187.5 641.5,-187.5 641.5,-168.5 602.5,-168.5"/>
<text text-anchor="middle" x="622" y="-175.5" font-family="Helvetica,sans-Serif" font-size="10.00">utility</text>
</a>
</g>
</g>
<!-- Node7&#45;&gt;Node18 -->
<g id="edge24" class="edge">
<title>Node7&#45;&gt;Node18</title>
<path fill="none" stroke="midnightblue" d="M413.67,-224.45C458.28,-215.91 528.03,-202.06 588,-188 589.45,-187.66 590.93,-187.3 592.42,-186.94"/>
<polygon fill="midnightblue" stroke="midnightblue" points="593.45,-190.29 602.27,-184.43 591.72,-183.51 593.45,-190.29"/>
</g>
<!-- Node19 -->
<g id="node19" class="node">
<title>Node19</title>
<g id="a_node19"><a xlink:title=" ">
<polygon fill="white" stroke="#bfbfbf" points="660,-168.5 660,-187.5 758,-187.5 758,-168.5 660,-168.5"/>
<text text-anchor="middle" x="709" y="-175.5" font-family="Helvetica,sans-Serif" font-size="10.00">internal/kalman.tpp</text>
</a>
</g>
</g>
<!-- Node7&#45;&gt;Node19 -->
<g id="edge25" class="edge">
<title>Node7&#45;&gt;Node19</title>
<path fill="none" stroke="midnightblue" d="M421.66,-224.5C483.7,-214.68 585.52,-198.55 649.82,-188.37"/>
<polygon fill="midnightblue" stroke="midnightblue" points="650.48,-191.81 659.81,-186.79 649.38,-184.9 650.48,-191.81"/>
</g>
<!-- Node9&#45;&gt;Node10 -->
<g id="edge10" class="edge">
<title>Node9&#45;&gt;Node10</title>
<path fill="none" stroke="midnightblue" d="M439.17,-168.44C458.91,-159.64 489.89,-145.81 512.49,-135.72"/>
<polygon fill="midnightblue" stroke="midnightblue" points="514.21,-138.79 521.92,-131.52 511.36,-132.4 514.21,-138.79"/>
</g>
<!-- Node9&#45;&gt;Node11 -->
<g id="edge12" class="edge">
<title>Node9&#45;&gt;Node11</title>
<path fill="none" stroke="midnightblue" d="M395.6,-168.44C369.8,-159.4 328.92,-145.06 299.98,-134.92"/>
<polygon fill="midnightblue" stroke="midnightblue" points="300.88,-131.52 290.29,-131.52 298.57,-138.13 300.88,-131.52"/>
</g>
<!-- Node12 -->
<g id="node12" class="node">
<title>Node12</title>
<g id="a_node12"><a xlink:title=" ">
<polygon fill="white" stroke="#bfbfbf" points="398,-112.5 398,-131.5 442,-131.5 442,-112.5 398,-112.5"/>
<text text-anchor="middle" x="420" y="-119.5" font-family="Helvetica,sans-Serif" font-size="10.00">format</text>
</a>
</g>
</g>
<!-- Node9&#45;&gt;Node12 -->
<g id="edge13" class="edge">
<title>Node9&#45;&gt;Node12</title>
<path fill="none" stroke="midnightblue" d="M420,-168.08C420,-161.01 420,-150.86 420,-141.99"/>
<polygon fill="midnightblue" stroke="midnightblue" points="423.5,-141.75 420,-131.75 416.5,-141.75 423.5,-141.75"/>
</g>
<!-- Node10&#45;&gt;Node5 -->
<g id="edge11" class="edge">
<title>Node10&#45;&gt;Node5</title>
<path fill="none" stroke="midnightblue" d="M541,-112.08C541,-105.01 541,-94.86 541,-85.99"/>
<polygon fill="midnightblue" stroke="midnightblue" points="544.5,-85.75 541,-75.75 537.5,-85.75 544.5,-85.75"/>
</g>
<!-- Node13&#45;&gt;Node5 -->
<g id="edge17" class="edge">
<title>Node13&#45;&gt;Node5</title>
<path fill="none" stroke="midnightblue" d="M819.8,-168.28C807.61,-154.11 781.43,-126.26 753,-112 710.9,-90.88 659.28,-79.66 617.52,-73.7"/>
<polygon fill="midnightblue" stroke="midnightblue" points="617.78,-70.2 607.4,-72.33 616.84,-77.14 617.78,-70.2"/>
</g>
<!-- Node14 -->
<g id="node14" class="node">
<title>Node14</title>
<g id="a_node14"><a xlink:href="function_8hpp.xhtml" target="_top" xlink:title=" ">
<polygon fill="white" stroke="black" points="800.5,-112.5 800.5,-131.5 869.5,-131.5 869.5,-112.5 800.5,-112.5"/>
<text text-anchor="middle" x="835" y="-119.5" font-family="Helvetica,sans-Serif" font-size="10.00">function.hpp</text>
</a>
</g>
</g>
<!-- Node13&#45;&gt;Node14 -->
<g id="edge15" class="edge">
<title>Node13&#45;&gt;Node14</title>
<path fill="none" stroke="midnightblue" d="M828.32,-168.08C829.38,-160.93 830.91,-150.64 832.23,-141.69"/>
<polygon fill="midnightblue" stroke="midnightblue" points="835.7,-142.16 833.7,-131.75 828.78,-141.13 835.7,-142.16"/>
</g>
<!-- Node16 -->
<g id="node16" class="node">
<title>Node16</title>
<g id="a_node16"><a xlink:title=" ">
<polygon fill="white" stroke="#bfbfbf" points="706,-112.5 706,-131.5 744,-131.5 744,-112.5 706,-112.5"/>
<text text-anchor="middle" x="725" y="-119.5" font-family="Helvetica,sans-Serif" font-size="10.00">tuple</text>
</a>
</g>
</g>
<!-- Node13&#45;&gt;Node16 -->
<g id="edge18" class="edge">
<title>Node13&#45;&gt;Node16</title>
<path fill="none" stroke="midnightblue" d="M810.61,-168.32C794.33,-159.7 769.13,-146.36 750.28,-136.39"/>
<polygon fill="midnightblue" stroke="midnightblue" points="751.82,-133.24 741.35,-131.65 748.55,-139.43 751.82,-133.24"/>
</g>
<!-- Node15 -->
<g id="node15" class="node">
<title>Node15</title>
<g id="a_node15"><a xlink:title=" ">
<polygon fill="white" stroke="#bfbfbf" points="809.5,-56.5 809.5,-75.5 860.5,-75.5 860.5,-56.5 809.5,-56.5"/>
<text text-anchor="middle" x="835" y="-63.5" font-family="Helvetica,sans-Serif" font-size="10.00">memory</text>
</a>
</g>
</g>
<!-- Node14&#45;&gt;Node15 -->
<g id="edge16" class="edge">
<title>Node14&#45;&gt;Node15</title>
<path fill="none" stroke="midnightblue" d="M835,-112.08C835,-105.01 835,-94.86 835,-85.99"/>
<polygon fill="midnightblue" stroke="midnightblue" points="838.5,-85.75 835,-75.75 831.5,-85.75 838.5,-85.75"/>
</g>
</g>
</svg>
        <g id="navigator" transform="translate(0 0)" fill="#404254">
                <rect fill="#f2f5e9" fill-opacity="0.5" stroke="#606060" stroke-width=".5" x="0" y="0" width="60" height="60"/>
                <use id="zoomplus" xlink:href="#zoomPlus" x="17" y="9" onmousedown="handleZoom(evt,'in')"/>
                <use id="zoomminus" xlink:href="#zoomMin" x="42" y="9" onmousedown="handleZoom(evt,'out')"/>
                <use id="reset" xlink:href="#resetDef" x="30" y="36" onmousedown="handleReset()"/>
                <g id="arrowUp" xlink:href="#dirArrow" transform="translate(30 24)" onmousedown="handlePan(0,-1)">
                  <use xlink:href="#rim" fill="#404040">
                        <set attributeName="fill" to="#808080" begin="arrowUp.mouseover" end="arrowUp.mouseout"/>
                  </use>
                  <path fill="none" stroke="white" stroke-width="1.5" d="M0,-3.0v7 M-2.5,-0.5L0,-3.0L2.5,-0.5"/>
                </g>
                <g id="arrowRight" xlink:href="#dirArrow" transform="rotate(90) translate(36 -43)" onmousedown="handlePan(1,0)">
                  <use xlink:href="#rim" fill="#404040">
                        <set attributeName="fill" to="#808080" begin="arrowRight.mouseover" end="arrowRight.mouseout"/>
                  </use>
                  <path fill="none" stroke="white" stroke-width="1.5" d="M0,-3.0v7 M-2.5,-0.5L0,-3.0L2.5,-0.5"/>
                </g>
                <g id="arrowDown" xlink:href="#dirArrow" transform="rotate(180) translate(-30 -48)" onmousedown="handlePan(0,1)">
                  <use xlink:href="#rim" fill="#404040">
                        <set attributeName="fill" to="#808080" begin="arrowDown.mouseover" end="arrowDown.mouseout"/>
                  </use>
                  <path fill="none" stroke="white" stroke-width="1.5" d="M0,-3.0v7 M-2.5,-0.5L0,-3.0L2.5,-0.5"/>
                </g>
                <g id="arrowLeft" xlink:href="#dirArrow" transform="rotate(270) translate(-36 17)" onmousedown="handlePan(-1,0)">
                  <use xlink:href="#rim" fill="#404040">
                        <set attributeName="fill" to="#808080" begin="arrowLeft.mouseover" end="arrowLeft.mouseout"/>
                  </use>
                  <path fill="none" stroke="white" stroke-width="1.5" d="M0,-3.0v7 M-2.5,-0.5L0,-3.0L2.5,-0.5"/>
                </g>
        </g>
        <svg viewBox="0 0 15 15" width="100%" height="30px" preserveAspectRatio="xMaxYMin meet">
         <g id="arrow_out" transform="scale(0.3 0.3)">
          <a xlink:href="eigen__predict__x1x_8cpp__incl_org.svg" target="_base">
           <rect id="button" ry="5" rx="5" y="6" x="6" height="38" width="38"
                fill="#f2f5e9" fill-opacity="0.5" stroke="#606060" stroke-width="1.0"/>
           <path id="arrow"
             d="M 11.500037,31.436501 C 11.940474,20.09759 22.043105,11.32322 32.158766,21.979434 L 37.068811,17.246167 C 37.068811,17.246167 37.088388,32 37.088388,32 L 22.160133,31.978069 C 22.160133,31.978069 26.997745,27.140456 26.997745,27.140456 C 18.528582,18.264221 13.291696,25.230495 11.500037,31.436501 z"
             style="fill:#404040;"/>
          </a>
         </g>
        </svg>
</svg>
