<?xml version="1.0" encoding="UTF-8" standalone="no"?>
<!DOCTYPE svg PUBLIC "-//W3C//DTD SVG 1.1//EN"
 "http://www.w3.org/Graphics/SVG/1.1/DTD/svg11.dtd">
<!-- Generated by graphviz version 3.0.0 (20220413.0242)
 -->
<!-- Title: include/fcarouge/eigen/kalman.hpp Pages: 1 -->
<svg width="624pt" height="263pt"
 viewBox="0.00 0.00 623.94 263.00" xmlns="http://www.w3.org/2000/svg" xmlns:xlink="http://www.w3.org/1999/xlink">
<g id="graph0" class="graph" transform="scale(1 1) rotate(0) translate(4 259)">
<title>include/fcarouge/eigen/kalman.hpp</title>
<polygon fill="white" stroke="transparent" points="-4,4 -4,-259 619.94,-259 619.94,4 -4,4"/>
<!-- Node1 -->
<g id="node1" class="node">
<title>Node1</title>
<g id="a_node1"><a xlink:title="Kalman operation for Eigen 3 types.">
<polygon fill="#bfbfbf" stroke="black" points="155.44,-224.5 155.44,-254.5 269.44,-254.5 269.44,-224.5 155.44,-224.5"/>
<text text-anchor="start" x="163.44" y="-242.5" font-family="Helvetica,sans-Serif" font-size="10.00">include/fcarouge/eigen</text>
<text text-anchor="middle" x="212.44" y="-231.5" font-family="Helvetica,sans-Serif" font-size="10.00">/kalman.hpp</text>
</a>
</g>
</g>
<!-- Node2 -->
<g id="node2" class="node">
<title>Node2</title>
<g id="a_node2"><a xlink:href="kalman_8hpp.xhtml" target="_top" xlink:title="The main Kalman filter class.">
<polygon fill="white" stroke="black" points="293.94,-168.5 293.94,-187.5 400.94,-187.5 400.94,-168.5 293.94,-168.5"/>
<text text-anchor="middle" x="347.44" y="-175.5" font-family="Helvetica,sans-Serif" font-size="10.00">fcarouge/kalman.hpp</text>
</a>
</g>
</g>
<!-- Node1&#45;&gt;Node2 -->
<g id="edge1" class="edge">
<title>Node1&#45;&gt;Node2</title>
<path fill="none" stroke="midnightblue" d="M244.43,-224.4C266.88,-214.51 296.66,-201.38 318.42,-191.79"/>
<polygon fill="midnightblue" stroke="midnightblue" points="320.06,-194.89 327.8,-187.66 317.24,-188.49 320.06,-194.89"/>
</g>
<!-- Node13 -->
<g id="node13" class="node">
<title>Node13</title>
<g id="a_node13"><a xlink:href="eigen_2internal_2utility_8hpp.xhtml" target="_top" xlink:title=" ">
<polygon fill="white" stroke="black" points="27.44,-112.5 27.44,-131.5 119.44,-131.5 119.44,-112.5 27.44,-112.5"/>
<text text-anchor="middle" x="73.44" y="-119.5" font-family="Helvetica,sans-Serif" font-size="10.00">internal/utility.hpp</text>
</a>
</g>
</g>
<!-- Node1&#45;&gt;Node13 -->
<g id="edge19" class="edge">
<title>Node1&#45;&gt;Node13</title>
<path fill="none" stroke="midnightblue" d="M195.4,-224.34C169.1,-202.49 118.85,-160.73 91.79,-138.24"/>
<polygon fill="midnightblue" stroke="midnightblue" points="93.8,-135.37 83.87,-131.67 89.33,-140.75 93.8,-135.37"/>
</g>
<!-- Node3 -->
<g id="node3" class="node">
<title>Node3</title>
<g id="a_node3"><a xlink:href="format_8hpp.xhtml" target="_top" xlink:title=" ">
<polygon fill="white" stroke="black" points="471.94,-112.5 471.94,-131.5 568.94,-131.5 568.94,-112.5 471.94,-112.5"/>
<text text-anchor="middle" x="520.44" y="-119.5" font-family="Helvetica,sans-Serif" font-size="10.00">internal/format.hpp</text>
</a>
</g>
</g>
<!-- Node2&#45;&gt;Node3 -->
<g id="edge2" class="edge">
<title>Node2&#45;&gt;Node3</title>
<path fill="none" stroke="midnightblue" d="M374.85,-168.44C404.21,-159.28 450.96,-144.69 483.54,-134.52"/>
<polygon fill="midnightblue" stroke="midnightblue" points="484.65,-137.84 493.16,-131.52 482.57,-131.16 484.65,-137.84"/>
</g>
<!-- Node4 -->
<g id="node4" class="node">
<title>Node4</title>
<g id="a_node4"><a xlink:href="internal_2utility_8hpp.xhtml" target="_top" xlink:title=" ">
<polygon fill="white" stroke="black" points="347.94,-56.5 347.94,-75.5 404.94,-75.5 404.94,-56.5 347.94,-56.5"/>
<text text-anchor="middle" x="376.44" y="-63.5" font-family="Helvetica,sans-Serif" font-size="10.00">utility.hpp</text>
</a>
</g>
</g>
<!-- Node2&#45;&gt;Node4 -->
<g id="edge13" class="edge">
<title>Node2&#45;&gt;Node4</title>
<path fill="none" stroke="midnightblue" d="M349.72,-168.37C354.42,-150.54 365.29,-109.3 371.62,-85.27"/>
<polygon fill="midnightblue" stroke="midnightblue" points="375.01,-86.15 374.18,-75.59 368.24,-84.37 375.01,-86.15"/>
</g>
<!-- Node5 -->
<g id="node5" class="node">
<title>Node5</title>
<g id="a_node5"><a xlink:title=" ">
<polygon fill="white" stroke="#bfbfbf" points="119.44,-0.5 119.44,-19.5 175.44,-19.5 175.44,-0.5 119.44,-0.5"/>
<text text-anchor="middle" x="147.44" y="-7.5" font-family="Helvetica,sans-Serif" font-size="10.00">concepts</text>
</a>
</g>
</g>
<!-- Node2&#45;&gt;Node5 -->
<g id="edge14" class="edge">
<title>Node2&#45;&gt;Node5</title>
<path fill="none" stroke="midnightblue" d="M293.84,-171.08C262.92,-165.35 224.86,-154.09 197.44,-132 165.54,-106.29 153.77,-56.8 149.6,-29.76"/>
<polygon fill="midnightblue" stroke="midnightblue" points="153.05,-29.12 148.25,-19.68 146.11,-30.06 153.05,-29.12"/>
</g>
<!-- Node6 -->
<g id="node6" class="node">
<title>Node6</title>
<g id="a_node6"><a xlink:title=" ">
<polygon fill="white" stroke="#bfbfbf" points="316.44,-0.5 316.44,-19.5 378.44,-19.5 378.44,-0.5 316.44,-0.5"/>
<text text-anchor="middle" x="347.44" y="-7.5" font-family="Helvetica,sans-Serif" font-size="10.00">type_traits</text>
</a>
</g>
</g>
<!-- Node2&#45;&gt;Node6 -->
<g id="edge17" class="edge">
<title>Node2&#45;&gt;Node6</title>
<path fill="none" stroke="midnightblue" d="M375.81,-168.49C393.19,-161.65 414.04,-150.13 424.44,-132 433.8,-115.69 426.16,-73.96 414.44,-56 405.48,-42.27 390.72,-31.69 377.33,-24.25"/>
<polygon fill="midnightblue" stroke="midnightblue" points="378.85,-21.1 368.36,-19.6 375.63,-27.31 378.85,-21.1"/>
</g>
<!-- Node7 -->
<g id="node7" class="node">
<title>Node7</title>
<g id="a_node7"><a xlink:title=" ">
<polygon fill="white" stroke="#bfbfbf" points="566.94,-56.5 566.94,-75.5 615.94,-75.5 615.94,-56.5 566.94,-56.5"/>
<text text-anchor="middle" x="591.44" y="-63.5" font-family="Helvetica,sans-Serif" font-size="10.00">cstddef</text>
</a>
</g>
</g>
<!-- Node2&#45;&gt;Node7 -->
<g id="edge15" class="edge">
<title>Node2&#45;&gt;Node7</title>
<path fill="none" stroke="midnightblue" d="M401.13,-173.36C461.41,-168.13 554,-156.32 578.44,-132 590.41,-120.09 592.93,-100.47 592.9,-85.9"/>
<polygon fill="midnightblue" stroke="midnightblue" points="596.38,-85.38 592.46,-75.54 589.39,-85.67 596.38,-85.38"/>
</g>
<!-- Node9 -->
<g id="node9" class="node">
<title>Node9</title>
<g id="a_node9"><a xlink:href="internal_2kalman_8hpp.xhtml" target="_top" xlink:title=" ">
<polygon fill="white" stroke="black" points="217.94,-112.5 217.94,-131.5 318.94,-131.5 318.94,-112.5 217.94,-112.5"/>
<text text-anchor="middle" x="268.44" y="-119.5" font-family="Helvetica,sans-Serif" font-size="10.00">internal/kalman.hpp</text>
</a>
</g>
</g>
<!-- Node2&#45;&gt;Node9 -->
<g id="edge8" class="edge">
<title>Node2&#45;&gt;Node9</title>
<path fill="none" stroke="midnightblue" d="M334.75,-168.32C322.54,-159.98 303.86,-147.21 289.44,-137.35"/>
<polygon fill="midnightblue" stroke="midnightblue" points="291.33,-134.41 281.1,-131.65 287.38,-140.19 291.33,-134.41"/>
</g>
<!-- Node10 -->
<g id="node10" class="node">
<title>Node10</title>
<g id="a_node10"><a xlink:title=" ">
<polygon fill="white" stroke="#bfbfbf" points="175.94,-56.5 175.94,-75.5 234.94,-75.5 234.94,-56.5 175.94,-56.5"/>
<text text-anchor="middle" x="205.44" y="-63.5" font-family="Helvetica,sans-Serif" font-size="10.00">functional</text>
</a>
</g>
</g>
<!-- Node2&#45;&gt;Node10 -->
<g id="edge16" class="edge">
<title>Node2&#45;&gt;Node10</title>
<path fill="none" stroke="midnightblue" d="M293.76,-174.02C263.71,-169.32 228.37,-158.11 208.44,-132 198.49,-118.96 198.86,-99.81 201.05,-85.66"/>
<polygon fill="midnightblue" stroke="midnightblue" points="204.53,-86.1 203.03,-75.61 197.66,-84.75 204.53,-86.1"/>
</g>
<!-- Node12 -->
<g id="node12" class="node">
<title>Node12</title>
<g id="a_node12"><a xlink:title=" ">
<polygon fill="white" stroke="#bfbfbf" points="375.94,-112.5 375.94,-131.5 414.94,-131.5 414.94,-112.5 375.94,-112.5"/>
<text text-anchor="middle" x="395.44" y="-119.5" font-family="Helvetica,sans-Serif" font-size="10.00">utility</text>
</a>
</g>
</g>
<!-- Node2&#45;&gt;Node12 -->
<g id="edge18" class="edge">
<title>Node2&#45;&gt;Node12</title>
<path fill="none" stroke="midnightblue" d="M355.37,-168.08C362.29,-160.3 372.51,-148.8 380.89,-139.37"/>
<polygon fill="midnightblue" stroke="midnightblue" points="383.63,-141.55 387.66,-131.75 378.4,-136.9 383.63,-141.55"/>
</g>
<!-- Node3&#45;&gt;Node4 -->
<g id="edge3" class="edge">
<title>Node3&#45;&gt;Node4</title>
<path fill="none" stroke="midnightblue" d="M497.62,-112.44C473.61,-103.44 435.61,-89.19 408.57,-79.05"/>
<polygon fill="midnightblue" stroke="midnightblue" points="409.74,-75.75 399.15,-75.52 407.29,-82.3 409.74,-75.75"/>
</g>
<!-- Node3&#45;&gt;Node7 -->
<g id="edge6" class="edge">
<title>Node3&#45;&gt;Node7</title>
<path fill="none" stroke="midnightblue" d="M531.85,-112.32C542.55,-104.18 558.78,-91.84 571.6,-82.09"/>
<polygon fill="midnightblue" stroke="midnightblue" points="573.99,-84.67 579.83,-75.83 569.75,-79.1 573.99,-84.67"/>
</g>
<!-- Node8 -->
<g id="node8" class="node">
<title>Node8</title>
<g id="a_node8"><a xlink:title=" ">
<polygon fill="white" stroke="#bfbfbf" points="498.44,-56.5 498.44,-75.5 542.44,-75.5 542.44,-56.5 498.44,-56.5"/>
<text text-anchor="middle" x="520.44" y="-63.5" font-family="Helvetica,sans-Serif" font-size="10.00">format</text>
</a>
</g>
</g>
<!-- Node3&#45;&gt;Node8 -->
<g id="edge7" class="edge">
<title>Node3&#45;&gt;Node8</title>
<path fill="none" stroke="midnightblue" d="M520.44,-112.08C520.44,-105.01 520.44,-94.86 520.44,-85.99"/>
<polygon fill="midnightblue" stroke="midnightblue" points="523.94,-85.75 520.44,-75.75 516.94,-85.75 523.94,-85.75"/>
</g>
<!-- Node4&#45;&gt;Node5 -->
<g id="edge4" class="edge">
<title>Node4&#45;&gt;Node5</title>
<path fill="none" stroke="midnightblue" d="M347.9,-58.27C306.88,-48.6 231.17,-30.74 185.45,-19.96"/>
<polygon fill="midnightblue" stroke="midnightblue" points="186.16,-16.53 175.62,-17.65 184.55,-23.35 186.16,-16.53"/>
</g>
<!-- Node4&#45;&gt;Node6 -->
<g id="edge5" class="edge">
<title>Node4&#45;&gt;Node6</title>
<path fill="none" stroke="midnightblue" d="M371.65,-56.08C367.68,-48.69 361.92,-37.95 357.01,-28.81"/>
<polygon fill="midnightblue" stroke="midnightblue" points="359.96,-26.91 352.14,-19.75 353.79,-30.22 359.96,-26.91"/>
</g>
<!-- Node9&#45;&gt;Node4 -->
<g id="edge9" class="edge">
<title>Node9&#45;&gt;Node4</title>
<path fill="none" stroke="midnightblue" d="M285.79,-112.32C303.11,-103.66 329.96,-90.24 349.94,-80.25"/>
<polygon fill="midnightblue" stroke="midnightblue" points="351.75,-83.26 359.13,-75.65 348.62,-77 351.75,-83.26"/>
</g>
<!-- Node9&#45;&gt;Node6 -->
<g id="edge12" class="edge">
<title>Node9&#45;&gt;Node6</title>
<path fill="none" stroke="midnightblue" d="M274.64,-112.37C287.68,-94.22 318.14,-51.8 335.24,-27.99"/>
<polygon fill="midnightblue" stroke="midnightblue" points="338.28,-29.76 341.27,-19.59 332.59,-25.67 338.28,-29.76"/>
</g>
<!-- Node9&#45;&gt;Node10 -->
<g id="edge10" class="edge">
<title>Node9&#45;&gt;Node10</title>
<path fill="none" stroke="midnightblue" d="M258.32,-112.32C248.91,-104.26 234.7,-92.08 223.37,-82.37"/>
<polygon fill="midnightblue" stroke="midnightblue" points="225.62,-79.68 215.75,-75.83 221.06,-85 225.62,-79.68"/>
</g>
<!-- Node11 -->
<g id="node11" class="node">
<title>Node11</title>
<g id="a_node11"><a xlink:title=" ">
<polygon fill="white" stroke="#bfbfbf" points="253.44,-56.5 253.44,-75.5 291.44,-75.5 291.44,-56.5 253.44,-56.5"/>
<text text-anchor="middle" x="272.44" y="-63.5" font-family="Helvetica,sans-Serif" font-size="10.00">tuple</text>
</a>
</g>
</g>
<!-- Node9&#45;&gt;Node11 -->
<g id="edge11" class="edge">
<title>Node9&#45;&gt;Node11</title>
<path fill="none" stroke="midnightblue" d="M269.1,-112.08C269.63,-105.01 270.38,-94.86 271.03,-85.99"/>
<polygon fill="midnightblue" stroke="midnightblue" points="274.54,-85.98 271.79,-75.75 267.56,-85.47 274.54,-85.98"/>
</g>
<!-- Node13&#45;&gt;Node5 -->
<g id="edge21" class="edge">
<title>Node13&#45;&gt;Node5</title>
<path fill="none" stroke="midnightblue" d="M51.52,-112.37C25.47,-100.82 -12.5,-79.09 4.44,-56 28.2,-23.62 75.27,-13.93 108.92,-11.33"/>
<polygon fill="midnightblue" stroke="midnightblue" points="109.55,-14.8 119.32,-10.72 109.13,-7.81 109.55,-14.8"/>
</g>
<!-- Node13&#45;&gt;Node6 -->
<g id="edge23" class="edge">
<title>Node13&#45;&gt;Node6</title>
<path fill="none" stroke="midnightblue" d="M83.02,-112.48C99.11,-98.61 133.09,-71.17 166.44,-56 211.97,-35.29 268.46,-23.19 306.1,-16.85"/>
<polygon fill="midnightblue" stroke="midnightblue" points="306.89,-20.27 316.2,-15.21 305.76,-13.36 306.89,-20.27"/>
</g>
<!-- Node13&#45;&gt;Node10 -->
<g id="edge22" class="edge">
<title>Node13&#45;&gt;Node10</title>
<path fill="none" stroke="midnightblue" d="M94.36,-112.44C116.18,-103.52 150.59,-89.44 175.33,-79.32"/>
<polygon fill="midnightblue" stroke="midnightblue" points="176.69,-82.54 184.62,-75.52 174.04,-76.06 176.69,-82.54"/>
</g>
<!-- Node14 -->
<g id="node14" class="node">
<title>Node14</title>
<g id="a_node14"><a xlink:title=" ">
<polygon fill="white" stroke="#bfbfbf" points="13.44,-56.5 13.44,-75.5 81.44,-75.5 81.44,-56.5 13.44,-56.5"/>
<text text-anchor="middle" x="47.44" y="-63.5" font-family="Helvetica,sans-Serif" font-size="10.00">Eigen/Eigen</text>
</a>
</g>
</g>
<!-- Node13&#45;&gt;Node14 -->
<g id="edge20" class="edge">
<title>Node13&#45;&gt;Node14</title>
<path fill="none" stroke="midnightblue" d="M69.15,-112.08C65.59,-104.69 60.42,-93.95 56.02,-84.81"/>
<polygon fill="midnightblue" stroke="midnightblue" points="59.15,-83.24 51.65,-75.75 52.84,-86.28 59.15,-83.24"/>
</g>
</g>
</svg>
