<?xml version="1.0" encoding="UTF-8" standalone="no"?>
<!DOCTYPE svg PUBLIC "-//W3C//DTD SVG 1.1//EN"
 "http://www.w3.org/Graphics/SVG/1.1/DTD/svg11.dtd">
<!-- Generated by graphviz version 3.0.0 (20220413.0242)
 -->
<!-- Title: sample/ekf_4x1x0_soaring.cpp Pages: 1 -->
<svg width="736pt" height="308pt"
 viewBox="0.00 0.00 736.23 308.00" xmlns="http://www.w3.org/2000/svg" xmlns:xlink="http://www.w3.org/1999/xlink">
<g id="graph0" class="graph" transform="scale(1 1) rotate(0) translate(4 304)">
<title>sample/ekf_4x1x0_soaring.cpp</title>
<polygon fill="white" stroke="transparent" points="-4,4 -4,-304 732.23,-304 732.23,4 -4,4"/>
<!-- Node1 -->
<g id="node1" class="node">
<title>Node1</title>
<g id="a_node1"><a xlink:title=" ">
<polygon fill="#bfbfbf" stroke="black" points="539.73,-280.5 539.73,-299.5 688.73,-299.5 688.73,-280.5 539.73,-280.5"/>
<text text-anchor="middle" x="614.23" y="-287.5" font-family="Helvetica,sans-Serif" font-size="10.00">sample/ekf_4x1x0_soaring.cpp</text>
</a>
</g>
</g>
<!-- Node2 -->
<g id="node2" class="node">
<title>Node2</title>
<g id="a_node2"><a xlink:href="eigen_2kalman_8hpp.xhtml" target="_top" xlink:title="Kalman operation for Eigen 3 types.">
<polygon fill="white" stroke="black" points="426.73,-224.5 426.73,-243.5 559.73,-243.5 559.73,-224.5 426.73,-224.5"/>
<text text-anchor="middle" x="493.23" y="-231.5" font-family="Helvetica,sans-Serif" font-size="10.00">fcarouge/eigen/kalman.hpp</text>
</a>
</g>
</g>
<!-- Node1&#45;&gt;Node2 -->
<g id="edge1" class="edge">
<title>Node1&#45;&gt;Node2</title>
<path fill="none" stroke="midnightblue" d="M595.05,-280.44C575.32,-271.64 544.34,-257.81 521.73,-247.72"/>
<polygon fill="midnightblue" stroke="midnightblue" points="522.87,-244.4 512.31,-243.52 520.01,-250.79 522.87,-244.4"/>
</g>
<!-- Node15 -->
<g id="node15" class="node">
<title>Node15</title>
<g id="a_node15"><a xlink:title=" ">
<polygon fill="white" stroke="#bfbfbf" points="549.23,-56.5 549.23,-75.5 617.23,-75.5 617.23,-56.5 549.23,-56.5"/>
<text text-anchor="middle" x="583.23" y="-63.5" font-family="Helvetica,sans-Serif" font-size="10.00">Eigen/Eigen</text>
</a>
</g>
</g>
<!-- Node1&#45;&gt;Node15 -->
<g id="edge25" class="edge">
<title>Node1&#45;&gt;Node15</title>
<path fill="none" stroke="midnightblue" d="M613.01,-280.3C608.45,-247.63 592.28,-131.87 585.87,-85.96"/>
<polygon fill="midnightblue" stroke="midnightblue" points="589.32,-85.3 584.47,-75.88 582.38,-86.27 589.32,-85.3"/>
</g>
<!-- Node16 -->
<g id="node16" class="node">
<title>Node16</title>
<g id="a_node16"><a xlink:title=" ">
<polygon fill="white" stroke="#bfbfbf" points="616.73,-224.5 616.73,-243.5 665.73,-243.5 665.73,-224.5 616.73,-224.5"/>
<text text-anchor="middle" x="641.23" y="-231.5" font-family="Helvetica,sans-Serif" font-size="10.00">cassert</text>
</a>
</g>
</g>
<!-- Node1&#45;&gt;Node16 -->
<g id="edge26" class="edge">
<title>Node1&#45;&gt;Node16</title>
<path fill="none" stroke="midnightblue" d="M618.68,-280.08C622.38,-272.69 627.75,-261.95 632.32,-252.81"/>
<polygon fill="midnightblue" stroke="midnightblue" points="635.51,-254.26 636.85,-243.75 629.25,-251.13 635.51,-254.26"/>
</g>
<!-- Node17 -->
<g id="node17" class="node">
<title>Node17</title>
<g id="a_node17"><a xlink:title=" ">
<polygon fill="white" stroke="#bfbfbf" points="684.23,-224.5 684.23,-243.5 728.23,-243.5 728.23,-224.5 684.23,-224.5"/>
<text text-anchor="middle" x="706.23" y="-231.5" font-family="Helvetica,sans-Serif" font-size="10.00">cmath</text>
</a>
</g>
</g>
<!-- Node1&#45;&gt;Node17 -->
<g id="edge27" class="edge">
<title>Node1&#45;&gt;Node17</title>
<path fill="none" stroke="midnightblue" d="M629.01,-280.32C643.49,-271.82 665.8,-258.73 682.72,-248.8"/>
<polygon fill="midnightblue" stroke="midnightblue" points="684.63,-251.74 691.48,-243.65 681.08,-245.7 684.63,-251.74"/>
</g>
<!-- Node3 -->
<g id="node3" class="node">
<title>Node3</title>
<g id="a_node3"><a xlink:href="kalman_8hpp.xhtml" target="_top" xlink:title="The main Kalman filter class.">
<polygon fill="white" stroke="black" points="186.73,-168.5 186.73,-187.5 293.73,-187.5 293.73,-168.5 186.73,-168.5"/>
<text text-anchor="middle" x="240.23" y="-175.5" font-family="Helvetica,sans-Serif" font-size="10.00">fcarouge/kalman.hpp</text>
</a>
</g>
</g>
<!-- Node2&#45;&gt;Node3 -->
<g id="edge2" class="edge">
<title>Node2&#45;&gt;Node3</title>
<path fill="none" stroke="midnightblue" d="M453.14,-224.44C408.91,-215 337.69,-199.8 289.94,-189.61"/>
<polygon fill="midnightblue" stroke="midnightblue" points="290.64,-186.18 280.13,-187.52 289.18,-193.03 290.64,-186.18"/>
</g>
<!-- Node14 -->
<g id="node14" class="node">
<title>Node14</title>
<g id="a_node14"><a xlink:href="eigen_2internal_2utility_8hpp.xhtml" target="_top" xlink:title=" ">
<polygon fill="white" stroke="black" points="468.23,-112.5 468.23,-131.5 560.23,-131.5 560.23,-112.5 468.23,-112.5"/>
<text text-anchor="middle" x="514.23" y="-119.5" font-family="Helvetica,sans-Serif" font-size="10.00">internal/utility.hpp</text>
</a>
</g>
</g>
<!-- Node2&#45;&gt;Node14 -->
<g id="edge20" class="edge">
<title>Node2&#45;&gt;Node14</title>
<path fill="none" stroke="midnightblue" d="M494.87,-224.37C498.26,-206.62 506.08,-165.67 510.67,-141.6"/>
<polygon fill="midnightblue" stroke="midnightblue" points="514.15,-142.07 512.59,-131.59 507.27,-140.76 514.15,-142.07"/>
</g>
<!-- Node4 -->
<g id="node4" class="node">
<title>Node4</title>
<g id="a_node4"><a xlink:href="format_8hpp.xhtml" target="_top" xlink:title=" ">
<polygon fill="white" stroke="black" points="57.73,-112.5 57.73,-131.5 154.73,-131.5 154.73,-112.5 57.73,-112.5"/>
<text text-anchor="middle" x="106.23" y="-119.5" font-family="Helvetica,sans-Serif" font-size="10.00">internal/format.hpp</text>
</a>
</g>
</g>
<!-- Node3&#45;&gt;Node4 -->
<g id="edge3" class="edge">
<title>Node3&#45;&gt;Node4</title>
<path fill="none" stroke="midnightblue" d="M218.99,-168.44C196.84,-159.52 161.91,-145.44 136.79,-135.32"/>
<polygon fill="midnightblue" stroke="midnightblue" points="137.94,-132.01 127.36,-131.52 135.33,-138.5 137.94,-132.01"/>
</g>
<!-- Node5 -->
<g id="node5" class="node">
<title>Node5</title>
<g id="a_node5"><a xlink:href="internal_2utility_8hpp.xhtml" target="_top" xlink:title=" ">
<polygon fill="white" stroke="black" points="182.73,-56.5 182.73,-75.5 239.73,-75.5 239.73,-56.5 182.73,-56.5"/>
<text text-anchor="middle" x="211.23" y="-63.5" font-family="Helvetica,sans-Serif" font-size="10.00">utility.hpp</text>
</a>
</g>
</g>
<!-- Node3&#45;&gt;Node5 -->
<g id="edge14" class="edge">
<title>Node3&#45;&gt;Node5</title>
<path fill="none" stroke="midnightblue" d="M237.95,-168.37C233.25,-150.54 222.38,-109.3 216.04,-85.27"/>
<polygon fill="midnightblue" stroke="midnightblue" points="219.42,-84.37 213.49,-75.59 212.66,-86.15 219.42,-84.37"/>
</g>
<!-- Node6 -->
<g id="node6" class="node">
<title>Node6</title>
<g id="a_node6"><a xlink:title=" ">
<polygon fill="white" stroke="#bfbfbf" points="412.23,-0.5 412.23,-19.5 468.23,-19.5 468.23,-0.5 412.23,-0.5"/>
<text text-anchor="middle" x="440.23" y="-7.5" font-family="Helvetica,sans-Serif" font-size="10.00">concepts</text>
</a>
</g>
</g>
<!-- Node3&#45;&gt;Node6 -->
<g id="edge15" class="edge">
<title>Node3&#45;&gt;Node6</title>
<path fill="none" stroke="midnightblue" d="M294.07,-172.86C326.94,-167.79 367.94,-156.6 396.23,-132 426.63,-105.56 436.03,-56.36 438.93,-29.57"/>
<polygon fill="midnightblue" stroke="midnightblue" points="442.42,-29.86 439.82,-19.59 435.45,-29.24 442.42,-29.86"/>
</g>
<!-- Node7 -->
<g id="node7" class="node">
<title>Node7</title>
<g id="a_node7"><a xlink:title=" ">
<polygon fill="white" stroke="#bfbfbf" points="209.23,-0.5 209.23,-19.5 271.23,-19.5 271.23,-0.5 209.23,-0.5"/>
<text text-anchor="middle" x="240.23" y="-7.5" font-family="Helvetica,sans-Serif" font-size="10.00">type_traits</text>
</a>
</g>
</g>
<!-- Node3&#45;&gt;Node7 -->
<g id="edge18" class="edge">
<title>Node3&#45;&gt;Node7</title>
<path fill="none" stroke="midnightblue" d="M186.69,-170.63C134.27,-163.45 59.06,-150.34 36.23,-132 8.39,-109.65 -12.47,-83.56 10.23,-56 33.65,-27.55 139.06,-16.83 198.72,-13"/>
<polygon fill="midnightblue" stroke="midnightblue" points="199.17,-16.48 208.94,-12.38 198.75,-9.49 199.17,-16.48"/>
</g>
<!-- Node8 -->
<g id="node8" class="node">
<title>Node8</title>
<g id="a_node8"><a xlink:title=" ">
<polygon fill="white" stroke="#bfbfbf" points="19.73,-56.5 19.73,-75.5 68.73,-75.5 68.73,-56.5 19.73,-56.5"/>
<text text-anchor="middle" x="44.23" y="-63.5" font-family="Helvetica,sans-Serif" font-size="10.00">cstddef</text>
</a>
</g>
</g>
<!-- Node3&#45;&gt;Node8 -->
<g id="edge16" class="edge">
<title>Node3&#45;&gt;Node8</title>
<path fill="none" stroke="midnightblue" d="M186.45,-171.53C136.03,-165.2 65.84,-152.87 48.23,-132 37.64,-119.46 37.77,-100.23 39.87,-85.94"/>
<polygon fill="midnightblue" stroke="midnightblue" points="43.38,-86.24 41.81,-75.76 36.5,-84.93 43.38,-86.24"/>
</g>
<!-- Node10 -->
<g id="node10" class="node">
<title>Node10</title>
<g id="a_node10"><a xlink:href="internal_2kalman_8hpp.xhtml" target="_top" xlink:title=" ">
<polygon fill="white" stroke="black" points="268.73,-112.5 268.73,-131.5 369.73,-131.5 369.73,-112.5 268.73,-112.5"/>
<text text-anchor="middle" x="319.23" y="-119.5" font-family="Helvetica,sans-Serif" font-size="10.00">internal/kalman.hpp</text>
</a>
</g>
</g>
<!-- Node3&#45;&gt;Node10 -->
<g id="edge9" class="edge">
<title>Node3&#45;&gt;Node10</title>
<path fill="none" stroke="midnightblue" d="M252.92,-168.32C265.13,-159.98 283.8,-147.21 298.23,-137.35"/>
<polygon fill="midnightblue" stroke="midnightblue" points="300.28,-140.19 306.56,-131.65 296.33,-134.41 300.28,-140.19"/>
</g>
<!-- Node11 -->
<g id="node11" class="node">
<title>Node11</title>
<g id="a_node11"><a xlink:title=" ">
<polygon fill="white" stroke="#bfbfbf" points="352.73,-56.5 352.73,-75.5 411.73,-75.5 411.73,-56.5 352.73,-56.5"/>
<text text-anchor="middle" x="382.23" y="-63.5" font-family="Helvetica,sans-Serif" font-size="10.00">functional</text>
</a>
</g>
</g>
<!-- Node3&#45;&gt;Node11 -->
<g id="edge17" class="edge">
<title>Node3&#45;&gt;Node11</title>
<path fill="none" stroke="midnightblue" d="M293.91,-174.02C323.96,-169.32 359.3,-158.11 379.23,-132 389.18,-118.96 388.8,-99.81 386.62,-85.66"/>
<polygon fill="midnightblue" stroke="midnightblue" points="390.01,-84.75 384.64,-75.61 383.14,-86.1 390.01,-84.75"/>
</g>
<!-- Node13 -->
<g id="node13" class="node">
<title>Node13</title>
<g id="a_node13"><a xlink:title=" ">
<polygon fill="white" stroke="#bfbfbf" points="172.73,-112.5 172.73,-131.5 211.73,-131.5 211.73,-112.5 172.73,-112.5"/>
<text text-anchor="middle" x="192.23" y="-119.5" font-family="Helvetica,sans-Serif" font-size="10.00">utility</text>
</a>
</g>
</g>
<!-- Node3&#45;&gt;Node13 -->
<g id="edge19" class="edge">
<title>Node3&#45;&gt;Node13</title>
<path fill="none" stroke="midnightblue" d="M232.3,-168.08C225.38,-160.3 215.16,-148.8 206.77,-139.37"/>
<polygon fill="midnightblue" stroke="midnightblue" points="209.26,-136.9 200,-131.75 204.03,-141.55 209.26,-136.9"/>
</g>
<!-- Node4&#45;&gt;Node5 -->
<g id="edge4" class="edge">
<title>Node4&#45;&gt;Node5</title>
<path fill="none" stroke="midnightblue" d="M123.1,-112.32C139.93,-103.66 166.03,-90.24 185.46,-80.25"/>
<polygon fill="midnightblue" stroke="midnightblue" points="187.1,-83.34 194.4,-75.65 183.9,-77.12 187.1,-83.34"/>
</g>
<!-- Node4&#45;&gt;Node8 -->
<g id="edge7" class="edge">
<title>Node4&#45;&gt;Node8</title>
<path fill="none" stroke="midnightblue" d="M96.26,-112.32C87.1,-104.34 73.29,-92.31 62.2,-82.65"/>
<polygon fill="midnightblue" stroke="midnightblue" points="64.21,-79.76 54.37,-75.83 59.61,-85.04 64.21,-79.76"/>
</g>
<!-- Node9 -->
<g id="node9" class="node">
<title>Node9</title>
<g id="a_node9"><a xlink:title=" ">
<polygon fill="white" stroke="#bfbfbf" points="87.23,-56.5 87.23,-75.5 131.23,-75.5 131.23,-56.5 87.23,-56.5"/>
<text text-anchor="middle" x="109.23" y="-63.5" font-family="Helvetica,sans-Serif" font-size="10.00">format</text>
</a>
</g>
</g>
<!-- Node4&#45;&gt;Node9 -->
<g id="edge8" class="edge">
<title>Node4&#45;&gt;Node9</title>
<path fill="none" stroke="midnightblue" d="M106.72,-112.08C107.11,-105.01 107.68,-94.86 108.17,-85.99"/>
<polygon fill="midnightblue" stroke="midnightblue" points="111.68,-85.93 108.74,-75.75 104.69,-85.54 111.68,-85.93"/>
</g>
<!-- Node5&#45;&gt;Node6 -->
<g id="edge5" class="edge">
<title>Node5&#45;&gt;Node6</title>
<path fill="none" stroke="midnightblue" d="M239.77,-58.27C280.79,-48.6 356.49,-30.74 402.21,-19.96"/>
<polygon fill="midnightblue" stroke="midnightblue" points="403.12,-23.35 412.04,-17.65 401.51,-16.53 403.12,-23.35"/>
</g>
<!-- Node5&#45;&gt;Node7 -->
<g id="edge6" class="edge">
<title>Node5&#45;&gt;Node7</title>
<path fill="none" stroke="midnightblue" d="M216.01,-56.08C219.98,-48.69 225.75,-37.95 230.66,-28.81"/>
<polygon fill="midnightblue" stroke="midnightblue" points="233.88,-30.22 235.53,-19.75 227.71,-26.91 233.88,-30.22"/>
</g>
<!-- Node10&#45;&gt;Node5 -->
<g id="edge10" class="edge">
<title>Node10&#45;&gt;Node5</title>
<path fill="none" stroke="midnightblue" d="M301.87,-112.32C284.55,-103.66 257.71,-90.24 237.72,-80.25"/>
<polygon fill="midnightblue" stroke="midnightblue" points="239.04,-77 228.53,-75.65 235.91,-83.26 239.04,-77"/>
</g>
<!-- Node10&#45;&gt;Node7 -->
<g id="edge13" class="edge">
<title>Node10&#45;&gt;Node7</title>
<path fill="none" stroke="midnightblue" d="M313.03,-112.37C299.99,-94.22 269.53,-51.8 252.43,-27.99"/>
<polygon fill="midnightblue" stroke="midnightblue" points="255.07,-25.67 246.4,-19.59 249.39,-29.76 255.07,-25.67"/>
</g>
<!-- Node10&#45;&gt;Node11 -->
<g id="edge11" class="edge">
<title>Node10&#45;&gt;Node11</title>
<path fill="none" stroke="midnightblue" d="M329.35,-112.32C338.75,-104.26 352.97,-92.08 364.29,-82.37"/>
<polygon fill="midnightblue" stroke="midnightblue" points="366.6,-85 371.92,-75.83 362.05,-79.68 366.6,-85"/>
</g>
<!-- Node12 -->
<g id="node12" class="node">
<title>Node12</title>
<g id="a_node12"><a xlink:title=" ">
<polygon fill="white" stroke="#bfbfbf" points="296.23,-56.5 296.23,-75.5 334.23,-75.5 334.23,-56.5 296.23,-56.5"/>
<text text-anchor="middle" x="315.23" y="-63.5" font-family="Helvetica,sans-Serif" font-size="10.00">tuple</text>
</a>
</g>
</g>
<!-- Node10&#45;&gt;Node12 -->
<g id="edge12" class="edge">
<title>Node10&#45;&gt;Node12</title>
<path fill="none" stroke="midnightblue" d="M318.56,-112.08C318.04,-105.01 317.29,-94.86 316.63,-85.99"/>
<polygon fill="midnightblue" stroke="midnightblue" points="320.1,-85.47 315.87,-75.75 313.12,-85.98 320.1,-85.47"/>
</g>
<!-- Node14&#45;&gt;Node6 -->
<g id="edge22" class="edge">
<title>Node14&#45;&gt;Node6</title>
<path fill="none" stroke="midnightblue" d="M512.81,-112.36C510.34,-99.26 504.32,-73.99 492.23,-56 484.32,-44.23 472.55,-33.7 462.22,-25.79"/>
<polygon fill="midnightblue" stroke="midnightblue" points="464.13,-22.85 453.99,-19.79 460.01,-28.51 464.13,-22.85"/>
</g>
<!-- Node14&#45;&gt;Node7 -->
<g id="edge24" class="edge">
<title>Node14&#45;&gt;Node7</title>
<path fill="none" stroke="midnightblue" d="M504.65,-112.48C488.56,-98.61 454.58,-71.17 421.23,-56 375.69,-35.29 319.21,-23.19 281.56,-16.85"/>
<polygon fill="midnightblue" stroke="midnightblue" points="281.9,-13.36 271.47,-15.21 280.78,-20.27 281.9,-13.36"/>
</g>
<!-- Node14&#45;&gt;Node11 -->
<g id="edge23" class="edge">
<title>Node14&#45;&gt;Node11</title>
<path fill="none" stroke="midnightblue" d="M493.31,-112.44C471.49,-103.52 437.08,-89.44 412.33,-79.32"/>
<polygon fill="midnightblue" stroke="midnightblue" points="413.62,-76.06 403.04,-75.52 410.97,-82.54 413.62,-76.06"/>
</g>
<!-- Node14&#45;&gt;Node15 -->
<g id="edge21" class="edge">
<title>Node14&#45;&gt;Node15</title>
<path fill="none" stroke="midnightblue" d="M525.31,-112.32C535.71,-104.18 551.49,-91.84 563.95,-82.09"/>
<polygon fill="midnightblue" stroke="midnightblue" points="566.22,-84.75 571.94,-75.83 561.91,-79.24 566.22,-84.75"/>
</g>
</g>
</svg>
