<?xml version="1.0" encoding="UTF-8" standalone="no"?>
<!DOCTYPE svg PUBLIC "-//W3C//DTD SVG 1.1//EN"
 "http://www.w3.org/Graphics/SVG/1.1/DTD/svg11.dtd">
<!-- Generated by graphviz version 12.2.0 (20241103.1931)
 -->
<!-- Title: /github/workspace/include/fcarouge/internal/factory.hpp Pages: 1 -->
<svg width="1171pt" height="282pt"
 viewBox="0.00 0.00 1170.65 282.00" xmlns="http://www.w3.org/2000/svg" xmlns:xlink="http://www.w3.org/1999/xlink">
<g id="graph0" class="graph" transform="scale(1 1) rotate(0) translate(4 278)">
<title>/github/workspace/include/fcarouge/internal/factory.hpp</title>
<!-- Node1 -->
<g id="Node000001" class="node">
<title>Node1</title>
<g id="a_Node000001"><a xlink:title=" ">
<polygon fill="#999999" stroke="#666666" points="555.15,-274 413.9,-274 413.9,-243.5 555.15,-243.5 555.15,-274"/>
<text text-anchor="start" x="421.9" y="-260.5" font-family="Helvetica,sans-Serif" font-size="10.00">/github/workspace/include</text>
<text text-anchor="middle" x="484.53" y="-249.25" font-family="Helvetica,sans-Serif" font-size="10.00">/fcarouge/internal/factory.hpp</text>
</a>
</g>
</g>
<!-- Node2 -->
<g id="Node000002" class="node">
<title>Node2</title>
<g id="a_Node000002"><a xlink:href="type_8hpp.xhtml" target="_top" xlink:title=" ">
<polygon fill="white" stroke="#666666" points="152.03,-196.25 25.03,-196.25 25.03,-177 152.03,-177 152.03,-196.25"/>
<text text-anchor="middle" x="88.53" y="-182.75" font-family="Helvetica,sans-Serif" font-size="10.00">fcarouge/internal/type.hpp</text>
</a>
</g>
</g>
<!-- Node1&#45;&gt;Node2 -->
<g id="edge1_Node000001_Node000002" class="edge">
<title>Node1&#45;&gt;Node2</title>
<g id="a_edge1_Node000001_Node000002"><a xlink:title=" ">
<path fill="none" stroke="#63b8ff" d="M413.46,-248.44C348.79,-239.52 250.83,-224.86 166.53,-207.5 155.34,-205.2 143.34,-202.34 132.19,-199.51"/>
<polygon fill="#63b8ff" stroke="#63b8ff" points="133.41,-196.21 122.86,-197.1 131.66,-202.99 133.41,-196.21"/>
</a>
</g>
</g>
<!-- Node5 -->
<g id="Node000005" class="node">
<title>Node5</title>
<g id="a_Node000005"><a xlink:title=" ">
<polygon fill="#e0e0e0" stroke="#999999" points="346.4,-19.25 290.65,-19.25 290.65,0 346.4,0 346.4,-19.25"/>
<text text-anchor="middle" x="318.53" y="-5.75" font-family="Helvetica,sans-Serif" font-size="10.00">concepts</text>
</a>
</g>
</g>
<!-- Node1&#45;&gt;Node5 -->
<g id="edge39_Node000001_Node000005" class="edge">
<title>Node1&#45;&gt;Node5</title>
<g id="a_edge39_Node000001_Node000005"><a xlink:title=" ">
<path fill="none" stroke="#63b8ff" d="M413.56,-255.33C338.21,-251.09 226.33,-239.44 199.53,-207.5 148.36,-146.52 249.01,-61.15 296.09,-26.34"/>
<polygon fill="#63b8ff" stroke="#63b8ff" points="297.97,-29.29 304.02,-20.59 293.87,-23.62 297.97,-29.29"/>
</a>
</g>
</g>
<!-- Node8 -->
<g id="Node000008" class="node">
<title>Node8</title>
<g id="a_Node000008"><a xlink:title=" ">
<polygon fill="#e0e0e0" stroke="#999999" points="164.03,-19.25 103.03,-19.25 103.03,0 164.03,0 164.03,-19.25"/>
<text text-anchor="middle" x="133.53" y="-5.75" font-family="Helvetica,sans-Serif" font-size="10.00">type_traits</text>
</a>
</g>
</g>
<!-- Node1&#45;&gt;Node8 -->
<g id="edge40_Node000001_Node000008" class="edge">
<title>Node1&#45;&gt;Node8</title>
<g id="a_edge40_Node000001_Node000008"><a xlink:title=" ">
<path fill="none" stroke="#63b8ff" d="M413.74,-255.28C289.22,-250.21 41.63,-236.55 15.53,-207.5 -37.68,-148.28 64.03,-61.58 111.26,-26.37"/>
<polygon fill="#63b8ff" stroke="#63b8ff" points="113.21,-29.28 119.22,-20.55 109.08,-23.63 113.21,-29.28"/>
</a>
</g>
</g>
<!-- Node11 -->
<g id="Node000011" class="node">
<title>Node11</title>
<g id="a_Node000011"><a xlink:href="x__z__p__q__r__h__f_8hpp.xhtml" target="_top" xlink:title=" ">
<polygon fill="white" stroke="#666666" points="418.28,-201.88 322.78,-201.88 322.78,-171.38 418.28,-171.38 418.28,-201.88"/>
<text text-anchor="start" x="330.78" y="-188.38" font-family="Helvetica,sans-Serif" font-size="10.00">fcarouge/internal/x</text>
<text text-anchor="middle" x="370.53" y="-177.12" font-family="Helvetica,sans-Serif" font-size="10.00">_z_p_q_r_h_f.hpp</text>
</a>
</g>
</g>
<!-- Node1&#45;&gt;Node11 -->
<g id="edge12_Node000001_Node000011" class="edge">
<title>Node1&#45;&gt;Node11</title>
<g id="a_edge12_Node000001_Node000011"><a xlink:title=" ">
<path fill="none" stroke="#63b8ff" d="M460.63,-243.05C444.21,-232.95 422.19,-219.4 404.03,-208.23"/>
<polygon fill="#63b8ff" stroke="#63b8ff" points="406.04,-205.36 395.68,-203.1 402.37,-211.32 406.04,-205.36"/>
</a>
</g>
</g>
<!-- Node12 -->
<g id="Node000012" class="node">
<title>Node12</title>
<g id="a_Node000012"><a xlink:href="x__z__p__q__r__hh__us__ps_8hpp.xhtml" target="_top" xlink:title=" ">
<polygon fill="white" stroke="#666666" points="1162.65,-201.88 1042.4,-201.88 1042.4,-171.38 1162.65,-171.38 1162.65,-201.88"/>
<text text-anchor="start" x="1050.4" y="-188.38" font-family="Helvetica,sans-Serif" font-size="10.00">fcarouge/internal/x</text>
<text text-anchor="middle" x="1102.53" y="-177.12" font-family="Helvetica,sans-Serif" font-size="10.00">_z_p_q_r_hh_us_ps.hpp</text>
</a>
</g>
</g>
<!-- Node1&#45;&gt;Node12 -->
<g id="edge14_Node000001_Node000012" class="edge">
<title>Node1&#45;&gt;Node12</title>
<g id="a_edge14_Node000001_Node000012"><a xlink:title=" ">
<path fill="none" stroke="#63b8ff" d="M555.31,-255.55C660.46,-251.31 863.75,-239.42 1033.53,-207.5 1037.32,-206.79 1041.2,-205.96 1045.1,-205.05"/>
<polygon fill="#63b8ff" stroke="#63b8ff" points="1045.73,-208.5 1054.58,-202.67 1044.03,-201.71 1045.73,-208.5"/>
</a>
</g>
</g>
<!-- Node15 -->
<g id="Node000015" class="node">
<title>Node15</title>
<g id="a_Node000015"><a xlink:href="x__z__p__qq__rr__f_8hpp.xhtml" target="_top" xlink:title=" ">
<polygon fill="white" stroke="#666666" points="646.28,-201.88 550.78,-201.88 550.78,-171.38 646.28,-171.38 646.28,-201.88"/>
<text text-anchor="start" x="558.78" y="-188.38" font-family="Helvetica,sans-Serif" font-size="10.00">fcarouge/internal/x</text>
<text text-anchor="middle" x="598.53" y="-177.12" font-family="Helvetica,sans-Serif" font-size="10.00">_z_p_qq_rr_f.hpp</text>
</a>
</g>
</g>
<!-- Node1&#45;&gt;Node15 -->
<g id="edge19_Node000001_Node000015" class="edge">
<title>Node1&#45;&gt;Node15</title>
<g id="a_edge19_Node000001_Node000015"><a xlink:title=" ">
<path fill="none" stroke="#63b8ff" d="M508.43,-243.05C524.84,-232.95 546.86,-219.4 565.03,-208.23"/>
<polygon fill="#63b8ff" stroke="#63b8ff" points="566.69,-211.32 573.37,-203.1 563.02,-205.36 566.69,-211.32"/>
</a>
</g>
</g>
<!-- Node16 -->
<g id="Node000016" class="node">
<title>Node16</title>
<g id="a_Node000016"><a xlink:href="x__z__p__r_8hpp.xhtml" target="_top" xlink:title=" ">
<polygon fill="white" stroke="#666666" points="532.28,-201.88 436.78,-201.88 436.78,-171.38 532.28,-171.38 532.28,-201.88"/>
<text text-anchor="start" x="444.78" y="-188.38" font-family="Helvetica,sans-Serif" font-size="10.00">fcarouge/internal/x</text>
<text text-anchor="middle" x="484.53" y="-177.12" font-family="Helvetica,sans-Serif" font-size="10.00">_z_p_r.hpp</text>
</a>
</g>
</g>
<!-- Node1&#45;&gt;Node16 -->
<g id="edge23_Node000001_Node000016" class="edge">
<title>Node1&#45;&gt;Node16</title>
<g id="a_edge23_Node000001_Node000016"><a xlink:title=" ">
<path fill="none" stroke="#63b8ff" d="M484.53,-243.22C484.53,-234.66 484.53,-223.59 484.53,-213.58"/>
<polygon fill="#63b8ff" stroke="#63b8ff" points="488.03,-213.65 484.53,-203.65 481.03,-213.65 488.03,-213.65"/>
</a>
</g>
</g>
<!-- Node17 -->
<g id="Node000017" class="node">
<title>Node17</title>
<g id="a_Node000017"><a xlink:href="x__z__p__r__f_8hpp.xhtml" target="_top" xlink:title=" ">
<polygon fill="white" stroke="#666666" points="304.28,-201.88 208.78,-201.88 208.78,-171.38 304.28,-171.38 304.28,-201.88"/>
<text text-anchor="start" x="216.78" y="-188.38" font-family="Helvetica,sans-Serif" font-size="10.00">fcarouge/internal/x</text>
<text text-anchor="middle" x="256.53" y="-177.12" font-family="Helvetica,sans-Serif" font-size="10.00">_z_p_r_f.hpp</text>
</a>
</g>
</g>
<!-- Node1&#45;&gt;Node17 -->
<g id="edge25_Node000001_Node000017" class="edge">
<title>Node1&#45;&gt;Node17</title>
<g id="a_edge25_Node000001_Node000017"><a xlink:title=" ">
<path fill="none" stroke="#63b8ff" d="M431.93,-243.03C398.01,-233.35 353.01,-220.17 313.53,-207.5 311.94,-206.99 310.32,-206.47 308.7,-205.93"/>
<polygon fill="#63b8ff" stroke="#63b8ff" points="309.88,-202.64 299.29,-202.78 307.66,-209.28 309.88,-202.64"/>
</a>
</g>
</g>
<!-- Node18 -->
<g id="Node000018" class="node">
<title>Node18</title>
<g id="a_Node000018"><a xlink:href="x__z__u__p__q__r_8hpp.xhtml" target="_top" xlink:title=" ">
<polygon fill="white" stroke="#666666" points="760.28,-201.88 664.78,-201.88 664.78,-171.38 760.28,-171.38 760.28,-201.88"/>
<text text-anchor="start" x="672.78" y="-188.38" font-family="Helvetica,sans-Serif" font-size="10.00">fcarouge/internal/x</text>
<text text-anchor="middle" x="712.53" y="-177.12" font-family="Helvetica,sans-Serif" font-size="10.00">_z_u_p_q_r.hpp</text>
</a>
</g>
</g>
<!-- Node1&#45;&gt;Node18 -->
<g id="edge27_Node000001_Node000018" class="edge">
<title>Node1&#45;&gt;Node18</title>
<g id="a_edge27_Node000001_Node000018"><a xlink:title=" ">
<path fill="none" stroke="#63b8ff" d="M537.12,-243.03C571.05,-233.35 616.05,-220.17 655.53,-207.5 657.12,-206.99 658.73,-206.47 660.36,-205.93"/>
<polygon fill="#63b8ff" stroke="#63b8ff" points="661.39,-209.28 669.77,-202.78 659.17,-202.64 661.39,-209.28"/>
</a>
</g>
</g>
<!-- Node19 -->
<g id="Node000019" class="node">
<title>Node19</title>
<g id="a_Node000019"><a xlink:href="x__z__u__p__q__r__f__g__ps_8hpp.xhtml" target="_top" xlink:title=" ">
<polygon fill="white" stroke="#666666" points="896.53,-201.88 778.53,-201.88 778.53,-171.38 896.53,-171.38 896.53,-201.88"/>
<text text-anchor="start" x="786.53" y="-188.38" font-family="Helvetica,sans-Serif" font-size="10.00">fcarouge/internal/x</text>
<text text-anchor="middle" x="837.53" y="-177.12" font-family="Helvetica,sans-Serif" font-size="10.00">_z_u_p_q_r_f_g_ps.hpp</text>
</a>
</g>
</g>
<!-- Node1&#45;&gt;Node19 -->
<g id="edge31_Node000001_Node000019" class="edge">
<title>Node1&#45;&gt;Node19</title>
<g id="a_edge31_Node000001_Node000019"><a xlink:title=" ">
<path fill="none" stroke="#63b8ff" d="M555.53,-247.45C613.46,-238.52 697.24,-224.38 769.53,-207.5 772.62,-206.78 775.77,-206 778.95,-205.19"/>
<polygon fill="#63b8ff" stroke="#63b8ff" points="779.56,-208.65 788.32,-202.69 777.75,-201.88 779.56,-208.65"/>
</a>
</g>
</g>
<!-- Node20 -->
<g id="Node000020" class="node">
<title>Node20</title>
<g id="a_Node000020"><a xlink:href="x__z__u__p__q__r__h__f__g__us__ps_8hpp.xhtml" target="_top" xlink:title=" ">
<polygon fill="white" stroke="#666666" points="1024.78,-207.5 914.28,-207.5 914.28,-165.75 1024.78,-165.75 1024.78,-207.5"/>
<text text-anchor="start" x="922.28" y="-194" font-family="Helvetica,sans-Serif" font-size="10.00">fcarouge/internal/x</text>
<text text-anchor="start" x="922.28" y="-182.75" font-family="Helvetica,sans-Serif" font-size="10.00">_z_u_p_q_r_h_f_g_us</text>
<text text-anchor="middle" x="969.53" y="-171.5" font-family="Helvetica,sans-Serif" font-size="10.00">_ps.hpp</text>
</a>
</g>
</g>
<!-- Node1&#45;&gt;Node20 -->
<g id="edge35_Node000001_Node000020" class="edge">
<title>Node1&#45;&gt;Node20</title>
<g id="a_edge35_Node000001_Node000020"><a xlink:title=" ">
<path fill="none" stroke="#63b8ff" d="M555.57,-253.24C637.4,-247.16 775.92,-234.15 902.78,-207.9"/>
<polygon fill="#63b8ff" stroke="#63b8ff" points="903.29,-211.37 912.36,-205.89 901.85,-204.52 903.29,-211.37"/>
</a>
</g>
</g>
<!-- Node3 -->
<g id="Node000003" class="node">
<title>Node3</title>
<g id="a_Node000003"><a xlink:href="utility_8hpp.xhtml" target="_top" xlink:title="The collection of utilities supporting the library.">
<polygon fill="white" stroke="#666666" points="562.03,-129.75 465.03,-129.75 465.03,-110.5 562.03,-110.5 562.03,-129.75"/>
<text text-anchor="middle" x="513.53" y="-116.25" font-family="Helvetica,sans-Serif" font-size="10.00">fcarouge/utility.hpp</text>
</a>
</g>
</g>
<!-- Node2&#45;&gt;Node3 -->
<g id="edge2_Node000002_Node000003" class="edge">
<title>Node2&#45;&gt;Node3</title>
<g id="a_edge2_Node000002_Node000003"><a xlink:title=" ">
<path fill="none" stroke="#63b8ff" d="M137.09,-176.54C156.49,-173.01 179.04,-169.04 199.53,-165.75 287.69,-151.6 390.15,-137.47 453.42,-129.01"/>
<polygon fill="#63b8ff" stroke="#63b8ff" points="453.81,-132.49 463.26,-127.7 452.89,-125.55 453.81,-132.49"/>
</a>
</g>
</g>
<!-- Node2&#45;&gt;Node8 -->
<g id="edge11_Node000002_Node000008" class="edge">
<title>Node2&#45;&gt;Node8</title>
<g id="a_edge11_Node000002_Node000008"><a xlink:title=" ">
<path fill="none" stroke="#63b8ff" d="M93.56,-176.83C99.49,-166.08 109.21,-147.14 114.53,-129.75 124.87,-95.95 129.83,-54.95 132.01,-30.93"/>
<polygon fill="#63b8ff" stroke="#63b8ff" points="135.5,-31.24 132.83,-20.99 128.52,-30.67 135.5,-31.24"/>
</a>
</g>
</g>
<!-- Node10 -->
<g id="Node000010" class="node">
<title>Node10</title>
<g id="a_Node000010"><a xlink:title=" ">
<polygon fill="#e0e0e0" stroke="#999999" points="105.28,-129.75 33.78,-129.75 33.78,-110.5 105.28,-110.5 105.28,-129.75"/>
<text text-anchor="middle" x="69.53" y="-116.25" font-family="Helvetica,sans-Serif" font-size="10.00">initializer_list</text>
</a>
</g>
</g>
<!-- Node2&#45;&gt;Node10 -->
<g id="edge10_Node000002_Node000010" class="edge">
<title>Node2&#45;&gt;Node10</title>
<g id="a_edge10_Node000002_Node000010"><a xlink:title=" ">
<path fill="none" stroke="#63b8ff" d="M85.89,-176.66C83.16,-167.41 78.83,-152.71 75.31,-140.75"/>
<polygon fill="#63b8ff" stroke="#63b8ff" points="78.76,-140.07 72.58,-131.47 72.04,-142.05 78.76,-140.07"/>
</a>
</g>
</g>
<!-- Node4 -->
<g id="Node000004" class="node">
<title>Node4</title>
<g id="a_Node000004"><a xlink:href="internal_2utility_8hpp.xhtml" target="_top" xlink:title=" ">
<polygon fill="white" stroke="#666666" points="462.03,-74.5 371.03,-74.5 371.03,-55.25 462.03,-55.25 462.03,-74.5"/>
<text text-anchor="middle" x="416.53" y="-61" font-family="Helvetica,sans-Serif" font-size="10.00">internal/utility.hpp</text>
</a>
</g>
</g>
<!-- Node3&#45;&gt;Node4 -->
<g id="edge3_Node000003_Node000004" class="edge">
<title>Node3&#45;&gt;Node4</title>
<g id="a_edge3_Node000003_Node000004"><a xlink:title=" ">
<path fill="none" stroke="#63b8ff" d="M497.07,-110.09C482.3,-101.98 460.35,-89.93 443.1,-80.46"/>
<polygon fill="#63b8ff" stroke="#63b8ff" points="444.84,-77.43 434.39,-75.68 441.47,-83.56 444.84,-77.43"/>
</a>
</g>
</g>
<!-- Node6 -->
<g id="Node000006" class="node">
<title>Node6</title>
<g id="a_Node000006"><a xlink:title=" ">
<polygon fill="#e0e0e0" stroke="#999999" points="477.65,-19.25 429.4,-19.25 429.4,0 477.65,0 477.65,-19.25"/>
<text text-anchor="middle" x="453.53" y="-5.75" font-family="Helvetica,sans-Serif" font-size="10.00">cstddef</text>
</a>
</g>
</g>
<!-- Node3&#45;&gt;Node6 -->
<g id="edge8_Node000003_Node000006" class="edge">
<title>Node3&#45;&gt;Node6</title>
<g id="a_edge8_Node000003_Node000006"><a xlink:title=" ">
<path fill="none" stroke="#63b8ff" d="M508.62,-110.25C498.9,-92.68 477.05,-53.16 463.97,-29.52"/>
<polygon fill="#63b8ff" stroke="#63b8ff" points="467.14,-28.01 459.24,-20.95 461.01,-31.4 467.14,-28.01"/>
</a>
</g>
</g>
<!-- Node9 -->
<g id="Node000009" class="node">
<title>Node9</title>
<g id="a_Node000009"><a xlink:title=" ">
<polygon fill="#e0e0e0" stroke="#999999" points="556.78,-74.5 518.28,-74.5 518.28,-55.25 556.78,-55.25 556.78,-74.5"/>
<text text-anchor="middle" x="537.53" y="-61" font-family="Helvetica,sans-Serif" font-size="10.00">utility</text>
</a>
</g>
</g>
<!-- Node3&#45;&gt;Node9 -->
<g id="edge9_Node000003_Node000009" class="edge">
<title>Node3&#45;&gt;Node9</title>
<g id="a_edge9_Node000003_Node000009"><a xlink:title=" ">
<path fill="none" stroke="#63b8ff" d="M517.49,-110.33C520.56,-103.51 524.94,-93.81 528.82,-85.2"/>
<polygon fill="#63b8ff" stroke="#63b8ff" points="531.94,-86.79 532.86,-76.24 525.56,-83.92 531.94,-86.79"/>
</a>
</g>
</g>
<!-- Node4&#45;&gt;Node5 -->
<g id="edge4_Node000004_Node000005" class="edge">
<title>Node4&#45;&gt;Node5</title>
<g id="a_edge4_Node000004_Node000005"><a xlink:title=" ">
<path fill="none" stroke="#63b8ff" d="M399.9,-54.84C384.84,-46.66 362.39,-34.46 344.88,-24.94"/>
<polygon fill="#63b8ff" stroke="#63b8ff" points="347.02,-22.12 336.56,-20.43 343.68,-28.27 347.02,-22.12"/>
</a>
</g>
</g>
<!-- Node4&#45;&gt;Node6 -->
<g id="edge5_Node000004_Node000006" class="edge">
<title>Node4&#45;&gt;Node6</title>
<g id="a_edge5_Node000004_Node000006"><a xlink:title=" ">
<path fill="none" stroke="#63b8ff" d="M422.64,-55.08C427.59,-47.96 434.73,-37.68 440.9,-28.8"/>
<polygon fill="#63b8ff" stroke="#63b8ff" points="443.59,-31.06 446.42,-20.85 437.84,-27.07 443.59,-31.06"/>
</a>
</g>
</g>
<!-- Node7 -->
<g id="Node000007" class="node">
<title>Node7</title>
<g id="a_Node000007"><a xlink:title=" ">
<polygon fill="#e0e0e0" stroke="#999999" points="762.03,-19.25 725.03,-19.25 725.03,0 762.03,0 762.03,-19.25"/>
<text text-anchor="middle" x="743.53" y="-5.75" font-family="Helvetica,sans-Serif" font-size="10.00">tuple</text>
</a>
</g>
</g>
<!-- Node4&#45;&gt;Node7 -->
<g id="edge6_Node000004_Node000007" class="edge">
<title>Node4&#45;&gt;Node7</title>
<g id="a_edge6_Node000004_Node000007"><a xlink:title=" ">
<path fill="none" stroke="#63b8ff" d="M462.34,-56.41C530.28,-45.35 655.88,-24.9 713.38,-15.54"/>
<polygon fill="#63b8ff" stroke="#63b8ff" points="713.76,-19.02 723.07,-13.96 712.64,-12.11 713.76,-19.02"/>
</a>
</g>
</g>
<!-- Node4&#45;&gt;Node8 -->
<g id="edge7_Node000004_Node000008" class="edge">
<title>Node4&#45;&gt;Node8</title>
<g id="a_edge7_Node000004_Node000008"><a xlink:title=" ">
<path fill="none" stroke="#63b8ff" d="M370.74,-55.26C316.79,-45.11 227.87,-28.38 175.59,-18.54"/>
<polygon fill="#63b8ff" stroke="#63b8ff" points="176.35,-15.12 165.87,-16.71 175.05,-22 176.35,-15.12"/>
</a>
</g>
</g>
<!-- Node11&#45;&gt;Node3 -->
<g id="edge13_Node000011_Node000003" class="edge">
<title>Node11&#45;&gt;Node3</title>
<g id="a_edge13_Node000011_Node000003"><a xlink:title=" ">
<path fill="none" stroke="#63b8ff" d="M402.98,-170.99C427.02,-160.14 459.57,-145.46 483.11,-134.84"/>
<polygon fill="#63b8ff" stroke="#63b8ff" points="484.5,-138.06 492.17,-130.76 481.62,-131.68 484.5,-138.06"/>
</a>
</g>
</g>
<!-- Node12&#45;&gt;Node3 -->
<g id="edge15_Node000012_Node000003" class="edge">
<title>Node12&#45;&gt;Node3</title>
<g id="a_edge15_Node000012_Node000003"><a xlink:title=" ">
<path fill="none" stroke="#63b8ff" d="M1056.06,-170.91C1048.58,-168.93 1040.88,-167.11 1033.53,-165.75 868.93,-135.28 671.1,-125.55 573.71,-122.49"/>
<polygon fill="#63b8ff" stroke="#63b8ff" points="573.95,-119 563.85,-122.2 573.74,-125.99 573.95,-119"/>
</a>
</g>
</g>
<!-- Node12&#45;&gt;Node7 -->
<g id="edge18_Node000012_Node000007" class="edge">
<title>Node12&#45;&gt;Node7</title>
<g id="a_edge18_Node000012_Node000007"><a xlink:title=" ">
<path fill="none" stroke="#63b8ff" d="M1083.4,-170.9C1048.2,-144.42 970.02,-88.42 896.53,-55.25 855.61,-36.78 805.09,-23.79 773.58,-16.76"/>
<polygon fill="#63b8ff" stroke="#63b8ff" points="774.49,-13.38 763.98,-14.68 773.01,-20.22 774.49,-13.38"/>
</a>
</g>
</g>
<!-- Node13 -->
<g id="Node000013" class="node">
<title>Node13</title>
<g id="a_Node000013"><a xlink:href="function_8hpp.xhtml" target="_top" xlink:title=" ">
<polygon fill="white" stroke="#666666" points="871.78,-129.75 803.28,-129.75 803.28,-110.5 871.78,-110.5 871.78,-129.75"/>
<text text-anchor="middle" x="837.53" y="-116.25" font-family="Helvetica,sans-Serif" font-size="10.00">function.hpp</text>
</a>
</g>
</g>
<!-- Node12&#45;&gt;Node13 -->
<g id="edge16_Node000012_Node000013" class="edge">
<title>Node12&#45;&gt;Node13</title>
<g id="a_edge16_Node000012_Node000013"><a xlink:title=" ">
<path fill="none" stroke="#63b8ff" d="M1052.87,-170.96C1046.38,-169.15 1039.81,-167.37 1033.53,-165.75 982.31,-152.56 923.05,-139.34 883.22,-130.76"/>
<polygon fill="#63b8ff" stroke="#63b8ff" points="884.01,-127.35 873.49,-128.68 882.54,-134.19 884.01,-127.35"/>
</a>
</g>
</g>
<!-- Node14 -->
<g id="Node000014" class="node">
<title>Node14</title>
<g id="a_Node000014"><a xlink:title=" ">
<polygon fill="#e0e0e0" stroke="#999999" points="862.78,-74.5 812.28,-74.5 812.28,-55.25 862.78,-55.25 862.78,-74.5"/>
<text text-anchor="middle" x="837.53" y="-61" font-family="Helvetica,sans-Serif" font-size="10.00">memory</text>
</a>
</g>
</g>
<!-- Node13&#45;&gt;Node14 -->
<g id="edge17_Node000013_Node000014" class="edge">
<title>Node13&#45;&gt;Node14</title>
<g id="a_edge17_Node000013_Node000014"><a xlink:title=" ">
<path fill="none" stroke="#63b8ff" d="M837.53,-110.33C837.53,-103.82 837.53,-94.67 837.53,-86.37"/>
<polygon fill="#63b8ff" stroke="#63b8ff" points="841.03,-86.37 837.53,-76.37 834.03,-86.37 841.03,-86.37"/>
</a>
</g>
</g>
<!-- Node15&#45;&gt;Node3 -->
<g id="edge20_Node000015_Node000003" class="edge">
<title>Node15&#45;&gt;Node3</title>
<g id="a_edge20_Node000015_Node000003"><a xlink:title=" ">
<path fill="none" stroke="#63b8ff" d="M579.24,-170.99C565.84,-160.82 548,-147.28 534.29,-136.88"/>
<polygon fill="#63b8ff" stroke="#63b8ff" points="536.44,-134.12 526.36,-130.86 532.21,-139.7 536.44,-134.12"/>
</a>
</g>
</g>
<!-- Node15&#45;&gt;Node7 -->
<g id="edge22_Node000015_Node000007" class="edge">
<title>Node15&#45;&gt;Node7</title>
<g id="a_edge22_Node000015_Node000007"><a xlink:title=" ">
<path fill="none" stroke="#63b8ff" d="M610.64,-171.01C637.14,-139.02 700.2,-62.92 728.88,-28.31"/>
<polygon fill="#63b8ff" stroke="#63b8ff" points="731.34,-30.82 735.03,-20.88 725.95,-26.35 731.34,-30.82"/>
</a>
</g>
</g>
<!-- Node15&#45;&gt;Node13 -->
<g id="edge21_Node000015_Node000013" class="edge">
<title>Node15&#45;&gt;Node13</title>
<g id="a_edge21_Node000015_Node000013"><a xlink:title=" ">
<path fill="none" stroke="#63b8ff" d="M639.16,-170.93C644.64,-169.1 650.2,-167.33 655.53,-165.75 701.61,-152.1 755.11,-139.35 792.12,-131"/>
<polygon fill="#63b8ff" stroke="#63b8ff" points="792.58,-134.48 801.58,-128.88 791.05,-127.65 792.58,-134.48"/>
</a>
</g>
</g>
<!-- Node16&#45;&gt;Node3 -->
<g id="edge24_Node000016_Node000003" class="edge">
<title>Node16&#45;&gt;Node3</title>
<g id="a_edge24_Node000016_Node000003"><a xlink:title=" ">
<path fill="none" stroke="#63b8ff" d="M491.11,-170.99C495.19,-161.91 500.49,-150.13 504.9,-140.31"/>
<polygon fill="#63b8ff" stroke="#63b8ff" points="508.03,-141.88 508.94,-131.33 501.65,-139.01 508.03,-141.88"/>
</a>
</g>
</g>
<!-- Node17&#45;&gt;Node3 -->
<g id="edge26_Node000017_Node000003" class="edge">
<title>Node17&#45;&gt;Node3</title>
<g id="a_edge26_Node000017_Node000003"><a xlink:title=" ">
<path fill="none" stroke="#63b8ff" d="M296.82,-170.93C302.4,-169.08 308.09,-167.3 313.53,-165.75 360.34,-152.41 414.24,-140.59 454.28,-132.46"/>
<polygon fill="#63b8ff" stroke="#63b8ff" points="454.85,-135.92 463.97,-130.52 453.48,-129.06 454.85,-135.92"/>
</a>
</g>
</g>
<!-- Node18&#45;&gt;Node3 -->
<g id="edge28_Node000018_Node000003" class="edge">
<title>Node18&#45;&gt;Node3</title>
<g id="a_edge28_Node000018_Node000003"><a xlink:title=" ">
<path fill="none" stroke="#63b8ff" d="M670.86,-170.93C665.71,-169.16 660.5,-167.4 655.53,-165.75 621.42,-154.45 582.47,-142.26 554.01,-133.48"/>
<polygon fill="#63b8ff" stroke="#63b8ff" points="555.29,-130.21 544.71,-130.62 553.23,-136.9 555.29,-130.21"/>
</a>
</g>
</g>
<!-- Node18&#45;&gt;Node7 -->
<g id="edge30_Node000018_Node000007" class="edge">
<title>Node18&#45;&gt;Node7</title>
<g id="a_edge30_Node000018_Node000007"><a xlink:title=" ">
<path fill="none" stroke="#63b8ff" d="M715.12,-171.01C720.64,-139.84 733.58,-66.79 739.91,-31.05"/>
<polygon fill="#63b8ff" stroke="#63b8ff" points="743.36,-31.67 741.65,-21.21 736.46,-30.44 743.36,-31.67"/>
</a>
</g>
</g>
<!-- Node18&#45;&gt;Node13 -->
<g id="edge29_Node000018_Node000013" class="edge">
<title>Node18&#45;&gt;Node13</title>
<g id="a_edge29_Node000018_Node000013"><a xlink:title=" ">
<path fill="none" stroke="#63b8ff" d="M740.89,-170.99C761.63,-160.29 789.59,-145.86 810.1,-135.28"/>
<polygon fill="#63b8ff" stroke="#63b8ff" points="811.44,-138.52 818.72,-130.83 808.23,-132.3 811.44,-138.52"/>
</a>
</g>
</g>
<!-- Node19&#45;&gt;Node3 -->
<g id="edge32_Node000019_Node000003" class="edge">
<title>Node19&#45;&gt;Node3</title>
<g id="a_edge32_Node000019_Node000003"><a xlink:title=" ">
<path fill="none" stroke="#63b8ff" d="M789.78,-170.94C783.01,-169.07 776.12,-167.28 769.53,-165.75 703.14,-150.31 625.96,-137.56 573.84,-129.69"/>
<polygon fill="#63b8ff" stroke="#63b8ff" points="574.36,-126.23 563.95,-128.21 573.33,-133.15 574.36,-126.23"/>
</a>
</g>
</g>
<!-- Node19&#45;&gt;Node7 -->
<g id="edge34_Node000019_Node000007" class="edge">
<title>Node19&#45;&gt;Node7</title>
<g id="a_edge34_Node000019_Node000007"><a xlink:title=" ">
<path fill="none" stroke="#63b8ff" d="M824.77,-171.17C815.59,-160.3 803.32,-144.75 794.53,-129.75 775.06,-96.54 758.84,-54.51 750.21,-30.29"/>
<polygon fill="#63b8ff" stroke="#63b8ff" points="753.6,-29.38 747.01,-21.09 746.99,-31.68 753.6,-29.38"/>
</a>
</g>
</g>
<!-- Node19&#45;&gt;Node13 -->
<g id="edge33_Node000019_Node000013" class="edge">
<title>Node19&#45;&gt;Node13</title>
<g id="a_edge33_Node000019_Node000013"><a xlink:title=" ">
<path fill="none" stroke="#63b8ff" d="M837.53,-170.99C837.53,-162.2 837.53,-150.9 837.53,-141.28"/>
<polygon fill="#63b8ff" stroke="#63b8ff" points="841.03,-141.46 837.53,-131.46 834.03,-141.46 841.03,-141.46"/>
</a>
</g>
</g>
<!-- Node20&#45;&gt;Node3 -->
<g id="edge36_Node000020_Node000003" class="edge">
<title>Node20&#45;&gt;Node3</title>
<g id="a_edge36_Node000020_Node000003"><a xlink:title=" ">
<path fill="none" stroke="#63b8ff" d="M913.84,-167.66C911.04,-166.97 908.26,-166.32 905.53,-165.75 789.49,-141.35 651.13,-129.55 573.71,-124.46"/>
<polygon fill="#63b8ff" stroke="#63b8ff" points="573.99,-120.97 563.79,-123.82 573.54,-127.95 573.99,-120.97"/>
</a>
</g>
</g>
<!-- Node20&#45;&gt;Node7 -->
<g id="edge38_Node000020_Node000007" class="edge">
<title>Node20&#45;&gt;Node7</title>
<g id="a_edge38_Node000020_Node000007"><a xlink:title=" ">
<path fill="none" stroke="#63b8ff" d="M959.37,-165.45C944.06,-136.98 912.46,-85.15 871.53,-55.25 842.06,-33.73 801.33,-21.91 773.79,-15.93"/>
<polygon fill="#63b8ff" stroke="#63b8ff" points="774.49,-12.5 764,-13.95 773.11,-19.36 774.49,-12.5"/>
</a>
</g>
</g>
<!-- Node20&#45;&gt;Node13 -->
<g id="edge37_Node000020_Node000013" class="edge">
<title>Node20&#45;&gt;Node13</title>
<g id="a_edge37_Node000020_Node000013"><a xlink:title=" ">
<path fill="none" stroke="#63b8ff" d="M928.12,-165.39C907.99,-155.56 884.3,-143.98 866.19,-135.13"/>
<polygon fill="#63b8ff" stroke="#63b8ff" points="867.87,-132.05 857.35,-130.81 864.79,-138.34 867.87,-132.05"/>
</a>
</g>
</g>
</g>
</svg>
