<?xml version="1.0" encoding="UTF-8" standalone="no"?>
<!DOCTYPE svg PUBLIC "-//W3C//DTD SVG 1.1//EN"
 "http://www.w3.org/Graphics/SVG/1.1/DTD/svg11.dtd">
<!-- Generated by graphviz version 12.2.0 (20241103.1931)
 -->
<!-- Title: /github/workspace/include/fcarouge/internal/factory.hpp Pages: 1 -->
<!--zoomable 282 -->

<svg id="main" version="1.1" xmlns="http://www.w3.org/2000/svg" xmlns:xlink="http://www.w3.org/1999/xlink" xml:space="preserve" onload="init(evt)">

<style type="text/css"><![CDATA[
.node, .edge {opacity: 0.7;}
.node.selected, .edge.selected {opacity: 1;}
.edge:hover path { stroke: red; }
.edge:hover polygon { stroke: red; fill: red; }
]]></style>

<defs>
  <circle id="rim" cx="0" cy="0" r="7"/>
  <circle id="rim2" cx="0" cy="0" r="3.5"/>
  <g id="zoomPlus">
    <use xlink:href="#rim" fill="#404040"><set attributeName="fill" to="#808080" begin="zoomplus.mouseover" end="zoomplus.mouseout"/></use>
    <path d="M-4,0h8M0,-4v8" fill="none" stroke="white" stroke-width="1.5" pointer-events="none"/>
  </g>
  <g id="zoomMin">
    <use xlink:href="#rim" fill="#404040"><set attributeName="fill" to="#808080" begin="zoomminus.mouseover" end="zoomminus.mouseout"/></use>
    <path d="M-4,0h8" fill="none" stroke="white" stroke-width="1.5" pointer-events="none"/>
  </g>
  <g id="arrowUp" transform="translate(30 24)">
    <use xlink:href="#rim"/>
    <path pointer-events="none" fill="none" stroke="white" stroke-width="1.5" d="M0,-3.0v7 M-2.5,-0.5L0,-3.0L2.5,-0.5"/>
  </g>
  <g id="arrowRight" transform="rotate(90) translate(36 -43)">
    <use xlink:href="#rim"/>
    <path pointer-events="none" fill="none" stroke="white" stroke-width="1.5" d="M0,-3.0v7 M-2.5,-0.5L0,-3.0L2.5,-0.5"/>
  </g>
  <g id="arrowDown" transform="rotate(180) translate(-30 -48)">
    <use xlink:href="#rim"/>
    <path pointer-events="none" fill="none" stroke="white" stroke-width="1.5" d="M0,-3.0v7 M-2.5,-0.5L0,-3.0L2.5,-0.5"/>
  </g>
  <g id="arrowLeft" transform="rotate(270) translate(-36 17)">
    <use xlink:href="#rim"/>
    <path pointer-events="none" fill="none" stroke="white" stroke-width="1.5" d="M0,-3.0v7 M-2.5,-0.5L0,-3.0L2.5,-0.5"/>
  </g>
  <g id="resetDef">
    <use xlink:href="#rim2" fill="#404040"><set attributeName="fill" to="#808080" begin="reset.mouseover" end="reset.mouseout"/></use>
  </g>
</defs>
<script type="application/ecmascript">
var viewWidth = 1285;
var viewHeight = 282;
var sectionId = 'dynsection-0';
</script>
<script type="application/ecmascript" xlink:href="svg.min.js"/>
<svg id="graph" class="graph">
<g id="viewport">
<title>/github/workspace/include/fcarouge/internal/factory.hpp</title>
<!-- Node1 -->
<g id="Node000001" class="node">
<title>Node1</title>
<g id="a_Node000001"><a xlink:title=" ">
<polygon fill="#999999" stroke="#666666" points="612.3,-274 471.05,-274 471.05,-243.5 612.3,-243.5 612.3,-274"/>
<text text-anchor="start" x="479.05" y="-260.5" font-family="Helvetica,sans-Serif" font-size="10.00">/github/workspace/include</text>
<text text-anchor="middle" x="541.68" y="-249.25" font-family="Helvetica,sans-Serif" font-size="10.00">/fcarouge/internal/factory.hpp</text>
</a>
</g>
</g>
<!-- Node2 -->
<g id="Node000002" class="node">
<title>Node2</title>
<g id="a_Node000002"><a xlink:href="type_8hpp.xhtml" target="_top" xlink:title=" ">
<polygon fill="white" stroke="#666666" points="152.18,-196.25 25.18,-196.25 25.18,-177 152.18,-177 152.18,-196.25"/>
<text text-anchor="middle" x="88.68" y="-182.75" font-family="Helvetica,sans-Serif" font-size="10.00">fcarouge/internal/type.hpp</text>
</a>
</g>
</g>
<!-- Node1&#45;&gt;Node2 -->
<g id="edge1_Node000001_Node000002" class="edge">
<title>Node1&#45;&gt;Node2</title>
<g id="a_edge1_Node000001_Node000002"><a xlink:title=" ">
<path fill="none" stroke="#63b8ff" d="M470.78,-250.74C395.08,-242.67 271.79,-227.86 166.68,-207.5 155.26,-205.29 143.02,-202.41 131.7,-199.54"/>
<polygon fill="#63b8ff" stroke="#63b8ff" points="132.77,-196.2 122.21,-197.07 131.01,-202.98 132.77,-196.2"/>
</a>
</g>
</g>
<!-- Node5 -->
<g id="Node000005" class="node">
<title>Node5</title>
<g id="a_Node000005"><a xlink:title=" ">
<polygon fill="#e0e0e0" stroke="#999999" points="374.55,-19.25 318.8,-19.25 318.8,0 374.55,0 374.55,-19.25"/>
<text text-anchor="middle" x="346.68" y="-5.75" font-family="Helvetica,sans-Serif" font-size="10.00">concepts</text>
</a>
</g>
</g>
<!-- Node1&#45;&gt;Node5 -->
<g id="edge41_Node000001_Node000005" class="edge">
<title>Node1&#45;&gt;Node5</title>
<g id="a_edge41_Node000001_Node000005"><a xlink:title=" ">
<path fill="none" stroke="#63b8ff" d="M470.55,-257.77C380.8,-256.1 233.96,-247.18 199.68,-207.5 143.88,-142.91 265.13,-59 320.73,-25.45"/>
<polygon fill="#63b8ff" stroke="#63b8ff" points="322.48,-28.48 329.3,-20.37 318.91,-22.46 322.48,-28.48"/>
</a>
</g>
</g>
<!-- Node8 -->
<g id="Node000008" class="node">
<title>Node8</title>
<g id="a_Node000008"><a xlink:title=" ">
<polygon fill="#e0e0e0" stroke="#999999" points="164.18,-19.25 103.18,-19.25 103.18,0 164.18,0 164.18,-19.25"/>
<text text-anchor="middle" x="133.68" y="-5.75" font-family="Helvetica,sans-Serif" font-size="10.00">type_traits</text>
</a>
</g>
</g>
<!-- Node1&#45;&gt;Node8 -->
<g id="edge42_Node000001_Node000008" class="edge">
<title>Node1&#45;&gt;Node8</title>
<g id="a_edge42_Node000001_Node000008"><a xlink:title=" ">
<path fill="none" stroke="#63b8ff" d="M470.65,-256.17C334.1,-252.38 45.7,-240.53 15.68,-207.5 -37.87,-148.59 64.03,-61.72 111.36,-26.41"/>
<polygon fill="#63b8ff" stroke="#63b8ff" points="113.33,-29.31 119.34,-20.58 109.2,-23.66 113.33,-29.31"/>
</a>
</g>
</g>
<!-- Node11 -->
<g id="Node000011" class="node">
<title>Node11</title>
<g id="a_Node000011"><a xlink:href="x__z__p__q__r_8hpp.xhtml" target="_top" xlink:title=" ">
<polygon fill="white" stroke="#666666" points="304.43,-201.88 208.93,-201.88 208.93,-171.38 304.43,-171.38 304.43,-201.88"/>
<text text-anchor="start" x="216.93" y="-188.38" font-family="Helvetica,sans-Serif" font-size="10.00">fcarouge/internal/x</text>
<text text-anchor="middle" x="256.68" y="-177.12" font-family="Helvetica,sans-Serif" font-size="10.00">_z_p_q_r.hpp</text>
</a>
</g>
</g>
<!-- Node1&#45;&gt;Node11 -->
<g id="edge12_Node000001_Node000011" class="edge">
<title>Node1&#45;&gt;Node11</title>
<g id="a_edge12_Node000001_Node000011"><a xlink:title=" ">
<path fill="none" stroke="#63b8ff" d="M470.78,-244.38C425.51,-235.29 365.74,-222.26 313.68,-207.5 311.72,-206.95 309.73,-206.36 307.73,-205.75"/>
<polygon fill="#63b8ff" stroke="#63b8ff" points="309,-202.48 298.41,-202.8 306.88,-209.16 309,-202.48"/>
</a>
</g>
</g>
<!-- Node12 -->
<g id="Node000012" class="node">
<title>Node12</title>
<g id="a_Node000012"><a xlink:href="x__z__p__q__r__h__f_8hpp.xhtml" target="_top" xlink:title=" ">
<polygon fill="white" stroke="#666666" points="418.43,-201.88 322.93,-201.88 322.93,-171.38 418.43,-171.38 418.43,-201.88"/>
<text text-anchor="start" x="330.93" y="-188.38" font-family="Helvetica,sans-Serif" font-size="10.00">fcarouge/internal/x</text>
<text text-anchor="middle" x="370.68" y="-177.12" font-family="Helvetica,sans-Serif" font-size="10.00">_z_p_q_r_h_f.hpp</text>
</a>
</g>
</g>
<!-- Node1&#45;&gt;Node12 -->
<g id="edge14_Node000001_Node000012" class="edge">
<title>Node1&#45;&gt;Node12</title>
<g id="a_edge14_Node000001_Node000012"><a xlink:title=" ">
<path fill="none" stroke="#63b8ff" d="M505.83,-243.05C479.95,-232.44 444.79,-218.02 416.81,-206.54"/>
<polygon fill="#63b8ff" stroke="#63b8ff" points="418.46,-203.44 407.88,-202.88 415.8,-209.91 418.46,-203.44"/>
</a>
</g>
</g>
<!-- Node13 -->
<g id="Node000013" class="node">
<title>Node13</title>
<g id="a_Node000013"><a xlink:href="x__z__p__q__r__hh__us__ps_8hpp.xhtml" target="_top" xlink:title=" ">
<polygon fill="white" stroke="#666666" points="1276.8,-201.88 1156.55,-201.88 1156.55,-171.38 1276.8,-171.38 1276.8,-201.88"/>
<text text-anchor="start" x="1164.55" y="-188.38" font-family="Helvetica,sans-Serif" font-size="10.00">fcarouge/internal/x</text>
<text text-anchor="middle" x="1216.68" y="-177.12" font-family="Helvetica,sans-Serif" font-size="10.00">_z_p_q_r_hh_us_ps.hpp</text>
</a>
</g>
</g>
<!-- Node1&#45;&gt;Node13 -->
<g id="edge16_Node000001_Node000013" class="edge">
<title>Node1&#45;&gt;Node13</title>
<g id="a_edge16_Node000001_Node000013"><a xlink:title=" ">
<path fill="none" stroke="#63b8ff" d="M612.72,-256.4C726.53,-253.22 956.37,-242.63 1147.68,-207.5 1151.47,-206.8 1155.36,-205.99 1159.25,-205.08"/>
<polygon fill="#63b8ff" stroke="#63b8ff" points="1159.88,-208.54 1168.74,-202.73 1158.19,-201.74 1159.88,-208.54"/>
</a>
</g>
</g>
<!-- Node16 -->
<g id="Node000016" class="node">
<title>Node16</title>
<g id="a_Node000016"><a xlink:href="x__z__p__qq__rr__f_8hpp.xhtml" target="_top" xlink:title=" ">
<polygon fill="white" stroke="#666666" points="760.43,-201.88 664.93,-201.88 664.93,-171.38 760.43,-171.38 760.43,-201.88"/>
<text text-anchor="start" x="672.93" y="-188.38" font-family="Helvetica,sans-Serif" font-size="10.00">fcarouge/internal/x</text>
<text text-anchor="middle" x="712.68" y="-177.12" font-family="Helvetica,sans-Serif" font-size="10.00">_z_p_qq_rr_f.hpp</text>
</a>
</g>
</g>
<!-- Node1&#45;&gt;Node16 -->
<g id="edge21_Node000001_Node000016" class="edge">
<title>Node1&#45;&gt;Node16</title>
<g id="a_edge21_Node000001_Node000016"><a xlink:title=" ">
<path fill="none" stroke="#63b8ff" d="M577.53,-243.05C603.4,-232.44 638.57,-218.02 666.54,-206.54"/>
<polygon fill="#63b8ff" stroke="#63b8ff" points="667.55,-209.91 675.48,-202.88 664.9,-203.44 667.55,-209.91"/>
</a>
</g>
</g>
<!-- Node17 -->
<g id="Node000017" class="node">
<title>Node17</title>
<g id="a_Node000017"><a xlink:href="x__z__p__r_8hpp.xhtml" target="_top" xlink:title=" ">
<polygon fill="white" stroke="#666666" points="532.43,-201.88 436.93,-201.88 436.93,-171.38 532.43,-171.38 532.43,-201.88"/>
<text text-anchor="start" x="444.93" y="-188.38" font-family="Helvetica,sans-Serif" font-size="10.00">fcarouge/internal/x</text>
<text text-anchor="middle" x="484.68" y="-177.12" font-family="Helvetica,sans-Serif" font-size="10.00">_z_p_r.hpp</text>
</a>
</g>
</g>
<!-- Node1&#45;&gt;Node17 -->
<g id="edge25_Node000001_Node000017" class="edge">
<title>Node1&#45;&gt;Node17</title>
<g id="a_edge25_Node000001_Node000017"><a xlink:title=" ">
<path fill="none" stroke="#63b8ff" d="M529.87,-243.22C522.3,-233.91 512.31,-221.62 503.65,-210.97"/>
<polygon fill="#63b8ff" stroke="#63b8ff" points="506.45,-208.86 497.43,-203.31 501.02,-213.28 506.45,-208.86"/>
</a>
</g>
</g>
<!-- Node18 -->
<g id="Node000018" class="node">
<title>Node18</title>
<g id="a_Node000018"><a xlink:href="x__z__p__r__f_8hpp.xhtml" target="_top" xlink:title=" ">
<polygon fill="white" stroke="#666666" points="646.43,-201.88 550.93,-201.88 550.93,-171.38 646.43,-171.38 646.43,-201.88"/>
<text text-anchor="start" x="558.93" y="-188.38" font-family="Helvetica,sans-Serif" font-size="10.00">fcarouge/internal/x</text>
<text text-anchor="middle" x="598.68" y="-177.12" font-family="Helvetica,sans-Serif" font-size="10.00">_z_p_r_f.hpp</text>
</a>
</g>
</g>
<!-- Node1&#45;&gt;Node18 -->
<g id="edge27_Node000001_Node000018" class="edge">
<title>Node1&#45;&gt;Node18</title>
<g id="a_edge27_Node000001_Node000018"><a xlink:title=" ">
<path fill="none" stroke="#63b8ff" d="M553.49,-243.22C561.06,-233.91 571.04,-221.62 579.71,-210.97"/>
<polygon fill="#63b8ff" stroke="#63b8ff" points="582.34,-213.28 585.93,-203.31 576.91,-208.86 582.34,-213.28"/>
</a>
</g>
</g>
<!-- Node19 -->
<g id="Node000019" class="node">
<title>Node19</title>
<g id="a_Node000019"><a xlink:href="x__z__u__p__q__r_8hpp.xhtml" target="_top" xlink:title=" ">
<polygon fill="white" stroke="#666666" points="874.43,-201.88 778.93,-201.88 778.93,-171.38 874.43,-171.38 874.43,-201.88"/>
<text text-anchor="start" x="786.93" y="-188.38" font-family="Helvetica,sans-Serif" font-size="10.00">fcarouge/internal/x</text>
<text text-anchor="middle" x="826.68" y="-177.12" font-family="Helvetica,sans-Serif" font-size="10.00">_z_u_p_q_r.hpp</text>
</a>
</g>
</g>
<!-- Node1&#45;&gt;Node19 -->
<g id="edge29_Node000001_Node000019" class="edge">
<title>Node1&#45;&gt;Node19</title>
<g id="a_edge29_Node000001_Node000019"><a xlink:title=" ">
<path fill="none" stroke="#63b8ff" d="M612.57,-244.38C657.85,-235.29 717.62,-222.26 769.68,-207.5 771.64,-206.95 773.62,-206.36 775.63,-205.75"/>
<polygon fill="#63b8ff" stroke="#63b8ff" points="776.47,-209.16 784.94,-202.8 774.35,-202.48 776.47,-209.16"/>
</a>
</g>
</g>
<!-- Node20 -->
<g id="Node000020" class="node">
<title>Node20</title>
<g id="a_Node000020"><a xlink:href="x__z__u__p__q__r__f__g__ps_8hpp.xhtml" target="_top" xlink:title=" ">
<polygon fill="white" stroke="#666666" points="1010.68,-201.88 892.68,-201.88 892.68,-171.38 1010.68,-171.38 1010.68,-201.88"/>
<text text-anchor="start" x="900.68" y="-188.38" font-family="Helvetica,sans-Serif" font-size="10.00">fcarouge/internal/x</text>
<text text-anchor="middle" x="951.68" y="-177.12" font-family="Helvetica,sans-Serif" font-size="10.00">_z_u_p_q_r_f_g_ps.hpp</text>
</a>
</g>
</g>
<!-- Node1&#45;&gt;Node20 -->
<g id="edge33_Node000001_Node000020" class="edge">
<title>Node1&#45;&gt;Node20</title>
<g id="a_edge33_Node000001_Node000020"><a xlink:title=" ">
<path fill="none" stroke="#63b8ff" d="M612.61,-250.23C682.14,-242.18 790.9,-227.77 883.68,-207.5 886.83,-206.81 890.06,-206.05 893.3,-205.25"/>
<polygon fill="#63b8ff" stroke="#63b8ff" points="894.08,-208.66 902.87,-202.75 892.31,-201.89 894.08,-208.66"/>
</a>
</g>
</g>
<!-- Node21 -->
<g id="Node000021" class="node">
<title>Node21</title>
<g id="a_Node000021"><a xlink:href="x__z__u__p__q__r__h__f__g__us__ps_8hpp.xhtml" target="_top" xlink:title=" ">
<polygon fill="white" stroke="#666666" points="1138.93,-207.5 1028.43,-207.5 1028.43,-165.75 1138.93,-165.75 1138.93,-207.5"/>
<text text-anchor="start" x="1036.43" y="-194" font-family="Helvetica,sans-Serif" font-size="10.00">fcarouge/internal/x</text>
<text text-anchor="start" x="1036.43" y="-182.75" font-family="Helvetica,sans-Serif" font-size="10.00">_z_u_p_q_r_h_f_g_us</text>
<text text-anchor="middle" x="1083.68" y="-171.5" font-family="Helvetica,sans-Serif" font-size="10.00">_ps.hpp</text>
</a>
</g>
</g>
<!-- Node1&#45;&gt;Node21 -->
<g id="edge37_Node000001_Node000021" class="edge">
<title>Node1&#45;&gt;Node21</title>
<g id="a_edge37_Node000001_Node000021"><a xlink:title=" ">
<path fill="none" stroke="#63b8ff" d="M612.4,-254.66C703.99,-249.69 868.57,-237.5 1016.9,-207.88"/>
<polygon fill="#63b8ff" stroke="#63b8ff" points="1017.41,-211.35 1026.52,-205.92 1016.02,-204.49 1017.41,-211.35"/>
</a>
</g>
</g>
<!-- Node3 -->
<g id="Node000003" class="node">
<title>Node3</title>
<g id="a_Node000003"><a xlink:href="utility_8hpp.xhtml" target="_top" xlink:title="The collection of utilities supporting the library.">
<polygon fill="white" stroke="#666666" points="647.18,-129.75 550.18,-129.75 550.18,-110.5 647.18,-110.5 647.18,-129.75"/>
<text text-anchor="middle" x="598.68" y="-116.25" font-family="Helvetica,sans-Serif" font-size="10.00">fcarouge/utility.hpp</text>
</a>
</g>
</g>
<!-- Node2&#45;&gt;Node3 -->
<g id="edge2_Node000002_Node000003" class="edge">
<title>Node2&#45;&gt;Node3</title>
<g id="a_edge2_Node000002_Node000003"><a xlink:title=" ">
<path fill="none" stroke="#63b8ff" d="M135.56,-176.53C155.3,-172.88 178.56,-168.82 199.68,-165.75 319.5,-148.34 460.42,-134.01 538.64,-126.6"/>
<polygon fill="#63b8ff" stroke="#63b8ff" points="538.58,-130.12 548.21,-125.7 537.92,-123.15 538.58,-130.12"/>
</a>
</g>
</g>
<!-- Node2&#45;&gt;Node8 -->
<g id="edge11_Node000002_Node000008" class="edge">
<title>Node2&#45;&gt;Node8</title>
<g id="a_edge11_Node000002_Node000008"><a xlink:title=" ">
<path fill="none" stroke="#63b8ff" d="M93.71,-176.83C99.64,-166.08 109.36,-147.14 114.68,-129.75 125.02,-95.95 129.98,-54.95 132.16,-30.93"/>
<polygon fill="#63b8ff" stroke="#63b8ff" points="135.65,-31.24 132.98,-20.99 128.67,-30.67 135.65,-31.24"/>
</a>
</g>
</g>
<!-- Node10 -->
<g id="Node000010" class="node">
<title>Node10</title>
<g id="a_Node000010"><a xlink:title=" ">
<polygon fill="#e0e0e0" stroke="#999999" points="105.43,-129.75 33.93,-129.75 33.93,-110.5 105.43,-110.5 105.43,-129.75"/>
<text text-anchor="middle" x="69.68" y="-116.25" font-family="Helvetica,sans-Serif" font-size="10.00">initializer_list</text>
</a>
</g>
</g>
<!-- Node2&#45;&gt;Node10 -->
<g id="edge10_Node000002_Node000010" class="edge">
<title>Node2&#45;&gt;Node10</title>
<g id="a_edge10_Node000002_Node000010"><a xlink:title=" ">
<path fill="none" stroke="#63b8ff" d="M86.04,-176.66C83.31,-167.41 78.98,-152.71 75.46,-140.75"/>
<polygon fill="#63b8ff" stroke="#63b8ff" points="78.91,-140.07 72.73,-131.47 72.19,-142.05 78.91,-140.07"/>
</a>
</g>
</g>
<!-- Node4 -->
<g id="Node000004" class="node">
<title>Node4</title>
<g id="a_Node000004"><a xlink:href="internal_2utility_8hpp.xhtml" target="_top" xlink:title=" ">
<polygon fill="white" stroke="#666666" points="547.18,-74.5 456.18,-74.5 456.18,-55.25 547.18,-55.25 547.18,-74.5"/>
<text text-anchor="middle" x="501.68" y="-61" font-family="Helvetica,sans-Serif" font-size="10.00">internal/utility.hpp</text>
</a>
</g>
</g>
<!-- Node3&#45;&gt;Node4 -->
<g id="edge3_Node000003_Node000004" class="edge">
<title>Node3&#45;&gt;Node4</title>
<g id="a_edge3_Node000003_Node000004"><a xlink:title=" ">
<path fill="none" stroke="#63b8ff" d="M582.22,-110.09C567.45,-101.98 545.5,-89.93 528.25,-80.46"/>
<polygon fill="#63b8ff" stroke="#63b8ff" points="529.99,-77.43 519.54,-75.68 526.62,-83.56 529.99,-77.43"/>
</a>
</g>
</g>
<!-- Node6 -->
<g id="Node000006" class="node">
<title>Node6</title>
<g id="a_Node000006"><a xlink:title=" ">
<polygon fill="#e0e0e0" stroke="#999999" points="562.8,-19.25 514.55,-19.25 514.55,0 562.8,0 562.8,-19.25"/>
<text text-anchor="middle" x="538.68" y="-5.75" font-family="Helvetica,sans-Serif" font-size="10.00">cstddef</text>
</a>
</g>
</g>
<!-- Node3&#45;&gt;Node6 -->
<g id="edge8_Node000003_Node000006" class="edge">
<title>Node3&#45;&gt;Node6</title>
<g id="a_edge8_Node000003_Node000006"><a xlink:title=" ">
<path fill="none" stroke="#63b8ff" d="M593.77,-110.25C584.06,-92.68 562.2,-53.16 549.12,-29.52"/>
<polygon fill="#63b8ff" stroke="#63b8ff" points="552.29,-28.01 544.39,-20.95 546.17,-31.4 552.29,-28.01"/>
</a>
</g>
</g>
<!-- Node9 -->
<g id="Node000009" class="node">
<title>Node9</title>
<g id="a_Node000009"><a xlink:title=" ">
<polygon fill="#e0e0e0" stroke="#999999" points="641.93,-74.5 603.43,-74.5 603.43,-55.25 641.93,-55.25 641.93,-74.5"/>
<text text-anchor="middle" x="622.68" y="-61" font-family="Helvetica,sans-Serif" font-size="10.00">utility</text>
</a>
</g>
</g>
<!-- Node3&#45;&gt;Node9 -->
<g id="edge9_Node000003_Node000009" class="edge">
<title>Node3&#45;&gt;Node9</title>
<g id="a_edge9_Node000003_Node000009"><a xlink:title=" ">
<path fill="none" stroke="#63b8ff" d="M602.64,-110.33C605.72,-103.51 610.09,-93.81 613.97,-85.2"/>
<polygon fill="#63b8ff" stroke="#63b8ff" points="617.09,-86.79 618.01,-76.24 610.71,-83.92 617.09,-86.79"/>
</a>
</g>
</g>
<!-- Node4&#45;&gt;Node5 -->
<g id="edge4_Node000004_Node000005" class="edge">
<title>Node4&#45;&gt;Node5</title>
<g id="a_edge4_Node000004_Node000005"><a xlink:title=" ">
<path fill="none" stroke="#63b8ff" d="M475.39,-54.84C450.22,-46.2 412.02,-33.07 383.77,-23.37"/>
<polygon fill="#63b8ff" stroke="#63b8ff" points="385.13,-20.13 374.53,-20.19 382.85,-26.75 385.13,-20.13"/>
</a>
</g>
</g>
<!-- Node4&#45;&gt;Node6 -->
<g id="edge5_Node000004_Node000006" class="edge">
<title>Node4&#45;&gt;Node6</title>
<g id="a_edge5_Node000004_Node000006"><a xlink:title=" ">
<path fill="none" stroke="#63b8ff" d="M507.79,-55.08C512.74,-47.96 519.88,-37.68 526.05,-28.8"/>
<polygon fill="#63b8ff" stroke="#63b8ff" points="528.74,-31.06 531.57,-20.85 522.99,-27.07 528.74,-31.06"/>
</a>
</g>
</g>
<!-- Node7 -->
<g id="Node000007" class="node">
<title>Node7</title>
<g id="a_Node000007"><a xlink:title=" ">
<polygon fill="#e0e0e0" stroke="#999999" points="876.18,-19.25 839.18,-19.25 839.18,0 876.18,0 876.18,-19.25"/>
<text text-anchor="middle" x="857.68" y="-5.75" font-family="Helvetica,sans-Serif" font-size="10.00">tuple</text>
</a>
</g>
</g>
<!-- Node4&#45;&gt;Node7 -->
<g id="edge6_Node000004_Node000007" class="edge">
<title>Node4&#45;&gt;Node7</title>
<g id="a_edge6_Node000004_Node000007"><a xlink:title=" ">
<path fill="none" stroke="#63b8ff" d="M547.49,-57.02C621.43,-45.96 765.1,-24.47 827.52,-15.14"/>
<polygon fill="#63b8ff" stroke="#63b8ff" points="828,-18.6 837.38,-13.66 826.97,-11.68 828,-18.6"/>
</a>
</g>
</g>
<!-- Node4&#45;&gt;Node8 -->
<g id="edge7_Node000004_Node000008" class="edge">
<title>Node4&#45;&gt;Node8</title>
<g id="a_edge7_Node000004_Node000008"><a xlink:title=" ">
<path fill="none" stroke="#63b8ff" d="M455.82,-57.24C383.87,-46.83 245.53,-26.81 175.9,-16.73"/>
<polygon fill="#63b8ff" stroke="#63b8ff" points="176.43,-13.27 166.03,-15.31 175.43,-20.2 176.43,-13.27"/>
</a>
</g>
</g>
<!-- Node11&#45;&gt;Node3 -->
<g id="edge13_Node000011_Node000003" class="edge">
<title>Node11&#45;&gt;Node3</title>
<g id="a_edge13_Node000011_Node000003"><a xlink:title=" ">
<path fill="none" stroke="#63b8ff" d="M295.95,-170.9C301.84,-168.99 307.88,-167.2 313.68,-165.75 390.19,-146.59 480.44,-134.11 538.55,-127.35"/>
<polygon fill="#63b8ff" stroke="#63b8ff" points="538.69,-130.86 548.23,-126.24 537.9,-123.9 538.69,-130.86"/>
</a>
</g>
</g>
<!-- Node12&#45;&gt;Node3 -->
<g id="edge15_Node000012_Node000003" class="edge">
<title>Node12&#45;&gt;Node3</title>
<g id="a_edge15_Node000012_Node000003"><a xlink:title=" ">
<path fill="none" stroke="#63b8ff" d="M411.65,-170.9C417.02,-169.1 422.46,-167.34 427.68,-165.75 468.29,-153.39 514.95,-141.36 549.26,-132.91"/>
<polygon fill="#63b8ff" stroke="#63b8ff" points="550.05,-136.32 558.93,-130.54 548.38,-129.52 550.05,-136.32"/>
</a>
</g>
</g>
<!-- Node13&#45;&gt;Node3 -->
<g id="edge17_Node000013_Node000003" class="edge">
<title>Node13&#45;&gt;Node3</title>
<g id="a_edge17_Node000013_Node000003"><a xlink:title=" ">
<path fill="none" stroke="#63b8ff" d="M1170.21,-170.88C1162.74,-168.9 1155.04,-167.09 1147.68,-165.75 971.96,-133.63 760.37,-124.63 658.82,-122.1"/>
<polygon fill="#63b8ff" stroke="#63b8ff" points="659.17,-118.61 649.09,-121.88 659,-125.61 659.17,-118.61"/>
</a>
</g>
</g>
<!-- Node13&#45;&gt;Node7 -->
<g id="edge20_Node000013_Node000007" class="edge">
<title>Node13&#45;&gt;Node7</title>
<g id="a_edge20_Node000013_Node000007"><a xlink:title=" ">
<path fill="none" stroke="#63b8ff" d="M1197.56,-170.9C1162.36,-144.42 1084.17,-88.42 1010.68,-55.25 969.76,-36.78 919.24,-23.79 887.73,-16.76"/>
<polygon fill="#63b8ff" stroke="#63b8ff" points="888.64,-13.38 878.13,-14.68 887.16,-20.22 888.64,-13.38"/>
</a>
</g>
</g>
<!-- Node14 -->
<g id="Node000014" class="node">
<title>Node14</title>
<g id="a_Node000014"><a xlink:href="function_8hpp.xhtml" target="_top" xlink:title=" ">
<polygon fill="white" stroke="#666666" points="985.93,-129.75 917.43,-129.75 917.43,-110.5 985.93,-110.5 985.93,-129.75"/>
<text text-anchor="middle" x="951.68" y="-116.25" font-family="Helvetica,sans-Serif" font-size="10.00">function.hpp</text>
</a>
</g>
</g>
<!-- Node13&#45;&gt;Node14 -->
<g id="edge18_Node000013_Node000014" class="edge">
<title>Node13&#45;&gt;Node14</title>
<g id="a_edge18_Node000013_Node000014"><a xlink:title=" ">
<path fill="none" stroke="#63b8ff" d="M1167.02,-170.96C1160.53,-169.15 1153.96,-167.37 1147.68,-165.75 1096.47,-152.56 1037.2,-139.34 997.37,-130.76"/>
<polygon fill="#63b8ff" stroke="#63b8ff" points="998.16,-127.35 987.64,-128.68 996.69,-134.19 998.16,-127.35"/>
</a>
</g>
</g>
<!-- Node15 -->
<g id="Node000015" class="node">
<title>Node15</title>
<g id="a_Node000015"><a xlink:title=" ">
<polygon fill="#e0e0e0" stroke="#999999" points="976.93,-74.5 926.43,-74.5 926.43,-55.25 976.93,-55.25 976.93,-74.5"/>
<text text-anchor="middle" x="951.68" y="-61" font-family="Helvetica,sans-Serif" font-size="10.00">memory</text>
</a>
</g>
</g>
<!-- Node14&#45;&gt;Node15 -->
<g id="edge19_Node000014_Node000015" class="edge">
<title>Node14&#45;&gt;Node15</title>
<g id="a_edge19_Node000014_Node000015"><a xlink:title=" ">
<path fill="none" stroke="#63b8ff" d="M951.68,-110.33C951.68,-103.82 951.68,-94.67 951.68,-86.37"/>
<polygon fill="#63b8ff" stroke="#63b8ff" points="955.18,-86.37 951.68,-76.37 948.18,-86.37 955.18,-86.37"/>
</a>
</g>
</g>
<!-- Node16&#45;&gt;Node3 -->
<g id="edge22_Node000016_Node000003" class="edge">
<title>Node16&#45;&gt;Node3</title>
<g id="a_edge22_Node000016_Node000003"><a xlink:title=" ">
<path fill="none" stroke="#63b8ff" d="M686.81,-170.99C668.16,-160.44 643.1,-146.26 624.47,-135.72"/>
<polygon fill="#63b8ff" stroke="#63b8ff" points="626.35,-132.76 615.92,-130.88 622.9,-138.85 626.35,-132.76"/>
</a>
</g>
</g>
<!-- Node16&#45;&gt;Node7 -->
<g id="edge24_Node000016_Node000007" class="edge">
<title>Node16&#45;&gt;Node7</title>
<g id="a_edge24_Node000016_Node000007"><a xlink:title=" ">
<path fill="none" stroke="#63b8ff" d="M724.79,-171.01C751.3,-139.02 814.35,-62.92 843.03,-28.31"/>
<polygon fill="#63b8ff" stroke="#63b8ff" points="845.49,-30.82 849.18,-20.88 840.1,-26.35 845.49,-30.82"/>
</a>
</g>
</g>
<!-- Node16&#45;&gt;Node14 -->
<g id="edge23_Node000016_Node000014" class="edge">
<title>Node16&#45;&gt;Node14</title>
<g id="a_edge23_Node000016_Node000014"><a xlink:title=" ">
<path fill="none" stroke="#63b8ff" d="M753.31,-170.93C758.79,-169.1 764.35,-167.33 769.68,-165.75 815.76,-152.1 869.26,-139.35 906.27,-131"/>
<polygon fill="#63b8ff" stroke="#63b8ff" points="906.73,-134.48 915.73,-128.88 905.2,-127.65 906.73,-134.48"/>
</a>
</g>
</g>
<!-- Node17&#45;&gt;Node3 -->
<g id="edge26_Node000017_Node000003" class="edge">
<title>Node17&#45;&gt;Node3</title>
<g id="a_edge26_Node000017_Node000003"><a xlink:title=" ">
<path fill="none" stroke="#63b8ff" d="M510.55,-170.99C529.2,-160.44 554.26,-146.26 572.89,-135.72"/>
<polygon fill="#63b8ff" stroke="#63b8ff" points="574.46,-138.85 581.44,-130.88 571.01,-132.76 574.46,-138.85"/>
</a>
</g>
</g>
<!-- Node18&#45;&gt;Node3 -->
<g id="edge28_Node000018_Node000003" class="edge">
<title>Node18&#45;&gt;Node3</title>
<g id="a_edge28_Node000018_Node000003"><a xlink:title=" ">
<path fill="none" stroke="#63b8ff" d="M598.68,-170.99C598.68,-162.2 598.68,-150.9 598.68,-141.28"/>
<polygon fill="#63b8ff" stroke="#63b8ff" points="602.18,-141.46 598.68,-131.46 595.18,-141.46 602.18,-141.46"/>
</a>
</g>
</g>
<!-- Node19&#45;&gt;Node3 -->
<g id="edge30_Node000019_Node000003" class="edge">
<title>Node19&#45;&gt;Node3</title>
<g id="a_edge30_Node000019_Node000003"><a xlink:title=" ">
<path fill="none" stroke="#63b8ff" d="M785.71,-170.9C780.34,-169.1 774.89,-167.34 769.68,-165.75 729.07,-153.39 682.4,-141.36 648.09,-132.91"/>
<polygon fill="#63b8ff" stroke="#63b8ff" points="648.97,-129.52 638.43,-130.54 647.31,-136.32 648.97,-129.52"/>
</a>
</g>
</g>
<!-- Node19&#45;&gt;Node7 -->
<g id="edge32_Node000019_Node000007" class="edge">
<title>Node19&#45;&gt;Node7</title>
<g id="a_edge32_Node000019_Node000007"><a xlink:title=" ">
<path fill="none" stroke="#63b8ff" d="M829.27,-171.01C834.79,-139.84 847.73,-66.79 854.06,-31.05"/>
<polygon fill="#63b8ff" stroke="#63b8ff" points="857.51,-31.67 855.8,-21.21 850.61,-30.44 857.51,-31.67"/>
</a>
</g>
</g>
<!-- Node19&#45;&gt;Node14 -->
<g id="edge31_Node000019_Node000014" class="edge">
<title>Node19&#45;&gt;Node14</title>
<g id="a_edge31_Node000019_Node000014"><a xlink:title=" ">
<path fill="none" stroke="#63b8ff" d="M855.04,-170.99C875.78,-160.29 903.74,-145.86 924.25,-135.28"/>
<polygon fill="#63b8ff" stroke="#63b8ff" points="925.59,-138.52 932.87,-130.83 922.38,-132.3 925.59,-138.52"/>
</a>
</g>
</g>
<!-- Node20&#45;&gt;Node3 -->
<g id="edge34_Node000020_Node000003" class="edge">
<title>Node20&#45;&gt;Node3</title>
<g id="a_edge34_Node000020_Node000003"><a xlink:title=" ">
<path fill="none" stroke="#63b8ff" d="M904.33,-170.94C897.44,-169.05 890.4,-167.25 883.68,-165.75 806.7,-148.55 716.56,-135.62 658.6,-128.22"/>
<polygon fill="#63b8ff" stroke="#63b8ff" points="659.31,-124.78 648.95,-127 658.43,-131.73 659.31,-124.78"/>
</a>
</g>
</g>
<!-- Node20&#45;&gt;Node7 -->
<g id="edge36_Node000020_Node000007" class="edge">
<title>Node20&#45;&gt;Node7</title>
<g id="a_edge36_Node000020_Node000007"><a xlink:title=" ">
<path fill="none" stroke="#63b8ff" d="M938.92,-171.17C929.74,-160.3 917.47,-144.75 908.68,-129.75 889.21,-96.54 872.99,-54.51 864.36,-30.29"/>
<polygon fill="#63b8ff" stroke="#63b8ff" points="867.76,-29.38 861.16,-21.09 861.14,-31.68 867.76,-29.38"/>
</a>
</g>
</g>
<!-- Node20&#45;&gt;Node14 -->
<g id="edge35_Node000020_Node000014" class="edge">
<title>Node20&#45;&gt;Node14</title>
<g id="a_edge35_Node000020_Node000014"><a xlink:title=" ">
<path fill="none" stroke="#63b8ff" d="M951.68,-170.99C951.68,-162.2 951.68,-150.9 951.68,-141.28"/>
<polygon fill="#63b8ff" stroke="#63b8ff" points="955.18,-141.46 951.68,-131.46 948.18,-141.46 955.18,-141.46"/>
</a>
</g>
</g>
<!-- Node21&#45;&gt;Node3 -->
<g id="edge38_Node000021_Node000003" class="edge">
<title>Node21&#45;&gt;Node3</title>
<g id="a_edge38_Node000021_Node000003"><a xlink:title=" ">
<path fill="none" stroke="#63b8ff" d="M1028,-167.63C1025.2,-166.95 1022.41,-166.31 1019.68,-165.75 892.79,-139.59 741.04,-128.3 658.83,-123.8"/>
<polygon fill="#63b8ff" stroke="#63b8ff" points="659.14,-120.31 648.97,-123.28 658.77,-127.3 659.14,-120.31"/>
</a>
</g>
</g>
<!-- Node21&#45;&gt;Node7 -->
<g id="edge40_Node000021_Node000007" class="edge">
<title>Node21&#45;&gt;Node7</title>
<g id="a_edge40_Node000021_Node000007"><a xlink:title=" ">
<path fill="none" stroke="#63b8ff" d="M1073.52,-165.45C1058.21,-136.98 1026.61,-85.15 985.68,-55.25 956.21,-33.73 915.48,-21.91 887.94,-15.93"/>
<polygon fill="#63b8ff" stroke="#63b8ff" points="888.64,-12.5 878.15,-13.95 887.26,-19.36 888.64,-12.5"/>
</a>
</g>
</g>
<!-- Node21&#45;&gt;Node14 -->
<g id="edge39_Node000021_Node000014" class="edge">
<title>Node21&#45;&gt;Node14</title>
<g id="a_edge39_Node000021_Node000014"><a xlink:title=" ">
<path fill="none" stroke="#63b8ff" d="M1042.28,-165.39C1022.14,-155.56 998.45,-143.98 980.34,-135.13"/>
<polygon fill="#63b8ff" stroke="#63b8ff" points="982.02,-132.05 971.5,-130.81 978.94,-138.34 982.02,-132.05"/>
</a>
</g>
</g>
</g>
</svg>

<g id="navigator" transform="translate(0 0)" fill="#404254">
  <rect fill="#f2f5e9" fill-opacity="0.5" stroke="#606060" stroke-width=".5" x="0" y="0" width="60" height="60"/>
  <use id="zoomplus" xlink:href="#zoomPlus" x="17" y="9" onmousedown="handleZoom(evt,'in')"/>
  <use id="zoomminus" xlink:href="#zoomMin" x="42" y="9" onmousedown="handleZoom(evt,'out')"/>
  <use id="reset" xlink:href="#resetDef" x="30" y="36" onmousedown="handleReset()"/>
   <use id="arrowup" xlink:href="#arrowUp" x="0" y="0" onmousedown="handlePan(0,-1)"/>
  <use id="arrowright" xlink:href="#arrowRight" x="0" y="0" onmousedown="handlePan(1,0)"/>
  <use id="arrowdown" xlink:href="#arrowDown" x="0" y="0" onmousedown="handlePan(0,1)"/>
  <use id="arrowleft" xlink:href="#arrowLeft" x="0" y="0" onmousedown="handlePan(-1,0)"/>
</g>
<svg viewBox="0 0 15 15" width="100%" height="30px" preserveAspectRatio="xMaxYMin meet">
 <g id="arrow_out" transform="scale(0.3 0.3)">
  <a xlink:href="factory_8hpp__incl_org.svg" target="_base">
   <rect id="button" ry="5" rx="5" y="6" x="6" height="38" width="38"
        fill="#f2f5e9" fill-opacity="0.5" stroke="#606060" stroke-width="1.0"/>
   <path id="arrow"
     d="M 11.500037,31.436501 C 11.940474,20.09759 22.043105,11.32322 32.158766,21.979434 L 37.068811,17.246167 C 37.068811,17.246167 37.088388,32 37.088388,32 L 22.160133,31.978069 C 22.160133,31.978069 26.997745,27.140456 26.997745,27.140456 C 18.528582,18.264221 13.291696,25.230495 11.500037,31.436501 z"
     style="fill:#404040;"/>
  </a>
 </g>
</svg>

<style type='text/css'>
<![CDATA[
[data-mouse-over-selected='false'] { opacity: 0.7; }
[data-mouse-over-selected='true']  { opacity: 1.0; }
]]>
</style>
<script type="application/ecmascript"><![CDATA[
document.addEventListener('DOMContentLoaded', (event) => {
  highlightEdges();
  highlightAdjacentNodes();
});
]]></script>
</svg>
