<?xml version="1.0" encoding="UTF-8" standalone="no"?>
<!DOCTYPE svg PUBLIC "-//W3C//DTD SVG 1.1//EN"
 "http://www.w3.org/Graphics/SVG/1.1/DTD/svg11.dtd">
<!-- Generated by graphviz version 12.2.0 (20241103.1931)
 -->
<!-- Title: /github/workspace/include/fcarouge/kalman_internal/factory.hpp Pages: 1 -->
<svg width="1194pt" height="282pt"
 viewBox="0.00 0.00 1193.57 282.00" xmlns="http://www.w3.org/2000/svg" xmlns:xlink="http://www.w3.org/1999/xlink">
<g id="graph0" class="graph" transform="scale(1 1) rotate(0) translate(4 278)">
<title>/github/workspace/include/fcarouge/kalman_internal/factory.hpp</title>
<!-- Node1 -->
<g id="Node000001" class="node">
<title>Node1</title>
<g id="a_Node000001"><a xlink:title=" ">
<polygon fill="#999999" stroke="#666666" points="532.82,-274 403.57,-274 403.57,-232.25 532.82,-232.25 532.82,-274"/>
<text text-anchor="start" x="411.57" y="-260.5" font-family="Helvetica,sans-Serif" font-size="10.00">/github/workspace/include</text>
<text text-anchor="start" x="411.57" y="-249.25" font-family="Helvetica,sans-Serif" font-size="10.00">/fcarouge/kalman_internal</text>
<text text-anchor="middle" x="468.2" y="-238" font-family="Helvetica,sans-Serif" font-size="10.00">/factory.hpp</text>
</a>
</g>
</g>
<!-- Node2 -->
<g id="Node000002" class="node">
<title>Node2</title>
<g id="a_Node000002"><a xlink:href="type_8hpp.xhtml" target="_top" xlink:title=" ">
<polygon fill="white" stroke="#666666" points="124.2,-190.62 72.2,-190.62 72.2,-171.38 124.2,-171.38 124.2,-190.62"/>
<text text-anchor="middle" x="98.2" y="-177.12" font-family="Helvetica,sans-Serif" font-size="10.00">type.hpp</text>
</a>
</g>
</g>
<!-- Node1&#45;&gt;Node2 -->
<g id="edge1_Node000001_Node000002" class="edge">
<title>Node1&#45;&gt;Node2</title>
<g id="a_edge1_Node000001_Node000002"><a xlink:title=" ">
<path fill="none" stroke="#63b8ff" d="M403.3,-244.54C336.24,-235.91 228.87,-219.88 138.2,-196.25 136.2,-195.73 134.16,-195.15 132.11,-194.53"/>
<polygon fill="#63b8ff" stroke="#63b8ff" points="133.28,-191.24 122.69,-191.45 131.1,-197.89 133.28,-191.24"/>
</a>
</g>
</g>
<!-- Node5 -->
<g id="Node000005" class="node">
<title>Node5</title>
<g id="a_Node000005"><a xlink:title=" ">
<polygon fill="#e0e0e0" stroke="#999999" points="333.07,-19.25 277.32,-19.25 277.32,0 333.07,0 333.07,-19.25"/>
<text text-anchor="middle" x="305.2" y="-5.75" font-family="Helvetica,sans-Serif" font-size="10.00">concepts</text>
</a>
</g>
</g>
<!-- Node1&#45;&gt;Node5 -->
<g id="edge41_Node000001_Node000005" class="edge">
<title>Node1&#45;&gt;Node5</title>
<g id="a_edge41_Node000001_Node000005"><a xlink:title=" ">
<path fill="none" stroke="#63b8ff" d="M403.24,-249.29C324.89,-244.34 200.09,-231.08 171.2,-196.25 120.99,-135.72 228.45,-57.86 279.84,-25.63"/>
<polygon fill="#63b8ff" stroke="#63b8ff" points="281.62,-28.65 288.3,-20.43 277.95,-22.68 281.62,-28.65"/>
</a>
</g>
</g>
<!-- Node8 -->
<g id="Node000008" class="node">
<title>Node8</title>
<g id="a_Node000008"><a xlink:title=" ">
<polygon fill="#e0e0e0" stroke="#999999" points="144.7,-19.25 83.7,-19.25 83.7,0 144.7,0 144.7,-19.25"/>
<text text-anchor="middle" x="114.2" y="-5.75" font-family="Helvetica,sans-Serif" font-size="10.00">type_traits</text>
</a>
</g>
</g>
<!-- Node1&#45;&gt;Node8 -->
<g id="edge42_Node000001_Node000008" class="edge">
<title>Node1&#45;&gt;Node8</title>
<g id="a_edge42_Node000001_Node000008"><a xlink:title=" ">
<path fill="none" stroke="#63b8ff" d="M403.34,-248.69C304.24,-242.53 120.57,-227.25 63.2,-196.25 22.72,-174.38 -13.33,-152.61 5.2,-110.5 21.99,-72.34 61.36,-42.39 87.89,-25.6"/>
<polygon fill="#63b8ff" stroke="#63b8ff" points="89.69,-28.61 96.4,-20.41 86.04,-22.63 89.69,-28.61"/>
</a>
</g>
</g>
<!-- Node11 -->
<g id="Node000011" class="node">
<title>Node11</title>
<g id="a_Node000011"><a xlink:href="x__z__p__q__r_8hpp.xhtml" target="_top" xlink:title=" ">
<polygon fill="white" stroke="#666666" points="257.95,-190.62 180.45,-190.62 180.45,-171.38 257.95,-171.38 257.95,-190.62"/>
<text text-anchor="middle" x="219.2" y="-177.12" font-family="Helvetica,sans-Serif" font-size="10.00">x_z_p_q_r.hpp</text>
</a>
</g>
</g>
<!-- Node1&#45;&gt;Node11 -->
<g id="edge12_Node000001_Node000011" class="edge">
<title>Node1&#45;&gt;Node11</title>
<g id="a_edge12_Node000001_Node000011"><a xlink:title=" ">
<path fill="none" stroke="#63b8ff" d="M403.39,-234.42C363.97,-223.57 312.62,-209.31 267.2,-196.25 264.95,-195.6 262.64,-194.93 260.31,-194.26"/>
<polygon fill="#63b8ff" stroke="#63b8ff" points="261.42,-190.94 250.84,-191.48 259.45,-197.65 261.42,-190.94"/>
</a>
</g>
</g>
<!-- Node12 -->
<g id="Node000012" class="node">
<title>Node12</title>
<g id="a_Node000012"><a xlink:href="x__z__p__q__r__h__f_8hpp.xhtml" target="_top" xlink:title=" ">
<polygon fill="white" stroke="#666666" points="372.32,-190.62 276.07,-190.62 276.07,-171.38 372.32,-171.38 372.32,-190.62"/>
<text text-anchor="middle" x="324.2" y="-177.12" font-family="Helvetica,sans-Serif" font-size="10.00">x_z_p_q_r_h_f.hpp</text>
</a>
</g>
</g>
<!-- Node1&#45;&gt;Node12 -->
<g id="edge14_Node000001_Node000012" class="edge">
<title>Node1&#45;&gt;Node12</title>
<g id="a_edge14_Node000001_Node000012"><a xlink:title=" ">
<path fill="none" stroke="#63b8ff" d="M426.55,-231.84C402.92,-220.34 373.96,-206.23 352.88,-195.97"/>
<polygon fill="#63b8ff" stroke="#63b8ff" points="354.53,-192.88 344.01,-191.65 351.47,-199.17 354.53,-192.88"/>
</a>
</g>
</g>
<!-- Node13 -->
<g id="Node000013" class="node">
<title>Node13</title>
<g id="a_Node000013"><a xlink:href="x__z__p__q__r__hh__us__ps_8hpp.xhtml" target="_top" xlink:title=" ">
<polygon fill="white" stroke="#666666" points="1185.57,-190.62 1060.82,-190.62 1060.82,-171.38 1185.57,-171.38 1185.57,-190.62"/>
<text text-anchor="middle" x="1123.2" y="-177.12" font-family="Helvetica,sans-Serif" font-size="10.00">x_z_p_q_r_hh_us_ps.hpp</text>
</a>
</g>
</g>
<!-- Node1&#45;&gt;Node13 -->
<g id="edge16_Node000001_Node000013" class="edge">
<title>Node1&#45;&gt;Node13</title>
<g id="a_edge16_Node000001_Node000013"><a xlink:title=" ">
<path fill="none" stroke="#63b8ff" d="M533.28,-248.09C641.42,-240.89 864.79,-223.95 1052.2,-196.25 1058.18,-195.37 1064.43,-194.31 1070.62,-193.18"/>
<polygon fill="#63b8ff" stroke="#63b8ff" points="1070.99,-196.67 1080.16,-191.36 1069.68,-189.79 1070.99,-196.67"/>
</a>
</g>
</g>
<!-- Node16 -->
<g id="Node000016" class="node">
<title>Node16</title>
<g id="a_Node000016"><a xlink:href="x__z__p__qq__rr__f_8hpp.xhtml" target="_top" xlink:title=" ">
<polygon fill="white" stroke="#666666" points="663.2,-190.62 569.2,-190.62 569.2,-171.38 663.2,-171.38 663.2,-190.62"/>
<text text-anchor="middle" x="616.2" y="-177.12" font-family="Helvetica,sans-Serif" font-size="10.00">x_z_p_qq_rr_f.hpp</text>
</a>
</g>
</g>
<!-- Node1&#45;&gt;Node16 -->
<g id="edge21_Node000001_Node000016" class="edge">
<title>Node1&#45;&gt;Node16</title>
<g id="a_edge21_Node000001_Node000016"><a xlink:title=" ">
<path fill="none" stroke="#63b8ff" d="M511,-231.84C535.4,-220.28 565.33,-206.1 587.01,-195.83"/>
<polygon fill="#63b8ff" stroke="#63b8ff" points="588.33,-199.08 595.87,-191.63 585.33,-192.75 588.33,-199.08"/>
</a>
</g>
</g>
<!-- Node17 -->
<g id="Node000017" class="node">
<title>Node17</title>
<g id="a_Node000017"><a xlink:href="x__z__p__r_8hpp.xhtml" target="_top" xlink:title=" ">
<polygon fill="white" stroke="#666666" points="457.7,-190.62 390.7,-190.62 390.7,-171.38 457.7,-171.38 457.7,-190.62"/>
<text text-anchor="middle" x="424.2" y="-177.12" font-family="Helvetica,sans-Serif" font-size="10.00">x_z_p_r.hpp</text>
</a>
</g>
</g>
<!-- Node1&#45;&gt;Node17 -->
<g id="edge25_Node000001_Node000017" class="edge">
<title>Node1&#45;&gt;Node17</title>
<g id="a_edge25_Node000001_Node000017"><a xlink:title=" ">
<path fill="none" stroke="#63b8ff" d="M455.47,-231.84C449.27,-221.97 441.88,-210.18 435.83,-200.54"/>
<polygon fill="#63b8ff" stroke="#63b8ff" points="438.8,-198.69 430.52,-192.08 432.87,-202.41 438.8,-198.69"/>
</a>
</g>
</g>
<!-- Node18 -->
<g id="Node000018" class="node">
<title>Node18</title>
<g id="a_Node000018"><a xlink:href="x__z__p__r__f_8hpp.xhtml" target="_top" xlink:title=" ">
<polygon fill="white" stroke="#666666" points="550.82,-190.62 475.57,-190.62 475.57,-171.38 550.82,-171.38 550.82,-190.62"/>
<text text-anchor="middle" x="513.2" y="-177.12" font-family="Helvetica,sans-Serif" font-size="10.00">x_z_p_r_f.hpp</text>
</a>
</g>
</g>
<!-- Node1&#45;&gt;Node18 -->
<g id="edge27_Node000001_Node000018" class="edge">
<title>Node1&#45;&gt;Node18</title>
<g id="a_edge27_Node000001_Node000018"><a xlink:title=" ">
<path fill="none" stroke="#63b8ff" d="M481.21,-231.84C487.62,-221.86 495.28,-209.92 501.5,-200.23"/>
<polygon fill="#63b8ff" stroke="#63b8ff" points="504.28,-202.38 506.73,-192.08 498.39,-198.6 504.28,-202.38"/>
</a>
</g>
</g>
<!-- Node19 -->
<g id="Node000019" class="node">
<title>Node19</title>
<g id="a_Node000019"><a xlink:href="x__z__u__p__q__r_8hpp.xhtml" target="_top" xlink:title=" ">
<polygon fill="white" stroke="#666666" points="769.2,-190.62 681.2,-190.62 681.2,-171.38 769.2,-171.38 769.2,-190.62"/>
<text text-anchor="middle" x="725.2" y="-177.12" font-family="Helvetica,sans-Serif" font-size="10.00">x_z_u_p_q_r.hpp</text>
</a>
</g>
</g>
<!-- Node1&#45;&gt;Node19 -->
<g id="edge29_Node000001_Node000019" class="edge">
<title>Node1&#45;&gt;Node19</title>
<g id="a_edge29_Node000001_Node000019"><a xlink:title=" ">
<path fill="none" stroke="#63b8ff" d="M533.05,-234.43C579.26,-221.82 640.17,-205.2 680.9,-194.09"/>
<polygon fill="#63b8ff" stroke="#63b8ff" points="681.64,-197.51 690.37,-191.5 679.8,-190.76 681.64,-197.51"/>
</a>
</g>
</g>
<!-- Node20 -->
<g id="Node000020" class="node">
<title>Node20</title>
<g id="a_Node000020"><a xlink:href="x__z__u__p__q__r__f__g__ps_8hpp.xhtml" target="_top" xlink:title=" ">
<polygon fill="white" stroke="#666666" points="909.45,-190.62 786.95,-190.62 786.95,-171.38 909.45,-171.38 909.45,-190.62"/>
<text text-anchor="middle" x="848.2" y="-177.12" font-family="Helvetica,sans-Serif" font-size="10.00">x_z_u_p_q_r_f_g_ps.hpp</text>
</a>
</g>
</g>
<!-- Node1&#45;&gt;Node20 -->
<g id="edge33_Node000001_Node000020" class="edge">
<title>Node1&#45;&gt;Node20</title>
<g id="a_edge33_Node000001_Node000020"><a xlink:title=" ">
<path fill="none" stroke="#63b8ff" d="M533.29,-240.83C596.08,-229.83 693.74,-212.46 778.2,-196.25 783.06,-195.32 788.1,-194.33 793.15,-193.33"/>
<polygon fill="#63b8ff" stroke="#63b8ff" points="793.56,-196.81 802.68,-191.42 792.19,-189.95 793.56,-196.81"/>
</a>
</g>
</g>
<!-- Node21 -->
<g id="Node000021" class="node">
<title>Node21</title>
<g id="a_Node000021"><a xlink:href="x__z__u__p__q__r__h__f__g__us__ps_8hpp.xhtml" target="_top" xlink:title=" ">
<polygon fill="white" stroke="#666666" points="1042.7,-196.25 927.7,-196.25 927.7,-165.75 1042.7,-165.75 1042.7,-196.25"/>
<text text-anchor="start" x="935.7" y="-182.75" font-family="Helvetica,sans-Serif" font-size="10.00">x_z_u_p_q_r_h_f_g_us</text>
<text text-anchor="middle" x="985.2" y="-171.5" font-family="Helvetica,sans-Serif" font-size="10.00">_ps.hpp</text>
</a>
</g>
</g>
<!-- Node1&#45;&gt;Node21 -->
<g id="edge37_Node000001_Node000021" class="edge">
<title>Node1&#45;&gt;Node21</title>
<g id="a_edge37_Node000001_Node000021"><a xlink:title=" ">
<path fill="none" stroke="#63b8ff" d="M533.28,-245.82C618.79,-237.14 773.82,-220.05 916.4,-196.46"/>
<polygon fill="#63b8ff" stroke="#63b8ff" points="916.73,-199.95 926.02,-194.85 915.58,-193.04 916.73,-199.95"/>
</a>
</g>
</g>
<!-- Node3 -->
<g id="Node000003" class="node">
<title>Node3</title>
<g id="a_Node000003"><a xlink:href="utility_8hpp.xhtml" target="_top" xlink:title="The collection of utilities supporting the library.">
<polygon fill="white" stroke="#666666" points="561.7,-129.75 464.7,-129.75 464.7,-110.5 561.7,-110.5 561.7,-129.75"/>
<text text-anchor="middle" x="513.2" y="-116.25" font-family="Helvetica,sans-Serif" font-size="10.00">fcarouge/utility.hpp</text>
</a>
</g>
</g>
<!-- Node2&#45;&gt;Node3 -->
<g id="edge2_Node000002_Node000003" class="edge">
<title>Node2&#45;&gt;Node3</title>
<g id="a_edge2_Node000002_Node000003"><a xlink:title=" ">
<path fill="none" stroke="#63b8ff" d="M124.48,-174.45C138.34,-171.63 155.65,-168.28 171.2,-165.75 269.53,-149.75 384.5,-135.7 452.95,-127.82"/>
<polygon fill="#63b8ff" stroke="#63b8ff" points="453.31,-131.3 462.85,-126.69 452.51,-124.35 453.31,-131.3"/>
</a>
</g>
</g>
<!-- Node2&#45;&gt;Node8 -->
<g id="edge11_Node000002_Node000008" class="edge">
<title>Node2&#45;&gt;Node8</title>
<g id="a_edge11_Node000002_Node000008"><a xlink:title=" ">
<path fill="none" stroke="#63b8ff" d="M99.06,-170.89C101.55,-144.46 108.84,-67.29 112.32,-30.53"/>
<polygon fill="#63b8ff" stroke="#63b8ff" points="115.77,-31.16 113.23,-20.87 108.8,-30.5 115.77,-31.16"/>
</a>
</g>
</g>
<!-- Node10 -->
<g id="Node000010" class="node">
<title>Node10</title>
<g id="a_Node000010"><a xlink:title=" ">
<polygon fill="#e0e0e0" stroke="#999999" points="85.95,-129.75 14.45,-129.75 14.45,-110.5 85.95,-110.5 85.95,-129.75"/>
<text text-anchor="middle" x="50.2" y="-116.25" font-family="Helvetica,sans-Serif" font-size="10.00">initializer_list</text>
</a>
</g>
</g>
<!-- Node2&#45;&gt;Node10 -->
<g id="edge10_Node000002_Node000010" class="edge">
<title>Node2&#45;&gt;Node10</title>
<g id="a_edge10_Node000002_Node000010"><a xlink:title=" ">
<path fill="none" stroke="#63b8ff" d="M90.91,-171.06C84,-162.59 73.43,-149.62 64.79,-139.02"/>
<polygon fill="#63b8ff" stroke="#63b8ff" points="67.54,-136.86 58.51,-131.32 62.12,-141.29 67.54,-136.86"/>
</a>
</g>
</g>
<!-- Node4 -->
<g id="Node000004" class="node">
<title>Node4</title>
<g id="a_Node000004"><a xlink:href="kalman__internal_2utility_8hpp.xhtml" target="_top" xlink:title=" ">
<polygon fill="white" stroke="#666666" points="462.07,-74.5 334.32,-74.5 334.32,-55.25 462.07,-55.25 462.07,-74.5"/>
<text text-anchor="middle" x="398.2" y="-61" font-family="Helvetica,sans-Serif" font-size="10.00">kalman_internal/utility.hpp</text>
</a>
</g>
</g>
<!-- Node3&#45;&gt;Node4 -->
<g id="edge3_Node000003_Node000004" class="edge">
<title>Node3&#45;&gt;Node4</title>
<g id="a_edge3_Node000003_Node000004"><a xlink:title=" ">
<path fill="none" stroke="#63b8ff" d="M493.69,-110.09C475.68,-101.75 448.67,-89.25 427.97,-79.66"/>
<polygon fill="#63b8ff" stroke="#63b8ff" points="429.72,-76.61 419.17,-75.59 426.78,-82.97 429.72,-76.61"/>
</a>
</g>
</g>
<!-- Node6 -->
<g id="Node000006" class="node">
<title>Node6</title>
<g id="a_Node000006"><a xlink:title=" ">
<polygon fill="#e0e0e0" stroke="#999999" points="468.32,-19.25 420.07,-19.25 420.07,0 468.32,0 468.32,-19.25"/>
<text text-anchor="middle" x="444.2" y="-5.75" font-family="Helvetica,sans-Serif" font-size="10.00">cstddef</text>
</a>
</g>
</g>
<!-- Node3&#45;&gt;Node6 -->
<g id="edge8_Node000003_Node000006" class="edge">
<title>Node3&#45;&gt;Node6</title>
<g id="a_edge8_Node000003_Node000006"><a xlink:title=" ">
<path fill="none" stroke="#63b8ff" d="M507.55,-110.25C496.33,-92.6 471.02,-52.8 456.01,-29.2"/>
<polygon fill="#63b8ff" stroke="#63b8ff" points="459.05,-27.46 450.73,-20.9 453.15,-31.22 459.05,-27.46"/>
</a>
</g>
</g>
<!-- Node9 -->
<g id="Node000009" class="node">
<title>Node9</title>
<g id="a_Node000009"><a xlink:title=" ">
<polygon fill="#e0e0e0" stroke="#999999" points="556.45,-74.5 517.95,-74.5 517.95,-55.25 556.45,-55.25 556.45,-74.5"/>
<text text-anchor="middle" x="537.2" y="-61" font-family="Helvetica,sans-Serif" font-size="10.00">utility</text>
</a>
</g>
</g>
<!-- Node3&#45;&gt;Node9 -->
<g id="edge9_Node000003_Node000009" class="edge">
<title>Node3&#45;&gt;Node9</title>
<g id="a_edge9_Node000003_Node000009"><a xlink:title=" ">
<path fill="none" stroke="#63b8ff" d="M517.16,-110.33C520.23,-103.51 524.61,-93.81 528.49,-85.2"/>
<polygon fill="#63b8ff" stroke="#63b8ff" points="531.61,-86.79 532.53,-76.24 525.23,-83.92 531.61,-86.79"/>
</a>
</g>
</g>
<!-- Node4&#45;&gt;Node5 -->
<g id="edge4_Node000004_Node000005" class="edge">
<title>Node4&#45;&gt;Node5</title>
<g id="a_edge4_Node000004_Node000005"><a xlink:title=" ">
<path fill="none" stroke="#63b8ff" d="M382.42,-54.84C368.26,-46.73 347.21,-34.68 330.67,-25.21"/>
<polygon fill="#63b8ff" stroke="#63b8ff" points="332.78,-22.39 322.36,-20.45 329.3,-28.46 332.78,-22.39"/>
</a>
</g>
</g>
<!-- Node4&#45;&gt;Node6 -->
<g id="edge5_Node000004_Node000006" class="edge">
<title>Node4&#45;&gt;Node6</title>
<g id="a_edge5_Node000004_Node000006"><a xlink:title=" ">
<path fill="none" stroke="#63b8ff" d="M405.79,-55.08C412.08,-47.8 421.21,-37.23 428.99,-28.23"/>
<polygon fill="#63b8ff" stroke="#63b8ff" points="431.56,-30.61 435.45,-20.75 426.26,-26.03 431.56,-30.61"/>
</a>
</g>
</g>
<!-- Node7 -->
<g id="Node000007" class="node">
<title>Node7</title>
<g id="a_Node000007"><a xlink:title=" ">
<polygon fill="#e0e0e0" stroke="#999999" points="771.7,-19.25 734.7,-19.25 734.7,0 771.7,0 771.7,-19.25"/>
<text text-anchor="middle" x="753.2" y="-5.75" font-family="Helvetica,sans-Serif" font-size="10.00">tuple</text>
</a>
</g>
</g>
<!-- Node4&#45;&gt;Node7 -->
<g id="edge6_Node000004_Node000007" class="edge">
<title>Node4&#45;&gt;Node7</title>
<g id="a_edge6_Node000004_Node000007"><a xlink:title=" ">
<path fill="none" stroke="#63b8ff" d="M458.82,-54.78C535.55,-43.27 664.72,-23.9 723.03,-15.15"/>
<polygon fill="#63b8ff" stroke="#63b8ff" points="723.49,-18.62 732.86,-13.68 722.45,-11.7 723.49,-18.62"/>
</a>
</g>
</g>
<!-- Node4&#45;&gt;Node8 -->
<g id="edge7_Node000004_Node000008" class="edge">
<title>Node4&#45;&gt;Node8</title>
<g id="a_edge7_Node000004_Node000008"><a xlink:title=" ">
<path fill="none" stroke="#63b8ff" d="M349.7,-54.78C295.2,-44.56 207.63,-28.14 156.03,-18.47"/>
<polygon fill="#63b8ff" stroke="#63b8ff" points="156.93,-15.08 146.45,-16.67 155.64,-21.96 156.93,-15.08"/>
</a>
</g>
</g>
<!-- Node11&#45;&gt;Node3 -->
<g id="edge13_Node000011_Node000003" class="edge">
<title>Node11&#45;&gt;Node3</title>
<g id="a_edge13_Node000011_Node000003"><a xlink:title=" ">
<path fill="none" stroke="#63b8ff" d="M248,-170.9C254.29,-169.06 260.94,-167.24 267.2,-165.75 330.07,-150.76 403.03,-138.11 453.07,-130.15"/>
<polygon fill="#63b8ff" stroke="#63b8ff" points="453.5,-133.63 462.83,-128.61 452.41,-126.71 453.5,-133.63"/>
</a>
</g>
</g>
<!-- Node12&#45;&gt;Node3 -->
<g id="edge15_Node000012_Node000003" class="edge">
<title>Node12&#45;&gt;Node3</title>
<g id="a_edge15_Node000012_Node000003"><a xlink:title=" ">
<path fill="none" stroke="#63b8ff" d="M353.31,-170.93C385.5,-160.9 437.54,-144.69 473.46,-133.5"/>
<polygon fill="#63b8ff" stroke="#63b8ff" points="474.1,-136.97 482.6,-130.66 472.01,-130.29 474.1,-136.97"/>
</a>
</g>
</g>
<!-- Node13&#45;&gt;Node3 -->
<g id="edge17_Node000013_Node000003" class="edge">
<title>Node13&#45;&gt;Node3</title>
<g id="a_edge17_Node000013_Node000003"><a xlink:title=" ">
<path fill="none" stroke="#63b8ff" d="M1082.04,-170.9C1072.29,-168.98 1061.91,-167.12 1052.2,-165.75 879.37,-141.34 673.34,-128.85 573.45,-123.84"/>
<polygon fill="#63b8ff" stroke="#63b8ff" points="573.76,-120.35 563.6,-123.35 573.42,-127.34 573.76,-120.35"/>
</a>
</g>
</g>
<!-- Node13&#45;&gt;Node7 -->
<g id="edge20_Node000013_Node000007" class="edge">
<title>Node13&#45;&gt;Node7</title>
<g id="a_edge20_Node000013_Node000007"><a xlink:title=" ">
<path fill="none" stroke="#63b8ff" d="M1110.14,-170.94C1077.37,-148.54 988.47,-89.89 907.2,-55.25 865.64,-37.54 814.89,-24.35 783.3,-17.07"/>
<polygon fill="#63b8ff" stroke="#63b8ff" points="784.19,-13.68 773.67,-14.9 782.66,-20.51 784.19,-13.68"/>
</a>
</g>
</g>
<!-- Node14 -->
<g id="Node000014" class="node">
<title>Node14</title>
<g id="a_Node000014"><a xlink:href="function_8hpp.xhtml" target="_top" xlink:title=" ">
<polygon fill="white" stroke="#666666" points="882.45,-129.75 813.95,-129.75 813.95,-110.5 882.45,-110.5 882.45,-129.75"/>
<text text-anchor="middle" x="848.2" y="-116.25" font-family="Helvetica,sans-Serif" font-size="10.00">function.hpp</text>
</a>
</g>
</g>
<!-- Node13&#45;&gt;Node14 -->
<g id="edge18_Node000013_Node000014" class="edge">
<title>Node13&#45;&gt;Node14</title>
<g id="a_edge18_Node000013_Node000014"><a xlink:title=" ">
<path fill="none" stroke="#63b8ff" d="M1080.83,-170.93C1030.27,-160.1 946.03,-142.07 894,-130.93"/>
<polygon fill="#63b8ff" stroke="#63b8ff" points="894.76,-127.52 884.25,-128.84 893.3,-134.36 894.76,-127.52"/>
</a>
</g>
</g>
<!-- Node15 -->
<g id="Node000015" class="node">
<title>Node15</title>
<g id="a_Node000015"><a xlink:title=" ">
<polygon fill="#e0e0e0" stroke="#999999" points="873.45,-74.5 822.95,-74.5 822.95,-55.25 873.45,-55.25 873.45,-74.5"/>
<text text-anchor="middle" x="848.2" y="-61" font-family="Helvetica,sans-Serif" font-size="10.00">memory</text>
</a>
</g>
</g>
<!-- Node14&#45;&gt;Node15 -->
<g id="edge19_Node000014_Node000015" class="edge">
<title>Node14&#45;&gt;Node15</title>
<g id="a_edge19_Node000014_Node000015"><a xlink:title=" ">
<path fill="none" stroke="#63b8ff" d="M848.2,-110.33C848.2,-103.82 848.2,-94.67 848.2,-86.37"/>
<polygon fill="#63b8ff" stroke="#63b8ff" points="851.7,-86.37 848.2,-76.37 844.7,-86.37 851.7,-86.37"/>
</a>
</g>
</g>
<!-- Node16&#45;&gt;Node3 -->
<g id="edge22_Node000016_Node000003" class="edge">
<title>Node16&#45;&gt;Node3</title>
<g id="a_edge22_Node000016_Node000003"><a xlink:title=" ">
<path fill="none" stroke="#63b8ff" d="M600.55,-171.06C584.22,-161.72 558.33,-146.92 538.97,-135.86"/>
<polygon fill="#63b8ff" stroke="#63b8ff" points="540.72,-132.83 530.3,-130.9 537.25,-138.9 540.72,-132.83"/>
</a>
</g>
</g>
<!-- Node16&#45;&gt;Node7 -->
<g id="edge24_Node000016_Node000007" class="edge">
<title>Node16&#45;&gt;Node7</title>
<g id="a_edge24_Node000016_Node000007"><a xlink:title=" ">
<path fill="none" stroke="#63b8ff" d="M623.56,-170.89C645.41,-143.89 710.11,-63.9 738.99,-28.18"/>
<polygon fill="#63b8ff" stroke="#63b8ff" points="741.61,-30.52 745.17,-20.54 736.16,-26.12 741.61,-30.52"/>
</a>
</g>
</g>
<!-- Node16&#45;&gt;Node14 -->
<g id="edge23_Node000016_Node000014" class="edge">
<title>Node16&#45;&gt;Node14</title>
<g id="a_edge23_Node000016_Node000014"><a xlink:title=" ">
<path fill="none" stroke="#63b8ff" d="M651.75,-170.95C658.53,-169.22 665.59,-167.43 672.2,-165.75 716.44,-154.51 766.96,-141.71 802.48,-132.7"/>
<polygon fill="#63b8ff" stroke="#63b8ff" points="803.16,-136.14 812,-130.29 801.44,-129.36 803.16,-136.14"/>
</a>
</g>
</g>
<!-- Node17&#45;&gt;Node3 -->
<g id="edge26_Node000017_Node000003" class="edge">
<title>Node17&#45;&gt;Node3</title>
<g id="a_edge26_Node000017_Node000003"><a xlink:title=" ">
<path fill="none" stroke="#63b8ff" d="M437.71,-171.06C451.57,-161.89 473.37,-147.47 489.99,-136.48"/>
<polygon fill="#63b8ff" stroke="#63b8ff" points="491.88,-139.42 498.29,-130.99 488.02,-133.58 491.88,-139.42"/>
</a>
</g>
</g>
<!-- Node18&#45;&gt;Node3 -->
<g id="edge28_Node000018_Node000003" class="edge">
<title>Node18&#45;&gt;Node3</title>
<g id="a_edge28_Node000018_Node000003"><a xlink:title=" ">
<path fill="none" stroke="#63b8ff" d="M513.2,-171.06C513.2,-163.28 513.2,-151.7 513.2,-141.66"/>
<polygon fill="#63b8ff" stroke="#63b8ff" points="516.7,-141.66 513.2,-131.66 509.7,-141.66 516.7,-141.66"/>
</a>
</g>
</g>
<!-- Node19&#45;&gt;Node3 -->
<g id="edge30_Node000019_Node000003" class="edge">
<title>Node19&#45;&gt;Node3</title>
<g id="a_edge30_Node000019_Node000003"><a xlink:title=" ">
<path fill="none" stroke="#63b8ff" d="M692.54,-170.93C656.12,-160.82 597.06,-144.41 556.74,-133.22"/>
<polygon fill="#63b8ff" stroke="#63b8ff" points="557.93,-129.91 547.35,-130.61 556.05,-136.66 557.93,-129.91"/>
</a>
</g>
</g>
<!-- Node19&#45;&gt;Node7 -->
<g id="edge32_Node000019_Node000007" class="edge">
<title>Node19&#45;&gt;Node7</title>
<g id="a_edge32_Node000019_Node000007"><a xlink:title=" ">
<path fill="none" stroke="#63b8ff" d="M726.7,-170.89C731.07,-144.46 743.83,-67.29 749.91,-30.53"/>
<polygon fill="#63b8ff" stroke="#63b8ff" points="753.33,-31.3 751.51,-20.86 746.42,-30.16 753.33,-31.3"/>
</a>
</g>
</g>
<!-- Node19&#45;&gt;Node14 -->
<g id="edge31_Node000019_Node000014" class="edge">
<title>Node19&#45;&gt;Node14</title>
<g id="a_edge31_Node000019_Node000014"><a xlink:title=" ">
<path fill="none" stroke="#63b8ff" d="M744.15,-170.93C764.16,-161.35 795.96,-146.13 819.14,-135.03"/>
<polygon fill="#63b8ff" stroke="#63b8ff" points="820.55,-138.24 828.06,-130.76 817.53,-131.92 820.55,-138.24"/>
</a>
</g>
</g>
<!-- Node20&#45;&gt;Node3 -->
<g id="edge34_Node000020_Node000003" class="edge">
<title>Node20&#45;&gt;Node3</title>
<g id="a_edge34_Node000020_Node000003"><a xlink:title=" ">
<path fill="none" stroke="#63b8ff" d="M804.55,-170.88C795.83,-169.12 786.73,-167.34 778.2,-165.75 707.97,-152.69 626.95,-139.29 573.18,-130.63"/>
<polygon fill="#63b8ff" stroke="#63b8ff" points="574.05,-127.22 563.62,-129.09 572.94,-134.14 574.05,-127.22"/>
</a>
</g>
</g>
<!-- Node20&#45;&gt;Node7 -->
<g id="edge36_Node000020_Node000007" class="edge">
<title>Node20&#45;&gt;Node7</title>
<g id="a_edge36_Node000020_Node000007"><a xlink:title=" ">
<path fill="none" stroke="#63b8ff" d="M839.06,-171.03C829.67,-161.45 815.07,-145.51 805.2,-129.75 784.7,-97.03 768.37,-54.84 759.8,-30.45"/>
<polygon fill="#63b8ff" stroke="#63b8ff" points="763.17,-29.5 756.62,-21.17 756.55,-31.77 763.17,-29.5"/>
</a>
</g>
</g>
<!-- Node20&#45;&gt;Node14 -->
<g id="edge35_Node000020_Node000014" class="edge">
<title>Node20&#45;&gt;Node14</title>
<g id="a_edge35_Node000020_Node000014"><a xlink:title=" ">
<path fill="none" stroke="#63b8ff" d="M848.2,-171.06C848.2,-163.28 848.2,-151.7 848.2,-141.66"/>
<polygon fill="#63b8ff" stroke="#63b8ff" points="851.7,-141.66 848.2,-131.66 844.7,-141.66 851.7,-141.66"/>
</a>
</g>
</g>
<!-- Node21&#45;&gt;Node3 -->
<g id="edge38_Node000021_Node000003" class="edge">
<title>Node21&#45;&gt;Node3</title>
<g id="a_edge38_Node000021_Node000003"><a xlink:title=" ">
<path fill="none" stroke="#63b8ff" d="M927.52,-167.35C924.37,-166.78 921.25,-166.24 918.2,-165.75 796.38,-146.14 652.55,-132.53 573.26,-125.86"/>
<polygon fill="#63b8ff" stroke="#63b8ff" points="573.8,-122.39 563.54,-125.05 573.22,-129.37 573.8,-122.39"/>
</a>
</g>
</g>
<!-- Node21&#45;&gt;Node7 -->
<g id="edge40_Node000021_Node000007" class="edge">
<title>Node21&#45;&gt;Node7</title>
<g id="a_edge40_Node000021_Node000007"><a xlink:title=" ">
<path fill="none" stroke="#63b8ff" d="M976.93,-165.47C961.54,-139.66 926.03,-85.68 882.2,-55.25 851.88,-34.2 810.7,-22.25 783.1,-16.11"/>
<polygon fill="#63b8ff" stroke="#63b8ff" points="784.16,-12.76 773.66,-14.14 782.73,-19.61 784.16,-12.76"/>
</a>
</g>
</g>
<!-- Node21&#45;&gt;Node14 -->
<g id="edge39_Node000021_Node000014" class="edge">
<title>Node21&#45;&gt;Node14</title>
<g id="a_edge39_Node000021_Node000014"><a xlink:title=" ">
<path fill="none" stroke="#63b8ff" d="M950.98,-165.3C929.11,-155.9 900.97,-143.8 879.66,-134.64"/>
<polygon fill="#63b8ff" stroke="#63b8ff" points="881.17,-131.48 870.6,-130.75 878.4,-137.92 881.17,-131.48"/>
</a>
</g>
</g>
</g>
</svg>
