<?xml version="1.0" encoding="UTF-8" standalone="no"?>
<!DOCTYPE svg PUBLIC "-//W3C//DTD SVG 1.1//EN"
 "http://www.w3.org/Graphics/SVG/1.1/DTD/svg11.dtd">
<!-- Generated by graphviz version 12.2.0 (20241103.1931)
 -->
<!-- Title: /github/workspace/include/fcarouge/kalman_internal/factory.hpp Pages: 1 -->
<svg width="6561pt" height="194pt"
 viewBox="0.00 0.00 6560.75 194.00" xmlns="http://www.w3.org/2000/svg" xmlns:xlink="http://www.w3.org/1999/xlink">
<g id="graph0" class="graph" transform="scale(1 1) rotate(0) translate(4 190)">
<title>/github/workspace/include/fcarouge/kalman_internal/factory.hpp</title>
<!-- Node1 -->
<g id="Node000001" class="node">
<title>Node1</title>
<g id="a_Node000001"><a xlink:title=" ">
<polygon fill="#999999" stroke="#666666" points="3467.88,-186 3338.62,-186 3338.62,-144.25 3467.88,-144.25 3467.88,-186"/>
<text text-anchor="start" x="3346.62" y="-172.5" font-family="Helvetica,sans-Serif" font-size="10.00">/github/workspace/include</text>
<text text-anchor="start" x="3346.62" y="-161.25" font-family="Helvetica,sans-Serif" font-size="10.00">/fcarouge/kalman_internal</text>
<text text-anchor="middle" x="3403.25" y="-150" font-family="Helvetica,sans-Serif" font-size="10.00">/factory.hpp</text>
</a>
</g>
</g>
<!-- Node2 -->
<g id="Node000002" class="node">
<title>Node2</title>
<g id="a_Node000002"><a xlink:href="kalman_8hpp.xhtml" target="_top" xlink:title="The Kalman filter class and library top&#45;level header.">
<polygon fill="white" stroke="#666666" points="3467.88,-108.25 3338.62,-108.25 3338.62,-77.75 3467.88,-77.75 3467.88,-108.25"/>
<text text-anchor="start" x="3346.62" y="-94.75" font-family="Helvetica,sans-Serif" font-size="10.00">/github/workspace/include</text>
<text text-anchor="middle" x="3403.25" y="-83.5" font-family="Helvetica,sans-Serif" font-size="10.00">/fcarouge/kalman.hpp</text>
</a>
</g>
</g>
<!-- Node1&#45;&gt;Node2 -->
<g id="edge1_Node000001_Node000002" class="edge">
<title>Node1&#45;&gt;Node2</title>
<g id="a_edge1_Node000001_Node000002"><a xlink:title=" ">
<path fill="none" stroke="#63b8ff" d="M3403.25,-132.38C3403.25,-124.02 3403.25,-115.4 3403.25,-108.45"/>
<polygon fill="#63b8ff" stroke="#63b8ff" points="3399.75,-132.33 3403.25,-142.33 3406.75,-132.33 3399.75,-132.33"/>
</a>
</g>
</g>
<!-- Node3 -->
<g id="Node000003" class="node">
<title>Node3</title>
<g id="a_Node000003"><a xlink:href="predict__1x1x0_8cpp.xhtml" target="_top" xlink:title=" ">
<polygon fill="white" stroke="#666666" points="146.5,-36.12 0,-36.12 0,-5.62 146.5,-5.62 146.5,-36.12"/>
<text text-anchor="start" x="8" y="-22.62" font-family="Helvetica,sans-Serif" font-size="10.00">/github/workspace/benchmark</text>
<text text-anchor="middle" x="73.25" y="-11.38" font-family="Helvetica,sans-Serif" font-size="10.00">/predict_1x1x0.cpp</text>
</a>
</g>
</g>
<!-- Node2&#45;&gt;Node3 -->
<g id="edge2_Node000002_Node000003" class="edge">
<title>Node2&#45;&gt;Node3</title>
<g id="a_edge2_Node000002_Node000003"><a xlink:title=" ">
<path fill="none" stroke="#63b8ff" d="M3326.81,-91.82C2867.15,-90.62 479.56,-82.46 156.25,-41.75 146.69,-40.55 136.64,-38.67 126.96,-36.55"/>
<polygon fill="#63b8ff" stroke="#63b8ff" points="3326.74,-95.32 3336.75,-91.85 3326.76,-88.32 3326.74,-95.32"/>
</a>
</g>
</g>
<!-- Node4 -->
<g id="Node000004" class="node">
<title>Node4</title>
<g id="a_Node000004"><a xlink:href="predict__1x1x1_8cpp.xhtml" target="_top" xlink:title=" ">
<polygon fill="white" stroke="#666666" points="311.5,-36.12 165,-36.12 165,-5.62 311.5,-5.62 311.5,-36.12"/>
<text text-anchor="start" x="173" y="-22.62" font-family="Helvetica,sans-Serif" font-size="10.00">/github/workspace/benchmark</text>
<text text-anchor="middle" x="238.25" y="-11.38" font-family="Helvetica,sans-Serif" font-size="10.00">/predict_1x1x1.cpp</text>
</a>
</g>
</g>
<!-- Node2&#45;&gt;Node4 -->
<g id="edge3_Node000002_Node000004" class="edge">
<title>Node2&#45;&gt;Node4</title>
<g id="a_edge3_Node000002_Node000004"><a xlink:title=" ">
<path fill="none" stroke="#63b8ff" d="M3326.82,-91.75C2881.15,-90.19 627.22,-80.4 321.25,-41.75 311.69,-40.54 301.64,-38.67 291.96,-36.54"/>
<polygon fill="#63b8ff" stroke="#63b8ff" points="3326.72,-95.25 3336.73,-91.79 3326.74,-88.25 3326.72,-95.25"/>
</a>
</g>
</g>
<!-- Node5 -->
<g id="Node000005" class="node">
<title>Node5</title>
<g id="a_Node000005"><a xlink:href="predict__linalg__x1x_8cpp.xhtml" target="_top" xlink:title=" ">
<polygon fill="white" stroke="#666666" points="476.5,-36.12 330,-36.12 330,-5.62 476.5,-5.62 476.5,-36.12"/>
<text text-anchor="start" x="338" y="-22.62" font-family="Helvetica,sans-Serif" font-size="10.00">/github/workspace/benchmark</text>
<text text-anchor="middle" x="403.25" y="-11.38" font-family="Helvetica,sans-Serif" font-size="10.00">/predict_linalg_x1x.cpp</text>
</a>
</g>
</g>
<!-- Node2&#45;&gt;Node5 -->
<g id="edge4_Node000002_Node000005" class="edge">
<title>Node2&#45;&gt;Node5</title>
<g id="a_edge4_Node000002_Node000005"><a xlink:title=" ">
<path fill="none" stroke="#63b8ff" d="M3326.8,-91.68C2895.46,-89.73 774.9,-78.35 486.25,-41.75 476.7,-40.54 466.64,-38.66 456.96,-36.53"/>
<polygon fill="#63b8ff" stroke="#63b8ff" points="3326.65,-95.18 3336.66,-91.72 3326.68,-88.18 3326.65,-95.18"/>
</a>
</g>
</g>
<!-- Node6 -->
<g id="Node000006" class="node">
<title>Node6</title>
<g id="a_Node000006"><a xlink:href="update__1x1x0_8cpp.xhtml" target="_top" xlink:title=" ">
<polygon fill="white" stroke="#666666" points="641.5,-36.12 495,-36.12 495,-5.62 641.5,-5.62 641.5,-36.12"/>
<text text-anchor="start" x="503" y="-22.62" font-family="Helvetica,sans-Serif" font-size="10.00">/github/workspace/benchmark</text>
<text text-anchor="middle" x="568.25" y="-11.38" font-family="Helvetica,sans-Serif" font-size="10.00">/update_1x1x0.cpp</text>
</a>
</g>
</g>
<!-- Node2&#45;&gt;Node6 -->
<g id="edge5_Node000002_Node000006" class="edge">
<title>Node2&#45;&gt;Node6</title>
<g id="a_edge5_Node000002_Node000006"><a xlink:title=" ">
<path fill="none" stroke="#63b8ff" d="M3327.16,-91.6C2911.35,-89.25 922.68,-76.31 651.25,-41.75 641.84,-40.55 631.95,-38.71 622.41,-36.62"/>
<polygon fill="#63b8ff" stroke="#63b8ff" points="3326.89,-95.09 3336.91,-91.65 3326.93,-88.09 3326.89,-95.09"/>
</a>
</g>
</g>
<!-- Node7 -->
<g id="Node000007" class="node">
<title>Node7</title>
<g id="a_Node000007"><a xlink:href="update__1x1x1_8cpp.xhtml" target="_top" xlink:title=" ">
<polygon fill="white" stroke="#666666" points="806.5,-36.12 660,-36.12 660,-5.62 806.5,-5.62 806.5,-36.12"/>
<text text-anchor="start" x="668" y="-22.62" font-family="Helvetica,sans-Serif" font-size="10.00">/github/workspace/benchmark</text>
<text text-anchor="middle" x="733.25" y="-11.38" font-family="Helvetica,sans-Serif" font-size="10.00">/update_1x1x1.cpp</text>
</a>
</g>
</g>
<!-- Node2&#45;&gt;Node7 -->
<g id="edge6_Node000002_Node000007" class="edge">
<title>Node2&#45;&gt;Node7</title>
<g id="a_edge6_Node000002_Node000007"><a xlink:title=" ">
<path fill="none" stroke="#63b8ff" d="M3326.95,-91.5C2925.89,-88.73 1070.37,-74.26 816.25,-41.75 806.84,-40.55 796.95,-38.7 787.41,-36.61"/>
<polygon fill="#63b8ff" stroke="#63b8ff" points="3326.85,-95 3336.88,-91.57 3326.9,-88 3326.85,-95"/>
</a>
</g>
</g>
<!-- Node8 -->
<g id="Node000008" class="node">
<title>Node8</title>
<g id="a_Node000008"><a xlink:href="update__linalg__xx0_8cpp.xhtml" target="_top" xlink:title=" ">
<polygon fill="white" stroke="#666666" points="971.5,-36.12 825,-36.12 825,-5.62 971.5,-5.62 971.5,-36.12"/>
<text text-anchor="start" x="833" y="-22.62" font-family="Helvetica,sans-Serif" font-size="10.00">/github/workspace/benchmark</text>
<text text-anchor="middle" x="898.25" y="-11.38" font-family="Helvetica,sans-Serif" font-size="10.00">/update_linalg_xx0.cpp</text>
</a>
</g>
</g>
<!-- Node2&#45;&gt;Node8 -->
<g id="edge7_Node000002_Node000008" class="edge">
<title>Node2&#45;&gt;Node8</title>
<g id="a_edge7_Node000002_Node000008"><a xlink:title=" ">
<path fill="none" stroke="#63b8ff" d="M3326.85,-91.4C2941.17,-88.25 1217.18,-72.55 980.25,-41.75 970.95,-40.54 961.18,-38.7 951.75,-36.61"/>
<polygon fill="#63b8ff" stroke="#63b8ff" points="3326.59,-94.9 3336.62,-91.48 3326.65,-87.9 3326.59,-94.9"/>
</a>
</g>
</g>
<!-- Node9 -->
<g id="Node000009" class="node">
<title>Node9</title>
<g id="a_Node000009"><a xlink:href="ekf__4x1x0__soaring_8cpp.xhtml" target="_top" xlink:title=" ">
<polygon fill="white" stroke="#666666" points="1119.25,-36.12 989.25,-36.12 989.25,-5.62 1119.25,-5.62 1119.25,-36.12"/>
<text text-anchor="start" x="997.25" y="-22.62" font-family="Helvetica,sans-Serif" font-size="10.00">/github/workspace/sample</text>
<text text-anchor="middle" x="1054.25" y="-11.38" font-family="Helvetica,sans-Serif" font-size="10.00">/ekf_4x1x0_soaring.cpp</text>
</a>
</g>
</g>
<!-- Node2&#45;&gt;Node9 -->
<g id="edge8_Node000002_Node000009" class="edge">
<title>Node2&#45;&gt;Node9</title>
<g id="a_edge8_Node000002_Node000009"><a xlink:title=" ">
<path fill="none" stroke="#63b8ff" d="M3326.75,-91.4C2955.39,-88.35 1349.37,-73.41 1128.25,-41.75 1119.82,-40.54 1110.98,-38.7 1102.47,-36.61"/>
<polygon fill="#63b8ff" stroke="#63b8ff" points="3326.61,-94.9 3336.64,-91.48 3326.67,-87.9 3326.61,-94.9"/>
</a>
</g>
</g>
<!-- Node10 -->
<g id="Node000010" class="node">
<title>Node10</title>
<g id="a_Node000010"><a xlink:href="kf__1x1x0__building__height_8cpp.xhtml" target="_top" xlink:title=" ">
<polygon fill="white" stroke="#666666" points="1282.75,-36.12 1137.75,-36.12 1137.75,-5.62 1282.75,-5.62 1282.75,-36.12"/>
<text text-anchor="start" x="1145.75" y="-22.62" font-family="Helvetica,sans-Serif" font-size="10.00">/github/workspace/sample</text>
<text text-anchor="middle" x="1210.25" y="-11.38" font-family="Helvetica,sans-Serif" font-size="10.00">/kf_1x1x0_building_height.cpp</text>
</a>
</g>
</g>
<!-- Node2&#45;&gt;Node10 -->
<g id="edge9_Node000002_Node000010" class="edge">
<title>Node2&#45;&gt;Node10</title>
<g id="a_edge9_Node000002_Node000010"><a xlink:title=" ">
<path fill="none" stroke="#63b8ff" d="M3326.9,-92.37C2997.63,-93.63 1697.37,-95.04 1292.25,-41.75 1282.96,-40.53 1273.18,-38.67 1263.75,-36.58"/>
<polygon fill="#63b8ff" stroke="#63b8ff" points="3326.71,-95.87 3336.69,-92.33 3326.68,-88.87 3326.71,-95.87"/>
</a>
</g>
</g>
<!-- Node11 -->
<g id="Node000011" class="node">
<title>Node11</title>
<g id="a_Node000011"><a xlink:href="kf__1x1x0__building__height__unit_8cpp.xhtml" target="_top" xlink:title=" ">
<polygon fill="white" stroke="#666666" points="1431.25,-41.75 1301.25,-41.75 1301.25,0 1431.25,0 1431.25,-41.75"/>
<text text-anchor="start" x="1309.25" y="-28.25" font-family="Helvetica,sans-Serif" font-size="10.00">/github/workspace/sample</text>
<text text-anchor="start" x="1309.25" y="-17" font-family="Helvetica,sans-Serif" font-size="10.00">/kf_1x1x0_building_height</text>
<text text-anchor="middle" x="1366.25" y="-5.75" font-family="Helvetica,sans-Serif" font-size="10.00">_unit.cpp</text>
</a>
</g>
</g>
<!-- Node2&#45;&gt;Node11 -->
<g id="edge10_Node000002_Node000011" class="edge">
<title>Node2&#45;&gt;Node11</title>
<g id="a_edge10_Node000002_Node000011"><a xlink:title=" ">
<path fill="none" stroke="#63b8ff" d="M3327.37,-92.45C3013.33,-93.97 1814.34,-95.99 1440.25,-41.75 1437.35,-41.33 1434.41,-40.84 1431.44,-40.28"/>
<polygon fill="#63b8ff" stroke="#63b8ff" points="3327.11,-95.96 3337.09,-92.41 3327.07,-88.96 3327.11,-95.96"/>
</a>
</g>
</g>
<!-- Node12 -->
<g id="Node000012" class="node">
<title>Node12</title>
<g id="a_Node000012"><a xlink:href="kf__1x1x0__liquid__temperature_8cpp.xhtml" target="_top" xlink:title=" ">
<polygon fill="white" stroke="#666666" points="1609.25,-36.12 1449.25,-36.12 1449.25,-5.62 1609.25,-5.62 1609.25,-36.12"/>
<text text-anchor="start" x="1457.25" y="-22.62" font-family="Helvetica,sans-Serif" font-size="10.00">/github/workspace/sample</text>
<text text-anchor="middle" x="1529.25" y="-11.38" font-family="Helvetica,sans-Serif" font-size="10.00">/kf_1x1x0_liquid_temperature.cpp</text>
</a>
</g>
</g>
<!-- Node2&#45;&gt;Node12 -->
<g id="edge11_Node000002_Node000012" class="edge">
<title>Node2&#45;&gt;Node12</title>
<g id="a_edge11_Node000002_Node000012"><a xlink:title=" ">
<path fill="none" stroke="#63b8ff" d="M3327.1,-91.8C3031.08,-90.71 1956.56,-83.89 1618.25,-41.75 1608.2,-40.5 1597.61,-38.63 1587.38,-36.53"/>
<polygon fill="#63b8ff" stroke="#63b8ff" points="3327.02,-95.3 3337.03,-91.83 3327.04,-88.3 3327.02,-95.3"/>
</a>
</g>
</g>
<!-- Node13 -->
<g id="Node000013" class="node">
<title>Node13</title>
<g id="a_Node000013"><a xlink:href="kf__1x1x0__liquid__temperature__unit_8cpp.xhtml" target="_top" xlink:title=" ">
<polygon fill="white" stroke="#666666" points="1769.25,-41.75 1627.25,-41.75 1627.25,0 1769.25,0 1769.25,-41.75"/>
<text text-anchor="start" x="1635.25" y="-28.25" font-family="Helvetica,sans-Serif" font-size="10.00">/github/workspace/sample</text>
<text text-anchor="start" x="1635.25" y="-17" font-family="Helvetica,sans-Serif" font-size="10.00">/kf_1x1x0_liquid_temperature</text>
<text text-anchor="middle" x="1698.25" y="-5.75" font-family="Helvetica,sans-Serif" font-size="10.00">_unit.cpp</text>
</a>
</g>
</g>
<!-- Node2&#45;&gt;Node13 -->
<g id="edge12_Node000002_Node000013" class="edge">
<title>Node2&#45;&gt;Node13</title>
<g id="a_edge12_Node000002_Node000013"><a xlink:title=" ">
<path fill="none" stroke="#63b8ff" d="M3327,-91.79C3048.01,-90.69 2083.16,-83.85 1778.25,-41.75 1775.41,-41.36 1772.53,-40.91 1769.63,-40.41"/>
<polygon fill="#63b8ff" stroke="#63b8ff" points="3326.68,-95.29 3336.69,-91.83 3326.7,-88.29 3326.68,-95.29"/>
</a>
</g>
</g>
<!-- Node14 -->
<g id="Node000014" class="node">
<title>Node14</title>
<g id="a_Node000014"><a xlink:href="kf__1x1x1__dog__position_8cpp.xhtml" target="_top" xlink:title=" ">
<polygon fill="white" stroke="#666666" points="1922.88,-36.12 1787.62,-36.12 1787.62,-5.62 1922.88,-5.62 1922.88,-36.12"/>
<text text-anchor="start" x="1795.62" y="-22.62" font-family="Helvetica,sans-Serif" font-size="10.00">/github/workspace/sample</text>
<text text-anchor="middle" x="1855.25" y="-11.38" font-family="Helvetica,sans-Serif" font-size="10.00">/kf_1x1x1_dog_position.cpp</text>
</a>
</g>
</g>
<!-- Node2&#45;&gt;Node14 -->
<g id="edge13_Node000002_Node000014" class="edge">
<title>Node2&#45;&gt;Node14</title>
<g id="a_edge13_Node000002_Node000014"><a xlink:title=" ">
<path fill="none" stroke="#63b8ff" d="M3326.88,-91.59C3065.14,-89.85 2205.44,-81.19 1932.25,-41.75 1923.64,-40.51 1914.61,-38.67 1905.88,-36.61"/>
<polygon fill="#63b8ff" stroke="#63b8ff" points="3326.62,-95.09 3336.64,-91.66 3326.66,-88.09 3326.62,-95.09"/>
</a>
</g>
</g>
<!-- Node15 -->
<g id="Node000015" class="node">
<title>Node15</title>
<g id="a_Node000015"><a xlink:href="kf__1x1x1__dog__position__unit_8cpp.xhtml" target="_top" xlink:title=" ">
<polygon fill="white" stroke="#666666" points="2071.25,-41.75 1941.25,-41.75 1941.25,0 2071.25,0 2071.25,-41.75"/>
<text text-anchor="start" x="1949.25" y="-28.25" font-family="Helvetica,sans-Serif" font-size="10.00">/github/workspace/sample</text>
<text text-anchor="start" x="1949.25" y="-17" font-family="Helvetica,sans-Serif" font-size="10.00">/kf_1x1x1_dog_position</text>
<text text-anchor="middle" x="2006.25" y="-5.75" font-family="Helvetica,sans-Serif" font-size="10.00">_unit.cpp</text>
</a>
</g>
</g>
<!-- Node2&#45;&gt;Node15 -->
<g id="edge14_Node000002_Node000015" class="edge">
<title>Node2&#45;&gt;Node15</title>
<g id="a_edge14_Node000002_Node000015"><a xlink:title=" ">
<path fill="none" stroke="#63b8ff" d="M3327.25,-91.35C3083.52,-88.92 2323.26,-78.52 2080.25,-41.75 2077.36,-41.31 2074.41,-40.8 2071.45,-40.24"/>
<polygon fill="#63b8ff" stroke="#63b8ff" points="3326.91,-94.85 3336.94,-91.45 3326.98,-87.85 3326.91,-94.85"/>
</a>
</g>
</g>
<!-- Node16 -->
<g id="Node000016" class="node">
<title>Node16</title>
<g id="a_Node000016"><a xlink:href="kf__2x1x1__rocket__altitude_8cpp.xhtml" target="_top" xlink:title=" ">
<polygon fill="white" stroke="#666666" points="2233.38,-36.12 2089.12,-36.12 2089.12,-5.62 2233.38,-5.62 2233.38,-36.12"/>
<text text-anchor="start" x="2097.12" y="-22.62" font-family="Helvetica,sans-Serif" font-size="10.00">/github/workspace/sample</text>
<text text-anchor="middle" x="2161.25" y="-11.38" font-family="Helvetica,sans-Serif" font-size="10.00">/kf_2x1x1_rocket_altitude.cpp</text>
</a>
</g>
</g>
<!-- Node2&#45;&gt;Node16 -->
<g id="edge15_Node000002_Node000016" class="edge">
<title>Node2&#45;&gt;Node16</title>
<g id="a_edge15_Node000002_Node000016"><a xlink:title=" ">
<path fill="none" stroke="#63b8ff" d="M3326.86,-90.66C3103.25,-86.43 2452.67,-71.82 2242.25,-41.75 2233.22,-40.46 2223.73,-38.6 2214.55,-36.53"/>
<polygon fill="#63b8ff" stroke="#63b8ff" points="3326.55,-94.16 3336.61,-90.84 3326.68,-87.16 3326.55,-94.16"/>
</a>
</g>
</g>
<!-- Node17 -->
<g id="Node000017" class="node">
<title>Node17</title>
<g id="a_Node000017"><a xlink:href="kf__6x2x0__vehicle__location_8cpp.xhtml" target="_top" xlink:title=" ">
<polygon fill="white" stroke="#666666" points="2401.38,-36.12 2251.12,-36.12 2251.12,-5.62 2401.38,-5.62 2401.38,-36.12"/>
<text text-anchor="start" x="2259.12" y="-22.62" font-family="Helvetica,sans-Serif" font-size="10.00">/github/workspace/sample</text>
<text text-anchor="middle" x="2326.25" y="-11.38" font-family="Helvetica,sans-Serif" font-size="10.00">/kf_6x2x0_vehicle_location.cpp</text>
</a>
</g>
</g>
<!-- Node2&#45;&gt;Node17 -->
<g id="edge16_Node000002_Node000017" class="edge">
<title>Node2&#45;&gt;Node17</title>
<g id="a_edge16_Node000002_Node000017"><a xlink:title=" ">
<path fill="none" stroke="#63b8ff" d="M3327.27,-92.84C3160.42,-93.67 2749.79,-90.1 2410.25,-41.75 2401.05,-40.44 2391.38,-38.6 2382.01,-36.56"/>
<polygon fill="#63b8ff" stroke="#63b8ff" points="3326.89,-96.34 3336.87,-92.79 3326.85,-89.34 3326.89,-96.34"/>
</a>
</g>
</g>
<!-- Node18 -->
<g id="Node000018" class="node">
<title>Node18</title>
<g id="a_Node000018"><a xlink:href="kf__6x2x0__vehicle__location__unit_8cpp.xhtml" target="_top" xlink:title=" ">
<polygon fill="white" stroke="#666666" points="2551.38,-41.75 2419.12,-41.75 2419.12,0 2551.38,0 2551.38,-41.75"/>
<text text-anchor="start" x="2427.12" y="-28.25" font-family="Helvetica,sans-Serif" font-size="10.00">/github/workspace/sample</text>
<text text-anchor="start" x="2427.12" y="-17" font-family="Helvetica,sans-Serif" font-size="10.00">/kf_6x2x0_vehicle_location</text>
<text text-anchor="middle" x="2485.25" y="-5.75" font-family="Helvetica,sans-Serif" font-size="10.00">_unit.cpp</text>
</a>
</g>
</g>
<!-- Node2&#45;&gt;Node18 -->
<g id="edge17_Node000002_Node000018" class="edge">
<title>Node2&#45;&gt;Node18</title>
<g id="a_edge17_Node000002_Node000018"><a xlink:title=" ">
<path fill="none" stroke="#63b8ff" d="M3327.04,-92.52C3178.51,-92.43 2840.3,-86.74 2560.25,-41.75 2557.46,-41.3 2554.62,-40.79 2551.76,-40.24"/>
<polygon fill="#63b8ff" stroke="#63b8ff" points="3326.74,-96.02 3336.74,-92.52 3326.74,-89.02 3326.74,-96.02"/>
</a>
</g>
</g>
<!-- Node19 -->
<g id="Node000019" class="node">
<title>Node19</title>
<g id="a_Node000019"><a xlink:href="kf__8x4x0__deep__sort__bounding__box_8cpp.xhtml" target="_top" xlink:title=" ">
<polygon fill="white" stroke="#666666" points="2719,-41.75 2569.5,-41.75 2569.5,0 2719,0 2719,-41.75"/>
<text text-anchor="start" x="2577.5" y="-28.25" font-family="Helvetica,sans-Serif" font-size="10.00">/github/workspace/sample</text>
<text text-anchor="start" x="2577.5" y="-17" font-family="Helvetica,sans-Serif" font-size="10.00">/kf_8x4x0_deep_sort_bounding</text>
<text text-anchor="middle" x="2644.25" y="-5.75" font-family="Helvetica,sans-Serif" font-size="10.00">_box.cpp</text>
</a>
</g>
</g>
<!-- Node2&#45;&gt;Node19 -->
<g id="edge18_Node000002_Node000019" class="edge">
<title>Node2&#45;&gt;Node19</title>
<g id="a_edge18_Node000002_Node000019"><a xlink:title=" ">
<path fill="none" stroke="#63b8ff" d="M3326.8,-90.24C3201.21,-86.47 2943.63,-75.03 2728.25,-41.75 2725.29,-41.29 2722.28,-40.78 2719.24,-40.24"/>
<polygon fill="#63b8ff" stroke="#63b8ff" points="3326.56,-93.73 3336.66,-90.53 3326.77,-86.74 3326.56,-93.73"/>
</a>
</g>
</g>
<!-- Node20 -->
<g id="Node000020" class="node">
<title>Node20</title>
<g id="a_Node000020"><a xlink:href="kalman__assign__copy__5x4x3_8cpp.xhtml" target="_top" xlink:title=" ">
<polygon fill="white" stroke="#666666" points="2895.12,-36.12 2737.38,-36.12 2737.38,-5.62 2895.12,-5.62 2895.12,-36.12"/>
<text text-anchor="start" x="2745.38" y="-22.62" font-family="Helvetica,sans-Serif" font-size="10.00">/github/workspace/test</text>
<text text-anchor="middle" x="2816.25" y="-11.38" font-family="Helvetica,sans-Serif" font-size="10.00">/kalman_assign_copy_5x4x3.cpp</text>
</a>
</g>
</g>
<!-- Node2&#45;&gt;Node20 -->
<g id="edge19_Node000002_Node000020" class="edge">
<title>Node2&#45;&gt;Node20</title>
<g id="a_edge19_Node000002_Node000020"><a xlink:title=" ">
<path fill="none" stroke="#63b8ff" d="M3327.03,-87.22C3228.83,-80.4 3053.05,-65.95 2904.25,-41.75 2895.28,-40.29 2885.86,-38.47 2876.65,-36.53"/>
<polygon fill="#63b8ff" stroke="#63b8ff" points="3326.6,-90.7 3336.82,-87.89 3327.08,-83.72 3326.6,-90.7"/>
</a>
</g>
</g>
<!-- Node21 -->
<g id="Node000021" class="node">
<title>Node21</title>
<g id="a_Node000021"><a xlink:href="kalman__assign__move__5x4x3_8cpp.xhtml" target="_top" xlink:title=" ">
<polygon fill="white" stroke="#666666" points="3075,-36.12 2913.5,-36.12 2913.5,-5.62 3075,-5.62 3075,-36.12"/>
<text text-anchor="start" x="2921.5" y="-22.62" font-family="Helvetica,sans-Serif" font-size="10.00">/github/workspace/test</text>
<text text-anchor="middle" x="2994.25" y="-11.38" font-family="Helvetica,sans-Serif" font-size="10.00">/kalman_assign_move_5x4x3.cpp</text>
</a>
</g>
</g>
<!-- Node2&#45;&gt;Node21 -->
<g id="edge20_Node000002_Node000021" class="edge">
<title>Node2&#45;&gt;Node21</title>
<g id="a_edge20_Node000002_Node000021"><a xlink:title=" ">
<path fill="none" stroke="#63b8ff" d="M3326.96,-81.32C3262.19,-71.93 3166.88,-57.37 3084.25,-41.75 3075.92,-40.18 3067.18,-38.4 3058.55,-36.58"/>
<polygon fill="#63b8ff" stroke="#63b8ff" points="3326.39,-84.77 3336.79,-82.74 3327.39,-77.85 3326.39,-84.77"/>
</a>
</g>
</g>
<!-- Node22 -->
<g id="Node000022" class="node">
<title>Node22</title>
<g id="a_Node000022"><a xlink:href="kalman__constructor__copy__5x4x3_8cpp.xhtml" target="_top" xlink:title=" ">
<polygon fill="white" stroke="#666666" points="3223.25,-41.75 3093.25,-41.75 3093.25,0 3223.25,0 3223.25,-41.75"/>
<text text-anchor="start" x="3101.25" y="-28.25" font-family="Helvetica,sans-Serif" font-size="10.00">/github/workspace/test</text>
<text text-anchor="start" x="3101.25" y="-17" font-family="Helvetica,sans-Serif" font-size="10.00">/kalman_constructor_copy</text>
<text text-anchor="middle" x="3158.25" y="-5.75" font-family="Helvetica,sans-Serif" font-size="10.00">_5x4x3.cpp</text>
</a>
</g>
</g>
<!-- Node2&#45;&gt;Node22 -->
<g id="edge21_Node000002_Node000022" class="edge">
<title>Node2&#45;&gt;Node22</title>
<g id="a_edge21_Node000002_Node000022"><a xlink:title=" ">
<path fill="none" stroke="#63b8ff" d="M3341.06,-74.2C3305.13,-63.92 3259.99,-51 3223.55,-40.57"/>
<polygon fill="#63b8ff" stroke="#63b8ff" points="3339.86,-77.5 3350.43,-76.88 3341.78,-70.77 3339.86,-77.5"/>
</a>
</g>
</g>
<!-- Node23 -->
<g id="Node000023" class="node">
<title>Node23</title>
<g id="a_Node000023"><a xlink:href="kalman__constructor__default_8cpp.xhtml" target="_top" xlink:title=" ">
<polygon fill="white" stroke="#666666" points="3398.75,-36.12 3241.75,-36.12 3241.75,-5.62 3398.75,-5.62 3398.75,-36.12"/>
<text text-anchor="start" x="3249.75" y="-22.62" font-family="Helvetica,sans-Serif" font-size="10.00">/github/workspace/test</text>
<text text-anchor="middle" x="3320.25" y="-11.38" font-family="Helvetica,sans-Serif" font-size="10.00">/kalman_constructor_default.cpp</text>
</a>
</g>
</g>
<!-- Node2&#45;&gt;Node23 -->
<g id="edge22_Node000002_Node000023" class="edge">
<title>Node2&#45;&gt;Node23</title>
<g id="a_edge22_Node000002_Node000023"><a xlink:title=" ">
<path fill="none" stroke="#63b8ff" d="M3377.5,-70.24C3364.46,-59.23 3348.99,-46.16 3337.43,-36.39"/>
<polygon fill="#63b8ff" stroke="#63b8ff" points="3375,-72.71 3384.9,-76.49 3379.52,-67.37 3375,-72.71"/>
</a>
</g>
</g>
<!-- Node24 -->
<g id="Node000024" class="node">
<title>Node24</title>
<g id="a_Node000024"><a xlink:href="kalman__constructor__default__1x1x3_8cpp.xhtml" target="_top" xlink:title=" ">
<polygon fill="white" stroke="#666666" points="3555.75,-41.75 3416.75,-41.75 3416.75,0 3555.75,0 3555.75,-41.75"/>
<text text-anchor="start" x="3424.75" y="-28.25" font-family="Helvetica,sans-Serif" font-size="10.00">/github/workspace/test</text>
<text text-anchor="start" x="3424.75" y="-17" font-family="Helvetica,sans-Serif" font-size="10.00">/kalman_constructor_default</text>
<text text-anchor="middle" x="3486.25" y="-5.75" font-family="Helvetica,sans-Serif" font-size="10.00">_1x1x3.cpp</text>
</a>
</g>
</g>
<!-- Node2&#45;&gt;Node24 -->
<g id="edge23_Node000002_Node000024" class="edge">
<title>Node2&#45;&gt;Node24</title>
<g id="a_edge23_Node000002_Node000024"><a xlink:title=" ">
<path fill="none" stroke="#63b8ff" d="M3429.21,-70.06C3439.74,-61.17 3451.82,-50.96 3462.15,-42.24"/>
<polygon fill="#63b8ff" stroke="#63b8ff" points="3426.98,-67.37 3421.6,-76.49 3431.5,-72.71 3426.98,-67.37"/>
</a>
</g>
</g>
<!-- Node25 -->
<g id="Node000025" class="node">
<title>Node25</title>
<g id="a_Node000025"><a xlink:href="kalman__constructor__default__1x4x1_8cpp.xhtml" target="_top" xlink:title=" ">
<polygon fill="white" stroke="#666666" points="3712.75,-41.75 3573.75,-41.75 3573.75,0 3712.75,0 3712.75,-41.75"/>
<text text-anchor="start" x="3581.75" y="-28.25" font-family="Helvetica,sans-Serif" font-size="10.00">/github/workspace/test</text>
<text text-anchor="start" x="3581.75" y="-17" font-family="Helvetica,sans-Serif" font-size="10.00">/kalman_constructor_default</text>
<text text-anchor="middle" x="3643.25" y="-5.75" font-family="Helvetica,sans-Serif" font-size="10.00">_1x4x1.cpp</text>
</a>
</g>
</g>
<!-- Node2&#45;&gt;Node25 -->
<g id="edge24_Node000002_Node000025" class="edge">
<title>Node2&#45;&gt;Node25</title>
<g id="a_edge24_Node000002_Node000025"><a xlink:title=" ">
<path fill="none" stroke="#63b8ff" d="M3464.55,-74.09C3497.93,-64.34 3539.34,-52.24 3573.89,-42.14"/>
<polygon fill="#63b8ff" stroke="#63b8ff" points="3463.63,-70.71 3455.01,-76.88 3465.59,-77.43 3463.63,-70.71"/>
</a>
</g>
</g>
<!-- Node26 -->
<g id="Node000026" class="node">
<title>Node26</title>
<g id="a_Node000026"><a xlink:href="kalman__constructor__default__1x4x3_8cpp.xhtml" target="_top" xlink:title=" ">
<polygon fill="white" stroke="#666666" points="3869.75,-41.75 3730.75,-41.75 3730.75,0 3869.75,0 3869.75,-41.75"/>
<text text-anchor="start" x="3738.75" y="-28.25" font-family="Helvetica,sans-Serif" font-size="10.00">/github/workspace/test</text>
<text text-anchor="start" x="3738.75" y="-17" font-family="Helvetica,sans-Serif" font-size="10.00">/kalman_constructor_default</text>
<text text-anchor="middle" x="3800.25" y="-5.75" font-family="Helvetica,sans-Serif" font-size="10.00">_1x4x3.cpp</text>
</a>
</g>
</g>
<!-- Node2&#45;&gt;Node26 -->
<g id="edge25_Node000002_Node000026" class="edge">
<title>Node2&#45;&gt;Node26</title>
<g id="a_edge25_Node000002_Node000026"><a xlink:title=" ">
<path fill="none" stroke="#63b8ff" d="M3479.67,-82C3544.52,-73.03 3639.88,-58.69 3722.25,-41.75 3724.99,-41.19 3727.77,-40.59 3730.58,-39.97"/>
<polygon fill="#63b8ff" stroke="#63b8ff" points="3479.26,-78.53 3469.83,-83.35 3480.21,-85.46 3479.26,-78.53"/>
</a>
</g>
</g>
<!-- Node27 -->
<g id="Node000027" class="node">
<title>Node27</title>
<g id="a_Node000027"><a xlink:href="kalman__constructor__default__5x1x1_8cpp.xhtml" target="_top" xlink:title=" ">
<polygon fill="white" stroke="#666666" points="4026.75,-41.75 3887.75,-41.75 3887.75,0 4026.75,0 4026.75,-41.75"/>
<text text-anchor="start" x="3895.75" y="-28.25" font-family="Helvetica,sans-Serif" font-size="10.00">/github/workspace/test</text>
<text text-anchor="start" x="3895.75" y="-17" font-family="Helvetica,sans-Serif" font-size="10.00">/kalman_constructor_default</text>
<text text-anchor="middle" x="3957.25" y="-5.75" font-family="Helvetica,sans-Serif" font-size="10.00">_5x1x1.cpp</text>
</a>
</g>
</g>
<!-- Node2&#45;&gt;Node27 -->
<g id="edge26_Node000002_Node000027" class="edge">
<title>Node2&#45;&gt;Node27</title>
<g id="a_edge26_Node000002_Node000027"><a xlink:title=" ">
<path fill="none" stroke="#63b8ff" d="M3479.78,-87.34C3574.23,-80.8 3739.48,-66.8 3879.25,-41.75 3882,-41.26 3884.8,-40.72 3887.62,-40.15"/>
<polygon fill="#63b8ff" stroke="#63b8ff" points="3479.59,-83.84 3469.85,-88.01 3480.07,-90.82 3479.59,-83.84"/>
</a>
</g>
</g>
<!-- Node28 -->
<g id="Node000028" class="node">
<title>Node28</title>
<g id="a_Node000028"><a xlink:href="kalman__constructor__default__5x1x3_8cpp.xhtml" target="_top" xlink:title=" ">
<polygon fill="white" stroke="#666666" points="4183.75,-41.75 4044.75,-41.75 4044.75,0 4183.75,0 4183.75,-41.75"/>
<text text-anchor="start" x="4052.75" y="-28.25" font-family="Helvetica,sans-Serif" font-size="10.00">/github/workspace/test</text>
<text text-anchor="start" x="4052.75" y="-17" font-family="Helvetica,sans-Serif" font-size="10.00">/kalman_constructor_default</text>
<text text-anchor="middle" x="4114.25" y="-5.75" font-family="Helvetica,sans-Serif" font-size="10.00">_5x1x3.cpp</text>
</a>
</g>
</g>
<!-- Node2&#45;&gt;Node28 -->
<g id="edge27_Node000002_Node000028" class="edge">
<title>Node2&#45;&gt;Node28</title>
<g id="a_edge27_Node000002_Node000028"><a xlink:title=" ">
<path fill="none" stroke="#63b8ff" d="M3479.1,-90.15C3598.41,-86.3 3836.86,-74.82 4036.25,-41.75 4039.01,-41.29 4041.81,-40.79 4044.63,-40.24"/>
<polygon fill="#63b8ff" stroke="#63b8ff" points="3479.33,-86.64 3469.45,-90.45 3479.55,-93.63 3479.33,-86.64"/>
</a>
</g>
</g>
<!-- Node29 -->
<g id="Node000029" class="node">
<title>Node29</title>
<g id="a_Node000029"><a xlink:href="kalman__constructor__default__5x4x0_8cpp.xhtml" target="_top" xlink:title=" ">
<polygon fill="white" stroke="#666666" points="4340.75,-41.75 4201.75,-41.75 4201.75,0 4340.75,0 4340.75,-41.75"/>
<text text-anchor="start" x="4209.75" y="-28.25" font-family="Helvetica,sans-Serif" font-size="10.00">/github/workspace/test</text>
<text text-anchor="start" x="4209.75" y="-17" font-family="Helvetica,sans-Serif" font-size="10.00">/kalman_constructor_default</text>
<text text-anchor="middle" x="4271.25" y="-5.75" font-family="Helvetica,sans-Serif" font-size="10.00">_5x4x0.cpp</text>
</a>
</g>
</g>
<!-- Node2&#45;&gt;Node29 -->
<g id="edge28_Node000002_Node000029" class="edge">
<title>Node2&#45;&gt;Node29</title>
<g id="a_edge28_Node000002_Node000029"><a xlink:title=" ">
<path fill="none" stroke="#63b8ff" d="M3479.32,-91.85C3620.78,-90.53 3933.53,-82.73 4193.25,-41.75 4196.01,-41.31 4198.82,-40.83 4201.64,-40.29"/>
<polygon fill="#63b8ff" stroke="#63b8ff" points="3479.69,-88.34 3469.72,-91.93 3479.75,-95.34 3479.69,-88.34"/>
</a>
</g>
</g>
<!-- Node30 -->
<g id="Node000030" class="node">
<title>Node30</title>
<g id="a_Node000030"><a xlink:href="kalman__constructor__default__5x4x1_8cpp.xhtml" target="_top" xlink:title=" ">
<polygon fill="white" stroke="#666666" points="4497.75,-41.75 4358.75,-41.75 4358.75,0 4497.75,0 4497.75,-41.75"/>
<text text-anchor="start" x="4366.75" y="-28.25" font-family="Helvetica,sans-Serif" font-size="10.00">/github/workspace/test</text>
<text text-anchor="start" x="4366.75" y="-17" font-family="Helvetica,sans-Serif" font-size="10.00">/kalman_constructor_default</text>
<text text-anchor="middle" x="4428.25" y="-5.75" font-family="Helvetica,sans-Serif" font-size="10.00">_5x4x1.cpp</text>
</a>
</g>
</g>
<!-- Node2&#45;&gt;Node30 -->
<g id="edge29_Node000002_Node000030" class="edge">
<title>Node2&#45;&gt;Node30</title>
<g id="a_edge29_Node000002_Node000030"><a xlink:title=" ">
<path fill="none" stroke="#63b8ff" d="M3479.6,-89.89C3673.79,-84.2 4182.97,-67.25 4350.25,-41.75 4353.01,-41.33 4355.82,-40.85 4358.65,-40.33"/>
<polygon fill="#63b8ff" stroke="#63b8ff" points="3479.5,-86.39 3469.61,-90.18 3479.71,-93.38 3479.5,-86.39"/>
</a>
</g>
</g>
<!-- Node31 -->
<g id="Node000031" class="node">
<title>Node31</title>
<g id="a_Node000031"><a xlink:href="kalman__constructor__default__5x4x3_8cpp.xhtml" target="_top" xlink:title=" ">
<polygon fill="white" stroke="#666666" points="4654.75,-41.75 4515.75,-41.75 4515.75,0 4654.75,0 4654.75,-41.75"/>
<text text-anchor="start" x="4523.75" y="-28.25" font-family="Helvetica,sans-Serif" font-size="10.00">/github/workspace/test</text>
<text text-anchor="start" x="4523.75" y="-17" font-family="Helvetica,sans-Serif" font-size="10.00">/kalman_constructor_default</text>
<text text-anchor="middle" x="4585.25" y="-5.75" font-family="Helvetica,sans-Serif" font-size="10.00">_5x4x3.cpp</text>
</a>
</g>
</g>
<!-- Node2&#45;&gt;Node31 -->
<g id="edge30_Node000002_Node000031" class="edge">
<title>Node2&#45;&gt;Node31</title>
<g id="a_edge30_Node000002_Node000031"><a xlink:title=" ">
<path fill="none" stroke="#63b8ff" d="M3479.23,-90.56C3694.94,-86.15 4308.34,-71.3 4507.25,-41.75 4510.01,-41.34 4512.82,-40.87 4515.65,-40.36"/>
<polygon fill="#63b8ff" stroke="#63b8ff" points="3479.48,-87.05 3469.55,-90.76 3479.62,-94.05 3479.48,-87.05"/>
</a>
</g>
</g>
<!-- Node32 -->
<g id="Node000032" class="node">
<title>Node32</title>
<g id="a_Node000032"><a xlink:href="kalman__constructor__default__float__1x1x1_8cpp.xhtml" target="_top" xlink:title=" ">
<polygon fill="white" stroke="#666666" points="4811.75,-41.75 4672.75,-41.75 4672.75,0 4811.75,0 4811.75,-41.75"/>
<text text-anchor="start" x="4680.75" y="-28.25" font-family="Helvetica,sans-Serif" font-size="10.00">/github/workspace/test</text>
<text text-anchor="start" x="4680.75" y="-17" font-family="Helvetica,sans-Serif" font-size="10.00">/kalman_constructor_default</text>
<text text-anchor="middle" x="4742.25" y="-5.75" font-family="Helvetica,sans-Serif" font-size="10.00">_float_1x1x1.cpp</text>
</a>
</g>
</g>
<!-- Node2&#45;&gt;Node32 -->
<g id="edge31_Node000002_Node000032" class="edge">
<title>Node2&#45;&gt;Node32</title>
<g id="a_edge31_Node000002_Node000032"><a xlink:title=" ">
<path fill="none" stroke="#63b8ff" d="M3479.27,-91.06C3715.31,-87.81 4433.6,-75.35 4664.25,-41.75 4667.02,-41.35 4669.83,-40.89 4672.66,-40.38"/>
<polygon fill="#63b8ff" stroke="#63b8ff" points="3479.53,-87.56 3469.57,-91.19 3479.62,-94.55 3479.53,-87.56"/>
</a>
</g>
</g>
<!-- Node33 -->
<g id="Node000033" class="node">
<title>Node33</title>
<g id="a_Node000033"><a xlink:href="kalman__constructor__move__5x4x3_8cpp.xhtml" target="_top" xlink:title=" ">
<polygon fill="white" stroke="#666666" points="4963.12,-41.75 4829.38,-41.75 4829.38,0 4963.12,0 4963.12,-41.75"/>
<text text-anchor="start" x="4837.38" y="-28.25" font-family="Helvetica,sans-Serif" font-size="10.00">/github/workspace/test</text>
<text text-anchor="start" x="4837.38" y="-17" font-family="Helvetica,sans-Serif" font-size="10.00">/kalman_constructor_move</text>
<text text-anchor="middle" x="4896.25" y="-5.75" font-family="Helvetica,sans-Serif" font-size="10.00">_5x4x3.cpp</text>
</a>
</g>
</g>
<!-- Node2&#45;&gt;Node33 -->
<g id="edge32_Node000002_Node000033" class="edge">
<title>Node2&#45;&gt;Node33</title>
<g id="a_edge32_Node000002_Node000033"><a xlink:title=" ">
<path fill="none" stroke="#63b8ff" d="M3479.43,-91.54C3734.76,-89.66 4558.92,-80.66 4821.25,-41.75 4823.78,-41.37 4826.35,-40.95 4828.94,-40.47"/>
<polygon fill="#63b8ff" stroke="#63b8ff" points="3479.55,-88.04 3469.58,-91.61 3479.6,-95.04 3479.55,-88.04"/>
</a>
</g>
</g>
<!-- Node34 -->
<g id="Node000034" class="node">
<title>Node34</title>
<g id="a_Node000034"><a xlink:href="kalman__f_8cpp.xhtml" target="_top" xlink:title=" ">
<polygon fill="white" stroke="#666666" points="5095.75,-36.12 4980.75,-36.12 4980.75,-5.62 5095.75,-5.62 5095.75,-36.12"/>
<text text-anchor="start" x="4988.75" y="-22.62" font-family="Helvetica,sans-Serif" font-size="10.00">/github/workspace/test</text>
<text text-anchor="middle" x="5038.25" y="-11.38" font-family="Helvetica,sans-Serif" font-size="10.00">/kalman_f.cpp</text>
</a>
</g>
</g>
<!-- Node2&#45;&gt;Node34 -->
<g id="edge33_Node000002_Node000034" class="edge">
<title>Node2&#45;&gt;Node34</title>
<g id="a_edge33_Node000002_Node000034"><a xlink:title=" ">
<path fill="none" stroke="#63b8ff" d="M3479.65,-92.18C3752.76,-92.42 4679.93,-89.6 4972.25,-41.75 4979.81,-40.51 4987.71,-38.65 4995.32,-36.56"/>
<polygon fill="#63b8ff" stroke="#63b8ff" points="3479.81,-88.68 3469.8,-92.17 3479.8,-95.68 3479.81,-88.68"/>
</a>
</g>
</g>
<!-- Node35 -->
<g id="Node000035" class="node">
<title>Node35</title>
<g id="a_Node000035"><a xlink:href="kalman__f__5x4x3_8cpp.xhtml" target="_top" xlink:title=" ">
<polygon fill="white" stroke="#666666" points="5228.75,-36.12 5113.75,-36.12 5113.75,-5.62 5228.75,-5.62 5228.75,-36.12"/>
<text text-anchor="start" x="5121.75" y="-22.62" font-family="Helvetica,sans-Serif" font-size="10.00">/github/workspace/test</text>
<text text-anchor="middle" x="5171.25" y="-11.38" font-family="Helvetica,sans-Serif" font-size="10.00">/kalman_f_5x4x3.cpp</text>
</a>
</g>
</g>
<!-- Node2&#45;&gt;Node35 -->
<g id="edge34_Node000002_Node000035" class="edge">
<title>Node2&#45;&gt;Node35</title>
<g id="a_edge34_Node000002_Node000035"><a xlink:title=" ">
<path fill="none" stroke="#63b8ff" d="M3479.32,-92.41C3766.64,-93.52 4785.63,-93.66 5105.25,-41.75 5112.81,-40.52 5120.71,-38.67 5128.32,-36.57"/>
<polygon fill="#63b8ff" stroke="#63b8ff" points="3479.73,-88.91 3469.72,-92.37 3479.7,-95.91 3479.73,-88.91"/>
</a>
</g>
</g>
<!-- Node36 -->
<g id="Node000036" class="node">
<title>Node36</title>
<g id="a_Node000036"><a xlink:href="kalman__format_8cpp.xhtml" target="_top" xlink:title=" ">
<polygon fill="white" stroke="#666666" points="5361.75,-36.12 5246.75,-36.12 5246.75,-5.62 5361.75,-5.62 5361.75,-36.12"/>
<text text-anchor="start" x="5254.75" y="-22.62" font-family="Helvetica,sans-Serif" font-size="10.00">/github/workspace/test</text>
<text text-anchor="middle" x="5304.25" y="-11.38" font-family="Helvetica,sans-Serif" font-size="10.00">/kalman_format.cpp</text>
</a>
</g>
</g>
<!-- Node2&#45;&gt;Node36 -->
<g id="edge35_Node000002_Node000036" class="edge">
<title>Node2&#45;&gt;Node36</title>
<g id="a_edge35_Node000002_Node000036"><a xlink:title=" ">
<path fill="none" stroke="#63b8ff" d="M3479.28,-91.11C3803.63,-87.13 5063.05,-70.01 5238.25,-41.75 5245.81,-40.53 5253.72,-38.68 5261.32,-36.59"/>
<polygon fill="#63b8ff" stroke="#63b8ff" points="3479.61,-87.6 3469.65,-91.22 3479.69,-94.6 3479.61,-87.6"/>
</a>
</g>
</g>
<!-- Node37 -->
<g id="Node000037" class="node">
<title>Node37</title>
<g id="a_Node000037"><a xlink:href="kalman__format__1x4x3_8cpp.xhtml" target="_top" xlink:title=" ">
<polygon fill="white" stroke="#666666" points="5511,-36.12 5379.5,-36.12 5379.5,-5.62 5511,-5.62 5511,-36.12"/>
<text text-anchor="start" x="5387.5" y="-22.62" font-family="Helvetica,sans-Serif" font-size="10.00">/github/workspace/test</text>
<text text-anchor="middle" x="5445.25" y="-11.38" font-family="Helvetica,sans-Serif" font-size="10.00">/kalman_format_1x4x3.cpp</text>
</a>
</g>
</g>
<!-- Node2&#45;&gt;Node37 -->
<g id="edge36_Node000002_Node000037" class="edge">
<title>Node2&#45;&gt;Node37</title>
<g id="a_edge36_Node000002_Node000037"><a xlink:title=" ">
<path fill="none" stroke="#63b8ff" d="M3479.66,-91.12C3819.1,-87.06 5181.97,-69.19 5371.25,-41.75 5379.68,-40.53 5388.51,-38.68 5397.03,-36.58"/>
<polygon fill="#63b8ff" stroke="#63b8ff" points="3479.73,-87.62 3469.77,-91.24 3479.81,-94.62 3479.73,-87.62"/>
</a>
</g>
</g>
<!-- Node38 -->
<g id="Node000038" class="node">
<title>Node38</title>
<g id="a_Node000038"><a xlink:href="kalman__format__5x4x3_8cpp.xhtml" target="_top" xlink:title=" ">
<polygon fill="white" stroke="#666666" points="5661,-36.12 5529.5,-36.12 5529.5,-5.62 5661,-5.62 5661,-36.12"/>
<text text-anchor="start" x="5537.5" y="-22.62" font-family="Helvetica,sans-Serif" font-size="10.00">/github/workspace/test</text>
<text text-anchor="middle" x="5595.25" y="-11.38" font-family="Helvetica,sans-Serif" font-size="10.00">/kalman_format_5x4x3.cpp</text>
</a>
</g>
</g>
<!-- Node2&#45;&gt;Node38 -->
<g id="edge37_Node000002_Node000038" class="edge">
<title>Node2&#45;&gt;Node38</title>
<g id="a_edge37_Node000002_Node000038"><a xlink:title=" ">
<path fill="none" stroke="#63b8ff" d="M3479.56,-91.25C3834.51,-87.63 5315.46,-70.9 5520.25,-41.75 5528.78,-40.54 5537.74,-38.69 5546.37,-36.59"/>
<polygon fill="#63b8ff" stroke="#63b8ff" points="3479.63,-87.75 3469.66,-91.35 3479.7,-94.75 3479.63,-87.75"/>
</a>
</g>
</g>
<!-- Node39 -->
<g id="Node000039" class="node">
<title>Node39</title>
<g id="a_Node000039"><a xlink:href="kalman__format__arguments_8cpp.xhtml" target="_top" xlink:title=" ">
<polygon fill="white" stroke="#666666" points="5831.5,-36.12 5679,-36.12 5679,-5.62 5831.5,-5.62 5831.5,-36.12"/>
<text text-anchor="start" x="5687" y="-22.62" font-family="Helvetica,sans-Serif" font-size="10.00">/github/workspace/test</text>
<text text-anchor="middle" x="5755.25" y="-11.38" font-family="Helvetica,sans-Serif" font-size="10.00">/kalman_format_arguments.cpp</text>
</a>
</g>
</g>
<!-- Node2&#45;&gt;Node39 -->
<g id="edge38_Node000002_Node000039" class="edge">
<title>Node2&#45;&gt;Node39</title>
<g id="a_edge38_Node000002_Node000039"><a xlink:title=" ">
<path fill="none" stroke="#63b8ff" d="M3479.46,-91.25C3849.42,-87.49 5449.43,-69.71 5670.25,-41.75 5679.87,-40.53 5690,-38.68 5699.77,-36.59"/>
<polygon fill="#63b8ff" stroke="#63b8ff" points="3479.58,-87.75 3469.61,-91.35 3479.65,-94.75 3479.58,-87.75"/>
</a>
</g>
</g>
<!-- Node40 -->
<g id="Node000040" class="node">
<title>Node40</title>
<g id="a_Node000040"><a xlink:href="kalman__format__float__1x1x1_8cpp.xhtml" target="_top" xlink:title=" ">
<polygon fill="white" stroke="#666666" points="6004.62,-36.12 5849.88,-36.12 5849.88,-5.62 6004.62,-5.62 6004.62,-36.12"/>
<text text-anchor="start" x="5857.88" y="-22.62" font-family="Helvetica,sans-Serif" font-size="10.00">/github/workspace/test</text>
<text text-anchor="middle" x="5927.25" y="-11.38" font-family="Helvetica,sans-Serif" font-size="10.00">/kalman_format_float_1x1x1.cpp</text>
</a>
</g>
</g>
<!-- Node2&#45;&gt;Node40 -->
<g id="edge39_Node000002_Node000040" class="edge">
<title>Node2&#45;&gt;Node40</title>
<g id="a_edge39_Node000002_Node000040"><a xlink:title=" ">
<path fill="none" stroke="#63b8ff" d="M3479.45,-91.35C3866.07,-87.95 5601.62,-71.15 5840.25,-41.75 5850.09,-40.54 5860.45,-38.69 5870.45,-36.6"/>
<polygon fill="#63b8ff" stroke="#63b8ff" points="3479.62,-87.85 3469.65,-91.44 3479.69,-94.85 3479.62,-87.85"/>
</a>
</g>
</g>
<!-- Node41 -->
<g id="Node000041" class="node">
<title>Node41</title>
<g id="a_Node000041"><a xlink:href="kalman__h__5x4x3_8cpp.xhtml" target="_top" xlink:title=" ">
<polygon fill="white" stroke="#666666" points="6137.75,-36.12 6022.75,-36.12 6022.75,-5.62 6137.75,-5.62 6137.75,-36.12"/>
<text text-anchor="start" x="6030.75" y="-22.62" font-family="Helvetica,sans-Serif" font-size="10.00">/github/workspace/test</text>
<text text-anchor="middle" x="6080.25" y="-11.38" font-family="Helvetica,sans-Serif" font-size="10.00">/kalman_h_5x4x3.cpp</text>
</a>
</g>
</g>
<!-- Node2&#45;&gt;Node41 -->
<g id="edge40_Node000002_Node000041" class="edge">
<title>Node2&#45;&gt;Node41</title>
<g id="a_edge40_Node000002_Node000041"><a xlink:title=" ">
<path fill="none" stroke="#63b8ff" d="M3479.6,-91.75C3883.03,-90.29 5757.69,-81.37 6013.25,-41.75 6021.04,-40.54 6029.2,-38.67 6037.03,-36.54"/>
<polygon fill="#63b8ff" stroke="#63b8ff" points="3479.6,-88.25 3469.61,-91.79 3479.62,-95.25 3479.6,-88.25"/>
</a>
</g>
</g>
<!-- Node42 -->
<g id="Node000042" class="node">
<title>Node42</title>
<g id="a_Node000042"><a xlink:href="kalman__println__1x1x0_8cpp.xhtml" target="_top" xlink:title=" ">
<polygon fill="white" stroke="#666666" points="6286.25,-36.12 6156.25,-36.12 6156.25,-5.62 6286.25,-5.62 6286.25,-36.12"/>
<text text-anchor="start" x="6164.25" y="-22.62" font-family="Helvetica,sans-Serif" font-size="10.00">/github/workspace/test</text>
<text text-anchor="middle" x="6221.25" y="-11.38" font-family="Helvetica,sans-Serif" font-size="10.00">/kalman_println_1x1x0.cpp</text>
</a>
</g>
</g>
<!-- Node2&#45;&gt;Node42 -->
<g id="edge41_Node000002_Node000042" class="edge">
<title>Node2&#45;&gt;Node42</title>
<g id="a_edge41_Node000002_Node000042"><a xlink:title=" ">
<path fill="none" stroke="#63b8ff" d="M3479.47,-91.71C3894.9,-90.01 5877.18,-79.91 6147.25,-41.75 6155.81,-40.54 6164.8,-38.66 6173.44,-36.54"/>
<polygon fill="#63b8ff" stroke="#63b8ff" points="3479.72,-88.21 3469.73,-91.75 3479.74,-95.21 3479.72,-88.21"/>
</a>
</g>
</g>
<!-- Node43 -->
<g id="Node000043" class="node">
<title>Node43</title>
<g id="a_Node000043"><a xlink:href="print__1x1x0_8cpp.xhtml" target="_top" xlink:title=" ">
<polygon fill="white" stroke="#666666" points="6419.75,-36.12 6304.75,-36.12 6304.75,-5.62 6419.75,-5.62 6419.75,-36.12"/>
<text text-anchor="start" x="6312.75" y="-22.62" font-family="Helvetica,sans-Serif" font-size="10.00">/github/workspace/test</text>
<text text-anchor="middle" x="6362.25" y="-11.38" font-family="Helvetica,sans-Serif" font-size="10.00">/print_1x1x0.cpp</text>
</a>
</g>
</g>
<!-- Node2&#45;&gt;Node43 -->
<g id="edge42_Node000002_Node000043" class="edge">
<title>Node2&#45;&gt;Node43</title>
<g id="a_edge42_Node000002_Node000043"><a xlink:title=" ">
<path fill="none" stroke="#63b8ff" d="M3479.42,-91.91C3908.05,-91.23 6010.23,-85.67 6295.25,-41.75 6303.04,-40.55 6311.2,-38.68 6319.03,-36.55"/>
<polygon fill="#63b8ff" stroke="#63b8ff" points="3479.63,-88.41 3469.63,-91.92 3479.64,-95.41 3479.63,-88.41"/>
</a>
</g>
</g>
<!-- Node44 -->
<g id="Node000044" class="node">
<title>Node44</title>
<g id="a_Node000044"><a xlink:href="print__2x3x4_8cpp.xhtml" target="_top" xlink:title=" ">
<polygon fill="white" stroke="#666666" points="6552.75,-36.12 6437.75,-36.12 6437.75,-5.62 6552.75,-5.62 6552.75,-36.12"/>
<text text-anchor="start" x="6445.75" y="-22.62" font-family="Helvetica,sans-Serif" font-size="10.00">/github/workspace/test</text>
<text text-anchor="middle" x="6495.25" y="-11.38" font-family="Helvetica,sans-Serif" font-size="10.00">/print_2x3x4.cpp</text>
</a>
</g>
</g>
<!-- Node2&#45;&gt;Node44 -->
<g id="edge43_Node000002_Node000044" class="edge">
<title>Node2&#45;&gt;Node44</title>
<g id="a_edge43_Node000002_Node000044"><a xlink:title=" ">
<path fill="none" stroke="#63b8ff" d="M3479.39,-91.99C3919.68,-91.77 6130.3,-88.32 6429.25,-41.75 6436.94,-40.55 6444.97,-38.68 6452.69,-36.56"/>
<polygon fill="#63b8ff" stroke="#63b8ff" points="3479.61,-88.49 3469.61,-91.99 3479.62,-95.49 3479.61,-88.49"/>
</a>
</g>
</g>
</g>
</svg>
