<?xml version="1.0" encoding="UTF-8" standalone="no"?>
<!DOCTYPE svg PUBLIC "-//W3C//DTD SVG 1.1//EN"
 "http://www.w3.org/Graphics/SVG/1.1/DTD/svg11.dtd">
<!-- Generated by graphviz version 9.0.0 (20230911.1827)
 -->
<!-- Title: /github/workspace/include/fcarouge/internal/factory.hpp Pages: 1 -->
<!--zoomable 271 -->

<svg id="main" version="1.1" xmlns="http://www.w3.org/2000/svg" xmlns:xlink="http://www.w3.org/1999/xlink" xml:space="preserve" onload="init(evt)">
<style type="text/css"><![CDATA[
.node, .edge {opacity: 0.7;}
.node.selected, .edge.selected {opacity: 1;}
.edge:hover path { stroke: red; }
.edge:hover polygon { stroke: red; fill: red; }
]]></style>

<defs>
  <circle id="rim" cx="0" cy="0" r="7"/>
  <circle id="rim2" cx="0" cy="0" r="3.5"/>
  <g id="zoomPlus">
    <use xlink:href="#rim" fill="#404040"><set attributeName="fill" to="#808080" begin="zoomplus.mouseover" end="zoomplus.mouseout"/></use>
    <path d="M-4,0h8M0,-4v8" fill="none" stroke="white" stroke-width="1.5" pointer-events="none"/>
  </g>
  <g id="zoomMin">
    <use xlink:href="#rim" fill="#404040"><set attributeName="fill" to="#808080" begin="zoomminus.mouseover" end="zoomminus.mouseout"/></use>
    <path d="M-4,0h8" fill="none" stroke="white" stroke-width="1.5" pointer-events="none"/>
  </g>
  <g id="arrowUp" transform="translate(30 24)">
    <use xlink:href="#rim"/>
    <path pointer-events="none" fill="none" stroke="white" stroke-width="1.5" d="M0,-3.0v7 M-2.5,-0.5L0,-3.0L2.5,-0.5"/>
  </g>
  <g id="arrowRight" transform="rotate(90) translate(36 -43)">
    <use xlink:href="#rim"/>
    <path pointer-events="none" fill="none" stroke="white" stroke-width="1.5" d="M0,-3.0v7 M-2.5,-0.5L0,-3.0L2.5,-0.5"/>
  </g>
  <g id="arrowDown" transform="rotate(180) translate(-30 -48)">
    <use xlink:href="#rim"/>
    <path pointer-events="none" fill="none" stroke="white" stroke-width="1.5" d="M0,-3.0v7 M-2.5,-0.5L0,-3.0L2.5,-0.5"/>
  </g>
  <g id="arrowLeft" transform="rotate(270) translate(-36 17)">
    <use xlink:href="#rim"/>
    <path pointer-events="none" fill="none" stroke="white" stroke-width="1.5" d="M0,-3.0v7 M-2.5,-0.5L0,-3.0L2.5,-0.5"/>
  </g>
  <g id="resetDef">
    <use xlink:href="#rim2" fill="#404040"><set attributeName="fill" to="#808080" begin="reset.mouseover" end="reset.mouseout"/></use>
  </g>
</defs>
<script type="application/ecmascript">
var viewWidth = 947;
var viewHeight = 271;
var sectionId = 'dynsection-0';
</script>
<script type="application/ecmascript" xlink:href="svg.min.js"/>
<svg id="graph" class="graph">
<g id="viewport">
<title>/github/workspace/include/fcarouge/internal/factory.hpp</title>
<!-- Node1 -->
<g id="Node000001" class="node">
<title>Node1</title>
<g id="a_Node000001"><a xlink:title=" ">
<polygon fill="#999999" stroke="#666666" points="439.75,-262.75 298.5,-262.75 298.5,-232.25 439.75,-232.25 439.75,-262.75"/>
<text text-anchor="start" x="306.5" y="-249.25" font-family="Helvetica,sans-Serif" font-size="10.00">/github/workspace/include</text>
<text text-anchor="middle" x="369.12" y="-238" font-family="Helvetica,sans-Serif" font-size="10.00">/fcarouge/internal/factory.hpp</text>
</a>
</g>
</g>
<!-- Node2 -->
<g id="Node000002" class="node">
<title>Node2</title>
<g id="a_Node000002"><a xlink:href="type_8hpp.xhtml" target="_top" xlink:title=" ">
<polygon fill="white" stroke="#666666" points="150.62,-190.62 23.62,-190.62 23.62,-171.38 150.62,-171.38 150.62,-190.62"/>
<text text-anchor="middle" x="87.12" y="-177.12" font-family="Helvetica,sans-Serif" font-size="10.00">fcarouge/internal/type.hpp</text>
</a>
</g>
</g>
<!-- Node1&#45;&gt;Node2 -->
<g id="edge1_Node000001_Node000002" class="edge">
<title>Node1&#45;&gt;Node2</title>
<g id="a_edge1_Node000001_Node000002"><a xlink:title=" ">
<path fill="none" stroke="#63b8ff" d="M304.78,-231.78C254.17,-220.21 184.63,-204.3 137.9,-193.61"/>
<polygon fill="#63b8ff" stroke="#63b8ff" points="138.83,-190.24 128.3,-191.42 137.27,-197.06 138.83,-190.24"/>
</a>
</g>
</g>
<!-- Node5 -->
<g id="Node000005" class="node">
<title>Node5</title>
<g id="a_Node000005"><a xlink:title=" ">
<polygon fill="#e0e0e0" stroke="#999999" points="264,-19.25 208.25,-19.25 208.25,0 264,0 264,-19.25"/>
<text text-anchor="middle" x="236.12" y="-5.75" font-family="Helvetica,sans-Serif" font-size="10.00">concepts</text>
</a>
</g>
</g>
<!-- Node1&#45;&gt;Node5 -->
<g id="edge31_Node000001_Node000005" class="edge">
<title>Node1&#45;&gt;Node5</title>
<g id="a_edge31_Node000001_Node000005"><a xlink:title=" ">
<path fill="none" stroke="#63b8ff" d="M298.09,-234.45C256.82,-225.84 210.55,-212.85 198.12,-196.25 159.9,-145.17 201.4,-64.95 223.77,-29.06"/>
<polygon fill="#63b8ff" stroke="#63b8ff" points="226.68,-31 229.16,-20.7 220.8,-27.2 226.68,-31"/>
</a>
</g>
</g>
<!-- Node8 -->
<g id="Node000008" class="node">
<title>Node8</title>
<g id="a_Node000008"><a xlink:title=" ">
<polygon fill="#e0e0e0" stroke="#999999" points="162.62,-19.25 101.62,-19.25 101.62,0 162.62,0 162.62,-19.25"/>
<text text-anchor="middle" x="132.12" y="-5.75" font-family="Helvetica,sans-Serif" font-size="10.00">type_traits</text>
</a>
</g>
</g>
<!-- Node1&#45;&gt;Node8 -->
<g id="edge32_Node000001_Node000008" class="edge">
<title>Node1&#45;&gt;Node8</title>
<g id="a_edge32_Node000001_Node000008"><a xlink:title=" ">
<path fill="none" stroke="#63b8ff" d="M298.1,-246.97C205.24,-245.9 50.14,-237.73 14.12,-196.25 -35.45,-139.17 62.22,-59.36 109.04,-26.11"/>
<polygon fill="#63b8ff" stroke="#63b8ff" points="111,-29.02 117.21,-20.44 107,-23.27 111,-29.02"/>
</a>
</g>
</g>
<!-- Node10 -->
<g id="Node000010" class="node">
<title>Node10</title>
<g id="a_Node000010"><a xlink:href="x__z__p__q__r__h__f_8hpp.xhtml" target="_top" xlink:title=" ">
<polygon fill="white" stroke="#666666" points="416.87,-196.25 321.37,-196.25 321.37,-165.75 416.87,-165.75 416.87,-196.25"/>
<text text-anchor="start" x="329.37" y="-182.75" font-family="Helvetica,sans-Serif" font-size="10.00">fcarouge/internal/x</text>
<text text-anchor="middle" x="369.12" y="-171.5" font-family="Helvetica,sans-Serif" font-size="10.00">_z_p_q_r_h_f.hpp</text>
</a>
</g>
</g>
<!-- Node1&#45;&gt;Node10 -->
<g id="edge10_Node000001_Node000010" class="edge">
<title>Node1&#45;&gt;Node10</title>
<g id="a_edge10_Node000001_Node000010"><a xlink:title=" ">
<path fill="none" stroke="#63b8ff" d="M369.12,-231.86C369.12,-224.77 369.12,-216.04 369.12,-207.88"/>
<polygon fill="#63b8ff" stroke="#63b8ff" points="372.62,-208.09 369.12,-198.09 365.62,-208.09 372.62,-208.09"/>
</a>
</g>
</g>
<!-- Node11 -->
<g id="Node000011" class="node">
<title>Node11</title>
<g id="a_Node000011"><a xlink:href="x__z__p__q__r__hh__us__ps_8hpp.xhtml" target="_top" xlink:title=" ">
<polygon fill="white" stroke="#666666" points="555.25,-196.25 435,-196.25 435,-165.75 555.25,-165.75 555.25,-196.25"/>
<text text-anchor="start" x="443" y="-182.75" font-family="Helvetica,sans-Serif" font-size="10.00">fcarouge/internal/x</text>
<text text-anchor="middle" x="495.12" y="-171.5" font-family="Helvetica,sans-Serif" font-size="10.00">_z_p_q_r_hh_us_ps.hpp</text>
</a>
</g>
</g>
<!-- Node1&#45;&gt;Node11 -->
<g id="edge12_Node000001_Node000011" class="edge">
<title>Node1&#45;&gt;Node11</title>
<g id="a_edge12_Node000001_Node000011"><a xlink:title=" ">
<path fill="none" stroke="#63b8ff" d="M397.72,-231.86C415.11,-222.96 437.56,-211.47 456.52,-201.76"/>
<polygon fill="#63b8ff" stroke="#63b8ff" points="457.99,-204.94 465.3,-197.27 454.8,-198.71 457.99,-204.94"/>
</a>
</g>
</g>
<!-- Node14 -->
<g id="Node000014" class="node">
<title>Node14</title>
<g id="a_Node000014"><a xlink:href="x__z__p__qq__rr__f_8hpp.xhtml" target="_top" xlink:title=" ">
<polygon fill="white" stroke="#666666" points="668.87,-196.25 573.37,-196.25 573.37,-165.75 668.87,-165.75 668.87,-196.25"/>
<text text-anchor="start" x="581.37" y="-182.75" font-family="Helvetica,sans-Serif" font-size="10.00">fcarouge/internal/x</text>
<text text-anchor="middle" x="621.12" y="-171.5" font-family="Helvetica,sans-Serif" font-size="10.00">_z_p_qq_rr_f.hpp</text>
</a>
</g>
</g>
<!-- Node1&#45;&gt;Node14 -->
<g id="edge17_Node000001_Node000014" class="edge">
<title>Node1&#45;&gt;Node14</title>
<g id="a_edge17_Node000001_Node000014"><a xlink:title=" ">
<path fill="none" stroke="#63b8ff" d="M426.62,-231.78C467.12,-221.42 521.18,-207.58 562.03,-197.12"/>
<polygon fill="#63b8ff" stroke="#63b8ff" points="562.89,-200.52 571.71,-194.65 561.16,-193.74 562.89,-200.52"/>
</a>
</g>
</g>
<!-- Node15 -->
<g id="Node000015" class="node">
<title>Node15</title>
<g id="a_Node000015"><a xlink:href="x__z__p__r__f_8hpp.xhtml" target="_top" xlink:title=" ">
<polygon fill="white" stroke="#666666" points="302.87,-196.25 207.37,-196.25 207.37,-165.75 302.87,-165.75 302.87,-196.25"/>
<text text-anchor="start" x="215.37" y="-182.75" font-family="Helvetica,sans-Serif" font-size="10.00">fcarouge/internal/x</text>
<text text-anchor="middle" x="255.12" y="-171.5" font-family="Helvetica,sans-Serif" font-size="10.00">_z_p_r_f.hpp</text>
</a>
</g>
</g>
<!-- Node1&#45;&gt;Node15 -->
<g id="edge21_Node000001_Node000015" class="edge">
<title>Node1&#45;&gt;Node15</title>
<g id="a_edge21_Node000001_Node000015"><a xlink:title=" ">
<path fill="none" stroke="#63b8ff" d="M343.26,-231.86C327.66,-223.04 307.58,-211.68 290.52,-202.03"/>
<polygon fill="#63b8ff" stroke="#63b8ff" points="292.63,-199.2 282.21,-197.32 289.19,-205.29 292.63,-199.2"/>
</a>
</g>
</g>
<!-- Node16 -->
<g id="Node000016" class="node">
<title>Node16</title>
<g id="a_Node000016"><a xlink:href="x__z__u__p__q__r__f__g__ps_8hpp.xhtml" target="_top" xlink:title=" ">
<polygon fill="white" stroke="#666666" points="805.12,-196.25 687.12,-196.25 687.12,-165.75 805.12,-165.75 805.12,-196.25"/>
<text text-anchor="start" x="695.12" y="-182.75" font-family="Helvetica,sans-Serif" font-size="10.00">fcarouge/internal/x</text>
<text text-anchor="middle" x="746.12" y="-171.5" font-family="Helvetica,sans-Serif" font-size="10.00">_z_u_p_q_r_f_g_ps.hpp</text>
</a>
</g>
</g>
<!-- Node1&#45;&gt;Node16 -->
<g id="edge23_Node000001_Node000016" class="edge">
<title>Node1&#45;&gt;Node16</title>
<g id="a_edge23_Node000001_Node000016"><a xlink:title=" ">
<path fill="none" stroke="#63b8ff" d="M440.16,-235.89C500.32,-226.68 589.12,-212.59 675.72,-196.65"/>
<polygon fill="#63b8ff" stroke="#63b8ff" points="676.13,-200.13 685.33,-194.87 674.86,-193.25 676.13,-200.13"/>
</a>
</g>
</g>
<!-- Node17 -->
<g id="Node000017" class="node">
<title>Node17</title>
<g id="a_Node000017"><a xlink:href="x__z__u__p__q__r__us__ps_8hpp.xhtml" target="_top" xlink:title=" ">
<polygon fill="white" stroke="#666666" points="938.62,-196.25 823.62,-196.25 823.62,-165.75 938.62,-165.75 938.62,-196.25"/>
<text text-anchor="start" x="831.62" y="-182.75" font-family="Helvetica,sans-Serif" font-size="10.00">fcarouge/internal/x</text>
<text text-anchor="middle" x="881.12" y="-171.5" font-family="Helvetica,sans-Serif" font-size="10.00">_z_u_p_q_r_us_ps.hpp</text>
</a>
</g>
</g>
<!-- Node1&#45;&gt;Node17 -->
<g id="edge27_Node000001_Node000017" class="edge">
<title>Node1&#45;&gt;Node17</title>
<g id="a_edge27_Node000001_Node000017"><a xlink:title=" ">
<path fill="none" stroke="#63b8ff" d="M439.93,-240.64C525.66,-233.07 674.59,-218.39 812.29,-196.44"/>
<polygon fill="#63b8ff" stroke="#63b8ff" points="812.64,-199.93 821.95,-194.88 811.52,-193.02 812.64,-199.93"/>
</a>
</g>
</g>
<!-- Node3 -->
<g id="Node000003" class="node">
<title>Node3</title>
<g id="a_Node000003"><a xlink:href="utility_8hpp.xhtml" target="_top" xlink:title="The collection of utilities supporting the library.">
<polygon fill="white" stroke="#666666" points="516.62,-129.75 419.62,-129.75 419.62,-110.5 516.62,-110.5 516.62,-129.75"/>
<text text-anchor="middle" x="468.12" y="-116.25" font-family="Helvetica,sans-Serif" font-size="10.00">fcarouge/utility.hpp</text>
</a>
</g>
</g>
<!-- Node2&#45;&gt;Node3 -->
<g id="edge2_Node000002_Node000003" class="edge">
<title>Node2&#45;&gt;Node3</title>
<g id="a_edge2_Node000002_Node000003"><a xlink:title=" ">
<path fill="none" stroke="#63b8ff" d="M145.82,-170.93C217.05,-159.92 336.5,-141.46 408.26,-130.38"/>
<polygon fill="#63b8ff" stroke="#63b8ff" points="408.5,-133.88 417.85,-128.89 407.44,-126.96 408.5,-133.88"/>
</a>
</g>
</g>
<!-- Node2&#45;&gt;Node8 -->
<g id="edge9_Node000002_Node000008" class="edge">
<title>Node2&#45;&gt;Node8</title>
<g id="a_edge9_Node000002_Node000008"><a xlink:title=" ">
<path fill="none" stroke="#63b8ff" d="M92.83,-171.12C98.84,-161.37 108.09,-145.05 113.12,-129.75 124.22,-96.02 128.95,-54.72 130.88,-30.67"/>
<polygon fill="#63b8ff" stroke="#63b8ff" points="134.35,-31.25 131.57,-21.03 127.37,-30.76 134.35,-31.25"/>
</a>
</g>
</g>
<!-- Node9 -->
<g id="Node000009" class="node">
<title>Node9</title>
<g id="a_Node000009"><a xlink:title=" ">
<polygon fill="#e0e0e0" stroke="#999999" points="103.87,-129.75 32.37,-129.75 32.37,-110.5 103.87,-110.5 103.87,-129.75"/>
<text text-anchor="middle" x="68.12" y="-116.25" font-family="Helvetica,sans-Serif" font-size="10.00">initializer_list</text>
</a>
</g>
</g>
<!-- Node2&#45;&gt;Node9 -->
<g id="edge8_Node000002_Node000009" class="edge">
<title>Node2&#45;&gt;Node9</title>
<g id="a_edge8_Node000002_Node000009"><a xlink:title=" ">
<path fill="none" stroke="#63b8ff" d="M84.24,-171.06C81.67,-163.1 77.83,-151.19 74.54,-140.99"/>
<polygon fill="#63b8ff" stroke="#63b8ff" points="77.9,-140.03 71.5,-131.59 71.24,-142.18 77.9,-140.03"/>
</a>
</g>
</g>
<!-- Node4 -->
<g id="Node000004" class="node">
<title>Node4</title>
<g id="a_Node000004"><a xlink:href="internal_2utility_8hpp.xhtml" target="_top" xlink:title=" ">
<polygon fill="white" stroke="#666666" points="405.62,-74.5 314.62,-74.5 314.62,-55.25 405.62,-55.25 405.62,-74.5"/>
<text text-anchor="middle" x="360.12" y="-61" font-family="Helvetica,sans-Serif" font-size="10.00">internal/utility.hpp</text>
</a>
</g>
</g>
<!-- Node3&#45;&gt;Node4 -->
<g id="edge3_Node000003_Node000004" class="edge">
<title>Node3&#45;&gt;Node4</title>
<g id="a_edge3_Node000003_Node000004"><a xlink:title=" ">
<path fill="none" stroke="#63b8ff" d="M449.8,-110.09C433.05,-101.83 407.99,-89.48 388.62,-79.93"/>
<polygon fill="#63b8ff" stroke="#63b8ff" points="390.41,-76.9 379.89,-75.62 387.31,-83.18 390.41,-76.9"/>
</a>
</g>
</g>
<!-- Node4&#45;&gt;Node5 -->
<g id="edge4_Node000004_Node000005" class="edge">
<title>Node4&#45;&gt;Node5</title>
<g id="a_edge4_Node000004_Node000005"><a xlink:title=" ">
<path fill="none" stroke="#63b8ff" d="M339.09,-54.84C319.49,-46.43 290.02,-33.77 267.62,-24.15"/>
<polygon fill="#63b8ff" stroke="#63b8ff" points="269.22,-21.03 258.65,-20.3 266.46,-27.46 269.22,-21.03"/>
</a>
</g>
</g>
<!-- Node6 -->
<g id="Node000006" class="node">
<title>Node6</title>
<g id="a_Node000006"><a xlink:title=" ">
<polygon fill="#e0e0e0" stroke="#999999" points="384.25,-19.25 336,-19.25 336,0 384.25,0 384.25,-19.25"/>
<text text-anchor="middle" x="360.12" y="-5.75" font-family="Helvetica,sans-Serif" font-size="10.00">cstddef</text>
</a>
</g>
</g>
<!-- Node4&#45;&gt;Node6 -->
<g id="edge5_Node000004_Node000006" class="edge">
<title>Node4&#45;&gt;Node6</title>
<g id="a_edge5_Node000004_Node000006"><a xlink:title=" ">
<path fill="none" stroke="#63b8ff" d="M360.12,-55.08C360.12,-48.57 360.12,-39.42 360.12,-31.12"/>
<polygon fill="#63b8ff" stroke="#63b8ff" points="363.62,-31.12 360.12,-21.12 356.62,-31.12 363.62,-31.12"/>
</a>
</g>
</g>
<!-- Node7 -->
<g id="Node000007" class="node">
<title>Node7</title>
<g id="a_Node000007"><a xlink:title=" ">
<polygon fill="#e0e0e0" stroke="#999999" points="639.62,-19.25 602.62,-19.25 602.62,0 639.62,0 639.62,-19.25"/>
<text text-anchor="middle" x="621.12" y="-5.75" font-family="Helvetica,sans-Serif" font-size="10.00">tuple</text>
</a>
</g>
</g>
<!-- Node4&#45;&gt;Node7 -->
<g id="edge6_Node000004_Node000007" class="edge">
<title>Node4&#45;&gt;Node7</title>
<g id="a_edge6_Node000004_Node000007"><a xlink:title=" ">
<path fill="none" stroke="#63b8ff" d="M404.69,-54.78C457.89,-43.93 545.37,-26.08 591.12,-16.75"/>
<polygon fill="#63b8ff" stroke="#63b8ff" points="591.75,-20.19 600.85,-14.76 590.35,-13.33 591.75,-20.19"/>
</a>
</g>
</g>
<!-- Node4&#45;&gt;Node8 -->
<g id="edge7_Node000004_Node000008" class="edge">
<title>Node4&#45;&gt;Node8</title>
<g id="a_edge7_Node000004_Node000008"><a xlink:title=" ">
<path fill="none" stroke="#63b8ff" d="M321.19,-54.78C280.18,-45.2 215.84,-30.18 173.82,-20.36"/>
<polygon fill="#63b8ff" stroke="#63b8ff" points="174.87,-17.01 164.33,-18.15 173.27,-23.83 174.87,-17.01"/>
</a>
</g>
</g>
<!-- Node10&#45;&gt;Node3 -->
<g id="edge11_Node000010_Node000003" class="edge">
<title>Node10&#45;&gt;Node3</title>
<g id="a_edge11_Node000010_Node000003"><a xlink:title=" ">
<path fill="none" stroke="#63b8ff" d="M393.85,-165.3C408.93,-156.33 428.14,-144.91 443.24,-135.92"/>
<polygon fill="#63b8ff" stroke="#63b8ff" points="444.83,-139.05 451.64,-130.93 441.26,-133.03 444.83,-139.05"/>
</a>
</g>
</g>
<!-- Node11&#45;&gt;Node3 -->
<g id="edge13_Node000011_Node000003" class="edge">
<title>Node11&#45;&gt;Node3</title>
<g id="a_edge13_Node000011_Node000003"><a xlink:title=" ">
<path fill="none" stroke="#63b8ff" d="M488.45,-165.45C485.01,-157.95 480.77,-148.7 477.05,-140.6"/>
<polygon fill="#63b8ff" stroke="#63b8ff" points="480.27,-139.21 472.92,-131.58 473.9,-142.13 480.27,-139.21"/>
</a>
</g>
</g>
<!-- Node11&#45;&gt;Node7 -->
<g id="edge16_Node000011_Node000007" class="edge">
<title>Node11&#45;&gt;Node7</title>
<g id="a_edge16_Node000011_Node000007"><a xlink:title=" ">
<path fill="none" stroke="#63b8ff" d="M506.09,-165.27C529.09,-134.34 582.36,-62.73 607.51,-28.93"/>
<polygon fill="#63b8ff" stroke="#63b8ff" points="610.28,-31.06 613.44,-20.95 604.67,-26.88 610.28,-31.06"/>
</a>
</g>
</g>
<!-- Node12 -->
<g id="Node000012" class="node">
<title>Node12</title>
<g id="a_Node000012"><a xlink:href="function_8hpp.xhtml" target="_top" xlink:title=" ">
<polygon fill="white" stroke="#666666" points="717.37,-129.75 648.87,-129.75 648.87,-110.5 717.37,-110.5 717.37,-129.75"/>
<text text-anchor="middle" x="683.12" y="-116.25" font-family="Helvetica,sans-Serif" font-size="10.00">function.hpp</text>
</a>
</g>
</g>
<!-- Node11&#45;&gt;Node12 -->
<g id="edge14_Node000011_Node000012" class="edge">
<title>Node11&#45;&gt;Node12</title>
<g id="a_edge14_Node000011_Node000012"><a xlink:title=" ">
<path fill="none" stroke="#63b8ff" d="M542.08,-165.3C573.23,-155.54 613.66,-142.88 643.25,-133.61"/>
<polygon fill="#63b8ff" stroke="#63b8ff" points="644.07,-137.02 652.57,-130.69 641.98,-130.34 644.07,-137.02"/>
</a>
</g>
</g>
<!-- Node13 -->
<g id="Node000013" class="node">
<title>Node13</title>
<g id="a_Node000013"><a xlink:title=" ">
<polygon fill="#e0e0e0" stroke="#999999" points="708.37,-74.5 657.87,-74.5 657.87,-55.25 708.37,-55.25 708.37,-74.5"/>
<text text-anchor="middle" x="683.12" y="-61" font-family="Helvetica,sans-Serif" font-size="10.00">memory</text>
</a>
</g>
</g>
<!-- Node12&#45;&gt;Node13 -->
<g id="edge15_Node000012_Node000013" class="edge">
<title>Node12&#45;&gt;Node13</title>
<g id="a_edge15_Node000012_Node000013"><a xlink:title=" ">
<path fill="none" stroke="#63b8ff" d="M683.12,-110.33C683.12,-103.82 683.12,-94.67 683.12,-86.37"/>
<polygon fill="#63b8ff" stroke="#63b8ff" points="686.62,-86.37 683.12,-76.37 679.62,-86.37 686.62,-86.37"/>
</a>
</g>
</g>
<!-- Node14&#45;&gt;Node3 -->
<g id="edge18_Node000014_Node000003" class="edge">
<title>Node14&#45;&gt;Node3</title>
<g id="a_edge18_Node000014_Node000003"><a xlink:title=" ">
<path fill="none" stroke="#63b8ff" d="M582.91,-165.3C558.15,-155.77 526.19,-143.47 502.28,-134.27"/>
<polygon fill="#63b8ff" stroke="#63b8ff" points="503.59,-131.02 493,-130.7 501.08,-137.56 503.59,-131.02"/>
</a>
</g>
</g>
<!-- Node14&#45;&gt;Node7 -->
<g id="edge20_Node000014_Node000007" class="edge">
<title>Node14&#45;&gt;Node7</title>
<g id="a_edge20_Node000014_Node000007"><a xlink:title=" ">
<path fill="none" stroke="#63b8ff" d="M621.12,-165.27C621.12,-135.01 621.12,-65.8 621.12,-31.16"/>
<polygon fill="#63b8ff" stroke="#63b8ff" points="624.62,-31.25 621.12,-21.25 617.62,-31.25 624.62,-31.25"/>
</a>
</g>
</g>
<!-- Node14&#45;&gt;Node12 -->
<g id="edge19_Node000014_Node000012" class="edge">
<title>Node14&#45;&gt;Node12</title>
<g id="a_edge19_Node000014_Node000012"><a xlink:title=" ">
<path fill="none" stroke="#63b8ff" d="M636.45,-165.45C645.16,-157.17 656.12,-146.77 665.23,-138.12"/>
<polygon fill="#63b8ff" stroke="#63b8ff" points="667.63,-140.67 672.47,-131.24 662.81,-135.59 667.63,-140.67"/>
</a>
</g>
</g>
<!-- Node15&#45;&gt;Node3 -->
<g id="edge22_Node000015_Node000003" class="edge">
<title>Node15&#45;&gt;Node3</title>
<g id="a_edge22_Node000015_Node000003"><a xlink:title=" ">
<path fill="none" stroke="#63b8ff" d="M303.19,-166.71C339.51,-156.68 388.95,-143.01 424.21,-133.26"/>
<polygon fill="#63b8ff" stroke="#63b8ff" points="424.96,-136.69 433.66,-130.65 423.09,-129.94 424.96,-136.69"/>
</a>
</g>
</g>
<!-- Node16&#45;&gt;Node3 -->
<g id="edge24_Node000016_Node000003" class="edge">
<title>Node16&#45;&gt;Node3</title>
<g id="a_edge24_Node000016_Node000003"><a xlink:title=" ">
<path fill="none" stroke="#63b8ff" d="M686.83,-167.44C638.06,-157.12 569.54,-142.6 522.25,-132.59"/>
<polygon fill="#63b8ff" stroke="#63b8ff" points="523,-129.17 512.49,-130.52 521.54,-136.02 523,-129.17"/>
</a>
</g>
</g>
<!-- Node16&#45;&gt;Node7 -->
<g id="edge26_Node000016_Node000007" class="edge">
<title>Node16&#45;&gt;Node7</title>
<g id="a_edge26_Node000016_Node000007"><a xlink:title=" ">
<path fill="none" stroke="#63b8ff" d="M746.65,-165.54C746.8,-140.32 743.62,-87.87 717.12,-55.25 700.53,-34.81 672.44,-23.27 650.93,-17.07"/>
<polygon fill="#63b8ff" stroke="#63b8ff" points="652.09,-13.76 641.53,-14.61 650.32,-20.53 652.09,-13.76"/>
</a>
</g>
</g>
<!-- Node16&#45;&gt;Node12 -->
<g id="edge25_Node000016_Node000012" class="edge">
<title>Node16&#45;&gt;Node12</title>
<g id="a_edge25_Node000016_Node000012"><a xlink:title=" ">
<path fill="none" stroke="#63b8ff" d="M730.55,-165.45C721.6,-157.09 710.33,-146.55 701.02,-137.85"/>
<polygon fill="#63b8ff" stroke="#63b8ff" points="703.64,-135.51 693.94,-131.23 698.86,-140.62 703.64,-135.51"/>
</a>
</g>
</g>
<!-- Node17&#45;&gt;Node3 -->
<g id="edge28_Node000017_Node000003" class="edge">
<title>Node17&#45;&gt;Node3</title>
<g id="a_edge28_Node000017_Node000003"><a xlink:title=" ">
<path fill="none" stroke="#63b8ff" d="M823.44,-167.42C820.29,-166.83 817.17,-166.27 814.12,-165.75 714.3,-148.73 597.29,-134.9 528.11,-127.36"/>
<polygon fill="#63b8ff" stroke="#63b8ff" points="528.84,-123.92 518.52,-126.33 528.09,-130.88 528.84,-123.92"/>
</a>
</g>
</g>
<!-- Node17&#45;&gt;Node7 -->
<g id="edge30_Node000017_Node000007" class="edge">
<title>Node17&#45;&gt;Node7</title>
<g id="a_edge30_Node000017_Node000007"><a xlink:title=" ">
<path fill="none" stroke="#63b8ff" d="M867.59,-165.47C843.33,-140.15 789.95,-87.54 736.12,-55.25 708.98,-38.97 674.84,-26.61 650.84,-19.07"/>
<polygon fill="#63b8ff" stroke="#63b8ff" points="651.97,-15.76 641.39,-16.21 649.94,-22.46 651.97,-15.76"/>
</a>
</g>
</g>
<!-- Node17&#45;&gt;Node12 -->
<g id="edge29_Node000017_Node000012" class="edge">
<title>Node17&#45;&gt;Node12</title>
<g id="a_edge29_Node000017_Node000012"><a xlink:title=" ">
<path fill="none" stroke="#63b8ff" d="M831.67,-165.3C798.72,-155.5 755.9,-142.77 724.71,-133.49"/>
<polygon fill="#63b8ff" stroke="#63b8ff" points="725.81,-130.17 715.23,-130.67 723.82,-136.88 725.81,-130.17"/>
</a>
</g>
</g>
</g>
</svg>

<g id="navigator" transform="translate(0 0)" fill="#404254">
  <rect fill="#f2f5e9" fill-opacity="0.5" stroke="#606060" stroke-width=".5" x="0" y="0" width="60" height="60"/>
  <use id="zoomplus" xlink:href="#zoomPlus" x="17" y="9" onmousedown="handleZoom(evt,'in')"/>
  <use id="zoomminus" xlink:href="#zoomMin" x="42" y="9" onmousedown="handleZoom(evt,'out')"/>
  <use id="reset" xlink:href="#resetDef" x="30" y="36" onmousedown="handleReset()"/>
   <use id="arrowup" xlink:href="#arrowUp" x="0" y="0" onmousedown="handlePan(0,-1)"/>
  <use id="arrowright" xlink:href="#arrowRight" x="0" y="0" onmousedown="handlePan(1,0)"/>
  <use id="arrowdown" xlink:href="#arrowDown" x="0" y="0" onmousedown="handlePan(0,1)"/>
  <use id="arrowleft" xlink:href="#arrowLeft" x="0" y="0" onmousedown="handlePan(-1,0)"/>
</g>
<svg viewBox="0 0 15 15" width="100%" height="30px" preserveAspectRatio="xMaxYMin meet">
 <g id="arrow_out" transform="scale(0.3 0.3)">
  <a xlink:href="factory_8hpp__incl_org.svg" target="_base">
   <rect id="button" ry="5" rx="5" y="6" x="6" height="38" width="38"
        fill="#f2f5e9" fill-opacity="0.5" stroke="#606060" stroke-width="1.0"/>
   <path id="arrow"
     d="M 11.500037,31.436501 C 11.940474,20.09759 22.043105,11.32322 32.158766,21.979434 L 37.068811,17.246167 C 37.068811,17.246167 37.088388,32 37.088388,32 L 22.160133,31.978069 C 22.160133,31.978069 26.997745,27.140456 26.997745,27.140456 C 18.528582,18.264221 13.291696,25.230495 11.500037,31.436501 z"
     style="fill:#404040;"/>
  </a>
 </g>
</svg>

<style type='text/css'>
<![CDATA[
[data-mouse-over-selected='false'] { opacity: 0.7; }
[data-mouse-over-selected='true']  { opacity: 1.0; }
]]>
</style>
<script type="application/ecmascript"><![CDATA[
document.addEventListener('DOMContentLoaded', (event) => {
  highlightEdges();
  highlightAdjacentNodes();
});
]]></script>
</svg>
