<?xml version="1.0" encoding="UTF-8" standalone="no"?>
<!DOCTYPE svg PUBLIC "-//W3C//DTD SVG 1.1//EN"
 "http://www.w3.org/Graphics/SVG/1.1/DTD/svg11.dtd">
<!-- Generated by graphviz version 12.2.0 (20241103.1931)
 -->
<!-- Title: /github/workspace/include/fcarouge/kalman_internal/factory.hpp Pages: 1 -->
<!--zoomable 227 -->

<svg id="main" version="1.1" xmlns="http://www.w3.org/2000/svg" xmlns:xlink="http://www.w3.org/1999/xlink" xml:space="preserve" onload="init(evt)">

<style type="text/css"><![CDATA[
.node, .edge {opacity: 0.7;}
.node.selected, .edge.selected {opacity: 1;}
.edge:hover path { stroke: red; }
.edge:hover polygon { stroke: red; fill: red; }
]]></style>

<defs>
  <circle id="rim" cx="0" cy="0" r="7"/>
  <circle id="rim2" cx="0" cy="0" r="3.5"/>
  <g id="zoomPlus">
    <use xlink:href="#rim" fill="#404040"><set attributeName="fill" to="#808080" begin="zoomplus.mouseover" end="zoomplus.mouseout"/></use>
    <path d="M-4,0h8M0,-4v8" fill="none" stroke="white" stroke-width="1.5" pointer-events="none"/>
  </g>
  <g id="zoomMin">
    <use xlink:href="#rim" fill="#404040"><set attributeName="fill" to="#808080" begin="zoomminus.mouseover" end="zoomminus.mouseout"/></use>
    <path d="M-4,0h8" fill="none" stroke="white" stroke-width="1.5" pointer-events="none"/>
  </g>
  <g id="arrowUp" transform="translate(30 24)">
    <use xlink:href="#rim"/>
    <path pointer-events="none" fill="none" stroke="white" stroke-width="1.5" d="M0,-3.0v7 M-2.5,-0.5L0,-3.0L2.5,-0.5"/>
  </g>
  <g id="arrowRight" transform="rotate(90) translate(36 -43)">
    <use xlink:href="#rim"/>
    <path pointer-events="none" fill="none" stroke="white" stroke-width="1.5" d="M0,-3.0v7 M-2.5,-0.5L0,-3.0L2.5,-0.5"/>
  </g>
  <g id="arrowDown" transform="rotate(180) translate(-30 -48)">
    <use xlink:href="#rim"/>
    <path pointer-events="none" fill="none" stroke="white" stroke-width="1.5" d="M0,-3.0v7 M-2.5,-0.5L0,-3.0L2.5,-0.5"/>
  </g>
  <g id="arrowLeft" transform="rotate(270) translate(-36 17)">
    <use xlink:href="#rim"/>
    <path pointer-events="none" fill="none" stroke="white" stroke-width="1.5" d="M0,-3.0v7 M-2.5,-0.5L0,-3.0L2.5,-0.5"/>
  </g>
  <g id="resetDef">
    <use xlink:href="#rim2" fill="#404040"><set attributeName="fill" to="#808080" begin="reset.mouseover" end="reset.mouseout"/></use>
  </g>
</defs>
<script type="application/ecmascript">
var viewWidth = 1224;
var viewHeight = 227;
var sectionId = 'dynsection-0';
</script>
<script type="application/ecmascript" xlink:href="svg.min.js"/>
<svg id="graph" class="graph">
<g id="viewport">
<title>/github/workspace/include/fcarouge/kalman_internal/factory.hpp</title>
<!-- Node1 -->
<g id="Node000001" class="node">
<title>Node1</title>
<g id="a_Node000001"><a xlink:title=" ">
<polygon fill="#999999" stroke="#666666" points="565.73,-218.75 436.48,-218.75 436.48,-177 565.73,-177 565.73,-218.75"/>
<text text-anchor="start" x="444.48" y="-205.25" font-family="Helvetica,sans-Serif" font-size="10.00">/github/workspace/include</text>
<text text-anchor="start" x="444.48" y="-194" font-family="Helvetica,sans-Serif" font-size="10.00">/fcarouge/kalman_internal</text>
<text text-anchor="middle" x="501.1" y="-182.75" font-family="Helvetica,sans-Serif" font-size="10.00">/factory.hpp</text>
</a>
</g>
</g>
<!-- Node2 -->
<g id="Node000002" class="node">
<title>Node2</title>
<g id="a_Node000002"><a xlink:href="type_8hpp.xhtml" target="_top" xlink:title=" ">
<polygon fill="white" stroke="#666666" points="80.1,-135.38 28.1,-135.38 28.1,-116.12 80.1,-116.12 80.1,-135.38"/>
<text text-anchor="middle" x="54.1" y="-121.88" font-family="Helvetica,sans-Serif" font-size="10.00">type.hpp</text>
</a>
</g>
</g>
<!-- Node1&#45;&gt;Node2 -->
<g id="edge1_Node000001_Node000002" class="edge">
<title>Node1&#45;&gt;Node2</title>
<g id="a_edge1_Node000001_Node000002"><a xlink:title=" ">
<path fill="none" stroke="#63b8ff" d="M436.1,-191.24C356.1,-183.53 216.45,-167.54 99.1,-141 96.47,-140.41 93.77,-139.73 91.07,-139"/>
<polygon fill="#63b8ff" stroke="#63b8ff" points="92.11,-135.66 81.53,-136.22 90.15,-142.38 92.11,-135.66"/>
</a>
</g>
</g>
<!-- Node4 -->
<g id="Node000004" class="node">
<title>Node4</title>
<g id="a_Node000004"><a xlink:title=" ">
<polygon fill="#e0e0e0" stroke="#999999" points="337.98,-19.25 282.23,-19.25 282.23,0 337.98,0 337.98,-19.25"/>
<text text-anchor="middle" x="310.1" y="-5.75" font-family="Helvetica,sans-Serif" font-size="10.00">concepts</text>
</a>
</g>
</g>
<!-- Node1&#45;&gt;Node4 -->
<g id="edge39_Node000001_Node000004" class="edge">
<title>Node1&#45;&gt;Node4</title>
<g id="a_edge39_Node000001_Node000004"><a xlink:title=" ">
<path fill="none" stroke="#63b8ff" d="M436.07,-195.43C349.75,-191.99 204.34,-180.34 171.1,-141 131.35,-93.95 222.93,-46.38 275.85,-23.93"/>
<polygon fill="#63b8ff" stroke="#63b8ff" points="276.88,-27.29 284.78,-20.24 274.2,-20.82 276.88,-27.29"/>
</a>
</g>
</g>
<!-- Node6 -->
<g id="Node000006" class="node">
<title>Node6</title>
<g id="a_Node000006"><a xlink:title=" ">
<polygon fill="#e0e0e0" stroke="#999999" points="868.6,-19.25 831.6,-19.25 831.6,0 868.6,0 868.6,-19.25"/>
<text text-anchor="middle" x="850.1" y="-5.75" font-family="Helvetica,sans-Serif" font-size="10.00">tuple</text>
</a>
</g>
</g>
<!-- Node1&#45;&gt;Node6 -->
<g id="edge40_Node000001_Node000006" class="edge">
<title>Node1&#45;&gt;Node6</title>
<g id="a_edge40_Node000001_Node000006"><a xlink:title=" ">
<path fill="none" stroke="#63b8ff" d="M566.06,-196.53C730.11,-194.97 1151.09,-186.54 1193.1,-141 1292.49,-33.27 1035.04,-58.98 880.02,-19.54"/>
<polygon fill="#63b8ff" stroke="#63b8ff" points="881.07,-16.2 870.51,-16.98 879.25,-22.96 881.07,-16.2"/>
</a>
</g>
</g>
<!-- Node7 -->
<g id="Node000007" class="node">
<title>Node7</title>
<g id="a_Node000007"><a xlink:title=" ">
<polygon fill="#e0e0e0" stroke="#999999" points="143.6,-19.25 82.6,-19.25 82.6,0 143.6,0 143.6,-19.25"/>
<text text-anchor="middle" x="113.1" y="-5.75" font-family="Helvetica,sans-Serif" font-size="10.00">type_traits</text>
</a>
</g>
</g>
<!-- Node1&#45;&gt;Node7 -->
<g id="edge41_Node000001_Node000007" class="edge">
<title>Node1&#45;&gt;Node7</title>
<g id="a_edge41_Node000001_Node000007"><a xlink:title=" ">
<path fill="none" stroke="#63b8ff" d="M436.2,-194.17C348.44,-189.23 198.18,-175.82 157.1,-141 124.24,-113.15 115.84,-59.85 113.75,-30.77"/>
<polygon fill="#63b8ff" stroke="#63b8ff" points="117.26,-30.93 113.25,-21.12 110.27,-31.29 117.26,-30.93"/>
</a>
</g>
</g>
<!-- Node10 -->
<g id="Node000010" class="node">
<title>Node10</title>
<g id="a_Node000010"><a xlink:href="x__z__p__q__r_8hpp.xhtml" target="_top" xlink:title=" ">
<polygon fill="white" stroke="#666666" points="434.85,-135.38 357.35,-135.38 357.35,-116.12 434.85,-116.12 434.85,-135.38"/>
<text text-anchor="middle" x="396.1" y="-121.88" font-family="Helvetica,sans-Serif" font-size="10.00">x_z_p_q_r.hpp</text>
</a>
</g>
</g>
<!-- Node1&#45;&gt;Node10 -->
<g id="edge10_Node000001_Node000010" class="edge">
<title>Node1&#45;&gt;Node10</title>
<g id="a_edge10_Node000001_Node000010"><a xlink:title=" ">
<path fill="none" stroke="#63b8ff" d="M470.73,-176.59C454.14,-165.51 433.93,-152.02 418.73,-141.86"/>
<polygon fill="#63b8ff" stroke="#63b8ff" points="421.07,-139.22 410.81,-136.58 417.19,-145.04 421.07,-139.22"/>
</a>
</g>
</g>
<!-- Node11 -->
<g id="Node000011" class="node">
<title>Node11</title>
<g id="a_Node000011"><a xlink:href="x__z__p__q__r__h__f_8hpp.xhtml" target="_top" xlink:title=" ">
<polygon fill="white" stroke="#666666" points="549.23,-135.38 452.98,-135.38 452.98,-116.12 549.23,-116.12 549.23,-135.38"/>
<text text-anchor="middle" x="501.1" y="-121.88" font-family="Helvetica,sans-Serif" font-size="10.00">x_z_p_q_r_h_f.hpp</text>
</a>
</g>
</g>
<!-- Node1&#45;&gt;Node11 -->
<g id="edge12_Node000001_Node000011" class="edge">
<title>Node1&#45;&gt;Node11</title>
<g id="a_edge12_Node000001_Node000011"><a xlink:title=" ">
<path fill="none" stroke="#63b8ff" d="M501.1,-176.59C501.1,-167.25 501.1,-156.19 501.1,-146.87"/>
<polygon fill="#63b8ff" stroke="#63b8ff" points="504.6,-147.07 501.1,-137.07 497.6,-147.07 504.6,-147.07"/>
</a>
</g>
</g>
<!-- Node12 -->
<g id="Node000012" class="node">
<title>Node12</title>
<g id="a_Node000012"><a xlink:href="x__z__p__q__r__hh__us__ps_8hpp.xhtml" target="_top" xlink:title=" ">
<polygon fill="white" stroke="#666666" points="832.48,-135.38 707.73,-135.38 707.73,-116.12 832.48,-116.12 832.48,-135.38"/>
<text text-anchor="middle" x="770.1" y="-121.88" font-family="Helvetica,sans-Serif" font-size="10.00">x_z_p_q_r_hh_us_ps.hpp</text>
</a>
</g>
</g>
<!-- Node1&#45;&gt;Node12 -->
<g id="edge14_Node000001_Node000012" class="edge">
<title>Node1&#45;&gt;Node12</title>
<g id="a_edge14_Node000001_Node000012"><a xlink:title=" ">
<path fill="none" stroke="#63b8ff" d="M566.22,-179.9C615.04,-167.17 680.64,-150.07 724.09,-138.74"/>
<polygon fill="#63b8ff" stroke="#63b8ff" points="724.93,-142.14 733.72,-136.23 723.16,-135.37 724.93,-142.14"/>
</a>
</g>
</g>
<!-- Node15 -->
<g id="Node000015" class="node">
<title>Node15</title>
<g id="a_Node000015"><a xlink:href="x__z__p__qq__rr__f_8hpp.xhtml" target="_top" xlink:title=" ">
<polygon fill="white" stroke="#666666" points="944.1,-135.38 850.1,-135.38 850.1,-116.12 944.1,-116.12 944.1,-135.38"/>
<text text-anchor="middle" x="897.1" y="-121.88" font-family="Helvetica,sans-Serif" font-size="10.00">x_z_p_qq_rr_f.hpp</text>
</a>
</g>
</g>
<!-- Node1&#45;&gt;Node15 -->
<g id="edge19_Node000001_Node000015" class="edge">
<title>Node1&#45;&gt;Node15</title>
<g id="a_edge19_Node000001_Node000015"><a xlink:title=" ">
<path fill="none" stroke="#63b8ff" d="M565.96,-187.92C634.6,-178.04 745.95,-160.89 841.1,-141 844.85,-140.22 848.72,-139.35 852.6,-138.44"/>
<polygon fill="#63b8ff" stroke="#63b8ff" points="853.09,-141.93 861.98,-136.17 851.44,-135.12 853.09,-141.93"/>
</a>
</g>
</g>
<!-- Node16 -->
<g id="Node000016" class="node">
<title>Node16</title>
<g id="a_Node000016"><a xlink:href="x__z__p__r_8hpp.xhtml" target="_top" xlink:title=" ">
<polygon fill="white" stroke="#666666" points="246.6,-135.38 179.6,-135.38 179.6,-116.12 246.6,-116.12 246.6,-135.38"/>
<text text-anchor="middle" x="213.1" y="-121.88" font-family="Helvetica,sans-Serif" font-size="10.00">x_z_p_r.hpp</text>
</a>
</g>
</g>
<!-- Node1&#45;&gt;Node16 -->
<g id="edge23_Node000001_Node000016" class="edge">
<title>Node1&#45;&gt;Node16</title>
<g id="a_edge23_Node000001_Node000016"><a xlink:title=" ">
<path fill="none" stroke="#63b8ff" d="M436.16,-184.04C386.29,-173.73 315.9,-158.17 255.1,-141 253.13,-140.44 251.12,-139.85 249.09,-139.23"/>
<polygon fill="#63b8ff" stroke="#63b8ff" points="250.32,-135.95 239.73,-136.23 248.18,-142.62 250.32,-135.95"/>
</a>
</g>
</g>
<!-- Node17 -->
<g id="Node000017" class="node">
<title>Node17</title>
<g id="a_Node000017"><a xlink:href="x__z__p__r__f_8hpp.xhtml" target="_top" xlink:title=" ">
<polygon fill="white" stroke="#666666" points="339.73,-135.38 264.48,-135.38 264.48,-116.12 339.73,-116.12 339.73,-135.38"/>
<text text-anchor="middle" x="302.1" y="-121.88" font-family="Helvetica,sans-Serif" font-size="10.00">x_z_p_r_f.hpp</text>
</a>
</g>
</g>
<!-- Node1&#45;&gt;Node17 -->
<g id="edge25_Node000001_Node000017" class="edge">
<title>Node1&#45;&gt;Node17</title>
<g id="a_edge25_Node000001_Node000017"><a xlink:title=" ">
<path fill="none" stroke="#63b8ff" d="M443.54,-176.59C409.65,-164.65 367.81,-149.9 338.46,-139.56"/>
<polygon fill="#63b8ff" stroke="#63b8ff" points="339.88,-136.35 329.29,-136.33 337.56,-142.95 339.88,-136.35"/>
</a>
</g>
</g>
<!-- Node18 -->
<g id="Node000018" class="node">
<title>Node18</title>
<g id="a_Node000018"><a xlink:href="x__z__u__p__q__r_8hpp.xhtml" target="_top" xlink:title=" ">
<polygon fill="white" stroke="#666666" points="1184.1,-135.38 1096.1,-135.38 1096.1,-116.12 1184.1,-116.12 1184.1,-135.38"/>
<text text-anchor="middle" x="1140.1" y="-121.88" font-family="Helvetica,sans-Serif" font-size="10.00">x_z_u_p_q_r.hpp</text>
</a>
</g>
</g>
<!-- Node1&#45;&gt;Node18 -->
<g id="edge27_Node000001_Node000018" class="edge">
<title>Node1&#45;&gt;Node18</title>
<g id="a_edge27_Node000001_Node000018"><a xlink:title=" ">
<path fill="none" stroke="#63b8ff" d="M566.19,-194.23C674.86,-189.03 899.8,-174.86 1087.1,-141 1090.92,-140.31 1094.87,-139.48 1098.8,-138.57"/>
<polygon fill="#63b8ff" stroke="#63b8ff" points="1099.42,-142.02 1108.28,-136.21 1097.73,-135.23 1099.42,-142.02"/>
</a>
</g>
</g>
<!-- Node19 -->
<g id="Node000019" class="node">
<title>Node19</title>
<g id="a_Node000019"><a xlink:href="x__z__u__p__q__r__f__g__ps_8hpp.xhtml" target="_top" xlink:title=" ">
<polygon fill="white" stroke="#666666" points="689.35,-135.38 566.85,-135.38 566.85,-116.12 689.35,-116.12 689.35,-135.38"/>
<text text-anchor="middle" x="628.1" y="-121.88" font-family="Helvetica,sans-Serif" font-size="10.00">x_z_u_p_q_r_f_g_ps.hpp</text>
</a>
</g>
</g>
<!-- Node1&#45;&gt;Node19 -->
<g id="edge31_Node000001_Node000019" class="edge">
<title>Node1&#45;&gt;Node19</title>
<g id="a_edge31_Node000001_Node000019"><a xlink:title=" ">
<path fill="none" stroke="#63b8ff" d="M537.84,-176.59C558.29,-165.3 583.28,-151.5 601.77,-141.29"/>
<polygon fill="#63b8ff" stroke="#63b8ff" points="603.44,-144.36 610.51,-136.47 600.06,-138.24 603.44,-144.36"/>
</a>
</g>
</g>
<!-- Node20 -->
<g id="Node000020" class="node">
<title>Node20</title>
<g id="a_Node000020"><a xlink:href="x__z__u__p__q__r__h__f__g__us__ps_8hpp.xhtml" target="_top" xlink:title=" ">
<polygon fill="white" stroke="#666666" points="1077.6,-141 962.6,-141 962.6,-110.5 1077.6,-110.5 1077.6,-141"/>
<text text-anchor="start" x="970.6" y="-127.5" font-family="Helvetica,sans-Serif" font-size="10.00">x_z_u_p_q_r_h_f_g_us</text>
<text text-anchor="middle" x="1020.1" y="-116.25" font-family="Helvetica,sans-Serif" font-size="10.00">_ps.hpp</text>
</a>
</g>
</g>
<!-- Node1&#45;&gt;Node20 -->
<g id="edge35_Node000001_Node000020" class="edge">
<title>Node1&#45;&gt;Node20</title>
<g id="a_edge35_Node000001_Node000020"><a xlink:title=" ">
<path fill="none" stroke="#63b8ff" d="M566.1,-190.63C651.91,-181.98 807.88,-164.9 951.24,-141.21"/>
<polygon fill="#63b8ff" stroke="#63b8ff" points="951.64,-144.7 960.93,-139.6 950.49,-137.79 951.64,-144.7"/>
</a>
</g>
</g>
<!-- Node3 -->
<g id="Node000003" class="node">
<title>Node3</title>
<g id="a_Node000003"><a xlink:href="utility_8hpp.xhtml" target="_top" xlink:title=" ">
<polygon fill="white" stroke="#666666" points="529.35,-74.5 472.85,-74.5 472.85,-55.25 529.35,-55.25 529.35,-74.5"/>
<text text-anchor="middle" x="501.1" y="-61" font-family="Helvetica,sans-Serif" font-size="10.00">utility.hpp</text>
</a>
</g>
</g>
<!-- Node2&#45;&gt;Node3 -->
<g id="edge2_Node000002_Node000003" class="edge">
<title>Node2&#45;&gt;Node3</title>
<g id="a_edge2_Node000002_Node000003"><a xlink:title=" ">
<path fill="none" stroke="#63b8ff" d="M80.4,-121.29C155.53,-111.39 371.51,-82.94 461.26,-71.12"/>
<polygon fill="#63b8ff" stroke="#63b8ff" points="461.6,-74.61 471.06,-69.83 460.68,-67.67 461.6,-74.61"/>
</a>
</g>
</g>
<!-- Node2&#45;&gt;Node7 -->
<g id="edge9_Node000002_Node000007" class="edge">
<title>Node2&#45;&gt;Node7</title>
<g id="a_edge9_Node000002_Node000007"><a xlink:title=" ">
<path fill="none" stroke="#63b8ff" d="M39.23,-115.67C19.63,-102.52 -10.72,-77.34 4.1,-55.25 19.06,-32.97 47.32,-21.81 71.32,-16.22"/>
<polygon fill="#63b8ff" stroke="#63b8ff" points="71.75,-19.7 80.84,-14.26 70.34,-12.84 71.75,-19.7"/>
</a>
</g>
</g>
<!-- Node9 -->
<g id="Node000009" class="node">
<title>Node9</title>
<g id="a_Node000009"><a xlink:title=" ">
<polygon fill="#e0e0e0" stroke="#999999" points="84.85,-74.5 13.35,-74.5 13.35,-55.25 84.85,-55.25 84.85,-74.5"/>
<text text-anchor="middle" x="49.1" y="-61" font-family="Helvetica,sans-Serif" font-size="10.00">initializer_list</text>
</a>
</g>
</g>
<!-- Node2&#45;&gt;Node9 -->
<g id="edge8_Node000002_Node000009" class="edge">
<title>Node2&#45;&gt;Node9</title>
<g id="a_edge8_Node000002_Node000009"><a xlink:title=" ">
<path fill="none" stroke="#63b8ff" d="M53.34,-115.81C52.67,-107.94 51.68,-96.2 50.82,-86.07"/>
<polygon fill="#63b8ff" stroke="#63b8ff" points="54.33,-86.08 50,-76.41 47.36,-86.67 54.33,-86.08"/>
</a>
</g>
</g>
<!-- Node3&#45;&gt;Node4 -->
<g id="edge3_Node000003_Node000004" class="edge">
<title>Node3&#45;&gt;Node4</title>
<g id="a_edge3_Node000003_Node000004"><a xlink:title=" ">
<path fill="none" stroke="#63b8ff" d="M472.51,-55.9C439.69,-46.75 385.68,-31.7 349.04,-21.48"/>
<polygon fill="#63b8ff" stroke="#63b8ff" points="350.3,-18.2 339.73,-18.88 348.42,-24.94 350.3,-18.2"/>
</a>
</g>
</g>
<!-- Node5 -->
<g id="Node000005" class="node">
<title>Node5</title>
<g id="a_Node000005"><a xlink:title=" ">
<polygon fill="#e0e0e0" stroke="#999999" points="494.23,-19.25 445.98,-19.25 445.98,0 494.23,0 494.23,-19.25"/>
<text text-anchor="middle" x="470.1" y="-5.75" font-family="Helvetica,sans-Serif" font-size="10.00">cstddef</text>
</a>
</g>
</g>
<!-- Node3&#45;&gt;Node5 -->
<g id="edge4_Node000003_Node000005" class="edge">
<title>Node3&#45;&gt;Node5</title>
<g id="a_edge4_Node000003_Node000005"><a xlink:title=" ">
<path fill="none" stroke="#63b8ff" d="M495.98,-55.08C491.92,-48.11 486.11,-38.12 481.02,-29.37"/>
<polygon fill="#63b8ff" stroke="#63b8ff" points="484.15,-27.8 476.09,-20.92 478.1,-31.32 484.15,-27.8"/>
</a>
</g>
</g>
<!-- Node3&#45;&gt;Node6 -->
<g id="edge5_Node000003_Node000006" class="edge">
<title>Node3&#45;&gt;Node6</title>
<g id="a_edge5_Node000003_Node000006"><a xlink:title=" ">
<path fill="none" stroke="#63b8ff" d="M529.66,-59.52C594.8,-49.58 753.81,-25.32 820.21,-15.19"/>
<polygon fill="#63b8ff" stroke="#63b8ff" points="820.63,-18.66 829.99,-13.69 819.57,-11.74 820.63,-18.66"/>
</a>
</g>
</g>
<!-- Node3&#45;&gt;Node7 -->
<g id="edge6_Node000003_Node000007" class="edge">
<title>Node3&#45;&gt;Node7</title>
<g id="a_edge6_Node000003_Node000007"><a xlink:title=" ">
<path fill="none" stroke="#63b8ff" d="M472.57,-59.96C404.93,-50.68 234.58,-27.3 155.12,-16.39"/>
<polygon fill="#63b8ff" stroke="#63b8ff" points="155.96,-12.97 145.58,-15.08 155.01,-19.91 155.96,-12.97"/>
</a>
</g>
</g>
<!-- Node8 -->
<g id="Node000008" class="node">
<title>Node8</title>
<g id="a_Node000008"><a xlink:title=" ">
<polygon fill="#e0e0e0" stroke="#999999" points="550.35,-19.25 511.85,-19.25 511.85,0 550.35,0 550.35,-19.25"/>
<text text-anchor="middle" x="531.1" y="-5.75" font-family="Helvetica,sans-Serif" font-size="10.00">utility</text>
</a>
</g>
</g>
<!-- Node3&#45;&gt;Node8 -->
<g id="edge7_Node000003_Node000008" class="edge">
<title>Node3&#45;&gt;Node8</title>
<g id="a_edge7_Node000003_Node000008"><a xlink:title=" ">
<path fill="none" stroke="#63b8ff" d="M506.06,-55.08C509.98,-48.11 515.61,-38.12 520.54,-29.37"/>
<polygon fill="#63b8ff" stroke="#63b8ff" points="523.44,-31.36 525.3,-20.93 517.34,-27.92 523.44,-31.36"/>
</a>
</g>
</g>
<!-- Node10&#45;&gt;Node3 -->
<g id="edge11_Node000010_Node000003" class="edge">
<title>Node10&#45;&gt;Node3</title>
<g id="a_edge11_Node000010_Node000003"><a xlink:title=" ">
<path fill="none" stroke="#63b8ff" d="M412.05,-115.81C428.78,-106.43 455.34,-91.54 475.1,-80.45"/>
<polygon fill="#63b8ff" stroke="#63b8ff" points="476.67,-83.58 483.68,-75.64 473.25,-77.48 476.67,-83.58"/>
</a>
</g>
</g>
<!-- Node11&#45;&gt;Node3 -->
<g id="edge13_Node000011_Node000003" class="edge">
<title>Node11&#45;&gt;Node3</title>
<g id="a_edge13_Node000011_Node000003"><a xlink:title=" ">
<path fill="none" stroke="#63b8ff" d="M501.1,-115.81C501.1,-108.03 501.1,-96.45 501.1,-86.41"/>
<polygon fill="#63b8ff" stroke="#63b8ff" points="504.6,-86.41 501.1,-76.41 497.6,-86.41 504.6,-86.41"/>
</a>
</g>
</g>
<!-- Node12&#45;&gt;Node3 -->
<g id="edge17_Node000012_Node000003" class="edge">
<title>Node12&#45;&gt;Node3</title>
<g id="a_edge17_Node000012_Node000003"><a xlink:title=" ">
<path fill="none" stroke="#63b8ff" d="M728.66,-115.68C677.53,-104.49 591.19,-85.59 540.85,-74.57"/>
<polygon fill="#63b8ff" stroke="#63b8ff" points="541.77,-71.19 531.25,-72.47 540.27,-78.03 541.77,-71.19"/>
</a>
</g>
</g>
<!-- Node12&#45;&gt;Node6 -->
<g id="edge18_Node000012_Node000006" class="edge">
<title>Node12&#45;&gt;Node6</title>
<g id="a_edge18_Node000012_Node000006"><a xlink:title=" ">
<path fill="none" stroke="#63b8ff" d="M776.38,-115.79C789.47,-97.13 819.88,-53.73 837.28,-28.91"/>
<polygon fill="#63b8ff" stroke="#63b8ff" points="840.11,-30.98 842.99,-20.78 834.38,-26.96 840.11,-30.98"/>
</a>
</g>
</g>
<!-- Node13 -->
<g id="Node000013" class="node">
<title>Node13</title>
<g id="a_Node000013"><a xlink:href="function_8hpp.xhtml" target="_top" xlink:title=" ">
<polygon fill="white" stroke="#666666" points="946.35,-74.5 877.85,-74.5 877.85,-55.25 946.35,-55.25 946.35,-74.5"/>
<text text-anchor="middle" x="912.1" y="-61" font-family="Helvetica,sans-Serif" font-size="10.00">function.hpp</text>
</a>
</g>
</g>
<!-- Node12&#45;&gt;Node13 -->
<g id="edge15_Node000012_Node000013" class="edge">
<title>Node12&#45;&gt;Node13</title>
<g id="a_edge15_Node000012_Node000013"><a xlink:title=" ">
<path fill="none" stroke="#63b8ff" d="M791.98,-115.68C815.5,-105.93 853.13,-90.33 880,-79.18"/>
<polygon fill="#63b8ff" stroke="#63b8ff" points="881.14,-82.5 889.04,-75.44 878.46,-76.04 881.14,-82.5"/>
</a>
</g>
</g>
<!-- Node14 -->
<g id="Node000014" class="node">
<title>Node14</title>
<g id="a_Node000014"><a xlink:title=" ">
<polygon fill="#e0e0e0" stroke="#999999" points="937.35,-19.25 886.85,-19.25 886.85,0 937.35,0 937.35,-19.25"/>
<text text-anchor="middle" x="912.1" y="-5.75" font-family="Helvetica,sans-Serif" font-size="10.00">memory</text>
</a>
</g>
</g>
<!-- Node13&#45;&gt;Node14 -->
<g id="edge16_Node000013_Node000014" class="edge">
<title>Node13&#45;&gt;Node14</title>
<g id="a_edge16_Node000013_Node000014"><a xlink:title=" ">
<path fill="none" stroke="#63b8ff" d="M912.1,-55.08C912.1,-48.57 912.1,-39.42 912.1,-31.12"/>
<polygon fill="#63b8ff" stroke="#63b8ff" points="915.6,-31.12 912.1,-21.12 908.6,-31.12 915.6,-31.12"/>
</a>
</g>
</g>
<!-- Node15&#45;&gt;Node3 -->
<g id="edge21_Node000015_Node000003" class="edge">
<title>Node15&#45;&gt;Node3</title>
<g id="a_edge21_Node000015_Node000003"><a xlink:title=" ">
<path fill="none" stroke="#63b8ff" d="M864.08,-115.66C856.57,-113.78 848.59,-111.94 841.1,-110.5 733.23,-89.77 604.23,-75.74 540.59,-69.52"/>
<polygon fill="#63b8ff" stroke="#63b8ff" points="541.29,-66.07 531,-68.6 540.62,-73.04 541.29,-66.07"/>
</a>
</g>
</g>
<!-- Node15&#45;&gt;Node6 -->
<g id="edge22_Node000015_Node000006" class="edge">
<title>Node15&#45;&gt;Node6</title>
<g id="a_edge22_Node000015_Node000006"><a xlink:title=" ">
<path fill="none" stroke="#63b8ff" d="M891.32,-115.79C885.16,-105.97 875.46,-89.59 869.1,-74.5 863.04,-60.12 858.09,-43.16 854.77,-30.33"/>
<polygon fill="#63b8ff" stroke="#63b8ff" points="858.25,-29.85 852.46,-20.98 851.46,-31.53 858.25,-29.85"/>
</a>
</g>
</g>
<!-- Node15&#45;&gt;Node13 -->
<g id="edge20_Node000015_Node000013" class="edge">
<title>Node15&#45;&gt;Node13</title>
<g id="a_edge20_Node000015_Node000013"><a xlink:title=" ">
<path fill="none" stroke="#63b8ff" d="M899.38,-115.81C901.41,-107.85 904.44,-95.94 907.04,-85.74"/>
<polygon fill="#63b8ff" stroke="#63b8ff" points="910.35,-86.92 909.43,-76.37 903.57,-85.19 910.35,-86.92"/>
</a>
</g>
</g>
<!-- Node16&#45;&gt;Node3 -->
<g id="edge24_Node000016_Node000003" class="edge">
<title>Node16&#45;&gt;Node3</title>
<g id="a_edge24_Node000016_Node000003"><a xlink:title=" ">
<path fill="none" stroke="#63b8ff" d="M237.79,-115.7C243.43,-113.82 249.44,-111.97 255.1,-110.5 326.72,-91.96 412.03,-78.33 461.04,-71.28"/>
<polygon fill="#63b8ff" stroke="#63b8ff" points="461.49,-74.76 470.9,-69.89 460.51,-67.83 461.49,-74.76"/>
</a>
</g>
</g>
<!-- Node17&#45;&gt;Node3 -->
<g id="edge26_Node000017_Node000003" class="edge">
<title>Node17&#45;&gt;Node3</title>
<g id="a_edge26_Node000017_Node000003"><a xlink:title=" ">
<path fill="none" stroke="#63b8ff" d="M331.28,-115.63C336.86,-113.91 342.66,-112.14 348.1,-110.5 386.69,-98.9 430.88,-86.06 461.82,-77.14"/>
<polygon fill="#63b8ff" stroke="#63b8ff" points="462.48,-80.59 471.13,-74.46 460.55,-73.86 462.48,-80.59"/>
</a>
</g>
</g>
<!-- Node18&#45;&gt;Node3 -->
<g id="edge29_Node000018_Node000003" class="edge">
<title>Node18&#45;&gt;Node3</title>
<g id="a_edge29_Node000018_Node000003"><a xlink:title=" ">
<path fill="none" stroke="#63b8ff" d="M1110.05,-115.63C1102.61,-113.66 1094.62,-111.78 1087.1,-110.5 883.84,-75.75 636.28,-68.05 541.06,-66.36"/>
<polygon fill="#63b8ff" stroke="#63b8ff" points="541.26,-62.86 531.2,-66.19 541.14,-69.86 541.26,-62.86"/>
</a>
</g>
</g>
<!-- Node18&#45;&gt;Node6 -->
<g id="edge30_Node000018_Node000006" class="edge">
<title>Node18&#45;&gt;Node6</title>
<g id="a_edge30_Node000018_Node000006"><a xlink:title=" ">
<path fill="none" stroke="#63b8ff" d="M1120.6,-115.68C1090.68,-101.91 1031.49,-75.19 980.1,-55.25 946,-42.01 906.12,-28.63 879.61,-20.02"/>
<polygon fill="#63b8ff" stroke="#63b8ff" points="880.82,-16.73 870.22,-16.99 878.67,-23.39 880.82,-16.73"/>
</a>
</g>
</g>
<!-- Node18&#45;&gt;Node13 -->
<g id="edge28_Node000018_Node000013" class="edge">
<title>Node18&#45;&gt;Node13</title>
<g id="a_edge28_Node000018_Node000013"><a xlink:title=" ">
<path fill="none" stroke="#63b8ff" d="M1106.48,-115.64C1100.05,-113.92 1093.37,-112.14 1087.1,-110.5 1043.18,-98.99 992.94,-86.22 957.6,-77.3"/>
<polygon fill="#63b8ff" stroke="#63b8ff" points="958.69,-73.97 948.14,-74.92 956.98,-80.76 958.69,-73.97"/>
</a>
</g>
</g>
<!-- Node19&#45;&gt;Node3 -->
<g id="edge33_Node000019_Node000003" class="edge">
<title>Node19&#45;&gt;Node3</title>
<g id="a_edge33_Node000019_Node000003"><a xlink:title=" ">
<path fill="none" stroke="#63b8ff" d="M608.54,-115.68C587.78,-106.06 554.74,-90.74 530.78,-79.63"/>
<polygon fill="#63b8ff" stroke="#63b8ff" points="532.4,-76.53 521.85,-75.5 529.46,-82.88 532.4,-76.53"/>
</a>
</g>
</g>
<!-- Node19&#45;&gt;Node6 -->
<g id="edge34_Node000019_Node000006" class="edge">
<title>Node19&#45;&gt;Node6</title>
<g id="a_edge34_Node000019_Node000006"><a xlink:title=" ">
<path fill="none" stroke="#63b8ff" d="M645.52,-115.79C683.93,-96.05 776.14,-48.65 822.5,-24.81"/>
<polygon fill="#63b8ff" stroke="#63b8ff" points="823.82,-28.07 831.11,-20.39 820.62,-21.85 823.82,-28.07"/>
</a>
</g>
</g>
<!-- Node19&#45;&gt;Node13 -->
<g id="edge32_Node000019_Node000013" class="edge">
<title>Node19&#45;&gt;Node13</title>
<g id="a_edge32_Node000019_Node000013"><a xlink:title=" ">
<path fill="none" stroke="#63b8ff" d="M671.86,-115.68C724.62,-104.74 812.88,-86.44 866.47,-75.33"/>
<polygon fill="#63b8ff" stroke="#63b8ff" points="867.12,-78.77 876.2,-73.32 865.7,-71.92 867.12,-78.77"/>
</a>
</g>
</g>
<!-- Node20&#45;&gt;Node3 -->
<g id="edge37_Node000020_Node000003" class="edge">
<title>Node20&#45;&gt;Node3</title>
<g id="a_edge37_Node000020_Node000003"><a xlink:title=" ">
<path fill="none" stroke="#63b8ff" d="M962.43,-112.06C959.28,-111.5 956.16,-110.97 953.1,-110.5 801.91,-87.03 620.23,-73.5 541.15,-68.33"/>
<polygon fill="#63b8ff" stroke="#63b8ff" points="541.51,-64.84 531.31,-67.69 541.06,-71.83 541.51,-64.84"/>
</a>
</g>
</g>
<!-- Node20&#45;&gt;Node6 -->
<g id="edge38_Node000020_Node000006" class="edge">
<title>Node20&#45;&gt;Node6</title>
<g id="a_edge38_Node000020_Node000006"><a xlink:title=" ">
<path fill="none" stroke="#63b8ff" d="M1009.34,-110.01C997.49,-94.64 977.17,-70.68 955.1,-55.25 942.39,-46.36 905.93,-31.64 879.54,-21.56"/>
<polygon fill="#63b8ff" stroke="#63b8ff" points="880.95,-18.35 870.36,-18.09 878.47,-24.9 880.95,-18.35"/>
</a>
</g>
</g>
<!-- Node20&#45;&gt;Node13 -->
<g id="edge36_Node000020_Node000013" class="edge">
<title>Node20&#45;&gt;Node13</title>
<g id="a_edge36_Node000020_Node000013"><a xlink:title=" ">
<path fill="none" stroke="#63b8ff" d="M993.13,-110.05C976.52,-100.99 955.32,-89.44 938.77,-80.41"/>
<polygon fill="#63b8ff" stroke="#63b8ff" points="940.45,-77.34 929.99,-75.63 937.1,-83.49 940.45,-77.34"/>
</a>
</g>
</g>
</g>
</svg>

<g id="navigator" transform="translate(0 0)" fill="#404254">
  <rect fill="#f2f5e9" fill-opacity="0.5" stroke="#606060" stroke-width=".5" x="0" y="0" width="60" height="60"/>
  <use id="zoomplus" xlink:href="#zoomPlus" x="17" y="9" onmousedown="handleZoom(evt,'in')"/>
  <use id="zoomminus" xlink:href="#zoomMin" x="42" y="9" onmousedown="handleZoom(evt,'out')"/>
  <use id="reset" xlink:href="#resetDef" x="30" y="36" onmousedown="handleReset()"/>
   <use id="arrowup" xlink:href="#arrowUp" x="0" y="0" onmousedown="handlePan(0,-1)"/>
  <use id="arrowright" xlink:href="#arrowRight" x="0" y="0" onmousedown="handlePan(1,0)"/>
  <use id="arrowdown" xlink:href="#arrowDown" x="0" y="0" onmousedown="handlePan(0,1)"/>
  <use id="arrowleft" xlink:href="#arrowLeft" x="0" y="0" onmousedown="handlePan(-1,0)"/>
</g>
<svg viewBox="0 0 15 15" width="100%" height="30px" preserveAspectRatio="xMaxYMin meet">
 <g id="arrow_out" transform="scale(0.3 0.3)">
  <a xlink:href="factory_8hpp__incl_org.svg" target="_base">
   <rect id="button" ry="5" rx="5" y="6" x="6" height="38" width="38"
        fill="#f2f5e9" fill-opacity="0.5" stroke="#606060" stroke-width="1.0"/>
   <path id="arrow"
     d="M 11.500037,31.436501 C 11.940474,20.09759 22.043105,11.32322 32.158766,21.979434 L 37.068811,17.246167 C 37.068811,17.246167 37.088388,32 37.088388,32 L 22.160133,31.978069 C 22.160133,31.978069 26.997745,27.140456 26.997745,27.140456 C 18.528582,18.264221 13.291696,25.230495 11.500037,31.436501 z"
     style="fill:#404040;"/>
  </a>
 </g>
</svg>

<style type='text/css'>
<![CDATA[
[data-mouse-over-selected='false'] { opacity: 0.7; }
[data-mouse-over-selected='true']  { opacity: 1.0; }
]]>
</style>
<script type="application/ecmascript"><![CDATA[
document.addEventListener('DOMContentLoaded', (event) => {
  highlightEdges();
  highlightAdjacentNodes();
});
]]></script>
</svg>
