<?xml version="1.0" encoding="UTF-8" standalone="no"?>
<!DOCTYPE svg PUBLIC "-//W3C//DTD SVG 1.1//EN"
 "http://www.w3.org/Graphics/SVG/1.1/DTD/svg11.dtd">
<!-- Generated by graphviz version 9.0.0 (20230911.1827)
 -->
<!-- Title: /github/workspace/include/fcarouge/internal/factory.hpp Pages: 1 -->
<svg width="5049pt" height="183pt"
 viewBox="0.00 0.00 5048.75 182.75" xmlns="http://www.w3.org/2000/svg" xmlns:xlink="http://www.w3.org/1999/xlink">
<g id="graph0" class="graph" transform="scale(1 1) rotate(0) translate(4 178.75)">
<title>/github/workspace/include/fcarouge/internal/factory.hpp</title>
<!-- Node1 -->
<g id="Node000001" class="node">
<title>Node1</title>
<g id="a_Node000001"><a xlink:title=" ">
<polygon fill="#999999" stroke="#666666" points="2703.88,-174.75 2562.62,-174.75 2562.62,-144.25 2703.88,-144.25 2703.88,-174.75"/>
<text text-anchor="start" x="2570.62" y="-161.25" font-family="Helvetica,sans-Serif" font-size="10.00">/github/workspace/include</text>
<text text-anchor="middle" x="2633.25" y="-150" font-family="Helvetica,sans-Serif" font-size="10.00">/fcarouge/internal/factory.hpp</text>
</a>
</g>
</g>
<!-- Node2 -->
<g id="Node000002" class="node">
<title>Node2</title>
<g id="a_Node000002"><a xlink:href="kalman_8hpp.xhtml" target="_top" xlink:title="The Kalman filter class and library top&#45;level header.">
<polygon fill="white" stroke="#666666" points="2697.88,-108.25 2568.62,-108.25 2568.62,-77.75 2697.88,-77.75 2697.88,-108.25"/>
<text text-anchor="start" x="2576.62" y="-94.75" font-family="Helvetica,sans-Serif" font-size="10.00">/github/workspace/include</text>
<text text-anchor="middle" x="2633.25" y="-83.5" font-family="Helvetica,sans-Serif" font-size="10.00">/fcarouge/kalman.hpp</text>
</a>
</g>
</g>
<!-- Node1&#45;&gt;Node2 -->
<g id="edge1_Node000001_Node000002" class="edge">
<title>Node1&#45;&gt;Node2</title>
<g id="a_edge1_Node000001_Node000002"><a xlink:title=" ">
<path fill="none" stroke="#63b8ff" d="M2633.25,-132.56C2633.25,-124.39 2633.25,-115.66 2633.25,-108.58"/>
<polygon fill="#63b8ff" stroke="#63b8ff" points="2629.75,-132.35 2633.25,-142.35 2636.75,-132.35 2629.75,-132.35"/>
</a>
</g>
</g>
<!-- Node3 -->
<g id="Node000003" class="node">
<title>Node3</title>
<g id="a_Node000003"><a xlink:href="predict__1x1x0_8cpp.xhtml" target="_top" xlink:title=" ">
<polygon fill="white" stroke="#666666" points="146.5,-36.12 0,-36.12 0,-5.62 146.5,-5.62 146.5,-36.12"/>
<text text-anchor="start" x="8" y="-22.62" font-family="Helvetica,sans-Serif" font-size="10.00">/github/workspace/benchmark</text>
<text text-anchor="middle" x="73.25" y="-11.38" font-family="Helvetica,sans-Serif" font-size="10.00">/predict_1x1x0.cpp</text>
</a>
</g>
</g>
<!-- Node2&#45;&gt;Node3 -->
<g id="edge2_Node000002_Node000003" class="edge">
<title>Node2&#45;&gt;Node3</title>
<g id="a_edge2_Node000002_Node000003"><a xlink:title=" ">
<path fill="none" stroke="#63b8ff" d="M2556.75,-91.43C2165.68,-88.36 398.84,-72.89 156.25,-41.75 146.84,-40.54 136.95,-38.7 127.41,-36.61"/>
<polygon fill="#63b8ff" stroke="#63b8ff" points="2556.65,-94.93 2566.68,-91.5 2556.7,-87.93 2556.65,-94.93"/>
</a>
</g>
</g>
<!-- Node4 -->
<g id="Node000004" class="node">
<title>Node4</title>
<g id="a_Node000004"><a xlink:href="predict__1x1x1_8cpp.xhtml" target="_top" xlink:title=" ">
<polygon fill="white" stroke="#666666" points="311.5,-36.12 165,-36.12 165,-5.62 311.5,-5.62 311.5,-36.12"/>
<text text-anchor="start" x="173" y="-22.62" font-family="Helvetica,sans-Serif" font-size="10.00">/github/workspace/benchmark</text>
<text text-anchor="middle" x="238.25" y="-11.38" font-family="Helvetica,sans-Serif" font-size="10.00">/predict_1x1x1.cpp</text>
</a>
</g>
</g>
<!-- Node2&#45;&gt;Node4 -->
<g id="edge3_Node000002_Node000004" class="edge">
<title>Node2&#45;&gt;Node4</title>
<g id="a_edge3_Node000002_Node000004"><a xlink:title=" ">
<path fill="none" stroke="#63b8ff" d="M2556.76,-91.31C2181.78,-87.78 546.63,-70.84 321.25,-41.75 311.85,-40.54 301.96,-38.69 292.41,-36.6"/>
<polygon fill="#63b8ff" stroke="#63b8ff" points="2556.72,-94.81 2566.75,-91.4 2556.79,-87.81 2556.72,-94.81"/>
</a>
</g>
</g>
<!-- Node5 -->
<g id="Node000005" class="node">
<title>Node5</title>
<g id="a_Node000005"><a xlink:href="predict__linalg__x1x_8cpp.xhtml" target="_top" xlink:title=" ">
<polygon fill="white" stroke="#666666" points="476.5,-36.12 330,-36.12 330,-5.62 476.5,-5.62 476.5,-36.12"/>
<text text-anchor="start" x="338" y="-22.62" font-family="Helvetica,sans-Serif" font-size="10.00">/github/workspace/benchmark</text>
<text text-anchor="middle" x="403.25" y="-11.38" font-family="Helvetica,sans-Serif" font-size="10.00">/predict_linalg_x1x.cpp</text>
</a>
</g>
</g>
<!-- Node2&#45;&gt;Node5 -->
<g id="edge4_Node000002_Node000005" class="edge">
<title>Node2&#45;&gt;Node5</title>
<g id="a_edge4_Node000002_Node000005"><a xlink:title=" ">
<path fill="none" stroke="#63b8ff" d="M2556.72,-92.38C2223.66,-93.69 898.81,-95.36 486.25,-41.75 476.85,-40.53 466.96,-38.67 457.41,-36.58"/>
<polygon fill="#63b8ff" stroke="#63b8ff" points="2556.64,-95.88 2566.63,-92.34 2556.61,-88.88 2556.64,-95.88"/>
</a>
</g>
</g>
<!-- Node6 -->
<g id="Node000006" class="node">
<title>Node6</title>
<g id="a_Node000006"><a xlink:href="update__1x1x0_8cpp.xhtml" target="_top" xlink:title=" ">
<polygon fill="white" stroke="#666666" points="641.5,-36.12 495,-36.12 495,-5.62 641.5,-5.62 641.5,-36.12"/>
<text text-anchor="start" x="503" y="-22.62" font-family="Helvetica,sans-Serif" font-size="10.00">/github/workspace/benchmark</text>
<text text-anchor="middle" x="568.25" y="-11.38" font-family="Helvetica,sans-Serif" font-size="10.00">/update_1x1x0.cpp</text>
</a>
</g>
</g>
<!-- Node2&#45;&gt;Node6 -->
<g id="edge5_Node000002_Node000006" class="edge">
<title>Node2&#45;&gt;Node6</title>
<g id="a_edge5_Node000002_Node000006"><a xlink:title=" ">
<path fill="none" stroke="#63b8ff" d="M2557.2,-92.2C2241.09,-92.71 1029.89,-91.33 651.25,-41.75 641.85,-40.52 631.96,-38.66 622.41,-36.57"/>
<polygon fill="#63b8ff" stroke="#63b8ff" points="2557,-95.7 2566.99,-92.18 2556.99,-88.7 2557,-95.7"/>
</a>
</g>
</g>
<!-- Node7 -->
<g id="Node000007" class="node">
<title>Node7</title>
<g id="a_Node000007"><a xlink:href="update__1x1x1_8cpp.xhtml" target="_top" xlink:title=" ">
<polygon fill="white" stroke="#666666" points="806.5,-36.12 660,-36.12 660,-5.62 806.5,-5.62 806.5,-36.12"/>
<text text-anchor="start" x="668" y="-22.62" font-family="Helvetica,sans-Serif" font-size="10.00">/github/workspace/benchmark</text>
<text text-anchor="middle" x="733.25" y="-11.38" font-family="Helvetica,sans-Serif" font-size="10.00">/update_1x1x1.cpp</text>
</a>
</g>
</g>
<!-- Node2&#45;&gt;Node7 -->
<g id="edge6_Node000002_Node000007" class="edge">
<title>Node2&#45;&gt;Node7</title>
<g id="a_edge6_Node000002_Node000007"><a xlink:title=" ">
<path fill="none" stroke="#63b8ff" d="M2557.17,-92C2257.85,-91.66 1160.85,-87.27 816.25,-41.75 806.85,-40.51 796.96,-38.64 787.42,-36.55"/>
<polygon fill="#63b8ff" stroke="#63b8ff" points="2556.8,-95.5 2566.81,-92.01 2556.81,-88.5 2556.8,-95.5"/>
</a>
</g>
</g>
<!-- Node8 -->
<g id="Node000008" class="node">
<title>Node8</title>
<g id="a_Node000008"><a xlink:href="update__linalg__xx0_8cpp.xhtml" target="_top" xlink:title=" ">
<polygon fill="white" stroke="#666666" points="971.5,-36.12 825,-36.12 825,-5.62 971.5,-5.62 971.5,-36.12"/>
<text text-anchor="start" x="833" y="-22.62" font-family="Helvetica,sans-Serif" font-size="10.00">/github/workspace/benchmark</text>
<text text-anchor="middle" x="898.25" y="-11.38" font-family="Helvetica,sans-Serif" font-size="10.00">/update_linalg_xx0.cpp</text>
</a>
</g>
</g>
<!-- Node2&#45;&gt;Node8 -->
<g id="edge7_Node000002_Node000008" class="edge">
<title>Node2&#45;&gt;Node8</title>
<g id="a_edge7_Node000002_Node000008"><a xlink:title=" ">
<path fill="none" stroke="#63b8ff" d="M2557.13,-91.78C2275.26,-90.64 1291.06,-83.68 980.25,-41.75 970.96,-40.5 961.19,-38.63 951.76,-36.53"/>
<polygon fill="#63b8ff" stroke="#63b8ff" points="2556.92,-95.28 2566.93,-91.82 2556.95,-88.28 2556.92,-95.28"/>
</a>
</g>
</g>
<!-- Node9 -->
<g id="Node000009" class="node">
<title>Node9</title>
<g id="a_Node000009"><a xlink:href="ekf__4x1x0__soaring_8cpp.xhtml" target="_top" xlink:title=" ">
<polygon fill="white" stroke="#666666" points="1119.25,-36.12 989.25,-36.12 989.25,-5.62 1119.25,-5.62 1119.25,-36.12"/>
<text text-anchor="start" x="997.25" y="-22.62" font-family="Helvetica,sans-Serif" font-size="10.00">/github/workspace/sample</text>
<text text-anchor="middle" x="1054.25" y="-11.38" font-family="Helvetica,sans-Serif" font-size="10.00">/ekf_4x1x0_soaring.cpp</text>
</a>
</g>
</g>
<!-- Node2&#45;&gt;Node9 -->
<g id="edge8_Node000002_Node000009" class="edge">
<title>Node2&#45;&gt;Node9</title>
<g id="a_edge8_Node000002_Node000009"><a xlink:title=" ">
<path fill="none" stroke="#63b8ff" d="M2556.92,-91.76C2291.28,-90.56 1408.2,-83.45 1128.25,-41.75 1119.83,-40.5 1110.99,-38.63 1102.48,-36.53"/>
<polygon fill="#63b8ff" stroke="#63b8ff" points="2556.83,-95.26 2566.84,-91.8 2556.86,-88.26 2556.83,-95.26"/>
</a>
</g>
</g>
<!-- Node10 -->
<g id="Node000010" class="node">
<title>Node10</title>
<g id="a_Node000010"><a xlink:href="kf__1x1x0__building__height_8cpp.xhtml" target="_top" xlink:title=" ">
<polygon fill="white" stroke="#666666" points="1282.75,-36.12 1137.75,-36.12 1137.75,-5.62 1282.75,-5.62 1282.75,-36.12"/>
<text text-anchor="start" x="1145.75" y="-22.62" font-family="Helvetica,sans-Serif" font-size="10.00">/github/workspace/sample</text>
<text text-anchor="middle" x="1210.25" y="-11.38" font-family="Helvetica,sans-Serif" font-size="10.00">/kf_1x1x0_building_height.cpp</text>
</a>
</g>
</g>
<!-- Node2&#45;&gt;Node10 -->
<g id="edge9_Node000002_Node000010" class="edge">
<title>Node2&#45;&gt;Node10</title>
<g id="a_edge9_Node000002_Node000010"><a xlink:title=" ">
<path fill="none" stroke="#63b8ff" d="M2557.1,-91.15C2311.08,-88.1 1539.29,-75.97 1292.25,-41.75 1283.11,-40.48 1273.5,-38.64 1264.21,-36.57"/>
<polygon fill="#63b8ff" stroke="#63b8ff" points="2556.86,-94.65 2566.9,-91.27 2556.94,-87.65 2556.86,-94.65"/>
</a>
</g>
</g>
<!-- Node11 -->
<g id="Node000011" class="node">
<title>Node11</title>
<g id="a_Node000011"><a xlink:href="kf__1x1x0__liquid__temperature_8cpp.xhtml" target="_top" xlink:title=" ">
<polygon fill="white" stroke="#666666" points="1461.25,-36.12 1301.25,-36.12 1301.25,-5.62 1461.25,-5.62 1461.25,-36.12"/>
<text text-anchor="start" x="1309.25" y="-22.62" font-family="Helvetica,sans-Serif" font-size="10.00">/github/workspace/sample</text>
<text text-anchor="middle" x="1381.25" y="-11.38" font-family="Helvetica,sans-Serif" font-size="10.00">/kf_1x1x0_liquid_temperature.cpp</text>
</a>
</g>
</g>
<!-- Node2&#45;&gt;Node11 -->
<g id="edge10_Node000002_Node000011" class="edge">
<title>Node2&#45;&gt;Node11</title>
<g id="a_edge10_Node000002_Node000011"><a xlink:title=" ">
<path fill="none" stroke="#63b8ff" d="M2557.14,-90.47C2333.6,-85.69 1681.46,-69.67 1470.25,-41.75 1460.52,-40.46 1450.28,-38.63 1440.35,-36.6"/>
<polygon fill="#63b8ff" stroke="#63b8ff" points="2556.83,-93.96 2566.9,-90.67 2556.97,-86.96 2556.83,-93.96"/>
</a>
</g>
</g>
<!-- Node12 -->
<g id="Node000012" class="node">
<title>Node12</title>
<g id="a_Node000012"><a xlink:href="kf__1x1x1__dog__position_8cpp.xhtml" target="_top" xlink:title=" ">
<polygon fill="white" stroke="#666666" points="1614.88,-36.12 1479.62,-36.12 1479.62,-5.62 1614.88,-5.62 1614.88,-36.12"/>
<text text-anchor="start" x="1487.62" y="-22.62" font-family="Helvetica,sans-Serif" font-size="10.00">/github/workspace/sample</text>
<text text-anchor="middle" x="1547.25" y="-11.38" font-family="Helvetica,sans-Serif" font-size="10.00">/kf_1x1x1_dog_position.cpp</text>
</a>
</g>
</g>
<!-- Node2&#45;&gt;Node12 -->
<g id="edge11_Node000002_Node000012" class="edge">
<title>Node2&#45;&gt;Node12</title>
<g id="a_edge11_Node000002_Node000012"><a xlink:title=" ">
<path fill="none" stroke="#63b8ff" d="M2556.9,-90.2C2353.86,-85.11 1803.91,-69.12 1624.25,-41.75 1615.79,-40.46 1606.91,-38.63 1598.31,-36.6"/>
<polygon fill="#63b8ff" stroke="#63b8ff" points="2556.73,-93.7 2566.81,-90.45 2556.9,-86.7 2556.73,-93.7"/>
</a>
</g>
</g>
<!-- Node13 -->
<g id="Node000013" class="node">
<title>Node13</title>
<g id="a_Node000013"><a xlink:href="kf__2x1x1__rocket__altitude_8cpp.xhtml" target="_top" xlink:title=" ">
<polygon fill="white" stroke="#666666" points="1777.38,-36.12 1633.12,-36.12 1633.12,-5.62 1777.38,-5.62 1777.38,-36.12"/>
<text text-anchor="start" x="1641.12" y="-22.62" font-family="Helvetica,sans-Serif" font-size="10.00">/github/workspace/sample</text>
<text text-anchor="middle" x="1705.25" y="-11.38" font-family="Helvetica,sans-Serif" font-size="10.00">/kf_2x1x1_rocket_altitude.cpp</text>
</a>
</g>
</g>
<!-- Node2&#45;&gt;Node13 -->
<g id="edge12_Node000002_Node000013" class="edge">
<title>Node2&#45;&gt;Node13</title>
<g id="a_edge12_Node000002_Node000013"><a xlink:title=" ">
<path fill="none" stroke="#63b8ff" d="M2557.03,-92.09C2408.07,-91.25 2068.21,-84.35 1786.25,-41.75 1777.52,-40.43 1768.35,-38.61 1759.44,-36.61"/>
<polygon fill="#63b8ff" stroke="#63b8ff" points="2556.75,-95.59 2566.77,-92.14 2556.78,-88.59 2556.75,-95.59"/>
</a>
</g>
</g>
<!-- Node14 -->
<g id="Node000014" class="node">
<title>Node14</title>
<g id="a_Node000014"><a xlink:href="kf__6x2x0__vehicle__location_8cpp.xhtml" target="_top" xlink:title=" ">
<polygon fill="white" stroke="#666666" points="1945.38,-36.12 1795.12,-36.12 1795.12,-5.62 1945.38,-5.62 1945.38,-36.12"/>
<text text-anchor="start" x="1803.12" y="-22.62" font-family="Helvetica,sans-Serif" font-size="10.00">/github/workspace/sample</text>
<text text-anchor="middle" x="1870.25" y="-11.38" font-family="Helvetica,sans-Serif" font-size="10.00">/kf_6x2x0_vehicle_location.cpp</text>
</a>
</g>
</g>
<!-- Node2&#45;&gt;Node14 -->
<g id="edge13_Node000002_Node000014" class="edge">
<title>Node2&#45;&gt;Node14</title>
<g id="a_edge13_Node000002_Node000014"><a xlink:title=" ">
<path fill="none" stroke="#63b8ff" d="M2556.84,-90.29C2430.69,-86.58 2171.19,-75.23 1954.25,-41.75 1945.36,-40.38 1936.03,-38.56 1926.94,-36.58"/>
<polygon fill="#63b8ff" stroke="#63b8ff" points="2556.66,-93.78 2566.75,-90.57 2556.86,-86.79 2556.66,-93.78"/>
</a>
</g>
</g>
<!-- Node15 -->
<g id="Node000015" class="node">
<title>Node15</title>
<g id="a_Node000015"><a xlink:href="kf__8x4x0__deep__sort__bounding__box_8cpp.xhtml" target="_top" xlink:title=" ">
<polygon fill="white" stroke="#666666" points="2113,-41.75 1963.5,-41.75 1963.5,0 2113,0 2113,-41.75"/>
<text text-anchor="start" x="1971.5" y="-28.25" font-family="Helvetica,sans-Serif" font-size="10.00">/github/workspace/sample</text>
<text text-anchor="start" x="1971.5" y="-17" font-family="Helvetica,sans-Serif" font-size="10.00">/kf_8x4x0_deep_sort_bounding</text>
<text text-anchor="middle" x="2038.25" y="-5.75" font-family="Helvetica,sans-Serif" font-size="10.00">_box.cpp</text>
</a>
</g>
</g>
<!-- Node2&#45;&gt;Node15 -->
<g id="edge14_Node000002_Node000015" class="edge">
<title>Node2&#45;&gt;Node15</title>
<g id="a_edge14_Node000002_Node000015"><a xlink:title=" ">
<path fill="none" stroke="#63b8ff" d="M2557.13,-87.72C2456.92,-81.35 2275.5,-67.3 2122.25,-41.75 2119.29,-41.26 2116.29,-40.72 2113.25,-40.15"/>
<polygon fill="#63b8ff" stroke="#63b8ff" points="2556.64,-91.19 2566.84,-88.32 2557.08,-84.21 2556.64,-91.19"/>
</a>
</g>
</g>
<!-- Node16 -->
<g id="Node000016" class="node">
<title>Node16</title>
<g id="a_Node000016"><a xlink:href="kalman__assign__move__5x4x3_8cpp.xhtml" target="_top" xlink:title=" ">
<polygon fill="white" stroke="#666666" points="2293,-36.12 2131.5,-36.12 2131.5,-5.62 2293,-5.62 2293,-36.12"/>
<text text-anchor="start" x="2139.5" y="-22.62" font-family="Helvetica,sans-Serif" font-size="10.00">/github/workspace/test</text>
<text text-anchor="middle" x="2212.25" y="-11.38" font-family="Helvetica,sans-Serif" font-size="10.00">/kalman_assign_move_5x4x3.cpp</text>
</a>
</g>
</g>
<!-- Node2&#45;&gt;Node16 -->
<g id="edge15_Node000002_Node000016" class="edge">
<title>Node2&#45;&gt;Node16</title>
<g id="a_edge15_Node000002_Node000016"><a xlink:title=" ">
<path fill="none" stroke="#63b8ff" d="M2556.77,-81.96C2489.32,-72.74 2388.46,-58.07 2301.25,-41.75 2292.85,-40.18 2284.03,-38.38 2275.34,-36.53"/>
<polygon fill="#63b8ff" stroke="#63b8ff" points="2556.26,-85.42 2566.64,-83.3 2557.2,-78.49 2556.26,-85.42"/>
</a>
</g>
</g>
<!-- Node17 -->
<g id="Node000017" class="node">
<title>Node17</title>
<g id="a_Node000017"><a xlink:href="kalman__constructor__default_8cpp.xhtml" target="_top" xlink:title=" ">
<polygon fill="white" stroke="#666666" points="2467.75,-36.12 2310.75,-36.12 2310.75,-5.62 2467.75,-5.62 2467.75,-36.12"/>
<text text-anchor="start" x="2318.75" y="-22.62" font-family="Helvetica,sans-Serif" font-size="10.00">/github/workspace/test</text>
<text text-anchor="middle" x="2389.25" y="-11.38" font-family="Helvetica,sans-Serif" font-size="10.00">/kalman_constructor_default.cpp</text>
</a>
</g>
</g>
<!-- Node2&#45;&gt;Node17 -->
<g id="edge16_Node000002_Node000017" class="edge">
<title>Node2&#45;&gt;Node17</title>
<g id="a_edge16_Node000002_Node000017"><a xlink:title=" ">
<path fill="none" stroke="#63b8ff" d="M2571.27,-74.19C2530.75,-62.54 2478.46,-47.51 2440.33,-36.56"/>
<polygon fill="#63b8ff" stroke="#63b8ff" points="2570.07,-77.48 2580.64,-76.88 2572,-70.76 2570.07,-77.48"/>
</a>
</g>
</g>
<!-- Node18 -->
<g id="Node000018" class="node">
<title>Node18</title>
<g id="a_Node000018"><a xlink:href="kalman__constructor__default__1x1x3_8cpp.xhtml" target="_top" xlink:title=" ">
<polygon fill="white" stroke="#666666" points="2624.75,-41.75 2485.75,-41.75 2485.75,0 2624.75,0 2624.75,-41.75"/>
<text text-anchor="start" x="2493.75" y="-28.25" font-family="Helvetica,sans-Serif" font-size="10.00">/github/workspace/test</text>
<text text-anchor="start" x="2493.75" y="-17" font-family="Helvetica,sans-Serif" font-size="10.00">/kalman_constructor_default</text>
<text text-anchor="middle" x="2555.25" y="-5.75" font-family="Helvetica,sans-Serif" font-size="10.00">_1x1x3.cpp</text>
</a>
</g>
</g>
<!-- Node2&#45;&gt;Node18 -->
<g id="edge17_Node000002_Node000018" class="edge">
<title>Node2&#45;&gt;Node18</title>
<g id="a_edge17_Node000002_Node000018"><a xlink:title=" ">
<path fill="none" stroke="#63b8ff" d="M2608.55,-69.79C2598.73,-60.97 2587.51,-50.87 2577.9,-42.24"/>
<polygon fill="#63b8ff" stroke="#63b8ff" points="2606.19,-72.38 2615.96,-76.46 2610.87,-67.17 2606.19,-72.38"/>
</a>
</g>
</g>
<!-- Node19 -->
<g id="Node000019" class="node">
<title>Node19</title>
<g id="a_Node000019"><a xlink:href="kalman__constructor__default__1x4x1_8cpp.xhtml" target="_top" xlink:title=" ">
<polygon fill="white" stroke="#666666" points="2781.75,-41.75 2642.75,-41.75 2642.75,0 2781.75,0 2781.75,-41.75"/>
<text text-anchor="start" x="2650.75" y="-28.25" font-family="Helvetica,sans-Serif" font-size="10.00">/github/workspace/test</text>
<text text-anchor="start" x="2650.75" y="-17" font-family="Helvetica,sans-Serif" font-size="10.00">/kalman_constructor_default</text>
<text text-anchor="middle" x="2712.25" y="-5.75" font-family="Helvetica,sans-Serif" font-size="10.00">_1x4x1.cpp</text>
</a>
</g>
</g>
<!-- Node2&#45;&gt;Node19 -->
<g id="edge18_Node000002_Node000019" class="edge">
<title>Node2&#45;&gt;Node19</title>
<g id="a_edge18_Node000002_Node000019"><a xlink:title=" ">
<path fill="none" stroke="#63b8ff" d="M2657.96,-70.06C2667.98,-61.17 2679.48,-50.96 2689.31,-42.24"/>
<polygon fill="#63b8ff" stroke="#63b8ff" points="2655.91,-67.21 2650.75,-76.47 2660.55,-72.44 2655.91,-67.21"/>
</a>
</g>
</g>
<!-- Node20 -->
<g id="Node000020" class="node">
<title>Node20</title>
<g id="a_Node000020"><a xlink:href="kalman__constructor__default__1x4x3_8cpp.xhtml" target="_top" xlink:title=" ">
<polygon fill="white" stroke="#666666" points="2938.75,-41.75 2799.75,-41.75 2799.75,0 2938.75,0 2938.75,-41.75"/>
<text text-anchor="start" x="2807.75" y="-28.25" font-family="Helvetica,sans-Serif" font-size="10.00">/github/workspace/test</text>
<text text-anchor="start" x="2807.75" y="-17" font-family="Helvetica,sans-Serif" font-size="10.00">/kalman_constructor_default</text>
<text text-anchor="middle" x="2869.25" y="-5.75" font-family="Helvetica,sans-Serif" font-size="10.00">_1x4x3.cpp</text>
</a>
</g>
</g>
<!-- Node2&#45;&gt;Node20 -->
<g id="edge19_Node000002_Node000020" class="edge">
<title>Node2&#45;&gt;Node20</title>
<g id="a_edge19_Node000002_Node000020"><a xlink:title=" ">
<path fill="none" stroke="#63b8ff" d="M2693.53,-74.09C2726.35,-64.34 2767.07,-52.24 2801.05,-42.14"/>
<polygon fill="#63b8ff" stroke="#63b8ff" points="2692.76,-70.66 2684.17,-76.87 2694.76,-77.38 2692.76,-70.66"/>
</a>
</g>
</g>
<!-- Node21 -->
<g id="Node000021" class="node">
<title>Node21</title>
<g id="a_Node000021"><a xlink:href="kalman__constructor__default__5x1x1_8cpp.xhtml" target="_top" xlink:title=" ">
<polygon fill="white" stroke="#666666" points="3095.75,-41.75 2956.75,-41.75 2956.75,0 3095.75,0 3095.75,-41.75"/>
<text text-anchor="start" x="2964.75" y="-28.25" font-family="Helvetica,sans-Serif" font-size="10.00">/github/workspace/test</text>
<text text-anchor="start" x="2964.75" y="-17" font-family="Helvetica,sans-Serif" font-size="10.00">/kalman_constructor_default</text>
<text text-anchor="middle" x="3026.25" y="-5.75" font-family="Helvetica,sans-Serif" font-size="10.00">_5x1x1.cpp</text>
</a>
</g>
</g>
<!-- Node2&#45;&gt;Node21 -->
<g id="edge20_Node000002_Node000021" class="edge">
<title>Node2&#45;&gt;Node21</title>
<g id="a_edge20_Node000002_Node000021"><a xlink:title=" ">
<path fill="none" stroke="#63b8ff" d="M2709.32,-81.85C2773.34,-72.84 2867.16,-58.51 2948.25,-41.75 2950.99,-41.18 2953.77,-40.59 2956.58,-39.96"/>
<polygon fill="#63b8ff" stroke="#63b8ff" points="2709.03,-78.36 2699.61,-83.21 2710,-85.29 2709.03,-78.36"/>
</a>
</g>
</g>
<!-- Node22 -->
<g id="Node000022" class="node">
<title>Node22</title>
<g id="a_Node000022"><a xlink:href="kalman__constructor__default__5x1x3_8cpp.xhtml" target="_top" xlink:title=" ">
<polygon fill="white" stroke="#666666" points="3252.75,-41.75 3113.75,-41.75 3113.75,0 3252.75,0 3252.75,-41.75"/>
<text text-anchor="start" x="3121.75" y="-28.25" font-family="Helvetica,sans-Serif" font-size="10.00">/github/workspace/test</text>
<text text-anchor="start" x="3121.75" y="-17" font-family="Helvetica,sans-Serif" font-size="10.00">/kalman_constructor_default</text>
<text text-anchor="middle" x="3183.25" y="-5.75" font-family="Helvetica,sans-Serif" font-size="10.00">_5x1x3.cpp</text>
</a>
</g>
</g>
<!-- Node2&#45;&gt;Node22 -->
<g id="edge21_Node000002_Node000022" class="edge">
<title>Node2&#45;&gt;Node22</title>
<g id="a_edge21_Node000002_Node000022"><a xlink:title=" ">
<path fill="none" stroke="#63b8ff" d="M2709.53,-87.26C2803.25,-80.66 2966.85,-66.62 3105.25,-41.75 3108,-41.26 3110.8,-40.72 3113.62,-40.14"/>
<polygon fill="#63b8ff" stroke="#63b8ff" points="2709.42,-83.76 2699.69,-87.94 2709.91,-90.74 2709.42,-83.76"/>
</a>
</g>
</g>
<!-- Node23 -->
<g id="Node000023" class="node">
<title>Node23</title>
<g id="a_Node000023"><a xlink:href="kalman__constructor__default__5x4x0_8cpp.xhtml" target="_top" xlink:title=" ">
<polygon fill="white" stroke="#666666" points="3409.75,-41.75 3270.75,-41.75 3270.75,0 3409.75,0 3409.75,-41.75"/>
<text text-anchor="start" x="3278.75" y="-28.25" font-family="Helvetica,sans-Serif" font-size="10.00">/github/workspace/test</text>
<text text-anchor="start" x="3278.75" y="-17" font-family="Helvetica,sans-Serif" font-size="10.00">/kalman_constructor_default</text>
<text text-anchor="middle" x="3340.25" y="-5.75" font-family="Helvetica,sans-Serif" font-size="10.00">_5x4x0.cpp</text>
</a>
</g>
</g>
<!-- Node2&#45;&gt;Node23 -->
<g id="edge22_Node000002_Node000023" class="edge">
<title>Node2&#45;&gt;Node23</title>
<g id="a_edge22_Node000002_Node000023"><a xlink:title=" ">
<path fill="none" stroke="#63b8ff" d="M2709.45,-90.08C2828.28,-86.15 3064.58,-74.58 3262.25,-41.75 3265.01,-41.29 3267.81,-40.78 3270.63,-40.24"/>
<polygon fill="#63b8ff" stroke="#63b8ff" points="2709.38,-86.58 2699.49,-90.4 2709.6,-93.58 2709.38,-86.58"/>
</a>
</g>
</g>
<!-- Node24 -->
<g id="Node000024" class="node">
<title>Node24</title>
<g id="a_Node000024"><a xlink:href="kalman__constructor__default__5x4x1_8cpp.xhtml" target="_top" xlink:title=" ">
<polygon fill="white" stroke="#666666" points="3566.75,-41.75 3427.75,-41.75 3427.75,0 3566.75,0 3566.75,-41.75"/>
<text text-anchor="start" x="3435.75" y="-28.25" font-family="Helvetica,sans-Serif" font-size="10.00">/github/workspace/test</text>
<text text-anchor="start" x="3435.75" y="-17" font-family="Helvetica,sans-Serif" font-size="10.00">/kalman_constructor_default</text>
<text text-anchor="middle" x="3497.25" y="-5.75" font-family="Helvetica,sans-Serif" font-size="10.00">_5x4x1.cpp</text>
</a>
</g>
</g>
<!-- Node2&#45;&gt;Node24 -->
<g id="edge23_Node000002_Node000024" class="edge">
<title>Node2&#45;&gt;Node24</title>
<g id="a_edge23_Node000002_Node000024"><a xlink:title=" ">
<path fill="none" stroke="#63b8ff" d="M2709.63,-91.81C2850.7,-90.42 3161.27,-82.5 3419.25,-41.75 3422.01,-41.31 3424.82,-40.82 3427.64,-40.29"/>
<polygon fill="#63b8ff" stroke="#63b8ff" points="2709.62,-88.31 2699.65,-91.9 2709.68,-95.31 2709.62,-88.31"/>
</a>
</g>
</g>
<!-- Node25 -->
<g id="Node000025" class="node">
<title>Node25</title>
<g id="a_Node000025"><a xlink:href="kalman__constructor__default__5x4x3_8cpp.xhtml" target="_top" xlink:title=" ">
<polygon fill="white" stroke="#666666" points="3723.75,-41.75 3584.75,-41.75 3584.75,0 3723.75,0 3723.75,-41.75"/>
<text text-anchor="start" x="3592.75" y="-28.25" font-family="Helvetica,sans-Serif" font-size="10.00">/github/workspace/test</text>
<text text-anchor="start" x="3592.75" y="-17" font-family="Helvetica,sans-Serif" font-size="10.00">/kalman_constructor_default</text>
<text text-anchor="middle" x="3654.25" y="-5.75" font-family="Helvetica,sans-Serif" font-size="10.00">_5x4x3.cpp</text>
</a>
</g>
</g>
<!-- Node2&#45;&gt;Node25 -->
<g id="edge24_Node000002_Node000025" class="edge">
<title>Node2&#45;&gt;Node25</title>
<g id="a_edge24_Node000002_Node000025"><a xlink:title=" ">
<path fill="none" stroke="#63b8ff" d="M2709.62,-89.86C2903.25,-84.14 3409.78,-67.14 3576.25,-41.75 3579.01,-41.33 3581.82,-40.85 3584.65,-40.33"/>
<polygon fill="#63b8ff" stroke="#63b8ff" points="2709.56,-86.36 2699.66,-90.16 2709.76,-93.36 2709.56,-86.36"/>
</a>
</g>
</g>
<!-- Node26 -->
<g id="Node000026" class="node">
<title>Node26</title>
<g id="a_Node000026"><a xlink:href="kalman__constructor__default__float__1x1x1_8cpp.xhtml" target="_top" xlink:title=" ">
<polygon fill="white" stroke="#666666" points="3880.75,-41.75 3741.75,-41.75 3741.75,0 3880.75,0 3880.75,-41.75"/>
<text text-anchor="start" x="3749.75" y="-28.25" font-family="Helvetica,sans-Serif" font-size="10.00">/github/workspace/test</text>
<text text-anchor="start" x="3749.75" y="-17" font-family="Helvetica,sans-Serif" font-size="10.00">/kalman_constructor_default</text>
<text text-anchor="middle" x="3811.25" y="-5.75" font-family="Helvetica,sans-Serif" font-size="10.00">_float_1x1x1.cpp</text>
</a>
</g>
</g>
<!-- Node2&#45;&gt;Node26 -->
<g id="edge25_Node000002_Node000026" class="edge">
<title>Node2&#45;&gt;Node26</title>
<g id="a_edge25_Node000002_Node000026"><a xlink:title=" ">
<path fill="none" stroke="#63b8ff" d="M2709.65,-90.54C2925.21,-86.09 3535.27,-71.18 3733.25,-41.75 3736.01,-41.34 3738.82,-40.87 3741.65,-40.36"/>
<polygon fill="#63b8ff" stroke="#63b8ff" points="2709.6,-87.04 2699.68,-90.74 2709.75,-94.04 2709.6,-87.04"/>
</a>
</g>
</g>
<!-- Node27 -->
<g id="Node000027" class="node">
<title>Node27</title>
<g id="a_Node000027"><a xlink:href="kalman__constructor__move__5x4x3_8cpp.xhtml" target="_top" xlink:title=" ">
<polygon fill="white" stroke="#666666" points="4032.12,-41.75 3898.38,-41.75 3898.38,0 4032.12,0 4032.12,-41.75"/>
<text text-anchor="start" x="3906.38" y="-28.25" font-family="Helvetica,sans-Serif" font-size="10.00">/github/workspace/test</text>
<text text-anchor="start" x="3906.38" y="-17" font-family="Helvetica,sans-Serif" font-size="10.00">/kalman_constructor_move</text>
<text text-anchor="middle" x="3965.25" y="-5.75" font-family="Helvetica,sans-Serif" font-size="10.00">_5x4x3.cpp</text>
</a>
</g>
</g>
<!-- Node2&#45;&gt;Node27 -->
<g id="edge26_Node000002_Node000027" class="edge">
<title>Node2&#45;&gt;Node27</title>
<g id="a_edge26_Node000002_Node000027"><a xlink:title=" ">
<path fill="none" stroke="#63b8ff" d="M2709.45,-91.14C2945.2,-88.14 3660.63,-76.34 3890.25,-41.75 3892.78,-41.37 3895.35,-40.93 3897.94,-40.46"/>
<polygon fill="#63b8ff" stroke="#63b8ff" points="2709.72,-87.64 2699.77,-91.26 2709.81,-94.64 2709.72,-87.64"/>
</a>
</g>
</g>
<!-- Node28 -->
<g id="Node000028" class="node">
<title>Node28</title>
<g id="a_Node000028"><a xlink:href="kalman__f_8cpp.xhtml" target="_top" xlink:title=" ">
<polygon fill="white" stroke="#666666" points="4164.75,-36.12 4049.75,-36.12 4049.75,-5.62 4164.75,-5.62 4164.75,-36.12"/>
<text text-anchor="start" x="4057.75" y="-22.62" font-family="Helvetica,sans-Serif" font-size="10.00">/github/workspace/test</text>
<text text-anchor="middle" x="4107.25" y="-11.38" font-family="Helvetica,sans-Serif" font-size="10.00">/kalman_f.cpp</text>
</a>
</g>
</g>
<!-- Node2&#45;&gt;Node28 -->
<g id="edge27_Node000002_Node000028" class="edge">
<title>Node2&#45;&gt;Node28</title>
<g id="a_edge27_Node000002_Node000028"><a xlink:title=" ">
<path fill="none" stroke="#63b8ff" d="M2709.38,-91.85C2963.58,-90.96 3781.6,-84.74 4041.25,-41.75 4048.81,-40.5 4056.71,-38.63 4064.31,-36.53"/>
<polygon fill="#63b8ff" stroke="#63b8ff" points="2709.57,-88.35 2699.58,-91.89 2709.59,-95.35 2709.57,-88.35"/>
</a>
</g>
</g>
<!-- Node29 -->
<g id="Node000029" class="node">
<title>Node29</title>
<g id="a_Node000029"><a xlink:href="kalman__f__5x4x3_8cpp.xhtml" target="_top" xlink:title=" ">
<polygon fill="white" stroke="#666666" points="4297.75,-36.12 4182.75,-36.12 4182.75,-5.62 4297.75,-5.62 4297.75,-36.12"/>
<text text-anchor="start" x="4190.75" y="-22.62" font-family="Helvetica,sans-Serif" font-size="10.00">/github/workspace/test</text>
<text text-anchor="middle" x="4240.25" y="-11.38" font-family="Helvetica,sans-Serif" font-size="10.00">/kalman_f_5x4x3.cpp</text>
</a>
</g>
</g>
<!-- Node2&#45;&gt;Node29 -->
<g id="edge28_Node000002_Node000029" class="edge">
<title>Node2&#45;&gt;Node29</title>
<g id="a_edge28_Node000002_Node000029"><a xlink:title=" ">
<path fill="none" stroke="#63b8ff" d="M2709.2,-92.13C2978.59,-92.18 3887.48,-88.78 4174.25,-41.75 4181.81,-40.51 4189.71,-38.65 4197.32,-36.55"/>
<polygon fill="#63b8ff" stroke="#63b8ff" points="2709.51,-88.63 2699.51,-92.13 2709.51,-95.63 2709.51,-88.63"/>
</a>
</g>
</g>
<!-- Node30 -->
<g id="Node000030" class="node">
<title>Node30</title>
<g id="a_Node000030"><a xlink:href="kalman__format_8cpp.xhtml" target="_top" xlink:title=" ">
<polygon fill="white" stroke="#666666" points="4430.75,-36.12 4315.75,-36.12 4315.75,-5.62 4430.75,-5.62 4430.75,-36.12"/>
<text text-anchor="start" x="4323.75" y="-22.62" font-family="Helvetica,sans-Serif" font-size="10.00">/github/workspace/test</text>
<text text-anchor="middle" x="4373.25" y="-11.38" font-family="Helvetica,sans-Serif" font-size="10.00">/kalman_format.cpp</text>
</a>
</g>
</g>
<!-- Node2&#45;&gt;Node30 -->
<g id="edge29_Node000002_Node000030" class="edge">
<title>Node2&#45;&gt;Node30</title>
<g id="a_edge29_Node000002_Node000030"><a xlink:title=" ">
<path fill="none" stroke="#63b8ff" d="M2709.45,-92.36C2993.91,-93.3 3993.41,-92.8 4307.25,-41.75 4314.81,-40.52 4322.71,-38.66 4330.32,-36.57"/>
<polygon fill="#63b8ff" stroke="#63b8ff" points="2709.56,-88.86 2699.55,-92.33 2709.54,-95.86 2709.56,-88.86"/>
</a>
</g>
</g>
<!-- Node31 -->
<g id="Node000031" class="node">
<title>Node31</title>
<g id="a_Node000031"><a xlink:href="kalman__format__arguments_8cpp.xhtml" target="_top" xlink:title=" ">
<polygon fill="white" stroke="#666666" points="4601.5,-36.12 4449,-36.12 4449,-5.62 4601.5,-5.62 4601.5,-36.12"/>
<text text-anchor="start" x="4457" y="-22.62" font-family="Helvetica,sans-Serif" font-size="10.00">/github/workspace/test</text>
<text text-anchor="middle" x="4525.25" y="-11.38" font-family="Helvetica,sans-Serif" font-size="10.00">/kalman_format_arguments.cpp</text>
</a>
</g>
</g>
<!-- Node2&#45;&gt;Node31 -->
<g id="edge30_Node000002_Node000031" class="edge">
<title>Node2&#45;&gt;Node31</title>
<g id="a_edge30_Node000002_Node000031"><a xlink:title=" ">
<path fill="none" stroke="#63b8ff" d="M2709.4,-91.93C3007.77,-91.34 4097.62,-86.11 4440.25,-41.75 4449.87,-40.5 4459.99,-38.64 4469.76,-36.54"/>
<polygon fill="#63b8ff" stroke="#63b8ff" points="2709.8,-88.43 2699.8,-91.95 2709.81,-95.43 2709.8,-88.43"/>
</a>
</g>
</g>
<!-- Node32 -->
<g id="Node000032" class="node">
<title>Node32</title>
<g id="a_Node000032"><a xlink:href="kalman__format__float__1x1x1_8cpp.xhtml" target="_top" xlink:title=" ">
<polygon fill="white" stroke="#666666" points="4774.62,-36.12 4619.88,-36.12 4619.88,-5.62 4774.62,-5.62 4774.62,-36.12"/>
<text text-anchor="start" x="4627.88" y="-22.62" font-family="Helvetica,sans-Serif" font-size="10.00">/github/workspace/test</text>
<text text-anchor="middle" x="4697.25" y="-11.38" font-family="Helvetica,sans-Serif" font-size="10.00">/kalman_format_float_1x1x1.cpp</text>
</a>
</g>
</g>
<!-- Node2&#45;&gt;Node32 -->
<g id="edge31_Node000002_Node000032" class="edge">
<title>Node2&#45;&gt;Node32</title>
<g id="a_edge31_Node000002_Node000032"><a xlink:title=" ">
<path fill="none" stroke="#63b8ff" d="M2709.62,-92.09C3025.69,-92.15 4232.53,-89.21 4610.25,-41.75 4620.09,-40.51 4630.45,-38.65 4640.45,-36.56"/>
<polygon fill="#63b8ff" stroke="#63b8ff" points="2709.83,-88.59 2699.83,-92.09 2709.83,-95.59 2709.83,-88.59"/>
</a>
</g>
</g>
<!-- Node33 -->
<g id="Node000033" class="node">
<title>Node33</title>
<g id="a_Node000033"><a xlink:href="kalman__h__5x4x3_8cpp.xhtml" target="_top" xlink:title=" ">
<polygon fill="white" stroke="#666666" points="4907.75,-36.12 4792.75,-36.12 4792.75,-5.62 4907.75,-5.62 4907.75,-36.12"/>
<text text-anchor="start" x="4800.75" y="-22.62" font-family="Helvetica,sans-Serif" font-size="10.00">/github/workspace/test</text>
<text text-anchor="middle" x="4850.25" y="-11.38" font-family="Helvetica,sans-Serif" font-size="10.00">/kalman_h_5x4x3.cpp</text>
</a>
</g>
</g>
<!-- Node2&#45;&gt;Node33 -->
<g id="edge32_Node000002_Node000033" class="edge">
<title>Node2&#45;&gt;Node33</title>
<g id="a_edge32_Node000002_Node000033"><a xlink:title=" ">
<path fill="none" stroke="#63b8ff" d="M2709.61,-91.41C3068.12,-88.5 4575.5,-74.4 4783.25,-41.75 4790.92,-40.54 4798.94,-38.7 4806.66,-36.61"/>
<polygon fill="#63b8ff" stroke="#63b8ff" points="2709.83,-87.91 2699.86,-91.49 2709.89,-94.91 2709.83,-87.91"/>
</a>
</g>
</g>
<!-- Node34 -->
<g id="Node000034" class="node">
<title>Node34</title>
<g id="a_Node000034"><a xlink:href="kalman__println_8cpp.xhtml" target="_top" xlink:title=" ">
<polygon fill="white" stroke="#666666" points="5040.75,-36.12 4925.75,-36.12 4925.75,-5.62 5040.75,-5.62 5040.75,-36.12"/>
<text text-anchor="start" x="4933.75" y="-22.62" font-family="Helvetica,sans-Serif" font-size="10.00">/github/workspace/test</text>
<text text-anchor="middle" x="4983.25" y="-11.38" font-family="Helvetica,sans-Serif" font-size="10.00">/kalman_println.cpp</text>
</a>
</g>
</g>
<!-- Node2&#45;&gt;Node34 -->
<g id="edge33_Node000002_Node000034" class="edge">
<title>Node2&#45;&gt;Node34</title>
<g id="a_edge33_Node000002_Node000034"><a xlink:title=" ">
<path fill="none" stroke="#63b8ff" d="M2709.76,-91.54C3082.12,-89.16 4695.7,-76.88 4917.25,-41.75 4924.81,-40.55 4932.72,-38.71 4940.33,-36.62"/>
<polygon fill="#63b8ff" stroke="#63b8ff" points="2709.83,-88.04 2699.85,-91.61 2709.87,-95.04 2709.83,-88.04"/>
</a>
</g>
</g>
</g>
</svg>
