<?xml version="1.0" encoding="UTF-8" standalone="no"?>
<!DOCTYPE svg PUBLIC "-//W3C//DTD SVG 1.1//EN"
 "http://www.w3.org/Graphics/SVG/1.1/DTD/svg11.dtd">
<!-- Generated by graphviz version 9.0.0 (20230911.1827)
 -->
<!-- Title: /github/workspace/include/fcarouge/internal/format.hpp Pages: 1 -->
<svg width="308pt" height="204pt"
 viewBox="0.00 0.00 307.75 204.25" xmlns="http://www.w3.org/2000/svg" xmlns:xlink="http://www.w3.org/1999/xlink">
<g id="graph0" class="graph" transform="scale(1 1) rotate(0) translate(4 200.25)">
<title>/github/workspace/include/fcarouge/internal/format.hpp</title>
<!-- Node1 -->
<g id="Node000001" class="node">
<title>Node1</title>
<g id="a_Node000001"><a xlink:title=" ">
<polygon fill="#999999" stroke="#666666" points="278.75,-196.25 139,-196.25 139,-165.75 278.75,-165.75 278.75,-196.25"/>
<text text-anchor="start" x="147" y="-182.75" font-family="Helvetica,sans-Serif" font-size="10.00">/github/workspace/include</text>
<text text-anchor="middle" x="208.88" y="-171.5" font-family="Helvetica,sans-Serif" font-size="10.00">/fcarouge/internal/format.hpp</text>
</a>
</g>
</g>
<!-- Node2 -->
<g id="Node000002" class="node">
<title>Node2</title>
<g id="a_Node000002"><a xlink:href="utility_8hpp.xhtml" target="_top" xlink:title="The collection of utilities supporting the library.">
<polygon fill="white" stroke="#666666" points="161.38,-129.75 64.38,-129.75 64.38,-110.5 161.38,-110.5 161.38,-129.75"/>
<text text-anchor="middle" x="112.88" y="-116.25" font-family="Helvetica,sans-Serif" font-size="10.00">fcarouge/utility.hpp</text>
</a>
</g>
</g>
<!-- Node1&#45;&gt;Node2 -->
<g id="edge1_Node000001_Node000002" class="edge">
<title>Node1&#45;&gt;Node2</title>
<g id="a_edge1_Node000001_Node000002"><a xlink:title=" ">
<path fill="none" stroke="#63b8ff" d="M185.14,-165.45C170.53,-156.48 151.84,-145.02 137.12,-136"/>
<polygon fill="#63b8ff" stroke="#63b8ff" points="139.32,-133.24 128.96,-130.99 135.66,-139.2 139.32,-133.24"/>
</a>
</g>
</g>
<!-- Node5 -->
<g id="Node000005" class="node">
<title>Node5</title>
<g id="a_Node000005"><a xlink:title=" ">
<polygon fill="#e0e0e0" stroke="#999999" points="201,-19.25 152.75,-19.25 152.75,0 201,0 201,-19.25"/>
<text text-anchor="middle" x="176.88" y="-5.75" font-family="Helvetica,sans-Serif" font-size="10.00">cstddef</text>
</a>
</g>
</g>
<!-- Node1&#45;&gt;Node5 -->
<g id="edge7_Node000001_Node000005" class="edge">
<title>Node1&#45;&gt;Node5</title>
<g id="a_edge7_Node000001_Node000005"><a xlink:title=" ">
<path fill="none" stroke="#63b8ff" d="M206.09,-165.27C200.35,-134.87 187.18,-65.19 180.67,-30.71"/>
<polygon fill="#63b8ff" stroke="#63b8ff" points="184.17,-30.4 178.88,-21.22 177.29,-31.7 184.17,-30.4"/>
</a>
</g>
</g>
<!-- Node6 -->
<g id="Node000006" class="node">
<title>Node6</title>
<g id="a_Node000006"><a xlink:title=" ">
<polygon fill="#e0e0e0" stroke="#999999" points="256.38,-19.25 219.38,-19.25 219.38,0 256.38,0 256.38,-19.25"/>
<text text-anchor="middle" x="237.88" y="-5.75" font-family="Helvetica,sans-Serif" font-size="10.00">tuple</text>
</a>
</g>
</g>
<!-- Node1&#45;&gt;Node6 -->
<g id="edge9_Node000001_Node000006" class="edge">
<title>Node1&#45;&gt;Node6</title>
<g id="a_edge9_Node000001_Node000006"><a xlink:title=" ">
<path fill="none" stroke="#63b8ff" d="M211.4,-165.27C216.6,-134.87 228.53,-65.19 234.44,-30.71"/>
<polygon fill="#63b8ff" stroke="#63b8ff" points="237.82,-31.67 236.06,-21.23 230.92,-30.49 237.82,-31.67"/>
</a>
</g>
</g>
<!-- Node8 -->
<g id="Node000008" class="node">
<title>Node8</title>
<g id="a_Node000008"><a xlink:title=" ">
<polygon fill="#e0e0e0" stroke="#999999" points="299.75,-129.75 256,-129.75 256,-110.5 299.75,-110.5 299.75,-129.75"/>
<text text-anchor="middle" x="277.88" y="-116.25" font-family="Helvetica,sans-Serif" font-size="10.00">format</text>
</a>
</g>
</g>
<!-- Node1&#45;&gt;Node8 -->
<g id="edge8_Node000001_Node000008" class="edge">
<title>Node1&#45;&gt;Node8</title>
<g id="a_edge8_Node000001_Node000008"><a xlink:title=" ">
<path fill="none" stroke="#63b8ff" d="M225.93,-165.45C235.83,-157 248.33,-146.33 258.59,-137.58"/>
<polygon fill="#63b8ff" stroke="#63b8ff" points="260.75,-140.34 266.09,-131.18 256.21,-135.01 260.75,-140.34"/>
</a>
</g>
</g>
<!-- Node3 -->
<g id="Node000003" class="node">
<title>Node3</title>
<g id="a_Node000003"><a xlink:href="internal_2utility_8hpp.xhtml" target="_top" xlink:title=" ">
<polygon fill="white" stroke="#666666" points="158.38,-74.5 67.38,-74.5 67.38,-55.25 158.38,-55.25 158.38,-74.5"/>
<text text-anchor="middle" x="112.88" y="-61" font-family="Helvetica,sans-Serif" font-size="10.00">internal/utility.hpp</text>
</a>
</g>
</g>
<!-- Node2&#45;&gt;Node3 -->
<g id="edge2_Node000002_Node000003" class="edge">
<title>Node2&#45;&gt;Node3</title>
<g id="a_edge2_Node000002_Node000003"><a xlink:title=" ">
<path fill="none" stroke="#63b8ff" d="M112.88,-110.33C112.88,-103.82 112.88,-94.67 112.88,-86.37"/>
<polygon fill="#63b8ff" stroke="#63b8ff" points="116.38,-86.37 112.88,-76.37 109.38,-86.37 116.38,-86.37"/>
</a>
</g>
</g>
<!-- Node4 -->
<g id="Node000004" class="node">
<title>Node4</title>
<g id="a_Node000004"><a xlink:title=" ">
<polygon fill="#e0e0e0" stroke="#999999" points="55.75,-19.25 0,-19.25 0,0 55.75,0 55.75,-19.25"/>
<text text-anchor="middle" x="27.88" y="-5.75" font-family="Helvetica,sans-Serif" font-size="10.00">concepts</text>
</a>
</g>
</g>
<!-- Node3&#45;&gt;Node4 -->
<g id="edge3_Node000003_Node000004" class="edge">
<title>Node3&#45;&gt;Node4</title>
<g id="a_edge3_Node000003_Node000004"><a xlink:title=" ">
<path fill="none" stroke="#63b8ff" d="M98.46,-54.84C85.76,-46.89 67,-35.14 52.02,-25.75"/>
<polygon fill="#63b8ff" stroke="#63b8ff" points="53.98,-22.85 43.65,-20.51 50.26,-28.78 53.98,-22.85"/>
</a>
</g>
</g>
<!-- Node3&#45;&gt;Node5 -->
<g id="edge4_Node000003_Node000005" class="edge">
<title>Node3&#45;&gt;Node5</title>
<g id="a_edge4_Node000003_Node000005"><a xlink:title=" ">
<path fill="none" stroke="#63b8ff" d="M123.73,-54.84C132.98,-47.15 146.5,-35.9 157.58,-26.68"/>
<polygon fill="#63b8ff" stroke="#63b8ff" points="159.57,-29.58 165.02,-20.49 155.09,-24.2 159.57,-29.58"/>
</a>
</g>
</g>
<!-- Node3&#45;&gt;Node6 -->
<g id="edge5_Node000003_Node000006" class="edge">
<title>Node3&#45;&gt;Node6</title>
<g id="a_edge5_Node000003_Node000006"><a xlink:title=" ">
<path fill="none" stroke="#63b8ff" d="M134.08,-54.84C154.55,-46.12 185.72,-32.84 208.56,-23.11"/>
<polygon fill="#63b8ff" stroke="#63b8ff" points="209.8,-26.39 217.63,-19.25 207.06,-19.95 209.8,-26.39"/>
</a>
</g>
</g>
<!-- Node7 -->
<g id="Node000007" class="node">
<title>Node7</title>
<g id="a_Node000007"><a xlink:title=" ">
<polygon fill="#e0e0e0" stroke="#999999" points="134.38,-19.25 73.38,-19.25 73.38,0 134.38,0 134.38,-19.25"/>
<text text-anchor="middle" x="103.88" y="-5.75" font-family="Helvetica,sans-Serif" font-size="10.00">type_traits</text>
</a>
</g>
</g>
<!-- Node3&#45;&gt;Node7 -->
<g id="edge6_Node000003_Node000007" class="edge">
<title>Node3&#45;&gt;Node7</title>
<g id="a_edge6_Node000003_Node000007"><a xlink:title=" ">
<path fill="none" stroke="#63b8ff" d="M111.39,-55.08C110.28,-48.49 108.71,-39.21 107.29,-30.82"/>
<polygon fill="#63b8ff" stroke="#63b8ff" points="110.76,-30.38 105.65,-21.1 103.86,-31.55 110.76,-30.38"/>
</a>
</g>
</g>
</g>
</svg>
