<?xml version="1.0" encoding="UTF-8" standalone="no"?>
<!DOCTYPE svg PUBLIC "-//W3C//DTD SVG 1.1//EN"
 "http://www.w3.org/Graphics/SVG/1.1/DTD/svg11.dtd">
<!-- Generated by graphviz version 3.0.0 (20221109.1736)
 -->
<!-- Title: /github/workspace/test/format.cpp Pages: 1 -->
<svg width="814pt" height="263pt"
 viewBox="0.00 0.00 814.39 263.00" xmlns="http://www.w3.org/2000/svg" xmlns:xlink="http://www.w3.org/1999/xlink">
<g id="graph0" class="graph" transform="scale(1 1) rotate(0) translate(4 259)">
<title>/github/workspace/test/format.cpp</title>
<polygon fill="white" stroke="transparent" points="-4,4 -4,-259 810.39,-259 810.39,4 -4,4"/>
<!-- Node1 -->
<g id="node1" class="node">
<title>Node1</title>
<g id="a_node1"><a xlink:title=" ">
<polygon fill="#bfbfbf" stroke="black" points="670.89,-224.5 670.89,-254.5 786.89,-254.5 786.89,-224.5 670.89,-224.5"/>
<text text-anchor="start" x="678.89" y="-242.5" font-family="Helvetica,sans-Serif" font-size="10.00">/github/workspace/test</text>
<text text-anchor="middle" x="728.89" y="-231.5" font-family="Helvetica,sans-Serif" font-size="10.00">/format.cpp</text>
</a>
</g>
</g>
<!-- Node2 -->
<g id="node2" class="node">
<title>Node2</title>
<g id="a_node2"><a xlink:href="kalman_8hpp.xhtml" target="_top" xlink:title="The Kalman filter class and library top&#45;level header.">
<polygon fill="white" stroke="black" points="327.39,-168.5 327.39,-187.5 434.39,-187.5 434.39,-168.5 327.39,-168.5"/>
<text text-anchor="middle" x="380.89" y="-175.5" font-family="Helvetica,sans-Serif" font-size="10.00">fcarouge/kalman.hpp</text>
</a>
</g>
</g>
<!-- Node1&#45;&gt;Node2 -->
<g id="edge1" class="edge">
<title>Node1&#45;&gt;Node2</title>
<path fill="none" stroke="midnightblue" d="M670.65,-228.54C606.91,-217.64 505.26,-200.26 440.86,-189.25"/>
<polygon fill="midnightblue" stroke="midnightblue" points="441.3,-185.78 430.86,-187.54 440.12,-192.68 441.3,-185.78"/>
</g>
<!-- Node9 -->
<g id="node9" class="node">
<title>Node9</title>
<g id="a_node9"><a xlink:title=" ">
<polygon fill="white" stroke="#bfbfbf" points="712.89,-56.5 712.89,-75.5 756.89,-75.5 756.89,-56.5 712.89,-56.5"/>
<text text-anchor="middle" x="734.89" y="-63.5" font-family="Helvetica,sans-Serif" font-size="10.00">format</text>
</a>
</g>
</g>
<!-- Node1&#45;&gt;Node9 -->
<g id="edge23" class="edge">
<title>Node1&#45;&gt;Node9</title>
<path fill="none" stroke="midnightblue" d="M729.38,-224.47C730.46,-193.7 733.03,-120.33 734.24,-85.7"/>
<polygon fill="midnightblue" stroke="midnightblue" points="737.74,-85.68 734.59,-75.56 730.75,-85.43 737.74,-85.68"/>
</g>
<!-- Node16 -->
<g id="node16" class="node">
<title>Node16</title>
<g id="a_node16"><a xlink:title=" ">
<polygon fill="white" stroke="#bfbfbf" points="757.39,-168.5 757.39,-187.5 806.39,-187.5 806.39,-168.5 757.39,-168.5"/>
<text text-anchor="middle" x="781.89" y="-175.5" font-family="Helvetica,sans-Serif" font-size="10.00">cassert</text>
</a>
</g>
</g>
<!-- Node1&#45;&gt;Node16 -->
<g id="edge22" class="edge">
<title>Node1&#45;&gt;Node16</title>
<path fill="none" stroke="midnightblue" d="M741.45,-224.4C749.23,-215.66 759.26,-204.41 767.38,-195.3"/>
<polygon fill="midnightblue" stroke="midnightblue" points="770.14,-197.45 774.18,-187.66 764.92,-192.8 770.14,-197.45"/>
</g>
<!-- Node3 -->
<g id="node3" class="node">
<title>Node3</title>
<g id="a_node3"><a xlink:href="algorithm_8hpp.xhtml" target="_top" xlink:title="The collection of Kalman algorithms.">
<polygon fill="white" stroke="black" points="582.89,-112.5 582.89,-131.5 656.89,-131.5 656.89,-112.5 582.89,-112.5"/>
<text text-anchor="middle" x="619.89" y="-119.5" font-family="Helvetica,sans-Serif" font-size="10.00">algorithm.hpp</text>
</a>
</g>
</g>
<!-- Node2&#45;&gt;Node3 -->
<g id="edge2" class="edge">
<title>Node2&#45;&gt;Node3</title>
<path fill="none" stroke="midnightblue" d="M418.76,-168.44C460.49,-159.02 527.66,-143.84 572.76,-133.65"/>
<polygon fill="midnightblue" stroke="midnightblue" points="573.61,-137.05 582.59,-131.43 572.07,-130.22 573.61,-137.05"/>
</g>
<!-- Node4 -->
<g id="node4" class="node">
<title>Node4</title>
<g id="a_node4"><a xlink:href="format_8hpp.xhtml" target="_top" xlink:title=" ">
<polygon fill="white" stroke="black" points="255.39,-112.5 255.39,-131.5 352.39,-131.5 352.39,-112.5 255.39,-112.5"/>
<text text-anchor="middle" x="303.89" y="-119.5" font-family="Helvetica,sans-Serif" font-size="10.00">internal/format.hpp</text>
</a>
</g>
</g>
<!-- Node2&#45;&gt;Node4 -->
<g id="edge3" class="edge">
<title>Node2&#45;&gt;Node4</title>
<path fill="none" stroke="midnightblue" d="M368.52,-168.32C356.73,-160.06 338.76,-147.45 324.76,-137.63"/>
<polygon fill="midnightblue" stroke="midnightblue" points="326.43,-134.53 316.23,-131.65 322.41,-140.26 326.43,-134.53"/>
</g>
<!-- Node6 -->
<g id="node6" class="node">
<title>Node6</title>
<g id="a_node6"><a xlink:title=" ">
<polygon fill="white" stroke="#bfbfbf" points="424.89,-0.5 424.89,-19.5 480.89,-19.5 480.89,-0.5 424.89,-0.5"/>
<text text-anchor="middle" x="452.89" y="-7.5" font-family="Helvetica,sans-Serif" font-size="10.00">concepts</text>
</a>
</g>
</g>
<!-- Node2&#45;&gt;Node6 -->
<g id="edge16" class="edge">
<title>Node2&#45;&gt;Node6</title>
<path fill="none" stroke="midnightblue" d="M434.52,-176.49C508.68,-174.53 636.73,-166.13 665.89,-132 720.12,-68.54 566,-31.26 491.13,-17.32"/>
<polygon fill="midnightblue" stroke="midnightblue" points="491.58,-13.85 481.12,-15.51 490.33,-20.74 491.58,-13.85"/>
</g>
<!-- Node7 -->
<g id="node7" class="node">
<title>Node7</title>
<g id="a_node7"><a xlink:title=" ">
<polygon fill="white" stroke="#bfbfbf" points="0.89,-0.5 0.89,-19.5 62.89,-19.5 62.89,-0.5 0.89,-0.5"/>
<text text-anchor="middle" x="31.89" y="-7.5" font-family="Helvetica,sans-Serif" font-size="10.00">type_traits</text>
</a>
</g>
</g>
<!-- Node2&#45;&gt;Node7 -->
<g id="edge19" class="edge">
<title>Node2&#45;&gt;Node7</title>
<path fill="none" stroke="midnightblue" d="M327.23,-174.31C230.13,-168.88 33.37,-155.13 12.89,-132 -12.73,-103.06 7.62,-54.21 21.57,-28.32"/>
<polygon fill="midnightblue" stroke="midnightblue" points="24.62,-30.03 26.49,-19.61 18.52,-26.59 24.62,-30.03"/>
</g>
<!-- Node8 -->
<g id="node8" class="node">
<title>Node8</title>
<g id="a_node8"><a xlink:title=" ">
<polygon fill="white" stroke="#bfbfbf" points="317.39,-56.5 317.39,-75.5 366.39,-75.5 366.39,-56.5 317.39,-56.5"/>
<text text-anchor="middle" x="341.89" y="-63.5" font-family="Helvetica,sans-Serif" font-size="10.00">cstddef</text>
</a>
</g>
</g>
<!-- Node2&#45;&gt;Node8 -->
<g id="edge17" class="edge">
<title>Node2&#45;&gt;Node8</title>
<path fill="none" stroke="midnightblue" d="M378.57,-168.5C375.1,-155.99 368.16,-131.97 360.89,-112 357.59,-102.92 353.46,-93.01 349.9,-84.81"/>
<polygon fill="midnightblue" stroke="midnightblue" points="353.04,-83.25 345.8,-75.52 346.64,-86.09 353.04,-83.25"/>
</g>
<!-- Node10 -->
<g id="node10" class="node">
<title>Node10</title>
<g id="a_node10"><a xlink:href="internal_2kalman_8hpp.xhtml" target="_top" xlink:title=" ">
<polygon fill="white" stroke="black" points="22.39,-112.5 22.39,-131.5 123.39,-131.5 123.39,-112.5 22.39,-112.5"/>
<text text-anchor="middle" x="72.89" y="-119.5" font-family="Helvetica,sans-Serif" font-size="10.00">internal/kalman.hpp</text>
</a>
</g>
</g>
<!-- Node2&#45;&gt;Node10 -->
<g id="edge9" class="edge">
<title>Node2&#45;&gt;Node10</title>
<path fill="none" stroke="midnightblue" d="M332.09,-168.44C277.68,-158.9 189.72,-143.48 131.6,-133.29"/>
<polygon fill="midnightblue" stroke="midnightblue" points="131.92,-129.8 121.47,-131.52 130.71,-136.69 131.92,-129.8"/>
</g>
<!-- Node11 -->
<g id="node11" class="node">
<title>Node11</title>
<g id="a_node11"><a xlink:title=" ">
<polygon fill="white" stroke="#bfbfbf" points="116.39,-56.5 116.39,-75.5 175.39,-75.5 175.39,-56.5 116.39,-56.5"/>
<text text-anchor="middle" x="145.89" y="-63.5" font-family="Helvetica,sans-Serif" font-size="10.00">functional</text>
</a>
</g>
</g>
<!-- Node2&#45;&gt;Node11 -->
<g id="edge18" class="edge">
<title>Node2&#45;&gt;Node11</title>
<path fill="none" stroke="midnightblue" d="M327.03,-171.32C272.81,-164.59 193.99,-151.75 170.89,-132 157.27,-120.35 151.04,-100.41 148.21,-85.67"/>
<polygon fill="midnightblue" stroke="midnightblue" points="151.65,-84.98 146.64,-75.64 144.73,-86.06 151.65,-84.98"/>
</g>
<!-- Node13 -->
<g id="node13" class="node">
<title>Node13</title>
<g id="a_node13"><a xlink:href="utility_8hpp.xhtml" target="_top" xlink:title="The collection of utilities supporting the library.">
<polygon fill="white" stroke="black" points="180.39,-112.5 180.39,-131.5 237.39,-131.5 237.39,-112.5 180.39,-112.5"/>
<text text-anchor="middle" x="208.89" y="-119.5" font-family="Helvetica,sans-Serif" font-size="10.00">utility.hpp</text>
</a>
</g>
</g>
<!-- Node2&#45;&gt;Node13 -->
<g id="edge14" class="edge">
<title>Node2&#45;&gt;Node13</title>
<path fill="none" stroke="midnightblue" d="M353.64,-168.44C324.45,-159.28 277.97,-144.69 245.58,-134.52"/>
<polygon fill="midnightblue" stroke="midnightblue" points="246.61,-131.17 236.02,-131.52 244.51,-137.85 246.61,-131.17"/>
</g>
<!-- Node14 -->
<g id="node14" class="node">
<title>Node14</title>
<g id="a_node14"><a xlink:title=" ">
<polygon fill="white" stroke="#bfbfbf" points="409.39,-112.5 409.39,-131.5 448.39,-131.5 448.39,-112.5 409.39,-112.5"/>
<text text-anchor="middle" x="428.89" y="-119.5" font-family="Helvetica,sans-Serif" font-size="10.00">utility</text>
</a>
</g>
</g>
<!-- Node2&#45;&gt;Node14 -->
<g id="edge20" class="edge">
<title>Node2&#45;&gt;Node14</title>
<path fill="none" stroke="midnightblue" d="M388.82,-168.08C395.74,-160.3 405.96,-148.8 414.34,-139.37"/>
<polygon fill="midnightblue" stroke="midnightblue" points="417.09,-141.55 421.11,-131.75 411.85,-136.9 417.09,-141.55"/>
</g>
<!-- Node15 -->
<g id="node15" class="node">
<title>Node15</title>
<g id="a_node15"><a xlink:title=" ">
<polygon fill="white" stroke="#bfbfbf" points="466.89,-112.5 466.89,-131.5 564.89,-131.5 564.89,-112.5 466.89,-112.5"/>
<text text-anchor="middle" x="515.89" y="-119.5" font-family="Helvetica,sans-Serif" font-size="10.00">internal/kalman.tpp</text>
</a>
</g>
</g>
<!-- Node2&#45;&gt;Node15 -->
<g id="edge21" class="edge">
<title>Node2&#45;&gt;Node15</title>
<path fill="none" stroke="midnightblue" d="M402.28,-168.44C424.6,-159.52 459.8,-145.44 485.1,-135.32"/>
<polygon fill="midnightblue" stroke="midnightblue" points="486.62,-138.48 494.6,-131.52 484.02,-131.98 486.62,-138.48"/>
</g>
<!-- Node5 -->
<g id="node5" class="node">
<title>Node5</title>
<g id="a_node5"><a xlink:href="internal_2utility_8hpp.xhtml" target="_top" xlink:title=" ">
<polygon fill="white" stroke="black" points="193.39,-56.5 193.39,-75.5 250.39,-75.5 250.39,-56.5 193.39,-56.5"/>
<text text-anchor="middle" x="221.89" y="-63.5" font-family="Helvetica,sans-Serif" font-size="10.00">utility.hpp</text>
</a>
</g>
</g>
<!-- Node4&#45;&gt;Node5 -->
<g id="edge4" class="edge">
<title>Node4&#45;&gt;Node5</title>
<path fill="none" stroke="midnightblue" d="M290.72,-112.32C278.05,-103.98 258.66,-91.21 243.69,-81.35"/>
<polygon fill="midnightblue" stroke="midnightblue" points="245.31,-78.23 235.03,-75.65 241.46,-84.08 245.31,-78.23"/>
</g>
<!-- Node4&#45;&gt;Node8 -->
<g id="edge7" class="edge">
<title>Node4&#45;&gt;Node8</title>
<path fill="none" stroke="midnightblue" d="M310.17,-112.08C315.53,-104.46 323.41,-93.26 329.97,-83.94"/>
<polygon fill="midnightblue" stroke="midnightblue" points="332.84,-85.94 335.73,-75.75 327.12,-81.91 332.84,-85.94"/>
</g>
<!-- Node4&#45;&gt;Node9 -->
<g id="edge8" class="edge">
<title>Node4&#45;&gt;Node9</title>
<path fill="none" stroke="midnightblue" d="M352.5,-114.91C441.25,-103.79 627.34,-80.48 702.44,-71.07"/>
<polygon fill="midnightblue" stroke="midnightblue" points="703.2,-74.5 712.69,-69.78 702.33,-67.55 703.2,-74.5"/>
</g>
<!-- Node5&#45;&gt;Node6 -->
<g id="edge5" class="edge">
<title>Node5&#45;&gt;Node6</title>
<path fill="none" stroke="midnightblue" d="M250.68,-58.27C292.17,-48.57 368.84,-30.65 414.92,-19.88"/>
<polygon fill="midnightblue" stroke="midnightblue" points="415.89,-23.25 424.83,-17.56 414.29,-16.43 415.89,-23.25"/>
</g>
<!-- Node5&#45;&gt;Node7 -->
<g id="edge6" class="edge">
<title>Node5&#45;&gt;Node7</title>
<path fill="none" stroke="midnightblue" d="M193.04,-56.8C160.68,-47.6 108,-32.63 71.73,-22.32"/>
<polygon fill="midnightblue" stroke="midnightblue" points="72.54,-18.91 61.96,-19.55 70.63,-25.65 72.54,-18.91"/>
</g>
<!-- Node10&#45;&gt;Node5 -->
<g id="edge10" class="edge">
<title>Node10&#45;&gt;Node5</title>
<path fill="none" stroke="midnightblue" d="M96.5,-112.44C121.35,-103.44 160.67,-89.19 188.65,-79.05"/>
<polygon fill="midnightblue" stroke="midnightblue" points="190.18,-82.21 198.39,-75.52 187.8,-75.63 190.18,-82.21"/>
</g>
<!-- Node10&#45;&gt;Node7 -->
<g id="edge13" class="edge">
<title>Node10&#45;&gt;Node7</title>
<path fill="none" stroke="midnightblue" d="M68.05,-112.24C63.26,-103.31 55.92,-88.97 50.89,-76 44.92,-60.58 39.78,-42.49 36.35,-29.31"/>
<polygon fill="midnightblue" stroke="midnightblue" points="39.73,-28.41 33.9,-19.57 32.95,-30.12 39.73,-28.41"/>
</g>
<!-- Node10&#45;&gt;Node11 -->
<g id="edge11" class="edge">
<title>Node10&#45;&gt;Node11</title>
<path fill="none" stroke="midnightblue" d="M84.62,-112.32C95.73,-104.11 112.63,-91.6 125.88,-81.81"/>
<polygon fill="midnightblue" stroke="midnightblue" points="127.99,-84.59 133.95,-75.83 123.83,-78.97 127.99,-84.59"/>
</g>
<!-- Node12 -->
<g id="node12" class="node">
<title>Node12</title>
<g id="a_node12"><a xlink:title=" ">
<polygon fill="white" stroke="#bfbfbf" points="59.89,-56.5 59.89,-75.5 97.89,-75.5 97.89,-56.5 59.89,-56.5"/>
<text text-anchor="middle" x="78.89" y="-63.5" font-family="Helvetica,sans-Serif" font-size="10.00">tuple</text>
</a>
</g>
</g>
<!-- Node10&#45;&gt;Node12 -->
<g id="edge12" class="edge">
<title>Node10&#45;&gt;Node12</title>
<path fill="none" stroke="midnightblue" d="M73.88,-112.08C74.68,-104.93 75.82,-94.64 76.82,-85.69"/>
<polygon fill="midnightblue" stroke="midnightblue" points="80.29,-86.08 77.92,-75.75 73.34,-85.3 80.29,-86.08"/>
</g>
<!-- Node13&#45;&gt;Node5 -->
<g id="edge15" class="edge">
<title>Node13&#45;&gt;Node5</title>
<path fill="none" stroke="midnightblue" d="M211.04,-112.08C212.76,-104.93 215.24,-94.64 217.39,-85.69"/>
<polygon fill="midnightblue" stroke="midnightblue" points="220.85,-86.29 219.79,-75.75 214.04,-84.65 220.85,-86.29"/>
</g>
</g>
</svg>
