<?xml version="1.0" encoding="UTF-8" standalone="no"?>
<!DOCTYPE svg PUBLIC "-//W3C//DTD SVG 1.1//EN"
 "http://www.w3.org/Graphics/SVG/1.1/DTD/svg11.dtd">
<!-- Generated by graphviz version 3.0.0 (20221109.1736)
 -->
<!-- Title: /github/workspace/test/format.cpp Pages: 1 -->
<!--zoomable 375 -->
<svg id="main" version="1.1" xmlns="http://www.w3.org/2000/svg" xmlns:xlink="http://www.w3.org/1999/xlink" xml:space="preserve" onload="init(evt)">
<style type="text/css"><![CDATA[
.edge:hover path { stroke: red; }
.edge:hover polygon { stroke: red; fill: red; }
]]></style>
<script type="text/javascript"><![CDATA[
var edges = document.getElementsByTagName('g');
if (edges && edges.length) {
  for (var i=0;i<edges.length;i++) {
    if (edges[i].id.substr(0,4)=='edge') {
      edges[i].setAttribute('class','edge');
    }
  }
}
]]></script>
        <defs>
                <circle id="rim" cx="0" cy="0" r="7"/>
                <circle id="rim2" cx="0" cy="0" r="3.5"/>
                <g id="zoomPlus">
                        <use xlink:href="#rim" fill="#404040">
                                <set attributeName="fill" to="#808080" begin="zoomplus.mouseover" end="zoomplus.mouseout"/>
                        </use>
                        <path d="M-4,0h8M0,-4v8" fill="none" stroke="white" stroke-width="1.5" pointer-events="none"/>
                </g>
                <g id="zoomMin">
                        <use xlink:href="#rim" fill="#404040">
                                <set attributeName="fill" to="#808080" begin="zoomminus.mouseover" end="zoomminus.mouseout"/>
                        </use>
                        <path d="M-4,0h8" fill="none" stroke="white" stroke-width="1.5" pointer-events="none"/>
                </g>
                <g id="dirArrow">
                        <path fill="none" stroke="white" stroke-width="1.5" d="M0,-3.0v7 M-2.5,-0.5L0,-3.0L2.5,-0.5"/>
                </g>
               <g id="resetDef">
                       <use xlink:href="#rim2" fill="#404040">
                               <set attributeName="fill" to="#808080" begin="reset.mouseover" end="reset.mouseout"/>
                       </use>
               </g>
        </defs>

<script type="text/javascript">
var viewWidth = 565;
var viewHeight = 375;
var sectionId = 'dynsection-0';
</script>
<script xlink:href="svgpan.js"/>
<svg id="graph" class="graph">
<g id="viewport">
<title>/github/workspace/test/format.cpp</title>
<polygon fill="white" stroke="transparent" points="-4,4 -4,-371 561.49,-371 561.49,4 -4,4"/>
<!-- Node1 -->
<g id="node1" class="node">
<title>Node1</title>
<g id="a_node1"><a xlink:title=" ">
<polygon fill="#bfbfbf" stroke="black" points="421.99,-336.5 421.99,-366.5 537.99,-366.5 537.99,-336.5 421.99,-336.5"/>
<text text-anchor="start" x="429.99" y="-354.5" font-family="Helvetica,sans-Serif" font-size="10.00">/github/workspace/test</text>
<text text-anchor="middle" x="479.99" y="-343.5" font-family="Helvetica,sans-Serif" font-size="10.00">/format.cpp</text>
</a>
</g>
</g>
<!-- Node2 -->
<g id="node2" class="node">
<title>Node2</title>
<g id="a_node2"><a xlink:href="kalman_8hpp.xhtml" target="_top" xlink:title="The Kalman library top&#45;level header.">
<polygon fill="white" stroke="black" points="296.49,-280.5 296.49,-299.5 403.49,-299.5 403.49,-280.5 296.49,-280.5"/>
<text text-anchor="middle" x="349.99" y="-287.5" font-family="Helvetica,sans-Serif" font-size="10.00">fcarouge/kalman.hpp</text>
</a>
</g>
</g>
<!-- Node1&#45;&gt;Node2 -->
<g id="edge1" class="edge">
<title>Node1&#45;&gt;Node2</title>
<path fill="none" stroke="midnightblue" d="M449.18,-336.4C427.66,-326.55 399.15,-313.5 378.22,-303.92"/>
<polygon fill="midnightblue" stroke="midnightblue" points="379.46,-300.64 368.91,-299.66 376.54,-307 379.46,-300.64"/>
</g>
<!-- Node10 -->
<g id="node10" class="node">
<title>Node10</title>
<g id="a_node10"><a xlink:title=" ">
<polygon fill="white" stroke="#bfbfbf" points="463.99,-56.5 463.99,-75.5 507.99,-75.5 507.99,-56.5 463.99,-56.5"/>
<text text-anchor="middle" x="485.99" y="-63.5" font-family="Helvetica,sans-Serif" font-size="10.00">format</text>
</a>
</g>
</g>
<!-- Node1&#45;&gt;Node10 -->
<g id="edge24" class="edge">
<title>Node1&#45;&gt;Node10</title>
<path fill="none" stroke="midnightblue" d="M479.99,-336.28C479.99,-314.48 479.99,-271.49 479.99,-235 479.99,-235 479.99,-235 479.99,-177 479.99,-144.9 482.57,-107.61 484.35,-85.73"/>
<polygon fill="midnightblue" stroke="midnightblue" points="487.85,-85.81 485.21,-75.55 480.88,-85.22 487.85,-85.81"/>
</g>
<!-- Node16 -->
<g id="node16" class="node">
<title>Node16</title>
<g id="a_node16"><a xlink:title=" ">
<polygon fill="white" stroke="#bfbfbf" points="508.49,-280.5 508.49,-299.5 557.49,-299.5 557.49,-280.5 508.49,-280.5"/>
<text text-anchor="middle" x="532.99" y="-287.5" font-family="Helvetica,sans-Serif" font-size="10.00">cassert</text>
</a>
</g>
</g>
<!-- Node1&#45;&gt;Node16 -->
<g id="edge23" class="edge">
<title>Node1&#45;&gt;Node16</title>
<path fill="none" stroke="midnightblue" d="M492.55,-336.4C500.33,-327.66 510.35,-316.41 518.47,-307.3"/>
<polygon fill="midnightblue" stroke="midnightblue" points="521.24,-309.45 525.28,-299.66 516.01,-304.8 521.24,-309.45"/>
</g>
<!-- Node3 -->
<g id="node3" class="node">
<title>Node3</title>
<g id="a_node3"><a xlink:href="algorithm_8hpp.xhtml" target="_top" xlink:title="The collection of Kalman algorithms.">
<polygon fill="white" stroke="black" points="362.99,-224.5 362.99,-243.5 436.99,-243.5 436.99,-224.5 362.99,-224.5"/>
<text text-anchor="middle" x="399.99" y="-231.5" font-family="Helvetica,sans-Serif" font-size="10.00">algorithm.hpp</text>
</a>
</g>
</g>
<!-- Node2&#45;&gt;Node3 -->
<g id="edge2" class="edge">
<title>Node2&#45;&gt;Node3</title>
<path fill="none" stroke="midnightblue" d="M358.25,-280.08C365.45,-272.3 376.1,-260.8 384.84,-251.37"/>
<polygon fill="midnightblue" stroke="midnightblue" points="387.66,-253.47 391.89,-243.75 382.52,-248.71 387.66,-253.47"/>
</g>
<!-- Node4 -->
<g id="node4" class="node">
<title>Node4</title>
<g id="a_node4"><a xlink:href="filter_8hpp.xhtml" target="_top" xlink:title="The Kalman filter class.">
<polygon fill="white" stroke="black" points="198.49,-168.5 198.49,-187.5 251.49,-187.5 251.49,-168.5 198.49,-168.5"/>
<text text-anchor="middle" x="224.99" y="-175.5" font-family="Helvetica,sans-Serif" font-size="10.00">filter.hpp</text>
</a>
</g>
</g>
<!-- Node2&#45;&gt;Node4 -->
<g id="edge3" class="edge">
<title>Node2&#45;&gt;Node4</title>
<path fill="none" stroke="midnightblue" d="M308.44,-280.46C286.46,-273.93 260.66,-262.75 243.99,-244 232.65,-231.24 228.06,-212.05 226.21,-197.82"/>
<polygon fill="midnightblue" stroke="midnightblue" points="229.68,-197.32 225.24,-187.7 222.71,-197.98 229.68,-197.32"/>
</g>
<!-- Node15 -->
<g id="node15" class="node">
<title>Node15</title>
<g id="a_node15"><a xlink:href="detail_8hpp.xhtml" target="_top" xlink:title=" ">
<polygon fill="white" stroke="black" points="252.99,-224.5 252.99,-243.5 344.99,-243.5 344.99,-224.5 252.99,-224.5"/>
<text text-anchor="middle" x="298.99" y="-231.5" font-family="Helvetica,sans-Serif" font-size="10.00">internal/detail.hpp</text>
</a>
</g>
</g>
<!-- Node2&#45;&gt;Node15 -->
<g id="edge21" class="edge">
<title>Node2&#45;&gt;Node15</title>
<path fill="none" stroke="midnightblue" d="M341.57,-280.08C334.14,-272.22 323.14,-260.57 314.18,-251.08"/>
<polygon fill="midnightblue" stroke="midnightblue" points="316.67,-248.62 307.25,-243.75 311.58,-253.42 316.67,-248.62"/>
</g>
<!-- Node5 -->
<g id="node5" class="node">
<title>Node5</title>
<g id="a_node5"><a xlink:href="format_8hpp.xhtml" target="_top" xlink:title=" ">
<polygon fill="white" stroke="black" points="253.49,-112.5 253.49,-131.5 350.49,-131.5 350.49,-112.5 253.49,-112.5"/>
<text text-anchor="middle" x="301.99" y="-119.5" font-family="Helvetica,sans-Serif" font-size="10.00">internal/format.hpp</text>
</a>
</g>
</g>
<!-- Node4&#45;&gt;Node5 -->
<g id="edge4" class="edge">
<title>Node4&#45;&gt;Node5</title>
<path fill="none" stroke="midnightblue" d="M237.36,-168.32C249.15,-160.06 267.12,-147.45 281.13,-137.63"/>
<polygon fill="midnightblue" stroke="midnightblue" points="283.47,-140.26 289.65,-131.65 279.45,-134.53 283.47,-140.26"/>
</g>
<!-- Node6 -->
<g id="node6" class="node">
<title>Node6</title>
<g id="a_node6"><a xlink:href="utility_8hpp.xhtml" target="_top" xlink:title=" ">
<polygon fill="white" stroke="black" points="183.49,-56.5 183.49,-75.5 240.49,-75.5 240.49,-56.5 183.49,-56.5"/>
<text text-anchor="middle" x="211.99" y="-63.5" font-family="Helvetica,sans-Serif" font-size="10.00">utility.hpp</text>
</a>
</g>
</g>
<!-- Node4&#45;&gt;Node6 -->
<g id="edge15" class="edge">
<title>Node4&#45;&gt;Node6</title>
<path fill="none" stroke="midnightblue" d="M221.39,-168.22C217.93,-159.28 212.96,-144.94 210.99,-132 208.66,-116.64 209.12,-99 210.05,-85.98"/>
<polygon fill="midnightblue" stroke="midnightblue" points="213.55,-86.16 210.93,-75.89 206.57,-85.55 213.55,-86.16"/>
</g>
<!-- Node7 -->
<g id="node7" class="node">
<title>Node7</title>
<g id="a_node7"><a xlink:title=" ">
<polygon fill="white" stroke="#bfbfbf" points="305.99,-0.5 305.99,-19.5 361.99,-19.5 361.99,-0.5 305.99,-0.5"/>
<text text-anchor="middle" x="333.99" y="-7.5" font-family="Helvetica,sans-Serif" font-size="10.00">concepts</text>
</a>
</g>
</g>
<!-- Node4&#45;&gt;Node7 -->
<g id="edge16" class="edge">
<title>Node4&#45;&gt;Node7</title>
<path fill="none" stroke="midnightblue" d="M251.53,-174.76C299.29,-170.13 396.63,-157.69 416.99,-132 446.19,-95.17 390.18,-48.57 356.62,-25.42"/>
<polygon fill="midnightblue" stroke="midnightblue" points="358.5,-22.46 348.24,-19.8 354.6,-28.28 358.5,-22.46"/>
</g>
<!-- Node8 -->
<g id="node8" class="node">
<title>Node8</title>
<g id="a_node8"><a xlink:title=" ">
<polygon fill="white" stroke="#bfbfbf" points="123.99,-0.5 123.99,-19.5 185.99,-19.5 185.99,-0.5 123.99,-0.5"/>
<text text-anchor="middle" x="154.99" y="-7.5" font-family="Helvetica,sans-Serif" font-size="10.00">type_traits</text>
</a>
</g>
</g>
<!-- Node4&#45;&gt;Node8 -->
<g id="edge19" class="edge">
<title>Node4&#45;&gt;Node8</title>
<path fill="none" stroke="midnightblue" d="M198.21,-176.92C158.98,-175.51 85.2,-167.84 35.99,-132 12.45,-114.86 9.84,-104.04 1.99,-76 -11.51,-27.74 63.7,-15.04 113.49,-11.87"/>
<polygon fill="midnightblue" stroke="midnightblue" points="113.88,-15.35 123.68,-11.33 113.51,-8.36 113.88,-15.35"/>
</g>
<!-- Node9 -->
<g id="node9" class="node">
<title>Node9</title>
<g id="a_node9"><a xlink:title=" ">
<polygon fill="white" stroke="#bfbfbf" points="267.49,-56.5 267.49,-75.5 316.49,-75.5 316.49,-56.5 267.49,-56.5"/>
<text text-anchor="middle" x="291.99" y="-63.5" font-family="Helvetica,sans-Serif" font-size="10.00">cstddef</text>
</a>
</g>
</g>
<!-- Node4&#45;&gt;Node9 -->
<g id="edge17" class="edge">
<title>Node4&#45;&gt;Node9</title>
<path fill="none" stroke="midnightblue" d="M226.21,-168.43C228.36,-155.43 233.71,-130.29 244.99,-112 252.06,-100.55 262.72,-90.01 272.11,-82.02"/>
<polygon fill="midnightblue" stroke="midnightblue" points="274.34,-84.71 279.9,-75.69 269.93,-79.27 274.34,-84.71"/>
</g>
<!-- Node11 -->
<g id="node11" class="node">
<title>Node11</title>
<g id="a_node11"><a xlink:href="internal_2kalman_8hpp.xhtml" target="_top" xlink:title=" ">
<polygon fill="white" stroke="black" points="57.49,-112.5 57.49,-131.5 158.49,-131.5 158.49,-112.5 57.49,-112.5"/>
<text text-anchor="middle" x="107.99" y="-119.5" font-family="Helvetica,sans-Serif" font-size="10.00">internal/kalman.hpp</text>
</a>
</g>
</g>
<!-- Node4&#45;&gt;Node11 -->
<g id="edge10" class="edge">
<title>Node4&#45;&gt;Node11</title>
<path fill="none" stroke="midnightblue" d="M206.45,-168.44C187.37,-159.64 157.41,-145.81 135.55,-135.72"/>
<polygon fill="midnightblue" stroke="midnightblue" points="136.99,-132.53 126.44,-131.52 134.05,-138.88 136.99,-132.53"/>
</g>
<!-- Node12 -->
<g id="node12" class="node">
<title>Node12</title>
<g id="a_node12"><a xlink:title=" ">
<polygon fill="white" stroke="#bfbfbf" points="11.49,-56.5 11.49,-75.5 70.49,-75.5 70.49,-56.5 11.49,-56.5"/>
<text text-anchor="middle" x="40.99" y="-63.5" font-family="Helvetica,sans-Serif" font-size="10.00">functional</text>
</a>
</g>
</g>
<!-- Node4&#45;&gt;Node12 -->
<g id="edge18" class="edge">
<title>Node4&#45;&gt;Node12</title>
<path fill="none" stroke="midnightblue" d="M198.29,-173.93C153.82,-168.23 67.52,-154.51 47.99,-132 37.19,-119.55 36.39,-100.32 37.72,-86"/>
<polygon fill="midnightblue" stroke="midnightblue" points="41.23,-86.17 39.09,-75.79 34.29,-85.23 41.23,-86.17"/>
</g>
<!-- Node14 -->
<g id="node14" class="node">
<title>Node14</title>
<g id="a_node14"><a xlink:title=" ">
<polygon fill="white" stroke="#bfbfbf" points="368.49,-112.5 368.49,-131.5 407.49,-131.5 407.49,-112.5 368.49,-112.5"/>
<text text-anchor="middle" x="387.99" y="-119.5" font-family="Helvetica,sans-Serif" font-size="10.00">utility</text>
</a>
</g>
</g>
<!-- Node4&#45;&gt;Node14 -->
<g id="edge20" class="edge">
<title>Node4&#45;&gt;Node14</title>
<path fill="none" stroke="midnightblue" d="M250.82,-168.44C280.17,-158.72 327.99,-142.88 358.71,-132.7"/>
<polygon fill="midnightblue" stroke="midnightblue" points="360.03,-135.95 368.42,-129.48 357.83,-129.31 360.03,-135.95"/>
</g>
<!-- Node5&#45;&gt;Node6 -->
<g id="edge5" class="edge">
<title>Node5&#45;&gt;Node6</title>
<path fill="none" stroke="midnightblue" d="M287.53,-112.32C273.49,-103.9 251.94,-90.97 235.45,-81.07"/>
<polygon fill="midnightblue" stroke="midnightblue" points="236.79,-77.8 226.41,-75.65 233.19,-83.8 236.79,-77.8"/>
</g>
<!-- Node5&#45;&gt;Node9 -->
<g id="edge8" class="edge">
<title>Node5&#45;&gt;Node9</title>
<path fill="none" stroke="midnightblue" d="M300.34,-112.08C299.01,-104.93 297.11,-94.64 295.45,-85.69"/>
<polygon fill="midnightblue" stroke="midnightblue" points="298.87,-84.95 293.61,-75.75 291.99,-86.22 298.87,-84.95"/>
</g>
<!-- Node5&#45;&gt;Node10 -->
<g id="edge9" class="edge">
<title>Node5&#45;&gt;Node10</title>
<path fill="none" stroke="midnightblue" d="M331.15,-112.44C364.72,-102.59 419.67,-86.46 454.29,-76.3"/>
<polygon fill="midnightblue" stroke="midnightblue" points="455.29,-79.66 463.9,-73.48 453.32,-72.94 455.29,-79.66"/>
</g>
<!-- Node6&#45;&gt;Node7 -->
<g id="edge6" class="edge">
<title>Node6&#45;&gt;Node7</title>
<path fill="none" stroke="midnightblue" d="M231.32,-56.44C251.31,-47.6 282.73,-33.69 305.55,-23.59"/>
<polygon fill="midnightblue" stroke="midnightblue" points="307.02,-26.76 314.75,-19.52 304.19,-20.36 307.02,-26.76"/>
</g>
<!-- Node6&#45;&gt;Node8 -->
<g id="edge7" class="edge">
<title>Node6&#45;&gt;Node8</title>
<path fill="none" stroke="midnightblue" d="M202.83,-56.32C194.49,-48.42 181.96,-36.55 171.81,-26.94"/>
<polygon fill="midnightblue" stroke="midnightblue" points="173.98,-24.17 164.31,-19.83 169.17,-29.25 173.98,-24.17"/>
</g>
<!-- Node11&#45;&gt;Node6 -->
<g id="edge11" class="edge">
<title>Node11&#45;&gt;Node6</title>
<path fill="none" stroke="midnightblue" d="M124.7,-112.32C141.3,-103.7 166.99,-90.36 186.21,-80.39"/>
<polygon fill="midnightblue" stroke="midnightblue" points="188.06,-83.37 195.32,-75.65 184.83,-77.16 188.06,-83.37"/>
</g>
<!-- Node11&#45;&gt;Node8 -->
<g id="edge14" class="edge">
<title>Node11&#45;&gt;Node8</title>
<path fill="none" stroke="midnightblue" d="M114.31,-112.43C120.54,-103.66 129.98,-89.44 135.99,-76 142.74,-60.91 147.81,-42.78 151,-29.51"/>
<polygon fill="midnightblue" stroke="midnightblue" points="154.43,-30.2 153.24,-19.68 147.61,-28.65 154.43,-30.2"/>
</g>
<!-- Node11&#45;&gt;Node12 -->
<g id="edge12" class="edge">
<title>Node11&#45;&gt;Node12</title>
<path fill="none" stroke="midnightblue" d="M97.23,-112.32C87.22,-104.26 72.1,-92.08 60.06,-82.37"/>
<polygon fill="midnightblue" stroke="midnightblue" points="61.93,-79.38 51.95,-75.83 57.54,-84.83 61.93,-79.38"/>
</g>
<!-- Node13 -->
<g id="node13" class="node">
<title>Node13</title>
<g id="a_node13"><a xlink:title=" ">
<polygon fill="white" stroke="#bfbfbf" points="88.99,-56.5 88.99,-75.5 126.99,-75.5 126.99,-56.5 88.99,-56.5"/>
<text text-anchor="middle" x="107.99" y="-63.5" font-family="Helvetica,sans-Serif" font-size="10.00">tuple</text>
</a>
</g>
</g>
<!-- Node11&#45;&gt;Node13 -->
<g id="edge13" class="edge">
<title>Node11&#45;&gt;Node13</title>
<path fill="none" stroke="midnightblue" d="M107.99,-112.08C107.99,-105.01 107.99,-94.86 107.99,-85.99"/>
<polygon fill="midnightblue" stroke="midnightblue" points="111.49,-85.75 107.99,-75.75 104.49,-85.75 111.49,-85.75"/>
</g>
<!-- Node15&#45;&gt;Node4 -->
<g id="edge22" class="edge">
<title>Node15&#45;&gt;Node4</title>
<path fill="none" stroke="midnightblue" d="M287.1,-224.32C275.84,-216.11 258.7,-203.6 245.28,-193.81"/>
<polygon fill="midnightblue" stroke="midnightblue" points="247.24,-190.9 237.1,-187.83 243.11,-196.56 247.24,-190.9"/>
</g>
</g>
</svg>
        <g id="navigator" transform="translate(0 0)" fill="#404254">
                <rect fill="#f2f5e9" fill-opacity="0.5" stroke="#606060" stroke-width=".5" x="0" y="0" width="60" height="60"/>
                <use id="zoomplus" xlink:href="#zoomPlus" x="17" y="9" onmousedown="handleZoom(evt,'in')"/>
                <use id="zoomminus" xlink:href="#zoomMin" x="42" y="9" onmousedown="handleZoom(evt,'out')"/>
                <use id="reset" xlink:href="#resetDef" x="30" y="36" onmousedown="handleReset()"/>
                <g id="arrowUp" xlink:href="#dirArrow" transform="translate(30 24)" onmousedown="handlePan(0,-1)">
                  <use xlink:href="#rim" fill="#404040">
                        <set attributeName="fill" to="#808080" begin="arrowUp.mouseover" end="arrowUp.mouseout"/>
                  </use>
                  <path fill="none" stroke="white" stroke-width="1.5" d="M0,-3.0v7 M-2.5,-0.5L0,-3.0L2.5,-0.5"/>
                </g>
                <g id="arrowRight" xlink:href="#dirArrow" transform="rotate(90) translate(36 -43)" onmousedown="handlePan(1,0)">
                  <use xlink:href="#rim" fill="#404040">
                        <set attributeName="fill" to="#808080" begin="arrowRight.mouseover" end="arrowRight.mouseout"/>
                  </use>
                  <path fill="none" stroke="white" stroke-width="1.5" d="M0,-3.0v7 M-2.5,-0.5L0,-3.0L2.5,-0.5"/>
                </g>
                <g id="arrowDown" xlink:href="#dirArrow" transform="rotate(180) translate(-30 -48)" onmousedown="handlePan(0,1)">
                  <use xlink:href="#rim" fill="#404040">
                        <set attributeName="fill" to="#808080" begin="arrowDown.mouseover" end="arrowDown.mouseout"/>
                  </use>
                  <path fill="none" stroke="white" stroke-width="1.5" d="M0,-3.0v7 M-2.5,-0.5L0,-3.0L2.5,-0.5"/>
                </g>
                <g id="arrowLeft" xlink:href="#dirArrow" transform="rotate(270) translate(-36 17)" onmousedown="handlePan(-1,0)">
                  <use xlink:href="#rim" fill="#404040">
                        <set attributeName="fill" to="#808080" begin="arrowLeft.mouseover" end="arrowLeft.mouseout"/>
                  </use>
                  <path fill="none" stroke="white" stroke-width="1.5" d="M0,-3.0v7 M-2.5,-0.5L0,-3.0L2.5,-0.5"/>
                </g>
        </g>
        <svg viewBox="0 0 15 15" width="100%" height="30px" preserveAspectRatio="xMaxYMin meet">
         <g id="arrow_out" transform="scale(0.3 0.3)">
          <a xlink:href="format_8cpp__incl_org.svg" target="_base">
           <rect id="button" ry="5" rx="5" y="6" x="6" height="38" width="38"
                fill="#f2f5e9" fill-opacity="0.5" stroke="#606060" stroke-width="1.0"/>
           <path id="arrow"
             d="M 11.500037,31.436501 C 11.940474,20.09759 22.043105,11.32322 32.158766,21.979434 L 37.068811,17.246167 C 37.068811,17.246167 37.088388,32 37.088388,32 L 22.160133,31.978069 C 22.160133,31.978069 26.997745,27.140456 26.997745,27.140456 C 18.528582,18.264221 13.291696,25.230495 11.500037,31.436501 z"
             style="fill:#404040;"/>
          </a>
         </g>
        </svg>
</svg>
