<?xml version="1.0" encoding="UTF-8" standalone="no"?>
<!DOCTYPE svg PUBLIC "-//W3C//DTD SVG 1.1//EN"
 "http://www.w3.org/Graphics/SVG/1.1/DTD/svg11.dtd">
<!-- Generated by graphviz version 3.0.0 (20220413.0242)
 -->
<!-- Title: include/fcarouge/internal/format.hpp Pages: 1 -->
<!--zoomable 229 -->
<svg id="main" version="1.1" xmlns="http://www.w3.org/2000/svg" xmlns:xlink="http://www.w3.org/1999/xlink" xml:space="preserve" onload="init(evt)">
<style type="text/css"><![CDATA[
.edge:hover path { stroke: red; }
.edge:hover polygon { stroke: red; fill: red; }
]]></style>
<script type="text/javascript"><![CDATA[
var edges = document.getElementsByTagName('g');
if (edges && edges.length) {
  for (var i=0;i<edges.length;i++) {
    if (edges[i].id.substr(0,4)=='edge') {
      edges[i].setAttribute('class','edge');
    }
  }
}
]]></script>
        <defs>
                <circle id="rim" cx="0" cy="0" r="7"/>
                <circle id="rim2" cx="0" cy="0" r="3.5"/>
                <g id="zoomPlus">
                        <use xlink:href="#rim" fill="#404040">
                                <set attributeName="fill" to="#808080" begin="zoomplus.mouseover" end="zoomplus.mouseout"/>
                        </use>
                        <path d="M-4,0h8M0,-4v8" fill="none" stroke="white" stroke-width="1.5" pointer-events="none"/>
                </g>
                <g id="zoomMin">
                        <use xlink:href="#rim" fill="#404040">
                                <set attributeName="fill" to="#808080" begin="zoomminus.mouseover" end="zoomminus.mouseout"/>
                        </use>
                        <path d="M-4,0h8" fill="none" stroke="white" stroke-width="1.5" pointer-events="none"/>
                </g>
                <g id="dirArrow">
                        <path fill="none" stroke="white" stroke-width="1.5" d="M0,-3.0v7 M-2.5,-0.5L0,-3.0L2.5,-0.5"/>
                </g>
               <g id="resetDef">
                       <use xlink:href="#rim2" fill="#404040">
                               <set attributeName="fill" to="#808080" begin="reset.mouseover" end="reset.mouseout"/>
                       </use>
               </g>
        </defs>

<script type="text/javascript">
var viewWidth = 1540;
var viewHeight = 229;
var sectionId = 'dynsection-1';
</script>
<script xlink:href="svgpan.js"/>
<svg id="graph" class="graph">
<g id="viewport">
<title>include/fcarouge/internal/format.hpp</title>
<polygon fill="white" stroke="transparent" points="-4,4 -4,-225 1536,-225 1536,4 -4,4"/>
<!-- Node1 -->
<g id="node1" class="node">
<title>Node1</title>
<g id="a_node1"><a xlink:title=" ">
<polygon fill="#bfbfbf" stroke="black" points="837,-190.5 837,-220.5 959,-220.5 959,-190.5 837,-190.5"/>
<text text-anchor="start" x="845" y="-208.5" font-family="Helvetica,sans-Serif" font-size="10.00">include/fcarouge/internal</text>
<text text-anchor="middle" x="898" y="-197.5" font-family="Helvetica,sans-Serif" font-size="10.00">/format.hpp</text>
</a>
</g>
</g>
<!-- Node2 -->
<g id="node2" class="node">
<title>Node2</title>
<g id="a_node2"><a xlink:href="kalman_8hpp.xhtml" target="_top" xlink:title="The main Kalman filter class.">
<polygon fill="white" stroke="black" points="828,-134.5 828,-153.5 968,-153.5 968,-134.5 828,-134.5"/>
<text text-anchor="middle" x="898" y="-141.5" font-family="Helvetica,sans-Serif" font-size="10.00">include/fcarouge/kalman.hpp</text>
</a>
</g>
</g>
<!-- Node1&#45;&gt;Node2 -->
<g id="edge1" class="edge">
<title>Node1&#45;&gt;Node2</title>
<path fill="none" stroke="midnightblue" d="M898,-180.29C898,-170.86 898,-160.65 898,-153.66"/>
<polygon fill="midnightblue" stroke="midnightblue" points="894.5,-180.4 898,-190.4 901.5,-180.4 894.5,-180.4"/>
</g>
<!-- Node3 -->
<g id="node3" class="node">
<title>Node3</title>
<g id="a_node3"><a xlink:href="predict1x1x0_8cpp.xhtml" target="_top" xlink:title=" ">
<polygon fill="white" stroke="black" points="0,-73 0,-92 140,-92 140,-73 0,-73"/>
<text text-anchor="middle" x="70" y="-80" font-family="Helvetica,sans-Serif" font-size="10.00">benchmark/predict1x1x0.cpp</text>
</a>
</g>
</g>
<!-- Node2&#45;&gt;Node3 -->
<g id="edge2" class="edge">
<title>Node2&#45;&gt;Node3</title>
<path fill="none" stroke="midnightblue" d="M817.76,-141.38C680.36,-137.88 391.39,-127.42 149,-98 136.68,-96.5 123.38,-94.3 111.27,-92.05"/>
<polygon fill="midnightblue" stroke="midnightblue" points="817.7,-144.87 827.78,-141.62 817.87,-137.88 817.7,-144.87"/>
</g>
<!-- Node4 -->
<g id="node4" class="node">
<title>Node4</title>
<g id="a_node4"><a xlink:href="predict1x1x1_8cpp.xhtml" target="_top" xlink:title=" ">
<polygon fill="white" stroke="black" points="158,-73 158,-92 298,-92 298,-73 158,-73"/>
<text text-anchor="middle" x="228" y="-80" font-family="Helvetica,sans-Serif" font-size="10.00">benchmark/predict1x1x1.cpp</text>
</a>
</g>
</g>
<!-- Node2&#45;&gt;Node4 -->
<g id="edge3" class="edge">
<title>Node2&#45;&gt;Node4</title>
<path fill="none" stroke="midnightblue" d="M817.67,-139.57C703.72,-134.11 488.77,-121.54 307,-98 294.83,-96.42 281.69,-94.22 269.69,-92"/>
<polygon fill="midnightblue" stroke="midnightblue" points="817.55,-143.07 827.7,-140.05 817.88,-136.08 817.55,-143.07"/>
</g>
<!-- Node5 -->
<g id="node5" class="node">
<title>Node5</title>
<g id="a_node5"><a xlink:href="update1x1x0_8cpp.xhtml" target="_top" xlink:title=" ">
<polygon fill="white" stroke="black" points="316,-73 316,-92 456,-92 456,-73 316,-73"/>
<text text-anchor="middle" x="386" y="-80" font-family="Helvetica,sans-Serif" font-size="10.00">benchmark/update1x1x0.cpp</text>
</a>
</g>
</g>
<!-- Node2&#45;&gt;Node5 -->
<g id="edge4" class="edge">
<title>Node2&#45;&gt;Node5</title>
<path fill="none" stroke="midnightblue" d="M817.59,-136.53C730.48,-129.09 587.52,-115.58 465,-98 453.27,-96.32 440.62,-94.15 428.95,-92.01"/>
<polygon fill="midnightblue" stroke="midnightblue" points="817.41,-140.03 827.67,-137.39 818,-133.05 817.41,-140.03"/>
</g>
<!-- Node6 -->
<g id="node6" class="node">
<title>Node6</title>
<g id="a_node6"><a xlink:href="update1x1x1_8cpp.xhtml" target="_top" xlink:title=" ">
<polygon fill="white" stroke="black" points="474,-73 474,-92 614,-92 614,-73 474,-73"/>
<text text-anchor="middle" x="544" y="-80" font-family="Helvetica,sans-Serif" font-size="10.00">benchmark/update1x1x1.cpp</text>
</a>
</g>
</g>
<!-- Node2&#45;&gt;Node6 -->
<g id="edge5" class="edge">
<title>Node2&#45;&gt;Node6</title>
<path fill="none" stroke="midnightblue" d="M833.85,-132.86C778.08,-123.96 695.13,-110.52 623,-98 612.15,-96.12 600.47,-94.01 589.51,-92.01"/>
<polygon fill="midnightblue" stroke="midnightblue" points="833.52,-136.35 843.94,-134.47 834.62,-129.44 833.52,-136.35"/>
</g>
<!-- Node7 -->
<g id="node7" class="node">
<title>Node7</title>
<g id="a_node7"><a xlink:href="eigen_2kalman_8hpp.xhtml" target="_top" xlink:title="Kalman operation for Eigen 3 types.">
<polygon fill="white" stroke="black" points="632,-67.5 632,-97.5 746,-97.5 746,-67.5 632,-67.5"/>
<text text-anchor="start" x="640" y="-85.5" font-family="Helvetica,sans-Serif" font-size="10.00">include/fcarouge/eigen</text>
<text text-anchor="middle" x="689" y="-74.5" font-family="Helvetica,sans-Serif" font-size="10.00">/kalman.hpp</text>
</a>
</g>
</g>
<!-- Node2&#45;&gt;Node7 -->
<g id="edge6" class="edge">
<title>Node2&#45;&gt;Node7</title>
<path fill="none" stroke="midnightblue" d="M858.43,-131.73C824.32,-122.02 774.92,-107.96 738.26,-97.52"/>
<polygon fill="midnightblue" stroke="midnightblue" points="857.48,-135.1 868.06,-134.48 859.4,-128.37 857.48,-135.1"/>
</g>
<!-- Node15 -->
<g id="node15" class="node">
<title>Node15</title>
<g id="a_node15"><a xlink:href="kf__1x1x0__building__height_8cpp.xhtml" target="_top" xlink:title=" ">
<polygon fill="white" stroke="black" points="764,-67.5 764,-97.5 892,-97.5 892,-67.5 764,-67.5"/>
<text text-anchor="start" x="772" y="-85.5" font-family="Helvetica,sans-Serif" font-size="10.00">sample/kf_1x1x0_building</text>
<text text-anchor="middle" x="828" y="-74.5" font-family="Helvetica,sans-Serif" font-size="10.00">_height.cpp</text>
</a>
</g>
</g>
<!-- Node2&#45;&gt;Node15 -->
<g id="edge14" class="edge">
<title>Node2&#45;&gt;Node15</title>
<path fill="none" stroke="midnightblue" d="M880.26,-127.92C869.27,-118.58 855.25,-106.66 844.5,-97.52"/>
<polygon fill="midnightblue" stroke="midnightblue" points="878.08,-130.67 887.97,-134.48 882.62,-125.33 878.08,-130.67"/>
</g>
<!-- Node16 -->
<g id="node16" class="node">
<title>Node16</title>
<g id="a_node16"><a xlink:href="kf__1x1x0__liquid__temperature_8cpp.xhtml" target="_top" xlink:title=" ">
<polygon fill="white" stroke="black" points="910.5,-67.5 910.5,-97.5 1027.5,-97.5 1027.5,-67.5 910.5,-67.5"/>
<text text-anchor="start" x="918.5" y="-85.5" font-family="Helvetica,sans-Serif" font-size="10.00">sample/kf_1x1x0_liquid</text>
<text text-anchor="middle" x="969" y="-74.5" font-family="Helvetica,sans-Serif" font-size="10.00">_temperature.cpp</text>
</a>
</g>
</g>
<!-- Node2&#45;&gt;Node16 -->
<g id="edge15" class="edge">
<title>Node2&#45;&gt;Node16</title>
<path fill="none" stroke="midnightblue" d="M915.99,-127.92C927.14,-118.58 941.36,-106.66 952.27,-97.52"/>
<polygon fill="midnightblue" stroke="midnightblue" points="913.59,-125.37 908.17,-134.48 918.09,-130.73 913.59,-125.37"/>
</g>
<!-- Node17 -->
<g id="node17" class="node">
<title>Node17</title>
<g id="a_node17"><a xlink:href="kf__1x1x1__dog__position_8cpp.xhtml" target="_top" xlink:title=" ">
<polygon fill="white" stroke="black" points="1046,-67.5 1046,-97.5 1156,-97.5 1156,-67.5 1046,-67.5"/>
<text text-anchor="start" x="1054" y="-85.5" font-family="Helvetica,sans-Serif" font-size="10.00">sample/kf_1x1x1_dog</text>
<text text-anchor="middle" x="1101" y="-74.5" font-family="Helvetica,sans-Serif" font-size="10.00">_position.cpp</text>
</a>
</g>
</g>
<!-- Node2&#45;&gt;Node17 -->
<g id="edge16" class="edge">
<title>Node2&#45;&gt;Node17</title>
<path fill="none" stroke="midnightblue" d="M936.86,-131.61C969.98,-121.9 1017.7,-107.92 1053.16,-97.52"/>
<polygon fill="midnightblue" stroke="midnightblue" points="935.7,-128.3 927.08,-134.48 937.67,-135.02 935.7,-128.3"/>
</g>
<!-- Node18 -->
<g id="node18" class="node">
<title>Node18</title>
<g id="a_node18"><a xlink:href="f_8cpp.xhtml" target="_top" xlink:title=" ">
<polygon fill="white" stroke="black" points="1174.5,-73 1174.5,-92 1231.5,-92 1231.5,-73 1174.5,-73"/>
<text text-anchor="middle" x="1203" y="-80" font-family="Helvetica,sans-Serif" font-size="10.00">test/f.cpp</text>
</a>
</g>
</g>
<!-- Node2&#45;&gt;Node18 -->
<g id="edge17" class="edge">
<title>Node2&#45;&gt;Node18</title>
<path fill="none" stroke="midnightblue" d="M978.35,-133.67C1031.83,-126.44 1103.32,-114.79 1165,-98 1170.86,-96.41 1177.07,-94.25 1182.74,-92.08"/>
<polygon fill="midnightblue" stroke="midnightblue" points="977.7,-130.23 968.25,-135.02 978.62,-137.17 977.7,-130.23"/>
</g>
<!-- Node19 -->
<g id="node19" class="node">
<title>Node19</title>
<g id="a_node19"><a xlink:href="format_8cpp.xhtml" target="_top" xlink:title=" ">
<polygon fill="white" stroke="black" points="1250,-73 1250,-92 1332,-92 1332,-73 1250,-73"/>
<text text-anchor="middle" x="1291" y="-80" font-family="Helvetica,sans-Serif" font-size="10.00">test/format.cpp</text>
</a>
</g>
</g>
<!-- Node2&#45;&gt;Node19 -->
<g id="edge18" class="edge">
<title>Node2&#45;&gt;Node19</title>
<path fill="none" stroke="midnightblue" d="M978.22,-135.95C1048.1,-128.99 1151.91,-116.65 1241,-98 1248.7,-96.39 1256.94,-94.2 1264.46,-92.01"/>
<polygon fill="midnightblue" stroke="midnightblue" points="977.77,-132.48 968.16,-136.94 978.45,-139.45 977.77,-132.48"/>
</g>
<!-- Node20 -->
<g id="node20" class="node">
<title>Node20</title>
<g id="a_node20"><a xlink:href="h_8cpp.xhtml" target="_top" xlink:title=" ">
<polygon fill="white" stroke="black" points="1350.5,-73 1350.5,-92 1409.5,-92 1409.5,-73 1350.5,-73"/>
<text text-anchor="middle" x="1380" y="-80" font-family="Helvetica,sans-Serif" font-size="10.00">test/h.cpp</text>
</a>
</g>
</g>
<!-- Node2&#45;&gt;Node20 -->
<g id="edge19" class="edge">
<title>Node2&#45;&gt;Node20</title>
<path fill="none" stroke="midnightblue" d="M978.43,-140.97C1067.97,-137.29 1216.48,-126.97 1341,-98 1347.33,-96.53 1354.03,-94.3 1360.06,-92.03"/>
<polygon fill="midnightblue" stroke="midnightblue" points="978.2,-137.47 968.34,-141.36 978.47,-144.47 978.2,-137.47"/>
</g>
<!-- Node21 -->
<g id="node21" class="node">
<title>Node21</title>
<g id="a_node21"><a xlink:href="initialization_8cpp.xhtml" target="_top" xlink:title=" ">
<polygon fill="white" stroke="black" points="1428,-73 1428,-92 1532,-92 1532,-73 1428,-73"/>
<text text-anchor="middle" x="1480" y="-80" font-family="Helvetica,sans-Serif" font-size="10.00">test/initialization.cpp</text>
</a>
</g>
</g>
<!-- Node2&#45;&gt;Node21 -->
<g id="edge20" class="edge">
<title>Node2&#45;&gt;Node21</title>
<path fill="none" stroke="midnightblue" d="M978.34,-139.73C1081.06,-134.72 1264.16,-122.95 1419,-98 1428.46,-96.48 1438.62,-94.29 1447.89,-92.07"/>
<polygon fill="midnightblue" stroke="midnightblue" points="978.17,-136.24 968.35,-140.21 978.5,-143.23 978.17,-136.24"/>
</g>
<!-- Node8 -->
<g id="node8" class="node">
<title>Node8</title>
<g id="a_node8"><a xlink:href="ekf__4x1x0__ardupilot__soaring_8cpp.xhtml" target="_top" xlink:title=" ">
<polygon fill="white" stroke="black" points="189.5,-0.5 189.5,-30.5 326.5,-30.5 326.5,-0.5 189.5,-0.5"/>
<text text-anchor="start" x="197.5" y="-18.5" font-family="Helvetica,sans-Serif" font-size="10.00">sample/ekf_4x1x0_ardupilot</text>
<text text-anchor="middle" x="258" y="-7.5" font-family="Helvetica,sans-Serif" font-size="10.00">_soaring.cpp</text>
</a>
</g>
</g>
<!-- Node7&#45;&gt;Node8 -->
<g id="edge7" class="edge">
<title>Node7&#45;&gt;Node8</title>
<path fill="none" stroke="midnightblue" d="M621.7,-66.87C494.56,-45.45 459.8,-50.25 336,-31 333.01,-30.53 329.95,-30.04 326.87,-29.53"/>
<polygon fill="midnightblue" stroke="midnightblue" points="621.38,-70.37 631.83,-68.6 622.56,-63.47 621.38,-70.37"/>
</g>
<!-- Node9 -->
<g id="node9" class="node">
<title>Node9</title>
<g id="a_node9"><a xlink:href="kf__2x1x1__rocket__altitude_8cpp.xhtml" target="_top" xlink:title=" ">
<polygon fill="white" stroke="black" points="345,-0.5 345,-30.5 467,-30.5 467,-0.5 345,-0.5"/>
<text text-anchor="start" x="353" y="-18.5" font-family="Helvetica,sans-Serif" font-size="10.00">sample/kf_2x1x1_rocket</text>
<text text-anchor="middle" x="406" y="-7.5" font-family="Helvetica,sans-Serif" font-size="10.00">_altitude.cpp</text>
</a>
</g>
</g>
<!-- Node7&#45;&gt;Node9 -->
<g id="edge8" class="edge">
<title>Node7&#45;&gt;Node9</title>
<path fill="none" stroke="midnightblue" d="M621.95,-66.1C574.98,-55.31 512.7,-41.01 467.1,-30.53"/>
<polygon fill="midnightblue" stroke="midnightblue" points="621.2,-69.52 631.73,-68.35 622.77,-62.7 621.2,-69.52"/>
</g>
<!-- Node10 -->
<g id="node10" class="node">
<title>Node10</title>
<g id="a_node10"><a xlink:href="kf__6x2x0__vehicle__location_8cpp.xhtml" target="_top" xlink:title=" ">
<polygon fill="white" stroke="black" points="485.5,-0.5 485.5,-30.5 610.5,-30.5 610.5,-0.5 485.5,-0.5"/>
<text text-anchor="start" x="493.5" y="-18.5" font-family="Helvetica,sans-Serif" font-size="10.00">sample/kf_6x2x0_vehicle</text>
<text text-anchor="middle" x="548" y="-7.5" font-family="Helvetica,sans-Serif" font-size="10.00">_location.cpp</text>
</a>
</g>
</g>
<!-- Node7&#45;&gt;Node10 -->
<g id="edge9" class="edge">
<title>Node7&#45;&gt;Node10</title>
<path fill="none" stroke="midnightblue" d="M649.15,-63.13C626.75,-52.8 599.22,-40.11 578.54,-30.58"/>
<polygon fill="midnightblue" stroke="midnightblue" points="647.86,-66.39 658.41,-67.4 650.79,-60.03 647.86,-66.39"/>
</g>
<!-- Node11 -->
<g id="node11" class="node">
<title>Node11</title>
<g id="a_node11"><a xlink:href="kf__8x4x0__deep__sort__bounding__box_8cpp.xhtml" target="_top" xlink:title=" ">
<polygon fill="white" stroke="black" points="628.5,-0.5 628.5,-30.5 749.5,-30.5 749.5,-0.5 628.5,-0.5"/>
<text text-anchor="start" x="636.5" y="-18.5" font-family="Helvetica,sans-Serif" font-size="10.00">sample/kf_8x4x0_deep</text>
<text text-anchor="middle" x="689" y="-7.5" font-family="Helvetica,sans-Serif" font-size="10.00">_sort_bounding_box.cpp</text>
</a>
</g>
</g>
<!-- Node7&#45;&gt;Node11 -->
<g id="edge10" class="edge">
<title>Node7&#45;&gt;Node11</title>
<path fill="none" stroke="midnightblue" d="M689,-57.11C689,-48.15 689,-38.32 689,-30.58"/>
<polygon fill="midnightblue" stroke="midnightblue" points="685.5,-57.4 689,-67.4 692.5,-57.4 685.5,-57.4"/>
</g>
<!-- Node12 -->
<g id="node12" class="node">
<title>Node12</title>
<g id="a_node12"><a xlink:href="eigen__f_8cpp.xhtml" target="_top" xlink:title=" ">
<polygon fill="white" stroke="black" points="768,-6 768,-25 854,-25 854,-6 768,-6"/>
<text text-anchor="middle" x="811" y="-13" font-family="Helvetica,sans-Serif" font-size="10.00">test/eigen_f.cpp</text>
</a>
</g>
</g>
<!-- Node7&#45;&gt;Node12 -->
<g id="edge11" class="edge">
<title>Node7&#45;&gt;Node12</title>
<path fill="none" stroke="midnightblue" d="M724.4,-62.64C747.74,-50.2 777.19,-34.51 795.03,-25.01"/>
<polygon fill="midnightblue" stroke="midnightblue" points="722.65,-59.6 715.47,-67.4 725.94,-65.78 722.65,-59.6"/>
</g>
<!-- Node13 -->
<g id="node13" class="node">
<title>Node13</title>
<g id="a_node13"><a xlink:href="eigen__h_8cpp.xhtml" target="_top" xlink:title=" ">
<polygon fill="white" stroke="black" points="872,-6 872,-25 960,-25 960,-6 872,-6"/>
<text text-anchor="middle" x="916" y="-13" font-family="Helvetica,sans-Serif" font-size="10.00">test/eigen_h.cpp</text>
</a>
</g>
</g>
<!-- Node7&#45;&gt;Node13 -->
<g id="edge12" class="edge">
<title>Node7&#45;&gt;Node13</title>
<path fill="none" stroke="midnightblue" d="M747.77,-64.67C792.14,-51.97 851.17,-35.06 886.22,-25.03"/>
<polygon fill="midnightblue" stroke="midnightblue" points="746.63,-61.36 737.98,-67.48 748.55,-68.09 746.63,-61.36"/>
</g>
<!-- Node14 -->
<g id="node14" class="node">
<title>Node14</title>
<g id="a_node14"><a xlink:href="eigen__initialization_8cpp.xhtml" target="_top" xlink:title=" ">
<polygon fill="white" stroke="black" points="978.5,-6 978.5,-25 1111.5,-25 1111.5,-6 978.5,-6"/>
<text text-anchor="middle" x="1045" y="-13" font-family="Helvetica,sans-Serif" font-size="10.00">test/eigen_initialization.cpp</text>
</a>
</g>
</g>
<!-- Node7&#45;&gt;Node14 -->
<g id="edge13" class="edge">
<title>Node7&#45;&gt;Node14</title>
<path fill="none" stroke="midnightblue" d="M756.25,-66.81C851.38,-48.59 877.22,-47.47 969,-31 979.44,-29.13 990.68,-27.03 1001.22,-25.02"/>
<polygon fill="midnightblue" stroke="midnightblue" points="755.36,-63.42 746.2,-68.75 756.68,-70.29 755.36,-63.42"/>
</g>
</g>
</svg>
        <g id="navigator" transform="translate(0 0)" fill="#404254">
                <rect fill="#f2f5e9" fill-opacity="0.5" stroke="#606060" stroke-width=".5" x="0" y="0" width="60" height="60"/>
                <use id="zoomplus" xlink:href="#zoomPlus" x="17" y="9" onmousedown="handleZoom(evt,'in')"/>
                <use id="zoomminus" xlink:href="#zoomMin" x="42" y="9" onmousedown="handleZoom(evt,'out')"/>
                <use id="reset" xlink:href="#resetDef" x="30" y="36" onmousedown="handleReset()"/>
                <g id="arrowUp" xlink:href="#dirArrow" transform="translate(30 24)" onmousedown="handlePan(0,-1)">
                  <use xlink:href="#rim" fill="#404040">
                        <set attributeName="fill" to="#808080" begin="arrowUp.mouseover" end="arrowUp.mouseout"/>
                  </use>
                  <path fill="none" stroke="white" stroke-width="1.5" d="M0,-3.0v7 M-2.5,-0.5L0,-3.0L2.5,-0.5"/>
                </g>
                <g id="arrowRight" xlink:href="#dirArrow" transform="rotate(90) translate(36 -43)" onmousedown="handlePan(1,0)">
                  <use xlink:href="#rim" fill="#404040">
                        <set attributeName="fill" to="#808080" begin="arrowRight.mouseover" end="arrowRight.mouseout"/>
                  </use>
                  <path fill="none" stroke="white" stroke-width="1.5" d="M0,-3.0v7 M-2.5,-0.5L0,-3.0L2.5,-0.5"/>
                </g>
                <g id="arrowDown" xlink:href="#dirArrow" transform="rotate(180) translate(-30 -48)" onmousedown="handlePan(0,1)">
                  <use xlink:href="#rim" fill="#404040">
                        <set attributeName="fill" to="#808080" begin="arrowDown.mouseover" end="arrowDown.mouseout"/>
                  </use>
                  <path fill="none" stroke="white" stroke-width="1.5" d="M0,-3.0v7 M-2.5,-0.5L0,-3.0L2.5,-0.5"/>
                </g>
                <g id="arrowLeft" xlink:href="#dirArrow" transform="rotate(270) translate(-36 17)" onmousedown="handlePan(-1,0)">
                  <use xlink:href="#rim" fill="#404040">
                        <set attributeName="fill" to="#808080" begin="arrowLeft.mouseover" end="arrowLeft.mouseout"/>
                  </use>
                  <path fill="none" stroke="white" stroke-width="1.5" d="M0,-3.0v7 M-2.5,-0.5L0,-3.0L2.5,-0.5"/>
                </g>
        </g>
        <svg viewBox="0 0 15 15" width="100%" height="30px" preserveAspectRatio="xMaxYMin meet">
         <g id="arrow_out" transform="scale(0.3 0.3)">
          <a xlink:href="format_8hpp__dep__incl_org.svg" target="_base">
           <rect id="button" ry="5" rx="5" y="6" x="6" height="38" width="38"
                fill="#f2f5e9" fill-opacity="0.5" stroke="#606060" stroke-width="1.0"/>
           <path id="arrow"
             d="M 11.500037,31.436501 C 11.940474,20.09759 22.043105,11.32322 32.158766,21.979434 L 37.068811,17.246167 C 37.068811,17.246167 37.088388,32 37.088388,32 L 22.160133,31.978069 C 22.160133,31.978069 26.997745,27.140456 26.997745,27.140456 C 18.528582,18.264221 13.291696,25.230495 11.500037,31.436501 z"
             style="fill:#404040;"/>
          </a>
         </g>
        </svg>
</svg>
