<?xml version="1.0" encoding="UTF-8" standalone="no"?>
<!DOCTYPE svg PUBLIC "-//W3C//DTD SVG 1.1//EN"
 "http://www.w3.org/Graphics/SVG/1.1/DTD/svg11.dtd">
<!-- Generated by graphviz version 3.0.0 (20221109.1736)
 -->
<!-- Title: /github/workspace/test/format.cpp Pages: 1 -->
<!--zoomable 263 -->
<svg id="main" version="1.1" xmlns="http://www.w3.org/2000/svg" xmlns:xlink="http://www.w3.org/1999/xlink" xml:space="preserve" onload="init(evt)">
<style type="text/css"><![CDATA[
.edge:hover path { stroke: red; }
.edge:hover polygon { stroke: red; fill: red; }
]]></style>
<script type="text/javascript"><![CDATA[
var edges = document.getElementsByTagName('g');
if (edges && edges.length) {
  for (var i=0;i<edges.length;i++) {
    if (edges[i].id.substr(0,4)=='edge') {
      edges[i].setAttribute('class','edge');
    }
  }
}
]]></script>
        <defs>
                <circle id="rim" cx="0" cy="0" r="7"/>
                <circle id="rim2" cx="0" cy="0" r="3.5"/>
                <g id="zoomPlus">
                        <use xlink:href="#rim" fill="#404040">
                                <set attributeName="fill" to="#808080" begin="zoomplus.mouseover" end="zoomplus.mouseout"/>
                        </use>
                        <path d="M-4,0h8M0,-4v8" fill="none" stroke="white" stroke-width="1.5" pointer-events="none"/>
                </g>
                <g id="zoomMin">
                        <use xlink:href="#rim" fill="#404040">
                                <set attributeName="fill" to="#808080" begin="zoomminus.mouseover" end="zoomminus.mouseout"/>
                        </use>
                        <path d="M-4,0h8" fill="none" stroke="white" stroke-width="1.5" pointer-events="none"/>
                </g>
                <g id="dirArrow">
                        <path fill="none" stroke="white" stroke-width="1.5" d="M0,-3.0v7 M-2.5,-0.5L0,-3.0L2.5,-0.5"/>
                </g>
               <g id="resetDef">
                       <use xlink:href="#rim2" fill="#404040">
                               <set attributeName="fill" to="#808080" begin="reset.mouseover" end="reset.mouseout"/>
                       </use>
               </g>
        </defs>

<script type="text/javascript">
var viewWidth = 803;
var viewHeight = 263;
var sectionId = 'dynsection-0';
</script>
<script xlink:href="svgpan.js"/>
<svg id="graph" class="graph">
<g id="viewport">
<title>/github/workspace/test/format.cpp</title>
<polygon fill="white" stroke="transparent" points="-4,4 -4,-259 799.47,-259 799.47,4 -4,4"/>
<!-- Node1 -->
<g id="node1" class="node">
<title>Node1</title>
<g id="a_node1"><a xlink:title=" ">
<polygon fill="#bfbfbf" stroke="black" points="659.97,-224.5 659.97,-254.5 775.97,-254.5 775.97,-224.5 659.97,-224.5"/>
<text text-anchor="start" x="667.97" y="-242.5" font-family="Helvetica,sans-Serif" font-size="10.00">/github/workspace/test</text>
<text text-anchor="middle" x="717.97" y="-231.5" font-family="Helvetica,sans-Serif" font-size="10.00">/format.cpp</text>
</a>
</g>
</g>
<!-- Node2 -->
<g id="node2" class="node">
<title>Node2</title>
<g id="a_node2"><a xlink:href="kalman_8hpp.xhtml" target="_top" xlink:title="The Kalman filter class and library top&#45;level header.">
<polygon fill="white" stroke="black" points="283.47,-168.5 283.47,-187.5 390.47,-187.5 390.47,-168.5 283.47,-168.5"/>
<text text-anchor="middle" x="336.97" y="-175.5" font-family="Helvetica,sans-Serif" font-size="10.00">fcarouge/kalman.hpp</text>
</a>
</g>
</g>
<!-- Node1&#45;&gt;Node2 -->
<g id="edge1" class="edge">
<title>Node1&#45;&gt;Node2</title>
<path fill="none" stroke="midnightblue" d="M659.69,-229.4C589.71,-218.47 472.75,-200.21 400.51,-188.92"/>
<polygon fill="midnightblue" stroke="midnightblue" points="401.04,-185.46 390.62,-187.38 399.96,-192.38 401.04,-185.46"/>
</g>
<!-- Node9 -->
<g id="node9" class="node">
<title>Node9</title>
<g id="a_node9"><a xlink:title=" ">
<polygon fill="white" stroke="#bfbfbf" points="575.97,-56.5 575.97,-75.5 619.97,-75.5 619.97,-56.5 575.97,-56.5"/>
<text text-anchor="middle" x="597.97" y="-63.5" font-family="Helvetica,sans-Serif" font-size="10.00">format</text>
</a>
</g>
</g>
<!-- Node1&#45;&gt;Node9 -->
<g id="edge22" class="edge">
<title>Node1&#45;&gt;Node9</title>
<path fill="none" stroke="midnightblue" d="M719.92,-224.31C722.61,-199 724.52,-145.58 698.97,-112 682.44,-90.27 653.1,-78.8 630.29,-72.89"/>
<polygon fill="midnightblue" stroke="midnightblue" points="630.87,-69.43 620.34,-70.55 629.27,-76.25 630.87,-69.43"/>
</g>
<!-- Node16 -->
<g id="node16" class="node">
<title>Node16</title>
<g id="a_node16"><a xlink:title=" ">
<polygon fill="white" stroke="#bfbfbf" points="746.47,-168.5 746.47,-187.5 795.47,-187.5 795.47,-168.5 746.47,-168.5"/>
<text text-anchor="middle" x="770.97" y="-175.5" font-family="Helvetica,sans-Serif" font-size="10.00">cassert</text>
</a>
</g>
</g>
<!-- Node1&#45;&gt;Node16 -->
<g id="edge21" class="edge">
<title>Node1&#45;&gt;Node16</title>
<path fill="none" stroke="midnightblue" d="M730.53,-224.4C738.31,-215.66 748.33,-204.41 756.45,-195.3"/>
<polygon fill="midnightblue" stroke="midnightblue" points="759.22,-197.45 763.26,-187.66 753.99,-192.8 759.22,-197.45"/>
</g>
<!-- Node3 -->
<g id="node3" class="node">
<title>Node3</title>
<g id="a_node3"><a xlink:href="algorithm_8hpp.xhtml" target="_top" xlink:title="The collection of Kalman algorithms.">
<polygon fill="white" stroke="black" points="615.97,-112.5 615.97,-131.5 689.97,-131.5 689.97,-112.5 615.97,-112.5"/>
<text text-anchor="middle" x="652.97" y="-119.5" font-family="Helvetica,sans-Serif" font-size="10.00">algorithm.hpp</text>
</a>
</g>
</g>
<!-- Node2&#45;&gt;Node3 -->
<g id="edge2" class="edge">
<title>Node2&#45;&gt;Node3</title>
<path fill="none" stroke="midnightblue" d="M390.58,-168.52C442.88,-160.14 524.96,-146.73 605.5,-132.23"/>
<polygon fill="midnightblue" stroke="midnightblue" points="606.61,-135.58 615.83,-130.36 605.36,-128.69 606.61,-135.58"/>
</g>
<!-- Node4 -->
<g id="node4" class="node">
<title>Node4</title>
<g id="a_node4"><a xlink:href="format_8hpp.xhtml" target="_top" xlink:title=" ">
<polygon fill="white" stroke="black" points="288.47,-112.5 288.47,-131.5 385.47,-131.5 385.47,-112.5 288.47,-112.5"/>
<text text-anchor="middle" x="336.97" y="-119.5" font-family="Helvetica,sans-Serif" font-size="10.00">internal/format.hpp</text>
</a>
</g>
</g>
<!-- Node2&#45;&gt;Node4 -->
<g id="edge3" class="edge">
<title>Node2&#45;&gt;Node4</title>
<path fill="none" stroke="midnightblue" d="M336.97,-168.08C336.97,-161.01 336.97,-150.86 336.97,-141.99"/>
<polygon fill="midnightblue" stroke="midnightblue" points="340.47,-141.75 336.97,-131.75 333.47,-141.75 340.47,-141.75"/>
</g>
<!-- Node6 -->
<g id="node6" class="node">
<title>Node6</title>
<g id="a_node6"><a xlink:title=" ">
<polygon fill="white" stroke="#bfbfbf" points="57.97,-0.5 57.97,-19.5 113.97,-19.5 113.97,-0.5 57.97,-0.5"/>
<text text-anchor="middle" x="85.97" y="-7.5" font-family="Helvetica,sans-Serif" font-size="10.00">concepts</text>
</a>
</g>
</g>
<!-- Node2&#45;&gt;Node6 -->
<g id="edge15" class="edge">
<title>Node2&#45;&gt;Node6</title>
<path fill="none" stroke="midnightblue" d="M283.4,-174.95C207.45,-171.07 73.44,-160.33 34.97,-132 6.1,-110.74 -9.96,-87.04 7.97,-56 16.77,-40.75 32.93,-30.21 48.26,-23.19"/>
<polygon fill="midnightblue" stroke="midnightblue" points="49.76,-26.35 57.63,-19.26 47.05,-19.9 49.76,-26.35"/>
</g>
<!-- Node7 -->
<g id="node7" class="node">
<title>Node7</title>
<g id="a_node7"><a xlink:title=" ">
<polygon fill="white" stroke="#bfbfbf" points="199.97,-0.5 199.97,-19.5 261.97,-19.5 261.97,-0.5 199.97,-0.5"/>
<text text-anchor="middle" x="230.97" y="-7.5" font-family="Helvetica,sans-Serif" font-size="10.00">type_traits</text>
</a>
</g>
</g>
<!-- Node2&#45;&gt;Node7 -->
<g id="edge18" class="edge">
<title>Node2&#45;&gt;Node7</title>
<path fill="none" stroke="midnightblue" d="M321.79,-168.42C308.87,-160.45 290.6,-147.49 278.97,-132 255.07,-100.19 241.34,-54.91 235.1,-29.73"/>
<polygon fill="midnightblue" stroke="midnightblue" points="238.43,-28.63 232.74,-19.69 231.62,-30.23 238.43,-28.63"/>
</g>
<!-- Node8 -->
<g id="node8" class="node">
<title>Node8</title>
<g id="a_node8"><a xlink:title=" ">
<polygon fill="white" stroke="#bfbfbf" points="350.47,-56.5 350.47,-75.5 399.47,-75.5 399.47,-56.5 350.47,-56.5"/>
<text text-anchor="middle" x="374.97" y="-63.5" font-family="Helvetica,sans-Serif" font-size="10.00">cstddef</text>
</a>
</g>
</g>
<!-- Node2&#45;&gt;Node8 -->
<g id="edge16" class="edge">
<title>Node2&#45;&gt;Node8</title>
<path fill="none" stroke="midnightblue" d="M355.05,-168.39C368.53,-160.87 385.94,-148.57 393.97,-132 401.39,-116.68 394.33,-97.88 386.8,-84.45"/>
<polygon fill="midnightblue" stroke="midnightblue" points="389.66,-82.43 381.44,-75.75 383.71,-86.1 389.66,-82.43"/>
</g>
<!-- Node10 -->
<g id="node10" class="node">
<title>Node10</title>
<g id="a_node10"><a xlink:href="internal_2kalman_8hpp.xhtml" target="_top" xlink:title=" ">
<polygon fill="white" stroke="black" points="55.47,-112.5 55.47,-131.5 156.47,-131.5 156.47,-112.5 55.47,-112.5"/>
<text text-anchor="middle" x="105.97" y="-119.5" font-family="Helvetica,sans-Serif" font-size="10.00">internal/kalman.hpp</text>
</a>
</g>
</g>
<!-- Node2&#45;&gt;Node10 -->
<g id="edge9" class="edge">
<title>Node2&#45;&gt;Node10</title>
<path fill="none" stroke="midnightblue" d="M300.37,-168.44C260.24,-159.06 195.77,-143.99 152.18,-133.8"/>
<polygon fill="midnightblue" stroke="midnightblue" points="152.93,-130.38 142.4,-131.52 151.34,-137.2 152.93,-130.38"/>
</g>
<!-- Node11 -->
<g id="node11" class="node">
<title>Node11</title>
<g id="a_node11"><a xlink:title=" ">
<polygon fill="white" stroke="#bfbfbf" points="17.47,-56.5 17.47,-75.5 76.47,-75.5 76.47,-56.5 17.47,-56.5"/>
<text text-anchor="middle" x="46.97" y="-63.5" font-family="Helvetica,sans-Serif" font-size="10.00">functional</text>
</a>
</g>
</g>
<!-- Node2&#45;&gt;Node11 -->
<g id="edge17" class="edge">
<title>Node2&#45;&gt;Node11</title>
<path fill="none" stroke="midnightblue" d="M283.17,-176.69C207.61,-174.99 75.91,-166.93 45.97,-132 35.2,-119.44 37.09,-99.94 40.68,-85.58"/>
<polygon fill="midnightblue" stroke="midnightblue" points="44.09,-86.37 43.57,-75.79 37.38,-84.39 44.09,-86.37"/>
</g>
<!-- Node13 -->
<g id="node13" class="node">
<title>Node13</title>
<g id="a_node13"><a xlink:href="utility_8hpp.xhtml" target="_top" xlink:title="The collection of utilities supporting the library.">
<polygon fill="white" stroke="black" points="174.47,-112.5 174.47,-131.5 231.47,-131.5 231.47,-112.5 174.47,-112.5"/>
<text text-anchor="middle" x="202.97" y="-119.5" font-family="Helvetica,sans-Serif" font-size="10.00">utility.hpp</text>
</a>
</g>
</g>
<!-- Node2&#45;&gt;Node13 -->
<g id="edge13" class="edge">
<title>Node2&#45;&gt;Node13</title>
<path fill="none" stroke="midnightblue" d="M315.74,-168.44C293.58,-159.52 258.65,-145.44 233.53,-135.32"/>
<polygon fill="midnightblue" stroke="midnightblue" points="234.68,-132.01 224.1,-131.52 232.07,-138.5 234.68,-132.01"/>
</g>
<!-- Node14 -->
<g id="node14" class="node">
<title>Node14</title>
<g id="a_node14"><a xlink:title=" ">
<polygon fill="white" stroke="#bfbfbf" points="442.47,-112.5 442.47,-131.5 481.47,-131.5 481.47,-112.5 442.47,-112.5"/>
<text text-anchor="middle" x="461.97" y="-119.5" font-family="Helvetica,sans-Serif" font-size="10.00">utility</text>
</a>
</g>
</g>
<!-- Node2&#45;&gt;Node14 -->
<g id="edge19" class="edge">
<title>Node2&#45;&gt;Node14</title>
<path fill="none" stroke="midnightblue" d="M356.77,-168.44C377.25,-159.6 409.45,-145.69 432.83,-135.59"/>
<polygon fill="midnightblue" stroke="midnightblue" points="434.46,-138.7 442.25,-131.52 431.69,-132.27 434.46,-138.7"/>
</g>
<!-- Node15 -->
<g id="node15" class="node">
<title>Node15</title>
<g id="a_node15"><a xlink:title=" ">
<polygon fill="white" stroke="#bfbfbf" points="499.97,-112.5 499.97,-131.5 597.97,-131.5 597.97,-112.5 499.97,-112.5"/>
<text text-anchor="middle" x="548.97" y="-119.5" font-family="Helvetica,sans-Serif" font-size="10.00">internal/kalman.tpp</text>
</a>
</g>
</g>
<!-- Node2&#45;&gt;Node15 -->
<g id="edge20" class="edge">
<title>Node2&#45;&gt;Node15</title>
<path fill="none" stroke="midnightblue" d="M370.56,-168.44C407.16,-159.12 465.81,-144.18 505.79,-134"/>
<polygon fill="midnightblue" stroke="midnightblue" points="506.71,-137.38 515.53,-131.52 504.98,-130.59 506.71,-137.38"/>
</g>
<!-- Node5 -->
<g id="node5" class="node">
<title>Node5</title>
<g id="a_node5"><a xlink:href="internal_2utility_8hpp.xhtml" target="_top" xlink:title=" ">
<polygon fill="white" stroke="black" points="174.47,-56.5 174.47,-75.5 231.47,-75.5 231.47,-56.5 174.47,-56.5"/>
<text text-anchor="middle" x="202.97" y="-63.5" font-family="Helvetica,sans-Serif" font-size="10.00">utility.hpp</text>
</a>
</g>
</g>
<!-- Node4&#45;&gt;Node5 -->
<g id="edge4" class="edge">
<title>Node4&#45;&gt;Node5</title>
<path fill="none" stroke="midnightblue" d="M315.74,-112.44C293.58,-103.52 258.65,-89.44 233.53,-79.32"/>
<polygon fill="midnightblue" stroke="midnightblue" points="234.68,-76.01 224.1,-75.52 232.07,-82.5 234.68,-76.01"/>
</g>
<!-- Node4&#45;&gt;Node8 -->
<g id="edge7" class="edge">
<title>Node4&#45;&gt;Node8</title>
<path fill="none" stroke="midnightblue" d="M343.24,-112.08C348.61,-104.46 356.49,-93.26 363.05,-83.94"/>
<polygon fill="midnightblue" stroke="midnightblue" points="365.92,-85.94 368.81,-75.75 360.19,-81.91 365.92,-85.94"/>
</g>
<!-- Node4&#45;&gt;Node9 -->
<g id="edge8" class="edge">
<title>Node4&#45;&gt;Node9</title>
<path fill="none" stroke="midnightblue" d="M378.32,-112.44C430.31,-101.69 518.44,-83.45 565.72,-73.67"/>
<polygon fill="midnightblue" stroke="midnightblue" points="566.63,-77.06 575.71,-71.6 565.21,-70.2 566.63,-77.06"/>
</g>
<!-- Node5&#45;&gt;Node6 -->
<g id="edge5" class="edge">
<title>Node5&#45;&gt;Node6</title>
<path fill="none" stroke="midnightblue" d="M184.43,-56.44C165.34,-47.64 135.39,-33.81 113.53,-23.72"/>
<polygon fill="midnightblue" stroke="midnightblue" points="114.97,-20.53 104.42,-19.52 112.03,-26.88 114.97,-20.53"/>
</g>
<!-- Node5&#45;&gt;Node7 -->
<g id="edge6" class="edge">
<title>Node5&#45;&gt;Node7</title>
<path fill="none" stroke="midnightblue" d="M207.59,-56.08C211.42,-48.69 216.99,-37.95 221.73,-28.81"/>
<polygon fill="midnightblue" stroke="midnightblue" points="224.93,-30.24 226.43,-19.75 218.72,-27.02 224.93,-30.24"/>
</g>
<!-- Node10&#45;&gt;Node5 -->
<g id="edge10" class="edge">
<title>Node10&#45;&gt;Node5</title>
<path fill="none" stroke="midnightblue" d="M121.55,-112.32C136.97,-103.74 160.78,-90.49 178.68,-80.52"/>
<polygon fill="midnightblue" stroke="midnightblue" points="180.39,-83.58 187.42,-75.65 176.98,-77.46 180.39,-83.58"/>
</g>
<!-- Node10&#45;&gt;Node11 -->
<g id="edge11" class="edge">
<title>Node10&#45;&gt;Node11</title>
<path fill="none" stroke="midnightblue" d="M96.49,-112.32C87.77,-104.34 74.62,-92.31 64.07,-82.65"/>
<polygon fill="midnightblue" stroke="midnightblue" points="66.36,-80 56.62,-75.83 61.63,-85.17 66.36,-80"/>
</g>
<!-- Node12 -->
<g id="node12" class="node">
<title>Node12</title>
<g id="a_node12"><a xlink:title=" ">
<polygon fill="white" stroke="#bfbfbf" points="94.97,-56.5 94.97,-75.5 132.97,-75.5 132.97,-56.5 94.97,-56.5"/>
<text text-anchor="middle" x="113.97" y="-63.5" font-family="Helvetica,sans-Serif" font-size="10.00">tuple</text>
</a>
</g>
</g>
<!-- Node10&#45;&gt;Node12 -->
<g id="edge12" class="edge">
<title>Node10&#45;&gt;Node12</title>
<path fill="none" stroke="midnightblue" d="M107.29,-112.08C108.35,-104.93 109.87,-94.64 111.2,-85.69"/>
<polygon fill="midnightblue" stroke="midnightblue" points="114.67,-86.16 112.67,-75.75 107.74,-85.13 114.67,-86.16"/>
</g>
<!-- Node13&#45;&gt;Node5 -->
<g id="edge14" class="edge">
<title>Node13&#45;&gt;Node5</title>
<path fill="none" stroke="midnightblue" d="M202.97,-112.08C202.97,-105.01 202.97,-94.86 202.97,-85.99"/>
<polygon fill="midnightblue" stroke="midnightblue" points="206.47,-85.75 202.97,-75.75 199.47,-85.75 206.47,-85.75"/>
</g>
</g>
</svg>
        <g id="navigator" transform="translate(0 0)" fill="#404254">
                <rect fill="#f2f5e9" fill-opacity="0.5" stroke="#606060" stroke-width=".5" x="0" y="0" width="60" height="60"/>
                <use id="zoomplus" xlink:href="#zoomPlus" x="17" y="9" onmousedown="handleZoom(evt,'in')"/>
                <use id="zoomminus" xlink:href="#zoomMin" x="42" y="9" onmousedown="handleZoom(evt,'out')"/>
                <use id="reset" xlink:href="#resetDef" x="30" y="36" onmousedown="handleReset()"/>
                <g id="arrowUp" xlink:href="#dirArrow" transform="translate(30 24)" onmousedown="handlePan(0,-1)">
                  <use xlink:href="#rim" fill="#404040">
                        <set attributeName="fill" to="#808080" begin="arrowUp.mouseover" end="arrowUp.mouseout"/>
                  </use>
                  <path fill="none" stroke="white" stroke-width="1.5" d="M0,-3.0v7 M-2.5,-0.5L0,-3.0L2.5,-0.5"/>
                </g>
                <g id="arrowRight" xlink:href="#dirArrow" transform="rotate(90) translate(36 -43)" onmousedown="handlePan(1,0)">
                  <use xlink:href="#rim" fill="#404040">
                        <set attributeName="fill" to="#808080" begin="arrowRight.mouseover" end="arrowRight.mouseout"/>
                  </use>
                  <path fill="none" stroke="white" stroke-width="1.5" d="M0,-3.0v7 M-2.5,-0.5L0,-3.0L2.5,-0.5"/>
                </g>
                <g id="arrowDown" xlink:href="#dirArrow" transform="rotate(180) translate(-30 -48)" onmousedown="handlePan(0,1)">
                  <use xlink:href="#rim" fill="#404040">
                        <set attributeName="fill" to="#808080" begin="arrowDown.mouseover" end="arrowDown.mouseout"/>
                  </use>
                  <path fill="none" stroke="white" stroke-width="1.5" d="M0,-3.0v7 M-2.5,-0.5L0,-3.0L2.5,-0.5"/>
                </g>
                <g id="arrowLeft" xlink:href="#dirArrow" transform="rotate(270) translate(-36 17)" onmousedown="handlePan(-1,0)">
                  <use xlink:href="#rim" fill="#404040">
                        <set attributeName="fill" to="#808080" begin="arrowLeft.mouseover" end="arrowLeft.mouseout"/>
                  </use>
                  <path fill="none" stroke="white" stroke-width="1.5" d="M0,-3.0v7 M-2.5,-0.5L0,-3.0L2.5,-0.5"/>
                </g>
        </g>
        <svg viewBox="0 0 15 15" width="100%" height="30px" preserveAspectRatio="xMaxYMin meet">
         <g id="arrow_out" transform="scale(0.3 0.3)">
          <a xlink:href="format_8cpp__incl_org.svg" target="_base">
           <rect id="button" ry="5" rx="5" y="6" x="6" height="38" width="38"
                fill="#f2f5e9" fill-opacity="0.5" stroke="#606060" stroke-width="1.0"/>
           <path id="arrow"
             d="M 11.500037,31.436501 C 11.940474,20.09759 22.043105,11.32322 32.158766,21.979434 L 37.068811,17.246167 C 37.068811,17.246167 37.088388,32 37.088388,32 L 22.160133,31.978069 C 22.160133,31.978069 26.997745,27.140456 26.997745,27.140456 C 18.528582,18.264221 13.291696,25.230495 11.500037,31.436501 z"
             style="fill:#404040;"/>
          </a>
         </g>
        </svg>
</svg>
