<?xml version="1.0" encoding="UTF-8" standalone="no"?>
<!DOCTYPE svg PUBLIC "-//W3C//DTD SVG 1.1//EN"
 "http://www.w3.org/Graphics/SVG/1.1/DTD/svg11.dtd">
<!-- Generated by graphviz version 2.49.3 (20211027.1534)
 -->
<!-- Title: test/h.cpp Pages: 1 -->
<svg width="633pt" height="308pt"
 viewBox="0.00 0.00 632.95 308.00" xmlns="http://www.w3.org/2000/svg" xmlns:xlink="http://www.w3.org/1999/xlink">
<g id="graph0" class="graph" transform="scale(1 1) rotate(0) translate(4 304)">
<title>test/h.cpp</title>
<polygon fill="white" stroke="transparent" points="-4,4 -4,-304 628.95,-304 628.95,4 -4,4"/>
<!-- Node1 -->
<g id="node1" class="node">
<title>Node1</title>
<g id="a_node1"><a xlink:title=" ">
<polygon fill="#bfbfbf" stroke="black" points="462.95,-280.5 462.95,-299.5 521.95,-299.5 521.95,-280.5 462.95,-280.5"/>
<text text-anchor="middle" x="492.45" y="-287.5" font-family="Helvetica,sans-Serif" font-size="10.00">test/h.cpp</text>
</a>
</g>
</g>
<!-- Node2 -->
<g id="node2" class="node">
<title>Node2</title>
<g id="a_node2"><a xlink:href="kalman__eigen_8hpp.xhtml" target="_top" xlink:title="Kalman operation for Eigen 3 types.">
<polygon fill="white" stroke="black" points="369.95,-224.5 369.95,-243.5 504.95,-243.5 504.95,-224.5 369.95,-224.5"/>
<text text-anchor="middle" x="437.45" y="-231.5" font-family="Helvetica,sans-Serif" font-size="10.00">fcarouge/kalman_eigen.hpp</text>
</a>
</g>
</g>
<!-- Node1&#45;&gt;Node2 -->
<g id="edge1" class="edge">
<title>Node1&#45;&gt;Node2</title>
<path fill="none" stroke="midnightblue" d="M483.37,-280.08C475.28,-272.14 463.26,-260.34 453.54,-250.8"/>
<polygon fill="midnightblue" stroke="midnightblue" points="455.95,-248.26 446.37,-243.75 451.05,-253.25 455.95,-248.26"/>
</g>
<!-- Node13 -->
<g id="node13" class="node">
<title>Node13</title>
<g id="a_node13"><a xlink:title=" ">
<polygon fill="white" stroke="#bfbfbf" points="522.95,-224.5 522.95,-243.5 571.95,-243.5 571.95,-224.5 522.95,-224.5"/>
<text text-anchor="middle" x="547.45" y="-231.5" font-family="Helvetica,sans-Serif" font-size="10.00">cassert</text>
</a>
</g>
</g>
<!-- Node1&#45;&gt;Node13 -->
<g id="edge19" class="edge">
<title>Node1&#45;&gt;Node13</title>
<path fill="none" stroke="midnightblue" d="M501.53,-280.08C509.62,-272.14 521.65,-260.34 531.36,-250.8"/>
<polygon fill="midnightblue" stroke="midnightblue" points="533.86,-253.25 538.54,-243.75 528.95,-248.26 533.86,-253.25"/>
</g>
<!-- Node3 -->
<g id="node3" class="node">
<title>Node3</title>
<g id="a_node3"><a xlink:href="eigen_8hpp.xhtml" target="_top" xlink:title="Kalman operation for Eigen 3 types.">
<polygon fill="white" stroke="black" points="391.45,-168.5 391.45,-187.5 483.45,-187.5 483.45,-168.5 391.45,-168.5"/>
<text text-anchor="middle" x="437.45" y="-175.5" font-family="Helvetica,sans-Serif" font-size="10.00">internal/eigen.hpp</text>
</a>
</g>
</g>
<!-- Node2&#45;&gt;Node3 -->
<g id="edge2" class="edge">
<title>Node2&#45;&gt;Node3</title>
<path fill="none" stroke="midnightblue" d="M437.45,-224.08C437.45,-217.01 437.45,-206.86 437.45,-197.99"/>
<polygon fill="midnightblue" stroke="midnightblue" points="440.95,-197.75 437.45,-187.75 433.95,-197.75 440.95,-197.75"/>
</g>
<!-- Node6 -->
<g id="node6" class="node">
<title>Node6</title>
<g id="a_node6"><a xlink:href="internal_2kalman_8hpp.xhtml" target="_top" xlink:title=" ">
<polygon fill="white" stroke="black" points="13.95,-56.5 13.95,-75.5 114.95,-75.5 114.95,-56.5 13.95,-56.5"/>
<text text-anchor="middle" x="64.45" y="-63.5" font-family="Helvetica,sans-Serif" font-size="10.00">internal/kalman.hpp</text>
</a>
</g>
</g>
<!-- Node2&#45;&gt;Node6 -->
<g id="edge17" class="edge">
<title>Node2&#45;&gt;Node6</title>
<path fill="none" stroke="midnightblue" d="M418.18,-224.42C356.92,-197.16 166.35,-112.35 93.33,-79.85"/>
<polygon fill="midnightblue" stroke="midnightblue" points="94.39,-76.49 83.83,-75.62 91.54,-82.89 94.39,-76.49"/>
</g>
<!-- Node12 -->
<g id="node12" class="node">
<title>Node12</title>
<g id="a_node12"><a xlink:title=" ">
<polygon fill="white" stroke="#bfbfbf" points="575.95,-112.5 575.95,-131.5 624.95,-131.5 624.95,-112.5 575.95,-112.5"/>
<text text-anchor="middle" x="600.45" y="-119.5" font-family="Helvetica,sans-Serif" font-size="10.00">cstddef</text>
</a>
</g>
</g>
<!-- Node2&#45;&gt;Node12 -->
<g id="edge18" class="edge">
<title>Node2&#45;&gt;Node12</title>
<path fill="none" stroke="midnightblue" d="M450.24,-224.37C478.21,-205.49 545.05,-160.38 579.36,-137.24"/>
<polygon fill="midnightblue" stroke="midnightblue" points="581.39,-140.09 587.72,-131.59 577.47,-134.28 581.39,-140.09"/>
</g>
<!-- Node4 -->
<g id="node4" class="node">
<title>Node4</title>
<g id="a_node4"><a xlink:href="kalman_8hpp.xhtml" target="_top" xlink:title="The main Kalman filter class.">
<polygon fill="white" stroke="black" points="223.95,-112.5 223.95,-131.5 330.95,-131.5 330.95,-112.5 223.95,-112.5"/>
<text text-anchor="middle" x="277.45" y="-119.5" font-family="Helvetica,sans-Serif" font-size="10.00">fcarouge/kalman.hpp</text>
</a>
</g>
</g>
<!-- Node3&#45;&gt;Node4 -->
<g id="edge3" class="edge">
<title>Node3&#45;&gt;Node4</title>
<path fill="none" stroke="midnightblue" d="M412.1,-168.44C385.18,-159.36 342.46,-144.94 312.37,-134.78"/>
<polygon fill="midnightblue" stroke="midnightblue" points="313.28,-131.4 302.69,-131.52 311.04,-138.03 313.28,-131.4"/>
</g>
<!-- Node7 -->
<g id="node7" class="node">
<title>Node7</title>
<g id="a_node7"><a xlink:title=" ">
<polygon fill="white" stroke="#bfbfbf" points="324.95,-0.5 324.95,-19.5 383.95,-19.5 383.95,-0.5 324.95,-0.5"/>
<text text-anchor="middle" x="354.45" y="-7.5" font-family="Helvetica,sans-Serif" font-size="10.00">functional</text>
</a>
</g>
</g>
<!-- Node3&#45;&gt;Node7 -->
<g id="edge15" class="edge">
<title>Node3&#45;&gt;Node7</title>
<path fill="none" stroke="midnightblue" d="M441.48,-168.25C450.58,-147.1 470.18,-92.25 447.45,-56 435.71,-37.28 413.74,-26.16 394.1,-19.65"/>
<polygon fill="midnightblue" stroke="midnightblue" points="394.98,-16.27 384.4,-16.74 392.97,-22.97 394.98,-16.27"/>
</g>
<!-- Node8 -->
<g id="node8" class="node">
<title>Node8</title>
<g id="a_node8"><a xlink:title=" ">
<polygon fill="white" stroke="#bfbfbf" points="33.45,-0.5 33.45,-19.5 95.45,-19.5 95.45,-0.5 33.45,-0.5"/>
<text text-anchor="middle" x="64.45" y="-7.5" font-family="Helvetica,sans-Serif" font-size="10.00">type_traits</text>
</a>
</g>
</g>
<!-- Node3&#45;&gt;Node8 -->
<g id="edge16" class="edge">
<title>Node3&#45;&gt;Node8</title>
<path fill="none" stroke="midnightblue" d="M391.11,-173.4C289.31,-164.43 51.48,-137.21 4.45,-76 -10.1,-57.05 15.19,-37.13 37.27,-24.42"/>
<polygon fill="midnightblue" stroke="midnightblue" points="39.01,-27.46 46.11,-19.59 35.65,-21.31 39.01,-27.46"/>
</g>
<!-- Node9 -->
<g id="node9" class="node">
<title>Node9</title>
<g id="a_node9"><a xlink:title=" ">
<polygon fill="white" stroke="#bfbfbf" points="382.45,-56.5 382.45,-75.5 438.45,-75.5 438.45,-56.5 382.45,-56.5"/>
<text text-anchor="middle" x="410.45" y="-63.5" font-family="Helvetica,sans-Serif" font-size="10.00">concepts</text>
</a>
</g>
</g>
<!-- Node3&#45;&gt;Node9 -->
<g id="edge13" class="edge">
<title>Node3&#45;&gt;Node9</title>
<path fill="none" stroke="midnightblue" d="M435.33,-168.37C430.98,-150.62 420.93,-109.67 415.02,-85.6"/>
<polygon fill="midnightblue" stroke="midnightblue" points="418.34,-84.47 412.56,-75.59 411.55,-86.14 418.34,-84.47"/>
</g>
<!-- Node11 -->
<g id="node11" class="node">
<title>Node11</title>
<g id="a_node11"><a xlink:title=" ">
<polygon fill="white" stroke="#bfbfbf" points="489.45,-112.5 489.45,-131.5 557.45,-131.5 557.45,-112.5 489.45,-112.5"/>
<text text-anchor="middle" x="523.45" y="-119.5" font-family="Helvetica,sans-Serif" font-size="10.00">Eigen/Eigen</text>
</a>
</g>
</g>
<!-- Node3&#45;&gt;Node11 -->
<g id="edge12" class="edge">
<title>Node3&#45;&gt;Node11</title>
<path fill="none" stroke="midnightblue" d="M451.27,-168.32C464.69,-159.9 485.28,-146.97 501.04,-137.07"/>
<polygon fill="midnightblue" stroke="midnightblue" points="503.06,-139.94 509.67,-131.65 499.34,-134.01 503.06,-139.94"/>
</g>
<!-- Node3&#45;&gt;Node12 -->
<g id="edge14" class="edge">
<title>Node3&#45;&gt;Node12</title>
<path fill="none" stroke="midnightblue" d="M463.28,-168.44C491.02,-159.25 535.26,-144.6 565.96,-134.43"/>
<polygon fill="midnightblue" stroke="midnightblue" points="567.42,-137.63 575.81,-131.16 565.22,-130.99 567.42,-137.63"/>
</g>
<!-- Node5 -->
<g id="node5" class="node">
<title>Node5</title>
<g id="a_node5"><a xlink:href="format_8hpp.xhtml" target="_top" xlink:title=" ">
<polygon fill="white" stroke="black" points="228.95,-56.5 228.95,-75.5 325.95,-75.5 325.95,-56.5 228.95,-56.5"/>
<text text-anchor="middle" x="277.45" y="-63.5" font-family="Helvetica,sans-Serif" font-size="10.00">internal/format.hpp</text>
</a>
</g>
</g>
<!-- Node4&#45;&gt;Node5 -->
<g id="edge4" class="edge">
<title>Node4&#45;&gt;Node5</title>
<path fill="none" stroke="midnightblue" d="M277.45,-112.08C277.45,-105.01 277.45,-94.86 277.45,-85.99"/>
<polygon fill="midnightblue" stroke="midnightblue" points="280.95,-85.75 277.45,-75.75 273.95,-85.75 280.95,-85.75"/>
</g>
<!-- Node4&#45;&gt;Node6 -->
<g id="edge5" class="edge">
<title>Node4&#45;&gt;Node6</title>
<path fill="none" stroke="midnightblue" d="M243.7,-112.44C206.93,-103.12 148.01,-88.18 107.83,-78"/>
<polygon fill="midnightblue" stroke="midnightblue" points="108.6,-74.58 98.05,-75.52 106.88,-81.37 108.6,-74.58"/>
</g>
<!-- Node4&#45;&gt;Node7 -->
<g id="edge9" class="edge">
<title>Node4&#45;&gt;Node7</title>
<path fill="none" stroke="midnightblue" d="M292.92,-112.43C305.8,-104.54 323.69,-91.71 334.45,-76 343.94,-62.15 349.06,-43.63 351.73,-29.91"/>
<polygon fill="midnightblue" stroke="midnightblue" points="355.24,-30.15 353.45,-19.71 348.34,-28.99 355.24,-30.15"/>
</g>
<!-- Node4&#45;&gt;Node8 -->
<g id="edge10" class="edge">
<title>Node4&#45;&gt;Node8</title>
<path fill="none" stroke="midnightblue" d="M250.72,-112.35C226.95,-104.25 191.56,-91.13 162.45,-76 133.83,-61.13 103.22,-39.86 83.97,-25.75"/>
<polygon fill="midnightblue" stroke="midnightblue" points="85.84,-22.78 75.73,-19.64 81.67,-28.41 85.84,-22.78"/>
</g>
<!-- Node4&#45;&gt;Node9 -->
<g id="edge8" class="edge">
<title>Node4&#45;&gt;Node9</title>
<path fill="none" stroke="midnightblue" d="M298.53,-112.44C320.51,-103.52 355.19,-89.44 380.12,-79.32"/>
<polygon fill="midnightblue" stroke="midnightblue" points="381.53,-82.52 389.48,-75.52 378.89,-76.04 381.53,-82.52"/>
</g>
<!-- Node10 -->
<g id="node10" class="node">
<title>Node10</title>
<g id="a_node10"><a xlink:title=" ">
<polygon fill="white" stroke="#bfbfbf" points="171.95,-56.5 171.95,-75.5 210.95,-75.5 210.95,-56.5 171.95,-56.5"/>
<text text-anchor="middle" x="191.45" y="-63.5" font-family="Helvetica,sans-Serif" font-size="10.00">utility</text>
</a>
</g>
</g>
<!-- Node4&#45;&gt;Node10 -->
<g id="edge11" class="edge">
<title>Node4&#45;&gt;Node10</title>
<path fill="none" stroke="midnightblue" d="M263.64,-112.32C250.22,-103.9 229.63,-90.97 213.87,-81.07"/>
<polygon fill="midnightblue" stroke="midnightblue" points="215.57,-78.01 205.24,-75.65 211.84,-83.94 215.57,-78.01"/>
</g>
<!-- Node6&#45;&gt;Node7 -->
<g id="edge6" class="edge">
<title>Node6&#45;&gt;Node7</title>
<path fill="none" stroke="midnightblue" d="M110.4,-56.44C166.7,-45.96 261.16,-28.37 314.55,-18.43"/>
<polygon fill="midnightblue" stroke="midnightblue" points="315.46,-21.82 324.65,-16.55 314.18,-14.94 315.46,-21.82"/>
</g>
<!-- Node6&#45;&gt;Node8 -->
<g id="edge7" class="edge">
<title>Node6&#45;&gt;Node8</title>
<path fill="none" stroke="midnightblue" d="M64.45,-56.08C64.45,-49.01 64.45,-38.86 64.45,-29.99"/>
<polygon fill="midnightblue" stroke="midnightblue" points="67.95,-29.75 64.45,-19.75 60.95,-29.75 67.95,-29.75"/>
</g>
</g>
</svg>
