<?xml version="1.0" encoding="UTF-8" standalone="no"?>
<!DOCTYPE svg PUBLIC "-//W3C//DTD SVG 1.1//EN"
 "http://www.w3.org/Graphics/SVG/1.1/DTD/svg11.dtd">
<!-- Generated by graphviz version 9.0.0 (20230911.1827)
 -->
<!-- Title: Graphical Class Hierarchy Pages: 1 -->
<svg width="427pt" height="170pt"
 viewBox="0.00 0.00 427.25 169.75" xmlns="http://www.w3.org/2000/svg" xmlns:xlink="http://www.w3.org/1999/xlink">
<g id="graph0" class="graph" transform="scale(1 1) rotate(0) translate(4 165.75)">
<title>Graphical Class Hierarchy</title>
<!-- Node0 -->
<g id="Node000000" class="node">
<title>Node0</title>
<g id="a_Node000000"><a xlink:title=" ">
<polygon fill="#e0e0e0" stroke="#999999" points="96.25,-161.75 3,-161.75 3,-120 96.25,-120 96.25,-161.75"/>
<text text-anchor="start" x="11" y="-148.25" font-family="Helvetica,sans-Serif" font-size="10.00">fcarouge::internal</text>
<text text-anchor="start" x="11" y="-137" font-family="Helvetica,sans-Serif" font-size="10.00">::conditional_input</text>
<text text-anchor="middle" x="49.62" y="-125.75" font-family="Helvetica,sans-Serif" font-size="10.00">&lt; Filter &gt;</text>
</a>
</g>
</g>
<!-- Node1 -->
<g id="Node000001" class="node">
<title>Node1</title>
<g id="a_Node000001"><a xlink:title=" ">
<polygon fill="#e0e0e0" stroke="#999999" points="242.75,-101.75 135.25,-101.75 135.25,-60 242.75,-60 242.75,-101.75"/>
<text text-anchor="start" x="143.25" y="-88.25" font-family="Helvetica,sans-Serif" font-size="10.00">fcarouge::internal</text>
<text text-anchor="start" x="143.25" y="-77" font-family="Helvetica,sans-Serif" font-size="10.00">::conditional_member</text>
<text text-anchor="middle" x="189" y="-65.75" font-family="Helvetica,sans-Serif" font-size="10.00">_types&lt; Filter &gt;</text>
</a>
</g>
</g>
<!-- Node0&#45;&gt;Node1 -->
<g id="edge1_Node000000_Node000001" class="edge">
<title>Node0&#45;&gt;Node1</title>
<g id="a_edge1_Node000000_Node000001"><a xlink:title=" ">
<path fill="none" stroke="#63b8ff" d="M106.89,-116.3C117.59,-111.63 128.71,-106.77 139.16,-102.21"/>
<polygon fill="#63b8ff" stroke="#63b8ff" points="105.52,-113.08 97.76,-120.29 108.32,-119.49 105.52,-113.08"/>
</a>
</g>
</g>
<!-- Node2 -->
<g id="Node000002" class="node">
<title>Node2</title>
<g id="a_Node000002"><a xlink:href="classfcarouge_1_1kalman.xhtml" target="_top" xlink:title="A generic Kalman filter.">
<polygon fill="white" stroke="#666666" points="419.25,-101.75 278.75,-101.75 278.75,-60 419.25,-60 419.25,-101.75"/>
<text text-anchor="start" x="286.75" y="-88.25" font-family="Helvetica,sans-Serif" font-size="10.00">fcarouge::kalman&lt; State,</text>
<text text-anchor="start" x="286.75" y="-77" font-family="Helvetica,sans-Serif" font-size="10.00"> Output, Input, UpdateTypes,</text>
<text text-anchor="middle" x="349" y="-65.75" font-family="Helvetica,sans-Serif" font-size="10.00"> PredictionTypes &gt;</text>
</a>
</g>
</g>
<!-- Node1&#45;&gt;Node2 -->
<g id="edge2_Node000001_Node000002" class="edge">
<title>Node1&#45;&gt;Node2</title>
<g id="a_edge2_Node000001_Node000002"><a xlink:title=" ">
<path fill="none" stroke="#63b8ff" d="M254.39,-80.88C262.25,-80.88 270.32,-80.88 278.25,-80.88"/>
<polygon fill="#63b8ff" stroke="#63b8ff" points="254.56,-77.38 244.56,-80.88 254.56,-84.38 254.56,-77.38"/>
</a>
</g>
</g>
<!-- Node3 -->
<g id="Node000003" class="node">
<title>Node3</title>
<g id="a_Node000003"><a xlink:title=" ">
<polygon fill="#e0e0e0" stroke="#999999" points="96.25,-101.75 3,-101.75 3,-60 96.25,-60 96.25,-101.75"/>
<text text-anchor="start" x="11" y="-88.25" font-family="Helvetica,sans-Serif" font-size="10.00">fcarouge::internal</text>
<text text-anchor="start" x="11" y="-77" font-family="Helvetica,sans-Serif" font-size="10.00">::conditional_input</text>
<text text-anchor="middle" x="49.62" y="-65.75" font-family="Helvetica,sans-Serif" font-size="10.00">_control&lt; Filter &gt;</text>
</a>
</g>
</g>
<!-- Node3&#45;&gt;Node1 -->
<g id="edge3_Node000003_Node000001" class="edge">
<title>Node3&#45;&gt;Node1</title>
<g id="a_edge3_Node000003_Node000001"><a xlink:title=" ">
<path fill="none" stroke="#63b8ff" d="M107.6,-80.88C116.62,-80.88 125.92,-80.88 134.85,-80.88"/>
<polygon fill="#63b8ff" stroke="#63b8ff" points="107.88,-77.38 97.88,-80.88 107.88,-84.38 107.88,-77.38"/>
</a>
</g>
</g>
<!-- Node4 -->
<g id="Node000004" class="node">
<title>Node4</title>
<g id="a_Node000004"><a xlink:title=" ">
<polygon fill="#e0e0e0" stroke="#999999" points="99.25,-41.75 0,-41.75 0,0 99.25,0 99.25,-41.75"/>
<text text-anchor="start" x="8" y="-28.25" font-family="Helvetica,sans-Serif" font-size="10.00">fcarouge::internal</text>
<text text-anchor="start" x="8" y="-17" font-family="Helvetica,sans-Serif" font-size="10.00">::conditional_output</text>
<text text-anchor="middle" x="49.62" y="-5.75" font-family="Helvetica,sans-Serif" font-size="10.00">_model&lt; Filter &gt;</text>
</a>
</g>
</g>
<!-- Node4&#45;&gt;Node1 -->
<g id="edge4_Node000004_Node000001" class="edge">
<title>Node4&#45;&gt;Node1</title>
<g id="a_edge4_Node000004_Node000001"><a xlink:title=" ">
<path fill="none" stroke="#63b8ff" d="M109.95,-46.79C119.76,-51.07 129.83,-55.47 139.34,-59.62"/>
<polygon fill="#63b8ff" stroke="#63b8ff" points="111.4,-43.6 100.83,-42.8 108.6,-50.01 111.4,-43.6"/>
</a>
</g>
</g>
</g>
</svg>
