<?xml version="1.0" encoding="UTF-8" standalone="no"?>
<!DOCTYPE svg PUBLIC "-//W3C//DTD SVG 1.1//EN"
 "http://www.w3.org/Graphics/SVG/1.1/DTD/svg11.dtd">
<!-- Generated by graphviz version 12.2.0 (20241103.1931)
 -->
<!-- Title: Graphical Class Hierarchy Pages: 1 -->
<svg width="523pt" height="458pt"
 viewBox="0.00 0.00 523.25 458.12" xmlns="http://www.w3.org/2000/svg" xmlns:xlink="http://www.w3.org/1999/xlink">
<g id="graph0" class="graph" transform="scale(1 1) rotate(0) translate(4 454.12)">
<title>Graphical Class Hierarchy</title>
<!-- Node0 -->
<g id="Node000000" class="node">
<title>Node0</title>
<g id="a_Node000000"><a xlink:title=" ">
<polygon fill="#e0e0e0" stroke="#999999" points="145.38,-450.12 13.88,-450.12 13.88,-419.62 145.38,-419.62 145.38,-450.12"/>
<text text-anchor="start" x="21.88" y="-436.62" font-family="Helvetica,sans-Serif" font-size="10.00">fcarouge::kalman_internal</text>
<text text-anchor="middle" x="79.62" y="-425.38" font-family="Helvetica,sans-Serif" font-size="10.00">::conditional_input&lt; Filter &gt;</text>
</a>
</g>
</g>
<!-- Node1 -->
<g id="Node000001" class="node">
<title>Node1</title>
<g id="a_Node000001"><a xlink:title=" ">
<polygon fill="#e0e0e0" stroke="#999999" points="331.25,-251.75 195.25,-251.75 195.25,-210 331.25,-210 331.25,-251.75"/>
<text text-anchor="start" x="203.25" y="-238.25" font-family="Helvetica,sans-Serif" font-size="10.00">fcarouge::kalman_internal</text>
<text text-anchor="start" x="203.25" y="-227" font-family="Helvetica,sans-Serif" font-size="10.00">::conditional_member_types</text>
<text text-anchor="middle" x="263.25" y="-215.75" font-family="Helvetica,sans-Serif" font-size="10.00">&lt; Filter &gt;</text>
</a>
</g>
</g>
<!-- Node0&#45;&gt;Node1 -->
<g id="edge1_Node000000_Node000001" class="edge">
<title>Node0&#45;&gt;Node1</title>
<g id="a_edge1_Node000000_Node000001"><a xlink:title=" ">
<path fill="none" stroke="#63b8ff" d="M155.26,-413.83C156.63,-412.89 157.96,-411.9 159.25,-410.88 212.71,-368.2 243.55,-289.72 255.9,-252.09"/>
<polygon fill="#63b8ff" stroke="#63b8ff" points="153.86,-410.59 147.04,-418.7 157.43,-416.61 153.86,-410.59"/>
</a>
</g>
</g>
<!-- Node2 -->
<g id="Node000002" class="node">
<title>Node2</title>
<g id="a_Node000002"><a xlink:href="classfcarouge_1_1kalman.xhtml" target="_top" xlink:title="A generic Kalman filter.">
<polygon fill="white" stroke="#666666" points="515.25,-240.5 367.25,-240.5 367.25,-221.25 515.25,-221.25 515.25,-240.5"/>
<text text-anchor="middle" x="441.25" y="-227" font-family="Helvetica,sans-Serif" font-size="10.00">fcarouge::kalman&lt; typename &gt;</text>
</a>
</g>
</g>
<!-- Node1&#45;&gt;Node2 -->
<g id="edge2_Node000001_Node000002" class="edge">
<title>Node1&#45;&gt;Node2</title>
<g id="a_edge2_Node000001_Node000002"><a xlink:title=" ">
<path fill="none" stroke="#63b8ff" d="M343.04,-230.88C350.96,-230.88 358.98,-230.88 366.84,-230.88"/>
<polygon fill="#63b8ff" stroke="#63b8ff" points="343.05,-227.38 333.05,-230.88 343.05,-234.38 343.05,-227.38"/>
</a>
</g>
</g>
<!-- Node3 -->
<g id="Node000003" class="node">
<title>Node3</title>
<g id="a_Node000003"><a xlink:title=" ">
<polygon fill="#e0e0e0" stroke="#999999" points="143.5,-401.75 15.75,-401.75 15.75,-360 143.5,-360 143.5,-401.75"/>
<text text-anchor="start" x="23.75" y="-388.25" font-family="Helvetica,sans-Serif" font-size="10.00">fcarouge::kalman_internal</text>
<text text-anchor="start" x="23.75" y="-377" font-family="Helvetica,sans-Serif" font-size="10.00">::conditional_input_control</text>
<text text-anchor="middle" x="79.62" y="-365.75" font-family="Helvetica,sans-Serif" font-size="10.00">&lt; Filter &gt;</text>
</a>
</g>
</g>
<!-- Node3&#45;&gt;Node1 -->
<g id="edge3_Node000003_Node000001" class="edge">
<title>Node3&#45;&gt;Node1</title>
<g id="a_edge3_Node000003_Node000001"><a xlink:title=" ">
<path fill="none" stroke="#63b8ff" d="M153.71,-354.52C155.61,-353.35 157.46,-352.14 159.25,-350.88 198.1,-323.55 231.48,-278.35 249.04,-251.92"/>
<polygon fill="#63b8ff" stroke="#63b8ff" points="152.22,-351.35 145.2,-359.28 155.64,-357.45 152.22,-351.35"/>
</a>
</g>
</g>
<!-- Node4 -->
<g id="Node000004" class="node">
<title>Node4</title>
<g id="a_Node000004"><a xlink:title=" ">
<polygon fill="#e0e0e0" stroke="#999999" points="145,-341.75 14.25,-341.75 14.25,-300 145,-300 145,-341.75"/>
<text text-anchor="start" x="22.25" y="-328.25" font-family="Helvetica,sans-Serif" font-size="10.00">fcarouge::kalman_internal</text>
<text text-anchor="start" x="22.25" y="-317" font-family="Helvetica,sans-Serif" font-size="10.00">::conditional_output_model</text>
<text text-anchor="middle" x="79.62" y="-305.75" font-family="Helvetica,sans-Serif" font-size="10.00">&lt; Filter &gt;</text>
</a>
</g>
</g>
<!-- Node4&#45;&gt;Node1 -->
<g id="edge4_Node000004_Node000001" class="edge">
<title>Node4&#45;&gt;Node1</title>
<g id="a_edge4_Node000004_Node000001"><a xlink:title=" ">
<path fill="none" stroke="#63b8ff" d="M149.82,-295.21C153.03,-293.79 156.19,-292.34 159.25,-290.88 183.33,-279.36 209.3,-264.21 229.14,-252.02"/>
<polygon fill="#63b8ff" stroke="#63b8ff" points="148.67,-291.89 140.86,-299.04 151.43,-298.33 148.67,-291.89"/>
</a>
</g>
</g>
<!-- Node5 -->
<g id="Node000005" class="node">
<title>Node5</title>
<g id="a_Node000005"><a xlink:title=" ">
<polygon fill="#e0e0e0" stroke="#999999" points="155.5,-281.75 3.75,-281.75 3.75,-240 155.5,-240 155.5,-281.75"/>
<text text-anchor="start" x="11.75" y="-268.25" font-family="Helvetica,sans-Serif" font-size="10.00">fcarouge::kalman_internal</text>
<text text-anchor="start" x="11.75" y="-257" font-family="Helvetica,sans-Serif" font-size="10.00">::conditional_output_uncertainty</text>
<text text-anchor="middle" x="79.62" y="-245.75" font-family="Helvetica,sans-Serif" font-size="10.00">&lt; Filter &gt;</text>
</a>
</g>
</g>
<!-- Node5&#45;&gt;Node1 -->
<g id="edge5_Node000005_Node000001" class="edge">
<title>Node5&#45;&gt;Node1</title>
<g id="a_edge5_Node000005_Node000001"><a xlink:title=" ">
<path fill="none" stroke="#63b8ff" d="M167.15,-246.58C176.49,-245.04 185.89,-243.49 194.96,-241.99"/>
<polygon fill="#63b8ff" stroke="#63b8ff" points="166.6,-243.13 157.3,-248.21 167.74,-250.03 166.6,-243.13"/>
</a>
</g>
</g>
<!-- Node6 -->
<g id="Node000006" class="node">
<title>Node6</title>
<g id="a_Node000006"><a xlink:title=" ">
<polygon fill="#e0e0e0" stroke="#999999" points="142.75,-221.75 16.5,-221.75 16.5,-180 142.75,-180 142.75,-221.75"/>
<text text-anchor="start" x="24.5" y="-208.25" font-family="Helvetica,sans-Serif" font-size="10.00">fcarouge::kalman_internal</text>
<text text-anchor="start" x="24.5" y="-197" font-family="Helvetica,sans-Serif" font-size="10.00">::conditional_prediction</text>
<text text-anchor="middle" x="79.62" y="-185.75" font-family="Helvetica,sans-Serif" font-size="10.00">_types&lt; Filter &gt;</text>
</a>
</g>
</g>
<!-- Node6&#45;&gt;Node1 -->
<g id="edge6_Node000006_Node000001" class="edge">
<title>Node6&#45;&gt;Node1</title>
<g id="a_edge6_Node000006_Node000001"><a xlink:title=" ">
<path fill="none" stroke="#63b8ff" d="M154.28,-213.04C167.74,-215.26 181.72,-217.57 194.98,-219.76"/>
<polygon fill="#63b8ff" stroke="#63b8ff" points="155.06,-209.62 144.62,-211.45 153.92,-216.53 155.06,-209.62"/>
</a>
</g>
</g>
<!-- Node7 -->
<g id="Node000007" class="node">
<title>Node7</title>
<g id="a_Node000007"><a xlink:title=" ">
<polygon fill="#e0e0e0" stroke="#999999" points="159.25,-161.75 0,-161.75 0,-120 159.25,-120 159.25,-161.75"/>
<text text-anchor="start" x="8" y="-148.25" font-family="Helvetica,sans-Serif" font-size="10.00">fcarouge::kalman_internal</text>
<text text-anchor="start" x="8" y="-137" font-family="Helvetica,sans-Serif" font-size="10.00">::conditional_process_uncertainty</text>
<text text-anchor="middle" x="79.62" y="-125.75" font-family="Helvetica,sans-Serif" font-size="10.00">&lt; Filter &gt;</text>
</a>
</g>
</g>
<!-- Node7&#45;&gt;Node1 -->
<g id="edge7_Node000007_Node000001" class="edge">
<title>Node7&#45;&gt;Node1</title>
<g id="a_edge7_Node000007_Node000001"><a xlink:title=" ">
<path fill="none" stroke="#63b8ff" d="M149.82,-166.54C153.03,-167.96 156.19,-169.41 159.25,-170.88 183.33,-182.39 209.3,-197.54 229.14,-209.73"/>
<polygon fill="#63b8ff" stroke="#63b8ff" points="151.43,-163.42 140.86,-162.71 148.67,-169.86 151.43,-163.42"/>
</a>
</g>
</g>
<!-- Node8 -->
<g id="Node000008" class="node">
<title>Node8</title>
<g id="a_Node000008"><a xlink:title=" ">
<polygon fill="#e0e0e0" stroke="#999999" points="149.12,-101.75 10.12,-101.75 10.12,-60 149.12,-60 149.12,-101.75"/>
<text text-anchor="start" x="18.12" y="-88.25" font-family="Helvetica,sans-Serif" font-size="10.00">fcarouge::kalman_internal</text>
<text text-anchor="start" x="18.12" y="-77" font-family="Helvetica,sans-Serif" font-size="10.00">::conditional_state_transition</text>
<text text-anchor="middle" x="79.62" y="-65.75" font-family="Helvetica,sans-Serif" font-size="10.00">&lt; Filter &gt;</text>
</a>
</g>
</g>
<!-- Node8&#45;&gt;Node1 -->
<g id="edge8_Node000008_Node000001" class="edge">
<title>Node8&#45;&gt;Node1</title>
<g id="a_edge8_Node000008_Node000001"><a xlink:title=" ">
<path fill="none" stroke="#63b8ff" d="M154.44,-107.68C156.08,-108.71 157.69,-109.78 159.25,-110.88 198.1,-138.2 231.48,-183.4 249.04,-209.83"/>
<polygon fill="#63b8ff" stroke="#63b8ff" points="156.43,-104.79 146,-102.89 152.97,-110.87 156.43,-104.79"/>
</a>
</g>
</g>
<!-- Node9 -->
<g id="Node000009" class="node">
<title>Node9</title>
<g id="a_Node000009"><a xlink:title=" ">
<polygon fill="#e0e0e0" stroke="#999999" points="144.62,-41.75 14.62,-41.75 14.62,0 144.62,0 144.62,-41.75"/>
<text text-anchor="start" x="22.62" y="-28.25" font-family="Helvetica,sans-Serif" font-size="10.00">fcarouge::kalman_internal</text>
<text text-anchor="start" x="22.62" y="-17" font-family="Helvetica,sans-Serif" font-size="10.00">::conditional_update_types</text>
<text text-anchor="middle" x="79.62" y="-5.75" font-family="Helvetica,sans-Serif" font-size="10.00">&lt; Filter &gt;</text>
</a>
</g>
</g>
<!-- Node9&#45;&gt;Node1 -->
<g id="edge9_Node000009_Node000001" class="edge">
<title>Node9&#45;&gt;Node1</title>
<g id="a_edge9_Node000009_Node000001"><a xlink:title=" ">
<path fill="none" stroke="#63b8ff" d="M154.62,-47.21C156.21,-48.38 157.76,-49.6 159.25,-50.88 211.09,-95.23 242.62,-172.55 255.5,-209.73"/>
<polygon fill="#63b8ff" stroke="#63b8ff" points="156.57,-44.3 146.27,-41.83 152.78,-50.19 156.57,-44.3"/>
</a>
</g>
</g>
</g>
</svg>
