<?xml version="1.0" encoding="UTF-8" standalone="no"?>
<!DOCTYPE svg PUBLIC "-//W3C//DTD SVG 1.1//EN"
 "http://www.w3.org/Graphics/SVG/1.1/DTD/svg11.dtd">
<!-- Generated by graphviz version 2.49.3 (20211027.1534)
 -->
<!-- Title: test/initialization.cpp Pages: 1 -->
<svg width="483pt" height="308pt"
 viewBox="0.00 0.00 483.00 308.00" xmlns="http://www.w3.org/2000/svg" xmlns:xlink="http://www.w3.org/1999/xlink">
<g id="graph0" class="graph" transform="scale(1 1) rotate(0) translate(4 304)">
<title>test/initialization.cpp</title>
<polygon fill="white" stroke="transparent" points="-4,4 -4,-304 479,-304 479,4 -4,4"/>
<!-- Node1 -->
<g id="node1" class="node">
<title>Node1</title>
<g id="a_node1"><a xlink:title=" ">
<polygon fill="#bfbfbf" stroke="black" points="288.5,-280.5 288.5,-299.5 392.5,-299.5 392.5,-280.5 288.5,-280.5"/>
<text text-anchor="middle" x="340.5" y="-287.5" font-family="Helvetica,sans-Serif" font-size="10.00">test/initialization.cpp</text>
</a>
</g>
</g>
<!-- Node2 -->
<g id="node2" class="node">
<title>Node2</title>
<g id="a_node2"><a xlink:href="kalman_8hpp.xhtml" target="_top" xlink:title="The main Kalman filter class.">
<polygon fill="white" stroke="black" points="97,-112.5 97,-131.5 204,-131.5 204,-112.5 97,-112.5"/>
<text text-anchor="middle" x="150.5" y="-119.5" font-family="Helvetica,sans-Serif" font-size="10.00">fcarouge/kalman.hpp</text>
</a>
</g>
</g>
<!-- Node1&#45;&gt;Node2 -->
<g id="edge1" class="edge">
<title>Node1&#45;&gt;Node2</title>
<path fill="none" stroke="midnightblue" d="M322.44,-280.35C306.21,-272.15 282.13,-258.89 263.5,-244 222.9,-211.56 183.29,-164.59 163.52,-139.79"/>
<polygon fill="midnightblue" stroke="midnightblue" points="166.1,-137.42 157.16,-131.73 160.6,-141.75 166.1,-137.42"/>
</g>
<!-- Node9 -->
<g id="node9" class="node">
<title>Node9</title>
<g id="a_node9"><a xlink:href="kalman__eigen_8hpp.xhtml" target="_top" xlink:title="Kalman operation for Eigen 3 types.">
<polygon fill="white" stroke="black" points="273,-224.5 273,-243.5 408,-243.5 408,-224.5 273,-224.5"/>
<text text-anchor="middle" x="340.5" y="-231.5" font-family="Helvetica,sans-Serif" font-size="10.00">fcarouge/kalman_eigen.hpp</text>
</a>
</g>
</g>
<!-- Node1&#45;&gt;Node9 -->
<g id="edge10" class="edge">
<title>Node1&#45;&gt;Node9</title>
<path fill="none" stroke="midnightblue" d="M340.5,-280.08C340.5,-273.01 340.5,-262.86 340.5,-253.99"/>
<polygon fill="midnightblue" stroke="midnightblue" points="344,-253.75 340.5,-243.75 337,-253.75 344,-253.75"/>
</g>
<!-- Node13 -->
<g id="node13" class="node">
<title>Node13</title>
<g id="a_node13"><a xlink:title=" ">
<polygon fill="white" stroke="#bfbfbf" points="426,-224.5 426,-243.5 475,-243.5 475,-224.5 426,-224.5"/>
<text text-anchor="middle" x="450.5" y="-231.5" font-family="Helvetica,sans-Serif" font-size="10.00">cassert</text>
</a>
</g>
</g>
<!-- Node1&#45;&gt;Node13 -->
<g id="edge20" class="edge">
<title>Node1&#45;&gt;Node13</title>
<path fill="none" stroke="midnightblue" d="M358.17,-280.32C375.89,-271.62 403.4,-258.12 423.79,-248.11"/>
<polygon fill="midnightblue" stroke="midnightblue" points="425.44,-251.2 432.87,-243.65 422.35,-244.92 425.44,-251.2"/>
</g>
<!-- Node3 -->
<g id="node3" class="node">
<title>Node3</title>
<g id="a_node3"><a xlink:href="internal_2kalman_8hpp.xhtml" target="_top" xlink:title="The main Kalman filter class.">
<polygon fill="white" stroke="black" points="115,-56.5 115,-75.5 216,-75.5 216,-56.5 115,-56.5"/>
<text text-anchor="middle" x="165.5" y="-63.5" font-family="Helvetica,sans-Serif" font-size="10.00">internal/kalman.hpp</text>
</a>
</g>
</g>
<!-- Node2&#45;&gt;Node3 -->
<g id="edge2" class="edge">
<title>Node2&#45;&gt;Node3</title>
<path fill="none" stroke="midnightblue" d="M152.98,-112.08C154.99,-104.85 157.89,-94.41 160.39,-85.4"/>
<polygon fill="midnightblue" stroke="midnightblue" points="163.76,-86.32 163.07,-75.75 157.02,-84.45 163.76,-86.32"/>
</g>
<!-- Node4 -->
<g id="node4" class="node">
<title>Node4</title>
<g id="a_node4"><a xlink:title=" ">
<polygon fill="white" stroke="#bfbfbf" points="0,-0.5 0,-19.5 59,-19.5 59,-0.5 0,-0.5"/>
<text text-anchor="middle" x="29.5" y="-7.5" font-family="Helvetica,sans-Serif" font-size="10.00">functional</text>
</a>
</g>
</g>
<!-- Node2&#45;&gt;Node4 -->
<g id="edge6" class="edge">
<title>Node2&#45;&gt;Node4</title>
<path fill="none" stroke="midnightblue" d="M111.75,-112.47C90.33,-105.88 64.83,-94.63 48.5,-76 37.25,-63.17 32.65,-43.98 30.77,-29.78"/>
<polygon fill="midnightblue" stroke="midnightblue" points="34.24,-29.28 29.78,-19.67 27.27,-29.97 34.24,-29.28"/>
</g>
<!-- Node5 -->
<g id="node5" class="node">
<title>Node5</title>
<g id="a_node5"><a xlink:title=" ">
<polygon fill="white" stroke="#bfbfbf" points="213.5,-0.5 213.5,-19.5 275.5,-19.5 275.5,-0.5 213.5,-0.5"/>
<text text-anchor="middle" x="244.5" y="-7.5" font-family="Helvetica,sans-Serif" font-size="10.00">type_traits</text>
</a>
</g>
</g>
<!-- Node2&#45;&gt;Node5 -->
<g id="edge8" class="edge">
<title>Node2&#45;&gt;Node5</title>
<path fill="none" stroke="midnightblue" d="M173.31,-112.35C189.75,-105.02 211.29,-92.97 224.5,-76 234.92,-62.62 239.94,-43.8 242.34,-29.85"/>
<polygon fill="midnightblue" stroke="midnightblue" points="245.81,-30.3 243.76,-19.9 238.88,-29.31 245.81,-30.3"/>
</g>
<!-- Node6 -->
<g id="node6" class="node">
<title>Node6</title>
<g id="a_node6"><a xlink:title=" ">
<polygon fill="white" stroke="#bfbfbf" points="272.5,-56.5 272.5,-75.5 328.5,-75.5 328.5,-56.5 272.5,-56.5"/>
<text text-anchor="middle" x="300.5" y="-63.5" font-family="Helvetica,sans-Serif" font-size="10.00">concepts</text>
</a>
</g>
</g>
<!-- Node2&#45;&gt;Node6 -->
<g id="edge5" class="edge">
<title>Node2&#45;&gt;Node6</title>
<path fill="none" stroke="midnightblue" d="M174.27,-112.44C199.39,-103.4 239.21,-89.06 267.4,-78.92"/>
<polygon fill="midnightblue" stroke="midnightblue" points="268.62,-82.2 276.84,-75.52 266.25,-75.61 268.62,-82.2"/>
</g>
<!-- Node7 -->
<g id="node7" class="node">
<title>Node7</title>
<g id="a_node7"><a xlink:title=" ">
<polygon fill="white" stroke="#bfbfbf" points="414.5,-56.5 414.5,-75.5 452.5,-75.5 452.5,-56.5 414.5,-56.5"/>
<text text-anchor="middle" x="433.5" y="-63.5" font-family="Helvetica,sans-Serif" font-size="10.00">tuple</text>
</a>
</g>
</g>
<!-- Node2&#45;&gt;Node7 -->
<g id="edge7" class="edge">
<title>Node2&#45;&gt;Node7</title>
<path fill="none" stroke="midnightblue" d="M195.34,-112.44C253.86,-101.28 354.62,-82.05 404.2,-72.59"/>
<polygon fill="midnightblue" stroke="midnightblue" points="405.09,-75.98 414.25,-70.67 403.78,-69.11 405.09,-75.98"/>
</g>
<!-- Node8 -->
<g id="node8" class="node">
<title>Node8</title>
<g id="a_node8"><a xlink:title=" ">
<polygon fill="white" stroke="#bfbfbf" points="58,-56.5 58,-75.5 97,-75.5 97,-56.5 58,-56.5"/>
<text text-anchor="middle" x="77.5" y="-63.5" font-family="Helvetica,sans-Serif" font-size="10.00">utility</text>
</a>
</g>
</g>
<!-- Node2&#45;&gt;Node8 -->
<g id="edge9" class="edge">
<title>Node2&#45;&gt;Node8</title>
<path fill="none" stroke="midnightblue" d="M138.77,-112.32C127.66,-104.11 110.76,-91.6 97.52,-81.81"/>
<polygon fill="midnightblue" stroke="midnightblue" points="99.56,-78.97 89.44,-75.83 95.4,-84.59 99.56,-78.97"/>
</g>
<!-- Node3&#45;&gt;Node4 -->
<g id="edge3" class="edge">
<title>Node3&#45;&gt;Node4</title>
<path fill="none" stroke="midnightblue" d="M143.95,-56.44C121.47,-47.52 86.01,-33.44 60.52,-23.32"/>
<polygon fill="midnightblue" stroke="midnightblue" points="61.53,-19.95 50.95,-19.52 58.95,-26.46 61.53,-19.95"/>
</g>
<!-- Node3&#45;&gt;Node5 -->
<g id="edge4" class="edge">
<title>Node3&#45;&gt;Node5</title>
<path fill="none" stroke="midnightblue" d="M178.19,-56.32C190.4,-47.98 209.08,-35.21 223.5,-25.35"/>
<polygon fill="midnightblue" stroke="midnightblue" points="225.56,-28.19 231.84,-19.65 221.61,-22.41 225.56,-28.19"/>
</g>
<!-- Node9&#45;&gt;Node7 -->
<g id="edge19" class="edge">
<title>Node9&#45;&gt;Node7</title>
<path fill="none" stroke="midnightblue" d="M357.61,-224.38C372.33,-216.39 393.48,-203.41 408.5,-188 428.98,-166.98 435.41,-160.21 443.5,-132 447.93,-116.57 444.47,-98.47 440.46,-85.3"/>
<polygon fill="midnightblue" stroke="midnightblue" points="443.67,-83.89 437.12,-75.56 437.05,-86.16 443.67,-83.89"/>
</g>
<!-- Node10 -->
<g id="node10" class="node">
<title>Node10</title>
<g id="a_node10"><a xlink:href="internal_2kalman__eigen_8hpp.xhtml" target="_top" xlink:title="Kalman operation for Eigen 3 types.">
<polygon fill="white" stroke="black" points="252,-168.5 252,-187.5 381,-187.5 381,-168.5 252,-168.5"/>
<text text-anchor="middle" x="316.5" y="-175.5" font-family="Helvetica,sans-Serif" font-size="10.00">internal/kalman_eigen.hpp</text>
</a>
</g>
</g>
<!-- Node9&#45;&gt;Node10 -->
<g id="edge11" class="edge">
<title>Node9&#45;&gt;Node10</title>
<path fill="none" stroke="midnightblue" d="M336.54,-224.08C333.29,-216.77 328.58,-206.18 324.55,-197.1"/>
<polygon fill="midnightblue" stroke="midnightblue" points="327.65,-195.47 320.39,-187.75 321.25,-198.31 327.65,-195.47"/>
</g>
<!-- Node12 -->
<g id="node12" class="node">
<title>Node12</title>
<g id="a_node12"><a xlink:title=" ">
<polygon fill="white" stroke="#bfbfbf" points="385,-112.5 385,-131.5 434,-131.5 434,-112.5 385,-112.5"/>
<text text-anchor="middle" x="409.5" y="-119.5" font-family="Helvetica,sans-Serif" font-size="10.00">cstddef</text>
</a>
</g>
</g>
<!-- Node9&#45;&gt;Node12 -->
<g id="edge18" class="edge">
<title>Node9&#45;&gt;Node12</title>
<path fill="none" stroke="midnightblue" d="M353.87,-224.19C365.2,-216.08 381.05,-203.03 390.5,-188 399.4,-173.85 404.27,-155.36 406.85,-141.73"/>
<polygon fill="midnightblue" stroke="midnightblue" points="410.34,-142.05 408.51,-131.61 403.43,-140.91 410.34,-142.05"/>
</g>
<!-- Node10&#45;&gt;Node2 -->
<g id="edge12" class="edge">
<title>Node10&#45;&gt;Node2</title>
<path fill="none" stroke="midnightblue" d="M290.2,-168.44C262.15,-159.32 217.56,-144.81 186.32,-134.65"/>
<polygon fill="midnightblue" stroke="midnightblue" points="187.27,-131.28 176.68,-131.52 185.11,-137.94 187.27,-131.28"/>
</g>
<!-- Node10&#45;&gt;Node4 -->
<g id="edge16" class="edge">
<title>Node10&#45;&gt;Node4</title>
<path fill="none" stroke="midnightblue" d="M251.78,-174.64C203.87,-170.51 138.38,-159.72 87.5,-132 57.14,-115.46 47.42,-107.65 33.5,-76 27.1,-61.45 26.52,-43.27 27.3,-29.84"/>
<polygon fill="midnightblue" stroke="midnightblue" points="30.79,-30.13 28.18,-19.86 23.82,-29.51 30.79,-30.13"/>
</g>
<!-- Node10&#45;&gt;Node5 -->
<g id="edge17" class="edge">
<title>Node10&#45;&gt;Node5</title>
<path fill="none" stroke="midnightblue" d="M321.78,-168.3C333.82,-147.27 360.49,-92.67 337.5,-56 326.01,-37.67 304.7,-26.62 285.37,-20.07"/>
<polygon fill="midnightblue" stroke="midnightblue" points="286.39,-16.72 275.81,-17.11 284.33,-23.41 286.39,-16.72"/>
</g>
<!-- Node10&#45;&gt;Node6 -->
<g id="edge14" class="edge">
<title>Node10&#45;&gt;Node6</title>
<path fill="none" stroke="midnightblue" d="M315.24,-168.37C312.66,-150.62 306.71,-109.67 303.21,-85.6"/>
<polygon fill="midnightblue" stroke="midnightblue" points="306.65,-84.98 301.75,-75.59 299.73,-85.99 306.65,-84.98"/>
</g>
<!-- Node11 -->
<g id="node11" class="node">
<title>Node11</title>
<g id="a_node11"><a xlink:title=" ">
<polygon fill="white" stroke="#bfbfbf" points="222.5,-112.5 222.5,-131.5 290.5,-131.5 290.5,-112.5 222.5,-112.5"/>
<text text-anchor="middle" x="256.5" y="-119.5" font-family="Helvetica,sans-Serif" font-size="10.00">Eigen/Eigen</text>
</a>
</g>
</g>
<!-- Node10&#45;&gt;Node11 -->
<g id="edge13" class="edge">
<title>Node10&#45;&gt;Node11</title>
<path fill="none" stroke="midnightblue" d="M306.86,-168.32C297.99,-160.34 284.63,-148.31 273.89,-138.65"/>
<polygon fill="midnightblue" stroke="midnightblue" points="276.09,-135.92 266.32,-131.83 271.41,-141.13 276.09,-135.92"/>
</g>
<!-- Node10&#45;&gt;Node12 -->
<g id="edge15" class="edge">
<title>Node10&#45;&gt;Node12</title>
<path fill="none" stroke="midnightblue" d="M331.44,-168.32C346.09,-159.82 368.63,-146.73 385.74,-136.8"/>
<polygon fill="midnightblue" stroke="midnightblue" points="387.7,-139.7 394.6,-131.65 384.19,-133.65 387.7,-139.7"/>
</g>
</g>
</svg>
