<?xml version="1.0" encoding="UTF-8" standalone="no"?>
<!DOCTYPE svg PUBLIC "-//W3C//DTD SVG 1.1//EN"
 "http://www.w3.org/Graphics/SVG/1.1/DTD/svg11.dtd">
<!-- Generated by graphviz version 3.0.0 (20220413.0242)
 -->
<!-- Title: include/fcarouge/internal/kalman.hpp Pages: 1 -->
<svg width="238pt" height="151pt"
 viewBox="0.00 0.00 237.50 151.00" xmlns="http://www.w3.org/2000/svg" xmlns:xlink="http://www.w3.org/1999/xlink">
<g id="graph0" class="graph" transform="scale(1 1) rotate(0) translate(4 147)">
<title>include/fcarouge/internal/kalman.hpp</title>
<polygon fill="white" stroke="transparent" points="-4,4 -4,-147 233.5,-147 233.5,4 -4,4"/>
<!-- Node1 -->
<g id="node1" class="node">
<title>Node1</title>
<g id="a_node1"><a xlink:title=" ">
<polygon fill="#bfbfbf" stroke="black" points="53.5,-112.5 53.5,-142.5 175.5,-142.5 175.5,-112.5 53.5,-112.5"/>
<text text-anchor="start" x="61.5" y="-130.5" font-family="Helvetica,sans-Serif" font-size="10.00">include/fcarouge/internal</text>
<text text-anchor="middle" x="114.5" y="-119.5" font-family="Helvetica,sans-Serif" font-size="10.00">/kalman.hpp</text>
</a>
</g>
</g>
<!-- Node2 -->
<g id="node2" class="node">
<title>Node2</title>
<g id="a_node2"><a xlink:href="utility_8hpp.xhtml" target="_top" xlink:title=" ">
<polygon fill="white" stroke="black" points="0,-56.5 0,-75.5 57,-75.5 57,-56.5 0,-56.5"/>
<text text-anchor="middle" x="28.5" y="-63.5" font-family="Helvetica,sans-Serif" font-size="10.00">utility.hpp</text>
</a>
</g>
</g>
<!-- Node1&#45;&gt;Node2 -->
<g id="edge1" class="edge">
<title>Node1&#45;&gt;Node2</title>
<path fill="none" stroke="midnightblue" d="M94.12,-112.4C80.59,-103.04 62.89,-90.79 49.28,-81.38"/>
<polygon fill="midnightblue" stroke="midnightblue" points="51.23,-78.47 41.01,-75.66 47.25,-84.23 51.23,-78.47"/>
</g>
<!-- Node3 -->
<g id="node3" class="node">
<title>Node3</title>
<g id="a_node3"><a xlink:title=" ">
<polygon fill="white" stroke="#bfbfbf" points="25.5,-0.5 25.5,-19.5 87.5,-19.5 87.5,-0.5 25.5,-0.5"/>
<text text-anchor="middle" x="56.5" y="-7.5" font-family="Helvetica,sans-Serif" font-size="10.00">type_traits</text>
</a>
</g>
</g>
<!-- Node1&#45;&gt;Node3 -->
<g id="edge5" class="edge">
<title>Node1&#45;&gt;Node3</title>
<path fill="none" stroke="midnightblue" d="M107.39,-112.34C96.8,-91.24 76.89,-51.6 65.36,-28.65"/>
<polygon fill="midnightblue" stroke="midnightblue" points="68.47,-27.04 60.85,-19.67 62.21,-30.18 68.47,-27.04"/>
</g>
<!-- Node4 -->
<g id="node4" class="node">
<title>Node4</title>
<g id="a_node4"><a xlink:title=" ">
<polygon fill="white" stroke="#bfbfbf" points="114,-56.5 114,-75.5 173,-75.5 173,-56.5 114,-56.5"/>
<text text-anchor="middle" x="143.5" y="-63.5" font-family="Helvetica,sans-Serif" font-size="10.00">functional</text>
</a>
</g>
</g>
<!-- Node1&#45;&gt;Node4 -->
<g id="edge3" class="edge">
<title>Node1&#45;&gt;Node4</title>
<path fill="none" stroke="midnightblue" d="M121.37,-112.4C125.41,-104.11 130.56,-93.55 134.87,-84.71"/>
<polygon fill="midnightblue" stroke="midnightblue" points="138.05,-86.18 139.28,-75.66 131.75,-83.11 138.05,-86.18"/>
</g>
<!-- Node5 -->
<g id="node5" class="node">
<title>Node5</title>
<g id="a_node5"><a xlink:title=" ">
<polygon fill="white" stroke="#bfbfbf" points="191.5,-56.5 191.5,-75.5 229.5,-75.5 229.5,-56.5 191.5,-56.5"/>
<text text-anchor="middle" x="210.5" y="-63.5" font-family="Helvetica,sans-Serif" font-size="10.00">tuple</text>
</a>
</g>
</g>
<!-- Node1&#45;&gt;Node5 -->
<g id="edge4" class="edge">
<title>Node1&#45;&gt;Node5</title>
<path fill="none" stroke="midnightblue" d="M137.25,-112.4C152.49,-102.95 172.49,-90.56 187.74,-81.11"/>
<polygon fill="midnightblue" stroke="midnightblue" points="189.88,-83.9 196.53,-75.66 186.19,-77.95 189.88,-83.9"/>
</g>
<!-- Node2&#45;&gt;Node3 -->
<g id="edge2" class="edge">
<title>Node2&#45;&gt;Node3</title>
<path fill="none" stroke="midnightblue" d="M33.12,-56.08C36.96,-48.69 42.52,-37.95 47.26,-28.81"/>
<polygon fill="midnightblue" stroke="midnightblue" points="50.47,-30.24 51.96,-19.75 44.25,-27.02 50.47,-30.24"/>
</g>
</g>
</svg>
