<?xml version="1.0" encoding="UTF-8" standalone="no"?>
<!DOCTYPE svg PUBLIC "-//W3C//DTD SVG 1.1//EN"
 "http://www.w3.org/Graphics/SVG/1.1/DTD/svg11.dtd">
<!-- Generated by graphviz version 2.49.3 (20211027.1534)
 -->
<!-- Title: include/fcarouge/internal/kalman_eigen.hpp Pages: 1 -->
<svg width="426pt" height="162pt"
 viewBox="0.00 0.00 425.50 162.00" xmlns="http://www.w3.org/2000/svg" xmlns:xlink="http://www.w3.org/1999/xlink">
<g id="graph0" class="graph" transform="scale(1 1) rotate(0) translate(4 158)">
<title>include/fcarouge/internal/kalman_eigen.hpp</title>
<polygon fill="white" stroke="transparent" points="-4,4 -4,-158 421.5,-158 421.5,4 -4,4"/>
<!-- Node1 -->
<g id="node1" class="node">
<title>Node1</title>
<g id="a_node1"><a xlink:title="Kalman operation for Eigen 3 types.">
<polygon fill="#bfbfbf" stroke="black" points="162.5,-123.5 162.5,-153.5 284.5,-153.5 284.5,-123.5 162.5,-123.5"/>
<text text-anchor="start" x="170.5" y="-141.5" font-family="Helvetica,sans-Serif" font-size="10.00">include/fcarouge/internal</text>
<text text-anchor="middle" x="223.5" y="-130.5" font-family="Helvetica,sans-Serif" font-size="10.00">/kalman_eigen.hpp</text>
</a>
</g>
</g>
<!-- Node2 -->
<g id="node2" class="node">
<title>Node2</title>
<g id="a_node2"><a xlink:href="kalman__eigen_8hpp.xhtml" target="_top" xlink:title="Kalman operation for Eigen 3 types.">
<polygon fill="white" stroke="black" points="162.5,-56.5 162.5,-86.5 284.5,-86.5 284.5,-56.5 162.5,-56.5"/>
<text text-anchor="start" x="170.5" y="-74.5" font-family="Helvetica,sans-Serif" font-size="10.00">include/fcarouge/kalman</text>
<text text-anchor="middle" x="223.5" y="-63.5" font-family="Helvetica,sans-Serif" font-size="10.00">_eigen.hpp</text>
</a>
</g>
</g>
<!-- Node1&#45;&gt;Node2 -->
<g id="edge1" class="edge">
<title>Node1&#45;&gt;Node2</title>
<path fill="none" stroke="midnightblue" d="M223.5,-113.11C223.5,-104.15 223.5,-94.32 223.5,-86.58"/>
<polygon fill="midnightblue" stroke="midnightblue" points="220,-113.4 223.5,-123.4 227,-113.4 220,-113.4"/>
</g>
<!-- Node3 -->
<g id="node3" class="node">
<title>Node3</title>
<g id="a_node3"><a xlink:href="rocket__altitude_8cpp.xhtml" target="_top" xlink:title=" ">
<polygon fill="white" stroke="black" points="0,-0.5 0,-19.5 133,-19.5 133,-0.5 0,-0.5"/>
<text text-anchor="middle" x="66.5" y="-7.5" font-family="Helvetica,sans-Serif" font-size="10.00">sample/rocket_altitude.cpp</text>
</a>
</g>
</g>
<!-- Node2&#45;&gt;Node3 -->
<g id="edge2" class="edge">
<title>Node2&#45;&gt;Node3</title>
<path fill="none" stroke="midnightblue" d="M176.8,-52.8C147.94,-41.86 112.18,-28.31 89.34,-19.66"/>
<polygon fill="midnightblue" stroke="midnightblue" points="175.7,-56.13 186.29,-56.4 178.18,-49.58 175.7,-56.13"/>
</g>
<!-- Node4 -->
<g id="node4" class="node">
<title>Node4</title>
<g id="a_node4"><a xlink:href="vehicule__location_8cpp.xhtml" target="_top" xlink:title=" ">
<polygon fill="white" stroke="black" points="151.5,-0.5 151.5,-19.5 295.5,-19.5 295.5,-0.5 151.5,-0.5"/>
<text text-anchor="middle" x="223.5" y="-7.5" font-family="Helvetica,sans-Serif" font-size="10.00">sample/vehicule_location.cpp</text>
</a>
</g>
</g>
<!-- Node2&#45;&gt;Node4 -->
<g id="edge3" class="edge">
<title>Node2&#45;&gt;Node4</title>
<path fill="none" stroke="midnightblue" d="M223.5,-46.29C223.5,-36.86 223.5,-26.65 223.5,-19.66"/>
<polygon fill="midnightblue" stroke="midnightblue" points="220,-46.4 223.5,-56.4 227,-46.4 220,-46.4"/>
</g>
<!-- Node5 -->
<g id="node5" class="node">
<title>Node5</title>
<g id="a_node5"><a xlink:href="initialization_8cpp.xhtml" target="_top" xlink:title=" ">
<polygon fill="white" stroke="black" points="313.5,-0.5 313.5,-19.5 417.5,-19.5 417.5,-0.5 313.5,-0.5"/>
<text text-anchor="middle" x="365.5" y="-7.5" font-family="Helvetica,sans-Serif" font-size="10.00">test/initialization.cpp</text>
</a>
</g>
</g>
<!-- Node2&#45;&gt;Node5 -->
<g id="edge4" class="edge">
<title>Node2&#45;&gt;Node5</title>
<path fill="none" stroke="midnightblue" d="M266.42,-52.52C292.4,-41.63 324.37,-28.23 344.84,-19.66"/>
<polygon fill="midnightblue" stroke="midnightblue" points="265.02,-49.31 257.15,-56.4 267.73,-55.76 265.02,-49.31"/>
</g>
</g>
</svg>
