<?xml version="1.0" encoding="UTF-8" standalone="no"?>
<!DOCTYPE svg PUBLIC "-//W3C//DTD SVG 1.1//EN"
 "http://www.w3.org/Graphics/SVG/1.1/DTD/svg11.dtd">
<!-- Generated by graphviz version 7.0.5 (20221223.1930)
 -->
<!-- Title: /github/workspace/include/fcarouge/internal/utility.hpp Pages: 1 -->
<svg width="5074pt" height="313pt"
 viewBox="0.00 0.00 5073.50 313.00" xmlns="http://www.w3.org/2000/svg" xmlns:xlink="http://www.w3.org/1999/xlink">
<g id="graph0" class="graph" transform="scale(1 1) rotate(0) translate(4 309)">
<title>/github/workspace/include/fcarouge/internal/utility.hpp</title>
<!-- Node1 -->
<g id="node1" class="node">
<title>Node1</title>
<g id="a_node1"><a xlink:title=" ">
<polygon fill="#999999" stroke="#666666" points="1571,-305 1436,-305 1436,-275 1571,-275 1571,-305"/>
<text text-anchor="start" x="1444" y="-293" font-family="Helvetica,sans-Serif" font-size="10.00">/github/workspace/include</text>
<text text-anchor="middle" x="1503.5" y="-282" font-family="Helvetica,sans-Serif" font-size="10.00">/fcarouge/internal/utility.hpp</text>
</a>
</g>
</g>
<!-- Node2 -->
<g id="node2" class="node">
<title>Node2</title>
<g id="a_node2"><a xlink:href="predict__linalg__x1x_8cpp.xhtml" target="_top" xlink:title=" ">
<polygon fill="white" stroke="#666666" points="147,-35.5 0,-35.5 0,-5.5 147,-5.5 147,-35.5"/>
<text text-anchor="start" x="8" y="-23.5" font-family="Helvetica,sans-Serif" font-size="10.00">/github/workspace/benchmark</text>
<text text-anchor="middle" x="73.5" y="-12.5" font-family="Helvetica,sans-Serif" font-size="10.00">/predict_linalg_x1x.cpp</text>
</a>
</g>
</g>
<!-- Node1&#45;&gt;Node2 -->
<g id="edge1" class="edge">
<title>Node1&#45;&gt;Node2</title>
<path fill="none" stroke="#63b8ff" d="M1424.37,-277.91C1357.64,-268.33 1259.66,-253.74 1174.5,-239 719.9,-160.32 606.46,-138.39 155.5,-41 148.21,-39.42 140.56,-37.7 133,-35.96"/>
<polygon fill="#63b8ff" stroke="#63b8ff" points="1423.74,-281.35 1434.13,-279.3 1424.73,-274.42 1423.74,-281.35"/>
</g>
<!-- Node3 -->
<g id="node3" class="node">
<title>Node3</title>
<g id="a_node3"><a xlink:href="update__linalg__xx0_8cpp.xhtml" target="_top" xlink:title=" ">
<polygon fill="white" stroke="#666666" points="312,-35.5 165,-35.5 165,-5.5 312,-5.5 312,-35.5"/>
<text text-anchor="start" x="173" y="-23.5" font-family="Helvetica,sans-Serif" font-size="10.00">/github/workspace/benchmark</text>
<text text-anchor="middle" x="238.5" y="-12.5" font-family="Helvetica,sans-Serif" font-size="10.00">/update_linalg_xx0.cpp</text>
</a>
</g>
</g>
<!-- Node1&#45;&gt;Node3 -->
<g id="edge2" class="edge">
<title>Node1&#45;&gt;Node3</title>
<path fill="none" stroke="#63b8ff" d="M1435.03,-271.86C1279.94,-233.41 889.62,-138.85 559.5,-77 453.92,-57.22 425.96,-61.44 320.5,-41 312.74,-39.5 304.61,-37.76 296.6,-35.95"/>
<polygon fill="#63b8ff" stroke="#63b8ff" points="1433.77,-275.15 1444.32,-274.16 1435.46,-268.36 1433.77,-275.15"/>
</g>
<!-- Node4 -->
<g id="node4" class="node">
<title>Node4</title>
<g id="a_node4"><a xlink:href="internal_2kalman_8hpp.xhtml" target="_top" xlink:title=" ">
<polygon fill="white" stroke="#666666" points="2041.5,-239 1897.5,-239 1897.5,-209 2041.5,-209 2041.5,-239"/>
<text text-anchor="start" x="1905.5" y="-227" font-family="Helvetica,sans-Serif" font-size="10.00">/github/workspace/include</text>
<text text-anchor="middle" x="1969.5" y="-216" font-family="Helvetica,sans-Serif" font-size="10.00">/fcarouge/internal/kalman.hpp</text>
</a>
</g>
</g>
<!-- Node1&#45;&gt;Node4 -->
<g id="edge3" class="edge">
<title>Node1&#45;&gt;Node4</title>
<path fill="none" stroke="#63b8ff" d="M1582.52,-278.15C1670.58,-266.05 1811.76,-246.66 1897.06,-234.95"/>
<polygon fill="#63b8ff" stroke="#63b8ff" points="1582.19,-274.66 1572.76,-279.49 1583.14,-281.59 1582.19,-274.66"/>
</g>
<!-- Node36 -->
<g id="node36" class="node">
<title>Node36</title>
<g id="a_node36"><a xlink:href="utility_8hpp.xhtml" target="_top" xlink:title="The collection of utilities supporting the library.">
<polygon fill="white" stroke="#666666" points="2249.5,-239 2119.5,-239 2119.5,-209 2249.5,-209 2249.5,-239"/>
<text text-anchor="start" x="2127.5" y="-227" font-family="Helvetica,sans-Serif" font-size="10.00">/github/workspace/include</text>
<text text-anchor="middle" x="2184.5" y="-216" font-family="Helvetica,sans-Serif" font-size="10.00">/fcarouge/utility.hpp</text>
</a>
</g>
</g>
<!-- Node1&#45;&gt;Node36 -->
<g id="edge37" class="edge">
<title>Node1&#45;&gt;Node36</title>
<path fill="none" stroke="#63b8ff" d="M1582.59,-282.09C1688.98,-272.73 1884.07,-255.3 2050.5,-239 2072.85,-236.81 2097.28,-234.3 2119.09,-232.01"/>
<polygon fill="#63b8ff" stroke="#63b8ff" points="1582.48,-278.59 1572.83,-282.95 1583.1,-285.56 1582.48,-278.59"/>
</g>
<!-- Node5 -->
<g id="node5" class="node">
<title>Node5</title>
<g id="a_node5"><a xlink:href="kalman_8hpp.xhtml" target="_top" xlink:title="The Kalman filter class and library top&#45;level header.">
<polygon fill="white" stroke="#666666" points="2524.5,-107 2394.5,-107 2394.5,-77 2524.5,-77 2524.5,-107"/>
<text text-anchor="start" x="2402.5" y="-95" font-family="Helvetica,sans-Serif" font-size="10.00">/github/workspace/include</text>
<text text-anchor="middle" x="2459.5" y="-84" font-family="Helvetica,sans-Serif" font-size="10.00">/fcarouge/kalman.hpp</text>
</a>
</g>
</g>
<!-- Node4&#45;&gt;Node5 -->
<g id="edge4" class="edge">
<title>Node4&#45;&gt;Node5</title>
<path fill="none" stroke="#63b8ff" d="M1992.53,-200.87C2013.45,-182.16 2046.07,-156.35 2079.5,-143 2135.2,-120.77 2300.85,-105.05 2394.01,-97.7"/>
<polygon fill="#63b8ff" stroke="#63b8ff" points="1990.17,-198.28 1985.16,-207.62 1994.9,-203.45 1990.17,-198.28"/>
</g>
<!-- Node5&#45;&gt;Node2 -->
<g id="edge7" class="edge">
<title>Node5&#45;&gt;Node2</title>
<path fill="none" stroke="#63b8ff" d="M2382.66,-90.3C2007.81,-86.75 380,-69.8 155.5,-41 146.21,-39.81 136.44,-37.99 127.01,-35.94"/>
<polygon fill="#63b8ff" stroke="#63b8ff" points="2382.62,-93.8 2392.65,-90.39 2382.69,-86.8 2382.62,-93.8"/>
</g>
<!-- Node5&#45;&gt;Node3 -->
<g id="edge10" class="edge">
<title>Node5&#45;&gt;Node3</title>
<path fill="none" stroke="#63b8ff" d="M2382.7,-91.37C2049.99,-92.61 731.34,-94.05 320.5,-41 311.21,-39.8 301.44,-37.98 292.01,-35.93"/>
<polygon fill="#63b8ff" stroke="#63b8ff" points="2382.62,-94.87 2392.6,-91.33 2382.59,-87.87 2382.62,-94.87"/>
</g>
<!-- Node6 -->
<g id="node6" class="node">
<title>Node6</title>
<g id="a_node6"><a xlink:href="predict__1x1x0_8cpp.xhtml" target="_top" xlink:title=" ">
<polygon fill="white" stroke="#666666" points="4257,-35.5 4110,-35.5 4110,-5.5 4257,-5.5 4257,-35.5"/>
<text text-anchor="start" x="4118" y="-23.5" font-family="Helvetica,sans-Serif" font-size="10.00">/github/workspace/benchmark</text>
<text text-anchor="middle" x="4183.5" y="-12.5" font-family="Helvetica,sans-Serif" font-size="10.00">/predict_1x1x0.cpp</text>
</a>
</g>
</g>
<!-- Node5&#45;&gt;Node6 -->
<g id="edge5" class="edge">
<title>Node5&#45;&gt;Node6</title>
<path fill="none" stroke="#63b8ff" d="M2536,-90.7C2817.06,-89.29 3792.15,-81.5 4100.5,-41 4109.75,-39.79 4119.47,-37.99 4128.87,-35.97"/>
<polygon fill="#63b8ff" stroke="#63b8ff" points="2536.22,-87.2 2526.23,-90.75 2536.25,-94.2 2536.22,-87.2"/>
</g>
<!-- Node7 -->
<g id="node7" class="node">
<title>Node7</title>
<g id="a_node7"><a xlink:href="predict__1x1x1_8cpp.xhtml" target="_top" xlink:title=" ">
<polygon fill="white" stroke="#666666" points="4422,-35.5 4275,-35.5 4275,-5.5 4422,-5.5 4422,-35.5"/>
<text text-anchor="start" x="4283" y="-23.5" font-family="Helvetica,sans-Serif" font-size="10.00">/github/workspace/benchmark</text>
<text text-anchor="middle" x="4348.5" y="-12.5" font-family="Helvetica,sans-Serif" font-size="10.00">/predict_1x1x1.cpp</text>
</a>
</g>
</g>
<!-- Node5&#45;&gt;Node7 -->
<g id="edge6" class="edge">
<title>Node5&#45;&gt;Node7</title>
<path fill="none" stroke="#63b8ff" d="M2535.66,-90.98C2834.05,-90.57 3923.96,-85.98 4266.5,-41 4275.64,-39.8 4285.25,-38.01 4294.54,-35.99"/>
<polygon fill="#63b8ff" stroke="#63b8ff" points="2536.05,-87.48 2526.06,-90.99 2536.06,-94.48 2536.05,-87.48"/>
</g>
<!-- Node8 -->
<g id="node8" class="node">
<title>Node8</title>
<g id="a_node8"><a xlink:href="update__1x1x0_8cpp.xhtml" target="_top" xlink:title=" ">
<polygon fill="white" stroke="#666666" points="4587,-35.5 4440,-35.5 4440,-5.5 4587,-5.5 4587,-35.5"/>
<text text-anchor="start" x="4448" y="-23.5" font-family="Helvetica,sans-Serif" font-size="10.00">/github/workspace/benchmark</text>
<text text-anchor="middle" x="4513.5" y="-12.5" font-family="Helvetica,sans-Serif" font-size="10.00">/update_1x1x0.cpp</text>
</a>
</g>
</g>
<!-- Node5&#45;&gt;Node8 -->
<g id="edge8" class="edge">
<title>Node5&#45;&gt;Node8</title>
<path fill="none" stroke="#63b8ff" d="M2536.22,-91.19C2852.35,-91.63 4055.15,-89.98 4431.5,-41 4440.79,-39.79 4450.56,-37.97 4459.98,-35.91"/>
<polygon fill="#63b8ff" stroke="#63b8ff" points="2536.42,-87.69 2526.42,-91.17 2536.41,-94.69 2536.42,-87.69"/>
</g>
<!-- Node9 -->
<g id="node9" class="node">
<title>Node9</title>
<g id="a_node9"><a xlink:href="update__1x1x1_8cpp.xhtml" target="_top" xlink:title=" ">
<polygon fill="white" stroke="#666666" points="4752,-35.5 4605,-35.5 4605,-5.5 4752,-5.5 4752,-35.5"/>
<text text-anchor="start" x="4613" y="-23.5" font-family="Helvetica,sans-Serif" font-size="10.00">/github/workspace/benchmark</text>
<text text-anchor="middle" x="4678.5" y="-12.5" font-family="Helvetica,sans-Serif" font-size="10.00">/update_1x1x1.cpp</text>
</a>
</g>
</g>
<!-- Node5&#45;&gt;Node9 -->
<g id="edge9" class="edge">
<title>Node5&#45;&gt;Node9</title>
<path fill="none" stroke="#63b8ff" d="M2536.23,-91.36C2868.63,-92.6 4186.04,-94.01 4596.5,-41 4605.79,-39.8 4615.56,-37.98 4624.99,-35.93"/>
<polygon fill="#63b8ff" stroke="#63b8ff" points="2536.35,-87.86 2526.33,-91.32 2536.32,-94.86 2536.35,-87.86"/>
</g>
<!-- Node10 -->
<g id="node10" class="node">
<title>Node10</title>
<g id="a_node10"><a xlink:href="ekf__4x1x0__soaring_8cpp.xhtml" target="_top" xlink:title=" ">
<polygon fill="white" stroke="#666666" points="4901,-35.5 4770,-35.5 4770,-5.5 4901,-5.5 4901,-35.5"/>
<text text-anchor="start" x="4778" y="-23.5" font-family="Helvetica,sans-Serif" font-size="10.00">/github/workspace/sample</text>
<text text-anchor="middle" x="4835.5" y="-12.5" font-family="Helvetica,sans-Serif" font-size="10.00">/ekf_4x1x0_soaring.cpp</text>
</a>
</g>
</g>
<!-- Node5&#45;&gt;Node10 -->
<g id="edge11" class="edge">
<title>Node5&#45;&gt;Node10</title>
<path fill="none" stroke="#63b8ff" d="M2536.29,-90.41C2910.88,-87.38 4537.56,-72.49 4761.5,-41 4769.92,-39.82 4778.76,-38.01 4787.27,-35.96"/>
<polygon fill="#63b8ff" stroke="#63b8ff" points="2536.27,-86.91 2526.3,-90.49 2536.33,-93.91 2536.27,-86.91"/>
</g>
<!-- Node11 -->
<g id="node11" class="node">
<title>Node11</title>
<g id="a_node11"><a xlink:href="kf__1x1x0__building__height_8cpp.xhtml" target="_top" xlink:title=" ">
<polygon fill="white" stroke="#666666" points="5065.5,-35.5 4919.5,-35.5 4919.5,-5.5 5065.5,-5.5 5065.5,-35.5"/>
<text text-anchor="start" x="4927.5" y="-23.5" font-family="Helvetica,sans-Serif" font-size="10.00">/github/workspace/sample</text>
<text text-anchor="middle" x="4992.5" y="-12.5" font-family="Helvetica,sans-Serif" font-size="10.00">/kf_1x1x0_building_height.cpp</text>
</a>
</g>
</g>
<!-- Node5&#45;&gt;Node11 -->
<g id="edge12" class="edge">
<title>Node5&#45;&gt;Node11</title>
<path fill="none" stroke="#63b8ff" d="M2536.14,-90.41C2925.01,-87.28 4670.63,-71.61 4910.5,-41 4919.79,-39.81 4929.56,-38 4938.99,-35.95"/>
<polygon fill="#63b8ff" stroke="#63b8ff" points="2536.25,-86.91 2526.28,-90.49 2536.31,-93.91 2536.25,-86.91"/>
</g>
<!-- Node12 -->
<g id="node12" class="node">
<title>Node12</title>
<g id="a_node12"><a xlink:href="kf__1x1x0__liquid__temperature_8cpp.xhtml" target="_top" xlink:title=" ">
<polygon fill="white" stroke="#666666" points="491,-35.5 330,-35.5 330,-5.5 491,-5.5 491,-35.5"/>
<text text-anchor="start" x="338" y="-23.5" font-family="Helvetica,sans-Serif" font-size="10.00">/github/workspace/sample</text>
<text text-anchor="middle" x="410.5" y="-12.5" font-family="Helvetica,sans-Serif" font-size="10.00">/kf_1x1x0_liquid_temperature.cpp</text>
</a>
</g>
</g>
<!-- Node5&#45;&gt;Node12 -->
<g id="edge13" class="edge">
<title>Node5&#45;&gt;Node12</title>
<path fill="none" stroke="#63b8ff" d="M2382.79,-90.97C2068.04,-90.53 874.62,-85.9 500.5,-41 490.5,-39.8 479.97,-38.01 469.78,-35.99"/>
<polygon fill="#63b8ff" stroke="#63b8ff" points="2382.53,-94.47 2392.54,-90.98 2382.54,-87.47 2382.53,-94.47"/>
</g>
<!-- Node13 -->
<g id="node13" class="node">
<title>Node13</title>
<g id="a_node13"><a xlink:href="kf__1x1x1__dog__position_8cpp.xhtml" target="_top" xlink:title=" ">
<polygon fill="white" stroke="#666666" points="645.5,-35.5 509.5,-35.5 509.5,-5.5 645.5,-5.5 645.5,-35.5"/>
<text text-anchor="start" x="517.5" y="-23.5" font-family="Helvetica,sans-Serif" font-size="10.00">/github/workspace/sample</text>
<text text-anchor="middle" x="577.5" y="-12.5" font-family="Helvetica,sans-Serif" font-size="10.00">/kf_1x1x1_dog_position.cpp</text>
</a>
</g>
</g>
<!-- Node5&#45;&gt;Node13 -->
<g id="edge14" class="edge">
<title>Node5&#45;&gt;Node13</title>
<path fill="none" stroke="#63b8ff" d="M2382.9,-91.12C2084.05,-91.26 996.14,-88.4 654.5,-41 645.76,-39.79 636.57,-37.96 627.72,-35.91"/>
<polygon fill="#63b8ff" stroke="#63b8ff" points="2382.53,-94.62 2392.52,-91.12 2382.52,-87.62 2382.53,-94.62"/>
</g>
<!-- Node14 -->
<g id="node14" class="node">
<title>Node14</title>
<g id="a_node14"><a xlink:href="kf__2x1x1__rocket__altitude_8cpp.xhtml" target="_top" xlink:title=" ">
<polygon fill="white" stroke="#666666" points="809,-35.5 664,-35.5 664,-5.5 809,-5.5 809,-35.5"/>
<text text-anchor="start" x="672" y="-23.5" font-family="Helvetica,sans-Serif" font-size="10.00">/github/workspace/sample</text>
<text text-anchor="middle" x="736.5" y="-12.5" font-family="Helvetica,sans-Serif" font-size="10.00">/kf_2x1x1_rocket_altitude.cpp</text>
</a>
</g>
</g>
<!-- Node5&#45;&gt;Node14 -->
<g id="edge15" class="edge">
<title>Node5&#45;&gt;Node14</title>
<path fill="none" stroke="#63b8ff" d="M2382.94,-90.76C2101.69,-89.54 1125.93,-82.37 817.5,-41 808.47,-39.79 798.98,-37.99 789.8,-35.97"/>
<polygon fill="#63b8ff" stroke="#63b8ff" points="2382.71,-94.26 2392.72,-90.8 2382.73,-87.26 2382.71,-94.26"/>
</g>
<!-- Node15 -->
<g id="node15" class="node">
<title>Node15</title>
<g id="a_node15"><a xlink:href="kf__6x2x0__vehicle__location_8cpp.xhtml" target="_top" xlink:title=" ">
<polygon fill="white" stroke="#666666" points="978,-35.5 827,-35.5 827,-5.5 978,-5.5 978,-35.5"/>
<text text-anchor="start" x="835" y="-23.5" font-family="Helvetica,sans-Serif" font-size="10.00">/github/workspace/sample</text>
<text text-anchor="middle" x="902.5" y="-12.5" font-family="Helvetica,sans-Serif" font-size="10.00">/kf_6x2x0_vehicle_location.cpp</text>
</a>
</g>
</g>
<!-- Node5&#45;&gt;Node15 -->
<g id="edge16" class="edge">
<title>Node5&#45;&gt;Node15</title>
<path fill="none" stroke="#63b8ff" d="M2383.11,-90.34C2121.32,-87.76 1261.39,-76.73 987.5,-41 978.04,-39.77 968.09,-37.96 958.46,-35.93"/>
<polygon fill="#63b8ff" stroke="#63b8ff" points="2382.84,-93.83 2392.88,-90.43 2382.91,-86.84 2382.84,-93.83"/>
</g>
<!-- Node16 -->
<g id="node16" class="node">
<title>Node16</title>
<g id="a_node16"><a xlink:href="kf__8x4x0__deep__sort__bounding__box_8cpp.xhtml" target="_top" xlink:title=" ">
<polygon fill="white" stroke="#666666" points="1146.5,-41 996.5,-41 996.5,0 1146.5,0 1146.5,-41"/>
<text text-anchor="start" x="1004.5" y="-29" font-family="Helvetica,sans-Serif" font-size="10.00">/github/workspace/sample</text>
<text text-anchor="start" x="1004.5" y="-18" font-family="Helvetica,sans-Serif" font-size="10.00">/kf_8x4x0_deep_sort_bounding</text>
<text text-anchor="middle" x="1071.5" y="-7" font-family="Helvetica,sans-Serif" font-size="10.00">_box.cpp</text>
</a>
</g>
</g>
<!-- Node5&#45;&gt;Node16 -->
<g id="edge17" class="edge">
<title>Node5&#45;&gt;Node16</title>
<path fill="none" stroke="#63b8ff" d="M2382.61,-89.97C2140.36,-86.41 1394.93,-73.09 1155.5,-41 1152.68,-40.62 1149.82,-40.19 1146.93,-39.72"/>
<polygon fill="#63b8ff" stroke="#63b8ff" points="2382.54,-93.47 2392.59,-90.11 2382.64,-86.47 2382.54,-93.47"/>
</g>
<!-- Node17 -->
<g id="node17" class="node">
<title>Node17</title>
<g id="a_node17"><a xlink:href="kalman__assign__move__5x4x3_8cpp.xhtml" target="_top" xlink:title=" ">
<polygon fill="white" stroke="#666666" points="1326.5,-35.5 1164.5,-35.5 1164.5,-5.5 1326.5,-5.5 1326.5,-35.5"/>
<text text-anchor="start" x="1172.5" y="-23.5" font-family="Helvetica,sans-Serif" font-size="10.00">/github/workspace/test</text>
<text text-anchor="middle" x="1245.5" y="-12.5" font-family="Helvetica,sans-Serif" font-size="10.00">/kalman_assign_move_5x4x3.cpp</text>
</a>
</g>
</g>
<!-- Node5&#45;&gt;Node17 -->
<g id="edge18" class="edge">
<title>Node5&#45;&gt;Node17</title>
<path fill="none" stroke="#63b8ff" d="M2382.96,-89.28C2164.17,-84.1 1538.77,-67.35 1335.5,-41 1325.67,-39.73 1315.32,-37.92 1305.28,-35.93"/>
<polygon fill="#63b8ff" stroke="#63b8ff" points="2382.72,-92.78 2392.8,-89.51 2382.88,-85.78 2382.72,-92.78"/>
</g>
<!-- Node18 -->
<g id="node18" class="node">
<title>Node18</title>
<g id="a_node18"><a xlink:href="kalman__constructor__default_8cpp.xhtml" target="_top" xlink:title=" ">
<polygon fill="white" stroke="#666666" points="1502.5,-35.5 1344.5,-35.5 1344.5,-5.5 1502.5,-5.5 1502.5,-35.5"/>
<text text-anchor="start" x="1352.5" y="-23.5" font-family="Helvetica,sans-Serif" font-size="10.00">/github/workspace/test</text>
<text text-anchor="middle" x="1423.5" y="-12.5" font-family="Helvetica,sans-Serif" font-size="10.00">/kalman_constructor_default.cpp</text>
</a>
</g>
</g>
<!-- Node5&#45;&gt;Node18 -->
<g id="edge19" class="edge">
<title>Node5&#45;&gt;Node18</title>
<path fill="none" stroke="#63b8ff" d="M2382.96,-91.24C2221.26,-90.81 1833.24,-84.83 1511.5,-41 1502.04,-39.71 1492.09,-37.93 1482.43,-35.96"/>
<polygon fill="#63b8ff" stroke="#63b8ff" points="2382.69,-94.74 2392.7,-91.26 2382.71,-87.74 2382.69,-94.74"/>
</g>
<!-- Node19 -->
<g id="node19" class="node">
<title>Node19</title>
<g id="a_node19"><a xlink:href="kalman__constructor__default__1x1x3_8cpp.xhtml" target="_top" xlink:title=" ">
<polygon fill="white" stroke="#666666" points="1660.5,-41 1520.5,-41 1520.5,0 1660.5,0 1660.5,-41"/>
<text text-anchor="start" x="1528.5" y="-29" font-family="Helvetica,sans-Serif" font-size="10.00">/github/workspace/test</text>
<text text-anchor="start" x="1528.5" y="-18" font-family="Helvetica,sans-Serif" font-size="10.00">/kalman_constructor_default</text>
<text text-anchor="middle" x="1590.5" y="-7" font-family="Helvetica,sans-Serif" font-size="10.00">_1x1x3.cpp</text>
</a>
</g>
</g>
<!-- Node5&#45;&gt;Node19 -->
<g id="edge20" class="edge">
<title>Node5&#45;&gt;Node19</title>
<path fill="none" stroke="#63b8ff" d="M2382.92,-90.69C2241.25,-89.1 1929.04,-80.92 1669.5,-41 1666.57,-40.55 1663.59,-40.04 1660.58,-39.49"/>
<polygon fill="#63b8ff" stroke="#63b8ff" points="2382.5,-94.18 2392.53,-90.78 2382.57,-87.18 2382.5,-94.18"/>
</g>
<!-- Node20 -->
<g id="node20" class="node">
<title>Node20</title>
<g id="a_node20"><a xlink:href="kalman__constructor__default__1x4x1_8cpp.xhtml" target="_top" xlink:title=" ">
<polygon fill="white" stroke="#666666" points="1818.5,-41 1678.5,-41 1678.5,0 1818.5,0 1818.5,-41"/>
<text text-anchor="start" x="1686.5" y="-29" font-family="Helvetica,sans-Serif" font-size="10.00">/github/workspace/test</text>
<text text-anchor="start" x="1686.5" y="-18" font-family="Helvetica,sans-Serif" font-size="10.00">/kalman_constructor_default</text>
<text text-anchor="middle" x="1748.5" y="-7" font-family="Helvetica,sans-Serif" font-size="10.00">_1x4x1.cpp</text>
</a>
</g>
</g>
<!-- Node5&#45;&gt;Node20 -->
<g id="edge21" class="edge">
<title>Node5&#45;&gt;Node20</title>
<path fill="none" stroke="#63b8ff" d="M2382.85,-88.96C2263.46,-84.89 2026.17,-73.16 1827.5,-41 1824.57,-40.53 1821.59,-40 1818.59,-39.43"/>
<polygon fill="#63b8ff" stroke="#63b8ff" points="2382.41,-92.45 2392.52,-89.28 2382.64,-85.45 2382.41,-92.45"/>
</g>
<!-- Node21 -->
<g id="node21" class="node">
<title>Node21</title>
<g id="a_node21"><a xlink:href="kalman__constructor__default__1x4x3_8cpp.xhtml" target="_top" xlink:title=" ">
<polygon fill="white" stroke="#666666" points="1976.5,-41 1836.5,-41 1836.5,0 1976.5,0 1976.5,-41"/>
<text text-anchor="start" x="1844.5" y="-29" font-family="Helvetica,sans-Serif" font-size="10.00">/github/workspace/test</text>
<text text-anchor="start" x="1844.5" y="-18" font-family="Helvetica,sans-Serif" font-size="10.00">/kalman_constructor_default</text>
<text text-anchor="middle" x="1906.5" y="-7" font-family="Helvetica,sans-Serif" font-size="10.00">_1x4x3.cpp</text>
</a>
</g>
</g>
<!-- Node5&#45;&gt;Node21 -->
<g id="edge22" class="edge">
<title>Node5&#45;&gt;Node21</title>
<path fill="none" stroke="#63b8ff" d="M2382.92,-86.16C2288.84,-79.47 2124.57,-65.38 1985.5,-41 1982.58,-40.49 1979.6,-39.93 1976.61,-39.33"/>
<polygon fill="#63b8ff" stroke="#63b8ff" points="2382.59,-89.65 2392.81,-86.85 2383.08,-82.66 2382.59,-89.65"/>
</g>
<!-- Node22 -->
<g id="node22" class="node">
<title>Node22</title>
<g id="a_node22"><a xlink:href="kalman__constructor__default__5x1x1_8cpp.xhtml" target="_top" xlink:title=" ">
<polygon fill="white" stroke="#666666" points="2134.5,-41 1994.5,-41 1994.5,0 2134.5,0 2134.5,-41"/>
<text text-anchor="start" x="2002.5" y="-29" font-family="Helvetica,sans-Serif" font-size="10.00">/github/workspace/test</text>
<text text-anchor="start" x="2002.5" y="-18" font-family="Helvetica,sans-Serif" font-size="10.00">/kalman_constructor_default</text>
<text text-anchor="middle" x="2064.5" y="-7" font-family="Helvetica,sans-Serif" font-size="10.00">_5x1x1.cpp</text>
</a>
</g>
</g>
<!-- Node5&#45;&gt;Node22 -->
<g id="edge23" class="edge">
<title>Node5&#45;&gt;Node22</title>
<path fill="none" stroke="#63b8ff" d="M2382.92,-80.74C2318.72,-71.7 2224.78,-57.43 2143.5,-41 2140.59,-40.41 2137.63,-39.79 2134.64,-39.14"/>
<polygon fill="#63b8ff" stroke="#63b8ff" points="2382.26,-84.19 2392.65,-82.11 2383.23,-77.25 2382.26,-84.19"/>
</g>
<!-- Node23 -->
<g id="node23" class="node">
<title>Node23</title>
<g id="a_node23"><a xlink:href="kalman__constructor__default__5x1x3_8cpp.xhtml" target="_top" xlink:title=" ">
<polygon fill="white" stroke="#666666" points="2292.5,-41 2152.5,-41 2152.5,0 2292.5,0 2292.5,-41"/>
<text text-anchor="start" x="2160.5" y="-29" font-family="Helvetica,sans-Serif" font-size="10.00">/github/workspace/test</text>
<text text-anchor="start" x="2160.5" y="-18" font-family="Helvetica,sans-Serif" font-size="10.00">/kalman_constructor_default</text>
<text text-anchor="middle" x="2222.5" y="-7" font-family="Helvetica,sans-Serif" font-size="10.00">_5x1x3.cpp</text>
</a>
</g>
</g>
<!-- Node5&#45;&gt;Node23 -->
<g id="edge24" class="edge">
<title>Node5&#45;&gt;Node23</title>
<path fill="none" stroke="#63b8ff" d="M2399.17,-73.31C2365.94,-63.56 2324.59,-51.44 2290.26,-41.37"/>
<polygon fill="#63b8ff" stroke="#63b8ff" points="2398.07,-76.63 2408.65,-76.09 2400.04,-69.92 2398.07,-76.63"/>
</g>
<!-- Node24 -->
<g id="node24" class="node">
<title>Node24</title>
<g id="a_node24"><a xlink:href="kalman__constructor__default__5x4x0_8cpp.xhtml" target="_top" xlink:title=" ">
<polygon fill="white" stroke="#666666" points="2450.5,-41 2310.5,-41 2310.5,0 2450.5,0 2450.5,-41"/>
<text text-anchor="start" x="2318.5" y="-29" font-family="Helvetica,sans-Serif" font-size="10.00">/github/workspace/test</text>
<text text-anchor="start" x="2318.5" y="-18" font-family="Helvetica,sans-Serif" font-size="10.00">/kalman_constructor_default</text>
<text text-anchor="middle" x="2380.5" y="-7" font-family="Helvetica,sans-Serif" font-size="10.00">_5x4x0.cpp</text>
</a>
</g>
</g>
<!-- Node5&#45;&gt;Node24 -->
<g id="edge25" class="edge">
<title>Node5&#45;&gt;Node24</title>
<path fill="none" stroke="#63b8ff" d="M2434.72,-69.2C2424.61,-60.31 2413.01,-50.1 2403.14,-41.42"/>
<polygon fill="#63b8ff" stroke="#63b8ff" points="2432.17,-71.62 2441.99,-75.6 2436.8,-66.37 2432.17,-71.62"/>
</g>
<!-- Node25 -->
<g id="node25" class="node">
<title>Node25</title>
<g id="a_node25"><a xlink:href="kalman__constructor__default__5x4x1_8cpp.xhtml" target="_top" xlink:title=" ">
<polygon fill="white" stroke="#666666" points="2608.5,-41 2468.5,-41 2468.5,0 2608.5,0 2608.5,-41"/>
<text text-anchor="start" x="2476.5" y="-29" font-family="Helvetica,sans-Serif" font-size="10.00">/github/workspace/test</text>
<text text-anchor="start" x="2476.5" y="-18" font-family="Helvetica,sans-Serif" font-size="10.00">/kalman_constructor_default</text>
<text text-anchor="middle" x="2538.5" y="-7" font-family="Helvetica,sans-Serif" font-size="10.00">_5x4x1.cpp</text>
</a>
</g>
</g>
<!-- Node5&#45;&gt;Node25 -->
<g id="edge26" class="edge">
<title>Node5&#45;&gt;Node25</title>
<path fill="none" stroke="#63b8ff" d="M2484.28,-69.2C2494.39,-60.31 2505.99,-50.1 2515.86,-41.42"/>
<polygon fill="#63b8ff" stroke="#63b8ff" points="2482.2,-66.37 2477.01,-75.6 2486.83,-71.62 2482.2,-66.37"/>
</g>
<!-- Node26 -->
<g id="node26" class="node">
<title>Node26</title>
<g id="a_node26"><a xlink:href="kalman__constructor__default__5x4x3_8cpp.xhtml" target="_top" xlink:title=" ">
<polygon fill="white" stroke="#666666" points="2766.5,-41 2626.5,-41 2626.5,0 2766.5,0 2766.5,-41"/>
<text text-anchor="start" x="2634.5" y="-29" font-family="Helvetica,sans-Serif" font-size="10.00">/github/workspace/test</text>
<text text-anchor="start" x="2634.5" y="-18" font-family="Helvetica,sans-Serif" font-size="10.00">/kalman_constructor_default</text>
<text text-anchor="middle" x="2696.5" y="-7" font-family="Helvetica,sans-Serif" font-size="10.00">_5x4x3.cpp</text>
</a>
</g>
</g>
<!-- Node5&#45;&gt;Node26 -->
<g id="edge27" class="edge">
<title>Node5&#45;&gt;Node26</title>
<path fill="none" stroke="#63b8ff" d="M2519.83,-73.31C2553.06,-63.56 2594.41,-51.44 2628.74,-41.37"/>
<polygon fill="#63b8ff" stroke="#63b8ff" points="2518.96,-69.92 2510.35,-76.09 2520.93,-76.63 2518.96,-69.92"/>
</g>
<!-- Node27 -->
<g id="node27" class="node">
<title>Node27</title>
<g id="a_node27"><a xlink:href="kalman__constructor__default__float__1x1x1_8cpp.xhtml" target="_top" xlink:title=" ">
<polygon fill="white" stroke="#666666" points="2924.5,-41 2784.5,-41 2784.5,0 2924.5,0 2924.5,-41"/>
<text text-anchor="start" x="2792.5" y="-29" font-family="Helvetica,sans-Serif" font-size="10.00">/github/workspace/test</text>
<text text-anchor="start" x="2792.5" y="-18" font-family="Helvetica,sans-Serif" font-size="10.00">/kalman_constructor_default</text>
<text text-anchor="middle" x="2854.5" y="-7" font-family="Helvetica,sans-Serif" font-size="10.00">_float_1x1x1.cpp</text>
</a>
</g>
</g>
<!-- Node5&#45;&gt;Node27 -->
<g id="edge28" class="edge">
<title>Node5&#45;&gt;Node27</title>
<path fill="none" stroke="#63b8ff" d="M2536.08,-80.74C2600.28,-71.7 2694.22,-57.43 2775.5,-41 2778.41,-40.41 2781.37,-39.79 2784.36,-39.14"/>
<polygon fill="#63b8ff" stroke="#63b8ff" points="2535.77,-77.25 2526.35,-82.11 2536.74,-84.19 2535.77,-77.25"/>
</g>
<!-- Node28 -->
<g id="node28" class="node">
<title>Node28</title>
<g id="a_node28"><a xlink:href="kalman__constructor__move__5x4x3_8cpp.xhtml" target="_top" xlink:title=" ">
<polygon fill="white" stroke="#666666" points="3076.5,-41 2942.5,-41 2942.5,0 3076.5,0 3076.5,-41"/>
<text text-anchor="start" x="2950.5" y="-29" font-family="Helvetica,sans-Serif" font-size="10.00">/github/workspace/test</text>
<text text-anchor="start" x="2950.5" y="-18" font-family="Helvetica,sans-Serif" font-size="10.00">/kalman_constructor_move</text>
<text text-anchor="middle" x="3009.5" y="-7" font-family="Helvetica,sans-Serif" font-size="10.00">_5x4x3.cpp</text>
</a>
</g>
</g>
<!-- Node5&#45;&gt;Node28 -->
<g id="edge29" class="edge">
<title>Node5&#45;&gt;Node28</title>
<path fill="none" stroke="#63b8ff" d="M2536.11,-86.37C2630.24,-79.9 2794.54,-66.02 2933.5,-41 2936.32,-40.49 2939.18,-39.94 2942.07,-39.35"/>
<polygon fill="#63b8ff" stroke="#63b8ff" points="2535.96,-82.88 2526.22,-87.04 2536.43,-89.86 2535.96,-82.88"/>
</g>
<!-- Node29 -->
<g id="node29" class="node">
<title>Node29</title>
<g id="a_node29"><a xlink:href="kalman__f_8cpp.xhtml" target="_top" xlink:title=" ">
<polygon fill="white" stroke="#666666" points="3210.5,-35.5 3094.5,-35.5 3094.5,-5.5 3210.5,-5.5 3210.5,-35.5"/>
<text text-anchor="start" x="3102.5" y="-23.5" font-family="Helvetica,sans-Serif" font-size="10.00">/github/workspace/test</text>
<text text-anchor="middle" x="3152.5" y="-12.5" font-family="Helvetica,sans-Serif" font-size="10.00">/kalman_f.cpp</text>
</a>
</g>
</g>
<!-- Node5&#45;&gt;Node29 -->
<g id="edge30" class="edge">
<title>Node5&#45;&gt;Node29</title>
<path fill="none" stroke="#63b8ff" d="M2536.42,-89.88C2655.17,-87.02 2889.87,-76.89 3085.5,-41 3092.65,-39.69 3100.13,-37.92 3107.39,-35.98"/>
<polygon fill="#63b8ff" stroke="#63b8ff" points="2536.38,-86.38 2526.47,-90.11 2536.54,-93.38 2536.38,-86.38"/>
</g>
<!-- Node30 -->
<g id="node30" class="node">
<title>Node30</title>
<g id="a_node30"><a xlink:href="kalman__f__5x4x3_8cpp.xhtml" target="_top" xlink:title=" ">
<polygon fill="white" stroke="#666666" points="3344.5,-35.5 3228.5,-35.5 3228.5,-5.5 3344.5,-5.5 3344.5,-35.5"/>
<text text-anchor="start" x="3236.5" y="-23.5" font-family="Helvetica,sans-Serif" font-size="10.00">/github/workspace/test</text>
<text text-anchor="middle" x="3286.5" y="-12.5" font-family="Helvetica,sans-Serif" font-size="10.00">/kalman_f_5x4x3.cpp</text>
</a>
</g>
</g>
<!-- Node5&#45;&gt;Node30 -->
<g id="edge31" class="edge">
<title>Node5&#45;&gt;Node30</title>
<path fill="none" stroke="#63b8ff" d="M2536.12,-91.44C2673.94,-91.01 2972.35,-84.56 3219.5,-41 3226.78,-39.72 3234.39,-37.94 3241.77,-35.97"/>
<polygon fill="#63b8ff" stroke="#63b8ff" points="2536.39,-87.94 2526.4,-91.46 2536.4,-94.94 2536.39,-87.94"/>
</g>
<!-- Node31 -->
<g id="node31" class="node">
<title>Node31</title>
<g id="a_node31"><a xlink:href="kalman__format_8cpp.xhtml" target="_top" xlink:title=" ">
<polygon fill="white" stroke="#666666" points="3478.5,-35.5 3362.5,-35.5 3362.5,-5.5 3478.5,-5.5 3478.5,-35.5"/>
<text text-anchor="start" x="3370.5" y="-23.5" font-family="Helvetica,sans-Serif" font-size="10.00">/github/workspace/test</text>
<text text-anchor="middle" x="3420.5" y="-12.5" font-family="Helvetica,sans-Serif" font-size="10.00">/kalman_format.cpp</text>
</a>
</g>
</g>
<!-- Node5&#45;&gt;Node31 -->
<g id="edge32" class="edge">
<title>Node5&#45;&gt;Node31</title>
<path fill="none" stroke="#63b8ff" d="M2536.22,-88.95C2722.98,-83.6 3197.32,-67.74 3353.5,-41 3360.9,-39.73 3368.65,-37.94 3376.14,-35.94"/>
<polygon fill="#63b8ff" stroke="#63b8ff" points="2536.28,-85.45 2526.39,-89.23 2536.48,-92.44 2536.28,-85.45"/>
</g>
<!-- Node32 -->
<g id="node32" class="node">
<title>Node32</title>
<g id="a_node32"><a xlink:href="kalman__format__arguments_8cpp.xhtml" target="_top" xlink:title=" ">
<polygon fill="white" stroke="#666666" points="3650,-35.5 3497,-35.5 3497,-5.5 3650,-5.5 3650,-35.5"/>
<text text-anchor="start" x="3505" y="-23.5" font-family="Helvetica,sans-Serif" font-size="10.00">/github/workspace/test</text>
<text text-anchor="middle" x="3573.5" y="-12.5" font-family="Helvetica,sans-Serif" font-size="10.00">/kalman_format_arguments.cpp</text>
</a>
</g>
</g>
<!-- Node5&#45;&gt;Node32 -->
<g id="edge33" class="edge">
<title>Node5&#45;&gt;Node32</title>
<path fill="none" stroke="#63b8ff" d="M2536.22,-91.82C2707.64,-92.66 3134.45,-89.24 3487.5,-41 3496.9,-39.72 3506.8,-37.91 3516.39,-35.91"/>
<polygon fill="#63b8ff" stroke="#63b8ff" points="2536.34,-88.32 2526.32,-91.77 2536.3,-95.32 2536.34,-88.32"/>
</g>
<!-- Node33 -->
<g id="node33" class="node">
<title>Node33</title>
<g id="a_node33"><a xlink:href="kalman__format__float__1x1x1_8cpp.xhtml" target="_top" xlink:title=" ">
<polygon fill="white" stroke="#666666" points="3823,-35.5 3668,-35.5 3668,-5.5 3823,-5.5 3823,-35.5"/>
<text text-anchor="start" x="3676" y="-23.5" font-family="Helvetica,sans-Serif" font-size="10.00">/github/workspace/test</text>
<text text-anchor="middle" x="3745.5" y="-12.5" font-family="Helvetica,sans-Serif" font-size="10.00">/kalman_format_float_1x1x1.cpp</text>
</a>
</g>
</g>
<!-- Node5&#45;&gt;Node33 -->
<g id="edge34" class="edge">
<title>Node5&#45;&gt;Node33</title>
<path fill="none" stroke="#63b8ff" d="M2536.08,-89.63C2764.88,-85.23 3441,-70.08 3659.5,-41 3668.91,-39.75 3678.8,-37.96 3688.4,-35.97"/>
<polygon fill="#63b8ff" stroke="#63b8ff" points="2536.33,-86.12 2526.4,-89.81 2536.46,-93.12 2536.33,-86.12"/>
</g>
<!-- Node34 -->
<g id="node34" class="node">
<title>Node34</title>
<g id="a_node34"><a xlink:href="kalman__h_8cpp.xhtml" target="_top" xlink:title=" ">
<polygon fill="white" stroke="#666666" points="3957.5,-35.5 3841.5,-35.5 3841.5,-5.5 3957.5,-5.5 3957.5,-35.5"/>
<text text-anchor="start" x="3849.5" y="-23.5" font-family="Helvetica,sans-Serif" font-size="10.00">/github/workspace/test</text>
<text text-anchor="middle" x="3899.5" y="-12.5" font-family="Helvetica,sans-Serif" font-size="10.00">/kalman_h.cpp</text>
</a>
</g>
</g>
<!-- Node5&#45;&gt;Node34 -->
<g id="edge35" class="edge">
<title>Node5&#45;&gt;Node34</title>
<path fill="none" stroke="#63b8ff" d="M2535.87,-90.7C2786.12,-89.31 3579.85,-81.72 3832.5,-41 3840.03,-39.79 3847.92,-37.99 3855.52,-35.97"/>
<polygon fill="#63b8ff" stroke="#63b8ff" points="2536.21,-87.19 2526.23,-90.75 2536.25,-94.19 2536.21,-87.19"/>
</g>
<!-- Node35 -->
<g id="node35" class="node">
<title>Node35</title>
<g id="a_node35"><a xlink:href="kalman__h__5x4x3_8cpp.xhtml" target="_top" xlink:title=" ">
<polygon fill="white" stroke="#666666" points="4091.5,-35.5 3975.5,-35.5 3975.5,-5.5 4091.5,-5.5 4091.5,-35.5"/>
<text text-anchor="start" x="3983.5" y="-23.5" font-family="Helvetica,sans-Serif" font-size="10.00">/github/workspace/test</text>
<text text-anchor="middle" x="4033.5" y="-12.5" font-family="Helvetica,sans-Serif" font-size="10.00">/kalman_h_5x4x3.cpp</text>
</a>
</g>
</g>
<!-- Node5&#45;&gt;Node35 -->
<g id="edge36" class="edge">
<title>Node5&#45;&gt;Node35</title>
<path fill="none" stroke="#63b8ff" d="M2536.42,-90.98C2803.07,-90.53 3686.79,-85.62 3966.5,-41 3974.04,-39.8 3981.92,-38.01 3989.53,-35.99"/>
<polygon fill="#63b8ff" stroke="#63b8ff" points="2536.44,-87.48 2526.45,-91 2536.46,-94.48 2536.44,-87.48"/>
</g>
<!-- Node36&#45;&gt;Node5 -->
<g id="edge40" class="edge">
<title>Node36&#45;&gt;Node5</title>
<path fill="none" stroke="#63b8ff" d="M2134.08,-203.86C2101.65,-188.75 2069.08,-166.37 2089.5,-143 2109.2,-120.46 2293.17,-104.41 2394.05,-97.22"/>
<polygon fill="#63b8ff" stroke="#63b8ff" points="2132.59,-207.03 2143.15,-207.89 2135.43,-200.63 2132.59,-207.03"/>
</g>
<!-- Node37 -->
<g id="node37" class="node">
<title>Node37</title>
<g id="a_node37"><a xlink:href="format_8hpp.xhtml" target="_top" xlink:title=" ">
<polygon fill="white" stroke="#666666" points="2529.5,-173 2389.5,-173 2389.5,-143 2529.5,-143 2529.5,-173"/>
<text text-anchor="start" x="2397.5" y="-161" font-family="Helvetica,sans-Serif" font-size="10.00">/github/workspace/include</text>
<text text-anchor="middle" x="2459.5" y="-150" font-family="Helvetica,sans-Serif" font-size="10.00">/fcarouge/internal/format.hpp</text>
</a>
</g>
</g>
<!-- Node36&#45;&gt;Node37 -->
<g id="edge38" class="edge">
<title>Node36&#45;&gt;Node37</title>
<path fill="none" stroke="#63b8ff" d="M2257.69,-205.97C2301.35,-195.81 2356.18,-183.04 2397.67,-173.39"/>
<polygon fill="#63b8ff" stroke="#63b8ff" points="2256.98,-202.54 2248.03,-208.21 2258.57,-209.36 2256.98,-202.54"/>
</g>
<!-- Node38 -->
<g id="node38" class="node">
<title>Node38</title>
<g id="a_node38"><a xlink:href="eigen_2fcarouge_2linalg_8hpp.xhtml" target="_top" xlink:title="Linear algebra facade for Eigen3 third party implementation.">
<polygon fill="white" stroke="#666666" points="2371,-173 2244,-173 2244,-143 2371,-143 2371,-173"/>
<text text-anchor="start" x="2252" y="-161" font-family="Helvetica,sans-Serif" font-size="10.00">/github/workspace/linalg</text>
<text text-anchor="middle" x="2307.5" y="-150" font-family="Helvetica,sans-Serif" font-size="10.00">/eigen/fcarouge/linalg.hpp</text>
</a>
</g>
</g>
<!-- Node36&#45;&gt;Node38 -->
<g id="edge41" class="edge">
<title>Node36&#45;&gt;Node38</title>
<path fill="none" stroke="#63b8ff" d="M2222.07,-203.45C2240.75,-193.73 2262.91,-182.2 2279.99,-173.31"/>
<polygon fill="#63b8ff" stroke="#63b8ff" points="2220.7,-200.22 2213.45,-207.94 2223.93,-206.43 2220.7,-200.22"/>
</g>
<!-- Node39 -->
<g id="node39" class="node">
<title>Node39</title>
<g id="a_node39"><a xlink:href="lazy_2fcarouge_2linalg_8hpp.xhtml" target="_top" xlink:title="Linear algebra coroutine&#45;based lazy implementation.">
<polygon fill="white" stroke="#666666" points="2669.5,-173 2547.5,-173 2547.5,-143 2669.5,-143 2669.5,-173"/>
<text text-anchor="start" x="2555.5" y="-161" font-family="Helvetica,sans-Serif" font-size="10.00">/github/workspace/linalg</text>
<text text-anchor="middle" x="2608.5" y="-150" font-family="Helvetica,sans-Serif" font-size="10.00">/lazy/fcarouge/linalg.hpp</text>
</a>
</g>
</g>
<!-- Node36&#45;&gt;Node39 -->
<g id="edge42" class="edge">
<title>Node36&#45;&gt;Node39</title>
<path fill="none" stroke="#63b8ff" d="M2261.11,-213.46C2332.94,-204.22 2443.25,-189.24 2538.5,-173 2541.31,-172.52 2544.18,-172.01 2547.08,-171.49"/>
<polygon fill="#63b8ff" stroke="#63b8ff" points="2260.89,-209.96 2251.42,-214.7 2261.78,-216.9 2260.89,-209.96"/>
</g>
<!-- Node40 -->
<g id="node40" class="node">
<title>Node40</title>
<g id="a_node40"><a xlink:href="naive_2fcarouge_2linalg_8hpp.xhtml" target="_top" xlink:title="Linear algebra array&#45;based naive implementation.">
<polygon fill="white" stroke="#666666" points="2226,-173 2099,-173 2099,-143 2226,-143 2226,-173"/>
<text text-anchor="start" x="2107" y="-161" font-family="Helvetica,sans-Serif" font-size="10.00">/github/workspace/linalg</text>
<text text-anchor="middle" x="2162.5" y="-150" font-family="Helvetica,sans-Serif" font-size="10.00">/naive/fcarouge/linalg.hpp</text>
</a>
</g>
</g>
<!-- Node36&#45;&gt;Node40 -->
<g id="edge43" class="edge">
<title>Node36&#45;&gt;Node40</title>
<path fill="none" stroke="#63b8ff" d="M2175.89,-197.97C2173,-189.55 2169.87,-180.45 2167.37,-173.16"/>
<polygon fill="#63b8ff" stroke="#63b8ff" points="2172.56,-199.05 2179.13,-207.36 2179.18,-196.77 2172.56,-199.05"/>
</g>
<!-- Node37&#45;&gt;Node5 -->
<g id="edge39" class="edge">
<title>Node37&#45;&gt;Node5</title>
<path fill="none" stroke="#63b8ff" d="M2459.5,-131.39C2459.5,-123.13 2459.5,-114.28 2459.5,-107.16"/>
<polygon fill="#63b8ff" stroke="#63b8ff" points="2456,-131.28 2459.5,-141.28 2463,-131.28 2456,-131.28"/>
</g>
</g>
</svg>
