<?xml version="1.0" encoding="UTF-8" standalone="no"?>
<!DOCTYPE svg PUBLIC "-//W3C//DTD SVG 1.1//EN"
 "http://www.w3.org/Graphics/SVG/1.1/DTD/svg11.dtd">
<!-- Generated by graphviz version 3.0.0 (20221109.1736)
 -->
<!-- Title: /github/workspace/include/fcarouge/internal/utility.hpp Pages: 1 -->
<svg width="4784pt" height="318pt"
 viewBox="0.00 0.00 4784.00 318.00" xmlns="http://www.w3.org/2000/svg" xmlns:xlink="http://www.w3.org/1999/xlink">
<g id="graph0" class="graph" transform="scale(1 1) rotate(0) translate(4 314)">
<title>/github/workspace/include/fcarouge/internal/utility.hpp</title>
<polygon fill="white" stroke="transparent" points="-4,4 -4,-314 4780,-314 4780,4 -4,4"/>
<!-- Node1 -->
<g id="node1" class="node">
<title>Node1</title>
<g id="a_node1"><a xlink:title=" ">
<polygon fill="#bfbfbf" stroke="black" points="2382,-279.5 2382,-309.5 2517,-309.5 2517,-279.5 2382,-279.5"/>
<text text-anchor="start" x="2390" y="-297.5" font-family="Helvetica,sans-Serif" font-size="10.00">/github/workspace/include</text>
<text text-anchor="middle" x="2449.5" y="-286.5" font-family="Helvetica,sans-Serif" font-size="10.00">/fcarouge/internal/utility.hpp</text>
</a>
</g>
</g>
<!-- Node2 -->
<g id="node2" class="node">
<title>Node2</title>
<g id="a_node2"><a xlink:href="eigen__predict__x1x_8cpp.xhtml" target="_top" xlink:title=" ">
<polygon fill="white" stroke="black" points="0,-6 0,-36 147,-36 147,-6 0,-6"/>
<text text-anchor="start" x="8" y="-24" font-family="Helvetica,sans-Serif" font-size="10.00">/github/workspace/benchmark</text>
<text text-anchor="middle" x="73.5" y="-13" font-family="Helvetica,sans-Serif" font-size="10.00">/eigen_predict_x1x.cpp</text>
</a>
</g>
</g>
<!-- Node1&#45;&gt;Node2 -->
<g id="edge1" class="edge">
<title>Node1&#45;&gt;Node2</title>
<path fill="none" stroke="midnightblue" d="M2371.89,-288.67C2079.57,-269.69 1017.8,-193.76 155.5,-42 146.12,-40.35 136.22,-38.25 126.66,-36.03"/>
<polygon fill="midnightblue" stroke="midnightblue" points="2371.75,-292.17 2381.96,-289.32 2372.2,-285.18 2371.75,-292.17"/>
</g>
<!-- Node3 -->
<g id="node3" class="node">
<title>Node3</title>
<g id="a_node3"><a xlink:href="eigen__update__xx0_8cpp.xhtml" target="_top" xlink:title=" ">
<polygon fill="white" stroke="black" points="4629,-6 4629,-36 4776,-36 4776,-6 4629,-6"/>
<text text-anchor="start" x="4637" y="-24" font-family="Helvetica,sans-Serif" font-size="10.00">/github/workspace/benchmark</text>
<text text-anchor="middle" x="4702.5" y="-13" font-family="Helvetica,sans-Serif" font-size="10.00">/eigen_update_xx0.cpp</text>
</a>
</g>
</g>
<!-- Node1&#45;&gt;Node3 -->
<g id="edge2" class="edge">
<title>Node1&#45;&gt;Node3</title>
<path fill="none" stroke="midnightblue" d="M2527.16,-288C2809.63,-267.27 3808.41,-187.5 4620.5,-42 4629.73,-40.35 4639.47,-38.27 4648.89,-36.08"/>
<polygon fill="midnightblue" stroke="midnightblue" points="2526.74,-284.53 2517.02,-288.75 2527.25,-291.51 2526.74,-284.53"/>
</g>
<!-- Node4 -->
<g id="node4" class="node">
<title>Node4</title>
<g id="a_node4"><a xlink:href="utility_8hpp.xhtml" target="_top" xlink:title="The collection of utilities supporting the library.">
<polygon fill="white" stroke="black" points="2384.5,-212.5 2384.5,-242.5 2514.5,-242.5 2514.5,-212.5 2384.5,-212.5"/>
<text text-anchor="start" x="2392.5" y="-230.5" font-family="Helvetica,sans-Serif" font-size="10.00">/github/workspace/include</text>
<text text-anchor="middle" x="2449.5" y="-219.5" font-family="Helvetica,sans-Serif" font-size="10.00">/fcarouge/utility.hpp</text>
</a>
</g>
</g>
<!-- Node1&#45;&gt;Node4 -->
<g id="edge3" class="edge">
<title>Node1&#45;&gt;Node4</title>
<path fill="none" stroke="midnightblue" d="M2449.5,-269.11C2449.5,-260.15 2449.5,-250.32 2449.5,-242.58"/>
<polygon fill="midnightblue" stroke="midnightblue" points="2446,-269.4 2449.5,-279.4 2453,-269.4 2446,-269.4"/>
</g>
<!-- Node5 -->
<g id="node5" class="node">
<title>Node5</title>
<g id="a_node5"><a xlink:href="format_8hpp.xhtml" target="_top" xlink:title=" ">
<polygon fill="white" stroke="black" points="2477.5,-145.5 2477.5,-175.5 2617.5,-175.5 2617.5,-145.5 2477.5,-145.5"/>
<text text-anchor="start" x="2485.5" y="-163.5" font-family="Helvetica,sans-Serif" font-size="10.00">/github/workspace/include</text>
<text text-anchor="middle" x="2547.5" y="-152.5" font-family="Helvetica,sans-Serif" font-size="10.00">/fcarouge/internal/format.hpp</text>
</a>
</g>
</g>
<!-- Node4&#45;&gt;Node5 -->
<g id="edge4" class="edge">
<title>Node4&#45;&gt;Node5</title>
<path fill="none" stroke="midnightblue" d="M2479.3,-206.73C2494.47,-196.68 2512.54,-184.68 2526.28,-175.58"/>
<polygon fill="midnightblue" stroke="midnightblue" points="2477.16,-203.95 2470.76,-212.4 2481.03,-209.79 2477.16,-203.95"/>
</g>
<!-- Node6 -->
<g id="node6" class="node">
<title>Node6</title>
<g id="a_node6"><a xlink:href="kalman_8hpp.xhtml" target="_top" xlink:title="The Kalman filter class and library top&#45;level header.">
<polygon fill="white" stroke="black" points="2384.5,-78.5 2384.5,-108.5 2514.5,-108.5 2514.5,-78.5 2384.5,-78.5"/>
<text text-anchor="start" x="2392.5" y="-96.5" font-family="Helvetica,sans-Serif" font-size="10.00">/github/workspace/include</text>
<text text-anchor="middle" x="2449.5" y="-85.5" font-family="Helvetica,sans-Serif" font-size="10.00">/fcarouge/kalman.hpp</text>
</a>
</g>
</g>
<!-- Node4&#45;&gt;Node6 -->
<g id="edge38" class="edge">
<title>Node4&#45;&gt;Node6</title>
<path fill="none" stroke="midnightblue" d="M2449.5,-202.02C2449.5,-174.51 2449.5,-130.79 2449.5,-108.52"/>
<polygon fill="midnightblue" stroke="midnightblue" points="2446,-202.37 2449.5,-212.37 2453,-202.37 2446,-202.37"/>
</g>
<!-- Node35 -->
<g id="node35" class="node">
<title>Node35</title>
<g id="a_node35"><a xlink:href="internal_2kalman_8hpp.xhtml" target="_top" xlink:title=" ">
<polygon fill="white" stroke="black" points="2277.5,-145.5 2277.5,-175.5 2421.5,-175.5 2421.5,-145.5 2277.5,-145.5"/>
<text text-anchor="start" x="2285.5" y="-163.5" font-family="Helvetica,sans-Serif" font-size="10.00">/github/workspace/include</text>
<text text-anchor="middle" x="2349.5" y="-152.5" font-family="Helvetica,sans-Serif" font-size="10.00">/fcarouge/internal/kalman.hpp</text>
</a>
</g>
</g>
<!-- Node4&#45;&gt;Node35 -->
<g id="edge36" class="edge">
<title>Node4&#45;&gt;Node35</title>
<path fill="none" stroke="midnightblue" d="M2419.09,-206.73C2403.62,-196.68 2385.17,-184.68 2371.16,-175.58"/>
<polygon fill="midnightblue" stroke="midnightblue" points="2417.51,-209.88 2427.8,-212.4 2421.32,-204.01 2417.51,-209.88"/>
</g>
<!-- Node5&#45;&gt;Node6 -->
<g id="edge5" class="edge">
<title>Node5&#45;&gt;Node6</title>
<path fill="none" stroke="midnightblue" d="M2517.7,-139.73C2502.53,-129.68 2484.46,-117.68 2470.72,-108.58"/>
<polygon fill="midnightblue" stroke="midnightblue" points="2515.97,-142.79 2526.24,-145.4 2519.84,-136.95 2515.97,-142.79"/>
</g>
<!-- Node6&#45;&gt;Node2 -->
<g id="edge6" class="edge">
<title>Node6&#45;&gt;Node2</title>
<path fill="none" stroke="midnightblue" d="M2374.37,-91.82C2003.76,-88.31 379.22,-71.39 155.5,-42 145.04,-40.63 133.98,-38.44 123.48,-36.01"/>
<polygon fill="midnightblue" stroke="midnightblue" points="2374.41,-95.32 2384.45,-91.91 2374.48,-88.32 2374.41,-95.32"/>
</g>
<!-- Node6&#45;&gt;Node3 -->
<g id="edge7" class="edge">
<title>Node6&#45;&gt;Node3</title>
<path fill="none" stroke="midnightblue" d="M2524.65,-91.72C2883.01,-87.84 4409.6,-69.84 4620.5,-42 4630.96,-40.62 4642.02,-38.43 4652.52,-36"/>
<polygon fill="midnightblue" stroke="midnightblue" points="2524.61,-88.22 2514.64,-91.82 2524.68,-95.22 2524.61,-88.22"/>
</g>
<!-- Node7 -->
<g id="node7" class="node">
<title>Node7</title>
<g id="a_node7"><a xlink:href="predict__1x1x0_8cpp.xhtml" target="_top" xlink:title=" ">
<polygon fill="white" stroke="black" points="4464,-6 4464,-36 4611,-36 4611,-6 4464,-6"/>
<text text-anchor="start" x="4472" y="-24" font-family="Helvetica,sans-Serif" font-size="10.00">/github/workspace/benchmark</text>
<text text-anchor="middle" x="4537.5" y="-13" font-family="Helvetica,sans-Serif" font-size="10.00">/predict_1x1x0.cpp</text>
</a>
</g>
</g>
<!-- Node6&#45;&gt;Node7 -->
<g id="edge8" class="edge">
<title>Node6&#45;&gt;Node7</title>
<path fill="none" stroke="midnightblue" d="M2524.67,-91.55C2865.89,-87.1 4260.81,-67.48 4454.5,-42 4464.93,-40.63 4475.96,-38.48 4486.46,-36.09"/>
<polygon fill="midnightblue" stroke="midnightblue" points="2524.6,-88.05 2514.65,-91.68 2524.69,-95.05 2524.6,-88.05"/>
</g>
<!-- Node8 -->
<g id="node8" class="node">
<title>Node8</title>
<g id="a_node8"><a xlink:href="predict__1x1x1_8cpp.xhtml" target="_top" xlink:title=" ">
<polygon fill="white" stroke="black" points="165,-6 165,-36 312,-36 312,-6 165,-6"/>
<text text-anchor="start" x="173" y="-24" font-family="Helvetica,sans-Serif" font-size="10.00">/github/workspace/benchmark</text>
<text text-anchor="middle" x="238.5" y="-13" font-family="Helvetica,sans-Serif" font-size="10.00">/predict_1x1x1.cpp</text>
</a>
</g>
</g>
<!-- Node6&#45;&gt;Node8 -->
<g id="edge9" class="edge">
<title>Node6&#45;&gt;Node8</title>
<path fill="none" stroke="midnightblue" d="M2374.09,-91.68C2019.54,-87.67 526.99,-69.3 320.5,-42 310.04,-40.62 298.98,-38.43 288.48,-36"/>
<polygon fill="midnightblue" stroke="midnightblue" points="2374.2,-95.18 2384.24,-91.79 2374.28,-88.18 2374.2,-95.18"/>
</g>
<!-- Node9 -->
<g id="node9" class="node">
<title>Node9</title>
<g id="a_node9"><a xlink:href="update__1x1x0_8cpp.xhtml" target="_top" xlink:title=" ">
<polygon fill="white" stroke="black" points="330,-6 330,-36 477,-36 477,-6 330,-6"/>
<text text-anchor="start" x="338" y="-24" font-family="Helvetica,sans-Serif" font-size="10.00">/github/workspace/benchmark</text>
<text text-anchor="middle" x="403.5" y="-13" font-family="Helvetica,sans-Serif" font-size="10.00">/update_1x1x0.cpp</text>
</a>
</g>
</g>
<!-- Node6&#45;&gt;Node9 -->
<g id="edge10" class="edge">
<title>Node6&#45;&gt;Node9</title>
<path fill="none" stroke="midnightblue" d="M2374.23,-91.52C2037.17,-86.98 674.88,-67.23 485.5,-42 475.19,-40.63 464.29,-38.48 453.92,-36.09"/>
<polygon fill="midnightblue" stroke="midnightblue" points="2374.32,-95.02 2384.37,-91.65 2374.42,-88.02 2374.32,-95.02"/>
</g>
<!-- Node10 -->
<g id="node10" class="node">
<title>Node10</title>
<g id="a_node10"><a xlink:href="update__1x1x1_8cpp.xhtml" target="_top" xlink:title=" ">
<polygon fill="white" stroke="black" points="495,-6 495,-36 642,-36 642,-6 495,-6"/>
<text text-anchor="start" x="503" y="-24" font-family="Helvetica,sans-Serif" font-size="10.00">/github/workspace/benchmark</text>
<text text-anchor="middle" x="568.5" y="-13" font-family="Helvetica,sans-Serif" font-size="10.00">/update_1x1x1.cpp</text>
</a>
</g>
</g>
<!-- Node6&#45;&gt;Node10 -->
<g id="edge11" class="edge">
<title>Node6&#45;&gt;Node10</title>
<path fill="none" stroke="midnightblue" d="M2374.05,-92.5C2077.5,-92.19 991.54,-87.85 650.5,-42 640.19,-40.61 629.29,-38.46 618.92,-36.07"/>
<polygon fill="midnightblue" stroke="midnightblue" points="2374.26,-96 2384.27,-92.51 2374.27,-89 2374.26,-96"/>
</g>
<!-- Node11 -->
<g id="node11" class="node">
<title>Node11</title>
<g id="a_node11"><a xlink:href="ekf__4x1x0__soaring_8cpp.xhtml" target="_top" xlink:title=" ">
<polygon fill="white" stroke="black" points="660,-6 660,-36 791,-36 791,-6 660,-6"/>
<text text-anchor="start" x="668" y="-24" font-family="Helvetica,sans-Serif" font-size="10.00">/github/workspace/sample</text>
<text text-anchor="middle" x="725.5" y="-13" font-family="Helvetica,sans-Serif" font-size="10.00">/ekf_4x1x0_soaring.cpp</text>
</a>
</g>
</g>
<!-- Node6&#45;&gt;Node11 -->
<g id="edge12" class="edge">
<title>Node6&#45;&gt;Node11</title>
<path fill="none" stroke="midnightblue" d="M2374.31,-92.49C2094.03,-92.1 1110.35,-87.44 800.5,-42 791.03,-40.61 781.05,-38.46 771.56,-36.06"/>
<polygon fill="midnightblue" stroke="midnightblue" points="2374.37,-95.99 2384.38,-92.5 2374.38,-88.99 2374.37,-95.99"/>
</g>
<!-- Node12 -->
<g id="node12" class="node">
<title>Node12</title>
<g id="a_node12"><a xlink:href="kf__1x1x0__building__height_8cpp.xhtml" target="_top" xlink:title=" ">
<polygon fill="white" stroke="black" points="809.5,-6 809.5,-36 955.5,-36 955.5,-6 809.5,-6"/>
<text text-anchor="start" x="817.5" y="-24" font-family="Helvetica,sans-Serif" font-size="10.00">/github/workspace/sample</text>
<text text-anchor="middle" x="882.5" y="-13" font-family="Helvetica,sans-Serif" font-size="10.00">/kf_1x1x0_building_height.cpp</text>
</a>
</g>
</g>
<!-- Node6&#45;&gt;Node12 -->
<g id="edge13" class="edge">
<title>Node6&#45;&gt;Node12</title>
<path fill="none" stroke="midnightblue" d="M2374.04,-91.98C2111.82,-89.85 1241.12,-80.03 964.5,-42 954.19,-40.58 943.3,-38.41 932.93,-36.02"/>
<polygon fill="midnightblue" stroke="midnightblue" points="2374.2,-95.48 2384.22,-92.06 2374.25,-88.48 2374.2,-95.48"/>
</g>
<!-- Node13 -->
<g id="node13" class="node">
<title>Node13</title>
<g id="a_node13"><a xlink:href="kf__1x1x0__liquid__temperature_8cpp.xhtml" target="_top" xlink:title=" ">
<polygon fill="white" stroke="black" points="974,-6 974,-36 1135,-36 1135,-6 974,-6"/>
<text text-anchor="start" x="982" y="-24" font-family="Helvetica,sans-Serif" font-size="10.00">/github/workspace/sample</text>
<text text-anchor="middle" x="1054.5" y="-13" font-family="Helvetica,sans-Serif" font-size="10.00">/kf_1x1x0_liquid_temperature.cpp</text>
</a>
</g>
</g>
<!-- Node6&#45;&gt;Node13 -->
<g id="edge14" class="edge">
<title>Node6&#45;&gt;Node13</title>
<path fill="none" stroke="midnightblue" d="M2374.42,-91.37C2134,-87.48 1384.88,-73.1 1144.5,-42 1133.39,-40.56 1121.62,-38.42 1110.4,-36.05"/>
<polygon fill="midnightblue" stroke="midnightblue" points="2374.4,-94.87 2384.46,-91.53 2374.52,-87.87 2374.4,-94.87"/>
</g>
<!-- Node14 -->
<g id="node14" class="node">
<title>Node14</title>
<g id="a_node14"><a xlink:href="kf__1x1x1__dog__position_8cpp.xhtml" target="_top" xlink:title=" ">
<polygon fill="white" stroke="black" points="1153.5,-6 1153.5,-36 1289.5,-36 1289.5,-6 1153.5,-6"/>
<text text-anchor="start" x="1161.5" y="-24" font-family="Helvetica,sans-Serif" font-size="10.00">/github/workspace/sample</text>
<text text-anchor="middle" x="1221.5" y="-13" font-family="Helvetica,sans-Serif" font-size="10.00">/kf_1x1x1_dog_position.cpp</text>
</a>
</g>
</g>
<!-- Node6&#45;&gt;Node14 -->
<g id="edge15" class="edge">
<title>Node6&#45;&gt;Node14</title>
<path fill="none" stroke="midnightblue" d="M2373.96,-91.26C2152.43,-87.29 1506.96,-73.29 1298.5,-42 1288.94,-40.56 1278.85,-38.42 1269.24,-36.06"/>
<polygon fill="midnightblue" stroke="midnightblue" points="2374.12,-94.76 2384.18,-91.44 2374.25,-87.76 2374.12,-94.76"/>
</g>
<!-- Node15 -->
<g id="node15" class="node">
<title>Node15</title>
<g id="a_node15"><a xlink:href="kf__2x1x1__rocket__altitude_8cpp.xhtml" target="_top" xlink:title=" ">
<polygon fill="white" stroke="black" points="1308,-6 1308,-36 1453,-36 1453,-6 1308,-6"/>
<text text-anchor="start" x="1316" y="-24" font-family="Helvetica,sans-Serif" font-size="10.00">/github/workspace/sample</text>
<text text-anchor="middle" x="1380.5" y="-13" font-family="Helvetica,sans-Serif" font-size="10.00">/kf_2x1x1_rocket_altitude.cpp</text>
</a>
</g>
</g>
<!-- Node6&#45;&gt;Node15 -->
<g id="edge16" class="edge">
<title>Node6&#45;&gt;Node15</title>
<path fill="none" stroke="midnightblue" d="M2374.17,-90.51C2174.93,-84.96 1637.38,-67.96 1461.5,-42 1451.61,-40.54 1441.17,-38.41 1431.19,-36.09"/>
<polygon fill="midnightblue" stroke="midnightblue" points="2374.16,-94.01 2384.25,-90.79 2374.35,-87.02 2374.16,-94.01"/>
</g>
<!-- Node16 -->
<g id="node16" class="node">
<title>Node16</title>
<g id="a_node16"><a xlink:href="kf__6x2x0__vehicle__location_8cpp.xhtml" target="_top" xlink:title=" ">
<polygon fill="white" stroke="black" points="1471,-6 1471,-36 1622,-36 1622,-6 1471,-6"/>
<text text-anchor="start" x="1479" y="-24" font-family="Helvetica,sans-Serif" font-size="10.00">/github/workspace/sample</text>
<text text-anchor="middle" x="1546.5" y="-13" font-family="Helvetica,sans-Serif" font-size="10.00">/kf_6x2x0_vehicle_location.cpp</text>
</a>
</g>
</g>
<!-- Node6&#45;&gt;Node16 -->
<g id="edge17" class="edge">
<title>Node6&#45;&gt;Node16</title>
<path fill="none" stroke="midnightblue" d="M2374.33,-92.1C2229.71,-90.4 1902.99,-82.03 1631.5,-42 1621.3,-40.5 1610.52,-38.38 1600.19,-36.08"/>
<polygon fill="midnightblue" stroke="midnightblue" points="2374.39,-95.6 2384.43,-92.21 2374.47,-88.6 2374.39,-95.6"/>
</g>
<!-- Node17 -->
<g id="node17" class="node">
<title>Node17</title>
<g id="a_node17"><a xlink:href="kf__8x4x0__deep__sort__bounding__box_8cpp.xhtml" target="_top" xlink:title=" ">
<polygon fill="white" stroke="black" points="1640.5,-0.5 1640.5,-41.5 1790.5,-41.5 1790.5,-0.5 1640.5,-0.5"/>
<text text-anchor="start" x="1648.5" y="-29.5" font-family="Helvetica,sans-Serif" font-size="10.00">/github/workspace/sample</text>
<text text-anchor="start" x="1648.5" y="-18.5" font-family="Helvetica,sans-Serif" font-size="10.00">/kf_8x4x0_deep_sort_bounding</text>
<text text-anchor="middle" x="1715.5" y="-7.5" font-family="Helvetica,sans-Serif" font-size="10.00">_box.cpp</text>
</a>
</g>
</g>
<!-- Node6&#45;&gt;Node17 -->
<g id="edge18" class="edge">
<title>Node6&#45;&gt;Node17</title>
<path fill="none" stroke="midnightblue" d="M2373.74,-90.45C2252.03,-86.3 2005.67,-74.35 1799.5,-42 1796.69,-41.56 1793.83,-41.07 1790.95,-40.55"/>
<polygon fill="midnightblue" stroke="midnightblue" points="2373.95,-93.96 2384.07,-90.79 2374.19,-86.96 2373.95,-93.96"/>
</g>
<!-- Node18 -->
<g id="node18" class="node">
<title>Node18</title>
<g id="a_node18"><a xlink:href="kalman__constructor__default_8cpp.xhtml" target="_top" xlink:title=" ">
<polygon fill="white" stroke="black" points="1808.5,-6 1808.5,-36 1966.5,-36 1966.5,-6 1808.5,-6"/>
<text text-anchor="start" x="1816.5" y="-24" font-family="Helvetica,sans-Serif" font-size="10.00">/github/workspace/test</text>
<text text-anchor="middle" x="1887.5" y="-13" font-family="Helvetica,sans-Serif" font-size="10.00">/kalman_constructor_default.cpp</text>
</a>
</g>
</g>
<!-- Node6&#45;&gt;Node18 -->
<g id="edge19" class="edge">
<title>Node6&#45;&gt;Node18</title>
<path fill="none" stroke="midnightblue" d="M2374.14,-87.22C2280.32,-80.01 2115.36,-65.26 1975.5,-42 1965.61,-40.35 1955.16,-38.28 1945.06,-36.1"/>
<polygon fill="midnightblue" stroke="midnightblue" points="2374.15,-90.73 2384.39,-87.99 2374.68,-83.75 2374.15,-90.73"/>
</g>
<!-- Node19 -->
<g id="node19" class="node">
<title>Node19</title>
<g id="a_node19"><a xlink:href="kalman__constructor__default__eigen__1x1x3_8cpp.xhtml" target="_top" xlink:title=" ">
<polygon fill="white" stroke="black" points="1984.5,-0.5 1984.5,-41.5 2124.5,-41.5 2124.5,-0.5 1984.5,-0.5"/>
<text text-anchor="start" x="1992.5" y="-29.5" font-family="Helvetica,sans-Serif" font-size="10.00">/github/workspace/test</text>
<text text-anchor="start" x="1992.5" y="-18.5" font-family="Helvetica,sans-Serif" font-size="10.00">/kalman_constructor_default</text>
<text text-anchor="middle" x="2054.5" y="-7.5" font-family="Helvetica,sans-Serif" font-size="10.00">_eigen_1x1x3.cpp</text>
</a>
</g>
</g>
<!-- Node6&#45;&gt;Node19 -->
<g id="edge20" class="edge">
<title>Node6&#45;&gt;Node19</title>
<path fill="none" stroke="midnightblue" d="M2374.39,-82.43C2310.15,-73.35 2215.37,-58.87 2133.5,-42 2130.59,-41.4 2127.63,-40.76 2124.64,-40.1"/>
<polygon fill="midnightblue" stroke="midnightblue" points="2374.05,-85.91 2384.43,-83.84 2375.02,-78.98 2374.05,-85.91"/>
</g>
<!-- Node20 -->
<g id="node20" class="node">
<title>Node20</title>
<g id="a_node20"><a xlink:href="kalman__constructor__default__eigen__1x4x1_8cpp.xhtml" target="_top" xlink:title=" ">
<polygon fill="white" stroke="black" points="2142.5,-0.5 2142.5,-41.5 2282.5,-41.5 2282.5,-0.5 2142.5,-0.5"/>
<text text-anchor="start" x="2150.5" y="-29.5" font-family="Helvetica,sans-Serif" font-size="10.00">/github/workspace/test</text>
<text text-anchor="start" x="2150.5" y="-18.5" font-family="Helvetica,sans-Serif" font-size="10.00">/kalman_constructor_default</text>
<text text-anchor="middle" x="2212.5" y="-7.5" font-family="Helvetica,sans-Serif" font-size="10.00">_eigen_1x4x1.cpp</text>
</a>
</g>
</g>
<!-- Node6&#45;&gt;Node20 -->
<g id="edge21" class="edge">
<title>Node6&#45;&gt;Node20</title>
<path fill="none" stroke="midnightblue" d="M2392.51,-75.55C2358.14,-65.32 2314.22,-52.26 2278.36,-41.59"/>
<polygon fill="midnightblue" stroke="midnightblue" points="2391.81,-78.99 2402.39,-78.49 2393.81,-72.28 2391.81,-78.99"/>
</g>
<!-- Node21 -->
<g id="node21" class="node">
<title>Node21</title>
<g id="a_node21"><a xlink:href="kalman__constructor__default__eigen__1x4x3_8cpp.xhtml" target="_top" xlink:title=" ">
<polygon fill="white" stroke="black" points="2300.5,-0.5 2300.5,-41.5 2440.5,-41.5 2440.5,-0.5 2300.5,-0.5"/>
<text text-anchor="start" x="2308.5" y="-29.5" font-family="Helvetica,sans-Serif" font-size="10.00">/github/workspace/test</text>
<text text-anchor="start" x="2308.5" y="-18.5" font-family="Helvetica,sans-Serif" font-size="10.00">/kalman_constructor_default</text>
<text text-anchor="middle" x="2370.5" y="-7.5" font-family="Helvetica,sans-Serif" font-size="10.00">_eigen_1x4x3.cpp</text>
</a>
</g>
</g>
<!-- Node6&#45;&gt;Node21 -->
<g id="edge22" class="edge">
<title>Node6&#45;&gt;Node21</title>
<path fill="none" stroke="midnightblue" d="M2425.83,-71.38C2415.24,-61.93 2402.83,-50.85 2392.45,-41.59"/>
<polygon fill="midnightblue" stroke="midnightblue" points="2423.72,-74.19 2433.51,-78.23 2428.38,-68.96 2423.72,-74.19"/>
</g>
<!-- Node22 -->
<g id="node22" class="node">
<title>Node22</title>
<g id="a_node22"><a xlink:href="kalman__constructor__default__eigen__5x1x1_8cpp.xhtml" target="_top" xlink:title=" ">
<polygon fill="white" stroke="black" points="2458.5,-0.5 2458.5,-41.5 2598.5,-41.5 2598.5,-0.5 2458.5,-0.5"/>
<text text-anchor="start" x="2466.5" y="-29.5" font-family="Helvetica,sans-Serif" font-size="10.00">/github/workspace/test</text>
<text text-anchor="start" x="2466.5" y="-18.5" font-family="Helvetica,sans-Serif" font-size="10.00">/kalman_constructor_default</text>
<text text-anchor="middle" x="2528.5" y="-7.5" font-family="Helvetica,sans-Serif" font-size="10.00">_eigen_5x1x1.cpp</text>
</a>
</g>
</g>
<!-- Node6&#45;&gt;Node22 -->
<g id="edge23" class="edge">
<title>Node6&#45;&gt;Node22</title>
<path fill="none" stroke="midnightblue" d="M2473.17,-71.38C2483.76,-61.93 2496.17,-50.85 2506.55,-41.59"/>
<polygon fill="midnightblue" stroke="midnightblue" points="2470.62,-68.96 2465.49,-78.23 2475.28,-74.19 2470.62,-68.96"/>
</g>
<!-- Node23 -->
<g id="node23" class="node">
<title>Node23</title>
<g id="a_node23"><a xlink:href="kalman__constructor__default__eigen__5x1x3_8cpp.xhtml" target="_top" xlink:title=" ">
<polygon fill="white" stroke="black" points="2616.5,-0.5 2616.5,-41.5 2756.5,-41.5 2756.5,-0.5 2616.5,-0.5"/>
<text text-anchor="start" x="2624.5" y="-29.5" font-family="Helvetica,sans-Serif" font-size="10.00">/github/workspace/test</text>
<text text-anchor="start" x="2624.5" y="-18.5" font-family="Helvetica,sans-Serif" font-size="10.00">/kalman_constructor_default</text>
<text text-anchor="middle" x="2686.5" y="-7.5" font-family="Helvetica,sans-Serif" font-size="10.00">_eigen_5x1x3.cpp</text>
</a>
</g>
</g>
<!-- Node6&#45;&gt;Node23 -->
<g id="edge24" class="edge">
<title>Node6&#45;&gt;Node23</title>
<path fill="none" stroke="midnightblue" d="M2506.49,-75.55C2540.86,-65.32 2584.78,-52.26 2620.64,-41.59"/>
<polygon fill="midnightblue" stroke="midnightblue" points="2505.19,-72.28 2496.61,-78.49 2507.19,-78.99 2505.19,-72.28"/>
</g>
<!-- Node24 -->
<g id="node24" class="node">
<title>Node24</title>
<g id="a_node24"><a xlink:href="kalman__constructor__default__eigen__5x4x0_8cpp.xhtml" target="_top" xlink:title=" ">
<polygon fill="white" stroke="black" points="2774.5,-0.5 2774.5,-41.5 2914.5,-41.5 2914.5,-0.5 2774.5,-0.5"/>
<text text-anchor="start" x="2782.5" y="-29.5" font-family="Helvetica,sans-Serif" font-size="10.00">/github/workspace/test</text>
<text text-anchor="start" x="2782.5" y="-18.5" font-family="Helvetica,sans-Serif" font-size="10.00">/kalman_constructor_default</text>
<text text-anchor="middle" x="2844.5" y="-7.5" font-family="Helvetica,sans-Serif" font-size="10.00">_eigen_5x4x0.cpp</text>
</a>
</g>
</g>
<!-- Node6&#45;&gt;Node24 -->
<g id="edge25" class="edge">
<title>Node6&#45;&gt;Node24</title>
<path fill="none" stroke="midnightblue" d="M2524.61,-82.43C2588.85,-73.35 2683.63,-58.87 2765.5,-42 2768.41,-41.4 2771.37,-40.76 2774.36,-40.1"/>
<polygon fill="midnightblue" stroke="midnightblue" points="2523.98,-78.98 2514.57,-83.84 2524.95,-85.91 2523.98,-78.98"/>
</g>
<!-- Node25 -->
<g id="node25" class="node">
<title>Node25</title>
<g id="a_node25"><a xlink:href="kalman__constructor__default__eigen__5x4x1_8cpp.xhtml" target="_top" xlink:title=" ">
<polygon fill="white" stroke="black" points="2932.5,-0.5 2932.5,-41.5 3072.5,-41.5 3072.5,-0.5 2932.5,-0.5"/>
<text text-anchor="start" x="2940.5" y="-29.5" font-family="Helvetica,sans-Serif" font-size="10.00">/github/workspace/test</text>
<text text-anchor="start" x="2940.5" y="-18.5" font-family="Helvetica,sans-Serif" font-size="10.00">/kalman_constructor_default</text>
<text text-anchor="middle" x="3002.5" y="-7.5" font-family="Helvetica,sans-Serif" font-size="10.00">_eigen_5x4x1.cpp</text>
</a>
</g>
</g>
<!-- Node6&#45;&gt;Node25 -->
<g id="edge26" class="edge">
<title>Node6&#45;&gt;Node25</title>
<path fill="none" stroke="midnightblue" d="M2524.96,-87.78C2618.87,-81.14 2783.93,-66.97 2923.5,-42 2926.42,-41.48 2929.4,-40.9 2932.4,-40.3"/>
<polygon fill="midnightblue" stroke="midnightblue" points="2524.43,-84.3 2514.7,-88.49 2524.92,-91.29 2524.43,-84.3"/>
</g>
<!-- Node26 -->
<g id="node26" class="node">
<title>Node26</title>
<g id="a_node26"><a xlink:href="kalman__constructor__default__eigen__5x4x3_8cpp.xhtml" target="_top" xlink:title=" ">
<polygon fill="white" stroke="black" points="3090.5,-0.5 3090.5,-41.5 3230.5,-41.5 3230.5,-0.5 3090.5,-0.5"/>
<text text-anchor="start" x="3098.5" y="-29.5" font-family="Helvetica,sans-Serif" font-size="10.00">/github/workspace/test</text>
<text text-anchor="start" x="3098.5" y="-18.5" font-family="Helvetica,sans-Serif" font-size="10.00">/kalman_constructor_default</text>
<text text-anchor="middle" x="3160.5" y="-7.5" font-family="Helvetica,sans-Serif" font-size="10.00">_eigen_5x4x3.cpp</text>
</a>
</g>
</g>
<!-- Node6&#45;&gt;Node26 -->
<g id="edge27" class="edge">
<title>Node6&#45;&gt;Node26</title>
<path fill="none" stroke="midnightblue" d="M2524.62,-90.58C2643.53,-86.63 2882.06,-74.97 3081.5,-42 3084.43,-41.52 3087.41,-40.98 3090.42,-40.39"/>
<polygon fill="midnightblue" stroke="midnightblue" points="2524.41,-87.08 2514.53,-90.91 2524.64,-94.08 2524.41,-87.08"/>
</g>
<!-- Node27 -->
<g id="node27" class="node">
<title>Node27</title>
<g id="a_node27"><a xlink:href="kalman__constructor__default__float__1x1x1_8cpp.xhtml" target="_top" xlink:title=" ">
<polygon fill="white" stroke="black" points="3248.5,-0.5 3248.5,-41.5 3388.5,-41.5 3388.5,-0.5 3248.5,-0.5"/>
<text text-anchor="start" x="3256.5" y="-29.5" font-family="Helvetica,sans-Serif" font-size="10.00">/github/workspace/test</text>
<text text-anchor="start" x="3256.5" y="-18.5" font-family="Helvetica,sans-Serif" font-size="10.00">/kalman_constructor_default</text>
<text text-anchor="middle" x="3318.5" y="-7.5" font-family="Helvetica,sans-Serif" font-size="10.00">_float_1x1x1.cpp</text>
</a>
</g>
</g>
<!-- Node6&#45;&gt;Node27 -->
<g id="edge28" class="edge">
<title>Node6&#45;&gt;Node27</title>
<path fill="none" stroke="midnightblue" d="M2524.99,-92.28C2666.16,-90.86 2979.4,-82.88 3239.5,-42 3242.44,-41.54 3245.42,-41.02 3248.43,-40.45"/>
<polygon fill="midnightblue" stroke="midnightblue" points="2524.68,-88.78 2514.71,-92.38 2524.75,-95.78 2524.68,-88.78"/>
</g>
<!-- Node28 -->
<g id="node28" class="node">
<title>Node28</title>
<g id="a_node28"><a xlink:href="kalman__f_8cpp.xhtml" target="_top" xlink:title=" ">
<polygon fill="white" stroke="black" points="3406.5,-6 3406.5,-36 3522.5,-36 3522.5,-6 3406.5,-6"/>
<text text-anchor="start" x="3414.5" y="-24" font-family="Helvetica,sans-Serif" font-size="10.00">/github/workspace/test</text>
<text text-anchor="middle" x="3464.5" y="-13" font-family="Helvetica,sans-Serif" font-size="10.00">/kalman_f.cpp</text>
</a>
</g>
</g>
<!-- Node6&#45;&gt;Node28 -->
<g id="edge29" class="edge">
<title>Node6&#45;&gt;Node28</title>
<path fill="none" stroke="midnightblue" d="M2524.89,-90.79C2718.61,-86.02 3230.28,-70.99 3397.5,-42 3405.87,-40.55 3414.68,-38.4 3423.05,-36.03"/>
<polygon fill="midnightblue" stroke="midnightblue" points="2524.71,-87.29 2514.8,-91.03 2524.88,-94.29 2524.71,-87.29"/>
</g>
<!-- Node29 -->
<g id="node29" class="node">
<title>Node29</title>
<g id="a_node29"><a xlink:href="kalman__f__eigen__5x4x3_8cpp.xhtml" target="_top" xlink:title=" ">
<polygon fill="white" stroke="black" points="3540.5,-6 3540.5,-36 3676.5,-36 3676.5,-6 3540.5,-6"/>
<text text-anchor="start" x="3548.5" y="-24" font-family="Helvetica,sans-Serif" font-size="10.00">/github/workspace/test</text>
<text text-anchor="middle" x="3608.5" y="-13" font-family="Helvetica,sans-Serif" font-size="10.00">/kalman_f_eigen_5x4x3.cpp</text>
</a>
</g>
</g>
<!-- Node6&#45;&gt;Node29 -->
<g id="edge30" class="edge">
<title>Node6&#45;&gt;Node29</title>
<path fill="none" stroke="midnightblue" d="M2524.89,-91.02C2737.14,-86.52 3336.9,-71.49 3531.5,-42 3541.06,-40.55 3551.15,-38.4 3560.76,-36.04"/>
<polygon fill="midnightblue" stroke="midnightblue" points="2524.7,-87.52 2514.78,-91.23 2524.85,-94.52 2524.7,-87.52"/>
</g>
<!-- Node30 -->
<g id="node30" class="node">
<title>Node30</title>
<g id="a_node30"><a xlink:href="kalman__format_8cpp.xhtml" target="_top" xlink:title=" ">
<polygon fill="white" stroke="black" points="3694.5,-6 3694.5,-36 3810.5,-36 3810.5,-6 3694.5,-6"/>
<text text-anchor="start" x="3702.5" y="-24" font-family="Helvetica,sans-Serif" font-size="10.00">/github/workspace/test</text>
<text text-anchor="middle" x="3752.5" y="-13" font-family="Helvetica,sans-Serif" font-size="10.00">/kalman_format.cpp</text>
</a>
</g>
</g>
<!-- Node6&#45;&gt;Node30 -->
<g id="edge31" class="edge">
<title>Node6&#45;&gt;Node30</title>
<path fill="none" stroke="midnightblue" d="M2524.65,-91.88C2756.78,-89.58 3460.34,-79.6 3685.5,-42 3694,-40.58 3702.94,-38.41 3711.42,-36.01"/>
<polygon fill="midnightblue" stroke="midnightblue" points="2524.57,-88.38 2514.61,-91.98 2524.64,-95.38 2524.57,-88.38"/>
</g>
<!-- Node31 -->
<g id="node31" class="node">
<title>Node31</title>
<g id="a_node31"><a xlink:href="kalman__format__arguments_8cpp.xhtml" target="_top" xlink:title=" ">
<polygon fill="white" stroke="black" points="3829,-6 3829,-36 3982,-36 3982,-6 3829,-6"/>
<text text-anchor="start" x="3837" y="-24" font-family="Helvetica,sans-Serif" font-size="10.00">/github/workspace/test</text>
<text text-anchor="middle" x="3905.5" y="-13" font-family="Helvetica,sans-Serif" font-size="10.00">/kalman_format_arguments.cpp</text>
</a>
</g>
</g>
<!-- Node6&#45;&gt;Node31 -->
<g id="edge32" class="edge">
<title>Node6&#45;&gt;Node31</title>
<path fill="none" stroke="midnightblue" d="M2524.51,-91.63C2772.72,-88.45 3566.01,-75.83 3819.5,-42 3830.14,-40.58 3841.39,-38.44 3852.12,-36.08"/>
<polygon fill="midnightblue" stroke="midnightblue" points="2524.46,-88.13 2514.5,-91.76 2524.55,-95.13 2524.46,-88.13"/>
</g>
<!-- Node32 -->
<g id="node32" class="node">
<title>Node32</title>
<g id="a_node32"><a xlink:href="kalman__format__float__1x1x1_8cpp.xhtml" target="_top" xlink:title=" ">
<polygon fill="white" stroke="black" points="4000,-6 4000,-36 4155,-36 4155,-6 4000,-6"/>
<text text-anchor="start" x="4008" y="-24" font-family="Helvetica,sans-Serif" font-size="10.00">/github/workspace/test</text>
<text text-anchor="middle" x="4077.5" y="-13" font-family="Helvetica,sans-Serif" font-size="10.00">/kalman_format_float_1x1x1.cpp</text>
</a>
</g>
</g>
<!-- Node6&#45;&gt;Node32 -->
<g id="edge33" class="edge">
<title>Node6&#45;&gt;Node32</title>
<path fill="none" stroke="midnightblue" d="M2524.67,-91.99C2792.98,-89.85 3702.92,-79.91 3991.5,-42 4002.29,-40.58 4013.71,-38.41 4024.58,-36.02"/>
<polygon fill="midnightblue" stroke="midnightblue" points="2524.61,-88.49 2514.64,-92.06 2524.67,-95.49 2524.61,-88.49"/>
</g>
<!-- Node33 -->
<g id="node33" class="node">
<title>Node33</title>
<g id="a_node33"><a xlink:href="kalman__h_8cpp.xhtml" target="_top" xlink:title=" ">
<polygon fill="white" stroke="black" points="4173.5,-6 4173.5,-36 4289.5,-36 4289.5,-6 4173.5,-6"/>
<text text-anchor="start" x="4181.5" y="-24" font-family="Helvetica,sans-Serif" font-size="10.00">/github/workspace/test</text>
<text text-anchor="middle" x="4231.5" y="-13" font-family="Helvetica,sans-Serif" font-size="10.00">/kalman_h.cpp</text>
</a>
</g>
</g>
<!-- Node6&#45;&gt;Node33 -->
<g id="edge34" class="edge">
<title>Node6&#45;&gt;Node33</title>
<path fill="none" stroke="midnightblue" d="M2525.29,-92.89C2813.61,-93.96 3842.06,-93.96 4164.5,-42 4173.01,-40.63 4181.95,-38.48 4190.43,-36.09"/>
<polygon fill="midnightblue" stroke="midnightblue" points="2524.96,-89.39 2514.94,-92.85 2524.93,-96.39 2524.96,-89.39"/>
</g>
<!-- Node34 -->
<g id="node34" class="node">
<title>Node34</title>
<g id="a_node34"><a xlink:href="kalman__h__eigen__5x4x3_8cpp.xhtml" target="_top" xlink:title=" ">
<polygon fill="white" stroke="black" points="4307.5,-6 4307.5,-36 4445.5,-36 4445.5,-6 4307.5,-6"/>
<text text-anchor="start" x="4315.5" y="-24" font-family="Helvetica,sans-Serif" font-size="10.00">/github/workspace/test</text>
<text text-anchor="middle" x="4376.5" y="-13" font-family="Helvetica,sans-Serif" font-size="10.00">/kalman_h_eigen_5x4x3.cpp</text>
</a>
</g>
</g>
<!-- Node6&#45;&gt;Node34 -->
<g id="edge35" class="edge">
<title>Node6&#45;&gt;Node34</title>
<path fill="none" stroke="midnightblue" d="M2524.84,-91.44C2849.58,-86.72 4121.19,-66.83 4298.5,-42 4308.33,-40.62 4318.71,-38.47 4328.57,-36.08"/>
<polygon fill="midnightblue" stroke="midnightblue" points="2524.55,-87.94 2514.6,-91.59 2524.65,-94.94 2524.55,-87.94"/>
</g>
<!-- Node35&#45;&gt;Node6 -->
<g id="edge37" class="edge">
<title>Node35&#45;&gt;Node6</title>
<path fill="none" stroke="midnightblue" d="M2379.91,-139.73C2395.38,-129.68 2413.83,-117.68 2427.84,-108.58"/>
<polygon fill="midnightblue" stroke="midnightblue" points="2377.68,-137.01 2371.2,-145.4 2381.49,-142.88 2377.68,-137.01"/>
</g>
</g>
</svg>
