<?xml version="1.0" encoding="UTF-8" standalone="no"?>
<!DOCTYPE svg PUBLIC "-//W3C//DTD SVG 1.1//EN"
 "http://www.w3.org/Graphics/SVG/1.1/DTD/svg11.dtd">
<!-- Generated by graphviz version 3.0.0 (20221109.1736)
 -->
<!-- Title: /github/workspace/include/fcarouge/internal/utility.hpp Pages: 1 -->
<svg width="4942pt" height="318pt"
 viewBox="0.00 0.00 4942.00 318.00" xmlns="http://www.w3.org/2000/svg" xmlns:xlink="http://www.w3.org/1999/xlink">
<g id="graph0" class="graph" transform="scale(1 1) rotate(0) translate(4 314)">
<title>/github/workspace/include/fcarouge/internal/utility.hpp</title>
<polygon fill="white" stroke="transparent" points="-4,4 -4,-314 4938,-314 4938,4 -4,4"/>
<!-- Node1 -->
<g id="node1" class="node">
<title>Node1</title>
<g id="a_node1"><a xlink:title=" ">
<polygon fill="#bfbfbf" stroke="black" points="2414,-279.5 2414,-309.5 2549,-309.5 2549,-279.5 2414,-279.5"/>
<text text-anchor="start" x="2422" y="-297.5" font-family="Helvetica,sans-Serif" font-size="10.00">/github/workspace/include</text>
<text text-anchor="middle" x="2481.5" y="-286.5" font-family="Helvetica,sans-Serif" font-size="10.00">/fcarouge/internal/utility.hpp</text>
</a>
</g>
</g>
<!-- Node2 -->
<g id="node2" class="node">
<title>Node2</title>
<g id="a_node2"><a xlink:href="eigen__predict__x1x_8cpp.xhtml" target="_top" xlink:title=" ">
<polygon fill="white" stroke="black" points="0,-6 0,-36 147,-36 147,-6 0,-6"/>
<text text-anchor="start" x="8" y="-24" font-family="Helvetica,sans-Serif" font-size="10.00">/github/workspace/benchmark</text>
<text text-anchor="middle" x="73.5" y="-13" font-family="Helvetica,sans-Serif" font-size="10.00">/eigen_predict_x1x.cpp</text>
</a>
</g>
</g>
<!-- Node1&#45;&gt;Node2 -->
<g id="edge1" class="edge">
<title>Node1&#45;&gt;Node2</title>
<path fill="none" stroke="midnightblue" d="M2403.8,-288.82C2108.84,-270.28 1030.79,-195.38 155.5,-42 146.12,-40.36 136.21,-38.26 126.66,-36.04"/>
<polygon fill="midnightblue" stroke="midnightblue" points="2403.76,-292.33 2413.96,-289.46 2404.2,-285.34 2403.76,-292.33"/>
</g>
<!-- Node3 -->
<g id="node3" class="node">
<title>Node3</title>
<g id="a_node3"><a xlink:href="eigen__update__xx0_8cpp.xhtml" target="_top" xlink:title=" ">
<polygon fill="white" stroke="black" points="4787,-6 4787,-36 4934,-36 4934,-6 4787,-6"/>
<text text-anchor="start" x="4795" y="-24" font-family="Helvetica,sans-Serif" font-size="10.00">/github/workspace/benchmark</text>
<text text-anchor="middle" x="4860.5" y="-13" font-family="Helvetica,sans-Serif" font-size="10.00">/eigen_update_xx0.cpp</text>
</a>
</g>
</g>
<!-- Node1&#45;&gt;Node3 -->
<g id="edge2" class="edge">
<title>Node1&#45;&gt;Node3</title>
<path fill="none" stroke="midnightblue" d="M2559.22,-288.68C2851.91,-269.73 3915.07,-193.9 4778.5,-42 4787.88,-40.35 4797.78,-38.25 4807.34,-36.03"/>
<polygon fill="midnightblue" stroke="midnightblue" points="2558.89,-285.19 2549.13,-289.33 2559.34,-292.18 2558.89,-285.19"/>
</g>
<!-- Node4 -->
<g id="node4" class="node">
<title>Node4</title>
<g id="a_node4"><a xlink:href="internal_2kalman_8hpp.xhtml" target="_top" xlink:title=" ">
<polygon fill="white" stroke="black" points="2296.5,-145.5 2296.5,-175.5 2440.5,-175.5 2440.5,-145.5 2296.5,-145.5"/>
<text text-anchor="start" x="2304.5" y="-163.5" font-family="Helvetica,sans-Serif" font-size="10.00">/github/workspace/include</text>
<text text-anchor="middle" x="2368.5" y="-152.5" font-family="Helvetica,sans-Serif" font-size="10.00">/fcarouge/internal/kalman.hpp</text>
</a>
</g>
</g>
<!-- Node1&#45;&gt;Node4 -->
<g id="edge3" class="edge">
<title>Node1&#45;&gt;Node4</title>
<path fill="none" stroke="midnightblue" d="M2462.7,-271.54C2439.34,-244.25 2400.16,-198.48 2380.51,-175.52"/>
<polygon fill="midnightblue" stroke="midnightblue" points="2460.24,-274.05 2469.41,-279.37 2465.56,-269.5 2460.24,-274.05"/>
</g>
<!-- Node35 -->
<g id="node35" class="node">
<title>Node35</title>
<g id="a_node35"><a xlink:href="utility_8hpp.xhtml" target="_top" xlink:title="The collection of utilities supporting the library.">
<polygon fill="white" stroke="black" points="2463.5,-212.5 2463.5,-242.5 2593.5,-242.5 2593.5,-212.5 2463.5,-212.5"/>
<text text-anchor="start" x="2471.5" y="-230.5" font-family="Helvetica,sans-Serif" font-size="10.00">/github/workspace/include</text>
<text text-anchor="middle" x="2528.5" y="-219.5" font-family="Helvetica,sans-Serif" font-size="10.00">/fcarouge/utility.hpp</text>
</a>
</g>
</g>
<!-- Node1&#45;&gt;Node35 -->
<g id="edge36" class="edge">
<title>Node1&#45;&gt;Node35</title>
<path fill="none" stroke="midnightblue" d="M2497.66,-271.16C2504.51,-261.68 2512.29,-250.92 2518.32,-242.58"/>
<polygon fill="midnightblue" stroke="midnightblue" points="2494.72,-269.24 2491.7,-279.4 2500.39,-273.34 2494.72,-269.24"/>
</g>
<!-- Node5 -->
<g id="node5" class="node">
<title>Node5</title>
<g id="a_node5"><a xlink:href="kalman_8hpp.xhtml" target="_top" xlink:title="The Kalman filter class and library top&#45;level header.">
<polygon fill="white" stroke="black" points="2463.5,-78.5 2463.5,-108.5 2593.5,-108.5 2593.5,-78.5 2463.5,-78.5"/>
<text text-anchor="start" x="2471.5" y="-96.5" font-family="Helvetica,sans-Serif" font-size="10.00">/github/workspace/include</text>
<text text-anchor="middle" x="2528.5" y="-85.5" font-family="Helvetica,sans-Serif" font-size="10.00">/fcarouge/kalman.hpp</text>
</a>
</g>
</g>
<!-- Node4&#45;&gt;Node5 -->
<g id="edge4" class="edge">
<title>Node4&#45;&gt;Node5</title>
<path fill="none" stroke="midnightblue" d="M2412.7,-141.54C2438.3,-131.14 2470.07,-118.24 2493.85,-108.58"/>
<polygon fill="midnightblue" stroke="midnightblue" points="2411.16,-138.39 2403.22,-145.4 2413.8,-144.87 2411.16,-138.39"/>
</g>
<!-- Node5&#45;&gt;Node2 -->
<g id="edge5" class="edge">
<title>Node5&#45;&gt;Node2</title>
<path fill="none" stroke="midnightblue" d="M2453.25,-91.87C2074.67,-88.6 387.43,-72.38 155.5,-42 145.04,-40.63 133.98,-38.45 123.48,-36.02"/>
<polygon fill="midnightblue" stroke="midnightblue" points="2453.24,-95.37 2463.27,-91.96 2453.3,-88.37 2453.24,-95.37"/>
</g>
<!-- Node5&#45;&gt;Node3 -->
<g id="edge6" class="edge">
<title>Node5&#45;&gt;Node3</title>
<path fill="none" stroke="midnightblue" d="M2603.96,-91.78C2970.83,-88.14 4559.43,-70.83 4778.5,-42 4788.96,-40.62 4800.02,-38.44 4810.52,-36.01"/>
<polygon fill="midnightblue" stroke="midnightblue" points="2603.69,-88.28 2593.72,-91.88 2603.75,-95.28 2603.69,-88.28"/>
</g>
<!-- Node6 -->
<g id="node6" class="node">
<title>Node6</title>
<g id="a_node6"><a xlink:href="predict__1x1x0_8cpp.xhtml" target="_top" xlink:title=" ">
<polygon fill="white" stroke="black" points="4622,-6 4622,-36 4769,-36 4769,-6 4622,-6"/>
<text text-anchor="start" x="4630" y="-24" font-family="Helvetica,sans-Serif" font-size="10.00">/github/workspace/benchmark</text>
<text text-anchor="middle" x="4695.5" y="-13" font-family="Helvetica,sans-Serif" font-size="10.00">/predict_1x1x0.cpp</text>
</a>
</g>
</g>
<!-- Node5&#45;&gt;Node6 -->
<g id="edge7" class="edge">
<title>Node5&#45;&gt;Node6</title>
<path fill="none" stroke="midnightblue" d="M2603.75,-91.62C2953.38,-87.42 4410.62,-68.46 4612.5,-42 4622.93,-40.63 4633.97,-38.48 4644.46,-36.1"/>
<polygon fill="midnightblue" stroke="midnightblue" points="2603.69,-88.12 2593.73,-91.74 2603.78,-95.12 2603.69,-88.12"/>
</g>
<!-- Node7 -->
<g id="node7" class="node">
<title>Node7</title>
<g id="a_node7"><a xlink:href="predict__1x1x1_8cpp.xhtml" target="_top" xlink:title=" ">
<polygon fill="white" stroke="black" points="165,-6 165,-36 312,-36 312,-6 165,-6"/>
<text text-anchor="start" x="173" y="-24" font-family="Helvetica,sans-Serif" font-size="10.00">/github/workspace/benchmark</text>
<text text-anchor="middle" x="238.5" y="-13" font-family="Helvetica,sans-Serif" font-size="10.00">/predict_1x1x1.cpp</text>
</a>
</g>
</g>
<!-- Node5&#45;&gt;Node7 -->
<g id="edge8" class="edge">
<title>Node5&#45;&gt;Node7</title>
<path fill="none" stroke="midnightblue" d="M2453.26,-91.75C2091.01,-87.99 535.24,-70.3 320.5,-42 310.04,-40.62 298.98,-38.44 288.48,-36.01"/>
<polygon fill="midnightblue" stroke="midnightblue" points="2453.34,-95.25 2463.38,-91.85 2453.41,-88.25 2453.34,-95.25"/>
</g>
<!-- Node8 -->
<g id="node8" class="node">
<title>Node8</title>
<g id="a_node8"><a xlink:href="update__1x1x0_8cpp.xhtml" target="_top" xlink:title=" ">
<polygon fill="white" stroke="black" points="330,-6 330,-36 477,-36 477,-6 330,-6"/>
<text text-anchor="start" x="338" y="-24" font-family="Helvetica,sans-Serif" font-size="10.00">/github/workspace/benchmark</text>
<text text-anchor="middle" x="403.5" y="-13" font-family="Helvetica,sans-Serif" font-size="10.00">/update_1x1x0.cpp</text>
</a>
</g>
</g>
<!-- Node5&#45;&gt;Node8 -->
<g id="edge9" class="edge">
<title>Node5&#45;&gt;Node8</title>
<path fill="none" stroke="midnightblue" d="M2453.34,-91.6C2108.13,-87.32 683.1,-68.23 485.5,-42 475.19,-40.63 464.29,-38.48 453.92,-36.09"/>
<polygon fill="midnightblue" stroke="midnightblue" points="2453.43,-95.1 2463.47,-91.72 2453.52,-88.1 2453.43,-95.1"/>
</g>
<!-- Node9 -->
<g id="node9" class="node">
<title>Node9</title>
<g id="a_node9"><a xlink:href="update__1x1x1_8cpp.xhtml" target="_top" xlink:title=" ">
<polygon fill="white" stroke="black" points="495,-6 495,-36 642,-36 642,-6 495,-6"/>
<text text-anchor="start" x="503" y="-24" font-family="Helvetica,sans-Serif" font-size="10.00">/github/workspace/benchmark</text>
<text text-anchor="middle" x="568.5" y="-13" font-family="Helvetica,sans-Serif" font-size="10.00">/update_1x1x1.cpp</text>
</a>
</g>
</g>
<!-- Node5&#45;&gt;Node9 -->
<g id="edge10" class="edge">
<title>Node5&#45;&gt;Node9</title>
<path fill="none" stroke="midnightblue" d="M2453.29,-92.61C2148.94,-92.71 1007.9,-89.84 650.5,-42 640.19,-40.62 629.29,-38.47 618.92,-36.08"/>
<polygon fill="midnightblue" stroke="midnightblue" points="2453.34,-96.11 2463.33,-92.6 2453.33,-89.11 2453.34,-96.11"/>
</g>
<!-- Node10 -->
<g id="node10" class="node">
<title>Node10</title>
<g id="a_node10"><a xlink:href="ekf__4x1x0__soaring_8cpp.xhtml" target="_top" xlink:title=" ">
<polygon fill="white" stroke="black" points="660,-6 660,-36 791,-36 791,-6 660,-6"/>
<text text-anchor="start" x="668" y="-24" font-family="Helvetica,sans-Serif" font-size="10.00">/github/workspace/sample</text>
<text text-anchor="middle" x="725.5" y="-13" font-family="Helvetica,sans-Serif" font-size="10.00">/ekf_4x1x0_soaring.cpp</text>
</a>
</g>
</g>
<!-- Node5&#45;&gt;Node10 -->
<g id="edge11" class="edge">
<title>Node5&#45;&gt;Node10</title>
<path fill="none" stroke="midnightblue" d="M2452.67,-92.61C2163,-92.69 1126.31,-89.55 800.5,-42 791.03,-40.62 781.05,-38.46 771.56,-36.07"/>
<polygon fill="midnightblue" stroke="midnightblue" points="2453.06,-96.11 2463.06,-92.61 2453.06,-89.11 2453.06,-96.11"/>
</g>
<!-- Node11 -->
<g id="node11" class="node">
<title>Node11</title>
<g id="a_node11"><a xlink:href="kf__1x1x0__building__height_8cpp.xhtml" target="_top" xlink:title=" ">
<polygon fill="white" stroke="black" points="809.5,-6 809.5,-36 955.5,-36 955.5,-6 809.5,-6"/>
<text text-anchor="start" x="817.5" y="-24" font-family="Helvetica,sans-Serif" font-size="10.00">/github/workspace/sample</text>
<text text-anchor="middle" x="882.5" y="-13" font-family="Helvetica,sans-Serif" font-size="10.00">/kf_1x1x0_building_height.cpp</text>
</a>
</g>
</g>
<!-- Node5&#45;&gt;Node11 -->
<g id="edge12" class="edge">
<title>Node5&#45;&gt;Node11</title>
<path fill="none" stroke="midnightblue" d="M2453.17,-92.13C2182.15,-90.49 1257.33,-82 964.5,-42 954.19,-40.59 943.29,-38.43 932.93,-36.03"/>
<polygon fill="midnightblue" stroke="midnightblue" points="2453.28,-95.63 2463.3,-92.19 2453.32,-88.63 2453.28,-95.63"/>
</g>
<!-- Node12 -->
<g id="node12" class="node">
<title>Node12</title>
<g id="a_node12"><a xlink:href="kf__1x1x0__liquid__temperature_8cpp.xhtml" target="_top" xlink:title=" ">
<polygon fill="white" stroke="black" points="974,-6 974,-36 1135,-36 1135,-6 974,-6"/>
<text text-anchor="start" x="982" y="-24" font-family="Helvetica,sans-Serif" font-size="10.00">/github/workspace/sample</text>
<text text-anchor="middle" x="1054.5" y="-13" font-family="Helvetica,sans-Serif" font-size="10.00">/kf_1x1x0_liquid_temperature.cpp</text>
</a>
</g>
</g>
<!-- Node5&#45;&gt;Node12 -->
<g id="edge13" class="edge">
<title>Node5&#45;&gt;Node12</title>
<path fill="none" stroke="midnightblue" d="M2453.17,-91.56C2202.95,-88.16 1400.89,-74.89 1144.5,-42 1133.39,-40.57 1121.62,-38.43 1110.39,-36.07"/>
<polygon fill="midnightblue" stroke="midnightblue" points="2453.21,-95.06 2463.25,-91.7 2453.3,-88.06 2453.21,-95.06"/>
</g>
<!-- Node13 -->
<g id="node13" class="node">
<title>Node13</title>
<g id="a_node13"><a xlink:href="kf__1x1x1__dog__position_8cpp.xhtml" target="_top" xlink:title=" ">
<polygon fill="white" stroke="black" points="1153.5,-6 1153.5,-36 1289.5,-36 1289.5,-6 1153.5,-6"/>
<text text-anchor="start" x="1161.5" y="-24" font-family="Helvetica,sans-Serif" font-size="10.00">/github/workspace/sample</text>
<text text-anchor="middle" x="1221.5" y="-13" font-family="Helvetica,sans-Serif" font-size="10.00">/kf_1x1x1_dog_position.cpp</text>
</a>
</g>
</g>
<!-- Node5&#45;&gt;Node13 -->
<g id="edge14" class="edge">
<title>Node5&#45;&gt;Node13</title>
<path fill="none" stroke="midnightblue" d="M2453.37,-91.51C2222.12,-88.14 1523.08,-75.39 1298.5,-42 1288.94,-40.58 1278.85,-38.44 1269.23,-36.08"/>
<polygon fill="midnightblue" stroke="midnightblue" points="2453.32,-95.01 2463.37,-91.66 2453.42,-88.01 2453.32,-95.01"/>
</g>
<!-- Node14 -->
<g id="node14" class="node">
<title>Node14</title>
<g id="a_node14"><a xlink:href="kf__2x1x1__rocket__altitude_8cpp.xhtml" target="_top" xlink:title=" ">
<polygon fill="white" stroke="black" points="1308,-6 1308,-36 1453,-36 1453,-6 1308,-6"/>
<text text-anchor="start" x="1316" y="-24" font-family="Helvetica,sans-Serif" font-size="10.00">/github/workspace/sample</text>
<text text-anchor="middle" x="1380.5" y="-13" font-family="Helvetica,sans-Serif" font-size="10.00">/kf_2x1x1_rocket_altitude.cpp</text>
</a>
</g>
</g>
<!-- Node5&#45;&gt;Node14 -->
<g id="edge15" class="edge">
<title>Node5&#45;&gt;Node14</title>
<path fill="none" stroke="midnightblue" d="M2453.43,-90.85C2243.52,-85.93 1653.34,-69.95 1461.5,-42 1451.47,-40.54 1440.86,-38.38 1430.75,-36.02"/>
<polygon fill="midnightblue" stroke="midnightblue" points="2453.36,-94.35 2463.44,-91.08 2453.52,-87.35 2453.36,-94.35"/>
</g>
<!-- Node15 -->
<g id="node15" class="node">
<title>Node15</title>
<g id="a_node15"><a xlink:href="kf__6x2x0__vehicle__location_8cpp.xhtml" target="_top" xlink:title=" ">
<polygon fill="white" stroke="black" points="1471,-6 1471,-36 1622,-36 1622,-6 1471,-6"/>
<text text-anchor="start" x="1479" y="-24" font-family="Helvetica,sans-Serif" font-size="10.00">/github/workspace/sample</text>
<text text-anchor="middle" x="1546.5" y="-13" font-family="Helvetica,sans-Serif" font-size="10.00">/kf_6x2x0_vehicle_location.cpp</text>
</a>
</g>
</g>
<!-- Node5&#45;&gt;Node15 -->
<g id="edge16" class="edge">
<title>Node5&#45;&gt;Node15</title>
<path fill="none" stroke="midnightblue" d="M2453.05,-92.69C2298.21,-92.1 1933.68,-85.71 1631.5,-42 1621.15,-40.5 1610.2,-38.36 1599.73,-36.03"/>
<polygon fill="midnightblue" stroke="midnightblue" points="2453.38,-96.19 2463.39,-92.72 2453.4,-89.19 2453.38,-96.19"/>
</g>
<!-- Node16 -->
<g id="node16" class="node">
<title>Node16</title>
<g id="a_node16"><a xlink:href="kf__8x4x0__deep__sort__bounding__box_8cpp.xhtml" target="_top" xlink:title=" ">
<polygon fill="white" stroke="black" points="1640.5,-0.5 1640.5,-41.5 1790.5,-41.5 1790.5,-0.5 1640.5,-0.5"/>
<text text-anchor="start" x="1648.5" y="-29.5" font-family="Helvetica,sans-Serif" font-size="10.00">/github/workspace/sample</text>
<text text-anchor="start" x="1648.5" y="-18.5" font-family="Helvetica,sans-Serif" font-size="10.00">/kf_8x4x0_deep_sort_bounding</text>
<text text-anchor="middle" x="1715.5" y="-7.5" font-family="Helvetica,sans-Serif" font-size="10.00">_box.cpp</text>
</a>
</g>
</g>
<!-- Node5&#45;&gt;Node16 -->
<g id="edge17" class="edge">
<title>Node5&#45;&gt;Node16</title>
<path fill="none" stroke="midnightblue" d="M2453.19,-91.36C2320.41,-88.44 2036.32,-78.14 1799.5,-42 1796.68,-41.57 1793.82,-41.09 1790.94,-40.58"/>
<polygon fill="midnightblue" stroke="midnightblue" points="2453.18,-94.86 2463.25,-91.57 2453.33,-87.86 2453.18,-94.86"/>
</g>
<!-- Node17 -->
<g id="node17" class="node">
<title>Node17</title>
<g id="a_node17"><a xlink:href="kalman__constructor__default_8cpp.xhtml" target="_top" xlink:title=" ">
<polygon fill="white" stroke="black" points="1808.5,-6 1808.5,-36 1966.5,-36 1966.5,-6 1808.5,-6"/>
<text text-anchor="start" x="1816.5" y="-24" font-family="Helvetica,sans-Serif" font-size="10.00">/github/workspace/test</text>
<text text-anchor="middle" x="1887.5" y="-13" font-family="Helvetica,sans-Serif" font-size="10.00">/kalman_constructor_default.cpp</text>
</a>
</g>
</g>
<!-- Node5&#45;&gt;Node17 -->
<g id="edge18" class="edge">
<title>Node5&#45;&gt;Node17</title>
<path fill="none" stroke="midnightblue" d="M2453.42,-88.8C2346.7,-82.83 2145.22,-68.92 1975.5,-42 1965.29,-40.38 1954.49,-38.27 1944.09,-36.02"/>
<polygon fill="midnightblue" stroke="midnightblue" points="2453.27,-92.3 2463.45,-89.36 2453.66,-85.31 2453.27,-92.3"/>
</g>
<!-- Node18 -->
<g id="node18" class="node">
<title>Node18</title>
<g id="a_node18"><a xlink:href="kalman__constructor__default__constexpr_8cpp.xhtml" target="_top" xlink:title=" ">
<polygon fill="white" stroke="black" points="1984.5,-0.5 1984.5,-41.5 2124.5,-41.5 2124.5,-0.5 1984.5,-0.5"/>
<text text-anchor="start" x="1992.5" y="-29.5" font-family="Helvetica,sans-Serif" font-size="10.00">/github/workspace/test</text>
<text text-anchor="start" x="1992.5" y="-18.5" font-family="Helvetica,sans-Serif" font-size="10.00">/kalman_constructor_default</text>
<text text-anchor="middle" x="2054.5" y="-7.5" font-family="Helvetica,sans-Serif" font-size="10.00">_constexpr.cpp</text>
</a>
</g>
</g>
<!-- Node5&#45;&gt;Node18 -->
<g id="edge19" class="edge">
<title>Node5&#45;&gt;Node18</title>
<path fill="none" stroke="midnightblue" d="M2453.51,-85.64C2373.74,-77.7 2244.07,-62.98 2133.5,-42 2130.58,-41.45 2127.61,-40.85 2124.61,-40.22"/>
<polygon fill="midnightblue" stroke="midnightblue" points="2453.17,-89.12 2463.46,-86.62 2453.86,-82.15 2453.17,-89.12"/>
</g>
<!-- Node19 -->
<g id="node19" class="node">
<title>Node19</title>
<g id="a_node19"><a xlink:href="kalman__constructor__default__eigen__1x1x3_8cpp.xhtml" target="_top" xlink:title=" ">
<polygon fill="white" stroke="black" points="2142.5,-0.5 2142.5,-41.5 2282.5,-41.5 2282.5,-0.5 2142.5,-0.5"/>
<text text-anchor="start" x="2150.5" y="-29.5" font-family="Helvetica,sans-Serif" font-size="10.00">/github/workspace/test</text>
<text text-anchor="start" x="2150.5" y="-18.5" font-family="Helvetica,sans-Serif" font-size="10.00">/kalman_constructor_default</text>
<text text-anchor="middle" x="2212.5" y="-7.5" font-family="Helvetica,sans-Serif" font-size="10.00">_eigen_1x1x3.cpp</text>
</a>
</g>
</g>
<!-- Node5&#45;&gt;Node19 -->
<g id="edge20" class="edge">
<title>Node5&#45;&gt;Node19</title>
<path fill="none" stroke="midnightblue" d="M2453.44,-77.27C2406.74,-67.6 2345.51,-54.59 2291.5,-42 2288.61,-41.33 2285.66,-40.63 2282.68,-39.91"/>
<polygon fill="midnightblue" stroke="midnightblue" points="2452.97,-80.74 2463.47,-79.34 2454.38,-73.89 2452.97,-80.74"/>
</g>
<!-- Node20 -->
<g id="node20" class="node">
<title>Node20</title>
<g id="a_node20"><a xlink:href="kalman__constructor__default__eigen__1x4x1_8cpp.xhtml" target="_top" xlink:title=" ">
<polygon fill="white" stroke="black" points="2300.5,-0.5 2300.5,-41.5 2440.5,-41.5 2440.5,-0.5 2300.5,-0.5"/>
<text text-anchor="start" x="2308.5" y="-29.5" font-family="Helvetica,sans-Serif" font-size="10.00">/github/workspace/test</text>
<text text-anchor="start" x="2308.5" y="-18.5" font-family="Helvetica,sans-Serif" font-size="10.00">/kalman_constructor_default</text>
<text text-anchor="middle" x="2370.5" y="-7.5" font-family="Helvetica,sans-Serif" font-size="10.00">_eigen_1x4x1.cpp</text>
</a>
</g>
</g>
<!-- Node5&#45;&gt;Node20 -->
<g id="edge21" class="edge">
<title>Node5&#45;&gt;Node20</title>
<path fill="none" stroke="midnightblue" d="M2487.63,-74.26C2465.15,-64.23 2437.24,-51.78 2414.31,-41.55"/>
<polygon fill="midnightblue" stroke="midnightblue" points="2486.35,-77.52 2496.91,-78.4 2489.2,-71.13 2486.35,-77.52"/>
</g>
<!-- Node21 -->
<g id="node21" class="node">
<title>Node21</title>
<g id="a_node21"><a xlink:href="kalman__constructor__default__eigen__1x4x3_8cpp.xhtml" target="_top" xlink:title=" ">
<polygon fill="white" stroke="black" points="2458.5,-0.5 2458.5,-41.5 2598.5,-41.5 2598.5,-0.5 2458.5,-0.5"/>
<text text-anchor="start" x="2466.5" y="-29.5" font-family="Helvetica,sans-Serif" font-size="10.00">/github/workspace/test</text>
<text text-anchor="start" x="2466.5" y="-18.5" font-family="Helvetica,sans-Serif" font-size="10.00">/kalman_constructor_default</text>
<text text-anchor="middle" x="2528.5" y="-7.5" font-family="Helvetica,sans-Serif" font-size="10.00">_eigen_1x4x3.cpp</text>
</a>
</g>
</g>
<!-- Node5&#45;&gt;Node21 -->
<g id="edge22" class="edge">
<title>Node5&#45;&gt;Node21</title>
<path fill="none" stroke="midnightblue" d="M2528.5,-67.98C2528.5,-59.35 2528.5,-49.76 2528.5,-41.59"/>
<polygon fill="midnightblue" stroke="midnightblue" points="2525,-68.23 2528.5,-78.23 2532,-68.23 2525,-68.23"/>
</g>
<!-- Node22 -->
<g id="node22" class="node">
<title>Node22</title>
<g id="a_node22"><a xlink:href="kalman__constructor__default__eigen__5x1x1_8cpp.xhtml" target="_top" xlink:title=" ">
<polygon fill="white" stroke="black" points="2616.5,-0.5 2616.5,-41.5 2756.5,-41.5 2756.5,-0.5 2616.5,-0.5"/>
<text text-anchor="start" x="2624.5" y="-29.5" font-family="Helvetica,sans-Serif" font-size="10.00">/github/workspace/test</text>
<text text-anchor="start" x="2624.5" y="-18.5" font-family="Helvetica,sans-Serif" font-size="10.00">/kalman_constructor_default</text>
<text text-anchor="middle" x="2686.5" y="-7.5" font-family="Helvetica,sans-Serif" font-size="10.00">_eigen_5x1x1.cpp</text>
</a>
</g>
</g>
<!-- Node5&#45;&gt;Node22 -->
<g id="edge23" class="edge">
<title>Node5&#45;&gt;Node22</title>
<path fill="none" stroke="midnightblue" d="M2569.37,-74.26C2591.85,-64.23 2619.76,-51.78 2642.69,-41.55"/>
<polygon fill="midnightblue" stroke="midnightblue" points="2567.8,-71.13 2560.09,-78.4 2570.65,-77.52 2567.8,-71.13"/>
</g>
<!-- Node23 -->
<g id="node23" class="node">
<title>Node23</title>
<g id="a_node23"><a xlink:href="kalman__constructor__default__eigen__5x1x3_8cpp.xhtml" target="_top" xlink:title=" ">
<polygon fill="white" stroke="black" points="2774.5,-0.5 2774.5,-41.5 2914.5,-41.5 2914.5,-0.5 2774.5,-0.5"/>
<text text-anchor="start" x="2782.5" y="-29.5" font-family="Helvetica,sans-Serif" font-size="10.00">/github/workspace/test</text>
<text text-anchor="start" x="2782.5" y="-18.5" font-family="Helvetica,sans-Serif" font-size="10.00">/kalman_constructor_default</text>
<text text-anchor="middle" x="2844.5" y="-7.5" font-family="Helvetica,sans-Serif" font-size="10.00">_eigen_5x1x3.cpp</text>
</a>
</g>
</g>
<!-- Node5&#45;&gt;Node23 -->
<g id="edge24" class="edge">
<title>Node5&#45;&gt;Node23</title>
<path fill="none" stroke="midnightblue" d="M2603.56,-77.27C2650.26,-67.6 2711.49,-54.59 2765.5,-42 2768.39,-41.33 2771.34,-40.63 2774.32,-39.91"/>
<polygon fill="midnightblue" stroke="midnightblue" points="2602.62,-73.89 2593.53,-79.34 2604.03,-80.74 2602.62,-73.89"/>
</g>
<!-- Node24 -->
<g id="node24" class="node">
<title>Node24</title>
<g id="a_node24"><a xlink:href="kalman__constructor__default__eigen__5x4x0_8cpp.xhtml" target="_top" xlink:title=" ">
<polygon fill="white" stroke="black" points="2932.5,-0.5 2932.5,-41.5 3072.5,-41.5 3072.5,-0.5 2932.5,-0.5"/>
<text text-anchor="start" x="2940.5" y="-29.5" font-family="Helvetica,sans-Serif" font-size="10.00">/github/workspace/test</text>
<text text-anchor="start" x="2940.5" y="-18.5" font-family="Helvetica,sans-Serif" font-size="10.00">/kalman_constructor_default</text>
<text text-anchor="middle" x="3002.5" y="-7.5" font-family="Helvetica,sans-Serif" font-size="10.00">_eigen_5x4x0.cpp</text>
</a>
</g>
</g>
<!-- Node5&#45;&gt;Node24 -->
<g id="edge25" class="edge">
<title>Node5&#45;&gt;Node24</title>
<path fill="none" stroke="midnightblue" d="M2603.49,-85.64C2683.26,-77.7 2812.93,-62.98 2923.5,-42 2926.42,-41.45 2929.39,-40.85 2932.39,-40.22"/>
<polygon fill="midnightblue" stroke="midnightblue" points="2603.14,-82.15 2593.54,-86.62 2603.83,-89.12 2603.14,-82.15"/>
</g>
<!-- Node25 -->
<g id="node25" class="node">
<title>Node25</title>
<g id="a_node25"><a xlink:href="kalman__constructor__default__eigen__5x4x1_8cpp.xhtml" target="_top" xlink:title=" ">
<polygon fill="white" stroke="black" points="3090.5,-0.5 3090.5,-41.5 3230.5,-41.5 3230.5,-0.5 3090.5,-0.5"/>
<text text-anchor="start" x="3098.5" y="-29.5" font-family="Helvetica,sans-Serif" font-size="10.00">/github/workspace/test</text>
<text text-anchor="start" x="3098.5" y="-18.5" font-family="Helvetica,sans-Serif" font-size="10.00">/kalman_constructor_default</text>
<text text-anchor="middle" x="3160.5" y="-7.5" font-family="Helvetica,sans-Serif" font-size="10.00">_eigen_5x4x1.cpp</text>
</a>
</g>
</g>
<!-- Node5&#45;&gt;Node25 -->
<g id="edge26" class="edge">
<title>Node5&#45;&gt;Node25</title>
<path fill="none" stroke="midnightblue" d="M2603.67,-89.38C2710.51,-84.09 2912.12,-70.99 3081.5,-42 3084.43,-41.5 3087.41,-40.95 3090.41,-40.35"/>
<polygon fill="midnightblue" stroke="midnightblue" points="2603.45,-85.88 2593.63,-89.86 2603.79,-92.88 2603.45,-85.88"/>
</g>
<!-- Node26 -->
<g id="node26" class="node">
<title>Node26</title>
<g id="a_node26"><a xlink:href="kalman__constructor__default__eigen__5x4x3_8cpp.xhtml" target="_top" xlink:title=" ">
<polygon fill="white" stroke="black" points="3248.5,-0.5 3248.5,-41.5 3388.5,-41.5 3388.5,-0.5 3248.5,-0.5"/>
<text text-anchor="start" x="3256.5" y="-29.5" font-family="Helvetica,sans-Serif" font-size="10.00">/github/workspace/test</text>
<text text-anchor="start" x="3256.5" y="-18.5" font-family="Helvetica,sans-Serif" font-size="10.00">/kalman_constructor_default</text>
<text text-anchor="middle" x="3318.5" y="-7.5" font-family="Helvetica,sans-Serif" font-size="10.00">_eigen_5x4x3.cpp</text>
</a>
</g>
</g>
<!-- Node5&#45;&gt;Node26 -->
<g id="edge27" class="edge">
<title>Node5&#45;&gt;Node26</title>
<path fill="none" stroke="midnightblue" d="M2603.91,-91.52C2734.29,-88.85 3009.91,-78.92 3239.5,-42 3242.43,-41.53 3245.42,-41 3248.42,-40.43"/>
<polygon fill="midnightblue" stroke="midnightblue" points="2603.57,-88.02 2593.64,-91.72 2603.71,-95.02 2603.57,-88.02"/>
</g>
<!-- Node27 -->
<g id="node27" class="node">
<title>Node27</title>
<g id="a_node27"><a xlink:href="kalman__constructor__default__float__1x1x1_8cpp.xhtml" target="_top" xlink:title=" ">
<polygon fill="white" stroke="black" points="3406.5,-0.5 3406.5,-41.5 3546.5,-41.5 3546.5,-0.5 3406.5,-0.5"/>
<text text-anchor="start" x="3414.5" y="-29.5" font-family="Helvetica,sans-Serif" font-size="10.00">/github/workspace/test</text>
<text text-anchor="start" x="3414.5" y="-18.5" font-family="Helvetica,sans-Serif" font-size="10.00">/kalman_constructor_default</text>
<text text-anchor="middle" x="3476.5" y="-7.5" font-family="Helvetica,sans-Serif" font-size="10.00">_float_1x1x1.cpp</text>
</a>
</g>
</g>
<!-- Node5&#45;&gt;Node27 -->
<g id="edge28" class="edge">
<title>Node5&#45;&gt;Node27</title>
<path fill="none" stroke="midnightblue" d="M2603.64,-92.91C2754.87,-92.7 3106.41,-86.89 3397.5,-42 3400.44,-41.55 3403.42,-41.03 3406.43,-40.47"/>
<polygon fill="midnightblue" stroke="midnightblue" points="2603.53,-89.41 2593.53,-92.92 2603.54,-96.41 2603.53,-89.41"/>
</g>
<!-- Node28 -->
<g id="node28" class="node">
<title>Node28</title>
<g id="a_node28"><a xlink:href="kalman__f_8cpp.xhtml" target="_top" xlink:title=" ">
<polygon fill="white" stroke="black" points="3564.5,-6 3564.5,-36 3680.5,-36 3680.5,-6 3564.5,-6"/>
<text text-anchor="start" x="3572.5" y="-24" font-family="Helvetica,sans-Serif" font-size="10.00">/github/workspace/test</text>
<text text-anchor="middle" x="3622.5" y="-13" font-family="Helvetica,sans-Serif" font-size="10.00">/kalman_f.cpp</text>
</a>
</g>
</g>
<!-- Node5&#45;&gt;Node28 -->
<g id="edge29" class="edge">
<title>Node5&#45;&gt;Node28</title>
<path fill="none" stroke="midnightblue" d="M2603.65,-91.15C2808.29,-87.1 3372.41,-73.35 3555.5,-42 3563.88,-40.57 3572.68,-38.42 3581.05,-36.06"/>
<polygon fill="midnightblue" stroke="midnightblue" points="2603.52,-87.65 2593.59,-91.35 2603.66,-94.65 2603.52,-87.65"/>
</g>
<!-- Node29 -->
<g id="node29" class="node">
<title>Node29</title>
<g id="a_node29"><a xlink:href="kalman__f__eigen__5x4x3_8cpp.xhtml" target="_top" xlink:title=" ">
<polygon fill="white" stroke="black" points="3698.5,-6 3698.5,-36 3834.5,-36 3834.5,-6 3698.5,-6"/>
<text text-anchor="start" x="3706.5" y="-24" font-family="Helvetica,sans-Serif" font-size="10.00">/github/workspace/test</text>
<text text-anchor="middle" x="3766.5" y="-13" font-family="Helvetica,sans-Serif" font-size="10.00">/kalman_f_eigen_5x4x3.cpp</text>
</a>
</g>
</g>
<!-- Node5&#45;&gt;Node29 -->
<g id="edge30" class="edge">
<title>Node5&#45;&gt;Node29</title>
<path fill="none" stroke="midnightblue" d="M2603.92,-91.29C2826.63,-87.4 3478.98,-73.56 3689.5,-42 3699.06,-40.57 3709.15,-38.42 3718.77,-36.06"/>
<polygon fill="midnightblue" stroke="midnightblue" points="2603.58,-87.8 2593.64,-91.47 2603.7,-94.8 2603.58,-87.8"/>
</g>
<!-- Node30 -->
<g id="node30" class="node">
<title>Node30</title>
<g id="a_node30"><a xlink:href="kalman__format_8cpp.xhtml" target="_top" xlink:title=" ">
<polygon fill="white" stroke="black" points="3852.5,-6 3852.5,-36 3968.5,-36 3968.5,-6 3852.5,-6"/>
<text text-anchor="start" x="3860.5" y="-24" font-family="Helvetica,sans-Serif" font-size="10.00">/github/workspace/test</text>
<text text-anchor="middle" x="3910.5" y="-13" font-family="Helvetica,sans-Serif" font-size="10.00">/kalman_format.cpp</text>
</a>
</g>
</g>
<!-- Node5&#45;&gt;Node30 -->
<g id="edge31" class="edge">
<title>Node5&#45;&gt;Node30</title>
<path fill="none" stroke="midnightblue" d="M2603.84,-92.09C2845.97,-90.4 3602.41,-81.96 3843.5,-42 3852,-40.59 3860.94,-38.42 3869.42,-36.03"/>
<polygon fill="midnightblue" stroke="midnightblue" points="2603.71,-88.59 2593.73,-92.16 2603.76,-95.59 2603.71,-88.59"/>
</g>
<!-- Node31 -->
<g id="node31" class="node">
<title>Node31</title>
<g id="a_node31"><a xlink:href="kalman__format__arguments_8cpp.xhtml" target="_top" xlink:title=" ">
<polygon fill="white" stroke="black" points="3987,-6 3987,-36 4140,-36 4140,-6 3987,-6"/>
<text text-anchor="start" x="3995" y="-24" font-family="Helvetica,sans-Serif" font-size="10.00">/github/workspace/test</text>
<text text-anchor="middle" x="4063.5" y="-13" font-family="Helvetica,sans-Serif" font-size="10.00">/kalman_format_arguments.cpp</text>
</a>
</g>
</g>
<!-- Node5&#45;&gt;Node31 -->
<g id="edge32" class="edge">
<title>Node5&#45;&gt;Node31</title>
<path fill="none" stroke="midnightblue" d="M2603.87,-91.8C2861.8,-89.1 3708.01,-77.69 3977.5,-42 3988.14,-40.59 3999.39,-38.46 4010.12,-36.1"/>
<polygon fill="midnightblue" stroke="midnightblue" points="2603.82,-88.3 2593.85,-91.9 2603.89,-95.3 2603.82,-88.3"/>
</g>
<!-- Node32 -->
<g id="node32" class="node">
<title>Node32</title>
<g id="a_node32"><a xlink:href="kalman__format__float__1x1x1_8cpp.xhtml" target="_top" xlink:title=" ">
<polygon fill="white" stroke="black" points="4158,-6 4158,-36 4313,-36 4313,-6 4158,-6"/>
<text text-anchor="start" x="4166" y="-24" font-family="Helvetica,sans-Serif" font-size="10.00">/github/workspace/test</text>
<text text-anchor="middle" x="4235.5" y="-13" font-family="Helvetica,sans-Serif" font-size="10.00">/kalman_format_float_1x1x1.cpp</text>
</a>
</g>
</g>
<!-- Node5&#45;&gt;Node32 -->
<g id="edge33" class="edge">
<title>Node5&#45;&gt;Node32</title>
<path fill="none" stroke="midnightblue" d="M2604.19,-92.12C2881.96,-90.43 3844.91,-81.77 4149.5,-42 4160.29,-40.59 4171.71,-38.43 4182.58,-36.03"/>
<polygon fill="midnightblue" stroke="midnightblue" points="2603.79,-88.63 2593.81,-92.18 2603.84,-95.63 2603.79,-88.63"/>
</g>
<!-- Node33 -->
<g id="node33" class="node">
<title>Node33</title>
<g id="a_node33"><a xlink:href="kalman__h_8cpp.xhtml" target="_top" xlink:title=" ">
<polygon fill="white" stroke="black" points="4331.5,-6 4331.5,-36 4447.5,-36 4447.5,-6 4331.5,-6"/>
<text text-anchor="start" x="4339.5" y="-24" font-family="Helvetica,sans-Serif" font-size="10.00">/github/workspace/test</text>
<text text-anchor="middle" x="4389.5" y="-13" font-family="Helvetica,sans-Serif" font-size="10.00">/kalman_h.cpp</text>
</a>
</g>
</g>
<!-- Node5&#45;&gt;Node33 -->
<g id="edge34" class="edge">
<title>Node5&#45;&gt;Node33</title>
<path fill="none" stroke="midnightblue" d="M2603.74,-91.54C2922.28,-87.34 4151.36,-69.46 4322.5,-42 4331.01,-40.63 4339.95,-38.49 4348.43,-36.1"/>
<polygon fill="midnightblue" stroke="midnightblue" points="2603.64,-88.04 2593.69,-91.68 2603.73,-95.04 2603.64,-88.04"/>
</g>
<!-- Node34 -->
<g id="node34" class="node">
<title>Node34</title>
<g id="a_node34"><a xlink:href="kalman__h__eigen__5x4x3_8cpp.xhtml" target="_top" xlink:title=" ">
<polygon fill="white" stroke="black" points="4465.5,-6 4465.5,-36 4603.5,-36 4603.5,-6 4465.5,-6"/>
<text text-anchor="start" x="4473.5" y="-24" font-family="Helvetica,sans-Serif" font-size="10.00">/github/workspace/test</text>
<text text-anchor="middle" x="4534.5" y="-13" font-family="Helvetica,sans-Serif" font-size="10.00">/kalman_h_eigen_5x4x3.cpp</text>
</a>
</g>
</g>
<!-- Node5&#45;&gt;Node34 -->
<g id="edge35" class="edge">
<title>Node5&#45;&gt;Node34</title>
<path fill="none" stroke="midnightblue" d="M2603.78,-91.53C2937,-87.1 4271,-67.88 4456.5,-42 4466.33,-40.63 4476.71,-38.48 4486.57,-36.09"/>
<polygon fill="midnightblue" stroke="midnightblue" points="2603.7,-88.03 2593.74,-91.66 2603.79,-95.03 2603.7,-88.03"/>
</g>
<!-- Node35&#45;&gt;Node5 -->
<g id="edge39" class="edge">
<title>Node35&#45;&gt;Node5</title>
<path fill="none" stroke="midnightblue" d="M2574.77,-207.41C2587.7,-199.67 2600.19,-189.34 2607.5,-176 2614.12,-163.92 2614.12,-157.08 2607.5,-145 2598.51,-128.58 2581.65,-116.72 2565.81,-108.64"/>
<polygon fill="midnightblue" stroke="midnightblue" points="2572.87,-204.46 2565.81,-212.36 2576.26,-210.59 2572.87,-204.46"/>
</g>
<!-- Node36 -->
<g id="node36" class="node">
<title>Node36</title>
<g id="a_node36"><a xlink:href="format_8hpp.xhtml" target="_top" xlink:title=" ">
<polygon fill="white" stroke="black" points="2458.5,-145.5 2458.5,-175.5 2598.5,-175.5 2598.5,-145.5 2458.5,-145.5"/>
<text text-anchor="start" x="2466.5" y="-163.5" font-family="Helvetica,sans-Serif" font-size="10.00">/github/workspace/include</text>
<text text-anchor="middle" x="2528.5" y="-152.5" font-family="Helvetica,sans-Serif" font-size="10.00">/fcarouge/internal/format.hpp</text>
</a>
</g>
</g>
<!-- Node35&#45;&gt;Node36 -->
<g id="edge37" class="edge">
<title>Node35&#45;&gt;Node36</title>
<path fill="none" stroke="midnightblue" d="M2528.5,-202.11C2528.5,-193.15 2528.5,-183.32 2528.5,-175.58"/>
<polygon fill="midnightblue" stroke="midnightblue" points="2525,-202.4 2528.5,-212.4 2532,-202.4 2525,-202.4"/>
</g>
<!-- Node36&#45;&gt;Node5 -->
<g id="edge38" class="edge">
<title>Node36&#45;&gt;Node5</title>
<path fill="none" stroke="midnightblue" d="M2528.5,-135.11C2528.5,-126.15 2528.5,-116.32 2528.5,-108.58"/>
<polygon fill="midnightblue" stroke="midnightblue" points="2525,-135.4 2528.5,-145.4 2532,-135.4 2525,-135.4"/>
</g>
</g>
</svg>
