<?xml version="1.0" encoding="UTF-8" standalone="no"?>
<!DOCTYPE svg PUBLIC "-//W3C//DTD SVG 1.1//EN"
 "http://www.w3.org/Graphics/SVG/1.1/DTD/svg11.dtd">
<!-- Generated by graphviz version 3.0.0 (20221109.1736)
 -->
<!-- Title: /github/workspace/include/fcarouge/internal/utility.hpp Pages: 1 -->
<!--zoomable 318 -->
<svg id="main" version="1.1" xmlns="http://www.w3.org/2000/svg" xmlns:xlink="http://www.w3.org/1999/xlink" xml:space="preserve" onload="init(evt)">
<style type="text/css"><![CDATA[
.edge:hover path { stroke: red; }
.edge:hover polygon { stroke: red; fill: red; }
]]></style>
<script type="text/javascript"><![CDATA[
var edges = document.getElementsByTagName('g');
if (edges && edges.length) {
  for (var i=0;i<edges.length;i++) {
    if (edges[i].id.substr(0,4)=='edge') {
      edges[i].setAttribute('class','edge');
    }
  }
}
]]></script>
        <defs>
                <circle id="rim" cx="0" cy="0" r="7"/>
                <circle id="rim2" cx="0" cy="0" r="3.5"/>
                <g id="zoomPlus">
                        <use xlink:href="#rim" fill="#404040">
                                <set attributeName="fill" to="#808080" begin="zoomplus.mouseover" end="zoomplus.mouseout"/>
                        </use>
                        <path d="M-4,0h8M0,-4v8" fill="none" stroke="white" stroke-width="1.5" pointer-events="none"/>
                </g>
                <g id="zoomMin">
                        <use xlink:href="#rim" fill="#404040">
                                <set attributeName="fill" to="#808080" begin="zoomminus.mouseover" end="zoomminus.mouseout"/>
                        </use>
                        <path d="M-4,0h8" fill="none" stroke="white" stroke-width="1.5" pointer-events="none"/>
                </g>
                <g id="dirArrow">
                        <path fill="none" stroke="white" stroke-width="1.5" d="M0,-3.0v7 M-2.5,-0.5L0,-3.0L2.5,-0.5"/>
                </g>
               <g id="resetDef">
                       <use xlink:href="#rim2" fill="#404040">
                               <set attributeName="fill" to="#808080" begin="reset.mouseover" end="reset.mouseout"/>
                       </use>
               </g>
        </defs>

<script type="text/javascript">
var viewWidth = 4742;
var viewHeight = 318;
var sectionId = 'dynsection-1';
</script>
<script xlink:href="svgpan.js"/>
<svg id="graph" class="graph">
<g id="viewport">
<title>/github/workspace/include/fcarouge/internal/utility.hpp</title>
<polygon fill="white" stroke="transparent" points="-4,4 -4,-314 4738,-314 4738,4 -4,4"/>
<!-- Node1 -->
<g id="node1" class="node">
<title>Node1</title>
<g id="a_node1"><a xlink:title=" ">
<polygon fill="#bfbfbf" stroke="black" points="2334,-279.5 2334,-309.5 2469,-309.5 2469,-279.5 2334,-279.5"/>
<text text-anchor="start" x="2342" y="-297.5" font-family="Helvetica,sans-Serif" font-size="10.00">/github/workspace/include</text>
<text text-anchor="middle" x="2401.5" y="-286.5" font-family="Helvetica,sans-Serif" font-size="10.00">/fcarouge/internal/utility.hpp</text>
</a>
</g>
</g>
<!-- Node2 -->
<g id="node2" class="node">
<title>Node2</title>
<g id="a_node2"><a xlink:href="eigen__predict__x1x_8cpp.xhtml" target="_top" xlink:title=" ">
<polygon fill="white" stroke="black" points="0,-6 0,-36 147,-36 147,-6 0,-6"/>
<text text-anchor="start" x="8" y="-24" font-family="Helvetica,sans-Serif" font-size="10.00">/github/workspace/benchmark</text>
<text text-anchor="middle" x="73.5" y="-13" font-family="Helvetica,sans-Serif" font-size="10.00">/eigen_predict_x1x.cpp</text>
</a>
</g>
</g>
<!-- Node1&#45;&gt;Node2 -->
<g id="edge1" class="edge">
<title>Node1&#45;&gt;Node2</title>
<path fill="none" stroke="midnightblue" d="M2323.62,-288.4C2034.77,-268.72 997.96,-191.28 155.5,-42 146.12,-40.34 136.22,-38.23 126.66,-36.01"/>
<polygon fill="midnightblue" stroke="midnightblue" points="2323.77,-291.92 2333.99,-289.1 2324.25,-284.93 2323.77,-291.92"/>
</g>
<!-- Node3 -->
<g id="node3" class="node">
<title>Node3</title>
<g id="a_node3"><a xlink:href="eigen__update__xx0_8cpp.xhtml" target="_top" xlink:title=" ">
<polygon fill="white" stroke="black" points="4587,-6 4587,-36 4734,-36 4734,-6 4587,-6"/>
<text text-anchor="start" x="4595" y="-24" font-family="Helvetica,sans-Serif" font-size="10.00">/github/workspace/benchmark</text>
<text text-anchor="middle" x="4660.5" y="-13" font-family="Helvetica,sans-Serif" font-size="10.00">/eigen_update_xx0.cpp</text>
</a>
</g>
</g>
<!-- Node1&#45;&gt;Node3 -->
<g id="edge2" class="edge">
<title>Node1&#45;&gt;Node3</title>
<path fill="none" stroke="midnightblue" d="M2479.38,-288.02C2762.63,-267.35 3764.17,-187.77 4578.5,-42 4587.73,-40.35 4597.47,-38.27 4606.89,-36.09"/>
<polygon fill="midnightblue" stroke="midnightblue" points="2478.93,-284.55 2469.21,-288.76 2479.43,-291.53 2478.93,-284.55"/>
</g>
<!-- Node4 -->
<g id="node4" class="node">
<title>Node4</title>
<g id="a_node4"><a xlink:href="utility_8hpp.xhtml" target="_top" xlink:title="The collection of utilities supporting the library.">
<polygon fill="white" stroke="black" points="2336.5,-212.5 2336.5,-242.5 2466.5,-242.5 2466.5,-212.5 2336.5,-212.5"/>
<text text-anchor="start" x="2344.5" y="-230.5" font-family="Helvetica,sans-Serif" font-size="10.00">/github/workspace/include</text>
<text text-anchor="middle" x="2401.5" y="-219.5" font-family="Helvetica,sans-Serif" font-size="10.00">/fcarouge/utility.hpp</text>
</a>
</g>
</g>
<!-- Node1&#45;&gt;Node4 -->
<g id="edge3" class="edge">
<title>Node1&#45;&gt;Node4</title>
<path fill="none" stroke="midnightblue" d="M2401.5,-269.11C2401.5,-260.15 2401.5,-250.32 2401.5,-242.58"/>
<polygon fill="midnightblue" stroke="midnightblue" points="2398,-269.4 2401.5,-279.4 2405,-269.4 2398,-269.4"/>
</g>
<!-- Node5 -->
<g id="node5" class="node">
<title>Node5</title>
<g id="a_node5"><a xlink:href="format_8hpp.xhtml" target="_top" xlink:title=" ">
<polygon fill="white" stroke="black" points="2429.5,-145.5 2429.5,-175.5 2569.5,-175.5 2569.5,-145.5 2429.5,-145.5"/>
<text text-anchor="start" x="2437.5" y="-163.5" font-family="Helvetica,sans-Serif" font-size="10.00">/github/workspace/include</text>
<text text-anchor="middle" x="2499.5" y="-152.5" font-family="Helvetica,sans-Serif" font-size="10.00">/fcarouge/internal/format.hpp</text>
</a>
</g>
</g>
<!-- Node4&#45;&gt;Node5 -->
<g id="edge4" class="edge">
<title>Node4&#45;&gt;Node5</title>
<path fill="none" stroke="midnightblue" d="M2431.3,-206.73C2446.47,-196.68 2464.54,-184.68 2478.28,-175.58"/>
<polygon fill="midnightblue" stroke="midnightblue" points="2429.16,-203.95 2422.76,-212.4 2433.03,-209.79 2429.16,-203.95"/>
</g>
<!-- Node6 -->
<g id="node6" class="node">
<title>Node6</title>
<g id="a_node6"><a xlink:href="kalman_8hpp.xhtml" target="_top" xlink:title="The Kalman filter class and library top&#45;level header.">
<polygon fill="white" stroke="black" points="2336.5,-78.5 2336.5,-108.5 2466.5,-108.5 2466.5,-78.5 2336.5,-78.5"/>
<text text-anchor="start" x="2344.5" y="-96.5" font-family="Helvetica,sans-Serif" font-size="10.00">/github/workspace/include</text>
<text text-anchor="middle" x="2401.5" y="-85.5" font-family="Helvetica,sans-Serif" font-size="10.00">/fcarouge/kalman.hpp</text>
</a>
</g>
</g>
<!-- Node4&#45;&gt;Node6 -->
<g id="edge38" class="edge">
<title>Node4&#45;&gt;Node6</title>
<path fill="none" stroke="midnightblue" d="M2401.5,-202.02C2401.5,-174.51 2401.5,-130.79 2401.5,-108.52"/>
<polygon fill="midnightblue" stroke="midnightblue" points="2398,-202.37 2401.5,-212.37 2405,-202.37 2398,-202.37"/>
</g>
<!-- Node35 -->
<g id="node35" class="node">
<title>Node35</title>
<g id="a_node35"><a xlink:href="internal_2kalman_8hpp.xhtml" target="_top" xlink:title=" ">
<polygon fill="white" stroke="black" points="2229.5,-145.5 2229.5,-175.5 2373.5,-175.5 2373.5,-145.5 2229.5,-145.5"/>
<text text-anchor="start" x="2237.5" y="-163.5" font-family="Helvetica,sans-Serif" font-size="10.00">/github/workspace/include</text>
<text text-anchor="middle" x="2301.5" y="-152.5" font-family="Helvetica,sans-Serif" font-size="10.00">/fcarouge/internal/kalman.hpp</text>
</a>
</g>
</g>
<!-- Node4&#45;&gt;Node35 -->
<g id="edge36" class="edge">
<title>Node4&#45;&gt;Node35</title>
<path fill="none" stroke="midnightblue" d="M2371.09,-206.73C2355.62,-196.68 2337.17,-184.68 2323.16,-175.58"/>
<polygon fill="midnightblue" stroke="midnightblue" points="2369.51,-209.88 2379.8,-212.4 2373.32,-204.01 2369.51,-209.88"/>
</g>
<!-- Node5&#45;&gt;Node6 -->
<g id="edge5" class="edge">
<title>Node5&#45;&gt;Node6</title>
<path fill="none" stroke="midnightblue" d="M2469.7,-139.73C2454.53,-129.68 2436.46,-117.68 2422.72,-108.58"/>
<polygon fill="midnightblue" stroke="midnightblue" points="2467.97,-142.79 2478.24,-145.4 2471.84,-136.95 2467.97,-142.79"/>
</g>
<!-- Node6&#45;&gt;Node2 -->
<g id="edge6" class="edge">
<title>Node6&#45;&gt;Node2</title>
<path fill="none" stroke="midnightblue" d="M2326.17,-91.78C1959.96,-88.13 374.18,-70.78 155.5,-42 145.04,-40.62 133.98,-38.44 123.48,-36.01"/>
<polygon fill="midnightblue" stroke="midnightblue" points="2326.36,-95.28 2336.4,-91.88 2326.43,-88.28 2326.36,-95.28"/>
</g>
<!-- Node6&#45;&gt;Node3 -->
<g id="edge7" class="edge">
<title>Node6&#45;&gt;Node3</title>
<path fill="none" stroke="midnightblue" d="M2476.56,-91.72C2835.37,-87.87 4366.95,-69.92 4578.5,-42 4588.96,-40.62 4600.02,-38.43 4610.52,-36"/>
<polygon fill="midnightblue" stroke="midnightblue" points="2476.51,-88.22 2466.54,-91.83 2476.58,-95.22 2476.51,-88.22"/>
</g>
<!-- Node7 -->
<g id="node7" class="node">
<title>Node7</title>
<g id="a_node7"><a xlink:href="predict__1x1x0_8cpp.xhtml" target="_top" xlink:title=" ">
<polygon fill="white" stroke="black" points="4422,-6 4422,-36 4569,-36 4569,-6 4422,-6"/>
<text text-anchor="start" x="4430" y="-24" font-family="Helvetica,sans-Serif" font-size="10.00">/github/workspace/benchmark</text>
<text text-anchor="middle" x="4495.5" y="-13" font-family="Helvetica,sans-Serif" font-size="10.00">/predict_1x1x0.cpp</text>
</a>
</g>
</g>
<!-- Node6&#45;&gt;Node7 -->
<g id="edge8" class="edge">
<title>Node6&#45;&gt;Node7</title>
<path fill="none" stroke="midnightblue" d="M2476.61,-91.55C2818.37,-87.12 4218.18,-67.56 4412.5,-42 4422.93,-40.63 4433.96,-38.48 4444.46,-36.09"/>
<polygon fill="midnightblue" stroke="midnightblue" points="2476.53,-88.05 2466.57,-91.68 2476.62,-95.05 2476.53,-88.05"/>
</g>
<!-- Node8 -->
<g id="node8" class="node">
<title>Node8</title>
<g id="a_node8"><a xlink:href="predict__1x1x1_8cpp.xhtml" target="_top" xlink:title=" ">
<polygon fill="white" stroke="black" points="165,-6 165,-36 312,-36 312,-6 165,-6"/>
<text text-anchor="start" x="173" y="-24" font-family="Helvetica,sans-Serif" font-size="10.00">/github/workspace/benchmark</text>
<text text-anchor="middle" x="238.5" y="-13" font-family="Helvetica,sans-Serif" font-size="10.00">/predict_1x1x1.cpp</text>
</a>
</g>
</g>
<!-- Node6&#45;&gt;Node8 -->
<g id="edge9" class="edge">
<title>Node6&#45;&gt;Node8</title>
<path fill="none" stroke="midnightblue" d="M2326.35,-91.63C1977.23,-87.48 522.05,-68.71 320.5,-42 310.19,-40.63 299.29,-38.49 288.92,-36.1"/>
<polygon fill="midnightblue" stroke="midnightblue" points="2326.32,-95.13 2336.36,-91.75 2326.4,-88.13 2326.32,-95.13"/>
</g>
<!-- Node9 -->
<g id="node9" class="node">
<title>Node9</title>
<g id="a_node9"><a xlink:href="update__1x1x0_8cpp.xhtml" target="_top" xlink:title=" ">
<polygon fill="white" stroke="black" points="330,-6 330,-36 477,-36 477,-6 330,-6"/>
<text text-anchor="start" x="338" y="-24" font-family="Helvetica,sans-Serif" font-size="10.00">/github/workspace/benchmark</text>
<text text-anchor="middle" x="403.5" y="-13" font-family="Helvetica,sans-Serif" font-size="10.00">/update_1x1x0.cpp</text>
</a>
</g>
</g>
<!-- Node6&#45;&gt;Node9 -->
<g id="edge10" class="edge">
<title>Node6&#45;&gt;Node9</title>
<path fill="none" stroke="midnightblue" d="M2325.93,-91.46C1993.54,-86.76 669.85,-66.62 485.5,-42 475.19,-40.62 464.29,-38.47 453.92,-36.08"/>
<polygon fill="midnightblue" stroke="midnightblue" points="2326.36,-94.97 2336.41,-91.61 2326.46,-87.97 2326.36,-94.97"/>
</g>
<!-- Node10 -->
<g id="node10" class="node">
<title>Node10</title>
<g id="a_node10"><a xlink:href="update__1x1x1_8cpp.xhtml" target="_top" xlink:title=" ">
<polygon fill="white" stroke="black" points="495,-6 495,-36 642,-36 642,-6 495,-6"/>
<text text-anchor="start" x="503" y="-24" font-family="Helvetica,sans-Serif" font-size="10.00">/github/workspace/benchmark</text>
<text text-anchor="middle" x="568.5" y="-13" font-family="Helvetica,sans-Serif" font-size="10.00">/update_1x1x1.cpp</text>
</a>
</g>
</g>
<!-- Node6&#45;&gt;Node10 -->
<g id="edge11" class="edge">
<title>Node6&#45;&gt;Node10</title>
<path fill="none" stroke="midnightblue" d="M2326.11,-92.44C2034.69,-91.86 981.68,-86.66 650.5,-42 640.19,-40.61 629.29,-38.45 618.92,-36.06"/>
<polygon fill="midnightblue" stroke="midnightblue" points="2326.15,-95.94 2336.15,-92.45 2326.16,-88.94 2326.15,-95.94"/>
</g>
<!-- Node11 -->
<g id="node11" class="node">
<title>Node11</title>
<g id="a_node11"><a xlink:href="ekf__4x1x0__soaring_8cpp.xhtml" target="_top" xlink:title=" ">
<polygon fill="white" stroke="black" points="660,-6 660,-36 791,-36 791,-6 660,-6"/>
<text text-anchor="start" x="668" y="-24" font-family="Helvetica,sans-Serif" font-size="10.00">/github/workspace/sample</text>
<text text-anchor="middle" x="725.5" y="-13" font-family="Helvetica,sans-Serif" font-size="10.00">/ekf_4x1x0_soaring.cpp</text>
</a>
</g>
</g>
<!-- Node6&#45;&gt;Node11 -->
<g id="edge12" class="edge">
<title>Node6&#45;&gt;Node11</title>
<path fill="none" stroke="midnightblue" d="M2325.77,-92.41C2050.05,-91.72 1100.32,-86.11 800.5,-42 791.03,-40.61 781.05,-38.45 771.56,-36.06"/>
<polygon fill="midnightblue" stroke="midnightblue" points="2326.06,-95.91 2336.07,-92.43 2326.08,-88.91 2326.06,-95.91"/>
</g>
<!-- Node12 -->
<g id="node12" class="node">
<title>Node12</title>
<g id="a_node12"><a xlink:href="kf__1x1x0__building__height_8cpp.xhtml" target="_top" xlink:title=" ">
<polygon fill="white" stroke="black" points="809.5,-6 809.5,-36 955.5,-36 955.5,-6 809.5,-6"/>
<text text-anchor="start" x="817.5" y="-24" font-family="Helvetica,sans-Serif" font-size="10.00">/github/workspace/sample</text>
<text text-anchor="middle" x="882.5" y="-13" font-family="Helvetica,sans-Serif" font-size="10.00">/kf_1x1x0_building_height.cpp</text>
</a>
</g>
</g>
<!-- Node6&#45;&gt;Node12 -->
<g id="edge13" class="edge">
<title>Node6&#45;&gt;Node12</title>
<path fill="none" stroke="midnightblue" d="M2325.92,-91.88C2069.11,-89.45 1231.27,-78.83 964.5,-42 954.19,-40.58 943.3,-38.41 932.93,-36.01"/>
<polygon fill="midnightblue" stroke="midnightblue" points="2326.23,-95.38 2336.26,-91.98 2326.29,-88.38 2326.23,-95.38"/>
</g>
<!-- Node13 -->
<g id="node13" class="node">
<title>Node13</title>
<g id="a_node13"><a xlink:href="kf__1x1x0__liquid__temperature_8cpp.xhtml" target="_top" xlink:title=" ">
<polygon fill="white" stroke="black" points="974,-6 974,-36 1135,-36 1135,-6 974,-6"/>
<text text-anchor="start" x="982" y="-24" font-family="Helvetica,sans-Serif" font-size="10.00">/github/workspace/sample</text>
<text text-anchor="middle" x="1054.5" y="-13" font-family="Helvetica,sans-Serif" font-size="10.00">/kf_1x1x0_liquid_temperature.cpp</text>
</a>
</g>
</g>
<!-- Node6&#45;&gt;Node13 -->
<g id="edge14" class="edge">
<title>Node6&#45;&gt;Node13</title>
<path fill="none" stroke="midnightblue" d="M2326,-91.24C2091.07,-87.02 1374.98,-71.99 1144.5,-42 1133.39,-40.55 1121.63,-38.4 1110.4,-36.04"/>
<polygon fill="midnightblue" stroke="midnightblue" points="2326.1,-94.74 2336.16,-91.42 2326.22,-87.74 2326.1,-94.74"/>
</g>
<!-- Node14 -->
<g id="node14" class="node">
<title>Node14</title>
<g id="a_node14"><a xlink:href="kf__1x1x1__dog__position_8cpp.xhtml" target="_top" xlink:title=" ">
<polygon fill="white" stroke="black" points="1153.5,-6 1153.5,-36 1289.5,-36 1289.5,-6 1153.5,-6"/>
<text text-anchor="start" x="1161.5" y="-24" font-family="Helvetica,sans-Serif" font-size="10.00">/github/workspace/sample</text>
<text text-anchor="middle" x="1221.5" y="-13" font-family="Helvetica,sans-Serif" font-size="10.00">/kf_1x1x1_dog_position.cpp</text>
</a>
</g>
</g>
<!-- Node6&#45;&gt;Node14 -->
<g id="edge15" class="edge">
<title>Node6&#45;&gt;Node14</title>
<path fill="none" stroke="midnightblue" d="M2326.17,-91.1C2111.16,-86.76 1497.34,-72.04 1298.5,-42 1288.94,-40.56 1278.85,-38.41 1269.24,-36.04"/>
<polygon fill="midnightblue" stroke="midnightblue" points="2326.34,-94.6 2336.4,-91.3 2326.48,-87.6 2326.34,-94.6"/>
</g>
<!-- Node15 -->
<g id="node15" class="node">
<title>Node15</title>
<g id="a_node15"><a xlink:href="kf__2x1x1__rocket__altitude_8cpp.xhtml" target="_top" xlink:title=" ">
<polygon fill="white" stroke="black" points="1308,-6 1308,-36 1453,-36 1453,-6 1308,-6"/>
<text text-anchor="start" x="1316" y="-24" font-family="Helvetica,sans-Serif" font-size="10.00">/github/workspace/sample</text>
<text text-anchor="middle" x="1380.5" y="-13" font-family="Helvetica,sans-Serif" font-size="10.00">/kf_2x1x1_rocket_altitude.cpp</text>
</a>
</g>
</g>
<!-- Node6&#45;&gt;Node15 -->
<g id="edge16" class="edge">
<title>Node6&#45;&gt;Node15</title>
<path fill="none" stroke="midnightblue" d="M2326.19,-93.25C2166.08,-93.78 1780.42,-89.51 1461.5,-42 1451.61,-40.53 1441.17,-38.4 1431.19,-36.07"/>
<polygon fill="midnightblue" stroke="midnightblue" points="2326.42,-96.74 2336.4,-93.2 2326.39,-89.74 2326.42,-96.74"/>
</g>
<!-- Node16 -->
<g id="node16" class="node">
<title>Node16</title>
<g id="a_node16"><a xlink:href="kf__6x2x0__vehicle__location_8cpp.xhtml" target="_top" xlink:title=" ">
<polygon fill="white" stroke="black" points="1471,-6 1471,-36 1622,-36 1622,-6 1471,-6"/>
<text text-anchor="start" x="1479" y="-24" font-family="Helvetica,sans-Serif" font-size="10.00">/github/workspace/sample</text>
<text text-anchor="middle" x="1546.5" y="-13" font-family="Helvetica,sans-Serif" font-size="10.00">/kf_6x2x0_vehicle_location.cpp</text>
</a>
</g>
</g>
<!-- Node6&#45;&gt;Node16 -->
<g id="edge17" class="edge">
<title>Node6&#45;&gt;Node16</title>
<path fill="none" stroke="midnightblue" d="M2326.4,-91.69C2188.16,-89.29 1884.37,-79.78 1631.5,-42 1621.3,-40.48 1610.53,-38.35 1600.2,-36.05"/>
<polygon fill="midnightblue" stroke="midnightblue" points="2326.41,-95.19 2336.47,-91.86 2326.53,-88.19 2326.41,-95.19"/>
</g>
<!-- Node17 -->
<g id="node17" class="node">
<title>Node17</title>
<g id="a_node17"><a xlink:href="kf__8x4x0__deep__sort__bounding__box_8cpp.xhtml" target="_top" xlink:title=" ">
<polygon fill="white" stroke="black" points="1640.5,-0.5 1640.5,-41.5 1790.5,-41.5 1790.5,-0.5 1640.5,-0.5"/>
<text text-anchor="start" x="1648.5" y="-29.5" font-family="Helvetica,sans-Serif" font-size="10.00">/github/workspace/sample</text>
<text text-anchor="start" x="1648.5" y="-18.5" font-family="Helvetica,sans-Serif" font-size="10.00">/kf_8x4x0_deep_sort_bounding</text>
<text text-anchor="middle" x="1715.5" y="-7.5" font-family="Helvetica,sans-Serif" font-size="10.00">_box.cpp</text>
</a>
</g>
</g>
<!-- Node6&#45;&gt;Node17 -->
<g id="edge18" class="edge">
<title>Node6&#45;&gt;Node17</title>
<path fill="none" stroke="midnightblue" d="M2326.02,-89.8C2211.56,-84.9 1987.49,-72.09 1799.5,-42 1796.69,-41.55 1793.83,-41.06 1790.95,-40.53"/>
<polygon fill="midnightblue" stroke="midnightblue" points="2325.94,-93.3 2336.08,-90.23 2326.24,-86.31 2325.94,-93.3"/>
</g>
<!-- Node18 -->
<g id="node18" class="node">
<title>Node18</title>
<g id="a_node18"><a xlink:href="eigen__f_8cpp.xhtml" target="_top" xlink:title=" ">
<polygon fill="white" stroke="black" points="1808.5,-6 1808.5,-36 1924.5,-36 1924.5,-6 1808.5,-6"/>
<text text-anchor="start" x="1816.5" y="-24" font-family="Helvetica,sans-Serif" font-size="10.00">/github/workspace/test</text>
<text text-anchor="middle" x="1866.5" y="-13" font-family="Helvetica,sans-Serif" font-size="10.00">/eigen_f.cpp</text>
</a>
</g>
</g>
<!-- Node6&#45;&gt;Node18 -->
<g id="edge19" class="edge">
<title>Node6&#45;&gt;Node18</title>
<path fill="none" stroke="midnightblue" d="M2326.03,-88.61C2232.99,-82.83 2070.37,-69.57 1933.5,-42 1925.65,-40.42 1917.39,-38.32 1909.46,-36.08"/>
<polygon fill="midnightblue" stroke="midnightblue" points="2326.01,-92.11 2336.2,-89.22 2326.43,-85.12 2326.01,-92.11"/>
</g>
<!-- Node19 -->
<g id="node19" class="node">
<title>Node19</title>
<g id="a_node19"><a xlink:href="eigen__h_8cpp.xhtml" target="_top" xlink:title=" ">
<polygon fill="white" stroke="black" points="1942.5,-6 1942.5,-36 2058.5,-36 2058.5,-6 1942.5,-6"/>
<text text-anchor="start" x="1950.5" y="-24" font-family="Helvetica,sans-Serif" font-size="10.00">/github/workspace/test</text>
<text text-anchor="middle" x="2000.5" y="-13" font-family="Helvetica,sans-Serif" font-size="10.00">/eigen_h.cpp</text>
</a>
</g>
</g>
<!-- Node6&#45;&gt;Node19 -->
<g id="edge20" class="edge">
<title>Node6&#45;&gt;Node19</title>
<path fill="none" stroke="midnightblue" d="M2326.15,-84.17C2258.08,-75.91 2155.41,-61.67 2067.5,-42 2059.92,-40.3 2051.94,-38.21 2044.24,-36.01"/>
<polygon fill="midnightblue" stroke="midnightblue" points="2326,-87.67 2336.35,-85.39 2326.84,-80.72 2326,-87.67"/>
</g>
<!-- Node20 -->
<g id="node20" class="node">
<title>Node20</title>
<g id="a_node20"><a xlink:href="kalman__constructor__default_8cpp.xhtml" target="_top" xlink:title=" ">
<polygon fill="white" stroke="black" points="2076.5,-6 2076.5,-36 2234.5,-36 2234.5,-6 2076.5,-6"/>
<text text-anchor="start" x="2084.5" y="-24" font-family="Helvetica,sans-Serif" font-size="10.00">/github/workspace/test</text>
<text text-anchor="middle" x="2155.5" y="-13" font-family="Helvetica,sans-Serif" font-size="10.00">/kalman_constructor_default.cpp</text>
</a>
</g>
</g>
<!-- Node6&#45;&gt;Node20 -->
<g id="edge21" class="edge">
<title>Node6&#45;&gt;Node20</title>
<path fill="none" stroke="midnightblue" d="M2342.76,-75.66C2300.63,-63.59 2244.51,-47.51 2204.72,-36.11"/>
<polygon fill="midnightblue" stroke="midnightblue" points="2342.03,-79.1 2352.6,-78.49 2343.96,-72.37 2342.03,-79.1"/>
</g>
<!-- Node21 -->
<g id="node21" class="node">
<title>Node21</title>
<g id="a_node21"><a xlink:href="kalman__constructor__default__eigen__1x1x3_8cpp.xhtml" target="_top" xlink:title=" ">
<polygon fill="white" stroke="black" points="2252.5,-0.5 2252.5,-41.5 2392.5,-41.5 2392.5,-0.5 2252.5,-0.5"/>
<text text-anchor="start" x="2260.5" y="-29.5" font-family="Helvetica,sans-Serif" font-size="10.00">/github/workspace/test</text>
<text text-anchor="start" x="2260.5" y="-18.5" font-family="Helvetica,sans-Serif" font-size="10.00">/kalman_constructor_default</text>
<text text-anchor="middle" x="2322.5" y="-7.5" font-family="Helvetica,sans-Serif" font-size="10.00">_eigen_1x1x3.cpp</text>
</a>
</g>
</g>
<!-- Node6&#45;&gt;Node21 -->
<g id="edge22" class="edge">
<title>Node6&#45;&gt;Node21</title>
<path fill="none" stroke="midnightblue" d="M2377.83,-71.38C2367.24,-61.93 2354.83,-50.85 2344.45,-41.59"/>
<polygon fill="midnightblue" stroke="midnightblue" points="2375.72,-74.19 2385.51,-78.23 2380.38,-68.96 2375.72,-74.19"/>
</g>
<!-- Node22 -->
<g id="node22" class="node">
<title>Node22</title>
<g id="a_node22"><a xlink:href="kalman__constructor__default__eigen__1x4x1_8cpp.xhtml" target="_top" xlink:title=" ">
<polygon fill="white" stroke="black" points="2410.5,-0.5 2410.5,-41.5 2550.5,-41.5 2550.5,-0.5 2410.5,-0.5"/>
<text text-anchor="start" x="2418.5" y="-29.5" font-family="Helvetica,sans-Serif" font-size="10.00">/github/workspace/test</text>
<text text-anchor="start" x="2418.5" y="-18.5" font-family="Helvetica,sans-Serif" font-size="10.00">/kalman_constructor_default</text>
<text text-anchor="middle" x="2480.5" y="-7.5" font-family="Helvetica,sans-Serif" font-size="10.00">_eigen_1x4x1.cpp</text>
</a>
</g>
</g>
<!-- Node6&#45;&gt;Node22 -->
<g id="edge23" class="edge">
<title>Node6&#45;&gt;Node22</title>
<path fill="none" stroke="midnightblue" d="M2425.17,-71.38C2435.76,-61.93 2448.17,-50.85 2458.55,-41.59"/>
<polygon fill="midnightblue" stroke="midnightblue" points="2422.62,-68.96 2417.49,-78.23 2427.28,-74.19 2422.62,-68.96"/>
</g>
<!-- Node23 -->
<g id="node23" class="node">
<title>Node23</title>
<g id="a_node23"><a xlink:href="kalman__constructor__default__eigen__1x4x3_8cpp.xhtml" target="_top" xlink:title=" ">
<polygon fill="white" stroke="black" points="2568.5,-0.5 2568.5,-41.5 2708.5,-41.5 2708.5,-0.5 2568.5,-0.5"/>
<text text-anchor="start" x="2576.5" y="-29.5" font-family="Helvetica,sans-Serif" font-size="10.00">/github/workspace/test</text>
<text text-anchor="start" x="2576.5" y="-18.5" font-family="Helvetica,sans-Serif" font-size="10.00">/kalman_constructor_default</text>
<text text-anchor="middle" x="2638.5" y="-7.5" font-family="Helvetica,sans-Serif" font-size="10.00">_eigen_1x4x3.cpp</text>
</a>
</g>
</g>
<!-- Node6&#45;&gt;Node23 -->
<g id="edge24" class="edge">
<title>Node6&#45;&gt;Node23</title>
<path fill="none" stroke="midnightblue" d="M2458.49,-75.55C2492.86,-65.32 2536.78,-52.26 2572.64,-41.59"/>
<polygon fill="midnightblue" stroke="midnightblue" points="2457.19,-72.28 2448.61,-78.49 2459.19,-78.99 2457.19,-72.28"/>
</g>
<!-- Node24 -->
<g id="node24" class="node">
<title>Node24</title>
<g id="a_node24"><a xlink:href="kalman__constructor__default__eigen__5x1x1_8cpp.xhtml" target="_top" xlink:title=" ">
<polygon fill="white" stroke="black" points="2726.5,-0.5 2726.5,-41.5 2866.5,-41.5 2866.5,-0.5 2726.5,-0.5"/>
<text text-anchor="start" x="2734.5" y="-29.5" font-family="Helvetica,sans-Serif" font-size="10.00">/github/workspace/test</text>
<text text-anchor="start" x="2734.5" y="-18.5" font-family="Helvetica,sans-Serif" font-size="10.00">/kalman_constructor_default</text>
<text text-anchor="middle" x="2796.5" y="-7.5" font-family="Helvetica,sans-Serif" font-size="10.00">_eigen_5x1x1.cpp</text>
</a>
</g>
</g>
<!-- Node6&#45;&gt;Node24 -->
<g id="edge25" class="edge">
<title>Node6&#45;&gt;Node24</title>
<path fill="none" stroke="midnightblue" d="M2476.61,-82.43C2540.85,-73.35 2635.63,-58.87 2717.5,-42 2720.41,-41.4 2723.37,-40.76 2726.36,-40.1"/>
<polygon fill="midnightblue" stroke="midnightblue" points="2475.98,-78.98 2466.57,-83.84 2476.95,-85.91 2475.98,-78.98"/>
</g>
<!-- Node25 -->
<g id="node25" class="node">
<title>Node25</title>
<g id="a_node25"><a xlink:href="kalman__constructor__default__eigen__5x1x3_8cpp.xhtml" target="_top" xlink:title=" ">
<polygon fill="white" stroke="black" points="2884.5,-0.5 2884.5,-41.5 3024.5,-41.5 3024.5,-0.5 2884.5,-0.5"/>
<text text-anchor="start" x="2892.5" y="-29.5" font-family="Helvetica,sans-Serif" font-size="10.00">/github/workspace/test</text>
<text text-anchor="start" x="2892.5" y="-18.5" font-family="Helvetica,sans-Serif" font-size="10.00">/kalman_constructor_default</text>
<text text-anchor="middle" x="2954.5" y="-7.5" font-family="Helvetica,sans-Serif" font-size="10.00">_eigen_5x1x3.cpp</text>
</a>
</g>
</g>
<!-- Node6&#45;&gt;Node25 -->
<g id="edge26" class="edge">
<title>Node6&#45;&gt;Node25</title>
<path fill="none" stroke="midnightblue" d="M2476.96,-87.78C2570.87,-81.14 2735.93,-66.97 2875.5,-42 2878.42,-41.48 2881.4,-40.9 2884.4,-40.3"/>
<polygon fill="midnightblue" stroke="midnightblue" points="2476.43,-84.3 2466.7,-88.49 2476.92,-91.29 2476.43,-84.3"/>
</g>
<!-- Node26 -->
<g id="node26" class="node">
<title>Node26</title>
<g id="a_node26"><a xlink:href="kalman__constructor__default__eigen__5x4x0_8cpp.xhtml" target="_top" xlink:title=" ">
<polygon fill="white" stroke="black" points="3042.5,-0.5 3042.5,-41.5 3182.5,-41.5 3182.5,-0.5 3042.5,-0.5"/>
<text text-anchor="start" x="3050.5" y="-29.5" font-family="Helvetica,sans-Serif" font-size="10.00">/github/workspace/test</text>
<text text-anchor="start" x="3050.5" y="-18.5" font-family="Helvetica,sans-Serif" font-size="10.00">/kalman_constructor_default</text>
<text text-anchor="middle" x="3112.5" y="-7.5" font-family="Helvetica,sans-Serif" font-size="10.00">_eigen_5x4x0.cpp</text>
</a>
</g>
</g>
<!-- Node6&#45;&gt;Node26 -->
<g id="edge27" class="edge">
<title>Node6&#45;&gt;Node26</title>
<path fill="none" stroke="midnightblue" d="M2476.62,-90.58C2595.53,-86.63 2834.06,-74.97 3033.5,-42 3036.43,-41.52 3039.41,-40.98 3042.42,-40.39"/>
<polygon fill="midnightblue" stroke="midnightblue" points="2476.41,-87.08 2466.53,-90.91 2476.64,-94.08 2476.41,-87.08"/>
</g>
<!-- Node27 -->
<g id="node27" class="node">
<title>Node27</title>
<g id="a_node27"><a xlink:href="kalman__constructor__default__eigen__5x4x1_8cpp.xhtml" target="_top" xlink:title=" ">
<polygon fill="white" stroke="black" points="3200.5,-0.5 3200.5,-41.5 3340.5,-41.5 3340.5,-0.5 3200.5,-0.5"/>
<text text-anchor="start" x="3208.5" y="-29.5" font-family="Helvetica,sans-Serif" font-size="10.00">/github/workspace/test</text>
<text text-anchor="start" x="3208.5" y="-18.5" font-family="Helvetica,sans-Serif" font-size="10.00">/kalman_constructor_default</text>
<text text-anchor="middle" x="3270.5" y="-7.5" font-family="Helvetica,sans-Serif" font-size="10.00">_eigen_5x4x1.cpp</text>
</a>
</g>
</g>
<!-- Node6&#45;&gt;Node27 -->
<g id="edge28" class="edge">
<title>Node6&#45;&gt;Node27</title>
<path fill="none" stroke="midnightblue" d="M2476.99,-92.28C2618.16,-90.86 2931.4,-82.88 3191.5,-42 3194.44,-41.54 3197.42,-41.02 3200.43,-40.45"/>
<polygon fill="midnightblue" stroke="midnightblue" points="2476.68,-88.78 2466.71,-92.38 2476.75,-95.78 2476.68,-88.78"/>
</g>
<!-- Node28 -->
<g id="node28" class="node">
<title>Node28</title>
<g id="a_node28"><a xlink:href="kalman__constructor__default__eigen__5x4x3_8cpp.xhtml" target="_top" xlink:title=" ">
<polygon fill="white" stroke="black" points="3358.5,-0.5 3358.5,-41.5 3498.5,-41.5 3498.5,-0.5 3358.5,-0.5"/>
<text text-anchor="start" x="3366.5" y="-29.5" font-family="Helvetica,sans-Serif" font-size="10.00">/github/workspace/test</text>
<text text-anchor="start" x="3366.5" y="-18.5" font-family="Helvetica,sans-Serif" font-size="10.00">/kalman_constructor_default</text>
<text text-anchor="middle" x="3428.5" y="-7.5" font-family="Helvetica,sans-Serif" font-size="10.00">_eigen_5x4x3.cpp</text>
</a>
</g>
</g>
<!-- Node6&#45;&gt;Node28 -->
<g id="edge29" class="edge">
<title>Node6&#45;&gt;Node28</title>
<path fill="none" stroke="midnightblue" d="M2476.82,-90.38C2670.38,-84.64 3181.71,-67.46 3349.5,-42 3352.44,-41.55 3355.42,-41.05 3358.43,-40.49"/>
<polygon fill="midnightblue" stroke="midnightblue" points="2476.64,-86.89 2466.74,-90.68 2476.84,-93.88 2476.64,-86.89"/>
</g>
<!-- Node29 -->
<g id="node29" class="node">
<title>Node29</title>
<g id="a_node29"><a xlink:href="kalman__constructor__default__float__1x1x1_8cpp.xhtml" target="_top" xlink:title=" ">
<polygon fill="white" stroke="black" points="3516.5,-0.5 3516.5,-41.5 3656.5,-41.5 3656.5,-0.5 3516.5,-0.5"/>
<text text-anchor="start" x="3524.5" y="-29.5" font-family="Helvetica,sans-Serif" font-size="10.00">/github/workspace/test</text>
<text text-anchor="start" x="3524.5" y="-18.5" font-family="Helvetica,sans-Serif" font-size="10.00">/kalman_constructor_default</text>
<text text-anchor="middle" x="3586.5" y="-7.5" font-family="Helvetica,sans-Serif" font-size="10.00">_float_1x1x1.cpp</text>
</a>
</g>
</g>
<!-- Node6&#45;&gt;Node29 -->
<g id="edge30" class="edge">
<title>Node6&#45;&gt;Node29</title>
<path fill="none" stroke="midnightblue" d="M2477.03,-91.04C2692.6,-86.56 3308.02,-71.49 3507.5,-42 3510.44,-41.57 3513.43,-41.07 3516.44,-40.52"/>
<polygon fill="midnightblue" stroke="midnightblue" points="2476.69,-87.55 2466.76,-91.25 2476.83,-94.55 2476.69,-87.55"/>
</g>
<!-- Node30 -->
<g id="node30" class="node">
<title>Node30</title>
<g id="a_node30"><a xlink:href="kalman__f_8cpp.xhtml" target="_top" xlink:title=" ">
<polygon fill="white" stroke="black" points="3674.5,-6 3674.5,-36 3790.5,-36 3790.5,-6 3674.5,-6"/>
<text text-anchor="start" x="3682.5" y="-24" font-family="Helvetica,sans-Serif" font-size="10.00">/github/workspace/test</text>
<text text-anchor="middle" x="3732.5" y="-13" font-family="Helvetica,sans-Serif" font-size="10.00">/kalman_f.cpp</text>
</a>
</g>
</g>
<!-- Node6&#45;&gt;Node30 -->
<g id="edge31" class="edge">
<title>Node6&#45;&gt;Node30</title>
<path fill="none" stroke="midnightblue" d="M2476.7,-91.96C2712.4,-89.87 3434.69,-80.43 3665.5,-42 3674,-40.58 3682.94,-38.42 3691.42,-36.02"/>
<polygon fill="midnightblue" stroke="midnightblue" points="2476.49,-88.46 2466.52,-92.05 2476.55,-95.46 2476.49,-88.46"/>
</g>
<!-- Node31 -->
<g id="node31" class="node">
<title>Node31</title>
<g id="a_node31"><a xlink:href="kalman__format_8cpp.xhtml" target="_top" xlink:title=" ">
<polygon fill="white" stroke="black" points="3808.5,-6 3808.5,-36 3924.5,-36 3924.5,-6 3808.5,-6"/>
<text text-anchor="start" x="3816.5" y="-24" font-family="Helvetica,sans-Serif" font-size="10.00">/github/workspace/test</text>
<text text-anchor="middle" x="3866.5" y="-13" font-family="Helvetica,sans-Serif" font-size="10.00">/kalman_format.cpp</text>
</a>
</g>
</g>
<!-- Node6&#45;&gt;Node31 -->
<g id="edge32" class="edge">
<title>Node6&#45;&gt;Node31</title>
<path fill="none" stroke="midnightblue" d="M2476.83,-92.3C2728.91,-91.22 3541.56,-84.45 3799.5,-42 3808,-40.6 3816.95,-38.44 3825.43,-36.05"/>
<polygon fill="midnightblue" stroke="midnightblue" points="2476.66,-88.8 2466.67,-92.34 2476.69,-95.8 2476.66,-88.8"/>
</g>
<!-- Node32 -->
<g id="node32" class="node">
<title>Node32</title>
<g id="a_node32"><a xlink:href="kalman__format__arguments_8cpp.xhtml" target="_top" xlink:title=" ">
<polygon fill="white" stroke="black" points="3943,-6 3943,-36 4096,-36 4096,-6 3943,-6"/>
<text text-anchor="start" x="3951" y="-24" font-family="Helvetica,sans-Serif" font-size="10.00">/github/workspace/test</text>
<text text-anchor="middle" x="4019.5" y="-13" font-family="Helvetica,sans-Serif" font-size="10.00">/kalman_format_arguments.cpp</text>
</a>
</g>
</g>
<!-- Node6&#45;&gt;Node32 -->
<g id="edge33" class="edge">
<title>Node6&#45;&gt;Node32</title>
<path fill="none" stroke="midnightblue" d="M2477.03,-91.96C2744.67,-89.76 3647.1,-79.65 3933.5,-42 3944.29,-40.58 3955.71,-38.41 3966.58,-36.02"/>
<polygon fill="midnightblue" stroke="midnightblue" points="2476.62,-88.47 2466.65,-92.05 2476.68,-95.47 2476.62,-88.47"/>
</g>
<!-- Node33 -->
<g id="node33" class="node">
<title>Node33</title>
<g id="a_node33"><a xlink:href="kalman__format__float__1x1x1_8cpp.xhtml" target="_top" xlink:title=" ">
<polygon fill="white" stroke="black" points="4114,-6 4114,-36 4269,-36 4269,-6 4114,-6"/>
<text text-anchor="start" x="4122" y="-24" font-family="Helvetica,sans-Serif" font-size="10.00">/github/workspace/test</text>
<text text-anchor="middle" x="4191.5" y="-13" font-family="Helvetica,sans-Serif" font-size="10.00">/kalman_format_float_1x1x1.cpp</text>
</a>
</g>
</g>
<!-- Node6&#45;&gt;Node33 -->
<g id="edge34" class="edge">
<title>Node6&#45;&gt;Node33</title>
<path fill="none" stroke="midnightblue" d="M2477.2,-92.26C2764.02,-91.03 3783.87,-83.74 4105.5,-42 4116.29,-40.6 4127.71,-38.44 4138.59,-36.04"/>
<polygon fill="midnightblue" stroke="midnightblue" points="2476.89,-88.76 2466.91,-92.3 2476.92,-95.76 2476.89,-88.76"/>
</g>
<!-- Node34 -->
<g id="node34" class="node">
<title>Node34</title>
<g id="a_node34"><a xlink:href="kalman__h_8cpp.xhtml" target="_top" xlink:title=" ">
<polygon fill="white" stroke="black" points="4287.5,-6 4287.5,-36 4403.5,-36 4403.5,-6 4287.5,-6"/>
<text text-anchor="start" x="4295.5" y="-24" font-family="Helvetica,sans-Serif" font-size="10.00">/github/workspace/test</text>
<text text-anchor="middle" x="4345.5" y="-13" font-family="Helvetica,sans-Serif" font-size="10.00">/kalman_h.cpp</text>
</a>
</g>
</g>
<!-- Node6&#45;&gt;Node34 -->
<g id="edge35" class="edge">
<title>Node6&#45;&gt;Node34</title>
<path fill="none" stroke="midnightblue" d="M2476.92,-91.64C2804.91,-87.75 4098.83,-70.72 4278.5,-42 4287.13,-40.62 4296.21,-38.43 4304.79,-36.01"/>
<polygon fill="midnightblue" stroke="midnightblue" points="2476.54,-88.15 2466.58,-91.76 2476.62,-95.15 2476.54,-88.15"/>
</g>
<!-- Node35&#45;&gt;Node6 -->
<g id="edge37" class="edge">
<title>Node35&#45;&gt;Node6</title>
<path fill="none" stroke="midnightblue" d="M2331.91,-139.73C2347.38,-129.68 2365.83,-117.68 2379.84,-108.58"/>
<polygon fill="midnightblue" stroke="midnightblue" points="2329.68,-137.01 2323.2,-145.4 2333.49,-142.88 2329.68,-137.01"/>
</g>
</g>
</svg>
        <g id="navigator" transform="translate(0 0)" fill="#404254">
                <rect fill="#f2f5e9" fill-opacity="0.5" stroke="#606060" stroke-width=".5" x="0" y="0" width="60" height="60"/>
                <use id="zoomplus" xlink:href="#zoomPlus" x="17" y="9" onmousedown="handleZoom(evt,'in')"/>
                <use id="zoomminus" xlink:href="#zoomMin" x="42" y="9" onmousedown="handleZoom(evt,'out')"/>
                <use id="reset" xlink:href="#resetDef" x="30" y="36" onmousedown="handleReset()"/>
                <g id="arrowUp" xlink:href="#dirArrow" transform="translate(30 24)" onmousedown="handlePan(0,-1)">
                  <use xlink:href="#rim" fill="#404040">
                        <set attributeName="fill" to="#808080" begin="arrowUp.mouseover" end="arrowUp.mouseout"/>
                  </use>
                  <path fill="none" stroke="white" stroke-width="1.5" d="M0,-3.0v7 M-2.5,-0.5L0,-3.0L2.5,-0.5"/>
                </g>
                <g id="arrowRight" xlink:href="#dirArrow" transform="rotate(90) translate(36 -43)" onmousedown="handlePan(1,0)">
                  <use xlink:href="#rim" fill="#404040">
                        <set attributeName="fill" to="#808080" begin="arrowRight.mouseover" end="arrowRight.mouseout"/>
                  </use>
                  <path fill="none" stroke="white" stroke-width="1.5" d="M0,-3.0v7 M-2.5,-0.5L0,-3.0L2.5,-0.5"/>
                </g>
                <g id="arrowDown" xlink:href="#dirArrow" transform="rotate(180) translate(-30 -48)" onmousedown="handlePan(0,1)">
                  <use xlink:href="#rim" fill="#404040">
                        <set attributeName="fill" to="#808080" begin="arrowDown.mouseover" end="arrowDown.mouseout"/>
                  </use>
                  <path fill="none" stroke="white" stroke-width="1.5" d="M0,-3.0v7 M-2.5,-0.5L0,-3.0L2.5,-0.5"/>
                </g>
                <g id="arrowLeft" xlink:href="#dirArrow" transform="rotate(270) translate(-36 17)" onmousedown="handlePan(-1,0)">
                  <use xlink:href="#rim" fill="#404040">
                        <set attributeName="fill" to="#808080" begin="arrowLeft.mouseover" end="arrowLeft.mouseout"/>
                  </use>
                  <path fill="none" stroke="white" stroke-width="1.5" d="M0,-3.0v7 M-2.5,-0.5L0,-3.0L2.5,-0.5"/>
                </g>
        </g>
        <svg viewBox="0 0 15 15" width="100%" height="30px" preserveAspectRatio="xMaxYMin meet">
         <g id="arrow_out" transform="scale(0.3 0.3)">
          <a xlink:href="internal_2utility_8hpp__dep__incl_org.svg" target="_base">
           <rect id="button" ry="5" rx="5" y="6" x="6" height="38" width="38"
                fill="#f2f5e9" fill-opacity="0.5" stroke="#606060" stroke-width="1.0"/>
           <path id="arrow"
             d="M 11.500037,31.436501 C 11.940474,20.09759 22.043105,11.32322 32.158766,21.979434 L 37.068811,17.246167 C 37.068811,17.246167 37.088388,32 37.088388,32 L 22.160133,31.978069 C 22.160133,31.978069 26.997745,27.140456 26.997745,27.140456 C 18.528582,18.264221 13.291696,25.230495 11.500037,31.436501 z"
             style="fill:#404040;"/>
          </a>
         </g>
        </svg>
</svg>
