<?xml version="1.0" encoding="UTF-8" standalone="no"?>
<!DOCTYPE svg PUBLIC "-//W3C//DTD SVG 1.1//EN"
 "http://www.w3.org/Graphics/SVG/1.1/DTD/svg11.dtd">
<!-- Generated by graphviz version 2.49.3 (20211027.1534)
 -->
<!-- Title: include/fcarouge/internal/kalman.hpp Pages: 1 -->
<!--zoomable 229 -->
<svg id="main" version="1.1" xmlns="http://www.w3.org/2000/svg" xmlns:xlink="http://www.w3.org/1999/xlink" xml:space="preserve" onload="init(evt)">
<style type="text/css"><![CDATA[
.edge:hover path { stroke: red; }
.edge:hover polygon { stroke: red; fill: red; }
]]></style>
<script type="text/javascript"><![CDATA[
var edges = document.getElementsByTagName('g');
if (edges && edges.length) {
  for (var i=0;i<edges.length;i++) {
    if (edges[i].id.substr(0,4)=='edge') {
      edges[i].setAttribute('class','edge');
    }
  }
}
]]></script>
        <defs>
                <circle id="rim" cx="0" cy="0" r="7"/>
                <circle id="rim2" cx="0" cy="0" r="3.5"/>
                <g id="zoomPlus">
                        <use xlink:href="#rim" fill="#404040">
                                <set attributeName="fill" to="#808080" begin="zoomplus.mouseover" end="zoomplus.mouseout"/>
                        </use>
                        <path d="M-4,0h8M0,-4v8" fill="none" stroke="white" stroke-width="1.5" pointer-events="none"/>
                </g>
                <g id="zoomMin">
                        <use xlink:href="#rim" fill="#404040">
                                <set attributeName="fill" to="#808080" begin="zoomminus.mouseover" end="zoomminus.mouseout"/>
                        </use>
                        <path d="M-4,0h8" fill="none" stroke="white" stroke-width="1.5" pointer-events="none"/>
                </g>
                <g id="dirArrow">
                        <path fill="none" stroke="white" stroke-width="1.5" d="M0,-3.0v7 M-2.5,-0.5L0,-3.0L2.5,-0.5"/>
                </g>
               <g id="resetDef">
                       <use xlink:href="#rim2" fill="#404040">
                               <set attributeName="fill" to="#808080" begin="reset.mouseover" end="reset.mouseout"/>
                       </use>
               </g>
        </defs>

<script type="text/javascript">
var viewWidth = 797;
var viewHeight = 229;
var sectionId = 'dynsection-1';
</script>
<script xlink:href="svgpan.js"/>
<svg id="graph" class="graph">
<g id="viewport">
<title>include/fcarouge/internal/kalman.hpp</title>
<polygon fill="white" stroke="transparent" points="-4,4 -4,-225 792.5,-225 792.5,4 -4,4"/>
<!-- Node1 -->
<g id="node1" class="node">
<title>Node1</title>
<g id="a_node1"><a xlink:title="The main Kalman filter class.">
<polygon fill="#bfbfbf" stroke="black" points="229.5,-190.5 229.5,-220.5 351.5,-220.5 351.5,-190.5 229.5,-190.5"/>
<text text-anchor="start" x="237.5" y="-208.5" font-family="Helvetica,sans-Serif" font-size="10.00">include/fcarouge/internal</text>
<text text-anchor="middle" x="290.5" y="-197.5" font-family="Helvetica,sans-Serif" font-size="10.00">/kalman.hpp</text>
</a>
</g>
</g>
<!-- Node2 -->
<g id="node2" class="node">
<title>Node2</title>
<g id="a_node2"><a xlink:href="kalman__eigen__operator_8hpp.xhtml" target="_top" xlink:title="Kalman operation for Eigen 3 types.">
<polygon fill="white" stroke="black" points="143.5,-123.5 143.5,-153.5 281.5,-153.5 281.5,-123.5 143.5,-123.5"/>
<text text-anchor="start" x="151.5" y="-141.5" font-family="Helvetica,sans-Serif" font-size="10.00">include/fcarouge/internal</text>
<text text-anchor="middle" x="212.5" y="-130.5" font-family="Helvetica,sans-Serif" font-size="10.00">/kalman_eigen_operator.hpp</text>
</a>
</g>
</g>
<!-- Node1&#45;&gt;Node2 -->
<g id="edge1" class="edge">
<title>Node1&#45;&gt;Node2</title>
<path fill="none" stroke="midnightblue" d="M265.76,-183.88C253.91,-174.01 240.02,-162.43 229.39,-153.58"/>
<polygon fill="midnightblue" stroke="midnightblue" points="263.65,-186.68 273.58,-190.4 268.13,-181.31 263.65,-186.68"/>
</g>
<!-- Node6 -->
<g id="node6" class="node">
<title>Node6</title>
<g id="a_node6"><a xlink:href="kalman_8hpp.xhtml" target="_top" xlink:title="The main Kalman filter class.">
<polygon fill="white" stroke="black" points="333.5,-129 333.5,-148 473.5,-148 473.5,-129 333.5,-129"/>
<text text-anchor="middle" x="403.5" y="-136" font-family="Helvetica,sans-Serif" font-size="10.00">include/fcarouge/kalman.hpp</text>
</a>
</g>
</g>
<!-- Node1&#45;&gt;Node6 -->
<g id="edge5" class="edge">
<title>Node1&#45;&gt;Node6</title>
<path fill="none" stroke="midnightblue" d="M323.87,-185.31C345.39,-172.93 372.33,-157.43 388.71,-148.01"/>
<polygon fill="midnightblue" stroke="midnightblue" points="321.94,-182.38 315.02,-190.4 325.43,-188.44 321.94,-182.38"/>
</g>
<!-- Node3 -->
<g id="node3" class="node">
<title>Node3</title>
<g id="a_node3"><a xlink:href="kalman__eigen_8hpp.xhtml" target="_top" xlink:title="Kalman operation for Eigen 3 types.">
<polygon fill="white" stroke="black" points="83.5,-56.5 83.5,-86.5 205.5,-86.5 205.5,-56.5 83.5,-56.5"/>
<text text-anchor="start" x="91.5" y="-74.5" font-family="Helvetica,sans-Serif" font-size="10.00">include/fcarouge/kalman</text>
<text text-anchor="middle" x="144.5" y="-63.5" font-family="Helvetica,sans-Serif" font-size="10.00">_eigen.hpp</text>
</a>
</g>
</g>
<!-- Node2&#45;&gt;Node3 -->
<g id="edge2" class="edge">
<title>Node2&#45;&gt;Node3</title>
<path fill="none" stroke="midnightblue" d="M190.33,-116.31C180.13,-106.56 168.31,-95.26 159.23,-86.58"/>
<polygon fill="midnightblue" stroke="midnightblue" points="188.1,-119.02 197.75,-123.4 192.93,-113.96 188.1,-119.02"/>
</g>
<!-- Node4 -->
<g id="node4" class="node">
<title>Node4</title>
<g id="a_node4"><a xlink:href="rocket__altitude_8cpp.xhtml" target="_top" xlink:title=" ">
<polygon fill="white" stroke="black" points="0,-0.5 0,-19.5 133,-19.5 133,-0.5 0,-0.5"/>
<text text-anchor="middle" x="66.5" y="-7.5" font-family="Helvetica,sans-Serif" font-size="10.00">sample/rocket_altitude.cpp</text>
</a>
</g>
</g>
<!-- Node3&#45;&gt;Node4 -->
<g id="edge3" class="edge">
<title>Node3&#45;&gt;Node4</title>
<path fill="none" stroke="midnightblue" d="M117.87,-50.19C104.22,-39.77 88.3,-27.63 77.85,-19.66"/>
<polygon fill="midnightblue" stroke="midnightblue" points="115.94,-53.12 126.02,-56.4 120.19,-47.55 115.94,-53.12"/>
</g>
<!-- Node5 -->
<g id="node5" class="node">
<title>Node5</title>
<g id="a_node5"><a xlink:href="vehicule__location_8cpp.xhtml" target="_top" xlink:title=" ">
<polygon fill="white" stroke="black" points="151.5,-0.5 151.5,-19.5 295.5,-19.5 295.5,-0.5 151.5,-0.5"/>
<text text-anchor="middle" x="223.5" y="-7.5" font-family="Helvetica,sans-Serif" font-size="10.00">sample/vehicule_location.cpp</text>
</a>
</g>
</g>
<!-- Node3&#45;&gt;Node5 -->
<g id="edge4" class="edge">
<title>Node3&#45;&gt;Node5</title>
<path fill="none" stroke="midnightblue" d="M171.47,-50.19C185.3,-39.77 201.42,-27.63 212,-19.66"/>
<polygon fill="midnightblue" stroke="midnightblue" points="169.1,-47.59 163.22,-56.4 173.32,-53.18 169.1,-47.59"/>
</g>
<!-- Node6&#45;&gt;Node3 -->
<g id="edge6" class="edge">
<title>Node6&#45;&gt;Node3</title>
<path fill="none" stroke="midnightblue" d="M359.58,-126.48C315.74,-115.47 248.2,-98.52 200.52,-86.56"/>
<polygon fill="midnightblue" stroke="midnightblue" points="358.82,-129.9 369.37,-128.94 360.53,-123.11 358.82,-129.9"/>
</g>
<!-- Node7 -->
<g id="node7" class="node">
<title>Node7</title>
<g id="a_node7"><a xlink:href="building__height_8cpp.xhtml" target="_top" xlink:title=" ">
<polygon fill="white" stroke="black" points="223.5,-62 223.5,-81 357.5,-81 357.5,-62 223.5,-62"/>
<text text-anchor="middle" x="290.5" y="-69" font-family="Helvetica,sans-Serif" font-size="10.00">sample/building_height.cpp</text>
</a>
</g>
</g>
<!-- Node6&#45;&gt;Node7 -->
<g id="edge7" class="edge">
<title>Node6&#45;&gt;Node7</title>
<path fill="none" stroke="midnightblue" d="M379.36,-123.62C356.97,-110.74 324.36,-91.98 305.5,-81.13"/>
<polygon fill="midnightblue" stroke="midnightblue" points="377.85,-126.78 388.26,-128.73 381.34,-120.71 377.85,-126.78"/>
</g>
<!-- Node8 -->
<g id="node8" class="node">
<title>Node8</title>
<g id="a_node8"><a xlink:href="dog__position_8cpp.xhtml" target="_top" xlink:title=" ">
<polygon fill="white" stroke="black" points="375.5,-62 375.5,-81 499.5,-81 499.5,-62 375.5,-62"/>
<text text-anchor="middle" x="437.5" y="-69" font-family="Helvetica,sans-Serif" font-size="10.00">sample/dog_position.cpp</text>
</a>
</g>
</g>
<!-- Node6&#45;&gt;Node8 -->
<g id="edge8" class="edge">
<title>Node6&#45;&gt;Node8</title>
<path fill="none" stroke="midnightblue" d="M412.83,-119.66C419.39,-107.13 427.87,-90.91 432.99,-81.13"/>
<polygon fill="midnightblue" stroke="midnightblue" points="409.62,-118.25 408.09,-128.73 415.82,-121.5 409.62,-118.25"/>
</g>
<!-- Node9 -->
<g id="node9" class="node">
<title>Node9</title>
<g id="a_node9"><a xlink:href="liquid__temperature_8cpp.xhtml" target="_top" xlink:title=" ">
<polygon fill="white" stroke="black" points="517,-62 517,-81 666,-81 666,-62 517,-62"/>
<text text-anchor="middle" x="591.5" y="-69" font-family="Helvetica,sans-Serif" font-size="10.00">sample/liquid_temperature.cpp</text>
</a>
</g>
</g>
<!-- Node6&#45;&gt;Node9 -->
<g id="edge9" class="edge">
<title>Node6&#45;&gt;Node9</title>
<path fill="none" stroke="midnightblue" d="M438.39,-125.44C475.69,-112.54 533.87,-92.42 566.73,-81.06"/>
<polygon fill="midnightblue" stroke="midnightblue" points="436.77,-122.29 428.46,-128.87 439.06,-128.91 436.77,-122.29"/>
</g>
<!-- Node10 -->
<g id="node10" class="node">
<title>Node10</title>
<g id="a_node10"><a xlink:href="initialization_8cpp.xhtml" target="_top" xlink:title=" ">
<polygon fill="white" stroke="black" points="684.5,-62 684.5,-81 788.5,-81 788.5,-62 684.5,-62"/>
<text text-anchor="middle" x="736.5" y="-69" font-family="Helvetica,sans-Serif" font-size="10.00">test/initialization.cpp</text>
</a>
</g>
</g>
<!-- Node6&#45;&gt;Node10 -->
<g id="edge10" class="edge">
<title>Node6&#45;&gt;Node10</title>
<path fill="none" stroke="midnightblue" d="M463.75,-127.2C518.98,-117.55 602.95,-102.35 675.5,-87 684.13,-85.18 693.4,-83.05 702.05,-81.01"/>
<polygon fill="midnightblue" stroke="midnightblue" points="463.03,-123.77 453.78,-128.94 464.23,-130.67 463.03,-123.77"/>
</g>
</g>
</svg>
        <g id="navigator" transform="translate(0 0)" fill="#404254">
                <rect fill="#f2f5e9" fill-opacity="0.5" stroke="#606060" stroke-width=".5" x="0" y="0" width="60" height="60"/>
                <use id="zoomplus" xlink:href="#zoomPlus" x="17" y="9" onmousedown="handleZoom(evt,'in')"/>
                <use id="zoomminus" xlink:href="#zoomMin" x="42" y="9" onmousedown="handleZoom(evt,'out')"/>
                <use id="reset" xlink:href="#resetDef" x="30" y="36" onmousedown="handleReset()"/>
                <g id="arrowUp" xlink:href="#dirArrow" transform="translate(30 24)" onmousedown="handlePan(0,-1)">
                  <use xlink:href="#rim" fill="#404040">
                        <set attributeName="fill" to="#808080" begin="arrowUp.mouseover" end="arrowUp.mouseout"/>
                  </use>
                  <path fill="none" stroke="white" stroke-width="1.5" d="M0,-3.0v7 M-2.5,-0.5L0,-3.0L2.5,-0.5"/>
                </g>
                <g id="arrowRight" xlink:href="#dirArrow" transform="rotate(90) translate(36 -43)" onmousedown="handlePan(1,0)">
                  <use xlink:href="#rim" fill="#404040">
                        <set attributeName="fill" to="#808080" begin="arrowRight.mouseover" end="arrowRight.mouseout"/>
                  </use>
                  <path fill="none" stroke="white" stroke-width="1.5" d="M0,-3.0v7 M-2.5,-0.5L0,-3.0L2.5,-0.5"/>
                </g>
                <g id="arrowDown" xlink:href="#dirArrow" transform="rotate(180) translate(-30 -48)" onmousedown="handlePan(0,1)">
                  <use xlink:href="#rim" fill="#404040">
                        <set attributeName="fill" to="#808080" begin="arrowDown.mouseover" end="arrowDown.mouseout"/>
                  </use>
                  <path fill="none" stroke="white" stroke-width="1.5" d="M0,-3.0v7 M-2.5,-0.5L0,-3.0L2.5,-0.5"/>
                </g>
                <g id="arrowLeft" xlink:href="#dirArrow" transform="rotate(270) translate(-36 17)" onmousedown="handlePan(-1,0)">
                  <use xlink:href="#rim" fill="#404040">
                        <set attributeName="fill" to="#808080" begin="arrowLeft.mouseover" end="arrowLeft.mouseout"/>
                  </use>
                  <path fill="none" stroke="white" stroke-width="1.5" d="M0,-3.0v7 M-2.5,-0.5L0,-3.0L2.5,-0.5"/>
                </g>
        </g>
        <svg viewBox="0 0 15 15" width="100%" height="30px" preserveAspectRatio="xMaxYMin meet">
         <g id="arrow_out" transform="scale(0.3 0.3)">
          <a xlink:href="internal_2kalman_8hpp__dep__incl_org.svg" target="_base">
           <rect id="button" ry="5" rx="5" y="6" x="6" height="38" width="38"
                fill="#f2f5e9" fill-opacity="0.5" stroke="#606060" stroke-width="1.0"/>
           <path id="arrow"
             d="M 11.500037,31.436501 C 11.940474,20.09759 22.043105,11.32322 32.158766,21.979434 L 37.068811,17.246167 C 37.068811,17.246167 37.088388,32 37.088388,32 L 22.160133,31.978069 C 22.160133,31.978069 26.997745,27.140456 26.997745,27.140456 C 18.528582,18.264221 13.291696,25.230495 11.500037,31.436501 z"
             style="fill:#404040;"/>
          </a>
         </g>
        </svg>
</svg>
