<?xml version="1.0" encoding="UTF-8" standalone="no"?>
<!DOCTYPE svg PUBLIC "-//W3C//DTD SVG 1.1//EN"
 "http://www.w3.org/Graphics/SVG/1.1/DTD/svg11.dtd">
<!-- Generated by graphviz version 12.2.0 (20241103.1931)
 -->
<!-- Title: /github/workspace/test/kalman_format.cpp Pages: 1 -->
<!--zoomable 381 -->

<svg id="main" version="1.1" xmlns="http://www.w3.org/2000/svg" xmlns:xlink="http://www.w3.org/1999/xlink" xml:space="preserve" onload="init(evt)">

<style type="text/css"><![CDATA[
.node, .edge {opacity: 0.7;}
.node.selected, .edge.selected {opacity: 1;}
.edge:hover path { stroke: red; }
.edge:hover polygon { stroke: red; fill: red; }
]]></style>

<defs>
  <circle id="rim" cx="0" cy="0" r="7"/>
  <circle id="rim2" cx="0" cy="0" r="3.5"/>
  <g id="zoomPlus">
    <use xlink:href="#rim" fill="#404040"><set attributeName="fill" to="#808080" begin="zoomplus.mouseover" end="zoomplus.mouseout"/></use>
    <path d="M-4,0h8M0,-4v8" fill="none" stroke="white" stroke-width="1.5" pointer-events="none"/>
  </g>
  <g id="zoomMin">
    <use xlink:href="#rim" fill="#404040"><set attributeName="fill" to="#808080" begin="zoomminus.mouseover" end="zoomminus.mouseout"/></use>
    <path d="M-4,0h8" fill="none" stroke="white" stroke-width="1.5" pointer-events="none"/>
  </g>
  <g id="arrowUp" transform="translate(30 24)">
    <use xlink:href="#rim"/>
    <path pointer-events="none" fill="none" stroke="white" stroke-width="1.5" d="M0,-3.0v7 M-2.5,-0.5L0,-3.0L2.5,-0.5"/>
  </g>
  <g id="arrowRight" transform="rotate(90) translate(36 -43)">
    <use xlink:href="#rim"/>
    <path pointer-events="none" fill="none" stroke="white" stroke-width="1.5" d="M0,-3.0v7 M-2.5,-0.5L0,-3.0L2.5,-0.5"/>
  </g>
  <g id="arrowDown" transform="rotate(180) translate(-30 -48)">
    <use xlink:href="#rim"/>
    <path pointer-events="none" fill="none" stroke="white" stroke-width="1.5" d="M0,-3.0v7 M-2.5,-0.5L0,-3.0L2.5,-0.5"/>
  </g>
  <g id="arrowLeft" transform="rotate(270) translate(-36 17)">
    <use xlink:href="#rim"/>
    <path pointer-events="none" fill="none" stroke="white" stroke-width="1.5" d="M0,-3.0v7 M-2.5,-0.5L0,-3.0L2.5,-0.5"/>
  </g>
  <g id="resetDef">
    <use xlink:href="#rim2" fill="#404040"><set attributeName="fill" to="#808080" begin="reset.mouseover" end="reset.mouseout"/></use>
  </g>
</defs>
<script type="application/ecmascript">
var viewWidth = 1799;
var viewHeight = 381;
var sectionId = 'dynsection-0';
</script>
<script type="application/ecmascript" xlink:href="svg.min.js"/>
<svg id="graph" class="graph">
<g id="viewport">
<title>/github/workspace/test/kalman_format.cpp</title>
<!-- Node1 -->
<g id="Node000001" class="node">
<title>Node1</title>
<g id="a_Node000001"><a xlink:title=" ">
<polygon fill="#999999" stroke="#666666" points="1771.88,-373.25 1656.88,-373.25 1656.88,-342.75 1771.88,-342.75 1771.88,-373.25"/>
<text text-anchor="start" x="1664.88" y="-359.75" font-family="Helvetica,sans-Serif" font-size="10.00">/github/workspace/test</text>
<text text-anchor="middle" x="1714.38" y="-348.5" font-family="Helvetica,sans-Serif" font-size="10.00">/kalman_format.cpp</text>
</a>
</g>
</g>
<!-- Node2 -->
<g id="Node000002" class="node">
<title>Node2</title>
<g id="a_Node000002"><a xlink:href="kalman_8hpp.xhtml" target="_top" xlink:title="The Kalman filter class and library top&#45;level header.">
<polygon fill="white" stroke="#666666" points="1527.38,-306.75 1421.38,-306.75 1421.38,-287.5 1527.38,-287.5 1527.38,-306.75"/>
<text text-anchor="middle" x="1474.38" y="-293.25" font-family="Helvetica,sans-Serif" font-size="10.00">fcarouge/kalman.hpp</text>
</a>
</g>
</g>
<!-- Node1&#45;&gt;Node2 -->
<g id="edge1_Node000001_Node000002" class="edge">
<title>Node1&#45;&gt;Node2</title>
<g id="a_edge1_Node000001_Node000002"><a xlink:title=" ">
<path fill="none" stroke="#63b8ff" d="M1656.58,-342.82C1615.56,-332.76 1561.12,-319.4 1522.46,-309.92"/>
<polygon fill="#63b8ff" stroke="#63b8ff" points="1523.51,-306.58 1512.97,-307.59 1521.85,-313.37 1523.51,-306.58"/>
</a>
</g>
</g>
<!-- Node11 -->
<g id="Node000011" class="node">
<title>Node11</title>
<g id="a_Node000011"><a xlink:title=" ">
<polygon fill="#e0e0e0" stroke="#999999" points="1596.25,-129.75 1552.5,-129.75 1552.5,-110.5 1596.25,-110.5 1596.25,-129.75"/>
<text text-anchor="middle" x="1574.38" y="-116.25" font-family="Helvetica,sans-Serif" font-size="10.00">format</text>
</a>
</g>
</g>
<!-- Node1&#45;&gt;Node11 -->
<g id="edge55_Node000001_Node000011" class="edge">
<title>Node1&#45;&gt;Node11</title>
<g id="a_edge55_Node000001_Node000011"><a xlink:title=" ">
<path fill="none" stroke="#63b8ff" d="M1717.65,-342.44C1724.54,-307.76 1736.71,-219.2 1695.38,-165.75 1674.52,-138.78 1635.67,-128.11 1607.61,-123.89"/>
<polygon fill="#63b8ff" stroke="#63b8ff" points="1608.19,-120.43 1597.83,-122.63 1607.31,-127.37 1608.19,-120.43"/>
</a>
</g>
</g>
<!-- Node29 -->
<g id="Node000029" class="node">
<title>Node29</title>
<g id="a_Node000029"><a xlink:title=" ">
<polygon fill="#e0e0e0" stroke="#999999" points="1790.5,-306.75 1742.25,-306.75 1742.25,-287.5 1790.5,-287.5 1790.5,-306.75"/>
<text text-anchor="middle" x="1766.38" y="-293.25" font-family="Helvetica,sans-Serif" font-size="10.00">cassert</text>
</a>
</g>
</g>
<!-- Node1&#45;&gt;Node29 -->
<g id="edge54_Node000001_Node000029" class="edge">
<title>Node1&#45;&gt;Node29</title>
<g id="a_edge54_Node000001_Node000029"><a xlink:title=" ">
<path fill="none" stroke="#63b8ff" d="M1727.23,-342.45C1734.39,-334.34 1743.34,-324.2 1750.89,-315.66"/>
<polygon fill="#63b8ff" stroke="#63b8ff" points="1753.36,-318.15 1757.36,-308.34 1748.11,-313.51 1753.36,-318.15"/>
</a>
</g>
</g>
<!-- Node3 -->
<g id="Node000003" class="node">
<title>Node3</title>
<g id="a_Node000003"><a xlink:href="format_8hpp.xhtml" target="_top" xlink:title="Formatting support for the Kalman filter.">
<polygon fill="white" stroke="#666666" points="1558.25,-190.62 1496.5,-190.62 1496.5,-171.38 1558.25,-171.38 1558.25,-190.62"/>
<text text-anchor="middle" x="1527.38" y="-177.12" font-family="Helvetica,sans-Serif" font-size="10.00">format.hpp</text>
</a>
</g>
</g>
<!-- Node2&#45;&gt;Node3 -->
<g id="edge2_Node000002_Node000003" class="edge">
<title>Node2&#45;&gt;Node3</title>
<g id="a_edge2_Node000002_Node000003"><a xlink:title=" ">
<path fill="none" stroke="#63b8ff" d="M1469.94,-287.39C1464.11,-274.64 1455.61,-250.45 1464.38,-232.25 1471.63,-217.18 1485.85,-205.23 1498.94,-196.77"/>
<polygon fill="#63b8ff" stroke="#63b8ff" points="1500.52,-199.9 1507.3,-191.76 1496.92,-193.9 1500.52,-199.9"/>
</a>
</g>
</g>
<!-- Node4 -->
<g id="Node000004" class="node">
<title>Node4</title>
<g id="a_Node000004"><a xlink:href="utility_8hpp.xhtml" target="_top" xlink:title="The collection of utilities supporting the library.">
<polygon fill="white" stroke="#666666" points="1053.88,-129.75 956.88,-129.75 956.88,-110.5 1053.88,-110.5 1053.88,-129.75"/>
<text text-anchor="middle" x="1005.38" y="-116.25" font-family="Helvetica,sans-Serif" font-size="10.00">fcarouge/utility.hpp</text>
</a>
</g>
</g>
<!-- Node2&#45;&gt;Node4 -->
<g id="edge52_Node000002_Node000004" class="edge">
<title>Node2&#45;&gt;Node4</title>
<g id="a_edge52_Node000002_Node000004"><a xlink:title=" ">
<path fill="none" stroke="#63b8ff" d="M1462.58,-287.1C1439.82,-269.67 1388.3,-230.09 1345.38,-196.25 1328.37,-182.84 1327.22,-174.41 1307.38,-165.75 1265.1,-147.3 1140.69,-133.31 1065.39,-126.24"/>
<polygon fill="#63b8ff" stroke="#63b8ff" points="1065.98,-122.78 1055.71,-125.35 1065.34,-129.75 1065.98,-122.78"/>
</a>
</g>
</g>
<!-- Node12 -->
<g id="Node000012" class="node">
<title>Node12</title>
<g id="a_Node000012"><a xlink:href="factory_8hpp.xhtml" target="_top" xlink:title=" ">
<polygon fill="white" stroke="#666666" points="1017.62,-251.5 883.12,-251.5 883.12,-232.25 1017.62,-232.25 1017.62,-251.5"/>
<text text-anchor="middle" x="950.38" y="-238" font-family="Helvetica,sans-Serif" font-size="10.00">kalman_internal/factory.hpp</text>
</a>
</g>
</g>
<!-- Node2&#45;&gt;Node12 -->
<g id="edge14_Node000002_Node000012" class="edge">
<title>Node2&#45;&gt;Node12</title>
<g id="a_edge14_Node000002_Node000012"><a xlink:title=" ">
<path fill="none" stroke="#63b8ff" d="M1421.25,-290.73C1328.65,-281.32 1137.26,-261.87 1029.17,-250.88"/>
<polygon fill="#63b8ff" stroke="#63b8ff" points="1029.82,-247.43 1019.52,-249.9 1029.11,-254.39 1029.82,-247.43"/>
</a>
</g>
</g>
<!-- Node26 -->
<g id="Node000026" class="node">
<title>Node26</title>
<g id="a_Node000026"><a xlink:href="printer_8hpp.xhtml" target="_top" xlink:title="Filter decoration support for printing operations.">
<polygon fill="white" stroke="#666666" points="1533.88,-251.5 1472.88,-251.5 1472.88,-232.25 1533.88,-232.25 1533.88,-251.5"/>
<text text-anchor="middle" x="1503.38" y="-238" font-family="Helvetica,sans-Serif" font-size="10.00">printer.hpp</text>
</a>
</g>
</g>
<!-- Node2&#45;&gt;Node26 -->
<g id="edge50_Node000002_Node000026" class="edge">
<title>Node2&#45;&gt;Node26</title>
<g id="a_edge50_Node000002_Node000026"><a xlink:title=" ">
<path fill="none" stroke="#63b8ff" d="M1479.16,-287.33C1482.92,-280.44 1488.28,-270.59 1493.01,-261.91"/>
<polygon fill="#63b8ff" stroke="#63b8ff" points="1496.05,-263.64 1497.76,-253.19 1489.9,-260.3 1496.05,-263.64"/>
</a>
</g>
</g>
<!-- Node28 -->
<g id="Node000028" class="node">
<title>Node28</title>
<g id="a_Node000028"><a xlink:title=" ">
<polygon fill="#e0e0e0" stroke="#999999" points="1686.62,-251.5 1552.12,-251.5 1552.12,-232.25 1686.62,-232.25 1686.62,-251.5"/>
<text text-anchor="middle" x="1619.38" y="-238" font-family="Helvetica,sans-Serif" font-size="10.00">kalman_internal/kalman.tpp</text>
</a>
</g>
</g>
<!-- Node2&#45;&gt;Node28 -->
<g id="edge53_Node000002_Node000028" class="edge">
<title>Node2&#45;&gt;Node28</title>
<g id="a_edge53_Node000002_Node000028"><a xlink:title=" ">
<path fill="none" stroke="#63b8ff" d="M1498.97,-287.09C1522.3,-278.52 1557.61,-265.56 1583.97,-255.88"/>
<polygon fill="#63b8ff" stroke="#63b8ff" points="1585.06,-259.21 1593.24,-252.47 1582.64,-252.64 1585.06,-259.21"/>
</a>
</g>
</g>
<!-- Node3&#45;&gt;Node4 -->
<g id="edge3_Node000003_Node000004" class="edge">
<title>Node3&#45;&gt;Node4</title>
<g id="a_edge3_Node000003_Node000004"><a xlink:title=" ">
<path fill="none" stroke="#63b8ff" d="M1505.24,-171.01C1499.5,-168.98 1493.28,-167.05 1487.38,-165.75 1447.13,-156.87 1185.53,-135.39 1065.45,-125.84"/>
<polygon fill="#63b8ff" stroke="#63b8ff" points="1066.04,-122.38 1055.8,-125.08 1065.49,-129.36 1066.04,-122.38"/>
</a>
</g>
</g>
<!-- Node7 -->
<g id="Node000007" class="node">
<title>Node7</title>
<g id="a_Node000007"><a xlink:title=" ">
<polygon fill="#e0e0e0" stroke="#999999" points="1326.5,-19.25 1278.25,-19.25 1278.25,0 1326.5,0 1326.5,-19.25"/>
<text text-anchor="middle" x="1302.38" y="-5.75" font-family="Helvetica,sans-Serif" font-size="10.00">cstddef</text>
</a>
</g>
</g>
<!-- Node3&#45;&gt;Node7 -->
<g id="edge11_Node000003_Node000007" class="edge">
<title>Node3&#45;&gt;Node7</title>
<g id="a_edge11_Node000003_Node000007"><a xlink:title=" ">
<path fill="none" stroke="#63b8ff" d="M1504.36,-170.92C1456.12,-151.47 1346.8,-105.1 1321.38,-74.5 1311.07,-62.1 1306.36,-44.27 1304.2,-30.6"/>
<polygon fill="#63b8ff" stroke="#63b8ff" points="1307.71,-30.5 1303.03,-20.99 1300.76,-31.34 1307.71,-30.5"/>
</a>
</g>
</g>
<!-- Node8 -->
<g id="Node000008" class="node">
<title>Node8</title>
<g id="a_Node000008"><a xlink:title=" ">
<polygon fill="#e0e0e0" stroke="#999999" points="523.88,-19.25 486.88,-19.25 486.88,0 523.88,0 523.88,-19.25"/>
<text text-anchor="middle" x="505.38" y="-5.75" font-family="Helvetica,sans-Serif" font-size="10.00">tuple</text>
</a>
</g>
</g>
<!-- Node3&#45;&gt;Node8 -->
<g id="edge13_Node000003_Node000008" class="edge">
<title>Node3&#45;&gt;Node8</title>
<g id="a_edge13_Node000003_Node000008"><a xlink:title=" ">
<path fill="none" stroke="#63b8ff" d="M1503.39,-171C1498.15,-169.16 1492.6,-167.31 1487.38,-165.75 1288.41,-106.27 1238.34,-88.65 1033.38,-55.25 845.54,-24.64 616.47,-14.36 535.49,-11.54"/>
<polygon fill="#63b8ff" stroke="#63b8ff" points="535.83,-8.05 525.72,-11.22 535.6,-15.05 535.83,-8.05"/>
</a>
</g>
</g>
<!-- Node3&#45;&gt;Node11 -->
<g id="edge12_Node000003_Node000011" class="edge">
<title>Node3&#45;&gt;Node11</title>
<g id="a_edge12_Node000003_Node000011"><a xlink:title=" ">
<path fill="none" stroke="#63b8ff" d="M1534.51,-171.06C1541.28,-162.59 1551.63,-149.62 1560.09,-139.02"/>
<polygon fill="#63b8ff" stroke="#63b8ff" points="1562.72,-141.33 1566.23,-131.33 1557.25,-136.97 1562.72,-141.33"/>
</a>
</g>
</g>
<!-- Node5 -->
<g id="Node000005" class="node">
<title>Node5</title>
<g id="a_Node000005"><a xlink:href="kalman__internal_2utility_8hpp.xhtml" target="_top" xlink:title=" ">
<polygon fill="white" stroke="#666666" points="1458.25,-74.5 1330.5,-74.5 1330.5,-55.25 1458.25,-55.25 1458.25,-74.5"/>
<text text-anchor="middle" x="1394.38" y="-61" font-family="Helvetica,sans-Serif" font-size="10.00">kalman_internal/utility.hpp</text>
</a>
</g>
</g>
<!-- Node4&#45;&gt;Node5 -->
<g id="edge4_Node000004_Node000005" class="edge">
<title>Node4&#45;&gt;Node5</title>
<g id="a_edge4_Node000004_Node000005"><a xlink:title=" ">
<path fill="none" stroke="#63b8ff" d="M1054.25,-112.43C1120.86,-103.32 1240.8,-86.9 1318.98,-76.2"/>
<polygon fill="#63b8ff" stroke="#63b8ff" points="1319.27,-79.69 1328.71,-74.86 1318.32,-72.75 1319.27,-79.69"/>
</a>
</g>
</g>
<!-- Node4&#45;&gt;Node7 -->
<g id="edge9_Node000004_Node000007" class="edge">
<title>Node4&#45;&gt;Node7</title>
<g id="a_edge9_Node000004_Node000007"><a xlink:title=" ">
<path fill="none" stroke="#63b8ff" d="M1030.19,-110.06C1082.95,-90.79 1206.42,-45.68 1267.25,-23.46"/>
<polygon fill="#63b8ff" stroke="#63b8ff" points="1268.23,-26.83 1276.42,-20.11 1265.83,-20.25 1268.23,-26.83"/>
</a>
</g>
</g>
<!-- Node10 -->
<g id="Node000010" class="node">
<title>Node10</title>
<g id="a_Node000010"><a xlink:title=" ">
<polygon fill="#e0e0e0" stroke="#999999" points="1024.62,-74.5 986.12,-74.5 986.12,-55.25 1024.62,-55.25 1024.62,-74.5"/>
<text text-anchor="middle" x="1005.38" y="-61" font-family="Helvetica,sans-Serif" font-size="10.00">utility</text>
</a>
</g>
</g>
<!-- Node4&#45;&gt;Node10 -->
<g id="edge10_Node000004_Node000010" class="edge">
<title>Node4&#45;&gt;Node10</title>
<g id="a_edge10_Node000004_Node000010"><a xlink:title=" ">
<path fill="none" stroke="#63b8ff" d="M1005.38,-110.33C1005.38,-103.82 1005.38,-94.67 1005.38,-86.37"/>
<polygon fill="#63b8ff" stroke="#63b8ff" points="1008.88,-86.37 1005.38,-76.37 1001.88,-86.37 1008.88,-86.37"/>
</a>
</g>
</g>
<!-- Node6 -->
<g id="Node000006" class="node">
<title>Node6</title>
<g id="a_Node000006"><a xlink:title=" ">
<polygon fill="#e0e0e0" stroke="#999999" points="1449.25,-19.25 1393.5,-19.25 1393.5,0 1449.25,0 1449.25,-19.25"/>
<text text-anchor="middle" x="1421.38" y="-5.75" font-family="Helvetica,sans-Serif" font-size="10.00">concepts</text>
</a>
</g>
</g>
<!-- Node5&#45;&gt;Node6 -->
<g id="edge5_Node000005_Node000006" class="edge">
<title>Node5&#45;&gt;Node6</title>
<g id="a_edge5_Node000005_Node000006"><a xlink:title=" ">
<path fill="none" stroke="#63b8ff" d="M1398.83,-55.08C1402.33,-48.19 1407.32,-38.34 1411.72,-29.66"/>
<polygon fill="#63b8ff" stroke="#63b8ff" points="1414.73,-31.46 1416.14,-20.96 1408.49,-28.3 1414.73,-31.46"/>
</a>
</g>
</g>
<!-- Node5&#45;&gt;Node7 -->
<g id="edge6_Node000005_Node000007" class="edge">
<title>Node5&#45;&gt;Node7</title>
<g id="a_edge6_Node000005_Node000007"><a xlink:title=" ">
<path fill="none" stroke="#63b8ff" d="M1378.77,-54.84C1364.76,-46.73 1343.94,-34.68 1327.57,-25.21"/>
<polygon fill="#63b8ff" stroke="#63b8ff" points="1329.78,-22.44 1319.37,-20.46 1326.27,-28.5 1329.78,-22.44"/>
</a>
</g>
</g>
<!-- Node5&#45;&gt;Node8 -->
<g id="edge7_Node000005_Node000008" class="edge">
<title>Node5&#45;&gt;Node8</title>
<g id="a_edge7_Node000005_Node000008"><a xlink:title=" ">
<path fill="none" stroke="#63b8ff" d="M1330.08,-60.02C1152.91,-49.41 662.39,-20.03 535.6,-12.44"/>
<polygon fill="#63b8ff" stroke="#63b8ff" points="535.87,-8.95 525.68,-11.84 535.46,-15.93 535.87,-8.95"/>
</a>
</g>
</g>
<!-- Node9 -->
<g id="Node000009" class="node">
<title>Node9</title>
<g id="a_Node000009"><a xlink:title=" ">
<polygon fill="#e0e0e0" stroke="#999999" points="1554.88,-19.25 1493.88,-19.25 1493.88,0 1554.88,0 1554.88,-19.25"/>
<text text-anchor="middle" x="1524.38" y="-5.75" font-family="Helvetica,sans-Serif" font-size="10.00">type_traits</text>
</a>
</g>
</g>
<!-- Node5&#45;&gt;Node9 -->
<g id="edge8_Node000005_Node000009" class="edge">
<title>Node5&#45;&gt;Node9</title>
<g id="a_edge8_Node000005_Node000009"><a xlink:title=" ">
<path fill="none" stroke="#63b8ff" d="M1416.43,-54.84C1437.06,-46.39 1468.16,-33.65 1491.68,-24.02"/>
<polygon fill="#63b8ff" stroke="#63b8ff" points="1492.89,-27.31 1500.81,-20.28 1490.23,-20.83 1492.89,-27.31"/>
</a>
</g>
</g>
<!-- Node12&#45;&gt;Node6 -->
<g id="edge48_Node000012_Node000006" class="edge">
<title>Node12&#45;&gt;Node6</title>
<g id="a_edge48_Node000012_Node000006"><a xlink:title=" ">
<path fill="none" stroke="#63b8ff" d="M1017.92,-241.05C1170.32,-240.75 1530.57,-235.81 1567.38,-196.25 1576.61,-186.33 1572.25,-178.4 1567.38,-165.75 1555.47,-134.85 1490.38,-79.07 1467.38,-55.25 1458.31,-45.87 1447.9,-35.71 1439.27,-27.47"/>
<polygon fill="#63b8ff" stroke="#63b8ff" points="1441.83,-25.07 1432.17,-20.72 1437.01,-30.14 1441.83,-25.07"/>
</a>
</g>
</g>
<!-- Node12&#45;&gt;Node9 -->
<g id="edge49_Node000012_Node000009" class="edge">
<title>Node12&#45;&gt;Node9</title>
<g id="a_edge49_Node000012_Node000009"><a xlink:title=" ">
<path fill="none" stroke="#63b8ff" d="M1018.12,-240.35C1172.54,-238.56 1540.7,-230.68 1584.38,-196.25 1615.19,-171.96 1618.49,-147.48 1605.38,-110.5 1593.27,-76.35 1563.96,-45.36 1544.12,-27.25"/>
<polygon fill="#63b8ff" stroke="#63b8ff" points="1546.46,-24.65 1536.65,-20.65 1541.83,-29.89 1546.46,-24.65"/>
</a>
</g>
</g>
<!-- Node13 -->
<g id="Node000013" class="node">
<title>Node13</title>
<g id="a_Node000013"><a xlink:href="type_8hpp.xhtml" target="_top" xlink:title=" ">
<polygon fill="white" stroke="#666666" points="1478.75,-196.25 1354,-196.25 1354,-165.75 1478.75,-165.75 1478.75,-196.25"/>
<text text-anchor="start" x="1362" y="-182.75" font-family="Helvetica,sans-Serif" font-size="10.00">fcarouge/kalman_internal</text>
<text text-anchor="middle" x="1416.38" y="-171.5" font-family="Helvetica,sans-Serif" font-size="10.00">/type.hpp</text>
</a>
</g>
</g>
<!-- Node12&#45;&gt;Node13 -->
<g id="edge15_Node000012_Node000013" class="edge">
<title>Node12&#45;&gt;Node13</title>
<g id="a_edge15_Node000012_Node000013"><a xlink:title=" ">
<path fill="none" stroke="#63b8ff" d="M1017.83,-232.56C1089.63,-223.68 1206.54,-209.14 1307.38,-196.25 1318.71,-194.8 1330.7,-193.25 1342.43,-191.72"/>
<polygon fill="#63b8ff" stroke="#63b8ff" points="1342.59,-195.23 1352.06,-190.47 1341.69,-188.29 1342.59,-195.23"/>
</a>
</g>
</g>
<!-- Node15 -->
<g id="Node000015" class="node">
<title>Node15</title>
<g id="a_Node000015"><a xlink:href="x__z__p__q__r_8hpp.xhtml" target="_top" xlink:title=" ">
<polygon fill="white" stroke="#666666" points="1155.75,-196.25 1031,-196.25 1031,-165.75 1155.75,-165.75 1155.75,-196.25"/>
<text text-anchor="start" x="1039" y="-182.75" font-family="Helvetica,sans-Serif" font-size="10.00">fcarouge/kalman_internal</text>
<text text-anchor="middle" x="1093.38" y="-171.5" font-family="Helvetica,sans-Serif" font-size="10.00">/x_z_p_q_r.hpp</text>
</a>
</g>
</g>
<!-- Node12&#45;&gt;Node15 -->
<g id="edge19_Node000012_Node000015" class="edge">
<title>Node12&#45;&gt;Node15</title>
<g id="a_edge19_Node000012_Node000015"><a xlink:title=" ">
<path fill="none" stroke="#63b8ff" d="M972.41,-231.8C992.29,-223.62 1022.17,-211.31 1047.27,-200.98"/>
<polygon fill="#63b8ff" stroke="#63b8ff" points="1048.37,-204.31 1056.28,-197.27 1045.7,-197.84 1048.37,-204.31"/>
</a>
</g>
</g>
<!-- Node16 -->
<g id="Node000016" class="node">
<title>Node16</title>
<g id="a_Node000016"><a xlink:href="x__z__p__q__r__h__f_8hpp.xhtml" target="_top" xlink:title=" ">
<polygon fill="white" stroke="#666666" points="1298.75,-196.25 1174,-196.25 1174,-165.75 1298.75,-165.75 1298.75,-196.25"/>
<text text-anchor="start" x="1182" y="-182.75" font-family="Helvetica,sans-Serif" font-size="10.00">fcarouge/kalman_internal</text>
<text text-anchor="middle" x="1236.38" y="-171.5" font-family="Helvetica,sans-Serif" font-size="10.00">/x_z_p_q_r_h_f.hpp</text>
</a>
</g>
</g>
<!-- Node12&#45;&gt;Node16 -->
<g id="edge21_Node000012_Node000016" class="edge">
<title>Node12&#45;&gt;Node16</title>
<g id="a_edge21_Node000012_Node000016"><a xlink:title=" ">
<path fill="none" stroke="#63b8ff" d="M994.44,-231.8C1039.2,-222.59 1109.33,-208.15 1162.59,-197.19"/>
<polygon fill="#63b8ff" stroke="#63b8ff" points="1163.11,-200.66 1172.2,-195.21 1161.7,-193.8 1163.11,-200.66"/>
</a>
</g>
</g>
<!-- Node17 -->
<g id="Node000017" class="node">
<title>Node17</title>
<g id="a_Node000017"><a xlink:href="x__z__p__q__r__hh__us__ps_8hpp.xhtml" target="_top" xlink:title=" ">
<polygon fill="white" stroke="#666666" points="727.25,-196.25 599.5,-196.25 599.5,-165.75 727.25,-165.75 727.25,-196.25"/>
<text text-anchor="start" x="607.5" y="-182.75" font-family="Helvetica,sans-Serif" font-size="10.00">fcarouge/kalman_internal</text>
<text text-anchor="middle" x="663.38" y="-171.5" font-family="Helvetica,sans-Serif" font-size="10.00">/x_z_p_q_r_hh_us_ps.hpp</text>
</a>
</g>
</g>
<!-- Node12&#45;&gt;Node17 -->
<g id="edge23_Node000012_Node000017" class="edge">
<title>Node12&#45;&gt;Node17</title>
<g id="a_edge23_Node000012_Node000017"><a xlink:title=" ">
<path fill="none" stroke="#63b8ff" d="M906.16,-231.8C861.61,-222.67 792.01,-208.39 738.73,-197.46"/>
<polygon fill="#63b8ff" stroke="#63b8ff" points="739.61,-194.07 729.11,-195.48 738.2,-200.92 739.61,-194.07"/>
</a>
</g>
</g>
<!-- Node20 -->
<g id="Node000020" class="node">
<title>Node20</title>
<g id="a_Node000020"><a xlink:href="x__z__p__qq__rr__f_8hpp.xhtml" target="_top" xlink:title=" ">
<polygon fill="white" stroke="#666666" points="124.75,-196.25 0,-196.25 0,-165.75 124.75,-165.75 124.75,-196.25"/>
<text text-anchor="start" x="8" y="-182.75" font-family="Helvetica,sans-Serif" font-size="10.00">fcarouge/kalman_internal</text>
<text text-anchor="middle" x="62.38" y="-171.5" font-family="Helvetica,sans-Serif" font-size="10.00">/x_z_p_qq_rr_f.hpp</text>
</a>
</g>
</g>
<!-- Node12&#45;&gt;Node20 -->
<g id="edge28_Node000012_Node000020" class="edge">
<title>Node12&#45;&gt;Node20</title>
<g id="a_edge28_Node000012_Node000020"><a xlink:title=" ">
<path fill="none" stroke="#63b8ff" d="M882.65,-240.39C744.3,-238.69 419.18,-231.15 136.43,-196.37"/>
<polygon fill="#63b8ff" stroke="#63b8ff" points="136.98,-192.91 126.62,-195.15 136.11,-199.85 136.98,-192.91"/>
</a>
</g>
</g>
<!-- Node21 -->
<g id="Node000021" class="node">
<title>Node21</title>
<g id="a_Node000021"><a xlink:href="x__z__p__r_8hpp.xhtml" target="_top" xlink:title=" ">
<polygon fill="white" stroke="#666666" points="869.75,-196.25 745,-196.25 745,-165.75 869.75,-165.75 869.75,-196.25"/>
<text text-anchor="start" x="753" y="-182.75" font-family="Helvetica,sans-Serif" font-size="10.00">fcarouge/kalman_internal</text>
<text text-anchor="middle" x="807.38" y="-171.5" font-family="Helvetica,sans-Serif" font-size="10.00">/x_z_p_r.hpp</text>
</a>
</g>
</g>
<!-- Node12&#45;&gt;Node21 -->
<g id="edge32_Node000012_Node000021" class="edge">
<title>Node12&#45;&gt;Node21</title>
<g id="a_edge32_Node000012_Node000021"><a xlink:title=" ">
<path fill="none" stroke="#63b8ff" d="M928.34,-231.8C908.46,-223.62 878.58,-211.31 853.48,-200.98"/>
<polygon fill="#63b8ff" stroke="#63b8ff" points="855.05,-197.84 844.47,-197.27 852.38,-204.31 855.05,-197.84"/>
</a>
</g>
</g>
<!-- Node22 -->
<g id="Node000022" class="node">
<title>Node22</title>
<g id="a_Node000022"><a xlink:href="x__z__p__r__f_8hpp.xhtml" target="_top" xlink:title=" ">
<polygon fill="white" stroke="#666666" points="1012.75,-196.25 888,-196.25 888,-165.75 1012.75,-165.75 1012.75,-196.25"/>
<text text-anchor="start" x="896" y="-182.75" font-family="Helvetica,sans-Serif" font-size="10.00">fcarouge/kalman_internal</text>
<text text-anchor="middle" x="950.38" y="-171.5" font-family="Helvetica,sans-Serif" font-size="10.00">/x_z_p_r_f.hpp</text>
</a>
</g>
</g>
<!-- Node12&#45;&gt;Node22 -->
<g id="edge34_Node000012_Node000022" class="edge">
<title>Node12&#45;&gt;Node22</title>
<g id="a_edge34_Node000012_Node000022"><a xlink:title=" ">
<path fill="none" stroke="#63b8ff" d="M950.38,-231.93C950.38,-225.48 950.38,-216.41 950.38,-207.76"/>
<polygon fill="#63b8ff" stroke="#63b8ff" points="953.88,-208.05 950.38,-198.05 946.88,-208.05 953.88,-208.05"/>
</a>
</g>
</g>
<!-- Node23 -->
<g id="Node000023" class="node">
<title>Node23</title>
<g id="a_Node000023"><a xlink:href="x__z__u__p__q__r_8hpp.xhtml" target="_top" xlink:title=" ">
<polygon fill="white" stroke="#666666" points="267.75,-196.25 143,-196.25 143,-165.75 267.75,-165.75 267.75,-196.25"/>
<text text-anchor="start" x="151" y="-182.75" font-family="Helvetica,sans-Serif" font-size="10.00">fcarouge/kalman_internal</text>
<text text-anchor="middle" x="205.38" y="-171.5" font-family="Helvetica,sans-Serif" font-size="10.00">/x_z_u_p_q_r.hpp</text>
</a>
</g>
</g>
<!-- Node12&#45;&gt;Node23 -->
<g id="edge36_Node000012_Node000023" class="edge">
<title>Node12&#45;&gt;Node23</title>
<g id="a_edge36_Node000012_Node000023"><a xlink:title=" ">
<path fill="none" stroke="#63b8ff" d="M882.64,-239.34C762.8,-235.99 505.42,-225.89 279.11,-196.5"/>
<polygon fill="#63b8ff" stroke="#63b8ff" points="279.89,-193.07 269.52,-195.24 278.98,-200.01 279.89,-193.07"/>
</a>
</g>
</g>
<!-- Node24 -->
<g id="Node000024" class="node">
<title>Node24</title>
<g id="a_Node000024"><a xlink:href="x__z__u__p__q__r__f__g__ps_8hpp.xhtml" target="_top" xlink:title=" ">
<polygon fill="white" stroke="#666666" points="411.12,-196.25 285.62,-196.25 285.62,-165.75 411.12,-165.75 411.12,-196.25"/>
<text text-anchor="start" x="293.62" y="-182.75" font-family="Helvetica,sans-Serif" font-size="10.00">fcarouge/kalman_internal</text>
<text text-anchor="middle" x="348.38" y="-171.5" font-family="Helvetica,sans-Serif" font-size="10.00">/x_z_u_p_q_r_f_g_ps.hpp</text>
</a>
</g>
</g>
<!-- Node12&#45;&gt;Node24 -->
<g id="edge40_Node000012_Node000024" class="edge">
<title>Node12&#45;&gt;Node24</title>
<g id="a_edge40_Node000012_Node000024"><a xlink:title=" ">
<path fill="none" stroke="#63b8ff" d="M882.76,-237.6C783.92,-232.28 594.03,-220.03 422.78,-196.48"/>
<polygon fill="#63b8ff" stroke="#63b8ff" points="423.41,-193.03 413.02,-195.12 422.44,-199.97 423.41,-193.03"/>
</a>
</g>
</g>
<!-- Node25 -->
<g id="Node000025" class="node">
<title>Node25</title>
<g id="a_Node000025"><a xlink:href="x__z__u__p__q__r__h__f__g__us__ps_8hpp.xhtml" target="_top" xlink:title=" ">
<polygon fill="white" stroke="#666666" points="581.25,-196.25 429.5,-196.25 429.5,-165.75 581.25,-165.75 581.25,-196.25"/>
<text text-anchor="start" x="437.5" y="-182.75" font-family="Helvetica,sans-Serif" font-size="10.00">fcarouge/kalman_internal</text>
<text text-anchor="middle" x="505.38" y="-171.5" font-family="Helvetica,sans-Serif" font-size="10.00">/x_z_u_p_q_r_h_f_g_us_ps.hpp</text>
</a>
</g>
</g>
<!-- Node12&#45;&gt;Node25 -->
<g id="edge44_Node000012_Node000025" class="edge">
<title>Node12&#45;&gt;Node25</title>
<g id="a_edge44_Node000012_Node000025"><a xlink:title=" ">
<path fill="none" stroke="#63b8ff" d="M882.91,-233.39C812.97,-225.42 700.15,-212.03 592.73,-196.55"/>
<polygon fill="#63b8ff" stroke="#63b8ff" points="593.25,-193.09 582.85,-195.12 592.24,-200.02 593.25,-193.09"/>
</a>
</g>
</g>
<!-- Node13&#45;&gt;Node4 -->
<g id="edge16_Node000013_Node000004" class="edge">
<title>Node13&#45;&gt;Node4</title>
<g id="a_edge16_Node000013_Node000004"><a xlink:title=" ">
<path fill="none" stroke="#63b8ff" d="M1353.8,-167.99C1349.26,-167.21 1344.75,-166.45 1340.38,-165.75 1244.53,-150.39 1132.67,-136.25 1065.51,-128.16"/>
<polygon fill="#63b8ff" stroke="#63b8ff" points="1066.16,-124.72 1055.82,-127 1065.33,-131.67 1066.16,-124.72"/>
</a>
</g>
</g>
<!-- Node13&#45;&gt;Node9 -->
<g id="edge18_Node000013_Node000009" class="edge">
<title>Node13&#45;&gt;Node9</title>
<g id="a_edge18_Node000013_Node000009"><a xlink:title=" ">
<path fill="none" stroke="#63b8ff" d="M1425.77,-165.27C1445.4,-134.47 1490.76,-63.35 1512.43,-29.37"/>
<polygon fill="#63b8ff" stroke="#63b8ff" points="1515.33,-31.32 1517.75,-21.01 1509.42,-27.56 1515.33,-31.32"/>
</a>
</g>
</g>
<!-- Node14 -->
<g id="Node000014" class="node">
<title>Node14</title>
<g id="a_Node000014"><a xlink:title=" ">
<polygon fill="#e0e0e0" stroke="#999999" points="1198.12,-129.75 1126.62,-129.75 1126.62,-110.5 1198.12,-110.5 1198.12,-129.75"/>
<text text-anchor="middle" x="1162.38" y="-116.25" font-family="Helvetica,sans-Serif" font-size="10.00">initializer_list</text>
</a>
</g>
</g>
<!-- Node13&#45;&gt;Node14 -->
<g id="edge17_Node000013_Node000014" class="edge">
<title>Node13&#45;&gt;Node14</title>
<g id="a_edge17_Node000013_Node000014"><a xlink:title=" ">
<path fill="none" stroke="#63b8ff" d="M1353.59,-165.45C1309.1,-155.14 1250.35,-141.52 1209.77,-132.11"/>
<polygon fill="#63b8ff" stroke="#63b8ff" points="1210.58,-128.71 1200.05,-129.86 1209,-135.52 1210.58,-128.71"/>
</a>
</g>
</g>
<!-- Node15&#45;&gt;Node4 -->
<g id="edge20_Node000015_Node000004" class="edge">
<title>Node15&#45;&gt;Node4</title>
<g id="a_edge20_Node000015_Node000004"><a xlink:title=" ">
<path fill="none" stroke="#63b8ff" d="M1071.62,-165.45C1058.48,-156.65 1041.75,-145.46 1028.39,-136.52"/>
<polygon fill="#63b8ff" stroke="#63b8ff" points="1030.46,-133.69 1020.2,-131.04 1026.56,-139.51 1030.46,-133.69"/>
</a>
</g>
</g>
<!-- Node16&#45;&gt;Node4 -->
<g id="edge22_Node000016_Node000004" class="edge">
<title>Node16&#45;&gt;Node4</title>
<g id="a_edge22_Node000016_Node000004"><a xlink:title=" ">
<path fill="none" stroke="#63b8ff" d="M1178.68,-165.3C1139.56,-155.33 1088.53,-142.32 1051.99,-133"/>
<polygon fill="#63b8ff" stroke="#63b8ff" points="1053.16,-129.69 1042.61,-130.61 1051.43,-136.48 1053.16,-129.69"/>
</a>
</g>
</g>
<!-- Node17&#45;&gt;Node4 -->
<g id="edge24_Node000017_Node000004" class="edge">
<title>Node17&#45;&gt;Node4</title>
<g id="a_edge24_Node000017_Node000004"><a xlink:title=" ">
<path fill="none" stroke="#63b8ff" d="M727.45,-167.39C730.47,-166.83 733.45,-166.28 736.38,-165.75 808.14,-152.8 890.94,-139.27 945.51,-130.56"/>
<polygon fill="#63b8ff" stroke="#63b8ff" points="945.89,-134.04 955.21,-129.01 944.79,-127.13 945.89,-134.04"/>
</a>
</g>
</g>
<!-- Node17&#45;&gt;Node8 -->
<g id="edge27_Node000017_Node000008" class="edge">
<title>Node17&#45;&gt;Node8</title>
<g id="a_edge27_Node000017_Node000008"><a xlink:title=" ">
<path fill="none" stroke="#63b8ff" d="M649.63,-165.27C620.53,-134.07 552.83,-61.5 521.64,-28.06"/>
<polygon fill="#63b8ff" stroke="#63b8ff" points="524.29,-25.77 514.91,-20.84 519.17,-30.54 524.29,-25.77"/>
</a>
</g>
</g>
<!-- Node18 -->
<g id="Node000018" class="node">
<title>Node18</title>
<g id="a_Node000018"><a xlink:href="function_8hpp.xhtml" target="_top" xlink:title=" ">
<polygon fill="white" stroke="#666666" points="444.62,-129.75 376.12,-129.75 376.12,-110.5 444.62,-110.5 444.62,-129.75"/>
<text text-anchor="middle" x="410.38" y="-116.25" font-family="Helvetica,sans-Serif" font-size="10.00">function.hpp</text>
</a>
</g>
</g>
<!-- Node17&#45;&gt;Node18 -->
<g id="edge25_Node000017_Node000018" class="edge">
<title>Node17&#45;&gt;Node18</title>
<g id="a_edge25_Node000017_Node000018"><a xlink:title=" ">
<path fill="none" stroke="#63b8ff" d="M600.19,-165.3C555.33,-154.86 496.17,-141.09 455.89,-131.72"/>
<polygon fill="#63b8ff" stroke="#63b8ff" points="456.82,-128.34 446.28,-129.48 455.23,-135.16 456.82,-128.34"/>
</a>
</g>
</g>
<!-- Node19 -->
<g id="Node000019" class="node">
<title>Node19</title>
<g id="a_Node000019"><a xlink:title=" ">
<polygon fill="#e0e0e0" stroke="#999999" points="435.62,-74.5 385.12,-74.5 385.12,-55.25 435.62,-55.25 435.62,-74.5"/>
<text text-anchor="middle" x="410.38" y="-61" font-family="Helvetica,sans-Serif" font-size="10.00">memory</text>
</a>
</g>
</g>
<!-- Node18&#45;&gt;Node19 -->
<g id="edge26_Node000018_Node000019" class="edge">
<title>Node18&#45;&gt;Node19</title>
<g id="a_edge26_Node000018_Node000019"><a xlink:title=" ">
<path fill="none" stroke="#63b8ff" d="M410.38,-110.33C410.38,-103.82 410.38,-94.67 410.38,-86.37"/>
<polygon fill="#63b8ff" stroke="#63b8ff" points="413.88,-86.37 410.38,-76.37 406.88,-86.37 413.88,-86.37"/>
</a>
</g>
</g>
<!-- Node20&#45;&gt;Node4 -->
<g id="edge29_Node000020_Node000004" class="edge">
<title>Node20&#45;&gt;Node4</title>
<g id="a_edge29_Node000020_Node000004"><a xlink:title=" ">
<path fill="none" stroke="#63b8ff" d="M125.12,-167.03C128.24,-166.56 131.34,-166.13 134.38,-165.75 437.28,-128.21 803.22,-122.12 945.1,-121.23"/>
<polygon fill="#63b8ff" stroke="#63b8ff" points="945.03,-124.73 955.01,-121.17 945,-117.73 945.03,-124.73"/>
</a>
</g>
</g>
<!-- Node20&#45;&gt;Node8 -->
<g id="edge31_Node000020_Node000008" class="edge">
<title>Node20&#45;&gt;Node8</title>
<g id="a_edge31_Node000020_Node000008"><a xlink:title=" ">
<path fill="none" stroke="#63b8ff" d="M88.99,-165.26C135.78,-139.83 236.38,-87.38 326.38,-55.25 377.46,-37.01 439.29,-23.38 475.3,-16.23"/>
<polygon fill="#63b8ff" stroke="#63b8ff" points="475.83,-19.7 484.98,-14.35 474.49,-12.82 475.83,-19.7"/>
</a>
</g>
</g>
<!-- Node20&#45;&gt;Node18 -->
<g id="edge30_Node000020_Node000018" class="edge">
<title>Node20&#45;&gt;Node18</title>
<g id="a_edge30_Node000020_Node000018"><a xlink:title=" ">
<path fill="none" stroke="#63b8ff" d="M125.18,-167.44C128.29,-166.86 131.37,-166.29 134.38,-165.75 215.33,-151.2 310.03,-136.36 364.82,-127.99"/>
<polygon fill="#63b8ff" stroke="#63b8ff" points="365.03,-131.5 374.39,-126.53 363.98,-124.58 365.03,-131.5"/>
</a>
</g>
</g>
<!-- Node21&#45;&gt;Node4 -->
<g id="edge33_Node000021_Node000004" class="edge">
<title>Node21&#45;&gt;Node4</title>
<g id="a_edge33_Node000021_Node000004"><a xlink:title=" ">
<path fill="none" stroke="#63b8ff" d="M856.83,-165.3C889.78,-155.5 932.6,-142.77 963.79,-133.49"/>
<polygon fill="#63b8ff" stroke="#63b8ff" points="964.68,-136.88 973.27,-130.67 962.68,-130.17 964.68,-136.88"/>
</a>
</g>
</g>
<!-- Node22&#45;&gt;Node4 -->
<g id="edge35_Node000022_Node000004" class="edge">
<title>Node22&#45;&gt;Node4</title>
<g id="a_edge35_Node000022_Node000004"><a xlink:title=" ">
<path fill="none" stroke="#63b8ff" d="M963.97,-165.45C971.62,-157.26 981.22,-146.98 989.25,-138.39"/>
<polygon fill="#63b8ff" stroke="#63b8ff" points="991.59,-141 995.86,-131.31 986.48,-136.23 991.59,-141"/>
</a>
</g>
</g>
<!-- Node23&#45;&gt;Node4 -->
<g id="edge37_Node000023_Node000004" class="edge">
<title>Node23&#45;&gt;Node4</title>
<g id="a_edge37_Node000023_Node000004"><a xlink:title=" ">
<path fill="none" stroke="#63b8ff" d="M268.02,-166.94C270.84,-166.51 273.63,-166.11 276.38,-165.75 523.28,-133.57 820.34,-124.5 945.33,-122.02"/>
<polygon fill="#63b8ff" stroke="#63b8ff" points="945.08,-125.53 955.01,-121.84 944.95,-118.53 945.08,-125.53"/>
</a>
</g>
</g>
<!-- Node23&#45;&gt;Node8 -->
<g id="edge39_Node000023_Node000008" class="edge">
<title>Node23&#45;&gt;Node8</title>
<g id="a_edge39_Node000023_Node000008"><a xlink:title=" ">
<path fill="none" stroke="#63b8ff" d="M219.41,-165.54C245.11,-139.84 302.41,-86.03 360.38,-55.25 397.75,-35.4 445.33,-22.89 475.58,-16.32"/>
<polygon fill="#63b8ff" stroke="#63b8ff" points="476.09,-19.79 485.16,-14.33 474.66,-12.94 476.09,-19.79"/>
</a>
</g>
</g>
<!-- Node23&#45;&gt;Node18 -->
<g id="edge38_Node000023_Node000018" class="edge">
<title>Node23&#45;&gt;Node18</title>
<g id="a_edge38_Node000023_Node000018"><a xlink:title=" ">
<path fill="none" stroke="#63b8ff" d="M256.58,-165.3C290.84,-155.45 335.41,-142.65 367.75,-133.37"/>
<polygon fill="#63b8ff" stroke="#63b8ff" points="368.53,-136.78 377.18,-130.66 366.6,-130.05 368.53,-136.78"/>
</a>
</g>
</g>
<!-- Node24&#45;&gt;Node4 -->
<g id="edge41_Node000024_Node000004" class="edge">
<title>Node24&#45;&gt;Node4</title>
<g id="a_edge41_Node000024_Node000004"><a xlink:title=" ">
<path fill="none" stroke="#63b8ff" d="M411.52,-167.06C414.51,-166.59 417.47,-166.15 420.38,-165.75 611.03,-139.71 838.88,-127.8 945.19,-123.35"/>
<polygon fill="#63b8ff" stroke="#63b8ff" points="945.27,-126.85 955.12,-122.94 944.98,-119.85 945.27,-126.85"/>
</a>
</g>
</g>
<!-- Node24&#45;&gt;Node8 -->
<g id="edge43_Node000024_Node000008" class="edge">
<title>Node24&#45;&gt;Node8</title>
<g id="a_edge43_Node000024_Node000008"><a xlink:title=" ">
<path fill="none" stroke="#63b8ff" d="M347.38,-165.27C346.48,-139.62 348.42,-86.53 376.38,-55.25 401.63,-26.98 445.69,-16.62 475.2,-12.82"/>
<polygon fill="#63b8ff" stroke="#63b8ff" points="475.41,-16.32 484.97,-11.76 474.65,-9.36 475.41,-16.32"/>
</a>
</g>
</g>
<!-- Node24&#45;&gt;Node18 -->
<g id="edge42_Node000024_Node000018" class="edge">
<title>Node24&#45;&gt;Node18</title>
<g id="a_edge42_Node000024_Node000018"><a xlink:title=" ">
<path fill="none" stroke="#63b8ff" d="M363.7,-165.45C372.41,-157.17 383.37,-146.77 392.48,-138.12"/>
<polygon fill="#63b8ff" stroke="#63b8ff" points="394.88,-140.67 399.72,-131.24 390.06,-135.59 394.88,-140.67"/>
</a>
</g>
</g>
<!-- Node25&#45;&gt;Node4 -->
<g id="edge45_Node000025_Node000004" class="edge">
<title>Node25&#45;&gt;Node4</title>
<g id="a_edge45_Node000025_Node000004"><a xlink:title=" ">
<path fill="none" stroke="#63b8ff" d="M581.34,-167.04C584.39,-166.59 587.41,-166.16 590.38,-165.75 716.1,-148.47 864.04,-133.95 944.95,-126.5"/>
<polygon fill="#63b8ff" stroke="#63b8ff" points="945.24,-129.98 954.88,-125.59 944.6,-123.01 945.24,-129.98"/>
</a>
</g>
</g>
<!-- Node25&#45;&gt;Node8 -->
<g id="edge47_Node000025_Node000008" class="edge">
<title>Node25&#45;&gt;Node8</title>
<g id="a_edge47_Node000025_Node000008"><a xlink:title=" ">
<path fill="none" stroke="#63b8ff" d="M505.38,-165.27C505.38,-135.01 505.38,-65.8 505.38,-31.16"/>
<polygon fill="#63b8ff" stroke="#63b8ff" points="508.88,-31.25 505.38,-21.25 501.88,-31.25 508.88,-31.25"/>
</a>
</g>
</g>
<!-- Node25&#45;&gt;Node18 -->
<g id="edge46_Node000025_Node000018" class="edge">
<title>Node25&#45;&gt;Node18</title>
<g id="a_edge46_Node000025_Node000018"><a xlink:title=" ">
<path fill="none" stroke="#63b8ff" d="M481.89,-165.45C467.57,-156.57 449.29,-145.24 434.79,-136.26"/>
<polygon fill="#63b8ff" stroke="#63b8ff" points="436.65,-133.29 426.31,-131 432.96,-139.24 436.65,-133.29"/>
</a>
</g>
</g>
<!-- Node27 -->
<g id="Node000027" class="node">
<title>Node27</title>
<g id="a_Node000027"><a xlink:title=" ">
<polygon fill="#e0e0e0" stroke="#999999" points="1686.75,-190.62 1652,-190.62 1652,-171.38 1686.75,-171.38 1686.75,-190.62"/>
<text text-anchor="middle" x="1669.38" y="-177.12" font-family="Helvetica,sans-Serif" font-size="10.00">print</text>
</a>
</g>
</g>
<!-- Node26&#45;&gt;Node27 -->
<g id="edge51_Node000026_Node000027" class="edge">
<title>Node26&#45;&gt;Node27</title>
<g id="a_edge51_Node000026_Node000027"><a xlink:title=" ">
<path fill="none" stroke="#63b8ff" d="M1534.01,-231.82C1561.6,-223.41 1603.12,-210.13 1638.38,-196.25 1639.34,-195.87 1640.32,-195.48 1641.3,-195.07"/>
<polygon fill="#63b8ff" stroke="#63b8ff" points="1642.66,-198.3 1650.43,-191.09 1639.86,-191.88 1642.66,-198.3"/>
</a>
</g>
</g>
</g>
</svg>

<g id="navigator" transform="translate(0 0)" fill="#404254">
  <rect fill="#f2f5e9" fill-opacity="0.5" stroke="#606060" stroke-width=".5" x="0" y="0" width="60" height="60"/>
  <use id="zoomplus" xlink:href="#zoomPlus" x="17" y="9" onmousedown="handleZoom(evt,'in')"/>
  <use id="zoomminus" xlink:href="#zoomMin" x="42" y="9" onmousedown="handleZoom(evt,'out')"/>
  <use id="reset" xlink:href="#resetDef" x="30" y="36" onmousedown="handleReset()"/>
   <use id="arrowup" xlink:href="#arrowUp" x="0" y="0" onmousedown="handlePan(0,-1)"/>
  <use id="arrowright" xlink:href="#arrowRight" x="0" y="0" onmousedown="handlePan(1,0)"/>
  <use id="arrowdown" xlink:href="#arrowDown" x="0" y="0" onmousedown="handlePan(0,1)"/>
  <use id="arrowleft" xlink:href="#arrowLeft" x="0" y="0" onmousedown="handlePan(-1,0)"/>
</g>
<svg viewBox="0 0 15 15" width="100%" height="30px" preserveAspectRatio="xMaxYMin meet">
 <g id="arrow_out" transform="scale(0.3 0.3)">
  <a xlink:href="kalman__format_8cpp__incl_org.svg" target="_base">
   <rect id="button" ry="5" rx="5" y="6" x="6" height="38" width="38"
        fill="#f2f5e9" fill-opacity="0.5" stroke="#606060" stroke-width="1.0"/>
   <path id="arrow"
     d="M 11.500037,31.436501 C 11.940474,20.09759 22.043105,11.32322 32.158766,21.979434 L 37.068811,17.246167 C 37.068811,17.246167 37.088388,32 37.088388,32 L 22.160133,31.978069 C 22.160133,31.978069 26.997745,27.140456 26.997745,27.140456 C 18.528582,18.264221 13.291696,25.230495 11.500037,31.436501 z"
     style="fill:#404040;"/>
  </a>
 </g>
</svg>

<style type='text/css'>
<![CDATA[
[data-mouse-over-selected='false'] { opacity: 0.7; }
[data-mouse-over-selected='true']  { opacity: 1.0; }
]]>
</style>
<script type="application/ecmascript"><![CDATA[
document.addEventListener('DOMContentLoaded', (event) => {
  highlightEdges();
  highlightAdjacentNodes();
});
]]></script>
</svg>
