<?xml version="1.0" encoding="UTF-8" standalone="no"?>
<!DOCTYPE svg PUBLIC "-//W3C//DTD SVG 1.1//EN"
 "http://www.w3.org/Graphics/SVG/1.1/DTD/svg11.dtd">
<!-- Generated by graphviz version 3.0.0 (20221109.1736)
 -->
<!-- Title: /github/workspace/include/fcarouge/kalman.hpp Pages: 1 -->
<svg width="834pt" height="263pt"
 viewBox="0.00 0.00 834.00 263.00" xmlns="http://www.w3.org/2000/svg" xmlns:xlink="http://www.w3.org/1999/xlink">
<g id="graph0" class="graph" transform="scale(1 1) rotate(0) translate(4 259)">
<title>/github/workspace/include/fcarouge/kalman.hpp</title>
<polygon fill="white" stroke="transparent" points="-4,4 -4,-259 830,-259 830,4 -4,4"/>
<!-- Node1 -->
<g id="node1" class="node">
<title>Node1</title>
<g id="a_node1"><a xlink:title="The Kalman filter class and library top&#45;level header.">
<polygon fill="#bfbfbf" stroke="black" points="393,-224.5 393,-254.5 523,-254.5 523,-224.5 393,-224.5"/>
<text text-anchor="start" x="401" y="-242.5" font-family="Helvetica,sans-Serif" font-size="10.00">/github/workspace/include</text>
<text text-anchor="middle" x="458" y="-231.5" font-family="Helvetica,sans-Serif" font-size="10.00">/fcarouge/kalman.hpp</text>
</a>
</g>
</g>
<!-- Node2 -->
<g id="node2" class="node">
<title>Node2</title>
<g id="a_node2"><a xlink:href="algorithm_8hpp.xhtml" target="_top" xlink:title="The collection of Kalman algorithms.">
<polygon fill="white" stroke="black" points="0,-168.5 0,-187.5 74,-187.5 74,-168.5 0,-168.5"/>
<text text-anchor="middle" x="37" y="-175.5" font-family="Helvetica,sans-Serif" font-size="10.00">algorithm.hpp</text>
</a>
</g>
</g>
<!-- Node1&#45;&gt;Node2 -->
<g id="edge1" class="edge">
<title>Node1&#45;&gt;Node2</title>
<path fill="none" stroke="midnightblue" d="M392.72,-230.37C318.71,-220.98 194.49,-204.66 88,-188 86.73,-187.8 85.43,-187.6 84.13,-187.39"/>
<polygon fill="midnightblue" stroke="midnightblue" points="84.46,-183.89 74.02,-185.71 83.31,-190.8 84.46,-183.89"/>
</g>
<!-- Node3 -->
<g id="node3" class="node">
<title>Node3</title>
<g id="a_node3"><a xlink:href="format_8hpp.xhtml" target="_top" xlink:title=" ">
<polygon fill="white" stroke="black" points="236.5,-168.5 236.5,-187.5 333.5,-187.5 333.5,-168.5 236.5,-168.5"/>
<text text-anchor="middle" x="285" y="-175.5" font-family="Helvetica,sans-Serif" font-size="10.00">internal/format.hpp</text>
</a>
</g>
</g>
<!-- Node1&#45;&gt;Node3 -->
<g id="edge2" class="edge">
<title>Node1&#45;&gt;Node3</title>
<path fill="none" stroke="midnightblue" d="M417,-224.4C387.37,-214.21 347.77,-200.59 319.7,-190.93"/>
<polygon fill="midnightblue" stroke="midnightblue" points="320.52,-187.51 309.92,-187.57 318.24,-194.13 320.52,-187.51"/>
</g>
<!-- Node4 -->
<g id="node4" class="node">
<title>Node4</title>
<g id="a_node4"><a xlink:href="utility_8hpp.xhtml" target="_top" xlink:title="The collection of utilities supporting the library.">
<polygon fill="white" stroke="black" points="130,-112.5 130,-131.5 228,-131.5 228,-112.5 130,-112.5"/>
<text text-anchor="middle" x="179" y="-119.5" font-family="Helvetica,sans-Serif" font-size="10.00">fcarouge/utility.hpp</text>
</a>
</g>
</g>
<!-- Node1&#45;&gt;Node4 -->
<g id="edge14" class="edge">
<title>Node1&#45;&gt;Node4</title>
<path fill="none" stroke="midnightblue" d="M392.78,-236.44C343.73,-232.15 276.69,-220.2 227,-188 209.21,-176.47 195.7,-155.9 187.61,-140.98"/>
<polygon fill="midnightblue" stroke="midnightblue" points="190.55,-139.06 182.89,-131.74 184.32,-142.24 190.55,-139.06"/>
</g>
<!-- Node6 -->
<g id="node6" class="node">
<title>Node6</title>
<g id="a_node6"><a xlink:title=" ">
<polygon fill="white" stroke="#bfbfbf" points="145,-0.5 145,-19.5 201,-19.5 201,-0.5 145,-0.5"/>
<text text-anchor="middle" x="173" y="-7.5" font-family="Helvetica,sans-Serif" font-size="10.00">concepts</text>
</a>
</g>
</g>
<!-- Node1&#45;&gt;Node6 -->
<g id="edge15" class="edge">
<title>Node1&#45;&gt;Node6</title>
<path fill="none" stroke="midnightblue" d="M392.76,-232.89C339.94,-226.64 264.49,-213.8 203,-188 162.31,-170.92 141.61,-171.03 121,-132 101.8,-95.65 135.22,-50.67 156.82,-27.12"/>
<polygon fill="midnightblue" stroke="midnightblue" points="159.49,-29.38 163.86,-19.73 154.43,-24.55 159.49,-29.38"/>
</g>
<!-- Node7 -->
<g id="node7" class="node">
<title>Node7</title>
<g id="a_node7"><a xlink:title=" ">
<polygon fill="white" stroke="#bfbfbf" points="287,-0.5 287,-19.5 349,-19.5 349,-0.5 287,-0.5"/>
<text text-anchor="middle" x="318" y="-7.5" font-family="Helvetica,sans-Serif" font-size="10.00">type_traits</text>
</a>
</g>
</g>
<!-- Node1&#45;&gt;Node7 -->
<g id="edge18" class="edge">
<title>Node1&#45;&gt;Node7</title>
<path fill="none" stroke="midnightblue" d="M473.81,-224.17C497.57,-200.81 537.8,-153 519,-112 490.91,-50.72 409.32,-26.16 359.15,-16.66"/>
<polygon fill="midnightblue" stroke="midnightblue" points="359.71,-13.21 349.25,-14.91 358.49,-20.1 359.71,-13.21"/>
</g>
<!-- Node9 -->
<g id="node9" class="node">
<title>Node9</title>
<g id="a_node9"><a xlink:href="internal_2kalman_8hpp.xhtml" target="_top" xlink:title=" ">
<polygon fill="white" stroke="black" points="368.5,-168.5 368.5,-187.5 469.5,-187.5 469.5,-168.5 368.5,-168.5"/>
<text text-anchor="middle" x="419" y="-175.5" font-family="Helvetica,sans-Serif" font-size="10.00">internal/kalman.hpp</text>
</a>
</g>
</g>
<!-- Node1&#45;&gt;Node9 -->
<g id="edge9" class="edge">
<title>Node1&#45;&gt;Node9</title>
<path fill="none" stroke="midnightblue" d="M448.76,-224.4C443.21,-215.93 436.11,-205.1 430.23,-196.14"/>
<polygon fill="midnightblue" stroke="midnightblue" points="433.08,-194.1 424.67,-187.66 427.23,-197.94 433.08,-194.1"/>
</g>
<!-- Node13 -->
<g id="node13" class="node">
<title>Node13</title>
<g id="a_node13"><a xlink:title=" ">
<polygon fill="white" stroke="#bfbfbf" points="526.5,-168.5 526.5,-187.5 575.5,-187.5 575.5,-168.5 526.5,-168.5"/>
<text text-anchor="middle" x="551" y="-175.5" font-family="Helvetica,sans-Serif" font-size="10.00">cstddef</text>
</a>
</g>
</g>
<!-- Node1&#45;&gt;Node13 -->
<g id="edge16" class="edge">
<title>Node1&#45;&gt;Node13</title>
<path fill="none" stroke="midnightblue" d="M480.04,-224.4C494.81,-214.95 514.18,-202.56 528.95,-193.11"/>
<polygon fill="midnightblue" stroke="midnightblue" points="530.93,-196 537.47,-187.66 527.16,-190.1 530.93,-196"/>
</g>
<!-- Node14 -->
<g id="node14" class="node">
<title>Node14</title>
<g id="a_node14"><a xlink:title=" ">
<polygon fill="white" stroke="#bfbfbf" points="593.5,-168.5 593.5,-187.5 652.5,-187.5 652.5,-168.5 593.5,-168.5"/>
<text text-anchor="middle" x="623" y="-175.5" font-family="Helvetica,sans-Serif" font-size="10.00">functional</text>
</a>
</g>
</g>
<!-- Node1&#45;&gt;Node14 -->
<g id="edge17" class="edge">
<title>Node1&#45;&gt;Node14</title>
<path fill="none" stroke="midnightblue" d="M497.1,-224.4C525.16,-214.28 562.57,-200.79 589.31,-191.15"/>
<polygon fill="midnightblue" stroke="midnightblue" points="590.77,-194.34 598.99,-187.66 588.4,-187.76 590.77,-194.34"/>
</g>
<!-- Node15 -->
<g id="node15" class="node">
<title>Node15</title>
<g id="a_node15"><a xlink:title=" ">
<polygon fill="white" stroke="#bfbfbf" points="670.5,-168.5 670.5,-187.5 709.5,-187.5 709.5,-168.5 670.5,-168.5"/>
<text text-anchor="middle" x="690" y="-175.5" font-family="Helvetica,sans-Serif" font-size="10.00">utility</text>
</a>
</g>
</g>
<!-- Node1&#45;&gt;Node15 -->
<g id="edge19" class="edge">
<title>Node1&#45;&gt;Node15</title>
<path fill="none" stroke="midnightblue" d="M519.44,-224.45C557.7,-215.43 608.12,-203.06 660.64,-188.26"/>
<polygon fill="midnightblue" stroke="midnightblue" points="661.81,-191.57 670.47,-185.47 659.89,-184.83 661.81,-191.57"/>
</g>
<!-- Node16 -->
<g id="node16" class="node">
<title>Node16</title>
<g id="a_node16"><a xlink:title=" ">
<polygon fill="white" stroke="#bfbfbf" points="728,-168.5 728,-187.5 826,-187.5 826,-168.5 728,-168.5"/>
<text text-anchor="middle" x="777" y="-175.5" font-family="Helvetica,sans-Serif" font-size="10.00">internal/kalman.tpp</text>
</a>
</g>
</g>
<!-- Node1&#45;&gt;Node16 -->
<g id="edge20" class="edge">
<title>Node1&#45;&gt;Node16</title>
<path fill="none" stroke="midnightblue" d="M523.32,-226.32C581.67,-215.43 666.2,-199.67 721.38,-189.37"/>
<polygon fill="midnightblue" stroke="midnightblue" points="722.14,-192.79 731.33,-187.52 720.86,-185.91 722.14,-192.79"/>
</g>
<!-- Node3&#45;&gt;Node4 -->
<g id="edge3" class="edge">
<title>Node3&#45;&gt;Node4</title>
<path fill="none" stroke="midnightblue" d="M267.97,-168.32C250.97,-159.66 224.62,-146.24 205.01,-136.25"/>
<polygon fill="midnightblue" stroke="midnightblue" points="206.49,-133.08 195.99,-131.65 203.31,-139.31 206.49,-133.08"/>
</g>
<!-- Node3&#45;&gt;Node7 -->
<g id="edge8" class="edge">
<title>Node3&#45;&gt;Node7</title>
<path fill="none" stroke="midnightblue" d="M288.06,-168.48C291.19,-159.5 296,-144.91 299,-132 307.33,-96.23 313.07,-53.64 315.92,-29.72"/>
<polygon fill="midnightblue" stroke="midnightblue" points="319.42,-29.93 317.09,-19.59 312.47,-29.12 319.42,-29.93"/>
</g>
<!-- Node8 -->
<g id="node8" class="node">
<title>Node8</title>
<g id="a_node8"><a xlink:title=" ">
<polygon fill="white" stroke="#bfbfbf" points="246,-112.5 246,-131.5 290,-131.5 290,-112.5 246,-112.5"/>
<text text-anchor="middle" x="268" y="-119.5" font-family="Helvetica,sans-Serif" font-size="10.00">format</text>
</a>
</g>
</g>
<!-- Node3&#45;&gt;Node8 -->
<g id="edge7" class="edge">
<title>Node3&#45;&gt;Node8</title>
<path fill="none" stroke="midnightblue" d="M282.19,-168.08C279.92,-160.85 276.63,-150.41 273.79,-141.4"/>
<polygon fill="midnightblue" stroke="midnightblue" points="277.1,-140.24 270.75,-131.75 270.42,-142.34 277.1,-140.24"/>
</g>
<!-- Node5 -->
<g id="node5" class="node">
<title>Node5</title>
<g id="a_node5"><a xlink:href="internal_2utility_8hpp.xhtml" target="_top" xlink:title=" ">
<polygon fill="white" stroke="black" points="165,-56.5 165,-75.5 257,-75.5 257,-56.5 165,-56.5"/>
<text text-anchor="middle" x="211" y="-63.5" font-family="Helvetica,sans-Serif" font-size="10.00">internal/utility.hpp</text>
</a>
</g>
</g>
<!-- Node4&#45;&gt;Node5 -->
<g id="edge4" class="edge">
<title>Node4&#45;&gt;Node5</title>
<path fill="none" stroke="midnightblue" d="M184.28,-112.08C188.71,-104.61 195.16,-93.72 200.62,-84.52"/>
<polygon fill="midnightblue" stroke="midnightblue" points="203.73,-86.14 205.81,-75.75 197.71,-82.57 203.73,-86.14"/>
</g>
<!-- Node5&#45;&gt;Node6 -->
<g id="edge5" class="edge">
<title>Node5&#45;&gt;Node6</title>
<path fill="none" stroke="midnightblue" d="M204.73,-56.08C199.36,-48.46 191.48,-37.26 184.92,-27.94"/>
<polygon fill="midnightblue" stroke="midnightblue" points="187.78,-25.91 179.16,-19.75 182.05,-29.94 187.78,-25.91"/>
</g>
<!-- Node5&#45;&gt;Node7 -->
<g id="edge6" class="edge">
<title>Node5&#45;&gt;Node7</title>
<path fill="none" stroke="midnightblue" d="M228.19,-56.32C245.35,-47.66 271.95,-34.24 291.75,-24.25"/>
<polygon fill="midnightblue" stroke="midnightblue" points="293.5,-27.28 300.85,-19.65 290.35,-21.04 293.5,-27.28"/>
</g>
<!-- Node9&#45;&gt;Node5 -->
<g id="edge12" class="edge">
<title>Node9&#45;&gt;Node5</title>
<path fill="none" stroke="midnightblue" d="M403.53,-168.47C380.73,-155.93 336.74,-131.87 299,-112 278.25,-101.07 254.57,-88.99 237,-80.09"/>
<polygon fill="midnightblue" stroke="midnightblue" points="238.44,-76.9 227.93,-75.51 235.28,-83.14 238.44,-76.9"/>
</g>
<!-- Node10 -->
<g id="node10" class="node">
<title>Node10</title>
<g id="a_node10"><a xlink:href="function_8hpp.xhtml" target="_top" xlink:title=" ">
<polygon fill="white" stroke="black" points="384.5,-112.5 384.5,-131.5 453.5,-131.5 453.5,-112.5 384.5,-112.5"/>
<text text-anchor="middle" x="419" y="-119.5" font-family="Helvetica,sans-Serif" font-size="10.00">function.hpp</text>
</a>
</g>
</g>
<!-- Node9&#45;&gt;Node10 -->
<g id="edge10" class="edge">
<title>Node9&#45;&gt;Node10</title>
<path fill="none" stroke="midnightblue" d="M419,-168.08C419,-161.01 419,-150.86 419,-141.99"/>
<polygon fill="midnightblue" stroke="midnightblue" points="422.5,-141.75 419,-131.75 415.5,-141.75 422.5,-141.75"/>
</g>
<!-- Node12 -->
<g id="node12" class="node">
<title>Node12</title>
<g id="a_node12"><a xlink:title=" ">
<polygon fill="white" stroke="#bfbfbf" points="472,-112.5 472,-131.5 510,-131.5 510,-112.5 472,-112.5"/>
<text text-anchor="middle" x="491" y="-119.5" font-family="Helvetica,sans-Serif" font-size="10.00">tuple</text>
</a>
</g>
</g>
<!-- Node9&#45;&gt;Node12 -->
<g id="edge13" class="edge">
<title>Node9&#45;&gt;Node12</title>
<path fill="none" stroke="midnightblue" d="M430.57,-168.32C441.42,-160.18 457.88,-147.84 470.88,-138.09"/>
<polygon fill="midnightblue" stroke="midnightblue" points="473.32,-140.63 479.22,-131.83 469.12,-135.03 473.32,-140.63"/>
</g>
<!-- Node11 -->
<g id="node11" class="node">
<title>Node11</title>
<g id="a_node11"><a xlink:title=" ">
<polygon fill="white" stroke="#bfbfbf" points="393.5,-56.5 393.5,-75.5 444.5,-75.5 444.5,-56.5 393.5,-56.5"/>
<text text-anchor="middle" x="419" y="-63.5" font-family="Helvetica,sans-Serif" font-size="10.00">memory</text>
</a>
</g>
</g>
<!-- Node10&#45;&gt;Node11 -->
<g id="edge11" class="edge">
<title>Node10&#45;&gt;Node11</title>
<path fill="none" stroke="midnightblue" d="M419,-112.08C419,-105.01 419,-94.86 419,-85.99"/>
<polygon fill="midnightblue" stroke="midnightblue" points="422.5,-85.75 419,-75.75 415.5,-85.75 422.5,-85.75"/>
</g>
</g>
</svg>
