<?xml version="1.0" encoding="UTF-8" standalone="no"?>
<!DOCTYPE svg PUBLIC "-//W3C//DTD SVG 1.1//EN"
 "http://www.w3.org/Graphics/SVG/1.1/DTD/svg11.dtd">
<!-- Generated by graphviz version 2.49.3 (20211027.1534)
 -->
<!-- Title: include/fcarouge/internal/kalman_eigen_operator.hpp Pages: 1 -->
<svg width="213pt" height="151pt"
 viewBox="0.00 0.00 212.50 151.00" xmlns="http://www.w3.org/2000/svg" xmlns:xlink="http://www.w3.org/1999/xlink">
<g id="graph0" class="graph" transform="scale(1 1) rotate(0) translate(4 147)">
<title>include/fcarouge/internal/kalman_eigen_operator.hpp</title>
<polygon fill="white" stroke="transparent" points="-4,4 -4,-147 208.5,-147 208.5,4 -4,4"/>
<!-- Node1 -->
<g id="node1" class="node">
<title>Node1</title>
<g id="a_node1"><a xlink:title="Kalman operation for Eigen 3 types.">
<polygon fill="#bfbfbf" stroke="black" points="39.5,-112.5 39.5,-142.5 177.5,-142.5 177.5,-112.5 39.5,-112.5"/>
<text text-anchor="start" x="47.5" y="-130.5" font-family="Helvetica,sans-Serif" font-size="10.00">include/fcarouge/internal</text>
<text text-anchor="middle" x="108.5" y="-119.5" font-family="Helvetica,sans-Serif" font-size="10.00">/kalman_eigen_operator.hpp</text>
</a>
</g>
</g>
<!-- Node2 -->
<g id="node2" class="node">
<title>Node2</title>
<g id="a_node2"><a xlink:href="internal_2kalman_8hpp.xhtml" target="_top" xlink:title="The main Kalman filter class.">
<polygon fill="white" stroke="black" points="14.5,-56.5 14.5,-75.5 80.5,-75.5 80.5,-56.5 14.5,-56.5"/>
<text text-anchor="middle" x="47.5" y="-63.5" font-family="Helvetica,sans-Serif" font-size="10.00">kalman.hpp</text>
</a>
</g>
</g>
<!-- Node1&#45;&gt;Node2 -->
<g id="edge1" class="edge">
<title>Node1&#45;&gt;Node2</title>
<path fill="none" stroke="midnightblue" d="M94.04,-112.4C84.91,-103.49 73.08,-91.95 63.64,-82.74"/>
<polygon fill="midnightblue" stroke="midnightblue" points="65.98,-80.13 56.38,-75.66 61.09,-85.15 65.98,-80.13"/>
</g>
<!-- Node4 -->
<g id="node4" class="node">
<title>Node4</title>
<g id="a_node4"><a xlink:title=" ">
<polygon fill="white" stroke="#bfbfbf" points="77.5,-0.5 77.5,-19.5 139.5,-19.5 139.5,-0.5 77.5,-0.5"/>
<text text-anchor="middle" x="108.5" y="-7.5" font-family="Helvetica,sans-Serif" font-size="10.00">type_traits</text>
</a>
</g>
</g>
<!-- Node1&#45;&gt;Node4 -->
<g id="edge5" class="edge">
<title>Node1&#45;&gt;Node4</title>
<path fill="none" stroke="midnightblue" d="M108.5,-112.34C108.5,-91.62 108.5,-53.02 108.5,-29.9"/>
<polygon fill="midnightblue" stroke="midnightblue" points="112,-29.67 108.5,-19.67 105,-29.67 112,-29.67"/>
</g>
<!-- Node5 -->
<g id="node5" class="node">
<title>Node5</title>
<g id="a_node5"><a xlink:title=" ">
<polygon fill="white" stroke="#bfbfbf" points="136.5,-56.5 136.5,-75.5 204.5,-75.5 204.5,-56.5 136.5,-56.5"/>
<text text-anchor="middle" x="170.5" y="-63.5" font-family="Helvetica,sans-Serif" font-size="10.00">Eigen/Eigen</text>
</a>
</g>
</g>
<!-- Node1&#45;&gt;Node5 -->
<g id="edge4" class="edge">
<title>Node1&#45;&gt;Node5</title>
<path fill="none" stroke="midnightblue" d="M123.19,-112.4C132.48,-103.49 144.5,-91.95 154.1,-82.74"/>
<polygon fill="midnightblue" stroke="midnightblue" points="156.69,-85.11 161.48,-75.66 151.84,-80.06 156.69,-85.11"/>
</g>
<!-- Node3 -->
<g id="node3" class="node">
<title>Node3</title>
<g id="a_node3"><a xlink:title=" ">
<polygon fill="white" stroke="#bfbfbf" points="0,-0.5 0,-19.5 59,-19.5 59,-0.5 0,-0.5"/>
<text text-anchor="middle" x="29.5" y="-7.5" font-family="Helvetica,sans-Serif" font-size="10.00">functional</text>
</a>
</g>
</g>
<!-- Node2&#45;&gt;Node3 -->
<g id="edge2" class="edge">
<title>Node2&#45;&gt;Node3</title>
<path fill="none" stroke="midnightblue" d="M44.53,-56.08C42.12,-48.85 38.64,-38.41 35.63,-29.4"/>
<polygon fill="midnightblue" stroke="midnightblue" points="38.9,-28.13 32.42,-19.75 32.26,-30.34 38.9,-28.13"/>
</g>
<!-- Node2&#45;&gt;Node4 -->
<g id="edge3" class="edge">
<title>Node2&#45;&gt;Node4</title>
<path fill="none" stroke="midnightblue" d="M57.3,-56.32C66.32,-48.34 79.91,-36.31 90.82,-26.65"/>
<polygon fill="midnightblue" stroke="midnightblue" points="93.35,-29.08 98.52,-19.83 88.71,-23.84 93.35,-29.08"/>
</g>
</g>
</svg>
