<?xml version="1.0" encoding="UTF-8" standalone="no"?>
<!DOCTYPE svg PUBLIC "-//W3C//DTD SVG 1.1//EN"
 "http://www.w3.org/Graphics/SVG/1.1/DTD/svg11.dtd">
<!-- Generated by graphviz version 2.49.3 (20211027.1534)
 -->
<!-- Title: include/fcarouge/kalman.hpp Pages: 1 -->
<svg width="661pt" height="196pt"
 viewBox="0.00 0.00 660.50 196.00" xmlns="http://www.w3.org/2000/svg" xmlns:xlink="http://www.w3.org/1999/xlink">
<g id="graph0" class="graph" transform="scale(1 1) rotate(0) translate(4 192)">
<title>include/fcarouge/kalman.hpp</title>
<polygon fill="white" stroke="transparent" points="-4,4 -4,-192 656.5,-192 656.5,4 -4,4"/>
<!-- Node1 -->
<g id="node1" class="node">
<title>Node1</title>
<g id="a_node1"><a xlink:title="The main Kalman filter class.">
<polygon fill="#bfbfbf" stroke="black" points="276.5,-168.5 276.5,-187.5 416.5,-187.5 416.5,-168.5 276.5,-168.5"/>
<text text-anchor="middle" x="346.5" y="-175.5" font-family="Helvetica,sans-Serif" font-size="10.00">include/fcarouge/kalman.hpp</text>
</a>
</g>
</g>
<!-- Node2 -->
<g id="node2" class="node">
<title>Node2</title>
<g id="a_node2"><a xlink:href="format_8hpp.xhtml" target="_top" xlink:title=" ">
<polygon fill="white" stroke="black" points="0,-112.5 0,-131.5 97,-131.5 97,-112.5 0,-112.5"/>
<text text-anchor="middle" x="48.5" y="-119.5" font-family="Helvetica,sans-Serif" font-size="10.00">internal/format.hpp</text>
</a>
</g>
</g>
<!-- Node1&#45;&gt;Node2 -->
<g id="edge1" class="edge">
<title>Node1&#45;&gt;Node2</title>
<path fill="none" stroke="midnightblue" d="M299.28,-168.44C246.75,-158.92 161.89,-143.55 105.65,-133.36"/>
<polygon fill="midnightblue" stroke="midnightblue" points="105.96,-129.86 95.5,-131.52 104.71,-136.74 105.96,-129.86"/>
</g>
<!-- Node4 -->
<g id="node4" class="node">
<title>Node4</title>
<g id="a_node4"><a xlink:href="internal_2kalman_8hpp.xhtml" target="_top" xlink:title=" ">
<polygon fill="white" stroke="black" points="160,-112.5 160,-131.5 261,-131.5 261,-112.5 160,-112.5"/>
<text text-anchor="middle" x="210.5" y="-119.5" font-family="Helvetica,sans-Serif" font-size="10.00">internal/kalman.hpp</text>
</a>
</g>
</g>
<!-- Node1&#45;&gt;Node4 -->
<g id="edge3" class="edge">
<title>Node1&#45;&gt;Node4</title>
<path fill="none" stroke="midnightblue" d="M324.95,-168.44C302.47,-159.52 267.01,-145.44 241.52,-135.32"/>
<polygon fill="midnightblue" stroke="midnightblue" points="242.53,-131.95 231.95,-131.52 239.95,-138.46 242.53,-131.95"/>
</g>
<!-- Node5 -->
<g id="node5" class="node">
<title>Node5</title>
<g id="a_node5"><a xlink:href="utility_8hpp.xhtml" target="_top" xlink:title=" ">
<polygon fill="white" stroke="black" points="242,-56.5 242,-75.5 299,-75.5 299,-56.5 242,-56.5"/>
<text text-anchor="middle" x="270.5" y="-63.5" font-family="Helvetica,sans-Serif" font-size="10.00">utility.hpp</text>
</a>
</g>
</g>
<!-- Node1&#45;&gt;Node5 -->
<g id="edge10" class="edge">
<title>Node1&#45;&gt;Node5</title>
<path fill="none" stroke="midnightblue" d="M340.54,-168.37C327.99,-150.22 298.69,-107.8 282.24,-83.99"/>
<polygon fill="midnightblue" stroke="midnightblue" points="285,-81.83 276.44,-75.59 279.24,-85.81 285,-81.83"/>
</g>
<!-- Node6 -->
<g id="node6" class="node">
<title>Node6</title>
<g id="a_node6"><a xlink:title=" ">
<polygon fill="white" stroke="#bfbfbf" points="239.5,-0.5 239.5,-19.5 301.5,-19.5 301.5,-0.5 239.5,-0.5"/>
<text text-anchor="middle" x="270.5" y="-7.5" font-family="Helvetica,sans-Serif" font-size="10.00">type_traits</text>
</a>
</g>
</g>
<!-- Node1&#45;&gt;Node6 -->
<g id="edge14" class="edge">
<title>Node1&#45;&gt;Node6</title>
<path fill="none" stroke="midnightblue" d="M354.07,-168.35C371.44,-147.41 410.76,-93.01 385.5,-56 369.02,-31.85 337.45,-20.66 311.56,-15.47"/>
<polygon fill="midnightblue" stroke="midnightblue" points="312.05,-12.01 301.59,-13.71 310.83,-18.9 312.05,-12.01"/>
</g>
<!-- Node8 -->
<g id="node8" class="node">
<title>Node8</title>
<g id="a_node8"><a xlink:title=" ">
<polygon fill="white" stroke="#bfbfbf" points="80,-56.5 80,-75.5 129,-75.5 129,-56.5 80,-56.5"/>
<text text-anchor="middle" x="104.5" y="-63.5" font-family="Helvetica,sans-Serif" font-size="10.00">cstddef</text>
</a>
</g>
</g>
<!-- Node1&#45;&gt;Node8 -->
<g id="edge12" class="edge">
<title>Node1&#45;&gt;Node8</title>
<path fill="none" stroke="midnightblue" d="M276.34,-173.16C236.63,-168.12 187.63,-156.87 150.5,-132 133.14,-120.37 120.25,-99.82 112.6,-84.93"/>
<polygon fill="midnightblue" stroke="midnightblue" points="115.64,-83.2 108.15,-75.71 109.34,-86.24 115.64,-83.2"/>
</g>
<!-- Node9 -->
<g id="node9" class="node">
<title>Node9</title>
<g id="a_node9"><a xlink:title=" ">
<polygon fill="white" stroke="#bfbfbf" points="317,-56.5 317,-75.5 376,-75.5 376,-56.5 317,-56.5"/>
<text text-anchor="middle" x="346.5" y="-63.5" font-family="Helvetica,sans-Serif" font-size="10.00">functional</text>
</a>
</g>
</g>
<!-- Node1&#45;&gt;Node9 -->
<g id="edge13" class="edge">
<title>Node1&#45;&gt;Node9</title>
<path fill="none" stroke="midnightblue" d="M346.5,-168.37C346.5,-150.62 346.5,-109.67 346.5,-85.6"/>
<polygon fill="midnightblue" stroke="midnightblue" points="350,-85.59 346.5,-75.59 343,-85.59 350,-85.59"/>
</g>
<!-- Node10 -->
<g id="node10" class="node">
<title>Node10</title>
<g id="a_node10"><a xlink:title=" ">
<polygon fill="white" stroke="#bfbfbf" points="422.5,-112.5 422.5,-131.5 478.5,-131.5 478.5,-112.5 422.5,-112.5"/>
<text text-anchor="middle" x="450.5" y="-119.5" font-family="Helvetica,sans-Serif" font-size="10.00">concepts</text>
</a>
</g>
</g>
<!-- Node1&#45;&gt;Node10 -->
<g id="edge11" class="edge">
<title>Node1&#45;&gt;Node10</title>
<path fill="none" stroke="midnightblue" d="M363.21,-168.32C379.81,-159.7 405.5,-146.36 424.72,-136.39"/>
<polygon fill="midnightblue" stroke="midnightblue" points="426.57,-139.37 433.83,-131.65 423.34,-133.16 426.57,-139.37"/>
</g>
<!-- Node11 -->
<g id="node11" class="node">
<title>Node11</title>
<g id="a_node11"><a xlink:title=" ">
<polygon fill="white" stroke="#bfbfbf" points="497,-112.5 497,-131.5 536,-131.5 536,-112.5 497,-112.5"/>
<text text-anchor="middle" x="516.5" y="-119.5" font-family="Helvetica,sans-Serif" font-size="10.00">utility</text>
</a>
</g>
</g>
<!-- Node1&#45;&gt;Node11 -->
<g id="edge15" class="edge">
<title>Node1&#45;&gt;Node11</title>
<path fill="none" stroke="midnightblue" d="M373.44,-168.44C404.44,-158.6 455.19,-142.48 487.17,-132.32"/>
<polygon fill="midnightblue" stroke="midnightblue" points="488.37,-135.61 496.84,-129.24 486.25,-128.94 488.37,-135.61"/>
</g>
<!-- Node12 -->
<g id="node12" class="node">
<title>Node12</title>
<g id="a_node12"><a xlink:title=" ">
<polygon fill="white" stroke="#bfbfbf" points="554.5,-112.5 554.5,-131.5 652.5,-131.5 652.5,-112.5 554.5,-112.5"/>
<text text-anchor="middle" x="603.5" y="-119.5" font-family="Helvetica,sans-Serif" font-size="10.00">internal/kalman.tpp</text>
</a>
</g>
</g>
<!-- Node1&#45;&gt;Node12 -->
<g id="edge16" class="edge">
<title>Node1&#45;&gt;Node12</title>
<path fill="none" stroke="midnightblue" d="M387.22,-168.44C432.15,-159 504.5,-143.8 553,-133.61"/>
<polygon fill="midnightblue" stroke="midnightblue" points="553.9,-137 562.97,-131.52 552.46,-130.15 553.9,-137"/>
</g>
<!-- Node3 -->
<g id="node3" class="node">
<title>Node3</title>
<g id="a_node3"><a xlink:title=" ">
<polygon fill="white" stroke="#bfbfbf" points="17.5,-56.5 17.5,-75.5 61.5,-75.5 61.5,-56.5 17.5,-56.5"/>
<text text-anchor="middle" x="39.5" y="-63.5" font-family="Helvetica,sans-Serif" font-size="10.00">format</text>
</a>
</g>
</g>
<!-- Node2&#45;&gt;Node3 -->
<g id="edge2" class="edge">
<title>Node2&#45;&gt;Node3</title>
<path fill="none" stroke="midnightblue" d="M47.01,-112.08C45.82,-104.93 44.11,-94.64 42.62,-85.69"/>
<polygon fill="midnightblue" stroke="midnightblue" points="46.05,-85.04 40.96,-75.75 39.15,-86.19 46.05,-85.04"/>
</g>
<!-- Node4&#45;&gt;Node5 -->
<g id="edge4" class="edge">
<title>Node4&#45;&gt;Node5</title>
<path fill="none" stroke="midnightblue" d="M220.14,-112.32C229.01,-104.34 242.37,-92.31 253.11,-82.65"/>
<polygon fill="midnightblue" stroke="midnightblue" points="255.59,-85.13 260.68,-75.83 250.91,-79.92 255.59,-85.13"/>
</g>
<!-- Node4&#45;&gt;Node6 -->
<g id="edge9" class="edge">
<title>Node4&#45;&gt;Node6</title>
<path fill="none" stroke="midnightblue" d="M200.06,-112.34C186.05,-99.65 164.28,-75.4 176.5,-56 188.22,-37.4 209.98,-26.32 229.61,-19.81"/>
<polygon fill="midnightblue" stroke="midnightblue" points="230.76,-23.12 239.33,-16.89 228.74,-16.42 230.76,-23.12"/>
</g>
<!-- Node7 -->
<g id="node7" class="node">
<title>Node7</title>
<g id="a_node7"><a xlink:title=" ">
<polygon fill="white" stroke="#bfbfbf" points="185.5,-56.5 185.5,-75.5 223.5,-75.5 223.5,-56.5 185.5,-56.5"/>
<text text-anchor="middle" x="204.5" y="-63.5" font-family="Helvetica,sans-Serif" font-size="10.00">array</text>
</a>
</g>
</g>
<!-- Node4&#45;&gt;Node7 -->
<g id="edge6" class="edge">
<title>Node4&#45;&gt;Node7</title>
<path fill="none" stroke="midnightblue" d="M209.51,-112.08C208.71,-104.93 207.57,-94.64 206.58,-85.69"/>
<polygon fill="midnightblue" stroke="midnightblue" points="210.06,-85.3 205.47,-75.75 203.1,-86.08 210.06,-85.3"/>
</g>
<!-- Node4&#45;&gt;Node8 -->
<g id="edge7" class="edge">
<title>Node4&#45;&gt;Node8</title>
<path fill="none" stroke="midnightblue" d="M193.47,-112.32C176.47,-103.66 150.12,-90.24 130.51,-80.25"/>
<polygon fill="midnightblue" stroke="midnightblue" points="131.99,-77.08 121.49,-75.65 128.81,-83.31 131.99,-77.08"/>
</g>
<!-- Node4&#45;&gt;Node9 -->
<g id="edge8" class="edge">
<title>Node4&#45;&gt;Node9</title>
<path fill="none" stroke="midnightblue" d="M232.05,-112.44C254.53,-103.52 289.99,-89.44 315.48,-79.32"/>
<polygon fill="midnightblue" stroke="midnightblue" points="317.05,-82.46 325.05,-75.52 314.47,-75.95 317.05,-82.46"/>
</g>
<!-- Node5&#45;&gt;Node6 -->
<g id="edge5" class="edge">
<title>Node5&#45;&gt;Node6</title>
<path fill="none" stroke="midnightblue" d="M270.5,-56.08C270.5,-49.01 270.5,-38.86 270.5,-29.99"/>
<polygon fill="midnightblue" stroke="midnightblue" points="274,-29.75 270.5,-19.75 267,-29.75 274,-29.75"/>
</g>
</g>
</svg>
