<?xml version="1.0" encoding="UTF-8" standalone="no"?>
<!DOCTYPE svg PUBLIC "-//W3C//DTD SVG 1.1//EN"
 "http://www.w3.org/Graphics/SVG/1.1/DTD/svg11.dtd">
<!-- Generated by graphviz version 9.0.0 (20230911.1827)
 -->
<!-- Title: /github/workspace/test/kalman_println_1x1x0.cpp Pages: 1 -->
<svg width="1415pt" height="381pt"
 viewBox="0.00 0.00 1415.38 381.25" xmlns="http://www.w3.org/2000/svg" xmlns:xlink="http://www.w3.org/1999/xlink">
<g id="graph0" class="graph" transform="scale(1 1) rotate(0) translate(4 377.25)">
<title>/github/workspace/test/kalman_println_1x1x0.cpp</title>
<!-- Node1 -->
<g id="Node000001" class="node">
<title>Node1</title>
<g id="a_Node000001"><a xlink:title=" ">
<polygon fill="#999999" stroke="#666666" points="303.38,-373.25 173.38,-373.25 173.38,-342.75 303.38,-342.75 303.38,-373.25"/>
<text text-anchor="start" x="181.38" y="-359.75" font-family="Helvetica,sans-Serif" font-size="10.00">/github/workspace/test</text>
<text text-anchor="middle" x="238.38" y="-348.5" font-family="Helvetica,sans-Serif" font-size="10.00">/kalman_println_1x1x0.cpp</text>
</a>
</g>
</g>
<!-- Node2 -->
<g id="Node000002" class="node">
<title>Node2</title>
<g id="a_Node000002"><a xlink:href="kalman_8hpp.xhtml" target="_top" xlink:title="The Kalman filter class and library top&#45;level header.">
<polygon fill="white" stroke="#666666" points="291.38,-306.75 185.38,-306.75 185.38,-287.5 291.38,-287.5 291.38,-306.75"/>
<text text-anchor="middle" x="238.38" y="-293.25" font-family="Helvetica,sans-Serif" font-size="10.00">fcarouge/kalman.hpp</text>
</a>
</g>
</g>
<!-- Node1&#45;&gt;Node2 -->
<g id="edge1_Node000001_Node000002" class="edge">
<title>Node1&#45;&gt;Node2</title>
<g id="a_edge1_Node000001_Node000002"><a xlink:title=" ">
<path fill="none" stroke="#63b8ff" d="M238.38,-342.45C238.38,-335.21 238.38,-326.34 238.38,-318.44"/>
<polygon fill="#63b8ff" stroke="#63b8ff" points="241.88,-318.71 238.38,-308.71 234.88,-318.71 241.88,-318.71"/>
</a>
</g>
</g>
<!-- Node24 -->
<g id="Node000024" class="node">
<title>Node24</title>
<g id="a_Node000024"><a xlink:title=" ">
<polygon fill="#e0e0e0" stroke="#999999" points="34.75,-190.62 0,-190.62 0,-171.38 34.75,-171.38 34.75,-190.62"/>
<text text-anchor="middle" x="17.38" y="-177.12" font-family="Helvetica,sans-Serif" font-size="10.00">print</text>
</a>
</g>
</g>
<!-- Node1&#45;&gt;Node24 -->
<g id="edge51_Node000001_Node000024" class="edge">
<title>Node1&#45;&gt;Node24</title>
<g id="a_edge51_Node000001_Node000024"><a xlink:title=" ">
<path fill="none" stroke="#63b8ff" d="M172.91,-346.97C117.99,-334.73 42.84,-308.14 6.38,-251.5 -3.32,-236.44 1.7,-215.83 7.76,-200.97"/>
<polygon fill="#63b8ff" stroke="#63b8ff" points="10.75,-202.84 11.74,-192.29 4.39,-199.92 10.75,-202.84"/>
</a>
</g>
</g>
<!-- Node27 -->
<g id="Node000027" class="node">
<title>Node27</title>
<g id="a_Node000027"><a xlink:title=" ">
<polygon fill="#e0e0e0" stroke="#999999" points="357.5,-306.75 309.25,-306.75 309.25,-287.5 357.5,-287.5 357.5,-306.75"/>
<text text-anchor="middle" x="333.38" y="-293.25" font-family="Helvetica,sans-Serif" font-size="10.00">cassert</text>
</a>
</g>
</g>
<!-- Node1&#45;&gt;Node27 -->
<g id="edge50_Node000001_Node000027" class="edge">
<title>Node1&#45;&gt;Node27</title>
<g id="a_edge50_Node000001_Node000027"><a xlink:title=" ">
<path fill="none" stroke="#63b8ff" d="M261.86,-342.45C276.18,-333.57 294.46,-322.24 308.96,-313.26"/>
<polygon fill="#63b8ff" stroke="#63b8ff" points="310.79,-316.24 317.44,-308 307.1,-310.29 310.79,-316.24"/>
</a>
</g>
</g>
<!-- Node3 -->
<g id="Node000003" class="node">
<title>Node3</title>
<g id="a_Node000003"><a xlink:href="factory_8hpp.xhtml" target="_top" xlink:title=" ">
<polygon fill="white" stroke="#666666" points="845.25,-251.5 747.5,-251.5 747.5,-232.25 845.25,-232.25 845.25,-251.5"/>
<text text-anchor="middle" x="796.38" y="-238" font-family="Helvetica,sans-Serif" font-size="10.00">internal/factory.hpp</text>
</a>
</g>
</g>
<!-- Node2&#45;&gt;Node3 -->
<g id="edge2_Node000002_Node000003" class="edge">
<title>Node2&#45;&gt;Node3</title>
<g id="a_edge2_Node000002_Node000003"><a xlink:title=" ">
<path fill="none" stroke="#63b8ff" d="M291.79,-288.53C294.69,-288.17 297.57,-287.82 300.38,-287.5 457.05,-269.57 642.25,-254.53 735.8,-247.37"/>
<polygon fill="#63b8ff" stroke="#63b8ff" points="735.8,-250.88 745.51,-246.63 735.27,-243.9 735.8,-250.88"/>
</a>
</g>
</g>
<!-- Node5 -->
<g id="Node000005" class="node">
<title>Node5</title>
<g id="a_Node000005"><a xlink:href="utility_8hpp.xhtml" target="_top" xlink:title="The collection of utilities supporting the library.">
<polygon fill="white" stroke="#666666" points="987.88,-129.75 890.88,-129.75 890.88,-110.5 987.88,-110.5 987.88,-129.75"/>
<text text-anchor="middle" x="939.38" y="-116.25" font-family="Helvetica,sans-Serif" font-size="10.00">fcarouge/utility.hpp</text>
</a>
</g>
</g>
<!-- Node2&#45;&gt;Node5 -->
<g id="edge43_Node000002_Node000005" class="edge">
<title>Node2&#45;&gt;Node5</title>
<g id="a_edge43_Node000002_Node000005"><a xlink:title=" ">
<path fill="none" stroke="#63b8ff" d="M291.78,-288.44C294.68,-288.1 297.56,-287.79 300.38,-287.5 423.11,-274.99 738.62,-294.16 854.38,-251.5 892.89,-237.31 907.36,-231.51 928.38,-196.25 938.28,-179.63 940.44,-157.38 940.49,-141.41"/>
<polygon fill="#63b8ff" stroke="#63b8ff" points="943.99,-141.59 940.21,-131.69 936.99,-141.79 943.99,-141.59"/>
</a>
</g>
</g>
<!-- Node7 -->
<g id="Node000007" class="node">
<title>Node7</title>
<g id="a_Node000007"><a xlink:title=" ">
<polygon fill="#e0e0e0" stroke="#999999" points="1397.25,-19.25 1341.5,-19.25 1341.5,0 1397.25,0 1397.25,-19.25"/>
<text text-anchor="middle" x="1369.38" y="-5.75" font-family="Helvetica,sans-Serif" font-size="10.00">concepts</text>
</a>
</g>
</g>
<!-- Node2&#45;&gt;Node7 -->
<g id="edge44_Node000002_Node000007" class="edge">
<title>Node2&#45;&gt;Node7</title>
<g id="a_edge44_Node000002_Node000007"><a xlink:title=" ">
<path fill="none" stroke="#63b8ff" d="M291.78,-288.43C294.68,-288.09 297.56,-287.78 300.38,-287.5 423.32,-275.21 1407.38,-305.56 1407.38,-182 1407.38,-182 1407.38,-182 1407.38,-119.12 1407.38,-90.06 1403.47,-82.5 1393.38,-55.25 1390.09,-46.39 1385.34,-37.11 1380.93,-29.32"/>
<polygon fill="#63b8ff" stroke="#63b8ff" points="1383.99,-27.63 1375.88,-20.81 1377.97,-31.2 1383.99,-27.63"/>
</a>
</g>
</g>
<!-- Node9 -->
<g id="Node000009" class="node">
<title>Node9</title>
<g id="a_Node000009"><a xlink:title=" ">
<polygon fill="#e0e0e0" stroke="#999999" points="414.88,-19.25 353.88,-19.25 353.88,0 414.88,0 414.88,-19.25"/>
<text text-anchor="middle" x="384.38" y="-5.75" font-family="Helvetica,sans-Serif" font-size="10.00">type_traits</text>
</a>
</g>
</g>
<!-- Node2&#45;&gt;Node9 -->
<g id="edge47_Node000002_Node000009" class="edge">
<title>Node2&#45;&gt;Node9</title>
<g id="a_edge47_Node000002_Node000009"><a xlink:title=" ">
<path fill="none" stroke="#63b8ff" d="M211.78,-287.04C172.97,-271.88 105.38,-237.53 105.38,-182 105.38,-182 105.38,-182 105.38,-119.12 105.38,-68.85 264.75,-32.59 342.59,-17.88"/>
<polygon fill="#63b8ff" stroke="#63b8ff" points="342.77,-21.41 351.96,-16.14 341.49,-14.52 342.77,-21.41"/>
</a>
</g>
</g>
<!-- Node11 -->
<g id="Node000011" class="node">
<title>Node11</title>
<g id="a_Node000011"><a xlink:title=" ">
<polygon fill="#e0e0e0" stroke="#999999" points="375.62,-129.75 337.12,-129.75 337.12,-110.5 375.62,-110.5 375.62,-129.75"/>
<text text-anchor="middle" x="356.38" y="-116.25" font-family="Helvetica,sans-Serif" font-size="10.00">utility</text>
</a>
</g>
</g>
<!-- Node2&#45;&gt;Node11 -->
<g id="edge48_Node000002_Node000011" class="edge">
<title>Node2&#45;&gt;Node11</title>
<g id="a_edge48_Node000002_Node000011"><a xlink:title=" ">
<path fill="none" stroke="#63b8ff" d="M291.67,-287.64C331.13,-280.14 380.09,-267.86 392.38,-251.5 397.51,-244.66 393.71,-240.7 392.38,-232.25 387.14,-199.12 373.65,-162.42 364.75,-140.59"/>
<polygon fill="#63b8ff" stroke="#63b8ff" points="368.03,-139.37 360.94,-131.5 361.58,-142.08 368.03,-139.37"/>
</a>
</g>
</g>
<!-- Node20 -->
<g id="Node000020" class="node">
<title>Node20</title>
<g id="a_Node000020"><a xlink:href="format_8hpp.xhtml" target="_top" xlink:title=" ">
<polygon fill="white" stroke="#666666" points="294.5,-190.62 198.25,-190.62 198.25,-171.38 294.5,-171.38 294.5,-190.62"/>
<text text-anchor="middle" x="246.38" y="-177.12" font-family="Helvetica,sans-Serif" font-size="10.00">internal/format.hpp</text>
</a>
</g>
</g>
<!-- Node2&#45;&gt;Node20 -->
<g id="edge35_Node000002_Node000020" class="edge">
<title>Node2&#45;&gt;Node20</title>
<g id="a_edge35_Node000002_Node000020"><a xlink:title=" ">
<path fill="none" stroke="#63b8ff" d="M226.67,-287.1C212.72,-275.17 192.24,-253.18 200.38,-232.25 205.56,-218.91 216.11,-206.96 225.81,-198.06"/>
<polygon fill="#63b8ff" stroke="#63b8ff" points="227.82,-200.94 233.14,-191.78 223.27,-195.63 227.82,-200.94"/>
</a>
</g>
</g>
<!-- Node21 -->
<g id="Node000021" class="node">
<title>Node21</title>
<g id="a_Node000021"><a xlink:title=" ">
<polygon fill="#e0e0e0" stroke="#999999" points="181.5,-129.75 133.25,-129.75 133.25,-110.5 181.5,-110.5 181.5,-129.75"/>
<text text-anchor="middle" x="157.38" y="-116.25" font-family="Helvetica,sans-Serif" font-size="10.00">cstddef</text>
</a>
</g>
</g>
<!-- Node2&#45;&gt;Node21 -->
<g id="edge45_Node000002_Node000021" class="edge">
<title>Node2&#45;&gt;Node21</title>
<g id="a_edge45_Node000002_Node000021"><a xlink:title=" ">
<path fill="none" stroke="#63b8ff" d="M226.91,-287.02C217.2,-278.73 203.57,-265.65 195.38,-251.5 174.65,-215.74 164.49,-167.82 160.14,-141.16"/>
<polygon fill="#63b8ff" stroke="#63b8ff" points="163.63,-140.79 158.68,-131.42 156.71,-141.83 163.63,-140.79"/>
</a>
</g>
</g>
<!-- Node23 -->
<g id="Node000023" class="node">
<title>Node23</title>
<g id="a_Node000023"><a xlink:href="printer_8hpp.xhtml" target="_top" xlink:title=" ">
<polygon fill="white" stroke="#666666" points="76.88,-251.5 15.88,-251.5 15.88,-232.25 76.88,-232.25 76.88,-251.5"/>
<text text-anchor="middle" x="46.38" y="-238" font-family="Helvetica,sans-Serif" font-size="10.00">printer.hpp</text>
</a>
</g>
</g>
<!-- Node2&#45;&gt;Node23 -->
<g id="edge41_Node000002_Node000023" class="edge">
<title>Node2&#45;&gt;Node23</title>
<g id="a_edge41_Node000002_Node000023"><a xlink:title=" ">
<path fill="none" stroke="#63b8ff" d="M205.8,-287.09C173.37,-278.1 123.44,-264.25 88.11,-254.45"/>
<polygon fill="#63b8ff" stroke="#63b8ff" points="89.23,-251.13 78.65,-251.83 87.36,-257.87 89.23,-251.13"/>
</a>
</g>
</g>
<!-- Node25 -->
<g id="Node000025" class="node">
<title>Node25</title>
<g id="a_Node000025"><a xlink:title=" ">
<polygon fill="#e0e0e0" stroke="#999999" points="267.38,-251.5 209.38,-251.5 209.38,-232.25 267.38,-232.25 267.38,-251.5"/>
<text text-anchor="middle" x="238.38" y="-238" font-family="Helvetica,sans-Serif" font-size="10.00">functional</text>
</a>
</g>
</g>
<!-- Node2&#45;&gt;Node25 -->
<g id="edge46_Node000002_Node000025" class="edge">
<title>Node2&#45;&gt;Node25</title>
<g id="a_edge46_Node000002_Node000025"><a xlink:title=" ">
<path fill="none" stroke="#63b8ff" d="M238.38,-287.33C238.38,-280.82 238.38,-271.67 238.38,-263.37"/>
<polygon fill="#63b8ff" stroke="#63b8ff" points="241.88,-263.37 238.38,-253.37 234.88,-263.37 241.88,-263.37"/>
</a>
</g>
</g>
<!-- Node26 -->
<g id="Node000026" class="node">
<title>Node26</title>
<g id="a_Node000026"><a xlink:title=" ">
<polygon fill="#e0e0e0" stroke="#999999" points="383.25,-251.5 285.5,-251.5 285.5,-232.25 383.25,-232.25 383.25,-251.5"/>
<text text-anchor="middle" x="334.38" y="-238" font-family="Helvetica,sans-Serif" font-size="10.00">internal/kalman.tpp</text>
</a>
</g>
</g>
<!-- Node2&#45;&gt;Node26 -->
<g id="edge49_Node000002_Node000026" class="edge">
<title>Node2&#45;&gt;Node26</title>
<g id="a_edge49_Node000002_Node000026"><a xlink:title=" ">
<path fill="none" stroke="#63b8ff" d="M254.66,-287.09C269.28,-278.98 291,-266.93 308.08,-257.46"/>
<polygon fill="#63b8ff" stroke="#63b8ff" points="309.64,-260.6 316.69,-252.69 306.24,-254.48 309.64,-260.6"/>
</a>
</g>
</g>
<!-- Node4 -->
<g id="Node000004" class="node">
<title>Node4</title>
<g id="a_Node000004"><a xlink:href="type_8hpp.xhtml" target="_top" xlink:title=" ">
<polygon fill="white" stroke="#666666" points="553.88,-190.62 426.88,-190.62 426.88,-171.38 553.88,-171.38 553.88,-190.62"/>
<text text-anchor="middle" x="490.38" y="-177.12" font-family="Helvetica,sans-Serif" font-size="10.00">fcarouge/internal/type.hpp</text>
</a>
</g>
</g>
<!-- Node3&#45;&gt;Node4 -->
<g id="edge3_Node000003_Node000004" class="edge">
<title>Node3&#45;&gt;Node4</title>
<g id="a_edge3_Node000003_Node000004"><a xlink:title=" ">
<path fill="none" stroke="#63b8ff" d="M748.4,-231.83C701.09,-222.88 626.72,-208.75 562.38,-196.25 557.46,-195.29 552.35,-194.3 547.23,-193.29"/>
<polygon fill="#63b8ff" stroke="#63b8ff" points="548.04,-189.88 537.56,-191.39 546.69,-196.75 548.04,-189.88"/>
</a>
</g>
</g>
<!-- Node3&#45;&gt;Node7 -->
<g id="edge33_Node000003_Node000007" class="edge">
<title>Node3&#45;&gt;Node7</title>
<g id="a_edge33_Node000003_Node000007"><a xlink:title=" ">
<path fill="none" stroke="#63b8ff" d="M845.57,-240.43C974.49,-238.8 1314.69,-231.18 1350.38,-196.25 1395.1,-152.48 1383.15,-69.08 1374.59,-30.77"/>
<polygon fill="#63b8ff" stroke="#63b8ff" points="1378,-30.01 1372.25,-21.11 1371.2,-31.65 1378,-30.01"/>
</a>
</g>
</g>
<!-- Node3&#45;&gt;Node9 -->
<g id="edge34_Node000003_Node000009" class="edge">
<title>Node3&#45;&gt;Node9</title>
<g id="a_edge34_Node000003_Node000009"><a xlink:title=" ">
<path fill="none" stroke="#63b8ff" d="M747.34,-238.3C650.49,-232.76 441.96,-218.38 418.38,-196.25 394.61,-173.96 387.25,-74.25 385.15,-30.88"/>
<polygon fill="#63b8ff" stroke="#63b8ff" points="388.65,-30.95 384.73,-21.11 381.66,-31.25 388.65,-30.95"/>
</a>
</g>
</g>
<!-- Node12 -->
<g id="Node000012" class="node">
<title>Node12</title>
<g id="a_Node000012"><a xlink:href="x__z__p__q__r__h__f_8hpp.xhtml" target="_top" xlink:title=" ">
<polygon fill="white" stroke="#666666" points="667.12,-196.25 571.62,-196.25 571.62,-165.75 667.12,-165.75 667.12,-196.25"/>
<text text-anchor="start" x="579.62" y="-182.75" font-family="Helvetica,sans-Serif" font-size="10.00">fcarouge/internal/x</text>
<text text-anchor="middle" x="619.38" y="-171.5" font-family="Helvetica,sans-Serif" font-size="10.00">_z_p_q_r_h_f.hpp</text>
</a>
</g>
</g>
<!-- Node3&#45;&gt;Node12 -->
<g id="edge12_Node000003_Node000012" class="edge">
<title>Node3&#45;&gt;Node12</title>
<g id="a_edge12_Node000003_Node000012"><a xlink:title=" ">
<path fill="none" stroke="#63b8ff" d="M769.11,-231.8C743.95,-223.44 705.85,-210.76 674.38,-200.29"/>
<polygon fill="#63b8ff" stroke="#63b8ff" points="675.58,-197.01 664.99,-197.17 673.37,-203.65 675.58,-197.01"/>
</a>
</g>
</g>
<!-- Node13 -->
<g id="Node000013" class="node">
<title>Node13</title>
<g id="a_Node000013"><a xlink:href="x__z__p__q__r__hh__us__ps_8hpp.xhtml" target="_top" xlink:title=" ">
<polygon fill="white" stroke="#666666" points="919.5,-196.25 799.25,-196.25 799.25,-165.75 919.5,-165.75 919.5,-196.25"/>
<text text-anchor="start" x="807.25" y="-182.75" font-family="Helvetica,sans-Serif" font-size="10.00">fcarouge/internal/x</text>
<text text-anchor="middle" x="859.38" y="-171.5" font-family="Helvetica,sans-Serif" font-size="10.00">_z_p_q_r_hh_us_ps.hpp</text>
</a>
</g>
</g>
<!-- Node3&#45;&gt;Node13 -->
<g id="edge14_Node000003_Node000013" class="edge">
<title>Node3&#45;&gt;Node13</title>
<g id="a_edge14_Node000003_Node000013"><a xlink:title=" ">
<path fill="none" stroke="#63b8ff" d="M805.94,-231.93C813.8,-224.59 825.26,-213.88 835.55,-204.26"/>
<polygon fill="#63b8ff" stroke="#63b8ff" points="837.8,-206.95 842.72,-197.57 833.02,-201.84 837.8,-206.95"/>
</a>
</g>
</g>
<!-- Node16 -->
<g id="Node000016" class="node">
<title>Node16</title>
<g id="a_Node000016"><a xlink:href="x__z__p__qq__rr__f_8hpp.xhtml" target="_top" xlink:title=" ">
<polygon fill="white" stroke="#666666" points="1071.12,-196.25 975.62,-196.25 975.62,-165.75 1071.12,-165.75 1071.12,-196.25"/>
<text text-anchor="start" x="983.62" y="-182.75" font-family="Helvetica,sans-Serif" font-size="10.00">fcarouge/internal/x</text>
<text text-anchor="middle" x="1023.38" y="-171.5" font-family="Helvetica,sans-Serif" font-size="10.00">_z_p_qq_rr_f.hpp</text>
</a>
</g>
</g>
<!-- Node3&#45;&gt;Node16 -->
<g id="edge19_Node000003_Node000016" class="edge">
<title>Node3&#45;&gt;Node16</title>
<g id="a_edge19_Node000003_Node000016"><a xlink:title=" ">
<path fill="none" stroke="#63b8ff" d="M831.35,-231.8C866.74,-222.63 922.11,-208.26 964.32,-197.32"/>
<polygon fill="#63b8ff" stroke="#63b8ff" points="965.03,-200.75 973.83,-194.85 963.27,-193.97 965.03,-200.75"/>
</a>
</g>
</g>
<!-- Node17 -->
<g id="Node000017" class="node">
<title>Node17</title>
<g id="a_Node000017"><a xlink:href="x__z__p__r__f_8hpp.xhtml" target="_top" xlink:title=" ">
<polygon fill="white" stroke="#666666" points="781.12,-196.25 685.62,-196.25 685.62,-165.75 781.12,-165.75 781.12,-196.25"/>
<text text-anchor="start" x="693.62" y="-182.75" font-family="Helvetica,sans-Serif" font-size="10.00">fcarouge/internal/x</text>
<text text-anchor="middle" x="733.38" y="-171.5" font-family="Helvetica,sans-Serif" font-size="10.00">_z_p_r_f.hpp</text>
</a>
</g>
</g>
<!-- Node3&#45;&gt;Node17 -->
<g id="edge23_Node000003_Node000017" class="edge">
<title>Node3&#45;&gt;Node17</title>
<g id="a_edge23_Node000003_Node000017"><a xlink:title=" ">
<path fill="none" stroke="#63b8ff" d="M786.81,-231.93C778.95,-224.59 767.49,-213.88 757.2,-204.26"/>
<polygon fill="#63b8ff" stroke="#63b8ff" points="759.73,-201.84 750.03,-197.57 754.95,-206.95 759.73,-201.84"/>
</a>
</g>
</g>
<!-- Node18 -->
<g id="Node000018" class="node">
<title>Node18</title>
<g id="a_Node000018"><a xlink:href="x__z__u__p__q__r__f__g__ps_8hpp.xhtml" target="_top" xlink:title=" ">
<polygon fill="white" stroke="#666666" points="1207.38,-196.25 1089.38,-196.25 1089.38,-165.75 1207.38,-165.75 1207.38,-196.25"/>
<text text-anchor="start" x="1097.38" y="-182.75" font-family="Helvetica,sans-Serif" font-size="10.00">fcarouge/internal/x</text>
<text text-anchor="middle" x="1148.38" y="-171.5" font-family="Helvetica,sans-Serif" font-size="10.00">_z_u_p_q_r_f_g_ps.hpp</text>
</a>
</g>
</g>
<!-- Node3&#45;&gt;Node18 -->
<g id="edge25_Node000003_Node000018" class="edge">
<title>Node3&#45;&gt;Node18</title>
<g id="a_edge25_Node000003_Node000018"><a xlink:title=" ">
<path fill="none" stroke="#63b8ff" d="M845.5,-233.93C899.9,-226.06 990.45,-212.47 1077.88,-196.65"/>
<polygon fill="#63b8ff" stroke="#63b8ff" points="1078.37,-200.12 1087.58,-194.88 1077.12,-193.23 1078.37,-200.12"/>
</a>
</g>
</g>
<!-- Node19 -->
<g id="Node000019" class="node">
<title>Node19</title>
<g id="a_Node000019"><a xlink:href="x__z__u__p__q__r__us__ps_8hpp.xhtml" target="_top" xlink:title=" ">
<polygon fill="white" stroke="#666666" points="1340.88,-196.25 1225.88,-196.25 1225.88,-165.75 1340.88,-165.75 1340.88,-196.25"/>
<text text-anchor="start" x="1233.88" y="-182.75" font-family="Helvetica,sans-Serif" font-size="10.00">fcarouge/internal/x</text>
<text text-anchor="middle" x="1283.38" y="-171.5" font-family="Helvetica,sans-Serif" font-size="10.00">_z_u_p_q_r_us_ps.hpp</text>
</a>
</g>
</g>
<!-- Node3&#45;&gt;Node19 -->
<g id="edge29_Node000003_Node000019" class="edge">
<title>Node3&#45;&gt;Node19</title>
<g id="a_edge29_Node000003_Node000019"><a xlink:title=" ">
<path fill="none" stroke="#63b8ff" d="M845.73,-237.3C922.38,-231.38 1074.82,-218.16 1214.39,-196.45"/>
<polygon fill="#63b8ff" stroke="#63b8ff" points="1214.87,-199.91 1224.21,-194.9 1213.78,-193 1214.87,-199.91"/>
</a>
</g>
</g>
<!-- Node4&#45;&gt;Node5 -->
<g id="edge4_Node000004_Node000005" class="edge">
<title>Node4&#45;&gt;Node5</title>
<g id="a_edge4_Node000004_Node000005"><a xlink:title=" ">
<path fill="none" stroke="#63b8ff" d="M533.3,-170.94C542.85,-169.08 552.94,-167.24 562.38,-165.75 673.84,-148.15 804.83,-134.13 879.38,-126.78"/>
<polygon fill="#63b8ff" stroke="#63b8ff" points="879.29,-130.3 888.9,-125.84 878.61,-123.34 879.29,-130.3"/>
</a>
</g>
</g>
<!-- Node4&#45;&gt;Node9 -->
<g id="edge10_Node000004_Node000009" class="edge">
<title>Node4&#45;&gt;Node9</title>
<g id="a_edge10_Node000004_Node000009"><a xlink:title=" ">
<path fill="none" stroke="#63b8ff" d="M484.68,-170.89C467.92,-144.12 418.57,-65.26 395.94,-29.11"/>
<polygon fill="#63b8ff" stroke="#63b8ff" points="398.92,-27.27 390.65,-20.65 392.99,-30.98 398.92,-27.27"/>
</a>
</g>
</g>
<!-- Node10 -->
<g id="Node000010" class="node">
<title>Node10</title>
<g id="a_Node000010"><a xlink:title=" ">
<polygon fill="#e0e0e0" stroke="#999999" points="560.12,-129.75 488.62,-129.75 488.62,-110.5 560.12,-110.5 560.12,-129.75"/>
<text text-anchor="middle" x="524.38" y="-116.25" font-family="Helvetica,sans-Serif" font-size="10.00">initializer_list</text>
</a>
</g>
</g>
<!-- Node4&#45;&gt;Node10 -->
<g id="edge9_Node000004_Node000010" class="edge">
<title>Node4&#45;&gt;Node10</title>
<g id="a_edge9_Node000004_Node000010"><a xlink:title=" ">
<path fill="none" stroke="#63b8ff" d="M495.54,-171.06C500.28,-162.85 507.46,-150.41 513.48,-140"/>
<polygon fill="#63b8ff" stroke="#63b8ff" points="516.44,-141.87 518.41,-131.46 510.37,-138.37 516.44,-141.87"/>
</a>
</g>
</g>
<!-- Node4&#45;&gt;Node11 -->
<g id="edge11_Node000004_Node000011" class="edge">
<title>Node4&#45;&gt;Node11</title>
<g id="a_edge11_Node000004_Node000011"><a xlink:title=" ">
<path fill="none" stroke="#63b8ff" d="M469.73,-170.93C447.48,-161.15 411.84,-145.49 386.46,-134.35"/>
<polygon fill="#63b8ff" stroke="#63b8ff" points="387.9,-131.15 377.34,-130.34 385.08,-137.56 387.9,-131.15"/>
</a>
</g>
</g>
<!-- Node6 -->
<g id="Node000006" class="node">
<title>Node6</title>
<g id="a_Node000006"><a xlink:href="internal_2utility_8hpp.xhtml" target="_top" xlink:title=" ">
<polygon fill="white" stroke="#666666" points="985.88,-74.5 894.88,-74.5 894.88,-55.25 985.88,-55.25 985.88,-74.5"/>
<text text-anchor="middle" x="940.38" y="-61" font-family="Helvetica,sans-Serif" font-size="10.00">internal/utility.hpp</text>
</a>
</g>
</g>
<!-- Node5&#45;&gt;Node6 -->
<g id="edge5_Node000005_Node000006" class="edge">
<title>Node5&#45;&gt;Node6</title>
<g id="a_edge5_Node000005_Node000006"><a xlink:title=" ">
<path fill="none" stroke="#63b8ff" d="M939.54,-110.33C939.66,-103.82 939.83,-94.67 939.99,-86.37"/>
<polygon fill="#63b8ff" stroke="#63b8ff" points="943.49,-86.44 940.18,-76.37 936.49,-86.3 943.49,-86.44"/>
</a>
</g>
</g>
<!-- Node6&#45;&gt;Node7 -->
<g id="edge6_Node000006_Node000007" class="edge">
<title>Node6&#45;&gt;Node7</title>
<g id="a_edge6_Node000006_Node000007"><a xlink:title=" ">
<path fill="none" stroke="#63b8ff" d="M986.29,-58.18C1071.06,-47.65 1250.76,-25.35 1330.2,-15.49"/>
<polygon fill="#63b8ff" stroke="#63b8ff" points="1330.18,-19.02 1339.67,-14.31 1329.31,-12.07 1330.18,-19.02"/>
</a>
</g>
</g>
<!-- Node8 -->
<g id="Node000008" class="node">
<title>Node8</title>
<g id="a_Node000008"><a xlink:title=" ">
<polygon fill="#e0e0e0" stroke="#999999" points="996.88,-19.25 959.88,-19.25 959.88,0 996.88,0 996.88,-19.25"/>
<text text-anchor="middle" x="978.38" y="-5.75" font-family="Helvetica,sans-Serif" font-size="10.00">tuple</text>
</a>
</g>
</g>
<!-- Node6&#45;&gt;Node8 -->
<g id="edge7_Node000006_Node000008" class="edge">
<title>Node6&#45;&gt;Node8</title>
<g id="a_edge7_Node000006_Node000008"><a xlink:title=" ">
<path fill="none" stroke="#63b8ff" d="M946.65,-55.08C951.73,-47.96 959.07,-37.68 965.41,-28.8"/>
<polygon fill="#63b8ff" stroke="#63b8ff" points="968.12,-31.01 971.08,-20.84 962.43,-26.95 968.12,-31.01"/>
</a>
</g>
</g>
<!-- Node6&#45;&gt;Node9 -->
<g id="edge8_Node000006_Node000009" class="edge">
<title>Node6&#45;&gt;Node9</title>
<g id="a_edge8_Node000006_Node000009"><a xlink:title=" ">
<path fill="none" stroke="#63b8ff" d="M894.4,-59.47C788.54,-49.33 528.82,-24.46 426.65,-14.67"/>
<polygon fill="#63b8ff" stroke="#63b8ff" points="427.07,-11.2 416.78,-13.73 426.4,-18.17 427.07,-11.2"/>
</a>
</g>
</g>
<!-- Node12&#45;&gt;Node5 -->
<g id="edge13_Node000012_Node000005" class="edge">
<title>Node12&#45;&gt;Node5</title>
<g id="a_edge13_Node000012_Node000005"><a xlink:title=" ">
<path fill="none" stroke="#63b8ff" d="M667.52,-167.69C670.51,-167.01 673.48,-166.36 676.38,-165.75 745.63,-151.24 825.9,-138.15 879.37,-129.96"/>
<polygon fill="#63b8ff" stroke="#63b8ff" points="879.84,-133.43 889.19,-128.47 878.78,-126.51 879.84,-133.43"/>
</a>
</g>
</g>
<!-- Node13&#45;&gt;Node5 -->
<g id="edge15_Node000013_Node000005" class="edge">
<title>Node13&#45;&gt;Node5</title>
<g id="a_edge15_Node000013_Node000005"><a xlink:title=" ">
<path fill="none" stroke="#63b8ff" d="M879.15,-165.45C890.98,-156.74 906.01,-145.68 918.1,-136.78"/>
<polygon fill="#63b8ff" stroke="#63b8ff" points="919.84,-139.84 925.82,-131.1 915.69,-134.21 919.84,-139.84"/>
</a>
</g>
</g>
<!-- Node13&#45;&gt;Node8 -->
<g id="edge18_Node000013_Node000008" class="edge">
<title>Node13&#45;&gt;Node8</title>
<g id="a_edge18_Node000013_Node000008"><a xlink:title=" ">
<path fill="none" stroke="#63b8ff" d="M858.64,-165.6C858.11,-140.48 860.49,-88.18 886.38,-55.25 901.76,-35.68 927.9,-24.15 948.4,-17.74"/>
<polygon fill="#63b8ff" stroke="#63b8ff" points="949.28,-21.13 957.94,-15.02 947.36,-14.39 949.28,-21.13"/>
</a>
</g>
</g>
<!-- Node14 -->
<g id="Node000014" class="node">
<title>Node14</title>
<g id="a_Node000014"><a xlink:href="function_8hpp.xhtml" target="_top" xlink:title=" ">
<polygon fill="white" stroke="#666666" points="1117.62,-129.75 1049.12,-129.75 1049.12,-110.5 1117.62,-110.5 1117.62,-129.75"/>
<text text-anchor="middle" x="1083.38" y="-116.25" font-family="Helvetica,sans-Serif" font-size="10.00">function.hpp</text>
</a>
</g>
</g>
<!-- Node13&#45;&gt;Node14 -->
<g id="edge16_Node000013_Node000014" class="edge">
<title>Node13&#45;&gt;Node14</title>
<g id="a_edge16_Node000013_Node000014"><a xlink:title=" ">
<path fill="none" stroke="#63b8ff" d="M915.32,-165.3C953.09,-155.37 1002.32,-142.43 1037.72,-133.13"/>
<polygon fill="#63b8ff" stroke="#63b8ff" points="1038.45,-136.55 1047.23,-130.63 1036.67,-129.78 1038.45,-136.55"/>
</a>
</g>
</g>
<!-- Node15 -->
<g id="Node000015" class="node">
<title>Node15</title>
<g id="a_Node000015"><a xlink:title=" ">
<polygon fill="#e0e0e0" stroke="#999999" points="1108.62,-74.5 1058.12,-74.5 1058.12,-55.25 1108.62,-55.25 1108.62,-74.5"/>
<text text-anchor="middle" x="1083.38" y="-61" font-family="Helvetica,sans-Serif" font-size="10.00">memory</text>
</a>
</g>
</g>
<!-- Node14&#45;&gt;Node15 -->
<g id="edge17_Node000014_Node000015" class="edge">
<title>Node14&#45;&gt;Node15</title>
<g id="a_edge17_Node000014_Node000015"><a xlink:title=" ">
<path fill="none" stroke="#63b8ff" d="M1083.38,-110.33C1083.38,-103.82 1083.38,-94.67 1083.38,-86.37"/>
<polygon fill="#63b8ff" stroke="#63b8ff" points="1086.88,-86.37 1083.38,-76.37 1079.88,-86.37 1086.88,-86.37"/>
</a>
</g>
</g>
<!-- Node16&#45;&gt;Node5 -->
<g id="edge20_Node000016_Node000005" class="edge">
<title>Node16&#45;&gt;Node5</title>
<g id="a_edge20_Node000016_Node000005"><a xlink:title=" ">
<path fill="none" stroke="#63b8ff" d="M1002.61,-165.45C990.19,-156.74 974.41,-145.68 961.72,-136.78"/>
<polygon fill="#63b8ff" stroke="#63b8ff" points="963.76,-133.94 953.56,-131.07 959.74,-139.68 963.76,-133.94"/>
</a>
</g>
</g>
<!-- Node16&#45;&gt;Node8 -->
<g id="edge22_Node000016_Node000008" class="edge">
<title>Node16&#45;&gt;Node8</title>
<g id="a_edge22_Node000016_Node000008"><a xlink:title=" ">
<path fill="none" stroke="#63b8ff" d="M1020.84,-165.61C1016.56,-142.21 1007.21,-94.57 995.38,-55.25 992.87,-46.92 989.56,-37.92 986.53,-30.2"/>
<polygon fill="#63b8ff" stroke="#63b8ff" points="989.85,-29.08 982.85,-21.13 983.36,-31.71 989.85,-29.08"/>
</a>
</g>
</g>
<!-- Node16&#45;&gt;Node14 -->
<g id="edge21_Node000016_Node000014" class="edge">
<title>Node16&#45;&gt;Node14</title>
<g id="a_edge21_Node000016_Node000014"><a xlink:title=" ">
<path fill="none" stroke="#63b8ff" d="M1038.21,-165.45C1046.64,-157.17 1057.24,-146.77 1066.06,-138.12"/>
<polygon fill="#63b8ff" stroke="#63b8ff" points="1068.36,-140.76 1073.05,-131.26 1063.46,-135.77 1068.36,-140.76"/>
</a>
</g>
</g>
<!-- Node17&#45;&gt;Node5 -->
<g id="edge24_Node000017_Node000005" class="edge">
<title>Node17&#45;&gt;Node5</title>
<g id="a_edge24_Node000017_Node000005"><a xlink:title=" ">
<path fill="none" stroke="#63b8ff" d="M781.41,-166.27C816.34,-156.29 863.2,-142.9 896.79,-133.3"/>
<polygon fill="#63b8ff" stroke="#63b8ff" points="897.53,-136.73 906.18,-130.61 895.6,-129.99 897.53,-136.73"/>
</a>
</g>
</g>
<!-- Node18&#45;&gt;Node5 -->
<g id="edge26_Node000018_Node000005" class="edge">
<title>Node18&#45;&gt;Node5</title>
<g id="a_edge26_Node000018_Node000005"><a xlink:title=" ">
<path fill="none" stroke="#63b8ff" d="M1096.17,-165.3C1061.09,-155.41 1015.4,-142.54 982.41,-133.25"/>
<polygon fill="#63b8ff" stroke="#63b8ff" points="983.77,-129.99 973.19,-130.65 981.87,-136.73 983.77,-129.99"/>
</a>
</g>
</g>
<!-- Node18&#45;&gt;Node8 -->
<g id="edge28_Node000018_Node000008" class="edge">
<title>Node18&#45;&gt;Node8</title>
<g id="a_edge28_Node000018_Node000008"><a xlink:title=" ">
<path fill="none" stroke="#63b8ff" d="M1149.03,-165.58C1149.38,-139.94 1146.34,-86.22 1117.38,-55.25 1088.98,-24.88 1039.9,-15.11 1008.3,-12.01"/>
<polygon fill="#63b8ff" stroke="#63b8ff" points="1008.89,-8.54 998.64,-11.24 1008.33,-15.52 1008.89,-8.54"/>
</a>
</g>
</g>
<!-- Node18&#45;&gt;Node14 -->
<g id="edge27_Node000018_Node000014" class="edge">
<title>Node18&#45;&gt;Node14</title>
<g id="a_edge27_Node000018_Node000014"><a xlink:title=" ">
<path fill="none" stroke="#63b8ff" d="M1132.31,-165.45C1123.08,-157.09 1111.45,-146.55 1101.84,-137.85"/>
<polygon fill="#63b8ff" stroke="#63b8ff" points="1104.28,-135.34 1094.52,-131.22 1099.58,-140.52 1104.28,-135.34"/>
</a>
</g>
</g>
<!-- Node19&#45;&gt;Node5 -->
<g id="edge30_Node000019_Node000005" class="edge">
<title>Node19&#45;&gt;Node5</title>
<g id="a_edge30_Node000019_Node000005"><a xlink:title=" ">
<path fill="none" stroke="#63b8ff" d="M1225.67,-167.54C1222.53,-166.92 1219.41,-166.32 1216.38,-165.75 1141.79,-151.82 1055.41,-138.32 999.21,-129.88"/>
<polygon fill="#63b8ff" stroke="#63b8ff" points="999.94,-126.45 989.54,-128.44 998.91,-133.38 999.94,-126.45"/>
</a>
</g>
</g>
<!-- Node19&#45;&gt;Node8 -->
<g id="edge32_Node000019_Node000008" class="edge">
<title>Node19&#45;&gt;Node8</title>
<g id="a_edge32_Node000019_Node000008"><a xlink:title=" ">
<path fill="none" stroke="#63b8ff" d="M1270.41,-165.35C1246.61,-139.35 1193.26,-85.08 1137.38,-55.25 1095.48,-32.88 1041.22,-20.78 1008.15,-15.02"/>
<polygon fill="#63b8ff" stroke="#63b8ff" points="1008.92,-11.6 998.48,-13.42 1007.78,-18.5 1008.92,-11.6"/>
</a>
</g>
</g>
<!-- Node19&#45;&gt;Node14 -->
<g id="edge31_Node000019_Node000014" class="edge">
<title>Node19&#45;&gt;Node14</title>
<g id="a_edge31_Node000019_Node000014"><a xlink:title=" ">
<path fill="none" stroke="#63b8ff" d="M1233.42,-165.3C1200.14,-155.5 1156.89,-142.77 1125.38,-133.49"/>
<polygon fill="#63b8ff" stroke="#63b8ff" points="1126.37,-130.13 1115.79,-130.67 1124.4,-136.85 1126.37,-130.13"/>
</a>
</g>
</g>
<!-- Node20&#45;&gt;Node5 -->
<g id="edge36_Node000020_Node000005" class="edge">
<title>Node20&#45;&gt;Node5</title>
<g id="a_edge36_Node000020_Node000005"><a xlink:title=" ">
<path fill="none" stroke="#63b8ff" d="M294.83,-175.88C418.24,-165.4 744.16,-137.71 879.32,-126.23"/>
<polygon fill="#63b8ff" stroke="#63b8ff" points="879.47,-129.73 889.14,-125.39 878.88,-122.75 879.47,-129.73"/>
</a>
</g>
</g>
<!-- Node20&#45;&gt;Node8 -->
<g id="edge39_Node000020_Node000008" class="edge">
<title>Node20&#45;&gt;Node8</title>
<g id="a_edge39_Node000020_Node000008"><a xlink:title=" ">
<path fill="none" stroke="#63b8ff" d="M253.9,-170.97C267.19,-155.71 296.45,-125.05 328.38,-110.5 441.9,-58.74 835.35,-22.56 948.01,-13.09"/>
<polygon fill="#63b8ff" stroke="#63b8ff" points="948.29,-16.58 957.96,-12.26 947.71,-9.6 948.29,-16.58"/>
</a>
</g>
</g>
<!-- Node20&#45;&gt;Node9 -->
<g id="edge40_Node000020_Node000009" class="edge">
<title>Node20&#45;&gt;Node9</title>
<g id="a_edge40_Node000020_Node000009"><a xlink:title=" ">
<path fill="none" stroke="#63b8ff" d="M252.1,-171.21C260.95,-157.79 278.67,-131.54 295.38,-110.5 319.31,-80.35 349.56,-47.37 367.91,-27.87"/>
<polygon fill="#63b8ff" stroke="#63b8ff" points="370.29,-30.45 374.63,-20.78 365.21,-25.64 370.29,-30.45"/>
</a>
</g>
</g>
<!-- Node20&#45;&gt;Node21 -->
<g id="edge37_Node000020_Node000021" class="edge">
<title>Node20&#45;&gt;Node21</title>
<g id="a_edge37_Node000020_Node000021"><a xlink:title=" ">
<path fill="none" stroke="#63b8ff" d="M232.86,-171.06C219,-161.89 197.2,-147.47 180.58,-136.48"/>
<polygon fill="#63b8ff" stroke="#63b8ff" points="182.55,-133.58 172.28,-130.99 178.69,-139.42 182.55,-133.58"/>
</a>
</g>
</g>
<!-- Node22 -->
<g id="Node000022" class="node">
<title>Node22</title>
<g id="a_Node000022"><a xlink:title=" ">
<polygon fill="#e0e0e0" stroke="#999999" points="243.25,-129.75 199.5,-129.75 199.5,-110.5 243.25,-110.5 243.25,-129.75"/>
<text text-anchor="middle" x="221.38" y="-116.25" font-family="Helvetica,sans-Serif" font-size="10.00">format</text>
</a>
</g>
</g>
<!-- Node20&#45;&gt;Node22 -->
<g id="edge38_Node000020_Node000022" class="edge">
<title>Node20&#45;&gt;Node22</title>
<g id="a_edge38_Node000020_Node000022"><a xlink:title=" ">
<path fill="none" stroke="#63b8ff" d="M242.58,-171.06C239.16,-163.02 234.03,-150.93 229.67,-140.66"/>
<polygon fill="#63b8ff" stroke="#63b8ff" points="232.93,-139.38 225.8,-131.54 226.49,-142.12 232.93,-139.38"/>
</a>
</g>
</g>
<!-- Node23&#45;&gt;Node24 -->
<g id="edge42_Node000023_Node000024" class="edge">
<title>Node23&#45;&gt;Node24</title>
<g id="a_edge42_Node000023_Node000024"><a xlink:title=" ">
<path fill="none" stroke="#63b8ff" d="M41.97,-231.93C37.97,-223.81 31.93,-211.54 26.83,-201.2"/>
<polygon fill="#63b8ff" stroke="#63b8ff" points="30.05,-199.81 22.49,-192.38 23.77,-202.9 30.05,-199.81"/>
</a>
</g>
</g>
</g>
</svg>
