<?xml version="1.0" encoding="UTF-8" standalone="no"?>
<!DOCTYPE svg PUBLIC "-//W3C//DTD SVG 1.1//EN"
 "http://www.w3.org/Graphics/SVG/1.1/DTD/svg11.dtd">
<!-- Generated by graphviz version 12.2.0 (20241103.1931)
 -->
<!-- Title: /github/workspace/include/fcarouge/kalman.hpp Pages: 1 -->
<svg width="5853pt" height="116pt"
 viewBox="0.00 0.00 5852.88 116.25" xmlns="http://www.w3.org/2000/svg" xmlns:xlink="http://www.w3.org/1999/xlink">
<g id="graph0" class="graph" transform="scale(1 1) rotate(0) translate(4 112.25)">
<title>/github/workspace/include/fcarouge/kalman.hpp</title>
<!-- Node1 -->
<g id="Node000001" class="node">
<title>Node1</title>
<g id="a_Node000001"><a xlink:title="The Kalman filter class and library top&#45;level header.">
<polygon fill="#999999" stroke="#666666" points="3157,-108.25 3027.75,-108.25 3027.75,-77.75 3157,-77.75 3157,-108.25"/>
<text text-anchor="start" x="3035.75" y="-94.75" font-family="Helvetica,sans-Serif" font-size="10.00">/github/workspace/include</text>
<text text-anchor="middle" x="3092.38" y="-83.5" font-family="Helvetica,sans-Serif" font-size="10.00">/fcarouge/kalman.hpp</text>
</a>
</g>
</g>
<!-- Node2 -->
<g id="Node000002" class="node">
<title>Node2</title>
<g id="a_Node000002"><a xlink:href="ekf__4x1x0__thermal__soaring_8cpp.xhtml" target="_top" xlink:title=" ">
<polygon fill="white" stroke="#666666" points="154.75,-36.12 0,-36.12 0,-5.62 154.75,-5.62 154.75,-36.12"/>
<text text-anchor="start" x="8" y="-22.62" font-family="Helvetica,sans-Serif" font-size="10.00">/github/workspace/sample</text>
<text text-anchor="middle" x="77.38" y="-11.38" font-family="Helvetica,sans-Serif" font-size="10.00">/ekf_4x1x0_thermal_soaring.cpp</text>
</a>
</g>
</g>
<!-- Node1&#45;&gt;Node2 -->
<g id="edge1_Node000001_Node000002" class="edge">
<title>Node1&#45;&gt;Node2</title>
<g id="a_edge1_Node000001_Node000002"><a xlink:title=" ">
<path fill="none" stroke="#63b8ff" d="M3015.97,-91.65C2583.67,-89.53 453.43,-77.35 163.38,-41.75 153.49,-40.54 143.08,-38.66 133.05,-36.53"/>
<polygon fill="#63b8ff" stroke="#63b8ff" points="3015.83,-95.15 3025.85,-91.7 3015.87,-88.15 3015.83,-95.15"/>
</a>
</g>
</g>
<!-- Node3 -->
<g id="Node000003" class="node">
<title>Node3</title>
<g id="a_Node000003"><a xlink:href="ekf__6x4x0__3d__apollo__position_8cpp.xhtml" target="_top" xlink:title=" ">
<polygon fill="white" stroke="#666666" points="338.38,-36.12 172.38,-36.12 172.38,-5.62 338.38,-5.62 338.38,-36.12"/>
<text text-anchor="start" x="180.38" y="-22.62" font-family="Helvetica,sans-Serif" font-size="10.00">/github/workspace/sample</text>
<text text-anchor="middle" x="255.38" y="-11.38" font-family="Helvetica,sans-Serif" font-size="10.00">/ekf_6x4x0_3d_apollo_position.cpp</text>
</a>
</g>
</g>
<!-- Node1&#45;&gt;Node3 -->
<g id="edge2_Node000001_Node000003" class="edge">
<title>Node1&#45;&gt;Node3</title>
<g id="a_edge2_Node000001_Node000003"><a xlink:title=" ">
<path fill="none" stroke="#63b8ff" d="M3016.15,-91.49C2600.73,-88.59 618.41,-73.2 347.38,-41.75 336.99,-40.54 326.04,-38.7 315.47,-36.61"/>
<polygon fill="#63b8ff" stroke="#63b8ff" points="3015.87,-94.99 3025.9,-91.56 3015.92,-87.99 3015.87,-94.99"/>
</a>
</g>
</g>
<!-- Node4 -->
<g id="Node000004" class="node">
<title>Node4</title>
<g id="a_Node000004"><a xlink:href="kf__1x1x0__building__height_8cpp.xhtml" target="_top" xlink:title=" ">
<polygon fill="white" stroke="#666666" points="501.88,-36.12 356.88,-36.12 356.88,-5.62 501.88,-5.62 501.88,-36.12"/>
<text text-anchor="start" x="364.88" y="-22.62" font-family="Helvetica,sans-Serif" font-size="10.00">/github/workspace/sample</text>
<text text-anchor="middle" x="429.38" y="-11.38" font-family="Helvetica,sans-Serif" font-size="10.00">/kf_1x1x0_building_height.cpp</text>
</a>
</g>
</g>
<!-- Node1&#45;&gt;Node4 -->
<g id="edge3_Node000001_Node000004" class="edge">
<title>Node1&#45;&gt;Node4</title>
<g id="a_edge3_Node000001_Node000004"><a xlink:title=" ">
<path fill="none" stroke="#63b8ff" d="M3015.93,-91.51C2615.11,-88.79 764.79,-74.53 511.38,-41.75 502.08,-40.55 492.3,-38.7 482.87,-36.62"/>
<polygon fill="#63b8ff" stroke="#63b8ff" points="3015.82,-95.01 3025.85,-91.57 3015.87,-88.01 3015.82,-95.01"/>
</a>
</g>
</g>
<!-- Node5 -->
<g id="Node000005" class="node">
<title>Node5</title>
<g id="a_Node000005"><a xlink:href="kf__1x1x0__building__height__unit_8cpp.xhtml" target="_top" xlink:title=" ">
<polygon fill="white" stroke="#666666" points="650.38,-41.75 520.38,-41.75 520.38,0 650.38,0 650.38,-41.75"/>
<text text-anchor="start" x="528.38" y="-28.25" font-family="Helvetica,sans-Serif" font-size="10.00">/github/workspace/sample</text>
<text text-anchor="start" x="528.38" y="-17" font-family="Helvetica,sans-Serif" font-size="10.00">/kf_1x1x0_building_height</text>
<text text-anchor="middle" x="585.38" y="-5.75" font-family="Helvetica,sans-Serif" font-size="10.00">_unit.cpp</text>
</a>
</g>
</g>
<!-- Node1&#45;&gt;Node5 -->
<g id="edge4_Node000001_Node000005" class="edge">
<title>Node1&#45;&gt;Node5</title>
<g id="a_edge4_Node000001_Node000005"><a xlink:title=" ">
<path fill="none" stroke="#63b8ff" d="M3015.96,-91.52C2629.24,-88.95 896.95,-75.6 659.38,-41.75 656.48,-41.34 653.53,-40.85 650.57,-40.3"/>
<polygon fill="#63b8ff" stroke="#63b8ff" points="3015.74,-95.02 3025.76,-91.59 3015.78,-88.02 3015.74,-95.02"/>
</a>
</g>
</g>
<!-- Node6 -->
<g id="Node000006" class="node">
<title>Node6</title>
<g id="a_Node000006"><a xlink:href="kf__1x1x0__liquid__temperature_8cpp.xhtml" target="_top" xlink:title=" ">
<polygon fill="white" stroke="#666666" points="828.38,-36.12 668.38,-36.12 668.38,-5.62 828.38,-5.62 828.38,-36.12"/>
<text text-anchor="start" x="676.38" y="-22.62" font-family="Helvetica,sans-Serif" font-size="10.00">/github/workspace/sample</text>
<text text-anchor="middle" x="748.38" y="-11.38" font-family="Helvetica,sans-Serif" font-size="10.00">/kf_1x1x0_liquid_temperature.cpp</text>
</a>
</g>
</g>
<!-- Node1&#45;&gt;Node6 -->
<g id="edge5_Node000001_Node000006" class="edge">
<title>Node1&#45;&gt;Node6</title>
<g id="a_edge5_Node000001_Node000006"><a xlink:title=" ">
<path fill="none" stroke="#63b8ff" d="M3016.26,-92.32C2673.7,-93.46 1272.9,-94.71 837.38,-41.75 827.32,-40.53 816.72,-38.67 806.5,-36.58"/>
<polygon fill="#63b8ff" stroke="#63b8ff" points="3016.01,-95.82 3026,-92.29 3015.99,-88.82 3016.01,-95.82"/>
</a>
</g>
</g>
<!-- Node7 -->
<g id="Node000007" class="node">
<title>Node7</title>
<g id="a_Node000007"><a xlink:href="kf__1x1x0__liquid__temperature__unit_8cpp.xhtml" target="_top" xlink:title=" ">
<polygon fill="white" stroke="#666666" points="988.38,-41.75 846.38,-41.75 846.38,0 988.38,0 988.38,-41.75"/>
<text text-anchor="start" x="854.38" y="-28.25" font-family="Helvetica,sans-Serif" font-size="10.00">/github/workspace/sample</text>
<text text-anchor="start" x="854.38" y="-17" font-family="Helvetica,sans-Serif" font-size="10.00">/kf_1x1x0_liquid_temperature</text>
<text text-anchor="middle" x="917.38" y="-5.75" font-family="Helvetica,sans-Serif" font-size="10.00">_unit.cpp</text>
</a>
</g>
</g>
<!-- Node1&#45;&gt;Node7 -->
<g id="edge6_Node000001_Node000007" class="edge">
<title>Node1&#45;&gt;Node7</title>
<g id="a_edge6_Node000001_Node000007"><a xlink:title=" ">
<path fill="none" stroke="#63b8ff" d="M3016.06,-92.41C2688.35,-93.83 1399.04,-95.79 997.38,-41.75 994.54,-41.37 991.66,-40.92 988.75,-40.43"/>
<polygon fill="#63b8ff" stroke="#63b8ff" points="3015.81,-95.91 3025.79,-92.37 3015.78,-88.91 3015.81,-95.91"/>
</a>
</g>
</g>
<!-- Node8 -->
<g id="Node000008" class="node">
<title>Node8</title>
<g id="a_Node000008"><a xlink:href="kf__1x1x1__1d__dog__position_8cpp.xhtml" target="_top" xlink:title=" ">
<polygon fill="white" stroke="#666666" points="1157.88,-36.12 1006.88,-36.12 1006.88,-5.62 1157.88,-5.62 1157.88,-36.12"/>
<text text-anchor="start" x="1014.88" y="-22.62" font-family="Helvetica,sans-Serif" font-size="10.00">/github/workspace/sample</text>
<text text-anchor="middle" x="1082.38" y="-11.38" font-family="Helvetica,sans-Serif" font-size="10.00">/kf_1x1x1_1d_dog_position.cpp</text>
</a>
</g>
</g>
<!-- Node1&#45;&gt;Node8 -->
<g id="edge7_Node000001_Node000008" class="edge">
<title>Node1&#45;&gt;Node8</title>
<g id="a_edge7_Node000001_Node000008"><a xlink:title=" ">
<path fill="none" stroke="#63b8ff" d="M3016.41,-92.11C2706.08,-92.23 1533.55,-89.46 1166.38,-41.75 1156.86,-40.51 1146.86,-38.65 1137.2,-36.56"/>
<polygon fill="#63b8ff" stroke="#63b8ff" points="3016.01,-95.61 3026.01,-92.1 3016.01,-88.61 3016.01,-95.61"/>
</a>
</g>
</g>
<!-- Node9 -->
<g id="Node000009" class="node">
<title>Node9</title>
<g id="a_Node000009"><a xlink:href="kf__1x1x1__1d__dog__position__unit_8cpp.xhtml" target="_top" xlink:title=" ">
<polygon fill="white" stroke="#666666" points="1308.88,-41.75 1175.88,-41.75 1175.88,0 1308.88,0 1308.88,-41.75"/>
<text text-anchor="start" x="1183.88" y="-28.25" font-family="Helvetica,sans-Serif" font-size="10.00">/github/workspace/sample</text>
<text text-anchor="start" x="1183.88" y="-17" font-family="Helvetica,sans-Serif" font-size="10.00">/kf_1x1x1_1d_dog_position</text>
<text text-anchor="middle" x="1242.38" y="-5.75" font-family="Helvetica,sans-Serif" font-size="10.00">_unit.cpp</text>
</a>
</g>
</g>
<!-- Node1&#45;&gt;Node9 -->
<g id="edge8_Node000001_Node000009" class="edge">
<title>Node1&#45;&gt;Node9</title>
<g id="a_edge8_Node000001_Node000009"><a xlink:title=" ">
<path fill="none" stroke="#63b8ff" d="M3016.15,-92.15C2721.07,-92.35 1653.6,-89.69 1318.38,-41.75 1315.4,-41.33 1312.38,-40.83 1309.34,-40.27"/>
<polygon fill="#63b8ff" stroke="#63b8ff" points="3016.05,-95.65 3026.05,-92.14 3016.04,-88.65 3016.05,-95.65"/>
</a>
</g>
</g>
<!-- Node10 -->
<g id="Node000010" class="node">
<title>Node10</title>
<g id="a_Node000010"><a xlink:href="kf__2x1x1__1d__rocket__altitude_8cpp.xhtml" target="_top" xlink:title=" ">
<polygon fill="white" stroke="#666666" points="1487.38,-36.12 1327.38,-36.12 1327.38,-5.62 1487.38,-5.62 1487.38,-36.12"/>
<text text-anchor="start" x="1335.38" y="-22.62" font-family="Helvetica,sans-Serif" font-size="10.00">/github/workspace/sample</text>
<text text-anchor="middle" x="1407.38" y="-11.38" font-family="Helvetica,sans-Serif" font-size="10.00">/kf_2x1x1_1d_rocket_altitude.cpp</text>
</a>
</g>
</g>
<!-- Node1&#45;&gt;Node10 -->
<g id="edge9_Node000001_Node000010" class="edge">
<title>Node1&#45;&gt;Node10</title>
<g id="a_edge9_Node000001_Node000010"><a xlink:title=" ">
<path fill="none" stroke="#63b8ff" d="M3016.18,-91.5C2740.54,-89.4 1795.82,-79.56 1496.38,-41.75 1486.48,-40.5 1476.06,-38.66 1465.98,-36.6"/>
<polygon fill="#63b8ff" stroke="#63b8ff" points="3016.1,-95 3026.12,-91.58 3016.15,-88 3016.1,-95"/>
</a>
</g>
</g>
<!-- Node11 -->
<g id="Node000011" class="node">
<title>Node11</title>
<g id="a_Node000011"><a xlink:href="kf__6x2x0__2d__vehicle__position_8cpp.xhtml" target="_top" xlink:title=" ">
<polygon fill="white" stroke="#666666" points="1671.38,-36.12 1505.38,-36.12 1505.38,-5.62 1671.38,-5.62 1671.38,-36.12"/>
<text text-anchor="start" x="1513.38" y="-22.62" font-family="Helvetica,sans-Serif" font-size="10.00">/github/workspace/sample</text>
<text text-anchor="middle" x="1588.38" y="-11.38" font-family="Helvetica,sans-Serif" font-size="10.00">/kf_6x2x0_2d_vehicle_position.cpp</text>
</a>
</g>
</g>
<!-- Node1&#45;&gt;Node11 -->
<g id="edge10_Node000001_Node000011" class="edge">
<title>Node1&#45;&gt;Node11</title>
<g id="a_edge10_Node000001_Node000011"><a xlink:title=" ">
<path fill="none" stroke="#63b8ff" d="M3016.14,-91.07C2761.59,-87.68 1942.27,-74.44 1680.38,-41.75 1670.16,-40.48 1659.4,-38.62 1648.98,-36.56"/>
<polygon fill="#63b8ff" stroke="#63b8ff" points="3015.92,-94.57 3025.96,-91.2 3016.01,-87.57 3015.92,-94.57"/>
</a>
</g>
</g>
<!-- Node12 -->
<g id="Node000012" class="node">
<title>Node12</title>
<g id="a_Node000012"><a xlink:href="kf__6x2x0__2d__vehicle__position__unit_8cpp.xhtml" target="_top" xlink:title=" ">
<polygon fill="white" stroke="#666666" points="1837.38,-41.75 1689.38,-41.75 1689.38,0 1837.38,0 1837.38,-41.75"/>
<text text-anchor="start" x="1697.38" y="-28.25" font-family="Helvetica,sans-Serif" font-size="10.00">/github/workspace/sample</text>
<text text-anchor="start" x="1697.38" y="-17" font-family="Helvetica,sans-Serif" font-size="10.00">/kf_6x2x0_2d_vehicle_position</text>
<text text-anchor="middle" x="1763.38" y="-5.75" font-family="Helvetica,sans-Serif" font-size="10.00">_unit.cpp</text>
</a>
</g>
</g>
<!-- Node1&#45;&gt;Node12 -->
<g id="edge11_Node000001_Node000012" class="edge">
<title>Node1&#45;&gt;Node12</title>
<g id="a_edge11_Node000001_Node000012"><a xlink:title=" ">
<path fill="none" stroke="#63b8ff" d="M3016.12,-90.87C2781.77,-87.09 2074.13,-73.3 1846.38,-41.75 1843.44,-41.34 1840.46,-40.88 1837.45,-40.37"/>
<polygon fill="#63b8ff" stroke="#63b8ff" points="3016.02,-94.37 3026.07,-91.03 3016.13,-87.37 3016.02,-94.37"/>
</a>
</g>
</g>
<!-- Node13 -->
<g id="Node000013" class="node">
<title>Node13</title>
<g id="a_Node000013"><a xlink:href="kf__8x4x0__2d__bounding__box_8cpp.xhtml" target="_top" xlink:title=" ">
<polygon fill="white" stroke="#666666" points="2011.12,-36.12 1855.62,-36.12 1855.62,-5.62 2011.12,-5.62 2011.12,-36.12"/>
<text text-anchor="start" x="1863.62" y="-22.62" font-family="Helvetica,sans-Serif" font-size="10.00">/github/workspace/sample</text>
<text text-anchor="middle" x="1933.38" y="-11.38" font-family="Helvetica,sans-Serif" font-size="10.00">/kf_8x4x0_2d_bounding_box.cpp</text>
</a>
</g>
</g>
<!-- Node1&#45;&gt;Node13 -->
<g id="edge12_Node000001_Node000013" class="edge">
<title>Node1&#45;&gt;Node13</title>
<g id="a_edge12_Node000001_Node000013"><a xlink:title=" ">
<path fill="none" stroke="#63b8ff" d="M3016.09,-90.19C2804.49,-84.88 2213.08,-68.07 2020.38,-41.75 2010.86,-40.45 2000.85,-38.61 1991.14,-36.58"/>
<polygon fill="#63b8ff" stroke="#63b8ff" points="3015.78,-93.68 3025.87,-90.43 3015.96,-86.68 3015.78,-93.68"/>
</a>
</g>
</g>
<!-- Node14 -->
<g id="Node000014" class="node">
<title>Node14</title>
<g id="a_Node000014"><a xlink:href="kalman__assign__copy__5x4x3_8cpp.xhtml" target="_top" xlink:title=" ">
<polygon fill="white" stroke="#666666" points="2187.25,-36.12 2029.5,-36.12 2029.5,-5.62 2187.25,-5.62 2187.25,-36.12"/>
<text text-anchor="start" x="2037.5" y="-22.62" font-family="Helvetica,sans-Serif" font-size="10.00">/github/workspace/test</text>
<text text-anchor="middle" x="2108.38" y="-11.38" font-family="Helvetica,sans-Serif" font-size="10.00">/kalman_assign_copy_5x4x3.cpp</text>
</a>
</g>
</g>
<!-- Node1&#45;&gt;Node14 -->
<g id="edge13_Node000001_Node000014" class="edge">
<title>Node1&#45;&gt;Node14</title>
<g id="a_edge13_Node000001_Node000014"><a xlink:title=" ">
<path fill="none" stroke="#63b8ff" d="M3016.11,-91.98C2860.98,-91 2497.81,-83.94 2196.38,-41.75 2186.91,-40.43 2176.96,-38.6 2167.3,-36.6"/>
<polygon fill="#63b8ff" stroke="#63b8ff" points="3015.83,-95.48 3025.85,-92.03 3015.87,-88.48 3015.83,-95.48"/>
</a>
</g>
</g>
<!-- Node15 -->
<g id="Node000015" class="node">
<title>Node15</title>
<g id="a_Node000015"><a xlink:href="kalman__assign__move__5x4x3_8cpp.xhtml" target="_top" xlink:title=" ">
<polygon fill="white" stroke="#666666" points="2367.12,-36.12 2205.62,-36.12 2205.62,-5.62 2367.12,-5.62 2367.12,-36.12"/>
<text text-anchor="start" x="2213.62" y="-22.62" font-family="Helvetica,sans-Serif" font-size="10.00">/github/workspace/test</text>
<text text-anchor="middle" x="2286.38" y="-11.38" font-family="Helvetica,sans-Serif" font-size="10.00">/kalman_assign_move_5x4x3.cpp</text>
</a>
</g>
</g>
<!-- Node1&#45;&gt;Node15 -->
<g id="edge14_Node000001_Node000015" class="edge">
<title>Node1&#45;&gt;Node15</title>
<g id="a_edge14_Node000001_Node000015"><a xlink:title=" ">
<path fill="none" stroke="#63b8ff" d="M3015.87,-90.32C2884.48,-86.62 2607.72,-75.23 2376.38,-41.75 2366.87,-40.38 2356.88,-38.55 2347.15,-36.57"/>
<polygon fill="#63b8ff" stroke="#63b8ff" points="3015.76,-93.82 3025.85,-90.6 3015.95,-86.83 3015.76,-93.82"/>
</a>
</g>
</g>
<!-- Node16 -->
<g id="Node000016" class="node">
<title>Node16</title>
<g id="a_Node000016"><a xlink:href="kalman__constructor__copy__5x4x3_8cpp.xhtml" target="_top" xlink:title=" ">
<polygon fill="white" stroke="#666666" points="2515.38,-41.75 2385.38,-41.75 2385.38,0 2515.38,0 2515.38,-41.75"/>
<text text-anchor="start" x="2393.38" y="-28.25" font-family="Helvetica,sans-Serif" font-size="10.00">/github/workspace/test</text>
<text text-anchor="start" x="2393.38" y="-17" font-family="Helvetica,sans-Serif" font-size="10.00">/kalman_constructor_copy</text>
<text text-anchor="middle" x="2450.38" y="-5.75" font-family="Helvetica,sans-Serif" font-size="10.00">_5x4x3.cpp</text>
</a>
</g>
</g>
<!-- Node1&#45;&gt;Node16 -->
<g id="edge15_Node000001_Node000016" class="edge">
<title>Node1&#45;&gt;Node16</title>
<g id="a_edge15_Node000001_Node000016"><a xlink:title=" ">
<path fill="none" stroke="#63b8ff" d="M3016.33,-89.48C2906.85,-84.9 2698.78,-72.64 2524.38,-41.75 2521.49,-41.24 2518.56,-40.67 2515.61,-40.06"/>
<polygon fill="#63b8ff" stroke="#63b8ff" points="3015.94,-92.97 3026.07,-89.87 3016.22,-85.97 3015.94,-92.97"/>
</a>
</g>
</g>
<!-- Node17 -->
<g id="Node000017" class="node">
<title>Node17</title>
<g id="a_Node000017"><a xlink:href="kalman__constructor__default_8cpp.xhtml" target="_top" xlink:title=" ">
<polygon fill="white" stroke="#666666" points="2690.88,-36.12 2533.88,-36.12 2533.88,-5.62 2690.88,-5.62 2690.88,-36.12"/>
<text text-anchor="start" x="2541.88" y="-22.62" font-family="Helvetica,sans-Serif" font-size="10.00">/github/workspace/test</text>
<text text-anchor="middle" x="2612.38" y="-11.38" font-family="Helvetica,sans-Serif" font-size="10.00">/kalman_constructor_default.cpp</text>
</a>
</g>
</g>
<!-- Node1&#45;&gt;Node17 -->
<g id="edge16_Node000001_Node000017" class="edge">
<title>Node1&#45;&gt;Node17</title>
<g id="a_edge16_Node000001_Node000017"><a xlink:title=" ">
<path fill="none" stroke="#63b8ff" d="M3016.05,-84.47C2936.62,-76.11 2808.79,-61.19 2699.38,-41.75 2690.83,-40.23 2681.86,-38.43 2673.07,-36.53"/>
<polygon fill="#63b8ff" stroke="#63b8ff" points="3015.59,-87.94 3025.9,-85.5 3016.32,-80.98 3015.59,-87.94"/>
</a>
</g>
</g>
<!-- Node18 -->
<g id="Node000018" class="node">
<title>Node18</title>
<g id="a_Node000018"><a xlink:href="kalman__constructor__default__1x1x3_8cpp.xhtml" target="_top" xlink:title=" ">
<polygon fill="white" stroke="#666666" points="2847.88,-41.75 2708.88,-41.75 2708.88,0 2847.88,0 2847.88,-41.75"/>
<text text-anchor="start" x="2716.88" y="-28.25" font-family="Helvetica,sans-Serif" font-size="10.00">/github/workspace/test</text>
<text text-anchor="start" x="2716.88" y="-17" font-family="Helvetica,sans-Serif" font-size="10.00">/kalman_constructor_default</text>
<text text-anchor="middle" x="2778.38" y="-5.75" font-family="Helvetica,sans-Serif" font-size="10.00">_1x1x3.cpp</text>
</a>
</g>
</g>
<!-- Node1&#45;&gt;Node18 -->
<g id="edge17_Node000001_Node000018" class="edge">
<title>Node1&#45;&gt;Node18</title>
<g id="a_edge17_Node000001_Node000018"><a xlink:title=" ">
<path fill="none" stroke="#63b8ff" d="M3016.2,-76.58C2969.89,-67.01 2909.6,-54.19 2856.38,-41.75 2853.65,-41.11 2850.88,-40.46 2848.08,-39.78"/>
<polygon fill="#63b8ff" stroke="#63b8ff" points="3015.38,-79.98 3025.88,-78.58 3016.79,-73.13 3015.38,-79.98"/>
</a>
</g>
</g>
<!-- Node19 -->
<g id="Node000019" class="node">
<title>Node19</title>
<g id="a_Node000019"><a xlink:href="kalman__constructor__default__1x4x1_8cpp.xhtml" target="_top" xlink:title=" ">
<polygon fill="white" stroke="#666666" points="3004.88,-41.75 2865.88,-41.75 2865.88,0 3004.88,0 3004.88,-41.75"/>
<text text-anchor="start" x="2873.88" y="-28.25" font-family="Helvetica,sans-Serif" font-size="10.00">/github/workspace/test</text>
<text text-anchor="start" x="2873.88" y="-17" font-family="Helvetica,sans-Serif" font-size="10.00">/kalman_constructor_default</text>
<text text-anchor="middle" x="2935.38" y="-5.75" font-family="Helvetica,sans-Serif" font-size="10.00">_1x4x1.cpp</text>
</a>
</g>
</g>
<!-- Node1&#45;&gt;Node19 -->
<g id="edge18_Node000001_Node000019" class="edge">
<title>Node1&#45;&gt;Node19</title>
<g id="a_edge18_Node000001_Node000019"><a xlink:title=" ">
<path fill="none" stroke="#63b8ff" d="M3049.11,-72.67C3027.86,-63.18 3002.27,-51.75 2980.75,-42.14"/>
<polygon fill="#63b8ff" stroke="#63b8ff" points="3047.52,-75.8 3058.08,-76.68 3050.38,-69.41 3047.52,-75.8"/>
</a>
</g>
</g>
<!-- Node20 -->
<g id="Node000020" class="node">
<title>Node20</title>
<g id="a_Node000020"><a xlink:href="kalman__constructor__default__1x4x3_8cpp.xhtml" target="_top" xlink:title=" ">
<polygon fill="white" stroke="#666666" points="3161.88,-41.75 3022.88,-41.75 3022.88,0 3161.88,0 3161.88,-41.75"/>
<text text-anchor="start" x="3030.88" y="-28.25" font-family="Helvetica,sans-Serif" font-size="10.00">/github/workspace/test</text>
<text text-anchor="start" x="3030.88" y="-17" font-family="Helvetica,sans-Serif" font-size="10.00">/kalman_constructor_default</text>
<text text-anchor="middle" x="3092.38" y="-5.75" font-family="Helvetica,sans-Serif" font-size="10.00">_1x4x3.cpp</text>
</a>
</g>
</g>
<!-- Node1&#45;&gt;Node20 -->
<g id="edge19_Node000001_Node000020" class="edge">
<title>Node1&#45;&gt;Node20</title>
<g id="a_edge19_Node000001_Node000020"><a xlink:title=" ">
<path fill="none" stroke="#63b8ff" d="M3092.38,-66.22C3092.38,-58.31 3092.38,-49.73 3092.38,-42.24"/>
<polygon fill="#63b8ff" stroke="#63b8ff" points="3088.88,-65.96 3092.38,-75.96 3095.88,-65.96 3088.88,-65.96"/>
</a>
</g>
</g>
<!-- Node21 -->
<g id="Node000021" class="node">
<title>Node21</title>
<g id="a_Node000021"><a xlink:href="kalman__constructor__default__5x1x1_8cpp.xhtml" target="_top" xlink:title=" ">
<polygon fill="white" stroke="#666666" points="3318.88,-41.75 3179.88,-41.75 3179.88,0 3318.88,0 3318.88,-41.75"/>
<text text-anchor="start" x="3187.88" y="-28.25" font-family="Helvetica,sans-Serif" font-size="10.00">/github/workspace/test</text>
<text text-anchor="start" x="3187.88" y="-17" font-family="Helvetica,sans-Serif" font-size="10.00">/kalman_constructor_default</text>
<text text-anchor="middle" x="3249.38" y="-5.75" font-family="Helvetica,sans-Serif" font-size="10.00">_5x1x1.cpp</text>
</a>
</g>
</g>
<!-- Node1&#45;&gt;Node21 -->
<g id="edge20_Node000001_Node000021" class="edge">
<title>Node1&#45;&gt;Node21</title>
<g id="a_edge20_Node000001_Node000021"><a xlink:title=" ">
<path fill="none" stroke="#63b8ff" d="M3135.64,-72.67C3156.89,-63.18 3182.48,-51.75 3204,-42.14"/>
<polygon fill="#63b8ff" stroke="#63b8ff" points="3134.37,-69.41 3126.67,-76.68 3137.23,-75.8 3134.37,-69.41"/>
</a>
</g>
</g>
<!-- Node22 -->
<g id="Node000022" class="node">
<title>Node22</title>
<g id="a_Node000022"><a xlink:href="kalman__constructor__default__5x1x3_8cpp.xhtml" target="_top" xlink:title=" ">
<polygon fill="white" stroke="#666666" points="3475.88,-41.75 3336.88,-41.75 3336.88,0 3475.88,0 3475.88,-41.75"/>
<text text-anchor="start" x="3344.88" y="-28.25" font-family="Helvetica,sans-Serif" font-size="10.00">/github/workspace/test</text>
<text text-anchor="start" x="3344.88" y="-17" font-family="Helvetica,sans-Serif" font-size="10.00">/kalman_constructor_default</text>
<text text-anchor="middle" x="3406.38" y="-5.75" font-family="Helvetica,sans-Serif" font-size="10.00">_5x1x3.cpp</text>
</a>
</g>
</g>
<!-- Node1&#45;&gt;Node22 -->
<g id="edge21_Node000001_Node000022" class="edge">
<title>Node1&#45;&gt;Node22</title>
<g id="a_edge21_Node000001_Node000022"><a xlink:title=" ">
<path fill="none" stroke="#63b8ff" d="M3168.55,-76.58C3214.86,-67.01 3275.15,-54.19 3328.38,-41.75 3331.1,-41.11 3333.87,-40.46 3336.67,-39.78"/>
<polygon fill="#63b8ff" stroke="#63b8ff" points="3167.96,-73.13 3158.87,-78.58 3169.37,-79.98 3167.96,-73.13"/>
</a>
</g>
</g>
<!-- Node23 -->
<g id="Node000023" class="node">
<title>Node23</title>
<g id="a_Node000023"><a xlink:href="kalman__constructor__default__5x4x0_8cpp.xhtml" target="_top" xlink:title=" ">
<polygon fill="white" stroke="#666666" points="3632.88,-41.75 3493.88,-41.75 3493.88,0 3632.88,0 3632.88,-41.75"/>
<text text-anchor="start" x="3501.88" y="-28.25" font-family="Helvetica,sans-Serif" font-size="10.00">/github/workspace/test</text>
<text text-anchor="start" x="3501.88" y="-17" font-family="Helvetica,sans-Serif" font-size="10.00">/kalman_constructor_default</text>
<text text-anchor="middle" x="3563.38" y="-5.75" font-family="Helvetica,sans-Serif" font-size="10.00">_5x4x0.cpp</text>
</a>
</g>
</g>
<!-- Node1&#45;&gt;Node23 -->
<g id="edge22_Node000001_Node000023" class="edge">
<title>Node1&#45;&gt;Node23</title>
<g id="a_edge22_Node000001_Node000023"><a xlink:title=" ">
<path fill="none" stroke="#63b8ff" d="M3168.81,-85.02C3248.32,-77.11 3376.22,-62.56 3485.38,-41.75 3488.12,-41.23 3490.91,-40.66 3493.73,-40.07"/>
<polygon fill="#63b8ff" stroke="#63b8ff" points="3168.55,-81.53 3158.94,-85.99 3169.23,-88.5 3168.55,-81.53"/>
</a>
</g>
</g>
<!-- Node24 -->
<g id="Node000024" class="node">
<title>Node24</title>
<g id="a_Node000024"><a xlink:href="kalman__constructor__default__5x4x1_8cpp.xhtml" target="_top" xlink:title=" ">
<polygon fill="white" stroke="#666666" points="3789.88,-41.75 3650.88,-41.75 3650.88,0 3789.88,0 3789.88,-41.75"/>
<text text-anchor="start" x="3658.88" y="-28.25" font-family="Helvetica,sans-Serif" font-size="10.00">/github/workspace/test</text>
<text text-anchor="start" x="3658.88" y="-17" font-family="Helvetica,sans-Serif" font-size="10.00">/kalman_constructor_default</text>
<text text-anchor="middle" x="3720.38" y="-5.75" font-family="Helvetica,sans-Serif" font-size="10.00">_5x4x1.cpp</text>
</a>
</g>
</g>
<!-- Node1&#45;&gt;Node24 -->
<g id="edge23_Node000001_Node000024" class="edge">
<title>Node1&#45;&gt;Node24</title>
<g id="a_edge23_Node000001_Node000024"><a xlink:title=" ">
<path fill="none" stroke="#63b8ff" d="M3168.43,-88.86C3275.03,-83.6 3474.61,-70.6 3642.38,-41.75 3645.13,-41.28 3647.93,-40.76 3650.75,-40.2"/>
<polygon fill="#63b8ff" stroke="#63b8ff" points="3168.49,-85.36 3158.67,-89.33 3168.83,-92.35 3168.49,-85.36"/>
</a>
</g>
</g>
<!-- Node25 -->
<g id="Node000025" class="node">
<title>Node25</title>
<g id="a_Node000025"><a xlink:href="kalman__constructor__default__5x4x3_8cpp.xhtml" target="_top" xlink:title=" ">
<polygon fill="white" stroke="#666666" points="3946.88,-41.75 3807.88,-41.75 3807.88,0 3946.88,0 3946.88,-41.75"/>
<text text-anchor="start" x="3815.88" y="-28.25" font-family="Helvetica,sans-Serif" font-size="10.00">/github/workspace/test</text>
<text text-anchor="start" x="3815.88" y="-17" font-family="Helvetica,sans-Serif" font-size="10.00">/kalman_constructor_default</text>
<text text-anchor="middle" x="3877.38" y="-5.75" font-family="Helvetica,sans-Serif" font-size="10.00">_5x4x3.cpp</text>
</a>
</g>
</g>
<!-- Node1&#45;&gt;Node25 -->
<g id="edge24_Node000001_Node000025" class="edge">
<title>Node1&#45;&gt;Node25</title>
<g id="a_edge24_Node000001_Node000025"><a xlink:title=" ">
<path fill="none" stroke="#63b8ff" d="M3168.54,-91.03C3298.67,-88.39 3571.79,-78.53 3799.38,-41.75 3802.13,-41.3 3804.94,-40.81 3807.76,-40.27"/>
<polygon fill="#63b8ff" stroke="#63b8ff" points="3168.6,-87.53 3158.67,-91.22 3168.74,-94.53 3168.6,-87.53"/>
</a>
</g>
</g>
<!-- Node26 -->
<g id="Node000026" class="node">
<title>Node26</title>
<g id="a_Node000026"><a xlink:href="kalman__constructor__default__float__1x1x1_8cpp.xhtml" target="_top" xlink:title=" ">
<polygon fill="white" stroke="#666666" points="4103.88,-41.75 3964.88,-41.75 3964.88,0 4103.88,0 4103.88,-41.75"/>
<text text-anchor="start" x="3972.88" y="-28.25" font-family="Helvetica,sans-Serif" font-size="10.00">/github/workspace/test</text>
<text text-anchor="start" x="3972.88" y="-17" font-family="Helvetica,sans-Serif" font-size="10.00">/kalman_constructor_default</text>
<text text-anchor="middle" x="4034.38" y="-5.75" font-family="Helvetica,sans-Serif" font-size="10.00">_float_1x1x1.cpp</text>
</a>
</g>
</g>
<!-- Node1&#45;&gt;Node26 -->
<g id="edge25_Node000001_Node000026" class="edge">
<title>Node1&#45;&gt;Node26</title>
<g id="a_edge25_Node000001_Node000026"><a xlink:title=" ">
<path fill="none" stroke="#63b8ff" d="M3168.73,-92.44C3319.99,-92.25 3668.04,-86.45 3956.38,-41.75 3959.14,-41.32 3961.94,-40.84 3964.77,-40.31"/>
<polygon fill="#63b8ff" stroke="#63b8ff" points="3168.82,-88.94 3158.82,-92.45 3168.83,-95.94 3168.82,-88.94"/>
</a>
</g>
</g>
<!-- Node27 -->
<g id="Node000027" class="node">
<title>Node27</title>
<g id="a_Node000027"><a xlink:href="kalman__constructor__move__5x4x3_8cpp.xhtml" target="_top" xlink:title=" ">
<polygon fill="white" stroke="#666666" points="4255.25,-41.75 4121.5,-41.75 4121.5,0 4255.25,0 4255.25,-41.75"/>
<text text-anchor="start" x="4129.5" y="-28.25" font-family="Helvetica,sans-Serif" font-size="10.00">/github/workspace/test</text>
<text text-anchor="start" x="4129.5" y="-17" font-family="Helvetica,sans-Serif" font-size="10.00">/kalman_constructor_move</text>
<text text-anchor="middle" x="4188.38" y="-5.75" font-family="Helvetica,sans-Serif" font-size="10.00">_5x4x3.cpp</text>
</a>
</g>
</g>
<!-- Node1&#45;&gt;Node27 -->
<g id="edge26_Node000001_Node000027" class="edge">
<title>Node1&#45;&gt;Node27</title>
<g id="a_edge26_Node000001_Node000027"><a xlink:title=" ">
<path fill="none" stroke="#63b8ff" d="M3168.61,-90.32C3373.25,-85.48 3931.36,-70.02 4113.38,-41.75 4115.9,-41.36 4118.47,-40.91 4121.06,-40.43"/>
<polygon fill="#63b8ff" stroke="#63b8ff" points="3168.82,-86.82 3158.9,-90.55 3168.98,-93.81 3168.82,-86.82"/>
</a>
</g>
</g>
<!-- Node28 -->
<g id="Node000028" class="node">
<title>Node28</title>
<g id="a_Node000028"><a xlink:href="kalman__f_8cpp.xhtml" target="_top" xlink:title=" ">
<polygon fill="white" stroke="#666666" points="4387.88,-36.12 4272.88,-36.12 4272.88,-5.62 4387.88,-5.62 4387.88,-36.12"/>
<text text-anchor="start" x="4280.88" y="-22.62" font-family="Helvetica,sans-Serif" font-size="10.00">/github/workspace/test</text>
<text text-anchor="middle" x="4330.38" y="-11.38" font-family="Helvetica,sans-Serif" font-size="10.00">/kalman_f.cpp</text>
</a>
</g>
</g>
<!-- Node1&#45;&gt;Node28 -->
<g id="edge27_Node000001_Node000028" class="edge">
<title>Node1&#45;&gt;Node28</title>
<g id="a_edge27_Node000001_Node000028"><a xlink:title=" ">
<path fill="none" stroke="#63b8ff" d="M3168.78,-91.21C3393.98,-88.49 4052.57,-77.6 4264.38,-41.75 4271.81,-40.49 4279.58,-38.65 4287.07,-36.59"/>
<polygon fill="#63b8ff" stroke="#63b8ff" points="3168.91,-87.71 3158.95,-91.33 3168.99,-94.71 3168.91,-87.71"/>
</a>
</g>
</g>
<!-- Node29 -->
<g id="Node000029" class="node">
<title>Node29</title>
<g id="a_Node000029"><a xlink:href="kalman__f__5x4x3_8cpp.xhtml" target="_top" xlink:title=" ">
<polygon fill="white" stroke="#666666" points="4520.88,-36.12 4405.88,-36.12 4405.88,-5.62 4520.88,-5.62 4520.88,-36.12"/>
<text text-anchor="start" x="4413.88" y="-22.62" font-family="Helvetica,sans-Serif" font-size="10.00">/github/workspace/test</text>
<text text-anchor="middle" x="4463.38" y="-11.38" font-family="Helvetica,sans-Serif" font-size="10.00">/kalman_f_5x4x3.cpp</text>
</a>
</g>
</g>
<!-- Node1&#45;&gt;Node29 -->
<g id="edge28_Node000001_Node000029" class="edge">
<title>Node1&#45;&gt;Node29</title>
<g id="a_edge28_Node000001_Node000029"><a xlink:title=" ">
<path fill="none" stroke="#63b8ff" d="M3168.58,-91.6C3410.42,-89.94 4158.64,-81.62 4397.38,-41.75 4404.81,-40.51 4412.58,-38.67 4420.08,-36.61"/>
<polygon fill="#63b8ff" stroke="#63b8ff" points="3168.6,-88.1 3158.63,-91.67 3168.65,-95.1 3168.6,-88.1"/>
</a>
</g>
</g>
<!-- Node30 -->
<g id="Node000030" class="node">
<title>Node30</title>
<g id="a_Node000030"><a xlink:href="kalman__format_8cpp.xhtml" target="_top" xlink:title=" ">
<polygon fill="white" stroke="#666666" points="4653.88,-36.12 4538.88,-36.12 4538.88,-5.62 4653.88,-5.62 4653.88,-36.12"/>
<text text-anchor="start" x="4546.88" y="-22.62" font-family="Helvetica,sans-Serif" font-size="10.00">/github/workspace/test</text>
<text text-anchor="middle" x="4596.38" y="-11.38" font-family="Helvetica,sans-Serif" font-size="10.00">/kalman_format.cpp</text>
</a>
</g>
</g>
<!-- Node1&#45;&gt;Node30 -->
<g id="edge29_Node000001_Node000030" class="edge">
<title>Node1&#45;&gt;Node30</title>
<g id="a_edge29_Node000001_Node000030"><a xlink:title=" ">
<path fill="none" stroke="#63b8ff" d="M3168.8,-91.92C3426.87,-91.24 4264.73,-85.63 4530.38,-41.75 4537.93,-40.5 4545.83,-38.64 4553.44,-36.54"/>
<polygon fill="#63b8ff" stroke="#63b8ff" points="3168.82,-88.42 3158.83,-91.94 3168.83,-95.42 3168.82,-88.42"/>
</a>
</g>
</g>
<!-- Node31 -->
<g id="Node000031" class="node">
<title>Node31</title>
<g id="a_Node000031"><a xlink:href="kalman__format__1x4x3_8cpp.xhtml" target="_top" xlink:title=" ">
<polygon fill="white" stroke="#666666" points="4803.12,-36.12 4671.62,-36.12 4671.62,-5.62 4803.12,-5.62 4803.12,-36.12"/>
<text text-anchor="start" x="4679.62" y="-22.62" font-family="Helvetica,sans-Serif" font-size="10.00">/github/workspace/test</text>
<text text-anchor="middle" x="4737.38" y="-11.38" font-family="Helvetica,sans-Serif" font-size="10.00">/kalman_format_1x4x3.cpp</text>
</a>
</g>
</g>
<!-- Node1&#45;&gt;Node31 -->
<g id="edge30_Node000001_Node000031" class="edge">
<title>Node1&#45;&gt;Node31</title>
<g id="a_edge30_Node000001_Node000031"><a xlink:title=" ">
<path fill="none" stroke="#63b8ff" d="M3168.83,-91.88C3442.12,-91.11 4369.99,-85.25 4663.38,-41.75 4671.8,-40.5 4680.63,-38.64 4689.15,-36.54"/>
<polygon fill="#63b8ff" stroke="#63b8ff" points="3168.96,-88.38 3158.97,-91.91 3168.98,-95.38 3168.96,-88.38"/>
</a>
</g>
</g>
<!-- Node32 -->
<g id="Node000032" class="node">
<title>Node32</title>
<g id="a_Node000032"><a xlink:href="kalman__format__5x4x3_8cpp.xhtml" target="_top" xlink:title=" ">
<polygon fill="white" stroke="#666666" points="4953.12,-36.12 4821.62,-36.12 4821.62,-5.62 4953.12,-5.62 4953.12,-36.12"/>
<text text-anchor="start" x="4829.62" y="-22.62" font-family="Helvetica,sans-Serif" font-size="10.00">/github/workspace/test</text>
<text text-anchor="middle" x="4887.38" y="-11.38" font-family="Helvetica,sans-Serif" font-size="10.00">/kalman_format_5x4x3.cpp</text>
</a>
</g>
</g>
<!-- Node1&#45;&gt;Node32 -->
<g id="edge31_Node000001_Node000032" class="edge">
<title>Node1&#45;&gt;Node32</title>
<g id="a_edge31_Node000001_Node000032"><a xlink:title=" ">
<path fill="none" stroke="#63b8ff" d="M3168.22,-92.1C3457.05,-92.12 4488.18,-88.8 4812.38,-41.75 4820.91,-40.51 4829.86,-38.65 4838.49,-36.56"/>
<polygon fill="#63b8ff" stroke="#63b8ff" points="3168.56,-88.6 3158.56,-92.1 3168.56,-95.6 3168.56,-88.6"/>
</a>
</g>
</g>
<!-- Node33 -->
<g id="Node000033" class="node">
<title>Node33</title>
<g id="a_Node000033"><a xlink:href="kalman__format__arguments_8cpp.xhtml" target="_top" xlink:title=" ">
<polygon fill="white" stroke="#666666" points="5123.62,-36.12 4971.12,-36.12 4971.12,-5.62 5123.62,-5.62 5123.62,-36.12"/>
<text text-anchor="start" x="4979.12" y="-22.62" font-family="Helvetica,sans-Serif" font-size="10.00">/github/workspace/test</text>
<text text-anchor="middle" x="5047.38" y="-11.38" font-family="Helvetica,sans-Serif" font-size="10.00">/kalman_format_arguments.cpp</text>
</a>
</g>
</g>
<!-- Node1&#45;&gt;Node33 -->
<g id="edge32_Node000001_Node000033" class="edge">
<title>Node1&#45;&gt;Node33</title>
<g id="a_edge32_Node000001_Node000033"><a xlink:title=" ">
<path fill="none" stroke="#63b8ff" d="M3168.61,-92.01C3473.62,-91.74 4606.8,-87.62 4962.38,-41.75 4971.99,-40.51 4982.12,-38.65 4991.89,-36.55"/>
<polygon fill="#63b8ff" stroke="#63b8ff" points="3168.76,-88.51 3158.77,-92.02 3168.77,-95.51 3168.76,-88.51"/>
</a>
</g>
</g>
<!-- Node34 -->
<g id="Node000034" class="node">
<title>Node34</title>
<g id="a_Node000034"><a xlink:href="kalman__format__float__1x1x1_8cpp.xhtml" target="_top" xlink:title=" ">
<polygon fill="white" stroke="#666666" points="5296.75,-36.12 5142,-36.12 5142,-5.62 5296.75,-5.62 5296.75,-36.12"/>
<text text-anchor="start" x="5150" y="-22.62" font-family="Helvetica,sans-Serif" font-size="10.00">/github/workspace/test</text>
<text text-anchor="middle" x="5219.38" y="-11.38" font-family="Helvetica,sans-Serif" font-size="10.00">/kalman_format_float_1x1x1.cpp</text>
</a>
</g>
</g>
<!-- Node1&#45;&gt;Node34 -->
<g id="edge33_Node000001_Node000034" class="edge">
<title>Node1&#45;&gt;Node34</title>
<g id="a_edge33_Node000001_Node000034"><a xlink:title=" ">
<path fill="none" stroke="#63b8ff" d="M3168.53,-92.16C3490.54,-92.53 4741.54,-90.71 5132.38,-41.75 5142.21,-40.52 5152.57,-38.66 5162.57,-36.56"/>
<polygon fill="#63b8ff" stroke="#63b8ff" points="3168.99,-88.66 3158.99,-92.15 3168.98,-95.66 3168.99,-88.66"/>
</a>
</g>
</g>
<!-- Node35 -->
<g id="Node000035" class="node">
<title>Node35</title>
<g id="a_Node000035"><a xlink:href="kalman__h__5x4x3_8cpp.xhtml" target="_top" xlink:title=" ">
<polygon fill="white" stroke="#666666" points="5429.88,-36.12 5314.88,-36.12 5314.88,-5.62 5429.88,-5.62 5429.88,-36.12"/>
<text text-anchor="start" x="5322.88" y="-22.62" font-family="Helvetica,sans-Serif" font-size="10.00">/github/workspace/test</text>
<text text-anchor="middle" x="5372.38" y="-11.38" font-family="Helvetica,sans-Serif" font-size="10.00">/kalman_h_5x4x3.cpp</text>
</a>
</g>
</g>
<!-- Node1&#45;&gt;Node35 -->
<g id="edge34_Node000001_Node000035" class="edge">
<title>Node1&#45;&gt;Node35</title>
<g id="a_edge34_Node000001_Node000035"><a xlink:title=" ">
<path fill="none" stroke="#63b8ff" d="M3168.86,-91.47C3534.02,-88.76 5091.12,-75.35 5305.38,-41.75 5313.05,-40.55 5321.07,-38.7 5328.79,-36.61"/>
<polygon fill="#63b8ff" stroke="#63b8ff" points="3168.88,-87.97 3158.91,-91.54 3168.93,-94.97 3168.88,-87.97"/>
</a>
</g>
</g>
<!-- Node36 -->
<g id="Node000036" class="node">
<title>Node36</title>
<g id="a_Node000036"><a xlink:href="kalman__println__1x1x0_8cpp.xhtml" target="_top" xlink:title=" ">
<polygon fill="white" stroke="#666666" points="5578.38,-36.12 5448.38,-36.12 5448.38,-5.62 5578.38,-5.62 5578.38,-36.12"/>
<text text-anchor="start" x="5456.38" y="-22.62" font-family="Helvetica,sans-Serif" font-size="10.00">/github/workspace/test</text>
<text text-anchor="middle" x="5513.38" y="-11.38" font-family="Helvetica,sans-Serif" font-size="10.00">/kalman_println_1x1x0.cpp</text>
</a>
</g>
</g>
<!-- Node1&#45;&gt;Node36 -->
<g id="edge35_Node000001_Node000036" class="edge">
<title>Node1&#45;&gt;Node36</title>
<g id="a_edge35_Node000001_Node000036"><a xlink:title=" ">
<path fill="none" stroke="#63b8ff" d="M3168.83,-91.46C3547.24,-88.63 5210.76,-74.41 5439.38,-41.75 5447.8,-40.55 5456.64,-38.7 5465.16,-36.61"/>
<polygon fill="#63b8ff" stroke="#63b8ff" points="3168.97,-87.96 3159,-91.53 3169.02,-94.96 3168.97,-87.96"/>
</a>
</g>
</g>
<!-- Node37 -->
<g id="Node000037" class="node">
<title>Node37</title>
<g id="a_Node000037"><a xlink:href="print__1x1x0_8cpp.xhtml" target="_top" xlink:title=" ">
<polygon fill="white" stroke="#666666" points="5711.88,-36.12 5596.88,-36.12 5596.88,-5.62 5711.88,-5.62 5711.88,-36.12"/>
<text text-anchor="start" x="5604.88" y="-22.62" font-family="Helvetica,sans-Serif" font-size="10.00">/github/workspace/test</text>
<text text-anchor="middle" x="5654.38" y="-11.38" font-family="Helvetica,sans-Serif" font-size="10.00">/print_1x1x0.cpp</text>
</a>
</g>
</g>
<!-- Node1&#45;&gt;Node37 -->
<g id="edge36_Node000001_Node000037" class="edge">
<title>Node1&#45;&gt;Node37</title>
<g id="a_edge36_Node000001_Node000037"><a xlink:title=" ">
<path fill="none" stroke="#63b8ff" d="M3168.82,-91.68C3561.61,-89.87 5343.81,-79.62 5587.38,-41.75 5595.17,-40.54 5603.32,-38.66 5611.15,-36.53"/>
<polygon fill="#63b8ff" stroke="#63b8ff" points="3168.83,-88.18 3158.85,-91.73 3168.87,-95.18 3168.83,-88.18"/>
</a>
</g>
</g>
<!-- Node38 -->
<g id="Node000038" class="node">
<title>Node38</title>
<g id="a_Node000038"><a xlink:href="print__2x3x4_8cpp.xhtml" target="_top" xlink:title=" ">
<polygon fill="white" stroke="#666666" points="5844.88,-36.12 5729.88,-36.12 5729.88,-5.62 5844.88,-5.62 5844.88,-36.12"/>
<text text-anchor="start" x="5737.88" y="-22.62" font-family="Helvetica,sans-Serif" font-size="10.00">/github/workspace/test</text>
<text text-anchor="middle" x="5787.38" y="-11.38" font-family="Helvetica,sans-Serif" font-size="10.00">/print_2x3x4.cpp</text>
</a>
</g>
</g>
<!-- Node1&#45;&gt;Node38 -->
<g id="edge37_Node000001_Node000038" class="edge">
<title>Node1&#45;&gt;Node38</title>
<g id="a_edge37_Node000001_Node000038"><a xlink:title=" ">
<path fill="none" stroke="#63b8ff" d="M3168.66,-91.78C3573.71,-90.47 5463.9,-82.19 5721.38,-41.75 5729.06,-40.54 5737.1,-38.67 5744.81,-36.54"/>
<polygon fill="#63b8ff" stroke="#63b8ff" points="3168.89,-88.28 3158.9,-91.81 3168.91,-95.28 3168.89,-88.28"/>
</a>
</g>
</g>
</g>
</svg>
