<?xml version="1.0" encoding="UTF-8" standalone="no"?>
<!DOCTYPE svg PUBLIC "-//W3C//DTD SVG 1.1//EN"
 "http://www.w3.org/Graphics/SVG/1.1/DTD/svg11.dtd">
<!-- Generated by graphviz version 2.49.3 (20211027.1534)
 -->
<!-- Title: include/fcarouge/kalman.hpp Pages: 1 -->
<svg width="1868pt" height="162pt"
 viewBox="0.00 0.00 1868.00 162.00" xmlns="http://www.w3.org/2000/svg" xmlns:xlink="http://www.w3.org/1999/xlink">
<g id="graph0" class="graph" transform="scale(1 1) rotate(0) translate(4 158)">
<title>include/fcarouge/kalman.hpp</title>
<polygon fill="white" stroke="transparent" points="-4,4 -4,-158 1864,-158 1864,4 -4,4"/>
<!-- Node1 -->
<g id="node1" class="node">
<title>Node1</title>
<g id="a_node1"><a xlink:title="The main Kalman filter class.">
<polygon fill="#bfbfbf" stroke="black" points="1016,-134.5 1016,-153.5 1156,-153.5 1156,-134.5 1016,-134.5"/>
<text text-anchor="middle" x="1086" y="-141.5" font-family="Helvetica,sans-Serif" font-size="10.00">include/fcarouge/kalman.hpp</text>
</a>
</g>
</g>
<!-- Node2 -->
<g id="node2" class="node">
<title>Node2</title>
<g id="a_node2"><a xlink:href="operator1x1x0_8cpp.xhtml" target="_top" xlink:title=" ">
<polygon fill="white" stroke="black" points="0,-73 0,-92 146,-92 146,-73 0,-73"/>
<text text-anchor="middle" x="73" y="-80" font-family="Helvetica,sans-Serif" font-size="10.00">benchmark/operator1x1x0.cpp</text>
</a>
</g>
</g>
<!-- Node1&#45;&gt;Node2 -->
<g id="edge1" class="edge">
<title>Node1&#45;&gt;Node2</title>
<path fill="none" stroke="midnightblue" d="M1005.64,-142.54C844.03,-140.85 468.34,-133.13 155,-98 142.07,-96.55 128.1,-94.33 115.41,-92.05"/>
<polygon fill="midnightblue" stroke="midnightblue" points="1005.94,-146.04 1015.98,-142.64 1006.01,-139.04 1005.94,-146.04"/>
</g>
<!-- Node3 -->
<g id="node3" class="node">
<title>Node3</title>
<g id="a_node3"><a xlink:href="operator1x1x1_8cpp.xhtml" target="_top" xlink:title=" ">
<polygon fill="white" stroke="black" points="164,-73 164,-92 310,-92 310,-73 164,-73"/>
<text text-anchor="middle" x="237" y="-80" font-family="Helvetica,sans-Serif" font-size="10.00">benchmark/operator1x1x1.cpp</text>
</a>
</g>
</g>
<!-- Node1&#45;&gt;Node3 -->
<g id="edge2" class="edge">
<title>Node1&#45;&gt;Node3</title>
<path fill="none" stroke="midnightblue" d="M1005.76,-141.36C865.87,-137.83 568.44,-127.27 319,-98 306.22,-96.5 292.42,-94.29 279.84,-92.05"/>
<polygon fill="midnightblue" stroke="midnightblue" points="1005.88,-144.87 1015.96,-141.62 1006.05,-137.87 1005.88,-144.87"/>
</g>
<!-- Node4 -->
<g id="node4" class="node">
<title>Node4</title>
<g id="a_node4"><a xlink:href="predict1x1x0_8cpp.xhtml" target="_top" xlink:title=" ">
<polygon fill="white" stroke="black" points="328,-73 328,-92 468,-92 468,-73 328,-73"/>
<text text-anchor="middle" x="398" y="-80" font-family="Helvetica,sans-Serif" font-size="10.00">benchmark/predict1x1x0.cpp</text>
</a>
</g>
</g>
<!-- Node1&#45;&gt;Node4 -->
<g id="edge3" class="edge">
<title>Node1&#45;&gt;Node4</title>
<path fill="none" stroke="midnightblue" d="M1005.6,-139.82C888.81,-134.58 665.58,-122.2 477,-98 464.83,-96.44 451.69,-94.24 439.69,-92.02"/>
<polygon fill="midnightblue" stroke="midnightblue" points="1005.74,-143.33 1015.88,-140.28 1006.05,-136.34 1005.74,-143.33"/>
</g>
<!-- Node5 -->
<g id="node5" class="node">
<title>Node5</title>
<g id="a_node5"><a xlink:href="predict1x1x1_8cpp.xhtml" target="_top" xlink:title=" ">
<polygon fill="white" stroke="black" points="486,-73 486,-92 626,-92 626,-73 486,-73"/>
<text text-anchor="middle" x="556" y="-80" font-family="Helvetica,sans-Serif" font-size="10.00">benchmark/predict1x1x1.cpp</text>
</a>
</g>
</g>
<!-- Node1&#45;&gt;Node5 -->
<g id="edge4" class="edge">
<title>Node1&#45;&gt;Node5</title>
<path fill="none" stroke="midnightblue" d="M1005.69,-136.99C915.31,-129.76 764.22,-116.27 635,-98 623.26,-96.34 610.61,-94.18 598.95,-92.04"/>
<polygon fill="midnightblue" stroke="midnightblue" points="1005.62,-140.49 1015.87,-137.8 1006.17,-133.52 1005.62,-140.49"/>
</g>
<!-- Node6 -->
<g id="node6" class="node">
<title>Node6</title>
<g id="a_node6"><a xlink:href="update1x1x0_8cpp.xhtml" target="_top" xlink:title=" ">
<polygon fill="white" stroke="black" points="644,-73 644,-92 784,-92 784,-73 644,-73"/>
<text text-anchor="middle" x="714" y="-80" font-family="Helvetica,sans-Serif" font-size="10.00">benchmark/update1x1x0.cpp</text>
</a>
</g>
</g>
<!-- Node1&#45;&gt;Node6 -->
<g id="edge5" class="edge">
<title>Node1&#45;&gt;Node6</title>
<path fill="none" stroke="midnightblue" d="M1017.25,-133.02C957.82,-124.25 869.64,-110.92 793,-98 782,-96.15 770.16,-94.03 759.08,-92.01"/>
<polygon fill="midnightblue" stroke="midnightblue" points="1016.87,-136.5 1027.27,-134.49 1017.89,-129.57 1016.87,-136.5"/>
</g>
<!-- Node7 -->
<g id="node7" class="node">
<title>Node7</title>
<g id="a_node7"><a xlink:href="update1x1x1_8cpp.xhtml" target="_top" xlink:title=" ">
<polygon fill="white" stroke="black" points="802,-73 802,-92 942,-92 942,-73 802,-73"/>
<text text-anchor="middle" x="872" y="-80" font-family="Helvetica,sans-Serif" font-size="10.00">benchmark/update1x1x1.cpp</text>
</a>
</g>
</g>
<!-- Node1&#45;&gt;Node7 -->
<g id="edge6" class="edge">
<title>Node1&#45;&gt;Node7</title>
<path fill="none" stroke="midnightblue" d="M1045.54,-131.75C1003.96,-120.19 940.16,-102.45 902.6,-92.01"/>
<polygon fill="midnightblue" stroke="midnightblue" points="1044.77,-135.17 1055.34,-134.48 1046.64,-128.42 1044.77,-135.17"/>
</g>
<!-- Node8 -->
<g id="node8" class="node">
<title>Node8</title>
<g id="a_node8"><a xlink:href="eigen_2kalman_8hpp.xhtml" target="_top" xlink:title="Kalman operation for Eigen 3 types.">
<polygon fill="white" stroke="black" points="960,-67.5 960,-97.5 1074,-97.5 1074,-67.5 960,-67.5"/>
<text text-anchor="start" x="968" y="-85.5" font-family="Helvetica,sans-Serif" font-size="10.00">include/fcarouge/eigen</text>
<text text-anchor="middle" x="1017" y="-74.5" font-family="Helvetica,sans-Serif" font-size="10.00">/kalman.hpp</text>
</a>
</g>
</g>
<!-- Node1&#45;&gt;Node8 -->
<g id="edge7" class="edge">
<title>Node1&#45;&gt;Node8</title>
<path fill="none" stroke="midnightblue" d="M1068.51,-127.92C1057.68,-118.58 1043.86,-106.66 1033.26,-97.52"/>
<polygon fill="midnightblue" stroke="midnightblue" points="1066.26,-130.6 1076.11,-134.48 1070.83,-125.29 1066.26,-130.6"/>
</g>
<!-- Node16 -->
<g id="node16" class="node">
<title>Node16</title>
<g id="a_node16"><a xlink:href="kf__1x1x0__building__height_8cpp.xhtml" target="_top" xlink:title=" ">
<polygon fill="white" stroke="black" points="1092,-67.5 1092,-97.5 1220,-97.5 1220,-67.5 1092,-67.5"/>
<text text-anchor="start" x="1100" y="-85.5" font-family="Helvetica,sans-Serif" font-size="10.00">sample/kf_1x1x0_building</text>
<text text-anchor="middle" x="1156" y="-74.5" font-family="Helvetica,sans-Serif" font-size="10.00">_height.cpp</text>
</a>
</g>
</g>
<!-- Node1&#45;&gt;Node16 -->
<g id="edge15" class="edge">
<title>Node1&#45;&gt;Node16</title>
<path fill="none" stroke="midnightblue" d="M1103.74,-127.92C1114.73,-118.58 1128.75,-106.66 1139.5,-97.52"/>
<polygon fill="midnightblue" stroke="midnightblue" points="1101.38,-125.33 1096.03,-134.48 1105.92,-130.67 1101.38,-125.33"/>
</g>
<!-- Node17 -->
<g id="node17" class="node">
<title>Node17</title>
<g id="a_node17"><a xlink:href="kf__1x1x0__liquid__temperature_8cpp.xhtml" target="_top" xlink:title=" ">
<polygon fill="white" stroke="black" points="1238.5,-67.5 1238.5,-97.5 1355.5,-97.5 1355.5,-67.5 1238.5,-67.5"/>
<text text-anchor="start" x="1246.5" y="-85.5" font-family="Helvetica,sans-Serif" font-size="10.00">sample/kf_1x1x0_liquid</text>
<text text-anchor="middle" x="1297" y="-74.5" font-family="Helvetica,sans-Serif" font-size="10.00">_temperature.cpp</text>
</a>
</g>
</g>
<!-- Node1&#45;&gt;Node17 -->
<g id="edge16" class="edge">
<title>Node1&#45;&gt;Node17</title>
<path fill="none" stroke="midnightblue" d="M1125.95,-131.73C1160.39,-122.02 1210.26,-107.96 1247.27,-97.52"/>
<polygon fill="midnightblue" stroke="midnightblue" points="1124.91,-128.39 1116.23,-134.48 1126.81,-135.13 1124.91,-128.39"/>
</g>
<!-- Node18 -->
<g id="node18" class="node">
<title>Node18</title>
<g id="a_node18"><a xlink:href="kf__1x1x1__dog__position_8cpp.xhtml" target="_top" xlink:title=" ">
<polygon fill="white" stroke="black" points="1374,-67.5 1374,-97.5 1484,-97.5 1484,-67.5 1374,-67.5"/>
<text text-anchor="start" x="1382" y="-85.5" font-family="Helvetica,sans-Serif" font-size="10.00">sample/kf_1x1x1_dog</text>
<text text-anchor="middle" x="1429" y="-74.5" font-family="Helvetica,sans-Serif" font-size="10.00">_position.cpp</text>
</a>
</g>
</g>
<!-- Node1&#45;&gt;Node18 -->
<g id="edge17" class="edge">
<title>Node1&#45;&gt;Node18</title>
<path fill="none" stroke="midnightblue" d="M1155.7,-133C1212.27,-124.59 1294,-111.75 1365,-98 1367.91,-97.44 1370.89,-96.84 1373.89,-96.22"/>
<polygon fill="midnightblue" stroke="midnightblue" points="1155.17,-129.54 1145.79,-134.47 1156.19,-136.47 1155.17,-129.54"/>
</g>
<!-- Node19 -->
<g id="node19" class="node">
<title>Node19</title>
<g id="a_node19"><a xlink:href="f_8cpp.xhtml" target="_top" xlink:title=" ">
<polygon fill="white" stroke="black" points="1502.5,-73 1502.5,-92 1559.5,-92 1559.5,-73 1502.5,-73"/>
<text text-anchor="middle" x="1531" y="-80" font-family="Helvetica,sans-Serif" font-size="10.00">test/f.cpp</text>
</a>
</g>
</g>
<!-- Node1&#45;&gt;Node19 -->
<g id="edge18" class="edge">
<title>Node1&#45;&gt;Node19</title>
<path fill="none" stroke="midnightblue" d="M1166.16,-140.15C1249.01,-135.81 1381.56,-124.95 1493,-98 1499.04,-96.54 1505.42,-94.37 1511.19,-92.15"/>
<polygon fill="midnightblue" stroke="midnightblue" points="1165.87,-136.66 1156.06,-140.66 1166.23,-143.65 1165.87,-136.66"/>
</g>
<!-- Node20 -->
<g id="node20" class="node">
<title>Node20</title>
<g id="a_node20"><a xlink:href="format_8cpp.xhtml" target="_top" xlink:title=" ">
<polygon fill="white" stroke="black" points="1578,-73 1578,-92 1660,-92 1660,-73 1578,-73"/>
<text text-anchor="middle" x="1619" y="-80" font-family="Helvetica,sans-Serif" font-size="10.00">test/format.cpp</text>
</a>
</g>
</g>
<!-- Node1&#45;&gt;Node20 -->
<g id="edge19" class="edge">
<title>Node1&#45;&gt;Node20</title>
<path fill="none" stroke="midnightblue" d="M1166.42,-140.16C1262.82,-135.69 1428.9,-124.59 1569,-98 1576.9,-96.5 1585.35,-94.29 1593.02,-92.05"/>
<polygon fill="midnightblue" stroke="midnightblue" points="1166,-136.68 1156.17,-140.63 1166.31,-143.67 1166,-136.68"/>
</g>
<!-- Node21 -->
<g id="node21" class="node">
<title>Node21</title>
<g id="a_node21"><a xlink:href="h_8cpp.xhtml" target="_top" xlink:title=" ">
<polygon fill="white" stroke="black" points="1678.5,-73 1678.5,-92 1737.5,-92 1737.5,-73 1678.5,-73"/>
<text text-anchor="middle" x="1708" y="-80" font-family="Helvetica,sans-Serif" font-size="10.00">test/h.cpp</text>
</a>
</g>
</g>
<!-- Node1&#45;&gt;Node21 -->
<g id="edge20" class="edge">
<title>Node1&#45;&gt;Node21</title>
<path fill="none" stroke="midnightblue" d="M1166.34,-143.82C1279.73,-143.4 1492.57,-136.8 1669,-98 1675.35,-96.6 1682.05,-94.4 1688.08,-92.12"/>
<polygon fill="midnightblue" stroke="midnightblue" points="1166.01,-140.32 1156.02,-143.84 1166.02,-147.32 1166.01,-140.32"/>
</g>
<!-- Node22 -->
<g id="node22" class="node">
<title>Node22</title>
<g id="a_node22"><a xlink:href="initialization_8cpp.xhtml" target="_top" xlink:title=" ">
<polygon fill="white" stroke="black" points="1756,-73 1756,-92 1860,-92 1860,-73 1756,-73"/>
<text text-anchor="middle" x="1808" y="-80" font-family="Helvetica,sans-Serif" font-size="10.00">test/initialization.cpp</text>
</a>
</g>
</g>
<!-- Node1&#45;&gt;Node22 -->
<g id="edge21" class="edge">
<title>Node1&#45;&gt;Node22</title>
<path fill="none" stroke="midnightblue" d="M1166.61,-141.8C1291.58,-138.97 1539.33,-129.53 1747,-98 1756.69,-96.53 1767.1,-94.3 1776.53,-92.03"/>
<polygon fill="midnightblue" stroke="midnightblue" points="1166.29,-138.31 1156.37,-142.02 1166.44,-145.3 1166.29,-138.31"/>
</g>
<!-- Node9 -->
<g id="node9" class="node">
<title>Node9</title>
<g id="a_node9"><a xlink:href="ekf__4x1x0__ardupilot__soaring_8cpp.xhtml" target="_top" xlink:title=" ">
<polygon fill="white" stroke="black" points="517.5,-0.5 517.5,-30.5 654.5,-30.5 654.5,-0.5 517.5,-0.5"/>
<text text-anchor="start" x="525.5" y="-18.5" font-family="Helvetica,sans-Serif" font-size="10.00">sample/ekf_4x1x0_ardupilot</text>
<text text-anchor="middle" x="586" y="-7.5" font-family="Helvetica,sans-Serif" font-size="10.00">_soaring.cpp</text>
</a>
</g>
</g>
<!-- Node8&#45;&gt;Node9 -->
<g id="edge8" class="edge">
<title>Node8&#45;&gt;Node9</title>
<path fill="none" stroke="midnightblue" d="M949.7,-66.87C822.56,-45.45 787.8,-50.25 664,-31 661.01,-30.53 657.95,-30.04 654.87,-29.53"/>
<polygon fill="midnightblue" stroke="midnightblue" points="949.38,-70.37 959.83,-68.6 950.56,-63.47 949.38,-70.37"/>
</g>
<!-- Node10 -->
<g id="node10" class="node">
<title>Node10</title>
<g id="a_node10"><a xlink:href="kf__2x1x1__rocket__altitude_8cpp.xhtml" target="_top" xlink:title=" ">
<polygon fill="white" stroke="black" points="673,-0.5 673,-30.5 795,-30.5 795,-0.5 673,-0.5"/>
<text text-anchor="start" x="681" y="-18.5" font-family="Helvetica,sans-Serif" font-size="10.00">sample/kf_2x1x1_rocket</text>
<text text-anchor="middle" x="734" y="-7.5" font-family="Helvetica,sans-Serif" font-size="10.00">_altitude.cpp</text>
</a>
</g>
</g>
<!-- Node8&#45;&gt;Node10 -->
<g id="edge9" class="edge">
<title>Node8&#45;&gt;Node10</title>
<path fill="none" stroke="midnightblue" d="M949.95,-66.1C902.98,-55.31 840.7,-41.01 795.1,-30.53"/>
<polygon fill="midnightblue" stroke="midnightblue" points="949.2,-69.52 959.73,-68.35 950.77,-62.7 949.2,-69.52"/>
</g>
<!-- Node11 -->
<g id="node11" class="node">
<title>Node11</title>
<g id="a_node11"><a xlink:href="kf__6x2x0__vehicle__location_8cpp.xhtml" target="_top" xlink:title=" ">
<polygon fill="white" stroke="black" points="813.5,-0.5 813.5,-30.5 938.5,-30.5 938.5,-0.5 813.5,-0.5"/>
<text text-anchor="start" x="821.5" y="-18.5" font-family="Helvetica,sans-Serif" font-size="10.00">sample/kf_6x2x0_vehicle</text>
<text text-anchor="middle" x="876" y="-7.5" font-family="Helvetica,sans-Serif" font-size="10.00">_location.cpp</text>
</a>
</g>
</g>
<!-- Node8&#45;&gt;Node11 -->
<g id="edge10" class="edge">
<title>Node8&#45;&gt;Node11</title>
<path fill="none" stroke="midnightblue" d="M977.15,-63.13C954.75,-52.8 927.22,-40.11 906.54,-30.58"/>
<polygon fill="midnightblue" stroke="midnightblue" points="975.86,-66.39 986.41,-67.4 978.79,-60.03 975.86,-66.39"/>
</g>
<!-- Node12 -->
<g id="node12" class="node">
<title>Node12</title>
<g id="a_node12"><a xlink:href="kf__8x4x0__deep__sort__bounding__box_8cpp.xhtml" target="_top" xlink:title=" ">
<polygon fill="white" stroke="black" points="956.5,-0.5 956.5,-30.5 1077.5,-30.5 1077.5,-0.5 956.5,-0.5"/>
<text text-anchor="start" x="964.5" y="-18.5" font-family="Helvetica,sans-Serif" font-size="10.00">sample/kf_8x4x0_deep</text>
<text text-anchor="middle" x="1017" y="-7.5" font-family="Helvetica,sans-Serif" font-size="10.00">_sort_bounding_box.cpp</text>
</a>
</g>
</g>
<!-- Node8&#45;&gt;Node12 -->
<g id="edge11" class="edge">
<title>Node8&#45;&gt;Node12</title>
<path fill="none" stroke="midnightblue" d="M1017,-57.11C1017,-48.15 1017,-38.32 1017,-30.58"/>
<polygon fill="midnightblue" stroke="midnightblue" points="1013.5,-57.4 1017,-67.4 1020.5,-57.4 1013.5,-57.4"/>
</g>
<!-- Node13 -->
<g id="node13" class="node">
<title>Node13</title>
<g id="a_node13"><a xlink:href="eigen__f_8cpp.xhtml" target="_top" xlink:title=" ">
<polygon fill="white" stroke="black" points="1096,-6 1096,-25 1182,-25 1182,-6 1096,-6"/>
<text text-anchor="middle" x="1139" y="-13" font-family="Helvetica,sans-Serif" font-size="10.00">test/eigen_f.cpp</text>
</a>
</g>
</g>
<!-- Node8&#45;&gt;Node13 -->
<g id="edge12" class="edge">
<title>Node8&#45;&gt;Node13</title>
<path fill="none" stroke="midnightblue" d="M1052.4,-62.64C1075.74,-50.2 1105.19,-34.51 1123.03,-25.01"/>
<polygon fill="midnightblue" stroke="midnightblue" points="1050.65,-59.6 1043.47,-67.4 1053.94,-65.78 1050.65,-59.6"/>
</g>
<!-- Node14 -->
<g id="node14" class="node">
<title>Node14</title>
<g id="a_node14"><a xlink:href="eigen__h_8cpp.xhtml" target="_top" xlink:title=" ">
<polygon fill="white" stroke="black" points="1200,-6 1200,-25 1288,-25 1288,-6 1200,-6"/>
<text text-anchor="middle" x="1244" y="-13" font-family="Helvetica,sans-Serif" font-size="10.00">test/eigen_h.cpp</text>
</a>
</g>
</g>
<!-- Node8&#45;&gt;Node14 -->
<g id="edge13" class="edge">
<title>Node8&#45;&gt;Node14</title>
<path fill="none" stroke="midnightblue" d="M1075.77,-64.67C1120.14,-51.97 1179.17,-35.06 1214.22,-25.03"/>
<polygon fill="midnightblue" stroke="midnightblue" points="1074.63,-61.36 1065.98,-67.48 1076.55,-68.09 1074.63,-61.36"/>
</g>
<!-- Node15 -->
<g id="node15" class="node">
<title>Node15</title>
<g id="a_node15"><a xlink:href="eigen__initialization_8cpp.xhtml" target="_top" xlink:title=" ">
<polygon fill="white" stroke="black" points="1306.5,-6 1306.5,-25 1439.5,-25 1439.5,-6 1306.5,-6"/>
<text text-anchor="middle" x="1373" y="-13" font-family="Helvetica,sans-Serif" font-size="10.00">test/eigen_initialization.cpp</text>
</a>
</g>
</g>
<!-- Node8&#45;&gt;Node15 -->
<g id="edge14" class="edge">
<title>Node8&#45;&gt;Node15</title>
<path fill="none" stroke="midnightblue" d="M1084.25,-66.81C1179.38,-48.59 1205.22,-47.47 1297,-31 1307.44,-29.13 1318.68,-27.03 1329.22,-25.02"/>
<polygon fill="midnightblue" stroke="midnightblue" points="1083.36,-63.42 1074.2,-68.75 1084.68,-70.29 1083.36,-63.42"/>
</g>
</g>
</svg>
