<?xml version="1.0" encoding="UTF-8" standalone="no"?>
<!DOCTYPE svg PUBLIC "-//W3C//DTD SVG 1.1//EN"
 "http://www.w3.org/Graphics/SVG/1.1/DTD/svg11.dtd">
<!-- Generated by graphviz version 3.0.0 (20221109.1736)
 -->
<!-- Title: /github/workspace/include/fcarouge/kalman.hpp Pages: 1 -->
<svg width="5052pt" height="117pt"
 viewBox="0.00 0.00 5051.50 117.00" xmlns="http://www.w3.org/2000/svg" xmlns:xlink="http://www.w3.org/1999/xlink">
<g id="graph0" class="graph" transform="scale(1 1) rotate(0) translate(4 113)">
<title>/github/workspace/include/fcarouge/kalman.hpp</title>
<polygon fill="white" stroke="transparent" points="-4,4 -4,-113 5047.5,-113 5047.5,4 -4,4"/>
<!-- Node1 -->
<g id="node1" class="node">
<title>Node1</title>
<g id="a_node1"><a xlink:title="The Kalman filter class and library top&#45;level header.">
<polygon fill="#bfbfbf" stroke="black" points="2556.5,-78.5 2556.5,-108.5 2686.5,-108.5 2686.5,-78.5 2556.5,-78.5"/>
<text text-anchor="start" x="2564.5" y="-96.5" font-family="Helvetica,sans-Serif" font-size="10.00">/github/workspace/include</text>
<text text-anchor="middle" x="2621.5" y="-85.5" font-family="Helvetica,sans-Serif" font-size="10.00">/fcarouge/kalman.hpp</text>
</a>
</g>
</g>
<!-- Node2 -->
<g id="node2" class="node">
<title>Node2</title>
<g id="a_node2"><a xlink:href="predict__1x1x0_8cpp.xhtml" target="_top" xlink:title=" ">
<polygon fill="white" stroke="black" points="0,-6 0,-36 147,-36 147,-6 0,-6"/>
<text text-anchor="start" x="8" y="-24" font-family="Helvetica,sans-Serif" font-size="10.00">/github/workspace/benchmark</text>
<text text-anchor="middle" x="73.5" y="-13" font-family="Helvetica,sans-Serif" font-size="10.00">/predict_1x1x0.cpp</text>
</a>
</g>
</g>
<!-- Node1&#45;&gt;Node2 -->
<g id="edge1" class="edge">
<title>Node1&#45;&gt;Node2</title>
<path fill="none" stroke="midnightblue" d="M2546.17,-91.94C2158.51,-88.92 397.12,-73.55 155.5,-42 145.04,-40.63 133.98,-38.45 123.48,-36.03"/>
<polygon fill="midnightblue" stroke="midnightblue" points="2546.4,-95.44 2556.43,-92.02 2546.45,-88.44 2546.4,-95.44"/>
</g>
<!-- Node3 -->
<g id="node3" class="node">
<title>Node3</title>
<g id="a_node3"><a xlink:href="predict__1x1x1_8cpp.xhtml" target="_top" xlink:title=" ">
<polygon fill="white" stroke="black" points="165,-6 165,-36 312,-36 312,-6 165,-6"/>
<text text-anchor="start" x="173" y="-24" font-family="Helvetica,sans-Serif" font-size="10.00">/github/workspace/benchmark</text>
<text text-anchor="middle" x="238.5" y="-13" font-family="Helvetica,sans-Serif" font-size="10.00">/predict_1x1x1.cpp</text>
</a>
</g>
</g>
<!-- Node1&#45;&gt;Node3 -->
<g id="edge2" class="edge">
<title>Node1&#45;&gt;Node3</title>
<path fill="none" stroke="midnightblue" d="M2546.14,-91.82C2174.4,-88.33 544.9,-71.47 320.5,-42 310.04,-40.63 298.98,-38.44 288.48,-36.01"/>
<polygon fill="midnightblue" stroke="midnightblue" points="2546.22,-95.32 2556.25,-91.91 2546.28,-88.32 2546.22,-95.32"/>
</g>
<!-- Node4 -->
<g id="node4" class="node">
<title>Node4</title>
<g id="a_node4"><a xlink:href="predict__linalg__x1x_8cpp.xhtml" target="_top" xlink:title=" ">
<polygon fill="white" stroke="black" points="330,-6 330,-36 477,-36 477,-6 330,-6"/>
<text text-anchor="start" x="338" y="-24" font-family="Helvetica,sans-Serif" font-size="10.00">/github/workspace/benchmark</text>
<text text-anchor="middle" x="403.5" y="-13" font-family="Helvetica,sans-Serif" font-size="10.00">/predict_linalg_x1x.cpp</text>
</a>
</g>
</g>
<!-- Node1&#45;&gt;Node4 -->
<g id="edge3" class="edge">
<title>Node1&#45;&gt;Node4</title>
<path fill="none" stroke="midnightblue" d="M2546.06,-92.89C2215.85,-94.29 896.12,-96.28 485.5,-42 475.04,-40.62 463.98,-38.43 453.48,-36"/>
<polygon fill="midnightblue" stroke="midnightblue" points="2546.48,-96.39 2556.46,-92.85 2546.45,-89.39 2546.48,-96.39"/>
</g>
<!-- Node5 -->
<g id="node5" class="node">
<title>Node5</title>
<g id="a_node5"><a xlink:href="update__1x1x0_8cpp.xhtml" target="_top" xlink:title=" ">
<polygon fill="white" stroke="black" points="495,-6 495,-36 642,-36 642,-6 495,-6"/>
<text text-anchor="start" x="503" y="-24" font-family="Helvetica,sans-Serif" font-size="10.00">/github/workspace/benchmark</text>
<text text-anchor="middle" x="568.5" y="-13" font-family="Helvetica,sans-Serif" font-size="10.00">/update_1x1x0.cpp</text>
</a>
</g>
</g>
<!-- Node1&#45;&gt;Node5 -->
<g id="edge4" class="edge">
<title>Node1&#45;&gt;Node5</title>
<path fill="none" stroke="midnightblue" d="M2545.75,-92.72C2231.19,-93.3 1026.88,-92.14 650.5,-42 640.19,-40.63 629.29,-38.48 618.92,-36.09"/>
<polygon fill="midnightblue" stroke="midnightblue" points="2546.13,-96.22 2556.12,-92.7 2546.11,-89.22 2546.13,-96.22"/>
</g>
<!-- Node6 -->
<g id="node6" class="node">
<title>Node6</title>
<g id="a_node6"><a xlink:href="update__1x1x1_8cpp.xhtml" target="_top" xlink:title=" ">
<polygon fill="white" stroke="black" points="660,-6 660,-36 807,-36 807,-6 660,-6"/>
<text text-anchor="start" x="668" y="-24" font-family="Helvetica,sans-Serif" font-size="10.00">/github/workspace/benchmark</text>
<text text-anchor="middle" x="733.5" y="-13" font-family="Helvetica,sans-Serif" font-size="10.00">/update_1x1x1.cpp</text>
</a>
</g>
</g>
<!-- Node1&#45;&gt;Node6 -->
<g id="edge5" class="edge">
<title>Node1&#45;&gt;Node6</title>
<path fill="none" stroke="midnightblue" d="M2546.26,-92.51C2249.28,-92.24 1158.06,-88.04 815.5,-42 805.19,-40.61 794.29,-38.46 783.92,-36.07"/>
<polygon fill="midnightblue" stroke="midnightblue" points="2546.48,-96.01 2556.49,-92.52 2546.49,-89.01 2546.48,-96.01"/>
</g>
<!-- Node7 -->
<g id="node7" class="node">
<title>Node7</title>
<g id="a_node7"><a xlink:href="update__linalg__xx0_8cpp.xhtml" target="_top" xlink:title=" ">
<polygon fill="white" stroke="black" points="825,-6 825,-36 972,-36 972,-6 825,-6"/>
<text text-anchor="start" x="833" y="-24" font-family="Helvetica,sans-Serif" font-size="10.00">/github/workspace/benchmark</text>
<text text-anchor="middle" x="898.5" y="-13" font-family="Helvetica,sans-Serif" font-size="10.00">/update_linalg_xx0.cpp</text>
</a>
</g>
</g>
<!-- Node1&#45;&gt;Node7 -->
<g id="edge6" class="edge">
<title>Node1&#45;&gt;Node7</title>
<path fill="none" stroke="midnightblue" d="M2546.23,-92.27C2266.79,-91.07 1289.13,-83.92 980.5,-42 970.19,-40.6 959.29,-38.44 948.92,-36.04"/>
<polygon fill="midnightblue" stroke="midnightblue" points="2546.25,-95.77 2556.27,-92.31 2546.28,-88.77 2546.25,-95.77"/>
</g>
<!-- Node8 -->
<g id="node8" class="node">
<title>Node8</title>
<g id="a_node8"><a xlink:href="ekf__4x1x0__soaring_8cpp.xhtml" target="_top" xlink:title=" ">
<polygon fill="white" stroke="black" points="990,-6 990,-36 1121,-36 1121,-6 990,-6"/>
<text text-anchor="start" x="998" y="-24" font-family="Helvetica,sans-Serif" font-size="10.00">/github/workspace/sample</text>
<text text-anchor="middle" x="1055.5" y="-13" font-family="Helvetica,sans-Serif" font-size="10.00">/ekf_4x1x0_soaring.cpp</text>
</a>
</g>
</g>
<!-- Node1&#45;&gt;Node8 -->
<g id="edge7" class="edge">
<title>Node1&#45;&gt;Node8</title>
<path fill="none" stroke="midnightblue" d="M2546.16,-92.2C2283.33,-90.82 1407.97,-83.15 1130.5,-42 1121.04,-40.6 1111.05,-38.43 1101.57,-36.04"/>
<polygon fill="midnightblue" stroke="midnightblue" points="2546.34,-95.7 2556.36,-92.26 2546.38,-88.7 2546.34,-95.7"/>
</g>
<!-- Node9 -->
<g id="node9" class="node">
<title>Node9</title>
<g id="a_node9"><a xlink:href="kf__1x1x0__building__height_8cpp.xhtml" target="_top" xlink:title=" ">
<polygon fill="white" stroke="black" points="1139.5,-6 1139.5,-36 1285.5,-36 1285.5,-6 1139.5,-6"/>
<text text-anchor="start" x="1147.5" y="-24" font-family="Helvetica,sans-Serif" font-size="10.00">/github/workspace/sample</text>
<text text-anchor="middle" x="1212.5" y="-13" font-family="Helvetica,sans-Serif" font-size="10.00">/kf_1x1x0_building_height.cpp</text>
</a>
</g>
</g>
<!-- Node1&#45;&gt;Node9 -->
<g id="edge8" class="edge">
<title>Node1&#45;&gt;Node9</title>
<path fill="none" stroke="midnightblue" d="M2545.97,-91.62C2302.32,-88.48 1538.88,-76.1 1294.5,-42 1284.34,-40.58 1273.61,-38.44 1263.37,-36.09"/>
<polygon fill="midnightblue" stroke="midnightblue" points="2546.1,-95.12 2556.14,-91.75 2546.19,-88.13 2546.1,-95.12"/>
</g>
<!-- Node10 -->
<g id="node10" class="node">
<title>Node10</title>
<g id="a_node10"><a xlink:href="kf__1x1x0__liquid__temperature_8cpp.xhtml" target="_top" xlink:title=" ">
<polygon fill="white" stroke="black" points="1304,-6 1304,-36 1465,-36 1465,-6 1304,-6"/>
<text text-anchor="start" x="1312" y="-24" font-family="Helvetica,sans-Serif" font-size="10.00">/github/workspace/sample</text>
<text text-anchor="middle" x="1384.5" y="-13" font-family="Helvetica,sans-Serif" font-size="10.00">/kf_1x1x0_liquid_temperature.cpp</text>
</a>
</g>
</g>
<!-- Node1&#45;&gt;Node10 -->
<g id="edge9" class="edge">
<title>Node1&#45;&gt;Node10</title>
<path fill="none" stroke="midnightblue" d="M2546.27,-90.9C2325.64,-85.95 1682.76,-69.51 1474.5,-42 1463.39,-40.53 1451.63,-38.37 1440.4,-36.01"/>
<polygon fill="midnightblue" stroke="midnightblue" points="2546.38,-94.41 2556.45,-91.13 2546.53,-87.41 2546.38,-94.41"/>
</g>
<!-- Node11 -->
<g id="node11" class="node">
<title>Node11</title>
<g id="a_node11"><a xlink:href="kf__1x1x1__dog__position_8cpp.xhtml" target="_top" xlink:title=" ">
<polygon fill="white" stroke="black" points="1483.5,-6 1483.5,-36 1619.5,-36 1619.5,-6 1483.5,-6"/>
<text text-anchor="start" x="1491.5" y="-24" font-family="Helvetica,sans-Serif" font-size="10.00">/github/workspace/sample</text>
<text text-anchor="middle" x="1551.5" y="-13" font-family="Helvetica,sans-Serif" font-size="10.00">/kf_1x1x1_dog_position.cpp</text>
</a>
</g>
</g>
<!-- Node1&#45;&gt;Node11 -->
<g id="edge10" class="edge">
<title>Node1&#45;&gt;Node11</title>
<path fill="none" stroke="midnightblue" d="M2546.13,-90.65C2346.12,-85.43 1805.21,-69.15 1628.5,-42 1618.94,-40.53 1608.86,-38.37 1599.24,-36.01"/>
<polygon fill="midnightblue" stroke="midnightblue" points="2546.16,-94.15 2556.25,-90.91 2546.34,-87.16 2546.16,-94.15"/>
</g>
<!-- Node12 -->
<g id="node12" class="node">
<title>Node12</title>
<g id="a_node12"><a xlink:href="kf__2x1x1__rocket__altitude_8cpp.xhtml" target="_top" xlink:title=" ">
<polygon fill="white" stroke="black" points="1638,-6 1638,-36 1783,-36 1783,-6 1638,-6"/>
<text text-anchor="start" x="1646" y="-24" font-family="Helvetica,sans-Serif" font-size="10.00">/github/workspace/sample</text>
<text text-anchor="middle" x="1710.5" y="-13" font-family="Helvetica,sans-Serif" font-size="10.00">/kf_2x1x1_rocket_altitude.cpp</text>
</a>
</g>
</g>
<!-- Node1&#45;&gt;Node12 -->
<g id="edge11" class="edge">
<title>Node1&#45;&gt;Node12</title>
<path fill="none" stroke="midnightblue" d="M2546.02,-92.47C2399.63,-91.41 2067.27,-84.08 1791.5,-42 1781.62,-40.49 1771.18,-38.34 1761.2,-36.01"/>
<polygon fill="midnightblue" stroke="midnightblue" points="2546.22,-95.97 2556.24,-92.54 2546.26,-88.97 2546.22,-95.97"/>
</g>
<!-- Node13 -->
<g id="node13" class="node">
<title>Node13</title>
<g id="a_node13"><a xlink:href="kf__6x2x0__vehicle__location_8cpp.xhtml" target="_top" xlink:title=" ">
<polygon fill="white" stroke="black" points="1801,-6 1801,-36 1952,-36 1952,-6 1801,-6"/>
<text text-anchor="start" x="1809" y="-24" font-family="Helvetica,sans-Serif" font-size="10.00">/github/workspace/sample</text>
<text text-anchor="middle" x="1876.5" y="-13" font-family="Helvetica,sans-Serif" font-size="10.00">/kf_6x2x0_vehicle_location.cpp</text>
</a>
</g>
</g>
<!-- Node1&#45;&gt;Node13 -->
<g id="edge12" class="edge">
<title>Node1&#45;&gt;Node13</title>
<path fill="none" stroke="midnightblue" d="M2546.42,-90.53C2423.5,-86.47 2171.92,-74.61 1961.5,-42 1951.46,-40.44 1940.86,-38.33 1930.67,-36.06"/>
<polygon fill="midnightblue" stroke="midnightblue" points="2546.37,-94.03 2556.48,-90.86 2546.6,-87.04 2546.37,-94.03"/>
</g>
<!-- Node14 -->
<g id="node14" class="node">
<title>Node14</title>
<g id="a_node14"><a xlink:href="kf__8x4x0__deep__sort__bounding__box_8cpp.xhtml" target="_top" xlink:title=" ">
<polygon fill="white" stroke="black" points="1970.5,-0.5 1970.5,-41.5 2120.5,-41.5 2120.5,-0.5 1970.5,-0.5"/>
<text text-anchor="start" x="1978.5" y="-29.5" font-family="Helvetica,sans-Serif" font-size="10.00">/github/workspace/sample</text>
<text text-anchor="start" x="1978.5" y="-18.5" font-family="Helvetica,sans-Serif" font-size="10.00">/kf_8x4x0_deep_sort_bounding</text>
<text text-anchor="middle" x="2045.5" y="-7.5" font-family="Helvetica,sans-Serif" font-size="10.00">_box.cpp</text>
</a>
</g>
</g>
<!-- Node1&#45;&gt;Node14 -->
<g id="edge13" class="edge">
<title>Node1&#45;&gt;Node14</title>
<path fill="none" stroke="midnightblue" d="M2546.27,-87.86C2449.4,-81.19 2276.06,-66.86 2129.5,-42 2126.54,-41.5 2123.54,-40.95 2120.51,-40.37"/>
<polygon fill="midnightblue" stroke="midnightblue" points="2546.05,-91.36 2556.27,-88.54 2546.53,-84.37 2546.05,-91.36"/>
</g>
<!-- Node15 -->
<g id="node15" class="node">
<title>Node15</title>
<g id="a_node15"><a xlink:href="kalman__constructor__default_8cpp.xhtml" target="_top" xlink:title=" ">
<polygon fill="white" stroke="black" points="2138.5,-6 2138.5,-36 2296.5,-36 2296.5,-6 2138.5,-6"/>
<text text-anchor="start" x="2146.5" y="-24" font-family="Helvetica,sans-Serif" font-size="10.00">/github/workspace/test</text>
<text text-anchor="middle" x="2217.5" y="-13" font-family="Helvetica,sans-Serif" font-size="10.00">/kalman_constructor_default.cpp</text>
</a>
</g>
</g>
<!-- Node1&#45;&gt;Node15 -->
<g id="edge14" class="edge">
<title>Node1&#45;&gt;Node15</title>
<path fill="none" stroke="midnightblue" d="M2546.19,-81.87C2482.02,-72.48 2387.44,-57.84 2305.5,-42 2296.27,-40.22 2286.53,-38.17 2277.03,-36.08"/>
<polygon fill="midnightblue" stroke="midnightblue" points="2545.82,-85.36 2556.22,-83.33 2546.83,-78.43 2545.82,-85.36"/>
</g>
<!-- Node16 -->
<g id="node16" class="node">
<title>Node16</title>
<g id="a_node16"><a xlink:href="kalman__constructor__default__1x1x3_8cpp.xhtml" target="_top" xlink:title=" ">
<polygon fill="white" stroke="black" points="2314.5,-0.5 2314.5,-41.5 2454.5,-41.5 2454.5,-0.5 2314.5,-0.5"/>
<text text-anchor="start" x="2322.5" y="-29.5" font-family="Helvetica,sans-Serif" font-size="10.00">/github/workspace/test</text>
<text text-anchor="start" x="2322.5" y="-18.5" font-family="Helvetica,sans-Serif" font-size="10.00">/kalman_constructor_default</text>
<text text-anchor="middle" x="2384.5" y="-7.5" font-family="Helvetica,sans-Serif" font-size="10.00">_1x1x3.cpp</text>
</a>
</g>
</g>
<!-- Node1&#45;&gt;Node16 -->
<g id="edge15" class="edge">
<title>Node1&#45;&gt;Node16</title>
<path fill="none" stroke="midnightblue" d="M2564.51,-75.55C2530.14,-65.32 2486.22,-52.26 2450.36,-41.59"/>
<polygon fill="midnightblue" stroke="midnightblue" points="2563.81,-78.99 2574.39,-78.49 2565.81,-72.28 2563.81,-78.99"/>
</g>
<!-- Node17 -->
<g id="node17" class="node">
<title>Node17</title>
<g id="a_node17"><a xlink:href="kalman__constructor__default__1x4x1_8cpp.xhtml" target="_top" xlink:title=" ">
<polygon fill="white" stroke="black" points="2472.5,-0.5 2472.5,-41.5 2612.5,-41.5 2612.5,-0.5 2472.5,-0.5"/>
<text text-anchor="start" x="2480.5" y="-29.5" font-family="Helvetica,sans-Serif" font-size="10.00">/github/workspace/test</text>
<text text-anchor="start" x="2480.5" y="-18.5" font-family="Helvetica,sans-Serif" font-size="10.00">/kalman_constructor_default</text>
<text text-anchor="middle" x="2542.5" y="-7.5" font-family="Helvetica,sans-Serif" font-size="10.00">_1x4x1.cpp</text>
</a>
</g>
</g>
<!-- Node1&#45;&gt;Node17 -->
<g id="edge16" class="edge">
<title>Node1&#45;&gt;Node17</title>
<path fill="none" stroke="midnightblue" d="M2597.83,-71.38C2587.24,-61.93 2574.83,-50.85 2564.45,-41.59"/>
<polygon fill="midnightblue" stroke="midnightblue" points="2595.72,-74.19 2605.51,-78.23 2600.38,-68.96 2595.72,-74.19"/>
</g>
<!-- Node18 -->
<g id="node18" class="node">
<title>Node18</title>
<g id="a_node18"><a xlink:href="kalman__constructor__default__1x4x3_8cpp.xhtml" target="_top" xlink:title=" ">
<polygon fill="white" stroke="black" points="2630.5,-0.5 2630.5,-41.5 2770.5,-41.5 2770.5,-0.5 2630.5,-0.5"/>
<text text-anchor="start" x="2638.5" y="-29.5" font-family="Helvetica,sans-Serif" font-size="10.00">/github/workspace/test</text>
<text text-anchor="start" x="2638.5" y="-18.5" font-family="Helvetica,sans-Serif" font-size="10.00">/kalman_constructor_default</text>
<text text-anchor="middle" x="2700.5" y="-7.5" font-family="Helvetica,sans-Serif" font-size="10.00">_1x4x3.cpp</text>
</a>
</g>
</g>
<!-- Node1&#45;&gt;Node18 -->
<g id="edge17" class="edge">
<title>Node1&#45;&gt;Node18</title>
<path fill="none" stroke="midnightblue" d="M2645.17,-71.38C2655.76,-61.93 2668.17,-50.85 2678.55,-41.59"/>
<polygon fill="midnightblue" stroke="midnightblue" points="2642.62,-68.96 2637.49,-78.23 2647.28,-74.19 2642.62,-68.96"/>
</g>
<!-- Node19 -->
<g id="node19" class="node">
<title>Node19</title>
<g id="a_node19"><a xlink:href="kalman__constructor__default__5x1x1_8cpp.xhtml" target="_top" xlink:title=" ">
<polygon fill="white" stroke="black" points="2788.5,-0.5 2788.5,-41.5 2928.5,-41.5 2928.5,-0.5 2788.5,-0.5"/>
<text text-anchor="start" x="2796.5" y="-29.5" font-family="Helvetica,sans-Serif" font-size="10.00">/github/workspace/test</text>
<text text-anchor="start" x="2796.5" y="-18.5" font-family="Helvetica,sans-Serif" font-size="10.00">/kalman_constructor_default</text>
<text text-anchor="middle" x="2858.5" y="-7.5" font-family="Helvetica,sans-Serif" font-size="10.00">_5x1x1.cpp</text>
</a>
</g>
</g>
<!-- Node1&#45;&gt;Node19 -->
<g id="edge18" class="edge">
<title>Node1&#45;&gt;Node19</title>
<path fill="none" stroke="midnightblue" d="M2678.49,-75.55C2712.86,-65.32 2756.78,-52.26 2792.64,-41.59"/>
<polygon fill="midnightblue" stroke="midnightblue" points="2677.19,-72.28 2668.61,-78.49 2679.19,-78.99 2677.19,-72.28"/>
</g>
<!-- Node20 -->
<g id="node20" class="node">
<title>Node20</title>
<g id="a_node20"><a xlink:href="kalman__constructor__default__5x1x3_8cpp.xhtml" target="_top" xlink:title=" ">
<polygon fill="white" stroke="black" points="2946.5,-0.5 2946.5,-41.5 3086.5,-41.5 3086.5,-0.5 2946.5,-0.5"/>
<text text-anchor="start" x="2954.5" y="-29.5" font-family="Helvetica,sans-Serif" font-size="10.00">/github/workspace/test</text>
<text text-anchor="start" x="2954.5" y="-18.5" font-family="Helvetica,sans-Serif" font-size="10.00">/kalman_constructor_default</text>
<text text-anchor="middle" x="3016.5" y="-7.5" font-family="Helvetica,sans-Serif" font-size="10.00">_5x1x3.cpp</text>
</a>
</g>
</g>
<!-- Node1&#45;&gt;Node20 -->
<g id="edge19" class="edge">
<title>Node1&#45;&gt;Node20</title>
<path fill="none" stroke="midnightblue" d="M2696.61,-82.43C2760.85,-73.35 2855.63,-58.87 2937.5,-42 2940.41,-41.4 2943.37,-40.76 2946.36,-40.1"/>
<polygon fill="midnightblue" stroke="midnightblue" points="2695.98,-78.98 2686.57,-83.84 2696.95,-85.91 2695.98,-78.98"/>
</g>
<!-- Node21 -->
<g id="node21" class="node">
<title>Node21</title>
<g id="a_node21"><a xlink:href="kalman__constructor__default__5x4x0_8cpp.xhtml" target="_top" xlink:title=" ">
<polygon fill="white" stroke="black" points="3104.5,-0.5 3104.5,-41.5 3244.5,-41.5 3244.5,-0.5 3104.5,-0.5"/>
<text text-anchor="start" x="3112.5" y="-29.5" font-family="Helvetica,sans-Serif" font-size="10.00">/github/workspace/test</text>
<text text-anchor="start" x="3112.5" y="-18.5" font-family="Helvetica,sans-Serif" font-size="10.00">/kalman_constructor_default</text>
<text text-anchor="middle" x="3174.5" y="-7.5" font-family="Helvetica,sans-Serif" font-size="10.00">_5x4x0.cpp</text>
</a>
</g>
</g>
<!-- Node1&#45;&gt;Node21 -->
<g id="edge20" class="edge">
<title>Node1&#45;&gt;Node21</title>
<path fill="none" stroke="midnightblue" d="M2696.96,-87.78C2790.87,-81.14 2955.93,-66.97 3095.5,-42 3098.42,-41.48 3101.4,-40.9 3104.4,-40.3"/>
<polygon fill="midnightblue" stroke="midnightblue" points="2696.43,-84.3 2686.7,-88.49 2696.92,-91.29 2696.43,-84.3"/>
</g>
<!-- Node22 -->
<g id="node22" class="node">
<title>Node22</title>
<g id="a_node22"><a xlink:href="kalman__constructor__default__5x4x1_8cpp.xhtml" target="_top" xlink:title=" ">
<polygon fill="white" stroke="black" points="3262.5,-0.5 3262.5,-41.5 3402.5,-41.5 3402.5,-0.5 3262.5,-0.5"/>
<text text-anchor="start" x="3270.5" y="-29.5" font-family="Helvetica,sans-Serif" font-size="10.00">/github/workspace/test</text>
<text text-anchor="start" x="3270.5" y="-18.5" font-family="Helvetica,sans-Serif" font-size="10.00">/kalman_constructor_default</text>
<text text-anchor="middle" x="3332.5" y="-7.5" font-family="Helvetica,sans-Serif" font-size="10.00">_5x4x1.cpp</text>
</a>
</g>
</g>
<!-- Node1&#45;&gt;Node22 -->
<g id="edge21" class="edge">
<title>Node1&#45;&gt;Node22</title>
<path fill="none" stroke="midnightblue" d="M2696.62,-90.58C2815.53,-86.63 3054.06,-74.97 3253.5,-42 3256.43,-41.52 3259.41,-40.98 3262.42,-40.39"/>
<polygon fill="midnightblue" stroke="midnightblue" points="2696.41,-87.08 2686.53,-90.91 2696.64,-94.08 2696.41,-87.08"/>
</g>
<!-- Node23 -->
<g id="node23" class="node">
<title>Node23</title>
<g id="a_node23"><a xlink:href="kalman__constructor__default__5x4x3_8cpp.xhtml" target="_top" xlink:title=" ">
<polygon fill="white" stroke="black" points="3420.5,-0.5 3420.5,-41.5 3560.5,-41.5 3560.5,-0.5 3420.5,-0.5"/>
<text text-anchor="start" x="3428.5" y="-29.5" font-family="Helvetica,sans-Serif" font-size="10.00">/github/workspace/test</text>
<text text-anchor="start" x="3428.5" y="-18.5" font-family="Helvetica,sans-Serif" font-size="10.00">/kalman_constructor_default</text>
<text text-anchor="middle" x="3490.5" y="-7.5" font-family="Helvetica,sans-Serif" font-size="10.00">_5x4x3.cpp</text>
</a>
</g>
</g>
<!-- Node1&#45;&gt;Node23 -->
<g id="edge22" class="edge">
<title>Node1&#45;&gt;Node23</title>
<path fill="none" stroke="midnightblue" d="M2696.99,-92.28C2838.16,-90.86 3151.4,-82.88 3411.5,-42 3414.44,-41.54 3417.42,-41.02 3420.43,-40.45"/>
<polygon fill="midnightblue" stroke="midnightblue" points="2696.68,-88.78 2686.71,-92.38 2696.75,-95.78 2696.68,-88.78"/>
</g>
<!-- Node24 -->
<g id="node24" class="node">
<title>Node24</title>
<g id="a_node24"><a xlink:href="kalman__constructor__default__float__1x1x1_8cpp.xhtml" target="_top" xlink:title=" ">
<polygon fill="white" stroke="black" points="3578.5,-0.5 3578.5,-41.5 3718.5,-41.5 3718.5,-0.5 3578.5,-0.5"/>
<text text-anchor="start" x="3586.5" y="-29.5" font-family="Helvetica,sans-Serif" font-size="10.00">/github/workspace/test</text>
<text text-anchor="start" x="3586.5" y="-18.5" font-family="Helvetica,sans-Serif" font-size="10.00">/kalman_constructor_default</text>
<text text-anchor="middle" x="3648.5" y="-7.5" font-family="Helvetica,sans-Serif" font-size="10.00">_float_1x1x1.cpp</text>
</a>
</g>
</g>
<!-- Node1&#45;&gt;Node24 -->
<g id="edge23" class="edge">
<title>Node1&#45;&gt;Node24</title>
<path fill="none" stroke="midnightblue" d="M2696.82,-90.38C2890.38,-84.64 3401.71,-67.46 3569.5,-42 3572.44,-41.55 3575.42,-41.05 3578.43,-40.49"/>
<polygon fill="midnightblue" stroke="midnightblue" points="2696.64,-86.89 2686.74,-90.68 2696.84,-93.88 2696.64,-86.89"/>
</g>
<!-- Node25 -->
<g id="node25" class="node">
<title>Node25</title>
<g id="a_node25"><a xlink:href="kalman__f_8cpp.xhtml" target="_top" xlink:title=" ">
<polygon fill="white" stroke="black" points="3736.5,-6 3736.5,-36 3852.5,-36 3852.5,-6 3736.5,-6"/>
<text text-anchor="start" x="3744.5" y="-24" font-family="Helvetica,sans-Serif" font-size="10.00">/github/workspace/test</text>
<text text-anchor="middle" x="3794.5" y="-13" font-family="Helvetica,sans-Serif" font-size="10.00">/kalman_f.cpp</text>
</a>
</g>
</g>
<!-- Node1&#45;&gt;Node25 -->
<g id="edge24" class="edge">
<title>Node1&#45;&gt;Node25</title>
<path fill="none" stroke="midnightblue" d="M2697.1,-91.45C2912.84,-88.08 3528.69,-75.69 3727.5,-42 3735.88,-40.58 3744.68,-38.44 3753.06,-36.08"/>
<polygon fill="midnightblue" stroke="midnightblue" points="2696.77,-87.96 2686.82,-91.61 2696.87,-94.96 2696.77,-87.96"/>
</g>
<!-- Node26 -->
<g id="node26" class="node">
<title>Node26</title>
<g id="a_node26"><a xlink:href="kalman__f__5x4x3_8cpp.xhtml" target="_top" xlink:title=" ">
<polygon fill="white" stroke="black" points="3870.5,-6 3870.5,-36 3986.5,-36 3986.5,-6 3870.5,-6"/>
<text text-anchor="start" x="3878.5" y="-24" font-family="Helvetica,sans-Serif" font-size="10.00">/github/workspace/test</text>
<text text-anchor="middle" x="3928.5" y="-13" font-family="Helvetica,sans-Serif" font-size="10.00">/kalman_f_5x4x3.cpp</text>
</a>
</g>
</g>
<!-- Node1&#45;&gt;Node26 -->
<g id="edge25" class="edge">
<title>Node1&#45;&gt;Node26</title>
<path fill="none" stroke="midnightblue" d="M2696.89,-91.89C2929.77,-89.61 3635.61,-79.71 3861.5,-42 3870,-40.58 3878.94,-38.41 3887.42,-36.01"/>
<polygon fill="midnightblue" stroke="midnightblue" points="2696.78,-88.39 2686.82,-91.99 2696.85,-95.39 2696.78,-88.39"/>
</g>
<!-- Node27 -->
<g id="node27" class="node">
<title>Node27</title>
<g id="a_node27"><a xlink:href="kalman__f__eigen__5x4x3_8cpp.xhtml" target="_top" xlink:title=" ">
<polygon fill="white" stroke="black" points="4004.5,-6 4004.5,-36 4140.5,-36 4140.5,-6 4004.5,-6"/>
<text text-anchor="start" x="4012.5" y="-24" font-family="Helvetica,sans-Serif" font-size="10.00">/github/workspace/test</text>
<text text-anchor="middle" x="4072.5" y="-13" font-family="Helvetica,sans-Serif" font-size="10.00">/kalman_f_eigen_5x4x3.cpp</text>
</a>
</g>
</g>
<!-- Node1&#45;&gt;Node27 -->
<g id="edge26" class="edge">
<title>Node1&#45;&gt;Node27</title>
<path fill="none" stroke="midnightblue" d="M2696.76,-91.89C2945.81,-89.52 3741.73,-79.17 3995.5,-42 4005.2,-40.58 4015.45,-38.41 4025.18,-36.01"/>
<polygon fill="midnightblue" stroke="midnightblue" points="2696.69,-88.39 2686.73,-91.98 2696.76,-95.39 2696.69,-88.39"/>
</g>
<!-- Node28 -->
<g id="node28" class="node">
<title>Node28</title>
<g id="a_node28"><a xlink:href="kalman__format_8cpp.xhtml" target="_top" xlink:title=" ">
<polygon fill="white" stroke="black" points="4158.5,-6 4158.5,-36 4274.5,-36 4274.5,-6 4158.5,-6"/>
<text text-anchor="start" x="4166.5" y="-24" font-family="Helvetica,sans-Serif" font-size="10.00">/github/workspace/test</text>
<text text-anchor="middle" x="4216.5" y="-13" font-family="Helvetica,sans-Serif" font-size="10.00">/kalman_format.cpp</text>
</a>
</g>
</g>
<!-- Node1&#45;&gt;Node28 -->
<g id="edge27" class="edge">
<title>Node1&#45;&gt;Node28</title>
<path fill="none" stroke="midnightblue" d="M2696.93,-92.57C2964.17,-92.4 3865.14,-88.35 4149.5,-42 4158.01,-40.61 4166.95,-38.46 4175.43,-36.07"/>
<polygon fill="midnightblue" stroke="midnightblue" points="2696.55,-89.07 2686.56,-92.57 2696.56,-96.07 2696.55,-89.07"/>
</g>
<!-- Node29 -->
<g id="node29" class="node">
<title>Node29</title>
<g id="a_node29"><a xlink:href="kalman__format__arguments_8cpp.xhtml" target="_top" xlink:title=" ">
<polygon fill="white" stroke="black" points="4293,-6 4293,-36 4446,-36 4446,-6 4293,-6"/>
<text text-anchor="start" x="4301" y="-24" font-family="Helvetica,sans-Serif" font-size="10.00">/github/workspace/test</text>
<text text-anchor="middle" x="4369.5" y="-13" font-family="Helvetica,sans-Serif" font-size="10.00">/kalman_format_arguments.cpp</text>
</a>
</g>
</g>
<!-- Node1&#45;&gt;Node29 -->
<g id="edge28" class="edge">
<title>Node1&#45;&gt;Node29</title>
<path fill="none" stroke="midnightblue" d="M2696.76,-92.19C2978.44,-90.74 3970.34,-82.76 4283.5,-42 4294.29,-40.6 4305.71,-38.43 4316.58,-36.04"/>
<polygon fill="midnightblue" stroke="midnightblue" points="2696.63,-88.69 2686.65,-92.24 2696.66,-95.69 2696.63,-88.69"/>
</g>
<!-- Node30 -->
<g id="node30" class="node">
<title>Node30</title>
<g id="a_node30"><a xlink:href="kalman__format__float__1x1x1_8cpp.xhtml" target="_top" xlink:title=" ">
<polygon fill="white" stroke="black" points="4464,-6 4464,-36 4619,-36 4619,-6 4464,-6"/>
<text text-anchor="start" x="4472" y="-24" font-family="Helvetica,sans-Serif" font-size="10.00">/github/workspace/test</text>
<text text-anchor="middle" x="4541.5" y="-13" font-family="Helvetica,sans-Serif" font-size="10.00">/kalman_format_float_1x1x1.cpp</text>
</a>
</g>
</g>
<!-- Node1&#45;&gt;Node30 -->
<g id="edge29" class="edge">
<title>Node1&#45;&gt;Node30</title>
<path fill="none" stroke="midnightblue" d="M2696.88,-92.44C2996.94,-91.91 4106.99,-86.86 4455.5,-42 4466.29,-40.61 4477.72,-38.45 4488.59,-36.06"/>
<polygon fill="midnightblue" stroke="midnightblue" points="2696.55,-88.94 2686.55,-92.46 2696.56,-95.94 2696.55,-88.94"/>
</g>
<!-- Node31 -->
<g id="node31" class="node">
<title>Node31</title>
<g id="a_node31"><a xlink:href="kalman__h_8cpp.xhtml" target="_top" xlink:title=" ">
<polygon fill="white" stroke="black" points="4637.5,-6 4637.5,-36 4753.5,-36 4753.5,-6 4637.5,-6"/>
<text text-anchor="start" x="4645.5" y="-24" font-family="Helvetica,sans-Serif" font-size="10.00">/github/workspace/test</text>
<text text-anchor="middle" x="4695.5" y="-13" font-family="Helvetica,sans-Serif" font-size="10.00">/kalman_h.cpp</text>
</a>
</g>
</g>
<!-- Node1&#45;&gt;Node31 -->
<g id="edge30" class="edge">
<title>Node1&#45;&gt;Node31</title>
<path fill="none" stroke="midnightblue" d="M2696.78,-91.79C3038.49,-88.38 4435.37,-72.7 4628.5,-42 4637.13,-40.63 4646.21,-38.45 4654.8,-36.02"/>
<polygon fill="midnightblue" stroke="midnightblue" points="2696.71,-88.29 2686.74,-91.88 2696.78,-95.29 2696.71,-88.29"/>
</g>
<!-- Node32 -->
<g id="node32" class="node">
<title>Node32</title>
<g id="a_node32"><a xlink:href="kalman__h__5x4x3_8cpp.xhtml" target="_top" xlink:title=" ">
<polygon fill="white" stroke="black" points="4771.5,-6 4771.5,-36 4887.5,-36 4887.5,-6 4771.5,-6"/>
<text text-anchor="start" x="4779.5" y="-24" font-family="Helvetica,sans-Serif" font-size="10.00">/github/workspace/test</text>
<text text-anchor="middle" x="4829.5" y="-13" font-family="Helvetica,sans-Serif" font-size="10.00">/kalman_h_5x4x3.cpp</text>
</a>
</g>
</g>
<!-- Node1&#45;&gt;Node32 -->
<g id="edge31" class="edge">
<title>Node1&#45;&gt;Node32</title>
<path fill="none" stroke="midnightblue" d="M2696.78,-91.91C3052.42,-88.98 4555.5,-74.73 4762.5,-42 4771.13,-40.63 4780.21,-38.46 4788.8,-36.03"/>
<polygon fill="midnightblue" stroke="midnightblue" points="2696.57,-88.41 2686.6,-92 2696.63,-95.41 2696.57,-88.41"/>
</g>
<!-- Node33 -->
<g id="node33" class="node">
<title>Node33</title>
<g id="a_node33"><a xlink:href="kalman__h__eigen__5x4x3_8cpp.xhtml" target="_top" xlink:title=" ">
<polygon fill="white" stroke="black" points="4905.5,-6 4905.5,-36 5043.5,-36 5043.5,-6 4905.5,-6"/>
<text text-anchor="start" x="4913.5" y="-24" font-family="Helvetica,sans-Serif" font-size="10.00">/github/workspace/test</text>
<text text-anchor="middle" x="4974.5" y="-13" font-family="Helvetica,sans-Serif" font-size="10.00">/kalman_h_eigen_5x4x3.cpp</text>
</a>
</g>
</g>
<!-- Node1&#45;&gt;Node33 -->
<g id="edge32" class="edge">
<title>Node1&#45;&gt;Node33</title>
<path fill="none" stroke="midnightblue" d="M2696.62,-91.85C3065.35,-88.54 4674.94,-72.45 4896.5,-42 4906.47,-40.63 4917,-38.45 4926.99,-36.02"/>
<polygon fill="midnightblue" stroke="midnightblue" points="2696.56,-88.35 2686.59,-91.94 2696.62,-95.35 2696.56,-88.35"/>
</g>
</g>
</svg>
