<?xml version="1.0" encoding="UTF-8" standalone="no"?>
<!DOCTYPE svg PUBLIC "-//W3C//DTD SVG 1.1//EN"
 "http://www.w3.org/Graphics/SVG/1.1/DTD/svg11.dtd">
<!-- Generated by graphviz version 3.0.0 (20221109.1736)
 -->
<!-- Title: include/fcarouge/kalman.hpp Pages: 1 -->
<!--zoomable 95 -->
<svg id="main" version="1.1" xmlns="http://www.w3.org/2000/svg" xmlns:xlink="http://www.w3.org/1999/xlink" xml:space="preserve" onload="init(evt)">
<style type="text/css"><![CDATA[
.edge:hover path { stroke: red; }
.edge:hover polygon { stroke: red; fill: red; }
]]></style>
<script type="text/javascript"><![CDATA[
var edges = document.getElementsByTagName('g');
if (edges && edges.length) {
  for (var i=0;i<edges.length;i++) {
    if (edges[i].id.substr(0,4)=='edge') {
      edges[i].setAttribute('class','edge');
    }
  }
}
]]></script>
        <defs>
                <circle id="rim" cx="0" cy="0" r="7"/>
                <circle id="rim2" cx="0" cy="0" r="3.5"/>
                <g id="zoomPlus">
                        <use xlink:href="#rim" fill="#404040">
                                <set attributeName="fill" to="#808080" begin="zoomplus.mouseover" end="zoomplus.mouseout"/>
                        </use>
                        <path d="M-4,0h8M0,-4v8" fill="none" stroke="white" stroke-width="1.5" pointer-events="none"/>
                </g>
                <g id="zoomMin">
                        <use xlink:href="#rim" fill="#404040">
                                <set attributeName="fill" to="#808080" begin="zoomminus.mouseover" end="zoomminus.mouseout"/>
                        </use>
                        <path d="M-4,0h8" fill="none" stroke="white" stroke-width="1.5" pointer-events="none"/>
                </g>
                <g id="dirArrow">
                        <path fill="none" stroke="white" stroke-width="1.5" d="M0,-3.0v7 M-2.5,-0.5L0,-3.0L2.5,-0.5"/>
                </g>
               <g id="resetDef">
                       <use xlink:href="#rim2" fill="#404040">
                               <set attributeName="fill" to="#808080" begin="reset.mouseover" end="reset.mouseout"/>
                       </use>
               </g>
        </defs>

<script type="text/javascript">
var viewWidth = 2666;
var viewHeight = 95;
var sectionId = 'dynsection-1';
</script>
<script xlink:href="svgpan.js"/>
<svg id="graph" class="graph">
<g id="viewport">
<title>include/fcarouge/kalman.hpp</title>
<polygon fill="white" stroke="transparent" points="-4,4 -4,-91 2661.5,-91 2661.5,4 -4,4"/>
<!-- Node1 -->
<g id="node1" class="node">
<title>Node1</title>
<g id="a_node1"><a xlink:title="The main Kalman filter class.">
<polygon fill="#bfbfbf" stroke="black" points="1439.5,-67.5 1439.5,-86.5 1579.5,-86.5 1579.5,-67.5 1439.5,-67.5"/>
<text text-anchor="middle" x="1509.5" y="-74.5" font-family="Helvetica,sans-Serif" font-size="10.00">include/fcarouge/kalman.hpp</text>
</a>
</g>
</g>
<!-- Node2 -->
<g id="node2" class="node">
<title>Node2</title>
<g id="a_node2"><a xlink:href="eigen__predict__x1x_8cpp.xhtml" target="_top" xlink:title=" ">
<polygon fill="white" stroke="black" points="0,-0.5 0,-30.5 125,-30.5 125,-0.5 0,-0.5"/>
<text text-anchor="start" x="8" y="-18.5" font-family="Helvetica,sans-Serif" font-size="10.00">benchmark/eigen_predict</text>
<text text-anchor="middle" x="62.5" y="-7.5" font-family="Helvetica,sans-Serif" font-size="10.00">_x1x.cpp</text>
</a>
</g>
</g>
<!-- Node1&#45;&gt;Node2 -->
<g id="edge1" class="edge">
<title>Node1&#45;&gt;Node2</title>
<path fill="none" stroke="midnightblue" d="M1428.97,-75.15C1174.07,-72.19 386.8,-60.79 133.5,-31 130.75,-30.68 127.95,-30.3 125.13,-29.89"/>
<polygon fill="midnightblue" stroke="midnightblue" points="1429.22,-78.65 1439.26,-75.27 1429.3,-71.66 1429.22,-78.65"/>
</g>
<!-- Node3 -->
<g id="node3" class="node">
<title>Node3</title>
<g id="a_node3"><a xlink:href="eigen__update__xx0_8cpp.xhtml" target="_top" xlink:title=" ">
<polygon fill="white" stroke="black" points="143,-0.5 143,-30.5 268,-30.5 268,-0.5 143,-0.5"/>
<text text-anchor="start" x="151" y="-18.5" font-family="Helvetica,sans-Serif" font-size="10.00">benchmark/eigen_update</text>
<text text-anchor="middle" x="205.5" y="-7.5" font-family="Helvetica,sans-Serif" font-size="10.00">_xx0.cpp</text>
</a>
</g>
</g>
<!-- Node1&#45;&gt;Node3 -->
<g id="edge2" class="edge">
<title>Node1&#45;&gt;Node3</title>
<path fill="none" stroke="midnightblue" d="M1428.95,-74.8C1192.12,-70.98 500.75,-57.8 276.5,-31 273.75,-30.67 270.95,-30.29 268.13,-29.87"/>
<polygon fill="midnightblue" stroke="midnightblue" points="1429.15,-78.3 1439.2,-74.96 1429.26,-71.3 1429.15,-78.3"/>
</g>
<!-- Node4 -->
<g id="node4" class="node">
<title>Node4</title>
<g id="a_node4"><a xlink:href="predict__1x1x0_8cpp.xhtml" target="_top" xlink:title=" ">
<polygon fill="white" stroke="black" points="286,-6 286,-25 431,-25 431,-6 286,-6"/>
<text text-anchor="middle" x="358.5" y="-13" font-family="Helvetica,sans-Serif" font-size="10.00">benchmark/predict_1x1x0.cpp</text>
</a>
</g>
</g>
<!-- Node1&#45;&gt;Node4 -->
<g id="edge3" class="edge">
<title>Node1&#45;&gt;Node4</title>
<path fill="none" stroke="midnightblue" d="M1429.37,-76.32C1250.98,-76.22 807.75,-71.52 439.5,-31 426.58,-29.58 412.61,-27.34 399.97,-25.03"/>
<polygon fill="midnightblue" stroke="midnightblue" points="1429.46,-79.82 1439.46,-76.32 1429.46,-72.82 1429.46,-79.82"/>
</g>
<!-- Node5 -->
<g id="node5" class="node">
<title>Node5</title>
<g id="a_node5"><a xlink:href="predict__1x1x1_8cpp.xhtml" target="_top" xlink:title=" ">
<polygon fill="white" stroke="black" points="449,-6 449,-25 594,-25 594,-6 449,-6"/>
<text text-anchor="middle" x="521.5" y="-13" font-family="Helvetica,sans-Serif" font-size="10.00">benchmark/predict_1x1x1.cpp</text>
</a>
</g>
</g>
<!-- Node1&#45;&gt;Node5 -->
<g id="edge4" class="edge">
<title>Node1&#45;&gt;Node5</title>
<path fill="none" stroke="midnightblue" d="M1429.12,-75.45C1270.54,-73.6 906.38,-65.59 602.5,-31 589.73,-29.55 575.92,-27.32 563.39,-25.05"/>
<polygon fill="midnightblue" stroke="midnightblue" points="1429.23,-78.95 1439.27,-75.56 1429.31,-71.95 1429.23,-78.95"/>
</g>
<!-- Node6 -->
<g id="node6" class="node">
<title>Node6</title>
<g id="a_node6"><a xlink:href="update__1x1x0_8cpp.xhtml" target="_top" xlink:title=" ">
<polygon fill="white" stroke="black" points="612,-6 612,-25 757,-25 757,-6 612,-6"/>
<text text-anchor="middle" x="684.5" y="-13" font-family="Helvetica,sans-Serif" font-size="10.00">benchmark/update_1x1x0.cpp</text>
</a>
</g>
</g>
<!-- Node1&#45;&gt;Node6 -->
<g id="edge5" class="edge">
<title>Node1&#45;&gt;Node6</title>
<path fill="none" stroke="midnightblue" d="M1428.86,-74.2C1292.02,-70.47 1005.78,-59.67 765.5,-31 752.87,-29.49 739.24,-27.28 726.82,-25.04"/>
<polygon fill="midnightblue" stroke="midnightblue" points="1429.16,-77.71 1439.25,-74.48 1429.35,-70.72 1429.16,-77.71"/>
</g>
<!-- Node7 -->
<g id="node7" class="node">
<title>Node7</title>
<g id="a_node7"><a xlink:href="update__1x1x1_8cpp.xhtml" target="_top" xlink:title=" ">
<polygon fill="white" stroke="black" points="775,-6 775,-25 920,-25 920,-6 775,-6"/>
<text text-anchor="middle" x="847.5" y="-13" font-family="Helvetica,sans-Serif" font-size="10.00">benchmark/update_1x1x1.cpp</text>
</a>
</g>
</g>
<!-- Node1&#45;&gt;Node7 -->
<g id="edge6" class="edge">
<title>Node1&#45;&gt;Node7</title>
<path fill="none" stroke="midnightblue" d="M1428.82,-72.3C1316.39,-66.57 1106.34,-53.75 928.5,-31 916.17,-29.42 902.87,-27.24 890.68,-25.05"/>
<polygon fill="midnightblue" stroke="midnightblue" points="1428.9,-75.81 1439.06,-72.82 1429.25,-68.82 1428.9,-75.81"/>
</g>
<!-- Node8 -->
<g id="node8" class="node">
<title>Node8</title>
<g id="a_node8"><a xlink:href="ekf__4x1x0__soaring_8cpp.xhtml" target="_top" xlink:title=" ">
<polygon fill="white" stroke="black" points="938,-6 938,-25 1087,-25 1087,-6 938,-6"/>
<text text-anchor="middle" x="1012.5" y="-13" font-family="Helvetica,sans-Serif" font-size="10.00">sample/ekf_4x1x0_soaring.cpp</text>
</a>
</g>
</g>
<!-- Node1&#45;&gt;Node8 -->
<g id="edge7" class="edge">
<title>Node1&#45;&gt;Node8</title>
<path fill="none" stroke="midnightblue" d="M1429.02,-68.73C1345.65,-60.85 1211.69,-47.2 1096.5,-31 1084.34,-29.29 1071.23,-27.16 1059.07,-25.07"/>
<polygon fill="midnightblue" stroke="midnightblue" points="1428.9,-72.23 1439.18,-69.69 1429.55,-65.26 1428.9,-72.23"/>
</g>
<!-- Node9 -->
<g id="node9" class="node">
<title>Node9</title>
<g id="a_node9"><a xlink:href="kf__1x1x0__building__height_8cpp.xhtml" target="_top" xlink:title=" ">
<polygon fill="white" stroke="black" points="1105.5,-0.5 1105.5,-30.5 1233.5,-30.5 1233.5,-0.5 1105.5,-0.5"/>
<text text-anchor="start" x="1113.5" y="-18.5" font-family="Helvetica,sans-Serif" font-size="10.00">sample/kf_1x1x0_building</text>
<text text-anchor="middle" x="1169.5" y="-7.5" font-family="Helvetica,sans-Serif" font-size="10.00">_height.cpp</text>
</a>
</g>
</g>
<!-- Node1&#45;&gt;Node9 -->
<g id="edge8" class="edge">
<title>Node1&#45;&gt;Node9</title>
<path fill="none" stroke="midnightblue" d="M1446.09,-65.85C1391.93,-57.05 1312,-43.76 1242.5,-31 1239.58,-30.46 1236.59,-29.91 1233.57,-29.34"/>
<polygon fill="midnightblue" stroke="midnightblue" points="1445.8,-69.34 1456.23,-67.49 1446.92,-62.43 1445.8,-69.34"/>
</g>
<!-- Node10 -->
<g id="node10" class="node">
<title>Node10</title>
<g id="a_node10"><a xlink:href="kf__1x1x0__liquid__temperature_8cpp.xhtml" target="_top" xlink:title=" ">
<polygon fill="white" stroke="black" points="1252,-0.5 1252,-30.5 1369,-30.5 1369,-0.5 1252,-0.5"/>
<text text-anchor="start" x="1260" y="-18.5" font-family="Helvetica,sans-Serif" font-size="10.00">sample/kf_1x1x0_liquid</text>
<text text-anchor="middle" x="1310.5" y="-7.5" font-family="Helvetica,sans-Serif" font-size="10.00">_temperature.cpp</text>
</a>
</g>
</g>
<!-- Node1&#45;&gt;Node10 -->
<g id="edge9" class="edge">
<title>Node1&#45;&gt;Node10</title>
<path fill="none" stroke="midnightblue" d="M1471.4,-64.61C1438.94,-54.9 1392.16,-40.92 1357.4,-30.52"/>
<polygon fill="midnightblue" stroke="midnightblue" points="1470.4,-67.96 1480.99,-67.48 1472.41,-61.26 1470.4,-67.96"/>
</g>
<!-- Node11 -->
<g id="node11" class="node">
<title>Node11</title>
<g id="a_node11"><a xlink:href="kf__1x1x1__dog__position_8cpp.xhtml" target="_top" xlink:title=" ">
<polygon fill="white" stroke="black" points="1387.5,-0.5 1387.5,-30.5 1497.5,-30.5 1497.5,-0.5 1387.5,-0.5"/>
<text text-anchor="start" x="1395.5" y="-18.5" font-family="Helvetica,sans-Serif" font-size="10.00">sample/kf_1x1x1_dog</text>
<text text-anchor="middle" x="1442.5" y="-7.5" font-family="Helvetica,sans-Serif" font-size="10.00">_position.cpp</text>
</a>
</g>
</g>
<!-- Node1&#45;&gt;Node11 -->
<g id="edge10" class="edge">
<title>Node1&#45;&gt;Node11</title>
<path fill="none" stroke="midnightblue" d="M1492.21,-60.65C1481.74,-51.35 1468.48,-39.57 1458.29,-30.52"/>
<polygon fill="midnightblue" stroke="midnightblue" points="1490.1,-63.45 1499.9,-67.48 1494.75,-58.22 1490.1,-63.45"/>
</g>
<!-- Node12 -->
<g id="node12" class="node">
<title>Node12</title>
<g id="a_node12"><a xlink:href="kf__2x1x1__rocket__altitude_8cpp.xhtml" target="_top" xlink:title=" ">
<polygon fill="white" stroke="black" points="1515.5,-0.5 1515.5,-30.5 1637.5,-30.5 1637.5,-0.5 1515.5,-0.5"/>
<text text-anchor="start" x="1523.5" y="-18.5" font-family="Helvetica,sans-Serif" font-size="10.00">sample/kf_2x1x1_rocket</text>
<text text-anchor="middle" x="1576.5" y="-7.5" font-family="Helvetica,sans-Serif" font-size="10.00">_altitude.cpp</text>
</a>
</g>
</g>
<!-- Node1&#45;&gt;Node12 -->
<g id="edge11" class="edge">
<title>Node1&#45;&gt;Node12</title>
<path fill="none" stroke="midnightblue" d="M1526.79,-60.65C1537.26,-51.35 1550.52,-39.57 1560.71,-30.52"/>
<polygon fill="midnightblue" stroke="midnightblue" points="1524.25,-58.22 1519.1,-67.48 1528.9,-63.45 1524.25,-58.22"/>
</g>
<!-- Node13 -->
<g id="node13" class="node">
<title>Node13</title>
<g id="a_node13"><a xlink:href="kf__6x2x0__vehicle__location_8cpp.xhtml" target="_top" xlink:title=" ">
<polygon fill="white" stroke="black" points="1656,-0.5 1656,-30.5 1781,-30.5 1781,-0.5 1656,-0.5"/>
<text text-anchor="start" x="1664" y="-18.5" font-family="Helvetica,sans-Serif" font-size="10.00">sample/kf_6x2x0_vehicle</text>
<text text-anchor="middle" x="1718.5" y="-7.5" font-family="Helvetica,sans-Serif" font-size="10.00">_location.cpp</text>
</a>
</g>
</g>
<!-- Node1&#45;&gt;Node13 -->
<g id="edge12" class="edge">
<title>Node1&#45;&gt;Node13</title>
<path fill="none" stroke="midnightblue" d="M1549.07,-64.73C1583.18,-55.02 1632.58,-40.96 1669.24,-30.52"/>
<polygon fill="midnightblue" stroke="midnightblue" points="1548.1,-61.37 1539.44,-67.48 1550.02,-68.1 1548.1,-61.37"/>
</g>
<!-- Node14 -->
<g id="node14" class="node">
<title>Node14</title>
<g id="a_node14"><a xlink:href="kf__8x4x0__deep__sort__bounding__box_8cpp.xhtml" target="_top" xlink:title=" ">
<polygon fill="white" stroke="black" points="1799,-0.5 1799,-30.5 1920,-30.5 1920,-0.5 1799,-0.5"/>
<text text-anchor="start" x="1807" y="-18.5" font-family="Helvetica,sans-Serif" font-size="10.00">sample/kf_8x4x0_deep</text>
<text text-anchor="middle" x="1859.5" y="-7.5" font-family="Helvetica,sans-Serif" font-size="10.00">_sort_bounding_box.cpp</text>
</a>
</g>
</g>
<!-- Node1&#45;&gt;Node14 -->
<g id="edge13" class="edge">
<title>Node1&#45;&gt;Node14</title>
<path fill="none" stroke="midnightblue" d="M1578.01,-65.98C1635,-57.41 1718.2,-44.38 1790.5,-31 1793.27,-30.49 1796.1,-29.95 1798.95,-29.4"/>
<polygon fill="midnightblue" stroke="midnightblue" points="1577.41,-62.53 1568.03,-67.47 1578.44,-69.45 1577.41,-62.53"/>
</g>
<!-- Node15 -->
<g id="node15" class="node">
<title>Node15</title>
<g id="a_node15"><a xlink:href="eigen__f_8cpp.xhtml" target="_top" xlink:title=" ">
<polygon fill="white" stroke="black" points="1938.5,-6 1938.5,-25 2024.5,-25 2024.5,-6 1938.5,-6"/>
<text text-anchor="middle" x="1981.5" y="-13" font-family="Helvetica,sans-Serif" font-size="10.00">test/eigen_f.cpp</text>
</a>
</g>
</g>
<!-- Node1&#45;&gt;Node15 -->
<g id="edge14" class="edge">
<title>Node1&#45;&gt;Node15</title>
<path fill="none" stroke="midnightblue" d="M1589.6,-71.37C1674.54,-65.54 1812.36,-53.45 1929.5,-31 1937.6,-29.45 1946.28,-27.25 1954.17,-25.03"/>
<polygon fill="midnightblue" stroke="midnightblue" points="1589.25,-67.88 1579.51,-72.05 1589.72,-74.87 1589.25,-67.88"/>
</g>
<!-- Node16 -->
<g id="node16" class="node">
<title>Node16</title>
<g id="a_node16"><a xlink:href="eigen__h_8cpp.xhtml" target="_top" xlink:title=" ">
<polygon fill="white" stroke="black" points="2042.5,-6 2042.5,-25 2130.5,-25 2130.5,-6 2042.5,-6"/>
<text text-anchor="middle" x="2086.5" y="-13" font-family="Helvetica,sans-Serif" font-size="10.00">test/eigen_h.cpp</text>
</a>
</g>
</g>
<!-- Node1&#45;&gt;Node16 -->
<g id="edge15" class="edge">
<title>Node1&#45;&gt;Node16</title>
<path fill="none" stroke="midnightblue" d="M1589.57,-73.63C1692.87,-69.55 1877.78,-58.75 2033.5,-31 2041.86,-29.51 2050.81,-27.3 2058.93,-25.06"/>
<polygon fill="midnightblue" stroke="midnightblue" points="1589.39,-70.14 1579.53,-74.02 1589.66,-77.13 1589.39,-70.14"/>
</g>
<!-- Node17 -->
<g id="node17" class="node">
<title>Node17</title>
<g id="a_node17"><a xlink:href="eigen__initialization_8cpp.xhtml" target="_top" xlink:title=" ">
<polygon fill="white" stroke="black" points="2149,-6 2149,-25 2282,-25 2282,-6 2149,-6"/>
<text text-anchor="middle" x="2215.5" y="-13" font-family="Helvetica,sans-Serif" font-size="10.00">test/eigen_initialization.cpp</text>
</a>
</g>
</g>
<!-- Node1&#45;&gt;Node17 -->
<g id="edge16" class="edge">
<title>Node1&#45;&gt;Node17</title>
<path fill="none" stroke="midnightblue" d="M1589.89,-73.28C1709.94,-68.53 1942.99,-56.67 2139.5,-31 2151.22,-29.47 2163.86,-27.28 2175.41,-25.06"/>
<polygon fill="midnightblue" stroke="midnightblue" points="1589.55,-69.79 1579.69,-73.67 1589.82,-76.78 1589.55,-69.79"/>
</g>
<!-- Node18 -->
<g id="node18" class="node">
<title>Node18</title>
<g id="a_node18"><a xlink:href="f_8cpp.xhtml" target="_top" xlink:title=" ">
<polygon fill="white" stroke="black" points="2300,-6 2300,-25 2357,-25 2357,-6 2300,-6"/>
<text text-anchor="middle" x="2328.5" y="-13" font-family="Helvetica,sans-Serif" font-size="10.00">test/f.cpp</text>
</a>
</g>
</g>
<!-- Node1&#45;&gt;Node18 -->
<g id="edge17" class="edge">
<title>Node1&#45;&gt;Node18</title>
<path fill="none" stroke="midnightblue" d="M1590,-74.58C1761.83,-71.03 2159.61,-59.87 2291.5,-31 2297.7,-29.64 2304.22,-27.39 2310.04,-25.06"/>
<polygon fill="midnightblue" stroke="midnightblue" points="1589.68,-71.09 1579.76,-74.79 1589.82,-78.08 1589.68,-71.09"/>
</g>
<!-- Node19 -->
<g id="node19" class="node">
<title>Node19</title>
<g id="a_node19"><a xlink:href="format_8cpp.xhtml" target="_top" xlink:title=" ">
<polygon fill="white" stroke="black" points="2375.5,-6 2375.5,-25 2457.5,-25 2457.5,-6 2375.5,-6"/>
<text text-anchor="middle" x="2416.5" y="-13" font-family="Helvetica,sans-Serif" font-size="10.00">test/format.cpp</text>
</a>
</g>
</g>
<!-- Node1&#45;&gt;Node19 -->
<g id="edge18" class="edge">
<title>Node1&#45;&gt;Node19</title>
<path fill="none" stroke="midnightblue" d="M1589.86,-74.14C1773.33,-69.5 2218.62,-55.98 2366.5,-31 2374.7,-29.61 2383.46,-27.35 2391.33,-25.02"/>
<polygon fill="midnightblue" stroke="midnightblue" points="1589.64,-70.64 1579.73,-74.39 1589.82,-77.64 1589.64,-70.64"/>
</g>
<!-- Node20 -->
<g id="node20" class="node">
<title>Node20</title>
<g id="a_node20"><a xlink:href="h_8cpp.xhtml" target="_top" xlink:title=" ">
<polygon fill="white" stroke="black" points="2476,-6 2476,-25 2535,-25 2535,-6 2476,-6"/>
<text text-anchor="middle" x="2505.5" y="-13" font-family="Helvetica,sans-Serif" font-size="10.00">test/h.cpp</text>
</a>
</g>
</g>
<!-- Node1&#45;&gt;Node20 -->
<g id="edge19" class="edge">
<title>Node1&#45;&gt;Node20</title>
<path fill="none" stroke="midnightblue" d="M1589.68,-75.4C1788.43,-73.41 2299.81,-65.04 2466.5,-31 2473.01,-29.67 2479.88,-27.42 2486.01,-25.09"/>
<polygon fill="midnightblue" stroke="midnightblue" points="1589.56,-71.9 1579.6,-75.5 1589.63,-78.9 1589.56,-71.9"/>
</g>
<!-- Node21 -->
<g id="node21" class="node">
<title>Node21</title>
<g id="a_node21"><a xlink:href="initialization_8cpp.xhtml" target="_top" xlink:title=" ">
<polygon fill="white" stroke="black" points="2553.5,-6 2553.5,-25 2657.5,-25 2657.5,-6 2553.5,-6"/>
<text text-anchor="middle" x="2605.5" y="-13" font-family="Helvetica,sans-Serif" font-size="10.00">test/initialization.cpp</text>
</a>
</g>
</g>
<!-- Node1&#45;&gt;Node21 -->
<g id="edge20" class="edge">
<title>Node1&#45;&gt;Node21</title>
<path fill="none" stroke="midnightblue" d="M1589.64,-74.48C1799.3,-70.2 2360.47,-56.64 2544.5,-31 2554.42,-29.62 2565.09,-27.36 2574.68,-25.03"/>
<polygon fill="midnightblue" stroke="midnightblue" points="1589.55,-70.99 1579.63,-74.69 1589.69,-77.98 1589.55,-70.99"/>
</g>
</g>
</svg>
        <g id="navigator" transform="translate(0 0)" fill="#404254">
                <rect fill="#f2f5e9" fill-opacity="0.5" stroke="#606060" stroke-width=".5" x="0" y="0" width="60" height="60"/>
                <use id="zoomplus" xlink:href="#zoomPlus" x="17" y="9" onmousedown="handleZoom(evt,'in')"/>
                <use id="zoomminus" xlink:href="#zoomMin" x="42" y="9" onmousedown="handleZoom(evt,'out')"/>
                <use id="reset" xlink:href="#resetDef" x="30" y="36" onmousedown="handleReset()"/>
                <g id="arrowUp" xlink:href="#dirArrow" transform="translate(30 24)" onmousedown="handlePan(0,-1)">
                  <use xlink:href="#rim" fill="#404040">
                        <set attributeName="fill" to="#808080" begin="arrowUp.mouseover" end="arrowUp.mouseout"/>
                  </use>
                  <path fill="none" stroke="white" stroke-width="1.5" d="M0,-3.0v7 M-2.5,-0.5L0,-3.0L2.5,-0.5"/>
                </g>
                <g id="arrowRight" xlink:href="#dirArrow" transform="rotate(90) translate(36 -43)" onmousedown="handlePan(1,0)">
                  <use xlink:href="#rim" fill="#404040">
                        <set attributeName="fill" to="#808080" begin="arrowRight.mouseover" end="arrowRight.mouseout"/>
                  </use>
                  <path fill="none" stroke="white" stroke-width="1.5" d="M0,-3.0v7 M-2.5,-0.5L0,-3.0L2.5,-0.5"/>
                </g>
                <g id="arrowDown" xlink:href="#dirArrow" transform="rotate(180) translate(-30 -48)" onmousedown="handlePan(0,1)">
                  <use xlink:href="#rim" fill="#404040">
                        <set attributeName="fill" to="#808080" begin="arrowDown.mouseover" end="arrowDown.mouseout"/>
                  </use>
                  <path fill="none" stroke="white" stroke-width="1.5" d="M0,-3.0v7 M-2.5,-0.5L0,-3.0L2.5,-0.5"/>
                </g>
                <g id="arrowLeft" xlink:href="#dirArrow" transform="rotate(270) translate(-36 17)" onmousedown="handlePan(-1,0)">
                  <use xlink:href="#rim" fill="#404040">
                        <set attributeName="fill" to="#808080" begin="arrowLeft.mouseover" end="arrowLeft.mouseout"/>
                  </use>
                  <path fill="none" stroke="white" stroke-width="1.5" d="M0,-3.0v7 M-2.5,-0.5L0,-3.0L2.5,-0.5"/>
                </g>
        </g>
        <svg viewBox="0 0 15 15" width="100%" height="30px" preserveAspectRatio="xMaxYMin meet">
         <g id="arrow_out" transform="scale(0.3 0.3)">
          <a xlink:href="kalman_8hpp__dep__incl_org.svg" target="_base">
           <rect id="button" ry="5" rx="5" y="6" x="6" height="38" width="38"
                fill="#f2f5e9" fill-opacity="0.5" stroke="#606060" stroke-width="1.0"/>
           <path id="arrow"
             d="M 11.500037,31.436501 C 11.940474,20.09759 22.043105,11.32322 32.158766,21.979434 L 37.068811,17.246167 C 37.068811,17.246167 37.088388,32 37.088388,32 L 22.160133,31.978069 C 22.160133,31.978069 26.997745,27.140456 26.997745,27.140456 C 18.528582,18.264221 13.291696,25.230495 11.500037,31.436501 z"
             style="fill:#404040;"/>
          </a>
         </g>
        </svg>
</svg>
