<?xml version="1.0" encoding="UTF-8" standalone="no"?>
<!DOCTYPE svg PUBLIC "-//W3C//DTD SVG 1.1//EN"
 "http://www.w3.org/Graphics/SVG/1.1/DTD/svg11.dtd">
<!-- Generated by graphviz version 12.2.0 (20241103.1931)
 -->
<!-- Title: /github/workspace/test/kalman_constructor_move_5x4x3.cpp Pages: 1 -->
<svg width="1922pt" height="337pt"
 viewBox="0.00 0.00 1921.62 337.25" xmlns="http://www.w3.org/2000/svg" xmlns:xlink="http://www.w3.org/1999/xlink">
<g id="graph0" class="graph" transform="scale(1 1) rotate(0) translate(4 333.25)">
<title>/github/workspace/test/kalman_constructor_move_5x4x3.cpp</title>
<!-- Node1 -->
<g id="Node000001" class="node">
<title>Node1</title>
<g id="a_Node000001"><a xlink:title=" ">
<polygon fill="#999999" stroke="#666666" points="1826.38,-329.25 1692.62,-329.25 1692.62,-287.5 1826.38,-287.5 1826.38,-329.25"/>
<text text-anchor="start" x="1700.62" y="-315.75" font-family="Helvetica,sans-Serif" font-size="10.00">/github/workspace/test</text>
<text text-anchor="start" x="1700.62" y="-304.5" font-family="Helvetica,sans-Serif" font-size="10.00">/kalman_constructor_move</text>
<text text-anchor="middle" x="1759.5" y="-293.25" font-family="Helvetica,sans-Serif" font-size="10.00">_5x4x3.cpp</text>
</a>
</g>
</g>
<!-- Node2 -->
<g id="Node000002" class="node">
<title>Node2</title>
<g id="a_Node000002"><a xlink:href="kalman_8hpp.xhtml" target="_top" xlink:title="The Kalman filter class and library top&#45;level header.">
<polygon fill="white" stroke="#666666" points="1519.5,-251.5 1413.5,-251.5 1413.5,-232.25 1519.5,-232.25 1519.5,-251.5"/>
<text text-anchor="middle" x="1466.5" y="-238" font-family="Helvetica,sans-Serif" font-size="10.00">fcarouge/kalman.hpp</text>
</a>
</g>
</g>
<!-- Node1&#45;&gt;Node2 -->
<g id="edge1_Node000001_Node000002" class="edge">
<title>Node1&#45;&gt;Node2</title>
<g id="a_edge1_Node000001_Node000002"><a xlink:title=" ">
<path fill="none" stroke="#63b8ff" d="M1692.28,-292.58C1639.57,-280.97 1567.26,-265.06 1518.81,-254.39"/>
<polygon fill="#63b8ff" stroke="#63b8ff" points="1519.64,-250.99 1509.12,-252.26 1518.14,-257.83 1519.64,-250.99"/>
</a>
</g>
</g>
<!-- Node11 -->
<g id="Node000011" class="node">
<title>Node11</title>
<g id="a_Node000011"><a xlink:title=" ">
<polygon fill="#e0e0e0" stroke="#999999" points="1646.75,-19.25 1608.25,-19.25 1608.25,0 1646.75,0 1646.75,-19.25"/>
<text text-anchor="middle" x="1627.5" y="-5.75" font-family="Helvetica,sans-Serif" font-size="10.00">utility</text>
</a>
</g>
</g>
<!-- Node1&#45;&gt;Node11 -->
<g id="edge62_Node000001_Node000011" class="edge">
<title>Node1&#45;&gt;Node11</title>
<g id="a_edge62_Node000001_Node000011"><a xlink:title=" ">
<path fill="none" stroke="#63b8ff" d="M1748.91,-287.23C1737.67,-263.91 1721.5,-224.05 1721.5,-187.62 1721.5,-187.62 1721.5,-187.62 1721.5,-124.75 1721.5,-81.31 1680.43,-45.44 1652.58,-26.1"/>
<polygon fill="#63b8ff" stroke="#63b8ff" points="1654.55,-23.21 1644.28,-20.58 1650.67,-29.04 1654.55,-23.21"/>
</a>
</g>
</g>
<!-- Node30 -->
<g id="Node000030" class="node">
<title>Node30</title>
<g id="a_Node000030"><a xlink:title=" ">
<polygon fill="#e0e0e0" stroke="#999999" points="1847,-251.5 1750,-251.5 1750,-232.25 1847,-232.25 1847,-251.5"/>
<text text-anchor="middle" x="1798.5" y="-238" font-family="Helvetica,sans-Serif" font-size="10.00">fcarouge/linalg.hpp</text>
</a>
</g>
</g>
<!-- Node1&#45;&gt;Node30 -->
<g id="edge60_Node000001_Node000030" class="edge">
<title>Node1&#45;&gt;Node30</title>
<g id="a_edge60_Node000001_Node000030"><a xlink:title=" ">
<path fill="none" stroke="#63b8ff" d="M1771.63,-287.32C1776.6,-279.09 1782.33,-269.62 1787.21,-261.54"/>
<polygon fill="#63b8ff" stroke="#63b8ff" points="1790.05,-263.61 1792.23,-253.24 1784.06,-259.99 1790.05,-263.61"/>
</a>
</g>
</g>
<!-- Node31 -->
<g id="Node000031" class="node">
<title>Node31</title>
<g id="a_Node000031"><a xlink:title=" ">
<polygon fill="#e0e0e0" stroke="#999999" points="1913.62,-251.5 1865.38,-251.5 1865.38,-232.25 1913.62,-232.25 1913.62,-251.5"/>
<text text-anchor="middle" x="1889.5" y="-238" font-family="Helvetica,sans-Serif" font-size="10.00">cassert</text>
</a>
</g>
</g>
<!-- Node1&#45;&gt;Node31 -->
<g id="edge61_Node000001_Node000031" class="edge">
<title>Node1&#45;&gt;Node31</title>
<g id="a_edge61_Node000001_Node000031"><a xlink:title=" ">
<path fill="none" stroke="#63b8ff" d="M1800.28,-287.14C1820.01,-277.35 1843.22,-265.84 1861.02,-257.01"/>
<polygon fill="#63b8ff" stroke="#63b8ff" points="1862.56,-260.15 1869.97,-252.57 1859.45,-253.88 1862.56,-260.15"/>
</a>
</g>
</g>
<!-- Node3 -->
<g id="Node000003" class="node">
<title>Node3</title>
<g id="a_Node000003"><a xlink:href="kalman__forward_8hpp.xhtml" target="_top" xlink:title="Authoritative forward declaration header.">
<polygon fill="white" stroke="#666666" points="1655,-196.25 1552,-196.25 1552,-177 1655,-177 1655,-196.25"/>
<text text-anchor="middle" x="1603.5" y="-182.75" font-family="Helvetica,sans-Serif" font-size="10.00">kalman_forward.hpp</text>
</a>
</g>
</g>
<!-- Node2&#45;&gt;Node3 -->
<g id="edge2_Node000002_Node000003" class="edge">
<title>Node2&#45;&gt;Node3</title>
<g id="a_edge2_Node000002_Node000003"><a xlink:title=" ">
<path fill="none" stroke="#63b8ff" d="M1489.74,-231.84C1511.69,-223.31 1544.85,-210.42 1569.71,-200.76"/>
<polygon fill="#63b8ff" stroke="#63b8ff" points="1570.68,-204.14 1578.74,-197.25 1568.15,-197.61 1570.68,-204.14"/>
</a>
</g>
</g>
<!-- Node4 -->
<g id="Node000004" class="node">
<title>Node4</title>
<g id="a_Node000004"><a xlink:href="factory_8hpp.xhtml" target="_top" xlink:title=" ">
<polygon fill="white" stroke="#666666" points="1066.75,-196.25 932.25,-196.25 932.25,-177 1066.75,-177 1066.75,-196.25"/>
<text text-anchor="middle" x="999.5" y="-182.75" font-family="Helvetica,sans-Serif" font-size="10.00">kalman_internal/factory.hpp</text>
</a>
</g>
</g>
<!-- Node2&#45;&gt;Node4 -->
<g id="edge3_Node000002_Node000004" class="edge">
<title>Node2&#45;&gt;Node4</title>
<g id="a_edge3_Node000002_Node000004"><a xlink:title=" ">
<path fill="none" stroke="#63b8ff" d="M1413.38,-234.82C1331.37,-225.47 1173.45,-207.46 1078.16,-196.59"/>
<polygon fill="#63b8ff" stroke="#63b8ff" points="1078.7,-193.13 1068.37,-195.48 1077.91,-200.09 1078.7,-193.13"/>
</a>
</g>
</g>
<!-- Node6 -->
<g id="Node000006" class="node">
<title>Node6</title>
<g id="a_Node000006"><a xlink:href="utility_8hpp.xhtml" target="_top" xlink:title=" ">
<polygon fill="white" stroke="#666666" points="1027.75,-74.5 971.25,-74.5 971.25,-55.25 1027.75,-55.25 1027.75,-74.5"/>
<text text-anchor="middle" x="999.5" y="-61" font-family="Helvetica,sans-Serif" font-size="10.00">utility.hpp</text>
</a>
</g>
</g>
<!-- Node2&#45;&gt;Node6 -->
<g id="edge58_Node000002_Node000006" class="edge">
<title>Node2&#45;&gt;Node6</title>
<g id="a_edge58_Node000002_Node000006"><a xlink:title=" ">
<path fill="none" stroke="#63b8ff" d="M1445.89,-231.79C1429.63,-223.96 1407.02,-211.51 1390.5,-196.25 1356.33,-164.69 1370.22,-134.7 1330.5,-110.5 1282.34,-81.16 1116.27,-70.64 1039.27,-67.28"/>
<polygon fill="#63b8ff" stroke="#63b8ff" points="1039.8,-63.8 1029.66,-66.88 1039.51,-70.8 1039.8,-63.8"/>
</a>
</g>
</g>
<!-- Node25 -->
<g id="Node000025" class="node">
<title>Node25</title>
<g id="a_Node000025"><a xlink:href="format_8hpp.xhtml" target="_top" xlink:title="Formatting support for the Kalman filter.">
<polygon fill="white" stroke="#666666" points="133,-135.38 0,-135.38 0,-116.12 133,-116.12 133,-135.38"/>
<text text-anchor="middle" x="66.5" y="-121.88" font-family="Helvetica,sans-Serif" font-size="10.00">kalman_internal/format.hpp</text>
</a>
</g>
</g>
<!-- Node2&#45;&gt;Node25 -->
<g id="edge49_Node000002_Node000025" class="edge">
<title>Node2&#45;&gt;Node25</title>
<g id="a_edge49_Node000002_Node000025"><a xlink:title=" ">
<path fill="none" stroke="#63b8ff" d="M1413.23,-238.73C1234.07,-231.11 637.12,-202.45 147.5,-141 140.08,-140.07 132.3,-138.92 124.62,-137.68"/>
<polygon fill="#63b8ff" stroke="#63b8ff" points="125.43,-134.27 114.99,-136.08 124.28,-141.18 125.43,-134.27"/>
</a>
</g>
</g>
<!-- Node27 -->
<g id="Node000027" class="node">
<title>Node27</title>
<g id="a_Node000027"><a xlink:href="print_8hpp.xhtml" target="_top" xlink:title=" ">
<polygon fill="white" stroke="#666666" points="1678.5,-135.38 1554.5,-135.38 1554.5,-116.12 1678.5,-116.12 1678.5,-135.38"/>
<text text-anchor="middle" x="1616.5" y="-121.88" font-family="Helvetica,sans-Serif" font-size="10.00">kalman_internal/print.hpp</text>
</a>
</g>
</g>
<!-- Node2&#45;&gt;Node27 -->
<g id="edge54_Node000002_Node000027" class="edge">
<title>Node2&#45;&gt;Node27</title>
<g id="a_edge54_Node000002_Node000027"><a xlink:title=" ">
<path fill="none" stroke="#63b8ff" d="M1519.77,-236.26C1572.12,-230.49 1646.67,-218.54 1664.5,-196.25 1678.62,-178.6 1658.33,-157.01 1639.96,-142.62"/>
<polygon fill="#63b8ff" stroke="#63b8ff" points="1642.06,-139.82 1631.93,-136.71 1637.91,-145.46 1642.06,-139.82"/>
</a>
</g>
</g>
<!-- Node29 -->
<g id="Node000029" class="node">
<title>Node29</title>
<g id="a_Node000029"><a xlink:title=" ">
<polygon fill="#e0e0e0" stroke="#999999" points="1533.75,-196.25 1399.25,-196.25 1399.25,-177 1533.75,-177 1533.75,-196.25"/>
<text text-anchor="middle" x="1466.5" y="-182.75" font-family="Helvetica,sans-Serif" font-size="10.00">kalman_internal/kalman.tpp</text>
</a>
</g>
</g>
<!-- Node2&#45;&gt;Node29 -->
<g id="edge59_Node000002_Node000029" class="edge">
<title>Node2&#45;&gt;Node29</title>
<g id="a_edge59_Node000002_Node000029"><a xlink:title=" ">
<path fill="none" stroke="#63b8ff" d="M1466.5,-232.08C1466.5,-225.57 1466.5,-216.42 1466.5,-208.12"/>
<polygon fill="#63b8ff" stroke="#63b8ff" points="1470,-208.12 1466.5,-198.12 1463,-208.12 1470,-208.12"/>
</a>
</g>
</g>
<!-- Node5 -->
<g id="Node000005" class="node">
<title>Node5</title>
<g id="a_Node000005"><a xlink:href="type_8hpp.xhtml" target="_top" xlink:title=" ">
<polygon fill="white" stroke="#666666" points="1467.5,-135.38 1415.5,-135.38 1415.5,-116.12 1467.5,-116.12 1467.5,-135.38"/>
<text text-anchor="middle" x="1441.5" y="-121.88" font-family="Helvetica,sans-Serif" font-size="10.00">type.hpp</text>
</a>
</g>
</g>
<!-- Node4&#45;&gt;Node5 -->
<g id="edge4_Node000004_Node000005" class="edge">
<title>Node4&#45;&gt;Node5</title>
<g id="a_edge4_Node000004_Node000005"><a xlink:title=" ">
<path fill="none" stroke="#63b8ff" d="M1067.09,-178.54C1140.29,-170.59 1260.44,-156.72 1363.5,-141 1376.73,-138.98 1391.17,-136.44 1403.98,-134.07"/>
<polygon fill="#63b8ff" stroke="#63b8ff" points="1404.54,-137.52 1413.72,-132.23 1403.25,-130.64 1404.54,-137.52"/>
</a>
</g>
</g>
<!-- Node7 -->
<g id="Node000007" class="node">
<title>Node7</title>
<g id="a_Node000007"><a xlink:title=" ">
<polygon fill="#e0e0e0" stroke="#999999" points="1183.38,-19.25 1127.62,-19.25 1127.62,0 1183.38,0 1183.38,-19.25"/>
<text text-anchor="middle" x="1155.5" y="-5.75" font-family="Helvetica,sans-Serif" font-size="10.00">concepts</text>
</a>
</g>
</g>
<!-- Node4&#45;&gt;Node7 -->
<g id="edge46_Node000004_Node000007" class="edge">
<title>Node4&#45;&gt;Node7</title>
<g id="a_edge46_Node000004_Node000007"><a xlink:title=" ">
<path fill="none" stroke="#63b8ff" d="M1067.17,-186.53C1153.88,-186.06 1297.01,-179.31 1330.5,-141 1377.76,-86.94 1259.12,-41.46 1194.32,-21.49"/>
<polygon fill="#63b8ff" stroke="#63b8ff" points="1195.69,-18.25 1185.11,-18.72 1193.68,-24.95 1195.69,-18.25"/>
</a>
</g>
</g>
<!-- Node9 -->
<g id="Node000009" class="node">
<title>Node9</title>
<g id="a_Node000009"><a xlink:title=" ">
<polygon fill="#e0e0e0" stroke="#999999" points="513,-19.25 476,-19.25 476,0 513,0 513,-19.25"/>
<text text-anchor="middle" x="494.5" y="-5.75" font-family="Helvetica,sans-Serif" font-size="10.00">tuple</text>
</a>
</g>
</g>
<!-- Node4&#45;&gt;Node9 -->
<g id="edge47_Node000004_Node000009" class="edge">
<title>Node4&#45;&gt;Node9</title>
<g id="a_edge47_Node000004_Node000009"><a xlink:title=" ">
<path fill="none" stroke="#63b8ff" d="M931.82,-184.44C740.22,-180.77 206.19,-168.12 180.5,-141 93.79,-49.44 370.48,-19.9 464.43,-12.63"/>
<polygon fill="#63b8ff" stroke="#63b8ff" points="464.46,-16.14 474.17,-11.91 463.94,-9.16 464.46,-16.14"/>
</a>
</g>
</g>
<!-- Node10 -->
<g id="Node000010" class="node">
<title>Node10</title>
<g id="a_Node000010"><a xlink:title=" ">
<polygon fill="#e0e0e0" stroke="#999999" points="1418,-19.25 1357,-19.25 1357,0 1418,0 1418,-19.25"/>
<text text-anchor="middle" x="1387.5" y="-5.75" font-family="Helvetica,sans-Serif" font-size="10.00">type_traits</text>
</a>
</g>
</g>
<!-- Node4&#45;&gt;Node10 -->
<g id="edge48_Node000004_Node000010" class="edge">
<title>Node4&#45;&gt;Node10</title>
<g id="a_edge48_Node000004_Node000010"><a xlink:title=" ">
<path fill="none" stroke="#63b8ff" d="M1066.79,-183.45C1190.76,-178.84 1445.49,-166.39 1476.5,-141 1506.78,-116.21 1518.31,-87.74 1496.5,-55.25 1481.55,-32.97 1453.29,-21.81 1429.29,-16.22"/>
<polygon fill="#63b8ff" stroke="#63b8ff" points="1430.26,-12.84 1419.76,-14.26 1428.85,-19.7 1430.26,-12.84"/>
</a>
</g>
</g>
<!-- Node13 -->
<g id="Node000013" class="node">
<title>Node13</title>
<g id="a_Node000013"><a xlink:href="x__z__p__q__r_8hpp.xhtml" target="_top" xlink:title=" ">
<polygon fill="white" stroke="#666666" points="1321.25,-135.38 1243.75,-135.38 1243.75,-116.12 1321.25,-116.12 1321.25,-135.38"/>
<text text-anchor="middle" x="1282.5" y="-121.88" font-family="Helvetica,sans-Serif" font-size="10.00">x_z_p_q_r.hpp</text>
</a>
</g>
</g>
<!-- Node4&#45;&gt;Node13 -->
<g id="edge13_Node000004_Node000013" class="edge">
<title>Node4&#45;&gt;Node13</title>
<g id="a_edge13_Node000004_Node000013"><a xlink:title=" ">
<path fill="none" stroke="#63b8ff" d="M1057.1,-176.51C1105.11,-168.49 1175.16,-155.81 1235.5,-141 1238.09,-140.37 1240.74,-139.67 1243.41,-138.95"/>
<polygon fill="#63b8ff" stroke="#63b8ff" points="1244.19,-142.36 1252.85,-136.25 1242.27,-135.63 1244.19,-142.36"/>
</a>
</g>
</g>
<!-- Node14 -->
<g id="Node000014" class="node">
<title>Node14</title>
<g id="a_Node000014"><a xlink:href="x__z__p__q__r__h__f_8hpp.xhtml" target="_top" xlink:title=" ">
<polygon fill="white" stroke="#666666" points="1047.62,-135.38 951.38,-135.38 951.38,-116.12 1047.62,-116.12 1047.62,-135.38"/>
<text text-anchor="middle" x="999.5" y="-121.88" font-family="Helvetica,sans-Serif" font-size="10.00">x_z_p_q_r_h_f.hpp</text>
</a>
</g>
</g>
<!-- Node4&#45;&gt;Node14 -->
<g id="edge15_Node000004_Node000014" class="edge">
<title>Node4&#45;&gt;Node14</title>
<g id="a_edge15_Node000004_Node000014"><a xlink:title=" ">
<path fill="none" stroke="#63b8ff" d="M999.5,-176.68C999.5,-168.9 999.5,-157.33 999.5,-147.28"/>
<polygon fill="#63b8ff" stroke="#63b8ff" points="1003,-147.29 999.5,-137.29 996,-147.29 1003,-147.29"/>
</a>
</g>
</g>
<!-- Node15 -->
<g id="Node000015" class="node">
<title>Node15</title>
<g id="a_Node000015"><a xlink:href="x__z__p__q__r__hh__f__us__ps_8hpp.xhtml" target="_top" xlink:title=" ">
<polygon fill="white" stroke="#666666" points="693,-135.38 560,-135.38 560,-116.12 693,-116.12 693,-135.38"/>
<text text-anchor="middle" x="626.5" y="-121.88" font-family="Helvetica,sans-Serif" font-size="10.00">x_z_p_q_r_hh_f_us_ps.hpp</text>
</a>
</g>
</g>
<!-- Node4&#45;&gt;Node15 -->
<g id="edge17_Node000004_Node000015" class="edge">
<title>Node4&#45;&gt;Node15</title>
<g id="a_edge17_Node000004_Node000015"><a xlink:title=" ">
<path fill="none" stroke="#63b8ff" d="M934.21,-176.51C873.96,-167.93 782.06,-154.43 702.5,-141 696.63,-140.01 690.5,-138.93 684.4,-137.83"/>
<polygon fill="#63b8ff" stroke="#63b8ff" points="685.44,-134.46 674.97,-136.11 684.18,-141.35 685.44,-134.46"/>
</a>
</g>
</g>
<!-- Node18 -->
<g id="Node000018" class="node">
<title>Node18</title>
<g id="a_Node000018"><a xlink:href="x__z__p__q__r__hh__ff__ps_8hpp.xhtml" target="_top" xlink:title=" ">
<polygon fill="white" stroke="#666666" points="429.25,-135.38 309.75,-135.38 309.75,-116.12 429.25,-116.12 429.25,-135.38"/>
<text text-anchor="middle" x="369.5" y="-121.88" font-family="Helvetica,sans-Serif" font-size="10.00">x_z_p_q_r_hh_ff_ps.hpp</text>
</a>
</g>
</g>
<!-- Node4&#45;&gt;Node18 -->
<g id="edge22_Node000004_Node000018" class="edge">
<title>Node4&#45;&gt;Node18</title>
<g id="a_edge22_Node000004_Node000018"><a xlink:title=" ">
<path fill="none" stroke="#63b8ff" d="M931.84,-182.96C826.12,-178.19 615.51,-166.22 438.5,-141 432.52,-140.15 426.28,-139.09 420.1,-137.95"/>
<polygon fill="#63b8ff" stroke="#63b8ff" points="421.09,-134.58 410.61,-136.1 419.76,-141.45 421.09,-134.58"/>
</a>
</g>
</g>
<!-- Node19 -->
<g id="Node000019" class="node">
<title>Node19</title>
<g id="a_Node000019"><a xlink:href="x__z__p__qq__rr__f_8hpp.xhtml" target="_top" xlink:title=" ">
<polygon fill="white" stroke="#666666" points="541.5,-135.38 447.5,-135.38 447.5,-116.12 541.5,-116.12 541.5,-135.38"/>
<text text-anchor="middle" x="494.5" y="-121.88" font-family="Helvetica,sans-Serif" font-size="10.00">x_z_p_qq_rr_f.hpp</text>
</a>
</g>
</g>
<!-- Node4&#45;&gt;Node19 -->
<g id="edge26_Node000004_Node000019" class="edge">
<title>Node4&#45;&gt;Node19</title>
<g id="a_edge26_Node000004_Node000019"><a xlink:title=" ">
<path fill="none" stroke="#63b8ff" d="M931.92,-181.97C843.85,-176.5 685.3,-164.26 551.5,-141 547.21,-140.25 542.77,-139.36 538.35,-138.39"/>
<polygon fill="#63b8ff" stroke="#63b8ff" points="539.49,-135.06 528.95,-136.2 537.9,-141.88 539.49,-135.06"/>
</a>
</g>
</g>
<!-- Node20 -->
<g id="Node000020" class="node">
<title>Node20</title>
<g id="a_Node000020"><a xlink:href="x__z__p__r_8hpp.xhtml" target="_top" xlink:title=" ">
<polygon fill="white" stroke="#666666" points="1133,-135.38 1066,-135.38 1066,-116.12 1133,-116.12 1133,-135.38"/>
<text text-anchor="middle" x="1099.5" y="-121.88" font-family="Helvetica,sans-Serif" font-size="10.00">x_z_p_r.hpp</text>
</a>
</g>
</g>
<!-- Node4&#45;&gt;Node20 -->
<g id="edge30_Node000004_Node000020" class="edge">
<title>Node4&#45;&gt;Node20</title>
<g id="a_edge30_Node000004_Node000020"><a xlink:title=" ">
<path fill="none" stroke="#63b8ff" d="M1014.69,-176.68C1030.55,-167.35 1055.68,-152.55 1074.48,-141.48"/>
<polygon fill="#63b8ff" stroke="#63b8ff" points="1076.02,-144.63 1082.86,-136.54 1072.47,-138.6 1076.02,-144.63"/>
</a>
</g>
</g>
<!-- Node21 -->
<g id="Node000021" class="node">
<title>Node21</title>
<g id="a_Node000021"><a xlink:href="x__z__p__r__f_8hpp.xhtml" target="_top" xlink:title=" ">
<polygon fill="white" stroke="#666666" points="1226.12,-135.38 1150.88,-135.38 1150.88,-116.12 1226.12,-116.12 1226.12,-135.38"/>
<text text-anchor="middle" x="1188.5" y="-121.88" font-family="Helvetica,sans-Serif" font-size="10.00">x_z_p_r_f.hpp</text>
</a>
</g>
</g>
<!-- Node4&#45;&gt;Node21 -->
<g id="edge32_Node000004_Node000021" class="edge">
<title>Node4&#45;&gt;Node21</title>
<g id="a_edge32_Node000004_Node000021"><a xlink:title=" ">
<path fill="none" stroke="#63b8ff" d="M1028.62,-176.55C1060.8,-166.53 1112.84,-150.32 1148.76,-139.13"/>
<polygon fill="#63b8ff" stroke="#63b8ff" points="1149.4,-142.6 1157.9,-136.28 1147.32,-135.91 1149.4,-142.6"/>
</a>
</g>
</g>
<!-- Node22 -->
<g id="Node000022" class="node">
<title>Node22</title>
<g id="a_Node000022"><a xlink:href="x__z__u__p__q__r_8hpp.xhtml" target="_top" xlink:title=" ">
<polygon fill="white" stroke="#666666" points="799.5,-135.38 711.5,-135.38 711.5,-116.12 799.5,-116.12 799.5,-135.38"/>
<text text-anchor="middle" x="755.5" y="-121.88" font-family="Helvetica,sans-Serif" font-size="10.00">x_z_u_p_q_r.hpp</text>
</a>
</g>
</g>
<!-- Node4&#45;&gt;Node22 -->
<g id="edge34_Node000004_Node000022" class="edge">
<title>Node4&#45;&gt;Node22</title>
<g id="a_edge34_Node000004_Node000022"><a xlink:title=" ">
<path fill="none" stroke="#63b8ff" d="M959.39,-176.54C920.88,-167.74 861.12,-153.87 809.5,-141 806.56,-140.27 803.53,-139.5 800.48,-138.72"/>
<polygon fill="#63b8ff" stroke="#63b8ff" points="801.48,-135.36 790.92,-136.24 799.72,-142.14 801.48,-135.36"/>
</a>
</g>
</g>
<!-- Node23 -->
<g id="Node000023" class="node">
<title>Node23</title>
<g id="a_Node000023"><a xlink:href="x__z__u__p__q__r__h__f__g__us__ps_8hpp.xhtml" target="_top" xlink:title=" ">
<polygon fill="white" stroke="#666666" points="933,-141 818,-141 818,-110.5 933,-110.5 933,-141"/>
<text text-anchor="start" x="826" y="-127.5" font-family="Helvetica,sans-Serif" font-size="10.00">x_z_u_p_q_r_h_f_g_us</text>
<text text-anchor="middle" x="875.5" y="-116.25" font-family="Helvetica,sans-Serif" font-size="10.00">_ps.hpp</text>
</a>
</g>
</g>
<!-- Node4&#45;&gt;Node23 -->
<g id="edge38_Node000004_Node000023" class="edge">
<title>Node4&#45;&gt;Node23</title>
<g id="a_edge38_Node000004_Node000023"><a xlink:title=" ">
<path fill="none" stroke="#63b8ff" d="M980.4,-176.55C963.47,-168.52 938.16,-156.5 916.65,-146.29"/>
<polygon fill="#63b8ff" stroke="#63b8ff" points="918.35,-143.22 907.82,-142.09 915.35,-149.54 918.35,-143.22"/>
</a>
</g>
</g>
<!-- Node24 -->
<g id="Node000024" class="node">
<title>Node24</title>
<g id="a_Node000024"><a xlink:href="x__z__u__p__qq__r__ff__gg__ps_8hpp.xhtml" target="_top" xlink:title=" ">
<polygon fill="white" stroke="#666666" points="291.25,-141 189.75,-141 189.75,-110.5 291.25,-110.5 291.25,-141"/>
<text text-anchor="start" x="197.75" y="-127.5" font-family="Helvetica,sans-Serif" font-size="10.00">x_z_u_p_qq_r_ff_gg</text>
<text text-anchor="middle" x="240.5" y="-116.25" font-family="Helvetica,sans-Serif" font-size="10.00">_ps.hpp</text>
</a>
</g>
</g>
<!-- Node4&#45;&gt;Node24 -->
<g id="edge42_Node000004_Node000024" class="edge">
<title>Node4&#45;&gt;Node24</title>
<g id="a_edge42_Node000004_Node000024"><a xlink:title=" ">
<path fill="none" stroke="#63b8ff" d="M932.11,-185.11C808.93,-183.34 539.11,-175.65 302.68,-141.13"/>
<polygon fill="#63b8ff" stroke="#63b8ff" points="303.35,-137.7 292.95,-139.69 302.32,-144.62 303.35,-137.7"/>
</a>
</g>
</g>
<!-- Node5&#45;&gt;Node6 -->
<g id="edge5_Node000005_Node000006" class="edge">
<title>Node5&#45;&gt;Node6</title>
<g id="a_edge5_Node000005_Node000006"><a xlink:title=" ">
<path fill="none" stroke="#63b8ff" d="M1418.93,-115.68C1413.31,-113.71 1407.25,-111.82 1401.5,-110.5 1271.21,-80.49 1112.35,-70.43 1039.5,-67.25"/>
<polygon fill="#63b8ff" stroke="#63b8ff" points="1039.8,-63.76 1029.66,-66.84 1039.51,-70.76 1039.8,-63.76"/>
</a>
</g>
</g>
<!-- Node5&#45;&gt;Node10 -->
<g id="edge12_Node000005_Node000010" class="edge">
<title>Node5&#45;&gt;Node10</title>
<g id="a_edge12_Node000005_Node000010"><a xlink:title=" ">
<path fill="none" stroke="#63b8ff" d="M1433.83,-115.68C1426,-106.02 1413.97,-90.02 1406.5,-74.5 1399.73,-60.44 1394.82,-43.46 1391.69,-30.55"/>
<polygon fill="#63b8ff" stroke="#63b8ff" points="1395.17,-30.1 1389.56,-21.11 1388.35,-31.63 1395.17,-30.1"/>
</a>
</g>
</g>
<!-- Node12 -->
<g id="Node000012" class="node">
<title>Node12</title>
<g id="a_Node000012"><a xlink:title=" ">
<polygon fill="#e0e0e0" stroke="#999999" points="1487.25,-74.5 1415.75,-74.5 1415.75,-55.25 1487.25,-55.25 1487.25,-74.5"/>
<text text-anchor="middle" x="1451.5" y="-61" font-family="Helvetica,sans-Serif" font-size="10.00">initializer_list</text>
</a>
</g>
</g>
<!-- Node5&#45;&gt;Node12 -->
<g id="edge11_Node000005_Node000012" class="edge">
<title>Node5&#45;&gt;Node12</title>
<g id="a_edge11_Node000005_Node000012"><a xlink:title=" ">
<path fill="none" stroke="#63b8ff" d="M1443.02,-115.81C1444.36,-107.94 1446.35,-96.2 1448.07,-86.07"/>
<polygon fill="#63b8ff" stroke="#63b8ff" points="1451.49,-86.84 1449.71,-76.39 1444.59,-85.67 1451.49,-86.84"/>
</a>
</g>
</g>
<!-- Node6&#45;&gt;Node7 -->
<g id="edge6_Node000006_Node000007" class="edge">
<title>Node6&#45;&gt;Node7</title>
<g id="a_edge6_Node000006_Node000007"><a xlink:title=" ">
<path fill="none" stroke="#63b8ff" d="M1025.96,-54.84C1051.29,-46.2 1089.73,-33.07 1118.17,-23.37"/>
<polygon fill="#63b8ff" stroke="#63b8ff" points="1119.14,-26.73 1127.47,-20.19 1116.88,-20.11 1119.14,-26.73"/>
</a>
</g>
</g>
<!-- Node8 -->
<g id="Node000008" class="node">
<title>Node8</title>
<g id="a_Node000008"><a xlink:title=" ">
<polygon fill="#e0e0e0" stroke="#999999" points="252.62,-19.25 204.38,-19.25 204.38,0 252.62,0 252.62,-19.25"/>
<text text-anchor="middle" x="228.5" y="-5.75" font-family="Helvetica,sans-Serif" font-size="10.00">cstddef</text>
</a>
</g>
</g>
<!-- Node6&#45;&gt;Node8 -->
<g id="edge7_Node000006_Node000008" class="edge">
<title>Node6&#45;&gt;Node8</title>
<g id="a_edge7_Node000006_Node000008"><a xlink:title=" ">
<path fill="none" stroke="#63b8ff" d="M971.15,-61.92C852.46,-53.72 395.64,-22.17 264.12,-13.09"/>
<polygon fill="#63b8ff" stroke="#63b8ff" points="264.5,-9.6 254.28,-12.41 264.02,-16.59 264.5,-9.6"/>
</a>
</g>
</g>
<!-- Node6&#45;&gt;Node9 -->
<g id="edge8_Node000006_Node000009" class="edge">
<title>Node6&#45;&gt;Node9</title>
<g id="a_edge8_Node000006_Node000009"><a xlink:title=" ">
<path fill="none" stroke="#63b8ff" d="M970.82,-61.89C885.03,-55.83 630.4,-37.04 524.66,-18.7"/>
<polygon fill="#63b8ff" stroke="#63b8ff" points="525.37,-15.27 514.9,-16.91 524.11,-22.16 525.37,-15.27"/>
</a>
</g>
</g>
<!-- Node6&#45;&gt;Node10 -->
<g id="edge9_Node000006_Node000010" class="edge">
<title>Node6&#45;&gt;Node10</title>
<g id="a_edge9_Node000006_Node000010"><a xlink:title=" ">
<path fill="none" stroke="#63b8ff" d="M1028.03,-59.96C1095.67,-50.68 1266.03,-27.3 1345.48,-16.39"/>
<polygon fill="#63b8ff" stroke="#63b8ff" points="1345.59,-19.91 1355.02,-15.08 1344.64,-12.97 1345.59,-19.91"/>
</a>
</g>
</g>
<!-- Node6&#45;&gt;Node11 -->
<g id="edge10_Node000006_Node000011" class="edge">
<title>Node6&#45;&gt;Node11</title>
<g id="a_edge10_Node000006_Node000011"><a xlink:title=" ">
<path fill="none" stroke="#63b8ff" d="M1028.12,-61.45C1132.09,-52.63 1489.36,-22.34 1596.74,-13.23"/>
<polygon fill="#63b8ff" stroke="#63b8ff" points="1596.83,-16.74 1606.5,-12.41 1596.24,-9.76 1596.83,-16.74"/>
</a>
</g>
</g>
<!-- Node13&#45;&gt;Node6 -->
<g id="edge14_Node000013_Node000006" class="edge">
<title>Node13&#45;&gt;Node6</title>
<g id="a_edge14_Node000013_Node000006"><a xlink:title=" ">
<path fill="none" stroke="#63b8ff" d="M1254.3,-115.66C1248.14,-113.83 1241.63,-112 1235.5,-110.5 1167.18,-93.74 1086.42,-79.69 1039.28,-72.06"/>
<polygon fill="#63b8ff" stroke="#63b8ff" points="1039.97,-68.62 1029.54,-70.49 1038.86,-75.53 1039.97,-68.62"/>
</a>
</g>
</g>
<!-- Node14&#45;&gt;Node6 -->
<g id="edge16_Node000014_Node000006" class="edge">
<title>Node14&#45;&gt;Node6</title>
<g id="a_edge16_Node000014_Node000006"><a xlink:title=" ">
<path fill="none" stroke="#63b8ff" d="M999.5,-115.81C999.5,-108.03 999.5,-96.45 999.5,-86.41"/>
<polygon fill="#63b8ff" stroke="#63b8ff" points="1003,-86.41 999.5,-76.41 996,-86.41 1003,-86.41"/>
</a>
</g>
</g>
<!-- Node15&#45;&gt;Node6 -->
<g id="edge20_Node000015_Node000006" class="edge">
<title>Node15&#45;&gt;Node6</title>
<g id="a_edge20_Node000015_Node000006"><a xlink:title=" ">
<path fill="none" stroke="#63b8ff" d="M673.48,-115.67C683.07,-113.89 693.1,-112.09 702.5,-110.5 794.18,-95.02 902.24,-79.46 959.38,-71.43"/>
<polygon fill="#63b8ff" stroke="#63b8ff" points="959.86,-74.9 969.28,-70.05 958.89,-67.97 959.86,-74.9"/>
</a>
</g>
</g>
<!-- Node15&#45;&gt;Node9 -->
<g id="edge21_Node000015_Node000009" class="edge">
<title>Node15&#45;&gt;Node9</title>
<g id="a_edge21_Node000015_Node000009"><a xlink:title=" ">
<path fill="none" stroke="#63b8ff" d="M625.6,-115.88C623.69,-101.39 617.94,-72.53 601.5,-55.25 590.47,-43.65 551.83,-29.24 524.15,-19.98"/>
<polygon fill="#63b8ff" stroke="#63b8ff" points="525.47,-16.73 514.88,-16.94 523.29,-23.38 525.47,-16.73"/>
</a>
</g>
</g>
<!-- Node16 -->
<g id="Node000016" class="node">
<title>Node16</title>
<g id="a_Node000016"><a xlink:href="function_8hpp.xhtml" target="_top" xlink:title=" ">
<polygon fill="white" stroke="#666666" points="592.75,-74.5 524.25,-74.5 524.25,-55.25 592.75,-55.25 592.75,-74.5"/>
<text text-anchor="middle" x="558.5" y="-61" font-family="Helvetica,sans-Serif" font-size="10.00">function.hpp</text>
</a>
</g>
</g>
<!-- Node15&#45;&gt;Node16 -->
<g id="edge18_Node000015_Node000016" class="edge">
<title>Node15&#45;&gt;Node16</title>
<g id="a_edge18_Node000015_Node000016"><a xlink:title=" ">
<path fill="none" stroke="#63b8ff" d="M616.17,-115.81C605.89,-106.9 589.87,-93.03 577.32,-82.17"/>
<polygon fill="#63b8ff" stroke="#63b8ff" points="579.92,-79.79 570.07,-75.89 575.34,-85.08 579.92,-79.79"/>
</a>
</g>
</g>
<!-- Node17 -->
<g id="Node000017" class="node">
<title>Node17</title>
<g id="a_Node000017"><a xlink:title=" ">
<polygon fill="#e0e0e0" stroke="#999999" points="583.75,-19.25 533.25,-19.25 533.25,0 583.75,0 583.75,-19.25"/>
<text text-anchor="middle" x="558.5" y="-5.75" font-family="Helvetica,sans-Serif" font-size="10.00">memory</text>
</a>
</g>
</g>
<!-- Node16&#45;&gt;Node17 -->
<g id="edge19_Node000016_Node000017" class="edge">
<title>Node16&#45;&gt;Node17</title>
<g id="a_edge19_Node000016_Node000017"><a xlink:title=" ">
<path fill="none" stroke="#63b8ff" d="M558.5,-55.08C558.5,-48.57 558.5,-39.42 558.5,-31.12"/>
<polygon fill="#63b8ff" stroke="#63b8ff" points="562,-31.12 558.5,-21.12 555,-31.12 562,-31.12"/>
</a>
</g>
</g>
<!-- Node18&#45;&gt;Node6 -->
<g id="edge24_Node000018_Node000006" class="edge">
<title>Node18&#45;&gt;Node6</title>
<g id="a_edge24_Node000018_Node000006"><a xlink:title=" ">
<path fill="none" stroke="#63b8ff" d="M409.12,-115.69C418.7,-113.74 428.93,-111.86 438.5,-110.5 632.63,-82.84 867.18,-71.12 959.46,-67.35"/>
<polygon fill="#63b8ff" stroke="#63b8ff" points="959.39,-70.86 969.24,-66.96 959.11,-63.86 959.39,-70.86"/>
</a>
</g>
</g>
<!-- Node18&#45;&gt;Node9 -->
<g id="edge25_Node000018_Node000009" class="edge">
<title>Node18&#45;&gt;Node9</title>
<g id="a_edge25_Node000018_Node000009"><a xlink:title=" ">
<path fill="none" stroke="#63b8ff" d="M379.31,-115.79C400.21,-96.71 449.42,-51.78 476.26,-27.28"/>
<polygon fill="#63b8ff" stroke="#63b8ff" points="478.59,-29.89 483.62,-20.56 473.87,-24.72 478.59,-29.89"/>
</a>
</g>
</g>
<!-- Node18&#45;&gt;Node16 -->
<g id="edge23_Node000018_Node000016" class="edge">
<title>Node18&#45;&gt;Node16</title>
<g id="a_edge23_Node000018_Node000016"><a xlink:title=" ">
<path fill="none" stroke="#63b8ff" d="M398.62,-115.68C430.8,-105.65 482.84,-89.44 518.76,-78.25"/>
<polygon fill="#63b8ff" stroke="#63b8ff" points="519.4,-81.72 527.9,-75.41 517.32,-75.04 519.4,-81.72"/>
</a>
</g>
</g>
<!-- Node19&#45;&gt;Node6 -->
<g id="edge28_Node000019_Node000006" class="edge">
<title>Node19&#45;&gt;Node6</title>
<g id="a_edge28_Node000019_Node000006"><a xlink:title=" ">
<path fill="none" stroke="#63b8ff" d="M527.48,-115.64C535.31,-113.72 543.66,-111.86 551.5,-110.5 700.92,-84.52 881.21,-72.29 959.73,-67.89"/>
<polygon fill="#63b8ff" stroke="#63b8ff" points="959.7,-71.39 969.49,-67.35 959.31,-64.4 959.7,-71.39"/>
</a>
</g>
</g>
<!-- Node19&#45;&gt;Node9 -->
<g id="edge29_Node000019_Node000009" class="edge">
<title>Node19&#45;&gt;Node9</title>
<g id="a_edge29_Node000019_Node000009"><a xlink:title=" ">
<path fill="none" stroke="#63b8ff" d="M494.5,-115.79C494.5,-97.63 494.5,-56.04 494.5,-30.95"/>
<polygon fill="#63b8ff" stroke="#63b8ff" points="498,-31.05 494.5,-21.05 491,-31.05 498,-31.05"/>
</a>
</g>
</g>
<!-- Node19&#45;&gt;Node16 -->
<g id="edge27_Node000019_Node000016" class="edge">
<title>Node19&#45;&gt;Node16</title>
<g id="a_edge27_Node000019_Node000016"><a xlink:title=" ">
<path fill="none" stroke="#63b8ff" d="M504.22,-115.81C513.81,-106.99 528.69,-93.3 540.44,-82.48"/>
<polygon fill="#63b8ff" stroke="#63b8ff" points="542.58,-85.27 547.57,-75.93 537.85,-80.12 542.58,-85.27"/>
</a>
</g>
</g>
<!-- Node20&#45;&gt;Node6 -->
<g id="edge31_Node000020_Node000006" class="edge">
<title>Node20&#45;&gt;Node6</title>
<g id="a_edge31_Node000020_Node000006"><a xlink:title=" ">
<path fill="none" stroke="#63b8ff" d="M1084.31,-115.81C1068.45,-106.47 1043.32,-91.67 1024.52,-80.61"/>
<polygon fill="#63b8ff" stroke="#63b8ff" points="1026.53,-77.73 1016.14,-75.67 1022.98,-83.76 1026.53,-77.73"/>
</a>
</g>
</g>
<!-- Node21&#45;&gt;Node6 -->
<g id="edge33_Node000021_Node000006" class="edge">
<title>Node21&#45;&gt;Node6</title>
<g id="a_edge33_Node000021_Node000006"><a xlink:title=" ">
<path fill="none" stroke="#63b8ff" d="M1159.38,-115.68C1127.01,-105.59 1074.55,-89.25 1038.61,-78.06"/>
<polygon fill="#63b8ff" stroke="#63b8ff" points="1040.06,-74.85 1029.48,-75.21 1037.98,-81.53 1040.06,-74.85"/>
</a>
</g>
</g>
<!-- Node22&#45;&gt;Node6 -->
<g id="edge36_Node000022_Node000006" class="edge">
<title>Node22&#45;&gt;Node6</title>
<g id="a_edge36_Node000022_Node000006"><a xlink:title=" ">
<path fill="none" stroke="#63b8ff" d="M789.45,-115.64C796.09,-113.9 803.01,-112.12 809.5,-110.5 861.42,-97.56 921.58,-83.6 960.06,-74.81"/>
<polygon fill="#63b8ff" stroke="#63b8ff" points="960.35,-78.33 969.32,-72.7 958.79,-71.51 960.35,-78.33"/>
</a>
</g>
</g>
<!-- Node22&#45;&gt;Node9 -->
<g id="edge37_Node000022_Node000009" class="edge">
<title>Node22&#45;&gt;Node9</title>
<g id="a_edge37_Node000022_Node000009"><a xlink:title=" ">
<path fill="none" stroke="#63b8ff" d="M739.76,-115.66C715.08,-101.62 665.52,-74.29 621.5,-55.25 588.8,-41.11 550.01,-27.99 523.98,-19.68"/>
<polygon fill="#63b8ff" stroke="#63b8ff" points="525.36,-16.45 514.77,-16.78 523.25,-23.12 525.36,-16.45"/>
</a>
</g>
</g>
<!-- Node22&#45;&gt;Node16 -->
<g id="edge35_Node000022_Node000016" class="edge">
<title>Node22&#45;&gt;Node16</title>
<g id="a_edge35_Node000022_Node000016"><a xlink:title=" ">
<path fill="none" stroke="#63b8ff" d="M725.15,-115.68C691.46,-105.61 636.89,-89.3 599.44,-78.11"/>
<polygon fill="#63b8ff" stroke="#63b8ff" points="600.92,-74.9 590.33,-75.39 598.91,-81.61 600.92,-74.9"/>
</a>
</g>
</g>
<!-- Node23&#45;&gt;Node6 -->
<g id="edge40_Node000023_Node000006" class="edge">
<title>Node23&#45;&gt;Node6</title>
<g id="a_edge40_Node000023_Node000006"><a xlink:title=" ">
<path fill="none" stroke="#63b8ff" d="M906.47,-110.05C925.99,-100.78 951.04,-88.88 970.23,-79.77"/>
<polygon fill="#63b8ff" stroke="#63b8ff" points="971.58,-83 979.12,-75.55 968.58,-76.68 971.58,-83"/>
</a>
</g>
</g>
<!-- Node23&#45;&gt;Node9 -->
<g id="edge41_Node000023_Node000009" class="edge">
<title>Node23&#45;&gt;Node9</title>
<g id="a_edge41_Node000023_Node000009"><a xlink:title=" ">
<path fill="none" stroke="#63b8ff" d="M830.35,-110.05C785.78,-95.66 715.63,-73.32 654.5,-55.25 597.01,-38.25 582.2,-35.53 524.5,-19.25 524.39,-19.22 524.27,-19.19 524.16,-19.15"/>
<polygon fill="#63b8ff" stroke="#63b8ff" points="525.25,-15.82 514.67,-16.45 523.33,-22.56 525.25,-15.82"/>
</a>
</g>
</g>
<!-- Node23&#45;&gt;Node16 -->
<g id="edge39_Node000023_Node000016" class="edge">
<title>Node23&#45;&gt;Node16</title>
<g id="a_edge39_Node000023_Node000016"><a xlink:title=" ">
<path fill="none" stroke="#63b8ff" d="M817.78,-112.35C814.64,-111.71 811.53,-111.09 808.5,-110.5 737.25,-96.57 654.22,-82.09 604.05,-73.54"/>
<polygon fill="#63b8ff" stroke="#63b8ff" points="604.88,-70.13 594.43,-71.91 603.7,-77.03 604.88,-70.13"/>
</a>
</g>
</g>
<!-- Node24&#45;&gt;Node6 -->
<g id="edge44_Node000024_Node000006" class="edge">
<title>Node24&#45;&gt;Node6</title>
<g id="a_edge44_Node000024_Node000006"><a xlink:title=" ">
<path fill="none" stroke="#63b8ff" d="M291.45,-112.03C294.5,-111.46 297.54,-110.94 300.5,-110.5 549.43,-73.27 852.79,-67.07 959.82,-66.06"/>
<polygon fill="#63b8ff" stroke="#63b8ff" points="959.54,-69.56 969.51,-65.98 959.48,-62.56 959.54,-69.56"/>
</a>
</g>
</g>
<!-- Node24&#45;&gt;Node9 -->
<g id="edge45_Node000024_Node000009" class="edge">
<title>Node24&#45;&gt;Node9</title>
<g id="a_edge45_Node000024_Node000009"><a xlink:title=" ">
<path fill="none" stroke="#63b8ff" d="M273.19,-110.06C323.16,-87.61 417.76,-45.11 465.45,-23.68"/>
<polygon fill="#63b8ff" stroke="#63b8ff" points="466.63,-26.98 474.32,-19.69 463.77,-20.6 466.63,-26.98"/>
</a>
</g>
</g>
<!-- Node24&#45;&gt;Node16 -->
<g id="edge43_Node000024_Node000016" class="edge">
<title>Node24&#45;&gt;Node16</title>
<g id="a_edge43_Node000024_Node000016"><a xlink:title=" ">
<path fill="none" stroke="#63b8ff" d="M291.52,-112.41C294.55,-111.74 297.56,-111.1 300.5,-110.5 374.6,-95.31 461.39,-81.01 513.05,-72.86"/>
<polygon fill="#63b8ff" stroke="#63b8ff" points="513.32,-76.36 522.66,-71.36 512.23,-69.45 513.32,-76.36"/>
</a>
</g>
</g>
<!-- Node25&#45;&gt;Node6 -->
<g id="edge50_Node000025_Node000006" class="edge">
<title>Node25&#45;&gt;Node6</title>
<g id="a_edge50_Node000025_Node000006"><a xlink:title=" ">
<path fill="none" stroke="#63b8ff" d="M133.03,-115.64C148.58,-113.73 165.1,-111.88 180.5,-110.5 479.08,-83.74 840.44,-70.81 959.41,-67.07"/>
<polygon fill="#63b8ff" stroke="#63b8ff" points="959.4,-70.57 969.28,-66.76 959.18,-63.57 959.4,-70.57"/>
</a>
</g>
</g>
<!-- Node25&#45;&gt;Node8 -->
<g id="edge51_Node000025_Node000008" class="edge">
<title>Node25&#45;&gt;Node8</title>
<g id="a_edge51_Node000025_Node000008"><a xlink:title=" ">
<path fill="none" stroke="#63b8ff" d="M58.42,-115.73C46.72,-101.53 27.96,-73.69 42.5,-55.25 60.88,-31.94 144.28,-19.43 192.94,-14"/>
<polygon fill="#63b8ff" stroke="#63b8ff" points="193.13,-17.49 202.71,-12.95 192.39,-10.53 193.13,-17.49"/>
</a>
</g>
</g>
<!-- Node25&#45;&gt;Node9 -->
<g id="edge53_Node000025_Node000009" class="edge">
<title>Node25&#45;&gt;Node9</title>
<g id="a_edge53_Node000025_Node000009"><a xlink:title=" ">
<path fill="none" stroke="#63b8ff" d="M73.87,-115.64C86.91,-100.25 115.67,-69.41 147.5,-55.25 204.14,-30.05 391.09,-16.67 464.52,-12.28"/>
<polygon fill="#63b8ff" stroke="#63b8ff" points="464.39,-15.79 474.17,-11.71 463.99,-8.8 464.39,-15.79"/>
</a>
</g>
</g>
<!-- Node26 -->
<g id="Node000026" class="node">
<title>Node26</title>
<g id="a_Node000026"><a xlink:title=" ">
<polygon fill="#e0e0e0" stroke="#999999" points="95.38,-74.5 51.62,-74.5 51.62,-55.25 95.38,-55.25 95.38,-74.5"/>
<text text-anchor="middle" x="73.5" y="-61" font-family="Helvetica,sans-Serif" font-size="10.00">format</text>
</a>
</g>
</g>
<!-- Node25&#45;&gt;Node26 -->
<g id="edge52_Node000025_Node000026" class="edge">
<title>Node25&#45;&gt;Node26</title>
<g id="a_edge52_Node000025_Node000026"><a xlink:title=" ">
<path fill="none" stroke="#63b8ff" d="M67.56,-115.81C68.5,-107.94 69.89,-96.2 71.1,-86.07"/>
<polygon fill="#63b8ff" stroke="#63b8ff" points="74.54,-86.75 72.25,-76.4 67.59,-85.92 74.54,-86.75"/>
</a>
</g>
</g>
<!-- Node27&#45;&gt;Node6 -->
<g id="edge55_Node000027_Node000006" class="edge">
<title>Node27&#45;&gt;Node6</title>
<g id="a_edge55_Node000027_Node000006"><a xlink:title=" ">
<path fill="none" stroke="#63b8ff" d="M1554.14,-118.29C1529.9,-115.81 1501.91,-112.98 1476.5,-110.5 1314.36,-94.66 1121.1,-76.94 1039.25,-69.48"/>
<polygon fill="#63b8ff" stroke="#63b8ff" points="1039.79,-66.02 1029.51,-68.6 1039.15,-72.99 1039.79,-66.02"/>
</a>
</g>
</g>
<!-- Node27&#45;&gt;Node11 -->
<g id="edge57_Node000027_Node000011" class="edge">
<title>Node27&#45;&gt;Node11</title>
<g id="a_edge57_Node000027_Node000011"><a xlink:title=" ">
<path fill="none" stroke="#63b8ff" d="M1617.36,-115.79C1619.11,-97.63 1623.12,-56.04 1625.54,-30.95"/>
<polygon fill="#63b8ff" stroke="#63b8ff" points="1629.02,-31.33 1626.5,-21.05 1622.05,-30.66 1629.02,-31.33"/>
</a>
</g>
</g>
<!-- Node28 -->
<g id="Node000028" class="node">
<title>Node28</title>
<g id="a_Node000028"><a xlink:title=" ">
<polygon fill="#e0e0e0" stroke="#999999" points="1599.88,-74.5 1565.12,-74.5 1565.12,-55.25 1599.88,-55.25 1599.88,-74.5"/>
<text text-anchor="middle" x="1582.5" y="-61" font-family="Helvetica,sans-Serif" font-size="10.00">print</text>
</a>
</g>
</g>
<!-- Node27&#45;&gt;Node28 -->
<g id="edge56_Node000027_Node000028" class="edge">
<title>Node27&#45;&gt;Node28</title>
<g id="a_edge56_Node000027_Node000028"><a xlink:title=" ">
<path fill="none" stroke="#63b8ff" d="M1611.34,-115.81C1606.59,-107.6 1599.41,-95.16 1593.4,-84.75"/>
<polygon fill="#63b8ff" stroke="#63b8ff" points="1596.5,-83.12 1588.47,-76.21 1590.44,-86.62 1596.5,-83.12"/>
</a>
</g>
</g>
</g>
</svg>
