<?xml version="1.0" encoding="UTF-8" standalone="no"?>
<!DOCTYPE svg PUBLIC "-//W3C//DTD SVG 1.1//EN"
 "http://www.w3.org/Graphics/SVG/1.1/DTD/svg11.dtd">
<!-- Generated by graphviz version 7.0.5 (20221223.1930)
 -->
<!-- Title: /github/workspace/include/fcarouge/kalman.hpp Pages: 1 -->
<svg width="834pt" height="258pt"
 viewBox="0.00 0.00 834.00 258.00" xmlns="http://www.w3.org/2000/svg" xmlns:xlink="http://www.w3.org/1999/xlink">
<g id="graph0" class="graph" transform="scale(1 1) rotate(0) translate(4 254)">
<title>/github/workspace/include/fcarouge/kalman.hpp</title>
<!-- Node1 -->
<g id="node1" class="node">
<title>Node1</title>
<g id="a_node1"><a xlink:title="The Kalman filter class and library top&#45;level header.">
<polygon fill="#999999" stroke="#666666" points="523,-250 393,-250 393,-220 523,-220 523,-250"/>
<text text-anchor="start" x="401" y="-238" font-family="Helvetica,sans-Serif" font-size="10.00">/github/workspace/include</text>
<text text-anchor="middle" x="458" y="-227" font-family="Helvetica,sans-Serif" font-size="10.00">/fcarouge/kalman.hpp</text>
</a>
</g>
</g>
<!-- Node2 -->
<g id="node2" class="node">
<title>Node2</title>
<g id="a_node2"><a xlink:href="algorithm_8hpp.xhtml" target="_top" xlink:title="The collection of Kalman algorithms.">
<polygon fill="white" stroke="#666666" points="74,-184 0,-184 0,-165 74,-165 74,-184"/>
<text text-anchor="middle" x="37" y="-172" font-family="Helvetica,sans-Serif" font-size="10.00">algorithm.hpp</text>
</a>
</g>
</g>
<!-- Node1&#45;&gt;Node2 -->
<g id="edge1" class="edge">
<title>Node1&#45;&gt;Node2</title>
<path fill="none" stroke="#63b8ff" d="M392.75,-225.8C318.76,-216.36 194.56,-200.08 88,-184 87.17,-183.87 86.33,-183.75 85.48,-183.62"/>
<polygon fill="#63b8ff" stroke="#63b8ff" points="86.22,-180.19 75.8,-182.09 85.13,-187.1 86.22,-180.19"/>
</g>
<!-- Node3 -->
<g id="node3" class="node">
<title>Node3</title>
<g id="a_node3"><a xlink:href="format_8hpp.xhtml" target="_top" xlink:title=" ">
<polygon fill="white" stroke="#666666" points="333.5,-184 236.5,-184 236.5,-165 333.5,-165 333.5,-184"/>
<text text-anchor="middle" x="285" y="-172" font-family="Helvetica,sans-Serif" font-size="10.00">internal/format.hpp</text>
</a>
</g>
</g>
<!-- Node1&#45;&gt;Node3 -->
<g id="edge2" class="edge">
<title>Node1&#45;&gt;Node3</title>
<path fill="none" stroke="#63b8ff" d="M415.24,-219.54C386.65,-209.87 349.43,-197.29 322.1,-188.04"/>
<polygon fill="#63b8ff" stroke="#63b8ff" points="323.44,-184.8 312.85,-184.92 321.2,-191.44 323.44,-184.8"/>
</g>
<!-- Node4 -->
<g id="node4" class="node">
<title>Node4</title>
<g id="a_node4"><a xlink:href="utility_8hpp.xhtml" target="_top" xlink:title="The collection of utilities supporting the library.">
<polygon fill="white" stroke="#666666" points="228,-129 130,-129 130,-110 228,-110 228,-129"/>
<text text-anchor="middle" x="179" y="-117" font-family="Helvetica,sans-Serif" font-size="10.00">fcarouge/utility.hpp</text>
</a>
</g>
</g>
<!-- Node1&#45;&gt;Node4 -->
<g id="edge14" class="edge">
<title>Node1&#45;&gt;Node4</title>
<path fill="none" stroke="#63b8ff" d="M392.64,-231.92C343.66,-227.65 276.8,-215.8 227,-184 209.92,-173.09 196.66,-153.85 188.45,-139.4"/>
<polygon fill="#63b8ff" stroke="#63b8ff" points="191.67,-138.01 183.88,-130.83 185.5,-141.3 191.67,-138.01"/>
</g>
<!-- Node6 -->
<g id="node6" class="node">
<title>Node6</title>
<g id="a_node6"><a xlink:title=" ">
<polygon fill="#e0e0e0" stroke="#999999" points="201,-19 145,-19 145,0 201,0 201,-19"/>
<text text-anchor="middle" x="173" y="-7" font-family="Helvetica,sans-Serif" font-size="10.00">concepts</text>
</a>
</g>
</g>
<!-- Node1&#45;&gt;Node6 -->
<g id="edge15" class="edge">
<title>Node1&#45;&gt;Node6</title>
<path fill="none" stroke="#63b8ff" d="M392.55,-228.38C339.78,-222.16 264.49,-209.44 203,-184 162.45,-167.23 141.65,-167.72 121,-129 102.33,-94 134.15,-50.91 155.69,-27.54"/>
<polygon fill="#63b8ff" stroke="#63b8ff" points="158.12,-30.06 162.54,-20.43 153.08,-25.21 158.12,-30.06"/>
</g>
<!-- Node7 -->
<g id="node7" class="node">
<title>Node7</title>
<g id="a_node7"><a xlink:title=" ">
<polygon fill="#e0e0e0" stroke="#999999" points="349,-19 287,-19 287,0 349,0 349,-19"/>
<text text-anchor="middle" x="318" y="-7" font-family="Helvetica,sans-Serif" font-size="10.00">type_traits</text>
</a>
</g>
</g>
<!-- Node1&#45;&gt;Node7 -->
<g id="edge18" class="edge">
<title>Node1&#45;&gt;Node7</title>
<path fill="none" stroke="#63b8ff" d="M474.17,-219.59C497.94,-196.59 537.57,-150.05 519,-110 490.96,-49.54 410.56,-25.45 360.35,-16.12"/>
<polygon fill="#63b8ff" stroke="#63b8ff" points="361.15,-12.71 350.7,-14.46 359.96,-19.6 361.15,-12.71"/>
</g>
<!-- Node9 -->
<g id="node9" class="node">
<title>Node9</title>
<g id="a_node9"><a xlink:href="internal_2kalman_8hpp.xhtml" target="_top" xlink:title=" ">
<polygon fill="white" stroke="#666666" points="469.5,-184 368.5,-184 368.5,-165 469.5,-165 469.5,-184"/>
<text text-anchor="middle" x="419" y="-172" font-family="Helvetica,sans-Serif" font-size="10.00">internal/kalman.hpp</text>
</a>
</g>
</g>
<!-- Node1&#45;&gt;Node9 -->
<g id="edge9" class="edge">
<title>Node1&#45;&gt;Node9</title>
<path fill="none" stroke="#63b8ff" d="M448.36,-219.54C443.16,-211.74 436.68,-202.03 431.14,-193.71"/>
<polygon fill="#63b8ff" stroke="#63b8ff" points="434.08,-191.81 425.62,-185.43 428.26,-195.7 434.08,-191.81"/>
</g>
<!-- Node13 -->
<g id="node13" class="node">
<title>Node13</title>
<g id="a_node13"><a xlink:title=" ">
<polygon fill="#e0e0e0" stroke="#999999" points="575.5,-184 526.5,-184 526.5,-165 575.5,-165 575.5,-184"/>
<text text-anchor="middle" x="551" y="-172" font-family="Helvetica,sans-Serif" font-size="10.00">cstddef</text>
</a>
</g>
</g>
<!-- Node1&#45;&gt;Node13 -->
<g id="edge16" class="edge">
<title>Node1&#45;&gt;Node13</title>
<path fill="none" stroke="#63b8ff" d="M480.99,-219.54C495.1,-210.66 513.13,-199.32 527.36,-190.37"/>
<polygon fill="#63b8ff" stroke="#63b8ff" points="529.05,-193.44 535.66,-185.15 525.33,-187.51 529.05,-193.44"/>
</g>
<!-- Node14 -->
<g id="node14" class="node">
<title>Node14</title>
<g id="a_node14"><a xlink:title=" ">
<polygon fill="#e0e0e0" stroke="#999999" points="652.5,-184 593.5,-184 593.5,-165 652.5,-165 652.5,-184"/>
<text text-anchor="middle" x="623" y="-172" font-family="Helvetica,sans-Serif" font-size="10.00">functional</text>
</a>
</g>
</g>
<!-- Node1&#45;&gt;Node14 -->
<g id="edge17" class="edge">
<title>Node1&#45;&gt;Node14</title>
<path fill="none" stroke="#63b8ff" d="M498.79,-219.54C526.01,-209.89 561.45,-197.32 587.51,-188.08"/>
<polygon fill="#63b8ff" stroke="#63b8ff" points="588.37,-191.49 596.62,-184.85 586.03,-184.89 588.37,-191.49"/>
</g>
<!-- Node15 -->
<g id="node15" class="node">
<title>Node15</title>
<g id="a_node15"><a xlink:title=" ">
<polygon fill="#e0e0e0" stroke="#999999" points="709.5,-184 670.5,-184 670.5,-165 709.5,-165 709.5,-184"/>
<text text-anchor="middle" x="690" y="-172" font-family="Helvetica,sans-Serif" font-size="10.00">utility</text>
</a>
</g>
</g>
<!-- Node1&#45;&gt;Node15 -->
<g id="edge19" class="edge">
<title>Node1&#45;&gt;Node15</title>
<path fill="none" stroke="#63b8ff" d="M520.73,-219.56C558.5,-210.65 607.8,-198.64 659.17,-184.68"/>
<polygon fill="#63b8ff" stroke="#63b8ff" points="659.97,-188.09 668.69,-182.07 658.12,-181.34 659.97,-188.09"/>
</g>
<!-- Node16 -->
<g id="node16" class="node">
<title>Node16</title>
<g id="a_node16"><a xlink:title=" ">
<polygon fill="#e0e0e0" stroke="#999999" points="826,-184 728,-184 728,-165 826,-165 826,-184"/>
<text text-anchor="middle" x="777" y="-172" font-family="Helvetica,sans-Serif" font-size="10.00">internal/kalman.tpp</text>
</a>
</g>
</g>
<!-- Node1&#45;&gt;Node16 -->
<g id="edge20" class="edge">
<title>Node1&#45;&gt;Node16</title>
<path fill="none" stroke="#63b8ff" d="M523.32,-222.02C580.28,-211.58 662.2,-196.55 717.4,-186.43"/>
<polygon fill="#63b8ff" stroke="#63b8ff" points="717.72,-189.93 726.92,-184.68 716.46,-183.04 717.72,-189.93"/>
</g>
<!-- Node3&#45;&gt;Node4 -->
<g id="edge3" class="edge">
<title>Node3&#45;&gt;Node4</title>
<path fill="none" stroke="#63b8ff" d="M267.02,-164.51C250.55,-156.27 225.91,-143.96 206.89,-134.45"/>
<polygon fill="#63b8ff" stroke="#63b8ff" points="208.58,-131.38 198.07,-130.03 205.45,-137.64 208.58,-131.38"/>
</g>
<!-- Node3&#45;&gt;Node7 -->
<g id="edge8" class="edge">
<title>Node3&#45;&gt;Node7</title>
<path fill="none" stroke="#63b8ff" d="M288.17,-164.74C291.3,-155.84 296.02,-141.61 299,-129 307.08,-94.78 312.76,-54.18 315.7,-30.49"/>
<polygon fill="#63b8ff" stroke="#63b8ff" points="319.16,-31.06 316.87,-20.71 312.21,-30.23 319.16,-31.06"/>
</g>
<!-- Node8 -->
<g id="node8" class="node">
<title>Node8</title>
<g id="a_node8"><a xlink:title=" ">
<polygon fill="#e0e0e0" stroke="#999999" points="290,-129 246,-129 246,-110 290,-110 290,-129"/>
<text text-anchor="middle" x="268" y="-117" font-family="Helvetica,sans-Serif" font-size="10.00">format</text>
</a>
</g>
</g>
<!-- Node3&#45;&gt;Node8 -->
<g id="edge7" class="edge">
<title>Node3&#45;&gt;Node8</title>
<path fill="none" stroke="#63b8ff" d="M282.19,-164.75C280.06,-158.11 277.06,-148.73 274.36,-140.31"/>
<polygon fill="#63b8ff" stroke="#63b8ff" points="277.72,-139.34 271.33,-130.88 271.05,-141.47 277.72,-139.34"/>
</g>
<!-- Node5 -->
<g id="node5" class="node">
<title>Node5</title>
<g id="a_node5"><a xlink:href="internal_2utility_8hpp.xhtml" target="_top" xlink:title=" ">
<polygon fill="white" stroke="#666666" points="257,-74 165,-74 165,-55 257,-55 257,-74"/>
<text text-anchor="middle" x="211" y="-62" font-family="Helvetica,sans-Serif" font-size="10.00">internal/utility.hpp</text>
</a>
</g>
</g>
<!-- Node4&#45;&gt;Node5 -->
<g id="edge4" class="edge">
<title>Node4&#45;&gt;Node5</title>
<path fill="none" stroke="#63b8ff" d="M184.28,-109.75C188.47,-102.81 194.48,-92.86 199.73,-84.16"/>
<polygon fill="#63b8ff" stroke="#63b8ff" points="202.65,-86.11 204.82,-75.74 196.65,-82.49 202.65,-86.11"/>
</g>
<!-- Node5&#45;&gt;Node6 -->
<g id="edge5" class="edge">
<title>Node5&#45;&gt;Node6</title>
<path fill="none" stroke="#63b8ff" d="M204.73,-54.75C199.64,-47.66 192.3,-37.42 185.97,-28.59"/>
<polygon fill="#63b8ff" stroke="#63b8ff" points="188.96,-26.76 180.29,-20.67 183.28,-30.84 188.96,-26.76"/>
</g>
<!-- Node5&#45;&gt;Node7 -->
<g id="edge6" class="edge">
<title>Node5&#45;&gt;Node7</title>
<path fill="none" stroke="#63b8ff" d="M229.15,-54.51C245.78,-46.27 270.64,-33.96 289.85,-24.45"/>
<polygon fill="#63b8ff" stroke="#63b8ff" points="291.35,-27.6 298.76,-20.03 288.25,-21.33 291.35,-27.6"/>
</g>
<!-- Node9&#45;&gt;Node5 -->
<g id="edge12" class="edge">
<title>Node9&#45;&gt;Node5</title>
<path fill="none" stroke="#63b8ff" d="M402.36,-164.57C379.23,-152.19 336.05,-129.17 299,-110 278.98,-99.64 256.27,-88.17 238.94,-79.46"/>
<polygon fill="#63b8ff" stroke="#63b8ff" points="240.78,-76.47 230.27,-75.12 237.64,-82.73 240.78,-76.47"/>
</g>
<!-- Node10 -->
<g id="node10" class="node">
<title>Node10</title>
<g id="a_node10"><a xlink:href="function_8hpp.xhtml" target="_top" xlink:title=" ">
<polygon fill="white" stroke="#666666" points="453.5,-129 384.5,-129 384.5,-110 453.5,-110 453.5,-129"/>
<text text-anchor="middle" x="419" y="-117" font-family="Helvetica,sans-Serif" font-size="10.00">function.hpp</text>
</a>
</g>
</g>
<!-- Node9&#45;&gt;Node10 -->
<g id="edge10" class="edge">
<title>Node9&#45;&gt;Node10</title>
<path fill="none" stroke="#63b8ff" d="M419,-164.75C419,-158.27 419,-149.16 419,-140.9"/>
<polygon fill="#63b8ff" stroke="#63b8ff" points="422.5,-140.96 419,-130.96 415.5,-140.96 422.5,-140.96"/>
</g>
<!-- Node12 -->
<g id="node12" class="node">
<title>Node12</title>
<g id="a_node12"><a xlink:title=" ">
<polygon fill="#e0e0e0" stroke="#999999" points="510,-129 472,-129 472,-110 510,-110 510,-129"/>
<text text-anchor="middle" x="491" y="-117" font-family="Helvetica,sans-Serif" font-size="10.00">tuple</text>
</a>
</g>
</g>
<!-- Node9&#45;&gt;Node12 -->
<g id="edge13" class="edge">
<title>Node9&#45;&gt;Node12</title>
<path fill="none" stroke="#63b8ff" d="M431.21,-164.51C441.83,-156.7 457.44,-145.21 470.04,-135.93"/>
<polygon fill="#63b8ff" stroke="#63b8ff" points="471.77,-139 477.75,-130.26 467.62,-133.36 471.77,-139"/>
</g>
<!-- Node11 -->
<g id="node11" class="node">
<title>Node11</title>
<g id="a_node11"><a xlink:title=" ">
<polygon fill="#e0e0e0" stroke="#999999" points="444.5,-74 393.5,-74 393.5,-55 444.5,-55 444.5,-74"/>
<text text-anchor="middle" x="419" y="-62" font-family="Helvetica,sans-Serif" font-size="10.00">memory</text>
</a>
</g>
</g>
<!-- Node10&#45;&gt;Node11 -->
<g id="edge11" class="edge">
<title>Node10&#45;&gt;Node11</title>
<path fill="none" stroke="#63b8ff" d="M419,-109.75C419,-103.27 419,-94.16 419,-85.9"/>
<polygon fill="#63b8ff" stroke="#63b8ff" points="422.5,-85.96 419,-75.96 415.5,-85.96 422.5,-85.96"/>
</g>
</g>
</svg>
