<?xml version="1.0" encoding="UTF-8" standalone="no"?>
<!DOCTYPE svg PUBLIC "-//W3C//DTD SVG 1.1//EN"
 "http://www.w3.org/Graphics/SVG/1.1/DTD/svg11.dtd">
<!-- Generated by graphviz version 12.2.0 (20241103.1931)
 -->
<!-- Title: /github/workspace/test/kalman_println_1x1x0.cpp Pages: 1 -->
<!--zoomable 326 -->

<svg id="main" version="1.1" xmlns="http://www.w3.org/2000/svg" xmlns:xlink="http://www.w3.org/1999/xlink" xml:space="preserve" onload="init(evt)">

<style type="text/css"><![CDATA[
.node, .edge {opacity: 0.7;}
.node.selected, .edge.selected {opacity: 1;}
.edge:hover path { stroke: red; }
.edge:hover polygon { stroke: red; fill: red; }
]]></style>

<defs>
  <circle id="rim" cx="0" cy="0" r="7"/>
  <circle id="rim2" cx="0" cy="0" r="3.5"/>
  <g id="zoomPlus">
    <use xlink:href="#rim" fill="#404040"><set attributeName="fill" to="#808080" begin="zoomplus.mouseover" end="zoomplus.mouseout"/></use>
    <path d="M-4,0h8M0,-4v8" fill="none" stroke="white" stroke-width="1.5" pointer-events="none"/>
  </g>
  <g id="zoomMin">
    <use xlink:href="#rim" fill="#404040"><set attributeName="fill" to="#808080" begin="zoomminus.mouseover" end="zoomminus.mouseout"/></use>
    <path d="M-4,0h8" fill="none" stroke="white" stroke-width="1.5" pointer-events="none"/>
  </g>
  <g id="arrowUp" transform="translate(30 24)">
    <use xlink:href="#rim"/>
    <path pointer-events="none" fill="none" stroke="white" stroke-width="1.5" d="M0,-3.0v7 M-2.5,-0.5L0,-3.0L2.5,-0.5"/>
  </g>
  <g id="arrowRight" transform="rotate(90) translate(36 -43)">
    <use xlink:href="#rim"/>
    <path pointer-events="none" fill="none" stroke="white" stroke-width="1.5" d="M0,-3.0v7 M-2.5,-0.5L0,-3.0L2.5,-0.5"/>
  </g>
  <g id="arrowDown" transform="rotate(180) translate(-30 -48)">
    <use xlink:href="#rim"/>
    <path pointer-events="none" fill="none" stroke="white" stroke-width="1.5" d="M0,-3.0v7 M-2.5,-0.5L0,-3.0L2.5,-0.5"/>
  </g>
  <g id="arrowLeft" transform="rotate(270) translate(-36 17)">
    <use xlink:href="#rim"/>
    <path pointer-events="none" fill="none" stroke="white" stroke-width="1.5" d="M0,-3.0v7 M-2.5,-0.5L0,-3.0L2.5,-0.5"/>
  </g>
  <g id="resetDef">
    <use xlink:href="#rim2" fill="#404040"><set attributeName="fill" to="#808080" begin="reset.mouseover" end="reset.mouseout"/></use>
  </g>
</defs>
<script type="application/ecmascript">
var viewWidth = 1848;
var viewHeight = 326;
var sectionId = 'dynsection-0';
</script>
<script type="application/ecmascript" xlink:href="svg.min.js"/>
<svg id="graph" class="graph">
<g id="viewport">
<title>/github/workspace/test/kalman_println_1x1x0.cpp</title>
<!-- Node1 -->
<g id="Node000001" class="node">
<title>Node1</title>
<g id="a_Node000001"><a xlink:title=" ">
<polygon fill="#999999" stroke="#666666" points="1829.17,-318 1699.17,-318 1699.17,-287.5 1829.17,-287.5 1829.17,-318"/>
<text text-anchor="start" x="1707.17" y="-304.5" font-family="Helvetica,sans-Serif" font-size="10.00">/github/workspace/test</text>
<text text-anchor="middle" x="1764.17" y="-293.25" font-family="Helvetica,sans-Serif" font-size="10.00">/kalman_println_1x1x0.cpp</text>
</a>
</g>
</g>
<!-- Node2 -->
<g id="Node000002" class="node">
<title>Node2</title>
<g id="a_Node000002"><a xlink:href="kalman_8hpp.xhtml" target="_top" xlink:title="The Kalman filter class and library top&#45;level header.">
<polygon fill="white" stroke="#666666" points="1453.17,-251.5 1347.17,-251.5 1347.17,-232.25 1453.17,-232.25 1453.17,-251.5"/>
<text text-anchor="middle" x="1400.17" y="-238" font-family="Helvetica,sans-Serif" font-size="10.00">fcarouge/kalman.hpp</text>
</a>
</g>
</g>
<!-- Node1&#45;&gt;Node2 -->
<g id="edge1_Node000001_Node000002" class="edge">
<title>Node1&#45;&gt;Node2</title>
<g id="a_edge1_Node000001_Node000002"><a xlink:title=" ">
<path fill="none" stroke="#63b8ff" d="M1698.67,-291.16C1632.4,-280.44 1530.58,-263.97 1464.67,-253.31"/>
<polygon fill="#63b8ff" stroke="#63b8ff" points="1465.53,-249.9 1455.1,-251.76 1464.41,-256.81 1465.53,-249.9"/>
</a>
</g>
</g>
<!-- Node28 -->
<g id="Node000028" class="node">
<title>Node28</title>
<g id="a_Node000028"><a xlink:title=" ">
<polygon fill="#e0e0e0" stroke="#999999" points="1726.54,-135.38 1691.79,-135.38 1691.79,-116.12 1726.54,-116.12 1726.54,-135.38"/>
<text text-anchor="middle" x="1709.17" y="-121.88" font-family="Helvetica,sans-Serif" font-size="10.00">print</text>
</a>
</g>
</g>
<!-- Node1&#45;&gt;Node28 -->
<g id="edge61_Node000001_Node000028" class="edge">
<title>Node1&#45;&gt;Node28</title>
<g id="a_edge61_Node000001_Node000028"><a xlink:title=" ">
<path fill="none" stroke="#63b8ff" d="M1764.13,-287.34C1763.59,-263.5 1760.52,-214.74 1745.17,-177 1740.35,-165.17 1732.24,-153.49 1724.93,-144.36"/>
<polygon fill="#63b8ff" stroke="#63b8ff" points="1727.62,-142.12 1718.49,-136.74 1722.27,-146.64 1727.62,-142.12"/>
</a>
</g>
</g>
<!-- Node30 -->
<g id="Node000030" class="node">
<title>Node30</title>
<g id="a_Node000030"><a xlink:title=" ">
<polygon fill="#e0e0e0" stroke="#999999" points="1840.29,-251.5 1792.04,-251.5 1792.04,-232.25 1840.29,-232.25 1840.29,-251.5"/>
<text text-anchor="middle" x="1816.17" y="-238" font-family="Helvetica,sans-Serif" font-size="10.00">cassert</text>
</a>
</g>
</g>
<!-- Node1&#45;&gt;Node30 -->
<g id="edge60_Node000001_Node000030" class="edge">
<title>Node1&#45;&gt;Node30</title>
<g id="a_edge60_Node000001_Node000030"><a xlink:title=" ">
<path fill="none" stroke="#63b8ff" d="M1777.02,-287.2C1784.18,-279.09 1793.14,-268.95 1800.68,-260.41"/>
<polygon fill="#63b8ff" stroke="#63b8ff" points="1803.15,-262.9 1807.15,-253.09 1797.9,-258.26 1803.15,-262.9"/>
</a>
</g>
</g>
<!-- Node3 -->
<g id="Node000003" class="node">
<title>Node3</title>
<g id="a_Node000003"><a xlink:href="kalman__forward_8hpp.xhtml" target="_top" xlink:title="Authoritative forward declaration header.">
<polygon fill="white" stroke="#666666" points="1735.67,-196.25 1632.67,-196.25 1632.67,-177 1735.67,-177 1735.67,-196.25"/>
<text text-anchor="middle" x="1684.17" y="-182.75" font-family="Helvetica,sans-Serif" font-size="10.00">kalman_forward.hpp</text>
</a>
</g>
</g>
<!-- Node2&#45;&gt;Node3 -->
<g id="edge2_Node000002_Node000003" class="edge">
<title>Node2&#45;&gt;Node3</title>
<g id="a_edge2_Node000002_Node000003"><a xlink:title=" ">
<path fill="none" stroke="#63b8ff" d="M1448.66,-231.78C1497.37,-222.65 1572.5,-208.56 1624.75,-198.76"/>
<polygon fill="#63b8ff" stroke="#63b8ff" points="1625.2,-202.24 1634.38,-196.96 1623.91,-195.36 1625.2,-202.24"/>
</a>
</g>
</g>
<!-- Node4 -->
<g id="Node000004" class="node">
<title>Node4</title>
<g id="a_Node000004"><a xlink:href="factory_8hpp.xhtml" target="_top" xlink:title=" ">
<polygon fill="white" stroke="#666666" points="862.42,-196.25 727.92,-196.25 727.92,-177 862.42,-177 862.42,-196.25"/>
<text text-anchor="middle" x="795.17" y="-182.75" font-family="Helvetica,sans-Serif" font-size="10.00">kalman_internal/factory.hpp</text>
</a>
</g>
</g>
<!-- Node2&#45;&gt;Node4 -->
<g id="edge3_Node000002_Node000004" class="edge">
<title>Node2&#45;&gt;Node4</title>
<g id="a_edge3_Node000002_Node000004"><a xlink:title=" ">
<path fill="none" stroke="#63b8ff" d="M1346.74,-236.17C1239.77,-226.76 998.86,-205.55 873.82,-194.55"/>
<polygon fill="#63b8ff" stroke="#63b8ff" points="874.23,-191.07 863.96,-193.68 873.61,-198.04 874.23,-191.07"/>
</a>
</g>
</g>
<!-- Node6 -->
<g id="Node000006" class="node">
<title>Node6</title>
<g id="a_Node000006"><a xlink:href="utility_8hpp.xhtml" target="_top" xlink:title=" ">
<polygon fill="white" stroke="#666666" points="1045.42,-74.5 988.92,-74.5 988.92,-55.25 1045.42,-55.25 1045.42,-74.5"/>
<text text-anchor="middle" x="1017.17" y="-61" font-family="Helvetica,sans-Serif" font-size="10.00">utility.hpp</text>
</a>
</g>
</g>
<!-- Node2&#45;&gt;Node6 -->
<g id="edge58_Node000002_Node000006" class="edge">
<title>Node2&#45;&gt;Node6</title>
<g id="a_edge58_Node000002_Node000006"><a xlink:title=" ">
<path fill="none" stroke="#63b8ff" d="M1379.31,-231.84C1362.52,-223.95 1338.89,-211.4 1321.17,-196.25 1284.19,-164.65 1294.79,-135.66 1253.17,-110.5 1191.84,-73.44 1106.52,-66.03 1057.04,-65.16"/>
<polygon fill="#63b8ff" stroke="#63b8ff" points="1057.11,-61.66 1047.08,-65.07 1057.05,-68.66 1057.11,-61.66"/>
</a>
</g>
</g>
<!-- Node25 -->
<g id="Node000025" class="node">
<title>Node25</title>
<g id="a_Node000025"><a xlink:href="format_8hpp.xhtml" target="_top" xlink:title="Formatting support for the Kalman filter.">
<polygon fill="white" stroke="#666666" points="1579.67,-135.38 1446.67,-135.38 1446.67,-116.12 1579.67,-116.12 1579.67,-135.38"/>
<text text-anchor="middle" x="1513.17" y="-121.88" font-family="Helvetica,sans-Serif" font-size="10.00">kalman_internal/format.hpp</text>
</a>
</g>
</g>
<!-- Node2&#45;&gt;Node25 -->
<g id="edge49_Node000002_Node000025" class="edge">
<title>Node2&#45;&gt;Node25</title>
<g id="a_edge49_Node000002_Node000025"><a xlink:title=" ">
<path fill="none" stroke="#63b8ff" d="M1376.19,-231.88C1349.42,-220.46 1311.96,-199.54 1329.17,-177 1337.19,-166.49 1406.87,-149.52 1458.12,-138.26"/>
<polygon fill="#63b8ff" stroke="#63b8ff" points="1458.57,-141.74 1467.6,-136.19 1457.08,-134.9 1458.57,-141.74"/>
</a>
</g>
</g>
<!-- Node27 -->
<g id="Node000027" class="node">
<title>Node27</title>
<g id="a_Node000027"><a xlink:href="print_8hpp.xhtml" target="_top" xlink:title=" ">
<polygon fill="white" stroke="#666666" points="1462.17,-196.25 1338.17,-196.25 1338.17,-177 1462.17,-177 1462.17,-196.25"/>
<text text-anchor="middle" x="1400.17" y="-182.75" font-family="Helvetica,sans-Serif" font-size="10.00">kalman_internal/print.hpp</text>
</a>
</g>
</g>
<!-- Node2&#45;&gt;Node27 -->
<g id="edge54_Node000002_Node000027" class="edge">
<title>Node2&#45;&gt;Node27</title>
<g id="a_edge54_Node000002_Node000027"><a xlink:title=" ">
<path fill="none" stroke="#63b8ff" d="M1400.17,-232.08C1400.17,-225.57 1400.17,-216.42 1400.17,-208.12"/>
<polygon fill="#63b8ff" stroke="#63b8ff" points="1403.67,-208.12 1400.17,-198.12 1396.67,-208.12 1403.67,-208.12"/>
</a>
</g>
</g>
<!-- Node29 -->
<g id="Node000029" class="node">
<title>Node29</title>
<g id="a_Node000029"><a xlink:title=" ">
<polygon fill="#e0e0e0" stroke="#999999" points="1614.42,-196.25 1479.92,-196.25 1479.92,-177 1614.42,-177 1614.42,-196.25"/>
<text text-anchor="middle" x="1547.17" y="-182.75" font-family="Helvetica,sans-Serif" font-size="10.00">kalman_internal/kalman.tpp</text>
</a>
</g>
</g>
<!-- Node2&#45;&gt;Node29 -->
<g id="edge59_Node000002_Node000029" class="edge">
<title>Node2&#45;&gt;Node29</title>
<g id="a_edge59_Node000002_Node000029"><a xlink:title=" ">
<path fill="none" stroke="#63b8ff" d="M1425.1,-231.84C1448.86,-223.24 1484.87,-210.19 1511.63,-200.5"/>
<polygon fill="#63b8ff" stroke="#63b8ff" points="1512.47,-203.91 1520.68,-197.22 1510.09,-197.33 1512.47,-203.91"/>
</a>
</g>
</g>
<!-- Node5 -->
<g id="Node000005" class="node">
<title>Node5</title>
<g id="a_Node000005"><a xlink:href="type_8hpp.xhtml" target="_top" xlink:title=" ">
<polygon fill="white" stroke="#666666" points="1390.17,-135.38 1338.17,-135.38 1338.17,-116.12 1390.17,-116.12 1390.17,-135.38"/>
<text text-anchor="middle" x="1364.17" y="-121.88" font-family="Helvetica,sans-Serif" font-size="10.00">type.hpp</text>
</a>
</g>
</g>
<!-- Node4&#45;&gt;Node5 -->
<g id="edge4_Node000004_Node000005" class="edge">
<title>Node4&#45;&gt;Node5</title>
<g id="a_edge4_Node000004_Node000005"><a xlink:title=" ">
<path fill="none" stroke="#63b8ff" d="M862.75,-179.69C952.16,-171.69 1114.64,-156.64 1253.17,-141 1277.6,-138.24 1305.01,-134.73 1326.47,-131.88"/>
<polygon fill="#63b8ff" stroke="#63b8ff" points="1326.78,-135.37 1336.23,-130.58 1325.85,-128.43 1326.78,-135.37"/>
</a>
</g>
</g>
<!-- Node7 -->
<g id="Node000007" class="node">
<title>Node7</title>
<g id="a_Node000007"><a xlink:title=" ">
<polygon fill="#e0e0e0" stroke="#999999" points="575.04,-19.25 519.29,-19.25 519.29,0 575.04,0 575.04,-19.25"/>
<text text-anchor="middle" x="547.17" y="-5.75" font-family="Helvetica,sans-Serif" font-size="10.00">concepts</text>
</a>
</g>
</g>
<!-- Node4&#45;&gt;Node7 -->
<g id="edge46_Node000004_Node000007" class="edge">
<title>Node4&#45;&gt;Node7</title>
<g id="a_edge46_Node000004_Node000007"><a xlink:title=" ">
<path fill="none" stroke="#63b8ff" d="M727.42,-183.96C550.85,-179.31 88.63,-164.88 66.17,-141 -25.27,-43.8 -62.2,-124.74 240.17,-55.25 334.94,-33.47 448.75,-20.21 507.59,-14.29"/>
<polygon fill="#63b8ff" stroke="#63b8ff" points="507.83,-17.79 517.44,-13.32 507.14,-10.82 507.83,-17.79"/>
</a>
</g>
</g>
<!-- Node9 -->
<g id="Node000009" class="node">
<title>Node9</title>
<g id="a_Node000009"><a xlink:title=" ">
<polygon fill="#e0e0e0" stroke="#999999" points="630.67,-19.25 593.67,-19.25 593.67,0 630.67,0 630.67,-19.25"/>
<text text-anchor="middle" x="612.17" y="-5.75" font-family="Helvetica,sans-Serif" font-size="10.00">tuple</text>
</a>
</g>
</g>
<!-- Node4&#45;&gt;Node9 -->
<g id="edge47_Node000004_Node000009" class="edge">
<title>Node4&#45;&gt;Node9</title>
<g id="a_edge47_Node000004_Node000009"><a xlink:title=" ">
<path fill="none" stroke="#63b8ff" d="M778.38,-176.54C763.82,-168.26 742.57,-155.19 726.17,-141 685.03,-105.42 645.11,-55.02 625.23,-28.52"/>
<polygon fill="#63b8ff" stroke="#63b8ff" points="628.29,-26.78 619.53,-20.83 622.67,-30.94 628.29,-26.78"/>
</a>
</g>
</g>
<!-- Node10 -->
<g id="Node000010" class="node">
<title>Node10</title>
<g id="a_Node000010"><a xlink:title=" ">
<polygon fill="#e0e0e0" stroke="#999999" points="1372.67,-19.25 1311.67,-19.25 1311.67,0 1372.67,0 1372.67,-19.25"/>
<text text-anchor="middle" x="1342.17" y="-5.75" font-family="Helvetica,sans-Serif" font-size="10.00">type_traits</text>
</a>
</g>
</g>
<!-- Node4&#45;&gt;Node10 -->
<g id="edge48_Node000004_Node000010" class="edge">
<title>Node4&#45;&gt;Node10</title>
<g id="a_edge48_Node000004_Node000010"><a xlink:title=" ">
<path fill="none" stroke="#63b8ff" d="M862.68,-185.69C1012.68,-185.12 1363.28,-179.64 1399.17,-141 1430.27,-107.52 1386.66,-54.35 1360.07,-27.43"/>
<polygon fill="#63b8ff" stroke="#63b8ff" points="1362.83,-25.23 1353.24,-20.73 1357.93,-30.23 1362.83,-25.23"/>
</a>
</g>
</g>
<!-- Node13 -->
<g id="Node000013" class="node">
<title>Node13</title>
<g id="a_Node000013"><a xlink:href="x__z__p__q__r_8hpp.xhtml" target="_top" xlink:title=" ">
<polygon fill="white" stroke="#666666" points="950.92,-135.38 873.42,-135.38 873.42,-116.12 950.92,-116.12 950.92,-135.38"/>
<text text-anchor="middle" x="912.17" y="-121.88" font-family="Helvetica,sans-Serif" font-size="10.00">x_z_p_q_r.hpp</text>
</a>
</g>
</g>
<!-- Node4&#45;&gt;Node13 -->
<g id="edge13_Node000004_Node000013" class="edge">
<title>Node4&#45;&gt;Node13</title>
<g id="a_edge13_Node000004_Node000013"><a xlink:title=" ">
<path fill="none" stroke="#63b8ff" d="M813.19,-176.55C832.14,-167.02 862.2,-151.89 884.23,-140.81"/>
<polygon fill="#63b8ff" stroke="#63b8ff" points="885.6,-144.04 892.96,-136.41 882.45,-137.78 885.6,-144.04"/>
</a>
</g>
</g>
<!-- Node14 -->
<g id="Node000014" class="node">
<title>Node14</title>
<g id="a_Node000014"><a xlink:href="x__z__p__q__r__h__f_8hpp.xhtml" target="_top" xlink:title=" ">
<polygon fill="white" stroke="#666666" points="1065.29,-135.38 969.04,-135.38 969.04,-116.12 1065.29,-116.12 1065.29,-135.38"/>
<text text-anchor="middle" x="1017.17" y="-121.88" font-family="Helvetica,sans-Serif" font-size="10.00">x_z_p_q_r_h_f.hpp</text>
</a>
</g>
</g>
<!-- Node4&#45;&gt;Node14 -->
<g id="edge15_Node000004_Node000014" class="edge">
<title>Node4&#45;&gt;Node14</title>
<g id="a_edge15_Node000004_Node000014"><a xlink:title=" ">
<path fill="none" stroke="#63b8ff" d="M829.37,-176.55C867.58,-166.42 929.62,-149.97 971.84,-138.77"/>
<polygon fill="#63b8ff" stroke="#63b8ff" points="972.69,-142.17 981.46,-136.22 970.9,-135.4 972.69,-142.17"/>
</a>
</g>
</g>
<!-- Node15 -->
<g id="Node000015" class="node">
<title>Node15</title>
<g id="a_Node000015"><a xlink:href="x__z__p__q__r__hh__f__us__ps_8hpp.xhtml" target="_top" xlink:title=" ">
<polygon fill="white" stroke="#666666" points="678.67,-135.38 545.67,-135.38 545.67,-116.12 678.67,-116.12 678.67,-135.38"/>
<text text-anchor="middle" x="612.17" y="-121.88" font-family="Helvetica,sans-Serif" font-size="10.00">x_z_p_q_r_hh_f_us_ps.hpp</text>
</a>
</g>
</g>
<!-- Node4&#45;&gt;Node15 -->
<g id="edge17_Node000004_Node000015" class="edge">
<title>Node4&#45;&gt;Node15</title>
<g id="a_edge17_Node000004_Node000015"><a xlink:title=" ">
<path fill="none" stroke="#63b8ff" d="M766.97,-176.55C735.94,-166.57 685.86,-150.46 651.1,-139.27"/>
<polygon fill="#63b8ff" stroke="#63b8ff" points="652.42,-136.02 641.83,-136.29 650.28,-142.69 652.42,-136.02"/>
</a>
</g>
</g>
<!-- Node18 -->
<g id="Node000018" class="node">
<title>Node18</title>
<g id="a_Node000018"><a xlink:href="x__z__p__q__r__hh__ff__ps_8hpp.xhtml" target="_top" xlink:title=" ">
<polygon fill="white" stroke="#666666" points="854.92,-135.38 735.42,-135.38 735.42,-116.12 854.92,-116.12 854.92,-135.38"/>
<text text-anchor="middle" x="795.17" y="-121.88" font-family="Helvetica,sans-Serif" font-size="10.00">x_z_p_q_r_hh_ff_ps.hpp</text>
</a>
</g>
</g>
<!-- Node4&#45;&gt;Node18 -->
<g id="edge22_Node000004_Node000018" class="edge">
<title>Node4&#45;&gt;Node18</title>
<g id="a_edge22_Node000004_Node000018"><a xlink:title=" ">
<path fill="none" stroke="#63b8ff" d="M795.17,-176.68C795.17,-168.9 795.17,-157.33 795.17,-147.28"/>
<polygon fill="#63b8ff" stroke="#63b8ff" points="798.67,-147.29 795.17,-137.29 791.67,-147.29 798.67,-147.29"/>
</a>
</g>
</g>
<!-- Node19 -->
<g id="Node000019" class="node">
<title>Node19</title>
<g id="a_Node000019"><a xlink:href="x__z__p__qq__rr__f_8hpp.xhtml" target="_top" xlink:title=" ">
<polygon fill="white" stroke="#666666" points="169.17,-135.38 75.17,-135.38 75.17,-116.12 169.17,-116.12 169.17,-135.38"/>
<text text-anchor="middle" x="122.17" y="-121.88" font-family="Helvetica,sans-Serif" font-size="10.00">x_z_p_qq_rr_f.hpp</text>
</a>
</g>
</g>
<!-- Node4&#45;&gt;Node19 -->
<g id="edge26_Node000004_Node000019" class="edge">
<title>Node4&#45;&gt;Node19</title>
<g id="a_edge26_Node000004_Node000019"><a xlink:title=" ">
<path fill="none" stroke="#63b8ff" d="M727.61,-184.64C613.62,-182.11 376.15,-173.09 178.17,-141 173.83,-140.3 169.35,-139.42 164.88,-138.45"/>
<polygon fill="#63b8ff" stroke="#63b8ff" points="165.95,-135.1 155.42,-136.22 164.35,-141.92 165.95,-135.1"/>
</a>
</g>
</g>
<!-- Node20 -->
<g id="Node000020" class="node">
<title>Node20</title>
<g id="a_Node000020"><a xlink:href="x__z__p__r_8hpp.xhtml" target="_top" xlink:title=" ">
<polygon fill="white" stroke="#666666" points="1150.67,-135.38 1083.67,-135.38 1083.67,-116.12 1150.67,-116.12 1150.67,-135.38"/>
<text text-anchor="middle" x="1117.17" y="-121.88" font-family="Helvetica,sans-Serif" font-size="10.00">x_z_p_r.hpp</text>
</a>
</g>
</g>
<!-- Node4&#45;&gt;Node20 -->
<g id="edge30_Node000004_Node000020" class="edge">
<title>Node4&#45;&gt;Node20</title>
<g id="a_edge30_Node000004_Node000020"><a xlink:title=" ">
<path fill="none" stroke="#63b8ff" d="M862.86,-177.91C919.74,-170.68 1002.92,-158.38 1074.17,-141 1076.59,-140.41 1079.07,-139.75 1081.56,-139.04"/>
<polygon fill="#63b8ff" stroke="#63b8ff" points="1082.37,-142.45 1090.91,-136.17 1080.32,-135.76 1082.37,-142.45"/>
</a>
</g>
</g>
<!-- Node21 -->
<g id="Node000021" class="node">
<title>Node21</title>
<g id="a_Node000021"><a xlink:href="x__z__p__r__f_8hpp.xhtml" target="_top" xlink:title=" ">
<polygon fill="white" stroke="#666666" points="1243.79,-135.38 1168.54,-135.38 1168.54,-116.12 1243.79,-116.12 1243.79,-135.38"/>
<text text-anchor="middle" x="1206.17" y="-121.88" font-family="Helvetica,sans-Serif" font-size="10.00">x_z_p_r_f.hpp</text>
</a>
</g>
</g>
<!-- Node4&#45;&gt;Node21 -->
<g id="edge32_Node000004_Node000021" class="edge">
<title>Node4&#45;&gt;Node21</title>
<g id="a_edge32_Node000004_Node000021"><a xlink:title=" ">
<path fill="none" stroke="#63b8ff" d="M862.7,-181C936.42,-175.11 1057.64,-162.96 1160.17,-141 1162.96,-140.4 1165.82,-139.71 1168.69,-138.96"/>
<polygon fill="#63b8ff" stroke="#63b8ff" points="1169.5,-142.37 1178.17,-136.27 1167.59,-135.63 1169.5,-142.37"/>
</a>
</g>
</g>
<!-- Node22 -->
<g id="Node000022" class="node">
<title>Node22</title>
<g id="a_Node000022"><a xlink:href="x__z__u__p__q__r_8hpp.xhtml" target="_top" xlink:title=" ">
<polygon fill="white" stroke="#666666" points="275.17,-135.38 187.17,-135.38 187.17,-116.12 275.17,-116.12 275.17,-135.38"/>
<text text-anchor="middle" x="231.17" y="-121.88" font-family="Helvetica,sans-Serif" font-size="10.00">x_z_u_p_q_r.hpp</text>
</a>
</g>
</g>
<!-- Node4&#45;&gt;Node22 -->
<g id="edge34_Node000004_Node000022" class="edge">
<title>Node4&#45;&gt;Node22</title>
<g id="a_edge34_Node000004_Node000022"><a xlink:title=" ">
<path fill="none" stroke="#63b8ff" d="M727.71,-183.5C629.47,-179.56 441.58,-168.81 284.17,-141 280.3,-140.32 276.3,-139.48 272.31,-138.57"/>
<polygon fill="#63b8ff" stroke="#63b8ff" points="273.25,-135.19 262.7,-136.18 271.56,-141.99 273.25,-135.19"/>
</a>
</g>
</g>
<!-- Node23 -->
<g id="Node000023" class="node">
<title>Node23</title>
<g id="a_Node000023"><a xlink:href="x__z__u__p__q__r__h__f__g__us__ps_8hpp.xhtml" target="_top" xlink:title=" ">
<polygon fill="white" stroke="#666666" points="408.67,-141 293.67,-141 293.67,-110.5 408.67,-110.5 408.67,-141"/>
<text text-anchor="start" x="301.67" y="-127.5" font-family="Helvetica,sans-Serif" font-size="10.00">x_z_u_p_q_r_h_f_g_us</text>
<text text-anchor="middle" x="351.17" y="-116.25" font-family="Helvetica,sans-Serif" font-size="10.00">_ps.hpp</text>
</a>
</g>
</g>
<!-- Node4&#45;&gt;Node23 -->
<g id="edge38_Node000004_Node000023" class="edge">
<title>Node4&#45;&gt;Node23</title>
<g id="a_edge38_Node000004_Node000023"><a xlink:title=" ">
<path fill="none" stroke="#63b8ff" d="M727.64,-179.61C654.25,-172.63 533.31,-159.86 420.31,-141.43"/>
<polygon fill="#63b8ff" stroke="#63b8ff" points="420.98,-138 410.55,-139.82 419.84,-144.9 420.98,-138"/>
</a>
</g>
</g>
<!-- Node24 -->
<g id="Node000024" class="node">
<title>Node24</title>
<g id="a_Node000024"><a xlink:href="x__z__u__p__qq__r__ff__gg__ps_8hpp.xhtml" target="_top" xlink:title=" ">
<polygon fill="white" stroke="#666666" points="527.92,-141 426.42,-141 426.42,-110.5 527.92,-110.5 527.92,-141"/>
<text text-anchor="start" x="434.42" y="-127.5" font-family="Helvetica,sans-Serif" font-size="10.00">x_z_u_p_qq_r_ff_gg</text>
<text text-anchor="middle" x="477.17" y="-116.25" font-family="Helvetica,sans-Serif" font-size="10.00">_ps.hpp</text>
</a>
</g>
</g>
<!-- Node4&#45;&gt;Node24 -->
<g id="edge42_Node000004_Node000024" class="edge">
<title>Node4&#45;&gt;Node24</title>
<g id="a_edge42_Node000004_Node000024"><a xlink:title=" ">
<path fill="none" stroke="#63b8ff" d="M735.55,-176.51C685.49,-168.59 611.82,-156.33 539.42,-141.6"/>
<polygon fill="#63b8ff" stroke="#63b8ff" points="540.27,-138.2 529.77,-139.62 538.86,-145.06 540.27,-138.2"/>
</a>
</g>
</g>
<!-- Node5&#45;&gt;Node6 -->
<g id="edge5_Node000005_Node000006" class="edge">
<title>Node5&#45;&gt;Node6</title>
<g id="a_edge5_Node000005_Node000006"><a xlink:title=" ">
<path fill="none" stroke="#63b8ff" d="M1341.14,-115.67C1335.64,-113.75 1329.75,-111.89 1324.17,-110.5 1230.03,-87.13 1116.41,-74.56 1057.3,-69.16"/>
<polygon fill="#63b8ff" stroke="#63b8ff" points="1057.67,-65.67 1047.4,-68.27 1057.05,-72.65 1057.67,-65.67"/>
</a>
</g>
</g>
<!-- Node5&#45;&gt;Node10 -->
<g id="edge12_Node000005_Node000010" class="edge">
<title>Node5&#45;&gt;Node10</title>
<g id="a_edge12_Node000005_Node000010"><a xlink:title=" ">
<path fill="none" stroke="#63b8ff" d="M1362.44,-115.79C1358.92,-97.54 1350.85,-55.66 1346.02,-30.6"/>
<polygon fill="#63b8ff" stroke="#63b8ff" points="1349.5,-30.18 1344.17,-21.02 1342.63,-31.51 1349.5,-30.18"/>
</a>
</g>
</g>
<!-- Node12 -->
<g id="Node000012" class="node">
<title>Node12</title>
<g id="a_Node000012"><a xlink:title=" ">
<polygon fill="#e0e0e0" stroke="#999999" points="1313.92,-74.5 1242.42,-74.5 1242.42,-55.25 1313.92,-55.25 1313.92,-74.5"/>
<text text-anchor="middle" x="1278.17" y="-61" font-family="Helvetica,sans-Serif" font-size="10.00">initializer_list</text>
</a>
</g>
</g>
<!-- Node5&#45;&gt;Node12 -->
<g id="edge11_Node000005_Node000012" class="edge">
<title>Node5&#45;&gt;Node12</title>
<g id="a_edge11_Node000005_Node000012"><a xlink:title=" ">
<path fill="none" stroke="#63b8ff" d="M1351.1,-115.81C1337.72,-106.64 1316.65,-92.22 1300.59,-81.23"/>
<polygon fill="#63b8ff" stroke="#63b8ff" points="1302.83,-78.52 1292.6,-75.76 1298.87,-84.29 1302.83,-78.52"/>
</a>
</g>
</g>
<!-- Node6&#45;&gt;Node7 -->
<g id="edge6_Node000006_Node000007" class="edge">
<title>Node6&#45;&gt;Node7</title>
<g id="a_edge6_Node000006_Node000007"><a xlink:title=" ">
<path fill="none" stroke="#63b8ff" d="M988.63,-62.19C920.72,-57.9 744.02,-45.19 586.67,-19.46"/>
<polygon fill="#63b8ff" stroke="#63b8ff" points="587.31,-16.02 576.87,-17.84 586.16,-22.93 587.31,-16.02"/>
</a>
</g>
</g>
<!-- Node8 -->
<g id="Node000008" class="node">
<title>Node8</title>
<g id="a_Node000008"><a xlink:title=" ">
<polygon fill="#e0e0e0" stroke="#999999" points="1490.29,-19.25 1442.04,-19.25 1442.04,0 1490.29,0 1490.29,-19.25"/>
<text text-anchor="middle" x="1466.17" y="-5.75" font-family="Helvetica,sans-Serif" font-size="10.00">cstddef</text>
</a>
</g>
</g>
<!-- Node6&#45;&gt;Node8 -->
<g id="edge7_Node000006_Node000008" class="edge">
<title>Node6&#45;&gt;Node8</title>
<g id="a_edge7_Node000006_Node000008"><a xlink:title=" ">
<path fill="none" stroke="#63b8ff" d="M1045.59,-60.5C1124.12,-51.19 1343.9,-25.13 1430.47,-14.86"/>
<polygon fill="#63b8ff" stroke="#63b8ff" points="1430.76,-18.35 1440.27,-13.7 1429.93,-11.4 1430.76,-18.35"/>
</a>
</g>
</g>
<!-- Node6&#45;&gt;Node9 -->
<g id="edge8_Node000006_Node000009" class="edge">
<title>Node6&#45;&gt;Node9</title>
<g id="a_edge8_Node000006_Node000009"><a xlink:title=" ">
<path fill="none" stroke="#63b8ff" d="M988.69,-60.13C914.68,-50.4 716.86,-24.39 641.7,-14.51"/>
<polygon fill="#63b8ff" stroke="#63b8ff" points="642.6,-11.1 632.22,-13.26 641.68,-18.04 642.6,-11.1"/>
</a>
</g>
</g>
<!-- Node6&#45;&gt;Node10 -->
<g id="edge9_Node000006_Node000010" class="edge">
<title>Node6&#45;&gt;Node10</title>
<g id="a_edge9_Node000006_Node000010"><a xlink:title=" ">
<path fill="none" stroke="#63b8ff" d="M1045.72,-59.2C1103.27,-49.77 1233.38,-28.45 1300.45,-17.46"/>
<polygon fill="#63b8ff" stroke="#63b8ff" points="1300.64,-20.98 1309.94,-15.91 1299.51,-14.07 1300.64,-20.98"/>
</a>
</g>
</g>
<!-- Node11 -->
<g id="Node000011" class="node">
<title>Node11</title>
<g id="a_Node000011"><a xlink:title=" ">
<polygon fill="#e0e0e0" stroke="#999999" points="1586.42,-19.25 1547.92,-19.25 1547.92,0 1586.42,0 1586.42,-19.25"/>
<text text-anchor="middle" x="1567.17" y="-5.75" font-family="Helvetica,sans-Serif" font-size="10.00">utility</text>
</a>
</g>
</g>
<!-- Node6&#45;&gt;Node11 -->
<g id="edge10_Node000006_Node000011" class="edge">
<title>Node6&#45;&gt;Node11</title>
<g id="a_edge10_Node000006_Node000011"><a xlink:title=" ">
<path fill="none" stroke="#63b8ff" d="M1045.72,-61.57C1120.34,-55.48 1327.29,-38.1 1499.17,-19.25 1511.28,-17.92 1524.59,-16.28 1536.19,-14.78"/>
<polygon fill="#63b8ff" stroke="#63b8ff" points="1536.59,-18.26 1546.05,-13.49 1535.68,-11.32 1536.59,-18.26"/>
</a>
</g>
</g>
<!-- Node13&#45;&gt;Node6 -->
<g id="edge14_Node000013_Node000006" class="edge">
<title>Node13&#45;&gt;Node6</title>
<g id="a_edge14_Node000013_Node000006"><a xlink:title=" ">
<path fill="none" stroke="#63b8ff" d="M928.11,-115.81C944.84,-106.43 971.4,-91.54 991.17,-80.45"/>
<polygon fill="#63b8ff" stroke="#63b8ff" points="992.74,-83.58 999.75,-75.64 989.31,-77.48 992.74,-83.58"/>
</a>
</g>
</g>
<!-- Node14&#45;&gt;Node6 -->
<g id="edge16_Node000014_Node000006" class="edge">
<title>Node14&#45;&gt;Node6</title>
<g id="a_edge16_Node000014_Node000006"><a xlink:title=" ">
<path fill="none" stroke="#63b8ff" d="M1017.17,-115.81C1017.17,-108.03 1017.17,-96.45 1017.17,-86.41"/>
<polygon fill="#63b8ff" stroke="#63b8ff" points="1020.67,-86.41 1017.17,-76.41 1013.67,-86.41 1020.67,-86.41"/>
</a>
</g>
</g>
<!-- Node15&#45;&gt;Node6 -->
<g id="edge20_Node000015_Node000006" class="edge">
<title>Node15&#45;&gt;Node6</title>
<g id="a_edge20_Node000015_Node000006"><a xlink:title=" ">
<path fill="none" stroke="#63b8ff" d="M674.56,-115.68C759.05,-103.4 907.38,-81.83 977.85,-71.59"/>
<polygon fill="#63b8ff" stroke="#63b8ff" points="977.98,-75.11 987.37,-70.21 976.97,-68.18 977.98,-75.11"/>
</a>
</g>
</g>
<!-- Node15&#45;&gt;Node9 -->
<g id="edge21_Node000015_Node000009" class="edge">
<title>Node15&#45;&gt;Node9</title>
<g id="a_edge21_Node000015_Node000009"><a xlink:title=" ">
<path fill="none" stroke="#63b8ff" d="M612.17,-115.79C612.17,-97.63 612.17,-56.04 612.17,-30.95"/>
<polygon fill="#63b8ff" stroke="#63b8ff" points="615.67,-31.05 612.17,-21.05 608.67,-31.05 615.67,-31.05"/>
</a>
</g>
</g>
<!-- Node16 -->
<g id="Node000016" class="node">
<title>Node16</title>
<g id="a_Node000016"><a xlink:href="function_8hpp.xhtml" target="_top" xlink:title=" ">
<polygon fill="white" stroke="#666666" points="429.42,-74.5 360.92,-74.5 360.92,-55.25 429.42,-55.25 429.42,-74.5"/>
<text text-anchor="middle" x="395.17" y="-61" font-family="Helvetica,sans-Serif" font-size="10.00">function.hpp</text>
</a>
</g>
</g>
<!-- Node15&#45;&gt;Node16 -->
<g id="edge18_Node000015_Node000016" class="edge">
<title>Node15&#45;&gt;Node16</title>
<g id="a_edge18_Node000015_Node000016"><a xlink:title=" ">
<path fill="none" stroke="#63b8ff" d="M578.74,-115.68C541.46,-105.57 481,-89.16 439.73,-77.97"/>
<polygon fill="#63b8ff" stroke="#63b8ff" points="440.66,-74.59 430.1,-75.35 438.83,-81.35 440.66,-74.59"/>
</a>
</g>
</g>
<!-- Node17 -->
<g id="Node000017" class="node">
<title>Node17</title>
<g id="a_Node000017"><a xlink:title=" ">
<polygon fill="#e0e0e0" stroke="#999999" points="420.42,-19.25 369.92,-19.25 369.92,0 420.42,0 420.42,-19.25"/>
<text text-anchor="middle" x="395.17" y="-5.75" font-family="Helvetica,sans-Serif" font-size="10.00">memory</text>
</a>
</g>
</g>
<!-- Node16&#45;&gt;Node17 -->
<g id="edge19_Node000016_Node000017" class="edge">
<title>Node16&#45;&gt;Node17</title>
<g id="a_edge19_Node000016_Node000017"><a xlink:title=" ">
<path fill="none" stroke="#63b8ff" d="M395.17,-55.08C395.17,-48.57 395.17,-39.42 395.17,-31.12"/>
<polygon fill="#63b8ff" stroke="#63b8ff" points="398.67,-31.12 395.17,-21.12 391.67,-31.12 398.67,-31.12"/>
</a>
</g>
</g>
<!-- Node18&#45;&gt;Node6 -->
<g id="edge24_Node000018_Node000006" class="edge">
<title>Node18&#45;&gt;Node6</title>
<g id="a_edge24_Node000018_Node000006"><a xlink:title=" ">
<path fill="none" stroke="#63b8ff" d="M829.37,-115.68C869.36,-105.07 935.45,-87.55 977.62,-76.36"/>
<polygon fill="#63b8ff" stroke="#63b8ff" points="978.34,-79.79 987.11,-73.85 976.55,-73.03 978.34,-79.79"/>
</a>
</g>
</g>
<!-- Node18&#45;&gt;Node9 -->
<g id="edge25_Node000018_Node000009" class="edge">
<title>Node18&#45;&gt;Node9</title>
<g id="a_edge25_Node000018_Node000009"><a xlink:title=" ">
<path fill="none" stroke="#63b8ff" d="M787.78,-115.98C775.31,-101.63 748.74,-72.98 721.17,-55.25 696.15,-39.17 664.38,-26.96 641.6,-19.41"/>
<polygon fill="#63b8ff" stroke="#63b8ff" points="642.94,-16.16 632.35,-16.45 640.8,-22.83 642.94,-16.16"/>
</a>
</g>
</g>
<!-- Node18&#45;&gt;Node16 -->
<g id="edge23_Node000018_Node000016" class="edge">
<title>Node18&#45;&gt;Node16</title>
<g id="a_edge23_Node000018_Node000016"><a xlink:title=" ">
<path fill="none" stroke="#63b8ff" d="M735.28,-115.94C654.7,-104.08 513.15,-83.24 440.7,-72.58"/>
<polygon fill="#63b8ff" stroke="#63b8ff" points="441.58,-69.17 431.18,-71.18 440.56,-76.09 441.58,-69.17"/>
</a>
</g>
</g>
<!-- Node19&#45;&gt;Node6 -->
<g id="edge28_Node000019_Node000006" class="edge">
<title>Node19&#45;&gt;Node6</title>
<g id="a_edge28_Node000019_Node000006"><a xlink:title=" ">
<path fill="none" stroke="#63b8ff" d="M153.34,-115.67C161.37,-113.65 170.03,-111.74 178.17,-110.5 483.09,-64.05 856.72,-63.89 977.5,-65.24"/>
<polygon fill="#63b8ff" stroke="#63b8ff" points="977.16,-68.74 987.2,-65.36 977.24,-61.74 977.16,-68.74"/>
</a>
</g>
</g>
<!-- Node19&#45;&gt;Node9 -->
<g id="edge29_Node000019_Node000009" class="edge">
<title>Node19&#45;&gt;Node9</title>
<g id="a_edge29_Node000019_Node000009"><a xlink:title=" ">
<path fill="none" stroke="#63b8ff" d="M141.56,-115.7C174.59,-100.68 244.22,-70.74 306.17,-55.25 423.61,-25.89 460.34,-44.56 582.41,-19.24"/>
<polygon fill="#63b8ff" stroke="#63b8ff" points="582.78,-22.74 591.82,-17.23 581.31,-15.9 582.78,-22.74"/>
</a>
</g>
</g>
<!-- Node19&#45;&gt;Node16 -->
<g id="edge27_Node000019_Node000016" class="edge">
<title>Node19&#45;&gt;Node16</title>
<g id="a_edge27_Node000019_Node000016"><a xlink:title=" ">
<path fill="none" stroke="#63b8ff" d="M156.76,-115.68C163.83,-113.9 171.22,-112.1 178.17,-110.5 237.01,-96.97 305.28,-83.26 349.29,-74.67"/>
<polygon fill="#63b8ff" stroke="#63b8ff" points="349.85,-78.13 359,-72.78 348.51,-71.25 349.85,-78.13"/>
</a>
</g>
</g>
<!-- Node20&#45;&gt;Node6 -->
<g id="edge31_Node000020_Node000006" class="edge">
<title>Node20&#45;&gt;Node6</title>
<g id="a_edge31_Node000020_Node000006"><a xlink:title=" ">
<path fill="none" stroke="#63b8ff" d="M1101.98,-115.81C1086.12,-106.47 1060.99,-91.67 1042.19,-80.61"/>
<polygon fill="#63b8ff" stroke="#63b8ff" points="1044.19,-77.73 1033.8,-75.67 1040.64,-83.76 1044.19,-77.73"/>
</a>
</g>
</g>
<!-- Node21&#45;&gt;Node6 -->
<g id="edge33_Node000021_Node000006" class="edge">
<title>Node21&#45;&gt;Node6</title>
<g id="a_edge33_Node000021_Node000006"><a xlink:title=" ">
<path fill="none" stroke="#63b8ff" d="M1177.05,-115.68C1144.67,-105.59 1092.22,-89.25 1056.28,-78.06"/>
<polygon fill="#63b8ff" stroke="#63b8ff" points="1057.73,-74.85 1047.14,-75.21 1055.65,-81.53 1057.73,-74.85"/>
</a>
</g>
</g>
<!-- Node22&#45;&gt;Node6 -->
<g id="edge36_Node000022_Node000006" class="edge">
<title>Node22&#45;&gt;Node6</title>
<g id="a_edge36_Node000022_Node000006"><a xlink:title=" ">
<path fill="none" stroke="#63b8ff" d="M260.65,-115.69C268.25,-113.67 276.46,-111.76 284.17,-110.5 546.1,-67.76 866.72,-65.02 977.39,-65.49"/>
<polygon fill="#63b8ff" stroke="#63b8ff" points="977.1,-68.99 987.12,-65.54 977.14,-61.99 977.1,-68.99"/>
</a>
</g>
</g>
<!-- Node22&#45;&gt;Node9 -->
<g id="edge37_Node000022_Node000009" class="edge">
<title>Node22&#45;&gt;Node9</title>
<g id="a_edge37_Node000022_Node000009"><a xlink:title=" ">
<path fill="none" stroke="#63b8ff" d="M243.15,-115.84C264.08,-100.75 309.19,-70.34 352.17,-55.25 447.25,-21.86 480.23,-41.23 582.2,-19.33"/>
<polygon fill="#63b8ff" stroke="#63b8ff" points="582.82,-22.78 591.81,-17.18 581.29,-15.95 582.82,-22.78"/>
</a>
</g>
</g>
<!-- Node22&#45;&gt;Node16 -->
<g id="edge35_Node000022_Node000016" class="edge">
<title>Node22&#45;&gt;Node16</title>
<g id="a_edge35_Node000022_Node000016"><a xlink:title=" ">
<path fill="none" stroke="#63b8ff" d="M256.43,-115.68C283.88,-105.83 327.96,-90 359.06,-78.84"/>
<polygon fill="#63b8ff" stroke="#63b8ff" points="360.22,-82.14 368.45,-75.47 357.85,-75.55 360.22,-82.14"/>
</a>
</g>
</g>
<!-- Node23&#45;&gt;Node6 -->
<g id="edge40_Node000023_Node000006" class="edge">
<title>Node23&#45;&gt;Node6</title>
<g id="a_edge40_Node000023_Node000006"><a xlink:title=" ">
<path fill="none" stroke="#63b8ff" d="M409.03,-111.78C411.78,-111.32 414.5,-110.89 417.17,-110.5 626.82,-80.22 880.82,-69.91 977.35,-66.93"/>
<polygon fill="#63b8ff" stroke="#63b8ff" points="977.19,-70.44 987.08,-66.64 976.98,-63.44 977.19,-70.44"/>
</a>
</g>
</g>
<!-- Node23&#45;&gt;Node9 -->
<g id="edge41_Node000023_Node000009" class="edge">
<title>Node23&#45;&gt;Node9</title>
<g id="a_edge41_Node000023_Node000009"><a xlink:title=" ">
<path fill="none" stroke="#63b8ff" d="M384.75,-110.06C436.23,-87.56 533.79,-44.9 582.68,-23.52"/>
<polygon fill="#63b8ff" stroke="#63b8ff" points="584.03,-26.75 591.79,-19.53 581.23,-20.33 584.03,-26.75"/>
</a>
</g>
</g>
<!-- Node23&#45;&gt;Node16 -->
<g id="edge39_Node000023_Node000016" class="edge">
<title>Node23&#45;&gt;Node16</title>
<g id="a_edge39_Node000023_Node000016"><a xlink:title=" ">
<path fill="none" stroke="#63b8ff" d="M362.04,-110.2C367.97,-102.27 375.36,-92.38 381.65,-83.96"/>
<polygon fill="#63b8ff" stroke="#63b8ff" points="384.29,-86.27 387.48,-76.16 378.69,-82.08 384.29,-86.27"/>
</a>
</g>
</g>
<!-- Node24&#45;&gt;Node6 -->
<g id="edge44_Node000024_Node000006" class="edge">
<title>Node24&#45;&gt;Node6</title>
<g id="a_edge44_Node000024_Node000006"><a xlink:title=" ">
<path fill="none" stroke="#63b8ff" d="M528.24,-111.94C530.91,-111.42 533.57,-110.93 536.17,-110.5 698.4,-83.53 894.34,-71.69 977.14,-67.63"/>
<polygon fill="#63b8ff" stroke="#63b8ff" points="977.19,-71.13 987.01,-67.16 976.85,-64.14 977.19,-71.13"/>
</a>
</g>
</g>
<!-- Node24&#45;&gt;Node9 -->
<g id="edge45_Node000024_Node000009" class="edge">
<title>Node24&#45;&gt;Node9</title>
<g id="a_edge45_Node000024_Node000009"><a xlink:title=" ">
<path fill="none" stroke="#63b8ff" d="M494.54,-110.06C519.78,-88.72 566.45,-49.27 592.78,-27.01"/>
<polygon fill="#63b8ff" stroke="#63b8ff" points="594.95,-29.76 600.33,-20.63 590.43,-24.42 594.95,-29.76"/>
</a>
</g>
</g>
<!-- Node24&#45;&gt;Node16 -->
<g id="edge43_Node000024_Node000016" class="edge">
<title>Node24&#45;&gt;Node16</title>
<g id="a_edge43_Node000024_Node000016"><a xlink:title=" ">
<path fill="none" stroke="#63b8ff" d="M456.9,-110.2C444.77,-101.49 429.36,-90.43 416.98,-81.53"/>
<polygon fill="#63b8ff" stroke="#63b8ff" points="419.2,-78.82 409.04,-75.83 415.12,-84.51 419.2,-78.82"/>
</a>
</g>
</g>
<!-- Node25&#45;&gt;Node6 -->
<g id="edge50_Node000025_Node000006" class="edge">
<title>Node25&#45;&gt;Node6</title>
<g id="a_edge50_Node000025_Node000006"><a xlink:title=" ">
<path fill="none" stroke="#63b8ff" d="M1446.27,-116.3C1430.8,-114.37 1414.41,-112.34 1399.17,-110.5 1274.15,-95.39 1126.02,-78.32 1056.67,-70.38"/>
<polygon fill="#63b8ff" stroke="#63b8ff" points="1057.29,-66.93 1046.95,-69.27 1056.49,-73.89 1057.29,-66.93"/>
</a>
</g>
</g>
<!-- Node25&#45;&gt;Node8 -->
<g id="edge51_Node000025_Node000008" class="edge">
<title>Node25&#45;&gt;Node8</title>
<g id="a_edge51_Node000025_Node000008"><a xlink:title=" ">
<path fill="none" stroke="#63b8ff" d="M1512.61,-115.82C1511.5,-102.21 1508.25,-75.72 1499.17,-55.25 1494.88,-45.59 1488.21,-36.02 1481.98,-28.23"/>
<polygon fill="#63b8ff" stroke="#63b8ff" points="1484.66,-25.97 1475.52,-20.6 1479.31,-30.49 1484.66,-25.97"/>
</a>
</g>
</g>
<!-- Node25&#45;&gt;Node9 -->
<g id="edge53_Node000025_Node000009" class="edge">
<title>Node25&#45;&gt;Node9</title>
<g id="a_edge53_Node000025_Node000009"><a xlink:title=" ">
<path fill="none" stroke="#63b8ff" d="M1494.02,-115.64C1460.35,-100.1 1387.97,-68.84 1323.17,-55.25 1189.89,-27.31 759.82,-14.42 642.16,-11.36"/>
<polygon fill="#63b8ff" stroke="#63b8ff" points="642.47,-7.87 632.38,-11.11 642.29,-14.86 642.47,-7.87"/>
</a>
</g>
</g>
<!-- Node26 -->
<g id="Node000026" class="node">
<title>Node26</title>
<g id="a_Node000026"><a xlink:title=" ">
<polygon fill="#e0e0e0" stroke="#999999" points="1490.04,-74.5 1446.29,-74.5 1446.29,-55.25 1490.04,-55.25 1490.04,-74.5"/>
<text text-anchor="middle" x="1468.17" y="-61" font-family="Helvetica,sans-Serif" font-size="10.00">format</text>
</a>
</g>
</g>
<!-- Node25&#45;&gt;Node26 -->
<g id="edge52_Node000025_Node000026" class="edge">
<title>Node25&#45;&gt;Node26</title>
<g id="a_edge52_Node000025_Node000026"><a xlink:title=" ">
<path fill="none" stroke="#63b8ff" d="M1506.33,-115.81C1499.86,-107.34 1489.94,-94.37 1481.84,-83.77"/>
<polygon fill="#63b8ff" stroke="#63b8ff" points="1484.84,-81.92 1475.98,-76.1 1479.28,-86.17 1484.84,-81.92"/>
</a>
</g>
</g>
<!-- Node27&#45;&gt;Node6 -->
<g id="edge55_Node000027_Node000006" class="edge">
<title>Node27&#45;&gt;Node6</title>
<g id="a_edge55_Node000027_Node000006"><a xlink:title=" ">
<path fill="none" stroke="#63b8ff" d="M1385.33,-176.63C1370.86,-167.78 1348.29,-153.78 1329.17,-141 1309.68,-127.98 1307.83,-119.42 1286.17,-110.5 1209.25,-78.82 1111.19,-69.61 1057.25,-66.94"/>
<polygon fill="#63b8ff" stroke="#63b8ff" points="1057.45,-63.45 1047.31,-66.51 1057.15,-70.44 1057.45,-63.45"/>
</a>
</g>
</g>
<!-- Node27&#45;&gt;Node11 -->
<g id="edge57_Node000027_Node000011" class="edge">
<title>Node27&#45;&gt;Node11</title>
<g id="a_edge57_Node000027_Node000011"><a xlink:title=" ">
<path fill="none" stroke="#63b8ff" d="M1453.5,-176.5C1506.35,-166.92 1580.64,-151.77 1589.17,-141 1614.83,-108.57 1593.47,-57.21 1578.57,-29.63"/>
<polygon fill="#63b8ff" stroke="#63b8ff" points="1581.65,-27.97 1573.66,-21.01 1575.57,-31.43 1581.65,-27.97"/>
</a>
</g>
</g>
<!-- Node27&#45;&gt;Node28 -->
<g id="edge56_Node000027_Node000028" class="edge">
<title>Node27&#45;&gt;Node28</title>
<g id="a_edge56_Node000027_Node000028"><a xlink:title=" ">
<path fill="none" stroke="#63b8ff" d="M1447.77,-176.55C1512.63,-164.2 1626.81,-142.44 1680.16,-132.28"/>
<polygon fill="#63b8ff" stroke="#63b8ff" points="1680.81,-135.72 1689.98,-130.41 1679.5,-128.84 1680.81,-135.72"/>
</a>
</g>
</g>
</g>
</svg>

<g id="navigator" transform="translate(0 0)" fill="#404254">
  <rect fill="#f2f5e9" fill-opacity="0.5" stroke="#606060" stroke-width=".5" x="0" y="0" width="60" height="60"/>
  <use id="zoomplus" xlink:href="#zoomPlus" x="17" y="9" onmousedown="handleZoom(evt,'in')"/>
  <use id="zoomminus" xlink:href="#zoomMin" x="42" y="9" onmousedown="handleZoom(evt,'out')"/>
  <use id="reset" xlink:href="#resetDef" x="30" y="36" onmousedown="handleReset()"/>
   <use id="arrowup" xlink:href="#arrowUp" x="0" y="0" onmousedown="handlePan(0,-1)"/>
  <use id="arrowright" xlink:href="#arrowRight" x="0" y="0" onmousedown="handlePan(1,0)"/>
  <use id="arrowdown" xlink:href="#arrowDown" x="0" y="0" onmousedown="handlePan(0,1)"/>
  <use id="arrowleft" xlink:href="#arrowLeft" x="0" y="0" onmousedown="handlePan(-1,0)"/>
</g>
<svg viewBox="0 0 15 15" width="100%" height="30px" preserveAspectRatio="xMaxYMin meet">
 <g id="arrow_out" transform="scale(0.3 0.3)">
  <a xlink:href="kalman__println__1x1x0_8cpp__incl_org.svg" target="_base">
   <rect id="button" ry="5" rx="5" y="6" x="6" height="38" width="38"
        fill="#f2f5e9" fill-opacity="0.5" stroke="#606060" stroke-width="1.0"/>
   <path id="arrow"
     d="M 11.500037,31.436501 C 11.940474,20.09759 22.043105,11.32322 32.158766,21.979434 L 37.068811,17.246167 C 37.068811,17.246167 37.088388,32 37.088388,32 L 22.160133,31.978069 C 22.160133,31.978069 26.997745,27.140456 26.997745,27.140456 C 18.528582,18.264221 13.291696,25.230495 11.500037,31.436501 z"
     style="fill:#404040;"/>
  </a>
 </g>
</svg>

<style type='text/css'>
<![CDATA[
[data-mouse-over-selected='false'] { opacity: 0.7; }
[data-mouse-over-selected='true']  { opacity: 1.0; }
]]>
</style>
<script type="application/ecmascript"><![CDATA[
document.addEventListener('DOMContentLoaded', (event) => {
  highlightEdges();
  highlightAdjacentNodes();
});
]]></script>
</svg>
