<?xml version="1.0" encoding="UTF-8" standalone="no"?>
<!DOCTYPE svg PUBLIC "-//W3C//DTD SVG 1.1//EN"
 "http://www.w3.org/Graphics/SVG/1.1/DTD/svg11.dtd">
<!-- Generated by graphviz version 9.0.0 (20230911.1827)
 -->
<!-- Title: /github/workspace/test/kalman_constructor_default_5x4x3.cpp Pages: 1 -->
<!--zoomable 393 -->

<svg id="main" version="1.1" xmlns="http://www.w3.org/2000/svg" xmlns:xlink="http://www.w3.org/1999/xlink" xml:space="preserve" onload="init(evt)">
<style type="text/css"><![CDATA[
.node, .edge {opacity: 0.7;}
.node.selected, .edge.selected {opacity: 1;}
.edge:hover path { stroke: red; }
.edge:hover polygon { stroke: red; fill: red; }
]]></style>

<defs>
  <circle id="rim" cx="0" cy="0" r="7"/>
  <circle id="rim2" cx="0" cy="0" r="3.5"/>
  <g id="zoomPlus">
    <use xlink:href="#rim" fill="#404040"><set attributeName="fill" to="#808080" begin="zoomplus.mouseover" end="zoomplus.mouseout"/></use>
    <path d="M-4,0h8M0,-4v8" fill="none" stroke="white" stroke-width="1.5" pointer-events="none"/>
  </g>
  <g id="zoomMin">
    <use xlink:href="#rim" fill="#404040"><set attributeName="fill" to="#808080" begin="zoomminus.mouseover" end="zoomminus.mouseout"/></use>
    <path d="M-4,0h8" fill="none" stroke="white" stroke-width="1.5" pointer-events="none"/>
  </g>
  <g id="arrowUp" transform="translate(30 24)">
    <use xlink:href="#rim"/>
    <path pointer-events="none" fill="none" stroke="white" stroke-width="1.5" d="M0,-3.0v7 M-2.5,-0.5L0,-3.0L2.5,-0.5"/>
  </g>
  <g id="arrowRight" transform="rotate(90) translate(36 -43)">
    <use xlink:href="#rim"/>
    <path pointer-events="none" fill="none" stroke="white" stroke-width="1.5" d="M0,-3.0v7 M-2.5,-0.5L0,-3.0L2.5,-0.5"/>
  </g>
  <g id="arrowDown" transform="rotate(180) translate(-30 -48)">
    <use xlink:href="#rim"/>
    <path pointer-events="none" fill="none" stroke="white" stroke-width="1.5" d="M0,-3.0v7 M-2.5,-0.5L0,-3.0L2.5,-0.5"/>
  </g>
  <g id="arrowLeft" transform="rotate(270) translate(-36 17)">
    <use xlink:href="#rim"/>
    <path pointer-events="none" fill="none" stroke="white" stroke-width="1.5" d="M0,-3.0v7 M-2.5,-0.5L0,-3.0L2.5,-0.5"/>
  </g>
  <g id="resetDef">
    <use xlink:href="#rim2" fill="#404040"><set attributeName="fill" to="#808080" begin="reset.mouseover" end="reset.mouseout"/></use>
  </g>
</defs>
<script type="application/ecmascript">
var viewWidth = 1480;
var viewHeight = 393;
var sectionId = 'dynsection-0';
</script>
<script type="application/ecmascript" xlink:href="svg.min.js"/>
<svg id="graph" class="graph">
<g id="viewport">
<title>/github/workspace/test/kalman_constructor_default_5x4x3.cpp</title>
<!-- Node1 -->
<g id="Node000001" class="node">
<title>Node1</title>
<g id="a_Node000001"><a xlink:title=" ">
<polygon fill="#999999" stroke="#666666" points="1294.5,-384.5 1155.5,-384.5 1155.5,-342.75 1294.5,-342.75 1294.5,-384.5"/>
<text text-anchor="start" x="1163.5" y="-371" font-family="Helvetica,sans-Serif" font-size="10.00">/github/workspace/test</text>
<text text-anchor="start" x="1163.5" y="-359.75" font-family="Helvetica,sans-Serif" font-size="10.00">/kalman_constructor_default</text>
<text text-anchor="middle" x="1225" y="-348.5" font-family="Helvetica,sans-Serif" font-size="10.00">_5x4x3.cpp</text>
</a>
</g>
</g>
<!-- Node2 -->
<g id="Node000002" class="node">
<title>Node2</title>
<g id="a_Node000002"><a xlink:href="kalman_8hpp.xhtml" target="_top" xlink:title="The Kalman filter class and library top&#45;level header.">
<polygon fill="white" stroke="#666666" points="1158,-306.75 1052,-306.75 1052,-287.5 1158,-287.5 1158,-306.75"/>
<text text-anchor="middle" x="1105" y="-293.25" font-family="Helvetica,sans-Serif" font-size="10.00">fcarouge/kalman.hpp</text>
</a>
</g>
</g>
<!-- Node1&#45;&gt;Node2 -->
<g id="edge1_Node000001_Node000002" class="edge">
<title>Node1&#45;&gt;Node2</title>
<g id="a_edge1_Node000001_Node000002"><a xlink:title=" ">
<path fill="none" stroke="#63b8ff" d="M1187.36,-342.39C1169.32,-332.7 1148.13,-321.31 1131.76,-312.51"/>
<polygon fill="#63b8ff" stroke="#63b8ff" points="1133.58,-309.51 1123.11,-307.86 1130.26,-315.68 1133.58,-309.51"/>
</a>
</g>
</g>
<!-- Node27 -->
<g id="Node000027" class="node">
<title>Node27</title>
<g id="a_Node000027"><a xlink:title=" ">
<polygon fill="#e0e0e0" stroke="#999999" points="1273.5,-306.75 1176.5,-306.75 1176.5,-287.5 1273.5,-287.5 1273.5,-306.75"/>
<text text-anchor="middle" x="1225" y="-293.25" font-family="Helvetica,sans-Serif" font-size="10.00">fcarouge/linalg.hpp</text>
</a>
</g>
</g>
<!-- Node1&#45;&gt;Node27 -->
<g id="edge47_Node000001_Node000027" class="edge">
<title>Node1&#45;&gt;Node27</title>
<g id="a_edge47_Node000001_Node000027"><a xlink:title=" ">
<path fill="none" stroke="#63b8ff" d="M1225,-342.57C1225,-334.9 1225,-326.14 1225,-318.45"/>
<polygon fill="#63b8ff" stroke="#63b8ff" points="1228.5,-318.71 1225,-308.71 1221.5,-318.71 1228.5,-318.71"/>
</a>
</g>
</g>
<!-- Node28 -->
<g id="Node000028" class="node">
<title>Node28</title>
<g id="a_Node000028"><a xlink:title=" ">
<polygon fill="#e0e0e0" stroke="#999999" points="1340.12,-306.75 1291.88,-306.75 1291.88,-287.5 1340.12,-287.5 1340.12,-306.75"/>
<text text-anchor="middle" x="1316" y="-293.25" font-family="Helvetica,sans-Serif" font-size="10.00">cassert</text>
</a>
</g>
</g>
<!-- Node1&#45;&gt;Node28 -->
<g id="edge48_Node000001_Node000028" class="edge">
<title>Node1&#45;&gt;Node28</title>
<g id="a_edge48_Node000001_Node000028"><a xlink:title=" ">
<path fill="none" stroke="#63b8ff" d="M1253.29,-342.57C1266.47,-333.23 1281.9,-322.3 1294.16,-313.61"/>
<polygon fill="#63b8ff" stroke="#63b8ff" points="1295.83,-316.71 1301.97,-308.07 1291.79,-311 1295.83,-316.71"/>
</a>
</g>
</g>
<!-- Node3 -->
<g id="Node000003" class="node">
<title>Node3</title>
<g id="a_Node000003"><a xlink:href="factory_8hpp.xhtml" target="_top" xlink:title=" ">
<polygon fill="white" stroke="#666666" points="646.88,-251.5 549.12,-251.5 549.12,-232.25 646.88,-232.25 646.88,-251.5"/>
<text text-anchor="middle" x="598" y="-238" font-family="Helvetica,sans-Serif" font-size="10.00">internal/factory.hpp</text>
</a>
</g>
</g>
<!-- Node2&#45;&gt;Node3 -->
<g id="edge2_Node000002_Node000003" class="edge">
<title>Node2&#45;&gt;Node3</title>
<g id="a_edge2_Node000002_Node000003"><a xlink:title=" ">
<path fill="none" stroke="#63b8ff" d="M1051.7,-290.53C956.69,-280.55 758.67,-259.75 658.63,-249.24"/>
<polygon fill="#63b8ff" stroke="#63b8ff" points="659.03,-245.77 648.72,-248.2 658.3,-252.73 659.03,-245.77"/>
</a>
</g>
</g>
<!-- Node5 -->
<g id="Node000005" class="node">
<title>Node5</title>
<g id="a_Node000005"><a xlink:href="utility_8hpp.xhtml" target="_top" xlink:title="The collection of utilities supporting the library.">
<polygon fill="white" stroke="#666666" points="685.5,-129.75 588.5,-129.75 588.5,-110.5 685.5,-110.5 685.5,-129.75"/>
<text text-anchor="middle" x="637" y="-116.25" font-family="Helvetica,sans-Serif" font-size="10.00">fcarouge/utility.hpp</text>
</a>
</g>
</g>
<!-- Node2&#45;&gt;Node5 -->
<g id="edge40_Node000002_Node000005" class="edge">
<title>Node2&#45;&gt;Node5</title>
<g id="a_edge40_Node000002_Node000005"><a xlink:title=" ">
<path fill="none" stroke="#63b8ff" d="M1085.43,-287.08C1028.44,-260.84 863.14,-185.27 807,-165.75 768.42,-152.34 723.7,-140.75 689.81,-132.75"/>
<polygon fill="#63b8ff" stroke="#63b8ff" points="690.77,-129.38 680.24,-130.52 689.18,-136.19 690.77,-129.38"/>
</a>
</g>
</g>
<!-- Node7 -->
<g id="Node000007" class="node">
<title>Node7</title>
<g id="a_Node000007"><a xlink:title=" ">
<polygon fill="#e0e0e0" stroke="#999999" points="587.88,-19.25 532.12,-19.25 532.12,0 587.88,0 587.88,-19.25"/>
<text text-anchor="middle" x="560" y="-5.75" font-family="Helvetica,sans-Serif" font-size="10.00">concepts</text>
</a>
</g>
</g>
<!-- Node2&#45;&gt;Node7 -->
<g id="edge41_Node000002_Node000007" class="edge">
<title>Node2&#45;&gt;Node7</title>
<g id="a_edge41_Node000002_Node000007"><a xlink:title=" ">
<path fill="none" stroke="#63b8ff" d="M1051.7,-296.28C830.98,-296.26 0,-289.04 0,-182 0,-182 0,-182 0,-119.12 0,-12.89 393.34,-8.51 520.71,-9.88"/>
<polygon fill="#63b8ff" stroke="#63b8ff" points="520.29,-13.38 530.33,-10 520.38,-6.38 520.29,-13.38"/>
</a>
</g>
</g>
<!-- Node8 -->
<g id="Node000008" class="node">
<title>Node8</title>
<g id="a_Node000008"><a xlink:title=" ">
<polygon fill="#e0e0e0" stroke="#999999" points="995.5,-19.25 934.5,-19.25 934.5,0 995.5,0 995.5,-19.25"/>
<text text-anchor="middle" x="965" y="-5.75" font-family="Helvetica,sans-Serif" font-size="10.00">type_traits</text>
</a>
</g>
</g>
<!-- Node2&#45;&gt;Node8 -->
<g id="edge44_Node000002_Node000008" class="edge">
<title>Node2&#45;&gt;Node8</title>
<g id="a_edge44_Node000002_Node000008"><a xlink:title=" ">
<path fill="none" stroke="#63b8ff" d="M1102.44,-287.04C1097.25,-267.82 1086,-221.57 1086,-182 1086,-182 1086,-182 1086,-119.12 1086,-72.39 1035.34,-40.71 999.58,-24.16"/>
<polygon fill="#63b8ff" stroke="#63b8ff" points="1001.43,-21.16 990.87,-20.32 998.61,-27.56 1001.43,-21.16"/>
</a>
</g>
</g>
<!-- Node10 -->
<g id="Node000010" class="node">
<title>Node10</title>
<g id="a_Node000010"><a xlink:title=" ">
<polygon fill="#e0e0e0" stroke="#999999" points="1040.25,-129.75 1001.75,-129.75 1001.75,-110.5 1040.25,-110.5 1040.25,-129.75"/>
<text text-anchor="middle" x="1021" y="-116.25" font-family="Helvetica,sans-Serif" font-size="10.00">utility</text>
</a>
</g>
</g>
<!-- Node2&#45;&gt;Node10 -->
<g id="edge45_Node000002_Node000010" class="edge">
<title>Node2&#45;&gt;Node10</title>
<g id="a_edge45_Node000002_Node000010"><a xlink:title=" ">
<path fill="none" stroke="#63b8ff" d="M1097.16,-287.04C1089.93,-278.35 1079.27,-264.66 1072,-251.5 1051.4,-214.22 1035.1,-166.88 1026.87,-140.73"/>
<polygon fill="#63b8ff" stroke="#63b8ff" points="1030.31,-140 1024.03,-131.47 1023.62,-142.06 1030.31,-140"/>
</a>
</g>
</g>
<!-- Node20 -->
<g id="Node000020" class="node">
<title>Node20</title>
<g id="a_Node000020"><a xlink:href="format_8hpp.xhtml" target="_top" xlink:title=" ">
<polygon fill="white" stroke="#666666" points="1210.12,-190.62 1113.88,-190.62 1113.88,-171.38 1210.12,-171.38 1210.12,-190.62"/>
<text text-anchor="middle" x="1162" y="-177.12" font-family="Helvetica,sans-Serif" font-size="10.00">internal/format.hpp</text>
</a>
</g>
</g>
<!-- Node2&#45;&gt;Node20 -->
<g id="edge34_Node000002_Node000020" class="edge">
<title>Node2&#45;&gt;Node20</title>
<g id="a_edge34_Node000002_Node000020"><a xlink:title=" ">
<path fill="none" stroke="#63b8ff" d="M1109.47,-287.17C1118.71,-268.67 1140.08,-225.88 1152.53,-200.96"/>
<polygon fill="#63b8ff" stroke="#63b8ff" points="1155.53,-202.78 1156.87,-192.27 1149.27,-199.65 1155.53,-202.78"/>
</a>
</g>
</g>
<!-- Node22 -->
<g id="Node000022" class="node">
<title>Node22</title>
<g id="a_Node000022"><a xlink:href="printer_8hpp.xhtml" target="_top" xlink:title=" ">
<polygon fill="white" stroke="#666666" points="1213.5,-251.5 1152.5,-251.5 1152.5,-232.25 1213.5,-232.25 1213.5,-251.5"/>
<text text-anchor="middle" x="1183" y="-238" font-family="Helvetica,sans-Serif" font-size="10.00">printer.hpp</text>
</a>
</g>
</g>
<!-- Node2&#45;&gt;Node22 -->
<g id="edge38_Node000002_Node000022" class="edge">
<title>Node2&#45;&gt;Node22</title>
<g id="a_edge38_Node000002_Node000022"><a xlink:title=" ">
<path fill="none" stroke="#63b8ff" d="M1118.23,-287.09C1129.77,-279.21 1146.77,-267.61 1160.45,-258.27"/>
<polygon fill="#63b8ff" stroke="#63b8ff" points="1162.17,-261.33 1168.45,-252.81 1158.22,-255.55 1162.17,-261.33"/>
</a>
</g>
</g>
<!-- Node24 -->
<g id="Node000024" class="node">
<title>Node24</title>
<g id="a_Node000024"><a xlink:title=" ">
<polygon fill="#e0e0e0" stroke="#999999" points="1280.12,-251.5 1231.88,-251.5 1231.88,-232.25 1280.12,-232.25 1280.12,-251.5"/>
<text text-anchor="middle" x="1256" y="-238" font-family="Helvetica,sans-Serif" font-size="10.00">cstddef</text>
</a>
</g>
</g>
<!-- Node2&#45;&gt;Node24 -->
<g id="edge42_Node000002_Node000024" class="edge">
<title>Node2&#45;&gt;Node24</title>
<g id="a_edge42_Node000002_Node000024"><a xlink:title=" ">
<path fill="none" stroke="#63b8ff" d="M1130.62,-287.09C1155.39,-278.36 1193.13,-265.04 1220.74,-255.31"/>
<polygon fill="#63b8ff" stroke="#63b8ff" points="1221.82,-258.64 1230.08,-252.01 1219.49,-252.04 1221.82,-258.64"/>
</a>
</g>
</g>
<!-- Node25 -->
<g id="Node000025" class="node">
<title>Node25</title>
<g id="a_Node000025"><a xlink:title=" ">
<polygon fill="#e0e0e0" stroke="#999999" points="1356,-251.5 1298,-251.5 1298,-232.25 1356,-232.25 1356,-251.5"/>
<text text-anchor="middle" x="1327" y="-238" font-family="Helvetica,sans-Serif" font-size="10.00">functional</text>
</a>
</g>
</g>
<!-- Node2&#45;&gt;Node25 -->
<g id="edge43_Node000002_Node000025" class="edge">
<title>Node2&#45;&gt;Node25</title>
<g id="a_edge43_Node000002_Node000025"><a xlink:title=" ">
<path fill="none" stroke="#63b8ff" d="M1142.91,-287.03C1182.9,-277.44 1245.66,-262.38 1286.57,-252.57"/>
<polygon fill="#63b8ff" stroke="#63b8ff" points="1287.37,-255.98 1296.28,-250.24 1285.74,-249.17 1287.37,-255.98"/>
</a>
</g>
</g>
<!-- Node26 -->
<g id="Node000026" class="node">
<title>Node26</title>
<g id="a_Node000026"><a xlink:title=" ">
<polygon fill="#e0e0e0" stroke="#999999" points="1471.88,-251.5 1374.12,-251.5 1374.12,-232.25 1471.88,-232.25 1471.88,-251.5"/>
<text text-anchor="middle" x="1423" y="-238" font-family="Helvetica,sans-Serif" font-size="10.00">internal/kalman.tpp</text>
</a>
</g>
</g>
<!-- Node2&#45;&gt;Node26 -->
<g id="edge46_Node000002_Node000026" class="edge">
<title>Node2&#45;&gt;Node26</title>
<g id="a_edge46_Node000002_Node000026"><a xlink:title=" ">
<path fill="none" stroke="#63b8ff" d="M1158.23,-287.21C1214.7,-277.76 1303.76,-262.84 1362.77,-252.96"/>
<polygon fill="#63b8ff" stroke="#63b8ff" points="1363.01,-256.47 1372.29,-251.37 1361.85,-249.57 1363.01,-256.47"/>
</a>
</g>
</g>
<!-- Node4 -->
<g id="Node000004" class="node">
<title>Node4</title>
<g id="a_Node000004"><a xlink:href="type_8hpp.xhtml" target="_top" xlink:title=" ">
<polygon fill="white" stroke="#666666" points="1019.5,-190.62 892.5,-190.62 892.5,-171.38 1019.5,-171.38 1019.5,-190.62"/>
<text text-anchor="middle" x="956" y="-177.12" font-family="Helvetica,sans-Serif" font-size="10.00">fcarouge/internal/type.hpp</text>
</a>
</g>
</g>
<!-- Node3&#45;&gt;Node4 -->
<g id="edge3_Node000003_Node000004" class="edge">
<title>Node3&#45;&gt;Node4</title>
<g id="a_edge3_Node000003_Node000004"><a xlink:title=" ">
<path fill="none" stroke="#63b8ff" d="M647.03,-232.81C709.92,-222.47 819.26,-204.49 889.58,-192.92"/>
<polygon fill="#63b8ff" stroke="#63b8ff" points="889.73,-196.45 899.03,-191.37 888.59,-189.54 889.73,-196.45"/>
</a>
</g>
</g>
<!-- Node3&#45;&gt;Node7 -->
<g id="edge32_Node000003_Node000007" class="edge">
<title>Node3&#45;&gt;Node7</title>
<g id="a_edge32_Node000003_Node000007"><a xlink:title=" ">
<path fill="none" stroke="#63b8ff" d="M593.24,-231.93C588.78,-223.11 582.32,-209.13 579,-196.25 563.87,-137.56 560.71,-65.51 560.1,-30.97"/>
<polygon fill="#63b8ff" stroke="#63b8ff" points="563.6,-31.15 559.99,-21.19 556.6,-31.23 563.6,-31.15"/>
</a>
</g>
</g>
<!-- Node3&#45;&gt;Node8 -->
<g id="edge33_Node000003_Node000008" class="edge">
<title>Node3&#45;&gt;Node8</title>
<g id="a_edge33_Node000003_Node000008"><a xlink:title=" ">
<path fill="none" stroke="#63b8ff" d="M647.36,-241.4C692.88,-239.5 760.27,-230.4 807,-196.25 842.44,-170.35 828.6,-144.79 856,-110.5 882.63,-77.16 920.64,-45 944.02,-26.55"/>
<polygon fill="#63b8ff" stroke="#63b8ff" points="946.13,-29.35 951.88,-20.45 941.83,-23.82 946.13,-29.35"/>
</a>
</g>
</g>
<!-- Node11 -->
<g id="Node000011" class="node">
<title>Node11</title>
<g id="a_Node000011"><a xlink:href="x__z__p__q__r__h__f_8hpp.xhtml" target="_top" xlink:title=" ">
<polygon fill="white" stroke="#666666" points="683.75,-196.25 588.25,-196.25 588.25,-165.75 683.75,-165.75 683.75,-196.25"/>
<text text-anchor="start" x="596.25" y="-182.75" font-family="Helvetica,sans-Serif" font-size="10.00">fcarouge/internal/x</text>
<text text-anchor="middle" x="636" y="-171.5" font-family="Helvetica,sans-Serif" font-size="10.00">_z_p_q_r_h_f.hpp</text>
</a>
</g>
</g>
<!-- Node3&#45;&gt;Node11 -->
<g id="edge11_Node000003_Node000011" class="edge">
<title>Node3&#45;&gt;Node11</title>
<g id="a_edge11_Node000003_Node000011"><a xlink:title=" ">
<path fill="none" stroke="#63b8ff" d="M603.77,-231.93C608.22,-225.04 614.6,-215.16 620.51,-206"/>
<polygon fill="#63b8ff" stroke="#63b8ff" points="623.32,-208.1 625.8,-197.8 617.44,-204.31 623.32,-208.1"/>
</a>
</g>
</g>
<!-- Node12 -->
<g id="Node000012" class="node">
<title>Node12</title>
<g id="a_Node000012"><a xlink:href="x__z__p__q__r__hh__us__ps_8hpp.xhtml" target="_top" xlink:title=" ">
<polygon fill="white" stroke="#666666" points="418.12,-196.25 297.88,-196.25 297.88,-165.75 418.12,-165.75 418.12,-196.25"/>
<text text-anchor="start" x="305.88" y="-182.75" font-family="Helvetica,sans-Serif" font-size="10.00">fcarouge/internal/x</text>
<text text-anchor="middle" x="358" y="-171.5" font-family="Helvetica,sans-Serif" font-size="10.00">_z_p_q_r_hh_us_ps.hpp</text>
</a>
</g>
</g>
<!-- Node3&#45;&gt;Node12 -->
<g id="edge13_Node000003_Node000012" class="edge">
<title>Node3&#45;&gt;Node12</title>
<g id="a_edge13_Node000003_Node000012"><a xlink:title=" ">
<path fill="none" stroke="#63b8ff" d="M561.03,-231.8C525.95,-223.2 472.3,-210.04 428.97,-199.41"/>
<polygon fill="#63b8ff" stroke="#63b8ff" points="429.92,-196.04 419.37,-197.06 428.25,-202.84 429.92,-196.04"/>
</a>
</g>
</g>
<!-- Node16 -->
<g id="Node000016" class="node">
<title>Node16</title>
<g id="a_Node000016"><a xlink:href="x__z__p__qq__rr__f_8hpp.xhtml" target="_top" xlink:title=" ">
<polygon fill="white" stroke="#666666" points="531.75,-196.25 436.25,-196.25 436.25,-165.75 531.75,-165.75 531.75,-196.25"/>
<text text-anchor="start" x="444.25" y="-182.75" font-family="Helvetica,sans-Serif" font-size="10.00">fcarouge/internal/x</text>
<text text-anchor="middle" x="484" y="-171.5" font-family="Helvetica,sans-Serif" font-size="10.00">_z_p_qq_rr_f.hpp</text>
</a>
</g>
</g>
<!-- Node3&#45;&gt;Node16 -->
<g id="edge18_Node000003_Node000016" class="edge">
<title>Node3&#45;&gt;Node16</title>
<g id="a_edge18_Node000003_Node000016"><a xlink:title=" ">
<path fill="none" stroke="#63b8ff" d="M580.69,-231.93C565.2,-223.93 541.95,-211.93 522.13,-201.69"/>
<polygon fill="#63b8ff" stroke="#63b8ff" points="523.97,-198.71 513.48,-197.23 520.76,-204.93 523.97,-198.71"/>
</a>
</g>
</g>
<!-- Node17 -->
<g id="Node000017" class="node">
<title>Node17</title>
<g id="a_Node000017"><a xlink:href="x__z__p__r__f_8hpp.xhtml" target="_top" xlink:title=" ">
<polygon fill="white" stroke="#666666" points="797.75,-196.25 702.25,-196.25 702.25,-165.75 797.75,-165.75 797.75,-196.25"/>
<text text-anchor="start" x="710.25" y="-182.75" font-family="Helvetica,sans-Serif" font-size="10.00">fcarouge/internal/x</text>
<text text-anchor="middle" x="750" y="-171.5" font-family="Helvetica,sans-Serif" font-size="10.00">_z_p_r_f.hpp</text>
</a>
</g>
</g>
<!-- Node3&#45;&gt;Node17 -->
<g id="edge22_Node000003_Node000017" class="edge">
<title>Node3&#45;&gt;Node17</title>
<g id="a_edge22_Node000003_Node000017"><a xlink:title=" ">
<path fill="none" stroke="#63b8ff" d="M621.42,-231.8C642.64,-223.58 674.6,-211.2 701.35,-200.85"/>
<polygon fill="#63b8ff" stroke="#63b8ff" points="702.59,-204.12 710.65,-197.24 700.06,-197.59 702.59,-204.12"/>
</a>
</g>
</g>
<!-- Node18 -->
<g id="Node000018" class="node">
<title>Node18</title>
<g id="a_Node000018"><a xlink:href="x__z__u__p__q__r__f__g__ps_8hpp.xhtml" target="_top" xlink:title=" ">
<polygon fill="white" stroke="#666666" points="146,-196.25 28,-196.25 28,-165.75 146,-165.75 146,-196.25"/>
<text text-anchor="start" x="36" y="-182.75" font-family="Helvetica,sans-Serif" font-size="10.00">fcarouge/internal/x</text>
<text text-anchor="middle" x="87" y="-171.5" font-family="Helvetica,sans-Serif" font-size="10.00">_z_u_p_q_r_f_g_ps.hpp</text>
</a>
</g>
</g>
<!-- Node3&#45;&gt;Node18 -->
<g id="edge24_Node000003_Node000018" class="edge">
<title>Node3&#45;&gt;Node18</title>
<g id="a_edge24_Node000003_Node000018"><a xlink:title=" ">
<path fill="none" stroke="#63b8ff" d="M548.95,-237.64C469.02,-232.01 305.51,-218.92 157.36,-196.51"/>
<polygon fill="#63b8ff" stroke="#63b8ff" points="158.18,-193.09 147.77,-195.04 157.12,-200.01 158.18,-193.09"/>
</a>
</g>
</g>
<!-- Node19 -->
<g id="Node000019" class="node">
<title>Node19</title>
<g id="a_Node000019"><a xlink:href="x__z__u__p__q__r__us__ps_8hpp.xhtml" target="_top" xlink:title=" ">
<polygon fill="white" stroke="#666666" points="279.5,-196.25 164.5,-196.25 164.5,-165.75 279.5,-165.75 279.5,-196.25"/>
<text text-anchor="start" x="172.5" y="-182.75" font-family="Helvetica,sans-Serif" font-size="10.00">fcarouge/internal/x</text>
<text text-anchor="middle" x="222" y="-171.5" font-family="Helvetica,sans-Serif" font-size="10.00">_z_u_p_q_r_us_ps.hpp</text>
</a>
</g>
</g>
<!-- Node3&#45;&gt;Node19 -->
<g id="edge28_Node000003_Node000019" class="edge">
<title>Node3&#45;&gt;Node19</title>
<g id="a_edge28_Node000003_Node000019"><a xlink:title=" ">
<path fill="none" stroke="#63b8ff" d="M548.87,-234.8C490.04,-227.3 388.29,-213.61 290.93,-196.52"/>
<polygon fill="#63b8ff" stroke="#63b8ff" points="291.64,-193.09 281.19,-194.79 290.42,-199.98 291.64,-193.09"/>
</a>
</g>
</g>
<!-- Node4&#45;&gt;Node5 -->
<g id="edge4_Node000004_Node000005" class="edge">
<title>Node4&#45;&gt;Node5</title>
<g id="a_edge4_Node000004_Node000005"><a xlink:title=" ">
<path fill="none" stroke="#63b8ff" d="M906.86,-170.93C850.46,-160.52 757.95,-143.45 697.26,-132.25"/>
<polygon fill="#63b8ff" stroke="#63b8ff" points="697.9,-128.81 687.43,-130.43 696.63,-135.69 697.9,-128.81"/>
</a>
</g>
</g>
<!-- Node4&#45;&gt;Node8 -->
<g id="edge9_Node000004_Node000008" class="edge">
<title>Node4&#45;&gt;Node8</title>
<g id="a_edge9_Node000004_Node000008"><a xlink:title=" ">
<path fill="none" stroke="#63b8ff" d="M956.48,-170.89C957.89,-144.46 961.99,-67.29 963.94,-30.53"/>
<polygon fill="#63b8ff" stroke="#63b8ff" points="967.42,-31.05 964.46,-20.88 960.43,-30.68 967.42,-31.05"/>
</a>
</g>
</g>
<!-- Node9 -->
<g id="Node000009" class="node">
<title>Node9</title>
<g id="a_Node000009"><a xlink:title=" ">
<polygon fill="#e0e0e0" stroke="#999999" points="936.75,-129.75 865.25,-129.75 865.25,-110.5 936.75,-110.5 936.75,-129.75"/>
<text text-anchor="middle" x="901" y="-116.25" font-family="Helvetica,sans-Serif" font-size="10.00">initializer_list</text>
</a>
</g>
</g>
<!-- Node4&#45;&gt;Node9 -->
<g id="edge8_Node000004_Node000009" class="edge">
<title>Node4&#45;&gt;Node9</title>
<g id="a_edge8_Node000004_Node000009"><a xlink:title=" ">
<path fill="none" stroke="#63b8ff" d="M947.65,-171.06C939.57,-162.41 927.12,-149.09 917.11,-138.37"/>
<polygon fill="#63b8ff" stroke="#63b8ff" points="919.85,-136.18 910.47,-131.26 914.73,-140.95 919.85,-136.18"/>
</a>
</g>
</g>
<!-- Node4&#45;&gt;Node10 -->
<g id="edge10_Node000004_Node000010" class="edge">
<title>Node4&#45;&gt;Node10</title>
<g id="a_edge10_Node000004_Node000010"><a xlink:title=" ">
<path fill="none" stroke="#63b8ff" d="M965.87,-171.06C975.61,-162.24 990.72,-148.55 1002.66,-137.73"/>
<polygon fill="#63b8ff" stroke="#63b8ff" points="1004.85,-140.47 1009.91,-131.17 1000.15,-135.29 1004.85,-140.47"/>
</a>
</g>
</g>
<!-- Node6 -->
<g id="Node000006" class="node">
<title>Node6</title>
<g id="a_Node000006"><a xlink:href="internal_2utility_8hpp.xhtml" target="_top" xlink:title=" ">
<polygon fill="white" stroke="#666666" points="682.5,-74.5 591.5,-74.5 591.5,-55.25 682.5,-55.25 682.5,-74.5"/>
<text text-anchor="middle" x="637" y="-61" font-family="Helvetica,sans-Serif" font-size="10.00">internal/utility.hpp</text>
</a>
</g>
</g>
<!-- Node5&#45;&gt;Node6 -->
<g id="edge5_Node000005_Node000006" class="edge">
<title>Node5&#45;&gt;Node6</title>
<g id="a_edge5_Node000005_Node000006"><a xlink:title=" ">
<path fill="none" stroke="#63b8ff" d="M637,-110.33C637,-103.82 637,-94.67 637,-86.37"/>
<polygon fill="#63b8ff" stroke="#63b8ff" points="640.5,-86.37 637,-76.37 633.5,-86.37 640.5,-86.37"/>
</a>
</g>
</g>
<!-- Node6&#45;&gt;Node7 -->
<g id="edge6_Node000006_Node000007" class="edge">
<title>Node6&#45;&gt;Node7</title>
<g id="a_edge6_Node000006_Node000007"><a xlink:title=" ">
<path fill="none" stroke="#63b8ff" d="M623.94,-54.84C612.54,-46.96 595.77,-35.36 582.26,-26.02"/>
<polygon fill="#63b8ff" stroke="#63b8ff" points="584.59,-23.37 574.37,-20.56 580.6,-29.13 584.59,-23.37"/>
</a>
</g>
</g>
<!-- Node6&#45;&gt;Node8 -->
<g id="edge7_Node000006_Node000008" class="edge">
<title>Node6&#45;&gt;Node8</title>
<g id="a_edge7_Node000006_Node000008"><a xlink:title=" ">
<path fill="none" stroke="#63b8ff" d="M682.95,-56.41C746.72,-46.06 861.15,-27.49 922.83,-17.47"/>
<polygon fill="#63b8ff" stroke="#63b8ff" points="923.27,-20.95 932.58,-15.89 922.15,-14.04 923.27,-20.95"/>
</a>
</g>
</g>
<!-- Node11&#45;&gt;Node5 -->
<g id="edge12_Node000011_Node000005" class="edge">
<title>Node11&#45;&gt;Node5</title>
<g id="a_edge12_Node000011_Node000005"><a xlink:title=" ">
<path fill="none" stroke="#63b8ff" d="M636.25,-165.45C636.37,-158.21 636.52,-149.34 636.65,-141.44"/>
<polygon fill="#63b8ff" stroke="#63b8ff" points="640.15,-141.77 636.82,-131.71 633.15,-141.65 640.15,-141.77"/>
</a>
</g>
</g>
<!-- Node12&#45;&gt;Node5 -->
<g id="edge14_Node000012_Node000005" class="edge">
<title>Node12&#45;&gt;Node5</title>
<g id="a_edge14_Node000012_Node000005"><a xlink:title=" ">
<path fill="none" stroke="#63b8ff" d="M418.54,-167.23C467.4,-156.91 535.53,-142.54 582.65,-132.59"/>
<polygon fill="#63b8ff" stroke="#63b8ff" points="583.32,-136.03 592.38,-130.54 581.87,-129.18 583.32,-136.03"/>
</a>
</g>
</g>
<!-- Node13 -->
<g id="Node000013" class="node">
<title>Node13</title>
<g id="a_Node000013"><a xlink:href="function_8hpp.xhtml" target="_top" xlink:title=" ">
<polygon fill="white" stroke="#666666" points="360.25,-129.75 291.75,-129.75 291.75,-110.5 360.25,-110.5 360.25,-129.75"/>
<text text-anchor="middle" x="326" y="-116.25" font-family="Helvetica,sans-Serif" font-size="10.00">function.hpp</text>
</a>
</g>
</g>
<!-- Node12&#45;&gt;Node13 -->
<g id="edge15_Node000012_Node000013" class="edge">
<title>Node12&#45;&gt;Node13</title>
<g id="a_edge15_Node000012_Node000013"><a xlink:title=" ">
<path fill="none" stroke="#63b8ff" d="M350.09,-165.45C345.97,-157.86 340.87,-148.49 336.43,-140.32"/>
<polygon fill="#63b8ff" stroke="#63b8ff" points="339.51,-138.65 331.66,-131.53 333.36,-141.99 339.51,-138.65"/>
</a>
</g>
</g>
<!-- Node15 -->
<g id="Node000015" class="node">
<title>Node15</title>
<g id="a_Node000015"><a xlink:title=" ">
<polygon fill="#e0e0e0" stroke="#999999" points="256.5,-129.75 219.5,-129.75 219.5,-110.5 256.5,-110.5 256.5,-129.75"/>
<text text-anchor="middle" x="238" y="-116.25" font-family="Helvetica,sans-Serif" font-size="10.00">tuple</text>
</a>
</g>
</g>
<!-- Node12&#45;&gt;Node15 -->
<g id="edge17_Node000012_Node000015" class="edge">
<title>Node12&#45;&gt;Node15</title>
<g id="a_edge17_Node000012_Node000015"><a xlink:title=" ">
<path fill="none" stroke="#63b8ff" d="M328.03,-165.3C309.23,-156.07 285.12,-144.25 266.59,-135.15"/>
<polygon fill="#63b8ff" stroke="#63b8ff" points="268.28,-132.08 257.76,-130.82 265.2,-138.37 268.28,-132.08"/>
</a>
</g>
</g>
<!-- Node14 -->
<g id="Node000014" class="node">
<title>Node14</title>
<g id="a_Node000014"><a xlink:title=" ">
<polygon fill="#e0e0e0" stroke="#999999" points="351.25,-74.5 300.75,-74.5 300.75,-55.25 351.25,-55.25 351.25,-74.5"/>
<text text-anchor="middle" x="326" y="-61" font-family="Helvetica,sans-Serif" font-size="10.00">memory</text>
</a>
</g>
</g>
<!-- Node13&#45;&gt;Node14 -->
<g id="edge16_Node000013_Node000014" class="edge">
<title>Node13&#45;&gt;Node14</title>
<g id="a_edge16_Node000013_Node000014"><a xlink:title=" ">
<path fill="none" stroke="#63b8ff" d="M326,-110.33C326,-103.82 326,-94.67 326,-86.37"/>
<polygon fill="#63b8ff" stroke="#63b8ff" points="329.5,-86.37 326,-76.37 322.5,-86.37 329.5,-86.37"/>
</a>
</g>
</g>
<!-- Node16&#45;&gt;Node5 -->
<g id="edge19_Node000016_Node000005" class="edge">
<title>Node16&#45;&gt;Node5</title>
<g id="a_edge19_Node000016_Node000005"><a xlink:title=" ">
<path fill="none" stroke="#63b8ff" d="M522.21,-165.3C546.97,-155.77 578.93,-143.47 602.84,-134.27"/>
<polygon fill="#63b8ff" stroke="#63b8ff" points="604.05,-137.56 612.12,-130.7 601.53,-131.02 604.05,-137.56"/>
</a>
</g>
</g>
<!-- Node16&#45;&gt;Node13 -->
<g id="edge20_Node000016_Node000013" class="edge">
<title>Node16&#45;&gt;Node13</title>
<g id="a_edge20_Node000016_Node000013"><a xlink:title=" ">
<path fill="none" stroke="#63b8ff" d="M444.54,-165.3C418.86,-155.73 385.66,-143.36 360.94,-134.14"/>
<polygon fill="#63b8ff" stroke="#63b8ff" points="362.24,-130.89 351.65,-130.68 359.8,-137.45 362.24,-130.89"/>
</a>
</g>
</g>
<!-- Node16&#45;&gt;Node15 -->
<g id="edge21_Node000016_Node000015" class="edge">
<title>Node16&#45;&gt;Node15</title>
<g id="a_edge21_Node000016_Node000015"><a xlink:title=" ">
<path fill="none" stroke="#63b8ff" d="M435.81,-167.91C432.83,-167.17 429.87,-166.45 427,-165.75 370.83,-152.1 305.13,-136.72 267.85,-128.05"/>
<polygon fill="#63b8ff" stroke="#63b8ff" points="268.8,-124.67 258.27,-125.82 267.22,-131.49 268.8,-124.67"/>
</a>
</g>
</g>
<!-- Node17&#45;&gt;Node5 -->
<g id="edge23_Node000017_Node000005" class="edge">
<title>Node17&#45;&gt;Node5</title>
<g id="a_edge23_Node000017_Node000005"><a xlink:title=" ">
<path fill="none" stroke="#63b8ff" d="M721.78,-165.3C704.24,-156.16 681.8,-144.47 664.41,-135.41"/>
<polygon fill="#63b8ff" stroke="#63b8ff" points="666.16,-132.37 655.67,-130.85 662.92,-138.58 666.16,-132.37"/>
</a>
</g>
</g>
<!-- Node18&#45;&gt;Node5 -->
<g id="edge25_Node000018_Node000005" class="edge">
<title>Node18&#45;&gt;Node5</title>
<g id="a_edge25_Node000018_Node000005"><a xlink:title=" ">
<path fill="none" stroke="#63b8ff" d="M146.27,-167.16C149.21,-166.66 152.14,-166.18 155,-165.75 306.02,-143.01 485.52,-130.07 576.96,-124.47"/>
<polygon fill="#63b8ff" stroke="#63b8ff" points="576.92,-127.98 586.69,-123.89 576.5,-120.99 576.92,-127.98"/>
</a>
</g>
</g>
<!-- Node18&#45;&gt;Node13 -->
<g id="edge26_Node000018_Node000013" class="edge">
<title>Node18&#45;&gt;Node13</title>
<g id="a_edge26_Node000018_Node000013"><a xlink:title=" ">
<path fill="none" stroke="#63b8ff" d="M146.39,-165.37C187.91,-155.14 242.53,-141.69 280.58,-132.31"/>
<polygon fill="#63b8ff" stroke="#63b8ff" points="281,-135.81 289.87,-130.02 279.33,-129.02 281,-135.81"/>
</a>
</g>
</g>
<!-- Node18&#45;&gt;Node15 -->
<g id="edge27_Node000018_Node000015" class="edge">
<title>Node18&#45;&gt;Node15</title>
<g id="a_edge27_Node000018_Node000015"><a xlink:title=" ">
<path fill="none" stroke="#63b8ff" d="M124.71,-165.3C150.66,-155.18 184.62,-141.94 208.57,-132.6"/>
<polygon fill="#63b8ff" stroke="#63b8ff" points="209.66,-135.93 217.71,-129.04 207.12,-129.41 209.66,-135.93"/>
</a>
</g>
</g>
<!-- Node19&#45;&gt;Node5 -->
<g id="edge29_Node000019_Node000005" class="edge">
<title>Node19&#45;&gt;Node5</title>
<g id="a_edge29_Node000019_Node000005"><a xlink:title=" ">
<path fill="none" stroke="#63b8ff" d="M279.69,-167.42C282.83,-166.83 285.95,-166.27 289,-165.75 389.54,-148.64 507.42,-134.82 576.96,-127.31"/>
<polygon fill="#63b8ff" stroke="#63b8ff" points="577.04,-130.82 586.61,-126.28 576.29,-123.86 577.04,-130.82"/>
</a>
</g>
</g>
<!-- Node19&#45;&gt;Node13 -->
<g id="edge30_Node000019_Node000013" class="edge">
<title>Node19&#45;&gt;Node13</title>
<g id="a_edge30_Node000019_Node000013"><a xlink:title=" ">
<path fill="none" stroke="#63b8ff" d="M247.98,-165.3C263.97,-156.24 284.38,-144.69 300.32,-135.66"/>
<polygon fill="#63b8ff" stroke="#63b8ff" points="301.76,-138.87 308.73,-130.9 298.31,-132.78 301.76,-138.87"/>
</a>
</g>
</g>
<!-- Node19&#45;&gt;Node15 -->
<g id="edge31_Node000019_Node000015" class="edge">
<title>Node19&#45;&gt;Node15</title>
<g id="a_edge31_Node000019_Node000015"><a xlink:title=" ">
<path fill="none" stroke="#63b8ff" d="M225.96,-165.45C227.95,-158.12 230.39,-149.12 232.56,-141.16"/>
<polygon fill="#63b8ff" stroke="#63b8ff" points="235.89,-142.23 235.14,-131.66 229.14,-140.39 235.89,-142.23"/>
</a>
</g>
</g>
<!-- Node20&#45;&gt;Node5 -->
<g id="edge35_Node000020_Node000005" class="edge">
<title>Node20&#45;&gt;Node5</title>
<g id="a_edge35_Node000020_Node000005"><a xlink:title=" ">
<path fill="none" stroke="#63b8ff" d="M1113.55,-174.57C1017.27,-163.77 802.12,-139.64 697.05,-127.86"/>
<polygon fill="#63b8ff" stroke="#63b8ff" points="697.55,-124.39 687.22,-126.76 696.77,-131.35 697.55,-124.39"/>
</a>
</g>
</g>
<!-- Node20&#45;&gt;Node8 -->
<g id="edge37_Node000020_Node000008" class="edge">
<title>Node20&#45;&gt;Node8</title>
<g id="a_edge37_Node000020_Node000008"><a xlink:title=" ">
<path fill="none" stroke="#63b8ff" d="M1158.57,-170.98C1148.62,-145.18 1119.19,-71.89 1100,-55.25 1073.91,-32.62 1036,-21.4 1007,-15.87"/>
<polygon fill="#63b8ff" stroke="#63b8ff" points="1007.91,-12.48 997.46,-14.22 1006.71,-19.37 1007.91,-12.48"/>
</a>
</g>
</g>
<!-- Node21 -->
<g id="Node000021" class="node">
<title>Node21</title>
<g id="a_Node000021"><a xlink:title=" ">
<polygon fill="#e0e0e0" stroke="#999999" points="1195.88,-129.75 1152.12,-129.75 1152.12,-110.5 1195.88,-110.5 1195.88,-129.75"/>
<text text-anchor="middle" x="1174" y="-116.25" font-family="Helvetica,sans-Serif" font-size="10.00">format</text>
</a>
</g>
</g>
<!-- Node20&#45;&gt;Node21 -->
<g id="edge36_Node000020_Node000021" class="edge">
<title>Node20&#45;&gt;Node21</title>
<g id="a_edge36_Node000020_Node000021"><a xlink:title=" ">
<path fill="none" stroke="#63b8ff" d="M1163.82,-171.06C1165.43,-163.19 1167.82,-151.45 1169.88,-141.32"/>
<polygon fill="#63b8ff" stroke="#63b8ff" points="1173.29,-142.13 1171.86,-131.63 1166.43,-140.73 1173.29,-142.13"/>
</a>
</g>
</g>
<!-- Node23 -->
<g id="Node000023" class="node">
<title>Node23</title>
<g id="a_Node000023"><a xlink:title=" ">
<polygon fill="#e0e0e0" stroke="#999999" points="1263.38,-190.62 1228.62,-190.62 1228.62,-171.38 1263.38,-171.38 1263.38,-190.62"/>
<text text-anchor="middle" x="1246" y="-177.12" font-family="Helvetica,sans-Serif" font-size="10.00">print</text>
</a>
</g>
</g>
<!-- Node22&#45;&gt;Node23 -->
<g id="edge39_Node000022_Node000023" class="edge">
<title>Node22&#45;&gt;Node23</title>
<g id="a_edge39_Node000022_Node000023"><a xlink:title=" ">
<path fill="none" stroke="#63b8ff" d="M1192.57,-231.93C1202,-223.12 1216.65,-209.43 1228.23,-198.61"/>
<polygon fill="#63b8ff" stroke="#63b8ff" points="1230.32,-201.44 1235.24,-192.06 1225.54,-196.33 1230.32,-201.44"/>
</a>
</g>
</g>
</g>
</svg>

<g id="navigator" transform="translate(0 0)" fill="#404254">
  <rect fill="#f2f5e9" fill-opacity="0.5" stroke="#606060" stroke-width=".5" x="0" y="0" width="60" height="60"/>
  <use id="zoomplus" xlink:href="#zoomPlus" x="17" y="9" onmousedown="handleZoom(evt,'in')"/>
  <use id="zoomminus" xlink:href="#zoomMin" x="42" y="9" onmousedown="handleZoom(evt,'out')"/>
  <use id="reset" xlink:href="#resetDef" x="30" y="36" onmousedown="handleReset()"/>
   <use id="arrowup" xlink:href="#arrowUp" x="0" y="0" onmousedown="handlePan(0,-1)"/>
  <use id="arrowright" xlink:href="#arrowRight" x="0" y="0" onmousedown="handlePan(1,0)"/>
  <use id="arrowdown" xlink:href="#arrowDown" x="0" y="0" onmousedown="handlePan(0,1)"/>
  <use id="arrowleft" xlink:href="#arrowLeft" x="0" y="0" onmousedown="handlePan(-1,0)"/>
</g>
<svg viewBox="0 0 15 15" width="100%" height="30px" preserveAspectRatio="xMaxYMin meet">
 <g id="arrow_out" transform="scale(0.3 0.3)">
  <a xlink:href="kalman__constructor__default__5x4x3_8cpp__incl_org.svg" target="_base">
   <rect id="button" ry="5" rx="5" y="6" x="6" height="38" width="38"
        fill="#f2f5e9" fill-opacity="0.5" stroke="#606060" stroke-width="1.0"/>
   <path id="arrow"
     d="M 11.500037,31.436501 C 11.940474,20.09759 22.043105,11.32322 32.158766,21.979434 L 37.068811,17.246167 C 37.068811,17.246167 37.088388,32 37.088388,32 L 22.160133,31.978069 C 22.160133,31.978069 26.997745,27.140456 26.997745,27.140456 C 18.528582,18.264221 13.291696,25.230495 11.500037,31.436501 z"
     style="fill:#404040;"/>
  </a>
 </g>
</svg>

<style type='text/css'>
<![CDATA[
[data-mouse-over-selected='false'] { opacity: 0.7; }
[data-mouse-over-selected='true']  { opacity: 1.0; }
]]>
</style>
<script type="application/ecmascript"><![CDATA[
document.addEventListener('DOMContentLoaded', (event) => {
  highlightEdges();
  highlightAdjacentNodes();
});
]]></script>
</svg>
