<?xml version="1.0" encoding="UTF-8" standalone="no"?>
<!DOCTYPE svg PUBLIC "-//W3C//DTD SVG 1.1//EN"
 "http://www.w3.org/Graphics/SVG/1.1/DTD/svg11.dtd">
<!-- Generated by graphviz version 12.2.0 (20241103.1931)
 -->
<!-- Title: /github/workspace/test/kalman_format_unrelated.cpp Pages: 1 -->
<svg width="1745pt" height="337pt"
 viewBox="0.00 0.00 1744.55 337.25" xmlns="http://www.w3.org/2000/svg" xmlns:xlink="http://www.w3.org/1999/xlink">
<g id="graph0" class="graph" transform="scale(1 1) rotate(0) translate(4 333.25)">
<title>/github/workspace/test/kalman_format_unrelated.cpp</title>
<!-- Node1 -->
<g id="Node000001" class="node">
<title>Node1</title>
<g id="a_Node000001"><a xlink:title=" ">
<polygon fill="#999999" stroke="#666666" points="1638.92,-329.25 1492.42,-329.25 1492.42,-298.75 1638.92,-298.75 1638.92,-329.25"/>
<text text-anchor="start" x="1500.42" y="-315.75" font-family="Helvetica,sans-Serif" font-size="10.00">/github/workspace/test</text>
<text text-anchor="middle" x="1565.67" y="-304.5" font-family="Helvetica,sans-Serif" font-size="10.00">/kalman_format_unrelated.cpp</text>
</a>
</g>
</g>
<!-- Node2 -->
<g id="Node000002" class="node">
<title>Node2</title>
<g id="a_Node000002"><a xlink:href="kalman_8hpp.xhtml" target="_top" xlink:title="The Kalman filter class and library top&#45;level header.">
<polygon fill="white" stroke="#666666" points="1497.67,-262.75 1391.67,-262.75 1391.67,-243.5 1497.67,-243.5 1497.67,-262.75"/>
<text text-anchor="middle" x="1444.67" y="-249.25" font-family="Helvetica,sans-Serif" font-size="10.00">fcarouge/kalman.hpp</text>
</a>
</g>
</g>
<!-- Node1&#45;&gt;Node2 -->
<g id="edge1_Node000001_Node000002" class="edge">
<title>Node1&#45;&gt;Node2</title>
<g id="a_edge1_Node000001_Node000002"><a xlink:title=" ">
<path fill="none" stroke="#63b8ff" d="M1535.45,-298.3C1516.49,-289.07 1492.19,-277.25 1473.5,-268.15"/>
<polygon fill="#63b8ff" stroke="#63b8ff" points="1475.11,-265.04 1464.59,-263.82 1472.05,-271.34 1475.11,-265.04"/>
</a>
</g>
</g>
<!-- Node27 -->
<g id="Node000027" class="node">
<title>Node27</title>
<g id="a_Node000027"><a xlink:title=" ">
<polygon fill="#e0e0e0" stroke="#999999" points="1736.55,-135.38 1692.8,-135.38 1692.8,-116.12 1736.55,-116.12 1736.55,-135.38"/>
<text text-anchor="middle" x="1714.67" y="-121.88" font-family="Helvetica,sans-Serif" font-size="10.00">format</text>
</a>
</g>
</g>
<!-- Node1&#45;&gt;Node27 -->
<g id="edge56_Node000001_Node000027" class="edge">
<title>Node1&#45;&gt;Node27</title>
<g id="a_edge56_Node000001_Node000027"><a xlink:title=" ">
<path fill="none" stroke="#63b8ff" d="M1577.36,-298.39C1604.44,-264.54 1671.38,-180.86 1700.62,-144.31"/>
<polygon fill="#63b8ff" stroke="#63b8ff" points="1703.04,-146.89 1706.56,-136.89 1697.58,-142.51 1703.04,-146.89"/>
</a>
</g>
</g>
<!-- Node3 -->
<g id="Node000003" class="node">
<title>Node3</title>
<g id="a_Node000003"><a xlink:href="factory_8hpp.xhtml" target="_top" xlink:title=" ">
<polygon fill="white" stroke="#666666" points="779.3,-207.5 674.05,-207.5 674.05,-177 779.3,-177 779.3,-207.5"/>
<text text-anchor="start" x="682.05" y="-194" font-family="Helvetica,sans-Serif" font-size="10.00">kalman_filter/internal</text>
<text text-anchor="middle" x="726.67" y="-182.75" font-family="Helvetica,sans-Serif" font-size="10.00">/factory.hpp</text>
</a>
</g>
</g>
<!-- Node2&#45;&gt;Node3 -->
<g id="edge2_Node000002_Node000003" class="edge">
<title>Node2&#45;&gt;Node3</title>
<g id="a_edge2_Node000002_Node000003"><a xlink:title=" ">
<path fill="none" stroke="#63b8ff" d="M1391.29,-247.75C1261.69,-237.12 930.78,-209.99 790.77,-198.51"/>
<polygon fill="#63b8ff" stroke="#63b8ff" points="791.19,-195.03 780.94,-197.7 790.62,-202.01 791.19,-195.03"/>
</a>
</g>
</g>
<!-- Node5 -->
<g id="Node000005" class="node">
<title>Node5</title>
<g id="a_Node000005"><a xlink:href="utility_8hpp.xhtml" target="_top" xlink:title=" ">
<polygon fill="white" stroke="#666666" points="963.92,-74.5 907.42,-74.5 907.42,-55.25 963.92,-55.25 963.92,-74.5"/>
<text text-anchor="middle" x="935.67" y="-61" font-family="Helvetica,sans-Serif" font-size="10.00">utility.hpp</text>
</a>
</g>
</g>
<!-- Node2&#45;&gt;Node5 -->
<g id="edge53_Node000002_Node000005" class="edge">
<title>Node2&#45;&gt;Node5</title>
<g id="a_edge53_Node000002_Node000005"><a xlink:title=" ">
<path fill="none" stroke="#63b8ff" d="M1418.42,-243.06C1372.72,-226.64 1276.6,-189.14 1204.67,-141 1188.07,-129.89 1189.51,-119.48 1171.67,-110.5 1108.02,-78.45 1024.17,-69.3 975.46,-66.77"/>
<polygon fill="#63b8ff" stroke="#63b8ff" points="975.82,-63.28 965.67,-66.33 975.51,-70.27 975.82,-63.28"/>
</a>
</g>
</g>
<!-- Node23 -->
<g id="Node000023" class="node">
<title>Node23</title>
<g id="a_Node000023"><a xlink:href="format_8hpp.xhtml" target="_top" xlink:title="Formatting support for the Kalman filter.">
<polygon fill="white" stroke="#666666" points="1497.3,-207.5 1392.05,-207.5 1392.05,-177 1497.3,-177 1497.3,-207.5"/>
<text text-anchor="start" x="1400.05" y="-194" font-family="Helvetica,sans-Serif" font-size="10.00">kalman_filter/internal</text>
<text text-anchor="middle" x="1444.67" y="-182.75" font-family="Helvetica,sans-Serif" font-size="10.00">/format.hpp</text>
</a>
</g>
</g>
<!-- Node2&#45;&gt;Node23 -->
<g id="edge42_Node000002_Node000023" class="edge">
<title>Node2&#45;&gt;Node23</title>
<g id="a_edge42_Node000002_Node000023"><a xlink:title=" ">
<path fill="none" stroke="#63b8ff" d="M1444.67,-243.18C1444.67,-236.73 1444.67,-227.66 1444.67,-219.01"/>
<polygon fill="#63b8ff" stroke="#63b8ff" points="1448.17,-219.3 1444.67,-209.3 1441.17,-219.3 1448.17,-219.3"/>
</a>
</g>
</g>
<!-- Node24 -->
<g id="Node000024" class="node">
<title>Node24</title>
<g id="a_Node000024"><a xlink:href="kalman__forward_8hpp.xhtml" target="_top" xlink:title="Authoritative forward declaration header.">
<polygon fill="white" stroke="#666666" points="1674.42,-135.38 1530.92,-135.38 1530.92,-116.12 1674.42,-116.12 1674.42,-135.38"/>
<text text-anchor="middle" x="1602.67" y="-121.88" font-family="Helvetica,sans-Serif" font-size="10.00">fcarouge/kalman_forward.hpp</text>
</a>
</g>
</g>
<!-- Node2&#45;&gt;Node24 -->
<g id="edge54_Node000002_Node000024" class="edge">
<title>Node2&#45;&gt;Node24</title>
<g id="a_edge54_Node000002_Node000024"><a xlink:title=" ">
<path fill="none" stroke="#63b8ff" d="M1498.15,-246.53C1546.84,-240.2 1613.52,-228.01 1629.67,-207.5 1644.33,-188.88 1630.04,-161.92 1617.31,-144.36"/>
<polygon fill="#63b8ff" stroke="#63b8ff" points="1620.41,-142.64 1611.52,-136.88 1614.88,-146.93 1620.41,-142.64"/>
</a>
</g>
</g>
<!-- Node25 -->
<g id="Node000025" class="node">
<title>Node25</title>
<g id="a_Node000025"><a xlink:href="print_8hpp.xhtml" target="_top" xlink:title=" ">
<polygon fill="white" stroke="#666666" points="1417.05,-135.38 1364.3,-135.38 1364.3,-116.12 1417.05,-116.12 1417.05,-135.38"/>
<text text-anchor="middle" x="1390.67" y="-121.88" font-family="Helvetica,sans-Serif" font-size="10.00">print.hpp</text>
</a>
</g>
</g>
<!-- Node2&#45;&gt;Node25 -->
<g id="edge52_Node000002_Node000025" class="edge">
<title>Node2&#45;&gt;Node25</title>
<g id="a_edge52_Node000002_Node000025"><a xlink:title=" ">
<path fill="none" stroke="#63b8ff" d="M1423.23,-243.12C1408.89,-235.82 1391.14,-224.02 1382.67,-207.5 1372.86,-188.35 1377.6,-163.3 1383.03,-146.21"/>
<polygon fill="#63b8ff" stroke="#63b8ff" points="1386.16,-147.85 1386.21,-137.25 1379.57,-145.5 1386.16,-147.85"/>
</a>
</g>
</g>
<!-- Node28 -->
<g id="Node000028" class="node">
<title>Node28</title>
<g id="a_Node000028"><a xlink:title=" ">
<polygon fill="#e0e0e0" stroke="#999999" points="1620.3,-207.5 1515.05,-207.5 1515.05,-177 1620.3,-177 1620.3,-207.5"/>
<text text-anchor="start" x="1523.05" y="-194" font-family="Helvetica,sans-Serif" font-size="10.00">kalman_filter/internal</text>
<text text-anchor="middle" x="1567.67" y="-182.75" font-family="Helvetica,sans-Serif" font-size="10.00">/kalman.tpp</text>
</a>
</g>
</g>
<!-- Node2&#45;&gt;Node28 -->
<g id="edge55_Node000002_Node000028" class="edge">
<title>Node2&#45;&gt;Node28</title>
<g id="a_edge55_Node000002_Node000028"><a xlink:title=" ">
<path fill="none" stroke="#63b8ff" d="M1463.62,-243.05C1480.41,-235.02 1505.51,-223 1526.85,-212.79"/>
<polygon fill="#63b8ff" stroke="#63b8ff" points="1528.1,-216.07 1535.61,-208.6 1525.07,-209.76 1528.1,-216.07"/>
</a>
</g>
</g>
<!-- Node4 -->
<g id="Node000004" class="node">
<title>Node4</title>
<g id="a_Node000004"><a xlink:href="type_8hpp.xhtml" target="_top" xlink:title=" ">
<polygon fill="white" stroke="#666666" points="1308.67,-135.38 1256.67,-135.38 1256.67,-116.12 1308.67,-116.12 1308.67,-135.38"/>
<text text-anchor="middle" x="1282.67" y="-121.88" font-family="Helvetica,sans-Serif" font-size="10.00">type.hpp</text>
</a>
</g>
</g>
<!-- Node3&#45;&gt;Node4 -->
<g id="edge3_Node000003_Node000004" class="edge">
<title>Node3&#45;&gt;Node4</title>
<g id="a_edge3_Node000003_Node000004"><a xlink:title=" ">
<path fill="none" stroke="#63b8ff" d="M779.79,-185.52C863.26,-176.45 1030.22,-158.06 1171.67,-141 1196.08,-138.05 1223.49,-134.54 1244.96,-131.74"/>
<polygon fill="#63b8ff" stroke="#63b8ff" points="1245.26,-135.23 1254.72,-130.46 1244.35,-128.29 1245.26,-135.23"/>
</a>
</g>
</g>
<!-- Node6 -->
<g id="Node000006" class="node">
<title>Node6</title>
<g id="a_Node000006"><a xlink:title=" ">
<polygon fill="#e0e0e0" stroke="#999999" points="215.55,-19.25 159.8,-19.25 159.8,0 215.55,0 215.55,-19.25"/>
<text text-anchor="middle" x="187.67" y="-5.75" font-family="Helvetica,sans-Serif" font-size="10.00">concepts</text>
</a>
</g>
</g>
<!-- Node3&#45;&gt;Node6 -->
<g id="edge39_Node000003_Node000006" class="edge">
<title>Node3&#45;&gt;Node6</title>
<g id="a_edge39_Node000003_Node000006"><a xlink:title=" ">
<path fill="none" stroke="#63b8ff" d="M673.72,-191.58C515.84,-192.03 56.56,-189.16 11.67,-141 -37.6,-88.15 83.23,-41.93 148.79,-21.61"/>
<polygon fill="#63b8ff" stroke="#63b8ff" points="149.57,-25.04 158.12,-18.79 147.54,-18.34 149.57,-25.04"/>
</a>
</g>
</g>
<!-- Node9 -->
<g id="Node000009" class="node">
<title>Node9</title>
<g id="a_Node000009"><a xlink:title=" ">
<polygon fill="#e0e0e0" stroke="#999999" points="491.17,-19.25 454.17,-19.25 454.17,0 491.17,0 491.17,-19.25"/>
<text text-anchor="middle" x="472.67" y="-5.75" font-family="Helvetica,sans-Serif" font-size="10.00">tuple</text>
</a>
</g>
</g>
<!-- Node3&#45;&gt;Node9 -->
<g id="edge40_Node000003_Node000009" class="edge">
<title>Node3&#45;&gt;Node9</title>
<g id="a_edge40_Node000003_Node000009"><a xlink:title=" ">
<path fill="none" stroke="#63b8ff" d="M673.7,-191.52C517.48,-191.78 66.77,-188.36 22.67,-141 13.43,-131.08 14.25,-121.12 22.67,-110.5 75.49,-43.89 350.59,-19.05 442.63,-12.53"/>
<polygon fill="#63b8ff" stroke="#63b8ff" points="442.64,-16.04 452.38,-11.86 442.16,-9.05 442.64,-16.04"/>
</a>
</g>
</g>
<!-- Node10 -->
<g id="Node000010" class="node">
<title>Node10</title>
<g id="a_Node000010"><a xlink:title=" ">
<polygon fill="#e0e0e0" stroke="#999999" points="1321.17,-19.25 1260.17,-19.25 1260.17,0 1321.17,0 1321.17,-19.25"/>
<text text-anchor="middle" x="1290.67" y="-5.75" font-family="Helvetica,sans-Serif" font-size="10.00">type_traits</text>
</a>
</g>
</g>
<!-- Node3&#45;&gt;Node10 -->
<g id="edge41_Node000003_Node000010" class="edge">
<title>Node3&#45;&gt;Node10</title>
<g id="a_edge41_Node000003_Node000010"><a xlink:title=" ">
<path fill="none" stroke="#63b8ff" d="M779.63,-190.74C917.9,-188.87 1281.64,-180.22 1317.67,-141 1346.23,-109.91 1320.29,-56.81 1303.08,-28.94"/>
<polygon fill="#63b8ff" stroke="#63b8ff" points="1306.23,-27.36 1297.87,-20.86 1300.35,-31.16 1306.23,-27.36"/>
</a>
</g>
</g>
<!-- Node13 -->
<g id="Node000013" class="node">
<title>Node13</title>
<g id="a_Node000013"><a xlink:href="x__z__p__q__r_8hpp.xhtml" target="_top" xlink:title=" ">
<polygon fill="white" stroke="#666666" points="869.42,-135.38 791.92,-135.38 791.92,-116.12 869.42,-116.12 869.42,-135.38"/>
<text text-anchor="middle" x="830.67" y="-121.88" font-family="Helvetica,sans-Serif" font-size="10.00">x_z_p_q_r.hpp</text>
</a>
</g>
</g>
<!-- Node3&#45;&gt;Node13 -->
<g id="edge13_Node000003_Node000013" class="edge">
<title>Node3&#45;&gt;Node13</title>
<g id="a_edge13_Node000003_Node000013"><a xlink:title=" ">
<path fill="none" stroke="#63b8ff" d="M750.27,-176.61C767.05,-166.21 789.51,-152.28 806.43,-141.79"/>
<polygon fill="#63b8ff" stroke="#63b8ff" points="808.2,-144.8 814.86,-136.56 804.51,-138.85 808.2,-144.8"/>
</a>
</g>
</g>
<!-- Node14 -->
<g id="Node000014" class="node">
<title>Node14</title>
<g id="a_Node000014"><a xlink:href="x__z__p__q__r__h__f_8hpp.xhtml" target="_top" xlink:title=" ">
<polygon fill="white" stroke="#666666" points="983.8,-135.38 887.55,-135.38 887.55,-116.12 983.8,-116.12 983.8,-135.38"/>
<text text-anchor="middle" x="935.67" y="-121.88" font-family="Helvetica,sans-Serif" font-size="10.00">x_z_p_q_r_h_f.hpp</text>
</a>
</g>
</g>
<!-- Node3&#45;&gt;Node14 -->
<g id="edge15_Node000003_Node000014" class="edge">
<title>Node3&#45;&gt;Node14</title>
<g id="a_edge15_Node000003_Node000014"><a xlink:title=" ">
<path fill="none" stroke="#63b8ff" d="M774.36,-176.53C810.99,-165.23 861.01,-149.79 895.6,-139.12"/>
<polygon fill="#63b8ff" stroke="#63b8ff" points="896.28,-142.57 904.8,-136.28 894.21,-135.88 896.28,-142.57"/>
</a>
</g>
</g>
<!-- Node15 -->
<g id="Node000015" class="node">
<title>Node15</title>
<g id="a_Node000015"><a xlink:href="x__z__p__q__r__hh__f__us__ps_8hpp.xhtml" target="_top" xlink:title=" ">
<polygon fill="white" stroke="#666666" points="404.17,-135.38 271.17,-135.38 271.17,-116.12 404.17,-116.12 404.17,-135.38"/>
<text text-anchor="middle" x="337.67" y="-121.88" font-family="Helvetica,sans-Serif" font-size="10.00">x_z_p_q_r_hh_f_us_ps.hpp</text>
</a>
</g>
</g>
<!-- Node3&#45;&gt;Node15 -->
<g id="edge17_Node000003_Node000015" class="edge">
<title>Node3&#45;&gt;Node15</title>
<g id="a_edge17_Node000003_Node000015"><a xlink:title=" ">
<path fill="none" stroke="#63b8ff" d="M673.81,-183.27C611.34,-173.73 504.3,-157.03 412.67,-141 407.1,-140.03 401.31,-138.98 395.51,-137.91"/>
<polygon fill="#63b8ff" stroke="#63b8ff" points="396.4,-134.52 385.93,-136.13 395.12,-141.4 396.4,-134.52"/>
</a>
</g>
</g>
<!-- Node16 -->
<g id="Node000016" class="node">
<title>Node16</title>
<g id="a_Node000016"><a xlink:href="x__z__p__q__r__hh__ff__ps_8hpp.xhtml" target="_top" xlink:title=" ">
<polygon fill="white" stroke="#666666" points="661.42,-135.38 541.92,-135.38 541.92,-116.12 661.42,-116.12 661.42,-135.38"/>
<text text-anchor="middle" x="601.67" y="-121.88" font-family="Helvetica,sans-Serif" font-size="10.00">x_z_p_q_r_hh_ff_ps.hpp</text>
</a>
</g>
</g>
<!-- Node3&#45;&gt;Node16 -->
<g id="edge20_Node000003_Node000016" class="edge">
<title>Node3&#45;&gt;Node16</title>
<g id="a_edge20_Node000003_Node000016"><a xlink:title=" ">
<path fill="none" stroke="#63b8ff" d="M698.31,-176.61C677.57,-165.92 649.61,-151.49 629.1,-140.9"/>
<polygon fill="#63b8ff" stroke="#63b8ff" points="630.97,-137.93 620.48,-136.45 627.76,-144.15 630.97,-137.93"/>
</a>
</g>
</g>
<!-- Node17 -->
<g id="Node000017" class="node">
<title>Node17</title>
<g id="a_Node000017"><a xlink:href="x__z__p__qq__rr__f_8hpp.xhtml" target="_top" xlink:title=" ">
<polygon fill="white" stroke="#666666" points="773.67,-135.38 679.67,-135.38 679.67,-116.12 773.67,-116.12 773.67,-135.38"/>
<text text-anchor="middle" x="726.67" y="-121.88" font-family="Helvetica,sans-Serif" font-size="10.00">x_z_p_qq_rr_f.hpp</text>
</a>
</g>
</g>
<!-- Node3&#45;&gt;Node17 -->
<g id="edge23_Node000003_Node000017" class="edge">
<title>Node3&#45;&gt;Node17</title>
<g id="a_edge23_Node000003_Node000017"><a xlink:title=" ">
<path fill="none" stroke="#63b8ff" d="M726.67,-176.61C726.67,-167.83 726.67,-156.52 726.67,-146.9"/>
<polygon fill="#63b8ff" stroke="#63b8ff" points="730.17,-147.09 726.67,-137.09 723.17,-147.09 730.17,-147.09"/>
</a>
</g>
</g>
<!-- Node18 -->
<g id="Node000018" class="node">
<title>Node18</title>
<g id="a_Node000018"><a xlink:href="x__z__p__r_8hpp.xhtml" target="_top" xlink:title=" ">
<polygon fill="white" stroke="#666666" points="1069.17,-135.38 1002.17,-135.38 1002.17,-116.12 1069.17,-116.12 1069.17,-135.38"/>
<text text-anchor="middle" x="1035.67" y="-121.88" font-family="Helvetica,sans-Serif" font-size="10.00">x_z_p_r.hpp</text>
</a>
</g>
</g>
<!-- Node3&#45;&gt;Node18 -->
<g id="edge26_Node000003_Node000018" class="edge">
<title>Node3&#45;&gt;Node18</title>
<g id="a_edge26_Node000003_Node000018"><a xlink:title=" ">
<path fill="none" stroke="#63b8ff" d="M779.62,-183.38C833.63,-174.86 919.65,-159.91 992.67,-141 994.93,-140.41 997.25,-139.77 999.57,-139.1"/>
<polygon fill="#63b8ff" stroke="#63b8ff" points="1000.41,-142.5 1008.93,-136.2 998.34,-135.82 1000.41,-142.5"/>
</a>
</g>
</g>
<!-- Node19 -->
<g id="Node000019" class="node">
<title>Node19</title>
<g id="a_Node000019"><a xlink:href="x__z__p__r__f_8hpp.xhtml" target="_top" xlink:title=" ">
<polygon fill="white" stroke="#666666" points="1162.3,-135.38 1087.05,-135.38 1087.05,-116.12 1162.3,-116.12 1162.3,-135.38"/>
<text text-anchor="middle" x="1124.67" y="-121.88" font-family="Helvetica,sans-Serif" font-size="10.00">x_z_p_r_f.hpp</text>
</a>
</g>
</g>
<!-- Node3&#45;&gt;Node19 -->
<g id="edge28_Node000003_Node000019" class="edge">
<title>Node3&#45;&gt;Node19</title>
<g id="a_edge28_Node000003_Node000019"><a xlink:title=" ">
<path fill="none" stroke="#63b8ff" d="M779.62,-186.34C848.92,-179.3 973.87,-164.56 1078.67,-141 1081.45,-140.37 1084.31,-139.66 1087.18,-138.9"/>
<polygon fill="#63b8ff" stroke="#63b8ff" points="1088.01,-142.3 1096.65,-136.18 1086.08,-135.57 1088.01,-142.3"/>
</a>
</g>
</g>
<!-- Node20 -->
<g id="Node000020" class="node">
<title>Node20</title>
<g id="a_Node000020"><a xlink:href="x__z__u__p__q__r_8hpp.xhtml" target="_top" xlink:title=" ">
<polygon fill="white" stroke="#666666" points="119.67,-135.38 31.67,-135.38 31.67,-116.12 119.67,-116.12 119.67,-135.38"/>
<text text-anchor="middle" x="75.67" y="-121.88" font-family="Helvetica,sans-Serif" font-size="10.00">x_z_u_p_q_r.hpp</text>
</a>
</g>
</g>
<!-- Node3&#45;&gt;Node20 -->
<g id="edge30_Node000003_Node000020" class="edge">
<title>Node3&#45;&gt;Node20</title>
<g id="a_edge30_Node000003_Node000020"><a xlink:title=" ">
<path fill="none" stroke="#63b8ff" d="M673.87,-189.98C569.15,-186.76 328.02,-175.89 128.67,-141 124.8,-140.32 120.8,-139.49 116.81,-138.58"/>
<polygon fill="#63b8ff" stroke="#63b8ff" points="117.75,-135.21 107.2,-136.2 116.06,-142 117.75,-135.21"/>
</a>
</g>
</g>
<!-- Node21 -->
<g id="Node000021" class="node">
<title>Node21</title>
<g id="a_Node000021"><a xlink:href="x__z__u__p__q__r__h__f__g__us__ps_8hpp.xhtml" target="_top" xlink:title=" ">
<polygon fill="white" stroke="#666666" points="253.17,-141 138.17,-141 138.17,-110.5 253.17,-110.5 253.17,-141"/>
<text text-anchor="start" x="146.17" y="-127.5" font-family="Helvetica,sans-Serif" font-size="10.00">x_z_u_p_q_r_h_f_g_us</text>
<text text-anchor="middle" x="195.67" y="-116.25" font-family="Helvetica,sans-Serif" font-size="10.00">_ps.hpp</text>
</a>
</g>
</g>
<!-- Node3&#45;&gt;Node21 -->
<g id="edge33_Node000003_Node000021" class="edge">
<title>Node3&#45;&gt;Node21</title>
<g id="a_edge33_Node000003_Node000021"><a xlink:title=" ">
<path fill="none" stroke="#63b8ff" d="M673.78,-187.35C589.27,-180.73 418.42,-165.71 264.6,-141.38"/>
<polygon fill="#63b8ff" stroke="#63b8ff" points="265.48,-137.97 255.05,-139.85 264.37,-144.88 265.48,-137.97"/>
</a>
</g>
</g>
<!-- Node22 -->
<g id="Node000022" class="node">
<title>Node22</title>
<g id="a_Node000022"><a xlink:href="x__z__u__p__qq__r__ff__gg__ps_8hpp.xhtml" target="_top" xlink:title=" ">
<polygon fill="white" stroke="#666666" points="523.42,-141 421.92,-141 421.92,-110.5 523.42,-110.5 523.42,-141"/>
<text text-anchor="start" x="429.92" y="-127.5" font-family="Helvetica,sans-Serif" font-size="10.00">x_z_u_p_qq_r_ff_gg</text>
<text text-anchor="middle" x="472.67" y="-116.25" font-family="Helvetica,sans-Serif" font-size="10.00">_ps.hpp</text>
</a>
</g>
</g>
<!-- Node3&#45;&gt;Node22 -->
<g id="edge36_Node000003_Node000022" class="edge">
<title>Node3&#45;&gt;Node22</title>
<g id="a_edge36_Node000003_Node000022"><a xlink:title=" ">
<path fill="none" stroke="#63b8ff" d="M673.73,-177.81C633.29,-167.54 577.45,-153.36 534.88,-142.55"/>
<polygon fill="#63b8ff" stroke="#63b8ff" points="535.83,-139.18 525.27,-140.11 534.1,-145.96 535.83,-139.18"/>
</a>
</g>
</g>
<!-- Node4&#45;&gt;Node5 -->
<g id="edge4_Node000004_Node000005" class="edge">
<title>Node4&#45;&gt;Node5</title>
<g id="a_edge4_Node000004_Node000005"><a xlink:title=" ">
<path fill="none" stroke="#63b8ff" d="M1259.64,-115.67C1254.15,-113.75 1248.25,-111.89 1242.67,-110.5 1148.53,-87.13 1034.91,-74.56 975.81,-69.16"/>
<polygon fill="#63b8ff" stroke="#63b8ff" points="976.17,-65.67 965.9,-68.27 975.55,-72.65 976.17,-65.67"/>
</a>
</g>
</g>
<!-- Node4&#45;&gt;Node10 -->
<g id="edge12_Node000004_Node000010" class="edge">
<title>Node4&#45;&gt;Node10</title>
<g id="a_edge12_Node000004_Node000010"><a xlink:title=" ">
<path fill="none" stroke="#63b8ff" d="M1283.3,-115.79C1284.57,-97.63 1287.49,-56.04 1289.25,-30.95"/>
<polygon fill="#63b8ff" stroke="#63b8ff" points="1292.73,-31.27 1289.94,-21.05 1285.75,-30.78 1292.73,-31.27"/>
</a>
</g>
</g>
<!-- Node12 -->
<g id="Node000012" class="node">
<title>Node12</title>
<g id="a_Node000012"><a xlink:title=" ">
<polygon fill="#e0e0e0" stroke="#999999" points="1262.42,-74.5 1190.92,-74.5 1190.92,-55.25 1262.42,-55.25 1262.42,-74.5"/>
<text text-anchor="middle" x="1226.67" y="-61" font-family="Helvetica,sans-Serif" font-size="10.00">initializer_list</text>
</a>
</g>
</g>
<!-- Node4&#45;&gt;Node12 -->
<g id="edge11_Node000004_Node000012" class="edge">
<title>Node4&#45;&gt;Node12</title>
<g id="a_edge11_Node000004_Node000012"><a xlink:title=" ">
<path fill="none" stroke="#63b8ff" d="M1274.17,-115.81C1265.94,-107.16 1253.27,-93.84 1243.08,-83.12"/>
<polygon fill="#63b8ff" stroke="#63b8ff" points="1245.73,-80.83 1236.3,-76 1240.66,-85.66 1245.73,-80.83"/>
</a>
</g>
</g>
<!-- Node5&#45;&gt;Node6 -->
<g id="edge5_Node000005_Node000006" class="edge">
<title>Node5&#45;&gt;Node6</title>
<g id="a_edge5_Node000005_Node000006"><a xlink:title=" ">
<path fill="none" stroke="#63b8ff" d="M907.26,-61.85C792.12,-53.66 360,-22.89 226.92,-13.42"/>
<polygon fill="#63b8ff" stroke="#63b8ff" points="227.44,-9.95 217.22,-12.73 226.95,-16.93 227.44,-9.95"/>
</a>
</g>
</g>
<!-- Node7 -->
<g id="Node000007" class="node">
<title>Node7</title>
<g id="a_Node000007"><a xlink:title=" ">
<polygon fill="#e0e0e0" stroke="#999999" points="1511.8,-19.25 1463.55,-19.25 1463.55,0 1511.8,0 1511.8,-19.25"/>
<text text-anchor="middle" x="1487.67" y="-5.75" font-family="Helvetica,sans-Serif" font-size="10.00">cstddef</text>
</a>
</g>
</g>
<!-- Node5&#45;&gt;Node7 -->
<g id="edge6_Node000005_Node000007" class="edge">
<title>Node5&#45;&gt;Node7</title>
<g id="a_edge6_Node000005_Node000007"><a xlink:title=" ">
<path fill="none" stroke="#63b8ff" d="M964.25,-61.94C1040.4,-56.64 1254.44,-40.85 1431.67,-19.25 1438.3,-18.44 1445.36,-17.46 1452.14,-16.44"/>
<polygon fill="#63b8ff" stroke="#63b8ff" points="1452.34,-19.95 1461.69,-14.97 1451.27,-13.04 1452.34,-19.95"/>
</a>
</g>
</g>
<!-- Node8 -->
<g id="Node000008" class="node">
<title>Node8</title>
<g id="a_Node000008"><a xlink:title=" ">
<polygon fill="#e0e0e0" stroke="#999999" points="960.92,-19.25 910.42,-19.25 910.42,0 960.92,0 960.92,-19.25"/>
<text text-anchor="middle" x="935.67" y="-5.75" font-family="Helvetica,sans-Serif" font-size="10.00">memory</text>
</a>
</g>
</g>
<!-- Node5&#45;&gt;Node8 -->
<g id="edge7_Node000005_Node000008" class="edge">
<title>Node5&#45;&gt;Node8</title>
<g id="a_edge7_Node000005_Node000008"><a xlink:title=" ">
<path fill="none" stroke="#63b8ff" d="M935.67,-55.08C935.67,-48.57 935.67,-39.42 935.67,-31.12"/>
<polygon fill="#63b8ff" stroke="#63b8ff" points="939.17,-31.12 935.67,-21.12 932.17,-31.12 939.17,-31.12"/>
</a>
</g>
</g>
<!-- Node5&#45;&gt;Node9 -->
<g id="edge8_Node000005_Node000009" class="edge">
<title>Node5&#45;&gt;Node9</title>
<g id="a_edge8_Node000005_Node000009"><a xlink:title=" ">
<path fill="none" stroke="#63b8ff" d="M907.06,-60.58C824.56,-51.1 586.79,-23.75 502.63,-14.07"/>
<polygon fill="#63b8ff" stroke="#63b8ff" points="503.2,-10.61 492.87,-12.95 502.4,-17.57 503.2,-10.61"/>
</a>
</g>
</g>
<!-- Node5&#45;&gt;Node10 -->
<g id="edge9_Node000005_Node000010" class="edge">
<title>Node5&#45;&gt;Node10</title>
<g id="a_edge9_Node000005_Node000010"><a xlink:title=" ">
<path fill="none" stroke="#63b8ff" d="M964.12,-59.61C1026.51,-50.25 1175.62,-27.88 1248.76,-16.91"/>
<polygon fill="#63b8ff" stroke="#63b8ff" points="1248.96,-20.42 1258.33,-15.48 1247.92,-13.5 1248.96,-20.42"/>
</a>
</g>
</g>
<!-- Node11 -->
<g id="Node000011" class="node">
<title>Node11</title>
<g id="a_Node000011"><a xlink:title=" ">
<polygon fill="#e0e0e0" stroke="#999999" points="1422.92,-19.25 1384.42,-19.25 1384.42,0 1422.92,0 1422.92,-19.25"/>
<text text-anchor="middle" x="1403.67" y="-5.75" font-family="Helvetica,sans-Serif" font-size="10.00">utility</text>
</a>
</g>
</g>
<!-- Node5&#45;&gt;Node11 -->
<g id="edge10_Node000005_Node000011" class="edge">
<title>Node5&#45;&gt;Node11</title>
<g id="a_edge10_Node000005_Node000011"><a xlink:title=" ">
<path fill="none" stroke="#63b8ff" d="M963.94,-60.73C1028.78,-53.51 1193.22,-35.13 1330.67,-19.25 1344.55,-17.65 1359.91,-15.84 1372.95,-14.29"/>
<polygon fill="#63b8ff" stroke="#63b8ff" points="1373.13,-17.79 1382.65,-13.14 1372.31,-10.84 1373.13,-17.79"/>
</a>
</g>
</g>
<!-- Node13&#45;&gt;Node5 -->
<g id="edge14_Node000013_Node000005" class="edge">
<title>Node13&#45;&gt;Node5</title>
<g id="a_edge14_Node000013_Node000005"><a xlink:title=" ">
<path fill="none" stroke="#63b8ff" d="M846.62,-115.81C863.35,-106.43 889.91,-91.54 909.67,-80.45"/>
<polygon fill="#63b8ff" stroke="#63b8ff" points="911.24,-83.58 918.25,-75.64 907.82,-77.48 911.24,-83.58"/>
</a>
</g>
</g>
<!-- Node14&#45;&gt;Node5 -->
<g id="edge16_Node000014_Node000005" class="edge">
<title>Node14&#45;&gt;Node5</title>
<g id="a_edge16_Node000014_Node000005"><a xlink:title=" ">
<path fill="none" stroke="#63b8ff" d="M935.67,-115.81C935.67,-108.03 935.67,-96.45 935.67,-86.41"/>
<polygon fill="#63b8ff" stroke="#63b8ff" points="939.17,-86.41 935.67,-76.41 932.17,-86.41 939.17,-86.41"/>
</a>
</g>
</g>
<!-- Node15&#45;&gt;Node5 -->
<g id="edge18_Node000015_Node000005" class="edge">
<title>Node15&#45;&gt;Node5</title>
<g id="a_edge18_Node000015_Node000005"><a xlink:title=" ">
<path fill="none" stroke="#63b8ff" d="M381.57,-115.63C391.75,-113.73 402.56,-111.89 412.67,-110.5 591.99,-85.88 807.88,-72.6 895.65,-67.89"/>
<polygon fill="#63b8ff" stroke="#63b8ff" points="895.61,-71.39 905.41,-67.37 895.24,-64.4 895.61,-71.39"/>
</a>
</g>
</g>
<!-- Node15&#45;&gt;Node9 -->
<g id="edge19_Node000015_Node000009" class="edge">
<title>Node15&#45;&gt;Node9</title>
<g id="a_edge19_Node000015_Node000009"><a xlink:title=" ">
<path fill="none" stroke="#63b8ff" d="M348.26,-115.79C370.94,-96.63 424.45,-51.39 453.35,-26.96"/>
<polygon fill="#63b8ff" stroke="#63b8ff" points="455.59,-29.64 460.97,-20.52 451.07,-24.3 455.59,-29.64"/>
</a>
</g>
</g>
<!-- Node16&#45;&gt;Node5 -->
<g id="edge21_Node000016_Node000005" class="edge">
<title>Node16&#45;&gt;Node5</title>
<g id="a_edge21_Node000016_Node000005"><a xlink:title=" ">
<path fill="none" stroke="#63b8ff" d="M644.32,-115.69C653.03,-113.91 662.13,-112.1 670.67,-110.5 750.23,-95.59 843.66,-80.4 895.62,-72.15"/>
<polygon fill="#63b8ff" stroke="#63b8ff" points="896.16,-75.61 905.49,-70.59 895.06,-68.69 896.16,-75.61"/>
</a>
</g>
</g>
<!-- Node16&#45;&gt;Node9 -->
<g id="edge22_Node000016_Node000009" class="edge">
<title>Node16&#45;&gt;Node9</title>
<g id="a_edge22_Node000016_Node000009"><a xlink:title=" ">
<path fill="none" stroke="#63b8ff" d="M591.55,-115.79C569.88,-96.63 518.75,-51.39 491.13,-26.96"/>
<polygon fill="#63b8ff" stroke="#63b8ff" points="493.69,-24.55 483.88,-20.54 489.05,-29.79 493.69,-24.55"/>
</a>
</g>
</g>
<!-- Node17&#45;&gt;Node5 -->
<g id="edge24_Node000017_Node000005" class="edge">
<title>Node17&#45;&gt;Node5</title>
<g id="a_edge24_Node000017_Node000005"><a xlink:title=" ">
<path fill="none" stroke="#63b8ff" d="M758.87,-115.68C795.84,-105.26 856.5,-88.18 896.26,-76.98"/>
<polygon fill="#63b8ff" stroke="#63b8ff" points="897,-80.41 905.68,-74.32 895.1,-73.67 897,-80.41"/>
</a>
</g>
</g>
<!-- Node17&#45;&gt;Node9 -->
<g id="edge25_Node000017_Node000009" class="edge">
<title>Node17&#45;&gt;Node9</title>
<g id="a_edge25_Node000017_Node000009"><a xlink:title=" ">
<path fill="none" stroke="#63b8ff" d="M706.74,-115.79C662.08,-95.73 553.85,-47.1 501.7,-23.67"/>
<polygon fill="#63b8ff" stroke="#63b8ff" points="503.41,-20.6 492.85,-19.69 500.54,-26.98 503.41,-20.6"/>
</a>
</g>
</g>
<!-- Node18&#45;&gt;Node5 -->
<g id="edge27_Node000018_Node000005" class="edge">
<title>Node18&#45;&gt;Node5</title>
<g id="a_edge27_Node000018_Node000005"><a xlink:title=" ">
<path fill="none" stroke="#63b8ff" d="M1020.48,-115.81C1004.62,-106.47 979.49,-91.67 960.69,-80.61"/>
<polygon fill="#63b8ff" stroke="#63b8ff" points="962.7,-77.73 952.31,-75.67 959.15,-83.76 962.7,-77.73"/>
</a>
</g>
</g>
<!-- Node19&#45;&gt;Node5 -->
<g id="edge29_Node000019_Node000005" class="edge">
<title>Node19&#45;&gt;Node5</title>
<g id="a_edge29_Node000019_Node000005"><a xlink:title=" ">
<path fill="none" stroke="#63b8ff" d="M1095.55,-115.68C1063.18,-105.59 1010.72,-89.25 974.78,-78.06"/>
<polygon fill="#63b8ff" stroke="#63b8ff" points="976.24,-74.85 965.65,-75.21 974.15,-81.53 976.24,-74.85"/>
</a>
</g>
</g>
<!-- Node20&#45;&gt;Node5 -->
<g id="edge31_Node000020_Node000005" class="edge">
<title>Node20&#45;&gt;Node5</title>
<g id="a_edge31_Node000020_Node000005"><a xlink:title=" ">
<path fill="none" stroke="#63b8ff" d="M105.15,-115.66C112.75,-113.64 120.96,-111.74 128.67,-110.5 278.95,-86.41 754,-71.1 895.51,-66.99"/>
<polygon fill="#63b8ff" stroke="#63b8ff" points="895.61,-70.49 905.51,-66.71 895.41,-63.49 895.61,-70.49"/>
</a>
</g>
</g>
<!-- Node20&#45;&gt;Node9 -->
<g id="edge32_Node000020_Node000009" class="edge">
<title>Node20&#45;&gt;Node9</title>
<g id="a_edge32_Node000020_Node000009"><a xlink:title=" ">
<path fill="none" stroke="#63b8ff" d="M107.15,-115.7C182.18,-94.13 370.68,-39.94 443.41,-19.04"/>
<polygon fill="#63b8ff" stroke="#63b8ff" points="443.96,-22.52 452.6,-16.39 442.02,-15.79 443.96,-22.52"/>
</a>
</g>
</g>
<!-- Node21&#45;&gt;Node5 -->
<g id="edge34_Node000021_Node000005" class="edge">
<title>Node21&#45;&gt;Node5</title>
<g id="a_edge34_Node000021_Node000005"><a xlink:title=" ">
<path fill="none" stroke="#63b8ff" d="M253.53,-111.76C256.28,-111.3 259,-110.87 261.67,-110.5 500.69,-76.97 791.04,-68.51 895.68,-66.48"/>
<polygon fill="#63b8ff" stroke="#63b8ff" points="895.49,-69.99 905.43,-66.3 895.36,-62.99 895.49,-69.99"/>
</a>
</g>
</g>
<!-- Node21&#45;&gt;Node9 -->
<g id="edge35_Node000021_Node000009" class="edge">
<title>Node21&#45;&gt;Node9</title>
<g id="a_edge35_Node000021_Node000009"><a xlink:title=" ">
<path fill="none" stroke="#63b8ff" d="M231.32,-110.06C286.72,-87.24 392.44,-43.68 443.56,-22.62"/>
<polygon fill="#63b8ff" stroke="#63b8ff" points="444.57,-25.99 452.49,-18.94 441.91,-19.51 444.57,-25.99"/>
</a>
</g>
</g>
<!-- Node22&#45;&gt;Node5 -->
<g id="edge37_Node000022_Node000005" class="edge">
<title>Node22&#45;&gt;Node5</title>
<g id="a_edge37_Node000022_Node000005"><a xlink:title=" ">
<path fill="none" stroke="#63b8ff" d="M523.65,-112.19C526.69,-111.58 529.72,-111.01 532.67,-110.5 664.73,-87.6 823.28,-74.08 895.86,-68.65"/>
<polygon fill="#63b8ff" stroke="#63b8ff" points="895.94,-72.16 905.65,-67.93 895.42,-65.17 895.94,-72.16"/>
</a>
</g>
</g>
<!-- Node22&#45;&gt;Node9 -->
<g id="edge38_Node000022_Node000009" class="edge">
<title>Node22&#45;&gt;Node9</title>
<g id="a_edge38_Node000022_Node000009"><a xlink:title=" ">
<path fill="none" stroke="#63b8ff" d="M472.67,-110.3C472.67,-90.25 472.67,-53.9 472.67,-31.07"/>
<polygon fill="#63b8ff" stroke="#63b8ff" points="476.17,-31.21 472.67,-21.21 469.17,-31.21 476.17,-31.21"/>
</a>
</g>
</g>
<!-- Node23&#45;&gt;Node5 -->
<g id="edge48_Node000023_Node000005" class="edge">
<title>Node23&#45;&gt;Node5</title>
<g id="a_edge48_Node000023_Node000005"><a xlink:title=" ">
<path fill="none" stroke="#63b8ff" d="M1391.88,-183.22C1351.15,-175.76 1294.12,-162.49 1247.67,-141 1226.41,-131.16 1226.34,-119.42 1204.67,-110.5 1127.76,-78.82 1029.7,-69.61 975.76,-66.94"/>
<polygon fill="#63b8ff" stroke="#63b8ff" points="975.96,-63.45 965.81,-66.51 975.65,-70.44 975.96,-63.45"/>
</a>
</g>
</g>
<!-- Node23&#45;&gt;Node7 -->
<g id="edge49_Node000023_Node000007" class="edge">
<title>Node23&#45;&gt;Node7</title>
<g id="a_edge49_Node000023_Node000007"><a xlink:title=" ">
<path fill="none" stroke="#63b8ff" d="M1448.92,-176.79C1451.8,-166.78 1455.64,-153.12 1458.67,-141 1468.4,-102.13 1478.21,-56.33 1483.56,-30.67"/>
<polygon fill="#63b8ff" stroke="#63b8ff" points="1486.96,-31.5 1485.56,-21 1480.1,-30.08 1486.96,-31.5"/>
</a>
</g>
</g>
<!-- Node23&#45;&gt;Node9 -->
<g id="edge51_Node000023_Node000009" class="edge">
<title>Node23&#45;&gt;Node9</title>
<g id="a_edge51_Node000023_Node000009"><a xlink:title=" ">
<path fill="none" stroke="#63b8ff" d="M1445.83,-176.69C1447.22,-147.95 1445.61,-84.19 1407.67,-55.25 1370.88,-27.18 659.02,-13.73 502.81,-11.11"/>
<polygon fill="#63b8ff" stroke="#63b8ff" points="502.93,-7.61 492.88,-10.94 502.82,-14.61 502.93,-7.61"/>
</a>
</g>
</g>
<!-- Node23&#45;&gt;Node24 -->
<g id="edge43_Node000023_Node000024" class="edge">
<title>Node23&#45;&gt;Node24</title>
<g id="a_edge43_Node000023_Node000024"><a xlink:title=" ">
<path fill="none" stroke="#63b8ff" d="M1480.52,-176.61C1507.45,-165.62 1544.03,-150.69 1570.12,-140.04"/>
<polygon fill="#63b8ff" stroke="#63b8ff" points="1571.26,-143.35 1579.2,-136.33 1568.62,-136.87 1571.26,-143.35"/>
</a>
</g>
</g>
<!-- Node23&#45;&gt;Node25 -->
<g id="edge44_Node000023_Node000025" class="edge">
<title>Node23&#45;&gt;Node25</title>
<g id="a_edge44_Node000023_Node000025"><a xlink:title=" ">
<path fill="none" stroke="#63b8ff" d="M1432.42,-176.61C1424.4,-167.04 1413.88,-154.47 1405.41,-144.35"/>
<polygon fill="#63b8ff" stroke="#63b8ff" points="1408.13,-142.15 1399.03,-136.73 1402.76,-146.65 1408.13,-142.15"/>
</a>
</g>
</g>
<!-- Node23&#45;&gt;Node27 -->
<g id="edge50_Node000023_Node000027" class="edge">
<title>Node23&#45;&gt;Node27</title>
<g id="a_edge50_Node000023_Node000027"><a xlink:title=" ">
<path fill="none" stroke="#63b8ff" d="M1497.55,-178.79C1500.29,-178.18 1503.01,-177.58 1505.67,-177 1584.53,-159.82 1606.93,-166.02 1683.67,-141 1684.63,-140.69 1685.6,-140.35 1686.58,-140"/>
<polygon fill="#63b8ff" stroke="#63b8ff" points="1687.6,-143.36 1695.52,-136.33 1684.94,-136.89 1687.6,-143.36"/>
</a>
</g>
</g>
<!-- Node25&#45;&gt;Node5 -->
<g id="edge45_Node000025_Node000005" class="edge">
<title>Node25&#45;&gt;Node5</title>
<g id="a_edge45_Node000025_Node000005"><a xlink:title=" ">
<path fill="none" stroke="#63b8ff" d="M1364.06,-119.05C1350.26,-116.22 1333.11,-112.9 1317.67,-110.5 1193.25,-91.12 1044.84,-76.07 975.3,-69.5"/>
<polygon fill="#63b8ff" stroke="#63b8ff" points="975.84,-66.03 965.55,-68.58 975.18,-73 975.84,-66.03"/>
</a>
</g>
</g>
<!-- Node25&#45;&gt;Node11 -->
<g id="edge47_Node000025_Node000011" class="edge">
<title>Node25&#45;&gt;Node11</title>
<g id="a_edge47_Node000025_Node000011"><a xlink:title=" ">
<path fill="none" stroke="#63b8ff" d="M1394.73,-115.72C1398.93,-105.83 1405.22,-89.4 1407.67,-74.5 1410.08,-59.86 1408.89,-43.12 1407.2,-30.45"/>
<polygon fill="#63b8ff" stroke="#63b8ff" points="1410.7,-30.2 1405.69,-20.86 1403.78,-31.28 1410.7,-30.2"/>
</a>
</g>
</g>
<!-- Node26 -->
<g id="Node000026" class="node">
<title>Node26</title>
<g id="a_Node000026"><a xlink:title=" ">
<polygon fill="#e0e0e0" stroke="#999999" points="1399.05,-74.5 1364.3,-74.5 1364.3,-55.25 1399.05,-55.25 1399.05,-74.5"/>
<text text-anchor="middle" x="1381.67" y="-61" font-family="Helvetica,sans-Serif" font-size="10.00">print</text>
</a>
</g>
</g>
<!-- Node25&#45;&gt;Node26 -->
<g id="edge46_Node000025_Node000026" class="edge">
<title>Node25&#45;&gt;Node26</title>
<g id="a_edge46_Node000025_Node000026"><a xlink:title=" ">
<path fill="none" stroke="#63b8ff" d="M1389.3,-115.81C1388.1,-107.94 1386.31,-96.2 1384.76,-86.07"/>
<polygon fill="#63b8ff" stroke="#63b8ff" points="1388.25,-85.75 1383.28,-76.4 1381.33,-86.81 1388.25,-85.75"/>
</a>
</g>
</g>
</g>
</svg>
