<?xml version="1.0" encoding="UTF-8" standalone="no"?>
<!DOCTYPE svg PUBLIC "-//W3C//DTD SVG 1.1//EN"
 "http://www.w3.org/Graphics/SVG/1.1/DTD/svg11.dtd">
<!-- Generated by graphviz version 9.0.0 (20230911.1827)
 -->
<!-- Title: /github/workspace/test/kalman_assign_move_5x4x3.cpp Pages: 1 -->
<svg width="1264pt" height="381pt"
 viewBox="0.00 0.00 1264.00 381.25" xmlns="http://www.w3.org/2000/svg" xmlns:xlink="http://www.w3.org/1999/xlink">
<g id="graph0" class="graph" transform="scale(1 1) rotate(0) translate(4 377.25)">
<title>/github/workspace/test/kalman_assign_move_5x4x3.cpp</title>
<!-- Node1 -->
<g id="Node000001" class="node">
<title>Node1</title>
<g id="a_Node000001"><a xlink:title=" ">
<polygon fill="#999999" stroke="#666666" points="402.75,-373.25 241.25,-373.25 241.25,-342.75 402.75,-342.75 402.75,-373.25"/>
<text text-anchor="start" x="249.25" y="-359.75" font-family="Helvetica,sans-Serif" font-size="10.00">/github/workspace/test</text>
<text text-anchor="middle" x="322" y="-348.5" font-family="Helvetica,sans-Serif" font-size="10.00">/kalman_assign_move_5x4x3.cpp</text>
</a>
</g>
</g>
<!-- Node2 -->
<g id="Node000002" class="node">
<title>Node2</title>
<g id="a_Node000002"><a xlink:href="kalman_8hpp.xhtml" target="_top" xlink:title="The Kalman filter class and library top&#45;level header.">
<polygon fill="white" stroke="#666666" points="315,-306.75 209,-306.75 209,-287.5 315,-287.5 315,-306.75"/>
<text text-anchor="middle" x="262" y="-293.25" font-family="Helvetica,sans-Serif" font-size="10.00">fcarouge/kalman.hpp</text>
</a>
</g>
</g>
<!-- Node1&#45;&gt;Node2 -->
<g id="edge1_Node000001_Node000002" class="edge">
<title>Node1&#45;&gt;Node2</title>
<g id="a_edge1_Node000001_Node000002"><a xlink:title=" ">
<path fill="none" stroke="#63b8ff" d="M307.17,-342.45C298.74,-334.17 288.13,-323.77 279.32,-315.12"/>
<polygon fill="#63b8ff" stroke="#63b8ff" points="281.92,-312.77 272.33,-308.26 277.02,-317.76 281.92,-312.77"/>
</a>
</g>
</g>
<!-- Node10 -->
<g id="Node000010" class="node">
<title>Node10</title>
<g id="a_Node000010"><a xlink:title=" ">
<polygon fill="#e0e0e0" stroke="#999999" points="66.25,-129.75 27.75,-129.75 27.75,-110.5 66.25,-110.5 66.25,-129.75"/>
<text text-anchor="middle" x="47" y="-116.25" font-family="Helvetica,sans-Serif" font-size="10.00">utility</text>
</a>
</g>
</g>
<!-- Node1&#45;&gt;Node10 -->
<g id="edge49_Node000001_Node000010" class="edge">
<title>Node1&#45;&gt;Node10</title>
<g id="a_edge49_Node000001_Node000010"><a xlink:title=" ">
<path fill="none" stroke="#63b8ff" d="M241,-347.54C178.28,-335.8 94.22,-309.64 46,-251.5 20.07,-220.24 30.98,-168.74 39.83,-140.74"/>
<polygon fill="#63b8ff" stroke="#63b8ff" points="43.09,-142.02 43.01,-131.43 36.46,-139.76 43.09,-142.02"/>
</a>
</g>
</g>
<!-- Node27 -->
<g id="Node000027" class="node">
<title>Node27</title>
<g id="a_Node000027"><a xlink:title=" ">
<polygon fill="#e0e0e0" stroke="#999999" points="430.5,-306.75 333.5,-306.75 333.5,-287.5 430.5,-287.5 430.5,-306.75"/>
<text text-anchor="middle" x="382" y="-293.25" font-family="Helvetica,sans-Serif" font-size="10.00">fcarouge/linalg.hpp</text>
</a>
</g>
</g>
<!-- Node1&#45;&gt;Node27 -->
<g id="edge47_Node000001_Node000027" class="edge">
<title>Node1&#45;&gt;Node27</title>
<g id="a_edge47_Node000001_Node000027"><a xlink:title=" ">
<path fill="none" stroke="#63b8ff" d="M336.83,-342.45C345.26,-334.17 355.87,-323.77 364.68,-315.12"/>
<polygon fill="#63b8ff" stroke="#63b8ff" points="366.98,-317.76 371.67,-308.26 362.08,-312.77 366.98,-317.76"/>
</a>
</g>
</g>
<!-- Node28 -->
<g id="Node000028" class="node">
<title>Node28</title>
<g id="a_Node000028"><a xlink:title=" ">
<polygon fill="#e0e0e0" stroke="#999999" points="497.12,-306.75 448.88,-306.75 448.88,-287.5 497.12,-287.5 497.12,-306.75"/>
<text text-anchor="middle" x="473" y="-293.25" font-family="Helvetica,sans-Serif" font-size="10.00">cassert</text>
</a>
</g>
</g>
<!-- Node1&#45;&gt;Node28 -->
<g id="edge48_Node000001_Node000028" class="edge">
<title>Node1&#45;&gt;Node28</title>
<g id="a_edge48_Node000001_Node000028"><a xlink:title=" ">
<path fill="none" stroke="#63b8ff" d="M359.71,-342.3C384.15,-332.77 415.69,-320.47 439.29,-311.27"/>
<polygon fill="#63b8ff" stroke="#63b8ff" points="440.39,-314.6 448.43,-307.7 437.84,-308.08 440.39,-314.6"/>
</a>
</g>
</g>
<!-- Node3 -->
<g id="Node000003" class="node">
<title>Node3</title>
<g id="a_Node000003"><a xlink:href="factory_8hpp.xhtml" target="_top" xlink:title=" ">
<polygon fill="white" stroke="#666666" points="679.88,-251.5 582.12,-251.5 582.12,-232.25 679.88,-232.25 679.88,-251.5"/>
<text text-anchor="middle" x="631" y="-238" font-family="Helvetica,sans-Serif" font-size="10.00">internal/factory.hpp</text>
</a>
</g>
</g>
<!-- Node2&#45;&gt;Node3 -->
<g id="edge2_Node000002_Node000003" class="edge">
<title>Node2&#45;&gt;Node3</title>
<g id="a_edge2_Node000002_Node000003"><a xlink:title=" ">
<path fill="none" stroke="#63b8ff" d="M315.26,-288.44C383.08,-278.65 499.96,-261.78 570.91,-251.55"/>
<polygon fill="#63b8ff" stroke="#63b8ff" points="570.99,-255.07 580.38,-250.18 569.99,-248.14 570.99,-255.07"/>
</a>
</g>
</g>
<!-- Node5 -->
<g id="Node000005" class="node">
<title>Node5</title>
<g id="a_Node000005"><a xlink:href="utility_8hpp.xhtml" target="_top" xlink:title="The collection of utilities supporting the library.">
<polygon fill="white" stroke="#666666" points="616.5,-129.75 519.5,-129.75 519.5,-110.5 616.5,-110.5 616.5,-129.75"/>
<text text-anchor="middle" x="568" y="-116.25" font-family="Helvetica,sans-Serif" font-size="10.00">fcarouge/utility.hpp</text>
</a>
</g>
</g>
<!-- Node2&#45;&gt;Node5 -->
<g id="edge40_Node000002_Node000005" class="edge">
<title>Node2&#45;&gt;Node5</title>
<g id="a_edge40_Node000002_Node000005"><a xlink:title=" ">
<path fill="none" stroke="#63b8ff" d="M282.01,-287.15C298.07,-279.29 320.57,-266.76 337,-251.5 371.08,-219.85 358.82,-192.31 397,-165.75 429.73,-142.98 473.29,-131.83 508.25,-126.37"/>
<polygon fill="#63b8ff" stroke="#63b8ff" points="508.37,-129.89 517.78,-125 507.38,-122.96 508.37,-129.89"/>
</a>
</g>
</g>
<!-- Node7 -->
<g id="Node000007" class="node">
<title>Node7</title>
<g id="a_Node000007"><a xlink:title=" ">
<polygon fill="#e0e0e0" stroke="#999999" points="1193.88,-19.25 1138.12,-19.25 1138.12,0 1193.88,0 1193.88,-19.25"/>
<text text-anchor="middle" x="1166" y="-5.75" font-family="Helvetica,sans-Serif" font-size="10.00">concepts</text>
</a>
</g>
</g>
<!-- Node2&#45;&gt;Node7 -->
<g id="edge41_Node000002_Node000007" class="edge">
<title>Node2&#45;&gt;Node7</title>
<g id="a_edge41_Node000002_Node000007"><a xlink:title=" ">
<path fill="none" stroke="#63b8ff" d="M315.4,-288.39C318.31,-288.07 321.19,-287.77 324,-287.5 638.55,-257.7 721.98,-301.28 1034,-251.5 1136.1,-235.21 1256,-285.39 1256,-182 1256,-182 1256,-182 1256,-119.12 1256,-78.11 1217.43,-44.3 1190.79,-25.83"/>
<polygon fill="#63b8ff" stroke="#63b8ff" points="1192.8,-22.97 1182.53,-20.36 1188.93,-28.8 1192.8,-22.97"/>
</a>
</g>
</g>
<!-- Node8 -->
<g id="Node000008" class="node">
<title>Node8</title>
<g id="a_Node000008"><a xlink:title=" ">
<polygon fill="#e0e0e0" stroke="#999999" points="224.5,-19.25 163.5,-19.25 163.5,0 224.5,0 224.5,-19.25"/>
<text text-anchor="middle" x="194" y="-5.75" font-family="Helvetica,sans-Serif" font-size="10.00">type_traits</text>
</a>
</g>
</g>
<!-- Node2&#45;&gt;Node8 -->
<g id="edge44_Node000002_Node000008" class="edge">
<title>Node2&#45;&gt;Node8</title>
<g id="a_edge44_Node000002_Node000008"><a xlink:title=" ">
<path fill="none" stroke="#63b8ff" d="M208.66,-295.65C132.06,-291.83 0,-272.17 0,-182 0,-182 0,-182 0,-119.12 0,-49.99 95.01,-24.48 152.06,-15.4"/>
<polygon fill="#63b8ff" stroke="#63b8ff" points="152.38,-18.89 161.76,-13.96 151.36,-11.96 152.38,-18.89"/>
</a>
</g>
</g>
<!-- Node2&#45;&gt;Node10 -->
<g id="edge45_Node000002_Node000010" class="edge">
<title>Node2&#45;&gt;Node10</title>
<g id="a_edge45_Node000002_Node000010"><a xlink:title=" ">
<path fill="none" stroke="#63b8ff" d="M208.7,-291.16C156.25,-285.1 81.28,-272.92 62,-251.5 34.77,-221.25 38.24,-169.73 42.82,-141.36"/>
<polygon fill="#63b8ff" stroke="#63b8ff" points="46.25,-142.07 44.62,-131.6 39.37,-140.8 46.25,-142.07"/>
</a>
</g>
</g>
<!-- Node20 -->
<g id="Node000020" class="node">
<title>Node20</title>
<g id="a_Node000020"><a xlink:href="format_8hpp.xhtml" target="_top" xlink:title=" ">
<polygon fill="white" stroke="#666666" points="166.12,-190.62 69.88,-190.62 69.88,-171.38 166.12,-171.38 166.12,-190.62"/>
<text text-anchor="middle" x="118" y="-177.12" font-family="Helvetica,sans-Serif" font-size="10.00">internal/format.hpp</text>
</a>
</g>
</g>
<!-- Node2&#45;&gt;Node20 -->
<g id="edge34_Node000002_Node000020" class="edge">
<title>Node2&#45;&gt;Node20</title>
<g id="a_edge34_Node000002_Node000020"><a xlink:title=" ">
<path fill="none" stroke="#63b8ff" d="M280.59,-287.19C303.11,-275.17 336.14,-252.9 320,-232.25 317.6,-229.18 226.83,-207.46 167.8,-193.6"/>
<polygon fill="#63b8ff" stroke="#63b8ff" points="168.82,-190.24 158.29,-191.37 167.22,-197.06 168.82,-190.24"/>
</a>
</g>
</g>
<!-- Node22 -->
<g id="Node000022" class="node">
<title>Node22</title>
<g id="a_Node000022"><a xlink:href="printer_8hpp.xhtml" target="_top" xlink:title=" ">
<polygon fill="white" stroke="#666666" points="1024.5,-251.5 963.5,-251.5 963.5,-232.25 1024.5,-232.25 1024.5,-251.5"/>
<text text-anchor="middle" x="994" y="-238" font-family="Helvetica,sans-Serif" font-size="10.00">printer.hpp</text>
</a>
</g>
</g>
<!-- Node2&#45;&gt;Node22 -->
<g id="edge38_Node000002_Node000022" class="edge">
<title>Node2&#45;&gt;Node22</title>
<g id="a_edge38_Node000002_Node000022"><a xlink:title=" ">
<path fill="none" stroke="#63b8ff" d="M315.4,-288.45C318.31,-288.11 321.19,-287.79 324,-287.5 560.73,-263.18 845.94,-249.27 951.79,-244.63"/>
<polygon fill="#63b8ff" stroke="#63b8ff" points="951.86,-248.13 961.7,-244.2 951.56,-241.14 951.86,-248.13"/>
</a>
</g>
</g>
<!-- Node24 -->
<g id="Node000024" class="node">
<title>Node24</title>
<g id="a_Node000024"><a xlink:title=" ">
<polygon fill="#e0e0e0" stroke="#999999" points="119.12,-251.5 70.88,-251.5 70.88,-232.25 119.12,-232.25 119.12,-251.5"/>
<text text-anchor="middle" x="95" y="-238" font-family="Helvetica,sans-Serif" font-size="10.00">cstddef</text>
</a>
</g>
</g>
<!-- Node2&#45;&gt;Node24 -->
<g id="edge42_Node000002_Node000024" class="edge">
<title>Node2&#45;&gt;Node24</title>
<g id="a_edge42_Node000002_Node000024"><a xlink:title=" ">
<path fill="none" stroke="#63b8ff" d="M233.67,-287.09C205.08,-277.97 160.86,-263.88 130.07,-254.06"/>
<polygon fill="#63b8ff" stroke="#63b8ff" points="131.42,-250.81 120.83,-251.11 129.29,-257.48 131.42,-250.81"/>
</a>
</g>
</g>
<!-- Node25 -->
<g id="Node000025" class="node">
<title>Node25</title>
<g id="a_Node000025"><a xlink:title=" ">
<polygon fill="#e0e0e0" stroke="#999999" points="195,-251.5 137,-251.5 137,-232.25 195,-232.25 195,-251.5"/>
<text text-anchor="middle" x="166" y="-238" font-family="Helvetica,sans-Serif" font-size="10.00">functional</text>
</a>
</g>
</g>
<!-- Node2&#45;&gt;Node25 -->
<g id="edge43_Node000002_Node000025" class="edge">
<title>Node2&#45;&gt;Node25</title>
<g id="a_edge43_Node000002_Node000025"><a xlink:title=" ">
<path fill="none" stroke="#63b8ff" d="M245.71,-287.09C231.1,-278.98 209.37,-266.93 192.29,-257.46"/>
<polygon fill="#63b8ff" stroke="#63b8ff" points="194.13,-254.48 183.69,-252.69 190.74,-260.6 194.13,-254.48"/>
</a>
</g>
</g>
<!-- Node26 -->
<g id="Node000026" class="node">
<title>Node26</title>
<g id="a_Node000026"><a xlink:title=" ">
<polygon fill="#e0e0e0" stroke="#999999" points="310.88,-251.5 213.12,-251.5 213.12,-232.25 310.88,-232.25 310.88,-251.5"/>
<text text-anchor="middle" x="262" y="-238" font-family="Helvetica,sans-Serif" font-size="10.00">internal/kalman.tpp</text>
</a>
</g>
</g>
<!-- Node2&#45;&gt;Node26 -->
<g id="edge46_Node000002_Node000026" class="edge">
<title>Node2&#45;&gt;Node26</title>
<g id="a_edge46_Node000002_Node000026"><a xlink:title=" ">
<path fill="none" stroke="#63b8ff" d="M262,-287.33C262,-280.82 262,-271.67 262,-263.37"/>
<polygon fill="#63b8ff" stroke="#63b8ff" points="265.5,-263.37 262,-253.37 258.5,-263.37 265.5,-263.37"/>
</a>
</g>
</g>
<!-- Node4 -->
<g id="Node000004" class="node">
<title>Node4</title>
<g id="a_Node000004"><a xlink:href="type_8hpp.xhtml" target="_top" xlink:title=" ">
<polygon fill="white" stroke="#666666" points="349.5,-190.62 222.5,-190.62 222.5,-171.38 349.5,-171.38 349.5,-190.62"/>
<text text-anchor="middle" x="286" y="-177.12" font-family="Helvetica,sans-Serif" font-size="10.00">fcarouge/internal/type.hpp</text>
</a>
</g>
</g>
<!-- Node3&#45;&gt;Node4 -->
<g id="edge3_Node000003_Node000004" class="edge">
<title>Node3&#45;&gt;Node4</title>
<g id="a_edge3_Node000003_Node000004"><a xlink:title=" ">
<path fill="none" stroke="#63b8ff" d="M581.94,-232.5C521.27,-222.15 417.81,-204.49 350.7,-193.04"/>
<polygon fill="#63b8ff" stroke="#63b8ff" points="351.37,-189.6 340.92,-191.37 350.19,-196.5 351.37,-189.6"/>
</a>
</g>
</g>
<!-- Node3&#45;&gt;Node7 -->
<g id="edge32_Node000003_Node000007" class="edge">
<title>Node3&#45;&gt;Node7</title>
<g id="a_edge32_Node000003_Node000007"><a xlink:title=" ">
<path fill="none" stroke="#63b8ff" d="M680.37,-240.12C803.03,-237.75 1114.16,-228.58 1147,-196.25 1191.59,-152.35 1179.71,-69.02 1171.19,-30.75"/>
<polygon fill="#63b8ff" stroke="#63b8ff" points="1174.61,-30 1168.87,-21.1 1167.8,-31.64 1174.61,-30"/>
</a>
</g>
</g>
<!-- Node3&#45;&gt;Node8 -->
<g id="edge33_Node000003_Node000008" class="edge">
<title>Node3&#45;&gt;Node8</title>
<g id="a_edge33_Node000003_Node000008"><a xlink:title=" ">
<path fill="none" stroke="#63b8ff" d="M581.87,-239.05C476.99,-234.67 238.62,-221.98 213,-196.25 168.85,-151.91 180.51,-68.8 188.89,-30.67"/>
<polygon fill="#63b8ff" stroke="#63b8ff" points="192.27,-31.6 191.17,-21.06 185.46,-29.98 192.27,-31.6"/>
</a>
</g>
</g>
<!-- Node11 -->
<g id="Node000011" class="node">
<title>Node11</title>
<g id="a_Node000011"><a xlink:href="x__z__p__q__r__h__f_8hpp.xhtml" target="_top" xlink:title=" ">
<polygon fill="white" stroke="#666666" points="615.75,-196.25 520.25,-196.25 520.25,-165.75 615.75,-165.75 615.75,-196.25"/>
<text text-anchor="start" x="528.25" y="-182.75" font-family="Helvetica,sans-Serif" font-size="10.00">fcarouge/internal/x</text>
<text text-anchor="middle" x="568" y="-171.5" font-family="Helvetica,sans-Serif" font-size="10.00">_z_p_q_r_h_f.hpp</text>
</a>
</g>
</g>
<!-- Node3&#45;&gt;Node11 -->
<g id="edge11_Node000003_Node000011" class="edge">
<title>Node3&#45;&gt;Node11</title>
<g id="a_edge11_Node000003_Node000011"><a xlink:title=" ">
<path fill="none" stroke="#63b8ff" d="M621.43,-231.93C613.58,-224.59 602.12,-213.88 591.82,-204.26"/>
<polygon fill="#63b8ff" stroke="#63b8ff" points="594.35,-201.84 584.66,-197.57 589.57,-206.95 594.35,-201.84"/>
</a>
</g>
</g>
<!-- Node12 -->
<g id="Node000012" class="node">
<title>Node12</title>
<g id="a_Node000012"><a xlink:href="x__z__p__q__r__hh__us__ps_8hpp.xhtml" target="_top" xlink:title=" ">
<polygon fill="white" stroke="#666666" points="1024.12,-196.25 903.88,-196.25 903.88,-165.75 1024.12,-165.75 1024.12,-196.25"/>
<text text-anchor="start" x="911.88" y="-182.75" font-family="Helvetica,sans-Serif" font-size="10.00">fcarouge/internal/x</text>
<text text-anchor="middle" x="964" y="-171.5" font-family="Helvetica,sans-Serif" font-size="10.00">_z_p_q_r_hh_us_ps.hpp</text>
</a>
</g>
</g>
<!-- Node3&#45;&gt;Node12 -->
<g id="edge13_Node000003_Node000012" class="edge">
<title>Node3&#45;&gt;Node12</title>
<g id="a_edge13_Node000003_Node000012"><a xlink:title=" ">
<path fill="none" stroke="#63b8ff" d="M680.24,-233.1C730.95,-224.97 812.56,-211.55 892.22,-196.73"/>
<polygon fill="#63b8ff" stroke="#63b8ff" points="892.77,-200.19 901.95,-194.91 891.48,-193.31 892.77,-200.19"/>
</a>
</g>
</g>
<!-- Node16 -->
<g id="Node000016" class="node">
<title>Node16</title>
<g id="a_Node000016"><a xlink:href="x__z__p__qq__rr__f_8hpp.xhtml" target="_top" xlink:title=" ">
<polygon fill="white" stroke="#666666" points="1137.75,-196.25 1042.25,-196.25 1042.25,-165.75 1137.75,-165.75 1137.75,-196.25"/>
<text text-anchor="start" x="1050.25" y="-182.75" font-family="Helvetica,sans-Serif" font-size="10.00">fcarouge/internal/x</text>
<text text-anchor="middle" x="1090" y="-171.5" font-family="Helvetica,sans-Serif" font-size="10.00">_z_p_qq_rr_f.hpp</text>
</a>
</g>
</g>
<!-- Node3&#45;&gt;Node16 -->
<g id="edge18_Node000003_Node000016" class="edge">
<title>Node3&#45;&gt;Node16</title>
<g id="a_edge18_Node000003_Node000016"><a xlink:title=" ">
<path fill="none" stroke="#63b8ff" d="M680.19,-237.56C754.19,-232.1 898.69,-219.62 1030.79,-196.49"/>
<polygon fill="#63b8ff" stroke="#63b8ff" points="1031.17,-199.97 1040.41,-194.77 1029.95,-193.08 1031.17,-199.97"/>
</a>
</g>
</g>
<!-- Node17 -->
<g id="Node000017" class="node">
<title>Node17</title>
<g id="a_Node000017"><a xlink:href="x__z__p__r__f_8hpp.xhtml" target="_top" xlink:title=" ">
<polygon fill="white" stroke="#666666" points="501.75,-196.25 406.25,-196.25 406.25,-165.75 501.75,-165.75 501.75,-196.25"/>
<text text-anchor="start" x="414.25" y="-182.75" font-family="Helvetica,sans-Serif" font-size="10.00">fcarouge/internal/x</text>
<text text-anchor="middle" x="454" y="-171.5" font-family="Helvetica,sans-Serif" font-size="10.00">_z_p_r_f.hpp</text>
</a>
</g>
</g>
<!-- Node3&#45;&gt;Node17 -->
<g id="edge22_Node000003_Node000017" class="edge">
<title>Node3&#45;&gt;Node17</title>
<g id="a_edge22_Node000003_Node000017"><a xlink:title=" ">
<path fill="none" stroke="#63b8ff" d="M603.73,-231.8C578.58,-223.44 540.47,-210.76 509,-200.29"/>
<polygon fill="#63b8ff" stroke="#63b8ff" points="510.21,-197.01 499.61,-197.17 508,-203.65 510.21,-197.01"/>
</a>
</g>
</g>
<!-- Node18 -->
<g id="Node000018" class="node">
<title>Node18</title>
<g id="a_Node000018"><a xlink:href="x__z__u__p__q__r__f__g__ps_8hpp.xhtml" target="_top" xlink:title=" ">
<polygon fill="white" stroke="#666666" points="752,-196.25 634,-196.25 634,-165.75 752,-165.75 752,-196.25"/>
<text text-anchor="start" x="642" y="-182.75" font-family="Helvetica,sans-Serif" font-size="10.00">fcarouge/internal/x</text>
<text text-anchor="middle" x="693" y="-171.5" font-family="Helvetica,sans-Serif" font-size="10.00">_z_u_p_q_r_f_g_ps.hpp</text>
</a>
</g>
</g>
<!-- Node3&#45;&gt;Node18 -->
<g id="edge24_Node000003_Node000018" class="edge">
<title>Node3&#45;&gt;Node18</title>
<g id="a_edge24_Node000003_Node000018"><a xlink:title=" ">
<path fill="none" stroke="#63b8ff" d="M640.42,-231.93C648.14,-224.59 659.42,-213.88 669.56,-204.26"/>
<polygon fill="#63b8ff" stroke="#63b8ff" points="671.76,-207 676.6,-197.57 666.94,-201.92 671.76,-207"/>
</a>
</g>
</g>
<!-- Node19 -->
<g id="Node000019" class="node">
<title>Node19</title>
<g id="a_Node000019"><a xlink:href="x__z__u__p__q__r__us__ps_8hpp.xhtml" target="_top" xlink:title=" ">
<polygon fill="white" stroke="#666666" points="885.5,-196.25 770.5,-196.25 770.5,-165.75 885.5,-165.75 885.5,-196.25"/>
<text text-anchor="start" x="778.5" y="-182.75" font-family="Helvetica,sans-Serif" font-size="10.00">fcarouge/internal/x</text>
<text text-anchor="middle" x="828" y="-171.5" font-family="Helvetica,sans-Serif" font-size="10.00">_z_u_p_q_r_us_ps.hpp</text>
</a>
</g>
</g>
<!-- Node3&#45;&gt;Node19 -->
<g id="edge28_Node000003_Node000019" class="edge">
<title>Node3&#45;&gt;Node19</title>
<g id="a_edge28_Node000003_Node000019"><a xlink:title=" ">
<path fill="none" stroke="#63b8ff" d="M661.35,-231.8C689.71,-223.33 732.87,-210.43 768.16,-199.88"/>
<polygon fill="#63b8ff" stroke="#63b8ff" points="768.8,-203.35 777.38,-197.13 766.8,-196.64 768.8,-203.35"/>
</a>
</g>
</g>
<!-- Node4&#45;&gt;Node5 -->
<g id="edge4_Node000004_Node000005" class="edge">
<title>Node4&#45;&gt;Node5</title>
<g id="a_edge4_Node000004_Node000005"><a xlink:title=" ">
<path fill="none" stroke="#63b8ff" d="M329.44,-170.93C378.92,-160.6 459.82,-143.71 513.49,-132.51"/>
<polygon fill="#63b8ff" stroke="#63b8ff" points="513.95,-135.98 523.02,-130.51 512.52,-129.13 513.95,-135.98"/>
</a>
</g>
</g>
<!-- Node4&#45;&gt;Node8 -->
<g id="edge9_Node000004_Node000008" class="edge">
<title>Node4&#45;&gt;Node8</title>
<g id="a_edge9_Node000004_Node000008"><a xlink:title=" ">
<path fill="none" stroke="#63b8ff" d="M291.72,-171.12C299.67,-157.59 312.11,-131.19 303,-110.5 286.21,-72.34 246.84,-42.39 220.31,-25.6"/>
<polygon fill="#63b8ff" stroke="#63b8ff" points="222.15,-22.63 211.79,-20.41 218.51,-28.61 222.15,-22.63"/>
</a>
</g>
</g>
<!-- Node9 -->
<g id="Node000009" class="node">
<title>Node9</title>
<g id="a_Node000009"><a xlink:title=" ">
<polygon fill="#e0e0e0" stroke="#999999" points="293.75,-129.75 222.25,-129.75 222.25,-110.5 293.75,-110.5 293.75,-129.75"/>
<text text-anchor="middle" x="258" y="-116.25" font-family="Helvetica,sans-Serif" font-size="10.00">initializer_list</text>
</a>
</g>
</g>
<!-- Node4&#45;&gt;Node9 -->
<g id="edge8_Node000004_Node000009" class="edge">
<title>Node4&#45;&gt;Node9</title>
<g id="a_edge8_Node000004_Node000009"><a xlink:title=" ">
<path fill="none" stroke="#63b8ff" d="M281.75,-171.06C277.88,-162.93 272.05,-150.67 267.13,-140.33"/>
<polygon fill="#63b8ff" stroke="#63b8ff" points="270.4,-139.05 262.94,-131.52 264.08,-142.05 270.4,-139.05"/>
</a>
</g>
</g>
<!-- Node4&#45;&gt;Node10 -->
<g id="edge10_Node000004_Node000010" class="edge">
<title>Node4&#45;&gt;Node10</title>
<g id="a_edge10_Node000004_Node000010"><a xlink:title=" ">
<path fill="none" stroke="#63b8ff" d="M249.18,-170.93C202.16,-159.35 121.65,-139.51 77.75,-128.7"/>
<polygon fill="#63b8ff" stroke="#63b8ff" points="78.67,-125.32 68.12,-126.33 77,-132.12 78.67,-125.32"/>
</a>
</g>
</g>
<!-- Node6 -->
<g id="Node000006" class="node">
<title>Node6</title>
<g id="a_Node000006"><a xlink:href="internal_2utility_8hpp.xhtml" target="_top" xlink:title=" ">
<polygon fill="white" stroke="#666666" points="613.5,-74.5 522.5,-74.5 522.5,-55.25 613.5,-55.25 613.5,-74.5"/>
<text text-anchor="middle" x="568" y="-61" font-family="Helvetica,sans-Serif" font-size="10.00">internal/utility.hpp</text>
</a>
</g>
</g>
<!-- Node5&#45;&gt;Node6 -->
<g id="edge5_Node000005_Node000006" class="edge">
<title>Node5&#45;&gt;Node6</title>
<g id="a_edge5_Node000005_Node000006"><a xlink:title=" ">
<path fill="none" stroke="#63b8ff" d="M568,-110.33C568,-103.82 568,-94.67 568,-86.37"/>
<polygon fill="#63b8ff" stroke="#63b8ff" points="571.5,-86.37 568,-76.37 564.5,-86.37 571.5,-86.37"/>
</a>
</g>
</g>
<!-- Node6&#45;&gt;Node7 -->
<g id="edge6_Node000006_Node000007" class="edge">
<title>Node6&#45;&gt;Node7</title>
<g id="a_edge6_Node000006_Node000007"><a xlink:title=" ">
<path fill="none" stroke="#63b8ff" d="M613.93,-59.78C727.55,-49.67 1020.24,-23.6 1126.61,-14.13"/>
<polygon fill="#63b8ff" stroke="#63b8ff" points="1126.61,-17.65 1136.26,-13.27 1125.99,-10.67 1126.61,-17.65"/>
</a>
</g>
</g>
<!-- Node6&#45;&gt;Node8 -->
<g id="edge7_Node000006_Node000008" class="edge">
<title>Node6&#45;&gt;Node8</title>
<g id="a_edge7_Node000006_Node000008"><a xlink:title=" ">
<path fill="none" stroke="#63b8ff" d="M522.14,-57.35C448.79,-46.9 306.16,-26.59 235.6,-16.55"/>
<polygon fill="#63b8ff" stroke="#63b8ff" points="236.4,-13.13 226.01,-15.18 235.41,-20.06 236.4,-13.13"/>
</a>
</g>
</g>
<!-- Node11&#45;&gt;Node5 -->
<g id="edge12_Node000011_Node000005" class="edge">
<title>Node11&#45;&gt;Node5</title>
<g id="a_edge12_Node000011_Node000005"><a xlink:title=" ">
<path fill="none" stroke="#63b8ff" d="M568,-165.45C568,-158.21 568,-149.34 568,-141.44"/>
<polygon fill="#63b8ff" stroke="#63b8ff" points="571.5,-141.71 568,-131.71 564.5,-141.71 571.5,-141.71"/>
</a>
</g>
</g>
<!-- Node12&#45;&gt;Node5 -->
<g id="edge14_Node000012_Node000005" class="edge">
<title>Node12&#45;&gt;Node5</title>
<g id="a_edge14_Node000012_Node000005"><a xlink:title=" ">
<path fill="none" stroke="#63b8ff" d="M903.46,-167.25C900.6,-166.73 897.77,-166.22 895,-165.75 802.3,-149.87 694.04,-136.01 628.28,-128.1"/>
<polygon fill="#63b8ff" stroke="#63b8ff" points="628.76,-124.64 618.41,-126.93 627.93,-131.59 628.76,-124.64"/>
</a>
</g>
</g>
<!-- Node13 -->
<g id="Node000013" class="node">
<title>Node13</title>
<g id="a_Node000013"><a xlink:href="function_8hpp.xhtml" target="_top" xlink:title=" ">
<polygon fill="white" stroke="#666666" points="878.25,-129.75 809.75,-129.75 809.75,-110.5 878.25,-110.5 878.25,-129.75"/>
<text text-anchor="middle" x="844" y="-116.25" font-family="Helvetica,sans-Serif" font-size="10.00">function.hpp</text>
</a>
</g>
</g>
<!-- Node12&#45;&gt;Node13 -->
<g id="edge15_Node000012_Node000013" class="edge">
<title>Node12&#45;&gt;Node13</title>
<g id="a_edge15_Node000012_Node000013"><a xlink:title=" ">
<path fill="none" stroke="#63b8ff" d="M934.03,-165.3C915.23,-156.07 891.12,-144.25 872.59,-135.15"/>
<polygon fill="#63b8ff" stroke="#63b8ff" points="874.28,-132.08 863.76,-130.82 871.2,-138.37 874.28,-132.08"/>
</a>
</g>
</g>
<!-- Node15 -->
<g id="Node000015" class="node">
<title>Node15</title>
<g id="a_Node000015"><a xlink:title=" ">
<polygon fill="#e0e0e0" stroke="#999999" points="950.5,-129.75 913.5,-129.75 913.5,-110.5 950.5,-110.5 950.5,-129.75"/>
<text text-anchor="middle" x="932" y="-116.25" font-family="Helvetica,sans-Serif" font-size="10.00">tuple</text>
</a>
</g>
</g>
<!-- Node12&#45;&gt;Node15 -->
<g id="edge17_Node000012_Node000015" class="edge">
<title>Node12&#45;&gt;Node15</title>
<g id="a_edge17_Node000012_Node000015"><a xlink:title=" ">
<path fill="none" stroke="#63b8ff" d="M956.09,-165.45C951.97,-157.86 946.87,-148.49 942.43,-140.32"/>
<polygon fill="#63b8ff" stroke="#63b8ff" points="945.51,-138.65 937.66,-131.53 939.36,-141.99 945.51,-138.65"/>
</a>
</g>
</g>
<!-- Node14 -->
<g id="Node000014" class="node">
<title>Node14</title>
<g id="a_Node000014"><a xlink:title=" ">
<polygon fill="#e0e0e0" stroke="#999999" points="869.25,-74.5 818.75,-74.5 818.75,-55.25 869.25,-55.25 869.25,-74.5"/>
<text text-anchor="middle" x="844" y="-61" font-family="Helvetica,sans-Serif" font-size="10.00">memory</text>
</a>
</g>
</g>
<!-- Node13&#45;&gt;Node14 -->
<g id="edge16_Node000013_Node000014" class="edge">
<title>Node13&#45;&gt;Node14</title>
<g id="a_edge16_Node000013_Node000014"><a xlink:title=" ">
<path fill="none" stroke="#63b8ff" d="M844,-110.33C844,-103.82 844,-94.67 844,-86.37"/>
<polygon fill="#63b8ff" stroke="#63b8ff" points="847.5,-86.37 844,-76.37 840.5,-86.37 847.5,-86.37"/>
</a>
</g>
</g>
<!-- Node16&#45;&gt;Node5 -->
<g id="edge19_Node000016_Node000005" class="edge">
<title>Node16&#45;&gt;Node5</title>
<g id="a_edge19_Node000016_Node000005"><a xlink:title=" ">
<path fill="none" stroke="#63b8ff" d="M1041.91,-167.44C1038.9,-166.82 1035.92,-166.25 1033,-165.75 889,-140.98 717.38,-128.97 628.34,-124.03"/>
<polygon fill="#63b8ff" stroke="#63b8ff" points="628.54,-120.54 618.36,-123.49 628.16,-127.53 628.54,-120.54"/>
</a>
</g>
</g>
<!-- Node16&#45;&gt;Node13 -->
<g id="edge20_Node000016_Node000013" class="edge">
<title>Node16&#45;&gt;Node13</title>
<g id="a_edge20_Node000016_Node000013"><a xlink:title=" ">
<path fill="none" stroke="#63b8ff" d="M1041.81,-167.91C1038.83,-167.17 1035.87,-166.45 1033,-165.75 983.95,-153.83 927.63,-140.59 889.32,-131.65"/>
<polygon fill="#63b8ff" stroke="#63b8ff" points="890.53,-128.34 879.99,-129.48 888.94,-135.15 890.53,-128.34"/>
</a>
</g>
</g>
<!-- Node16&#45;&gt;Node15 -->
<g id="edge21_Node000016_Node000015" class="edge">
<title>Node16&#45;&gt;Node15</title>
<g id="a_edge21_Node000016_Node000015"><a xlink:title=" ">
<path fill="none" stroke="#63b8ff" d="M1050.54,-165.3C1022.95,-155.02 986.71,-141.51 961.59,-132.15"/>
<polygon fill="#63b8ff" stroke="#63b8ff" points="962.91,-128.91 952.32,-128.7 960.47,-135.47 962.91,-128.91"/>
</a>
</g>
</g>
<!-- Node17&#45;&gt;Node5 -->
<g id="edge23_Node000017_Node000005" class="edge">
<title>Node17&#45;&gt;Node5</title>
<g id="a_edge23_Node000017_Node000005"><a xlink:title=" ">
<path fill="none" stroke="#63b8ff" d="M482.47,-165.3C500.17,-156.16 522.8,-144.47 540.34,-135.41"/>
<polygon fill="#63b8ff" stroke="#63b8ff" points="541.89,-138.55 549.17,-130.85 538.68,-132.33 541.89,-138.55"/>
</a>
</g>
</g>
<!-- Node18&#45;&gt;Node5 -->
<g id="edge25_Node000018_Node000005" class="edge">
<title>Node18&#45;&gt;Node5</title>
<g id="a_edge25_Node000018_Node000005"><a xlink:title=" ">
<path fill="none" stroke="#63b8ff" d="M661.78,-165.3C642.1,-156.03 616.85,-144.13 597.51,-135.02"/>
<polygon fill="#63b8ff" stroke="#63b8ff" points="599.08,-131.89 588.54,-130.8 596.09,-138.23 599.08,-131.89"/>
</a>
</g>
</g>
<!-- Node18&#45;&gt;Node13 -->
<g id="edge26_Node000018_Node000013" class="edge">
<title>Node18&#45;&gt;Node13</title>
<g id="a_edge26_Node000018_Node000013"><a xlink:title=" ">
<path fill="none" stroke="#63b8ff" d="M730.71,-165.3C755.15,-155.77 786.69,-143.47 810.29,-134.27"/>
<polygon fill="#63b8ff" stroke="#63b8ff" points="811.39,-137.6 819.43,-130.7 808.84,-131.08 811.39,-137.6"/>
</a>
</g>
</g>
<!-- Node18&#45;&gt;Node15 -->
<g id="edge27_Node000018_Node000015" class="edge">
<title>Node18&#45;&gt;Node15</title>
<g id="a_edge27_Node000018_Node000015"><a xlink:title=" ">
<path fill="none" stroke="#63b8ff" d="M752.39,-165.37C799.91,-153.66 864.6,-137.73 901.97,-128.52"/>
<polygon fill="#63b8ff" stroke="#63b8ff" points="902.74,-131.94 911.62,-126.15 901.07,-125.14 902.74,-131.94"/>
</a>
</g>
</g>
<!-- Node19&#45;&gt;Node5 -->
<g id="edge29_Node000019_Node000005" class="edge">
<title>Node19&#45;&gt;Node5</title>
<g id="a_edge29_Node000019_Node000005"><a xlink:title=" ">
<path fill="none" stroke="#63b8ff" d="M770.3,-166.93C725.11,-156.7 662.85,-142.6 619.37,-132.76"/>
<polygon fill="#63b8ff" stroke="#63b8ff" points="620.2,-129.36 609.67,-130.56 618.65,-136.18 620.2,-129.36"/>
</a>
</g>
</g>
<!-- Node19&#45;&gt;Node13 -->
<g id="edge30_Node000019_Node000013" class="edge">
<title>Node19&#45;&gt;Node13</title>
<g id="a_edge30_Node000019_Node000013"><a xlink:title=" ">
<path fill="none" stroke="#63b8ff" d="M831.96,-165.45C833.95,-158.12 836.39,-149.12 838.56,-141.16"/>
<polygon fill="#63b8ff" stroke="#63b8ff" points="841.89,-142.23 841.14,-131.66 835.14,-140.39 841.89,-142.23"/>
</a>
</g>
</g>
<!-- Node19&#45;&gt;Node15 -->
<g id="edge31_Node000019_Node000015" class="edge">
<title>Node19&#45;&gt;Node15</title>
<g id="a_edge31_Node000019_Node000015"><a xlink:title=" ">
<path fill="none" stroke="#63b8ff" d="M853.98,-165.3C869.97,-156.24 890.38,-144.69 906.32,-135.66"/>
<polygon fill="#63b8ff" stroke="#63b8ff" points="907.76,-138.87 914.73,-130.9 904.31,-132.78 907.76,-138.87"/>
</a>
</g>
</g>
<!-- Node20&#45;&gt;Node5 -->
<g id="edge35_Node000020_Node000005" class="edge">
<title>Node20&#45;&gt;Node5</title>
<g id="a_edge35_Node000020_Node000005"><a xlink:title=" ">
<path fill="none" stroke="#63b8ff" d="M166.3,-172.53C181.26,-170.27 197.8,-167.85 213,-165.75 316.47,-151.49 437.16,-136.71 507.82,-128.25"/>
<polygon fill="#63b8ff" stroke="#63b8ff" points="508.13,-131.74 517.64,-127.07 507.29,-124.78 508.13,-131.74"/>
</a>
</g>
</g>
<!-- Node20&#45;&gt;Node8 -->
<g id="edge37_Node000020_Node000008" class="edge">
<title>Node20&#45;&gt;Node8</title>
<g id="a_edge37_Node000020_Node000008"><a xlink:title=" ">
<path fill="none" stroke="#63b8ff" d="M115.14,-171.14C111.27,-157.62 105.64,-131.25 113,-110.5 125.11,-76.35 154.42,-45.36 174.25,-27.25"/>
<polygon fill="#63b8ff" stroke="#63b8ff" points="176.55,-29.89 181.72,-20.65 171.91,-24.65 176.55,-29.89"/>
</a>
</g>
</g>
<!-- Node21 -->
<g id="Node000021" class="node">
<title>Node21</title>
<g id="a_Node000021"><a xlink:title=" ">
<polygon fill="#e0e0e0" stroke="#999999" points="165.88,-129.75 122.12,-129.75 122.12,-110.5 165.88,-110.5 165.88,-129.75"/>
<text text-anchor="middle" x="144" y="-116.25" font-family="Helvetica,sans-Serif" font-size="10.00">format</text>
</a>
</g>
</g>
<!-- Node20&#45;&gt;Node21 -->
<g id="edge36_Node000020_Node000021" class="edge">
<title>Node20&#45;&gt;Node21</title>
<g id="a_edge36_Node000020_Node000021"><a xlink:title=" ">
<path fill="none" stroke="#63b8ff" d="M121.95,-171.06C125.5,-163.02 130.84,-150.93 135.37,-140.66"/>
<polygon fill="#63b8ff" stroke="#63b8ff" points="138.56,-142.1 139.4,-131.54 132.16,-139.27 138.56,-142.1"/>
</a>
</g>
</g>
<!-- Node23 -->
<g id="Node000023" class="node">
<title>Node23</title>
<g id="a_Node000023"><a xlink:title=" ">
<polygon fill="#e0e0e0" stroke="#999999" points="1228.38,-190.62 1193.62,-190.62 1193.62,-171.38 1228.38,-171.38 1228.38,-190.62"/>
<text text-anchor="middle" x="1211" y="-177.12" font-family="Helvetica,sans-Serif" font-size="10.00">print</text>
</a>
</g>
</g>
<!-- Node22&#45;&gt;Node23 -->
<g id="edge39_Node000022_Node000023" class="edge">
<title>Node22&#45;&gt;Node23</title>
<g id="a_edge39_Node000022_Node000023"><a xlink:title=" ">
<path fill="none" stroke="#63b8ff" d="M1024.81,-235.4C1062.13,-228.33 1126.65,-214.71 1180,-196.25 1180.96,-195.92 1181.92,-195.57 1182.89,-195.2"/>
<polygon fill="#63b8ff" stroke="#63b8ff" points="1183.94,-198.56 1191.82,-191.48 1181.24,-192.1 1183.94,-198.56"/>
</a>
</g>
</g>
</g>
</svg>
