<?xml version="1.0" encoding="UTF-8" standalone="no"?>
<!DOCTYPE svg PUBLIC "-//W3C//DTD SVG 1.1//EN"
 "http://www.w3.org/Graphics/SVG/1.1/DTD/svg11.dtd">
<!-- Generated by graphviz version 12.2.0 (20241103.1931)
 -->
<!-- Title: /github/workspace/include/fcarouge/kalman.hpp Pages: 1 -->
<svg width="1783pt" height="326pt"
 viewBox="0.00 0.00 1782.62 326.00" xmlns="http://www.w3.org/2000/svg" xmlns:xlink="http://www.w3.org/1999/xlink">
<g id="graph0" class="graph" transform="scale(1 1) rotate(0) translate(4 322)">
<title>/github/workspace/include/fcarouge/kalman.hpp</title>
<!-- Node1 -->
<g id="Node000001" class="node">
<title>Node1</title>
<g id="a_Node000001"><a xlink:title="The Kalman filter class and library top&#45;level header.">
<polygon fill="#999999" stroke="#666666" points="1527,-318 1397.75,-318 1397.75,-287.5 1527,-287.5 1527,-318"/>
<text text-anchor="start" x="1405.75" y="-304.5" font-family="Helvetica,sans-Serif" font-size="10.00">/github/workspace/include</text>
<text text-anchor="middle" x="1462.38" y="-293.25" font-family="Helvetica,sans-Serif" font-size="10.00">/fcarouge/kalman.hpp</text>
</a>
</g>
</g>
<!-- Node2 -->
<g id="Node000002" class="node">
<title>Node2</title>
<g id="a_Node000002"><a xlink:href="factory_8hpp.xhtml" target="_top" xlink:title=" ">
<polygon fill="white" stroke="#666666" points="1016.62,-251.5 882.12,-251.5 882.12,-232.25 1016.62,-232.25 1016.62,-251.5"/>
<text text-anchor="middle" x="949.38" y="-238" font-family="Helvetica,sans-Serif" font-size="10.00">kalman_internal/factory.hpp</text>
</a>
</g>
</g>
<!-- Node1&#45;&gt;Node2 -->
<g id="edge1_Node000001_Node000002" class="edge">
<title>Node1&#45;&gt;Node2</title>
<g id="a_edge1_Node000001_Node000002"><a xlink:title=" ">
<path fill="none" stroke="#63b8ff" d="M1397.4,-294.29C1303.43,-283.51 1129.75,-263.58 1028.46,-251.95"/>
<polygon fill="#63b8ff" stroke="#63b8ff" points="1028.91,-248.48 1018.58,-250.82 1028.12,-255.43 1028.91,-248.48"/>
</a>
</g>
</g>
<!-- Node4 -->
<g id="Node000004" class="node">
<title>Node4</title>
<g id="a_Node000004"><a xlink:href="utility_8hpp.xhtml" target="_top" xlink:title="The collection of utilities supporting the library.">
<polygon fill="white" stroke="#666666" points="1068.88,-129.75 971.88,-129.75 971.88,-110.5 1068.88,-110.5 1068.88,-129.75"/>
<text text-anchor="middle" x="1020.38" y="-116.25" font-family="Helvetica,sans-Serif" font-size="10.00">fcarouge/utility.hpp</text>
</a>
</g>
</g>
<!-- Node1&#45;&gt;Node4 -->
<g id="edge51_Node000001_Node000004" class="edge">
<title>Node1&#45;&gt;Node4</title>
<g id="a_edge51_Node000001_Node000004"><a xlink:title=" ">
<path fill="none" stroke="#63b8ff" d="M1446.15,-287.17C1407.89,-252.86 1314.64,-169.6 1306.38,-165.75 1233.62,-131.86 1140.33,-122.89 1080.45,-120.93"/>
<polygon fill="#63b8ff" stroke="#63b8ff" points="1080.9,-117.44 1070.81,-120.68 1080.72,-124.44 1080.9,-117.44"/>
</a>
</g>
</g>
<!-- Node23 -->
<g id="Node000023" class="node">
<title>Node23</title>
<g id="a_Node000023"><a xlink:href="format_8hpp.xhtml" target="_top" xlink:title="Formatting support for the Kalman filter.">
<polygon fill="white" stroke="#666666" points="1628.88,-190.62 1495.88,-190.62 1495.88,-171.38 1628.88,-171.38 1628.88,-190.62"/>
<text text-anchor="middle" x="1562.38" y="-177.12" font-family="Helvetica,sans-Serif" font-size="10.00">kalman_internal/format.hpp</text>
</a>
</g>
</g>
<!-- Node1&#45;&gt;Node23 -->
<g id="edge44_Node000001_Node000023" class="edge">
<title>Node1&#45;&gt;Node23</title>
<g id="a_edge44_Node000001_Node000023"><a xlink:title=" ">
<path fill="none" stroke="#63b8ff" d="M1463.28,-287.09C1464.86,-272.01 1469.25,-248.49 1481.38,-232.25 1493.31,-216.26 1511.97,-204.18 1528.38,-195.88"/>
<polygon fill="#63b8ff" stroke="#63b8ff" points="1529.84,-199.06 1537.37,-191.62 1526.84,-192.74 1529.84,-199.06"/>
</a>
</g>
</g>
<!-- Node25 -->
<g id="Node000025" class="node">
<title>Node25</title>
<g id="a_Node000025"><a xlink:href="printer_8hpp.xhtml" target="_top" xlink:title="Filter decoration support for printing operations.">
<polygon fill="white" stroke="#666666" points="1622.5,-251.5 1490.25,-251.5 1490.25,-232.25 1622.5,-232.25 1622.5,-251.5"/>
<text text-anchor="middle" x="1556.38" y="-238" font-family="Helvetica,sans-Serif" font-size="10.00">kalman_internal/printer.hpp</text>
</a>
</g>
</g>
<!-- Node1&#45;&gt;Node25 -->
<g id="edge49_Node000001_Node000025" class="edge">
<title>Node1&#45;&gt;Node25</title>
<g id="a_edge49_Node000001_Node000025"><a xlink:title=" ">
<path fill="none" stroke="#63b8ff" d="M1485.61,-287.2C1499.79,-278.32 1517.87,-266.99 1532.21,-258.01"/>
<polygon fill="#63b8ff" stroke="#63b8ff" points="1533.98,-261.03 1540.6,-252.75 1530.27,-255.1 1533.98,-261.03"/>
</a>
</g>
</g>
<!-- Node27 -->
<g id="Node000027" class="node">
<title>Node27</title>
<g id="a_Node000027"><a xlink:title=" ">
<polygon fill="#e0e0e0" stroke="#999999" points="1774.62,-251.5 1640.12,-251.5 1640.12,-232.25 1774.62,-232.25 1774.62,-251.5"/>
<text text-anchor="middle" x="1707.38" y="-238" font-family="Helvetica,sans-Serif" font-size="10.00">kalman_internal/kalman.tpp</text>
</a>
</g>
</g>
<!-- Node1&#45;&gt;Node27 -->
<g id="edge52_Node000001_Node000027" class="edge">
<title>Node1&#45;&gt;Node27</title>
<g id="a_edge52_Node000001_Node000027"><a xlink:title=" ">
<path fill="none" stroke="#63b8ff" d="M1523.57,-287.05C1565.23,-277.03 1619.65,-263.96 1658.44,-254.63"/>
<polygon fill="#63b8ff" stroke="#63b8ff" points="1659.06,-258.08 1667.97,-252.34 1657.43,-251.28 1659.06,-258.08"/>
</a>
</g>
</g>
<!-- Node3 -->
<g id="Node000003" class="node">
<title>Node3</title>
<g id="a_Node000003"><a xlink:href="type_8hpp.xhtml" target="_top" xlink:title=" ">
<polygon fill="white" stroke="#666666" points="1477.75,-196.25 1353,-196.25 1353,-165.75 1477.75,-165.75 1477.75,-196.25"/>
<text text-anchor="start" x="1361" y="-182.75" font-family="Helvetica,sans-Serif" font-size="10.00">fcarouge/kalman_internal</text>
<text text-anchor="middle" x="1415.38" y="-171.5" font-family="Helvetica,sans-Serif" font-size="10.00">/type.hpp</text>
</a>
</g>
</g>
<!-- Node2&#45;&gt;Node3 -->
<g id="edge2_Node000002_Node000003" class="edge">
<title>Node2&#45;&gt;Node3</title>
<g id="a_edge2_Node000002_Node000003"><a xlink:title=" ">
<path fill="none" stroke="#63b8ff" d="M1016.83,-232.56C1088.63,-223.68 1205.54,-209.14 1306.38,-196.25 1317.71,-194.8 1329.7,-193.25 1341.43,-191.72"/>
<polygon fill="#63b8ff" stroke="#63b8ff" points="1341.59,-195.23 1351.06,-190.47 1340.69,-188.29 1341.59,-195.23"/>
</a>
</g>
</g>
<!-- Node6 -->
<g id="Node000006" class="node">
<title>Node6</title>
<g id="a_Node000006"><a xlink:title=" ">
<polygon fill="#e0e0e0" stroke="#999999" points="1532.25,-19.25 1476.5,-19.25 1476.5,0 1532.25,0 1532.25,-19.25"/>
<text text-anchor="middle" x="1504.38" y="-5.75" font-family="Helvetica,sans-Serif" font-size="10.00">concepts</text>
</a>
</g>
</g>
<!-- Node2&#45;&gt;Node6 -->
<g id="edge42_Node000002_Node000006" class="edge">
<title>Node2&#45;&gt;Node6</title>
<g id="a_edge42_Node000002_Node000006"><a xlink:title=" ">
<path fill="none" stroke="#63b8ff" d="M1017.02,-241.61C1182.35,-242.71 1596.49,-240.93 1638.38,-196.25 1664.44,-168.44 1655.47,-144.56 1638.38,-110.5 1617.44,-68.8 1569.93,-40.07 1537.49,-24.48"/>
<polygon fill="#63b8ff" stroke="#63b8ff" points="1539.05,-21.35 1528.5,-20.33 1536.11,-27.7 1539.05,-21.35"/>
</a>
</g>
</g>
<!-- Node9 -->
<g id="Node000009" class="node">
<title>Node9</title>
<g id="a_Node000009"><a xlink:title=" ">
<polygon fill="#e0e0e0" stroke="#999999" points="1637.88,-19.25 1576.88,-19.25 1576.88,0 1637.88,0 1637.88,-19.25"/>
<text text-anchor="middle" x="1607.38" y="-5.75" font-family="Helvetica,sans-Serif" font-size="10.00">type_traits</text>
</a>
</g>
</g>
<!-- Node2&#45;&gt;Node9 -->
<g id="edge43_Node000002_Node000009" class="edge">
<title>Node2&#45;&gt;Node9</title>
<g id="a_edge43_Node000002_Node000009"><a xlink:title=" ">
<path fill="none" stroke="#63b8ff" d="M1017.02,-239.11C1190.38,-234.25 1638.55,-219.49 1660.38,-196.25 1705.47,-148.24 1650.09,-64.55 1621.93,-28.25"/>
<polygon fill="#63b8ff" stroke="#63b8ff" points="1624.73,-26.16 1615.76,-20.52 1619.26,-30.52 1624.73,-26.16"/>
</a>
</g>
</g>
<!-- Node12 -->
<g id="Node000012" class="node">
<title>Node12</title>
<g id="a_Node000012"><a xlink:href="x__z__p__q__r_8hpp.xhtml" target="_top" xlink:title=" ">
<polygon fill="white" stroke="#666666" points="868.75,-196.25 744,-196.25 744,-165.75 868.75,-165.75 868.75,-196.25"/>
<text text-anchor="start" x="752" y="-182.75" font-family="Helvetica,sans-Serif" font-size="10.00">fcarouge/kalman_internal</text>
<text text-anchor="middle" x="806.38" y="-171.5" font-family="Helvetica,sans-Serif" font-size="10.00">/x_z_p_q_r.hpp</text>
</a>
</g>
</g>
<!-- Node2&#45;&gt;Node12 -->
<g id="edge13_Node000002_Node000012" class="edge">
<title>Node2&#45;&gt;Node12</title>
<g id="a_edge13_Node000002_Node000012"><a xlink:title=" ">
<path fill="none" stroke="#63b8ff" d="M927.34,-231.8C907.46,-223.62 877.58,-211.31 852.48,-200.98"/>
<polygon fill="#63b8ff" stroke="#63b8ff" points="854.05,-197.84 843.47,-197.27 851.38,-204.31 854.05,-197.84"/>
</a>
</g>
</g>
<!-- Node13 -->
<g id="Node000013" class="node">
<title>Node13</title>
<g id="a_Node000013"><a xlink:href="x__z__p__q__r__h__f_8hpp.xhtml" target="_top" xlink:title=" ">
<polygon fill="white" stroke="#666666" points="1011.75,-196.25 887,-196.25 887,-165.75 1011.75,-165.75 1011.75,-196.25"/>
<text text-anchor="start" x="895" y="-182.75" font-family="Helvetica,sans-Serif" font-size="10.00">fcarouge/kalman_internal</text>
<text text-anchor="middle" x="949.38" y="-171.5" font-family="Helvetica,sans-Serif" font-size="10.00">/x_z_p_q_r_h_f.hpp</text>
</a>
</g>
</g>
<!-- Node2&#45;&gt;Node13 -->
<g id="edge15_Node000002_Node000013" class="edge">
<title>Node2&#45;&gt;Node13</title>
<g id="a_edge15_Node000002_Node000013"><a xlink:title=" ">
<path fill="none" stroke="#63b8ff" d="M949.38,-231.93C949.38,-225.48 949.38,-216.41 949.38,-207.76"/>
<polygon fill="#63b8ff" stroke="#63b8ff" points="952.88,-208.05 949.38,-198.05 945.88,-208.05 952.88,-208.05"/>
</a>
</g>
</g>
<!-- Node14 -->
<g id="Node000014" class="node">
<title>Node14</title>
<g id="a_Node000014"><a xlink:href="x__z__p__q__r__hh__us__ps_8hpp.xhtml" target="_top" xlink:title=" ">
<polygon fill="white" stroke="#666666" points="440.25,-196.25 312.5,-196.25 312.5,-165.75 440.25,-165.75 440.25,-196.25"/>
<text text-anchor="start" x="320.5" y="-182.75" font-family="Helvetica,sans-Serif" font-size="10.00">fcarouge/kalman_internal</text>
<text text-anchor="middle" x="376.38" y="-171.5" font-family="Helvetica,sans-Serif" font-size="10.00">/x_z_p_q_r_hh_us_ps.hpp</text>
</a>
</g>
</g>
<!-- Node2&#45;&gt;Node14 -->
<g id="edge17_Node000002_Node000014" class="edge">
<title>Node2&#45;&gt;Node14</title>
<g id="a_edge17_Node000002_Node000014"><a xlink:title=" ">
<path fill="none" stroke="#63b8ff" d="M882,-237.09C787.88,-231.31 611.54,-218.68 451.42,-196.44"/>
<polygon fill="#63b8ff" stroke="#63b8ff" points="452.29,-193.03 441.9,-195.1 451.32,-199.96 452.29,-193.03"/>
</a>
</g>
</g>
<!-- Node17 -->
<g id="Node000017" class="node">
<title>Node17</title>
<g id="a_Node000017"><a xlink:href="x__z__p__qq__rr__f_8hpp.xhtml" target="_top" xlink:title=" ">
<polygon fill="white" stroke="#666666" points="124.75,-196.25 0,-196.25 0,-165.75 124.75,-165.75 124.75,-196.25"/>
<text text-anchor="start" x="8" y="-182.75" font-family="Helvetica,sans-Serif" font-size="10.00">fcarouge/kalman_internal</text>
<text text-anchor="middle" x="62.38" y="-171.5" font-family="Helvetica,sans-Serif" font-size="10.00">/x_z_p_qq_rr_f.hpp</text>
</a>
</g>
</g>
<!-- Node2&#45;&gt;Node17 -->
<g id="edge22_Node000002_Node000017" class="edge">
<title>Node2&#45;&gt;Node17</title>
<g id="a_edge22_Node000002_Node000017"><a xlink:title=" ">
<path fill="none" stroke="#63b8ff" d="M881.64,-240.45C743.28,-238.87 418.14,-231.51 136.29,-196.5"/>
<polygon fill="#63b8ff" stroke="#63b8ff" points="136.87,-193.04 126.52,-195.27 136,-199.99 136.87,-193.04"/>
</a>
</g>
</g>
<!-- Node18 -->
<g id="Node000018" class="node">
<title>Node18</title>
<g id="a_Node000018"><a xlink:href="x__z__p__r_8hpp.xhtml" target="_top" xlink:title=" ">
<polygon fill="white" stroke="#666666" points="1154.75,-196.25 1030,-196.25 1030,-165.75 1154.75,-165.75 1154.75,-196.25"/>
<text text-anchor="start" x="1038" y="-182.75" font-family="Helvetica,sans-Serif" font-size="10.00">fcarouge/kalman_internal</text>
<text text-anchor="middle" x="1092.38" y="-171.5" font-family="Helvetica,sans-Serif" font-size="10.00">/x_z_p_r.hpp</text>
</a>
</g>
</g>
<!-- Node2&#45;&gt;Node18 -->
<g id="edge26_Node000002_Node000018" class="edge">
<title>Node2&#45;&gt;Node18</title>
<g id="a_edge26_Node000002_Node000018"><a xlink:title=" ">
<path fill="none" stroke="#63b8ff" d="M971.41,-231.8C991.29,-223.62 1021.17,-211.31 1046.27,-200.98"/>
<polygon fill="#63b8ff" stroke="#63b8ff" points="1047.37,-204.31 1055.28,-197.27 1044.7,-197.84 1047.37,-204.31"/>
</a>
</g>
</g>
<!-- Node19 -->
<g id="Node000019" class="node">
<title>Node19</title>
<g id="a_Node000019"><a xlink:href="x__z__p__r__f_8hpp.xhtml" target="_top" xlink:title=" ">
<polygon fill="white" stroke="#666666" points="1297.75,-196.25 1173,-196.25 1173,-165.75 1297.75,-165.75 1297.75,-196.25"/>
<text text-anchor="start" x="1181" y="-182.75" font-family="Helvetica,sans-Serif" font-size="10.00">fcarouge/kalman_internal</text>
<text text-anchor="middle" x="1235.38" y="-171.5" font-family="Helvetica,sans-Serif" font-size="10.00">/x_z_p_r_f.hpp</text>
</a>
</g>
</g>
<!-- Node2&#45;&gt;Node19 -->
<g id="edge28_Node000002_Node000019" class="edge">
<title>Node2&#45;&gt;Node19</title>
<g id="a_edge28_Node000002_Node000019"><a xlink:title=" ">
<path fill="none" stroke="#63b8ff" d="M993.44,-231.8C1038.2,-222.59 1108.33,-208.15 1161.59,-197.19"/>
<polygon fill="#63b8ff" stroke="#63b8ff" points="1162.11,-200.66 1171.2,-195.21 1160.7,-193.8 1162.11,-200.66"/>
</a>
</g>
</g>
<!-- Node20 -->
<g id="Node000020" class="node">
<title>Node20</title>
<g id="a_Node000020"><a xlink:href="x__z__u__p__q__r_8hpp.xhtml" target="_top" xlink:title=" ">
<polygon fill="white" stroke="#666666" points="582.75,-196.25 458,-196.25 458,-165.75 582.75,-165.75 582.75,-196.25"/>
<text text-anchor="start" x="466" y="-182.75" font-family="Helvetica,sans-Serif" font-size="10.00">fcarouge/kalman_internal</text>
<text text-anchor="middle" x="520.38" y="-171.5" font-family="Helvetica,sans-Serif" font-size="10.00">/x_z_u_p_q_r.hpp</text>
</a>
</g>
</g>
<!-- Node2&#45;&gt;Node20 -->
<g id="edge30_Node000002_Node000020" class="edge">
<title>Node2&#45;&gt;Node20</title>
<g id="a_edge30_Node000002_Node000020"><a xlink:title=" ">
<path fill="none" stroke="#63b8ff" d="M881.86,-233.97C812.19,-226.5 700.13,-213.54 594.26,-196.65"/>
<polygon fill="#63b8ff" stroke="#63b8ff" points="594.97,-193.22 584.54,-195.08 593.86,-200.13 594.97,-193.22"/>
</a>
</g>
</g>
<!-- Node21 -->
<g id="Node000021" class="node">
<title>Node21</title>
<g id="a_Node000021"><a xlink:href="x__z__u__p__q__r__f__g__ps_8hpp.xhtml" target="_top" xlink:title=" ">
<polygon fill="white" stroke="#666666" points="726.12,-196.25 600.62,-196.25 600.62,-165.75 726.12,-165.75 726.12,-196.25"/>
<text text-anchor="start" x="608.62" y="-182.75" font-family="Helvetica,sans-Serif" font-size="10.00">fcarouge/kalman_internal</text>
<text text-anchor="middle" x="663.38" y="-171.5" font-family="Helvetica,sans-Serif" font-size="10.00">/x_z_u_p_q_r_f_g_ps.hpp</text>
</a>
</g>
</g>
<!-- Node2&#45;&gt;Node21 -->
<g id="edge34_Node000002_Node000021" class="edge">
<title>Node2&#45;&gt;Node21</title>
<g id="a_edge34_Node000002_Node000021"><a xlink:title=" ">
<path fill="none" stroke="#63b8ff" d="M905.31,-231.8C860.7,-222.62 790.88,-208.25 737.69,-197.3"/>
<polygon fill="#63b8ff" stroke="#63b8ff" points="738.59,-193.91 728.08,-195.32 737.17,-200.77 738.59,-193.91"/>
</a>
</g>
</g>
<!-- Node22 -->
<g id="Node000022" class="node">
<title>Node22</title>
<g id="a_Node000022"><a xlink:href="x__z__u__p__q__r__h__f__g__us__ps_8hpp.xhtml" target="_top" xlink:title=" ">
<polygon fill="white" stroke="#666666" points="294.25,-196.25 142.5,-196.25 142.5,-165.75 294.25,-165.75 294.25,-196.25"/>
<text text-anchor="start" x="150.5" y="-182.75" font-family="Helvetica,sans-Serif" font-size="10.00">fcarouge/kalman_internal</text>
<text text-anchor="middle" x="218.38" y="-171.5" font-family="Helvetica,sans-Serif" font-size="10.00">/x_z_u_p_q_r_h_f_g_us_ps.hpp</text>
</a>
</g>
</g>
<!-- Node2&#45;&gt;Node22 -->
<g id="edge38_Node000002_Node000022" class="edge">
<title>Node2&#45;&gt;Node22</title>
<g id="a_edge38_Node000002_Node000022"><a xlink:title=" ">
<path fill="none" stroke="#63b8ff" d="M881.75,-238.37C765.95,-233.6 522.07,-221.49 305.59,-196.43"/>
<polygon fill="#63b8ff" stroke="#63b8ff" points="306.17,-192.97 295.83,-195.28 305.35,-199.92 306.17,-192.97"/>
</a>
</g>
</g>
<!-- Node3&#45;&gt;Node4 -->
<g id="edge3_Node000003_Node000004" class="edge">
<title>Node3&#45;&gt;Node4</title>
<g id="a_edge3_Node000003_Node000004"><a xlink:title=" ">
<path fill="none" stroke="#63b8ff" d="M1352.79,-168.03C1348.25,-167.23 1343.75,-166.47 1339.38,-165.75 1249.31,-151.01 1144.43,-136.93 1080.23,-128.66"/>
<polygon fill="#63b8ff" stroke="#63b8ff" points="1080.99,-125.22 1070.62,-127.42 1080.09,-132.17 1080.99,-125.22"/>
</a>
</g>
</g>
<!-- Node3&#45;&gt;Node9 -->
<g id="edge12_Node000003_Node000009" class="edge">
<title>Node3&#45;&gt;Node9</title>
<g id="a_edge12_Node000003_Node000009"><a xlink:title=" ">
<path fill="none" stroke="#63b8ff" d="M1436.43,-165.35C1463.81,-145.91 1512.6,-109.88 1550.38,-74.5 1566.09,-59.78 1582.27,-41.27 1593.35,-27.97"/>
<polygon fill="#63b8ff" stroke="#63b8ff" points="1595.84,-30.45 1599.49,-20.5 1590.44,-26.01 1595.84,-30.45"/>
</a>
</g>
</g>
<!-- Node11 -->
<g id="Node000011" class="node">
<title>Node11</title>
<g id="a_Node000011"><a xlink:title=" ">
<polygon fill="#e0e0e0" stroke="#999999" points="1281.12,-129.75 1209.62,-129.75 1209.62,-110.5 1281.12,-110.5 1281.12,-129.75"/>
<text text-anchor="middle" x="1245.38" y="-116.25" font-family="Helvetica,sans-Serif" font-size="10.00">initializer_list</text>
</a>
</g>
</g>
<!-- Node3&#45;&gt;Node11 -->
<g id="edge11_Node000003_Node000011" class="edge">
<title>Node3&#45;&gt;Node11</title>
<g id="a_edge11_Node000003_Node000011"><a xlink:title=" ">
<path fill="none" stroke="#63b8ff" d="M1372.92,-165.3C1345.12,-155.67 1309.15,-143.21 1282.5,-133.98"/>
<polygon fill="#63b8ff" stroke="#63b8ff" points="1283.72,-130.7 1273.13,-130.74 1281.43,-137.32 1283.72,-130.7"/>
</a>
</g>
</g>
<!-- Node5 -->
<g id="Node000005" class="node">
<title>Node5</title>
<g id="a_Node000005"><a xlink:href="kalman__internal_2utility_8hpp.xhtml" target="_top" xlink:title=" ">
<polygon fill="white" stroke="#666666" points="1541.25,-74.5 1413.5,-74.5 1413.5,-55.25 1541.25,-55.25 1541.25,-74.5"/>
<text text-anchor="middle" x="1477.38" y="-61" font-family="Helvetica,sans-Serif" font-size="10.00">kalman_internal/utility.hpp</text>
</a>
</g>
</g>
<!-- Node4&#45;&gt;Node5 -->
<g id="edge4_Node000004_Node000005" class="edge">
<title>Node4&#45;&gt;Node5</title>
<g id="a_edge4_Node000004_Node000005"><a xlink:title=" ">
<path fill="none" stroke="#63b8ff" d="M1069.28,-113.43C1149.05,-104.13 1307.69,-85.65 1401.96,-74.66"/>
<polygon fill="#63b8ff" stroke="#63b8ff" points="1402.1,-78.17 1411.63,-73.54 1401.29,-71.22 1402.1,-78.17"/>
</a>
</g>
</g>
<!-- Node7 -->
<g id="Node000007" class="node">
<title>Node7</title>
<g id="a_Node000007"><a xlink:title=" ">
<polygon fill="#e0e0e0" stroke="#999999" points="1409.5,-19.25 1361.25,-19.25 1361.25,0 1409.5,0 1409.5,-19.25"/>
<text text-anchor="middle" x="1385.38" y="-5.75" font-family="Helvetica,sans-Serif" font-size="10.00">cstddef</text>
</a>
</g>
</g>
<!-- Node4&#45;&gt;Node7 -->
<g id="edge9_Node000004_Node000007" class="edge">
<title>Node4&#45;&gt;Node7</title>
<g id="a_edge9_Node000004_Node000007"><a xlink:title=" ">
<path fill="none" stroke="#63b8ff" d="M1050.87,-110.06C1118.2,-90.05 1279.23,-42.18 1350.46,-21"/>
<polygon fill="#63b8ff" stroke="#63b8ff" points="1351.06,-24.48 1359.65,-18.27 1349.06,-17.77 1351.06,-24.48"/>
</a>
</g>
</g>
<!-- Node10 -->
<g id="Node000010" class="node">
<title>Node10</title>
<g id="a_Node000010"><a xlink:title=" ">
<polygon fill="#e0e0e0" stroke="#999999" points="1039.62,-74.5 1001.12,-74.5 1001.12,-55.25 1039.62,-55.25 1039.62,-74.5"/>
<text text-anchor="middle" x="1020.38" y="-61" font-family="Helvetica,sans-Serif" font-size="10.00">utility</text>
</a>
</g>
</g>
<!-- Node4&#45;&gt;Node10 -->
<g id="edge10_Node000004_Node000010" class="edge">
<title>Node4&#45;&gt;Node10</title>
<g id="a_edge10_Node000004_Node000010"><a xlink:title=" ">
<path fill="none" stroke="#63b8ff" d="M1020.38,-110.33C1020.38,-103.82 1020.38,-94.67 1020.38,-86.37"/>
<polygon fill="#63b8ff" stroke="#63b8ff" points="1023.88,-86.37 1020.38,-76.37 1016.88,-86.37 1023.88,-86.37"/>
</a>
</g>
</g>
<!-- Node5&#45;&gt;Node6 -->
<g id="edge5_Node000005_Node000006" class="edge">
<title>Node5&#45;&gt;Node6</title>
<g id="a_edge5_Node000005_Node000006"><a xlink:title=" ">
<path fill="none" stroke="#63b8ff" d="M1481.83,-55.08C1485.33,-48.19 1490.32,-38.34 1494.72,-29.66"/>
<polygon fill="#63b8ff" stroke="#63b8ff" points="1497.73,-31.46 1499.14,-20.96 1491.49,-28.3 1497.73,-31.46"/>
</a>
</g>
</g>
<!-- Node5&#45;&gt;Node7 -->
<g id="edge6_Node000005_Node000007" class="edge">
<title>Node5&#45;&gt;Node7</title>
<g id="a_edge6_Node000005_Node000007"><a xlink:title=" ">
<path fill="none" stroke="#63b8ff" d="M1461.77,-54.84C1447.76,-46.73 1426.94,-34.68 1410.57,-25.21"/>
<polygon fill="#63b8ff" stroke="#63b8ff" points="1412.78,-22.44 1402.37,-20.46 1409.27,-28.5 1412.78,-22.44"/>
</a>
</g>
</g>
<!-- Node8 -->
<g id="Node000008" class="node">
<title>Node8</title>
<g id="a_Node000008"><a xlink:title=" ">
<polygon fill="#e0e0e0" stroke="#999999" points="538.88,-19.25 501.88,-19.25 501.88,0 538.88,0 538.88,-19.25"/>
<text text-anchor="middle" x="520.38" y="-5.75" font-family="Helvetica,sans-Serif" font-size="10.00">tuple</text>
</a>
</g>
</g>
<!-- Node5&#45;&gt;Node8 -->
<g id="edge7_Node000005_Node000008" class="edge">
<title>Node5&#45;&gt;Node8</title>
<g id="a_edge7_Node000005_Node000008"><a xlink:title=" ">
<path fill="none" stroke="#63b8ff" d="M1413.31,-60.28C1385.65,-58.73 1352.92,-56.9 1323.38,-55.25 1021.99,-38.44 656.97,-18.2 550.73,-12.31"/>
<polygon fill="#63b8ff" stroke="#63b8ff" points="551.03,-8.82 540.86,-11.76 550.65,-15.81 551.03,-8.82"/>
</a>
</g>
</g>
<!-- Node5&#45;&gt;Node9 -->
<g id="edge8_Node000005_Node000009" class="edge">
<title>Node5&#45;&gt;Node9</title>
<g id="a_edge8_Node000005_Node000009"><a xlink:title=" ">
<path fill="none" stroke="#63b8ff" d="M1499.43,-54.84C1520.06,-46.39 1551.16,-33.65 1574.68,-24.02"/>
<polygon fill="#63b8ff" stroke="#63b8ff" points="1575.89,-27.31 1583.81,-20.28 1573.23,-20.83 1575.89,-27.31"/>
</a>
</g>
</g>
<!-- Node12&#45;&gt;Node4 -->
<g id="edge14_Node000012_Node000004" class="edge">
<title>Node12&#45;&gt;Node4</title>
<g id="a_edge14_Node000012_Node000004"><a xlink:title=" ">
<path fill="none" stroke="#63b8ff" d="M859.82,-165.3C895.75,-155.41 942.53,-142.54 976.32,-133.25"/>
<polygon fill="#63b8ff" stroke="#63b8ff" points="977.07,-136.67 985.78,-130.64 975.21,-129.92 977.07,-136.67"/>
</a>
</g>
</g>
<!-- Node13&#45;&gt;Node4 -->
<g id="edge16_Node000013_Node000004" class="edge">
<title>Node13&#45;&gt;Node4</title>
<g id="a_edge16_Node000013_Node000004"><a xlink:title=" ">
<path fill="none" stroke="#63b8ff" d="M966.93,-165.45C977.22,-156.91 990.24,-146.12 1000.85,-137.31"/>
<polygon fill="#63b8ff" stroke="#63b8ff" points="1002.8,-140.24 1008.26,-131.17 998.33,-134.86 1002.8,-140.24"/>
</a>
</g>
</g>
<!-- Node14&#45;&gt;Node4 -->
<g id="edge18_Node000014_Node000004" class="edge">
<title>Node14&#45;&gt;Node4</title>
<g id="a_edge18_Node000014_Node000004"><a xlink:title=" ">
<path fill="none" stroke="#63b8ff" d="M440.4,-167.07C443.43,-166.59 446.43,-166.15 449.38,-165.75 634.79,-140.49 856.18,-128.25 960.45,-123.54"/>
<polygon fill="#63b8ff" stroke="#63b8ff" points="960.32,-127.05 970.16,-123.11 960.01,-120.06 960.32,-127.05"/>
</a>
</g>
</g>
<!-- Node14&#45;&gt;Node8 -->
<g id="edge21_Node000014_Node000008" class="edge">
<title>Node14&#45;&gt;Node8</title>
<g id="a_edge21_Node000014_Node000008"><a xlink:title=" ">
<path fill="none" stroke="#63b8ff" d="M388.81,-165.5C397.41,-155.47 409.1,-141.81 419.38,-129.75 449.99,-93.81 485.68,-51.65 505.38,-28.36"/>
<polygon fill="#63b8ff" stroke="#63b8ff" points="508.02,-30.65 511.81,-20.76 502.68,-26.13 508.02,-30.65"/>
</a>
</g>
</g>
<!-- Node15 -->
<g id="Node000015" class="node">
<title>Node15</title>
<g id="a_Node000015"><a xlink:href="function_8hpp.xhtml" target="_top" xlink:title=" ">
<polygon fill="white" stroke="#666666" points="410.62,-129.75 342.12,-129.75 342.12,-110.5 410.62,-110.5 410.62,-129.75"/>
<text text-anchor="middle" x="376.38" y="-116.25" font-family="Helvetica,sans-Serif" font-size="10.00">function.hpp</text>
</a>
</g>
</g>
<!-- Node14&#45;&gt;Node15 -->
<g id="edge19_Node000014_Node000015" class="edge">
<title>Node14&#45;&gt;Node15</title>
<g id="a_edge19_Node000014_Node000015"><a xlink:title=" ">
<path fill="none" stroke="#63b8ff" d="M376.38,-165.45C376.38,-158.21 376.38,-149.34 376.38,-141.44"/>
<polygon fill="#63b8ff" stroke="#63b8ff" points="379.88,-141.71 376.38,-131.71 372.88,-141.71 379.88,-141.71"/>
</a>
</g>
</g>
<!-- Node16 -->
<g id="Node000016" class="node">
<title>Node16</title>
<g id="a_Node000016"><a xlink:title=" ">
<polygon fill="#e0e0e0" stroke="#999999" points="401.62,-74.5 351.12,-74.5 351.12,-55.25 401.62,-55.25 401.62,-74.5"/>
<text text-anchor="middle" x="376.38" y="-61" font-family="Helvetica,sans-Serif" font-size="10.00">memory</text>
</a>
</g>
</g>
<!-- Node15&#45;&gt;Node16 -->
<g id="edge20_Node000015_Node000016" class="edge">
<title>Node15&#45;&gt;Node16</title>
<g id="a_edge20_Node000015_Node000016"><a xlink:title=" ">
<path fill="none" stroke="#63b8ff" d="M376.38,-110.33C376.38,-103.82 376.38,-94.67 376.38,-86.37"/>
<polygon fill="#63b8ff" stroke="#63b8ff" points="379.88,-86.37 376.38,-76.37 372.88,-86.37 379.88,-86.37"/>
</a>
</g>
</g>
<!-- Node17&#45;&gt;Node4 -->
<g id="edge23_Node000017_Node000004" class="edge">
<title>Node17&#45;&gt;Node4</title>
<g id="a_edge23_Node000017_Node000004"><a xlink:title=" ">
<path fill="none" stroke="#63b8ff" d="M125.01,-166.91C127.83,-166.48 130.63,-166.09 133.38,-165.75 442.85,-127.12 817.03,-121.68 960.46,-121.09"/>
<polygon fill="#63b8ff" stroke="#63b8ff" points="960.1,-124.59 970.09,-121.06 960.07,-117.59 960.1,-124.59"/>
</a>
</g>
</g>
<!-- Node17&#45;&gt;Node8 -->
<g id="edge25_Node000017_Node000008" class="edge">
<title>Node17&#45;&gt;Node8</title>
<g id="a_edge25_Node000017_Node000008"><a xlink:title=" ">
<path fill="none" stroke="#63b8ff" d="M86.1,-165.45C129.22,-139.61 223.98,-85.59 310.38,-55.25 372.47,-33.44 448.81,-20.49 490.2,-14.55"/>
<polygon fill="#63b8ff" stroke="#63b8ff" points="490.47,-18.05 499.89,-13.2 489.51,-11.11 490.47,-18.05"/>
</a>
</g>
</g>
<!-- Node17&#45;&gt;Node15 -->
<g id="edge24_Node000017_Node000015" class="edge">
<title>Node17&#45;&gt;Node15</title>
<g id="a_edge24_Node000017_Node000015"><a xlink:title=" ">
<path fill="none" stroke="#63b8ff" d="M125.08,-167.36C127.89,-166.81 130.66,-166.27 133.38,-165.75 202.01,-152.56 281.71,-138.08 330.59,-129.3"/>
<polygon fill="#63b8ff" stroke="#63b8ff" points="331.02,-132.78 340.24,-127.57 329.78,-125.89 331.02,-132.78"/>
</a>
</g>
</g>
<!-- Node18&#45;&gt;Node4 -->
<g id="edge27_Node000018_Node000004" class="edge">
<title>Node18&#45;&gt;Node4</title>
<g id="a_edge27_Node000018_Node000004"><a xlink:title=" ">
<path fill="none" stroke="#63b8ff" d="M1074.58,-165.45C1064.14,-156.91 1050.94,-146.12 1040.17,-137.31"/>
<polygon fill="#63b8ff" stroke="#63b8ff" points="1042.6,-134.78 1032.65,-131.16 1038.17,-140.2 1042.6,-134.78"/>
</a>
</g>
</g>
<!-- Node19&#45;&gt;Node4 -->
<g id="edge29_Node000019_Node000004" class="edge">
<title>Node19&#45;&gt;Node4</title>
<g id="a_edge29_Node000019_Node000004"><a xlink:title=" ">
<path fill="none" stroke="#63b8ff" d="M1181.68,-165.3C1145.58,-155.41 1098.59,-142.54 1064.64,-133.25"/>
<polygon fill="#63b8ff" stroke="#63b8ff" points="1065.69,-129.91 1055.12,-130.64 1063.84,-136.66 1065.69,-129.91"/>
</a>
</g>
</g>
<!-- Node20&#45;&gt;Node4 -->
<g id="edge31_Node000020_Node000004" class="edge">
<title>Node20&#45;&gt;Node4</title>
<g id="a_edge31_Node000020_Node000004"><a xlink:title=" ">
<path fill="none" stroke="#63b8ff" d="M583.04,-167.09C585.85,-166.62 588.64,-166.17 591.38,-165.75 722.36,-145.84 877.2,-132.13 960.36,-125.57"/>
<polygon fill="#63b8ff" stroke="#63b8ff" points="960.4,-129.08 970.1,-124.81 959.86,-122.1 960.4,-129.08"/>
</a>
</g>
</g>
<!-- Node20&#45;&gt;Node8 -->
<g id="edge33_Node000020_Node000008" class="edge">
<title>Node20&#45;&gt;Node8</title>
<g id="a_edge33_Node000020_Node000008"><a xlink:title=" ">
<path fill="none" stroke="#63b8ff" d="M520.38,-165.27C520.38,-135.01 520.38,-65.8 520.38,-31.16"/>
<polygon fill="#63b8ff" stroke="#63b8ff" points="523.88,-31.25 520.38,-21.25 516.88,-31.25 523.88,-31.25"/>
</a>
</g>
</g>
<!-- Node20&#45;&gt;Node15 -->
<g id="edge32_Node000020_Node000015" class="edge">
<title>Node20&#45;&gt;Node15</title>
<g id="a_edge32_Node000020_Node000015"><a xlink:title=" ">
<path fill="none" stroke="#63b8ff" d="M484.41,-165.3C461.21,-155.81 431.3,-143.58 408.83,-134.39"/>
<polygon fill="#63b8ff" stroke="#63b8ff" points="410.44,-131.27 399.86,-130.73 407.79,-137.75 410.44,-131.27"/>
</a>
</g>
</g>
<!-- Node21&#45;&gt;Node4 -->
<g id="edge35_Node000021_Node000004" class="edge">
<title>Node21&#45;&gt;Node4</title>
<g id="a_edge35_Node000021_Node000004"><a xlink:title=" ">
<path fill="none" stroke="#63b8ff" d="M726.56,-167.35C729.54,-166.8 732.49,-166.26 735.38,-165.75 812.93,-152.01 902.75,-138.31 960.5,-129.79"/>
<polygon fill="#63b8ff" stroke="#63b8ff" points="960.73,-133.29 970.12,-128.37 959.71,-126.37 960.73,-133.29"/>
</a>
</g>
</g>
<!-- Node21&#45;&gt;Node8 -->
<g id="edge37_Node000021_Node000008" class="edge">
<title>Node21&#45;&gt;Node8</title>
<g id="a_edge37_Node000021_Node000008"><a xlink:title=" ">
<path fill="none" stroke="#63b8ff" d="M650.93,-165.27C624.71,-134.21 563.85,-62.12 535.46,-28.49"/>
<polygon fill="#63b8ff" stroke="#63b8ff" points="538.17,-26.27 529.04,-20.89 532.82,-30.79 538.17,-26.27"/>
</a>
</g>
</g>
<!-- Node21&#45;&gt;Node15 -->
<g id="edge36_Node000021_Node000015" class="edge">
<title>Node21&#45;&gt;Node15</title>
<g id="a_edge36_Node000021_Node000015"><a xlink:title=" ">
<path fill="none" stroke="#63b8ff" d="M600.39,-167.08C546.47,-156.02 470.12,-140.35 421.94,-130.47"/>
<polygon fill="#63b8ff" stroke="#63b8ff" points="422.9,-127.1 412.4,-128.52 421.49,-133.95 422.9,-127.1"/>
</a>
</g>
</g>
<!-- Node22&#45;&gt;Node4 -->
<g id="edge39_Node000022_Node000004" class="edge">
<title>Node22&#45;&gt;Node4</title>
<g id="a_edge39_Node000022_Node000004"><a xlink:title=" ">
<path fill="none" stroke="#63b8ff" d="M294.32,-166.87C297.37,-166.47 300.4,-166.09 303.38,-165.75 545.85,-137.96 836.58,-126.58 960.11,-122.76"/>
<polygon fill="#63b8ff" stroke="#63b8ff" points="960.13,-126.26 970.02,-122.46 959.92,-119.26 960.13,-126.26"/>
</a>
</g>
</g>
<!-- Node22&#45;&gt;Node8 -->
<g id="edge41_Node000022_Node000008" class="edge">
<title>Node22&#45;&gt;Node8</title>
<g id="a_edge41_Node000022_Node000008"><a xlink:title=" ">
<path fill="none" stroke="#63b8ff" d="M228.49,-165.53C247.6,-139.33 291.67,-84.08 342.38,-55.25 389.86,-28.25 453.58,-17.4 490.49,-13.18"/>
<polygon fill="#63b8ff" stroke="#63b8ff" points="490.39,-16.71 499.97,-12.19 489.66,-9.75 490.39,-16.71"/>
</a>
</g>
</g>
<!-- Node22&#45;&gt;Node15 -->
<g id="edge40_Node000022_Node000015" class="edge">
<title>Node22&#45;&gt;Node15</title>
<g id="a_edge40_Node000022_Node000015"><a xlink:title=" ">
<path fill="none" stroke="#63b8ff" d="M257.84,-165.3C283.52,-155.73 316.71,-143.36 341.44,-134.14"/>
<polygon fill="#63b8ff" stroke="#63b8ff" points="342.58,-137.45 350.73,-130.68 340.13,-130.89 342.58,-137.45"/>
</a>
</g>
</g>
<!-- Node23&#45;&gt;Node4 -->
<g id="edge45_Node000023_Node000004" class="edge">
<title>Node23&#45;&gt;Node4</title>
<g id="a_edge45_Node000023_Node000004"><a xlink:title=" ">
<path fill="none" stroke="#63b8ff" d="M1517.48,-170.89C1507.28,-169.01 1496.48,-167.18 1486.38,-165.75 1341.39,-145.26 1169.68,-131.51 1080.66,-125.16"/>
<polygon fill="#63b8ff" stroke="#63b8ff" points="1080.91,-121.67 1070.69,-124.45 1080.42,-128.65 1080.91,-121.67"/>
</a>
</g>
</g>
<!-- Node23&#45;&gt;Node7 -->
<g id="edge46_Node000023_Node000007" class="edge">
<title>Node23&#45;&gt;Node7</title>
<g id="a_edge46_Node000023_Node000007"><a xlink:title=" ">
<path fill="none" stroke="#63b8ff" d="M1539.62,-170.88C1505.19,-155.93 1440.11,-122.94 1404.38,-74.5 1395.01,-61.8 1390.23,-44.5 1387.81,-31.11"/>
<polygon fill="#63b8ff" stroke="#63b8ff" points="1391.27,-30.62 1386.36,-21.24 1384.35,-31.64 1391.27,-30.62"/>
</a>
</g>
</g>
<!-- Node23&#45;&gt;Node8 -->
<g id="edge48_Node000023_Node000008" class="edge">
<title>Node23&#45;&gt;Node8</title>
<g id="a_edge48_Node000023_Node000008"><a xlink:title=" ">
<path fill="none" stroke="#63b8ff" d="M1528.1,-170.94C1476.59,-157.39 1376.12,-131.24 1290.38,-110.5 1183.14,-84.56 1157.39,-72.21 1048.38,-55.25 860.32,-25.98 631.39,-14.88 550.46,-11.69"/>
<polygon fill="#63b8ff" stroke="#63b8ff" points="550.83,-8.2 540.71,-11.32 550.57,-15.2 550.83,-8.2"/>
</a>
</g>
</g>
<!-- Node24 -->
<g id="Node000024" class="node">
<title>Node24</title>
<g id="a_Node000024"><a xlink:title=" ">
<polygon fill="#e0e0e0" stroke="#999999" points="1629.25,-129.75 1585.5,-129.75 1585.5,-110.5 1629.25,-110.5 1629.25,-129.75"/>
<text text-anchor="middle" x="1607.38" y="-116.25" font-family="Helvetica,sans-Serif" font-size="10.00">format</text>
</a>
</g>
</g>
<!-- Node23&#45;&gt;Node24 -->
<g id="edge47_Node000023_Node000024" class="edge">
<title>Node23&#45;&gt;Node24</title>
<g id="a_edge47_Node000023_Node000024"><a xlink:title=" ">
<path fill="none" stroke="#63b8ff" d="M1569.21,-171.06C1575.69,-162.59 1585.6,-149.62 1593.7,-139.02"/>
<polygon fill="#63b8ff" stroke="#63b8ff" points="1596.27,-141.42 1599.56,-131.35 1590.7,-137.17 1596.27,-141.42"/>
</a>
</g>
</g>
<!-- Node26 -->
<g id="Node000026" class="node">
<title>Node26</title>
<g id="a_Node000026"><a xlink:title=" ">
<polygon fill="#e0e0e0" stroke="#999999" points="1757.75,-190.62 1723,-190.62 1723,-171.38 1757.75,-171.38 1757.75,-190.62"/>
<text text-anchor="middle" x="1740.38" y="-177.12" font-family="Helvetica,sans-Serif" font-size="10.00">print</text>
</a>
</g>
</g>
<!-- Node25&#45;&gt;Node26 -->
<g id="edge50_Node000025_Node000026" class="edge">
<title>Node25&#45;&gt;Node26</title>
<g id="a_edge50_Node000025_Node000026"><a xlink:title=" ">
<path fill="none" stroke="#63b8ff" d="M1593.04,-231.81C1624.34,-223.68 1670.36,-210.82 1709.38,-196.25 1710.32,-195.9 1711.28,-195.53 1712.24,-195.14"/>
<polygon fill="#63b8ff" stroke="#63b8ff" points="1713.32,-198.49 1721.14,-191.34 1710.57,-192.05 1713.32,-198.49"/>
</a>
</g>
</g>
</g>
</svg>
