<?xml version="1.0" encoding="UTF-8" standalone="no"?>
<!DOCTYPE svg PUBLIC "-//W3C//DTD SVG 1.1//EN"
 "http://www.w3.org/Graphics/SVG/1.1/DTD/svg11.dtd">
<!-- Generated by graphviz version 12.2.0 (20241103.1931)
 -->
<!-- Title: /github/workspace/test/kalman_format_1x4x3.cpp Pages: 1 -->
<!--zoomable 381 -->

<svg id="main" version="1.1" xmlns="http://www.w3.org/2000/svg" xmlns:xlink="http://www.w3.org/1999/xlink" xml:space="preserve" onload="init(evt)">

<style type="text/css"><![CDATA[
.node, .edge {opacity: 0.7;}
.node.selected, .edge.selected {opacity: 1;}
.edge:hover path { stroke: red; }
.edge:hover polygon { stroke: red; fill: red; }
]]></style>

<defs>
  <circle id="rim" cx="0" cy="0" r="7"/>
  <circle id="rim2" cx="0" cy="0" r="3.5"/>
  <g id="zoomPlus">
    <use xlink:href="#rim" fill="#404040"><set attributeName="fill" to="#808080" begin="zoomplus.mouseover" end="zoomplus.mouseout"/></use>
    <path d="M-4,0h8M0,-4v8" fill="none" stroke="white" stroke-width="1.5" pointer-events="none"/>
  </g>
  <g id="zoomMin">
    <use xlink:href="#rim" fill="#404040"><set attributeName="fill" to="#808080" begin="zoomminus.mouseover" end="zoomminus.mouseout"/></use>
    <path d="M-4,0h8" fill="none" stroke="white" stroke-width="1.5" pointer-events="none"/>
  </g>
  <g id="arrowUp" transform="translate(30 24)">
    <use xlink:href="#rim"/>
    <path pointer-events="none" fill="none" stroke="white" stroke-width="1.5" d="M0,-3.0v7 M-2.5,-0.5L0,-3.0L2.5,-0.5"/>
  </g>
  <g id="arrowRight" transform="rotate(90) translate(36 -43)">
    <use xlink:href="#rim"/>
    <path pointer-events="none" fill="none" stroke="white" stroke-width="1.5" d="M0,-3.0v7 M-2.5,-0.5L0,-3.0L2.5,-0.5"/>
  </g>
  <g id="arrowDown" transform="rotate(180) translate(-30 -48)">
    <use xlink:href="#rim"/>
    <path pointer-events="none" fill="none" stroke="white" stroke-width="1.5" d="M0,-3.0v7 M-2.5,-0.5L0,-3.0L2.5,-0.5"/>
  </g>
  <g id="arrowLeft" transform="rotate(270) translate(-36 17)">
    <use xlink:href="#rim"/>
    <path pointer-events="none" fill="none" stroke="white" stroke-width="1.5" d="M0,-3.0v7 M-2.5,-0.5L0,-3.0L2.5,-0.5"/>
  </g>
  <g id="resetDef">
    <use xlink:href="#rim2" fill="#404040"><set attributeName="fill" to="#808080" begin="reset.mouseover" end="reset.mouseout"/></use>
  </g>
</defs>
<script type="application/ecmascript">
var viewWidth = 1985;
var viewHeight = 381;
var sectionId = 'dynsection-0';
</script>
<script type="application/ecmascript" xlink:href="svg.min.js"/>
<svg id="graph" class="graph">
<g id="viewport">
<title>/github/workspace/test/kalman_format_1x4x3.cpp</title>
<!-- Node1 -->
<g id="Node000001" class="node">
<title>Node1</title>
<g id="a_Node000001"><a xlink:title=" ">
<polygon fill="#999999" stroke="#666666" points="1888.5,-373.25 1757,-373.25 1757,-342.75 1888.5,-342.75 1888.5,-373.25"/>
<text text-anchor="start" x="1765" y="-359.75" font-family="Helvetica,sans-Serif" font-size="10.00">/github/workspace/test</text>
<text text-anchor="middle" x="1822.75" y="-348.5" font-family="Helvetica,sans-Serif" font-size="10.00">/kalman_format_1x4x3.cpp</text>
</a>
</g>
</g>
<!-- Node2 -->
<g id="Node000002" class="node">
<title>Node2</title>
<g id="a_Node000002"><a xlink:href="kalman_8hpp.xhtml" target="_top" xlink:title="The Kalman filter class and library top&#45;level header.">
<polygon fill="white" stroke="#666666" points="1544.75,-306.75 1438.75,-306.75 1438.75,-287.5 1544.75,-287.5 1544.75,-306.75"/>
<text text-anchor="middle" x="1491.75" y="-293.25" font-family="Helvetica,sans-Serif" font-size="10.00">fcarouge/kalman.hpp</text>
</a>
</g>
</g>
<!-- Node1&#45;&gt;Node2 -->
<g id="edge1_Node000001_Node000002" class="edge">
<title>Node1&#45;&gt;Node2</title>
<g id="a_edge1_Node000001_Node000002"><a xlink:title=" ">
<path fill="none" stroke="#63b8ff" d="M1756.56,-345.23C1697.58,-334.74 1611.88,-319.49 1554.09,-309.21"/>
<polygon fill="#63b8ff" stroke="#63b8ff" points="1554.87,-305.8 1544.42,-307.49 1553.65,-312.69 1554.87,-305.8"/>
</a>
</g>
</g>
<!-- Node25 -->
<g id="Node000025" class="node">
<title>Node25</title>
<g id="a_Node000025"><a xlink:title=" ">
<polygon fill="#e0e0e0" stroke="#999999" points="1786.62,-129.75 1742.88,-129.75 1742.88,-110.5 1786.62,-110.5 1786.62,-129.75"/>
<text text-anchor="middle" x="1764.75" y="-116.25" font-family="Helvetica,sans-Serif" font-size="10.00">format</text>
</a>
</g>
</g>
<!-- Node1&#45;&gt;Node25 -->
<g id="edge56_Node000001_Node000025" class="edge">
<title>Node1&#45;&gt;Node25</title>
<g id="a_edge56_Node000001_Node000025"><a xlink:title=" ">
<path fill="none" stroke="#63b8ff" d="M1817.04,-342.65C1813.22,-332.69 1808.26,-319.05 1804.75,-306.75 1787.82,-247.44 1774.27,-175.67 1768.2,-141.34"/>
<polygon fill="#63b8ff" stroke="#63b8ff" points="1771.67,-140.86 1766.51,-131.61 1764.78,-142.06 1771.67,-140.86"/>
</a>
</g>
</g>
<!-- Node29 -->
<g id="Node000029" class="node">
<title>Node29</title>
<g id="a_Node000029"><a xlink:title=" ">
<polygon fill="#e0e0e0" stroke="#999999" points="1910.25,-306.75 1813.25,-306.75 1813.25,-287.5 1910.25,-287.5 1910.25,-306.75"/>
<text text-anchor="middle" x="1861.75" y="-293.25" font-family="Helvetica,sans-Serif" font-size="10.00">fcarouge/linalg.hpp</text>
</a>
</g>
</g>
<!-- Node1&#45;&gt;Node29 -->
<g id="edge54_Node000001_Node000029" class="edge">
<title>Node1&#45;&gt;Node29</title>
<g id="a_edge54_Node000001_Node000029"><a xlink:title=" ">
<path fill="none" stroke="#63b8ff" d="M1832.39,-342.45C1837.53,-334.69 1843.91,-325.06 1849.4,-316.76"/>
<polygon fill="#63b8ff" stroke="#63b8ff" points="1852.3,-318.73 1854.9,-308.46 1846.46,-314.87 1852.3,-318.73"/>
</a>
</g>
</g>
<!-- Node30 -->
<g id="Node000030" class="node">
<title>Node30</title>
<g id="a_Node000030"><a xlink:title=" ">
<polygon fill="#e0e0e0" stroke="#999999" points="1976.88,-306.75 1928.62,-306.75 1928.62,-287.5 1976.88,-287.5 1976.88,-306.75"/>
<text text-anchor="middle" x="1952.75" y="-293.25" font-family="Helvetica,sans-Serif" font-size="10.00">cassert</text>
</a>
</g>
</g>
<!-- Node1&#45;&gt;Node30 -->
<g id="edge55_Node000001_Node000030" class="edge">
<title>Node1&#45;&gt;Node30</title>
<g id="a_edge55_Node000001_Node000030"><a xlink:title=" ">
<path fill="none" stroke="#63b8ff" d="M1855.22,-342.3C1875.78,-332.98 1902.19,-321.02 1922.34,-311.9"/>
<polygon fill="#63b8ff" stroke="#63b8ff" points="1923.77,-315.09 1931.43,-307.78 1920.88,-308.72 1923.77,-315.09"/>
</a>
</g>
</g>
<!-- Node3 -->
<g id="Node000003" class="node">
<title>Node3</title>
<g id="a_Node000003"><a xlink:href="factory_8hpp.xhtml" target="_top" xlink:title=" ">
<polygon fill="white" stroke="#666666" points="911,-251.5 776.5,-251.5 776.5,-232.25 911,-232.25 911,-251.5"/>
<text text-anchor="middle" x="843.75" y="-238" font-family="Helvetica,sans-Serif" font-size="10.00">kalman_internal/factory.hpp</text>
</a>
</g>
</g>
<!-- Node2&#45;&gt;Node3 -->
<g id="edge2_Node000002_Node000003" class="edge">
<title>Node2&#45;&gt;Node3</title>
<g id="a_edge2_Node000002_Node000003"><a xlink:title=" ">
<path fill="none" stroke="#63b8ff" d="M1438.45,-291.74C1324.45,-282.38 1056.5,-260.36 922.68,-249.36"/>
<polygon fill="#63b8ff" stroke="#63b8ff" points="923.09,-245.88 912.84,-248.55 922.52,-252.86 923.09,-245.88"/>
</a>
</g>
</g>
<!-- Node5 -->
<g id="Node000005" class="node">
<title>Node5</title>
<g id="a_Node000005"><a xlink:href="utility_8hpp.xhtml" target="_top" xlink:title="The collection of utilities supporting the library.">
<polygon fill="white" stroke="#666666" points="1035.25,-129.75 938.25,-129.75 938.25,-110.5 1035.25,-110.5 1035.25,-129.75"/>
<text text-anchor="middle" x="986.75" y="-116.25" font-family="Helvetica,sans-Serif" font-size="10.00">fcarouge/utility.hpp</text>
</a>
</g>
</g>
<!-- Node2&#45;&gt;Node5 -->
<g id="edge52_Node000002_Node000005" class="edge">
<title>Node2&#45;&gt;Node5</title>
<g id="a_edge52_Node000002_Node000005"><a xlink:title=" ">
<path fill="none" stroke="#63b8ff" d="M1481.78,-287.05C1449.91,-258.08 1352.11,-169.49 1343.75,-165.75 1224.53,-112.39 1179.31,-145.85 1046.93,-130.06"/>
<polygon fill="#63b8ff" stroke="#63b8ff" points="1047.42,-126.6 1037.05,-128.8 1046.53,-133.54 1047.42,-126.6"/>
</a>
</g>
</g>
<!-- Node24 -->
<g id="Node000024" class="node">
<title>Node24</title>
<g id="a_Node000024"><a xlink:href="format_8hpp.xhtml" target="_top" xlink:title="Formatting support for the Kalman filter.">
<polygon fill="white" stroke="#666666" points="1666.25,-190.62 1533.25,-190.62 1533.25,-171.38 1666.25,-171.38 1666.25,-190.62"/>
<text text-anchor="middle" x="1599.75" y="-177.12" font-family="Helvetica,sans-Serif" font-size="10.00">kalman_internal/format.hpp</text>
</a>
</g>
</g>
<!-- Node2&#45;&gt;Node24 -->
<g id="edge45_Node000002_Node000024" class="edge">
<title>Node2&#45;&gt;Node24</title>
<g id="a_edge45_Node000002_Node000024"><a xlink:title=" ">
<path fill="none" stroke="#63b8ff" d="M1482.52,-287.31C1470.2,-274.45 1451.29,-250.13 1463.75,-232.25 1474.07,-217.43 1515.54,-203.44 1550,-194"/>
<polygon fill="#63b8ff" stroke="#63b8ff" points="1550.67,-197.45 1559.43,-191.49 1548.87,-190.68 1550.67,-197.45"/>
</a>
</g>
</g>
<!-- Node26 -->
<g id="Node000026" class="node">
<title>Node26</title>
<g id="a_Node000026"><a xlink:href="printer_8hpp.xhtml" target="_top" xlink:title="Filter decoration support for printing operations.">
<polygon fill="white" stroke="#666666" points="1604.88,-251.5 1472.62,-251.5 1472.62,-232.25 1604.88,-232.25 1604.88,-251.5"/>
<text text-anchor="middle" x="1538.75" y="-238" font-family="Helvetica,sans-Serif" font-size="10.00">kalman_internal/printer.hpp</text>
</a>
</g>
</g>
<!-- Node2&#45;&gt;Node26 -->
<g id="edge50_Node000002_Node000026" class="edge">
<title>Node2&#45;&gt;Node26</title>
<g id="a_edge50_Node000002_Node000026"><a xlink:title=" ">
<path fill="none" stroke="#63b8ff" d="M1499.51,-287.33C1505.94,-280.05 1515.26,-269.48 1523.21,-260.48"/>
<polygon fill="#63b8ff" stroke="#63b8ff" points="1525.83,-262.81 1529.82,-252.99 1520.58,-258.18 1525.83,-262.81"/>
</a>
</g>
</g>
<!-- Node28 -->
<g id="Node000028" class="node">
<title>Node28</title>
<g id="a_Node000028"><a xlink:title=" ">
<polygon fill="#e0e0e0" stroke="#999999" points="1757,-251.5 1622.5,-251.5 1622.5,-232.25 1757,-232.25 1757,-251.5"/>
<text text-anchor="middle" x="1689.75" y="-238" font-family="Helvetica,sans-Serif" font-size="10.00">kalman_internal/kalman.tpp</text>
</a>
</g>
</g>
<!-- Node2&#45;&gt;Node28 -->
<g id="edge53_Node000002_Node000028" class="edge">
<title>Node2&#45;&gt;Node28</title>
<g id="a_edge53_Node000002_Node000028"><a xlink:title=" ">
<path fill="none" stroke="#63b8ff" d="M1525.34,-287.09C1558.33,-278.22 1608.88,-264.62 1645.21,-254.85"/>
<polygon fill="#63b8ff" stroke="#63b8ff" points="1645.79,-258.32 1654.54,-252.35 1643.97,-251.56 1645.79,-258.32"/>
</a>
</g>
</g>
<!-- Node4 -->
<g id="Node000004" class="node">
<title>Node4</title>
<g id="a_Node000004"><a xlink:href="type_8hpp.xhtml" target="_top" xlink:title=" ">
<polygon fill="white" stroke="#666666" points="1515.12,-196.25 1390.38,-196.25 1390.38,-165.75 1515.12,-165.75 1515.12,-196.25"/>
<text text-anchor="start" x="1398.38" y="-182.75" font-family="Helvetica,sans-Serif" font-size="10.00">fcarouge/kalman_internal</text>
<text text-anchor="middle" x="1452.75" y="-171.5" font-family="Helvetica,sans-Serif" font-size="10.00">/type.hpp</text>
</a>
</g>
</g>
<!-- Node3&#45;&gt;Node4 -->
<g id="edge3_Node000003_Node000004" class="edge">
<title>Node3&#45;&gt;Node4</title>
<g id="a_edge3_Node000003_Node000004"><a xlink:title=" ">
<path fill="none" stroke="#63b8ff" d="M911.37,-235.72C1007.55,-228.2 1189.33,-213.23 1343.75,-196.25 1355.11,-195 1367.11,-193.56 1378.84,-192.08"/>
<polygon fill="#63b8ff" stroke="#63b8ff" points="1379,-195.59 1388.48,-190.85 1378.11,-188.64 1379,-195.59"/>
</a>
</g>
</g>
<!-- Node7 -->
<g id="Node000007" class="node">
<title>Node7</title>
<g id="a_Node000007"><a xlink:title=" ">
<polygon fill="#e0e0e0" stroke="#999999" points="1026.62,-19.25 970.88,-19.25 970.88,0 1026.62,0 1026.62,-19.25"/>
<text text-anchor="middle" x="998.75" y="-5.75" font-family="Helvetica,sans-Serif" font-size="10.00">concepts</text>
</a>
</g>
</g>
<!-- Node3&#45;&gt;Node7 -->
<g id="edge43_Node000003_Node000007" class="edge">
<title>Node3&#45;&gt;Node7</title>
<g id="a_edge43_Node000003_Node000007"><a xlink:title=" ">
<path fill="none" stroke="#63b8ff" d="M817.17,-231.76C801.2,-224.75 782.19,-213.33 772.75,-196.25 766.19,-184.39 766.43,-177.74 772.75,-165.75 812.49,-90.27 907.38,-44.44 960.71,-23.74"/>
<polygon fill="#63b8ff" stroke="#63b8ff" points="961.88,-27.04 970,-20.24 959.41,-20.49 961.88,-27.04"/>
</a>
</g>
</g>
<!-- Node10 -->
<g id="Node000010" class="node">
<title>Node10</title>
<g id="a_Node000010"><a xlink:title=" ">
<polygon fill="#e0e0e0" stroke="#999999" points="1483.25,-19.25 1422.25,-19.25 1422.25,0 1483.25,0 1483.25,-19.25"/>
<text text-anchor="middle" x="1452.75" y="-5.75" font-family="Helvetica,sans-Serif" font-size="10.00">type_traits</text>
</a>
</g>
</g>
<!-- Node3&#45;&gt;Node10 -->
<g id="edge44_Node000003_Node000010" class="edge">
<title>Node3&#45;&gt;Node10</title>
<g id="a_edge44_Node000003_Node000010"><a xlink:title=" ">
<path fill="none" stroke="#63b8ff" d="M911.46,-239.75C1105.21,-236.21 1649.6,-223.84 1675.75,-196.25 1744.59,-123.62 1572.3,-51.93 1491.67,-23.46"/>
<polygon fill="#63b8ff" stroke="#63b8ff" points="1492.96,-20.2 1482.36,-20.23 1490.66,-26.82 1492.96,-20.2"/>
</a>
</g>
</g>
<!-- Node13 -->
<g id="Node000013" class="node">
<title>Node13</title>
<g id="a_Node000013"><a xlink:href="x__z__p__q__r_8hpp.xhtml" target="_top" xlink:title=" ">
<polygon fill="white" stroke="#666666" points="906.12,-196.25 781.38,-196.25 781.38,-165.75 906.12,-165.75 906.12,-196.25"/>
<text text-anchor="start" x="789.38" y="-182.75" font-family="Helvetica,sans-Serif" font-size="10.00">fcarouge/kalman_internal</text>
<text text-anchor="middle" x="843.75" y="-171.5" font-family="Helvetica,sans-Serif" font-size="10.00">/x_z_p_q_r.hpp</text>
</a>
</g>
</g>
<!-- Node3&#45;&gt;Node13 -->
<g id="edge14_Node000003_Node000013" class="edge">
<title>Node3&#45;&gt;Node13</title>
<g id="a_edge14_Node000003_Node000013"><a xlink:title=" ">
<path fill="none" stroke="#63b8ff" d="M843.75,-231.93C843.75,-225.48 843.75,-216.41 843.75,-207.76"/>
<polygon fill="#63b8ff" stroke="#63b8ff" points="847.25,-208.05 843.75,-198.05 840.25,-208.05 847.25,-208.05"/>
</a>
</g>
</g>
<!-- Node14 -->
<g id="Node000014" class="node">
<title>Node14</title>
<g id="a_Node000014"><a xlink:href="x__z__p__q__r__h__f_8hpp.xhtml" target="_top" xlink:title=" ">
<polygon fill="white" stroke="#666666" points="1049.12,-196.25 924.38,-196.25 924.38,-165.75 1049.12,-165.75 1049.12,-196.25"/>
<text text-anchor="start" x="932.38" y="-182.75" font-family="Helvetica,sans-Serif" font-size="10.00">fcarouge/kalman_internal</text>
<text text-anchor="middle" x="986.75" y="-171.5" font-family="Helvetica,sans-Serif" font-size="10.00">/x_z_p_q_r_h_f.hpp</text>
</a>
</g>
</g>
<!-- Node3&#45;&gt;Node14 -->
<g id="edge16_Node000003_Node000014" class="edge">
<title>Node3&#45;&gt;Node14</title>
<g id="a_edge16_Node000003_Node000014"><a xlink:title=" ">
<path fill="none" stroke="#63b8ff" d="M865.78,-231.8C885.66,-223.62 915.55,-211.31 940.64,-200.98"/>
<polygon fill="#63b8ff" stroke="#63b8ff" points="941.74,-204.31 949.66,-197.27 939.08,-197.84 941.74,-204.31"/>
</a>
</g>
</g>
<!-- Node15 -->
<g id="Node000015" class="node">
<title>Node15</title>
<g id="a_Node000015"><a xlink:href="x__z__p__q__r__hh__us__ps_8hpp.xhtml" target="_top" xlink:title=" ">
<polygon fill="white" stroke="#666666" points="271.62,-196.25 143.88,-196.25 143.88,-165.75 271.62,-165.75 271.62,-196.25"/>
<text text-anchor="start" x="151.88" y="-182.75" font-family="Helvetica,sans-Serif" font-size="10.00">fcarouge/kalman_internal</text>
<text text-anchor="middle" x="207.75" y="-171.5" font-family="Helvetica,sans-Serif" font-size="10.00">/x_z_p_q_r_hh_us_ps.hpp</text>
</a>
</g>
</g>
<!-- Node3&#45;&gt;Node15 -->
<g id="edge18_Node000003_Node000015" class="edge">
<title>Node3&#45;&gt;Node15</title>
<g id="a_edge18_Node000003_Node000015"><a xlink:title=" ">
<path fill="none" stroke="#63b8ff" d="M776.32,-238.01C672.53,-233.06 467.2,-221.09 283.03,-196.45"/>
<polygon fill="#63b8ff" stroke="#63b8ff" points="283.65,-193 273.28,-195.13 282.71,-199.94 283.65,-193"/>
</a>
</g>
</g>
<!-- Node18 -->
<g id="Node000018" class="node">
<title>Node18</title>
<g id="a_Node000018"><a xlink:href="x__z__p__qq__rr__f_8hpp.xhtml" target="_top" xlink:title=" ">
<polygon fill="white" stroke="#666666" points="414.12,-196.25 289.38,-196.25 289.38,-165.75 414.12,-165.75 414.12,-196.25"/>
<text text-anchor="start" x="297.38" y="-182.75" font-family="Helvetica,sans-Serif" font-size="10.00">fcarouge/kalman_internal</text>
<text text-anchor="middle" x="351.75" y="-171.5" font-family="Helvetica,sans-Serif" font-size="10.00">/x_z_p_qq_rr_f.hpp</text>
</a>
</g>
</g>
<!-- Node3&#45;&gt;Node18 -->
<g id="edge23_Node000003_Node000018" class="edge">
<title>Node3&#45;&gt;Node18</title>
<g id="a_edge23_Node000003_Node000018"><a xlink:title=" ">
<path fill="none" stroke="#63b8ff" d="M776.06,-235.64C695.03,-228.94 555.02,-215.99 425.69,-196.61"/>
<polygon fill="#63b8ff" stroke="#63b8ff" points="426.32,-193.17 415.91,-195.13 425.27,-200.09 426.32,-193.17"/>
</a>
</g>
</g>
<!-- Node19 -->
<g id="Node000019" class="node">
<title>Node19</title>
<g id="a_Node000019"><a xlink:href="x__z__p__r_8hpp.xhtml" target="_top" xlink:title=" ">
<polygon fill="white" stroke="#666666" points="1192.12,-196.25 1067.38,-196.25 1067.38,-165.75 1192.12,-165.75 1192.12,-196.25"/>
<text text-anchor="start" x="1075.38" y="-182.75" font-family="Helvetica,sans-Serif" font-size="10.00">fcarouge/kalman_internal</text>
<text text-anchor="middle" x="1129.75" y="-171.5" font-family="Helvetica,sans-Serif" font-size="10.00">/x_z_p_r.hpp</text>
</a>
</g>
</g>
<!-- Node3&#45;&gt;Node19 -->
<g id="edge27_Node000003_Node000019" class="edge">
<title>Node3&#45;&gt;Node19</title>
<g id="a_edge27_Node000003_Node000019"><a xlink:title=" ">
<path fill="none" stroke="#63b8ff" d="M887.81,-231.8C932.57,-222.59 1002.71,-208.15 1055.96,-197.19"/>
<polygon fill="#63b8ff" stroke="#63b8ff" points="1056.48,-200.66 1065.57,-195.21 1055.07,-193.8 1056.48,-200.66"/>
</a>
</g>
</g>
<!-- Node20 -->
<g id="Node000020" class="node">
<title>Node20</title>
<g id="a_Node000020"><a xlink:href="x__z__p__r__f_8hpp.xhtml" target="_top" xlink:title=" ">
<polygon fill="white" stroke="#666666" points="1335.12,-196.25 1210.38,-196.25 1210.38,-165.75 1335.12,-165.75 1335.12,-196.25"/>
<text text-anchor="start" x="1218.38" y="-182.75" font-family="Helvetica,sans-Serif" font-size="10.00">fcarouge/kalman_internal</text>
<text text-anchor="middle" x="1272.75" y="-171.5" font-family="Helvetica,sans-Serif" font-size="10.00">/x_z_p_r_f.hpp</text>
</a>
</g>
</g>
<!-- Node3&#45;&gt;Node20 -->
<g id="edge29_Node000003_Node000020" class="edge">
<title>Node3&#45;&gt;Node20</title>
<g id="a_edge29_Node000003_Node000020"><a xlink:title=" ">
<path fill="none" stroke="#63b8ff" d="M911.4,-233.87C980.89,-226.34 1092.44,-213.36 1198.71,-196.5"/>
<polygon fill="#63b8ff" stroke="#63b8ff" points="1199.15,-199.98 1208.47,-194.94 1198.05,-193.06 1199.15,-199.98"/>
</a>
</g>
</g>
<!-- Node21 -->
<g id="Node000021" class="node">
<title>Node21</title>
<g id="a_Node000021"><a xlink:href="x__z__u__p__q__r_8hpp.xhtml" target="_top" xlink:title=" ">
<polygon fill="white" stroke="#666666" points="726.12,-196.25 601.38,-196.25 601.38,-165.75 726.12,-165.75 726.12,-196.25"/>
<text text-anchor="start" x="609.38" y="-182.75" font-family="Helvetica,sans-Serif" font-size="10.00">fcarouge/kalman_internal</text>
<text text-anchor="middle" x="663.75" y="-171.5" font-family="Helvetica,sans-Serif" font-size="10.00">/x_z_u_p_q_r.hpp</text>
</a>
</g>
</g>
<!-- Node3&#45;&gt;Node21 -->
<g id="edge31_Node000003_Node000021" class="edge">
<title>Node3&#45;&gt;Node21</title>
<g id="a_edge31_Node000003_Node000021"><a xlink:title=" ">
<path fill="none" stroke="#63b8ff" d="M816.02,-231.8C790.33,-223.4 751.35,-210.65 719.26,-200.16"/>
<polygon fill="#63b8ff" stroke="#63b8ff" points="720.71,-196.95 710.12,-197.17 718.53,-203.6 720.71,-196.95"/>
</a>
</g>
</g>
<!-- Node22 -->
<g id="Node000022" class="node">
<title>Node22</title>
<g id="a_Node000022"><a xlink:href="x__z__u__p__q__r__f__g__ps_8hpp.xhtml" target="_top" xlink:title=" ">
<polygon fill="white" stroke="#666666" points="125.5,-196.25 0,-196.25 0,-165.75 125.5,-165.75 125.5,-196.25"/>
<text text-anchor="start" x="8" y="-182.75" font-family="Helvetica,sans-Serif" font-size="10.00">fcarouge/kalman_internal</text>
<text text-anchor="middle" x="62.75" y="-171.5" font-family="Helvetica,sans-Serif" font-size="10.00">/x_z_u_p_q_r_f_g_ps.hpp</text>
</a>
</g>
</g>
<!-- Node3&#45;&gt;Node22 -->
<g id="edge35_Node000003_Node000022" class="edge">
<title>Node3&#45;&gt;Node22</title>
<g id="a_edge35_Node000003_Node000022"><a xlink:title=" ">
<path fill="none" stroke="#63b8ff" d="M776.01,-239.6C651.43,-236.59 377.43,-226.96 136.95,-196.41"/>
<polygon fill="#63b8ff" stroke="#63b8ff" points="137.75,-192.99 127.39,-195.18 136.86,-199.93 137.75,-192.99"/>
</a>
</g>
</g>
<!-- Node23 -->
<g id="Node000023" class="node">
<title>Node23</title>
<g id="a_Node000023"><a xlink:href="x__z__u__p__q__r__h__f__g__us__ps_8hpp.xhtml" target="_top" xlink:title=" ">
<polygon fill="white" stroke="#666666" points="583.62,-196.25 431.88,-196.25 431.88,-165.75 583.62,-165.75 583.62,-196.25"/>
<text text-anchor="start" x="439.88" y="-182.75" font-family="Helvetica,sans-Serif" font-size="10.00">fcarouge/kalman_internal</text>
<text text-anchor="middle" x="507.75" y="-171.5" font-family="Helvetica,sans-Serif" font-size="10.00">/x_z_u_p_q_r_h_f_g_us_ps.hpp</text>
</a>
</g>
</g>
<!-- Node3&#45;&gt;Node23 -->
<g id="edge39_Node000003_Node000023" class="edge">
<title>Node3&#45;&gt;Node23</title>
<g id="a_edge39_Node000003_Node000023"><a xlink:title=" ">
<path fill="none" stroke="#63b8ff" d="M791.99,-231.8C739.54,-222.62 657.46,-208.23 594.95,-197.28"/>
<polygon fill="#63b8ff" stroke="#63b8ff" points="595.86,-193.89 585.41,-195.61 594.65,-200.78 595.86,-193.89"/>
</a>
</g>
</g>
<!-- Node4&#45;&gt;Node5 -->
<g id="edge4_Node000004_Node000005" class="edge">
<title>Node4&#45;&gt;Node5</title>
<g id="a_edge4_Node000004_Node000005"><a xlink:title=" ">
<path fill="none" stroke="#63b8ff" d="M1390.19,-167.87C1385.65,-167.11 1381.13,-166.4 1376.75,-165.75 1233.08,-144.55 1193.3,-148.67 1046.75,-130.09"/>
<polygon fill="#63b8ff" stroke="#63b8ff" points="1047.41,-126.64 1037.05,-128.84 1046.52,-133.59 1047.41,-126.64"/>
</a>
</g>
</g>
<!-- Node4&#45;&gt;Node10 -->
<g id="edge13_Node000004_Node000010" class="edge">
<title>Node4&#45;&gt;Node10</title>
<g id="a_edge13_Node000004_Node000010"><a xlink:title=" ">
<path fill="none" stroke="#63b8ff" d="M1452.75,-165.27C1452.75,-135.01 1452.75,-65.8 1452.75,-31.16"/>
<polygon fill="#63b8ff" stroke="#63b8ff" points="1456.25,-31.25 1452.75,-21.25 1449.25,-31.25 1456.25,-31.25"/>
</a>
</g>
</g>
<!-- Node12 -->
<g id="Node000012" class="node">
<title>Node12</title>
<g id="a_Node000012"><a xlink:title=" ">
<polygon fill="#e0e0e0" stroke="#999999" points="1124.5,-129.75 1053,-129.75 1053,-110.5 1124.5,-110.5 1124.5,-129.75"/>
<text text-anchor="middle" x="1088.75" y="-116.25" font-family="Helvetica,sans-Serif" font-size="10.00">initializer_list</text>
</a>
</g>
</g>
<!-- Node4&#45;&gt;Node12 -->
<g id="edge12_Node000004_Node000012" class="edge">
<title>Node4&#45;&gt;Node12</title>
<g id="a_edge12_Node000004_Node000012"><a xlink:title=" ">
<path fill="none" stroke="#63b8ff" d="M1390.16,-168.08C1385.62,-167.28 1381.12,-166.49 1376.75,-165.75 1271.27,-147.89 1244.36,-146.84 1138.75,-129.75 1137.76,-129.59 1136.76,-129.43 1135.75,-129.26"/>
<polygon fill="#63b8ff" stroke="#63b8ff" points="1136.72,-125.87 1126.28,-127.68 1135.57,-132.78 1136.72,-125.87"/>
</a>
</g>
</g>
<!-- Node6 -->
<g id="Node000006" class="node">
<title>Node6</title>
<g id="a_Node000006"><a xlink:href="kalman__internal_2utility_8hpp.xhtml" target="_top" xlink:title=" ">
<polygon fill="white" stroke="#666666" points="1308.62,-74.5 1180.88,-74.5 1180.88,-55.25 1308.62,-55.25 1308.62,-74.5"/>
<text text-anchor="middle" x="1244.75" y="-61" font-family="Helvetica,sans-Serif" font-size="10.00">kalman_internal/utility.hpp</text>
</a>
</g>
</g>
<!-- Node5&#45;&gt;Node6 -->
<g id="edge5_Node000005_Node000006" class="edge">
<title>Node5&#45;&gt;Node6</title>
<g id="a_edge5_Node000005_Node000006"><a xlink:title=" ">
<path fill="none" stroke="#63b8ff" d="M1030.81,-110.03C1074.78,-100.96 1142.45,-86.99 1189.88,-77.2"/>
<polygon fill="#63b8ff" stroke="#63b8ff" points="1190.3,-80.69 1199.39,-75.24 1188.89,-73.83 1190.3,-80.69"/>
</a>
</g>
</g>
<!-- Node8 -->
<g id="Node000008" class="node">
<title>Node8</title>
<g id="a_Node000008"><a xlink:title=" ">
<polygon fill="#e0e0e0" stroke="#999999" points="1360.88,-19.25 1312.62,-19.25 1312.62,0 1360.88,0 1360.88,-19.25"/>
<text text-anchor="middle" x="1336.75" y="-5.75" font-family="Helvetica,sans-Serif" font-size="10.00">cstddef</text>
</a>
</g>
</g>
<!-- Node5&#45;&gt;Node8 -->
<g id="edge10_Node000005_Node000008" class="edge">
<title>Node5&#45;&gt;Node8</title>
<g id="a_edge10_Node000005_Node000008"><a xlink:title=" ">
<path fill="none" stroke="#63b8ff" d="M1035.56,-111.68C1038.33,-111.27 1041.07,-110.88 1043.75,-110.5 1104.56,-101.91 1271.02,-114.35 1317.75,-74.5 1330.28,-63.82 1334.75,-45.27 1336.25,-30.91"/>
<polygon fill="#63b8ff" stroke="#63b8ff" points="1339.73,-31.37 1336.84,-21.17 1332.74,-30.94 1339.73,-31.37"/>
</a>
</g>
</g>
<!-- Node11 -->
<g id="Node000011" class="node">
<title>Node11</title>
<g id="a_Node000011"><a xlink:title=" ">
<polygon fill="#e0e0e0" stroke="#999999" points="1006,-74.5 967.5,-74.5 967.5,-55.25 1006,-55.25 1006,-74.5"/>
<text text-anchor="middle" x="986.75" y="-61" font-family="Helvetica,sans-Serif" font-size="10.00">utility</text>
</a>
</g>
</g>
<!-- Node5&#45;&gt;Node11 -->
<g id="edge11_Node000005_Node000011" class="edge">
<title>Node5&#45;&gt;Node11</title>
<g id="a_edge11_Node000005_Node000011"><a xlink:title=" ">
<path fill="none" stroke="#63b8ff" d="M986.75,-110.33C986.75,-103.82 986.75,-94.67 986.75,-86.37"/>
<polygon fill="#63b8ff" stroke="#63b8ff" points="990.25,-86.37 986.75,-76.37 983.25,-86.37 990.25,-86.37"/>
</a>
</g>
</g>
<!-- Node6&#45;&gt;Node7 -->
<g id="edge6_Node000006_Node000007" class="edge">
<title>Node6&#45;&gt;Node7</title>
<g id="a_edge6_Node000006_Node000007"><a xlink:title=" ">
<path fill="none" stroke="#63b8ff" d="M1202.74,-54.78C1156.54,-44.78 1082.89,-28.84 1037.87,-19.09"/>
<polygon fill="#63b8ff" stroke="#63b8ff" points="1038.79,-15.71 1028.28,-17.02 1037.31,-22.55 1038.79,-15.71"/>
</a>
</g>
</g>
<!-- Node6&#45;&gt;Node8 -->
<g id="edge7_Node000006_Node000008" class="edge">
<title>Node6&#45;&gt;Node8</title>
<g id="a_edge7_Node000006_Node000008"><a xlink:title=" ">
<path fill="none" stroke="#63b8ff" d="M1260.36,-54.84C1274.37,-46.73 1295.18,-34.68 1311.55,-25.21"/>
<polygon fill="#63b8ff" stroke="#63b8ff" points="1312.86,-28.5 1319.76,-20.46 1309.35,-22.44 1312.86,-28.5"/>
</a>
</g>
</g>
<!-- Node9 -->
<g id="Node000009" class="node">
<title>Node9</title>
<g id="a_Node000009"><a xlink:title=" ">
<polygon fill="#e0e0e0" stroke="#999999" points="526.25,-19.25 489.25,-19.25 489.25,0 526.25,0 526.25,-19.25"/>
<text text-anchor="middle" x="507.75" y="-5.75" font-family="Helvetica,sans-Serif" font-size="10.00">tuple</text>
</a>
</g>
</g>
<!-- Node6&#45;&gt;Node9 -->
<g id="edge8_Node000006_Node000009" class="edge">
<title>Node6&#45;&gt;Node9</title>
<g id="a_edge8_Node000006_Node000009"><a xlink:title=" ">
<path fill="none" stroke="#63b8ff" d="M1180.5,-56.55C1175.85,-56.09 1171.23,-55.65 1166.75,-55.25 924.63,-33.68 631.63,-17.23 538.02,-12.22"/>
<polygon fill="#63b8ff" stroke="#63b8ff" points="538.33,-8.73 528.16,-11.69 537.96,-15.72 538.33,-8.73"/>
</a>
</g>
</g>
<!-- Node6&#45;&gt;Node10 -->
<g id="edge9_Node000006_Node000010" class="edge">
<title>Node6&#45;&gt;Node10</title>
<g id="a_edge9_Node000006_Node000010"><a xlink:title=" ">
<path fill="none" stroke="#63b8ff" d="M1280.03,-54.84C1316.32,-45.55 1372.82,-31.09 1411.23,-21.25"/>
<polygon fill="#63b8ff" stroke="#63b8ff" points="1411.76,-24.73 1420.58,-18.86 1410.02,-17.95 1411.76,-24.73"/>
</a>
</g>
</g>
<!-- Node13&#45;&gt;Node5 -->
<g id="edge15_Node000013_Node000005" class="edge">
<title>Node13&#45;&gt;Node5</title>
<g id="a_edge15_Node000013_Node000005"><a xlink:title=" ">
<path fill="none" stroke="#63b8ff" d="M879.47,-165.3C902.4,-155.85 931.94,-143.69 954.22,-134.52"/>
<polygon fill="#63b8ff" stroke="#63b8ff" points="955.51,-137.77 963.42,-130.73 952.84,-131.3 955.51,-137.77"/>
</a>
</g>
</g>
<!-- Node14&#45;&gt;Node5 -->
<g id="edge17_Node000014_Node000005" class="edge">
<title>Node14&#45;&gt;Node5</title>
<g id="a_edge17_Node000014_Node000005"><a xlink:title=" ">
<path fill="none" stroke="#63b8ff" d="M986.75,-165.45C986.75,-158.21 986.75,-149.34 986.75,-141.44"/>
<polygon fill="#63b8ff" stroke="#63b8ff" points="990.25,-141.71 986.75,-131.71 983.25,-141.71 990.25,-141.71"/>
</a>
</g>
</g>
<!-- Node15&#45;&gt;Node5 -->
<g id="edge19_Node000015_Node000005" class="edge">
<title>Node15&#45;&gt;Node5</title>
<g id="a_edge19_Node000015_Node000005"><a xlink:title=" ">
<path fill="none" stroke="#63b8ff" d="M271.77,-167.02C274.8,-166.55 277.8,-166.13 280.75,-165.75 518.53,-135.16 804.17,-125.27 926.44,-122.3"/>
<polygon fill="#63b8ff" stroke="#63b8ff" points="926.33,-125.81 936.24,-122.07 926.16,-118.81 926.33,-125.81"/>
</a>
</g>
</g>
<!-- Node15&#45;&gt;Node9 -->
<g id="edge22_Node000015_Node000009" class="edge">
<title>Node15&#45;&gt;Node9</title>
<g id="a_edge22_Node000015_Node000009"><a xlink:title=" ">
<path fill="none" stroke="#63b8ff" d="M216.27,-165.44C232.49,-139.08 270.43,-83.58 317.75,-55.25 368.36,-24.95 437.99,-15.23 477.38,-12.1"/>
<polygon fill="#63b8ff" stroke="#63b8ff" points="477.56,-15.6 487.3,-11.42 477.08,-8.61 477.56,-15.6"/>
</a>
</g>
</g>
<!-- Node16 -->
<g id="Node000016" class="node">
<title>Node16</title>
<g id="a_Node000016"><a xlink:href="function_8hpp.xhtml" target="_top" xlink:title=" ">
<polygon fill="white" stroke="#666666" points="386,-129.75 317.5,-129.75 317.5,-110.5 386,-110.5 386,-129.75"/>
<text text-anchor="middle" x="351.75" y="-116.25" font-family="Helvetica,sans-Serif" font-size="10.00">function.hpp</text>
</a>
</g>
</g>
<!-- Node15&#45;&gt;Node16 -->
<g id="edge20_Node000015_Node000016" class="edge">
<title>Node15&#45;&gt;Node16</title>
<g id="a_edge20_Node000015_Node000016"><a xlink:title=" ">
<path fill="none" stroke="#63b8ff" d="M243.72,-165.3C266.91,-155.81 296.83,-143.58 319.3,-134.39"/>
<polygon fill="#63b8ff" stroke="#63b8ff" points="320.33,-137.75 328.27,-130.73 317.68,-131.27 320.33,-137.75"/>
</a>
</g>
</g>
<!-- Node17 -->
<g id="Node000017" class="node">
<title>Node17</title>
<g id="a_Node000017"><a xlink:title=" ">
<polygon fill="#e0e0e0" stroke="#999999" points="377,-74.5 326.5,-74.5 326.5,-55.25 377,-55.25 377,-74.5"/>
<text text-anchor="middle" x="351.75" y="-61" font-family="Helvetica,sans-Serif" font-size="10.00">memory</text>
</a>
</g>
</g>
<!-- Node16&#45;&gt;Node17 -->
<g id="edge21_Node000016_Node000017" class="edge">
<title>Node16&#45;&gt;Node17</title>
<g id="a_edge21_Node000016_Node000017"><a xlink:title=" ">
<path fill="none" stroke="#63b8ff" d="M351.75,-110.33C351.75,-103.82 351.75,-94.67 351.75,-86.37"/>
<polygon fill="#63b8ff" stroke="#63b8ff" points="355.25,-86.37 351.75,-76.37 348.25,-86.37 355.25,-86.37"/>
</a>
</g>
</g>
<!-- Node18&#45;&gt;Node5 -->
<g id="edge24_Node000018_Node000005" class="edge">
<title>Node18&#45;&gt;Node5</title>
<g id="a_edge24_Node000018_Node000005"><a xlink:title=" ">
<path fill="none" stroke="#63b8ff" d="M414.4,-167C417.22,-166.55 420.01,-166.13 422.75,-165.75 605.18,-140.32 822.97,-128.2 926.43,-123.54"/>
<polygon fill="#63b8ff" stroke="#63b8ff" points="926.53,-127.04 936.37,-123.1 926.22,-120.04 926.53,-127.04"/>
</a>
</g>
</g>
<!-- Node18&#45;&gt;Node9 -->
<g id="edge26_Node000018_Node000009" class="edge">
<title>Node18&#45;&gt;Node9</title>
<g id="a_edge26_Node000018_Node000009"><a xlink:title=" ">
<path fill="none" stroke="#63b8ff" d="M365.32,-165.27C394.05,-134.07 460.9,-61.5 491.69,-28.06"/>
<polygon fill="#63b8ff" stroke="#63b8ff" points="494.13,-30.58 498.33,-20.85 488.98,-25.83 494.13,-30.58"/>
</a>
</g>
</g>
<!-- Node18&#45;&gt;Node16 -->
<g id="edge25_Node000018_Node000016" class="edge">
<title>Node18&#45;&gt;Node16</title>
<g id="a_edge25_Node000018_Node000016"><a xlink:title=" ">
<path fill="none" stroke="#63b8ff" d="M351.75,-165.45C351.75,-158.21 351.75,-149.34 351.75,-141.44"/>
<polygon fill="#63b8ff" stroke="#63b8ff" points="355.25,-141.71 351.75,-131.71 348.25,-141.71 355.25,-141.71"/>
</a>
</g>
</g>
<!-- Node19&#45;&gt;Node5 -->
<g id="edge28_Node000019_Node000005" class="edge">
<title>Node19&#45;&gt;Node5</title>
<g id="a_edge28_Node000019_Node000005"><a xlink:title=" ">
<path fill="none" stroke="#63b8ff" d="M1094.03,-165.3C1071.1,-155.85 1041.56,-143.69 1019.28,-134.52"/>
<polygon fill="#63b8ff" stroke="#63b8ff" points="1020.66,-131.3 1010.08,-130.73 1017.99,-137.77 1020.66,-131.3"/>
</a>
</g>
</g>
<!-- Node20&#45;&gt;Node5 -->
<g id="edge30_Node000020_Node000005" class="edge">
<title>Node20&#45;&gt;Node5</title>
<g id="a_edge30_Node000020_Node000005"><a xlink:title=" ">
<path fill="none" stroke="#63b8ff" d="M1209.99,-167.08C1159.75,-156.74 1089.98,-142.38 1041.88,-132.47"/>
<polygon fill="#63b8ff" stroke="#63b8ff" points="1042.73,-129.08 1032.23,-130.49 1041.32,-135.93 1042.73,-129.08"/>
</a>
</g>
</g>
<!-- Node21&#45;&gt;Node5 -->
<g id="edge32_Node000021_Node000005" class="edge">
<title>Node21&#45;&gt;Node5</title>
<g id="a_edge32_Node000021_Node000005"><a xlink:title=" ">
<path fill="none" stroke="#63b8ff" d="M726.41,-168.58C784.37,-158.01 869.93,-142.42 926.96,-132.02"/>
<polygon fill="#63b8ff" stroke="#63b8ff" points="927.27,-135.52 936.48,-130.29 926.01,-128.64 927.27,-135.52"/>
</a>
</g>
</g>
<!-- Node21&#45;&gt;Node9 -->
<g id="edge34_Node000021_Node000009" class="edge">
<title>Node21&#45;&gt;Node9</title>
<g id="a_edge34_Node000021_Node000009"><a xlink:title=" ">
<path fill="none" stroke="#63b8ff" d="M650.18,-165.27C621.45,-134.07 554.6,-61.5 523.81,-28.06"/>
<polygon fill="#63b8ff" stroke="#63b8ff" points="526.52,-25.83 517.17,-20.85 521.37,-30.58 526.52,-25.83"/>
</a>
</g>
</g>
<!-- Node21&#45;&gt;Node16 -->
<g id="edge33_Node000021_Node000016" class="edge">
<title>Node21&#45;&gt;Node16</title>
<g id="a_edge33_Node000021_Node000016"><a xlink:title=" ">
<path fill="none" stroke="#63b8ff" d="M601.04,-167.36C598.24,-166.81 595.47,-166.27 592.75,-165.75 524.67,-152.62 445.63,-138.12 397.15,-129.32"/>
<polygon fill="#63b8ff" stroke="#63b8ff" points="398.06,-125.93 387.59,-127.59 396.81,-132.82 398.06,-125.93"/>
</a>
</g>
</g>
<!-- Node22&#45;&gt;Node5 -->
<g id="edge36_Node000022_Node000005" class="edge">
<title>Node22&#45;&gt;Node5</title>
<g id="a_edge36_Node000022_Node000005"><a xlink:title=" ">
<path fill="none" stroke="#63b8ff" d="M125.88,-166.97C128.87,-166.52 131.84,-166.11 134.75,-165.75 430.33,-128.95 787.27,-122.43 926.78,-121.32"/>
<polygon fill="#63b8ff" stroke="#63b8ff" points="926.54,-124.83 936.51,-121.25 926.49,-117.83 926.54,-124.83"/>
</a>
</g>
</g>
<!-- Node22&#45;&gt;Node9 -->
<g id="edge38_Node000022_Node000009" class="edge">
<title>Node22&#45;&gt;Node9</title>
<g id="a_edge38_Node000022_Node000009"><a xlink:title=" ">
<path fill="none" stroke="#63b8ff" d="M84.03,-165.25C122.75,-139.1 208.12,-84.6 287.75,-55.25 353.12,-31.15 434.48,-18.95 477.61,-13.78"/>
<polygon fill="#63b8ff" stroke="#63b8ff" points="477.93,-17.27 487.47,-12.65 477.13,-10.31 477.93,-17.27"/>
</a>
</g>
</g>
<!-- Node22&#45;&gt;Node16 -->
<g id="edge37_Node000022_Node000016" class="edge">
<title>Node22&#45;&gt;Node16</title>
<g id="a_edge37_Node000022_Node000016"><a xlink:title=" ">
<path fill="none" stroke="#63b8ff" d="M125.82,-167.15C180.25,-156.06 257.56,-140.31 306.17,-130.41"/>
<polygon fill="#63b8ff" stroke="#63b8ff" points="306.7,-133.88 315.8,-128.45 305.3,-127.02 306.7,-133.88"/>
</a>
</g>
</g>
<!-- Node23&#45;&gt;Node5 -->
<g id="edge40_Node000023_Node000005" class="edge">
<title>Node23&#45;&gt;Node5</title>
<g id="a_edge40_Node000023_Node000005"><a xlink:title=" ">
<path fill="none" stroke="#63b8ff" d="M583.72,-167.06C586.77,-166.6 589.79,-166.17 592.75,-165.75 710.6,-149.21 848.96,-134.66 926.38,-126.95"/>
<polygon fill="#63b8ff" stroke="#63b8ff" points="926.7,-130.44 936.31,-125.97 926.01,-123.47 926.7,-130.44"/>
</a>
</g>
</g>
<!-- Node23&#45;&gt;Node9 -->
<g id="edge42_Node000023_Node000009" class="edge">
<title>Node23&#45;&gt;Node9</title>
<g id="a_edge42_Node000023_Node000009"><a xlink:title=" ">
<path fill="none" stroke="#63b8ff" d="M507.75,-165.27C507.75,-135.01 507.75,-65.8 507.75,-31.16"/>
<polygon fill="#63b8ff" stroke="#63b8ff" points="511.25,-31.25 507.75,-21.25 504.25,-31.25 511.25,-31.25"/>
</a>
</g>
</g>
<!-- Node23&#45;&gt;Node16 -->
<g id="edge41_Node000023_Node000016" class="edge">
<title>Node23&#45;&gt;Node16</title>
<g id="a_edge41_Node000023_Node000016"><a xlink:title=" ">
<path fill="none" stroke="#63b8ff" d="M468.79,-165.3C443.43,-155.73 410.66,-143.36 386.25,-134.14"/>
<polygon fill="#63b8ff" stroke="#63b8ff" points="387.68,-130.94 377.09,-130.69 385.21,-137.49 387.68,-130.94"/>
</a>
</g>
</g>
<!-- Node24&#45;&gt;Node5 -->
<g id="edge46_Node000024_Node000005" class="edge">
<title>Node24&#45;&gt;Node5</title>
<g id="a_edge46_Node000024_Node000005"><a xlink:title=" ">
<path fill="none" stroke="#63b8ff" d="M1555.68,-170.88C1545.24,-168.96 1534.13,-167.11 1523.75,-165.75 1315.25,-138.47 1258.27,-153.24 1046.71,-130"/>
<polygon fill="#63b8ff" stroke="#63b8ff" points="1047.37,-126.55 1037.04,-128.92 1046.59,-133.51 1047.37,-126.55"/>
</a>
</g>
</g>
<!-- Node24&#45;&gt;Node8 -->
<g id="edge47_Node000024_Node000008" class="edge">
<title>Node24&#45;&gt;Node8</title>
<g id="a_edge47_Node000024_Node000008"><a xlink:title=" ">
<path fill="none" stroke="#63b8ff" d="M1585.61,-170.89C1542.7,-143.26 1413.64,-60.15 1360.26,-25.77"/>
<polygon fill="#63b8ff" stroke="#63b8ff" points="1362.22,-22.86 1351.91,-20.39 1358.43,-28.75 1362.22,-22.86"/>
</a>
</g>
</g>
<!-- Node24&#45;&gt;Node9 -->
<g id="edge49_Node000024_Node000009" class="edge">
<title>Node24&#45;&gt;Node9</title>
<g id="a_edge49_Node000024_Node000009"><a xlink:title=" ">
<path fill="none" stroke="#63b8ff" d="M1564.41,-170.88C1473.76,-147.83 1225.28,-86.84 1014.75,-55.25 835.17,-28.3 617.19,-15.86 538.18,-12"/>
<polygon fill="#63b8ff" stroke="#63b8ff" points="538.39,-8.51 528.24,-11.53 538.06,-15.5 538.39,-8.51"/>
</a>
</g>
</g>
<!-- Node24&#45;&gt;Node25 -->
<g id="edge48_Node000024_Node000025" class="edge">
<title>Node24&#45;&gt;Node25</title>
<g id="a_edge48_Node000024_Node000025"><a xlink:title=" ">
<path fill="none" stroke="#63b8ff" d="M1625.17,-170.93C1653.75,-160.73 1700.26,-144.14 1731.66,-132.93"/>
<polygon fill="#63b8ff" stroke="#63b8ff" points="1732.81,-136.24 1741.05,-129.58 1730.46,-129.65 1732.81,-136.24"/>
</a>
</g>
</g>
<!-- Node27 -->
<g id="Node000027" class="node">
<title>Node27</title>
<g id="a_Node000027"><a xlink:title=" ">
<polygon fill="#e0e0e0" stroke="#999999" points="1757.12,-190.62 1722.38,-190.62 1722.38,-171.38 1757.12,-171.38 1757.12,-190.62"/>
<text text-anchor="middle" x="1739.75" y="-177.12" font-family="Helvetica,sans-Serif" font-size="10.00">print</text>
</a>
</g>
</g>
<!-- Node26&#45;&gt;Node27 -->
<g id="edge51_Node000026_Node000027" class="edge">
<title>Node26&#45;&gt;Node27</title>
<g id="a_edge51_Node000026_Node000027"><a xlink:title=" ">
<path fill="none" stroke="#63b8ff" d="M1581.64,-231.8C1616.4,-223.92 1666.38,-211.42 1708.75,-196.25 1709.7,-195.91 1710.66,-195.55 1711.63,-195.18"/>
<polygon fill="#63b8ff" stroke="#63b8ff" points="1712.69,-198.53 1720.54,-191.42 1709.97,-192.08 1712.69,-198.53"/>
</a>
</g>
</g>
</g>
</svg>

<g id="navigator" transform="translate(0 0)" fill="#404254">
  <rect fill="#f2f5e9" fill-opacity="0.5" stroke="#606060" stroke-width=".5" x="0" y="0" width="60" height="60"/>
  <use id="zoomplus" xlink:href="#zoomPlus" x="17" y="9" onmousedown="handleZoom(evt,'in')"/>
  <use id="zoomminus" xlink:href="#zoomMin" x="42" y="9" onmousedown="handleZoom(evt,'out')"/>
  <use id="reset" xlink:href="#resetDef" x="30" y="36" onmousedown="handleReset()"/>
   <use id="arrowup" xlink:href="#arrowUp" x="0" y="0" onmousedown="handlePan(0,-1)"/>
  <use id="arrowright" xlink:href="#arrowRight" x="0" y="0" onmousedown="handlePan(1,0)"/>
  <use id="arrowdown" xlink:href="#arrowDown" x="0" y="0" onmousedown="handlePan(0,1)"/>
  <use id="arrowleft" xlink:href="#arrowLeft" x="0" y="0" onmousedown="handlePan(-1,0)"/>
</g>
<svg viewBox="0 0 15 15" width="100%" height="30px" preserveAspectRatio="xMaxYMin meet">
 <g id="arrow_out" transform="scale(0.3 0.3)">
  <a xlink:href="kalman__format__1x4x3_8cpp__incl_org.svg" target="_base">
   <rect id="button" ry="5" rx="5" y="6" x="6" height="38" width="38"
        fill="#f2f5e9" fill-opacity="0.5" stroke="#606060" stroke-width="1.0"/>
   <path id="arrow"
     d="M 11.500037,31.436501 C 11.940474,20.09759 22.043105,11.32322 32.158766,21.979434 L 37.068811,17.246167 C 37.068811,17.246167 37.088388,32 37.088388,32 L 22.160133,31.978069 C 22.160133,31.978069 26.997745,27.140456 26.997745,27.140456 C 18.528582,18.264221 13.291696,25.230495 11.500037,31.436501 z"
     style="fill:#404040;"/>
  </a>
 </g>
</svg>

<style type='text/css'>
<![CDATA[
[data-mouse-over-selected='false'] { opacity: 0.7; }
[data-mouse-over-selected='true']  { opacity: 1.0; }
]]>
</style>
<script type="application/ecmascript"><![CDATA[
document.addEventListener('DOMContentLoaded', (event) => {
  highlightEdges();
  highlightAdjacentNodes();
});
]]></script>
</svg>
