<?xml version="1.0" encoding="UTF-8" standalone="no"?>
<!DOCTYPE svg PUBLIC "-//W3C//DTD SVG 1.1//EN"
 "http://www.w3.org/Graphics/SVG/1.1/DTD/svg11.dtd">
<!-- Generated by graphviz version 2.44.0 ()
 -->
<!-- Title: include/fcarouge/internal/kalman_operator.hpp Pages: 1 -->
<svg width="536pt" height="296pt"
 viewBox="0.00 0.00 536.00 296.00" xmlns="http://www.w3.org/2000/svg" xmlns:xlink="http://www.w3.org/1999/xlink">
<g id="graph0" class="graph" transform="scale(1 1) rotate(0) translate(4 292)">
<title>include/fcarouge/internal/kalman_operator.hpp</title>
<polygon fill="white" stroke="transparent" points="-4,4 -4,-292 532,-292 532,4 -4,4"/>
<!-- Node1 -->
<g id="node1" class="node">
<title>Node1</title>
<g id="a_node1"><a xlink:title="Kalman operation for standard types.">
<polygon fill="#bfbfbf" stroke="black" points="156.5,-257.5 156.5,-287.5 278.5,-287.5 278.5,-257.5 156.5,-257.5"/>
<text text-anchor="start" x="164.5" y="-275.5" font-family="Helvetica,sans-Serif" font-size="10.00">include/fcarouge/internal</text>
<text text-anchor="middle" x="217.5" y="-264.5" font-family="Helvetica,sans-Serif" font-size="10.00">/kalman_operator.hpp</text>
</a>
</g>
</g>
<!-- Node2 -->
<g id="node2" class="node">
<title>Node2</title>
<g id="a_node2"><a xlink:href="internal_2kalman_8hpp.xhtml" target="_top" xlink:title="The main Kalman filter class.">
<polygon fill="white" stroke="black" points="156.5,-190.5 156.5,-220.5 278.5,-220.5 278.5,-190.5 156.5,-190.5"/>
<text text-anchor="start" x="164.5" y="-208.5" font-family="Helvetica,sans-Serif" font-size="10.00">include/fcarouge/internal</text>
<text text-anchor="middle" x="217.5" y="-197.5" font-family="Helvetica,sans-Serif" font-size="10.00">/kalman.hpp</text>
</a>
</g>
</g>
<!-- Node1&#45;&gt;Node2 -->
<g id="edge1" class="edge">
<title>Node1&#45;&gt;Node2</title>
<path fill="none" stroke="midnightblue" d="M217.5,-247.11C217.5,-238.15 217.5,-228.32 217.5,-220.58"/>
<polygon fill="midnightblue" stroke="midnightblue" points="214,-247.4 217.5,-257.4 221,-247.4 214,-247.4"/>
</g>
<!-- Node3 -->
<g id="node3" class="node">
<title>Node3</title>
<g id="a_node3"><a xlink:href="kalman__eigen__operator_8hpp.xhtml" target="_top" xlink:title="Kalman operation for Eigen 3 types.">
<polygon fill="white" stroke="black" points="70.5,-123.5 70.5,-153.5 208.5,-153.5 208.5,-123.5 70.5,-123.5"/>
<text text-anchor="start" x="78.5" y="-141.5" font-family="Helvetica,sans-Serif" font-size="10.00">include/fcarouge/internal</text>
<text text-anchor="middle" x="139.5" y="-130.5" font-family="Helvetica,sans-Serif" font-size="10.00">/kalman_eigen_operator.hpp</text>
</a>
</g>
</g>
<!-- Node2&#45;&gt;Node3 -->
<g id="edge2" class="edge">
<title>Node2&#45;&gt;Node3</title>
<path fill="none" stroke="midnightblue" d="M192.76,-183.88C180.91,-174.01 167.02,-162.43 156.39,-153.58"/>
<polygon fill="midnightblue" stroke="midnightblue" points="190.65,-186.68 200.58,-190.4 195.13,-181.31 190.65,-186.68"/>
</g>
<!-- Node7 -->
<g id="node7" class="node">
<title>Node7</title>
<g id="a_node7"><a xlink:href="kalman_8hpp.xhtml" target="_top" xlink:title="The main Kalman filter class.">
<polygon fill="white" stroke="black" points="226.5,-129 226.5,-148 366.5,-148 366.5,-129 226.5,-129"/>
<text text-anchor="middle" x="296.5" y="-136" font-family="Helvetica,sans-Serif" font-size="10.00">include/fcarouge/kalman.hpp</text>
</a>
</g>
</g>
<!-- Node2&#45;&gt;Node7 -->
<g id="edge6" class="edge">
<title>Node2&#45;&gt;Node7</title>
<path fill="none" stroke="midnightblue" d="M242.41,-184.01C257.07,-171.94 274.86,-157.3 285.93,-148.19"/>
<polygon fill="midnightblue" stroke="midnightblue" points="240.14,-181.34 234.64,-190.4 244.59,-186.75 240.14,-181.34"/>
</g>
<!-- Node4 -->
<g id="node4" class="node">
<title>Node4</title>
<g id="a_node4"><a xlink:href="kalman__eigen_8hpp.xhtml" target="_top" xlink:title="Kalman operation for Eigen 3 types.">
<polygon fill="white" stroke="black" points="83.5,-56.5 83.5,-86.5 205.5,-86.5 205.5,-56.5 83.5,-56.5"/>
<text text-anchor="start" x="91.5" y="-74.5" font-family="Helvetica,sans-Serif" font-size="10.00">include/fcarouge/kalman</text>
<text text-anchor="middle" x="144.5" y="-63.5" font-family="Helvetica,sans-Serif" font-size="10.00">_eigen.hpp</text>
</a>
</g>
</g>
<!-- Node3&#45;&gt;Node4 -->
<g id="edge3" class="edge">
<title>Node3&#45;&gt;Node4</title>
<path fill="none" stroke="midnightblue" d="M141.35,-113.4C142.05,-104.37 142.81,-94.41 143.42,-86.58"/>
<polygon fill="midnightblue" stroke="midnightblue" points="137.86,-113.16 140.58,-123.4 144.84,-113.69 137.86,-113.16"/>
</g>
<!-- Node5 -->
<g id="node5" class="node">
<title>Node5</title>
<g id="a_node5"><a xlink:href="rocket__altitude_8cpp.xhtml" target="_top" xlink:title=" ">
<polygon fill="white" stroke="black" points="0,-0.5 0,-19.5 133,-19.5 133,-0.5 0,-0.5"/>
<text text-anchor="middle" x="66.5" y="-7.5" font-family="Helvetica,sans-Serif" font-size="10.00">sample/rocket_altitude.cpp</text>
</a>
</g>
</g>
<!-- Node4&#45;&gt;Node5 -->
<g id="edge4" class="edge">
<title>Node4&#45;&gt;Node5</title>
<path fill="none" stroke="midnightblue" d="M117.87,-50.19C104.22,-39.77 88.3,-27.63 77.85,-19.66"/>
<polygon fill="midnightblue" stroke="midnightblue" points="115.94,-53.12 126.02,-56.4 120.19,-47.55 115.94,-53.12"/>
</g>
<!-- Node6 -->
<g id="node6" class="node">
<title>Node6</title>
<g id="a_node6"><a xlink:href="vehicule__location_8cpp.xhtml" target="_top" xlink:title=" ">
<polygon fill="white" stroke="black" points="151.5,-0.5 151.5,-19.5 295.5,-19.5 295.5,-0.5 151.5,-0.5"/>
<text text-anchor="middle" x="223.5" y="-7.5" font-family="Helvetica,sans-Serif" font-size="10.00">sample/vehicule_location.cpp</text>
</a>
</g>
</g>
<!-- Node4&#45;&gt;Node6 -->
<g id="edge5" class="edge">
<title>Node4&#45;&gt;Node6</title>
<path fill="none" stroke="midnightblue" d="M171.47,-50.19C185.3,-39.77 201.42,-27.63 212,-19.66"/>
<polygon fill="midnightblue" stroke="midnightblue" points="169.1,-47.59 163.22,-56.4 173.32,-53.18 169.1,-47.59"/>
</g>
<!-- Node7&#45;&gt;Node4 -->
<g id="edge7" class="edge">
<title>Node7&#45;&gt;Node4</title>
<path fill="none" stroke="midnightblue" d="M267.07,-124.91C241.33,-113.91 203.99,-97.94 177.3,-86.53"/>
<polygon fill="midnightblue" stroke="midnightblue" points="265.74,-128.15 276.32,-128.87 268.5,-121.72 265.74,-128.15"/>
</g>
<!-- Node8 -->
<g id="node8" class="node">
<title>Node8</title>
<g id="a_node8"><a xlink:href="building__height_8cpp.xhtml" target="_top" xlink:title=" ">
<polygon fill="white" stroke="black" points="226.5,-62 226.5,-81 360.5,-81 360.5,-62 226.5,-62"/>
<text text-anchor="middle" x="293.5" y="-69" font-family="Helvetica,sans-Serif" font-size="10.00">sample/building_height.cpp</text>
</a>
</g>
</g>
<!-- Node7&#45;&gt;Node8 -->
<g id="edge8" class="edge">
<title>Node7&#45;&gt;Node8</title>
<path fill="none" stroke="midnightblue" d="M295.62,-118.54C295.05,-106.17 294.34,-90.62 293.9,-81.13"/>
<polygon fill="midnightblue" stroke="midnightblue" points="292.14,-118.91 296.1,-128.73 299.13,-118.58 292.14,-118.91"/>
</g>
<!-- Node9 -->
<g id="node9" class="node">
<title>Node9</title>
<g id="a_node9"><a xlink:href="liquid__temperature_8cpp.xhtml" target="_top" xlink:title=" ">
<polygon fill="white" stroke="black" points="379,-62 379,-81 528,-81 528,-62 379,-62"/>
<text text-anchor="middle" x="453.5" y="-69" font-family="Helvetica,sans-Serif" font-size="10.00">sample/liquid_temperature.cpp</text>
</a>
</g>
</g>
<!-- Node7&#45;&gt;Node9 -->
<g id="edge9" class="edge">
<title>Node7&#45;&gt;Node9</title>
<path fill="none" stroke="midnightblue" d="M326.82,-124.95C357.9,-112.08 405.43,-92.4 432.57,-81.17"/>
<polygon fill="midnightblue" stroke="midnightblue" points="325.25,-121.81 317.35,-128.87 327.93,-128.28 325.25,-121.81"/>
</g>
</g>
</svg>
