<?xml version="1.0" encoding="UTF-8" standalone="no"?>
<!DOCTYPE svg PUBLIC "-//W3C//DTD SVG 1.1//EN"
 "http://www.w3.org/Graphics/SVG/1.1/DTD/svg11.dtd">
<!-- Generated by graphviz version 2.49.3 (20211027.1534)
 -->
<!-- Title: include/fcarouge/kalman.hpp Pages: 1 -->
<svg width="471pt" height="140pt"
 viewBox="0.00 0.00 471.00 140.00" xmlns="http://www.w3.org/2000/svg" xmlns:xlink="http://www.w3.org/1999/xlink">
<g id="graph0" class="graph" transform="scale(1 1) rotate(0) translate(4 136)">
<title>include/fcarouge/kalman.hpp</title>
<polygon fill="white" stroke="transparent" points="-4,4 -4,-136 467,-136 467,4 -4,4"/>
<!-- Node1 -->
<g id="node1" class="node">
<title>Node1</title>
<g id="a_node1"><a xlink:title="The main Kalman filter class.">
<polygon fill="#bfbfbf" stroke="black" points="172.5,-112.5 172.5,-131.5 312.5,-131.5 312.5,-112.5 172.5,-112.5"/>
<text text-anchor="middle" x="242.5" y="-119.5" font-family="Helvetica,sans-Serif" font-size="10.00">include/fcarouge/kalman.hpp</text>
</a>
</g>
</g>
<!-- Node2 -->
<g id="node2" class="node">
<title>Node2</title>
<g id="a_node2"><a xlink:href="format_8hpp.xhtml" target="_top" xlink:title=" ">
<polygon fill="white" stroke="black" points="0,-56.5 0,-75.5 97,-75.5 97,-56.5 0,-56.5"/>
<text text-anchor="middle" x="48.5" y="-63.5" font-family="Helvetica,sans-Serif" font-size="10.00">internal/format.hpp</text>
</a>
</g>
</g>
<!-- Node1&#45;&gt;Node2 -->
<g id="edge1" class="edge">
<title>Node1&#45;&gt;Node2</title>
<path fill="none" stroke="midnightblue" d="M211.76,-112.44C178.56,-103.2 125.51,-88.44 88.94,-78.26"/>
<polygon fill="midnightblue" stroke="midnightblue" points="89.67,-74.83 79.1,-75.52 87.79,-81.57 89.67,-74.83"/>
</g>
<!-- Node3 -->
<g id="node3" class="node">
<title>Node3</title>
<g id="a_node3"><a xlink:href="internal_2kalman_8hpp.xhtml" target="_top" xlink:title=" ">
<polygon fill="white" stroke="black" points="192,-56.5 192,-75.5 293,-75.5 293,-56.5 192,-56.5"/>
<text text-anchor="middle" x="242.5" y="-63.5" font-family="Helvetica,sans-Serif" font-size="10.00">internal/kalman.hpp</text>
</a>
</g>
</g>
<!-- Node1&#45;&gt;Node3 -->
<g id="edge2" class="edge">
<title>Node1&#45;&gt;Node3</title>
<path fill="none" stroke="midnightblue" d="M242.5,-112.08C242.5,-105.01 242.5,-94.86 242.5,-85.99"/>
<polygon fill="midnightblue" stroke="midnightblue" points="246,-85.75 242.5,-75.75 239,-85.75 246,-85.75"/>
</g>
<!-- Node4 -->
<g id="node4" class="node">
<title>Node4</title>
<g id="a_node4"><a xlink:title=" ">
<polygon fill="white" stroke="#bfbfbf" points="121,-0.5 121,-19.5 180,-19.5 180,-0.5 121,-0.5"/>
<text text-anchor="middle" x="150.5" y="-7.5" font-family="Helvetica,sans-Serif" font-size="10.00">functional</text>
</a>
</g>
</g>
<!-- Node1&#45;&gt;Node4 -->
<g id="edge7" class="edge">
<title>Node1&#45;&gt;Node4</title>
<path fill="none" stroke="midnightblue" d="M224.33,-112.43C209.67,-104.71 189.44,-92.11 176.5,-76 165.57,-62.39 158.72,-43.59 154.82,-29.71"/>
<polygon fill="midnightblue" stroke="midnightblue" points="158.16,-28.65 152.29,-19.83 151.37,-30.38 158.16,-28.65"/>
</g>
<!-- Node5 -->
<g id="node5" class="node">
<title>Node5</title>
<g id="a_node5"><a xlink:title=" ">
<polygon fill="white" stroke="#bfbfbf" points="210.5,-0.5 210.5,-19.5 248.5,-19.5 248.5,-0.5 210.5,-0.5"/>
<text text-anchor="middle" x="229.5" y="-7.5" font-family="Helvetica,sans-Serif" font-size="10.00">tuple</text>
</a>
</g>
</g>
<!-- Node1&#45;&gt;Node5 -->
<g id="edge8" class="edge">
<title>Node1&#45;&gt;Node5</title>
<path fill="none" stroke="midnightblue" d="M223.2,-112.48C209.07,-105.08 190.94,-92.89 182.5,-76 173.17,-57.33 190.87,-38.24 207.15,-25.63"/>
<polygon fill="midnightblue" stroke="midnightblue" points="209.35,-28.36 215.39,-19.65 205.24,-22.69 209.35,-28.36"/>
</g>
<!-- Node6 -->
<g id="node6" class="node">
<title>Node6</title>
<g id="a_node6"><a xlink:title=" ">
<polygon fill="white" stroke="#bfbfbf" points="278.5,-0.5 278.5,-19.5 340.5,-19.5 340.5,-0.5 278.5,-0.5"/>
<text text-anchor="middle" x="309.5" y="-7.5" font-family="Helvetica,sans-Serif" font-size="10.00">type_traits</text>
</a>
</g>
</g>
<!-- Node1&#45;&gt;Node6 -->
<g id="edge9" class="edge">
<title>Node1&#45;&gt;Node6</title>
<path fill="none" stroke="midnightblue" d="M261.01,-112.37C274.91,-104.84 293.1,-92.52 302.5,-76 310.48,-61.97 311.76,-43.48 311.31,-29.8"/>
<polygon fill="midnightblue" stroke="midnightblue" points="314.79,-29.4 310.64,-19.65 307.81,-29.86 314.79,-29.4"/>
</g>
<!-- Node7 -->
<g id="node7" class="node">
<title>Node7</title>
<g id="a_node7"><a xlink:title=" ">
<polygon fill="white" stroke="#bfbfbf" points="349.5,-56.5 349.5,-75.5 405.5,-75.5 405.5,-56.5 349.5,-56.5"/>
<text text-anchor="middle" x="377.5" y="-63.5" font-family="Helvetica,sans-Serif" font-size="10.00">concepts</text>
</a>
</g>
</g>
<!-- Node1&#45;&gt;Node7 -->
<g id="edge6" class="edge">
<title>Node1&#45;&gt;Node7</title>
<path fill="none" stroke="midnightblue" d="M263.89,-112.44C286.21,-103.52 321.4,-89.44 346.71,-79.32"/>
<polygon fill="midnightblue" stroke="midnightblue" points="348.22,-82.48 356.21,-75.52 345.62,-75.98 348.22,-82.48"/>
</g>
<!-- Node8 -->
<g id="node8" class="node">
<title>Node8</title>
<g id="a_node8"><a xlink:title=" ">
<polygon fill="white" stroke="#bfbfbf" points="424,-56.5 424,-75.5 463,-75.5 463,-56.5 424,-56.5"/>
<text text-anchor="middle" x="443.5" y="-63.5" font-family="Helvetica,sans-Serif" font-size="10.00">utility</text>
</a>
</g>
</g>
<!-- Node1&#45;&gt;Node8 -->
<g id="edge10" class="edge">
<title>Node1&#45;&gt;Node8</title>
<path fill="none" stroke="midnightblue" d="M276.89,-112.49C309.73,-104.25 360.82,-91.16 414.24,-75.98"/>
<polygon fill="midnightblue" stroke="midnightblue" points="415.23,-79.33 423.88,-73.22 413.3,-72.6 415.23,-79.33"/>
</g>
<!-- Node3&#45;&gt;Node4 -->
<g id="edge3" class="edge">
<title>Node3&#45;&gt;Node4</title>
<path fill="none" stroke="midnightblue" d="M227.72,-56.32C213.23,-47.82 190.93,-34.73 174.01,-24.8"/>
<polygon fill="midnightblue" stroke="midnightblue" points="175.64,-21.7 165.24,-19.65 172.1,-27.74 175.64,-21.7"/>
</g>
<!-- Node3&#45;&gt;Node5 -->
<g id="edge4" class="edge">
<title>Node3&#45;&gt;Node5</title>
<path fill="none" stroke="midnightblue" d="M240.35,-56.08C238.63,-48.93 236.15,-38.64 234,-29.69"/>
<polygon fill="midnightblue" stroke="midnightblue" points="237.35,-28.65 231.61,-19.75 230.54,-30.29 237.35,-28.65"/>
</g>
<!-- Node3&#45;&gt;Node6 -->
<g id="edge5" class="edge">
<title>Node3&#45;&gt;Node6</title>
<path fill="none" stroke="midnightblue" d="M253.26,-56.32C263.27,-48.26 278.39,-36.08 290.43,-26.37"/>
<polygon fill="midnightblue" stroke="midnightblue" points="292.95,-28.83 298.54,-19.83 288.56,-23.38 292.95,-28.83"/>
</g>
</g>
</svg>
