<?xml version="1.0" encoding="UTF-8" standalone="no"?>
<!DOCTYPE svg PUBLIC "-//W3C//DTD SVG 1.1//EN"
 "http://www.w3.org/Graphics/SVG/1.1/DTD/svg11.dtd">
<!-- Generated by graphviz version 12.2.0 (20241103.1931)
 -->
<!-- Title: /github/workspace/test/kalman_println_1x1x0.cpp Pages: 1 -->
<svg width="1447pt" height="381pt"
 viewBox="0.00 0.00 1447.38 381.25" xmlns="http://www.w3.org/2000/svg" xmlns:xlink="http://www.w3.org/1999/xlink">
<g id="graph0" class="graph" transform="scale(1 1) rotate(0) translate(4 377.25)">
<title>/github/workspace/test/kalman_println_1x1x0.cpp</title>
<!-- Node1 -->
<g id="Node000001" class="node">
<title>Node1</title>
<g id="a_Node000001"><a xlink:title=" ">
<polygon fill="#999999" stroke="#666666" points="1428.25,-373.25 1298.25,-373.25 1298.25,-342.75 1428.25,-342.75 1428.25,-373.25"/>
<text text-anchor="start" x="1306.25" y="-359.75" font-family="Helvetica,sans-Serif" font-size="10.00">/github/workspace/test</text>
<text text-anchor="middle" x="1363.25" y="-348.5" font-family="Helvetica,sans-Serif" font-size="10.00">/kalman_println_1x1x0.cpp</text>
</a>
</g>
</g>
<!-- Node2 -->
<g id="Node000002" class="node">
<title>Node2</title>
<g id="a_Node000002"><a xlink:href="kalman_8hpp.xhtml" target="_top" xlink:title="The Kalman filter class and library top&#45;level header.">
<polygon fill="white" stroke="#666666" points="1096.25,-306.75 990.25,-306.75 990.25,-287.5 1096.25,-287.5 1096.25,-306.75"/>
<text text-anchor="middle" x="1043.25" y="-293.25" font-family="Helvetica,sans-Serif" font-size="10.00">fcarouge/kalman.hpp</text>
</a>
</g>
</g>
<!-- Node1&#45;&gt;Node2 -->
<g id="edge1_Node000001_Node000002" class="edge">
<title>Node1&#45;&gt;Node2</title>
<g id="a_edge1_Node000001_Node000002"><a xlink:title=" ">
<path fill="none" stroke="#63b8ff" d="M1298.11,-345.01C1241.18,-334.54 1159.17,-319.45 1103.68,-309.24"/>
<polygon fill="#63b8ff" stroke="#63b8ff" points="1104.56,-305.85 1094.1,-307.48 1103.3,-312.73 1104.56,-305.85"/>
</a>
</g>
</g>
<!-- Node28 -->
<g id="Node000028" class="node">
<title>Node28</title>
<g id="a_Node000028"><a xlink:title=" ">
<polygon fill="#e0e0e0" stroke="#999999" points="1394.62,-190.62 1359.88,-190.62 1359.88,-171.38 1394.62,-171.38 1394.62,-190.62"/>
<text text-anchor="middle" x="1377.25" y="-177.12" font-family="Helvetica,sans-Serif" font-size="10.00">print</text>
</a>
</g>
</g>
<!-- Node1&#45;&gt;Node28 -->
<g id="edge56_Node000001_Node000028" class="edge">
<title>Node1&#45;&gt;Node28</title>
<g id="a_edge56_Node000001_Node000028"><a xlink:title=" ">
<path fill="none" stroke="#63b8ff" d="M1364.42,-342.38C1366.91,-311.21 1372.76,-238.17 1375.62,-202.43"/>
<polygon fill="#63b8ff" stroke="#63b8ff" points="1379.09,-202.85 1376.4,-192.6 1372.12,-202.29 1379.09,-202.85"/>
</a>
</g>
</g>
<!-- Node30 -->
<g id="Node000030" class="node">
<title>Node30</title>
<g id="a_Node000030"><a xlink:title=" ">
<polygon fill="#e0e0e0" stroke="#999999" points="1439.38,-306.75 1391.12,-306.75 1391.12,-287.5 1439.38,-287.5 1439.38,-306.75"/>
<text text-anchor="middle" x="1415.25" y="-293.25" font-family="Helvetica,sans-Serif" font-size="10.00">cassert</text>
</a>
</g>
</g>
<!-- Node1&#45;&gt;Node30 -->
<g id="edge55_Node000001_Node000030" class="edge">
<title>Node1&#45;&gt;Node30</title>
<g id="a_edge55_Node000001_Node000030"><a xlink:title=" ">
<path fill="none" stroke="#63b8ff" d="M1376.1,-342.45C1383.26,-334.34 1392.22,-324.2 1399.76,-315.66"/>
<polygon fill="#63b8ff" stroke="#63b8ff" points="1402.24,-318.15 1406.23,-308.34 1396.99,-313.51 1402.24,-318.15"/>
</a>
</g>
</g>
<!-- Node3 -->
<g id="Node000003" class="node">
<title>Node3</title>
<g id="a_Node000003"><a xlink:href="kalman__forward_8hpp.xhtml" target="_top" xlink:title="Authoritative forward declaration header.">
<polygon fill="white" stroke="#666666" points="1014.75,-251.5 911.75,-251.5 911.75,-232.25 1014.75,-232.25 1014.75,-251.5"/>
<text text-anchor="middle" x="963.25" y="-238" font-family="Helvetica,sans-Serif" font-size="10.00">kalman_forward.hpp</text>
</a>
</g>
</g>
<!-- Node2&#45;&gt;Node3 -->
<g id="edge2_Node000002_Node000003" class="edge">
<title>Node2&#45;&gt;Node3</title>
<g id="a_edge2_Node000002_Node000003"><a xlink:title=" ">
<path fill="none" stroke="#63b8ff" d="M1029.68,-287.09C1017.84,-279.21 1000.41,-267.61 986.38,-258.27"/>
<polygon fill="#63b8ff" stroke="#63b8ff" points="988.41,-255.42 978.15,-252.79 984.53,-261.25 988.41,-255.42"/>
</a>
</g>
</g>
<!-- Node4 -->
<g id="Node000004" class="node">
<title>Node4</title>
<g id="a_Node000004"><a xlink:href="factory_8hpp.xhtml" target="_top" xlink:title=" ">
<polygon fill="white" stroke="#666666" points="740.5,-251.5 606,-251.5 606,-232.25 740.5,-232.25 740.5,-251.5"/>
<text text-anchor="middle" x="673.25" y="-238" font-family="Helvetica,sans-Serif" font-size="10.00">kalman_internal/factory.hpp</text>
</a>
</g>
</g>
<!-- Node2&#45;&gt;Node4 -->
<g id="edge3_Node000002_Node000004" class="edge">
<title>Node2&#45;&gt;Node4</title>
<g id="a_edge3_Node000002_Node000004"><a xlink:title=" ">
<path fill="none" stroke="#63b8ff" d="M989.84,-288.44C926.21,-279.28 819.5,-263.92 747.76,-253.6"/>
<polygon fill="#63b8ff" stroke="#63b8ff" points="748.46,-250.16 738.06,-252.2 747.46,-257.09 748.46,-250.16"/>
</a>
</g>
</g>
<!-- Node6 -->
<g id="Node000006" class="node">
<title>Node6</title>
<g id="a_Node000006"><a xlink:href="utility_8hpp.xhtml" target="_top" xlink:title="The collection of utilities supporting the library.">
<polygon fill="white" stroke="#666666" points="831.75,-129.75 734.75,-129.75 734.75,-110.5 831.75,-110.5 831.75,-129.75"/>
<text text-anchor="middle" x="783.25" y="-116.25" font-family="Helvetica,sans-Serif" font-size="10.00">fcarouge/utility.hpp</text>
</a>
</g>
</g>
<!-- Node2&#45;&gt;Node6 -->
<g id="edge53_Node000002_Node000006" class="edge">
<title>Node2&#45;&gt;Node6</title>
<g id="a_edge53_Node000002_Node000006"><a xlink:title=" ">
<path fill="none" stroke="#63b8ff" d="M1044.25,-287.3C1046.38,-263.8 1048.66,-199.21 1014.25,-165.75 1002.04,-153.88 907.74,-138.54 843.47,-129.29"/>
<polygon fill="#63b8ff" stroke="#63b8ff" points="844.13,-125.85 833.73,-127.9 843.14,-132.78 844.13,-125.85"/>
</a>
</g>
</g>
<!-- Node25 -->
<g id="Node000025" class="node">
<title>Node25</title>
<g id="a_Node000025"><a xlink:href="format_8hpp.xhtml" target="_top" xlink:title="Formatting support for the Kalman filter.">
<polygon fill="white" stroke="#666666" points="1265.75,-190.62 1132.75,-190.62 1132.75,-171.38 1265.75,-171.38 1265.75,-190.62"/>
<text text-anchor="middle" x="1199.25" y="-177.12" font-family="Helvetica,sans-Serif" font-size="10.00">kalman_internal/format.hpp</text>
</a>
</g>
</g>
<!-- Node2&#45;&gt;Node25 -->
<g id="edge46_Node000002_Node000025" class="edge">
<title>Node2&#45;&gt;Node25</title>
<g id="a_edge46_Node000002_Node000025"><a xlink:title=" ">
<path fill="none" stroke="#63b8ff" d="M1055.49,-287.17C1081.92,-267.84 1144.6,-221.98 1177.79,-197.7"/>
<polygon fill="#63b8ff" stroke="#63b8ff" points="1179.84,-200.54 1185.84,-191.81 1175.71,-194.89 1179.84,-200.54"/>
</a>
</g>
</g>
<!-- Node27 -->
<g id="Node000027" class="node">
<title>Node27</title>
<g id="a_Node000027"><a xlink:href="printer_8hpp.xhtml" target="_top" xlink:title="Filter decoration support for printing operations.">
<polygon fill="white" stroke="#666666" points="1322.38,-251.5 1190.12,-251.5 1190.12,-232.25 1322.38,-232.25 1322.38,-251.5"/>
<text text-anchor="middle" x="1256.25" y="-238" font-family="Helvetica,sans-Serif" font-size="10.00">kalman_internal/printer.hpp</text>
</a>
</g>
</g>
<!-- Node2&#45;&gt;Node27 -->
<g id="edge51_Node000002_Node000027" class="edge">
<title>Node2&#45;&gt;Node27</title>
<g id="a_edge51_Node000002_Node000027"><a xlink:title=" ">
<path fill="none" stroke="#63b8ff" d="M1079.38,-287.09C1115.03,-278.18 1169.72,-264.51 1208.84,-254.73"/>
<polygon fill="#63b8ff" stroke="#63b8ff" points="1209.62,-258.14 1218.47,-252.32 1207.92,-251.35 1209.62,-258.14"/>
</a>
</g>
</g>
<!-- Node29 -->
<g id="Node000029" class="node">
<title>Node29</title>
<g id="a_Node000029"><a xlink:title=" ">
<polygon fill="#e0e0e0" stroke="#999999" points="893.5,-251.5 759,-251.5 759,-232.25 893.5,-232.25 893.5,-251.5"/>
<text text-anchor="middle" x="826.25" y="-238" font-family="Helvetica,sans-Serif" font-size="10.00">kalman_internal/kalman.tpp</text>
</a>
</g>
</g>
<!-- Node2&#45;&gt;Node29 -->
<g id="edge54_Node000002_Node000029" class="edge">
<title>Node2&#45;&gt;Node29</title>
<g id="a_edge54_Node000002_Node000029"><a xlink:title=" ">
<path fill="none" stroke="#63b8ff" d="M1006.44,-287.09C970.04,-278.16 914.17,-264.45 874.29,-254.66"/>
<polygon fill="#63b8ff" stroke="#63b8ff" points="875.26,-251.3 864.71,-252.31 873.59,-258.1 875.26,-251.3"/>
</a>
</g>
</g>
<!-- Node5 -->
<g id="Node000005" class="node">
<title>Node5</title>
<g id="a_Node000005"><a xlink:href="type_8hpp.xhtml" target="_top" xlink:title=" ">
<polygon fill="white" stroke="#666666" points="1114.25,-190.62 1062.25,-190.62 1062.25,-171.38 1114.25,-171.38 1114.25,-190.62"/>
<text text-anchor="middle" x="1088.25" y="-177.12" font-family="Helvetica,sans-Serif" font-size="10.00">type.hpp</text>
</a>
</g>
</g>
<!-- Node4&#45;&gt;Node5 -->
<g id="edge4_Node000004_Node000005" class="edge">
<title>Node4&#45;&gt;Node5</title>
<g id="a_edge4_Node000004_Node000005"><a xlink:title=" ">
<path fill="none" stroke="#63b8ff" d="M740.71,-233.26C809.63,-225.19 919.65,-211.53 1014.25,-196.25 1026.16,-194.32 1039.1,-191.94 1050.78,-189.67"/>
<polygon fill="#63b8ff" stroke="#63b8ff" points="1051.33,-193.13 1060.46,-187.76 1049.97,-186.26 1051.33,-193.13"/>
</a>
</g>
</g>
<!-- Node8 -->
<g id="Node000008" class="node">
<title>Node8</title>
<g id="a_Node000008"><a xlink:title=" ">
<polygon fill="#e0e0e0" stroke="#999999" points="1188.12,-19.25 1132.38,-19.25 1132.38,0 1188.12,0 1188.12,-19.25"/>
<text text-anchor="middle" x="1160.25" y="-5.75" font-family="Helvetica,sans-Serif" font-size="10.00">concepts</text>
</a>
</g>
</g>
<!-- Node4&#45;&gt;Node8 -->
<g id="edge44_Node000004_Node000008" class="edge">
<title>Node4&#45;&gt;Node8</title>
<g id="a_edge44_Node000004_Node000008"><a xlink:title=" ">
<path fill="none" stroke="#63b8ff" d="M740.84,-233.14C744.02,-232.83 747.17,-232.53 750.25,-232.25 808.37,-227 1234.1,-238.61 1274.25,-196.25 1300.47,-168.59 1291.06,-145.18 1275.25,-110.5 1257.45,-71.46 1216.01,-41.78 1188.05,-25.29"/>
<polygon fill="#63b8ff" stroke="#63b8ff" points="1189.81,-22.26 1179.39,-20.36 1186.35,-28.35 1189.81,-22.26"/>
</a>
</g>
</g>
<!-- Node11 -->
<g id="Node000011" class="node">
<title>Node11</title>
<g id="a_Node000011"><a xlink:title=" ">
<polygon fill="#e0e0e0" stroke="#999999" points="1293.75,-19.25 1232.75,-19.25 1232.75,0 1293.75,0 1293.75,-19.25"/>
<text text-anchor="middle" x="1263.25" y="-5.75" font-family="Helvetica,sans-Serif" font-size="10.00">type_traits</text>
</a>
</g>
</g>
<!-- Node4&#45;&gt;Node11 -->
<g id="edge45_Node000004_Node000011" class="edge">
<title>Node4&#45;&gt;Node11</title>
<g id="a_edge45_Node000004_Node000011"><a xlink:title=" ">
<path fill="none" stroke="#63b8ff" d="M740.84,-233.13C744.02,-232.82 747.17,-232.52 750.25,-232.25 810.81,-226.86 1254.7,-240.63 1296.25,-196.25 1340.03,-149.49 1297.6,-65.76 1275.17,-28.9"/>
<polygon fill="#63b8ff" stroke="#63b8ff" points="1278.31,-27.31 1270.03,-20.71 1272.39,-31.04 1278.31,-27.31"/>
</a>
</g>
</g>
<!-- Node14 -->
<g id="Node000014" class="node">
<title>Node14</title>
<g id="a_Node000014"><a xlink:href="x__z__p__q__r_8hpp.xhtml" target="_top" xlink:title=" ">
<polygon fill="white" stroke="#666666" points="806,-190.62 728.5,-190.62 728.5,-171.38 806,-171.38 806,-190.62"/>
<text text-anchor="middle" x="767.25" y="-177.12" font-family="Helvetica,sans-Serif" font-size="10.00">x_z_p_q_r.hpp</text>
</a>
</g>
</g>
<!-- Node4&#45;&gt;Node14 -->
<g id="edge15_Node000004_Node000014" class="edge">
<title>Node4&#45;&gt;Node14</title>
<g id="a_edge15_Node000004_Node000014"><a xlink:title=" ">
<path fill="none" stroke="#63b8ff" d="M687.53,-231.93C702.3,-222.68 725.62,-208.07 743.24,-197.04"/>
<polygon fill="#63b8ff" stroke="#63b8ff" points="744.94,-200.1 751.56,-191.83 741.22,-194.17 744.94,-200.1"/>
</a>
</g>
</g>
<!-- Node15 -->
<g id="Node000015" class="node">
<title>Node15</title>
<g id="a_Node000015"><a xlink:href="x__z__p__q__r__h__f_8hpp.xhtml" target="_top" xlink:title=" ">
<polygon fill="white" stroke="#666666" points="920.38,-190.62 824.12,-190.62 824.12,-171.38 920.38,-171.38 920.38,-190.62"/>
<text text-anchor="middle" x="872.25" y="-177.12" font-family="Helvetica,sans-Serif" font-size="10.00">x_z_p_q_r_h_f.hpp</text>
</a>
</g>
</g>
<!-- Node4&#45;&gt;Node15 -->
<g id="edge17_Node000004_Node000015" class="edge">
<title>Node4&#45;&gt;Node15</title>
<g id="a_edge17_Node000004_Node000015"><a xlink:title=" ">
<path fill="none" stroke="#63b8ff" d="M703.91,-231.8C737.94,-221.74 793.06,-205.43 830.9,-194.24"/>
<polygon fill="#63b8ff" stroke="#63b8ff" points="831.51,-197.7 840.11,-191.51 829.52,-190.99 831.51,-197.7"/>
</a>
</g>
</g>
<!-- Node16 -->
<g id="Node000016" class="node">
<title>Node16</title>
<g id="a_Node000016"><a xlink:href="x__z__p__q__r__hh__us__ps_8hpp.xhtml" target="_top" xlink:title=" ">
<polygon fill="white" stroke="#666666" points="265.62,-190.62 140.88,-190.62 140.88,-171.38 265.62,-171.38 265.62,-190.62"/>
<text text-anchor="middle" x="203.25" y="-177.12" font-family="Helvetica,sans-Serif" font-size="10.00">x_z_p_q_r_hh_us_ps.hpp</text>
</a>
</g>
</g>
<!-- Node4&#45;&gt;Node16 -->
<g id="edge19_Node000004_Node000016" class="edge">
<title>Node4&#45;&gt;Node16</title>
<g id="a_edge19_Node000004_Node000016"><a xlink:title=" ">
<path fill="none" stroke="#63b8ff" d="M605.59,-235.11C526.03,-227.92 390.12,-214.32 274.25,-196.25 268.57,-195.36 262.66,-194.34 256.78,-193.26"/>
<polygon fill="#63b8ff" stroke="#63b8ff" points="257.53,-189.84 247.05,-191.4 256.22,-196.71 257.53,-189.84"/>
</a>
</g>
</g>
<!-- Node19 -->
<g id="Node000019" class="node">
<title>Node19</title>
<g id="a_Node000019"><a xlink:href="x__z__p__qq__rr__f_8hpp.xhtml" target="_top" xlink:title=" ">
<polygon fill="white" stroke="#666666" points="617.25,-190.62 523.25,-190.62 523.25,-171.38 617.25,-171.38 617.25,-190.62"/>
<text text-anchor="middle" x="570.25" y="-177.12" font-family="Helvetica,sans-Serif" font-size="10.00">x_z_p_qq_rr_f.hpp</text>
</a>
</g>
</g>
<!-- Node4&#45;&gt;Node19 -->
<g id="edge24_Node000004_Node000019" class="edge">
<title>Node4&#45;&gt;Node19</title>
<g id="a_edge24_Node000004_Node000019"><a xlink:title=" ">
<path fill="none" stroke="#63b8ff" d="M657.61,-231.93C641.27,-222.6 615.38,-207.8 596.02,-196.73"/>
<polygon fill="#63b8ff" stroke="#63b8ff" points="597.77,-193.7 587.35,-191.78 594.3,-199.78 597.77,-193.7"/>
</a>
</g>
</g>
<!-- Node20 -->
<g id="Node000020" class="node">
<title>Node20</title>
<g id="a_Node000020"><a xlink:href="x__z__p__r_8hpp.xhtml" target="_top" xlink:title=" ">
<polygon fill="white" stroke="#666666" points="1005.75,-190.62 938.75,-190.62 938.75,-171.38 1005.75,-171.38 1005.75,-190.62"/>
<text text-anchor="middle" x="972.25" y="-177.12" font-family="Helvetica,sans-Serif" font-size="10.00">x_z_p_r.hpp</text>
</a>
</g>
</g>
<!-- Node4&#45;&gt;Node20 -->
<g id="edge28_Node000004_Node000020" class="edge">
<title>Node4&#45;&gt;Node20</title>
<g id="a_edge28_Node000004_Node000020"><a xlink:title=" ">
<path fill="none" stroke="#63b8ff" d="M740.93,-231.86C792.87,-224.27 866.14,-212.12 929.25,-196.25 931.51,-195.68 933.83,-195.05 936.16,-194.38"/>
<polygon fill="#63b8ff" stroke="#63b8ff" points="936.99,-197.79 945.52,-191.51 934.93,-191.1 936.99,-197.79"/>
</a>
</g>
</g>
<!-- Node21 -->
<g id="Node000021" class="node">
<title>Node21</title>
<g id="a_Node000021"><a xlink:href="x__z__p__r__f_8hpp.xhtml" target="_top" xlink:title=" ">
<polygon fill="white" stroke="#666666" points="710.88,-190.62 635.62,-190.62 635.62,-171.38 710.88,-171.38 710.88,-190.62"/>
<text text-anchor="middle" x="673.25" y="-177.12" font-family="Helvetica,sans-Serif" font-size="10.00">x_z_p_r_f.hpp</text>
</a>
</g>
</g>
<!-- Node4&#45;&gt;Node21 -->
<g id="edge30_Node000004_Node000021" class="edge">
<title>Node4&#45;&gt;Node21</title>
<g id="a_edge30_Node000004_Node000021"><a xlink:title=" ">
<path fill="none" stroke="#63b8ff" d="M673.25,-231.93C673.25,-224.15 673.25,-212.58 673.25,-202.53"/>
<polygon fill="#63b8ff" stroke="#63b8ff" points="676.75,-202.54 673.25,-192.54 669.75,-202.54 676.75,-202.54"/>
</a>
</g>
</g>
<!-- Node22 -->
<g id="Node000022" class="node">
<title>Node22</title>
<g id="a_Node000022"><a xlink:href="x__z__u__p__q__r_8hpp.xhtml" target="_top" xlink:title=" ">
<polygon fill="white" stroke="#666666" points="371.25,-190.62 283.25,-190.62 283.25,-171.38 371.25,-171.38 371.25,-190.62"/>
<text text-anchor="middle" x="327.25" y="-177.12" font-family="Helvetica,sans-Serif" font-size="10.00">x_z_u_p_q_r.hpp</text>
</a>
</g>
</g>
<!-- Node4&#45;&gt;Node22 -->
<g id="edge32_Node000004_Node000022" class="edge">
<title>Node4&#45;&gt;Node22</title>
<g id="a_edge32_Node000004_Node000022"><a xlink:title=" ">
<path fill="none" stroke="#63b8ff" d="M605.66,-232.76C546.03,-225.08 456.92,-212.34 380.25,-196.25 376.86,-195.54 373.37,-194.74 369.87,-193.9"/>
<polygon fill="#63b8ff" stroke="#63b8ff" points="370.8,-190.53 360.25,-191.47 369.08,-197.31 370.8,-190.53"/>
</a>
</g>
</g>
<!-- Node23 -->
<g id="Node000023" class="node">
<title>Node23</title>
<g id="a_Node000023"><a xlink:href="x__z__u__p__q__r__f__g__ps_8hpp.xhtml" target="_top" xlink:title=" ">
<polygon fill="white" stroke="#666666" points="122.5,-190.62 0,-190.62 0,-171.38 122.5,-171.38 122.5,-190.62"/>
<text text-anchor="middle" x="61.25" y="-177.12" font-family="Helvetica,sans-Serif" font-size="10.00">x_z_u_p_q_r_f_g_ps.hpp</text>
</a>
</g>
</g>
<!-- Node4&#45;&gt;Node23 -->
<g id="edge36_Node000004_Node000023" class="edge">
<title>Node4&#45;&gt;Node23</title>
<g id="a_edge36_Node000004_Node000023"><a xlink:title=" ">
<path fill="none" stroke="#63b8ff" d="M605.92,-237.83C503.32,-232.63 301.86,-220.18 132.25,-196.25 126.18,-195.39 119.85,-194.35 113.57,-193.21"/>
<polygon fill="#63b8ff" stroke="#63b8ff" points="114.37,-189.8 103.9,-191.38 113.07,-196.68 114.37,-189.8"/>
</a>
</g>
</g>
<!-- Node24 -->
<g id="Node000024" class="node">
<title>Node24</title>
<g id="a_Node000024"><a xlink:href="x__z__u__p__q__r__h__f__g__us__ps_8hpp.xhtml" target="_top" xlink:title=" ">
<polygon fill="white" stroke="#666666" points="504.75,-196.25 389.75,-196.25 389.75,-165.75 504.75,-165.75 504.75,-196.25"/>
<text text-anchor="start" x="397.75" y="-182.75" font-family="Helvetica,sans-Serif" font-size="10.00">x_z_u_p_q_r_h_f_g_us</text>
<text text-anchor="middle" x="447.25" y="-171.5" font-family="Helvetica,sans-Serif" font-size="10.00">_ps.hpp</text>
</a>
</g>
</g>
<!-- Node4&#45;&gt;Node24 -->
<g id="edge40_Node000004_Node000024" class="edge">
<title>Node4&#45;&gt;Node24</title>
<g id="a_edge40_Node000004_Node000024"><a xlink:title=" ">
<path fill="none" stroke="#63b8ff" d="M638.43,-231.8C605.54,-223.24 555.32,-210.15 514.6,-199.54"/>
<polygon fill="#63b8ff" stroke="#63b8ff" points="515.68,-196.21 505.12,-197.08 513.92,-202.98 515.68,-196.21"/>
</a>
</g>
</g>
<!-- Node5&#45;&gt;Node6 -->
<g id="edge5_Node000005_Node000006" class="edge">
<title>Node5&#45;&gt;Node6</title>
<g id="a_edge5_Node000005_Node000006"><a xlink:title=" ">
<path fill="none" stroke="#63b8ff" d="M1065.2,-171.01C1059.7,-169.09 1053.81,-167.2 1048.25,-165.75 978.91,-147.71 897.39,-135.25 843.27,-128.18"/>
<polygon fill="#63b8ff" stroke="#63b8ff" points="844.01,-124.74 833.65,-126.94 843.12,-131.69 844.01,-124.74"/>
</a>
</g>
</g>
<!-- Node5&#45;&gt;Node11 -->
<g id="edge14_Node000005_Node000011" class="edge">
<title>Node5&#45;&gt;Node11</title>
<g id="a_edge14_Node000005_Node000011"><a xlink:title=" ">
<path fill="none" stroke="#63b8ff" d="M1099.03,-171.07C1120.23,-153.35 1168.57,-112.21 1206.25,-74.5 1221.3,-59.44 1237.35,-41.24 1248.57,-28.12"/>
<polygon fill="#63b8ff" stroke="#63b8ff" points="1251.03,-30.63 1254.83,-20.74 1245.69,-26.11 1251.03,-30.63"/>
</a>
</g>
</g>
<!-- Node13 -->
<g id="Node000013" class="node">
<title>Node13</title>
<g id="a_Node000013"><a xlink:title=" ">
<polygon fill="#e0e0e0" stroke="#999999" points="937,-129.75 865.5,-129.75 865.5,-110.5 937,-110.5 937,-129.75"/>
<text text-anchor="middle" x="901.25" y="-116.25" font-family="Helvetica,sans-Serif" font-size="10.00">initializer_list</text>
</a>
</g>
</g>
<!-- Node5&#45;&gt;Node13 -->
<g id="edge13_Node000005_Node000013" class="edge">
<title>Node5&#45;&gt;Node13</title>
<g id="a_edge13_Node000005_Node000013"><a xlink:title=" ">
<path fill="none" stroke="#63b8ff" d="M1063.35,-170.92C1058.36,-169.16 1053.15,-167.37 1048.25,-165.75 1013.1,-154.16 972.86,-142.02 943.38,-133.34"/>
<polygon fill="#63b8ff" stroke="#63b8ff" points="944.68,-130.07 934.09,-130.61 942.7,-136.79 944.68,-130.07"/>
</a>
</g>
</g>
<!-- Node7 -->
<g id="Node000007" class="node">
<title>Node7</title>
<g id="a_Node000007"><a xlink:href="kalman__internal_2utility_8hpp.xhtml" target="_top" xlink:title=" ">
<polygon fill="white" stroke="#666666" points="1197.12,-74.5 1069.38,-74.5 1069.38,-55.25 1197.12,-55.25 1197.12,-74.5"/>
<text text-anchor="middle" x="1133.25" y="-61" font-family="Helvetica,sans-Serif" font-size="10.00">kalman_internal/utility.hpp</text>
</a>
</g>
</g>
<!-- Node6&#45;&gt;Node7 -->
<g id="edge6_Node000006_Node000007" class="edge">
<title>Node6&#45;&gt;Node7</title>
<g id="a_edge6_Node000006_Node000007"><a xlink:title=" ">
<path fill="none" stroke="#63b8ff" d="M831.92,-111.72C891.7,-102.63 993.6,-87.12 1062.16,-76.69"/>
<polygon fill="#63b8ff" stroke="#63b8ff" points="1062.43,-80.19 1071.79,-75.23 1061.37,-73.27 1062.43,-80.19"/>
</a>
</g>
</g>
<!-- Node9 -->
<g id="Node000009" class="node">
<title>Node9</title>
<g id="a_Node000009"><a xlink:title=" ">
<polygon fill="#e0e0e0" stroke="#999999" points="1065.38,-19.25 1017.12,-19.25 1017.12,0 1065.38,0 1065.38,-19.25"/>
<text text-anchor="middle" x="1041.25" y="-5.75" font-family="Helvetica,sans-Serif" font-size="10.00">cstddef</text>
</a>
</g>
</g>
<!-- Node6&#45;&gt;Node9 -->
<g id="edge11_Node000006_Node000009" class="edge">
<title>Node6&#45;&gt;Node9</title>
<g id="a_edge11_Node000006_Node000009"><a xlink:title=" ">
<path fill="none" stroke="#63b8ff" d="M804.8,-110.06C850.14,-90.99 955.59,-46.65 1009.01,-24.18"/>
<polygon fill="#63b8ff" stroke="#63b8ff" points="1010.32,-27.43 1018.18,-20.33 1007.61,-20.98 1010.32,-27.43"/>
</a>
</g>
</g>
<!-- Node12 -->
<g id="Node000012" class="node">
<title>Node12</title>
<g id="a_Node000012"><a xlink:title=" ">
<polygon fill="#e0e0e0" stroke="#999999" points="802.5,-74.5 764,-74.5 764,-55.25 802.5,-55.25 802.5,-74.5"/>
<text text-anchor="middle" x="783.25" y="-61" font-family="Helvetica,sans-Serif" font-size="10.00">utility</text>
</a>
</g>
</g>
<!-- Node6&#45;&gt;Node12 -->
<g id="edge12_Node000006_Node000012" class="edge">
<title>Node6&#45;&gt;Node12</title>
<g id="a_edge12_Node000006_Node000012"><a xlink:title=" ">
<path fill="none" stroke="#63b8ff" d="M783.25,-110.33C783.25,-103.82 783.25,-94.67 783.25,-86.37"/>
<polygon fill="#63b8ff" stroke="#63b8ff" points="786.75,-86.37 783.25,-76.37 779.75,-86.37 786.75,-86.37"/>
</a>
</g>
</g>
<!-- Node7&#45;&gt;Node8 -->
<g id="edge7_Node000007_Node000008" class="edge">
<title>Node7&#45;&gt;Node8</title>
<g id="a_edge7_Node000007_Node000008"><a xlink:title=" ">
<path fill="none" stroke="#63b8ff" d="M1137.71,-55.08C1141.2,-48.19 1146.2,-38.34 1150.6,-29.66"/>
<polygon fill="#63b8ff" stroke="#63b8ff" points="1153.61,-31.46 1155.01,-20.96 1147.37,-28.3 1153.61,-31.46"/>
</a>
</g>
</g>
<!-- Node7&#45;&gt;Node9 -->
<g id="edge8_Node000007_Node000009" class="edge">
<title>Node7&#45;&gt;Node9</title>
<g id="a_edge8_Node000007_Node000009"><a xlink:title=" ">
<path fill="none" stroke="#63b8ff" d="M1117.64,-54.84C1103.63,-46.73 1082.82,-34.68 1066.45,-25.21"/>
<polygon fill="#63b8ff" stroke="#63b8ff" points="1068.65,-22.44 1058.24,-20.46 1065.14,-28.5 1068.65,-22.44"/>
</a>
</g>
</g>
<!-- Node10 -->
<g id="Node000010" class="node">
<title>Node10</title>
<g id="a_Node000010"><a xlink:title=" ">
<polygon fill="#e0e0e0" stroke="#999999" points="467.75,-19.25 430.75,-19.25 430.75,0 467.75,0 467.75,-19.25"/>
<text text-anchor="middle" x="449.25" y="-5.75" font-family="Helvetica,sans-Serif" font-size="10.00">tuple</text>
</a>
</g>
</g>
<!-- Node7&#45;&gt;Node10 -->
<g id="edge9_Node000007_Node000010" class="edge">
<title>Node7&#45;&gt;Node10</title>
<g id="a_edge9_Node000007_Node000010"><a xlink:title=" ">
<path fill="none" stroke="#63b8ff" d="M1068.9,-58.87C925.25,-47.68 582.96,-21.03 479.43,-12.97"/>
<polygon fill="#63b8ff" stroke="#63b8ff" points="479.76,-9.49 469.52,-12.2 479.22,-16.47 479.76,-9.49"/>
</a>
</g>
</g>
<!-- Node7&#45;&gt;Node11 -->
<g id="edge10_Node000007_Node000011" class="edge">
<title>Node7&#45;&gt;Node11</title>
<g id="a_edge10_Node000007_Node000011"><a xlink:title=" ">
<path fill="none" stroke="#63b8ff" d="M1155.3,-54.84C1175.94,-46.39 1207.03,-33.65 1230.55,-24.02"/>
<polygon fill="#63b8ff" stroke="#63b8ff" points="1231.76,-27.31 1239.69,-20.28 1229.11,-20.83 1231.76,-27.31"/>
</a>
</g>
</g>
<!-- Node14&#45;&gt;Node6 -->
<g id="edge16_Node000014_Node000006" class="edge">
<title>Node14&#45;&gt;Node6</title>
<g id="a_edge16_Node000014_Node000006"><a xlink:title=" ">
<path fill="none" stroke="#63b8ff" d="M769.68,-171.06C771.84,-163.1 775.08,-151.19 777.85,-140.99"/>
<polygon fill="#63b8ff" stroke="#63b8ff" points="781.16,-142.18 780.4,-131.61 774.4,-140.34 781.16,-142.18"/>
</a>
</g>
</g>
<!-- Node15&#45;&gt;Node6 -->
<g id="edge18_Node000015_Node000006" class="edge">
<title>Node15&#45;&gt;Node6</title>
<g id="a_edge18_Node000015_Node000006"><a xlink:title=" ">
<path fill="none" stroke="#63b8ff" d="M858.73,-171.06C844.88,-161.89 823.07,-147.47 806.45,-136.48"/>
<polygon fill="#63b8ff" stroke="#63b8ff" points="808.43,-133.58 798.16,-130.99 804.57,-139.42 808.43,-133.58"/>
</a>
</g>
</g>
<!-- Node16&#45;&gt;Node6 -->
<g id="edge20_Node000016_Node000006" class="edge">
<title>Node16&#45;&gt;Node6</title>
<g id="a_edge20_Node000016_Node000006"><a xlink:title=" ">
<path fill="none" stroke="#63b8ff" d="M244.41,-170.94C254.16,-169.01 264.54,-167.15 274.25,-165.75 435.45,-142.58 627.23,-129.69 722.81,-124.25"/>
<polygon fill="#63b8ff" stroke="#63b8ff" points="722.96,-127.75 732.75,-123.7 722.57,-120.76 722.96,-127.75"/>
</a>
</g>
</g>
<!-- Node16&#45;&gt;Node10 -->
<g id="edge23_Node000016_Node000010" class="edge">
<title>Node16&#45;&gt;Node10</title>
<g id="a_edge23_Node000016_Node000010"><a xlink:title=" ">
<path fill="none" stroke="#63b8ff" d="M210.89,-170.96C230.17,-148.61 283.24,-90.06 338.25,-55.25 363.93,-39.01 396.5,-26.75 419.71,-19.24"/>
<polygon fill="#63b8ff" stroke="#63b8ff" points="420.65,-22.61 429.15,-16.29 418.56,-15.93 420.65,-22.61"/>
</a>
</g>
</g>
<!-- Node17 -->
<g id="Node000017" class="node">
<title>Node17</title>
<g id="a_Node000017"><a xlink:href="function_8hpp.xhtml" target="_top" xlink:title=" ">
<polygon fill="white" stroke="#666666" points="421.5,-129.75 353,-129.75 353,-110.5 421.5,-110.5 421.5,-129.75"/>
<text text-anchor="middle" x="387.25" y="-116.25" font-family="Helvetica,sans-Serif" font-size="10.00">function.hpp</text>
</a>
</g>
</g>
<!-- Node16&#45;&gt;Node17 -->
<g id="edge21_Node000016_Node000017" class="edge">
<title>Node16&#45;&gt;Node17</title>
<g id="a_edge21_Node000016_Node000017"><a xlink:title=" ">
<path fill="none" stroke="#63b8ff" d="M231.6,-170.93C262.8,-160.95 313.16,-144.83 348.11,-133.65"/>
<polygon fill="#63b8ff" stroke="#63b8ff" points="348.97,-137.05 357.43,-130.67 346.84,-130.38 348.97,-137.05"/>
</a>
</g>
</g>
<!-- Node18 -->
<g id="Node000018" class="node">
<title>Node18</title>
<g id="a_Node000018"><a xlink:title=" ">
<polygon fill="#e0e0e0" stroke="#999999" points="412.5,-74.5 362,-74.5 362,-55.25 412.5,-55.25 412.5,-74.5"/>
<text text-anchor="middle" x="387.25" y="-61" font-family="Helvetica,sans-Serif" font-size="10.00">memory</text>
</a>
</g>
</g>
<!-- Node17&#45;&gt;Node18 -->
<g id="edge22_Node000017_Node000018" class="edge">
<title>Node17&#45;&gt;Node18</title>
<g id="a_edge22_Node000017_Node000018"><a xlink:title=" ">
<path fill="none" stroke="#63b8ff" d="M387.25,-110.33C387.25,-103.82 387.25,-94.67 387.25,-86.37"/>
<polygon fill="#63b8ff" stroke="#63b8ff" points="390.75,-86.37 387.25,-76.37 383.75,-86.37 390.75,-86.37"/>
</a>
</g>
</g>
<!-- Node19&#45;&gt;Node6 -->
<g id="edge25_Node000019_Node000006" class="edge">
<title>Node19&#45;&gt;Node6</title>
<g id="a_edge25_Node000019_Node000006"><a xlink:title=" ">
<path fill="none" stroke="#63b8ff" d="M603.06,-170.93C639.65,-160.82 698.99,-144.41 739.51,-133.22"/>
<polygon fill="#63b8ff" stroke="#63b8ff" points="740.23,-136.65 748.94,-130.61 738.37,-129.9 740.23,-136.65"/>
</a>
</g>
</g>
<!-- Node19&#45;&gt;Node10 -->
<g id="edge27_Node000019_Node000010" class="edge">
<title>Node19&#45;&gt;Node10</title>
<g id="a_edge27_Node000019_Node000010"><a xlink:title=" ">
<path fill="none" stroke="#63b8ff" d="M563.74,-170.89C544.53,-144 487.79,-64.58 462.12,-28.64"/>
<polygon fill="#63b8ff" stroke="#63b8ff" points="465.04,-26.7 456.38,-20.6 459.34,-30.77 465.04,-26.7"/>
</a>
</g>
</g>
<!-- Node19&#45;&gt;Node17 -->
<g id="edge26_Node000019_Node000017" class="edge">
<title>Node19&#45;&gt;Node17</title>
<g id="a_edge26_Node000019_Node000017"><a xlink:title=" ">
<path fill="none" stroke="#63b8ff" d="M542.06,-170.93C511.03,-160.95 460.94,-144.83 426.18,-133.65"/>
<polygon fill="#63b8ff" stroke="#63b8ff" points="427.51,-130.4 416.92,-130.67 425.36,-137.06 427.51,-130.4"/>
</a>
</g>
</g>
<!-- Node20&#45;&gt;Node6 -->
<g id="edge29_Node000020_Node000006" class="edge">
<title>Node20&#45;&gt;Node6</title>
<g id="a_edge29_Node000020_Node000006"><a xlink:title=" ">
<path fill="none" stroke="#63b8ff" d="M945.44,-171.01C940.09,-169.24 934.5,-167.42 929.25,-165.75 893.98,-154.52 853.74,-142.26 824.45,-133.44"/>
<polygon fill="#63b8ff" stroke="#63b8ff" points="825.83,-130.2 815.24,-130.67 823.81,-136.9 825.83,-130.2"/>
</a>
</g>
</g>
<!-- Node21&#45;&gt;Node6 -->
<g id="edge31_Node000021_Node000006" class="edge">
<title>Node21&#45;&gt;Node6</title>
<g id="a_edge31_Node000021_Node000006"><a xlink:title=" ">
<path fill="none" stroke="#63b8ff" d="M689.96,-171.06C707.56,-161.63 735.56,-146.65 756.3,-135.55"/>
<polygon fill="#63b8ff" stroke="#63b8ff" points="757.89,-138.67 765.05,-130.87 754.58,-132.5 757.89,-138.67"/>
</a>
</g>
</g>
<!-- Node22&#45;&gt;Node6 -->
<g id="edge33_Node000022_Node000006" class="edge">
<title>Node22&#45;&gt;Node6</title>
<g id="a_edge33_Node000022_Node000006"><a xlink:title=" ">
<path fill="none" stroke="#63b8ff" d="M357.9,-170.91C365.17,-168.99 372.95,-167.13 380.25,-165.75 500.9,-142.99 644.23,-130.53 723.32,-124.9"/>
<polygon fill="#63b8ff" stroke="#63b8ff" points="723.27,-128.41 733,-124.22 722.78,-121.43 723.27,-128.41"/>
</a>
</g>
</g>
<!-- Node22&#45;&gt;Node10 -->
<g id="edge35_Node000022_Node000010" class="edge">
<title>Node22&#45;&gt;Node10</title>
<g id="a_edge35_Node000022_Node000010"><a xlink:title=" ">
<path fill="none" stroke="#63b8ff" d="M326.56,-171.03C325.35,-148.83 325.2,-90.61 353.25,-55.25 369.71,-34.5 398.06,-22.97 419.69,-16.86"/>
<polygon fill="#63b8ff" stroke="#63b8ff" points="420.32,-20.31 429.13,-14.44 418.58,-13.53 420.32,-20.31"/>
</a>
</g>
</g>
<!-- Node22&#45;&gt;Node17 -->
<g id="edge34_Node000022_Node000017" class="edge">
<title>Node22&#45;&gt;Node17</title>
<g id="a_edge34_Node000022_Node000017"><a xlink:title=" ">
<path fill="none" stroke="#63b8ff" d="M336.36,-171.06C345.26,-162.33 359.03,-148.82 370,-138.05"/>
<polygon fill="#63b8ff" stroke="#63b8ff" points="372.28,-140.71 376.97,-131.21 367.38,-135.72 372.28,-140.71"/>
</a>
</g>
</g>
<!-- Node23&#45;&gt;Node6 -->
<g id="edge37_Node000023_Node000006" class="edge">
<title>Node23&#45;&gt;Node6</title>
<g id="a_edge37_Node000023_Node000006"><a xlink:title=" ">
<path fill="none" stroke="#63b8ff" d="M102.02,-170.88C111.88,-168.93 122.41,-167.07 132.25,-165.75 348.54,-136.76 607.94,-126.13 723.09,-122.64"/>
<polygon fill="#63b8ff" stroke="#63b8ff" points="723.04,-126.15 732.93,-122.35 722.83,-119.15 723.04,-126.15"/>
</a>
</g>
</g>
<!-- Node23&#45;&gt;Node10 -->
<g id="edge39_Node000023_Node000010" class="edge">
<title>Node23&#45;&gt;Node10</title>
<g id="a_edge39_Node000023_Node000010"><a xlink:title=" ">
<path fill="none" stroke="#63b8ff" d="M77.01,-170.91C115.54,-148.94 217.94,-92.07 308.25,-55.25 345.86,-39.92 390.84,-26.49 419.71,-18.47"/>
<polygon fill="#63b8ff" stroke="#63b8ff" points="420.48,-21.89 429.2,-15.88 418.63,-15.14 420.48,-21.89"/>
</a>
</g>
</g>
<!-- Node23&#45;&gt;Node17 -->
<g id="edge38_Node000023_Node000017" class="edge">
<title>Node23&#45;&gt;Node17</title>
<g id="a_edge38_Node000023_Node000017"><a xlink:title=" ">
<path fill="none" stroke="#63b8ff" d="M105.53,-170.94C114.37,-169.18 123.6,-167.37 132.25,-165.75 205.19,-152.05 290.14,-137.46 341.25,-128.82"/>
<polygon fill="#63b8ff" stroke="#63b8ff" points="341.78,-132.28 351.06,-127.17 340.62,-125.38 341.78,-132.28"/>
</a>
</g>
</g>
<!-- Node24&#45;&gt;Node6 -->
<g id="edge41_Node000024_Node000006" class="edge">
<title>Node24&#45;&gt;Node6</title>
<g id="a_edge41_Node000024_Node000006"><a xlink:title=" ">
<path fill="none" stroke="#63b8ff" d="M504.96,-167.55C508.1,-166.93 511.21,-166.32 514.25,-165.75 585.9,-152.19 668.72,-138.79 723.33,-130.27"/>
<polygon fill="#63b8ff" stroke="#63b8ff" points="723.7,-133.76 733.04,-128.76 722.62,-126.84 723.7,-133.76"/>
</a>
</g>
</g>
<!-- Node24&#45;&gt;Node10 -->
<g id="edge43_Node000024_Node000010" class="edge">
<title>Node24&#45;&gt;Node10</title>
<g id="a_edge43_Node000024_Node000010"><a xlink:title=" ">
<path fill="none" stroke="#63b8ff" d="M447.42,-165.27C447.78,-135.01 448.6,-65.8 449.01,-31.16"/>
<polygon fill="#63b8ff" stroke="#63b8ff" points="452.51,-31.29 449.12,-21.25 445.51,-31.21 452.51,-31.29"/>
</a>
</g>
</g>
<!-- Node24&#45;&gt;Node17 -->
<g id="edge42_Node000024_Node000017" class="edge">
<title>Node24&#45;&gt;Node17</title>
<g id="a_edge42_Node000024_Node000017"><a xlink:title=" ">
<path fill="none" stroke="#63b8ff" d="M432.42,-165.45C423.99,-157.17 413.38,-146.77 404.57,-138.12"/>
<polygon fill="#63b8ff" stroke="#63b8ff" points="407.17,-135.77 397.58,-131.26 402.27,-140.76 407.17,-135.77"/>
</a>
</g>
</g>
<!-- Node25&#45;&gt;Node6 -->
<g id="edge47_Node000025_Node000006" class="edge">
<title>Node25&#45;&gt;Node6</title>
<g id="a_edge47_Node000025_Node000006"><a xlink:title=" ">
<path fill="none" stroke="#63b8ff" d="M1153.1,-170.93C1143.27,-169.11 1132.93,-167.29 1123.25,-165.75 1070.75,-157.39 926.02,-138.97 843.3,-128.6"/>
<polygon fill="#63b8ff" stroke="#63b8ff" points="843.91,-125.15 833.56,-127.38 843.04,-132.1 843.91,-125.15"/>
</a>
</g>
</g>
<!-- Node25&#45;&gt;Node9 -->
<g id="edge48_Node000025_Node000009" class="edge">
<title>Node25&#45;&gt;Node9</title>
<g id="a_edge48_Node000025_Node000009"><a xlink:title=" ">
<path fill="none" stroke="#63b8ff" d="M1180.95,-171.04C1151.16,-155.53 1092.32,-120.84 1060.25,-74.5 1051.27,-61.52 1046.46,-44.24 1043.94,-30.92"/>
<polygon fill="#63b8ff" stroke="#63b8ff" points="1047.41,-30.47 1042.38,-21.14 1040.49,-31.56 1047.41,-30.47"/>
</a>
</g>
</g>
<!-- Node25&#45;&gt;Node10 -->
<g id="edge50_Node000025_Node000010" class="edge">
<title>Node25&#45;&gt;Node10</title>
<g id="a_edge50_Node000025_Node000010"><a xlink:title=" ">
<path fill="none" stroke="#63b8ff" d="M1176.49,-171C1117.29,-147.98 953.25,-86.54 811.25,-55.25 689.79,-28.49 541.62,-16.52 479.22,-12.4"/>
<polygon fill="#63b8ff" stroke="#63b8ff" points="479.63,-8.92 469.43,-11.78 479.19,-15.91 479.63,-8.92"/>
</a>
</g>
</g>
<!-- Node26 -->
<g id="Node000026" class="node">
<title>Node26</title>
<g id="a_Node000026"><a xlink:title=" ">
<polygon fill="#e0e0e0" stroke="#999999" points="1266.12,-129.75 1222.38,-129.75 1222.38,-110.5 1266.12,-110.5 1266.12,-129.75"/>
<text text-anchor="middle" x="1244.25" y="-116.25" font-family="Helvetica,sans-Serif" font-size="10.00">format</text>
</a>
</g>
</g>
<!-- Node25&#45;&gt;Node26 -->
<g id="edge49_Node000025_Node000026" class="edge">
<title>Node25&#45;&gt;Node26</title>
<g id="a_edge49_Node000025_Node000026"><a xlink:title=" ">
<path fill="none" stroke="#63b8ff" d="M1206.08,-171.06C1212.56,-162.59 1222.47,-149.62 1230.57,-139.02"/>
<polygon fill="#63b8ff" stroke="#63b8ff" points="1233.14,-141.42 1236.43,-131.35 1227.58,-137.17 1233.14,-141.42"/>
</a>
</g>
</g>
<!-- Node27&#45;&gt;Node28 -->
<g id="edge52_Node000027_Node000028" class="edge">
<title>Node27&#45;&gt;Node28</title>
<g id="a_edge52_Node000027_Node000028"><a xlink:title=" ">
<path fill="none" stroke="#63b8ff" d="M1274.89,-231.8C1294.81,-222.11 1326.59,-206.65 1349.46,-195.52"/>
<polygon fill="#63b8ff" stroke="#63b8ff" points="1350.75,-198.79 1358.21,-191.26 1347.69,-192.49 1350.75,-198.79"/>
</a>
</g>
</g>
</g>
</svg>
