<?xml version="1.0" encoding="UTF-8" standalone="no"?>
<!DOCTYPE svg PUBLIC "-//W3C//DTD SVG 1.1//EN"
 "http://www.w3.org/Graphics/SVG/1.1/DTD/svg11.dtd">
<!-- Generated by graphviz version 3.0.0 (20221109.1736)
 -->
<!-- Title: /github/workspace/include/fcarouge/kalman.hpp Pages: 1 -->
<svg width="702pt" height="263pt"
 viewBox="0.00 0.00 702.00 263.00" xmlns="http://www.w3.org/2000/svg" xmlns:xlink="http://www.w3.org/1999/xlink">
<g id="graph0" class="graph" transform="scale(1 1) rotate(0) translate(4 259)">
<title>/github/workspace/include/fcarouge/kalman.hpp</title>
<polygon fill="white" stroke="transparent" points="-4,4 -4,-259 698,-259 698,4 -4,4"/>
<!-- Node1 -->
<g id="node1" class="node">
<title>Node1</title>
<g id="a_node1"><a xlink:title="The Kalman filter class and library top&#45;level header.">
<polygon fill="#bfbfbf" stroke="black" points="272,-224.5 272,-254.5 402,-254.5 402,-224.5 272,-224.5"/>
<text text-anchor="start" x="280" y="-242.5" font-family="Helvetica,sans-Serif" font-size="10.00">/github/workspace/include</text>
<text text-anchor="middle" x="337" y="-231.5" font-family="Helvetica,sans-Serif" font-size="10.00">/fcarouge/kalman.hpp</text>
</a>
</g>
</g>
<!-- Node2 -->
<g id="node2" class="node">
<title>Node2</title>
<g id="a_node2"><a xlink:href="algorithm_8hpp.xhtml" target="_top" xlink:title="The collection of Kalman algorithms.">
<polygon fill="white" stroke="black" points="0,-168.5 0,-187.5 74,-187.5 74,-168.5 0,-168.5"/>
<text text-anchor="middle" x="37" y="-175.5" font-family="Helvetica,sans-Serif" font-size="10.00">algorithm.hpp</text>
</a>
</g>
</g>
<!-- Node1&#45;&gt;Node2 -->
<g id="edge1" class="edge">
<title>Node1&#45;&gt;Node2</title>
<path fill="none" stroke="midnightblue" d="M271.9,-225.59C215.32,-214.37 134.69,-198.37 84.13,-188.35"/>
<polygon fill="midnightblue" stroke="midnightblue" points="84.62,-184.88 74.13,-186.36 83.26,-191.74 84.62,-184.88"/>
</g>
<!-- Node3 -->
<g id="node3" class="node">
<title>Node3</title>
<g id="a_node3"><a xlink:href="format_8hpp.xhtml" target="_top" xlink:title=" ">
<polygon fill="white" stroke="black" points="384.5,-168.5 384.5,-187.5 481.5,-187.5 481.5,-168.5 384.5,-168.5"/>
<text text-anchor="middle" x="433" y="-175.5" font-family="Helvetica,sans-Serif" font-size="10.00">internal/format.hpp</text>
</a>
</g>
</g>
<!-- Node1&#45;&gt;Node3 -->
<g id="edge2" class="edge">
<title>Node1&#45;&gt;Node3</title>
<path fill="none" stroke="midnightblue" d="M359.75,-224.4C374.99,-214.95 394.99,-202.56 410.24,-193.11"/>
<polygon fill="midnightblue" stroke="midnightblue" points="412.38,-195.9 419.03,-187.66 408.69,-189.95 412.38,-195.9"/>
</g>
<!-- Node4 -->
<g id="node4" class="node">
<title>Node4</title>
<g id="a_node4"><a xlink:href="utility_8hpp.xhtml" target="_top" xlink:title="The collection of utilities supporting the library.">
<polygon fill="white" stroke="black" points="264,-112.5 264,-131.5 362,-131.5 362,-112.5 264,-112.5"/>
<text text-anchor="middle" x="313" y="-119.5" font-family="Helvetica,sans-Serif" font-size="10.00">fcarouge/utility.hpp</text>
</a>
</g>
</g>
<!-- Node1&#45;&gt;Node4 -->
<g id="edge13" class="edge">
<title>Node1&#45;&gt;Node4</title>
<path fill="none" stroke="midnightblue" d="M334.06,-224.34C329.73,-203.53 321.66,-164.66 316.86,-141.58"/>
<polygon fill="midnightblue" stroke="midnightblue" points="320.26,-140.75 314.8,-131.67 313.41,-142.17 320.26,-140.75"/>
</g>
<!-- Node6 -->
<g id="node6" class="node">
<title>Node6</title>
<g id="a_node6"><a xlink:title=" ">
<polygon fill="white" stroke="#bfbfbf" points="179,-0.5 179,-19.5 235,-19.5 235,-0.5 179,-0.5"/>
<text text-anchor="middle" x="207" y="-7.5" font-family="Helvetica,sans-Serif" font-size="10.00">concepts</text>
</a>
</g>
</g>
<!-- Node1&#45;&gt;Node6 -->
<g id="edge14" class="edge">
<title>Node1&#45;&gt;Node6</title>
<path fill="none" stroke="midnightblue" d="M271.99,-229.54C237.61,-222.44 196.02,-209.91 164,-188 138.1,-170.28 131.09,-161.71 121,-132 106.14,-88.24 154.28,-46.42 184.46,-25.29"/>
<polygon fill="midnightblue" stroke="midnightblue" points="186.48,-28.16 192.8,-19.66 182.56,-22.36 186.48,-28.16"/>
</g>
<!-- Node7 -->
<g id="node7" class="node">
<title>Node7</title>
<g id="a_node7"><a xlink:title=" ">
<polygon fill="white" stroke="#bfbfbf" points="320,-0.5 320,-19.5 382,-19.5 382,-0.5 320,-0.5"/>
<text text-anchor="middle" x="351" y="-7.5" font-family="Helvetica,sans-Serif" font-size="10.00">type_traits</text>
</a>
</g>
</g>
<!-- Node1&#45;&gt;Node7 -->
<g id="edge17" class="edge">
<title>Node1&#45;&gt;Node7</title>
<path fill="none" stroke="midnightblue" d="M343.06,-224.37C351.32,-204.29 365.68,-166.14 371,-132 373.63,-115.12 370.9,-69.78 368,-56 366.07,-46.81 362.55,-37 359.21,-28.9"/>
<polygon fill="midnightblue" stroke="midnightblue" points="362.42,-27.49 355.22,-19.72 356,-30.29 362.42,-27.49"/>
</g>
<!-- Node8 -->
<g id="node8" class="node">
<title>Node8</title>
<g id="a_node8"><a xlink:title=" ">
<polygon fill="white" stroke="#bfbfbf" points="483.5,-112.5 483.5,-131.5 532.5,-131.5 532.5,-112.5 483.5,-112.5"/>
<text text-anchor="middle" x="508" y="-119.5" font-family="Helvetica,sans-Serif" font-size="10.00">cstddef</text>
</a>
</g>
</g>
<!-- Node1&#45;&gt;Node8 -->
<g id="edge15" class="edge">
<title>Node1&#45;&gt;Node8</title>
<path fill="none" stroke="midnightblue" d="M402.01,-231.63C432.87,-225.12 467.96,-212.49 491,-188 502.6,-175.67 506.51,-156.41 507.72,-142.06"/>
<polygon fill="midnightblue" stroke="midnightblue" points="511.23,-141.98 508.21,-131.82 504.24,-141.65 511.23,-141.98"/>
</g>
<!-- Node10 -->
<g id="node10" class="node">
<title>Node10</title>
<g id="a_node10"><a xlink:href="internal_2kalman_8hpp.xhtml" target="_top" xlink:title=" ">
<polygon fill="white" stroke="black" points="188.5,-168.5 188.5,-187.5 289.5,-187.5 289.5,-168.5 188.5,-168.5"/>
<text text-anchor="middle" x="239" y="-175.5" font-family="Helvetica,sans-Serif" font-size="10.00">internal/kalman.hpp</text>
</a>
</g>
</g>
<!-- Node1&#45;&gt;Node10 -->
<g id="edge9" class="edge">
<title>Node1&#45;&gt;Node10</title>
<path fill="none" stroke="midnightblue" d="M313.78,-224.4C298.21,-214.95 277.8,-202.56 262.24,-193.11"/>
<polygon fill="midnightblue" stroke="midnightblue" points="263.62,-189.86 253.26,-187.66 259.99,-195.84 263.62,-189.86"/>
</g>
<!-- Node11 -->
<g id="node11" class="node">
<title>Node11</title>
<g id="a_node11"><a xlink:title=" ">
<polygon fill="white" stroke="#bfbfbf" points="130.5,-112.5 130.5,-131.5 189.5,-131.5 189.5,-112.5 130.5,-112.5"/>
<text text-anchor="middle" x="160" y="-119.5" font-family="Helvetica,sans-Serif" font-size="10.00">functional</text>
</a>
</g>
</g>
<!-- Node1&#45;&gt;Node11 -->
<g id="edge16" class="edge">
<title>Node1&#45;&gt;Node11</title>
<path fill="none" stroke="midnightblue" d="M271.98,-231.67C240.45,-225.18 204.24,-212.55 180,-188 167.96,-175.8 163.14,-156.53 161.23,-142.14"/>
<polygon fill="midnightblue" stroke="midnightblue" points="164.68,-141.48 160.23,-131.86 157.71,-142.15 164.68,-141.48"/>
</g>
<!-- Node13 -->
<g id="node13" class="node">
<title>Node13</title>
<g id="a_node13"><a xlink:title=" ">
<polygon fill="white" stroke="#bfbfbf" points="538.5,-168.5 538.5,-187.5 577.5,-187.5 577.5,-168.5 538.5,-168.5"/>
<text text-anchor="middle" x="558" y="-175.5" font-family="Helvetica,sans-Serif" font-size="10.00">utility</text>
</a>
</g>
</g>
<!-- Node1&#45;&gt;Node13 -->
<g id="edge18" class="edge">
<title>Node1&#45;&gt;Node13</title>
<path fill="none" stroke="midnightblue" d="M389.09,-224.47C432.65,-212.75 493.19,-196.45 528.72,-186.88"/>
<polygon fill="midnightblue" stroke="midnightblue" points="529.72,-190.24 538.47,-184.26 527.9,-183.48 529.72,-190.24"/>
</g>
<!-- Node14 -->
<g id="node14" class="node">
<title>Node14</title>
<g id="a_node14"><a xlink:title=" ">
<polygon fill="white" stroke="#bfbfbf" points="596,-168.5 596,-187.5 694,-187.5 694,-168.5 596,-168.5"/>
<text text-anchor="middle" x="645" y="-175.5" font-family="Helvetica,sans-Serif" font-size="10.00">internal/kalman.tpp</text>
</a>
</g>
</g>
<!-- Node1&#45;&gt;Node14 -->
<g id="edge19" class="edge">
<title>Node1&#45;&gt;Node14</title>
<path fill="none" stroke="midnightblue" d="M402.32,-225.88C458.27,-215.07 537.92,-199.69 590.51,-189.53"/>
<polygon fill="midnightblue" stroke="midnightblue" points="591.49,-192.9 600.65,-187.57 590.16,-186.03 591.49,-192.9"/>
</g>
<!-- Node3&#45;&gt;Node4 -->
<g id="edge3" class="edge">
<title>Node3&#45;&gt;Node4</title>
<path fill="none" stroke="midnightblue" d="M413.99,-168.44C394.41,-159.64 363.69,-145.81 341.27,-135.72"/>
<polygon fill="midnightblue" stroke="midnightblue" points="342.48,-132.43 331.93,-131.52 339.61,-138.81 342.48,-132.43"/>
</g>
<!-- Node3&#45;&gt;Node8 -->
<g id="edge7" class="edge">
<title>Node3&#45;&gt;Node8</title>
<path fill="none" stroke="midnightblue" d="M445.05,-168.32C456.46,-160.11 473.83,-147.6 487.43,-137.81"/>
<polygon fill="midnightblue" stroke="midnightblue" points="489.66,-140.52 495.73,-131.83 485.57,-134.84 489.66,-140.52"/>
</g>
<!-- Node9 -->
<g id="node9" class="node">
<title>Node9</title>
<g id="a_node9"><a xlink:title=" ">
<polygon fill="white" stroke="#bfbfbf" points="418,-112.5 418,-131.5 462,-131.5 462,-112.5 418,-112.5"/>
<text text-anchor="middle" x="440" y="-119.5" font-family="Helvetica,sans-Serif" font-size="10.00">format</text>
</a>
</g>
</g>
<!-- Node3&#45;&gt;Node9 -->
<g id="edge8" class="edge">
<title>Node3&#45;&gt;Node9</title>
<path fill="none" stroke="midnightblue" d="M434.16,-168.08C435.08,-160.93 436.42,-150.64 437.58,-141.69"/>
<polygon fill="midnightblue" stroke="midnightblue" points="441.05,-142.12 438.87,-131.75 434.11,-141.22 441.05,-142.12"/>
</g>
<!-- Node5 -->
<g id="node5" class="node">
<title>Node5</title>
<g id="a_node5"><a xlink:href="internal_2utility_8hpp.xhtml" target="_top" xlink:title=" ">
<polygon fill="white" stroke="black" points="267,-56.5 267,-75.5 359,-75.5 359,-56.5 267,-56.5"/>
<text text-anchor="middle" x="313" y="-63.5" font-family="Helvetica,sans-Serif" font-size="10.00">internal/utility.hpp</text>
</a>
</g>
</g>
<!-- Node4&#45;&gt;Node5 -->
<g id="edge4" class="edge">
<title>Node4&#45;&gt;Node5</title>
<path fill="none" stroke="midnightblue" d="M313,-112.08C313,-105.01 313,-94.86 313,-85.99"/>
<polygon fill="midnightblue" stroke="midnightblue" points="316.5,-85.75 313,-75.75 309.5,-85.75 316.5,-85.75"/>
</g>
<!-- Node5&#45;&gt;Node6 -->
<g id="edge5" class="edge">
<title>Node5&#45;&gt;Node6</title>
<path fill="none" stroke="midnightblue" d="M295.97,-56.32C278.97,-47.66 252.62,-34.24 233.01,-24.25"/>
<polygon fill="midnightblue" stroke="midnightblue" points="234.49,-21.08 223.99,-19.65 231.31,-27.31 234.49,-21.08"/>
</g>
<!-- Node5&#45;&gt;Node7 -->
<g id="edge6" class="edge">
<title>Node5&#45;&gt;Node7</title>
<path fill="none" stroke="midnightblue" d="M319.27,-56.08C324.64,-48.46 332.52,-37.26 339.08,-27.94"/>
<polygon fill="midnightblue" stroke="midnightblue" points="341.95,-29.94 344.84,-19.75 336.22,-25.91 341.95,-29.94"/>
</g>
<!-- Node10&#45;&gt;Node4 -->
<g id="edge10" class="edge">
<title>Node10&#45;&gt;Node4</title>
<path fill="none" stroke="midnightblue" d="M250.89,-168.32C262.15,-160.11 279.29,-147.6 292.71,-137.81"/>
<polygon fill="midnightblue" stroke="midnightblue" points="294.88,-140.56 300.89,-131.83 290.75,-134.9 294.88,-140.56"/>
</g>
<!-- Node10&#45;&gt;Node11 -->
<g id="edge11" class="edge">
<title>Node10&#45;&gt;Node11</title>
<path fill="none" stroke="midnightblue" d="M226.31,-168.32C214.1,-159.98 195.42,-147.21 181,-137.35"/>
<polygon fill="midnightblue" stroke="midnightblue" points="182.89,-134.41 172.66,-131.65 178.94,-140.19 182.89,-134.41"/>
</g>
<!-- Node12 -->
<g id="node12" class="node">
<title>Node12</title>
<g id="a_node12"><a xlink:title=" ">
<polygon fill="white" stroke="#bfbfbf" points="208,-112.5 208,-131.5 246,-131.5 246,-112.5 208,-112.5"/>
<text text-anchor="middle" x="227" y="-119.5" font-family="Helvetica,sans-Serif" font-size="10.00">tuple</text>
</a>
</g>
</g>
<!-- Node10&#45;&gt;Node12 -->
<g id="edge12" class="edge">
<title>Node10&#45;&gt;Node12</title>
<path fill="none" stroke="midnightblue" d="M237.02,-168.08C235.43,-160.93 233.14,-150.64 231.15,-141.69"/>
<polygon fill="midnightblue" stroke="midnightblue" points="234.53,-140.75 228.94,-131.75 227.7,-142.27 234.53,-140.75"/>
</g>
</g>
</svg>
