<?xml version="1.0" encoding="UTF-8" standalone="no"?>
<!DOCTYPE svg PUBLIC "-//W3C//DTD SVG 1.1//EN"
 "http://www.w3.org/Graphics/SVG/1.1/DTD/svg11.dtd">
<!-- Generated by graphviz version 2.49.3 (20211027.1534)
 -->
<!-- Title: include/fcarouge/kalman_eigen.hpp Pages: 1 -->
<!--zoomable 218 -->
<svg id="main" version="1.1" xmlns="http://www.w3.org/2000/svg" xmlns:xlink="http://www.w3.org/1999/xlink" xml:space="preserve" onload="init(evt)">
<style type="text/css"><![CDATA[
.edge:hover path { stroke: red; }
.edge:hover polygon { stroke: red; fill: red; }
]]></style>
<script type="text/javascript"><![CDATA[
var edges = document.getElementsByTagName('g');
if (edges && edges.length) {
  for (var i=0;i<edges.length;i++) {
    if (edges[i].id.substr(0,4)=='edge') {
      edges[i].setAttribute('class','edge');
    }
  }
}
]]></script>
        <defs>
                <circle id="rim" cx="0" cy="0" r="7"/>
                <circle id="rim2" cx="0" cy="0" r="3.5"/>
                <g id="zoomPlus">
                        <use xlink:href="#rim" fill="#404040">
                                <set attributeName="fill" to="#808080" begin="zoomplus.mouseover" end="zoomplus.mouseout"/>
                        </use>
                        <path d="M-4,0h8M0,-4v8" fill="none" stroke="white" stroke-width="1.5" pointer-events="none"/>
                </g>
                <g id="zoomMin">
                        <use xlink:href="#rim" fill="#404040">
                                <set attributeName="fill" to="#808080" begin="zoomminus.mouseover" end="zoomminus.mouseout"/>
                        </use>
                        <path d="M-4,0h8" fill="none" stroke="white" stroke-width="1.5" pointer-events="none"/>
                </g>
                <g id="dirArrow">
                        <path fill="none" stroke="white" stroke-width="1.5" d="M0,-3.0v7 M-2.5,-0.5L0,-3.0L2.5,-0.5"/>
                </g>
               <g id="resetDef">
                       <use xlink:href="#rim2" fill="#404040">
                               <set attributeName="fill" to="#808080" begin="reset.mouseover" end="reset.mouseout"/>
                       </use>
               </g>
        </defs>

<script type="text/javascript">
var viewWidth = 672;
var viewHeight = 218;
var sectionId = 'dynsection-0';
</script>
<script xlink:href="svgpan.js"/>
<svg id="graph" class="graph">
<g id="viewport">
<title>include/fcarouge/kalman_eigen.hpp</title>
<polygon fill="white" stroke="transparent" points="-4,4 -4,-214 667.71,-214 667.71,4 -4,4"/>
<!-- Node1 -->
<g id="node1" class="node">
<title>Node1</title>
<g id="a_node1"><a xlink:title="Kalman operation for Eigen 3 types.">
<polygon fill="#bfbfbf" stroke="black" points="385.71,-179.5 385.71,-209.5 507.71,-209.5 507.71,-179.5 385.71,-179.5"/>
<text text-anchor="start" x="393.71" y="-197.5" font-family="Helvetica,sans-Serif" font-size="10.00">include/fcarouge/kalman</text>
<text text-anchor="middle" x="446.71" y="-186.5" font-family="Helvetica,sans-Serif" font-size="10.00">_eigen.hpp</text>
</a>
</g>
</g>
<!-- Node2 -->
<g id="node2" class="node">
<title>Node2</title>
<g id="a_node2"><a xlink:href="kalman_8hpp.xhtml" target="_top" xlink:title="The main Kalman filter class.">
<polygon fill="white" stroke="black" points="287.71,-118 287.71,-137 353.71,-137 353.71,-118 287.71,-118"/>
<text text-anchor="middle" x="320.71" y="-125" font-family="Helvetica,sans-Serif" font-size="10.00">kalman.hpp</text>
</a>
</g>
</g>
<!-- Node1&#45;&gt;Node2 -->
<g id="edge1" class="edge">
<title>Node1&#45;&gt;Node2</title>
<path fill="none" stroke="midnightblue" d="M419.37,-179.4C397.65,-168.19 367.51,-152.64 346.27,-141.69"/>
<polygon fill="midnightblue" stroke="midnightblue" points="347.69,-138.48 337.2,-137.01 344.48,-144.7 347.69,-138.48"/>
</g>
<!-- Node4 -->
<g id="node4" class="node">
<title>Node4</title>
<g id="a_node4"><a xlink:title=" ">
<polygon fill="white" stroke="#bfbfbf" points="52.21,-0.5 52.21,-19.5 111.21,-19.5 111.21,-0.5 52.21,-0.5"/>
<text text-anchor="middle" x="81.71" y="-7.5" font-family="Helvetica,sans-Serif" font-size="10.00">functional</text>
</a>
</g>
</g>
<!-- Node1&#45;&gt;Node4 -->
<g id="edge17" class="edge">
<title>Node1&#45;&gt;Node4</title>
<path fill="none" stroke="midnightblue" d="M385.5,-186.36C275.39,-172.12 51.05,-136.27 4.71,-76 -11.79,-54.54 19.79,-35.27 47.36,-23.39"/>
<polygon fill="midnightblue" stroke="midnightblue" points="48.93,-26.53 56.86,-19.5 46.28,-20.05 48.93,-26.53"/>
</g>
<!-- Node8 -->
<g id="node8" class="node">
<title>Node8</title>
<g id="a_node8"><a xlink:title=" ">
<polygon fill="white" stroke="#bfbfbf" points="381.71,-56.5 381.71,-75.5 419.71,-75.5 419.71,-56.5 381.71,-56.5"/>
<text text-anchor="middle" x="400.71" y="-63.5" font-family="Helvetica,sans-Serif" font-size="10.00">tuple</text>
</a>
</g>
</g>
<!-- Node1&#45;&gt;Node8 -->
<g id="edge18" class="edge">
<title>Node1&#45;&gt;Node8</title>
<path fill="none" stroke="midnightblue" d="M439.54,-179.13C434.72,-169.14 428.4,-155.44 423.71,-143 416.43,-123.69 409.8,-100.98 405.55,-85.45"/>
<polygon fill="midnightblue" stroke="midnightblue" points="408.87,-84.31 402.9,-75.56 402.11,-86.12 408.87,-84.31"/>
</g>
<!-- Node10 -->
<g id="node10" class="node">
<title>Node10</title>
<g id="a_node10"><a xlink:href="kalman__eigen__operator_8hpp.xhtml" target="_top" xlink:title="Kalman operation for Eigen 3 types.">
<polygon fill="white" stroke="black" points="433.21,-112.5 433.21,-142.5 544.21,-142.5 544.21,-112.5 433.21,-112.5"/>
<text text-anchor="start" x="441.21" y="-130.5" font-family="Helvetica,sans-Serif" font-size="10.00">internal/kalman_eigen</text>
<text text-anchor="middle" x="488.71" y="-119.5" font-family="Helvetica,sans-Serif" font-size="10.00">_operator.hpp</text>
</a>
</g>
</g>
<!-- Node1&#45;&gt;Node10 -->
<g id="edge11" class="edge">
<title>Node1&#45;&gt;Node10</title>
<path fill="none" stroke="midnightblue" d="M455.82,-179.4C461.16,-171.13 468.03,-160.51 474.11,-151.1"/>
<polygon fill="midnightblue" stroke="midnightblue" points="477.13,-152.88 479.61,-142.58 471.25,-149.08 477.13,-152.88"/>
</g>
<!-- Node11 -->
<g id="node11" class="node">
<title>Node11</title>
<g id="a_node11"><a xlink:title=" ">
<polygon fill="white" stroke="#bfbfbf" points="595.71,-56.5 595.71,-75.5 663.71,-75.5 663.71,-56.5 595.71,-56.5"/>
<text text-anchor="middle" x="629.71" y="-63.5" font-family="Helvetica,sans-Serif" font-size="10.00">Eigen/Eigen</text>
</a>
</g>
</g>
<!-- Node1&#45;&gt;Node11 -->
<g id="edge15" class="edge">
<title>Node1&#45;&gt;Node11</title>
<path fill="none" stroke="midnightblue" d="M483.69,-179.49C504.85,-170.61 531.35,-157.98 552.71,-143 577.33,-125.73 601.27,-100.34 615.75,-83.74"/>
<polygon fill="midnightblue" stroke="midnightblue" points="618.58,-85.82 622.42,-75.95 613.26,-81.27 618.58,-85.82"/>
</g>
<!-- Node12 -->
<g id="node12" class="node">
<title>Node12</title>
<g id="a_node12"><a xlink:title=" ">
<polygon fill="white" stroke="#bfbfbf" points="601.21,-118 601.21,-137 650.21,-137 650.21,-118 601.21,-118"/>
<text text-anchor="middle" x="625.71" y="-125" font-family="Helvetica,sans-Serif" font-size="10.00">cstddef</text>
</a>
</g>
</g>
<!-- Node1&#45;&gt;Node12 -->
<g id="edge16" class="edge">
<title>Node1&#45;&gt;Node12</title>
<path fill="none" stroke="midnightblue" d="M485.97,-179.45C514.06,-169.38 552.74,-155.44 586.71,-143 588.8,-142.23 590.96,-141.44 593.13,-140.64"/>
<polygon fill="midnightblue" stroke="midnightblue" points="594.46,-143.88 602.63,-137.12 592.03,-137.31 594.46,-143.88"/>
</g>
<!-- Node3 -->
<g id="node3" class="node">
<title>Node3</title>
<g id="a_node3"><a xlink:href="internal_2kalman_8hpp.xhtml" target="_top" xlink:title="The main Kalman filter class.">
<polygon fill="white" stroke="black" points="438.21,-56.5 438.21,-75.5 539.21,-75.5 539.21,-56.5 438.21,-56.5"/>
<text text-anchor="middle" x="488.71" y="-63.5" font-family="Helvetica,sans-Serif" font-size="10.00">internal/kalman.hpp</text>
</a>
</g>
</g>
<!-- Node2&#45;&gt;Node3 -->
<g id="edge2" class="edge">
<title>Node2&#45;&gt;Node3</title>
<path fill="none" stroke="midnightblue" d="M344.78,-117.98C373.72,-107.72 422.47,-90.46 455.11,-78.9"/>
<polygon fill="midnightblue" stroke="midnightblue" points="456.43,-82.15 464.68,-75.51 454.09,-75.55 456.43,-82.15"/>
</g>
<!-- Node2&#45;&gt;Node4 -->
<g id="edge7" class="edge">
<title>Node2&#45;&gt;Node4</title>
<path fill="none" stroke="midnightblue" d="M287.63,-123C233.03,-116.58 127.44,-101.2 100.71,-76 88.16,-64.16 83.75,-44.53 82.28,-29.94"/>
<polygon fill="midnightblue" stroke="midnightblue" points="85.75,-29.32 81.63,-19.56 78.76,-29.76 85.75,-29.32"/>
</g>
<!-- Node5 -->
<g id="node5" class="node">
<title>Node5</title>
<g id="a_node5"><a xlink:title=" ">
<polygon fill="white" stroke="#bfbfbf" points="457.71,-0.5 457.71,-19.5 519.71,-19.5 519.71,-0.5 457.71,-0.5"/>
<text text-anchor="middle" x="488.71" y="-7.5" font-family="Helvetica,sans-Serif" font-size="10.00">type_traits</text>
</a>
</g>
</g>
<!-- Node2&#45;&gt;Node5 -->
<g id="edge9" class="edge">
<title>Node2&#45;&gt;Node5</title>
<path fill="none" stroke="midnightblue" d="M324.96,-117.9C332.6,-103.25 349.99,-73.36 372.71,-56 394.86,-39.07 424.16,-27.77 447.77,-20.73"/>
<polygon fill="midnightblue" stroke="midnightblue" points="448.84,-24.07 457.5,-17.97 446.93,-17.33 448.84,-24.07"/>
</g>
<!-- Node6 -->
<g id="node6" class="node">
<title>Node6</title>
<g id="a_node6"><a xlink:href="kalman__operator_8hpp.xhtml" target="_top" xlink:title="Kalman operation for standard types.">
<polygon fill="white" stroke="black" points="110.21,-56.5 110.21,-75.5 251.21,-75.5 251.21,-56.5 110.21,-56.5"/>
<text text-anchor="middle" x="180.71" y="-63.5" font-family="Helvetica,sans-Serif" font-size="10.00">internal/kalman_operator.hpp</text>
</a>
</g>
</g>
<!-- Node2&#45;&gt;Node6 -->
<g id="edge5" class="edge">
<title>Node2&#45;&gt;Node6</title>
<path fill="none" stroke="midnightblue" d="M300.65,-117.98C276.95,-107.9 237.3,-91.05 210.13,-79.5"/>
<polygon fill="midnightblue" stroke="midnightblue" points="211.3,-76.2 200.73,-75.51 208.57,-82.64 211.3,-76.2"/>
</g>
<!-- Node7 -->
<g id="node7" class="node">
<title>Node7</title>
<g id="a_node7"><a xlink:title=" ">
<polygon fill="white" stroke="#bfbfbf" points="269.71,-56.5 269.71,-75.5 325.71,-75.5 325.71,-56.5 269.71,-56.5"/>
<text text-anchor="middle" x="297.71" y="-63.5" font-family="Helvetica,sans-Serif" font-size="10.00">concepts</text>
</a>
</g>
</g>
<!-- Node2&#45;&gt;Node7 -->
<g id="edge6" class="edge">
<title>Node2&#45;&gt;Node7</title>
<path fill="none" stroke="midnightblue" d="M317.41,-117.98C314.1,-109.4 308.89,-95.93 304.66,-84.98"/>
<polygon fill="midnightblue" stroke="midnightblue" points="307.87,-83.57 301,-75.51 301.34,-86.1 307.87,-83.57"/>
</g>
<!-- Node2&#45;&gt;Node8 -->
<g id="edge8" class="edge">
<title>Node2&#45;&gt;Node8</title>
<path fill="none" stroke="midnightblue" d="M332.17,-117.98C344.88,-108.52 365.62,-93.1 380.96,-81.69"/>
<polygon fill="midnightblue" stroke="midnightblue" points="383.33,-84.29 389.27,-75.51 379.16,-78.67 383.33,-84.29"/>
</g>
<!-- Node9 -->
<g id="node9" class="node">
<title>Node9</title>
<g id="a_node9"><a xlink:title=" ">
<polygon fill="white" stroke="#bfbfbf" points="14.21,-56.5 14.21,-75.5 53.21,-75.5 53.21,-56.5 14.21,-56.5"/>
<text text-anchor="middle" x="33.71" y="-63.5" font-family="Helvetica,sans-Serif" font-size="10.00">utility</text>
</a>
</g>
</g>
<!-- Node2&#45;&gt;Node9 -->
<g id="edge10" class="edge">
<title>Node2&#45;&gt;Node9</title>
<path fill="none" stroke="midnightblue" d="M287.42,-120.53C238.9,-111.68 146.03,-94.16 67.71,-76 66.26,-75.66 64.78,-75.31 63.28,-74.94"/>
<polygon fill="midnightblue" stroke="midnightblue" points="63.99,-71.51 53.43,-72.44 62.26,-78.3 63.99,-71.51"/>
</g>
<!-- Node3&#45;&gt;Node4 -->
<g id="edge3" class="edge">
<title>Node3&#45;&gt;Node4</title>
<path fill="none" stroke="midnightblue" d="M437.98,-57.32C434.84,-56.87 431.74,-56.42 428.71,-56 317.58,-40.46 186.16,-23.92 121.59,-15.91"/>
<polygon fill="midnightblue" stroke="midnightblue" points="121.8,-12.41 111.44,-14.65 120.94,-19.36 121.8,-12.41"/>
</g>
<!-- Node3&#45;&gt;Node5 -->
<g id="edge4" class="edge">
<title>Node3&#45;&gt;Node5</title>
<path fill="none" stroke="midnightblue" d="M488.71,-56.08C488.71,-49.01 488.71,-38.86 488.71,-29.99"/>
<polygon fill="midnightblue" stroke="midnightblue" points="492.21,-29.75 488.71,-19.75 485.21,-29.75 492.21,-29.75"/>
</g>
<!-- Node10&#45;&gt;Node3 -->
<g id="edge12" class="edge">
<title>Node10&#45;&gt;Node3</title>
<path fill="none" stroke="midnightblue" d="M488.71,-112.4C488.71,-104.47 488.71,-94.46 488.71,-85.86"/>
<polygon fill="midnightblue" stroke="midnightblue" points="492.21,-85.66 488.71,-75.66 485.21,-85.66 492.21,-85.66"/>
</g>
<!-- Node10&#45;&gt;Node5 -->
<g id="edge14" class="edge">
<title>Node10&#45;&gt;Node5</title>
<path fill="none" stroke="midnightblue" d="M513.71,-112.39C526.43,-103.71 540.66,-91.31 547.71,-76 557.27,-55.23 535.36,-36.48 515.59,-24.52"/>
<polygon fill="midnightblue" stroke="midnightblue" points="517.2,-21.41 506.77,-19.51 513.74,-27.49 517.2,-21.41"/>
</g>
<!-- Node10&#45;&gt;Node11 -->
<g id="edge13" class="edge">
<title>Node10&#45;&gt;Node11</title>
<path fill="none" stroke="midnightblue" d="M522.12,-112.4C545.68,-102.46 576.95,-89.26 599.7,-79.66"/>
<polygon fill="midnightblue" stroke="midnightblue" points="601.34,-82.77 609.19,-75.66 598.62,-76.32 601.34,-82.77"/>
</g>
</g>
</svg>
        <g id="navigator" transform="translate(0 0)" fill="#404254">
                <rect fill="#f2f5e9" fill-opacity="0.5" stroke="#606060" stroke-width=".5" x="0" y="0" width="60" height="60"/>
                <use id="zoomplus" xlink:href="#zoomPlus" x="17" y="9" onmousedown="handleZoom(evt,'in')"/>
                <use id="zoomminus" xlink:href="#zoomMin" x="42" y="9" onmousedown="handleZoom(evt,'out')"/>
                <use id="reset" xlink:href="#resetDef" x="30" y="36" onmousedown="handleReset()"/>
                <g id="arrowUp" xlink:href="#dirArrow" transform="translate(30 24)" onmousedown="handlePan(0,-1)">
                  <use xlink:href="#rim" fill="#404040">
                        <set attributeName="fill" to="#808080" begin="arrowUp.mouseover" end="arrowUp.mouseout"/>
                  </use>
                  <path fill="none" stroke="white" stroke-width="1.5" d="M0,-3.0v7 M-2.5,-0.5L0,-3.0L2.5,-0.5"/>
                </g>
                <g id="arrowRight" xlink:href="#dirArrow" transform="rotate(90) translate(36 -43)" onmousedown="handlePan(1,0)">
                  <use xlink:href="#rim" fill="#404040">
                        <set attributeName="fill" to="#808080" begin="arrowRight.mouseover" end="arrowRight.mouseout"/>
                  </use>
                  <path fill="none" stroke="white" stroke-width="1.5" d="M0,-3.0v7 M-2.5,-0.5L0,-3.0L2.5,-0.5"/>
                </g>
                <g id="arrowDown" xlink:href="#dirArrow" transform="rotate(180) translate(-30 -48)" onmousedown="handlePan(0,1)">
                  <use xlink:href="#rim" fill="#404040">
                        <set attributeName="fill" to="#808080" begin="arrowDown.mouseover" end="arrowDown.mouseout"/>
                  </use>
                  <path fill="none" stroke="white" stroke-width="1.5" d="M0,-3.0v7 M-2.5,-0.5L0,-3.0L2.5,-0.5"/>
                </g>
                <g id="arrowLeft" xlink:href="#dirArrow" transform="rotate(270) translate(-36 17)" onmousedown="handlePan(-1,0)">
                  <use xlink:href="#rim" fill="#404040">
                        <set attributeName="fill" to="#808080" begin="arrowLeft.mouseover" end="arrowLeft.mouseout"/>
                  </use>
                  <path fill="none" stroke="white" stroke-width="1.5" d="M0,-3.0v7 M-2.5,-0.5L0,-3.0L2.5,-0.5"/>
                </g>
        </g>
        <svg viewBox="0 0 15 15" width="100%" height="30px" preserveAspectRatio="xMaxYMin meet">
         <g id="arrow_out" transform="scale(0.3 0.3)">
          <a xlink:href="kalman__eigen_8hpp__incl_org.svg" target="_base">
           <rect id="button" ry="5" rx="5" y="6" x="6" height="38" width="38"
                fill="#f2f5e9" fill-opacity="0.5" stroke="#606060" stroke-width="1.0"/>
           <path id="arrow"
             d="M 11.500037,31.436501 C 11.940474,20.09759 22.043105,11.32322 32.158766,21.979434 L 37.068811,17.246167 C 37.068811,17.246167 37.088388,32 37.088388,32 L 22.160133,31.978069 C 22.160133,31.978069 26.997745,27.140456 26.997745,27.140456 C 18.528582,18.264221 13.291696,25.230495 11.500037,31.436501 z"
             style="fill:#404040;"/>
          </a>
         </g>
        </svg>
</svg>
