<?xml version="1.0" encoding="UTF-8" standalone="no"?>
<!DOCTYPE svg PUBLIC "-//W3C//DTD SVG 1.1//EN"
 "http://www.w3.org/Graphics/SVG/1.1/DTD/svg11.dtd">
<!-- Generated by graphviz version 9.0.0 (20230911.1827)
 -->
<!-- Title: /github/workspace/test/kalman_format_1x4x3.cpp Pages: 1 -->
<!--zoomable 381 -->

<svg id="main" version="1.1" xmlns="http://www.w3.org/2000/svg" xmlns:xlink="http://www.w3.org/1999/xlink" xml:space="preserve" onload="init(evt)">
<style type="text/css"><![CDATA[
.node, .edge {opacity: 0.7;}
.node.selected, .edge.selected {opacity: 1;}
.edge:hover path { stroke: red; }
.edge:hover polygon { stroke: red; fill: red; }
]]></style>

<defs>
  <circle id="rim" cx="0" cy="0" r="7"/>
  <circle id="rim2" cx="0" cy="0" r="3.5"/>
  <g id="zoomPlus">
    <use xlink:href="#rim" fill="#404040"><set attributeName="fill" to="#808080" begin="zoomplus.mouseover" end="zoomplus.mouseout"/></use>
    <path d="M-4,0h8M0,-4v8" fill="none" stroke="white" stroke-width="1.5" pointer-events="none"/>
  </g>
  <g id="zoomMin">
    <use xlink:href="#rim" fill="#404040"><set attributeName="fill" to="#808080" begin="zoomminus.mouseover" end="zoomminus.mouseout"/></use>
    <path d="M-4,0h8" fill="none" stroke="white" stroke-width="1.5" pointer-events="none"/>
  </g>
  <g id="arrowUp" transform="translate(30 24)">
    <use xlink:href="#rim"/>
    <path pointer-events="none" fill="none" stroke="white" stroke-width="1.5" d="M0,-3.0v7 M-2.5,-0.5L0,-3.0L2.5,-0.5"/>
  </g>
  <g id="arrowRight" transform="rotate(90) translate(36 -43)">
    <use xlink:href="#rim"/>
    <path pointer-events="none" fill="none" stroke="white" stroke-width="1.5" d="M0,-3.0v7 M-2.5,-0.5L0,-3.0L2.5,-0.5"/>
  </g>
  <g id="arrowDown" transform="rotate(180) translate(-30 -48)">
    <use xlink:href="#rim"/>
    <path pointer-events="none" fill="none" stroke="white" stroke-width="1.5" d="M0,-3.0v7 M-2.5,-0.5L0,-3.0L2.5,-0.5"/>
  </g>
  <g id="arrowLeft" transform="rotate(270) translate(-36 17)">
    <use xlink:href="#rim"/>
    <path pointer-events="none" fill="none" stroke="white" stroke-width="1.5" d="M0,-3.0v7 M-2.5,-0.5L0,-3.0L2.5,-0.5"/>
  </g>
  <g id="resetDef">
    <use xlink:href="#rim2" fill="#404040"><set attributeName="fill" to="#808080" begin="reset.mouseover" end="reset.mouseout"/></use>
  </g>
</defs>
<script type="application/ecmascript">
var viewWidth = 1256;
var viewHeight = 381;
var sectionId = 'dynsection-0';
</script>
<script type="application/ecmascript" xlink:href="svg.min.js"/>
<svg id="graph" class="graph">
<g id="viewport">
<title>/github/workspace/test/kalman_format_1x4x3.cpp</title>
<!-- Node1 -->
<g id="Node000001" class="node">
<title>Node1</title>
<g id="a_Node000001"><a xlink:title=" ">
<polygon fill="#999999" stroke="#666666" points="724.62,-373.25 593.12,-373.25 593.12,-342.75 724.62,-342.75 724.62,-373.25"/>
<text text-anchor="start" x="601.12" y="-359.75" font-family="Helvetica,sans-Serif" font-size="10.00">/github/workspace/test</text>
<text text-anchor="middle" x="658.88" y="-348.5" font-family="Helvetica,sans-Serif" font-size="10.00">/kalman_format_1x4x3.cpp</text>
</a>
</g>
</g>
<!-- Node2 -->
<g id="Node000002" class="node">
<title>Node2</title>
<g id="a_Node000002"><a xlink:href="kalman_8hpp.xhtml" target="_top" xlink:title="The Kalman filter class and library top&#45;level header.">
<polygon fill="white" stroke="#666666" points="651.88,-306.75 545.88,-306.75 545.88,-287.5 651.88,-287.5 651.88,-306.75"/>
<text text-anchor="middle" x="598.88" y="-293.25" font-family="Helvetica,sans-Serif" font-size="10.00">fcarouge/kalman.hpp</text>
</a>
</g>
</g>
<!-- Node1&#45;&gt;Node2 -->
<g id="edge1_Node000001_Node000002" class="edge">
<title>Node1&#45;&gt;Node2</title>
<g id="a_edge1_Node000001_Node000002"><a xlink:title=" ">
<path fill="none" stroke="#63b8ff" d="M644.04,-342.45C635.61,-334.17 625.01,-323.77 616.19,-315.12"/>
<polygon fill="#63b8ff" stroke="#63b8ff" points="618.79,-312.77 609.2,-308.26 613.89,-317.76 618.79,-312.77"/>
</a>
</g>
</g>
<!-- Node21 -->
<g id="Node000021" class="node">
<title>Node21</title>
<g id="a_Node000021"><a xlink:title=" ">
<polygon fill="#e0e0e0" stroke="#999999" points="43.75,-190.62 0,-190.62 0,-171.38 43.75,-171.38 43.75,-190.62"/>
<text text-anchor="middle" x="21.88" y="-177.12" font-family="Helvetica,sans-Serif" font-size="10.00">format</text>
</a>
</g>
</g>
<!-- Node1&#45;&gt;Node21 -->
<g id="edge45_Node000001_Node000021" class="edge">
<title>Node1&#45;&gt;Node21</title>
<g id="a_edge45_Node000001_Node000021"><a xlink:title=" ">
<path fill="none" stroke="#63b8ff" d="M594.11,-342.28C483.18,-316.49 250.16,-259.79 57.88,-196.25 56.55,-195.81 55.2,-195.35 53.84,-194.87"/>
<polygon fill="#63b8ff" stroke="#63b8ff" points="55.44,-191.73 44.85,-191.53 53,-198.29 55.44,-191.73"/>
</a>
</g>
</g>
<!-- Node25 -->
<g id="Node000025" class="node">
<title>Node25</title>
<g id="a_Node000025"><a xlink:title=" ">
<polygon fill="#e0e0e0" stroke="#999999" points="767.38,-306.75 670.38,-306.75 670.38,-287.5 767.38,-287.5 767.38,-306.75"/>
<text text-anchor="middle" x="718.88" y="-293.25" font-family="Helvetica,sans-Serif" font-size="10.00">fcarouge/linalg.hpp</text>
</a>
</g>
</g>
<!-- Node1&#45;&gt;Node25 -->
<g id="edge43_Node000001_Node000025" class="edge">
<title>Node1&#45;&gt;Node25</title>
<g id="a_edge43_Node000001_Node000025"><a xlink:title=" ">
<path fill="none" stroke="#63b8ff" d="M673.71,-342.45C682.14,-334.17 692.74,-323.77 701.56,-315.12"/>
<polygon fill="#63b8ff" stroke="#63b8ff" points="703.86,-317.76 708.55,-308.26 698.96,-312.77 703.86,-317.76"/>
</a>
</g>
</g>
<!-- Node26 -->
<g id="Node000026" class="node">
<title>Node26</title>
<g id="a_Node000026"><a xlink:title=" ">
<polygon fill="#e0e0e0" stroke="#999999" points="834,-306.75 785.75,-306.75 785.75,-287.5 834,-287.5 834,-306.75"/>
<text text-anchor="middle" x="809.88" y="-293.25" font-family="Helvetica,sans-Serif" font-size="10.00">cassert</text>
</a>
</g>
</g>
<!-- Node1&#45;&gt;Node26 -->
<g id="edge44_Node000001_Node000026" class="edge">
<title>Node1&#45;&gt;Node26</title>
<g id="a_edge44_Node000001_Node000026"><a xlink:title=" ">
<path fill="none" stroke="#63b8ff" d="M696.59,-342.3C721.02,-332.77 752.57,-320.47 776.17,-311.27"/>
<polygon fill="#63b8ff" stroke="#63b8ff" points="777.26,-314.6 785.31,-307.7 774.72,-308.08 777.26,-314.6"/>
</a>
</g>
</g>
<!-- Node3 -->
<g id="Node000003" class="node">
<title>Node3</title>
<g id="a_Node000003"><a xlink:href="factory_8hpp.xhtml" target="_top" xlink:title=" ">
<polygon fill="white" stroke="#666666" points="740.75,-251.5 643,-251.5 643,-232.25 740.75,-232.25 740.75,-251.5"/>
<text text-anchor="middle" x="691.88" y="-238" font-family="Helvetica,sans-Serif" font-size="10.00">internal/factory.hpp</text>
</a>
</g>
</g>
<!-- Node2&#45;&gt;Node3 -->
<g id="edge2_Node000002_Node000003" class="edge">
<title>Node2&#45;&gt;Node3</title>
<g id="a_edge2_Node000002_Node000003"><a xlink:title=" ">
<path fill="none" stroke="#63b8ff" d="M614.65,-287.09C628.81,-278.98 649.86,-266.93 666.4,-257.46"/>
<polygon fill="#63b8ff" stroke="#63b8ff" points="667.77,-260.71 674.71,-252.7 664.29,-254.64 667.77,-260.71"/>
</a>
</g>
</g>
<!-- Node5 -->
<g id="Node000005" class="node">
<title>Node5</title>
<g id="a_Node000005"><a xlink:href="utility_8hpp.xhtml" target="_top" xlink:title="The collection of utilities supporting the library.">
<polygon fill="white" stroke="#666666" points="784.38,-129.75 687.38,-129.75 687.38,-110.5 784.38,-110.5 784.38,-129.75"/>
<text text-anchor="middle" x="735.88" y="-116.25" font-family="Helvetica,sans-Serif" font-size="10.00">fcarouge/utility.hpp</text>
</a>
</g>
</g>
<!-- Node2&#45;&gt;Node5 -->
<g id="edge41_Node000002_Node000005" class="edge">
<title>Node2&#45;&gt;Node5</title>
<g id="a_edge41_Node000002_Node000005"><a xlink:title=" ">
<path fill="none" stroke="#63b8ff" d="M652.37,-288.56C740.41,-274.9 909.64,-243.09 944.88,-196.25 985.71,-141.95 871.32,-126.81 796.04,-122.65"/>
<polygon fill="#63b8ff" stroke="#63b8ff" points="796.45,-119.16 786.29,-122.16 796.11,-126.15 796.45,-119.16"/>
</a>
</g>
</g>
<!-- Node19 -->
<g id="Node000019" class="node">
<title>Node19</title>
<g id="a_Node000019"><a xlink:href="format_8hpp.xhtml" target="_top" xlink:title=" ">
<polygon fill="white" stroke="#666666" points="555,-251.5 458.75,-251.5 458.75,-232.25 555,-232.25 555,-251.5"/>
<text text-anchor="middle" x="506.88" y="-238" font-family="Helvetica,sans-Serif" font-size="10.00">internal/format.hpp</text>
</a>
</g>
</g>
<!-- Node2&#45;&gt;Node19 -->
<g id="edge34_Node000002_Node000019" class="edge">
<title>Node2&#45;&gt;Node19</title>
<g id="a_edge34_Node000002_Node000019"><a xlink:title=" ">
<path fill="none" stroke="#63b8ff" d="M583.27,-287.09C569.26,-278.98 548.44,-266.93 532.07,-257.46"/>
<polygon fill="#63b8ff" stroke="#63b8ff" points="534.28,-254.69 523.87,-252.71 530.77,-260.75 534.28,-254.69"/>
</a>
</g>
</g>
<!-- Node22 -->
<g id="Node000022" class="node">
<title>Node22</title>
<g id="a_Node000022"><a xlink:href="printer_8hpp.xhtml" target="_top" xlink:title=" ">
<polygon fill="white" stroke="#666666" points="1157.38,-251.5 1096.38,-251.5 1096.38,-232.25 1157.38,-232.25 1157.38,-251.5"/>
<text text-anchor="middle" x="1126.88" y="-238" font-family="Helvetica,sans-Serif" font-size="10.00">printer.hpp</text>
</a>
</g>
</g>
<!-- Node2&#45;&gt;Node22 -->
<g id="edge39_Node000002_Node000022" class="edge">
<title>Node2&#45;&gt;Node22</title>
<g id="a_edge39_Node000002_Node000022"><a xlink:title=" ">
<path fill="none" stroke="#63b8ff" d="M652.29,-288.55C655.19,-288.18 658.07,-287.83 660.88,-287.5 816.86,-269.19 1002.89,-253.09 1084.72,-246.3"/>
<polygon fill="#63b8ff" stroke="#63b8ff" points="1084.83,-249.81 1094.51,-245.5 1084.26,-242.83 1084.83,-249.81"/>
</a>
</g>
</g>
<!-- Node24 -->
<g id="Node000024" class="node">
<title>Node24</title>
<g id="a_Node000024"><a xlink:title=" ">
<polygon fill="#e0e0e0" stroke="#999999" points="440.75,-251.5 343,-251.5 343,-232.25 440.75,-232.25 440.75,-251.5"/>
<text text-anchor="middle" x="391.88" y="-238" font-family="Helvetica,sans-Serif" font-size="10.00">internal/kalman.tpp</text>
</a>
</g>
</g>
<!-- Node2&#45;&gt;Node24 -->
<g id="edge42_Node000002_Node000024" class="edge">
<title>Node2&#45;&gt;Node24</title>
<g id="a_edge42_Node000002_Node000024"><a xlink:title=" ">
<path fill="none" stroke="#63b8ff" d="M563.76,-287.09C529.12,-278.18 475.97,-264.51 437.95,-254.73"/>
<polygon fill="#63b8ff" stroke="#63b8ff" points="439.18,-251.43 428.63,-252.33 437.44,-258.21 439.18,-251.43"/>
</a>
</g>
</g>
<!-- Node4 -->
<g id="Node000004" class="node">
<title>Node4</title>
<g id="a_Node000004"><a xlink:href="type_8hpp.xhtml" target="_top" xlink:title=" ">
<polygon fill="white" stroke="#666666" points="1157.38,-190.62 1030.38,-190.62 1030.38,-171.38 1157.38,-171.38 1157.38,-190.62"/>
<text text-anchor="middle" x="1093.88" y="-177.12" font-family="Helvetica,sans-Serif" font-size="10.00">fcarouge/internal/type.hpp</text>
</a>
</g>
</g>
<!-- Node3&#45;&gt;Node4 -->
<g id="edge3_Node000003_Node000004" class="edge">
<title>Node3&#45;&gt;Node4</title>
<g id="a_edge3_Node000003_Node000004"><a xlink:title=" ">
<path fill="none" stroke="#63b8ff" d="M741.1,-234.78C804.69,-226.74 918.74,-211.8 1015.88,-196.25 1022.14,-195.25 1028.69,-194.14 1035.2,-193"/>
<polygon fill="#63b8ff" stroke="#63b8ff" points="1035.36,-196.53 1044.59,-191.34 1034.13,-189.64 1035.36,-196.53"/>
</a>
</g>
</g>
<!-- Node7 -->
<g id="Node000007" class="node">
<title>Node7</title>
<g id="a_Node000007"><a xlink:title=" ">
<polygon fill="#e0e0e0" stroke="#999999" points="1159.75,-19.25 1104,-19.25 1104,0 1159.75,0 1159.75,-19.25"/>
<text text-anchor="middle" x="1131.88" y="-5.75" font-family="Helvetica,sans-Serif" font-size="10.00">concepts</text>
</a>
</g>
</g>
<!-- Node3&#45;&gt;Node7 -->
<g id="edge32_Node000003_Node000007" class="edge">
<title>Node3&#45;&gt;Node7</title>
<g id="a_edge32_Node000003_Node000007"><a xlink:title=" ">
<path fill="none" stroke="#63b8ff" d="M740.88,-239.93C856.48,-237.18 1138.58,-227.33 1166.88,-196.25 1210.08,-148.8 1166.78,-65.43 1143.98,-28.78"/>
<polygon fill="#63b8ff" stroke="#63b8ff" points="1147.1,-27.16 1138.75,-20.64 1141.22,-30.95 1147.1,-27.16"/>
</a>
</g>
</g>
<!-- Node9 -->
<g id="Node000009" class="node">
<title>Node9</title>
<g id="a_Node000009"><a xlink:title=" ">
<polygon fill="#e0e0e0" stroke="#999999" points="1032.38,-19.25 971.38,-19.25 971.38,0 1032.38,0 1032.38,-19.25"/>
<text text-anchor="middle" x="1001.88" y="-5.75" font-family="Helvetica,sans-Serif" font-size="10.00">type_traits</text>
</a>
</g>
</g>
<!-- Node3&#45;&gt;Node9 -->
<g id="edge33_Node000003_Node000009" class="edge">
<title>Node3&#45;&gt;Node9</title>
<g id="a_edge33_Node000003_Node000009"><a xlink:title=" ">
<path fill="none" stroke="#63b8ff" d="M741.11,-238.2C805.98,-233.68 915.34,-222.35 944.88,-196.25 993.57,-153.22 1001.25,-69.76 1002.07,-31.14"/>
<polygon fill="#63b8ff" stroke="#63b8ff" points="1005.57,-31.22 1002.13,-21.2 998.57,-31.18 1005.57,-31.22"/>
</a>
</g>
</g>
<!-- Node11 -->
<g id="Node000011" class="node">
<title>Node11</title>
<g id="a_Node000011"><a xlink:href="x__z__p__q__r__h__f_8hpp.xhtml" target="_top" xlink:title=" ">
<polygon fill="white" stroke="#666666" points="935.62,-196.25 840.12,-196.25 840.12,-165.75 935.62,-165.75 935.62,-196.25"/>
<text text-anchor="start" x="848.12" y="-182.75" font-family="Helvetica,sans-Serif" font-size="10.00">fcarouge/internal/x</text>
<text text-anchor="middle" x="887.88" y="-171.5" font-family="Helvetica,sans-Serif" font-size="10.00">_z_p_q_r_h_f.hpp</text>
</a>
</g>
</g>
<!-- Node3&#45;&gt;Node11 -->
<g id="edge11_Node000003_Node000011" class="edge">
<title>Node3&#45;&gt;Node11</title>
<g id="a_edge11_Node000003_Node000011"><a xlink:title=" ">
<path fill="none" stroke="#63b8ff" d="M722.07,-231.8C750.49,-223.27 793.82,-210.25 829.06,-199.67"/>
<polygon fill="#63b8ff" stroke="#63b8ff" points="829.69,-203.13 838.26,-196.9 827.68,-196.43 829.69,-203.13"/>
</a>
</g>
</g>
<!-- Node12 -->
<g id="Node000012" class="node">
<title>Node12</title>
<g id="a_Node000012"><a xlink:href="x__z__p__q__r__hh__us__ps_8hpp.xhtml" target="_top" xlink:title=" ">
<polygon fill="white" stroke="#666666" points="670,-196.25 549.75,-196.25 549.75,-165.75 670,-165.75 670,-196.25"/>
<text text-anchor="start" x="557.75" y="-182.75" font-family="Helvetica,sans-Serif" font-size="10.00">fcarouge/internal/x</text>
<text text-anchor="middle" x="609.88" y="-171.5" font-family="Helvetica,sans-Serif" font-size="10.00">_z_p_q_r_hh_us_ps.hpp</text>
</a>
</g>
</g>
<!-- Node3&#45;&gt;Node12 -->
<g id="edge13_Node000003_Node000012" class="edge">
<title>Node3&#45;&gt;Node12</title>
<g id="a_edge13_Node000003_Node000012"><a xlink:title=" ">
<path fill="none" stroke="#63b8ff" d="M679.42,-231.93C668.79,-224.3 653.08,-213.02 639.28,-203.11"/>
<polygon fill="#63b8ff" stroke="#63b8ff" points="641.51,-200.4 631.34,-197.41 637.43,-206.09 641.51,-200.4"/>
</a>
</g>
</g>
<!-- Node15 -->
<g id="Node000015" class="node">
<title>Node15</title>
<g id="a_Node000015"><a xlink:href="x__z__p__qq__rr__f_8hpp.xhtml" target="_top" xlink:title=" ">
<polygon fill="white" stroke="#666666" points="261.62,-196.25 166.12,-196.25 166.12,-165.75 261.62,-165.75 261.62,-196.25"/>
<text text-anchor="start" x="174.12" y="-182.75" font-family="Helvetica,sans-Serif" font-size="10.00">fcarouge/internal/x</text>
<text text-anchor="middle" x="213.88" y="-171.5" font-family="Helvetica,sans-Serif" font-size="10.00">_z_p_qq_rr_f.hpp</text>
</a>
</g>
</g>
<!-- Node3&#45;&gt;Node15 -->
<g id="edge18_Node000003_Node000015" class="edge">
<title>Node3&#45;&gt;Node15</title>
<g id="a_edge18_Node000003_Node000015"><a xlink:title=" ">
<path fill="none" stroke="#63b8ff" d="M642.62,-237.89C565.78,-232.74 412.58,-220.53 273.26,-196.5"/>
<polygon fill="#63b8ff" stroke="#63b8ff" points="273.92,-193.07 263.47,-194.79 272.71,-199.96 273.92,-193.07"/>
</a>
</g>
</g>
<!-- Node16 -->
<g id="Node000016" class="node">
<title>Node16</title>
<g id="a_Node000016"><a xlink:href="x__z__p__r__f_8hpp.xhtml" target="_top" xlink:title=" ">
<polygon fill="white" stroke="#666666" points="821.62,-196.25 726.12,-196.25 726.12,-165.75 821.62,-165.75 821.62,-196.25"/>
<text text-anchor="start" x="734.12" y="-182.75" font-family="Helvetica,sans-Serif" font-size="10.00">fcarouge/internal/x</text>
<text text-anchor="middle" x="773.88" y="-171.5" font-family="Helvetica,sans-Serif" font-size="10.00">_z_p_r_f.hpp</text>
</a>
</g>
</g>
<!-- Node3&#45;&gt;Node16 -->
<g id="edge22_Node000003_Node000016" class="edge">
<title>Node3&#45;&gt;Node16</title>
<g id="a_edge22_Node000003_Node000016"><a xlink:title=" ">
<path fill="none" stroke="#63b8ff" d="M704.33,-231.93C714.96,-224.3 730.67,-213.02 744.47,-203.11"/>
<polygon fill="#63b8ff" stroke="#63b8ff" points="746.32,-206.09 752.41,-197.41 742.24,-200.4 746.32,-206.09"/>
</a>
</g>
</g>
<!-- Node17 -->
<g id="Node000017" class="node">
<title>Node17</title>
<g id="a_Node000017"><a xlink:href="x__z__u__p__q__r__f__g__ps_8hpp.xhtml" target="_top" xlink:title=" ">
<polygon fill="white" stroke="#666666" points="397.88,-196.25 279.88,-196.25 279.88,-165.75 397.88,-165.75 397.88,-196.25"/>
<text text-anchor="start" x="287.88" y="-182.75" font-family="Helvetica,sans-Serif" font-size="10.00">fcarouge/internal/x</text>
<text text-anchor="middle" x="338.88" y="-171.5" font-family="Helvetica,sans-Serif" font-size="10.00">_z_u_p_q_r_f_g_ps.hpp</text>
</a>
</g>
</g>
<!-- Node3&#45;&gt;Node17 -->
<g id="edge24_Node000003_Node000017" class="edge">
<title>Node3&#45;&gt;Node17</title>
<g id="a_edge24_Node000003_Node000017"><a xlink:title=" ">
<path fill="none" stroke="#63b8ff" d="M642.57,-233.94C587.98,-226.08 497.11,-212.5 409.41,-196.66"/>
<polygon fill="#63b8ff" stroke="#63b8ff" points="410.13,-193.23 399.67,-194.89 408.88,-200.12 410.13,-193.23"/>
</a>
</g>
</g>
<!-- Node18 -->
<g id="Node000018" class="node">
<title>Node18</title>
<g id="a_Node000018"><a xlink:href="x__z__u__p__q__r__us__ps_8hpp.xhtml" target="_top" xlink:title=" ">
<polygon fill="white" stroke="#666666" points="531.38,-196.25 416.38,-196.25 416.38,-165.75 531.38,-165.75 531.38,-196.25"/>
<text text-anchor="start" x="424.38" y="-182.75" font-family="Helvetica,sans-Serif" font-size="10.00">fcarouge/internal/x</text>
<text text-anchor="middle" x="473.88" y="-171.5" font-family="Helvetica,sans-Serif" font-size="10.00">_z_u_p_q_r_us_ps.hpp</text>
</a>
</g>
</g>
<!-- Node3&#45;&gt;Node18 -->
<g id="edge28_Node000003_Node000018" class="edge">
<title>Node3&#45;&gt;Node18</title>
<g id="a_edge28_Node000003_Node000018"><a xlink:title=" ">
<path fill="none" stroke="#63b8ff" d="M658.29,-231.8C626.7,-223.27 578.53,-210.26 539.34,-199.68"/>
<polygon fill="#63b8ff" stroke="#63b8ff" points="540.31,-196.32 529.75,-197.09 538.49,-203.08 540.31,-196.32"/>
</a>
</g>
</g>
<!-- Node4&#45;&gt;Node5 -->
<g id="edge4_Node000004_Node000005" class="edge">
<title>Node4&#45;&gt;Node5</title>
<g id="a_edge4_Node000004_Node000005"><a xlink:title=" ">
<path fill="none" stroke="#63b8ff" d="M1038.72,-170.93C973.09,-160.14 863.88,-142.18 796.09,-131.03"/>
<polygon fill="#63b8ff" stroke="#63b8ff" points="796.69,-127.58 786.25,-129.41 795.55,-134.49 796.69,-127.58"/>
</a>
</g>
</g>
<!-- Node4&#45;&gt;Node9 -->
<g id="edge10_Node000004_Node000009" class="edge">
<title>Node4&#45;&gt;Node9</title>
<g id="a_edge10_Node000004_Node000009"><a xlink:title=" ">
<path fill="none" stroke="#63b8ff" d="M1099.6,-171.12C1107.55,-157.59 1119.98,-131.19 1110.88,-110.5 1094.08,-72.34 1054.72,-42.39 1028.18,-25.6"/>
<polygon fill="#63b8ff" stroke="#63b8ff" points="1030.03,-22.63 1019.67,-20.41 1026.38,-28.61 1030.03,-22.63"/>
</a>
</g>
</g>
<!-- Node10 -->
<g id="Node000010" class="node">
<title>Node10</title>
<g id="a_Node000010"><a xlink:title=" ">
<polygon fill="#e0e0e0" stroke="#999999" points="1101.62,-129.75 1030.12,-129.75 1030.12,-110.5 1101.62,-110.5 1101.62,-129.75"/>
<text text-anchor="middle" x="1065.88" y="-116.25" font-family="Helvetica,sans-Serif" font-size="10.00">initializer_list</text>
</a>
</g>
</g>
<!-- Node4&#45;&gt;Node10 -->
<g id="edge9_Node000004_Node000010" class="edge">
<title>Node4&#45;&gt;Node10</title>
<g id="a_edge9_Node000004_Node000010"><a xlink:title=" ">
<path fill="none" stroke="#63b8ff" d="M1089.62,-171.06C1085.76,-162.93 1079.93,-150.67 1075.01,-140.33"/>
<polygon fill="#63b8ff" stroke="#63b8ff" points="1078.27,-139.05 1070.82,-131.52 1071.95,-142.05 1078.27,-139.05"/>
</a>
</g>
</g>
<!-- Node6 -->
<g id="Node000006" class="node">
<title>Node6</title>
<g id="a_Node000006"><a xlink:href="internal_2utility_8hpp.xhtml" target="_top" xlink:title=" ">
<polygon fill="white" stroke="#666666" points="858.38,-74.5 767.38,-74.5 767.38,-55.25 858.38,-55.25 858.38,-74.5"/>
<text text-anchor="middle" x="812.88" y="-61" font-family="Helvetica,sans-Serif" font-size="10.00">internal/utility.hpp</text>
</a>
</g>
</g>
<!-- Node5&#45;&gt;Node6 -->
<g id="edge5_Node000005_Node000006" class="edge">
<title>Node5&#45;&gt;Node6</title>
<g id="a_edge5_Node000005_Node000006"><a xlink:title=" ">
<path fill="none" stroke="#63b8ff" d="M748.94,-110.09C760.33,-102.21 777.1,-90.61 790.61,-81.27"/>
<polygon fill="#63b8ff" stroke="#63b8ff" points="792.27,-84.38 798.5,-75.81 788.29,-78.62 792.27,-84.38"/>
</a>
</g>
</g>
<!-- Node6&#45;&gt;Node7 -->
<g id="edge6_Node000006_Node000007" class="edge">
<title>Node6&#45;&gt;Node7</title>
<g id="a_edge6_Node000006_Node000007"><a xlink:title=" ">
<path fill="none" stroke="#63b8ff" d="M858.58,-56.25C921.41,-45.76 1033.39,-27.07 1092.62,-17.18"/>
<polygon fill="#63b8ff" stroke="#63b8ff" points="1092.96,-20.67 1102.25,-15.57 1091.81,-13.77 1092.96,-20.67"/>
</a>
</g>
</g>
<!-- Node8 -->
<g id="Node000008" class="node">
<title>Node8</title>
<g id="a_Node000008"><a xlink:title=" ">
<polygon fill="#e0e0e0" stroke="#999999" points="428.38,-19.25 391.38,-19.25 391.38,0 428.38,0 428.38,-19.25"/>
<text text-anchor="middle" x="409.88" y="-5.75" font-family="Helvetica,sans-Serif" font-size="10.00">tuple</text>
</a>
</g>
</g>
<!-- Node6&#45;&gt;Node8 -->
<g id="edge7_Node000006_Node000008" class="edge">
<title>Node6&#45;&gt;Node8</title>
<g id="a_edge7_Node000006_Node000008"><a xlink:title=" ">
<path fill="none" stroke="#63b8ff" d="M767.04,-57.82C683.77,-46.82 509.8,-23.83 439.9,-14.59"/>
<polygon fill="#63b8ff" stroke="#63b8ff" points="440.73,-11.17 430.35,-13.33 439.81,-18.11 440.73,-11.17"/>
</a>
</g>
</g>
<!-- Node6&#45;&gt;Node9 -->
<g id="edge8_Node000006_Node000009" class="edge">
<title>Node6&#45;&gt;Node9</title>
<g id="a_edge8_Node000006_Node000009"><a xlink:title=" ">
<path fill="none" stroke="#63b8ff" d="M844.94,-54.84C876.68,-45.9 925.43,-32.16 960.17,-22.38"/>
<polygon fill="#63b8ff" stroke="#63b8ff" points="960.78,-25.84 969.46,-19.76 958.88,-19.1 960.78,-25.84"/>
</a>
</g>
</g>
<!-- Node11&#45;&gt;Node5 -->
<g id="edge12_Node000011_Node000005" class="edge">
<title>Node11&#45;&gt;Node5</title>
<g id="a_edge12_Node000011_Node000005"><a xlink:title=" ">
<path fill="none" stroke="#63b8ff" d="M849.91,-165.3C825.32,-155.77 793.56,-143.47 769.81,-134.27"/>
<polygon fill="#63b8ff" stroke="#63b8ff" points="771.19,-131.05 760.6,-130.7 768.66,-137.58 771.19,-131.05"/>
</a>
</g>
</g>
<!-- Node12&#45;&gt;Node5 -->
<g id="edge14_Node000012_Node000005" class="edge">
<title>Node12&#45;&gt;Node5</title>
<g id="a_edge14_Node000012_Node000005"><a xlink:title=" ">
<path fill="none" stroke="#63b8ff" d="M641.35,-165.3C661.18,-156.03 686.63,-144.13 706.13,-135.02"/>
<polygon fill="#63b8ff" stroke="#63b8ff" points="707.6,-138.2 715.18,-130.79 704.64,-131.86 707.6,-138.2"/>
</a>
</g>
</g>
<!-- Node12&#45;&gt;Node8 -->
<g id="edge17_Node000012_Node000008" class="edge">
<title>Node12&#45;&gt;Node8</title>
<g id="a_edge17_Node000012_Node000008"><a xlink:title=" ">
<path fill="none" stroke="#63b8ff" d="M592.48,-165.27C555.17,-133.67 467.74,-59.63 428.97,-26.79"/>
<polygon fill="#63b8ff" stroke="#63b8ff" points="431.68,-24.5 421.79,-20.71 427.16,-29.85 431.68,-24.5"/>
</a>
</g>
</g>
<!-- Node13 -->
<g id="Node000013" class="node">
<title>Node13</title>
<g id="a_Node000013"><a xlink:href="function_8hpp.xhtml" target="_top" xlink:title=" ">
<polygon fill="white" stroke="#666666" points="441.12,-129.75 372.62,-129.75 372.62,-110.5 441.12,-110.5 441.12,-129.75"/>
<text text-anchor="middle" x="406.88" y="-116.25" font-family="Helvetica,sans-Serif" font-size="10.00">function.hpp</text>
</a>
</g>
</g>
<!-- Node12&#45;&gt;Node13 -->
<g id="edge15_Node000012_Node000013" class="edge">
<title>Node12&#45;&gt;Node13</title>
<g id="a_edge15_Node000012_Node000013"><a xlink:title=" ">
<path fill="none" stroke="#63b8ff" d="M559.17,-165.3C525.24,-155.45 481.11,-142.65 449.09,-133.37"/>
<polygon fill="#63b8ff" stroke="#63b8ff" points="450.34,-130.09 439.76,-130.66 448.39,-136.81 450.34,-130.09"/>
</a>
</g>
</g>
<!-- Node14 -->
<g id="Node000014" class="node">
<title>Node14</title>
<g id="a_Node000014"><a xlink:title=" ">
<polygon fill="#e0e0e0" stroke="#999999" points="432.12,-74.5 381.62,-74.5 381.62,-55.25 432.12,-55.25 432.12,-74.5"/>
<text text-anchor="middle" x="406.88" y="-61" font-family="Helvetica,sans-Serif" font-size="10.00">memory</text>
</a>
</g>
</g>
<!-- Node13&#45;&gt;Node14 -->
<g id="edge16_Node000013_Node000014" class="edge">
<title>Node13&#45;&gt;Node14</title>
<g id="a_edge16_Node000013_Node000014"><a xlink:title=" ">
<path fill="none" stroke="#63b8ff" d="M406.88,-110.33C406.88,-103.82 406.88,-94.67 406.88,-86.37"/>
<polygon fill="#63b8ff" stroke="#63b8ff" points="410.38,-86.37 406.88,-76.37 403.38,-86.37 410.38,-86.37"/>
</a>
</g>
</g>
<!-- Node15&#45;&gt;Node5 -->
<g id="edge19_Node000015_Node000005" class="edge">
<title>Node15&#45;&gt;Node5</title>
<g id="a_edge19_Node000015_Node000005"><a xlink:title=" ">
<path fill="none" stroke="#63b8ff" d="M261.97,-167.44C264.97,-166.82 267.96,-166.25 270.88,-165.75 414.87,-140.98 586.49,-128.97 675.54,-124.03"/>
<polygon fill="#63b8ff" stroke="#63b8ff" points="675.72,-127.53 685.51,-123.49 675.34,-120.54 675.72,-127.53"/>
</a>
</g>
</g>
<!-- Node15&#45;&gt;Node8 -->
<g id="edge21_Node000015_Node000008" class="edge">
<title>Node15&#45;&gt;Node8</title>
<g id="a_edge21_Node000015_Node000008"><a xlink:title=" ">
<path fill="none" stroke="#63b8ff" d="M230.93,-165.27C267.33,-133.81 352.45,-60.25 390.68,-27.21"/>
<polygon fill="#63b8ff" stroke="#63b8ff" points="392.91,-29.91 398.19,-20.72 388.33,-24.61 392.91,-29.91"/>
</a>
</g>
</g>
<!-- Node15&#45;&gt;Node13 -->
<g id="edge20_Node000015_Node000013" class="edge">
<title>Node15&#45;&gt;Node13</title>
<g id="a_edge20_Node000015_Node000013"><a xlink:title=" ">
<path fill="none" stroke="#63b8ff" d="M262.08,-165.3C294.2,-155.5 335.93,-142.77 366.34,-133.49"/>
<polygon fill="#63b8ff" stroke="#63b8ff" points="367,-136.95 375.54,-130.68 364.96,-130.25 367,-136.95"/>
</a>
</g>
</g>
<!-- Node16&#45;&gt;Node5 -->
<g id="edge23_Node000016_Node000005" class="edge">
<title>Node16&#45;&gt;Node5</title>
<g id="a_edge23_Node000016_Node000005"><a xlink:title=" ">
<path fill="none" stroke="#63b8ff" d="M764.48,-165.45C759.47,-157.69 753.26,-148.06 747.9,-139.76"/>
<polygon fill="#63b8ff" stroke="#63b8ff" points="750.92,-137.98 742.55,-131.47 745.04,-141.77 750.92,-137.98"/>
</a>
</g>
</g>
<!-- Node17&#45;&gt;Node5 -->
<g id="edge25_Node000017_Node000005" class="edge">
<title>Node17&#45;&gt;Node5</title>
<g id="a_edge25_Node000017_Node000005"><a xlink:title=" ">
<path fill="none" stroke="#63b8ff" d="M398.17,-167.31C401.11,-166.77 404.02,-166.24 406.88,-165.75 500.44,-149.62 609.81,-135.77 675.91,-127.95"/>
<polygon fill="#63b8ff" stroke="#63b8ff" points="675.91,-131.47 685.43,-126.83 675.09,-124.52 675.91,-131.47"/>
</a>
</g>
</g>
<!-- Node17&#45;&gt;Node8 -->
<g id="edge27_Node000017_Node000008" class="edge">
<title>Node17&#45;&gt;Node8</title>
<g id="a_edge27_Node000017_Node000008"><a xlink:title=" ">
<path fill="none" stroke="#63b8ff" d="M340.79,-165.43C344.4,-141.37 353.63,-92.3 372.88,-55.25 378.01,-45.36 385.62,-35.69 392.61,-27.88"/>
<polygon fill="#63b8ff" stroke="#63b8ff" points="394.99,-30.46 399.3,-20.78 389.89,-25.66 394.99,-30.46"/>
</a>
</g>
</g>
<!-- Node17&#45;&gt;Node13 -->
<g id="edge26_Node000017_Node000013" class="edge">
<title>Node17&#45;&gt;Node13</title>
<g id="a_edge26_Node000017_Node000013"><a xlink:title=" ">
<path fill="none" stroke="#63b8ff" d="M355.68,-165.45C365.44,-157 377.76,-146.33 387.87,-137.58"/>
<polygon fill="#63b8ff" stroke="#63b8ff" points="389.98,-140.38 395.25,-131.19 385.4,-135.09 389.98,-140.38"/>
</a>
</g>
</g>
<!-- Node18&#45;&gt;Node5 -->
<g id="edge29_Node000018_Node000005" class="edge">
<title>Node18&#45;&gt;Node5</title>
<g id="a_edge29_Node000018_Node000005"><a xlink:title=" ">
<path fill="none" stroke="#63b8ff" d="M531.7,-167.01C577.31,-156.76 640.34,-142.59 684.26,-132.72"/>
<polygon fill="#63b8ff" stroke="#63b8ff" points="684.8,-136.19 693.79,-130.58 683.27,-129.36 684.8,-136.19"/>
</a>
</g>
</g>
<!-- Node18&#45;&gt;Node8 -->
<g id="edge31_Node000018_Node000008" class="edge">
<title>Node18&#45;&gt;Node8</title>
<g id="a_edge31_Node000018_Node000008"><a xlink:title=" ">
<path fill="none" stroke="#63b8ff" d="M471.74,-165.6C467.85,-141.79 458.35,-93.08 440.88,-55.25 436.53,-45.86 430.22,-36.32 424.43,-28.49"/>
<polygon fill="#63b8ff" stroke="#63b8ff" points="427.37,-26.57 418.47,-20.81 421.84,-30.86 427.37,-26.57"/>
</a>
</g>
</g>
<!-- Node18&#45;&gt;Node13 -->
<g id="edge30_Node000018_Node000013" class="edge">
<title>Node18&#45;&gt;Node13</title>
<g id="a_edge30_Node000018_Node000013"><a xlink:title=" ">
<path fill="none" stroke="#63b8ff" d="M457.31,-165.45C447.7,-157 435.56,-146.33 425.6,-137.58"/>
<polygon fill="#63b8ff" stroke="#63b8ff" points="428.16,-135.17 418.34,-131.2 423.54,-140.43 428.16,-135.17"/>
</a>
</g>
</g>
<!-- Node19&#45;&gt;Node5 -->
<g id="edge35_Node000019_Node000005" class="edge">
<title>Node19&#45;&gt;Node5</title>
<g id="a_edge35_Node000019_Node000005"><a xlink:title=" ">
<path fill="none" stroke="#63b8ff" d="M555.23,-236.92C591.76,-232 641.78,-220.97 678.88,-196.25 700.11,-182.1 716.62,-157.33 726.28,-140.12"/>
<polygon fill="#63b8ff" stroke="#63b8ff" points="729.3,-141.9 730.91,-131.43 723.12,-138.61 729.3,-141.9"/>
</a>
</g>
</g>
<!-- Node19&#45;&gt;Node8 -->
<g id="edge38_Node000019_Node000008" class="edge">
<title>Node19&#45;&gt;Node8</title>
<g id="a_edge38_Node000019_Node000008"><a xlink:title=" ">
<path fill="none" stroke="#63b8ff" d="M458.39,-233.37C455.51,-232.98 452.66,-232.6 449.88,-232.25 410.1,-227.25 117.77,-225.98 90.88,-196.25 -1.26,-94.41 284.49,-32.98 379.95,-15.68"/>
<polygon fill="#63b8ff" stroke="#63b8ff" points="380.38,-19.16 389.62,-13.97 379.16,-12.27 380.38,-19.16"/>
</a>
</g>
</g>
<!-- Node20 -->
<g id="Node000020" class="node">
<title>Node20</title>
<g id="a_Node000020"><a xlink:title=" ">
<polygon fill="#e0e0e0" stroke="#999999" points="148,-190.62 99.75,-190.62 99.75,-171.38 148,-171.38 148,-190.62"/>
<text text-anchor="middle" x="123.88" y="-177.12" font-family="Helvetica,sans-Serif" font-size="10.00">cstddef</text>
</a>
</g>
</g>
<!-- Node19&#45;&gt;Node20 -->
<g id="edge36_Node000019_Node000020" class="edge">
<title>Node19&#45;&gt;Node20</title>
<g id="a_edge36_Node000019_Node000020"><a xlink:title=" ">
<path fill="none" stroke="#63b8ff" d="M458.38,-233.44C455.5,-233.03 452.65,-232.63 449.88,-232.25 319.89,-214.43 283.5,-230.61 156.88,-196.25 155.52,-195.88 154.15,-195.47 152.77,-195.02"/>
<polygon fill="#63b8ff" stroke="#63b8ff" points="154.4,-191.89 143.8,-191.63 151.92,-198.44 154.4,-191.89"/>
</a>
</g>
</g>
<!-- Node19&#45;&gt;Node21 -->
<g id="edge37_Node000019_Node000021" class="edge">
<title>Node19&#45;&gt;Node21</title>
<g id="a_edge37_Node000019_Node000021"><a xlink:title=" ">
<path fill="none" stroke="#63b8ff" d="M458.39,-233.34C455.51,-232.96 452.66,-232.59 449.88,-232.25 276.2,-211.15 228.05,-236.86 57.88,-196.25 56.12,-195.83 54.33,-195.34 52.54,-194.8"/>
<polygon fill="#63b8ff" stroke="#63b8ff" points="53.75,-191.52 43.16,-191.53 51.45,-198.13 53.75,-191.52"/>
</a>
</g>
</g>
<!-- Node23 -->
<g id="Node000023" class="node">
<title>Node23</title>
<g id="a_Node000023"><a xlink:title=" ">
<polygon fill="#e0e0e0" stroke="#999999" points="1248.25,-190.62 1213.5,-190.62 1213.5,-171.38 1248.25,-171.38 1248.25,-190.62"/>
<text text-anchor="middle" x="1230.88" y="-177.12" font-family="Helvetica,sans-Serif" font-size="10.00">print</text>
</a>
</g>
</g>
<!-- Node22&#45;&gt;Node23 -->
<g id="edge40_Node000022_Node000023" class="edge">
<title>Node22&#45;&gt;Node23</title>
<g id="a_edge40_Node000022_Node000023"><a xlink:title=" ">
<path fill="none" stroke="#63b8ff" d="M1142.67,-231.93C1159.24,-222.55 1185.55,-207.66 1205.12,-196.58"/>
<polygon fill="#63b8ff" stroke="#63b8ff" points="1206.64,-199.74 1213.61,-191.77 1203.19,-193.65 1206.64,-199.74"/>
</a>
</g>
</g>
</g>
</svg>

<g id="navigator" transform="translate(0 0)" fill="#404254">
  <rect fill="#f2f5e9" fill-opacity="0.5" stroke="#606060" stroke-width=".5" x="0" y="0" width="60" height="60"/>
  <use id="zoomplus" xlink:href="#zoomPlus" x="17" y="9" onmousedown="handleZoom(evt,'in')"/>
  <use id="zoomminus" xlink:href="#zoomMin" x="42" y="9" onmousedown="handleZoom(evt,'out')"/>
  <use id="reset" xlink:href="#resetDef" x="30" y="36" onmousedown="handleReset()"/>
   <use id="arrowup" xlink:href="#arrowUp" x="0" y="0" onmousedown="handlePan(0,-1)"/>
  <use id="arrowright" xlink:href="#arrowRight" x="0" y="0" onmousedown="handlePan(1,0)"/>
  <use id="arrowdown" xlink:href="#arrowDown" x="0" y="0" onmousedown="handlePan(0,1)"/>
  <use id="arrowleft" xlink:href="#arrowLeft" x="0" y="0" onmousedown="handlePan(-1,0)"/>
</g>
<svg viewBox="0 0 15 15" width="100%" height="30px" preserveAspectRatio="xMaxYMin meet">
 <g id="arrow_out" transform="scale(0.3 0.3)">
  <a xlink:href="kalman__format__1x4x3_8cpp__incl_org.svg" target="_base">
   <rect id="button" ry="5" rx="5" y="6" x="6" height="38" width="38"
        fill="#f2f5e9" fill-opacity="0.5" stroke="#606060" stroke-width="1.0"/>
   <path id="arrow"
     d="M 11.500037,31.436501 C 11.940474,20.09759 22.043105,11.32322 32.158766,21.979434 L 37.068811,17.246167 C 37.068811,17.246167 37.088388,32 37.088388,32 L 22.160133,31.978069 C 22.160133,31.978069 26.997745,27.140456 26.997745,27.140456 C 18.528582,18.264221 13.291696,25.230495 11.500037,31.436501 z"
     style="fill:#404040;"/>
  </a>
 </g>
</svg>

<style type='text/css'>
<![CDATA[
[data-mouse-over-selected='false'] { opacity: 0.7; }
[data-mouse-over-selected='true']  { opacity: 1.0; }
]]>
</style>
<script type="application/ecmascript"><![CDATA[
document.addEventListener('DOMContentLoaded', (event) => {
  highlightEdges();
  highlightAdjacentNodes();
});
]]></script>
</svg>
