<?xml version="1.0" encoding="UTF-8" standalone="no"?>
<!DOCTYPE svg PUBLIC "-//W3C//DTD SVG 1.1//EN"
 "http://www.w3.org/Graphics/SVG/1.1/DTD/svg11.dtd">
<!-- Generated by graphviz version 12.2.0 (20241103.1931)
 -->
<!-- Title: /github/workspace/test/kalman_format_float_1x1x1.cpp Pages: 1 -->
<!--zoomable 326 -->

<svg id="main" version="1.1" xmlns="http://www.w3.org/2000/svg" xmlns:xlink="http://www.w3.org/1999/xlink" xml:space="preserve" onload="init(evt)">

<style type="text/css"><![CDATA[
.node, .edge {opacity: 0.7;}
.node.selected, .edge.selected {opacity: 1;}
.edge:hover path { stroke: red; }
.edge:hover polygon { stroke: red; fill: red; }
]]></style>

<defs>
  <circle id="rim" cx="0" cy="0" r="7"/>
  <circle id="rim2" cx="0" cy="0" r="3.5"/>
  <g id="zoomPlus">
    <use xlink:href="#rim" fill="#404040"><set attributeName="fill" to="#808080" begin="zoomplus.mouseover" end="zoomplus.mouseout"/></use>
    <path d="M-4,0h8M0,-4v8" fill="none" stroke="white" stroke-width="1.5" pointer-events="none"/>
  </g>
  <g id="zoomMin">
    <use xlink:href="#rim" fill="#404040"><set attributeName="fill" to="#808080" begin="zoomminus.mouseover" end="zoomminus.mouseout"/></use>
    <path d="M-4,0h8" fill="none" stroke="white" stroke-width="1.5" pointer-events="none"/>
  </g>
  <g id="arrowUp" transform="translate(30 24)">
    <use xlink:href="#rim"/>
    <path pointer-events="none" fill="none" stroke="white" stroke-width="1.5" d="M0,-3.0v7 M-2.5,-0.5L0,-3.0L2.5,-0.5"/>
  </g>
  <g id="arrowRight" transform="rotate(90) translate(36 -43)">
    <use xlink:href="#rim"/>
    <path pointer-events="none" fill="none" stroke="white" stroke-width="1.5" d="M0,-3.0v7 M-2.5,-0.5L0,-3.0L2.5,-0.5"/>
  </g>
  <g id="arrowDown" transform="rotate(180) translate(-30 -48)">
    <use xlink:href="#rim"/>
    <path pointer-events="none" fill="none" stroke="white" stroke-width="1.5" d="M0,-3.0v7 M-2.5,-0.5L0,-3.0L2.5,-0.5"/>
  </g>
  <g id="arrowLeft" transform="rotate(270) translate(-36 17)">
    <use xlink:href="#rim"/>
    <path pointer-events="none" fill="none" stroke="white" stroke-width="1.5" d="M0,-3.0v7 M-2.5,-0.5L0,-3.0L2.5,-0.5"/>
  </g>
  <g id="resetDef">
    <use xlink:href="#rim2" fill="#404040"><set attributeName="fill" to="#808080" begin="reset.mouseover" end="reset.mouseout"/></use>
  </g>
</defs>
<script type="application/ecmascript">
var viewWidth = 1681;
var viewHeight = 326;
var sectionId = 'dynsection-0';
</script>
<script type="application/ecmascript" xlink:href="svg.min.js"/>
<svg id="graph" class="graph">
<g id="viewport">
<title>/github/workspace/test/kalman_format_float_1x1x1.cpp</title>
<!-- Node1 -->
<g id="Node000001" class="node">
<title>Node1</title>
<g id="a_Node000001"><a xlink:title=" ">
<polygon fill="#999999" stroke="#666666" points="901.25,-318 746.5,-318 746.5,-287.5 901.25,-287.5 901.25,-318"/>
<text text-anchor="start" x="754.5" y="-304.5" font-family="Helvetica,sans-Serif" font-size="10.00">/github/workspace/test</text>
<text text-anchor="middle" x="823.88" y="-293.25" font-family="Helvetica,sans-Serif" font-size="10.00">/kalman_format_float_1x1x1.cpp</text>
</a>
</g>
</g>
<!-- Node2 -->
<g id="Node000002" class="node">
<title>Node2</title>
<g id="a_Node000002"><a xlink:href="kalman_8hpp.xhtml" target="_top" xlink:title="The Kalman filter class and library top&#45;level header.">
<polygon fill="white" stroke="#666666" points="876.88,-251.5 770.88,-251.5 770.88,-232.25 876.88,-232.25 876.88,-251.5"/>
<text text-anchor="middle" x="823.88" y="-238" font-family="Helvetica,sans-Serif" font-size="10.00">fcarouge/kalman.hpp</text>
</a>
</g>
</g>
<!-- Node1&#45;&gt;Node2 -->
<g id="edge1_Node000001_Node000002" class="edge">
<title>Node1&#45;&gt;Node2</title>
<g id="a_edge1_Node000001_Node000002"><a xlink:title=" ">
<path fill="none" stroke="#63b8ff" d="M823.88,-287.2C823.88,-279.96 823.88,-271.09 823.88,-263.19"/>
<polygon fill="#63b8ff" stroke="#63b8ff" points="827.38,-263.46 823.88,-253.46 820.38,-263.46 827.38,-263.46"/>
</a>
</g>
</g>
<!-- Node26 -->
<g id="Node000026" class="node">
<title>Node26</title>
<g id="a_Node000026"><a xlink:title=" ">
<polygon fill="#e0e0e0" stroke="#999999" points="43.75,-74.5 0,-74.5 0,-55.25 43.75,-55.25 43.75,-74.5"/>
<text text-anchor="middle" x="21.88" y="-61" font-family="Helvetica,sans-Serif" font-size="10.00">format</text>
</a>
</g>
</g>
<!-- Node1&#45;&gt;Node26 -->
<g id="edge61_Node000001_Node000026" class="edge">
<title>Node1&#45;&gt;Node26</title>
<g id="a_edge61_Node000001_Node000026"><a xlink:title=" ">
<path fill="none" stroke="#63b8ff" d="M746.01,-298.31C562.16,-288.4 109.67,-252.91 17.88,-141 5.34,-125.72 9.02,-102.27 14.12,-85.63"/>
<polygon fill="#63b8ff" stroke="#63b8ff" points="17.37,-86.96 17.38,-76.37 10.76,-84.64 17.37,-86.96"/>
</a>
</g>
</g>
<!-- Node30 -->
<g id="Node000030" class="node">
<title>Node30</title>
<g id="a_Node000030"><a xlink:title=" ">
<polygon fill="#e0e0e0" stroke="#999999" points="943,-251.5 894.75,-251.5 894.75,-232.25 943,-232.25 943,-251.5"/>
<text text-anchor="middle" x="918.88" y="-238" font-family="Helvetica,sans-Serif" font-size="10.00">cassert</text>
</a>
</g>
</g>
<!-- Node1&#45;&gt;Node30 -->
<g id="edge60_Node000001_Node000030" class="edge">
<title>Node1&#45;&gt;Node30</title>
<g id="a_edge60_Node000001_Node000030"><a xlink:title=" ">
<path fill="none" stroke="#63b8ff" d="M847.36,-287.2C861.68,-278.32 879.96,-266.99 894.46,-258.01"/>
<polygon fill="#63b8ff" stroke="#63b8ff" points="896.29,-260.99 902.94,-252.75 892.6,-255.04 896.29,-260.99"/>
</a>
</g>
</g>
<!-- Node3 -->
<g id="Node000003" class="node">
<title>Node3</title>
<g id="a_Node000003"><a xlink:href="kalman__forward_8hpp.xhtml" target="_top" xlink:title="Authoritative forward declaration header.">
<polygon fill="white" stroke="#666666" points="875.38,-196.25 772.38,-196.25 772.38,-177 875.38,-177 875.38,-196.25"/>
<text text-anchor="middle" x="823.88" y="-182.75" font-family="Helvetica,sans-Serif" font-size="10.00">kalman_forward.hpp</text>
</a>
</g>
</g>
<!-- Node2&#45;&gt;Node3 -->
<g id="edge2_Node000002_Node000003" class="edge">
<title>Node2&#45;&gt;Node3</title>
<g id="a_edge2_Node000002_Node000003"><a xlink:title=" ">
<path fill="none" stroke="#63b8ff" d="M823.88,-232.08C823.88,-225.57 823.88,-216.42 823.88,-208.12"/>
<polygon fill="#63b8ff" stroke="#63b8ff" points="827.38,-208.12 823.88,-198.12 820.38,-208.12 827.38,-208.12"/>
</a>
</g>
</g>
<!-- Node4 -->
<g id="Node000004" class="node">
<title>Node4</title>
<g id="a_Node000004"><a xlink:href="factory_8hpp.xhtml" target="_top" xlink:title=" ">
<polygon fill="white" stroke="#666666" points="1028.12,-196.25 893.62,-196.25 893.62,-177 1028.12,-177 1028.12,-196.25"/>
<text text-anchor="middle" x="960.88" y="-182.75" font-family="Helvetica,sans-Serif" font-size="10.00">kalman_internal/factory.hpp</text>
</a>
</g>
</g>
<!-- Node2&#45;&gt;Node4 -->
<g id="edge3_Node000002_Node000004" class="edge">
<title>Node2&#45;&gt;Node4</title>
<g id="a_edge3_Node000002_Node000004"><a xlink:title=" ">
<path fill="none" stroke="#63b8ff" d="M847.12,-231.84C869.06,-223.31 902.22,-210.42 927.09,-200.76"/>
<polygon fill="#63b8ff" stroke="#63b8ff" points="928.06,-204.14 936.11,-197.25 925.52,-197.61 928.06,-204.14"/>
</a>
</g>
</g>
<!-- Node6 -->
<g id="Node000006" class="node">
<title>Node6</title>
<g id="a_Node000006"><a xlink:href="utility_8hpp.xhtml" target="_top" xlink:title=" ">
<polygon fill="white" stroke="#666666" points="1039.12,-74.5 982.62,-74.5 982.62,-55.25 1039.12,-55.25 1039.12,-74.5"/>
<text text-anchor="middle" x="1010.88" y="-61" font-family="Helvetica,sans-Serif" font-size="10.00">utility.hpp</text>
</a>
</g>
</g>
<!-- Node2&#45;&gt;Node6 -->
<g id="edge58_Node000002_Node000006" class="edge">
<title>Node2&#45;&gt;Node6</title>
<g id="a_edge58_Node000002_Node000006"><a xlink:title=" ">
<path fill="none" stroke="#63b8ff" d="M876.97,-232.77C1008.6,-212.43 1340.5,-159.53 1355.88,-141 1364.53,-130.57 1364.82,-120.68 1355.88,-110.5 1335.98,-87.86 1137.36,-73.4 1050.82,-68.12"/>
<polygon fill="#63b8ff" stroke="#63b8ff" points="1051.09,-64.63 1040.9,-67.53 1050.67,-71.62 1051.09,-64.63"/>
</a>
</g>
</g>
<!-- Node25 -->
<g id="Node000025" class="node">
<title>Node25</title>
<g id="a_Node000025"><a xlink:href="format_8hpp.xhtml" target="_top" xlink:title="Formatting support for the Kalman filter.">
<polygon fill="white" stroke="#666666" points="160.38,-135.38 27.38,-135.38 27.38,-116.12 160.38,-116.12 160.38,-135.38"/>
<text text-anchor="middle" x="93.88" y="-121.88" font-family="Helvetica,sans-Serif" font-size="10.00">kalman_internal/format.hpp</text>
</a>
</g>
</g>
<!-- Node2&#45;&gt;Node25 -->
<g id="edge49_Node000002_Node000025" class="edge">
<title>Node2&#45;&gt;Node25</title>
<g id="a_edge49_Node000002_Node000025"><a xlink:title=" ">
<path fill="none" stroke="#63b8ff" d="M770.39,-233.04C659.32,-216.68 395.62,-177.4 174.88,-141 168.56,-139.96 161.97,-138.84 155.39,-137.72"/>
<polygon fill="#63b8ff" stroke="#63b8ff" points="156.34,-134.33 145.89,-136.07 155.15,-141.22 156.34,-134.33"/>
</a>
</g>
</g>
<!-- Node27 -->
<g id="Node000027" class="node">
<title>Node27</title>
<g id="a_Node000027"><a xlink:href="print_8hpp.xhtml" target="_top" xlink:title=" ">
<polygon fill="white" stroke="#666666" points="1672.88,-135.38 1548.88,-135.38 1548.88,-116.12 1672.88,-116.12 1672.88,-135.38"/>
<text text-anchor="middle" x="1610.88" y="-121.88" font-family="Helvetica,sans-Serif" font-size="10.00">kalman_internal/print.hpp</text>
</a>
</g>
</g>
<!-- Node2&#45;&gt;Node27 -->
<g id="edge54_Node000002_Node000027" class="edge">
<title>Node2&#45;&gt;Node27</title>
<g id="a_edge54_Node000002_Node000027"><a xlink:title=" ">
<path fill="none" stroke="#63b8ff" d="M877.28,-233.21C880.19,-232.87 883.06,-232.55 885.88,-232.25 1108.77,-208.8 1168.67,-238.01 1388.88,-196.25 1457.35,-183.26 1534.39,-156.2 1577.33,-139.94"/>
<polygon fill="#63b8ff" stroke="#63b8ff" points="1578.49,-143.25 1586.58,-136.4 1575.99,-136.71 1578.49,-143.25"/>
</a>
</g>
</g>
<!-- Node29 -->
<g id="Node000029" class="node">
<title>Node29</title>
<g id="a_Node000029"><a xlink:title=" ">
<polygon fill="#e0e0e0" stroke="#999999" points="754.12,-196.25 619.62,-196.25 619.62,-177 754.12,-177 754.12,-196.25"/>
<text text-anchor="middle" x="686.88" y="-182.75" font-family="Helvetica,sans-Serif" font-size="10.00">kalman_internal/kalman.tpp</text>
</a>
</g>
</g>
<!-- Node2&#45;&gt;Node29 -->
<g id="edge59_Node000002_Node000029" class="edge">
<title>Node2&#45;&gt;Node29</title>
<g id="a_edge59_Node000002_Node000029"><a xlink:title=" ">
<path fill="none" stroke="#63b8ff" d="M800.63,-231.84C778.69,-223.31 745.53,-210.42 720.66,-200.76"/>
<polygon fill="#63b8ff" stroke="#63b8ff" points="722.23,-197.61 711.64,-197.25 719.69,-204.14 722.23,-197.61"/>
</a>
</g>
</g>
<!-- Node5 -->
<g id="Node000005" class="node">
<title>Node5</title>
<g id="a_Node000005"><a xlink:href="type_8hpp.xhtml" target="_top" xlink:title=" ">
<polygon fill="white" stroke="#666666" points="1454.88,-135.38 1402.88,-135.38 1402.88,-116.12 1454.88,-116.12 1454.88,-135.38"/>
<text text-anchor="middle" x="1428.88" y="-121.88" font-family="Helvetica,sans-Serif" font-size="10.00">type.hpp</text>
</a>
</g>
</g>
<!-- Node4&#45;&gt;Node5 -->
<g id="edge4_Node000004_Node000005" class="edge">
<title>Node4&#45;&gt;Node5</title>
<g id="a_edge4_Node000004_Node000005"><a xlink:title=" ">
<path fill="none" stroke="#63b8ff" d="M1028.54,-179.65C1107.38,-172.3 1241.45,-158.6 1355.88,-141 1367.55,-139.2 1380.21,-136.87 1391.65,-134.61"/>
<polygon fill="#63b8ff" stroke="#63b8ff" points="1392.01,-138.11 1401.13,-132.71 1390.63,-131.25 1392.01,-138.11"/>
</a>
</g>
</g>
<!-- Node7 -->
<g id="Node000007" class="node">
<title>Node7</title>
<g id="a_Node000007"><a xlink:title=" ">
<polygon fill="#e0e0e0" stroke="#999999" points="1530.75,-19.25 1475,-19.25 1475,0 1530.75,0 1530.75,-19.25"/>
<text text-anchor="middle" x="1502.88" y="-5.75" font-family="Helvetica,sans-Serif" font-size="10.00">concepts</text>
</a>
</g>
</g>
<!-- Node4&#45;&gt;Node7 -->
<g id="edge46_Node000004_Node000007" class="edge">
<title>Node4&#45;&gt;Node7</title>
<g id="a_edge46_Node000004_Node000007"><a xlink:title=" ">
<path fill="none" stroke="#63b8ff" d="M1028.5,-184.46C1162.44,-181.5 1451.39,-171.6 1483.88,-141 1513.9,-112.72 1511.05,-59.59 1506.75,-30.66"/>
<polygon fill="#63b8ff" stroke="#63b8ff" points="1510.24,-30.31 1505.1,-21.05 1503.34,-31.5 1510.24,-30.31"/>
</a>
</g>
</g>
<!-- Node9 -->
<g id="Node000009" class="node">
<title>Node9</title>
<g id="a_Node000009"><a xlink:title=" ">
<polygon fill="#e0e0e0" stroke="#999999" points="525.38,-19.25 488.38,-19.25 488.38,0 525.38,0 525.38,-19.25"/>
<text text-anchor="middle" x="506.88" y="-5.75" font-family="Helvetica,sans-Serif" font-size="10.00">tuple</text>
</a>
</g>
</g>
<!-- Node4&#45;&gt;Node9 -->
<g id="edge47_Node000004_Node000009" class="edge">
<title>Node4&#45;&gt;Node9</title>
<g id="a_edge47_Node000004_Node000009"><a xlink:title=" ">
<path fill="none" stroke="#63b8ff" d="M893.35,-177.75C890.49,-177.48 887.65,-177.23 884.88,-177 847.34,-173.88 233.79,-168.33 207.88,-141 125.09,-53.69 385.66,-21.5 476.69,-13.08"/>
<polygon fill="#63b8ff" stroke="#63b8ff" points="476.72,-16.59 486.37,-12.22 476.1,-9.62 476.72,-16.59"/>
</a>
</g>
</g>
<!-- Node10 -->
<g id="Node000010" class="node">
<title>Node10</title>
<g id="a_Node000010"><a xlink:title=" ">
<polygon fill="#e0e0e0" stroke="#999999" points="1457.38,-19.25 1396.38,-19.25 1396.38,0 1457.38,0 1457.38,-19.25"/>
<text text-anchor="middle" x="1426.88" y="-5.75" font-family="Helvetica,sans-Serif" font-size="10.00">type_traits</text>
</a>
</g>
</g>
<!-- Node4&#45;&gt;Node10 -->
<g id="edge48_Node000004_Node000010" class="edge">
<title>Node4&#45;&gt;Node10</title>
<g id="a_edge48_Node000004_Node000010"><a xlink:title=" ">
<path fill="none" stroke="#63b8ff" d="M1028.53,-184.59C1158.98,-181.89 1435.06,-172.49 1463.88,-141 1493.02,-109.16 1461.39,-55.99 1441.12,-28.42"/>
<polygon fill="#63b8ff" stroke="#63b8ff" points="1444.08,-26.53 1435.22,-20.71 1438.52,-30.78 1444.08,-26.53"/>
</a>
</g>
</g>
<!-- Node13 -->
<g id="Node000013" class="node">
<title>Node13</title>
<g id="a_Node000013"><a xlink:href="x__z__p__q__r_8hpp.xhtml" target="_top" xlink:title=" ">
<polygon fill="white" stroke="#666666" points="1232.62,-135.38 1155.12,-135.38 1155.12,-116.12 1232.62,-116.12 1232.62,-135.38"/>
<text text-anchor="middle" x="1193.88" y="-121.88" font-family="Helvetica,sans-Serif" font-size="10.00">x_z_p_q_r.hpp</text>
</a>
</g>
</g>
<!-- Node4&#45;&gt;Node13 -->
<g id="edge13_Node000004_Node000013" class="edge">
<title>Node4&#45;&gt;Node13</title>
<g id="a_edge13_Node000004_Node000013"><a xlink:title=" ">
<path fill="none" stroke="#63b8ff" d="M1001.69,-176.56C1039.49,-167.99 1097.2,-154.48 1146.88,-141 1149.16,-140.38 1151.5,-139.73 1153.85,-139.06"/>
<polygon fill="#63b8ff" stroke="#63b8ff" points="1154.8,-142.43 1163.42,-136.26 1152.84,-135.71 1154.8,-142.43"/>
</a>
</g>
</g>
<!-- Node14 -->
<g id="Node000014" class="node">
<title>Node14</title>
<g id="a_Node000014"><a xlink:href="x__z__p__q__r__h__f_8hpp.xhtml" target="_top" xlink:title=" ">
<polygon fill="white" stroke="#666666" points="1347,-135.38 1250.75,-135.38 1250.75,-116.12 1347,-116.12 1347,-135.38"/>
<text text-anchor="middle" x="1298.88" y="-121.88" font-family="Helvetica,sans-Serif" font-size="10.00">x_z_p_q_r_h_f.hpp</text>
</a>
</g>
</g>
<!-- Node4&#45;&gt;Node14 -->
<g id="edge15_Node000004_Node000014" class="edge">
<title>Node4&#45;&gt;Node14</title>
<g id="a_edge15_Node000004_Node000014"><a xlink:title=" ">
<path fill="none" stroke="#63b8ff" d="M1028.45,-176.59C1085.56,-168.54 1169.4,-155.79 1241.88,-141 1245.69,-140.22 1249.63,-139.36 1253.58,-138.45"/>
<polygon fill="#63b8ff" stroke="#63b8ff" points="1254.23,-141.9 1263.15,-136.18 1252.61,-135.09 1254.23,-141.9"/>
</a>
</g>
</g>
<!-- Node15 -->
<g id="Node000015" class="node">
<title>Node15</title>
<g id="a_Node000015"><a xlink:href="x__z__p__q__r__hh__f__us__ps_8hpp.xhtml" target="_top" xlink:title=" ">
<polygon fill="white" stroke="#666666" points="846.38,-135.38 713.38,-135.38 713.38,-116.12 846.38,-116.12 846.38,-135.38"/>
<text text-anchor="middle" x="779.88" y="-121.88" font-family="Helvetica,sans-Serif" font-size="10.00">x_z_p_q_r_hh_f_us_ps.hpp</text>
</a>
</g>
</g>
<!-- Node4&#45;&gt;Node15 -->
<g id="edge17_Node000004_Node000015" class="edge">
<title>Node4&#45;&gt;Node15</title>
<g id="a_edge17_Node000004_Node000015"><a xlink:title=" ">
<path fill="none" stroke="#63b8ff" d="M932.99,-176.55C902.3,-166.57 852.76,-150.46 818.38,-139.27"/>
<polygon fill="#63b8ff" stroke="#63b8ff" points="819.82,-136.06 809.23,-136.3 817.66,-142.72 819.82,-136.06"/>
</a>
</g>
</g>
<!-- Node18 -->
<g id="Node000018" class="node">
<title>Node18</title>
<g id="a_Node000018"><a xlink:href="x__z__p__q__r__hh__ff__ps_8hpp.xhtml" target="_top" xlink:title=" ">
<polygon fill="white" stroke="#666666" points="695.62,-135.38 576.12,-135.38 576.12,-116.12 695.62,-116.12 695.62,-135.38"/>
<text text-anchor="middle" x="635.88" y="-121.88" font-family="Helvetica,sans-Serif" font-size="10.00">x_z_p_q_r_hh_ff_ps.hpp</text>
</a>
</g>
</g>
<!-- Node4&#45;&gt;Node18 -->
<g id="edge22_Node000004_Node000018" class="edge">
<title>Node4&#45;&gt;Node18</title>
<g id="a_edge22_Node000004_Node000018"><a xlink:title=" ">
<path fill="none" stroke="#63b8ff" d="M905.6,-176.5C853.69,-167.81 773.9,-154.14 704.88,-141 700.01,-140.07 694.96,-139.09 689.91,-138.08"/>
<polygon fill="#63b8ff" stroke="#63b8ff" points="690.88,-134.7 680.38,-136.15 689.49,-141.56 690.88,-134.7"/>
</a>
</g>
</g>
<!-- Node19 -->
<g id="Node000019" class="node">
<title>Node19</title>
<g id="a_Node000019"><a xlink:href="x__z__p__qq__rr__f_8hpp.xhtml" target="_top" xlink:title=" ">
<polygon fill="white" stroke="#666666" points="958.88,-135.38 864.88,-135.38 864.88,-116.12 958.88,-116.12 958.88,-135.38"/>
<text text-anchor="middle" x="911.88" y="-121.88" font-family="Helvetica,sans-Serif" font-size="10.00">x_z_p_qq_rr_f.hpp</text>
</a>
</g>
</g>
<!-- Node4&#45;&gt;Node19 -->
<g id="edge26_Node000004_Node000019" class="edge">
<title>Node4&#45;&gt;Node19</title>
<g id="a_edge26_Node000004_Node000019"><a xlink:title=" ">
<path fill="none" stroke="#63b8ff" d="M953.43,-176.68C946.31,-168.12 935.37,-154.98 926.5,-144.32"/>
<polygon fill="#63b8ff" stroke="#63b8ff" points="929.44,-142.39 920.36,-136.94 924.06,-146.86 929.44,-142.39"/>
</a>
</g>
</g>
<!-- Node20 -->
<g id="Node000020" class="node">
<title>Node20</title>
<g id="a_Node000020"><a xlink:href="x__z__p__r_8hpp.xhtml" target="_top" xlink:title=" ">
<polygon fill="white" stroke="#666666" points="1044.38,-135.38 977.38,-135.38 977.38,-116.12 1044.38,-116.12 1044.38,-135.38"/>
<text text-anchor="middle" x="1010.88" y="-121.88" font-family="Helvetica,sans-Serif" font-size="10.00">x_z_p_r.hpp</text>
</a>
</g>
</g>
<!-- Node4&#45;&gt;Node20 -->
<g id="edge30_Node000004_Node000020" class="edge">
<title>Node4&#45;&gt;Node20</title>
<g id="a_edge30_Node000004_Node000020"><a xlink:title=" ">
<path fill="none" stroke="#63b8ff" d="M968.47,-176.68C975.74,-168.12 986.9,-154.98 995.95,-144.32"/>
<polygon fill="#63b8ff" stroke="#63b8ff" points="998.42,-146.82 1002.23,-136.93 993.09,-142.29 998.42,-146.82"/>
</a>
</g>
</g>
<!-- Node21 -->
<g id="Node000021" class="node">
<title>Node21</title>
<g id="a_Node000021"><a xlink:href="x__z__p__r__f_8hpp.xhtml" target="_top" xlink:title=" ">
<polygon fill="white" stroke="#666666" points="1137.5,-135.38 1062.25,-135.38 1062.25,-116.12 1137.5,-116.12 1137.5,-135.38"/>
<text text-anchor="middle" x="1099.88" y="-121.88" font-family="Helvetica,sans-Serif" font-size="10.00">x_z_p_r_f.hpp</text>
</a>
</g>
</g>
<!-- Node4&#45;&gt;Node21 -->
<g id="edge32_Node000004_Node000021" class="edge">
<title>Node4&#45;&gt;Node21</title>
<g id="a_edge32_Node000004_Node000021"><a xlink:title=" ">
<path fill="none" stroke="#63b8ff" d="M982.29,-176.55C1005.21,-166.85 1041.82,-151.34 1068.1,-140.21"/>
<polygon fill="#63b8ff" stroke="#63b8ff" points="1069.43,-143.45 1077.27,-136.32 1066.7,-137 1069.43,-143.45"/>
</a>
</g>
</g>
<!-- Node22 -->
<g id="Node000022" class="node">
<title>Node22</title>
<g id="a_Node000022"><a xlink:href="x__z__u__p__q__r_8hpp.xhtml" target="_top" xlink:title=" ">
<polygon fill="white" stroke="#666666" points="304.88,-135.38 216.88,-135.38 216.88,-116.12 304.88,-116.12 304.88,-135.38"/>
<text text-anchor="middle" x="260.88" y="-121.88" font-family="Helvetica,sans-Serif" font-size="10.00">x_z_u_p_q_r.hpp</text>
</a>
</g>
</g>
<!-- Node4&#45;&gt;Node22 -->
<g id="edge34_Node000004_Node000022" class="edge">
<title>Node4&#45;&gt;Node22</title>
<g id="a_edge34_Node000004_Node000022"><a xlink:title=" ">
<path fill="none" stroke="#63b8ff" d="M893.35,-177.78C890.49,-177.51 887.65,-177.25 884.88,-177 631.58,-154.66 564.79,-182.22 313.88,-141 309.83,-140.34 305.65,-139.49 301.49,-138.55"/>
<polygon fill="#63b8ff" stroke="#63b8ff" points="302.66,-135.23 292.11,-136.23 300.98,-142.03 302.66,-135.23"/>
</a>
</g>
</g>
<!-- Node23 -->
<g id="Node000023" class="node">
<title>Node23</title>
<g id="a_Node000023"><a xlink:href="x__z__u__p__q__r__h__f__g__us__ps_8hpp.xhtml" target="_top" xlink:title=" ">
<polygon fill="white" stroke="#666666" points="438.38,-141 323.38,-141 323.38,-110.5 438.38,-110.5 438.38,-141"/>
<text text-anchor="start" x="331.38" y="-127.5" font-family="Helvetica,sans-Serif" font-size="10.00">x_z_u_p_q_r_h_f_g_us</text>
<text text-anchor="middle" x="380.88" y="-116.25" font-family="Helvetica,sans-Serif" font-size="10.00">_ps.hpp</text>
</a>
</g>
</g>
<!-- Node4&#45;&gt;Node23 -->
<g id="edge38_Node000004_Node000023" class="edge">
<title>Node4&#45;&gt;Node23</title>
<g id="a_edge38_Node000004_Node000023"><a xlink:title=" ">
<path fill="none" stroke="#63b8ff" d="M893.34,-177.85C890.48,-177.56 887.65,-177.27 884.88,-177 694.18,-158.35 642.05,-169.24 450.08,-141.36"/>
<polygon fill="#63b8ff" stroke="#63b8ff" points="450.65,-137.9 440.24,-139.91 449.63,-144.83 450.65,-137.9"/>
</a>
</g>
</g>
<!-- Node24 -->
<g id="Node000024" class="node">
<title>Node24</title>
<g id="a_Node000024"><a xlink:href="x__z__u__p__qq__r__ff__gg__ps_8hpp.xhtml" target="_top" xlink:title=" ">
<polygon fill="white" stroke="#666666" points="557.62,-141 456.12,-141 456.12,-110.5 557.62,-110.5 557.62,-141"/>
<text text-anchor="start" x="464.12" y="-127.5" font-family="Helvetica,sans-Serif" font-size="10.00">x_z_u_p_qq_r_ff_gg</text>
<text text-anchor="middle" x="506.88" y="-116.25" font-family="Helvetica,sans-Serif" font-size="10.00">_ps.hpp</text>
</a>
</g>
</g>
<!-- Node4&#45;&gt;Node24 -->
<g id="edge42_Node000004_Node000024" class="edge">
<title>Node4&#45;&gt;Node24</title>
<g id="a_edge42_Node000004_Node000024"><a xlink:title=" ">
<path fill="none" stroke="#63b8ff" d="M893.33,-177.96C890.47,-177.63 887.65,-177.31 884.88,-177 747.13,-161.39 708.91,-165.26 569,-141.23"/>
<polygon fill="#63b8ff" stroke="#63b8ff" points="569.79,-137.82 559.34,-139.56 568.6,-144.72 569.79,-137.82"/>
</a>
</g>
</g>
<!-- Node5&#45;&gt;Node6 -->
<g id="edge5_Node000005_Node000006" class="edge">
<title>Node5&#45;&gt;Node6</title>
<g id="a_edge5_Node000005_Node000006"><a xlink:title=" ">
<path fill="none" stroke="#63b8ff" d="M1406.29,-115.71C1400.68,-113.74 1394.62,-111.84 1388.88,-110.5 1267.53,-82.1 1119.83,-71.33 1050.46,-67.62"/>
<polygon fill="#63b8ff" stroke="#63b8ff" points="1050.9,-64.14 1040.74,-67.12 1050.55,-71.13 1050.9,-64.14"/>
</a>
</g>
</g>
<!-- Node5&#45;&gt;Node10 -->
<g id="edge12_Node000005_Node000010" class="edge">
<title>Node5&#45;&gt;Node10</title>
<g id="a_edge12_Node000005_Node000010"><a xlink:title=" ">
<path fill="none" stroke="#63b8ff" d="M1428.72,-115.79C1428.4,-97.63 1427.67,-56.04 1427.23,-30.95"/>
<polygon fill="#63b8ff" stroke="#63b8ff" points="1430.73,-30.99 1427.06,-21.05 1423.73,-31.11 1430.73,-30.99"/>
</a>
</g>
</g>
<!-- Node12 -->
<g id="Node000012" class="node">
<title>Node12</title>
<g id="a_Node000012"><a xlink:title=" ">
<polygon fill="#e0e0e0" stroke="#999999" points="1400.62,-74.5 1329.12,-74.5 1329.12,-55.25 1400.62,-55.25 1400.62,-74.5"/>
<text text-anchor="middle" x="1364.88" y="-61" font-family="Helvetica,sans-Serif" font-size="10.00">initializer_list</text>
</a>
</g>
</g>
<!-- Node5&#45;&gt;Node12 -->
<g id="edge11_Node000005_Node000012" class="edge">
<title>Node5&#45;&gt;Node12</title>
<g id="a_edge11_Node000005_Node000012"><a xlink:title=" ">
<path fill="none" stroke="#63b8ff" d="M1419.15,-115.81C1409.57,-106.99 1394.69,-93.3 1382.93,-82.48"/>
<polygon fill="#63b8ff" stroke="#63b8ff" points="1385.53,-80.12 1375.8,-75.93 1380.79,-85.27 1385.53,-80.12"/>
</a>
</g>
</g>
<!-- Node6&#45;&gt;Node7 -->
<g id="edge6_Node000006_Node000007" class="edge">
<title>Node6&#45;&gt;Node7</title>
<g id="a_edge6_Node000006_Node000007"><a xlink:title=" ">
<path fill="none" stroke="#63b8ff" d="M1039.6,-62.44C1110.27,-58.62 1298.33,-46.68 1463.79,-19.58"/>
<polygon fill="#63b8ff" stroke="#63b8ff" points="1463.87,-23.12 1473.16,-18.02 1462.72,-16.21 1463.87,-23.12"/>
</a>
</g>
</g>
<!-- Node8 -->
<g id="Node000008" class="node">
<title>Node8</title>
<g id="a_Node000008"><a xlink:title=" ">
<polygon fill="#e0e0e0" stroke="#999999" points="299,-19.25 250.75,-19.25 250.75,0 299,0 299,-19.25"/>
<text text-anchor="middle" x="274.88" y="-5.75" font-family="Helvetica,sans-Serif" font-size="10.00">cstddef</text>
</a>
</g>
</g>
<!-- Node6&#45;&gt;Node8 -->
<g id="edge7_Node000006_Node000008" class="edge">
<title>Node6&#45;&gt;Node8</title>
<g id="a_edge7_Node000006_Node000008"><a xlink:title=" ">
<path fill="none" stroke="#63b8ff" d="M982.47,-61.82C867.69,-53.52 438.16,-22.44 310.73,-13.22"/>
<polygon fill="#63b8ff" stroke="#63b8ff" points="311.1,-9.74 300.87,-12.51 310.59,-16.72 311.1,-9.74"/>
</a>
</g>
</g>
<!-- Node6&#45;&gt;Node9 -->
<g id="edge8_Node000006_Node000009" class="edge">
<title>Node6&#45;&gt;Node9</title>
<g id="a_edge8_Node000006_Node000009"><a xlink:title=" ">
<path fill="none" stroke="#63b8ff" d="M982.26,-61.88C896.64,-55.82 642.56,-37.02 537.02,-18.7"/>
<polygon fill="#63b8ff" stroke="#63b8ff" points="537.75,-15.27 527.28,-16.91 536.48,-22.16 537.75,-15.27"/>
</a>
</g>
</g>
<!-- Node6&#45;&gt;Node10 -->
<g id="edge9_Node000006_Node000010" class="edge">
<title>Node6&#45;&gt;Node10</title>
<g id="a_edge9_Node000006_Node000010"><a xlink:title=" ">
<path fill="none" stroke="#63b8ff" d="M1039.47,-60.21C1111.44,-51 1300.35,-26.82 1384.9,-16"/>
<polygon fill="#63b8ff" stroke="#63b8ff" points="1385.14,-19.5 1394.62,-14.75 1384.26,-12.55 1385.14,-19.5"/>
</a>
</g>
</g>
<!-- Node11 -->
<g id="Node000011" class="node">
<title>Node11</title>
<g id="a_Node000011"><a xlink:title=" ">
<polygon fill="#e0e0e0" stroke="#999999" points="1587.12,-19.25 1548.62,-19.25 1548.62,0 1587.12,0 1587.12,-19.25"/>
<text text-anchor="middle" x="1567.88" y="-5.75" font-family="Helvetica,sans-Serif" font-size="10.00">utility</text>
</a>
</g>
</g>
<!-- Node6&#45;&gt;Node11 -->
<g id="edge10_Node000006_Node000011" class="edge">
<title>Node6&#45;&gt;Node11</title>
<g id="a_edge10_Node000006_Node000011"><a xlink:title=" ">
<path fill="none" stroke="#63b8ff" d="M1039.56,-63.61C1118,-62.43 1342.67,-56.03 1537.14,-19.37"/>
<polygon fill="#63b8ff" stroke="#63b8ff" points="1537.78,-22.81 1546.94,-17.49 1536.46,-15.94 1537.78,-22.81"/>
</a>
</g>
</g>
<!-- Node13&#45;&gt;Node6 -->
<g id="edge14_Node000013_Node000006" class="edge">
<title>Node13&#45;&gt;Node6</title>
<g id="a_edge14_Node000013_Node000006"><a xlink:title=" ">
<path fill="none" stroke="#63b8ff" d="M1165.68,-115.68C1134.65,-105.7 1084.57,-89.58 1049.8,-78.4"/>
<polygon fill="#63b8ff" stroke="#63b8ff" points="1051.13,-75.15 1040.54,-75.42 1048.99,-81.81 1051.13,-75.15"/>
</a>
</g>
</g>
<!-- Node14&#45;&gt;Node6 -->
<g id="edge16_Node000014_Node000006" class="edge">
<title>Node14&#45;&gt;Node6</title>
<g id="a_edge16_Node000014_Node000006"><a xlink:title=" ">
<path fill="none" stroke="#63b8ff" d="M1263.67,-115.63C1256.48,-113.86 1248.95,-112.07 1241.88,-110.5 1175.11,-95.72 1096.87,-81.18 1050.72,-72.9"/>
<polygon fill="#63b8ff" stroke="#63b8ff" points="1051.38,-69.46 1040.92,-71.14 1050.15,-76.35 1051.38,-69.46"/>
</a>
</g>
</g>
<!-- Node15&#45;&gt;Node6 -->
<g id="edge20_Node000015_Node000006" class="edge">
<title>Node15&#45;&gt;Node6</title>
<g id="a_edge20_Node000015_Node000006"><a xlink:title=" ">
<path fill="none" stroke="#63b8ff" d="M815.46,-115.68C857.52,-104.96 927.3,-87.18 971.1,-76.01"/>
<polygon fill="#63b8ff" stroke="#63b8ff" points="971.89,-79.42 980.72,-73.56 970.16,-72.64 971.89,-79.42"/>
</a>
</g>
</g>
<!-- Node15&#45;&gt;Node9 -->
<g id="edge21_Node000015_Node000009" class="edge">
<title>Node15&#45;&gt;Node9</title>
<g id="a_edge21_Node000015_Node000009"><a xlink:title=" ">
<path fill="none" stroke="#63b8ff" d="M762.62,-115.8C735.57,-101.93 681.37,-74.83 633.88,-55.25 600.94,-41.67 562.2,-28.44 536.24,-19.96"/>
<polygon fill="#63b8ff" stroke="#63b8ff" points="537.65,-16.73 527.06,-16.98 535.49,-23.39 537.65,-16.73"/>
</a>
</g>
</g>
<!-- Node16 -->
<g id="Node000016" class="node">
<title>Node16</title>
<g id="a_Node000016"><a xlink:href="function_8hpp.xhtml" target="_top" xlink:title=" ">
<polygon fill="white" stroke="#666666" points="605.12,-74.5 536.62,-74.5 536.62,-55.25 605.12,-55.25 605.12,-74.5"/>
<text text-anchor="middle" x="570.88" y="-61" font-family="Helvetica,sans-Serif" font-size="10.00">function.hpp</text>
</a>
</g>
</g>
<!-- Node15&#45;&gt;Node16 -->
<g id="edge18_Node000015_Node000016" class="edge">
<title>Node15&#45;&gt;Node16</title>
<g id="a_edge18_Node000015_Node000016"><a xlink:title=" ">
<path fill="none" stroke="#63b8ff" d="M747.68,-115.68C711.85,-105.59 653.8,-89.23 614.05,-78.04"/>
<polygon fill="#63b8ff" stroke="#63b8ff" points="615.14,-74.71 604.57,-75.37 613.24,-81.45 615.14,-74.71"/>
</a>
</g>
</g>
<!-- Node17 -->
<g id="Node000017" class="node">
<title>Node17</title>
<g id="a_Node000017"><a xlink:title=" ">
<polygon fill="#e0e0e0" stroke="#999999" points="596.12,-19.25 545.62,-19.25 545.62,0 596.12,0 596.12,-19.25"/>
<text text-anchor="middle" x="570.88" y="-5.75" font-family="Helvetica,sans-Serif" font-size="10.00">memory</text>
</a>
</g>
</g>
<!-- Node16&#45;&gt;Node17 -->
<g id="edge19_Node000016_Node000017" class="edge">
<title>Node16&#45;&gt;Node17</title>
<g id="a_edge19_Node000016_Node000017"><a xlink:title=" ">
<path fill="none" stroke="#63b8ff" d="M570.88,-55.08C570.88,-48.57 570.88,-39.42 570.88,-31.12"/>
<polygon fill="#63b8ff" stroke="#63b8ff" points="574.38,-31.12 570.88,-21.12 567.38,-31.12 574.38,-31.12"/>
</a>
</g>
</g>
<!-- Node18&#45;&gt;Node6 -->
<g id="edge24_Node000018_Node000006" class="edge">
<title>Node18&#45;&gt;Node6</title>
<g id="a_edge24_Node000018_Node000006"><a xlink:title=" ">
<path fill="none" stroke="#63b8ff" d="M677.76,-115.69C686.69,-113.87 696.08,-112.05 704.88,-110.5 800.1,-93.74 912.78,-78.48 971.23,-70.9"/>
<polygon fill="#63b8ff" stroke="#63b8ff" points="971.55,-74.39 981.02,-69.64 970.65,-67.44 971.55,-74.39"/>
</a>
</g>
</g>
<!-- Node18&#45;&gt;Node9 -->
<g id="edge25_Node000018_Node000009" class="edge">
<title>Node18&#45;&gt;Node9</title>
<g id="a_edge25_Node000018_Node000009"><a xlink:title=" ">
<path fill="none" stroke="#63b8ff" d="M635.4,-115.9C634.18,-101.44 629.77,-72.62 613.88,-55.25 603.01,-43.37 563.94,-28.92 536.16,-19.74"/>
<polygon fill="#63b8ff" stroke="#63b8ff" points="537.46,-16.48 526.87,-16.73 535.31,-23.14 537.46,-16.48"/>
</a>
</g>
</g>
<!-- Node18&#45;&gt;Node16 -->
<g id="edge23_Node000018_Node000016" class="edge">
<title>Node18&#45;&gt;Node16</title>
<g id="a_edge23_Node000018_Node000016"><a xlink:title=" ">
<path fill="none" stroke="#63b8ff" d="M626,-115.81C616.27,-106.99 601.15,-93.3 589.21,-82.48"/>
<polygon fill="#63b8ff" stroke="#63b8ff" points="591.72,-80.04 581.96,-75.92 587.02,-85.22 591.72,-80.04"/>
</a>
</g>
</g>
<!-- Node19&#45;&gt;Node6 -->
<g id="edge28_Node000019_Node000006" class="edge">
<title>Node19&#45;&gt;Node6</title>
<g id="a_edge28_Node000019_Node000006"><a xlink:title=" ">
<path fill="none" stroke="#63b8ff" d="M926.91,-115.81C942.54,-106.51 967.26,-91.81 985.84,-80.76"/>
<polygon fill="#63b8ff" stroke="#63b8ff" points="987.59,-83.79 994.4,-75.67 984.01,-77.78 987.59,-83.79"/>
</a>
</g>
</g>
<!-- Node19&#45;&gt;Node9 -->
<g id="edge29_Node000019_Node000009" class="edge">
<title>Node19&#45;&gt;Node9</title>
<g id="a_edge29_Node000019_Node000009"><a xlink:title=" ">
<path fill="none" stroke="#63b8ff" d="M880.32,-115.66C833.84,-102.29 744.23,-76.61 667.88,-55.25 609.73,-38.98 595,-35.59 536.88,-19.25 536.76,-19.22 536.65,-19.19 536.53,-19.15"/>
<polygon fill="#63b8ff" stroke="#63b8ff" points="537.62,-15.82 527.04,-16.46 535.71,-22.56 537.62,-15.82"/>
</a>
</g>
</g>
<!-- Node19&#45;&gt;Node16 -->
<g id="edge27_Node000019_Node000016" class="edge">
<title>Node19&#45;&gt;Node16</title>
<g id="a_edge27_Node000019_Node000016"><a xlink:title=" ">
<path fill="none" stroke="#63b8ff" d="M878.23,-115.64C870.89,-113.81 863.15,-111.99 855.88,-110.5 772.06,-93.31 673.18,-79.19 616.67,-71.7"/>
<polygon fill="#63b8ff" stroke="#63b8ff" points="617.15,-68.23 606.78,-70.4 616.24,-75.17 617.15,-68.23"/>
</a>
</g>
</g>
<!-- Node20&#45;&gt;Node6 -->
<g id="edge31_Node000020_Node000006" class="edge">
<title>Node20&#45;&gt;Node6</title>
<g id="a_edge31_Node000020_Node000006"><a xlink:title=" ">
<path fill="none" stroke="#63b8ff" d="M1010.88,-115.81C1010.88,-108.03 1010.88,-96.45 1010.88,-86.41"/>
<polygon fill="#63b8ff" stroke="#63b8ff" points="1014.38,-86.41 1010.88,-76.41 1007.38,-86.41 1014.38,-86.41"/>
</a>
</g>
</g>
<!-- Node21&#45;&gt;Node6 -->
<g id="edge33_Node000021_Node000006" class="edge">
<title>Node21&#45;&gt;Node6</title>
<g id="a_edge33_Node000021_Node000006"><a xlink:title=" ">
<path fill="none" stroke="#63b8ff" d="M1086.36,-115.81C1072.5,-106.64 1050.7,-92.22 1034.08,-81.23"/>
<polygon fill="#63b8ff" stroke="#63b8ff" points="1036.05,-78.33 1025.78,-75.74 1032.19,-84.17 1036.05,-78.33"/>
</a>
</g>
</g>
<!-- Node22&#45;&gt;Node6 -->
<g id="edge36_Node000022_Node000006" class="edge">
<title>Node22&#45;&gt;Node6</title>
<g id="a_edge36_Node000022_Node000006"><a xlink:title=" ">
<path fill="none" stroke="#63b8ff" d="M290.64,-115.64C298.16,-113.64 306.26,-111.75 313.88,-110.5 561.27,-69.74 863.76,-65.71 970.92,-65.67"/>
<polygon fill="#63b8ff" stroke="#63b8ff" points="970.91,-69.17 980.92,-65.68 970.92,-62.17 970.91,-69.17"/>
</a>
</g>
</g>
<!-- Node22&#45;&gt;Node9 -->
<g id="edge37_Node000022_Node000009" class="edge">
<title>Node22&#45;&gt;Node9</title>
<g id="a_edge37_Node000022_Node000009"><a xlink:title=" ">
<path fill="none" stroke="#63b8ff" d="M280.18,-115.79C323.13,-95.87 426.8,-47.78 477.69,-24.16"/>
<polygon fill="#63b8ff" stroke="#63b8ff" points="479.03,-27.4 486.63,-20.02 476.08,-21.05 479.03,-27.4"/>
</a>
</g>
</g>
<!-- Node22&#45;&gt;Node16 -->
<g id="edge35_Node000022_Node000016" class="edge">
<title>Node22&#45;&gt;Node16</title>
<g id="a_edge35_Node000022_Node000016"><a xlink:title=" ">
<path fill="none" stroke="#63b8ff" d="M292.71,-115.69C299.66,-113.85 306.99,-112.02 313.88,-110.5 387.26,-94.3 473.5,-80.35 525.09,-72.54"/>
<polygon fill="#63b8ff" stroke="#63b8ff" points="525.31,-76.05 534.68,-71.1 524.27,-69.12 525.31,-76.05"/>
</a>
</g>
</g>
<!-- Node23&#45;&gt;Node6 -->
<g id="edge40_Node000023_Node000006" class="edge">
<title>Node23&#45;&gt;Node6</title>
<g id="a_edge40_Node000023_Node000006"><a xlink:title=" ">
<path fill="none" stroke="#63b8ff" d="M438.74,-111.8C441.49,-111.33 444.21,-110.89 446.88,-110.5 642.15,-81.82 878.36,-70.67 970.93,-67.2"/>
<polygon fill="#63b8ff" stroke="#63b8ff" points="970.88,-70.7 980.75,-66.84 970.63,-63.71 970.88,-70.7"/>
</a>
</g>
</g>
<!-- Node23&#45;&gt;Node9 -->
<g id="edge41_Node000023_Node000009" class="edge">
<title>Node23&#45;&gt;Node9</title>
<g id="a_edge41_Node000023_Node000009"><a xlink:title=" ">
<path fill="none" stroke="#63b8ff" d="M397.09,-110.06C420.55,-88.82 463.83,-49.62 488.46,-27.31"/>
<polygon fill="#63b8ff" stroke="#63b8ff" points="490.72,-29.98 495.78,-20.67 486.02,-24.79 490.72,-29.98"/>
</a>
</g>
</g>
<!-- Node23&#45;&gt;Node16 -->
<g id="edge39_Node000023_Node000016" class="edge">
<title>Node23&#45;&gt;Node16</title>
<g id="a_edge39_Node000023_Node000016"><a xlink:title=" ">
<path fill="none" stroke="#63b8ff" d="M428.33,-110.05C459.81,-100.29 500.68,-87.63 530.58,-78.36"/>
<polygon fill="#63b8ff" stroke="#63b8ff" points="531.5,-81.74 540.01,-75.44 529.42,-75.06 531.5,-81.74"/>
</a>
</g>
</g>
<!-- Node24&#45;&gt;Node6 -->
<g id="edge44_Node000024_Node000006" class="edge">
<title>Node24&#45;&gt;Node6</title>
<g id="a_edge44_Node000024_Node000006"><a xlink:title=" ">
<path fill="none" stroke="#63b8ff" d="M557.84,-112.16C560.89,-111.56 563.92,-111 566.88,-110.5 714.75,-85.62 892.84,-72.85 970.91,-68.1"/>
<polygon fill="#63b8ff" stroke="#63b8ff" points="970.84,-71.61 980.62,-67.53 970.43,-64.63 970.84,-71.61"/>
</a>
</g>
</g>
<!-- Node24&#45;&gt;Node9 -->
<g id="edge45_Node000024_Node000009" class="edge">
<title>Node24&#45;&gt;Node9</title>
<g id="a_edge45_Node000024_Node000009"><a xlink:title=" ">
<path fill="none" stroke="#63b8ff" d="M506.88,-110.3C506.88,-90.25 506.88,-53.9 506.88,-31.07"/>
<polygon fill="#63b8ff" stroke="#63b8ff" points="510.38,-31.21 506.88,-21.21 503.38,-31.21 510.38,-31.21"/>
</a>
</g>
</g>
<!-- Node24&#45;&gt;Node16 -->
<g id="edge43_Node000024_Node000016" class="edge">
<title>Node24&#45;&gt;Node16</title>
<g id="a_edge43_Node000024_Node000016"><a xlink:title=" ">
<path fill="none" stroke="#63b8ff" d="M522.7,-110.2C531.78,-101.84 543.24,-91.3 552.69,-82.6"/>
<polygon fill="#63b8ff" stroke="#63b8ff" points="554.9,-85.32 559.89,-75.98 550.17,-80.17 554.9,-85.32"/>
</a>
</g>
</g>
<!-- Node25&#45;&gt;Node6 -->
<g id="edge50_Node000025_Node000006" class="edge">
<title>Node25&#45;&gt;Node6</title>
<g id="a_edge50_Node000025_Node000006"><a xlink:title=" ">
<path fill="none" stroke="#63b8ff" d="M160.4,-115.65C175.96,-113.74 192.48,-111.89 207.88,-110.5 500.29,-84.13 854.11,-70.97 971.16,-67.11"/>
<polygon fill="#63b8ff" stroke="#63b8ff" points="970.98,-70.62 980.86,-66.8 970.75,-63.63 970.98,-70.62"/>
</a>
</g>
</g>
<!-- Node25&#45;&gt;Node8 -->
<g id="edge51_Node000025_Node000008" class="edge">
<title>Node25&#45;&gt;Node8</title>
<g id="a_edge51_Node000025_Node000008"><a xlink:title=" ">
<path fill="none" stroke="#63b8ff" d="M95.84,-115.64C99.52,-100.8 108.85,-71.45 127.88,-55.25 159.44,-28.38 206.85,-17.69 239.24,-13.43"/>
<polygon fill="#63b8ff" stroke="#63b8ff" points="239.4,-16.94 248.94,-12.31 238.6,-9.99 239.4,-16.94"/>
</a>
</g>
</g>
<!-- Node25&#45;&gt;Node9 -->
<g id="edge53_Node000025_Node000009" class="edge">
<title>Node25&#45;&gt;Node9</title>
<g id="a_edge53_Node000025_Node000009"><a xlink:title=" ">
<path fill="none" stroke="#63b8ff" d="M101.26,-115.66C114.3,-100.3 143.09,-69.5 174.88,-55.25 228.68,-31.13 405.54,-17.22 476.76,-12.48"/>
<polygon fill="#63b8ff" stroke="#63b8ff" points="476.75,-15.99 486.51,-11.85 476.3,-9.01 476.75,-15.99"/>
</a>
</g>
</g>
<!-- Node25&#45;&gt;Node26 -->
<g id="edge52_Node000025_Node000026" class="edge">
<title>Node25&#45;&gt;Node26</title>
<g id="a_edge52_Node000025_Node000026"><a xlink:title=" ">
<path fill="none" stroke="#63b8ff" d="M82.94,-115.81C72.05,-106.9 55.09,-93.03 41.8,-82.17"/>
<polygon fill="#63b8ff" stroke="#63b8ff" points="44.04,-79.48 34.08,-75.86 39.61,-84.9 44.04,-79.48"/>
</a>
</g>
</g>
<!-- Node27&#45;&gt;Node6 -->
<g id="edge55_Node000027_Node000006" class="edge">
<title>Node27&#45;&gt;Node6</title>
<g id="a_edge55_Node000027_Node000006"><a xlink:title=" ">
<path fill="none" stroke="#63b8ff" d="M1548.64,-118.64C1425.37,-106.55 1153.22,-79.84 1050.85,-69.8"/>
<polygon fill="#63b8ff" stroke="#63b8ff" points="1051.31,-66.33 1041.02,-68.83 1050.63,-73.29 1051.31,-66.33"/>
</a>
</g>
</g>
<!-- Node27&#45;&gt;Node11 -->
<g id="edge57_Node000027_Node000011" class="edge">
<title>Node27&#45;&gt;Node11</title>
<g id="a_edge57_Node000027_Node000011"><a xlink:title=" ">
<path fill="none" stroke="#63b8ff" d="M1606.01,-115.68C1600.82,-105.76 1592.57,-89.3 1586.88,-74.5 1581.27,-59.93 1576.3,-42.98 1572.85,-30.21"/>
<polygon fill="#63b8ff" stroke="#63b8ff" points="1576.33,-29.7 1570.41,-20.91 1569.56,-31.47 1576.33,-29.7"/>
</a>
</g>
</g>
<!-- Node28 -->
<g id="Node000028" class="node">
<title>Node28</title>
<g id="a_Node000028"><a xlink:title=" ">
<polygon fill="#e0e0e0" stroke="#999999" points="1630.25,-74.5 1595.5,-74.5 1595.5,-55.25 1630.25,-55.25 1630.25,-74.5"/>
<text text-anchor="middle" x="1612.88" y="-61" font-family="Helvetica,sans-Serif" font-size="10.00">print</text>
</a>
</g>
</g>
<!-- Node27&#45;&gt;Node28 -->
<g id="edge56_Node000027_Node000028" class="edge">
<title>Node27&#45;&gt;Node28</title>
<g id="a_edge56_Node000027_Node000028"><a xlink:title=" ">
<path fill="none" stroke="#63b8ff" d="M1611.18,-115.81C1611.45,-107.94 1611.84,-96.2 1612.19,-86.07"/>
<polygon fill="#63b8ff" stroke="#63b8ff" points="1615.68,-86.53 1612.52,-76.41 1608.68,-86.29 1615.68,-86.53"/>
</a>
</g>
</g>
</g>
</svg>

<g id="navigator" transform="translate(0 0)" fill="#404254">
  <rect fill="#f2f5e9" fill-opacity="0.5" stroke="#606060" stroke-width=".5" x="0" y="0" width="60" height="60"/>
  <use id="zoomplus" xlink:href="#zoomPlus" x="17" y="9" onmousedown="handleZoom(evt,'in')"/>
  <use id="zoomminus" xlink:href="#zoomMin" x="42" y="9" onmousedown="handleZoom(evt,'out')"/>
  <use id="reset" xlink:href="#resetDef" x="30" y="36" onmousedown="handleReset()"/>
   <use id="arrowup" xlink:href="#arrowUp" x="0" y="0" onmousedown="handlePan(0,-1)"/>
  <use id="arrowright" xlink:href="#arrowRight" x="0" y="0" onmousedown="handlePan(1,0)"/>
  <use id="arrowdown" xlink:href="#arrowDown" x="0" y="0" onmousedown="handlePan(0,1)"/>
  <use id="arrowleft" xlink:href="#arrowLeft" x="0" y="0" onmousedown="handlePan(-1,0)"/>
</g>
<svg viewBox="0 0 15 15" width="100%" height="30px" preserveAspectRatio="xMaxYMin meet">
 <g id="arrow_out" transform="scale(0.3 0.3)">
  <a xlink:href="kalman__format__float__1x1x1_8cpp__incl_org.svg" target="_base">
   <rect id="button" ry="5" rx="5" y="6" x="6" height="38" width="38"
        fill="#f2f5e9" fill-opacity="0.5" stroke="#606060" stroke-width="1.0"/>
   <path id="arrow"
     d="M 11.500037,31.436501 C 11.940474,20.09759 22.043105,11.32322 32.158766,21.979434 L 37.068811,17.246167 C 37.068811,17.246167 37.088388,32 37.088388,32 L 22.160133,31.978069 C 22.160133,31.978069 26.997745,27.140456 26.997745,27.140456 C 18.528582,18.264221 13.291696,25.230495 11.500037,31.436501 z"
     style="fill:#404040;"/>
  </a>
 </g>
</svg>

<style type='text/css'>
<![CDATA[
[data-mouse-over-selected='false'] { opacity: 0.7; }
[data-mouse-over-selected='true']  { opacity: 1.0; }
]]>
</style>
<script type="application/ecmascript"><![CDATA[
document.addEventListener('DOMContentLoaded', (event) => {
  highlightEdges();
  highlightAdjacentNodes();
});
]]></script>
</svg>
