<?xml version="1.0" encoding="UTF-8" standalone="no"?>
<!DOCTYPE svg PUBLIC "-//W3C//DTD SVG 1.1//EN"
 "http://www.w3.org/Graphics/SVG/1.1/DTD/svg11.dtd">
<!-- Generated by graphviz version 12.2.0 (20241103.1931)
 -->
<!-- Title: /github/workspace/test/kalman_assign_move_5x4x3.cpp Pages: 1 -->
<!--zoomable 326 -->

<svg id="main" version="1.1" xmlns="http://www.w3.org/2000/svg" xmlns:xlink="http://www.w3.org/1999/xlink" xml:space="preserve" onload="init(evt)">

<style type="text/css"><![CDATA[
.node, .edge {opacity: 0.7;}
.node.selected, .edge.selected {opacity: 1;}
.edge:hover path { stroke: red; }
.edge:hover polygon { stroke: red; fill: red; }
]]></style>

<defs>
  <circle id="rim" cx="0" cy="0" r="7"/>
  <circle id="rim2" cx="0" cy="0" r="3.5"/>
  <g id="zoomPlus">
    <use xlink:href="#rim" fill="#404040"><set attributeName="fill" to="#808080" begin="zoomplus.mouseover" end="zoomplus.mouseout"/></use>
    <path d="M-4,0h8M0,-4v8" fill="none" stroke="white" stroke-width="1.5" pointer-events="none"/>
  </g>
  <g id="zoomMin">
    <use xlink:href="#rim" fill="#404040"><set attributeName="fill" to="#808080" begin="zoomminus.mouseover" end="zoomminus.mouseout"/></use>
    <path d="M-4,0h8" fill="none" stroke="white" stroke-width="1.5" pointer-events="none"/>
  </g>
  <g id="arrowUp" transform="translate(30 24)">
    <use xlink:href="#rim"/>
    <path pointer-events="none" fill="none" stroke="white" stroke-width="1.5" d="M0,-3.0v7 M-2.5,-0.5L0,-3.0L2.5,-0.5"/>
  </g>
  <g id="arrowRight" transform="rotate(90) translate(36 -43)">
    <use xlink:href="#rim"/>
    <path pointer-events="none" fill="none" stroke="white" stroke-width="1.5" d="M0,-3.0v7 M-2.5,-0.5L0,-3.0L2.5,-0.5"/>
  </g>
  <g id="arrowDown" transform="rotate(180) translate(-30 -48)">
    <use xlink:href="#rim"/>
    <path pointer-events="none" fill="none" stroke="white" stroke-width="1.5" d="M0,-3.0v7 M-2.5,-0.5L0,-3.0L2.5,-0.5"/>
  </g>
  <g id="arrowLeft" transform="rotate(270) translate(-36 17)">
    <use xlink:href="#rim"/>
    <path pointer-events="none" fill="none" stroke="white" stroke-width="1.5" d="M0,-3.0v7 M-2.5,-0.5L0,-3.0L2.5,-0.5"/>
  </g>
  <g id="resetDef">
    <use xlink:href="#rim2" fill="#404040"><set attributeName="fill" to="#808080" begin="reset.mouseover" end="reset.mouseout"/></use>
  </g>
</defs>
<script type="application/ecmascript">
var viewWidth = 1903;
var viewHeight = 326;
var sectionId = 'dynsection-0';
</script>
<script type="application/ecmascript" xlink:href="svg.min.js"/>
<svg id="graph" class="graph">
<g id="viewport">
<title>/github/workspace/test/kalman_assign_move_5x4x3.cpp</title>
<!-- Node1 -->
<g id="Node000001" class="node">
<title>Node1</title>
<g id="a_Node000001"><a xlink:title=" ">
<polygon fill="#999999" stroke="#666666" points="1821.34,-318 1659.84,-318 1659.84,-287.5 1821.34,-287.5 1821.34,-318"/>
<text text-anchor="start" x="1667.84" y="-304.5" font-family="Helvetica,sans-Serif" font-size="10.00">/github/workspace/test</text>
<text text-anchor="middle" x="1740.59" y="-293.25" font-family="Helvetica,sans-Serif" font-size="10.00">/kalman_assign_move_5x4x3.cpp</text>
</a>
</g>
</g>
<!-- Node2 -->
<g id="Node000002" class="node">
<title>Node2</title>
<g id="a_Node000002"><a xlink:href="kalman_8hpp.xhtml" target="_top" xlink:title="The Kalman filter class and library top&#45;level header.">
<polygon fill="white" stroke="#666666" points="1393.59,-251.5 1287.59,-251.5 1287.59,-232.25 1393.59,-232.25 1393.59,-251.5"/>
<text text-anchor="middle" x="1340.59" y="-238" font-family="Helvetica,sans-Serif" font-size="10.00">fcarouge/kalman.hpp</text>
</a>
</g>
</g>
<!-- Node1&#45;&gt;Node2 -->
<g id="edge1_Node000001_Node000002" class="edge">
<title>Node1&#45;&gt;Node2</title>
<g id="a_edge1_Node000001_Node000002"><a xlink:title=" ">
<path fill="none" stroke="#63b8ff" d="M1659.65,-289.84C1584.61,-278.79 1474.42,-262.57 1405.14,-252.38"/>
<polygon fill="#63b8ff" stroke="#63b8ff" points="1405.86,-248.94 1395.46,-250.95 1404.84,-255.87 1405.86,-248.94"/>
</a>
</g>
</g>
<!-- Node11 -->
<g id="Node000011" class="node">
<title>Node11</title>
<g id="a_Node000011"><a xlink:title=" ">
<polygon fill="#e0e0e0" stroke="#999999" points="1367.84,-19.25 1329.34,-19.25 1329.34,0 1367.84,0 1367.84,-19.25"/>
<text text-anchor="middle" x="1348.59" y="-5.75" font-family="Helvetica,sans-Serif" font-size="10.00">utility</text>
</a>
</g>
</g>
<!-- Node1&#45;&gt;Node11 -->
<g id="edge65_Node000001_Node000011" class="edge">
<title>Node1&#45;&gt;Node11</title>
<g id="a_edge65_Node000001_Node000011"><a xlink:title=" ">
<path fill="none" stroke="#63b8ff" d="M1735.11,-287.33C1731.39,-277.34 1726.46,-263.69 1722.59,-251.5 1702.95,-189.52 1729.11,-156.93 1683.59,-110.5 1640.24,-66.28 1453.11,-29.09 1378.99,-15.83"/>
<polygon fill="#63b8ff" stroke="#63b8ff" points="1380.05,-12.46 1369.6,-14.17 1378.83,-19.35 1380.05,-12.46"/>
</a>
</g>
</g>
<!-- Node30 -->
<g id="Node000030" class="node">
<title>Node30</title>
<g id="a_Node000030"><a xlink:title=" ">
<polygon fill="#e0e0e0" stroke="#999999" points="1828.09,-251.5 1731.09,-251.5 1731.09,-232.25 1828.09,-232.25 1828.09,-251.5"/>
<text text-anchor="middle" x="1779.59" y="-238" font-family="Helvetica,sans-Serif" font-size="10.00">fcarouge/linalg.hpp</text>
</a>
</g>
</g>
<!-- Node1&#45;&gt;Node30 -->
<g id="edge63_Node000001_Node000030" class="edge">
<title>Node1&#45;&gt;Node30</title>
<g id="a_edge63_Node000001_Node000030"><a xlink:title=" ">
<path fill="none" stroke="#63b8ff" d="M1750.23,-287.2C1755.37,-279.44 1761.75,-269.81 1767.25,-261.51"/>
<polygon fill="#63b8ff" stroke="#63b8ff" points="1770.14,-263.48 1772.75,-253.21 1764.3,-259.62 1770.14,-263.48"/>
</a>
</g>
</g>
<!-- Node31 -->
<g id="Node000031" class="node">
<title>Node31</title>
<g id="a_Node000031"><a xlink:title=" ">
<polygon fill="#e0e0e0" stroke="#999999" points="1894.72,-251.5 1846.47,-251.5 1846.47,-232.25 1894.72,-232.25 1894.72,-251.5"/>
<text text-anchor="middle" x="1870.59" y="-238" font-family="Helvetica,sans-Serif" font-size="10.00">cassert</text>
</a>
</g>
</g>
<!-- Node1&#45;&gt;Node31 -->
<g id="edge64_Node000001_Node000031" class="edge">
<title>Node1&#45;&gt;Node31</title>
<g id="a_edge64_Node000001_Node000031"><a xlink:title=" ">
<path fill="none" stroke="#63b8ff" d="M1773.06,-287.05C1793.62,-277.73 1820.03,-265.77 1840.18,-256.65"/>
<polygon fill="#63b8ff" stroke="#63b8ff" points="1841.61,-259.84 1849.28,-252.53 1838.72,-253.47 1841.61,-259.84"/>
</a>
</g>
</g>
<!-- Node3 -->
<g id="Node000003" class="node">
<title>Node3</title>
<g id="a_Node000003"><a xlink:href="kalman__forward_8hpp.xhtml" target="_top" xlink:title="Authoritative forward declaration header.">
<polygon fill="white" stroke="#666666" points="1674.09,-135.38 1571.09,-135.38 1571.09,-116.12 1674.09,-116.12 1674.09,-135.38"/>
<text text-anchor="middle" x="1622.59" y="-121.88" font-family="Helvetica,sans-Serif" font-size="10.00">kalman_forward.hpp</text>
</a>
</g>
</g>
<!-- Node2&#45;&gt;Node3 -->
<g id="edge2_Node000002_Node000003" class="edge">
<title>Node2&#45;&gt;Node3</title>
<g id="a_edge2_Node000002_Node000003"><a xlink:title=" ">
<path fill="none" stroke="#63b8ff" d="M1393.72,-240.84C1442.53,-238.53 1515.18,-229.13 1568.59,-196.25 1588.47,-184.02 1603.85,-161.64 1613.03,-145.58"/>
<polygon fill="#63b8ff" stroke="#63b8ff" points="1615.98,-147.46 1617.65,-137 1609.82,-144.14 1615.98,-147.46"/>
</a>
</g>
</g>
<!-- Node4 -->
<g id="Node000004" class="node">
<title>Node4</title>
<g id="a_Node000004"><a xlink:href="factory_8hpp.xhtml" target="_top" xlink:title=" ">
<polygon fill="white" stroke="#666666" points="779.84,-196.25 645.34,-196.25 645.34,-177 779.84,-177 779.84,-196.25"/>
<text text-anchor="middle" x="712.59" y="-182.75" font-family="Helvetica,sans-Serif" font-size="10.00">kalman_internal/factory.hpp</text>
</a>
</g>
</g>
<!-- Node2&#45;&gt;Node4 -->
<g id="edge3_Node000002_Node000004" class="edge">
<title>Node2&#45;&gt;Node4</title>
<g id="a_edge3_Node000002_Node000004"><a xlink:title=" ">
<path fill="none" stroke="#63b8ff" d="M1287.32,-236.36C1176.64,-226.97 921.33,-205.32 791.49,-194.32"/>
<polygon fill="#63b8ff" stroke="#63b8ff" points="791.86,-190.83 781.6,-193.48 791.26,-197.81 791.86,-190.83"/>
</a>
</g>
</g>
<!-- Node6 -->
<g id="Node000006" class="node">
<title>Node6</title>
<g id="a_Node000006"><a xlink:href="utility_8hpp.xhtml" target="_top" xlink:title=" ">
<polygon fill="white" stroke="#666666" points="949.84,-74.5 893.34,-74.5 893.34,-55.25 949.84,-55.25 949.84,-74.5"/>
<text text-anchor="middle" x="921.59" y="-61" font-family="Helvetica,sans-Serif" font-size="10.00">utility.hpp</text>
</a>
</g>
</g>
<!-- Node2&#45;&gt;Node6 -->
<g id="edge61_Node000002_Node000006" class="edge">
<title>Node2&#45;&gt;Node6</title>
<g id="a_edge61_Node000002_Node000006"><a xlink:title=" ">
<path fill="none" stroke="#63b8ff" d="M1319.58,-231.8C1301.97,-223.71 1276.56,-210.91 1256.59,-196.25 1245.65,-188.22 1181.64,-116.74 1169.59,-110.5 1102.35,-75.65 1012.64,-67.53 961.6,-65.92"/>
<polygon fill="#63b8ff" stroke="#63b8ff" points="961.69,-62.42 951.61,-65.69 961.53,-69.42 961.69,-62.42"/>
</a>
</g>
</g>
<!-- Node25 -->
<g id="Node000025" class="node">
<title>Node25</title>
<g id="a_Node000025"><a xlink:href="format_8hpp.xhtml" target="_top" xlink:title="Formatting support for the Kalman filter.">
<polygon fill="white" stroke="#666666" points="1559.09,-196.25 1426.09,-196.25 1426.09,-177 1559.09,-177 1559.09,-196.25"/>
<text text-anchor="middle" x="1492.59" y="-182.75" font-family="Helvetica,sans-Serif" font-size="10.00">kalman_internal/format.hpp</text>
</a>
</g>
</g>
<!-- Node2&#45;&gt;Node25 -->
<g id="edge50_Node000002_Node000025" class="edge">
<title>Node2&#45;&gt;Node25</title>
<g id="a_edge50_Node000002_Node000025"><a xlink:title=" ">
<path fill="none" stroke="#63b8ff" d="M1366.38,-231.84C1390.94,-223.24 1428.18,-210.19 1455.85,-200.5"/>
<polygon fill="#63b8ff" stroke="#63b8ff" points="1456.97,-203.81 1465.25,-197.2 1454.66,-197.21 1456.97,-203.81"/>
</a>
</g>
</g>
<!-- Node26 -->
<g id="Node000026" class="node">
<title>Node26</title>
<g id="a_Node000026"><a xlink:href="print_8hpp.xhtml" target="_top" xlink:title=" ">
<polygon fill="white" stroke="#666666" points="1414.97,-135.38 1362.22,-135.38 1362.22,-116.12 1414.97,-116.12 1414.97,-135.38"/>
<text text-anchor="middle" x="1388.59" y="-121.88" font-family="Helvetica,sans-Serif" font-size="10.00">print.hpp</text>
</a>
</g>
</g>
<!-- Node2&#45;&gt;Node26 -->
<g id="edge60_Node000002_Node000026" class="edge">
<title>Node2&#45;&gt;Node26</title>
<g id="a_edge60_Node000002_Node000026"><a xlink:title=" ">
<path fill="none" stroke="#63b8ff" d="M1313.84,-231.84C1285.98,-220.9 1248.46,-200.94 1264.59,-177 1267.27,-173.03 1317.97,-153.32 1353.7,-139.79"/>
<polygon fill="#63b8ff" stroke="#63b8ff" points="1354.7,-143.16 1362.82,-136.35 1352.23,-136.61 1354.7,-143.16"/>
</a>
</g>
</g>
<!-- Node29 -->
<g id="Node000029" class="node">
<title>Node29</title>
<g id="a_Node000029"><a xlink:title=" ">
<polygon fill="#e0e0e0" stroke="#999999" points="1407.84,-196.25 1273.34,-196.25 1273.34,-177 1407.84,-177 1407.84,-196.25"/>
<text text-anchor="middle" x="1340.59" y="-182.75" font-family="Helvetica,sans-Serif" font-size="10.00">kalman_internal/kalman.tpp</text>
</a>
</g>
</g>
<!-- Node2&#45;&gt;Node29 -->
<g id="edge62_Node000002_Node000029" class="edge">
<title>Node2&#45;&gt;Node29</title>
<g id="a_edge62_Node000002_Node000029"><a xlink:title=" ">
<path fill="none" stroke="#63b8ff" d="M1340.59,-232.08C1340.59,-225.57 1340.59,-216.42 1340.59,-208.12"/>
<polygon fill="#63b8ff" stroke="#63b8ff" points="1344.09,-208.12 1340.59,-198.12 1337.09,-208.12 1344.09,-208.12"/>
</a>
</g>
</g>
<!-- Node5 -->
<g id="Node000005" class="node">
<title>Node5</title>
<g id="a_Node000005"><a xlink:href="type_8hpp.xhtml" target="_top" xlink:title=" ">
<polygon fill="white" stroke="#666666" points="1306.59,-135.38 1254.59,-135.38 1254.59,-116.12 1306.59,-116.12 1306.59,-135.38"/>
<text text-anchor="middle" x="1280.59" y="-121.88" font-family="Helvetica,sans-Serif" font-size="10.00">type.hpp</text>
</a>
</g>
</g>
<!-- Node4&#45;&gt;Node5 -->
<g id="edge4_Node000004_Node000005" class="edge">
<title>Node4&#45;&gt;Node5</title>
<g id="a_edge4_Node000004_Node000005"><a xlink:title=" ">
<path fill="none" stroke="#63b8ff" d="M780.03,-179.68C869.24,-171.68 1031.37,-156.62 1169.59,-141 1194.03,-138.24 1221.43,-134.73 1242.9,-131.88"/>
<polygon fill="#63b8ff" stroke="#63b8ff" points="1243.21,-135.37 1252.66,-130.57 1242.28,-128.43 1243.21,-135.37"/>
</a>
</g>
</g>
<!-- Node7 -->
<g id="Node000007" class="node">
<title>Node7</title>
<g id="a_Node000007"><a xlink:title=" ">
<polygon fill="#e0e0e0" stroke="#999999" points="147.47,-19.25 91.72,-19.25 91.72,0 147.47,0 147.47,-19.25"/>
<text text-anchor="middle" x="119.59" y="-5.75" font-family="Helvetica,sans-Serif" font-size="10.00">concepts</text>
</a>
</g>
</g>
<!-- Node4&#45;&gt;Node7 -->
<g id="edge47_Node000004_Node000007" class="edge">
<title>Node4&#45;&gt;Node7</title>
<g id="a_edge47_Node000004_Node000007"><a xlink:title=" ">
<path fill="none" stroke="#63b8ff" d="M644.87,-183.8C473.02,-178.83 32.1,-163.92 10.59,-141 -27.18,-100.75 48.46,-49.71 91.93,-25.14"/>
<polygon fill="#63b8ff" stroke="#63b8ff" points="93.55,-28.24 100.62,-20.35 90.17,-22.11 93.55,-28.24"/>
</a>
</g>
</g>
<!-- Node9 -->
<g id="Node000009" class="node">
<title>Node9</title>
<g id="a_Node000009"><a xlink:title=" ">
<polygon fill="#e0e0e0" stroke="#999999" points="476.09,-19.25 439.09,-19.25 439.09,0 476.09,0 476.09,-19.25"/>
<text text-anchor="middle" x="457.59" y="-5.75" font-family="Helvetica,sans-Serif" font-size="10.00">tuple</text>
</a>
</g>
</g>
<!-- Node4&#45;&gt;Node9 -->
<g id="edge48_Node000004_Node000009" class="edge">
<title>Node4&#45;&gt;Node9</title>
<g id="a_edge48_Node000004_Node000009"><a xlink:title=" ">
<path fill="none" stroke="#63b8ff" d="M645.05,-186.38C479.45,-187.52 63.63,-185.84 21.59,-141 12.32,-131.11 13.46,-121.34 21.59,-110.5 46.46,-77.37 332.83,-30.07 427.45,-15.25"/>
<polygon fill="#63b8ff" stroke="#63b8ff" points="427.91,-18.72 437.26,-13.72 426.84,-11.8 427.91,-18.72"/>
</a>
</g>
</g>
<!-- Node10 -->
<g id="Node000010" class="node">
<title>Node10</title>
<g id="a_Node000010"><a xlink:title=" ">
<polygon fill="#e0e0e0" stroke="#999999" points="1307.09,-19.25 1246.09,-19.25 1246.09,0 1307.09,0 1307.09,-19.25"/>
<text text-anchor="middle" x="1276.59" y="-5.75" font-family="Helvetica,sans-Serif" font-size="10.00">type_traits</text>
</a>
</g>
</g>
<!-- Node4&#45;&gt;Node10 -->
<g id="edge49_Node000004_Node000010" class="edge">
<title>Node4&#45;&gt;Node10</title>
<g id="a_edge49_Node000004_Node000010"><a xlink:title=" ">
<path fill="none" stroke="#63b8ff" d="M780.28,-185.68C930.18,-185.09 1279.79,-179.56 1315.59,-141 1345.09,-109.24 1312.28,-56.04 1291.31,-28.44"/>
<polygon fill="#63b8ff" stroke="#63b8ff" points="1294.15,-26.39 1285.2,-20.71 1288.66,-30.73 1294.15,-26.39"/>
</a>
</g>
</g>
<!-- Node13 -->
<g id="Node000013" class="node">
<title>Node13</title>
<g id="a_Node000013"><a xlink:href="x__z__p__q__r_8hpp.xhtml" target="_top" xlink:title=" ">
<polygon fill="white" stroke="#666666" points="960.34,-135.38 882.84,-135.38 882.84,-116.12 960.34,-116.12 960.34,-135.38"/>
<text text-anchor="middle" x="921.59" y="-121.88" font-family="Helvetica,sans-Serif" font-size="10.00">x_z_p_q_r.hpp</text>
</a>
</g>
</g>
<!-- Node4&#45;&gt;Node13 -->
<g id="edge13_Node000004_Node000013" class="edge">
<title>Node4&#45;&gt;Node13</title>
<g id="a_edge13_Node000004_Node000013"><a xlink:title=" ">
<path fill="none" stroke="#63b8ff" d="M746.48,-176.56C779.31,-167.72 830.46,-153.77 874.59,-141 876.71,-140.39 878.88,-139.75 881.07,-139.11"/>
<polygon fill="#63b8ff" stroke="#63b8ff" points="882.01,-142.48 890.59,-136.27 880.01,-135.77 882.01,-142.48"/>
</a>
</g>
</g>
<!-- Node14 -->
<g id="Node000014" class="node">
<title>Node14</title>
<g id="a_Node000014"><a xlink:href="x__z__p__q__r__h__f_8hpp.xhtml" target="_top" xlink:title=" ">
<polygon fill="white" stroke="#666666" points="1074.72,-135.38 978.47,-135.38 978.47,-116.12 1074.72,-116.12 1074.72,-135.38"/>
<text text-anchor="middle" x="1026.59" y="-121.88" font-family="Helvetica,sans-Serif" font-size="10.00">x_z_p_q_r_h_f.hpp</text>
</a>
</g>
</g>
<!-- Node4&#45;&gt;Node14 -->
<g id="edge15_Node000004_Node000014" class="edge">
<title>Node4&#45;&gt;Node14</title>
<g id="a_edge15_Node000004_Node000014"><a xlink:title=" ">
<path fill="none" stroke="#63b8ff" d="M772.29,-176.53C824.53,-168.26 902.36,-155.22 969.59,-141 973.35,-140.21 977.23,-139.34 981.13,-138.43"/>
<polygon fill="#63b8ff" stroke="#63b8ff" points="981.64,-141.91 990.55,-136.17 980.01,-135.1 981.64,-141.91"/>
</a>
</g>
</g>
<!-- Node15 -->
<g id="Node000015" class="node">
<title>Node15</title>
<g id="a_Node000015"><a xlink:href="x__z__p__q__r__hh__f__us__ps_8hpp.xhtml" target="_top" xlink:title=" ">
<polygon fill="white" stroke="#666666" points="283.09,-135.38 150.09,-135.38 150.09,-116.12 283.09,-116.12 283.09,-135.38"/>
<text text-anchor="middle" x="216.59" y="-121.88" font-family="Helvetica,sans-Serif" font-size="10.00">x_z_p_q_r_hh_f_us_ps.hpp</text>
</a>
</g>
</g>
<!-- Node4&#45;&gt;Node15 -->
<g id="edge17_Node000004_Node000015" class="edge">
<title>Node4&#45;&gt;Node15</title>
<g id="a_edge17_Node000004_Node000015"><a xlink:title=" ">
<path fill="none" stroke="#63b8ff" d="M645.1,-180.12C561.95,-172.95 416.47,-159.17 292.59,-141 286.21,-140.06 279.55,-138.98 272.93,-137.83"/>
<polygon fill="#63b8ff" stroke="#63b8ff" points="273.86,-134.44 263.4,-136.12 272.62,-141.33 273.86,-134.44"/>
</a>
</g>
</g>
<!-- Node18 -->
<g id="Node000018" class="node">
<title>Node18</title>
<g id="a_Node000018"><a xlink:href="x__z__p__q__r__hh__ff__ps_8hpp.xhtml" target="_top" xlink:title=" ">
<polygon fill="white" stroke="#666666" points="772.34,-135.38 652.84,-135.38 652.84,-116.12 772.34,-116.12 772.34,-135.38"/>
<text text-anchor="middle" x="712.59" y="-121.88" font-family="Helvetica,sans-Serif" font-size="10.00">x_z_p_q_r_hh_ff_ps.hpp</text>
</a>
</g>
</g>
<!-- Node4&#45;&gt;Node18 -->
<g id="edge22_Node000004_Node000018" class="edge">
<title>Node4&#45;&gt;Node18</title>
<g id="a_edge22_Node000004_Node000018"><a xlink:title=" ">
<path fill="none" stroke="#63b8ff" d="M712.59,-176.68C712.59,-168.9 712.59,-157.33 712.59,-147.28"/>
<polygon fill="#63b8ff" stroke="#63b8ff" points="716.09,-147.29 712.59,-137.29 709.09,-147.29 716.09,-147.29"/>
</a>
</g>
</g>
<!-- Node19 -->
<g id="Node000019" class="node">
<title>Node19</title>
<g id="a_Node000019"><a xlink:href="x__z__p__qq__rr__f_8hpp.xhtml" target="_top" xlink:title=" ">
<polygon fill="white" stroke="#666666" points="395.59,-135.38 301.59,-135.38 301.59,-116.12 395.59,-116.12 395.59,-135.38"/>
<text text-anchor="middle" x="348.59" y="-121.88" font-family="Helvetica,sans-Serif" font-size="10.00">x_z_p_qq_rr_f.hpp</text>
</a>
</g>
</g>
<!-- Node4&#45;&gt;Node19 -->
<g id="edge27_Node000004_Node000019" class="edge">
<title>Node4&#45;&gt;Node19</title>
<g id="a_edge27_Node000004_Node000019"><a xlink:title=" ">
<path fill="none" stroke="#63b8ff" d="M644.95,-177.9C582.31,-170.26 486.73,-157.35 404.59,-141 400.79,-140.24 396.86,-139.39 392.92,-138.48"/>
<polygon fill="#63b8ff" stroke="#63b8ff" points="393.94,-135.13 383.4,-136.2 392.3,-141.94 393.94,-135.13"/>
</a>
</g>
</g>
<!-- Node20 -->
<g id="Node000020" class="node">
<title>Node20</title>
<g id="a_Node000020"><a xlink:href="x__z__p__r_8hpp.xhtml" target="_top" xlink:title=" ">
<polygon fill="white" stroke="#666666" points="1160.09,-135.38 1093.09,-135.38 1093.09,-116.12 1160.09,-116.12 1160.09,-135.38"/>
<text text-anchor="middle" x="1126.59" y="-121.88" font-family="Helvetica,sans-Serif" font-size="10.00">x_z_p_r.hpp</text>
</a>
</g>
</g>
<!-- Node4&#45;&gt;Node20 -->
<g id="edge31_Node000004_Node000020" class="edge">
<title>Node4&#45;&gt;Node20</title>
<g id="a_edge31_Node000004_Node000020"><a xlink:title=" ">
<path fill="none" stroke="#63b8ff" d="M780.3,-181.57C855.2,-176.13 979.13,-164.34 1083.59,-141 1086.18,-140.42 1088.84,-139.75 1091.5,-139.01"/>
<polygon fill="#63b8ff" stroke="#63b8ff" points="1092.27,-142.44 1100.82,-136.19 1090.24,-135.74 1092.27,-142.44"/>
</a>
</g>
</g>
<!-- Node21 -->
<g id="Node000021" class="node">
<title>Node21</title>
<g id="a_Node000021"><a xlink:href="x__z__p__r__f_8hpp.xhtml" target="_top" xlink:title=" ">
<polygon fill="white" stroke="#666666" points="865.22,-135.38 789.97,-135.38 789.97,-116.12 865.22,-116.12 865.22,-135.38"/>
<text text-anchor="middle" x="827.59" y="-121.88" font-family="Helvetica,sans-Serif" font-size="10.00">x_z_p_r_f.hpp</text>
</a>
</g>
</g>
<!-- Node4&#45;&gt;Node21 -->
<g id="edge33_Node000004_Node000021" class="edge">
<title>Node4&#45;&gt;Node21</title>
<g id="a_edge33_Node000004_Node000021"><a xlink:title=" ">
<path fill="none" stroke="#63b8ff" d="M730.06,-176.68C748.63,-167.17 778.28,-152 800.01,-140.87"/>
<polygon fill="#63b8ff" stroke="#63b8ff" points="801.31,-144.14 808.62,-136.47 798.12,-137.91 801.31,-144.14"/>
</a>
</g>
</g>
<!-- Node22 -->
<g id="Node000022" class="node">
<title>Node22</title>
<g id="a_Node000022"><a xlink:href="x__z__u__p__q__r_8hpp.xhtml" target="_top" xlink:title=" ">
<polygon fill="white" stroke="#666666" points="501.59,-135.38 413.59,-135.38 413.59,-116.12 501.59,-116.12 501.59,-135.38"/>
<text text-anchor="middle" x="457.59" y="-121.88" font-family="Helvetica,sans-Serif" font-size="10.00">x_z_u_p_q_r.hpp</text>
</a>
</g>
</g>
<!-- Node4&#45;&gt;Node22 -->
<g id="edge35_Node000004_Node000022" class="edge">
<title>Node4&#45;&gt;Node22</title>
<g id="a_edge35_Node000004_Node000022"><a xlink:title=" ">
<path fill="none" stroke="#63b8ff" d="M668.72,-176.53C627.72,-167.89 564.84,-154.28 510.59,-141 507.62,-140.27 504.55,-139.5 501.46,-138.71"/>
<polygon fill="#63b8ff" stroke="#63b8ff" points="502.35,-135.33 491.79,-136.18 500.58,-142.1 502.35,-135.33"/>
</a>
</g>
</g>
<!-- Node23 -->
<g id="Node000023" class="node">
<title>Node23</title>
<g id="a_Node000023"><a xlink:href="x__z__u__p__q__r__h__f__g__us__ps_8hpp.xhtml" target="_top" xlink:title=" ">
<polygon fill="white" stroke="#666666" points="635.09,-141 520.09,-141 520.09,-110.5 635.09,-110.5 635.09,-141"/>
<text text-anchor="start" x="528.09" y="-127.5" font-family="Helvetica,sans-Serif" font-size="10.00">x_z_u_p_q_r_h_f_g_us</text>
<text text-anchor="middle" x="577.59" y="-116.25" font-family="Helvetica,sans-Serif" font-size="10.00">_ps.hpp</text>
</a>
</g>
</g>
<!-- Node4&#45;&gt;Node23 -->
<g id="edge39_Node000004_Node000023" class="edge">
<title>Node4&#45;&gt;Node23</title>
<g id="a_edge39_Node000004_Node000023"><a xlink:title=" ">
<path fill="none" stroke="#63b8ff" d="M691.8,-176.55C673.19,-168.44 645.31,-156.28 621.76,-146.01"/>
<polygon fill="#63b8ff" stroke="#63b8ff" points="623.24,-142.84 612.68,-142.05 620.44,-149.26 623.24,-142.84"/>
</a>
</g>
</g>
<!-- Node24 -->
<g id="Node000024" class="node">
<title>Node24</title>
<g id="a_Node000024"><a xlink:href="x__z__u__p__qq__r__ff__gg__ps_8hpp.xhtml" target="_top" xlink:title=" ">
<polygon fill="white" stroke="#666666" points="132.34,-141 30.84,-141 30.84,-110.5 132.34,-110.5 132.34,-141"/>
<text text-anchor="start" x="38.84" y="-127.5" font-family="Helvetica,sans-Serif" font-size="10.00">x_z_u_p_qq_r_ff_gg</text>
<text text-anchor="middle" x="81.59" y="-116.25" font-family="Helvetica,sans-Serif" font-size="10.00">_ps.hpp</text>
</a>
</g>
</g>
<!-- Node4&#45;&gt;Node24 -->
<g id="edge43_Node000004_Node000024" class="edge">
<title>Node4&#45;&gt;Node24</title>
<g id="a_edge43_Node000004_Node000024"><a xlink:title=" ">
<path fill="none" stroke="#63b8ff" d="M645.26,-183.84C540,-180.29 330.01,-170.14 143.76,-141.35"/>
<polygon fill="#63b8ff" stroke="#63b8ff" points="144.58,-137.94 134.15,-139.84 143.49,-144.85 144.58,-137.94"/>
</a>
</g>
</g>
<!-- Node5&#45;&gt;Node6 -->
<g id="edge5_Node000005_Node000006" class="edge">
<title>Node5&#45;&gt;Node6</title>
<g id="a_edge5_Node000005_Node000006"><a xlink:title=" ">
<path fill="none" stroke="#63b8ff" d="M1257.57,-115.65C1252.07,-113.73 1246.18,-111.87 1240.59,-110.5 1141.82,-86.26 1022.38,-73.94 961.5,-68.84"/>
<polygon fill="#63b8ff" stroke="#63b8ff" points="961.88,-65.36 951.63,-68.03 961.31,-72.33 961.88,-65.36"/>
</a>
</g>
</g>
<!-- Node5&#45;&gt;Node10 -->
<g id="edge12_Node000005_Node000010" class="edge">
<title>Node5&#45;&gt;Node10</title>
<g id="a_edge12_Node000005_Node000010"><a xlink:title=" ">
<path fill="none" stroke="#63b8ff" d="M1280.28,-115.79C1279.64,-97.63 1278.18,-56.04 1277.31,-30.95"/>
<polygon fill="#63b8ff" stroke="#63b8ff" points="1280.81,-30.92 1276.96,-21.05 1273.81,-31.17 1280.81,-30.92"/>
</a>
</g>
</g>
<!-- Node12 -->
<g id="Node000012" class="node">
<title>Node12</title>
<g id="a_Node000012"><a xlink:title=" ">
<polygon fill="#e0e0e0" stroke="#999999" points="1248.34,-74.5 1176.84,-74.5 1176.84,-55.25 1248.34,-55.25 1248.34,-74.5"/>
<text text-anchor="middle" x="1212.59" y="-61" font-family="Helvetica,sans-Serif" font-size="10.00">initializer_list</text>
</a>
</g>
</g>
<!-- Node5&#45;&gt;Node12 -->
<g id="edge11_Node000005_Node000012" class="edge">
<title>Node5&#45;&gt;Node12</title>
<g id="a_edge11_Node000005_Node000012"><a xlink:title=" ">
<path fill="none" stroke="#63b8ff" d="M1270.27,-115.81C1259.98,-106.9 1243.96,-93.03 1231.41,-82.17"/>
<polygon fill="#63b8ff" stroke="#63b8ff" points="1234.01,-79.79 1224.16,-75.89 1229.43,-85.08 1234.01,-79.79"/>
</a>
</g>
</g>
<!-- Node6&#45;&gt;Node7 -->
<g id="edge6_Node000006_Node000007" class="edge">
<title>Node6&#45;&gt;Node7</title>
<g id="a_edge6_Node000006_Node000007"><a xlink:title=" ">
<path fill="none" stroke="#63b8ff" d="M893.05,-61.98C771.85,-53.93 299.67,-22.58 159.21,-13.26"/>
<polygon fill="#63b8ff" stroke="#63b8ff" points="159.51,-9.77 149.3,-12.6 159.05,-16.75 159.51,-9.77"/>
</a>
</g>
</g>
<!-- Node8 -->
<g id="Node000008" class="node">
<title>Node8</title>
<g id="a_Node000008"><a xlink:title=" ">
<polygon fill="#e0e0e0" stroke="#999999" points="1499.72,-19.25 1451.47,-19.25 1451.47,0 1499.72,0 1499.72,-19.25"/>
<text text-anchor="middle" x="1475.59" y="-5.75" font-family="Helvetica,sans-Serif" font-size="10.00">cstddef</text>
</a>
</g>
</g>
<!-- Node6&#45;&gt;Node8 -->
<g id="edge7_Node000006_Node000008" class="edge">
<title>Node6&#45;&gt;Node8</title>
<g id="a_edge7_Node000006_Node000008"><a xlink:title=" ">
<path fill="none" stroke="#63b8ff" d="M950.21,-61.12C1043.24,-52.18 1337.02,-23.94 1439.72,-14.07"/>
<polygon fill="#63b8ff" stroke="#63b8ff" points="1439.87,-17.57 1449.49,-13.13 1439.2,-10.61 1439.87,-17.57"/>
</a>
</g>
</g>
<!-- Node6&#45;&gt;Node9 -->
<g id="edge8_Node000006_Node000009" class="edge">
<title>Node6&#45;&gt;Node9</title>
<g id="a_edge8_Node000006_Node000009"><a xlink:title=" ">
<path fill="none" stroke="#63b8ff" d="M892.92,-60.58C810.25,-51.1 571.96,-23.75 487.62,-14.07"/>
<polygon fill="#63b8ff" stroke="#63b8ff" points="488.17,-10.61 477.83,-12.95 487.37,-17.57 488.17,-10.61"/>
</a>
</g>
</g>
<!-- Node6&#45;&gt;Node10 -->
<g id="edge9_Node000006_Node000010" class="edge">
<title>Node6&#45;&gt;Node10</title>
<g id="a_edge9_Node000006_Node000010"><a xlink:title=" ">
<path fill="none" stroke="#63b8ff" d="M950.04,-59.61C1012.44,-50.25 1161.54,-27.88 1234.68,-16.91"/>
<polygon fill="#63b8ff" stroke="#63b8ff" points="1234.88,-20.42 1244.25,-15.48 1233.84,-13.5 1234.88,-20.42"/>
</a>
</g>
</g>
<!-- Node6&#45;&gt;Node11 -->
<g id="edge10_Node000006_Node000011" class="edge">
<title>Node6&#45;&gt;Node11</title>
<g id="a_edge10_Node000006_Node000011"><a xlink:title=" ">
<path fill="none" stroke="#63b8ff" d="M950.07,-62.14C1015.36,-57.83 1180.66,-45.1 1316.59,-19.25 1317.1,-19.15 1317.61,-19.05 1318.13,-18.95"/>
<polygon fill="#63b8ff" stroke="#63b8ff" points="1318.66,-22.42 1327.6,-16.73 1317.06,-15.6 1318.66,-22.42"/>
</a>
</g>
</g>
<!-- Node13&#45;&gt;Node6 -->
<g id="edge14_Node000013_Node000006" class="edge">
<title>Node13&#45;&gt;Node6</title>
<g id="a_edge14_Node000013_Node000006"><a xlink:title=" ">
<path fill="none" stroke="#63b8ff" d="M921.59,-115.81C921.59,-108.03 921.59,-96.45 921.59,-86.41"/>
<polygon fill="#63b8ff" stroke="#63b8ff" points="925.09,-86.41 921.59,-76.41 918.09,-86.41 925.09,-86.41"/>
</a>
</g>
</g>
<!-- Node14&#45;&gt;Node6 -->
<g id="edge16_Node000014_Node000006" class="edge">
<title>Node14&#45;&gt;Node6</title>
<g id="a_edge16_Node000014_Node000006"><a xlink:title=" ">
<path fill="none" stroke="#63b8ff" d="M1010.65,-115.81C993.92,-106.43 967.36,-91.54 947.59,-80.45"/>
<polygon fill="#63b8ff" stroke="#63b8ff" points="949.44,-77.48 939.01,-75.64 946.02,-83.58 949.44,-77.48"/>
</a>
</g>
</g>
<!-- Node15&#45;&gt;Node6 -->
<g id="edge20_Node000015_Node000006" class="edge">
<title>Node15&#45;&gt;Node6</title>
<g id="a_edge20_Node000015_Node000006"><a xlink:title=" ">
<path fill="none" stroke="#63b8ff" d="M260.26,-115.68C270.81,-113.73 282.07,-111.85 292.59,-110.5 514.05,-81.98 781.89,-70.58 881.64,-67.12"/>
<polygon fill="#63b8ff" stroke="#63b8ff" points="881.56,-70.63 891.44,-66.79 881.33,-63.63 881.56,-70.63"/>
</a>
</g>
</g>
<!-- Node15&#45;&gt;Node9 -->
<g id="edge21_Node000015_Node000009" class="edge">
<title>Node15&#45;&gt;Node9</title>
<g id="a_edge21_Node000015_Node000009"><a xlink:title=" ">
<path fill="none" stroke="#63b8ff" d="M226.02,-115.78C241.86,-101.14 275.38,-72.08 308.59,-55.25 347.68,-35.45 397.08,-22.82 428.02,-16.23"/>
<polygon fill="#63b8ff" stroke="#63b8ff" points="428.33,-19.73 437.43,-14.3 426.93,-12.88 428.33,-19.73"/>
</a>
</g>
</g>
<!-- Node16 -->
<g id="Node000016" class="node">
<title>Node16</title>
<g id="a_Node000016"><a xlink:href="function_8hpp.xhtml" target="_top" xlink:title=" ">
<polygon fill="white" stroke="#666666" points="385.84,-74.5 317.34,-74.5 317.34,-55.25 385.84,-55.25 385.84,-74.5"/>
<text text-anchor="middle" x="351.59" y="-61" font-family="Helvetica,sans-Serif" font-size="10.00">function.hpp</text>
</a>
</g>
</g>
<!-- Node15&#45;&gt;Node16 -->
<g id="edge18_Node000015_Node000016" class="edge">
<title>Node15&#45;&gt;Node16</title>
<g id="a_edge18_Node000015_Node000016"><a xlink:title=" ">
<path fill="none" stroke="#63b8ff" d="M237.39,-115.68C259.65,-105.97 295.21,-90.46 320.74,-79.33"/>
<polygon fill="#63b8ff" stroke="#63b8ff" points="321.84,-82.67 329.61,-75.46 319.04,-76.25 321.84,-82.67"/>
</a>
</g>
</g>
<!-- Node17 -->
<g id="Node000017" class="node">
<title>Node17</title>
<g id="a_Node000017"><a xlink:title=" ">
<polygon fill="#e0e0e0" stroke="#999999" points="376.84,-19.25 326.34,-19.25 326.34,0 376.84,0 376.84,-19.25"/>
<text text-anchor="middle" x="351.59" y="-5.75" font-family="Helvetica,sans-Serif" font-size="10.00">memory</text>
</a>
</g>
</g>
<!-- Node16&#45;&gt;Node17 -->
<g id="edge19_Node000016_Node000017" class="edge">
<title>Node16&#45;&gt;Node17</title>
<g id="a_edge19_Node000016_Node000017"><a xlink:title=" ">
<path fill="none" stroke="#63b8ff" d="M351.59,-55.08C351.59,-48.57 351.59,-39.42 351.59,-31.12"/>
<polygon fill="#63b8ff" stroke="#63b8ff" points="355.09,-31.12 351.59,-21.12 348.09,-31.12 355.09,-31.12"/>
</a>
</g>
</g>
<!-- Node18&#45;&gt;Node6 -->
<g id="edge24_Node000018_Node000006" class="edge">
<title>Node18&#45;&gt;Node6</title>
<g id="a_edge24_Node000018_Node000006"><a xlink:title=" ">
<path fill="none" stroke="#63b8ff" d="M744.79,-115.68C781.76,-105.26 842.42,-88.18 882.18,-76.98"/>
<polygon fill="#63b8ff" stroke="#63b8ff" points="882.92,-80.41 891.6,-74.32 881.02,-73.67 882.92,-80.41"/>
</a>
</g>
</g>
<!-- Node18&#45;&gt;Node9 -->
<g id="edge25_Node000018_Node000009" class="edge">
<title>Node18&#45;&gt;Node9</title>
<g id="a_edge25_Node000018_Node000009"><a xlink:title=" ">
<path fill="none" stroke="#63b8ff" d="M692.58,-115.79C647.75,-95.73 539.09,-47.1 486.74,-23.67"/>
<polygon fill="#63b8ff" stroke="#63b8ff" points="488.41,-20.58 477.85,-19.69 485.55,-26.97 488.41,-20.58"/>
</a>
</g>
</g>
<!-- Node18&#45;&gt;Node11 -->
<g id="edge26_Node000018_Node000011" class="edge">
<title>Node18&#45;&gt;Node11</title>
<g id="a_edge26_Node000018_Node000011"><a xlink:title=" ">
<path fill="none" stroke="#63b8ff" d="M729.6,-115.86C759.85,-100.51 825.38,-69.34 884.59,-55.25 1072.03,-10.66 1126.81,-52.45 1316.59,-19.25 1317.1,-19.16 1317.62,-19.07 1318.13,-18.97"/>
<polygon fill="#63b8ff" stroke="#63b8ff" points="1318.64,-22.44 1327.61,-16.82 1317.08,-15.62 1318.64,-22.44"/>
</a>
</g>
</g>
<!-- Node18&#45;&gt;Node16 -->
<g id="edge23_Node000018_Node000016" class="edge">
<title>Node18&#45;&gt;Node16</title>
<g id="a_edge23_Node000018_Node000016"><a xlink:title=" ">
<path fill="none" stroke="#63b8ff" d="M670.33,-115.66C661.51,-113.86 652.26,-112.06 643.59,-110.5 556.94,-94.94 455.19,-80.18 397.56,-72.15"/>
<polygon fill="#63b8ff" stroke="#63b8ff" points="398.19,-68.7 387.8,-70.79 397.22,-75.63 398.19,-68.7"/>
</a>
</g>
</g>
<!-- Node19&#45;&gt;Node6 -->
<g id="edge29_Node000019_Node000006" class="edge">
<title>Node19&#45;&gt;Node6</title>
<g id="a_edge29_Node000019_Node000006"><a xlink:title=" ">
<path fill="none" stroke="#63b8ff" d="M380.68,-115.63C388.45,-113.69 396.78,-111.82 404.59,-110.5 580.84,-80.67 794.46,-70.27 881.64,-67.11"/>
<polygon fill="#63b8ff" stroke="#63b8ff" points="881.7,-70.61 891.57,-66.76 881.46,-63.61 881.7,-70.61"/>
</a>
</g>
</g>
<!-- Node19&#45;&gt;Node9 -->
<g id="edge30_Node000019_Node000009" class="edge">
<title>Node19&#45;&gt;Node9</title>
<g id="a_edge30_Node000019_Node000009"><a xlink:title=" ">
<path fill="none" stroke="#63b8ff" d="M357.15,-115.79C375.29,-96.79 417.91,-52.18 441.38,-27.6"/>
<polygon fill="#63b8ff" stroke="#63b8ff" points="443.66,-30.28 448.03,-20.63 438.6,-25.45 443.66,-30.28"/>
</a>
</g>
</g>
<!-- Node19&#45;&gt;Node16 -->
<g id="edge28_Node000019_Node000016" class="edge">
<title>Node19&#45;&gt;Node16</title>
<g id="a_edge28_Node000019_Node000016"><a xlink:title=" ">
<path fill="none" stroke="#63b8ff" d="M349.05,-115.81C349.45,-107.94 350.05,-96.2 350.56,-86.07"/>
<polygon fill="#63b8ff" stroke="#63b8ff" points="354.04,-86.58 351.06,-76.41 347.05,-86.22 354.04,-86.58"/>
</a>
</g>
</g>
<!-- Node20&#45;&gt;Node6 -->
<g id="edge32_Node000020_Node000006" class="edge">
<title>Node20&#45;&gt;Node6</title>
<g id="a_edge32_Node000020_Node000006"><a xlink:title=" ">
<path fill="none" stroke="#63b8ff" d="M1099.82,-115.64C1094.46,-113.89 1088.86,-112.1 1083.59,-110.5 1042.01,-97.89 993.98,-84.85 961.08,-76.15"/>
<polygon fill="#63b8ff" stroke="#63b8ff" points="962.13,-72.8 951.57,-73.64 960.35,-79.57 962.13,-72.8"/>
</a>
</g>
</g>
<!-- Node21&#45;&gt;Node6 -->
<g id="edge34_Node000021_Node000006" class="edge">
<title>Node21&#45;&gt;Node6</title>
<g id="a_edge34_Node000021_Node000006"><a xlink:title=" ">
<path fill="none" stroke="#63b8ff" d="M841.87,-115.81C856.64,-106.56 879.97,-91.95 897.58,-80.92"/>
<polygon fill="#63b8ff" stroke="#63b8ff" points="899.28,-83.98 905.9,-75.7 895.57,-78.05 899.28,-83.98"/>
</a>
</g>
</g>
<!-- Node22&#45;&gt;Node6 -->
<g id="edge37_Node000022_Node000006" class="edge">
<title>Node22&#45;&gt;Node6</title>
<g id="a_edge37_Node000022_Node000006"><a xlink:title=" ">
<path fill="none" stroke="#63b8ff" d="M488.24,-115.65C495.51,-113.73 503.29,-111.87 510.59,-110.5 645.52,-85.19 808.26,-72.79 881.93,-68.14"/>
<polygon fill="#63b8ff" stroke="#63b8ff" points="881.69,-71.66 891.46,-67.55 881.26,-64.67 881.69,-71.66"/>
</a>
</g>
</g>
<!-- Node22&#45;&gt;Node9 -->
<g id="edge38_Node000022_Node000009" class="edge">
<title>Node22&#45;&gt;Node9</title>
<g id="a_edge38_Node000022_Node000009"><a xlink:title=" ">
<path fill="none" stroke="#63b8ff" d="M457.59,-115.79C457.59,-97.63 457.59,-56.04 457.59,-30.95"/>
<polygon fill="#63b8ff" stroke="#63b8ff" points="461.09,-31.05 457.59,-21.05 454.09,-31.05 461.09,-31.05"/>
</a>
</g>
</g>
<!-- Node22&#45;&gt;Node16 -->
<g id="edge36_Node000022_Node000016" class="edge">
<title>Node22&#45;&gt;Node16</title>
<g id="a_edge36_Node000022_Node000016"><a xlink:title=" ">
<path fill="none" stroke="#63b8ff" d="M441.49,-115.81C424.61,-106.43 397.79,-91.54 377.84,-80.45"/>
<polygon fill="#63b8ff" stroke="#63b8ff" points="379.61,-77.43 369.17,-75.64 376.21,-83.55 379.61,-77.43"/>
</a>
</g>
</g>
<!-- Node23&#45;&gt;Node6 -->
<g id="edge41_Node000023_Node000006" class="edge">
<title>Node23&#45;&gt;Node6</title>
<g id="a_edge41_Node000023_Node000006"><a xlink:title=" ">
<path fill="none" stroke="#63b8ff" d="M635.51,-112.06C638.24,-111.52 640.94,-111 643.59,-110.5 728.18,-94.59 827.93,-79.46 881.96,-71.56"/>
<polygon fill="#63b8ff" stroke="#63b8ff" points="882.2,-75.06 891.59,-70.15 881.19,-68.13 882.2,-75.06"/>
</a>
</g>
</g>
<!-- Node23&#45;&gt;Node9 -->
<g id="edge42_Node000023_Node000009" class="edge">
<title>Node23&#45;&gt;Node9</title>
<g id="a_edge42_Node000023_Node000009"><a xlink:title=" ">
<path fill="none" stroke="#63b8ff" d="M562.4,-110.3C540.14,-89.13 498.77,-49.79 475.21,-27.38"/>
<polygon fill="#63b8ff" stroke="#63b8ff" points="477.89,-25.1 468.23,-20.74 473.06,-30.17 477.89,-25.1"/>
</a>
</g>
</g>
<!-- Node23&#45;&gt;Node16 -->
<g id="edge40_Node000023_Node000016" class="edge">
<title>Node23&#45;&gt;Node16</title>
<g id="a_edge40_Node000023_Node000016"><a xlink:title=" ">
<path fill="none" stroke="#63b8ff" d="M521.15,-110.05C482.92,-100.09 433.07,-87.1 397.33,-77.79"/>
<polygon fill="#63b8ff" stroke="#63b8ff" points="398.28,-74.42 387.72,-75.29 396.51,-81.19 398.28,-74.42"/>
</a>
</g>
</g>
<!-- Node24&#45;&gt;Node6 -->
<g id="edge45_Node000024_Node000006" class="edge">
<title>Node24&#45;&gt;Node6</title>
<g id="a_edge45_Node000024_Node000006"><a xlink:title=" ">
<path fill="none" stroke="#63b8ff" d="M132.65,-111.82C135.33,-111.33 137.99,-110.89 140.59,-110.5 422.16,-68.8 766.16,-65.47 881.65,-65.63"/>
<polygon fill="#63b8ff" stroke="#63b8ff" points="881.51,-69.13 891.52,-65.66 881.53,-62.13 881.51,-69.13"/>
</a>
</g>
</g>
<!-- Node24&#45;&gt;Node9 -->
<g id="edge46_Node000024_Node000009" class="edge">
<title>Node24&#45;&gt;Node9</title>
<g id="a_edge46_Node000024_Node000009"><a xlink:title=" ">
<path fill="none" stroke="#63b8ff" d="M118.56,-110.11C157.12,-95.15 219.52,-71.83 274.59,-55.25 328,-39.17 391.46,-24.71 427.88,-16.85"/>
<polygon fill="#63b8ff" stroke="#63b8ff" points="428.18,-20.36 437.23,-14.85 426.72,-13.52 428.18,-20.36"/>
</a>
</g>
</g>
<!-- Node24&#45;&gt;Node16 -->
<g id="edge44_Node000024_Node000016" class="edge">
<title>Node24&#45;&gt;Node16</title>
<g id="a_edge44_Node000024_Node000016"><a xlink:title=" ">
<path fill="none" stroke="#63b8ff" d="M132.74,-112.3C135.39,-111.69 138.02,-111.08 140.59,-110.5 197.46,-97.62 263.22,-83.9 306.01,-75.12"/>
<polygon fill="#63b8ff" stroke="#63b8ff" points="306.59,-78.58 315.69,-73.14 305.19,-71.72 306.59,-78.58"/>
</a>
</g>
</g>
<!-- Node25&#45;&gt;Node3 -->
<g id="edge51_Node000025_Node000003" class="edge">
<title>Node25&#45;&gt;Node3</title>
<g id="a_edge51_Node000025_Node000003"><a xlink:title=" ">
<path fill="none" stroke="#63b8ff" d="M1512.62,-176.55C1533.96,-166.89 1567.99,-151.48 1592.55,-140.36"/>
<polygon fill="#63b8ff" stroke="#63b8ff" points="1593.71,-143.67 1601.38,-136.36 1590.82,-137.3 1593.71,-143.67"/>
</a>
</g>
</g>
<!-- Node25&#45;&gt;Node6 -->
<g id="edge56_Node000025_Node000006" class="edge">
<title>Node25&#45;&gt;Node6</title>
<g id="a_edge56_Node000025_Node000006"><a xlink:title=" ">
<path fill="none" stroke="#63b8ff" d="M1425.67,-176.88C1363.98,-168.21 1277.33,-154.34 1245.59,-141 1223.99,-131.92 1224.29,-119.35 1202.59,-110.5 1121.25,-77.33 1017.3,-68.71 961.42,-66.54"/>
<polygon fill="#63b8ff" stroke="#63b8ff" points="961.88,-63.05 951.77,-66.22 961.64,-70.05 961.88,-63.05"/>
</a>
</g>
</g>
<!-- Node25&#45;&gt;Node8 -->
<g id="edge57_Node000025_Node000008" class="edge">
<title>Node25&#45;&gt;Node8</title>
<g id="a_edge57_Node000025_Node000008"><a xlink:title=" ">
<path fill="none" stroke="#63b8ff" d="M1501.37,-176.62C1508.91,-168.2 1519.25,-154.86 1523.59,-141 1527.65,-128.06 1526.6,-123.72 1523.59,-110.5 1516.74,-80.41 1499.63,-48.82 1487.81,-29.42"/>
<polygon fill="#63b8ff" stroke="#63b8ff" points="1490.82,-27.63 1482.53,-21.02 1484.89,-31.35 1490.82,-27.63"/>
</a>
</g>
</g>
<!-- Node25&#45;&gt;Node9 -->
<g id="edge59_Node000025_Node000009" class="edge">
<title>Node25&#45;&gt;Node9</title>
<g id="a_edge59_Node000025_Node000009"><a xlink:title=" ">
<path fill="none" stroke="#63b8ff" d="M1485.65,-176.72C1478.99,-167.95 1468.9,-153.99 1461.59,-141 1441.17,-104.66 1458,-78.78 1423.59,-55.25 1384.05,-28.2 646.76,-13.91 487.68,-11.13"/>
<polygon fill="#63b8ff" stroke="#63b8ff" points="488.02,-7.63 477.96,-10.96 487.9,-14.63 488.02,-7.63"/>
</a>
</g>
</g>
<!-- Node25&#45;&gt;Node26 -->
<g id="edge52_Node000025_Node000026" class="edge">
<title>Node25&#45;&gt;Node26</title>
<g id="a_edge52_Node000025_Node000026"><a xlink:title=" ">
<path fill="none" stroke="#63b8ff" d="M1476.8,-176.68C1460.23,-167.3 1433.92,-152.41 1414.35,-141.33"/>
<polygon fill="#63b8ff" stroke="#63b8ff" points="1416.28,-138.4 1405.85,-136.52 1412.83,-144.49 1416.28,-138.4"/>
</a>
</g>
</g>
<!-- Node28 -->
<g id="Node000028" class="node">
<title>Node28</title>
<g id="a_Node000028"><a xlink:title=" ">
<polygon fill="#e0e0e0" stroke="#999999" points="1514.47,-135.38 1470.72,-135.38 1470.72,-116.12 1514.47,-116.12 1514.47,-135.38"/>
<text text-anchor="middle" x="1492.59" y="-121.88" font-family="Helvetica,sans-Serif" font-size="10.00">format</text>
</a>
</g>
</g>
<!-- Node25&#45;&gt;Node28 -->
<g id="edge58_Node000025_Node000028" class="edge">
<title>Node25&#45;&gt;Node28</title>
<g id="a_edge58_Node000025_Node000028"><a xlink:title=" ">
<path fill="none" stroke="#63b8ff" d="M1492.59,-176.68C1492.59,-168.9 1492.59,-157.33 1492.59,-147.28"/>
<polygon fill="#63b8ff" stroke="#63b8ff" points="1496.09,-147.29 1492.59,-137.29 1489.09,-147.29 1496.09,-147.29"/>
</a>
</g>
</g>
<!-- Node26&#45;&gt;Node6 -->
<g id="edge53_Node000026_Node000006" class="edge">
<title>Node26&#45;&gt;Node6</title>
<g id="a_edge53_Node000026_Node000006"><a xlink:title=" ">
<path fill="none" stroke="#63b8ff" d="M1361.99,-119.02C1348.19,-116.19 1331.04,-112.88 1315.59,-110.5 1186.37,-90.6 1032.02,-75.67 960.96,-69.28"/>
<polygon fill="#63b8ff" stroke="#63b8ff" points="961.66,-65.83 951.39,-68.43 961.04,-72.8 961.66,-65.83"/>
</a>
</g>
</g>
<!-- Node26&#45;&gt;Node11 -->
<g id="edge55_Node000026_Node000011" class="edge">
<title>Node26&#45;&gt;Node11</title>
<g id="a_edge55_Node000026_Node000011"><a xlink:title=" ">
<path fill="none" stroke="#63b8ff" d="M1385.45,-115.79C1379.03,-97.46 1364.24,-55.28 1355.48,-30.26"/>
<polygon fill="#63b8ff" stroke="#63b8ff" points="1358.83,-29.25 1352.22,-20.97 1352.22,-31.56 1358.83,-29.25"/>
</a>
</g>
</g>
<!-- Node27 -->
<g id="Node000027" class="node">
<title>Node27</title>
<g id="a_Node000027"><a xlink:title=" ">
<polygon fill="#e0e0e0" stroke="#999999" points="1414.97,-74.5 1380.22,-74.5 1380.22,-55.25 1414.97,-55.25 1414.97,-74.5"/>
<text text-anchor="middle" x="1397.59" y="-61" font-family="Helvetica,sans-Serif" font-size="10.00">print</text>
</a>
</g>
</g>
<!-- Node26&#45;&gt;Node27 -->
<g id="edge54_Node000026_Node000027" class="edge">
<title>Node26&#45;&gt;Node27</title>
<g id="a_edge54_Node000026_Node000027"><a xlink:title=" ">
<path fill="none" stroke="#63b8ff" d="M1389.96,-115.81C1391.16,-107.94 1392.96,-96.2 1394.51,-86.07"/>
<polygon fill="#63b8ff" stroke="#63b8ff" points="1397.93,-86.81 1395.98,-76.4 1391.01,-85.75 1397.93,-86.81"/>
</a>
</g>
</g>
</g>
</svg>

<g id="navigator" transform="translate(0 0)" fill="#404254">
  <rect fill="#f2f5e9" fill-opacity="0.5" stroke="#606060" stroke-width=".5" x="0" y="0" width="60" height="60"/>
  <use id="zoomplus" xlink:href="#zoomPlus" x="17" y="9" onmousedown="handleZoom(evt,'in')"/>
  <use id="zoomminus" xlink:href="#zoomMin" x="42" y="9" onmousedown="handleZoom(evt,'out')"/>
  <use id="reset" xlink:href="#resetDef" x="30" y="36" onmousedown="handleReset()"/>
   <use id="arrowup" xlink:href="#arrowUp" x="0" y="0" onmousedown="handlePan(0,-1)"/>
  <use id="arrowright" xlink:href="#arrowRight" x="0" y="0" onmousedown="handlePan(1,0)"/>
  <use id="arrowdown" xlink:href="#arrowDown" x="0" y="0" onmousedown="handlePan(0,1)"/>
  <use id="arrowleft" xlink:href="#arrowLeft" x="0" y="0" onmousedown="handlePan(-1,0)"/>
</g>
<svg viewBox="0 0 15 15" width="100%" height="30px" preserveAspectRatio="xMaxYMin meet">
 <g id="arrow_out" transform="scale(0.3 0.3)">
  <a xlink:href="kalman__assign__move__5x4x3_8cpp__incl_org.svg" target="_base">
   <rect id="button" ry="5" rx="5" y="6" x="6" height="38" width="38"
        fill="#f2f5e9" fill-opacity="0.5" stroke="#606060" stroke-width="1.0"/>
   <path id="arrow"
     d="M 11.500037,31.436501 C 11.940474,20.09759 22.043105,11.32322 32.158766,21.979434 L 37.068811,17.246167 C 37.068811,17.246167 37.088388,32 37.088388,32 L 22.160133,31.978069 C 22.160133,31.978069 26.997745,27.140456 26.997745,27.140456 C 18.528582,18.264221 13.291696,25.230495 11.500037,31.436501 z"
     style="fill:#404040;"/>
  </a>
 </g>
</svg>

<style type='text/css'>
<![CDATA[
[data-mouse-over-selected='false'] { opacity: 0.7; }
[data-mouse-over-selected='true']  { opacity: 1.0; }
]]>
</style>
<script type="application/ecmascript"><![CDATA[
document.addEventListener('DOMContentLoaded', (event) => {
  highlightEdges();
  highlightAdjacentNodes();
});
]]></script>
</svg>
