<?xml version="1.0" encoding="UTF-8" standalone="no"?>
<!DOCTYPE svg PUBLIC "-//W3C//DTD SVG 1.1//EN"
 "http://www.w3.org/Graphics/SVG/1.1/DTD/svg11.dtd">
<!-- Generated by graphviz version 3.0.0 (20221109.1736)
 -->
<!-- Title: /github/workspace/test/kalman_format_float_1x1x1.cpp Pages: 1 -->
<svg width="783pt" height="319pt"
 viewBox="0.00 0.00 782.93 319.00" xmlns="http://www.w3.org/2000/svg" xmlns:xlink="http://www.w3.org/1999/xlink">
<g id="graph0" class="graph" transform="scale(1 1) rotate(0) translate(4 315)">
<title>/github/workspace/test/kalman_format_float_1x1x1.cpp</title>
<polygon fill="white" stroke="transparent" points="-4,4 -4,-315 778.93,-315 778.93,4 -4,4"/>
<!-- Node1 -->
<g id="node1" class="node">
<title>Node1</title>
<g id="a_node1"><a xlink:title=" ">
<polygon fill="#bfbfbf" stroke="black" points="619.93,-280.5 619.93,-310.5 774.93,-310.5 774.93,-280.5 619.93,-280.5"/>
<text text-anchor="start" x="627.93" y="-298.5" font-family="Helvetica,sans-Serif" font-size="10.00">/github/workspace/test</text>
<text text-anchor="middle" x="697.43" y="-287.5" font-family="Helvetica,sans-Serif" font-size="10.00">/kalman_format_float_1x1x1.cpp</text>
</a>
</g>
</g>
<!-- Node2 -->
<g id="node2" class="node">
<title>Node2</title>
<g id="a_node2"><a xlink:href="kalman_8hpp.xhtml" target="_top" xlink:title="The Kalman filter class and library top&#45;level header.">
<polygon fill="white" stroke="black" points="262.93,-224.5 262.93,-243.5 369.93,-243.5 369.93,-224.5 262.93,-224.5"/>
<text text-anchor="middle" x="316.43" y="-231.5" font-family="Helvetica,sans-Serif" font-size="10.00">fcarouge/kalman.hpp</text>
</a>
</g>
</g>
<!-- Node1&#45;&gt;Node2 -->
<g id="edge1" class="edge">
<title>Node1&#45;&gt;Node2</title>
<path fill="none" stroke="midnightblue" d="M619.87,-282.39C549.24,-271.36 446.19,-255.26 380.23,-244.96"/>
<polygon fill="midnightblue" stroke="midnightblue" points="380.39,-241.45 369.97,-243.36 379.31,-248.36 380.39,-241.45"/>
</g>
<!-- Node10 -->
<g id="node10" class="node">
<title>Node10</title>
<g id="a_node10"><a xlink:title=" ">
<polygon fill="white" stroke="#bfbfbf" points="538.43,-112.5 538.43,-131.5 582.43,-131.5 582.43,-112.5 538.43,-112.5"/>
<text text-anchor="middle" x="560.43" y="-119.5" font-family="Helvetica,sans-Serif" font-size="10.00">format</text>
</a>
</g>
</g>
<!-- Node1&#45;&gt;Node10 -->
<g id="edge22" class="edge">
<title>Node1&#45;&gt;Node10</title>
<path fill="none" stroke="midnightblue" d="M699.57,-280.17C702.54,-254.63 704.89,-200.87 678.43,-168 657.56,-142.07 619.93,-131.07 592.77,-126.41"/>
<polygon fill="midnightblue" stroke="midnightblue" points="592.98,-122.9 582.57,-124.87 591.94,-129.82 592.98,-122.9"/>
</g>
<!-- Node16 -->
<g id="node16" class="node">
<title>Node16</title>
<g id="a_node16"><a xlink:title=" ">
<polygon fill="white" stroke="#bfbfbf" points="725.93,-224.5 725.93,-243.5 774.93,-243.5 774.93,-224.5 725.93,-224.5"/>
<text text-anchor="middle" x="750.43" y="-231.5" font-family="Helvetica,sans-Serif" font-size="10.00">cassert</text>
</a>
</g>
</g>
<!-- Node1&#45;&gt;Node16 -->
<g id="edge21" class="edge">
<title>Node1&#45;&gt;Node16</title>
<path fill="none" stroke="midnightblue" d="M710,-280.4C717.78,-271.66 727.8,-260.41 735.92,-251.3"/>
<polygon fill="midnightblue" stroke="midnightblue" points="738.69,-253.45 742.72,-243.66 733.46,-248.8 738.69,-253.45"/>
</g>
<!-- Node3 -->
<g id="node3" class="node">
<title>Node3</title>
<g id="a_node3"><a xlink:href="algorithm_8hpp.xhtml" target="_top" xlink:title="The collection of Kalman algorithms.">
<polygon fill="white" stroke="black" points="595.43,-168.5 595.43,-187.5 669.43,-187.5 669.43,-168.5 595.43,-168.5"/>
<text text-anchor="middle" x="632.43" y="-175.5" font-family="Helvetica,sans-Serif" font-size="10.00">algorithm.hpp</text>
</a>
</g>
</g>
<!-- Node2&#45;&gt;Node3 -->
<g id="edge2" class="edge">
<title>Node2&#45;&gt;Node3</title>
<path fill="none" stroke="midnightblue" d="M370.05,-224.52C422.35,-216.14 504.43,-202.73 584.97,-188.23"/>
<polygon fill="midnightblue" stroke="midnightblue" points="586.08,-191.58 595.29,-186.36 584.83,-184.69 586.08,-191.58"/>
</g>
<!-- Node4 -->
<g id="node4" class="node">
<title>Node4</title>
<g id="a_node4"><a xlink:href="format_8hpp.xhtml" target="_top" xlink:title=" ">
<polygon fill="white" stroke="black" points="267.93,-168.5 267.93,-187.5 364.93,-187.5 364.93,-168.5 267.93,-168.5"/>
<text text-anchor="middle" x="316.43" y="-175.5" font-family="Helvetica,sans-Serif" font-size="10.00">internal/format.hpp</text>
</a>
</g>
</g>
<!-- Node2&#45;&gt;Node4 -->
<g id="edge3" class="edge">
<title>Node2&#45;&gt;Node4</title>
<path fill="none" stroke="midnightblue" d="M316.43,-224.08C316.43,-217.01 316.43,-206.86 316.43,-197.99"/>
<polygon fill="midnightblue" stroke="midnightblue" points="319.94,-197.75 316.43,-187.75 312.94,-197.75 319.94,-197.75"/>
</g>
<!-- Node5 -->
<g id="node5" class="node">
<title>Node5</title>
<g id="a_node5"><a xlink:href="utility_8hpp.xhtml" target="_top" xlink:title="The collection of utilities supporting the library.">
<polygon fill="white" stroke="black" points="147.43,-112.5 147.43,-131.5 245.43,-131.5 245.43,-112.5 147.43,-112.5"/>
<text text-anchor="middle" x="196.43" y="-119.5" font-family="Helvetica,sans-Serif" font-size="10.00">fcarouge/utility.hpp</text>
</a>
</g>
</g>
<!-- Node2&#45;&gt;Node5 -->
<g id="edge14" class="edge">
<title>Node2&#45;&gt;Node5</title>
<path fill="none" stroke="midnightblue" d="M287.42,-224.46C267.78,-217.41 242.41,-205.66 225.43,-188 212.88,-174.94 205.19,-155.51 200.92,-141.3"/>
<polygon fill="midnightblue" stroke="midnightblue" points="204.29,-140.37 198.29,-131.64 197.54,-142.21 204.29,-140.37"/>
</g>
<!-- Node7 -->
<g id="node7" class="node">
<title>Node7</title>
<g id="a_node7"><a xlink:title=" ">
<polygon fill="white" stroke="#bfbfbf" points="62.43,-0.5 62.43,-19.5 118.43,-19.5 118.43,-0.5 62.43,-0.5"/>
<text text-anchor="middle" x="90.43" y="-7.5" font-family="Helvetica,sans-Serif" font-size="10.00">concepts</text>
</a>
</g>
</g>
<!-- Node2&#45;&gt;Node7 -->
<g id="edge15" class="edge">
<title>Node2&#45;&gt;Node7</title>
<path fill="none" stroke="midnightblue" d="M262.83,-228.8C194.77,-222.66 81.92,-209.57 46.43,-188 13.46,-167.95 -8.9,-148.22 4.43,-112 17.65,-76.1 49.92,-44.26 70.96,-26.33"/>
<polygon fill="midnightblue" stroke="midnightblue" points="73.46,-28.81 78.94,-19.74 69,-23.41 73.46,-28.81"/>
</g>
<!-- Node8 -->
<g id="node8" class="node">
<title>Node8</title>
<g id="a_node8"><a xlink:title=" ">
<polygon fill="white" stroke="#bfbfbf" points="203.43,-0.5 203.43,-19.5 265.43,-19.5 265.43,-0.5 203.43,-0.5"/>
<text text-anchor="middle" x="234.43" y="-7.5" font-family="Helvetica,sans-Serif" font-size="10.00">type_traits</text>
</a>
</g>
</g>
<!-- Node2&#45;&gt;Node8 -->
<g id="edge18" class="edge">
<title>Node2&#45;&gt;Node8</title>
<path fill="none" stroke="midnightblue" d="M298.29,-224.35C284.71,-216.81 267.06,-204.49 258.43,-188 254.52,-180.51 254.88,-120.44 254.43,-112 253.11,-87.11 256.57,-80.39 251.43,-56 249.5,-46.81 245.98,-37 242.65,-28.9"/>
<polygon fill="midnightblue" stroke="midnightblue" points="245.85,-27.49 238.65,-19.72 239.43,-30.29 245.85,-27.49"/>
</g>
<!-- Node9 -->
<g id="node9" class="node">
<title>Node9</title>
<g id="a_node9"><a xlink:title=" ">
<polygon fill="white" stroke="#bfbfbf" points="334.93,-112.5 334.93,-131.5 383.93,-131.5 383.93,-112.5 334.93,-112.5"/>
<text text-anchor="middle" x="359.43" y="-119.5" font-family="Helvetica,sans-Serif" font-size="10.00">cstddef</text>
</a>
</g>
</g>
<!-- Node2&#45;&gt;Node9 -->
<g id="edge16" class="edge">
<title>Node2&#45;&gt;Node9</title>
<path fill="none" stroke="midnightblue" d="M334.52,-224.39C348,-216.87 365.41,-204.57 373.43,-188 380.66,-173.1 375.39,-154.49 369.36,-141.01"/>
<polygon fill="midnightblue" stroke="midnightblue" points="372.39,-139.23 364.8,-131.84 366.12,-142.35 372.39,-139.23"/>
</g>
<!-- Node11 -->
<g id="node11" class="node">
<title>Node11</title>
<g id="a_node11"><a xlink:href="internal_2kalman_8hpp.xhtml" target="_top" xlink:title=" ">
<polygon fill="white" stroke="black" points="71.93,-168.5 71.93,-187.5 172.93,-187.5 172.93,-168.5 71.93,-168.5"/>
<text text-anchor="middle" x="122.43" y="-175.5" font-family="Helvetica,sans-Serif" font-size="10.00">internal/kalman.hpp</text>
</a>
</g>
</g>
<!-- Node2&#45;&gt;Node11 -->
<g id="edge10" class="edge">
<title>Node2&#45;&gt;Node11</title>
<path fill="none" stroke="midnightblue" d="M285.7,-224.44C252.49,-215.2 199.44,-200.44 162.88,-190.26"/>
<polygon fill="midnightblue" stroke="midnightblue" points="163.6,-186.83 153.03,-187.52 161.73,-193.57 163.6,-186.83"/>
</g>
<!-- Node12 -->
<g id="node12" class="node">
<title>Node12</title>
<g id="a_node12"><a xlink:title=" ">
<polygon fill="white" stroke="#bfbfbf" points="13.93,-112.5 13.93,-131.5 72.93,-131.5 72.93,-112.5 13.93,-112.5"/>
<text text-anchor="middle" x="43.43" y="-119.5" font-family="Helvetica,sans-Serif" font-size="10.00">functional</text>
</a>
</g>
</g>
<!-- Node2&#45;&gt;Node12 -->
<g id="edge17" class="edge">
<title>Node2&#45;&gt;Node12</title>
<path fill="none" stroke="midnightblue" d="M262.74,-230.03C197.14,-225.32 91.28,-213.86 62.43,-188 49.46,-176.37 45.14,-156.42 43.8,-141.68"/>
<polygon fill="midnightblue" stroke="midnightblue" points="47.3,-141.45 43.27,-131.65 40.31,-141.82 47.3,-141.45"/>
</g>
<!-- Node14 -->
<g id="node14" class="node">
<title>Node14</title>
<g id="a_node14"><a xlink:title=" ">
<polygon fill="white" stroke="#bfbfbf" points="421.93,-168.5 421.93,-187.5 460.93,-187.5 460.93,-168.5 421.93,-168.5"/>
<text text-anchor="middle" x="441.43" y="-175.5" font-family="Helvetica,sans-Serif" font-size="10.00">utility</text>
</a>
</g>
</g>
<!-- Node2&#45;&gt;Node14 -->
<g id="edge19" class="edge">
<title>Node2&#45;&gt;Node14</title>
<path fill="none" stroke="midnightblue" d="M336.24,-224.44C356.72,-215.6 388.92,-201.69 412.3,-191.59"/>
<polygon fill="midnightblue" stroke="midnightblue" points="413.93,-194.7 421.72,-187.52 411.15,-188.27 413.93,-194.7"/>
</g>
<!-- Node15 -->
<g id="node15" class="node">
<title>Node15</title>
<g id="a_node15"><a xlink:title=" ">
<polygon fill="white" stroke="#bfbfbf" points="479.43,-168.5 479.43,-187.5 577.43,-187.5 577.43,-168.5 479.43,-168.5"/>
<text text-anchor="middle" x="528.43" y="-175.5" font-family="Helvetica,sans-Serif" font-size="10.00">internal/kalman.tpp</text>
</a>
</g>
</g>
<!-- Node2&#45;&gt;Node15 -->
<g id="edge20" class="edge">
<title>Node2&#45;&gt;Node15</title>
<path fill="none" stroke="midnightblue" d="M350.03,-224.44C386.62,-215.12 445.27,-200.18 485.26,-190"/>
<polygon fill="midnightblue" stroke="midnightblue" points="486.17,-193.38 495,-187.52 484.45,-186.59 486.17,-193.38"/>
</g>
<!-- Node4&#45;&gt;Node5 -->
<g id="edge4" class="edge">
<title>Node4&#45;&gt;Node5</title>
<path fill="none" stroke="midnightblue" d="M297.42,-168.44C277.85,-159.64 247.13,-145.81 224.71,-135.72"/>
<polygon fill="midnightblue" stroke="midnightblue" points="225.92,-132.43 215.36,-131.52 223.04,-138.81 225.92,-132.43"/>
</g>
<!-- Node4&#45;&gt;Node9 -->
<g id="edge8" class="edge">
<title>Node4&#45;&gt;Node9</title>
<path fill="none" stroke="midnightblue" d="M323.54,-168.08C329.67,-160.38 338.7,-149.03 346.17,-139.65"/>
<polygon fill="midnightblue" stroke="midnightblue" points="348.98,-141.75 352.47,-131.75 343.5,-137.39 348.98,-141.75"/>
</g>
<!-- Node4&#45;&gt;Node10 -->
<g id="edge9" class="edge">
<title>Node4&#45;&gt;Node10</title>
<path fill="none" stroke="midnightblue" d="M355.1,-168.44C402.99,-157.84 483.71,-139.98 528.35,-130.1"/>
<polygon fill="midnightblue" stroke="midnightblue" points="529.34,-133.47 538.35,-127.89 527.83,-126.63 529.34,-133.47"/>
</g>
<!-- Node6 -->
<g id="node6" class="node">
<title>Node6</title>
<g id="a_node6"><a xlink:href="internal_2utility_8hpp.xhtml" target="_top" xlink:title=" ">
<polygon fill="white" stroke="black" points="150.43,-56.5 150.43,-75.5 242.43,-75.5 242.43,-56.5 150.43,-56.5"/>
<text text-anchor="middle" x="196.43" y="-63.5" font-family="Helvetica,sans-Serif" font-size="10.00">internal/utility.hpp</text>
</a>
</g>
</g>
<!-- Node5&#45;&gt;Node6 -->
<g id="edge5" class="edge">
<title>Node5&#45;&gt;Node6</title>
<path fill="none" stroke="midnightblue" d="M196.43,-112.08C196.43,-105.01 196.43,-94.86 196.43,-85.99"/>
<polygon fill="midnightblue" stroke="midnightblue" points="199.94,-85.75 196.43,-75.75 192.94,-85.75 199.94,-85.75"/>
</g>
<!-- Node6&#45;&gt;Node7 -->
<g id="edge6" class="edge">
<title>Node6&#45;&gt;Node7</title>
<path fill="none" stroke="midnightblue" d="M179.4,-56.32C162.41,-47.66 136.06,-34.24 116.44,-24.25"/>
<polygon fill="midnightblue" stroke="midnightblue" points="117.92,-21.08 107.42,-19.65 114.75,-27.31 117.92,-21.08"/>
</g>
<!-- Node6&#45;&gt;Node8 -->
<g id="edge7" class="edge">
<title>Node6&#45;&gt;Node8</title>
<path fill="none" stroke="midnightblue" d="M202.71,-56.08C208.08,-48.46 215.95,-37.26 222.51,-27.94"/>
<polygon fill="midnightblue" stroke="midnightblue" points="225.38,-29.94 228.28,-19.75 219.66,-25.91 225.38,-29.94"/>
</g>
<!-- Node11&#45;&gt;Node5 -->
<g id="edge11" class="edge">
<title>Node11&#45;&gt;Node5</title>
<path fill="none" stroke="midnightblue" d="M134.32,-168.32C145.59,-160.11 162.72,-147.6 176.14,-137.81"/>
<polygon fill="midnightblue" stroke="midnightblue" points="178.31,-140.56 184.33,-131.83 174.19,-134.9 178.31,-140.56"/>
</g>
<!-- Node11&#45;&gt;Node12 -->
<g id="edge12" class="edge">
<title>Node11&#45;&gt;Node12</title>
<path fill="none" stroke="midnightblue" d="M109.74,-168.32C97.53,-159.98 78.86,-147.21 64.43,-137.35"/>
<polygon fill="midnightblue" stroke="midnightblue" points="66.33,-134.41 56.1,-131.65 62.38,-140.19 66.33,-134.41"/>
</g>
<!-- Node13 -->
<g id="node13" class="node">
<title>Node13</title>
<g id="a_node13"><a xlink:title=" ">
<polygon fill="white" stroke="#bfbfbf" points="91.43,-112.5 91.43,-131.5 129.43,-131.5 129.43,-112.5 91.43,-112.5"/>
<text text-anchor="middle" x="110.43" y="-119.5" font-family="Helvetica,sans-Serif" font-size="10.00">tuple</text>
</a>
</g>
</g>
<!-- Node11&#45;&gt;Node13 -->
<g id="edge13" class="edge">
<title>Node11&#45;&gt;Node13</title>
<path fill="none" stroke="midnightblue" d="M120.45,-168.08C118.86,-160.93 116.58,-150.64 114.59,-141.69"/>
<polygon fill="midnightblue" stroke="midnightblue" points="117.97,-140.75 112.38,-131.75 111.13,-142.27 117.97,-140.75"/>
</g>
</g>
</svg>
