<?xml version="1.0" encoding="UTF-8" standalone="no"?>
<!DOCTYPE svg PUBLIC "-//W3C//DTD SVG 1.1//EN"
 "http://www.w3.org/Graphics/SVG/1.1/DTD/svg11.dtd">
<!-- Generated by graphviz version 7.0.5 (20221223.1930)
 -->
<!-- Title: /github/workspace/test/kalman_constructor_move_5x4x3.cpp Pages: 1 -->
<!--zoomable 324 -->
<svg id="main" version="1.1" xmlns="http://www.w3.org/2000/svg" xmlns:xlink="http://www.w3.org/1999/xlink" xml:space="preserve" onload="init(evt)">
<style type="text/css"><![CDATA[
.edge:hover path { stroke: red; }
.edge:hover polygon { stroke: red; fill: red; }
]]></style>
<script type="text/javascript"><![CDATA[
var edges = document.getElementsByTagName('g');
if (edges && edges.length) {
  for (var i=0;i<edges.length;i++) {
    if (edges[i].id.substr(0,4)=='edge') {
      edges[i].setAttribute('class','edge');
    }
  }
}
]]></script>
        <defs>
                <circle id="rim" cx="0" cy="0" r="7"/>
                <circle id="rim2" cx="0" cy="0" r="3.5"/>
                <g id="zoomPlus">
                        <use xlink:href="#rim" fill="#404040">
                                <set attributeName="fill" to="#808080" begin="zoomplus.mouseover" end="zoomplus.mouseout"/>
                        </use>
                        <path d="M-4,0h8M0,-4v8" fill="none" stroke="white" stroke-width="1.5" pointer-events="none"/>
                </g>
                <g id="zoomMin">
                        <use xlink:href="#rim" fill="#404040">
                                <set attributeName="fill" to="#808080" begin="zoomminus.mouseover" end="zoomminus.mouseout"/>
                        </use>
                        <path d="M-4,0h8" fill="none" stroke="white" stroke-width="1.5" pointer-events="none"/>
                </g>
                <g id="dirArrow">
                        <path fill="none" stroke="white" stroke-width="1.5" d="M0,-3.0v7 M-2.5,-0.5L0,-3.0L2.5,-0.5"/>
                </g>
               <g id="resetDef">
                       <use xlink:href="#rim2" fill="#404040">
                               <set attributeName="fill" to="#808080" begin="reset.mouseover" end="reset.mouseout"/>
                       </use>
               </g>
        </defs>

<script type="text/javascript">
var viewWidth = 878;
var viewHeight = 324;
var sectionId = 'dynsection-0';
</script>
<script xlink:href="svgpan.js"/>
<svg id="graph" class="graph">
<g id="viewport">
<title>/github/workspace/test/kalman_constructor_move_5x4x3.cpp</title>
<!-- Node1 -->
<g id="node1" class="node">
<title>Node1</title>
<g id="a_node1"><a xlink:title=" ">
<polygon fill="#999999" stroke="#666666" points="781.54,-316 647.54,-316 647.54,-275 781.54,-275 781.54,-316"/>
<text text-anchor="start" x="655.54" y="-304" font-family="Helvetica,sans-Serif" font-size="10.00">/github/workspace/test</text>
<text text-anchor="start" x="655.54" y="-293" font-family="Helvetica,sans-Serif" font-size="10.00">/kalman_constructor_move</text>
<text text-anchor="middle" x="714.54" y="-282" font-family="Helvetica,sans-Serif" font-size="10.00">_5x4x3.cpp</text>
</a>
</g>
</g>
<!-- Node2 -->
<g id="node2" class="node">
<title>Node2</title>
<g id="a_node2"><a xlink:href="kalman_8hpp.xhtml" target="_top" xlink:title="The Kalman filter class and library top&#45;level header.">
<polygon fill="white" stroke="#666666" points="515.04,-239 408.04,-239 408.04,-220 515.04,-220 515.04,-239"/>
<text text-anchor="middle" x="461.54" y="-227" font-family="Helvetica,sans-Serif" font-size="10.00">fcarouge/kalman.hpp</text>
</a>
</g>
</g>
<!-- Node1&#45;&gt;Node2 -->
<g id="edge1" class="edge">
<title>Node1&#45;&gt;Node2</title>
<path fill="none" stroke="#63b8ff" d="M647.07,-277.43C603.11,-266.31 546.88,-252.09 507.9,-242.23"/>
<polygon fill="#63b8ff" stroke="#63b8ff" points="508.91,-238.87 498.36,-239.81 507.2,-245.66 508.91,-238.87"/>
</g>
<!-- Node16 -->
<g id="node16" class="node">
<title>Node16</title>
<g id="a_node16"><a xlink:title=" ">
<polygon fill="#e0e0e0" stroke="#999999" points="829.04,-184 790.04,-184 790.04,-165 829.04,-165 829.04,-184"/>
<text text-anchor="middle" x="809.54" y="-172" font-family="Helvetica,sans-Serif" font-size="10.00">utility</text>
</a>
</g>
</g>
<!-- Node1&#45;&gt;Node16 -->
<g id="edge24" class="edge">
<title>Node1&#45;&gt;Node16</title>
<path fill="none" stroke="#63b8ff" d="M701.3,-274.62C692.49,-258.66 684.4,-236.31 695.54,-220 700.51,-212.72 746.94,-196.18 778.98,-185.45"/>
<polygon fill="#63b8ff" stroke="#63b8ff" points="779.8,-188.86 788.19,-182.39 777.6,-182.22 779.8,-188.86"/>
</g>
<!-- Node18 -->
<g id="node18" class="node">
<title>Node18</title>
<g id="a_node18"><a xlink:title=" ">
<polygon fill="#e0e0e0" stroke="#999999" points="802.54,-239 704.54,-239 704.54,-220 802.54,-220 802.54,-239"/>
<text text-anchor="middle" x="753.54" y="-227" font-family="Helvetica,sans-Serif" font-size="10.00">fcarouge/linalg.hpp</text>
</a>
</g>
</g>
<!-- Node1&#45;&gt;Node18 -->
<g id="edge22" class="edge">
<title>Node1&#45;&gt;Node18</title>
<path fill="none" stroke="#63b8ff" d="M726.67,-274.6C731.7,-266.33 737.51,-256.8 742.44,-248.72"/>
<polygon fill="#63b8ff" stroke="#63b8ff" points="745.26,-250.82 747.47,-240.45 739.28,-247.17 745.26,-250.82"/>
</g>
<!-- Node19 -->
<g id="node19" class="node">
<title>Node19</title>
<g id="a_node19"><a xlink:title=" ">
<polygon fill="#e0e0e0" stroke="#999999" points="870.04,-239 821.04,-239 821.04,-220 870.04,-220 870.04,-239"/>
<text text-anchor="middle" x="845.54" y="-227" font-family="Helvetica,sans-Serif" font-size="10.00">cassert</text>
</a>
</g>
</g>
<!-- Node1&#45;&gt;Node19 -->
<g id="edge23" class="edge">
<title>Node1&#45;&gt;Node19</title>
<path fill="none" stroke="#63b8ff" d="M755.27,-274.6C775.39,-264.77 799.17,-253.15 817.27,-244.31"/>
<polygon fill="#63b8ff" stroke="#63b8ff" points="818.66,-247.53 826.11,-240 815.58,-241.24 818.66,-247.53"/>
</g>
<!-- Node3 -->
<g id="node3" class="node">
<title>Node3</title>
<g id="a_node3"><a xlink:href="algorithm_8hpp.xhtml" target="_top" xlink:title="The collection of Kalman algorithms.">
<polygon fill="white" stroke="#666666" points="771.54,-184 697.54,-184 697.54,-165 771.54,-165 771.54,-184"/>
<text text-anchor="middle" x="734.54" y="-172" font-family="Helvetica,sans-Serif" font-size="10.00">algorithm.hpp</text>
</a>
</g>
</g>
<!-- Node2&#45;&gt;Node3 -->
<g id="edge2" class="edge">
<title>Node2&#45;&gt;Node3</title>
<path fill="none" stroke="#63b8ff" d="M507.85,-219.51C557.39,-209.89 635.61,-194.71 685.99,-184.93"/>
<polygon fill="#63b8ff" stroke="#63b8ff" points="686.6,-188.37 695.75,-183.03 685.26,-181.5 686.6,-188.37"/>
</g>
<!-- Node4 -->
<g id="node4" class="node">
<title>Node4</title>
<g id="a_node4"><a xlink:href="format_8hpp.xhtml" target="_top" xlink:title=" ">
<polygon fill="white" stroke="#666666" points="210.04,-184 113.04,-184 113.04,-165 210.04,-165 210.04,-184"/>
<text text-anchor="middle" x="161.54" y="-172" font-family="Helvetica,sans-Serif" font-size="10.00">internal/format.hpp</text>
</a>
</g>
</g>
<!-- Node2&#45;&gt;Node4 -->
<g id="edge3" class="edge">
<title>Node2&#45;&gt;Node4</title>
<path fill="none" stroke="#63b8ff" d="M410.65,-219.51C358.26,-210.25 276.67,-195.84 221.25,-186.05"/>
<polygon fill="#63b8ff" stroke="#63b8ff" points="222.14,-182.65 211.68,-184.36 220.92,-189.54 222.14,-182.65"/>
</g>
<!-- Node5 -->
<g id="node5" class="node">
<title>Node5</title>
<g id="a_node5"><a xlink:href="utility_8hpp.xhtml" target="_top" xlink:title="The collection of utilities supporting the library.">
<polygon fill="white" stroke="#666666" points="112.54,-129 14.54,-129 14.54,-110 112.54,-110 112.54,-129"/>
<text text-anchor="middle" x="63.54" y="-117" font-family="Helvetica,sans-Serif" font-size="10.00">fcarouge/utility.hpp</text>
</a>
</g>
</g>
<!-- Node2&#45;&gt;Node5 -->
<g id="edge15" class="edge">
<title>Node2&#45;&gt;Node5</title>
<path fill="none" stroke="#63b8ff" d="M407.61,-227.37C320.31,-224.63 152.83,-215.33 103.54,-184 87.4,-173.74 76.62,-154.38 70.36,-139.72"/>
<polygon fill="#63b8ff" stroke="#63b8ff" points="73.72,-138.7 66.84,-130.64 67.19,-141.23 73.72,-138.7"/>
</g>
<!-- Node7 -->
<g id="node7" class="node">
<title>Node7</title>
<g id="a_node7"><a xlink:title=" ">
<polygon fill="#e0e0e0" stroke="#999999" points="85.54,-19 29.54,-19 29.54,0 85.54,0 85.54,-19"/>
<text text-anchor="middle" x="57.54" y="-7" font-family="Helvetica,sans-Serif" font-size="10.00">concepts</text>
</a>
</g>
</g>
<!-- Node2&#45;&gt;Node7 -->
<g id="edge16" class="edge">
<title>Node2&#45;&gt;Node7</title>
<path fill="none" stroke="#63b8ff" d="M407.66,-225.55C317.38,-220.04 139.72,-206.67 81.54,-184 42.69,-168.86 24.5,-166.13 5.54,-129 -12.5,-93.67 19.08,-50.71 40.42,-27.44"/>
<polygon fill="#63b8ff" stroke="#63b8ff" points="42.79,-30.02 47.18,-20.38 37.74,-25.18 42.79,-30.02"/>
</g>
<!-- Node8 -->
<g id="node8" class="node">
<title>Node8</title>
<g id="a_node8"><a xlink:title=" ">
<polygon fill="#e0e0e0" stroke="#999999" points="233.54,-19 171.54,-19 171.54,0 233.54,0 233.54,-19"/>
<text text-anchor="middle" x="202.54" y="-7" font-family="Helvetica,sans-Serif" font-size="10.00">type_traits</text>
</a>
</g>
</g>
<!-- Node2&#45;&gt;Node8 -->
<g id="edge19" class="edge">
<title>Node2&#45;&gt;Node8</title>
<path fill="none" stroke="#63b8ff" d="M453.08,-219.67C445.37,-211.17 434.21,-197.62 427.54,-184 401.48,-130.74 436.07,-96.32 393.54,-55 372.74,-34.79 295.05,-21.77 245.4,-15.32"/>
<polygon fill="#63b8ff" stroke="#63b8ff" points="245.9,-11.86 235.54,-14.09 245.02,-18.81 245.9,-11.86"/>
</g>
<!-- Node10 -->
<g id="node10" class="node">
<title>Node10</title>
<g id="a_node10"><a xlink:href="internal_2kalman_8hpp.xhtml" target="_top" xlink:title=" ">
<polygon fill="white" stroke="#666666" points="352.04,-184 251.04,-184 251.04,-165 352.04,-165 352.04,-184"/>
<text text-anchor="middle" x="301.54" y="-172" font-family="Helvetica,sans-Serif" font-size="10.00">internal/kalman.hpp</text>
</a>
</g>
</g>
<!-- Node2&#45;&gt;Node10 -->
<g id="edge10" class="edge">
<title>Node2&#45;&gt;Node10</title>
<path fill="none" stroke="#63b8ff" d="M434.4,-219.51C408.23,-210.84 368.41,-197.65 339.18,-187.97"/>
<polygon fill="#63b8ff" stroke="#63b8ff" points="340.58,-184.74 329.99,-184.92 338.38,-191.39 340.58,-184.74"/>
</g>
<!-- Node14 -->
<g id="node14" class="node">
<title>Node14</title>
<g id="a_node14"><a xlink:title=" ">
<polygon fill="#e0e0e0" stroke="#999999" points="486.04,-184 437.04,-184 437.04,-165 486.04,-165 486.04,-184"/>
<text text-anchor="middle" x="461.54" y="-172" font-family="Helvetica,sans-Serif" font-size="10.00">cstddef</text>
</a>
</g>
</g>
<!-- Node2&#45;&gt;Node14 -->
<g id="edge17" class="edge">
<title>Node2&#45;&gt;Node14</title>
<path fill="none" stroke="#63b8ff" d="M461.54,-219.75C461.54,-213.27 461.54,-204.16 461.54,-195.9"/>
<polygon fill="#63b8ff" stroke="#63b8ff" points="465.04,-195.96 461.54,-185.96 458.04,-195.96 465.04,-195.96"/>
</g>
<!-- Node15 -->
<g id="node15" class="node">
<title>Node15</title>
<g id="a_node15"><a xlink:title=" ">
<polygon fill="#e0e0e0" stroke="#999999" points="563.04,-184 504.04,-184 504.04,-165 563.04,-165 563.04,-184"/>
<text text-anchor="middle" x="533.54" y="-172" font-family="Helvetica,sans-Serif" font-size="10.00">functional</text>
</a>
</g>
</g>
<!-- Node2&#45;&gt;Node15 -->
<g id="edge18" class="edge">
<title>Node2&#45;&gt;Node15</title>
<path fill="none" stroke="#63b8ff" d="M473.75,-219.51C484.37,-211.7 499.98,-200.21 512.58,-190.93"/>
<polygon fill="#63b8ff" stroke="#63b8ff" points="514.31,-194 520.29,-185.26 510.16,-188.36 514.31,-194"/>
</g>
<!-- Node2&#45;&gt;Node16 -->
<g id="edge20" class="edge">
<title>Node2&#45;&gt;Node16</title>
<path fill="none" stroke="#63b8ff" d="M515.3,-223.43C576.74,-217.1 680.45,-204.77 778.65,-184.1"/>
<polygon fill="#63b8ff" stroke="#63b8ff" points="779.15,-187.57 788.19,-182.06 777.68,-180.73 779.15,-187.57"/>
</g>
<!-- Node17 -->
<g id="node17" class="node">
<title>Node17</title>
<g id="a_node17"><a xlink:title=" ">
<polygon fill="#e0e0e0" stroke="#999999" points="679.54,-184 581.54,-184 581.54,-165 679.54,-165 679.54,-184"/>
<text text-anchor="middle" x="630.54" y="-172" font-family="Helvetica,sans-Serif" font-size="10.00">internal/kalman.tpp</text>
</a>
</g>
</g>
<!-- Node2&#45;&gt;Node17 -->
<g id="edge21" class="edge">
<title>Node2&#45;&gt;Node17</title>
<path fill="none" stroke="#63b8ff" d="M490.21,-219.51C517.97,-210.8 560.29,-197.53 591.19,-187.84"/>
<polygon fill="#63b8ff" stroke="#63b8ff" points="592.08,-191.23 600.57,-184.9 589.98,-184.55 592.08,-191.23"/>
</g>
<!-- Node4&#45;&gt;Node5 -->
<g id="edge4" class="edge">
<title>Node4&#45;&gt;Node5</title>
<path fill="none" stroke="#63b8ff" d="M144.92,-164.51C129.76,-156.31 107.13,-144.07 89.57,-134.58"/>
<polygon fill="#63b8ff" stroke="#63b8ff" points="91.71,-131.76 81.25,-130.08 88.38,-137.91 91.71,-131.76"/>
</g>
<!-- Node4&#45;&gt;Node8 -->
<g id="edge9" class="edge">
<title>Node4&#45;&gt;Node8</title>
<path fill="none" stroke="#63b8ff" d="M166.92,-164.63C171.99,-155.88 179.4,-141.97 183.54,-129 194.24,-95.51 199.09,-54.68 201.15,-30.74"/>
<polygon fill="#63b8ff" stroke="#63b8ff" points="204.64,-31.08 201.91,-20.84 197.66,-30.54 204.64,-31.08"/>
</g>
<!-- Node9 -->
<g id="node9" class="node">
<title>Node9</title>
<g id="a_node9"><a xlink:title=" ">
<polygon fill="#e0e0e0" stroke="#999999" points="174.54,-129 130.54,-129 130.54,-110 174.54,-110 174.54,-129"/>
<text text-anchor="middle" x="152.54" y="-117" font-family="Helvetica,sans-Serif" font-size="10.00">format</text>
</a>
</g>
</g>
<!-- Node4&#45;&gt;Node9 -->
<g id="edge8" class="edge">
<title>Node4&#45;&gt;Node9</title>
<path fill="none" stroke="#63b8ff" d="M160.05,-164.75C158.94,-158.19 157.37,-148.95 155.95,-140.6"/>
<polygon fill="#63b8ff" stroke="#63b8ff" points="159.44,-140.21 154.31,-130.93 152.54,-141.38 159.44,-140.21"/>
</g>
<!-- Node6 -->
<g id="node6" class="node">
<title>Node6</title>
<g id="a_node6"><a xlink:href="internal_2utility_8hpp.xhtml" target="_top" xlink:title=" ">
<polygon fill="white" stroke="#666666" points="141.54,-74 49.54,-74 49.54,-55 141.54,-55 141.54,-74"/>
<text text-anchor="middle" x="95.54" y="-62" font-family="Helvetica,sans-Serif" font-size="10.00">internal/utility.hpp</text>
</a>
</g>
</g>
<!-- Node5&#45;&gt;Node6 -->
<g id="edge5" class="edge">
<title>Node5&#45;&gt;Node6</title>
<path fill="none" stroke="#63b8ff" d="M68.83,-109.75C73.02,-102.81 79.02,-92.86 84.28,-84.16"/>
<polygon fill="#63b8ff" stroke="#63b8ff" points="87.19,-86.11 89.36,-75.74 81.19,-82.49 87.19,-86.11"/>
</g>
<!-- Node6&#45;&gt;Node7 -->
<g id="edge6" class="edge">
<title>Node6&#45;&gt;Node7</title>
<path fill="none" stroke="#63b8ff" d="M89.27,-54.75C84.18,-47.66 76.85,-37.42 70.51,-28.59"/>
<polygon fill="#63b8ff" stroke="#63b8ff" points="73.51,-26.76 64.83,-20.67 67.82,-30.84 73.51,-26.76"/>
</g>
<!-- Node6&#45;&gt;Node8 -->
<g id="edge7" class="edge">
<title>Node6&#45;&gt;Node8</title>
<path fill="none" stroke="#63b8ff" d="M113.69,-54.51C130.32,-46.27 155.18,-33.96 174.39,-24.45"/>
<polygon fill="#63b8ff" stroke="#63b8ff" points="175.89,-27.6 183.3,-20.03 172.79,-21.33 175.89,-27.6"/>
</g>
<!-- Node10&#45;&gt;Node6 -->
<g id="edge13" class="edge">
<title>Node10&#45;&gt;Node6</title>
<path fill="none" stroke="#63b8ff" d="M285.19,-164.53C262.48,-152.11 220.05,-129.05 183.54,-110 163.56,-99.57 140.85,-88.1 123.51,-79.41"/>
<polygon fill="#63b8ff" stroke="#63b8ff" points="125.34,-76.42 114.83,-75.08 122.21,-82.68 125.34,-76.42"/>
</g>
<!-- Node11 -->
<g id="node11" class="node">
<title>Node11</title>
<g id="a_node11"><a xlink:href="function_8hpp.xhtml" target="_top" xlink:title=" ">
<polygon fill="white" stroke="#666666" points="394.04,-129 325.04,-129 325.04,-110 394.04,-110 394.04,-129"/>
<text text-anchor="middle" x="359.54" y="-117" font-family="Helvetica,sans-Serif" font-size="10.00">function.hpp</text>
</a>
</g>
</g>
<!-- Node10&#45;&gt;Node11 -->
<g id="edge11" class="edge">
<title>Node10&#45;&gt;Node11</title>
<path fill="none" stroke="#63b8ff" d="M311.38,-164.51C319.6,-157 331.52,-146.1 341.45,-137.03"/>
<polygon fill="#63b8ff" stroke="#63b8ff" points="343.71,-139.71 348.73,-130.38 338.99,-134.54 343.71,-139.71"/>
</g>
<!-- Node13 -->
<g id="node13" class="node">
<title>Node13</title>
<g id="a_node13"><a xlink:title=" ">
<polygon fill="#e0e0e0" stroke="#999999" points="306.54,-129 268.54,-129 268.54,-110 306.54,-110 306.54,-129"/>
<text text-anchor="middle" x="287.54" y="-117" font-family="Helvetica,sans-Serif" font-size="10.00">tuple</text>
</a>
</g>
</g>
<!-- Node10&#45;&gt;Node13 -->
<g id="edge14" class="edge">
<title>Node10&#45;&gt;Node13</title>
<path fill="none" stroke="#63b8ff" d="M299.23,-164.75C297.48,-158.11 295,-148.73 292.77,-140.31"/>
<polygon fill="#63b8ff" stroke="#63b8ff" points="296.23,-139.68 290.29,-130.91 289.46,-141.47 296.23,-139.68"/>
</g>
<!-- Node12 -->
<g id="node12" class="node">
<title>Node12</title>
<g id="a_node12"><a xlink:title=" ">
<polygon fill="#e0e0e0" stroke="#999999" points="385.04,-74 334.04,-74 334.04,-55 385.04,-55 385.04,-74"/>
<text text-anchor="middle" x="359.54" y="-62" font-family="Helvetica,sans-Serif" font-size="10.00">memory</text>
</a>
</g>
</g>
<!-- Node11&#45;&gt;Node12 -->
<g id="edge12" class="edge">
<title>Node11&#45;&gt;Node12</title>
<path fill="none" stroke="#63b8ff" d="M359.54,-109.75C359.54,-103.27 359.54,-94.16 359.54,-85.9"/>
<polygon fill="#63b8ff" stroke="#63b8ff" points="363.04,-85.96 359.54,-75.96 356.04,-85.96 363.04,-85.96"/>
</g>
</g>
</svg>
        <g id="navigator" transform="translate(0 0)" fill="#404254">
                <rect fill="#f2f5e9" fill-opacity="0.5" stroke="#606060" stroke-width=".5" x="0" y="0" width="60" height="60"/>
                <use id="zoomplus" xlink:href="#zoomPlus" x="17" y="9" onmousedown="handleZoom(evt,'in')"/>
                <use id="zoomminus" xlink:href="#zoomMin" x="42" y="9" onmousedown="handleZoom(evt,'out')"/>
                <use id="reset" xlink:href="#resetDef" x="30" y="36" onmousedown="handleReset()"/>
                <g id="arrowUp" xlink:href="#dirArrow" transform="translate(30 24)" onmousedown="handlePan(0,-1)">
                  <use xlink:href="#rim" fill="#404040">
                        <set attributeName="fill" to="#808080" begin="arrowUp.mouseover" end="arrowUp.mouseout"/>
                  </use>
                  <path fill="none" stroke="white" stroke-width="1.5" d="M0,-3.0v7 M-2.5,-0.5L0,-3.0L2.5,-0.5"/>
                </g>
                <g id="arrowRight" xlink:href="#dirArrow" transform="rotate(90) translate(36 -43)" onmousedown="handlePan(1,0)">
                  <use xlink:href="#rim" fill="#404040">
                        <set attributeName="fill" to="#808080" begin="arrowRight.mouseover" end="arrowRight.mouseout"/>
                  </use>
                  <path fill="none" stroke="white" stroke-width="1.5" d="M0,-3.0v7 M-2.5,-0.5L0,-3.0L2.5,-0.5"/>
                </g>
                <g id="arrowDown" xlink:href="#dirArrow" transform="rotate(180) translate(-30 -48)" onmousedown="handlePan(0,1)">
                  <use xlink:href="#rim" fill="#404040">
                        <set attributeName="fill" to="#808080" begin="arrowDown.mouseover" end="arrowDown.mouseout"/>
                  </use>
                  <path fill="none" stroke="white" stroke-width="1.5" d="M0,-3.0v7 M-2.5,-0.5L0,-3.0L2.5,-0.5"/>
                </g>
                <g id="arrowLeft" xlink:href="#dirArrow" transform="rotate(270) translate(-36 17)" onmousedown="handlePan(-1,0)">
                  <use xlink:href="#rim" fill="#404040">
                        <set attributeName="fill" to="#808080" begin="arrowLeft.mouseover" end="arrowLeft.mouseout"/>
                  </use>
                  <path fill="none" stroke="white" stroke-width="1.5" d="M0,-3.0v7 M-2.5,-0.5L0,-3.0L2.5,-0.5"/>
                </g>
        </g>
        <svg viewBox="0 0 15 15" width="100%" height="30px" preserveAspectRatio="xMaxYMin meet">
         <g id="arrow_out" transform="scale(0.3 0.3)">
          <a xlink:href="kalman__constructor__move__5x4x3_8cpp__incl_org.svg" target="_base">
           <rect id="button" ry="5" rx="5" y="6" x="6" height="38" width="38"
                fill="#f2f5e9" fill-opacity="0.5" stroke="#606060" stroke-width="1.0"/>
           <path id="arrow"
             d="M 11.500037,31.436501 C 11.940474,20.09759 22.043105,11.32322 32.158766,21.979434 L 37.068811,17.246167 C 37.068811,17.246167 37.088388,32 37.088388,32 L 22.160133,31.978069 C 22.160133,31.978069 26.997745,27.140456 26.997745,27.140456 C 18.528582,18.264221 13.291696,25.230495 11.500037,31.436501 z"
             style="fill:#404040;"/>
          </a>
         </g>
        </svg>
</svg>
