<?xml version="1.0" encoding="UTF-8" standalone="no"?>
<!DOCTYPE svg PUBLIC "-//W3C//DTD SVG 1.1//EN"
 "http://www.w3.org/Graphics/SVG/1.1/DTD/svg11.dtd">
<!-- Generated by graphviz version 12.2.0 (20241103.1931)
 -->
<!-- Title: /github/workspace/test/kalman_assign_move_5x4x3.cpp Pages: 1 -->
<svg width="1771pt" height="326pt"
 viewBox="0.00 0.00 1770.62 326.00" xmlns="http://www.w3.org/2000/svg" xmlns:xlink="http://www.w3.org/1999/xlink">
<g id="graph0" class="graph" transform="scale(1 1) rotate(0) translate(4 322)">
<title>/github/workspace/test/kalman_assign_move_5x4x3.cpp</title>
<!-- Node1 -->
<g id="Node000001" class="node">
<title>Node1</title>
<g id="a_Node000001"><a xlink:title=" ">
<polygon fill="#999999" stroke="#666666" points="1689.25,-318 1527.75,-318 1527.75,-287.5 1689.25,-287.5 1689.25,-318"/>
<text text-anchor="start" x="1535.75" y="-304.5" font-family="Helvetica,sans-Serif" font-size="10.00">/github/workspace/test</text>
<text text-anchor="middle" x="1608.5" y="-293.25" font-family="Helvetica,sans-Serif" font-size="10.00">/kalman_assign_move_5x4x3.cpp</text>
</a>
</g>
</g>
<!-- Node2 -->
<g id="Node000002" class="node">
<title>Node2</title>
<g id="a_Node000002"><a xlink:href="kalman_8hpp.xhtml" target="_top" xlink:title="The Kalman filter class and library top&#45;level header.">
<polygon fill="white" stroke="#666666" points="1241.5,-251.5 1135.5,-251.5 1135.5,-232.25 1241.5,-232.25 1241.5,-251.5"/>
<text text-anchor="middle" x="1188.5" y="-238" font-family="Helvetica,sans-Serif" font-size="10.00">fcarouge/kalman.hpp</text>
</a>
</g>
</g>
<!-- Node1&#45;&gt;Node2 -->
<g id="edge1_Node000001_Node000002" class="edge">
<title>Node1&#45;&gt;Node2</title>
<g id="a_edge1_Node000001_Node000002"><a xlink:title=" ">
<path fill="none" stroke="#63b8ff" d="M1527.52,-290.4C1447.48,-279.18 1326.62,-262.24 1252.9,-251.9"/>
<polygon fill="#63b8ff" stroke="#63b8ff" points="1253.82,-248.5 1243.43,-250.58 1252.85,-255.43 1253.82,-248.5"/>
</a>
</g>
</g>
<!-- Node11 -->
<g id="Node000011" class="node">
<title>Node11</title>
<g id="a_Node000011"><a xlink:title=" ">
<polygon fill="#e0e0e0" stroke="#999999" points="1444.75,-19.25 1406.25,-19.25 1406.25,0 1444.75,0 1444.75,-19.25"/>
<text text-anchor="middle" x="1425.5" y="-5.75" font-family="Helvetica,sans-Serif" font-size="10.00">utility</text>
</a>
</g>
</g>
<!-- Node1&#45;&gt;Node11 -->
<g id="edge55_Node000001_Node000011" class="edge">
<title>Node1&#45;&gt;Node11</title>
<g id="a_edge55_Node000001_Node000011"><a xlink:title=" ">
<path fill="none" stroke="#63b8ff" d="M1600.25,-287.13C1589.08,-265.91 1570.5,-225.01 1570.5,-187.62 1570.5,-187.62 1570.5,-187.62 1570.5,-124.75 1570.5,-66.94 1498.45,-33.92 1455.93,-19.47"/>
<polygon fill="#63b8ff" stroke="#63b8ff" points="1457.09,-16.17 1446.5,-16.43 1454.94,-22.83 1457.09,-16.17"/>
</a>
</g>
</g>
<!-- Node29 -->
<g id="Node000029" class="node">
<title>Node29</title>
<g id="a_Node000029"><a xlink:title=" ">
<polygon fill="#e0e0e0" stroke="#999999" points="1696,-251.5 1599,-251.5 1599,-232.25 1696,-232.25 1696,-251.5"/>
<text text-anchor="middle" x="1647.5" y="-238" font-family="Helvetica,sans-Serif" font-size="10.00">fcarouge/linalg.hpp</text>
</a>
</g>
</g>
<!-- Node1&#45;&gt;Node29 -->
<g id="edge53_Node000001_Node000029" class="edge">
<title>Node1&#45;&gt;Node29</title>
<g id="a_edge53_Node000001_Node000029"><a xlink:title=" ">
<path fill="none" stroke="#63b8ff" d="M1618.14,-287.2C1623.28,-279.44 1629.66,-269.81 1635.15,-261.51"/>
<polygon fill="#63b8ff" stroke="#63b8ff" points="1638.05,-263.48 1640.65,-253.21 1632.21,-259.62 1638.05,-263.48"/>
</a>
</g>
</g>
<!-- Node30 -->
<g id="Node000030" class="node">
<title>Node30</title>
<g id="a_Node000030"><a xlink:title=" ">
<polygon fill="#e0e0e0" stroke="#999999" points="1762.62,-251.5 1714.38,-251.5 1714.38,-232.25 1762.62,-232.25 1762.62,-251.5"/>
<text text-anchor="middle" x="1738.5" y="-238" font-family="Helvetica,sans-Serif" font-size="10.00">cassert</text>
</a>
</g>
</g>
<!-- Node1&#45;&gt;Node30 -->
<g id="edge54_Node000001_Node000030" class="edge">
<title>Node1&#45;&gt;Node30</title>
<g id="a_edge54_Node000001_Node000030"><a xlink:title=" ">
<path fill="none" stroke="#63b8ff" d="M1640.97,-287.05C1661.53,-277.73 1687.94,-265.77 1708.09,-256.65"/>
<polygon fill="#63b8ff" stroke="#63b8ff" points="1709.52,-259.84 1717.18,-252.53 1706.63,-253.47 1709.52,-259.84"/>
</a>
</g>
</g>
<!-- Node3 -->
<g id="Node000003" class="node">
<title>Node3</title>
<g id="a_Node000003"><a xlink:href="kalman__forward_8hpp.xhtml" target="_top" xlink:title="Authoritative forward declaration header.">
<polygon fill="white" stroke="#666666" points="1240,-196.25 1137,-196.25 1137,-177 1240,-177 1240,-196.25"/>
<text text-anchor="middle" x="1188.5" y="-182.75" font-family="Helvetica,sans-Serif" font-size="10.00">kalman_forward.hpp</text>
</a>
</g>
</g>
<!-- Node2&#45;&gt;Node3 -->
<g id="edge2_Node000002_Node000003" class="edge">
<title>Node2&#45;&gt;Node3</title>
<g id="a_edge2_Node000002_Node000003"><a xlink:title=" ">
<path fill="none" stroke="#63b8ff" d="M1188.5,-232.08C1188.5,-225.57 1188.5,-216.42 1188.5,-208.12"/>
<polygon fill="#63b8ff" stroke="#63b8ff" points="1192,-208.12 1188.5,-198.12 1185,-208.12 1192,-208.12"/>
</a>
</g>
</g>
<!-- Node4 -->
<g id="Node000004" class="node">
<title>Node4</title>
<g id="a_Node000004"><a xlink:href="factory_8hpp.xhtml" target="_top" xlink:title=" ">
<polygon fill="white" stroke="#666666" points="776.75,-196.25 642.25,-196.25 642.25,-177 776.75,-177 776.75,-196.25"/>
<text text-anchor="middle" x="709.5" y="-182.75" font-family="Helvetica,sans-Serif" font-size="10.00">kalman_internal/factory.hpp</text>
</a>
</g>
</g>
<!-- Node2&#45;&gt;Node4 -->
<g id="edge3_Node000002_Node000004" class="edge">
<title>Node2&#45;&gt;Node4</title>
<g id="a_edge3_Node000002_Node000004"><a xlink:title=" ">
<path fill="none" stroke="#63b8ff" d="M1135.41,-234.97C1051.18,-225.61 886.44,-207.29 788.37,-196.39"/>
<polygon fill="#63b8ff" stroke="#63b8ff" points="788.87,-192.93 778.54,-195.3 788.1,-199.88 788.87,-192.93"/>
</a>
</g>
</g>
<!-- Node6 -->
<g id="Node000006" class="node">
<title>Node6</title>
<g id="a_Node000006"><a xlink:href="utility_8hpp.xhtml" target="_top" xlink:title=" ">
<polygon fill="white" stroke="#666666" points="831.75,-74.5 775.25,-74.5 775.25,-55.25 831.75,-55.25 831.75,-74.5"/>
<text text-anchor="middle" x="803.5" y="-61" font-family="Helvetica,sans-Serif" font-size="10.00">utility.hpp</text>
</a>
</g>
</g>
<!-- Node2&#45;&gt;Node6 -->
<g id="edge51_Node000002_Node000006" class="edge">
<title>Node2&#45;&gt;Node6</title>
<g id="a_edge51_Node000002_Node000006"><a xlink:title=" ">
<path fill="none" stroke="#63b8ff" d="M1171.82,-231.91C1157.39,-223.7 1136.39,-210.67 1120.5,-196.25 1084.28,-163.37 1093.57,-135.47 1051.5,-110.5 1016.94,-89.99 904.22,-75.93 843.35,-69.63"/>
<polygon fill="#63b8ff" stroke="#63b8ff" points="843.71,-66.15 833.41,-68.63 843.01,-73.11 843.71,-66.15"/>
</a>
</g>
</g>
<!-- Node24 -->
<g id="Node000024" class="node">
<title>Node24</title>
<g id="a_Node000024"><a xlink:href="format_8hpp.xhtml" target="_top" xlink:title="Formatting support for the Kalman filter.">
<polygon fill="white" stroke="#666666" points="1340,-135.38 1207,-135.38 1207,-116.12 1340,-116.12 1340,-135.38"/>
<text text-anchor="middle" x="1273.5" y="-121.88" font-family="Helvetica,sans-Serif" font-size="10.00">kalman_internal/format.hpp</text>
</a>
</g>
</g>
<!-- Node2&#45;&gt;Node24 -->
<g id="edge44_Node000002_Node000024" class="edge">
<title>Node2&#45;&gt;Node24</title>
<g id="a_edge44_Node000002_Node000024"><a xlink:title=" ">
<path fill="none" stroke="#63b8ff" d="M1168.86,-231.85C1146,-220.08 1113.24,-198.44 1128.5,-177 1139.49,-161.56 1183.06,-147.76 1219.59,-138.55"/>
<polygon fill="#63b8ff" stroke="#63b8ff" points="1220.31,-141.97 1229.19,-136.2 1218.64,-135.18 1220.31,-141.97"/>
</a>
</g>
</g>
<!-- Node26 -->
<g id="Node000026" class="node">
<title>Node26</title>
<g id="a_Node000026"><a xlink:href="printer_8hpp.xhtml" target="_top" xlink:title="Filter decoration support for printing operations.">
<polygon fill="white" stroke="#666666" points="1390.62,-196.25 1258.38,-196.25 1258.38,-177 1390.62,-177 1390.62,-196.25"/>
<text text-anchor="middle" x="1324.5" y="-182.75" font-family="Helvetica,sans-Serif" font-size="10.00">kalman_internal/printer.hpp</text>
</a>
</g>
</g>
<!-- Node2&#45;&gt;Node26 -->
<g id="edge49_Node000002_Node000026" class="edge">
<title>Node2&#45;&gt;Node26</title>
<g id="a_edge49_Node000002_Node000026"><a xlink:title=" ">
<path fill="none" stroke="#63b8ff" d="M1211.57,-231.84C1233.26,-223.35 1265.98,-210.54 1290.63,-200.89"/>
<polygon fill="#63b8ff" stroke="#63b8ff" points="1291.87,-204.16 1299.91,-197.25 1289.32,-197.64 1291.87,-204.16"/>
</a>
</g>
</g>
<!-- Node28 -->
<g id="Node000028" class="node">
<title>Node28</title>
<g id="a_Node000028"><a xlink:title=" ">
<polygon fill="#e0e0e0" stroke="#999999" points="1542.75,-196.25 1408.25,-196.25 1408.25,-177 1542.75,-177 1542.75,-196.25"/>
<text text-anchor="middle" x="1475.5" y="-182.75" font-family="Helvetica,sans-Serif" font-size="10.00">kalman_internal/kalman.tpp</text>
</a>
</g>
</g>
<!-- Node2&#45;&gt;Node28 -->
<g id="edge52_Node000002_Node000028" class="edge">
<title>Node2&#45;&gt;Node28</title>
<g id="a_edge52_Node000002_Node000028"><a xlink:title=" ">
<path fill="none" stroke="#63b8ff" d="M1237.51,-231.78C1286.73,-222.65 1362.65,-208.56 1415.46,-198.76"/>
<polygon fill="#63b8ff" stroke="#63b8ff" points="1416.01,-202.22 1425.2,-196.96 1414.73,-195.34 1416.01,-202.22"/>
</a>
</g>
</g>
<!-- Node5 -->
<g id="Node000005" class="node">
<title>Node5</title>
<g id="a_Node000005"><a xlink:href="type_8hpp.xhtml" target="_top" xlink:title=" ">
<polygon fill="white" stroke="#666666" points="1150.5,-135.38 1098.5,-135.38 1098.5,-116.12 1150.5,-116.12 1150.5,-135.38"/>
<text text-anchor="middle" x="1124.5" y="-121.88" font-family="Helvetica,sans-Serif" font-size="10.00">type.hpp</text>
</a>
</g>
</g>
<!-- Node4&#45;&gt;Node5 -->
<g id="edge4_Node000004_Node000005" class="edge">
<title>Node4&#45;&gt;Node5</title>
<g id="a_edge4_Node000004_Node000005"><a xlink:title=" ">
<path fill="none" stroke="#63b8ff" d="M777.17,-178.07C846.3,-170.05 956.64,-156.43 1051.5,-141 1063.16,-139.1 1075.81,-136.74 1087.26,-134.49"/>
<polygon fill="#63b8ff" stroke="#63b8ff" points="1087.61,-137.99 1096.73,-132.59 1086.24,-131.12 1087.61,-137.99"/>
</a>
</g>
</g>
<!-- Node7 -->
<g id="Node000007" class="node">
<title>Node7</title>
<g id="a_Node000007"><a xlink:title=" ">
<polygon fill="#e0e0e0" stroke="#999999" points="751.38,-19.25 695.62,-19.25 695.62,0 751.38,0 751.38,-19.25"/>
<text text-anchor="middle" x="723.5" y="-5.75" font-family="Helvetica,sans-Serif" font-size="10.00">concepts</text>
</a>
</g>
</g>
<!-- Node4&#45;&gt;Node7 -->
<g id="edge42_Node000004_Node000007" class="edge">
<title>Node4&#45;&gt;Node7</title>
<g id="a_edge42_Node000004_Node000007"><a xlink:title=" ">
<path fill="none" stroke="#63b8ff" d="M694.97,-176.67C683.75,-168.83 669.07,-156.3 662.5,-141 657.15,-128.54 658.83,-123.55 662.5,-110.5 671.4,-78.85 693.42,-47.32 708.41,-28.39"/>
<polygon fill="#63b8ff" stroke="#63b8ff" points="710.93,-30.84 714.55,-20.88 705.51,-26.41 710.93,-30.84"/>
</a>
</g>
</g>
<!-- Node10 -->
<g id="Node000010" class="node">
<title>Node10</title>
<g id="a_Node000010"><a xlink:title=" ">
<polygon fill="#e0e0e0" stroke="#999999" points="1161,-19.25 1100,-19.25 1100,0 1161,0 1161,-19.25"/>
<text text-anchor="middle" x="1130.5" y="-5.75" font-family="Helvetica,sans-Serif" font-size="10.00">type_traits</text>
</a>
</g>
</g>
<!-- Node4&#45;&gt;Node10 -->
<g id="edge43_Node000004_Node000010" class="edge">
<title>Node4&#45;&gt;Node10</title>
<g id="a_edge43_Node000004_Node000010"><a xlink:title=" ">
<path fill="none" stroke="#63b8ff" d="M776.93,-183.83C896.23,-179.95 1134.33,-168.78 1159.5,-141 1187.93,-109.61 1161.03,-56.64 1143.28,-28.86"/>
<polygon fill="#63b8ff" stroke="#63b8ff" points="1146.36,-27.18 1137.9,-20.81 1140.54,-31.07 1146.36,-27.18"/>
</a>
</g>
</g>
<!-- Node13 -->
<g id="Node000013" class="node">
<title>Node13</title>
<g id="a_Node000013"><a xlink:href="x__z__p__q__r_8hpp.xhtml" target="_top" xlink:title=" ">
<polygon fill="white" stroke="#666666" points="842.25,-135.38 764.75,-135.38 764.75,-116.12 842.25,-116.12 842.25,-135.38"/>
<text text-anchor="middle" x="803.5" y="-121.88" font-family="Helvetica,sans-Serif" font-size="10.00">x_z_p_q_r.hpp</text>
</a>
</g>
</g>
<!-- Node4&#45;&gt;Node13 -->
<g id="edge13_Node000004_Node000013" class="edge">
<title>Node4&#45;&gt;Node13</title>
<g id="a_edge13_Node000004_Node000013"><a xlink:title=" ">
<path fill="none" stroke="#63b8ff" d="M723.78,-176.68C738.55,-167.43 761.87,-152.82 779.49,-141.79"/>
<polygon fill="#63b8ff" stroke="#63b8ff" points="781.19,-144.85 787.81,-136.58 777.47,-138.92 781.19,-144.85"/>
</a>
</g>
</g>
<!-- Node14 -->
<g id="Node000014" class="node">
<title>Node14</title>
<g id="a_Node000014"><a xlink:href="x__z__p__q__r__h__f_8hpp.xhtml" target="_top" xlink:title=" ">
<polygon fill="white" stroke="#666666" points="956.62,-135.38 860.38,-135.38 860.38,-116.12 956.62,-116.12 956.62,-135.38"/>
<text text-anchor="middle" x="908.5" y="-121.88" font-family="Helvetica,sans-Serif" font-size="10.00">x_z_p_q_r_h_f.hpp</text>
</a>
</g>
</g>
<!-- Node4&#45;&gt;Node14 -->
<g id="edge15_Node000004_Node000014" class="edge">
<title>Node4&#45;&gt;Node14</title>
<g id="a_edge15_Node000004_Node000014"><a xlink:title=" ">
<path fill="none" stroke="#63b8ff" d="M740.16,-176.55C774.19,-166.49 829.31,-150.18 867.15,-138.99"/>
<polygon fill="#63b8ff" stroke="#63b8ff" points="867.76,-142.45 876.36,-136.26 865.77,-135.74 867.76,-142.45"/>
</a>
</g>
</g>
<!-- Node15 -->
<g id="Node000015" class="node">
<title>Node15</title>
<g id="a_Node000015"><a xlink:href="x__z__p__q__r__hh__us__ps_8hpp.xhtml" target="_top" xlink:title=" ">
<polygon fill="white" stroke="#666666" points="257.88,-135.38 133.12,-135.38 133.12,-116.12 257.88,-116.12 257.88,-135.38"/>
<text text-anchor="middle" x="195.5" y="-121.88" font-family="Helvetica,sans-Serif" font-size="10.00">x_z_p_q_r_hh_us_ps.hpp</text>
</a>
</g>
</g>
<!-- Node4&#45;&gt;Node15 -->
<g id="edge17_Node000004_Node000015" class="edge">
<title>Node4&#45;&gt;Node15</title>
<g id="a_edge17_Node000004_Node000015"><a xlink:title=" ">
<path fill="none" stroke="#63b8ff" d="M642.07,-180.89C555.01,-174.31 398.93,-160.91 266.5,-141 260.59,-140.11 254.44,-139.06 248.32,-137.94"/>
<polygon fill="#63b8ff" stroke="#63b8ff" points="249.39,-134.58 238.92,-136.15 248.09,-141.46 249.39,-134.58"/>
</a>
</g>
</g>
<!-- Node18 -->
<g id="Node000018" class="node">
<title>Node18</title>
<g id="a_Node000018"><a xlink:href="x__z__p__qq__rr__f_8hpp.xhtml" target="_top" xlink:title=" ">
<polygon fill="white" stroke="#666666" points="369.5,-135.38 275.5,-135.38 275.5,-116.12 369.5,-116.12 369.5,-135.38"/>
<text text-anchor="middle" x="322.5" y="-121.88" font-family="Helvetica,sans-Serif" font-size="10.00">x_z_p_qq_rr_f.hpp</text>
</a>
</g>
</g>
<!-- Node4&#45;&gt;Node18 -->
<g id="edge22_Node000004_Node000018" class="edge">
<title>Node4&#45;&gt;Node18</title>
<g id="a_edge22_Node000004_Node000018"><a xlink:title=" ">
<path fill="none" stroke="#63b8ff" d="M641.93,-178.82C574.77,-171.52 469.01,-158.56 378.5,-141 374.64,-140.25 370.65,-139.4 366.66,-138.49"/>
<polygon fill="#63b8ff" stroke="#63b8ff" points="367.53,-135.1 356.99,-136.18 365.91,-141.91 367.53,-135.1"/>
</a>
</g>
</g>
<!-- Node19 -->
<g id="Node000019" class="node">
<title>Node19</title>
<g id="a_Node000019"><a xlink:href="x__z__p__r_8hpp.xhtml" target="_top" xlink:title=" ">
<polygon fill="white" stroke="#666666" points="1042,-135.38 975,-135.38 975,-116.12 1042,-116.12 1042,-135.38"/>
<text text-anchor="middle" x="1008.5" y="-121.88" font-family="Helvetica,sans-Serif" font-size="10.00">x_z_p_r.hpp</text>
</a>
</g>
</g>
<!-- Node4&#45;&gt;Node19 -->
<g id="edge26_Node000004_Node000019" class="edge">
<title>Node4&#45;&gt;Node19</title>
<g id="a_edge26_Node000004_Node000019"><a xlink:title=" ">
<path fill="none" stroke="#63b8ff" d="M777.18,-176.61C829.12,-169.02 902.39,-156.87 965.5,-141 967.76,-140.43 970.08,-139.8 972.41,-139.13"/>
<polygon fill="#63b8ff" stroke="#63b8ff" points="973.24,-142.54 981.77,-136.26 971.18,-135.85 973.24,-142.54"/>
</a>
</g>
</g>
<!-- Node20 -->
<g id="Node000020" class="node">
<title>Node20</title>
<g id="a_Node000020"><a xlink:href="x__z__p__r__f_8hpp.xhtml" target="_top" xlink:title=" ">
<polygon fill="white" stroke="#666666" points="747.12,-135.38 671.88,-135.38 671.88,-116.12 747.12,-116.12 747.12,-135.38"/>
<text text-anchor="middle" x="709.5" y="-121.88" font-family="Helvetica,sans-Serif" font-size="10.00">x_z_p_r_f.hpp</text>
</a>
</g>
</g>
<!-- Node4&#45;&gt;Node20 -->
<g id="edge28_Node000004_Node000020" class="edge">
<title>Node4&#45;&gt;Node20</title>
<g id="a_edge28_Node000004_Node000020"><a xlink:title=" ">
<path fill="none" stroke="#63b8ff" d="M709.5,-176.68C709.5,-168.9 709.5,-157.33 709.5,-147.28"/>
<polygon fill="#63b8ff" stroke="#63b8ff" points="713,-147.29 709.5,-137.29 706,-147.29 713,-147.29"/>
</a>
</g>
</g>
<!-- Node21 -->
<g id="Node000021" class="node">
<title>Node21</title>
<g id="a_Node000021"><a xlink:href="x__z__u__p__q__r_8hpp.xhtml" target="_top" xlink:title=" ">
<polygon fill="white" stroke="#666666" points="475.5,-135.38 387.5,-135.38 387.5,-116.12 475.5,-116.12 475.5,-135.38"/>
<text text-anchor="middle" x="431.5" y="-121.88" font-family="Helvetica,sans-Serif" font-size="10.00">x_z_u_p_q_r.hpp</text>
</a>
</g>
</g>
<!-- Node4&#45;&gt;Node21 -->
<g id="edge30_Node000004_Node000021" class="edge">
<title>Node4&#45;&gt;Node21</title>
<g id="a_edge30_Node000004_Node000021"><a xlink:title=" ">
<path fill="none" stroke="#63b8ff" d="M658.8,-176.57C613.07,-168.17 544.03,-154.89 484.5,-141 481.37,-140.27 478.14,-139.48 474.9,-138.67"/>
<polygon fill="#63b8ff" stroke="#63b8ff" points="475.95,-135.33 465.39,-136.22 474.2,-142.1 475.95,-135.33"/>
</a>
</g>
</g>
<!-- Node22 -->
<g id="Node000022" class="node">
<title>Node22</title>
<g id="a_Node000022"><a xlink:href="x__z__u__p__q__r__f__g__ps_8hpp.xhtml" target="_top" xlink:title=" ">
<polygon fill="white" stroke="#666666" points="615.75,-135.38 493.25,-135.38 493.25,-116.12 615.75,-116.12 615.75,-135.38"/>
<text text-anchor="middle" x="554.5" y="-121.88" font-family="Helvetica,sans-Serif" font-size="10.00">x_z_u_p_q_r_f_g_ps.hpp</text>
</a>
</g>
</g>
<!-- Node4&#45;&gt;Node22 -->
<g id="edge34_Node000004_Node000022" class="edge">
<title>Node4&#45;&gt;Node22</title>
<g id="a_edge34_Node000004_Node000022"><a xlink:title=" ">
<path fill="none" stroke="#63b8ff" d="M685.62,-176.55C659.79,-166.74 618.38,-151.01 589.01,-139.86"/>
<polygon fill="#63b8ff" stroke="#63b8ff" points="590.41,-136.65 579.82,-136.37 587.93,-143.19 590.41,-136.65"/>
</a>
</g>
</g>
<!-- Node23 -->
<g id="Node000023" class="node">
<title>Node23</title>
<g id="a_Node000023"><a xlink:href="x__z__u__p__q__r__h__f__g__us__ps_8hpp.xhtml" target="_top" xlink:title=" ">
<polygon fill="white" stroke="#666666" points="115,-141 0,-141 0,-110.5 115,-110.5 115,-141"/>
<text text-anchor="start" x="8" y="-127.5" font-family="Helvetica,sans-Serif" font-size="10.00">x_z_u_p_q_r_h_f_g_us</text>
<text text-anchor="middle" x="57.5" y="-116.25" font-family="Helvetica,sans-Serif" font-size="10.00">_ps.hpp</text>
</a>
</g>
</g>
<!-- Node4&#45;&gt;Node23 -->
<g id="edge38_Node000004_Node000023" class="edge">
<title>Node4&#45;&gt;Node23</title>
<g id="a_edge38_Node000004_Node000023"><a xlink:title=" ">
<path fill="none" stroke="#63b8ff" d="M642.06,-183.4C534.94,-179.24 319.18,-168.22 126.36,-141.12"/>
<polygon fill="#63b8ff" stroke="#63b8ff" points="127.05,-137.68 116.65,-139.74 126.06,-144.61 127.05,-137.68"/>
</a>
</g>
</g>
<!-- Node5&#45;&gt;Node6 -->
<g id="edge5_Node000005_Node000006" class="edge">
<title>Node5&#45;&gt;Node6</title>
<g id="a_edge5_Node000005_Node000006"><a xlink:title=" ">
<path fill="none" stroke="#63b8ff" d="M1101.46,-115.72C1095.96,-113.8 1090.07,-111.92 1084.5,-110.5 1000,-88.94 898.41,-75.89 843.48,-69.87"/>
<polygon fill="#63b8ff" stroke="#63b8ff" points="843.99,-66.41 833.68,-68.82 843.25,-73.37 843.99,-66.41"/>
</a>
</g>
</g>
<!-- Node5&#45;&gt;Node10 -->
<g id="edge12_Node000005_Node000010" class="edge">
<title>Node5&#45;&gt;Node10</title>
<g id="a_edge12_Node000005_Node000010"><a xlink:title=" ">
<path fill="none" stroke="#63b8ff" d="M1124.97,-115.79C1125.93,-97.63 1128.11,-56.04 1129.43,-30.95"/>
<polygon fill="#63b8ff" stroke="#63b8ff" points="1132.92,-31.22 1129.95,-21.05 1125.93,-30.85 1132.92,-31.22"/>
</a>
</g>
</g>
<!-- Node12 -->
<g id="Node000012" class="node">
<title>Node12</title>
<g id="a_Node000012"><a xlink:title=" ">
<polygon fill="#e0e0e0" stroke="#999999" points="1064.25,-74.5 992.75,-74.5 992.75,-55.25 1064.25,-55.25 1064.25,-74.5"/>
<text text-anchor="middle" x="1028.5" y="-61" font-family="Helvetica,sans-Serif" font-size="10.00">initializer_list</text>
</a>
</g>
</g>
<!-- Node5&#45;&gt;Node12 -->
<g id="edge11_Node000005_Node000012" class="edge">
<title>Node5&#45;&gt;Node12</title>
<g id="a_edge11_Node000005_Node000012"><a xlink:title=" ">
<path fill="none" stroke="#63b8ff" d="M1109.92,-115.81C1094.84,-106.56 1071.01,-91.95 1053.02,-80.92"/>
<polygon fill="#63b8ff" stroke="#63b8ff" points="1054.86,-77.94 1044.51,-75.69 1051.2,-83.9 1054.86,-77.94"/>
</a>
</g>
</g>
<!-- Node6&#45;&gt;Node7 -->
<g id="edge6_Node000006_Node000007" class="edge">
<title>Node6&#45;&gt;Node7</title>
<g id="a_edge6_Node000006_Node000007"><a xlink:title=" ">
<path fill="none" stroke="#63b8ff" d="M789.93,-54.84C778.09,-46.96 760.66,-35.36 746.63,-26.02"/>
<polygon fill="#63b8ff" stroke="#63b8ff" points="748.66,-23.17 738.4,-20.54 744.78,-29 748.66,-23.17"/>
</a>
</g>
</g>
<!-- Node8 -->
<g id="Node000008" class="node">
<title>Node8</title>
<g id="a_Node000008"><a xlink:title=" ">
<polygon fill="#e0e0e0" stroke="#999999" points="1238.62,-19.25 1190.38,-19.25 1190.38,0 1238.62,0 1238.62,-19.25"/>
<text text-anchor="middle" x="1214.5" y="-5.75" font-family="Helvetica,sans-Serif" font-size="10.00">cstddef</text>
</a>
</g>
</g>
<!-- Node6&#45;&gt;Node8 -->
<g id="edge7_Node000006_Node000008" class="edge">
<title>Node6&#45;&gt;Node8</title>
<g id="a_edge7_Node000006_Node000008"><a xlink:title=" ">
<path fill="none" stroke="#63b8ff" d="M832.15,-61.11C894.08,-54.96 1044.98,-39.16 1170.5,-19.25 1173.16,-18.83 1175.9,-18.36 1178.66,-17.87"/>
<polygon fill="#63b8ff" stroke="#63b8ff" points="1179.21,-21.33 1188.4,-16.05 1177.93,-14.45 1179.21,-21.33"/>
</a>
</g>
</g>
<!-- Node9 -->
<g id="Node000009" class="node">
<title>Node9</title>
<g id="a_Node000009"><a xlink:title=" ">
<polygon fill="#e0e0e0" stroke="#999999" points="450,-19.25 413,-19.25 413,0 450,0 450,-19.25"/>
<text text-anchor="middle" x="431.5" y="-5.75" font-family="Helvetica,sans-Serif" font-size="10.00">tuple</text>
</a>
</g>
</g>
<!-- Node6&#45;&gt;Node9 -->
<g id="edge8_Node000006_Node000009" class="edge">
<title>Node6&#45;&gt;Node9</title>
<g id="a_edge8_Node000006_Node000009"><a xlink:title=" ">
<path fill="none" stroke="#63b8ff" d="M774.93,-59.78C706.09,-49.93 531.59,-24.95 461.41,-14.91"/>
<polygon fill="#63b8ff" stroke="#63b8ff" points="462.21,-11.49 451.82,-13.53 461.22,-18.42 462.21,-11.49"/>
</a>
</g>
</g>
<!-- Node6&#45;&gt;Node10 -->
<g id="edge9_Node000006_Node000010" class="edge">
<title>Node6&#45;&gt;Node10</title>
<g id="a_edge9_Node000006_Node000010"><a xlink:title=" ">
<path fill="none" stroke="#63b8ff" d="M832.23,-59.2C890.13,-49.77 1021.04,-28.45 1088.53,-17.46"/>
<polygon fill="#63b8ff" stroke="#63b8ff" points="1088.78,-20.97 1098.08,-15.9 1087.65,-14.06 1088.78,-20.97"/>
</a>
</g>
</g>
<!-- Node6&#45;&gt;Node11 -->
<g id="edge10_Node000006_Node000011" class="edge">
<title>Node6&#45;&gt;Node11</title>
<g id="a_edge10_Node000006_Node000011"><a xlink:title=" ">
<path fill="none" stroke="#63b8ff" d="M831.84,-61.45C934.71,-52.64 1287.9,-22.41 1394.68,-13.26"/>
<polygon fill="#63b8ff" stroke="#63b8ff" points="1394.72,-16.77 1404.39,-12.43 1394.13,-9.8 1394.72,-16.77"/>
</a>
</g>
</g>
<!-- Node13&#45;&gt;Node6 -->
<g id="edge14_Node000013_Node000006" class="edge">
<title>Node13&#45;&gt;Node6</title>
<g id="a_edge14_Node000013_Node000006"><a xlink:title=" ">
<path fill="none" stroke="#63b8ff" d="M803.5,-115.81C803.5,-108.03 803.5,-96.45 803.5,-86.41"/>
<polygon fill="#63b8ff" stroke="#63b8ff" points="807,-86.41 803.5,-76.41 800,-86.41 807,-86.41"/>
</a>
</g>
</g>
<!-- Node14&#45;&gt;Node6 -->
<g id="edge16_Node000014_Node000006" class="edge">
<title>Node14&#45;&gt;Node6</title>
<g id="a_edge16_Node000014_Node000006"><a xlink:title=" ">
<path fill="none" stroke="#63b8ff" d="M892.55,-115.81C875.82,-106.43 849.27,-91.54 829.5,-80.45"/>
<polygon fill="#63b8ff" stroke="#63b8ff" points="831.35,-77.48 820.92,-75.64 827.93,-83.58 831.35,-77.48"/>
</a>
</g>
</g>
<!-- Node15&#45;&gt;Node6 -->
<g id="edge20_Node000015_Node000006" class="edge">
<title>Node15&#45;&gt;Node6</title>
<g id="a_edge20_Node000015_Node000006"><a xlink:title=" ">
<path fill="none" stroke="#63b8ff" d="M236.66,-115.65C246.41,-113.73 256.79,-111.87 266.5,-110.5 451.14,-84.39 673.83,-71.88 763.36,-67.63"/>
<polygon fill="#63b8ff" stroke="#63b8ff" points="763.51,-71.13 773.33,-67.16 763.18,-64.13 763.51,-71.13"/>
</a>
</g>
</g>
<!-- Node15&#45;&gt;Node9 -->
<g id="edge21_Node000015_Node000009" class="edge">
<title>Node15&#45;&gt;Node9</title>
<g id="a_edge21_Node000015_Node000009"><a xlink:title=" ">
<path fill="none" stroke="#63b8ff" d="M203.93,-115.71C218.15,-100.97 248.41,-71.77 279.5,-55.25 319.13,-34.2 369.98,-21.85 401.66,-15.67"/>
<polygon fill="#63b8ff" stroke="#63b8ff" points="402.12,-19.14 411.31,-13.87 400.84,-12.26 402.12,-19.14"/>
</a>
</g>
</g>
<!-- Node16 -->
<g id="Node000016" class="node">
<title>Node16</title>
<g id="a_Node000016"><a xlink:href="function_8hpp.xhtml" target="_top" xlink:title=" ">
<polygon fill="white" stroke="#666666" points="356.75,-74.5 288.25,-74.5 288.25,-55.25 356.75,-55.25 356.75,-74.5"/>
<text text-anchor="middle" x="322.5" y="-61" font-family="Helvetica,sans-Serif" font-size="10.00">function.hpp</text>
</a>
</g>
</g>
<!-- Node15&#45;&gt;Node16 -->
<g id="edge18_Node000015_Node000016" class="edge">
<title>Node15&#45;&gt;Node16</title>
<g id="a_edge18_Node000015_Node000016"><a xlink:title=" ">
<path fill="none" stroke="#63b8ff" d="M215.07,-115.68C235.82,-106.06 268.86,-90.74 292.83,-79.63"/>
<polygon fill="#63b8ff" stroke="#63b8ff" points="294.15,-82.88 301.75,-75.5 291.2,-76.53 294.15,-82.88"/>
</a>
</g>
</g>
<!-- Node17 -->
<g id="Node000017" class="node">
<title>Node17</title>
<g id="a_Node000017"><a xlink:title=" ">
<polygon fill="#e0e0e0" stroke="#999999" points="347.75,-19.25 297.25,-19.25 297.25,0 347.75,0 347.75,-19.25"/>
<text text-anchor="middle" x="322.5" y="-5.75" font-family="Helvetica,sans-Serif" font-size="10.00">memory</text>
</a>
</g>
</g>
<!-- Node16&#45;&gt;Node17 -->
<g id="edge19_Node000016_Node000017" class="edge">
<title>Node16&#45;&gt;Node17</title>
<g id="a_edge19_Node000016_Node000017"><a xlink:title=" ">
<path fill="none" stroke="#63b8ff" d="M322.5,-55.08C322.5,-48.57 322.5,-39.42 322.5,-31.12"/>
<polygon fill="#63b8ff" stroke="#63b8ff" points="326,-31.12 322.5,-21.12 319,-31.12 326,-31.12"/>
</a>
</g>
</g>
<!-- Node18&#45;&gt;Node6 -->
<g id="edge24_Node000018_Node000006" class="edge">
<title>Node18&#45;&gt;Node6</title>
<g id="a_edge24_Node000018_Node000006"><a xlink:title=" ">
<path fill="none" stroke="#63b8ff" d="M354.9,-115.66C362.59,-113.74 370.8,-111.88 378.5,-110.5 518.88,-85.4 688.06,-72.84 763.64,-68.13"/>
<polygon fill="#63b8ff" stroke="#63b8ff" points="763.67,-71.64 773.44,-67.54 763.25,-64.65 763.67,-71.64"/>
</a>
</g>
</g>
<!-- Node18&#45;&gt;Node9 -->
<g id="edge25_Node000018_Node000009" class="edge">
<title>Node18&#45;&gt;Node9</title>
<g id="a_edge25_Node000018_Node000009"><a xlink:title=" ">
<path fill="none" stroke="#63b8ff" d="M331.05,-115.79C349.2,-96.79 391.82,-52.18 415.29,-27.6"/>
<polygon fill="#63b8ff" stroke="#63b8ff" points="417.57,-30.28 421.94,-20.63 412.5,-25.45 417.57,-30.28"/>
</a>
</g>
</g>
<!-- Node18&#45;&gt;Node16 -->
<g id="edge23_Node000018_Node000016" class="edge">
<title>Node18&#45;&gt;Node16</title>
<g id="a_edge23_Node000018_Node000016"><a xlink:title=" ">
<path fill="none" stroke="#63b8ff" d="M322.5,-115.81C322.5,-108.03 322.5,-96.45 322.5,-86.41"/>
<polygon fill="#63b8ff" stroke="#63b8ff" points="326,-86.41 322.5,-76.41 319,-86.41 326,-86.41"/>
</a>
</g>
</g>
<!-- Node19&#45;&gt;Node6 -->
<g id="edge27_Node000019_Node000006" class="edge">
<title>Node19&#45;&gt;Node6</title>
<g id="a_edge27_Node000019_Node000006"><a xlink:title=" ">
<path fill="none" stroke="#63b8ff" d="M981.73,-115.64C976.37,-113.89 970.77,-112.1 965.5,-110.5 923.92,-97.89 875.89,-84.85 842.98,-76.15"/>
<polygon fill="#63b8ff" stroke="#63b8ff" points="844.04,-72.8 833.48,-73.64 842.26,-79.57 844.04,-72.8"/>
</a>
</g>
</g>
<!-- Node20&#45;&gt;Node6 -->
<g id="edge29_Node000020_Node000006" class="edge">
<title>Node20&#45;&gt;Node6</title>
<g id="a_edge29_Node000020_Node000006"><a xlink:title=" ">
<path fill="none" stroke="#63b8ff" d="M723.78,-115.81C738.55,-106.56 761.87,-91.95 779.49,-80.92"/>
<polygon fill="#63b8ff" stroke="#63b8ff" points="781.19,-83.98 787.81,-75.7 777.47,-78.05 781.19,-83.98"/>
</a>
</g>
</g>
<!-- Node21&#45;&gt;Node6 -->
<g id="edge32_Node000021_Node000006" class="edge">
<title>Node21&#45;&gt;Node6</title>
<g id="a_edge32_Node000021_Node000006"><a xlink:title=" ">
<path fill="none" stroke="#63b8ff" d="M462.74,-115.66C469.85,-113.79 477.4,-111.94 484.5,-110.5 584.16,-90.21 703.23,-76.23 763.82,-69.83"/>
<polygon fill="#63b8ff" stroke="#63b8ff" points="764.05,-73.32 773.63,-68.81 763.32,-66.36 764.05,-73.32"/>
</a>
</g>
</g>
<!-- Node21&#45;&gt;Node9 -->
<g id="edge33_Node000021_Node000009" class="edge">
<title>Node21&#45;&gt;Node9</title>
<g id="a_edge33_Node000021_Node000009"><a xlink:title=" ">
<path fill="none" stroke="#63b8ff" d="M431.5,-115.79C431.5,-97.63 431.5,-56.04 431.5,-30.95"/>
<polygon fill="#63b8ff" stroke="#63b8ff" points="435,-31.05 431.5,-21.05 428,-31.05 435,-31.05"/>
</a>
</g>
</g>
<!-- Node21&#45;&gt;Node16 -->
<g id="edge31_Node000021_Node000016" class="edge">
<title>Node21&#45;&gt;Node16</title>
<g id="a_edge31_Node000021_Node000016"><a xlink:title=" ">
<path fill="none" stroke="#63b8ff" d="M414.95,-115.81C397.5,-106.38 369.75,-91.4 349.21,-80.3"/>
<polygon fill="#63b8ff" stroke="#63b8ff" points="351,-77.29 340.54,-75.62 347.68,-83.45 351,-77.29"/>
</a>
</g>
</g>
<!-- Node22&#45;&gt;Node6 -->
<g id="edge36_Node000022_Node000006" class="edge">
<title>Node22&#45;&gt;Node6</title>
<g id="a_edge36_Node000022_Node000006"><a xlink:title=" ">
<path fill="none" stroke="#63b8ff" d="M592.86,-115.68C639.24,-104.71 716.9,-86.35 763.85,-75.25"/>
<polygon fill="#63b8ff" stroke="#63b8ff" points="764.4,-78.72 773.33,-73.01 762.79,-71.9 764.4,-78.72"/>
</a>
</g>
</g>
<!-- Node22&#45;&gt;Node9 -->
<g id="edge37_Node000022_Node000009" class="edge">
<title>Node22&#45;&gt;Node9</title>
<g id="a_edge37_Node000022_Node000009"><a xlink:title=" ">
<path fill="none" stroke="#63b8ff" d="M544.85,-115.79C524.28,-96.71 475.86,-51.78 449.45,-27.28"/>
<polygon fill="#63b8ff" stroke="#63b8ff" points="451.93,-24.8 442.22,-20.57 447.17,-29.94 451.93,-24.8"/>
</a>
</g>
</g>
<!-- Node22&#45;&gt;Node16 -->
<g id="edge35_Node000022_Node000016" class="edge">
<title>Node22&#45;&gt;Node16</title>
<g id="a_edge35_Node000022_Node000016"><a xlink:title=" ">
<path fill="none" stroke="#63b8ff" d="M518.76,-115.68C478.3,-105.41 412.3,-88.66 368.15,-77.46"/>
<polygon fill="#63b8ff" stroke="#63b8ff" points="369.17,-74.11 358.61,-75.04 367.44,-80.89 369.17,-74.11"/>
</a>
</g>
</g>
<!-- Node23&#45;&gt;Node6 -->
<g id="edge40_Node000023_Node000006" class="edge">
<title>Node23&#45;&gt;Node6</title>
<g id="a_edge40_Node000023_Node000006"><a xlink:title=" ">
<path fill="none" stroke="#63b8ff" d="M115.15,-111.94C118.31,-111.41 121.44,-110.92 124.5,-110.5 365.63,-77.11 658.5,-68.56 763.59,-66.5"/>
<polygon fill="#63b8ff" stroke="#63b8ff" points="763.44,-70 773.38,-66.31 763.31,-63 763.44,-70"/>
</a>
</g>
</g>
<!-- Node23&#45;&gt;Node9 -->
<g id="edge41_Node000023_Node000009" class="edge">
<title>Node23&#45;&gt;Node9</title>
<g id="a_edge41_Node000023_Node000009"><a xlink:title=" ">
<path fill="none" stroke="#63b8ff" d="M93.86,-110.06C131.8,-95.06 193.21,-71.7 247.5,-55.25 301.15,-38.99 364.98,-24.59 401.61,-16.79"/>
<polygon fill="#63b8ff" stroke="#63b8ff" points="401.96,-20.29 411.02,-14.8 400.52,-13.44 401.96,-20.29"/>
</a>
</g>
</g>
<!-- Node23&#45;&gt;Node16 -->
<g id="edge39_Node000023_Node000016" class="edge">
<title>Node23&#45;&gt;Node16</title>
<g id="a_edge39_Node000023_Node000016"><a xlink:title=" ">
<path fill="none" stroke="#63b8ff" d="M115.33,-111.9C163.8,-101.13 232.07,-85.97 276.79,-76.03"/>
<polygon fill="#63b8ff" stroke="#63b8ff" points="277.43,-79.47 286.43,-73.89 275.91,-72.64 277.43,-79.47"/>
</a>
</g>
</g>
<!-- Node24&#45;&gt;Node6 -->
<g id="edge45_Node000024_Node000006" class="edge">
<title>Node24&#45;&gt;Node6</title>
<g id="a_edge45_Node000024_Node000006"><a xlink:title=" ">
<path fill="none" stroke="#63b8ff" d="M1206.66,-116.38C1107.38,-103.94 924.01,-80.97 843.35,-70.87"/>
<polygon fill="#63b8ff" stroke="#63b8ff" points="844.08,-67.43 833.72,-69.66 843.2,-74.38 844.08,-67.43"/>
</a>
</g>
</g>
<!-- Node24&#45;&gt;Node8 -->
<g id="edge46_Node000024_Node000008" class="edge">
<title>Node24&#45;&gt;Node8</title>
<g id="a_edge46_Node000024_Node000008"><a xlink:title=" ">
<path fill="none" stroke="#63b8ff" d="M1267.39,-115.71C1260.83,-105.82 1250.31,-89.39 1242.5,-74.5 1234.84,-59.89 1227.4,-42.73 1222.12,-29.88"/>
<polygon fill="#63b8ff" stroke="#63b8ff" points="1225.48,-28.86 1218.49,-20.89 1218.98,-31.47 1225.48,-28.86"/>
</a>
</g>
</g>
<!-- Node24&#45;&gt;Node9 -->
<g id="edge48_Node000024_Node000009" class="edge">
<title>Node24&#45;&gt;Node9</title>
<g id="a_edge48_Node000024_Node000009"><a xlink:title=" ">
<path fill="none" stroke="#63b8ff" d="M1253.28,-115.7C1217.73,-100.26 1141.38,-69.15 1073.5,-55.25 954.15,-30.82 572.27,-15.63 461.74,-11.66"/>
<polygon fill="#63b8ff" stroke="#63b8ff" points="462.11,-8.18 451.99,-11.32 461.86,-15.17 462.11,-8.18"/>
</a>
</g>
</g>
<!-- Node25 -->
<g id="Node000025" class="node">
<title>Node25</title>
<g id="a_Node000025"><a xlink:title=" ">
<polygon fill="#e0e0e0" stroke="#999999" points="1295.38,-74.5 1251.62,-74.5 1251.62,-55.25 1295.38,-55.25 1295.38,-74.5"/>
<text text-anchor="middle" x="1273.5" y="-61" font-family="Helvetica,sans-Serif" font-size="10.00">format</text>
</a>
</g>
</g>
<!-- Node24&#45;&gt;Node25 -->
<g id="edge47_Node000024_Node000025" class="edge">
<title>Node24&#45;&gt;Node25</title>
<g id="a_edge47_Node000024_Node000025"><a xlink:title=" ">
<path fill="none" stroke="#63b8ff" d="M1273.5,-115.81C1273.5,-108.03 1273.5,-96.45 1273.5,-86.41"/>
<polygon fill="#63b8ff" stroke="#63b8ff" points="1277,-86.41 1273.5,-76.41 1270,-86.41 1277,-86.41"/>
</a>
</g>
</g>
<!-- Node27 -->
<g id="Node000027" class="node">
<title>Node27</title>
<g id="a_Node000027"><a xlink:title=" ">
<polygon fill="#e0e0e0" stroke="#999999" points="1392.88,-135.38 1358.12,-135.38 1358.12,-116.12 1392.88,-116.12 1392.88,-135.38"/>
<text text-anchor="middle" x="1375.5" y="-121.88" font-family="Helvetica,sans-Serif" font-size="10.00">print</text>
</a>
</g>
</g>
<!-- Node26&#45;&gt;Node27 -->
<g id="edge50_Node000026_Node000027" class="edge">
<title>Node26&#45;&gt;Node27</title>
<g id="a_edge50_Node000026_Node000027"><a xlink:title=" ">
<path fill="none" stroke="#63b8ff" d="M1332.25,-176.68C1339.66,-168.12 1351.05,-154.98 1360.28,-144.32"/>
<polygon fill="#63b8ff" stroke="#63b8ff" points="1362.79,-146.77 1366.69,-136.92 1357.5,-142.19 1362.79,-146.77"/>
</a>
</g>
</g>
</g>
</svg>
