<?xml version="1.0" encoding="UTF-8" standalone="no"?>
<!DOCTYPE svg PUBLIC "-//W3C//DTD SVG 1.1//EN"
 "http://www.w3.org/Graphics/SVG/1.1/DTD/svg11.dtd">
<!-- Generated by graphviz version 3.0.0 (20221109.1736)
 -->
<!-- Title: /github/workspace/test/kalman_f.cpp Pages: 1 -->
<svg width="735pt" height="319pt"
 viewBox="0.00 0.00 735.00 319.00" xmlns="http://www.w3.org/2000/svg" xmlns:xlink="http://www.w3.org/1999/xlink">
<g id="graph0" class="graph" transform="scale(1 1) rotate(0) translate(4 315)">
<title>/github/workspace/test/kalman_f.cpp</title>
<polygon fill="white" stroke="transparent" points="-4,4 -4,-315 731,-315 731,4 -4,4"/>
<!-- Node1 -->
<g id="node1" class="node">
<title>Node1</title>
<g id="a_node1"><a xlink:title=" ">
<polygon fill="#bfbfbf" stroke="black" points="360,-280.5 360,-310.5 476,-310.5 476,-280.5 360,-280.5"/>
<text text-anchor="start" x="368" y="-298.5" font-family="Helvetica,sans-Serif" font-size="10.00">/github/workspace/test</text>
<text text-anchor="middle" x="418" y="-287.5" font-family="Helvetica,sans-Serif" font-size="10.00">/kalman_f.cpp</text>
</a>
</g>
</g>
<!-- Node2 -->
<g id="node2" class="node">
<title>Node2</title>
<g id="a_node2"><a xlink:href="kalman_8hpp.xhtml" target="_top" xlink:title="The Kalman filter class and library top&#45;level header.">
<polygon fill="white" stroke="black" points="316.5,-224.5 316.5,-243.5 423.5,-243.5 423.5,-224.5 316.5,-224.5"/>
<text text-anchor="middle" x="370" y="-231.5" font-family="Helvetica,sans-Serif" font-size="10.00">fcarouge/kalman.hpp</text>
</a>
</g>
</g>
<!-- Node1&#45;&gt;Node2 -->
<g id="edge1" class="edge">
<title>Node1&#45;&gt;Node2</title>
<path fill="none" stroke="midnightblue" d="M406.62,-280.4C399.65,-271.75 390.69,-260.64 383.37,-251.58"/>
<polygon fill="midnightblue" stroke="midnightblue" points="385.99,-249.24 376.98,-243.66 380.54,-253.64 385.99,-249.24"/>
</g>
<!-- Node16 -->
<g id="node16" class="node">
<title>Node16</title>
<g id="a_node16"><a xlink:title=" ">
<polygon fill="white" stroke="#bfbfbf" points="441.5,-224.5 441.5,-243.5 490.5,-243.5 490.5,-224.5 441.5,-224.5"/>
<text text-anchor="middle" x="466" y="-231.5" font-family="Helvetica,sans-Serif" font-size="10.00">cassert</text>
</a>
</g>
</g>
<!-- Node1&#45;&gt;Node16 -->
<g id="edge21" class="edge">
<title>Node1&#45;&gt;Node16</title>
<path fill="none" stroke="midnightblue" d="M429.38,-280.4C436.35,-271.75 445.31,-260.64 452.63,-251.58"/>
<polygon fill="midnightblue" stroke="midnightblue" points="455.46,-253.64 459.02,-243.66 450.01,-249.24 455.46,-253.64"/>
</g>
<!-- Node3 -->
<g id="node3" class="node">
<title>Node3</title>
<g id="a_node3"><a xlink:href="algorithm_8hpp.xhtml" target="_top" xlink:title="The collection of Kalman algorithms.">
<polygon fill="white" stroke="black" points="0,-168.5 0,-187.5 74,-187.5 74,-168.5 0,-168.5"/>
<text text-anchor="middle" x="37" y="-175.5" font-family="Helvetica,sans-Serif" font-size="10.00">algorithm.hpp</text>
</a>
</g>
</g>
<!-- Node2&#45;&gt;Node3 -->
<g id="edge2" class="edge">
<title>Node2&#45;&gt;Node3</title>
<path fill="none" stroke="midnightblue" d="M316.42,-224.72C259.66,-215.88 167.45,-201.35 88,-188 86.73,-187.79 85.44,-187.57 84.14,-187.35"/>
<polygon fill="midnightblue" stroke="midnightblue" points="84.48,-183.86 74.03,-185.61 83.3,-190.75 84.48,-183.86"/>
</g>
<!-- Node4 -->
<g id="node4" class="node">
<title>Node4</title>
<g id="a_node4"><a xlink:href="format_8hpp.xhtml" target="_top" xlink:title=" ">
<polygon fill="white" stroke="black" points="417.5,-168.5 417.5,-187.5 514.5,-187.5 514.5,-168.5 417.5,-168.5"/>
<text text-anchor="middle" x="466" y="-175.5" font-family="Helvetica,sans-Serif" font-size="10.00">internal/format.hpp</text>
</a>
</g>
</g>
<!-- Node2&#45;&gt;Node4 -->
<g id="edge3" class="edge">
<title>Node2&#45;&gt;Node4</title>
<path fill="none" stroke="midnightblue" d="M385.42,-224.32C400.54,-215.82 423.82,-202.73 441.47,-192.8"/>
<polygon fill="midnightblue" stroke="midnightblue" points="443.61,-195.61 450.61,-187.65 440.18,-189.51 443.61,-195.61"/>
</g>
<!-- Node5 -->
<g id="node5" class="node">
<title>Node5</title>
<g id="a_node5"><a xlink:href="utility_8hpp.xhtml" target="_top" xlink:title="The collection of utilities supporting the library.">
<polygon fill="white" stroke="black" points="302,-112.5 302,-131.5 400,-131.5 400,-112.5 302,-112.5"/>
<text text-anchor="middle" x="351" y="-119.5" font-family="Helvetica,sans-Serif" font-size="10.00">fcarouge/utility.hpp</text>
</a>
</g>
</g>
<!-- Node2&#45;&gt;Node5 -->
<g id="edge14" class="edge">
<title>Node2&#45;&gt;Node5</title>
<path fill="none" stroke="midnightblue" d="M368.51,-224.37C365.44,-206.62 358.37,-165.67 354.21,-141.6"/>
<polygon fill="midnightblue" stroke="midnightblue" points="357.64,-140.85 352.48,-131.59 350.74,-142.04 357.64,-140.85"/>
</g>
<!-- Node7 -->
<g id="node7" class="node">
<title>Node7</title>
<g id="a_node7"><a xlink:title=" ">
<polygon fill="white" stroke="#bfbfbf" points="177,-0.5 177,-19.5 233,-19.5 233,-0.5 177,-0.5"/>
<text text-anchor="middle" x="205" y="-7.5" font-family="Helvetica,sans-Serif" font-size="10.00">concepts</text>
</a>
</g>
</g>
<!-- Node2&#45;&gt;Node7 -->
<g id="edge15" class="edge">
<title>Node2&#45;&gt;Node7</title>
<path fill="none" stroke="midnightblue" d="M316.24,-230.21C255.15,-225.79 161.02,-214.72 139,-188 98.05,-138.3 158.75,-60.71 189.25,-27.25"/>
<polygon fill="midnightblue" stroke="midnightblue" points="192,-29.43 196.28,-19.74 186.89,-24.65 192,-29.43"/>
</g>
<!-- Node8 -->
<g id="node8" class="node">
<title>Node8</title>
<g id="a_node8"><a xlink:title=" ">
<polygon fill="white" stroke="#bfbfbf" points="294,-0.5 294,-19.5 356,-19.5 356,-0.5 294,-0.5"/>
<text text-anchor="middle" x="325" y="-7.5" font-family="Helvetica,sans-Serif" font-size="10.00">type_traits</text>
</a>
</g>
</g>
<!-- Node2&#45;&gt;Node8 -->
<g id="edge18" class="edge">
<title>Node2&#45;&gt;Node8</title>
<path fill="none" stroke="midnightblue" d="M376.72,-224.42C391.44,-204.52 424.08,-153.72 409,-112 396.05,-76.18 364.25,-44.12 343.71,-26.15"/>
<polygon fill="midnightblue" stroke="midnightblue" points="345.82,-23.35 335.93,-19.55 341.29,-28.69 345.82,-23.35"/>
</g>
<!-- Node9 -->
<g id="node9" class="node">
<title>Node9</title>
<g id="a_node9"><a xlink:title=" ">
<polygon fill="white" stroke="#bfbfbf" points="518.5,-112.5 518.5,-131.5 567.5,-131.5 567.5,-112.5 518.5,-112.5"/>
<text text-anchor="middle" x="543" y="-119.5" font-family="Helvetica,sans-Serif" font-size="10.00">cstddef</text>
</a>
</g>
</g>
<!-- Node2&#45;&gt;Node9 -->
<g id="edge16" class="edge">
<title>Node2&#45;&gt;Node9</title>
<path fill="none" stroke="midnightblue" d="M416.64,-224.48C456.19,-216.37 508.83,-203.17 524,-188 536.07,-175.93 540.56,-156.64 542.19,-142.21"/>
<polygon fill="midnightblue" stroke="midnightblue" points="545.7,-142.14 542.97,-131.9 538.72,-141.61 545.7,-142.14"/>
</g>
<!-- Node11 -->
<g id="node11" class="node">
<title>Node11</title>
<g id="a_node11"><a xlink:href="internal_2kalman_8hpp.xhtml" target="_top" xlink:title=" ">
<polygon fill="white" stroke="black" points="148.5,-168.5 148.5,-187.5 249.5,-187.5 249.5,-168.5 148.5,-168.5"/>
<text text-anchor="middle" x="199" y="-175.5" font-family="Helvetica,sans-Serif" font-size="10.00">internal/kalman.hpp</text>
</a>
</g>
</g>
<!-- Node2&#45;&gt;Node11 -->
<g id="edge10" class="edge">
<title>Node2&#45;&gt;Node11</title>
<path fill="none" stroke="midnightblue" d="M342.9,-224.44C314.01,-215.32 268.08,-200.81 235.89,-190.65"/>
<polygon fill="midnightblue" stroke="midnightblue" points="236.56,-187.19 225.97,-187.52 234.45,-193.87 236.56,-187.19"/>
</g>
<!-- Node12 -->
<g id="node12" class="node">
<title>Node12</title>
<g id="a_node12"><a xlink:title=" ">
<polygon fill="white" stroke="#bfbfbf" points="224.5,-112.5 224.5,-131.5 283.5,-131.5 283.5,-112.5 224.5,-112.5"/>
<text text-anchor="middle" x="254" y="-119.5" font-family="Helvetica,sans-Serif" font-size="10.00">functional</text>
</a>
</g>
</g>
<!-- Node2&#45;&gt;Node12 -->
<g id="edge17" class="edge">
<title>Node2&#45;&gt;Node12</title>
<path fill="none" stroke="midnightblue" d="M360.9,-224.37C341.42,-205.89 295.44,-162.29 270.6,-138.74"/>
<polygon fill="midnightblue" stroke="midnightblue" points="272.72,-135.93 263.06,-131.59 267.91,-141.01 272.72,-135.93"/>
</g>
<!-- Node14 -->
<g id="node14" class="node">
<title>Node14</title>
<g id="a_node14"><a xlink:title=" ">
<polygon fill="white" stroke="#bfbfbf" points="571.5,-168.5 571.5,-187.5 610.5,-187.5 610.5,-168.5 571.5,-168.5"/>
<text text-anchor="middle" x="591" y="-175.5" font-family="Helvetica,sans-Serif" font-size="10.00">utility</text>
</a>
</g>
</g>
<!-- Node2&#45;&gt;Node14 -->
<g id="edge19" class="edge">
<title>Node2&#45;&gt;Node14</title>
<path fill="none" stroke="midnightblue" d="M406.61,-224.45C444.35,-215.57 504.88,-201.17 557,-188 558.44,-187.64 559.92,-187.26 561.41,-186.88"/>
<polygon fill="midnightblue" stroke="midnightblue" points="562.45,-190.22 571.24,-184.31 560.68,-183.45 562.45,-190.22"/>
</g>
<!-- Node15 -->
<g id="node15" class="node">
<title>Node15</title>
<g id="a_node15"><a xlink:title=" ">
<polygon fill="white" stroke="#bfbfbf" points="629,-168.5 629,-187.5 727,-187.5 727,-168.5 629,-168.5"/>
<text text-anchor="middle" x="678" y="-175.5" font-family="Helvetica,sans-Serif" font-size="10.00">internal/kalman.tpp</text>
</a>
</g>
</g>
<!-- Node2&#45;&gt;Node15 -->
<g id="edge20" class="edge">
<title>Node2&#45;&gt;Node15</title>
<path fill="none" stroke="midnightblue" d="M418.8,-224.44C473.21,-214.9 561.17,-199.48 619.29,-189.29"/>
<polygon fill="midnightblue" stroke="midnightblue" points="620.18,-192.69 629.42,-187.52 618.97,-185.8 620.18,-192.69"/>
</g>
<!-- Node4&#45;&gt;Node5 -->
<g id="edge4" class="edge">
<title>Node4&#45;&gt;Node5</title>
<path fill="none" stroke="midnightblue" d="M447.78,-168.44C429.1,-159.68 399.84,-145.94 378.38,-135.86"/>
<polygon fill="midnightblue" stroke="midnightblue" points="379.68,-132.6 369.14,-131.52 376.7,-138.93 379.68,-132.6"/>
</g>
<!-- Node4&#45;&gt;Node9 -->
<g id="edge8" class="edge">
<title>Node4&#45;&gt;Node9</title>
<path fill="none" stroke="midnightblue" d="M478.37,-168.32C490.16,-160.06 508.13,-147.45 522.14,-137.63"/>
<polygon fill="midnightblue" stroke="midnightblue" points="524.48,-140.26 530.66,-131.65 520.46,-134.53 524.48,-140.26"/>
</g>
<!-- Node10 -->
<g id="node10" class="node">
<title>Node10</title>
<g id="a_node10"><a xlink:title=" ">
<polygon fill="white" stroke="#bfbfbf" points="456,-112.5 456,-131.5 500,-131.5 500,-112.5 456,-112.5"/>
<text text-anchor="middle" x="478" y="-119.5" font-family="Helvetica,sans-Serif" font-size="10.00">format</text>
</a>
</g>
</g>
<!-- Node4&#45;&gt;Node10 -->
<g id="edge9" class="edge">
<title>Node4&#45;&gt;Node10</title>
<path fill="none" stroke="midnightblue" d="M467.98,-168.08C469.57,-160.93 471.86,-150.64 473.85,-141.69"/>
<polygon fill="midnightblue" stroke="midnightblue" points="477.3,-142.27 476.06,-131.75 470.47,-140.75 477.3,-142.27"/>
</g>
<!-- Node6 -->
<g id="node6" class="node">
<title>Node6</title>
<g id="a_node6"><a xlink:href="internal_2utility_8hpp.xhtml" target="_top" xlink:title=" ">
<polygon fill="white" stroke="black" points="219,-56.5 219,-75.5 311,-75.5 311,-56.5 219,-56.5"/>
<text text-anchor="middle" x="265" y="-63.5" font-family="Helvetica,sans-Serif" font-size="10.00">internal/utility.hpp</text>
</a>
</g>
</g>
<!-- Node5&#45;&gt;Node6 -->
<g id="edge5" class="edge">
<title>Node5&#45;&gt;Node6</title>
<path fill="none" stroke="midnightblue" d="M337.18,-112.32C323.77,-103.9 303.18,-90.97 287.41,-81.07"/>
<polygon fill="midnightblue" stroke="midnightblue" points="289.11,-78.01 278.78,-75.65 285.39,-83.94 289.11,-78.01"/>
</g>
<!-- Node6&#45;&gt;Node7 -->
<g id="edge6" class="edge">
<title>Node6&#45;&gt;Node7</title>
<path fill="none" stroke="midnightblue" d="M255.36,-56.32C246.49,-48.34 233.13,-36.31 222.39,-26.65"/>
<polygon fill="midnightblue" stroke="midnightblue" points="224.59,-23.92 214.82,-19.83 219.91,-29.13 224.59,-23.92"/>
</g>
<!-- Node6&#45;&gt;Node8 -->
<g id="edge7" class="edge">
<title>Node6&#45;&gt;Node8</title>
<path fill="none" stroke="midnightblue" d="M274.64,-56.32C283.51,-48.34 296.87,-36.31 307.61,-26.65"/>
<polygon fill="midnightblue" stroke="midnightblue" points="310.09,-29.13 315.18,-19.83 305.41,-23.92 310.09,-29.13"/>
</g>
<!-- Node11&#45;&gt;Node6 -->
<g id="edge11" class="edge">
<title>Node11&#45;&gt;Node6</title>
<path fill="none" stroke="midnightblue" d="M187.04,-168.47C170.96,-155.94 145.84,-131.89 159,-112 170.42,-94.74 189.94,-84.08 209.13,-77.51"/>
<polygon fill="midnightblue" stroke="midnightblue" points="210.28,-80.82 218.8,-74.51 208.21,-74.13 210.28,-80.82"/>
</g>
<!-- Node11&#45;&gt;Node12 -->
<g id="edge12" class="edge">
<title>Node11&#45;&gt;Node12</title>
<path fill="none" stroke="midnightblue" d="M208.08,-168.08C216.17,-160.14 228.2,-148.34 237.91,-138.8"/>
<polygon fill="midnightblue" stroke="midnightblue" points="240.4,-141.25 245.09,-131.75 235.5,-136.26 240.4,-141.25"/>
</g>
<!-- Node13 -->
<g id="node13" class="node">
<title>Node13</title>
<g id="a_node13"><a xlink:title=" ">
<polygon fill="white" stroke="#bfbfbf" points="168,-112.5 168,-131.5 206,-131.5 206,-112.5 168,-112.5"/>
<text text-anchor="middle" x="187" y="-119.5" font-family="Helvetica,sans-Serif" font-size="10.00">tuple</text>
</a>
</g>
</g>
<!-- Node11&#45;&gt;Node13 -->
<g id="edge13" class="edge">
<title>Node11&#45;&gt;Node13</title>
<path fill="none" stroke="midnightblue" d="M197.02,-168.08C195.43,-160.93 193.14,-150.64 191.15,-141.69"/>
<polygon fill="midnightblue" stroke="midnightblue" points="194.53,-140.75 188.94,-131.75 187.7,-142.27 194.53,-140.75"/>
</g>
</g>
</svg>
