<?xml version="1.0" encoding="UTF-8" standalone="no"?>
<!DOCTYPE svg PUBLIC "-//W3C//DTD SVG 1.1//EN"
 "http://www.w3.org/Graphics/SVG/1.1/DTD/svg11.dtd">
<!-- Generated by graphviz version 3.0.0 (20221109.1736)
 -->
<!-- Title: /github/workspace/test/kalman_format.cpp Pages: 1 -->
<svg width="860pt" height="319pt"
 viewBox="0.00 0.00 860.05 319.00" xmlns="http://www.w3.org/2000/svg" xmlns:xlink="http://www.w3.org/1999/xlink">
<g id="graph0" class="graph" transform="scale(1 1) rotate(0) translate(4 315)">
<title>/github/workspace/test/kalman_format.cpp</title>
<polygon fill="white" stroke="transparent" points="-4,4 -4,-315 856.05,-315 856.05,4 -4,4"/>
<!-- Node1 -->
<g id="node1" class="node">
<title>Node1</title>
<g id="a_node1"><a xlink:title=" ">
<polygon fill="#bfbfbf" stroke="black" points="716.55,-280.5 716.55,-310.5 832.55,-310.5 832.55,-280.5 716.55,-280.5"/>
<text text-anchor="start" x="724.55" y="-298.5" font-family="Helvetica,sans-Serif" font-size="10.00">/github/workspace/test</text>
<text text-anchor="middle" x="774.55" y="-287.5" font-family="Helvetica,sans-Serif" font-size="10.00">/kalman_format.cpp</text>
</a>
</g>
</g>
<!-- Node2 -->
<g id="node2" class="node">
<title>Node2</title>
<g id="a_node2"><a xlink:href="kalman_8hpp.xhtml" target="_top" xlink:title="The Kalman filter class and library top&#45;level header.">
<polygon fill="white" stroke="black" points="360.05,-224.5 360.05,-243.5 467.05,-243.5 467.05,-224.5 360.05,-224.5"/>
<text text-anchor="middle" x="413.55" y="-231.5" font-family="Helvetica,sans-Serif" font-size="10.00">fcarouge/kalman.hpp</text>
</a>
</g>
</g>
<!-- Node1&#45;&gt;Node2 -->
<g id="edge1" class="edge">
<title>Node1&#45;&gt;Node2</title>
<path fill="none" stroke="midnightblue" d="M716.55,-284.94C650.49,-274.05 542.96,-256.33 475.35,-245.19"/>
<polygon fill="midnightblue" stroke="midnightblue" points="475.7,-241.7 465.27,-243.52 474.56,-248.6 475.7,-241.7"/>
</g>
<!-- Node9 -->
<g id="node9" class="node">
<title>Node9</title>
<g id="a_node9"><a xlink:title=" ">
<polygon fill="white" stroke="#bfbfbf" points="510.55,-112.5 510.55,-131.5 554.55,-131.5 554.55,-112.5 510.55,-112.5"/>
<text text-anchor="middle" x="532.55" y="-119.5" font-family="Helvetica,sans-Serif" font-size="10.00">format</text>
</a>
</g>
</g>
<!-- Node1&#45;&gt;Node9 -->
<g id="edge23" class="edge">
<title>Node1&#45;&gt;Node9</title>
<path fill="none" stroke="midnightblue" d="M772.32,-280.27C767.41,-253.93 753.13,-197.55 717.55,-168 673.67,-131.56 604.88,-123.8 564.71,-122.61"/>
<polygon fill="midnightblue" stroke="midnightblue" points="564.72,-119.11 554.66,-122.43 564.6,-126.11 564.72,-119.11"/>
</g>
<!-- Node18 -->
<g id="node18" class="node">
<title>Node18</title>
<g id="a_node18"><a xlink:title=" ">
<polygon fill="white" stroke="#bfbfbf" points="803.05,-224.5 803.05,-243.5 852.05,-243.5 852.05,-224.5 803.05,-224.5"/>
<text text-anchor="middle" x="827.55" y="-231.5" font-family="Helvetica,sans-Serif" font-size="10.00">cassert</text>
</a>
</g>
</g>
<!-- Node1&#45;&gt;Node18 -->
<g id="edge22" class="edge">
<title>Node1&#45;&gt;Node18</title>
<path fill="none" stroke="midnightblue" d="M787.11,-280.4C794.9,-271.66 804.92,-260.41 813.04,-251.3"/>
<polygon fill="midnightblue" stroke="midnightblue" points="815.8,-253.45 819.84,-243.66 810.58,-248.8 815.8,-253.45"/>
</g>
<!-- Node3 -->
<g id="node3" class="node">
<title>Node3</title>
<g id="a_node3"><a xlink:href="algorithm_8hpp.xhtml" target="_top" xlink:title="The collection of Kalman algorithms.">
<polygon fill="white" stroke="black" points="634.55,-168.5 634.55,-187.5 708.55,-187.5 708.55,-168.5 634.55,-168.5"/>
<text text-anchor="middle" x="671.55" y="-175.5" font-family="Helvetica,sans-Serif" font-size="10.00">algorithm.hpp</text>
</a>
</g>
</g>
<!-- Node2&#45;&gt;Node3 -->
<g id="edge2" class="edge">
<title>Node2&#45;&gt;Node3</title>
<path fill="none" stroke="midnightblue" d="M454.44,-224.44C500.6,-214.78 575.6,-199.08 624.25,-188.9"/>
<polygon fill="midnightblue" stroke="midnightblue" points="625.14,-192.29 634.22,-186.82 623.71,-185.44 625.14,-192.29"/>
</g>
<!-- Node4 -->
<g id="node4" class="node">
<title>Node4</title>
<g id="a_node4"><a xlink:href="format_8hpp.xhtml" target="_top" xlink:title=" ">
<polygon fill="white" stroke="black" points="202.05,-168.5 202.05,-187.5 299.05,-187.5 299.05,-168.5 202.05,-168.5"/>
<text text-anchor="middle" x="250.55" y="-175.5" font-family="Helvetica,sans-Serif" font-size="10.00">internal/format.hpp</text>
</a>
</g>
</g>
<!-- Node2&#45;&gt;Node4 -->
<g id="edge3" class="edge">
<title>Node2&#45;&gt;Node4</title>
<path fill="none" stroke="midnightblue" d="M387.73,-224.44C360.31,-215.36 316.78,-200.94 286.12,-190.78"/>
<polygon fill="midnightblue" stroke="midnightblue" points="286.85,-187.34 276.26,-187.52 284.65,-193.98 286.85,-187.34"/>
</g>
<!-- Node5 -->
<g id="node5" class="node">
<title>Node5</title>
<g id="a_node5"><a xlink:href="utility_8hpp.xhtml" target="_top" xlink:title="The collection of utilities supporting the library.">
<polygon fill="white" stroke="black" points="193.55,-112.5 193.55,-131.5 291.55,-131.5 291.55,-112.5 193.55,-112.5"/>
<text text-anchor="middle" x="242.55" y="-119.5" font-family="Helvetica,sans-Serif" font-size="10.00">fcarouge/utility.hpp</text>
</a>
</g>
</g>
<!-- Node2&#45;&gt;Node5 -->
<g id="edge15" class="edge">
<title>Node2&#45;&gt;Node5</title>
<path fill="none" stroke="midnightblue" d="M360.02,-229.69C301.51,-224.82 213.3,-213.4 192.55,-188 178.49,-170.79 200.17,-150.4 219.23,-137.11"/>
<polygon fill="midnightblue" stroke="midnightblue" points="221.25,-139.97 227.66,-131.54 217.39,-134.13 221.25,-139.97"/>
</g>
<!-- Node7 -->
<g id="node7" class="node">
<title>Node7</title>
<g id="a_node7"><a xlink:title=" ">
<polygon fill="white" stroke="#bfbfbf" points="495.55,-0.5 495.55,-19.5 551.55,-19.5 551.55,-0.5 495.55,-0.5"/>
<text text-anchor="middle" x="523.55" y="-7.5" font-family="Helvetica,sans-Serif" font-size="10.00">concepts</text>
</a>
</g>
</g>
<!-- Node2&#45;&gt;Node7 -->
<g id="edge16" class="edge">
<title>Node2&#45;&gt;Node7</title>
<path fill="none" stroke="midnightblue" d="M467.12,-233.11C545.57,-232 685.84,-224.76 717.55,-188 776.74,-119.4 627.13,-50.65 557.23,-23.31"/>
<polygon fill="midnightblue" stroke="midnightblue" points="558.12,-19.91 547.53,-19.59 555.61,-26.44 558.12,-19.91"/>
</g>
<!-- Node8 -->
<g id="node8" class="node">
<title>Node8</title>
<g id="a_node8"><a xlink:title=" ">
<polygon fill="white" stroke="#bfbfbf" points="211.55,-0.5 211.55,-19.5 273.55,-19.5 273.55,-0.5 211.55,-0.5"/>
<text text-anchor="middle" x="242.55" y="-7.5" font-family="Helvetica,sans-Serif" font-size="10.00">type_traits</text>
</a>
</g>
</g>
<!-- Node2&#45;&gt;Node8 -->
<g id="edge19" class="edge">
<title>Node2&#45;&gt;Node8</title>
<path fill="none" stroke="midnightblue" d="M359.99,-232.47C268.46,-230.62 86.76,-222.57 34.55,-188 10.65,-172.17 9.91,-159.71 2.55,-132 -20.52,-45.1 127.11,-20.47 201.54,-13.6"/>
<polygon fill="midnightblue" stroke="midnightblue" points="201.87,-17.08 211.53,-12.74 201.27,-10.11 201.87,-17.08"/>
</g>
<!-- Node10 -->
<g id="node10" class="node">
<title>Node10</title>
<g id="a_node10"><a xlink:href="internal_2kalman_8hpp.xhtml" target="_top" xlink:title=" ">
<polygon fill="white" stroke="black" points="44.05,-168.5 44.05,-187.5 145.05,-187.5 145.05,-168.5 44.05,-168.5"/>
<text text-anchor="middle" x="94.55" y="-175.5" font-family="Helvetica,sans-Serif" font-size="10.00">internal/kalman.hpp</text>
</a>
</g>
</g>
<!-- Node2&#45;&gt;Node10 -->
<g id="edge10" class="edge">
<title>Node2&#45;&gt;Node10</title>
<path fill="none" stroke="midnightblue" d="M363.01,-224.44C306.54,-214.89 215.18,-199.42 154.99,-189.23"/>
<polygon fill="midnightblue" stroke="midnightblue" points="155.31,-185.73 144.86,-187.52 154.14,-192.64 155.31,-185.73"/>
</g>
<!-- Node14 -->
<g id="node14" class="node">
<title>Node14</title>
<g id="a_node14"><a xlink:title=" ">
<polygon fill="white" stroke="#bfbfbf" points="317.05,-168.5 317.05,-187.5 366.05,-187.5 366.05,-168.5 317.05,-168.5"/>
<text text-anchor="middle" x="341.55" y="-175.5" font-family="Helvetica,sans-Serif" font-size="10.00">cstddef</text>
</a>
</g>
</g>
<!-- Node2&#45;&gt;Node14 -->
<g id="edge17" class="edge">
<title>Node2&#45;&gt;Node14</title>
<path fill="none" stroke="midnightblue" d="M401.99,-224.32C391.13,-216.18 374.67,-203.84 361.67,-194.09"/>
<polygon fill="midnightblue" stroke="midnightblue" points="363.43,-191.03 353.33,-187.83 359.23,-196.63 363.43,-191.03"/>
</g>
<!-- Node15 -->
<g id="node15" class="node">
<title>Node15</title>
<g id="a_node15"><a xlink:title=" ">
<polygon fill="white" stroke="#bfbfbf" points="384.05,-168.5 384.05,-187.5 443.05,-187.5 443.05,-168.5 384.05,-168.5"/>
<text text-anchor="middle" x="413.55" y="-175.5" font-family="Helvetica,sans-Serif" font-size="10.00">functional</text>
</a>
</g>
</g>
<!-- Node2&#45;&gt;Node15 -->
<g id="edge18" class="edge">
<title>Node2&#45;&gt;Node15</title>
<path fill="none" stroke="midnightblue" d="M413.55,-224.08C413.55,-217.01 413.55,-206.86 413.55,-197.99"/>
<polygon fill="midnightblue" stroke="midnightblue" points="417.05,-197.75 413.55,-187.75 410.05,-197.75 417.05,-197.75"/>
</g>
<!-- Node16 -->
<g id="node16" class="node">
<title>Node16</title>
<g id="a_node16"><a xlink:title=" ">
<polygon fill="white" stroke="#bfbfbf" points="461.05,-168.5 461.05,-187.5 500.05,-187.5 500.05,-168.5 461.05,-168.5"/>
<text text-anchor="middle" x="480.55" y="-175.5" font-family="Helvetica,sans-Serif" font-size="10.00">utility</text>
</a>
</g>
</g>
<!-- Node2&#45;&gt;Node16 -->
<g id="edge20" class="edge">
<title>Node2&#45;&gt;Node16</title>
<path fill="none" stroke="midnightblue" d="M424.32,-224.32C434.32,-216.26 449.44,-204.08 461.48,-194.37"/>
<polygon fill="midnightblue" stroke="midnightblue" points="464,-196.83 469.59,-187.83 459.61,-191.38 464,-196.83"/>
</g>
<!-- Node17 -->
<g id="node17" class="node">
<title>Node17</title>
<g id="a_node17"><a xlink:title=" ">
<polygon fill="white" stroke="#bfbfbf" points="518.55,-168.5 518.55,-187.5 616.55,-187.5 616.55,-168.5 518.55,-168.5"/>
<text text-anchor="middle" x="567.55" y="-175.5" font-family="Helvetica,sans-Serif" font-size="10.00">internal/kalman.tpp</text>
</a>
</g>
</g>
<!-- Node2&#45;&gt;Node17 -->
<g id="edge21" class="edge">
<title>Node2&#45;&gt;Node17</title>
<path fill="none" stroke="midnightblue" d="M437.96,-224.44C463.75,-215.4 504.63,-201.06 533.57,-190.92"/>
<polygon fill="midnightblue" stroke="midnightblue" points="534.99,-194.13 543.27,-187.52 532.67,-187.52 534.99,-194.13"/>
</g>
<!-- Node4&#45;&gt;Node5 -->
<g id="edge4" class="edge">
<title>Node4&#45;&gt;Node5</title>
<path fill="none" stroke="midnightblue" d="M249.23,-168.08C248.17,-160.93 246.65,-150.64 245.32,-141.69"/>
<polygon fill="midnightblue" stroke="midnightblue" points="248.78,-141.13 243.85,-131.75 241.85,-142.16 248.78,-141.13"/>
</g>
<!-- Node4&#45;&gt;Node8 -->
<g id="edge9" class="edge">
<title>Node4&#45;&gt;Node8</title>
<path fill="none" stroke="midnightblue" d="M265.51,-168.47C277.49,-160.7 293.43,-148 300.55,-132 304.17,-123.88 300.79,-120.89 300.55,-112 299.89,-87.08 308.83,-78.23 297.55,-56 291.04,-43.15 279.02,-32.66 267.88,-25.05"/>
<polygon fill="midnightblue" stroke="midnightblue" points="269.57,-21.98 259.25,-19.57 265.82,-27.89 269.57,-21.98"/>
</g>
<!-- Node4&#45;&gt;Node9 -->
<g id="edge8" class="edge">
<title>Node4&#45;&gt;Node9</title>
<path fill="none" stroke="midnightblue" d="M295.24,-168.44C352.37,-157.5 449.9,-138.83 500.29,-129.18"/>
<polygon fill="midnightblue" stroke="midnightblue" points="501.14,-132.58 510.3,-127.26 499.82,-125.7 501.14,-132.58"/>
</g>
<!-- Node6 -->
<g id="node6" class="node">
<title>Node6</title>
<g id="a_node6"><a xlink:href="internal_2utility_8hpp.xhtml" target="_top" xlink:title=" ">
<polygon fill="white" stroke="black" points="196.55,-56.5 196.55,-75.5 288.55,-75.5 288.55,-56.5 196.55,-56.5"/>
<text text-anchor="middle" x="242.55" y="-63.5" font-family="Helvetica,sans-Serif" font-size="10.00">internal/utility.hpp</text>
</a>
</g>
</g>
<!-- Node5&#45;&gt;Node6 -->
<g id="edge5" class="edge">
<title>Node5&#45;&gt;Node6</title>
<path fill="none" stroke="midnightblue" d="M242.55,-112.08C242.55,-105.01 242.55,-94.86 242.55,-85.99"/>
<polygon fill="midnightblue" stroke="midnightblue" points="246.05,-85.75 242.55,-75.75 239.05,-85.75 246.05,-85.75"/>
</g>
<!-- Node6&#45;&gt;Node7 -->
<g id="edge6" class="edge">
<title>Node6&#45;&gt;Node7</title>
<path fill="none" stroke="midnightblue" d="M287.08,-56.44C341.81,-45.93 433.75,-28.26 485.39,-18.33"/>
<polygon fill="midnightblue" stroke="midnightblue" points="486.3,-21.72 495.46,-16.4 484.98,-14.85 486.3,-21.72"/>
</g>
<!-- Node6&#45;&gt;Node8 -->
<g id="edge7" class="edge">
<title>Node6&#45;&gt;Node8</title>
<path fill="none" stroke="midnightblue" d="M242.55,-56.08C242.55,-49.01 242.55,-38.86 242.55,-29.99"/>
<polygon fill="midnightblue" stroke="midnightblue" points="246.05,-29.75 242.55,-19.75 239.05,-29.75 246.05,-29.75"/>
</g>
<!-- Node10&#45;&gt;Node6 -->
<g id="edge13" class="edge">
<title>Node10&#45;&gt;Node6</title>
<path fill="none" stroke="midnightblue" d="M106.17,-168.37C131.35,-149.65 191.22,-105.15 222.6,-81.83"/>
<polygon fill="midnightblue" stroke="midnightblue" points="225.06,-84.37 231,-75.59 220.88,-78.75 225.06,-84.37"/>
</g>
<!-- Node11 -->
<g id="node11" class="node">
<title>Node11</title>
<g id="a_node11"><a xlink:href="function_8hpp.xhtml" target="_top" xlink:title=" ">
<polygon fill="white" stroke="black" points="68.05,-112.5 68.05,-131.5 137.05,-131.5 137.05,-112.5 68.05,-112.5"/>
<text text-anchor="middle" x="102.55" y="-119.5" font-family="Helvetica,sans-Serif" font-size="10.00">function.hpp</text>
</a>
</g>
</g>
<!-- Node10&#45;&gt;Node11 -->
<g id="edge11" class="edge">
<title>Node10&#45;&gt;Node11</title>
<path fill="none" stroke="midnightblue" d="M95.88,-168.08C96.94,-160.93 98.46,-150.64 99.79,-141.69"/>
<polygon fill="midnightblue" stroke="midnightblue" points="103.25,-142.16 101.26,-131.75 96.33,-141.13 103.25,-142.16"/>
</g>
<!-- Node13 -->
<g id="node13" class="node">
<title>Node13</title>
<g id="a_node13"><a xlink:title=" ">
<polygon fill="white" stroke="#bfbfbf" points="11.55,-112.5 11.55,-131.5 49.55,-131.5 49.55,-112.5 11.55,-112.5"/>
<text text-anchor="middle" x="30.55" y="-119.5" font-family="Helvetica,sans-Serif" font-size="10.00">tuple</text>
</a>
</g>
</g>
<!-- Node10&#45;&gt;Node13 -->
<g id="edge14" class="edge">
<title>Node10&#45;&gt;Node13</title>
<path fill="none" stroke="midnightblue" d="M84.27,-168.32C74.72,-160.26 60.27,-148.08 48.77,-138.37"/>
<polygon fill="midnightblue" stroke="midnightblue" points="50.92,-135.61 41.02,-131.83 46.41,-140.96 50.92,-135.61"/>
</g>
<!-- Node12 -->
<g id="node12" class="node">
<title>Node12</title>
<g id="a_node12"><a xlink:title=" ">
<polygon fill="white" stroke="#bfbfbf" points="77.05,-56.5 77.05,-75.5 128.05,-75.5 128.05,-56.5 77.05,-56.5"/>
<text text-anchor="middle" x="102.55" y="-63.5" font-family="Helvetica,sans-Serif" font-size="10.00">memory</text>
</a>
</g>
</g>
<!-- Node11&#45;&gt;Node12 -->
<g id="edge12" class="edge">
<title>Node11&#45;&gt;Node12</title>
<path fill="none" stroke="midnightblue" d="M102.55,-112.08C102.55,-105.01 102.55,-94.86 102.55,-85.99"/>
<polygon fill="midnightblue" stroke="midnightblue" points="106.05,-85.75 102.55,-75.75 99.05,-85.75 106.05,-85.75"/>
</g>
</g>
</svg>
