<?xml version="1.0" encoding="UTF-8" standalone="no"?>
<!DOCTYPE svg PUBLIC "-//W3C//DTD SVG 1.1//EN"
 "http://www.w3.org/Graphics/SVG/1.1/DTD/svg11.dtd">
<!-- Generated by graphviz version 12.2.0 (20241103.1931)
 -->
<!-- Title: /github/workspace/test/kalman_println_1x1x0.cpp Pages: 1 -->
<!--zoomable 381 -->

<svg id="main" version="1.1" xmlns="http://www.w3.org/2000/svg" xmlns:xlink="http://www.w3.org/1999/xlink" xml:space="preserve" onload="init(evt)">

<style type="text/css"><![CDATA[
.node, .edge {opacity: 0.7;}
.node.selected, .edge.selected {opacity: 1;}
.edge:hover path { stroke: red; }
.edge:hover polygon { stroke: red; fill: red; }
]]></style>

<defs>
  <circle id="rim" cx="0" cy="0" r="7"/>
  <circle id="rim2" cx="0" cy="0" r="3.5"/>
  <g id="zoomPlus">
    <use xlink:href="#rim" fill="#404040"><set attributeName="fill" to="#808080" begin="zoomplus.mouseover" end="zoomplus.mouseout"/></use>
    <path d="M-4,0h8M0,-4v8" fill="none" stroke="white" stroke-width="1.5" pointer-events="none"/>
  </g>
  <g id="zoomMin">
    <use xlink:href="#rim" fill="#404040"><set attributeName="fill" to="#808080" begin="zoomminus.mouseover" end="zoomminus.mouseout"/></use>
    <path d="M-4,0h8" fill="none" stroke="white" stroke-width="1.5" pointer-events="none"/>
  </g>
  <g id="arrowUp" transform="translate(30 24)">
    <use xlink:href="#rim"/>
    <path pointer-events="none" fill="none" stroke="white" stroke-width="1.5" d="M0,-3.0v7 M-2.5,-0.5L0,-3.0L2.5,-0.5"/>
  </g>
  <g id="arrowRight" transform="rotate(90) translate(36 -43)">
    <use xlink:href="#rim"/>
    <path pointer-events="none" fill="none" stroke="white" stroke-width="1.5" d="M0,-3.0v7 M-2.5,-0.5L0,-3.0L2.5,-0.5"/>
  </g>
  <g id="arrowDown" transform="rotate(180) translate(-30 -48)">
    <use xlink:href="#rim"/>
    <path pointer-events="none" fill="none" stroke="white" stroke-width="1.5" d="M0,-3.0v7 M-2.5,-0.5L0,-3.0L2.5,-0.5"/>
  </g>
  <g id="arrowLeft" transform="rotate(270) translate(-36 17)">
    <use xlink:href="#rim"/>
    <path pointer-events="none" fill="none" stroke="white" stroke-width="1.5" d="M0,-3.0v7 M-2.5,-0.5L0,-3.0L2.5,-0.5"/>
  </g>
  <g id="resetDef">
    <use xlink:href="#rim2" fill="#404040"><set attributeName="fill" to="#808080" begin="reset.mouseover" end="reset.mouseout"/></use>
  </g>
</defs>
<script type="application/ecmascript">
var viewWidth = 1801;
var viewHeight = 381;
var sectionId = 'dynsection-0';
</script>
<script type="application/ecmascript" xlink:href="svg.min.js"/>
<svg id="graph" class="graph">
<g id="viewport">
<title>/github/workspace/test/kalman_println_1x1x0.cpp</title>
<!-- Node1 -->
<g id="Node000001" class="node">
<title>Node1</title>
<g id="a_Node000001"><a xlink:title=" ">
<polygon fill="#999999" stroke="#666666" points="1781.75,-373.25 1651.75,-373.25 1651.75,-342.75 1781.75,-342.75 1781.75,-373.25"/>
<text text-anchor="start" x="1659.75" y="-359.75" font-family="Helvetica,sans-Serif" font-size="10.00">/github/workspace/test</text>
<text text-anchor="middle" x="1716.75" y="-348.5" font-family="Helvetica,sans-Serif" font-size="10.00">/kalman_println_1x1x0.cpp</text>
</a>
</g>
</g>
<!-- Node2 -->
<g id="Node000002" class="node">
<title>Node2</title>
<g id="a_Node000002"><a xlink:href="kalman_8hpp.xhtml" target="_top" xlink:title="The Kalman filter class and library top&#45;level header.">
<polygon fill="white" stroke="#666666" points="1491.75,-306.75 1385.75,-306.75 1385.75,-287.5 1491.75,-287.5 1491.75,-306.75"/>
<text text-anchor="middle" x="1438.75" y="-293.25" font-family="Helvetica,sans-Serif" font-size="10.00">fcarouge/kalman.hpp</text>
</a>
</g>
</g>
<!-- Node1&#45;&gt;Node2 -->
<g id="edge1_Node000001_Node000002" class="edge">
<title>Node1&#45;&gt;Node2</title>
<g id="a_edge1_Node000001_Node000002"><a xlink:title=" ">
<path fill="none" stroke="#63b8ff" d="M1651.57,-343.2C1603.19,-332.95 1538.01,-319.15 1492.58,-309.52"/>
<polygon fill="#63b8ff" stroke="#63b8ff" points="1493.46,-306.13 1482.95,-307.49 1492.01,-312.98 1493.46,-306.13"/>
</a>
</g>
</g>
<!-- Node27 -->
<g id="Node000027" class="node">
<title>Node27</title>
<g id="a_Node000027"><a xlink:title=" ">
<polygon fill="#e0e0e0" stroke="#999999" points="1758.12,-190.62 1723.38,-190.62 1723.38,-171.38 1758.12,-171.38 1758.12,-190.62"/>
<text text-anchor="middle" x="1740.75" y="-177.12" font-family="Helvetica,sans-Serif" font-size="10.00">print</text>
</a>
</g>
</g>
<!-- Node1&#45;&gt;Node27 -->
<g id="edge55_Node000001_Node000027" class="edge">
<title>Node1&#45;&gt;Node27</title>
<g id="a_edge55_Node000001_Node000027"><a xlink:title=" ">
<path fill="none" stroke="#63b8ff" d="M1718.75,-342.38C1723.03,-311.21 1733.05,-238.17 1737.95,-202.43"/>
<polygon fill="#63b8ff" stroke="#63b8ff" points="1741.41,-202.97 1739.3,-192.59 1734.47,-202.02 1741.41,-202.97"/>
</a>
</g>
</g>
<!-- Node29 -->
<g id="Node000029" class="node">
<title>Node29</title>
<g id="a_Node000029"><a xlink:title=" ">
<polygon fill="#e0e0e0" stroke="#999999" points="1792.88,-306.75 1744.62,-306.75 1744.62,-287.5 1792.88,-287.5 1792.88,-306.75"/>
<text text-anchor="middle" x="1768.75" y="-293.25" font-family="Helvetica,sans-Serif" font-size="10.00">cassert</text>
</a>
</g>
</g>
<!-- Node1&#45;&gt;Node29 -->
<g id="edge54_Node000001_Node000029" class="edge">
<title>Node1&#45;&gt;Node29</title>
<g id="a_edge54_Node000001_Node000029"><a xlink:title=" ">
<path fill="none" stroke="#63b8ff" d="M1729.6,-342.45C1736.76,-334.34 1745.72,-324.2 1753.26,-315.66"/>
<polygon fill="#63b8ff" stroke="#63b8ff" points="1755.74,-318.15 1759.73,-308.34 1750.49,-313.51 1755.74,-318.15"/>
</a>
</g>
</g>
<!-- Node3 -->
<g id="Node000003" class="node">
<title>Node3</title>
<g id="a_Node000003"><a xlink:href="factory_8hpp.xhtml" target="_top" xlink:title=" ">
<polygon fill="white" stroke="#666666" points="1017,-251.5 882.5,-251.5 882.5,-232.25 1017,-232.25 1017,-251.5"/>
<text text-anchor="middle" x="949.75" y="-238" font-family="Helvetica,sans-Serif" font-size="10.00">kalman_internal/factory.hpp</text>
</a>
</g>
</g>
<!-- Node2&#45;&gt;Node3 -->
<g id="edge2_Node000002_Node000003" class="edge">
<title>Node2&#45;&gt;Node3</title>
<g id="a_edge2_Node000002_Node000003"><a xlink:title=" ">
<path fill="none" stroke="#63b8ff" d="M1385.49,-290.32C1299.32,-280.94 1128.92,-262.39 1028.64,-251.47"/>
<polygon fill="#63b8ff" stroke="#63b8ff" points="1029.19,-248.01 1018.87,-250.4 1028.44,-254.96 1029.19,-248.01"/>
</a>
</g>
</g>
<!-- Node5 -->
<g id="Node000005" class="node">
<title>Node5</title>
<g id="a_Node000005"><a xlink:href="utility_8hpp.xhtml" target="_top" xlink:title="The collection of utilities supporting the library.">
<polygon fill="white" stroke="#666666" points="1069.25,-129.75 972.25,-129.75 972.25,-110.5 1069.25,-110.5 1069.25,-129.75"/>
<text text-anchor="middle" x="1020.75" y="-116.25" font-family="Helvetica,sans-Serif" font-size="10.00">fcarouge/utility.hpp</text>
</a>
</g>
</g>
<!-- Node2&#45;&gt;Node5 -->
<g id="edge52_Node000002_Node000005" class="edge">
<title>Node2&#45;&gt;Node5</title>
<g id="a_edge52_Node000002_Node000005"><a xlink:title=" ">
<path fill="none" stroke="#63b8ff" d="M1430.5,-287.38C1404.04,-259.4 1322.14,-173.51 1306.75,-165.75 1268.2,-146.31 1152.58,-132.87 1080.7,-126.12"/>
<polygon fill="#63b8ff" stroke="#63b8ff" points="1081.34,-122.67 1071.06,-125.24 1080.7,-129.64 1081.34,-122.67"/>
</a>
</g>
</g>
<!-- Node24 -->
<g id="Node000024" class="node">
<title>Node24</title>
<g id="a_Node000024"><a xlink:href="format_8hpp.xhtml" target="_top" xlink:title="Formatting support for the Kalman filter.">
<polygon fill="white" stroke="#666666" points="1629.25,-190.62 1496.25,-190.62 1496.25,-171.38 1629.25,-171.38 1629.25,-190.62"/>
<text text-anchor="middle" x="1562.75" y="-177.12" font-family="Helvetica,sans-Serif" font-size="10.00">kalman_internal/format.hpp</text>
</a>
</g>
</g>
<!-- Node2&#45;&gt;Node24 -->
<g id="edge45_Node000002_Node000024" class="edge">
<title>Node2&#45;&gt;Node24</title>
<g id="a_edge45_Node000002_Node000024"><a xlink:title=" ">
<path fill="none" stroke="#63b8ff" d="M1448.48,-287.17C1469.22,-268.09 1518.03,-223.16 1544.66,-198.65"/>
<polygon fill="#63b8ff" stroke="#63b8ff" points="1546.96,-201.29 1551.95,-191.94 1542.22,-196.14 1546.96,-201.29"/>
</a>
</g>
</g>
<!-- Node26 -->
<g id="Node000026" class="node">
<title>Node26</title>
<g id="a_Node000026"><a xlink:href="printer_8hpp.xhtml" target="_top" xlink:title="Filter decoration support for printing operations.">
<polygon fill="white" stroke="#666666" points="1664.88,-251.5 1532.62,-251.5 1532.62,-232.25 1664.88,-232.25 1664.88,-251.5"/>
<text text-anchor="middle" x="1598.75" y="-238" font-family="Helvetica,sans-Serif" font-size="10.00">kalman_internal/printer.hpp</text>
</a>
</g>
</g>
<!-- Node2&#45;&gt;Node26 -->
<g id="edge50_Node000002_Node000026" class="edge">
<title>Node2&#45;&gt;Node26</title>
<g id="a_edge50_Node000002_Node000026"><a xlink:title=" ">
<path fill="none" stroke="#63b8ff" d="M1465.89,-287.09C1491.98,-278.41 1531.65,-265.21 1560.85,-255.49"/>
<polygon fill="#63b8ff" stroke="#63b8ff" points="1561.66,-258.91 1570.04,-252.43 1559.45,-252.27 1561.66,-258.91"/>
</a>
</g>
</g>
<!-- Node28 -->
<g id="Node000028" class="node">
<title>Node28</title>
<g id="a_Node000028"><a xlink:title=" ">
<polygon fill="#e0e0e0" stroke="#999999" points="1298,-251.5 1163.5,-251.5 1163.5,-232.25 1298,-232.25 1298,-251.5"/>
<text text-anchor="middle" x="1230.75" y="-238" font-family="Helvetica,sans-Serif" font-size="10.00">kalman_internal/kalman.tpp</text>
</a>
</g>
</g>
<!-- Node2&#45;&gt;Node28 -->
<g id="edge53_Node000002_Node000028" class="edge">
<title>Node2&#45;&gt;Node28</title>
<g id="a_edge53_Node000002_Node000028"><a xlink:title=" ">
<path fill="none" stroke="#63b8ff" d="M1403.47,-287.09C1368.65,-278.18 1315.25,-264.51 1277.04,-254.73"/>
<polygon fill="#63b8ff" stroke="#63b8ff" points="1278.23,-251.42 1267.67,-252.33 1276.49,-258.2 1278.23,-251.42"/>
</a>
</g>
</g>
<!-- Node4 -->
<g id="Node000004" class="node">
<title>Node4</title>
<g id="a_Node000004"><a xlink:href="type_8hpp.xhtml" target="_top" xlink:title=" ">
<polygon fill="white" stroke="#666666" points="1478.12,-196.25 1353.38,-196.25 1353.38,-165.75 1478.12,-165.75 1478.12,-196.25"/>
<text text-anchor="start" x="1361.38" y="-182.75" font-family="Helvetica,sans-Serif" font-size="10.00">fcarouge/kalman_internal</text>
<text text-anchor="middle" x="1415.75" y="-171.5" font-family="Helvetica,sans-Serif" font-size="10.00">/type.hpp</text>
</a>
</g>
</g>
<!-- Node3&#45;&gt;Node4 -->
<g id="edge3_Node000003_Node000004" class="edge">
<title>Node3&#45;&gt;Node4</title>
<g id="a_edge3_Node000003_Node000004"><a xlink:title=" ">
<path fill="none" stroke="#63b8ff" d="M1017.21,-232.56C1089,-223.68 1205.91,-209.14 1306.75,-196.25 1318.08,-194.8 1330.08,-193.25 1341.8,-191.72"/>
<polygon fill="#63b8ff" stroke="#63b8ff" points="1341.97,-195.23 1351.43,-190.47 1341.06,-188.29 1341.97,-195.23"/>
</a>
</g>
</g>
<!-- Node7 -->
<g id="Node000007" class="node">
<title>Node7</title>
<g id="a_Node000007"><a xlink:title=" ">
<polygon fill="#e0e0e0" stroke="#999999" points="1532.62,-19.25 1476.88,-19.25 1476.88,0 1532.62,0 1532.62,-19.25"/>
<text text-anchor="middle" x="1504.75" y="-5.75" font-family="Helvetica,sans-Serif" font-size="10.00">concepts</text>
</a>
</g>
</g>
<!-- Node3&#45;&gt;Node7 -->
<g id="edge43_Node000003_Node000007" class="edge">
<title>Node3&#45;&gt;Node7</title>
<g id="a_edge43_Node000003_Node000007"><a xlink:title=" ">
<path fill="none" stroke="#63b8ff" d="M1017.44,-237.71C1189.02,-229.52 1628.2,-207.5 1638.75,-196.25 1664.81,-168.44 1655.84,-144.56 1638.75,-110.5 1617.82,-68.8 1570.3,-40.07 1537.87,-24.48"/>
<polygon fill="#63b8ff" stroke="#63b8ff" points="1539.42,-21.35 1528.88,-20.33 1536.49,-27.7 1539.42,-21.35"/>
</a>
</g>
</g>
<!-- Node10 -->
<g id="Node000010" class="node">
<title>Node10</title>
<g id="a_Node000010"><a xlink:title=" ">
<polygon fill="#e0e0e0" stroke="#999999" points="1638.25,-19.25 1577.25,-19.25 1577.25,0 1638.25,0 1638.25,-19.25"/>
<text text-anchor="middle" x="1607.75" y="-5.75" font-family="Helvetica,sans-Serif" font-size="10.00">type_traits</text>
</a>
</g>
</g>
<!-- Node3&#45;&gt;Node10 -->
<g id="edge44_Node000003_Node000010" class="edge">
<title>Node3&#45;&gt;Node10</title>
<g id="a_edge44_Node000003_Node000010"><a xlink:title=" ">
<path fill="none" stroke="#63b8ff" d="M1017.35,-237.85C1192.79,-229.84 1649.81,-207.9 1660.75,-196.25 1705.84,-148.24 1650.47,-64.55 1622.3,-28.25"/>
<polygon fill="#63b8ff" stroke="#63b8ff" points="1625.11,-26.16 1616.13,-20.52 1619.64,-30.52 1625.11,-26.16"/>
</a>
</g>
</g>
<!-- Node13 -->
<g id="Node000013" class="node">
<title>Node13</title>
<g id="a_Node000013"><a xlink:href="x__z__p__q__r_8hpp.xhtml" target="_top" xlink:title=" ">
<polygon fill="white" stroke="#666666" points="1012.12,-196.25 887.38,-196.25 887.38,-165.75 1012.12,-165.75 1012.12,-196.25"/>
<text text-anchor="start" x="895.38" y="-182.75" font-family="Helvetica,sans-Serif" font-size="10.00">fcarouge/kalman_internal</text>
<text text-anchor="middle" x="949.75" y="-171.5" font-family="Helvetica,sans-Serif" font-size="10.00">/x_z_p_q_r.hpp</text>
</a>
</g>
</g>
<!-- Node3&#45;&gt;Node13 -->
<g id="edge14_Node000003_Node000013" class="edge">
<title>Node3&#45;&gt;Node13</title>
<g id="a_edge14_Node000003_Node000013"><a xlink:title=" ">
<path fill="none" stroke="#63b8ff" d="M949.75,-231.93C949.75,-225.48 949.75,-216.41 949.75,-207.76"/>
<polygon fill="#63b8ff" stroke="#63b8ff" points="953.25,-208.05 949.75,-198.05 946.25,-208.05 953.25,-208.05"/>
</a>
</g>
</g>
<!-- Node14 -->
<g id="Node000014" class="node">
<title>Node14</title>
<g id="a_Node000014"><a xlink:href="x__z__p__q__r__h__f_8hpp.xhtml" target="_top" xlink:title=" ">
<polygon fill="white" stroke="#666666" points="1155.12,-196.25 1030.38,-196.25 1030.38,-165.75 1155.12,-165.75 1155.12,-196.25"/>
<text text-anchor="start" x="1038.38" y="-182.75" font-family="Helvetica,sans-Serif" font-size="10.00">fcarouge/kalman_internal</text>
<text text-anchor="middle" x="1092.75" y="-171.5" font-family="Helvetica,sans-Serif" font-size="10.00">/x_z_p_q_r_h_f.hpp</text>
</a>
</g>
</g>
<!-- Node3&#45;&gt;Node14 -->
<g id="edge16_Node000003_Node000014" class="edge">
<title>Node3&#45;&gt;Node14</title>
<g id="a_edge16_Node000003_Node000014"><a xlink:title=" ">
<path fill="none" stroke="#63b8ff" d="M971.78,-231.8C991.66,-223.62 1021.55,-211.31 1046.64,-200.98"/>
<polygon fill="#63b8ff" stroke="#63b8ff" points="1047.74,-204.31 1055.66,-197.27 1045.08,-197.84 1047.74,-204.31"/>
</a>
</g>
</g>
<!-- Node15 -->
<g id="Node000015" class="node">
<title>Node15</title>
<g id="a_Node000015"><a xlink:href="x__z__p__q__r__hh__us__ps_8hpp.xhtml" target="_top" xlink:title=" ">
<polygon fill="white" stroke="#666666" points="271.62,-196.25 143.88,-196.25 143.88,-165.75 271.62,-165.75 271.62,-196.25"/>
<text text-anchor="start" x="151.88" y="-182.75" font-family="Helvetica,sans-Serif" font-size="10.00">fcarouge/kalman_internal</text>
<text text-anchor="middle" x="207.75" y="-171.5" font-family="Helvetica,sans-Serif" font-size="10.00">/x_z_p_q_r_hh_us_ps.hpp</text>
</a>
</g>
</g>
<!-- Node3&#45;&gt;Node15 -->
<g id="edge18_Node000003_Node000015" class="edge">
<title>Node3&#45;&gt;Node15</title>
<g id="a_edge18_Node000003_Node000015"><a xlink:title=" ">
<path fill="none" stroke="#63b8ff" d="M882.05,-239.18C762.98,-235.58 508.13,-225.13 283.14,-196.44"/>
<polygon fill="#63b8ff" stroke="#63b8ff" points="283.64,-192.98 273.27,-195.16 282.74,-199.92 283.64,-192.98"/>
</a>
</g>
</g>
<!-- Node18 -->
<g id="Node000018" class="node">
<title>Node18</title>
<g id="a_Node000018"><a xlink:href="x__z__p__qq__rr__f_8hpp.xhtml" target="_top" xlink:title=" ">
<polygon fill="white" stroke="#666666" points="726.12,-196.25 601.38,-196.25 601.38,-165.75 726.12,-165.75 726.12,-196.25"/>
<text text-anchor="start" x="609.38" y="-182.75" font-family="Helvetica,sans-Serif" font-size="10.00">fcarouge/kalman_internal</text>
<text text-anchor="middle" x="663.75" y="-171.5" font-family="Helvetica,sans-Serif" font-size="10.00">/x_z_p_qq_rr_f.hpp</text>
</a>
</g>
</g>
<!-- Node3&#45;&gt;Node18 -->
<g id="edge23_Node000003_Node000018" class="edge">
<title>Node3&#45;&gt;Node18</title>
<g id="a_edge23_Node000003_Node000018"><a xlink:title=" ">
<path fill="none" stroke="#63b8ff" d="M905.69,-231.8C860.93,-222.59 790.79,-208.15 737.54,-197.19"/>
<polygon fill="#63b8ff" stroke="#63b8ff" points="738.43,-193.8 727.93,-195.21 737.02,-200.66 738.43,-193.8"/>
</a>
</g>
</g>
<!-- Node19 -->
<g id="Node000019" class="node">
<title>Node19</title>
<g id="a_Node000019"><a xlink:href="x__z__p__r_8hpp.xhtml" target="_top" xlink:title=" ">
<polygon fill="white" stroke="#666666" points="1298.12,-196.25 1173.38,-196.25 1173.38,-165.75 1298.12,-165.75 1298.12,-196.25"/>
<text text-anchor="start" x="1181.38" y="-182.75" font-family="Helvetica,sans-Serif" font-size="10.00">fcarouge/kalman_internal</text>
<text text-anchor="middle" x="1235.75" y="-171.5" font-family="Helvetica,sans-Serif" font-size="10.00">/x_z_p_r.hpp</text>
</a>
</g>
</g>
<!-- Node3&#45;&gt;Node19 -->
<g id="edge27_Node000003_Node000019" class="edge">
<title>Node3&#45;&gt;Node19</title>
<g id="a_edge27_Node000003_Node000019"><a xlink:title=" ">
<path fill="none" stroke="#63b8ff" d="M993.81,-231.8C1038.57,-222.59 1108.71,-208.15 1161.96,-197.19"/>
<polygon fill="#63b8ff" stroke="#63b8ff" points="1162.48,-200.66 1171.57,-195.21 1161.07,-193.8 1162.48,-200.66"/>
</a>
</g>
</g>
<!-- Node20 -->
<g id="Node000020" class="node">
<title>Node20</title>
<g id="a_Node000020"><a xlink:href="x__z__p__r__f_8hpp.xhtml" target="_top" xlink:title=" ">
<polygon fill="white" stroke="#666666" points="869.12,-196.25 744.38,-196.25 744.38,-165.75 869.12,-165.75 869.12,-196.25"/>
<text text-anchor="start" x="752.38" y="-182.75" font-family="Helvetica,sans-Serif" font-size="10.00">fcarouge/kalman_internal</text>
<text text-anchor="middle" x="806.75" y="-171.5" font-family="Helvetica,sans-Serif" font-size="10.00">/x_z_p_r_f.hpp</text>
</a>
</g>
</g>
<!-- Node3&#45;&gt;Node20 -->
<g id="edge29_Node000003_Node000020" class="edge">
<title>Node3&#45;&gt;Node20</title>
<g id="a_edge29_Node000003_Node000020"><a xlink:title=" ">
<path fill="none" stroke="#63b8ff" d="M927.72,-231.8C907.84,-223.62 877.95,-211.31 852.86,-200.98"/>
<polygon fill="#63b8ff" stroke="#63b8ff" points="854.42,-197.84 843.84,-197.27 851.76,-204.31 854.42,-197.84"/>
</a>
</g>
</g>
<!-- Node21 -->
<g id="Node000021" class="node">
<title>Node21</title>
<g id="a_Node000021"><a xlink:href="x__z__u__p__q__r_8hpp.xhtml" target="_top" xlink:title=" ">
<polygon fill="white" stroke="#666666" points="414.12,-196.25 289.38,-196.25 289.38,-165.75 414.12,-165.75 414.12,-196.25"/>
<text text-anchor="start" x="297.38" y="-182.75" font-family="Helvetica,sans-Serif" font-size="10.00">fcarouge/kalman_internal</text>
<text text-anchor="middle" x="351.75" y="-171.5" font-family="Helvetica,sans-Serif" font-size="10.00">/x_z_u_p_q_r.hpp</text>
</a>
</g>
</g>
<!-- Node3&#45;&gt;Node21 -->
<g id="edge31_Node000003_Node000021" class="edge">
<title>Node3&#45;&gt;Node21</title>
<g id="a_edge31_Node000003_Node000021"><a xlink:title=" ">
<path fill="none" stroke="#63b8ff" d="M882.09,-237.61C783.73,-232.32 595.35,-220.14 425.8,-196.58"/>
<polygon fill="#63b8ff" stroke="#63b8ff" points="426.29,-193.12 415.9,-195.19 425.32,-200.05 426.29,-193.12"/>
</a>
</g>
</g>
<!-- Node22 -->
<g id="Node000022" class="node">
<title>Node22</title>
<g id="a_Node000022"><a xlink:href="x__z__u__p__q__r__f__g__ps_8hpp.xhtml" target="_top" xlink:title=" ">
<polygon fill="white" stroke="#666666" points="125.5,-196.25 0,-196.25 0,-165.75 125.5,-165.75 125.5,-196.25"/>
<text text-anchor="start" x="8" y="-182.75" font-family="Helvetica,sans-Serif" font-size="10.00">fcarouge/kalman_internal</text>
<text text-anchor="middle" x="62.75" y="-171.5" font-family="Helvetica,sans-Serif" font-size="10.00">/x_z_u_p_q_r_f_g_ps.hpp</text>
</a>
</g>
</g>
<!-- Node3&#45;&gt;Node22 -->
<g id="edge35_Node000003_Node000022" class="edge">
<title>Node3&#45;&gt;Node22</title>
<g id="a_edge35_Node000003_Node000022"><a xlink:title=" ">
<path fill="none" stroke="#63b8ff" d="M882.11,-240.38C743.93,-238.68 419.21,-231.12 137.17,-196.42"/>
<polygon fill="#63b8ff" stroke="#63b8ff" points="137.74,-192.97 127.39,-195.2 136.88,-199.91 137.74,-192.97"/>
</a>
</g>
</g>
<!-- Node23 -->
<g id="Node000023" class="node">
<title>Node23</title>
<g id="a_Node000023"><a xlink:href="x__z__u__p__q__r__h__f__g__us__ps_8hpp.xhtml" target="_top" xlink:title=" ">
<polygon fill="white" stroke="#666666" points="583.62,-196.25 431.88,-196.25 431.88,-165.75 583.62,-165.75 583.62,-196.25"/>
<text text-anchor="start" x="439.88" y="-182.75" font-family="Helvetica,sans-Serif" font-size="10.00">fcarouge/kalman_internal</text>
<text text-anchor="middle" x="507.75" y="-171.5" font-family="Helvetica,sans-Serif" font-size="10.00">/x_z_u_p_q_r_h_f_g_us_ps.hpp</text>
</a>
</g>
</g>
<!-- Node3&#45;&gt;Node23 -->
<g id="edge39_Node000003_Node000023" class="edge">
<title>Node3&#45;&gt;Node23</title>
<g id="a_edge39_Node000003_Node000023"><a xlink:title=" ">
<path fill="none" stroke="#63b8ff" d="M882.19,-233.28C812.77,-225.29 701.28,-211.91 594.99,-196.54"/>
<polygon fill="#63b8ff" stroke="#63b8ff" points="595.62,-193.09 585.22,-195.12 594.61,-200.02 595.62,-193.09"/>
</a>
</g>
</g>
<!-- Node4&#45;&gt;Node5 -->
<g id="edge4_Node000004_Node000005" class="edge">
<title>Node4&#45;&gt;Node5</title>
<g id="a_edge4_Node000004_Node000005"><a xlink:title=" ">
<path fill="none" stroke="#63b8ff" d="M1353.17,-168.03C1348.63,-167.23 1344.12,-166.47 1339.75,-165.75 1249.68,-151.01 1144.81,-136.93 1080.61,-128.66"/>
<polygon fill="#63b8ff" stroke="#63b8ff" points="1081.36,-125.22 1071,-127.42 1080.47,-132.17 1081.36,-125.22"/>
</a>
</g>
</g>
<!-- Node4&#45;&gt;Node10 -->
<g id="edge13_Node000004_Node000010" class="edge">
<title>Node4&#45;&gt;Node10</title>
<g id="a_edge13_Node000004_Node000010"><a xlink:title=" ">
<path fill="none" stroke="#63b8ff" d="M1436.8,-165.35C1464.19,-145.91 1512.98,-109.88 1550.75,-74.5 1566.46,-59.78 1582.64,-41.27 1593.73,-27.97"/>
<polygon fill="#63b8ff" stroke="#63b8ff" points="1596.22,-30.45 1599.86,-20.5 1590.81,-26.01 1596.22,-30.45"/>
</a>
</g>
</g>
<!-- Node12 -->
<g id="Node000012" class="node">
<title>Node12</title>
<g id="a_Node000012"><a xlink:title=" ">
<polygon fill="#e0e0e0" stroke="#999999" points="1281.5,-129.75 1210,-129.75 1210,-110.5 1281.5,-110.5 1281.5,-129.75"/>
<text text-anchor="middle" x="1245.75" y="-116.25" font-family="Helvetica,sans-Serif" font-size="10.00">initializer_list</text>
</a>
</g>
</g>
<!-- Node4&#45;&gt;Node12 -->
<g id="edge12_Node000004_Node000012" class="edge">
<title>Node4&#45;&gt;Node12</title>
<g id="a_edge12_Node000004_Node000012"><a xlink:title=" ">
<path fill="none" stroke="#63b8ff" d="M1373.29,-165.3C1345.5,-155.67 1309.52,-143.21 1282.87,-133.98"/>
<polygon fill="#63b8ff" stroke="#63b8ff" points="1284.1,-130.7 1273.5,-130.74 1281.81,-137.32 1284.1,-130.7"/>
</a>
</g>
</g>
<!-- Node6 -->
<g id="Node000006" class="node">
<title>Node6</title>
<g id="a_Node000006"><a xlink:href="kalman__internal_2utility_8hpp.xhtml" target="_top" xlink:title=" ">
<polygon fill="white" stroke="#666666" points="1541.62,-74.5 1413.88,-74.5 1413.88,-55.25 1541.62,-55.25 1541.62,-74.5"/>
<text text-anchor="middle" x="1477.75" y="-61" font-family="Helvetica,sans-Serif" font-size="10.00">kalman_internal/utility.hpp</text>
</a>
</g>
</g>
<!-- Node5&#45;&gt;Node6 -->
<g id="edge5_Node000005_Node000006" class="edge">
<title>Node5&#45;&gt;Node6</title>
<g id="a_edge5_Node000005_Node000006"><a xlink:title=" ">
<path fill="none" stroke="#63b8ff" d="M1069.66,-113.43C1149.42,-104.13 1308.07,-85.65 1402.34,-74.66"/>
<polygon fill="#63b8ff" stroke="#63b8ff" points="1402.48,-78.17 1412,-73.54 1401.67,-71.22 1402.48,-78.17"/>
</a>
</g>
</g>
<!-- Node8 -->
<g id="Node000008" class="node">
<title>Node8</title>
<g id="a_Node000008"><a xlink:title=" ">
<polygon fill="#e0e0e0" stroke="#999999" points="1409.88,-19.25 1361.62,-19.25 1361.62,0 1409.88,0 1409.88,-19.25"/>
<text text-anchor="middle" x="1385.75" y="-5.75" font-family="Helvetica,sans-Serif" font-size="10.00">cstddef</text>
</a>
</g>
</g>
<!-- Node5&#45;&gt;Node8 -->
<g id="edge10_Node000005_Node000008" class="edge">
<title>Node5&#45;&gt;Node8</title>
<g id="a_edge10_Node000005_Node000008"><a xlink:title=" ">
<path fill="none" stroke="#63b8ff" d="M1051.24,-110.06C1118.57,-90.05 1279.61,-42.18 1350.84,-21"/>
<polygon fill="#63b8ff" stroke="#63b8ff" points="1351.43,-24.48 1360.02,-18.27 1349.44,-17.77 1351.43,-24.48"/>
</a>
</g>
</g>
<!-- Node11 -->
<g id="Node000011" class="node">
<title>Node11</title>
<g id="a_Node000011"><a xlink:title=" ">
<polygon fill="#e0e0e0" stroke="#999999" points="1040,-74.5 1001.5,-74.5 1001.5,-55.25 1040,-55.25 1040,-74.5"/>
<text text-anchor="middle" x="1020.75" y="-61" font-family="Helvetica,sans-Serif" font-size="10.00">utility</text>
</a>
</g>
</g>
<!-- Node5&#45;&gt;Node11 -->
<g id="edge11_Node000005_Node000011" class="edge">
<title>Node5&#45;&gt;Node11</title>
<g id="a_edge11_Node000005_Node000011"><a xlink:title=" ">
<path fill="none" stroke="#63b8ff" d="M1020.75,-110.33C1020.75,-103.82 1020.75,-94.67 1020.75,-86.37"/>
<polygon fill="#63b8ff" stroke="#63b8ff" points="1024.25,-86.37 1020.75,-76.37 1017.25,-86.37 1024.25,-86.37"/>
</a>
</g>
</g>
<!-- Node6&#45;&gt;Node7 -->
<g id="edge6_Node000006_Node000007" class="edge">
<title>Node6&#45;&gt;Node7</title>
<g id="a_edge6_Node000006_Node000007"><a xlink:title=" ">
<path fill="none" stroke="#63b8ff" d="M1482.21,-55.08C1485.7,-48.19 1490.7,-38.34 1495.1,-29.66"/>
<polygon fill="#63b8ff" stroke="#63b8ff" points="1498.11,-31.46 1499.51,-20.96 1491.87,-28.3 1498.11,-31.46"/>
</a>
</g>
</g>
<!-- Node6&#45;&gt;Node8 -->
<g id="edge7_Node000006_Node000008" class="edge">
<title>Node6&#45;&gt;Node8</title>
<g id="a_edge7_Node000006_Node000008"><a xlink:title=" ">
<path fill="none" stroke="#63b8ff" d="M1462.14,-54.84C1448.13,-46.73 1427.32,-34.68 1410.95,-25.21"/>
<polygon fill="#63b8ff" stroke="#63b8ff" points="1413.15,-22.44 1402.74,-20.46 1409.64,-28.5 1413.15,-22.44"/>
</a>
</g>
</g>
<!-- Node9 -->
<g id="Node000009" class="node">
<title>Node9</title>
<g id="a_Node000009"><a xlink:title=" ">
<polygon fill="#e0e0e0" stroke="#999999" points="526.25,-19.25 489.25,-19.25 489.25,0 526.25,0 526.25,-19.25"/>
<text text-anchor="middle" x="507.75" y="-5.75" font-family="Helvetica,sans-Serif" font-size="10.00">tuple</text>
</a>
</g>
</g>
<!-- Node6&#45;&gt;Node9 -->
<g id="edge8_Node000006_Node000009" class="edge">
<title>Node6&#45;&gt;Node9</title>
<g id="a_edge8_Node000006_Node000009"><a xlink:title=" ">
<path fill="none" stroke="#63b8ff" d="M1413.69,-60.27C1386.03,-58.72 1353.29,-56.89 1323.75,-55.25 1016.84,-38.26 644.97,-18.07 537.91,-12.26"/>
<polygon fill="#63b8ff" stroke="#63b8ff" points="538.41,-8.78 528.24,-11.74 538.03,-15.77 538.41,-8.78"/>
</a>
</g>
</g>
<!-- Node6&#45;&gt;Node10 -->
<g id="edge9_Node000006_Node000010" class="edge">
<title>Node6&#45;&gt;Node10</title>
<g id="a_edge9_Node000006_Node000010"><a xlink:title=" ">
<path fill="none" stroke="#63b8ff" d="M1499.8,-54.84C1520.44,-46.39 1551.53,-33.65 1575.05,-24.02"/>
<polygon fill="#63b8ff" stroke="#63b8ff" points="1576.26,-27.31 1584.19,-20.28 1573.61,-20.83 1576.26,-27.31"/>
</a>
</g>
</g>
<!-- Node13&#45;&gt;Node5 -->
<g id="edge15_Node000013_Node000005" class="edge">
<title>Node13&#45;&gt;Node5</title>
<g id="a_edge15_Node000013_Node000005"><a xlink:title=" ">
<path fill="none" stroke="#63b8ff" d="M967.3,-165.45C977.59,-156.91 990.61,-146.12 1001.23,-137.31"/>
<polygon fill="#63b8ff" stroke="#63b8ff" points="1003.18,-140.24 1008.64,-131.17 998.71,-134.86 1003.18,-140.24"/>
</a>
</g>
</g>
<!-- Node14&#45;&gt;Node5 -->
<g id="edge17_Node000014_Node000005" class="edge">
<title>Node14&#45;&gt;Node5</title>
<g id="a_edge17_Node000014_Node000005"><a xlink:title=" ">
<path fill="none" stroke="#63b8ff" d="M1074.95,-165.45C1064.52,-156.91 1051.31,-146.12 1040.55,-137.31"/>
<polygon fill="#63b8ff" stroke="#63b8ff" points="1042.98,-134.78 1033.02,-131.16 1038.55,-140.2 1042.98,-134.78"/>
</a>
</g>
</g>
<!-- Node15&#45;&gt;Node5 -->
<g id="edge19_Node000015_Node000005" class="edge">
<title>Node15&#45;&gt;Node5</title>
<g id="a_edge19_Node000015_Node000005"><a xlink:title=" ">
<path fill="none" stroke="#63b8ff" d="M271.77,-167.01C274.8,-166.55 277.8,-166.12 280.75,-165.75 532.09,-133.78 834.45,-124.59 960.75,-122.05"/>
<polygon fill="#63b8ff" stroke="#63b8ff" points="960.61,-125.55 970.54,-121.86 960.48,-118.56 960.61,-125.55"/>
</a>
</g>
</g>
<!-- Node15&#45;&gt;Node9 -->
<g id="edge22_Node000015_Node000009" class="edge">
<title>Node15&#45;&gt;Node9</title>
<g id="a_edge22_Node000015_Node000009"><a xlink:title=" ">
<path fill="none" stroke="#63b8ff" d="M221.9,-165.55C247.8,-139.88 305.54,-86.12 363.75,-55.25 400.9,-35.55 448.14,-23 478.17,-16.39"/>
<polygon fill="#63b8ff" stroke="#63b8ff" points="478.62,-19.87 487.68,-14.38 477.17,-13.02 478.62,-19.87"/>
</a>
</g>
</g>
<!-- Node16 -->
<g id="Node000016" class="node">
<title>Node16</title>
<g id="a_Node000016"><a xlink:href="function_8hpp.xhtml" target="_top" xlink:title=" ">
<polygon fill="white" stroke="#666666" points="448,-129.75 379.5,-129.75 379.5,-110.5 448,-110.5 448,-129.75"/>
<text text-anchor="middle" x="413.75" y="-116.25" font-family="Helvetica,sans-Serif" font-size="10.00">function.hpp</text>
</a>
</g>
</g>
<!-- Node15&#45;&gt;Node16 -->
<g id="edge20_Node000015_Node000016" class="edge">
<title>Node15&#45;&gt;Node16</title>
<g id="a_edge20_Node000015_Node000016"><a xlink:title=" ">
<path fill="none" stroke="#63b8ff" d="M259.2,-165.3C293.63,-155.45 338.42,-142.65 370.91,-133.37"/>
<polygon fill="#63b8ff" stroke="#63b8ff" points="371.75,-136.77 380.4,-130.66 369.82,-130.04 371.75,-136.77"/>
</a>
</g>
</g>
<!-- Node17 -->
<g id="Node000017" class="node">
<title>Node17</title>
<g id="a_Node000017"><a xlink:title=" ">
<polygon fill="#e0e0e0" stroke="#999999" points="439,-74.5 388.5,-74.5 388.5,-55.25 439,-55.25 439,-74.5"/>
<text text-anchor="middle" x="413.75" y="-61" font-family="Helvetica,sans-Serif" font-size="10.00">memory</text>
</a>
</g>
</g>
<!-- Node16&#45;&gt;Node17 -->
<g id="edge21_Node000016_Node000017" class="edge">
<title>Node16&#45;&gt;Node17</title>
<g id="a_edge21_Node000016_Node000017"><a xlink:title=" ">
<path fill="none" stroke="#63b8ff" d="M413.75,-110.33C413.75,-103.82 413.75,-94.67 413.75,-86.37"/>
<polygon fill="#63b8ff" stroke="#63b8ff" points="417.25,-86.37 413.75,-76.37 410.25,-86.37 417.25,-86.37"/>
</a>
</g>
</g>
<!-- Node18&#45;&gt;Node5 -->
<g id="edge24_Node000018_Node000005" class="edge">
<title>Node18&#45;&gt;Node5</title>
<g id="a_edge24_Node000018_Node000005"><a xlink:title=" ">
<path fill="none" stroke="#63b8ff" d="M726.55,-167.42C729.66,-166.84 732.74,-166.28 735.75,-165.75 813.3,-152.01 903.13,-138.31 960.88,-129.79"/>
<polygon fill="#63b8ff" stroke="#63b8ff" points="961.11,-133.29 970.49,-128.37 960.09,-126.37 961.11,-133.29"/>
</a>
</g>
</g>
<!-- Node18&#45;&gt;Node9 -->
<g id="edge26_Node000018_Node000009" class="edge">
<title>Node18&#45;&gt;Node9</title>
<g id="a_edge26_Node000018_Node000009"><a xlink:title=" ">
<path fill="none" stroke="#63b8ff" d="M650.18,-165.27C621.45,-134.07 554.6,-61.5 523.81,-28.06"/>
<polygon fill="#63b8ff" stroke="#63b8ff" points="526.52,-25.83 517.17,-20.85 521.37,-30.58 526.52,-25.83"/>
</a>
</g>
</g>
<!-- Node18&#45;&gt;Node16 -->
<g id="edge25_Node000018_Node000016" class="edge">
<title>Node18&#45;&gt;Node16</title>
<g id="a_edge25_Node000018_Node000016"><a xlink:title=" ">
<path fill="none" stroke="#63b8ff" d="M601.31,-165.3C557.25,-154.92 499.22,-141.25 459.44,-131.89"/>
<polygon fill="#63b8ff" stroke="#63b8ff" points="460.49,-128.54 449.95,-129.65 458.89,-135.35 460.49,-128.54"/>
</a>
</g>
</g>
<!-- Node19&#45;&gt;Node5 -->
<g id="edge28_Node000019_Node000005" class="edge">
<title>Node19&#45;&gt;Node5</title>
<g id="a_edge28_Node000019_Node000005"><a xlink:title=" ">
<path fill="none" stroke="#63b8ff" d="M1182.05,-165.3C1145.96,-155.41 1098.96,-142.54 1065.02,-133.25"/>
<polygon fill="#63b8ff" stroke="#63b8ff" points="1066.07,-129.91 1055.5,-130.64 1064.22,-136.66 1066.07,-129.91"/>
</a>
</g>
</g>
<!-- Node20&#45;&gt;Node5 -->
<g id="edge30_Node000020_Node000005" class="edge">
<title>Node20&#45;&gt;Node5</title>
<g id="a_edge30_Node000020_Node000005"><a xlink:title=" ">
<path fill="none" stroke="#63b8ff" d="M860.2,-165.3C896.13,-155.41 942.9,-142.54 976.69,-133.25"/>
<polygon fill="#63b8ff" stroke="#63b8ff" points="977.44,-136.67 986.16,-130.64 975.59,-129.92 977.44,-136.67"/>
</a>
</g>
</g>
<!-- Node21&#45;&gt;Node5 -->
<g id="edge32_Node000021_Node000005" class="edge">
<title>Node21&#45;&gt;Node5</title>
<g id="a_edge32_Node000021_Node000005"><a xlink:title=" ">
<path fill="none" stroke="#63b8ff" d="M414.4,-166.99C417.22,-166.54 420.01,-166.13 422.75,-165.75 618.55,-138.9 852.79,-127.33 960.79,-123.15"/>
<polygon fill="#63b8ff" stroke="#63b8ff" points="960.72,-126.65 970.58,-122.78 960.45,-119.66 960.72,-126.65"/>
</a>
</g>
</g>
<!-- Node21&#45;&gt;Node9 -->
<g id="edge34_Node000021_Node000009" class="edge">
<title>Node21&#45;&gt;Node9</title>
<g id="a_edge34_Node000021_Node000009"><a xlink:title=" ">
<path fill="none" stroke="#63b8ff" d="M350.76,-165.27C349.88,-139.64 351.83,-86.57 379.75,-55.25 404.8,-27.15 448.52,-16.74 477.8,-12.89"/>
<polygon fill="#63b8ff" stroke="#63b8ff" points="477.94,-16.4 487.49,-11.81 477.16,-9.44 477.94,-16.4"/>
</a>
</g>
</g>
<!-- Node21&#45;&gt;Node16 -->
<g id="edge33_Node000021_Node000016" class="edge">
<title>Node21&#45;&gt;Node16</title>
<g id="a_edge33_Node000021_Node000016"><a xlink:title=" ">
<path fill="none" stroke="#63b8ff" d="M367.08,-165.45C375.79,-157.17 386.75,-146.77 395.85,-138.12"/>
<polygon fill="#63b8ff" stroke="#63b8ff" points="398.25,-140.67 403.09,-131.24 393.43,-135.59 398.25,-140.67"/>
</a>
</g>
</g>
<!-- Node22&#45;&gt;Node5 -->
<g id="edge36_Node000022_Node000005" class="edge">
<title>Node22&#45;&gt;Node5</title>
<g id="a_edge36_Node000022_Node000005"><a xlink:title=" ">
<path fill="none" stroke="#63b8ff" d="M125.88,-166.97C128.87,-166.52 131.84,-166.11 134.75,-165.75 443.93,-127.57 817.66,-121.87 960.91,-121.15"/>
<polygon fill="#63b8ff" stroke="#63b8ff" points="960.54,-124.65 970.52,-121.11 960.51,-117.65 960.54,-124.65"/>
</a>
</g>
</g>
<!-- Node22&#45;&gt;Node9 -->
<g id="edge38_Node000022_Node000009" class="edge">
<title>Node22&#45;&gt;Node9</title>
<g id="a_edge38_Node000022_Node000009"><a xlink:title=" ">
<path fill="none" stroke="#63b8ff" d="M89.69,-165.29C137.06,-139.91 238.87,-87.54 329.75,-55.25 380.59,-37.19 442.07,-23.49 477.85,-16.29"/>
<polygon fill="#63b8ff" stroke="#63b8ff" points="478.34,-19.77 487.47,-14.4 476.98,-12.9 478.34,-19.77"/>
</a>
</g>
</g>
<!-- Node22&#45;&gt;Node16 -->
<g id="edge37_Node000022_Node000016" class="edge">
<title>Node22&#45;&gt;Node16</title>
<g id="a_edge37_Node000022_Node000016"><a xlink:title=" ">
<path fill="none" stroke="#63b8ff" d="M125.94,-167.36C128.92,-166.8 131.87,-166.27 134.75,-165.75 216.8,-151.07 312.84,-136.22 368.15,-127.89"/>
<polygon fill="#63b8ff" stroke="#63b8ff" points="368.45,-131.39 377.82,-126.44 367.41,-124.46 368.45,-131.39"/>
</a>
</g>
</g>
<!-- Node23&#45;&gt;Node5 -->
<g id="edge40_Node000023_Node000005" class="edge">
<title>Node23&#45;&gt;Node5</title>
<g id="a_edge40_Node000023_Node000005"><a xlink:title=" ">
<path fill="none" stroke="#63b8ff" d="M583.71,-167.02C586.76,-166.58 589.78,-166.15 592.75,-165.75 723.55,-147.98 877.68,-133.48 960.63,-126.21"/>
<polygon fill="#63b8ff" stroke="#63b8ff" points="960.68,-129.71 970.34,-125.36 960.08,-122.74 960.68,-129.71"/>
</a>
</g>
</g>
<!-- Node23&#45;&gt;Node9 -->
<g id="edge42_Node000023_Node000009" class="edge">
<title>Node23&#45;&gt;Node9</title>
<g id="a_edge42_Node000023_Node000009"><a xlink:title=" ">
<path fill="none" stroke="#63b8ff" d="M507.75,-165.27C507.75,-135.01 507.75,-65.8 507.75,-31.16"/>
<polygon fill="#63b8ff" stroke="#63b8ff" points="511.25,-31.25 507.75,-21.25 504.25,-31.25 511.25,-31.25"/>
</a>
</g>
</g>
<!-- Node23&#45;&gt;Node16 -->
<g id="edge41_Node000023_Node000016" class="edge">
<title>Node23&#45;&gt;Node16</title>
<g id="a_edge41_Node000023_Node000016"><a xlink:title=" ">
<path fill="none" stroke="#63b8ff" d="M484.51,-165.45C470.34,-156.57 452.25,-145.24 437.91,-136.26"/>
<polygon fill="#63b8ff" stroke="#63b8ff" points="439.86,-133.35 429.52,-131 436.14,-139.28 439.86,-133.35"/>
</a>
</g>
</g>
<!-- Node24&#45;&gt;Node5 -->
<g id="edge46_Node000024_Node000005" class="edge">
<title>Node24&#45;&gt;Node5</title>
<g id="a_edge46_Node000024_Node000005"><a xlink:title=" ">
<path fill="none" stroke="#63b8ff" d="M1517.85,-170.89C1507.65,-169.01 1496.85,-167.18 1486.75,-165.75 1341.77,-145.26 1170.05,-131.51 1081.04,-125.16"/>
<polygon fill="#63b8ff" stroke="#63b8ff" points="1081.29,-121.67 1071.07,-124.45 1080.8,-128.65 1081.29,-121.67"/>
</a>
</g>
</g>
<!-- Node24&#45;&gt;Node8 -->
<g id="edge47_Node000024_Node000008" class="edge">
<title>Node24&#45;&gt;Node8</title>
<g id="a_edge47_Node000024_Node000008"><a xlink:title=" ">
<path fill="none" stroke="#63b8ff" d="M1539.99,-170.88C1505.57,-155.93 1440.48,-122.94 1404.75,-74.5 1395.38,-61.8 1390.6,-44.5 1388.18,-31.11"/>
<polygon fill="#63b8ff" stroke="#63b8ff" points="1391.65,-30.62 1386.73,-21.24 1384.72,-31.64 1391.65,-30.62"/>
</a>
</g>
</g>
<!-- Node24&#45;&gt;Node9 -->
<g id="edge49_Node000024_Node000009" class="edge">
<title>Node24&#45;&gt;Node9</title>
<g id="a_edge49_Node000024_Node000009"><a xlink:title=" ">
<path fill="none" stroke="#63b8ff" d="M1528.47,-170.94C1476.96,-157.39 1376.5,-131.24 1290.75,-110.5 1183.52,-84.56 1157.78,-72.1 1048.75,-55.25 855.63,-25.39 620.42,-14.63 538.01,-11.61"/>
<polygon fill="#63b8ff" stroke="#63b8ff" points="538.18,-8.12 528.06,-11.26 537.93,-15.11 538.18,-8.12"/>
</a>
</g>
</g>
<!-- Node25 -->
<g id="Node000025" class="node">
<title>Node25</title>
<g id="a_Node000025"><a xlink:title=" ">
<polygon fill="#e0e0e0" stroke="#999999" points="1629.62,-129.75 1585.88,-129.75 1585.88,-110.5 1629.62,-110.5 1629.62,-129.75"/>
<text text-anchor="middle" x="1607.75" y="-116.25" font-family="Helvetica,sans-Serif" font-size="10.00">format</text>
</a>
</g>
</g>
<!-- Node24&#45;&gt;Node25 -->
<g id="edge48_Node000024_Node000025" class="edge">
<title>Node24&#45;&gt;Node25</title>
<g id="a_edge48_Node000024_Node000025"><a xlink:title=" ">
<path fill="none" stroke="#63b8ff" d="M1569.58,-171.06C1576.06,-162.59 1585.97,-149.62 1594.07,-139.02"/>
<polygon fill="#63b8ff" stroke="#63b8ff" points="1596.64,-141.42 1599.93,-131.35 1591.08,-137.17 1596.64,-141.42"/>
</a>
</g>
</g>
<!-- Node26&#45;&gt;Node27 -->
<g id="edge51_Node000026_Node000027" class="edge">
<title>Node26&#45;&gt;Node27</title>
<g id="a_edge51_Node000026_Node000027"><a xlink:title=" ">
<path fill="none" stroke="#63b8ff" d="M1622.27,-231.8C1644.84,-223.01 1679.8,-209.15 1709.75,-196.25 1710.7,-195.84 1711.67,-195.42 1712.64,-194.99"/>
<polygon fill="#63b8ff" stroke="#63b8ff" points="1714.04,-198.2 1721.73,-190.91 1711.17,-191.81 1714.04,-198.2"/>
</a>
</g>
</g>
</g>
</svg>

<g id="navigator" transform="translate(0 0)" fill="#404254">
  <rect fill="#f2f5e9" fill-opacity="0.5" stroke="#606060" stroke-width=".5" x="0" y="0" width="60" height="60"/>
  <use id="zoomplus" xlink:href="#zoomPlus" x="17" y="9" onmousedown="handleZoom(evt,'in')"/>
  <use id="zoomminus" xlink:href="#zoomMin" x="42" y="9" onmousedown="handleZoom(evt,'out')"/>
  <use id="reset" xlink:href="#resetDef" x="30" y="36" onmousedown="handleReset()"/>
   <use id="arrowup" xlink:href="#arrowUp" x="0" y="0" onmousedown="handlePan(0,-1)"/>
  <use id="arrowright" xlink:href="#arrowRight" x="0" y="0" onmousedown="handlePan(1,0)"/>
  <use id="arrowdown" xlink:href="#arrowDown" x="0" y="0" onmousedown="handlePan(0,1)"/>
  <use id="arrowleft" xlink:href="#arrowLeft" x="0" y="0" onmousedown="handlePan(-1,0)"/>
</g>
<svg viewBox="0 0 15 15" width="100%" height="30px" preserveAspectRatio="xMaxYMin meet">
 <g id="arrow_out" transform="scale(0.3 0.3)">
  <a xlink:href="kalman__println__1x1x0_8cpp__incl_org.svg" target="_base">
   <rect id="button" ry="5" rx="5" y="6" x="6" height="38" width="38"
        fill="#f2f5e9" fill-opacity="0.5" stroke="#606060" stroke-width="1.0"/>
   <path id="arrow"
     d="M 11.500037,31.436501 C 11.940474,20.09759 22.043105,11.32322 32.158766,21.979434 L 37.068811,17.246167 C 37.068811,17.246167 37.088388,32 37.088388,32 L 22.160133,31.978069 C 22.160133,31.978069 26.997745,27.140456 26.997745,27.140456 C 18.528582,18.264221 13.291696,25.230495 11.500037,31.436501 z"
     style="fill:#404040;"/>
  </a>
 </g>
</svg>

<style type='text/css'>
<![CDATA[
[data-mouse-over-selected='false'] { opacity: 0.7; }
[data-mouse-over-selected='true']  { opacity: 1.0; }
]]>
</style>
<script type="application/ecmascript"><![CDATA[
document.addEventListener('DOMContentLoaded', (event) => {
  highlightEdges();
  highlightAdjacentNodes();
});
]]></script>
</svg>
