<?xml version="1.0" encoding="UTF-8" standalone="no"?>
<!DOCTYPE svg PUBLIC "-//W3C//DTD SVG 1.1//EN"
 "http://www.w3.org/Graphics/SVG/1.1/DTD/svg11.dtd">
<!-- Generated by graphviz version 12.2.0 (20241103.1931)
 -->
<!-- Title: /github/workspace/test/kalman_format_float_1x1x1.cpp Pages: 1 -->
<!--zoomable 393 -->

<svg id="main" version="1.1" xmlns="http://www.w3.org/2000/svg" xmlns:xlink="http://www.w3.org/1999/xlink" xml:space="preserve" onload="init(evt)">

<style type="text/css"><![CDATA[
.node, .edge {opacity: 0.7;}
.node.selected, .edge.selected {opacity: 1;}
.edge:hover path { stroke: red; }
.edge:hover polygon { stroke: red; fill: red; }
]]></style>

<defs>
  <circle id="rim" cx="0" cy="0" r="7"/>
  <circle id="rim2" cx="0" cy="0" r="3.5"/>
  <g id="zoomPlus">
    <use xlink:href="#rim" fill="#404040"><set attributeName="fill" to="#808080" begin="zoomplus.mouseover" end="zoomplus.mouseout"/></use>
    <path d="M-4,0h8M0,-4v8" fill="none" stroke="white" stroke-width="1.5" pointer-events="none"/>
  </g>
  <g id="zoomMin">
    <use xlink:href="#rim" fill="#404040"><set attributeName="fill" to="#808080" begin="zoomminus.mouseover" end="zoomminus.mouseout"/></use>
    <path d="M-4,0h8" fill="none" stroke="white" stroke-width="1.5" pointer-events="none"/>
  </g>
  <g id="arrowUp" transform="translate(30 24)">
    <use xlink:href="#rim"/>
    <path pointer-events="none" fill="none" stroke="white" stroke-width="1.5" d="M0,-3.0v7 M-2.5,-0.5L0,-3.0L2.5,-0.5"/>
  </g>
  <g id="arrowRight" transform="rotate(90) translate(36 -43)">
    <use xlink:href="#rim"/>
    <path pointer-events="none" fill="none" stroke="white" stroke-width="1.5" d="M0,-3.0v7 M-2.5,-0.5L0,-3.0L2.5,-0.5"/>
  </g>
  <g id="arrowDown" transform="rotate(180) translate(-30 -48)">
    <use xlink:href="#rim"/>
    <path pointer-events="none" fill="none" stroke="white" stroke-width="1.5" d="M0,-3.0v7 M-2.5,-0.5L0,-3.0L2.5,-0.5"/>
  </g>
  <g id="arrowLeft" transform="rotate(270) translate(-36 17)">
    <use xlink:href="#rim"/>
    <path pointer-events="none" fill="none" stroke="white" stroke-width="1.5" d="M0,-3.0v7 M-2.5,-0.5L0,-3.0L2.5,-0.5"/>
  </g>
  <g id="resetDef">
    <use xlink:href="#rim2" fill="#404040"><set attributeName="fill" to="#808080" begin="reset.mouseover" end="reset.mouseout"/></use>
  </g>
</defs>
<script type="application/ecmascript">
var viewWidth = 1458;
var viewHeight = 393;
var sectionId = 'dynsection-0';
</script>
<script type="application/ecmascript" xlink:href="svg.min.js"/>
<svg id="graph" class="graph">
<g id="viewport">
<title>/github/workspace/test/kalman_format_float_1x1x1.cpp</title>
<!-- Node1 -->
<g id="Node000001" class="node">
<title>Node1</title>
<g id="a_Node000001"><a xlink:title=" ">
<polygon fill="#999999" stroke="#666666" points="1450.12,-384.5 1295.38,-384.5 1295.38,-354 1450.12,-354 1450.12,-384.5"/>
<text text-anchor="start" x="1303.38" y="-371" font-family="Helvetica,sans-Serif" font-size="10.00">/github/workspace/test</text>
<text text-anchor="middle" x="1372.75" y="-359.75" font-family="Helvetica,sans-Serif" font-size="10.00">/kalman_format_float_1x1x1.cpp</text>
</a>
</g>
</g>
<!-- Node2 -->
<g id="Node000002" class="node">
<title>Node2</title>
<g id="a_Node000002"><a xlink:href="kalman_8hpp.xhtml" target="_top" xlink:title="The Kalman filter class and library top&#45;level header.">
<polygon fill="white" stroke="#666666" points="1222.75,-318 1116.75,-318 1116.75,-298.75 1222.75,-298.75 1222.75,-318"/>
<text text-anchor="middle" x="1169.75" y="-304.5" font-family="Helvetica,sans-Serif" font-size="10.00">fcarouge/kalman.hpp</text>
</a>
</g>
</g>
<!-- Node1&#45;&gt;Node2 -->
<g id="edge1_Node000001_Node000002" class="edge">
<title>Node1&#45;&gt;Node2</title>
<g id="a_edge1_Node000001_Node000002"><a xlink:title=" ">
<path fill="none" stroke="#63b8ff" d="M1322.05,-353.55C1288.12,-343.7 1243.98,-330.9 1211.96,-321.62"/>
<polygon fill="#63b8ff" stroke="#63b8ff" points="1213.21,-318.34 1202.63,-318.91 1211.26,-325.06 1213.21,-318.34"/>
</a>
</g>
</g>
<!-- Node11 -->
<g id="Node000011" class="node">
<title>Node11</title>
<g id="a_Node000011"><a xlink:title=" ">
<polygon fill="#e0e0e0" stroke="#999999" points="1254.62,-129.75 1210.88,-129.75 1210.88,-110.5 1254.62,-110.5 1254.62,-129.75"/>
<text text-anchor="middle" x="1232.75" y="-116.25" font-family="Helvetica,sans-Serif" font-size="10.00">format</text>
</a>
</g>
</g>
<!-- Node1&#45;&gt;Node11 -->
<g id="edge53_Node000001_Node000011" class="edge">
<title>Node1&#45;&gt;Node11</title>
<g id="a_edge53_Node000001_Node000011"><a xlink:title=" ">
<path fill="none" stroke="#63b8ff" d="M1376.15,-353.65C1383.65,-317.54 1397.66,-222.85 1353.75,-165.75 1332.97,-138.73 1294.11,-128.06 1266.02,-123.86"/>
<polygon fill="#63b8ff" stroke="#63b8ff" points="1266.59,-120.4 1256.23,-122.61 1265.71,-127.35 1266.59,-120.4"/>
</a>
</g>
</g>
<!-- Node28 -->
<g id="Node000028" class="node">
<title>Node28</title>
<g id="a_Node000028"><a xlink:title=" ">
<polygon fill="#e0e0e0" stroke="#999999" points="1448.88,-318 1400.62,-318 1400.62,-298.75 1448.88,-298.75 1448.88,-318"/>
<text text-anchor="middle" x="1424.75" y="-304.5" font-family="Helvetica,sans-Serif" font-size="10.00">cassert</text>
</a>
</g>
</g>
<!-- Node1&#45;&gt;Node28 -->
<g id="edge52_Node000001_Node000028" class="edge">
<title>Node1&#45;&gt;Node28</title>
<g id="a_edge52_Node000001_Node000028"><a xlink:title=" ">
<path fill="none" stroke="#63b8ff" d="M1385.6,-353.7C1392.76,-345.59 1401.72,-335.45 1409.26,-326.91"/>
<polygon fill="#63b8ff" stroke="#63b8ff" points="1411.74,-329.4 1415.73,-319.59 1406.49,-324.76 1411.74,-329.4"/>
</a>
</g>
</g>
<!-- Node3 -->
<g id="Node000003" class="node">
<title>Node3</title>
<g id="a_Node000003"><a xlink:href="format_8hpp.xhtml" target="_top" xlink:title="Formatting support for the Kalman filter.">
<polygon fill="white" stroke="#666666" points="1216.62,-196.25 1154.88,-196.25 1154.88,-177 1216.62,-177 1216.62,-196.25"/>
<text text-anchor="middle" x="1185.75" y="-182.75" font-family="Helvetica,sans-Serif" font-size="10.00">format.hpp</text>
</a>
</g>
</g>
<!-- Node2&#45;&gt;Node3 -->
<g id="edge2_Node000002_Node000003" class="edge">
<title>Node2&#45;&gt;Node3</title>
<g id="a_edge2_Node000002_Node000003"><a xlink:title=" ">
<path fill="none" stroke="#63b8ff" d="M1166.33,-298.63C1161.95,-286.27 1155.43,-263.01 1159.75,-243.5 1162.63,-230.47 1168.87,-216.88 1174.52,-206.37"/>
<polygon fill="#63b8ff" stroke="#63b8ff" points="1177.38,-208.41 1179.27,-197.99 1171.3,-204.96 1177.38,-208.41"/>
</a>
</g>
</g>
<!-- Node4 -->
<g id="Node000004" class="node">
<title>Node4</title>
<g id="a_Node000004"><a xlink:href="utility_8hpp.xhtml" target="_top" xlink:title="The collection of utilities supporting the library.">
<polygon fill="white" stroke="#666666" points="840.25,-129.75 743.25,-129.75 743.25,-110.5 840.25,-110.5 840.25,-129.75"/>
<text text-anchor="middle" x="791.75" y="-116.25" font-family="Helvetica,sans-Serif" font-size="10.00">fcarouge/utility.hpp</text>
</a>
</g>
</g>
<!-- Node2&#45;&gt;Node4 -->
<g id="edge50_Node000002_Node000004" class="edge">
<title>Node2&#45;&gt;Node4</title>
<g id="a_edge50_Node000002_Node000004"><a xlink:title=" ">
<path fill="none" stroke="#63b8ff" d="M1150.31,-298.29C1117.57,-282.48 1050.18,-247.73 1000.75,-207.5 981.29,-191.66 984.22,-178.73 962.75,-165.75 943.75,-154.26 891.58,-141.5 849.81,-132.58"/>
<polygon fill="#63b8ff" stroke="#63b8ff" points="850.61,-129.17 840.1,-130.53 849.17,-136.02 850.61,-129.17"/>
</a>
</g>
</g>
<!-- Node12 -->
<g id="Node000012" class="node">
<title>Node12</title>
<g id="a_Node000012"><a xlink:href="factory_8hpp.xhtml" target="_top" xlink:title=" ">
<polygon fill="white" stroke="#666666" points="783.62,-262.75 685.88,-262.75 685.88,-243.5 783.62,-243.5 783.62,-262.75"/>
<text text-anchor="middle" x="734.75" y="-249.25" font-family="Helvetica,sans-Serif" font-size="10.00">internal/factory.hpp</text>
</a>
</g>
</g>
<!-- Node2&#45;&gt;Node12 -->
<g id="edge14_Node000002_Node000012" class="edge">
<title>Node2&#45;&gt;Node12</title>
<g id="a_edge14_Node000002_Node000012"><a xlink:title=" ">
<path fill="none" stroke="#63b8ff" d="M1116.41,-300.85C1035.07,-290.89 880.51,-271.97 795.15,-261.52"/>
<polygon fill="#63b8ff" stroke="#63b8ff" points="795.68,-258.06 785.33,-260.32 794.83,-265.01 795.68,-258.06"/>
</a>
</g>
</g>
<!-- Node25 -->
<g id="Node000025" class="node">
<title>Node25</title>
<g id="a_Node000025"><a xlink:href="printer_8hpp.xhtml" target="_top" xlink:title="Filter decoration support for printing operations.">
<polygon fill="white" stroke="#666666" points="1229.25,-262.75 1168.25,-262.75 1168.25,-243.5 1229.25,-243.5 1229.25,-262.75"/>
<text text-anchor="middle" x="1198.75" y="-249.25" font-family="Helvetica,sans-Serif" font-size="10.00">printer.hpp</text>
</a>
</g>
</g>
<!-- Node2&#45;&gt;Node25 -->
<g id="edge48_Node000002_Node000025" class="edge">
<title>Node2&#45;&gt;Node25</title>
<g id="a_edge48_Node000002_Node000025"><a xlink:title=" ">
<path fill="none" stroke="#63b8ff" d="M1174.54,-298.58C1178.29,-291.69 1183.66,-281.84 1188.38,-273.16"/>
<polygon fill="#63b8ff" stroke="#63b8ff" points="1191.42,-274.89 1193.13,-264.44 1185.28,-271.55 1191.42,-274.89"/>
</a>
</g>
</g>
<!-- Node27 -->
<g id="Node000027" class="node">
<title>Node27</title>
<g id="a_Node000027"><a xlink:title=" ">
<polygon fill="#e0e0e0" stroke="#999999" points="1344.62,-262.75 1246.88,-262.75 1246.88,-243.5 1344.62,-243.5 1344.62,-262.75"/>
<text text-anchor="middle" x="1295.75" y="-249.25" font-family="Helvetica,sans-Serif" font-size="10.00">internal/kalman.tpp</text>
</a>
</g>
</g>
<!-- Node2&#45;&gt;Node27 -->
<g id="edge51_Node000002_Node000027" class="edge">
<title>Node2&#45;&gt;Node27</title>
<g id="a_edge51_Node000002_Node000027"><a xlink:title=" ">
<path fill="none" stroke="#63b8ff" d="M1191.12,-298.34C1211.04,-289.93 1240.99,-277.27 1263.75,-267.65"/>
<polygon fill="#63b8ff" stroke="#63b8ff" points="1265.03,-270.91 1272.88,-263.79 1262.3,-264.46 1265.03,-270.91"/>
</a>
</g>
</g>
<!-- Node3&#45;&gt;Node4 -->
<g id="edge3_Node000003_Node000004" class="edge">
<title>Node3&#45;&gt;Node4</title>
<g id="a_edge3_Node000003_Node000004"><a xlink:title=" ">
<path fill="none" stroke="#63b8ff" d="M1171.08,-176.6C1163.98,-172.64 1155.18,-168.32 1146.75,-165.75 1023.04,-128.03 983.67,-146.45 851.81,-129.94"/>
<polygon fill="#63b8ff" stroke="#63b8ff" points="852.34,-126.48 841.97,-128.66 851.44,-133.42 852.34,-126.48"/>
</a>
</g>
</g>
<!-- Node7 -->
<g id="Node000007" class="node">
<title>Node7</title>
<g id="a_Node000007"><a xlink:title=" ">
<polygon fill="#e0e0e0" stroke="#999999" points="1058.88,-19.25 1010.62,-19.25 1010.62,0 1058.88,0 1058.88,-19.25"/>
<text text-anchor="middle" x="1034.75" y="-5.75" font-family="Helvetica,sans-Serif" font-size="10.00">cstddef</text>
</a>
</g>
</g>
<!-- Node3&#45;&gt;Node7 -->
<g id="edge11_Node000003_Node000007" class="edge">
<title>Node3&#45;&gt;Node7</title>
<g id="a_edge11_Node000003_Node000007"><a xlink:title=" ">
<path fill="none" stroke="#63b8ff" d="M1170.36,-176.69C1143.05,-160.07 1086.06,-121.73 1054.75,-74.5 1045.99,-61.29 1040.89,-44.02 1038.03,-30.77"/>
<polygon fill="#63b8ff" stroke="#63b8ff" points="1041.49,-30.24 1036.21,-21.05 1034.61,-31.52 1041.49,-30.24"/>
</a>
</g>
</g>
<!-- Node8 -->
<g id="Node000008" class="node">
<title>Node8</title>
<g id="a_Node000008"><a xlink:title=" ">
<polygon fill="#e0e0e0" stroke="#999999" points="437.25,-19.25 400.25,-19.25 400.25,0 437.25,0 437.25,-19.25"/>
<text text-anchor="middle" x="418.75" y="-5.75" font-family="Helvetica,sans-Serif" font-size="10.00">tuple</text>
</a>
</g>
</g>
<!-- Node3&#45;&gt;Node8 -->
<g id="edge13_Node000003_Node000008" class="edge">
<title>Node3&#45;&gt;Node8</title>
<g id="a_edge13_Node000003_Node000008"><a xlink:title=" ">
<path fill="none" stroke="#63b8ff" d="M1169.3,-176.57C1162.44,-172.97 1154.31,-168.94 1146.75,-165.75 1005.37,-106.21 969.51,-88.48 819.75,-55.25 683.27,-24.97 515.87,-14.78 448.71,-11.76"/>
<polygon fill="#63b8ff" stroke="#63b8ff" points="449.02,-8.27 438.88,-11.34 448.72,-15.26 449.02,-8.27"/>
</a>
</g>
</g>
<!-- Node3&#45;&gt;Node11 -->
<g id="edge12_Node000003_Node000011" class="edge">
<title>Node3&#45;&gt;Node11</title>
<g id="a_edge12_Node000003_Node000011"><a xlink:title=" ">
<path fill="none" stroke="#63b8ff" d="M1192.29,-176.66C1199.3,-167.03 1210.63,-151.48 1219.53,-139.27"/>
<polygon fill="#63b8ff" stroke="#63b8ff" points="1222.32,-141.38 1225.38,-131.24 1216.66,-137.26 1222.32,-141.38"/>
</a>
</g>
</g>
<!-- Node5 -->
<g id="Node000005" class="node">
<title>Node5</title>
<g id="a_Node000005"><a xlink:href="internal_2utility_8hpp.xhtml" target="_top" xlink:title=" ">
<polygon fill="white" stroke="#666666" points="1154.25,-74.5 1063.25,-74.5 1063.25,-55.25 1154.25,-55.25 1154.25,-74.5"/>
<text text-anchor="middle" x="1108.75" y="-61" font-family="Helvetica,sans-Serif" font-size="10.00">internal/utility.hpp</text>
</a>
</g>
</g>
<!-- Node4&#45;&gt;Node5 -->
<g id="edge4_Node000004_Node000005" class="edge">
<title>Node4&#45;&gt;Node5</title>
<g id="a_edge4_Node000004_Node000005"><a xlink:title=" ">
<path fill="none" stroke="#63b8ff" d="M840.59,-110.92C897.53,-101.36 991.51,-85.57 1051.74,-75.45"/>
<polygon fill="#63b8ff" stroke="#63b8ff" points="1052.17,-78.93 1061.46,-73.82 1051.01,-72.02 1052.17,-78.93"/>
</a>
</g>
</g>
<!-- Node4&#45;&gt;Node7 -->
<g id="edge9_Node000004_Node000007" class="edge">
<title>Node4&#45;&gt;Node7</title>
<g id="a_edge9_Node000004_Node000007"><a xlink:title=" ">
<path fill="none" stroke="#63b8ff" d="M812.05,-110.06C854.66,-91.03 953.66,-46.83 1004.07,-24.33"/>
<polygon fill="#63b8ff" stroke="#63b8ff" points="1005.25,-27.63 1012.95,-20.36 1002.4,-21.24 1005.25,-27.63"/>
</a>
</g>
</g>
<!-- Node10 -->
<g id="Node000010" class="node">
<title>Node10</title>
<g id="a_Node000010"><a xlink:title=" ">
<polygon fill="#e0e0e0" stroke="#999999" points="811,-74.5 772.5,-74.5 772.5,-55.25 811,-55.25 811,-74.5"/>
<text text-anchor="middle" x="791.75" y="-61" font-family="Helvetica,sans-Serif" font-size="10.00">utility</text>
</a>
</g>
</g>
<!-- Node4&#45;&gt;Node10 -->
<g id="edge10_Node000004_Node000010" class="edge">
<title>Node4&#45;&gt;Node10</title>
<g id="a_edge10_Node000004_Node000010"><a xlink:title=" ">
<path fill="none" stroke="#63b8ff" d="M791.75,-110.33C791.75,-103.82 791.75,-94.67 791.75,-86.37"/>
<polygon fill="#63b8ff" stroke="#63b8ff" points="795.25,-86.37 791.75,-76.37 788.25,-86.37 795.25,-86.37"/>
</a>
</g>
</g>
<!-- Node6 -->
<g id="Node000006" class="node">
<title>Node6</title>
<g id="a_Node000006"><a xlink:title=" ">
<polygon fill="#e0e0e0" stroke="#999999" points="1154.62,-19.25 1098.88,-19.25 1098.88,0 1154.62,0 1154.62,-19.25"/>
<text text-anchor="middle" x="1126.75" y="-5.75" font-family="Helvetica,sans-Serif" font-size="10.00">concepts</text>
</a>
</g>
</g>
<!-- Node5&#45;&gt;Node6 -->
<g id="edge5_Node000005_Node000006" class="edge">
<title>Node5&#45;&gt;Node6</title>
<g id="a_edge5_Node000005_Node000006"><a xlink:title=" ">
<path fill="none" stroke="#63b8ff" d="M1111.72,-55.08C1114,-48.34 1117.24,-38.77 1120.12,-30.24"/>
<polygon fill="#63b8ff" stroke="#63b8ff" points="1123.34,-31.64 1123.23,-21.04 1116.71,-29.4 1123.34,-31.64"/>
</a>
</g>
</g>
<!-- Node5&#45;&gt;Node7 -->
<g id="edge6_Node000005_Node000007" class="edge">
<title>Node5&#45;&gt;Node7</title>
<g id="a_edge6_Node000005_Node000007"><a xlink:title=" ">
<path fill="none" stroke="#63b8ff" d="M1096.2,-54.84C1085.29,-46.99 1069.25,-35.45 1056.29,-26.12"/>
<polygon fill="#63b8ff" stroke="#63b8ff" points="1058.51,-23.41 1048.35,-20.41 1054.42,-29.09 1058.51,-23.41"/>
</a>
</g>
</g>
<!-- Node5&#45;&gt;Node8 -->
<g id="edge7_Node000005_Node000008" class="edge">
<title>Node5&#45;&gt;Node8</title>
<g id="a_edge7_Node000005_Node000008"><a xlink:title=" ">
<path fill="none" stroke="#63b8ff" d="M1062.94,-60.34C931.94,-50.23 558.17,-21.38 449.02,-12.96"/>
<polygon fill="#63b8ff" stroke="#63b8ff" points="449.36,-9.48 439.12,-12.2 448.82,-16.46 449.36,-9.48"/>
</a>
</g>
</g>
<!-- Node9 -->
<g id="Node000009" class="node">
<title>Node9</title>
<g id="a_Node000009"><a xlink:title=" ">
<polygon fill="#e0e0e0" stroke="#999999" points="1251.25,-19.25 1190.25,-19.25 1190.25,0 1251.25,0 1251.25,-19.25"/>
<text text-anchor="middle" x="1220.75" y="-5.75" font-family="Helvetica,sans-Serif" font-size="10.00">type_traits</text>
</a>
</g>
</g>
<!-- Node5&#45;&gt;Node9 -->
<g id="edge8_Node000005_Node000009" class="edge">
<title>Node5&#45;&gt;Node9</title>
<g id="a_edge8_Node000005_Node000009"><a xlink:title=" ">
<path fill="none" stroke="#63b8ff" d="M1127.75,-54.84C1145.21,-46.54 1171.35,-34.11 1191.47,-24.54"/>
<polygon fill="#63b8ff" stroke="#63b8ff" points="1192.76,-27.81 1200.29,-20.35 1189.76,-21.49 1192.76,-27.81"/>
</a>
</g>
</g>
<!-- Node12&#45;&gt;Node6 -->
<g id="edge46_Node000012_Node000006" class="edge">
<title>Node12&#45;&gt;Node6</title>
<g id="a_edge46_Node000012_Node000006"><a xlink:title=" ">
<path fill="none" stroke="#63b8ff" d="M784.09,-251.33C902.72,-248.91 1196.35,-239.69 1225.75,-207.5 1238.26,-193.8 1231.13,-183.51 1225.75,-165.75 1220.18,-147.35 1211.47,-146.34 1201.75,-129.75 1182.96,-97.68 1184.18,-86.3 1163.75,-55.25 1157.55,-45.82 1149.68,-36.09 1142.8,-28.13"/>
<polygon fill="#63b8ff" stroke="#63b8ff" points="1145.59,-26.01 1136.33,-20.86 1140.36,-30.66 1145.59,-26.01"/>
</a>
</g>
</g>
<!-- Node12&#45;&gt;Node9 -->
<g id="edge47_Node000012_Node000009" class="edge">
<title>Node12&#45;&gt;Node9</title>
<g id="a_edge47_Node000012_Node000009"><a xlink:title=" ">
<path fill="none" stroke="#63b8ff" d="M783.94,-250.96C904.62,-247.67 1208.05,-236.57 1242.75,-207.5 1276.56,-179.17 1272.65,-153.7 1263.75,-110.5 1257.63,-80.82 1242.28,-49.1 1231.68,-29.56"/>
<polygon fill="#63b8ff" stroke="#63b8ff" points="1234.77,-27.91 1226.84,-20.9 1228.66,-31.33 1234.77,-27.91"/>
</a>
</g>
</g>
<!-- Node13 -->
<g id="Node000013" class="node">
<title>Node13</title>
<g id="a_Node000013"><a xlink:href="type_8hpp.xhtml" target="_top" xlink:title=" ">
<polygon fill="white" stroke="#666666" points="1137.25,-196.25 1010.25,-196.25 1010.25,-177 1137.25,-177 1137.25,-196.25"/>
<text text-anchor="middle" x="1073.75" y="-182.75" font-family="Helvetica,sans-Serif" font-size="10.00">fcarouge/internal/type.hpp</text>
</a>
</g>
</g>
<!-- Node12&#45;&gt;Node13 -->
<g id="edge15_Node000012_Node000013" class="edge">
<title>Node12&#45;&gt;Node13</title>
<g id="a_edge15_Node000012_Node000013"><a xlink:title=" ">
<path fill="none" stroke="#63b8ff" d="M782.6,-243.02C843.59,-231.42 948.99,-211.36 1014.85,-198.83"/>
<polygon fill="#63b8ff" stroke="#63b8ff" points="1015.21,-202.33 1024.38,-197.02 1013.9,-195.45 1015.21,-202.33"/>
</a>
</g>
</g>
<!-- Node15 -->
<g id="Node000015" class="node">
<title>Node15</title>
<g id="a_Node000015"><a xlink:href="x__z__p__q__r__h__f_8hpp.xhtml" target="_top" xlink:title=" ">
<polygon fill="white" stroke="#666666" points="725.5,-201.88 630,-201.88 630,-171.38 725.5,-171.38 725.5,-201.88"/>
<text text-anchor="start" x="638" y="-188.38" font-family="Helvetica,sans-Serif" font-size="10.00">fcarouge/internal/x</text>
<text text-anchor="middle" x="677.75" y="-177.12" font-family="Helvetica,sans-Serif" font-size="10.00">_z_p_q_r_h_f.hpp</text>
</a>
</g>
</g>
<!-- Node12&#45;&gt;Node15 -->
<g id="edge19_Node000012_Node000015" class="edge">
<title>Node12&#45;&gt;Node15</title>
<g id="a_edge19_Node000012_Node000015"><a xlink:title=" ">
<path fill="none" stroke="#63b8ff" d="M726.82,-243.16C719.39,-234.74 707.96,-221.81 698,-210.53"/>
<polygon fill="#63b8ff" stroke="#63b8ff" points="700.67,-208.28 691.43,-203.1 695.43,-212.91 700.67,-208.28"/>
</a>
</g>
</g>
<!-- Node16 -->
<g id="Node000016" class="node">
<title>Node16</title>
<g id="a_Node000016"><a xlink:href="x__z__p__q__r__hh__us__ps_8hpp.xhtml" target="_top" xlink:title=" ">
<polygon fill="white" stroke="#666666" points="611.88,-201.88 491.62,-201.88 491.62,-171.38 611.88,-171.38 611.88,-201.88"/>
<text text-anchor="start" x="499.62" y="-188.38" font-family="Helvetica,sans-Serif" font-size="10.00">fcarouge/internal/x</text>
<text text-anchor="middle" x="551.75" y="-177.12" font-family="Helvetica,sans-Serif" font-size="10.00">_z_p_q_r_hh_us_ps.hpp</text>
</a>
</g>
</g>
<!-- Node12&#45;&gt;Node16 -->
<g id="edge21_Node000012_Node000016" class="edge">
<title>Node12&#45;&gt;Node16</title>
<g id="a_edge21_Node000012_Node000016"><a xlink:title=" ">
<path fill="none" stroke="#63b8ff" d="M708.92,-243.02C681.8,-233.46 638.43,-218.18 604.11,-206.08"/>
<polygon fill="#63b8ff" stroke="#63b8ff" points="605.33,-202.8 594.74,-202.78 603.01,-209.4 605.33,-202.8"/>
</a>
</g>
</g>
<!-- Node19 -->
<g id="Node000019" class="node">
<title>Node19</title>
<g id="a_Node000019"><a xlink:href="x__z__p__qq__rr__f_8hpp.xhtml" target="_top" xlink:title=" ">
<polygon fill="white" stroke="#666666" points="95.5,-201.88 0,-201.88 0,-171.38 95.5,-171.38 95.5,-201.88"/>
<text text-anchor="start" x="8" y="-188.38" font-family="Helvetica,sans-Serif" font-size="10.00">fcarouge/internal/x</text>
<text text-anchor="middle" x="47.75" y="-177.12" font-family="Helvetica,sans-Serif" font-size="10.00">_z_p_qq_rr_f.hpp</text>
</a>
</g>
</g>
<!-- Node12&#45;&gt;Node19 -->
<g id="edge26_Node000012_Node000019" class="edge">
<title>Node12&#45;&gt;Node19</title>
<g id="a_edge26_Node000012_Node000019"><a xlink:title=" ">
<path fill="none" stroke="#63b8ff" d="M685.63,-250.33C557.55,-245.37 215.64,-230.34 104.75,-207.5 101.97,-206.93 99.13,-206.25 96.29,-205.5"/>
<polygon fill="#63b8ff" stroke="#63b8ff" points="97.41,-202.18 86.83,-202.73 95.44,-208.9 97.41,-202.18"/>
</a>
</g>
</g>
<!-- Node20 -->
<g id="Node000020" class="node">
<title>Node20</title>
<g id="a_Node000020"><a xlink:href="x__z__p__r_8hpp.xhtml" target="_top" xlink:title=" ">
<polygon fill="white" stroke="#666666" points="839.5,-201.88 744,-201.88 744,-171.38 839.5,-171.38 839.5,-201.88"/>
<text text-anchor="start" x="752" y="-188.38" font-family="Helvetica,sans-Serif" font-size="10.00">fcarouge/internal/x</text>
<text text-anchor="middle" x="791.75" y="-177.12" font-family="Helvetica,sans-Serif" font-size="10.00">_z_p_r.hpp</text>
</a>
</g>
</g>
<!-- Node12&#45;&gt;Node20 -->
<g id="edge30_Node000012_Node000020" class="edge">
<title>Node12&#45;&gt;Node20</title>
<g id="a_edge30_Node000012_Node000020"><a xlink:title=" ">
<path fill="none" stroke="#63b8ff" d="M742.68,-243.16C750.11,-234.74 761.54,-221.81 771.5,-210.53"/>
<polygon fill="#63b8ff" stroke="#63b8ff" points="774.07,-212.91 778.07,-203.1 768.83,-208.28 774.07,-212.91"/>
</a>
</g>
</g>
<!-- Node21 -->
<g id="Node000021" class="node">
<title>Node21</title>
<g id="a_Node000021"><a xlink:href="x__z__p__r__f_8hpp.xhtml" target="_top" xlink:title=" ">
<polygon fill="white" stroke="#666666" points="953.5,-201.88 858,-201.88 858,-171.38 953.5,-171.38 953.5,-201.88"/>
<text text-anchor="start" x="866" y="-188.38" font-family="Helvetica,sans-Serif" font-size="10.00">fcarouge/internal/x</text>
<text text-anchor="middle" x="905.75" y="-177.12" font-family="Helvetica,sans-Serif" font-size="10.00">_z_p_r_f.hpp</text>
</a>
</g>
</g>
<!-- Node12&#45;&gt;Node21 -->
<g id="edge32_Node000012_Node000021" class="edge">
<title>Node12&#45;&gt;Node21</title>
<g id="a_edge32_Node000012_Node000021"><a xlink:title=" ">
<path fill="none" stroke="#63b8ff" d="M758.89,-243.02C784.11,-233.5 824.41,-218.31 856.41,-206.24"/>
<polygon fill="#63b8ff" stroke="#63b8ff" points="857.38,-209.61 865.5,-202.81 854.91,-203.06 857.38,-209.61"/>
</a>
</g>
</g>
<!-- Node22 -->
<g id="Node000022" class="node">
<title>Node22</title>
<g id="a_Node000022"><a xlink:href="x__z__u__p__q__r_8hpp.xhtml" target="_top" xlink:title=" ">
<polygon fill="white" stroke="#666666" points="209.5,-201.88 114,-201.88 114,-171.38 209.5,-171.38 209.5,-201.88"/>
<text text-anchor="start" x="122" y="-188.38" font-family="Helvetica,sans-Serif" font-size="10.00">fcarouge/internal/x</text>
<text text-anchor="middle" x="161.75" y="-177.12" font-family="Helvetica,sans-Serif" font-size="10.00">_z_u_p_q_r.hpp</text>
</a>
</g>
</g>
<!-- Node12&#45;&gt;Node22 -->
<g id="edge34_Node000012_Node000022" class="edge">
<title>Node12&#45;&gt;Node22</title>
<g id="a_edge34_Node000012_Node000022"><a xlink:title=" ">
<path fill="none" stroke="#63b8ff" d="M685.42,-251.92C592.87,-250.65 387.35,-243.59 218.75,-207.5 216.11,-206.94 213.43,-206.28 210.74,-205.57"/>
<polygon fill="#63b8ff" stroke="#63b8ff" points="211.74,-202.21 201.15,-202.75 209.76,-208.93 211.74,-202.21"/>
</a>
</g>
</g>
<!-- Node23 -->
<g id="Node000023" class="node">
<title>Node23</title>
<g id="a_Node000023"><a xlink:href="x__z__u__p__q__r__f__g__ps_8hpp.xhtml" target="_top" xlink:title=" ">
<polygon fill="white" stroke="#666666" points="345.75,-201.88 227.75,-201.88 227.75,-171.38 345.75,-171.38 345.75,-201.88"/>
<text text-anchor="start" x="235.75" y="-188.38" font-family="Helvetica,sans-Serif" font-size="10.00">fcarouge/internal/x</text>
<text text-anchor="middle" x="286.75" y="-177.12" font-family="Helvetica,sans-Serif" font-size="10.00">_z_u_p_q_r_f_g_ps.hpp</text>
</a>
</g>
</g>
<!-- Node12&#45;&gt;Node23 -->
<g id="edge38_Node000012_Node000023" class="edge">
<title>Node12&#45;&gt;Node23</title>
<g id="a_edge38_Node000012_Node000023"><a xlink:title=" ">
<path fill="none" stroke="#63b8ff" d="M685.45,-248.98C612.57,-243.74 472.08,-231.36 354.75,-207.5 351.36,-206.81 347.9,-206.03 344.42,-205.2"/>
<polygon fill="#63b8ff" stroke="#63b8ff" points="345.34,-201.82 334.78,-202.73 343.6,-208.6 345.34,-201.82"/>
</a>
</g>
</g>
<!-- Node24 -->
<g id="Node000024" class="node">
<title>Node24</title>
<g id="a_Node000024"><a xlink:href="x__z__u__p__q__r__h__f__g__us__ps_8hpp.xhtml" target="_top" xlink:title=" ">
<polygon fill="white" stroke="#666666" points="474,-207.5 363.5,-207.5 363.5,-165.75 474,-165.75 474,-207.5"/>
<text text-anchor="start" x="371.5" y="-194" font-family="Helvetica,sans-Serif" font-size="10.00">fcarouge/internal/x</text>
<text text-anchor="start" x="371.5" y="-182.75" font-family="Helvetica,sans-Serif" font-size="10.00">_z_u_p_q_r_h_f_g_us</text>
<text text-anchor="middle" x="418.75" y="-171.5" font-family="Helvetica,sans-Serif" font-size="10.00">_ps.hpp</text>
</a>
</g>
</g>
<!-- Node12&#45;&gt;Node24 -->
<g id="edge42_Node000012_Node000024" class="edge">
<title>Node12&#45;&gt;Node24</title>
<g id="a_edge42_Node000012_Node000024"><a xlink:title=" ">
<path fill="none" stroke="#63b8ff" d="M685.59,-245.29C636.92,-238.11 560.1,-225.67 485.47,-208.03"/>
<polygon fill="#63b8ff" stroke="#63b8ff" points="486.49,-204.67 475.95,-205.74 484.86,-211.48 486.49,-204.67"/>
</a>
</g>
</g>
<!-- Node13&#45;&gt;Node4 -->
<g id="edge16_Node000013_Node000004" class="edge">
<title>Node13&#45;&gt;Node4</title>
<g id="a_edge16_Node000013_Node000004"><a xlink:title=" ">
<path fill="none" stroke="#63b8ff" d="M1039.25,-176.57C1025.72,-173.08 1010.03,-169.13 995.75,-165.75 945.28,-153.8 887.52,-141.27 846.37,-132.54"/>
<polygon fill="#63b8ff" stroke="#63b8ff" points="847.21,-129.14 836.71,-130.5 845.76,-135.99 847.21,-129.14"/>
</a>
</g>
</g>
<!-- Node13&#45;&gt;Node9 -->
<g id="edge18_Node000013_Node000009" class="edge">
<title>Node13&#45;&gt;Node9</title>
<g id="a_edge18_Node000013_Node000009"><a xlink:title=" ">
<path fill="none" stroke="#63b8ff" d="M1081.24,-176.71C1104.34,-149.21 1174.74,-65.4 1205.78,-28.45"/>
<polygon fill="#63b8ff" stroke="#63b8ff" points="1208.37,-30.8 1212.12,-20.89 1203.01,-26.3 1208.37,-30.8"/>
</a>
</g>
</g>
<!-- Node14 -->
<g id="Node000014" class="node">
<title>Node14</title>
<g id="a_Node000014"><a xlink:title=" ">
<polygon fill="#e0e0e0" stroke="#999999" points="930.5,-129.75 859,-129.75 859,-110.5 930.5,-110.5 930.5,-129.75"/>
<text text-anchor="middle" x="894.75" y="-116.25" font-family="Helvetica,sans-Serif" font-size="10.00">initializer_list</text>
</a>
</g>
</g>
<!-- Node13&#45;&gt;Node14 -->
<g id="edge17_Node000013_Node000014" class="edge">
<title>Node13&#45;&gt;Node14</title>
<g id="a_edge17_Node000013_Node000014"><a xlink:title=" ">
<path fill="none" stroke="#63b8ff" d="M1048.48,-176.52C1017.7,-165.43 965.49,-146.61 930.57,-134.03"/>
<polygon fill="#63b8ff" stroke="#63b8ff" points="931.91,-130.79 921.31,-130.7 929.53,-137.38 931.91,-130.79"/>
</a>
</g>
</g>
<!-- Node15&#45;&gt;Node4 -->
<g id="edge20_Node000015_Node000004" class="edge">
<title>Node15&#45;&gt;Node4</title>
<g id="a_edge20_Node000015_Node000004"><a xlink:title=" ">
<path fill="none" stroke="#63b8ff" d="M703.62,-170.99C722.27,-160.44 747.33,-146.26 765.96,-135.72"/>
<polygon fill="#63b8ff" stroke="#63b8ff" points="767.53,-138.85 774.51,-130.88 764.08,-132.76 767.53,-138.85"/>
</a>
</g>
</g>
<!-- Node16&#45;&gt;Node4 -->
<g id="edge22_Node000016_Node000004" class="edge">
<title>Node16&#45;&gt;Node4</title>
<g id="a_edge22_Node000016_Node000004"><a xlink:title=" ">
<path fill="none" stroke="#63b8ff" d="M602.21,-170.93C608.44,-169.16 614.74,-167.4 620.75,-165.75 662.62,-154.26 710.45,-141.84 744.85,-133.02"/>
<polygon fill="#63b8ff" stroke="#63b8ff" points="745.69,-136.42 754.51,-130.55 743.96,-129.64 745.69,-136.42"/>
</a>
</g>
</g>
<!-- Node16&#45;&gt;Node8 -->
<g id="edge25_Node000016_Node000008" class="edge">
<title>Node16&#45;&gt;Node8</title>
<g id="a_edge25_Node000016_Node000008"><a xlink:title=" ">
<path fill="none" stroke="#63b8ff" d="M540.64,-171.01C516.43,-139.15 458.99,-63.57 432.53,-28.75"/>
<polygon fill="#63b8ff" stroke="#63b8ff" points="435.41,-26.77 426.58,-20.92 429.84,-31 435.41,-26.77"/>
</a>
</g>
</g>
<!-- Node17 -->
<g id="Node000017" class="node">
<title>Node17</title>
<g id="a_Node000017"><a xlink:href="function_8hpp.xhtml" target="_top" xlink:title=" ">
<polygon fill="white" stroke="#666666" points="383,-129.75 314.5,-129.75 314.5,-110.5 383,-110.5 383,-129.75"/>
<text text-anchor="middle" x="348.75" y="-116.25" font-family="Helvetica,sans-Serif" font-size="10.00">function.hpp</text>
</a>
</g>
</g>
<!-- Node16&#45;&gt;Node17 -->
<g id="edge23_Node000016_Node000017" class="edge">
<title>Node16&#45;&gt;Node17</title>
<g id="a_edge23_Node000016_Node000017"><a xlink:title=" ">
<path fill="none" stroke="#63b8ff" d="M505.43,-170.91C470,-159.65 421.68,-144.3 388.11,-133.63"/>
<polygon fill="#63b8ff" stroke="#63b8ff" points="389.36,-130.36 378.77,-130.66 387.24,-137.03 389.36,-130.36"/>
</a>
</g>
</g>
<!-- Node18 -->
<g id="Node000018" class="node">
<title>Node18</title>
<g id="a_Node000018"><a xlink:title=" ">
<polygon fill="#e0e0e0" stroke="#999999" points="374,-74.5 323.5,-74.5 323.5,-55.25 374,-55.25 374,-74.5"/>
<text text-anchor="middle" x="348.75" y="-61" font-family="Helvetica,sans-Serif" font-size="10.00">memory</text>
</a>
</g>
</g>
<!-- Node17&#45;&gt;Node18 -->
<g id="edge24_Node000017_Node000018" class="edge">
<title>Node17&#45;&gt;Node18</title>
<g id="a_edge24_Node000017_Node000018"><a xlink:title=" ">
<path fill="none" stroke="#63b8ff" d="M348.75,-110.33C348.75,-103.82 348.75,-94.67 348.75,-86.37"/>
<polygon fill="#63b8ff" stroke="#63b8ff" points="352.25,-86.37 348.75,-76.37 345.25,-86.37 352.25,-86.37"/>
</a>
</g>
</g>
<!-- Node19&#45;&gt;Node4 -->
<g id="edge27_Node000019_Node000004" class="edge">
<title>Node19&#45;&gt;Node4</title>
<g id="a_edge27_Node000019_Node000004"><a xlink:title=" ">
<path fill="none" stroke="#63b8ff" d="M85.37,-170.91C91.76,-168.87 98.38,-167.04 104.75,-165.75 223.93,-141.57 587.71,-127.63 731.94,-122.94"/>
<polygon fill="#63b8ff" stroke="#63b8ff" points="731.77,-126.44 741.65,-122.62 731.54,-119.45 731.77,-126.44"/>
</a>
</g>
</g>
<!-- Node19&#45;&gt;Node8 -->
<g id="edge29_Node000019_Node000008" class="edge">
<title>Node19&#45;&gt;Node8</title>
<g id="a_edge29_Node000019_Node000008"><a xlink:title=" ">
<path fill="none" stroke="#63b8ff" d="M68.47,-171.05C106.56,-144.8 190.96,-89.16 268.75,-55.25 308.94,-37.73 358.07,-24.56 388.9,-17.23"/>
<polygon fill="#63b8ff" stroke="#63b8ff" points="389.34,-20.72 398.28,-15.05 387.75,-13.9 389.34,-20.72"/>
</a>
</g>
</g>
<!-- Node19&#45;&gt;Node17 -->
<g id="edge28_Node000019_Node000017" class="edge">
<title>Node19&#45;&gt;Node17</title>
<g id="a_edge28_Node000019_Node000017"><a xlink:title=" ">
<path fill="none" stroke="#63b8ff" d="M87.37,-170.93C93.16,-169.04 99.08,-167.25 104.75,-165.75 172.78,-147.78 253.37,-134.57 302.78,-127.36"/>
<polygon fill="#63b8ff" stroke="#63b8ff" points="303.13,-130.85 312.53,-125.96 302.14,-123.92 303.13,-130.85"/>
</a>
</g>
</g>
<!-- Node20&#45;&gt;Node4 -->
<g id="edge31_Node000020_Node000004" class="edge">
<title>Node20&#45;&gt;Node4</title>
<g id="a_edge31_Node000020_Node000004"><a xlink:title=" ">
<path fill="none" stroke="#63b8ff" d="M791.75,-170.99C791.75,-162.2 791.75,-150.9 791.75,-141.28"/>
<polygon fill="#63b8ff" stroke="#63b8ff" points="795.25,-141.46 791.75,-131.46 788.25,-141.46 795.25,-141.46"/>
</a>
</g>
</g>
<!-- Node21&#45;&gt;Node4 -->
<g id="edge33_Node000021_Node000004" class="edge">
<title>Node21&#45;&gt;Node4</title>
<g id="a_edge33_Node000021_Node000004"><a xlink:title=" ">
<path fill="none" stroke="#63b8ff" d="M879.88,-170.99C861.23,-160.44 836.17,-146.26 817.54,-135.72"/>
<polygon fill="#63b8ff" stroke="#63b8ff" points="819.42,-132.76 808.99,-130.88 815.97,-138.85 819.42,-132.76"/>
</a>
</g>
</g>
<!-- Node22&#45;&gt;Node4 -->
<g id="edge35_Node000022_Node000004" class="edge">
<title>Node22&#45;&gt;Node4</title>
<g id="a_edge35_Node000022_Node000004"><a xlink:title=" ">
<path fill="none" stroke="#63b8ff" d="M199.69,-170.88C205.98,-168.88 212.49,-167.06 218.75,-165.75 402.77,-127.18 626.34,-121.21 731.54,-120.75"/>
<polygon fill="#63b8ff" stroke="#63b8ff" points="731.35,-124.25 741.34,-120.72 731.34,-117.25 731.35,-124.25"/>
</a>
</g>
</g>
<!-- Node22&#45;&gt;Node8 -->
<g id="edge37_Node000022_Node000008" class="edge">
<title>Node22&#45;&gt;Node8</title>
<g id="a_edge37_Node000022_Node000008"><a xlink:title=" ">
<path fill="none" stroke="#63b8ff" d="M173.59,-171.12C195.81,-144.75 246.34,-88.58 299.75,-55.25 327.87,-37.7 363.96,-25.38 388.99,-18.2"/>
<polygon fill="#63b8ff" stroke="#63b8ff" points="389.8,-21.61 398.51,-15.57 387.94,-14.86 389.8,-21.61"/>
</a>
</g>
</g>
<!-- Node22&#45;&gt;Node17 -->
<g id="edge36_Node000022_Node000017" class="edge">
<title>Node22&#45;&gt;Node17</title>
<g id="a_edge36_Node000022_Node000017"><a xlink:title=" ">
<path fill="none" stroke="#63b8ff" d="M203.77,-170.95C208.81,-169.19 213.9,-167.43 218.75,-165.75 249.98,-154.94 285.47,-142.77 311.47,-133.87"/>
<polygon fill="#63b8ff" stroke="#63b8ff" points="312.58,-137.19 320.91,-130.64 310.32,-130.56 312.58,-137.19"/>
</a>
</g>
</g>
<!-- Node23&#45;&gt;Node4 -->
<g id="edge39_Node000023_Node000004" class="edge">
<title>Node23&#45;&gt;Node4</title>
<g id="a_edge39_Node000023_Node000004"><a xlink:title=" ">
<path fill="none" stroke="#63b8ff" d="M332.93,-170.9C340.18,-168.95 347.63,-167.14 354.75,-165.75 487.71,-139.76 646.57,-128.35 731.36,-123.8"/>
<polygon fill="#63b8ff" stroke="#63b8ff" points="731.51,-127.3 741.31,-123.28 731.14,-120.31 731.51,-127.3"/>
</a>
</g>
</g>
<!-- Node23&#45;&gt;Node8 -->
<g id="edge41_Node000023_Node000008" class="edge">
<title>Node23&#45;&gt;Node8</title>
<g id="a_edge41_Node000023_Node000008"><a xlink:title=" ">
<path fill="none" stroke="#63b8ff" d="M285.81,-171.28C284.9,-145.16 286.65,-89.39 314.75,-55.25 333.23,-32.8 365.1,-21.39 388.7,-15.76"/>
<polygon fill="#63b8ff" stroke="#63b8ff" points="389.32,-19.21 398.37,-13.7 387.86,-12.36 389.32,-19.21"/>
</a>
</g>
</g>
<!-- Node23&#45;&gt;Node17 -->
<g id="edge40_Node000023_Node000017" class="edge">
<title>Node23&#45;&gt;Node17</title>
<g id="a_edge40_Node000023_Node000017"><a xlink:title=" ">
<path fill="none" stroke="#63b8ff" d="M300.82,-170.99C310.21,-161.21 322.6,-148.33 332.43,-138.1"/>
<polygon fill="#63b8ff" stroke="#63b8ff" points="334.81,-140.67 339.22,-131.04 329.77,-135.82 334.81,-140.67"/>
</a>
</g>
</g>
<!-- Node24&#45;&gt;Node4 -->
<g id="edge43_Node000024_Node000004" class="edge">
<title>Node24&#45;&gt;Node4</title>
<g id="a_edge43_Node000024_Node000004"><a xlink:title=" ">
<path fill="none" stroke="#63b8ff" d="M474.46,-167.76C477.25,-167.04 480.03,-166.37 482.75,-165.75 568.23,-146.43 669,-133.71 731.64,-126.97"/>
<polygon fill="#63b8ff" stroke="#63b8ff" points="731.8,-130.47 741.38,-125.94 731.06,-123.51 731.8,-130.47"/>
</a>
</g>
</g>
<!-- Node24&#45;&gt;Node8 -->
<g id="edge45_Node000024_Node000008" class="edge">
<title>Node24&#45;&gt;Node8</title>
<g id="a_edge45_Node000024_Node000008"><a xlink:title=" ">
<path fill="none" stroke="#63b8ff" d="M418.75,-165.55C418.75,-131.94 418.75,-64.67 418.75,-30.92"/>
<polygon fill="#63b8ff" stroke="#63b8ff" points="422.25,-30.92 418.75,-20.92 415.25,-30.92 422.25,-30.92"/>
</a>
</g>
</g>
<!-- Node24&#45;&gt;Node17 -->
<g id="edge44_Node000024_Node000017" class="edge">
<title>Node24&#45;&gt;Node17</title>
<g id="a_edge44_Node000024_Node000017"><a xlink:title=" ">
<path fill="none" stroke="#63b8ff" d="M396.99,-165.57C387.35,-156.69 376.15,-146.37 366.97,-137.91"/>
<polygon fill="#63b8ff" stroke="#63b8ff" points="369.43,-135.42 359.71,-131.22 364.69,-140.57 369.43,-135.42"/>
</a>
</g>
</g>
<!-- Node26 -->
<g id="Node000026" class="node">
<title>Node26</title>
<g id="a_Node000026"><a xlink:title=" ">
<polygon fill="#e0e0e0" stroke="#999999" points="1345.12,-196.25 1310.38,-196.25 1310.38,-177 1345.12,-177 1345.12,-196.25"/>
<text text-anchor="middle" x="1327.75" y="-182.75" font-family="Helvetica,sans-Serif" font-size="10.00">print</text>
</a>
</g>
</g>
<!-- Node25&#45;&gt;Node26 -->
<g id="edge49_Node000025_Node000026" class="edge">
<title>Node25&#45;&gt;Node26</title>
<g id="a_edge49_Node000025_Node000026"><a xlink:title=" ">
<path fill="none" stroke="#63b8ff" d="M1220.98,-243.08C1241.14,-234.62 1271.47,-221.27 1296.75,-207.5 1299.5,-206 1302.33,-204.35 1305.11,-202.66"/>
<polygon fill="#63b8ff" stroke="#63b8ff" points="1306.88,-205.68 1313.45,-197.37 1303.13,-199.77 1306.88,-205.68"/>
</a>
</g>
</g>
</g>
</svg>

<g id="navigator" transform="translate(0 0)" fill="#404254">
  <rect fill="#f2f5e9" fill-opacity="0.5" stroke="#606060" stroke-width=".5" x="0" y="0" width="60" height="60"/>
  <use id="zoomplus" xlink:href="#zoomPlus" x="17" y="9" onmousedown="handleZoom(evt,'in')"/>
  <use id="zoomminus" xlink:href="#zoomMin" x="42" y="9" onmousedown="handleZoom(evt,'out')"/>
  <use id="reset" xlink:href="#resetDef" x="30" y="36" onmousedown="handleReset()"/>
   <use id="arrowup" xlink:href="#arrowUp" x="0" y="0" onmousedown="handlePan(0,-1)"/>
  <use id="arrowright" xlink:href="#arrowRight" x="0" y="0" onmousedown="handlePan(1,0)"/>
  <use id="arrowdown" xlink:href="#arrowDown" x="0" y="0" onmousedown="handlePan(0,1)"/>
  <use id="arrowleft" xlink:href="#arrowLeft" x="0" y="0" onmousedown="handlePan(-1,0)"/>
</g>
<svg viewBox="0 0 15 15" width="100%" height="30px" preserveAspectRatio="xMaxYMin meet">
 <g id="arrow_out" transform="scale(0.3 0.3)">
  <a xlink:href="kalman__format__float__1x1x1_8cpp__incl_org.svg" target="_base">
   <rect id="button" ry="5" rx="5" y="6" x="6" height="38" width="38"
        fill="#f2f5e9" fill-opacity="0.5" stroke="#606060" stroke-width="1.0"/>
   <path id="arrow"
     d="M 11.500037,31.436501 C 11.940474,20.09759 22.043105,11.32322 32.158766,21.979434 L 37.068811,17.246167 C 37.068811,17.246167 37.088388,32 37.088388,32 L 22.160133,31.978069 C 22.160133,31.978069 26.997745,27.140456 26.997745,27.140456 C 18.528582,18.264221 13.291696,25.230495 11.500037,31.436501 z"
     style="fill:#404040;"/>
  </a>
 </g>
</svg>

<style type='text/css'>
<![CDATA[
[data-mouse-over-selected='false'] { opacity: 0.7; }
[data-mouse-over-selected='true']  { opacity: 1.0; }
]]>
</style>
<script type="application/ecmascript"><![CDATA[
document.addEventListener('DOMContentLoaded', (event) => {
  highlightEdges();
  highlightAdjacentNodes();
});
]]></script>
</svg>
