<?xml version="1.0" encoding="UTF-8" standalone="no"?>
<!DOCTYPE svg PUBLIC "-//W3C//DTD SVG 1.1//EN"
 "http://www.w3.org/Graphics/SVG/1.1/DTD/svg11.dtd">
<!-- Generated by graphviz version 2.44.0 ()
 -->
<!-- Title: include/fcarouge/internal/kalman_equation.hpp Pages: 1 -->
<svg width="685pt" height="296pt"
 viewBox="0.00 0.00 685.00 296.00" xmlns="http://www.w3.org/2000/svg" xmlns:xlink="http://www.w3.org/1999/xlink">
<g id="graph0" class="graph" transform="scale(1 1) rotate(0) translate(4 292)">
<title>include/fcarouge/internal/kalman_equation.hpp</title>
<polygon fill="white" stroke="transparent" points="-4,4 -4,-292 681,-292 681,4 -4,4"/>
<!-- Node1 -->
<g id="node1" class="node">
<title>Node1</title>
<g id="a_node1"><a xlink:title="Kalman filter main project header.">
<polygon fill="#bfbfbf" stroke="black" points="161.5,-257.5 161.5,-287.5 283.5,-287.5 283.5,-257.5 161.5,-257.5"/>
<text text-anchor="start" x="169.5" y="-275.5" font-family="Helvetica,sans-Serif" font-size="10.00">include/fcarouge/internal</text>
<text text-anchor="middle" x="222.5" y="-264.5" font-family="Helvetica,sans-Serif" font-size="10.00">/kalman_equation.hpp</text>
</a>
</g>
</g>
<!-- Node2 -->
<g id="node2" class="node">
<title>Node2</title>
<g id="a_node2"><a xlink:href="internal_2kalman_8hpp.xhtml" target="_top" xlink:title="The main Kalman filter class.">
<polygon fill="white" stroke="black" points="161.5,-190.5 161.5,-220.5 283.5,-220.5 283.5,-190.5 161.5,-190.5"/>
<text text-anchor="start" x="169.5" y="-208.5" font-family="Helvetica,sans-Serif" font-size="10.00">include/fcarouge/internal</text>
<text text-anchor="middle" x="222.5" y="-197.5" font-family="Helvetica,sans-Serif" font-size="10.00">/kalman.hpp</text>
</a>
</g>
</g>
<!-- Node1&#45;&gt;Node2 -->
<g id="edge1" class="edge">
<title>Node1&#45;&gt;Node2</title>
<path fill="none" stroke="midnightblue" d="M222.5,-247.11C222.5,-238.15 222.5,-228.32 222.5,-220.58"/>
<polygon fill="midnightblue" stroke="midnightblue" points="219,-247.4 222.5,-257.4 226,-247.4 219,-247.4"/>
</g>
<!-- Node3 -->
<g id="node3" class="node">
<title>Node3</title>
<g id="a_node3"><a xlink:href="kalman__eigen__operator_8hpp.xhtml" target="_top" xlink:title="Kalman operation for Eigen 3 types.">
<polygon fill="white" stroke="black" points="75.5,-123.5 75.5,-153.5 213.5,-153.5 213.5,-123.5 75.5,-123.5"/>
<text text-anchor="start" x="83.5" y="-141.5" font-family="Helvetica,sans-Serif" font-size="10.00">include/fcarouge/internal</text>
<text text-anchor="middle" x="144.5" y="-130.5" font-family="Helvetica,sans-Serif" font-size="10.00">/kalman_eigen_operator.hpp</text>
</a>
</g>
</g>
<!-- Node2&#45;&gt;Node3 -->
<g id="edge2" class="edge">
<title>Node2&#45;&gt;Node3</title>
<path fill="none" stroke="midnightblue" d="M197.76,-183.88C185.91,-174.01 172.02,-162.43 161.39,-153.58"/>
<polygon fill="midnightblue" stroke="midnightblue" points="195.65,-186.68 205.58,-190.4 200.13,-181.31 195.65,-186.68"/>
</g>
<!-- Node7 -->
<g id="node7" class="node">
<title>Node7</title>
<g id="a_node7"><a xlink:href="kalman_8hpp.xhtml" target="_top" xlink:title="The main Kalman filter class.">
<polygon fill="white" stroke="black" points="231.5,-129 231.5,-148 371.5,-148 371.5,-129 231.5,-129"/>
<text text-anchor="middle" x="301.5" y="-136" font-family="Helvetica,sans-Serif" font-size="10.00">include/fcarouge/kalman.hpp</text>
</a>
</g>
</g>
<!-- Node2&#45;&gt;Node7 -->
<g id="edge6" class="edge">
<title>Node2&#45;&gt;Node7</title>
<path fill="none" stroke="midnightblue" d="M247.41,-184.01C262.07,-171.94 279.86,-157.3 290.93,-148.19"/>
<polygon fill="midnightblue" stroke="midnightblue" points="245.14,-181.34 239.64,-190.4 249.59,-186.75 245.14,-181.34"/>
</g>
<!-- Node4 -->
<g id="node4" class="node">
<title>Node4</title>
<g id="a_node4"><a xlink:href="kalman__eigen_8hpp.xhtml" target="_top" xlink:title="Kalman operation for Eigen 3 types.">
<polygon fill="white" stroke="black" points="83.5,-56.5 83.5,-86.5 205.5,-86.5 205.5,-56.5 83.5,-56.5"/>
<text text-anchor="start" x="91.5" y="-74.5" font-family="Helvetica,sans-Serif" font-size="10.00">include/fcarouge/kalman</text>
<text text-anchor="middle" x="144.5" y="-63.5" font-family="Helvetica,sans-Serif" font-size="10.00">_eigen.hpp</text>
</a>
</g>
</g>
<!-- Node3&#45;&gt;Node4 -->
<g id="edge3" class="edge">
<title>Node3&#45;&gt;Node4</title>
<path fill="none" stroke="midnightblue" d="M144.5,-113.11C144.5,-104.15 144.5,-94.32 144.5,-86.58"/>
<polygon fill="midnightblue" stroke="midnightblue" points="141,-113.4 144.5,-123.4 148,-113.4 141,-113.4"/>
</g>
<!-- Node5 -->
<g id="node5" class="node">
<title>Node5</title>
<g id="a_node5"><a xlink:href="rocket__altitude_8cpp.xhtml" target="_top" xlink:title=" ">
<polygon fill="white" stroke="black" points="0,-0.5 0,-19.5 133,-19.5 133,-0.5 0,-0.5"/>
<text text-anchor="middle" x="66.5" y="-7.5" font-family="Helvetica,sans-Serif" font-size="10.00">sample/rocket_altitude.cpp</text>
</a>
</g>
</g>
<!-- Node4&#45;&gt;Node5 -->
<g id="edge4" class="edge">
<title>Node4&#45;&gt;Node5</title>
<path fill="none" stroke="midnightblue" d="M117.87,-50.19C104.22,-39.77 88.3,-27.63 77.85,-19.66"/>
<polygon fill="midnightblue" stroke="midnightblue" points="115.94,-53.12 126.02,-56.4 120.19,-47.55 115.94,-53.12"/>
</g>
<!-- Node6 -->
<g id="node6" class="node">
<title>Node6</title>
<g id="a_node6"><a xlink:href="vehicule__location_8cpp.xhtml" target="_top" xlink:title=" ">
<polygon fill="white" stroke="black" points="151.5,-0.5 151.5,-19.5 295.5,-19.5 295.5,-0.5 151.5,-0.5"/>
<text text-anchor="middle" x="223.5" y="-7.5" font-family="Helvetica,sans-Serif" font-size="10.00">sample/vehicule_location.cpp</text>
</a>
</g>
</g>
<!-- Node4&#45;&gt;Node6 -->
<g id="edge5" class="edge">
<title>Node4&#45;&gt;Node6</title>
<path fill="none" stroke="midnightblue" d="M171.47,-50.19C185.3,-39.77 201.42,-27.63 212,-19.66"/>
<polygon fill="midnightblue" stroke="midnightblue" points="169.1,-47.59 163.22,-56.4 173.32,-53.18 169.1,-47.59"/>
</g>
<!-- Node7&#45;&gt;Node4 -->
<g id="edge7" class="edge">
<title>Node7&#45;&gt;Node4</title>
<path fill="none" stroke="midnightblue" d="M271.1,-124.91C244.51,-113.91 205.95,-97.94 178.38,-86.53"/>
<polygon fill="midnightblue" stroke="midnightblue" points="270.07,-128.28 280.65,-128.87 272.75,-121.81 270.07,-128.28"/>
</g>
<!-- Node8 -->
<g id="node8" class="node">
<title>Node8</title>
<g id="a_node8"><a xlink:href="building__height_8cpp.xhtml" target="_top" xlink:title=" ">
<polygon fill="white" stroke="black" points="223.5,-62 223.5,-81 357.5,-81 357.5,-62 223.5,-62"/>
<text text-anchor="middle" x="290.5" y="-69" font-family="Helvetica,sans-Serif" font-size="10.00">sample/building_height.cpp</text>
</a>
</g>
</g>
<!-- Node7&#45;&gt;Node8 -->
<g id="edge8" class="edge">
<title>Node7&#45;&gt;Node8</title>
<path fill="none" stroke="midnightblue" d="M298.29,-118.54C296.2,-106.17 293.57,-90.62 291.96,-81.13"/>
<polygon fill="midnightblue" stroke="midnightblue" points="294.9,-119.46 300.02,-128.73 301.8,-118.29 294.9,-119.46"/>
</g>
<!-- Node9 -->
<g id="node9" class="node">
<title>Node9</title>
<g id="a_node9"><a xlink:href="dog__position1d_8cpp.xhtml" target="_top" xlink:title=" ">
<polygon fill="white" stroke="black" points="375.5,-62 375.5,-81 509.5,-81 509.5,-62 375.5,-62"/>
<text text-anchor="middle" x="442.5" y="-69" font-family="Helvetica,sans-Serif" font-size="10.00">sample/dog_position1d.cpp</text>
</a>
</g>
</g>
<!-- Node7&#45;&gt;Node9 -->
<g id="edge9" class="edge">
<title>Node7&#45;&gt;Node9</title>
<path fill="none" stroke="midnightblue" d="M329.46,-124.61C357.38,-111.74 399.54,-92.31 423.7,-81.17"/>
<polygon fill="midnightblue" stroke="midnightblue" points="327.84,-121.5 320.22,-128.87 330.77,-127.86 327.84,-121.5"/>
</g>
<!-- Node10 -->
<g id="node10" class="node">
<title>Node10</title>
<g id="a_node10"><a xlink:href="liquid__temperature_8cpp.xhtml" target="_top" xlink:title=" ">
<polygon fill="white" stroke="black" points="528,-62 528,-81 677,-81 677,-62 528,-62"/>
<text text-anchor="middle" x="602.5" y="-69" font-family="Helvetica,sans-Serif" font-size="10.00">sample/liquid_temperature.cpp</text>
</a>
</g>
</g>
<!-- Node7&#45;&gt;Node10 -->
<g id="edge10" class="edge">
<title>Node7&#45;&gt;Node10</title>
<path fill="none" stroke="midnightblue" d="M351.04,-126.8C410.27,-114.01 508.23,-92.86 562.75,-81.08"/>
<polygon fill="midnightblue" stroke="midnightblue" points="350.2,-123.4 341.16,-128.94 351.67,-130.25 350.2,-123.4"/>
</g>
</g>
</svg>
