<?xml version="1.0" encoding="UTF-8" standalone="no"?>
<!DOCTYPE svg PUBLIC "-//W3C//DTD SVG 1.1//EN"
 "http://www.w3.org/Graphics/SVG/1.1/DTD/svg11.dtd">
<!-- Generated by graphviz version 3.0.0 (20221109.1736)
 -->
<!-- Title: /github/workspace/test/kalman_constructor_default_float_1x1x1.cpp Pages: 1 -->
<svg width="702pt" height="330pt"
 viewBox="0.00 0.00 702.00 330.00" xmlns="http://www.w3.org/2000/svg" xmlns:xlink="http://www.w3.org/1999/xlink">
<g id="graph0" class="graph" transform="scale(1 1) rotate(0) translate(4 326)">
<title>/github/workspace/test/kalman_constructor_default_float_1x1x1.cpp</title>
<polygon fill="white" stroke="transparent" points="-4,4 -4,-326 698,-326 698,4 -4,4"/>
<!-- Node1 -->
<g id="node1" class="node">
<title>Node1</title>
<g id="a_node1"><a xlink:title=" ">
<polygon fill="#bfbfbf" stroke="black" points="315,-280.5 315,-321.5 455,-321.5 455,-280.5 315,-280.5"/>
<text text-anchor="start" x="323" y="-309.5" font-family="Helvetica,sans-Serif" font-size="10.00">/github/workspace/test</text>
<text text-anchor="start" x="323" y="-298.5" font-family="Helvetica,sans-Serif" font-size="10.00">/kalman_constructor_default</text>
<text text-anchor="middle" x="385" y="-287.5" font-family="Helvetica,sans-Serif" font-size="10.00">_float_1x1x1.cpp</text>
</a>
</g>
</g>
<!-- Node2 -->
<g id="node2" class="node">
<title>Node2</title>
<g id="a_node2"><a xlink:href="kalman_8hpp.xhtml" target="_top" xlink:title="The Kalman filter class and library top&#45;level header.">
<polygon fill="white" stroke="black" points="283.5,-224.5 283.5,-243.5 390.5,-243.5 390.5,-224.5 283.5,-224.5"/>
<text text-anchor="middle" x="337" y="-231.5" font-family="Helvetica,sans-Serif" font-size="10.00">fcarouge/kalman.hpp</text>
</a>
</g>
</g>
<!-- Node1&#45;&gt;Node2 -->
<g id="edge1" class="edge">
<title>Node1&#45;&gt;Node2</title>
<path fill="none" stroke="midnightblue" d="M370.6,-280.5C363.88,-271.39 355.95,-260.66 349.49,-251.91"/>
<polygon fill="midnightblue" stroke="midnightblue" points="352.15,-249.62 343.39,-243.65 346.51,-253.78 352.15,-249.62"/>
</g>
<!-- Node16 -->
<g id="node16" class="node">
<title>Node16</title>
<g id="a_node16"><a xlink:title=" ">
<polygon fill="white" stroke="#bfbfbf" points="408.5,-224.5 408.5,-243.5 457.5,-243.5 457.5,-224.5 408.5,-224.5"/>
<text text-anchor="middle" x="433" y="-231.5" font-family="Helvetica,sans-Serif" font-size="10.00">cassert</text>
</a>
</g>
</g>
<!-- Node1&#45;&gt;Node16 -->
<g id="edge21" class="edge">
<title>Node1&#45;&gt;Node16</title>
<path fill="none" stroke="midnightblue" d="M399.4,-280.5C406.12,-271.39 414.05,-260.66 420.51,-251.91"/>
<polygon fill="midnightblue" stroke="midnightblue" points="423.49,-253.78 426.61,-243.65 417.85,-249.62 423.49,-253.78"/>
</g>
<!-- Node3 -->
<g id="node3" class="node">
<title>Node3</title>
<g id="a_node3"><a xlink:href="algorithm_8hpp.xhtml" target="_top" xlink:title="The collection of Kalman algorithms.">
<polygon fill="white" stroke="black" points="0,-168.5 0,-187.5 74,-187.5 74,-168.5 0,-168.5"/>
<text text-anchor="middle" x="37" y="-175.5" font-family="Helvetica,sans-Serif" font-size="10.00">algorithm.hpp</text>
</a>
</g>
</g>
<!-- Node2&#45;&gt;Node3 -->
<g id="edge2" class="edge">
<title>Node2&#45;&gt;Node3</title>
<path fill="none" stroke="midnightblue" d="M289.46,-224.44C233.31,-214.34 140.47,-197.63 84.39,-187.53"/>
<polygon fill="midnightblue" stroke="midnightblue" points="84.82,-184.05 74.36,-185.73 83.58,-190.94 84.82,-184.05"/>
</g>
<!-- Node4 -->
<g id="node4" class="node">
<title>Node4</title>
<g id="a_node4"><a xlink:href="format_8hpp.xhtml" target="_top" xlink:title=" ">
<polygon fill="white" stroke="black" points="384.5,-168.5 384.5,-187.5 481.5,-187.5 481.5,-168.5 384.5,-168.5"/>
<text text-anchor="middle" x="433" y="-175.5" font-family="Helvetica,sans-Serif" font-size="10.00">internal/format.hpp</text>
</a>
</g>
</g>
<!-- Node2&#45;&gt;Node4 -->
<g id="edge3" class="edge">
<title>Node2&#45;&gt;Node4</title>
<path fill="none" stroke="midnightblue" d="M352.42,-224.32C367.54,-215.82 390.82,-202.73 408.47,-192.8"/>
<polygon fill="midnightblue" stroke="midnightblue" points="410.61,-195.61 417.61,-187.65 407.18,-189.51 410.61,-195.61"/>
</g>
<!-- Node5 -->
<g id="node5" class="node">
<title>Node5</title>
<g id="a_node5"><a xlink:href="utility_8hpp.xhtml" target="_top" xlink:title="The collection of utilities supporting the library.">
<polygon fill="white" stroke="black" points="264,-112.5 264,-131.5 362,-131.5 362,-112.5 264,-112.5"/>
<text text-anchor="middle" x="313" y="-119.5" font-family="Helvetica,sans-Serif" font-size="10.00">fcarouge/utility.hpp</text>
</a>
</g>
</g>
<!-- Node2&#45;&gt;Node5 -->
<g id="edge14" class="edge">
<title>Node2&#45;&gt;Node5</title>
<path fill="none" stroke="midnightblue" d="M335.12,-224.37C331.24,-206.62 322.31,-165.67 317.06,-141.6"/>
<polygon fill="midnightblue" stroke="midnightblue" points="320.43,-140.62 314.87,-131.59 313.59,-142.11 320.43,-140.62"/>
</g>
<!-- Node7 -->
<g id="node7" class="node">
<title>Node7</title>
<g id="a_node7"><a xlink:title=" ">
<polygon fill="white" stroke="#bfbfbf" points="179,-0.5 179,-19.5 235,-19.5 235,-0.5 179,-0.5"/>
<text text-anchor="middle" x="207" y="-7.5" font-family="Helvetica,sans-Serif" font-size="10.00">concepts</text>
</a>
</g>
</g>
<!-- Node2&#45;&gt;Node7 -->
<g id="edge15" class="edge">
<title>Node2&#45;&gt;Node7</title>
<path fill="none" stroke="midnightblue" d="M283.37,-228.46C246.89,-223.25 198.9,-212.05 163,-188 137.15,-170.69 130.84,-161.51 121,-132 106.39,-88.16 154.43,-46.37 184.53,-25.27"/>
<polygon fill="midnightblue" stroke="midnightblue" points="186.52,-28.15 192.84,-19.64 182.6,-22.35 186.52,-28.15"/>
</g>
<!-- Node8 -->
<g id="node8" class="node">
<title>Node8</title>
<g id="a_node8"><a xlink:title=" ">
<polygon fill="white" stroke="#bfbfbf" points="320,-0.5 320,-19.5 382,-19.5 382,-0.5 320,-0.5"/>
<text text-anchor="middle" x="351" y="-7.5" font-family="Helvetica,sans-Serif" font-size="10.00">type_traits</text>
</a>
</g>
</g>
<!-- Node2&#45;&gt;Node8 -->
<g id="edge18" class="edge">
<title>Node2&#45;&gt;Node8</title>
<path fill="none" stroke="midnightblue" d="M341,-224.33C348.66,-207.16 365.2,-167.42 371,-132 373.71,-115.48 371.11,-70.79 368,-56 366.07,-46.81 362.55,-37 359.21,-28.9"/>
<polygon fill="midnightblue" stroke="midnightblue" points="362.42,-27.49 355.22,-19.72 356,-30.29 362.42,-27.49"/>
</g>
<!-- Node9 -->
<g id="node9" class="node">
<title>Node9</title>
<g id="a_node9"><a xlink:title=" ">
<polygon fill="white" stroke="#bfbfbf" points="483.5,-112.5 483.5,-131.5 532.5,-131.5 532.5,-112.5 483.5,-112.5"/>
<text text-anchor="middle" x="508" y="-119.5" font-family="Helvetica,sans-Serif" font-size="10.00">cstddef</text>
</a>
</g>
</g>
<!-- Node2&#45;&gt;Node9 -->
<g id="edge16" class="edge">
<title>Node2&#45;&gt;Node9</title>
<path fill="none" stroke="midnightblue" d="M384.52,-224.43C424.04,-216.37 476.15,-203.28 491,-188 502.8,-175.86 506.69,-156.58 507.84,-142.17"/>
<polygon fill="midnightblue" stroke="midnightblue" points="511.35,-142.02 508.27,-131.88 504.35,-141.72 511.35,-142.02"/>
</g>
<!-- Node11 -->
<g id="node11" class="node">
<title>Node11</title>
<g id="a_node11"><a xlink:href="internal_2kalman_8hpp.xhtml" target="_top" xlink:title=" ">
<polygon fill="white" stroke="black" points="188.5,-168.5 188.5,-187.5 289.5,-187.5 289.5,-168.5 188.5,-168.5"/>
<text text-anchor="middle" x="239" y="-175.5" font-family="Helvetica,sans-Serif" font-size="10.00">internal/kalman.hpp</text>
</a>
</g>
</g>
<!-- Node2&#45;&gt;Node11 -->
<g id="edge10" class="edge">
<title>Node2&#45;&gt;Node11</title>
<path fill="none" stroke="midnightblue" d="M321.25,-224.32C305.68,-215.74 281.62,-202.49 263.54,-192.52"/>
<polygon fill="midnightblue" stroke="midnightblue" points="265.15,-189.42 254.71,-187.65 261.78,-195.55 265.15,-189.42"/>
</g>
<!-- Node12 -->
<g id="node12" class="node">
<title>Node12</title>
<g id="a_node12"><a xlink:title=" ">
<polygon fill="white" stroke="#bfbfbf" points="130.5,-112.5 130.5,-131.5 189.5,-131.5 189.5,-112.5 130.5,-112.5"/>
<text text-anchor="middle" x="160" y="-119.5" font-family="Helvetica,sans-Serif" font-size="10.00">functional</text>
</a>
</g>
</g>
<!-- Node2&#45;&gt;Node12 -->
<g id="edge17" class="edge">
<title>Node2&#45;&gt;Node12</title>
<path fill="none" stroke="midnightblue" d="M283.25,-230.31C249.49,-225.85 207.33,-214.8 180,-188 167.76,-176 162.97,-156.7 161.12,-142.25"/>
<polygon fill="midnightblue" stroke="midnightblue" points="164.57,-141.56 160.18,-131.92 157.6,-142.2 164.57,-141.56"/>
</g>
<!-- Node14 -->
<g id="node14" class="node">
<title>Node14</title>
<g id="a_node14"><a xlink:title=" ">
<polygon fill="white" stroke="#bfbfbf" points="538.5,-168.5 538.5,-187.5 577.5,-187.5 577.5,-168.5 538.5,-168.5"/>
<text text-anchor="middle" x="558" y="-175.5" font-family="Helvetica,sans-Serif" font-size="10.00">utility</text>
</a>
</g>
</g>
<!-- Node2&#45;&gt;Node14 -->
<g id="edge19" class="edge">
<title>Node2&#45;&gt;Node14</title>
<path fill="none" stroke="midnightblue" d="M373.61,-224.45C411.35,-215.57 471.88,-201.17 524,-188 525.44,-187.64 526.92,-187.26 528.41,-186.88"/>
<polygon fill="midnightblue" stroke="midnightblue" points="529.45,-190.22 538.24,-184.31 527.68,-183.45 529.45,-190.22"/>
</g>
<!-- Node15 -->
<g id="node15" class="node">
<title>Node15</title>
<g id="a_node15"><a xlink:title=" ">
<polygon fill="white" stroke="#bfbfbf" points="596,-168.5 596,-187.5 694,-187.5 694,-168.5 596,-168.5"/>
<text text-anchor="middle" x="645" y="-175.5" font-family="Helvetica,sans-Serif" font-size="10.00">internal/kalman.tpp</text>
</a>
</g>
</g>
<!-- Node2&#45;&gt;Node15 -->
<g id="edge20" class="edge">
<title>Node2&#45;&gt;Node15</title>
<path fill="none" stroke="midnightblue" d="M385.8,-224.44C440.21,-214.9 528.17,-199.48 586.29,-189.29"/>
<polygon fill="midnightblue" stroke="midnightblue" points="587.18,-192.69 596.42,-187.52 585.97,-185.8 587.18,-192.69"/>
</g>
<!-- Node4&#45;&gt;Node5 -->
<g id="edge4" class="edge">
<title>Node4&#45;&gt;Node5</title>
<path fill="none" stroke="midnightblue" d="M413.99,-168.44C394.41,-159.64 363.69,-145.81 341.27,-135.72"/>
<polygon fill="midnightblue" stroke="midnightblue" points="342.48,-132.43 331.93,-131.52 339.61,-138.81 342.48,-132.43"/>
</g>
<!-- Node4&#45;&gt;Node9 -->
<g id="edge8" class="edge">
<title>Node4&#45;&gt;Node9</title>
<path fill="none" stroke="midnightblue" d="M445.05,-168.32C456.46,-160.11 473.83,-147.6 487.43,-137.81"/>
<polygon fill="midnightblue" stroke="midnightblue" points="489.66,-140.52 495.73,-131.83 485.57,-134.84 489.66,-140.52"/>
</g>
<!-- Node10 -->
<g id="node10" class="node">
<title>Node10</title>
<g id="a_node10"><a xlink:title=" ">
<polygon fill="white" stroke="#bfbfbf" points="418,-112.5 418,-131.5 462,-131.5 462,-112.5 418,-112.5"/>
<text text-anchor="middle" x="440" y="-119.5" font-family="Helvetica,sans-Serif" font-size="10.00">format</text>
</a>
</g>
</g>
<!-- Node4&#45;&gt;Node10 -->
<g id="edge9" class="edge">
<title>Node4&#45;&gt;Node10</title>
<path fill="none" stroke="midnightblue" d="M434.16,-168.08C435.08,-160.93 436.42,-150.64 437.58,-141.69"/>
<polygon fill="midnightblue" stroke="midnightblue" points="441.05,-142.12 438.87,-131.75 434.11,-141.22 441.05,-142.12"/>
</g>
<!-- Node6 -->
<g id="node6" class="node">
<title>Node6</title>
<g id="a_node6"><a xlink:href="internal_2utility_8hpp.xhtml" target="_top" xlink:title=" ">
<polygon fill="white" stroke="black" points="267,-56.5 267,-75.5 359,-75.5 359,-56.5 267,-56.5"/>
<text text-anchor="middle" x="313" y="-63.5" font-family="Helvetica,sans-Serif" font-size="10.00">internal/utility.hpp</text>
</a>
</g>
</g>
<!-- Node5&#45;&gt;Node6 -->
<g id="edge5" class="edge">
<title>Node5&#45;&gt;Node6</title>
<path fill="none" stroke="midnightblue" d="M313,-112.08C313,-105.01 313,-94.86 313,-85.99"/>
<polygon fill="midnightblue" stroke="midnightblue" points="316.5,-85.75 313,-75.75 309.5,-85.75 316.5,-85.75"/>
</g>
<!-- Node6&#45;&gt;Node7 -->
<g id="edge6" class="edge">
<title>Node6&#45;&gt;Node7</title>
<path fill="none" stroke="midnightblue" d="M295.97,-56.32C278.97,-47.66 252.62,-34.24 233.01,-24.25"/>
<polygon fill="midnightblue" stroke="midnightblue" points="234.49,-21.08 223.99,-19.65 231.31,-27.31 234.49,-21.08"/>
</g>
<!-- Node6&#45;&gt;Node8 -->
<g id="edge7" class="edge">
<title>Node6&#45;&gt;Node8</title>
<path fill="none" stroke="midnightblue" d="M319.27,-56.08C324.64,-48.46 332.52,-37.26 339.08,-27.94"/>
<polygon fill="midnightblue" stroke="midnightblue" points="341.95,-29.94 344.84,-19.75 336.22,-25.91 341.95,-29.94"/>
</g>
<!-- Node11&#45;&gt;Node5 -->
<g id="edge11" class="edge">
<title>Node11&#45;&gt;Node5</title>
<path fill="none" stroke="midnightblue" d="M250.89,-168.32C262.15,-160.11 279.29,-147.6 292.71,-137.81"/>
<polygon fill="midnightblue" stroke="midnightblue" points="294.88,-140.56 300.89,-131.83 290.75,-134.9 294.88,-140.56"/>
</g>
<!-- Node11&#45;&gt;Node12 -->
<g id="edge12" class="edge">
<title>Node11&#45;&gt;Node12</title>
<path fill="none" stroke="midnightblue" d="M226.31,-168.32C214.1,-159.98 195.42,-147.21 181,-137.35"/>
<polygon fill="midnightblue" stroke="midnightblue" points="182.89,-134.41 172.66,-131.65 178.94,-140.19 182.89,-134.41"/>
</g>
<!-- Node13 -->
<g id="node13" class="node">
<title>Node13</title>
<g id="a_node13"><a xlink:title=" ">
<polygon fill="white" stroke="#bfbfbf" points="208,-112.5 208,-131.5 246,-131.5 246,-112.5 208,-112.5"/>
<text text-anchor="middle" x="227" y="-119.5" font-family="Helvetica,sans-Serif" font-size="10.00">tuple</text>
</a>
</g>
</g>
<!-- Node11&#45;&gt;Node13 -->
<g id="edge13" class="edge">
<title>Node11&#45;&gt;Node13</title>
<path fill="none" stroke="midnightblue" d="M237.02,-168.08C235.43,-160.93 233.14,-150.64 231.15,-141.69"/>
<polygon fill="midnightblue" stroke="midnightblue" points="234.53,-140.75 228.94,-131.75 227.7,-142.27 234.53,-140.75"/>
</g>
</g>
</svg>
