<?xml version="1.0" encoding="UTF-8" standalone="no"?>
<!DOCTYPE svg PUBLIC "-//W3C//DTD SVG 1.1//EN"
 "http://www.w3.org/Graphics/SVG/1.1/DTD/svg11.dtd">
<!-- Generated by graphviz version 12.2.0 (20241103.1931)
 -->
<!-- Title: /github/workspace/test/kalman_format_arguments.cpp Pages: 1 -->
<!--zoomable 326 -->

<svg id="main" version="1.1" xmlns="http://www.w3.org/2000/svg" xmlns:xlink="http://www.w3.org/1999/xlink" xml:space="preserve" onload="init(evt)">

<style type="text/css"><![CDATA[
.node, .edge {opacity: 0.7;}
.node.selected, .edge.selected {opacity: 1;}
.edge:hover path { stroke: red; }
.edge:hover polygon { stroke: red; fill: red; }
]]></style>

<defs>
  <circle id="rim" cx="0" cy="0" r="7"/>
  <circle id="rim2" cx="0" cy="0" r="3.5"/>
  <g id="zoomPlus">
    <use xlink:href="#rim" fill="#404040"><set attributeName="fill" to="#808080" begin="zoomplus.mouseover" end="zoomplus.mouseout"/></use>
    <path d="M-4,0h8M0,-4v8" fill="none" stroke="white" stroke-width="1.5" pointer-events="none"/>
  </g>
  <g id="zoomMin">
    <use xlink:href="#rim" fill="#404040"><set attributeName="fill" to="#808080" begin="zoomminus.mouseover" end="zoomminus.mouseout"/></use>
    <path d="M-4,0h8" fill="none" stroke="white" stroke-width="1.5" pointer-events="none"/>
  </g>
  <g id="arrowUp" transform="translate(30 24)">
    <use xlink:href="#rim"/>
    <path pointer-events="none" fill="none" stroke="white" stroke-width="1.5" d="M0,-3.0v7 M-2.5,-0.5L0,-3.0L2.5,-0.5"/>
  </g>
  <g id="arrowRight" transform="rotate(90) translate(36 -43)">
    <use xlink:href="#rim"/>
    <path pointer-events="none" fill="none" stroke="white" stroke-width="1.5" d="M0,-3.0v7 M-2.5,-0.5L0,-3.0L2.5,-0.5"/>
  </g>
  <g id="arrowDown" transform="rotate(180) translate(-30 -48)">
    <use xlink:href="#rim"/>
    <path pointer-events="none" fill="none" stroke="white" stroke-width="1.5" d="M0,-3.0v7 M-2.5,-0.5L0,-3.0L2.5,-0.5"/>
  </g>
  <g id="arrowLeft" transform="rotate(270) translate(-36 17)">
    <use xlink:href="#rim"/>
    <path pointer-events="none" fill="none" stroke="white" stroke-width="1.5" d="M0,-3.0v7 M-2.5,-0.5L0,-3.0L2.5,-0.5"/>
  </g>
  <g id="resetDef">
    <use xlink:href="#rim2" fill="#404040"><set attributeName="fill" to="#808080" begin="reset.mouseover" end="reset.mouseout"/></use>
  </g>
</defs>
<script type="application/ecmascript">
var viewWidth = 1618;
var viewHeight = 326;
var sectionId = 'dynsection-0';
</script>
<script type="application/ecmascript" xlink:href="svg.min.js"/>
<svg id="graph" class="graph">
<g id="viewport">
<title>/github/workspace/test/kalman_format_arguments.cpp</title>
<!-- Node1 -->
<g id="Node000001" class="node">
<title>Node1</title>
<g id="a_Node000001"><a xlink:title=" ">
<polygon fill="#999999" stroke="#666666" points="1609.5,-318 1457,-318 1457,-287.5 1609.5,-287.5 1609.5,-318"/>
<text text-anchor="start" x="1465" y="-304.5" font-family="Helvetica,sans-Serif" font-size="10.00">/github/workspace/test</text>
<text text-anchor="middle" x="1533.25" y="-293.25" font-family="Helvetica,sans-Serif" font-size="10.00">/kalman_format_arguments.cpp</text>
</a>
</g>
</g>
<!-- Node2 -->
<g id="Node000002" class="node">
<title>Node2</title>
<g id="a_Node000002"><a xlink:href="kalman_8hpp.xhtml" target="_top" xlink:title="The Kalman filter class and library top&#45;level header.">
<polygon fill="white" stroke="#666666" points="1204.25,-251.5 1098.25,-251.5 1098.25,-232.25 1204.25,-232.25 1204.25,-251.5"/>
<text text-anchor="middle" x="1151.25" y="-238" font-family="Helvetica,sans-Serif" font-size="10.00">fcarouge/kalman.hpp</text>
</a>
</g>
</g>
<!-- Node1&#45;&gt;Node2 -->
<g id="edge1_Node000001_Node000002" class="edge">
<title>Node1&#45;&gt;Node2</title>
<g id="a_edge1_Node000001_Node000002"><a xlink:title=" ">
<path fill="none" stroke="#63b8ff" d="M1456.86,-289.98C1386.16,-279.08 1282.22,-263.06 1215.63,-252.8"/>
<polygon fill="#63b8ff" stroke="#63b8ff" points="1216.38,-249.37 1205.96,-251.31 1215.31,-256.29 1216.38,-249.37"/>
</a>
</g>
</g>
<!-- Node25 -->
<g id="Node000025" class="node">
<title>Node25</title>
<g id="a_Node000025"><a xlink:title=" ">
<polygon fill="#e0e0e0" stroke="#999999" points="1322.12,-74.5 1278.38,-74.5 1278.38,-55.25 1322.12,-55.25 1322.12,-74.5"/>
<text text-anchor="middle" x="1300.25" y="-61" font-family="Helvetica,sans-Serif" font-size="10.00">format</text>
</a>
</g>
</g>
<!-- Node1&#45;&gt;Node25 -->
<g id="edge54_Node000001_Node000025" class="edge">
<title>Node1&#45;&gt;Node25</title>
<g id="a_edge54_Node000001_Node000025"><a xlink:title=" ">
<path fill="none" stroke="#63b8ff" d="M1534.81,-287.25C1536.73,-262.42 1537.27,-211.15 1514.25,-177 1471.88,-114.14 1382.39,-84.61 1333.63,-72.71"/>
<polygon fill="#63b8ff" stroke="#63b8ff" points="1334.46,-69.31 1323.92,-70.46 1332.87,-76.12 1334.46,-69.31"/>
</a>
</g>
</g>
<!-- Node29 -->
<g id="Node000029" class="node">
<title>Node29</title>
<g id="a_Node000029"><a xlink:title=" ">
<polygon fill="#e0e0e0" stroke="#999999" points="1609.38,-251.5 1561.12,-251.5 1561.12,-232.25 1609.38,-232.25 1609.38,-251.5"/>
<text text-anchor="middle" x="1585.25" y="-238" font-family="Helvetica,sans-Serif" font-size="10.00">cassert</text>
</a>
</g>
</g>
<!-- Node1&#45;&gt;Node29 -->
<g id="edge53_Node000001_Node000029" class="edge">
<title>Node1&#45;&gt;Node29</title>
<g id="a_edge53_Node000001_Node000029"><a xlink:title=" ">
<path fill="none" stroke="#63b8ff" d="M1546.1,-287.2C1553.26,-279.09 1562.22,-268.95 1569.76,-260.41"/>
<polygon fill="#63b8ff" stroke="#63b8ff" points="1572.24,-262.9 1576.23,-253.09 1566.99,-258.26 1572.24,-262.9"/>
</a>
</g>
</g>
<!-- Node3 -->
<g id="Node000003" class="node">
<title>Node3</title>
<g id="a_Node000003"><a xlink:href="kalman__forward_8hpp.xhtml" target="_top" xlink:title="Authoritative forward declaration header.">
<polygon fill="white" stroke="#666666" points="1202.75,-196.25 1099.75,-196.25 1099.75,-177 1202.75,-177 1202.75,-196.25"/>
<text text-anchor="middle" x="1151.25" y="-182.75" font-family="Helvetica,sans-Serif" font-size="10.00">kalman_forward.hpp</text>
</a>
</g>
</g>
<!-- Node2&#45;&gt;Node3 -->
<g id="edge2_Node000002_Node000003" class="edge">
<title>Node2&#45;&gt;Node3</title>
<g id="a_edge2_Node000002_Node000003"><a xlink:title=" ">
<path fill="none" stroke="#63b8ff" d="M1151.25,-232.08C1151.25,-225.57 1151.25,-216.42 1151.25,-208.12"/>
<polygon fill="#63b8ff" stroke="#63b8ff" points="1154.75,-208.12 1151.25,-198.12 1147.75,-208.12 1154.75,-208.12"/>
</a>
</g>
</g>
<!-- Node4 -->
<g id="Node000004" class="node">
<title>Node4</title>
<g id="a_Node000004"><a xlink:href="factory_8hpp.xhtml" target="_top" xlink:title=" ">
<polygon fill="white" stroke="#666666" points="833.5,-196.25 699,-196.25 699,-177 833.5,-177 833.5,-196.25"/>
<text text-anchor="middle" x="766.25" y="-182.75" font-family="Helvetica,sans-Serif" font-size="10.00">kalman_internal/factory.hpp</text>
</a>
</g>
</g>
<!-- Node2&#45;&gt;Node4 -->
<g id="edge3_Node000002_Node000004" class="edge">
<title>Node2&#45;&gt;Node4</title>
<g id="a_edge3_Node000002_Node000004"><a xlink:title=" ">
<path fill="none" stroke="#63b8ff" d="M1098.12,-233.53C1032.1,-224.39 918.93,-208.74 843.36,-198.29"/>
<polygon fill="#63b8ff" stroke="#63b8ff" points="843.91,-194.83 833.53,-196.93 842.96,-201.77 843.91,-194.83"/>
</a>
</g>
</g>
<!-- Node6 -->
<g id="Node000006" class="node">
<title>Node6</title>
<g id="a_Node000006"><a xlink:href="utility_8hpp.xhtml" target="_top" xlink:title=" ">
<polygon fill="white" stroke="#666666" points="847.5,-74.5 791,-74.5 791,-55.25 847.5,-55.25 847.5,-74.5"/>
<text text-anchor="middle" x="819.25" y="-61" font-family="Helvetica,sans-Serif" font-size="10.00">utility.hpp</text>
</a>
</g>
</g>
<!-- Node2&#45;&gt;Node6 -->
<g id="edge51_Node000002_Node000006" class="edge">
<title>Node2&#45;&gt;Node6</title>
<g id="a_edge51_Node000002_Node000006"><a xlink:title=" ">
<path fill="none" stroke="#63b8ff" d="M1134.57,-231.91C1120.14,-223.7 1099.14,-210.67 1083.25,-196.25 1047.03,-163.37 1055.72,-136.45 1014.25,-110.5 966.45,-80.59 900.85,-70.67 859.25,-67.41"/>
<polygon fill="#63b8ff" stroke="#63b8ff" points="859.66,-63.93 849.44,-66.75 859.18,-70.92 859.66,-63.93"/>
</a>
</g>
</g>
<!-- Node24 -->
<g id="Node000024" class="node">
<title>Node24</title>
<g id="a_Node000024"><a xlink:href="format_8hpp.xhtml" target="_top" xlink:title="Formatting support for the Kalman filter.">
<polygon fill="white" stroke="#666666" points="1340.75,-135.38 1207.75,-135.38 1207.75,-116.12 1340.75,-116.12 1340.75,-135.38"/>
<text text-anchor="middle" x="1274.25" y="-121.88" font-family="Helvetica,sans-Serif" font-size="10.00">kalman_internal/format.hpp</text>
</a>
</g>
</g>
<!-- Node2&#45;&gt;Node24 -->
<g id="edge44_Node000002_Node000024" class="edge">
<title>Node2&#45;&gt;Node24</title>
<g id="a_edge44_Node000002_Node000024"><a xlink:title=" ">
<path fill="none" stroke="#63b8ff" d="M1131.79,-231.89C1108.69,-220 1075.2,-198.05 1091.25,-177 1099.24,-166.53 1168.65,-149.53 1219.63,-138.25"/>
<polygon fill="#63b8ff" stroke="#63b8ff" points="1220.35,-141.67 1229.37,-136.12 1218.85,-134.84 1220.35,-141.67"/>
</a>
</g>
</g>
<!-- Node26 -->
<g id="Node000026" class="node">
<title>Node26</title>
<g id="a_Node000026"><a xlink:href="printer_8hpp.xhtml" target="_top" xlink:title="Filter decoration support for printing operations.">
<polygon fill="white" stroke="#666666" points="1353.38,-196.25 1221.12,-196.25 1221.12,-177 1353.38,-177 1353.38,-196.25"/>
<text text-anchor="middle" x="1287.25" y="-182.75" font-family="Helvetica,sans-Serif" font-size="10.00">kalman_internal/printer.hpp</text>
</a>
</g>
</g>
<!-- Node2&#45;&gt;Node26 -->
<g id="edge49_Node000002_Node000026" class="edge">
<title>Node2&#45;&gt;Node26</title>
<g id="a_edge49_Node000002_Node000026"><a xlink:title=" ">
<path fill="none" stroke="#63b8ff" d="M1174.32,-231.84C1196.01,-223.35 1228.73,-210.54 1253.38,-200.89"/>
<polygon fill="#63b8ff" stroke="#63b8ff" points="1254.62,-204.16 1262.66,-197.25 1252.07,-197.64 1254.62,-204.16"/>
</a>
</g>
</g>
<!-- Node28 -->
<g id="Node000028" class="node">
<title>Node28</title>
<g id="a_Node000028"><a xlink:title=" ">
<polygon fill="#e0e0e0" stroke="#999999" points="1505.5,-196.25 1371,-196.25 1371,-177 1505.5,-177 1505.5,-196.25"/>
<text text-anchor="middle" x="1438.25" y="-182.75" font-family="Helvetica,sans-Serif" font-size="10.00">kalman_internal/kalman.tpp</text>
</a>
</g>
</g>
<!-- Node2&#45;&gt;Node28 -->
<g id="edge52_Node000002_Node000028" class="edge">
<title>Node2&#45;&gt;Node28</title>
<g id="a_edge52_Node000002_Node000028"><a xlink:title=" ">
<path fill="none" stroke="#63b8ff" d="M1200.26,-231.78C1249.48,-222.65 1325.4,-208.56 1378.21,-198.76"/>
<polygon fill="#63b8ff" stroke="#63b8ff" points="1378.76,-202.22 1387.95,-196.96 1377.48,-195.34 1378.76,-202.22"/>
</a>
</g>
</g>
<!-- Node5 -->
<g id="Node000005" class="node">
<title>Node5</title>
<g id="a_Node000005"><a xlink:href="type_8hpp.xhtml" target="_top" xlink:title=" ">
<polygon fill="white" stroke="#666666" points="1113.25,-135.38 1061.25,-135.38 1061.25,-116.12 1113.25,-116.12 1113.25,-135.38"/>
<text text-anchor="middle" x="1087.25" y="-121.88" font-family="Helvetica,sans-Serif" font-size="10.00">type.hpp</text>
</a>
</g>
</g>
<!-- Node4&#45;&gt;Node5 -->
<g id="edge4_Node000004_Node000005" class="edge">
<title>Node4&#45;&gt;Node5</title>
<g id="a_edge4_Node000004_Node000005"><a xlink:title=" ">
<path fill="none" stroke="#63b8ff" d="M818.06,-176.53C868.27,-167.67 946.53,-153.7 1014.25,-141 1025.86,-138.82 1038.5,-136.38 1049.95,-134.14"/>
<polygon fill="#63b8ff" stroke="#63b8ff" points="1050.29,-137.64 1059.43,-132.28 1048.94,-130.77 1050.29,-137.64"/>
</a>
</g>
</g>
<!-- Node7 -->
<g id="Node000007" class="node">
<title>Node7</title>
<g id="a_Node000007"><a xlink:title=" ">
<polygon fill="#e0e0e0" stroke="#999999" points="1010.12,-19.25 954.38,-19.25 954.38,0 1010.12,0 1010.12,-19.25"/>
<text text-anchor="middle" x="982.25" y="-5.75" font-family="Helvetica,sans-Serif" font-size="10.00">concepts</text>
</a>
</g>
</g>
<!-- Node4&#45;&gt;Node7 -->
<g id="edge42_Node000004_Node000007" class="edge">
<title>Node4&#45;&gt;Node7</title>
<g id="a_edge42_Node000004_Node000007"><a xlink:title=" ">
<path fill="none" stroke="#63b8ff" d="M833.99,-181.9C931.95,-175.8 1103.52,-162.22 1122.25,-141 1163.27,-94.52 1070.06,-46.52 1016.54,-23.91"/>
<polygon fill="#63b8ff" stroke="#63b8ff" points="1018.08,-20.76 1007.5,-20.19 1015.42,-27.24 1018.08,-20.76"/>
</a>
</g>
</g>
<!-- Node10 -->
<g id="Node000010" class="node">
<title>Node10</title>
<g id="a_Node000010"><a xlink:title=" ">
<polygon fill="#e0e0e0" stroke="#999999" points="1125.75,-19.25 1064.75,-19.25 1064.75,0 1125.75,0 1125.75,-19.25"/>
<text text-anchor="middle" x="1095.25" y="-5.75" font-family="Helvetica,sans-Serif" font-size="10.00">type_traits</text>
</a>
</g>
</g>
<!-- Node4&#45;&gt;Node10 -->
<g id="edge43_Node000004_Node000010" class="edge">
<title>Node4&#45;&gt;Node10</title>
<g id="a_edge43_Node000004_Node000010"><a xlink:title=" ">
<path fill="none" stroke="#63b8ff" d="M833.8,-182.37C936.26,-176.74 1121.22,-163.55 1141.25,-141 1170.48,-108.09 1134.23,-55.43 1111.31,-28.2"/>
<polygon fill="#63b8ff" stroke="#63b8ff" points="1114.1,-26.07 1104.89,-20.85 1108.83,-30.68 1114.1,-26.07"/>
</a>
</g>
</g>
<!-- Node13 -->
<g id="Node000013" class="node">
<title>Node13</title>
<g id="a_Node000013"><a xlink:href="x__z__p__q__r_8hpp.xhtml" target="_top" xlink:title=" ">
<polygon fill="white" stroke="#666666" points="805,-135.38 727.5,-135.38 727.5,-116.12 805,-116.12 805,-135.38"/>
<text text-anchor="middle" x="766.25" y="-121.88" font-family="Helvetica,sans-Serif" font-size="10.00">x_z_p_q_r.hpp</text>
</a>
</g>
</g>
<!-- Node4&#45;&gt;Node13 -->
<g id="edge13_Node000004_Node000013" class="edge">
<title>Node4&#45;&gt;Node13</title>
<g id="a_edge13_Node000004_Node000013"><a xlink:title=" ">
<path fill="none" stroke="#63b8ff" d="M766.25,-176.68C766.25,-168.9 766.25,-157.33 766.25,-147.28"/>
<polygon fill="#63b8ff" stroke="#63b8ff" points="769.75,-147.29 766.25,-137.29 762.75,-147.29 769.75,-147.29"/>
</a>
</g>
</g>
<!-- Node14 -->
<g id="Node000014" class="node">
<title>Node14</title>
<g id="a_Node000014"><a xlink:href="x__z__p__q__r__h__f_8hpp.xhtml" target="_top" xlink:title=" ">
<polygon fill="white" stroke="#666666" points="919.38,-135.38 823.12,-135.38 823.12,-116.12 919.38,-116.12 919.38,-135.38"/>
<text text-anchor="middle" x="871.25" y="-121.88" font-family="Helvetica,sans-Serif" font-size="10.00">x_z_p_q_r_h_f.hpp</text>
</a>
</g>
</g>
<!-- Node4&#45;&gt;Node14 -->
<g id="edge15_Node000004_Node000014" class="edge">
<title>Node4&#45;&gt;Node14</title>
<g id="a_edge15_Node000004_Node000014"><a xlink:title=" ">
<path fill="none" stroke="#63b8ff" d="M782.2,-176.68C798.93,-167.3 825.48,-152.41 845.25,-141.33"/>
<polygon fill="#63b8ff" stroke="#63b8ff" points="846.82,-144.46 853.83,-136.52 843.4,-138.35 846.82,-144.46"/>
</a>
</g>
</g>
<!-- Node15 -->
<g id="Node000015" class="node">
<title>Node15</title>
<g id="a_Node000015"><a xlink:href="x__z__p__q__r__hh__us__ps_8hpp.xhtml" target="_top" xlink:title=" ">
<polygon fill="white" stroke="#666666" points="398.62,-135.38 273.88,-135.38 273.88,-116.12 398.62,-116.12 398.62,-135.38"/>
<text text-anchor="middle" x="336.25" y="-121.88" font-family="Helvetica,sans-Serif" font-size="10.00">x_z_p_q_r_hh_us_ps.hpp</text>
</a>
</g>
</g>
<!-- Node4&#45;&gt;Node15 -->
<g id="edge17_Node000004_Node000015" class="edge">
<title>Node4&#45;&gt;Node15</title>
<g id="a_edge17_Node000004_Node000015"><a xlink:title=" ">
<path fill="none" stroke="#63b8ff" d="M698.55,-178.73C626.21,-171.01 508.3,-157.4 407.25,-141 401.65,-140.09 395.83,-139.06 390.02,-137.98"/>
<polygon fill="#63b8ff" stroke="#63b8ff" points="390.92,-134.59 380.44,-136.14 389.6,-141.46 390.92,-134.59"/>
</a>
</g>
</g>
<!-- Node18 -->
<g id="Node000018" class="node">
<title>Node18</title>
<g id="a_Node000018"><a xlink:href="x__z__p__qq__rr__f_8hpp.xhtml" target="_top" xlink:title=" ">
<polygon fill="white" stroke="#666666" points="510.25,-135.38 416.25,-135.38 416.25,-116.12 510.25,-116.12 510.25,-135.38"/>
<text text-anchor="middle" x="463.25" y="-121.88" font-family="Helvetica,sans-Serif" font-size="10.00">x_z_p_qq_rr_f.hpp</text>
</a>
</g>
</g>
<!-- Node4&#45;&gt;Node18 -->
<g id="edge22_Node000004_Node000018" class="edge">
<title>Node4&#45;&gt;Node18</title>
<g id="a_edge22_Node000004_Node000018"><a xlink:title=" ">
<path fill="none" stroke="#63b8ff" d="M709.62,-176.56C659.41,-168.25 584.19,-155.11 519.25,-141 515.67,-140.22 511.98,-139.38 508.27,-138.5"/>
<polygon fill="#63b8ff" stroke="#63b8ff" points="509.23,-135.13 498.69,-136.16 507.57,-141.93 509.23,-135.13"/>
</a>
</g>
</g>
<!-- Node19 -->
<g id="Node000019" class="node">
<title>Node19</title>
<g id="a_Node000019"><a xlink:href="x__z__p__r_8hpp.xhtml" target="_top" xlink:title=" ">
<polygon fill="white" stroke="#666666" points="1004.75,-135.38 937.75,-135.38 937.75,-116.12 1004.75,-116.12 1004.75,-135.38"/>
<text text-anchor="middle" x="971.25" y="-121.88" font-family="Helvetica,sans-Serif" font-size="10.00">x_z_p_r.hpp</text>
</a>
</g>
</g>
<!-- Node4&#45;&gt;Node19 -->
<g id="edge26_Node000004_Node000019" class="edge">
<title>Node4&#45;&gt;Node19</title>
<g id="a_edge26_Node000004_Node000019"><a xlink:title=" ">
<path fill="none" stroke="#63b8ff" d="M801.16,-176.56C834.07,-167.89 884.7,-154.21 928.25,-141 929.98,-140.48 931.74,-139.93 933.52,-139.37"/>
<polygon fill="#63b8ff" stroke="#63b8ff" points="934.59,-142.71 943.04,-136.32 932.45,-136.04 934.59,-142.71"/>
</a>
</g>
</g>
<!-- Node20 -->
<g id="Node000020" class="node">
<title>Node20</title>
<g id="a_Node000020"><a xlink:href="x__z__p__r__f_8hpp.xhtml" target="_top" xlink:title=" ">
<polygon fill="white" stroke="#666666" points="709.88,-135.38 634.62,-135.38 634.62,-116.12 709.88,-116.12 709.88,-135.38"/>
<text text-anchor="middle" x="672.25" y="-121.88" font-family="Helvetica,sans-Serif" font-size="10.00">x_z_p_r_f.hpp</text>
</a>
</g>
</g>
<!-- Node4&#45;&gt;Node20 -->
<g id="edge28_Node000004_Node000020" class="edge">
<title>Node4&#45;&gt;Node20</title>
<g id="a_edge28_Node000004_Node000020"><a xlink:title=" ">
<path fill="none" stroke="#63b8ff" d="M751.97,-176.68C737.2,-167.43 713.88,-152.82 696.26,-141.79"/>
<polygon fill="#63b8ff" stroke="#63b8ff" points="698.28,-138.92 687.94,-136.58 694.56,-144.85 698.28,-138.92"/>
</a>
</g>
</g>
<!-- Node21 -->
<g id="Node000021" class="node">
<title>Node21</title>
<g id="a_Node000021"><a xlink:href="x__z__u__p__q__r_8hpp.xhtml" target="_top" xlink:title=" ">
<polygon fill="white" stroke="#666666" points="616.25,-135.38 528.25,-135.38 528.25,-116.12 616.25,-116.12 616.25,-135.38"/>
<text text-anchor="middle" x="572.25" y="-121.88" font-family="Helvetica,sans-Serif" font-size="10.00">x_z_u_p_q_r.hpp</text>
</a>
</g>
</g>
<!-- Node4&#45;&gt;Node21 -->
<g id="edge30_Node000004_Node000021" class="edge">
<title>Node4&#45;&gt;Node21</title>
<g id="a_edge30_Node000004_Node000021"><a xlink:title=" ">
<path fill="none" stroke="#63b8ff" d="M736.36,-176.55C703.32,-166.53 649.91,-150.32 613.04,-139.13"/>
<polygon fill="#63b8ff" stroke="#63b8ff" points="614.21,-135.82 603.62,-136.27 612.17,-142.52 614.21,-135.82"/>
</a>
</g>
</g>
<!-- Node22 -->
<g id="Node000022" class="node">
<title>Node22</title>
<g id="a_Node000022"><a xlink:href="x__z__u__p__q__r__f__g__ps_8hpp.xhtml" target="_top" xlink:title=" ">
<polygon fill="white" stroke="#666666" points="122.5,-135.38 0,-135.38 0,-116.12 122.5,-116.12 122.5,-135.38"/>
<text text-anchor="middle" x="61.25" y="-121.88" font-family="Helvetica,sans-Serif" font-size="10.00">x_z_u_p_q_r_f_g_ps.hpp</text>
</a>
</g>
</g>
<!-- Node4&#45;&gt;Node22 -->
<g id="edge34_Node000004_Node000022" class="edge">
<title>Node4&#45;&gt;Node22</title>
<g id="a_edge34_Node000004_Node000022"><a xlink:title=" ">
<path fill="none" stroke="#63b8ff" d="M698.75,-183.78C582.42,-179.95 336.84,-169.03 131.25,-141 125.18,-140.17 118.85,-139.13 112.58,-138"/>
<polygon fill="#63b8ff" stroke="#63b8ff" points="113.41,-134.59 102.93,-136.15 112.1,-141.47 113.41,-134.59"/>
</a>
</g>
</g>
<!-- Node23 -->
<g id="Node000023" class="node">
<title>Node23</title>
<g id="a_Node000023"><a xlink:href="x__z__u__p__q__r__h__f__g__us__ps_8hpp.xhtml" target="_top" xlink:title=" ">
<polygon fill="white" stroke="#666666" points="255.75,-141 140.75,-141 140.75,-110.5 255.75,-110.5 255.75,-141"/>
<text text-anchor="start" x="148.75" y="-127.5" font-family="Helvetica,sans-Serif" font-size="10.00">x_z_u_p_q_r_h_f_g_us</text>
<text text-anchor="middle" x="198.25" y="-116.25" font-family="Helvetica,sans-Serif" font-size="10.00">_ps.hpp</text>
</a>
</g>
</g>
<!-- Node4&#45;&gt;Node23 -->
<g id="edge38_Node000004_Node000023" class="edge">
<title>Node4&#45;&gt;Node23</title>
<g id="a_edge38_Node000004_Node000023"><a xlink:title=" ">
<path fill="none" stroke="#63b8ff" d="M698.68,-182.2C604.32,-176.85 427.56,-164.73 266.96,-141.12"/>
<polygon fill="#63b8ff" stroke="#63b8ff" points="267.82,-137.71 257.41,-139.7 266.78,-144.63 267.82,-137.71"/>
</a>
</g>
</g>
<!-- Node5&#45;&gt;Node6 -->
<g id="edge5_Node000005_Node000006" class="edge">
<title>Node5&#45;&gt;Node6</title>
<g id="a_edge5_Node000005_Node000006"><a xlink:title=" ">
<path fill="none" stroke="#63b8ff" d="M1063.75,-115.72C1058.37,-113.84 1052.65,-111.98 1047.25,-110.5 982.13,-92.63 904.66,-79.05 858.86,-71.79"/>
<polygon fill="#63b8ff" stroke="#63b8ff" points="859.56,-68.36 849.14,-70.27 858.48,-75.27 859.56,-68.36"/>
</a>
</g>
</g>
<!-- Node5&#45;&gt;Node10 -->
<g id="edge12_Node000005_Node000010" class="edge">
<title>Node5&#45;&gt;Node10</title>
<g id="a_edge12_Node000005_Node000010"><a xlink:title=" ">
<path fill="none" stroke="#63b8ff" d="M1087.88,-115.79C1089.15,-97.63 1092.07,-56.04 1093.83,-30.95"/>
<polygon fill="#63b8ff" stroke="#63b8ff" points="1097.31,-31.27 1094.52,-21.05 1090.33,-30.78 1097.31,-31.27"/>
</a>
</g>
</g>
<!-- Node12 -->
<g id="Node000012" class="node">
<title>Node12</title>
<g id="a_Node000012"><a xlink:title=" ">
<polygon fill="#e0e0e0" stroke="#999999" points="1029,-74.5 957.5,-74.5 957.5,-55.25 1029,-55.25 1029,-74.5"/>
<text text-anchor="middle" x="993.25" y="-61" font-family="Helvetica,sans-Serif" font-size="10.00">initializer_list</text>
</a>
</g>
</g>
<!-- Node5&#45;&gt;Node12 -->
<g id="edge11_Node000005_Node000012" class="edge">
<title>Node5&#45;&gt;Node12</title>
<g id="a_edge11_Node000005_Node000012"><a xlink:title=" ">
<path fill="none" stroke="#63b8ff" d="M1072.97,-115.81C1058.2,-106.56 1034.88,-91.95 1017.26,-80.92"/>
<polygon fill="#63b8ff" stroke="#63b8ff" points="1019.28,-78.05 1008.94,-75.7 1015.56,-83.98 1019.28,-78.05"/>
</a>
</g>
</g>
<!-- Node6&#45;&gt;Node7 -->
<g id="edge6_Node000006_Node000007" class="edge">
<title>Node6&#45;&gt;Node7</title>
<g id="a_edge6_Node000006_Node000007"><a xlink:title=" ">
<path fill="none" stroke="#63b8ff" d="M846.9,-54.84C873.48,-46.16 913.89,-32.96 943.64,-23.24"/>
<polygon fill="#63b8ff" stroke="#63b8ff" points="944.61,-26.6 953.02,-20.17 942.43,-19.95 944.61,-26.6"/>
</a>
</g>
</g>
<!-- Node8 -->
<g id="Node000008" class="node">
<title>Node8</title>
<g id="a_Node000008"><a xlink:title=" ">
<polygon fill="#e0e0e0" stroke="#999999" points="1222.38,-19.25 1174.12,-19.25 1174.12,0 1222.38,0 1222.38,-19.25"/>
<text text-anchor="middle" x="1198.25" y="-5.75" font-family="Helvetica,sans-Serif" font-size="10.00">cstddef</text>
</a>
</g>
</g>
<!-- Node6&#45;&gt;Node8 -->
<g id="edge7_Node000006_Node000008" class="edge">
<title>Node6&#45;&gt;Node8</title>
<g id="a_edge7_Node000006_Node000008"><a xlink:title=" ">
<path fill="none" stroke="#63b8ff" d="M847.74,-59.87C915.88,-50.3 1088.15,-26.09 1162.82,-15.6"/>
<polygon fill="#63b8ff" stroke="#63b8ff" points="1163.03,-19.11 1172.44,-14.25 1162.05,-12.18 1163.03,-19.11"/>
</a>
</g>
</g>
<!-- Node9 -->
<g id="Node000009" class="node">
<title>Node9</title>
<g id="a_Node000009"><a xlink:title=" ">
<polygon fill="#e0e0e0" stroke="#999999" points="481.75,-19.25 444.75,-19.25 444.75,0 481.75,0 481.75,-19.25"/>
<text text-anchor="middle" x="463.25" y="-5.75" font-family="Helvetica,sans-Serif" font-size="10.00">tuple</text>
</a>
</g>
</g>
<!-- Node6&#45;&gt;Node9 -->
<g id="edge8_Node000006_Node000009" class="edge">
<title>Node6&#45;&gt;Node9</title>
<g id="a_edge8_Node000006_Node000009"><a xlink:title=" ">
<path fill="none" stroke="#63b8ff" d="M790.72,-59.61C724.41,-49.69 560.45,-25.16 492.98,-15.07"/>
<polygon fill="#63b8ff" stroke="#63b8ff" points="493.82,-11.66 483.41,-13.64 492.78,-18.58 493.82,-11.66"/>
</a>
</g>
</g>
<!-- Node6&#45;&gt;Node10 -->
<g id="edge9_Node000006_Node000010" class="edge">
<title>Node6&#45;&gt;Node10</title>
<g id="a_edge9_Node000006_Node000010"><a xlink:title=" ">
<path fill="none" stroke="#63b8ff" d="M847.75,-58.38C896.58,-48.95 996.48,-29.68 1053.29,-18.72"/>
<polygon fill="#63b8ff" stroke="#63b8ff" points="1053.75,-22.2 1062.9,-16.87 1052.42,-15.32 1053.75,-22.2"/>
</a>
</g>
</g>
<!-- Node11 -->
<g id="Node000011" class="node">
<title>Node11</title>
<g id="a_Node000011"><a xlink:title=" ">
<polygon fill="#e0e0e0" stroke="#999999" points="838.5,-19.25 800,-19.25 800,0 838.5,0 838.5,-19.25"/>
<text text-anchor="middle" x="819.25" y="-5.75" font-family="Helvetica,sans-Serif" font-size="10.00">utility</text>
</a>
</g>
</g>
<!-- Node6&#45;&gt;Node11 -->
<g id="edge10_Node000006_Node000011" class="edge">
<title>Node6&#45;&gt;Node11</title>
<g id="a_edge10_Node000006_Node000011"><a xlink:title=" ">
<path fill="none" stroke="#63b8ff" d="M819.25,-55.08C819.25,-48.57 819.25,-39.42 819.25,-31.12"/>
<polygon fill="#63b8ff" stroke="#63b8ff" points="822.75,-31.12 819.25,-21.12 815.75,-31.12 822.75,-31.12"/>
</a>
</g>
</g>
<!-- Node13&#45;&gt;Node6 -->
<g id="edge14_Node000013_Node000006" class="edge">
<title>Node13&#45;&gt;Node6</title>
<g id="a_edge14_Node000013_Node000006"><a xlink:title=" ">
<path fill="none" stroke="#63b8ff" d="M774.3,-115.81C782,-107.25 793.84,-94.1 803.43,-83.45"/>
<polygon fill="#63b8ff" stroke="#63b8ff" points="806.02,-85.8 810.11,-76.03 800.82,-81.12 806.02,-85.8"/>
</a>
</g>
</g>
<!-- Node14&#45;&gt;Node6 -->
<g id="edge16_Node000014_Node000006" class="edge">
<title>Node14&#45;&gt;Node6</title>
<g id="a_edge16_Node000014_Node000006"><a xlink:title=" ">
<path fill="none" stroke="#63b8ff" d="M863.35,-115.81C855.79,-107.25 844.18,-94.1 834.77,-83.45"/>
<polygon fill="#63b8ff" stroke="#63b8ff" points="837.47,-81.21 828.22,-76.04 832.22,-85.85 837.47,-81.21"/>
</a>
</g>
</g>
<!-- Node15&#45;&gt;Node6 -->
<g id="edge20_Node000015_Node000006" class="edge">
<title>Node15&#45;&gt;Node6</title>
<g id="a_edge20_Node000015_Node000006"><a xlink:title=" ">
<path fill="none" stroke="#63b8ff" d="M378.19,-115.68C387.71,-113.8 397.81,-111.96 407.25,-110.5 543.25,-89.53 706.01,-74.98 779.63,-68.97"/>
<polygon fill="#63b8ff" stroke="#63b8ff" points="779.47,-72.49 789.15,-68.2 778.91,-65.52 779.47,-72.49"/>
</a>
</g>
</g>
<!-- Node15&#45;&gt;Node9 -->
<g id="edge21_Node000015_Node000009" class="edge">
<title>Node15&#45;&gt;Node9</title>
<g id="a_edge21_Node000015_Node000009"><a xlink:title=" ">
<path fill="none" stroke="#63b8ff" d="M346.22,-115.79C367.55,-96.63 417.88,-51.39 445.07,-26.96"/>
<polygon fill="#63b8ff" stroke="#63b8ff" points="447.11,-29.84 452.21,-20.55 442.43,-24.63 447.11,-29.84"/>
</a>
</g>
</g>
<!-- Node16 -->
<g id="Node000016" class="node">
<title>Node16</title>
<g id="a_Node000016"><a xlink:href="function_8hpp.xhtml" target="_top" xlink:title=" ">
<polygon fill="white" stroke="#666666" points="370.5,-74.5 302,-74.5 302,-55.25 370.5,-55.25 370.5,-74.5"/>
<text text-anchor="middle" x="336.25" y="-61" font-family="Helvetica,sans-Serif" font-size="10.00">function.hpp</text>
</a>
</g>
</g>
<!-- Node15&#45;&gt;Node16 -->
<g id="edge18_Node000015_Node000016" class="edge">
<title>Node15&#45;&gt;Node16</title>
<g id="a_edge18_Node000015_Node000016"><a xlink:title=" ">
<path fill="none" stroke="#63b8ff" d="M336.25,-115.81C336.25,-108.03 336.25,-96.45 336.25,-86.41"/>
<polygon fill="#63b8ff" stroke="#63b8ff" points="339.75,-86.41 336.25,-76.41 332.75,-86.41 339.75,-86.41"/>
</a>
</g>
</g>
<!-- Node17 -->
<g id="Node000017" class="node">
<title>Node17</title>
<g id="a_Node000017"><a xlink:title=" ">
<polygon fill="#e0e0e0" stroke="#999999" points="361.5,-19.25 311,-19.25 311,0 361.5,0 361.5,-19.25"/>
<text text-anchor="middle" x="336.25" y="-5.75" font-family="Helvetica,sans-Serif" font-size="10.00">memory</text>
</a>
</g>
</g>
<!-- Node16&#45;&gt;Node17 -->
<g id="edge19_Node000016_Node000017" class="edge">
<title>Node16&#45;&gt;Node17</title>
<g id="a_edge19_Node000016_Node000017"><a xlink:title=" ">
<path fill="none" stroke="#63b8ff" d="M336.25,-55.08C336.25,-48.57 336.25,-39.42 336.25,-31.12"/>
<polygon fill="#63b8ff" stroke="#63b8ff" points="339.75,-31.12 336.25,-21.12 332.75,-31.12 339.75,-31.12"/>
</a>
</g>
</g>
<!-- Node18&#45;&gt;Node6 -->
<g id="edge24_Node000018_Node000006" class="edge">
<title>Node18&#45;&gt;Node6</title>
<g id="a_edge24_Node000018_Node000006"><a xlink:title=" ">
<path fill="none" stroke="#63b8ff" d="M496.58,-115.68C504.01,-113.82 511.87,-111.98 519.25,-110.5 611.74,-91.9 721.7,-77.48 779.39,-70.5"/>
<polygon fill="#63b8ff" stroke="#63b8ff" points="779.53,-74.01 789.04,-69.34 778.69,-67.05 779.53,-74.01"/>
</a>
</g>
</g>
<!-- Node18&#45;&gt;Node9 -->
<g id="edge25_Node000018_Node000009" class="edge">
<title>Node18&#45;&gt;Node9</title>
<g id="a_edge25_Node000018_Node000009"><a xlink:title=" ">
<path fill="none" stroke="#63b8ff" d="M463.25,-115.79C463.25,-97.63 463.25,-56.04 463.25,-30.95"/>
<polygon fill="#63b8ff" stroke="#63b8ff" points="466.75,-31.05 463.25,-21.05 459.75,-31.05 466.75,-31.05"/>
</a>
</g>
</g>
<!-- Node18&#45;&gt;Node16 -->
<g id="edge23_Node000018_Node000016" class="edge">
<title>Node18&#45;&gt;Node16</title>
<g id="a_edge23_Node000018_Node000016"><a xlink:title=" ">
<path fill="none" stroke="#63b8ff" d="M443.68,-115.68C422.93,-106.06 389.89,-90.74 365.92,-79.63"/>
<polygon fill="#63b8ff" stroke="#63b8ff" points="367.55,-76.53 357,-75.5 364.6,-82.88 367.55,-76.53"/>
</a>
</g>
</g>
<!-- Node19&#45;&gt;Node6 -->
<g id="edge27_Node000019_Node000006" class="edge">
<title>Node19&#45;&gt;Node6</title>
<g id="a_edge27_Node000019_Node000006"><a xlink:title=" ">
<path fill="none" stroke="#63b8ff" d="M947.83,-115.68C922.51,-105.87 881.89,-90.14 853.1,-78.98"/>
<polygon fill="#63b8ff" stroke="#63b8ff" points="854.69,-75.85 844.1,-75.5 852.17,-82.38 854.69,-75.85"/>
</a>
</g>
</g>
<!-- Node20&#45;&gt;Node6 -->
<g id="edge29_Node000020_Node000006" class="edge">
<title>Node20&#45;&gt;Node6</title>
<g id="a_edge29_Node000020_Node000006"><a xlink:title=" ">
<path fill="none" stroke="#63b8ff" d="M694.9,-115.68C719.35,-105.88 758.55,-90.19 786.39,-79.04"/>
<polygon fill="#63b8ff" stroke="#63b8ff" points="787.43,-82.39 795.41,-75.42 784.83,-75.89 787.43,-82.39"/>
</a>
</g>
</g>
<!-- Node21&#45;&gt;Node6 -->
<g id="edge32_Node000021_Node000006" class="edge">
<title>Node21&#45;&gt;Node6</title>
<g id="a_edge32_Node000021_Node000006"><a xlink:title=" ">
<path fill="none" stroke="#63b8ff" d="M605.28,-115.67C611.88,-113.91 618.78,-112.11 625.25,-110.5 678.39,-97.25 740.09,-83.3 779.38,-74.6"/>
<polygon fill="#63b8ff" stroke="#63b8ff" points="780.09,-78.03 789.1,-72.45 778.58,-71.19 780.09,-78.03"/>
</a>
</g>
</g>
<!-- Node21&#45;&gt;Node9 -->
<g id="edge33_Node000021_Node000009" class="edge">
<title>Node21&#45;&gt;Node9</title>
<g id="a_edge33_Node000021_Node000009"><a xlink:title=" ">
<path fill="none" stroke="#63b8ff" d="M563.7,-115.79C545.55,-96.79 502.93,-52.18 479.46,-27.6"/>
<polygon fill="#63b8ff" stroke="#63b8ff" points="482.25,-25.45 472.81,-20.63 477.18,-30.28 482.25,-25.45"/>
</a>
</g>
</g>
<!-- Node21&#45;&gt;Node16 -->
<g id="edge31_Node000021_Node000016" class="edge">
<title>Node21&#45;&gt;Node16</title>
<g id="a_edge31_Node000021_Node000016"><a xlink:title=" ">
<path fill="none" stroke="#63b8ff" d="M538.92,-115.66C532.4,-113.92 525.62,-112.13 519.25,-110.5 472.46,-98.51 418.73,-85.5 381.66,-76.63"/>
<polygon fill="#63b8ff" stroke="#63b8ff" points="382.72,-73.29 372.19,-74.38 381.1,-80.1 382.72,-73.29"/>
</a>
</g>
</g>
<!-- Node22&#45;&gt;Node6 -->
<g id="edge36_Node000022_Node000006" class="edge">
<title>Node22&#45;&gt;Node6</title>
<g id="a_edge36_Node000022_Node000006"><a xlink:title=" ">
<path fill="none" stroke="#63b8ff" d="M101.07,-115.67C110.89,-113.7 121.42,-111.81 131.25,-110.5 376.01,-77.8 673.08,-68.82 779.2,-66.57"/>
<polygon fill="#63b8ff" stroke="#63b8ff" points="779.16,-70.07 789.09,-66.37 779.02,-63.07 779.16,-70.07"/>
</a>
</g>
</g>
<!-- Node22&#45;&gt;Node9 -->
<g id="edge37_Node000022_Node000009" class="edge">
<title>Node22&#45;&gt;Node9</title>
<g id="a_edge37_Node000022_Node000009"><a xlink:title=" ">
<path fill="none" stroke="#63b8ff" d="M84,-115.68C120.37,-101.41 194.06,-73.48 258.25,-55.25 319.67,-37.81 393.09,-23.33 433.28,-15.93"/>
<polygon fill="#63b8ff" stroke="#63b8ff" points="433.7,-19.41 442.91,-14.18 432.45,-12.53 433.7,-19.41"/>
</a>
</g>
</g>
<!-- Node22&#45;&gt;Node16 -->
<g id="edge35_Node000022_Node000016" class="edge">
<title>Node22&#45;&gt;Node16</title>
<g id="a_edge35_Node000022_Node000016"><a xlink:title=" ">
<path fill="none" stroke="#63b8ff" d="M103.62,-115.68C154.18,-104.85 238.41,-86.82 290.45,-75.68"/>
<polygon fill="#63b8ff" stroke="#63b8ff" points="291.15,-79.11 300.19,-73.59 289.68,-72.27 291.15,-79.11"/>
</a>
</g>
</g>
<!-- Node23&#45;&gt;Node6 -->
<g id="edge40_Node000023_Node000006" class="edge">
<title>Node23&#45;&gt;Node6</title>
<g id="a_edge40_Node000023_Node000006"><a xlink:title=" ">
<path fill="none" stroke="#63b8ff" d="M255.91,-111.99C259.06,-111.45 262.19,-110.95 265.25,-110.5 456.46,-82.58 687.53,-71.04 779.09,-67.33"/>
<polygon fill="#63b8ff" stroke="#63b8ff" points="779.19,-70.83 789.05,-66.94 778.92,-63.83 779.19,-70.83"/>
</a>
</g>
</g>
<!-- Node23&#45;&gt;Node9 -->
<g id="edge41_Node000023_Node000009" class="edge">
<title>Node23&#45;&gt;Node9</title>
<g id="a_edge41_Node000023_Node000009"><a xlink:title=" ">
<path fill="none" stroke="#63b8ff" d="M214.19,-110.14C232.14,-94.42 262.8,-69.74 293.25,-55.25 339.46,-33.26 398.09,-20.93 433.03,-15.04"/>
<polygon fill="#63b8ff" stroke="#63b8ff" points="433.53,-18.5 442.85,-13.46 432.42,-11.59 433.53,-18.5"/>
</a>
</g>
</g>
<!-- Node23&#45;&gt;Node16 -->
<g id="edge39_Node000023_Node000016" class="edge">
<title>Node23&#45;&gt;Node16</title>
<g id="a_edge39_Node000023_Node000016"><a xlink:title=" ">
<path fill="none" stroke="#63b8ff" d="M232.72,-110.05C254.74,-100.65 283.1,-88.55 304.56,-79.39"/>
<polygon fill="#63b8ff" stroke="#63b8ff" points="305.87,-82.64 313.69,-75.5 303.12,-76.2 305.87,-82.64"/>
</a>
</g>
</g>
<!-- Node24&#45;&gt;Node6 -->
<g id="edge45_Node000024_Node000006" class="edge">
<title>Node24&#45;&gt;Node6</title>
<g id="a_edge45_Node000024_Node000006"><a xlink:title=" ">
<path fill="none" stroke="#63b8ff" d="M1207.6,-116.13C1111.57,-103.7 937.27,-81.15 859.08,-71.03"/>
<polygon fill="#63b8ff" stroke="#63b8ff" points="859.69,-67.58 849.32,-69.77 858.79,-74.52 859.69,-67.58"/>
</a>
</g>
</g>
<!-- Node24&#45;&gt;Node8 -->
<g id="edge46_Node000024_Node000008" class="edge">
<title>Node24&#45;&gt;Node8</title>
<g id="a_edge46_Node000024_Node000008"><a xlink:title=" ">
<path fill="none" stroke="#63b8ff" d="M1268.29,-115.79C1255.86,-97.13 1226.96,-53.73 1210.43,-28.91"/>
<polygon fill="#63b8ff" stroke="#63b8ff" points="1213.48,-27.18 1205.02,-20.8 1207.65,-31.06 1213.48,-27.18"/>
</a>
</g>
</g>
<!-- Node24&#45;&gt;Node9 -->
<g id="edge48_Node000024_Node000009" class="edge">
<title>Node24&#45;&gt;Node9</title>
<g id="a_edge48_Node000024_Node000009"><a xlink:title=" ">
<path fill="none" stroke="#63b8ff" d="M1249.86,-115.72C1207.48,-100.45 1117.22,-69.78 1038.25,-55.25 832.23,-17.35 578.92,-11.59 493.21,-10.75"/>
<polygon fill="#63b8ff" stroke="#63b8ff" points="493.34,-7.26 483.31,-10.67 493.29,-14.26 493.34,-7.26"/>
</a>
</g>
</g>
<!-- Node24&#45;&gt;Node25 -->
<g id="edge47_Node000024_Node000025" class="edge">
<title>Node24&#45;&gt;Node25</title>
<g id="a_edge47_Node000024_Node000025"><a xlink:title=" ">
<path fill="none" stroke="#63b8ff" d="M1278.2,-115.81C1281.75,-107.77 1287.09,-95.68 1291.62,-85.41"/>
<polygon fill="#63b8ff" stroke="#63b8ff" points="1294.81,-86.85 1295.65,-76.29 1288.41,-84.02 1294.81,-86.85"/>
</a>
</g>
</g>
<!-- Node27 -->
<g id="Node000027" class="node">
<title>Node27</title>
<g id="a_Node000027"><a xlink:title=" ">
<polygon fill="#e0e0e0" stroke="#999999" points="1393.62,-135.38 1358.88,-135.38 1358.88,-116.12 1393.62,-116.12 1393.62,-135.38"/>
<text text-anchor="middle" x="1376.25" y="-121.88" font-family="Helvetica,sans-Serif" font-size="10.00">print</text>
</a>
</g>
</g>
<!-- Node26&#45;&gt;Node27 -->
<g id="edge50_Node000026_Node000027" class="edge">
<title>Node26&#45;&gt;Node27</title>
<g id="a_edge50_Node000026_Node000027"><a xlink:title=" ">
<path fill="none" stroke="#63b8ff" d="M1300.77,-176.68C1314.62,-167.52 1336.43,-153.09 1353.05,-142.1"/>
<polygon fill="#63b8ff" stroke="#63b8ff" points="1354.93,-145.05 1361.34,-136.61 1351.07,-139.21 1354.93,-145.05"/>
</a>
</g>
</g>
</g>
</svg>

<g id="navigator" transform="translate(0 0)" fill="#404254">
  <rect fill="#f2f5e9" fill-opacity="0.5" stroke="#606060" stroke-width=".5" x="0" y="0" width="60" height="60"/>
  <use id="zoomplus" xlink:href="#zoomPlus" x="17" y="9" onmousedown="handleZoom(evt,'in')"/>
  <use id="zoomminus" xlink:href="#zoomMin" x="42" y="9" onmousedown="handleZoom(evt,'out')"/>
  <use id="reset" xlink:href="#resetDef" x="30" y="36" onmousedown="handleReset()"/>
   <use id="arrowup" xlink:href="#arrowUp" x="0" y="0" onmousedown="handlePan(0,-1)"/>
  <use id="arrowright" xlink:href="#arrowRight" x="0" y="0" onmousedown="handlePan(1,0)"/>
  <use id="arrowdown" xlink:href="#arrowDown" x="0" y="0" onmousedown="handlePan(0,1)"/>
  <use id="arrowleft" xlink:href="#arrowLeft" x="0" y="0" onmousedown="handlePan(-1,0)"/>
</g>
<svg viewBox="0 0 15 15" width="100%" height="30px" preserveAspectRatio="xMaxYMin meet">
 <g id="arrow_out" transform="scale(0.3 0.3)">
  <a xlink:href="kalman__format__arguments_8cpp__incl_org.svg" target="_base">
   <rect id="button" ry="5" rx="5" y="6" x="6" height="38" width="38"
        fill="#f2f5e9" fill-opacity="0.5" stroke="#606060" stroke-width="1.0"/>
   <path id="arrow"
     d="M 11.500037,31.436501 C 11.940474,20.09759 22.043105,11.32322 32.158766,21.979434 L 37.068811,17.246167 C 37.068811,17.246167 37.088388,32 37.088388,32 L 22.160133,31.978069 C 22.160133,31.978069 26.997745,27.140456 26.997745,27.140456 C 18.528582,18.264221 13.291696,25.230495 11.500037,31.436501 z"
     style="fill:#404040;"/>
  </a>
 </g>
</svg>

<style type='text/css'>
<![CDATA[
[data-mouse-over-selected='false'] { opacity: 0.7; }
[data-mouse-over-selected='true']  { opacity: 1.0; }
]]>
</style>
<script type="application/ecmascript"><![CDATA[
document.addEventListener('DOMContentLoaded', (event) => {
  highlightEdges();
  highlightAdjacentNodes();
});
]]></script>
</svg>
