<?xml version="1.0" encoding="UTF-8" standalone="no"?>
<!DOCTYPE svg PUBLIC "-//W3C//DTD SVG 1.1//EN"
 "http://www.w3.org/Graphics/SVG/1.1/DTD/svg11.dtd">
<!-- Generated by graphviz version 9.0.0 (20230911.1827)
 -->
<!-- Title: /github/workspace/test/kalman_println_1x1x0.cpp Pages: 1 -->
<svg width="1160pt" height="381pt"
 viewBox="0.00 0.00 1159.66 381.25" xmlns="http://www.w3.org/2000/svg" xmlns:xlink="http://www.w3.org/1999/xlink">
<g id="graph0" class="graph" transform="scale(1 1) rotate(0) translate(4 377.25)">
<title>/github/workspace/test/kalman_println_1x1x0.cpp</title>
<!-- Node1 -->
<g id="Node000001" class="node">
<title>Node1</title>
<g id="a_Node000001"><a xlink:title=" ">
<polygon fill="#999999" stroke="#666666" points="179.88,-373.25 49.88,-373.25 49.88,-342.75 179.88,-342.75 179.88,-373.25"/>
<text text-anchor="start" x="57.88" y="-359.75" font-family="Helvetica,sans-Serif" font-size="10.00">/github/workspace/test</text>
<text text-anchor="middle" x="114.88" y="-348.5" font-family="Helvetica,sans-Serif" font-size="10.00">/kalman_println_1x1x0.cpp</text>
</a>
</g>
</g>
<!-- Node2 -->
<g id="Node000002" class="node">
<title>Node2</title>
<g id="a_Node000002"><a xlink:href="kalman_8hpp.xhtml" target="_top" xlink:title="The Kalman filter class and library top&#45;level header.">
<polygon fill="white" stroke="#666666" points="167.88,-306.75 61.88,-306.75 61.88,-287.5 167.88,-287.5 167.88,-306.75"/>
<text text-anchor="middle" x="114.88" y="-293.25" font-family="Helvetica,sans-Serif" font-size="10.00">fcarouge/kalman.hpp</text>
</a>
</g>
</g>
<!-- Node1&#45;&gt;Node2 -->
<g id="edge1_Node000001_Node000002" class="edge">
<title>Node1&#45;&gt;Node2</title>
<g id="a_edge1_Node000001_Node000002"><a xlink:title=" ">
<path fill="none" stroke="#63b8ff" d="M114.88,-342.45C114.88,-335.21 114.88,-326.34 114.88,-318.44"/>
<polygon fill="#63b8ff" stroke="#63b8ff" points="118.38,-318.71 114.88,-308.71 111.38,-318.71 118.38,-318.71"/>
</a>
</g>
</g>
<!-- Node24 -->
<g id="Node000024" class="node">
<title>Node24</title>
<g id="a_Node000024"><a xlink:title=" ">
<polygon fill="#e0e0e0" stroke="#999999" points="156.25,-190.62 121.5,-190.62 121.5,-171.38 156.25,-171.38 156.25,-190.62"/>
<text text-anchor="middle" x="138.88" y="-177.12" font-family="Helvetica,sans-Serif" font-size="10.00">print</text>
</a>
</g>
</g>
<!-- Node1&#45;&gt;Node24 -->
<g id="edge47_Node000001_Node000024" class="edge">
<title>Node1&#45;&gt;Node24</title>
<g id="a_edge47_Node000001_Node000024"><a xlink:title=" ">
<path fill="none" stroke="#63b8ff" d="M85.92,-342.33C45.14,-319.69 -21.06,-274.43 8.88,-232.25 36.94,-192.71 67.42,-215.62 111.88,-196.25 112.1,-196.15 112.33,-196.05 112.55,-195.95"/>
<polygon fill="#63b8ff" stroke="#63b8ff" points="113.96,-199.16 121.43,-191.65 110.9,-192.86 113.96,-199.16"/>
</a>
</g>
</g>
<!-- Node26 -->
<g id="Node000026" class="node">
<title>Node26</title>
<g id="a_Node000026"><a xlink:title=" ">
<polygon fill="#e0e0e0" stroke="#999999" points="234,-306.75 185.75,-306.75 185.75,-287.5 234,-287.5 234,-306.75"/>
<text text-anchor="middle" x="209.88" y="-293.25" font-family="Helvetica,sans-Serif" font-size="10.00">cassert</text>
</a>
</g>
</g>
<!-- Node1&#45;&gt;Node26 -->
<g id="edge46_Node000001_Node000026" class="edge">
<title>Node1&#45;&gt;Node26</title>
<g id="a_edge46_Node000001_Node000026"><a xlink:title=" ">
<path fill="none" stroke="#63b8ff" d="M138.36,-342.45C152.68,-333.57 170.96,-322.24 185.46,-313.26"/>
<polygon fill="#63b8ff" stroke="#63b8ff" points="187.29,-316.24 193.94,-308 183.6,-310.29 187.29,-316.24"/>
</a>
</g>
</g>
<!-- Node3 -->
<g id="Node000003" class="node">
<title>Node3</title>
<g id="a_Node000003"><a xlink:href="format_8hpp.xhtml" target="_top" xlink:title="Formatting support for the Kalman filter.">
<polygon fill="white" stroke="#666666" points="102.75,-190.62 41,-190.62 41,-171.38 102.75,-171.38 102.75,-190.62"/>
<text text-anchor="middle" x="71.88" y="-177.12" font-family="Helvetica,sans-Serif" font-size="10.00">format.hpp</text>
</a>
</g>
</g>
<!-- Node2&#45;&gt;Node3 -->
<g id="edge2_Node000002_Node000003" class="edge">
<title>Node2&#45;&gt;Node3</title>
<g id="a_edge2_Node000002_Node000003"><a xlink:title=" ">
<path fill="none" stroke="#63b8ff" d="M62.9,-287.08C42.5,-280.71 21.08,-269.88 8.88,-251.5 -4.87,-230.79 20.16,-210.07 42.63,-196.72"/>
<polygon fill="#63b8ff" stroke="#63b8ff" points="44.28,-199.8 51.3,-191.86 40.86,-193.69 44.28,-199.8"/>
</a>
</g>
</g>
<!-- Node4 -->
<g id="Node000004" class="node">
<title>Node4</title>
<g id="a_Node000004"><a xlink:href="utility_8hpp.xhtml" target="_top" xlink:title="The collection of utilities supporting the library.">
<polygon fill="white" stroke="#666666" points="481.38,-129.75 384.38,-129.75 384.38,-110.5 481.38,-110.5 481.38,-129.75"/>
<text text-anchor="middle" x="432.88" y="-116.25" font-family="Helvetica,sans-Serif" font-size="10.00">fcarouge/utility.hpp</text>
</a>
</g>
</g>
<!-- Node2&#45;&gt;Node4 -->
<g id="edge44_Node000002_Node000004" class="edge">
<title>Node2&#45;&gt;Node4</title>
<g id="a_edge44_Node000002_Node000004"><a xlink:title=" ">
<path fill="none" stroke="#63b8ff" d="M144.52,-287.12C163.55,-280.04 187.65,-268.51 203.88,-251.5 232.64,-221.33 209.77,-192.34 241.88,-165.75 278.36,-135.54 331.58,-124.99 372.59,-121.65"/>
<polygon fill="#63b8ff" stroke="#63b8ff" points="372.82,-125.14 382.56,-120.97 372.35,-118.15 372.82,-125.14"/>
</a>
</g>
</g>
<!-- Node12 -->
<g id="Node000012" class="node">
<title>Node12</title>
<g id="a_Node000012"><a xlink:href="factory_8hpp.xhtml" target="_top" xlink:title=" ">
<polygon fill="white" stroke="#666666" points="650.75,-251.5 553,-251.5 553,-232.25 650.75,-232.25 650.75,-251.5"/>
<text text-anchor="middle" x="601.88" y="-238" font-family="Helvetica,sans-Serif" font-size="10.00">internal/factory.hpp</text>
</a>
</g>
</g>
<!-- Node2&#45;&gt;Node12 -->
<g id="edge14_Node000002_Node000012" class="edge">
<title>Node2&#45;&gt;Node12</title>
<g id="a_edge14_Node000002_Node000012"><a xlink:title=" ">
<path fill="none" stroke="#63b8ff" d="M168.29,-288.58C171.2,-288.2 174.07,-287.84 176.88,-287.5 306.51,-271.68 458.82,-256.52 541.32,-248.59"/>
<polygon fill="#63b8ff" stroke="#63b8ff" points="541.61,-252.08 551.23,-247.64 540.94,-245.11 541.61,-252.08"/>
</a>
</g>
</g>
<!-- Node23 -->
<g id="Node000023" class="node">
<title>Node23</title>
<g id="a_Node000023"><a xlink:href="printer_8hpp.xhtml" target="_top" xlink:title="Filter decoration support for printing operations.">
<polygon fill="white" stroke="#666666" points="194.38,-251.5 133.38,-251.5 133.38,-232.25 194.38,-232.25 194.38,-251.5"/>
<text text-anchor="middle" x="163.88" y="-238" font-family="Helvetica,sans-Serif" font-size="10.00">printer.hpp</text>
</a>
</g>
</g>
<!-- Node2&#45;&gt;Node23 -->
<g id="edge42_Node000002_Node000023" class="edge">
<title>Node2&#45;&gt;Node23</title>
<g id="a_edge42_Node000002_Node000023"><a xlink:title=" ">
<path fill="none" stroke="#63b8ff" d="M122.97,-287.33C129.73,-279.98 139.6,-269.26 147.94,-260.19"/>
<polygon fill="#63b8ff" stroke="#63b8ff" points="150.39,-262.7 154.58,-252.97 145.24,-257.96 150.39,-262.7"/>
</a>
</g>
</g>
<!-- Node25 -->
<g id="Node000025" class="node">
<title>Node25</title>
<g id="a_Node000025"><a xlink:title=" ">
<polygon fill="#e0e0e0" stroke="#999999" points="115.75,-251.5 18,-251.5 18,-232.25 115.75,-232.25 115.75,-251.5"/>
<text text-anchor="middle" x="66.88" y="-238" font-family="Helvetica,sans-Serif" font-size="10.00">internal/kalman.tpp</text>
</a>
</g>
</g>
<!-- Node2&#45;&gt;Node25 -->
<g id="edge45_Node000002_Node000025" class="edge">
<title>Node2&#45;&gt;Node25</title>
<g id="a_edge45_Node000002_Node000025"><a xlink:title=" ">
<path fill="none" stroke="#63b8ff" d="M106.95,-287.33C100.32,-279.98 90.66,-269.26 82.49,-260.19"/>
<polygon fill="#63b8ff" stroke="#63b8ff" points="85.28,-258.07 75.99,-252.98 80.08,-262.75 85.28,-258.07"/>
</a>
</g>
</g>
<!-- Node3&#45;&gt;Node4 -->
<g id="edge3_Node000003_Node000004" class="edge">
<title>Node3&#45;&gt;Node4</title>
<g id="a_edge3_Node000003_Node000004"><a xlink:title=" ">
<path fill="none" stroke="#63b8ff" d="M95.49,-170.91C101.12,-168.99 107.16,-167.13 112.88,-165.75 202.13,-144.24 308.06,-131.99 372.86,-125.96"/>
<polygon fill="#63b8ff" stroke="#63b8ff" points="372.92,-129.47 382.56,-125.07 372.29,-122.49 372.92,-129.47"/>
</a>
</g>
</g>
<!-- Node7 -->
<g id="Node000007" class="node">
<title>Node7</title>
<g id="a_Node000007"><a xlink:title=" ">
<polygon fill="#e0e0e0" stroke="#999999" points="134,-19.25 85.75,-19.25 85.75,0 134,0 134,-19.25"/>
<text text-anchor="middle" x="109.88" y="-5.75" font-family="Helvetica,sans-Serif" font-size="10.00">cstddef</text>
</a>
</g>
</g>
<!-- Node3&#45;&gt;Node7 -->
<g id="edge11_Node000003_Node000007" class="edge">
<title>Node3&#45;&gt;Node7</title>
<g id="a_edge11_Node000003_Node000007"><a xlink:title=" ">
<path fill="none" stroke="#63b8ff" d="M73.92,-170.89C79.85,-144.46 97.16,-67.29 105.41,-30.53"/>
<polygon fill="#63b8ff" stroke="#63b8ff" points="108.81,-31.37 107.58,-20.84 101.98,-29.84 108.81,-31.37"/>
</a>
</g>
</g>
<!-- Node8 -->
<g id="Node000008" class="node">
<title>Node8</title>
<g id="a_Node000008"><a xlink:title=" ">
<polygon fill="#e0e0e0" stroke="#999999" points="585.38,-19.25 548.38,-19.25 548.38,0 585.38,0 585.38,-19.25"/>
<text text-anchor="middle" x="566.88" y="-5.75" font-family="Helvetica,sans-Serif" font-size="10.00">tuple</text>
</a>
</g>
</g>
<!-- Node3&#45;&gt;Node8 -->
<g id="edge13_Node000003_Node000008" class="edge">
<title>Node3&#45;&gt;Node8</title>
<g id="a_edge13_Node000003_Node000008"><a xlink:title=" ">
<path fill="none" stroke="#63b8ff" d="M86.18,-171.03C123.47,-148.06 227.3,-86.75 321.88,-55.25 396.81,-30.29 489.55,-18.23 536.53,-13.37"/>
<polygon fill="#63b8ff" stroke="#63b8ff" points="536.87,-16.85 546.48,-12.38 536.18,-9.89 536.87,-16.85"/>
</a>
</g>
</g>
<!-- Node11 -->
<g id="Node000011" class="node">
<title>Node11</title>
<g id="a_Node000011"><a xlink:title=" ">
<polygon fill="#e0e0e0" stroke="#999999" points="43.75,-129.75 0,-129.75 0,-110.5 43.75,-110.5 43.75,-129.75"/>
<text text-anchor="middle" x="21.88" y="-116.25" font-family="Helvetica,sans-Serif" font-size="10.00">format</text>
</a>
</g>
</g>
<!-- Node3&#45;&gt;Node11 -->
<g id="edge12_Node000003_Node000011" class="edge">
<title>Node3&#45;&gt;Node11</title>
<g id="a_edge12_Node000003_Node000011"><a xlink:title=" ">
<path fill="none" stroke="#63b8ff" d="M64.28,-171.06C57.01,-162.5 45.85,-149.35 36.8,-138.7"/>
<polygon fill="#63b8ff" stroke="#63b8ff" points="39.66,-136.66 30.52,-131.3 34.33,-141.19 39.66,-136.66"/>
</a>
</g>
</g>
<!-- Node5 -->
<g id="Node000005" class="node">
<title>Node5</title>
<g id="a_Node000005"><a xlink:href="internal_2utility_8hpp.xhtml" target="_top" xlink:title=" ">
<polygon fill="white" stroke="#666666" points="421.38,-74.5 330.38,-74.5 330.38,-55.25 421.38,-55.25 421.38,-74.5"/>
<text text-anchor="middle" x="375.88" y="-61" font-family="Helvetica,sans-Serif" font-size="10.00">internal/utility.hpp</text>
</a>
</g>
</g>
<!-- Node4&#45;&gt;Node5 -->
<g id="edge4_Node000004_Node000005" class="edge">
<title>Node4&#45;&gt;Node5</title>
<g id="a_edge4_Node000004_Node000005"><a xlink:title=" ">
<path fill="none" stroke="#63b8ff" d="M423.21,-110.09C415.13,-102.55 403.41,-91.6 393.65,-82.48"/>
<polygon fill="#63b8ff" stroke="#63b8ff" points="396.2,-80.08 386.51,-75.81 391.43,-85.19 396.2,-80.08"/>
</a>
</g>
</g>
<!-- Node4&#45;&gt;Node7 -->
<g id="edge9_Node000004_Node000007" class="edge">
<title>Node4&#45;&gt;Node7</title>
<g id="a_edge9_Node000004_Node000007"><a xlink:title=" ">
<path fill="none" stroke="#63b8ff" d="M405.89,-110.06C347.68,-90.51 210.31,-44.36 145.24,-22.5"/>
<polygon fill="#63b8ff" stroke="#63b8ff" points="146.36,-19.19 135.77,-19.32 144.13,-25.82 146.36,-19.19"/>
</a>
</g>
</g>
<!-- Node10 -->
<g id="Node000010" class="node">
<title>Node10</title>
<g id="a_Node000010"><a xlink:title=" ">
<polygon fill="#e0e0e0" stroke="#999999" points="478.12,-74.5 439.62,-74.5 439.62,-55.25 478.12,-55.25 478.12,-74.5"/>
<text text-anchor="middle" x="458.88" y="-61" font-family="Helvetica,sans-Serif" font-size="10.00">utility</text>
</a>
</g>
</g>
<!-- Node4&#45;&gt;Node10 -->
<g id="edge10_Node000004_Node000010" class="edge">
<title>Node4&#45;&gt;Node10</title>
<g id="a_edge10_Node000004_Node000010"><a xlink:title=" ">
<path fill="none" stroke="#63b8ff" d="M437.17,-110.33C440.5,-103.51 445.24,-93.81 449.44,-85.2"/>
<polygon fill="#63b8ff" stroke="#63b8ff" points="452.58,-86.74 453.82,-76.22 446.29,-83.67 452.58,-86.74"/>
</a>
</g>
</g>
<!-- Node6 -->
<g id="Node000006" class="node">
<title>Node6</title>
<g id="a_Node000006"><a xlink:title=" ">
<polygon fill="#e0e0e0" stroke="#999999" points="305.75,-19.25 250,-19.25 250,0 305.75,0 305.75,-19.25"/>
<text text-anchor="middle" x="277.88" y="-5.75" font-family="Helvetica,sans-Serif" font-size="10.00">concepts</text>
</a>
</g>
</g>
<!-- Node5&#45;&gt;Node6 -->
<g id="edge5_Node000005_Node000006" class="edge">
<title>Node5&#45;&gt;Node6</title>
<g id="a_edge5_Node000005_Node000006"><a xlink:title=" ">
<path fill="none" stroke="#63b8ff" d="M359.25,-54.84C344.19,-46.66 321.73,-34.46 304.22,-24.94"/>
<polygon fill="#63b8ff" stroke="#63b8ff" points="306.37,-22.12 295.91,-20.43 303.03,-28.27 306.37,-22.12"/>
</a>
</g>
</g>
<!-- Node5&#45;&gt;Node7 -->
<g id="edge6_Node000005_Node000007" class="edge">
<title>Node5&#45;&gt;Node7</title>
<g id="a_edge6_Node000005_Node000007"><a xlink:title=" ">
<path fill="none" stroke="#63b8ff" d="M330.45,-54.78C278.09,-44.3 193.12,-27.29 145.36,-17.73"/>
<polygon fill="#63b8ff" stroke="#63b8ff" points="146.33,-14.35 135.84,-15.82 144.95,-21.22 146.33,-14.35"/>
</a>
</g>
</g>
<!-- Node5&#45;&gt;Node8 -->
<g id="edge7_Node000005_Node000008" class="edge">
<title>Node5&#45;&gt;Node8</title>
<g id="a_edge7_Node000005_Node000008"><a xlink:title=" ">
<path fill="none" stroke="#63b8ff" d="M408.28,-54.84C444.33,-44.79 502.09,-28.69 537.06,-18.94"/>
<polygon fill="#63b8ff" stroke="#63b8ff" points="537.83,-22.36 546.52,-16.3 535.95,-15.61 537.83,-22.36"/>
</a>
</g>
</g>
<!-- Node9 -->
<g id="Node000009" class="node">
<title>Node9</title>
<g id="a_Node000009"><a xlink:title=" ">
<polygon fill="#e0e0e0" stroke="#999999" points="1044.38,-19.25 983.38,-19.25 983.38,0 1044.38,0 1044.38,-19.25"/>
<text text-anchor="middle" x="1013.88" y="-5.75" font-family="Helvetica,sans-Serif" font-size="10.00">type_traits</text>
</a>
</g>
</g>
<!-- Node5&#45;&gt;Node9 -->
<g id="edge8_Node000005_Node000009" class="edge">
<title>Node5&#45;&gt;Node9</title>
<g id="a_edge8_Node000005_Node000009"><a xlink:title=" ">
<path fill="none" stroke="#63b8ff" d="M421.75,-56.4C424.84,-55.99 427.9,-55.6 430.88,-55.25 632.93,-31.71 875.89,-17.68 971.9,-12.7"/>
<polygon fill="#63b8ff" stroke="#63b8ff" points="971.82,-16.2 981.62,-12.2 971.46,-9.21 971.82,-16.2"/>
</a>
</g>
</g>
<!-- Node12&#45;&gt;Node6 -->
<g id="edge40_Node000012_Node000006" class="edge">
<title>Node12&#45;&gt;Node6</title>
<g id="a_edge40_Node000012_Node000006"><a xlink:title=" ">
<path fill="none" stroke="#63b8ff" d="M552.68,-238.34C458.92,-233 262.13,-219.17 241.88,-196.25 199.54,-148.34 242.46,-65.88 265.42,-29.18"/>
<polygon fill="#63b8ff" stroke="#63b8ff" points="268.22,-31.29 270.71,-20.99 262.34,-27.49 268.22,-31.29"/>
</a>
</g>
</g>
<!-- Node12&#45;&gt;Node9 -->
<g id="edge41_Node000012_Node000009" class="edge">
<title>Node12&#45;&gt;Node9</title>
<g id="a_edge41_Node000012_Node000009"><a xlink:title=" ">
<path fill="none" stroke="#63b8ff" d="M650.95,-240.48C776.96,-238.96 1104.34,-231.62 1136.88,-196.25 1188.8,-139.81 1086.38,-59.37 1037.65,-26.02"/>
<polygon fill="#63b8ff" stroke="#63b8ff" points="1039.65,-23.15 1029.4,-20.49 1035.75,-28.96 1039.65,-23.15"/>
</a>
</g>
</g>
<!-- Node13 -->
<g id="Node000013" class="node">
<title>Node13</title>
<g id="a_Node000013"><a xlink:href="type_8hpp.xhtml" target="_top" xlink:title=" ">
<polygon fill="white" stroke="#666666" points="1127.38,-190.62 1000.38,-190.62 1000.38,-171.38 1127.38,-171.38 1127.38,-190.62"/>
<text text-anchor="middle" x="1063.88" y="-177.12" font-family="Helvetica,sans-Serif" font-size="10.00">fcarouge/internal/type.hpp</text>
</a>
</g>
</g>
<!-- Node12&#45;&gt;Node13 -->
<g id="edge15_Node000012_Node000013" class="edge">
<title>Node12&#45;&gt;Node13</title>
<g id="a_edge15_Node000012_Node000013"><a xlink:title=" ">
<path fill="none" stroke="#63b8ff" d="M651.17,-236.47C725.17,-229.58 869.28,-215.06 990.88,-196.25 996.86,-195.32 1003.1,-194.26 1009.3,-193.14"/>
<polygon fill="#63b8ff" stroke="#63b8ff" points="1009.68,-196.63 1018.87,-191.35 1008.39,-189.75 1009.68,-196.63"/>
</a>
</g>
</g>
<!-- Node15 -->
<g id="Node000015" class="node">
<title>Node15</title>
<g id="a_Node000015"><a xlink:href="x__z__p__q__r__h__f_8hpp.xhtml" target="_top" xlink:title=" ">
<polygon fill="white" stroke="#666666" points="460.62,-196.25 365.12,-196.25 365.12,-165.75 460.62,-165.75 460.62,-196.25"/>
<text text-anchor="start" x="373.12" y="-182.75" font-family="Helvetica,sans-Serif" font-size="10.00">fcarouge/internal/x</text>
<text text-anchor="middle" x="412.88" y="-171.5" font-family="Helvetica,sans-Serif" font-size="10.00">_z_p_q_r_h_f.hpp</text>
</a>
</g>
</g>
<!-- Node12&#45;&gt;Node15 -->
<g id="edge19_Node000012_Node000015" class="edge">
<title>Node12&#45;&gt;Node15</title>
<g id="a_edge19_Node000012_Node000015"><a xlink:title=" ">
<path fill="none" stroke="#63b8ff" d="M572.76,-231.8C545.66,-223.36 504.5,-210.54 470.73,-200.02"/>
<polygon fill="#63b8ff" stroke="#63b8ff" points="472.08,-196.78 461.49,-197.14 470,-203.46 472.08,-196.78"/>
</a>
</g>
</g>
<!-- Node16 -->
<g id="Node000016" class="node">
<title>Node16</title>
<g id="a_Node000016"><a xlink:href="x__z__p__q__r__hh__us__ps_8hpp.xhtml" target="_top" xlink:title=" ">
<polygon fill="white" stroke="#666666" points="599,-196.25 478.75,-196.25 478.75,-165.75 599,-165.75 599,-196.25"/>
<text text-anchor="start" x="486.75" y="-182.75" font-family="Helvetica,sans-Serif" font-size="10.00">fcarouge/internal/x</text>
<text text-anchor="middle" x="538.88" y="-171.5" font-family="Helvetica,sans-Serif" font-size="10.00">_z_p_q_r_hh_us_ps.hpp</text>
</a>
</g>
</g>
<!-- Node12&#45;&gt;Node16 -->
<g id="edge21_Node000012_Node000016" class="edge">
<title>Node12&#45;&gt;Node16</title>
<g id="a_edge21_Node000012_Node000016"><a xlink:title=" ">
<path fill="none" stroke="#63b8ff" d="M592.31,-231.93C584.45,-224.59 572.99,-213.88 562.7,-204.26"/>
<polygon fill="#63b8ff" stroke="#63b8ff" points="565.23,-201.84 555.53,-197.57 560.45,-206.95 565.23,-201.84"/>
</a>
</g>
</g>
<!-- Node19 -->
<g id="Node000019" class="node">
<title>Node19</title>
<g id="a_Node000019"><a xlink:href="x__z__p__qq__rr__f_8hpp.xhtml" target="_top" xlink:title=" ">
<polygon fill="white" stroke="#666666" points="712.62,-196.25 617.12,-196.25 617.12,-165.75 712.62,-165.75 712.62,-196.25"/>
<text text-anchor="start" x="625.12" y="-182.75" font-family="Helvetica,sans-Serif" font-size="10.00">fcarouge/internal/x</text>
<text text-anchor="middle" x="664.88" y="-171.5" font-family="Helvetica,sans-Serif" font-size="10.00">_z_p_qq_rr_f.hpp</text>
</a>
</g>
</g>
<!-- Node12&#45;&gt;Node19 -->
<g id="edge26_Node000012_Node000019" class="edge">
<title>Node12&#45;&gt;Node19</title>
<g id="a_edge26_Node000012_Node000019"><a xlink:title=" ">
<path fill="none" stroke="#63b8ff" d="M611.44,-231.93C619.3,-224.59 630.76,-213.88 641.05,-204.26"/>
<polygon fill="#63b8ff" stroke="#63b8ff" points="643.3,-206.95 648.22,-197.57 638.52,-201.84 643.3,-206.95"/>
</a>
</g>
</g>
<!-- Node20 -->
<g id="Node000020" class="node">
<title>Node20</title>
<g id="a_Node000020"><a xlink:href="x__z__p__r__f_8hpp.xhtml" target="_top" xlink:title=" ">
<polygon fill="white" stroke="#666666" points="346.62,-196.25 251.12,-196.25 251.12,-165.75 346.62,-165.75 346.62,-196.25"/>
<text text-anchor="start" x="259.12" y="-182.75" font-family="Helvetica,sans-Serif" font-size="10.00">fcarouge/internal/x</text>
<text text-anchor="middle" x="298.88" y="-171.5" font-family="Helvetica,sans-Serif" font-size="10.00">_z_p_r_f.hpp</text>
</a>
</g>
</g>
<!-- Node12&#45;&gt;Node20 -->
<g id="edge30_Node000012_Node000020" class="edge">
<title>Node12&#45;&gt;Node20</title>
<g id="a_edge30_Node000012_Node000020"><a xlink:title=" ">
<path fill="none" stroke="#63b8ff" d="M552.68,-232.93C505.32,-225.06 431.42,-212.21 358.28,-196.68"/>
<polygon fill="#63b8ff" stroke="#63b8ff" points="359.02,-193.26 348.51,-194.59 357.55,-200.11 359.02,-193.26"/>
</a>
</g>
</g>
<!-- Node21 -->
<g id="Node000021" class="node">
<title>Node21</title>
<g id="a_Node000021"><a xlink:href="x__z__u__p__q__r__f__g__ps_8hpp.xhtml" target="_top" xlink:title=" ">
<polygon fill="white" stroke="#666666" points="981.88,-196.25 863.88,-196.25 863.88,-165.75 981.88,-165.75 981.88,-196.25"/>
<text text-anchor="start" x="871.88" y="-182.75" font-family="Helvetica,sans-Serif" font-size="10.00">fcarouge/internal/x</text>
<text text-anchor="middle" x="922.88" y="-171.5" font-family="Helvetica,sans-Serif" font-size="10.00">_z_u_p_q_r_f_g_ps.hpp</text>
</a>
</g>
</g>
<!-- Node12&#45;&gt;Node21 -->
<g id="edge32_Node000012_Node000021" class="edge">
<title>Node12&#45;&gt;Node21</title>
<g id="a_edge32_Node000012_Node000021"><a xlink:title=" ">
<path fill="none" stroke="#63b8ff" d="M650.93,-232.7C699.58,-224.49 776.51,-211.21 852.38,-196.7"/>
<polygon fill="#63b8ff" stroke="#63b8ff" points="852.91,-200.16 862.07,-194.83 851.59,-193.28 852.91,-200.16"/>
</a>
</g>
</g>
<!-- Node22 -->
<g id="Node000022" class="node">
<title>Node22</title>
<g id="a_Node000022"><a xlink:href="x__z__u__p__q__r__us__ps_8hpp.xhtml" target="_top" xlink:title=" ">
<polygon fill="white" stroke="#666666" points="845.38,-196.25 730.38,-196.25 730.38,-165.75 845.38,-165.75 845.38,-196.25"/>
<text text-anchor="start" x="738.38" y="-182.75" font-family="Helvetica,sans-Serif" font-size="10.00">fcarouge/internal/x</text>
<text text-anchor="middle" x="787.88" y="-171.5" font-family="Helvetica,sans-Serif" font-size="10.00">_z_u_p_q_r_us_ps.hpp</text>
</a>
</g>
</g>
<!-- Node12&#45;&gt;Node22 -->
<g id="edge36_Node000012_Node000022" class="edge">
<title>Node12&#45;&gt;Node22</title>
<g id="a_edge36_Node000012_Node000022"><a xlink:title=" ">
<path fill="none" stroke="#63b8ff" d="M630.53,-231.8C657.08,-223.4 697.35,-210.65 730.51,-200.16"/>
<polygon fill="#63b8ff" stroke="#63b8ff" points="731.53,-203.51 740.01,-197.15 729.42,-196.83 731.53,-203.51"/>
</a>
</g>
</g>
<!-- Node13&#45;&gt;Node4 -->
<g id="edge16_Node000013_Node000004" class="edge">
<title>Node13&#45;&gt;Node4</title>
<g id="a_edge16_Node000013_Node000004"><a xlink:title=" ">
<path fill="none" stroke="#63b8ff" d="M1021.55,-170.9C1011.53,-168.98 1000.85,-167.12 990.88,-165.75 810.55,-141.02 595.43,-128.59 492.93,-123.7"/>
<polygon fill="#63b8ff" stroke="#63b8ff" points="493.25,-120.21 483.1,-123.24 492.93,-127.2 493.25,-120.21"/>
</a>
</g>
</g>
<!-- Node13&#45;&gt;Node9 -->
<g id="edge18_Node000013_Node000009" class="edge">
<title>Node13&#45;&gt;Node9</title>
<g id="a_edge18_Node000013_Node000009"><a xlink:title=" ">
<path fill="none" stroke="#63b8ff" d="M1056.74,-170.95C1049.53,-161.31 1038.65,-145.32 1032.88,-129.75 1020.52,-96.46 1016.2,-55.02 1014.68,-30.82"/>
<polygon fill="#63b8ff" stroke="#63b8ff" points="1018.19,-30.92 1014.19,-21.11 1011.2,-31.27 1018.19,-30.92"/>
</a>
</g>
</g>
<!-- Node14 -->
<g id="Node000014" class="node">
<title>Node14</title>
<g id="a_Node000014"><a xlink:title=" ">
<polygon fill="#e0e0e0" stroke="#999999" points="1113.62,-129.75 1042.12,-129.75 1042.12,-110.5 1113.62,-110.5 1113.62,-129.75"/>
<text text-anchor="middle" x="1077.88" y="-116.25" font-family="Helvetica,sans-Serif" font-size="10.00">initializer_list</text>
</a>
</g>
</g>
<!-- Node13&#45;&gt;Node14 -->
<g id="edge17_Node000013_Node000014" class="edge">
<title>Node13&#45;&gt;Node14</title>
<g id="a_edge17_Node000013_Node000014"><a xlink:title=" ">
<path fill="none" stroke="#63b8ff" d="M1066,-171.06C1067.87,-163.19 1070.66,-151.45 1073.07,-141.32"/>
<polygon fill="#63b8ff" stroke="#63b8ff" points="1076.47,-142.16 1075.38,-131.62 1069.66,-140.54 1076.47,-142.16"/>
</a>
</g>
</g>
<!-- Node15&#45;&gt;Node4 -->
<g id="edge20_Node000015_Node000004" class="edge">
<title>Node15&#45;&gt;Node4</title>
<g id="a_edge20_Node000015_Node000004"><a xlink:title=" ">
<path fill="none" stroke="#63b8ff" d="M417.82,-165.45C420.34,-158.03 423.44,-148.91 426.17,-140.88"/>
<polygon fill="#63b8ff" stroke="#63b8ff" points="429.4,-142.23 429.3,-131.63 422.77,-139.98 429.4,-142.23"/>
</a>
</g>
</g>
<!-- Node16&#45;&gt;Node4 -->
<g id="edge22_Node000016_Node000004" class="edge">
<title>Node16&#45;&gt;Node4</title>
<g id="a_edge22_Node000016_Node000004"><a xlink:title=" ">
<path fill="none" stroke="#63b8ff" d="M512.4,-165.3C496.1,-156.24 475.3,-144.69 459.05,-135.66"/>
<polygon fill="#63b8ff" stroke="#63b8ff" points="460.9,-132.68 450.45,-130.89 457.5,-138.8 460.9,-132.68"/>
</a>
</g>
</g>
<!-- Node16&#45;&gt;Node8 -->
<g id="edge25_Node000016_Node000008" class="edge">
<title>Node16&#45;&gt;Node8</title>
<g id="a_edge25_Node000016_Node000008"><a xlink:title=" ">
<path fill="none" stroke="#63b8ff" d="M541.31,-165.27C546.34,-134.87 557.85,-65.19 563.55,-30.71"/>
<polygon fill="#63b8ff" stroke="#63b8ff" points="566.94,-31.67 565.12,-21.23 560.04,-30.52 566.94,-31.67"/>
</a>
</g>
</g>
<!-- Node17 -->
<g id="Node000017" class="node">
<title>Node17</title>
<g id="a_Node000017"><a xlink:href="function_8hpp.xhtml" target="_top" xlink:title=" ">
<polygon fill="white" stroke="#666666" points="714.12,-129.75 645.62,-129.75 645.62,-110.5 714.12,-110.5 714.12,-129.75"/>
<text text-anchor="middle" x="679.88" y="-116.25" font-family="Helvetica,sans-Serif" font-size="10.00">function.hpp</text>
</a>
</g>
</g>
<!-- Node16&#45;&gt;Node17 -->
<g id="edge23_Node000016_Node000017" class="edge">
<title>Node16&#45;&gt;Node17</title>
<g id="a_edge23_Node000016_Node000017"><a xlink:title=" ">
<path fill="none" stroke="#63b8ff" d="M574.09,-165.3C596.7,-155.85 625.83,-143.69 647.8,-134.52"/>
<polygon fill="#63b8ff" stroke="#63b8ff" points="648.98,-137.82 656.85,-130.74 646.28,-131.36 648.98,-137.82"/>
</a>
</g>
</g>
<!-- Node18 -->
<g id="Node000018" class="node">
<title>Node18</title>
<g id="a_Node000018"><a xlink:title=" ">
<polygon fill="#e0e0e0" stroke="#999999" points="705.12,-74.5 654.62,-74.5 654.62,-55.25 705.12,-55.25 705.12,-74.5"/>
<text text-anchor="middle" x="679.88" y="-61" font-family="Helvetica,sans-Serif" font-size="10.00">memory</text>
</a>
</g>
</g>
<!-- Node17&#45;&gt;Node18 -->
<g id="edge24_Node000017_Node000018" class="edge">
<title>Node17&#45;&gt;Node18</title>
<g id="a_edge24_Node000017_Node000018"><a xlink:title=" ">
<path fill="none" stroke="#63b8ff" d="M679.88,-110.33C679.88,-103.82 679.88,-94.67 679.88,-86.37"/>
<polygon fill="#63b8ff" stroke="#63b8ff" points="683.38,-86.37 679.88,-76.37 676.38,-86.37 683.38,-86.37"/>
</a>
</g>
</g>
<!-- Node19&#45;&gt;Node4 -->
<g id="edge27_Node000019_Node000004" class="edge">
<title>Node19&#45;&gt;Node4</title>
<g id="a_edge27_Node000019_Node000004"><a xlink:title=" ">
<path fill="none" stroke="#63b8ff" d="M616.8,-167.8C576.61,-157.6 519.62,-143.14 479.77,-133.02"/>
<polygon fill="#63b8ff" stroke="#63b8ff" points="480.77,-129.67 470.22,-130.6 479.05,-136.45 480.77,-129.67"/>
</a>
</g>
</g>
<!-- Node19&#45;&gt;Node8 -->
<g id="edge29_Node000019_Node000008" class="edge">
<title>Node19&#45;&gt;Node8</title>
<g id="a_edge29_Node000019_Node000008"><a xlink:title=" ">
<path fill="none" stroke="#63b8ff" d="M656.35,-165.27C638.53,-134.47 597.38,-63.35 577.72,-29.37"/>
<polygon fill="#63b8ff" stroke="#63b8ff" points="580.94,-27.95 572.9,-21.05 574.88,-31.45 580.94,-27.95"/>
</a>
</g>
</g>
<!-- Node19&#45;&gt;Node17 -->
<g id="edge28_Node000019_Node000017" class="edge">
<title>Node19&#45;&gt;Node17</title>
<g id="a_edge28_Node000019_Node000017"><a xlink:title=" ">
<path fill="none" stroke="#63b8ff" d="M668.58,-165.45C670.45,-158.12 672.74,-149.12 674.77,-141.16"/>
<polygon fill="#63b8ff" stroke="#63b8ff" points="678.11,-142.22 677.19,-131.67 671.33,-140.49 678.11,-142.22"/>
</a>
</g>
</g>
<!-- Node20&#45;&gt;Node4 -->
<g id="edge31_Node000020_Node000004" class="edge">
<title>Node20&#45;&gt;Node4</title>
<g id="a_edge31_Node000020_Node000004"><a xlink:title=" ">
<path fill="none" stroke="#63b8ff" d="M332.34,-165.3C353.63,-155.94 381.01,-143.91 401.82,-134.77"/>
<polygon fill="#63b8ff" stroke="#63b8ff" points="403.19,-137.99 410.94,-130.76 400.38,-131.58 403.19,-137.99"/>
</a>
</g>
</g>
<!-- Node21&#45;&gt;Node4 -->
<g id="edge33_Node000021_Node000004" class="edge">
<title>Node21&#45;&gt;Node4</title>
<g id="a_edge33_Node000021_Node000004"><a xlink:title=" ">
<path fill="none" stroke="#63b8ff" d="M863.6,-167.21C860.66,-166.69 857.73,-166.2 854.88,-165.75 726.76,-145.61 575.3,-132.06 493.18,-125.57"/>
<polygon fill="#63b8ff" stroke="#63b8ff" points="493.57,-122.09 483.33,-124.8 493.03,-129.07 493.57,-122.09"/>
</a>
</g>
</g>
<!-- Node21&#45;&gt;Node8 -->
<g id="edge35_Node000021_Node000008" class="edge">
<title>Node21&#45;&gt;Node8</title>
<g id="a_edge35_Node000021_Node000008"><a xlink:title=" ">
<path fill="none" stroke="#63b8ff" d="M905.34,-165.25C873.69,-139.35 804.04,-85.55 736.88,-55.25 690.22,-34.21 631.73,-21.58 596.93,-15.38"/>
<polygon fill="#63b8ff" stroke="#63b8ff" points="597.61,-11.94 587.17,-13.7 596.43,-18.84 597.61,-11.94"/>
</a>
</g>
</g>
<!-- Node21&#45;&gt;Node17 -->
<g id="edge34_Node000021_Node000017" class="edge">
<title>Node21&#45;&gt;Node17</title>
<g id="a_edge34_Node000021_Node000017"><a xlink:title=" ">
<path fill="none" stroke="#63b8ff" d="M863.43,-165.6C820.85,-155.28 764.36,-141.59 725.35,-132.14"/>
<polygon fill="#63b8ff" stroke="#63b8ff" points="726.35,-128.78 715.81,-129.83 724.7,-135.59 726.35,-128.78"/>
</a>
</g>
</g>
<!-- Node22&#45;&gt;Node4 -->
<g id="edge37_Node000022_Node000004" class="edge">
<title>Node22&#45;&gt;Node4</title>
<g id="a_edge37_Node000022_Node000004"><a xlink:title=" ">
<path fill="none" stroke="#63b8ff" d="M729.97,-167.29C727.23,-166.76 724.53,-166.24 721.88,-165.75 643.13,-151.18 551.71,-137.63 493.12,-129.36"/>
<polygon fill="#63b8ff" stroke="#63b8ff" points="493.75,-125.92 483.36,-127.99 492.77,-132.85 493.75,-125.92"/>
</a>
</g>
</g>
<!-- Node22&#45;&gt;Node8 -->
<g id="edge39_Node000022_Node000008" class="edge">
<title>Node22&#45;&gt;Node8</title>
<g id="a_edge39_Node000022_Node000008"><a xlink:title=" ">
<path fill="none" stroke="#63b8ff" d="M783.16,-165.29C774.05,-139.19 751.52,-84.78 713.88,-55.25 679.45,-28.25 628.78,-17.53 596.82,-13.31"/>
<polygon fill="#63b8ff" stroke="#63b8ff" points="597.41,-9.86 587.07,-12.17 596.59,-16.81 597.41,-9.86"/>
</a>
</g>
</g>
<!-- Node22&#45;&gt;Node17 -->
<g id="edge38_Node000022_Node000017" class="edge">
<title>Node22&#45;&gt;Node17</title>
<g id="a_edge38_Node000022_Node000017"><a xlink:title=" ">
<path fill="none" stroke="#63b8ff" d="M760.9,-165.3C744.3,-156.24 723.1,-144.69 706.55,-135.66"/>
<polygon fill="#63b8ff" stroke="#63b8ff" points="708.22,-132.59 697.77,-130.88 704.87,-138.74 708.22,-132.59"/>
</a>
</g>
</g>
<!-- Node23&#45;&gt;Node24 -->
<g id="edge43_Node000023_Node000024" class="edge">
<title>Node23&#45;&gt;Node24</title>
<g id="a_edge43_Node000023_Node000024"><a xlink:title=" ">
<path fill="none" stroke="#63b8ff" d="M160.08,-231.93C156.66,-223.89 151.53,-211.8 147.17,-201.53"/>
<polygon fill="#63b8ff" stroke="#63b8ff" points="150.43,-200.26 143.3,-192.42 143.99,-202.99 150.43,-200.26"/>
</a>
</g>
</g>
</g>
</svg>
