<?xml version="1.0" encoding="UTF-8" standalone="no"?>
<!DOCTYPE svg PUBLIC "-//W3C//DTD SVG 1.1//EN"
 "http://www.w3.org/Graphics/SVG/1.1/DTD/svg11.dtd">
<!-- Generated by graphviz version 9.0.0 (20230911.1827)
 -->
<!-- Title: /github/workspace/test/kalman_constructor_default_5x4x3.cpp Pages: 1 -->
<svg width="1190pt" height="393pt"
 viewBox="0.00 0.00 1190.12 392.50" xmlns="http://www.w3.org/2000/svg" xmlns:xlink="http://www.w3.org/1999/xlink">
<g id="graph0" class="graph" transform="scale(1 1) rotate(0) translate(4 388.5)">
<title>/github/workspace/test/kalman_constructor_default_5x4x3.cpp</title>
<!-- Node1 -->
<g id="Node000001" class="node">
<title>Node1</title>
<g id="a_Node000001"><a xlink:title=" ">
<polygon fill="#999999" stroke="#666666" points="1136.5,-384.5 997.5,-384.5 997.5,-342.75 1136.5,-342.75 1136.5,-384.5"/>
<text text-anchor="start" x="1005.5" y="-371" font-family="Helvetica,sans-Serif" font-size="10.00">/github/workspace/test</text>
<text text-anchor="start" x="1005.5" y="-359.75" font-family="Helvetica,sans-Serif" font-size="10.00">/kalman_constructor_default</text>
<text text-anchor="middle" x="1067" y="-348.5" font-family="Helvetica,sans-Serif" font-size="10.00">_5x4x3.cpp</text>
</a>
</g>
</g>
<!-- Node2 -->
<g id="Node000002" class="node">
<title>Node2</title>
<g id="a_Node000002"><a xlink:href="kalman_8hpp.xhtml" target="_top" xlink:title="The Kalman filter class and library top&#45;level header.">
<polygon fill="white" stroke="#666666" points="1000,-306.75 894,-306.75 894,-287.5 1000,-287.5 1000,-306.75"/>
<text text-anchor="middle" x="947" y="-293.25" font-family="Helvetica,sans-Serif" font-size="10.00">fcarouge/kalman.hpp</text>
</a>
</g>
</g>
<!-- Node1&#45;&gt;Node2 -->
<g id="edge1_Node000001_Node000002" class="edge">
<title>Node1&#45;&gt;Node2</title>
<g id="a_edge1_Node000001_Node000002"><a xlink:title=" ">
<path fill="none" stroke="#63b8ff" d="M1029.36,-342.39C1011.32,-332.7 990.13,-321.31 973.76,-312.51"/>
<polygon fill="#63b8ff" stroke="#63b8ff" points="975.58,-309.51 965.11,-307.86 972.26,-315.68 975.58,-309.51"/>
</a>
</g>
</g>
<!-- Node25 -->
<g id="Node000025" class="node">
<title>Node25</title>
<g id="a_Node000025"><a xlink:title=" ">
<polygon fill="#e0e0e0" stroke="#999999" points="1115.5,-306.75 1018.5,-306.75 1018.5,-287.5 1115.5,-287.5 1115.5,-306.75"/>
<text text-anchor="middle" x="1067" y="-293.25" font-family="Helvetica,sans-Serif" font-size="10.00">fcarouge/linalg.hpp</text>
</a>
</g>
</g>
<!-- Node1&#45;&gt;Node25 -->
<g id="edge44_Node000001_Node000025" class="edge">
<title>Node1&#45;&gt;Node25</title>
<g id="a_edge44_Node000001_Node000025"><a xlink:title=" ">
<path fill="none" stroke="#63b8ff" d="M1067,-342.57C1067,-334.9 1067,-326.14 1067,-318.45"/>
<polygon fill="#63b8ff" stroke="#63b8ff" points="1070.5,-318.71 1067,-308.71 1063.5,-318.71 1070.5,-318.71"/>
</a>
</g>
</g>
<!-- Node26 -->
<g id="Node000026" class="node">
<title>Node26</title>
<g id="a_Node000026"><a xlink:title=" ">
<polygon fill="#e0e0e0" stroke="#999999" points="1182.12,-306.75 1133.88,-306.75 1133.88,-287.5 1182.12,-287.5 1182.12,-306.75"/>
<text text-anchor="middle" x="1158" y="-293.25" font-family="Helvetica,sans-Serif" font-size="10.00">cassert</text>
</a>
</g>
</g>
<!-- Node1&#45;&gt;Node26 -->
<g id="edge45_Node000001_Node000026" class="edge">
<title>Node1&#45;&gt;Node26</title>
<g id="a_edge45_Node000001_Node000026"><a xlink:title=" ">
<path fill="none" stroke="#63b8ff" d="M1095.29,-342.57C1108.47,-333.23 1123.9,-322.3 1136.16,-313.61"/>
<polygon fill="#63b8ff" stroke="#63b8ff" points="1137.83,-316.71 1143.97,-308.07 1133.79,-311 1137.83,-316.71"/>
</a>
</g>
</g>
<!-- Node3 -->
<g id="Node000003" class="node">
<title>Node3</title>
<g id="a_Node000003"><a xlink:href="factory_8hpp.xhtml" target="_top" xlink:title=" ">
<polygon fill="white" stroke="#666666" points="618.88,-251.5 521.12,-251.5 521.12,-232.25 618.88,-232.25 618.88,-251.5"/>
<text text-anchor="middle" x="570" y="-238" font-family="Helvetica,sans-Serif" font-size="10.00">internal/factory.hpp</text>
</a>
</g>
</g>
<!-- Node2&#45;&gt;Node3 -->
<g id="edge2_Node000002_Node000003" class="edge">
<title>Node2&#45;&gt;Node3</title>
<g id="a_edge2_Node000002_Node000003"><a xlink:title=" ">
<path fill="none" stroke="#63b8ff" d="M893.78,-288.61C824.43,-278.81 703.42,-261.72 630.6,-251.44"/>
<polygon fill="#63b8ff" stroke="#63b8ff" points="631.24,-247.99 620.85,-250.06 630.26,-254.92 631.24,-247.99"/>
</a>
</g>
</g>
<!-- Node5 -->
<g id="Node000005" class="node">
<title>Node5</title>
<g id="a_Node000005"><a xlink:href="utility_8hpp.xhtml" target="_top" xlink:title="The collection of utilities supporting the library.">
<polygon fill="white" stroke="#666666" points="657.5,-129.75 560.5,-129.75 560.5,-110.5 657.5,-110.5 657.5,-129.75"/>
<text text-anchor="middle" x="609" y="-116.25" font-family="Helvetica,sans-Serif" font-size="10.00">fcarouge/utility.hpp</text>
</a>
</g>
</g>
<!-- Node2&#45;&gt;Node5 -->
<g id="edge42_Node000002_Node000005" class="edge">
<title>Node2&#45;&gt;Node5</title>
<g id="a_edge42_Node000002_Node000005"><a xlink:title=" ">
<path fill="none" stroke="#63b8ff" d="M935.1,-287.12C912.15,-269.71 860.2,-230.18 817,-196.25 799.97,-182.87 798.34,-175.49 779,-165.75 744.48,-148.36 702.49,-137.26 668.89,-130.47"/>
<polygon fill="#63b8ff" stroke="#63b8ff" points="669.8,-127.08 659.32,-128.62 668.47,-133.96 669.8,-127.08"/>
</a>
</g>
</g>
<!-- Node20 -->
<g id="Node000020" class="node">
<title>Node20</title>
<g id="a_Node000020"><a xlink:href="format_8hpp.xhtml" target="_top" xlink:title=" ">
<polygon fill="white" stroke="#666666" points="1106.12,-190.62 1009.88,-190.62 1009.88,-171.38 1106.12,-171.38 1106.12,-190.62"/>
<text text-anchor="middle" x="1058" y="-177.12" font-family="Helvetica,sans-Serif" font-size="10.00">internal/format.hpp</text>
</a>
</g>
</g>
<!-- Node2&#45;&gt;Node20 -->
<g id="edge35_Node000002_Node000020" class="edge">
<title>Node2&#45;&gt;Node20</title>
<g id="a_edge35_Node000002_Node000020"><a xlink:title=" ">
<path fill="none" stroke="#63b8ff" d="M947.53,-287.3C948.74,-274 952.76,-248.62 966,-232.25 979.58,-215.45 1000.35,-203.43 1018.72,-195.36"/>
<polygon fill="#63b8ff" stroke="#63b8ff" points="1019.86,-198.68 1027.78,-191.64 1017.2,-192.2 1019.86,-198.68"/>
</a>
</g>
</g>
<!-- Node22 -->
<g id="Node000022" class="node">
<title>Node22</title>
<g id="a_Node000022"><a xlink:href="printer_8hpp.xhtml" target="_top" xlink:title=" ">
<polygon fill="white" stroke="#666666" points="1036.5,-251.5 975.5,-251.5 975.5,-232.25 1036.5,-232.25 1036.5,-251.5"/>
<text text-anchor="middle" x="1006" y="-238" font-family="Helvetica,sans-Serif" font-size="10.00">printer.hpp</text>
</a>
</g>
</g>
<!-- Node2&#45;&gt;Node22 -->
<g id="edge40_Node000002_Node000022" class="edge">
<title>Node2&#45;&gt;Node22</title>
<g id="a_edge40_Node000002_Node000022"><a xlink:title=" ">
<path fill="none" stroke="#63b8ff" d="M957.01,-287.09C965.37,-279.55 977.5,-268.6 987.6,-259.48"/>
<polygon fill="#63b8ff" stroke="#63b8ff" points="989.94,-262.09 995.02,-252.79 985.25,-256.89 989.94,-262.09"/>
</a>
</g>
</g>
<!-- Node24 -->
<g id="Node000024" class="node">
<title>Node24</title>
<g id="a_Node000024"><a xlink:title=" ">
<polygon fill="#e0e0e0" stroke="#999999" points="1151.88,-251.5 1054.12,-251.5 1054.12,-232.25 1151.88,-232.25 1151.88,-251.5"/>
<text text-anchor="middle" x="1103" y="-238" font-family="Helvetica,sans-Serif" font-size="10.00">internal/kalman.tpp</text>
</a>
</g>
</g>
<!-- Node2&#45;&gt;Node24 -->
<g id="edge43_Node000002_Node000024" class="edge">
<title>Node2&#45;&gt;Node24</title>
<g id="a_edge43_Node000002_Node000024"><a xlink:title=" ">
<path fill="none" stroke="#63b8ff" d="M973.46,-287.09C998.79,-278.45 1037.23,-265.32 1065.67,-255.62"/>
<polygon fill="#63b8ff" stroke="#63b8ff" points="1066.64,-258.98 1074.97,-252.44 1064.38,-252.36 1066.64,-258.98"/>
</a>
</g>
</g>
<!-- Node4 -->
<g id="Node000004" class="node">
<title>Node4</title>
<g id="a_Node000004"><a xlink:href="type_8hpp.xhtml" target="_top" xlink:title=" ">
<polygon fill="white" stroke="#666666" points="953.5,-190.62 826.5,-190.62 826.5,-171.38 953.5,-171.38 953.5,-190.62"/>
<text text-anchor="middle" x="890" y="-177.12" font-family="Helvetica,sans-Serif" font-size="10.00">fcarouge/internal/type.hpp</text>
</a>
</g>
</g>
<!-- Node3&#45;&gt;Node4 -->
<g id="edge3_Node000003_Node000004" class="edge">
<title>Node3&#45;&gt;Node4</title>
<g id="a_edge3_Node000003_Node000004"><a xlink:title=" ">
<path fill="none" stroke="#63b8ff" d="M619.3,-231.8C675.91,-221.39 768.78,-204.3 829.67,-193.1"/>
<polygon fill="#63b8ff" stroke="#63b8ff" points="829.96,-196.61 839.16,-191.35 828.69,-189.72 829.96,-196.61"/>
</a>
</g>
</g>
<!-- Node7 -->
<g id="Node000007" class="node">
<title>Node7</title>
<g id="a_Node000007"><a xlink:title=" ">
<polygon fill="#e0e0e0" stroke="#999999" points="598.88,-19.25 543.12,-19.25 543.12,0 598.88,0 598.88,-19.25"/>
<text text-anchor="middle" x="571" y="-5.75" font-family="Helvetica,sans-Serif" font-size="10.00">concepts</text>
</a>
</g>
</g>
<!-- Node3&#45;&gt;Node7 -->
<g id="edge33_Node000003_Node000007" class="edge">
<title>Node3&#45;&gt;Node7</title>
<g id="a_edge33_Node000003_Node000007"><a xlink:title=" ">
<path fill="none" stroke="#63b8ff" d="M564.95,-231.99C560.27,-223.23 553.66,-209.29 551,-196.25 538.47,-134.83 540.99,-116.57 554,-55.25 555.81,-46.74 558.99,-37.71 562.11,-30.02"/>
<polygon fill="#63b8ff" stroke="#63b8ff" points="565.26,-31.56 566.03,-20.99 558.84,-28.77 565.26,-31.56"/>
</a>
</g>
</g>
<!-- Node10 -->
<g id="Node000010" class="node">
<title>Node10</title>
<g id="a_Node000010"><a xlink:title=" ">
<polygon fill="#e0e0e0" stroke="#999999" points="805.5,-19.25 744.5,-19.25 744.5,0 805.5,0 805.5,-19.25"/>
<text text-anchor="middle" x="775" y="-5.75" font-family="Helvetica,sans-Serif" font-size="10.00">type_traits</text>
</a>
</g>
</g>
<!-- Node3&#45;&gt;Node10 -->
<g id="edge34_Node000003_Node000010" class="edge">
<title>Node3&#45;&gt;Node10</title>
<g id="a_edge34_Node000003_Node000010"><a xlink:title=" ">
<path fill="none" stroke="#63b8ff" d="M619.29,-238.87C719.51,-234.28 939.54,-221.42 962,-196.25 1022.58,-128.39 876.2,-53.95 807.84,-24.1"/>
<polygon fill="#63b8ff" stroke="#63b8ff" points="809.55,-21.02 798.98,-20.29 806.79,-27.45 809.55,-21.02"/>
</a>
</g>
</g>
<!-- Node12 -->
<g id="Node000012" class="node">
<title>Node12</title>
<g id="a_Node000012"><a xlink:href="x__z__p__q__r__h__f_8hpp.xhtml" target="_top" xlink:title=" ">
<polygon fill="white" stroke="#666666" points="655.75,-196.25 560.25,-196.25 560.25,-165.75 655.75,-165.75 655.75,-196.25"/>
<text text-anchor="start" x="568.25" y="-182.75" font-family="Helvetica,sans-Serif" font-size="10.00">fcarouge/internal/x</text>
<text text-anchor="middle" x="608" y="-171.5" font-family="Helvetica,sans-Serif" font-size="10.00">_z_p_q_r_h_f.hpp</text>
</a>
</g>
</g>
<!-- Node3&#45;&gt;Node12 -->
<g id="edge12_Node000003_Node000012" class="edge">
<title>Node3&#45;&gt;Node12</title>
<g id="a_edge12_Node000003_Node000012"><a xlink:title=" ">
<path fill="none" stroke="#63b8ff" d="M575.77,-231.93C580.22,-225.04 586.6,-215.16 592.51,-206"/>
<polygon fill="#63b8ff" stroke="#63b8ff" points="595.32,-208.1 597.8,-197.8 589.44,-204.31 595.32,-208.1"/>
</a>
</g>
</g>
<!-- Node13 -->
<g id="Node000013" class="node">
<title>Node13</title>
<g id="a_Node000013"><a xlink:href="x__z__p__q__r__hh__us__ps_8hpp.xhtml" target="_top" xlink:title=" ">
<polygon fill="white" stroke="#666666" points="390.12,-196.25 269.88,-196.25 269.88,-165.75 390.12,-165.75 390.12,-196.25"/>
<text text-anchor="start" x="277.88" y="-182.75" font-family="Helvetica,sans-Serif" font-size="10.00">fcarouge/internal/x</text>
<text text-anchor="middle" x="330" y="-171.5" font-family="Helvetica,sans-Serif" font-size="10.00">_z_p_q_r_hh_us_ps.hpp</text>
</a>
</g>
</g>
<!-- Node3&#45;&gt;Node13 -->
<g id="edge14_Node000003_Node000013" class="edge">
<title>Node3&#45;&gt;Node13</title>
<g id="a_edge14_Node000003_Node000013"><a xlink:title=" ">
<path fill="none" stroke="#63b8ff" d="M533.03,-231.8C497.95,-223.2 444.3,-210.04 400.97,-199.41"/>
<polygon fill="#63b8ff" stroke="#63b8ff" points="401.92,-196.04 391.37,-197.06 400.25,-202.84 401.92,-196.04"/>
</a>
</g>
</g>
<!-- Node16 -->
<g id="Node000016" class="node">
<title>Node16</title>
<g id="a_Node000016"><a xlink:href="x__z__p__qq__rr__f_8hpp.xhtml" target="_top" xlink:title=" ">
<polygon fill="white" stroke="#666666" points="503.75,-196.25 408.25,-196.25 408.25,-165.75 503.75,-165.75 503.75,-196.25"/>
<text text-anchor="start" x="416.25" y="-182.75" font-family="Helvetica,sans-Serif" font-size="10.00">fcarouge/internal/x</text>
<text text-anchor="middle" x="456" y="-171.5" font-family="Helvetica,sans-Serif" font-size="10.00">_z_p_qq_rr_f.hpp</text>
</a>
</g>
</g>
<!-- Node3&#45;&gt;Node16 -->
<g id="edge19_Node000003_Node000016" class="edge">
<title>Node3&#45;&gt;Node16</title>
<g id="a_edge19_Node000003_Node000016"><a xlink:title=" ">
<path fill="none" stroke="#63b8ff" d="M552.69,-231.93C537.2,-223.93 513.95,-211.93 494.13,-201.69"/>
<polygon fill="#63b8ff" stroke="#63b8ff" points="495.97,-198.71 485.48,-197.23 492.76,-204.93 495.97,-198.71"/>
</a>
</g>
</g>
<!-- Node17 -->
<g id="Node000017" class="node">
<title>Node17</title>
<g id="a_Node000017"><a xlink:href="x__z__p__r__f_8hpp.xhtml" target="_top" xlink:title=" ">
<polygon fill="white" stroke="#666666" points="769.75,-196.25 674.25,-196.25 674.25,-165.75 769.75,-165.75 769.75,-196.25"/>
<text text-anchor="start" x="682.25" y="-182.75" font-family="Helvetica,sans-Serif" font-size="10.00">fcarouge/internal/x</text>
<text text-anchor="middle" x="722" y="-171.5" font-family="Helvetica,sans-Serif" font-size="10.00">_z_p_r_f.hpp</text>
</a>
</g>
</g>
<!-- Node3&#45;&gt;Node17 -->
<g id="edge23_Node000003_Node000017" class="edge">
<title>Node3&#45;&gt;Node17</title>
<g id="a_edge23_Node000003_Node000017"><a xlink:title=" ">
<path fill="none" stroke="#63b8ff" d="M593.42,-231.8C614.64,-223.58 646.6,-211.2 673.35,-200.85"/>
<polygon fill="#63b8ff" stroke="#63b8ff" points="674.59,-204.12 682.65,-197.24 672.06,-197.59 674.59,-204.12"/>
</a>
</g>
</g>
<!-- Node18 -->
<g id="Node000018" class="node">
<title>Node18</title>
<g id="a_Node000018"><a xlink:href="x__z__u__p__q__r__f__g__ps_8hpp.xhtml" target="_top" xlink:title=" ">
<polygon fill="white" stroke="#666666" points="118,-196.25 0,-196.25 0,-165.75 118,-165.75 118,-196.25"/>
<text text-anchor="start" x="8" y="-182.75" font-family="Helvetica,sans-Serif" font-size="10.00">fcarouge/internal/x</text>
<text text-anchor="middle" x="59" y="-171.5" font-family="Helvetica,sans-Serif" font-size="10.00">_z_u_p_q_r_f_g_ps.hpp</text>
</a>
</g>
</g>
<!-- Node3&#45;&gt;Node18 -->
<g id="edge25_Node000003_Node000018" class="edge">
<title>Node3&#45;&gt;Node18</title>
<g id="a_edge25_Node000003_Node000018"><a xlink:title=" ">
<path fill="none" stroke="#63b8ff" d="M520.95,-237.64C441.02,-232.01 277.51,-218.92 129.36,-196.51"/>
<polygon fill="#63b8ff" stroke="#63b8ff" points="130.18,-193.09 119.77,-195.04 129.12,-200.01 130.18,-193.09"/>
</a>
</g>
</g>
<!-- Node19 -->
<g id="Node000019" class="node">
<title>Node19</title>
<g id="a_Node000019"><a xlink:href="x__z__u__p__q__r__us__ps_8hpp.xhtml" target="_top" xlink:title=" ">
<polygon fill="white" stroke="#666666" points="251.5,-196.25 136.5,-196.25 136.5,-165.75 251.5,-165.75 251.5,-196.25"/>
<text text-anchor="start" x="144.5" y="-182.75" font-family="Helvetica,sans-Serif" font-size="10.00">fcarouge/internal/x</text>
<text text-anchor="middle" x="194" y="-171.5" font-family="Helvetica,sans-Serif" font-size="10.00">_z_u_p_q_r_us_ps.hpp</text>
</a>
</g>
</g>
<!-- Node3&#45;&gt;Node19 -->
<g id="edge29_Node000003_Node000019" class="edge">
<title>Node3&#45;&gt;Node19</title>
<g id="a_edge29_Node000003_Node000019"><a xlink:title=" ">
<path fill="none" stroke="#63b8ff" d="M520.87,-234.8C462.04,-227.3 360.29,-213.61 262.93,-196.52"/>
<polygon fill="#63b8ff" stroke="#63b8ff" points="263.64,-193.09 253.19,-194.79 262.42,-199.98 263.64,-193.09"/>
</a>
</g>
</g>
<!-- Node4&#45;&gt;Node5 -->
<g id="edge4_Node000004_Node000005" class="edge">
<title>Node4&#45;&gt;Node5</title>
<g id="a_edge4_Node000004_Node000005"><a xlink:title=" ">
<path fill="none" stroke="#63b8ff" d="M846.71,-170.93C797.41,-160.6 716.79,-143.71 663.32,-132.51"/>
<polygon fill="#63b8ff" stroke="#63b8ff" points="664.33,-129.14 653.82,-130.52 662.89,-135.99 664.33,-129.14"/>
</a>
</g>
</g>
<!-- Node4&#45;&gt;Node10 -->
<g id="edge11_Node000004_Node000010" class="edge">
<title>Node4&#45;&gt;Node10</title>
<g id="a_edge11_Node000004_Node000010"><a xlink:title=" ">
<path fill="none" stroke="#63b8ff" d="M883.82,-170.89C865.56,-144 811.63,-64.58 787.23,-28.64"/>
<polygon fill="#63b8ff" stroke="#63b8ff" points="790.3,-26.93 781.79,-20.62 784.51,-30.86 790.3,-26.93"/>
</a>
</g>
</g>
<!-- Node11 -->
<g id="Node000011" class="node">
<title>Node11</title>
<g id="a_Node000011"><a xlink:title=" ">
<polygon fill="#e0e0e0" stroke="#999999" points="746.75,-129.75 675.25,-129.75 675.25,-110.5 746.75,-110.5 746.75,-129.75"/>
<text text-anchor="middle" x="711" y="-116.25" font-family="Helvetica,sans-Serif" font-size="10.00">initializer_list</text>
</a>
</g>
</g>
<!-- Node4&#45;&gt;Node11 -->
<g id="edge10_Node000004_Node000011" class="edge">
<title>Node4&#45;&gt;Node11</title>
<g id="a_edge10_Node000004_Node000011"><a xlink:title=" ">
<path fill="none" stroke="#63b8ff" d="M862.42,-170.93C832.2,-160.99 783.51,-144.97 749.52,-133.79"/>
<polygon fill="#63b8ff" stroke="#63b8ff" points="750.64,-130.48 740.05,-130.68 748.45,-137.13 750.64,-130.48"/>
</a>
</g>
</g>
<!-- Node6 -->
<g id="Node000006" class="node">
<title>Node6</title>
<g id="a_Node000006"><a xlink:href="internal_2utility_8hpp.xhtml" target="_top" xlink:title=" ">
<polygon fill="white" stroke="#666666" points="654.5,-74.5 563.5,-74.5 563.5,-55.25 654.5,-55.25 654.5,-74.5"/>
<text text-anchor="middle" x="609" y="-61" font-family="Helvetica,sans-Serif" font-size="10.00">internal/utility.hpp</text>
</a>
</g>
</g>
<!-- Node5&#45;&gt;Node6 -->
<g id="edge5_Node000005_Node000006" class="edge">
<title>Node5&#45;&gt;Node6</title>
<g id="a_edge5_Node000005_Node000006"><a xlink:title=" ">
<path fill="none" stroke="#63b8ff" d="M609,-110.33C609,-103.82 609,-94.67 609,-86.37"/>
<polygon fill="#63b8ff" stroke="#63b8ff" points="612.5,-86.37 609,-76.37 605.5,-86.37 612.5,-86.37"/>
</a>
</g>
</g>
<!-- Node6&#45;&gt;Node7 -->
<g id="edge6_Node000006_Node000007" class="edge">
<title>Node6&#45;&gt;Node7</title>
<g id="a_edge6_Node000006_Node000007"><a xlink:title=" ">
<path fill="none" stroke="#63b8ff" d="M602.73,-55.08C597.64,-47.96 590.3,-37.68 583.97,-28.8"/>
<polygon fill="#63b8ff" stroke="#63b8ff" points="586.95,-26.95 578.29,-20.84 581.25,-31.01 586.95,-26.95"/>
</a>
</g>
</g>
<!-- Node8 -->
<g id="Node000008" class="node">
<title>Node8</title>
<g id="a_Node000008"><a xlink:title=" ">
<polygon fill="#e0e0e0" stroke="#999999" points="989.12,-19.25 940.88,-19.25 940.88,0 989.12,0 989.12,-19.25"/>
<text text-anchor="middle" x="965" y="-5.75" font-family="Helvetica,sans-Serif" font-size="10.00">cstddef</text>
</a>
</g>
</g>
<!-- Node6&#45;&gt;Node8 -->
<g id="edge7_Node000006_Node000008" class="edge">
<title>Node6&#45;&gt;Node8</title>
<g id="a_edge7_Node000006_Node000008"><a xlink:title=" ">
<path fill="none" stroke="#63b8ff" d="M654.81,-57.02C726.59,-46.29 864.06,-25.72 929.15,-15.99"/>
<polygon fill="#63b8ff" stroke="#63b8ff" points="929.55,-19.47 938.93,-14.53 928.52,-12.54 929.55,-19.47"/>
</a>
</g>
</g>
<!-- Node9 -->
<g id="Node000009" class="node">
<title>Node9</title>
<g id="a_Node000009"><a xlink:title=" ">
<polygon fill="#e0e0e0" stroke="#999999" points="440.5,-19.25 403.5,-19.25 403.5,0 440.5,0 440.5,-19.25"/>
<text text-anchor="middle" x="422" y="-5.75" font-family="Helvetica,sans-Serif" font-size="10.00">tuple</text>
</a>
</g>
</g>
<!-- Node6&#45;&gt;Node9 -->
<g id="edge8_Node000006_Node000009" class="edge">
<title>Node6&#45;&gt;Node9</title>
<g id="a_edge8_Node000006_Node000009"><a xlink:title=" ">
<path fill="none" stroke="#63b8ff" d="M577.28,-54.84C542.08,-44.82 485.73,-28.77 451.47,-19.02"/>
<polygon fill="#63b8ff" stroke="#63b8ff" points="452.79,-15.75 442.21,-16.38 450.87,-22.48 452.79,-15.75"/>
</a>
</g>
</g>
<!-- Node6&#45;&gt;Node10 -->
<g id="edge9_Node000006_Node000010" class="edge">
<title>Node6&#45;&gt;Node10</title>
<g id="a_edge9_Node000006_Node000010"><a xlink:title=" ">
<path fill="none" stroke="#63b8ff" d="M637.16,-54.84C664.35,-46.12 705.74,-32.84 736.07,-23.11"/>
<polygon fill="#63b8ff" stroke="#63b8ff" points="736.81,-26.55 745.26,-20.16 734.67,-19.89 736.81,-26.55"/>
</a>
</g>
</g>
<!-- Node12&#45;&gt;Node5 -->
<g id="edge13_Node000012_Node000005" class="edge">
<title>Node12&#45;&gt;Node5</title>
<g id="a_edge13_Node000012_Node000005"><a xlink:title=" ">
<path fill="none" stroke="#63b8ff" d="M608.25,-165.45C608.37,-158.21 608.52,-149.34 608.65,-141.44"/>
<polygon fill="#63b8ff" stroke="#63b8ff" points="612.15,-141.77 608.82,-131.71 605.15,-141.65 612.15,-141.77"/>
</a>
</g>
</g>
<!-- Node13&#45;&gt;Node5 -->
<g id="edge15_Node000013_Node000005" class="edge">
<title>Node13&#45;&gt;Node5</title>
<g id="a_edge15_Node000013_Node000005"><a xlink:title=" ">
<path fill="none" stroke="#63b8ff" d="M390.54,-167.23C439.4,-156.91 507.53,-142.54 554.65,-132.59"/>
<polygon fill="#63b8ff" stroke="#63b8ff" points="555.32,-136.03 564.38,-130.54 553.87,-129.18 555.32,-136.03"/>
</a>
</g>
</g>
<!-- Node13&#45;&gt;Node9 -->
<g id="edge18_Node000013_Node000009" class="edge">
<title>Node13&#45;&gt;Node9</title>
<g id="a_edge18_Node000013_Node000009"><a xlink:title=" ">
<path fill="none" stroke="#63b8ff" d="M338,-165.27C354.66,-134.61 393.03,-63.97 411.58,-29.81"/>
<polygon fill="#63b8ff" stroke="#63b8ff" points="414.63,-31.52 416.33,-21.07 408.48,-28.18 414.63,-31.52"/>
</a>
</g>
</g>
<!-- Node14 -->
<g id="Node000014" class="node">
<title>Node14</title>
<g id="a_Node000014"><a xlink:href="function_8hpp.xhtml" target="_top" xlink:title=" ">
<polygon fill="white" stroke="#666666" points="346.25,-129.75 277.75,-129.75 277.75,-110.5 346.25,-110.5 346.25,-129.75"/>
<text text-anchor="middle" x="312" y="-116.25" font-family="Helvetica,sans-Serif" font-size="10.00">function.hpp</text>
</a>
</g>
</g>
<!-- Node13&#45;&gt;Node14 -->
<g id="edge16_Node000013_Node000014" class="edge">
<title>Node13&#45;&gt;Node14</title>
<g id="a_edge16_Node000013_Node000014"><a xlink:title=" ">
<path fill="none" stroke="#63b8ff" d="M325.55,-165.45C323.31,-158.12 320.56,-149.12 318.12,-141.16"/>
<polygon fill="#63b8ff" stroke="#63b8ff" points="321.49,-140.19 315.22,-131.65 314.79,-142.24 321.49,-140.19"/>
</a>
</g>
</g>
<!-- Node15 -->
<g id="Node000015" class="node">
<title>Node15</title>
<g id="a_Node000015"><a xlink:title=" ">
<polygon fill="#e0e0e0" stroke="#999999" points="337.25,-74.5 286.75,-74.5 286.75,-55.25 337.25,-55.25 337.25,-74.5"/>
<text text-anchor="middle" x="312" y="-61" font-family="Helvetica,sans-Serif" font-size="10.00">memory</text>
</a>
</g>
</g>
<!-- Node14&#45;&gt;Node15 -->
<g id="edge17_Node000014_Node000015" class="edge">
<title>Node14&#45;&gt;Node15</title>
<g id="a_edge17_Node000014_Node000015"><a xlink:title=" ">
<path fill="none" stroke="#63b8ff" d="M312,-110.33C312,-103.82 312,-94.67 312,-86.37"/>
<polygon fill="#63b8ff" stroke="#63b8ff" points="315.5,-86.37 312,-76.37 308.5,-86.37 315.5,-86.37"/>
</a>
</g>
</g>
<!-- Node16&#45;&gt;Node5 -->
<g id="edge20_Node000016_Node000005" class="edge">
<title>Node16&#45;&gt;Node5</title>
<g id="a_edge20_Node000016_Node000005"><a xlink:title=" ">
<path fill="none" stroke="#63b8ff" d="M494.21,-165.3C518.97,-155.77 550.93,-143.47 574.84,-134.27"/>
<polygon fill="#63b8ff" stroke="#63b8ff" points="576.05,-137.56 584.12,-130.7 573.53,-131.02 576.05,-137.56"/>
</a>
</g>
</g>
<!-- Node16&#45;&gt;Node9 -->
<g id="edge22_Node000016_Node000009" class="edge">
<title>Node16&#45;&gt;Node9</title>
<g id="a_edge22_Node000016_Node000009"><a xlink:title=" ">
<path fill="none" stroke="#63b8ff" d="M453.04,-165.27C446.94,-134.87 432.95,-65.19 426.03,-30.71"/>
<polygon fill="#63b8ff" stroke="#63b8ff" points="429.53,-30.33 424.13,-21.22 422.66,-31.71 429.53,-30.33"/>
</a>
</g>
</g>
<!-- Node16&#45;&gt;Node14 -->
<g id="edge21_Node000016_Node000014" class="edge">
<title>Node16&#45;&gt;Node14</title>
<g id="a_edge21_Node000016_Node000014"><a xlink:title=" ">
<path fill="none" stroke="#63b8ff" d="M420.03,-165.3C396.84,-155.81 366.92,-143.58 344.45,-134.39"/>
<polygon fill="#63b8ff" stroke="#63b8ff" points="346.07,-131.27 335.48,-130.73 343.42,-137.75 346.07,-131.27"/>
</a>
</g>
</g>
<!-- Node17&#45;&gt;Node5 -->
<g id="edge24_Node000017_Node000005" class="edge">
<title>Node17&#45;&gt;Node5</title>
<g id="a_edge24_Node000017_Node000005"><a xlink:title=" ">
<path fill="none" stroke="#63b8ff" d="M693.78,-165.3C676.24,-156.16 653.8,-144.47 636.41,-135.41"/>
<polygon fill="#63b8ff" stroke="#63b8ff" points="638.16,-132.37 627.67,-130.85 634.92,-138.58 638.16,-132.37"/>
</a>
</g>
</g>
<!-- Node18&#45;&gt;Node5 -->
<g id="edge26_Node000018_Node000005" class="edge">
<title>Node18&#45;&gt;Node5</title>
<g id="a_edge26_Node000018_Node000005"><a xlink:title=" ">
<path fill="none" stroke="#63b8ff" d="M118.27,-167.16C121.21,-166.66 124.14,-166.18 127,-165.75 278.02,-143.01 457.52,-130.07 548.96,-124.47"/>
<polygon fill="#63b8ff" stroke="#63b8ff" points="548.92,-127.98 558.69,-123.89 548.5,-120.99 548.92,-127.98"/>
</a>
</g>
</g>
<!-- Node18&#45;&gt;Node9 -->
<g id="edge28_Node000018_Node000009" class="edge">
<title>Node18&#45;&gt;Node9</title>
<g id="a_edge28_Node000018_Node000009"><a xlink:title=" ">
<path fill="none" stroke="#63b8ff" d="M77.64,-165.34C111.25,-139.58 185.02,-86 255,-55.25 300.84,-35.11 357.85,-22.27 392.01,-15.77"/>
<polygon fill="#63b8ff" stroke="#63b8ff" points="392.4,-19.25 401.6,-14 391.13,-12.37 392.4,-19.25"/>
</a>
</g>
</g>
<!-- Node18&#45;&gt;Node14 -->
<g id="edge27_Node000018_Node000014" class="edge">
<title>Node18&#45;&gt;Node14</title>
<g id="a_edge27_Node000018_Node000014"><a xlink:title=" ">
<path fill="none" stroke="#63b8ff" d="M118.32,-166.2C163.57,-155.66 224.99,-141.37 266.43,-131.73"/>
<polygon fill="#63b8ff" stroke="#63b8ff" points="267.14,-135.16 276.09,-129.48 265.56,-128.34 267.14,-135.16"/>
</a>
</g>
</g>
<!-- Node19&#45;&gt;Node5 -->
<g id="edge30_Node000019_Node000005" class="edge">
<title>Node19&#45;&gt;Node5</title>
<g id="a_edge30_Node000019_Node000005"><a xlink:title=" ">
<path fill="none" stroke="#63b8ff" d="M251.69,-167.42C254.83,-166.83 257.95,-166.27 261,-165.75 361.54,-148.64 479.42,-134.82 548.96,-127.31"/>
<polygon fill="#63b8ff" stroke="#63b8ff" points="549.04,-130.82 558.61,-126.28 548.29,-123.86 549.04,-130.82"/>
</a>
</g>
</g>
<!-- Node19&#45;&gt;Node9 -->
<g id="edge32_Node000019_Node000009" class="edge">
<title>Node19&#45;&gt;Node9</title>
<g id="a_edge32_Node000019_Node000009"><a xlink:title=" ">
<path fill="none" stroke="#63b8ff" d="M199.93,-165.3C211.2,-139.23 238.19,-84.85 278,-55.25 312.12,-29.88 360.92,-18.74 392.03,-13.98"/>
<polygon fill="#63b8ff" stroke="#63b8ff" points="392.48,-17.46 401.91,-12.62 391.52,-10.52 392.48,-17.46"/>
</a>
</g>
</g>
<!-- Node19&#45;&gt;Node14 -->
<g id="edge31_Node000019_Node000014" class="edge">
<title>Node19&#45;&gt;Node14</title>
<g id="a_edge31_Node000019_Node000014"><a xlink:title=" ">
<path fill="none" stroke="#63b8ff" d="M223.47,-165.3C241.87,-156.11 265.44,-144.36 283.63,-135.28"/>
<polygon fill="#63b8ff" stroke="#63b8ff" points="285.16,-138.43 292.55,-130.83 282.04,-132.16 285.16,-138.43"/>
</a>
</g>
</g>
<!-- Node20&#45;&gt;Node5 -->
<g id="edge36_Node000020_Node000005" class="edge">
<title>Node20&#45;&gt;Node5</title>
<g id="a_edge36_Node000020_Node000005"><a xlink:title=" ">
<path fill="none" stroke="#63b8ff" d="M1009.69,-172.58C994.44,-170.3 977.53,-167.85 962,-165.75 834.26,-148.5 799.21,-147.7 669.01,-130.13"/>
<polygon fill="#63b8ff" stroke="#63b8ff" points="669.68,-126.69 659.3,-128.81 668.74,-133.62 669.68,-126.69"/>
</a>
</g>
</g>
<!-- Node20&#45;&gt;Node8 -->
<g id="edge37_Node000020_Node000008" class="edge">
<title>Node20&#45;&gt;Node8</title>
<g id="a_edge37_Node000020_Node000008"><a xlink:title=" ">
<path fill="none" stroke="#63b8ff" d="M1061.1,-171.04C1065.29,-157.41 1071.33,-130.88 1063,-110.5 1047.98,-73.74 1012.18,-43.2 988.26,-25.93"/>
<polygon fill="#63b8ff" stroke="#63b8ff" points="990.59,-23.28 980.38,-20.43 986.58,-29.02 990.59,-23.28"/>
</a>
</g>
</g>
<!-- Node20&#45;&gt;Node9 -->
<g id="edge39_Node000020_Node000009" class="edge">
<title>Node20&#45;&gt;Node9</title>
<g id="a_edge39_Node000020_Node000009"><a xlink:title=" ">
<path fill="none" stroke="#63b8ff" d="M1021.4,-170.96C964.72,-157.09 852.2,-130.13 756,-110.5 666.65,-92.27 640.75,-102.63 554,-74.5 515.05,-61.87 472.94,-39.9 447.01,-25.31"/>
<polygon fill="#63b8ff" stroke="#63b8ff" points="449,-22.41 438.58,-20.49 445.53,-28.49 449,-22.41"/>
</a>
</g>
</g>
<!-- Node21 -->
<g id="Node000021" class="node">
<title>Node21</title>
<g id="a_Node000021"><a xlink:title=" ">
<polygon fill="#e0e0e0" stroke="#999999" points="1053.88,-129.75 1010.12,-129.75 1010.12,-110.5 1053.88,-110.5 1053.88,-129.75"/>
<text text-anchor="middle" x="1032" y="-116.25" font-family="Helvetica,sans-Serif" font-size="10.00">format</text>
</a>
</g>
</g>
<!-- Node20&#45;&gt;Node21 -->
<g id="edge38_Node000020_Node000021" class="edge">
<title>Node20&#45;&gt;Node21</title>
<g id="a_edge38_Node000020_Node000021"><a xlink:title=" ">
<path fill="none" stroke="#63b8ff" d="M1054.05,-171.06C1050.5,-163.02 1045.16,-150.93 1040.63,-140.66"/>
<polygon fill="#63b8ff" stroke="#63b8ff" points="1043.84,-139.27 1036.6,-131.54 1037.44,-142.1 1043.84,-139.27"/>
</a>
</g>
</g>
<!-- Node23 -->
<g id="Node000023" class="node">
<title>Node23</title>
<g id="a_Node000023"><a xlink:title=" ">
<polygon fill="#e0e0e0" stroke="#999999" points="1159.38,-190.62 1124.62,-190.62 1124.62,-171.38 1159.38,-171.38 1159.38,-190.62"/>
<text text-anchor="middle" x="1142" y="-177.12" font-family="Helvetica,sans-Serif" font-size="10.00">print</text>
</a>
</g>
</g>
<!-- Node22&#45;&gt;Node23 -->
<g id="edge41_Node000022_Node000023" class="edge">
<title>Node22&#45;&gt;Node23</title>
<g id="a_edge41_Node000022_Node000023"><a xlink:title=" ">
<path fill="none" stroke="#63b8ff" d="M1030.1,-231.78C1052.38,-223.2 1086.29,-209.67 1115,-196.25 1115.11,-196.2 1115.22,-196.15 1115.32,-196.1"/>
<polygon fill="#63b8ff" stroke="#63b8ff" points="1116.82,-199.26 1124.21,-191.67 1113.7,-193 1116.82,-199.26"/>
</a>
</g>
</g>
</g>
</svg>
