<?xml version="1.0" encoding="UTF-8" standalone="no"?>
<!DOCTYPE svg PUBLIC "-//W3C//DTD SVG 1.1//EN"
 "http://www.w3.org/Graphics/SVG/1.1/DTD/svg11.dtd">
<!-- Generated by graphviz version 2.49.3 (20211027.1534)
 -->
<!-- Title: include/fcarouge/internal/kalman_equation.hpp Pages: 1 -->
<svg width="797pt" height="296pt"
 viewBox="0.00 0.00 796.50 296.00" xmlns="http://www.w3.org/2000/svg" xmlns:xlink="http://www.w3.org/1999/xlink">
<g id="graph0" class="graph" transform="scale(1 1) rotate(0) translate(4 292)">
<title>include/fcarouge/internal/kalman_equation.hpp</title>
<polygon fill="white" stroke="transparent" points="-4,4 -4,-292 792.5,-292 792.5,4 -4,4"/>
<!-- Node1 -->
<g id="node1" class="node">
<title>Node1</title>
<g id="a_node1"><a xlink:title="Kalman filter main project header.">
<polygon fill="#bfbfbf" stroke="black" points="229.5,-257.5 229.5,-287.5 351.5,-287.5 351.5,-257.5 229.5,-257.5"/>
<text text-anchor="start" x="237.5" y="-275.5" font-family="Helvetica,sans-Serif" font-size="10.00">include/fcarouge/internal</text>
<text text-anchor="middle" x="290.5" y="-264.5" font-family="Helvetica,sans-Serif" font-size="10.00">/kalman_equation.hpp</text>
</a>
</g>
</g>
<!-- Node2 -->
<g id="node2" class="node">
<title>Node2</title>
<g id="a_node2"><a xlink:href="internal_2kalman_8hpp.xhtml" target="_top" xlink:title="The main Kalman filter class.">
<polygon fill="white" stroke="black" points="229.5,-190.5 229.5,-220.5 351.5,-220.5 351.5,-190.5 229.5,-190.5"/>
<text text-anchor="start" x="237.5" y="-208.5" font-family="Helvetica,sans-Serif" font-size="10.00">include/fcarouge/internal</text>
<text text-anchor="middle" x="290.5" y="-197.5" font-family="Helvetica,sans-Serif" font-size="10.00">/kalman.hpp</text>
</a>
</g>
</g>
<!-- Node1&#45;&gt;Node2 -->
<g id="edge1" class="edge">
<title>Node1&#45;&gt;Node2</title>
<path fill="none" stroke="midnightblue" d="M290.5,-247.11C290.5,-238.15 290.5,-228.32 290.5,-220.58"/>
<polygon fill="midnightblue" stroke="midnightblue" points="287,-247.4 290.5,-257.4 294,-247.4 287,-247.4"/>
</g>
<!-- Node3 -->
<g id="node3" class="node">
<title>Node3</title>
<g id="a_node3"><a xlink:href="kalman__eigen__operator_8hpp.xhtml" target="_top" xlink:title="Kalman operation for Eigen 3 types.">
<polygon fill="white" stroke="black" points="143.5,-123.5 143.5,-153.5 281.5,-153.5 281.5,-123.5 143.5,-123.5"/>
<text text-anchor="start" x="151.5" y="-141.5" font-family="Helvetica,sans-Serif" font-size="10.00">include/fcarouge/internal</text>
<text text-anchor="middle" x="212.5" y="-130.5" font-family="Helvetica,sans-Serif" font-size="10.00">/kalman_eigen_operator.hpp</text>
</a>
</g>
</g>
<!-- Node2&#45;&gt;Node3 -->
<g id="edge2" class="edge">
<title>Node2&#45;&gt;Node3</title>
<path fill="none" stroke="midnightblue" d="M265.76,-183.88C253.91,-174.01 240.02,-162.43 229.39,-153.58"/>
<polygon fill="midnightblue" stroke="midnightblue" points="263.65,-186.68 273.58,-190.4 268.13,-181.31 263.65,-186.68"/>
</g>
<!-- Node7 -->
<g id="node7" class="node">
<title>Node7</title>
<g id="a_node7"><a xlink:href="kalman_8hpp.xhtml" target="_top" xlink:title="The main Kalman filter class.">
<polygon fill="white" stroke="black" points="333.5,-129 333.5,-148 473.5,-148 473.5,-129 333.5,-129"/>
<text text-anchor="middle" x="403.5" y="-136" font-family="Helvetica,sans-Serif" font-size="10.00">include/fcarouge/kalman.hpp</text>
</a>
</g>
</g>
<!-- Node2&#45;&gt;Node7 -->
<g id="edge6" class="edge">
<title>Node2&#45;&gt;Node7</title>
<path fill="none" stroke="midnightblue" d="M323.87,-185.31C345.39,-172.93 372.33,-157.43 388.71,-148.01"/>
<polygon fill="midnightblue" stroke="midnightblue" points="321.94,-182.38 315.02,-190.4 325.43,-188.44 321.94,-182.38"/>
</g>
<!-- Node4 -->
<g id="node4" class="node">
<title>Node4</title>
<g id="a_node4"><a xlink:href="kalman__eigen_8hpp.xhtml" target="_top" xlink:title="Kalman operation for Eigen 3 types.">
<polygon fill="white" stroke="black" points="83.5,-56.5 83.5,-86.5 205.5,-86.5 205.5,-56.5 83.5,-56.5"/>
<text text-anchor="start" x="91.5" y="-74.5" font-family="Helvetica,sans-Serif" font-size="10.00">include/fcarouge/kalman</text>
<text text-anchor="middle" x="144.5" y="-63.5" font-family="Helvetica,sans-Serif" font-size="10.00">_eigen.hpp</text>
</a>
</g>
</g>
<!-- Node3&#45;&gt;Node4 -->
<g id="edge3" class="edge">
<title>Node3&#45;&gt;Node4</title>
<path fill="none" stroke="midnightblue" d="M190.33,-116.31C180.13,-106.56 168.31,-95.26 159.23,-86.58"/>
<polygon fill="midnightblue" stroke="midnightblue" points="188.1,-119.02 197.75,-123.4 192.93,-113.96 188.1,-119.02"/>
</g>
<!-- Node5 -->
<g id="node5" class="node">
<title>Node5</title>
<g id="a_node5"><a xlink:href="rocket__altitude_8cpp.xhtml" target="_top" xlink:title=" ">
<polygon fill="white" stroke="black" points="0,-0.5 0,-19.5 133,-19.5 133,-0.5 0,-0.5"/>
<text text-anchor="middle" x="66.5" y="-7.5" font-family="Helvetica,sans-Serif" font-size="10.00">sample/rocket_altitude.cpp</text>
</a>
</g>
</g>
<!-- Node4&#45;&gt;Node5 -->
<g id="edge4" class="edge">
<title>Node4&#45;&gt;Node5</title>
<path fill="none" stroke="midnightblue" d="M117.87,-50.19C104.22,-39.77 88.3,-27.63 77.85,-19.66"/>
<polygon fill="midnightblue" stroke="midnightblue" points="115.94,-53.12 126.02,-56.4 120.19,-47.55 115.94,-53.12"/>
</g>
<!-- Node6 -->
<g id="node6" class="node">
<title>Node6</title>
<g id="a_node6"><a xlink:href="vehicule__location_8cpp.xhtml" target="_top" xlink:title=" ">
<polygon fill="white" stroke="black" points="151.5,-0.5 151.5,-19.5 295.5,-19.5 295.5,-0.5 151.5,-0.5"/>
<text text-anchor="middle" x="223.5" y="-7.5" font-family="Helvetica,sans-Serif" font-size="10.00">sample/vehicule_location.cpp</text>
</a>
</g>
</g>
<!-- Node4&#45;&gt;Node6 -->
<g id="edge5" class="edge">
<title>Node4&#45;&gt;Node6</title>
<path fill="none" stroke="midnightblue" d="M171.47,-50.19C185.3,-39.77 201.42,-27.63 212,-19.66"/>
<polygon fill="midnightblue" stroke="midnightblue" points="169.1,-47.59 163.22,-56.4 173.32,-53.18 169.1,-47.59"/>
</g>
<!-- Node7&#45;&gt;Node4 -->
<g id="edge7" class="edge">
<title>Node7&#45;&gt;Node4</title>
<path fill="none" stroke="midnightblue" d="M359.58,-126.48C315.74,-115.47 248.2,-98.52 200.52,-86.56"/>
<polygon fill="midnightblue" stroke="midnightblue" points="358.82,-129.9 369.37,-128.94 360.53,-123.11 358.82,-129.9"/>
</g>
<!-- Node8 -->
<g id="node8" class="node">
<title>Node8</title>
<g id="a_node8"><a xlink:href="building__height_8cpp.xhtml" target="_top" xlink:title=" ">
<polygon fill="white" stroke="black" points="223.5,-62 223.5,-81 357.5,-81 357.5,-62 223.5,-62"/>
<text text-anchor="middle" x="290.5" y="-69" font-family="Helvetica,sans-Serif" font-size="10.00">sample/building_height.cpp</text>
</a>
</g>
</g>
<!-- Node7&#45;&gt;Node8 -->
<g id="edge8" class="edge">
<title>Node7&#45;&gt;Node8</title>
<path fill="none" stroke="midnightblue" d="M379.36,-123.62C356.97,-110.74 324.36,-91.98 305.5,-81.13"/>
<polygon fill="midnightblue" stroke="midnightblue" points="377.85,-126.78 388.26,-128.73 381.34,-120.71 377.85,-126.78"/>
</g>
<!-- Node9 -->
<g id="node9" class="node">
<title>Node9</title>
<g id="a_node9"><a xlink:href="dog__position_8cpp.xhtml" target="_top" xlink:title=" ">
<polygon fill="white" stroke="black" points="375.5,-62 375.5,-81 499.5,-81 499.5,-62 375.5,-62"/>
<text text-anchor="middle" x="437.5" y="-69" font-family="Helvetica,sans-Serif" font-size="10.00">sample/dog_position.cpp</text>
</a>
</g>
</g>
<!-- Node7&#45;&gt;Node9 -->
<g id="edge9" class="edge">
<title>Node7&#45;&gt;Node9</title>
<path fill="none" stroke="midnightblue" d="M412.83,-119.66C419.39,-107.13 427.87,-90.91 432.99,-81.13"/>
<polygon fill="midnightblue" stroke="midnightblue" points="409.62,-118.25 408.09,-128.73 415.82,-121.5 409.62,-118.25"/>
</g>
<!-- Node10 -->
<g id="node10" class="node">
<title>Node10</title>
<g id="a_node10"><a xlink:href="liquid__temperature_8cpp.xhtml" target="_top" xlink:title=" ">
<polygon fill="white" stroke="black" points="517,-62 517,-81 666,-81 666,-62 517,-62"/>
<text text-anchor="middle" x="591.5" y="-69" font-family="Helvetica,sans-Serif" font-size="10.00">sample/liquid_temperature.cpp</text>
</a>
</g>
</g>
<!-- Node7&#45;&gt;Node10 -->
<g id="edge10" class="edge">
<title>Node7&#45;&gt;Node10</title>
<path fill="none" stroke="midnightblue" d="M438.39,-125.44C475.69,-112.54 533.87,-92.42 566.73,-81.06"/>
<polygon fill="midnightblue" stroke="midnightblue" points="436.77,-122.29 428.46,-128.87 439.06,-128.91 436.77,-122.29"/>
</g>
<!-- Node11 -->
<g id="node11" class="node">
<title>Node11</title>
<g id="a_node11"><a xlink:href="initialization_8cpp.xhtml" target="_top" xlink:title=" ">
<polygon fill="white" stroke="black" points="684.5,-62 684.5,-81 788.5,-81 788.5,-62 684.5,-62"/>
<text text-anchor="middle" x="736.5" y="-69" font-family="Helvetica,sans-Serif" font-size="10.00">test/initialization.cpp</text>
</a>
</g>
</g>
<!-- Node7&#45;&gt;Node11 -->
<g id="edge11" class="edge">
<title>Node7&#45;&gt;Node11</title>
<path fill="none" stroke="midnightblue" d="M463.75,-127.2C518.98,-117.55 602.95,-102.35 675.5,-87 684.13,-85.18 693.4,-83.05 702.05,-81.01"/>
<polygon fill="midnightblue" stroke="midnightblue" points="463.03,-123.77 453.78,-128.94 464.23,-130.67 463.03,-123.77"/>
</g>
</g>
</svg>
