<?xml version="1.0" encoding="UTF-8" standalone="no"?>
<!DOCTYPE svg PUBLIC "-//W3C//DTD SVG 1.1//EN"
 "http://www.w3.org/Graphics/SVG/1.1/DTD/svg11.dtd">
<!-- Generated by graphviz version 12.2.0 (20241103.1931)
 -->
<!-- Title: /github/workspace/sample/kf_6x2x0_vehicle_location_unit.cpp Pages: 1 -->
<!--zoomable 393 -->

<svg id="main" version="1.1" xmlns="http://www.w3.org/2000/svg" xmlns:xlink="http://www.w3.org/1999/xlink" xml:space="preserve" onload="init(evt)">

<style type="text/css"><![CDATA[
.node, .edge {opacity: 0.7;}
.node.selected, .edge.selected {opacity: 1;}
.edge:hover path { stroke: red; }
.edge:hover polygon { stroke: red; fill: red; }
]]></style>

<defs>
  <circle id="rim" cx="0" cy="0" r="7"/>
  <circle id="rim2" cx="0" cy="0" r="3.5"/>
  <g id="zoomPlus">
    <use xlink:href="#rim" fill="#404040"><set attributeName="fill" to="#808080" begin="zoomplus.mouseover" end="zoomplus.mouseout"/></use>
    <path d="M-4,0h8M0,-4v8" fill="none" stroke="white" stroke-width="1.5" pointer-events="none"/>
  </g>
  <g id="zoomMin">
    <use xlink:href="#rim" fill="#404040"><set attributeName="fill" to="#808080" begin="zoomminus.mouseover" end="zoomminus.mouseout"/></use>
    <path d="M-4,0h8" fill="none" stroke="white" stroke-width="1.5" pointer-events="none"/>
  </g>
  <g id="arrowUp" transform="translate(30 24)">
    <use xlink:href="#rim"/>
    <path pointer-events="none" fill="none" stroke="white" stroke-width="1.5" d="M0,-3.0v7 M-2.5,-0.5L0,-3.0L2.5,-0.5"/>
  </g>
  <g id="arrowRight" transform="rotate(90) translate(36 -43)">
    <use xlink:href="#rim"/>
    <path pointer-events="none" fill="none" stroke="white" stroke-width="1.5" d="M0,-3.0v7 M-2.5,-0.5L0,-3.0L2.5,-0.5"/>
  </g>
  <g id="arrowDown" transform="rotate(180) translate(-30 -48)">
    <use xlink:href="#rim"/>
    <path pointer-events="none" fill="none" stroke="white" stroke-width="1.5" d="M0,-3.0v7 M-2.5,-0.5L0,-3.0L2.5,-0.5"/>
  </g>
  <g id="arrowLeft" transform="rotate(270) translate(-36 17)">
    <use xlink:href="#rim"/>
    <path pointer-events="none" fill="none" stroke="white" stroke-width="1.5" d="M0,-3.0v7 M-2.5,-0.5L0,-3.0L2.5,-0.5"/>
  </g>
  <g id="resetDef">
    <use xlink:href="#rim2" fill="#404040"><set attributeName="fill" to="#808080" begin="reset.mouseover" end="reset.mouseout"/></use>
  </g>
</defs>
<script type="application/ecmascript">
var viewWidth = 1825;
var viewHeight = 393;
var sectionId = 'dynsection-0';
</script>
<script type="application/ecmascript" xlink:href="svg.min.js"/>
<svg id="graph" class="graph">
<g id="viewport">
<title>/github/workspace/sample/kf_6x2x0_vehicle_location_unit.cpp</title>
<!-- Node1 -->
<g id="Node000001" class="node">
<title>Node1</title>
<g id="a_Node000001"><a xlink:title=" ">
<polygon fill="#999999" stroke="#666666" points="1554.5,-384.5 1422.25,-384.5 1422.25,-342.75 1554.5,-342.75 1554.5,-384.5"/>
<text text-anchor="start" x="1430.25" y="-371" font-family="Helvetica,sans-Serif" font-size="10.00">/github/workspace/sample</text>
<text text-anchor="start" x="1430.25" y="-359.75" font-family="Helvetica,sans-Serif" font-size="10.00">/kf_6x2x0_vehicle_location</text>
<text text-anchor="middle" x="1488.38" y="-348.5" font-family="Helvetica,sans-Serif" font-size="10.00">_unit.cpp</text>
</a>
</g>
</g>
<!-- Node2 -->
<g id="Node000002" class="node">
<title>Node2</title>
<g id="a_Node000002"><a xlink:href="kalman_8hpp.xhtml" target="_top" xlink:title="The Kalman filter class and library top&#45;level header.">
<polygon fill="white" stroke="#666666" points="941.38,-306.75 835.38,-306.75 835.38,-287.5 941.38,-287.5 941.38,-306.75"/>
<text text-anchor="middle" x="888.38" y="-293.25" font-family="Helvetica,sans-Serif" font-size="10.00">fcarouge/kalman.hpp</text>
</a>
</g>
</g>
<!-- Node1&#45;&gt;Node2 -->
<g id="edge1_Node000001_Node000002" class="edge">
<title>Node1&#45;&gt;Node2</title>
<g id="a_edge1_Node000001_Node000002"><a xlink:title=" ">
<path fill="none" stroke="#63b8ff" d="M1421.87,-355.48C1305.8,-343 1067.67,-317.4 952.96,-305.07"/>
<polygon fill="#63b8ff" stroke="#63b8ff" points="953.41,-301.6 943.09,-304.01 952.66,-308.56 953.41,-301.6"/>
</a>
</g>
</g>
<!-- Node11 -->
<g id="Node000011" class="node">
<title>Node11</title>
<g id="a_Node000011"><a xlink:title=" ">
<polygon fill="#e0e0e0" stroke="#999999" points="1131.25,-129.75 1087.5,-129.75 1087.5,-110.5 1131.25,-110.5 1131.25,-129.75"/>
<text text-anchor="middle" x="1109.38" y="-116.25" font-family="Helvetica,sans-Serif" font-size="10.00">format</text>
</a>
</g>
</g>
<!-- Node1&#45;&gt;Node11 -->
<g id="edge62_Node000001_Node000011" class="edge">
<title>Node1&#45;&gt;Node11</title>
<g id="a_edge62_Node000001_Node000011"><a xlink:title=" ">
<path fill="none" stroke="#63b8ff" d="M1547.23,-342.29C1636.29,-308.56 1788.18,-237.6 1721.38,-165.75 1681.8,-123.18 1264.95,-120.76 1142.82,-120.97"/>
<polygon fill="#63b8ff" stroke="#63b8ff" points="1143.13,-117.47 1133.14,-121 1143.15,-124.47 1143.13,-117.47"/>
</a>
</g>
</g>
<!-- Node26 -->
<g id="Node000026" class="node">
<title>Node26</title>
<g id="a_Node000026"><a xlink:href="quantity_8hpp.xhtml" target="_top" xlink:title="Indexed&#45;based linear algebra with mp&#45;units with Eigen implementations.">
<polygon fill="white" stroke="#666666" points="1445.5,-306.75 1337.25,-306.75 1337.25,-287.5 1445.5,-287.5 1445.5,-306.75"/>
<text text-anchor="middle" x="1391.38" y="-293.25" font-family="Helvetica,sans-Serif" font-size="10.00">fcarouge/quantity.hpp</text>
</a>
</g>
</g>
<!-- Node1&#45;&gt;Node26 -->
<g id="edge46_Node000001_Node000026" class="edge">
<title>Node1&#45;&gt;Node26</title>
<g id="a_edge46_Node000001_Node000026"><a xlink:title=" ">
<path fill="none" stroke="#63b8ff" d="M1457.95,-342.39C1443.78,-332.97 1427.21,-321.96 1414.15,-313.27"/>
<polygon fill="#63b8ff" stroke="#63b8ff" points="1416.46,-310.61 1406.2,-307.98 1412.59,-316.43 1416.46,-310.61"/>
</a>
</g>
</g>
<!-- Node29 -->
<g id="Node000029" class="node">
<title>Node29</title>
<g id="a_Node000029"><a xlink:href="unit_8hpp.xhtml" target="_top" xlink:title="Quantities and units facade for mp&#45;units third party implementation.">
<polygon fill="white" stroke="#666666" points="1533.5,-251.5 1443.25,-251.5 1443.25,-232.25 1533.5,-232.25 1533.5,-251.5"/>
<text text-anchor="middle" x="1488.38" y="-238" font-family="Helvetica,sans-Serif" font-size="10.00">fcarouge/unit.hpp</text>
</a>
</g>
</g>
<!-- Node1&#45;&gt;Node29 -->
<g id="edge60_Node000001_Node000029" class="edge">
<title>Node1&#45;&gt;Node29</title>
<g id="a_edge60_Node000001_Node000029"><a xlink:title=" ">
<path fill="none" stroke="#63b8ff" d="M1488.38,-342.31C1488.38,-320.22 1488.38,-285.13 1488.38,-263.08"/>
<polygon fill="#63b8ff" stroke="#63b8ff" points="1491.88,-263.32 1488.38,-253.32 1484.88,-263.32 1491.88,-263.32"/>
</a>
</g>
</g>
<!-- Node34 -->
<g id="Node000034" class="node">
<title>Node34</title>
<g id="a_Node000034"><a xlink:title=" ">
<polygon fill="#e0e0e0" stroke="#999999" points="1816.5,-306.75 1768.25,-306.75 1768.25,-287.5 1816.5,-287.5 1816.5,-306.75"/>
<text text-anchor="middle" x="1792.38" y="-293.25" font-family="Helvetica,sans-Serif" font-size="10.00">cassert</text>
</a>
</g>
</g>
<!-- Node1&#45;&gt;Node34 -->
<g id="edge61_Node000001_Node000034" class="edge">
<title>Node1&#45;&gt;Node34</title>
<g id="a_edge61_Node000001_Node000034"><a xlink:title=" ">
<path fill="none" stroke="#63b8ff" d="M1554.85,-348.97C1608.69,-337.84 1686.49,-321.58 1754.38,-306.75 1755.19,-306.57 1756.02,-306.39 1756.85,-306.21"/>
<polygon fill="#63b8ff" stroke="#63b8ff" points="1757.38,-309.67 1766.38,-304.08 1755.86,-302.84 1757.38,-309.67"/>
</a>
</g>
</g>
<!-- Node3 -->
<g id="Node000003" class="node">
<title>Node3</title>
<g id="a_Node000003"><a xlink:href="format_8hpp.xhtml" target="_top" xlink:title="Formatting support for the Kalman filter.">
<polygon fill="white" stroke="#666666" points="1084.25,-190.62 1022.5,-190.62 1022.5,-171.38 1084.25,-171.38 1084.25,-190.62"/>
<text text-anchor="middle" x="1053.38" y="-177.12" font-family="Helvetica,sans-Serif" font-size="10.00">format.hpp</text>
</a>
</g>
</g>
<!-- Node2&#45;&gt;Node3 -->
<g id="edge2_Node000002_Node000003" class="edge">
<title>Node2&#45;&gt;Node3</title>
<g id="a_edge2_Node000002_Node000003"><a xlink:title=" ">
<path fill="none" stroke="#63b8ff" d="M914.15,-287.03C934.28,-279.26 962.41,-266.92 984.38,-251.5 1005.81,-236.45 1026.43,-214.35 1039.46,-199.13"/>
<polygon fill="#63b8ff" stroke="#63b8ff" points="1041.83,-201.75 1045.55,-191.83 1036.46,-197.26 1041.83,-201.75"/>
</a>
</g>
</g>
<!-- Node4 -->
<g id="Node000004" class="node">
<title>Node4</title>
<g id="a_Node000004"><a xlink:href="utility_8hpp.xhtml" target="_top" xlink:title="The collection of utilities supporting the library.">
<polygon fill="white" stroke="#666666" points="768.88,-129.75 671.88,-129.75 671.88,-110.5 768.88,-110.5 768.88,-129.75"/>
<text text-anchor="middle" x="720.38" y="-116.25" font-family="Helvetica,sans-Serif" font-size="10.00">fcarouge/utility.hpp</text>
</a>
</g>
</g>
<!-- Node2&#45;&gt;Node4 -->
<g id="edge44_Node000002_Node000004" class="edge">
<title>Node2&#45;&gt;Node4</title>
<g id="a_edge44_Node000002_Node000004"><a xlink:title=" ">
<path fill="none" stroke="#63b8ff" d="M884.38,-287.24C880.33,-278.24 873.9,-263.91 868.38,-251.5 851.41,-213.42 860.32,-194.75 830.38,-165.75 814.83,-150.69 793.52,-140.47 773.79,-133.66"/>
<polygon fill="#63b8ff" stroke="#63b8ff" points="775.08,-130.4 764.48,-130.68 772.94,-137.07 775.08,-130.4"/>
</a>
</g>
</g>
<!-- Node12 -->
<g id="Node000012" class="node">
<title>Node12</title>
<g id="a_Node000012"><a xlink:href="factory_8hpp.xhtml" target="_top" xlink:title=" ">
<polygon fill="white" stroke="#666666" points="670.25,-251.5 572.5,-251.5 572.5,-232.25 670.25,-232.25 670.25,-251.5"/>
<text text-anchor="middle" x="621.38" y="-238" font-family="Helvetica,sans-Serif" font-size="10.00">internal/factory.hpp</text>
</a>
</g>
</g>
<!-- Node2&#45;&gt;Node12 -->
<g id="edge14_Node000002_Node000012" class="edge">
<title>Node2&#45;&gt;Node12</title>
<g id="a_edge14_Node000002_Node000012"><a xlink:title=" ">
<path fill="none" stroke="#63b8ff" d="M842.78,-287.03C797.18,-277.94 726.95,-263.93 677.85,-254.14"/>
<polygon fill="#63b8ff" stroke="#63b8ff" points="678.76,-250.75 668.27,-252.23 677.39,-257.62 678.76,-250.75"/>
</a>
</g>
</g>
<!-- Node23 -->
<g id="Node000023" class="node">
<title>Node23</title>
<g id="a_Node000023"><a xlink:href="printer_8hpp.xhtml" target="_top" xlink:title="Filter decoration support for printing operations.">
<polygon fill="white" stroke="#666666" points="282.88,-251.5 221.88,-251.5 221.88,-232.25 282.88,-232.25 282.88,-251.5"/>
<text text-anchor="middle" x="252.38" y="-238" font-family="Helvetica,sans-Serif" font-size="10.00">printer.hpp</text>
</a>
</g>
</g>
<!-- Node2&#45;&gt;Node23 -->
<g id="edge42_Node000002_Node000023" class="edge">
<title>Node2&#45;&gt;Node23</title>
<g id="a_edge42_Node000002_Node000023"><a xlink:title=" ">
<path fill="none" stroke="#63b8ff" d="M834.97,-291.65C711.2,-281.29 406.79,-255.8 294.7,-246.42"/>
<polygon fill="#63b8ff" stroke="#63b8ff" points="294.99,-242.93 284.74,-245.58 294.41,-249.91 294.99,-242.93"/>
</a>
</g>
</g>
<!-- Node25 -->
<g id="Node000025" class="node">
<title>Node25</title>
<g id="a_Node000025"><a xlink:title=" ">
<polygon fill="#e0e0e0" stroke="#999999" points="975.25,-251.5 877.5,-251.5 877.5,-232.25 975.25,-232.25 975.25,-251.5"/>
<text text-anchor="middle" x="926.38" y="-238" font-family="Helvetica,sans-Serif" font-size="10.00">internal/kalman.tpp</text>
</a>
</g>
</g>
<!-- Node2&#45;&gt;Node25 -->
<g id="edge45_Node000002_Node000025" class="edge">
<title>Node2&#45;&gt;Node25</title>
<g id="a_edge45_Node000002_Node000025"><a xlink:title=" ">
<path fill="none" stroke="#63b8ff" d="M894.65,-287.33C899.73,-280.21 907.07,-269.93 913.41,-261.05"/>
<polygon fill="#63b8ff" stroke="#63b8ff" points="916.12,-263.26 919.08,-253.09 910.43,-259.2 916.12,-263.26"/>
</a>
</g>
</g>
<!-- Node3&#45;&gt;Node4 -->
<g id="edge3_Node000003_Node000004" class="edge">
<title>Node3&#45;&gt;Node4</title>
<g id="a_edge3_Node000003_Node000004"><a xlink:title=" ">
<path fill="none" stroke="#63b8ff" d="M1030.93,-170.93C1025.57,-169.01 1019.82,-167.14 1014.38,-165.75 992.21,-160.08 859.75,-140.86 780.39,-129.58"/>
<polygon fill="#63b8ff" stroke="#63b8ff" points="780.97,-126.13 770.58,-128.19 779.99,-133.06 780.97,-126.13"/>
</a>
</g>
</g>
<!-- Node7 -->
<g id="Node000007" class="node">
<title>Node7</title>
<g id="a_Node000007"><a xlink:title=" ">
<polygon fill="#e0e0e0" stroke="#999999" points="1064.5,-19.25 1016.25,-19.25 1016.25,0 1064.5,0 1064.5,-19.25"/>
<text text-anchor="middle" x="1040.38" y="-5.75" font-family="Helvetica,sans-Serif" font-size="10.00">cstddef</text>
</a>
</g>
</g>
<!-- Node3&#45;&gt;Node7 -->
<g id="edge11_Node000003_Node000007" class="edge">
<title>Node3&#45;&gt;Node7</title>
<g id="a_edge11_Node000003_Node000007"><a xlink:title=" ">
<path fill="none" stroke="#63b8ff" d="M1052.68,-170.89C1050.65,-144.46 1044.72,-67.29 1041.9,-30.53"/>
<polygon fill="#63b8ff" stroke="#63b8ff" points="1045.42,-30.58 1041.16,-20.88 1038.44,-31.11 1045.42,-30.58"/>
</a>
</g>
</g>
<!-- Node8 -->
<g id="Node000008" class="node">
<title>Node8</title>
<g id="a_Node000008"><a xlink:title=" ">
<polygon fill="#e0e0e0" stroke="#999999" points="525.88,-19.25 488.88,-19.25 488.88,0 525.88,0 525.88,-19.25"/>
<text text-anchor="middle" x="507.38" y="-5.75" font-family="Helvetica,sans-Serif" font-size="10.00">tuple</text>
</a>
</g>
</g>
<!-- Node3&#45;&gt;Node8 -->
<g id="edge13_Node000003_Node000008" class="edge">
<title>Node3&#45;&gt;Node8</title>
<g id="a_edge13_Node000003_Node000008"><a xlink:title=" ">
<path fill="none" stroke="#63b8ff" d="M1029.53,-171.02C1024.55,-169.21 1019.3,-167.38 1014.38,-165.75 960.69,-148.04 944.83,-150.83 892.38,-129.75 825.52,-102.88 816.54,-78.62 748.38,-55.25 675.03,-30.11 584,-18.15 537.62,-13.34"/>
<polygon fill="#63b8ff" stroke="#63b8ff" points="538.1,-9.87 527.8,-12.37 537.41,-16.84 538.1,-9.87"/>
</a>
</g>
</g>
<!-- Node3&#45;&gt;Node11 -->
<g id="edge12_Node000003_Node000011" class="edge">
<title>Node3&#45;&gt;Node11</title>
<g id="a_edge12_Node000003_Node000011"><a xlink:title=" ">
<path fill="none" stroke="#63b8ff" d="M1061.88,-171.06C1070.1,-162.41 1082.78,-149.09 1092.97,-138.37"/>
<polygon fill="#63b8ff" stroke="#63b8ff" points="1095.39,-140.91 1099.75,-131.25 1090.32,-136.08 1095.39,-140.91"/>
</a>
</g>
</g>
<!-- Node5 -->
<g id="Node000005" class="node">
<title>Node5</title>
<g id="a_Node000005"><a xlink:href="internal_2utility_8hpp.xhtml" target="_top" xlink:title=" ">
<polygon fill="white" stroke="#666666" points="992.88,-74.5 901.88,-74.5 901.88,-55.25 992.88,-55.25 992.88,-74.5"/>
<text text-anchor="middle" x="947.38" y="-61" font-family="Helvetica,sans-Serif" font-size="10.00">internal/utility.hpp</text>
</a>
</g>
</g>
<!-- Node4&#45;&gt;Node5 -->
<g id="edge4_Node000004_Node000005" class="edge">
<title>Node4&#45;&gt;Node5</title>
<g id="a_edge4_Node000004_Node000005"><a xlink:title=" ">
<path fill="none" stroke="#63b8ff" d="M759.14,-110.03C797.42,-101.05 856.11,-87.28 897.77,-77.51"/>
<polygon fill="#63b8ff" stroke="#63b8ff" points="898.36,-80.97 907.3,-75.28 896.76,-74.15 898.36,-80.97"/>
</a>
</g>
</g>
<!-- Node4&#45;&gt;Node7 -->
<g id="edge9_Node000004_Node000007" class="edge">
<title>Node4&#45;&gt;Node7</title>
<g id="a_edge9_Node000004_Node000007"><a xlink:title=" ">
<path fill="none" stroke="#63b8ff" d="M769.24,-116.36C839.65,-111.55 965.24,-99.66 1002.38,-74.5 1018.05,-63.88 1028.24,-44.44 1034.09,-29.79"/>
<polygon fill="#63b8ff" stroke="#63b8ff" points="1037.25,-31.34 1037.35,-20.74 1030.66,-28.96 1037.25,-31.34"/>
</a>
</g>
</g>
<!-- Node10 -->
<g id="Node000010" class="node">
<title>Node10</title>
<g id="a_Node000010"><a xlink:title=" ">
<polygon fill="#e0e0e0" stroke="#999999" points="739.62,-74.5 701.12,-74.5 701.12,-55.25 739.62,-55.25 739.62,-74.5"/>
<text text-anchor="middle" x="720.38" y="-61" font-family="Helvetica,sans-Serif" font-size="10.00">utility</text>
</a>
</g>
</g>
<!-- Node4&#45;&gt;Node10 -->
<g id="edge10_Node000004_Node000010" class="edge">
<title>Node4&#45;&gt;Node10</title>
<g id="a_edge10_Node000004_Node000010"><a xlink:title=" ">
<path fill="none" stroke="#63b8ff" d="M720.38,-110.33C720.38,-103.82 720.38,-94.67 720.38,-86.37"/>
<polygon fill="#63b8ff" stroke="#63b8ff" points="723.88,-86.37 720.38,-76.37 716.88,-86.37 723.88,-86.37"/>
</a>
</g>
</g>
<!-- Node6 -->
<g id="Node000006" class="node">
<title>Node6</title>
<g id="a_Node000006"><a xlink:title=" ">
<polygon fill="#e0e0e0" stroke="#999999" points="1225.25,-19.25 1169.5,-19.25 1169.5,0 1225.25,0 1225.25,-19.25"/>
<text text-anchor="middle" x="1197.38" y="-5.75" font-family="Helvetica,sans-Serif" font-size="10.00">concepts</text>
</a>
</g>
</g>
<!-- Node5&#45;&gt;Node6 -->
<g id="edge5_Node000005_Node000006" class="edge">
<title>Node5&#45;&gt;Node6</title>
<g id="a_edge5_Node000005_Node000006"><a xlink:title=" ">
<path fill="none" stroke="#63b8ff" d="M990.07,-54.78C1037.15,-44.75 1112.28,-28.75 1157.99,-19.01"/>
<polygon fill="#63b8ff" stroke="#63b8ff" points="1158.69,-22.44 1167.75,-16.94 1157.24,-15.6 1158.69,-22.44"/>
</a>
</g>
</g>
<!-- Node5&#45;&gt;Node7 -->
<g id="edge6_Node000005_Node000007" class="edge">
<title>Node5&#45;&gt;Node7</title>
<g id="a_edge6_Node000005_Node000007"><a xlink:title=" ">
<path fill="none" stroke="#63b8ff" d="M963.15,-54.84C977.31,-46.73 998.36,-34.68 1014.9,-25.21"/>
<polygon fill="#63b8ff" stroke="#63b8ff" points="1016.27,-28.46 1023.21,-20.45 1012.79,-22.39 1016.27,-28.46"/>
</a>
</g>
</g>
<!-- Node5&#45;&gt;Node8 -->
<g id="edge7_Node000005_Node000008" class="edge">
<title>Node5&#45;&gt;Node8</title>
<g id="a_edge7_Node000005_Node000008"><a xlink:title=" ">
<path fill="none" stroke="#63b8ff" d="M901.53,-58.33C811.27,-47.4 612.76,-23.38 537.29,-14.25"/>
<polygon fill="#63b8ff" stroke="#63b8ff" points="538.12,-10.82 527.78,-13.09 537.28,-17.77 538.12,-10.82"/>
</a>
</g>
</g>
<!-- Node9 -->
<g id="Node000009" class="node">
<title>Node9</title>
<g id="a_Node000009"><a xlink:title=" ">
<polygon fill="#e0e0e0" stroke="#999999" points="903.88,-19.25 842.88,-19.25 842.88,0 903.88,0 903.88,-19.25"/>
<text text-anchor="middle" x="873.38" y="-5.75" font-family="Helvetica,sans-Serif" font-size="10.00">type_traits</text>
</a>
</g>
</g>
<!-- Node5&#45;&gt;Node9 -->
<g id="edge8_Node000005_Node000009" class="edge">
<title>Node5&#45;&gt;Node9</title>
<g id="a_edge8_Node000005_Node000009"><a xlink:title=" ">
<path fill="none" stroke="#63b8ff" d="M934.82,-54.84C923.91,-46.99 907.87,-35.45 894.91,-26.12"/>
<polygon fill="#63b8ff" stroke="#63b8ff" points="897.13,-23.41 886.97,-20.41 893.04,-29.09 897.13,-23.41"/>
</a>
</g>
</g>
<!-- Node12&#45;&gt;Node6 -->
<g id="edge40_Node000012_Node000006" class="edge">
<title>Node12&#45;&gt;Node6</title>
<g id="a_edge40_Node000012_Node000006"><a xlink:title=" ">
<path fill="none" stroke="#63b8ff" d="M670.56,-239.01C810.29,-233.48 1200.78,-216.28 1219.38,-196.25 1262.39,-149.91 1227.18,-66.58 1207.91,-29.41"/>
<polygon fill="#63b8ff" stroke="#63b8ff" points="1211.08,-27.92 1203.26,-20.78 1204.92,-31.24 1211.08,-27.92"/>
</a>
</g>
</g>
<!-- Node12&#45;&gt;Node9 -->
<g id="edge41_Node000012_Node000009" class="edge">
<title>Node12&#45;&gt;Node9</title>
<g id="a_edge41_Node000012_Node000009"><a xlink:title=" ">
<path fill="none" stroke="#63b8ff" d="M615.74,-231.92C607.52,-217.68 594.08,-189.07 602.38,-165.75 623.6,-106.07 638.86,-89.14 692.38,-55.25 734.87,-28.34 792.48,-17.66 831.19,-13.42"/>
<polygon fill="#63b8ff" stroke="#63b8ff" points="831.45,-16.91 841.05,-12.44 830.76,-9.94 831.45,-16.91"/>
</a>
</g>
</g>
<!-- Node13 -->
<g id="Node000013" class="node">
<title>Node13</title>
<g id="a_Node000013"><a xlink:href="type_8hpp.xhtml" target="_top" xlink:title=" ">
<polygon fill="white" stroke="#666666" points="1004.88,-190.62 877.88,-190.62 877.88,-171.38 1004.88,-171.38 1004.88,-190.62"/>
<text text-anchor="middle" x="941.38" y="-177.12" font-family="Helvetica,sans-Serif" font-size="10.00">fcarouge/internal/type.hpp</text>
</a>
</g>
</g>
<!-- Node12&#45;&gt;Node13 -->
<g id="edge15_Node000012_Node000013" class="edge">
<title>Node12&#45;&gt;Node13</title>
<g id="a_edge15_Node000012_Node000013"><a xlink:title=" ">
<path fill="none" stroke="#63b8ff" d="M670.67,-231.8C727.28,-221.39 820.16,-204.3 881.04,-193.1"/>
<polygon fill="#63b8ff" stroke="#63b8ff" points="881.33,-196.61 890.53,-191.35 880.06,-189.72 881.33,-196.61"/>
</a>
</g>
</g>
<!-- Node15 -->
<g id="Node000015" class="node">
<title>Node15</title>
<g id="a_Node000015"><a xlink:href="x__z__p__q__r__h__f_8hpp.xhtml" target="_top" xlink:title=" ">
<polygon fill="white" stroke="#666666" points="821.12,-196.25 725.62,-196.25 725.62,-165.75 821.12,-165.75 821.12,-196.25"/>
<text text-anchor="start" x="733.62" y="-182.75" font-family="Helvetica,sans-Serif" font-size="10.00">fcarouge/internal/x</text>
<text text-anchor="middle" x="773.38" y="-171.5" font-family="Helvetica,sans-Serif" font-size="10.00">_z_p_q_r_h_f.hpp</text>
</a>
</g>
</g>
<!-- Node12&#45;&gt;Node15 -->
<g id="edge19_Node000012_Node000015" class="edge">
<title>Node12&#45;&gt;Node15</title>
<g id="a_edge19_Node000012_Node000015"><a xlink:title=" ">
<path fill="none" stroke="#63b8ff" d="M644.79,-231.8C666.02,-223.58 697.98,-211.2 724.72,-200.85"/>
<polygon fill="#63b8ff" stroke="#63b8ff" points="725.96,-204.12 734.03,-197.24 723.44,-197.59 725.96,-204.12"/>
</a>
</g>
</g>
<!-- Node16 -->
<g id="Node000016" class="node">
<title>Node16</title>
<g id="a_Node000016"><a xlink:href="x__z__p__q__r__hh__us__ps_8hpp.xhtml" target="_top" xlink:title=" ">
<polygon fill="white" stroke="#666666" points="308.5,-196.25 188.25,-196.25 188.25,-165.75 308.5,-165.75 308.5,-196.25"/>
<text text-anchor="start" x="196.25" y="-182.75" font-family="Helvetica,sans-Serif" font-size="10.00">fcarouge/internal/x</text>
<text text-anchor="middle" x="248.38" y="-171.5" font-family="Helvetica,sans-Serif" font-size="10.00">_z_p_q_r_hh_us_ps.hpp</text>
</a>
</g>
</g>
<!-- Node12&#45;&gt;Node16 -->
<g id="edge21_Node000012_Node000016" class="edge">
<title>Node12&#45;&gt;Node16</title>
<g id="a_edge21_Node000012_Node000016"><a xlink:title=" ">
<path fill="none" stroke="#63b8ff" d="M572.17,-234.47C514.41,-226.76 415.44,-212.98 319.98,-196.47"/>
<polygon fill="#63b8ff" stroke="#63b8ff" points="320.61,-193.02 310.16,-194.75 319.41,-199.92 320.61,-193.02"/>
</a>
</g>
</g>
<!-- Node19 -->
<g id="Node000019" class="node">
<title>Node19</title>
<g id="a_Node000019"><a xlink:href="x__z__p__qq__rr__f_8hpp.xhtml" target="_top" xlink:title=" ">
<polygon fill="white" stroke="#666666" points="555.12,-196.25 459.62,-196.25 459.62,-165.75 555.12,-165.75 555.12,-196.25"/>
<text text-anchor="start" x="467.62" y="-182.75" font-family="Helvetica,sans-Serif" font-size="10.00">fcarouge/internal/x</text>
<text text-anchor="middle" x="507.38" y="-171.5" font-family="Helvetica,sans-Serif" font-size="10.00">_z_p_qq_rr_f.hpp</text>
</a>
</g>
</g>
<!-- Node12&#45;&gt;Node19 -->
<g id="edge26_Node000012_Node000019" class="edge">
<title>Node12&#45;&gt;Node19</title>
<g id="a_edge26_Node000012_Node000019"><a xlink:title=" ">
<path fill="none" stroke="#63b8ff" d="M604.06,-231.93C588.57,-223.93 565.32,-211.93 545.51,-201.69"/>
<polygon fill="#63b8ff" stroke="#63b8ff" points="547.35,-198.71 536.86,-197.23 544.14,-204.93 547.35,-198.71"/>
</a>
</g>
</g>
<!-- Node20 -->
<g id="Node000020" class="node">
<title>Node20</title>
<g id="a_Node000020"><a xlink:href="x__z__p__r__f_8hpp.xhtml" target="_top" xlink:title=" ">
<polygon fill="white" stroke="#666666" points="707.12,-196.25 611.62,-196.25 611.62,-165.75 707.12,-165.75 707.12,-196.25"/>
<text text-anchor="start" x="619.62" y="-182.75" font-family="Helvetica,sans-Serif" font-size="10.00">fcarouge/internal/x</text>
<text text-anchor="middle" x="659.38" y="-171.5" font-family="Helvetica,sans-Serif" font-size="10.00">_z_p_r_f.hpp</text>
</a>
</g>
</g>
<!-- Node12&#45;&gt;Node20 -->
<g id="edge30_Node000012_Node000020" class="edge">
<title>Node12&#45;&gt;Node20</title>
<g id="a_edge30_Node000012_Node000020"><a xlink:title=" ">
<path fill="none" stroke="#63b8ff" d="M627.15,-231.93C631.6,-225.04 637.97,-215.16 643.88,-206"/>
<polygon fill="#63b8ff" stroke="#63b8ff" points="646.69,-208.1 649.17,-197.8 640.81,-204.31 646.69,-208.1"/>
</a>
</g>
</g>
<!-- Node21 -->
<g id="Node000021" class="node">
<title>Node21</title>
<g id="a_Node000021"><a xlink:href="x__z__u__p__q__r__f__g__ps_8hpp.xhtml" target="_top" xlink:title=" ">
<polygon fill="white" stroke="#666666" points="170.38,-196.25 52.38,-196.25 52.38,-165.75 170.38,-165.75 170.38,-196.25"/>
<text text-anchor="start" x="60.38" y="-182.75" font-family="Helvetica,sans-Serif" font-size="10.00">fcarouge/internal/x</text>
<text text-anchor="middle" x="111.38" y="-171.5" font-family="Helvetica,sans-Serif" font-size="10.00">_z_u_p_q_r_f_g_ps.hpp</text>
</a>
</g>
</g>
<!-- Node12&#45;&gt;Node21 -->
<g id="edge32_Node000012_Node000021" class="edge">
<title>Node12&#45;&gt;Node21</title>
<g id="a_edge32_Node000012_Node000021"><a xlink:title=" ">
<path fill="none" stroke="#63b8ff" d="M572.1,-237.61C492.23,-231.95 329.35,-218.86 181.7,-196.5"/>
<polygon fill="#63b8ff" stroke="#63b8ff" points="182.56,-193.09 172.14,-195.04 181.5,-200.01 182.56,-193.09"/>
</a>
</g>
</g>
<!-- Node22 -->
<g id="Node000022" class="node">
<title>Node22</title>
<g id="a_Node000022"><a xlink:href="x__z__u__p__q__r__us__ps_8hpp.xhtml" target="_top" xlink:title=" ">
<polygon fill="white" stroke="#666666" points="441.88,-196.25 326.88,-196.25 326.88,-165.75 441.88,-165.75 441.88,-196.25"/>
<text text-anchor="start" x="334.88" y="-182.75" font-family="Helvetica,sans-Serif" font-size="10.00">fcarouge/internal/x</text>
<text text-anchor="middle" x="384.38" y="-171.5" font-family="Helvetica,sans-Serif" font-size="10.00">_z_u_p_q_r_us_ps.hpp</text>
</a>
</g>
</g>
<!-- Node12&#45;&gt;Node22 -->
<g id="edge36_Node000012_Node000022" class="edge">
<title>Node12&#45;&gt;Node22</title>
<g id="a_edge36_Node000012_Node000022"><a xlink:title=" ">
<path fill="none" stroke="#63b8ff" d="M584.86,-231.8C549.87,-223.11 496.15,-209.77 453.13,-199.08"/>
<polygon fill="#63b8ff" stroke="#63b8ff" points="454.17,-195.73 443.63,-196.72 452.49,-202.53 454.17,-195.73"/>
</a>
</g>
</g>
<!-- Node13&#45;&gt;Node4 -->
<g id="edge16_Node000013_Node000004" class="edge">
<title>Node13&#45;&gt;Node4</title>
<g id="a_edge16_Node000013_Node000004"><a xlink:title=" ">
<path fill="none" stroke="#63b8ff" d="M907.33,-170.93C869.29,-160.8 807.53,-144.34 765.49,-133.14"/>
<polygon fill="#63b8ff" stroke="#63b8ff" points="766.49,-129.79 755.92,-130.6 764.69,-136.55 766.49,-129.79"/>
</a>
</g>
</g>
<!-- Node13&#45;&gt;Node9 -->
<g id="edge18_Node000013_Node000009" class="edge">
<title>Node13&#45;&gt;Node9</title>
<g id="a_edge18_Node000013_Node000009"><a xlink:title=" ">
<path fill="none" stroke="#63b8ff" d="M929.13,-171.11C917.66,-162.06 901.02,-146.95 892.38,-129.75 876.36,-97.86 873.25,-55.66 872.95,-30.99"/>
<polygon fill="#63b8ff" stroke="#63b8ff" points="876.45,-31.08 873.01,-21.06 869.45,-31.04 876.45,-31.08"/>
</a>
</g>
</g>
<!-- Node14 -->
<g id="Node000014" class="node">
<title>Node14</title>
<g id="a_Node000014"><a xlink:title=" ">
<polygon fill="#e0e0e0" stroke="#999999" points="973.12,-129.75 901.62,-129.75 901.62,-110.5 973.12,-110.5 973.12,-129.75"/>
<text text-anchor="middle" x="937.38" y="-116.25" font-family="Helvetica,sans-Serif" font-size="10.00">initializer_list</text>
</a>
</g>
</g>
<!-- Node13&#45;&gt;Node14 -->
<g id="edge17_Node000013_Node000014" class="edge">
<title>Node13&#45;&gt;Node14</title>
<g id="a_edge17_Node000013_Node000014"><a xlink:title=" ">
<path fill="none" stroke="#63b8ff" d="M940.77,-171.06C940.23,-163.19 939.44,-151.45 938.75,-141.32"/>
<polygon fill="#63b8ff" stroke="#63b8ff" points="942.26,-141.4 938.09,-131.66 935.28,-141.88 942.26,-141.4"/>
</a>
</g>
</g>
<!-- Node15&#45;&gt;Node4 -->
<g id="edge20_Node000015_Node000004" class="edge">
<title>Node15&#45;&gt;Node4</title>
<g id="a_edge20_Node000015_Node000004"><a xlink:title=" ">
<path fill="none" stroke="#63b8ff" d="M760.27,-165.45C752.98,-157.34 743.85,-147.2 736.16,-138.66"/>
<polygon fill="#63b8ff" stroke="#63b8ff" points="738.85,-136.42 729.56,-131.33 733.65,-141.1 738.85,-136.42"/>
</a>
</g>
</g>
<!-- Node16&#45;&gt;Node4 -->
<g id="edge22_Node000016_Node000004" class="edge">
<title>Node16&#45;&gt;Node4</title>
<g id="a_edge22_Node000016_Node000004"><a xlink:title=" ">
<path fill="none" stroke="#63b8ff" d="M308.64,-167.37C311.93,-166.8 315.19,-166.25 318.38,-165.75 439.21,-146.78 581.72,-132.97 660.46,-126.07"/>
<polygon fill="#63b8ff" stroke="#63b8ff" points="660.44,-129.59 670.1,-125.24 659.84,-122.62 660.44,-129.59"/>
</a>
</g>
</g>
<!-- Node16&#45;&gt;Node8 -->
<g id="edge25_Node000016_Node000008" class="edge">
<title>Node16&#45;&gt;Node8</title>
<g id="a_edge25_Node000016_Node000008"><a xlink:title=" ">
<path fill="none" stroke="#63b8ff" d="M253.99,-165.51C264.92,-139.28 291.61,-83.98 332.38,-55.25 376.43,-24.2 440.22,-14.73 477.39,-11.86"/>
<polygon fill="#63b8ff" stroke="#63b8ff" points="477.19,-15.38 486.95,-11.23 476.74,-8.39 477.19,-15.38"/>
</a>
</g>
</g>
<!-- Node17 -->
<g id="Node000017" class="node">
<title>Node17</title>
<g id="a_Node000017"><a xlink:href="function_8hpp.xhtml" target="_top" xlink:title=" ">
<polygon fill="white" stroke="#666666" points="400.62,-129.75 332.12,-129.75 332.12,-110.5 400.62,-110.5 400.62,-129.75"/>
<text text-anchor="middle" x="366.38" y="-116.25" font-family="Helvetica,sans-Serif" font-size="10.00">function.hpp</text>
</a>
</g>
</g>
<!-- Node16&#45;&gt;Node17 -->
<g id="edge23_Node000016_Node000017" class="edge">
<title>Node16&#45;&gt;Node17</title>
<g id="a_edge23_Node000016_Node000017"><a xlink:title=" ">
<path fill="none" stroke="#63b8ff" d="M277.85,-165.3C296.25,-156.11 319.82,-144.36 338.01,-135.28"/>
<polygon fill="#63b8ff" stroke="#63b8ff" points="339.54,-138.43 346.92,-130.83 336.41,-132.16 339.54,-138.43"/>
</a>
</g>
</g>
<!-- Node18 -->
<g id="Node000018" class="node">
<title>Node18</title>
<g id="a_Node000018"><a xlink:title=" ">
<polygon fill="#e0e0e0" stroke="#999999" points="391.62,-74.5 341.12,-74.5 341.12,-55.25 391.62,-55.25 391.62,-74.5"/>
<text text-anchor="middle" x="366.38" y="-61" font-family="Helvetica,sans-Serif" font-size="10.00">memory</text>
</a>
</g>
</g>
<!-- Node17&#45;&gt;Node18 -->
<g id="edge24_Node000017_Node000018" class="edge">
<title>Node17&#45;&gt;Node18</title>
<g id="a_edge24_Node000017_Node000018"><a xlink:title=" ">
<path fill="none" stroke="#63b8ff" d="M366.38,-110.33C366.38,-103.82 366.38,-94.67 366.38,-86.37"/>
<polygon fill="#63b8ff" stroke="#63b8ff" points="369.88,-86.37 366.38,-76.37 362.88,-86.37 369.88,-86.37"/>
</a>
</g>
</g>
<!-- Node19&#45;&gt;Node4 -->
<g id="edge27_Node000019_Node000004" class="edge">
<title>Node19&#45;&gt;Node4</title>
<g id="a_edge27_Node000019_Node000004"><a xlink:title=" ">
<path fill="none" stroke="#63b8ff" d="M555.44,-166.71C591.76,-156.68 641.2,-143.01 676.46,-133.26"/>
<polygon fill="#63b8ff" stroke="#63b8ff" points="677.21,-136.69 685.92,-130.65 675.34,-129.94 677.21,-136.69"/>
</a>
</g>
</g>
<!-- Node19&#45;&gt;Node8 -->
<g id="edge29_Node000019_Node000008" class="edge">
<title>Node19&#45;&gt;Node8</title>
<g id="a_edge29_Node000019_Node000008"><a xlink:title=" ">
<path fill="none" stroke="#63b8ff" d="M507.38,-165.27C507.38,-135.01 507.38,-65.8 507.38,-31.16"/>
<polygon fill="#63b8ff" stroke="#63b8ff" points="510.88,-31.25 507.38,-21.25 503.88,-31.25 510.88,-31.25"/>
</a>
</g>
</g>
<!-- Node19&#45;&gt;Node17 -->
<g id="edge28_Node000019_Node000017" class="edge">
<title>Node19&#45;&gt;Node17</title>
<g id="a_edge28_Node000019_Node000017"><a xlink:title=" ">
<path fill="none" stroke="#63b8ff" d="M472.16,-165.3C449.55,-155.85 420.42,-143.69 398.45,-134.52"/>
<polygon fill="#63b8ff" stroke="#63b8ff" points="399.97,-131.36 389.4,-130.74 397.27,-137.82 399.97,-131.36"/>
</a>
</g>
</g>
<!-- Node20&#45;&gt;Node4 -->
<g id="edge31_Node000020_Node000004" class="edge">
<title>Node20&#45;&gt;Node4</title>
<g id="a_edge31_Node000020_Node000004"><a xlink:title=" ">
<path fill="none" stroke="#63b8ff" d="M674.45,-165.45C683.03,-157.17 693.81,-146.77 702.77,-138.12"/>
<polygon fill="#63b8ff" stroke="#63b8ff" points="705.12,-140.72 709.88,-131.25 700.26,-135.68 705.12,-140.72"/>
</a>
</g>
</g>
<!-- Node21&#45;&gt;Node4 -->
<g id="edge33_Node000021_Node000004" class="edge">
<title>Node21&#45;&gt;Node4</title>
<g id="a_edge33_Node000021_Node000004"><a xlink:title=" ">
<path fill="none" stroke="#63b8ff" d="M170.64,-167.13C173.59,-166.63 176.51,-166.17 179.38,-165.75 352.96,-140.5 560.12,-128.38 660.27,-123.64"/>
<polygon fill="#63b8ff" stroke="#63b8ff" points="660.31,-127.14 670.14,-123.18 659.99,-120.15 660.31,-127.14"/>
</a>
</g>
</g>
<!-- Node21&#45;&gt;Node8 -->
<g id="edge35_Node000021_Node000008" class="edge">
<title>Node21&#45;&gt;Node8</title>
<g id="a_edge35_Node000021_Node000008"><a xlink:title=" ">
<path fill="none" stroke="#63b8ff" d="M129.25,-165.45C162.22,-139.36 235.67,-84.63 306.38,-55.25 364.11,-31.26 436.78,-19.22 477.03,-14"/>
<polygon fill="#63b8ff" stroke="#63b8ff" points="477.42,-17.48 486.92,-12.78 476.57,-10.53 477.42,-17.48"/>
</a>
</g>
</g>
<!-- Node21&#45;&gt;Node17 -->
<g id="edge34_Node000021_Node000017" class="edge">
<title>Node21&#45;&gt;Node17</title>
<g id="a_edge34_Node000021_Node000017"><a xlink:title=" ">
<path fill="none" stroke="#63b8ff" d="M170.84,-166.27C216.67,-155.69 279.1,-141.28 320.97,-131.61"/>
<polygon fill="#63b8ff" stroke="#63b8ff" points="321.51,-135.08 330.47,-129.42 319.94,-128.26 321.51,-135.08"/>
</a>
</g>
</g>
<!-- Node22&#45;&gt;Node4 -->
<g id="edge37_Node000022_Node000004" class="edge">
<title>Node22&#45;&gt;Node4</title>
<g id="a_edge37_Node000022_Node000004"><a xlink:title=" ">
<path fill="none" stroke="#63b8ff" d="M442.29,-167.33C445.02,-166.78 447.73,-166.25 450.38,-165.75 522.27,-152.06 605.4,-138.68 660.22,-130.21"/>
<polygon fill="#63b8ff" stroke="#63b8ff" points="660.63,-133.68 669.98,-128.7 659.56,-126.77 660.63,-133.68"/>
</a>
</g>
</g>
<!-- Node22&#45;&gt;Node8 -->
<g id="edge39_Node000022_Node000008" class="edge">
<title>Node22&#45;&gt;Node8</title>
<g id="a_edge39_Node000022_Node000008"><a xlink:title=" ">
<path fill="none" stroke="#63b8ff" d="M395.08,-165.27C417.53,-134.34 469.53,-62.73 494.08,-28.93"/>
<polygon fill="#63b8ff" stroke="#63b8ff" points="496.83,-31.11 499.87,-20.96 491.16,-26.99 496.83,-31.11"/>
</a>
</g>
</g>
<!-- Node22&#45;&gt;Node17 -->
<g id="edge38_Node000022_Node000017" class="edge">
<title>Node22&#45;&gt;Node17</title>
<g id="a_edge38_Node000022_Node000017"><a xlink:title=" ">
<path fill="none" stroke="#63b8ff" d="M379.93,-165.45C377.69,-158.12 374.94,-149.12 372.5,-141.16"/>
<polygon fill="#63b8ff" stroke="#63b8ff" points="375.86,-140.19 369.59,-131.65 369.17,-142.24 375.86,-140.19"/>
</a>
</g>
</g>
<!-- Node24 -->
<g id="Node000024" class="node">
<title>Node24</title>
<g id="a_Node000024"><a xlink:title=" ">
<polygon fill="#e0e0e0" stroke="#999999" points="34.75,-190.62 0,-190.62 0,-171.38 34.75,-171.38 34.75,-190.62"/>
<text text-anchor="middle" x="17.38" y="-177.12" font-family="Helvetica,sans-Serif" font-size="10.00">print</text>
</a>
</g>
</g>
<!-- Node23&#45;&gt;Node24 -->
<g id="edge43_Node000023_Node000024" class="edge">
<title>Node23&#45;&gt;Node24</title>
<g id="a_edge43_Node000023_Node000024"><a xlink:title=" ">
<path fill="none" stroke="#63b8ff" d="M221.48,-237.14C179.99,-231.49 104.41,-218.94 43.38,-196.25 43.02,-196.12 42.67,-195.98 42.31,-195.84"/>
<polygon fill="#63b8ff" stroke="#63b8ff" points="44.05,-192.8 33.52,-191.7 41.07,-199.13 44.05,-192.8"/>
</a>
</g>
</g>
<!-- Node27 -->
<g id="Node000027" class="node">
<title>Node27</title>
<g id="a_Node000027"><a xlink:href="indexed_8hpp.xhtml" target="_top" xlink:title="Index typed linear algebra implementation.">
<polygon fill="white" stroke="#666666" points="1210.12,-190.62 1102.62,-190.62 1102.62,-171.38 1210.12,-171.38 1210.12,-190.62"/>
<text text-anchor="middle" x="1156.38" y="-177.12" font-family="Helvetica,sans-Serif" font-size="10.00">fcarouge/indexed.hpp</text>
</a>
</g>
</g>
<!-- Node26&#45;&gt;Node27 -->
<g id="edge47_Node000026_Node000027" class="edge">
<title>Node26&#45;&gt;Node27</title>
<g id="a_edge47_Node000026_Node000027"><a xlink:title=" ">
<path fill="none" stroke="#63b8ff" d="M1372.93,-287.17C1332.19,-267.38 1234.26,-219.82 1185.28,-196.04"/>
<polygon fill="#63b8ff" stroke="#63b8ff" points="1186.94,-192.95 1176.42,-191.73 1183.88,-199.25 1186.94,-192.95"/>
</a>
</g>
</g>
<!-- Node28 -->
<g id="Node000028" class="node">
<title>Node28</title>
<g id="a_Node000028"><a xlink:title=" ">
<polygon fill="#e0e0e0" stroke="#999999" points="1424.88,-251.5 1327.88,-251.5 1327.88,-232.25 1424.88,-232.25 1424.88,-251.5"/>
<text text-anchor="middle" x="1376.38" y="-238" font-family="Helvetica,sans-Serif" font-size="10.00">fcarouge/linalg.hpp</text>
</a>
</g>
</g>
<!-- Node26&#45;&gt;Node28 -->
<g id="edge54_Node000026_Node000028" class="edge">
<title>Node26&#45;&gt;Node28</title>
<g id="a_edge54_Node000026_Node000028"><a xlink:title=" ">
<path fill="none" stroke="#63b8ff" d="M1388.9,-287.33C1387.02,-280.67 1384.37,-271.24 1381.98,-262.78"/>
<polygon fill="#63b8ff" stroke="#63b8ff" points="1385.4,-261.99 1379.32,-253.32 1378.66,-263.89 1385.4,-261.99"/>
</a>
</g>
</g>
<!-- Node26&#45;&gt;Node29 -->
<g id="edge55_Node000026_Node000029" class="edge">
<title>Node26&#45;&gt;Node29</title>
<g id="a_edge55_Node000026_Node000029"><a xlink:title=" ">
<path fill="none" stroke="#63b8ff" d="M1407.83,-287.09C1422.6,-278.98 1444.55,-266.93 1461.81,-257.46"/>
<polygon fill="#63b8ff" stroke="#63b8ff" points="1463.43,-260.56 1470.51,-252.68 1460.06,-254.43 1463.43,-260.56"/>
</a>
</g>
</g>
<!-- Node27&#45;&gt;Node4 -->
<g id="edge48_Node000027_Node000004" class="edge">
<title>Node27&#45;&gt;Node4</title>
<g id="a_edge48_Node000027_Node000004"><a xlink:title=" ">
<path fill="none" stroke="#63b8ff" d="M1119.19,-170.92C1110.74,-169.04 1101.77,-167.2 1093.38,-165.75 983.72,-146.84 854.54,-133.31 780.57,-126.4"/>
<polygon fill="#63b8ff" stroke="#63b8ff" points="780.98,-122.92 770.7,-125.48 780.33,-129.89 780.98,-122.92"/>
</a>
</g>
</g>
<!-- Node27&#45;&gt;Node6 -->
<g id="edge49_Node000027_Node000006" class="edge">
<title>Node27&#45;&gt;Node6</title>
<g id="a_edge49_Node000027_Node000006"><a xlink:title=" ">
<path fill="none" stroke="#63b8ff" d="M1159.73,-171.21C1163.44,-161.26 1169.41,-144.51 1173.38,-129.75 1182.61,-95.38 1190.1,-54.58 1194.13,-30.75"/>
<polygon fill="#63b8ff" stroke="#63b8ff" points="1197.53,-31.61 1195.71,-21.18 1190.63,-30.47 1197.53,-31.61"/>
</a>
</g>
</g>
<!-- Node27&#45;&gt;Node7 -->
<g id="edge50_Node000027_Node000007" class="edge">
<title>Node27&#45;&gt;Node7</title>
<g id="a_edge50_Node000027_Node000007"><a xlink:title=" ">
<path fill="none" stroke="#63b8ff" d="M1155.88,-170.88C1154.78,-157.02 1151.3,-130.21 1140.38,-110.5 1120.91,-75.39 1085.48,-44.36 1062.44,-26.54"/>
<polygon fill="#63b8ff" stroke="#63b8ff" points="1064.71,-23.87 1054.61,-20.64 1060.5,-29.46 1064.71,-23.87"/>
</a>
</g>
</g>
<!-- Node27&#45;&gt;Node8 -->
<g id="edge53_Node000027_Node000008" class="edge">
<title>Node27&#45;&gt;Node8</title>
<g id="a_edge53_Node000027_Node000008"><a xlink:title=" ">
<path fill="none" stroke="#63b8ff" d="M1135.76,-170.91C1103.46,-156.87 1038.78,-129.53 982.38,-110.5 895.4,-81.15 873.04,-74.88 783.38,-55.25 694.7,-35.83 588.3,-20.97 537.39,-14.37"/>
<polygon fill="#63b8ff" stroke="#63b8ff" points="538.12,-10.94 527.75,-13.14 537.23,-17.88 538.12,-10.94"/>
</a>
</g>
</g>
<!-- Node27&#45;&gt;Node11 -->
<g id="edge51_Node000027_Node000011" class="edge">
<title>Node27&#45;&gt;Node11</title>
<g id="a_edge51_Node000027_Node000011"><a xlink:title=" ">
<path fill="none" stroke="#63b8ff" d="M1149.24,-171.06C1142.47,-162.59 1132.12,-149.62 1123.66,-139.02"/>
<polygon fill="#63b8ff" stroke="#63b8ff" points="1126.5,-136.97 1117.52,-131.33 1121.03,-141.33 1126.5,-136.97"/>
</a>
</g>
</g>
<!-- Node27&#45;&gt;Node14 -->
<g id="edge52_Node000027_Node000014" class="edge">
<title>Node27&#45;&gt;Node14</title>
<g id="a_edge52_Node000027_Node000014"><a xlink:title=" ">
<path fill="none" stroke="#63b8ff" d="M1122.64,-170.93C1084.94,-160.8 1023.74,-144.34 982.08,-133.14"/>
<polygon fill="#63b8ff" stroke="#63b8ff" points="983.18,-129.81 972.61,-130.6 981.36,-136.57 983.18,-129.81"/>
</a>
</g>
</g>
<!-- Node30 -->
<g id="Node000030" class="node">
<title>Node30</title>
<g id="a_Node000030"><a xlink:title=" ">
<polygon fill="#e0e0e0" stroke="#999999" points="1712.25,-190.62 1620.5,-190.62 1620.5,-171.38 1712.25,-171.38 1712.25,-190.62"/>
<text text-anchor="middle" x="1666.38" y="-177.12" font-family="Helvetica,sans-Serif" font-size="10.00">mp&#45;units/format.h</text>
</a>
</g>
</g>
<!-- Node29&#45;&gt;Node30 -->
<g id="edge56_Node000029_Node000030" class="edge">
<title>Node29&#45;&gt;Node30</title>
<g id="a_edge56_Node000029_Node000030"><a xlink:title=" ">
<path fill="none" stroke="#63b8ff" d="M1515.8,-231.8C1545.85,-221.86 1594.27,-205.85 1628.07,-194.67"/>
<polygon fill="#63b8ff" stroke="#63b8ff" points="1629.09,-198.02 1637.48,-191.56 1626.89,-191.37 1629.09,-198.02"/>
</a>
</g>
</g>
<!-- Node31 -->
<g id="Node000031" class="node">
<title>Node31</title>
<g id="a_Node000031"><a xlink:title=" ">
<polygon fill="#e0e0e0" stroke="#999999" points="1368.5,-196.25 1266.25,-196.25 1266.25,-165.75 1368.5,-165.75 1368.5,-196.25"/>
<text text-anchor="start" x="1274.25" y="-182.75" font-family="Helvetica,sans-Serif" font-size="10.00">mp&#45;units/framework</text>
<text text-anchor="middle" x="1317.38" y="-171.5" font-family="Helvetica,sans-Serif" font-size="10.00">/quantity.h</text>
</a>
</g>
</g>
<!-- Node29&#45;&gt;Node31 -->
<g id="edge57_Node000029_Node000031" class="edge">
<title>Node29&#45;&gt;Node31</title>
<g id="a_edge57_Node000029_Node000031"><a xlink:title=" ">
<path fill="none" stroke="#63b8ff" d="M1462.03,-231.8C1437.83,-223.47 1401.24,-210.87 1370.91,-200.43"/>
<polygon fill="#63b8ff" stroke="#63b8ff" points="1372.08,-197.13 1361.49,-197.19 1369.8,-203.75 1372.08,-197.13"/>
</a>
</g>
</g>
<!-- Node32 -->
<g id="Node000032" class="node">
<title>Node32</title>
<g id="a_Node000032"><a xlink:title=" ">
<polygon fill="#e0e0e0" stroke="#999999" points="1472.25,-190.62 1386.5,-190.62 1386.5,-171.38 1472.25,-171.38 1472.25,-190.62"/>
<text text-anchor="middle" x="1429.38" y="-177.12" font-family="Helvetica,sans-Serif" font-size="10.00">mp&#45;units/math.h</text>
</a>
</g>
</g>
<!-- Node29&#45;&gt;Node32 -->
<g id="edge58_Node000029_Node000032" class="edge">
<title>Node29&#45;&gt;Node32</title>
<g id="a_edge58_Node000029_Node000032"><a xlink:title=" ">
<path fill="none" stroke="#63b8ff" d="M1479.41,-231.93C1470.66,-223.2 1457.13,-209.69 1446.34,-198.93"/>
<polygon fill="#63b8ff" stroke="#63b8ff" points="1449.04,-196.68 1439.49,-192.1 1444.1,-201.64 1449.04,-196.68"/>
</a>
</g>
</g>
<!-- Node33 -->
<g id="Node000033" class="node">
<title>Node33</title>
<g id="a_Node000033"><a xlink:title=" ">
<polygon fill="#e0e0e0" stroke="#999999" points="1602,-190.62 1490.75,-190.62 1490.75,-171.38 1602,-171.38 1602,-190.62"/>
<text text-anchor="middle" x="1546.38" y="-177.12" font-family="Helvetica,sans-Serif" font-size="10.00">mp&#45;units/systems/si.h</text>
</a>
</g>
</g>
<!-- Node29&#45;&gt;Node33 -->
<g id="edge59_Node000029_Node000033" class="edge">
<title>Node29&#45;&gt;Node33</title>
<g id="a_edge59_Node000029_Node000033"><a xlink:title=" ">
<path fill="none" stroke="#63b8ff" d="M1497.18,-231.93C1505.79,-223.2 1519.09,-209.69 1529.7,-198.93"/>
<polygon fill="#63b8ff" stroke="#63b8ff" points="1531.9,-201.68 1536.42,-192.1 1526.91,-196.77 1531.9,-201.68"/>
</a>
</g>
</g>
</g>
</svg>

<g id="navigator" transform="translate(0 0)" fill="#404254">
  <rect fill="#f2f5e9" fill-opacity="0.5" stroke="#606060" stroke-width=".5" x="0" y="0" width="60" height="60"/>
  <use id="zoomplus" xlink:href="#zoomPlus" x="17" y="9" onmousedown="handleZoom(evt,'in')"/>
  <use id="zoomminus" xlink:href="#zoomMin" x="42" y="9" onmousedown="handleZoom(evt,'out')"/>
  <use id="reset" xlink:href="#resetDef" x="30" y="36" onmousedown="handleReset()"/>
   <use id="arrowup" xlink:href="#arrowUp" x="0" y="0" onmousedown="handlePan(0,-1)"/>
  <use id="arrowright" xlink:href="#arrowRight" x="0" y="0" onmousedown="handlePan(1,0)"/>
  <use id="arrowdown" xlink:href="#arrowDown" x="0" y="0" onmousedown="handlePan(0,1)"/>
  <use id="arrowleft" xlink:href="#arrowLeft" x="0" y="0" onmousedown="handlePan(-1,0)"/>
</g>
<svg viewBox="0 0 15 15" width="100%" height="30px" preserveAspectRatio="xMaxYMin meet">
 <g id="arrow_out" transform="scale(0.3 0.3)">
  <a xlink:href="kf__6x2x0__vehicle__location__unit_8cpp__incl_org.svg" target="_base">
   <rect id="button" ry="5" rx="5" y="6" x="6" height="38" width="38"
        fill="#f2f5e9" fill-opacity="0.5" stroke="#606060" stroke-width="1.0"/>
   <path id="arrow"
     d="M 11.500037,31.436501 C 11.940474,20.09759 22.043105,11.32322 32.158766,21.979434 L 37.068811,17.246167 C 37.068811,17.246167 37.088388,32 37.088388,32 L 22.160133,31.978069 C 22.160133,31.978069 26.997745,27.140456 26.997745,27.140456 C 18.528582,18.264221 13.291696,25.230495 11.500037,31.436501 z"
     style="fill:#404040;"/>
  </a>
 </g>
</svg>

<style type='text/css'>
<![CDATA[
[data-mouse-over-selected='false'] { opacity: 0.7; }
[data-mouse-over-selected='true']  { opacity: 1.0; }
]]>
</style>
<script type="application/ecmascript"><![CDATA[
document.addEventListener('DOMContentLoaded', (event) => {
  highlightEdges();
  highlightAdjacentNodes();
});
]]></script>
</svg>
