<?xml version="1.0" encoding="UTF-8" standalone="no"?>
<!DOCTYPE svg PUBLIC "-//W3C//DTD SVG 1.1//EN"
 "http://www.w3.org/Graphics/SVG/1.1/DTD/svg11.dtd">
<!-- Generated by graphviz version 12.2.0 (20241103.1931)
 -->
<!-- Title: /github/workspace/sample/kf_6x2x0_vehicle_location_unit.cpp Pages: 1 -->
<svg width="2049pt" height="404pt"
 viewBox="0.00 0.00 2048.50 403.75" xmlns="http://www.w3.org/2000/svg" xmlns:xlink="http://www.w3.org/1999/xlink">
<g id="graph0" class="graph" transform="scale(1 1) rotate(0) translate(4 399.75)">
<title>/github/workspace/sample/kf_6x2x0_vehicle_location_unit.cpp</title>
<!-- Node1 -->
<g id="Node000001" class="node">
<title>Node1</title>
<g id="a_Node000001"><a xlink:title=" ">
<polygon fill="#999999" stroke="#666666" points="1776.5,-395.75 1644.25,-395.75 1644.25,-354 1776.5,-354 1776.5,-395.75"/>
<text text-anchor="start" x="1652.25" y="-382.25" font-family="Helvetica,sans-Serif" font-size="10.00">/github/workspace/sample</text>
<text text-anchor="start" x="1652.25" y="-371" font-family="Helvetica,sans-Serif" font-size="10.00">/kf_6x2x0_vehicle_location</text>
<text text-anchor="middle" x="1710.38" y="-359.75" font-family="Helvetica,sans-Serif" font-size="10.00">_unit.cpp</text>
</a>
</g>
</g>
<!-- Node2 -->
<g id="Node000002" class="node">
<title>Node2</title>
<g id="a_Node000002"><a xlink:href="kalman_8hpp.xhtml" target="_top" xlink:title="The Kalman filter class and library top&#45;level header.">
<polygon fill="white" stroke="#666666" points="974.38,-318 868.38,-318 868.38,-298.75 974.38,-298.75 974.38,-318"/>
<text text-anchor="middle" x="921.38" y="-304.5" font-family="Helvetica,sans-Serif" font-size="10.00">fcarouge/kalman.hpp</text>
</a>
</g>
</g>
<!-- Node1&#45;&gt;Node2 -->
<g id="edge1_Node000001_Node000002" class="edge">
<title>Node1&#45;&gt;Node2</title>
<g id="a_edge1_Node000001_Node000002"><a xlink:title=" ">
<path fill="none" stroke="#63b8ff" d="M1643.79,-368.43C1494.24,-356.21 1133.35,-326.7 985.83,-314.64"/>
<polygon fill="#63b8ff" stroke="#63b8ff" points="986.51,-311.19 976.26,-313.86 985.94,-318.16 986.51,-311.19"/>
</a>
</g>
</g>
<!-- Node11 -->
<g id="Node000011" class="node">
<title>Node11</title>
<g id="a_Node000011"><a xlink:title=" ">
<polygon fill="#e0e0e0" stroke="#999999" points="1351.25,-129.75 1307.5,-129.75 1307.5,-110.5 1351.25,-110.5 1351.25,-129.75"/>
<text text-anchor="middle" x="1329.38" y="-116.25" font-family="Helvetica,sans-Serif" font-size="10.00">format</text>
</a>
</g>
</g>
<!-- Node1&#45;&gt;Node11 -->
<g id="edge68_Node000001_Node000011" class="edge">
<title>Node1&#45;&gt;Node11</title>
<g id="a_edge68_Node000001_Node000011"><a xlink:title=" ">
<path fill="none" stroke="#63b8ff" d="M1766.08,-353.5C1855.71,-317.85 2015.16,-240.77 1945.38,-165.75 1905.49,-122.87 1485.04,-120.68 1362.63,-120.96"/>
<polygon fill="#63b8ff" stroke="#63b8ff" points="1362.92,-117.46 1352.93,-120.99 1362.94,-124.46 1362.92,-117.46"/>
</a>
</g>
</g>
<!-- Node28 -->
<g id="Node000028" class="node">
<title>Node28</title>
<g id="a_Node000028"><a xlink:href="quantity_8hpp.xhtml" target="_top" xlink:title="Indexed&#45;based linear algebra with mp&#45;units with Eigen implementations.">
<polygon fill="white" stroke="#666666" points="1667.5,-318 1559.25,-318 1559.25,-298.75 1667.5,-298.75 1667.5,-318"/>
<text text-anchor="middle" x="1613.38" y="-304.5" font-family="Helvetica,sans-Serif" font-size="10.00">fcarouge/quantity.hpp</text>
</a>
</g>
</g>
<!-- Node1&#45;&gt;Node28 -->
<g id="edge52_Node000001_Node000028" class="edge">
<title>Node1&#45;&gt;Node28</title>
<g id="a_edge52_Node000001_Node000028"><a xlink:title=" ">
<path fill="none" stroke="#63b8ff" d="M1679.95,-353.64C1665.78,-344.22 1649.21,-333.21 1636.15,-324.52"/>
<polygon fill="#63b8ff" stroke="#63b8ff" points="1638.46,-321.86 1628.2,-319.23 1634.59,-327.68 1638.46,-321.86"/>
</a>
</g>
</g>
<!-- Node31 -->
<g id="Node000031" class="node">
<title>Node31</title>
<g id="a_Node000031"><a xlink:href="unit_8hpp.xhtml" target="_top" xlink:title="Quantities and units facade for mp&#45;units third party implementation.">
<polygon fill="white" stroke="#666666" points="1755.5,-262.75 1665.25,-262.75 1665.25,-243.5 1755.5,-243.5 1755.5,-262.75"/>
<text text-anchor="middle" x="1710.38" y="-249.25" font-family="Helvetica,sans-Serif" font-size="10.00">fcarouge/unit.hpp</text>
</a>
</g>
</g>
<!-- Node1&#45;&gt;Node31 -->
<g id="edge66_Node000001_Node000031" class="edge">
<title>Node1&#45;&gt;Node31</title>
<g id="a_edge66_Node000001_Node000031"><a xlink:title=" ">
<path fill="none" stroke="#63b8ff" d="M1710.38,-353.56C1710.38,-331.47 1710.38,-296.38 1710.38,-274.33"/>
<polygon fill="#63b8ff" stroke="#63b8ff" points="1713.88,-274.57 1710.38,-264.57 1706.88,-274.57 1713.88,-274.57"/>
</a>
</g>
</g>
<!-- Node36 -->
<g id="Node000036" class="node">
<title>Node36</title>
<g id="a_Node000036"><a xlink:title=" ">
<polygon fill="#e0e0e0" stroke="#999999" points="2040.5,-318 1992.25,-318 1992.25,-298.75 2040.5,-298.75 2040.5,-318"/>
<text text-anchor="middle" x="2016.38" y="-304.5" font-family="Helvetica,sans-Serif" font-size="10.00">cassert</text>
</a>
</g>
</g>
<!-- Node1&#45;&gt;Node36 -->
<g id="edge67_Node000001_Node000036" class="edge">
<title>Node1&#45;&gt;Node36</title>
<g id="a_edge67_Node000001_Node000036"><a xlink:title=" ">
<path fill="none" stroke="#63b8ff" d="M1776.8,-360.37C1831.08,-349.25 1909.76,-332.94 1978.38,-318 1979.19,-317.82 1980.02,-317.64 1980.86,-317.46"/>
<polygon fill="#63b8ff" stroke="#63b8ff" points="1981.38,-320.93 1990.38,-315.34 1979.86,-314.09 1981.38,-320.93"/>
</a>
</g>
</g>
<!-- Node3 -->
<g id="Node000003" class="node">
<title>Node3</title>
<g id="a_Node000003"><a xlink:href="format_8hpp.xhtml" target="_top" xlink:title="Formatting support for the Kalman filter.">
<polygon fill="white" stroke="#666666" points="1308.25,-196.25 1246.5,-196.25 1246.5,-177 1308.25,-177 1308.25,-196.25"/>
<text text-anchor="middle" x="1277.38" y="-182.75" font-family="Helvetica,sans-Serif" font-size="10.00">format.hpp</text>
</a>
</g>
</g>
<!-- Node2&#45;&gt;Node3 -->
<g id="edge2_Node000002_Node000003" class="edge">
<title>Node2&#45;&gt;Node3</title>
<g id="a_edge2_Node000002_Node000003"><a xlink:title=" ">
<path fill="none" stroke="#63b8ff" d="M958.9,-298.29C992.72,-289.87 1043.7,-276.58 1087.38,-262.75 1155.5,-241.18 1172.86,-236.05 1238.38,-207.5 1242.49,-205.71 1246.78,-203.68 1250.95,-201.63"/>
<polygon fill="#63b8ff" stroke="#63b8ff" points="1252.2,-204.92 1259.54,-197.27 1249.04,-198.68 1252.2,-204.92"/>
</a>
</g>
</g>
<!-- Node4 -->
<g id="Node000004" class="node">
<title>Node4</title>
<g id="a_Node000004"><a xlink:href="utility_8hpp.xhtml" target="_top" xlink:title="The collection of utilities supporting the library.">
<polygon fill="white" stroke="#666666" points="945.88,-129.75 848.88,-129.75 848.88,-110.5 945.88,-110.5 945.88,-129.75"/>
<text text-anchor="middle" x="897.38" y="-116.25" font-family="Helvetica,sans-Serif" font-size="10.00">fcarouge/utility.hpp</text>
</a>
</g>
</g>
<!-- Node2&#45;&gt;Node4 -->
<g id="edge50_Node000002_Node000004" class="edge">
<title>Node2&#45;&gt;Node4</title>
<g id="a_edge50_Node000002_Node000004"><a xlink:title=" ">
<path fill="none" stroke="#63b8ff" d="M942.11,-298.39C988.89,-276.86 1095.44,-220.12 1054.38,-165.75 1042.38,-149.87 996.28,-137.98 957.11,-130.49"/>
<polygon fill="#63b8ff" stroke="#63b8ff" points="957.98,-127.09 947.51,-128.72 956.71,-133.97 957.98,-127.09"/>
</a>
</g>
</g>
<!-- Node12 -->
<g id="Node000012" class="node">
<title>Node12</title>
<g id="a_Node000012"><a xlink:href="factory_8hpp.xhtml" target="_top" xlink:title=" ">
<polygon fill="white" stroke="#666666" points="818.25,-262.75 720.5,-262.75 720.5,-243.5 818.25,-243.5 818.25,-262.75"/>
<text text-anchor="middle" x="769.38" y="-249.25" font-family="Helvetica,sans-Serif" font-size="10.00">internal/factory.hpp</text>
</a>
</g>
</g>
<!-- Node2&#45;&gt;Node12 -->
<g id="edge14_Node000002_Node000012" class="edge">
<title>Node2&#45;&gt;Node12</title>
<g id="a_edge14_Node000002_Node000012"><a xlink:title=" ">
<path fill="none" stroke="#63b8ff" d="M895.59,-298.34C871.02,-289.74 833.79,-276.69 806.12,-267"/>
<polygon fill="#63b8ff" stroke="#63b8ff" points="807.31,-263.71 796.71,-263.7 805,-270.31 807.31,-263.71"/>
</a>
</g>
</g>
<!-- Node25 -->
<g id="Node000025" class="node">
<title>Node25</title>
<g id="a_Node000025"><a xlink:href="printer_8hpp.xhtml" target="_top" xlink:title="Filter decoration support for printing operations.">
<polygon fill="white" stroke="#666666" points="702.88,-262.75 641.88,-262.75 641.88,-243.5 702.88,-243.5 702.88,-262.75"/>
<text text-anchor="middle" x="672.38" y="-249.25" font-family="Helvetica,sans-Serif" font-size="10.00">printer.hpp</text>
</a>
</g>
</g>
<!-- Node2&#45;&gt;Node25 -->
<g id="edge48_Node000002_Node000025" class="edge">
<title>Node2&#45;&gt;Node25</title>
<g id="a_edge48_Node000002_Node000025"><a xlink:title=" ">
<path fill="none" stroke="#63b8ff" d="M878.32,-298.33C838.26,-289.9 776.59,-276.85 714.26,-263.36"/>
<polygon fill="#63b8ff" stroke="#63b8ff" points="715.02,-259.95 704.51,-261.25 713.54,-266.79 715.02,-259.95"/>
</a>
</g>
</g>
<!-- Node27 -->
<g id="Node000027" class="node">
<title>Node27</title>
<g id="a_Node000027"><a xlink:title=" ">
<polygon fill="#e0e0e0" stroke="#999999" points="624.25,-262.75 526.5,-262.75 526.5,-243.5 624.25,-243.5 624.25,-262.75"/>
<text text-anchor="middle" x="575.38" y="-249.25" font-family="Helvetica,sans-Serif" font-size="10.00">internal/kalman.tpp</text>
</a>
</g>
</g>
<!-- Node2&#45;&gt;Node27 -->
<g id="edge51_Node000002_Node000027" class="edge">
<title>Node2&#45;&gt;Node27</title>
<g id="a_edge51_Node000002_Node000027"><a xlink:title=" ">
<path fill="none" stroke="#63b8ff" d="M868.07,-299.17C805.26,-289.51 701.17,-273.49 635.53,-263.38"/>
<polygon fill="#63b8ff" stroke="#63b8ff" points="636.45,-259.98 626.03,-261.92 635.38,-266.9 636.45,-259.98"/>
</a>
</g>
</g>
<!-- Node3&#45;&gt;Node4 -->
<g id="edge3_Node000003_Node000004" class="edge">
<title>Node3&#45;&gt;Node4</title>
<g id="a_edge3_Node000003_Node000004"><a xlink:title=" ">
<path fill="none" stroke="#63b8ff" d="M1262.7,-176.64C1255.59,-172.69 1246.79,-168.36 1238.38,-165.75 1212.19,-157.63 1048.09,-138.2 957.42,-127.86"/>
<polygon fill="#63b8ff" stroke="#63b8ff" points="958.04,-124.41 947.71,-126.75 957.25,-131.36 958.04,-124.41"/>
</a>
</g>
</g>
<!-- Node7 -->
<g id="Node000007" class="node">
<title>Node7</title>
<g id="a_Node000007"><a xlink:title=" ">
<polygon fill="#e0e0e0" stroke="#999999" points="1283.5,-19.25 1235.25,-19.25 1235.25,0 1283.5,0 1283.5,-19.25"/>
<text text-anchor="middle" x="1259.38" y="-5.75" font-family="Helvetica,sans-Serif" font-size="10.00">cstddef</text>
</a>
</g>
</g>
<!-- Node3&#45;&gt;Node7 -->
<g id="edge11_Node000003_Node000007" class="edge">
<title>Node3&#45;&gt;Node7</title>
<g id="a_edge11_Node000003_Node000007"><a xlink:title=" ">
<path fill="none" stroke="#63b8ff" d="M1276.46,-176.71C1273.69,-149.8 1265.37,-68.94 1261.46,-30.87"/>
<polygon fill="#63b8ff" stroke="#63b8ff" points="1264.97,-30.83 1260.47,-21.24 1258.01,-31.55 1264.97,-30.83"/>
</a>
</g>
</g>
<!-- Node8 -->
<g id="Node000008" class="node">
<title>Node8</title>
<g id="a_Node000008"><a xlink:title=" ">
<polygon fill="#e0e0e0" stroke="#999999" points="563.88,-19.25 526.88,-19.25 526.88,0 563.88,0 563.88,-19.25"/>
<text text-anchor="middle" x="545.38" y="-5.75" font-family="Helvetica,sans-Serif" font-size="10.00">tuple</text>
</a>
</g>
</g>
<!-- Node3&#45;&gt;Node8 -->
<g id="edge13_Node000003_Node000008" class="edge">
<title>Node3&#45;&gt;Node8</title>
<g id="a_edge13_Node000003_Node000008"><a xlink:title=" ">
<path fill="none" stroke="#63b8ff" d="M1261.38,-176.58C1254.45,-172.9 1246.16,-168.8 1238.38,-165.75 1183.76,-144.33 1166.9,-148.68 1111.38,-129.75 1027.09,-101.01 1011.68,-77.19 925.38,-55.25 798.06,-22.89 640.69,-13.89 575.67,-11.48"/>
<polygon fill="#63b8ff" stroke="#63b8ff" points="575.9,-7.98 565.79,-11.14 575.66,-14.98 575.9,-7.98"/>
</a>
</g>
</g>
<!-- Node3&#45;&gt;Node11 -->
<g id="edge12_Node000003_Node000011" class="edge">
<title>Node3&#45;&gt;Node11</title>
<g id="a_edge12_Node000003_Node000011"><a xlink:title=" ">
<path fill="none" stroke="#63b8ff" d="M1284.61,-176.66C1292.44,-166.93 1305.16,-151.16 1315.04,-138.91"/>
<polygon fill="#63b8ff" stroke="#63b8ff" points="1317.7,-141.18 1321.26,-131.2 1312.25,-136.78 1317.7,-141.18"/>
</a>
</g>
</g>
<!-- Node5 -->
<g id="Node000005" class="node">
<title>Node5</title>
<g id="a_Node000005"><a xlink:href="internal_2utility_8hpp.xhtml" target="_top" xlink:title=" ">
<polygon fill="white" stroke="#666666" points="1211.88,-74.5 1120.88,-74.5 1120.88,-55.25 1211.88,-55.25 1211.88,-74.5"/>
<text text-anchor="middle" x="1166.38" y="-61" font-family="Helvetica,sans-Serif" font-size="10.00">internal/utility.hpp</text>
</a>
</g>
</g>
<!-- Node4&#45;&gt;Node5 -->
<g id="edge4_Node000004_Node000005" class="edge">
<title>Node4&#45;&gt;Node5</title>
<g id="a_edge4_Node000004_Node000005"><a xlink:title=" ">
<path fill="none" stroke="#63b8ff" d="M943.31,-110.03C989.25,-100.94 1060.01,-86.93 1109.48,-77.14"/>
<polygon fill="#63b8ff" stroke="#63b8ff" points="1110.01,-80.6 1119.14,-75.22 1108.65,-73.73 1110.01,-80.6"/>
</a>
</g>
</g>
<!-- Node4&#45;&gt;Node7 -->
<g id="edge9_Node000004_Node000007" class="edge">
<title>Node4&#45;&gt;Node7</title>
<g id="a_edge9_Node000004_Node000007"><a xlink:title=" ">
<path fill="none" stroke="#63b8ff" d="M946.29,-117.51C1025.46,-114.07 1177.25,-103.76 1221.38,-74.5 1237.16,-64.03 1247.33,-44.57 1253.14,-29.87"/>
<polygon fill="#63b8ff" stroke="#63b8ff" points="1256.32,-31.39 1256.38,-20.79 1249.73,-29.03 1256.32,-31.39"/>
</a>
</g>
</g>
<!-- Node10 -->
<g id="Node000010" class="node">
<title>Node10</title>
<g id="a_Node000010"><a xlink:title=" ">
<polygon fill="#e0e0e0" stroke="#999999" points="916.62,-74.5 878.12,-74.5 878.12,-55.25 916.62,-55.25 916.62,-74.5"/>
<text text-anchor="middle" x="897.38" y="-61" font-family="Helvetica,sans-Serif" font-size="10.00">utility</text>
</a>
</g>
</g>
<!-- Node4&#45;&gt;Node10 -->
<g id="edge10_Node000004_Node000010" class="edge">
<title>Node4&#45;&gt;Node10</title>
<g id="a_edge10_Node000004_Node000010"><a xlink:title=" ">
<path fill="none" stroke="#63b8ff" d="M897.38,-110.33C897.38,-103.82 897.38,-94.67 897.38,-86.37"/>
<polygon fill="#63b8ff" stroke="#63b8ff" points="900.88,-86.37 897.38,-76.37 893.88,-86.37 900.88,-86.37"/>
</a>
</g>
</g>
<!-- Node6 -->
<g id="Node000006" class="node">
<title>Node6</title>
<g id="a_Node000006"><a xlink:title=" ">
<polygon fill="#e0e0e0" stroke="#999999" points="1445.25,-19.25 1389.5,-19.25 1389.5,0 1445.25,0 1445.25,-19.25"/>
<text text-anchor="middle" x="1417.38" y="-5.75" font-family="Helvetica,sans-Serif" font-size="10.00">concepts</text>
</a>
</g>
</g>
<!-- Node5&#45;&gt;Node6 -->
<g id="edge5_Node000005_Node000006" class="edge">
<title>Node5&#45;&gt;Node6</title>
<g id="a_edge5_Node000005_Node000006"><a xlink:title=" ">
<path fill="none" stroke="#63b8ff" d="M1209.24,-54.78C1256.61,-44.73 1332.26,-28.68 1378.13,-18.95"/>
<polygon fill="#63b8ff" stroke="#63b8ff" points="1378.58,-22.43 1387.63,-16.93 1377.12,-15.59 1378.58,-22.43"/>
</a>
</g>
</g>
<!-- Node5&#45;&gt;Node7 -->
<g id="edge6_Node000005_Node000007" class="edge">
<title>Node5&#45;&gt;Node7</title>
<g id="a_edge6_Node000005_Node000007"><a xlink:title=" ">
<path fill="none" stroke="#63b8ff" d="M1182.15,-54.84C1196.31,-46.73 1217.36,-34.68 1233.9,-25.21"/>
<polygon fill="#63b8ff" stroke="#63b8ff" points="1235.27,-28.46 1242.21,-20.45 1231.79,-22.39 1235.27,-28.46"/>
</a>
</g>
</g>
<!-- Node5&#45;&gt;Node8 -->
<g id="edge7_Node000005_Node000008" class="edge">
<title>Node5&#45;&gt;Node8</title>
<g id="a_edge7_Node000005_Node000008"><a xlink:title=" ">
<path fill="none" stroke="#63b8ff" d="M1120.51,-59.81C1104.07,-58.36 1085.39,-56.72 1068.38,-55.25 880.98,-39.01 655.78,-19.95 575.56,-13.17"/>
<polygon fill="#63b8ff" stroke="#63b8ff" points="576.14,-9.71 565.88,-12.36 575.55,-16.68 576.14,-9.71"/>
</a>
</g>
</g>
<!-- Node9 -->
<g id="Node000009" class="node">
<title>Node9</title>
<g id="a_Node000009"><a xlink:title=" ">
<polygon fill="#e0e0e0" stroke="#999999" points="1122.88,-19.25 1061.88,-19.25 1061.88,0 1122.88,0 1122.88,-19.25"/>
<text text-anchor="middle" x="1092.38" y="-5.75" font-family="Helvetica,sans-Serif" font-size="10.00">type_traits</text>
</a>
</g>
</g>
<!-- Node5&#45;&gt;Node9 -->
<g id="edge8_Node000005_Node000009" class="edge">
<title>Node5&#45;&gt;Node9</title>
<g id="a_edge8_Node000005_Node000009"><a xlink:title=" ">
<path fill="none" stroke="#63b8ff" d="M1153.82,-54.84C1142.91,-46.99 1126.87,-35.45 1113.91,-26.12"/>
<polygon fill="#63b8ff" stroke="#63b8ff" points="1116.13,-23.41 1105.97,-20.41 1112.04,-29.09 1116.13,-23.41"/>
</a>
</g>
</g>
<!-- Node12&#45;&gt;Node6 -->
<g id="edge46_Node000012_Node000006" class="edge">
<title>Node12&#45;&gt;Node6</title>
<g id="a_edge46_Node000012_Node000006"><a xlink:title=" ">
<path fill="none" stroke="#63b8ff" d="M818.5,-252.64C966.55,-253.7 1400.9,-252.88 1443.38,-207.5 1489.69,-158.02 1449.54,-68.43 1428.41,-29.52"/>
<polygon fill="#63b8ff" stroke="#63b8ff" points="1431.5,-27.88 1423.55,-20.88 1425.4,-31.31 1431.5,-27.88"/>
</a>
</g>
</g>
<!-- Node12&#45;&gt;Node9 -->
<g id="edge47_Node000012_Node000009" class="edge">
<title>Node12&#45;&gt;Node9</title>
<g id="a_edge47_Node000012_Node000009"><a xlink:title=" ">
<path fill="none" stroke="#63b8ff" d="M750.18,-243C736.87,-235.52 720.19,-223.54 712.38,-207.5 704.25,-190.82 703.83,-182.22 712.38,-165.75 776.72,-41.77 965.34,-16.7 1050.18,-11.76"/>
<polygon fill="#63b8ff" stroke="#63b8ff" points="1050.12,-15.27 1059.93,-11.27 1049.76,-8.28 1050.12,-15.27"/>
</a>
</g>
</g>
<!-- Node13 -->
<g id="Node000013" class="node">
<title>Node13</title>
<g id="a_Node000013"><a xlink:href="type_8hpp.xhtml" target="_top" xlink:title=" ">
<polygon fill="white" stroke="#666666" points="1228.88,-196.25 1101.88,-196.25 1101.88,-177 1228.88,-177 1228.88,-196.25"/>
<text text-anchor="middle" x="1165.38" y="-182.75" font-family="Helvetica,sans-Serif" font-size="10.00">fcarouge/internal/type.hpp</text>
</a>
</g>
</g>
<!-- Node12&#45;&gt;Node13 -->
<g id="edge15_Node000012_Node000013" class="edge">
<title>Node12&#45;&gt;Node13</title>
<g id="a_edge15_Node000012_Node000013"><a xlink:title=" ">
<path fill="none" stroke="#63b8ff" d="M818.6,-244.75C875.45,-236.16 971.77,-221.36 1054.38,-207.5 1070.77,-204.75 1088.5,-201.64 1104.87,-198.71"/>
<polygon fill="#63b8ff" stroke="#63b8ff" points="1105.25,-202.19 1114.47,-196.98 1104.01,-195.3 1105.25,-202.19"/>
</a>
</g>
</g>
<!-- Node15 -->
<g id="Node000015" class="node">
<title>Node15</title>
<g id="a_Node000015"><a xlink:href="x__z__p__q__r__h__f_8hpp.xhtml" target="_top" xlink:title=" ">
<polygon fill="white" stroke="#666666" points="931.12,-201.88 835.62,-201.88 835.62,-171.38 931.12,-171.38 931.12,-201.88"/>
<text text-anchor="start" x="843.62" y="-188.38" font-family="Helvetica,sans-Serif" font-size="10.00">fcarouge/internal/x</text>
<text text-anchor="middle" x="883.38" y="-177.12" font-family="Helvetica,sans-Serif" font-size="10.00">_z_p_q_r_h_f.hpp</text>
</a>
</g>
</g>
<!-- Node12&#45;&gt;Node15 -->
<g id="edge19_Node000012_Node000015" class="edge">
<title>Node12&#45;&gt;Node15</title>
<g id="a_edge19_Node000012_Node000015"><a xlink:title=" ">
<path fill="none" stroke="#63b8ff" d="M785.23,-243.16C801.31,-234.05 826.77,-219.65 847.72,-207.8"/>
<polygon fill="#63b8ff" stroke="#63b8ff" points="849.29,-210.93 856.27,-202.96 845.84,-204.84 849.29,-210.93"/>
</a>
</g>
</g>
<!-- Node16 -->
<g id="Node000016" class="node">
<title>Node16</title>
<g id="a_Node000016"><a xlink:href="x__z__p__q__r__hh__us__ps_8hpp.xhtml" target="_top" xlink:title=" ">
<polygon fill="white" stroke="#666666" points="173.5,-201.88 53.25,-201.88 53.25,-171.38 173.5,-171.38 173.5,-201.88"/>
<text text-anchor="start" x="61.25" y="-188.38" font-family="Helvetica,sans-Serif" font-size="10.00">fcarouge/internal/x</text>
<text text-anchor="middle" x="113.38" y="-177.12" font-family="Helvetica,sans-Serif" font-size="10.00">_z_p_q_r_hh_us_ps.hpp</text>
</a>
</g>
</g>
<!-- Node12&#45;&gt;Node16 -->
<g id="edge21_Node000012_Node000016" class="edge">
<title>Node12&#45;&gt;Node16</title>
<g id="a_edge21_Node000012_Node000016"><a xlink:title=" ">
<path fill="none" stroke="#63b8ff" d="M720.28,-244.43C717.61,-244.1 714.96,-243.78 712.38,-243.5 477.68,-217.82 414.9,-248.41 182.38,-207.5 178.51,-206.82 174.56,-206.01 170.59,-205.11"/>
<polygon fill="#63b8ff" stroke="#63b8ff" points="171.47,-201.72 160.92,-202.72 169.79,-208.51 171.47,-201.72"/>
</a>
</g>
</g>
<!-- Node19 -->
<g id="Node000019" class="node">
<title>Node19</title>
<g id="a_Node000019"><a xlink:href="x__z__p__qq__rr__f_8hpp.xhtml" target="_top" xlink:title=" ">
<polygon fill="white" stroke="#666666" points="287.12,-201.88 191.62,-201.88 191.62,-171.38 287.12,-171.38 287.12,-201.88"/>
<text text-anchor="start" x="199.62" y="-188.38" font-family="Helvetica,sans-Serif" font-size="10.00">fcarouge/internal/x</text>
<text text-anchor="middle" x="239.38" y="-177.12" font-family="Helvetica,sans-Serif" font-size="10.00">_z_p_qq_rr_f.hpp</text>
</a>
</g>
</g>
<!-- Node12&#45;&gt;Node19 -->
<g id="edge26_Node000012_Node000019" class="edge">
<title>Node12&#45;&gt;Node19</title>
<g id="a_edge26_Node000012_Node000019"><a xlink:title=" ">
<path fill="none" stroke="#63b8ff" d="M720.28,-244.49C717.61,-244.14 714.96,-243.81 712.38,-243.5 528.09,-221.61 477.84,-246.35 296.38,-207.5 293.74,-206.94 291.05,-206.28 288.36,-205.57"/>
<polygon fill="#63b8ff" stroke="#63b8ff" points="289.36,-202.21 278.78,-202.75 287.39,-208.93 289.36,-202.21"/>
</a>
</g>
</g>
<!-- Node20 -->
<g id="Node000020" class="node">
<title>Node20</title>
<g id="a_Node000020"><a xlink:href="x__z__p__r_8hpp.xhtml" target="_top" xlink:title=" ">
<polygon fill="white" stroke="#666666" points="1045.12,-201.88 949.62,-201.88 949.62,-171.38 1045.12,-171.38 1045.12,-201.88"/>
<text text-anchor="start" x="957.62" y="-188.38" font-family="Helvetica,sans-Serif" font-size="10.00">fcarouge/internal/x</text>
<text text-anchor="middle" x="997.38" y="-177.12" font-family="Helvetica,sans-Serif" font-size="10.00">_z_p_r.hpp</text>
</a>
</g>
</g>
<!-- Node12&#45;&gt;Node20 -->
<g id="edge30_Node000012_Node000020" class="edge">
<title>Node12&#45;&gt;Node20</title>
<g id="a_edge30_Node000012_Node000020"><a xlink:title=" ">
<path fill="none" stroke="#63b8ff" d="M807.65,-243.07C842.47,-234.61 895.17,-221.25 940.38,-207.5 942.09,-206.98 943.82,-206.44 945.57,-205.89"/>
<polygon fill="#63b8ff" stroke="#63b8ff" points="946.55,-209.25 954.97,-202.82 944.38,-202.6 946.55,-209.25"/>
</a>
</g>
</g>
<!-- Node21 -->
<g id="Node000021" class="node">
<title>Node21</title>
<g id="a_Node000021"><a xlink:href="x__z__p__r__f_8hpp.xhtml" target="_top" xlink:title=" ">
<polygon fill="white" stroke="#666666" points="817.12,-201.88 721.62,-201.88 721.62,-171.38 817.12,-171.38 817.12,-201.88"/>
<text text-anchor="start" x="729.62" y="-188.38" font-family="Helvetica,sans-Serif" font-size="10.00">fcarouge/internal/x</text>
<text text-anchor="middle" x="769.38" y="-177.12" font-family="Helvetica,sans-Serif" font-size="10.00">_z_p_r_f.hpp</text>
</a>
</g>
</g>
<!-- Node12&#45;&gt;Node21 -->
<g id="edge32_Node000012_Node000021" class="edge">
<title>Node12&#45;&gt;Node21</title>
<g id="a_edge32_Node000012_Node000021"><a xlink:title=" ">
<path fill="none" stroke="#63b8ff" d="M769.38,-243.16C769.38,-235.41 769.38,-223.83 769.38,-213.24"/>
<polygon fill="#63b8ff" stroke="#63b8ff" points="772.88,-213.48 769.38,-203.48 765.88,-213.48 772.88,-213.48"/>
</a>
</g>
</g>
<!-- Node22 -->
<g id="Node000022" class="node">
<title>Node22</title>
<g id="a_Node000022"><a xlink:href="x__z__u__p__q__r_8hpp.xhtml" target="_top" xlink:title=" ">
<polygon fill="white" stroke="#666666" points="401.12,-201.88 305.62,-201.88 305.62,-171.38 401.12,-171.38 401.12,-201.88"/>
<text text-anchor="start" x="313.62" y="-188.38" font-family="Helvetica,sans-Serif" font-size="10.00">fcarouge/internal/x</text>
<text text-anchor="middle" x="353.38" y="-177.12" font-family="Helvetica,sans-Serif" font-size="10.00">_z_u_p_q_r.hpp</text>
</a>
</g>
</g>
<!-- Node12&#45;&gt;Node22 -->
<g id="edge34_Node000012_Node000022" class="edge">
<title>Node12&#45;&gt;Node22</title>
<g id="a_edge34_Node000012_Node000022"><a xlink:title=" ">
<path fill="none" stroke="#63b8ff" d="M720.26,-244.59C717.6,-244.22 714.95,-243.85 712.38,-243.5 578.42,-225.39 542.08,-237.93 410.38,-207.5 407.93,-206.93 405.44,-206.3 402.94,-205.62"/>
<polygon fill="#63b8ff" stroke="#63b8ff" points="404.02,-202.29 393.44,-202.78 402.02,-208.99 404.02,-202.29"/>
</a>
</g>
</g>
<!-- Node23 -->
<g id="Node000023" class="node">
<title>Node23</title>
<g id="a_Node000023"><a xlink:href="x__z__u__p__q__r__f__g__ps_8hpp.xhtml" target="_top" xlink:title=" ">
<polygon fill="white" stroke="#666666" points="537.38,-201.88 419.38,-201.88 419.38,-171.38 537.38,-171.38 537.38,-201.88"/>
<text text-anchor="start" x="427.38" y="-188.38" font-family="Helvetica,sans-Serif" font-size="10.00">fcarouge/internal/x</text>
<text text-anchor="middle" x="478.38" y="-177.12" font-family="Helvetica,sans-Serif" font-size="10.00">_z_u_p_q_r_f_g_ps.hpp</text>
</a>
</g>
</g>
<!-- Node12&#45;&gt;Node23 -->
<g id="edge38_Node000012_Node000023" class="edge">
<title>Node12&#45;&gt;Node23</title>
<g id="a_edge38_Node000012_Node000023"><a xlink:title=" ">
<path fill="none" stroke="#63b8ff" d="M720.38,-243.59C675.02,-235.38 605.81,-222.1 546.38,-207.5 543.61,-206.82 540.78,-206.1 537.93,-205.35"/>
<polygon fill="#63b8ff" stroke="#63b8ff" points="538.92,-202 528.36,-202.76 537.09,-208.75 538.92,-202"/>
</a>
</g>
</g>
<!-- Node24 -->
<g id="Node000024" class="node">
<title>Node24</title>
<g id="a_Node000024"><a xlink:href="x__z__u__p__q__r__h__f__g__us__ps_8hpp.xhtml" target="_top" xlink:title=" ">
<polygon fill="white" stroke="#666666" points="665.62,-207.5 555.12,-207.5 555.12,-165.75 665.62,-165.75 665.62,-207.5"/>
<text text-anchor="start" x="563.12" y="-194" font-family="Helvetica,sans-Serif" font-size="10.00">fcarouge/internal/x</text>
<text text-anchor="start" x="563.12" y="-182.75" font-family="Helvetica,sans-Serif" font-size="10.00">_z_u_p_q_r_h_f_g_us</text>
<text text-anchor="middle" x="610.38" y="-171.5" font-family="Helvetica,sans-Serif" font-size="10.00">_ps.hpp</text>
</a>
</g>
</g>
<!-- Node12&#45;&gt;Node24 -->
<g id="edge42_Node000012_Node000024" class="edge">
<title>Node12&#45;&gt;Node24</title>
<g id="a_edge42_Node000012_Node000024"><a xlink:title=" ">
<path fill="none" stroke="#63b8ff" d="M746.93,-243.02C727.21,-235.02 697.58,-223 670.96,-212.2"/>
<polygon fill="#63b8ff" stroke="#63b8ff" points="672.53,-209.06 661.95,-208.55 669.9,-215.55 672.53,-209.06"/>
</a>
</g>
</g>
<!-- Node13&#45;&gt;Node4 -->
<g id="edge16_Node000013_Node000004" class="edge">
<title>Node13&#45;&gt;Node4</title>
<g id="a_edge16_Node000013_Node000004"><a xlink:title=" ">
<path fill="none" stroke="#63b8ff" d="M1130.46,-176.58C1117.01,-173.13 1101.49,-169.21 1087.38,-165.75 1040.2,-154.2 986.28,-141.59 947.96,-132.73"/>
<polygon fill="#63b8ff" stroke="#63b8ff" points="949.1,-129.4 938.57,-130.56 947.52,-136.22 949.1,-129.4"/>
</a>
</g>
</g>
<!-- Node13&#45;&gt;Node9 -->
<g id="edge18_Node000013_Node000009" class="edge">
<title>Node13&#45;&gt;Node9</title>
<g id="a_edge18_Node000013_Node000009"><a xlink:title=" ">
<path fill="none" stroke="#63b8ff" d="M1153.3,-176.83C1140.64,-166.91 1121.26,-149.54 1111.38,-129.75 1095.43,-97.83 1092.29,-55.63 1091.98,-30.98"/>
<polygon fill="#63b8ff" stroke="#63b8ff" points="1095.48,-31.07 1092.02,-21.06 1088.48,-31.04 1095.48,-31.07"/>
</a>
</g>
</g>
<!-- Node14 -->
<g id="Node000014" class="node">
<title>Node14</title>
<g id="a_Node000014"><a xlink:title=" ">
<polygon fill="#e0e0e0" stroke="#999999" points="1192.12,-129.75 1120.62,-129.75 1120.62,-110.5 1192.12,-110.5 1192.12,-129.75"/>
<text text-anchor="middle" x="1156.38" y="-116.25" font-family="Helvetica,sans-Serif" font-size="10.00">initializer_list</text>
</a>
</g>
</g>
<!-- Node13&#45;&gt;Node14 -->
<g id="edge17_Node000013_Node000014" class="edge">
<title>Node13&#45;&gt;Node14</title>
<g id="a_edge17_Node000013_Node000014"><a xlink:title=" ">
<path fill="none" stroke="#63b8ff" d="M1164.12,-176.66C1162.85,-167.51 1160.82,-153.02 1159.17,-141.13"/>
<polygon fill="#63b8ff" stroke="#63b8ff" points="1162.67,-140.94 1157.82,-131.52 1155.74,-141.9 1162.67,-140.94"/>
</a>
</g>
</g>
<!-- Node15&#45;&gt;Node4 -->
<g id="edge20_Node000015_Node000004" class="edge">
<title>Node15&#45;&gt;Node4</title>
<g id="a_edge20_Node000015_Node000004"><a xlink:title=" ">
<path fill="none" stroke="#63b8ff" d="M886.55,-170.99C888.48,-162.1 890.97,-150.64 893.07,-140.95"/>
<polygon fill="#63b8ff" stroke="#63b8ff" points="896.44,-141.94 895.14,-131.43 889.6,-140.46 896.44,-141.94"/>
</a>
</g>
</g>
<!-- Node16&#45;&gt;Node4 -->
<g id="edge22_Node000016_Node000004" class="edge">
<title>Node16&#45;&gt;Node4</title>
<g id="a_edge22_Node000016_Node000004"><a xlink:title=" ">
<path fill="none" stroke="#63b8ff" d="M159.07,-170.95C166.79,-168.91 174.76,-167.07 182.38,-165.75 422.19,-124.24 713.16,-120.12 836.95,-120.48"/>
<polygon fill="#63b8ff" stroke="#63b8ff" points="836.87,-123.98 846.89,-120.52 836.9,-116.98 836.87,-123.98"/>
</a>
</g>
</g>
<!-- Node16&#45;&gt;Node8 -->
<g id="edge25_Node000016_Node000008" class="edge">
<title>Node16&#45;&gt;Node8</title>
<g id="a_edge25_Node000016_Node000008"><a xlink:title=" ">
<path fill="none" stroke="#63b8ff" d="M132.96,-171.06C170.2,-144.08 254.65,-86.24 334.38,-55.25 396.15,-31.24 473.39,-19.1 515.16,-13.89"/>
<polygon fill="#63b8ff" stroke="#63b8ff" points="515.43,-17.38 524.94,-12.73 514.6,-10.43 515.43,-17.38"/>
</a>
</g>
</g>
<!-- Node17 -->
<g id="Node000017" class="node">
<title>Node17</title>
<g id="a_Node000017"><a xlink:href="function_8hpp.xhtml" target="_top" xlink:title=" ">
<polygon fill="white" stroke="#666666" points="449.62,-129.75 381.12,-129.75 381.12,-110.5 449.62,-110.5 449.62,-129.75"/>
<text text-anchor="middle" x="415.38" y="-116.25" font-family="Helvetica,sans-Serif" font-size="10.00">function.hpp</text>
</a>
</g>
</g>
<!-- Node16&#45;&gt;Node17 -->
<g id="edge23_Node000016_Node000017" class="edge">
<title>Node16&#45;&gt;Node17</title>
<g id="a_edge23_Node000016_Node000017"><a xlink:title=" ">
<path fill="none" stroke="#63b8ff" d="M162.23,-170.96C168.97,-169.11 175.83,-167.32 182.38,-165.75 246.95,-150.3 322.59,-136.61 369.76,-128.59"/>
<polygon fill="#63b8ff" stroke="#63b8ff" points="370.05,-132.09 379.33,-126.98 368.88,-125.19 370.05,-132.09"/>
</a>
</g>
</g>
<!-- Node18 -->
<g id="Node000018" class="node">
<title>Node18</title>
<g id="a_Node000018"><a xlink:title=" ">
<polygon fill="#e0e0e0" stroke="#999999" points="440.62,-74.5 390.12,-74.5 390.12,-55.25 440.62,-55.25 440.62,-74.5"/>
<text text-anchor="middle" x="415.38" y="-61" font-family="Helvetica,sans-Serif" font-size="10.00">memory</text>
</a>
</g>
</g>
<!-- Node17&#45;&gt;Node18 -->
<g id="edge24_Node000017_Node000018" class="edge">
<title>Node17&#45;&gt;Node18</title>
<g id="a_edge24_Node000017_Node000018"><a xlink:title=" ">
<path fill="none" stroke="#63b8ff" d="M415.38,-110.33C415.38,-103.82 415.38,-94.67 415.38,-86.37"/>
<polygon fill="#63b8ff" stroke="#63b8ff" points="418.88,-86.37 415.38,-76.37 411.88,-86.37 418.88,-86.37"/>
</a>
</g>
</g>
<!-- Node19&#45;&gt;Node4 -->
<g id="edge27_Node000019_Node000004" class="edge">
<title>Node19&#45;&gt;Node4</title>
<g id="a_edge27_Node000019_Node000004"><a xlink:title=" ">
<path fill="none" stroke="#63b8ff" d="M277,-170.96C283.39,-168.92 290.01,-167.07 296.38,-165.75 491.09,-125.3 727.98,-120.32 837.07,-120.43"/>
<polygon fill="#63b8ff" stroke="#63b8ff" points="836.96,-123.93 846.97,-120.46 836.98,-116.93 836.96,-123.93"/>
</a>
</g>
</g>
<!-- Node19&#45;&gt;Node8 -->
<g id="edge29_Node000019_Node000008" class="edge">
<title>Node19&#45;&gt;Node8</title>
<g id="a_edge29_Node000019_Node000008"><a xlink:title=" ">
<path fill="none" stroke="#63b8ff" d="M249.13,-170.9C268,-143.65 312.25,-85.38 364.38,-55.25 412.67,-27.34 477.97,-16.78 515.5,-12.86"/>
<polygon fill="#63b8ff" stroke="#63b8ff" points="515.51,-16.38 525.14,-11.95 514.85,-9.41 515.51,-16.38"/>
</a>
</g>
</g>
<!-- Node19&#45;&gt;Node17 -->
<g id="edge28_Node000019_Node000017" class="edge">
<title>Node19&#45;&gt;Node17</title>
<g id="a_edge28_Node000019_Node000017"><a xlink:title=" ">
<path fill="none" stroke="#63b8ff" d="M279.31,-170.99C309.62,-159.88 350.9,-144.75 380.02,-134.08"/>
<polygon fill="#63b8ff" stroke="#63b8ff" points="380.93,-137.48 389.11,-130.75 378.52,-130.9 380.93,-137.48"/>
</a>
</g>
</g>
<!-- Node20&#45;&gt;Node4 -->
<g id="edge31_Node000020_Node000004" class="edge">
<title>Node20&#45;&gt;Node4</title>
<g id="a_edge31_Node000020_Node000004"><a xlink:title=" ">
<path fill="none" stroke="#63b8ff" d="M974.68,-170.99C958.55,-160.59 936.95,-146.65 920.69,-136.16"/>
<polygon fill="#63b8ff" stroke="#63b8ff" points="922.92,-133.43 912.62,-130.96 919.12,-139.32 922.92,-133.43"/>
</a>
</g>
</g>
<!-- Node21&#45;&gt;Node4 -->
<g id="edge33_Node000021_Node000004" class="edge">
<title>Node21&#45;&gt;Node4</title>
<g id="a_edge33_Node000021_Node000004"><a xlink:title=" ">
<path fill="none" stroke="#63b8ff" d="M798.42,-170.99C819.65,-160.29 848.28,-145.86 869.29,-135.28"/>
<polygon fill="#63b8ff" stroke="#63b8ff" points="870.79,-138.44 878.14,-130.82 867.64,-132.19 870.79,-138.44"/>
</a>
</g>
</g>
<!-- Node22&#45;&gt;Node4 -->
<g id="edge35_Node000022_Node000004" class="edge">
<title>Node22&#45;&gt;Node4</title>
<g id="a_edge35_Node000022_Node000004"><a xlink:title=" ">
<path fill="none" stroke="#63b8ff" d="M391.33,-170.95C397.62,-168.94 404.13,-167.1 410.38,-165.75 561.56,-132.98 744.24,-124.25 837,-121.94"/>
<polygon fill="#63b8ff" stroke="#63b8ff" points="836.96,-125.44 846.88,-121.72 836.8,-118.45 836.96,-125.44"/>
</a>
</g>
</g>
<!-- Node22&#45;&gt;Node8 -->
<g id="edge37_Node000022_Node000008" class="edge">
<title>Node22&#45;&gt;Node8</title>
<g id="a_edge37_Node000022_Node000008"><a xlink:title=" ">
<path fill="none" stroke="#63b8ff" d="M351.99,-170.89C350.35,-144.13 350.97,-87.35 381.38,-55.25 416.35,-18.33 478.56,-10.9 515.49,-9.98"/>
<polygon fill="#63b8ff" stroke="#63b8ff" points="515.04,-13.48 525.01,-9.89 514.98,-6.48 515.04,-13.48"/>
</a>
</g>
</g>
<!-- Node22&#45;&gt;Node17 -->
<g id="edge36_Node000022_Node000017" class="edge">
<title>Node22&#45;&gt;Node17</title>
<g id="a_edge36_Node000022_Node000017"><a xlink:title=" ">
<path fill="none" stroke="#63b8ff" d="M367.44,-170.99C376.84,-161.21 389.23,-148.33 399.06,-138.1"/>
<polygon fill="#63b8ff" stroke="#63b8ff" points="401.44,-140.67 405.85,-131.04 396.39,-135.82 401.44,-140.67"/>
</a>
</g>
</g>
<!-- Node23&#45;&gt;Node4 -->
<g id="edge39_Node000023_Node000004" class="edge">
<title>Node23&#45;&gt;Node4</title>
<g id="a_edge39_Node000023_Node000004"><a xlink:title=" ">
<path fill="none" stroke="#63b8ff" d="M524.95,-170.96C532.08,-169.02 539.39,-167.21 546.38,-165.75 647.35,-144.71 766.86,-132.07 837.15,-125.87"/>
<polygon fill="#63b8ff" stroke="#63b8ff" points="837.26,-129.37 846.92,-125.02 836.65,-122.4 837.26,-129.37"/>
</a>
</g>
</g>
<!-- Node23&#45;&gt;Node8 -->
<g id="edge41_Node000023_Node000008" class="edge">
<title>Node23&#45;&gt;Node8</title>
<g id="a_edge41_Node000023_Node000008"><a xlink:title=" ">
<path fill="none" stroke="#63b8ff" d="M483.97,-171.01C496.01,-139.56 524.36,-65.51 537.91,-30.12"/>
<polygon fill="#63b8ff" stroke="#63b8ff" points="541.05,-31.72 541.35,-21.13 534.51,-29.22 541.05,-31.72"/>
</a>
</g>
</g>
<!-- Node23&#45;&gt;Node17 -->
<g id="edge40_Node000023_Node000017" class="edge">
<title>Node23&#45;&gt;Node17</title>
<g id="a_edge40_Node000023_Node000017"><a xlink:title=" ">
<path fill="none" stroke="#63b8ff" d="M464.08,-170.99C454.53,-161.21 441.94,-148.33 431.96,-138.1"/>
<polygon fill="#63b8ff" stroke="#63b8ff" points="434.54,-135.74 425.05,-131.03 429.53,-140.63 434.54,-135.74"/>
</a>
</g>
</g>
<!-- Node24&#45;&gt;Node4 -->
<g id="edge43_Node000024_Node000004" class="edge">
<title>Node24&#45;&gt;Node4</title>
<g id="a_edge43_Node000024_Node000004"><a xlink:title=" ">
<path fill="none" stroke="#63b8ff" d="M666.05,-173.11C718.18,-161.4 795.44,-144.03 846.1,-132.65"/>
<polygon fill="#63b8ff" stroke="#63b8ff" points="846.65,-136.11 855.64,-130.5 845.11,-129.28 846.65,-136.11"/>
</a>
</g>
</g>
<!-- Node24&#45;&gt;Node8 -->
<g id="edge45_Node000024_Node000008" class="edge">
<title>Node24&#45;&gt;Node8</title>
<g id="a_edge45_Node000024_Node000008"><a xlink:title=" ">
<path fill="none" stroke="#63b8ff" d="M602.92,-165.55C590.33,-131.65 565.01,-63.48 552.58,-30.03"/>
<polygon fill="#63b8ff" stroke="#63b8ff" points="555.93,-28.98 549.16,-20.83 549.37,-31.42 555.93,-28.98"/>
</a>
</g>
</g>
<!-- Node24&#45;&gt;Node17 -->
<g id="edge44_Node000024_Node000017" class="edge">
<title>Node24&#45;&gt;Node17</title>
<g id="a_edge44_Node000024_Node000017"><a xlink:title=" ">
<path fill="none" stroke="#63b8ff" d="M554.76,-167.23C522.46,-156.54 482.59,-143.36 453.78,-133.83"/>
<polygon fill="#63b8ff" stroke="#63b8ff" points="454.96,-130.53 444.37,-130.72 452.76,-137.18 454.96,-130.53"/>
</a>
</g>
</g>
<!-- Node26 -->
<g id="Node000026" class="node">
<title>Node26</title>
<g id="a_Node000026"><a xlink:title=" ">
<polygon fill="#e0e0e0" stroke="#999999" points="34.75,-196.25 0,-196.25 0,-177 34.75,-177 34.75,-196.25"/>
<text text-anchor="middle" x="17.38" y="-182.75" font-family="Helvetica,sans-Serif" font-size="10.00">print</text>
</a>
</g>
</g>
<!-- Node25&#45;&gt;Node26 -->
<g id="edge49_Node000025_Node000026" class="edge">
<title>Node25&#45;&gt;Node26</title>
<g id="a_edge49_Node000025_Node000026"><a xlink:title=" ">
<path fill="none" stroke="#63b8ff" d="M641.8,-244.89C638.96,-244.36 636.12,-243.89 633.38,-243.5 503.51,-225.29 167.66,-252.19 44.38,-207.5 41.4,-206.42 38.47,-204.9 35.7,-203.18"/>
<polygon fill="#63b8ff" stroke="#63b8ff" points="37.93,-200.48 27.8,-197.37 33.78,-206.12 37.93,-200.48"/>
</a>
</g>
</g>
<!-- Node29 -->
<g id="Node000029" class="node">
<title>Node29</title>
<g id="a_Node000029"><a xlink:href="indexed_8hpp.xhtml" target="_top" xlink:title="Index typed linear algebra implementation.">
<polygon fill="white" stroke="#666666" points="1434.12,-196.25 1326.62,-196.25 1326.62,-177 1434.12,-177 1434.12,-196.25"/>
<text text-anchor="middle" x="1380.38" y="-182.75" font-family="Helvetica,sans-Serif" font-size="10.00">fcarouge/indexed.hpp</text>
</a>
</g>
</g>
<!-- Node28&#45;&gt;Node29 -->
<g id="edge53_Node000028_Node000029" class="edge">
<title>Node28&#45;&gt;Node29</title>
<g id="a_edge53_Node000028_Node000029"><a xlink:title=" ">
<path fill="none" stroke="#63b8ff" d="M1595.86,-298.37C1555.72,-277.74 1456.78,-226.9 1408.2,-201.93"/>
<polygon fill="#63b8ff" stroke="#63b8ff" points="1409.93,-198.88 1399.44,-197.42 1406.73,-205.11 1409.93,-198.88"/>
</a>
</g>
</g>
<!-- Node30 -->
<g id="Node000030" class="node">
<title>Node30</title>
<g id="a_Node000030"><a xlink:title=" ">
<polygon fill="#e0e0e0" stroke="#999999" points="1646.88,-262.75 1549.88,-262.75 1549.88,-243.5 1646.88,-243.5 1646.88,-262.75"/>
<text text-anchor="middle" x="1598.38" y="-249.25" font-family="Helvetica,sans-Serif" font-size="10.00">fcarouge/linalg.hpp</text>
</a>
</g>
</g>
<!-- Node28&#45;&gt;Node30 -->
<g id="edge60_Node000028_Node000030" class="edge">
<title>Node28&#45;&gt;Node30</title>
<g id="a_edge60_Node000028_Node000030"><a xlink:title=" ">
<path fill="none" stroke="#63b8ff" d="M1610.9,-298.58C1609.02,-291.92 1606.37,-282.49 1603.98,-274.03"/>
<polygon fill="#63b8ff" stroke="#63b8ff" points="1607.4,-273.24 1601.32,-264.57 1600.66,-275.14 1607.4,-273.24"/>
</a>
</g>
</g>
<!-- Node28&#45;&gt;Node31 -->
<g id="edge61_Node000028_Node000031" class="edge">
<title>Node28&#45;&gt;Node31</title>
<g id="a_edge61_Node000028_Node000031"><a xlink:title=" ">
<path fill="none" stroke="#63b8ff" d="M1629.83,-298.34C1644.6,-290.23 1666.55,-278.18 1683.81,-268.71"/>
<polygon fill="#63b8ff" stroke="#63b8ff" points="1685.43,-271.81 1692.51,-263.93 1682.06,-265.68 1685.43,-271.81"/>
</a>
</g>
</g>
<!-- Node29&#45;&gt;Node4 -->
<g id="edge54_Node000029_Node000004" class="edge">
<title>Node29&#45;&gt;Node4</title>
<g id="a_edge54_Node000029_Node000004"><a xlink:title=" ">
<path fill="none" stroke="#63b8ff" d="M1355.54,-176.53C1344.07,-172.65 1330.17,-168.42 1317.38,-165.75 1191.02,-139.38 1039.85,-128.18 957.73,-123.75"/>
<polygon fill="#63b8ff" stroke="#63b8ff" points="958.05,-120.26 947.88,-123.24 957.69,-127.25 958.05,-120.26"/>
</a>
</g>
</g>
<!-- Node29&#45;&gt;Node6 -->
<g id="edge55_Node000029_Node000006" class="edge">
<title>Node29&#45;&gt;Node6</title>
<g id="a_edge55_Node000029_Node000006"><a xlink:title=" ">
<path fill="none" stroke="#63b8ff" d="M1382.57,-176.55C1385.23,-165.51 1389.78,-146.3 1393.38,-129.75 1400.92,-94.97 1408.94,-54.3 1413.54,-30.61"/>
<polygon fill="#63b8ff" stroke="#63b8ff" points="1416.91,-31.58 1415.37,-21.1 1410.04,-30.25 1416.91,-31.58"/>
</a>
</g>
</g>
<!-- Node29&#45;&gt;Node7 -->
<g id="edge56_Node000029_Node000007" class="edge">
<title>Node29&#45;&gt;Node7</title>
<g id="a_edge56_Node000029_Node000007"><a xlink:title=" ">
<path fill="none" stroke="#63b8ff" d="M1379.53,-176.72C1377.82,-162.03 1372.97,-132.22 1360.38,-110.5 1340.02,-75.41 1304.12,-44.18 1281.06,-26.33"/>
<polygon fill="#63b8ff" stroke="#63b8ff" points="1283.34,-23.67 1273.25,-20.44 1279.13,-29.26 1283.34,-23.67"/>
</a>
</g>
</g>
<!-- Node29&#45;&gt;Node8 -->
<g id="edge59_Node000029_Node000008" class="edge">
<title>Node29&#45;&gt;Node8</title>
<g id="a_edge59_Node000029_Node000008"><a xlink:title=" ">
<path fill="none" stroke="#63b8ff" d="M1361.69,-176.57C1329.55,-161.28 1261.46,-130.08 1201.38,-110.5 968.43,-34.57 669.77,-15.87 575.36,-11.71"/>
<polygon fill="#63b8ff" stroke="#63b8ff" points="575.8,-8.23 565.66,-11.31 575.51,-15.22 575.8,-8.23"/>
</a>
</g>
</g>
<!-- Node29&#45;&gt;Node11 -->
<g id="edge57_Node000029_Node000011" class="edge">
<title>Node29&#45;&gt;Node11</title>
<g id="a_edge57_Node000029_Node000011"><a xlink:title=" ">
<path fill="none" stroke="#63b8ff" d="M1373.28,-176.66C1365.6,-166.93 1353.13,-151.16 1343.44,-138.91"/>
<polygon fill="#63b8ff" stroke="#63b8ff" points="1346.29,-136.88 1337.34,-131.2 1340.8,-141.22 1346.29,-136.88"/>
</a>
</g>
</g>
<!-- Node29&#45;&gt;Node14 -->
<g id="edge58_Node000029_Node000014" class="edge">
<title>Node29&#45;&gt;Node14</title>
<g id="a_edge58_Node000029_Node000014"><a xlink:title=" ">
<path fill="none" stroke="#63b8ff" d="M1352.21,-176.51C1341.35,-173.05 1328.81,-169.14 1317.38,-165.75 1278.32,-154.18 1233.66,-141.87 1201.3,-133.12"/>
<polygon fill="#63b8ff" stroke="#63b8ff" points="1202.42,-129.8 1191.86,-130.58 1200.6,-136.56 1202.42,-129.8"/>
</a>
</g>
</g>
<!-- Node32 -->
<g id="Node000032" class="node">
<title>Node32</title>
<g id="a_Node000032"><a xlink:title=" ">
<polygon fill="#e0e0e0" stroke="#999999" points="1816.25,-196.25 1724.5,-196.25 1724.5,-177 1816.25,-177 1816.25,-196.25"/>
<text text-anchor="middle" x="1770.38" y="-182.75" font-family="Helvetica,sans-Serif" font-size="10.00">mp&#45;units/format.h</text>
</a>
</g>
</g>
<!-- Node31&#45;&gt;Node32 -->
<g id="edge62_Node000031_Node000032" class="edge">
<title>Node31&#45;&gt;Node32</title>
<g id="a_edge62_Node000031_Node000032"><a xlink:title=" ">
<path fill="none" stroke="#63b8ff" d="M1718.72,-243.16C1727.94,-233.24 1743.02,-217.04 1754.51,-204.69"/>
<polygon fill="#63b8ff" stroke="#63b8ff" points="1756.82,-207.33 1761.07,-197.63 1751.7,-202.56 1756.82,-207.33"/>
</a>
</g>
</g>
<!-- Node33 -->
<g id="Node000033" class="node">
<title>Node33</title>
<g id="a_Node000033"><a xlink:title=" ">
<polygon fill="#e0e0e0" stroke="#999999" points="1936.5,-201.88 1834.25,-201.88 1834.25,-171.38 1936.5,-171.38 1936.5,-201.88"/>
<text text-anchor="start" x="1842.25" y="-188.38" font-family="Helvetica,sans-Serif" font-size="10.00">mp&#45;units/framework</text>
<text text-anchor="middle" x="1885.38" y="-177.12" font-family="Helvetica,sans-Serif" font-size="10.00">/quantity.h</text>
</a>
</g>
</g>
<!-- Node31&#45;&gt;Node33 -->
<g id="edge63_Node000031_Node000033" class="edge">
<title>Node31&#45;&gt;Node33</title>
<g id="a_edge63_Node000031_Node000033"><a xlink:title=" ">
<path fill="none" stroke="#63b8ff" d="M1735.08,-243.02C1760.89,-233.5 1802.13,-218.31 1834.88,-206.24"/>
<polygon fill="#63b8ff" stroke="#63b8ff" points="1836.04,-209.54 1844.21,-202.8 1833.62,-202.97 1836.04,-209.54"/>
</a>
</g>
</g>
<!-- Node34 -->
<g id="Node000034" class="node">
<title>Node34</title>
<g id="a_Node000034"><a xlink:title=" ">
<polygon fill="#e0e0e0" stroke="#999999" points="1576.25,-196.25 1490.5,-196.25 1490.5,-177 1576.25,-177 1576.25,-196.25"/>
<text text-anchor="middle" x="1533.38" y="-182.75" font-family="Helvetica,sans-Serif" font-size="10.00">mp&#45;units/math.h</text>
</a>
</g>
</g>
<!-- Node31&#45;&gt;Node34 -->
<g id="edge64_Node000031_Node000034" class="edge">
<title>Node31&#45;&gt;Node34</title>
<g id="a_edge64_Node000031_Node000034"><a xlink:title=" ">
<path fill="none" stroke="#63b8ff" d="M1684.46,-243.06C1659.14,-234.16 1619.53,-220.12 1585.38,-207.5 1579.54,-205.34 1573.35,-203.01 1567.35,-200.74"/>
<polygon fill="#63b8ff" stroke="#63b8ff" points="1568.89,-197.58 1558.3,-197.28 1566.4,-204.12 1568.89,-197.58"/>
</a>
</g>
</g>
<!-- Node35 -->
<g id="Node000035" class="node">
<title>Node35</title>
<g id="a_Node000035"><a xlink:title=" ">
<polygon fill="#e0e0e0" stroke="#999999" points="1706,-196.25 1594.75,-196.25 1594.75,-177 1706,-177 1706,-196.25"/>
<text text-anchor="middle" x="1650.38" y="-182.75" font-family="Helvetica,sans-Serif" font-size="10.00">mp&#45;units/systems/si.h</text>
</a>
</g>
</g>
<!-- Node31&#45;&gt;Node35 -->
<g id="edge65_Node000031_Node000035" class="edge">
<title>Node31&#45;&gt;Node35</title>
<g id="a_edge65_Node000031_Node000035"><a xlink:title=" ">
<path fill="none" stroke="#63b8ff" d="M1702.03,-243.16C1692.81,-233.24 1677.73,-217.04 1666.24,-204.69"/>
<polygon fill="#63b8ff" stroke="#63b8ff" points="1669.05,-202.56 1659.68,-197.63 1663.93,-207.33 1669.05,-202.56"/>
</a>
</g>
</g>
</g>
</svg>
