<?xml version="1.0" encoding="UTF-8" standalone="no"?>
<!DOCTYPE svg PUBLIC "-//W3C//DTD SVG 1.1//EN"
 "http://www.w3.org/Graphics/SVG/1.1/DTD/svg11.dtd">
<!-- Generated by graphviz version 12.2.0 (20241103.1931)
 -->
<!-- Title: /github/workspace/sample/kf_6x2x0_vehicle_location_unit.cpp Pages: 1 -->
<!--zoomable 337 -->

<svg id="main" version="1.1" xmlns="http://www.w3.org/2000/svg" xmlns:xlink="http://www.w3.org/1999/xlink" xml:space="preserve" onload="init(evt)">

<style type="text/css"><![CDATA[
.node, .edge {opacity: 0.7;}
.node.selected, .edge.selected {opacity: 1;}
.edge:hover path { stroke: red; }
.edge:hover polygon { stroke: red; fill: red; }
]]></style>

<defs>
  <circle id="rim" cx="0" cy="0" r="7"/>
  <circle id="rim2" cx="0" cy="0" r="3.5"/>
  <g id="zoomPlus">
    <use xlink:href="#rim" fill="#404040"><set attributeName="fill" to="#808080" begin="zoomplus.mouseover" end="zoomplus.mouseout"/></use>
    <path d="M-4,0h8M0,-4v8" fill="none" stroke="white" stroke-width="1.5" pointer-events="none"/>
  </g>
  <g id="zoomMin">
    <use xlink:href="#rim" fill="#404040"><set attributeName="fill" to="#808080" begin="zoomminus.mouseover" end="zoomminus.mouseout"/></use>
    <path d="M-4,0h8" fill="none" stroke="white" stroke-width="1.5" pointer-events="none"/>
  </g>
  <g id="arrowUp" transform="translate(30 24)">
    <use xlink:href="#rim"/>
    <path pointer-events="none" fill="none" stroke="white" stroke-width="1.5" d="M0,-3.0v7 M-2.5,-0.5L0,-3.0L2.5,-0.5"/>
  </g>
  <g id="arrowRight" transform="rotate(90) translate(36 -43)">
    <use xlink:href="#rim"/>
    <path pointer-events="none" fill="none" stroke="white" stroke-width="1.5" d="M0,-3.0v7 M-2.5,-0.5L0,-3.0L2.5,-0.5"/>
  </g>
  <g id="arrowDown" transform="rotate(180) translate(-30 -48)">
    <use xlink:href="#rim"/>
    <path pointer-events="none" fill="none" stroke="white" stroke-width="1.5" d="M0,-3.0v7 M-2.5,-0.5L0,-3.0L2.5,-0.5"/>
  </g>
  <g id="arrowLeft" transform="rotate(270) translate(-36 17)">
    <use xlink:href="#rim"/>
    <path pointer-events="none" fill="none" stroke="white" stroke-width="1.5" d="M0,-3.0v7 M-2.5,-0.5L0,-3.0L2.5,-0.5"/>
  </g>
  <g id="resetDef">
    <use xlink:href="#rim2" fill="#404040"><set attributeName="fill" to="#808080" begin="reset.mouseover" end="reset.mouseout"/></use>
  </g>
</defs>
<script type="application/ecmascript">
var viewWidth = 1692;
var viewHeight = 337;
var sectionId = 'dynsection-0';
</script>
<script type="application/ecmascript" xlink:href="svg.min.js"/>
<svg id="graph" class="graph">
<g id="viewport">
<title>/github/workspace/sample/kf_6x2x0_vehicle_location_unit.cpp</title>
<!-- Node1 -->
<g id="Node000001" class="node">
<title>Node1</title>
<g id="a_Node000001"><a xlink:title=" ">
<polygon fill="#999999" stroke="#666666" points="960.62,-329.25 828.38,-329.25 828.38,-287.5 960.62,-287.5 960.62,-329.25"/>
<text text-anchor="start" x="836.38" y="-315.75" font-family="Helvetica,sans-Serif" font-size="10.00">/github/workspace/sample</text>
<text text-anchor="start" x="836.38" y="-304.5" font-family="Helvetica,sans-Serif" font-size="10.00">/kf_6x2x0_vehicle_location</text>
<text text-anchor="middle" x="894.5" y="-293.25" font-family="Helvetica,sans-Serif" font-size="10.00">_unit.cpp</text>
</a>
</g>
</g>
<!-- Node2 -->
<g id="Node000002" class="node">
<title>Node2</title>
<g id="a_Node000002"><a xlink:href="kalman_8hpp.xhtml" target="_top" xlink:title="The Kalman filter class and library top&#45;level header.">
<polygon fill="white" stroke="#666666" points="887.5,-251.5 781.5,-251.5 781.5,-232.25 887.5,-232.25 887.5,-251.5"/>
<text text-anchor="middle" x="834.5" y="-238" font-family="Helvetica,sans-Serif" font-size="10.00">fcarouge/kalman.hpp</text>
</a>
</g>
</g>
<!-- Node1&#45;&gt;Node2 -->
<g id="edge1_Node000001_Node000002" class="edge">
<title>Node1&#45;&gt;Node2</title>
<g id="a_edge1_Node000001_Node000002"><a xlink:title=" ">
<path fill="none" stroke="#63b8ff" d="M875.84,-287.32C867.76,-278.63 858.39,-268.55 850.61,-260.19"/>
<polygon fill="#63b8ff" stroke="#63b8ff" points="853.34,-257.99 843.97,-253.05 848.22,-262.76 853.34,-257.99"/>
</a>
</g>
</g>
<!-- Node26 -->
<g id="Node000026" class="node">
<title>Node26</title>
<g id="a_Node000026"><a xlink:title=" ">
<polygon fill="#e0e0e0" stroke="#999999" points="171.38,-74.5 127.62,-74.5 127.62,-55.25 171.38,-55.25 171.38,-74.5"/>
<text text-anchor="middle" x="149.5" y="-61" font-family="Helvetica,sans-Serif" font-size="10.00">format</text>
</a>
</g>
</g>
<!-- Node1&#45;&gt;Node26 -->
<g id="edge62_Node000001_Node000026" class="edge">
<title>Node1&#45;&gt;Node26</title>
<g id="a_edge62_Node000001_Node000026"><a xlink:title=" ">
<path fill="none" stroke="#63b8ff" d="M828.01,-307.29C695.94,-303.97 396.3,-280.35 198.5,-141 178.85,-127.16 165.08,-102.69 157.24,-85.45"/>
<polygon fill="#63b8ff" stroke="#63b8ff" points="160.48,-84.12 153.36,-76.28 154.04,-86.85 160.48,-84.12"/>
</a>
</g>
</g>
<!-- Node30 -->
<g id="Node000030" class="node">
<title>Node30</title>
<g id="a_Node000030"><a xlink:title=" ">
<polygon fill="#e0e0e0" stroke="#999999" points="1003,-251.5 906,-251.5 906,-232.25 1003,-232.25 1003,-251.5"/>
<text text-anchor="middle" x="954.5" y="-238" font-family="Helvetica,sans-Serif" font-size="10.00">fcarouge/linalg.hpp</text>
</a>
</g>
</g>
<!-- Node1&#45;&gt;Node30 -->
<g id="edge60_Node000001_Node000030" class="edge">
<title>Node1&#45;&gt;Node30</title>
<g id="a_edge60_Node000001_Node000030"><a xlink:title=" ">
<path fill="none" stroke="#63b8ff" d="M913.16,-287.32C921.24,-278.63 930.61,-268.55 938.39,-260.19"/>
<polygon fill="#63b8ff" stroke="#63b8ff" points="940.78,-262.76 945.03,-253.05 935.66,-257.99 940.78,-262.76"/>
</a>
</g>
</g>
<!-- Node31 -->
<g id="Node000031" class="node">
<title>Node31</title>
<g id="a_Node000031"><a xlink:title=" ">
<polygon fill="#e0e0e0" stroke="#999999" points="1069.62,-251.5 1021.38,-251.5 1021.38,-232.25 1069.62,-232.25 1069.62,-251.5"/>
<text text-anchor="middle" x="1045.5" y="-238" font-family="Helvetica,sans-Serif" font-size="10.00">cassert</text>
</a>
</g>
</g>
<!-- Node1&#45;&gt;Node31 -->
<g id="edge61_Node000001_Node000031" class="edge">
<title>Node1&#45;&gt;Node31</title>
<g id="a_edge61_Node000001_Node000031"><a xlink:title=" ">
<path fill="none" stroke="#63b8ff" d="M941.86,-287.14C965.32,-277.12 993.01,-265.29 1013.87,-256.39"/>
<polygon fill="#63b8ff" stroke="#63b8ff" points="1015.17,-259.64 1022.99,-252.49 1012.42,-253.2 1015.17,-259.64"/>
</a>
</g>
</g>
<!-- Node3 -->
<g id="Node000003" class="node">
<title>Node3</title>
<g id="a_Node000003"><a xlink:href="kalman__forward_8hpp.xhtml" target="_top" xlink:title="Authoritative forward declaration header.">
<polygon fill="white" stroke="#666666" points="886,-196.25 783,-196.25 783,-177 886,-177 886,-196.25"/>
<text text-anchor="middle" x="834.5" y="-182.75" font-family="Helvetica,sans-Serif" font-size="10.00">kalman_forward.hpp</text>
</a>
</g>
</g>
<!-- Node2&#45;&gt;Node3 -->
<g id="edge2_Node000002_Node000003" class="edge">
<title>Node2&#45;&gt;Node3</title>
<g id="a_edge2_Node000002_Node000003"><a xlink:title=" ">
<path fill="none" stroke="#63b8ff" d="M834.5,-232.08C834.5,-225.57 834.5,-216.42 834.5,-208.12"/>
<polygon fill="#63b8ff" stroke="#63b8ff" points="838,-208.12 834.5,-198.12 831,-208.12 838,-208.12"/>
</a>
</g>
</g>
<!-- Node4 -->
<g id="Node000004" class="node">
<title>Node4</title>
<g id="a_Node000004"><a xlink:href="factory_8hpp.xhtml" target="_top" xlink:title=" ">
<polygon fill="white" stroke="#666666" points="1038.75,-196.25 904.25,-196.25 904.25,-177 1038.75,-177 1038.75,-196.25"/>
<text text-anchor="middle" x="971.5" y="-182.75" font-family="Helvetica,sans-Serif" font-size="10.00">kalman_internal/factory.hpp</text>
</a>
</g>
</g>
<!-- Node2&#45;&gt;Node4 -->
<g id="edge3_Node000002_Node000004" class="edge">
<title>Node2&#45;&gt;Node4</title>
<g id="a_edge3_Node000002_Node000004"><a xlink:title=" ">
<path fill="none" stroke="#63b8ff" d="M857.74,-231.84C879.69,-223.31 912.85,-210.42 937.71,-200.76"/>
<polygon fill="#63b8ff" stroke="#63b8ff" points="938.68,-204.14 946.74,-197.25 936.15,-197.61 938.68,-204.14"/>
</a>
</g>
</g>
<!-- Node6 -->
<g id="Node000006" class="node">
<title>Node6</title>
<g id="a_Node000006"><a xlink:href="utility_8hpp.xhtml" target="_top" xlink:title=" ">
<polygon fill="white" stroke="#666666" points="1049.75,-74.5 993.25,-74.5 993.25,-55.25 1049.75,-55.25 1049.75,-74.5"/>
<text text-anchor="middle" x="1021.5" y="-61" font-family="Helvetica,sans-Serif" font-size="10.00">utility.hpp</text>
</a>
</g>
</g>
<!-- Node2&#45;&gt;Node6 -->
<g id="edge58_Node000002_Node000006" class="edge">
<title>Node2&#45;&gt;Node6</title>
<g id="a_edge58_Node000002_Node000006"><a xlink:title=" ">
<path fill="none" stroke="#63b8ff" d="M887.6,-232.77C1019.23,-212.43 1351.12,-159.53 1366.5,-141 1375.16,-130.57 1375.45,-120.68 1366.5,-110.5 1346.6,-87.86 1147.98,-73.4 1061.45,-68.12"/>
<polygon fill="#63b8ff" stroke="#63b8ff" points="1061.71,-64.63 1051.52,-67.53 1061.29,-71.62 1061.71,-64.63"/>
</a>
</g>
</g>
<!-- Node25 -->
<g id="Node000025" class="node">
<title>Node25</title>
<g id="a_Node000025"><a xlink:href="format_8hpp.xhtml" target="_top" xlink:title="Formatting support for the Kalman filter.">
<polygon fill="white" stroke="#666666" points="133,-135.38 0,-135.38 0,-116.12 133,-116.12 133,-135.38"/>
<text text-anchor="middle" x="66.5" y="-121.88" font-family="Helvetica,sans-Serif" font-size="10.00">kalman_internal/format.hpp</text>
</a>
</g>
</g>
<!-- Node2&#45;&gt;Node25 -->
<g id="edge49_Node000002_Node000025" class="edge">
<title>Node2&#45;&gt;Node25</title>
<g id="a_edge49_Node000002_Node000025"><a xlink:title=" ">
<path fill="none" stroke="#63b8ff" d="M781.11,-232.94C646.29,-212.91 291.99,-160.26 138.79,-137.49"/>
<polygon fill="#63b8ff" stroke="#63b8ff" points="139.58,-134.07 129.17,-136.06 138.55,-141 139.58,-134.07"/>
</a>
</g>
</g>
<!-- Node27 -->
<g id="Node000027" class="node">
<title>Node27</title>
<g id="a_Node000027"><a xlink:href="print_8hpp.xhtml" target="_top" xlink:title=" ">
<polygon fill="white" stroke="#666666" points="1683.5,-135.38 1559.5,-135.38 1559.5,-116.12 1683.5,-116.12 1683.5,-135.38"/>
<text text-anchor="middle" x="1621.5" y="-121.88" font-family="Helvetica,sans-Serif" font-size="10.00">kalman_internal/print.hpp</text>
</a>
</g>
</g>
<!-- Node2&#45;&gt;Node27 -->
<g id="edge54_Node000002_Node000027" class="edge">
<title>Node2&#45;&gt;Node27</title>
<g id="a_edge54_Node000002_Node000027"><a xlink:title=" ">
<path fill="none" stroke="#63b8ff" d="M887.75,-233.34C891.04,-232.95 894.32,-232.58 897.5,-232.25 1119.98,-209.07 1179.74,-237.94 1399.5,-196.25 1467.98,-183.26 1545.02,-156.2 1587.96,-139.94"/>
<polygon fill="#63b8ff" stroke="#63b8ff" points="1589.12,-143.24 1597.21,-136.4 1586.62,-136.71 1589.12,-143.24"/>
</a>
</g>
</g>
<!-- Node29 -->
<g id="Node000029" class="node">
<title>Node29</title>
<g id="a_Node000029"><a xlink:title=" ">
<polygon fill="#e0e0e0" stroke="#999999" points="764.75,-196.25 630.25,-196.25 630.25,-177 764.75,-177 764.75,-196.25"/>
<text text-anchor="middle" x="697.5" y="-182.75" font-family="Helvetica,sans-Serif" font-size="10.00">kalman_internal/kalman.tpp</text>
</a>
</g>
</g>
<!-- Node2&#45;&gt;Node29 -->
<g id="edge59_Node000002_Node000029" class="edge">
<title>Node2&#45;&gt;Node29</title>
<g id="a_edge59_Node000002_Node000029"><a xlink:title=" ">
<path fill="none" stroke="#63b8ff" d="M811.26,-231.84C789.31,-223.31 756.15,-210.42 731.29,-200.76"/>
<polygon fill="#63b8ff" stroke="#63b8ff" points="732.85,-197.61 722.26,-197.25 730.32,-204.14 732.85,-197.61"/>
</a>
</g>
</g>
<!-- Node5 -->
<g id="Node000005" class="node">
<title>Node5</title>
<g id="a_Node000005"><a xlink:href="type_8hpp.xhtml" target="_top" xlink:title=" ">
<polygon fill="white" stroke="#666666" points="1465.5,-135.38 1413.5,-135.38 1413.5,-116.12 1465.5,-116.12 1465.5,-135.38"/>
<text text-anchor="middle" x="1439.5" y="-121.88" font-family="Helvetica,sans-Serif" font-size="10.00">type.hpp</text>
</a>
</g>
</g>
<!-- Node4&#45;&gt;Node5 -->
<g id="edge4_Node000004_Node000005" class="edge">
<title>Node4&#45;&gt;Node5</title>
<g id="a_edge4_Node000004_Node000005"><a xlink:title=" ">
<path fill="none" stroke="#63b8ff" d="M1039.17,-179.65C1118,-172.3 1252.08,-158.6 1366.5,-141 1378.18,-139.2 1390.83,-136.87 1402.28,-134.61"/>
<polygon fill="#63b8ff" stroke="#63b8ff" points="1402.64,-138.11 1411.75,-132.71 1401.26,-131.25 1402.64,-138.11"/>
</a>
</g>
</g>
<!-- Node7 -->
<g id="Node000007" class="node">
<title>Node7</title>
<g id="a_Node000007"><a xlink:title=" ">
<polygon fill="#e0e0e0" stroke="#999999" points="1541.38,-19.25 1485.62,-19.25 1485.62,0 1541.38,0 1541.38,-19.25"/>
<text text-anchor="middle" x="1513.5" y="-5.75" font-family="Helvetica,sans-Serif" font-size="10.00">concepts</text>
</a>
</g>
</g>
<!-- Node4&#45;&gt;Node7 -->
<g id="edge46_Node000004_Node000007" class="edge">
<title>Node4&#45;&gt;Node7</title>
<g id="a_edge46_Node000004_Node000007"><a xlink:title=" ">
<path fill="none" stroke="#63b8ff" d="M1039.12,-184.46C1173.06,-181.5 1462.02,-171.6 1494.5,-141 1524.52,-112.72 1521.68,-59.59 1517.37,-30.66"/>
<polygon fill="#63b8ff" stroke="#63b8ff" points="1520.86,-30.31 1515.72,-21.05 1513.96,-31.5 1520.86,-30.31"/>
</a>
</g>
</g>
<!-- Node9 -->
<g id="Node000009" class="node">
<title>Node9</title>
<g id="a_Node000009"><a xlink:title=" ">
<polygon fill="#e0e0e0" stroke="#999999" points="536,-19.25 499,-19.25 499,0 536,0 536,-19.25"/>
<text text-anchor="middle" x="517.5" y="-5.75" font-family="Helvetica,sans-Serif" font-size="10.00">tuple</text>
</a>
</g>
</g>
<!-- Node4&#45;&gt;Node9 -->
<g id="edge47_Node000004_Node000009" class="edge">
<title>Node4&#45;&gt;Node9</title>
<g id="a_edge47_Node000004_Node000009"><a xlink:title=" ">
<path fill="none" stroke="#63b8ff" d="M903.98,-177.75C901.11,-177.48 898.28,-177.23 895.5,-177 857.97,-173.88 244.42,-168.33 218.5,-141 135.71,-53.69 396.28,-21.5 487.31,-13.08"/>
<polygon fill="#63b8ff" stroke="#63b8ff" points="487.34,-16.59 496.99,-12.22 486.72,-9.62 487.34,-16.59"/>
</a>
</g>
</g>
<!-- Node10 -->
<g id="Node000010" class="node">
<title>Node10</title>
<g id="a_Node000010"><a xlink:title=" ">
<polygon fill="#e0e0e0" stroke="#999999" points="1468,-19.25 1407,-19.25 1407,0 1468,0 1468,-19.25"/>
<text text-anchor="middle" x="1437.5" y="-5.75" font-family="Helvetica,sans-Serif" font-size="10.00">type_traits</text>
</a>
</g>
</g>
<!-- Node4&#45;&gt;Node10 -->
<g id="edge48_Node000004_Node000010" class="edge">
<title>Node4&#45;&gt;Node10</title>
<g id="a_edge48_Node000004_Node000010"><a xlink:title=" ">
<path fill="none" stroke="#63b8ff" d="M1039.15,-184.59C1169.61,-181.89 1445.68,-172.49 1474.5,-141 1503.64,-109.16 1472.01,-55.99 1451.75,-28.42"/>
<polygon fill="#63b8ff" stroke="#63b8ff" points="1454.7,-26.53 1445.85,-20.71 1449.14,-30.78 1454.7,-26.53"/>
</a>
</g>
</g>
<!-- Node13 -->
<g id="Node000013" class="node">
<title>Node13</title>
<g id="a_Node000013"><a xlink:href="x__z__p__q__r_8hpp.xhtml" target="_top" xlink:title=" ">
<polygon fill="white" stroke="#666666" points="1243.25,-135.38 1165.75,-135.38 1165.75,-116.12 1243.25,-116.12 1243.25,-135.38"/>
<text text-anchor="middle" x="1204.5" y="-121.88" font-family="Helvetica,sans-Serif" font-size="10.00">x_z_p_q_r.hpp</text>
</a>
</g>
</g>
<!-- Node4&#45;&gt;Node13 -->
<g id="edge13_Node000004_Node000013" class="edge">
<title>Node4&#45;&gt;Node13</title>
<g id="a_edge13_Node000004_Node000013"><a xlink:title=" ">
<path fill="none" stroke="#63b8ff" d="M1012.31,-176.56C1050.12,-167.99 1107.82,-154.48 1157.5,-141 1159.78,-140.38 1162.12,-139.73 1164.48,-139.06"/>
<polygon fill="#63b8ff" stroke="#63b8ff" points="1165.43,-142.43 1174.04,-136.26 1163.46,-135.71 1165.43,-142.43"/>
</a>
</g>
</g>
<!-- Node14 -->
<g id="Node000014" class="node">
<title>Node14</title>
<g id="a_Node000014"><a xlink:href="x__z__p__q__r__h__f_8hpp.xhtml" target="_top" xlink:title=" ">
<polygon fill="white" stroke="#666666" points="1357.62,-135.38 1261.38,-135.38 1261.38,-116.12 1357.62,-116.12 1357.62,-135.38"/>
<text text-anchor="middle" x="1309.5" y="-121.88" font-family="Helvetica,sans-Serif" font-size="10.00">x_z_p_q_r_h_f.hpp</text>
</a>
</g>
</g>
<!-- Node4&#45;&gt;Node14 -->
<g id="edge15_Node000004_Node000014" class="edge">
<title>Node4&#45;&gt;Node14</title>
<g id="a_edge15_Node000004_Node000014"><a xlink:title=" ">
<path fill="none" stroke="#63b8ff" d="M1039.08,-176.59C1096.19,-168.54 1180.02,-155.79 1252.5,-141 1256.31,-140.22 1260.26,-139.36 1264.21,-138.45"/>
<polygon fill="#63b8ff" stroke="#63b8ff" points="1264.86,-141.9 1273.78,-136.18 1263.24,-135.09 1264.86,-141.9"/>
</a>
</g>
</g>
<!-- Node15 -->
<g id="Node000015" class="node">
<title>Node15</title>
<g id="a_Node000015"><a xlink:href="x__z__p__q__r__hh__f__us__ps_8hpp.xhtml" target="_top" xlink:title=" ">
<polygon fill="white" stroke="#666666" points="857,-135.38 724,-135.38 724,-116.12 857,-116.12 857,-135.38"/>
<text text-anchor="middle" x="790.5" y="-121.88" font-family="Helvetica,sans-Serif" font-size="10.00">x_z_p_q_r_hh_f_us_ps.hpp</text>
</a>
</g>
</g>
<!-- Node4&#45;&gt;Node15 -->
<g id="edge17_Node000004_Node000015" class="edge">
<title>Node4&#45;&gt;Node15</title>
<g id="a_edge17_Node000004_Node000015"><a xlink:title=" ">
<path fill="none" stroke="#63b8ff" d="M943.62,-176.55C912.92,-166.57 863.39,-150.46 829,-139.27"/>
<polygon fill="#63b8ff" stroke="#63b8ff" points="830.45,-136.06 819.86,-136.3 828.28,-142.72 830.45,-136.06"/>
</a>
</g>
</g>
<!-- Node18 -->
<g id="Node000018" class="node">
<title>Node18</title>
<g id="a_Node000018"><a xlink:href="x__z__p__q__r__hh__ff__ps_8hpp.xhtml" target="_top" xlink:title=" ">
<polygon fill="white" stroke="#666666" points="706.25,-135.38 586.75,-135.38 586.75,-116.12 706.25,-116.12 706.25,-135.38"/>
<text text-anchor="middle" x="646.5" y="-121.88" font-family="Helvetica,sans-Serif" font-size="10.00">x_z_p_q_r_hh_ff_ps.hpp</text>
</a>
</g>
</g>
<!-- Node4&#45;&gt;Node18 -->
<g id="edge22_Node000004_Node000018" class="edge">
<title>Node4&#45;&gt;Node18</title>
<g id="a_edge22_Node000004_Node000018"><a xlink:title=" ">
<path fill="none" stroke="#63b8ff" d="M916.23,-176.5C864.32,-167.81 784.53,-154.14 715.5,-141 710.64,-140.07 705.59,-139.09 700.53,-138.08"/>
<polygon fill="#63b8ff" stroke="#63b8ff" points="701.5,-134.7 691.01,-136.15 700.12,-141.56 701.5,-134.7"/>
</a>
</g>
</g>
<!-- Node19 -->
<g id="Node000019" class="node">
<title>Node19</title>
<g id="a_Node000019"><a xlink:href="x__z__p__qq__rr__f_8hpp.xhtml" target="_top" xlink:title=" ">
<polygon fill="white" stroke="#666666" points="969.5,-135.38 875.5,-135.38 875.5,-116.12 969.5,-116.12 969.5,-135.38"/>
<text text-anchor="middle" x="922.5" y="-121.88" font-family="Helvetica,sans-Serif" font-size="10.00">x_z_p_qq_rr_f.hpp</text>
</a>
</g>
</g>
<!-- Node4&#45;&gt;Node19 -->
<g id="edge26_Node000004_Node000019" class="edge">
<title>Node4&#45;&gt;Node19</title>
<g id="a_edge26_Node000004_Node000019"><a xlink:title=" ">
<path fill="none" stroke="#63b8ff" d="M964.06,-176.68C956.93,-168.12 945.99,-154.98 937.12,-144.32"/>
<polygon fill="#63b8ff" stroke="#63b8ff" points="940.07,-142.39 930.98,-136.94 934.69,-146.86 940.07,-142.39"/>
</a>
</g>
</g>
<!-- Node20 -->
<g id="Node000020" class="node">
<title>Node20</title>
<g id="a_Node000020"><a xlink:href="x__z__p__r_8hpp.xhtml" target="_top" xlink:title=" ">
<polygon fill="white" stroke="#666666" points="1055,-135.38 988,-135.38 988,-116.12 1055,-116.12 1055,-135.38"/>
<text text-anchor="middle" x="1021.5" y="-121.88" font-family="Helvetica,sans-Serif" font-size="10.00">x_z_p_r.hpp</text>
</a>
</g>
</g>
<!-- Node4&#45;&gt;Node20 -->
<g id="edge30_Node000004_Node000020" class="edge">
<title>Node4&#45;&gt;Node20</title>
<g id="a_edge30_Node000004_Node000020"><a xlink:title=" ">
<path fill="none" stroke="#63b8ff" d="M979.09,-176.68C986.36,-168.12 997.53,-154.98 1006.58,-144.32"/>
<polygon fill="#63b8ff" stroke="#63b8ff" points="1009.05,-146.82 1012.85,-136.93 1003.71,-142.29 1009.05,-146.82"/>
</a>
</g>
</g>
<!-- Node21 -->
<g id="Node000021" class="node">
<title>Node21</title>
<g id="a_Node000021"><a xlink:href="x__z__p__r__f_8hpp.xhtml" target="_top" xlink:title=" ">
<polygon fill="white" stroke="#666666" points="1148.12,-135.38 1072.88,-135.38 1072.88,-116.12 1148.12,-116.12 1148.12,-135.38"/>
<text text-anchor="middle" x="1110.5" y="-121.88" font-family="Helvetica,sans-Serif" font-size="10.00">x_z_p_r_f.hpp</text>
</a>
</g>
</g>
<!-- Node4&#45;&gt;Node21 -->
<g id="edge32_Node000004_Node000021" class="edge">
<title>Node4&#45;&gt;Node21</title>
<g id="a_edge32_Node000004_Node000021"><a xlink:title=" ">
<path fill="none" stroke="#63b8ff" d="M992.91,-176.55C1015.84,-166.85 1052.45,-151.34 1078.73,-140.21"/>
<polygon fill="#63b8ff" stroke="#63b8ff" points="1080.05,-143.45 1087.9,-136.32 1077.32,-137 1080.05,-143.45"/>
</a>
</g>
</g>
<!-- Node22 -->
<g id="Node000022" class="node">
<title>Node22</title>
<g id="a_Node000022"><a xlink:href="x__z__u__p__q__r_8hpp.xhtml" target="_top" xlink:title=" ">
<polygon fill="white" stroke="#666666" points="315.5,-135.38 227.5,-135.38 227.5,-116.12 315.5,-116.12 315.5,-135.38"/>
<text text-anchor="middle" x="271.5" y="-121.88" font-family="Helvetica,sans-Serif" font-size="10.00">x_z_u_p_q_r.hpp</text>
</a>
</g>
</g>
<!-- Node4&#45;&gt;Node22 -->
<g id="edge34_Node000004_Node000022" class="edge">
<title>Node4&#45;&gt;Node22</title>
<g id="a_edge34_Node000004_Node000022"><a xlink:title=" ">
<path fill="none" stroke="#63b8ff" d="M903.97,-177.78C901.11,-177.51 898.28,-177.25 895.5,-177 642.2,-154.66 575.42,-182.22 324.5,-141 320.45,-140.34 316.27,-139.49 312.11,-138.55"/>
<polygon fill="#63b8ff" stroke="#63b8ff" points="313.28,-135.23 302.73,-136.23 311.6,-142.03 313.28,-135.23"/>
</a>
</g>
</g>
<!-- Node23 -->
<g id="Node000023" class="node">
<title>Node23</title>
<g id="a_Node000023"><a xlink:href="x__z__u__p__q__r__h__f__g__us__ps_8hpp.xhtml" target="_top" xlink:title=" ">
<polygon fill="white" stroke="#666666" points="449,-141 334,-141 334,-110.5 449,-110.5 449,-141"/>
<text text-anchor="start" x="342" y="-127.5" font-family="Helvetica,sans-Serif" font-size="10.00">x_z_u_p_q_r_h_f_g_us</text>
<text text-anchor="middle" x="391.5" y="-116.25" font-family="Helvetica,sans-Serif" font-size="10.00">_ps.hpp</text>
</a>
</g>
</g>
<!-- Node4&#45;&gt;Node23 -->
<g id="edge38_Node000004_Node000023" class="edge">
<title>Node4&#45;&gt;Node23</title>
<g id="a_edge38_Node000004_Node000023"><a xlink:title=" ">
<path fill="none" stroke="#63b8ff" d="M903.97,-177.85C901.11,-177.56 898.28,-177.27 895.5,-177 704.81,-158.35 652.68,-169.24 460.71,-141.36"/>
<polygon fill="#63b8ff" stroke="#63b8ff" points="461.27,-137.9 450.87,-139.91 460.25,-144.83 461.27,-137.9"/>
</a>
</g>
</g>
<!-- Node24 -->
<g id="Node000024" class="node">
<title>Node24</title>
<g id="a_Node000024"><a xlink:href="x__z__u__p__qq__r__ff__gg__ps_8hpp.xhtml" target="_top" xlink:title=" ">
<polygon fill="white" stroke="#666666" points="568.25,-141 466.75,-141 466.75,-110.5 568.25,-110.5 568.25,-141"/>
<text text-anchor="start" x="474.75" y="-127.5" font-family="Helvetica,sans-Serif" font-size="10.00">x_z_u_p_qq_r_ff_gg</text>
<text text-anchor="middle" x="517.5" y="-116.25" font-family="Helvetica,sans-Serif" font-size="10.00">_ps.hpp</text>
</a>
</g>
</g>
<!-- Node4&#45;&gt;Node24 -->
<g id="edge42_Node000004_Node000024" class="edge">
<title>Node4&#45;&gt;Node24</title>
<g id="a_edge42_Node000004_Node000024"><a xlink:title=" ">
<path fill="none" stroke="#63b8ff" d="M903.96,-177.96C901.1,-177.63 898.27,-177.31 895.5,-177 757.76,-161.39 719.54,-165.26 579.62,-141.23"/>
<polygon fill="#63b8ff" stroke="#63b8ff" points="580.42,-137.82 569.97,-139.56 579.22,-144.72 580.42,-137.82"/>
</a>
</g>
</g>
<!-- Node5&#45;&gt;Node6 -->
<g id="edge5_Node000005_Node000006" class="edge">
<title>Node5&#45;&gt;Node6</title>
<g id="a_edge5_Node000005_Node000006"><a xlink:title=" ">
<path fill="none" stroke="#63b8ff" d="M1416.92,-115.71C1411.3,-113.74 1405.24,-111.84 1399.5,-110.5 1278.16,-82.1 1130.46,-71.33 1061.08,-67.62"/>
<polygon fill="#63b8ff" stroke="#63b8ff" points="1061.53,-64.14 1051.36,-67.12 1061.17,-71.13 1061.53,-64.14"/>
</a>
</g>
</g>
<!-- Node5&#45;&gt;Node10 -->
<g id="edge12_Node000005_Node000010" class="edge">
<title>Node5&#45;&gt;Node10</title>
<g id="a_edge12_Node000005_Node000010"><a xlink:title=" ">
<path fill="none" stroke="#63b8ff" d="M1439.34,-115.79C1439.02,-97.63 1438.3,-56.04 1437.86,-30.95"/>
<polygon fill="#63b8ff" stroke="#63b8ff" points="1441.36,-30.99 1437.68,-21.05 1434.36,-31.11 1441.36,-30.99"/>
</a>
</g>
</g>
<!-- Node12 -->
<g id="Node000012" class="node">
<title>Node12</title>
<g id="a_Node000012"><a xlink:title=" ">
<polygon fill="#e0e0e0" stroke="#999999" points="1411.25,-74.5 1339.75,-74.5 1339.75,-55.25 1411.25,-55.25 1411.25,-74.5"/>
<text text-anchor="middle" x="1375.5" y="-61" font-family="Helvetica,sans-Serif" font-size="10.00">initializer_list</text>
</a>
</g>
</g>
<!-- Node5&#45;&gt;Node12 -->
<g id="edge11_Node000005_Node000012" class="edge">
<title>Node5&#45;&gt;Node12</title>
<g id="a_edge11_Node000005_Node000012"><a xlink:title=" ">
<path fill="none" stroke="#63b8ff" d="M1429.78,-115.81C1420.19,-106.99 1405.31,-93.3 1393.56,-82.48"/>
<polygon fill="#63b8ff" stroke="#63b8ff" points="1396.15,-80.12 1386.43,-75.93 1391.42,-85.27 1396.15,-80.12"/>
</a>
</g>
</g>
<!-- Node6&#45;&gt;Node7 -->
<g id="edge6_Node000006_Node000007" class="edge">
<title>Node6&#45;&gt;Node7</title>
<g id="a_edge6_Node000006_Node000007"><a xlink:title=" ">
<path fill="none" stroke="#63b8ff" d="M1050.23,-62.44C1120.89,-58.62 1308.96,-46.68 1474.41,-19.58"/>
<polygon fill="#63b8ff" stroke="#63b8ff" points="1474.49,-23.12 1483.78,-18.02 1473.34,-16.21 1474.49,-23.12"/>
</a>
</g>
</g>
<!-- Node8 -->
<g id="Node000008" class="node">
<title>Node8</title>
<g id="a_Node000008"><a xlink:title=" ">
<polygon fill="#e0e0e0" stroke="#999999" points="283.62,-19.25 235.38,-19.25 235.38,0 283.62,0 283.62,-19.25"/>
<text text-anchor="middle" x="259.5" y="-5.75" font-family="Helvetica,sans-Serif" font-size="10.00">cstddef</text>
</a>
</g>
</g>
<!-- Node6&#45;&gt;Node8 -->
<g id="edge7_Node000006_Node000008" class="edge">
<title>Node6&#45;&gt;Node8</title>
<g id="a_edge7_Node000006_Node000008"><a xlink:title=" ">
<path fill="none" stroke="#63b8ff" d="M993.02,-61.88C875.12,-53.65 425.35,-22.22 295.06,-13.11"/>
<polygon fill="#63b8ff" stroke="#63b8ff" points="295.54,-9.64 285.32,-12.43 295.06,-16.62 295.54,-9.64"/>
</a>
</g>
</g>
<!-- Node6&#45;&gt;Node9 -->
<g id="edge8_Node000006_Node000009" class="edge">
<title>Node6&#45;&gt;Node9</title>
<g id="a_edge8_Node000006_Node000009"><a xlink:title=" ">
<path fill="none" stroke="#63b8ff" d="M992.96,-60.86C904.86,-51.55 637.74,-23.33 547.59,-13.8"/>
<polygon fill="#63b8ff" stroke="#63b8ff" points="548.13,-10.34 537.82,-12.77 547.39,-17.3 548.13,-10.34"/>
</a>
</g>
</g>
<!-- Node6&#45;&gt;Node10 -->
<g id="edge9_Node000006_Node000010" class="edge">
<title>Node6&#45;&gt;Node10</title>
<g id="a_edge9_Node000006_Node000010"><a xlink:title=" ">
<path fill="none" stroke="#63b8ff" d="M1050.09,-60.21C1122.06,-51 1310.97,-26.82 1395.53,-16"/>
<polygon fill="#63b8ff" stroke="#63b8ff" points="1395.77,-19.5 1405.24,-14.75 1394.88,-12.55 1395.77,-19.5"/>
</a>
</g>
</g>
<!-- Node11 -->
<g id="Node000011" class="node">
<title>Node11</title>
<g id="a_Node000011"><a xlink:title=" ">
<polygon fill="#e0e0e0" stroke="#999999" points="1597.75,-19.25 1559.25,-19.25 1559.25,0 1597.75,0 1597.75,-19.25"/>
<text text-anchor="middle" x="1578.5" y="-5.75" font-family="Helvetica,sans-Serif" font-size="10.00">utility</text>
</a>
</g>
</g>
<!-- Node6&#45;&gt;Node11 -->
<g id="edge10_Node000006_Node000011" class="edge">
<title>Node6&#45;&gt;Node11</title>
<g id="a_edge10_Node000006_Node000011"><a xlink:title=" ">
<path fill="none" stroke="#63b8ff" d="M1050.18,-63.61C1128.62,-62.43 1353.29,-56.03 1547.76,-19.37"/>
<polygon fill="#63b8ff" stroke="#63b8ff" points="1548.41,-22.81 1557.57,-17.49 1547.09,-15.94 1548.41,-22.81"/>
</a>
</g>
</g>
<!-- Node13&#45;&gt;Node6 -->
<g id="edge14_Node000013_Node000006" class="edge">
<title>Node13&#45;&gt;Node6</title>
<g id="a_edge14_Node000013_Node000006"><a xlink:title=" ">
<path fill="none" stroke="#63b8ff" d="M1176.31,-115.68C1145.28,-105.7 1095.19,-89.58 1060.43,-78.4"/>
<polygon fill="#63b8ff" stroke="#63b8ff" points="1061.76,-75.15 1051.17,-75.42 1059.61,-81.81 1061.76,-75.15"/>
</a>
</g>
</g>
<!-- Node14&#45;&gt;Node6 -->
<g id="edge16_Node000014_Node000006" class="edge">
<title>Node14&#45;&gt;Node6</title>
<g id="a_edge16_Node000014_Node000006"><a xlink:title=" ">
<path fill="none" stroke="#63b8ff" d="M1274.3,-115.63C1267.1,-113.86 1259.57,-112.07 1252.5,-110.5 1185.73,-95.72 1107.49,-81.18 1061.35,-72.9"/>
<polygon fill="#63b8ff" stroke="#63b8ff" points="1062,-69.46 1051.54,-71.14 1060.77,-76.35 1062,-69.46"/>
</a>
</g>
</g>
<!-- Node15&#45;&gt;Node6 -->
<g id="edge20_Node000015_Node000006" class="edge">
<title>Node15&#45;&gt;Node6</title>
<g id="a_edge20_Node000015_Node000006"><a xlink:title=" ">
<path fill="none" stroke="#63b8ff" d="M826.09,-115.68C868.14,-104.96 937.92,-87.18 981.73,-76.01"/>
<polygon fill="#63b8ff" stroke="#63b8ff" points="982.51,-79.42 991.34,-73.56 980.79,-72.64 982.51,-79.42"/>
</a>
</g>
</g>
<!-- Node15&#45;&gt;Node9 -->
<g id="edge21_Node000015_Node000009" class="edge">
<title>Node15&#45;&gt;Node9</title>
<g id="a_edge21_Node000015_Node000009"><a xlink:title=" ">
<path fill="none" stroke="#63b8ff" d="M779.07,-115.79C759.92,-101.18 719.67,-72.14 681.5,-55.25 636.6,-35.38 580.79,-22.49 547.22,-15.9"/>
<polygon fill="#63b8ff" stroke="#63b8ff" points="548.29,-12.54 537.81,-14.11 546.98,-19.42 548.29,-12.54"/>
</a>
</g>
</g>
<!-- Node16 -->
<g id="Node000016" class="node">
<title>Node16</title>
<g id="a_Node000016"><a xlink:href="function_8hpp.xhtml" target="_top" xlink:title=" ">
<polygon fill="white" stroke="#666666" points="672.75,-74.5 604.25,-74.5 604.25,-55.25 672.75,-55.25 672.75,-74.5"/>
<text text-anchor="middle" x="638.5" y="-61" font-family="Helvetica,sans-Serif" font-size="10.00">function.hpp</text>
</a>
</g>
</g>
<!-- Node15&#45;&gt;Node16 -->
<g id="edge18_Node000015_Node000016" class="edge">
<title>Node15&#45;&gt;Node16</title>
<g id="a_edge18_Node000015_Node000016"><a xlink:title=" ">
<path fill="none" stroke="#63b8ff" d="M767.08,-115.68C741.76,-105.87 701.14,-90.14 672.35,-78.98"/>
<polygon fill="#63b8ff" stroke="#63b8ff" points="673.94,-75.85 663.35,-75.5 671.42,-82.38 673.94,-75.85"/>
</a>
</g>
</g>
<!-- Node17 -->
<g id="Node000017" class="node">
<title>Node17</title>
<g id="a_Node000017"><a xlink:title=" ">
<polygon fill="#e0e0e0" stroke="#999999" points="663.75,-19.25 613.25,-19.25 613.25,0 663.75,0 663.75,-19.25"/>
<text text-anchor="middle" x="638.5" y="-5.75" font-family="Helvetica,sans-Serif" font-size="10.00">memory</text>
</a>
</g>
</g>
<!-- Node16&#45;&gt;Node17 -->
<g id="edge19_Node000016_Node000017" class="edge">
<title>Node16&#45;&gt;Node17</title>
<g id="a_edge19_Node000016_Node000017"><a xlink:title=" ">
<path fill="none" stroke="#63b8ff" d="M638.5,-55.08C638.5,-48.57 638.5,-39.42 638.5,-31.12"/>
<polygon fill="#63b8ff" stroke="#63b8ff" points="642,-31.12 638.5,-21.12 635,-31.12 642,-31.12"/>
</a>
</g>
</g>
<!-- Node18&#45;&gt;Node6 -->
<g id="edge24_Node000018_Node000006" class="edge">
<title>Node18&#45;&gt;Node6</title>
<g id="a_edge24_Node000018_Node000006"><a xlink:title=" ">
<path fill="none" stroke="#63b8ff" d="M688.39,-115.69C697.32,-113.87 706.71,-112.05 715.5,-110.5 810.72,-93.74 923.41,-78.48 981.86,-70.9"/>
<polygon fill="#63b8ff" stroke="#63b8ff" points="982.17,-74.39 991.64,-69.64 981.28,-67.44 982.17,-74.39"/>
</a>
</g>
</g>
<!-- Node18&#45;&gt;Node9 -->
<g id="edge25_Node000018_Node000009" class="edge">
<title>Node18&#45;&gt;Node9</title>
<g id="a_edge25_Node000018_Node000009"><a xlink:title=" ">
<path fill="none" stroke="#63b8ff" d="M636.38,-115.79C614.71,-96.63 563.58,-51.39 535.96,-26.96"/>
<polygon fill="#63b8ff" stroke="#63b8ff" points="538.52,-24.55 528.71,-20.54 533.88,-29.79 538.52,-24.55"/>
</a>
</g>
</g>
<!-- Node18&#45;&gt;Node16 -->
<g id="edge23_Node000018_Node000016" class="edge">
<title>Node18&#45;&gt;Node16</title>
<g id="a_edge23_Node000018_Node000016"><a xlink:title=" ">
<path fill="none" stroke="#63b8ff" d="M645.28,-115.81C644.22,-107.94 642.62,-96.2 641.24,-86.07"/>
<polygon fill="#63b8ff" stroke="#63b8ff" points="644.74,-85.84 639.93,-76.4 637.81,-86.78 644.74,-85.84"/>
</a>
</g>
</g>
<!-- Node19&#45;&gt;Node6 -->
<g id="edge28_Node000019_Node000006" class="edge">
<title>Node19&#45;&gt;Node6</title>
<g id="a_edge28_Node000019_Node000006"><a xlink:title=" ">
<path fill="none" stroke="#63b8ff" d="M937.54,-115.81C953.16,-106.51 977.89,-91.81 996.47,-80.76"/>
<polygon fill="#63b8ff" stroke="#63b8ff" points="998.22,-83.79 1005.02,-75.67 994.64,-77.78 998.22,-83.79"/>
</a>
</g>
</g>
<!-- Node19&#45;&gt;Node9 -->
<g id="edge29_Node000019_Node000009" class="edge">
<title>Node19&#45;&gt;Node9</title>
<g id="a_edge29_Node000019_Node000009"><a xlink:title=" ">
<path fill="none" stroke="#63b8ff" d="M897.52,-115.63C858.41,-101.54 780.19,-74.15 712.5,-55.25 654.73,-39.12 586.15,-24.44 547.64,-16.6"/>
<polygon fill="#63b8ff" stroke="#63b8ff" points="548.45,-13.19 537.96,-14.64 547.07,-20.05 548.45,-13.19"/>
</a>
</g>
</g>
<!-- Node19&#45;&gt;Node16 -->
<g id="edge27_Node000019_Node000016" class="edge">
<title>Node19&#45;&gt;Node16</title>
<g id="a_edge27_Node000019_Node000016"><a xlink:title=" ">
<path fill="none" stroke="#63b8ff" d="M887.92,-115.63C880.85,-113.86 873.45,-112.06 866.5,-110.5 803.56,-96.34 730.27,-82.46 684.13,-74.03"/>
<polygon fill="#63b8ff" stroke="#63b8ff" points="684.96,-70.62 674.49,-72.28 683.7,-77.51 684.96,-70.62"/>
</a>
</g>
</g>
<!-- Node20&#45;&gt;Node6 -->
<g id="edge31_Node000020_Node000006" class="edge">
<title>Node20&#45;&gt;Node6</title>
<g id="a_edge31_Node000020_Node000006"><a xlink:title=" ">
<path fill="none" stroke="#63b8ff" d="M1021.5,-115.81C1021.5,-108.03 1021.5,-96.45 1021.5,-86.41"/>
<polygon fill="#63b8ff" stroke="#63b8ff" points="1025,-86.41 1021.5,-76.41 1018,-86.41 1025,-86.41"/>
</a>
</g>
</g>
<!-- Node21&#45;&gt;Node6 -->
<g id="edge33_Node000021_Node000006" class="edge">
<title>Node21&#45;&gt;Node6</title>
<g id="a_edge33_Node000021_Node000006"><a xlink:title=" ">
<path fill="none" stroke="#63b8ff" d="M1096.98,-115.81C1083.13,-106.64 1061.32,-92.22 1044.7,-81.23"/>
<polygon fill="#63b8ff" stroke="#63b8ff" points="1046.68,-78.33 1036.41,-75.74 1042.82,-84.17 1046.68,-78.33"/>
</a>
</g>
</g>
<!-- Node22&#45;&gt;Node6 -->
<g id="edge36_Node000022_Node000006" class="edge">
<title>Node22&#45;&gt;Node6</title>
<g id="a_edge36_Node000022_Node000006"><a xlink:title=" ">
<path fill="none" stroke="#63b8ff" d="M301.26,-115.64C308.78,-113.64 316.88,-111.75 324.5,-110.5 452.56,-89.4 853.81,-72.38 981.83,-67.38"/>
<polygon fill="#63b8ff" stroke="#63b8ff" points="981.64,-70.89 991.49,-67 981.36,-63.89 981.64,-70.89"/>
</a>
</g>
</g>
<!-- Node22&#45;&gt;Node9 -->
<g id="edge37_Node000022_Node000009" class="edge">
<title>Node22&#45;&gt;Node9</title>
<g id="a_edge37_Node000022_Node000009"><a xlink:title=" ">
<path fill="none" stroke="#63b8ff" d="M290.8,-115.79C333.75,-95.87 437.42,-47.78 488.32,-24.16"/>
<polygon fill="#63b8ff" stroke="#63b8ff" points="489.65,-27.4 497.25,-20.02 486.71,-21.05 489.65,-27.4"/>
</a>
</g>
</g>
<!-- Node22&#45;&gt;Node16 -->
<g id="edge35_Node000022_Node000016" class="edge">
<title>Node22&#45;&gt;Node16</title>
<g id="a_edge35_Node000022_Node000016"><a xlink:title=" ">
<path fill="none" stroke="#63b8ff" d="M302.74,-115.68C309.85,-113.8 317.41,-111.95 324.5,-110.5 419.01,-91.15 531.24,-77.39 592.66,-70.62"/>
<polygon fill="#63b8ff" stroke="#63b8ff" points="592.81,-74.13 602.38,-69.57 592.06,-67.17 592.81,-74.13"/>
</a>
</g>
</g>
<!-- Node23&#45;&gt;Node6 -->
<g id="edge40_Node000023_Node000006" class="edge">
<title>Node23&#45;&gt;Node6</title>
<g id="a_edge40_Node000023_Node000006"><a xlink:title=" ">
<path fill="none" stroke="#63b8ff" d="M449.37,-111.8C452.11,-111.33 454.83,-110.89 457.5,-110.5 652.78,-81.82 888.99,-70.67 981.56,-67.2"/>
<polygon fill="#63b8ff" stroke="#63b8ff" points="981.51,-70.7 991.37,-66.84 981.25,-63.71 981.51,-70.7"/>
</a>
</g>
</g>
<!-- Node23&#45;&gt;Node9 -->
<g id="edge41_Node000023_Node000009" class="edge">
<title>Node23&#45;&gt;Node9</title>
<g id="a_edge41_Node000023_Node000009"><a xlink:title=" ">
<path fill="none" stroke="#63b8ff" d="M407.71,-110.06C431.17,-88.82 474.45,-49.62 499.08,-27.31"/>
<polygon fill="#63b8ff" stroke="#63b8ff" points="501.35,-29.98 506.41,-20.67 496.65,-24.79 501.35,-29.98"/>
</a>
</g>
</g>
<!-- Node23&#45;&gt;Node16 -->
<g id="edge39_Node000023_Node000016" class="edge">
<title>Node23&#45;&gt;Node16</title>
<g id="a_edge39_Node000023_Node000016"><a xlink:title=" ">
<path fill="none" stroke="#63b8ff" d="M449.41,-110.95C493.11,-100.53 552.24,-86.44 592.68,-76.8"/>
<polygon fill="#63b8ff" stroke="#63b8ff" points="593.43,-80.22 602.34,-74.49 591.8,-73.41 593.43,-80.22"/>
</a>
</g>
</g>
<!-- Node24&#45;&gt;Node6 -->
<g id="edge44_Node000024_Node000006" class="edge">
<title>Node24&#45;&gt;Node6</title>
<g id="a_edge44_Node000024_Node000006"><a xlink:title=" ">
<path fill="none" stroke="#63b8ff" d="M568.47,-112.16C571.52,-111.56 574.54,-111 577.5,-110.5 725.38,-85.62 903.47,-72.85 981.54,-68.1"/>
<polygon fill="#63b8ff" stroke="#63b8ff" points="981.47,-71.61 991.24,-67.53 981.05,-64.63 981.47,-71.61"/>
</a>
</g>
</g>
<!-- Node24&#45;&gt;Node9 -->
<g id="edge45_Node000024_Node000009" class="edge">
<title>Node24&#45;&gt;Node9</title>
<g id="a_edge45_Node000024_Node000009"><a xlink:title=" ">
<path fill="none" stroke="#63b8ff" d="M517.5,-110.3C517.5,-90.25 517.5,-53.9 517.5,-31.07"/>
<polygon fill="#63b8ff" stroke="#63b8ff" points="521,-31.21 517.5,-21.21 514,-31.21 521,-31.21"/>
</a>
</g>
</g>
<!-- Node24&#45;&gt;Node16 -->
<g id="edge43_Node000024_Node000016" class="edge">
<title>Node24&#45;&gt;Node16</title>
<g id="a_edge43_Node000024_Node000016"><a xlink:title=" ">
<path fill="none" stroke="#63b8ff" d="M547.72,-110.05C566.68,-100.82 590.98,-89 609.67,-79.9"/>
<polygon fill="#63b8ff" stroke="#63b8ff" points="611.12,-83.09 618.58,-75.57 608.06,-76.79 611.12,-83.09"/>
</a>
</g>
</g>
<!-- Node25&#45;&gt;Node6 -->
<g id="edge50_Node000025_Node000006" class="edge">
<title>Node25&#45;&gt;Node6</title>
<g id="a_edge50_Node000025_Node000006"><a xlink:title=" ">
<path fill="none" stroke="#63b8ff" d="M133.42,-117.92C159.9,-115.37 190.62,-112.58 218.5,-110.5 511.29,-88.65 864.87,-72.59 981.82,-67.55"/>
<polygon fill="#63b8ff" stroke="#63b8ff" points="981.67,-71.06 991.51,-67.13 981.37,-64.06 981.67,-71.06"/>
</a>
</g>
</g>
<!-- Node25&#45;&gt;Node8 -->
<g id="edge51_Node000025_Node000008" class="edge">
<title>Node25&#45;&gt;Node8</title>
<g id="a_edge51_Node000025_Node000008"><a xlink:title=" ">
<path fill="none" stroke="#63b8ff" d="M66.27,-115.66C66.4,-100.86 68.92,-71.57 85.5,-55.25 122.36,-18.97 184.49,-10.97 223.67,-9.83"/>
<polygon fill="#63b8ff" stroke="#63b8ff" points="223.58,-13.33 233.53,-9.7 223.48,-6.33 223.58,-13.33"/>
</a>
</g>
</g>
<!-- Node25&#45;&gt;Node9 -->
<g id="edge53_Node000025_Node000009" class="edge">
<title>Node25&#45;&gt;Node9</title>
<g id="a_edge53_Node000025_Node000009"><a xlink:title=" ">
<path fill="none" stroke="#63b8ff" d="M70.13,-116.11C77.04,-100.87 93.65,-69.47 118.5,-55.25 181.36,-19.27 405.13,-12.3 487.11,-10.95"/>
<polygon fill="#63b8ff" stroke="#63b8ff" points="487.12,-14.45 497.06,-10.8 487.01,-7.45 487.12,-14.45"/>
</a>
</g>
</g>
<!-- Node25&#45;&gt;Node26 -->
<g id="edge52_Node000025_Node000026" class="edge">
<title>Node25&#45;&gt;Node26</title>
<g id="a_edge52_Node000025_Node000026"><a xlink:title=" ">
<path fill="none" stroke="#63b8ff" d="M79.11,-115.81C91.9,-106.73 111.98,-92.49 127.42,-81.54"/>
<polygon fill="#63b8ff" stroke="#63b8ff" points="129.41,-84.42 135.54,-75.78 125.36,-78.71 129.41,-84.42"/>
</a>
</g>
</g>
<!-- Node27&#45;&gt;Node6 -->
<g id="edge55_Node000027_Node000006" class="edge">
<title>Node27&#45;&gt;Node6</title>
<g id="a_edge55_Node000027_Node000006"><a xlink:title=" ">
<path fill="none" stroke="#63b8ff" d="M1559.27,-118.64C1435.99,-106.55 1163.84,-79.84 1061.48,-69.8"/>
<polygon fill="#63b8ff" stroke="#63b8ff" points="1061.94,-66.33 1051.64,-68.83 1061.25,-73.29 1061.94,-66.33"/>
</a>
</g>
</g>
<!-- Node27&#45;&gt;Node11 -->
<g id="edge57_Node000027_Node000011" class="edge">
<title>Node27&#45;&gt;Node11</title>
<g id="a_edge57_Node000027_Node000011"><a xlink:title=" ">
<path fill="none" stroke="#63b8ff" d="M1616.64,-115.68C1611.44,-105.76 1603.19,-89.3 1597.5,-74.5 1591.9,-59.93 1586.92,-42.98 1583.47,-30.21"/>
<polygon fill="#63b8ff" stroke="#63b8ff" points="1586.96,-29.7 1581.04,-20.91 1580.18,-31.47 1586.96,-29.7"/>
</a>
</g>
</g>
<!-- Node28 -->
<g id="Node000028" class="node">
<title>Node28</title>
<g id="a_Node000028"><a xlink:title=" ">
<polygon fill="#e0e0e0" stroke="#999999" points="1640.88,-74.5 1606.12,-74.5 1606.12,-55.25 1640.88,-55.25 1640.88,-74.5"/>
<text text-anchor="middle" x="1623.5" y="-61" font-family="Helvetica,sans-Serif" font-size="10.00">print</text>
</a>
</g>
</g>
<!-- Node27&#45;&gt;Node28 -->
<g id="edge56_Node000027_Node000028" class="edge">
<title>Node27&#45;&gt;Node28</title>
<g id="a_edge56_Node000027_Node000028"><a xlink:title=" ">
<path fill="none" stroke="#63b8ff" d="M1621.8,-115.81C1622.07,-107.94 1622.47,-96.2 1622.81,-86.07"/>
<polygon fill="#63b8ff" stroke="#63b8ff" points="1626.3,-86.53 1623.14,-76.41 1619.3,-86.29 1626.3,-86.53"/>
</a>
</g>
</g>
</g>
</svg>

<g id="navigator" transform="translate(0 0)" fill="#404254">
  <rect fill="#f2f5e9" fill-opacity="0.5" stroke="#606060" stroke-width=".5" x="0" y="0" width="60" height="60"/>
  <use id="zoomplus" xlink:href="#zoomPlus" x="17" y="9" onmousedown="handleZoom(evt,'in')"/>
  <use id="zoomminus" xlink:href="#zoomMin" x="42" y="9" onmousedown="handleZoom(evt,'out')"/>
  <use id="reset" xlink:href="#resetDef" x="30" y="36" onmousedown="handleReset()"/>
   <use id="arrowup" xlink:href="#arrowUp" x="0" y="0" onmousedown="handlePan(0,-1)"/>
  <use id="arrowright" xlink:href="#arrowRight" x="0" y="0" onmousedown="handlePan(1,0)"/>
  <use id="arrowdown" xlink:href="#arrowDown" x="0" y="0" onmousedown="handlePan(0,1)"/>
  <use id="arrowleft" xlink:href="#arrowLeft" x="0" y="0" onmousedown="handlePan(-1,0)"/>
</g>
<svg viewBox="0 0 15 15" width="100%" height="30px" preserveAspectRatio="xMaxYMin meet">
 <g id="arrow_out" transform="scale(0.3 0.3)">
  <a xlink:href="kf__6x2x0__vehicle__location__unit_8cpp__incl_org.svg" target="_base">
   <rect id="button" ry="5" rx="5" y="6" x="6" height="38" width="38"
        fill="#f2f5e9" fill-opacity="0.5" stroke="#606060" stroke-width="1.0"/>
   <path id="arrow"
     d="M 11.500037,31.436501 C 11.940474,20.09759 22.043105,11.32322 32.158766,21.979434 L 37.068811,17.246167 C 37.068811,17.246167 37.088388,32 37.088388,32 L 22.160133,31.978069 C 22.160133,31.978069 26.997745,27.140456 26.997745,27.140456 C 18.528582,18.264221 13.291696,25.230495 11.500037,31.436501 z"
     style="fill:#404040;"/>
  </a>
 </g>
</svg>

<style type='text/css'>
<![CDATA[
[data-mouse-over-selected='false'] { opacity: 0.7; }
[data-mouse-over-selected='true']  { opacity: 1.0; }
]]>
</style>
<script type="application/ecmascript"><![CDATA[
document.addEventListener('DOMContentLoaded', (event) => {
  highlightEdges();
  highlightAdjacentNodes();
});
]]></script>
</svg>
