<?xml version="1.0" encoding="UTF-8" standalone="no"?>
<!DOCTYPE svg PUBLIC "-//W3C//DTD SVG 1.1//EN"
 "http://www.w3.org/Graphics/SVG/1.1/DTD/svg11.dtd">
<!-- Generated by graphviz version 12.2.0 (20241103.1931)
 -->
<!-- Title: /github/workspace/sample/kf_1x1x0_building_height_unit.cpp Pages: 1 -->
<svg width="1784pt" height="415pt"
 viewBox="0.00 0.00 1784.00 415.00" xmlns="http://www.w3.org/2000/svg" xmlns:xlink="http://www.w3.org/1999/xlink">
<g id="graph0" class="graph" transform="scale(1 1) rotate(0) translate(4 411)">
<title>/github/workspace/sample/kf_1x1x0_building_height_unit.cpp</title>
<!-- Node1 -->
<g id="Node000001" class="node">
<title>Node1</title>
<g id="a_Node000001"><a xlink:title=" ">
<polygon fill="#999999" stroke="#666666" points="1556.38,-407 1426.38,-407 1426.38,-365.25 1556.38,-365.25 1556.38,-407"/>
<text text-anchor="start" x="1434.38" y="-393.5" font-family="Helvetica,sans-Serif" font-size="10.00">/github/workspace/sample</text>
<text text-anchor="start" x="1434.38" y="-382.25" font-family="Helvetica,sans-Serif" font-size="10.00">/kf_1x1x0_building_height</text>
<text text-anchor="middle" x="1491.38" y="-371" font-family="Helvetica,sans-Serif" font-size="10.00">_unit.cpp</text>
</a>
</g>
</g>
<!-- Node2 -->
<g id="Node000002" class="node">
<title>Node2</title>
<g id="a_Node000002"><a xlink:href="kalman_8hpp.xhtml" target="_top" xlink:title="The Kalman filter class and library top&#45;level header.">
<polygon fill="white" stroke="#666666" points="1240.38,-329.25 1134.38,-329.25 1134.38,-310 1240.38,-310 1240.38,-329.25"/>
<text text-anchor="middle" x="1187.38" y="-315.75" font-family="Helvetica,sans-Serif" font-size="10.00">fcarouge/kalman.hpp</text>
</a>
</g>
</g>
<!-- Node1&#45;&gt;Node2 -->
<g id="edge1_Node000001_Node000002" class="edge">
<title>Node1&#45;&gt;Node2</title>
<g id="a_edge1_Node000001_Node000002"><a xlink:title=" ">
<path fill="none" stroke="#63b8ff" d="M1426.16,-371.29C1371.01,-359.59 1292.95,-343.02 1241.28,-332.06"/>
<polygon fill="#63b8ff" stroke="#63b8ff" points="1242.02,-328.64 1231.51,-329.99 1240.57,-335.49 1242.02,-328.64"/>
</a>
</g>
</g>
<!-- Node29 -->
<g id="Node000029" class="node">
<title>Node29</title>
<g id="a_Node000029"><a xlink:href="unit_8hpp.xhtml" target="_top" xlink:title="Quantities and units facade for mp&#45;units third party implementation.">
<polygon fill="white" stroke="#666666" points="1536.5,-329.25 1446.25,-329.25 1446.25,-310 1536.5,-310 1536.5,-329.25"/>
<text text-anchor="middle" x="1491.38" y="-315.75" font-family="Helvetica,sans-Serif" font-size="10.00">fcarouge/unit.hpp</text>
</a>
</g>
</g>
<!-- Node1&#45;&gt;Node29 -->
<g id="edge54_Node000001_Node000029" class="edge">
<title>Node1&#45;&gt;Node29</title>
<g id="a_edge54_Node000001_Node000029"><a xlink:title=" ">
<path fill="none" stroke="#63b8ff" d="M1491.38,-365.07C1491.38,-357.4 1491.38,-348.64 1491.38,-340.95"/>
<polygon fill="#63b8ff" stroke="#63b8ff" points="1494.88,-341.21 1491.38,-331.21 1487.88,-341.21 1494.88,-341.21"/>
</a>
</g>
</g>
<!-- Node34 -->
<g id="Node000034" class="node">
<title>Node34</title>
<g id="a_Node000034"><a xlink:title=" ">
<polygon fill="#e0e0e0" stroke="#999999" points="1602.5,-329.25 1554.25,-329.25 1554.25,-310 1602.5,-310 1602.5,-329.25"/>
<text text-anchor="middle" x="1578.38" y="-315.75" font-family="Helvetica,sans-Serif" font-size="10.00">cassert</text>
</a>
</g>
</g>
<!-- Node1&#45;&gt;Node34 -->
<g id="edge59_Node000001_Node000034" class="edge">
<title>Node1&#45;&gt;Node34</title>
<g id="a_edge59_Node000001_Node000034"><a xlink:title=" ">
<path fill="none" stroke="#63b8ff" d="M1518.43,-365.07C1530.9,-355.83 1545.48,-345.01 1557.14,-336.37"/>
<polygon fill="#63b8ff" stroke="#63b8ff" points="1558.98,-339.36 1564.92,-330.6 1554.81,-333.74 1558.98,-339.36"/>
</a>
</g>
</g>
<!-- Node3 -->
<g id="Node000003" class="node">
<title>Node3</title>
<g id="a_Node000003"><a xlink:href="format_8hpp.xhtml" target="_top" xlink:title="Formatting support for the Kalman filter.">
<polygon fill="white" stroke="#666666" points="1383.25,-196.25 1321.5,-196.25 1321.5,-177 1383.25,-177 1383.25,-196.25"/>
<text text-anchor="middle" x="1352.38" y="-182.75" font-family="Helvetica,sans-Serif" font-size="10.00">format.hpp</text>
</a>
</g>
</g>
<!-- Node2&#45;&gt;Node3 -->
<g id="edge2_Node000002_Node000003" class="edge">
<title>Node2&#45;&gt;Node3</title>
<g id="a_edge2_Node000002_Node000003"><a xlink:title=" ">
<path fill="none" stroke="#63b8ff" d="M1215.32,-309.55C1235.56,-302.09 1262.85,-290.12 1283.38,-274 1307.84,-254.78 1328.98,-225.27 1341.21,-206.21"/>
<polygon fill="#63b8ff" stroke="#63b8ff" points="1344.08,-208.21 1346.39,-197.87 1338.14,-204.52 1344.08,-208.21"/>
</a>
</g>
</g>
<!-- Node4 -->
<g id="Node000004" class="node">
<title>Node4</title>
<g id="a_Node000004"><a xlink:href="utility_8hpp.xhtml" target="_top" xlink:title="The collection of utilities supporting the library.">
<polygon fill="white" stroke="#666666" points="949.88,-129.75 852.88,-129.75 852.88,-110.5 949.88,-110.5 949.88,-129.75"/>
<text text-anchor="middle" x="901.38" y="-116.25" font-family="Helvetica,sans-Serif" font-size="10.00">fcarouge/utility.hpp</text>
</a>
</g>
</g>
<!-- Node2&#45;&gt;Node4 -->
<g id="edge52_Node000002_Node000004" class="edge">
<title>Node2&#45;&gt;Node4</title>
<g id="a_edge52_Node000002_Node000004"><a xlink:title=" ">
<path fill="none" stroke="#63b8ff" d="M1183.17,-309.83C1178.96,-300.89 1172.41,-286.62 1167.38,-274 1148.49,-226.64 1167.94,-199.11 1129.38,-165.75 1104.75,-144.44 1020.47,-132.26 961.59,-126.17"/>
<polygon fill="#63b8ff" stroke="#63b8ff" points="961.98,-122.69 951.69,-125.18 961.29,-129.66 961.98,-122.69"/>
</a>
</g>
</g>
<!-- Node12 -->
<g id="Node000012" class="node">
<title>Node12</title>
<g id="a_Node000012"><a xlink:href="factory_8hpp.xhtml" target="_top" xlink:title=" ">
<polygon fill="white" stroke="#666666" points="893.25,-268.38 795.5,-268.38 795.5,-249.12 893.25,-249.12 893.25,-268.38"/>
<text text-anchor="middle" x="844.38" y="-254.88" font-family="Helvetica,sans-Serif" font-size="10.00">internal/factory.hpp</text>
</a>
</g>
</g>
<!-- Node2&#45;&gt;Node12 -->
<g id="edge14_Node000002_Node000012" class="edge">
<title>Node2&#45;&gt;Node12</title>
<g id="a_edge14_Node000002_Node000012"><a xlink:title=" ">
<path fill="none" stroke="#63b8ff" d="M1134.53,-309.55C1072.58,-298.92 970.09,-281.33 904.97,-270.15"/>
<polygon fill="#63b8ff" stroke="#63b8ff" points="905.6,-266.71 895.15,-268.47 904.41,-273.61 905.6,-266.71"/>
</a>
</g>
</g>
<!-- Node26 -->
<g id="Node000026" class="node">
<title>Node26</title>
<g id="a_Node000026"><a xlink:href="printer_8hpp.xhtml" target="_top" xlink:title="Filter decoration support for printing operations.">
<polygon fill="white" stroke="#666666" points="412.88,-268.38 351.88,-268.38 351.88,-249.12 412.88,-249.12 412.88,-268.38"/>
<text text-anchor="middle" x="382.38" y="-254.88" font-family="Helvetica,sans-Serif" font-size="10.00">printer.hpp</text>
</a>
</g>
</g>
<!-- Node2&#45;&gt;Node26 -->
<g id="edge50_Node000002_Node000026" class="edge">
<title>Node2&#45;&gt;Node26</title>
<g id="a_edge50_Node000002_Node000026"><a xlink:title=" ">
<path fill="none" stroke="#63b8ff" d="M1133.93,-314.72C983.78,-303.73 560.24,-272.76 424.67,-262.84"/>
<polygon fill="#63b8ff" stroke="#63b8ff" points="424.94,-259.35 414.71,-262.11 424.43,-266.34 424.94,-259.35"/>
</a>
</g>
</g>
<!-- Node28 -->
<g id="Node000028" class="node">
<title>Node28</title>
<g id="a_Node000028"><a xlink:title=" ">
<polygon fill="#e0e0e0" stroke="#999999" points="1274.25,-268.38 1176.5,-268.38 1176.5,-249.12 1274.25,-249.12 1274.25,-268.38"/>
<text text-anchor="middle" x="1225.38" y="-254.88" font-family="Helvetica,sans-Serif" font-size="10.00">internal/kalman.tpp</text>
</a>
</g>
</g>
<!-- Node2&#45;&gt;Node28 -->
<g id="edge53_Node000002_Node000028" class="edge">
<title>Node2&#45;&gt;Node28</title>
<g id="a_edge53_Node000002_Node000028"><a xlink:title=" ">
<path fill="none" stroke="#63b8ff" d="M1193.15,-309.68C1198.5,-301.38 1206.64,-288.77 1213.4,-278.3"/>
<polygon fill="#63b8ff" stroke="#63b8ff" points="1216.25,-280.35 1218.73,-270.05 1210.36,-276.55 1216.25,-280.35"/>
</a>
</g>
</g>
<!-- Node3&#45;&gt;Node4 -->
<g id="edge3_Node000003_Node000004" class="edge">
<title>Node3&#45;&gt;Node4</title>
<g id="a_edge3_Node000003_Node000004"><a xlink:title=" ">
<path fill="none" stroke="#63b8ff" d="M1337.32,-176.56C1330.03,-172.59 1321.01,-168.28 1312.38,-165.75 1248.17,-146.96 1059.52,-131.87 961.72,-125.06"/>
<polygon fill="#63b8ff" stroke="#63b8ff" points="961.99,-121.57 951.77,-124.37 961.51,-128.55 961.99,-121.57"/>
</a>
</g>
</g>
<!-- Node7 -->
<g id="Node000007" class="node">
<title>Node7</title>
<g id="a_Node000007"><a xlink:title=" ">
<polygon fill="#e0e0e0" stroke="#999999" points="1237.5,-19.25 1189.25,-19.25 1189.25,0 1237.5,0 1237.5,-19.25"/>
<text text-anchor="middle" x="1213.38" y="-5.75" font-family="Helvetica,sans-Serif" font-size="10.00">cstddef</text>
</a>
</g>
</g>
<!-- Node3&#45;&gt;Node7 -->
<g id="edge11_Node000003_Node000007" class="edge">
<title>Node3&#45;&gt;Node7</title>
<g id="a_edge11_Node000003_Node000007"><a xlink:title=" ">
<path fill="none" stroke="#63b8ff" d="M1338.63,-176.68C1313.72,-159.74 1261.02,-120.55 1232.38,-74.5 1224.04,-61.1 1219.19,-43.84 1216.48,-30.65"/>
<polygon fill="#63b8ff" stroke="#63b8ff" points="1219.96,-30.22 1214.76,-20.99 1213.07,-31.44 1219.96,-30.22"/>
</a>
</g>
</g>
<!-- Node8 -->
<g id="Node000008" class="node">
<title>Node8</title>
<g id="a_Node000008"><a xlink:title=" ">
<polygon fill="#e0e0e0" stroke="#999999" points="515.88,-19.25 478.88,-19.25 478.88,0 515.88,0 515.88,-19.25"/>
<text text-anchor="middle" x="497.38" y="-5.75" font-family="Helvetica,sans-Serif" font-size="10.00">tuple</text>
</a>
</g>
</g>
<!-- Node3&#45;&gt;Node8 -->
<g id="edge13_Node000003_Node000008" class="edge">
<title>Node3&#45;&gt;Node8</title>
<g id="a_edge13_Node000003_Node000008"><a xlink:title=" ">
<path fill="none" stroke="#63b8ff" d="M1335.94,-176.62C1328.83,-172.95 1320.32,-168.84 1312.38,-165.75 1147.26,-101.52 1103.29,-89.04 929.38,-55.25 779.99,-26.23 597.65,-15.23 527.16,-11.88"/>
<polygon fill="#63b8ff" stroke="#63b8ff" points="527.74,-8.4 517.59,-11.44 527.42,-15.39 527.74,-8.4"/>
</a>
</g>
</g>
<!-- Node11 -->
<g id="Node000011" class="node">
<title>Node11</title>
<g id="a_Node000011"><a xlink:title=" ">
<polygon fill="#e0e0e0" stroke="#999999" points="1383.25,-129.75 1339.5,-129.75 1339.5,-110.5 1383.25,-110.5 1383.25,-129.75"/>
<text text-anchor="middle" x="1361.38" y="-116.25" font-family="Helvetica,sans-Serif" font-size="10.00">format</text>
</a>
</g>
</g>
<!-- Node3&#45;&gt;Node11 -->
<g id="edge12_Node000003_Node000011" class="edge">
<title>Node3&#45;&gt;Node11</title>
<g id="a_edge12_Node000003_Node000011"><a xlink:title=" ">
<path fill="none" stroke="#63b8ff" d="M1353.63,-176.66C1354.9,-167.51 1356.93,-153.02 1358.58,-141.13"/>
<polygon fill="#63b8ff" stroke="#63b8ff" points="1362.01,-141.9 1359.93,-131.52 1355.08,-140.94 1362.01,-141.9"/>
</a>
</g>
</g>
<!-- Node5 -->
<g id="Node000005" class="node">
<title>Node5</title>
<g id="a_Node000005"><a xlink:href="internal_2utility_8hpp.xhtml" target="_top" xlink:title=" ">
<polygon fill="white" stroke="#666666" points="1332.88,-74.5 1241.88,-74.5 1241.88,-55.25 1332.88,-55.25 1332.88,-74.5"/>
<text text-anchor="middle" x="1287.38" y="-61" font-family="Helvetica,sans-Serif" font-size="10.00">internal/utility.hpp</text>
</a>
</g>
</g>
<!-- Node4&#45;&gt;Node5 -->
<g id="edge4_Node000004_Node000005" class="edge">
<title>Node4&#45;&gt;Node5</title>
<g id="a_edge4_Node000004_Node000005"><a xlink:title=" ">
<path fill="none" stroke="#63b8ff" d="M950.26,-112.38C1021.75,-102.52 1154.54,-84.2 1230.37,-73.74"/>
<polygon fill="#63b8ff" stroke="#63b8ff" points="1230.66,-77.23 1240.09,-72.4 1229.7,-70.3 1230.66,-77.23"/>
</a>
</g>
</g>
<!-- Node4&#45;&gt;Node7 -->
<g id="edge9_Node000004_Node000007" class="edge">
<title>Node4&#45;&gt;Node7</title>
<g id="a_edge9_Node000004_Node000007"><a xlink:title=" ">
<path fill="none" stroke="#63b8ff" d="M927.44,-110.06C983.39,-90.6 1115.06,-44.81 1178.28,-22.83"/>
<polygon fill="#63b8ff" stroke="#63b8ff" points="1179.18,-26.22 1187.47,-19.63 1176.88,-19.61 1179.18,-26.22"/>
</a>
</g>
</g>
<!-- Node10 -->
<g id="Node000010" class="node">
<title>Node10</title>
<g id="a_Node000010"><a xlink:title=" ">
<polygon fill="#e0e0e0" stroke="#999999" points="920.62,-74.5 882.12,-74.5 882.12,-55.25 920.62,-55.25 920.62,-74.5"/>
<text text-anchor="middle" x="901.38" y="-61" font-family="Helvetica,sans-Serif" font-size="10.00">utility</text>
</a>
</g>
</g>
<!-- Node4&#45;&gt;Node10 -->
<g id="edge10_Node000004_Node000010" class="edge">
<title>Node4&#45;&gt;Node10</title>
<g id="a_edge10_Node000004_Node000010"><a xlink:title=" ">
<path fill="none" stroke="#63b8ff" d="M901.38,-110.33C901.38,-103.82 901.38,-94.67 901.38,-86.37"/>
<polygon fill="#63b8ff" stroke="#63b8ff" points="904.88,-86.37 901.38,-76.37 897.88,-86.37 904.88,-86.37"/>
</a>
</g>
</g>
<!-- Node6 -->
<g id="Node000006" class="node">
<title>Node6</title>
<g id="a_Node000006"><a xlink:title=" ">
<polygon fill="#e0e0e0" stroke="#999999" points="1333.25,-19.25 1277.5,-19.25 1277.5,0 1333.25,0 1333.25,-19.25"/>
<text text-anchor="middle" x="1305.38" y="-5.75" font-family="Helvetica,sans-Serif" font-size="10.00">concepts</text>
</a>
</g>
</g>
<!-- Node5&#45;&gt;Node6 -->
<g id="edge5_Node000005_Node000006" class="edge">
<title>Node5&#45;&gt;Node6</title>
<g id="a_edge5_Node000005_Node000006"><a xlink:title=" ">
<path fill="none" stroke="#63b8ff" d="M1290.35,-55.08C1292.63,-48.34 1295.86,-38.77 1298.74,-30.24"/>
<polygon fill="#63b8ff" stroke="#63b8ff" points="1301.97,-31.64 1301.85,-21.04 1295.34,-29.4 1301.97,-31.64"/>
</a>
</g>
</g>
<!-- Node5&#45;&gt;Node7 -->
<g id="edge6_Node000005_Node000007" class="edge">
<title>Node5&#45;&gt;Node7</title>
<g id="a_edge6_Node000005_Node000007"><a xlink:title=" ">
<path fill="none" stroke="#63b8ff" d="M1274.82,-54.84C1263.91,-46.99 1247.87,-35.45 1234.91,-26.12"/>
<polygon fill="#63b8ff" stroke="#63b8ff" points="1237.13,-23.41 1226.97,-20.41 1233.04,-29.09 1237.13,-23.41"/>
</a>
</g>
</g>
<!-- Node5&#45;&gt;Node8 -->
<g id="edge7_Node000005_Node000008" class="edge">
<title>Node5&#45;&gt;Node8</title>
<g id="a_edge7_Node000005_Node000008"><a xlink:title=" ">
<path fill="none" stroke="#63b8ff" d="M1241.49,-60.78C1095.99,-50.97 647.49,-20.74 527.28,-12.64"/>
<polygon fill="#63b8ff" stroke="#63b8ff" points="527.8,-9.17 517.59,-11.99 527.33,-16.15 527.8,-9.17"/>
</a>
</g>
</g>
<!-- Node9 -->
<g id="Node000009" class="node">
<title>Node9</title>
<g id="a_Node000009"><a xlink:title=" ">
<polygon fill="#e0e0e0" stroke="#999999" points="1429.88,-19.25 1368.88,-19.25 1368.88,0 1429.88,0 1429.88,-19.25"/>
<text text-anchor="middle" x="1399.38" y="-5.75" font-family="Helvetica,sans-Serif" font-size="10.00">type_traits</text>
</a>
</g>
</g>
<!-- Node5&#45;&gt;Node9 -->
<g id="edge8_Node000005_Node000009" class="edge">
<title>Node5&#45;&gt;Node9</title>
<g id="a_edge8_Node000005_Node000009"><a xlink:title=" ">
<path fill="none" stroke="#63b8ff" d="M1306.37,-54.84C1323.83,-46.54 1349.97,-34.11 1370.1,-24.54"/>
<polygon fill="#63b8ff" stroke="#63b8ff" points="1371.39,-27.81 1378.92,-20.35 1368.38,-21.49 1371.39,-27.81"/>
</a>
</g>
</g>
<!-- Node12&#45;&gt;Node6 -->
<g id="edge48_Node000012_Node000006" class="edge">
<title>Node12&#45;&gt;Node6</title>
<g id="a_edge48_Node000012_Node000006"><a xlink:title=" ">
<path fill="none" stroke="#63b8ff" d="M893.66,-255.02C1025.17,-247.5 1375.65,-225.83 1392.38,-207.5 1421.43,-175.65 1407.49,-150.87 1392.38,-110.5 1379.24,-75.42 1347.59,-44.55 1326.31,-26.73"/>
<polygon fill="#63b8ff" stroke="#63b8ff" points="1328.79,-24.23 1318.82,-20.66 1324.39,-29.67 1328.79,-24.23"/>
</a>
</g>
</g>
<!-- Node12&#45;&gt;Node9 -->
<g id="edge49_Node000012_Node000009" class="edge">
<title>Node12&#45;&gt;Node9</title>
<g id="a_edge49_Node000012_Node000009"><a xlink:title=" ">
<path fill="none" stroke="#63b8ff" d="M893.67,-255.2C1028.91,-247.97 1396.87,-226.62 1414.38,-207.5 1459.89,-157.8 1426.65,-68.33 1408.78,-29.48"/>
<polygon fill="#63b8ff" stroke="#63b8ff" points="1412.15,-28.42 1404.67,-20.91 1405.83,-31.44 1412.15,-28.42"/>
</a>
</g>
</g>
<!-- Node13 -->
<g id="Node000013" class="node">
<title>Node13</title>
<g id="a_Node000013"><a xlink:href="type_8hpp.xhtml" target="_top" xlink:title=" ">
<polygon fill="white" stroke="#666666" points="1303.88,-196.25 1176.88,-196.25 1176.88,-177 1303.88,-177 1303.88,-196.25"/>
<text text-anchor="middle" x="1240.38" y="-182.75" font-family="Helvetica,sans-Serif" font-size="10.00">fcarouge/internal/type.hpp</text>
</a>
</g>
</g>
<!-- Node12&#45;&gt;Node13 -->
<g id="edge15_Node000012_Node000013" class="edge">
<title>Node12&#45;&gt;Node13</title>
<g id="a_edge15_Node000012_Node000013"><a xlink:title=" ">
<path fill="none" stroke="#63b8ff" d="M893.55,-249.12C950.36,-239.14 1046.64,-222.2 1129.38,-207.5 1145.43,-204.65 1162.78,-201.55 1178.9,-198.66"/>
<polygon fill="#63b8ff" stroke="#63b8ff" points="1179.1,-202.18 1188.33,-196.97 1177.87,-195.29 1179.1,-202.18"/>
</a>
</g>
</g>
<!-- Node15 -->
<g id="Node000015" class="node">
<title>Node15</title>
<g id="a_Node000015"><a xlink:href="x__z__p__q__r_8hpp.xhtml" target="_top" xlink:title=" ">
<polygon fill="white" stroke="#666666" points="1006.12,-201.88 910.62,-201.88 910.62,-171.38 1006.12,-171.38 1006.12,-201.88"/>
<text text-anchor="start" x="918.62" y="-188.38" font-family="Helvetica,sans-Serif" font-size="10.00">fcarouge/internal/x</text>
<text text-anchor="middle" x="958.38" y="-177.12" font-family="Helvetica,sans-Serif" font-size="10.00">_z_p_q_r.hpp</text>
</a>
</g>
</g>
<!-- Node12&#45;&gt;Node15 -->
<g id="edge19_Node000012_Node000015" class="edge">
<title>Node12&#45;&gt;Node15</title>
<g id="a_edge19_Node000012_Node000015"><a xlink:title=" ">
<path fill="none" stroke="#63b8ff" d="M858.81,-248.87C875.34,-238.71 902.94,-221.72 924.9,-208.22"/>
<polygon fill="#63b8ff" stroke="#63b8ff" points="926.56,-211.31 933.24,-203.09 922.89,-205.34 926.56,-211.31"/>
</a>
</g>
</g>
<!-- Node16 -->
<g id="Node000016" class="node">
<title>Node16</title>
<g id="a_Node000016"><a xlink:href="x__z__p__q__r__h__f_8hpp.xhtml" target="_top" xlink:title=" ">
<polygon fill="white" stroke="#666666" points="1120.12,-201.88 1024.62,-201.88 1024.62,-171.38 1120.12,-171.38 1120.12,-201.88"/>
<text text-anchor="start" x="1032.62" y="-188.38" font-family="Helvetica,sans-Serif" font-size="10.00">fcarouge/internal/x</text>
<text text-anchor="middle" x="1072.38" y="-177.12" font-family="Helvetica,sans-Serif" font-size="10.00">_z_p_q_r_h_f.hpp</text>
</a>
</g>
</g>
<!-- Node12&#45;&gt;Node16 -->
<g id="edge21_Node000012_Node000016" class="edge">
<title>Node12&#45;&gt;Node16</title>
<g id="a_edge21_Node000012_Node000016"><a xlink:title=" ">
<path fill="none" stroke="#63b8ff" d="M876.99,-248.69C911.5,-238.97 967.5,-222.87 1015.38,-207.5 1016.97,-206.99 1018.58,-206.47 1020.21,-205.93"/>
<polygon fill="#63b8ff" stroke="#63b8ff" points="1021.24,-209.28 1029.61,-202.78 1019.02,-202.64 1021.24,-209.28"/>
</a>
</g>
</g>
<!-- Node17 -->
<g id="Node000017" class="node">
<title>Node17</title>
<g id="a_Node000017"><a xlink:href="x__z__p__q__r__hh__us__ps_8hpp.xhtml" target="_top" xlink:title=" ">
<polygon fill="white" stroke="#666666" points="308.5,-201.88 188.25,-201.88 188.25,-171.38 308.5,-171.38 308.5,-201.88"/>
<text text-anchor="start" x="196.25" y="-188.38" font-family="Helvetica,sans-Serif" font-size="10.00">fcarouge/internal/x</text>
<text text-anchor="middle" x="248.38" y="-177.12" font-family="Helvetica,sans-Serif" font-size="10.00">_z_p_q_r_hh_us_ps.hpp</text>
</a>
</g>
</g>
<!-- Node12&#45;&gt;Node17 -->
<g id="edge23_Node000012_Node000017" class="edge">
<title>Node12&#45;&gt;Node17</title>
<g id="a_edge23_Node000012_Node000017"><a xlink:title=" ">
<path fill="none" stroke="#63b8ff" d="M795.27,-256.1C701.59,-252.3 491.19,-240.52 317.38,-207.5 313.59,-206.78 309.71,-205.94 305.81,-205.03"/>
<polygon fill="#63b8ff" stroke="#63b8ff" points="306.88,-201.69 296.33,-202.65 305.17,-208.48 306.88,-201.69"/>
</a>
</g>
</g>
<!-- Node20 -->
<g id="Node000020" class="node">
<title>Node20</title>
<g id="a_Node000020"><a xlink:href="x__z__p__qq__rr__f_8hpp.xhtml" target="_top" xlink:title=" ">
<polygon fill="white" stroke="#666666" points="422.12,-201.88 326.62,-201.88 326.62,-171.38 422.12,-171.38 422.12,-201.88"/>
<text text-anchor="start" x="334.62" y="-188.38" font-family="Helvetica,sans-Serif" font-size="10.00">fcarouge/internal/x</text>
<text text-anchor="middle" x="374.38" y="-177.12" font-family="Helvetica,sans-Serif" font-size="10.00">_z_p_qq_rr_f.hpp</text>
</a>
</g>
</g>
<!-- Node12&#45;&gt;Node20 -->
<g id="edge28_Node000012_Node000020" class="edge">
<title>Node12&#45;&gt;Node20</title>
<g id="a_edge28_Node000012_Node000020"><a xlink:title=" ">
<path fill="none" stroke="#63b8ff" d="M795.15,-255.18C717.12,-250.34 560.65,-237.54 431.38,-207.5 428.93,-206.93 426.44,-206.3 423.94,-205.61"/>
<polygon fill="#63b8ff" stroke="#63b8ff" points="425.02,-202.28 414.44,-202.77 423.02,-208.99 425.02,-202.28"/>
</a>
</g>
</g>
<!-- Node21 -->
<g id="Node000021" class="node">
<title>Node21</title>
<g id="a_Node000021"><a xlink:href="x__z__p__r_8hpp.xhtml" target="_top" xlink:title=" ">
<polygon fill="white" stroke="#666666" points="778.12,-201.88 682.62,-201.88 682.62,-171.38 778.12,-171.38 778.12,-201.88"/>
<text text-anchor="start" x="690.62" y="-188.38" font-family="Helvetica,sans-Serif" font-size="10.00">fcarouge/internal/x</text>
<text text-anchor="middle" x="730.38" y="-177.12" font-family="Helvetica,sans-Serif" font-size="10.00">_z_p_r.hpp</text>
</a>
</g>
</g>
<!-- Node12&#45;&gt;Node21 -->
<g id="edge32_Node000012_Node000021" class="edge">
<title>Node12&#45;&gt;Node21</title>
<g id="a_edge32_Node000012_Node000021"><a xlink:title=" ">
<path fill="none" stroke="#63b8ff" d="M829.94,-248.87C813.41,-238.71 785.81,-221.72 763.85,-208.22"/>
<polygon fill="#63b8ff" stroke="#63b8ff" points="765.86,-205.34 755.51,-203.09 762.19,-211.31 765.86,-205.34"/>
</a>
</g>
</g>
<!-- Node22 -->
<g id="Node000022" class="node">
<title>Node22</title>
<g id="a_Node000022"><a xlink:href="x__z__p__r__f_8hpp.xhtml" target="_top" xlink:title=" ">
<polygon fill="white" stroke="#666666" points="892.12,-201.88 796.62,-201.88 796.62,-171.38 892.12,-171.38 892.12,-201.88"/>
<text text-anchor="start" x="804.62" y="-188.38" font-family="Helvetica,sans-Serif" font-size="10.00">fcarouge/internal/x</text>
<text text-anchor="middle" x="844.38" y="-177.12" font-family="Helvetica,sans-Serif" font-size="10.00">_z_p_r_f.hpp</text>
</a>
</g>
</g>
<!-- Node12&#45;&gt;Node22 -->
<g id="edge34_Node000012_Node000022" class="edge">
<title>Node12&#45;&gt;Node22</title>
<g id="a_edge34_Node000012_Node000022"><a xlink:title=" ">
<path fill="none" stroke="#63b8ff" d="M844.38,-248.87C844.38,-239.99 844.38,-225.9 844.38,-213.47"/>
<polygon fill="#63b8ff" stroke="#63b8ff" points="847.88,-213.81 844.38,-203.81 840.88,-213.81 847.88,-213.81"/>
</a>
</g>
</g>
<!-- Node23 -->
<g id="Node000023" class="node">
<title>Node23</title>
<g id="a_Node000023"><a xlink:href="x__z__u__p__q__r_8hpp.xhtml" target="_top" xlink:title=" ">
<polygon fill="white" stroke="#666666" points="664.12,-201.88 568.62,-201.88 568.62,-171.38 664.12,-171.38 664.12,-201.88"/>
<text text-anchor="start" x="576.62" y="-188.38" font-family="Helvetica,sans-Serif" font-size="10.00">fcarouge/internal/x</text>
<text text-anchor="middle" x="616.38" y="-177.12" font-family="Helvetica,sans-Serif" font-size="10.00">_z_u_p_q_r.hpp</text>
</a>
</g>
</g>
<!-- Node12&#45;&gt;Node23 -->
<g id="edge36_Node000012_Node000023" class="edge">
<title>Node12&#45;&gt;Node23</title>
<g id="a_edge36_Node000012_Node000023"><a xlink:title=" ">
<path fill="none" stroke="#63b8ff" d="M811.76,-248.69C777.25,-238.97 721.25,-222.87 673.38,-207.5 671.78,-206.99 670.17,-206.47 668.54,-205.93"/>
<polygon fill="#63b8ff" stroke="#63b8ff" points="669.73,-202.64 659.14,-202.78 667.51,-209.28 669.73,-202.64"/>
</a>
</g>
</g>
<!-- Node24 -->
<g id="Node000024" class="node">
<title>Node24</title>
<g id="a_Node000024"><a xlink:href="x__z__u__p__q__r__f__g__ps_8hpp.xhtml" target="_top" xlink:title=" ">
<polygon fill="white" stroke="#666666" points="170.38,-201.88 52.38,-201.88 52.38,-171.38 170.38,-171.38 170.38,-201.88"/>
<text text-anchor="start" x="60.38" y="-188.38" font-family="Helvetica,sans-Serif" font-size="10.00">fcarouge/internal/x</text>
<text text-anchor="middle" x="111.38" y="-177.12" font-family="Helvetica,sans-Serif" font-size="10.00">_z_u_p_q_r_f_g_ps.hpp</text>
</a>
</g>
</g>
<!-- Node12&#45;&gt;Node24 -->
<g id="edge40_Node000012_Node000024" class="edge">
<title>Node12&#45;&gt;Node24</title>
<g id="a_edge40_Node000012_Node000024"><a xlink:title=" ">
<path fill="none" stroke="#63b8ff" d="M795.12,-257.53C684.24,-256.28 406.91,-248.88 179.38,-207.5 175.57,-206.81 171.67,-205.99 167.76,-205.08"/>
<polygon fill="#63b8ff" stroke="#63b8ff" points="168.8,-201.73 158.25,-202.68 167.1,-208.52 168.8,-201.73"/>
</a>
</g>
</g>
<!-- Node25 -->
<g id="Node000025" class="node">
<title>Node25</title>
<g id="a_Node000025"><a xlink:href="x__z__u__p__q__r__h__f__g__us__ps_8hpp.xhtml" target="_top" xlink:title=" ">
<polygon fill="white" stroke="#666666" points="550.62,-207.5 440.12,-207.5 440.12,-165.75 550.62,-165.75 550.62,-207.5"/>
<text text-anchor="start" x="448.12" y="-194" font-family="Helvetica,sans-Serif" font-size="10.00">fcarouge/internal/x</text>
<text text-anchor="start" x="448.12" y="-182.75" font-family="Helvetica,sans-Serif" font-size="10.00">_z_u_p_q_r_h_f_g_us</text>
<text text-anchor="middle" x="495.38" y="-171.5" font-family="Helvetica,sans-Serif" font-size="10.00">_ps.hpp</text>
</a>
</g>
</g>
<!-- Node12&#45;&gt;Node25 -->
<g id="edge44_Node000012_Node000025" class="edge">
<title>Node12&#45;&gt;Node25</title>
<g id="a_edge44_Node000012_Node000025"><a xlink:title=" ">
<path fill="none" stroke="#63b8ff" d="M795.07,-250.99C740.28,-243.06 649.03,-228.58 562.22,-208.05"/>
<polygon fill="#63b8ff" stroke="#63b8ff" points="563.12,-204.67 552.58,-205.74 561.49,-211.48 563.12,-204.67"/>
</a>
</g>
</g>
<!-- Node13&#45;&gt;Node4 -->
<g id="edge16_Node000013_Node000004" class="edge">
<title>Node13&#45;&gt;Node4</title>
<g id="a_edge16_Node000013_Node000004"><a xlink:title=" ">
<path fill="none" stroke="#63b8ff" d="M1207.11,-176.52C1193.33,-172.92 1177.14,-168.89 1162.38,-165.75 1093.88,-151.19 1014.49,-138.16 961.42,-129.99"/>
<polygon fill="#63b8ff" stroke="#63b8ff" points="962.09,-126.55 951.68,-128.5 961.03,-133.47 962.09,-126.55"/>
</a>
</g>
</g>
<!-- Node13&#45;&gt;Node9 -->
<g id="edge18_Node000013_Node000009" class="edge">
<title>Node13&#45;&gt;Node9</title>
<g id="a_edge18_Node000013_Node000009"><a xlink:title=" ">
<path fill="none" stroke="#63b8ff" d="M1248.49,-176.7C1265.65,-157.83 1306.84,-112.51 1341.38,-74.5 1355.64,-58.8 1371.87,-40.92 1383.53,-28.08"/>
<polygon fill="#63b8ff" stroke="#63b8ff" points="1385.97,-30.6 1390.1,-20.84 1380.79,-25.9 1385.97,-30.6"/>
</a>
</g>
</g>
<!-- Node14 -->
<g id="Node000014" class="node">
<title>Node14</title>
<g id="a_Node000014"><a xlink:title=" ">
<polygon fill="#e0e0e0" stroke="#999999" points="1109.12,-129.75 1037.62,-129.75 1037.62,-110.5 1109.12,-110.5 1109.12,-129.75"/>
<text text-anchor="middle" x="1073.38" y="-116.25" font-family="Helvetica,sans-Serif" font-size="10.00">initializer_list</text>
</a>
</g>
</g>
<!-- Node13&#45;&gt;Node14 -->
<g id="edge17_Node000013_Node000014" class="edge">
<title>Node13&#45;&gt;Node14</title>
<g id="a_edge17_Node000013_Node000014"><a xlink:title=" ">
<path fill="none" stroke="#63b8ff" d="M1216.8,-176.52C1188.21,-165.48 1139.79,-146.78 1107.22,-134.2"/>
<polygon fill="#63b8ff" stroke="#63b8ff" points="1108.83,-131.07 1098.24,-130.73 1106.31,-137.6 1108.83,-131.07"/>
</a>
</g>
</g>
<!-- Node15&#45;&gt;Node4 -->
<g id="edge20_Node000015_Node000004" class="edge">
<title>Node15&#45;&gt;Node4</title>
<g id="a_edge20_Node000015_Node000004"><a xlink:title=" ">
<path fill="none" stroke="#63b8ff" d="M945.44,-170.99C936.89,-161.31 925.64,-148.59 916.65,-138.41"/>
<polygon fill="#63b8ff" stroke="#63b8ff" points="919.42,-136.26 910.17,-131.08 914.17,-140.89 919.42,-136.26"/>
</a>
</g>
</g>
<!-- Node16&#45;&gt;Node4 -->
<g id="edge22_Node000016_Node000004" class="edge">
<title>Node16&#45;&gt;Node4</title>
<g id="a_edge22_Node000016_Node000004"><a xlink:title=" ">
<path fill="none" stroke="#63b8ff" d="M1033.57,-170.99C1004.17,-159.9 964.14,-144.8 935.85,-134.13"/>
<polygon fill="#63b8ff" stroke="#63b8ff" points="937.27,-130.92 926.68,-130.67 934.8,-137.47 937.27,-130.92"/>
</a>
</g>
</g>
<!-- Node17&#45;&gt;Node4 -->
<g id="edge24_Node000017_Node000004" class="edge">
<title>Node17&#45;&gt;Node4</title>
<g id="a_edge24_Node000017_Node000004"><a xlink:title=" ">
<path fill="none" stroke="#63b8ff" d="M294.46,-170.95C302.06,-168.93 309.89,-167.1 317.38,-165.75 506.43,-131.67 734.49,-123.59 841.03,-121.69"/>
<polygon fill="#63b8ff" stroke="#63b8ff" points="841.04,-125.19 850.98,-121.53 840.93,-118.19 841.04,-125.19"/>
</a>
</g>
</g>
<!-- Node17&#45;&gt;Node8 -->
<g id="edge27_Node000017_Node000008" class="edge">
<title>Node17&#45;&gt;Node8</title>
<g id="a_edge27_Node000017_Node000008"><a xlink:title=" ">
<path fill="none" stroke="#63b8ff" d="M260.29,-171.24C282.64,-145.06 333.36,-89.2 386.38,-55.25 411.96,-38.86 444.55,-26.63 467.79,-19.16"/>
<polygon fill="#63b8ff" stroke="#63b8ff" points="468.72,-22.53 477.24,-16.23 466.65,-15.85 468.72,-22.53"/>
</a>
</g>
</g>
<!-- Node18 -->
<g id="Node000018" class="node">
<title>Node18</title>
<g id="a_Node000018"><a xlink:href="function_8hpp.xhtml" target="_top" xlink:title=" ">
<polygon fill="white" stroke="#666666" points="469.62,-129.75 401.12,-129.75 401.12,-110.5 469.62,-110.5 469.62,-129.75"/>
<text text-anchor="middle" x="435.38" y="-116.25" font-family="Helvetica,sans-Serif" font-size="10.00">function.hpp</text>
</a>
</g>
</g>
<!-- Node17&#45;&gt;Node18 -->
<g id="edge25_Node000017_Node000018" class="edge">
<title>Node17&#45;&gt;Node18</title>
<g id="a_edge25_Node000017_Node000018"><a xlink:title=" ">
<path fill="none" stroke="#63b8ff" d="M290.81,-170.99C323.15,-159.83 367.25,-144.62 398.21,-133.94"/>
<polygon fill="#63b8ff" stroke="#63b8ff" points="399.24,-137.29 407.55,-130.72 396.96,-130.67 399.24,-137.29"/>
</a>
</g>
</g>
<!-- Node19 -->
<g id="Node000019" class="node">
<title>Node19</title>
<g id="a_Node000019"><a xlink:title=" ">
<polygon fill="#e0e0e0" stroke="#999999" points="460.62,-74.5 410.12,-74.5 410.12,-55.25 460.62,-55.25 460.62,-74.5"/>
<text text-anchor="middle" x="435.38" y="-61" font-family="Helvetica,sans-Serif" font-size="10.00">memory</text>
</a>
</g>
</g>
<!-- Node18&#45;&gt;Node19 -->
<g id="edge26_Node000018_Node000019" class="edge">
<title>Node18&#45;&gt;Node19</title>
<g id="a_edge26_Node000018_Node000019"><a xlink:title=" ">
<path fill="none" stroke="#63b8ff" d="M435.38,-110.33C435.38,-103.82 435.38,-94.67 435.38,-86.37"/>
<polygon fill="#63b8ff" stroke="#63b8ff" points="438.88,-86.37 435.38,-76.37 431.88,-86.37 438.88,-86.37"/>
</a>
</g>
</g>
<!-- Node20&#45;&gt;Node4 -->
<g id="edge29_Node000020_Node000004" class="edge">
<title>Node20&#45;&gt;Node4</title>
<g id="a_edge29_Node000020_Node000004"><a xlink:title=" ">
<path fill="none" stroke="#63b8ff" d="M412.34,-170.97C418.62,-168.96 425.13,-167.11 431.38,-165.75 576.17,-134.12 750.91,-124.91 841.05,-122.23"/>
<polygon fill="#63b8ff" stroke="#63b8ff" points="840.99,-125.73 850.89,-121.95 840.8,-118.73 840.99,-125.73"/>
</a>
</g>
</g>
<!-- Node20&#45;&gt;Node8 -->
<g id="edge31_Node000020_Node000008" class="edge">
<title>Node20&#45;&gt;Node8</title>
<g id="a_edge31_Node000020_Node000008"><a xlink:title=" ">
<path fill="none" stroke="#63b8ff" d="M373.4,-170.96C372.44,-144.82 374.1,-89.68 401.38,-55.25 417.82,-34.49 446.17,-22.96 467.81,-16.85"/>
<polygon fill="#63b8ff" stroke="#63b8ff" points="468.43,-20.3 477.25,-14.43 466.7,-13.52 468.43,-20.3"/>
</a>
</g>
</g>
<!-- Node20&#45;&gt;Node18 -->
<g id="edge30_Node000020_Node000018" class="edge">
<title>Node20&#45;&gt;Node18</title>
<g id="a_edge30_Node000020_Node000018"><a xlink:title=" ">
<path fill="none" stroke="#63b8ff" d="M388.22,-170.99C397.46,-161.21 409.65,-148.33 419.32,-138.1"/>
<polygon fill="#63b8ff" stroke="#63b8ff" points="421.66,-140.72 425.99,-131.05 416.58,-135.91 421.66,-140.72"/>
</a>
</g>
</g>
<!-- Node21&#45;&gt;Node4 -->
<g id="edge33_Node000021_Node000004" class="edge">
<title>Node21&#45;&gt;Node4</title>
<g id="a_edge33_Node000021_Node000004"><a xlink:title=" ">
<path fill="none" stroke="#63b8ff" d="M769.18,-170.99C798.58,-159.9 838.61,-144.8 866.9,-134.13"/>
<polygon fill="#63b8ff" stroke="#63b8ff" points="867.95,-137.47 876.07,-130.67 865.48,-130.92 867.95,-137.47"/>
</a>
</g>
</g>
<!-- Node22&#45;&gt;Node4 -->
<g id="edge35_Node000022_Node000004" class="edge">
<title>Node22&#45;&gt;Node4</title>
<g id="a_edge35_Node000022_Node000004"><a xlink:title=" ">
<path fill="none" stroke="#63b8ff" d="M857.31,-170.99C865.86,-161.31 877.11,-148.59 886.1,-138.41"/>
<polygon fill="#63b8ff" stroke="#63b8ff" points="888.58,-140.89 892.58,-131.08 883.33,-136.26 888.58,-140.89"/>
</a>
</g>
</g>
<!-- Node23&#45;&gt;Node4 -->
<g id="edge37_Node000023_Node000004" class="edge">
<title>Node23&#45;&gt;Node4</title>
<g id="a_edge37_Node000023_Node000004"><a xlink:title=" ">
<path fill="none" stroke="#63b8ff" d="M656.32,-170.89C662.01,-169.03 667.81,-167.26 673.38,-165.75 729.54,-150.54 794.82,-138.3 841.09,-130.52"/>
<polygon fill="#63b8ff" stroke="#63b8ff" points="841.65,-133.97 850.94,-128.88 840.5,-127.07 841.65,-133.97"/>
</a>
</g>
</g>
<!-- Node23&#45;&gt;Node8 -->
<g id="edge39_Node000023_Node000008" class="edge">
<title>Node23&#45;&gt;Node8</title>
<g id="a_edge39_Node000023_Node000008"><a xlink:title=" ">
<path fill="none" stroke="#63b8ff" d="M606.43,-171.01C584.87,-139.29 533.82,-64.22 510.01,-29.21"/>
<polygon fill="#63b8ff" stroke="#63b8ff" points="512.93,-27.27 504.41,-20.97 507.14,-31.21 512.93,-27.27"/>
</a>
</g>
</g>
<!-- Node23&#45;&gt;Node18 -->
<g id="edge38_Node000023_Node000018" class="edge">
<title>Node23&#45;&gt;Node18</title>
<g id="a_edge38_Node000023_Node000018"><a xlink:title=" ">
<path fill="none" stroke="#63b8ff" d="M575.3,-170.99C544.14,-159.88 501.68,-144.75 471.74,-134.08"/>
<polygon fill="#63b8ff" stroke="#63b8ff" points="472.94,-130.8 462.35,-130.74 470.59,-137.39 472.94,-130.8"/>
</a>
</g>
</g>
<!-- Node24&#45;&gt;Node4 -->
<g id="edge41_Node000024_Node000004" class="edge">
<title>Node24&#45;&gt;Node4</title>
<g id="a_edge41_Node000024_Node000004"><a xlink:title=" ">
<path fill="none" stroke="#63b8ff" d="M156.4,-170.94C164,-168.91 171.86,-167.06 179.38,-165.75 422.06,-123.33 716.77,-119.72 841.27,-120.35"/>
<polygon fill="#63b8ff" stroke="#63b8ff" points="841.24,-123.85 851.27,-120.41 841.29,-116.85 841.24,-123.85"/>
</a>
</g>
</g>
<!-- Node24&#45;&gt;Node8 -->
<g id="edge43_Node000024_Node000008" class="edge">
<title>Node24&#45;&gt;Node8</title>
<g id="a_edge43_Node000024_Node000008"><a xlink:title=" ">
<path fill="none" stroke="#63b8ff" d="M135.23,-170.94C178.08,-145 271.46,-90.49 355.38,-55.25 393.07,-39.42 438.4,-26.11 467.54,-18.26"/>
<polygon fill="#63b8ff" stroke="#63b8ff" points="468.37,-21.66 477.14,-15.71 466.57,-14.89 468.37,-21.66"/>
</a>
</g>
</g>
<!-- Node24&#45;&gt;Node18 -->
<g id="edge42_Node000024_Node000018" class="edge">
<title>Node24&#45;&gt;Node18</title>
<g id="a_edge42_Node000024_Node000018"><a xlink:title=" ">
<path fill="none" stroke="#63b8ff" d="M159.12,-170.94C165.89,-169.07 172.79,-167.28 179.38,-165.75 252.14,-148.83 337.89,-135.13 389.38,-127.56"/>
<polygon fill="#63b8ff" stroke="#63b8ff" points="389.87,-131.02 399.26,-126.12 388.86,-124.1 389.87,-131.02"/>
</a>
</g>
</g>
<!-- Node25&#45;&gt;Node4 -->
<g id="edge45_Node000025_Node000004" class="edge">
<title>Node25&#45;&gt;Node4</title>
<g id="a_edge45_Node000025_Node000004"><a xlink:title=" ">
<path fill="none" stroke="#63b8ff" d="M551.07,-167.71C553.87,-167.01 556.65,-166.35 559.38,-165.75 656.83,-144.42 772.3,-131.96 841.05,-125.85"/>
<polygon fill="#63b8ff" stroke="#63b8ff" points="841.33,-129.34 850.99,-124.98 840.73,-122.36 841.33,-129.34"/>
</a>
</g>
</g>
<!-- Node25&#45;&gt;Node8 -->
<g id="edge47_Node000025_Node000008" class="edge">
<title>Node25&#45;&gt;Node8</title>
<g id="a_edge47_Node000025_Node000008"><a xlink:title=" ">
<path fill="none" stroke="#63b8ff" d="M495.6,-165.55C495.99,-131.94 496.76,-64.67 497.14,-30.92"/>
<polygon fill="#63b8ff" stroke="#63b8ff" points="500.64,-30.96 497.26,-20.92 493.64,-30.88 500.64,-30.96"/>
</a>
</g>
</g>
<!-- Node25&#45;&gt;Node18 -->
<g id="edge46_Node000025_Node000018" class="edge">
<title>Node25&#45;&gt;Node18</title>
<g id="a_edge46_Node000025_Node000018"><a xlink:title=" ">
<path fill="none" stroke="#63b8ff" d="M476.72,-165.57C468.64,-156.88 459.26,-146.8 451.49,-138.44"/>
<polygon fill="#63b8ff" stroke="#63b8ff" points="454.22,-136.24 444.84,-131.3 449.09,-141.01 454.22,-136.24"/>
</a>
</g>
</g>
<!-- Node27 -->
<g id="Node000027" class="node">
<title>Node27</title>
<g id="a_Node000027"><a xlink:title=" ">
<polygon fill="#e0e0e0" stroke="#999999" points="34.75,-196.25 0,-196.25 0,-177 34.75,-177 34.75,-196.25"/>
<text text-anchor="middle" x="17.38" y="-182.75" font-family="Helvetica,sans-Serif" font-size="10.00">print</text>
</a>
</g>
</g>
<!-- Node26&#45;&gt;Node27 -->
<g id="edge51_Node000026_Node000027" class="edge">
<title>Node26&#45;&gt;Node27</title>
<g id="a_edge51_Node000026_Node000027"><a xlink:title=" ">
<path fill="none" stroke="#63b8ff" d="M351.54,-258.24C290.27,-258.15 149.97,-252.56 43.38,-207.5 40.81,-206.42 38.28,-205.02 35.86,-203.47"/>
<polygon fill="#63b8ff" stroke="#63b8ff" points="38.07,-200.75 27.96,-197.56 33.87,-206.36 38.07,-200.75"/>
</a>
</g>
</g>
<!-- Node30 -->
<g id="Node000030" class="node">
<title>Node30</title>
<g id="a_Node000030"><a xlink:title=" ">
<polygon fill="#e0e0e0" stroke="#999999" points="1422.25,-268.38 1330.5,-268.38 1330.5,-249.12 1422.25,-249.12 1422.25,-268.38"/>
<text text-anchor="middle" x="1376.38" y="-254.88" font-family="Helvetica,sans-Serif" font-size="10.00">mp&#45;units/format.h</text>
</a>
</g>
</g>
<!-- Node29&#45;&gt;Node30 -->
<g id="edge55_Node000029_Node000030" class="edge">
<title>Node29&#45;&gt;Node30</title>
<g id="a_edge55_Node000029_Node000030"><a xlink:title=" ">
<path fill="none" stroke="#63b8ff" d="M1473.91,-309.68C1455.33,-300.17 1425.69,-285 1403.96,-273.87"/>
<polygon fill="#63b8ff" stroke="#63b8ff" points="1405.85,-270.91 1395.35,-269.47 1402.66,-277.14 1405.85,-270.91"/>
</a>
</g>
</g>
<!-- Node31 -->
<g id="Node000031" class="node">
<title>Node31</title>
<g id="a_Node000031"><a xlink:title=" ">
<polygon fill="#e0e0e0" stroke="#999999" points="1542.5,-274 1440.25,-274 1440.25,-243.5 1542.5,-243.5 1542.5,-274"/>
<text text-anchor="start" x="1448.25" y="-260.5" font-family="Helvetica,sans-Serif" font-size="10.00">mp&#45;units/framework</text>
<text text-anchor="middle" x="1491.38" y="-249.25" font-family="Helvetica,sans-Serif" font-size="10.00">/quantity.h</text>
</a>
</g>
</g>
<!-- Node29&#45;&gt;Node31 -->
<g id="edge56_Node000029_Node000031" class="edge">
<title>Node29&#45;&gt;Node31</title>
<g id="a_edge56_Node000029_Node000031"><a xlink:title=" ">
<path fill="none" stroke="#63b8ff" d="M1491.38,-309.68C1491.38,-303.23 1491.38,-294.16 1491.38,-285.51"/>
<polygon fill="#63b8ff" stroke="#63b8ff" points="1494.88,-285.8 1491.38,-275.8 1487.88,-285.8 1494.88,-285.8"/>
</a>
</g>
</g>
<!-- Node32 -->
<g id="Node000032" class="node">
<title>Node32</title>
<g id="a_Node000032"><a xlink:title=" ">
<polygon fill="#e0e0e0" stroke="#999999" points="1646.25,-268.38 1560.5,-268.38 1560.5,-249.12 1646.25,-249.12 1646.25,-268.38"/>
<text text-anchor="middle" x="1603.38" y="-254.88" font-family="Helvetica,sans-Serif" font-size="10.00">mp&#45;units/math.h</text>
</a>
</g>
</g>
<!-- Node29&#45;&gt;Node32 -->
<g id="edge57_Node000029_Node000032" class="edge">
<title>Node29&#45;&gt;Node32</title>
<g id="a_edge57_Node000029_Node000032"><a xlink:title=" ">
<path fill="none" stroke="#63b8ff" d="M1508.39,-309.68C1526.39,-300.22 1555.08,-285.14 1576.22,-274.02"/>
<polygon fill="#63b8ff" stroke="#63b8ff" points="1577.64,-277.23 1584.86,-269.48 1574.38,-271.04 1577.64,-277.23"/>
</a>
</g>
</g>
<!-- Node33 -->
<g id="Node000033" class="node">
<title>Node33</title>
<g id="a_Node000033"><a xlink:title=" ">
<polygon fill="#e0e0e0" stroke="#999999" points="1776,-268.38 1664.75,-268.38 1664.75,-249.12 1776,-249.12 1776,-268.38"/>
<text text-anchor="middle" x="1720.38" y="-254.88" font-family="Helvetica,sans-Serif" font-size="10.00">mp&#45;units/systems/si.h</text>
</a>
</g>
</g>
<!-- Node29&#45;&gt;Node33 -->
<g id="edge58_Node000029_Node000033" class="edge">
<title>Node29&#45;&gt;Node33</title>
<g id="a_edge58_Node000029_Node000033"><a xlink:title=" ">
<path fill="none" stroke="#63b8ff" d="M1526.65,-309.55C1566.24,-299.38 1630.61,-282.83 1674.18,-271.63"/>
<polygon fill="#63b8ff" stroke="#63b8ff" points="1674.78,-275.09 1683.59,-269.21 1673.03,-268.31 1674.78,-275.09"/>
</a>
</g>
</g>
</g>
</svg>
