<?xml version="1.0" encoding="UTF-8" standalone="no"?>
<!DOCTYPE svg PUBLIC "-//W3C//DTD SVG 1.1//EN"
 "http://www.w3.org/Graphics/SVG/1.1/DTD/svg11.dtd">
<!-- Generated by graphviz version 7.0.5 (20221223.1930)
 -->
<!-- Title: /github/workspace/linalg/lazy/fcarouge/linalg.hpp Pages: 1 -->
<svg width="566pt" height="203pt"
 viewBox="0.00 0.00 566.42 203.00" xmlns="http://www.w3.org/2000/svg" xmlns:xlink="http://www.w3.org/1999/xlink">
<g id="graph0" class="graph" transform="scale(1 1) rotate(0) translate(4 199)">
<title>/github/workspace/linalg/lazy/fcarouge/linalg.hpp</title>
<!-- Node1 -->
<g id="node1" class="node">
<title>Node1</title>
<g id="a_node1"><a xlink:title="Linear algebra coroutine&#45;based lazy implementation.">
<polygon fill="#999999" stroke="#666666" points="328.92,-195 206.92,-195 206.92,-165 328.92,-165 328.92,-195"/>
<text text-anchor="start" x="214.92" y="-183" font-family="Helvetica,sans-Serif" font-size="10.00">/github/workspace/linalg</text>
<text text-anchor="middle" x="267.92" y="-172" font-family="Helvetica,sans-Serif" font-size="10.00">/lazy/fcarouge/linalg.hpp</text>
</a>
</g>
</g>
<!-- Node2 -->
<g id="node2" class="node">
<title>Node2</title>
<g id="a_node2"><a xlink:href="utility_8hpp.xhtml" target="_top" xlink:title="The collection of utilities supporting the library.">
<polygon fill="white" stroke="#666666" points="118.92,-129 20.92,-129 20.92,-110 118.92,-110 118.92,-129"/>
<text text-anchor="middle" x="69.92" y="-117" font-family="Helvetica,sans-Serif" font-size="10.00">fcarouge/utility.hpp</text>
</a>
</g>
</g>
<!-- Node1&#45;&gt;Node2 -->
<g id="edge1" class="edge">
<title>Node1&#45;&gt;Node2</title>
<path fill="none" stroke="#63b8ff" d="M218.97,-164.54C185.83,-154.75 142.52,-141.95 111.13,-132.68"/>
<polygon fill="#63b8ff" stroke="#63b8ff" points="112.18,-129.34 101.6,-129.86 110.2,-136.05 112.18,-129.34"/>
</g>
<!-- Node4 -->
<g id="node4" class="node">
<title>Node4</title>
<g id="a_node4"><a xlink:title=" ">
<polygon fill="#e0e0e0" stroke="#999999" points="58.92,-19 2.92,-19 2.92,0 58.92,0 58.92,-19"/>
<text text-anchor="middle" x="30.92" y="-7" font-family="Helvetica,sans-Serif" font-size="10.00">concepts</text>
</a>
</g>
</g>
<!-- Node1&#45;&gt;Node4 -->
<g id="edge7" class="edge">
<title>Node1&#45;&gt;Node4</title>
<path fill="none" stroke="#63b8ff" d="M206.54,-175.75C138.79,-170.72 36.1,-158.36 11.92,-129 -11.51,-100.56 6.5,-54.87 19.87,-29.33"/>
<polygon fill="#63b8ff" stroke="#63b8ff" points="22.83,-31.2 24.62,-20.76 16.71,-27.81 22.83,-31.2"/>
</g>
<!-- Node5 -->
<g id="node5" class="node">
<title>Node5</title>
<g id="a_node5"><a xlink:title=" ">
<polygon fill="#e0e0e0" stroke="#999999" points="138.92,-19 76.92,-19 76.92,0 138.92,0 138.92,-19"/>
<text text-anchor="middle" x="107.92" y="-7" font-family="Helvetica,sans-Serif" font-size="10.00">type_traits</text>
</a>
</g>
</g>
<!-- Node1&#45;&gt;Node5 -->
<g id="edge11" class="edge">
<title>Node1&#45;&gt;Node5</title>
<path fill="none" stroke="#63b8ff" d="M223.25,-164.59C203.77,-156.56 181.81,-144.9 165.92,-129 151.05,-114.12 127.65,-59.58 115.63,-29.96"/>
<polygon fill="#63b8ff" stroke="#63b8ff" points="118.89,-28.69 111.92,-20.71 112.39,-31.29 118.89,-28.69"/>
</g>
<!-- Node6 -->
<g id="node6" class="node">
<title>Node6</title>
<g id="a_node6"><a xlink:title=" ">
<polygon fill="#e0e0e0" stroke="#999999" points="230.92,-129 174.92,-129 174.92,-110 230.92,-110 230.92,-129"/>
<text text-anchor="middle" x="202.92" y="-117" font-family="Helvetica,sans-Serif" font-size="10.00">algorithm</text>
</a>
</g>
</g>
<!-- Node1&#45;&gt;Node6 -->
<g id="edge5" class="edge">
<title>Node1&#45;&gt;Node6</title>
<path fill="none" stroke="#63b8ff" d="M251.85,-164.54C242.5,-156.13 230.7,-145.51 221.03,-136.8"/>
<polygon fill="#63b8ff" stroke="#63b8ff" points="223.46,-134.28 213.68,-130.19 218.77,-139.48 223.46,-134.28"/>
</g>
<!-- Node7 -->
<g id="node7" class="node">
<title>Node7</title>
<g id="a_node7"><a xlink:title=" ">
<polygon fill="#e0e0e0" stroke="#999999" points="286.92,-129 248.92,-129 248.92,-110 286.92,-110 286.92,-129"/>
<text text-anchor="middle" x="267.92" y="-117" font-family="Helvetica,sans-Serif" font-size="10.00">array</text>
</a>
</g>
</g>
<!-- Node1&#45;&gt;Node7 -->
<g id="edge6" class="edge">
<title>Node1&#45;&gt;Node7</title>
<path fill="none" stroke="#63b8ff" d="M267.92,-164.54C267.92,-157.34 267.92,-148.53 267.92,-140.68"/>
<polygon fill="#63b8ff" stroke="#63b8ff" points="271.42,-140.69 267.92,-130.69 264.42,-140.69 271.42,-140.69"/>
</g>
<!-- Node8 -->
<g id="node8" class="node">
<title>Node8</title>
<g id="a_node8"><a xlink:title=" ">
<polygon fill="#e0e0e0" stroke="#999999" points="360.92,-129 304.92,-129 304.92,-110 360.92,-110 360.92,-129"/>
<text text-anchor="middle" x="332.92" y="-117" font-family="Helvetica,sans-Serif" font-size="10.00">coroutine</text>
</a>
</g>
</g>
<!-- Node1&#45;&gt;Node8 -->
<g id="edge8" class="edge">
<title>Node1&#45;&gt;Node8</title>
<path fill="none" stroke="#63b8ff" d="M283.98,-164.54C293.33,-156.13 305.13,-145.51 314.81,-136.8"/>
<polygon fill="#63b8ff" stroke="#63b8ff" points="317.06,-139.48 322.15,-130.19 312.38,-134.28 317.06,-139.48"/>
</g>
<!-- Node9 -->
<g id="node9" class="node">
<title>Node9</title>
<g id="a_node9"><a xlink:title=" ">
<polygon fill="#e0e0e0" stroke="#999999" points="436.42,-129 379.42,-129 379.42,-110 436.42,-110 436.42,-129"/>
<text text-anchor="middle" x="407.92" y="-117" font-family="Helvetica,sans-Serif" font-size="10.00">generator</text>
</a>
</g>
</g>
<!-- Node1&#45;&gt;Node9 -->
<g id="edge9" class="edge">
<title>Node1&#45;&gt;Node9</title>
<path fill="none" stroke="#63b8ff" d="M302.52,-164.54C325.11,-155.1 354.36,-142.88 376.31,-133.71"/>
<polygon fill="#63b8ff" stroke="#63b8ff" points="377.47,-137.01 385.35,-129.93 374.77,-130.56 377.47,-137.01"/>
</g>
<!-- Node10 -->
<g id="node10" class="node">
<title>Node10</title>
<g id="a_node10"><a xlink:title=" ">
<polygon fill="#e0e0e0" stroke="#999999" points="500.92,-129 454.92,-129 454.92,-110 500.92,-110 500.92,-129"/>
<text text-anchor="middle" x="477.92" y="-117" font-family="Helvetica,sans-Serif" font-size="10.00">ranges</text>
</a>
</g>
</g>
<!-- Node1&#45;&gt;Node10 -->
<g id="edge10" class="edge">
<title>Node1&#45;&gt;Node10</title>
<path fill="none" stroke="#63b8ff" d="M319.83,-164.54C358.4,-153.79 409.94,-139.44 443.52,-130.08"/>
<polygon fill="#63b8ff" stroke="#63b8ff" points="444.45,-133.46 453.14,-127.4 442.57,-126.71 444.45,-133.46"/>
</g>
<!-- Node11 -->
<g id="node11" class="node">
<title>Node11</title>
<g id="a_node11"><a xlink:title=" ">
<polygon fill="#e0e0e0" stroke="#999999" points="558.42,-129 519.42,-129 519.42,-110 558.42,-110 558.42,-129"/>
<text text-anchor="middle" x="538.92" y="-117" font-family="Helvetica,sans-Serif" font-size="10.00">utility</text>
</a>
</g>
</g>
<!-- Node1&#45;&gt;Node11 -->
<g id="edge12" class="edge">
<title>Node1&#45;&gt;Node11</title>
<path fill="none" stroke="#63b8ff" d="M329.4,-167.73C375.91,-158.88 441.57,-145.69 507.92,-129.33"/>
<polygon fill="#63b8ff" stroke="#63b8ff" points="508.68,-132.75 517.54,-126.93 506.99,-125.95 508.68,-132.75"/>
</g>
<!-- Node3 -->
<g id="node3" class="node">
<title>Node3</title>
<g id="a_node3"><a xlink:href="internal_2utility_8hpp.xhtml" target="_top" xlink:title=" ">
<polygon fill="white" stroke="#666666" points="115.92,-74 23.92,-74 23.92,-55 115.92,-55 115.92,-74"/>
<text text-anchor="middle" x="69.92" y="-62" font-family="Helvetica,sans-Serif" font-size="10.00">internal/utility.hpp</text>
</a>
</g>
</g>
<!-- Node2&#45;&gt;Node3 -->
<g id="edge2" class="edge">
<title>Node2&#45;&gt;Node3</title>
<path fill="none" stroke="#63b8ff" d="M69.92,-109.75C69.92,-103.27 69.92,-94.16 69.92,-85.9"/>
<polygon fill="#63b8ff" stroke="#63b8ff" points="73.42,-85.96 69.92,-75.96 66.42,-85.96 73.42,-85.96"/>
</g>
<!-- Node3&#45;&gt;Node4 -->
<g id="edge3" class="edge">
<title>Node3&#45;&gt;Node4</title>
<path fill="none" stroke="#63b8ff" d="M63.48,-54.75C58.26,-47.66 50.73,-37.42 44.23,-28.59"/>
<polygon fill="#63b8ff" stroke="#63b8ff" points="47.14,-26.64 38.39,-20.66 41.5,-30.79 47.14,-26.64"/>
</g>
<!-- Node3&#45;&gt;Node5 -->
<g id="edge4" class="edge">
<title>Node3&#45;&gt;Node5</title>
<path fill="none" stroke="#63b8ff" d="M76.19,-54.75C81.28,-47.66 88.61,-37.42 94.95,-28.59"/>
<polygon fill="#63b8ff" stroke="#63b8ff" points="97.64,-30.84 100.62,-20.67 91.95,-26.76 97.64,-30.84"/>
</g>
</g>
</svg>
