<?xml version="1.0" encoding="UTF-8" standalone="no"?>
<!DOCTYPE svg PUBLIC "-//W3C//DTD SVG 1.1//EN"
 "http://www.w3.org/Graphics/SVG/1.1/DTD/svg11.dtd">
<!-- Generated by graphviz version 3.0.0 (20221109.1736)
 -->
<!-- Title: /github/workspace/linalg/eigen/fcarouge/linalg.hpp Pages: 1 -->
<!--zoomable 117 -->
<svg id="main" version="1.1" xmlns="http://www.w3.org/2000/svg" xmlns:xlink="http://www.w3.org/1999/xlink" xml:space="preserve" onload="init(evt)">
<style type="text/css"><![CDATA[
.edge:hover path { stroke: red; }
.edge:hover polygon { stroke: red; fill: red; }
]]></style>
<script type="text/javascript"><![CDATA[
var edges = document.getElementsByTagName('g');
if (edges && edges.length) {
  for (var i=0;i<edges.length;i++) {
    if (edges[i].id.substr(0,4)=='edge') {
      edges[i].setAttribute('class','edge');
    }
  }
}
]]></script>
        <defs>
                <circle id="rim" cx="0" cy="0" r="7"/>
                <circle id="rim2" cx="0" cy="0" r="3.5"/>
                <g id="zoomPlus">
                        <use xlink:href="#rim" fill="#404040">
                                <set attributeName="fill" to="#808080" begin="zoomplus.mouseover" end="zoomplus.mouseout"/>
                        </use>
                        <path d="M-4,0h8M0,-4v8" fill="none" stroke="white" stroke-width="1.5" pointer-events="none"/>
                </g>
                <g id="zoomMin">
                        <use xlink:href="#rim" fill="#404040">
                                <set attributeName="fill" to="#808080" begin="zoomminus.mouseover" end="zoomminus.mouseout"/>
                        </use>
                        <path d="M-4,0h8" fill="none" stroke="white" stroke-width="1.5" pointer-events="none"/>
                </g>
                <g id="dirArrow">
                        <path fill="none" stroke="white" stroke-width="1.5" d="M0,-3.0v7 M-2.5,-0.5L0,-3.0L2.5,-0.5"/>
                </g>
               <g id="resetDef">
                       <use xlink:href="#rim2" fill="#404040">
                               <set attributeName="fill" to="#808080" begin="reset.mouseover" end="reset.mouseout"/>
                       </use>
               </g>
        </defs>

<script type="text/javascript">
var viewWidth = 4788;
var viewHeight = 117;
var sectionId = 'dynsection-1';
</script>
<script xlink:href="svgpan.js"/>
<svg id="graph" class="graph">
<g id="viewport">
<title>/github/workspace/linalg/eigen/fcarouge/linalg.hpp</title>
<polygon fill="white" stroke="transparent" points="-4,4 -4,-113 4783.5,-113 4783.5,4 -4,4"/>
<!-- Node1 -->
<g id="node1" class="node">
<title>Node1</title>
<g id="a_node1"><a xlink:title="Linear algebra facade for Eigen3 third party implementation.">
<polygon fill="#bfbfbf" stroke="black" points="2439,-78.5 2439,-108.5 2566,-108.5 2566,-78.5 2439,-78.5"/>
<text text-anchor="start" x="2447" y="-96.5" font-family="Helvetica,sans-Serif" font-size="10.00">/github/workspace/linalg</text>
<text text-anchor="middle" x="2502.5" y="-85.5" font-family="Helvetica,sans-Serif" font-size="10.00">/eigen/fcarouge/linalg.hpp</text>
</a>
</g>
</g>
<!-- Node2 -->
<g id="node2" class="node">
<title>Node2</title>
<g id="a_node2"><a xlink:href="predict__linalg__x1x_8cpp.xhtml" target="_top" xlink:title=" ">
<polygon fill="white" stroke="black" points="0,-6 0,-36 147,-36 147,-6 0,-6"/>
<text text-anchor="start" x="8" y="-24" font-family="Helvetica,sans-Serif" font-size="10.00">/github/workspace/benchmark</text>
<text text-anchor="middle" x="73.5" y="-13" font-family="Helvetica,sans-Serif" font-size="10.00">/predict_linalg_x1x.cpp</text>
</a>
</g>
</g>
<!-- Node1&#45;&gt;Node2 -->
<g id="edge1" class="edge">
<title>Node1&#45;&gt;Node2</title>
<path fill="none" stroke="midnightblue" d="M2428.71,-91.87C2055.55,-88.55 385.01,-72.09 155.5,-42 145.04,-40.63 133.98,-38.45 123.48,-36.02"/>
<polygon fill="midnightblue" stroke="midnightblue" points="2428.82,-95.37 2438.85,-91.96 2428.88,-88.37 2428.82,-95.37"/>
</g>
<!-- Node3 -->
<g id="node3" class="node">
<title>Node3</title>
<g id="a_node3"><a xlink:href="update__linalg__xx0_8cpp.xhtml" target="_top" xlink:title=" ">
<polygon fill="white" stroke="black" points="165,-6 165,-36 312,-36 312,-6 165,-6"/>
<text text-anchor="start" x="173" y="-24" font-family="Helvetica,sans-Serif" font-size="10.00">/github/workspace/benchmark</text>
<text text-anchor="middle" x="238.5" y="-13" font-family="Helvetica,sans-Serif" font-size="10.00">/update_linalg_xx0.cpp</text>
</a>
</g>
</g>
<!-- Node1&#45;&gt;Node3 -->
<g id="edge2" class="edge">
<title>Node1&#45;&gt;Node3</title>
<path fill="none" stroke="midnightblue" d="M2428.76,-91.74C2071.93,-87.93 532.83,-70.02 320.5,-42 310.04,-40.62 298.98,-38.43 288.48,-36"/>
<polygon fill="midnightblue" stroke="midnightblue" points="2428.94,-95.24 2438.97,-91.85 2429.01,-88.24 2428.94,-95.24"/>
</g>
<!-- Node4 -->
<g id="node4" class="node">
<title>Node4</title>
<g id="a_node4"><a xlink:href="ekf__4x1x0__soaring_8cpp.xhtml" target="_top" xlink:title=" ">
<polygon fill="white" stroke="black" points="330,-6 330,-36 461,-36 461,-6 330,-6"/>
<text text-anchor="start" x="338" y="-24" font-family="Helvetica,sans-Serif" font-size="10.00">/github/workspace/sample</text>
<text text-anchor="middle" x="395.5" y="-13" font-family="Helvetica,sans-Serif" font-size="10.00">/ekf_4x1x0_soaring.cpp</text>
</a>
</g>
</g>
<!-- Node1&#45;&gt;Node4 -->
<g id="edge3" class="edge">
<title>Node1&#45;&gt;Node4</title>
<path fill="none" stroke="midnightblue" d="M2428.82,-91.71C2087.23,-87.93 666.01,-70.57 469.5,-42 460.02,-40.62 450.02,-38.44 440.54,-36.01"/>
<polygon fill="midnightblue" stroke="midnightblue" points="2428.81,-95.21 2438.85,-91.82 2428.89,-88.21 2428.81,-95.21"/>
</g>
<!-- Node5 -->
<g id="node5" class="node">
<title>Node5</title>
<g id="a_node5"><a xlink:href="kf__2x1x1__rocket__altitude_8cpp.xhtml" target="_top" xlink:title=" ">
<polygon fill="white" stroke="black" points="479,-6 479,-36 624,-36 624,-6 479,-6"/>
<text text-anchor="start" x="487" y="-24" font-family="Helvetica,sans-Serif" font-size="10.00">/github/workspace/sample</text>
<text text-anchor="middle" x="551.5" y="-13" font-family="Helvetica,sans-Serif" font-size="10.00">/kf_2x1x1_rocket_altitude.cpp</text>
</a>
</g>
</g>
<!-- Node1&#45;&gt;Node5 -->
<g id="edge4" class="edge">
<title>Node1&#45;&gt;Node5</title>
<path fill="none" stroke="midnightblue" d="M2428.17,-92.62C2125.95,-92.8 988.53,-90.19 632.5,-42 622.31,-40.62 611.54,-38.47 601.3,-36.08"/>
<polygon fill="midnightblue" stroke="midnightblue" points="2428.57,-96.12 2438.57,-92.62 2428.56,-89.12 2428.57,-96.12"/>
</g>
<!-- Node6 -->
<g id="node6" class="node">
<title>Node6</title>
<g id="a_node6"><a xlink:href="kf__6x2x0__vehicle__location_8cpp.xhtml" target="_top" xlink:title=" ">
<polygon fill="white" stroke="black" points="642,-6 642,-36 793,-36 793,-6 642,-6"/>
<text text-anchor="start" x="650" y="-24" font-family="Helvetica,sans-Serif" font-size="10.00">/github/workspace/sample</text>
<text text-anchor="middle" x="717.5" y="-13" font-family="Helvetica,sans-Serif" font-size="10.00">/kf_6x2x0_vehicle_location.cpp</text>
</a>
</g>
</g>
<!-- Node1&#45;&gt;Node6 -->
<g id="edge5" class="edge">
<title>Node1&#45;&gt;Node6</title>
<path fill="none" stroke="midnightblue" d="M2428.42,-92.28C2144.26,-91.14 1123.86,-84.14 802.5,-42 791.83,-40.6 780.54,-38.44 769.79,-36.05"/>
<polygon fill="midnightblue" stroke="midnightblue" points="2428.6,-95.78 2438.61,-92.32 2428.63,-88.78 2428.6,-95.78"/>
</g>
<!-- Node7 -->
<g id="node7" class="node">
<title>Node7</title>
<g id="a_node7"><a xlink:href="kf__8x4x0__deep__sort__bounding__box_8cpp.xhtml" target="_top" xlink:title=" ">
<polygon fill="white" stroke="black" points="811.5,-0.5 811.5,-41.5 961.5,-41.5 961.5,-0.5 811.5,-0.5"/>
<text text-anchor="start" x="819.5" y="-29.5" font-family="Helvetica,sans-Serif" font-size="10.00">/github/workspace/sample</text>
<text text-anchor="start" x="819.5" y="-18.5" font-family="Helvetica,sans-Serif" font-size="10.00">/kf_8x4x0_deep_sort_bounding</text>
<text text-anchor="middle" x="886.5" y="-7.5" font-family="Helvetica,sans-Serif" font-size="10.00">_box.cpp</text>
</a>
</g>
</g>
<!-- Node1&#45;&gt;Node7 -->
<g id="edge6" class="edge">
<title>Node1&#45;&gt;Node7</title>
<path fill="none" stroke="midnightblue" d="M2428.32,-92.03C2162.37,-90.02 1257.29,-80.47 970.5,-42 967.68,-41.62 964.81,-41.19 961.92,-40.71"/>
<polygon fill="midnightblue" stroke="midnightblue" points="2428.61,-95.53 2438.64,-92.1 2428.66,-88.53 2428.61,-95.53"/>
</g>
<!-- Node8 -->
<g id="node8" class="node">
<title>Node8</title>
<g id="a_node8"><a xlink:href="kalman__constructor__default__1x1x3_8cpp.xhtml" target="_top" xlink:title=" ">
<polygon fill="white" stroke="black" points="979.5,-0.5 979.5,-41.5 1119.5,-41.5 1119.5,-0.5 979.5,-0.5"/>
<text text-anchor="start" x="987.5" y="-29.5" font-family="Helvetica,sans-Serif" font-size="10.00">/github/workspace/test</text>
<text text-anchor="start" x="987.5" y="-18.5" font-family="Helvetica,sans-Serif" font-size="10.00">/kalman_constructor_default</text>
<text text-anchor="middle" x="1049.5" y="-7.5" font-family="Helvetica,sans-Serif" font-size="10.00">_1x1x3.cpp</text>
</a>
</g>
</g>
<!-- Node1&#45;&gt;Node8 -->
<g id="edge7" class="edge">
<title>Node1&#45;&gt;Node8</title>
<path fill="none" stroke="midnightblue" d="M2428.58,-91.84C2181.09,-89.31 1382.84,-78.45 1128.5,-42 1125.56,-41.58 1122.57,-41.09 1119.56,-40.55"/>
<polygon fill="midnightblue" stroke="midnightblue" points="2428.87,-95.34 2438.9,-91.94 2428.94,-88.34 2428.87,-95.34"/>
</g>
<!-- Node9 -->
<g id="node9" class="node">
<title>Node9</title>
<g id="a_node9"><a xlink:href="kalman__constructor__default__1x4x1_8cpp.xhtml" target="_top" xlink:title=" ">
<polygon fill="white" stroke="black" points="1137.5,-0.5 1137.5,-41.5 1277.5,-41.5 1277.5,-0.5 1137.5,-0.5"/>
<text text-anchor="start" x="1145.5" y="-29.5" font-family="Helvetica,sans-Serif" font-size="10.00">/github/workspace/test</text>
<text text-anchor="start" x="1145.5" y="-18.5" font-family="Helvetica,sans-Serif" font-size="10.00">/kalman_constructor_default</text>
<text text-anchor="middle" x="1207.5" y="-7.5" font-family="Helvetica,sans-Serif" font-size="10.00">_1x4x1.cpp</text>
</a>
</g>
</g>
<!-- Node1&#45;&gt;Node9 -->
<g id="edge8" class="edge">
<title>Node1&#45;&gt;Node9</title>
<path fill="none" stroke="midnightblue" d="M2428.69,-91.43C2200.56,-87.81 1508.76,-74.39 1286.5,-42 1283.56,-41.57 1280.57,-41.08 1277.56,-40.54"/>
<polygon fill="midnightblue" stroke="midnightblue" points="2428.82,-94.93 2438.88,-91.59 2428.93,-87.93 2428.82,-94.93"/>
</g>
<!-- Node10 -->
<g id="node10" class="node">
<title>Node10</title>
<g id="a_node10"><a xlink:href="kalman__constructor__default__1x4x3_8cpp.xhtml" target="_top" xlink:title=" ">
<polygon fill="white" stroke="black" points="1295.5,-0.5 1295.5,-41.5 1435.5,-41.5 1435.5,-0.5 1295.5,-0.5"/>
<text text-anchor="start" x="1303.5" y="-29.5" font-family="Helvetica,sans-Serif" font-size="10.00">/github/workspace/test</text>
<text text-anchor="start" x="1303.5" y="-18.5" font-family="Helvetica,sans-Serif" font-size="10.00">/kalman_constructor_default</text>
<text text-anchor="middle" x="1365.5" y="-7.5" font-family="Helvetica,sans-Serif" font-size="10.00">_1x4x3.cpp</text>
</a>
</g>
</g>
<!-- Node1&#45;&gt;Node10 -->
<g id="edge9" class="edge">
<title>Node1&#45;&gt;Node10</title>
<path fill="none" stroke="midnightblue" d="M2428.48,-90.9C2220.69,-86.08 1634.77,-70.33 1444.5,-42 1441.56,-41.56 1438.57,-41.06 1435.56,-40.51"/>
<polygon fill="midnightblue" stroke="midnightblue" points="2428.6,-94.4 2438.68,-91.13 2428.76,-87.4 2428.6,-94.4"/>
</g>
<!-- Node11 -->
<g id="node11" class="node">
<title>Node11</title>
<g id="a_node11"><a xlink:href="kalman__constructor__default__5x1x1_8cpp.xhtml" target="_top" xlink:title=" ">
<polygon fill="white" stroke="black" points="1453.5,-0.5 1453.5,-41.5 1593.5,-41.5 1593.5,-0.5 1453.5,-0.5"/>
<text text-anchor="start" x="1461.5" y="-29.5" font-family="Helvetica,sans-Serif" font-size="10.00">/github/workspace/test</text>
<text text-anchor="start" x="1461.5" y="-18.5" font-family="Helvetica,sans-Serif" font-size="10.00">/kalman_constructor_default</text>
<text text-anchor="middle" x="1523.5" y="-7.5" font-family="Helvetica,sans-Serif" font-size="10.00">_5x1x1.cpp</text>
</a>
</g>
</g>
<!-- Node1&#45;&gt;Node11 -->
<g id="edge10" class="edge">
<title>Node1&#45;&gt;Node11</title>
<path fill="none" stroke="midnightblue" d="M2428.47,-93.13C2274,-93.4 1906.45,-88.56 1602.5,-42 1599.56,-41.55 1596.58,-41.04 1593.57,-40.48"/>
<polygon fill="midnightblue" stroke="midnightblue" points="2428.79,-96.63 2438.78,-93.1 2428.77,-89.63 2428.79,-96.63"/>
</g>
<!-- Node12 -->
<g id="node12" class="node">
<title>Node12</title>
<g id="a_node12"><a xlink:href="kalman__constructor__default__5x1x3_8cpp.xhtml" target="_top" xlink:title=" ">
<polygon fill="white" stroke="black" points="1611.5,-0.5 1611.5,-41.5 1751.5,-41.5 1751.5,-0.5 1611.5,-0.5"/>
<text text-anchor="start" x="1619.5" y="-29.5" font-family="Helvetica,sans-Serif" font-size="10.00">/github/workspace/test</text>
<text text-anchor="start" x="1619.5" y="-18.5" font-family="Helvetica,sans-Serif" font-size="10.00">/kalman_constructor_default</text>
<text text-anchor="middle" x="1681.5" y="-7.5" font-family="Helvetica,sans-Serif" font-size="10.00">_5x1x3.cpp</text>
</a>
</g>
</g>
<!-- Node1&#45;&gt;Node12 -->
<g id="edge11" class="edge">
<title>Node1&#45;&gt;Node12</title>
<path fill="none" stroke="midnightblue" d="M2428.39,-91.86C2294.29,-89.72 2002.83,-80.6 1760.5,-42 1757.57,-41.53 1754.58,-41.01 1751.58,-40.44"/>
<polygon fill="midnightblue" stroke="midnightblue" points="2428.49,-95.36 2438.54,-92.01 2428.6,-88.36 2428.49,-95.36"/>
</g>
<!-- Node13 -->
<g id="node13" class="node">
<title>Node13</title>
<g id="a_node13"><a xlink:href="kalman__constructor__default__5x4x0_8cpp.xhtml" target="_top" xlink:title=" ">
<polygon fill="white" stroke="black" points="1769.5,-0.5 1769.5,-41.5 1909.5,-41.5 1909.5,-0.5 1769.5,-0.5"/>
<text text-anchor="start" x="1777.5" y="-29.5" font-family="Helvetica,sans-Serif" font-size="10.00">/github/workspace/test</text>
<text text-anchor="start" x="1777.5" y="-18.5" font-family="Helvetica,sans-Serif" font-size="10.00">/kalman_constructor_default</text>
<text text-anchor="middle" x="1839.5" y="-7.5" font-family="Helvetica,sans-Serif" font-size="10.00">_5x4x0.cpp</text>
</a>
</g>
</g>
<!-- Node1&#45;&gt;Node13 -->
<g id="edge12" class="edge">
<title>Node1&#45;&gt;Node13</title>
<path fill="none" stroke="midnightblue" d="M2428.89,-89.95C2317.67,-85.24 2100.47,-72.7 1918.5,-42 1915.57,-41.51 1912.59,-40.96 1909.59,-40.37"/>
<polygon fill="midnightblue" stroke="midnightblue" points="2428.85,-93.45 2438.99,-90.37 2429.14,-86.46 2428.85,-93.45"/>
</g>
<!-- Node14 -->
<g id="node14" class="node">
<title>Node14</title>
<g id="a_node14"><a xlink:href="kalman__constructor__default__5x4x1_8cpp.xhtml" target="_top" xlink:title=" ">
<polygon fill="white" stroke="black" points="1927.5,-0.5 1927.5,-41.5 2067.5,-41.5 2067.5,-0.5 1927.5,-0.5"/>
<text text-anchor="start" x="1935.5" y="-29.5" font-family="Helvetica,sans-Serif" font-size="10.00">/github/workspace/test</text>
<text text-anchor="start" x="1935.5" y="-18.5" font-family="Helvetica,sans-Serif" font-size="10.00">/kalman_constructor_default</text>
<text text-anchor="middle" x="1997.5" y="-7.5" font-family="Helvetica,sans-Serif" font-size="10.00">_5x4x1.cpp</text>
</a>
</g>
</g>
<!-- Node1&#45;&gt;Node14 -->
<g id="edge13" class="edge">
<title>Node1&#45;&gt;Node14</title>
<path fill="none" stroke="midnightblue" d="M2428.86,-86.7C2343.59,-79.3 2199.12,-64.69 2076.5,-42 2073.58,-41.46 2070.6,-40.87 2067.61,-40.25"/>
<polygon fill="midnightblue" stroke="midnightblue" points="2428.7,-90.2 2438.96,-87.56 2429.29,-83.22 2428.7,-90.2"/>
</g>
<!-- Node15 -->
<g id="node15" class="node">
<title>Node15</title>
<g id="a_node15"><a xlink:href="kalman__constructor__default__5x4x3_8cpp.xhtml" target="_top" xlink:title=" ">
<polygon fill="white" stroke="black" points="2085.5,-0.5 2085.5,-41.5 2225.5,-41.5 2225.5,-0.5 2085.5,-0.5"/>
<text text-anchor="start" x="2093.5" y="-29.5" font-family="Helvetica,sans-Serif" font-size="10.00">/github/workspace/test</text>
<text text-anchor="start" x="2093.5" y="-18.5" font-family="Helvetica,sans-Serif" font-size="10.00">/kalman_constructor_default</text>
<text text-anchor="middle" x="2155.5" y="-7.5" font-family="Helvetica,sans-Serif" font-size="10.00">_5x4x3.cpp</text>
</a>
</g>
</g>
<!-- Node1&#45;&gt;Node15 -->
<g id="edge14" class="edge">
<title>Node1&#45;&gt;Node15</title>
<path fill="none" stroke="midnightblue" d="M2428.75,-79.87C2374.78,-70.32 2299.87,-56.42 2234.5,-42 2231.6,-41.36 2228.64,-40.69 2225.66,-40"/>
<polygon fill="midnightblue" stroke="midnightblue" points="2428.47,-83.37 2438.92,-81.66 2429.68,-76.48 2428.47,-83.37"/>
</g>
<!-- Node16 -->
<g id="node16" class="node">
<title>Node16</title>
<g id="a_node16"><a xlink:href="kalman__f__5x4x3_8cpp.xhtml" target="_top" xlink:title=" ">
<polygon fill="white" stroke="black" points="2243.5,-6 2243.5,-36 2359.5,-36 2359.5,-6 2243.5,-6"/>
<text text-anchor="start" x="2251.5" y="-24" font-family="Helvetica,sans-Serif" font-size="10.00">/github/workspace/test</text>
<text text-anchor="middle" x="2301.5" y="-13" font-family="Helvetica,sans-Serif" font-size="10.00">/kalman_f_5x4x3.cpp</text>
</a>
</g>
</g>
<!-- Node1&#45;&gt;Node16 -->
<g id="edge15" class="edge">
<title>Node1&#45;&gt;Node16</title>
<path fill="none" stroke="midnightblue" d="M2452.51,-74.96C2418.29,-62.96 2373.51,-47.26 2341.62,-36.07"/>
<polygon fill="midnightblue" stroke="midnightblue" points="2451.71,-78.4 2462.31,-78.4 2454.03,-71.79 2451.71,-78.4"/>
</g>
<!-- Node17 -->
<g id="node17" class="node">
<title>Node17</title>
<g id="a_node17"><a xlink:href="kalman__h__5x4x3_8cpp.xhtml" target="_top" xlink:title=" ">
<polygon fill="white" stroke="black" points="2377.5,-6 2377.5,-36 2493.5,-36 2493.5,-6 2377.5,-6"/>
<text text-anchor="start" x="2385.5" y="-24" font-family="Helvetica,sans-Serif" font-size="10.00">/github/workspace/test</text>
<text text-anchor="middle" x="2435.5" y="-13" font-family="Helvetica,sans-Serif" font-size="10.00">/kalman_h_5x4x3.cpp</text>
</a>
</g>
</g>
<!-- Node1&#45;&gt;Node17 -->
<g id="edge16" class="edge">
<title>Node1&#45;&gt;Node17</title>
<path fill="none" stroke="midnightblue" d="M2481.94,-70.86C2471.25,-59.61 2458.48,-46.18 2449.04,-36.25"/>
<polygon fill="midnightblue" stroke="midnightblue" points="2479.52,-73.4 2488.94,-78.23 2484.59,-68.57 2479.52,-73.4"/>
</g>
<!-- Node18 -->
<g id="node18" class="node">
<title>Node18</title>
<g id="a_node18"><a xlink:href="linalg__addition_8cpp.xhtml" target="_top" xlink:title=" ">
<polygon fill="white" stroke="black" points="2511.5,-6 2511.5,-36 2627.5,-36 2627.5,-6 2511.5,-6"/>
<text text-anchor="start" x="2519.5" y="-24" font-family="Helvetica,sans-Serif" font-size="10.00">/github/workspace/test</text>
<text text-anchor="middle" x="2569.5" y="-13" font-family="Helvetica,sans-Serif" font-size="10.00">/linalg_addition.cpp</text>
</a>
</g>
</g>
<!-- Node1&#45;&gt;Node18 -->
<g id="edge17" class="edge">
<title>Node1&#45;&gt;Node18</title>
<path fill="none" stroke="midnightblue" d="M2523.06,-70.86C2533.75,-59.61 2546.52,-46.18 2555.96,-36.25"/>
<polygon fill="midnightblue" stroke="midnightblue" points="2520.41,-68.57 2516.06,-78.23 2525.48,-73.4 2520.41,-68.57"/>
</g>
<!-- Node19 -->
<g id="node19" class="node">
<title>Node19</title>
<g id="a_node19"><a xlink:href="linalg__assign_8cpp.xhtml" target="_top" xlink:title=" ">
<polygon fill="white" stroke="black" points="2645.5,-6 2645.5,-36 2761.5,-36 2761.5,-6 2645.5,-6"/>
<text text-anchor="start" x="2653.5" y="-24" font-family="Helvetica,sans-Serif" font-size="10.00">/github/workspace/test</text>
<text text-anchor="middle" x="2703.5" y="-13" font-family="Helvetica,sans-Serif" font-size="10.00">/linalg_assign.cpp</text>
</a>
</g>
</g>
<!-- Node1&#45;&gt;Node19 -->
<g id="edge18" class="edge">
<title>Node1&#45;&gt;Node19</title>
<path fill="none" stroke="midnightblue" d="M2552.49,-74.96C2586.71,-62.96 2631.49,-47.26 2663.38,-36.07"/>
<polygon fill="midnightblue" stroke="midnightblue" points="2550.97,-71.79 2542.69,-78.4 2553.29,-78.4 2550.97,-71.79"/>
</g>
<!-- Node20 -->
<g id="node20" class="node">
<title>Node20</title>
<g id="a_node20"><a xlink:href="linalg__constructor__1x1_8cpp.xhtml" target="_top" xlink:title=" ">
<polygon fill="white" stroke="black" points="2779.5,-6 2779.5,-36 2913.5,-36 2913.5,-6 2779.5,-6"/>
<text text-anchor="start" x="2787.5" y="-24" font-family="Helvetica,sans-Serif" font-size="10.00">/github/workspace/test</text>
<text text-anchor="middle" x="2846.5" y="-13" font-family="Helvetica,sans-Serif" font-size="10.00">/linalg_constructor_1x1.cpp</text>
</a>
</g>
</g>
<!-- Node1&#45;&gt;Node20 -->
<g id="edge19" class="edge">
<title>Node1&#45;&gt;Node20</title>
<path fill="none" stroke="midnightblue" d="M2576.29,-80.05C2630.28,-70.59 2705.2,-56.73 2770.5,-42 2778.49,-40.2 2786.9,-38.14 2795.11,-36.05"/>
<polygon fill="midnightblue" stroke="midnightblue" points="2575.37,-76.66 2566.12,-81.83 2576.57,-83.56 2575.37,-76.66"/>
</g>
<!-- Node21 -->
<g id="node21" class="node">
<title>Node21</title>
<g id="a_node21"><a xlink:href="linalg__constructor__1x1__array_8cpp.xhtml" target="_top" xlink:title=" ">
<polygon fill="white" stroke="black" points="2931.5,-0.5 2931.5,-41.5 3047.5,-41.5 3047.5,-0.5 2931.5,-0.5"/>
<text text-anchor="start" x="2939.5" y="-29.5" font-family="Helvetica,sans-Serif" font-size="10.00">/github/workspace/test</text>
<text text-anchor="start" x="2939.5" y="-18.5" font-family="Helvetica,sans-Serif" font-size="10.00">/linalg_constructor_1x1</text>
<text text-anchor="middle" x="2989.5" y="-7.5" font-family="Helvetica,sans-Serif" font-size="10.00">_array.cpp</text>
</a>
</g>
</g>
<!-- Node1&#45;&gt;Node21 -->
<g id="edge20" class="edge">
<title>Node1&#45;&gt;Node21</title>
<path fill="none" stroke="midnightblue" d="M2576.01,-87.48C2660.34,-80.83 2802.44,-66.95 2922.5,-42 2925.35,-41.41 2928.26,-40.75 2931.18,-40.05"/>
<polygon fill="midnightblue" stroke="midnightblue" points="2575.72,-83.99 2566.02,-88.25 2576.26,-90.97 2575.72,-83.99"/>
</g>
<!-- Node22 -->
<g id="node22" class="node">
<title>Node22</title>
<g id="a_node22"><a xlink:href="linalg__constructor__1xn_8cpp.xhtml" target="_top" xlink:title=" ">
<polygon fill="white" stroke="black" points="3065.5,-6 3065.5,-36 3199.5,-36 3199.5,-6 3065.5,-6"/>
<text text-anchor="start" x="3073.5" y="-24" font-family="Helvetica,sans-Serif" font-size="10.00">/github/workspace/test</text>
<text text-anchor="middle" x="3132.5" y="-13" font-family="Helvetica,sans-Serif" font-size="10.00">/linalg_constructor_1xn.cpp</text>
</a>
</g>
</g>
<!-- Node1&#45;&gt;Node22 -->
<g id="edge21" class="edge">
<title>Node1&#45;&gt;Node22</title>
<path fill="none" stroke="midnightblue" d="M2576.11,-89.69C2682.73,-84.74 2886.03,-71.99 3056.5,-42 3065.5,-40.42 3075,-38.29 3084.11,-36.02"/>
<polygon fill="midnightblue" stroke="midnightblue" points="2575.93,-86.19 2566.1,-90.14 2576.25,-93.19 2575.93,-86.19"/>
</g>
<!-- Node23 -->
<g id="node23" class="node">
<title>Node23</title>
<g id="a_node23"><a xlink:href="linalg__constructor__1xn__array_8cpp.xhtml" target="_top" xlink:title=" ">
<polygon fill="white" stroke="black" points="3217.5,-0.5 3217.5,-41.5 3333.5,-41.5 3333.5,-0.5 3217.5,-0.5"/>
<text text-anchor="start" x="3225.5" y="-29.5" font-family="Helvetica,sans-Serif" font-size="10.00">/github/workspace/test</text>
<text text-anchor="start" x="3225.5" y="-18.5" font-family="Helvetica,sans-Serif" font-size="10.00">/linalg_constructor_1xn</text>
<text text-anchor="middle" x="3275.5" y="-7.5" font-family="Helvetica,sans-Serif" font-size="10.00">_array.cpp</text>
</a>
</g>
</g>
<!-- Node1&#45;&gt;Node23 -->
<g id="edge22" class="edge">
<title>Node1&#45;&gt;Node23</title>
<path fill="none" stroke="midnightblue" d="M2576.55,-92.5C2705.86,-91.33 2980.76,-83.62 3208.5,-42 3211.37,-41.48 3214.28,-40.87 3217.22,-40.22"/>
<polygon fill="midnightblue" stroke="midnightblue" points="2576.34,-89 2566.37,-92.58 2576.4,-96 2576.34,-89"/>
</g>
<!-- Node24 -->
<g id="node24" class="node">
<title>Node24</title>
<g id="a_node24"><a xlink:href="linalg__constructor__initializer__lists_8cpp.xhtml" target="_top" xlink:title=" ">
<polygon fill="white" stroke="black" points="3352,-0.5 3352,-41.5 3491,-41.5 3491,-0.5 3352,-0.5"/>
<text text-anchor="start" x="3360" y="-29.5" font-family="Helvetica,sans-Serif" font-size="10.00">/github/workspace/test</text>
<text text-anchor="start" x="3360" y="-18.5" font-family="Helvetica,sans-Serif" font-size="10.00">/linalg_constructor_initializer</text>
<text text-anchor="middle" x="3421.5" y="-7.5" font-family="Helvetica,sans-Serif" font-size="10.00">_lists.cpp</text>
</a>
</g>
</g>
<!-- Node1&#45;&gt;Node24 -->
<g id="edge23" class="edge">
<title>Node1&#45;&gt;Node24</title>
<path fill="none" stroke="midnightblue" d="M2576.4,-92.7C2723.27,-92.08 3061.94,-85.55 3342.5,-42 3345.58,-41.52 3348.71,-40.98 3351.86,-40.39"/>
<polygon fill="midnightblue" stroke="midnightblue" points="2576.15,-89.2 2566.16,-92.74 2576.17,-96.2 2576.15,-89.2"/>
</g>
<!-- Node25 -->
<g id="node25" class="node">
<title>Node25</title>
<g id="a_node25"><a xlink:href="linalg__constructor__nx1_8cpp.xhtml" target="_top" xlink:title=" ">
<polygon fill="white" stroke="black" points="3509.5,-6 3509.5,-36 3643.5,-36 3643.5,-6 3509.5,-6"/>
<text text-anchor="start" x="3517.5" y="-24" font-family="Helvetica,sans-Serif" font-size="10.00">/github/workspace/test</text>
<text text-anchor="middle" x="3576.5" y="-13" font-family="Helvetica,sans-Serif" font-size="10.00">/linalg_constructor_nx1.cpp</text>
</a>
</g>
</g>
<!-- Node1&#45;&gt;Node25 -->
<g id="edge24" class="edge">
<title>Node1&#45;&gt;Node25</title>
<path fill="none" stroke="midnightblue" d="M2576.13,-90.75C2775.41,-85.69 3322.31,-69.65 3500.5,-42 3509.94,-40.54 3519.9,-38.38 3529.39,-36.01"/>
<polygon fill="midnightblue" stroke="midnightblue" points="2575.96,-87.25 2566.05,-91 2576.13,-94.25 2575.96,-87.25"/>
</g>
<!-- Node26 -->
<g id="node26" class="node">
<title>Node26</title>
<g id="a_node26"><a xlink:href="linalg__constructor__nx1__array_8cpp.xhtml" target="_top" xlink:title=" ">
<polygon fill="white" stroke="black" points="3661.5,-0.5 3661.5,-41.5 3777.5,-41.5 3777.5,-0.5 3661.5,-0.5"/>
<text text-anchor="start" x="3669.5" y="-29.5" font-family="Helvetica,sans-Serif" font-size="10.00">/github/workspace/test</text>
<text text-anchor="start" x="3669.5" y="-18.5" font-family="Helvetica,sans-Serif" font-size="10.00">/linalg_constructor_nx1</text>
<text text-anchor="middle" x="3719.5" y="-7.5" font-family="Helvetica,sans-Serif" font-size="10.00">_array.cpp</text>
</a>
</g>
</g>
<!-- Node1&#45;&gt;Node26 -->
<g id="edge25" class="edge">
<title>Node1&#45;&gt;Node26</title>
<path fill="none" stroke="midnightblue" d="M2576.49,-91.63C2796.51,-88.66 3444.33,-77.09 3652.5,-42 3655.37,-41.52 3658.3,-40.95 3661.23,-40.31"/>
<polygon fill="midnightblue" stroke="midnightblue" points="2576.29,-88.13 2566.34,-91.76 2576.38,-95.13 2576.29,-88.13"/>
</g>
<!-- Node27 -->
<g id="node27" class="node">
<title>Node27</title>
<g id="a_node27"><a xlink:href="linalg__copy_8cpp.xhtml" target="_top" xlink:title=" ">
<polygon fill="white" stroke="black" points="3795.5,-6 3795.5,-36 3911.5,-36 3911.5,-6 3795.5,-6"/>
<text text-anchor="start" x="3803.5" y="-24" font-family="Helvetica,sans-Serif" font-size="10.00">/github/workspace/test</text>
<text text-anchor="middle" x="3853.5" y="-13" font-family="Helvetica,sans-Serif" font-size="10.00">/linalg_copy.cpp</text>
</a>
</g>
</g>
<!-- Node1&#45;&gt;Node27 -->
<g id="edge26" class="edge">
<title>Node1&#45;&gt;Node27</title>
<path fill="none" stroke="midnightblue" d="M2576.42,-92.02C2813.22,-90.12 3551.22,-81.1 3786.5,-42 3795,-40.59 3803.94,-38.42 3812.42,-36.02"/>
<polygon fill="midnightblue" stroke="midnightblue" points="2576.17,-88.53 2566.19,-92.1 2576.22,-95.53 2576.17,-88.53"/>
</g>
<!-- Node28 -->
<g id="node28" class="node">
<title>Node28</title>
<g id="a_node28"><a xlink:href="linalg__identity_8cpp.xhtml" target="_top" xlink:title=" ">
<polygon fill="white" stroke="black" points="3929.5,-6 3929.5,-36 4045.5,-36 4045.5,-6 3929.5,-6"/>
<text text-anchor="start" x="3937.5" y="-24" font-family="Helvetica,sans-Serif" font-size="10.00">/github/workspace/test</text>
<text text-anchor="middle" x="3987.5" y="-13" font-family="Helvetica,sans-Serif" font-size="10.00">/linalg_identity.cpp</text>
</a>
</g>
</g>
<!-- Node1&#45;&gt;Node28 -->
<g id="edge27" class="edge">
<title>Node1&#45;&gt;Node28</title>
<path fill="none" stroke="midnightblue" d="M2576.29,-92.35C2828.92,-91.43 3657.97,-85.13 3920.5,-42 3929,-40.6 3937.95,-38.44 3946.43,-36.05"/>
<polygon fill="midnightblue" stroke="midnightblue" points="2576.11,-88.85 2566.12,-92.38 2576.13,-95.85 2576.11,-88.85"/>
</g>
<!-- Node29 -->
<g id="node29" class="node">
<title>Node29</title>
<g id="a_node29"><a xlink:href="linalg__identity__default_8cpp.xhtml" target="_top" xlink:title=" ">
<polygon fill="white" stroke="black" points="4064,-6 4064,-36 4195,-36 4195,-6 4064,-6"/>
<text text-anchor="start" x="4072" y="-24" font-family="Helvetica,sans-Serif" font-size="10.00">/github/workspace/test</text>
<text text-anchor="middle" x="4129.5" y="-13" font-family="Helvetica,sans-Serif" font-size="10.00">/linalg_identity_default.cpp</text>
</a>
</g>
</g>
<!-- Node1&#45;&gt;Node29 -->
<g id="edge28" class="edge">
<title>Node1&#45;&gt;Node29</title>
<path fill="none" stroke="midnightblue" d="M2576.37,-92.33C2844.24,-91.35 3764.04,-84.88 4054.5,-42 4063.97,-40.6 4073.95,-38.44 4083.44,-36.05"/>
<polygon fill="midnightblue" stroke="midnightblue" points="2576.35,-88.83 2566.36,-92.36 2576.37,-95.83 2576.35,-88.83"/>
</g>
<!-- Node30 -->
<g id="node30" class="node">
<title>Node30</title>
<g id="a_node30"><a xlink:href="linalg__operator__bracket_8cpp.xhtml" target="_top" xlink:title=" ">
<polygon fill="white" stroke="black" points="4213.5,-6 4213.5,-36 4351.5,-36 4351.5,-6 4213.5,-6"/>
<text text-anchor="start" x="4221.5" y="-24" font-family="Helvetica,sans-Serif" font-size="10.00">/github/workspace/test</text>
<text text-anchor="middle" x="4282.5" y="-13" font-family="Helvetica,sans-Serif" font-size="10.00">/linalg_operator_bracket.cpp</text>
</a>
</g>
</g>
<!-- Node1&#45;&gt;Node30 -->
<g id="edge29" class="edge">
<title>Node1&#45;&gt;Node30</title>
<path fill="none" stroke="midnightblue" d="M2576.22,-92.48C2860.14,-92.07 3883.02,-87.41 4204.5,-42 4214.33,-40.61 4224.7,-38.46 4234.57,-36.06"/>
<polygon fill="midnightblue" stroke="midnightblue" points="2576.03,-88.98 2566.03,-92.49 2576.04,-95.98 2576.03,-88.98"/>
</g>
<!-- Node31 -->
<g id="node31" class="node">
<title>Node31</title>
<g id="a_node31"><a xlink:href="linalg__operator__equality_8cpp.xhtml" target="_top" xlink:title=" ">
<polygon fill="white" stroke="black" points="4370,-6 4370,-36 4509,-36 4509,-6 4370,-6"/>
<text text-anchor="start" x="4378" y="-24" font-family="Helvetica,sans-Serif" font-size="10.00">/github/workspace/test</text>
<text text-anchor="middle" x="4439.5" y="-13" font-family="Helvetica,sans-Serif" font-size="10.00">/linalg_operator_equality.cpp</text>
</a>
</g>
</g>
<!-- Node1&#45;&gt;Node31 -->
<g id="edge30" class="edge">
<title>Node1&#45;&gt;Node31</title>
<path fill="none" stroke="midnightblue" d="M2576.36,-92.67C2876.67,-93.01 4006.9,-90.95 4360.5,-42 4370.45,-40.62 4380.96,-38.47 4390.95,-36.08"/>
<polygon fill="midnightblue" stroke="midnightblue" points="2576.03,-89.17 2566.03,-92.65 2576.02,-96.17 2576.03,-89.17"/>
</g>
<!-- Node32 -->
<g id="node32" class="node">
<title>Node32</title>
<g id="a_node32"><a xlink:href="linalg__zero_8cpp.xhtml" target="_top" xlink:title=" ">
<polygon fill="white" stroke="black" points="4527.5,-6 4527.5,-36 4643.5,-36 4643.5,-6 4527.5,-6"/>
<text text-anchor="start" x="4535.5" y="-24" font-family="Helvetica,sans-Serif" font-size="10.00">/github/workspace/test</text>
<text text-anchor="middle" x="4585.5" y="-13" font-family="Helvetica,sans-Serif" font-size="10.00">/linalg_zero.cpp</text>
</a>
</g>
</g>
<!-- Node1&#45;&gt;Node32 -->
<g id="edge31" class="edge">
<title>Node1&#45;&gt;Node32</title>
<path fill="none" stroke="midnightblue" d="M2576.39,-91.81C2916.64,-88.47 4324.18,-72.87 4518.5,-42 4527.13,-40.63 4536.21,-38.45 4544.8,-36.02"/>
<polygon fill="midnightblue" stroke="midnightblue" points="2576.13,-88.31 2566.16,-91.91 2576.2,-95.31 2576.13,-88.31"/>
</g>
<!-- Node33 -->
<g id="node33" class="node">
<title>Node33</title>
<g id="a_node33"><a xlink:href="linalg__zero__default_8cpp.xhtml" target="_top" xlink:title=" ">
<polygon fill="white" stroke="black" points="4661.5,-6 4661.5,-36 4779.5,-36 4779.5,-6 4661.5,-6"/>
<text text-anchor="start" x="4669.5" y="-24" font-family="Helvetica,sans-Serif" font-size="10.00">/github/workspace/test</text>
<text text-anchor="middle" x="4720.5" y="-13" font-family="Helvetica,sans-Serif" font-size="10.00">/linalg_zero_default.cpp</text>
</a>
</g>
</g>
<!-- Node1&#45;&gt;Node33 -->
<g id="edge32" class="edge">
<title>Node1&#45;&gt;Node33</title>
<path fill="none" stroke="midnightblue" d="M2576.34,-91.92C2930.24,-88.96 4444.22,-74.49 4652.5,-42 4661.25,-40.63 4670.46,-38.45 4679.18,-36.03"/>
<polygon fill="midnightblue" stroke="midnightblue" points="2576.18,-88.42 2566.21,-92 2576.24,-95.42 2576.18,-88.42"/>
</g>
</g>
</svg>
        <g id="navigator" transform="translate(0 0)" fill="#404254">
                <rect fill="#f2f5e9" fill-opacity="0.5" stroke="#606060" stroke-width=".5" x="0" y="0" width="60" height="60"/>
                <use id="zoomplus" xlink:href="#zoomPlus" x="17" y="9" onmousedown="handleZoom(evt,'in')"/>
                <use id="zoomminus" xlink:href="#zoomMin" x="42" y="9" onmousedown="handleZoom(evt,'out')"/>
                <use id="reset" xlink:href="#resetDef" x="30" y="36" onmousedown="handleReset()"/>
                <g id="arrowUp" xlink:href="#dirArrow" transform="translate(30 24)" onmousedown="handlePan(0,-1)">
                  <use xlink:href="#rim" fill="#404040">
                        <set attributeName="fill" to="#808080" begin="arrowUp.mouseover" end="arrowUp.mouseout"/>
                  </use>
                  <path fill="none" stroke="white" stroke-width="1.5" d="M0,-3.0v7 M-2.5,-0.5L0,-3.0L2.5,-0.5"/>
                </g>
                <g id="arrowRight" xlink:href="#dirArrow" transform="rotate(90) translate(36 -43)" onmousedown="handlePan(1,0)">
                  <use xlink:href="#rim" fill="#404040">
                        <set attributeName="fill" to="#808080" begin="arrowRight.mouseover" end="arrowRight.mouseout"/>
                  </use>
                  <path fill="none" stroke="white" stroke-width="1.5" d="M0,-3.0v7 M-2.5,-0.5L0,-3.0L2.5,-0.5"/>
                </g>
                <g id="arrowDown" xlink:href="#dirArrow" transform="rotate(180) translate(-30 -48)" onmousedown="handlePan(0,1)">
                  <use xlink:href="#rim" fill="#404040">
                        <set attributeName="fill" to="#808080" begin="arrowDown.mouseover" end="arrowDown.mouseout"/>
                  </use>
                  <path fill="none" stroke="white" stroke-width="1.5" d="M0,-3.0v7 M-2.5,-0.5L0,-3.0L2.5,-0.5"/>
                </g>
                <g id="arrowLeft" xlink:href="#dirArrow" transform="rotate(270) translate(-36 17)" onmousedown="handlePan(-1,0)">
                  <use xlink:href="#rim" fill="#404040">
                        <set attributeName="fill" to="#808080" begin="arrowLeft.mouseover" end="arrowLeft.mouseout"/>
                  </use>
                  <path fill="none" stroke="white" stroke-width="1.5" d="M0,-3.0v7 M-2.5,-0.5L0,-3.0L2.5,-0.5"/>
                </g>
        </g>
        <svg viewBox="0 0 15 15" width="100%" height="30px" preserveAspectRatio="xMaxYMin meet">
         <g id="arrow_out" transform="scale(0.3 0.3)">
          <a xlink:href="linalg_8hpp__dep__incl_org.svg" target="_base">
           <rect id="button" ry="5" rx="5" y="6" x="6" height="38" width="38"
                fill="#f2f5e9" fill-opacity="0.5" stroke="#606060" stroke-width="1.0"/>
           <path id="arrow"
             d="M 11.500037,31.436501 C 11.940474,20.09759 22.043105,11.32322 32.158766,21.979434 L 37.068811,17.246167 C 37.068811,17.246167 37.088388,32 37.088388,32 L 22.160133,31.978069 C 22.160133,31.978069 26.997745,27.140456 26.997745,27.140456 C 18.528582,18.264221 13.291696,25.230495 11.500037,31.436501 z"
             style="fill:#404040;"/>
          </a>
         </g>
        </svg>
</svg>
