<?xml version="1.0" encoding="UTF-8" standalone="no"?>
<!DOCTYPE svg PUBLIC "-//W3C//DTD SVG 1.1//EN"
 "http://www.w3.org/Graphics/SVG/1.1/DTD/svg11.dtd">
<!-- Generated by graphviz version 3.0.0 (20221109.1736)
 -->
<!-- Title: /github/workspace/linalg/eigen/fcarouge/linalg.hpp Pages: 1 -->
<!--zoomable 117 -->
<svg id="main" version="1.1" xmlns="http://www.w3.org/2000/svg" xmlns:xlink="http://www.w3.org/1999/xlink" xml:space="preserve" onload="init(evt)">
<style type="text/css"><![CDATA[
.edge:hover path { stroke: red; }
.edge:hover polygon { stroke: red; fill: red; }
]]></style>
<script type="text/javascript"><![CDATA[
var edges = document.getElementsByTagName('g');
if (edges && edges.length) {
  for (var i=0;i<edges.length;i++) {
    if (edges[i].id.substr(0,4)=='edge') {
      edges[i].setAttribute('class','edge');
    }
  }
}
]]></script>
        <defs>
                <circle id="rim" cx="0" cy="0" r="7"/>
                <circle id="rim2" cx="0" cy="0" r="3.5"/>
                <g id="zoomPlus">
                        <use xlink:href="#rim" fill="#404040">
                                <set attributeName="fill" to="#808080" begin="zoomplus.mouseover" end="zoomplus.mouseout"/>
                        </use>
                        <path d="M-4,0h8M0,-4v8" fill="none" stroke="white" stroke-width="1.5" pointer-events="none"/>
                </g>
                <g id="zoomMin">
                        <use xlink:href="#rim" fill="#404040">
                                <set attributeName="fill" to="#808080" begin="zoomminus.mouseover" end="zoomminus.mouseout"/>
                        </use>
                        <path d="M-4,0h8" fill="none" stroke="white" stroke-width="1.5" pointer-events="none"/>
                </g>
                <g id="dirArrow">
                        <path fill="none" stroke="white" stroke-width="1.5" d="M0,-3.0v7 M-2.5,-0.5L0,-3.0L2.5,-0.5"/>
                </g>
               <g id="resetDef">
                       <use xlink:href="#rim2" fill="#404040">
                               <set attributeName="fill" to="#808080" begin="reset.mouseover" end="reset.mouseout"/>
                       </use>
               </g>
        </defs>

<script type="text/javascript">
var viewWidth = 4922;
var viewHeight = 117;
var sectionId = 'dynsection-1';
</script>
<script xlink:href="svgpan.js"/>
<svg id="graph" class="graph">
<g id="viewport">
<title>/github/workspace/linalg/eigen/fcarouge/linalg.hpp</title>
<polygon fill="white" stroke="transparent" points="-4,4 -4,-113 4917.5,-113 4917.5,4 -4,4"/>
<!-- Node1 -->
<g id="node1" class="node">
<title>Node1</title>
<g id="a_node1"><a xlink:title="Linear algebra facade for Eigen3 third party implementation.">
<polygon fill="#bfbfbf" stroke="black" points="2506,-78.5 2506,-108.5 2633,-108.5 2633,-78.5 2506,-78.5"/>
<text text-anchor="start" x="2514" y="-96.5" font-family="Helvetica,sans-Serif" font-size="10.00">/github/workspace/linalg</text>
<text text-anchor="middle" x="2569.5" y="-85.5" font-family="Helvetica,sans-Serif" font-size="10.00">/eigen/fcarouge/linalg.hpp</text>
</a>
</g>
</g>
<!-- Node2 -->
<g id="node2" class="node">
<title>Node2</title>
<g id="a_node2"><a xlink:href="predict__linalg__x1x_8cpp.xhtml" target="_top" xlink:title=" ">
<polygon fill="white" stroke="black" points="0,-6 0,-36 147,-36 147,-6 0,-6"/>
<text text-anchor="start" x="8" y="-24" font-family="Helvetica,sans-Serif" font-size="10.00">/github/workspace/benchmark</text>
<text text-anchor="middle" x="73.5" y="-13" font-family="Helvetica,sans-Serif" font-size="10.00">/predict_linalg_x1x.cpp</text>
</a>
</g>
</g>
<!-- Node1&#45;&gt;Node2 -->
<g id="edge1" class="edge">
<title>Node1&#45;&gt;Node2</title>
<path fill="none" stroke="midnightblue" d="M2495.76,-91.92C2116.27,-88.78 392.02,-72.94 155.5,-42 145.04,-40.63 133.98,-38.45 123.48,-36.02"/>
<polygon fill="midnightblue" stroke="midnightblue" points="2495.77,-95.42 2505.8,-92 2495.83,-88.42 2495.77,-95.42"/>
</g>
<!-- Node3 -->
<g id="node3" class="node">
<title>Node3</title>
<g id="a_node3"><a xlink:href="update__linalg__xx0_8cpp.xhtml" target="_top" xlink:title=" ">
<polygon fill="white" stroke="black" points="165,-6 165,-36 312,-36 312,-6 165,-6"/>
<text text-anchor="start" x="173" y="-24" font-family="Helvetica,sans-Serif" font-size="10.00">/github/workspace/benchmark</text>
<text text-anchor="middle" x="238.5" y="-13" font-family="Helvetica,sans-Serif" font-size="10.00">/update_linalg_xx0.cpp</text>
</a>
</g>
</g>
<!-- Node1&#45;&gt;Node3 -->
<g id="edge2" class="edge">
<title>Node1&#45;&gt;Node3</title>
<path fill="none" stroke="midnightblue" d="M2495.57,-91.79C2131.71,-88.18 539.77,-70.85 320.5,-42 310.04,-40.62 298.98,-38.44 288.48,-36.01"/>
<polygon fill="midnightblue" stroke="midnightblue" points="2495.69,-95.29 2505.72,-91.89 2495.76,-88.29 2495.69,-95.29"/>
</g>
<!-- Node4 -->
<g id="node4" class="node">
<title>Node4</title>
<g id="a_node4"><a xlink:href="ekf__4x1x0__soaring_8cpp.xhtml" target="_top" xlink:title=" ">
<polygon fill="white" stroke="black" points="330,-6 330,-36 461,-36 461,-6 330,-6"/>
<text text-anchor="start" x="338" y="-24" font-family="Helvetica,sans-Serif" font-size="10.00">/github/workspace/sample</text>
<text text-anchor="middle" x="395.5" y="-13" font-family="Helvetica,sans-Serif" font-size="10.00">/ekf_4x1x0_soaring.cpp</text>
</a>
</g>
</g>
<!-- Node1&#45;&gt;Node4 -->
<g id="edge3" class="edge">
<title>Node1&#45;&gt;Node4</title>
<path fill="none" stroke="midnightblue" d="M2495.7,-91.78C2147.01,-88.21 672.94,-71.5 469.5,-42 460.02,-40.62 450.02,-38.44 440.54,-36.01"/>
<polygon fill="midnightblue" stroke="midnightblue" points="2495.9,-95.28 2505.93,-91.88 2495.97,-88.28 2495.9,-95.28"/>
</g>
<!-- Node5 -->
<g id="node5" class="node">
<title>Node5</title>
<g id="a_node5"><a xlink:href="kf__2x1x1__rocket__altitude_8cpp.xhtml" target="_top" xlink:title=" ">
<polygon fill="white" stroke="black" points="479,-6 479,-36 624,-36 624,-6 479,-6"/>
<text text-anchor="start" x="487" y="-24" font-family="Helvetica,sans-Serif" font-size="10.00">/github/workspace/sample</text>
<text text-anchor="middle" x="551.5" y="-13" font-family="Helvetica,sans-Serif" font-size="10.00">/kf_2x1x1_rocket_altitude.cpp</text>
</a>
</g>
</g>
<!-- Node1&#45;&gt;Node5 -->
<g id="edge4" class="edge">
<title>Node1&#45;&gt;Node5</title>
<path fill="none" stroke="midnightblue" d="M2495.57,-92.71C2187.22,-93.23 1002.52,-91.91 632.5,-42 622.31,-40.63 611.54,-38.47 601.3,-36.08"/>
<polygon fill="midnightblue" stroke="midnightblue" points="2495.74,-96.21 2505.73,-92.69 2495.73,-89.21 2495.74,-96.21"/>
</g>
<!-- Node6 -->
<g id="node6" class="node">
<title>Node6</title>
<g id="a_node6"><a xlink:href="kf__6x2x0__vehicle__location_8cpp.xhtml" target="_top" xlink:title=" ">
<polygon fill="white" stroke="black" points="642,-6 642,-36 793,-36 793,-6 642,-6"/>
<text text-anchor="start" x="650" y="-24" font-family="Helvetica,sans-Serif" font-size="10.00">/github/workspace/sample</text>
<text text-anchor="middle" x="717.5" y="-13" font-family="Helvetica,sans-Serif" font-size="10.00">/kf_6x2x0_vehicle_location.cpp</text>
</a>
</g>
</g>
<!-- Node1&#45;&gt;Node6 -->
<g id="edge5" class="edge">
<title>Node1&#45;&gt;Node6</title>
<path fill="none" stroke="midnightblue" d="M2495.89,-92.38C2205.37,-91.61 1137.83,-85.78 802.5,-42 791.83,-40.61 780.54,-38.45 769.79,-36.05"/>
<polygon fill="midnightblue" stroke="midnightblue" points="2495.89,-95.88 2505.9,-92.41 2495.91,-88.88 2495.89,-95.88"/>
</g>
<!-- Node7 -->
<g id="node7" class="node">
<title>Node7</title>
<g id="a_node7"><a xlink:href="kf__8x4x0__deep__sort__bounding__box_8cpp.xhtml" target="_top" xlink:title=" ">
<polygon fill="white" stroke="black" points="811.5,-0.5 811.5,-41.5 961.5,-41.5 961.5,-0.5 811.5,-0.5"/>
<text text-anchor="start" x="819.5" y="-29.5" font-family="Helvetica,sans-Serif" font-size="10.00">/github/workspace/sample</text>
<text text-anchor="start" x="819.5" y="-18.5" font-family="Helvetica,sans-Serif" font-size="10.00">/kf_8x4x0_deep_sort_bounding</text>
<text text-anchor="middle" x="886.5" y="-7.5" font-family="Helvetica,sans-Serif" font-size="10.00">_box.cpp</text>
</a>
</g>
</g>
<!-- Node1&#45;&gt;Node7 -->
<g id="edge6" class="edge">
<title>Node1&#45;&gt;Node7</title>
<path fill="none" stroke="midnightblue" d="M2495.76,-92.15C2222.96,-90.54 1271.19,-82.12 970.5,-42 967.68,-41.62 964.81,-41.19 961.92,-40.72"/>
<polygon fill="midnightblue" stroke="midnightblue" points="2495.92,-95.65 2505.94,-92.21 2495.96,-88.65 2495.92,-95.65"/>
</g>
<!-- Node8 -->
<g id="node8" class="node">
<title>Node8</title>
<g id="a_node8"><a xlink:href="kalman__constructor__default__1x1x3_8cpp.xhtml" target="_top" xlink:title=" ">
<polygon fill="white" stroke="black" points="979.5,-0.5 979.5,-41.5 1119.5,-41.5 1119.5,-0.5 979.5,-0.5"/>
<text text-anchor="start" x="987.5" y="-29.5" font-family="Helvetica,sans-Serif" font-size="10.00">/github/workspace/test</text>
<text text-anchor="start" x="987.5" y="-18.5" font-family="Helvetica,sans-Serif" font-size="10.00">/kalman_constructor_default</text>
<text text-anchor="middle" x="1049.5" y="-7.5" font-family="Helvetica,sans-Serif" font-size="10.00">_1x1x3.cpp</text>
</a>
</g>
</g>
<!-- Node1&#45;&gt;Node8 -->
<g id="edge7" class="edge">
<title>Node1&#45;&gt;Node8</title>
<path fill="none" stroke="midnightblue" d="M2495.45,-91.99C2239.98,-89.89 1396.46,-80.17 1128.5,-42 1125.56,-41.58 1122.57,-41.1 1119.56,-40.56"/>
<polygon fill="midnightblue" stroke="midnightblue" points="2495.71,-95.49 2505.73,-92.07 2495.76,-88.49 2495.71,-95.49"/>
</g>
<!-- Node9 -->
<g id="node9" class="node">
<title>Node9</title>
<g id="a_node9"><a xlink:href="kalman__constructor__default__1x4x1_8cpp.xhtml" target="_top" xlink:title=" ">
<polygon fill="white" stroke="black" points="1137.5,-0.5 1137.5,-41.5 1277.5,-41.5 1277.5,-0.5 1137.5,-0.5"/>
<text text-anchor="start" x="1145.5" y="-29.5" font-family="Helvetica,sans-Serif" font-size="10.00">/github/workspace/test</text>
<text text-anchor="start" x="1145.5" y="-18.5" font-family="Helvetica,sans-Serif" font-size="10.00">/kalman_constructor_default</text>
<text text-anchor="middle" x="1207.5" y="-7.5" font-family="Helvetica,sans-Serif" font-size="10.00">_1x4x1.cpp</text>
</a>
</g>
</g>
<!-- Node1&#45;&gt;Node9 -->
<g id="edge8" class="edge">
<title>Node1&#45;&gt;Node9</title>
<path fill="none" stroke="midnightblue" d="M2495.7,-91.62C2259.28,-88.47 1522.37,-76.12 1286.5,-42 1283.56,-41.57 1280.57,-41.08 1277.56,-40.54"/>
<polygon fill="midnightblue" stroke="midnightblue" points="2495.86,-95.12 2505.91,-91.75 2495.96,-88.12 2495.86,-95.12"/>
</g>
<!-- Node10 -->
<g id="node10" class="node">
<title>Node10</title>
<g id="a_node10"><a xlink:href="kalman__constructor__default__1x4x3_8cpp.xhtml" target="_top" xlink:title=" ">
<polygon fill="white" stroke="black" points="1295.5,-0.5 1295.5,-41.5 1435.5,-41.5 1435.5,-0.5 1295.5,-0.5"/>
<text text-anchor="start" x="1303.5" y="-29.5" font-family="Helvetica,sans-Serif" font-size="10.00">/github/workspace/test</text>
<text text-anchor="start" x="1303.5" y="-18.5" font-family="Helvetica,sans-Serif" font-size="10.00">/kalman_constructor_default</text>
<text text-anchor="middle" x="1365.5" y="-7.5" font-family="Helvetica,sans-Serif" font-size="10.00">_1x4x3.cpp</text>
</a>
</g>
</g>
<!-- Node1&#45;&gt;Node10 -->
<g id="edge9" class="edge">
<title>Node1&#45;&gt;Node10</title>
<path fill="none" stroke="midnightblue" d="M2495.35,-91.14C2278.54,-86.84 1648.24,-72.04 1444.5,-42 1441.56,-41.57 1438.57,-41.07 1435.56,-40.52"/>
<polygon fill="midnightblue" stroke="midnightblue" points="2495.6,-94.64 2505.67,-91.34 2495.74,-87.64 2495.6,-94.64"/>
</g>
<!-- Node11 -->
<g id="node11" class="node">
<title>Node11</title>
<g id="a_node11"><a xlink:href="kalman__constructor__default__5x1x1_8cpp.xhtml" target="_top" xlink:title=" ">
<polygon fill="white" stroke="black" points="1453.5,-0.5 1453.5,-41.5 1593.5,-41.5 1593.5,-0.5 1453.5,-0.5"/>
<text text-anchor="start" x="1461.5" y="-29.5" font-family="Helvetica,sans-Serif" font-size="10.00">/github/workspace/test</text>
<text text-anchor="start" x="1461.5" y="-18.5" font-family="Helvetica,sans-Serif" font-size="10.00">/kalman_constructor_default</text>
<text text-anchor="middle" x="1523.5" y="-7.5" font-family="Helvetica,sans-Serif" font-size="10.00">_5x1x1.cpp</text>
</a>
</g>
</g>
<!-- Node1&#45;&gt;Node11 -->
<g id="edge10" class="edge">
<title>Node1&#45;&gt;Node11</title>
<path fill="none" stroke="midnightblue" d="M2495.82,-90.52C2300.84,-84.98 1774.58,-68.02 1602.5,-42 1599.56,-41.56 1596.57,-41.05 1593.57,-40.5"/>
<polygon fill="midnightblue" stroke="midnightblue" points="2495.87,-94.02 2505.96,-90.81 2496.06,-87.03 2495.87,-94.02"/>
</g>
<!-- Node12 -->
<g id="node12" class="node">
<title>Node12</title>
<g id="a_node12"><a xlink:href="kalman__constructor__default__5x1x3_8cpp.xhtml" target="_top" xlink:title=" ">
<polygon fill="white" stroke="black" points="1611.5,-0.5 1611.5,-41.5 1751.5,-41.5 1751.5,-0.5 1611.5,-0.5"/>
<text text-anchor="start" x="1619.5" y="-29.5" font-family="Helvetica,sans-Serif" font-size="10.00">/github/workspace/test</text>
<text text-anchor="start" x="1619.5" y="-18.5" font-family="Helvetica,sans-Serif" font-size="10.00">/kalman_constructor_default</text>
<text text-anchor="middle" x="1681.5" y="-7.5" font-family="Helvetica,sans-Serif" font-size="10.00">_5x1x3.cpp</text>
</a>
</g>
</g>
<!-- Node1&#45;&gt;Node12 -->
<g id="edge11" class="edge">
<title>Node1&#45;&gt;Node12</title>
<path fill="none" stroke="midnightblue" d="M2495.48,-92.46C2352.53,-91.36 2028.9,-83.98 1760.5,-42 1757.56,-41.54 1754.58,-41.02 1751.57,-40.46"/>
<polygon fill="midnightblue" stroke="midnightblue" points="2495.85,-95.96 2505.87,-92.53 2495.89,-88.96 2495.85,-95.96"/>
</g>
<!-- Node13 -->
<g id="node13" class="node">
<title>Node13</title>
<g id="a_node13"><a xlink:href="kalman__constructor__default__5x4x0_8cpp.xhtml" target="_top" xlink:title=" ">
<polygon fill="white" stroke="black" points="1769.5,-0.5 1769.5,-41.5 1909.5,-41.5 1909.5,-0.5 1769.5,-0.5"/>
<text text-anchor="start" x="1777.5" y="-29.5" font-family="Helvetica,sans-Serif" font-size="10.00">/github/workspace/test</text>
<text text-anchor="start" x="1777.5" y="-18.5" font-family="Helvetica,sans-Serif" font-size="10.00">/kalman_constructor_default</text>
<text text-anchor="middle" x="1839.5" y="-7.5" font-family="Helvetica,sans-Serif" font-size="10.00">_5x4x0.cpp</text>
</a>
</g>
</g>
<!-- Node1&#45;&gt;Node13 -->
<g id="edge12" class="edge">
<title>Node1&#45;&gt;Node13</title>
<path fill="none" stroke="midnightblue" d="M2495.49,-90.86C2374.2,-87.26 2125.84,-76.03 1918.5,-42 1915.57,-41.52 1912.59,-40.98 1909.58,-40.4"/>
<polygon fill="midnightblue" stroke="midnightblue" points="2495.67,-94.37 2505.77,-91.16 2495.87,-87.37 2495.67,-94.37"/>
</g>
<!-- Node14 -->
<g id="node14" class="node">
<title>Node14</title>
<g id="a_node14"><a xlink:href="kalman__constructor__default__5x4x1_8cpp.xhtml" target="_top" xlink:title=" ">
<polygon fill="white" stroke="black" points="1927.5,-0.5 1927.5,-41.5 2067.5,-41.5 2067.5,-0.5 1927.5,-0.5"/>
<text text-anchor="start" x="1935.5" y="-29.5" font-family="Helvetica,sans-Serif" font-size="10.00">/github/workspace/test</text>
<text text-anchor="start" x="1935.5" y="-18.5" font-family="Helvetica,sans-Serif" font-size="10.00">/kalman_constructor_default</text>
<text text-anchor="middle" x="1997.5" y="-7.5" font-family="Helvetica,sans-Serif" font-size="10.00">_5x4x1.cpp</text>
</a>
</g>
</g>
<!-- Node1&#45;&gt;Node14 -->
<g id="edge13" class="edge">
<title>Node1&#45;&gt;Node14</title>
<path fill="none" stroke="midnightblue" d="M2495.68,-88.31C2398.87,-82.04 2223.99,-68.08 2076.5,-42 2073.57,-41.48 2070.6,-40.92 2067.6,-40.31"/>
<polygon fill="midnightblue" stroke="midnightblue" points="2495.46,-91.8 2505.66,-88.94 2495.91,-84.82 2495.46,-91.8"/>
</g>
<!-- Node15 -->
<g id="node15" class="node">
<title>Node15</title>
<g id="a_node15"><a xlink:href="kalman__constructor__default__5x4x3_8cpp.xhtml" target="_top" xlink:title=" ">
<polygon fill="white" stroke="black" points="2085.5,-0.5 2085.5,-41.5 2225.5,-41.5 2225.5,-0.5 2085.5,-0.5"/>
<text text-anchor="start" x="2093.5" y="-29.5" font-family="Helvetica,sans-Serif" font-size="10.00">/github/workspace/test</text>
<text text-anchor="start" x="2093.5" y="-18.5" font-family="Helvetica,sans-Serif" font-size="10.00">/kalman_constructor_default</text>
<text text-anchor="middle" x="2155.5" y="-7.5" font-family="Helvetica,sans-Serif" font-size="10.00">_5x4x3.cpp</text>
</a>
</g>
</g>
<!-- Node1&#45;&gt;Node15 -->
<g id="edge14" class="edge">
<title>Node1&#45;&gt;Node15</title>
<path fill="none" stroke="midnightblue" d="M2495.69,-83.49C2427.56,-74.68 2323.76,-59.98 2234.5,-42 2231.59,-41.41 2228.62,-40.79 2225.63,-40.14"/>
<polygon fill="midnightblue" stroke="midnightblue" points="2495.52,-87 2505.89,-84.8 2496.41,-80.06 2495.52,-87"/>
</g>
<!-- Node16 -->
<g id="node16" class="node">
<title>Node16</title>
<g id="a_node16"><a xlink:href="kalman__f__5x4x3_8cpp.xhtml" target="_top" xlink:title=" ">
<polygon fill="white" stroke="black" points="2243.5,-6 2243.5,-36 2359.5,-36 2359.5,-6 2243.5,-6"/>
<text text-anchor="start" x="2251.5" y="-24" font-family="Helvetica,sans-Serif" font-size="10.00">/github/workspace/test</text>
<text text-anchor="middle" x="2301.5" y="-13" font-family="Helvetica,sans-Serif" font-size="10.00">/kalman_f_5x4x3.cpp</text>
</a>
</g>
</g>
<!-- Node1&#45;&gt;Node16 -->
<g id="edge15" class="edge">
<title>Node1&#45;&gt;Node16</title>
<path fill="none" stroke="midnightblue" d="M2500.67,-76C2461.76,-66.47 2412.29,-54.03 2368.5,-42 2361.71,-40.13 2354.56,-38.09 2347.56,-36.04"/>
<polygon fill="midnightblue" stroke="midnightblue" points="2500.29,-79.51 2510.83,-78.48 2501.95,-72.71 2500.29,-79.51"/>
</g>
<!-- Node17 -->
<g id="node17" class="node">
<title>Node17</title>
<g id="a_node17"><a xlink:href="kalman__h__5x4x3_8cpp.xhtml" target="_top" xlink:title=" ">
<polygon fill="white" stroke="black" points="2377.5,-6 2377.5,-36 2493.5,-36 2493.5,-6 2377.5,-6"/>
<text text-anchor="start" x="2385.5" y="-24" font-family="Helvetica,sans-Serif" font-size="10.00">/github/workspace/test</text>
<text text-anchor="middle" x="2435.5" y="-13" font-family="Helvetica,sans-Serif" font-size="10.00">/kalman_h_5x4x3.cpp</text>
</a>
</g>
</g>
<!-- Node1&#45;&gt;Node17 -->
<g id="edge16" class="edge">
<title>Node1&#45;&gt;Node17</title>
<path fill="none" stroke="midnightblue" d="M2533.8,-73.72C2511.32,-61.89 2482.78,-46.87 2462.25,-36.07"/>
<polygon fill="midnightblue" stroke="midnightblue" points="2532.23,-76.84 2542.71,-78.4 2535.48,-70.65 2532.23,-76.84"/>
</g>
<!-- Node18 -->
<g id="node18" class="node">
<title>Node18</title>
<g id="a_node18"><a xlink:href="linalg__addition_8cpp.xhtml" target="_top" xlink:title=" ">
<polygon fill="white" stroke="black" points="2511.5,-6 2511.5,-36 2627.5,-36 2627.5,-6 2511.5,-6"/>
<text text-anchor="start" x="2519.5" y="-24" font-family="Helvetica,sans-Serif" font-size="10.00">/github/workspace/test</text>
<text text-anchor="middle" x="2569.5" y="-13" font-family="Helvetica,sans-Serif" font-size="10.00">/linalg_addition.cpp</text>
</a>
</g>
</g>
<!-- Node1&#45;&gt;Node18 -->
<g id="edge17" class="edge">
<title>Node1&#45;&gt;Node18</title>
<path fill="none" stroke="midnightblue" d="M2569.5,-68.23C2569.5,-57.57 2569.5,-45.41 2569.5,-36.25"/>
<polygon fill="midnightblue" stroke="midnightblue" points="2566,-68.23 2569.5,-78.23 2573,-68.23 2566,-68.23"/>
</g>
<!-- Node19 -->
<g id="node19" class="node">
<title>Node19</title>
<g id="a_node19"><a xlink:href="linalg__assign_8cpp.xhtml" target="_top" xlink:title=" ">
<polygon fill="white" stroke="black" points="2645.5,-6 2645.5,-36 2761.5,-36 2761.5,-6 2645.5,-6"/>
<text text-anchor="start" x="2653.5" y="-24" font-family="Helvetica,sans-Serif" font-size="10.00">/github/workspace/test</text>
<text text-anchor="middle" x="2703.5" y="-13" font-family="Helvetica,sans-Serif" font-size="10.00">/linalg_assign.cpp</text>
</a>
</g>
</g>
<!-- Node1&#45;&gt;Node19 -->
<g id="edge18" class="edge">
<title>Node1&#45;&gt;Node19</title>
<path fill="none" stroke="midnightblue" d="M2605.2,-73.72C2627.68,-61.89 2656.22,-46.87 2676.75,-36.07"/>
<polygon fill="midnightblue" stroke="midnightblue" points="2603.52,-70.65 2596.29,-78.4 2606.77,-76.84 2603.52,-70.65"/>
</g>
<!-- Node20 -->
<g id="node20" class="node">
<title>Node20</title>
<g id="a_node20"><a xlink:href="linalg__constructor__1x1_8cpp.xhtml" target="_top" xlink:title=" ">
<polygon fill="white" stroke="black" points="2779.5,-6 2779.5,-36 2913.5,-36 2913.5,-6 2779.5,-6"/>
<text text-anchor="start" x="2787.5" y="-24" font-family="Helvetica,sans-Serif" font-size="10.00">/github/workspace/test</text>
<text text-anchor="middle" x="2846.5" y="-13" font-family="Helvetica,sans-Serif" font-size="10.00">/linalg_constructor_1x1.cpp</text>
</a>
</g>
</g>
<!-- Node1&#45;&gt;Node20 -->
<g id="edge19" class="edge">
<title>Node1&#45;&gt;Node20</title>
<path fill="none" stroke="midnightblue" d="M2636,-75.99C2675.17,-66.22 2725.69,-53.53 2770.5,-42 2777.9,-40.1 2785.7,-38.07 2793.37,-36.06"/>
<polygon fill="midnightblue" stroke="midnightblue" points="2635.15,-72.6 2626.29,-78.41 2636.84,-79.39 2635.15,-72.6"/>
</g>
<!-- Node21 -->
<g id="node21" class="node">
<title>Node21</title>
<g id="a_node21"><a xlink:href="linalg__constructor__1x1__array_8cpp.xhtml" target="_top" xlink:title=" ">
<polygon fill="white" stroke="black" points="2931.5,-0.5 2931.5,-41.5 3047.5,-41.5 3047.5,-0.5 2931.5,-0.5"/>
<text text-anchor="start" x="2939.5" y="-29.5" font-family="Helvetica,sans-Serif" font-size="10.00">/github/workspace/test</text>
<text text-anchor="start" x="2939.5" y="-18.5" font-family="Helvetica,sans-Serif" font-size="10.00">/linalg_constructor_1x1</text>
<text text-anchor="middle" x="2989.5" y="-7.5" font-family="Helvetica,sans-Serif" font-size="10.00">_array.cpp</text>
</a>
</g>
</g>
<!-- Node1&#45;&gt;Node21 -->
<g id="edge20" class="edge">
<title>Node1&#45;&gt;Node21</title>
<path fill="none" stroke="midnightblue" d="M2643.43,-85.15C2715.25,-77.25 2827.12,-62.94 2922.5,-42 2925.35,-41.38 2928.25,-40.69 2931.17,-39.97"/>
<polygon fill="midnightblue" stroke="midnightblue" points="2642.7,-81.71 2633.14,-86.27 2643.45,-88.66 2642.7,-81.71"/>
</g>
<!-- Node22 -->
<g id="node22" class="node">
<title>Node22</title>
<g id="a_node22"><a xlink:href="linalg__constructor__1xn_8cpp.xhtml" target="_top" xlink:title=" ">
<polygon fill="white" stroke="black" points="3065.5,-6 3065.5,-36 3199.5,-36 3199.5,-6 3065.5,-6"/>
<text text-anchor="start" x="3073.5" y="-24" font-family="Helvetica,sans-Serif" font-size="10.00">/github/workspace/test</text>
<text text-anchor="middle" x="3132.5" y="-13" font-family="Helvetica,sans-Serif" font-size="10.00">/linalg_constructor_1xn.cpp</text>
</a>
</g>
</g>
<!-- Node1&#45;&gt;Node22 -->
<g id="edge21" class="edge">
<title>Node1&#45;&gt;Node22</title>
<path fill="none" stroke="midnightblue" d="M2643.54,-88.38C2739.43,-82.23 2911.47,-68.44 3056.5,-42 3065.36,-40.38 3074.7,-38.27 3083.69,-36.03"/>
<polygon fill="midnightblue" stroke="midnightblue" points="2643.13,-84.9 2633.37,-89.02 2643.57,-91.89 2643.13,-84.9"/>
</g>
<!-- Node23 -->
<g id="node23" class="node">
<title>Node23</title>
<g id="a_node23"><a xlink:href="linalg__constructor__1xn__array_8cpp.xhtml" target="_top" xlink:title=" ">
<polygon fill="white" stroke="black" points="3217.5,-0.5 3217.5,-41.5 3333.5,-41.5 3333.5,-0.5 3217.5,-0.5"/>
<text text-anchor="start" x="3225.5" y="-29.5" font-family="Helvetica,sans-Serif" font-size="10.00">/github/workspace/test</text>
<text text-anchor="start" x="3225.5" y="-18.5" font-family="Helvetica,sans-Serif" font-size="10.00">/linalg_constructor_1xn</text>
<text text-anchor="middle" x="3275.5" y="-7.5" font-family="Helvetica,sans-Serif" font-size="10.00">_array.cpp</text>
</a>
</g>
</g>
<!-- Node1&#45;&gt;Node23 -->
<g id="edge22" class="edge">
<title>Node1&#45;&gt;Node23</title>
<path fill="none" stroke="midnightblue" d="M2643.26,-91.71C2762.9,-89.31 3006.27,-79.74 3208.5,-42 3211.36,-41.47 3214.28,-40.86 3217.21,-40.19"/>
<polygon fill="midnightblue" stroke="midnightblue" points="2643.05,-88.21 2633.12,-91.9 2643.18,-95.21 2643.05,-88.21"/>
</g>
<!-- Node24 -->
<g id="node24" class="node">
<title>Node24</title>
<g id="a_node24"><a xlink:href="linalg__constructor__initializer__lists_8cpp.xhtml" target="_top" xlink:title=" ">
<polygon fill="white" stroke="black" points="3352,-0.5 3352,-41.5 3491,-41.5 3491,-0.5 3352,-0.5"/>
<text text-anchor="start" x="3360" y="-29.5" font-family="Helvetica,sans-Serif" font-size="10.00">/github/workspace/test</text>
<text text-anchor="start" x="3360" y="-18.5" font-family="Helvetica,sans-Serif" font-size="10.00">/linalg_constructor_initializer</text>
<text text-anchor="middle" x="3421.5" y="-7.5" font-family="Helvetica,sans-Serif" font-size="10.00">_lists.cpp</text>
</a>
</g>
</g>
<!-- Node1&#45;&gt;Node24 -->
<g id="edge23" class="edge">
<title>Node1&#45;&gt;Node24</title>
<path fill="none" stroke="midnightblue" d="M2643.1,-92.15C2781.11,-90.52 3087.84,-82.21 3342.5,-42 3345.57,-41.51 3348.7,-40.96 3351.86,-40.37"/>
<polygon fill="midnightblue" stroke="midnightblue" points="2643.02,-88.65 2633.06,-92.26 2643.1,-95.65 2643.02,-88.65"/>
</g>
<!-- Node25 -->
<g id="node25" class="node">
<title>Node25</title>
<g id="a_node25"><a xlink:href="linalg__constructor__nx1_8cpp.xhtml" target="_top" xlink:title=" ">
<polygon fill="white" stroke="black" points="3509.5,-6 3509.5,-36 3643.5,-36 3643.5,-6 3509.5,-6"/>
<text text-anchor="start" x="3517.5" y="-24" font-family="Helvetica,sans-Serif" font-size="10.00">/github/workspace/test</text>
<text text-anchor="middle" x="3576.5" y="-13" font-family="Helvetica,sans-Serif" font-size="10.00">/linalg_constructor_nx1.cpp</text>
</a>
</g>
</g>
<!-- Node1&#45;&gt;Node25 -->
<g id="edge24" class="edge">
<title>Node1&#45;&gt;Node25</title>
<path fill="none" stroke="midnightblue" d="M2643.43,-90.43C2833.51,-84.8 3335.82,-67.86 3500.5,-42 3509.8,-40.54 3519.61,-38.41 3528.97,-36.09"/>
<polygon fill="midnightblue" stroke="midnightblue" points="2643.15,-86.94 2633.26,-90.73 2643.36,-93.93 2643.15,-86.94"/>
</g>
<!-- Node26 -->
<g id="node26" class="node">
<title>Node26</title>
<g id="a_node26"><a xlink:href="linalg__constructor__nx1__array_8cpp.xhtml" target="_top" xlink:title=" ">
<polygon fill="white" stroke="black" points="3661.5,-0.5 3661.5,-41.5 3777.5,-41.5 3777.5,-0.5 3661.5,-0.5"/>
<text text-anchor="start" x="3669.5" y="-29.5" font-family="Helvetica,sans-Serif" font-size="10.00">/github/workspace/test</text>
<text text-anchor="start" x="3669.5" y="-18.5" font-family="Helvetica,sans-Serif" font-size="10.00">/linalg_constructor_nx1</text>
<text text-anchor="middle" x="3719.5" y="-7.5" font-family="Helvetica,sans-Serif" font-size="10.00">_array.cpp</text>
</a>
</g>
</g>
<!-- Node1&#45;&gt;Node26 -->
<g id="edge25" class="edge">
<title>Node1&#45;&gt;Node26</title>
<path fill="none" stroke="midnightblue" d="M2643.15,-91.4C2854.08,-87.87 3457.72,-75.1 3652.5,-42 3655.37,-41.51 3658.29,-40.94 3661.23,-40.3"/>
<polygon fill="midnightblue" stroke="midnightblue" points="2643.05,-87.9 2633.11,-91.56 2643.17,-94.9 2643.05,-87.9"/>
</g>
<!-- Node27 -->
<g id="node27" class="node">
<title>Node27</title>
<g id="a_node27"><a xlink:href="linalg__copy_8cpp.xhtml" target="_top" xlink:title=" ">
<polygon fill="white" stroke="black" points="3795.5,-6 3795.5,-36 3911.5,-36 3911.5,-6 3795.5,-6"/>
<text text-anchor="start" x="3803.5" y="-24" font-family="Helvetica,sans-Serif" font-size="10.00">/github/workspace/test</text>
<text text-anchor="middle" x="3853.5" y="-13" font-family="Helvetica,sans-Serif" font-size="10.00">/linalg_copy.cpp</text>
</a>
</g>
</g>
<!-- Node1&#45;&gt;Node27 -->
<g id="edge26" class="edge">
<title>Node1&#45;&gt;Node27</title>
<path fill="none" stroke="midnightblue" d="M2643.43,-91.84C2871.94,-89.41 3564.79,-79.1 3786.5,-42 3795,-40.58 3803.94,-38.41 3812.42,-36.01"/>
<polygon fill="midnightblue" stroke="midnightblue" points="2643.19,-88.34 2633.23,-91.94 2643.27,-95.34 2643.19,-88.34"/>
</g>
<!-- Node28 -->
<g id="node28" class="node">
<title>Node28</title>
<g id="a_node28"><a xlink:href="linalg__identity_8cpp.xhtml" target="_top" xlink:title=" ">
<polygon fill="white" stroke="black" points="3929.5,-6 3929.5,-36 4045.5,-36 4045.5,-6 3929.5,-6"/>
<text text-anchor="start" x="3937.5" y="-24" font-family="Helvetica,sans-Serif" font-size="10.00">/github/workspace/test</text>
<text text-anchor="middle" x="3987.5" y="-13" font-family="Helvetica,sans-Serif" font-size="10.00">/linalg_identity.cpp</text>
</a>
</g>
</g>
<!-- Node1&#45;&gt;Node28 -->
<g id="edge27" class="edge">
<title>Node1&#45;&gt;Node28</title>
<path fill="none" stroke="midnightblue" d="M2643.5,-92.19C2888.48,-90.79 3671.66,-83.11 3920.5,-42 3929,-40.6 3937.94,-38.43 3946.42,-36.04"/>
<polygon fill="midnightblue" stroke="midnightblue" points="2643.26,-88.69 2633.28,-92.25 2643.3,-95.69 2643.26,-88.69"/>
</g>
<!-- Node29 -->
<g id="node29" class="node">
<title>Node29</title>
<g id="a_node29"><a xlink:href="linalg__identity__default_8cpp.xhtml" target="_top" xlink:title=" ">
<polygon fill="white" stroke="black" points="4064,-6 4064,-36 4195,-36 4195,-6 4064,-6"/>
<text text-anchor="start" x="4072" y="-24" font-family="Helvetica,sans-Serif" font-size="10.00">/github/workspace/test</text>
<text text-anchor="middle" x="4129.5" y="-13" font-family="Helvetica,sans-Serif" font-size="10.00">/linalg_identity_default.cpp</text>
</a>
</g>
</g>
<!-- Node1&#45;&gt;Node29 -->
<g id="edge28" class="edge">
<title>Node1&#45;&gt;Node29</title>
<path fill="none" stroke="midnightblue" d="M2643.2,-92.2C2903.33,-90.8 3777.67,-83.07 4054.5,-42 4063.96,-40.6 4073.95,-38.43 4083.43,-36.04"/>
<polygon fill="midnightblue" stroke="midnightblue" points="2643.09,-88.7 2633.11,-92.25 2643.13,-95.7 2643.09,-88.7"/>
</g>
<!-- Node30 -->
<g id="node30" class="node">
<title>Node30</title>
<g id="a_node30"><a xlink:href="linalg__multiplication__arithmetic_8cpp.xhtml" target="_top" xlink:title=" ">
<polygon fill="white" stroke="black" points="4213.5,-0.5 4213.5,-41.5 4329.5,-41.5 4329.5,-0.5 4213.5,-0.5"/>
<text text-anchor="start" x="4221.5" y="-29.5" font-family="Helvetica,sans-Serif" font-size="10.00">/github/workspace/test</text>
<text text-anchor="start" x="4221.5" y="-18.5" font-family="Helvetica,sans-Serif" font-size="10.00">/linalg_multiplication</text>
<text text-anchor="middle" x="4271.5" y="-7.5" font-family="Helvetica,sans-Serif" font-size="10.00">_arithmetic.cpp</text>
</a>
</g>
</g>
<!-- Node1&#45;&gt;Node30 -->
<g id="edge29" class="edge">
<title>Node1&#45;&gt;Node30</title>
<path fill="none" stroke="midnightblue" d="M2643.57,-92.76C2920.91,-93.32 3897.79,-91.65 4204.5,-42 4207.38,-41.53 4210.3,-40.98 4213.24,-40.36"/>
<polygon fill="midnightblue" stroke="midnightblue" points="2643.23,-89.26 2633.22,-92.73 2643.21,-96.26 2643.23,-89.26"/>
</g>
<!-- Node31 -->
<g id="node31" class="node">
<title>Node31</title>
<g id="a_node31"><a xlink:href="linalg__operator__bracket_8cpp.xhtml" target="_top" xlink:title=" ">
<polygon fill="white" stroke="black" points="4347.5,-6 4347.5,-36 4485.5,-36 4485.5,-6 4347.5,-6"/>
<text text-anchor="start" x="4355.5" y="-24" font-family="Helvetica,sans-Serif" font-size="10.00">/github/workspace/test</text>
<text text-anchor="middle" x="4416.5" y="-13" font-family="Helvetica,sans-Serif" font-size="10.00">/linalg_operator_bracket.cpp</text>
</a>
</g>
</g>
<!-- Node1&#45;&gt;Node31 -->
<g id="edge30" class="edge">
<title>Node1&#45;&gt;Node31</title>
<path fill="none" stroke="midnightblue" d="M2643.22,-92.58C2934.17,-92.55 4003.24,-89.17 4338.5,-42 4348.33,-40.62 4358.71,-38.46 4368.57,-36.07"/>
<polygon fill="midnightblue" stroke="midnightblue" points="2643.2,-89.08 2633.2,-92.58 2643.2,-96.08 2643.2,-89.08"/>
</g>
<!-- Node32 -->
<g id="node32" class="node">
<title>Node32</title>
<g id="a_node32"><a xlink:href="linalg__operator__equality_8cpp.xhtml" target="_top" xlink:title=" ">
<polygon fill="white" stroke="black" points="4504,-6 4504,-36 4643,-36 4643,-6 4504,-6"/>
<text text-anchor="start" x="4512" y="-24" font-family="Helvetica,sans-Serif" font-size="10.00">/github/workspace/test</text>
<text text-anchor="middle" x="4573.5" y="-13" font-family="Helvetica,sans-Serif" font-size="10.00">/linalg_operator_equality.cpp</text>
</a>
</g>
</g>
<!-- Node1&#45;&gt;Node32 -->
<g id="edge31" class="edge">
<title>Node1&#45;&gt;Node32</title>
<path fill="none" stroke="midnightblue" d="M2643.49,-92.75C2950.76,-93.45 4127.13,-92.68 4494.5,-42 4504.45,-40.63 4514.96,-38.48 4524.95,-36.09"/>
<polygon fill="midnightblue" stroke="midnightblue" points="2643.37,-89.25 2633.36,-92.73 2643.35,-96.25 2643.37,-89.25"/>
</g>
<!-- Node33 -->
<g id="node33" class="node">
<title>Node33</title>
<g id="a_node33"><a xlink:href="linalg__zero_8cpp.xhtml" target="_top" xlink:title=" ">
<polygon fill="white" stroke="black" points="4661.5,-6 4661.5,-36 4777.5,-36 4777.5,-6 4661.5,-6"/>
<text text-anchor="start" x="4669.5" y="-24" font-family="Helvetica,sans-Serif" font-size="10.00">/github/workspace/test</text>
<text text-anchor="middle" x="4719.5" y="-13" font-family="Helvetica,sans-Serif" font-size="10.00">/linalg_zero.cpp</text>
</a>
</g>
</g>
<!-- Node1&#45;&gt;Node33 -->
<g id="edge32" class="edge">
<title>Node1&#45;&gt;Node33</title>
<path fill="none" stroke="midnightblue" d="M2643.29,-91.87C2990.27,-88.77 4451.22,-73.9 4652.5,-42 4661.13,-40.63 4670.21,-38.45 4678.8,-36.02"/>
<polygon fill="midnightblue" stroke="midnightblue" points="2643.07,-88.37 2633.11,-91.96 2643.14,-95.37 2643.07,-88.37"/>
</g>
<!-- Node34 -->
<g id="node34" class="node">
<title>Node34</title>
<g id="a_node34"><a xlink:href="linalg__zero__default_8cpp.xhtml" target="_top" xlink:title=" ">
<polygon fill="white" stroke="black" points="4795.5,-6 4795.5,-36 4913.5,-36 4913.5,-6 4795.5,-6"/>
<text text-anchor="start" x="4803.5" y="-24" font-family="Helvetica,sans-Serif" font-size="10.00">/github/workspace/test</text>
<text text-anchor="middle" x="4854.5" y="-13" font-family="Helvetica,sans-Serif" font-size="10.00">/linalg_zero_default.cpp</text>
</a>
</g>
</g>
<!-- Node1&#45;&gt;Node34 -->
<g id="edge33" class="edge">
<title>Node1&#45;&gt;Node34</title>
<path fill="none" stroke="midnightblue" d="M2643.29,-91.97C3003.8,-89.24 4571.26,-75.5 4786.5,-42 4795.25,-40.64 4804.46,-38.46 4813.18,-36.03"/>
<polygon fill="midnightblue" stroke="midnightblue" points="2643.2,-88.47 2633.23,-92.05 2643.26,-95.47 2643.2,-88.47"/>
</g>
</g>
</svg>
        <g id="navigator" transform="translate(0 0)" fill="#404254">
                <rect fill="#f2f5e9" fill-opacity="0.5" stroke="#606060" stroke-width=".5" x="0" y="0" width="60" height="60"/>
                <use id="zoomplus" xlink:href="#zoomPlus" x="17" y="9" onmousedown="handleZoom(evt,'in')"/>
                <use id="zoomminus" xlink:href="#zoomMin" x="42" y="9" onmousedown="handleZoom(evt,'out')"/>
                <use id="reset" xlink:href="#resetDef" x="30" y="36" onmousedown="handleReset()"/>
                <g id="arrowUp" xlink:href="#dirArrow" transform="translate(30 24)" onmousedown="handlePan(0,-1)">
                  <use xlink:href="#rim" fill="#404040">
                        <set attributeName="fill" to="#808080" begin="arrowUp.mouseover" end="arrowUp.mouseout"/>
                  </use>
                  <path fill="none" stroke="white" stroke-width="1.5" d="M0,-3.0v7 M-2.5,-0.5L0,-3.0L2.5,-0.5"/>
                </g>
                <g id="arrowRight" xlink:href="#dirArrow" transform="rotate(90) translate(36 -43)" onmousedown="handlePan(1,0)">
                  <use xlink:href="#rim" fill="#404040">
                        <set attributeName="fill" to="#808080" begin="arrowRight.mouseover" end="arrowRight.mouseout"/>
                  </use>
                  <path fill="none" stroke="white" stroke-width="1.5" d="M0,-3.0v7 M-2.5,-0.5L0,-3.0L2.5,-0.5"/>
                </g>
                <g id="arrowDown" xlink:href="#dirArrow" transform="rotate(180) translate(-30 -48)" onmousedown="handlePan(0,1)">
                  <use xlink:href="#rim" fill="#404040">
                        <set attributeName="fill" to="#808080" begin="arrowDown.mouseover" end="arrowDown.mouseout"/>
                  </use>
                  <path fill="none" stroke="white" stroke-width="1.5" d="M0,-3.0v7 M-2.5,-0.5L0,-3.0L2.5,-0.5"/>
                </g>
                <g id="arrowLeft" xlink:href="#dirArrow" transform="rotate(270) translate(-36 17)" onmousedown="handlePan(-1,0)">
                  <use xlink:href="#rim" fill="#404040">
                        <set attributeName="fill" to="#808080" begin="arrowLeft.mouseover" end="arrowLeft.mouseout"/>
                  </use>
                  <path fill="none" stroke="white" stroke-width="1.5" d="M0,-3.0v7 M-2.5,-0.5L0,-3.0L2.5,-0.5"/>
                </g>
        </g>
        <svg viewBox="0 0 15 15" width="100%" height="30px" preserveAspectRatio="xMaxYMin meet">
         <g id="arrow_out" transform="scale(0.3 0.3)">
          <a xlink:href="linalg_8hpp__dep__incl_org.svg" target="_base">
           <rect id="button" ry="5" rx="5" y="6" x="6" height="38" width="38"
                fill="#f2f5e9" fill-opacity="0.5" stroke="#606060" stroke-width="1.0"/>
           <path id="arrow"
             d="M 11.500037,31.436501 C 11.940474,20.09759 22.043105,11.32322 32.158766,21.979434 L 37.068811,17.246167 C 37.068811,17.246167 37.088388,32 37.088388,32 L 22.160133,31.978069 C 22.160133,31.978069 26.997745,27.140456 26.997745,27.140456 C 18.528582,18.264221 13.291696,25.230495 11.500037,31.436501 z"
             style="fill:#404040;"/>
          </a>
         </g>
        </svg>
</svg>
