<?xml version="1.0" encoding="UTF-8" standalone="no"?>
<!DOCTYPE svg PUBLIC "-//W3C//DTD SVG 1.1//EN"
 "http://www.w3.org/Graphics/SVG/1.1/DTD/svg11.dtd">
<!-- Generated by graphviz version 3.0.0 (20221109.1736)
 -->
<!-- Title: /github/workspace/linalg/eigen/fcarouge/linalg.hpp Pages: 1 -->
<!--zoomable 117 -->
<svg id="main" version="1.1" xmlns="http://www.w3.org/2000/svg" xmlns:xlink="http://www.w3.org/1999/xlink" xml:space="preserve" onload="init(evt)">
<style type="text/css"><![CDATA[
.edge:hover path { stroke: red; }
.edge:hover polygon { stroke: red; fill: red; }
]]></style>
<script type="text/javascript"><![CDATA[
var edges = document.getElementsByTagName('g');
if (edges && edges.length) {
  for (var i=0;i<edges.length;i++) {
    if (edges[i].id.substr(0,4)=='edge') {
      edges[i].setAttribute('class','edge');
    }
  }
}
]]></script>
        <defs>
                <circle id="rim" cx="0" cy="0" r="7"/>
                <circle id="rim2" cx="0" cy="0" r="3.5"/>
                <g id="zoomPlus">
                        <use xlink:href="#rim" fill="#404040">
                                <set attributeName="fill" to="#808080" begin="zoomplus.mouseover" end="zoomplus.mouseout"/>
                        </use>
                        <path d="M-4,0h8M0,-4v8" fill="none" stroke="white" stroke-width="1.5" pointer-events="none"/>
                </g>
                <g id="zoomMin">
                        <use xlink:href="#rim" fill="#404040">
                                <set attributeName="fill" to="#808080" begin="zoomminus.mouseover" end="zoomminus.mouseout"/>
                        </use>
                        <path d="M-4,0h8" fill="none" stroke="white" stroke-width="1.5" pointer-events="none"/>
                </g>
                <g id="dirArrow">
                        <path fill="none" stroke="white" stroke-width="1.5" d="M0,-3.0v7 M-2.5,-0.5L0,-3.0L2.5,-0.5"/>
                </g>
               <g id="resetDef">
                       <use xlink:href="#rim2" fill="#404040">
                               <set attributeName="fill" to="#808080" begin="reset.mouseover" end="reset.mouseout"/>
                       </use>
               </g>
        </defs>

<script type="text/javascript">
var viewWidth = 3105;
var viewHeight = 117;
var sectionId = 'dynsection-1';
</script>
<script xlink:href="svgpan.js"/>
<svg id="graph" class="graph">
<g id="viewport">
<title>/github/workspace/linalg/eigen/fcarouge/linalg.hpp</title>
<polygon fill="white" stroke="transparent" points="-4,4 -4,-113 3100.5,-113 3100.5,4 -4,4"/>
<!-- Node1 -->
<g id="node1" class="node">
<title>Node1</title>
<g id="a_node1"><a xlink:title="Linear algebra facade for Eigen3 third party implementation.">
<polygon fill="#bfbfbf" stroke="black" points="1589,-78.5 1589,-108.5 1716,-108.5 1716,-78.5 1589,-78.5"/>
<text text-anchor="start" x="1597" y="-96.5" font-family="Helvetica,sans-Serif" font-size="10.00">/github/workspace/linalg</text>
<text text-anchor="middle" x="1652.5" y="-85.5" font-family="Helvetica,sans-Serif" font-size="10.00">/eigen/fcarouge/linalg.hpp</text>
</a>
</g>
</g>
<!-- Node2 -->
<g id="node2" class="node">
<title>Node2</title>
<g id="a_node2"><a xlink:href="predict__linalg__x1x_8cpp.xhtml" target="_top" xlink:title=" ">
<polygon fill="white" stroke="black" points="0,-6 0,-36 147,-36 147,-6 0,-6"/>
<text text-anchor="start" x="8" y="-24" font-family="Helvetica,sans-Serif" font-size="10.00">/github/workspace/benchmark</text>
<text text-anchor="middle" x="73.5" y="-13" font-family="Helvetica,sans-Serif" font-size="10.00">/predict_linalg_x1x.cpp</text>
</a>
</g>
</g>
<!-- Node1&#45;&gt;Node2 -->
<g id="edge1" class="edge">
<title>Node1&#45;&gt;Node2</title>
<path fill="none" stroke="midnightblue" d="M1578.68,-92.02C1317.1,-89.99 435.15,-80.4 155.5,-42 145.19,-40.58 134.3,-38.42 123.93,-36.02"/>
<polygon fill="midnightblue" stroke="midnightblue" points="1578.8,-95.52 1588.83,-92.09 1578.85,-88.52 1578.8,-95.52"/>
</g>
<!-- Node3 -->
<g id="node3" class="node">
<title>Node3</title>
<g id="a_node3"><a xlink:href="update__linalg__xx0_8cpp.xhtml" target="_top" xlink:title=" ">
<polygon fill="white" stroke="black" points="165,-6 165,-36 312,-36 312,-6 165,-6"/>
<text text-anchor="start" x="173" y="-24" font-family="Helvetica,sans-Serif" font-size="10.00">/github/workspace/benchmark</text>
<text text-anchor="middle" x="238.5" y="-13" font-family="Helvetica,sans-Serif" font-size="10.00">/update_linalg_xx0.cpp</text>
</a>
</g>
</g>
<!-- Node1&#45;&gt;Node3 -->
<g id="edge2" class="edge">
<title>Node1&#45;&gt;Node3</title>
<path fill="none" stroke="midnightblue" d="M1578.84,-91.63C1336.79,-88.47 567.37,-75.94 321.5,-42 311.22,-40.58 300.36,-38.44 290,-36.08"/>
<polygon fill="midnightblue" stroke="midnightblue" points="1578.9,-95.13 1588.94,-91.76 1578.99,-88.13 1578.9,-95.13"/>
</g>
<!-- Node4 -->
<g id="node4" class="node">
<title>Node4</title>
<g id="a_node4"><a xlink:href="kalman__constructor__default__1x1x3_8cpp.xhtml" target="_top" xlink:title=" ">
<polygon fill="white" stroke="black" points="330.5,-0.5 330.5,-41.5 470.5,-41.5 470.5,-0.5 330.5,-0.5"/>
<text text-anchor="start" x="338.5" y="-29.5" font-family="Helvetica,sans-Serif" font-size="10.00">/github/workspace/test</text>
<text text-anchor="start" x="338.5" y="-18.5" font-family="Helvetica,sans-Serif" font-size="10.00">/kalman_constructor_default</text>
<text text-anchor="middle" x="400.5" y="-7.5" font-family="Helvetica,sans-Serif" font-size="10.00">_1x1x3.cpp</text>
</a>
</g>
</g>
<!-- Node1&#45;&gt;Node4 -->
<g id="edge3" class="edge">
<title>Node1&#45;&gt;Node4</title>
<path fill="none" stroke="midnightblue" d="M1578.66,-91.3C1355.94,-87.37 693.04,-73.29 479.5,-42 476.56,-41.57 473.57,-41.07 470.56,-40.53"/>
<polygon fill="midnightblue" stroke="midnightblue" points="1578.87,-94.8 1588.93,-91.48 1578.99,-87.81 1578.87,-94.8"/>
</g>
<!-- Node5 -->
<g id="node5" class="node">
<title>Node5</title>
<g id="a_node5"><a xlink:href="kalman__constructor__default__1x4x1_8cpp.xhtml" target="_top" xlink:title=" ">
<polygon fill="white" stroke="black" points="488.5,-0.5 488.5,-41.5 628.5,-41.5 628.5,-0.5 488.5,-0.5"/>
<text text-anchor="start" x="496.5" y="-29.5" font-family="Helvetica,sans-Serif" font-size="10.00">/github/workspace/test</text>
<text text-anchor="start" x="496.5" y="-18.5" font-family="Helvetica,sans-Serif" font-size="10.00">/kalman_constructor_default</text>
<text text-anchor="middle" x="558.5" y="-7.5" font-family="Helvetica,sans-Serif" font-size="10.00">_1x4x1.cpp</text>
</a>
</g>
</g>
<!-- Node1&#45;&gt;Node5 -->
<g id="edge4" class="edge">
<title>Node1&#45;&gt;Node5</title>
<path fill="none" stroke="midnightblue" d="M1578.71,-90.73C1376.97,-85.58 819.18,-69.24 637.5,-42 634.56,-41.56 631.57,-41.06 628.56,-40.5"/>
<polygon fill="midnightblue" stroke="midnightblue" points="1578.82,-94.23 1588.91,-90.99 1579,-87.23 1578.82,-94.23"/>
</g>
<!-- Node6 -->
<g id="node6" class="node">
<title>Node6</title>
<g id="a_node6"><a xlink:href="kalman__constructor__default__1x4x3_8cpp.xhtml" target="_top" xlink:title=" ">
<polygon fill="white" stroke="black" points="646.5,-0.5 646.5,-41.5 786.5,-41.5 786.5,-0.5 646.5,-0.5"/>
<text text-anchor="start" x="654.5" y="-29.5" font-family="Helvetica,sans-Serif" font-size="10.00">/github/workspace/test</text>
<text text-anchor="start" x="654.5" y="-18.5" font-family="Helvetica,sans-Serif" font-size="10.00">/kalman_constructor_default</text>
<text text-anchor="middle" x="716.5" y="-7.5" font-family="Helvetica,sans-Serif" font-size="10.00">_1x4x3.cpp</text>
</a>
</g>
</g>
<!-- Node1&#45;&gt;Node6 -->
<g id="edge5" class="edge">
<title>Node1&#45;&gt;Node6</title>
<path fill="none" stroke="midnightblue" d="M1578.51,-92.83C1429.43,-92.46 1082.64,-86.4 795.5,-42 792.56,-41.55 789.58,-41.03 786.57,-40.47"/>
<polygon fill="midnightblue" stroke="midnightblue" points="1578.9,-96.33 1588.9,-92.85 1578.91,-89.33 1578.9,-96.33"/>
</g>
<!-- Node7 -->
<g id="node7" class="node">
<title>Node7</title>
<g id="a_node7"><a xlink:href="kalman__constructor__default__5x1x1_8cpp.xhtml" target="_top" xlink:title=" ">
<polygon fill="white" stroke="black" points="804.5,-0.5 804.5,-41.5 944.5,-41.5 944.5,-0.5 804.5,-0.5"/>
<text text-anchor="start" x="812.5" y="-29.5" font-family="Helvetica,sans-Serif" font-size="10.00">/github/workspace/test</text>
<text text-anchor="start" x="812.5" y="-18.5" font-family="Helvetica,sans-Serif" font-size="10.00">/kalman_constructor_default</text>
<text text-anchor="middle" x="874.5" y="-7.5" font-family="Helvetica,sans-Serif" font-size="10.00">_5x1x1.cpp</text>
</a>
</g>
</g>
<!-- Node1&#45;&gt;Node7 -->
<g id="edge6" class="edge">
<title>Node1&#45;&gt;Node7</title>
<path fill="none" stroke="midnightblue" d="M1578.86,-91.43C1450.89,-88.62 1179.5,-78.48 953.5,-42 950.57,-41.53 947.58,-41 944.58,-40.42"/>
<polygon fill="midnightblue" stroke="midnightblue" points="1578.86,-94.93 1588.94,-91.64 1579.01,-87.93 1578.86,-94.93"/>
</g>
<!-- Node8 -->
<g id="node8" class="node">
<title>Node8</title>
<g id="a_node8"><a xlink:href="kalman__constructor__default__5x1x3_8cpp.xhtml" target="_top" xlink:title=" ">
<polygon fill="white" stroke="black" points="962.5,-0.5 962.5,-41.5 1102.5,-41.5 1102.5,-0.5 962.5,-0.5"/>
<text text-anchor="start" x="970.5" y="-29.5" font-family="Helvetica,sans-Serif" font-size="10.00">/github/workspace/test</text>
<text text-anchor="start" x="970.5" y="-18.5" font-family="Helvetica,sans-Serif" font-size="10.00">/kalman_constructor_default</text>
<text text-anchor="middle" x="1032.5" y="-7.5" font-family="Helvetica,sans-Serif" font-size="10.00">_5x1x3.cpp</text>
</a>
</g>
</g>
<!-- Node1&#45;&gt;Node8 -->
<g id="edge7" class="edge">
<title>Node1&#45;&gt;Node8</title>
<path fill="none" stroke="midnightblue" d="M1578.64,-89.23C1474.04,-83.79 1277.04,-70.5 1111.5,-42 1108.57,-41.5 1105.59,-40.94 1102.59,-40.34"/>
<polygon fill="midnightblue" stroke="midnightblue" points="1578.62,-92.74 1588.78,-89.75 1578.97,-85.75 1578.62,-92.74"/>
</g>
<!-- Node9 -->
<g id="node9" class="node">
<title>Node9</title>
<g id="a_node9"><a xlink:href="kalman__constructor__default__5x4x0_8cpp.xhtml" target="_top" xlink:title=" ">
<polygon fill="white" stroke="black" points="1120.5,-0.5 1120.5,-41.5 1260.5,-41.5 1260.5,-0.5 1120.5,-0.5"/>
<text text-anchor="start" x="1128.5" y="-29.5" font-family="Helvetica,sans-Serif" font-size="10.00">/github/workspace/test</text>
<text text-anchor="start" x="1128.5" y="-18.5" font-family="Helvetica,sans-Serif" font-size="10.00">/kalman_constructor_default</text>
<text text-anchor="middle" x="1190.5" y="-7.5" font-family="Helvetica,sans-Serif" font-size="10.00">_5x4x0.cpp</text>
</a>
</g>
</g>
<!-- Node1&#45;&gt;Node9 -->
<g id="edge8" class="edge">
<title>Node1&#45;&gt;Node9</title>
<path fill="none" stroke="midnightblue" d="M1578.63,-85.35C1501.2,-77.25 1376.19,-62.47 1269.5,-42 1266.58,-41.44 1263.61,-40.84 1260.62,-40.2"/>
<polygon fill="midnightblue" stroke="midnightblue" points="1578.46,-88.85 1588.77,-86.4 1579.18,-81.89 1578.46,-88.85"/>
</g>
<!-- Node10 -->
<g id="node10" class="node">
<title>Node10</title>
<g id="a_node10"><a xlink:href="kalman__constructor__default__5x4x1_8cpp.xhtml" target="_top" xlink:title=" ">
<polygon fill="white" stroke="black" points="1278.5,-0.5 1278.5,-41.5 1418.5,-41.5 1418.5,-0.5 1278.5,-0.5"/>
<text text-anchor="start" x="1286.5" y="-29.5" font-family="Helvetica,sans-Serif" font-size="10.00">/github/workspace/test</text>
<text text-anchor="start" x="1286.5" y="-18.5" font-family="Helvetica,sans-Serif" font-size="10.00">/kalman_constructor_default</text>
<text text-anchor="middle" x="1348.5" y="-7.5" font-family="Helvetica,sans-Serif" font-size="10.00">_5x4x1.cpp</text>
</a>
</g>
</g>
<!-- Node1&#45;&gt;Node10 -->
<g id="edge9" class="edge">
<title>Node1&#45;&gt;Node10</title>
<path fill="none" stroke="midnightblue" d="M1578.83,-76.5C1534.84,-66.81 1477.9,-54.03 1427.5,-42 1424.61,-41.31 1421.66,-40.6 1418.69,-39.87"/>
<polygon fill="midnightblue" stroke="midnightblue" points="1578.35,-79.97 1588.87,-78.7 1579.85,-73.14 1578.35,-79.97"/>
</g>
<!-- Node11 -->
<g id="node11" class="node">
<title>Node11</title>
<g id="a_node11"><a xlink:href="kalman__constructor__default__5x4x3_8cpp.xhtml" target="_top" xlink:title=" ">
<polygon fill="white" stroke="black" points="1436.5,-0.5 1436.5,-41.5 1576.5,-41.5 1576.5,-0.5 1436.5,-0.5"/>
<text text-anchor="start" x="1444.5" y="-29.5" font-family="Helvetica,sans-Serif" font-size="10.00">/github/workspace/test</text>
<text text-anchor="start" x="1444.5" y="-18.5" font-family="Helvetica,sans-Serif" font-size="10.00">/kalman_constructor_default</text>
<text text-anchor="middle" x="1506.5" y="-7.5" font-family="Helvetica,sans-Serif" font-size="10.00">_5x4x3.cpp</text>
</a>
</g>
</g>
<!-- Node1&#45;&gt;Node11 -->
<g id="edge10" class="edge">
<title>Node1&#45;&gt;Node11</title>
<path fill="none" stroke="midnightblue" d="M1614.18,-74C1593.5,-64.01 1567.98,-51.69 1546.98,-41.55"/>
<polygon fill="midnightblue" stroke="midnightblue" points="1612.78,-77.21 1623.31,-78.4 1615.82,-70.9 1612.78,-77.21"/>
</g>
<!-- Node12 -->
<g id="node12" class="node">
<title>Node12</title>
<g id="a_node12"><a xlink:href="kalman__f__5x4x3_8cpp.xhtml" target="_top" xlink:title=" ">
<polygon fill="white" stroke="black" points="1594.5,-6 1594.5,-36 1710.5,-36 1710.5,-6 1594.5,-6"/>
<text text-anchor="start" x="1602.5" y="-24" font-family="Helvetica,sans-Serif" font-size="10.00">/github/workspace/test</text>
<text text-anchor="middle" x="1652.5" y="-13" font-family="Helvetica,sans-Serif" font-size="10.00">/kalman_f_5x4x3.cpp</text>
</a>
</g>
</g>
<!-- Node1&#45;&gt;Node12 -->
<g id="edge11" class="edge">
<title>Node1&#45;&gt;Node12</title>
<path fill="none" stroke="midnightblue" d="M1652.5,-68.23C1652.5,-57.57 1652.5,-45.41 1652.5,-36.25"/>
<polygon fill="midnightblue" stroke="midnightblue" points="1649,-68.23 1652.5,-78.23 1656,-68.23 1649,-68.23"/>
</g>
<!-- Node13 -->
<g id="node13" class="node">
<title>Node13</title>
<g id="a_node13"><a xlink:href="kalman__h__5x4x3_8cpp.xhtml" target="_top" xlink:title=" ">
<polygon fill="white" stroke="black" points="1728.5,-6 1728.5,-36 1844.5,-36 1844.5,-6 1728.5,-6"/>
<text text-anchor="start" x="1736.5" y="-24" font-family="Helvetica,sans-Serif" font-size="10.00">/github/workspace/test</text>
<text text-anchor="middle" x="1786.5" y="-13" font-family="Helvetica,sans-Serif" font-size="10.00">/kalman_h_5x4x3.cpp</text>
</a>
</g>
</g>
<!-- Node1&#45;&gt;Node13 -->
<g id="edge12" class="edge">
<title>Node1&#45;&gt;Node13</title>
<path fill="none" stroke="midnightblue" d="M1688.2,-73.72C1710.68,-61.89 1739.22,-46.87 1759.75,-36.07"/>
<polygon fill="midnightblue" stroke="midnightblue" points="1686.52,-70.65 1679.29,-78.4 1689.77,-76.84 1686.52,-70.65"/>
</g>
<!-- Node14 -->
<g id="node14" class="node">
<title>Node14</title>
<g id="a_node14"><a xlink:href="linalg__assign_8cpp.xhtml" target="_top" xlink:title=" ">
<polygon fill="white" stroke="black" points="1862.5,-6 1862.5,-36 1978.5,-36 1978.5,-6 1862.5,-6"/>
<text text-anchor="start" x="1870.5" y="-24" font-family="Helvetica,sans-Serif" font-size="10.00">/github/workspace/test</text>
<text text-anchor="middle" x="1920.5" y="-13" font-family="Helvetica,sans-Serif" font-size="10.00">/linalg_assign.cpp</text>
</a>
</g>
</g>
<!-- Node1&#45;&gt;Node14 -->
<g id="edge13" class="edge">
<title>Node1&#45;&gt;Node14</title>
<path fill="none" stroke="midnightblue" d="M1721.33,-76C1760.24,-66.47 1809.71,-54.03 1853.5,-42 1860.29,-40.13 1867.44,-38.09 1874.44,-36.04"/>
<polygon fill="midnightblue" stroke="midnightblue" points="1720.05,-72.71 1711.17,-78.48 1721.71,-79.51 1720.05,-72.71"/>
</g>
<!-- Node15 -->
<g id="node15" class="node">
<title>Node15</title>
<g id="a_node15"><a xlink:href="linalg__constructor_8cpp.xhtml" target="_top" xlink:title=" ">
<polygon fill="white" stroke="black" points="1996.5,-6 1996.5,-36 2112.5,-36 2112.5,-6 1996.5,-6"/>
<text text-anchor="start" x="2004.5" y="-24" font-family="Helvetica,sans-Serif" font-size="10.00">/github/workspace/test</text>
<text text-anchor="middle" x="2054.5" y="-13" font-family="Helvetica,sans-Serif" font-size="10.00">/linalg_constructor.cpp</text>
</a>
</g>
</g>
<!-- Node1&#45;&gt;Node15 -->
<g id="edge14" class="edge">
<title>Node1&#45;&gt;Node15</title>
<path fill="none" stroke="midnightblue" d="M1726.5,-84.37C1794.75,-76.16 1898.64,-61.86 1987.5,-42 1995.08,-40.31 2003.06,-38.21 2010.76,-36.02"/>
<polygon fill="midnightblue" stroke="midnightblue" points="1725.8,-80.93 1716.28,-85.59 1726.62,-87.88 1725.8,-80.93"/>
</g>
<!-- Node16 -->
<g id="node16" class="node">
<title>Node16</title>
<g id="a_node16"><a xlink:href="linalg__copy_8cpp.xhtml" target="_top" xlink:title=" ">
<polygon fill="white" stroke="black" points="2130.5,-6 2130.5,-36 2246.5,-36 2246.5,-6 2130.5,-6"/>
<text text-anchor="start" x="2138.5" y="-24" font-family="Helvetica,sans-Serif" font-size="10.00">/github/workspace/test</text>
<text text-anchor="middle" x="2188.5" y="-13" font-family="Helvetica,sans-Serif" font-size="10.00">/linalg_copy.cpp</text>
</a>
</g>
</g>
<!-- Node1&#45;&gt;Node16 -->
<g id="edge15" class="edge">
<title>Node1&#45;&gt;Node16</title>
<path fill="none" stroke="midnightblue" d="M1726.17,-88.74C1819.07,-83.05 1983.37,-69.81 2121.5,-42 2129.35,-40.42 2137.61,-38.32 2145.54,-36.08"/>
<polygon fill="midnightblue" stroke="midnightblue" points="1725.8,-85.26 1716.02,-89.35 1726.21,-92.24 1725.8,-85.26"/>
</g>
<!-- Node17 -->
<g id="node17" class="node">
<title>Node17</title>
<g id="a_node17"><a xlink:href="linalg__identity_8cpp.xhtml" target="_top" xlink:title=" ">
<polygon fill="white" stroke="black" points="2264.5,-6 2264.5,-36 2380.5,-36 2380.5,-6 2264.5,-6"/>
<text text-anchor="start" x="2272.5" y="-24" font-family="Helvetica,sans-Serif" font-size="10.00">/github/workspace/test</text>
<text text-anchor="middle" x="2322.5" y="-13" font-family="Helvetica,sans-Serif" font-size="10.00">/linalg_identity.cpp</text>
</a>
</g>
</g>
<!-- Node1&#45;&gt;Node17 -->
<g id="edge16" class="edge">
<title>Node1&#45;&gt;Node17</title>
<path fill="none" stroke="midnightblue" d="M1726.05,-91.22C1840.29,-88.14 2066.87,-77.66 2255.5,-42 2263.61,-40.47 2272.14,-38.34 2280.29,-36.04"/>
<polygon fill="midnightblue" stroke="midnightblue" points="1725.92,-87.72 1716.02,-91.48 1726.1,-94.72 1725.92,-87.72"/>
</g>
<!-- Node18 -->
<g id="node18" class="node">
<title>Node18</title>
<g id="a_node18"><a xlink:href="linalg__identity__default_8cpp.xhtml" target="_top" xlink:title=" ">
<polygon fill="white" stroke="black" points="2399,-6 2399,-36 2530,-36 2530,-6 2399,-6"/>
<text text-anchor="start" x="2407" y="-24" font-family="Helvetica,sans-Serif" font-size="10.00">/github/workspace/test</text>
<text text-anchor="middle" x="2464.5" y="-13" font-family="Helvetica,sans-Serif" font-size="10.00">/linalg_identity_default.cpp</text>
</a>
</g>
</g>
<!-- Node1&#45;&gt;Node18 -->
<g id="edge17" class="edge">
<title>Node1&#45;&gt;Node18</title>
<path fill="none" stroke="midnightblue" d="M1726.16,-92.12C1859.43,-90.4 2149.05,-81.92 2389.5,-42 2398.54,-40.5 2408.07,-38.38 2417.19,-36.09"/>
<polygon fill="midnightblue" stroke="midnightblue" points="1726.03,-88.62 1716.07,-92.24 1726.11,-95.62 1726.03,-88.62"/>
</g>
<!-- Node19 -->
<g id="node19" class="node">
<title>Node19</title>
<g id="a_node19"><a xlink:href="linalg__operator__bracket__1x2_8cpp.xhtml" target="_top" xlink:title=" ">
<polygon fill="white" stroke="black" points="2548.5,-0.5 2548.5,-41.5 2668.5,-41.5 2668.5,-0.5 2548.5,-0.5"/>
<text text-anchor="start" x="2556.5" y="-29.5" font-family="Helvetica,sans-Serif" font-size="10.00">/github/workspace/test</text>
<text text-anchor="start" x="2556.5" y="-18.5" font-family="Helvetica,sans-Serif" font-size="10.00">/linalg_operator_bracket</text>
<text text-anchor="middle" x="2608.5" y="-7.5" font-family="Helvetica,sans-Serif" font-size="10.00">_1x2.cpp</text>
</a>
</g>
</g>
<!-- Node1&#45;&gt;Node19 -->
<g id="edge18" class="edge">
<title>Node1&#45;&gt;Node19</title>
<path fill="none" stroke="midnightblue" d="M1726.19,-90.44C1909.76,-84.97 2383.85,-68.64 2539.5,-42 2542.45,-41.5 2545.45,-40.91 2548.48,-40.26"/>
<polygon fill="midnightblue" stroke="midnightblue" points="1725.99,-86.95 1716.09,-90.74 1726.19,-93.94 1725.99,-86.95"/>
</g>
<!-- Node20 -->
<g id="node20" class="node">
<title>Node20</title>
<g id="a_node20"><a xlink:href="linalg__operator__equality_8cpp.xhtml" target="_top" xlink:title=" ">
<polygon fill="white" stroke="black" points="2687,-6 2687,-36 2826,-36 2826,-6 2687,-6"/>
<text text-anchor="start" x="2695" y="-24" font-family="Helvetica,sans-Serif" font-size="10.00">/github/workspace/test</text>
<text text-anchor="middle" x="2756.5" y="-13" font-family="Helvetica,sans-Serif" font-size="10.00">/linalg_operator_equality.cpp</text>
</a>
</g>
</g>
<!-- Node1&#45;&gt;Node20 -->
<g id="edge19" class="edge">
<title>Node1&#45;&gt;Node20</title>
<path fill="none" stroke="midnightblue" d="M1726.3,-90.77C1929.42,-85.7 2493.81,-69.5 2677.5,-42 2687.29,-40.53 2697.64,-38.37 2707.5,-36.01"/>
<polygon fill="midnightblue" stroke="midnightblue" points="1725.94,-87.28 1716.03,-91.02 1726.12,-94.27 1725.94,-87.28"/>
</g>
<!-- Node21 -->
<g id="node21" class="node">
<title>Node21</title>
<g id="a_node21"><a xlink:href="linalg__zero_8cpp.xhtml" target="_top" xlink:title=" ">
<polygon fill="white" stroke="black" points="2844.5,-6 2844.5,-36 2960.5,-36 2960.5,-6 2844.5,-6"/>
<text text-anchor="start" x="2852.5" y="-24" font-family="Helvetica,sans-Serif" font-size="10.00">/github/workspace/test</text>
<text text-anchor="middle" x="2902.5" y="-13" font-family="Helvetica,sans-Serif" font-size="10.00">/linalg_zero.cpp</text>
</a>
</g>
</g>
<!-- Node1&#45;&gt;Node21 -->
<g id="edge20" class="edge">
<title>Node1&#45;&gt;Node21</title>
<path fill="none" stroke="midnightblue" d="M1726.31,-91.74C1950.39,-89.04 2620.61,-78.09 2835.5,-42 2844,-40.57 2852.94,-38.4 2861.42,-36"/>
<polygon fill="midnightblue" stroke="midnightblue" points="1726.25,-88.24 1716.3,-91.85 1726.34,-95.23 1726.25,-88.24"/>
</g>
<!-- Node22 -->
<g id="node22" class="node">
<title>Node22</title>
<g id="a_node22"><a xlink:href="linalg__zero__default_8cpp.xhtml" target="_top" xlink:title=" ">
<polygon fill="white" stroke="black" points="2978.5,-6 2978.5,-36 3096.5,-36 3096.5,-6 2978.5,-6"/>
<text text-anchor="start" x="2986.5" y="-24" font-family="Helvetica,sans-Serif" font-size="10.00">/github/workspace/test</text>
<text text-anchor="middle" x="3037.5" y="-13" font-family="Helvetica,sans-Serif" font-size="10.00">/linalg_zero_default.cpp</text>
</a>
</g>
</g>
<!-- Node1&#45;&gt;Node22 -->
<g id="edge21" class="edge">
<title>Node1&#45;&gt;Node22</title>
<path fill="none" stroke="midnightblue" d="M1726.28,-92.07C1966.93,-90.3 2727.41,-81.61 2969.5,-42 2978.12,-40.59 2987.19,-38.42 2995.8,-36.03"/>
<polygon fill="midnightblue" stroke="midnightblue" points="1726.21,-88.57 1716.24,-92.14 1726.26,-95.57 1726.21,-88.57"/>
</g>
</g>
</svg>
        <g id="navigator" transform="translate(0 0)" fill="#404254">
                <rect fill="#f2f5e9" fill-opacity="0.5" stroke="#606060" stroke-width=".5" x="0" y="0" width="60" height="60"/>
                <use id="zoomplus" xlink:href="#zoomPlus" x="17" y="9" onmousedown="handleZoom(evt,'in')"/>
                <use id="zoomminus" xlink:href="#zoomMin" x="42" y="9" onmousedown="handleZoom(evt,'out')"/>
                <use id="reset" xlink:href="#resetDef" x="30" y="36" onmousedown="handleReset()"/>
                <g id="arrowUp" xlink:href="#dirArrow" transform="translate(30 24)" onmousedown="handlePan(0,-1)">
                  <use xlink:href="#rim" fill="#404040">
                        <set attributeName="fill" to="#808080" begin="arrowUp.mouseover" end="arrowUp.mouseout"/>
                  </use>
                  <path fill="none" stroke="white" stroke-width="1.5" d="M0,-3.0v7 M-2.5,-0.5L0,-3.0L2.5,-0.5"/>
                </g>
                <g id="arrowRight" xlink:href="#dirArrow" transform="rotate(90) translate(36 -43)" onmousedown="handlePan(1,0)">
                  <use xlink:href="#rim" fill="#404040">
                        <set attributeName="fill" to="#808080" begin="arrowRight.mouseover" end="arrowRight.mouseout"/>
                  </use>
                  <path fill="none" stroke="white" stroke-width="1.5" d="M0,-3.0v7 M-2.5,-0.5L0,-3.0L2.5,-0.5"/>
                </g>
                <g id="arrowDown" xlink:href="#dirArrow" transform="rotate(180) translate(-30 -48)" onmousedown="handlePan(0,1)">
                  <use xlink:href="#rim" fill="#404040">
                        <set attributeName="fill" to="#808080" begin="arrowDown.mouseover" end="arrowDown.mouseout"/>
                  </use>
                  <path fill="none" stroke="white" stroke-width="1.5" d="M0,-3.0v7 M-2.5,-0.5L0,-3.0L2.5,-0.5"/>
                </g>
                <g id="arrowLeft" xlink:href="#dirArrow" transform="rotate(270) translate(-36 17)" onmousedown="handlePan(-1,0)">
                  <use xlink:href="#rim" fill="#404040">
                        <set attributeName="fill" to="#808080" begin="arrowLeft.mouseover" end="arrowLeft.mouseout"/>
                  </use>
                  <path fill="none" stroke="white" stroke-width="1.5" d="M0,-3.0v7 M-2.5,-0.5L0,-3.0L2.5,-0.5"/>
                </g>
        </g>
        <svg viewBox="0 0 15 15" width="100%" height="30px" preserveAspectRatio="xMaxYMin meet">
         <g id="arrow_out" transform="scale(0.3 0.3)">
          <a xlink:href="linalg_8hpp__dep__incl_org.svg" target="_base">
           <rect id="button" ry="5" rx="5" y="6" x="6" height="38" width="38"
                fill="#f2f5e9" fill-opacity="0.5" stroke="#606060" stroke-width="1.0"/>
           <path id="arrow"
             d="M 11.500037,31.436501 C 11.940474,20.09759 22.043105,11.32322 32.158766,21.979434 L 37.068811,17.246167 C 37.068811,17.246167 37.088388,32 37.088388,32 L 22.160133,31.978069 C 22.160133,31.978069 26.997745,27.140456 26.997745,27.140456 C 18.528582,18.264221 13.291696,25.230495 11.500037,31.436501 z"
             style="fill:#404040;"/>
          </a>
         </g>
        </svg>
</svg>
