<?xml version="1.0" encoding="UTF-8" standalone="no"?>
<!DOCTYPE svg PUBLIC "-//W3C//DTD SVG 1.1//EN"
 "http://www.w3.org/Graphics/SVG/1.1/DTD/svg11.dtd">
<!-- Generated by graphviz version 2.49.3 (20211027.1534)
 -->
<!-- Title: sample/liquid_temperature.cpp Pages: 1 -->
<svg width="489pt" height="196pt"
 viewBox="0.00 0.00 489.00 196.00" xmlns="http://www.w3.org/2000/svg" xmlns:xlink="http://www.w3.org/1999/xlink">
<g id="graph0" class="graph" transform="scale(1 1) rotate(0) translate(4 192)">
<title>sample/liquid_temperature.cpp</title>
<polygon fill="white" stroke="transparent" points="-4,4 -4,-192 485,-192 485,4 -4,4"/>
<!-- Node1 -->
<g id="node1" class="node">
<title>Node1</title>
<g id="a_node1"><a xlink:title=" ">
<polygon fill="#bfbfbf" stroke="black" points="257,-168.5 257,-187.5 406,-187.5 406,-168.5 257,-168.5"/>
<text text-anchor="middle" x="331.5" y="-175.5" font-family="Helvetica,sans-Serif" font-size="10.00">sample/liquid_temperature.cpp</text>
</a>
</g>
</g>
<!-- Node2 -->
<g id="node2" class="node">
<title>Node2</title>
<g id="a_node2"><a xlink:href="kalman_8hpp.xhtml" target="_top" xlink:title="The main Kalman filter class.">
<polygon fill="white" stroke="black" points="230,-112.5 230,-131.5 337,-131.5 337,-112.5 230,-112.5"/>
<text text-anchor="middle" x="283.5" y="-119.5" font-family="Helvetica,sans-Serif" font-size="10.00">fcarouge/kalman.hpp</text>
</a>
</g>
</g>
<!-- Node1&#45;&gt;Node2 -->
<g id="edge1" class="edge">
<title>Node1&#45;&gt;Node2</title>
<path fill="none" stroke="midnightblue" d="M323.57,-168.08C316.65,-160.3 306.43,-148.8 298.05,-139.37"/>
<polygon fill="midnightblue" stroke="midnightblue" points="300.54,-136.9 291.28,-131.75 295.31,-141.55 300.54,-136.9"/>
</g>
<!-- Node10 -->
<g id="node10" class="node">
<title>Node10</title>
<g id="a_node10"><a xlink:title=" ">
<polygon fill="white" stroke="#bfbfbf" points="355,-112.5 355,-131.5 404,-131.5 404,-112.5 355,-112.5"/>
<text text-anchor="middle" x="379.5" y="-119.5" font-family="Helvetica,sans-Serif" font-size="10.00">cassert</text>
</a>
</g>
</g>
<!-- Node1&#45;&gt;Node10 -->
<g id="edge11" class="edge">
<title>Node1&#45;&gt;Node10</title>
<path fill="none" stroke="midnightblue" d="M339.43,-168.08C346.35,-160.3 356.57,-148.8 364.95,-139.37"/>
<polygon fill="midnightblue" stroke="midnightblue" points="367.69,-141.55 371.72,-131.75 362.46,-136.9 367.69,-141.55"/>
</g>
<!-- Node3 -->
<g id="node3" class="node">
<title>Node3</title>
<g id="a_node3"><a xlink:href="format_8hpp.xhtml" target="_top" xlink:title=" ">
<polygon fill="white" stroke="black" points="0,-56.5 0,-75.5 97,-75.5 97,-56.5 0,-56.5"/>
<text text-anchor="middle" x="48.5" y="-63.5" font-family="Helvetica,sans-Serif" font-size="10.00">internal/format.hpp</text>
</a>
</g>
</g>
<!-- Node2&#45;&gt;Node3 -->
<g id="edge2" class="edge">
<title>Node2&#45;&gt;Node3</title>
<path fill="none" stroke="midnightblue" d="M246.26,-112.44C205.44,-103.06 139.86,-87.99 95.52,-77.8"/>
<polygon fill="midnightblue" stroke="midnightblue" points="96.09,-74.34 85.56,-75.52 94.52,-81.17 96.09,-74.34"/>
</g>
<!-- Node4 -->
<g id="node4" class="node">
<title>Node4</title>
<g id="a_node4"><a xlink:href="internal_2kalman_8hpp.xhtml" target="_top" xlink:title="The main Kalman filter class.">
<polygon fill="white" stroke="black" points="154,-56.5 154,-75.5 255,-75.5 255,-56.5 154,-56.5"/>
<text text-anchor="middle" x="204.5" y="-63.5" font-family="Helvetica,sans-Serif" font-size="10.00">internal/kalman.hpp</text>
</a>
</g>
</g>
<!-- Node2&#45;&gt;Node4 -->
<g id="edge3" class="edge">
<title>Node2&#45;&gt;Node4</title>
<path fill="none" stroke="midnightblue" d="M270.81,-112.32C258.6,-103.98 239.92,-91.21 225.5,-81.35"/>
<polygon fill="midnightblue" stroke="midnightblue" points="227.39,-78.41 217.16,-75.65 223.44,-84.19 227.39,-78.41"/>
</g>
<!-- Node5 -->
<g id="node5" class="node">
<title>Node5</title>
<g id="a_node5"><a xlink:title=" ">
<polygon fill="white" stroke="#bfbfbf" points="135,-0.5 135,-19.5 194,-19.5 194,-0.5 135,-0.5"/>
<text text-anchor="middle" x="164.5" y="-7.5" font-family="Helvetica,sans-Serif" font-size="10.00">functional</text>
</a>
</g>
</g>
<!-- Node2&#45;&gt;Node5 -->
<g id="edge7" class="edge">
<title>Node2&#45;&gt;Node5</title>
<path fill="none" stroke="midnightblue" d="M229.72,-118.41C199.44,-113.85 163.9,-102.67 144.5,-76 134.13,-61.74 142.66,-42.01 151.57,-28.03"/>
<polygon fill="midnightblue" stroke="midnightblue" points="154.46,-30.01 157.28,-19.8 148.71,-26.02 154.46,-30.01"/>
</g>
<!-- Node6 -->
<g id="node6" class="node">
<title>Node6</title>
<g id="a_node6"><a xlink:title=" ">
<polygon fill="white" stroke="#bfbfbf" points="232.5,-0.5 232.5,-19.5 294.5,-19.5 294.5,-0.5 232.5,-0.5"/>
<text text-anchor="middle" x="263.5" y="-7.5" font-family="Helvetica,sans-Serif" font-size="10.00">type_traits</text>
</a>
</g>
</g>
<!-- Node2&#45;&gt;Node6 -->
<g id="edge9" class="edge">
<title>Node2&#45;&gt;Node6</title>
<path fill="none" stroke="midnightblue" d="M281.93,-112.37C278.7,-94.62 271.26,-53.67 266.88,-29.6"/>
<polygon fill="midnightblue" stroke="midnightblue" points="270.29,-28.8 265.06,-19.59 263.41,-30.06 270.29,-28.8"/>
</g>
<!-- Node7 -->
<g id="node7" class="node">
<title>Node7</title>
<g id="a_node7"><a xlink:title=" ">
<polygon fill="white" stroke="#bfbfbf" points="311.5,-56.5 311.5,-75.5 367.5,-75.5 367.5,-56.5 311.5,-56.5"/>
<text text-anchor="middle" x="339.5" y="-63.5" font-family="Helvetica,sans-Serif" font-size="10.00">concepts</text>
</a>
</g>
</g>
<!-- Node2&#45;&gt;Node7 -->
<g id="edge6" class="edge">
<title>Node2&#45;&gt;Node7</title>
<path fill="none" stroke="midnightblue" d="M292.5,-112.32C300.69,-104.42 313.01,-92.55 322.97,-82.94"/>
<polygon fill="midnightblue" stroke="midnightblue" points="325.57,-85.29 330.34,-75.83 320.71,-80.26 325.57,-85.29"/>
</g>
<!-- Node8 -->
<g id="node8" class="node">
<title>Node8</title>
<g id="a_node8"><a xlink:title=" ">
<polygon fill="white" stroke="#bfbfbf" points="385.5,-56.5 385.5,-75.5 423.5,-75.5 423.5,-56.5 385.5,-56.5"/>
<text text-anchor="middle" x="404.5" y="-63.5" font-family="Helvetica,sans-Serif" font-size="10.00">tuple</text>
</a>
</g>
</g>
<!-- Node2&#45;&gt;Node8 -->
<g id="edge8" class="edge">
<title>Node2&#45;&gt;Node8</title>
<path fill="none" stroke="midnightblue" d="M302.67,-112.44C322.41,-103.64 353.39,-89.81 375.99,-79.72"/>
<polygon fill="midnightblue" stroke="midnightblue" points="377.71,-82.79 385.42,-75.52 374.86,-76.4 377.71,-82.79"/>
</g>
<!-- Node9 -->
<g id="node9" class="node">
<title>Node9</title>
<g id="a_node9"><a xlink:title=" ">
<polygon fill="white" stroke="#bfbfbf" points="442,-56.5 442,-75.5 481,-75.5 481,-56.5 442,-56.5"/>
<text text-anchor="middle" x="461.5" y="-63.5" font-family="Helvetica,sans-Serif" font-size="10.00">utility</text>
</a>
</g>
</g>
<!-- Node2&#45;&gt;Node9 -->
<g id="edge10" class="edge">
<title>Node2&#45;&gt;Node9</title>
<path fill="none" stroke="midnightblue" d="M312.08,-112.44C340.22,-103.99 384.65,-90.62 432.28,-76.05"/>
<polygon fill="midnightblue" stroke="midnightblue" points="433.31,-79.39 441.85,-73.12 431.26,-72.7 433.31,-79.39"/>
</g>
<!-- Node4&#45;&gt;Node5 -->
<g id="edge4" class="edge">
<title>Node4&#45;&gt;Node5</title>
<path fill="none" stroke="midnightblue" d="M197.89,-56.08C192.24,-48.46 183.96,-37.26 177.05,-27.94"/>
<polygon fill="midnightblue" stroke="midnightblue" points="179.75,-25.7 170.98,-19.75 174.12,-29.87 179.75,-25.7"/>
</g>
<!-- Node4&#45;&gt;Node6 -->
<g id="edge5" class="edge">
<title>Node4&#45;&gt;Node6</title>
<path fill="none" stroke="midnightblue" d="M213.98,-56.32C222.7,-48.34 235.84,-36.31 246.4,-26.65"/>
<polygon fill="midnightblue" stroke="midnightblue" points="248.83,-29.17 253.85,-19.83 244.11,-24 248.83,-29.17"/>
</g>
</g>
</svg>
