<?xml version="1.0" encoding="UTF-8" standalone="no"?>
<!DOCTYPE svg PUBLIC "-//W3C//DTD SVG 1.1//EN"
 "http://www.w3.org/Graphics/SVG/1.1/DTD/svg11.dtd">
<!-- Generated by graphviz version 3.0.0 (20220413.0106)
 -->
<!-- Title: sample/liquid_temperature.cpp Pages: 1 -->
<svg width="357pt" height="252pt"
 viewBox="0.00 0.00 356.50 252.00" xmlns="http://www.w3.org/2000/svg" xmlns:xlink="http://www.w3.org/1999/xlink">
<g id="graph0" class="graph" transform="scale(1 1) rotate(0) translate(4 248)">
<title>sample/liquid_temperature.cpp</title>
<polygon fill="white" stroke="transparent" points="-4,4 -4,-248 352.5,-248 352.5,4 -4,4"/>
<!-- Node1 -->
<g id="node1" class="node">
<title>Node1</title>
<g id="a_node1"><a xlink:title=" ">
<polygon fill="#bfbfbf" stroke="black" points="198.5,-224.5 198.5,-243.5 347.5,-243.5 347.5,-224.5 198.5,-224.5"/>
<text text-anchor="middle" x="273" y="-231.5" font-family="Helvetica,sans-Serif" font-size="10.00">sample/liquid_temperature.cpp</text>
</a>
</g>
</g>
<!-- Node2 -->
<g id="node2" class="node">
<title>Node2</title>
<g id="a_node2"><a xlink:href="kalman_8hpp.xhtml" target="_top" xlink:title="The main Kalman filter class.">
<polygon fill="white" stroke="black" points="171.5,-168.5 171.5,-187.5 278.5,-187.5 278.5,-168.5 171.5,-168.5"/>
<text text-anchor="middle" x="225" y="-175.5" font-family="Helvetica,sans-Serif" font-size="10.00">fcarouge/kalman.hpp</text>
</a>
</g>
</g>
<!-- Node1&#45;&gt;Node2 -->
<g id="edge1" class="edge">
<title>Node1&#45;&gt;Node2</title>
<path fill="none" stroke="midnightblue" d="M265.07,-224.08C258.15,-216.3 247.93,-204.8 239.55,-195.37"/>
<polygon fill="midnightblue" stroke="midnightblue" points="242.04,-192.9 232.78,-187.75 236.81,-197.55 242.04,-192.9"/>
</g>
<!-- Node9 -->
<g id="node9" class="node">
<title>Node9</title>
<g id="a_node9"><a xlink:title=" ">
<polygon fill="white" stroke="#bfbfbf" points="296.5,-168.5 296.5,-187.5 345.5,-187.5 345.5,-168.5 296.5,-168.5"/>
<text text-anchor="middle" x="321" y="-175.5" font-family="Helvetica,sans-Serif" font-size="10.00">cassert</text>
</a>
</g>
</g>
<!-- Node1&#45;&gt;Node9 -->
<g id="edge9" class="edge">
<title>Node1&#45;&gt;Node9</title>
<path fill="none" stroke="midnightblue" d="M280.93,-224.08C287.85,-216.3 298.07,-204.8 306.45,-195.37"/>
<polygon fill="midnightblue" stroke="midnightblue" points="309.19,-197.55 313.22,-187.75 303.96,-192.9 309.19,-197.55"/>
</g>
<!-- Node3 -->
<g id="node3" class="node">
<title>Node3</title>
<g id="a_node3"><a xlink:href="internal_2kalman_8hpp.xhtml" target="_top" xlink:title="The main Kalman filter class.">
<polygon fill="white" stroke="black" points="126.5,-112.5 126.5,-131.5 227.5,-131.5 227.5,-112.5 126.5,-112.5"/>
<text text-anchor="middle" x="177" y="-119.5" font-family="Helvetica,sans-Serif" font-size="10.00">internal/kalman.hpp</text>
</a>
</g>
</g>
<!-- Node2&#45;&gt;Node3 -->
<g id="edge2" class="edge">
<title>Node2&#45;&gt;Node3</title>
<path fill="none" stroke="midnightblue" d="M217.07,-168.08C210.15,-160.3 199.93,-148.8 191.55,-139.37"/>
<polygon fill="midnightblue" stroke="midnightblue" points="194.04,-136.9 184.78,-131.75 188.81,-141.55 194.04,-136.9"/>
</g>
<!-- Node8 -->
<g id="node8" class="node">
<title>Node8</title>
<g id="a_node8"><a xlink:title=" ">
<polygon fill="white" stroke="#bfbfbf" points="246,-112.5 246,-131.5 302,-131.5 302,-112.5 246,-112.5"/>
<text text-anchor="middle" x="274" y="-119.5" font-family="Helvetica,sans-Serif" font-size="10.00">concepts</text>
</a>
</g>
</g>
<!-- Node2&#45;&gt;Node8 -->
<g id="edge8" class="edge">
<title>Node2&#45;&gt;Node8</title>
<path fill="none" stroke="midnightblue" d="M233.09,-168.08C240.16,-160.3 250.59,-148.8 259.15,-139.37"/>
<polygon fill="midnightblue" stroke="midnightblue" points="261.93,-141.51 266.06,-131.75 256.75,-136.8 261.93,-141.51"/>
</g>
<!-- Node4 -->
<g id="node4" class="node">
<title>Node4</title>
<g id="a_node4"><a xlink:href="kalman__equation_8hpp.xhtml" target="_top" xlink:title="Kalman filter main project header.">
<polygon fill="white" stroke="black" points="0,-56.5 0,-75.5 108,-75.5 108,-56.5 0,-56.5"/>
<text text-anchor="middle" x="54" y="-63.5" font-family="Helvetica,sans-Serif" font-size="10.00">kalman_equation.hpp</text>
</a>
</g>
</g>
<!-- Node3&#45;&gt;Node4 -->
<g id="edge3" class="edge">
<title>Node3&#45;&gt;Node4</title>
<path fill="none" stroke="midnightblue" d="M157.51,-112.44C137.36,-103.6 105.68,-89.69 82.67,-79.59"/>
<polygon fill="midnightblue" stroke="midnightblue" points="83.96,-76.33 73.4,-75.52 81.15,-82.74 83.96,-76.33"/>
</g>
<!-- Node5 -->
<g id="node5" class="node">
<title>Node5</title>
<g id="a_node5"><a xlink:title=" ">
<polygon fill="white" stroke="#bfbfbf" points="64,-0.5 64,-19.5 126,-19.5 126,-0.5 64,-0.5"/>
<text text-anchor="middle" x="95" y="-7.5" font-family="Helvetica,sans-Serif" font-size="10.00">type_traits</text>
</a>
</g>
</g>
<!-- Node3&#45;&gt;Node5 -->
<g id="edge7" class="edge">
<title>Node3&#45;&gt;Node5</title>
<path fill="none" stroke="midnightblue" d="M170.57,-112.37C156.97,-94.14 125.14,-51.43 107.43,-27.68"/>
<polygon fill="midnightblue" stroke="midnightblue" points="110.19,-25.52 101.4,-19.59 104.58,-29.7 110.19,-25.52"/>
</g>
<!-- Node6 -->
<g id="node6" class="node">
<title>Node6</title>
<g id="a_node6"><a xlink:href="kalman__operator_8hpp.xhtml" target="_top" xlink:title="Kalman operation for standard types.">
<polygon fill="white" stroke="black" points="164.5,-56.5 164.5,-75.5 271.5,-75.5 271.5,-56.5 164.5,-56.5"/>
<text text-anchor="middle" x="218" y="-63.5" font-family="Helvetica,sans-Serif" font-size="10.00">kalman_operator.hpp</text>
</a>
</g>
</g>
<!-- Node3&#45;&gt;Node6 -->
<g id="edge5" class="edge">
<title>Node3&#45;&gt;Node6</title>
<path fill="none" stroke="midnightblue" d="M183.77,-112.08C189.56,-104.46 198.06,-93.26 205.14,-83.94"/>
<polygon fill="midnightblue" stroke="midnightblue" points="208.1,-85.83 211.36,-75.75 202.52,-81.6 208.1,-85.83"/>
</g>
<!-- Node7 -->
<g id="node7" class="node">
<title>Node7</title>
<g id="a_node7"><a xlink:title=" ">
<polygon fill="white" stroke="#bfbfbf" points="289.5,-56.5 289.5,-75.5 348.5,-75.5 348.5,-56.5 289.5,-56.5"/>
<text text-anchor="middle" x="319" y="-63.5" font-family="Helvetica,sans-Serif" font-size="10.00">functional</text>
</a>
</g>
</g>
<!-- Node3&#45;&gt;Node7 -->
<g id="edge6" class="edge">
<title>Node3&#45;&gt;Node7</title>
<path fill="none" stroke="midnightblue" d="M199.5,-112.44C223.08,-103.48 260.32,-89.31 286.96,-79.18"/>
<polygon fill="midnightblue" stroke="midnightblue" points="288.5,-82.34 296.6,-75.52 286.01,-75.8 288.5,-82.34"/>
</g>
<!-- Node4&#45;&gt;Node5 -->
<g id="edge4" class="edge">
<title>Node4&#45;&gt;Node5</title>
<path fill="none" stroke="midnightblue" d="M60.77,-56.08C66.56,-48.46 75.06,-37.26 82.14,-27.94"/>
<polygon fill="midnightblue" stroke="midnightblue" points="85.1,-29.83 88.36,-19.75 79.52,-25.6 85.1,-29.83"/>
</g>
</g>
</svg>
