<?xml version="1.0" encoding="UTF-8" standalone="no"?>
<!DOCTYPE svg PUBLIC "-//W3C//DTD SVG 1.1//EN"
 "http://www.w3.org/Graphics/SVG/1.1/DTD/svg11.dtd">
<!-- Generated by graphviz version 12.2.0 (20241103.1931)
 -->
<!-- Title: /github/workspace/support/naive/fcarouge/linalg.hpp Pages: 1 -->
<svg width="436pt" height="260pt"
 viewBox="0.00 0.00 435.88 259.50" xmlns="http://www.w3.org/2000/svg" xmlns:xlink="http://www.w3.org/1999/xlink">
<g id="graph0" class="graph" transform="scale(1 1) rotate(0) translate(4 255.5)">
<title>/github/workspace/support/naive/fcarouge/linalg.hpp</title>
<!-- Node1 -->
<g id="Node000001" class="node">
<title>Node1</title>
<g id="a_Node000001"><a xlink:title=" ">
<polygon fill="#999999" stroke="#666666" points="312.5,-251.5 181.75,-251.5 181.75,-221 312.5,-221 312.5,-251.5"/>
<text text-anchor="start" x="189.75" y="-238" font-family="Helvetica,sans-Serif" font-size="10.00">/github/workspace/support</text>
<text text-anchor="middle" x="247.12" y="-226.75" font-family="Helvetica,sans-Serif" font-size="10.00">/naive/fcarouge/linalg.hpp</text>
</a>
</g>
</g>
<!-- Node2 -->
<g id="Node000002" class="node">
<title>Node2</title>
<g id="a_Node000002"><a xlink:href="naive_8hpp.xhtml" target="_top" xlink:title="Linear algebra array&#45;based naive implementation.">
<polygon fill="white" stroke="#666666" points="275.75,-185 218.5,-185 218.5,-165.75 275.75,-165.75 275.75,-185"/>
<text text-anchor="middle" x="247.12" y="-171.5" font-family="Helvetica,sans-Serif" font-size="10.00">naive.hpp</text>
</a>
</g>
</g>
<!-- Node1&#45;&gt;Node2 -->
<g id="edge1_Node000001_Node000002" class="edge">
<title>Node1&#45;&gt;Node2</title>
<g id="a_edge1_Node000001_Node000002"><a xlink:title=" ">
<path fill="none" stroke="#63b8ff" d="M247.12,-220.7C247.12,-213.46 247.12,-204.59 247.12,-196.69"/>
<polygon fill="#63b8ff" stroke="#63b8ff" points="250.63,-196.96 247.13,-186.96 243.63,-196.96 250.63,-196.96"/>
</a>
</g>
</g>
<!-- Node3 -->
<g id="Node000003" class="node">
<title>Node3</title>
<g id="a_Node000003"><a xlink:href="utility_8hpp.xhtml" target="_top" xlink:title="The collection of utilities supporting the library.">
<polygon fill="white" stroke="#666666" points="159.62,-129.75 62.62,-129.75 62.62,-110.5 159.62,-110.5 159.62,-129.75"/>
<text text-anchor="middle" x="111.12" y="-116.25" font-family="Helvetica,sans-Serif" font-size="10.00">fcarouge/utility.hpp</text>
</a>
</g>
</g>
<!-- Node2&#45;&gt;Node3 -->
<g id="edge2_Node000002_Node000003" class="edge">
<title>Node2&#45;&gt;Node3</title>
<g id="a_edge2_Node000002_Node000003"><a xlink:title=" ">
<path fill="none" stroke="#63b8ff" d="M224.05,-165.34C202.37,-156.85 169.64,-144.04 145,-134.39"/>
<polygon fill="#63b8ff" stroke="#63b8ff" points="146.31,-131.14 135.72,-130.75 143.75,-137.66 146.31,-131.14"/>
</a>
</g>
</g>
<!-- Node5 -->
<g id="Node000005" class="node">
<title>Node5</title>
<g id="a_Node000005"><a xlink:title=" ">
<polygon fill="#e0e0e0" stroke="#999999" points="218,-19.25 162.25,-19.25 162.25,0 218,0 218,-19.25"/>
<text text-anchor="middle" x="190.12" y="-5.75" font-family="Helvetica,sans-Serif" font-size="10.00">concepts</text>
</a>
</g>
</g>
<!-- Node2&#45;&gt;Node5 -->
<g id="edge10_Node000002_Node000005" class="edge">
<title>Node2&#45;&gt;Node5</title>
<g id="a_edge10_Node000002_Node000005"><a xlink:title=" ">
<path fill="none" stroke="#63b8ff" d="M244.55,-165.31C238.79,-145.27 224.17,-95.75 209.12,-55.25 205.97,-46.76 202.12,-37.54 198.71,-29.69"/>
<polygon fill="#63b8ff" stroke="#63b8ff" points="202.02,-28.53 194.77,-20.8 195.62,-31.36 202.02,-28.53"/>
</a>
</g>
</g>
<!-- Node6 -->
<g id="Node000006" class="node">
<title>Node6</title>
<g id="a_Node000006"><a xlink:title=" ">
<polygon fill="#e0e0e0" stroke="#999999" points="48.25,-19.25 0,-19.25 0,0 48.25,0 48.25,-19.25"/>
<text text-anchor="middle" x="24.12" y="-5.75" font-family="Helvetica,sans-Serif" font-size="10.00">cstddef</text>
</a>
</g>
</g>
<!-- Node2&#45;&gt;Node6 -->
<g id="edge11_Node000002_Node000006" class="edge">
<title>Node2&#45;&gt;Node6</title>
<g id="a_edge11_Node000002_Node000006"><a xlink:title=" ">
<path fill="none" stroke="#63b8ff" d="M218.24,-170.95C170.53,-164.77 78.04,-150.46 53.12,-129.75 24.16,-105.67 21.38,-57.95 22.43,-30.79"/>
<polygon fill="#63b8ff" stroke="#63b8ff" points="25.9,-31.31 23.03,-21.11 18.92,-30.88 25.9,-31.31"/>
</a>
</g>
</g>
<!-- Node8 -->
<g id="Node000008" class="node">
<title>Node8</title>
<g id="a_Node000008"><a xlink:title=" ">
<polygon fill="#e0e0e0" stroke="#999999" points="296.62,-19.25 235.62,-19.25 235.62,0 296.62,0 296.62,-19.25"/>
<text text-anchor="middle" x="266.12" y="-5.75" font-family="Helvetica,sans-Serif" font-size="10.00">type_traits</text>
</a>
</g>
</g>
<!-- Node2&#45;&gt;Node8 -->
<g id="edge14_Node000002_Node000008" class="edge">
<title>Node2&#45;&gt;Node8</title>
<g id="a_edge14_Node000002_Node000008"><a xlink:title=" ">
<path fill="none" stroke="#63b8ff" d="M248.15,-165.57C251.08,-140.25 259.61,-66.75 263.78,-30.84"/>
<polygon fill="#63b8ff" stroke="#63b8ff" points="267.25,-31.31 264.92,-20.98 260.29,-30.51 267.25,-31.31"/>
</a>
</g>
</g>
<!-- Node10 -->
<g id="Node000010" class="node">
<title>Node10</title>
<g id="a_Node000010"><a xlink:title=" ">
<polygon fill="#e0e0e0" stroke="#999999" points="338,-129.75 294.25,-129.75 294.25,-110.5 338,-110.5 338,-129.75"/>
<text text-anchor="middle" x="316.12" y="-116.25" font-family="Helvetica,sans-Serif" font-size="10.00">format</text>
</a>
</g>
</g>
<!-- Node2&#45;&gt;Node10 -->
<g id="edge12_Node000002_Node000010" class="edge">
<title>Node2&#45;&gt;Node10</title>
<g id="a_edge12_Node000002_Node000010"><a xlink:title=" ">
<path fill="none" stroke="#63b8ff" d="M258.83,-165.34C268.9,-157.57 283.67,-146.17 295.69,-136.9"/>
<polygon fill="#63b8ff" stroke="#63b8ff" points="297.62,-139.83 303.39,-130.95 293.34,-134.29 297.62,-139.83"/>
</a>
</g>
</g>
<!-- Node11 -->
<g id="Node000011" class="node">
<title>Node11</title>
<g id="a_Node000011"><a xlink:title=" ">
<polygon fill="#e0e0e0" stroke="#999999" points="427.88,-129.75 356.38,-129.75 356.38,-110.5 427.88,-110.5 427.88,-129.75"/>
<text text-anchor="middle" x="392.12" y="-116.25" font-family="Helvetica,sans-Serif" font-size="10.00">initializer_list</text>
</a>
</g>
</g>
<!-- Node2&#45;&gt;Node11 -->
<g id="edge13_Node000002_Node000011" class="edge">
<title>Node2&#45;&gt;Node11</title>
<g id="a_edge13_Node000002_Node000011"><a xlink:title=" ">
<path fill="none" stroke="#63b8ff" d="M271.72,-165.34C295.05,-156.77 330.36,-143.81 356.72,-134.13"/>
<polygon fill="#63b8ff" stroke="#63b8ff" points="357.81,-137.46 365.99,-130.72 355.39,-130.89 357.81,-137.46"/>
</a>
</g>
</g>
<!-- Node4 -->
<g id="Node000004" class="node">
<title>Node4</title>
<g id="a_Node000004"><a xlink:href="internal_2utility_8hpp.xhtml" target="_top" xlink:title=" ">
<polygon fill="white" stroke="#666666" points="199.62,-74.5 108.62,-74.5 108.62,-55.25 199.62,-55.25 199.62,-74.5"/>
<text text-anchor="middle" x="154.12" y="-61" font-family="Helvetica,sans-Serif" font-size="10.00">internal/utility.hpp</text>
</a>
</g>
</g>
<!-- Node3&#45;&gt;Node4 -->
<g id="edge3_Node000003_Node000004" class="edge">
<title>Node3&#45;&gt;Node4</title>
<g id="a_edge3_Node000003_Node000004"><a xlink:title=" ">
<path fill="none" stroke="#63b8ff" d="M118.23,-110.33C124.04,-103.13 132.46,-92.71 139.68,-83.76"/>
<polygon fill="#63b8ff" stroke="#63b8ff" points="142.36,-86.02 145.92,-76.04 136.91,-81.62 142.36,-86.02"/>
</a>
</g>
</g>
<!-- Node3&#45;&gt;Node6 -->
<g id="edge8_Node000003_Node000006" class="edge">
<title>Node3&#45;&gt;Node6</title>
<g id="a_edge8_Node000003_Node000006"><a xlink:title=" ">
<path fill="none" stroke="#63b8ff" d="M89.8,-110.03C74.71,-102.56 55.09,-90.59 43.12,-74.5 33.6,-61.7 28.82,-44.15 26.44,-30.69"/>
<polygon fill="#63b8ff" stroke="#63b8ff" points="29.91,-30.22 25.03,-20.81 22.98,-31.21 29.91,-30.22"/>
</a>
</g>
</g>
<!-- Node9 -->
<g id="Node000009" class="node">
<title>Node9</title>
<g id="a_Node000009"><a xlink:title=" ">
<polygon fill="#e0e0e0" stroke="#999999" points="90.38,-74.5 51.88,-74.5 51.88,-55.25 90.38,-55.25 90.38,-74.5"/>
<text text-anchor="middle" x="71.12" y="-61" font-family="Helvetica,sans-Serif" font-size="10.00">utility</text>
</a>
</g>
</g>
<!-- Node3&#45;&gt;Node9 -->
<g id="edge9_Node000003_Node000009" class="edge">
<title>Node3&#45;&gt;Node9</title>
<g id="a_edge9_Node000003_Node000009"><a xlink:title=" ">
<path fill="none" stroke="#63b8ff" d="M104.52,-110.33C99.17,-103.21 91.45,-92.93 84.78,-84.05"/>
<polygon fill="#63b8ff" stroke="#63b8ff" points="87.59,-81.96 78.78,-76.07 81.99,-86.17 87.59,-81.96"/>
</a>
</g>
</g>
<!-- Node4&#45;&gt;Node5 -->
<g id="edge4_Node000004_Node000005" class="edge">
<title>Node4&#45;&gt;Node5</title>
<g id="a_edge4_Node000004_Node000005"><a xlink:title=" ">
<path fill="none" stroke="#63b8ff" d="M160.07,-55.08C164.84,-48.03 171.69,-37.9 177.65,-29.08"/>
<polygon fill="#63b8ff" stroke="#63b8ff" points="180.5,-31.11 183.2,-20.86 174.7,-27.19 180.5,-31.11"/>
</a>
</g>
</g>
<!-- Node4&#45;&gt;Node6 -->
<g id="edge5_Node000004_Node000006" class="edge">
<title>Node4&#45;&gt;Node6</title>
<g id="a_edge5_Node000004_Node000006"><a xlink:title=" ">
<path fill="none" stroke="#63b8ff" d="M132.07,-54.84C111.44,-46.39 80.34,-33.65 56.82,-24.02"/>
<polygon fill="#63b8ff" stroke="#63b8ff" points="58.27,-20.83 47.69,-20.28 55.61,-27.31 58.27,-20.83"/>
</a>
</g>
</g>
<!-- Node7 -->
<g id="Node000007" class="node">
<title>Node7</title>
<g id="a_Node000007"><a xlink:title=" ">
<polygon fill="#e0e0e0" stroke="#999999" points="144.62,-19.25 107.62,-19.25 107.62,0 144.62,0 144.62,-19.25"/>
<text text-anchor="middle" x="126.12" y="-5.75" font-family="Helvetica,sans-Serif" font-size="10.00">tuple</text>
</a>
</g>
</g>
<!-- Node4&#45;&gt;Node7 -->
<g id="edge6_Node000004_Node000007" class="edge">
<title>Node4&#45;&gt;Node7</title>
<g id="a_edge6_Node000004_Node000007"><a xlink:title=" ">
<path fill="none" stroke="#63b8ff" d="M149.5,-55.08C145.88,-48.19 140.7,-38.34 136.13,-29.66"/>
<polygon fill="#63b8ff" stroke="#63b8ff" points="139.31,-28.17 131.55,-20.95 133.11,-31.43 139.31,-28.17"/>
</a>
</g>
</g>
<!-- Node4&#45;&gt;Node8 -->
<g id="edge7_Node000004_Node000008" class="edge">
<title>Node4&#45;&gt;Node8</title>
<g id="a_edge7_Node000004_Node000008"><a xlink:title=" ">
<path fill="none" stroke="#63b8ff" d="M173.12,-54.84C190.58,-46.54 216.72,-34.11 236.85,-24.54"/>
<polygon fill="#63b8ff" stroke="#63b8ff" points="238.14,-27.81 245.67,-20.35 235.13,-21.49 238.14,-27.81"/>
</a>
</g>
</g>
</g>
</svg>
