<?xml version="1.0" encoding="UTF-8" standalone="no"?>
<!DOCTYPE svg PUBLIC "-//W3C//DTD SVG 1.1//EN"
 "http://www.w3.org/Graphics/SVG/1.1/DTD/svg11.dtd">
<!-- Generated by graphviz version 12.2.0 (20241103.1931)
 -->
<!-- Title: /github/workspace/support/naive/fcarouge/linalg.hpp Pages: 1 -->
<svg width="433pt" height="216pt"
 viewBox="0.00 0.00 432.62 215.50" xmlns="http://www.w3.org/2000/svg" xmlns:xlink="http://www.w3.org/1999/xlink">

<svg id="main" version="1.1" xmlns="http://www.w3.org/2000/svg" xmlns:xlink="http://www.w3.org/1999/xlink" xml:space="preserve">

<style type="text/css"><![CDATA[
.node, .edge {opacity: 0.7;}
.node.selected, .edge.selected {opacity: 1;}
.edge:hover path { stroke: red; }
.edge:hover polygon { stroke: red; fill: red; }
]]></style>
<script type="application/ecmascript" xlink:href="svg.min.js"/>
<svg id="graph" class="graph">
<g id="graph0" class="graph" transform="scale(1 1) rotate(0) translate(4 211.5)">
<title>/github/workspace/support/naive/fcarouge/linalg.hpp</title>
<!-- Node1 -->
<g id="Node000001" class="node">
<title>Node1</title>
<g id="a_Node000001"><a xlink:title=" ">
<polygon fill="#999999" stroke="#666666" points="283.25,-207.5 152.5,-207.5 152.5,-177 283.25,-177 283.25,-207.5"/>
<text text-anchor="start" x="160.5" y="-194" font-family="Helvetica,sans-Serif" font-size="10.00">/github/workspace/support</text>
<text text-anchor="middle" x="217.88" y="-182.75" font-family="Helvetica,sans-Serif" font-size="10.00">/naive/fcarouge/linalg.hpp</text>
</a>
</g>
</g>
<!-- Node2 -->
<g id="Node000002" class="node">
<title>Node2</title>
<g id="a_Node000002"><a xlink:href="naive_8hpp.xhtml" target="_top" xlink:title="Linear algebra array&#45;based naive implementation.">
<polygon fill="white" stroke="#666666" points="246.5,-141 189.25,-141 189.25,-121.75 246.5,-121.75 246.5,-141"/>
<text text-anchor="middle" x="217.88" y="-127.5" font-family="Helvetica,sans-Serif" font-size="10.00">naive.hpp</text>
</a>
</g>
</g>
<!-- Node1&#45;&gt;Node2 -->
<g id="edge1_Node000001_Node000002" class="edge">
<title>Node1&#45;&gt;Node2</title>
<g id="a_edge1_Node000001_Node000002"><a xlink:title=" ">
<path fill="none" stroke="#63b8ff" d="M217.88,-176.7C217.88,-169.46 217.88,-160.59 217.88,-152.69"/>
<polygon fill="#63b8ff" stroke="#63b8ff" points="221.38,-152.96 217.88,-142.96 214.38,-152.96 221.38,-152.96"/>
</a>
</g>
</g>
<!-- Node3 -->
<g id="Node000003" class="node">
<title>Node3</title>
<g id="a_Node000003"><a xlink:href="utility_8hpp.xhtml" target="_top" xlink:title=" ">
<polygon fill="white" stroke="#666666" points="235.25,-85.75 110.5,-85.75 110.5,-55.25 235.25,-55.25 235.25,-85.75"/>
<text text-anchor="start" x="118.5" y="-72.25" font-family="Helvetica,sans-Serif" font-size="10.00">fcarouge/kalman_internal</text>
<text text-anchor="middle" x="172.88" y="-61" font-family="Helvetica,sans-Serif" font-size="10.00">/utility.hpp</text>
</a>
</g>
</g>
<!-- Node2&#45;&gt;Node3 -->
<g id="edge2_Node000002_Node000003" class="edge">
<title>Node2&#45;&gt;Node3</title>
<g id="a_edge2_Node000002_Node000003"><a xlink:title=" ">
<path fill="none" stroke="#63b8ff" d="M211.04,-121.43C205.66,-114.39 197.9,-104.23 190.78,-94.92"/>
<polygon fill="#63b8ff" stroke="#63b8ff" points="193.75,-93.05 184.9,-87.23 188.19,-97.31 193.75,-93.05"/>
</a>
</g>
</g>
<!-- Node4 -->
<g id="Node000004" class="node">
<title>Node4</title>
<g id="a_Node000004"><a xlink:title=" ">
<polygon fill="#e0e0e0" stroke="#999999" points="55.75,-19.25 0,-19.25 0,0 55.75,0 55.75,-19.25"/>
<text text-anchor="middle" x="27.88" y="-5.75" font-family="Helvetica,sans-Serif" font-size="10.00">concepts</text>
</a>
</g>
</g>
<!-- Node2&#45;&gt;Node4 -->
<g id="edge8_Node000002_Node000004" class="edge">
<title>Node2&#45;&gt;Node4</title>
<g id="a_edge8_Node000002_Node000004"><a xlink:title=" ">
<path fill="none" stroke="#63b8ff" d="M188.86,-125.31C160.99,-119.37 118.7,-107.46 87.88,-85.75 66.61,-70.77 49,-46.18 38.47,-29.24"/>
<polygon fill="#63b8ff" stroke="#63b8ff" points="41.51,-27.49 33.39,-20.69 35.49,-31.07 41.51,-27.49"/>
</a>
</g>
</g>
<!-- Node5 -->
<g id="Node000005" class="node">
<title>Node5</title>
<g id="a_Node000005"><a xlink:title=" ">
<polygon fill="#e0e0e0" stroke="#999999" points="122,-19.25 73.75,-19.25 73.75,0 122,0 122,-19.25"/>
<text text-anchor="middle" x="97.88" y="-5.75" font-family="Helvetica,sans-Serif" font-size="10.00">cstddef</text>
</a>
</g>
</g>
<!-- Node2&#45;&gt;Node5 -->
<g id="edge9_Node000002_Node000005" class="edge">
<title>Node2&#45;&gt;Node5</title>
<g id="a_edge9_Node000002_Node000005"><a xlink:title=" ">
<path fill="none" stroke="#63b8ff" d="M188.96,-127.93C161.66,-123.93 121.98,-113.42 101.88,-85.75 90.37,-69.92 90.96,-46.89 93.43,-30.51"/>
<polygon fill="#63b8ff" stroke="#63b8ff" points="96.81,-31.47 95.23,-20.99 89.93,-30.17 96.81,-31.47"/>
</a>
</g>
</g>
<!-- Node7 -->
<g id="Node000007" class="node">
<title>Node7</title>
<g id="a_Node000007"><a xlink:title=" ">
<polygon fill="#e0e0e0" stroke="#999999" points="312.38,-19.25 251.38,-19.25 251.38,0 312.38,0 312.38,-19.25"/>
<text text-anchor="middle" x="281.88" y="-5.75" font-family="Helvetica,sans-Serif" font-size="10.00">type_traits</text>
</a>
</g>
</g>
<!-- Node2&#45;&gt;Node7 -->
<g id="edge12_Node000002_Node000007" class="edge">
<title>Node2&#45;&gt;Node7</title>
<g id="a_edge12_Node000002_Node000007"><a xlink:title=" ">
<path fill="none" stroke="#63b8ff" d="M223.21,-121.57C228.58,-112.63 237.02,-98.35 243.88,-85.75 254.11,-66.92 265.09,-45.02 272.6,-29.74"/>
<polygon fill="#63b8ff" stroke="#63b8ff" points="275.69,-31.38 276.93,-20.86 269.4,-28.31 275.69,-31.38"/>
</a>
</g>
</g>
<!-- Node9 -->
<g id="Node000009" class="node">
<title>Node9</title>
<g id="a_Node000009"><a xlink:title=" ">
<polygon fill="#e0e0e0" stroke="#999999" points="334.75,-80.12 291,-80.12 291,-60.88 334.75,-60.88 334.75,-80.12"/>
<text text-anchor="middle" x="312.88" y="-66.62" font-family="Helvetica,sans-Serif" font-size="10.00">format</text>
</a>
</g>
</g>
<!-- Node2&#45;&gt;Node9 -->
<g id="edge10_Node000002_Node000009" class="edge">
<title>Node2&#45;&gt;Node9</title>
<g id="a_edge10_Node000002_Node000009"><a xlink:title=" ">
<path fill="none" stroke="#63b8ff" d="M232.3,-121.43C247.23,-112.18 270.81,-97.57 288.61,-86.54"/>
<polygon fill="#63b8ff" stroke="#63b8ff" points="290.37,-89.57 297.02,-81.32 286.68,-83.62 290.37,-89.57"/>
</a>
</g>
</g>
<!-- Node10 -->
<g id="Node000010" class="node">
<title>Node10</title>
<g id="a_Node000010"><a xlink:title=" ">
<polygon fill="#e0e0e0" stroke="#999999" points="424.62,-80.12 353.12,-80.12 353.12,-60.88 424.62,-60.88 424.62,-80.12"/>
<text text-anchor="middle" x="388.88" y="-66.62" font-family="Helvetica,sans-Serif" font-size="10.00">initializer_list</text>
</a>
</g>
</g>
<!-- Node2&#45;&gt;Node10 -->
<g id="edge11_Node000002_Node000010" class="edge">
<title>Node2&#45;&gt;Node10</title>
<g id="a_edge11_Node000002_Node000010"><a xlink:title=" ">
<path fill="none" stroke="#63b8ff" d="M244.22,-121.3C272.96,-111.41 319.21,-95.49 351.65,-84.32"/>
<polygon fill="#63b8ff" stroke="#63b8ff" points="352.75,-87.64 361.07,-81.07 350.48,-81.02 352.75,-87.64"/>
</a>
</g>
</g>
<!-- Node3&#45;&gt;Node4 -->
<g id="edge3_Node000003_Node000004" class="edge">
<title>Node3&#45;&gt;Node4</title>
<g id="a_edge3_Node000003_Node000004"><a xlink:title=" ">
<path fill="none" stroke="#63b8ff" d="M136.66,-54.8C113.3,-45.31 83.18,-33.08 60.55,-23.89"/>
<polygon fill="#63b8ff" stroke="#63b8ff" points="62.1,-20.74 51.51,-20.22 59.46,-27.23 62.1,-20.74"/>
</a>
</g>
</g>
<!-- Node3&#45;&gt;Node5 -->
<g id="edge4_Node000003_Node000005" class="edge">
<title>Node3&#45;&gt;Node5</title>
<g id="a_edge4_Node000003_Node000005"><a xlink:title=" ">
<path fill="none" stroke="#63b8ff" d="M154.34,-54.95C143.36,-46.33 129.43,-35.4 118.16,-26.55"/>
<polygon fill="#63b8ff" stroke="#63b8ff" points="120.65,-24.06 110.63,-20.64 116.33,-29.56 120.65,-24.06"/>
</a>
</g>
</g>
<!-- Node6 -->
<g id="Node000006" class="node">
<title>Node6</title>
<g id="a_Node000006"><a xlink:title=" ">
<polygon fill="#e0e0e0" stroke="#999999" points="233.38,-19.25 196.38,-19.25 196.38,0 233.38,0 233.38,-19.25"/>
<text text-anchor="middle" x="214.88" y="-5.75" font-family="Helvetica,sans-Serif" font-size="10.00">tuple</text>
</a>
</g>
</g>
<!-- Node3&#45;&gt;Node6 -->
<g id="edge5_Node000003_Node000006" class="edge">
<title>Node3&#45;&gt;Node6</title>
<g id="a_edge5_Node000003_Node000006"><a xlink:title=" ">
<path fill="none" stroke="#63b8ff" d="M183.26,-54.95C188.85,-47.1 195.81,-37.35 201.78,-28.99"/>
<polygon fill="#63b8ff" stroke="#63b8ff" points="204.56,-31.11 207.52,-20.93 198.86,-27.04 204.56,-31.11"/>
</a>
</g>
</g>
<!-- Node3&#45;&gt;Node7 -->
<g id="edge6_Node000003_Node000007" class="edge">
<title>Node3&#45;&gt;Node7</title>
<g id="a_edge6_Node000003_Node000007"><a xlink:title=" ">
<path fill="none" stroke="#63b8ff" d="M200.1,-54.8C217.02,-45.66 238.66,-33.97 255.43,-24.91"/>
<polygon fill="#63b8ff" stroke="#63b8ff" points="256.69,-28.21 263.83,-20.37 253.37,-22.05 256.69,-28.21"/>
</a>
</g>
</g>
<!-- Node8 -->
<g id="Node000008" class="node">
<title>Node8</title>
<g id="a_Node000008"><a xlink:title=" ">
<polygon fill="#e0e0e0" stroke="#999999" points="178.12,-19.25 139.62,-19.25 139.62,0 178.12,0 178.12,-19.25"/>
<text text-anchor="middle" x="158.88" y="-5.75" font-family="Helvetica,sans-Serif" font-size="10.00">utility</text>
</a>
</g>
</g>
<!-- Node3&#45;&gt;Node8 -->
<g id="edge7_Node000003_Node000008" class="edge">
<title>Node3&#45;&gt;Node8</title>
<g id="a_edge7_Node000003_Node000008"><a xlink:title=" ">
<path fill="none" stroke="#63b8ff" d="M169.41,-54.95C167.67,-47.62 165.53,-38.62 163.64,-30.66"/>
<polygon fill="#63b8ff" stroke="#63b8ff" points="167.1,-30.09 161.38,-21.17 160.29,-31.71 167.1,-30.09"/>
</a>
</g>
</g>
</g>
</svg>
</svg>

<style type='text/css'>
<![CDATA[
[data-mouse-over-selected='false'] { opacity: 0.7; }
[data-mouse-over-selected='true']  { opacity: 1.0; }
]]>
</style>
<script type="application/ecmascript"><![CDATA[
document.addEventListener('DOMContentLoaded', (event) => {
  highlightEdges();
  highlightAdjacentNodes();
});
]]></script>
</svg>
