<?xml version="1.0" encoding="UTF-8" standalone="no"?>
<!DOCTYPE svg PUBLIC "-//W3C//DTD SVG 1.1//EN"
 "http://www.w3.org/Graphics/SVG/1.1/DTD/svg11.dtd">
<!-- Generated by graphviz version 9.0.0 (20230911.1827)
 -->
<!-- Title: /github/workspace/support/naive/fcarouge/linalg.hpp Pages: 1 -->
<svg width="373pt" height="260pt"
 viewBox="0.00 0.00 372.62 259.50" xmlns="http://www.w3.org/2000/svg" xmlns:xlink="http://www.w3.org/1999/xlink">
<g id="graph0" class="graph" transform="scale(1 1) rotate(0) translate(4 255.5)">
<title>/github/workspace/support/naive/fcarouge/linalg.hpp</title>
<!-- Node1 -->
<g id="Node000001" class="node">
<title>Node1</title>
<g id="a_Node000001"><a xlink:title=" ">
<polygon fill="#999999" stroke="#666666" points="330.25,-251.5 199.5,-251.5 199.5,-221 330.25,-221 330.25,-251.5"/>
<text text-anchor="start" x="207.5" y="-238" font-family="Helvetica,sans-Serif" font-size="10.00">/github/workspace/support</text>
<text text-anchor="middle" x="264.88" y="-226.75" font-family="Helvetica,sans-Serif" font-size="10.00">/naive/fcarouge/linalg.hpp</text>
</a>
</g>
</g>
<!-- Node2 -->
<g id="Node000002" class="node">
<title>Node2</title>
<g id="a_Node000002"><a xlink:href="naive_8hpp.xhtml" target="_top" xlink:title="Linear algebra array&#45;based naive implementation.">
<polygon fill="white" stroke="#666666" points="293.5,-185 236.25,-185 236.25,-165.75 293.5,-165.75 293.5,-185"/>
<text text-anchor="middle" x="264.88" y="-171.5" font-family="Helvetica,sans-Serif" font-size="10.00">naive.hpp</text>
</a>
</g>
</g>
<!-- Node1&#45;&gt;Node2 -->
<g id="edge1_Node000001_Node000002" class="edge">
<title>Node1&#45;&gt;Node2</title>
<g id="a_edge1_Node000001_Node000002"><a xlink:title=" ">
<path fill="none" stroke="#63b8ff" d="M264.88,-220.7C264.88,-213.46 264.88,-204.59 264.88,-196.69"/>
<polygon fill="#63b8ff" stroke="#63b8ff" points="268.38,-196.96 264.88,-186.96 261.38,-196.96 268.38,-196.96"/>
</a>
</g>
</g>
<!-- Node3 -->
<g id="Node000003" class="node">
<title>Node3</title>
<g id="a_Node000003"><a xlink:href="utility_8hpp.xhtml" target="_top" xlink:title="The collection of utilities supporting the library.">
<polygon fill="white" stroke="#666666" points="232.38,-129.75 135.38,-129.75 135.38,-110.5 232.38,-110.5 232.38,-129.75"/>
<text text-anchor="middle" x="183.88" y="-116.25" font-family="Helvetica,sans-Serif" font-size="10.00">fcarouge/utility.hpp</text>
</a>
</g>
</g>
<!-- Node2&#45;&gt;Node3 -->
<g id="edge2_Node000002_Node000003" class="edge">
<title>Node2&#45;&gt;Node3</title>
<g id="a_edge2_Node000002_Node000003"><a xlink:title=" ">
<path fill="none" stroke="#63b8ff" d="M251.13,-165.34C239.15,-157.46 221.5,-145.86 207.29,-136.52"/>
<polygon fill="#63b8ff" stroke="#63b8ff" points="209.23,-133.6 198.95,-131.03 205.38,-139.45 209.23,-133.6"/>
</a>
</g>
</g>
<!-- Node6 -->
<g id="Node000006" class="node">
<title>Node6</title>
<g id="a_Node000006"><a xlink:title=" ">
<polygon fill="#e0e0e0" stroke="#999999" points="256,-19.25 207.75,-19.25 207.75,0 256,0 256,-19.25"/>
<text text-anchor="middle" x="231.88" y="-5.75" font-family="Helvetica,sans-Serif" font-size="10.00">cstddef</text>
</a>
</g>
</g>
<!-- Node2&#45;&gt;Node6 -->
<g id="edge10_Node000002_Node000006" class="edge">
<title>Node2&#45;&gt;Node6</title>
<g id="a_edge10_Node000002_Node000006"><a xlink:title=" ">
<path fill="none" stroke="#63b8ff" d="M263.1,-165.57C257.98,-140.14 243.05,-66.1 235.85,-30.37"/>
<polygon fill="#63b8ff" stroke="#63b8ff" points="239.36,-30.07 233.96,-20.96 232.5,-31.45 239.36,-30.07"/>
</a>
</g>
</g>
<!-- Node10 -->
<g id="Node000010" class="node">
<title>Node10</title>
<g id="a_Node000010"><a xlink:title=" ">
<polygon fill="#e0e0e0" stroke="#999999" points="364.62,-129.75 293.12,-129.75 293.12,-110.5 364.62,-110.5 364.62,-129.75"/>
<text text-anchor="middle" x="328.88" y="-116.25" font-family="Helvetica,sans-Serif" font-size="10.00">initializer_list</text>
</a>
</g>
</g>
<!-- Node2&#45;&gt;Node10 -->
<g id="edge11_Node000002_Node000010" class="edge">
<title>Node2&#45;&gt;Node10</title>
<g id="a_edge11_Node000002_Node000010"><a xlink:title=" ">
<path fill="none" stroke="#63b8ff" d="M275.73,-165.34C284.98,-157.65 298.5,-146.4 309.58,-137.18"/>
<polygon fill="#63b8ff" stroke="#63b8ff" points="311.57,-140.08 317.02,-130.99 307.09,-134.7 311.57,-140.08"/>
</a>
</g>
</g>
<!-- Node4 -->
<g id="Node000004" class="node">
<title>Node4</title>
<g id="a_Node000004"><a xlink:href="internal_2utility_8hpp.xhtml" target="_top" xlink:title=" ">
<polygon fill="white" stroke="#666666" points="142.38,-74.5 51.38,-74.5 51.38,-55.25 142.38,-55.25 142.38,-74.5"/>
<text text-anchor="middle" x="96.88" y="-61" font-family="Helvetica,sans-Serif" font-size="10.00">internal/utility.hpp</text>
</a>
</g>
</g>
<!-- Node3&#45;&gt;Node4 -->
<g id="edge3_Node000003_Node000004" class="edge">
<title>Node3&#45;&gt;Node4</title>
<g id="a_edge3_Node000003_Node000004"><a xlink:title=" ">
<path fill="none" stroke="#63b8ff" d="M169.12,-110.09C155.99,-102.06 136.55,-90.16 121.14,-80.73"/>
<polygon fill="#63b8ff" stroke="#63b8ff" points="123.35,-77.98 113,-75.74 119.7,-83.95 123.35,-77.98"/>
</a>
</g>
</g>
<!-- Node3&#45;&gt;Node6 -->
<g id="edge8_Node000003_Node000006" class="edge">
<title>Node3&#45;&gt;Node6</title>
<g id="a_edge8_Node000003_Node000006"><a xlink:title=" ">
<path fill="none" stroke="#63b8ff" d="M189.21,-110.08C194.33,-101.19 202.13,-87.15 207.88,-74.5 214.48,-59.95 220.79,-43 225.28,-30.22"/>
<polygon fill="#63b8ff" stroke="#63b8ff" points="228.55,-31.48 228.49,-20.89 221.93,-29.21 228.55,-31.48"/>
</a>
</g>
</g>
<!-- Node9 -->
<g id="Node000009" class="node">
<title>Node9</title>
<g id="a_Node000009"><a xlink:title=" ">
<polygon fill="#e0e0e0" stroke="#999999" points="199.12,-74.5 160.62,-74.5 160.62,-55.25 199.12,-55.25 199.12,-74.5"/>
<text text-anchor="middle" x="179.88" y="-61" font-family="Helvetica,sans-Serif" font-size="10.00">utility</text>
</a>
</g>
</g>
<!-- Node3&#45;&gt;Node9 -->
<g id="edge9_Node000003_Node000009" class="edge">
<title>Node3&#45;&gt;Node9</title>
<g id="a_edge9_Node000003_Node000009"><a xlink:title=" ">
<path fill="none" stroke="#63b8ff" d="M183.21,-110.33C182.72,-103.74 182.02,-94.46 181.39,-86.07"/>
<polygon fill="#63b8ff" stroke="#63b8ff" points="184.9,-86.08 180.66,-76.37 177.92,-86.6 184.9,-86.08"/>
</a>
</g>
</g>
<!-- Node5 -->
<g id="Node000005" class="node">
<title>Node5</title>
<g id="a_Node000005"><a xlink:title=" ">
<polygon fill="#e0e0e0" stroke="#999999" points="55.75,-19.25 0,-19.25 0,0 55.75,0 55.75,-19.25"/>
<text text-anchor="middle" x="27.88" y="-5.75" font-family="Helvetica,sans-Serif" font-size="10.00">concepts</text>
</a>
</g>
</g>
<!-- Node4&#45;&gt;Node5 -->
<g id="edge4_Node000004_Node000005" class="edge">
<title>Node4&#45;&gt;Node5</title>
<g id="a_edge4_Node000004_Node000005"><a xlink:title=" ">
<path fill="none" stroke="#63b8ff" d="M85.17,-54.84C75.1,-47.07 60.33,-35.67 48.31,-26.4"/>
<polygon fill="#63b8ff" stroke="#63b8ff" points="50.66,-23.79 40.61,-20.45 46.38,-29.33 50.66,-23.79"/>
</a>
</g>
</g>
<!-- Node4&#45;&gt;Node6 -->
<g id="edge5_Node000004_Node000006" class="edge">
<title>Node4&#45;&gt;Node6</title>
<g id="a_edge5_Node000004_Node000006"><a xlink:title=" ">
<path fill="none" stroke="#63b8ff" d="M119.78,-54.84C141.3,-46.35 173.79,-33.54 198.25,-23.89"/>
<polygon fill="#63b8ff" stroke="#63b8ff" points="199.44,-27.18 207.45,-20.26 196.87,-20.67 199.44,-27.18"/>
</a>
</g>
</g>
<!-- Node7 -->
<g id="Node000007" class="node">
<title>Node7</title>
<g id="a_Node000007"><a xlink:title=" ">
<polygon fill="#e0e0e0" stroke="#999999" points="110.38,-19.25 73.38,-19.25 73.38,0 110.38,0 110.38,-19.25"/>
<text text-anchor="middle" x="91.88" y="-5.75" font-family="Helvetica,sans-Serif" font-size="10.00">tuple</text>
</a>
</g>
</g>
<!-- Node4&#45;&gt;Node7 -->
<g id="edge6_Node000004_Node000007" class="edge">
<title>Node4&#45;&gt;Node7</title>
<g id="a_edge6_Node000004_Node000007"><a xlink:title=" ">
<path fill="none" stroke="#63b8ff" d="M96.05,-55.08C95.43,-48.49 94.56,-39.21 93.77,-30.82"/>
<polygon fill="#63b8ff" stroke="#63b8ff" points="97.28,-30.75 92.86,-21.12 90.31,-31.4 97.28,-30.75"/>
</a>
</g>
</g>
<!-- Node8 -->
<g id="Node000008" class="node">
<title>Node8</title>
<g id="a_Node000008"><a xlink:title=" ">
<polygon fill="#e0e0e0" stroke="#999999" points="189.38,-19.25 128.38,-19.25 128.38,0 189.38,0 189.38,-19.25"/>
<text text-anchor="middle" x="158.88" y="-5.75" font-family="Helvetica,sans-Serif" font-size="10.00">type_traits</text>
</a>
</g>
</g>
<!-- Node4&#45;&gt;Node8 -->
<g id="edge7_Node000004_Node000008" class="edge">
<title>Node4&#45;&gt;Node8</title>
<g id="a_edge7_Node000004_Node000008"><a xlink:title=" ">
<path fill="none" stroke="#63b8ff" d="M107.39,-54.84C116.26,-47.22 129.19,-36.12 139.86,-26.95"/>
<polygon fill="#63b8ff" stroke="#63b8ff" points="142.06,-29.68 147.36,-20.51 137.5,-24.37 142.06,-29.68"/>
</a>
</g>
</g>
</g>
</svg>
