<?xml version="1.0" encoding="UTF-8" standalone="no"?>
<!DOCTYPE svg PUBLIC "-//W3C//DTD SVG 1.1//EN"
 "http://www.w3.org/Graphics/SVG/1.1/DTD/svg11.dtd">
<!-- Generated by graphviz version 12.2.0 (20241103.1931)
 -->
<!-- Title: /github/workspace/support/naive/fcarouge/naive.hpp Pages: 1 -->
<svg width="433pt" height="160pt"
 viewBox="0.00 0.00 432.62 160.25" xmlns="http://www.w3.org/2000/svg" xmlns:xlink="http://www.w3.org/1999/xlink">

<svg id="main" version="1.1" xmlns="http://www.w3.org/2000/svg" xmlns:xlink="http://www.w3.org/1999/xlink" xml:space="preserve">

<style type="text/css"><![CDATA[
.node, .edge {opacity: 0.7;}
.node.selected, .edge.selected {opacity: 1;}
.edge:hover path { stroke: red; }
.edge:hover polygon { stroke: red; fill: red; }
]]></style>
<script type="application/ecmascript" xlink:href="svg.min.js"/>
<svg id="graph" class="graph">
<g id="graph0" class="graph" transform="scale(1 1) rotate(0) translate(4 156.25)">
<title>/github/workspace/support/naive/fcarouge/naive.hpp</title>
<!-- Node1 -->
<g id="Node000001" class="node">
<title>Node1</title>
<g id="a_Node000001"><a xlink:title="Linear algebra array&#45;based naive implementation.">
<polygon fill="#999999" stroke="#666666" points="283.25,-152.25 152.5,-152.25 152.5,-121.75 283.25,-121.75 283.25,-152.25"/>
<text text-anchor="start" x="160.5" y="-138.75" font-family="Helvetica,sans-Serif" font-size="10.00">/github/workspace/support</text>
<text text-anchor="middle" x="217.88" y="-127.5" font-family="Helvetica,sans-Serif" font-size="10.00">/naive/fcarouge/naive.hpp</text>
</a>
</g>
</g>
<!-- Node2 -->
<g id="Node000002" class="node">
<title>Node2</title>
<g id="a_Node000002"><a xlink:href="utility_8hpp.xhtml" target="_top" xlink:title=" ">
<polygon fill="white" stroke="#666666" points="235.25,-85.75 110.5,-85.75 110.5,-55.25 235.25,-55.25 235.25,-85.75"/>
<text text-anchor="start" x="118.5" y="-72.25" font-family="Helvetica,sans-Serif" font-size="10.00">fcarouge/kalman_internal</text>
<text text-anchor="middle" x="172.88" y="-61" font-family="Helvetica,sans-Serif" font-size="10.00">/utility.hpp</text>
</a>
</g>
</g>
<!-- Node1&#45;&gt;Node2 -->
<g id="edge1_Node000001_Node000002" class="edge">
<title>Node1&#45;&gt;Node2</title>
<g id="a_edge1_Node000001_Node000002"><a xlink:title=" ">
<path fill="none" stroke="#63b8ff" d="M207.66,-121.36C202.31,-113.69 195.62,-104.11 189.55,-95.4"/>
<polygon fill="#63b8ff" stroke="#63b8ff" points="192.5,-93.52 183.91,-87.32 186.76,-97.52 192.5,-93.52"/>
</a>
</g>
</g>
<!-- Node3 -->
<g id="Node000003" class="node">
<title>Node3</title>
<g id="a_Node000003"><a xlink:title=" ">
<polygon fill="#e0e0e0" stroke="#999999" points="55.75,-19.25 0,-19.25 0,0 55.75,0 55.75,-19.25"/>
<text text-anchor="middle" x="27.88" y="-5.75" font-family="Helvetica,sans-Serif" font-size="10.00">concepts</text>
</a>
</g>
</g>
<!-- Node1&#45;&gt;Node3 -->
<g id="edge7_Node000001_Node000003" class="edge">
<title>Node1&#45;&gt;Node3</title>
<g id="a_edge7_Node000001_Node000003"><a xlink:title=" ">
<path fill="none" stroke="#63b8ff" d="M162.31,-121.35C138.28,-113.32 110.72,-101.68 88.88,-85.75 67.72,-70.32 49.71,-45.83 38.86,-29.03"/>
<polygon fill="#63b8ff" stroke="#63b8ff" points="41.85,-27.21 33.6,-20.57 35.91,-30.91 41.85,-27.21"/>
</a>
</g>
</g>
<!-- Node4 -->
<g id="Node000004" class="node">
<title>Node4</title>
<g id="a_Node000004"><a xlink:title=" ">
<polygon fill="#e0e0e0" stroke="#999999" points="122,-19.25 73.75,-19.25 73.75,0 122,0 122,-19.25"/>
<text text-anchor="middle" x="97.88" y="-5.75" font-family="Helvetica,sans-Serif" font-size="10.00">cstddef</text>
</a>
</g>
</g>
<!-- Node1&#45;&gt;Node4 -->
<g id="edge8_Node000001_Node000004" class="edge">
<title>Node1&#45;&gt;Node4</title>
<g id="a_edge8_Node000001_Node000004"><a xlink:title=" ">
<path fill="none" stroke="#63b8ff" d="M152.07,-121.69C132.82,-114.2 113.78,-102.87 101.88,-85.75 90.7,-69.69 91.24,-46.7 93.6,-30.39"/>
<polygon fill="#63b8ff" stroke="#63b8ff" points="96.98,-31.4 95.33,-20.93 90.09,-30.14 96.98,-31.4"/>
</a>
</g>
</g>
<!-- Node6 -->
<g id="Node000006" class="node">
<title>Node6</title>
<g id="a_Node000006"><a xlink:title=" ">
<polygon fill="#e0e0e0" stroke="#999999" points="312.38,-19.25 251.38,-19.25 251.38,0 312.38,0 312.38,-19.25"/>
<text text-anchor="middle" x="281.88" y="-5.75" font-family="Helvetica,sans-Serif" font-size="10.00">type_traits</text>
</a>
</g>
</g>
<!-- Node1&#45;&gt;Node6 -->
<g id="edge11_Node000001_Node000006" class="edge">
<title>Node1&#45;&gt;Node6</title>
<g id="a_edge11_Node000001_Node000006"><a xlink:title=" ">
<path fill="none" stroke="#63b8ff" d="M225.42,-121.51C230.63,-111.48 237.7,-97.82 243.88,-85.75 253.64,-66.67 264.68,-44.8 272.34,-29.6"/>
<polygon fill="#63b8ff" stroke="#63b8ff" points="275.41,-31.29 276.77,-20.78 269.15,-28.14 275.41,-31.29"/>
</a>
</g>
</g>
<!-- Node8 -->
<g id="Node000008" class="node">
<title>Node8</title>
<g id="a_Node000008"><a xlink:title=" ">
<polygon fill="#e0e0e0" stroke="#999999" points="334.75,-80.12 291,-80.12 291,-60.88 334.75,-60.88 334.75,-80.12"/>
<text text-anchor="middle" x="312.88" y="-66.62" font-family="Helvetica,sans-Serif" font-size="10.00">format</text>
</a>
</g>
</g>
<!-- Node1&#45;&gt;Node8 -->
<g id="edge9_Node000001_Node000008" class="edge">
<title>Node1&#45;&gt;Node8</title>
<g id="a_edge9_Node000001_Node000008"><a xlink:title=" ">
<path fill="none" stroke="#63b8ff" d="M239.43,-121.36C254.61,-111.06 274.89,-97.29 290.29,-86.83"/>
<polygon fill="#63b8ff" stroke="#63b8ff" points="292.05,-89.87 298.35,-81.36 288.11,-84.08 292.05,-89.87"/>
</a>
</g>
</g>
<!-- Node9 -->
<g id="Node000009" class="node">
<title>Node9</title>
<g id="a_Node000009"><a xlink:title=" ">
<polygon fill="#e0e0e0" stroke="#999999" points="424.62,-80.12 353.12,-80.12 353.12,-60.88 424.62,-60.88 424.62,-80.12"/>
<text text-anchor="middle" x="388.88" y="-66.62" font-family="Helvetica,sans-Serif" font-size="10.00">initializer_list</text>
</a>
</g>
</g>
<!-- Node1&#45;&gt;Node9 -->
<g id="edge10_Node000001_Node000009" class="edge">
<title>Node1&#45;&gt;Node9</title>
<g id="a_edge10_Node000001_Node000009"><a xlink:title=" ">
<path fill="none" stroke="#63b8ff" d="M256.68,-121.36C286.08,-110.27 326.11,-95.17 354.4,-84.5"/>
<polygon fill="#63b8ff" stroke="#63b8ff" points="355.45,-87.85 363.57,-81.04 352.98,-81.3 355.45,-87.85"/>
</a>
</g>
</g>
<!-- Node2&#45;&gt;Node3 -->
<g id="edge2_Node000002_Node000003" class="edge">
<title>Node2&#45;&gt;Node3</title>
<g id="a_edge2_Node000002_Node000003"><a xlink:title=" ">
<path fill="none" stroke="#63b8ff" d="M136.66,-54.8C113.3,-45.31 83.18,-33.08 60.55,-23.89"/>
<polygon fill="#63b8ff" stroke="#63b8ff" points="62.1,-20.74 51.51,-20.22 59.46,-27.23 62.1,-20.74"/>
</a>
</g>
</g>
<!-- Node2&#45;&gt;Node4 -->
<g id="edge3_Node000002_Node000004" class="edge">
<title>Node2&#45;&gt;Node4</title>
<g id="a_edge3_Node000002_Node000004"><a xlink:title=" ">
<path fill="none" stroke="#63b8ff" d="M154.34,-54.95C143.36,-46.33 129.43,-35.4 118.16,-26.55"/>
<polygon fill="#63b8ff" stroke="#63b8ff" points="120.65,-24.06 110.63,-20.64 116.33,-29.56 120.65,-24.06"/>
</a>
</g>
</g>
<!-- Node5 -->
<g id="Node000005" class="node">
<title>Node5</title>
<g id="a_Node000005"><a xlink:title=" ">
<polygon fill="#e0e0e0" stroke="#999999" points="233.38,-19.25 196.38,-19.25 196.38,0 233.38,0 233.38,-19.25"/>
<text text-anchor="middle" x="214.88" y="-5.75" font-family="Helvetica,sans-Serif" font-size="10.00">tuple</text>
</a>
</g>
</g>
<!-- Node2&#45;&gt;Node5 -->
<g id="edge4_Node000002_Node000005" class="edge">
<title>Node2&#45;&gt;Node5</title>
<g id="a_edge4_Node000002_Node000005"><a xlink:title=" ">
<path fill="none" stroke="#63b8ff" d="M183.26,-54.95C188.85,-47.1 195.81,-37.35 201.78,-28.99"/>
<polygon fill="#63b8ff" stroke="#63b8ff" points="204.56,-31.11 207.52,-20.93 198.86,-27.04 204.56,-31.11"/>
</a>
</g>
</g>
<!-- Node2&#45;&gt;Node6 -->
<g id="edge5_Node000002_Node000006" class="edge">
<title>Node2&#45;&gt;Node6</title>
<g id="a_edge5_Node000002_Node000006"><a xlink:title=" ">
<path fill="none" stroke="#63b8ff" d="M200.1,-54.8C217.02,-45.66 238.66,-33.97 255.43,-24.91"/>
<polygon fill="#63b8ff" stroke="#63b8ff" points="256.69,-28.21 263.83,-20.37 253.37,-22.05 256.69,-28.21"/>
</a>
</g>
</g>
<!-- Node7 -->
<g id="Node000007" class="node">
<title>Node7</title>
<g id="a_Node000007"><a xlink:title=" ">
<polygon fill="#e0e0e0" stroke="#999999" points="178.12,-19.25 139.62,-19.25 139.62,0 178.12,0 178.12,-19.25"/>
<text text-anchor="middle" x="158.88" y="-5.75" font-family="Helvetica,sans-Serif" font-size="10.00">utility</text>
</a>
</g>
</g>
<!-- Node2&#45;&gt;Node7 -->
<g id="edge6_Node000002_Node000007" class="edge">
<title>Node2&#45;&gt;Node7</title>
<g id="a_edge6_Node000002_Node000007"><a xlink:title=" ">
<path fill="none" stroke="#63b8ff" d="M169.41,-54.95C167.67,-47.62 165.53,-38.62 163.64,-30.66"/>
<polygon fill="#63b8ff" stroke="#63b8ff" points="167.1,-30.09 161.38,-21.17 160.29,-31.71 167.1,-30.09"/>
</a>
</g>
</g>
</g>
</svg>
</svg>

<style type='text/css'>
<![CDATA[
[data-mouse-over-selected='false'] { opacity: 0.7; }
[data-mouse-over-selected='true']  { opacity: 1.0; }
]]>
</style>
<script type="application/ecmascript"><![CDATA[
document.addEventListener('DOMContentLoaded', (event) => {
  highlightEdges();
  highlightAdjacentNodes();
});
]]></script>
</svg>
