<?xml version="1.0" encoding="UTF-8" standalone="no"?>
<!DOCTYPE svg PUBLIC "-//W3C//DTD SVG 1.1//EN"
 "http://www.w3.org/Graphics/SVG/1.1/DTD/svg11.dtd">
<!-- Generated by graphviz version 12.2.0 (20241103.1931)
 -->
<!-- Title: /github/workspace/support/naixed/fcarouge/linalg.hpp Pages: 1 -->
<svg width="477pt" height="260pt"
 viewBox="0.00 0.00 477.00 259.50" xmlns="http://www.w3.org/2000/svg" xmlns:xlink="http://www.w3.org/1999/xlink">

<svg id="main" version="1.1" xmlns="http://www.w3.org/2000/svg" xmlns:xlink="http://www.w3.org/1999/xlink" xml:space="preserve">

<style type="text/css"><![CDATA[
.node, .edge {opacity: 0.7;}
.node.selected, .edge.selected {opacity: 1;}
.edge:hover path { stroke: red; }
.edge:hover polygon { stroke: red; fill: red; }
]]></style>
<script type="application/ecmascript" xlink:href="svg.min.js"/>
<svg id="graph" class="graph">
<g id="graph0" class="graph" transform="scale(1 1) rotate(0) translate(4 255.5)">
<title>/github/workspace/support/naixed/fcarouge/linalg.hpp</title>
<!-- Node1 -->
<g id="Node000001" class="node">
<title>Node1</title>
<g id="a_Node000001"><a xlink:title="Scalar type indexed&#45;based linear algebra with naive implementation.">
<polygon fill="#999999" stroke="#666666" points="416.88,-251.5 286.12,-251.5 286.12,-221 416.88,-221 416.88,-251.5"/>
<text text-anchor="start" x="294.12" y="-238" font-family="Helvetica,sans-Serif" font-size="10.00">/github/workspace/support</text>
<text text-anchor="middle" x="351.5" y="-226.75" font-family="Helvetica,sans-Serif" font-size="10.00">/naixed/fcarouge/linalg.hpp</text>
</a>
</g>
</g>
<!-- Node2 -->
<g id="Node000002" class="node">
<title>Node2</title>
<g id="a_Node000002"><a xlink:href="indexed_8hpp.xhtml" target="_top" xlink:title="Index typed linear algebra implementation.">
<polygon fill="white" stroke="#666666" points="189.25,-185 81.75,-185 81.75,-165.75 189.25,-165.75 189.25,-185"/>
<text text-anchor="middle" x="135.5" y="-171.5" font-family="Helvetica,sans-Serif" font-size="10.00">fcarouge/indexed.hpp</text>
</a>
</g>
</g>
<!-- Node1&#45;&gt;Node2 -->
<g id="edge1_Node000001_Node000002" class="edge">
<title>Node1&#45;&gt;Node2</title>
<g id="a_edge1_Node000001_Node000002"><a xlink:title=" ">
<path fill="none" stroke="#63b8ff" d="M297.55,-220.55C261.29,-210.66 214.07,-197.79 179.97,-188.5"/>
<polygon fill="#63b8ff" stroke="#63b8ff" points="180.97,-185.14 170.4,-185.89 179.13,-191.9 180.97,-185.14"/>
</a>
</g>
</g>
<!-- Node3 -->
<g id="Node000003" class="node">
<title>Node3</title>
<g id="a_Node000003"><a xlink:href="utility_8hpp.xhtml" target="_top" xlink:title="The collection of utilities supporting the library.">
<polygon fill="white" stroke="#666666" points="439,-129.75 342,-129.75 342,-110.5 439,-110.5 439,-129.75"/>
<text text-anchor="middle" x="390.5" y="-116.25" font-family="Helvetica,sans-Serif" font-size="10.00">fcarouge/utility.hpp</text>
</a>
</g>
</g>
<!-- Node1&#45;&gt;Node3 -->
<g id="edge22_Node000001_Node000003" class="edge">
<title>Node1&#45;&gt;Node3</title>
<g id="a_edge22_Node000001_Node000003"><a xlink:title=" ">
<path fill="none" stroke="#63b8ff" d="M357.62,-220.87C361.77,-210.89 367.25,-197.24 371.5,-185 376.62,-170.26 381.62,-153.32 385.2,-140.59"/>
<polygon fill="#63b8ff" stroke="#63b8ff" points="388.47,-141.91 387.76,-131.34 381.72,-140.05 388.47,-141.91"/>
</a>
</g>
</g>
<!-- Node6 -->
<g id="Node000006" class="node">
<title>Node6</title>
<g id="a_Node000006"><a xlink:title=" ">
<polygon fill="#e0e0e0" stroke="#999999" points="386.62,-19.25 338.38,-19.25 338.38,0 386.62,0 386.62,-19.25"/>
<text text-anchor="middle" x="362.5" y="-5.75" font-family="Helvetica,sans-Serif" font-size="10.00">cstddef</text>
</a>
</g>
</g>
<!-- Node1&#45;&gt;Node6 -->
<g id="edge23_Node000001_Node000006" class="edge">
<title>Node1&#45;&gt;Node6</title>
<g id="a_edge23_Node000001_Node000006"><a xlink:title=" ">
<path fill="none" stroke="#63b8ff" d="M377.22,-220.51C404.96,-202.95 447.57,-170.77 465.5,-129.75 473.36,-111.77 465.97,-67.85 456.5,-55.25 442.31,-36.36 418.08,-25.13 397.78,-18.65"/>
<polygon fill="#63b8ff" stroke="#63b8ff" points="399.03,-15.37 388.45,-15.95 397.08,-22.1 399.03,-15.37"/>
</a>
</g>
</g>
<!-- Node12 -->
<g id="Node000012" class="node">
<title>Node12</title>
<g id="a_Node000012"><a xlink:href="naive_8hpp.xhtml" target="_top" xlink:title="Linear algebra array&#45;based naive implementation.">
<polygon fill="white" stroke="#666666" points="362.38,-185 264.62,-185 264.62,-165.75 362.38,-165.75 362.38,-185"/>
<text text-anchor="middle" x="313.5" y="-171.5" font-family="Helvetica,sans-Serif" font-size="10.00">fcarouge/naive.hpp</text>
</a>
</g>
</g>
<!-- Node1&#45;&gt;Node12 -->
<g id="edge15_Node000001_Node000012" class="edge">
<title>Node1&#45;&gt;Node12</title>
<g id="a_edge15_Node000001_Node000012"><a xlink:title=" ">
<path fill="none" stroke="#63b8ff" d="M342.11,-220.7C337.1,-212.94 330.89,-203.31 325.53,-195.01"/>
<polygon fill="#63b8ff" stroke="#63b8ff" points="328.54,-193.23 320.18,-186.72 322.66,-197.02 328.54,-193.23"/>
</a>
</g>
</g>
<!-- Node2&#45;&gt;Node3 -->
<g id="edge2_Node000002_Node000003" class="edge">
<title>Node2&#45;&gt;Node3</title>
<g id="a_edge2_Node000002_Node000003"><a xlink:title=" ">
<path fill="none" stroke="#63b8ff" d="M179.05,-165.28C222.41,-156.23 289.1,-142.3 335.97,-132.51"/>
<polygon fill="#63b8ff" stroke="#63b8ff" points="336.58,-135.96 345.65,-130.49 335.15,-129.11 336.58,-135.96"/>
</a>
</g>
</g>
<!-- Node5 -->
<g id="Node000005" class="node">
<title>Node5</title>
<g id="a_Node000005"><a xlink:title=" ">
<polygon fill="#e0e0e0" stroke="#999999" points="119.38,-19.25 63.62,-19.25 63.62,0 119.38,0 119.38,-19.25"/>
<text text-anchor="middle" x="91.5" y="-5.75" font-family="Helvetica,sans-Serif" font-size="10.00">concepts</text>
</a>
</g>
</g>
<!-- Node2&#45;&gt;Node5 -->
<g id="edge10_Node000002_Node000005" class="edge">
<title>Node2&#45;&gt;Node5</title>
<g id="a_edge10_Node000002_Node000005"><a xlink:title=" ">
<path fill="none" stroke="#63b8ff" d="M113.07,-165.39C98.33,-158.16 80.21,-146.44 71.5,-129.75 54.67,-97.49 69.84,-54.23 81.37,-29.71"/>
<polygon fill="#63b8ff" stroke="#63b8ff" points="84.41,-31.45 85.75,-20.94 78.15,-28.32 84.41,-31.45"/>
</a>
</g>
</g>
<!-- Node2&#45;&gt;Node6 -->
<g id="edge11_Node000002_Node000006" class="edge">
<title>Node2&#45;&gt;Node6</title>
<g id="a_edge11_Node000002_Node000006"><a xlink:title=" ">
<path fill="none" stroke="#63b8ff" d="M125.29,-165.43C111.65,-152.41 90.74,-127.9 104.5,-110.5 147.56,-56.05 192.22,-100.73 256.5,-74.5 287.79,-61.73 320.64,-40.55 341.32,-26.1"/>
<polygon fill="#63b8ff" stroke="#63b8ff" points="343.08,-29.14 349.2,-20.5 339.03,-23.44 343.08,-29.14"/>
</a>
</g>
</g>
<!-- Node7 -->
<g id="Node000007" class="node">
<title>Node7</title>
<g id="a_Node000007"><a xlink:title=" ">
<polygon fill="#e0e0e0" stroke="#999999" points="37,-19.25 0,-19.25 0,0 37,0 37,-19.25"/>
<text text-anchor="middle" x="18.5" y="-5.75" font-family="Helvetica,sans-Serif" font-size="10.00">tuple</text>
</a>
</g>
</g>
<!-- Node2&#45;&gt;Node7 -->
<g id="edge14_Node000002_Node000007" class="edge">
<title>Node2&#45;&gt;Node7</title>
<g id="a_edge14_Node000002_Node000007"><a xlink:title=" ">
<path fill="none" stroke="#63b8ff" d="M112.24,-165.35C96.01,-157.98 74.92,-146.1 61.5,-129.75 37.39,-100.38 26.24,-56.38 21.53,-30.89"/>
<polygon fill="#63b8ff" stroke="#63b8ff" points="25.02,-30.49 19.92,-21.2 18.11,-31.64 25.02,-30.49"/>
</a>
</g>
</g>
<!-- Node10 -->
<g id="Node000010" class="node">
<title>Node10</title>
<g id="a_Node000010"><a xlink:title=" ">
<polygon fill="#e0e0e0" stroke="#999999" points="157.38,-129.75 113.62,-129.75 113.62,-110.5 157.38,-110.5 157.38,-129.75"/>
<text text-anchor="middle" x="135.5" y="-116.25" font-family="Helvetica,sans-Serif" font-size="10.00">format</text>
</a>
</g>
</g>
<!-- Node2&#45;&gt;Node10 -->
<g id="edge12_Node000002_Node000010" class="edge">
<title>Node2&#45;&gt;Node10</title>
<g id="a_edge12_Node000002_Node000010"><a xlink:title=" ">
<path fill="none" stroke="#63b8ff" d="M135.5,-165.58C135.5,-159.07 135.5,-149.92 135.5,-141.62"/>
<polygon fill="#63b8ff" stroke="#63b8ff" points="139,-141.62 135.5,-131.62 132,-141.62 139,-141.62"/>
</a>
</g>
</g>
<!-- Node11 -->
<g id="Node000011" class="node">
<title>Node11</title>
<g id="a_Node000011"><a xlink:title=" ">
<polygon fill="#e0e0e0" stroke="#999999" points="247.25,-129.75 175.75,-129.75 175.75,-110.5 247.25,-110.5 247.25,-129.75"/>
<text text-anchor="middle" x="211.5" y="-116.25" font-family="Helvetica,sans-Serif" font-size="10.00">initializer_list</text>
</a>
</g>
</g>
<!-- Node2&#45;&gt;Node11 -->
<g id="edge13_Node000002_Node000011" class="edge">
<title>Node2&#45;&gt;Node11</title>
<g id="a_edge13_Node000002_Node000011"><a xlink:title=" ">
<path fill="none" stroke="#63b8ff" d="M148.39,-165.34C159.53,-157.54 175.87,-146.09 189.14,-136.79"/>
<polygon fill="#63b8ff" stroke="#63b8ff" points="191.12,-139.68 197.3,-131.07 187.11,-133.94 191.12,-139.68"/>
</a>
</g>
</g>
<!-- Node4 -->
<g id="Node000004" class="node">
<title>Node4</title>
<g id="a_Node000004"><a xlink:href="kalman__internal_2utility_8hpp.xhtml" target="_top" xlink:title=" ">
<polygon fill="white" stroke="#666666" points="247.38,-74.5 119.62,-74.5 119.62,-55.25 247.38,-55.25 247.38,-74.5"/>
<text text-anchor="middle" x="183.5" y="-61" font-family="Helvetica,sans-Serif" font-size="10.00">kalman_internal/utility.hpp</text>
</a>
</g>
</g>
<!-- Node3&#45;&gt;Node4 -->
<g id="edge3_Node000003_Node000004" class="edge">
<title>Node3&#45;&gt;Node4</title>
<g id="a_edge3_Node000003_Node000004"><a xlink:title=" ">
<path fill="none" stroke="#63b8ff" d="M355.39,-110.09C320.74,-101.18 267.59,-87.51 229.57,-77.73"/>
<polygon fill="#63b8ff" stroke="#63b8ff" points="230.81,-74.43 220.25,-75.33 229.07,-81.21 230.81,-74.43"/>
</a>
</g>
</g>
<!-- Node3&#45;&gt;Node6 -->
<g id="edge8_Node000003_Node000006" class="edge">
<title>Node3&#45;&gt;Node6</title>
<g id="a_edge8_Node000003_Node000006"><a xlink:title=" ">
<path fill="none" stroke="#63b8ff" d="M388.21,-110.25C383.74,-92.92 373.75,-54.23 367.63,-30.49"/>
<polygon fill="#63b8ff" stroke="#63b8ff" points="371.09,-29.9 365.2,-21.09 364.31,-31.65 371.09,-29.9"/>
</a>
</g>
</g>
<!-- Node9 -->
<g id="Node000009" class="node">
<title>Node9</title>
<g id="a_Node000009"><a xlink:title=" ">
<polygon fill="#e0e0e0" stroke="#999999" points="428.75,-74.5 390.25,-74.5 390.25,-55.25 428.75,-55.25 428.75,-74.5"/>
<text text-anchor="middle" x="409.5" y="-61" font-family="Helvetica,sans-Serif" font-size="10.00">utility</text>
</a>
</g>
</g>
<!-- Node3&#45;&gt;Node9 -->
<g id="edge9_Node000003_Node000009" class="edge">
<title>Node3&#45;&gt;Node9</title>
<g id="a_edge9_Node000003_Node000009"><a xlink:title=" ">
<path fill="none" stroke="#63b8ff" d="M393.64,-110.33C396.04,-103.59 399.46,-94.02 402.5,-85.49"/>
<polygon fill="#63b8ff" stroke="#63b8ff" points="405.72,-86.88 405.79,-76.28 399.13,-84.53 405.72,-86.88"/>
</a>
</g>
</g>
<!-- Node4&#45;&gt;Node5 -->
<g id="edge4_Node000004_Node000005" class="edge">
<title>Node4&#45;&gt;Node5</title>
<g id="a_edge4_Node000004_Node000005"><a xlink:title=" ">
<path fill="none" stroke="#63b8ff" d="M167.89,-54.84C153.88,-46.73 133.07,-34.68 116.7,-25.21"/>
<polygon fill="#63b8ff" stroke="#63b8ff" points="118.9,-22.44 108.49,-20.46 115.39,-28.5 118.9,-22.44"/>
</a>
</g>
</g>
<!-- Node4&#45;&gt;Node6 -->
<g id="edge5_Node000004_Node000006" class="edge">
<title>Node4&#45;&gt;Node6</title>
<g id="a_edge5_Node000004_Node000006"><a xlink:title=" ">
<path fill="none" stroke="#63b8ff" d="M213.86,-54.84C245.18,-45.53 293.99,-31.01 327.05,-21.17"/>
<polygon fill="#63b8ff" stroke="#63b8ff" points="328,-24.54 336.59,-18.33 326,-17.83 328,-24.54"/>
</a>
</g>
</g>
<!-- Node4&#45;&gt;Node7 -->
<g id="edge6_Node000004_Node000007" class="edge">
<title>Node4&#45;&gt;Node7</title>
<g id="a_edge6_Node000004_Node000007"><a xlink:title=" ">
<path fill="none" stroke="#63b8ff" d="M155.51,-54.84C125.67,-45.21 78.61,-30.02 48.15,-20.19"/>
<polygon fill="#63b8ff" stroke="#63b8ff" points="49.39,-16.92 38.8,-17.18 47.24,-23.58 49.39,-16.92"/>
</a>
</g>
</g>
<!-- Node8 -->
<g id="Node000008" class="node">
<title>Node8</title>
<g id="a_Node000008"><a xlink:title=" ">
<polygon fill="#e0e0e0" stroke="#999999" points="267,-19.25 206,-19.25 206,0 267,0 267,-19.25"/>
<text text-anchor="middle" x="236.5" y="-5.75" font-family="Helvetica,sans-Serif" font-size="10.00">type_traits</text>
</a>
</g>
</g>
<!-- Node4&#45;&gt;Node8 -->
<g id="edge7_Node000004_Node000008" class="edge">
<title>Node4&#45;&gt;Node8</title>
<g id="a_edge7_Node000004_Node000008"><a xlink:title=" ">
<path fill="none" stroke="#63b8ff" d="M192.25,-55.08C199.65,-47.65 210.46,-36.79 219.55,-27.66"/>
<polygon fill="#63b8ff" stroke="#63b8ff" points="221.92,-30.24 226.49,-20.68 216.96,-25.3 221.92,-30.24"/>
</a>
</g>
</g>
<!-- Node12&#45;&gt;Node3 -->
<g id="edge16_Node000012_Node000003" class="edge">
<title>Node12&#45;&gt;Node3</title>
<g id="a_edge16_Node000012_Node000003"><a xlink:title=" ">
<path fill="none" stroke="#63b8ff" d="M326.56,-165.34C337.96,-157.46 354.73,-145.86 368.24,-136.52"/>
<polygon fill="#63b8ff" stroke="#63b8ff" points="369.9,-139.63 376.13,-131.06 365.91,-133.87 369.9,-139.63"/>
</a>
</g>
</g>
<!-- Node12&#45;&gt;Node5 -->
<g id="edge17_Node000012_Node000005" class="edge">
<title>Node12&#45;&gt;Node5</title>
<g id="a_edge17_Node000012_Node000005"><a xlink:title=" ">
<path fill="none" stroke="#63b8ff" d="M308.07,-165.41C299.12,-151.43 279.93,-124.61 256.5,-110.5 199.25,-76.03 158.86,-120.63 110.5,-74.5 98.59,-63.14 94.05,-44.67 92.36,-30.5"/>
<polygon fill="#63b8ff" stroke="#63b8ff" points="95.89,-30.66 91.62,-20.96 88.91,-31.2 95.89,-30.66"/>
</a>
</g>
</g>
<!-- Node12&#45;&gt;Node6 -->
<g id="edge18_Node000012_Node000006" class="edge">
<title>Node12&#45;&gt;Node6</title>
<g id="a_edge18_Node000012_Node000006"><a xlink:title=" ">
<path fill="none" stroke="#63b8ff" d="M362.72,-171.95C392.78,-167.61 429.05,-156.66 448.5,-129.75 459.42,-114.64 453.12,-77.35 437.5,-55.25 427.58,-41.21 411.72,-30.85 397.13,-23.67"/>
<polygon fill="#63b8ff" stroke="#63b8ff" points="398.77,-20.57 388.22,-19.61 395.88,-26.94 398.77,-20.57"/>
</a>
</g>
</g>
<!-- Node12&#45;&gt;Node8 -->
<g id="edge21_Node000012_Node000008" class="edge">
<title>Node12&#45;&gt;Node8</title>
<g id="a_edge21_Node000012_Node000008"><a xlink:title=" ">
<path fill="none" stroke="#63b8ff" d="M310.59,-165.55C306.39,-153.09 298.17,-129.72 289.5,-110.5 276.42,-81.5 258.66,-49.18 247.38,-29.38"/>
<polygon fill="#63b8ff" stroke="#63b8ff" points="250.49,-27.76 242.47,-20.83 244.42,-31.25 250.49,-27.76"/>
</a>
</g>
</g>
<!-- Node12&#45;&gt;Node10 -->
<g id="edge19_Node000012_Node000010" class="edge">
<title>Node12&#45;&gt;Node10</title>
<g id="a_edge19_Node000012_Node000010"><a xlink:title=" ">
<path fill="none" stroke="#63b8ff" d="M283.3,-165.34C251.45,-155.81 201.41,-140.84 168.53,-131.01"/>
<polygon fill="#63b8ff" stroke="#63b8ff" points="169.7,-127.7 159.12,-128.19 167.7,-134.41 169.7,-127.7"/>
</a>
</g>
</g>
<!-- Node12&#45;&gt;Node11 -->
<g id="edge20_Node000012_Node000011" class="edge">
<title>Node12&#45;&gt;Node11</title>
<g id="a_edge20_Node000012_Node000011"><a xlink:title=" ">
<path fill="none" stroke="#63b8ff" d="M296.2,-165.34C280.52,-157.16 257.15,-144.96 238.92,-135.44"/>
<polygon fill="#63b8ff" stroke="#63b8ff" points="240.71,-132.43 230.23,-130.9 237.47,-138.63 240.71,-132.43"/>
</a>
</g>
</g>
</g>
</svg>
</svg>

<style type='text/css'>
<![CDATA[
[data-mouse-over-selected='false'] { opacity: 0.7; }
[data-mouse-over-selected='true']  { opacity: 1.0; }
]]>
</style>
<script type="application/ecmascript"><![CDATA[
document.addEventListener('DOMContentLoaded', (event) => {
  highlightEdges();
  highlightAdjacentNodes();
});
]]></script>
</svg>
