<?xml version="1.0" encoding="UTF-8" standalone="no"?>
<!DOCTYPE svg PUBLIC "-//W3C//DTD SVG 1.1//EN"
 "http://www.w3.org/Graphics/SVG/1.1/DTD/svg11.dtd">
<!-- Generated by graphviz version 12.2.0 (20241103.1931)
 -->
<!-- Title: fcarouge::naive::operator+ Pages: 1 -->
<svg width="418pt" height="45pt"
 viewBox="0.00 0.00 418.25 45.25" xmlns="http://www.w3.org/2000/svg" xmlns:xlink="http://www.w3.org/1999/xlink">

<svg id="main" version="1.1" xmlns="http://www.w3.org/2000/svg" xmlns:xlink="http://www.w3.org/1999/xlink" xml:space="preserve">

<style type="text/css"><![CDATA[
.node, .edge {opacity: 0.7;}
.node.selected, .edge.selected {opacity: 1;}
.edge:hover path { stroke: red; }
.edge:hover polygon { stroke: red; fill: red; }
]]></style>
<script type="application/ecmascript" xlink:href="svg.min.js"/>
<svg id="graph" class="graph">
<g id="graph0" class="graph" transform="scale(1 1) rotate(0) translate(4 41.25)">
<title>fcarouge::naive::operator+</title>
<!-- Node1 -->
<g id="Node000001" class="node">
<title>Node1</title>
<g id="a_Node000001"><a xlink:title=" ">
<polygon fill="#999999" stroke="#666666" points="127,-19.25 0,-19.25 0,0 127,0 127,-19.25"/>
<text text-anchor="middle" x="63.5" y="-5.75" font-family="Helvetica,sans-Serif" font-size="10.00">fcarouge::naive::operator+</text>
</a>
</g>
</g>
<!-- Node2 -->
<g id="Node000002" class="node">
<title>Node2</title>
<g id="a_Node000002"><a xlink:href="namespacefcarouge.xhtml#a214880fe1dfe8701212c14c9ece44013" target="_top" xlink:title=" ">
<polygon fill="white" stroke="#666666" points="262.25,-19.25 163,-19.25 163,0 262.25,0 262.25,-19.25"/>
<text text-anchor="middle" x="212.62" y="-5.75" font-family="Helvetica,sans-Serif" font-size="10.00">fcarouge::operator+</text>
</a>
</g>
</g>
<!-- Node1&#45;&gt;Node2 -->
<g id="edge1_Node000001_Node000002" class="edge">
<title>Node1&#45;&gt;Node2</title>
<g id="a_edge1_Node000001_Node000002"><a xlink:title=" ">
<path fill="none" stroke="#63b8ff" d="M127.32,-9.62C135.3,-9.62 143.45,-9.62 151.38,-9.62"/>
<polygon fill="#63b8ff" stroke="#63b8ff" points="151.29,-13.13 161.29,-9.63 151.29,-6.13 151.29,-13.13"/>
</a>
</g>
</g>
<!-- Node2&#45;&gt;Node2 -->
<g id="edge3_Node000002_Node000002" class="edge">
<title>Node2&#45;&gt;Node2</title>
<g id="a_edge3_Node000002_Node000002"><a xlink:title=" ">
<path fill="none" stroke="#63b8ff" d="M190.45,-19.54C180.34,-28.15 187.73,-37.25 212.62,-37.25 226.24,-37.25 234.62,-34.53 237.76,-30.65"/>
<polygon fill="#63b8ff" stroke="#63b8ff" points="241.15,-29.76 235.19,-21 234.38,-31.56 241.15,-29.76"/>
</a>
</g>
</g>
<!-- Node3 -->
<g id="Node000003" class="node">
<title>Node3</title>
<g id="a_Node000003"><a xlink:href="structfcarouge_1_1matrix.xhtml#ac6248dacd7be4fb05540b8ab2956cb7b" target="_top" xlink:title=" ">
<polygon fill="white" stroke="#666666" points="410.25,-19.25 298.25,-19.25 298.25,0 410.25,0 410.25,-19.25"/>
<text text-anchor="middle" x="354.25" y="-5.75" font-family="Helvetica,sans-Serif" font-size="10.00">fcarouge::matrix::begin</text>
</a>
</g>
</g>
<!-- Node2&#45;&gt;Node3 -->
<g id="edge2_Node000002_Node000003" class="edge">
<title>Node2&#45;&gt;Node3</title>
<g id="a_edge2_Node000002_Node000003"><a xlink:title=" ">
<path fill="none" stroke="#63b8ff" d="M262.46,-9.62C270.26,-9.62 278.45,-9.62 286.58,-9.62"/>
<polygon fill="#63b8ff" stroke="#63b8ff" points="286.48,-13.13 296.48,-9.63 286.48,-6.13 286.48,-13.13"/>
</a>
</g>
</g>
</g>
</svg>
</svg>

<style type='text/css'>
<![CDATA[
[data-mouse-over-selected='false'] { opacity: 0.7; }
[data-mouse-over-selected='true']  { opacity: 1.0; }
]]>
</style>
<script type="application/ecmascript"><![CDATA[
document.addEventListener('DOMContentLoaded', (event) => {
  highlightEdges();
  highlightAdjacentNodes();
});
]]></script>
</svg>
