<?xml version="1.0" encoding="UTF-8" standalone="no"?>
<!DOCTYPE svg PUBLIC "-//W3C//DTD SVG 1.1//EN"
 "http://www.w3.org/Graphics/SVG/1.1/DTD/svg11.dtd">
<!-- Generated by graphviz version 12.2.0 (20241103.1931)
 -->
<!-- Title: fcarouge::operator+ Pages: 1 -->
<svg width="391pt" height="56pt"
 viewBox="0.00 0.00 390.50 56.34" xmlns="http://www.w3.org/2000/svg" xmlns:xlink="http://www.w3.org/1999/xlink">
<g id="graph0" class="graph" transform="scale(1 1) rotate(0) translate(4 52.34)">
<title>fcarouge::operator+</title>
<!-- Node1 -->
<g id="Node000001" class="node">
<title>Node1</title>
<g id="a_Node000001"><a xlink:title=" ">
<polygon fill="#999999" stroke="#666666" points="99.25,-47.25 0,-47.25 0,-28 99.25,-28 99.25,-47.25"/>
<text text-anchor="middle" x="49.62" y="-33.75" font-family="Helvetica,sans-Serif" font-size="10.00">fcarouge::operator+</text>
</a>
</g>
</g>
<!-- Node2 -->
<g id="Node000002" class="node">
<title>Node2</title>
<g id="a_Node000002"><a xlink:href="structfcarouge_1_1matrix.xhtml#ac6248dacd7be4fb05540b8ab2956cb7b" target="_top" xlink:title=" ">
<polygon fill="white" stroke="#666666" points="382.5,-47.25 270.5,-47.25 270.5,-28 382.5,-28 382.5,-47.25"/>
<text text-anchor="middle" x="326.5" y="-33.75" font-family="Helvetica,sans-Serif" font-size="10.00">fcarouge::matrix::begin</text>
</a>
</g>
</g>
<!-- Node1&#45;&gt;Node2 -->
<g id="edge1_Node000001_Node000002" class="edge">
<title>Node1&#45;&gt;Node2</title>
<g id="a_edge1_Node000001_Node000002"><a xlink:title=" ">
<path fill="none" stroke="#63b8ff" d="M99.33,-43.7C111.07,-44.91 123.59,-46.01 135.25,-46.62 179.3,-48.96 190.44,-48.8 234.5,-46.62 242.37,-46.24 250.6,-45.66 258.77,-44.99"/>
<polygon fill="#63b8ff" stroke="#63b8ff" points="259.06,-48.47 268.72,-44.1 258.45,-41.5 259.06,-48.47"/>
</a>
</g>
</g>
<!-- Node3 -->
<g id="Node000003" class="node">
<title>Node3</title>
<g id="a_Node000003"><a xlink:href="namespacefcarouge.xhtml#a214880fe1dfe8701212c14c9ece44013" target="_top" xlink:title=" ">
<polygon fill="white" stroke="#666666" points="234.5,-19.25 135.25,-19.25 135.25,0 234.5,0 234.5,-19.25"/>
<text text-anchor="middle" x="184.88" y="-5.75" font-family="Helvetica,sans-Serif" font-size="10.00">fcarouge::operator+</text>
</a>
</g>
</g>
<!-- Node1&#45;&gt;Node3 -->
<g id="edge2_Node000001_Node000003" class="edge">
<title>Node1&#45;&gt;Node3</title>
<g id="a_edge2_Node000001_Node000003"><a xlink:title=" ">
<path fill="none" stroke="#63b8ff" d="M98.73,-27.52C107.13,-25.75 115.95,-23.9 124.61,-22.08"/>
<polygon fill="#63b8ff" stroke="#63b8ff" points="125.29,-25.51 134.36,-20.03 123.85,-18.66 125.29,-25.51"/>
</a>
</g>
</g>
<!-- Node3&#45;&gt;Node2 -->
<g id="edge3_Node000003_Node000002" class="edge">
<title>Node3&#45;&gt;Node2</title>
<g id="a_edge3_Node000003_Node000002"><a xlink:title=" ">
<path fill="none" stroke="#63b8ff" d="M234.71,-19.42C244.09,-21.3 254.03,-23.29 263.76,-25.24"/>
<polygon fill="#63b8ff" stroke="#63b8ff" points="263.06,-28.67 273.55,-27.21 264.44,-21.81 263.06,-28.67"/>
</a>
</g>
</g>
<!-- Node3&#45;&gt;Node3 -->
<g id="edge4_Node000003_Node000003" class="edge">
<title>Node3&#45;&gt;Node3</title>
<g id="a_edge4_Node000003_Node000003"><a xlink:title=" ">
<path fill="none" stroke="#63b8ff" d="M163.7,-19.54C154.04,-28.15 161.1,-37.25 184.88,-37.25 197.88,-37.25 205.88,-34.53 208.88,-30.65"/>
<polygon fill="#63b8ff" stroke="#63b8ff" points="212.28,-29.83 206.42,-21 205.5,-31.56 212.28,-29.83"/>
</a>
</g>
</g>
</g>
</svg>
