<?xml version="1.0" encoding="UTF-8" standalone="no"?>
<!DOCTYPE svg PUBLIC "-//W3C//DTD SVG 1.1//EN"
 "http://www.w3.org/Graphics/SVG/1.1/DTD/svg11.dtd">
<!-- Generated by graphviz version 3.0.0 (20220413.0242)
 -->
<!-- Title: fcarouge::internal::for_constexpr Pages: 1 -->
<svg width="297pt" height="182pt"
 viewBox="0.00 0.00 297.00 181.50" xmlns="http://www.w3.org/2000/svg" xmlns:xlink="http://www.w3.org/1999/xlink">
<g id="graph0" class="graph" transform="scale(1 1) rotate(0) translate(4 177.5)">
<title>fcarouge::internal::for_constexpr</title>
<polygon fill="white" stroke="transparent" points="-4,4 -4,-177.5 293,-177.5 293,4 -4,4"/>
<!-- Node1 -->
<g id="node1" class="node">
<title>Node1</title>
<g id="a_node1"><a xlink:title=" ">
<polygon fill="#bfbfbf" stroke="black" points="199,-77.5 199,-107.5 289,-107.5 289,-77.5 199,-77.5"/>
<text text-anchor="start" x="207" y="-95.5" font-family="Helvetica,sans-Serif" font-size="10.00">fcarouge::internal</text>
<text text-anchor="middle" x="244" y="-84.5" font-family="Helvetica,sans-Serif" font-size="10.00">::for_constexpr</text>
</a>
</g>
</g>
<!-- Node2 -->
<g id="node2" class="node">
<title>Node2</title>
<g id="a_node2"><a xlink:href="namespacefcarouge_1_1eigen_1_1benchmark_1_1anonymous__namespace_02eigen__predict__x1x_8cpp_03.xhtml#a8c7f8ba6f22accf251285da7e3d505e2" target="_top" xlink:title=" ">
<polygon fill="white" stroke="black" points="3.5,-132 3.5,-173 159.5,-173 159.5,-132 3.5,-132"/>
<text text-anchor="start" x="11.5" y="-161" font-family="Helvetica,sans-Serif" font-size="10.00">fcarouge::eigen::benchmark</text>
<text text-anchor="start" x="11.5" y="-150" font-family="Helvetica,sans-Serif" font-size="10.00">::anonymous_namespace{eigen</text>
<text text-anchor="middle" x="81.5" y="-139" font-family="Helvetica,sans-Serif" font-size="10.00">_predict_x1x::cpp}::eigen_predict</text>
</a>
</g>
</g>
<!-- Node1&#45;&gt;Node2 -->
<g id="edge1" class="edge">
<title>Node1&#45;&gt;Node2</title>
<path fill="none" stroke="midnightblue" d="M193.28,-111.16C183.26,-114.92 172.79,-118.84 163,-122.5 154.9,-125.53 146.33,-128.73 137.93,-131.86"/>
<polygon fill="midnightblue" stroke="midnightblue" points="194.58,-114.41 202.72,-107.62 192.13,-107.86 194.58,-114.41"/>
</g>
<!-- Node3 -->
<g id="node3" class="node">
<title>Node3</title>
<g id="a_node3"><a xlink:href="namespacefcarouge_1_1eigen_1_1benchmark_1_1anonymous__namespace_02eigen__update__xx0_8cpp_03.xhtml#a368a9891aca734e818fa5468d02735ed" target="_top" xlink:title=" ">
<polygon fill="white" stroke="black" points="3.5,-72 3.5,-113 159.5,-113 159.5,-72 3.5,-72"/>
<text text-anchor="start" x="11.5" y="-101" font-family="Helvetica,sans-Serif" font-size="10.00">fcarouge::eigen::benchmark</text>
<text text-anchor="start" x="11.5" y="-90" font-family="Helvetica,sans-Serif" font-size="10.00">::anonymous_namespace{eigen</text>
<text text-anchor="middle" x="81.5" y="-79" font-family="Helvetica,sans-Serif" font-size="10.00">_update_xx0::cpp}::eigen_update</text>
</a>
</g>
</g>
<!-- Node1&#45;&gt;Node3 -->
<g id="edge2" class="edge">
<title>Node1&#45;&gt;Node3</title>
<path fill="none" stroke="midnightblue" d="M188.47,-92.5C179.17,-92.5 169.35,-92.5 159.59,-92.5"/>
<polygon fill="midnightblue" stroke="midnightblue" points="188.72,-96 198.72,-92.5 188.72,-89 188.72,-96"/>
</g>
<!-- Node4 -->
<g id="node4" class="node">
<title>Node4</title>
<g id="a_node4"><a xlink:href="structstd_1_1formatter_3_01fcarouge_1_1kalman_3_01_state_00_01_output_00_01_input_00_01_divide_091fff7b634347e14b96e7877a9e05eb7.xhtml#a0fa1e05de18105998571dbf3631ec8de" target="_top" xlink:title=" ">
<polygon fill="white" stroke="black" points="0,-0.5 0,-52.5 163,-52.5 163,-0.5 0,-0.5"/>
<text text-anchor="start" x="8" y="-40.5" font-family="Helvetica,sans-Serif" font-size="10.00">std::formatter&lt; fcarouge</text>
<text text-anchor="start" x="8" y="-29.5" font-family="Helvetica,sans-Serif" font-size="10.00">::kalman&lt; State, Output,</text>
<text text-anchor="start" x="8" y="-18.5" font-family="Helvetica,sans-Serif" font-size="10.00"> Input, Divide, UpdateTypes,</text>
<text text-anchor="middle" x="81.5" y="-7.5" font-family="Helvetica,sans-Serif" font-size="10.00"> PredictionTypes &gt;, Char &gt;::format</text>
</a>
</g>
</g>
<!-- Node1&#45;&gt;Node4 -->
<g id="edge3" class="edge">
<title>Node1&#45;&gt;Node4</title>
<path fill="none" stroke="midnightblue" d="M196.63,-73.43C180.81,-66.93 162.83,-59.53 145.9,-52.57"/>
<polygon fill="midnightblue" stroke="midnightblue" points="195.6,-76.79 206.18,-77.36 198.26,-70.32 195.6,-76.79"/>
</g>
</g>
</svg>
