<?xml version="1.0" encoding="UTF-8" standalone="no"?>
<!DOCTYPE svg PUBLIC "-//W3C//DTD SVG 1.1//EN"
 "http://www.w3.org/Graphics/SVG/1.1/DTD/svg11.dtd">
<!-- Generated by graphviz version 7.0.5 (20221223.1930)
 -->
<!-- Title: fcarouge::operator* Pages: 1 -->
<svg width="419pt" height="45pt"
 viewBox="0.00 0.00 419.00 45.00" xmlns="http://www.w3.org/2000/svg" xmlns:xlink="http://www.w3.org/1999/xlink">
<g id="graph0" class="graph" transform="scale(1 1) rotate(0) translate(4 41)">
<title>fcarouge::operator*</title>
<!-- Node1 -->
<g id="node1" class="node">
<title>Node1</title>
<g id="a_node1"><a xlink:title=" ">
<polygon fill="#999999" stroke="#666666" points="98,-19 0,-19 0,0 98,0 98,-19"/>
<text text-anchor="middle" x="49" y="-7" font-family="Helvetica,sans-Serif" font-size="10.00">fcarouge::operator*</text>
</a>
</g>
</g>
<!-- Node1&#45;&gt;Node1 -->
<g id="edge3" class="edge">
<title>Node1&#45;&gt;Node1</title>
<path fill="none" stroke="#63b8ff" d="M26.85,-19.37C16.74,-27.94 24.13,-37 49,-37 62.6,-37 70.97,-34.29 74.12,-30.43"/>
<polygon fill="#63b8ff" stroke="#63b8ff" points="77.51,-29.58 71.54,-20.83 70.75,-31.4 77.51,-29.58"/>
</g>
<!-- Node2 -->
<g id="node2" class="node">
<title>Node2</title>
<g id="a_node2"><a xlink:href="structfcarouge_1_1matrix.xhtml#a3d43f3ebeab72104b65bc49131d293fc" target="_top" xlink:title=" ">
<polygon fill="white" stroke="#666666" points="247,-19 134,-19 134,0 247,0 247,-19"/>
<text text-anchor="middle" x="190.5" y="-7" font-family="Helvetica,sans-Serif" font-size="10.00">fcarouge::matrix::clone</text>
</a>
</g>
</g>
<!-- Node1&#45;&gt;Node2 -->
<g id="edge1" class="edge">
<title>Node1&#45;&gt;Node2</title>
<path fill="none" stroke="#63b8ff" d="M98.4,-9.5C106.1,-9.5 114.19,-9.5 122.23,-9.5"/>
<polygon fill="#63b8ff" stroke="#63b8ff" points="122.01,-13 132.01,-9.5 122.01,-6 122.01,-13"/>
</g>
<!-- Node3 -->
<g id="node3" class="node">
<title>Node3</title>
<g id="a_node3"><a xlink:href="namespacefcarouge.xhtml#ae167596e2c65ae7024cbc80f5b5d1974" target="_top" xlink:title=" ">
<polygon fill="white" stroke="#666666" points="411,-19 283,-19 283,0 411,0 411,-19"/>
<text text-anchor="middle" x="347" y="-7" font-family="Helvetica,sans-Serif" font-size="10.00">fcarouge::make_generator</text>
</a>
</g>
</g>
<!-- Node2&#45;&gt;Node3 -->
<g id="edge2" class="edge">
<title>Node2&#45;&gt;Node3</title>
<path fill="none" stroke="#63b8ff" d="M247.28,-9.5C255.09,-9.5 263.22,-9.5 271.32,-9.5"/>
<polygon fill="#63b8ff" stroke="#63b8ff" points="271.19,-13 281.19,-9.5 271.19,-6 271.19,-13"/>
</g>
</g>
</svg>
