<?xml version="1.0" encoding="UTF-8" standalone="no"?>
<!DOCTYPE svg PUBLIC "-//W3C//DTD SVG 1.1//EN"
 "http://www.w3.org/Graphics/SVG/1.1/DTD/svg11.dtd">
<!-- Generated by graphviz version 12.2.0 (20241103.1931)
 -->
<!-- Title: fcarouge::internal::for_constexpr Pages: 1 -->
<svg width="412pt" height="230pt"
 viewBox="0.00 0.00 411.50 229.75" xmlns="http://www.w3.org/2000/svg" xmlns:xlink="http://www.w3.org/1999/xlink">

<svg id="main" version="1.1" xmlns="http://www.w3.org/2000/svg" xmlns:xlink="http://www.w3.org/1999/xlink" xml:space="preserve">

<style type="text/css"><![CDATA[
.node, .edge {opacity: 0.7;}
.node.selected, .edge.selected {opacity: 1;}
.edge:hover path { stroke: red; }
.edge:hover polygon { stroke: red; fill: red; }
]]></style>
<script type="application/ecmascript" xlink:href="svg.min.js"/>
<svg id="graph" class="graph">
<g id="graph0" class="graph" transform="scale(1 1) rotate(0) translate(4 225.75)">
<title>fcarouge::internal::for_constexpr</title>
<!-- Node1 -->
<g id="Node000001" class="node">
<title>Node1</title>
<g id="a_Node000001"><a xlink:title=" ">
<polygon fill="#999999" stroke="#666666" points="403.5,-109.5 314,-109.5 314,-79 403.5,-79 403.5,-109.5"/>
<text text-anchor="start" x="322" y="-96" font-family="Helvetica,sans-Serif" font-size="10.00">fcarouge::internal</text>
<text text-anchor="middle" x="358.75" y="-84.75" font-family="Helvetica,sans-Serif" font-size="10.00">::for_constexpr</text>
</a>
</g>
</g>
<!-- Node1&#45;&gt;Node1 -->
<g id="edge6_Node000001_Node000001" class="edge">
<title>Node1&#45;&gt;Node1</title>
<g id="a_edge6_Node000001_Node000001"><a xlink:title=" ">
<path fill="none" stroke="#63b8ff" d="M382.06,-121.2C378.25,-124.97 370.48,-127.5 358.75,-127.5 337.3,-127.5 329.09,-119.06 334.12,-109.99"/>
<polygon fill="#63b8ff" stroke="#63b8ff" points="385.51,-121.83 383.2,-111.49 378.56,-121.01 385.51,-121.83"/>
</a>
</g>
</g>
<!-- Node2 -->
<g id="Node000002" class="node">
<title>Node2</title>
<g id="a_Node000002"><a xlink:href="namespacefcarouge.xhtml#a5ad0022b969a210b7261d0158bc1dd7b" target="_top" xlink:title="Compile&#45;time for loop.">
<polygon fill="white" stroke="#666666" points="278,-103.88 161.5,-103.88 161.5,-84.62 278,-84.62 278,-103.88"/>
<text text-anchor="middle" x="219.75" y="-90.38" font-family="Helvetica,sans-Serif" font-size="10.00">fcarouge::for_constexpr</text>
</a>
</g>
</g>
<!-- Node1&#45;&gt;Node2 -->
<g id="edge1_Node000001_Node000002" class="edge">
<title>Node1&#45;&gt;Node2</title>
<g id="a_edge1_Node000001_Node000002"><a xlink:title=" ">
<path fill="none" stroke="#63b8ff" d="M302.28,-94.25C294.38,-94.25 286.23,-94.25 278.28,-94.25"/>
<polygon fill="#63b8ff" stroke="#63b8ff" points="302.13,-97.75 312.13,-94.25 302.13,-90.75 302.13,-97.75"/>
</a>
</g>
</g>
<!-- Node3 -->
<g id="Node000003" class="node">
<title>Node3</title>
<g id="a_Node000003"><a xlink:href="namespacefcarouge_1_1benchmark_1_1anonymous__namespace_02predict__linalg__x1x_8cpp_03.xhtml#afd227c8a2ead320bc47bafa8e88a9d7f" target="_top" xlink:title=" ">
<polygon fill="white" stroke="#666666" points="125.5,-221.75 0,-221.75 0,-168.75 125.5,-168.75 125.5,-221.75"/>
<text text-anchor="start" x="8" y="-208.25" font-family="Helvetica,sans-Serif" font-size="10.00">fcarouge::benchmark</text>
<text text-anchor="start" x="8" y="-197" font-family="Helvetica,sans-Serif" font-size="10.00">::anonymous_namespace</text>
<text text-anchor="start" x="8" y="-185.75" font-family="Helvetica,sans-Serif" font-size="10.00">{predict_linalg_x1x::cpp}</text>
<text text-anchor="middle" x="62.75" y="-174.5" font-family="Helvetica,sans-Serif" font-size="10.00">::bench</text>
</a>
</g>
</g>
<!-- Node2&#45;&gt;Node3 -->
<g id="edge2_Node000002_Node000003" class="edge">
<title>Node2&#45;&gt;Node3</title>
<g id="a_edge2_Node000002_Node000003"><a xlink:title=" ">
<path fill="none" stroke="#63b8ff" d="M196.32,-111.08C177.7,-124.82 150.34,-144.48 125.5,-160.25 121.23,-162.96 116.75,-165.7 112.23,-168.39"/>
<polygon fill="#63b8ff" stroke="#63b8ff" points="198.29,-113.98 204.24,-105.21 194.12,-108.36 198.29,-113.98"/>
</a>
</g>
</g>
<!-- Node4 -->
<g id="Node000004" class="node">
<title>Node4</title>
<g id="a_Node000004"><a xlink:href="namespacefcarouge_1_1benchmark_1_1anonymous__namespace_02update__linalg__xx0_8cpp_03.xhtml#ad815f323e5a14424caa6a63c1b22f296" target="_top" xlink:title=" ">
<polygon fill="white" stroke="#666666" points="125.5,-150.75 0,-150.75 0,-97.75 125.5,-97.75 125.5,-150.75"/>
<text text-anchor="start" x="8" y="-137.25" font-family="Helvetica,sans-Serif" font-size="10.00">fcarouge::benchmark</text>
<text text-anchor="start" x="8" y="-126" font-family="Helvetica,sans-Serif" font-size="10.00">::anonymous_namespace</text>
<text text-anchor="start" x="8" y="-114.75" font-family="Helvetica,sans-Serif" font-size="10.00">{update_linalg_xx0::cpp}</text>
<text text-anchor="middle" x="62.75" y="-103.5" font-family="Helvetica,sans-Serif" font-size="10.00">::bench</text>
</a>
</g>
</g>
<!-- Node2&#45;&gt;Node4 -->
<g id="edge3_Node000002_Node000004" class="edge">
<title>Node2&#45;&gt;Node4</title>
<g id="a_edge3_Node000002_Node000004"><a xlink:title=" ">
<path fill="none" stroke="#63b8ff" d="M155.43,-106.51C145.67,-108.39 135.6,-110.34 125.86,-112.23"/>
<polygon fill="#63b8ff" stroke="#63b8ff" points="156.07,-109.95 165.22,-104.61 154.74,-103.07 156.07,-109.95"/>
</a>
</g>
</g>
<!-- Node5 -->
<g id="Node000005" class="node">
<title>Node5</title>
<g id="a_Node000005"><a xlink:href="structstd_1_1formatter_3_01_filter_00_01_char_01_4.xhtml#a887dd3f3f177feadd1ca42785885897f" target="_top" xlink:title=" ">
<polygon fill="white" stroke="#666666" points="115.75,-79.5 9.75,-79.5 9.75,-49 115.75,-49 115.75,-79.5"/>
<text text-anchor="start" x="17.75" y="-66" font-family="Helvetica,sans-Serif" font-size="10.00">std::formatter&lt; Filter,</text>
<text text-anchor="middle" x="62.75" y="-54.75" font-family="Helvetica,sans-Serif" font-size="10.00"> Char &gt;::format</text>
</a>
</g>
</g>
<!-- Node2&#45;&gt;Node5 -->
<g id="edge4_Node000002_Node000005" class="edge">
<title>Node2&#45;&gt;Node5</title>
<g id="a_edge4_Node000002_Node000005"><a xlink:title=" ">
<path fill="none" stroke="#63b8ff" d="M155.43,-81.99C142.39,-79.47 128.79,-76.84 116.18,-74.4"/>
<polygon fill="#63b8ff" stroke="#63b8ff" points="154.74,-85.43 165.22,-83.89 156.07,-78.55 154.74,-85.43"/>
</a>
</g>
</g>
<!-- Node6 -->
<g id="Node000006" class="node">
<title>Node6</title>
<g id="a_Node000006"><a xlink:href="structfcarouge_1_1indexed_1_1matrix.xhtml#a585593c99406c287069fd5722e98a4b3" target="_top" xlink:title=" ">
<polygon fill="white" stroke="#666666" points="110.5,-30.5 15,-30.5 15,0 110.5,0 110.5,-30.5"/>
<text text-anchor="start" x="23" y="-17" font-family="Helvetica,sans-Serif" font-size="10.00">fcarouge::indexed::</text>
<text text-anchor="middle" x="62.75" y="-5.75" font-family="Helvetica,sans-Serif" font-size="10.00">matrix::matrix</text>
</a>
</g>
</g>
<!-- Node2&#45;&gt;Node6 -->
<g id="edge5_Node000002_Node000006" class="edge">
<title>Node2&#45;&gt;Node6</title>
<g id="a_edge5_Node000002_Node000006"><a xlink:title=" ">
<path fill="none" stroke="#63b8ff" d="M193.26,-78.18C174.8,-66.88 149.07,-51.78 125.5,-40.25 118.95,-37.05 111.89,-33.91 104.96,-31"/>
<polygon fill="#63b8ff" stroke="#63b8ff" points="191.32,-81.1 201.66,-83.39 195,-75.15 191.32,-81.1"/>
</a>
</g>
</g>
</g>
</svg>
</svg>

<style type='text/css'>
<![CDATA[
[data-mouse-over-selected='false'] { opacity: 0.7; }
[data-mouse-over-selected='true']  { opacity: 1.0; }
]]>
</style>
<script type="application/ecmascript"><![CDATA[
document.addEventListener('DOMContentLoaded', (event) => {
  highlightEdges();
  highlightAdjacentNodes();
});
]]></script>
</svg>
