<?xml version="1.0" encoding="UTF-8" standalone="no"?>
<!DOCTYPE svg PUBLIC "-//W3C//DTD SVG 1.1//EN"
 "http://www.w3.org/Graphics/SVG/1.1/DTD/svg11.dtd">
<!-- Generated by graphviz version 7.0.5 (20221223.1930)
 -->
<!-- Title: fcarouge::make_generator Pages: 1 -->
<svg width="470pt" height="248pt"
 viewBox="0.00 0.00 470.00 248.00" xmlns="http://www.w3.org/2000/svg" xmlns:xlink="http://www.w3.org/1999/xlink">
<g id="graph0" class="graph" transform="scale(1 1) rotate(0) translate(4 244)">
<title>fcarouge::make_generator</title>
<!-- Node1 -->
<g id="node1" class="node">
<title>Node1</title>
<g id="a_node1"><a xlink:title=" ">
<polygon fill="#999999" stroke="#666666" points="462,-111 334,-111 334,-92 462,-92 462,-111"/>
<text text-anchor="middle" x="398" y="-99" font-family="Helvetica,sans-Serif" font-size="10.00">fcarouge::make_generator</text>
</a>
</g>
</g>
<!-- Node2 -->
<g id="node2" class="node">
<title>Node2</title>
<g id="a_node2"><a xlink:href="structfcarouge_1_1matrix.xhtml#a3d43f3ebeab72104b65bc49131d293fc" target="_top" xlink:title=" ">
<polygon fill="white" stroke="#666666" points="289,-204 176,-204 176,-185 289,-185 289,-204"/>
<text text-anchor="middle" x="232.5" y="-192" font-family="Helvetica,sans-Serif" font-size="10.00">fcarouge::matrix::clone</text>
</a>
</g>
</g>
<!-- Node1&#45;&gt;Node2 -->
<g id="edge1" class="edge">
<title>Node1&#45;&gt;Node2</title>
<path fill="none" stroke="#63b8ff" d="M378.66,-118.82C359.79,-135.76 328.88,-161.19 298,-176.5 291.65,-179.65 284.66,-182.32 277.7,-184.56"/>
<polygon fill="#63b8ff" stroke="#63b8ff" points="380.78,-121.62 385.79,-112.28 376.05,-116.46 380.78,-121.62"/>
</g>
<!-- Node5 -->
<g id="node5" class="node">
<title>Node5</title>
<g id="a_node5"><a xlink:href="structfcarouge_1_1matrix.xhtml#a8faf72ffb586809e220a72311f55e047" target="_top" xlink:title=" ">
<polygon fill="white" stroke="#666666" points="292,-167 173,-167 173,-148 292,-148 292,-167"/>
<text text-anchor="middle" x="232.5" y="-155" font-family="Helvetica,sans-Serif" font-size="10.00">fcarouge::matrix::explicit</text>
</a>
</g>
</g>
<!-- Node1&#45;&gt;Node5 -->
<g id="edge5" class="edge">
<title>Node1&#45;&gt;Node5</title>
<path fill="none" stroke="#63b8ff" d="M362.72,-115.57C343.79,-123.11 319.77,-132.3 298,-139.5 289.5,-142.31 280.28,-145.06 271.54,-147.53"/>
<polygon fill="#63b8ff" stroke="#63b8ff" points="363.84,-118.89 371.82,-111.92 361.23,-112.4 363.84,-118.89"/>
</g>
<!-- Node6 -->
<g id="node6" class="node">
<title>Node6</title>
<g id="a_node6"><a xlink:href="structfcarouge_1_1matrix.xhtml#ae8d706f1fed5c4cfba4dfd3be19815c1" target="_top" xlink:title=" ">
<polygon fill="white" stroke="#666666" points="290.5,-130 174.5,-130 174.5,-111 290.5,-111 290.5,-130"/>
<text text-anchor="middle" x="232.5" y="-118" font-family="Helvetica,sans-Serif" font-size="10.00">fcarouge::matrix::matrix</text>
</a>
</g>
</g>
<!-- Node1&#45;&gt;Node6 -->
<g id="edge6" class="edge">
<title>Node1&#45;&gt;Node6</title>
<path fill="none" stroke="#63b8ff" d="M322.41,-110.17C311.84,-111.4 301.11,-112.64 290.93,-113.83"/>
<polygon fill="#63b8ff" stroke="#63b8ff" points="322.75,-113.65 332.28,-109.02 321.95,-106.7 322.75,-113.65"/>
</g>
<!-- Node7 -->
<g id="node7" class="node">
<title>Node7</title>
<g id="a_node7"><a xlink:href="structfcarouge_1_1matrix.xhtml#aa7e9a43560b35148793464e6db205ffd" target="_top" xlink:title=" ">
<polygon fill="white" stroke="#666666" points="298,-93 167,-93 167,-74 298,-74 298,-93"/>
<text text-anchor="middle" x="232.5" y="-81" font-family="Helvetica,sans-Serif" font-size="10.00">fcarouge::matrix::operator()</text>
</a>
</g>
</g>
<!-- Node1&#45;&gt;Node7 -->
<g id="edge7" class="edge">
<title>Node1&#45;&gt;Node7</title>
<path fill="none" stroke="#63b8ff" d="M322.52,-93.3C314.48,-92.42 306.35,-91.52 298.44,-90.65"/>
<polygon fill="#63b8ff" stroke="#63b8ff" points="321.96,-96.76 332.28,-94.38 322.73,-89.8 321.96,-96.76"/>
</g>
<!-- Node8 -->
<g id="node8" class="node">
<title>Node8</title>
<g id="a_node8"><a xlink:href="namespacefcarouge.xhtml#a84939a609e68330c2689aff14d978311" target="_top" xlink:title=" ">
<polygon fill="white" stroke="#666666" points="285.5,-56 179.5,-56 179.5,-37 285.5,-37 285.5,-56"/>
<text text-anchor="middle" x="232.5" y="-44" font-family="Helvetica,sans-Serif" font-size="10.00">fcarouge::operator==</text>
</a>
</g>
</g>
<!-- Node1&#45;&gt;Node8 -->
<g id="edge8" class="edge">
<title>Node1&#45;&gt;Node8</title>
<path fill="none" stroke="#63b8ff" d="M360.43,-87.59C341.83,-80.67 318.82,-72.34 298,-65.5 288.57,-62.4 278.3,-59.27 268.77,-56.46"/>
<polygon fill="#63b8ff" stroke="#63b8ff" points="359.09,-90.82 369.68,-91.05 361.54,-84.26 359.09,-90.82"/>
</g>
<!-- Node9 -->
<g id="node9" class="node">
<title>Node9</title>
<g id="a_node9"><a xlink:href="structfcarouge_1_1matrix.xhtml#acb50b9f741eb141a526e0271ea98d6c2" target="_top" xlink:title=" ">
<polygon fill="white" stroke="#666666" points="298,-19 167,-19 167,0 298,0 298,-19"/>
<text text-anchor="middle" x="232.5" y="-7" font-family="Helvetica,sans-Serif" font-size="10.00">fcarouge::matrix::operator[]</text>
</a>
</g>
</g>
<!-- Node1&#45;&gt;Node9 -->
<g id="edge9" class="edge">
<title>Node1&#45;&gt;Node9</title>
<path fill="none" stroke="#63b8ff" d="M377.65,-84.01C358.62,-67.61 328.11,-43.45 298,-28.5 290.89,-24.97 283.01,-21.97 275.26,-19.48"/>
<polygon fill="#63b8ff" stroke="#63b8ff" points="375.3,-86.6 385.13,-90.57 379.92,-81.34 375.3,-86.6"/>
</g>
<!-- Node3 -->
<g id="node3" class="node">
<title>Node3</title>
<g id="a_node3"><a xlink:href="namespacefcarouge.xhtml#a5f46009dfa013275132875c5be3ab85c" target="_top" xlink:title=" ">
<polygon fill="white" stroke="#666666" points="114.5,-222 16.5,-222 16.5,-203 114.5,-203 114.5,-222"/>
<text text-anchor="middle" x="65.5" y="-210" font-family="Helvetica,sans-Serif" font-size="10.00">fcarouge::operator*</text>
</a>
</g>
</g>
<!-- Node2&#45;&gt;Node3 -->
<g id="edge2" class="edge">
<title>Node2&#45;&gt;Node3</title>
<path fill="none" stroke="#63b8ff" d="M164.34,-201.83C147.76,-203.63 130.34,-205.54 114.86,-207.22"/>
<polygon fill="#63b8ff" stroke="#63b8ff" points="164.57,-205.32 174.13,-200.76 163.81,-198.36 164.57,-205.32"/>
</g>
<!-- Node4 -->
<g id="node4" class="node">
<title>Node4</title>
<g id="a_node4"><a xlink:href="structfcarouge_1_1matrix.xhtml#aef867f6ed87d203b1805512580ce95e0" target="_top" xlink:title=" ">
<polygon fill="white" stroke="#666666" points="131,-185 0,-185 0,-166 131,-166 131,-185"/>
<text text-anchor="middle" x="65.5" y="-173" font-family="Helvetica,sans-Serif" font-size="10.00">fcarouge::matrix::operator=</text>
</a>
</g>
</g>
<!-- Node2&#45;&gt;Node4 -->
<g id="edge4" class="edge">
<title>Node2&#45;&gt;Node4</title>
<path fill="none" stroke="#63b8ff" d="M164.45,-186.78C153.54,-185.52 142.27,-184.22 131.42,-182.98"/>
<polygon fill="#63b8ff" stroke="#63b8ff" points="163.8,-190.23 174.13,-187.89 164.6,-183.27 163.8,-190.23"/>
</g>
<!-- Node3&#45;&gt;Node3 -->
<g id="edge3" class="edge">
<title>Node3&#45;&gt;Node3</title>
<path fill="none" stroke="#63b8ff" d="M95.44,-233.1C91.99,-237.13 82.01,-240 65.5,-240 36.14,-240 27.43,-230.94 39.36,-222.37"/>
<polygon fill="#63b8ff" stroke="#63b8ff" points="98.79,-232.05 92.15,-223.79 92.19,-234.39 98.79,-232.05"/>
</g>
</g>
</svg>
