<?xml version="1.0" encoding="UTF-8" standalone="no"?>
<!DOCTYPE svg PUBLIC "-//W3C//DTD SVG 1.1//EN"
 "http://www.w3.org/Graphics/SVG/1.1/DTD/svg11.dtd">
<!-- Generated by graphviz version 7.0.5 (20221223.1930)
 -->
<!-- Title: fcarouge::operator+ Pages: 1 -->
<svg width="393pt" height="56pt"
 viewBox="0.00 0.00 393.00 56.22" xmlns="http://www.w3.org/2000/svg" xmlns:xlink="http://www.w3.org/1999/xlink">
<g id="graph0" class="graph" transform="scale(1 1) rotate(0) translate(4 52.22)">
<title>fcarouge::operator+</title>
<!-- Node1 -->
<g id="node1" class="node">
<title>Node1</title>
<g id="a_node1"><a xlink:title=" ">
<polygon fill="#999999" stroke="#666666" points="100,-47 0,-47 0,-28 100,-28 100,-47"/>
<text text-anchor="middle" x="50" y="-35" font-family="Helvetica,sans-Serif" font-size="10.00">fcarouge::operator+</text>
</a>
</g>
</g>
<!-- Node2 -->
<g id="node2" class="node">
<title>Node2</title>
<g id="a_node2"><a xlink:href="structfcarouge_1_1matrix.xhtml#ac6248dacd7be4fb05540b8ab2956cb7b" target="_top" xlink:title=" ">
<polygon fill="white" stroke="#666666" points="385,-47 272,-47 272,-28 385,-28 385,-47"/>
<text text-anchor="middle" x="328.5" y="-35" font-family="Helvetica,sans-Serif" font-size="10.00">fcarouge::matrix::begin</text>
</a>
</g>
</g>
<!-- Node1&#45;&gt;Node2 -->
<g id="edge1" class="edge">
<title>Node1&#45;&gt;Node2</title>
<path fill="none" stroke="#63b8ff" d="M100.37,-43.62C112.04,-44.82 124.44,-45.89 136,-46.5 180.38,-48.84 191.61,-48.68 236,-46.5 244,-46.11 252.38,-45.52 260.69,-44.84"/>
<polygon fill="#63b8ff" stroke="#63b8ff" points="260.76,-48.34 270.41,-43.98 260.14,-41.37 260.76,-48.34"/>
</g>
<!-- Node3 -->
<g id="node3" class="node">
<title>Node3</title>
<g id="a_node3"><a xlink:href="namespacefcarouge.xhtml#a214880fe1dfe8701212c14c9ece44013" target="_top" xlink:title=" ">
<polygon fill="white" stroke="#666666" points="236,-19 136,-19 136,0 236,0 236,-19"/>
<text text-anchor="middle" x="186" y="-7" font-family="Helvetica,sans-Serif" font-size="10.00">fcarouge::operator+</text>
</a>
</g>
</g>
<!-- Node1&#45;&gt;Node3 -->
<g id="edge2" class="edge">
<title>Node1&#45;&gt;Node3</title>
<path fill="none" stroke="#63b8ff" d="M98.62,-27.55C107.61,-25.67 117.1,-23.69 126.37,-21.75"/>
<polygon fill="#63b8ff" stroke="#63b8ff" points="126.98,-25.2 136.05,-19.73 125.55,-18.35 126.98,-25.2"/>
</g>
<!-- Node3&#45;&gt;Node2 -->
<g id="edge3" class="edge">
<title>Node3&#45;&gt;Node2</title>
<path fill="none" stroke="#63b8ff" d="M236.14,-19.29C245.91,-21.24 256.29,-23.31 266.41,-25.32"/>
<polygon fill="#63b8ff" stroke="#63b8ff" points="265.7,-28.75 276.19,-27.27 267.07,-21.89 265.7,-28.75"/>
</g>
<!-- Node3&#45;&gt;Node3 -->
<g id="edge4" class="edge">
<title>Node3&#45;&gt;Node3</title>
<path fill="none" stroke="#63b8ff" d="M164.71,-19.37C155,-27.94 162.09,-37 186,-37 199.07,-37 207.12,-34.29 210.14,-30.43"/>
<polygon fill="#63b8ff" stroke="#63b8ff" points="213.55,-29.65 207.67,-20.83 206.77,-31.39 213.55,-29.65"/>
</g>
</g>
</svg>
