<?xml version="1.0" encoding="UTF-8" standalone="no"?>
<!DOCTYPE svg PUBLIC "-//W3C//DTD SVG 1.1//EN"
 "http://www.w3.org/Graphics/SVG/1.1/DTD/svg11.dtd">
<!-- Generated by graphviz version 9.0.0 (20230911.1827)
 -->
<!-- Title: fcarouge::internal::estimate_uncertainty Pages: 1 -->
<svg width="265pt" height="124pt"
 viewBox="0.00 0.00 265.00 123.50" xmlns="http://www.w3.org/2000/svg" xmlns:xlink="http://www.w3.org/1999/xlink">

<svg id="main" version="1.1" xmlns="http://www.w3.org/2000/svg" xmlns:xlink="http://www.w3.org/1999/xlink" xml:space="preserve" onload="init(evt)">
<style type="text/css"><![CDATA[
.node, .edge {opacity: 0.7;}
.node.selected, .edge.selected {opacity: 1;}
.edge:hover path { stroke: red; }
.edge:hover polygon { stroke: red; fill: red; }
]]></style>
<script type="application/ecmascript" xlink:href="svg.min.js"/>
<svg id="graph" class="graph">
<g id="graph0" class="graph" transform="scale(1 1) rotate(0) translate(4 119.5)">
<title>fcarouge::internal::estimate_uncertainty</title>
<!-- Node1 -->
<g id="Node000001" class="node">
<title>Node1</title>
<g id="a_Node000001"><a xlink:title=" ">
<polygon fill="#999999" stroke="#666666" points="110.5,-63.5 0,-63.5 0,-33 110.5,-33 110.5,-63.5"/>
<text text-anchor="start" x="8" y="-50" font-family="Helvetica,sans-Serif" font-size="10.00">fcarouge::internal</text>
<text text-anchor="middle" x="55.25" y="-38.75" font-family="Helvetica,sans-Serif" font-size="10.00">::estimate_uncertainty</text>
</a>
</g>
</g>
<!-- Node2 -->
<g id="Node000002" class="node">
<title>Node2</title>
<g id="a_Node000002"><a xlink:href="namespacefcarouge_1_1internal.xhtml#a8f2c9f1d6c11710ebe51a102f09e170b" target="_top" xlink:title=" ">
<polygon fill="white" stroke="#666666" points="257,-97.5 146.5,-97.5 146.5,-67 257,-67 257,-97.5"/>
<text text-anchor="start" x="154.5" y="-84" font-family="Helvetica,sans-Serif" font-size="10.00">fcarouge::internal</text>
<text text-anchor="middle" x="201.75" y="-72.75" font-family="Helvetica,sans-Serif" font-size="10.00">::estimate_uncertainty</text>
</a>
</g>
</g>
<!-- Node1&#45;&gt;Node2 -->
<g id="edge1_Node000001_Node000002" class="edge">
<title>Node1&#45;&gt;Node2</title>
<g id="a_edge1_Node000001_Node000002"><a xlink:title=" ">
<path fill="none" stroke="#63b8ff" d="M110.88,-61.1C118.79,-62.97 127,-64.9 135.1,-66.8"/>
<polygon fill="#63b8ff" stroke="#63b8ff" points="134.03,-70.15 144.57,-69.03 135.64,-63.33 134.03,-70.15"/>
</a>
</g>
</g>
<!-- Node3 -->
<g id="Node000003" class="node">
<title>Node3</title>
<g id="a_Node000003"><a xlink:href="namespacefcarouge_1_1internal.xhtml#a665945f3d976759241bf85f4102a2d16" target="_top" xlink:title=" ">
<polygon fill="white" stroke="#666666" points="251.75,-30.5 151.75,-30.5 151.75,0 251.75,0 251.75,-30.5"/>
<text text-anchor="start" x="159.75" y="-17" font-family="Helvetica,sans-Serif" font-size="10.00">fcarouge::internal</text>
<text text-anchor="middle" x="201.75" y="-5.75" font-family="Helvetica,sans-Serif" font-size="10.00">::output_uncertainty</text>
</a>
</g>
</g>
<!-- Node1&#45;&gt;Node3 -->
<g id="edge3_Node000001_Node000003" class="edge">
<title>Node1&#45;&gt;Node3</title>
<g id="a_edge3_Node000001_Node000003"><a xlink:title=" ">
<path fill="none" stroke="#63b8ff" d="M110.88,-35.77C120.41,-33.6 130.39,-31.32 140.07,-29.11"/>
<polygon fill="#63b8ff" stroke="#63b8ff" points="140.83,-32.53 149.8,-26.89 139.27,-25.7 140.83,-32.53"/>
</a>
</g>
</g>
<!-- Node2&#45;&gt;Node2 -->
<g id="edge2_Node000002_Node000002" class="edge">
<title>Node2&#45;&gt;Node2</title>
<g id="a_edge2_Node000002_Node000002"><a xlink:title=" ">
<path fill="none" stroke="#63b8ff" d="M175.79,-97.99C170.49,-107.06 179.15,-115.5 201.75,-115.5 214.11,-115.5 222.3,-112.97 226.32,-109.2"/>
<polygon fill="#63b8ff" stroke="#63b8ff" points="229.77,-109.84 227.52,-99.49 222.82,-108.98 229.77,-109.84"/>
</a>
</g>
</g>
<!-- Node3&#45;&gt;Node3 -->
<g id="edge4_Node000003_Node000003" class="edge">
<title>Node3&#45;&gt;Node3</title>
<g id="a_edge4_Node000003_Node000003"><a xlink:title=" ">
<path fill="none" stroke="#63b8ff" d="M175.79,-30.99C170.49,-40.06 179.15,-48.5 201.75,-48.5 214.11,-48.5 222.3,-45.97 226.32,-42.2"/>
<polygon fill="#63b8ff" stroke="#63b8ff" points="229.77,-42.84 227.52,-32.49 222.82,-41.98 229.77,-42.84"/>
</a>
</g>
</g>
</g>
</svg>
</svg>

<style type='text/css'>
<![CDATA[
[data-mouse-over-selected='false'] { opacity: 0.7; }
[data-mouse-over-selected='true']  { opacity: 1.0; }
]]>
</style>
<script type="application/ecmascript"><![CDATA[
document.addEventListener('DOMContentLoaded', (event) => {
  highlightEdges();
  highlightAdjacentNodes();
});
]]></script>
</svg>
