<?xml version="1.0" encoding="UTF-8" standalone="no"?>
<!DOCTYPE svg PUBLIC "-//W3C//DTD SVG 1.1//EN"
 "http://www.w3.org/Graphics/SVG/1.1/DTD/svg11.dtd">
<!-- Generated by graphviz version 9.0.0 (20230911.1827)
 -->
<!-- Title: fcarouge::make_generator Pages: 1 -->
<svg width="468pt" height="230pt"
 viewBox="0.00 0.00 467.75 230.25" xmlns="http://www.w3.org/2000/svg" xmlns:xlink="http://www.w3.org/1999/xlink">

<svg id="main" version="1.1" xmlns="http://www.w3.org/2000/svg" xmlns:xlink="http://www.w3.org/1999/xlink" xml:space="preserve" onload="init(evt)">
<style type="text/css"><![CDATA[
.node, .edge {opacity: 0.7;}
.node.selected, .edge.selected {opacity: 1;}
.edge:hover path { stroke: red; }
.edge:hover polygon { stroke: red; fill: red; }
]]></style>
<script type="application/ecmascript" xlink:href="svg.min.js"/>
<svg id="graph" class="graph">
<g id="graph0" class="graph" transform="scale(1 1) rotate(0) translate(4 226.25)">
<title>fcarouge::make_generator</title>
<!-- Node1 -->
<g id="Node000001" class="node">
<title>Node1</title>
<g id="a_Node000001"><a xlink:title=" ">
<polygon fill="#999999" stroke="#666666" points="459.75,-111.25 332,-111.25 332,-92 459.75,-92 459.75,-111.25"/>
<text text-anchor="middle" x="395.88" y="-97.75" font-family="Helvetica,sans-Serif" font-size="10.00">fcarouge::make_generator</text>
</a>
</g>
</g>
<!-- Node2 -->
<g id="Node000002" class="node">
<title>Node2</title>
<g id="a_Node000002"><a xlink:href="structfcarouge_1_1matrix.xhtml#a3d43f3ebeab72104b65bc49131d293fc" target="_top" xlink:title=" ">
<polygon fill="white" stroke="#666666" points="287,-204.25 175,-204.25 175,-185 287,-185 287,-204.25"/>
<text text-anchor="middle" x="231" y="-190.75" font-family="Helvetica,sans-Serif" font-size="10.00">fcarouge::matrix::clone</text>
</a>
</g>
</g>
<!-- Node1&#45;&gt;Node2 -->
<g id="edge1_Node000001_Node000002" class="edge">
<title>Node1&#45;&gt;Node2</title>
<g id="a_edge1_Node000001_Node000002"><a xlink:title=" ">
<path fill="none" stroke="#63b8ff" d="M376.25,-119.2C357.38,-136.14 326.67,-161.37 296,-176.62 289.8,-179.71 282.99,-182.34 276.2,-184.55"/>
<polygon fill="#63b8ff" stroke="#63b8ff" points="378.39,-121.99 383.4,-112.66 373.66,-116.83 378.39,-121.99"/>
</a>
</g>
</g>
<!-- Node5 -->
<g id="Node000005" class="node">
<title>Node5</title>
<g id="a_Node000005"><a xlink:href="structfcarouge_1_1matrix.xhtml#a8faf72ffb586809e220a72311f55e047" target="_top" xlink:title=" ">
<polygon fill="white" stroke="#666666" points="290.38,-167.25 171.62,-167.25 171.62,-148 290.38,-148 290.38,-167.25"/>
<text text-anchor="middle" x="231" y="-153.75" font-family="Helvetica,sans-Serif" font-size="10.00">fcarouge::matrix::explicit</text>
</a>
</g>
</g>
<!-- Node1&#45;&gt;Node5 -->
<g id="edge4_Node000001_Node000005" class="edge">
<title>Node1&#45;&gt;Node5</title>
<g id="a_edge4_Node000001_Node000005"><a xlink:title=" ">
<path fill="none" stroke="#63b8ff" d="M360.25,-115.84C341.41,-123.34 317.59,-132.46 296,-139.62 287.67,-142.39 278.65,-145.1 270.08,-147.54"/>
<polygon fill="#63b8ff" stroke="#63b8ff" points="361.34,-119.17 369.32,-112.19 358.73,-112.67 361.34,-119.17"/>
</a>
</g>
</g>
<!-- Node6 -->
<g id="Node000006" class="node">
<title>Node6</title>
<g id="a_Node000006"><a xlink:href="structfcarouge_1_1matrix.xhtml#aa7e9a43560b35148793464e6db205ffd" target="_top" xlink:title=" ">
<polygon fill="white" stroke="#666666" points="296,-130.25 166,-130.25 166,-111 296,-111 296,-130.25"/>
<text text-anchor="middle" x="231" y="-116.75" font-family="Helvetica,sans-Serif" font-size="10.00">fcarouge::matrix::operator()</text>
</a>
</g>
</g>
<!-- Node1&#45;&gt;Node6 -->
<g id="edge5_Node000001_Node000006" class="edge">
<title>Node1&#45;&gt;Node6</title>
<g id="a_edge5_Node000001_Node000006"><a xlink:title=" ">
<path fill="none" stroke="#63b8ff" d="M320.59,-110.29C312.52,-111.23 304.36,-112.18 296.42,-113.11"/>
<polygon fill="#63b8ff" stroke="#63b8ff" points="320.87,-113.78 330.4,-109.15 320.06,-106.83 320.87,-113.78"/>
</a>
</g>
</g>
<!-- Node7 -->
<g id="Node000007" class="node">
<title>Node7</title>
<g id="a_Node000007"><a xlink:href="structfcarouge_1_1matrix.xhtml#affe6fae4cb1cfbfb7a46b135e835361f" target="_top" xlink:title=" ">
<polygon fill="white" stroke="#666666" points="296,-93.25 166,-93.25 166,-74 296,-74 296,-93.25"/>
<text text-anchor="middle" x="231" y="-79.75" font-family="Helvetica,sans-Serif" font-size="10.00">fcarouge::matrix::operator()</text>
</a>
</g>
</g>
<!-- Node1&#45;&gt;Node7 -->
<g id="edge6_Node000001_Node000007" class="edge">
<title>Node1&#45;&gt;Node7</title>
<g id="a_edge6_Node000001_Node000007"><a xlink:title=" ">
<path fill="none" stroke="#63b8ff" d="M320.59,-93.42C312.52,-92.52 304.36,-91.62 296.42,-90.74"/>
<polygon fill="#63b8ff" stroke="#63b8ff" points="320.07,-96.88 330.4,-94.5 320.84,-89.92 320.07,-96.88"/>
</a>
</g>
</g>
<!-- Node8 -->
<g id="Node000008" class="node">
<title>Node8</title>
<g id="a_Node000008"><a xlink:href="namespacefcarouge.xhtml#a84939a609e68330c2689aff14d978311" target="_top" xlink:title=" ">
<polygon fill="white" stroke="#666666" points="283.62,-56.25 178.38,-56.25 178.38,-37 283.62,-37 283.62,-56.25"/>
<text text-anchor="middle" x="231" y="-42.75" font-family="Helvetica,sans-Serif" font-size="10.00">fcarouge::operator==</text>
</a>
</g>
</g>
<!-- Node1&#45;&gt;Node8 -->
<g id="edge7_Node000001_Node000008" class="edge">
<title>Node1&#45;&gt;Node8</title>
<g id="a_edge7_Node000001_Node000008"><a xlink:title=" ">
<path fill="none" stroke="#63b8ff" d="M359.19,-87.45C340.5,-80.23 317.16,-71.55 296,-64.62 287.55,-61.86 278.4,-59.13 269.72,-56.67"/>
<polygon fill="#63b8ff" stroke="#63b8ff" points="357.89,-90.69 368.47,-91.06 360.43,-84.17 357.89,-90.69"/>
</a>
</g>
</g>
<!-- Node9 -->
<g id="Node000009" class="node">
<title>Node9</title>
<g id="a_Node000009"><a xlink:href="structfcarouge_1_1matrix.xhtml#acb50b9f741eb141a526e0271ea98d6c2" target="_top" xlink:title=" ">
<polygon fill="white" stroke="#666666" points="296,-19.25 166,-19.25 166,0 296,0 296,-19.25"/>
<text text-anchor="middle" x="231" y="-5.75" font-family="Helvetica,sans-Serif" font-size="10.00">fcarouge::matrix::operator[]</text>
</a>
</g>
</g>
<!-- Node1&#45;&gt;Node9 -->
<g id="edge8_Node000001_Node000009" class="edge">
<title>Node1&#45;&gt;Node9</title>
<g id="a_edge8_Node000001_Node000009"><a xlink:title=" ">
<path fill="none" stroke="#63b8ff" d="M375.95,-84.07C357.02,-67.37 326.43,-42.64 296,-27.62 289.79,-24.56 282.97,-21.94 276.18,-19.73"/>
<polygon fill="#63b8ff" stroke="#63b8ff" points="373.59,-86.65 383.36,-90.74 378.27,-81.45 373.59,-86.65"/>
</a>
</g>
</g>
<!-- Node3 -->
<g id="Node000003" class="node">
<title>Node3</title>
<g id="a_Node000003"><a xlink:href="structfcarouge_1_1matrix.xhtml#aef867f6ed87d203b1805512580ce95e0" target="_top" xlink:title=" ">
<polygon fill="white" stroke="#666666" points="130,-222.25 0,-222.25 0,-203 130,-203 130,-222.25"/>
<text text-anchor="middle" x="65" y="-208.75" font-family="Helvetica,sans-Serif" font-size="10.00">fcarouge::matrix::operator=</text>
</a>
</g>
</g>
<!-- Node2&#45;&gt;Node3 -->
<g id="edge2_Node000002_Node000003" class="edge">
<title>Node2&#45;&gt;Node3</title>
<g id="a_edge2_Node000002_Node000003"><a xlink:title=" ">
<path fill="none" stroke="#63b8ff" d="M163.64,-201.91C152.63,-203.12 141.23,-204.37 130.28,-205.57"/>
<polygon fill="#63b8ff" stroke="#63b8ff" points="163.87,-205.4 173.43,-200.83 163.11,-198.45 163.87,-205.4"/>
</a>
</g>
</g>
<!-- Node4 -->
<g id="Node000004" class="node">
<title>Node4</title>
<g id="a_Node000004"><a xlink:href="structfcarouge_1_1matrix.xhtml#ab3ac05d0aeb1057133c6432fb10e59ee" target="_top" xlink:title=" ">
<polygon fill="white" stroke="#666666" points="130,-185.25 0,-185.25 0,-166 130,-166 130,-185.25"/>
<text text-anchor="middle" x="65" y="-171.75" font-family="Helvetica,sans-Serif" font-size="10.00">fcarouge::matrix::operator=</text>
</a>
</g>
</g>
<!-- Node2&#45;&gt;Node4 -->
<g id="edge3_Node000002_Node000004" class="edge">
<title>Node2&#45;&gt;Node4</title>
<g id="a_edge3_Node000002_Node000004"><a xlink:title=" ">
<path fill="none" stroke="#63b8ff" d="M163.64,-186.94C152.63,-185.66 141.23,-184.34 130.28,-183.07"/>
<polygon fill="#63b8ff" stroke="#63b8ff" points="163.09,-190.4 173.43,-188.07 163.9,-183.44 163.09,-190.4"/>
</a>
</g>
</g>
</g>
</svg>
</svg>

<style type='text/css'>
<![CDATA[
[data-mouse-over-selected='false'] { opacity: 0.7; }
[data-mouse-over-selected='true']  { opacity: 1.0; }
]]>
</style>
<script type="application/ecmascript"><![CDATA[
document.addEventListener('DOMContentLoaded', (event) => {
  highlightEdges();
  highlightAdjacentNodes();
});
]]></script>
</svg>
