<?xml version="1.0" encoding="UTF-8" standalone="no"?>
<!DOCTYPE svg PUBLIC "-//W3C//DTD SVG 1.1//EN"
 "http://www.w3.org/Graphics/SVG/1.1/DTD/svg11.dtd">
<!-- Generated by graphviz version 3.0.0 (20220413.0242)
 -->
<!-- Title: fcarouge::internal::for_constexpr Pages: 1 -->
<svg width="296pt" height="171pt"
 viewBox="0.00 0.00 296.00 170.50" xmlns="http://www.w3.org/2000/svg" xmlns:xlink="http://www.w3.org/1999/xlink">
<g id="graph0" class="graph" transform="scale(1 1) rotate(0) translate(4 166.5)">
<title>fcarouge::internal::for_constexpr</title>
<polygon fill="white" stroke="transparent" points="-4,4 -4,-166.5 292,-166.5 292,4 -4,4"/>
<!-- Node1 -->
<g id="node1" class="node">
<title>Node1</title>
<g id="a_node1"><a xlink:title=" ">
<polygon fill="#bfbfbf" stroke="black" points="198,-83 198,-113 288,-113 288,-83 198,-83"/>
<text text-anchor="start" x="206" y="-101" font-family="Helvetica,sans-Serif" font-size="10.00">fcarouge::internal</text>
<text text-anchor="middle" x="243" y="-90" font-family="Helvetica,sans-Serif" font-size="10.00">::for_constexpr</text>
</a>
</g>
</g>
<!-- Node2 -->
<g id="node2" class="node">
<title>Node2</title>
<g id="a_node2"><a xlink:href="namespacefcarouge_1_1eigen_1_1benchmark.xhtml#a897fb328e6487b45ced0627b80b519d8" target="_top" xlink:title=" ">
<polygon fill="white" stroke="black" points="14,-132 14,-162 148,-162 148,-132 14,-132"/>
<text text-anchor="start" x="22" y="-150" font-family="Helvetica,sans-Serif" font-size="10.00">fcarouge::eigen::benchmark</text>
<text text-anchor="middle" x="81" y="-139" font-family="Helvetica,sans-Serif" font-size="10.00">::eigen_predict</text>
</a>
</g>
</g>
<!-- Node1&#45;&gt;Node2 -->
<g id="edge1" class="edge">
<title>Node1&#45;&gt;Node2</title>
<path fill="none" stroke="midnightblue" d="M187.94,-114.99C179.27,-117.68 170.39,-120.43 162,-123 152.43,-125.93 142.21,-129.02 132.38,-131.98"/>
<polygon fill="midnightblue" stroke="midnightblue" points="189.09,-118.29 197.6,-111.98 187.01,-111.61 189.09,-118.29"/>
</g>
<!-- Node3 -->
<g id="node3" class="node">
<title>Node3</title>
<g id="a_node3"><a xlink:href="namespacefcarouge_1_1eigen_1_1benchmark.xhtml#aca97da7b0de714139cb1812d85859063" target="_top" xlink:title=" ">
<polygon fill="white" stroke="black" points="14,-83 14,-113 148,-113 148,-83 14,-83"/>
<text text-anchor="start" x="22" y="-101" font-family="Helvetica,sans-Serif" font-size="10.00">fcarouge::eigen::benchmark</text>
<text text-anchor="middle" x="81" y="-90" font-family="Helvetica,sans-Serif" font-size="10.00">::eigen_update</text>
</a>
</g>
</g>
<!-- Node1&#45;&gt;Node3 -->
<g id="edge2" class="edge">
<title>Node1&#45;&gt;Node3</title>
<path fill="none" stroke="midnightblue" d="M187.49,-98C174.85,-98 161.26,-98 148.18,-98"/>
<polygon fill="midnightblue" stroke="midnightblue" points="187.86,-101.5 197.86,-98 187.86,-94.5 187.86,-101.5"/>
</g>
<!-- Node4 -->
<g id="node4" class="node">
<title>Node4</title>
<g id="a_node4"><a xlink:href="structstd_1_1formatter_3_01fcarouge_1_1kalman_3_01_state_00_01_output_00_01_input_00_01_transpos347c07d1ead6c2934c070de80d9bcef0.xhtml#ab21c42549c427378476fe7890808d00c" target="_top" xlink:title=" ">
<polygon fill="white" stroke="black" points="0,-0.5 0,-63.5 162,-63.5 162,-0.5 0,-0.5"/>
<text text-anchor="start" x="8" y="-51.5" font-family="Helvetica,sans-Serif" font-size="10.00">std::formatter&lt; fcarouge</text>
<text text-anchor="start" x="8" y="-40.5" font-family="Helvetica,sans-Serif" font-size="10.00">::kalman&lt; State, Output,</text>
<text text-anchor="start" x="8" y="-29.5" font-family="Helvetica,sans-Serif" font-size="10.00"> Input, Transpose, Divide,</text>
<text text-anchor="start" x="8" y="-18.5" font-family="Helvetica,sans-Serif" font-size="10.00"> Identity, UpdateTypes, Prediction</text>
<text text-anchor="middle" x="81" y="-7.5" font-family="Helvetica,sans-Serif" font-size="10.00">Types &gt;, Char &gt;::format</text>
</a>
</g>
</g>
<!-- Node1&#45;&gt;Node4 -->
<g id="edge3" class="edge">
<title>Node1&#45;&gt;Node4</title>
<path fill="none" stroke="midnightblue" d="M195.82,-78.95C184.18,-74.15 171.37,-68.86 158.67,-63.63"/>
<polygon fill="midnightblue" stroke="midnightblue" points="194.71,-82.28 205.29,-82.86 197.38,-75.81 194.71,-82.28"/>
</g>
</g>
</svg>
