<?xml version="1.0" encoding="UTF-8" standalone="no"?>
<!DOCTYPE svg PUBLIC "-//W3C//DTD SVG 1.1//EN"
 "http://www.w3.org/Graphics/SVG/1.1/DTD/svg11.dtd">
<!-- Generated by graphviz version 9.0.0 (20230911.1827)
 -->
<!-- Title: fcarouge::internal::estimate_uncertainty Pages: 1 -->
<svg width="265pt" height="88pt"
 viewBox="0.00 0.00 265.00 87.50" xmlns="http://www.w3.org/2000/svg" xmlns:xlink="http://www.w3.org/1999/xlink">
<g id="graph0" class="graph" transform="scale(1 1) rotate(0) translate(4 83.5)">
<title>fcarouge::internal::estimate_uncertainty</title>
<!-- Node1 -->
<g id="Node000001" class="node">
<title>Node1</title>
<g id="a_Node000001"><a xlink:title=" ">
<polygon fill="#999999" stroke="#666666" points="257,-54.5 146.5,-54.5 146.5,-24 257,-24 257,-54.5"/>
<text text-anchor="start" x="154.5" y="-41" font-family="Helvetica,sans-Serif" font-size="10.00">fcarouge::internal</text>
<text text-anchor="middle" x="201.75" y="-29.75" font-family="Helvetica,sans-Serif" font-size="10.00">::estimate_uncertainty</text>
</a>
</g>
</g>
<!-- Node1&#45;&gt;Node1 -->
<g id="edge1_Node000001_Node000001" class="edge">
<title>Node1&#45;&gt;Node1</title>
<g id="a_edge1_Node000001_Node000001"><a xlink:title=" ">
<path fill="none" stroke="#63b8ff" d="M226.32,-66.2C222.3,-69.97 214.11,-72.5 201.75,-72.5 179.15,-72.5 170.49,-64.06 175.79,-54.99"/>
<polygon fill="#63b8ff" stroke="#63b8ff" points="229.77,-66.84 227.52,-56.49 222.82,-65.98 229.77,-66.84"/>
</a>
</g>
</g>
<!-- Node2 -->
<g id="Node000002" class="node">
<title>Node2</title>
<g id="a_Node000002"><a xlink:href="namespacefcarouge_1_1internal.xhtml#a7213754d98a49db89e229e2edd49b6e1" target="_top" xlink:title=" ">
<polygon fill="white" stroke="#666666" points="110.5,-79.5 0,-79.5 0,-49 110.5,-49 110.5,-79.5"/>
<text text-anchor="start" x="8" y="-66" font-family="Helvetica,sans-Serif" font-size="10.00">fcarouge::internal</text>
<text text-anchor="middle" x="55.25" y="-54.75" font-family="Helvetica,sans-Serif" font-size="10.00">::estimate_uncertainty</text>
</a>
</g>
</g>
<!-- Node1&#45;&gt;Node2 -->
<g id="edge2_Node000001_Node000002" class="edge">
<title>Node1&#45;&gt;Node2</title>
<g id="a_edge2_Node000001_Node000002"><a xlink:title=" ">
<path fill="none" stroke="#63b8ff" d="M134.91,-50.64C126.9,-52.03 118.78,-53.43 110.96,-54.79"/>
<polygon fill="#63b8ff" stroke="#63b8ff" points="135.37,-54.11 144.63,-48.96 134.18,-47.22 135.37,-54.11"/>
</a>
</g>
</g>
<!-- Node3 -->
<g id="Node000003" class="node">
<title>Node3</title>
<g id="a_Node000003"><a xlink:href="namespacefcarouge_1_1internal.xhtml#ab813a4faf91fc71b236215078cc26fc8" target="_top" xlink:title=" ">
<polygon fill="white" stroke="#666666" points="100,-30.5 10.5,-30.5 10.5,0 100,0 100,-30.5"/>
<text text-anchor="start" x="18.5" y="-17" font-family="Helvetica,sans-Serif" font-size="10.00">fcarouge::internal</text>
<text text-anchor="middle" x="55.25" y="-5.75" font-family="Helvetica,sans-Serif" font-size="10.00">::state</text>
</a>
</g>
</g>
<!-- Node1&#45;&gt;Node3 -->
<g id="edge3_Node000001_Node000003" class="edge">
<title>Node1&#45;&gt;Node3</title>
<g id="a_edge3_Node000001_Node000003"><a xlink:title=" ">
<path fill="none" stroke="#63b8ff" d="M134.93,-28.32C123.15,-26.36 111.14,-24.37 100.16,-22.54"/>
<polygon fill="#63b8ff" stroke="#63b8ff" points="134.19,-31.74 144.63,-29.93 135.34,-24.84 134.19,-31.74"/>
</a>
</g>
</g>
</g>
</svg>
