<?xml version="1.0" encoding="UTF-8" standalone="no"?>
<!DOCTYPE svg PUBLIC "-//W3C//DTD SVG 1.1//EN"
 "http://www.w3.org/Graphics/SVG/1.1/DTD/svg11.dtd">
<!-- Generated by graphviz version 9.0.0 (20230911.1827)
 -->
<!-- Title: fcarouge::internal::state_transition Pages: 1 -->
<svg width="223pt" height="124pt"
 viewBox="0.00 0.00 223.00 123.50" xmlns="http://www.w3.org/2000/svg" xmlns:xlink="http://www.w3.org/1999/xlink">
<g id="graph0" class="graph" transform="scale(1 1) rotate(0) translate(4 119.5)">
<title>fcarouge::internal::state_transition</title>
<!-- Node1 -->
<g id="Node000001" class="node">
<title>Node1</title>
<g id="a_Node000001"><a xlink:title=" ">
<polygon fill="#999999" stroke="#666666" points="89.5,-63.5 0,-63.5 0,-33 89.5,-33 89.5,-63.5"/>
<text text-anchor="start" x="8" y="-50" font-family="Helvetica,sans-Serif" font-size="10.00">fcarouge::internal</text>
<text text-anchor="middle" x="44.75" y="-38.75" font-family="Helvetica,sans-Serif" font-size="10.00">::state_transition</text>
</a>
</g>
</g>
<!-- Node2 -->
<g id="Node000002" class="node">
<title>Node2</title>
<g id="a_Node000002"><a xlink:href="namespacefcarouge_1_1internal.xhtml#ab441fe9a9ee342227522822f5245e2a2" target="_top" xlink:title=" ">
<polygon fill="white" stroke="#666666" points="215,-97.5 125.5,-97.5 125.5,-67 215,-67 215,-97.5"/>
<text text-anchor="start" x="133.5" y="-84" font-family="Helvetica,sans-Serif" font-size="10.00">fcarouge::internal</text>
<text text-anchor="middle" x="170.25" y="-72.75" font-family="Helvetica,sans-Serif" font-size="10.00">::input_control</text>
</a>
</g>
</g>
<!-- Node1&#45;&gt;Node2 -->
<g id="edge1_Node000001_Node000002" class="edge">
<title>Node1&#45;&gt;Node2</title>
<g id="a_edge1_Node000001_Node000002"><a xlink:title=" ">
<path fill="none" stroke="#63b8ff" d="M89.99,-60.43C97.89,-62.6 106.2,-64.89 114.36,-67.14"/>
<polygon fill="#63b8ff" stroke="#63b8ff" points="113.29,-70.47 123.86,-69.75 115.15,-63.73 113.29,-70.47"/>
</a>
</g>
</g>
<!-- Node3 -->
<g id="Node000003" class="node">
<title>Node3</title>
<g id="a_Node000003"><a xlink:href="namespacefcarouge_1_1internal.xhtml#a198bcbdb5521548ddb61317e21ff8f1f" target="_top" xlink:title=" ">
<polygon fill="white" stroke="#666666" points="215,-30.5 125.5,-30.5 125.5,0 215,0 215,-30.5"/>
<text text-anchor="start" x="133.5" y="-17" font-family="Helvetica,sans-Serif" font-size="10.00">fcarouge::internal</text>
<text text-anchor="middle" x="170.25" y="-5.75" font-family="Helvetica,sans-Serif" font-size="10.00">::state_transition</text>
</a>
</g>
</g>
<!-- Node1&#45;&gt;Node3 -->
<g id="edge3_Node000001_Node000003" class="edge">
<title>Node1&#45;&gt;Node3</title>
<g id="a_edge3_Node000001_Node000003"><a xlink:title=" ">
<path fill="none" stroke="#63b8ff" d="M89.99,-36.43C97.89,-34.32 106.2,-32.1 114.36,-29.92"/>
<polygon fill="#63b8ff" stroke="#63b8ff" points="115.1,-33.34 123.86,-27.38 113.29,-26.58 115.1,-33.34"/>
</a>
</g>
</g>
<!-- Node2&#45;&gt;Node2 -->
<g id="edge2_Node000002_Node000002" class="edge">
<title>Node2&#45;&gt;Node2</title>
<g id="a_edge2_Node000002_Node000002"><a xlink:title=" ">
<path fill="none" stroke="#63b8ff" d="M148.01,-97.99C143.47,-107.06 150.89,-115.5 170.25,-115.5 180.84,-115.5 187.86,-112.97 191.3,-109.2"/>
<polygon fill="#63b8ff" stroke="#63b8ff" points="194.75,-109.8 192.33,-99.49 187.79,-109.06 194.75,-109.8"/>
</a>
</g>
</g>
<!-- Node3&#45;&gt;Node3 -->
<g id="edge4_Node000003_Node000003" class="edge">
<title>Node3&#45;&gt;Node3</title>
<g id="a_edge4_Node000003_Node000003"><a xlink:title=" ">
<path fill="none" stroke="#63b8ff" d="M148.01,-30.99C143.47,-40.06 150.89,-48.5 170.25,-48.5 180.84,-48.5 187.86,-45.97 191.3,-42.2"/>
<polygon fill="#63b8ff" stroke="#63b8ff" points="194.75,-42.8 192.33,-32.49 187.79,-42.06 194.75,-42.8"/>
</a>
</g>
</g>
</g>
</svg>
