<?xml version="1.0" encoding="UTF-8" standalone="no"?>
<!DOCTYPE svg PUBLIC "-//W3C//DTD SVG 1.1//EN"
 "http://www.w3.org/Graphics/SVG/1.1/DTD/svg11.dtd">
<!-- Generated by graphviz version 2.49.3 (20211027.1534)
 -->
<!-- Title: benchmark/predict1x1x0.cpp Pages: 1 -->
<svg width="552pt" height="263pt"
 viewBox="0.00 0.00 552.14 263.00" xmlns="http://www.w3.org/2000/svg" xmlns:xlink="http://www.w3.org/1999/xlink">
<g id="graph0" class="graph" transform="scale(1 1) rotate(0) translate(4 259)">
<title>benchmark/predict1x1x0.cpp</title>
<polygon fill="white" stroke="transparent" points="-4,4 -4,-259 548.14,-259 548.14,4 -4,4"/>
<!-- Node1 -->
<g id="node1" class="node">
<title>Node1</title>
<g id="a_node1"><a xlink:title=" ">
<polygon fill="#bfbfbf" stroke="black" points="196,-235.5 196,-254.5 336,-254.5 336,-235.5 196,-235.5"/>
<text text-anchor="middle" x="266" y="-242.5" font-family="Helvetica,sans-Serif" font-size="10.00">benchmark/predict1x1x0.cpp</text>
</a>
</g>
</g>
<!-- Node2 -->
<g id="node2" class="node">
<title>Node2</title>
<g id="a_node2"><a xlink:href="benchmark_8hpp.xhtml" target="_top" xlink:title="Benchmarking support.">
<polygon fill="white" stroke="black" points="51.5,-168.5 51.5,-198.5 156.5,-198.5 156.5,-168.5 51.5,-168.5"/>
<text text-anchor="start" x="59.5" y="-186.5" font-family="Helvetica,sans-Serif" font-size="10.00">fcarouge/benchmark</text>
<text text-anchor="middle" x="104" y="-175.5" font-family="Helvetica,sans-Serif" font-size="10.00">/benchmark.hpp</text>
</a>
</g>
</g>
<!-- Node1&#45;&gt;Node2 -->
<g id="edge1" class="edge">
<title>Node1&#45;&gt;Node2</title>
<path fill="none" stroke="midnightblue" d="M242.79,-235.48C219.11,-226.78 181.67,-213.03 151.64,-202"/>
<polygon fill="midnightblue" stroke="midnightblue" points="152.77,-198.69 142.18,-198.52 150.36,-205.26 152.77,-198.69"/>
</g>
<!-- Node3 -->
<g id="node3" class="node">
<title>Node3</title>
<g id="a_node3"><a xlink:title=" ">
<polygon fill="white" stroke="#bfbfbf" points="0,-112.5 0,-131.5 46,-131.5 46,-112.5 0,-112.5"/>
<text text-anchor="middle" x="23" y="-119.5" font-family="Helvetica,sans-Serif" font-size="10.00">chrono</text>
</a>
</g>
</g>
<!-- Node1&#45;&gt;Node3 -->
<g id="edge19" class="edge">
<title>Node1&#45;&gt;Node3</title>
<path fill="none" stroke="midnightblue" d="M195.93,-238.06C138.69,-231.77 63.81,-219.81 42,-199 26.58,-184.29 22.92,-159.12 22.4,-141.8"/>
<polygon fill="midnightblue" stroke="midnightblue" points="25.9,-141.75 22.42,-131.74 18.9,-141.74 25.9,-141.75"/>
</g>
<!-- Node5 -->
<g id="node5" class="node">
<title>Node5</title>
<g id="a_node5"><a xlink:href="kalman_8hpp.xhtml" target="_top" xlink:title="The main Kalman filter class.">
<polygon fill="white" stroke="black" points="212.5,-174 212.5,-193 319.5,-193 319.5,-174 212.5,-174"/>
<text text-anchor="middle" x="266" y="-181" font-family="Helvetica,sans-Serif" font-size="10.00">fcarouge/kalman.hpp</text>
</a>
</g>
</g>
<!-- Node1&#45;&gt;Node5 -->
<g id="edge4" class="edge">
<title>Node1&#45;&gt;Node5</title>
<path fill="none" stroke="midnightblue" d="M266,-235.48C266,-227.08 266,-213.98 266,-203.16"/>
<polygon fill="midnightblue" stroke="midnightblue" points="269.5,-203.01 266,-193.01 262.5,-203.01 269.5,-203.01"/>
</g>
<!-- Node13 -->
<g id="node13" class="node">
<title>Node13</title>
<g id="a_node13"><a xlink:title=" ">
<polygon fill="white" stroke="#bfbfbf" points="337.5,-174 337.5,-193 460.5,-193 460.5,-174 337.5,-174"/>
<text text-anchor="middle" x="399" y="-181" font-family="Helvetica,sans-Serif" font-size="10.00">benchmark/benchmark.h</text>
</a>
</g>
</g>
<!-- Node1&#45;&gt;Node13 -->
<g id="edge17" class="edge">
<title>Node1&#45;&gt;Node13</title>
<path fill="none" stroke="midnightblue" d="M285.06,-235.48C307.47,-225.45 344.91,-208.7 370.71,-197.15"/>
<polygon fill="midnightblue" stroke="midnightblue" points="372.28,-200.29 379.98,-193.01 369.42,-193.9 372.28,-200.29"/>
</g>
<!-- Node14 -->
<g id="node14" class="node">
<title>Node14</title>
<g id="a_node14"><a xlink:title=" ">
<polygon fill="white" stroke="#bfbfbf" points="479,-174 479,-193 535,-193 535,-174 479,-174"/>
<text text-anchor="middle" x="507" y="-181" font-family="Helvetica,sans-Serif" font-size="10.00">algorithm</text>
</a>
</g>
</g>
<!-- Node1&#45;&gt;Node14 -->
<g id="edge18" class="edge">
<title>Node1&#45;&gt;Node14</title>
<path fill="none" stroke="midnightblue" d="M314.78,-235.47C356.45,-227.65 417.78,-214.89 470,-199 472.43,-198.26 474.92,-197.44 477.41,-196.57"/>
<polygon fill="midnightblue" stroke="midnightblue" points="478.69,-199.82 486.85,-193.06 476.25,-193.26 478.69,-199.82"/>
</g>
<!-- Node2&#45;&gt;Node3 -->
<g id="edge2" class="edge">
<title>Node2&#45;&gt;Node3</title>
<path fill="none" stroke="midnightblue" d="M84.8,-168.4C72.18,-159.13 55.71,-147.03 42.94,-137.65"/>
<polygon fill="midnightblue" stroke="midnightblue" points="44.92,-134.76 34.79,-131.66 40.77,-140.4 44.92,-134.76"/>
</g>
<!-- Node4 -->
<g id="node4" class="node">
<title>Node4</title>
<g id="a_node4"><a xlink:title=" ">
<polygon fill="white" stroke="#bfbfbf" points="255,-0.5 255,-19.5 317,-19.5 317,-0.5 255,-0.5"/>
<text text-anchor="middle" x="286" y="-7.5" font-family="Helvetica,sans-Serif" font-size="10.00">type_traits</text>
</a>
</g>
</g>
<!-- Node2&#45;&gt;Node4 -->
<g id="edge3" class="edge">
<title>Node2&#45;&gt;Node4</title>
<path fill="none" stroke="midnightblue" d="M100.1,-168.48C97.51,-158.42 94.34,-144.49 93,-132 89.16,-96.36 92.43,-78.9 120,-56 155.33,-26.65 208.13,-16.33 244.66,-12.76"/>
<polygon fill="midnightblue" stroke="midnightblue" points="245.3,-16.22 254.96,-11.89 244.71,-9.24 245.3,-16.22"/>
</g>
<!-- Node5&#45;&gt;Node4 -->
<g id="edge15" class="edge">
<title>Node5&#45;&gt;Node4</title>
<path fill="none" stroke="midnightblue" d="M261.87,-173.91C252.42,-153.03 231.24,-98.24 247,-56 251.17,-44.81 259.52,-34.56 267.42,-26.68"/>
<polygon fill="midnightblue" stroke="midnightblue" points="270.06,-29 275.01,-19.63 265.3,-23.87 270.06,-29"/>
</g>
<!-- Node6 -->
<g id="node6" class="node">
<title>Node6</title>
<g id="a_node6"><a xlink:href="format_8hpp.xhtml" target="_top" xlink:title=" ">
<polygon fill="white" stroke="black" points="102.5,-112.5 102.5,-131.5 199.5,-131.5 199.5,-112.5 102.5,-112.5"/>
<text text-anchor="middle" x="151" y="-119.5" font-family="Helvetica,sans-Serif" font-size="10.00">internal/format.hpp</text>
</a>
</g>
</g>
<!-- Node5&#45;&gt;Node6 -->
<g id="edge5" class="edge">
<title>Node5&#45;&gt;Node6</title>
<path fill="none" stroke="midnightblue" d="M249.52,-173.98C230.39,-164.08 198.63,-147.64 176.35,-136.12"/>
<polygon fill="midnightblue" stroke="midnightblue" points="177.94,-133 167.45,-131.51 174.72,-139.21 177.94,-133"/>
</g>
<!-- Node8 -->
<g id="node8" class="node">
<title>Node8</title>
<g id="a_node8"><a xlink:href="internal_2kalman_8hpp.xhtml" target="_top" xlink:title=" ">
<polygon fill="white" stroke="black" points="294.5,-112.5 294.5,-131.5 395.5,-131.5 395.5,-112.5 294.5,-112.5"/>
<text text-anchor="middle" x="345" y="-119.5" font-family="Helvetica,sans-Serif" font-size="10.00">internal/kalman.hpp</text>
</a>
</g>
</g>
<!-- Node5&#45;&gt;Node8 -->
<g id="edge7" class="edge">
<title>Node5&#45;&gt;Node8</title>
<path fill="none" stroke="midnightblue" d="M277.32,-173.98C289.87,-164.52 310.35,-149.1 325.5,-137.69"/>
<polygon fill="midnightblue" stroke="midnightblue" points="327.82,-140.32 333.7,-131.51 323.61,-134.73 327.82,-140.32"/>
</g>
<!-- Node9 -->
<g id="node9" class="node">
<title>Node9</title>
<g id="a_node9"><a xlink:href="utility_8hpp.xhtml" target="_top" xlink:title=" ">
<polygon fill="white" stroke="black" points="372.5,-56.5 372.5,-75.5 429.5,-75.5 429.5,-56.5 372.5,-56.5"/>
<text text-anchor="middle" x="401" y="-63.5" font-family="Helvetica,sans-Serif" font-size="10.00">utility.hpp</text>
</a>
</g>
</g>
<!-- Node5&#45;&gt;Node9 -->
<g id="edge12" class="edge">
<title>Node5&#45;&gt;Node9</title>
<path fill="none" stroke="midnightblue" d="M301,-173.93C309.8,-171.89 319.22,-169.78 328,-168 374.19,-158.63 506.64,-168.04 537,-132 566.91,-96.5 490.07,-78.99 440.06,-71.58"/>
<polygon fill="midnightblue" stroke="midnightblue" points="440.23,-68.07 429.85,-70.15 439.26,-75 440.23,-68.07"/>
</g>
<!-- Node10 -->
<g id="node10" class="node">
<title>Node10</title>
<g id="a_node10"><a xlink:title=" ">
<polygon fill="white" stroke="#bfbfbf" points="256.5,-56.5 256.5,-75.5 315.5,-75.5 315.5,-56.5 256.5,-56.5"/>
<text text-anchor="middle" x="286" y="-63.5" font-family="Helvetica,sans-Serif" font-size="10.00">functional</text>
</a>
</g>
</g>
<!-- Node5&#45;&gt;Node10 -->
<g id="edge14" class="edge">
<title>Node5&#45;&gt;Node10</title>
<path fill="none" stroke="midnightblue" d="M267.5,-173.82C270.72,-155.26 278.32,-111.34 282.71,-85.97"/>
<polygon fill="midnightblue" stroke="midnightblue" points="286.22,-86.23 284.48,-75.78 279.32,-85.04 286.22,-86.23"/>
</g>
<!-- Node11 -->
<g id="node11" class="node">
<title>Node11</title>
<g id="a_node11"><a xlink:title=" ">
<polygon fill="white" stroke="#bfbfbf" points="414,-112.5 414,-131.5 470,-131.5 470,-112.5 414,-112.5"/>
<text text-anchor="middle" x="442" y="-119.5" font-family="Helvetica,sans-Serif" font-size="10.00">concepts</text>
</a>
</g>
</g>
<!-- Node5&#45;&gt;Node11 -->
<g id="edge13" class="edge">
<title>Node5&#45;&gt;Node11</title>
<path fill="none" stroke="midnightblue" d="M291.22,-173.98C321.67,-163.68 373.05,-146.31 407.24,-134.75"/>
<polygon fill="midnightblue" stroke="midnightblue" points="408.48,-138.03 416.83,-131.51 406.24,-131.4 408.48,-138.03"/>
</g>
<!-- Node12 -->
<g id="node12" class="node">
<title>Node12</title>
<g id="a_node12"><a xlink:title=" ">
<polygon fill="white" stroke="#bfbfbf" points="488.5,-112.5 488.5,-131.5 527.5,-131.5 527.5,-112.5 488.5,-112.5"/>
<text text-anchor="middle" x="508" y="-119.5" font-family="Helvetica,sans-Serif" font-size="10.00">utility</text>
</a>
</g>
</g>
<!-- Node5&#45;&gt;Node12 -->
<g id="edge16" class="edge">
<title>Node5&#45;&gt;Node12</title>
<path fill="none" stroke="midnightblue" d="M302.21,-173.98C353.87,-161.82 445.42,-140.24 478.53,-131.87"/>
<polygon fill="midnightblue" stroke="midnightblue" points="479.61,-135.2 488.4,-129.28 477.84,-128.43 479.61,-135.2"/>
</g>
<!-- Node7 -->
<g id="node7" class="node">
<title>Node7</title>
<g id="a_node7"><a xlink:title=" ">
<polygon fill="white" stroke="#bfbfbf" points="129,-56.5 129,-75.5 173,-75.5 173,-56.5 129,-56.5"/>
<text text-anchor="middle" x="151" y="-63.5" font-family="Helvetica,sans-Serif" font-size="10.00">format</text>
</a>
</g>
</g>
<!-- Node6&#45;&gt;Node7 -->
<g id="edge6" class="edge">
<title>Node6&#45;&gt;Node7</title>
<path fill="none" stroke="midnightblue" d="M151,-112.08C151,-105.01 151,-94.86 151,-85.99"/>
<polygon fill="midnightblue" stroke="midnightblue" points="154.5,-85.75 151,-75.75 147.5,-85.75 154.5,-85.75"/>
</g>
<!-- Node8&#45;&gt;Node4 -->
<g id="edge11" class="edge">
<title>Node8&#45;&gt;Node4</title>
<path fill="none" stroke="midnightblue" d="M343.29,-112.15C340.53,-99.22 334.36,-74.66 324,-56 318.12,-45.41 309.54,-34.98 302.02,-26.83"/>
<polygon fill="midnightblue" stroke="midnightblue" points="304.45,-24.31 294.99,-19.52 299.4,-29.16 304.45,-24.31"/>
</g>
<!-- Node8&#45;&gt;Node9 -->
<g id="edge8" class="edge">
<title>Node8&#45;&gt;Node9</title>
<path fill="none" stroke="midnightblue" d="M354,-112.32C362.19,-104.42 374.51,-92.55 384.47,-82.94"/>
<polygon fill="midnightblue" stroke="midnightblue" points="387.07,-85.29 391.84,-75.83 382.21,-80.26 387.07,-85.29"/>
</g>
<!-- Node8&#45;&gt;Node10 -->
<g id="edge10" class="edge">
<title>Node8&#45;&gt;Node10</title>
<path fill="none" stroke="midnightblue" d="M335.52,-112.32C326.8,-104.34 313.66,-92.31 303.1,-82.65"/>
<polygon fill="midnightblue" stroke="midnightblue" points="305.39,-80 295.65,-75.83 300.67,-85.17 305.39,-80"/>
</g>
<!-- Node9&#45;&gt;Node4 -->
<g id="edge9" class="edge">
<title>Node9&#45;&gt;Node4</title>
<path fill="none" stroke="midnightblue" d="M382.78,-56.44C364.1,-47.68 334.84,-33.94 313.38,-23.86"/>
<polygon fill="midnightblue" stroke="midnightblue" points="314.68,-20.6 304.14,-19.52 311.7,-26.93 314.68,-20.6"/>
</g>
</g>
</svg>
