<?xml version="1.0" encoding="UTF-8" standalone="no"?>
<!DOCTYPE svg PUBLIC "-//W3C//DTD SVG 1.1//EN"
 "http://www.w3.org/Graphics/SVG/1.1/DTD/svg11.dtd">
<!-- Generated by graphviz version 12.2.0 (20241103.1931)
 -->
<!-- Title: /github/workspace/benchmark/predict_1x1x0.cpp Pages: 1 -->
<svg width="1688pt" height="326pt"
 viewBox="0.00 0.00 1688.38 326.00" xmlns="http://www.w3.org/2000/svg" xmlns:xlink="http://www.w3.org/1999/xlink">
<g id="graph0" class="graph" transform="scale(1 1) rotate(0) translate(4 322)">
<title>/github/workspace/benchmark/predict_1x1x0.cpp</title>
<!-- Node1 -->
<g id="Node000001" class="node">
<title>Node1</title>
<g id="a_Node000001"><a xlink:title=" ">
<polygon fill="#999999" stroke="#666666" points="1498.75,-318 1352.25,-318 1352.25,-287.5 1498.75,-287.5 1498.75,-318"/>
<text text-anchor="start" x="1360.25" y="-304.5" font-family="Helvetica,sans-Serif" font-size="10.00">/github/workspace/benchmark</text>
<text text-anchor="middle" x="1425.5" y="-293.25" font-family="Helvetica,sans-Serif" font-size="10.00">/predict_1x1x0.cpp</text>
</a>
</g>
</g>
<!-- Node2 -->
<g id="Node000002" class="node">
<title>Node2</title>
<g id="a_Node000002"><a xlink:href="benchmark_8hpp.xhtml" target="_top" xlink:title="Benchmarking support.">
<polygon fill="white" stroke="#666666" points="1466.5,-251.5 1384.5,-251.5 1384.5,-232.25 1466.5,-232.25 1466.5,-251.5"/>
<text text-anchor="middle" x="1425.5" y="-238" font-family="Helvetica,sans-Serif" font-size="10.00">benchmark.hpp</text>
</a>
</g>
</g>
<!-- Node1&#45;&gt;Node2 -->
<g id="edge1_Node000001_Node000002" class="edge">
<title>Node1&#45;&gt;Node2</title>
<g id="a_edge1_Node000001_Node000002"><a xlink:title=" ">
<path fill="none" stroke="#63b8ff" d="M1425.5,-287.2C1425.5,-279.96 1425.5,-271.09 1425.5,-263.19"/>
<polygon fill="#63b8ff" stroke="#63b8ff" points="1429,-263.46 1425.5,-253.46 1422,-263.46 1429,-263.46"/>
</a>
</g>
</g>
<!-- Node3 -->
<g id="Node000003" class="node">
<title>Node3</title>
<g id="a_Node000003"><a xlink:title=" ">
<polygon fill="#e0e0e0" stroke="#999999" points="1415.12,-196.25 1369.88,-196.25 1369.88,-177 1415.12,-177 1415.12,-196.25"/>
<text text-anchor="middle" x="1392.5" y="-182.75" font-family="Helvetica,sans-Serif" font-size="10.00">chrono</text>
</a>
</g>
</g>
<!-- Node1&#45;&gt;Node3 -->
<g id="edge65_Node000001_Node000003" class="edge">
<title>Node1&#45;&gt;Node3</title>
<g id="a_edge65_Node000001_Node000003"><a xlink:title=" ">
<path fill="none" stroke="#63b8ff" d="M1404.49,-287.13C1393.62,-278.23 1381.42,-265.83 1375.5,-251.5 1369.47,-236.9 1374.84,-219.53 1381.1,-206.59"/>
<polygon fill="#63b8ff" stroke="#63b8ff" points="1384.14,-208.33 1385.83,-197.87 1377.98,-204.99 1384.14,-208.33"/>
</a>
</g>
</g>
<!-- Node5 -->
<g id="Node000005" class="node">
<title>Node5</title>
<g id="a_Node000005"><a xlink:href="kalman_8hpp.xhtml" target="_top" xlink:title="The Kalman filter class and library top&#45;level header.">
<polygon fill="white" stroke="#666666" points="1268.5,-251.5 1162.5,-251.5 1162.5,-232.25 1268.5,-232.25 1268.5,-251.5"/>
<text text-anchor="middle" x="1215.5" y="-238" font-family="Helvetica,sans-Serif" font-size="10.00">fcarouge/kalman.hpp</text>
</a>
</g>
</g>
<!-- Node1&#45;&gt;Node5 -->
<g id="edge4_Node000001_Node000005" class="edge">
<title>Node1&#45;&gt;Node5</title>
<g id="a_edge4_Node000001_Node000005"><a xlink:title=" ">
<path fill="none" stroke="#63b8ff" d="M1373.05,-287.05C1337.8,-277.16 1291.89,-264.29 1258.74,-255"/>
<polygon fill="#63b8ff" stroke="#63b8ff" points="1260.05,-251.73 1249.47,-252.4 1258.16,-258.47 1260.05,-251.73"/>
</a>
</g>
</g>
<!-- Node32 -->
<g id="Node000032" class="node">
<title>Node32</title>
<g id="a_Node000032"><a xlink:title=" ">
<polygon fill="#e0e0e0" stroke="#999999" points="1606.75,-251.5 1484.25,-251.5 1484.25,-232.25 1606.75,-232.25 1606.75,-251.5"/>
<text text-anchor="middle" x="1545.5" y="-238" font-family="Helvetica,sans-Serif" font-size="10.00">benchmark/benchmark.h</text>
</a>
</g>
</g>
<!-- Node1&#45;&gt;Node32 -->
<g id="edge63_Node000001_Node000032" class="edge">
<title>Node1&#45;&gt;Node32</title>
<g id="a_edge63_Node000001_Node000032"><a xlink:title=" ">
<path fill="none" stroke="#63b8ff" d="M1455.47,-287.05C1474.27,-277.82 1498.38,-266 1516.91,-256.9"/>
<polygon fill="#63b8ff" stroke="#63b8ff" points="1518.3,-260.12 1525.74,-252.57 1515.22,-253.83 1518.3,-260.12"/>
</a>
</g>
</g>
<!-- Node33 -->
<g id="Node000033" class="node">
<title>Node33</title>
<g id="a_Node000033"><a xlink:title=" ">
<polygon fill="#e0e0e0" stroke="#999999" points="1680.38,-251.5 1624.62,-251.5 1624.62,-232.25 1680.38,-232.25 1680.38,-251.5"/>
<text text-anchor="middle" x="1652.5" y="-238" font-family="Helvetica,sans-Serif" font-size="10.00">algorithm</text>
</a>
</g>
</g>
<!-- Node1&#45;&gt;Node33 -->
<g id="edge64_Node000001_Node000033" class="edge">
<title>Node1&#45;&gt;Node33</title>
<g id="a_edge64_Node000001_Node000033"><a xlink:title=" ">
<path fill="none" stroke="#63b8ff" d="M1482.2,-287.05C1523.08,-276.44 1577.21,-262.4 1613.36,-253.03"/>
<polygon fill="#63b8ff" stroke="#63b8ff" points="1614.16,-256.44 1622.96,-250.54 1612.4,-249.66 1614.16,-256.44"/>
</a>
</g>
</g>
<!-- Node2&#45;&gt;Node3 -->
<g id="edge2_Node000002_Node000003" class="edge">
<title>Node2&#45;&gt;Node3</title>
<g id="a_edge2_Node000002_Node000003"><a xlink:title=" ">
<path fill="none" stroke="#63b8ff" d="M1420.05,-232.08C1415.73,-225.11 1409.54,-215.12 1404.12,-206.37"/>
<polygon fill="#63b8ff" stroke="#63b8ff" points="1407.11,-204.55 1398.86,-197.9 1401.16,-208.24 1407.11,-204.55"/>
</a>
</g>
</g>
<!-- Node4 -->
<g id="Node000004" class="node">
<title>Node4</title>
<g id="a_Node000004"><a xlink:title=" ">
<polygon fill="#e0e0e0" stroke="#999999" points="1478,-19.25 1417,-19.25 1417,0 1478,0 1478,-19.25"/>
<text text-anchor="middle" x="1447.5" y="-5.75" font-family="Helvetica,sans-Serif" font-size="10.00">type_traits</text>
</a>
</g>
</g>
<!-- Node2&#45;&gt;Node4 -->
<g id="edge3_Node000002_Node000004" class="edge">
<title>Node2&#45;&gt;Node4</title>
<g id="a_edge3_Node000002_Node000004"><a xlink:title=" ">
<path fill="none" stroke="#63b8ff" d="M1466.97,-232.44C1512.71,-220.67 1584.13,-194.45 1616.5,-141 1638,-105.49 1612.46,-80.48 1579.5,-55.25 1553.16,-35.09 1517.17,-23.72 1489.43,-17.51"/>
<polygon fill="#63b8ff" stroke="#63b8ff" points="1490.46,-14.15 1479.95,-15.54 1489.03,-21.01 1490.46,-14.15"/>
</a>
</g>
</g>
<!-- Node6 -->
<g id="Node000006" class="node">
<title>Node6</title>
<g id="a_Node000006"><a xlink:href="kalman__forward_8hpp.xhtml" target="_top" xlink:title="Authoritative forward declaration header.">
<polygon fill="white" stroke="#666666" points="1035,-196.25 932,-196.25 932,-177 1035,-177 1035,-196.25"/>
<text text-anchor="middle" x="983.5" y="-182.75" font-family="Helvetica,sans-Serif" font-size="10.00">kalman_forward.hpp</text>
</a>
</g>
</g>
<!-- Node5&#45;&gt;Node6 -->
<g id="edge5_Node000005_Node000006" class="edge">
<title>Node5&#45;&gt;Node6</title>
<g id="a_edge5_Node000005_Node000006"><a xlink:title=" ">
<path fill="none" stroke="#63b8ff" d="M1175.88,-231.78C1136.68,-222.78 1076.52,-208.98 1033.93,-199.2"/>
<polygon fill="#63b8ff" stroke="#63b8ff" points="1034.96,-195.85 1024.43,-197.02 1033.39,-202.67 1034.96,-195.85"/>
</a>
</g>
</g>
<!-- Node7 -->
<g id="Node000007" class="node">
<title>Node7</title>
<g id="a_Node000007"><a xlink:href="factory_8hpp.xhtml" target="_top" xlink:title=" ">
<polygon fill="white" stroke="#666666" points="856.75,-196.25 722.25,-196.25 722.25,-177 856.75,-177 856.75,-196.25"/>
<text text-anchor="middle" x="789.5" y="-182.75" font-family="Helvetica,sans-Serif" font-size="10.00">kalman_internal/factory.hpp</text>
</a>
</g>
</g>
<!-- Node5&#45;&gt;Node7 -->
<g id="edge6_Node000005_Node000007" class="edge">
<title>Node5&#45;&gt;Node7</title>
<g id="a_edge6_Node000005_Node000007"><a xlink:title=" ">
<path fill="none" stroke="#63b8ff" d="M1162.41,-234.24C1088.45,-224.99 953.86,-208.17 868.21,-197.46"/>
<polygon fill="#63b8ff" stroke="#63b8ff" points="868.83,-194.01 858.48,-196.25 867.97,-200.96 868.83,-194.01"/>
</a>
</g>
</g>
<!-- Node9 -->
<g id="Node000009" class="node">
<title>Node9</title>
<g id="a_Node000009"><a xlink:href="utility_8hpp.xhtml" target="_top" xlink:title=" ">
<polygon fill="white" stroke="#666666" points="993.75,-74.5 937.25,-74.5 937.25,-55.25 993.75,-55.25 993.75,-74.5"/>
<text text-anchor="middle" x="965.5" y="-61" font-family="Helvetica,sans-Serif" font-size="10.00">utility.hpp</text>
</a>
</g>
</g>
<!-- Node5&#45;&gt;Node9 -->
<g id="edge61_Node000005_Node000009" class="edge">
<title>Node5&#45;&gt;Node9</title>
<g id="a_edge61_Node000005_Node000009"><a xlink:title=" ">
<path fill="none" stroke="#63b8ff" d="M1217.33,-231.8C1221.51,-208.23 1229.04,-144.58 1196.5,-110.5 1170.77,-83.55 1064.4,-72.35 1005.39,-68.14"/>
<polygon fill="#63b8ff" stroke="#63b8ff" points="1005.63,-64.65 995.42,-67.46 1005.16,-71.63 1005.63,-64.65"/>
</a>
</g>
</g>
<!-- Node27 -->
<g id="Node000027" class="node">
<title>Node27</title>
<g id="a_Node000027"><a xlink:href="format_8hpp.xhtml" target="_top" xlink:title="Formatting support for the Kalman filter.">
<polygon fill="white" stroke="#666666" points="1447,-135.38 1314,-135.38 1314,-116.12 1447,-116.12 1447,-135.38"/>
<text text-anchor="middle" x="1380.5" y="-121.88" font-family="Helvetica,sans-Serif" font-size="10.00">kalman_internal/format.hpp</text>
</a>
</g>
</g>
<!-- Node5&#45;&gt;Node27 -->
<g id="edge52_Node000005_Node000027" class="edge">
<title>Node5&#45;&gt;Node27</title>
<g id="a_edge52_Node000005_Node000027"><a xlink:title=" ">
<path fill="none" stroke="#63b8ff" d="M1228.45,-231.92C1256.52,-212.5 1323.27,-166.33 1358.25,-142.14"/>
<polygon fill="#63b8ff" stroke="#63b8ff" points="1360.13,-145.09 1366.37,-136.52 1356.15,-139.33 1360.13,-145.09"/>
</a>
</g>
</g>
<!-- Node29 -->
<g id="Node000029" class="node">
<title>Node29</title>
<g id="a_Node000029"><a xlink:href="print_8hpp.xhtml" target="_top" xlink:title=" ">
<polygon fill="white" stroke="#666666" points="1589.5,-135.38 1465.5,-135.38 1465.5,-116.12 1589.5,-116.12 1589.5,-135.38"/>
<text text-anchor="middle" x="1527.5" y="-121.88" font-family="Helvetica,sans-Serif" font-size="10.00">kalman_internal/print.hpp</text>
</a>
</g>
</g>
<!-- Node5&#45;&gt;Node29 -->
<g id="edge57_Node000005_Node000029" class="edge">
<title>Node5&#45;&gt;Node29</title>
<g id="a_edge57_Node000005_Node000029"><a xlink:title=" ">
<path fill="none" stroke="#63b8ff" d="M1233.97,-231.86C1261.23,-218.76 1314.05,-194.15 1360.5,-177 1400.95,-162.07 1448.07,-148.2 1481.93,-138.83"/>
<polygon fill="#63b8ff" stroke="#63b8ff" points="1482.69,-142.25 1491.41,-136.23 1480.84,-135.5 1482.69,-142.25"/>
</a>
</g>
</g>
<!-- Node31 -->
<g id="Node000031" class="node">
<title>Node31</title>
<g id="a_Node000031"><a xlink:title=" ">
<polygon fill="#e0e0e0" stroke="#999999" points="1187.75,-196.25 1053.25,-196.25 1053.25,-177 1187.75,-177 1187.75,-196.25"/>
<text text-anchor="middle" x="1120.5" y="-182.75" font-family="Helvetica,sans-Serif" font-size="10.00">kalman_internal/kalman.tpp</text>
</a>
</g>
</g>
<!-- Node5&#45;&gt;Node31 -->
<g id="edge62_Node000005_Node000031" class="edge">
<title>Node5&#45;&gt;Node31</title>
<g id="a_edge62_Node000005_Node000031"><a xlink:title=" ">
<path fill="none" stroke="#63b8ff" d="M1199.38,-231.84C1184.92,-223.73 1163.42,-211.68 1146.52,-202.21"/>
<polygon fill="#63b8ff" stroke="#63b8ff" points="1148.45,-199.28 1138.01,-197.44 1145.03,-205.39 1148.45,-199.28"/>
</a>
</g>
</g>
<!-- Node7&#45;&gt;Node4 -->
<g id="edge51_Node000007_Node000004" class="edge">
<title>Node7&#45;&gt;Node4</title>
<g id="a_edge51_Node000007_Node000004"><a xlink:title=" ">
<path fill="none" stroke="#63b8ff" d="M856.97,-181.14C878.25,-179.76 901.86,-178.27 923.5,-177 960.99,-174.79 1572.66,-168.25 1598.5,-141 1630.81,-106.92 1560.43,-60.44 1553.5,-55.25 1534.26,-40.84 1509.68,-30.12 1489.04,-22.8"/>
<polygon fill="#63b8ff" stroke="#63b8ff" points="1490.37,-19.55 1479.77,-19.66 1488.12,-26.18 1490.37,-19.55"/>
</a>
</g>
</g>
<!-- Node8 -->
<g id="Node000008" class="node">
<title>Node8</title>
<g id="a_Node000008"><a xlink:href="type_8hpp.xhtml" target="_top" xlink:title=" ">
<polygon fill="white" stroke="#666666" points="1295.5,-135.38 1243.5,-135.38 1243.5,-116.12 1295.5,-116.12 1295.5,-135.38"/>
<text text-anchor="middle" x="1269.5" y="-121.88" font-family="Helvetica,sans-Serif" font-size="10.00">type.hpp</text>
</a>
</g>
</g>
<!-- Node7&#45;&gt;Node8 -->
<g id="edge7_Node000007_Node000008" class="edge">
<title>Node7&#45;&gt;Node8</title>
<g id="a_edge7_Node000007_Node000008"><a xlink:title=" ">
<path fill="none" stroke="#63b8ff" d="M857.06,-179.96C937.99,-172.77 1077.56,-159.1 1196.5,-141 1208.18,-139.22 1220.84,-136.9 1232.28,-134.64"/>
<polygon fill="#63b8ff" stroke="#63b8ff" points="1232.64,-138.14 1241.75,-132.73 1231.26,-131.27 1232.64,-138.14"/>
</a>
</g>
</g>
<!-- Node10 -->
<g id="Node000010" class="node">
<title>Node10</title>
<g id="a_Node000010"><a xlink:title=" ">
<polygon fill="#e0e0e0" stroke="#999999" points="905.38,-19.25 849.62,-19.25 849.62,0 905.38,0 905.38,-19.25"/>
<text text-anchor="middle" x="877.5" y="-5.75" font-family="Helvetica,sans-Serif" font-size="10.00">concepts</text>
</a>
</g>
</g>
<!-- Node7&#45;&gt;Node10 -->
<g id="edge49_Node000007_Node000010" class="edge">
<title>Node7&#45;&gt;Node10</title>
<g id="a_edge49_Node000007_Node000010"><a xlink:title=" ">
<path fill="none" stroke="#63b8ff" d="M790.66,-176.96C792.81,-162.62 798.16,-133.29 808.5,-110.5 822.67,-79.29 846.69,-47.42 862.32,-28.33"/>
<polygon fill="#63b8ff" stroke="#63b8ff" points="864.93,-30.66 868.66,-20.74 859.56,-26.17 864.93,-30.66"/>
</a>
</g>
</g>
<!-- Node12 -->
<g id="Node000012" class="node">
<title>Node12</title>
<g id="a_Node000012"><a xlink:title=" ">
<polygon fill="#e0e0e0" stroke="#999999" points="589,-19.25 552,-19.25 552,0 589,0 589,-19.25"/>
<text text-anchor="middle" x="570.5" y="-5.75" font-family="Helvetica,sans-Serif" font-size="10.00">tuple</text>
</a>
</g>
</g>
<!-- Node7&#45;&gt;Node12 -->
<g id="edge50_Node000007_Node000012" class="edge">
<title>Node7&#45;&gt;Node12</title>
<g id="a_edge50_Node000007_Node000012"><a xlink:title=" ">
<path fill="none" stroke="#63b8ff" d="M784.4,-176.92C775.35,-162.01 755.29,-131.19 732.5,-110.5 691.22,-73.03 633.98,-41.56 599.75,-24.47"/>
<polygon fill="#63b8ff" stroke="#63b8ff" points="601.37,-21.36 590.85,-20.1 598.28,-27.65 601.37,-21.36"/>
</a>
</g>
</g>
<!-- Node15 -->
<g id="Node000015" class="node">
<title>Node15</title>
<g id="a_Node000015"><a xlink:href="x__z__p__q__r_8hpp.xhtml" target="_top" xlink:title=" ">
<polygon fill="white" stroke="#666666" points="1187.25,-135.38 1109.75,-135.38 1109.75,-116.12 1187.25,-116.12 1187.25,-135.38"/>
<text text-anchor="middle" x="1148.5" y="-121.88" font-family="Helvetica,sans-Serif" font-size="10.00">x_z_p_q_r.hpp</text>
</a>
</g>
</g>
<!-- Node7&#45;&gt;Node15 -->
<g id="edge16_Node000007_Node000015" class="edge">
<title>Node7&#45;&gt;Node15</title>
<g id="a_edge16_Node000007_Node000015"><a xlink:title=" ">
<path fill="none" stroke="#63b8ff" d="M856.98,-178.98C920.54,-172.01 1018.16,-159.48 1101.5,-141 1104.44,-140.35 1107.47,-139.6 1110.5,-138.81"/>
<polygon fill="#63b8ff" stroke="#63b8ff" points="1111.22,-142.24 1119.89,-136.16 1109.32,-135.5 1111.22,-142.24"/>
</a>
</g>
</g>
<!-- Node16 -->
<g id="Node000016" class="node">
<title>Node16</title>
<g id="a_Node000016"><a xlink:href="x__z__p__q__r__h__f_8hpp.xhtml" target="_top" xlink:title=" ">
<polygon fill="white" stroke="#666666" points="913.62,-135.38 817.38,-135.38 817.38,-116.12 913.62,-116.12 913.62,-135.38"/>
<text text-anchor="middle" x="865.5" y="-121.88" font-family="Helvetica,sans-Serif" font-size="10.00">x_z_p_q_r_h_f.hpp</text>
</a>
</g>
</g>
<!-- Node7&#45;&gt;Node16 -->
<g id="edge18_Node000007_Node000016" class="edge">
<title>Node7&#45;&gt;Node16</title>
<g id="a_edge18_Node000007_Node000016"><a xlink:title=" ">
<path fill="none" stroke="#63b8ff" d="M801.04,-176.68C812.65,-167.69 830.79,-153.64 844.88,-142.73"/>
<polygon fill="#63b8ff" stroke="#63b8ff" points="846.89,-145.59 852.65,-136.7 842.6,-140.06 846.89,-145.59"/>
</a>
</g>
</g>
<!-- Node17 -->
<g id="Node000017" class="node">
<title>Node17</title>
<g id="a_Node000017"><a xlink:href="x__z__p__q__r__hh__f__us__ps_8hpp.xhtml" target="_top" xlink:title=" ">
<polygon fill="white" stroke="#666666" points="266,-135.38 133,-135.38 133,-116.12 266,-116.12 266,-135.38"/>
<text text-anchor="middle" x="199.5" y="-121.88" font-family="Helvetica,sans-Serif" font-size="10.00">x_z_p_q_r_hh_f_us_ps.hpp</text>
</a>
</g>
</g>
<!-- Node7&#45;&gt;Node17 -->
<g id="edge20_Node000007_Node000017" class="edge">
<title>Node7&#45;&gt;Node17</title>
<g id="a_edge20_Node000007_Node000017"><a xlink:title=" ">
<path fill="none" stroke="#63b8ff" d="M721.77,-181.95C623.07,-176.1 434.08,-163.02 274.5,-141 268.02,-140.11 261.26,-139.03 254.56,-137.87"/>
<polygon fill="#63b8ff" stroke="#63b8ff" points="255.35,-134.46 244.89,-136.13 254.11,-141.35 255.35,-134.46"/>
</a>
</g>
</g>
<!-- Node20 -->
<g id="Node000020" class="node">
<title>Node20</title>
<g id="a_Node000020"><a xlink:href="x__z__p__q__r__hh__ff__us__ps_8hpp.xhtml" target="_top" xlink:title=" ">
<polygon fill="white" stroke="#666666" points="505.25,-141 403.75,-141 403.75,-110.5 505.25,-110.5 505.25,-141"/>
<text text-anchor="start" x="411.75" y="-127.5" font-family="Helvetica,sans-Serif" font-size="10.00">x_z_p_q_r_hh_ff_us</text>
<text text-anchor="middle" x="454.5" y="-116.25" font-family="Helvetica,sans-Serif" font-size="10.00">_ps.hpp</text>
</a>
</g>
</g>
<!-- Node7&#45;&gt;Node20 -->
<g id="edge25_Node000007_Node000020" class="edge">
<title>Node7&#45;&gt;Node20</title>
<g id="a_edge25_Node000007_Node000020"><a xlink:title=" ">
<path fill="none" stroke="#63b8ff" d="M725.09,-176.52C671.71,-168.67 593.64,-156.48 516.4,-141.29"/>
<polygon fill="#63b8ff" stroke="#63b8ff" points="517.48,-137.94 506.99,-139.42 516.12,-144.8 517.48,-137.94"/>
</a>
</g>
</g>
<!-- Node21 -->
<g id="Node000021" class="node">
<title>Node21</title>
<g id="a_Node000021"><a xlink:href="x__z__p__qq__rr__f_8hpp.xhtml" target="_top" xlink:title=" ">
<polygon fill="white" stroke="#666666" points="617.5,-135.38 523.5,-135.38 523.5,-116.12 617.5,-116.12 617.5,-135.38"/>
<text text-anchor="middle" x="570.5" y="-121.88" font-family="Helvetica,sans-Serif" font-size="10.00">x_z_p_qq_rr_f.hpp</text>
</a>
</g>
</g>
<!-- Node7&#45;&gt;Node21 -->
<g id="edge29_Node000007_Node000021" class="edge">
<title>Node7&#45;&gt;Node21</title>
<g id="a_edge29_Node000007_Node000021"><a xlink:title=" ">
<path fill="none" stroke="#63b8ff" d="M755.76,-176.55C718.06,-166.42 656.87,-149.97 615.21,-138.77"/>
<polygon fill="#63b8ff" stroke="#63b8ff" points="616.3,-135.44 605.74,-136.22 614.49,-142.2 616.3,-135.44"/>
</a>
</g>
</g>
<!-- Node22 -->
<g id="Node000022" class="node">
<title>Node22</title>
<g id="a_Node000022"><a xlink:href="x__z__p__r_8hpp.xhtml" target="_top" xlink:title=" ">
<polygon fill="white" stroke="#666666" points="999,-135.38 932,-135.38 932,-116.12 999,-116.12 999,-135.38"/>
<text text-anchor="middle" x="965.5" y="-121.88" font-family="Helvetica,sans-Serif" font-size="10.00">x_z_p_r.hpp</text>
</a>
</g>
</g>
<!-- Node7&#45;&gt;Node22 -->
<g id="edge33_Node000007_Node000022" class="edge">
<title>Node7&#45;&gt;Node22</title>
<g id="a_edge33_Node000007_Node000022"><a xlink:title=" ">
<path fill="none" stroke="#63b8ff" d="M816.61,-176.55C846.33,-166.61 894.21,-150.6 927.62,-139.42"/>
<polygon fill="#63b8ff" stroke="#63b8ff" points="928.55,-142.8 936.92,-136.31 926.33,-136.16 928.55,-142.8"/>
</a>
</g>
</g>
<!-- Node23 -->
<g id="Node000023" class="node">
<title>Node23</title>
<g id="a_Node000023"><a xlink:href="x__z__p__r__f_8hpp.xhtml" target="_top" xlink:title=" ">
<polygon fill="white" stroke="#666666" points="1092.12,-135.38 1016.88,-135.38 1016.88,-116.12 1092.12,-116.12 1092.12,-135.38"/>
<text text-anchor="middle" x="1054.5" y="-121.88" font-family="Helvetica,sans-Serif" font-size="10.00">x_z_p_r_f.hpp</text>
</a>
</g>
</g>
<!-- Node7&#45;&gt;Node23 -->
<g id="edge35_Node000007_Node000023" class="edge">
<title>Node7&#45;&gt;Node23</title>
<g id="a_edge35_Node000007_Node000023"><a xlink:title=" ">
<path fill="none" stroke="#63b8ff" d="M841.6,-176.52C886.18,-168.36 951.93,-155.49 1008.5,-141 1010.93,-140.38 1013.43,-139.7 1015.94,-139"/>
<polygon fill="#63b8ff" stroke="#63b8ff" points="1016.83,-142.39 1025.44,-136.21 1014.86,-135.67 1016.83,-142.39"/>
</a>
</g>
</g>
<!-- Node24 -->
<g id="Node000024" class="node">
<title>Node24</title>
<g id="a_Node000024"><a xlink:href="x__z__u__p__q__r_8hpp.xhtml" target="_top" xlink:title=" ">
<polygon fill="white" stroke="#666666" points="723.5,-135.38 635.5,-135.38 635.5,-116.12 723.5,-116.12 723.5,-135.38"/>
<text text-anchor="middle" x="679.5" y="-121.88" font-family="Helvetica,sans-Serif" font-size="10.00">x_z_u_p_q_r.hpp</text>
</a>
</g>
</g>
<!-- Node7&#45;&gt;Node24 -->
<g id="edge37_Node000007_Node000024" class="edge">
<title>Node7&#45;&gt;Node24</title>
<g id="a_edge37_Node000007_Node000024"><a xlink:title=" ">
<path fill="none" stroke="#63b8ff" d="M772.79,-176.68C755.19,-167.26 727.19,-152.27 706.45,-141.18"/>
<polygon fill="#63b8ff" stroke="#63b8ff" points="708.17,-138.12 697.7,-136.49 704.86,-144.29 708.17,-138.12"/>
</a>
</g>
</g>
<!-- Node25 -->
<g id="Node000025" class="node">
<title>Node25</title>
<g id="a_Node000025"><a xlink:href="x__z__u__p__q__r__h__f__g__us__ps_8hpp.xhtml" target="_top" xlink:title=" ">
<polygon fill="white" stroke="#666666" points="115,-141 0,-141 0,-110.5 115,-110.5 115,-141"/>
<text text-anchor="start" x="8" y="-127.5" font-family="Helvetica,sans-Serif" font-size="10.00">x_z_u_p_q_r_h_f_g_us</text>
<text text-anchor="middle" x="57.5" y="-116.25" font-family="Helvetica,sans-Serif" font-size="10.00">_ps.hpp</text>
</a>
</g>
</g>
<!-- Node7&#45;&gt;Node25 -->
<g id="edge41_Node000007_Node000025" class="edge">
<title>Node7&#45;&gt;Node25</title>
<g id="a_edge41_Node000007_Node000025"><a xlink:title=" ">
<path fill="none" stroke="#63b8ff" d="M722.05,-184.35C603.41,-181.4 349.57,-171.92 126.63,-141.31"/>
<polygon fill="#63b8ff" stroke="#63b8ff" points="127.25,-137.86 116.86,-139.95 126.28,-144.8 127.25,-137.86"/>
</a>
</g>
</g>
<!-- Node26 -->
<g id="Node000026" class="node">
<title>Node26</title>
<g id="a_Node000026"><a xlink:href="x__z__u__p__qq__r__ff__gg__ps_8hpp.xhtml" target="_top" xlink:title=" ">
<polygon fill="white" stroke="#666666" points="385.25,-141 283.75,-141 283.75,-110.5 385.25,-110.5 385.25,-141"/>
<text text-anchor="start" x="291.75" y="-127.5" font-family="Helvetica,sans-Serif" font-size="10.00">x_z_u_p_qq_r_ff_gg</text>
<text text-anchor="middle" x="334.5" y="-116.25" font-family="Helvetica,sans-Serif" font-size="10.00">_ps.hpp</text>
</a>
</g>
</g>
<!-- Node7&#45;&gt;Node26 -->
<g id="edge45_Node000007_Node000026" class="edge">
<title>Node7&#45;&gt;Node26</title>
<g id="a_edge45_Node000007_Node000026"><a xlink:title=" ">
<path fill="none" stroke="#63b8ff" d="M722.05,-180.5C645.52,-174.13 516.8,-161.72 396.7,-141.24"/>
<polygon fill="#63b8ff" stroke="#63b8ff" points="397.42,-137.81 386.97,-139.56 396.22,-144.71 397.42,-137.81"/>
</a>
</g>
</g>
<!-- Node8&#45;&gt;Node4 -->
<g id="edge15_Node000008_Node000004" class="edge">
<title>Node8&#45;&gt;Node4</title>
<g id="a_edge15_Node000008_Node000004"><a xlink:title=" ">
<path fill="none" stroke="#63b8ff" d="M1282.51,-115.78C1302.07,-102.34 1340.32,-76.32 1373.5,-55.25 1389.6,-45.02 1407.96,-33.95 1422.37,-25.39"/>
<polygon fill="#63b8ff" stroke="#63b8ff" points="1423.94,-28.52 1430.76,-20.42 1420.37,-22.5 1423.94,-28.52"/>
</a>
</g>
</g>
<!-- Node8&#45;&gt;Node9 -->
<g id="edge8_Node000008_Node000009" class="edge">
<title>Node8&#45;&gt;Node9</title>
<g id="a_edge8_Node000008_Node000009"><a xlink:title=" ">
<path fill="none" stroke="#63b8ff" d="M1246.45,-115.76C1240.95,-113.84 1235.06,-111.95 1229.5,-110.5 1151.25,-90.12 1057.45,-76.83 1005.36,-70.41"/>
<polygon fill="#63b8ff" stroke="#63b8ff" points="1005.82,-66.94 995.48,-69.21 1004.98,-73.89 1005.82,-66.94"/>
</a>
</g>
</g>
<!-- Node14 -->
<g id="Node000014" class="node">
<title>Node14</title>
<g id="a_Node000014"><a xlink:title=" ">
<polygon fill="#e0e0e0" stroke="#999999" points="1250.25,-74.5 1178.75,-74.5 1178.75,-55.25 1250.25,-55.25 1250.25,-74.5"/>
<text text-anchor="middle" x="1214.5" y="-61" font-family="Helvetica,sans-Serif" font-size="10.00">initializer_list</text>
</a>
</g>
</g>
<!-- Node8&#45;&gt;Node14 -->
<g id="edge14_Node000008_Node000014" class="edge">
<title>Node8&#45;&gt;Node14</title>
<g id="a_edge14_Node000008_Node000014"><a xlink:title=" ">
<path fill="none" stroke="#63b8ff" d="M1261.15,-115.81C1253.07,-107.16 1240.62,-93.84 1230.61,-83.12"/>
<polygon fill="#63b8ff" stroke="#63b8ff" points="1233.35,-80.93 1223.97,-76.01 1228.23,-85.7 1233.35,-80.93"/>
</a>
</g>
</g>
<!-- Node9&#45;&gt;Node4 -->
<g id="edge12_Node000009_Node000004" class="edge">
<title>Node9&#45;&gt;Node4</title>
<g id="a_edge12_Node000009_Node000004"><a xlink:title=" ">
<path fill="none" stroke="#63b8ff" d="M994.21,-60.7C1075.82,-51.69 1309.47,-25.87 1405.51,-15.26"/>
<polygon fill="#63b8ff" stroke="#63b8ff" points="1405.73,-18.76 1415.28,-14.18 1404.96,-11.8 1405.73,-18.76"/>
</a>
</g>
</g>
<!-- Node9&#45;&gt;Node10 -->
<g id="edge9_Node000009_Node000010" class="edge">
<title>Node9&#45;&gt;Node10</title>
<g id="a_edge9_Node000009_Node000010"><a xlink:title=" ">
<path fill="none" stroke="#63b8ff" d="M950.57,-54.84C937.3,-46.81 917.63,-34.91 902.05,-25.48"/>
<polygon fill="#63b8ff" stroke="#63b8ff" points="904.16,-22.67 893.8,-20.49 900.54,-28.66 904.16,-22.67"/>
</a>
</g>
</g>
<!-- Node11 -->
<g id="Node000011" class="node">
<title>Node11</title>
<g id="a_Node000011"><a xlink:title=" ">
<polygon fill="#e0e0e0" stroke="#999999" points="1122.62,-19.25 1074.38,-19.25 1074.38,0 1122.62,0 1122.62,-19.25"/>
<text text-anchor="middle" x="1098.5" y="-5.75" font-family="Helvetica,sans-Serif" font-size="10.00">cstddef</text>
</a>
</g>
</g>
<!-- Node9&#45;&gt;Node11 -->
<g id="edge10_Node000009_Node000011" class="edge">
<title>Node9&#45;&gt;Node11</title>
<g id="a_edge10_Node000009_Node000011"><a xlink:title=" ">
<path fill="none" stroke="#63b8ff" d="M988.06,-54.84C1009.27,-46.35 1041.27,-33.54 1065.38,-23.89"/>
<polygon fill="#63b8ff" stroke="#63b8ff" points="1066.44,-27.23 1074.42,-20.27 1063.84,-20.73 1066.44,-27.23"/>
</a>
</g>
</g>
<!-- Node9&#45;&gt;Node12 -->
<g id="edge11_Node000009_Node000012" class="edge">
<title>Node9&#45;&gt;Node12</title>
<g id="a_edge11_Node000009_Node000012"><a xlink:title=" ">
<path fill="none" stroke="#63b8ff" d="M936.77,-60C864.29,-50.23 674.51,-24.65 600.58,-14.68"/>
<polygon fill="#63b8ff" stroke="#63b8ff" points="601.23,-11.24 590.86,-13.37 600.3,-18.17 601.23,-11.24"/>
</a>
</g>
</g>
<!-- Node13 -->
<g id="Node000013" class="node">
<title>Node13</title>
<g id="a_Node000013"><a xlink:title=" ">
<polygon fill="#e0e0e0" stroke="#999999" points="1311.75,-19.25 1273.25,-19.25 1273.25,0 1311.75,0 1311.75,-19.25"/>
<text text-anchor="middle" x="1292.5" y="-5.75" font-family="Helvetica,sans-Serif" font-size="10.00">utility</text>
</a>
</g>
</g>
<!-- Node9&#45;&gt;Node13 -->
<g id="edge13_Node000009_Node000013" class="edge">
<title>Node9&#45;&gt;Node13</title>
<g id="a_edge13_Node000009_Node000013"><a xlink:title=" ">
<path fill="none" stroke="#63b8ff" d="M994.23,-59.2C1055.58,-49.21 1198.89,-25.87 1261.88,-15.61"/>
<polygon fill="#63b8ff" stroke="#63b8ff" points="1262.21,-19.1 1271.52,-14.04 1261.09,-12.19 1262.21,-19.1"/>
</a>
</g>
</g>
<!-- Node15&#45;&gt;Node9 -->
<g id="edge17_Node000015_Node000009" class="edge">
<title>Node15&#45;&gt;Node9</title>
<g id="a_edge17_Node000015_Node000009"><a xlink:title=" ">
<path fill="none" stroke="#63b8ff" d="M1120.31,-115.68C1089.28,-105.7 1039.19,-89.58 1004.43,-78.4"/>
<polygon fill="#63b8ff" stroke="#63b8ff" points="1005.76,-75.15 995.17,-75.42 1003.61,-81.81 1005.76,-75.15"/>
</a>
</g>
</g>
<!-- Node16&#45;&gt;Node9 -->
<g id="edge19_Node000016_Node000009" class="edge">
<title>Node16&#45;&gt;Node9</title>
<g id="a_edge19_Node000016_Node000009"><a xlink:title=" ">
<path fill="none" stroke="#63b8ff" d="M880.69,-115.81C896.55,-106.47 921.68,-91.67 940.48,-80.61"/>
<polygon fill="#63b8ff" stroke="#63b8ff" points="942.02,-83.76 948.86,-75.67 938.47,-77.73 942.02,-83.76"/>
</a>
</g>
</g>
<!-- Node17&#45;&gt;Node9 -->
<g id="edge23_Node000017_Node000009" class="edge">
<title>Node17&#45;&gt;Node9</title>
<g id="a_edge23_Node000017_Node000009"><a xlink:title=" ">
<path fill="none" stroke="#63b8ff" d="M242.19,-115.7C252.71,-113.73 263.98,-111.83 274.5,-110.5 520.82,-79.27 819.47,-69.38 925.67,-66.73"/>
<polygon fill="#63b8ff" stroke="#63b8ff" points="925.65,-70.23 935.57,-66.49 925.48,-63.23 925.65,-70.23"/>
</a>
</g>
</g>
<!-- Node17&#45;&gt;Node12 -->
<g id="edge24_Node000017_Node000012" class="edge">
<title>Node17&#45;&gt;Node12</title>
<g id="a_edge24_Node000017_Node000012"><a xlink:title=" ">
<path fill="none" stroke="#63b8ff" d="M212.9,-115.77C235.79,-100.87 284.33,-71.08 329.5,-55.25 402.67,-29.61 493.78,-17.86 540.22,-13.22"/>
<polygon fill="#63b8ff" stroke="#63b8ff" points="540.42,-16.72 550.04,-12.28 539.76,-9.75 540.42,-16.72"/>
</a>
</g>
</g>
<!-- Node18 -->
<g id="Node000018" class="node">
<title>Node18</title>
<g id="a_Node000018"><a xlink:href="function_8hpp.xhtml" target="_top" xlink:title=" ">
<polygon fill="white" stroke="#666666" points="406.75,-74.5 338.25,-74.5 338.25,-55.25 406.75,-55.25 406.75,-74.5"/>
<text text-anchor="middle" x="372.5" y="-61" font-family="Helvetica,sans-Serif" font-size="10.00">function.hpp</text>
</a>
</g>
</g>
<!-- Node17&#45;&gt;Node18 -->
<g id="edge21_Node000017_Node000018" class="edge">
<title>Node17&#45;&gt;Node18</title>
<g id="a_edge21_Node000017_Node000018"><a xlink:title=" ">
<path fill="none" stroke="#63b8ff" d="M226.15,-115.68C255.36,-105.74 302.43,-89.72 335.27,-78.54"/>
<polygon fill="#63b8ff" stroke="#63b8ff" points="336.05,-81.98 344.38,-75.44 333.79,-75.35 336.05,-81.98"/>
</a>
</g>
</g>
<!-- Node19 -->
<g id="Node000019" class="node">
<title>Node19</title>
<g id="a_Node000019"><a xlink:title=" ">
<polygon fill="#e0e0e0" stroke="#999999" points="397.75,-19.25 347.25,-19.25 347.25,0 397.75,0 397.75,-19.25"/>
<text text-anchor="middle" x="372.5" y="-5.75" font-family="Helvetica,sans-Serif" font-size="10.00">memory</text>
</a>
</g>
</g>
<!-- Node18&#45;&gt;Node19 -->
<g id="edge22_Node000018_Node000019" class="edge">
<title>Node18&#45;&gt;Node19</title>
<g id="a_edge22_Node000018_Node000019"><a xlink:title=" ">
<path fill="none" stroke="#63b8ff" d="M372.5,-55.08C372.5,-48.57 372.5,-39.42 372.5,-31.12"/>
<polygon fill="#63b8ff" stroke="#63b8ff" points="376,-31.12 372.5,-21.12 369,-31.12 376,-31.12"/>
</a>
</g>
</g>
<!-- Node20&#45;&gt;Node9 -->
<g id="edge27_Node000020_Node000009" class="edge">
<title>Node20&#45;&gt;Node9</title>
<g id="a_edge27_Node000020_Node000009"><a xlink:title=" ">
<path fill="none" stroke="#63b8ff" d="M505.47,-112.15C508.52,-111.55 511.54,-111 514.5,-110.5 665.08,-85.29 846.49,-72.66 925.49,-68.02"/>
<polygon fill="#63b8ff" stroke="#63b8ff" points="925.54,-71.52 935.32,-67.46 925.13,-64.54 925.54,-71.52"/>
</a>
</g>
</g>
<!-- Node20&#45;&gt;Node12 -->
<g id="edge28_Node000020_Node000012" class="edge">
<title>Node20&#45;&gt;Node12</title>
<g id="a_edge28_Node000020_Node000012"><a xlink:title=" ">
<path fill="none" stroke="#63b8ff" d="M469.19,-110.3C490.61,-89.22 530.34,-50.13 553.17,-27.68"/>
<polygon fill="#63b8ff" stroke="#63b8ff" points="555.53,-30.27 560.2,-20.76 550.62,-25.28 555.53,-30.27"/>
</a>
</g>
</g>
<!-- Node20&#45;&gt;Node18 -->
<g id="edge26_Node000020_Node000018" class="edge">
<title>Node20&#45;&gt;Node18</title>
<g id="a_edge26_Node000020_Node000018"><a xlink:title=" ">
<path fill="none" stroke="#63b8ff" d="M434.23,-110.2C422.11,-101.49 406.7,-90.43 394.31,-81.53"/>
<polygon fill="#63b8ff" stroke="#63b8ff" points="396.54,-78.82 386.37,-75.83 392.45,-84.51 396.54,-78.82"/>
</a>
</g>
</g>
<!-- Node21&#45;&gt;Node9 -->
<g id="edge31_Node000021_Node000009" class="edge">
<title>Node21&#45;&gt;Node9</title>
<g id="a_edge31_Node000021_Node000009"><a xlink:title=" ">
<path fill="none" stroke="#63b8ff" d="M603.52,-115.66C611.04,-113.78 619.01,-111.94 626.5,-110.5 734.06,-89.81 862.68,-75.76 926.12,-69.53"/>
<polygon fill="#63b8ff" stroke="#63b8ff" points="926.07,-73.05 935.69,-68.6 925.39,-66.09 926.07,-73.05"/>
</a>
</g>
</g>
<!-- Node21&#45;&gt;Node12 -->
<g id="edge32_Node000021_Node000012" class="edge">
<title>Node21&#45;&gt;Node12</title>
<g id="a_edge32_Node000021_Node000012"><a xlink:title=" ">
<path fill="none" stroke="#63b8ff" d="M570.5,-115.79C570.5,-97.63 570.5,-56.04 570.5,-30.95"/>
<polygon fill="#63b8ff" stroke="#63b8ff" points="574,-31.05 570.5,-21.05 567,-31.05 574,-31.05"/>
</a>
</g>
</g>
<!-- Node21&#45;&gt;Node18 -->
<g id="edge30_Node000021_Node000018" class="edge">
<title>Node21&#45;&gt;Node18</title>
<g id="a_edge30_Node000021_Node000018"><a xlink:title=" ">
<path fill="none" stroke="#63b8ff" d="M540,-115.68C506.13,-105.61 451.29,-89.3 413.65,-78.11"/>
<polygon fill="#63b8ff" stroke="#63b8ff" points="415.07,-74.88 404.49,-75.39 413.08,-81.59 415.07,-74.88"/>
</a>
</g>
</g>
<!-- Node22&#45;&gt;Node9 -->
<g id="edge34_Node000022_Node000009" class="edge">
<title>Node22&#45;&gt;Node9</title>
<g id="a_edge34_Node000022_Node000009"><a xlink:title=" ">
<path fill="none" stroke="#63b8ff" d="M965.5,-115.81C965.5,-108.03 965.5,-96.45 965.5,-86.41"/>
<polygon fill="#63b8ff" stroke="#63b8ff" points="969,-86.41 965.5,-76.41 962,-86.41 969,-86.41"/>
</a>
</g>
</g>
<!-- Node23&#45;&gt;Node9 -->
<g id="edge36_Node000023_Node000009" class="edge">
<title>Node23&#45;&gt;Node9</title>
<g id="a_edge36_Node000023_Node000009"><a xlink:title=" ">
<path fill="none" stroke="#63b8ff" d="M1040.98,-115.81C1027.13,-106.64 1005.32,-92.22 988.7,-81.23"/>
<polygon fill="#63b8ff" stroke="#63b8ff" points="990.68,-78.33 980.41,-75.74 986.82,-84.17 990.68,-78.33"/>
</a>
</g>
</g>
<!-- Node24&#45;&gt;Node9 -->
<g id="edge39_Node000024_Node000009" class="edge">
<title>Node24&#45;&gt;Node9</title>
<g id="a_edge39_Node000024_Node000009"><a xlink:title=" ">
<path fill="none" stroke="#63b8ff" d="M723.56,-115.68C778.89,-104.29 872.97,-84.92 926.04,-74"/>
<polygon fill="#63b8ff" stroke="#63b8ff" points="926.46,-77.49 935.54,-72.04 925.04,-70.63 926.46,-77.49"/>
</a>
</g>
</g>
<!-- Node24&#45;&gt;Node12 -->
<g id="edge40_Node000024_Node000012" class="edge">
<title>Node24&#45;&gt;Node12</title>
<g id="a_edge40_Node000024_Node000012"><a xlink:title=" ">
<path fill="none" stroke="#63b8ff" d="M670.95,-115.79C652.8,-96.79 610.18,-52.18 586.71,-27.6"/>
<polygon fill="#63b8ff" stroke="#63b8ff" points="589.5,-25.45 580.06,-20.63 584.43,-30.28 589.5,-25.45"/>
</a>
</g>
</g>
<!-- Node24&#45;&gt;Node18 -->
<g id="edge38_Node000024_Node000018" class="edge">
<title>Node24&#45;&gt;Node18</title>
<g id="a_edge38_Node000024_Node000018"><a xlink:title=" ">
<path fill="none" stroke="#63b8ff" d="M647.66,-115.7C640.72,-113.86 633.38,-112.03 626.5,-110.5 554.32,-94.49 469.57,-80.57 418.5,-72.7"/>
<polygon fill="#63b8ff" stroke="#63b8ff" points="419.11,-69.25 408.7,-71.2 418.05,-76.17 419.11,-69.25"/>
</a>
</g>
</g>
<!-- Node25&#45;&gt;Node9 -->
<g id="edge43_Node000025_Node000009" class="edge">
<title>Node25&#45;&gt;Node9</title>
<g id="a_edge43_Node000025_Node000009"><a xlink:title=" ">
<path fill="none" stroke="#63b8ff" d="M115.36,-111.71C118.1,-111.26 120.83,-110.86 123.5,-110.5 430.32,-69.51 804.76,-65.79 925.77,-65.74"/>
<polygon fill="#63b8ff" stroke="#63b8ff" points="925.48,-69.24 935.49,-65.74 925.49,-62.24 925.48,-69.24"/>
</a>
</g>
</g>
<!-- Node25&#45;&gt;Node12 -->
<g id="edge44_Node000025_Node000012" class="edge">
<title>Node25&#45;&gt;Node12</title>
<g id="a_edge44_Node000025_Node000012"><a xlink:title=" ">
<path fill="none" stroke="#63b8ff" d="M98.1,-110.08C142.41,-94.55 215.71,-70.24 280.5,-55.25 374.2,-33.57 487.42,-19.6 540.41,-13.75"/>
<polygon fill="#63b8ff" stroke="#63b8ff" points="540.59,-17.26 550.15,-12.7 539.83,-10.3 540.59,-17.26"/>
</a>
</g>
</g>
<!-- Node25&#45;&gt;Node18 -->
<g id="edge42_Node000025_Node000018" class="edge">
<title>Node25&#45;&gt;Node18</title>
<g id="a_edge42_Node000025_Node000018"><a xlink:title=" ">
<path fill="none" stroke="#63b8ff" d="M115.42,-112.12C118.15,-111.57 120.85,-111.02 123.5,-110.5 194.25,-96.53 276.69,-82.12 326.71,-73.58"/>
<polygon fill="#63b8ff" stroke="#63b8ff" points="327.02,-77.08 336.29,-71.95 325.85,-70.18 327.02,-77.08"/>
</a>
</g>
</g>
<!-- Node26&#45;&gt;Node9 -->
<g id="edge47_Node000026_Node000009" class="edge">
<title>Node26&#45;&gt;Node9</title>
<g id="a_edge47_Node000026_Node000009"><a xlink:title=" ">
<path fill="none" stroke="#63b8ff" d="M385.46,-112.08C388.51,-111.5 391.54,-110.96 394.5,-110.5 592.13,-79.5 831.78,-69.66 925.35,-66.87"/>
<polygon fill="#63b8ff" stroke="#63b8ff" points="925.39,-70.37 935.29,-66.59 925.19,-63.38 925.39,-70.37"/>
</a>
</g>
</g>
<!-- Node26&#45;&gt;Node12 -->
<g id="edge48_Node000026_Node000012" class="edge">
<title>Node26&#45;&gt;Node12</title>
<g id="a_edge48_Node000026_Node000012"><a xlink:title=" ">
<path fill="none" stroke="#63b8ff" d="M364.87,-110.06C410.64,-87.93 496.72,-46.3 541.61,-24.6"/>
<polygon fill="#63b8ff" stroke="#63b8ff" points="542.98,-27.82 550.46,-20.31 539.94,-21.52 542.98,-27.82"/>
</a>
</g>
</g>
<!-- Node26&#45;&gt;Node18 -->
<g id="edge46_Node000026_Node000018" class="edge">
<title>Node26&#45;&gt;Node18</title>
<g id="a_edge46_Node000026_Node000018"><a xlink:title=" ">
<path fill="none" stroke="#63b8ff" d="M343.89,-110.2C348.9,-102.44 355.11,-92.81 360.47,-84.51"/>
<polygon fill="#63b8ff" stroke="#63b8ff" points="363.34,-86.52 365.82,-76.22 357.46,-82.73 363.34,-86.52"/>
</a>
</g>
</g>
<!-- Node27&#45;&gt;Node9 -->
<g id="edge53_Node000027_Node000009" class="edge">
<title>Node27&#45;&gt;Node9</title>
<g id="a_edge53_Node000027_Node000009"><a xlink:title=" ">
<path fill="none" stroke="#63b8ff" d="M1334.35,-115.68C1324.52,-113.86 1314.18,-112.04 1304.5,-110.5 1196.61,-93.3 1068.64,-77.76 1005.22,-70.39"/>
<polygon fill="#63b8ff" stroke="#63b8ff" points="1005.99,-66.96 995.65,-69.29 1005.18,-73.91 1005.99,-66.96"/>
</a>
</g>
</g>
<!-- Node27&#45;&gt;Node11 -->
<g id="edge54_Node000027_Node000011" class="edge">
<title>Node27&#45;&gt;Node11</title>
<g id="a_edge54_Node000027_Node000011"><a xlink:title=" ">
<path fill="none" stroke="#63b8ff" d="M1376.77,-115.83C1369.98,-100.73 1354.05,-70.3 1330.5,-55.25 1298.39,-34.73 1190.7,-20.49 1134.04,-14.22"/>
<polygon fill="#63b8ff" stroke="#63b8ff" points="1134.59,-10.76 1124.27,-13.17 1133.84,-17.72 1134.59,-10.76"/>
</a>
</g>
</g>
<!-- Node27&#45;&gt;Node12 -->
<g id="edge56_Node000027_Node000012" class="edge">
<title>Node27&#45;&gt;Node12</title>
<g id="a_edge56_Node000027_Node000012"><a xlink:title=" ">
<path fill="none" stroke="#63b8ff" d="M1368.98,-115.68C1348.4,-100.05 1303.33,-68.48 1259.5,-55.25 1195.85,-36.05 725.03,-16.61 600.59,-11.77"/>
<polygon fill="#63b8ff" stroke="#63b8ff" points="600.98,-8.28 590.85,-11.39 600.71,-15.28 600.98,-8.28"/>
</a>
</g>
</g>
<!-- Node28 -->
<g id="Node000028" class="node">
<title>Node28</title>
<g id="a_Node000028"><a xlink:title=" ">
<polygon fill="#e0e0e0" stroke="#999999" points="1426.38,-74.5 1382.62,-74.5 1382.62,-55.25 1426.38,-55.25 1426.38,-74.5"/>
<text text-anchor="middle" x="1404.5" y="-61" font-family="Helvetica,sans-Serif" font-size="10.00">format</text>
</a>
</g>
</g>
<!-- Node27&#45;&gt;Node28 -->
<g id="edge55_Node000027_Node000028" class="edge">
<title>Node27&#45;&gt;Node28</title>
<g id="a_edge55_Node000027_Node000028"><a xlink:title=" ">
<path fill="none" stroke="#63b8ff" d="M1384.15,-115.81C1387.42,-107.77 1392.35,-95.68 1396.54,-85.41"/>
<polygon fill="#63b8ff" stroke="#63b8ff" points="1399.72,-86.88 1400.25,-76.3 1393.23,-84.24 1399.72,-86.88"/>
</a>
</g>
</g>
<!-- Node29&#45;&gt;Node9 -->
<g id="edge58_Node000029_Node000009" class="edge">
<title>Node29&#45;&gt;Node9</title>
<g id="a_edge58_Node000029_Node000009"><a xlink:title=" ">
<path fill="none" stroke="#63b8ff" d="M1485.96,-115.63C1476.32,-113.74 1466.08,-111.89 1456.5,-110.5 1289.82,-86.27 1089.27,-72.92 1005.41,-68.04"/>
<polygon fill="#63b8ff" stroke="#63b8ff" points="1005.82,-64.56 995.64,-67.49 1005.42,-71.55 1005.82,-64.56"/>
</a>
</g>
</g>
<!-- Node29&#45;&gt;Node13 -->
<g id="edge60_Node000029_Node000013" class="edge">
<title>Node29&#45;&gt;Node13</title>
<g id="a_edge60_Node000029_Node000013"><a xlink:title=" ">
<path fill="none" stroke="#63b8ff" d="M1518.05,-115.82C1502.18,-101.25 1468.62,-72.27 1435.5,-55.25 1398.74,-36.36 1352.52,-23.73 1322.75,-16.86"/>
<polygon fill="#63b8ff" stroke="#63b8ff" points="1323.82,-13.51 1313.3,-14.76 1322.3,-20.35 1323.82,-13.51"/>
</a>
</g>
</g>
<!-- Node30 -->
<g id="Node000030" class="node">
<title>Node30</title>
<g id="a_Node000030"><a xlink:title=" ">
<polygon fill="#e0e0e0" stroke="#999999" points="1544.88,-74.5 1510.12,-74.5 1510.12,-55.25 1544.88,-55.25 1544.88,-74.5"/>
<text text-anchor="middle" x="1527.5" y="-61" font-family="Helvetica,sans-Serif" font-size="10.00">print</text>
</a>
</g>
</g>
<!-- Node29&#45;&gt;Node30 -->
<g id="edge59_Node000029_Node000030" class="edge">
<title>Node29&#45;&gt;Node30</title>
<g id="a_edge59_Node000029_Node000030"><a xlink:title=" ">
<path fill="none" stroke="#63b8ff" d="M1527.5,-115.81C1527.5,-108.03 1527.5,-96.45 1527.5,-86.41"/>
<polygon fill="#63b8ff" stroke="#63b8ff" points="1531,-86.41 1527.5,-76.41 1524,-86.41 1531,-86.41"/>
</a>
</g>
</g>
</g>
</svg>
