<?xml version="1.0" encoding="UTF-8" standalone="no"?>
<!DOCTYPE svg PUBLIC "-//W3C//DTD SVG 1.1//EN"
 "http://www.w3.org/Graphics/SVG/1.1/DTD/svg11.dtd">
<!-- Generated by graphviz version 3.0.0 (20221109.1736)
 -->
<!-- Title: /github/workspace/benchmark/predict_linalg_x1x.cpp Pages: 1 -->
<!--zoomable 319 -->
<svg id="main" version="1.1" xmlns="http://www.w3.org/2000/svg" xmlns:xlink="http://www.w3.org/1999/xlink" xml:space="preserve" onload="init(evt)">
<style type="text/css"><![CDATA[
.edge:hover path { stroke: red; }
.edge:hover polygon { stroke: red; fill: red; }
]]></style>
<script type="text/javascript"><![CDATA[
var edges = document.getElementsByTagName('g');
if (edges && edges.length) {
  for (var i=0;i<edges.length;i++) {
    if (edges[i].id.substr(0,4)=='edge') {
      edges[i].setAttribute('class','edge');
    }
  }
}
]]></script>
        <defs>
                <circle id="rim" cx="0" cy="0" r="7"/>
                <circle id="rim2" cx="0" cy="0" r="3.5"/>
                <g id="zoomPlus">
                        <use xlink:href="#rim" fill="#404040">
                                <set attributeName="fill" to="#808080" begin="zoomplus.mouseover" end="zoomplus.mouseout"/>
                        </use>
                        <path d="M-4,0h8M0,-4v8" fill="none" stroke="white" stroke-width="1.5" pointer-events="none"/>
                </g>
                <g id="zoomMin">
                        <use xlink:href="#rim" fill="#404040">
                                <set attributeName="fill" to="#808080" begin="zoomminus.mouseover" end="zoomminus.mouseout"/>
                        </use>
                        <path d="M-4,0h8" fill="none" stroke="white" stroke-width="1.5" pointer-events="none"/>
                </g>
                <g id="dirArrow">
                        <path fill="none" stroke="white" stroke-width="1.5" d="M0,-3.0v7 M-2.5,-0.5L0,-3.0L2.5,-0.5"/>
                </g>
               <g id="resetDef">
                       <use xlink:href="#rim2" fill="#404040">
                               <set attributeName="fill" to="#808080" begin="reset.mouseover" end="reset.mouseout"/>
                       </use>
               </g>
        </defs>

<script type="text/javascript">
var viewWidth = 1085;
var viewHeight = 319;
var sectionId = 'dynsection-0';
</script>
<script xlink:href="svgpan.js"/>
<svg id="graph" class="graph">
<g id="viewport">
<title>/github/workspace/benchmark/predict_linalg_x1x.cpp</title>
<polygon fill="white" stroke="transparent" points="-4,4 -4,-315 1080.5,-315 1080.5,4 -4,4"/>
<!-- Node1 -->
<g id="node1" class="node">
<title>Node1</title>
<g id="a_node1"><a xlink:title=" ">
<polygon fill="#bfbfbf" stroke="black" points="564.5,-280.5 564.5,-310.5 711.5,-310.5 711.5,-280.5 564.5,-280.5"/>
<text text-anchor="start" x="572.5" y="-298.5" font-family="Helvetica,sans-Serif" font-size="10.00">/github/workspace/benchmark</text>
<text text-anchor="middle" x="638" y="-287.5" font-family="Helvetica,sans-Serif" font-size="10.00">/predict_linalg_x1x.cpp</text>
</a>
</g>
</g>
<!-- Node2 -->
<g id="node2" class="node">
<title>Node2</title>
<g id="a_node2"><a xlink:href="benchmark_8hpp.xhtml" target="_top" xlink:title="Benchmarking support.">
<polygon fill="white" stroke="black" points="33.5,-224.5 33.5,-243.5 116.5,-243.5 116.5,-224.5 33.5,-224.5"/>
<text text-anchor="middle" x="75" y="-231.5" font-family="Helvetica,sans-Serif" font-size="10.00">benchmark.hpp</text>
</a>
</g>
</g>
<!-- Node1&#45;&gt;Node2 -->
<g id="edge1" class="edge">
<title>Node1&#45;&gt;Node2</title>
<path fill="none" stroke="midnightblue" d="M564.38,-288.56C465.58,-280.28 284.73,-263.99 131,-244 129.54,-243.81 128.05,-243.61 126.55,-243.4"/>
<polygon fill="midnightblue" stroke="midnightblue" points="126.95,-239.93 116.55,-241.96 125.95,-246.85 126.95,-239.93"/>
</g>
<!-- Node3 -->
<g id="node3" class="node">
<title>Node3</title>
<g id="a_node3"><a xlink:title=" ">
<polygon fill="white" stroke="#bfbfbf" points="0,-168.5 0,-187.5 46,-187.5 46,-168.5 0,-168.5"/>
<text text-anchor="middle" x="23" y="-175.5" font-family="Helvetica,sans-Serif" font-size="10.00">chrono</text>
</a>
</g>
</g>
<!-- Node1&#45;&gt;Node3 -->
<g id="edge31" class="edge">
<title>Node1&#45;&gt;Node3</title>
<path fill="none" stroke="midnightblue" d="M564.48,-293.87C409.44,-291.77 60.26,-282.76 24,-244 12.7,-231.92 14.01,-212.35 17.2,-197.84"/>
<polygon fill="midnightblue" stroke="midnightblue" points="20.65,-198.5 19.83,-187.93 13.88,-196.7 20.65,-198.5"/>
</g>
<!-- Node5 -->
<g id="node5" class="node">
<title>Node5</title>
<g id="a_node5"><a xlink:href="internal_2utility_8hpp.xhtml" target="_top" xlink:title=" ">
<polygon fill="white" stroke="black" points="436,-56.5 436,-75.5 568,-75.5 568,-56.5 436,-56.5"/>
<text text-anchor="middle" x="502" y="-63.5" font-family="Helvetica,sans-Serif" font-size="10.00">fcarouge/internal/utility.hpp</text>
</a>
</g>
</g>
<!-- Node1&#45;&gt;Node5 -->
<g id="edge4" class="edge">
<title>Node1&#45;&gt;Node5</title>
<path fill="none" stroke="midnightblue" d="M564.35,-292.47C457.01,-288.43 263.74,-276.72 203,-244 174.39,-228.59 167.11,-218.53 156,-188 152.96,-179.65 150.67,-175.11 156,-168 189.29,-123.6 342.51,-92.25 433.52,-77.17"/>
<polygon fill="midnightblue" stroke="midnightblue" points="434.18,-80.61 443.48,-75.54 433.05,-73.7 434.18,-80.61"/>
</g>
<!-- Node7 -->
<g id="node7" class="node">
<title>Node7</title>
<g id="a_node7"><a xlink:href="kalman_8hpp.xhtml" target="_top" xlink:title="The Kalman filter class and library top&#45;level header.">
<polygon fill="white" stroke="black" points="457.5,-224.5 457.5,-243.5 564.5,-243.5 564.5,-224.5 457.5,-224.5"/>
<text text-anchor="middle" x="511" y="-231.5" font-family="Helvetica,sans-Serif" font-size="10.00">fcarouge/kalman.hpp</text>
</a>
</g>
</g>
<!-- Node1&#45;&gt;Node7 -->
<g id="edge7" class="edge">
<title>Node1&#45;&gt;Node7</title>
<path fill="none" stroke="midnightblue" d="M607.9,-280.4C586.88,-270.55 559.03,-257.5 538.58,-247.92"/>
<polygon fill="midnightblue" stroke="midnightblue" points="540.02,-244.73 529.48,-243.66 537.05,-251.07 540.02,-244.73"/>
</g>
<!-- Node16 -->
<g id="node16" class="node">
<title>Node16</title>
<g id="a_node16"><a xlink:title=" ">
<polygon fill="white" stroke="#bfbfbf" points="981.5,-168.5 981.5,-187.5 1030.5,-187.5 1030.5,-168.5 981.5,-168.5"/>
<text text-anchor="middle" x="1006" y="-175.5" font-family="Helvetica,sans-Serif" font-size="10.00">cstddef</text>
</a>
</g>
</g>
<!-- Node1&#45;&gt;Node16 -->
<g id="edge33" class="edge">
<title>Node1&#45;&gt;Node16</title>
<path fill="none" stroke="midnightblue" d="M625.54,-280.41C613.34,-264.88 598.53,-239.98 613,-224 665,-166.54 877.76,-199.99 971.24,-187.8"/>
<polygon fill="midnightblue" stroke="midnightblue" points="971.9,-191.24 981.24,-186.23 970.81,-184.32 971.9,-191.24"/>
</g>
<!-- Node20 -->
<g id="node20" class="node">
<title>Node20</title>
<g id="a_node20"><a xlink:href="linalg_8hpp.xhtml" target="_top" xlink:title="Linear algebra facade for Eigen3 third party implementation.">
<polygon fill="white" stroke="black" points="212,-224.5 212,-243.5 310,-243.5 310,-224.5 212,-224.5"/>
<text text-anchor="middle" x="261" y="-231.5" font-family="Helvetica,sans-Serif" font-size="10.00">fcarouge/linalg.hpp</text>
</a>
</g>
</g>
<!-- Node1&#45;&gt;Node20 -->
<g id="edge26" class="edge">
<title>Node1&#45;&gt;Node20</title>
<path fill="none" stroke="midnightblue" d="M564.42,-282.89C493.12,-271.63 386.37,-254.79 320.34,-244.37"/>
<polygon fill="midnightblue" stroke="midnightblue" points="320.53,-240.85 310.1,-242.75 319.43,-247.77 320.53,-240.85"/>
</g>
<!-- Node22 -->
<g id="node22" class="node">
<title>Node22</title>
<g id="a_node22"><a xlink:title=" ">
<polygon fill="white" stroke="#bfbfbf" points="621.5,-224.5 621.5,-243.5 744.5,-243.5 744.5,-224.5 621.5,-224.5"/>
<text text-anchor="middle" x="683" y="-231.5" font-family="Helvetica,sans-Serif" font-size="10.00">benchmark/benchmark.h</text>
</a>
</g>
</g>
<!-- Node1&#45;&gt;Node22 -->
<g id="edge29" class="edge">
<title>Node1&#45;&gt;Node22</title>
<path fill="none" stroke="midnightblue" d="M648.66,-280.4C655.14,-271.84 663.43,-260.87 670.25,-251.86"/>
<polygon fill="midnightblue" stroke="midnightblue" points="673.21,-253.74 676.45,-243.66 667.63,-249.52 673.21,-253.74"/>
</g>
<!-- Node23 -->
<g id="node23" class="node">
<title>Node23</title>
<g id="a_node23"><a xlink:title=" ">
<polygon fill="white" stroke="#bfbfbf" points="763,-224.5 763,-243.5 819,-243.5 819,-224.5 763,-224.5"/>
<text text-anchor="middle" x="791" y="-231.5" font-family="Helvetica,sans-Serif" font-size="10.00">algorithm</text>
</a>
</g>
</g>
<!-- Node1&#45;&gt;Node23 -->
<g id="edge30" class="edge">
<title>Node1&#45;&gt;Node23</title>
<path fill="none" stroke="midnightblue" d="M674.26,-280.4C700.04,-270.37 734.36,-257.03 759.1,-247.4"/>
<polygon fill="midnightblue" stroke="midnightblue" points="760.69,-250.54 768.74,-243.66 758.15,-244.02 760.69,-250.54"/>
</g>
<!-- Node24 -->
<g id="node24" class="node">
<title>Node24</title>
<g id="a_node24"><a xlink:title=" ">
<polygon fill="white" stroke="#bfbfbf" points="837,-224.5 837,-243.5 881,-243.5 881,-224.5 837,-224.5"/>
<text text-anchor="middle" x="859" y="-231.5" font-family="Helvetica,sans-Serif" font-size="10.00">cmath</text>
</a>
</g>
</g>
<!-- Node1&#45;&gt;Node24 -->
<g id="edge32" class="edge">
<title>Node1&#45;&gt;Node24</title>
<path fill="none" stroke="midnightblue" d="M692.14,-280.46C727.9,-271.11 776.04,-258.36 826.82,-244.29"/>
<polygon fill="midnightblue" stroke="midnightblue" points="827.97,-247.6 836.67,-241.55 826.09,-240.86 827.97,-247.6"/>
</g>
<!-- Node25 -->
<g id="node25" class="node">
<title>Node25</title>
<g id="a_node25"><a xlink:title=" ">
<polygon fill="white" stroke="#bfbfbf" points="899,-224.5 899,-243.5 945,-243.5 945,-224.5 899,-224.5"/>
<text text-anchor="middle" x="922" y="-231.5" font-family="Helvetica,sans-Serif" font-size="10.00">cstdint</text>
</a>
</g>
</g>
<!-- Node1&#45;&gt;Node25 -->
<g id="edge34" class="edge">
<title>Node1&#45;&gt;Node25</title>
<path fill="none" stroke="midnightblue" d="M711.65,-281.28C759.61,-272.31 823.72,-259.65 888.93,-244.12"/>
<polygon fill="midnightblue" stroke="midnightblue" points="890.08,-247.44 898.98,-241.7 888.44,-240.63 890.08,-247.44"/>
</g>
<!-- Node26 -->
<g id="node26" class="node">
<title>Node26</title>
<g id="a_node26"><a xlink:title=" ">
<polygon fill="white" stroke="#bfbfbf" points="963,-224.5 963,-243.5 1009,-243.5 1009,-224.5 963,-224.5"/>
<text text-anchor="middle" x="986" y="-231.5" font-family="Helvetica,sans-Serif" font-size="10.00">cstring</text>
</a>
</g>
</g>
<!-- Node1&#45;&gt;Node26 -->
<g id="edge35" class="edge">
<title>Node1&#45;&gt;Node26</title>
<path fill="none" stroke="midnightblue" d="M711.56,-285.2C773.57,-276.8 864.78,-263.13 952.78,-244.07"/>
<polygon fill="midnightblue" stroke="midnightblue" points="953.64,-247.46 962.66,-241.9 952.14,-240.62 953.64,-247.46"/>
</g>
<!-- Node27 -->
<g id="node27" class="node">
<title>Node27</title>
<g id="a_node27"><a xlink:title=" ">
<polygon fill="white" stroke="#bfbfbf" points="1027.5,-224.5 1027.5,-243.5 1076.5,-243.5 1076.5,-224.5 1027.5,-224.5"/>
<text text-anchor="middle" x="1052" y="-231.5" font-family="Helvetica,sans-Serif" font-size="10.00">random</text>
</a>
</g>
</g>
<!-- Node1&#45;&gt;Node27 -->
<g id="edge36" class="edge">
<title>Node1&#45;&gt;Node27</title>
<path fill="none" stroke="midnightblue" d="M711.65,-287.51C786.29,-279.79 905.18,-265.76 1017.09,-243.95"/>
<polygon fill="midnightblue" stroke="midnightblue" points="1018.07,-247.32 1027.2,-241.95 1016.71,-240.46 1018.07,-247.32"/>
</g>
<!-- Node2&#45;&gt;Node3 -->
<g id="edge2" class="edge">
<title>Node2&#45;&gt;Node3</title>
<path fill="none" stroke="midnightblue" d="M66.41,-224.08C58.84,-216.22 47.62,-204.57 38.49,-195.08"/>
<polygon fill="midnightblue" stroke="midnightblue" points="40.88,-192.53 31.43,-187.75 35.84,-197.38 40.88,-192.53"/>
</g>
<!-- Node4 -->
<g id="node4" class="node">
<title>Node4</title>
<g id="a_node4"><a xlink:title=" ">
<polygon fill="white" stroke="#bfbfbf" points="287,-0.5 287,-19.5 349,-19.5 349,-0.5 287,-0.5"/>
<text text-anchor="middle" x="318" y="-7.5" font-family="Helvetica,sans-Serif" font-size="10.00">type_traits</text>
</a>
</g>
</g>
<!-- Node2&#45;&gt;Node4 -->
<g id="edge3" class="edge">
<title>Node2&#45;&gt;Node4</title>
<path fill="none" stroke="midnightblue" d="M84.53,-224.3C121.2,-190.8 253.55,-69.88 300.96,-26.57"/>
<polygon fill="midnightblue" stroke="midnightblue" points="303.52,-28.97 308.54,-19.64 298.8,-23.8 303.52,-28.97"/>
</g>
<!-- Node5&#45;&gt;Node4 -->
<g id="edge6" class="edge">
<title>Node5&#45;&gt;Node4</title>
<path fill="none" stroke="midnightblue" d="M472.84,-56.44C441.49,-47.24 391.47,-32.56 356.8,-22.39"/>
<polygon fill="midnightblue" stroke="midnightblue" points="357.6,-18.97 347.02,-19.52 355.63,-25.69 357.6,-18.97"/>
</g>
<!-- Node6 -->
<g id="node6" class="node">
<title>Node6</title>
<g id="a_node6"><a xlink:title=" ">
<polygon fill="white" stroke="#bfbfbf" points="662,-0.5 662,-19.5 718,-19.5 718,-0.5 662,-0.5"/>
<text text-anchor="middle" x="690" y="-7.5" font-family="Helvetica,sans-Serif" font-size="10.00">concepts</text>
</a>
</g>
</g>
<!-- Node5&#45;&gt;Node6 -->
<g id="edge5" class="edge">
<title>Node5&#45;&gt;Node6</title>
<path fill="none" stroke="midnightblue" d="M531.79,-56.44C564.3,-47.11 616.44,-32.13 651.91,-21.94"/>
<polygon fill="midnightblue" stroke="midnightblue" points="653.24,-25.2 661.89,-19.08 651.31,-18.47 653.24,-25.2"/>
</g>
<!-- Node7&#45;&gt;Node4 -->
<g id="edge23" class="edge">
<title>Node7&#45;&gt;Node4</title>
<path fill="none" stroke="midnightblue" d="M457.45,-227.8C406.81,-221.64 336.08,-209.42 319,-188 282.01,-141.6 300.25,-64.49 311.45,-29.4"/>
<polygon fill="midnightblue" stroke="midnightblue" points="314.89,-30.17 314.76,-19.58 308.25,-27.94 314.89,-30.17"/>
</g>
<!-- Node7&#45;&gt;Node6 -->
<g id="edge20" class="edge">
<title>Node7&#45;&gt;Node6</title>
<path fill="none" stroke="midnightblue" d="M564.54,-226.95C660.48,-215.98 852.21,-193.45 857,-188 891.13,-149.14 931.23,-177.74 798,-56 778.36,-38.06 750.56,-26.7 728.08,-19.88"/>
<polygon fill="midnightblue" stroke="midnightblue" points="728.75,-16.43 718.17,-17.06 726.83,-23.16 728.75,-16.43"/>
</g>
<!-- Node8 -->
<g id="node8" class="node">
<title>Node8</title>
<g id="a_node8"><a xlink:href="algorithm_8hpp.xhtml" target="_top" xlink:title="The collection of Kalman algorithms.">
<polygon fill="white" stroke="black" points="774,-168.5 774,-187.5 848,-187.5 848,-168.5 774,-168.5"/>
<text text-anchor="middle" x="811" y="-175.5" font-family="Helvetica,sans-Serif" font-size="10.00">algorithm.hpp</text>
</a>
</g>
</g>
<!-- Node7&#45;&gt;Node8 -->
<g id="edge8" class="edge">
<title>Node7&#45;&gt;Node8</title>
<path fill="none" stroke="midnightblue" d="M560.69,-224.47C609.73,-215.98 687.11,-202.44 763.56,-188.24"/>
<polygon fill="midnightblue" stroke="midnightblue" points="764.66,-191.6 773.85,-186.33 763.38,-184.72 764.66,-191.6"/>
</g>
<!-- Node9 -->
<g id="node9" class="node">
<title>Node9</title>
<g id="a_node9"><a xlink:href="format_8hpp.xhtml" target="_top" xlink:title=" ">
<polygon fill="white" stroke="black" points="539.5,-168.5 539.5,-187.5 636.5,-187.5 636.5,-168.5 539.5,-168.5"/>
<text text-anchor="middle" x="588" y="-175.5" font-family="Helvetica,sans-Serif" font-size="10.00">internal/format.hpp</text>
</a>
</g>
</g>
<!-- Node7&#45;&gt;Node9 -->
<g id="edge9" class="edge">
<title>Node7&#45;&gt;Node9</title>
<path fill="none" stroke="midnightblue" d="M523.37,-224.32C535.16,-216.06 553.13,-203.45 567.14,-193.63"/>
<polygon fill="midnightblue" stroke="midnightblue" points="569.48,-196.26 575.66,-187.65 565.46,-190.53 569.48,-196.26"/>
</g>
<!-- Node10 -->
<g id="node10" class="node">
<title>Node10</title>
<g id="a_node10"><a xlink:href="utility_8hpp.xhtml" target="_top" xlink:title="The collection of utilities supporting the library.">
<polygon fill="white" stroke="black" points="453,-112.5 453,-131.5 551,-131.5 551,-112.5 453,-112.5"/>
<text text-anchor="middle" x="502" y="-119.5" font-family="Helvetica,sans-Serif" font-size="10.00">fcarouge/utility.hpp</text>
</a>
</g>
</g>
<!-- Node7&#45;&gt;Node10 -->
<g id="edge19" class="edge">
<title>Node7&#45;&gt;Node10</title>
<path fill="none" stroke="midnightblue" d="M510.29,-224.37C508.84,-206.62 505.49,-165.67 503.52,-141.6"/>
<polygon fill="midnightblue" stroke="midnightblue" points="507.01,-141.27 502.7,-131.59 500.03,-141.84 507.01,-141.27"/>
</g>
<!-- Node12 -->
<g id="node12" class="node">
<title>Node12</title>
<g id="a_node12"><a xlink:href="internal_2kalman_8hpp.xhtml" target="_top" xlink:title=" ">
<polygon fill="white" stroke="black" points="654.5,-168.5 654.5,-187.5 755.5,-187.5 755.5,-168.5 654.5,-168.5"/>
<text text-anchor="middle" x="705" y="-175.5" font-family="Helvetica,sans-Serif" font-size="10.00">internal/kalman.hpp</text>
</a>
</g>
</g>
<!-- Node7&#45;&gt;Node12 -->
<g id="edge14" class="edge">
<title>Node7&#45;&gt;Node12</title>
<path fill="none" stroke="midnightblue" d="M541.74,-224.44C574.94,-215.2 627.99,-200.44 664.56,-190.26"/>
<polygon fill="midnightblue" stroke="midnightblue" points="665.71,-193.57 674.4,-187.52 663.83,-186.83 665.71,-193.57"/>
</g>
<!-- Node7&#45;&gt;Node16 -->
<g id="edge21" class="edge">
<title>Node7&#45;&gt;Node16</title>
<path fill="none" stroke="midnightblue" d="M564.8,-225.68C569.6,-225.08 574.38,-224.52 579,-224 750.51,-204.82 798.2,-218.72 971.29,-188.04"/>
<polygon fill="midnightblue" stroke="midnightblue" points="972.02,-191.47 981.24,-186.25 970.78,-184.58 972.02,-191.47"/>
</g>
<!-- Node17 -->
<g id="node17" class="node">
<title>Node17</title>
<g id="a_node17"><a xlink:title=" ">
<polygon fill="white" stroke="#bfbfbf" points="904.5,-168.5 904.5,-187.5 963.5,-187.5 963.5,-168.5 904.5,-168.5"/>
<text text-anchor="middle" x="934" y="-175.5" font-family="Helvetica,sans-Serif" font-size="10.00">functional</text>
</a>
</g>
</g>
<!-- Node7&#45;&gt;Node17 -->
<g id="edge22" class="edge">
<title>Node7&#45;&gt;Node17</title>
<path fill="none" stroke="midnightblue" d="M564.81,-225.8C569.61,-225.18 574.39,-224.57 579,-224 717.09,-206.87 752.6,-209.96 890,-188 891.44,-187.77 892.91,-187.52 894.39,-187.27"/>
<polygon fill="midnightblue" stroke="midnightblue" points="895.04,-190.71 904.24,-185.45 893.77,-183.82 895.04,-190.71"/>
</g>
<!-- Node18 -->
<g id="node18" class="node">
<title>Node18</title>
<g id="a_node18"><a xlink:title=" ">
<polygon fill="white" stroke="#bfbfbf" points="327.5,-168.5 327.5,-187.5 366.5,-187.5 366.5,-168.5 327.5,-168.5"/>
<text text-anchor="middle" x="347" y="-175.5" font-family="Helvetica,sans-Serif" font-size="10.00">utility</text>
</a>
</g>
</g>
<!-- Node7&#45;&gt;Node18 -->
<g id="edge24" class="edge">
<title>Node7&#45;&gt;Node18</title>
<path fill="none" stroke="midnightblue" d="M485.01,-224.44C455.48,-214.72 407.37,-198.88 376.46,-188.7"/>
<polygon fill="midnightblue" stroke="midnightblue" points="377.28,-185.29 366.69,-185.48 375.09,-191.93 377.28,-185.29"/>
</g>
<!-- Node19 -->
<g id="node19" class="node">
<title>Node19</title>
<g id="a_node19"><a xlink:title=" ">
<polygon fill="white" stroke="#bfbfbf" points="385,-168.5 385,-187.5 483,-187.5 483,-168.5 385,-168.5"/>
<text text-anchor="middle" x="434" y="-175.5" font-family="Helvetica,sans-Serif" font-size="10.00">internal/kalman.tpp</text>
</a>
</g>
</g>
<!-- Node7&#45;&gt;Node19 -->
<g id="edge25" class="edge">
<title>Node7&#45;&gt;Node19</title>
<path fill="none" stroke="midnightblue" d="M498.63,-224.32C486.84,-216.06 468.87,-203.45 454.86,-193.63"/>
<polygon fill="midnightblue" stroke="midnightblue" points="456.54,-190.53 446.34,-187.65 452.52,-196.26 456.54,-190.53"/>
</g>
<!-- Node9&#45;&gt;Node4 -->
<g id="edge13" class="edge">
<title>Node9&#45;&gt;Node4</title>
<path fill="none" stroke="midnightblue" d="M542.63,-168.48C513.1,-161.61 474.55,-150.06 444,-132 396.13,-103.69 352.19,-53.85 331.11,-27.85"/>
<polygon fill="midnightblue" stroke="midnightblue" points="333.6,-25.37 324.64,-19.73 328.13,-29.73 333.6,-25.37"/>
</g>
<!-- Node9&#45;&gt;Node10 -->
<g id="edge10" class="edge">
<title>Node9&#45;&gt;Node10</title>
<path fill="none" stroke="midnightblue" d="M574.18,-168.32C560.77,-159.9 540.18,-146.97 524.41,-137.07"/>
<polygon fill="midnightblue" stroke="midnightblue" points="526.11,-134.01 515.78,-131.65 522.39,-139.94 526.11,-134.01"/>
</g>
<!-- Node11 -->
<g id="node11" class="node">
<title>Node11</title>
<g id="a_node11"><a xlink:title=" ">
<polygon fill="white" stroke="#bfbfbf" points="569,-112.5 569,-131.5 613,-131.5 613,-112.5 569,-112.5"/>
<text text-anchor="middle" x="591" y="-119.5" font-family="Helvetica,sans-Serif" font-size="10.00">format</text>
</a>
</g>
</g>
<!-- Node9&#45;&gt;Node11 -->
<g id="edge12" class="edge">
<title>Node9&#45;&gt;Node11</title>
<path fill="none" stroke="midnightblue" d="M588.5,-168.08C588.89,-161.01 589.45,-150.86 589.95,-141.99"/>
<polygon fill="midnightblue" stroke="midnightblue" points="593.45,-141.93 590.51,-131.75 586.46,-141.54 593.45,-141.93"/>
</g>
<!-- Node10&#45;&gt;Node5 -->
<g id="edge11" class="edge">
<title>Node10&#45;&gt;Node5</title>
<path fill="none" stroke="midnightblue" d="M502,-112.08C502,-105.01 502,-94.86 502,-85.99"/>
<polygon fill="midnightblue" stroke="midnightblue" points="505.5,-85.75 502,-75.75 498.5,-85.75 505.5,-85.75"/>
</g>
<!-- Node12&#45;&gt;Node5 -->
<g id="edge17" class="edge">
<title>Node12&#45;&gt;Node5</title>
<path fill="none" stroke="midnightblue" d="M704.33,-168.43C702.77,-154.49 697.65,-126.95 681,-112 653.12,-86.96 613.35,-75.41 578.38,-70.25"/>
<polygon fill="midnightblue" stroke="midnightblue" points="578.55,-66.74 568.18,-68.9 577.63,-73.68 578.55,-66.74"/>
</g>
<!-- Node13 -->
<g id="node13" class="node">
<title>Node13</title>
<g id="a_node13"><a xlink:href="function_8hpp.xhtml" target="_top" xlink:title=" ">
<polygon fill="white" stroke="black" points="728.5,-112.5 728.5,-131.5 797.5,-131.5 797.5,-112.5 728.5,-112.5"/>
<text text-anchor="middle" x="763" y="-119.5" font-family="Helvetica,sans-Serif" font-size="10.00">function.hpp</text>
</a>
</g>
</g>
<!-- Node12&#45;&gt;Node13 -->
<g id="edge15" class="edge">
<title>Node12&#45;&gt;Node13</title>
<path fill="none" stroke="midnightblue" d="M714.32,-168.32C722.89,-160.34 735.81,-148.31 746.19,-138.65"/>
<polygon fill="midnightblue" stroke="midnightblue" points="748.58,-141.21 753.51,-131.83 743.81,-136.09 748.58,-141.21"/>
</g>
<!-- Node15 -->
<g id="node15" class="node">
<title>Node15</title>
<g id="a_node15"><a xlink:title=" ">
<polygon fill="white" stroke="#bfbfbf" points="634,-112.5 634,-131.5 672,-131.5 672,-112.5 634,-112.5"/>
<text text-anchor="middle" x="653" y="-119.5" font-family="Helvetica,sans-Serif" font-size="10.00">tuple</text>
</a>
</g>
</g>
<!-- Node12&#45;&gt;Node15 -->
<g id="edge18" class="edge">
<title>Node12&#45;&gt;Node15</title>
<path fill="none" stroke="midnightblue" d="M696.41,-168.08C688.84,-160.22 677.62,-148.57 668.49,-139.08"/>
<polygon fill="midnightblue" stroke="midnightblue" points="670.88,-136.53 661.43,-131.75 665.84,-141.38 670.88,-136.53"/>
</g>
<!-- Node14 -->
<g id="node14" class="node">
<title>Node14</title>
<g id="a_node14"><a xlink:title=" ">
<polygon fill="white" stroke="#bfbfbf" points="737.5,-56.5 737.5,-75.5 788.5,-75.5 788.5,-56.5 737.5,-56.5"/>
<text text-anchor="middle" x="763" y="-63.5" font-family="Helvetica,sans-Serif" font-size="10.00">memory</text>
</a>
</g>
</g>
<!-- Node13&#45;&gt;Node14 -->
<g id="edge16" class="edge">
<title>Node13&#45;&gt;Node14</title>
<path fill="none" stroke="midnightblue" d="M763,-112.08C763,-105.01 763,-94.86 763,-85.99"/>
<polygon fill="midnightblue" stroke="midnightblue" points="766.5,-85.75 763,-75.75 759.5,-85.75 766.5,-85.75"/>
</g>
<!-- Node20&#45;&gt;Node10 -->
<g id="edge27" class="edge">
<title>Node20&#45;&gt;Node10</title>
<path fill="none" stroke="midnightblue" d="M266.23,-224.33C275.2,-210.24 294.9,-182.5 319,-168 356.54,-145.41 404.88,-134.14 442.45,-128.53"/>
<polygon fill="midnightblue" stroke="midnightblue" points="443.32,-131.94 452.74,-127.09 442.35,-125.01 443.32,-131.94"/>
</g>
<!-- Node21 -->
<g id="node21" class="node">
<title>Node21</title>
<g id="a_node21"><a xlink:title=" ">
<polygon fill="white" stroke="#bfbfbf" points="165,-168.5 165,-187.5 233,-187.5 233,-168.5 165,-168.5"/>
<text text-anchor="middle" x="199" y="-175.5" font-family="Helvetica,sans-Serif" font-size="10.00">Eigen/Eigen</text>
</a>
</g>
</g>
<!-- Node20&#45;&gt;Node21 -->
<g id="edge28" class="edge">
<title>Node20&#45;&gt;Node21</title>
<path fill="none" stroke="midnightblue" d="M251.04,-224.32C241.87,-216.34 228.06,-204.31 216.97,-194.65"/>
<polygon fill="midnightblue" stroke="midnightblue" points="218.98,-191.76 209.14,-187.83 214.38,-197.04 218.98,-191.76"/>
</g>
</g>
</svg>
        <g id="navigator" transform="translate(0 0)" fill="#404254">
                <rect fill="#f2f5e9" fill-opacity="0.5" stroke="#606060" stroke-width=".5" x="0" y="0" width="60" height="60"/>
                <use id="zoomplus" xlink:href="#zoomPlus" x="17" y="9" onmousedown="handleZoom(evt,'in')"/>
                <use id="zoomminus" xlink:href="#zoomMin" x="42" y="9" onmousedown="handleZoom(evt,'out')"/>
                <use id="reset" xlink:href="#resetDef" x="30" y="36" onmousedown="handleReset()"/>
                <g id="arrowUp" xlink:href="#dirArrow" transform="translate(30 24)" onmousedown="handlePan(0,-1)">
                  <use xlink:href="#rim" fill="#404040">
                        <set attributeName="fill" to="#808080" begin="arrowUp.mouseover" end="arrowUp.mouseout"/>
                  </use>
                  <path fill="none" stroke="white" stroke-width="1.5" d="M0,-3.0v7 M-2.5,-0.5L0,-3.0L2.5,-0.5"/>
                </g>
                <g id="arrowRight" xlink:href="#dirArrow" transform="rotate(90) translate(36 -43)" onmousedown="handlePan(1,0)">
                  <use xlink:href="#rim" fill="#404040">
                        <set attributeName="fill" to="#808080" begin="arrowRight.mouseover" end="arrowRight.mouseout"/>
                  </use>
                  <path fill="none" stroke="white" stroke-width="1.5" d="M0,-3.0v7 M-2.5,-0.5L0,-3.0L2.5,-0.5"/>
                </g>
                <g id="arrowDown" xlink:href="#dirArrow" transform="rotate(180) translate(-30 -48)" onmousedown="handlePan(0,1)">
                  <use xlink:href="#rim" fill="#404040">
                        <set attributeName="fill" to="#808080" begin="arrowDown.mouseover" end="arrowDown.mouseout"/>
                  </use>
                  <path fill="none" stroke="white" stroke-width="1.5" d="M0,-3.0v7 M-2.5,-0.5L0,-3.0L2.5,-0.5"/>
                </g>
                <g id="arrowLeft" xlink:href="#dirArrow" transform="rotate(270) translate(-36 17)" onmousedown="handlePan(-1,0)">
                  <use xlink:href="#rim" fill="#404040">
                        <set attributeName="fill" to="#808080" begin="arrowLeft.mouseover" end="arrowLeft.mouseout"/>
                  </use>
                  <path fill="none" stroke="white" stroke-width="1.5" d="M0,-3.0v7 M-2.5,-0.5L0,-3.0L2.5,-0.5"/>
                </g>
        </g>
        <svg viewBox="0 0 15 15" width="100%" height="30px" preserveAspectRatio="xMaxYMin meet">
         <g id="arrow_out" transform="scale(0.3 0.3)">
          <a xlink:href="predict__linalg__x1x_8cpp__incl_org.svg" target="_base">
           <rect id="button" ry="5" rx="5" y="6" x="6" height="38" width="38"
                fill="#f2f5e9" fill-opacity="0.5" stroke="#606060" stroke-width="1.0"/>
           <path id="arrow"
             d="M 11.500037,31.436501 C 11.940474,20.09759 22.043105,11.32322 32.158766,21.979434 L 37.068811,17.246167 C 37.068811,17.246167 37.088388,32 37.088388,32 L 22.160133,31.978069 C 22.160133,31.978069 26.997745,27.140456 26.997745,27.140456 C 18.528582,18.264221 13.291696,25.230495 11.500037,31.436501 z"
             style="fill:#404040;"/>
          </a>
         </g>
        </svg>
</svg>
