<?xml version="1.0" encoding="UTF-8" standalone="no"?>
<!DOCTYPE svg PUBLIC "-//W3C//DTD SVG 1.1//EN"
 "http://www.w3.org/Graphics/SVG/1.1/DTD/svg11.dtd">
<!-- Generated by graphviz version 3.0.0 (20221109.1736)
 -->
<!-- Title: /github/workspace/benchmark/predict_linalg_x1x.cpp Pages: 1 -->
<!--zoomable 319 -->
<svg id="main" version="1.1" xmlns="http://www.w3.org/2000/svg" xmlns:xlink="http://www.w3.org/1999/xlink" xml:space="preserve" onload="init(evt)">
<style type="text/css"><![CDATA[
.edge:hover path { stroke: red; }
.edge:hover polygon { stroke: red; fill: red; }
]]></style>
<script type="text/javascript"><![CDATA[
var edges = document.getElementsByTagName('g');
if (edges && edges.length) {
  for (var i=0;i<edges.length;i++) {
    if (edges[i].id.substr(0,4)=='edge') {
      edges[i].setAttribute('class','edge');
    }
  }
}
]]></script>
        <defs>
                <circle id="rim" cx="0" cy="0" r="7"/>
                <circle id="rim2" cx="0" cy="0" r="3.5"/>
                <g id="zoomPlus">
                        <use xlink:href="#rim" fill="#404040">
                                <set attributeName="fill" to="#808080" begin="zoomplus.mouseover" end="zoomplus.mouseout"/>
                        </use>
                        <path d="M-4,0h8M0,-4v8" fill="none" stroke="white" stroke-width="1.5" pointer-events="none"/>
                </g>
                <g id="zoomMin">
                        <use xlink:href="#rim" fill="#404040">
                                <set attributeName="fill" to="#808080" begin="zoomminus.mouseover" end="zoomminus.mouseout"/>
                        </use>
                        <path d="M-4,0h8" fill="none" stroke="white" stroke-width="1.5" pointer-events="none"/>
                </g>
                <g id="dirArrow">
                        <path fill="none" stroke="white" stroke-width="1.5" d="M0,-3.0v7 M-2.5,-0.5L0,-3.0L2.5,-0.5"/>
                </g>
               <g id="resetDef">
                       <use xlink:href="#rim2" fill="#404040">
                               <set attributeName="fill" to="#808080" begin="reset.mouseover" end="reset.mouseout"/>
                       </use>
               </g>
        </defs>

<script type="text/javascript">
var viewWidth = 1134;
var viewHeight = 319;
var sectionId = 'dynsection-0';
</script>
<script xlink:href="svgpan.js"/>
<svg id="graph" class="graph">
<g id="viewport">
<title>/github/workspace/benchmark/predict_linalg_x1x.cpp</title>
<polygon fill="white" stroke="transparent" points="-4,4 -4,-315 1129.5,-315 1129.5,4 -4,4"/>
<!-- Node1 -->
<g id="node1" class="node">
<title>Node1</title>
<g id="a_node1"><a xlink:title=" ">
<polygon fill="#bfbfbf" stroke="black" points="593.5,-280.5 593.5,-310.5 740.5,-310.5 740.5,-280.5 593.5,-280.5"/>
<text text-anchor="start" x="601.5" y="-298.5" font-family="Helvetica,sans-Serif" font-size="10.00">/github/workspace/benchmark</text>
<text text-anchor="middle" x="667" y="-287.5" font-family="Helvetica,sans-Serif" font-size="10.00">/predict_linalg_x1x.cpp</text>
</a>
</g>
</g>
<!-- Node2 -->
<g id="node2" class="node">
<title>Node2</title>
<g id="a_node2"><a xlink:href="benchmark_8hpp.xhtml" target="_top" xlink:title="Benchmarking support.">
<polygon fill="white" stroke="black" points="33.5,-224.5 33.5,-243.5 116.5,-243.5 116.5,-224.5 33.5,-224.5"/>
<text text-anchor="middle" x="75" y="-231.5" font-family="Helvetica,sans-Serif" font-size="10.00">benchmark.hpp</text>
</a>
</g>
</g>
<!-- Node1&#45;&gt;Node2 -->
<g id="edge1" class="edge">
<title>Node1&#45;&gt;Node2</title>
<path fill="none" stroke="midnightblue" d="M593.14,-289.08C489.61,-281.13 295.58,-264.95 131,-244 129.53,-243.81 128.05,-243.62 126.55,-243.41"/>
<polygon fill="midnightblue" stroke="midnightblue" points="126.94,-239.94 116.55,-241.99 125.95,-246.87 126.94,-239.94"/>
</g>
<!-- Node3 -->
<g id="node3" class="node">
<title>Node3</title>
<g id="a_node3"><a xlink:title=" ">
<polygon fill="white" stroke="#bfbfbf" points="0,-168.5 0,-187.5 46,-187.5 46,-168.5 0,-168.5"/>
<text text-anchor="middle" x="23" y="-175.5" font-family="Helvetica,sans-Serif" font-size="10.00">chrono</text>
</a>
</g>
</g>
<!-- Node1&#45;&gt;Node3 -->
<g id="edge29" class="edge">
<title>Node1&#45;&gt;Node3</title>
<path fill="none" stroke="midnightblue" d="M593.36,-294.16C432.76,-292.67 62.3,-284.79 24,-244 12.67,-231.94 13.99,-212.37 17.19,-197.85"/>
<polygon fill="midnightblue" stroke="midnightblue" points="20.64,-198.5 19.82,-187.94 13.87,-196.71 20.64,-198.5"/>
</g>
<!-- Node5 -->
<g id="node5" class="node">
<title>Node5</title>
<g id="a_node5"><a xlink:href="internal_2utility_8hpp.xhtml" target="_top" xlink:title=" ">
<polygon fill="white" stroke="black" points="412,-56.5 412,-75.5 544,-75.5 544,-56.5 412,-56.5"/>
<text text-anchor="middle" x="478" y="-63.5" font-family="Helvetica,sans-Serif" font-size="10.00">fcarouge/internal/utility.hpp</text>
</a>
</g>
</g>
<!-- Node1&#45;&gt;Node5 -->
<g id="edge4" class="edge">
<title>Node1&#45;&gt;Node5</title>
<path fill="none" stroke="midnightblue" d="M593.32,-289.23C472.75,-278.86 241.96,-251.09 195,-188 137.72,-111.05 299.94,-82.52 401.98,-72.34"/>
<polygon fill="midnightblue" stroke="midnightblue" points="402.35,-75.82 411.97,-71.39 401.68,-68.86 402.35,-75.82"/>
</g>
<!-- Node7 -->
<g id="node7" class="node">
<title>Node7</title>
<g id="a_node7"><a xlink:href="kalman_8hpp.xhtml" target="_top" xlink:title="The Kalman filter class and library top&#45;level header.">
<polygon fill="white" stroke="black" points="390.5,-224.5 390.5,-243.5 497.5,-243.5 497.5,-224.5 390.5,-224.5"/>
<text text-anchor="middle" x="444" y="-231.5" font-family="Helvetica,sans-Serif" font-size="10.00">fcarouge/kalman.hpp</text>
</a>
</g>
</g>
<!-- Node1&#45;&gt;Node7 -->
<g id="edge7" class="edge">
<title>Node1&#45;&gt;Node7</title>
<path fill="none" stroke="midnightblue" d="M614.43,-280.47C575.12,-269.99 522.09,-255.84 485.68,-246.12"/>
<polygon fill="midnightblue" stroke="midnightblue" points="486.45,-242.7 475.88,-243.51 484.64,-249.47 486.45,-242.7"/>
</g>
<!-- Node16 -->
<g id="node16" class="node">
<title>Node16</title>
<g id="a_node16"><a xlink:title=" ">
<polygon fill="white" stroke="#bfbfbf" points="857.5,-168.5 857.5,-187.5 906.5,-187.5 906.5,-168.5 857.5,-168.5"/>
<text text-anchor="middle" x="882" y="-175.5" font-family="Helvetica,sans-Serif" font-size="10.00">cstddef</text>
</a>
</g>
</g>
<!-- Node1&#45;&gt;Node16 -->
<g id="edge31" class="edge">
<title>Node1&#45;&gt;Node16</title>
<path fill="none" stroke="midnightblue" d="M602.24,-280.46C561.99,-268.82 521.93,-249.97 545,-224 588.18,-175.38 765.94,-198.59 847.32,-187.6"/>
<polygon fill="midnightblue" stroke="midnightblue" points="847.9,-191.05 857.21,-185.99 846.78,-184.14 847.9,-191.05"/>
</g>
<!-- Node20 -->
<g id="node20" class="node">
<title>Node20</title>
<g id="a_node20"><a xlink:title=" ">
<polygon fill="white" stroke="#bfbfbf" points="554,-224.5 554,-243.5 652,-243.5 652,-224.5 554,-224.5"/>
<text text-anchor="middle" x="603" y="-231.5" font-family="Helvetica,sans-Serif" font-size="10.00">fcarouge/linalg.hpp</text>
</a>
</g>
</g>
<!-- Node1&#45;&gt;Node20 -->
<g id="edge26" class="edge">
<title>Node1&#45;&gt;Node20</title>
<path fill="none" stroke="midnightblue" d="M651.83,-280.4C642.25,-271.49 629.84,-259.95 619.93,-250.74"/>
<polygon fill="midnightblue" stroke="midnightblue" points="622.02,-247.9 612.31,-243.66 617.25,-253.03 622.02,-247.9"/>
</g>
<!-- Node21 -->
<g id="node21" class="node">
<title>Node21</title>
<g id="a_node21"><a xlink:title=" ">
<polygon fill="white" stroke="#bfbfbf" points="670.5,-224.5 670.5,-243.5 793.5,-243.5 793.5,-224.5 670.5,-224.5"/>
<text text-anchor="middle" x="732" y="-231.5" font-family="Helvetica,sans-Serif" font-size="10.00">benchmark/benchmark.h</text>
</a>
</g>
</g>
<!-- Node1&#45;&gt;Node21 -->
<g id="edge27" class="edge">
<title>Node1&#45;&gt;Node21</title>
<path fill="none" stroke="midnightblue" d="M682.4,-280.4C692.24,-271.4 704.99,-259.72 715.11,-250.47"/>
<polygon fill="midnightblue" stroke="midnightblue" points="717.53,-252.99 722.54,-243.66 712.8,-247.83 717.53,-252.99"/>
</g>
<!-- Node22 -->
<g id="node22" class="node">
<title>Node22</title>
<g id="a_node22"><a xlink:title=" ">
<polygon fill="white" stroke="#bfbfbf" points="812,-224.5 812,-243.5 868,-243.5 868,-224.5 812,-224.5"/>
<text text-anchor="middle" x="840" y="-231.5" font-family="Helvetica,sans-Serif" font-size="10.00">algorithm</text>
</a>
</g>
</g>
<!-- Node1&#45;&gt;Node22 -->
<g id="edge28" class="edge">
<title>Node1&#45;&gt;Node22</title>
<path fill="none" stroke="midnightblue" d="M708,-280.4C737.63,-270.21 777.23,-256.59 805.3,-246.93"/>
<polygon fill="midnightblue" stroke="midnightblue" points="806.76,-250.13 815.08,-243.57 804.48,-243.51 806.76,-250.13"/>
</g>
<!-- Node23 -->
<g id="node23" class="node">
<title>Node23</title>
<g id="a_node23"><a xlink:title=" ">
<polygon fill="white" stroke="#bfbfbf" points="886,-224.5 886,-243.5 930,-243.5 930,-224.5 886,-224.5"/>
<text text-anchor="middle" x="908" y="-231.5" font-family="Helvetica,sans-Serif" font-size="10.00">cmath</text>
</a>
</g>
</g>
<!-- Node1&#45;&gt;Node23 -->
<g id="edge30" class="edge">
<title>Node1&#45;&gt;Node23</title>
<path fill="none" stroke="midnightblue" d="M728.76,-280.45C768.32,-271.26 820.97,-258.69 875.79,-244.24"/>
<polygon fill="midnightblue" stroke="midnightblue" points="876.91,-247.56 885.68,-241.61 875.12,-240.79 876.91,-247.56"/>
</g>
<!-- Node24 -->
<g id="node24" class="node">
<title>Node24</title>
<g id="a_node24"><a xlink:title=" ">
<polygon fill="white" stroke="#bfbfbf" points="948,-224.5 948,-243.5 994,-243.5 994,-224.5 948,-224.5"/>
<text text-anchor="middle" x="971" y="-231.5" font-family="Helvetica,sans-Serif" font-size="10.00">cstdint</text>
</a>
</g>
</g>
<!-- Node1&#45;&gt;Node24 -->
<g id="edge32" class="edge">
<title>Node1&#45;&gt;Node24</title>
<path fill="none" stroke="midnightblue" d="M740.68,-282.68C793.25,-273.81 865.79,-260.71 938.24,-244.01"/>
<polygon fill="midnightblue" stroke="midnightblue" points="939.05,-247.42 947.99,-241.74 937.46,-240.6 939.05,-247.42"/>
</g>
<!-- Node25 -->
<g id="node25" class="node">
<title>Node25</title>
<g id="a_node25"><a xlink:title=" ">
<polygon fill="white" stroke="#bfbfbf" points="1012,-224.5 1012,-243.5 1058,-243.5 1058,-224.5 1012,-224.5"/>
<text text-anchor="middle" x="1035" y="-231.5" font-family="Helvetica,sans-Serif" font-size="10.00">cstring</text>
</a>
</g>
</g>
<!-- Node1&#45;&gt;Node25 -->
<g id="edge33" class="edge">
<title>Node1&#45;&gt;Node25</title>
<path fill="none" stroke="midnightblue" d="M740.56,-286.13C806.68,-278 906.56,-264.2 1001.86,-244.03"/>
<polygon fill="midnightblue" stroke="midnightblue" points="1002.62,-247.44 1011.67,-241.93 1001.15,-240.6 1002.62,-247.44"/>
</g>
<!-- Node26 -->
<g id="node26" class="node">
<title>Node26</title>
<g id="a_node26"><a xlink:title=" ">
<polygon fill="white" stroke="#bfbfbf" points="1076.5,-224.5 1076.5,-243.5 1125.5,-243.5 1125.5,-224.5 1076.5,-224.5"/>
<text text-anchor="middle" x="1101" y="-231.5" font-family="Helvetica,sans-Serif" font-size="10.00">random</text>
</a>
</g>
</g>
<!-- Node1&#45;&gt;Node26 -->
<g id="edge34" class="edge">
<title>Node1&#45;&gt;Node26</title>
<path fill="none" stroke="midnightblue" d="M740.82,-288.15C819.24,-280.74 946.93,-266.75 1066.17,-243.92"/>
<polygon fill="midnightblue" stroke="midnightblue" points="1067.06,-247.31 1076.21,-241.97 1065.72,-240.44 1067.06,-247.31"/>
</g>
<!-- Node2&#45;&gt;Node3 -->
<g id="edge2" class="edge">
<title>Node2&#45;&gt;Node3</title>
<path fill="none" stroke="midnightblue" d="M66.41,-224.08C58.84,-216.22 47.62,-204.57 38.49,-195.08"/>
<polygon fill="midnightblue" stroke="midnightblue" points="40.88,-192.53 31.43,-187.75 35.84,-197.38 40.88,-192.53"/>
</g>
<!-- Node4 -->
<g id="node4" class="node">
<title>Node4</title>
<g id="a_node4"><a xlink:title=" ">
<polygon fill="white" stroke="#bfbfbf" points="204,-0.5 204,-19.5 266,-19.5 266,-0.5 204,-0.5"/>
<text text-anchor="middle" x="235" y="-7.5" font-family="Helvetica,sans-Serif" font-size="10.00">type_traits</text>
</a>
</g>
</g>
<!-- Node2&#45;&gt;Node4 -->
<g id="edge3" class="edge">
<title>Node2&#45;&gt;Node4</title>
<path fill="none" stroke="midnightblue" d="M77.32,-224.25C85.01,-196.61 112.02,-109.82 161,-56 173.2,-42.59 190.33,-31.83 205.03,-24.2"/>
<polygon fill="midnightblue" stroke="midnightblue" points="206.85,-27.2 214.27,-19.64 203.75,-20.93 206.85,-27.2"/>
</g>
<!-- Node5&#45;&gt;Node4 -->
<g id="edge6" class="edge">
<title>Node5&#45;&gt;Node4</title>
<path fill="none" stroke="midnightblue" d="M439.5,-56.44C394.95,-46.55 321.91,-30.31 276.24,-20.16"/>
<polygon fill="midnightblue" stroke="midnightblue" points="276.89,-16.72 266.37,-17.97 275.37,-23.56 276.89,-16.72"/>
</g>
<!-- Node6 -->
<g id="node6" class="node">
<title>Node6</title>
<g id="a_node6"><a xlink:title=" ">
<polygon fill="white" stroke="#bfbfbf" points="579,-0.5 579,-19.5 635,-19.5 635,-0.5 579,-0.5"/>
<text text-anchor="middle" x="607" y="-7.5" font-family="Helvetica,sans-Serif" font-size="10.00">concepts</text>
</a>
</g>
</g>
<!-- Node5&#45;&gt;Node6 -->
<g id="edge5" class="edge">
<title>Node5&#45;&gt;Node6</title>
<path fill="none" stroke="midnightblue" d="M498.44,-56.44C519.67,-47.56 553.1,-33.56 577.25,-23.45"/>
<polygon fill="midnightblue" stroke="midnightblue" points="578.78,-26.61 586.66,-19.52 576.08,-20.15 578.78,-26.61"/>
</g>
<!-- Node7&#45;&gt;Node4 -->
<g id="edge23" class="edge">
<title>Node7&#45;&gt;Node4</title>
<path fill="none" stroke="midnightblue" d="M390.42,-231.09C324.82,-227.49 219.4,-217.2 195,-188 155.49,-140.71 199.71,-62.35 222.78,-28.01"/>
<polygon fill="midnightblue" stroke="midnightblue" points="225.82,-29.77 228.63,-19.55 220.06,-25.78 225.82,-29.77"/>
</g>
<!-- Node7&#45;&gt;Node6 -->
<g id="edge20" class="edge">
<title>Node7&#45;&gt;Node6</title>
<path fill="none" stroke="midnightblue" d="M497.67,-225.99C575.41,-215.58 710.9,-196.36 718,-188 756.06,-143.18 744.93,-102.55 709,-56 693.51,-35.94 667.18,-24.62 645.15,-18.36"/>
<polygon fill="midnightblue" stroke="midnightblue" points="645.95,-14.95 635.39,-15.82 644.19,-21.73 645.95,-14.95"/>
</g>
<!-- Node8 -->
<g id="node8" class="node">
<title>Node8</title>
<g id="a_node8"><a xlink:href="algorithm_8hpp.xhtml" target="_top" xlink:title="The collection of Kalman algorithms.">
<polygon fill="white" stroke="black" points="765,-168.5 765,-187.5 839,-187.5 839,-168.5 765,-168.5"/>
<text text-anchor="middle" x="802" y="-175.5" font-family="Helvetica,sans-Serif" font-size="10.00">algorithm.hpp</text>
</a>
</g>
</g>
<!-- Node7&#45;&gt;Node8 -->
<g id="edge8" class="edge">
<title>Node7&#45;&gt;Node8</title>
<path fill="none" stroke="midnightblue" d="M497.59,-225.63C558.92,-217.08 662.32,-202.32 751,-188 752.27,-187.79 753.56,-187.58 754.87,-187.37"/>
<polygon fill="midnightblue" stroke="midnightblue" points="755.7,-190.78 764.97,-185.66 754.53,-183.88 755.7,-190.78"/>
</g>
<!-- Node9 -->
<g id="node9" class="node">
<title>Node9</title>
<g id="a_node9"><a xlink:href="format_8hpp.xhtml" target="_top" xlink:title=" ">
<polygon fill="white" stroke="black" points="453.5,-168.5 453.5,-187.5 550.5,-187.5 550.5,-168.5 453.5,-168.5"/>
<text text-anchor="middle" x="502" y="-175.5" font-family="Helvetica,sans-Serif" font-size="10.00">internal/format.hpp</text>
</a>
</g>
</g>
<!-- Node7&#45;&gt;Node9 -->
<g id="edge9" class="edge">
<title>Node7&#45;&gt;Node9</title>
<path fill="none" stroke="midnightblue" d="M453.32,-224.32C461.89,-216.34 474.81,-204.31 485.19,-194.65"/>
<polygon fill="midnightblue" stroke="midnightblue" points="487.58,-197.21 492.51,-187.83 482.81,-192.09 487.58,-197.21"/>
</g>
<!-- Node10 -->
<g id="node10" class="node">
<title>Node10</title>
<g id="a_node10"><a xlink:href="utility_8hpp.xhtml" target="_top" xlink:title="The collection of utilities supporting the library.">
<polygon fill="white" stroke="black" points="429,-112.5 429,-131.5 527,-131.5 527,-112.5 429,-112.5"/>
<text text-anchor="middle" x="478" y="-119.5" font-family="Helvetica,sans-Serif" font-size="10.00">fcarouge/utility.hpp</text>
</a>
</g>
</g>
<!-- Node7&#45;&gt;Node10 -->
<g id="edge19" class="edge">
<title>Node7&#45;&gt;Node10</title>
<path fill="none" stroke="midnightblue" d="M497.73,-225.82C520.92,-219.76 545.9,-208.59 560,-188 575.63,-165.17 543.65,-146.5 515.17,-135.12"/>
<polygon fill="midnightblue" stroke="midnightblue" points="516.31,-131.81 505.72,-131.55 513.83,-138.36 516.31,-131.81"/>
</g>
<!-- Node12 -->
<g id="node12" class="node">
<title>Node12</title>
<g id="a_node12"><a xlink:href="internal_2kalman_8hpp.xhtml" target="_top" xlink:title=" ">
<polygon fill="white" stroke="black" points="607.5,-168.5 607.5,-187.5 708.5,-187.5 708.5,-168.5 607.5,-168.5"/>
<text text-anchor="middle" x="658" y="-175.5" font-family="Helvetica,sans-Serif" font-size="10.00">internal/kalman.hpp</text>
</a>
</g>
</g>
<!-- Node7&#45;&gt;Node12 -->
<g id="edge14" class="edge">
<title>Node7&#45;&gt;Node12</title>
<path fill="none" stroke="midnightblue" d="M477.91,-224.44C514.85,-215.12 574.05,-200.18 614.42,-190"/>
<polygon fill="midnightblue" stroke="midnightblue" points="615.41,-193.36 624.25,-187.52 613.7,-186.57 615.41,-193.36"/>
</g>
<!-- Node7&#45;&gt;Node16 -->
<g id="edge21" class="edge">
<title>Node7&#45;&gt;Node16</title>
<path fill="none" stroke="midnightblue" d="M497.81,-225.75C502.6,-225.14 507.39,-224.55 512,-224 657.92,-206.53 698.58,-214.91 847.26,-187.86"/>
<polygon fill="midnightblue" stroke="midnightblue" points="848.02,-191.28 857.22,-186.03 846.75,-184.4 848.02,-191.28"/>
</g>
<!-- Node17 -->
<g id="node17" class="node">
<title>Node17</title>
<g id="a_node17"><a xlink:title=" ">
<polygon fill="white" stroke="#bfbfbf" points="203.5,-168.5 203.5,-187.5 262.5,-187.5 262.5,-168.5 203.5,-168.5"/>
<text text-anchor="middle" x="233" y="-175.5" font-family="Helvetica,sans-Serif" font-size="10.00">functional</text>
</a>
</g>
</g>
<!-- Node7&#45;&gt;Node17 -->
<g id="edge22" class="edge">
<title>Node7&#45;&gt;Node17</title>
<path fill="none" stroke="midnightblue" d="M410.57,-224.44C373.05,-214.84 312.23,-199.28 272.42,-189.09"/>
<polygon fill="midnightblue" stroke="midnightblue" points="273.09,-185.65 262.53,-186.56 271.35,-192.43 273.09,-185.65"/>
</g>
<!-- Node18 -->
<g id="node18" class="node">
<title>Node18</title>
<g id="a_node18"><a xlink:title=" ">
<polygon fill="white" stroke="#bfbfbf" points="280.5,-168.5 280.5,-187.5 319.5,-187.5 319.5,-168.5 280.5,-168.5"/>
<text text-anchor="middle" x="300" y="-175.5" font-family="Helvetica,sans-Serif" font-size="10.00">utility</text>
</a>
</g>
</g>
<!-- Node7&#45;&gt;Node18 -->
<g id="edge24" class="edge">
<title>Node7&#45;&gt;Node18</title>
<path fill="none" stroke="midnightblue" d="M421.18,-224.44C396.32,-215.12 356.47,-200.18 329.31,-189.99"/>
<polygon fill="midnightblue" stroke="midnightblue" points="330.52,-186.71 319.93,-186.47 328.06,-193.26 330.52,-186.71"/>
</g>
<!-- Node19 -->
<g id="node19" class="node">
<title>Node19</title>
<g id="a_node19"><a xlink:title=" ">
<polygon fill="white" stroke="#bfbfbf" points="338,-168.5 338,-187.5 436,-187.5 436,-168.5 338,-168.5"/>
<text text-anchor="middle" x="387" y="-175.5" font-family="Helvetica,sans-Serif" font-size="10.00">internal/kalman.tpp</text>
</a>
</g>
</g>
<!-- Node7&#45;&gt;Node19 -->
<g id="edge25" class="edge">
<title>Node7&#45;&gt;Node19</title>
<path fill="none" stroke="midnightblue" d="M434.84,-224.32C426.5,-216.42 413.97,-204.55 403.82,-194.94"/>
<polygon fill="midnightblue" stroke="midnightblue" points="405.99,-192.17 396.32,-187.83 401.18,-197.25 405.99,-192.17"/>
</g>
<!-- Node9&#45;&gt;Node4 -->
<g id="edge13" class="edge">
<title>Node9&#45;&gt;Node4</title>
<path fill="none" stroke="midnightblue" d="M455.9,-168.45C426.43,-161.62 388.22,-150.11 358,-132 310.89,-103.76 268.16,-53.89 247.7,-27.87"/>
<polygon fill="midnightblue" stroke="midnightblue" points="250.31,-25.51 241.43,-19.73 244.77,-29.79 250.31,-25.51"/>
</g>
<!-- Node9&#45;&gt;Node10 -->
<g id="edge10" class="edge">
<title>Node9&#45;&gt;Node10</title>
<path fill="none" stroke="midnightblue" d="M498.04,-168.08C494.79,-160.77 490.08,-150.18 486.05,-141.1"/>
<polygon fill="midnightblue" stroke="midnightblue" points="489.15,-139.47 481.89,-131.75 482.75,-142.31 489.15,-139.47"/>
</g>
<!-- Node11 -->
<g id="node11" class="node">
<title>Node11</title>
<g id="a_node11"><a xlink:title=" ">
<polygon fill="white" stroke="#bfbfbf" points="367,-112.5 367,-131.5 411,-131.5 411,-112.5 367,-112.5"/>
<text text-anchor="middle" x="389" y="-119.5" font-family="Helvetica,sans-Serif" font-size="10.00">format</text>
</a>
</g>
</g>
<!-- Node9&#45;&gt;Node11 -->
<g id="edge12" class="edge">
<title>Node9&#45;&gt;Node11</title>
<path fill="none" stroke="midnightblue" d="M484.09,-168.44C465.75,-159.68 436.99,-145.94 415.91,-135.86"/>
<polygon fill="midnightblue" stroke="midnightblue" points="417.35,-132.67 406.82,-131.52 414.33,-138.99 417.35,-132.67"/>
</g>
<!-- Node10&#45;&gt;Node5 -->
<g id="edge11" class="edge">
<title>Node10&#45;&gt;Node5</title>
<path fill="none" stroke="midnightblue" d="M478,-112.08C478,-105.01 478,-94.86 478,-85.99"/>
<polygon fill="midnightblue" stroke="midnightblue" points="481.5,-85.75 478,-75.75 474.5,-85.75 481.5,-85.75"/>
</g>
<!-- Node12&#45;&gt;Node5 -->
<g id="edge17" class="edge">
<title>Node12&#45;&gt;Node5</title>
<path fill="none" stroke="midnightblue" d="M640.66,-168.37C623.47,-159.67 596.51,-145.6 574,-132 547.08,-115.74 517.26,-95.11 498.11,-81.51"/>
<polygon fill="midnightblue" stroke="midnightblue" points="500.03,-78.58 489.86,-75.62 495.96,-84.28 500.03,-78.58"/>
</g>
<!-- Node13 -->
<g id="node13" class="node">
<title>Node13</title>
<g id="a_node13"><a xlink:href="function_8hpp.xhtml" target="_top" xlink:title=" ">
<polygon fill="white" stroke="black" points="639.5,-112.5 639.5,-131.5 708.5,-131.5 708.5,-112.5 639.5,-112.5"/>
<text text-anchor="middle" x="674" y="-119.5" font-family="Helvetica,sans-Serif" font-size="10.00">function.hpp</text>
</a>
</g>
</g>
<!-- Node12&#45;&gt;Node13 -->
<g id="edge15" class="edge">
<title>Node12&#45;&gt;Node13</title>
<path fill="none" stroke="midnightblue" d="M660.64,-168.08C662.79,-160.85 665.88,-150.41 668.55,-141.4"/>
<polygon fill="midnightblue" stroke="midnightblue" points="671.92,-142.33 671.41,-131.75 665.21,-140.34 671.92,-142.33"/>
</g>
<!-- Node15 -->
<g id="node15" class="node">
<title>Node15</title>
<g id="a_node15"><a xlink:title=" ">
<polygon fill="white" stroke="#bfbfbf" points="583,-112.5 583,-131.5 621,-131.5 621,-112.5 583,-112.5"/>
<text text-anchor="middle" x="602" y="-119.5" font-family="Helvetica,sans-Serif" font-size="10.00">tuple</text>
</a>
</g>
</g>
<!-- Node12&#45;&gt;Node15 -->
<g id="edge18" class="edge">
<title>Node12&#45;&gt;Node15</title>
<path fill="none" stroke="midnightblue" d="M649,-168.32C640.81,-160.42 628.49,-148.55 618.53,-138.94"/>
<polygon fill="midnightblue" stroke="midnightblue" points="620.79,-136.26 611.16,-131.83 615.93,-141.29 620.79,-136.26"/>
</g>
<!-- Node14 -->
<g id="node14" class="node">
<title>Node14</title>
<g id="a_node14"><a xlink:title=" ">
<polygon fill="white" stroke="#bfbfbf" points="648.5,-56.5 648.5,-75.5 699.5,-75.5 699.5,-56.5 648.5,-56.5"/>
<text text-anchor="middle" x="674" y="-63.5" font-family="Helvetica,sans-Serif" font-size="10.00">memory</text>
</a>
</g>
</g>
<!-- Node13&#45;&gt;Node14 -->
<g id="edge16" class="edge">
<title>Node13&#45;&gt;Node14</title>
<path fill="none" stroke="midnightblue" d="M674,-112.08C674,-105.01 674,-94.86 674,-85.99"/>
<polygon fill="midnightblue" stroke="midnightblue" points="677.5,-85.75 674,-75.75 670.5,-85.75 677.5,-85.75"/>
</g>
</g>
</svg>
        <g id="navigator" transform="translate(0 0)" fill="#404254">
                <rect fill="#f2f5e9" fill-opacity="0.5" stroke="#606060" stroke-width=".5" x="0" y="0" width="60" height="60"/>
                <use id="zoomplus" xlink:href="#zoomPlus" x="17" y="9" onmousedown="handleZoom(evt,'in')"/>
                <use id="zoomminus" xlink:href="#zoomMin" x="42" y="9" onmousedown="handleZoom(evt,'out')"/>
                <use id="reset" xlink:href="#resetDef" x="30" y="36" onmousedown="handleReset()"/>
                <g id="arrowUp" xlink:href="#dirArrow" transform="translate(30 24)" onmousedown="handlePan(0,-1)">
                  <use xlink:href="#rim" fill="#404040">
                        <set attributeName="fill" to="#808080" begin="arrowUp.mouseover" end="arrowUp.mouseout"/>
                  </use>
                  <path fill="none" stroke="white" stroke-width="1.5" d="M0,-3.0v7 M-2.5,-0.5L0,-3.0L2.5,-0.5"/>
                </g>
                <g id="arrowRight" xlink:href="#dirArrow" transform="rotate(90) translate(36 -43)" onmousedown="handlePan(1,0)">
                  <use xlink:href="#rim" fill="#404040">
                        <set attributeName="fill" to="#808080" begin="arrowRight.mouseover" end="arrowRight.mouseout"/>
                  </use>
                  <path fill="none" stroke="white" stroke-width="1.5" d="M0,-3.0v7 M-2.5,-0.5L0,-3.0L2.5,-0.5"/>
                </g>
                <g id="arrowDown" xlink:href="#dirArrow" transform="rotate(180) translate(-30 -48)" onmousedown="handlePan(0,1)">
                  <use xlink:href="#rim" fill="#404040">
                        <set attributeName="fill" to="#808080" begin="arrowDown.mouseover" end="arrowDown.mouseout"/>
                  </use>
                  <path fill="none" stroke="white" stroke-width="1.5" d="M0,-3.0v7 M-2.5,-0.5L0,-3.0L2.5,-0.5"/>
                </g>
                <g id="arrowLeft" xlink:href="#dirArrow" transform="rotate(270) translate(-36 17)" onmousedown="handlePan(-1,0)">
                  <use xlink:href="#rim" fill="#404040">
                        <set attributeName="fill" to="#808080" begin="arrowLeft.mouseover" end="arrowLeft.mouseout"/>
                  </use>
                  <path fill="none" stroke="white" stroke-width="1.5" d="M0,-3.0v7 M-2.5,-0.5L0,-3.0L2.5,-0.5"/>
                </g>
        </g>
        <svg viewBox="0 0 15 15" width="100%" height="30px" preserveAspectRatio="xMaxYMin meet">
         <g id="arrow_out" transform="scale(0.3 0.3)">
          <a xlink:href="predict__linalg__x1x_8cpp__incl_org.svg" target="_base">
           <rect id="button" ry="5" rx="5" y="6" x="6" height="38" width="38"
                fill="#f2f5e9" fill-opacity="0.5" stroke="#606060" stroke-width="1.0"/>
           <path id="arrow"
             d="M 11.500037,31.436501 C 11.940474,20.09759 22.043105,11.32322 32.158766,21.979434 L 37.068811,17.246167 C 37.068811,17.246167 37.088388,32 37.088388,32 L 22.160133,31.978069 C 22.160133,31.978069 26.997745,27.140456 26.997745,27.140456 C 18.528582,18.264221 13.291696,25.230495 11.500037,31.436501 z"
             style="fill:#404040;"/>
          </a>
         </g>
        </svg>
</svg>
