<?xml version="1.0" encoding="UTF-8" standalone="no"?>
<!DOCTYPE svg PUBLIC "-//W3C//DTD SVG 1.1//EN"
 "http://www.w3.org/Graphics/SVG/1.1/DTD/svg11.dtd">
<!-- Generated by graphviz version 12.2.0 (20241103.1931)
 -->
<!-- Title: /github/workspace/benchmark/predict_1x1x0.cpp Pages: 1 -->
<!--zoomable 393 -->

<svg id="main" version="1.1" xmlns="http://www.w3.org/2000/svg" xmlns:xlink="http://www.w3.org/1999/xlink" xml:space="preserve" onload="init(evt)">

<style type="text/css"><![CDATA[
.node, .edge {opacity: 0.7;}
.node.selected, .edge.selected {opacity: 1;}
.edge:hover path { stroke: red; }
.edge:hover polygon { stroke: red; fill: red; }
]]></style>

<defs>
  <circle id="rim" cx="0" cy="0" r="7"/>
  <circle id="rim2" cx="0" cy="0" r="3.5"/>
  <g id="zoomPlus">
    <use xlink:href="#rim" fill="#404040"><set attributeName="fill" to="#808080" begin="zoomplus.mouseover" end="zoomplus.mouseout"/></use>
    <path d="M-4,0h8M0,-4v8" fill="none" stroke="white" stroke-width="1.5" pointer-events="none"/>
  </g>
  <g id="zoomMin">
    <use xlink:href="#rim" fill="#404040"><set attributeName="fill" to="#808080" begin="zoomminus.mouseover" end="zoomminus.mouseout"/></use>
    <path d="M-4,0h8" fill="none" stroke="white" stroke-width="1.5" pointer-events="none"/>
  </g>
  <g id="arrowUp" transform="translate(30 24)">
    <use xlink:href="#rim"/>
    <path pointer-events="none" fill="none" stroke="white" stroke-width="1.5" d="M0,-3.0v7 M-2.5,-0.5L0,-3.0L2.5,-0.5"/>
  </g>
  <g id="arrowRight" transform="rotate(90) translate(36 -43)">
    <use xlink:href="#rim"/>
    <path pointer-events="none" fill="none" stroke="white" stroke-width="1.5" d="M0,-3.0v7 M-2.5,-0.5L0,-3.0L2.5,-0.5"/>
  </g>
  <g id="arrowDown" transform="rotate(180) translate(-30 -48)">
    <use xlink:href="#rim"/>
    <path pointer-events="none" fill="none" stroke="white" stroke-width="1.5" d="M0,-3.0v7 M-2.5,-0.5L0,-3.0L2.5,-0.5"/>
  </g>
  <g id="arrowLeft" transform="rotate(270) translate(-36 17)">
    <use xlink:href="#rim"/>
    <path pointer-events="none" fill="none" stroke="white" stroke-width="1.5" d="M0,-3.0v7 M-2.5,-0.5L0,-3.0L2.5,-0.5"/>
  </g>
  <g id="resetDef">
    <use xlink:href="#rim2" fill="#404040"><set attributeName="fill" to="#808080" begin="reset.mouseover" end="reset.mouseout"/></use>
  </g>
</defs>
<script type="application/ecmascript">
var viewWidth = 1511;
var viewHeight = 393;
var sectionId = 'dynsection-0';
</script>
<script type="application/ecmascript" xlink:href="svg.min.js"/>
<svg id="graph" class="graph">
<g id="viewport">
<title>/github/workspace/benchmark/predict_1x1x0.cpp</title>
<!-- Node1 -->
<g id="Node000001" class="node">
<title>Node1</title>
<g id="a_Node000001"><a xlink:title=" ">
<polygon fill="#999999" stroke="#666666" points="1297.37,-384.5 1150.87,-384.5 1150.87,-354 1297.37,-354 1297.37,-384.5"/>
<text text-anchor="start" x="1158.87" y="-371" font-family="Helvetica,sans-Serif" font-size="10.00">/github/workspace/benchmark</text>
<text text-anchor="middle" x="1224.12" y="-359.75" font-family="Helvetica,sans-Serif" font-size="10.00">/predict_1x1x0.cpp</text>
</a>
</g>
</g>
<!-- Node2 -->
<g id="Node000002" class="node">
<title>Node2</title>
<g id="a_Node000002"><a xlink:href="benchmark_8hpp.xhtml" target="_top" xlink:title="Benchmarking support.">
<polygon fill="white" stroke="#666666" points="1265.12,-318 1183.12,-318 1183.12,-298.75 1265.12,-298.75 1265.12,-318"/>
<text text-anchor="middle" x="1224.12" y="-304.5" font-family="Helvetica,sans-Serif" font-size="10.00">benchmark.hpp</text>
</a>
</g>
</g>
<!-- Node1&#45;&gt;Node2 -->
<g id="edge1_Node000001_Node000002" class="edge">
<title>Node1&#45;&gt;Node2</title>
<g id="a_edge1_Node000001_Node000002"><a xlink:title=" ">
<path fill="none" stroke="#63b8ff" d="M1224.12,-353.7C1224.12,-346.46 1224.12,-337.59 1224.12,-329.69"/>
<polygon fill="#63b8ff" stroke="#63b8ff" points="1227.62,-329.96 1224.12,-319.96 1220.62,-329.96 1227.62,-329.96"/>
</a>
</g>
</g>
<!-- Node3 -->
<g id="Node000003" class="node">
<title>Node3</title>
<g id="a_Node000003"><a xlink:title=" ">
<polygon fill="#e0e0e0" stroke="#999999" points="1212.74,-262.75 1167.49,-262.75 1167.49,-243.5 1212.74,-243.5 1212.74,-262.75"/>
<text text-anchor="middle" x="1190.12" y="-249.25" font-family="Helvetica,sans-Serif" font-size="10.00">chrono</text>
</a>
</g>
</g>
<!-- Node1&#45;&gt;Node3 -->
<g id="edge59_Node000001_Node000003" class="edge">
<title>Node1&#45;&gt;Node3</title>
<g id="a_edge59_Node000001_Node000003"><a xlink:title=" ">
<path fill="none" stroke="#63b8ff" d="M1203.11,-353.63C1192.24,-344.73 1180.03,-332.33 1174.12,-318 1168.11,-303.45 1173.19,-286.08 1179.17,-273.13"/>
<polygon fill="#63b8ff" stroke="#63b8ff" points="1182.2,-274.89 1183.71,-264.41 1175.99,-271.66 1182.2,-274.89"/>
</a>
</g>
</g>
<!-- Node5 -->
<g id="Node000005" class="node">
<title>Node5</title>
<g id="a_Node000005"><a xlink:href="kalman_8hpp.xhtml" target="_top" xlink:title="The Kalman filter class and library top&#45;level header.">
<polygon fill="white" stroke="#666666" points="233.12,-318 127.12,-318 127.12,-298.75 233.12,-298.75 233.12,-318"/>
<text text-anchor="middle" x="180.12" y="-304.5" font-family="Helvetica,sans-Serif" font-size="10.00">fcarouge/kalman.hpp</text>
</a>
</g>
</g>
<!-- Node1&#45;&gt;Node5 -->
<g id="edge4_Node000001_Node000005" class="edge">
<title>Node1&#45;&gt;Node5</title>
<g id="a_edge4_Node000001_Node000005"><a xlink:title=" ">
<path fill="none" stroke="#63b8ff" d="M1150.7,-364.11C956.11,-353.14 429.39,-323.43 244.96,-313.03"/>
<polygon fill="#63b8ff" stroke="#63b8ff" points="245.27,-309.54 235.09,-312.47 244.87,-316.53 245.27,-309.54"/>
</a>
</g>
</g>
<!-- Node31 -->
<g id="Node000031" class="node">
<title>Node31</title>
<g id="a_Node000031"><a xlink:title=" ">
<polygon fill="#e0e0e0" stroke="#999999" points="1405.37,-318 1282.87,-318 1282.87,-298.75 1405.37,-298.75 1405.37,-318"/>
<text text-anchor="middle" x="1344.12" y="-304.5" font-family="Helvetica,sans-Serif" font-size="10.00">benchmark/benchmark.h</text>
</a>
</g>
</g>
<!-- Node1&#45;&gt;Node31 -->
<g id="edge57_Node000001_Node000031" class="edge">
<title>Node1&#45;&gt;Node31</title>
<g id="a_edge57_Node000001_Node000031"><a xlink:title=" ">
<path fill="none" stroke="#63b8ff" d="M1254.09,-353.55C1272.89,-344.32 1296.99,-332.5 1315.53,-323.4"/>
<polygon fill="#63b8ff" stroke="#63b8ff" points="1316.92,-326.62 1324.35,-319.07 1313.84,-320.33 1316.92,-326.62"/>
</a>
</g>
</g>
<!-- Node32 -->
<g id="Node000032" class="node">
<title>Node32</title>
<g id="a_Node000032"><a xlink:title=" ">
<polygon fill="#e0e0e0" stroke="#999999" points="1478.99,-318 1423.24,-318 1423.24,-298.75 1478.99,-298.75 1478.99,-318"/>
<text text-anchor="middle" x="1451.12" y="-304.5" font-family="Helvetica,sans-Serif" font-size="10.00">algorithm</text>
</a>
</g>
</g>
<!-- Node1&#45;&gt;Node32 -->
<g id="edge58_Node000001_Node000032" class="edge">
<title>Node1&#45;&gt;Node32</title>
<g id="a_edge58_Node000001_Node000032"><a xlink:title=" ">
<path fill="none" stroke="#63b8ff" d="M1280.81,-353.55C1321.69,-342.94 1375.82,-328.9 1411.97,-319.53"/>
<polygon fill="#63b8ff" stroke="#63b8ff" points="1412.77,-322.94 1421.58,-317.04 1411.02,-316.16 1412.77,-322.94"/>
</a>
</g>
</g>
<!-- Node2&#45;&gt;Node3 -->
<g id="edge2_Node000002_Node000003" class="edge">
<title>Node2&#45;&gt;Node3</title>
<g id="a_edge2_Node000002_Node000003"><a xlink:title=" ">
<path fill="none" stroke="#63b8ff" d="M1218.5,-298.58C1214,-291.53 1207.53,-281.4 1201.9,-272.58"/>
<polygon fill="#63b8ff" stroke="#63b8ff" points="1205,-270.93 1196.67,-264.38 1199.1,-274.7 1205,-270.93"/>
</a>
</g>
</g>
<!-- Node4 -->
<g id="Node000004" class="node">
<title>Node4</title>
<g id="a_Node000004"><a xlink:title=" ">
<polygon fill="#e0e0e0" stroke="#999999" points="1466.62,-19.25 1405.62,-19.25 1405.62,0 1466.62,0 1466.62,-19.25"/>
<text text-anchor="middle" x="1436.12" y="-5.75" font-family="Helvetica,sans-Serif" font-size="10.00">type_traits</text>
</a>
</g>
</g>
<!-- Node2&#45;&gt;Node4 -->
<g id="edge3_Node000002_Node000004" class="edge">
<title>Node2&#45;&gt;Node4</title>
<g id="a_edge3_Node000002_Node000004"><a xlink:title=" ">
<path fill="none" stroke="#63b8ff" d="M1265.58,-298.63C1343.31,-281.05 1503.12,-238.69 1503.12,-187.62 1503.12,-187.62 1503.12,-187.62 1503.12,-119.12 1503.12,-82.1 1474.52,-47.14 1454.69,-27.35"/>
<polygon fill="#63b8ff" stroke="#63b8ff" points="1457.33,-25.03 1447.68,-20.65 1452.49,-30.09 1457.33,-25.03"/>
</a>
</g>
</g>
<!-- Node6 -->
<g id="Node000006" class="node">
<title>Node6</title>
<g id="a_Node000006"><a xlink:href="format_8hpp.xhtml" target="_top" xlink:title="Formatting support for the Kalman filter.">
<polygon fill="white" stroke="#666666" points="77.99,-196.25 16.24,-196.25 16.24,-177 77.99,-177 77.99,-196.25"/>
<text text-anchor="middle" x="47.12" y="-182.75" font-family="Helvetica,sans-Serif" font-size="10.00">format.hpp</text>
</a>
</g>
</g>
<!-- Node5&#45;&gt;Node6 -->
<g id="edge5_Node000005_Node000006" class="edge">
<title>Node5&#45;&gt;Node6</title>
<g id="a_edge5_Node000005_Node000006"><a xlink:title=" ">
<path fill="none" stroke="#63b8ff" d="M126.85,-300.98C81.03,-294.25 20.03,-281.94 5.12,-262.75 -9.33,-244.16 9.91,-220 26.85,-204.17"/>
<polygon fill="#63b8ff" stroke="#63b8ff" points="28.98,-206.96 34.17,-197.72 24.35,-201.7 28.98,-206.96"/>
</a>
</g>
</g>
<!-- Node7 -->
<g id="Node000007" class="node">
<title>Node7</title>
<g id="a_Node000007"><a xlink:href="utility_8hpp.xhtml" target="_top" xlink:title="The collection of utilities supporting the library.">
<polygon fill="white" stroke="#666666" points="750.62,-129.75 653.62,-129.75 653.62,-110.5 750.62,-110.5 750.62,-129.75"/>
<text text-anchor="middle" x="702.12" y="-116.25" font-family="Helvetica,sans-Serif" font-size="10.00">fcarouge/utility.hpp</text>
</a>
</g>
</g>
<!-- Node5&#45;&gt;Node7 -->
<g id="edge55_Node000005_Node000007" class="edge">
<title>Node5&#45;&gt;Node7</title>
<g id="a_edge55_Node000005_Node000007"><a xlink:title=" ">
<path fill="none" stroke="#63b8ff" d="M185.43,-298.53C190.35,-289.79 197.31,-275.87 200.12,-262.75 201.91,-254.38 202.52,-251.71 200.12,-243.5 194.79,-225.28 182.44,-225.72 177.12,-207.5 171.91,-189.69 164.52,-179.37 177.12,-165.75 212.08,-127.95 587.92,-135.24 639.12,-129.75 640.12,-129.64 641.14,-129.53 642.17,-129.42"/>
<polygon fill="#63b8ff" stroke="#63b8ff" points="642.29,-132.93 651.81,-128.27 641.47,-125.97 642.29,-132.93"/>
</a>
</g>
</g>
<!-- Node14 -->
<g id="Node000014" class="node">
<title>Node14</title>
<g id="a_Node000014"><a xlink:href="factory_8hpp.xhtml" target="_top" xlink:title=" ">
<polygon fill="white" stroke="#666666" points="887.99,-262.75 790.24,-262.75 790.24,-243.5 887.99,-243.5 887.99,-262.75"/>
<text text-anchor="middle" x="839.12" y="-249.25" font-family="Helvetica,sans-Serif" font-size="10.00">internal/factory.hpp</text>
</a>
</g>
</g>
<!-- Node5&#45;&gt;Node14 -->
<g id="edge17_Node000005_Node000014" class="edge">
<title>Node5&#45;&gt;Node14</title>
<g id="a_edge17_Node000005_Node000014"><a xlink:title=" ">
<path fill="none" stroke="#63b8ff" d="M233.49,-303.06C354.84,-293.26 650.83,-269.34 778.67,-259.01"/>
<polygon fill="#63b8ff" stroke="#63b8ff" points="778.58,-262.53 788.27,-258.23 778.02,-255.55 778.58,-262.53"/>
</a>
</g>
</g>
<!-- Node28 -->
<g id="Node000028" class="node">
<title>Node28</title>
<g id="a_Node000028"><a xlink:href="printer_8hpp.xhtml" target="_top" xlink:title="Filter decoration support for printing operations.">
<polygon fill="white" stroke="#666666" points="75.62,-262.75 14.62,-262.75 14.62,-243.5 75.62,-243.5 75.62,-262.75"/>
<text text-anchor="middle" x="45.12" y="-249.25" font-family="Helvetica,sans-Serif" font-size="10.00">printer.hpp</text>
</a>
</g>
</g>
<!-- Node5&#45;&gt;Node28 -->
<g id="edge53_Node000005_Node000028" class="edge">
<title>Node5&#45;&gt;Node28</title>
<g id="a_edge53_Node000005_Node000028"><a xlink:title=" ">
<path fill="none" stroke="#63b8ff" d="M157.22,-298.34C135.69,-289.85 103.21,-277.04 78.74,-267.39"/>
<polygon fill="#63b8ff" stroke="#63b8ff" points="80.12,-264.17 69.54,-263.76 77.56,-270.68 80.12,-264.17"/>
</a>
</g>
</g>
<!-- Node30 -->
<g id="Node000030" class="node">
<title>Node30</title>
<g id="a_Node000030"><a xlink:title=" ">
<polygon fill="#e0e0e0" stroke="#999999" points="190.99,-262.75 93.24,-262.75 93.24,-243.5 190.99,-243.5 190.99,-262.75"/>
<text text-anchor="middle" x="142.12" y="-249.25" font-family="Helvetica,sans-Serif" font-size="10.00">internal/kalman.tpp</text>
</a>
</g>
</g>
<!-- Node5&#45;&gt;Node30 -->
<g id="edge56_Node000005_Node000030" class="edge">
<title>Node5&#45;&gt;Node30</title>
<g id="a_edge56_Node000005_Node000030"><a xlink:title=" ">
<path fill="none" stroke="#63b8ff" d="M173.84,-298.58C168.76,-291.46 161.42,-281.18 155.08,-272.3"/>
<polygon fill="#63b8ff" stroke="#63b8ff" points="158.06,-270.45 149.41,-264.34 152.37,-274.51 158.06,-270.45"/>
</a>
</g>
</g>
<!-- Node6&#45;&gt;Node7 -->
<g id="edge6_Node000006_Node000007" class="edge">
<title>Node6&#45;&gt;Node7</title>
<g id="a_edge6_Node000006_Node000007"><a xlink:title=" ">
<path fill="none" stroke="#63b8ff" d="M61.75,-176.6C69.09,-172.54 78.28,-168.13 87.12,-165.75 324.51,-101.8 394.5,-154.44 639.12,-129.75 640.13,-129.65 641.14,-129.54 642.17,-129.43"/>
<polygon fill="#63b8ff" stroke="#63b8ff" points="642.28,-132.94 651.81,-128.33 641.48,-125.99 642.28,-132.94"/>
</a>
</g>
</g>
<!-- Node10 -->
<g id="Node000010" class="node">
<title>Node10</title>
<g id="a_Node000010"><a xlink:title=" ">
<polygon fill="#e0e0e0" stroke="#999999" points="611.24,-19.25 562.99,-19.25 562.99,0 611.24,0 611.24,-19.25"/>
<text text-anchor="middle" x="587.12" y="-5.75" font-family="Helvetica,sans-Serif" font-size="10.00">cstddef</text>
</a>
</g>
</g>
<!-- Node6&#45;&gt;Node10 -->
<g id="edge14_Node000006_Node000010" class="edge">
<title>Node6&#45;&gt;Node10</title>
<g id="a_edge14_Node000006_Node000010"><a xlink:title=" ">
<path fill="none" stroke="#63b8ff" d="M63.58,-176.7C70.7,-173.04 79.2,-168.92 87.12,-165.75 256.97,-97.71 468.88,-40.75 551.67,-19.52"/>
<polygon fill="#63b8ff" stroke="#63b8ff" points="552.41,-22.95 561.23,-17.08 550.68,-16.16 552.41,-22.95"/>
</a>
</g>
</g>
<!-- Node11 -->
<g id="Node000011" class="node">
<title>Node11</title>
<g id="a_Node000011"><a xlink:title=" ">
<polygon fill="#e0e0e0" stroke="#999999" points="887.62,-19.25 850.62,-19.25 850.62,0 887.62,0 887.62,-19.25"/>
<text text-anchor="middle" x="869.12" y="-5.75" font-family="Helvetica,sans-Serif" font-size="10.00">tuple</text>
</a>
</g>
</g>
<!-- Node6&#45;&gt;Node11 -->
<g id="edge16_Node000006_Node000011" class="edge">
<title>Node6&#45;&gt;Node11</title>
<g id="a_edge16_Node000006_Node000011"><a xlink:title=" ">
<path fill="none" stroke="#63b8ff" d="M62.66,-176.7C69.9,-172.86 78.75,-168.6 87.12,-165.75 160.56,-140.72 705.31,-40.52 839.37,-16.04"/>
<polygon fill="#63b8ff" stroke="#63b8ff" points="839.67,-19.55 848.88,-14.31 838.41,-12.66 839.67,-19.55"/>
</a>
</g>
</g>
<!-- Node13 -->
<g id="Node000013" class="node">
<title>Node13</title>
<g id="a_Node000013"><a xlink:title=" ">
<polygon fill="#e0e0e0" stroke="#999999" points="68.99,-129.75 25.24,-129.75 25.24,-110.5 68.99,-110.5 68.99,-129.75"/>
<text text-anchor="middle" x="47.12" y="-116.25" font-family="Helvetica,sans-Serif" font-size="10.00">format</text>
</a>
</g>
</g>
<!-- Node6&#45;&gt;Node13 -->
<g id="edge15_Node000006_Node000013" class="edge">
<title>Node6&#45;&gt;Node13</title>
<g id="a_edge15_Node000006_Node000013"><a xlink:title=" ">
<path fill="none" stroke="#63b8ff" d="M47.12,-176.66C47.12,-167.61 47.12,-153.32 47.12,-141.5"/>
<polygon fill="#63b8ff" stroke="#63b8ff" points="50.62,-141.53 47.12,-131.53 43.62,-141.53 50.62,-141.53"/>
</a>
</g>
</g>
<!-- Node8 -->
<g id="Node000008" class="node">
<title>Node8</title>
<g id="a_Node000008"><a xlink:href="internal_2utility_8hpp.xhtml" target="_top" xlink:title=" ">
<polygon fill="white" stroke="#666666" points="988.62,-74.5 897.62,-74.5 897.62,-55.25 988.62,-55.25 988.62,-74.5"/>
<text text-anchor="middle" x="943.12" y="-61" font-family="Helvetica,sans-Serif" font-size="10.00">internal/utility.hpp</text>
</a>
</g>
</g>
<!-- Node7&#45;&gt;Node8 -->
<g id="edge7_Node000007_Node000008" class="edge">
<title>Node7&#45;&gt;Node8</title>
<g id="a_edge7_Node000007_Node000008"><a xlink:title=" ">
<path fill="none" stroke="#63b8ff" d="M743.27,-110.03C784.08,-101.01 846.76,-87.17 891.02,-77.39"/>
<polygon fill="#63b8ff" stroke="#63b8ff" points="891.64,-80.83 900.65,-75.26 890.13,-74 891.64,-80.83"/>
</a>
</g>
</g>
<!-- Node7&#45;&gt;Node10 -->
<g id="edge12_Node000007_Node000010" class="edge">
<title>Node7&#45;&gt;Node10</title>
<g id="a_edge12_Node000007_Node000010"><a xlink:title=" ">
<path fill="none" stroke="#63b8ff" d="M692.71,-110.25C673.5,-92.13 629.52,-50.63 604.81,-27.32"/>
<polygon fill="#63b8ff" stroke="#63b8ff" points="607.43,-24.98 597.76,-20.67 602.63,-30.07 607.43,-24.98"/>
</a>
</g>
</g>
<!-- Node12 -->
<g id="Node000012" class="node">
<title>Node12</title>
<g id="a_Node000012"><a xlink:title=" ">
<polygon fill="#e0e0e0" stroke="#999999" points="721.37,-74.5 682.87,-74.5 682.87,-55.25 721.37,-55.25 721.37,-74.5"/>
<text text-anchor="middle" x="702.12" y="-61" font-family="Helvetica,sans-Serif" font-size="10.00">utility</text>
</a>
</g>
</g>
<!-- Node7&#45;&gt;Node12 -->
<g id="edge13_Node000007_Node000012" class="edge">
<title>Node7&#45;&gt;Node12</title>
<g id="a_edge13_Node000007_Node000012"><a xlink:title=" ">
<path fill="none" stroke="#63b8ff" d="M702.12,-110.33C702.12,-103.82 702.12,-94.67 702.12,-86.37"/>
<polygon fill="#63b8ff" stroke="#63b8ff" points="705.62,-86.37 702.12,-76.37 698.62,-86.37 705.62,-86.37"/>
</a>
</g>
</g>
<!-- Node8&#45;&gt;Node4 -->
<g id="edge11_Node000008_Node000004" class="edge">
<title>Node8&#45;&gt;Node4</title>
<g id="a_edge11_Node000008_Node000004"><a xlink:title=" ">
<path fill="none" stroke="#63b8ff" d="M989.01,-56.49C992.09,-56.05 995.14,-55.63 998.12,-55.25 1143.04,-36.52 1315.79,-20.88 1393.97,-14.16"/>
<polygon fill="#63b8ff" stroke="#63b8ff" points="1394.08,-17.66 1403.74,-13.32 1393.48,-10.69 1394.08,-17.66"/>
</a>
</g>
</g>
<!-- Node9 -->
<g id="Node000009" class="node">
<title>Node9</title>
<g id="a_Node000009"><a xlink:title=" ">
<polygon fill="#e0e0e0" stroke="#999999" points="1155.99,-19.25 1100.24,-19.25 1100.24,0 1155.99,0 1155.99,-19.25"/>
<text text-anchor="middle" x="1128.12" y="-5.75" font-family="Helvetica,sans-Serif" font-size="10.00">concepts</text>
</a>
</g>
</g>
<!-- Node8&#45;&gt;Node9 -->
<g id="edge8_Node000008_Node000009" class="edge">
<title>Node8&#45;&gt;Node9</title>
<g id="a_edge8_Node000008_Node000009"><a xlink:title=" ">
<path fill="none" stroke="#63b8ff" d="M974.5,-54.84C1006.08,-45.75 1054.87,-31.71 1088.97,-21.89"/>
<polygon fill="#63b8ff" stroke="#63b8ff" points="1089.82,-25.29 1098.47,-19.16 1087.89,-18.56 1089.82,-25.29"/>
</a>
</g>
</g>
<!-- Node8&#45;&gt;Node10 -->
<g id="edge9_Node000008_Node000010" class="edge">
<title>Node8&#45;&gt;Node10</title>
<g id="a_edge9_Node000008_Node000010"><a xlink:title=" ">
<path fill="none" stroke="#63b8ff" d="M897.3,-57.02C825.53,-46.29 688.06,-25.72 622.97,-15.99"/>
<polygon fill="#63b8ff" stroke="#63b8ff" points="623.6,-12.54 613.19,-14.53 622.56,-19.47 623.6,-12.54"/>
</a>
</g>
</g>
<!-- Node8&#45;&gt;Node11 -->
<g id="edge10_Node000008_Node000011" class="edge">
<title>Node8&#45;&gt;Node11</title>
<g id="a_edge10_Node000008_Node000011"><a xlink:title=" ">
<path fill="none" stroke="#63b8ff" d="M930.56,-54.84C919.65,-46.99 903.61,-35.45 890.66,-26.12"/>
<polygon fill="#63b8ff" stroke="#63b8ff" points="892.87,-23.41 882.71,-20.41 888.79,-29.09 892.87,-23.41"/>
</a>
</g>
</g>
<!-- Node14&#45;&gt;Node4 -->
<g id="edge52_Node000014_Node000004" class="edge">
<title>Node14&#45;&gt;Node4</title>
<g id="a_edge52_Node000014_Node000004"><a xlink:title=" ">
<path fill="none" stroke="#63b8ff" d="M888.28,-250.2C1026.97,-244.53 1412.49,-227.08 1431.12,-207.5 1477.15,-159.11 1455.85,-69.95 1443.16,-30.4"/>
<polygon fill="#63b8ff" stroke="#63b8ff" points="1446.52,-29.41 1440,-21.06 1439.89,-31.65 1446.52,-29.41"/>
</a>
</g>
</g>
<!-- Node14&#45;&gt;Node9 -->
<g id="edge51_Node000014_Node000009" class="edge">
<title>Node14&#45;&gt;Node9</title>
<g id="a_edge51_Node000014_Node000009"><a xlink:title=" ">
<path fill="none" stroke="#63b8ff" d="M888.32,-250.07C1023.29,-244.18 1390.56,-226.48 1408.12,-207.5 1490.69,-118.2 1262.23,-45.84 1167.32,-20.42"/>
<polygon fill="#63b8ff" stroke="#63b8ff" points="1168.46,-17.1 1157.9,-17.94 1166.68,-23.87 1168.46,-17.1"/>
</a>
</g>
</g>
<!-- Node15 -->
<g id="Node000015" class="node">
<title>Node15</title>
<g id="a_Node000015"><a xlink:href="type_8hpp.xhtml" target="_top" xlink:title=" ">
<polygon fill="white" stroke="#666666" points="1398.62,-196.25 1271.62,-196.25 1271.62,-177 1398.62,-177 1398.62,-196.25"/>
<text text-anchor="middle" x="1335.12" y="-182.75" font-family="Helvetica,sans-Serif" font-size="10.00">fcarouge/internal/type.hpp</text>
</a>
</g>
</g>
<!-- Node14&#45;&gt;Node15 -->
<g id="edge18_Node000014_Node000015" class="edge">
<title>Node14&#45;&gt;Node15</title>
<g id="a_edge18_Node000014_Node000015"><a xlink:title=" ">
<path fill="none" stroke="#63b8ff" d="M888.46,-249.57C967.93,-244.87 1128.94,-232.9 1263.12,-207.5 1273.69,-205.5 1284.97,-202.71 1295.4,-199.85"/>
<polygon fill="#63b8ff" stroke="#63b8ff" points="1296.18,-203.26 1304.84,-197.16 1294.26,-196.53 1296.18,-203.26"/>
</a>
</g>
</g>
<!-- Node17 -->
<g id="Node000017" class="node">
<title>Node17</title>
<g id="a_Node000017"><a xlink:href="x__z__p__q__r_8hpp.xhtml" target="_top" xlink:title=" ">
<polygon fill="white" stroke="#666666" points="509.87,-201.88 414.37,-201.88 414.37,-171.38 509.87,-171.38 509.87,-201.88"/>
<text text-anchor="start" x="422.37" y="-188.38" font-family="Helvetica,sans-Serif" font-size="10.00">fcarouge/internal/x</text>
<text text-anchor="middle" x="462.12" y="-177.12" font-family="Helvetica,sans-Serif" font-size="10.00">_z_p_q_r.hpp</text>
</a>
</g>
</g>
<!-- Node14&#45;&gt;Node17 -->
<g id="edge22_Node000014_Node000017" class="edge">
<title>Node14&#45;&gt;Node17</title>
<g id="a_edge22_Node000014_Node000017"><a xlink:title=" ">
<path fill="none" stroke="#63b8ff" d="M789.76,-248.28C726.42,-242.66 613.44,-230.29 519.12,-207.5 516.72,-206.92 514.27,-206.28 511.82,-205.59"/>
<polygon fill="#63b8ff" stroke="#63b8ff" points="513.09,-202.32 502.51,-202.78 511.07,-209.02 513.09,-202.32"/>
</a>
</g>
</g>
<!-- Node18 -->
<g id="Node000018" class="node">
<title>Node18</title>
<g id="a_Node000018"><a xlink:href="x__z__p__q__r__h__f_8hpp.xhtml" target="_top" xlink:title=" ">
<polygon fill="white" stroke="#666666" points="623.87,-201.88 528.37,-201.88 528.37,-171.38 623.87,-171.38 623.87,-201.88"/>
<text text-anchor="start" x="536.37" y="-188.38" font-family="Helvetica,sans-Serif" font-size="10.00">fcarouge/internal/x</text>
<text text-anchor="middle" x="576.12" y="-177.12" font-family="Helvetica,sans-Serif" font-size="10.00">_z_p_q_r_h_f.hpp</text>
</a>
</g>
</g>
<!-- Node14&#45;&gt;Node18 -->
<g id="edge24_Node000014_Node000018" class="edge">
<title>Node14&#45;&gt;Node18</title>
<g id="a_edge24_Node000014_Node000018"><a xlink:title=" ">
<path fill="none" stroke="#63b8ff" d="M790,-243.24C748.01,-235.22 686.13,-222.42 633.12,-207.5 631.16,-206.95 629.17,-206.37 627.17,-205.76"/>
<polygon fill="#63b8ff" stroke="#63b8ff" points="628.44,-202.49 617.85,-202.81 626.32,-209.17 628.44,-202.49"/>
</a>
</g>
</g>
<!-- Node19 -->
<g id="Node000019" class="node">
<title>Node19</title>
<g id="a_Node000019"><a xlink:href="x__z__p__q__r__hh__us__ps_8hpp.xhtml" target="_top" xlink:title=" ">
<polygon fill="white" stroke="#666666" points="762.24,-201.88 641.99,-201.88 641.99,-171.38 762.24,-171.38 762.24,-201.88"/>
<text text-anchor="start" x="649.99" y="-188.38" font-family="Helvetica,sans-Serif" font-size="10.00">fcarouge/internal/x</text>
<text text-anchor="middle" x="702.12" y="-177.12" font-family="Helvetica,sans-Serif" font-size="10.00">_z_p_q_r_hh_us_ps.hpp</text>
</a>
</g>
</g>
<!-- Node14&#45;&gt;Node19 -->
<g id="edge26_Node000014_Node000019" class="edge">
<title>Node14&#45;&gt;Node19</title>
<g id="a_edge26_Node000014_Node000019"><a xlink:title=" ">
<path fill="none" stroke="#63b8ff" d="M819.78,-243.02C800.01,-233.71 768.68,-218.97 743.33,-207.03"/>
<polygon fill="#63b8ff" stroke="#63b8ff" points="745.14,-204.01 734.6,-202.92 742.16,-210.34 745.14,-204.01"/>
</a>
</g>
</g>
<!-- Node22 -->
<g id="Node000022" class="node">
<title>Node22</title>
<g id="a_Node000022"><a xlink:href="x__z__p__qq__rr__f_8hpp.xhtml" target="_top" xlink:title=" ">
<polygon fill="white" stroke="#666666" points="1011.87,-201.88 916.37,-201.88 916.37,-171.38 1011.87,-171.38 1011.87,-201.88"/>
<text text-anchor="start" x="924.37" y="-188.38" font-family="Helvetica,sans-Serif" font-size="10.00">fcarouge/internal/x</text>
<text text-anchor="middle" x="964.12" y="-177.12" font-family="Helvetica,sans-Serif" font-size="10.00">_z_p_qq_rr_f.hpp</text>
</a>
</g>
</g>
<!-- Node14&#45;&gt;Node22 -->
<g id="edge31_Node000014_Node000022" class="edge">
<title>Node14&#45;&gt;Node22</title>
<g id="a_edge31_Node000014_Node000022"><a xlink:title=" ">
<path fill="none" stroke="#63b8ff" d="M856.76,-243.02C874.62,-233.81 902.8,-219.26 925.81,-207.39"/>
<polygon fill="#63b8ff" stroke="#63b8ff" points="927.34,-210.54 934.62,-202.84 924.13,-204.32 927.34,-210.54"/>
</a>
</g>
</g>
<!-- Node23 -->
<g id="Node000023" class="node">
<title>Node23</title>
<g id="a_Node000023"><a xlink:href="x__z__p__r_8hpp.xhtml" target="_top" xlink:title=" ">
<polygon fill="white" stroke="#666666" points="281.87,-201.88 186.37,-201.88 186.37,-171.38 281.87,-171.38 281.87,-201.88"/>
<text text-anchor="start" x="194.37" y="-188.38" font-family="Helvetica,sans-Serif" font-size="10.00">fcarouge/internal/x</text>
<text text-anchor="middle" x="234.12" y="-177.12" font-family="Helvetica,sans-Serif" font-size="10.00">_z_p_r.hpp</text>
</a>
</g>
</g>
<!-- Node14&#45;&gt;Node23 -->
<g id="edge35_Node000014_Node000023" class="edge">
<title>Node14&#45;&gt;Node23</title>
<g id="a_edge35_Node000014_Node000023"><a xlink:title=" ">
<path fill="none" stroke="#63b8ff" d="M789.76,-252.28C693.01,-251.67 472.06,-245.76 291.12,-207.5 288.48,-206.94 285.79,-206.3 283.1,-205.58"/>
<polygon fill="#63b8ff" stroke="#63b8ff" points="284.1,-202.23 273.52,-202.78 282.13,-208.95 284.1,-202.23"/>
</a>
</g>
</g>
<!-- Node24 -->
<g id="Node000024" class="node">
<title>Node24</title>
<g id="a_Node000024"><a xlink:href="x__z__p__r__f_8hpp.xhtml" target="_top" xlink:title=" ">
<polygon fill="white" stroke="#666666" points="395.87,-201.88 300.37,-201.88 300.37,-171.38 395.87,-171.38 395.87,-201.88"/>
<text text-anchor="start" x="308.37" y="-188.38" font-family="Helvetica,sans-Serif" font-size="10.00">fcarouge/internal/x</text>
<text text-anchor="middle" x="348.12" y="-177.12" font-family="Helvetica,sans-Serif" font-size="10.00">_z_p_r_f.hpp</text>
</a>
</g>
</g>
<!-- Node14&#45;&gt;Node24 -->
<g id="edge37_Node000014_Node000024" class="edge">
<title>Node14&#45;&gt;Node24</title>
<g id="a_edge37_Node000014_Node000024"><a xlink:title=" ">
<path fill="none" stroke="#63b8ff" d="M790.03,-250.79C708.98,-247.77 542.45,-238.06 405.12,-207.5 402.53,-206.92 399.89,-206.27 397.25,-205.55"/>
<polygon fill="#63b8ff" stroke="#63b8ff" points="398.43,-202.25 387.85,-202.76 396.44,-208.96 398.43,-202.25"/>
</a>
</g>
</g>
<!-- Node25 -->
<g id="Node000025" class="node">
<title>Node25</title>
<g id="a_Node000025"><a xlink:href="x__z__u__p__q__r_8hpp.xhtml" target="_top" xlink:title=" ">
<polygon fill="white" stroke="#666666" points="1253.87,-201.88 1158.37,-201.88 1158.37,-171.38 1253.87,-171.38 1253.87,-201.88"/>
<text text-anchor="start" x="1166.37" y="-188.38" font-family="Helvetica,sans-Serif" font-size="10.00">fcarouge/internal/x</text>
<text text-anchor="middle" x="1206.12" y="-177.12" font-family="Helvetica,sans-Serif" font-size="10.00">_z_u_p_q_r.hpp</text>
</a>
</g>
</g>
<!-- Node14&#45;&gt;Node25 -->
<g id="edge39_Node000014_Node000025" class="edge">
<title>Node14&#45;&gt;Node25</title>
<g id="a_edge39_Node000014_Node000025"><a xlink:title=" ">
<path fill="none" stroke="#63b8ff" d="M888.26,-248C949.87,-242.15 1058.39,-229.63 1149.12,-207.5 1151.52,-206.91 1153.96,-206.27 1156.41,-205.58"/>
<polygon fill="#63b8ff" stroke="#63b8ff" points="1157.16,-209.01 1165.72,-202.76 1155.13,-202.31 1157.16,-209.01"/>
</a>
</g>
</g>
<!-- Node26 -->
<g id="Node000026" class="node">
<title>Node26</title>
<g id="a_Node000026"><a xlink:href="x__z__u__p__q__r__f__g__ps_8hpp.xhtml" target="_top" xlink:title=" ">
<polygon fill="white" stroke="#666666" points="898.12,-201.88 780.12,-201.88 780.12,-171.38 898.12,-171.38 898.12,-201.88"/>
<text text-anchor="start" x="788.12" y="-188.38" font-family="Helvetica,sans-Serif" font-size="10.00">fcarouge/internal/x</text>
<text text-anchor="middle" x="839.12" y="-177.12" font-family="Helvetica,sans-Serif" font-size="10.00">_z_u_p_q_r_f_g_ps.hpp</text>
</a>
</g>
</g>
<!-- Node14&#45;&gt;Node26 -->
<g id="edge43_Node000014_Node000026" class="edge">
<title>Node14&#45;&gt;Node26</title>
<g id="a_edge43_Node000014_Node000026"><a xlink:title=" ">
<path fill="none" stroke="#63b8ff" d="M839.12,-243.16C839.12,-235.41 839.12,-223.83 839.12,-213.24"/>
<polygon fill="#63b8ff" stroke="#63b8ff" points="842.62,-213.48 839.12,-203.48 835.62,-213.48 842.62,-213.48"/>
</a>
</g>
</g>
<!-- Node27 -->
<g id="Node000027" class="node">
<title>Node27</title>
<g id="a_Node000027"><a xlink:href="x__z__u__p__q__r__h__f__g__us__ps_8hpp.xhtml" target="_top" xlink:title=" ">
<polygon fill="white" stroke="#666666" points="1140.37,-207.5 1029.87,-207.5 1029.87,-165.75 1140.37,-165.75 1140.37,-207.5"/>
<text text-anchor="start" x="1037.87" y="-194" font-family="Helvetica,sans-Serif" font-size="10.00">fcarouge/internal/x</text>
<text text-anchor="start" x="1037.87" y="-182.75" font-family="Helvetica,sans-Serif" font-size="10.00">_z_u_p_q_r_h_f_g_us</text>
<text text-anchor="middle" x="1085.12" y="-171.5" font-family="Helvetica,sans-Serif" font-size="10.00">_ps.hpp</text>
</a>
</g>
</g>
<!-- Node14&#45;&gt;Node27 -->
<g id="edge47_Node000014_Node000027" class="edge">
<title>Node14&#45;&gt;Node27</title>
<g id="a_edge47_Node000014_Node000027"><a xlink:title=" ">
<path fill="none" stroke="#63b8ff" d="M879.06,-243.07C913.67,-235.05 965.33,-222.71 1018.64,-208.12"/>
<polygon fill="#63b8ff" stroke="#63b8ff" points="1019.51,-211.51 1028.22,-205.47 1017.64,-204.76 1019.51,-211.51"/>
</a>
</g>
</g>
<!-- Node15&#45;&gt;Node4 -->
<g id="edge21_Node000015_Node000004" class="edge">
<title>Node15&#45;&gt;Node4</title>
<g id="a_edge21_Node000015_Node000004"><a xlink:title=" ">
<path fill="none" stroke="#63b8ff" d="M1340.97,-176.62C1348.04,-165.65 1360.23,-146.51 1370.12,-129.75 1390.65,-94.92 1413.21,-53.46 1425.92,-29.78"/>
<polygon fill="#63b8ff" stroke="#63b8ff" points="1428.97,-31.49 1430.6,-21.02 1422.8,-28.19 1428.97,-31.49"/>
</a>
</g>
</g>
<!-- Node15&#45;&gt;Node7 -->
<g id="edge19_Node000015_Node000007" class="edge">
<title>Node15&#45;&gt;Node7</title>
<g id="a_edge19_Node000015_Node000007"><a xlink:title=" ">
<path fill="none" stroke="#63b8ff" d="M1307.02,-176.53C1293.82,-172.61 1277.8,-168.34 1263.12,-165.75 1082.68,-133.97 865.57,-124.8 762.33,-122.17"/>
<polygon fill="#63b8ff" stroke="#63b8ff" points="762.5,-118.68 752.42,-121.93 762.34,-125.67 762.5,-118.68"/>
</a>
</g>
</g>
<!-- Node16 -->
<g id="Node000016" class="node">
<title>Node16</title>
<g id="a_Node000016"><a xlink:title=" ">
<polygon fill="#e0e0e0" stroke="#999999" points="1360.87,-129.75 1289.37,-129.75 1289.37,-110.5 1360.87,-110.5 1360.87,-129.75"/>
<text text-anchor="middle" x="1325.12" y="-116.25" font-family="Helvetica,sans-Serif" font-size="10.00">initializer_list</text>
</a>
</g>
</g>
<!-- Node15&#45;&gt;Node16 -->
<g id="edge20_Node000015_Node000016" class="edge">
<title>Node15&#45;&gt;Node16</title>
<g id="a_edge20_Node000015_Node000016"><a xlink:title=" ">
<path fill="none" stroke="#63b8ff" d="M1333.73,-176.66C1332.31,-167.51 1330.06,-153.02 1328.22,-141.13"/>
<polygon fill="#63b8ff" stroke="#63b8ff" points="1331.72,-140.86 1326.73,-131.51 1324.8,-141.93 1331.72,-140.86"/>
</a>
</g>
</g>
<!-- Node17&#45;&gt;Node7 -->
<g id="edge23_Node000017_Node000007" class="edge">
<title>Node17&#45;&gt;Node7</title>
<g id="a_edge23_Node000017_Node000007"><a xlink:title=" ">
<path fill="none" stroke="#63b8ff" d="M502.75,-170.92C508.23,-169.1 513.79,-167.32 519.12,-165.75 562.46,-152.94 612.34,-140.96 649.06,-132.64"/>
<polygon fill="#63b8ff" stroke="#63b8ff" points="649.55,-136.12 658.54,-130.51 648.02,-129.29 649.55,-136.12"/>
</a>
</g>
</g>
<!-- Node18&#45;&gt;Node7 -->
<g id="edge25_Node000018_Node000007" class="edge">
<title>Node18&#45;&gt;Node7</title>
<g id="a_edge25_Node000018_Node000007"><a xlink:title=" ">
<path fill="none" stroke="#63b8ff" d="M604.71,-170.99C625.61,-160.29 653.79,-145.86 674.47,-135.28"/>
<polygon fill="#63b8ff" stroke="#63b8ff" points="675.86,-138.5 683.17,-130.82 672.67,-132.27 675.86,-138.5"/>
</a>
</g>
</g>
<!-- Node19&#45;&gt;Node7 -->
<g id="edge27_Node000019_Node000007" class="edge">
<title>Node19&#45;&gt;Node7</title>
<g id="a_edge27_Node000019_Node000007"><a xlink:title=" ">
<path fill="none" stroke="#63b8ff" d="M702.12,-170.99C702.12,-162.2 702.12,-150.9 702.12,-141.28"/>
<polygon fill="#63b8ff" stroke="#63b8ff" points="705.62,-141.46 702.12,-131.46 698.62,-141.46 705.62,-141.46"/>
</a>
</g>
</g>
<!-- Node19&#45;&gt;Node11 -->
<g id="edge30_Node000019_Node000011" class="edge">
<title>Node19&#45;&gt;Node11</title>
<g id="a_edge30_Node000019_Node000011"><a xlink:title=" ">
<path fill="none" stroke="#63b8ff" d="M717.89,-170.95C729.7,-159.83 746.16,-144.07 760.12,-129.75 794.51,-94.46 833.06,-51.47 853.85,-27.99"/>
<polygon fill="#63b8ff" stroke="#63b8ff" points="856.37,-30.42 860.37,-20.6 851.13,-25.78 856.37,-30.42"/>
</a>
</g>
</g>
<!-- Node20 -->
<g id="Node000020" class="node">
<title>Node20</title>
<g id="a_Node000020"><a xlink:href="function_8hpp.xhtml" target="_top" xlink:title=" ">
<polygon fill="white" stroke="#666666" points="1027.37,-129.75 958.87,-129.75 958.87,-110.5 1027.37,-110.5 1027.37,-129.75"/>
<text text-anchor="middle" x="993.12" y="-116.25" font-family="Helvetica,sans-Serif" font-size="10.00">function.hpp</text>
</a>
</g>
</g>
<!-- Node19&#45;&gt;Node20 -->
<g id="edge28_Node000019_Node000020" class="edge">
<title>Node19&#45;&gt;Node20</title>
<g id="a_edge28_Node000019_Node000020"><a xlink:title=" ">
<path fill="none" stroke="#63b8ff" d="M751.36,-170.91C757.98,-169.09 764.7,-167.32 771.12,-165.75 831.72,-150.96 902.49,-137.36 947.54,-129.15"/>
<polygon fill="#63b8ff" stroke="#63b8ff" points="947.99,-132.63 957.21,-127.41 946.74,-125.74 947.99,-132.63"/>
</a>
</g>
</g>
<!-- Node21 -->
<g id="Node000021" class="node">
<title>Node21</title>
<g id="a_Node000021"><a xlink:title=" ">
<polygon fill="#e0e0e0" stroke="#999999" points="1057.37,-74.5 1006.87,-74.5 1006.87,-55.25 1057.37,-55.25 1057.37,-74.5"/>
<text text-anchor="middle" x="1032.12" y="-61" font-family="Helvetica,sans-Serif" font-size="10.00">memory</text>
</a>
</g>
</g>
<!-- Node20&#45;&gt;Node21 -->
<g id="edge29_Node000020_Node000021" class="edge">
<title>Node20&#45;&gt;Node21</title>
<g id="a_edge29_Node000020_Node000021"><a xlink:title=" ">
<path fill="none" stroke="#63b8ff" d="M999.56,-110.33C1004.78,-103.21 1012.3,-92.93 1018.81,-84.05"/>
<polygon fill="#63b8ff" stroke="#63b8ff" points="1021.56,-86.22 1024.64,-76.08 1015.91,-82.08 1021.56,-86.22"/>
</a>
</g>
</g>
<!-- Node22&#45;&gt;Node7 -->
<g id="edge32_Node000022_Node000007" class="edge">
<title>Node22&#45;&gt;Node7</title>
<g id="a_edge32_Node000022_Node000007"><a xlink:title=" ">
<path fill="none" stroke="#63b8ff" d="M923.83,-170.9C918.25,-169.06 912.56,-167.29 907.12,-165.75 858.89,-152.15 803.3,-140.28 762.18,-132.21"/>
<polygon fill="#63b8ff" stroke="#63b8ff" points="762.96,-128.79 752.47,-130.32 761.62,-135.66 762.96,-128.79"/>
</a>
</g>
</g>
<!-- Node22&#45;&gt;Node11 -->
<g id="edge34_Node000022_Node000011" class="edge">
<title>Node22&#45;&gt;Node11</title>
<g id="a_edge34_Node000022_Node000011"><a xlink:title=" ">
<path fill="none" stroke="#63b8ff" d="M952.2,-171.01C936,-150.53 906.98,-111.62 889.12,-74.5 882.32,-60.38 877.13,-43.4 873.75,-30.5"/>
<polygon fill="#63b8ff" stroke="#63b8ff" points="877.21,-29.95 871.42,-21.08 870.42,-31.63 877.21,-29.95"/>
</a>
</g>
</g>
<!-- Node22&#45;&gt;Node20 -->
<g id="edge33_Node000022_Node000020" class="edge">
<title>Node22&#45;&gt;Node20</title>
<g id="a_edge33_Node000022_Node000020"><a xlink:title=" ">
<path fill="none" stroke="#63b8ff" d="M970.7,-170.99C974.78,-161.91 980.07,-150.13 984.49,-140.31"/>
<polygon fill="#63b8ff" stroke="#63b8ff" points="987.62,-141.88 988.53,-131.33 981.24,-139.01 987.62,-141.88"/>
</a>
</g>
</g>
<!-- Node23&#45;&gt;Node7 -->
<g id="edge36_Node000023_Node000007" class="edge">
<title>Node23&#45;&gt;Node7</title>
<g id="a_edge36_Node000023_Node000007"><a xlink:title=" ">
<path fill="none" stroke="#63b8ff" d="M272.4,-170.92C278.59,-168.94 284.98,-167.12 291.12,-165.75 442.88,-131.92 484.73,-148.3 639.12,-129.75 640.12,-129.63 641.14,-129.51 642.16,-129.38"/>
<polygon fill="#63b8ff" stroke="#63b8ff" points="642.32,-132.89 651.8,-128.16 641.44,-125.94 642.32,-132.89"/>
</a>
</g>
</g>
<!-- Node24&#45;&gt;Node7 -->
<g id="edge38_Node000024_Node000007" class="edge">
<title>Node24&#45;&gt;Node7</title>
<g id="a_edge38_Node000024_Node000007"><a xlink:title=" ">
<path fill="none" stroke="#63b8ff" d="M387.07,-170.97C393.06,-169.03 399.22,-167.21 405.12,-165.75 427.63,-160.19 562.25,-140.81 642.32,-129.5"/>
<polygon fill="#63b8ff" stroke="#63b8ff" points="642.32,-133.03 651.74,-128.17 641.35,-126.1 642.32,-133.03"/>
</a>
</g>
</g>
<!-- Node25&#45;&gt;Node7 -->
<g id="edge40_Node000025_Node000007" class="edge">
<title>Node25&#45;&gt;Node7</title>
<g id="a_edge40_Node000025_Node000007"><a xlink:title=" ">
<path fill="none" stroke="#63b8ff" d="M1167.84,-170.9C1161.65,-168.92 1155.26,-167.11 1149.12,-165.75 1012.97,-135.66 848.97,-125.83 762.43,-122.64"/>
<polygon fill="#63b8ff" stroke="#63b8ff" points="762.62,-119.15 752.51,-122.3 762.38,-126.14 762.62,-119.15"/>
</a>
</g>
</g>
<!-- Node25&#45;&gt;Node11 -->
<g id="edge42_Node000025_Node000011" class="edge">
<title>Node25&#45;&gt;Node11</title>
<g id="a_edge42_Node000025_Node000011"><a xlink:title=" ">
<path fill="none" stroke="#63b8ff" d="M1197.28,-171.14C1179.76,-143.74 1137.79,-84.48 1086.12,-55.25 1025.83,-21.15 942.99,-12.94 899.15,-11.07"/>
<polygon fill="#63b8ff" stroke="#63b8ff" points="899.5,-7.58 889.39,-10.75 899.26,-14.58 899.5,-7.58"/>
</a>
</g>
</g>
<!-- Node25&#45;&gt;Node20 -->
<g id="edge41_Node000025_Node000020" class="edge">
<title>Node25&#45;&gt;Node20</title>
<g id="a_edge41_Node000025_Node000020"><a xlink:title=" ">
<path fill="none" stroke="#63b8ff" d="M1164.8,-170.91C1159.54,-169.13 1154.21,-167.37 1149.12,-165.75 1111.93,-153.96 1069.32,-141.86 1038.04,-133.25"/>
<polygon fill="#63b8ff" stroke="#63b8ff" points="1039.09,-129.91 1028.52,-130.64 1037.24,-136.66 1039.09,-129.91"/>
</a>
</g>
</g>
<!-- Node26&#45;&gt;Node7 -->
<g id="edge44_Node000026_Node000007" class="edge">
<title>Node26&#45;&gt;Node7</title>
<g id="a_edge44_Node000026_Node000007"><a xlink:title=" ">
<path fill="none" stroke="#63b8ff" d="M808.03,-170.99C785.1,-160.19 754.1,-145.6 731.56,-134.99"/>
<polygon fill="#63b8ff" stroke="#63b8ff" points="733.16,-131.87 722.62,-130.78 730.18,-138.21 733.16,-131.87"/>
</a>
</g>
</g>
<!-- Node26&#45;&gt;Node11 -->
<g id="edge46_Node000026_Node000011" class="edge">
<title>Node26&#45;&gt;Node11</title>
<g id="a_edge46_Node000026_Node000011"><a xlink:title=" ">
<path fill="none" stroke="#63b8ff" d="M840.04,-171.01C841.77,-146.75 846.15,-96.71 855.12,-55.25 856.9,-47.02 859.53,-38.14 862.04,-30.48"/>
<polygon fill="#63b8ff" stroke="#63b8ff" points="865.3,-31.75 865.23,-21.16 858.68,-29.48 865.3,-31.75"/>
</a>
</g>
</g>
<!-- Node26&#45;&gt;Node20 -->
<g id="edge45_Node000026_Node000020" class="edge">
<title>Node26&#45;&gt;Node20</title>
<g id="a_edge45_Node000026_Node000020"><a xlink:title=" ">
<path fill="none" stroke="#63b8ff" d="M874.06,-170.99C900.19,-160.05 935.64,-145.2 961.05,-134.56"/>
<polygon fill="#63b8ff" stroke="#63b8ff" points="962.34,-137.81 970.21,-130.72 959.63,-131.35 962.34,-137.81"/>
</a>
</g>
</g>
<!-- Node27&#45;&gt;Node7 -->
<g id="edge48_Node000027_Node000007" class="edge">
<title>Node27&#45;&gt;Node7</title>
<g id="a_edge48_Node000027_Node000007"><a xlink:title=" ">
<path fill="none" stroke="#63b8ff" d="M1029.41,-167.74C1026.62,-167.03 1023.84,-166.36 1021.12,-165.75 931.92,-145.8 826.6,-133.13 762.09,-126.58"/>
<polygon fill="#63b8ff" stroke="#63b8ff" points="762.73,-123.13 752.43,-125.62 762.03,-130.1 762.73,-123.13"/>
</a>
</g>
</g>
<!-- Node27&#45;&gt;Node11 -->
<g id="edge50_Node000027_Node000011" class="edge">
<title>Node27&#45;&gt;Node11</title>
<g id="a_edge50_Node000027_Node000011"><a xlink:title=" ">
<path fill="none" stroke="#63b8ff" d="M1088.54,-165.49C1092.13,-137.07 1093.92,-85.31 1066.12,-55.25 1043.79,-31.11 948.45,-18.39 899.06,-13.31"/>
<polygon fill="#63b8ff" stroke="#63b8ff" points="899.64,-9.85 889.35,-12.36 898.96,-16.82 899.64,-9.85"/>
</a>
</g>
</g>
<!-- Node27&#45;&gt;Node20 -->
<g id="edge49_Node000027_Node000020" class="edge">
<title>Node27&#45;&gt;Node20</title>
<g id="a_edge49_Node000027_Node000020"><a xlink:title=" ">
<path fill="none" stroke="#63b8ff" d="M1056.26,-165.39C1042.95,-156.07 1027.41,-145.17 1015.08,-136.52"/>
<polygon fill="#63b8ff" stroke="#63b8ff" points="1017.42,-133.89 1007.22,-131.01 1013.4,-139.62 1017.42,-133.89"/>
</a>
</g>
</g>
<!-- Node29 -->
<g id="Node000029" class="node">
<title>Node29</title>
<g id="a_Node000029"><a xlink:title=" ">
<polygon fill="#e0e0e0" stroke="#999999" points="130.49,-196.25 95.74,-196.25 95.74,-177 130.49,-177 130.49,-196.25"/>
<text text-anchor="middle" x="113.12" y="-182.75" font-family="Helvetica,sans-Serif" font-size="10.00">print</text>
</a>
</g>
</g>
<!-- Node28&#45;&gt;Node29 -->
<g id="edge54_Node000028_Node000029" class="edge">
<title>Node28&#45;&gt;Node29</title>
<g id="a_edge54_Node000028_Node000029"><a xlink:title=" ">
<path fill="none" stroke="#63b8ff" d="M54.57,-243.16C65.13,-233.14 82.44,-216.72 95.51,-204.33"/>
<polygon fill="#63b8ff" stroke="#63b8ff" points="97.8,-206.98 102.64,-197.56 92.98,-201.9 97.8,-206.98"/>
</a>
</g>
</g>
</g>
</svg>

<g id="navigator" transform="translate(0 0)" fill="#404254">
  <rect fill="#f2f5e9" fill-opacity="0.5" stroke="#606060" stroke-width=".5" x="0" y="0" width="60" height="60"/>
  <use id="zoomplus" xlink:href="#zoomPlus" x="17" y="9" onmousedown="handleZoom(evt,'in')"/>
  <use id="zoomminus" xlink:href="#zoomMin" x="42" y="9" onmousedown="handleZoom(evt,'out')"/>
  <use id="reset" xlink:href="#resetDef" x="30" y="36" onmousedown="handleReset()"/>
   <use id="arrowup" xlink:href="#arrowUp" x="0" y="0" onmousedown="handlePan(0,-1)"/>
  <use id="arrowright" xlink:href="#arrowRight" x="0" y="0" onmousedown="handlePan(1,0)"/>
  <use id="arrowdown" xlink:href="#arrowDown" x="0" y="0" onmousedown="handlePan(0,1)"/>
  <use id="arrowleft" xlink:href="#arrowLeft" x="0" y="0" onmousedown="handlePan(-1,0)"/>
</g>
<svg viewBox="0 0 15 15" width="100%" height="30px" preserveAspectRatio="xMaxYMin meet">
 <g id="arrow_out" transform="scale(0.3 0.3)">
  <a xlink:href="predict__1x1x0_8cpp__incl_org.svg" target="_base">
   <rect id="button" ry="5" rx="5" y="6" x="6" height="38" width="38"
        fill="#f2f5e9" fill-opacity="0.5" stroke="#606060" stroke-width="1.0"/>
   <path id="arrow"
     d="M 11.500037,31.436501 C 11.940474,20.09759 22.043105,11.32322 32.158766,21.979434 L 37.068811,17.246167 C 37.068811,17.246167 37.088388,32 37.088388,32 L 22.160133,31.978069 C 22.160133,31.978069 26.997745,27.140456 26.997745,27.140456 C 18.528582,18.264221 13.291696,25.230495 11.500037,31.436501 z"
     style="fill:#404040;"/>
  </a>
 </g>
</svg>

<style type='text/css'>
<![CDATA[
[data-mouse-over-selected='false'] { opacity: 0.7; }
[data-mouse-over-selected='true']  { opacity: 1.0; }
]]>
</style>
<script type="application/ecmascript"><![CDATA[
document.addEventListener('DOMContentLoaded', (event) => {
  highlightEdges();
  highlightAdjacentNodes();
});
]]></script>
</svg>
