<?xml version="1.0" encoding="UTF-8" standalone="no"?>
<!DOCTYPE svg PUBLIC "-//W3C//DTD SVG 1.1//EN"
 "http://www.w3.org/Graphics/SVG/1.1/DTD/svg11.dtd">
<!-- Generated by graphviz version 12.2.0 (20241103.1931)
 -->
<!-- Title: /github/workspace/benchmark/predict_1x1x1.cpp Pages: 1 -->
<svg width="1501pt" height="381pt"
 viewBox="0.00 0.00 1501.12 381.25" xmlns="http://www.w3.org/2000/svg" xmlns:xlink="http://www.w3.org/1999/xlink">
<g id="graph0" class="graph" transform="scale(1 1) rotate(0) translate(4 377.25)">
<title>/github/workspace/benchmark/predict_1x1x1.cpp</title>
<!-- Node1 -->
<g id="Node000001" class="node">
<title>Node1</title>
<g id="a_Node000001"><a xlink:title=" ">
<polygon fill="#999999" stroke="#666666" points="486.88,-373.25 340.38,-373.25 340.38,-342.75 486.88,-342.75 486.88,-373.25"/>
<text text-anchor="start" x="348.38" y="-359.75" font-family="Helvetica,sans-Serif" font-size="10.00">/github/workspace/benchmark</text>
<text text-anchor="middle" x="413.62" y="-348.5" font-family="Helvetica,sans-Serif" font-size="10.00">/predict_1x1x1.cpp</text>
</a>
</g>
</g>
<!-- Node2 -->
<g id="Node000002" class="node">
<title>Node2</title>
<g id="a_Node000002"><a xlink:href="benchmark_8hpp.xhtml" target="_top" xlink:title="Benchmarking support.">
<polygon fill="white" stroke="#666666" points="132.62,-306.75 50.62,-306.75 50.62,-287.5 132.62,-287.5 132.62,-306.75"/>
<text text-anchor="middle" x="91.62" y="-293.25" font-family="Helvetica,sans-Serif" font-size="10.00">benchmark.hpp</text>
</a>
</g>
</g>
<!-- Node1&#45;&gt;Node2 -->
<g id="edge1_Node000001_Node000002" class="edge">
<title>Node1&#45;&gt;Node2</title>
<g id="a_edge1_Node000001_Node000002"><a xlink:title=" ">
<path fill="none" stroke="#63b8ff" d="M340.16,-343.57C280.32,-332.63 197.32,-317.45 144.03,-307.71"/>
<polygon fill="#63b8ff" stroke="#63b8ff" points="144.76,-304.28 134.3,-305.93 143.5,-311.17 144.76,-304.28"/>
</a>
</g>
</g>
<!-- Node3 -->
<g id="Node000003" class="node">
<title>Node3</title>
<g id="a_Node000003"><a xlink:title=" ">
<polygon fill="#e0e0e0" stroke="#999999" points="45.25,-251.5 0,-251.5 0,-232.25 45.25,-232.25 45.25,-251.5"/>
<text text-anchor="middle" x="22.62" y="-238" font-family="Helvetica,sans-Serif" font-size="10.00">chrono</text>
</a>
</g>
</g>
<!-- Node1&#45;&gt;Node3 -->
<g id="edge60_Node000001_Node000003" class="edge">
<title>Node1&#45;&gt;Node3</title>
<g id="a_edge60_Node000001_Node000003"><a xlink:title=" ">
<path fill="none" stroke="#63b8ff" d="M340.11,-356.27C244.68,-353.81 85.19,-344.04 41.62,-306.75 29.12,-296.04 24.64,-277.5 23.14,-263.14"/>
<polygon fill="#63b8ff" stroke="#63b8ff" points="26.65,-263.18 22.54,-253.42 19.66,-263.61 26.65,-263.18"/>
</a>
</g>
</g>
<!-- Node5 -->
<g id="Node000005" class="node">
<title>Node5</title>
<g id="a_Node000005"><a xlink:href="kalman_8hpp.xhtml" target="_top" xlink:title="The Kalman filter class and library top&#45;level header.">
<polygon fill="white" stroke="#666666" points="400.62,-306.75 294.62,-306.75 294.62,-287.5 400.62,-287.5 400.62,-306.75"/>
<text text-anchor="middle" x="347.62" y="-293.25" font-family="Helvetica,sans-Serif" font-size="10.00">fcarouge/kalman.hpp</text>
</a>
</g>
</g>
<!-- Node1&#45;&gt;Node5 -->
<g id="edge4_Node000001_Node000005" class="edge">
<title>Node1&#45;&gt;Node5</title>
<g id="a_edge4_Node000001_Node000005"><a xlink:title=" ">
<path fill="none" stroke="#63b8ff" d="M397.31,-342.45C387.94,-334.09 376.13,-323.55 366.37,-314.85"/>
<polygon fill="#63b8ff" stroke="#63b8ff" points="368.72,-312.25 358.93,-308.21 364.06,-317.48 368.72,-312.25"/>
</a>
</g>
</g>
<!-- Node32 -->
<g id="Node000032" class="node">
<title>Node32</title>
<g id="a_Node000032"><a xlink:title=" ">
<polygon fill="#e0e0e0" stroke="#999999" points="540.88,-306.75 418.38,-306.75 418.38,-287.5 540.88,-287.5 540.88,-306.75"/>
<text text-anchor="middle" x="479.62" y="-293.25" font-family="Helvetica,sans-Serif" font-size="10.00">benchmark/benchmark.h</text>
</a>
</g>
</g>
<!-- Node1&#45;&gt;Node32 -->
<g id="edge58_Node000001_Node000032" class="edge">
<title>Node1&#45;&gt;Node32</title>
<g id="a_edge58_Node000001_Node000032"><a xlink:title=" ">
<path fill="none" stroke="#63b8ff" d="M429.94,-342.45C439.31,-334.09 451.12,-323.55 460.88,-314.85"/>
<polygon fill="#63b8ff" stroke="#63b8ff" points="463.19,-317.48 468.32,-308.21 458.53,-312.25 463.19,-317.48"/>
</a>
</g>
</g>
<!-- Node33 -->
<g id="Node000033" class="node">
<title>Node33</title>
<g id="a_Node000033"><a xlink:title=" ">
<polygon fill="#e0e0e0" stroke="#999999" points="614.5,-306.75 558.75,-306.75 558.75,-287.5 614.5,-287.5 614.5,-306.75"/>
<text text-anchor="middle" x="586.62" y="-293.25" font-family="Helvetica,sans-Serif" font-size="10.00">algorithm</text>
</a>
</g>
</g>
<!-- Node1&#45;&gt;Node33 -->
<g id="edge59_Node000001_Node000033" class="edge">
<title>Node1&#45;&gt;Node33</title>
<g id="a_edge59_Node000001_Node000033"><a xlink:title=" ">
<path fill="none" stroke="#63b8ff" d="M456.83,-342.3C485.25,-332.63 522.05,-320.1 549.21,-310.86"/>
<polygon fill="#63b8ff" stroke="#63b8ff" points="550.07,-314.26 558.41,-307.73 547.81,-307.64 550.07,-314.26"/>
</a>
</g>
</g>
<!-- Node34 -->
<g id="Node000034" class="node">
<title>Node34</title>
<g id="a_Node000034"><a xlink:title=" ">
<polygon fill="#e0e0e0" stroke="#999999" points="680.75,-306.75 632.5,-306.75 632.5,-287.5 680.75,-287.5 680.75,-306.75"/>
<text text-anchor="middle" x="656.62" y="-293.25" font-family="Helvetica,sans-Serif" font-size="10.00">random</text>
</a>
</g>
</g>
<!-- Node1&#45;&gt;Node34 -->
<g id="edge61_Node000001_Node000034" class="edge">
<title>Node1&#45;&gt;Node34</title>
<g id="a_edge61_Node000001_Node000034"><a xlink:title=" ">
<path fill="none" stroke="#63b8ff" d="M476.65,-342.28C515.71,-333.07 567.2,-320.79 620.98,-307.38"/>
<polygon fill="#63b8ff" stroke="#63b8ff" points="621.81,-310.78 630.66,-304.95 620.11,-303.99 621.81,-310.78"/>
</a>
</g>
</g>
<!-- Node2&#45;&gt;Node3 -->
<g id="edge2_Node000002_Node000003" class="edge">
<title>Node2&#45;&gt;Node3</title>
<g id="a_edge2_Node000002_Node000003"><a xlink:title=" ">
<path fill="none" stroke="#63b8ff" d="M79.92,-287.09C69.85,-279.32 55.08,-267.92 43.06,-258.65"/>
<polygon fill="#63b8ff" stroke="#63b8ff" points="45.41,-256.04 35.36,-252.7 41.13,-261.58 45.41,-256.04"/>
</a>
</g>
</g>
<!-- Node4 -->
<g id="Node000004" class="node">
<title>Node4</title>
<g id="a_Node000004"><a xlink:title=" ">
<polygon fill="#e0e0e0" stroke="#999999" points="213.12,-19.25 152.12,-19.25 152.12,0 213.12,0 213.12,-19.25"/>
<text text-anchor="middle" x="182.62" y="-5.75" font-family="Helvetica,sans-Serif" font-size="10.00">type_traits</text>
</a>
</g>
</g>
<!-- Node2&#45;&gt;Node4 -->
<g id="edge3_Node000002_Node000004" class="edge">
<title>Node2&#45;&gt;Node4</title>
<g id="a_edge3_Node000002_Node000004"><a xlink:title=" ">
<path fill="none" stroke="#63b8ff" d="M89.2,-287.03C84.28,-267.8 73.62,-221.51 73.62,-182 73.62,-182 73.62,-182 73.62,-119.12 73.62,-74.55 119.97,-41.97 152.22,-24.7"/>
<polygon fill="#63b8ff" stroke="#63b8ff" points="153.47,-28 160.78,-20.32 150.28,-21.76 153.47,-28"/>
</a>
</g>
</g>
<!-- Node6 -->
<g id="Node000006" class="node">
<title>Node6</title>
<g id="a_Node000006"><a xlink:href="kalman__forward_8hpp.xhtml" target="_top" xlink:title="Authoritative forward declaration header.">
<polygon fill="white" stroke="#666666" points="584.12,-251.5 481.12,-251.5 481.12,-232.25 584.12,-232.25 584.12,-251.5"/>
<text text-anchor="middle" x="532.62" y="-238" font-family="Helvetica,sans-Serif" font-size="10.00">kalman_forward.hpp</text>
</a>
</g>
</g>
<!-- Node5&#45;&gt;Node6 -->
<g id="edge5_Node000005_Node000006" class="edge">
<title>Node5&#45;&gt;Node6</title>
<g id="a_edge5_Node000005_Node000006"><a xlink:title=" ">
<path fill="none" stroke="#63b8ff" d="M379.01,-287.09C409.57,-278.29 456.25,-264.86 490.13,-255.11"/>
<polygon fill="#63b8ff" stroke="#63b8ff" points="490.99,-258.5 499.63,-252.37 489.06,-251.77 490.99,-258.5"/>
</a>
</g>
</g>
<!-- Node7 -->
<g id="Node000007" class="node">
<title>Node7</title>
<g id="a_Node000007"><a xlink:href="factory_8hpp.xhtml" target="_top" xlink:title=" ">
<polygon fill="white" stroke="#666666" points="736.88,-251.5 602.38,-251.5 602.38,-232.25 736.88,-232.25 736.88,-251.5"/>
<text text-anchor="middle" x="669.62" y="-238" font-family="Helvetica,sans-Serif" font-size="10.00">kalman_internal/factory.hpp</text>
</a>
</g>
</g>
<!-- Node5&#45;&gt;Node7 -->
<g id="edge6_Node000005_Node000007" class="edge">
<title>Node5&#45;&gt;Node7</title>
<g id="a_edge6_Node000005_Node000007"><a xlink:title=" ">
<path fill="none" stroke="#63b8ff" d="M400.8,-287.33C456.26,-278.16 543.32,-263.76 603.25,-253.85"/>
<polygon fill="#63b8ff" stroke="#63b8ff" points="603.7,-257.33 612.99,-252.24 602.56,-250.42 603.7,-257.33"/>
</a>
</g>
</g>
<!-- Node9 -->
<g id="Node000009" class="node">
<title>Node9</title>
<g id="a_Node000009"><a xlink:href="utility_8hpp.xhtml" target="_top" xlink:title="The collection of utilities supporting the library.">
<polygon fill="white" stroke="#666666" points="748.12,-129.75 651.12,-129.75 651.12,-110.5 748.12,-110.5 748.12,-129.75"/>
<text text-anchor="middle" x="699.62" y="-116.25" font-family="Helvetica,sans-Serif" font-size="10.00">fcarouge/utility.hpp</text>
</a>
</g>
</g>
<!-- Node5&#45;&gt;Node9 -->
<g id="edge56_Node000005_Node000009" class="edge">
<title>Node5&#45;&gt;Node9</title>
<g id="a_edge56_Node000005_Node000009"><a xlink:title=" ">
<path fill="none" stroke="#63b8ff" d="M339.95,-287.29C333.1,-278.78 323.57,-265.21 319.62,-251.5 312.47,-226.64 319.24,-175.84 329.62,-165.75 351.42,-144.58 540.38,-130.46 639.5,-124.43"/>
<polygon fill="#63b8ff" stroke="#63b8ff" points="639.55,-127.93 649.32,-123.84 639.13,-120.95 639.55,-127.93"/>
</a>
</g>
</g>
<!-- Node27 -->
<g id="Node000027" class="node">
<title>Node27</title>
<g id="a_Node000027"><a xlink:href="format_8hpp.xhtml" target="_top" xlink:title="Formatting support for the Kalman filter.">
<polygon fill="white" stroke="#666666" points="1493.12,-190.62 1360.12,-190.62 1360.12,-171.38 1493.12,-171.38 1493.12,-190.62"/>
<text text-anchor="middle" x="1426.62" y="-177.12" font-family="Helvetica,sans-Serif" font-size="10.00">kalman_internal/format.hpp</text>
</a>
</g>
</g>
<!-- Node5&#45;&gt;Node27 -->
<g id="edge49_Node000005_Node000027" class="edge">
<title>Node5&#45;&gt;Node27</title>
<g id="a_edge49_Node000005_Node000027"><a xlink:title=" ">
<path fill="none" stroke="#63b8ff" d="M401.04,-288.55C403.94,-288.18 406.82,-287.83 409.62,-287.5 826.91,-238.26 934.61,-255.3 1350.62,-196.25 1357.1,-195.33 1363.85,-194.25 1370.56,-193.09"/>
<polygon fill="#63b8ff" stroke="#63b8ff" points="1371,-196.57 1380.23,-191.37 1369.78,-189.68 1371,-196.57"/>
</a>
</g>
</g>
<!-- Node29 -->
<g id="Node000029" class="node">
<title>Node29</title>
<g id="a_Node000029"><a xlink:href="printer_8hpp.xhtml" target="_top" xlink:title="Filter decoration support for printing operations.">
<polygon fill="white" stroke="#666666" points="248.75,-251.5 116.5,-251.5 116.5,-232.25 248.75,-232.25 248.75,-251.5"/>
<text text-anchor="middle" x="182.62" y="-238" font-family="Helvetica,sans-Serif" font-size="10.00">kalman_internal/printer.hpp</text>
</a>
</g>
</g>
<!-- Node5&#45;&gt;Node29 -->
<g id="edge54_Node000005_Node000029" class="edge">
<title>Node5&#45;&gt;Node29</title>
<g id="a_edge54_Node000005_Node000029"><a xlink:title=" ">
<path fill="none" stroke="#63b8ff" d="M319.63,-287.09C292.61,-278.37 251.47,-265.09 221.32,-255.36"/>
<polygon fill="#63b8ff" stroke="#63b8ff" points="222.78,-252.16 212.19,-252.42 220.63,-258.82 222.78,-252.16"/>
</a>
</g>
</g>
<!-- Node31 -->
<g id="Node000031" class="node">
<title>Node31</title>
<g id="a_Node000031"><a xlink:title=" ">
<polygon fill="#e0e0e0" stroke="#999999" points="462.88,-251.5 328.38,-251.5 328.38,-232.25 462.88,-232.25 462.88,-251.5"/>
<text text-anchor="middle" x="395.62" y="-238" font-family="Helvetica,sans-Serif" font-size="10.00">kalman_internal/kalman.tpp</text>
</a>
</g>
</g>
<!-- Node5&#45;&gt;Node31 -->
<g id="edge57_Node000005_Node000031" class="edge">
<title>Node5&#45;&gt;Node31</title>
<g id="a_edge57_Node000005_Node000031"><a xlink:title=" ">
<path fill="none" stroke="#63b8ff" d="M355.55,-287.33C362.18,-279.98 371.84,-269.26 380.01,-260.19"/>
<polygon fill="#63b8ff" stroke="#63b8ff" points="382.42,-262.75 386.51,-252.98 377.22,-258.07 382.42,-262.75"/>
</a>
</g>
</g>
<!-- Node7&#45;&gt;Node4 -->
<g id="edge48_Node000007_Node000004" class="edge">
<title>Node7&#45;&gt;Node4</title>
<g id="a_edge48_Node000007_Node000004"><a xlink:title=" ">
<path fill="none" stroke="#63b8ff" d="M602.09,-233.13C599.23,-232.83 596.4,-232.53 593.62,-232.25 550.11,-227.78 232.71,-227.02 201.62,-196.25 157.15,-152.23 168.97,-68.96 177.46,-30.73"/>
<polygon fill="#63b8ff" stroke="#63b8ff" points="180.84,-31.63 179.77,-21.09 174.04,-29.99 180.84,-31.63"/>
</a>
</g>
</g>
<!-- Node8 -->
<g id="Node000008" class="node">
<title>Node8</title>
<g id="a_Node000008"><a xlink:href="type_8hpp.xhtml" target="_top" xlink:title=" ">
<polygon fill="white" stroke="#666666" points="281.62,-190.62 229.62,-190.62 229.62,-171.38 281.62,-171.38 281.62,-190.62"/>
<text text-anchor="middle" x="255.62" y="-177.12" font-family="Helvetica,sans-Serif" font-size="10.00">type.hpp</text>
</a>
</g>
</g>
<!-- Node7&#45;&gt;Node8 -->
<g id="edge7_Node000007_Node000008" class="edge">
<title>Node7&#45;&gt;Node8</title>
<g id="a_edge7_Node000007_Node000008"><a xlink:title=" ">
<path fill="none" stroke="#63b8ff" d="M602.04,-233.21C533.3,-225.13 423.8,-211.48 329.62,-196.25 317.71,-194.32 304.77,-191.93 293.1,-189.67"/>
<polygon fill="#63b8ff" stroke="#63b8ff" points="293.9,-186.26 283.41,-187.75 292.55,-193.13 293.9,-186.26"/>
</a>
</g>
</g>
<!-- Node11 -->
<g id="Node000011" class="node">
<title>Node11</title>
<g id="a_Node000011"><a xlink:title=" ">
<polygon fill="#e0e0e0" stroke="#999999" points="445.5,-19.25 389.75,-19.25 389.75,0 445.5,0 445.5,-19.25"/>
<text text-anchor="middle" x="417.62" y="-5.75" font-family="Helvetica,sans-Serif" font-size="10.00">concepts</text>
</a>
</g>
</g>
<!-- Node7&#45;&gt;Node11 -->
<g id="edge47_Node000007_Node000011" class="edge">
<title>Node7&#45;&gt;Node11</title>
<g id="a_edge47_Node000007_Node000011"><a xlink:title=" ">
<path fill="none" stroke="#63b8ff" d="M602.09,-233.15C599.23,-232.84 596.4,-232.54 593.62,-232.25 552.22,-227.9 248.62,-227.07 220.62,-196.25 157.82,-127.09 311.35,-53.41 383.1,-23.93"/>
<polygon fill="#63b8ff" stroke="#63b8ff" points="384.1,-27.3 392.06,-20.31 381.48,-20.81 384.1,-27.3"/>
</a>
</g>
</g>
<!-- Node16 -->
<g id="Node000016" class="node">
<title>Node16</title>
<g id="a_Node000016"><a xlink:href="x__z__p__q__r_8hpp.xhtml" target="_top" xlink:title=" ">
<polygon fill="white" stroke="#666666" points="593.38,-190.62 515.88,-190.62 515.88,-171.38 593.38,-171.38 593.38,-190.62"/>
<text text-anchor="middle" x="554.62" y="-177.12" font-family="Helvetica,sans-Serif" font-size="10.00">x_z_p_q_r.hpp</text>
</a>
</g>
</g>
<!-- Node7&#45;&gt;Node16 -->
<g id="edge18_Node000007_Node000016" class="edge">
<title>Node7&#45;&gt;Node16</title>
<g id="a_edge18_Node000007_Node000016"><a xlink:title=" ">
<path fill="none" stroke="#63b8ff" d="M652.16,-231.93C633.58,-222.42 603.94,-207.25 582.21,-196.12"/>
<polygon fill="#63b8ff" stroke="#63b8ff" points="584.1,-193.16 573.6,-191.72 580.91,-199.39 584.1,-193.16"/>
</a>
</g>
</g>
<!-- Node17 -->
<g id="Node000017" class="node">
<title>Node17</title>
<g id="a_Node000017"><a xlink:href="x__z__p__q__r__h__f_8hpp.xhtml" target="_top" xlink:title=" ">
<polygon fill="white" stroke="#666666" points="707.75,-190.62 611.5,-190.62 611.5,-171.38 707.75,-171.38 707.75,-190.62"/>
<text text-anchor="middle" x="659.62" y="-177.12" font-family="Helvetica,sans-Serif" font-size="10.00">x_z_p_q_r_h_f.hpp</text>
</a>
</g>
</g>
<!-- Node7&#45;&gt;Node17 -->
<g id="edge20_Node000007_Node000017" class="edge">
<title>Node7&#45;&gt;Node17</title>
<g id="a_edge20_Node000007_Node000017"><a xlink:title=" ">
<path fill="none" stroke="#63b8ff" d="M668.11,-231.93C666.77,-224.07 664.78,-212.32 663.06,-202.2"/>
<polygon fill="#63b8ff" stroke="#63b8ff" points="666.54,-201.79 661.41,-192.52 659.64,-202.96 666.54,-201.79"/>
</a>
</g>
</g>
<!-- Node18 -->
<g id="Node000018" class="node">
<title>Node18</title>
<g id="a_Node000018"><a xlink:href="x__z__p__q__r__hh__us__ps_8hpp.xhtml" target="_top" xlink:title=" ">
<polygon fill="white" stroke="#666666" points="1342,-190.62 1217.25,-190.62 1217.25,-171.38 1342,-171.38 1342,-190.62"/>
<text text-anchor="middle" x="1279.62" y="-177.12" font-family="Helvetica,sans-Serif" font-size="10.00">x_z_p_q_r_hh_us_ps.hpp</text>
</a>
</g>
</g>
<!-- Node7&#45;&gt;Node18 -->
<g id="edge22_Node000007_Node000018" class="edge">
<title>Node7&#45;&gt;Node18</title>
<g id="a_edge22_Node000007_Node000018"><a xlink:title=" ">
<path fill="none" stroke="#63b8ff" d="M737.13,-237.79C839.48,-232.56 1039.88,-220.09 1208.62,-196.25 1214.69,-195.39 1221.03,-194.35 1227.3,-193.21"/>
<polygon fill="#63b8ff" stroke="#63b8ff" points="1227.8,-196.68 1236.98,-191.38 1226.5,-189.8 1227.8,-196.68"/>
</a>
</g>
</g>
<!-- Node21 -->
<g id="Node000021" class="node">
<title>Node21</title>
<g id="a_Node000021"><a xlink:href="x__z__p__qq__rr__f_8hpp.xhtml" target="_top" xlink:title=" ">
<polygon fill="white" stroke="#666666" points="1065.62,-190.62 971.62,-190.62 971.62,-171.38 1065.62,-171.38 1065.62,-190.62"/>
<text text-anchor="middle" x="1018.62" y="-177.12" font-family="Helvetica,sans-Serif" font-size="10.00">x_z_p_qq_rr_f.hpp</text>
</a>
</g>
</g>
<!-- Node7&#45;&gt;Node21 -->
<g id="edge27_Node000007_Node000021" class="edge">
<title>Node7&#45;&gt;Node21</title>
<g id="a_edge27_Node000007_Node000021"><a xlink:title=" ">
<path fill="none" stroke="#63b8ff" d="M737.16,-232.5C796.76,-224.66 885.85,-211.83 962.62,-196.25 966.43,-195.48 970.36,-194.62 974.29,-193.7"/>
<polygon fill="#63b8ff" stroke="#63b8ff" points="974.91,-197.16 983.82,-191.41 973.27,-190.35 974.91,-197.16"/>
</a>
</g>
</g>
<!-- Node22 -->
<g id="Node000022" class="node">
<title>Node22</title>
<g id="a_Node000022"><a xlink:href="x__z__p__r_8hpp.xhtml" target="_top" xlink:title=" ">
<polygon fill="white" stroke="#666666" points="405.12,-190.62 338.12,-190.62 338.12,-171.38 405.12,-171.38 405.12,-190.62"/>
<text text-anchor="middle" x="371.62" y="-177.12" font-family="Helvetica,sans-Serif" font-size="10.00">x_z_p_r.hpp</text>
</a>
</g>
</g>
<!-- Node7&#45;&gt;Node22 -->
<g id="edge31_Node000007_Node000022" class="edge">
<title>Node7&#45;&gt;Node22</title>
<g id="a_edge31_Node000007_Node000022"><a xlink:title=" ">
<path fill="none" stroke="#63b8ff" d="M601.92,-231.99C549.96,-224.47 476.68,-212.34 413.62,-196.25 411.5,-195.71 409.33,-195.11 407.14,-194.47"/>
<polygon fill="#63b8ff" stroke="#63b8ff" points="408.34,-191.18 397.75,-191.53 406.25,-197.86 408.34,-191.18"/>
</a>
</g>
</g>
<!-- Node23 -->
<g id="Node000023" class="node">
<title>Node23</title>
<g id="a_Node000023"><a xlink:href="x__z__p__r__f_8hpp.xhtml" target="_top" xlink:title=" ">
<polygon fill="white" stroke="#666666" points="498.25,-190.62 423,-190.62 423,-171.38 498.25,-171.38 498.25,-190.62"/>
<text text-anchor="middle" x="460.62" y="-177.12" font-family="Helvetica,sans-Serif" font-size="10.00">x_z_p_r_f.hpp</text>
</a>
</g>
</g>
<!-- Node7&#45;&gt;Node23 -->
<g id="edge33_Node000007_Node000023" class="edge">
<title>Node7&#45;&gt;Node23</title>
<g id="a_edge33_Node000007_Node000023"><a xlink:title=" ">
<path fill="none" stroke="#63b8ff" d="M635.19,-231.8C602.13,-223.01 550.85,-209.15 506.62,-196.25 504.52,-195.64 502.36,-195 500.18,-194.35"/>
<polygon fill="#63b8ff" stroke="#63b8ff" points="501.32,-191.04 490.74,-191.48 499.29,-197.73 501.32,-191.04"/>
</a>
</g>
</g>
<!-- Node24 -->
<g id="Node000024" class="node">
<title>Node24</title>
<g id="a_Node000024"><a xlink:href="x__z__u__p__q__r_8hpp.xhtml" target="_top" xlink:title=" ">
<polygon fill="white" stroke="#666666" points="813.62,-190.62 725.62,-190.62 725.62,-171.38 813.62,-171.38 813.62,-190.62"/>
<text text-anchor="middle" x="769.62" y="-177.12" font-family="Helvetica,sans-Serif" font-size="10.00">x_z_u_p_q_r.hpp</text>
</a>
</g>
</g>
<!-- Node7&#45;&gt;Node24 -->
<g id="edge35_Node000007_Node000024" class="edge">
<title>Node7&#45;&gt;Node24</title>
<g id="a_edge35_Node000007_Node000024"><a xlink:title=" ">
<path fill="none" stroke="#63b8ff" d="M684.81,-231.93C700.67,-222.6 725.81,-207.8 744.6,-196.73"/>
<polygon fill="#63b8ff" stroke="#63b8ff" points="746.15,-199.88 752.99,-191.79 742.6,-193.85 746.15,-199.88"/>
</a>
</g>
</g>
<!-- Node25 -->
<g id="Node000025" class="node">
<title>Node25</title>
<g id="a_Node000025"><a xlink:href="x__z__u__p__q__r__f__g__ps_8hpp.xhtml" target="_top" xlink:title=" ">
<polygon fill="white" stroke="#666666" points="953.88,-190.62 831.38,-190.62 831.38,-171.38 953.88,-171.38 953.88,-190.62"/>
<text text-anchor="middle" x="892.62" y="-177.12" font-family="Helvetica,sans-Serif" font-size="10.00">x_z_u_p_q_r_f_g_ps.hpp</text>
</a>
</g>
</g>
<!-- Node7&#45;&gt;Node25 -->
<g id="edge39_Node000007_Node000025" class="edge">
<title>Node7&#45;&gt;Node25</title>
<g id="a_edge39_Node000007_Node000025"><a xlink:title=" ">
<path fill="none" stroke="#63b8ff" d="M703.98,-231.8C742.37,-221.67 804.68,-205.22 847.1,-194.02"/>
<polygon fill="#63b8ff" stroke="#63b8ff" points="847.99,-197.4 856.77,-191.47 846.21,-190.64 847.99,-197.4"/>
</a>
</g>
</g>
<!-- Node26 -->
<g id="Node000026" class="node">
<title>Node26</title>
<g id="a_Node000026"><a xlink:href="x__z__u__p__q__r__h__f__g__us__ps_8hpp.xhtml" target="_top" xlink:title=" ">
<polygon fill="white" stroke="#666666" points="1199.12,-196.25 1084.12,-196.25 1084.12,-165.75 1199.12,-165.75 1199.12,-196.25"/>
<text text-anchor="start" x="1092.12" y="-182.75" font-family="Helvetica,sans-Serif" font-size="10.00">x_z_u_p_q_r_h_f_g_us</text>
<text text-anchor="middle" x="1141.62" y="-171.5" font-family="Helvetica,sans-Serif" font-size="10.00">_ps.hpp</text>
</a>
</g>
</g>
<!-- Node7&#45;&gt;Node26 -->
<g id="edge43_Node000007_Node000026" class="edge">
<title>Node7&#45;&gt;Node26</title>
<g id="a_edge43_Node000007_Node000026"><a xlink:title=" ">
<path fill="none" stroke="#63b8ff" d="M737.26,-235.5C815.54,-228.82 948.52,-216.03 1072.73,-196.44"/>
<polygon fill="#63b8ff" stroke="#63b8ff" points="1073.13,-199.92 1082.46,-194.89 1072.03,-193.01 1073.13,-199.92"/>
</a>
</g>
</g>
<!-- Node8&#45;&gt;Node4 -->
<g id="edge17_Node000008_Node000004" class="edge">
<title>Node8&#45;&gt;Node4</title>
<g id="a_edge17_Node000008_Node000004"><a xlink:title=" ">
<path fill="none" stroke="#63b8ff" d="M251.7,-170.89C240.21,-144.23 206.46,-65.94 190.79,-29.58"/>
<polygon fill="#63b8ff" stroke="#63b8ff" points="194.16,-28.56 186.99,-20.76 187.74,-31.33 194.16,-28.56"/>
</a>
</g>
</g>
<!-- Node8&#45;&gt;Node9 -->
<g id="edge8_Node000008_Node000009" class="edge">
<title>Node8&#45;&gt;Node9</title>
<g id="a_edge8_Node000008_Node000009"><a xlink:title=" ">
<path fill="none" stroke="#63b8ff" d="M278.2,-170.93C283.82,-168.96 289.88,-167.07 295.62,-165.75 415.74,-138.12 560.01,-127.42 639.56,-123.41"/>
<polygon fill="#63b8ff" stroke="#63b8ff" points="639.49,-126.92 649.31,-122.94 639.15,-119.92 639.49,-126.92"/>
</a>
</g>
</g>
<!-- Node15 -->
<g id="Node000015" class="node">
<title>Node15</title>
<g id="a_Node000015"><a xlink:title=" ">
<polygon fill="#e0e0e0" stroke="#999999" points="339.38,-129.75 267.88,-129.75 267.88,-110.5 339.38,-110.5 339.38,-129.75"/>
<text text-anchor="middle" x="303.62" y="-116.25" font-family="Helvetica,sans-Serif" font-size="10.00">initializer_list</text>
</a>
</g>
</g>
<!-- Node8&#45;&gt;Node15 -->
<g id="edge16_Node000008_Node000015" class="edge">
<title>Node8&#45;&gt;Node15</title>
<g id="a_edge16_Node000008_Node000015"><a xlink:title=" ">
<path fill="none" stroke="#63b8ff" d="M262.92,-171.06C269.82,-162.59 280.4,-149.62 289.04,-139.02"/>
<polygon fill="#63b8ff" stroke="#63b8ff" points="291.7,-141.29 295.31,-131.32 286.28,-136.86 291.7,-141.29"/>
</a>
</g>
</g>
<!-- Node10 -->
<g id="Node000010" class="node">
<title>Node10</title>
<g id="a_Node000010"><a xlink:href="kalman__internal_2utility_8hpp.xhtml" target="_top" xlink:title=" ">
<polygon fill="white" stroke="#666666" points="662.5,-74.5 534.75,-74.5 534.75,-55.25 662.5,-55.25 662.5,-74.5"/>
<text text-anchor="middle" x="598.62" y="-61" font-family="Helvetica,sans-Serif" font-size="10.00">kalman_internal/utility.hpp</text>
</a>
</g>
</g>
<!-- Node9&#45;&gt;Node10 -->
<g id="edge9_Node000009_Node000010" class="edge">
<title>Node9&#45;&gt;Node10</title>
<g id="a_edge9_Node000009_Node000010"><a xlink:title=" ">
<path fill="none" stroke="#63b8ff" d="M682.49,-110.09C666.97,-101.91 643.82,-89.71 625.78,-80.19"/>
<polygon fill="#63b8ff" stroke="#63b8ff" points="627.66,-77.23 617.18,-75.66 624.39,-83.42 627.66,-77.23"/>
</a>
</g>
</g>
<!-- Node12 -->
<g id="Node000012" class="node">
<title>Node12</title>
<g id="a_Node000012"><a xlink:title=" ">
<polygon fill="#e0e0e0" stroke="#999999" points="770.75,-19.25 722.5,-19.25 722.5,0 770.75,0 770.75,-19.25"/>
<text text-anchor="middle" x="746.62" y="-5.75" font-family="Helvetica,sans-Serif" font-size="10.00">cstddef</text>
</a>
</g>
</g>
<!-- Node9&#45;&gt;Node12 -->
<g id="edge14_Node000009_Node000012" class="edge">
<title>Node9&#45;&gt;Node12</title>
<g id="a_edge14_Node000009_Node000012"><a xlink:title=" ">
<path fill="none" stroke="#63b8ff" d="M706.18,-110.3C712.4,-101.58 721.67,-87.67 727.62,-74.5 734.06,-60.28 738.99,-43.31 742.21,-30.44"/>
<polygon fill="#63b8ff" stroke="#63b8ff" points="745.54,-31.58 744.42,-21.05 738.72,-29.98 745.54,-31.58"/>
</a>
</g>
</g>
<!-- Node14 -->
<g id="Node000014" class="node">
<title>Node14</title>
<g id="a_Node000014"><a xlink:title=" ">
<polygon fill="#e0e0e0" stroke="#999999" points="718.88,-74.5 680.38,-74.5 680.38,-55.25 718.88,-55.25 718.88,-74.5"/>
<text text-anchor="middle" x="699.62" y="-61" font-family="Helvetica,sans-Serif" font-size="10.00">utility</text>
</a>
</g>
</g>
<!-- Node9&#45;&gt;Node14 -->
<g id="edge15_Node000009_Node000014" class="edge">
<title>Node9&#45;&gt;Node14</title>
<g id="a_edge15_Node000009_Node000014"><a xlink:title=" ">
<path fill="none" stroke="#63b8ff" d="M699.62,-110.33C699.62,-103.82 699.62,-94.67 699.62,-86.37"/>
<polygon fill="#63b8ff" stroke="#63b8ff" points="703.13,-86.37 699.63,-76.37 696.13,-86.37 703.13,-86.37"/>
</a>
</g>
</g>
<!-- Node10&#45;&gt;Node4 -->
<g id="edge13_Node000010_Node000004" class="edge">
<title>Node10&#45;&gt;Node4</title>
<g id="a_edge13_Node000010_Node000004"><a xlink:title=" ">
<path fill="none" stroke="#63b8ff" d="M534.54,-55.67C448.33,-44.64 297.42,-25.32 224.47,-15.98"/>
<polygon fill="#63b8ff" stroke="#63b8ff" points="225.31,-12.56 214.95,-14.76 224.42,-19.5 225.31,-12.56"/>
</a>
</g>
</g>
<!-- Node10&#45;&gt;Node11 -->
<g id="edge10_Node000010_Node000011" class="edge">
<title>Node10&#45;&gt;Node11</title>
<g id="a_edge10_Node000010_Node000011"><a xlink:title=" ">
<path fill="none" stroke="#63b8ff" d="M567.92,-54.84C537.2,-45.8 489.85,-31.87 456.52,-22.07"/>
<polygon fill="#63b8ff" stroke="#63b8ff" points="457.83,-18.8 447.25,-19.34 455.85,-25.52 457.83,-18.8"/>
</a>
</g>
</g>
<!-- Node10&#45;&gt;Node12 -->
<g id="edge11_Node000010_Node000012" class="edge">
<title>Node10&#45;&gt;Node12</title>
<g id="a_edge11_Node000010_Node000012"><a xlink:title=" ">
<path fill="none" stroke="#63b8ff" d="M623.73,-54.84C647.94,-46.13 684.79,-32.87 711.82,-23.15"/>
<polygon fill="#63b8ff" stroke="#63b8ff" points="712.73,-26.54 720.96,-19.86 710.36,-19.95 712.73,-26.54"/>
</a>
</g>
</g>
<!-- Node13 -->
<g id="Node000013" class="node">
<title>Node13</title>
<g id="a_Node000013"><a xlink:title=" ">
<polygon fill="#e0e0e0" stroke="#999999" points="1049.12,-19.25 1012.12,-19.25 1012.12,0 1049.12,0 1049.12,-19.25"/>
<text text-anchor="middle" x="1030.62" y="-5.75" font-family="Helvetica,sans-Serif" font-size="10.00">tuple</text>
</a>
</g>
</g>
<!-- Node10&#45;&gt;Node13 -->
<g id="edge12_Node000010_Node000013" class="edge">
<title>Node10&#45;&gt;Node13</title>
<g id="a_edge12_Node000010_Node000013"><a xlink:title=" ">
<path fill="none" stroke="#63b8ff" d="M662.83,-55.96C757.51,-44.29 930.87,-22.92 1000.5,-14.34"/>
<polygon fill="#63b8ff" stroke="#63b8ff" points="1000.88,-17.82 1010.38,-13.12 1000.02,-10.87 1000.88,-17.82"/>
</a>
</g>
</g>
<!-- Node16&#45;&gt;Node9 -->
<g id="edge19_Node000016_Node000009" class="edge">
<title>Node16&#45;&gt;Node9</title>
<g id="a_edge19_Node000016_Node000009"><a xlink:title=" ">
<path fill="none" stroke="#63b8ff" d="M576.96,-170.93C600.98,-161.18 639.41,-145.58 666.85,-134.43"/>
<polygon fill="#63b8ff" stroke="#63b8ff" points="668.15,-137.68 676.1,-130.68 665.51,-131.2 668.15,-137.68"/>
</a>
</g>
</g>
<!-- Node17&#45;&gt;Node9 -->
<g id="edge21_Node000017_Node000009" class="edge">
<title>Node17&#45;&gt;Node9</title>
<g id="a_edge21_Node000017_Node000009"><a xlink:title=" ">
<path fill="none" stroke="#63b8ff" d="M665.7,-171.06C671.34,-162.76 679.91,-150.14 687.02,-139.67"/>
<polygon fill="#63b8ff" stroke="#63b8ff" points="689.92,-141.64 692.64,-131.4 684.13,-137.71 689.92,-141.64"/>
</a>
</g>
</g>
<!-- Node18&#45;&gt;Node9 -->
<g id="edge23_Node000018_Node000009" class="edge">
<title>Node18&#45;&gt;Node9</title>
<g id="a_edge23_Node000018_Node000009"><a xlink:title=" ">
<path fill="none" stroke="#63b8ff" d="M1238.46,-170.94C1228.71,-169.01 1218.33,-167.15 1208.62,-165.75 1047.42,-142.58 855.65,-129.69 760.06,-124.25"/>
<polygon fill="#63b8ff" stroke="#63b8ff" points="760.3,-120.76 750.12,-123.7 759.91,-127.75 760.3,-120.76"/>
</a>
</g>
</g>
<!-- Node18&#45;&gt;Node13 -->
<g id="edge26_Node000018_Node000013" class="edge">
<title>Node18&#45;&gt;Node13</title>
<g id="a_edge26_Node000018_Node000013"><a xlink:title=" ">
<path fill="none" stroke="#63b8ff" d="M1266.24,-170.89C1225.7,-143.32 1103.94,-60.49 1053.2,-25.98"/>
<polygon fill="#63b8ff" stroke="#63b8ff" points="1055.26,-23.15 1045.03,-20.42 1051.33,-28.94 1055.26,-23.15"/>
</a>
</g>
</g>
<!-- Node19 -->
<g id="Node000019" class="node">
<title>Node19</title>
<g id="a_Node000019"><a xlink:href="function_8hpp.xhtml" target="_top" xlink:title=" ">
<polygon fill="white" stroke="#666666" points="1002.88,-129.75 934.38,-129.75 934.38,-110.5 1002.88,-110.5 1002.88,-129.75"/>
<text text-anchor="middle" x="968.62" y="-116.25" font-family="Helvetica,sans-Serif" font-size="10.00">function.hpp</text>
</a>
</g>
</g>
<!-- Node18&#45;&gt;Node19 -->
<g id="edge24_Node000018_Node000019" class="edge">
<title>Node18&#45;&gt;Node19</title>
<g id="a_edge24_Node000018_Node000019"><a xlink:title=" ">
<path fill="none" stroke="#63b8ff" d="M1234.95,-170.93C1226.23,-169.19 1217.14,-167.4 1208.62,-165.75 1141.16,-152.71 1062.89,-138.29 1014.55,-129.46"/>
<polygon fill="#63b8ff" stroke="#63b8ff" points="1015.19,-126.02 1004.72,-127.67 1013.93,-132.91 1015.19,-126.02"/>
</a>
</g>
</g>
<!-- Node20 -->
<g id="Node000020" class="node">
<title>Node20</title>
<g id="a_Node000020"><a xlink:title=" ">
<polygon fill="#e0e0e0" stroke="#999999" points="993.88,-74.5 943.38,-74.5 943.38,-55.25 993.88,-55.25 993.88,-74.5"/>
<text text-anchor="middle" x="968.62" y="-61" font-family="Helvetica,sans-Serif" font-size="10.00">memory</text>
</a>
</g>
</g>
<!-- Node19&#45;&gt;Node20 -->
<g id="edge25_Node000019_Node000020" class="edge">
<title>Node19&#45;&gt;Node20</title>
<g id="a_edge25_Node000019_Node000020"><a xlink:title=" ">
<path fill="none" stroke="#63b8ff" d="M968.62,-110.33C968.62,-103.82 968.62,-94.67 968.62,-86.37"/>
<polygon fill="#63b8ff" stroke="#63b8ff" points="972.13,-86.37 968.63,-76.37 965.13,-86.37 972.13,-86.37"/>
</a>
</g>
</g>
<!-- Node21&#45;&gt;Node9 -->
<g id="edge28_Node000021_Node000009" class="edge">
<title>Node21&#45;&gt;Node9</title>
<g id="a_edge28_Node000021_Node000009"><a xlink:title=" ">
<path fill="none" stroke="#63b8ff" d="M984.67,-170.89C977.42,-169.08 969.79,-167.27 962.62,-165.75 893.4,-151.09 813.12,-138.04 759.65,-129.89"/>
<polygon fill="#63b8ff" stroke="#63b8ff" points="760.23,-126.44 749.82,-128.4 759.18,-133.36 760.23,-126.44"/>
</a>
</g>
</g>
<!-- Node21&#45;&gt;Node13 -->
<g id="edge30_Node000021_Node000013" class="edge">
<title>Node21&#45;&gt;Node13</title>
<g id="a_edge30_Node000021_Node000013"><a xlink:title=" ">
<path fill="none" stroke="#63b8ff" d="M1019.27,-170.89C1021.14,-144.46 1026.61,-67.29 1029.21,-30.53"/>
<polygon fill="#63b8ff" stroke="#63b8ff" points="1032.68,-31.1 1029.9,-20.88 1025.7,-30.6 1032.68,-31.1"/>
</a>
</g>
</g>
<!-- Node21&#45;&gt;Node19 -->
<g id="edge29_Node000021_Node000019" class="edge">
<title>Node21&#45;&gt;Node19</title>
<g id="a_edge29_Node000021_Node000019"><a xlink:title=" ">
<path fill="none" stroke="#63b8ff" d="M1011.03,-171.06C1003.76,-162.5 992.6,-149.35 983.55,-138.7"/>
<polygon fill="#63b8ff" stroke="#63b8ff" points="986.41,-136.66 977.27,-131.3 981.08,-141.19 986.41,-136.66"/>
</a>
</g>
</g>
<!-- Node22&#45;&gt;Node9 -->
<g id="edge32_Node000022_Node000009" class="edge">
<title>Node22&#45;&gt;Node9</title>
<g id="a_edge32_Node000022_Node000009"><a xlink:title=" ">
<path fill="none" stroke="#63b8ff" d="M395.84,-170.99C401.62,-169.07 407.79,-167.18 413.62,-165.75 490.6,-146.84 581.3,-134.29 639.58,-127.44"/>
<polygon fill="#63b8ff" stroke="#63b8ff" points="639.76,-130.95 649.29,-126.32 638.96,-123.99 639.76,-130.95"/>
</a>
</g>
</g>
<!-- Node23&#45;&gt;Node9 -->
<g id="edge34_Node000023_Node000009" class="edge">
<title>Node23&#45;&gt;Node9</title>
<g id="a_edge34_Node000023_Node000009"><a xlink:title=" ">
<path fill="none" stroke="#63b8ff" d="M488.75,-170.93C494.63,-169.13 500.81,-167.32 506.62,-165.75 553.01,-153.22 606.25,-141.08 645.04,-132.63"/>
<polygon fill="#63b8ff" stroke="#63b8ff" points="645.58,-136.09 654.61,-130.56 644.1,-129.25 645.58,-136.09"/>
</a>
</g>
</g>
<!-- Node24&#45;&gt;Node9 -->
<g id="edge36_Node000024_Node000009" class="edge">
<title>Node24&#45;&gt;Node9</title>
<g id="a_edge36_Node000024_Node000009"><a xlink:title=" ">
<path fill="none" stroke="#63b8ff" d="M758.99,-171.06C748.41,-162.15 731.91,-148.28 719,-137.42"/>
<polygon fill="#63b8ff" stroke="#63b8ff" points="721.42,-134.88 711.51,-131.13 716.92,-140.24 721.42,-134.88"/>
</a>
</g>
</g>
<!-- Node24&#45;&gt;Node13 -->
<g id="edge38_Node000024_Node000013" class="edge">
<title>Node24&#45;&gt;Node13</title>
<g id="a_edge38_Node000024_Node000013"><a xlink:title=" ">
<path fill="none" stroke="#63b8ff" d="M778.18,-171C799.73,-148.74 858.76,-90.39 917.62,-55.25 944.24,-39.36 977.53,-27.01 1001.07,-19.37"/>
<polygon fill="#63b8ff" stroke="#63b8ff" points="1001.84,-22.8 1010.32,-16.46 999.73,-16.12 1001.84,-22.8"/>
</a>
</g>
</g>
<!-- Node24&#45;&gt;Node19 -->
<g id="edge37_Node000024_Node000019" class="edge">
<title>Node24&#45;&gt;Node19</title>
<g id="a_edge37_Node000024_Node000019"><a xlink:title=" ">
<path fill="none" stroke="#63b8ff" d="M800.28,-170.93C834.32,-160.86 889.43,-144.55 927.27,-133.36"/>
<polygon fill="#63b8ff" stroke="#63b8ff" points="927.88,-136.83 936.48,-130.63 925.9,-130.12 927.88,-136.83"/>
</a>
</g>
</g>
<!-- Node25&#45;&gt;Node9 -->
<g id="edge40_Node000025_Node000009" class="edge">
<title>Node25&#45;&gt;Node9</title>
<g id="a_edge40_Node000025_Node000009"><a xlink:title=" ">
<path fill="none" stroke="#63b8ff" d="M862.89,-170.93C830.02,-160.9 776.89,-144.69 740.21,-133.5"/>
<polygon fill="#63b8ff" stroke="#63b8ff" points="741.43,-130.22 730.84,-130.65 739.38,-136.91 741.43,-130.22"/>
</a>
</g>
</g>
<!-- Node25&#45;&gt;Node13 -->
<g id="edge42_Node000025_Node000013" class="edge">
<title>Node25&#45;&gt;Node13</title>
<g id="a_edge42_Node000025_Node000013"><a xlink:title=" ">
<path fill="none" stroke="#63b8ff" d="M893.27,-170.95C895.32,-148.58 903.53,-89.98 934.62,-55.25 952,-35.84 979.57,-24.24 1000.71,-17.76"/>
<polygon fill="#63b8ff" stroke="#63b8ff" points="1001.56,-21.16 1010.24,-15.07 999.66,-14.42 1001.56,-21.16"/>
</a>
</g>
</g>
<!-- Node25&#45;&gt;Node19 -->
<g id="edge41_Node000025_Node000019" class="edge">
<title>Node25&#45;&gt;Node19</title>
<g id="a_edge41_Node000025_Node000019"><a xlink:title=" ">
<path fill="none" stroke="#63b8ff" d="M904.17,-171.06C915.77,-162.07 933.92,-148.01 948,-137.1"/>
<polygon fill="#63b8ff" stroke="#63b8ff" points="950.02,-139.97 955.78,-131.08 945.73,-134.44 950.02,-139.97"/>
</a>
</g>
</g>
<!-- Node26&#45;&gt;Node9 -->
<g id="edge44_Node000026_Node000009" class="edge">
<title>Node26&#45;&gt;Node9</title>
<g id="a_edge44_Node000026_Node000009"><a xlink:title=" ">
<path fill="none" stroke="#63b8ff" d="M1083.94,-167.38C1080.8,-166.8 1077.68,-166.25 1074.62,-165.75 964.11,-147.46 834.07,-133.71 759.8,-126.58"/>
<polygon fill="#63b8ff" stroke="#63b8ff" points="760.16,-123.1 749.87,-125.64 759.5,-130.07 760.16,-123.1"/>
</a>
</g>
</g>
<!-- Node26&#45;&gt;Node13 -->
<g id="edge46_Node000026_Node000013" class="edge">
<title>Node26&#45;&gt;Node13</title>
<g id="a_edge46_Node000026_Node000013"><a xlink:title=" ">
<path fill="none" stroke="#63b8ff" d="M1131.97,-165.27C1111.7,-134.34 1064.77,-62.73 1042.62,-28.93"/>
<polygon fill="#63b8ff" stroke="#63b8ff" points="1045.83,-27.45 1037.42,-21 1039.98,-31.28 1045.83,-27.45"/>
</a>
</g>
</g>
<!-- Node26&#45;&gt;Node19 -->
<g id="edge45_Node000026_Node000019" class="edge">
<title>Node26&#45;&gt;Node19</title>
<g id="a_edge45_Node000026_Node000019"><a xlink:title=" ">
<path fill="none" stroke="#63b8ff" d="M1098.42,-165.3C1070,-155.63 1033.2,-143.1 1006.04,-133.86"/>
<polygon fill="#63b8ff" stroke="#63b8ff" points="1007.44,-130.64 996.84,-130.73 1005.18,-137.26 1007.44,-130.64"/>
</a>
</g>
</g>
<!-- Node27&#45;&gt;Node9 -->
<g id="edge50_Node000027_Node000009" class="edge">
<title>Node27&#45;&gt;Node9</title>
<g id="a_edge50_Node000027_Node000009"><a xlink:title=" ">
<path fill="none" stroke="#63b8ff" d="M1382.96,-170.91C1372.41,-168.96 1361.14,-167.09 1350.62,-165.75 1134.15,-138.13 874.85,-126.81 759.75,-122.9"/>
<polygon fill="#63b8ff" stroke="#63b8ff" points="760.03,-119.41 749.92,-122.57 759.8,-126.4 760.03,-119.41"/>
</a>
</g>
</g>
<!-- Node27&#45;&gt;Node12 -->
<g id="edge51_Node000027_Node000012" class="edge">
<title>Node27&#45;&gt;Node12</title>
<g id="a_edge51_Node000027_Node000012"><a xlink:title=" ">
<path fill="none" stroke="#63b8ff" d="M1397.49,-170.96C1315.02,-145.44 1080.9,-73.52 1002.62,-55.25 924.74,-37.07 831.95,-22.67 782.26,-15.53"/>
<polygon fill="#63b8ff" stroke="#63b8ff" points="783.06,-12.11 772.67,-14.17 782.07,-19.04 783.06,-12.11"/>
</a>
</g>
</g>
<!-- Node27&#45;&gt;Node13 -->
<g id="edge53_Node000027_Node000013" class="edge">
<title>Node27&#45;&gt;Node13</title>
<g id="a_edge53_Node000027_Node000013"><a xlink:title=" ">
<path fill="none" stroke="#63b8ff" d="M1405.33,-170.89C1338.88,-142.47 1135.22,-55.36 1059.43,-22.95"/>
<polygon fill="#63b8ff" stroke="#63b8ff" points="1061.17,-19.88 1050.6,-19.17 1058.42,-26.32 1061.17,-19.88"/>
</a>
</g>
</g>
<!-- Node28 -->
<g id="Node000028" class="node">
<title>Node28</title>
<g id="a_Node000028"><a xlink:title=" ">
<polygon fill="#e0e0e0" stroke="#999999" points="1448.5,-129.75 1404.75,-129.75 1404.75,-110.5 1448.5,-110.5 1448.5,-129.75"/>
<text text-anchor="middle" x="1426.62" y="-116.25" font-family="Helvetica,sans-Serif" font-size="10.00">format</text>
</a>
</g>
</g>
<!-- Node27&#45;&gt;Node28 -->
<g id="edge52_Node000027_Node000028" class="edge">
<title>Node27&#45;&gt;Node28</title>
<g id="a_edge52_Node000027_Node000028"><a xlink:title=" ">
<path fill="none" stroke="#63b8ff" d="M1426.62,-171.06C1426.62,-163.28 1426.62,-151.7 1426.62,-141.66"/>
<polygon fill="#63b8ff" stroke="#63b8ff" points="1430.13,-141.66 1426.63,-131.66 1423.13,-141.66 1430.13,-141.66"/>
</a>
</g>
</g>
<!-- Node30 -->
<g id="Node000030" class="node">
<title>Node30</title>
<g id="a_Node000030"><a xlink:title=" ">
<polygon fill="#e0e0e0" stroke="#999999" points="136,-190.62 101.25,-190.62 101.25,-171.38 136,-171.38 136,-190.62"/>
<text text-anchor="middle" x="118.62" y="-177.12" font-family="Helvetica,sans-Serif" font-size="10.00">print</text>
</a>
</g>
</g>
<!-- Node29&#45;&gt;Node30 -->
<g id="edge55_Node000029_Node000030" class="edge">
<title>Node29&#45;&gt;Node30</title>
<g id="a_edge55_Node000029_Node000030"><a xlink:title=" ">
<path fill="none" stroke="#63b8ff" d="M172.9,-231.93C163.32,-223.12 148.44,-209.43 136.68,-198.61"/>
<polygon fill="#63b8ff" stroke="#63b8ff" points="139.28,-196.25 129.55,-192.05 134.54,-201.4 139.28,-196.25"/>
</a>
</g>
</g>
</g>
</svg>
