<?xml version="1.0" encoding="UTF-8" standalone="no"?>
<!DOCTYPE svg PUBLIC "-//W3C//DTD SVG 1.1//EN"
 "http://www.w3.org/Graphics/SVG/1.1/DTD/svg11.dtd">
<!-- Generated by graphviz version 3.0.0 (20221109.1736)
 -->
<!-- Title: /github/workspace/benchmark/predict_1x1x1.cpp Pages: 1 -->
<svg width="736pt" height="263pt"
 viewBox="0.00 0.00 736.09 263.00" xmlns="http://www.w3.org/2000/svg" xmlns:xlink="http://www.w3.org/1999/xlink">
<g id="graph0" class="graph" transform="scale(1 1) rotate(0) translate(4 259)">
<title>/github/workspace/benchmark/predict_1x1x1.cpp</title>
<polygon fill="white" stroke="transparent" points="-4,4 -4,-259 732.09,-259 732.09,4 -4,4"/>
<!-- Node1 -->
<g id="node1" class="node">
<title>Node1</title>
<g id="a_node1"><a xlink:title=" ">
<polygon fill="#bfbfbf" stroke="black" points="373.5,-224.5 373.5,-254.5 520.5,-254.5 520.5,-224.5 373.5,-224.5"/>
<text text-anchor="start" x="381.5" y="-242.5" font-family="Helvetica,sans-Serif" font-size="10.00">/github/workspace/benchmark</text>
<text text-anchor="middle" x="447" y="-231.5" font-family="Helvetica,sans-Serif" font-size="10.00">/predict_1x1x1.cpp</text>
</a>
</g>
</g>
<!-- Node2 -->
<g id="node2" class="node">
<title>Node2</title>
<g id="a_node2"><a xlink:href="benchmark_8hpp.xhtml" target="_top" xlink:title="Benchmarking support.">
<polygon fill="white" stroke="black" points="51.5,-168.5 51.5,-187.5 134.5,-187.5 134.5,-168.5 51.5,-168.5"/>
<text text-anchor="middle" x="93" y="-175.5" font-family="Helvetica,sans-Serif" font-size="10.00">benchmark.hpp</text>
</a>
</g>
</g>
<!-- Node1&#45;&gt;Node2 -->
<g id="edge1" class="edge">
<title>Node1&#45;&gt;Node2</title>
<path fill="none" stroke="midnightblue" d="M373.22,-226.1C304.84,-214.61 204.86,-197.8 144.64,-187.68"/>
<polygon fill="midnightblue" stroke="midnightblue" points="145.05,-184.2 134.61,-185.99 143.89,-191.1 145.05,-184.2"/>
</g>
<!-- Node3 -->
<g id="node3" class="node">
<title>Node3</title>
<g id="a_node3"><a xlink:title=" ">
<polygon fill="white" stroke="#bfbfbf" points="0,-112.5 0,-131.5 46,-131.5 46,-112.5 0,-112.5"/>
<text text-anchor="middle" x="23" y="-119.5" font-family="Helvetica,sans-Serif" font-size="10.00">chrono</text>
</a>
</g>
</g>
<!-- Node1&#45;&gt;Node3 -->
<g id="edge26" class="edge">
<title>Node1&#45;&gt;Node3</title>
<path fill="none" stroke="midnightblue" d="M373.09,-238.71C270.06,-237.46 90.42,-229.22 42,-188 28.73,-176.7 24.46,-156.7 23.21,-141.86"/>
<polygon fill="midnightblue" stroke="midnightblue" points="26.7,-141.57 22.75,-131.74 19.71,-141.89 26.7,-141.57"/>
</g>
<!-- Node5 -->
<g id="node5" class="node">
<title>Node5</title>
<g id="a_node5"><a xlink:href="kalman_8hpp.xhtml" target="_top" xlink:title="The Kalman filter&#45;class and library top&#45;level header.">
<polygon fill="white" stroke="black" points="327.5,-168.5 327.5,-187.5 434.5,-187.5 434.5,-168.5 327.5,-168.5"/>
<text text-anchor="middle" x="381" y="-175.5" font-family="Helvetica,sans-Serif" font-size="10.00">fcarouge/kalman.hpp</text>
</a>
</g>
</g>
<!-- Node1&#45;&gt;Node5 -->
<g id="edge4" class="edge">
<title>Node1&#45;&gt;Node5</title>
<path fill="none" stroke="midnightblue" d="M431.36,-224.4C421.37,-215.4 408.42,-203.72 398.15,-194.47"/>
<polygon fill="midnightblue" stroke="midnightblue" points="400.37,-191.75 390.6,-187.66 395.69,-196.95 400.37,-191.75"/>
</g>
<!-- Node17 -->
<g id="node17" class="node">
<title>Node17</title>
<g id="a_node17"><a xlink:title=" ">
<polygon fill="white" stroke="#bfbfbf" points="452.5,-168.5 452.5,-187.5 575.5,-187.5 575.5,-168.5 452.5,-168.5"/>
<text text-anchor="middle" x="514" y="-175.5" font-family="Helvetica,sans-Serif" font-size="10.00">benchmark/benchmark.h</text>
</a>
</g>
</g>
<!-- Node1&#45;&gt;Node17 -->
<g id="edge24" class="edge">
<title>Node1&#45;&gt;Node17</title>
<path fill="none" stroke="midnightblue" d="M462.88,-224.4C473.02,-215.4 486.16,-203.72 496.59,-194.47"/>
<polygon fill="midnightblue" stroke="midnightblue" points="499.1,-196.92 504.25,-187.66 494.45,-191.68 499.1,-196.92"/>
</g>
<!-- Node18 -->
<g id="node18" class="node">
<title>Node18</title>
<g id="a_node18"><a xlink:title=" ">
<polygon fill="white" stroke="#bfbfbf" points="594,-168.5 594,-187.5 650,-187.5 650,-168.5 594,-168.5"/>
<text text-anchor="middle" x="622" y="-175.5" font-family="Helvetica,sans-Serif" font-size="10.00">algorithm</text>
</a>
</g>
</g>
<!-- Node1&#45;&gt;Node18 -->
<g id="edge25" class="edge">
<title>Node1&#45;&gt;Node18</title>
<path fill="none" stroke="midnightblue" d="M488.47,-224.4C518.58,-214.16 558.85,-200.47 587.27,-190.81"/>
<polygon fill="midnightblue" stroke="midnightblue" points="588.45,-194.1 596.79,-187.57 586.2,-187.48 588.45,-194.1"/>
</g>
<!-- Node19 -->
<g id="node19" class="node">
<title>Node19</title>
<g id="a_node19"><a xlink:title=" ">
<polygon fill="white" stroke="#bfbfbf" points="668.5,-168.5 668.5,-187.5 717.5,-187.5 717.5,-168.5 668.5,-168.5"/>
<text text-anchor="middle" x="693" y="-175.5" font-family="Helvetica,sans-Serif" font-size="10.00">random</text>
</a>
</g>
</g>
<!-- Node1&#45;&gt;Node19 -->
<g id="edge27" class="edge">
<title>Node1&#45;&gt;Node19</title>
<path fill="none" stroke="midnightblue" d="M507.87,-224.43C547.98,-215.05 601.89,-202.27 658.32,-188.13"/>
<polygon fill="midnightblue" stroke="midnightblue" points="659.29,-191.49 668.14,-185.66 657.58,-184.7 659.29,-191.49"/>
</g>
<!-- Node2&#45;&gt;Node3 -->
<g id="edge2" class="edge">
<title>Node2&#45;&gt;Node3</title>
<path fill="none" stroke="midnightblue" d="M81.75,-168.32C71.2,-160.18 55.2,-147.84 42.56,-138.09"/>
<polygon fill="midnightblue" stroke="midnightblue" points="44.51,-135.17 34.45,-131.83 40.23,-140.71 44.51,-135.17"/>
</g>
<!-- Node4 -->
<g id="node4" class="node">
<title>Node4</title>
<g id="a_node4"><a xlink:title=" ">
<polygon fill="white" stroke="#bfbfbf" points="100,-0.5 100,-19.5 162,-19.5 162,-0.5 100,-0.5"/>
<text text-anchor="middle" x="131" y="-7.5" font-family="Helvetica,sans-Serif" font-size="10.00">type_traits</text>
</a>
</g>
</g>
<!-- Node2&#45;&gt;Node4 -->
<g id="edge3" class="edge">
<title>Node2&#45;&gt;Node4</title>
<path fill="none" stroke="midnightblue" d="M91.7,-168.47C88.96,-148.25 83.96,-96.08 98,-56 101.67,-45.53 108.66,-35.41 115.27,-27.44"/>
<polygon fill="midnightblue" stroke="midnightblue" points="118.11,-29.51 122.12,-19.71 112.87,-24.87 118.11,-29.51"/>
</g>
<!-- Node5&#45;&gt;Node4 -->
<g id="edge21" class="edge">
<title>Node5&#45;&gt;Node4</title>
<path fill="none" stroke="midnightblue" d="M327.49,-175.14C261.65,-171.59 155.54,-161.35 131,-132 106.83,-103.09 116.53,-55.29 124.5,-29.26"/>
<polygon fill="midnightblue" stroke="midnightblue" points="127.9,-30.15 127.71,-19.56 121.25,-27.96 127.9,-30.15"/>
</g>
<!-- Node6 -->
<g id="node6" class="node">
<title>Node6</title>
<g id="a_node6"><a xlink:href="algorithm_8hpp.xhtml" target="_top" xlink:title="The collection of Kalman algorithms.">
<polygon fill="white" stroke="black" points="260,-112.5 260,-131.5 334,-131.5 334,-112.5 260,-112.5"/>
<text text-anchor="middle" x="297" y="-119.5" font-family="Helvetica,sans-Serif" font-size="10.00">algorithm.hpp</text>
</a>
</g>
</g>
<!-- Node5&#45;&gt;Node6 -->
<g id="edge5" class="edge">
<title>Node5&#45;&gt;Node6</title>
<path fill="none" stroke="midnightblue" d="M367.5,-168.32C354.4,-159.9 334.29,-146.97 318.89,-137.07"/>
<polygon fill="midnightblue" stroke="midnightblue" points="320.77,-134.12 310.46,-131.65 316.98,-140.01 320.77,-134.12"/>
</g>
<!-- Node7 -->
<g id="node7" class="node">
<title>Node7</title>
<g id="a_node7"><a xlink:href="format_8hpp.xhtml" target="_top" xlink:title=" ">
<polygon fill="white" stroke="black" points="428.5,-112.5 428.5,-131.5 525.5,-131.5 525.5,-112.5 428.5,-112.5"/>
<text text-anchor="middle" x="477" y="-119.5" font-family="Helvetica,sans-Serif" font-size="10.00">internal/format.hpp</text>
</a>
</g>
</g>
<!-- Node5&#45;&gt;Node7 -->
<g id="edge6" class="edge">
<title>Node5&#45;&gt;Node7</title>
<path fill="none" stroke="midnightblue" d="M396.42,-168.32C411.54,-159.82 434.82,-146.73 452.47,-136.8"/>
<polygon fill="midnightblue" stroke="midnightblue" points="454.61,-139.61 461.61,-131.65 451.18,-133.51 454.61,-139.61"/>
</g>
<!-- Node8 -->
<g id="node8" class="node">
<title>Node8</title>
<g id="a_node8"><a xlink:href="utility_8hpp.xhtml" target="_top" xlink:title=" ">
<polygon fill="white" stroke="black" points="371.5,-56.5 371.5,-75.5 428.5,-75.5 428.5,-56.5 371.5,-56.5"/>
<text text-anchor="middle" x="400" y="-63.5" font-family="Helvetica,sans-Serif" font-size="10.00">utility.hpp</text>
</a>
</g>
</g>
<!-- Node5&#45;&gt;Node8 -->
<g id="edge17" class="edge">
<title>Node5&#45;&gt;Node8</title>
<path fill="none" stroke="midnightblue" d="M382.49,-168.37C385.56,-150.62 392.63,-109.67 396.79,-85.6"/>
<polygon fill="midnightblue" stroke="midnightblue" points="400.26,-86.04 398.52,-75.59 393.36,-84.85 400.26,-86.04"/>
</g>
<!-- Node9 -->
<g id="node9" class="node">
<title>Node9</title>
<g id="a_node9"><a xlink:title=" ">
<polygon fill="white" stroke="#bfbfbf" points="551,-0.5 551,-19.5 607,-19.5 607,-0.5 551,-0.5"/>
<text text-anchor="middle" x="579" y="-7.5" font-family="Helvetica,sans-Serif" font-size="10.00">concepts</text>
</a>
</g>
</g>
<!-- Node5&#45;&gt;Node9 -->
<g id="edge18" class="edge">
<title>Node5&#45;&gt;Node9</title>
<path fill="none" stroke="midnightblue" d="M434.61,-169.3C437.79,-168.86 440.94,-168.42 444,-168 504.84,-159.66 677.5,-178.17 718,-132 757.23,-87.28 666.15,-43.69 613.36,-23.18"/>
<polygon fill="midnightblue" stroke="midnightblue" points="614.58,-19.9 603.99,-19.63 612.09,-26.45 614.58,-19.9"/>
</g>
<!-- Node10 -->
<g id="node10" class="node">
<title>Node10</title>
<g id="a_node10"><a xlink:title=" ">
<polygon fill="white" stroke="#bfbfbf" points="599.5,-56.5 599.5,-75.5 648.5,-75.5 648.5,-56.5 599.5,-56.5"/>
<text text-anchor="middle" x="624" y="-63.5" font-family="Helvetica,sans-Serif" font-size="10.00">cstddef</text>
</a>
</g>
</g>
<!-- Node5&#45;&gt;Node10 -->
<g id="edge19" class="edge">
<title>Node5&#45;&gt;Node10</title>
<path fill="none" stroke="midnightblue" d="M434.61,-169.33C437.79,-168.88 440.94,-168.43 444,-168 501.32,-159.91 664,-175.67 702,-132 720.19,-111.09 686.62,-91.35 658,-79.22"/>
<polygon fill="midnightblue" stroke="midnightblue" points="659.15,-75.91 648.57,-75.41 656.53,-82.41 659.15,-75.91"/>
</g>
<!-- Node12 -->
<g id="node12" class="node">
<title>Node12</title>
<g id="a_node12"><a xlink:href="internal_2kalman_8hpp.xhtml" target="_top" xlink:title=" ">
<polygon fill="white" stroke="black" points="140.5,-112.5 140.5,-131.5 241.5,-131.5 241.5,-112.5 140.5,-112.5"/>
<text text-anchor="middle" x="191" y="-119.5" font-family="Helvetica,sans-Serif" font-size="10.00">internal/kalman.hpp</text>
</a>
</g>
</g>
<!-- Node5&#45;&gt;Node12 -->
<g id="edge12" class="edge">
<title>Node5&#45;&gt;Node12</title>
<path fill="none" stroke="midnightblue" d="M350.89,-168.44C318.37,-159.2 266.42,-144.44 230.61,-134.26"/>
<polygon fill="midnightblue" stroke="midnightblue" points="231.54,-130.88 220.97,-131.52 229.63,-137.62 231.54,-130.88"/>
</g>
<!-- Node13 -->
<g id="node13" class="node">
<title>Node13</title>
<g id="a_node13"><a xlink:title=" ">
<polygon fill="white" stroke="#bfbfbf" points="264.5,-56.5 264.5,-75.5 323.5,-75.5 323.5,-56.5 264.5,-56.5"/>
<text text-anchor="middle" x="294" y="-63.5" font-family="Helvetica,sans-Serif" font-size="10.00">functional</text>
</a>
</g>
</g>
<!-- Node5&#45;&gt;Node13 -->
<g id="edge20" class="edge">
<title>Node5&#45;&gt;Node13</title>
<path fill="none" stroke="midnightblue" d="M377.05,-168.49C370.84,-155.56 357.93,-130.52 343,-112 334.25,-101.15 322.87,-90.53 313.27,-82.34"/>
<polygon fill="midnightblue" stroke="midnightblue" points="315.34,-79.51 305.41,-75.81 310.87,-84.89 315.34,-79.51"/>
</g>
<!-- Node15 -->
<g id="node15" class="node">
<title>Node15</title>
<g id="a_node15"><a xlink:title=" ">
<polygon fill="white" stroke="#bfbfbf" points="543.5,-112.5 543.5,-131.5 582.5,-131.5 582.5,-112.5 543.5,-112.5"/>
<text text-anchor="middle" x="563" y="-119.5" font-family="Helvetica,sans-Serif" font-size="10.00">utility</text>
</a>
</g>
</g>
<!-- Node5&#45;&gt;Node15 -->
<g id="edge22" class="edge">
<title>Node5&#45;&gt;Node15</title>
<path fill="none" stroke="midnightblue" d="M411.17,-168.44C440.33,-160.11 485.97,-146.93 533.84,-132.3"/>
<polygon fill="midnightblue" stroke="midnightblue" points="534.9,-135.64 543.44,-129.36 532.85,-128.95 534.9,-135.64"/>
</g>
<!-- Node16 -->
<g id="node16" class="node">
<title>Node16</title>
<g id="a_node16"><a xlink:href="detail_8hpp.xhtml" target="_top" xlink:title=" ">
<polygon fill="white" stroke="black" points="601,-112.5 601,-131.5 693,-131.5 693,-112.5 601,-112.5"/>
<text text-anchor="middle" x="647" y="-119.5" font-family="Helvetica,sans-Serif" font-size="10.00">internal/detail.hpp</text>
</a>
</g>
</g>
<!-- Node5&#45;&gt;Node16 -->
<g id="edge23" class="edge">
<title>Node5&#45;&gt;Node16</title>
<path fill="none" stroke="midnightblue" d="M423.15,-168.44C469.75,-158.98 544.84,-143.74 595.05,-133.55"/>
<polygon fill="midnightblue" stroke="midnightblue" points="595.94,-136.94 605.05,-131.52 594.55,-130.08 595.94,-136.94"/>
</g>
<!-- Node7&#45;&gt;Node8 -->
<g id="edge7" class="edge">
<title>Node7&#45;&gt;Node8</title>
<path fill="none" stroke="midnightblue" d="M464.63,-112.32C452.84,-104.06 434.87,-91.45 420.86,-81.63"/>
<polygon fill="midnightblue" stroke="midnightblue" points="422.54,-78.53 412.34,-75.65 418.52,-84.26 422.54,-78.53"/>
</g>
<!-- Node7&#45;&gt;Node10 -->
<g id="edge10" class="edge">
<title>Node7&#45;&gt;Node10</title>
<path fill="none" stroke="midnightblue" d="M500.29,-112.44C524.81,-103.44 563.6,-89.19 591.2,-79.05"/>
<polygon fill="midnightblue" stroke="midnightblue" points="592.64,-82.25 600.82,-75.52 590.22,-75.68 592.64,-82.25"/>
</g>
<!-- Node11 -->
<g id="node11" class="node">
<title>Node11</title>
<g id="a_node11"><a xlink:title=" ">
<polygon fill="white" stroke="#bfbfbf" points="455,-56.5 455,-75.5 499,-75.5 499,-56.5 455,-56.5"/>
<text text-anchor="middle" x="477" y="-63.5" font-family="Helvetica,sans-Serif" font-size="10.00">format</text>
</a>
</g>
</g>
<!-- Node7&#45;&gt;Node11 -->
<g id="edge11" class="edge">
<title>Node7&#45;&gt;Node11</title>
<path fill="none" stroke="midnightblue" d="M477,-112.08C477,-105.01 477,-94.86 477,-85.99"/>
<polygon fill="midnightblue" stroke="midnightblue" points="480.5,-85.75 477,-75.75 473.5,-85.75 480.5,-85.75"/>
</g>
<!-- Node8&#45;&gt;Node4 -->
<g id="edge9" class="edge">
<title>Node8&#45;&gt;Node4</title>
<path fill="none" stroke="midnightblue" d="M371.47,-59.27C323.7,-49.68 227.39,-30.35 172.25,-19.28"/>
<polygon fill="midnightblue" stroke="midnightblue" points="172.62,-15.78 162.12,-17.25 171.24,-22.65 172.62,-15.78"/>
</g>
<!-- Node8&#45;&gt;Node9 -->
<g id="edge8" class="edge">
<title>Node8&#45;&gt;Node9</title>
<path fill="none" stroke="midnightblue" d="M428.36,-56.44C458.74,-47.28 507.11,-32.69 540.82,-22.52"/>
<polygon fill="midnightblue" stroke="midnightblue" points="542.21,-25.76 550.77,-19.52 540.18,-19.05 542.21,-25.76"/>
</g>
<!-- Node12&#45;&gt;Node4 -->
<g id="edge16" class="edge">
<title>Node12&#45;&gt;Node4</title>
<path fill="none" stroke="midnightblue" d="M186.29,-112.37C176.48,-94.38 153.66,-52.55 140.61,-28.63"/>
<polygon fill="midnightblue" stroke="midnightblue" points="143.55,-26.69 135.69,-19.59 137.4,-30.05 143.55,-26.69"/>
</g>
<!-- Node12&#45;&gt;Node8 -->
<g id="edge13" class="edge">
<title>Node12&#45;&gt;Node8</title>
<path fill="none" stroke="midnightblue" d="M224.12,-112.44C261.49,-102.79 322.21,-87.1 361.62,-76.92"/>
<polygon fill="midnightblue" stroke="midnightblue" points="362.6,-80.28 371.4,-74.39 360.85,-73.5 362.6,-80.28"/>
</g>
<!-- Node12&#45;&gt;Node13 -->
<g id="edge14" class="edge">
<title>Node12&#45;&gt;Node13</title>
<path fill="none" stroke="midnightblue" d="M207.55,-112.32C223.99,-103.7 249.43,-90.36 268.47,-80.39"/>
<polygon fill="midnightblue" stroke="midnightblue" points="270.26,-83.4 277.49,-75.65 267.01,-77.2 270.26,-83.4"/>
</g>
<!-- Node14 -->
<g id="node14" class="node">
<title>Node14</title>
<g id="a_node14"><a xlink:title=" ">
<polygon fill="white" stroke="#bfbfbf" points="178,-56.5 178,-75.5 216,-75.5 216,-56.5 178,-56.5"/>
<text text-anchor="middle" x="197" y="-63.5" font-family="Helvetica,sans-Serif" font-size="10.00">tuple</text>
</a>
</g>
</g>
<!-- Node12&#45;&gt;Node14 -->
<g id="edge15" class="edge">
<title>Node12&#45;&gt;Node14</title>
<path fill="none" stroke="midnightblue" d="M191.99,-112.08C192.79,-104.93 193.93,-94.64 194.92,-85.69"/>
<polygon fill="midnightblue" stroke="midnightblue" points="198.4,-86.08 196.03,-75.75 191.44,-85.3 198.4,-86.08"/>
</g>
</g>
</svg>
