<?xml version="1.0" encoding="UTF-8" standalone="no"?>
<!DOCTYPE svg PUBLIC "-//W3C//DTD SVG 1.1//EN"
 "http://www.w3.org/Graphics/SVG/1.1/DTD/svg11.dtd">
<!-- Generated by graphviz version 9.0.0 (20230911.1827)
 -->
<!-- Title: /github/workspace/benchmark/predict_linalg_x1x.cpp Pages: 1 -->
<!--zoomable 381 -->

<svg id="main" version="1.1" xmlns="http://www.w3.org/2000/svg" xmlns:xlink="http://www.w3.org/1999/xlink" xml:space="preserve" onload="init(evt)">
<style type="text/css"><![CDATA[
.node, .edge {opacity: 0.7;}
.node.selected, .edge.selected {opacity: 1;}
.edge:hover path { stroke: red; }
.edge:hover polygon { stroke: red; fill: red; }
]]></style>

<defs>
  <circle id="rim" cx="0" cy="0" r="7"/>
  <circle id="rim2" cx="0" cy="0" r="3.5"/>
  <g id="zoomPlus">
    <use xlink:href="#rim" fill="#404040"><set attributeName="fill" to="#808080" begin="zoomplus.mouseover" end="zoomplus.mouseout"/></use>
    <path d="M-4,0h8M0,-4v8" fill="none" stroke="white" stroke-width="1.5" pointer-events="none"/>
  </g>
  <g id="zoomMin">
    <use xlink:href="#rim" fill="#404040"><set attributeName="fill" to="#808080" begin="zoomminus.mouseover" end="zoomminus.mouseout"/></use>
    <path d="M-4,0h8" fill="none" stroke="white" stroke-width="1.5" pointer-events="none"/>
  </g>
  <g id="arrowUp" transform="translate(30 24)">
    <use xlink:href="#rim"/>
    <path pointer-events="none" fill="none" stroke="white" stroke-width="1.5" d="M0,-3.0v7 M-2.5,-0.5L0,-3.0L2.5,-0.5"/>
  </g>
  <g id="arrowRight" transform="rotate(90) translate(36 -43)">
    <use xlink:href="#rim"/>
    <path pointer-events="none" fill="none" stroke="white" stroke-width="1.5" d="M0,-3.0v7 M-2.5,-0.5L0,-3.0L2.5,-0.5"/>
  </g>
  <g id="arrowDown" transform="rotate(180) translate(-30 -48)">
    <use xlink:href="#rim"/>
    <path pointer-events="none" fill="none" stroke="white" stroke-width="1.5" d="M0,-3.0v7 M-2.5,-0.5L0,-3.0L2.5,-0.5"/>
  </g>
  <g id="arrowLeft" transform="rotate(270) translate(-36 17)">
    <use xlink:href="#rim"/>
    <path pointer-events="none" fill="none" stroke="white" stroke-width="1.5" d="M0,-3.0v7 M-2.5,-0.5L0,-3.0L2.5,-0.5"/>
  </g>
  <g id="resetDef">
    <use xlink:href="#rim2" fill="#404040"><set attributeName="fill" to="#808080" begin="reset.mouseover" end="reset.mouseout"/></use>
  </g>
</defs>
<script type="application/ecmascript">
var viewWidth = 1397;
var viewHeight = 381;
var sectionId = 'dynsection-0';
</script>
<script type="application/ecmascript" xlink:href="svg.min.js"/>
<svg id="graph" class="graph">
<g id="viewport">
<title>/github/workspace/benchmark/predict_linalg_x1x.cpp</title>
<!-- Node1 -->
<g id="Node000001" class="node">
<title>Node1</title>
<g id="a_Node000001"><a xlink:title=" ">
<polygon fill="#999999" stroke="#666666" points="871.25,-373.25 724.75,-373.25 724.75,-342.75 871.25,-342.75 871.25,-373.25"/>
<text text-anchor="start" x="732.75" y="-359.75" font-family="Helvetica,sans-Serif" font-size="10.00">/github/workspace/benchmark</text>
<text text-anchor="middle" x="798" y="-348.5" font-family="Helvetica,sans-Serif" font-size="10.00">/predict_linalg_x1x.cpp</text>
</a>
</g>
</g>
<!-- Node2 -->
<g id="Node000002" class="node">
<title>Node2</title>
<g id="a_Node000002"><a xlink:href="benchmark_8hpp.xhtml" target="_top" xlink:title="Benchmarking support.">
<polygon fill="white" stroke="#666666" points="82,-306.75 0,-306.75 0,-287.5 82,-287.5 82,-306.75"/>
<text text-anchor="middle" x="41" y="-293.25" font-family="Helvetica,sans-Serif" font-size="10.00">benchmark.hpp</text>
</a>
</g>
</g>
<!-- Node1&#45;&gt;Node2 -->
<g id="edge1_Node000001_Node000002" class="edge">
<title>Node1&#45;&gt;Node2</title>
<g id="a_edge1_Node000001_Node000002"><a xlink:title=" ">
<path fill="none" stroke="#63b8ff" d="M724.29,-353.77C596.2,-347.69 324.38,-332.78 96,-306.75 95.17,-306.66 94.34,-306.56 93.5,-306.46"/>
<polygon fill="#63b8ff" stroke="#63b8ff" points="94.26,-303.03 83.89,-305.2 93.35,-309.97 94.26,-303.03"/>
</a>
</g>
</g>
<!-- Node3 -->
<g id="Node000003" class="node">
<title>Node3</title>
<g id="a_Node000003"><a xlink:title=" ">
<polygon fill="#e0e0e0" stroke="#999999" points="117.62,-251.5 72.38,-251.5 72.38,-232.25 117.62,-232.25 117.62,-251.5"/>
<text text-anchor="middle" x="95" y="-238" font-family="Helvetica,sans-Serif" font-size="10.00">chrono</text>
</a>
</g>
</g>
<!-- Node1&#45;&gt;Node3 -->
<g id="edge50_Node000001_Node000003" class="edge">
<title>Node1&#45;&gt;Node3</title>
<g id="a_edge50_Node000001_Node000003"><a xlink:title=" ">
<path fill="none" stroke="#63b8ff" d="M724.27,-355.19C561.79,-350.65 183.37,-336.96 134,-306.75 117.73,-296.8 107.3,-277.26 101.36,-262.4"/>
<polygon fill="#63b8ff" stroke="#63b8ff" points="104.72,-261.41 98.04,-253.19 98.13,-263.78 104.72,-261.41"/>
</a>
</g>
</g>
<!-- Node5 -->
<g id="Node000005" class="node">
<title>Node5</title>
<g id="a_Node000005"><a xlink:href="internal_2utility_8hpp.xhtml" target="_top" xlink:title=" ">
<polygon fill="white" stroke="#666666" points="359.75,-74.5 228.25,-74.5 228.25,-55.25 359.75,-55.25 359.75,-74.5"/>
<text text-anchor="middle" x="294" y="-61" font-family="Helvetica,sans-Serif" font-size="10.00">fcarouge/internal/utility.hpp</text>
</a>
</g>
</g>
<!-- Node1&#45;&gt;Node5 -->
<g id="edge4_Node000001_Node000005" class="edge">
<title>Node1&#45;&gt;Node5</title>
<g id="a_edge4_Node000001_Node000005"><a xlink:title=" ">
<path fill="none" stroke="#63b8ff" d="M724.4,-352.55C562.64,-340.87 186.27,-302.5 133,-196.25 104.14,-138.68 194.42,-97.86 251.29,-78.52"/>
<polygon fill="#63b8ff" stroke="#63b8ff" points="252.33,-81.87 260.74,-75.42 250.15,-75.22 252.33,-81.87"/>
</a>
</g>
</g>
<!-- Node8 -->
<g id="Node000008" class="node">
<title>Node8</title>
<g id="a_Node000008"><a xlink:href="kalman_8hpp.xhtml" target="_top" xlink:title="The Kalman filter class and library top&#45;level header.">
<polygon fill="white" stroke="#666666" points="536,-306.75 430,-306.75 430,-287.5 536,-287.5 536,-306.75"/>
<text text-anchor="middle" x="483" y="-293.25" font-family="Helvetica,sans-Serif" font-size="10.00">fcarouge/kalman.hpp</text>
</a>
</g>
</g>
<!-- Node1&#45;&gt;Node8 -->
<g id="edge8_Node000001_Node000008" class="edge">
<title>Node1&#45;&gt;Node8</title>
<g id="a_edge8_Node000001_Node000008"><a xlink:title=" ">
<path fill="none" stroke="#63b8ff" d="M724.54,-343.27C669.28,-332.94 594.48,-318.96 542.84,-309.31"/>
<polygon fill="#63b8ff" stroke="#63b8ff" points="543.49,-305.87 533.02,-307.47 542.21,-312.75 543.49,-305.87"/>
</a>
</g>
</g>
<!-- Node22 -->
<g id="Node000022" class="node">
<title>Node22</title>
<g id="a_Node000022"><a xlink:title=" ">
<polygon fill="#e0e0e0" stroke="#999999" points="1389.12,-190.62 1340.88,-190.62 1340.88,-171.38 1389.12,-171.38 1389.12,-190.62"/>
<text text-anchor="middle" x="1365" y="-177.12" font-family="Helvetica,sans-Serif" font-size="10.00">cstddef</text>
</a>
</g>
</g>
<!-- Node1&#45;&gt;Node22 -->
<g id="edge52_Node000001_Node000022" class="edge">
<title>Node1&#45;&gt;Node22</title>
<g id="a_edge52_Node000001_Node000022"><a xlink:title=" ">
<path fill="none" stroke="#63b8ff" d="M730.17,-342.27C691.67,-330.82 655.14,-312.64 677,-287.5 772.7,-177.42 1185.64,-232.21 1327,-196.25 1328.75,-195.81 1330.53,-195.31 1332.31,-194.77"/>
<polygon fill="#63b8ff" stroke="#63b8ff" points="1333.36,-198.11 1341.72,-191.6 1331.13,-191.48 1333.36,-198.11"/>
</a>
</g>
</g>
<!-- Node27 -->
<g id="Node000027" class="node">
<title>Node27</title>
<g id="a_Node000027"><a xlink:title=" ">
<polygon fill="#e0e0e0" stroke="#999999" points="782.5,-306.75 685.5,-306.75 685.5,-287.5 782.5,-287.5 782.5,-306.75"/>
<text text-anchor="middle" x="734" y="-293.25" font-family="Helvetica,sans-Serif" font-size="10.00">fcarouge/linalg.hpp</text>
</a>
</g>
</g>
<!-- Node1&#45;&gt;Node27 -->
<g id="edge47_Node000001_Node000027" class="edge">
<title>Node1&#45;&gt;Node27</title>
<g id="a_edge47_Node000001_Node000027"><a xlink:title=" ">
<path fill="none" stroke="#63b8ff" d="M782.18,-342.45C773.09,-334.09 761.64,-323.55 752.18,-314.85"/>
<polygon fill="#63b8ff" stroke="#63b8ff" points="754.71,-312.42 744.98,-308.23 749.97,-317.57 754.71,-312.42"/>
</a>
</g>
</g>
<!-- Node28 -->
<g id="Node000028" class="node">
<title>Node28</title>
<g id="a_Node000028"><a xlink:title=" ">
<polygon fill="#e0e0e0" stroke="#999999" points="923.25,-306.75 800.75,-306.75 800.75,-287.5 923.25,-287.5 923.25,-306.75"/>
<text text-anchor="middle" x="862" y="-293.25" font-family="Helvetica,sans-Serif" font-size="10.00">benchmark/benchmark.h</text>
</a>
</g>
</g>
<!-- Node1&#45;&gt;Node28 -->
<g id="edge48_Node000001_Node000028" class="edge">
<title>Node1&#45;&gt;Node28</title>
<g id="a_edge48_Node000001_Node000028"><a xlink:title=" ">
<path fill="none" stroke="#63b8ff" d="M813.82,-342.45C822.91,-334.09 834.36,-323.55 843.82,-314.85"/>
<polygon fill="#63b8ff" stroke="#63b8ff" points="846.03,-317.57 851.02,-308.23 841.29,-312.42 846.03,-317.57"/>
</a>
</g>
</g>
<!-- Node29 -->
<g id="Node000029" class="node">
<title>Node29</title>
<g id="a_Node000029"><a xlink:title=" ">
<polygon fill="#e0e0e0" stroke="#999999" points="996.88,-306.75 941.12,-306.75 941.12,-287.5 996.88,-287.5 996.88,-306.75"/>
<text text-anchor="middle" x="969" y="-293.25" font-family="Helvetica,sans-Serif" font-size="10.00">algorithm</text>
</a>
</g>
</g>
<!-- Node1&#45;&gt;Node29 -->
<g id="edge49_Node000001_Node000029" class="edge">
<title>Node1&#45;&gt;Node29</title>
<g id="a_edge49_Node000001_Node000029"><a xlink:title=" ">
<path fill="none" stroke="#63b8ff" d="M840.71,-342.3C868.67,-332.67 904.85,-320.21 931.66,-310.98"/>
<polygon fill="#63b8ff" stroke="#63b8ff" points="932.78,-314.3 941.09,-307.73 930.5,-307.68 932.78,-314.3"/>
</a>
</g>
</g>
<!-- Node30 -->
<g id="Node000030" class="node">
<title>Node30</title>
<g id="a_Node000030"><a xlink:title=" ">
<polygon fill="#e0e0e0" stroke="#999999" points="1057.5,-306.75 1014.5,-306.75 1014.5,-287.5 1057.5,-287.5 1057.5,-306.75"/>
<text text-anchor="middle" x="1036" y="-293.25" font-family="Helvetica,sans-Serif" font-size="10.00">cmath</text>
</a>
</g>
</g>
<!-- Node1&#45;&gt;Node30 -->
<g id="edge51_Node000001_Node000030" class="edge">
<title>Node1&#45;&gt;Node30</title>
<g id="a_edge51_Node000001_Node000030"><a xlink:title=" ">
<path fill="none" stroke="#63b8ff" d="M861.9,-342.31C900.48,-333.27 950.87,-321.16 1003.23,-307.41"/>
<polygon fill="#63b8ff" stroke="#63b8ff" points="1003.84,-310.87 1012.61,-304.93 1002.05,-304.1 1003.84,-310.87"/>
</a>
</g>
</g>
<!-- Node31 -->
<g id="Node000031" class="node">
<title>Node31</title>
<g id="a_Node000031"><a xlink:title=" ">
<polygon fill="#e0e0e0" stroke="#999999" points="1120.62,-306.75 1075.38,-306.75 1075.38,-287.5 1120.62,-287.5 1120.62,-306.75"/>
<text text-anchor="middle" x="1098" y="-293.25" font-family="Helvetica,sans-Serif" font-size="10.00">cstdint</text>
</a>
</g>
</g>
<!-- Node1&#45;&gt;Node31 -->
<g id="edge53_Node000001_Node000031" class="edge">
<title>Node1&#45;&gt;Node31</title>
<g id="a_edge53_Node000001_Node000031"><a xlink:title=" ">
<path fill="none" stroke="#63b8ff" d="M871.71,-345C923.32,-336.2 994.08,-323.31 1064.24,-307.25"/>
<polygon fill="#63b8ff" stroke="#63b8ff" points="1064.61,-310.76 1073.56,-305.09 1063.03,-303.94 1064.61,-310.76"/>
</a>
</g>
</g>
<!-- Node32 -->
<g id="Node000032" class="node">
<title>Node32</title>
<g id="a_Node000032"><a xlink:title=" ">
<polygon fill="#e0e0e0" stroke="#999999" points="1183.62,-306.75 1138.38,-306.75 1138.38,-287.5 1183.62,-287.5 1183.62,-306.75"/>
<text text-anchor="middle" x="1161" y="-293.25" font-family="Helvetica,sans-Serif" font-size="10.00">cstring</text>
</a>
</g>
</g>
<!-- Node1&#45;&gt;Node32 -->
<g id="edge54_Node000001_Node000032" class="edge">
<title>Node1&#45;&gt;Node32</title>
<g id="a_edge54_Node000001_Node000032"><a xlink:title=" ">
<path fill="none" stroke="#63b8ff" d="M871.65,-348.45C936.66,-340.32 1034.16,-326.68 1127.04,-307.19"/>
<polygon fill="#63b8ff" stroke="#63b8ff" points="1127.52,-310.66 1136.57,-305.16 1126.06,-303.82 1127.52,-310.66"/>
</a>
</g>
</g>
<!-- Node33 -->
<g id="Node000033" class="node">
<title>Node33</title>
<g id="a_Node000033"><a xlink:title=" ">
<polygon fill="#e0e0e0" stroke="#999999" points="1250.12,-306.75 1201.88,-306.75 1201.88,-287.5 1250.12,-287.5 1250.12,-306.75"/>
<text text-anchor="middle" x="1226" y="-293.25" font-family="Helvetica,sans-Serif" font-size="10.00">random</text>
</a>
</g>
</g>
<!-- Node1&#45;&gt;Node33 -->
<g id="edge55_Node000001_Node000033" class="edge">
<title>Node1&#45;&gt;Node33</title>
<g id="a_edge55_Node000001_Node000033"><a xlink:title=" ">
<path fill="none" stroke="#63b8ff" d="M871.61,-350.5C948.8,-343.05 1073.75,-329.15 1190.32,-307.05"/>
<polygon fill="#63b8ff" stroke="#63b8ff" points="1190.93,-310.5 1200.09,-305.17 1189.6,-303.62 1190.93,-310.5"/>
</a>
</g>
</g>
<!-- Node2&#45;&gt;Node3 -->
<g id="edge2_Node000002_Node000003" class="edge">
<title>Node2&#45;&gt;Node3</title>
<g id="a_edge2_Node000002_Node000003"><a xlink:title=" ">
<path fill="none" stroke="#63b8ff" d="M49.92,-287.33C57.45,-279.9 68.47,-269.04 77.73,-259.91"/>
<polygon fill="#63b8ff" stroke="#63b8ff" points="80.15,-262.44 84.81,-252.92 75.23,-257.45 80.15,-262.44"/>
</a>
</g>
</g>
<!-- Node4 -->
<g id="Node000004" class="node">
<title>Node4</title>
<g id="a_Node000004"><a xlink:title=" ">
<polygon fill="#e0e0e0" stroke="#999999" points="192.5,-19.25 131.5,-19.25 131.5,0 192.5,0 192.5,-19.25"/>
<text text-anchor="middle" x="162" y="-5.75" font-family="Helvetica,sans-Serif" font-size="10.00">type_traits</text>
</a>
</g>
</g>
<!-- Node2&#45;&gt;Node4 -->
<g id="edge3_Node000002_Node000004" class="edge">
<title>Node2&#45;&gt;Node4</title>
<g id="a_edge3_Node000002_Node000004"><a xlink:title=" ">
<path fill="none" stroke="#63b8ff" d="M41.26,-287.25C41.8,-268.05 43,-221.24 43,-182 43,-182 43,-182 43,-119.12 43,-72.89 92.67,-41.11 127.83,-24.4"/>
<polygon fill="#63b8ff" stroke="#63b8ff" points="129.16,-27.64 136.83,-20.33 126.27,-21.27 129.16,-27.64"/>
</a>
</g>
</g>
<!-- Node5&#45;&gt;Node4 -->
<g id="edge7_Node000005_Node000004" class="edge">
<title>Node5&#45;&gt;Node4</title>
<g id="a_edge7_Node000005_Node000004"><a xlink:title=" ">
<path fill="none" stroke="#63b8ff" d="M271.61,-54.84C250.56,-46.35 218.8,-33.54 194.88,-23.89"/>
<polygon fill="#63b8ff" stroke="#63b8ff" points="196.49,-20.76 185.91,-20.27 193.87,-27.26 196.49,-20.76"/>
</a>
</g>
</g>
<!-- Node6 -->
<g id="Node000006" class="node">
<title>Node6</title>
<g id="a_Node000006"><a xlink:title=" ">
<polygon fill="#e0e0e0" stroke="#999999" points="368.88,-19.25 313.12,-19.25 313.12,0 368.88,0 368.88,-19.25"/>
<text text-anchor="middle" x="341" y="-5.75" font-family="Helvetica,sans-Serif" font-size="10.00">concepts</text>
</a>
</g>
</g>
<!-- Node5&#45;&gt;Node6 -->
<g id="edge5_Node000005_Node000006" class="edge">
<title>Node5&#45;&gt;Node6</title>
<g id="a_edge5_Node000005_Node000006"><a xlink:title=" ">
<path fill="none" stroke="#63b8ff" d="M301.76,-55.08C308.19,-47.8 317.51,-37.23 325.46,-28.23"/>
<polygon fill="#63b8ff" stroke="#63b8ff" points="328.08,-30.56 332.07,-20.74 322.83,-25.93 328.08,-30.56"/>
</a>
</g>
</g>
<!-- Node7 -->
<g id="Node000007" class="node">
<title>Node7</title>
<g id="a_Node000007"><a xlink:title=" ">
<polygon fill="#e0e0e0" stroke="#999999" points="981.5,-19.25 944.5,-19.25 944.5,0 981.5,0 981.5,-19.25"/>
<text text-anchor="middle" x="963" y="-5.75" font-family="Helvetica,sans-Serif" font-size="10.00">tuple</text>
</a>
</g>
</g>
<!-- Node5&#45;&gt;Node7 -->
<g id="edge6_Node000005_Node000007" class="edge">
<title>Node5&#45;&gt;Node7</title>
<g id="a_edge6_Node000005_Node000007"><a xlink:title=" ">
<path fill="none" stroke="#63b8ff" d="M359.98,-58.62C501.89,-47.33 831.48,-21.09 932.81,-13.03"/>
<polygon fill="#63b8ff" stroke="#63b8ff" points="932.81,-16.54 942.5,-12.26 932.26,-9.56 932.81,-16.54"/>
</a>
</g>
</g>
<!-- Node9 -->
<g id="Node000009" class="node">
<title>Node9</title>
<g id="a_Node000009"><a xlink:href="factory_8hpp.xhtml" target="_top" xlink:title=" ">
<polygon fill="white" stroke="#666666" points="588.88,-251.5 491.12,-251.5 491.12,-232.25 588.88,-232.25 588.88,-251.5"/>
<text text-anchor="middle" x="540" y="-238" font-family="Helvetica,sans-Serif" font-size="10.00">internal/factory.hpp</text>
</a>
</g>
</g>
<!-- Node8&#45;&gt;Node9 -->
<g id="edge9_Node000008_Node000009" class="edge">
<title>Node8&#45;&gt;Node9</title>
<g id="a_edge9_Node000008_Node000009"><a xlink:title=" ">
<path fill="none" stroke="#63b8ff" d="M492.67,-287.09C500.74,-279.55 512.47,-268.6 522.22,-259.48"/>
<polygon fill="#63b8ff" stroke="#63b8ff" points="524.45,-262.19 529.37,-252.81 519.67,-257.08 524.45,-262.19"/>
</a>
</g>
</g>
<!-- Node11 -->
<g id="Node000011" class="node">
<title>Node11</title>
<g id="a_Node000011"><a xlink:href="utility_8hpp.xhtml" target="_top" xlink:title="The collection of utilities supporting the library.">
<polygon fill="white" stroke="#666666" points="702.5,-129.75 605.5,-129.75 605.5,-110.5 702.5,-110.5 702.5,-129.75"/>
<text text-anchor="middle" x="654" y="-116.25" font-family="Helvetica,sans-Serif" font-size="10.00">fcarouge/utility.hpp</text>
</a>
</g>
</g>
<!-- Node8&#45;&gt;Node11 -->
<g id="edge45_Node000008_Node000011" class="edge">
<title>Node8&#45;&gt;Node11</title>
<g id="a_edge45_Node000008_Node000011"><a xlink:title=" ">
<path fill="none" stroke="#63b8ff" d="M475.46,-287.14C457.26,-264.32 414.6,-203.32 445,-165.75 463.46,-142.93 538.96,-131.27 593.93,-125.69"/>
<polygon fill="#63b8ff" stroke="#63b8ff" points="594.19,-129.18 603.81,-124.74 593.52,-122.22 594.19,-129.18"/>
</a>
</g>
</g>
<!-- Node21 -->
<g id="Node000021" class="node">
<title>Node21</title>
<g id="a_Node000021"><a xlink:href="format_8hpp.xhtml" target="_top" xlink:title=" ">
<polygon fill="white" stroke="#666666" points="721.12,-251.5 624.88,-251.5 624.88,-232.25 721.12,-232.25 721.12,-251.5"/>
<text text-anchor="middle" x="673" y="-238" font-family="Helvetica,sans-Serif" font-size="10.00">internal/format.hpp</text>
</a>
</g>
</g>
<!-- Node8&#45;&gt;Node21 -->
<g id="edge38_Node000008_Node000021" class="edge">
<title>Node8&#45;&gt;Node21</title>
<g id="a_edge38_Node000008_Node000021"><a xlink:title=" ">
<path fill="none" stroke="#63b8ff" d="M515.23,-287.09C546.76,-278.26 594.98,-264.74 629.81,-254.98"/>
<polygon fill="#63b8ff" stroke="#63b8ff" points="630.47,-258.43 639.15,-252.36 628.58,-251.69 630.47,-258.43"/>
</a>
</g>
</g>
<!-- Node24 -->
<g id="Node000024" class="node">
<title>Node24</title>
<g id="a_Node000024"><a xlink:href="printer_8hpp.xhtml" target="_top" xlink:title=" ">
<polygon fill="white" stroke="#666666" points="276.5,-251.5 215.5,-251.5 215.5,-232.25 276.5,-232.25 276.5,-251.5"/>
<text text-anchor="middle" x="246" y="-238" font-family="Helvetica,sans-Serif" font-size="10.00">printer.hpp</text>
</a>
</g>
</g>
<!-- Node8&#45;&gt;Node24 -->
<g id="edge43_Node000008_Node000024" class="edge">
<title>Node8&#45;&gt;Node24</title>
<g id="a_edge43_Node000008_Node000024"><a xlink:title=" ">
<path fill="none" stroke="#63b8ff" d="M442.53,-287.03C399.44,-277.35 331.59,-262.11 287.95,-252.3"/>
<polygon fill="#63b8ff" stroke="#63b8ff" points="288.87,-248.92 278.34,-250.14 287.33,-255.75 288.87,-248.92"/>
</a>
</g>
</g>
<!-- Node26 -->
<g id="Node000026" class="node">
<title>Node26</title>
<g id="a_Node000026"><a xlink:title=" ">
<polygon fill="#e0e0e0" stroke="#999999" points="397.88,-251.5 300.12,-251.5 300.12,-232.25 397.88,-232.25 397.88,-251.5"/>
<text text-anchor="middle" x="349" y="-238" font-family="Helvetica,sans-Serif" font-size="10.00">internal/kalman.tpp</text>
</a>
</g>
</g>
<!-- Node8&#45;&gt;Node26 -->
<g id="edge46_Node000008_Node000026" class="edge">
<title>Node8&#45;&gt;Node26</title>
<g id="a_edge46_Node000008_Node000026"><a xlink:title=" ">
<path fill="none" stroke="#63b8ff" d="M460.27,-287.09C438.9,-278.6 406.66,-265.79 382.37,-256.14"/>
<polygon fill="#63b8ff" stroke="#63b8ff" points="383.84,-252.95 373.25,-252.51 381.25,-259.46 383.84,-252.95"/>
</a>
</g>
</g>
<!-- Node9&#45;&gt;Node4 -->
<g id="edge37_Node000009_Node000004" class="edge">
<title>Node9&#45;&gt;Node4</title>
<g id="a_edge37_Node000009_Node000004"><a xlink:title=" ">
<path fill="none" stroke="#63b8ff" d="M490.86,-236.78C407.2,-229.39 244.14,-213.02 224,-196.25 173.44,-154.15 163.89,-69.53 162.24,-30.81"/>
<polygon fill="#63b8ff" stroke="#63b8ff" points="165.74,-30.78 161.98,-20.88 158.75,-30.97 165.74,-30.78"/>
</a>
</g>
</g>
<!-- Node9&#45;&gt;Node6 -->
<g id="edge36_Node000009_Node000006" class="edge">
<title>Node9&#45;&gt;Node6</title>
<g id="a_edge36_Node000009_Node000006"><a xlink:title=" ">
<path fill="none" stroke="#63b8ff" d="M508.81,-231.88C488.69,-224.81 463,-213.28 445,-196.25 393.29,-147.32 404.83,-116.77 369,-55.25 364,-46.66 358.2,-37.33 353.18,-29.43"/>
<polygon fill="#63b8ff" stroke="#63b8ff" points="356.13,-27.55 347.79,-21.02 350.24,-31.33 356.13,-27.55"/>
</a>
</g>
</g>
<!-- Node10 -->
<g id="Node000010" class="node">
<title>Node10</title>
<g id="a_Node000010"><a xlink:href="type_8hpp.xhtml" target="_top" xlink:title=" ">
<polygon fill="white" stroke="#666666" points="359.5,-190.62 232.5,-190.62 232.5,-171.38 359.5,-171.38 359.5,-190.62"/>
<text text-anchor="middle" x="296" y="-177.12" font-family="Helvetica,sans-Serif" font-size="10.00">fcarouge/internal/type.hpp</text>
</a>
</g>
</g>
<!-- Node9&#45;&gt;Node10 -->
<g id="edge10_Node000009_Node000010" class="edge">
<title>Node9&#45;&gt;Node10</title>
<g id="a_edge10_Node000009_Node000010"><a xlink:title=" ">
<path fill="none" stroke="#63b8ff" d="M502.41,-231.8C460.05,-221.58 391.06,-204.94 344.63,-193.73"/>
<polygon fill="#63b8ff" stroke="#63b8ff" points="345.65,-190.38 335.1,-191.44 344,-197.18 345.65,-190.38"/>
</a>
</g>
</g>
<!-- Node13 -->
<g id="Node000013" class="node">
<title>Node13</title>
<g id="a_Node000013"><a xlink:href="x__z__p__q__r__h__f_8hpp.xhtml" target="_top" xlink:title=" ">
<polygon fill="white" stroke="#666666" points="663.75,-196.25 568.25,-196.25 568.25,-165.75 663.75,-165.75 663.75,-196.25"/>
<text text-anchor="start" x="576.25" y="-182.75" font-family="Helvetica,sans-Serif" font-size="10.00">fcarouge/internal/x</text>
<text text-anchor="middle" x="616" y="-171.5" font-family="Helvetica,sans-Serif" font-size="10.00">_z_p_q_r_h_f.hpp</text>
</a>
</g>
</g>
<!-- Node9&#45;&gt;Node13 -->
<g id="edge15_Node000009_Node000013" class="edge">
<title>Node9&#45;&gt;Node13</title>
<g id="a_edge15_Node000009_Node000013"><a xlink:title=" ">
<path fill="none" stroke="#63b8ff" d="M551.54,-231.93C561.3,-224.37 575.68,-213.24 588.38,-203.4"/>
<polygon fill="#63b8ff" stroke="#63b8ff" points="590.28,-206.35 596.04,-197.46 586,-200.82 590.28,-206.35"/>
</a>
</g>
</g>
<!-- Node14 -->
<g id="Node000014" class="node">
<title>Node14</title>
<g id="a_Node000014"><a xlink:href="x__z__p__q__r__hh__us__ps_8hpp.xhtml" target="_top" xlink:title=" ">
<polygon fill="white" stroke="#666666" points="1087.12,-196.25 966.88,-196.25 966.88,-165.75 1087.12,-165.75 1087.12,-196.25"/>
<text text-anchor="start" x="974.88" y="-182.75" font-family="Helvetica,sans-Serif" font-size="10.00">fcarouge/internal/x</text>
<text text-anchor="middle" x="1027" y="-171.5" font-family="Helvetica,sans-Serif" font-size="10.00">_z_p_q_r_hh_us_ps.hpp</text>
</a>
</g>
</g>
<!-- Node9&#45;&gt;Node14 -->
<g id="edge17_Node000009_Node000014" class="edge">
<title>Node9&#45;&gt;Node14</title>
<g id="a_edge17_Node000009_Node000014"><a xlink:title=" ">
<path fill="none" stroke="#63b8ff" d="M589.05,-235.25C598.02,-234.24 607.29,-233.2 616,-232.25 764.37,-216.02 805.08,-219.55 955.46,-196.55"/>
<polygon fill="#63b8ff" stroke="#63b8ff" points="955.64,-200.07 964.98,-195.08 954.57,-193.15 955.64,-200.07"/>
</a>
</g>
</g>
<!-- Node17 -->
<g id="Node000017" class="node">
<title>Node17</title>
<g id="a_Node000017"><a xlink:href="x__z__p__qq__rr__f_8hpp.xhtml" target="_top" xlink:title=" ">
<polygon fill="white" stroke="#666666" points="948.75,-196.25 853.25,-196.25 853.25,-165.75 948.75,-165.75 948.75,-196.25"/>
<text text-anchor="start" x="861.25" y="-182.75" font-family="Helvetica,sans-Serif" font-size="10.00">fcarouge/internal/x</text>
<text text-anchor="middle" x="901" y="-171.5" font-family="Helvetica,sans-Serif" font-size="10.00">_z_p_qq_rr_f.hpp</text>
</a>
</g>
</g>
<!-- Node9&#45;&gt;Node17 -->
<g id="edge22_Node000009_Node000017" class="edge">
<title>Node9&#45;&gt;Node17</title>
<g id="a_edge22_Node000009_Node000017"><a xlink:title=" ">
<path fill="none" stroke="#63b8ff" d="M589.13,-235.28C647.33,-228.3 747.4,-215.2 841.65,-196.81"/>
<polygon fill="#63b8ff" stroke="#63b8ff" points="842.19,-200.27 851.32,-194.9 840.84,-193.4 842.19,-200.27"/>
</a>
</g>
</g>
<!-- Node18 -->
<g id="Node000018" class="node">
<title>Node18</title>
<g id="a_Node000018"><a xlink:href="x__z__p__r__f_8hpp.xhtml" target="_top" xlink:title=" ">
<polygon fill="white" stroke="#666666" points="549.75,-196.25 454.25,-196.25 454.25,-165.75 549.75,-165.75 549.75,-196.25"/>
<text text-anchor="start" x="462.25" y="-182.75" font-family="Helvetica,sans-Serif" font-size="10.00">fcarouge/internal/x</text>
<text text-anchor="middle" x="502" y="-171.5" font-family="Helvetica,sans-Serif" font-size="10.00">_z_p_r_f.hpp</text>
</a>
</g>
</g>
<!-- Node9&#45;&gt;Node18 -->
<g id="edge26_Node000009_Node000018" class="edge">
<title>Node9&#45;&gt;Node18</title>
<g id="a_edge26_Node000009_Node000018"><a xlink:title=" ">
<path fill="none" stroke="#63b8ff" d="M534.23,-231.93C529.78,-225.04 523.4,-215.16 517.49,-206"/>
<polygon fill="#63b8ff" stroke="#63b8ff" points="520.56,-204.31 512.2,-197.8 514.68,-208.1 520.56,-204.31"/>
</a>
</g>
</g>
<!-- Node19 -->
<g id="Node000019" class="node">
<title>Node19</title>
<g id="a_Node000019"><a xlink:href="x__z__u__p__q__r__f__g__ps_8hpp.xhtml" target="_top" xlink:title=" ">
<polygon fill="white" stroke="#666666" points="1223,-196.25 1105,-196.25 1105,-165.75 1223,-165.75 1223,-196.25"/>
<text text-anchor="start" x="1113" y="-182.75" font-family="Helvetica,sans-Serif" font-size="10.00">fcarouge/internal/x</text>
<text text-anchor="middle" x="1164" y="-171.5" font-family="Helvetica,sans-Serif" font-size="10.00">_z_u_p_q_r_f_g_ps.hpp</text>
</a>
</g>
</g>
<!-- Node9&#45;&gt;Node19 -->
<g id="edge28_Node000009_Node000019" class="edge">
<title>Node9&#45;&gt;Node19</title>
<g id="a_edge28_Node000009_Node000019"><a xlink:title=" ">
<path fill="none" stroke="#63b8ff" d="M589.03,-235.03C598,-234.04 607.27,-233.07 616,-232.25 825.35,-212.53 882.25,-225.78 1093.58,-196.47"/>
<polygon fill="#63b8ff" stroke="#63b8ff" points="1093.83,-199.96 1103.24,-195.11 1092.85,-193.03 1093.83,-199.96"/>
</a>
</g>
</g>
<!-- Node20 -->
<g id="Node000020" class="node">
<title>Node20</title>
<g id="a_Node000020"><a xlink:href="x__z__u__p__q__r__us__ps_8hpp.xhtml" target="_top" xlink:title=" ">
<polygon fill="white" stroke="#666666" points="835.5,-196.25 720.5,-196.25 720.5,-165.75 835.5,-165.75 835.5,-196.25"/>
<text text-anchor="start" x="728.5" y="-182.75" font-family="Helvetica,sans-Serif" font-size="10.00">fcarouge/internal/x</text>
<text text-anchor="middle" x="778" y="-171.5" font-family="Helvetica,sans-Serif" font-size="10.00">_z_u_p_q_r_us_ps.hpp</text>
</a>
</g>
</g>
<!-- Node9&#45;&gt;Node20 -->
<g id="edge32_Node000009_Node000020" class="edge">
<title>Node9&#45;&gt;Node20</title>
<g id="a_edge32_Node000009_Node000020"><a xlink:title=" ">
<path fill="none" stroke="#63b8ff" d="M576.67,-231.8C611.93,-223.08 666.12,-209.68 709.4,-198.97"/>
<polygon fill="#63b8ff" stroke="#63b8ff" points="710.1,-202.4 718.96,-196.6 708.41,-195.61 710.1,-202.4"/>
</a>
</g>
</g>
<!-- Node10&#45;&gt;Node4 -->
<g id="edge14_Node000010_Node000004" class="edge">
<title>Node10&#45;&gt;Node4</title>
<g id="a_edge14_Node000010_Node000004"><a xlink:title=" ">
<path fill="none" stroke="#63b8ff" d="M287.46,-170.95C278.21,-161.05 263.17,-144.61 251,-129.75 222.51,-94.95 191.58,-52.34 174.72,-28.67"/>
<polygon fill="#63b8ff" stroke="#63b8ff" points="177.73,-26.87 169.09,-20.73 172.02,-30.91 177.73,-26.87"/>
</a>
</g>
</g>
<!-- Node10&#45;&gt;Node11 -->
<g id="edge11_Node000010_Node000011" class="edge">
<title>Node10&#45;&gt;Node11</title>
<g id="a_edge11_Node000010_Node000011"><a xlink:title=" ">
<path fill="none" stroke="#63b8ff" d="M351.15,-170.93C416.79,-160.14 526,-142.18 593.78,-131.03"/>
<polygon fill="#63b8ff" stroke="#63b8ff" points="594.32,-134.49 603.62,-129.41 593.19,-127.58 594.32,-134.49"/>
</a>
</g>
</g>
<!-- Node12 -->
<g id="Node000012" class="node">
<title>Node12</title>
<g id="a_Node000012"><a xlink:title=" ">
<polygon fill="#e0e0e0" stroke="#999999" points="331.75,-129.75 260.25,-129.75 260.25,-110.5 331.75,-110.5 331.75,-129.75"/>
<text text-anchor="middle" x="296" y="-116.25" font-family="Helvetica,sans-Serif" font-size="10.00">initializer_list</text>
</a>
</g>
</g>
<!-- Node10&#45;&gt;Node12 -->
<g id="edge13_Node000010_Node000012" class="edge">
<title>Node10&#45;&gt;Node12</title>
<g id="a_edge13_Node000010_Node000012"><a xlink:title=" ">
<path fill="none" stroke="#63b8ff" d="M296,-171.06C296,-163.28 296,-151.7 296,-141.66"/>
<polygon fill="#63b8ff" stroke="#63b8ff" points="299.5,-141.66 296,-131.66 292.5,-141.66 299.5,-141.66"/>
</a>
</g>
</g>
<!-- Node11&#45;&gt;Node5 -->
<g id="edge12_Node000011_Node000005" class="edge">
<title>Node11&#45;&gt;Node5</title>
<g id="a_edge12_Node000011_Node000005"><a xlink:title=" ">
<path fill="none" stroke="#63b8ff" d="M605.07,-111.89C543.58,-102.79 437.5,-87.1 366.55,-76.61"/>
<polygon fill="#63b8ff" stroke="#63b8ff" points="367.38,-73.19 356.97,-75.19 366.35,-80.12 367.38,-73.19"/>
</a>
</g>
</g>
<!-- Node13&#45;&gt;Node11 -->
<g id="edge16_Node000013_Node000011" class="edge">
<title>Node13&#45;&gt;Node11</title>
<g id="a_edge16_Node000013_Node000011"><a xlink:title=" ">
<path fill="none" stroke="#63b8ff" d="M625.39,-165.45C630.4,-157.69 636.61,-148.06 641.97,-139.76"/>
<polygon fill="#63b8ff" stroke="#63b8ff" points="644.84,-141.77 647.32,-131.47 638.96,-137.98 644.84,-141.77"/>
</a>
</g>
</g>
<!-- Node14&#45;&gt;Node7 -->
<g id="edge21_Node000014_Node000007" class="edge">
<title>Node14&#45;&gt;Node7</title>
<g id="a_edge21_Node000014_Node000007"><a xlink:title=" ">
<path fill="none" stroke="#63b8ff" d="M1025.49,-165.51C1022.56,-141.57 1014.78,-92.67 997,-55.25 992.36,-45.49 985.36,-35.81 978.92,-27.98"/>
<polygon fill="#63b8ff" stroke="#63b8ff" points="981.71,-25.86 972.52,-20.59 976.42,-30.44 981.71,-25.86"/>
</a>
</g>
</g>
<!-- Node14&#45;&gt;Node11 -->
<g id="edge18_Node000014_Node000011" class="edge">
<title>Node14&#45;&gt;Node11</title>
<g id="a_edge18_Node000014_Node000011"><a xlink:title=" ">
<path fill="none" stroke="#63b8ff" d="M966.46,-167.29C963.6,-166.76 960.77,-166.24 958,-165.75 873.73,-150.88 775.71,-137.12 714.26,-128.92"/>
<polygon fill="#63b8ff" stroke="#63b8ff" points="714.72,-125.45 704.34,-127.61 713.8,-132.39 714.72,-125.45"/>
</a>
</g>
</g>
<!-- Node15 -->
<g id="Node000015" class="node">
<title>Node15</title>
<g id="a_Node000015"><a xlink:href="function_8hpp.xhtml" target="_top" xlink:title=" ">
<polygon fill="white" stroke="#666666" points="997.25,-129.75 928.75,-129.75 928.75,-110.5 997.25,-110.5 997.25,-129.75"/>
<text text-anchor="middle" x="963" y="-116.25" font-family="Helvetica,sans-Serif" font-size="10.00">function.hpp</text>
</a>
</g>
</g>
<!-- Node14&#45;&gt;Node15 -->
<g id="edge19_Node000014_Node000015" class="edge">
<title>Node14&#45;&gt;Node15</title>
<g id="a_edge19_Node000014_Node000015"><a xlink:title=" ">
<path fill="none" stroke="#63b8ff" d="M1011.18,-165.45C1002.09,-157.09 990.64,-146.55 981.18,-137.85"/>
<polygon fill="#63b8ff" stroke="#63b8ff" points="983.71,-135.42 973.98,-131.23 978.97,-140.57 983.71,-135.42"/>
</a>
</g>
</g>
<!-- Node16 -->
<g id="Node000016" class="node">
<title>Node16</title>
<g id="a_Node000016"><a xlink:title=" ">
<polygon fill="#e0e0e0" stroke="#999999" points="988.25,-74.5 937.75,-74.5 937.75,-55.25 988.25,-55.25 988.25,-74.5"/>
<text text-anchor="middle" x="963" y="-61" font-family="Helvetica,sans-Serif" font-size="10.00">memory</text>
</a>
</g>
</g>
<!-- Node15&#45;&gt;Node16 -->
<g id="edge20_Node000015_Node000016" class="edge">
<title>Node15&#45;&gt;Node16</title>
<g id="a_edge20_Node000015_Node000016"><a xlink:title=" ">
<path fill="none" stroke="#63b8ff" d="M963,-110.33C963,-103.82 963,-94.67 963,-86.37"/>
<polygon fill="#63b8ff" stroke="#63b8ff" points="966.5,-86.37 963,-76.37 959.5,-86.37 966.5,-86.37"/>
</a>
</g>
</g>
<!-- Node17&#45;&gt;Node7 -->
<g id="edge25_Node000017_Node000007" class="edge">
<title>Node17&#45;&gt;Node7</title>
<g id="a_edge25_Node000017_Node000007"><a xlink:title=" ">
<path fill="none" stroke="#63b8ff" d="M902.23,-165.51C904.69,-141.57 911.57,-92.67 929,-55.25 933.56,-45.46 940.55,-35.77 947.01,-27.94"/>
<polygon fill="#63b8ff" stroke="#63b8ff" points="949.5,-30.41 953.43,-20.57 944.23,-25.81 949.5,-30.41"/>
</a>
</g>
</g>
<!-- Node17&#45;&gt;Node11 -->
<g id="edge23_Node000017_Node000011" class="edge">
<title>Node17&#45;&gt;Node11</title>
<g id="a_edge23_Node000017_Node000011"><a xlink:title=" ">
<path fill="none" stroke="#63b8ff" d="M852.75,-167.66C850.13,-167.01 847.53,-166.37 845,-165.75 797.58,-154.18 743.38,-141.57 704.86,-132.72"/>
<polygon fill="#63b8ff" stroke="#63b8ff" points="705.93,-129.38 695.4,-130.55 704.37,-136.2 705.93,-129.38"/>
</a>
</g>
</g>
<!-- Node17&#45;&gt;Node15 -->
<g id="edge24_Node000017_Node000015" class="edge">
<title>Node17&#45;&gt;Node15</title>
<g id="a_edge24_Node000017_Node000015"><a xlink:title=" ">
<path fill="none" stroke="#63b8ff" d="M916.33,-165.45C925.04,-157.17 936,-146.77 945.1,-138.12"/>
<polygon fill="#63b8ff" stroke="#63b8ff" points="947.5,-140.67 952.34,-131.24 942.68,-135.59 947.5,-140.67"/>
</a>
</g>
</g>
<!-- Node18&#45;&gt;Node11 -->
<g id="edge27_Node000018_Node000011" class="edge">
<title>Node18&#45;&gt;Node11</title>
<g id="a_edge27_Node000018_Node000011"><a xlink:title=" ">
<path fill="none" stroke="#63b8ff" d="M539.96,-165.3C564.56,-155.77 596.31,-143.47 620.07,-134.27"/>
<polygon fill="#63b8ff" stroke="#63b8ff" points="621.22,-137.58 629.28,-130.7 618.69,-131.05 621.22,-137.58"/>
</a>
</g>
</g>
<!-- Node19&#45;&gt;Node7 -->
<g id="edge31_Node000019_Node000007" class="edge">
<title>Node19&#45;&gt;Node7</title>
<g id="a_edge31_Node000019_Node000007"><a xlink:title=" ">
<path fill="none" stroke="#63b8ff" d="M1146.51,-165.27C1109.02,-133.67 1021.15,-59.63 982.19,-26.79"/>
<polygon fill="#63b8ff" stroke="#63b8ff" points="984.87,-24.48 974.97,-20.71 980.36,-29.83 984.87,-24.48"/>
</a>
</g>
</g>
<!-- Node19&#45;&gt;Node11 -->
<g id="edge29_Node000019_Node000011" class="edge">
<title>Node19&#45;&gt;Node11</title>
<g id="a_edge29_Node000019_Node000011"><a xlink:title=" ">
<path fill="none" stroke="#63b8ff" d="M1104.73,-167.19C1101.78,-166.68 1098.86,-166.19 1096,-165.75 960.28,-144.74 799.52,-131.37 714.22,-125.17"/>
<polygon fill="#63b8ff" stroke="#63b8ff" points="714.68,-121.7 704.45,-124.47 714.17,-128.68 714.68,-121.7"/>
</a>
</g>
</g>
<!-- Node19&#45;&gt;Node15 -->
<g id="edge30_Node000019_Node000015" class="edge">
<title>Node19&#45;&gt;Node15</title>
<g id="a_edge30_Node000019_Node000015"><a xlink:title=" ">
<path fill="none" stroke="#63b8ff" d="M1113.8,-165.3C1080.2,-155.45 1036.5,-142.65 1004.8,-133.37"/>
<polygon fill="#63b8ff" stroke="#63b8ff" points="1006.15,-130.12 995.57,-130.67 1004.19,-136.84 1006.15,-130.12"/>
</a>
</g>
</g>
<!-- Node20&#45;&gt;Node7 -->
<g id="edge35_Node000020_Node000007" class="edge">
<title>Node20&#45;&gt;Node7</title>
<g id="a_edge35_Node000020_Node000007"><a xlink:title=" ">
<path fill="none" stroke="#63b8ff" d="M794.09,-165.27C828.46,-133.81 908.79,-60.25 944.88,-27.21"/>
<polygon fill="#63b8ff" stroke="#63b8ff" points="946.92,-30.09 951.93,-20.76 942.19,-24.93 946.92,-30.09"/>
</a>
</g>
</g>
<!-- Node20&#45;&gt;Node11 -->
<g id="edge33_Node000020_Node000011" class="edge">
<title>Node20&#45;&gt;Node11</title>
<g id="a_edge33_Node000020_Node000011"><a xlink:title=" ">
<path fill="none" stroke="#63b8ff" d="M747.03,-165.3C727.51,-156.03 702.46,-144.13 683.27,-135.02"/>
<polygon fill="#63b8ff" stroke="#63b8ff" points="684.92,-131.93 674.38,-130.8 681.92,-138.25 684.92,-131.93"/>
</a>
</g>
</g>
<!-- Node20&#45;&gt;Node15 -->
<g id="edge34_Node000020_Node000015" class="edge">
<title>Node20&#45;&gt;Node15</title>
<g id="a_edge34_Node000020_Node000015"><a xlink:title=" ">
<path fill="none" stroke="#63b8ff" d="M824.21,-165.3C854.86,-155.54 894.65,-142.88 923.76,-133.61"/>
<polygon fill="#63b8ff" stroke="#63b8ff" points="924.45,-137.07 932.91,-130.7 922.32,-130.4 924.45,-137.07"/>
</a>
</g>
</g>
<!-- Node21&#45;&gt;Node7 -->
<g id="edge42_Node000021_Node000007" class="edge">
<title>Node21&#45;&gt;Node7</title>
<g id="a_edge42_Node000021_Node000007"><a xlink:title=" ">
<path fill="none" stroke="#63b8ff" d="M721.38,-233.37C724.63,-232.96 727.86,-232.58 731,-232.25 793.33,-225.63 1251.11,-241.97 1294,-196.25 1390.93,-92.93 1091.49,-32.21 993.17,-15.43"/>
<polygon fill="#63b8ff" stroke="#63b8ff" points="993.89,-12 983.45,-13.8 992.74,-18.9 993.89,-12"/>
</a>
</g>
</g>
<!-- Node21&#45;&gt;Node11 -->
<g id="edge39_Node000021_Node000011" class="edge">
<title>Node21&#45;&gt;Node11</title>
<g id="a_edge39_Node000021_Node000011"><a xlink:title=" ">
<path fill="none" stroke="#63b8ff" d="M674.14,-231.97C675.7,-217.79 677.8,-189.26 673,-165.75 671.21,-156.99 667.64,-147.82 664.07,-140.09"/>
<polygon fill="#63b8ff" stroke="#63b8ff" points="667.32,-138.75 659.73,-131.36 661.05,-141.87 667.32,-138.75"/>
</a>
</g>
</g>
<!-- Node21&#45;&gt;Node22 -->
<g id="edge40_Node000021_Node000022" class="edge">
<title>Node21&#45;&gt;Node22</title>
<g id="a_edge40_Node000021_Node000022"><a xlink:title=" ">
<path fill="none" stroke="#63b8ff" d="M721.36,-233.78C725.96,-233.21 730.57,-232.69 735,-232.25 997.29,-206.07 1069.18,-251.14 1327,-196.25 1329.17,-195.79 1331.38,-195.22 1333.59,-194.59"/>
<polygon fill="#63b8ff" stroke="#63b8ff" points="1334.61,-197.94 1342.99,-191.46 1332.4,-191.3 1334.61,-197.94"/>
</a>
</g>
</g>
<!-- Node23 -->
<g id="Node000023" class="node">
<title>Node23</title>
<g id="a_Node000023"><a xlink:title=" ">
<polygon fill="#e0e0e0" stroke="#999999" points="1284.88,-190.62 1241.12,-190.62 1241.12,-171.38 1284.88,-171.38 1284.88,-190.62"/>
<text text-anchor="middle" x="1263" y="-177.12" font-family="Helvetica,sans-Serif" font-size="10.00">format</text>
</a>
</g>
</g>
<!-- Node21&#45;&gt;Node23 -->
<g id="edge41_Node000021_Node000023" class="edge">
<title>Node21&#45;&gt;Node23</title>
<g id="a_edge41_Node000021_Node000023"><a xlink:title=" ">
<path fill="none" stroke="#63b8ff" d="M721.36,-233.83C725.97,-233.26 730.57,-232.72 735,-232.25 955.24,-208.98 1017.5,-251.38 1232,-196.25 1233.18,-195.95 1234.36,-195.6 1235.55,-195.22"/>
<polygon fill="#63b8ff" stroke="#63b8ff" points="1236.58,-198.58 1244.61,-191.68 1234.03,-192.06 1236.58,-198.58"/>
</a>
</g>
</g>
<!-- Node25 -->
<g id="Node000025" class="node">
<title>Node25</title>
<g id="a_Node000025"><a xlink:title=" ">
<polygon fill="#e0e0e0" stroke="#999999" points="176.38,-190.62 141.62,-190.62 141.62,-171.38 176.38,-171.38 176.38,-190.62"/>
<text text-anchor="middle" x="159" y="-177.12" font-family="Helvetica,sans-Serif" font-size="10.00">print</text>
</a>
</g>
</g>
<!-- Node24&#45;&gt;Node25 -->
<g id="edge44_Node000024_Node000025" class="edge">
<title>Node24&#45;&gt;Node25</title>
<g id="a_edge44_Node000024_Node000025"><a xlink:title=" ">
<path fill="none" stroke="#63b8ff" d="M232.79,-231.93C219.25,-222.77 197.93,-208.34 181.68,-197.35"/>
<polygon fill="#63b8ff" stroke="#63b8ff" points="183.83,-194.58 173.59,-191.87 179.91,-200.38 183.83,-194.58"/>
</a>
</g>
</g>
</g>
</svg>

<g id="navigator" transform="translate(0 0)" fill="#404254">
  <rect fill="#f2f5e9" fill-opacity="0.5" stroke="#606060" stroke-width=".5" x="0" y="0" width="60" height="60"/>
  <use id="zoomplus" xlink:href="#zoomPlus" x="17" y="9" onmousedown="handleZoom(evt,'in')"/>
  <use id="zoomminus" xlink:href="#zoomMin" x="42" y="9" onmousedown="handleZoom(evt,'out')"/>
  <use id="reset" xlink:href="#resetDef" x="30" y="36" onmousedown="handleReset()"/>
   <use id="arrowup" xlink:href="#arrowUp" x="0" y="0" onmousedown="handlePan(0,-1)"/>
  <use id="arrowright" xlink:href="#arrowRight" x="0" y="0" onmousedown="handlePan(1,0)"/>
  <use id="arrowdown" xlink:href="#arrowDown" x="0" y="0" onmousedown="handlePan(0,1)"/>
  <use id="arrowleft" xlink:href="#arrowLeft" x="0" y="0" onmousedown="handlePan(-1,0)"/>
</g>
<svg viewBox="0 0 15 15" width="100%" height="30px" preserveAspectRatio="xMaxYMin meet">
 <g id="arrow_out" transform="scale(0.3 0.3)">
  <a xlink:href="predict__linalg__x1x_8cpp__incl_org.svg" target="_base">
   <rect id="button" ry="5" rx="5" y="6" x="6" height="38" width="38"
        fill="#f2f5e9" fill-opacity="0.5" stroke="#606060" stroke-width="1.0"/>
   <path id="arrow"
     d="M 11.500037,31.436501 C 11.940474,20.09759 22.043105,11.32322 32.158766,21.979434 L 37.068811,17.246167 C 37.068811,17.246167 37.088388,32 37.088388,32 L 22.160133,31.978069 C 22.160133,31.978069 26.997745,27.140456 26.997745,27.140456 C 18.528582,18.264221 13.291696,25.230495 11.500037,31.436501 z"
     style="fill:#404040;"/>
  </a>
 </g>
</svg>

<style type='text/css'>
<![CDATA[
[data-mouse-over-selected='false'] { opacity: 0.7; }
[data-mouse-over-selected='true']  { opacity: 1.0; }
]]>
</style>
<script type="application/ecmascript"><![CDATA[
document.addEventListener('DOMContentLoaded', (event) => {
  highlightEdges();
  highlightAdjacentNodes();
});
]]></script>
</svg>
