<?xml version="1.0" encoding="UTF-8" standalone="no"?>
<!DOCTYPE svg PUBLIC "-//W3C//DTD SVG 1.1//EN"
 "http://www.w3.org/Graphics/SVG/1.1/DTD/svg11.dtd">
<!-- Generated by graphviz version 3.0.0 (20221109.1736)
 -->
<!-- Title: /github/workspace/benchmark/predict_linalg_x1x.cpp Pages: 1 -->
<!--zoomable 319 -->
<svg id="main" version="1.1" xmlns="http://www.w3.org/2000/svg" xmlns:xlink="http://www.w3.org/1999/xlink" xml:space="preserve" onload="init(evt)">
<style type="text/css"><![CDATA[
.edge:hover path { stroke: red; }
.edge:hover polygon { stroke: red; fill: red; }
]]></style>
<script type="text/javascript"><![CDATA[
var edges = document.getElementsByTagName('g');
if (edges && edges.length) {
  for (var i=0;i<edges.length;i++) {
    if (edges[i].id.substr(0,4)=='edge') {
      edges[i].setAttribute('class','edge');
    }
  }
}
]]></script>
        <defs>
                <circle id="rim" cx="0" cy="0" r="7"/>
                <circle id="rim2" cx="0" cy="0" r="3.5"/>
                <g id="zoomPlus">
                        <use xlink:href="#rim" fill="#404040">
                                <set attributeName="fill" to="#808080" begin="zoomplus.mouseover" end="zoomplus.mouseout"/>
                        </use>
                        <path d="M-4,0h8M0,-4v8" fill="none" stroke="white" stroke-width="1.5" pointer-events="none"/>
                </g>
                <g id="zoomMin">
                        <use xlink:href="#rim" fill="#404040">
                                <set attributeName="fill" to="#808080" begin="zoomminus.mouseover" end="zoomminus.mouseout"/>
                        </use>
                        <path d="M-4,0h8" fill="none" stroke="white" stroke-width="1.5" pointer-events="none"/>
                </g>
                <g id="dirArrow">
                        <path fill="none" stroke="white" stroke-width="1.5" d="M0,-3.0v7 M-2.5,-0.5L0,-3.0L2.5,-0.5"/>
                </g>
               <g id="resetDef">
                       <use xlink:href="#rim2" fill="#404040">
                               <set attributeName="fill" to="#808080" begin="reset.mouseover" end="reset.mouseout"/>
                       </use>
               </g>
        </defs>

<script type="text/javascript">
var viewWidth = 1477;
var viewHeight = 319;
var sectionId = 'dynsection-0';
</script>
<script xlink:href="svgpan.js"/>
<svg id="graph" class="graph">
<g id="viewport">
<title>/github/workspace/benchmark/predict_linalg_x1x.cpp</title>
<polygon fill="white" stroke="transparent" points="-4,4 -4,-315 1472.5,-315 1472.5,4 -4,4"/>
<!-- Node1 -->
<g id="node1" class="node">
<title>Node1</title>
<g id="a_node1"><a xlink:title=" ">
<polygon fill="#bfbfbf" stroke="black" points="936.5,-280.5 936.5,-310.5 1083.5,-310.5 1083.5,-280.5 936.5,-280.5"/>
<text text-anchor="start" x="944.5" y="-298.5" font-family="Helvetica,sans-Serif" font-size="10.00">/github/workspace/benchmark</text>
<text text-anchor="middle" x="1010" y="-287.5" font-family="Helvetica,sans-Serif" font-size="10.00">/predict_linalg_x1x.cpp</text>
</a>
</g>
</g>
<!-- Node2 -->
<g id="node2" class="node">
<title>Node2</title>
<g id="a_node2"><a xlink:href="benchmark_8hpp.xhtml" target="_top" xlink:title="Benchmarking support.">
<polygon fill="white" stroke="black" points="51.5,-224.5 51.5,-243.5 134.5,-243.5 134.5,-224.5 51.5,-224.5"/>
<text text-anchor="middle" x="93" y="-231.5" font-family="Helvetica,sans-Serif" font-size="10.00">benchmark.hpp</text>
</a>
</g>
</g>
<!-- Node1&#45;&gt;Node2 -->
<g id="edge1" class="edge">
<title>Node1&#45;&gt;Node2</title>
<path fill="none" stroke="midnightblue" d="M936.12,-289.71C756.35,-278.04 299.56,-248.4 145.02,-238.38"/>
<polygon fill="midnightblue" stroke="midnightblue" points="145.06,-234.87 134.85,-237.72 144.6,-241.86 145.06,-234.87"/>
</g>
<!-- Node3 -->
<g id="node3" class="node">
<title>Node3</title>
<g id="a_node3"><a xlink:title=" ">
<polygon fill="white" stroke="#bfbfbf" points="0,-168.5 0,-187.5 46,-187.5 46,-168.5 0,-168.5"/>
<text text-anchor="middle" x="23" y="-175.5" font-family="Helvetica,sans-Serif" font-size="10.00">chrono</text>
</a>
</g>
</g>
<!-- Node1&#45;&gt;Node3 -->
<g id="edge31" class="edge">
<title>Node1&#45;&gt;Node3</title>
<path fill="none" stroke="midnightblue" d="M936.36,-292.97C716.36,-288.1 76.93,-271.63 42,-244 28.33,-233.19 24.12,-213.11 23,-198.11"/>
<polygon fill="midnightblue" stroke="midnightblue" points="26.49,-197.75 22.64,-187.88 19.49,-198 26.49,-197.75"/>
</g>
<!-- Node5 -->
<g id="node5" class="node">
<title>Node5</title>
<g id="a_node5"><a xlink:href="internal_2utility_8hpp.xhtml" target="_top" xlink:title=" ">
<polygon fill="white" stroke="black" points="598,-56.5 598,-75.5 730,-75.5 730,-56.5 598,-56.5"/>
<text text-anchor="middle" x="664" y="-63.5" font-family="Helvetica,sans-Serif" font-size="10.00">fcarouge/internal/utility.hpp</text>
</a>
</g>
</g>
<!-- Node1&#45;&gt;Node5 -->
<g id="edge4" class="edge">
<title>Node1&#45;&gt;Node5</title>
<path fill="none" stroke="midnightblue" d="M952.4,-280.48C930.12,-272.72 905.76,-261.08 888,-244 861.2,-218.22 878.64,-194.94 853,-168 829.15,-142.95 814.54,-148.24 784,-132 750.94,-114.42 712.97,-93.78 688.75,-80.55"/>
<polygon fill="midnightblue" stroke="midnightblue" points="690.33,-77.43 679.87,-75.7 686.97,-83.57 690.33,-77.43"/>
</g>
<!-- Node7 -->
<g id="node7" class="node">
<title>Node7</title>
<g id="a_node7"><a xlink:href="kalman_8hpp.xhtml" target="_top" xlink:title="The Kalman filter class and library top&#45;level header.">
<polygon fill="white" stroke="black" points="464.5,-224.5 464.5,-243.5 571.5,-243.5 571.5,-224.5 464.5,-224.5"/>
<text text-anchor="middle" x="518" y="-231.5" font-family="Helvetica,sans-Serif" font-size="10.00">fcarouge/kalman.hpp</text>
</a>
</g>
</g>
<!-- Node1&#45;&gt;Node7 -->
<g id="edge7" class="edge">
<title>Node1&#45;&gt;Node7</title>
<path fill="none" stroke="midnightblue" d="M936.34,-285.59C840.06,-273.95 673,-253.75 581.84,-242.72"/>
<polygon fill="midnightblue" stroke="midnightblue" points="582,-239.21 571.65,-241.49 581.16,-246.16 582,-239.21"/>
</g>
<!-- Node16 -->
<g id="node16" class="node">
<title>Node16</title>
<g id="a_node16"><a xlink:title=" ">
<polygon fill="white" stroke="#bfbfbf" points="795.5,-168.5 795.5,-187.5 844.5,-187.5 844.5,-168.5 795.5,-168.5"/>
<text text-anchor="middle" x="820" y="-175.5" font-family="Helvetica,sans-Serif" font-size="10.00">cstddef</text>
</a>
</g>
</g>
<!-- Node1&#45;&gt;Node16 -->
<g id="edge33" class="edge">
<title>Node1&#45;&gt;Node16</title>
<path fill="none" stroke="midnightblue" d="M936.43,-282.61C908.56,-275.2 878.02,-263.23 855,-244 840.44,-231.83 831.01,-212 825.65,-197.43"/>
<polygon fill="midnightblue" stroke="midnightblue" points="828.96,-196.3 822.45,-187.94 822.33,-198.54 828.96,-196.3"/>
</g>
<!-- Node20 -->
<g id="node20" class="node">
<title>Node20</title>
<g id="a_node20"><a xlink:href="linalg_8hpp.xhtml" target="_top" xlink:title="Linear algebra facade for Eigen3 third party implementation.">
<polygon fill="white" stroke="black" points="897,-224.5 897,-243.5 995,-243.5 995,-224.5 897,-224.5"/>
<text text-anchor="middle" x="946" y="-231.5" font-family="Helvetica,sans-Serif" font-size="10.00">fcarouge/linalg.hpp</text>
</a>
</g>
</g>
<!-- Node1&#45;&gt;Node20 -->
<g id="edge26" class="edge">
<title>Node1&#45;&gt;Node20</title>
<path fill="none" stroke="midnightblue" d="M994.83,-280.4C985.25,-271.49 972.84,-259.95 962.93,-250.74"/>
<polygon fill="midnightblue" stroke="midnightblue" points="965.02,-247.9 955.31,-243.66 960.25,-253.03 965.02,-247.9"/>
</g>
<!-- Node22 -->
<g id="node22" class="node">
<title>Node22</title>
<g id="a_node22"><a xlink:title=" ">
<polygon fill="white" stroke="#bfbfbf" points="1013.5,-224.5 1013.5,-243.5 1136.5,-243.5 1136.5,-224.5 1013.5,-224.5"/>
<text text-anchor="middle" x="1075" y="-231.5" font-family="Helvetica,sans-Serif" font-size="10.00">benchmark/benchmark.h</text>
</a>
</g>
</g>
<!-- Node1&#45;&gt;Node22 -->
<g id="edge29" class="edge">
<title>Node1&#45;&gt;Node22</title>
<path fill="none" stroke="midnightblue" d="M1025.4,-280.4C1035.24,-271.4 1047.99,-259.72 1058.11,-250.47"/>
<polygon fill="midnightblue" stroke="midnightblue" points="1060.53,-252.99 1065.54,-243.66 1055.8,-247.83 1060.53,-252.99"/>
</g>
<!-- Node23 -->
<g id="node23" class="node">
<title>Node23</title>
<g id="a_node23"><a xlink:title=" ">
<polygon fill="white" stroke="#bfbfbf" points="1155,-224.5 1155,-243.5 1211,-243.5 1211,-224.5 1155,-224.5"/>
<text text-anchor="middle" x="1183" y="-231.5" font-family="Helvetica,sans-Serif" font-size="10.00">algorithm</text>
</a>
</g>
</g>
<!-- Node1&#45;&gt;Node23 -->
<g id="edge30" class="edge">
<title>Node1&#45;&gt;Node23</title>
<path fill="none" stroke="midnightblue" d="M1051,-280.4C1080.63,-270.21 1120.23,-256.59 1148.3,-246.93"/>
<polygon fill="midnightblue" stroke="midnightblue" points="1149.76,-250.13 1158.08,-243.57 1147.48,-243.51 1149.76,-250.13"/>
</g>
<!-- Node24 -->
<g id="node24" class="node">
<title>Node24</title>
<g id="a_node24"><a xlink:title=" ">
<polygon fill="white" stroke="#bfbfbf" points="1229,-224.5 1229,-243.5 1273,-243.5 1273,-224.5 1229,-224.5"/>
<text text-anchor="middle" x="1251" y="-231.5" font-family="Helvetica,sans-Serif" font-size="10.00">cmath</text>
</a>
</g>
</g>
<!-- Node1&#45;&gt;Node24 -->
<g id="edge32" class="edge">
<title>Node1&#45;&gt;Node24</title>
<path fill="none" stroke="midnightblue" d="M1071.76,-280.45C1111.32,-271.26 1163.97,-258.69 1218.79,-244.24"/>
<polygon fill="midnightblue" stroke="midnightblue" points="1219.91,-247.56 1228.68,-241.61 1218.12,-240.79 1219.91,-247.56"/>
</g>
<!-- Node25 -->
<g id="node25" class="node">
<title>Node25</title>
<g id="a_node25"><a xlink:title=" ">
<polygon fill="white" stroke="#bfbfbf" points="1291,-224.5 1291,-243.5 1337,-243.5 1337,-224.5 1291,-224.5"/>
<text text-anchor="middle" x="1314" y="-231.5" font-family="Helvetica,sans-Serif" font-size="10.00">cstdint</text>
</a>
</g>
</g>
<!-- Node1&#45;&gt;Node25 -->
<g id="edge34" class="edge">
<title>Node1&#45;&gt;Node25</title>
<path fill="none" stroke="midnightblue" d="M1083.68,-282.68C1136.25,-273.81 1208.79,-260.71 1281.24,-244.01"/>
<polygon fill="midnightblue" stroke="midnightblue" points="1282.05,-247.42 1290.99,-241.74 1280.46,-240.6 1282.05,-247.42"/>
</g>
<!-- Node26 -->
<g id="node26" class="node">
<title>Node26</title>
<g id="a_node26"><a xlink:title=" ">
<polygon fill="white" stroke="#bfbfbf" points="1355,-224.5 1355,-243.5 1401,-243.5 1401,-224.5 1355,-224.5"/>
<text text-anchor="middle" x="1378" y="-231.5" font-family="Helvetica,sans-Serif" font-size="10.00">cstring</text>
</a>
</g>
</g>
<!-- Node1&#45;&gt;Node26 -->
<g id="edge35" class="edge">
<title>Node1&#45;&gt;Node26</title>
<path fill="none" stroke="midnightblue" d="M1083.56,-286.13C1149.68,-278 1249.56,-264.2 1344.86,-244.03"/>
<polygon fill="midnightblue" stroke="midnightblue" points="1345.62,-247.44 1354.67,-241.93 1344.15,-240.6 1345.62,-247.44"/>
</g>
<!-- Node27 -->
<g id="node27" class="node">
<title>Node27</title>
<g id="a_node27"><a xlink:title=" ">
<polygon fill="white" stroke="#bfbfbf" points="1419.5,-224.5 1419.5,-243.5 1468.5,-243.5 1468.5,-224.5 1419.5,-224.5"/>
<text text-anchor="middle" x="1444" y="-231.5" font-family="Helvetica,sans-Serif" font-size="10.00">random</text>
</a>
</g>
</g>
<!-- Node1&#45;&gt;Node27 -->
<g id="edge36" class="edge">
<title>Node1&#45;&gt;Node27</title>
<path fill="none" stroke="midnightblue" d="M1083.82,-288.15C1162.24,-280.74 1289.93,-266.75 1409.17,-243.92"/>
<polygon fill="midnightblue" stroke="midnightblue" points="1410.06,-247.31 1419.21,-241.97 1408.72,-240.44 1410.06,-247.31"/>
</g>
<!-- Node2&#45;&gt;Node3 -->
<g id="edge2" class="edge">
<title>Node2&#45;&gt;Node3</title>
<path fill="none" stroke="midnightblue" d="M81.75,-224.32C71.2,-216.18 55.2,-203.84 42.56,-194.09"/>
<polygon fill="midnightblue" stroke="midnightblue" points="44.51,-191.17 34.45,-187.83 40.23,-196.71 44.51,-191.17"/>
</g>
<!-- Node4 -->
<g id="node4" class="node">
<title>Node4</title>
<g id="a_node4"><a xlink:title=" ">
<polygon fill="white" stroke="#bfbfbf" points="127,-0.5 127,-19.5 189,-19.5 189,-0.5 127,-0.5"/>
<text text-anchor="middle" x="158" y="-7.5" font-family="Helvetica,sans-Serif" font-size="10.00">type_traits</text>
</a>
</g>
</g>
<!-- Node2&#45;&gt;Node4 -->
<g id="edge3" class="edge">
<title>Node2&#45;&gt;Node4</title>
<path fill="none" stroke="midnightblue" d="M90.74,-224.24C84.27,-197.28 68.03,-113.87 98,-56 104.92,-42.64 117.81,-32.17 129.88,-24.71"/>
<polygon fill="midnightblue" stroke="midnightblue" points="131.89,-27.59 138.84,-19.59 128.42,-21.51 131.89,-27.59"/>
</g>
<!-- Node5&#45;&gt;Node4 -->
<g id="edge6" class="edge">
<title>Node5&#45;&gt;Node4</title>
<path fill="none" stroke="midnightblue" d="M597.85,-57.94C491.79,-46.62 286.76,-24.74 199.23,-15.4"/>
<polygon fill="midnightblue" stroke="midnightblue" points="199.47,-11.91 189.15,-14.32 198.72,-18.87 199.47,-11.91"/>
</g>
<!-- Node6 -->
<g id="node6" class="node">
<title>Node6</title>
<g id="a_node6"><a xlink:title=" ">
<polygon fill="white" stroke="#bfbfbf" points="686,-0.5 686,-19.5 742,-19.5 742,-0.5 686,-0.5"/>
<text text-anchor="middle" x="714" y="-7.5" font-family="Helvetica,sans-Serif" font-size="10.00">concepts</text>
</a>
</g>
</g>
<!-- Node5&#45;&gt;Node6 -->
<g id="edge5" class="edge">
<title>Node5&#45;&gt;Node6</title>
<path fill="none" stroke="midnightblue" d="M672.26,-56.08C679.46,-48.3 690.11,-36.8 698.85,-27.37"/>
<polygon fill="midnightblue" stroke="midnightblue" points="701.67,-29.47 705.9,-19.75 696.53,-24.71 701.67,-29.47"/>
</g>
<!-- Node7&#45;&gt;Node4 -->
<g id="edge23" class="edge">
<title>Node7&#45;&gt;Node4</title>
<path fill="none" stroke="midnightblue" d="M464.34,-230.65C363.27,-225.68 152.79,-212.47 131,-188 90.74,-142.78 127.37,-63.91 147.2,-28.77"/>
<polygon fill="midnightblue" stroke="midnightblue" points="150.46,-30.12 152.49,-19.72 144.42,-26.59 150.46,-30.12"/>
</g>
<!-- Node7&#45;&gt;Node6 -->
<g id="edge20" class="edge">
<title>Node7&#45;&gt;Node6</title>
<path fill="none" stroke="midnightblue" d="M571.56,-230.12C632.14,-225.62 725.22,-214.48 747,-188 785.68,-140.98 746.4,-63.05 725.4,-28.46"/>
<polygon fill="midnightblue" stroke="midnightblue" points="728.09,-26.16 719.8,-19.56 722.16,-29.89 728.09,-26.16"/>
</g>
<!-- Node8 -->
<g id="node8" class="node">
<title>Node8</title>
<g id="a_node8"><a xlink:href="algorithm_8hpp.xhtml" target="_top" xlink:title="The collection of Kalman algorithms.">
<polygon fill="white" stroke="black" points="587,-168.5 587,-187.5 661,-187.5 661,-168.5 587,-168.5"/>
<text text-anchor="middle" x="624" y="-175.5" font-family="Helvetica,sans-Serif" font-size="10.00">algorithm.hpp</text>
</a>
</g>
</g>
<!-- Node7&#45;&gt;Node8 -->
<g id="edge8" class="edge">
<title>Node7&#45;&gt;Node8</title>
<path fill="none" stroke="midnightblue" d="M535.03,-224.32C552.03,-215.66 578.38,-202.24 597.99,-192.25"/>
<polygon fill="midnightblue" stroke="midnightblue" points="599.69,-195.31 607.01,-187.65 596.51,-189.08 599.69,-195.31"/>
</g>
<!-- Node9 -->
<g id="node9" class="node">
<title>Node9</title>
<g id="a_node9"><a xlink:href="format_8hpp.xhtml" target="_top" xlink:title=" ">
<polygon fill="white" stroke="black" points="313.5,-168.5 313.5,-187.5 410.5,-187.5 410.5,-168.5 313.5,-168.5"/>
<text text-anchor="middle" x="362" y="-175.5" font-family="Helvetica,sans-Serif" font-size="10.00">internal/format.hpp</text>
</a>
</g>
</g>
<!-- Node7&#45;&gt;Node9 -->
<g id="edge9" class="edge">
<title>Node7&#45;&gt;Node9</title>
<path fill="none" stroke="midnightblue" d="M493.28,-224.44C467.15,-215.4 425.74,-201.06 396.42,-190.92"/>
<polygon fill="midnightblue" stroke="midnightblue" points="397.2,-187.48 386.6,-187.52 394.91,-194.1 397.2,-187.48"/>
</g>
<!-- Node10 -->
<g id="node10" class="node">
<title>Node10</title>
<g id="a_node10"><a xlink:href="utility_8hpp.xhtml" target="_top" xlink:title="The collection of utilities supporting the library.">
<polygon fill="white" stroke="black" points="379,-112.5 379,-131.5 477,-131.5 477,-112.5 379,-112.5"/>
<text text-anchor="middle" x="428" y="-119.5" font-family="Helvetica,sans-Serif" font-size="10.00">fcarouge/utility.hpp</text>
</a>
</g>
</g>
<!-- Node7&#45;&gt;Node10 -->
<g id="edge19" class="edge">
<title>Node7&#45;&gt;Node10</title>
<path fill="none" stroke="midnightblue" d="M502.5,-224.37C489.26,-216.37 470.44,-203.39 458,-188 446.78,-174.12 438.71,-155.36 433.78,-141.56"/>
<polygon fill="midnightblue" stroke="midnightblue" points="436.99,-140.12 430.51,-131.74 430.35,-142.34 436.99,-140.12"/>
</g>
<!-- Node12 -->
<g id="node12" class="node">
<title>Node12</title>
<g id="a_node12"><a xlink:href="internal_2kalman_8hpp.xhtml" target="_top" xlink:title=" ">
<polygon fill="white" stroke="black" points="467.5,-168.5 467.5,-187.5 568.5,-187.5 568.5,-168.5 467.5,-168.5"/>
<text text-anchor="middle" x="518" y="-175.5" font-family="Helvetica,sans-Serif" font-size="10.00">internal/kalman.hpp</text>
</a>
</g>
</g>
<!-- Node7&#45;&gt;Node12 -->
<g id="edge14" class="edge">
<title>Node7&#45;&gt;Node12</title>
<path fill="none" stroke="midnightblue" d="M518,-224.08C518,-217.01 518,-206.86 518,-197.99"/>
<polygon fill="midnightblue" stroke="midnightblue" points="521.5,-197.75 518,-187.75 514.5,-197.75 521.5,-197.75"/>
</g>
<!-- Node7&#45;&gt;Node16 -->
<g id="edge21" class="edge">
<title>Node7&#45;&gt;Node16</title>
<path fill="none" stroke="midnightblue" d="M571.56,-224.76C624.82,-216.35 708.79,-202.5 781,-188 782.45,-187.71 783.92,-187.4 785.41,-187.09"/>
<polygon fill="midnightblue" stroke="midnightblue" points="786.27,-190.49 795.29,-184.93 784.77,-183.65 786.27,-190.49"/>
</g>
<!-- Node17 -->
<g id="node17" class="node">
<title>Node17</title>
<g id="a_node17"><a xlink:title=" ">
<polygon fill="white" stroke="#bfbfbf" points="679.5,-168.5 679.5,-187.5 738.5,-187.5 738.5,-168.5 679.5,-168.5"/>
<text text-anchor="middle" x="709" y="-175.5" font-family="Helvetica,sans-Serif" font-size="10.00">functional</text>
</a>
</g>
</g>
<!-- Node7&#45;&gt;Node17 -->
<g id="edge22" class="edge">
<title>Node7&#45;&gt;Node17</title>
<path fill="none" stroke="midnightblue" d="M548.26,-224.44C581.05,-215.17 633.49,-200.35 669.5,-190.17"/>
<polygon fill="midnightblue" stroke="midnightblue" points="670.52,-193.52 679.19,-187.43 668.62,-186.78 670.52,-193.52"/>
</g>
<!-- Node18 -->
<g id="node18" class="node">
<title>Node18</title>
<g id="a_node18"><a xlink:title=" ">
<polygon fill="white" stroke="#bfbfbf" points="140.5,-168.5 140.5,-187.5 179.5,-187.5 179.5,-168.5 140.5,-168.5"/>
<text text-anchor="middle" x="160" y="-175.5" font-family="Helvetica,sans-Serif" font-size="10.00">utility</text>
</a>
</g>
</g>
<!-- Node7&#45;&gt;Node18 -->
<g id="edge24" class="edge">
<title>Node7&#45;&gt;Node18</title>
<path fill="none" stroke="midnightblue" d="M464.24,-228.39C400.75,-222.35 291.89,-210.07 189.43,-187.74"/>
<polygon fill="midnightblue" stroke="midnightblue" points="190.06,-184.29 179.54,-185.54 188.54,-191.12 190.06,-184.29"/>
</g>
<!-- Node19 -->
<g id="node19" class="node">
<title>Node19</title>
<g id="a_node19"><a xlink:title=" ">
<polygon fill="white" stroke="#bfbfbf" points="198,-168.5 198,-187.5 296,-187.5 296,-168.5 198,-168.5"/>
<text text-anchor="middle" x="247" y="-175.5" font-family="Helvetica,sans-Serif" font-size="10.00">internal/kalman.tpp</text>
</a>
</g>
</g>
<!-- Node7&#45;&gt;Node19 -->
<g id="edge25" class="edge">
<title>Node7&#45;&gt;Node19</title>
<path fill="none" stroke="midnightblue" d="M475.06,-224.44C427.49,-214.96 350.76,-199.67 299.61,-189.48"/>
<polygon fill="midnightblue" stroke="midnightblue" points="300.23,-186.04 289.74,-187.52 298.86,-192.9 300.23,-186.04"/>
</g>
<!-- Node9&#45;&gt;Node4 -->
<g id="edge13" class="edge">
<title>Node9&#45;&gt;Node4</title>
<path fill="none" stroke="midnightblue" d="M351.32,-168.31C318.41,-141.53 218.26,-60.03 176.54,-26.09"/>
<polygon fill="midnightblue" stroke="midnightblue" points="178.54,-23.2 168.57,-19.61 174.12,-28.63 178.54,-23.2"/>
</g>
<!-- Node9&#45;&gt;Node10 -->
<g id="edge10" class="edge">
<title>Node9&#45;&gt;Node10</title>
<path fill="none" stroke="midnightblue" d="M372.6,-168.32C382.46,-160.26 397.35,-148.08 409.22,-138.37"/>
<polygon fill="midnightblue" stroke="midnightblue" points="411.68,-140.88 417.2,-131.83 407.25,-135.46 411.68,-140.88"/>
</g>
<!-- Node11 -->
<g id="node11" class="node">
<title>Node11</title>
<g id="a_node11"><a xlink:title=" ">
<polygon fill="white" stroke="#bfbfbf" points="317,-112.5 317,-131.5 361,-131.5 361,-112.5 317,-112.5"/>
<text text-anchor="middle" x="339" y="-119.5" font-family="Helvetica,sans-Serif" font-size="10.00">format</text>
</a>
</g>
</g>
<!-- Node9&#45;&gt;Node11 -->
<g id="edge12" class="edge">
<title>Node9&#45;&gt;Node11</title>
<path fill="none" stroke="midnightblue" d="M358.2,-168.08C355.09,-160.77 350.58,-150.18 346.71,-141.1"/>
<polygon fill="midnightblue" stroke="midnightblue" points="349.87,-139.58 342.73,-131.75 343.43,-142.32 349.87,-139.58"/>
</g>
<!-- Node10&#45;&gt;Node5 -->
<g id="edge11" class="edge">
<title>Node10&#45;&gt;Node5</title>
<path fill="none" stroke="midnightblue" d="M465.39,-112.44C506.39,-103.06 572.25,-87.99 616.78,-77.8"/>
<polygon fill="midnightblue" stroke="midnightblue" points="617.81,-81.16 626.78,-75.52 616.25,-74.34 617.81,-81.16"/>
</g>
<!-- Node12&#45;&gt;Node5 -->
<g id="edge17" class="edge">
<title>Node12&#45;&gt;Node5</title>
<path fill="none" stroke="midnightblue" d="M557.47,-168.46C580.79,-161.77 609.64,-150.42 630,-132 643.85,-119.47 652.99,-99.97 658.27,-85.6"/>
<polygon fill="midnightblue" stroke="midnightblue" points="661.69,-86.4 661.57,-75.8 655.06,-84.16 661.69,-86.4"/>
</g>
<!-- Node13 -->
<g id="node13" class="node">
<title>Node13</title>
<g id="a_node13"><a xlink:href="function_8hpp.xhtml" target="_top" xlink:title=" ">
<polygon fill="white" stroke="black" points="495.5,-112.5 495.5,-131.5 564.5,-131.5 564.5,-112.5 495.5,-112.5"/>
<text text-anchor="middle" x="530" y="-119.5" font-family="Helvetica,sans-Serif" font-size="10.00">function.hpp</text>
</a>
</g>
</g>
<!-- Node12&#45;&gt;Node13 -->
<g id="edge15" class="edge">
<title>Node12&#45;&gt;Node13</title>
<path fill="none" stroke="midnightblue" d="M519.98,-168.08C521.57,-160.93 523.86,-150.64 525.85,-141.69"/>
<polygon fill="midnightblue" stroke="midnightblue" points="529.3,-142.27 528.06,-131.75 522.47,-140.75 529.3,-142.27"/>
</g>
<!-- Node15 -->
<g id="node15" class="node">
<title>Node15</title>
<g id="a_node15"><a xlink:title=" ">
<polygon fill="white" stroke="#bfbfbf" points="583,-112.5 583,-131.5 621,-131.5 621,-112.5 583,-112.5"/>
<text text-anchor="middle" x="602" y="-119.5" font-family="Helvetica,sans-Serif" font-size="10.00">tuple</text>
</a>
</g>
</g>
<!-- Node12&#45;&gt;Node15 -->
<g id="edge18" class="edge">
<title>Node12&#45;&gt;Node15</title>
<path fill="none" stroke="midnightblue" d="M531.5,-168.32C544.6,-159.9 564.71,-146.97 580.11,-137.07"/>
<polygon fill="midnightblue" stroke="midnightblue" points="582.02,-140.01 588.54,-131.65 578.23,-134.12 582.02,-140.01"/>
</g>
<!-- Node14 -->
<g id="node14" class="node">
<title>Node14</title>
<g id="a_node14"><a xlink:title=" ">
<polygon fill="white" stroke="#bfbfbf" points="504.5,-56.5 504.5,-75.5 555.5,-75.5 555.5,-56.5 504.5,-56.5"/>
<text text-anchor="middle" x="530" y="-63.5" font-family="Helvetica,sans-Serif" font-size="10.00">memory</text>
</a>
</g>
</g>
<!-- Node13&#45;&gt;Node14 -->
<g id="edge16" class="edge">
<title>Node13&#45;&gt;Node14</title>
<path fill="none" stroke="midnightblue" d="M530,-112.08C530,-105.01 530,-94.86 530,-85.99"/>
<polygon fill="midnightblue" stroke="midnightblue" points="533.5,-85.75 530,-75.75 526.5,-85.75 533.5,-85.75"/>
</g>
<!-- Node20&#45;&gt;Node5 -->
<g id="edge27" class="edge">
<title>Node20&#45;&gt;Node5</title>
<path fill="none" stroke="midnightblue" d="M940,-224.39C930.23,-210.87 909.67,-184.51 887,-168 828.11,-125.11 748.1,-94.37 701.66,-78.74"/>
<polygon fill="midnightblue" stroke="midnightblue" points="702.59,-75.37 692,-75.55 700.39,-82.01 702.59,-75.37"/>
</g>
<!-- Node21 -->
<g id="node21" class="node">
<title>Node21</title>
<g id="a_node21"><a xlink:title=" ">
<polygon fill="white" stroke="#bfbfbf" points="939,-168.5 939,-187.5 1007,-187.5 1007,-168.5 939,-168.5"/>
<text text-anchor="middle" x="973" y="-175.5" font-family="Helvetica,sans-Serif" font-size="10.00">Eigen/Eigen</text>
</a>
</g>
</g>
<!-- Node20&#45;&gt;Node21 -->
<g id="edge28" class="edge">
<title>Node20&#45;&gt;Node21</title>
<path fill="none" stroke="midnightblue" d="M950.46,-224.08C954.15,-216.69 959.52,-205.95 964.09,-196.81"/>
<polygon fill="midnightblue" stroke="midnightblue" points="967.28,-198.26 968.62,-187.75 961.02,-195.13 967.28,-198.26"/>
</g>
</g>
</svg>
        <g id="navigator" transform="translate(0 0)" fill="#404254">
                <rect fill="#f2f5e9" fill-opacity="0.5" stroke="#606060" stroke-width=".5" x="0" y="0" width="60" height="60"/>
                <use id="zoomplus" xlink:href="#zoomPlus" x="17" y="9" onmousedown="handleZoom(evt,'in')"/>
                <use id="zoomminus" xlink:href="#zoomMin" x="42" y="9" onmousedown="handleZoom(evt,'out')"/>
                <use id="reset" xlink:href="#resetDef" x="30" y="36" onmousedown="handleReset()"/>
                <g id="arrowUp" xlink:href="#dirArrow" transform="translate(30 24)" onmousedown="handlePan(0,-1)">
                  <use xlink:href="#rim" fill="#404040">
                        <set attributeName="fill" to="#808080" begin="arrowUp.mouseover" end="arrowUp.mouseout"/>
                  </use>
                  <path fill="none" stroke="white" stroke-width="1.5" d="M0,-3.0v7 M-2.5,-0.5L0,-3.0L2.5,-0.5"/>
                </g>
                <g id="arrowRight" xlink:href="#dirArrow" transform="rotate(90) translate(36 -43)" onmousedown="handlePan(1,0)">
                  <use xlink:href="#rim" fill="#404040">
                        <set attributeName="fill" to="#808080" begin="arrowRight.mouseover" end="arrowRight.mouseout"/>
                  </use>
                  <path fill="none" stroke="white" stroke-width="1.5" d="M0,-3.0v7 M-2.5,-0.5L0,-3.0L2.5,-0.5"/>
                </g>
                <g id="arrowDown" xlink:href="#dirArrow" transform="rotate(180) translate(-30 -48)" onmousedown="handlePan(0,1)">
                  <use xlink:href="#rim" fill="#404040">
                        <set attributeName="fill" to="#808080" begin="arrowDown.mouseover" end="arrowDown.mouseout"/>
                  </use>
                  <path fill="none" stroke="white" stroke-width="1.5" d="M0,-3.0v7 M-2.5,-0.5L0,-3.0L2.5,-0.5"/>
                </g>
                <g id="arrowLeft" xlink:href="#dirArrow" transform="rotate(270) translate(-36 17)" onmousedown="handlePan(-1,0)">
                  <use xlink:href="#rim" fill="#404040">
                        <set attributeName="fill" to="#808080" begin="arrowLeft.mouseover" end="arrowLeft.mouseout"/>
                  </use>
                  <path fill="none" stroke="white" stroke-width="1.5" d="M0,-3.0v7 M-2.5,-0.5L0,-3.0L2.5,-0.5"/>
                </g>
        </g>
        <svg viewBox="0 0 15 15" width="100%" height="30px" preserveAspectRatio="xMaxYMin meet">
         <g id="arrow_out" transform="scale(0.3 0.3)">
          <a xlink:href="predict__linalg__x1x_8cpp__incl_org.svg" target="_base">
           <rect id="button" ry="5" rx="5" y="6" x="6" height="38" width="38"
                fill="#f2f5e9" fill-opacity="0.5" stroke="#606060" stroke-width="1.0"/>
           <path id="arrow"
             d="M 11.500037,31.436501 C 11.940474,20.09759 22.043105,11.32322 32.158766,21.979434 L 37.068811,17.246167 C 37.068811,17.246167 37.088388,32 37.088388,32 L 22.160133,31.978069 C 22.160133,31.978069 26.997745,27.140456 26.997745,27.140456 C 18.528582,18.264221 13.291696,25.230495 11.500037,31.436501 z"
             style="fill:#404040;"/>
          </a>
         </g>
        </svg>
</svg>
