<?xml version="1.0" encoding="UTF-8" standalone="no"?>
<!DOCTYPE svg PUBLIC "-//W3C//DTD SVG 1.1//EN"
 "http://www.w3.org/Graphics/SVG/1.1/DTD/svg11.dtd">
<!-- Generated by graphviz version 3.0.0 (20221109.1736)
 -->
<!-- Title: /github/workspace/benchmark/predict_1x1x1.cpp Pages: 1 -->
<svg width="801pt" height="263pt"
 viewBox="0.00 0.00 800.90 263.00" xmlns="http://www.w3.org/2000/svg" xmlns:xlink="http://www.w3.org/1999/xlink">
<g id="graph0" class="graph" transform="scale(1 1) rotate(0) translate(4 259)">
<title>/github/workspace/benchmark/predict_1x1x1.cpp</title>
<polygon fill="white" stroke="transparent" points="-4,4 -4,-259 796.9,-259 796.9,4 -4,4"/>
<!-- Node1 -->
<g id="node1" class="node">
<title>Node1</title>
<g id="a_node1"><a xlink:title=" ">
<polygon fill="#bfbfbf" stroke="black" points="392.5,-224.5 392.5,-254.5 539.5,-254.5 539.5,-224.5 392.5,-224.5"/>
<text text-anchor="start" x="400.5" y="-242.5" font-family="Helvetica,sans-Serif" font-size="10.00">/github/workspace/benchmark</text>
<text text-anchor="middle" x="466" y="-231.5" font-family="Helvetica,sans-Serif" font-size="10.00">/predict_1x1x1.cpp</text>
</a>
</g>
</g>
<!-- Node2 -->
<g id="node2" class="node">
<title>Node2</title>
<g id="a_node2"><a xlink:href="benchmark_8hpp.xhtml" target="_top" xlink:title="Benchmarking support.">
<polygon fill="white" stroke="black" points="51.5,-168.5 51.5,-187.5 134.5,-187.5 134.5,-168.5 51.5,-168.5"/>
<text text-anchor="middle" x="93" y="-175.5" font-family="Helvetica,sans-Serif" font-size="10.00">benchmark.hpp</text>
</a>
</g>
</g>
<!-- Node1&#45;&gt;Node2 -->
<g id="edge1" class="edge">
<title>Node1&#45;&gt;Node2</title>
<path fill="none" stroke="midnightblue" d="M392.31,-226.74C319.15,-215.08 208.9,-197.49 144.62,-187.23"/>
<polygon fill="midnightblue" stroke="midnightblue" points="145.14,-183.77 134.71,-185.65 144.03,-190.69 145.14,-183.77"/>
</g>
<!-- Node3 -->
<g id="node3" class="node">
<title>Node3</title>
<g id="a_node3"><a xlink:title=" ">
<polygon fill="white" stroke="#bfbfbf" points="0,-112.5 0,-131.5 46,-131.5 46,-112.5 0,-112.5"/>
<text text-anchor="middle" x="23" y="-119.5" font-family="Helvetica,sans-Serif" font-size="10.00">chrono</text>
</a>
</g>
</g>
<!-- Node1&#45;&gt;Node3 -->
<g id="edge26" class="edge">
<title>Node1&#45;&gt;Node3</title>
<path fill="none" stroke="midnightblue" d="M392.22,-239.2C285.01,-238.68 93.35,-231.47 42,-188 28.7,-176.74 24.43,-156.73 23.2,-141.88"/>
<polygon fill="midnightblue" stroke="midnightblue" points="26.69,-141.59 22.74,-131.75 19.69,-141.9 26.69,-141.59"/>
</g>
<!-- Node5 -->
<g id="node5" class="node">
<title>Node5</title>
<g id="a_node5"><a xlink:href="kalman_8hpp.xhtml" target="_top" xlink:title="The Kalman filter class and library top&#45;level header.">
<polygon fill="white" stroke="black" points="346.5,-168.5 346.5,-187.5 453.5,-187.5 453.5,-168.5 346.5,-168.5"/>
<text text-anchor="middle" x="400" y="-175.5" font-family="Helvetica,sans-Serif" font-size="10.00">fcarouge/kalman.hpp</text>
</a>
</g>
</g>
<!-- Node1&#45;&gt;Node5 -->
<g id="edge4" class="edge">
<title>Node1&#45;&gt;Node5</title>
<path fill="none" stroke="midnightblue" d="M450.36,-224.4C440.37,-215.4 427.42,-203.72 417.15,-194.47"/>
<polygon fill="midnightblue" stroke="midnightblue" points="419.37,-191.75 409.6,-187.66 414.69,-196.95 419.37,-191.75"/>
</g>
<!-- Node18 -->
<g id="node18" class="node">
<title>Node18</title>
<g id="a_node18"><a xlink:title=" ">
<polygon fill="white" stroke="#bfbfbf" points="471.5,-168.5 471.5,-187.5 594.5,-187.5 594.5,-168.5 471.5,-168.5"/>
<text text-anchor="middle" x="533" y="-175.5" font-family="Helvetica,sans-Serif" font-size="10.00">benchmark/benchmark.h</text>
</a>
</g>
</g>
<!-- Node1&#45;&gt;Node18 -->
<g id="edge24" class="edge">
<title>Node1&#45;&gt;Node18</title>
<path fill="none" stroke="midnightblue" d="M481.88,-224.4C492.02,-215.4 505.16,-203.72 515.59,-194.47"/>
<polygon fill="midnightblue" stroke="midnightblue" points="518.1,-196.92 523.25,-187.66 513.45,-191.68 518.1,-196.92"/>
</g>
<!-- Node19 -->
<g id="node19" class="node">
<title>Node19</title>
<g id="a_node19"><a xlink:title=" ">
<polygon fill="white" stroke="#bfbfbf" points="613,-168.5 613,-187.5 669,-187.5 669,-168.5 613,-168.5"/>
<text text-anchor="middle" x="641" y="-175.5" font-family="Helvetica,sans-Serif" font-size="10.00">algorithm</text>
</a>
</g>
</g>
<!-- Node1&#45;&gt;Node19 -->
<g id="edge25" class="edge">
<title>Node1&#45;&gt;Node19</title>
<path fill="none" stroke="midnightblue" d="M507.47,-224.4C537.58,-214.16 577.85,-200.47 606.27,-190.81"/>
<polygon fill="midnightblue" stroke="midnightblue" points="607.45,-194.1 615.79,-187.57 605.2,-187.48 607.45,-194.1"/>
</g>
<!-- Node20 -->
<g id="node20" class="node">
<title>Node20</title>
<g id="a_node20"><a xlink:title=" ">
<polygon fill="white" stroke="#bfbfbf" points="687.5,-168.5 687.5,-187.5 736.5,-187.5 736.5,-168.5 687.5,-168.5"/>
<text text-anchor="middle" x="712" y="-175.5" font-family="Helvetica,sans-Serif" font-size="10.00">random</text>
</a>
</g>
</g>
<!-- Node1&#45;&gt;Node20 -->
<g id="edge27" class="edge">
<title>Node1&#45;&gt;Node20</title>
<path fill="none" stroke="midnightblue" d="M526.87,-224.43C566.98,-215.05 620.89,-202.27 677.32,-188.13"/>
<polygon fill="midnightblue" stroke="midnightblue" points="678.29,-191.49 687.14,-185.66 676.58,-184.7 678.29,-191.49"/>
</g>
<!-- Node2&#45;&gt;Node3 -->
<g id="edge2" class="edge">
<title>Node2&#45;&gt;Node3</title>
<path fill="none" stroke="midnightblue" d="M81.75,-168.32C71.2,-160.18 55.2,-147.84 42.56,-138.09"/>
<polygon fill="midnightblue" stroke="midnightblue" points="44.51,-135.17 34.45,-131.83 40.23,-140.71 44.51,-135.17"/>
</g>
<!-- Node4 -->
<g id="node4" class="node">
<title>Node4</title>
<g id="a_node4"><a xlink:title=" ">
<polygon fill="white" stroke="#bfbfbf" points="408,-0.5 408,-19.5 470,-19.5 470,-0.5 408,-0.5"/>
<text text-anchor="middle" x="439" y="-7.5" font-family="Helvetica,sans-Serif" font-size="10.00">type_traits</text>
</a>
</g>
</g>
<!-- Node2&#45;&gt;Node4 -->
<g id="edge3" class="edge">
<title>Node2&#45;&gt;Node4</title>
<path fill="none" stroke="midnightblue" d="M89.62,-168.36C81.68,-146.48 64.58,-88.36 93,-56 112.86,-33.4 310.28,-18.77 397.71,-13.36"/>
<polygon fill="midnightblue" stroke="midnightblue" points="398.04,-16.84 407.8,-12.74 397.61,-9.86 398.04,-16.84"/>
</g>
<!-- Node5&#45;&gt;Node4 -->
<g id="edge21" class="edge">
<title>Node5&#45;&gt;Node4</title>
<path fill="none" stroke="midnightblue" d="M404.69,-168.3C409.28,-159.42 416.13,-145.12 420,-132 430.4,-96.77 435.41,-53.99 437.58,-29.89"/>
<polygon fill="midnightblue" stroke="midnightblue" points="441.09,-29.93 438.42,-19.68 434.11,-29.36 441.09,-29.93"/>
</g>
<!-- Node6 -->
<g id="node6" class="node">
<title>Node6</title>
<g id="a_node6"><a xlink:href="algorithm_8hpp.xhtml" target="_top" xlink:title="The collection of Kalman algorithms.">
<polygon fill="white" stroke="black" points="700,-112.5 700,-131.5 774,-131.5 774,-112.5 700,-112.5"/>
<text text-anchor="middle" x="737" y="-119.5" font-family="Helvetica,sans-Serif" font-size="10.00">algorithm.hpp</text>
</a>
</g>
</g>
<!-- Node5&#45;&gt;Node6 -->
<g id="edge5" class="edge">
<title>Node5&#45;&gt;Node6</title>
<path fill="none" stroke="midnightblue" d="M453.55,-168.88C511.05,-160.09 605.06,-145.51 686,-132 687.27,-131.79 688.56,-131.57 689.86,-131.35"/>
<polygon fill="midnightblue" stroke="midnightblue" points="690.7,-134.76 699.97,-129.62 689.52,-127.86 690.7,-134.76"/>
</g>
<!-- Node7 -->
<g id="node7" class="node">
<title>Node7</title>
<g id="a_node7"><a xlink:href="format_8hpp.xhtml" target="_top" xlink:title=" ">
<polygon fill="white" stroke="black" points="140.5,-112.5 140.5,-131.5 237.5,-131.5 237.5,-112.5 140.5,-112.5"/>
<text text-anchor="middle" x="189" y="-119.5" font-family="Helvetica,sans-Serif" font-size="10.00">internal/format.hpp</text>
</a>
</g>
</g>
<!-- Node5&#45;&gt;Node7 -->
<g id="edge6" class="edge">
<title>Node5&#45;&gt;Node7</title>
<path fill="none" stroke="midnightblue" d="M366.57,-168.44C330.14,-159.12 271.77,-144.18 231.97,-134"/>
<polygon fill="midnightblue" stroke="midnightblue" points="232.83,-130.61 222.28,-131.52 231.1,-137.39 232.83,-130.61"/>
</g>
<!-- Node9 -->
<g id="node9" class="node">
<title>Node9</title>
<g id="a_node9"><a xlink:title=" ">
<polygon fill="white" stroke="#bfbfbf" points="631,-0.5 631,-19.5 687,-19.5 687,-0.5 631,-0.5"/>
<text text-anchor="middle" x="659" y="-7.5" font-family="Helvetica,sans-Serif" font-size="10.00">concepts</text>
</a>
</g>
</g>
<!-- Node5&#45;&gt;Node9 -->
<g id="edge18" class="edge">
<title>Node5&#45;&gt;Node9</title>
<path fill="none" stroke="midnightblue" d="M453.6,-169.23C456.78,-168.81 459.93,-168.39 463,-168 533.98,-158.94 735.31,-185.35 783,-132 820.41,-90.14 737.36,-45 689.61,-23.62"/>
<polygon fill="midnightblue" stroke="midnightblue" points="690.86,-20.34 680.3,-19.54 688.06,-26.76 690.86,-20.34"/>
</g>
<!-- Node10 -->
<g id="node10" class="node">
<title>Node10</title>
<g id="a_node10"><a xlink:title=" ">
<polygon fill="white" stroke="#bfbfbf" points="102.5,-56.5 102.5,-75.5 151.5,-75.5 151.5,-56.5 102.5,-56.5"/>
<text text-anchor="middle" x="127" y="-63.5" font-family="Helvetica,sans-Serif" font-size="10.00">cstddef</text>
</a>
</g>
</g>
<!-- Node5&#45;&gt;Node10 -->
<g id="edge19" class="edge">
<title>Node5&#45;&gt;Node10</title>
<path fill="none" stroke="midnightblue" d="M346.38,-175.66C276.24,-172.67 158.97,-163.05 131,-132 119.9,-119.68 120.21,-100.15 122.49,-85.71"/>
<polygon fill="midnightblue" stroke="midnightblue" points="125.93,-86.36 124.47,-75.86 119.07,-84.98 125.93,-86.36"/>
</g>
<!-- Node12 -->
<g id="node12" class="node">
<title>Node12</title>
<g id="a_node12"><a xlink:href="internal_2kalman_8hpp.xhtml" target="_top" xlink:title=" ">
<polygon fill="white" stroke="black" points="542.5,-112.5 542.5,-131.5 643.5,-131.5 643.5,-112.5 542.5,-112.5"/>
<text text-anchor="middle" x="593" y="-119.5" font-family="Helvetica,sans-Serif" font-size="10.00">internal/kalman.hpp</text>
</a>
</g>
</g>
<!-- Node5&#45;&gt;Node12 -->
<g id="edge12" class="edge">
<title>Node5&#45;&gt;Node12</title>
<path fill="none" stroke="midnightblue" d="M430.58,-168.44C463.61,-159.2 516.39,-144.44 552.77,-134.26"/>
<polygon fill="midnightblue" stroke="midnightblue" points="553.87,-137.58 562.56,-131.52 551.99,-130.84 553.87,-137.58"/>
</g>
<!-- Node13 -->
<g id="node13" class="node">
<title>Node13</title>
<g id="a_node13"><a xlink:title=" ">
<polygon fill="white" stroke="#bfbfbf" points="636.5,-56.5 636.5,-75.5 695.5,-75.5 695.5,-56.5 636.5,-56.5"/>
<text text-anchor="middle" x="666" y="-63.5" font-family="Helvetica,sans-Serif" font-size="10.00">functional</text>
</a>
</g>
</g>
<!-- Node5&#45;&gt;Node13 -->
<g id="edge20" class="edge">
<title>Node5&#45;&gt;Node13</title>
<path fill="none" stroke="midnightblue" d="M453.57,-169.04C525.69,-158.09 645.89,-138.96 653,-132 665.07,-120.19 667.57,-100.55 667.51,-85.95"/>
<polygon fill="midnightblue" stroke="midnightblue" points="670.99,-85.4 667.05,-75.56 664,-85.71 670.99,-85.4"/>
</g>
<!-- Node15 -->
<g id="node15" class="node">
<title>Node15</title>
<g id="a_node15"><a xlink:href="utility_8hpp.xhtml" target="_top" xlink:title="The collection of utilities supporting the library.">
<polygon fill="white" stroke="black" points="467.5,-112.5 467.5,-131.5 524.5,-131.5 524.5,-112.5 467.5,-112.5"/>
<text text-anchor="middle" x="496" y="-119.5" font-family="Helvetica,sans-Serif" font-size="10.00">utility.hpp</text>
</a>
</g>
</g>
<!-- Node5&#45;&gt;Node15 -->
<g id="edge16" class="edge">
<title>Node5&#45;&gt;Node15</title>
<path fill="none" stroke="midnightblue" d="M415.42,-168.32C430.54,-159.82 453.82,-146.73 471.47,-136.8"/>
<polygon fill="midnightblue" stroke="midnightblue" points="473.61,-139.61 480.61,-131.65 470.18,-133.51 473.61,-139.61"/>
</g>
<!-- Node16 -->
<g id="node16" class="node">
<title>Node16</title>
<g id="a_node16"><a xlink:title=" ">
<polygon fill="white" stroke="#bfbfbf" points="255.5,-112.5 255.5,-131.5 294.5,-131.5 294.5,-112.5 255.5,-112.5"/>
<text text-anchor="middle" x="275" y="-119.5" font-family="Helvetica,sans-Serif" font-size="10.00">utility</text>
</a>
</g>
</g>
<!-- Node5&#45;&gt;Node16 -->
<g id="edge22" class="edge">
<title>Node5&#45;&gt;Node16</title>
<path fill="none" stroke="midnightblue" d="M380.19,-168.44C359.71,-159.6 327.52,-145.69 304.14,-135.59"/>
<polygon fill="midnightblue" stroke="midnightblue" points="305.28,-132.27 294.71,-131.52 302.51,-138.7 305.28,-132.27"/>
</g>
<!-- Node17 -->
<g id="node17" class="node">
<title>Node17</title>
<g id="a_node17"><a xlink:title=" ">
<polygon fill="white" stroke="#bfbfbf" points="313,-112.5 313,-131.5 411,-131.5 411,-112.5 313,-112.5"/>
<text text-anchor="middle" x="362" y="-119.5" font-family="Helvetica,sans-Serif" font-size="10.00">internal/kalman.tpp</text>
</a>
</g>
</g>
<!-- Node5&#45;&gt;Node17 -->
<g id="edge23" class="edge">
<title>Node5&#45;&gt;Node17</title>
<path fill="none" stroke="midnightblue" d="M393.73,-168.08C388.36,-160.46 380.48,-149.26 373.92,-139.94"/>
<polygon fill="midnightblue" stroke="midnightblue" points="376.78,-137.91 368.16,-131.75 371.05,-141.94 376.78,-137.91"/>
</g>
<!-- Node8 -->
<g id="node8" class="node">
<title>Node8</title>
<g id="a_node8"><a xlink:href="internal_2utility_8hpp.xhtml" target="_top" xlink:title=" ">
<polygon fill="white" stroke="black" points="467.5,-56.5 467.5,-75.5 524.5,-75.5 524.5,-56.5 467.5,-56.5"/>
<text text-anchor="middle" x="496" y="-63.5" font-family="Helvetica,sans-Serif" font-size="10.00">utility.hpp</text>
</a>
</g>
</g>
<!-- Node7&#45;&gt;Node8 -->
<g id="edge7" class="edge">
<title>Node7&#45;&gt;Node8</title>
<path fill="none" stroke="midnightblue" d="M237.65,-112.44C298.48,-101.74 401.4,-83.64 457.21,-73.82"/>
<polygon fill="midnightblue" stroke="midnightblue" points="458.15,-77.21 467.39,-72.03 456.94,-70.32 458.15,-77.21"/>
</g>
<!-- Node7&#45;&gt;Node10 -->
<g id="edge10" class="edge">
<title>Node7&#45;&gt;Node10</title>
<path fill="none" stroke="midnightblue" d="M179.04,-112.32C169.87,-104.34 156.06,-92.31 144.97,-82.65"/>
<polygon fill="midnightblue" stroke="midnightblue" points="146.98,-79.76 137.14,-75.83 142.38,-85.04 146.98,-79.76"/>
</g>
<!-- Node11 -->
<g id="node11" class="node">
<title>Node11</title>
<g id="a_node11"><a xlink:title=" ">
<polygon fill="white" stroke="#bfbfbf" points="170,-56.5 170,-75.5 214,-75.5 214,-56.5 170,-56.5"/>
<text text-anchor="middle" x="192" y="-63.5" font-family="Helvetica,sans-Serif" font-size="10.00">format</text>
</a>
</g>
</g>
<!-- Node7&#45;&gt;Node11 -->
<g id="edge11" class="edge">
<title>Node7&#45;&gt;Node11</title>
<path fill="none" stroke="midnightblue" d="M189.5,-112.08C189.89,-105.01 190.45,-94.86 190.95,-85.99"/>
<polygon fill="midnightblue" stroke="midnightblue" points="194.45,-85.93 191.51,-75.75 187.46,-85.54 194.45,-85.93"/>
</g>
<!-- Node8&#45;&gt;Node4 -->
<g id="edge9" class="edge">
<title>Node8&#45;&gt;Node4</title>
<path fill="none" stroke="midnightblue" d="M486.84,-56.32C478.5,-48.42 465.97,-36.55 455.82,-26.94"/>
<polygon fill="midnightblue" stroke="midnightblue" points="457.99,-24.17 448.32,-19.83 453.18,-29.25 457.99,-24.17"/>
</g>
<!-- Node8&#45;&gt;Node9 -->
<g id="edge8" class="edge">
<title>Node8&#45;&gt;Node9</title>
<path fill="none" stroke="midnightblue" d="M521.83,-56.44C549.25,-47.36 592.78,-32.94 623.43,-22.78"/>
<polygon fill="midnightblue" stroke="midnightblue" points="624.9,-25.98 633.29,-19.52 622.7,-19.34 624.9,-25.98"/>
</g>
<!-- Node12&#45;&gt;Node8 -->
<g id="edge13" class="edge">
<title>Node12&#45;&gt;Node8</title>
<path fill="none" stroke="midnightblue" d="M577.42,-112.32C562,-103.74 538.19,-90.49 520.29,-80.52"/>
<polygon fill="midnightblue" stroke="midnightblue" points="521.99,-77.46 511.55,-75.65 518.58,-83.58 521.99,-77.46"/>
</g>
<!-- Node12&#45;&gt;Node13 -->
<g id="edge14" class="edge">
<title>Node12&#45;&gt;Node13</title>
<path fill="none" stroke="midnightblue" d="M604.73,-112.32C615.84,-104.11 632.74,-91.6 645.98,-81.81"/>
<polygon fill="midnightblue" stroke="midnightblue" points="648.1,-84.59 654.06,-75.83 643.94,-78.97 648.1,-84.59"/>
</g>
<!-- Node14 -->
<g id="node14" class="node">
<title>Node14</title>
<g id="a_node14"><a xlink:title=" ">
<polygon fill="white" stroke="#bfbfbf" points="574,-56.5 574,-75.5 612,-75.5 612,-56.5 574,-56.5"/>
<text text-anchor="middle" x="593" y="-63.5" font-family="Helvetica,sans-Serif" font-size="10.00">tuple</text>
</a>
</g>
</g>
<!-- Node12&#45;&gt;Node14 -->
<g id="edge15" class="edge">
<title>Node12&#45;&gt;Node14</title>
<path fill="none" stroke="midnightblue" d="M593,-112.08C593,-105.01 593,-94.86 593,-85.99"/>
<polygon fill="midnightblue" stroke="midnightblue" points="596.5,-85.75 593,-75.75 589.5,-85.75 596.5,-85.75"/>
</g>
<!-- Node15&#45;&gt;Node8 -->
<g id="edge17" class="edge">
<title>Node15&#45;&gt;Node8</title>
<path fill="none" stroke="midnightblue" d="M496,-112.08C496,-105.01 496,-94.86 496,-85.99"/>
<polygon fill="midnightblue" stroke="midnightblue" points="499.5,-85.75 496,-75.75 492.5,-85.75 499.5,-85.75"/>
</g>
</g>
</svg>
