<?xml version="1.0" encoding="UTF-8" standalone="no"?>
<!DOCTYPE svg PUBLIC "-//W3C//DTD SVG 1.1//EN"
 "http://www.w3.org/Graphics/SVG/1.1/DTD/svg11.dtd">
<!-- Generated by graphviz version 12.2.0 (20241103.1931)
 -->
<!-- Title: /github/workspace/benchmark/predict_1x1x0.cpp Pages: 1 -->
<svg width="1626pt" height="381pt"
 viewBox="0.00 0.00 1626.25 381.25" xmlns="http://www.w3.org/2000/svg" xmlns:xlink="http://www.w3.org/1999/xlink">
<g id="graph0" class="graph" transform="scale(1 1) rotate(0) translate(4 377.25)">
<title>/github/workspace/benchmark/predict_1x1x0.cpp</title>
<!-- Node1 -->
<g id="Node000001" class="node">
<title>Node1</title>
<g id="a_Node000001"><a xlink:title=" ">
<polygon fill="#999999" stroke="#666666" points="1436.62,-373.25 1290.12,-373.25 1290.12,-342.75 1436.62,-342.75 1436.62,-373.25"/>
<text text-anchor="start" x="1298.12" y="-359.75" font-family="Helvetica,sans-Serif" font-size="10.00">/github/workspace/benchmark</text>
<text text-anchor="middle" x="1363.38" y="-348.5" font-family="Helvetica,sans-Serif" font-size="10.00">/predict_1x1x0.cpp</text>
</a>
</g>
</g>
<!-- Node2 -->
<g id="Node000002" class="node">
<title>Node2</title>
<g id="a_Node000002"><a xlink:href="benchmark_8hpp.xhtml" target="_top" xlink:title="Benchmarking support.">
<polygon fill="white" stroke="#666666" points="1404.38,-306.75 1322.38,-306.75 1322.38,-287.5 1404.38,-287.5 1404.38,-306.75"/>
<text text-anchor="middle" x="1363.38" y="-293.25" font-family="Helvetica,sans-Serif" font-size="10.00">benchmark.hpp</text>
</a>
</g>
</g>
<!-- Node1&#45;&gt;Node2 -->
<g id="edge1_Node000001_Node000002" class="edge">
<title>Node1&#45;&gt;Node2</title>
<g id="a_edge1_Node000001_Node000002"><a xlink:title=" ">
<path fill="none" stroke="#63b8ff" d="M1363.38,-342.45C1363.38,-335.21 1363.38,-326.34 1363.38,-318.44"/>
<polygon fill="#63b8ff" stroke="#63b8ff" points="1366.88,-318.71 1363.38,-308.71 1359.88,-318.71 1366.88,-318.71"/>
</a>
</g>
</g>
<!-- Node3 -->
<g id="Node000003" class="node">
<title>Node3</title>
<g id="a_Node000003"><a xlink:title=" ">
<polygon fill="#e0e0e0" stroke="#999999" points="1352,-251.5 1306.75,-251.5 1306.75,-232.25 1352,-232.25 1352,-251.5"/>
<text text-anchor="middle" x="1329.38" y="-238" font-family="Helvetica,sans-Serif" font-size="10.00">chrono</text>
</a>
</g>
</g>
<!-- Node1&#45;&gt;Node3 -->
<g id="edge60_Node000001_Node000003" class="edge">
<title>Node1&#45;&gt;Node3</title>
<g id="a_edge60_Node000001_Node000003"><a xlink:title=" ">
<path fill="none" stroke="#63b8ff" d="M1342.37,-342.38C1331.5,-333.48 1319.29,-321.08 1313.38,-306.75 1307.37,-292.2 1312.45,-274.83 1318.43,-261.88"/>
<polygon fill="#63b8ff" stroke="#63b8ff" points="1321.46,-263.64 1322.96,-253.16 1315.25,-260.41 1321.46,-263.64"/>
</a>
</g>
</g>
<!-- Node5 -->
<g id="Node000005" class="node">
<title>Node5</title>
<g id="a_Node000005"><a xlink:href="kalman_8hpp.xhtml" target="_top" xlink:title="The Kalman filter class and library top&#45;level header.">
<polygon fill="white" stroke="#666666" points="976.38,-306.75 870.38,-306.75 870.38,-287.5 976.38,-287.5 976.38,-306.75"/>
<text text-anchor="middle" x="923.38" y="-293.25" font-family="Helvetica,sans-Serif" font-size="10.00">fcarouge/kalman.hpp</text>
</a>
</g>
</g>
<!-- Node1&#45;&gt;Node5 -->
<g id="edge4_Node000001_Node000005" class="edge">
<title>Node1&#45;&gt;Node5</title>
<g id="a_edge4_Node000001_Node000005"><a xlink:title=" ">
<path fill="none" stroke="#63b8ff" d="M1289.73,-347.15C1205.26,-335.84 1068.12,-317.49 987.76,-306.74"/>
<polygon fill="#63b8ff" stroke="#63b8ff" points="988.68,-303.33 978.3,-305.47 987.75,-310.27 988.68,-303.33"/>
</a>
</g>
</g>
<!-- Node32 -->
<g id="Node000032" class="node">
<title>Node32</title>
<g id="a_Node000032"><a xlink:title=" ">
<polygon fill="#e0e0e0" stroke="#999999" points="1544.62,-306.75 1422.12,-306.75 1422.12,-287.5 1544.62,-287.5 1544.62,-306.75"/>
<text text-anchor="middle" x="1483.38" y="-293.25" font-family="Helvetica,sans-Serif" font-size="10.00">benchmark/benchmark.h</text>
</a>
</g>
</g>
<!-- Node1&#45;&gt;Node32 -->
<g id="edge58_Node000001_Node000032" class="edge">
<title>Node1&#45;&gt;Node32</title>
<g id="a_edge58_Node000001_Node000032"><a xlink:title=" ">
<path fill="none" stroke="#63b8ff" d="M1393.35,-342.3C1412.15,-333.07 1436.25,-321.25 1454.79,-312.15"/>
<polygon fill="#63b8ff" stroke="#63b8ff" points="1456.18,-315.37 1463.61,-307.82 1453.09,-309.08 1456.18,-315.37"/>
</a>
</g>
</g>
<!-- Node33 -->
<g id="Node000033" class="node">
<title>Node33</title>
<g id="a_Node000033"><a xlink:title=" ">
<polygon fill="#e0e0e0" stroke="#999999" points="1618.25,-306.75 1562.5,-306.75 1562.5,-287.5 1618.25,-287.5 1618.25,-306.75"/>
<text text-anchor="middle" x="1590.38" y="-293.25" font-family="Helvetica,sans-Serif" font-size="10.00">algorithm</text>
</a>
</g>
</g>
<!-- Node1&#45;&gt;Node33 -->
<g id="edge59_Node000001_Node000033" class="edge">
<title>Node1&#45;&gt;Node33</title>
<g id="a_edge59_Node000001_Node000033"><a xlink:title=" ">
<path fill="none" stroke="#63b8ff" d="M1420.07,-342.3C1460.95,-331.69 1515.08,-317.65 1551.23,-308.28"/>
<polygon fill="#63b8ff" stroke="#63b8ff" points="1552.03,-311.69 1560.83,-305.79 1550.28,-304.91 1552.03,-311.69"/>
</a>
</g>
</g>
<!-- Node2&#45;&gt;Node3 -->
<g id="edge2_Node000002_Node000003" class="edge">
<title>Node2&#45;&gt;Node3</title>
<g id="a_edge2_Node000002_Node000003"><a xlink:title=" ">
<path fill="none" stroke="#63b8ff" d="M1357.76,-287.33C1353.26,-280.28 1346.79,-270.15 1341.16,-261.33"/>
<polygon fill="#63b8ff" stroke="#63b8ff" points="1344.26,-259.68 1335.93,-253.13 1338.36,-263.45 1344.26,-259.68"/>
</a>
</g>
</g>
<!-- Node4 -->
<g id="Node000004" class="node">
<title>Node4</title>
<g id="a_Node000004"><a xlink:title=" ">
<polygon fill="#e0e0e0" stroke="#999999" points="1375.88,-19.25 1314.88,-19.25 1314.88,0 1375.88,0 1375.88,-19.25"/>
<text text-anchor="middle" x="1345.38" y="-5.75" font-family="Helvetica,sans-Serif" font-size="10.00">type_traits</text>
</a>
</g>
</g>
<!-- Node2&#45;&gt;Node4 -->
<g id="edge3_Node000002_Node000004" class="edge">
<title>Node2&#45;&gt;Node4</title>
<g id="a_edge3_Node000002_Node000004"><a xlink:title=" ">
<path fill="none" stroke="#63b8ff" d="M1371.68,-287.16C1387.72,-268.87 1421.38,-225.34 1421.38,-182 1421.38,-182 1421.38,-182 1421.38,-119.12 1421.38,-80.52 1388.69,-45.89 1366.19,-26.62"/>
<polygon fill="#63b8ff" stroke="#63b8ff" points="1368.71,-24.16 1358.76,-20.52 1364.27,-29.57 1368.71,-24.16"/>
</a>
</g>
</g>
<!-- Node6 -->
<g id="Node000006" class="node">
<title>Node6</title>
<g id="a_Node000006"><a xlink:href="kalman__forward_8hpp.xhtml" target="_top" xlink:title="Authoritative forward declaration header.">
<polygon fill="white" stroke="#666666" points="1111.88,-251.5 1008.88,-251.5 1008.88,-232.25 1111.88,-232.25 1111.88,-251.5"/>
<text text-anchor="middle" x="1060.38" y="-238" font-family="Helvetica,sans-Serif" font-size="10.00">kalman_forward.hpp</text>
</a>
</g>
</g>
<!-- Node5&#45;&gt;Node6 -->
<g id="edge5_Node000005_Node000006" class="edge">
<title>Node5&#45;&gt;Node6</title>
<g id="a_edge5_Node000005_Node000006"><a xlink:title=" ">
<path fill="none" stroke="#63b8ff" d="M946.62,-287.09C968.56,-278.56 1001.72,-265.67 1026.59,-256.01"/>
<polygon fill="#63b8ff" stroke="#63b8ff" points="1027.56,-259.39 1035.61,-252.5 1025.02,-252.86 1027.56,-259.39"/>
</a>
</g>
</g>
<!-- Node7 -->
<g id="Node000007" class="node">
<title>Node7</title>
<g id="a_Node000007"><a xlink:href="factory_8hpp.xhtml" target="_top" xlink:title=" ">
<polygon fill="white" stroke="#666666" points="990.62,-251.5 856.12,-251.5 856.12,-232.25 990.62,-232.25 990.62,-251.5"/>
<text text-anchor="middle" x="923.38" y="-238" font-family="Helvetica,sans-Serif" font-size="10.00">kalman_internal/factory.hpp</text>
</a>
</g>
</g>
<!-- Node5&#45;&gt;Node7 -->
<g id="edge6_Node000005_Node000007" class="edge">
<title>Node5&#45;&gt;Node7</title>
<g id="a_edge6_Node000005_Node000007"><a xlink:title=" ">
<path fill="none" stroke="#63b8ff" d="M923.38,-287.33C923.38,-280.82 923.38,-271.67 923.38,-263.37"/>
<polygon fill="#63b8ff" stroke="#63b8ff" points="926.88,-263.37 923.38,-253.37 919.88,-263.37 926.88,-263.37"/>
</a>
</g>
</g>
<!-- Node9 -->
<g id="Node000009" class="node">
<title>Node9</title>
<g id="a_Node000009"><a xlink:href="utility_8hpp.xhtml" target="_top" xlink:title="The collection of utilities supporting the library.">
<polygon fill="white" stroke="#666666" points="831.88,-129.75 734.88,-129.75 734.88,-110.5 831.88,-110.5 831.88,-129.75"/>
<text text-anchor="middle" x="783.38" y="-116.25" font-family="Helvetica,sans-Serif" font-size="10.00">fcarouge/utility.hpp</text>
</a>
</g>
</g>
<!-- Node5&#45;&gt;Node9 -->
<g id="edge56_Node000005_Node000009" class="edge">
<title>Node5&#45;&gt;Node9</title>
<g id="a_edge56_Node000005_Node000009"><a xlink:title=" ">
<path fill="none" stroke="#63b8ff" d="M976.51,-291.42C1079.92,-280.36 1291.91,-247.22 1218.38,-165.75 1193.72,-138.44 957,-126.9 843.5,-122.91"/>
<polygon fill="#63b8ff" stroke="#63b8ff" points="843.88,-119.42 833.76,-122.58 843.64,-126.42 843.88,-119.42"/>
</a>
</g>
</g>
<!-- Node27 -->
<g id="Node000027" class="node">
<title>Node27</title>
<g id="a_Node000027"><a xlink:href="format_8hpp.xhtml" target="_top" xlink:title="Formatting support for the Kalman filter.">
<polygon fill="white" stroke="#666666" points="185.88,-190.62 52.88,-190.62 52.88,-171.38 185.88,-171.38 185.88,-190.62"/>
<text text-anchor="middle" x="119.38" y="-177.12" font-family="Helvetica,sans-Serif" font-size="10.00">kalman_internal/format.hpp</text>
</a>
</g>
</g>
<!-- Node5&#45;&gt;Node27 -->
<g id="edge49_Node000005_Node000027" class="edge">
<title>Node5&#45;&gt;Node27</title>
<g id="a_edge49_Node000005_Node000027"><a xlink:title=" ">
<path fill="none" stroke="#63b8ff" d="M908.41,-287.24C879.96,-270.43 819.94,-235.34 809.38,-232.25 677.98,-193.81 330.24,-213.06 194.38,-196.25 187.55,-195.41 180.41,-194.32 173.37,-193.12"/>
<polygon fill="#63b8ff" stroke="#63b8ff" points="174.01,-189.68 163.55,-191.37 172.78,-196.57 174.01,-189.68"/>
</a>
</g>
</g>
<!-- Node29 -->
<g id="Node000029" class="node">
<title>Node29</title>
<g id="a_Node000029"><a xlink:href="printer_8hpp.xhtml" target="_top" xlink:title="Filter decoration support for printing operations.">
<polygon fill="white" stroke="#666666" points="800.5,-251.5 668.25,-251.5 668.25,-232.25 800.5,-232.25 800.5,-251.5"/>
<text text-anchor="middle" x="734.38" y="-238" font-family="Helvetica,sans-Serif" font-size="10.00">kalman_internal/printer.hpp</text>
</a>
</g>
</g>
<!-- Node5&#45;&gt;Node29 -->
<g id="edge54_Node000005_Node000029" class="edge">
<title>Node5&#45;&gt;Node29</title>
<g id="a_edge54_Node000005_Node000029"><a xlink:title=" ">
<path fill="none" stroke="#63b8ff" d="M891.31,-287.09C859.95,-278.26 811.99,-264.74 777.34,-254.98"/>
<polygon fill="#63b8ff" stroke="#63b8ff" points="778.62,-251.71 768.05,-252.36 776.73,-258.44 778.62,-251.71"/>
</a>
</g>
</g>
<!-- Node31 -->
<g id="Node000031" class="node">
<title>Node31</title>
<g id="a_Node000031"><a xlink:title=" ">
<polygon fill="#e0e0e0" stroke="#999999" points="650.62,-251.5 516.12,-251.5 516.12,-232.25 650.62,-232.25 650.62,-251.5"/>
<text text-anchor="middle" x="583.38" y="-238" font-family="Helvetica,sans-Serif" font-size="10.00">kalman_internal/kalman.tpp</text>
</a>
</g>
</g>
<!-- Node5&#45;&gt;Node31 -->
<g id="edge57_Node000005_Node000031" class="edge">
<title>Node5&#45;&gt;Node31</title>
<g id="a_edge57_Node000005_Node000031"><a xlink:title=" ">
<path fill="none" stroke="#63b8ff" d="M869.88,-287.75C811.22,-278.56 716.9,-263.79 652.63,-253.72"/>
<polygon fill="#63b8ff" stroke="#63b8ff" points="653.31,-250.29 642.89,-252.2 652.23,-257.2 653.31,-250.29"/>
</a>
</g>
</g>
<!-- Node7&#45;&gt;Node4 -->
<g id="edge48_Node000007_Node000004" class="edge">
<title>Node7&#45;&gt;Node4</title>
<g id="a_edge48_Node000007_Node000004"><a xlink:title=" ">
<path fill="none" stroke="#63b8ff" d="M990.98,-233.27C994.15,-232.92 997.3,-232.58 1000.38,-232.25 1039.02,-228.09 1322.34,-225.12 1348.38,-196.25 1390.25,-149.82 1366.94,-67.16 1353.19,-29.84"/>
<polygon fill="#63b8ff" stroke="#63b8ff" points="1356.57,-28.9 1349.7,-20.84 1350.05,-31.42 1356.57,-28.9"/>
</a>
</g>
</g>
<!-- Node8 -->
<g id="Node000008" class="node">
<title>Node8</title>
<g id="a_Node000008"><a xlink:href="type_8hpp.xhtml" target="_top" xlink:title=" ">
<polygon fill="white" stroke="#666666" points="1317.38,-190.62 1265.38,-190.62 1265.38,-171.38 1317.38,-171.38 1317.38,-190.62"/>
<text text-anchor="middle" x="1291.38" y="-177.12" font-family="Helvetica,sans-Serif" font-size="10.00">type.hpp</text>
</a>
</g>
</g>
<!-- Node7&#45;&gt;Node8 -->
<g id="edge7_Node000007_Node000008" class="edge">
<title>Node7&#45;&gt;Node8</title>
<g id="a_edge7_Node000007_Node000008"><a xlink:title=" ">
<path fill="none" stroke="#63b8ff" d="M988.83,-231.79C1048.69,-223.29 1139.65,-209.88 1218.38,-196.25 1230.02,-194.23 1242.66,-191.84 1254.11,-189.59"/>
<polygon fill="#63b8ff" stroke="#63b8ff" points="1254.46,-193.09 1263.58,-187.71 1253.09,-186.23 1254.46,-193.09"/>
</a>
</g>
</g>
<!-- Node11 -->
<g id="Node000011" class="node">
<title>Node11</title>
<g id="a_Node000011"><a xlink:title=" ">
<polygon fill="#e0e0e0" stroke="#999999" points="1103.25,-19.25 1047.5,-19.25 1047.5,0 1103.25,0 1103.25,-19.25"/>
<text text-anchor="middle" x="1075.38" y="-5.75" font-family="Helvetica,sans-Serif" font-size="10.00">concepts</text>
</a>
</g>
</g>
<!-- Node7&#45;&gt;Node11 -->
<g id="edge47_Node000007_Node000011" class="edge">
<title>Node7&#45;&gt;Node11</title>
<g id="a_edge47_Node000007_Node000011"><a xlink:title=" ">
<path fill="none" stroke="#63b8ff" d="M990.98,-233.3C994.16,-232.94 997.3,-232.59 1000.38,-232.25 1072.81,-224.19 1277.75,-250.54 1326.38,-196.25 1399.22,-114.92 1201.98,-46.64 1114.62,-21.24"/>
<polygon fill="#63b8ff" stroke="#63b8ff" points="1115.59,-17.87 1105.01,-18.49 1113.67,-24.6 1115.59,-17.87"/>
</a>
</g>
</g>
<!-- Node16 -->
<g id="Node000016" class="node">
<title>Node16</title>
<g id="a_Node000016"><a xlink:href="x__z__p__q__r_8hpp.xhtml" target="_top" xlink:title=" ">
<polygon fill="white" stroke="#666666" points="1009.12,-190.62 931.62,-190.62 931.62,-171.38 1009.12,-171.38 1009.12,-190.62"/>
<text text-anchor="middle" x="970.38" y="-177.12" font-family="Helvetica,sans-Serif" font-size="10.00">x_z_p_q_r.hpp</text>
</a>
</g>
</g>
<!-- Node7&#45;&gt;Node16 -->
<g id="edge18_Node000007_Node000016" class="edge">
<title>Node7&#45;&gt;Node16</title>
<g id="a_edge18_Node000007_Node000016"><a xlink:title=" ">
<path fill="none" stroke="#63b8ff" d="M930.51,-231.93C937.28,-223.46 947.63,-210.49 956.09,-199.89"/>
<polygon fill="#63b8ff" stroke="#63b8ff" points="958.72,-202.21 962.23,-192.21 953.25,-197.84 958.72,-202.21"/>
</a>
</g>
</g>
<!-- Node17 -->
<g id="Node000017" class="node">
<title>Node17</title>
<g id="a_Node000017"><a xlink:href="x__z__p__q__r__h__f_8hpp.xhtml" target="_top" xlink:title=" ">
<polygon fill="white" stroke="#666666" points="1123.5,-190.62 1027.25,-190.62 1027.25,-171.38 1123.5,-171.38 1123.5,-190.62"/>
<text text-anchor="middle" x="1075.38" y="-177.12" font-family="Helvetica,sans-Serif" font-size="10.00">x_z_p_q_r_h_f.hpp</text>
</a>
</g>
</g>
<!-- Node7&#45;&gt;Node17 -->
<g id="edge20_Node000007_Node000017" class="edge">
<title>Node7&#45;&gt;Node17</title>
<g id="a_edge20_Node000007_Node000017"><a xlink:title=" ">
<path fill="none" stroke="#63b8ff" d="M946.79,-231.8C972.12,-221.99 1012.73,-206.26 1041.53,-195.11"/>
<polygon fill="#63b8ff" stroke="#63b8ff" points="1042.46,-198.5 1050.52,-191.63 1039.93,-191.98 1042.46,-198.5"/>
</a>
</g>
</g>
<!-- Node18 -->
<g id="Node000018" class="node">
<title>Node18</title>
<g id="a_Node000018"><a xlink:href="x__z__p__q__r__hh__us__ps_8hpp.xhtml" target="_top" xlink:title=" ">
<polygon fill="white" stroke="#666666" points="573.75,-190.62 449,-190.62 449,-171.38 573.75,-171.38 573.75,-190.62"/>
<text text-anchor="middle" x="511.38" y="-177.12" font-family="Helvetica,sans-Serif" font-size="10.00">x_z_p_q_r_hh_us_ps.hpp</text>
</a>
</g>
</g>
<!-- Node7&#45;&gt;Node18 -->
<g id="edge22_Node000007_Node000018" class="edge">
<title>Node7&#45;&gt;Node18</title>
<g id="a_edge22_Node000007_Node000018"><a xlink:title=" ">
<path fill="none" stroke="#63b8ff" d="M855.77,-233.31C787.02,-225.31 677.51,-211.73 583.38,-196.25 577.78,-195.33 571.96,-194.3 566.15,-193.23"/>
<polygon fill="#63b8ff" stroke="#63b8ff" points="567.04,-189.83 556.57,-191.4 565.74,-196.71 567.04,-189.83"/>
</a>
</g>
</g>
<!-- Node21 -->
<g id="Node000021" class="node">
<title>Node21</title>
<g id="a_Node000021"><a xlink:href="x__z__p__qq__rr__f_8hpp.xhtml" target="_top" xlink:title=" ">
<polygon fill="white" stroke="#666666" points="431.38,-190.62 337.38,-190.62 337.38,-171.38 431.38,-171.38 431.38,-190.62"/>
<text text-anchor="middle" x="384.38" y="-177.12" font-family="Helvetica,sans-Serif" font-size="10.00">x_z_p_qq_rr_f.hpp</text>
</a>
</g>
</g>
<!-- Node7&#45;&gt;Node21 -->
<g id="edge27_Node000007_Node000021" class="edge">
<title>Node7&#45;&gt;Node21</title>
<g id="a_edge27_Node000007_Node000021"><a xlink:title=" ">
<path fill="none" stroke="#63b8ff" d="M855.76,-233.59C851.23,-233.13 846.74,-232.68 842.38,-232.25 663.85,-214.75 617.19,-226.46 440.38,-196.25 436.22,-195.54 431.93,-194.68 427.65,-193.74"/>
<polygon fill="#63b8ff" stroke="#63b8ff" points="428.47,-190.34 417.94,-191.45 426.87,-197.15 428.47,-190.34"/>
</a>
</g>
</g>
<!-- Node22 -->
<g id="Node000022" class="node">
<title>Node22</title>
<g id="a_Node000022"><a xlink:href="x__z__p__r_8hpp.xhtml" target="_top" xlink:title=" ">
<polygon fill="white" stroke="#666666" points="1208.88,-190.62 1141.88,-190.62 1141.88,-171.38 1208.88,-171.38 1208.88,-190.62"/>
<text text-anchor="middle" x="1175.38" y="-177.12" font-family="Helvetica,sans-Serif" font-size="10.00">x_z_p_r.hpp</text>
</a>
</g>
</g>
<!-- Node7&#45;&gt;Node22 -->
<g id="edge31_Node000007_Node000022" class="edge">
<title>Node7&#45;&gt;Node22</title>
<g id="a_edge31_Node000007_Node000022"><a xlink:title=" ">
<path fill="none" stroke="#63b8ff" d="M973.57,-231.76C1016.14,-223.65 1078.67,-210.84 1132.38,-196.25 1134.48,-195.68 1136.64,-195.06 1138.8,-194.42"/>
<polygon fill="#63b8ff" stroke="#63b8ff" points="1139.64,-197.82 1148.15,-191.5 1137.56,-191.14 1139.64,-197.82"/>
</a>
</g>
</g>
<!-- Node23 -->
<g id="Node000023" class="node">
<title>Node23</title>
<g id="a_Node000023"><a xlink:href="x__z__p__r__f_8hpp.xhtml" target="_top" xlink:title=" ">
<polygon fill="white" stroke="#666666" points="914,-190.62 838.75,-190.62 838.75,-171.38 914,-171.38 914,-190.62"/>
<text text-anchor="middle" x="876.38" y="-177.12" font-family="Helvetica,sans-Serif" font-size="10.00">x_z_p_r_f.hpp</text>
</a>
</g>
</g>
<!-- Node7&#45;&gt;Node23 -->
<g id="edge33_Node000007_Node000023" class="edge">
<title>Node7&#45;&gt;Node23</title>
<g id="a_edge33_Node000007_Node000023"><a xlink:title=" ">
<path fill="none" stroke="#63b8ff" d="M916.24,-231.93C909.47,-223.46 899.12,-210.49 890.66,-199.89"/>
<polygon fill="#63b8ff" stroke="#63b8ff" points="893.5,-197.84 884.52,-192.21 888.03,-202.21 893.5,-197.84"/>
</a>
</g>
</g>
<!-- Node24 -->
<g id="Node000024" class="node">
<title>Node24</title>
<g id="a_Node000024"><a xlink:href="x__z__u__p__q__r_8hpp.xhtml" target="_top" xlink:title=" ">
<polygon fill="white" stroke="#666666" points="820.38,-190.62 732.38,-190.62 732.38,-171.38 820.38,-171.38 820.38,-190.62"/>
<text text-anchor="middle" x="776.38" y="-177.12" font-family="Helvetica,sans-Serif" font-size="10.00">x_z_u_p_q_r.hpp</text>
</a>
</g>
</g>
<!-- Node7&#45;&gt;Node24 -->
<g id="edge35_Node000007_Node000024" class="edge">
<title>Node7&#45;&gt;Node24</title>
<g id="a_edge35_Node000007_Node000024"><a xlink:title=" ">
<path fill="none" stroke="#63b8ff" d="M900.73,-231.8C876.27,-222.01 837.08,-206.31 809.23,-195.16"/>
<polygon fill="#63b8ff" stroke="#63b8ff" points="810.8,-192.02 800.21,-191.55 808.19,-198.51 810.8,-192.02"/>
</a>
</g>
</g>
<!-- Node25 -->
<g id="Node000025" class="node">
<title>Node25</title>
<g id="a_Node000025"><a xlink:href="x__z__u__p__q__r__f__g__ps_8hpp.xhtml" target="_top" xlink:title=" ">
<polygon fill="white" stroke="#666666" points="714.62,-190.62 592.12,-190.62 592.12,-171.38 714.62,-171.38 714.62,-190.62"/>
<text text-anchor="middle" x="653.38" y="-177.12" font-family="Helvetica,sans-Serif" font-size="10.00">x_z_u_p_q_r_f_g_ps.hpp</text>
</a>
</g>
</g>
<!-- Node7&#45;&gt;Node25 -->
<g id="edge39_Node000007_Node000025" class="edge">
<title>Node7&#45;&gt;Node25</title>
<g id="a_edge39_Node000007_Node000025"><a xlink:title=" ">
<path fill="none" stroke="#63b8ff" d="M881.78,-231.8C834.61,-221.52 757.6,-204.73 706.21,-193.52"/>
<polygon fill="#63b8ff" stroke="#63b8ff" points="707.01,-190.11 696.5,-191.4 705.52,-196.95 707.01,-190.11"/>
</a>
</g>
</g>
<!-- Node26 -->
<g id="Node000026" class="node">
<title>Node26</title>
<g id="a_Node000026"><a xlink:href="x__z__u__p__q__r__h__f__g__us__ps_8hpp.xhtml" target="_top" xlink:title=" ">
<polygon fill="white" stroke="#666666" points="318.88,-196.25 203.88,-196.25 203.88,-165.75 318.88,-165.75 318.88,-196.25"/>
<text text-anchor="start" x="211.88" y="-182.75" font-family="Helvetica,sans-Serif" font-size="10.00">x_z_u_p_q_r_h_f_g_us</text>
<text text-anchor="middle" x="261.38" y="-171.5" font-family="Helvetica,sans-Serif" font-size="10.00">_ps.hpp</text>
</a>
</g>
</g>
<!-- Node7&#45;&gt;Node26 -->
<g id="edge43_Node000007_Node000026" class="edge">
<title>Node7&#45;&gt;Node26</title>
<g id="a_edge43_Node000007_Node000026"><a xlink:title=" ">
<path fill="none" stroke="#63b8ff" d="M855.77,-233.49C851.24,-233.05 846.74,-232.64 842.38,-232.25 617.93,-212.45 557.1,-227.64 330.31,-196.37"/>
<polygon fill="#63b8ff" stroke="#63b8ff" points="330.91,-192.92 320.53,-195.01 329.95,-199.85 330.91,-192.92"/>
</a>
</g>
</g>
<!-- Node8&#45;&gt;Node4 -->
<g id="edge17_Node000008_Node000004" class="edge">
<title>Node8&#45;&gt;Node4</title>
<g id="a_edge17_Node000008_Node000004"><a xlink:title=" ">
<path fill="none" stroke="#63b8ff" d="M1294.28,-170.89C1302.74,-144.35 1327.52,-66.61 1339.18,-30.05"/>
<polygon fill="#63b8ff" stroke="#63b8ff" points="1342.43,-31.4 1342.13,-20.81 1335.76,-29.27 1342.43,-31.4"/>
</a>
</g>
</g>
<!-- Node8&#45;&gt;Node9 -->
<g id="edge8_Node000008_Node000009" class="edge">
<title>Node8&#45;&gt;Node9</title>
<g id="a_edge8_Node000008_Node000009"><a xlink:title=" ">
<path fill="none" stroke="#63b8ff" d="M1269.24,-171.02C1263.5,-168.99 1257.28,-167.06 1251.38,-165.75 1107.3,-133.74 933.26,-124.68 843.47,-122.13"/>
<polygon fill="#63b8ff" stroke="#63b8ff" points="843.76,-118.63 833.67,-121.87 843.58,-125.63 843.76,-118.63"/>
</a>
</g>
</g>
<!-- Node15 -->
<g id="Node000015" class="node">
<title>Node15</title>
<g id="a_Node000015"><a xlink:title=" ">
<polygon fill="#e0e0e0" stroke="#999999" points="1279.12,-129.75 1207.62,-129.75 1207.62,-110.5 1279.12,-110.5 1279.12,-129.75"/>
<text text-anchor="middle" x="1243.38" y="-116.25" font-family="Helvetica,sans-Serif" font-size="10.00">initializer_list</text>
</a>
</g>
</g>
<!-- Node8&#45;&gt;Node15 -->
<g id="edge16_Node000008_Node000015" class="edge">
<title>Node8&#45;&gt;Node15</title>
<g id="a_edge16_Node000008_Node000015"><a xlink:title=" ">
<path fill="none" stroke="#63b8ff" d="M1284.08,-171.06C1277.18,-162.59 1266.6,-149.62 1257.96,-139.02"/>
<polygon fill="#63b8ff" stroke="#63b8ff" points="1260.72,-136.86 1251.69,-131.32 1255.3,-141.29 1260.72,-136.86"/>
</a>
</g>
</g>
<!-- Node10 -->
<g id="Node000010" class="node">
<title>Node10</title>
<g id="a_Node000010"><a xlink:href="kalman__internal_2utility_8hpp.xhtml" target="_top" xlink:title=" ">
<polygon fill="white" stroke="#666666" points="939.25,-74.5 811.5,-74.5 811.5,-55.25 939.25,-55.25 939.25,-74.5"/>
<text text-anchor="middle" x="875.38" y="-61" font-family="Helvetica,sans-Serif" font-size="10.00">kalman_internal/utility.hpp</text>
</a>
</g>
</g>
<!-- Node9&#45;&gt;Node10 -->
<g id="edge9_Node000009_Node000010" class="edge">
<title>Node9&#45;&gt;Node10</title>
<g id="a_edge9_Node000009_Node000010"><a xlink:title=" ">
<path fill="none" stroke="#63b8ff" d="M798.98,-110.09C812.99,-101.98 833.81,-89.93 850.18,-80.46"/>
<polygon fill="#63b8ff" stroke="#63b8ff" points="851.48,-83.75 858.38,-75.71 847.97,-77.69 851.48,-83.75"/>
</a>
</g>
</g>
<!-- Node12 -->
<g id="Node000012" class="node">
<title>Node12</title>
<g id="a_Node000012"><a xlink:title=" ">
<polygon fill="#e0e0e0" stroke="#999999" points="807.5,-19.25 759.25,-19.25 759.25,0 807.5,0 807.5,-19.25"/>
<text text-anchor="middle" x="783.38" y="-5.75" font-family="Helvetica,sans-Serif" font-size="10.00">cstddef</text>
</a>
</g>
</g>
<!-- Node9&#45;&gt;Node12 -->
<g id="edge14_Node000009_Node000012" class="edge">
<title>Node9&#45;&gt;Node12</title>
<g id="a_edge14_Node000009_Node000012"><a xlink:title=" ">
<path fill="none" stroke="#63b8ff" d="M783.38,-110.25C783.38,-93 783.38,-54.58 783.38,-30.81"/>
<polygon fill="#63b8ff" stroke="#63b8ff" points="786.88,-31.14 783.38,-21.14 779.88,-31.14 786.88,-31.14"/>
</a>
</g>
</g>
<!-- Node14 -->
<g id="Node000014" class="node">
<title>Node14</title>
<g id="a_Node000014"><a xlink:title=" ">
<polygon fill="#e0e0e0" stroke="#999999" points="755.62,-74.5 717.12,-74.5 717.12,-55.25 755.62,-55.25 755.62,-74.5"/>
<text text-anchor="middle" x="736.38" y="-61" font-family="Helvetica,sans-Serif" font-size="10.00">utility</text>
</a>
</g>
</g>
<!-- Node9&#45;&gt;Node14 -->
<g id="edge15_Node000009_Node000014" class="edge">
<title>Node9&#45;&gt;Node14</title>
<g id="a_edge15_Node000009_Node000014"><a xlink:title=" ">
<path fill="none" stroke="#63b8ff" d="M775.61,-110.33C769.19,-103.05 759.86,-92.48 751.91,-83.48"/>
<polygon fill="#63b8ff" stroke="#63b8ff" points="754.55,-81.18 745.31,-75.99 749.3,-85.81 754.55,-81.18"/>
</a>
</g>
</g>
<!-- Node10&#45;&gt;Node4 -->
<g id="edge13_Node000010_Node000004" class="edge">
<title>Node10&#45;&gt;Node4</title>
<g id="a_edge13_Node000010_Node000004"><a xlink:title=" ">
<path fill="none" stroke="#63b8ff" d="M939.74,-56.58C1037.49,-45.51 1220.69,-24.75 1303.2,-15.4"/>
<polygon fill="#63b8ff" stroke="#63b8ff" points="1303.34,-18.91 1312.88,-14.31 1302.55,-11.95 1303.34,-18.91"/>
</a>
</g>
</g>
<!-- Node10&#45;&gt;Node11 -->
<g id="edge10_Node000010_Node000011" class="edge">
<title>Node10&#45;&gt;Node11</title>
<g id="a_edge10_Node000010_Node000011"><a xlink:title=" ">
<path fill="none" stroke="#63b8ff" d="M909.3,-54.84C944.45,-45.48 999.31,-30.88 1036.26,-21.04"/>
<polygon fill="#63b8ff" stroke="#63b8ff" points="1036.89,-24.49 1045.65,-18.54 1035.08,-17.73 1036.89,-24.49"/>
</a>
</g>
</g>
<!-- Node10&#45;&gt;Node12 -->
<g id="edge11_Node000010_Node000012" class="edge">
<title>Node10&#45;&gt;Node12</title>
<g id="a_edge11_Node000010_Node000012"><a xlink:title=" ">
<path fill="none" stroke="#63b8ff" d="M859.77,-54.84C845.76,-46.73 824.94,-34.68 808.57,-25.21"/>
<polygon fill="#63b8ff" stroke="#63b8ff" points="810.78,-22.44 800.37,-20.46 807.27,-28.5 810.78,-22.44"/>
</a>
</g>
</g>
<!-- Node13 -->
<g id="Node000013" class="node">
<title>Node13</title>
<g id="a_Node000013"><a xlink:title=" ">
<polygon fill="#e0e0e0" stroke="#999999" points="523.88,-19.25 486.88,-19.25 486.88,0 523.88,0 523.88,-19.25"/>
<text text-anchor="middle" x="505.38" y="-5.75" font-family="Helvetica,sans-Serif" font-size="10.00">tuple</text>
</a>
</g>
</g>
<!-- Node10&#45;&gt;Node13 -->
<g id="edge12_Node000010_Node000013" class="edge">
<title>Node10&#45;&gt;Node13</title>
<g id="a_edge12_Node000010_Node000013"><a xlink:title=" ">
<path fill="none" stroke="#63b8ff" d="M812.19,-54.78C731.67,-43.19 595.72,-23.63 535.57,-14.97"/>
<polygon fill="#63b8ff" stroke="#63b8ff" points="536.15,-11.52 525.75,-13.56 535.15,-18.45 536.15,-11.52"/>
</a>
</g>
</g>
<!-- Node16&#45;&gt;Node9 -->
<g id="edge19_Node000016_Node000009" class="edge">
<title>Node16&#45;&gt;Node9</title>
<g id="a_edge19_Node000016_Node000009"><a xlink:title=" ">
<path fill="none" stroke="#63b8ff" d="M941.57,-170.93C909.86,-160.95 858.68,-144.83 823.16,-133.65"/>
<polygon fill="#63b8ff" stroke="#63b8ff" points="824.25,-130.32 813.66,-130.66 822.15,-137 824.25,-130.32"/>
</a>
</g>
</g>
<!-- Node17&#45;&gt;Node9 -->
<g id="edge21_Node000017_Node000009" class="edge">
<title>Node17&#45;&gt;Node9</title>
<g id="a_edge21_Node000017_Node000009"><a xlink:title=" ">
<path fill="none" stroke="#63b8ff" d="M1040.48,-170.94C1033.2,-169.14 1025.55,-167.33 1018.38,-165.75 959.05,-152.71 890.79,-140 843.19,-131.51"/>
<polygon fill="#63b8ff" stroke="#63b8ff" points="844.1,-128.11 833.64,-129.81 842.87,-135.01 844.1,-128.11"/>
</a>
</g>
</g>
<!-- Node18&#45;&gt;Node9 -->
<g id="edge23_Node000018_Node000009" class="edge">
<title>Node18&#45;&gt;Node9</title>
<g id="a_edge23_Node000018_Node000009"><a xlink:title=" ">
<path fill="none" stroke="#63b8ff" d="M553.28,-170.93C600.9,-160.62 678.71,-143.78 730.47,-132.58"/>
<polygon fill="#63b8ff" stroke="#63b8ff" points="730.91,-136.06 739.94,-130.53 729.43,-129.22 730.91,-136.06"/>
</a>
</g>
</g>
<!-- Node18&#45;&gt;Node13 -->
<g id="edge26_Node000018_Node000013" class="edge">
<title>Node18&#45;&gt;Node13</title>
<g id="a_edge26_Node000018_Node000013"><a xlink:title=" ">
<path fill="none" stroke="#63b8ff" d="M511.05,-170.89C510.12,-144.46 507.38,-67.29 506.08,-30.53"/>
<polygon fill="#63b8ff" stroke="#63b8ff" points="509.59,-30.75 505.74,-20.88 502.59,-31 509.59,-30.75"/>
</a>
</g>
</g>
<!-- Node19 -->
<g id="Node000019" class="node">
<title>Node19</title>
<g id="a_Node000019"><a xlink:href="function_8hpp.xhtml" target="_top" xlink:title=" ">
<polygon fill="white" stroke="#666666" points="601.62,-129.75 533.12,-129.75 533.12,-110.5 601.62,-110.5 601.62,-129.75"/>
<text text-anchor="middle" x="567.38" y="-116.25" font-family="Helvetica,sans-Serif" font-size="10.00">function.hpp</text>
</a>
</g>
</g>
<!-- Node18&#45;&gt;Node19 -->
<g id="edge24_Node000018_Node000019" class="edge">
<title>Node18&#45;&gt;Node19</title>
<g id="a_edge24_Node000018_Node000019"><a xlink:title=" ">
<path fill="none" stroke="#63b8ff" d="M519.88,-171.06C528.1,-162.41 540.78,-149.09 550.97,-138.37"/>
<polygon fill="#63b8ff" stroke="#63b8ff" points="553.39,-140.91 557.75,-131.25 548.32,-136.08 553.39,-140.91"/>
</a>
</g>
</g>
<!-- Node20 -->
<g id="Node000020" class="node">
<title>Node20</title>
<g id="a_Node000020"><a xlink:title=" ">
<polygon fill="#e0e0e0" stroke="#999999" points="592.62,-74.5 542.12,-74.5 542.12,-55.25 592.62,-55.25 592.62,-74.5"/>
<text text-anchor="middle" x="567.38" y="-61" font-family="Helvetica,sans-Serif" font-size="10.00">memory</text>
</a>
</g>
</g>
<!-- Node19&#45;&gt;Node20 -->
<g id="edge25_Node000019_Node000020" class="edge">
<title>Node19&#45;&gt;Node20</title>
<g id="a_edge25_Node000019_Node000020"><a xlink:title=" ">
<path fill="none" stroke="#63b8ff" d="M567.38,-110.33C567.38,-103.82 567.38,-94.67 567.38,-86.37"/>
<polygon fill="#63b8ff" stroke="#63b8ff" points="570.88,-86.37 567.38,-76.37 563.88,-86.37 570.88,-86.37"/>
</a>
</g>
</g>
<!-- Node21&#45;&gt;Node9 -->
<g id="edge28_Node000021_Node000009" class="edge">
<title>Node21&#45;&gt;Node9</title>
<g id="a_edge28_Node000021_Node000009"><a xlink:title=" ">
<path fill="none" stroke="#63b8ff" d="M417.39,-170.9C424.91,-169.02 432.89,-167.18 440.38,-165.75 538.64,-146.93 654.28,-133.7 723.06,-126.76"/>
<polygon fill="#63b8ff" stroke="#63b8ff" points="723.41,-130.25 733.01,-125.77 722.71,-123.28 723.41,-130.25"/>
</a>
</g>
</g>
<!-- Node21&#45;&gt;Node13 -->
<g id="edge30_Node000021_Node000013" class="edge">
<title>Node21&#45;&gt;Node13</title>
<g id="a_edge30_Node000021_Node000013"><a xlink:title=" ">
<path fill="none" stroke="#63b8ff" d="M390.88,-170.89C410.09,-144 466.83,-64.58 492.5,-28.64"/>
<polygon fill="#63b8ff" stroke="#63b8ff" points="495.28,-30.77 498.25,-20.6 489.59,-26.7 495.28,-30.77"/>
</a>
</g>
</g>
<!-- Node21&#45;&gt;Node19 -->
<g id="edge29_Node000021_Node000019" class="edge">
<title>Node21&#45;&gt;Node19</title>
<g id="a_edge29_Node000021_Node000019"><a xlink:title=" ">
<path fill="none" stroke="#63b8ff" d="M412.57,-170.93C443.6,-160.95 493.68,-144.83 528.45,-133.65"/>
<polygon fill="#63b8ff" stroke="#63b8ff" points="529.26,-137.06 537.71,-130.67 527.12,-130.4 529.26,-137.06"/>
</a>
</g>
</g>
<!-- Node22&#45;&gt;Node9 -->
<g id="edge32_Node000022_Node000009" class="edge">
<title>Node22&#45;&gt;Node9</title>
<g id="a_edge32_Node000022_Node000009"><a xlink:title=" ">
<path fill="none" stroke="#63b8ff" d="M1150.59,-170.89C1144.69,-168.96 1138.36,-167.11 1132.38,-165.75 1032.37,-143.01 913.42,-130.9 843.39,-125.26"/>
<polygon fill="#63b8ff" stroke="#63b8ff" points="843.91,-121.79 833.67,-124.5 843.37,-128.77 843.91,-121.79"/>
</a>
</g>
</g>
<!-- Node23&#45;&gt;Node9 -->
<g id="edge34_Node000023_Node000009" class="edge">
<title>Node23&#45;&gt;Node9</title>
<g id="a_edge34_Node000023_Node000009"><a xlink:title=" ">
<path fill="none" stroke="#63b8ff" d="M862.25,-171.06C847.64,-161.81 824.56,-147.2 807.13,-136.17"/>
<polygon fill="#63b8ff" stroke="#63b8ff" points="809.23,-133.35 798.91,-130.96 805.49,-139.27 809.23,-133.35"/>
</a>
</g>
</g>
<!-- Node24&#45;&gt;Node9 -->
<g id="edge36_Node000024_Node000009" class="edge">
<title>Node24&#45;&gt;Node9</title>
<g id="a_edge36_Node000024_Node000009"><a xlink:title=" ">
<path fill="none" stroke="#63b8ff" d="M777.44,-171.06C778.37,-163.19 779.77,-151.45 780.97,-141.32"/>
<polygon fill="#63b8ff" stroke="#63b8ff" points="784.42,-142 782.12,-131.65 777.47,-141.17 784.42,-142"/>
</a>
</g>
</g>
<!-- Node24&#45;&gt;Node13 -->
<g id="edge38_Node000024_Node000013" class="edge">
<title>Node24&#45;&gt;Node13</title>
<g id="a_edge38_Node000024_Node000013"><a xlink:title=" ">
<path fill="none" stroke="#63b8ff" d="M767.42,-170.99C744.88,-148.7 683.2,-90.29 622.38,-55.25 594.24,-39.04 559.11,-26.56 534.73,-18.97"/>
<polygon fill="#63b8ff" stroke="#63b8ff" points="536.05,-15.71 525.47,-16.17 534.03,-22.41 536.05,-15.71"/>
</a>
</g>
</g>
<!-- Node24&#45;&gt;Node19 -->
<g id="edge37_Node000024_Node000019" class="edge">
<title>Node24&#45;&gt;Node19</title>
<g id="a_edge37_Node000024_Node000019"><a xlink:title=" ">
<path fill="none" stroke="#63b8ff" d="M744.18,-170.93C708.35,-160.84 650.3,-144.48 610.55,-133.29"/>
<polygon fill="#63b8ff" stroke="#63b8ff" points="611.64,-129.96 601.07,-130.62 609.74,-136.7 611.64,-129.96"/>
</a>
</g>
</g>
<!-- Node25&#45;&gt;Node9 -->
<g id="edge40_Node000025_Node000009" class="edge">
<title>Node25&#45;&gt;Node9</title>
<g id="a_edge40_Node000025_Node000009"><a xlink:title=" ">
<path fill="none" stroke="#63b8ff" d="M673.4,-170.93C694.74,-161.26 728.77,-145.85 753.33,-134.73"/>
<polygon fill="#63b8ff" stroke="#63b8ff" points="754.49,-138.05 762.16,-130.73 751.61,-131.67 754.49,-138.05"/>
</a>
</g>
</g>
<!-- Node25&#45;&gt;Node13 -->
<g id="edge42_Node000025_Node000013" class="edge">
<title>Node25&#45;&gt;Node13</title>
<g id="a_edge42_Node000025_Node000013"><a xlink:title=" ">
<path fill="none" stroke="#63b8ff" d="M651.91,-170.92C647.87,-148.49 634.54,-89.77 601.38,-55.25 583.33,-36.46 555.83,-24.8 534.89,-18.13"/>
<polygon fill="#63b8ff" stroke="#63b8ff" points="536.06,-14.83 525.48,-15.35 534.08,-21.54 536.06,-14.83"/>
</a>
</g>
</g>
<!-- Node25&#45;&gt;Node19 -->
<g id="edge41_Node000025_Node000019" class="edge">
<title>Node25&#45;&gt;Node19</title>
<g id="a_edge41_Node000025_Node000019"><a xlink:title=" ">
<path fill="none" stroke="#63b8ff" d="M640.31,-171.06C626.93,-161.89 605.86,-147.47 589.8,-136.48"/>
<polygon fill="#63b8ff" stroke="#63b8ff" points="592.04,-133.77 581.81,-131.01 588.08,-139.54 592.04,-133.77"/>
</a>
</g>
</g>
<!-- Node26&#45;&gt;Node9 -->
<g id="edge44_Node000026_Node000009" class="edge">
<title>Node26&#45;&gt;Node9</title>
<g id="a_edge44_Node000026_Node000009"><a xlink:title=" ">
<path fill="none" stroke="#63b8ff" d="M319.04,-167.31C322.19,-166.75 325.32,-166.22 328.38,-165.75 469.12,-143.95 636.11,-130.79 723.4,-124.86"/>
<polygon fill="#63b8ff" stroke="#63b8ff" points="723.41,-128.37 733.16,-124.21 722.95,-121.38 723.41,-128.37"/>
</a>
</g>
</g>
<!-- Node26&#45;&gt;Node13 -->
<g id="edge46_Node000026_Node000013" class="edge">
<title>Node26&#45;&gt;Node13</title>
<g id="a_edge46_Node000026_Node000013"><a xlink:title=" ">
<path fill="none" stroke="#63b8ff" d="M282.6,-165.27C328.4,-133.47 436.13,-58.69 482.97,-26.18"/>
<polygon fill="#63b8ff" stroke="#63b8ff" points="484.79,-29.18 491.01,-20.6 480.8,-23.43 484.79,-29.18"/>
</a>
</g>
</g>
<!-- Node26&#45;&gt;Node19 -->
<g id="edge45_Node000026_Node000019" class="edge">
<title>Node26&#45;&gt;Node19</title>
<g id="a_edge45_Node000026_Node000019"><a xlink:title=" ">
<path fill="none" stroke="#63b8ff" d="M319.1,-167.63C322.24,-166.98 325.34,-166.36 328.38,-165.75 395.49,-152.35 473.45,-138.02 521.61,-129.32"/>
<polygon fill="#63b8ff" stroke="#63b8ff" points="522.18,-132.77 531.4,-127.55 520.94,-125.88 522.18,-132.77"/>
</a>
</g>
</g>
<!-- Node27&#45;&gt;Node9 -->
<g id="edge50_Node000027_Node000009" class="edge">
<title>Node27&#45;&gt;Node9</title>
<g id="a_edge50_Node000027_Node000009"><a xlink:title=" ">
<path fill="none" stroke="#63b8ff" d="M162.87,-170.88C173.16,-168.96 184.13,-167.11 194.38,-165.75 295.4,-152.37 594.58,-132.87 723.34,-124.81"/>
<polygon fill="#63b8ff" stroke="#63b8ff" points="723.25,-128.33 733.01,-124.21 722.81,-121.34 723.25,-128.33"/>
</a>
</g>
</g>
<!-- Node27&#45;&gt;Node12 -->
<g id="edge51_Node000027_Node000012" class="edge">
<title>Node27&#45;&gt;Node12</title>
<g id="a_edge51_Node000027_Node000012"><a xlink:title=" ">
<path fill="none" stroke="#63b8ff" d="M145.72,-170.89C210.83,-148.65 384.8,-90.77 533.38,-55.25 609.04,-37.16 699.17,-22.81 747.88,-15.63"/>
<polygon fill="#63b8ff" stroke="#63b8ff" points="748.16,-19.13 757.55,-14.23 747.15,-12.2 748.16,-19.13"/>
</a>
</g>
</g>
<!-- Node27&#45;&gt;Node13 -->
<g id="edge53_Node000027_Node000013" class="edge">
<title>Node27&#45;&gt;Node13</title>
<g id="a_edge53_Node000027_Node000013"><a xlink:title=" ">
<path fill="none" stroke="#63b8ff" d="M119.17,-170.94C119.34,-156.18 121.91,-126.94 138.38,-110.5 186.7,-62.23 396.6,-26.75 475.36,-14.91"/>
<polygon fill="#63b8ff" stroke="#63b8ff" points="475.54,-18.43 484.92,-13.5 474.52,-11.5 475.54,-18.43"/>
</a>
</g>
</g>
<!-- Node28 -->
<g id="Node000028" class="node">
<title>Node28</title>
<g id="a_Node000028"><a xlink:title=" ">
<polygon fill="#e0e0e0" stroke="#999999" points="191.25,-129.75 147.5,-129.75 147.5,-110.5 191.25,-110.5 191.25,-129.75"/>
<text text-anchor="middle" x="169.38" y="-116.25" font-family="Helvetica,sans-Serif" font-size="10.00">format</text>
</a>
</g>
</g>
<!-- Node27&#45;&gt;Node28 -->
<g id="edge52_Node000027_Node000028" class="edge">
<title>Node27&#45;&gt;Node28</title>
<g id="a_edge52_Node000027_Node000028"><a xlink:title=" ">
<path fill="none" stroke="#63b8ff" d="M126.97,-171.06C134.24,-162.5 145.4,-149.35 154.45,-138.7"/>
<polygon fill="#63b8ff" stroke="#63b8ff" points="156.92,-141.19 160.73,-131.3 151.59,-136.66 156.92,-141.19"/>
</a>
</g>
</g>
<!-- Node30 -->
<g id="Node000030" class="node">
<title>Node30</title>
<g id="a_Node000030"><a xlink:title=" ">
<polygon fill="#e0e0e0" stroke="#999999" points="34.75,-190.62 0,-190.62 0,-171.38 34.75,-171.38 34.75,-190.62"/>
<text text-anchor="middle" x="17.38" y="-177.12" font-family="Helvetica,sans-Serif" font-size="10.00">print</text>
</a>
</g>
</g>
<!-- Node29&#45;&gt;Node30 -->
<g id="edge55_Node000029_Node000030" class="edge">
<title>Node29&#45;&gt;Node30</title>
<g id="a_edge55_Node000029_Node000030"><a xlink:title=" ">
<path fill="none" stroke="#63b8ff" d="M668.14,-233.05C665.18,-232.77 662.25,-232.5 659.38,-232.25 522.76,-220.41 175.16,-234.13 43.38,-196.25 42.73,-196.06 42.07,-195.86 41.42,-195.64"/>
<polygon fill="#63b8ff" stroke="#63b8ff" points="43.12,-192.56 32.57,-191.66 40.25,-198.95 43.12,-192.56"/>
</a>
</g>
</g>
</g>
</svg>
