<?xml version="1.0" encoding="UTF-8" standalone="no"?>
<!DOCTYPE svg PUBLIC "-//W3C//DTD SVG 1.1//EN"
 "http://www.w3.org/Graphics/SVG/1.1/DTD/svg11.dtd">
<!-- Generated by graphviz version 3.0.0 (20220413.0242)
 -->
<!-- Title: benchmark/predict_1x1x0.cpp Pages: 1 -->
<svg width="582pt" height="252pt"
 viewBox="0.00 0.00 582.00 252.00" xmlns="http://www.w3.org/2000/svg" xmlns:xlink="http://www.w3.org/1999/xlink">
<g id="graph0" class="graph" transform="scale(1 1) rotate(0) translate(4 248)">
<title>benchmark/predict_1x1x0.cpp</title>
<polygon fill="white" stroke="transparent" points="-4,4 -4,-248 578,-248 578,4 -4,4"/>
<!-- Node1 -->
<g id="node1" class="node">
<title>Node1</title>
<g id="a_node1"><a xlink:title=" ">
<polygon fill="#bfbfbf" stroke="black" points="232.5,-224.5 232.5,-243.5 377.5,-243.5 377.5,-224.5 232.5,-224.5"/>
<text text-anchor="middle" x="305" y="-231.5" font-family="Helvetica,sans-Serif" font-size="10.00">benchmark/predict_1x1x0.cpp</text>
</a>
</g>
</g>
<!-- Node2 -->
<g id="node2" class="node">
<title>Node2</title>
<g id="a_node2"><a xlink:href="benchmark_8hpp.xhtml" target="_top" xlink:title="Benchmarking support.">
<polygon fill="white" stroke="black" points="51.5,-168.5 51.5,-187.5 134.5,-187.5 134.5,-168.5 51.5,-168.5"/>
<text text-anchor="middle" x="93" y="-175.5" font-family="Helvetica,sans-Serif" font-size="10.00">benchmark.hpp</text>
</a>
</g>
</g>
<!-- Node1&#45;&gt;Node2 -->
<g id="edge1" class="edge">
<title>Node1&#45;&gt;Node2</title>
<path fill="none" stroke="midnightblue" d="M271.41,-224.44C234.81,-215.12 176.16,-200.18 136.17,-190"/>
<polygon fill="midnightblue" stroke="midnightblue" points="136.99,-186.59 126.43,-187.52 135.26,-193.38 136.99,-186.59"/>
</g>
<!-- Node3 -->
<g id="node3" class="node">
<title>Node3</title>
<g id="a_node3"><a xlink:title=" ">
<polygon fill="white" stroke="#bfbfbf" points="0,-112.5 0,-131.5 46,-131.5 46,-112.5 0,-112.5"/>
<text text-anchor="middle" x="23" y="-119.5" font-family="Helvetica,sans-Serif" font-size="10.00">chrono</text>
</a>
</g>
</g>
<!-- Node1&#45;&gt;Node3 -->
<g id="edge23" class="edge">
<title>Node1&#45;&gt;Node3</title>
<path fill="none" stroke="midnightblue" d="M232.5,-229.09C164.59,-223.96 69.54,-212.54 42,-188 28.99,-176.41 24.68,-156.45 23.35,-141.7"/>
<polygon fill="midnightblue" stroke="midnightblue" points="26.84,-141.46 22.82,-131.66 19.85,-141.83 26.84,-141.46"/>
</g>
<!-- Node5 -->
<g id="node5" class="node">
<title>Node5</title>
<g id="a_node5"><a xlink:href="kalman_8hpp.xhtml" target="_top" xlink:title="The main Kalman filter class.">
<polygon fill="white" stroke="black" points="251.5,-168.5 251.5,-187.5 358.5,-187.5 358.5,-168.5 251.5,-168.5"/>
<text text-anchor="middle" x="305" y="-175.5" font-family="Helvetica,sans-Serif" font-size="10.00">fcarouge/kalman.hpp</text>
</a>
</g>
</g>
<!-- Node1&#45;&gt;Node5 -->
<g id="edge4" class="edge">
<title>Node1&#45;&gt;Node5</title>
<path fill="none" stroke="midnightblue" d="M305,-224.08C305,-217.01 305,-206.86 305,-197.99"/>
<polygon fill="midnightblue" stroke="midnightblue" points="308.5,-197.75 305,-187.75 301.5,-197.75 308.5,-197.75"/>
</g>
<!-- Node15 -->
<g id="node15" class="node">
<title>Node15</title>
<g id="a_node15"><a xlink:title=" ">
<polygon fill="white" stroke="#bfbfbf" points="376.5,-168.5 376.5,-187.5 499.5,-187.5 499.5,-168.5 376.5,-168.5"/>
<text text-anchor="middle" x="438" y="-175.5" font-family="Helvetica,sans-Serif" font-size="10.00">benchmark/benchmark.h</text>
</a>
</g>
</g>
<!-- Node1&#45;&gt;Node15 -->
<g id="edge21" class="edge">
<title>Node1&#45;&gt;Node15</title>
<path fill="none" stroke="midnightblue" d="M326.07,-224.44C348.06,-215.52 382.73,-201.44 407.66,-191.32"/>
<polygon fill="midnightblue" stroke="midnightblue" points="409.08,-194.52 417.02,-187.52 406.44,-188.04 409.08,-194.52"/>
</g>
<!-- Node16 -->
<g id="node16" class="node">
<title>Node16</title>
<g id="a_node16"><a xlink:title=" ">
<polygon fill="white" stroke="#bfbfbf" points="518,-168.5 518,-187.5 574,-187.5 574,-168.5 518,-168.5"/>
<text text-anchor="middle" x="546" y="-175.5" font-family="Helvetica,sans-Serif" font-size="10.00">algorithm</text>
</a>
</g>
</g>
<!-- Node1&#45;&gt;Node16 -->
<g id="edge22" class="edge">
<title>Node1&#45;&gt;Node16</title>
<path fill="none" stroke="midnightblue" d="M344.93,-224.46C384.01,-216.04 445.48,-202.64 507.74,-188.26"/>
<polygon fill="midnightblue" stroke="midnightblue" points="508.78,-191.61 517.73,-185.94 507.2,-184.79 508.78,-191.61"/>
</g>
<!-- Node2&#45;&gt;Node3 -->
<g id="edge2" class="edge">
<title>Node2&#45;&gt;Node3</title>
<path fill="none" stroke="midnightblue" d="M81.75,-168.32C71.2,-160.18 55.2,-147.84 42.56,-138.09"/>
<polygon fill="midnightblue" stroke="midnightblue" points="44.51,-135.17 34.45,-131.83 40.23,-140.71 44.51,-135.17"/>
</g>
<!-- Node4 -->
<g id="node4" class="node">
<title>Node4</title>
<g id="a_node4"><a xlink:title=" ">
<polygon fill="white" stroke="#bfbfbf" points="263,-0.5 263,-19.5 325,-19.5 325,-0.5 263,-0.5"/>
<text text-anchor="middle" x="294" y="-7.5" font-family="Helvetica,sans-Serif" font-size="10.00">type_traits</text>
</a>
</g>
</g>
<!-- Node2&#45;&gt;Node4 -->
<g id="edge3" class="edge">
<title>Node2&#45;&gt;Node4</title>
<path fill="none" stroke="midnightblue" d="M89.68,-168.19C82.12,-146.42 66.21,-89.45 93,-56 112.59,-31.53 199.61,-19.47 252.52,-14.3"/>
<polygon fill="midnightblue" stroke="midnightblue" points="252.99,-17.77 262.62,-13.36 252.34,-10.8 252.99,-17.77"/>
</g>
<!-- Node5&#45;&gt;Node4 -->
<g id="edge19" class="edge">
<title>Node5&#45;&gt;Node4</title>
<path fill="none" stroke="midnightblue" d="M358.6,-169.05C429.63,-158.26 546.77,-139.46 553,-132 572.09,-109.13 545.49,-71.02 526,-56 496.72,-33.44 393.73,-20.34 335.29,-14.57"/>
<polygon fill="midnightblue" stroke="midnightblue" points="335.56,-11.08 325.27,-13.6 334.89,-18.04 335.56,-11.08"/>
</g>
<!-- Node6 -->
<g id="node6" class="node">
<title>Node6</title>
<g id="a_node6"><a xlink:href="format_8hpp.xhtml" target="_top" xlink:title=" ">
<polygon fill="white" stroke="black" points="140.5,-112.5 140.5,-131.5 237.5,-131.5 237.5,-112.5 140.5,-112.5"/>
<text text-anchor="middle" x="189" y="-119.5" font-family="Helvetica,sans-Serif" font-size="10.00">internal/format.hpp</text>
</a>
</g>
</g>
<!-- Node5&#45;&gt;Node6 -->
<g id="edge5" class="edge">
<title>Node5&#45;&gt;Node6</title>
<path fill="none" stroke="midnightblue" d="M286.62,-168.44C267.78,-159.68 238.27,-145.94 216.62,-135.86"/>
<polygon fill="midnightblue" stroke="midnightblue" points="217.84,-132.56 207.29,-131.52 214.88,-138.91 217.84,-132.56"/>
</g>
<!-- Node7 -->
<g id="node7" class="node">
<title>Node7</title>
<g id="a_node7"><a xlink:href="internal_2utility_8hpp.xhtml" target="_top" xlink:title=" ">
<polygon fill="white" stroke="black" points="237.5,-56.5 237.5,-75.5 294.5,-75.5 294.5,-56.5 237.5,-56.5"/>
<text text-anchor="middle" x="266" y="-63.5" font-family="Helvetica,sans-Serif" font-size="10.00">utility.hpp</text>
</a>
</g>
</g>
<!-- Node5&#45;&gt;Node7 -->
<g id="edge15" class="edge">
<title>Node5&#45;&gt;Node7</title>
<path fill="none" stroke="midnightblue" d="M300.66,-168.18C296.34,-159.21 289.71,-144.84 285,-132 279.31,-116.48 274.14,-98.39 270.63,-85.25"/>
<polygon fill="midnightblue" stroke="midnightblue" points="274.01,-84.33 268.1,-75.53 267.23,-86.09 274.01,-84.33"/>
</g>
<!-- Node8 -->
<g id="node8" class="node">
<title>Node8</title>
<g id="a_node8"><a xlink:title=" ">
<polygon fill="white" stroke="#bfbfbf" points="102.5,-56.5 102.5,-75.5 151.5,-75.5 151.5,-56.5 102.5,-56.5"/>
<text text-anchor="middle" x="127" y="-63.5" font-family="Helvetica,sans-Serif" font-size="10.00">cstddef</text>
</a>
</g>
</g>
<!-- Node5&#45;&gt;Node8 -->
<g id="edge17" class="edge">
<title>Node5&#45;&gt;Node8</title>
<path fill="none" stroke="midnightblue" d="M251.42,-170.09C206.15,-163.06 146.29,-150.54 131,-132 120.56,-119.34 120.67,-100.13 122.73,-85.87"/>
<polygon fill="midnightblue" stroke="midnightblue" points="126.23,-86.2 124.63,-75.72 119.35,-84.91 126.23,-86.2"/>
</g>
<!-- Node10 -->
<g id="node10" class="node">
<title>Node10</title>
<g id="a_node10"><a xlink:href="internal_2kalman_8hpp.xhtml" target="_top" xlink:title=" ">
<polygon fill="white" stroke="black" points="294.5,-112.5 294.5,-131.5 395.5,-131.5 395.5,-112.5 294.5,-112.5"/>
<text text-anchor="middle" x="345" y="-119.5" font-family="Helvetica,sans-Serif" font-size="10.00">internal/kalman.hpp</text>
</a>
</g>
</g>
<!-- Node5&#45;&gt;Node10 -->
<g id="edge10" class="edge">
<title>Node5&#45;&gt;Node10</title>
<path fill="none" stroke="midnightblue" d="M311.61,-168.08C317.26,-160.46 325.54,-149.26 332.45,-139.94"/>
<polygon fill="midnightblue" stroke="midnightblue" points="335.38,-141.87 338.52,-131.75 329.75,-137.7 335.38,-141.87"/>
</g>
<!-- Node11 -->
<g id="node11" class="node">
<title>Node11</title>
<g id="a_node11"><a xlink:title=" ">
<polygon fill="white" stroke="#bfbfbf" points="457.5,-56.5 457.5,-75.5 516.5,-75.5 516.5,-56.5 457.5,-56.5"/>
<text text-anchor="middle" x="487" y="-63.5" font-family="Helvetica,sans-Serif" font-size="10.00">functional</text>
</a>
</g>
</g>
<!-- Node5&#45;&gt;Node11 -->
<g id="edge18" class="edge">
<title>Node5&#45;&gt;Node11</title>
<path fill="none" stroke="midnightblue" d="M357.98,-168.46C424.67,-157.46 531.28,-138.93 537,-132 551.14,-114.85 529.45,-94.45 510.36,-81.14"/>
<polygon fill="midnightblue" stroke="midnightblue" points="512.19,-78.15 501.91,-75.56 508.33,-83.99 512.19,-78.15"/>
</g>
<!-- Node13 -->
<g id="node13" class="node">
<title>Node13</title>
<g id="a_node13"><a xlink:title=" ">
<polygon fill="white" stroke="#bfbfbf" points="414,-112.5 414,-131.5 470,-131.5 470,-112.5 414,-112.5"/>
<text text-anchor="middle" x="442" y="-119.5" font-family="Helvetica,sans-Serif" font-size="10.00">concepts</text>
</a>
</g>
</g>
<!-- Node5&#45;&gt;Node13 -->
<g id="edge16" class="edge">
<title>Node5&#45;&gt;Node13</title>
<path fill="none" stroke="midnightblue" d="M326.71,-168.44C349.35,-159.52 385.07,-145.44 410.75,-135.32"/>
<polygon fill="midnightblue" stroke="midnightblue" points="412.37,-138.44 420.39,-131.52 409.81,-131.93 412.37,-138.44"/>
</g>
<!-- Node14 -->
<g id="node14" class="node">
<title>Node14</title>
<g id="a_node14"><a xlink:title=" ">
<polygon fill="white" stroke="#bfbfbf" points="488.5,-112.5 488.5,-131.5 527.5,-131.5 527.5,-112.5 488.5,-112.5"/>
<text text-anchor="middle" x="508" y="-119.5" font-family="Helvetica,sans-Serif" font-size="10.00">utility</text>
</a>
</g>
</g>
<!-- Node5&#45;&gt;Node14 -->
<g id="edge20" class="edge">
<title>Node5&#45;&gt;Node14</title>
<path fill="none" stroke="midnightblue" d="M340.13,-168.44C373.37,-160.22 424.88,-147.19 478.67,-131.99"/>
<polygon fill="midnightblue" stroke="midnightblue" points="479.72,-135.33 488.38,-129.23 477.81,-128.6 479.72,-135.33"/>
</g>
<!-- Node6&#45;&gt;Node7 -->
<g id="edge6" class="edge">
<title>Node6&#45;&gt;Node7</title>
<path fill="none" stroke="midnightblue" d="M201.37,-112.32C213.16,-104.06 231.13,-91.45 245.14,-81.63"/>
<polygon fill="midnightblue" stroke="midnightblue" points="247.48,-84.26 253.66,-75.65 243.46,-78.53 247.48,-84.26"/>
</g>
<!-- Node6&#45;&gt;Node8 -->
<g id="edge8" class="edge">
<title>Node6&#45;&gt;Node8</title>
<path fill="none" stroke="midnightblue" d="M179.04,-112.32C169.87,-104.34 156.06,-92.31 144.97,-82.65"/>
<polygon fill="midnightblue" stroke="midnightblue" points="146.98,-79.76 137.14,-75.83 142.38,-85.04 146.98,-79.76"/>
</g>
<!-- Node9 -->
<g id="node9" class="node">
<title>Node9</title>
<g id="a_node9"><a xlink:title=" ">
<polygon fill="white" stroke="#bfbfbf" points="170,-56.5 170,-75.5 214,-75.5 214,-56.5 170,-56.5"/>
<text text-anchor="middle" x="192" y="-63.5" font-family="Helvetica,sans-Serif" font-size="10.00">format</text>
</a>
</g>
</g>
<!-- Node6&#45;&gt;Node9 -->
<g id="edge9" class="edge">
<title>Node6&#45;&gt;Node9</title>
<path fill="none" stroke="midnightblue" d="M189.5,-112.08C189.89,-105.01 190.45,-94.86 190.95,-85.99"/>
<polygon fill="midnightblue" stroke="midnightblue" points="194.45,-85.93 191.51,-75.75 187.46,-85.54 194.45,-85.93"/>
</g>
<!-- Node7&#45;&gt;Node4 -->
<g id="edge7" class="edge">
<title>Node7&#45;&gt;Node4</title>
<path fill="none" stroke="midnightblue" d="M270.62,-56.08C274.46,-48.69 280.02,-37.95 284.76,-28.81"/>
<polygon fill="midnightblue" stroke="midnightblue" points="287.97,-30.24 289.46,-19.75 281.75,-27.02 287.97,-30.24"/>
</g>
<!-- Node10&#45;&gt;Node4 -->
<g id="edge14" class="edge">
<title>Node10&#45;&gt;Node4</title>
<path fill="none" stroke="midnightblue" d="M341,-112.37C332.69,-94.46 313.44,-52.92 302.32,-28.95"/>
<polygon fill="midnightblue" stroke="midnightblue" points="305.36,-27.19 297.98,-19.59 299.01,-30.14 305.36,-27.19"/>
</g>
<!-- Node10&#45;&gt;Node7 -->
<g id="edge11" class="edge">
<title>Node10&#45;&gt;Node7</title>
<path fill="none" stroke="midnightblue" d="M332.31,-112.32C320.1,-103.98 301.42,-91.21 287,-81.35"/>
<polygon fill="midnightblue" stroke="midnightblue" points="288.89,-78.41 278.66,-75.65 284.94,-84.19 288.89,-78.41"/>
</g>
<!-- Node10&#45;&gt;Node11 -->
<g id="edge12" class="edge">
<title>Node10&#45;&gt;Node11</title>
<path fill="none" stroke="midnightblue" d="M367.5,-112.44C391.08,-103.48 428.32,-89.31 454.96,-79.18"/>
<polygon fill="midnightblue" stroke="midnightblue" points="456.5,-82.34 464.6,-75.52 454.01,-75.8 456.5,-82.34"/>
</g>
<!-- Node12 -->
<g id="node12" class="node">
<title>Node12</title>
<g id="a_node12"><a xlink:title=" ">
<polygon fill="white" stroke="#bfbfbf" points="351,-56.5 351,-75.5 389,-75.5 389,-56.5 351,-56.5"/>
<text text-anchor="middle" x="370" y="-63.5" font-family="Helvetica,sans-Serif" font-size="10.00">tuple</text>
</a>
</g>
</g>
<!-- Node10&#45;&gt;Node12 -->
<g id="edge13" class="edge">
<title>Node10&#45;&gt;Node12</title>
<path fill="none" stroke="midnightblue" d="M349.13,-112.08C352.51,-104.77 357.42,-94.18 361.62,-85.1"/>
<polygon fill="midnightblue" stroke="midnightblue" points="364.92,-86.3 365.95,-75.75 358.57,-83.36 364.92,-86.3"/>
</g>
</g>
</svg>
