<?xml version="1.0" encoding="UTF-8" standalone="no"?>
<!DOCTYPE svg PUBLIC "-//W3C//DTD SVG 1.1//EN"
 "http://www.w3.org/Graphics/SVG/1.1/DTD/svg11.dtd">
<!-- Generated by graphviz version 12.2.0 (20241103.1931)
 -->
<!-- Title: /github/workspace/benchmark/predict_1x1x0.cpp Pages: 1 -->
<svg width="1558pt" height="326pt"
 viewBox="0.00 0.00 1558.45 326.00" xmlns="http://www.w3.org/2000/svg" xmlns:xlink="http://www.w3.org/1999/xlink">
<g id="graph0" class="graph" transform="scale(1 1) rotate(0) translate(4 322)">
<title>/github/workspace/benchmark/predict_1x1x0.cpp</title>
<!-- Node1 -->
<g id="Node000001" class="node">
<title>Node1</title>
<g id="a_Node000001"><a xlink:title=" ">
<polygon fill="#999999" stroke="#666666" points="1368.83,-318 1222.33,-318 1222.33,-287.5 1368.83,-287.5 1368.83,-318"/>
<text text-anchor="start" x="1230.33" y="-304.5" font-family="Helvetica,sans-Serif" font-size="10.00">/github/workspace/benchmark</text>
<text text-anchor="middle" x="1295.58" y="-293.25" font-family="Helvetica,sans-Serif" font-size="10.00">/predict_1x1x0.cpp</text>
</a>
</g>
</g>
<!-- Node2 -->
<g id="Node000002" class="node">
<title>Node2</title>
<g id="a_Node000002"><a xlink:href="benchmark_8hpp.xhtml" target="_top" xlink:title="Benchmarking support.">
<polygon fill="white" stroke="#666666" points="1336.58,-251.5 1254.58,-251.5 1254.58,-232.25 1336.58,-232.25 1336.58,-251.5"/>
<text text-anchor="middle" x="1295.58" y="-238" font-family="Helvetica,sans-Serif" font-size="10.00">benchmark.hpp</text>
</a>
</g>
</g>
<!-- Node1&#45;&gt;Node2 -->
<g id="edge1_Node000001_Node000002" class="edge">
<title>Node1&#45;&gt;Node2</title>
<g id="a_edge1_Node000001_Node000002"><a xlink:title=" ">
<path fill="none" stroke="#63b8ff" d="M1295.58,-287.2C1295.58,-279.96 1295.58,-271.09 1295.58,-263.19"/>
<polygon fill="#63b8ff" stroke="#63b8ff" points="1299.08,-263.46 1295.58,-253.46 1292.08,-263.46 1299.08,-263.46"/>
</a>
</g>
</g>
<!-- Node3 -->
<g id="Node000003" class="node">
<title>Node3</title>
<g id="a_Node000003"><a xlink:title=" ">
<polygon fill="#e0e0e0" stroke="#999999" points="1285.2,-196.25 1239.95,-196.25 1239.95,-177 1285.2,-177 1285.2,-196.25"/>
<text text-anchor="middle" x="1262.58" y="-182.75" font-family="Helvetica,sans-Serif" font-size="10.00">chrono</text>
</a>
</g>
</g>
<!-- Node1&#45;&gt;Node3 -->
<g id="edge61_Node000001_Node000003" class="edge">
<title>Node1&#45;&gt;Node3</title>
<g id="a_edge61_Node000001_Node000003"><a xlink:title=" ">
<path fill="none" stroke="#63b8ff" d="M1274.57,-287.13C1263.7,-278.23 1251.49,-265.83 1245.58,-251.5 1239.55,-236.9 1244.92,-219.53 1251.18,-206.59"/>
<polygon fill="#63b8ff" stroke="#63b8ff" points="1254.21,-208.33 1255.91,-197.87 1248.06,-204.99 1254.21,-208.33"/>
</a>
</g>
</g>
<!-- Node5 -->
<g id="Node000005" class="node">
<title>Node5</title>
<g id="a_Node000005"><a xlink:href="kalman_8hpp.xhtml" target="_top" xlink:title="The Kalman filter class and library top&#45;level header.">
<polygon fill="white" stroke="#666666" points="1138.58,-251.5 1032.58,-251.5 1032.58,-232.25 1138.58,-232.25 1138.58,-251.5"/>
<text text-anchor="middle" x="1085.58" y="-238" font-family="Helvetica,sans-Serif" font-size="10.00">fcarouge/kalman.hpp</text>
</a>
</g>
</g>
<!-- Node1&#45;&gt;Node5 -->
<g id="edge4_Node000001_Node000005" class="edge">
<title>Node1&#45;&gt;Node5</title>
<g id="a_edge4_Node000001_Node000005"><a xlink:title=" ">
<path fill="none" stroke="#63b8ff" d="M1243.13,-287.05C1207.87,-277.16 1161.97,-264.29 1128.81,-255"/>
<polygon fill="#63b8ff" stroke="#63b8ff" points="1130.12,-251.73 1119.55,-252.4 1128.23,-258.47 1130.12,-251.73"/>
</a>
</g>
</g>
<!-- Node31 -->
<g id="Node000031" class="node">
<title>Node31</title>
<g id="a_Node000031"><a xlink:title=" ">
<polygon fill="#e0e0e0" stroke="#999999" points="1476.83,-251.5 1354.33,-251.5 1354.33,-232.25 1476.83,-232.25 1476.83,-251.5"/>
<text text-anchor="middle" x="1415.58" y="-238" font-family="Helvetica,sans-Serif" font-size="10.00">benchmark/benchmark.h</text>
</a>
</g>
</g>
<!-- Node1&#45;&gt;Node31 -->
<g id="edge59_Node000001_Node000031" class="edge">
<title>Node1&#45;&gt;Node31</title>
<g id="a_edge59_Node000001_Node000031"><a xlink:title=" ">
<path fill="none" stroke="#63b8ff" d="M1325.55,-287.05C1344.35,-277.82 1368.45,-266 1386.99,-256.9"/>
<polygon fill="#63b8ff" stroke="#63b8ff" points="1388.38,-260.12 1395.82,-252.57 1385.3,-253.83 1388.38,-260.12"/>
</a>
</g>
</g>
<!-- Node32 -->
<g id="Node000032" class="node">
<title>Node32</title>
<g id="a_Node000032"><a xlink:title=" ">
<polygon fill="#e0e0e0" stroke="#999999" points="1550.45,-251.5 1494.7,-251.5 1494.7,-232.25 1550.45,-232.25 1550.45,-251.5"/>
<text text-anchor="middle" x="1522.58" y="-238" font-family="Helvetica,sans-Serif" font-size="10.00">algorithm</text>
</a>
</g>
</g>
<!-- Node1&#45;&gt;Node32 -->
<g id="edge60_Node000001_Node000032" class="edge">
<title>Node1&#45;&gt;Node32</title>
<g id="a_edge60_Node000001_Node000032"><a xlink:title=" ">
<path fill="none" stroke="#63b8ff" d="M1352.27,-287.05C1393.15,-276.44 1447.28,-262.4 1483.44,-253.03"/>
<polygon fill="#63b8ff" stroke="#63b8ff" points="1484.24,-256.44 1493.04,-250.54 1482.48,-249.66 1484.24,-256.44"/>
</a>
</g>
</g>
<!-- Node2&#45;&gt;Node3 -->
<g id="edge2_Node000002_Node000003" class="edge">
<title>Node2&#45;&gt;Node3</title>
<g id="a_edge2_Node000002_Node000003"><a xlink:title=" ">
<path fill="none" stroke="#63b8ff" d="M1290.13,-232.08C1285.81,-225.11 1279.62,-215.12 1274.2,-206.37"/>
<polygon fill="#63b8ff" stroke="#63b8ff" points="1277.19,-204.55 1268.94,-197.9 1271.24,-208.24 1277.19,-204.55"/>
</a>
</g>
</g>
<!-- Node4 -->
<g id="Node000004" class="node">
<title>Node4</title>
<g id="a_Node000004"><a xlink:title=" ">
<polygon fill="#e0e0e0" stroke="#999999" points="1344.08,-19.25 1283.08,-19.25 1283.08,0 1344.08,0 1344.08,-19.25"/>
<text text-anchor="middle" x="1313.58" y="-5.75" font-family="Helvetica,sans-Serif" font-size="10.00">type_traits</text>
</a>
</g>
</g>
<!-- Node2&#45;&gt;Node4 -->
<g id="edge3_Node000002_Node000004" class="edge">
<title>Node2&#45;&gt;Node4</title>
<g id="a_edge3_Node000002_Node000004"><a xlink:title=" ">
<path fill="none" stroke="#63b8ff" d="M1337.04,-232.44C1382.79,-220.67 1454.21,-194.45 1486.58,-141 1508.08,-105.49 1482.65,-80.33 1449.58,-55.25 1421.96,-34.3 1384.06,-22.94 1355.29,-16.93"/>
<polygon fill="#63b8ff" stroke="#63b8ff" points="1356.33,-13.56 1345.84,-15.09 1354.99,-20.43 1356.33,-13.56"/>
</a>
</g>
</g>
<!-- Node6 -->
<g id="Node000006" class="node">
<title>Node6</title>
<g id="a_Node000006"><a xlink:href="kalman__forward_8hpp.xhtml" target="_top" xlink:title="Authoritative forward declaration header.">
<polygon fill="white" stroke="#666666" points="905.08,-196.25 802.08,-196.25 802.08,-177 905.08,-177 905.08,-196.25"/>
<text text-anchor="middle" x="853.58" y="-182.75" font-family="Helvetica,sans-Serif" font-size="10.00">kalman_forward.hpp</text>
</a>
</g>
</g>
<!-- Node5&#45;&gt;Node6 -->
<g id="edge5_Node000005_Node000006" class="edge">
<title>Node5&#45;&gt;Node6</title>
<g id="a_edge5_Node000005_Node000006"><a xlink:title=" ">
<path fill="none" stroke="#63b8ff" d="M1045.96,-231.78C1006.75,-222.78 946.6,-208.98 904,-199.2"/>
<polygon fill="#63b8ff" stroke="#63b8ff" points="905.04,-195.85 894.51,-197.02 903.47,-202.67 905.04,-195.85"/>
</a>
</g>
</g>
<!-- Node7 -->
<g id="Node000007" class="node">
<title>Node7</title>
<g id="a_Node000007"><a xlink:href="factory_8hpp.xhtml" target="_top" xlink:title=" ">
<polygon fill="white" stroke="#666666" points="755.83,-196.25 621.33,-196.25 621.33,-177 755.83,-177 755.83,-196.25"/>
<text text-anchor="middle" x="688.58" y="-182.75" font-family="Helvetica,sans-Serif" font-size="10.00">kalman_internal/factory.hpp</text>
</a>
</g>
</g>
<!-- Node5&#45;&gt;Node7 -->
<g id="edge6_Node000005_Node000007" class="edge">
<title>Node5&#45;&gt;Node7</title>
<g id="a_edge6_Node000005_Node000007"><a xlink:title=" ">
<path fill="none" stroke="#63b8ff" d="M1032.45,-233.75C964.38,-224.62 845.83,-208.72 767.27,-198.18"/>
<polygon fill="#63b8ff" stroke="#63b8ff" points="767.86,-194.73 757.48,-196.87 766.93,-201.67 767.86,-194.73"/>
</a>
</g>
</g>
<!-- Node9 -->
<g id="Node000009" class="node">
<title>Node9</title>
<g id="a_Node000009"><a xlink:href="utility_8hpp.xhtml" target="_top" xlink:title=" ">
<polygon fill="white" stroke="#666666" points="885.83,-74.5 829.33,-74.5 829.33,-55.25 885.83,-55.25 885.83,-74.5"/>
<text text-anchor="middle" x="857.58" y="-61" font-family="Helvetica,sans-Serif" font-size="10.00">utility.hpp</text>
</a>
</g>
</g>
<!-- Node5&#45;&gt;Node9 -->
<g id="edge57_Node000005_Node000009" class="edge">
<title>Node5&#45;&gt;Node9</title>
<g id="a_edge57_Node000005_Node000009"><a xlink:title=" ">
<path fill="none" stroke="#63b8ff" d="M1087.37,-231.83C1091.46,-208.36 1098.78,-144.89 1066.58,-110.5 1043.95,-86.34 951.36,-74.18 897.3,-69.03"/>
<polygon fill="#63b8ff" stroke="#63b8ff" points="897.85,-65.57 887.58,-68.14 897.22,-72.54 897.85,-65.57"/>
</a>
</g>
</g>
<!-- Node26 -->
<g id="Node000026" class="node">
<title>Node26</title>
<g id="a_Node000026"><a xlink:href="format_8hpp.xhtml" target="_top" xlink:title="Formatting support for the Kalman filter.">
<polygon fill="white" stroke="#666666" points="1317.08,-135.38 1184.08,-135.38 1184.08,-116.12 1317.08,-116.12 1317.08,-135.38"/>
<text text-anchor="middle" x="1250.58" y="-121.88" font-family="Helvetica,sans-Serif" font-size="10.00">kalman_internal/format.hpp</text>
</a>
</g>
</g>
<!-- Node5&#45;&gt;Node26 -->
<g id="edge48_Node000005_Node000026" class="edge">
<title>Node5&#45;&gt;Node26</title>
<g id="a_edge48_Node000005_Node000026"><a xlink:title=" ">
<path fill="none" stroke="#63b8ff" d="M1098.52,-231.92C1126.6,-212.5 1193.35,-166.33 1228.33,-142.14"/>
<polygon fill="#63b8ff" stroke="#63b8ff" points="1230.21,-145.09 1236.45,-136.52 1226.23,-139.33 1230.21,-145.09"/>
</a>
</g>
</g>
<!-- Node28 -->
<g id="Node000028" class="node">
<title>Node28</title>
<g id="a_Node000028"><a xlink:href="print_8hpp.xhtml" target="_top" xlink:title=" ">
<polygon fill="white" stroke="#666666" points="1459.58,-135.38 1335.58,-135.38 1335.58,-116.12 1459.58,-116.12 1459.58,-135.38"/>
<text text-anchor="middle" x="1397.58" y="-121.88" font-family="Helvetica,sans-Serif" font-size="10.00">kalman_internal/print.hpp</text>
</a>
</g>
</g>
<!-- Node5&#45;&gt;Node28 -->
<g id="edge53_Node000005_Node000028" class="edge">
<title>Node5&#45;&gt;Node28</title>
<g id="a_edge53_Node000005_Node000028"><a xlink:title=" ">
<path fill="none" stroke="#63b8ff" d="M1104.05,-231.86C1131.31,-218.76 1184.13,-194.15 1230.58,-177 1271.03,-162.07 1318.15,-148.2 1352,-138.83"/>
<polygon fill="#63b8ff" stroke="#63b8ff" points="1352.77,-142.25 1361.49,-136.23 1350.92,-135.5 1352.77,-142.25"/>
</a>
</g>
</g>
<!-- Node30 -->
<g id="Node000030" class="node">
<title>Node30</title>
<g id="a_Node000030"><a xlink:title=" ">
<polygon fill="#e0e0e0" stroke="#999999" points="1057.83,-196.25 923.33,-196.25 923.33,-177 1057.83,-177 1057.83,-196.25"/>
<text text-anchor="middle" x="990.58" y="-182.75" font-family="Helvetica,sans-Serif" font-size="10.00">kalman_internal/kalman.tpp</text>
</a>
</g>
</g>
<!-- Node5&#45;&gt;Node30 -->
<g id="edge58_Node000005_Node000030" class="edge">
<title>Node5&#45;&gt;Node30</title>
<g id="a_edge58_Node000005_Node000030"><a xlink:title=" ">
<path fill="none" stroke="#63b8ff" d="M1069.46,-231.84C1055,-223.73 1033.5,-211.68 1016.6,-202.21"/>
<polygon fill="#63b8ff" stroke="#63b8ff" points="1018.53,-199.28 1008.09,-197.44 1015.1,-205.39 1018.53,-199.28"/>
</a>
</g>
</g>
<!-- Node7&#45;&gt;Node4 -->
<g id="edge47_Node000007_Node000004" class="edge">
<title>Node7&#45;&gt;Node4</title>
<g id="a_edge47_Node000007_Node000004"><a xlink:title=" ">
<path fill="none" stroke="#63b8ff" d="M756.05,-179.79C768.53,-178.8 781.44,-177.82 793.58,-177 831.04,-174.46 1442.74,-168.25 1468.58,-141 1500.91,-106.9 1430.55,-60.4 1423.58,-55.25 1403.11,-40.13 1376.8,-29.21 1355.04,-21.96"/>
<polygon fill="#63b8ff" stroke="#63b8ff" points="1356.16,-18.65 1345.57,-18.96 1354.05,-25.32 1356.16,-18.65"/>
</a>
</g>
</g>
<!-- Node8 -->
<g id="Node000008" class="node">
<title>Node8</title>
<g id="a_Node000008"><a xlink:href="type_8hpp.xhtml" target="_top" xlink:title=" ">
<polygon fill="white" stroke="#666666" points="1165.58,-135.38 1113.58,-135.38 1113.58,-116.12 1165.58,-116.12 1165.58,-135.38"/>
<text text-anchor="middle" x="1139.58" y="-121.88" font-family="Helvetica,sans-Serif" font-size="10.00">type.hpp</text>
</a>
</g>
</g>
<!-- Node7&#45;&gt;Node8 -->
<g id="edge7_Node000007_Node000008" class="edge">
<title>Node7&#45;&gt;Node8</title>
<g id="a_edge7_Node000007_Node000008"><a xlink:title=" ">
<path fill="none" stroke="#63b8ff" d="M756.04,-179.21C831.82,-171.64 958.36,-157.92 1066.58,-141 1078.25,-139.17 1090.91,-136.83 1102.35,-134.58"/>
<polygon fill="#63b8ff" stroke="#63b8ff" points="1102.71,-138.08 1111.82,-132.67 1101.33,-131.21 1102.71,-138.08"/>
</a>
</g>
</g>
<!-- Node10 -->
<g id="Node000010" class="node">
<title>Node10</title>
<g id="a_Node000010"><a xlink:title=" ">
<polygon fill="#e0e0e0" stroke="#999999" points="772.45,-19.25 716.7,-19.25 716.7,0 772.45,0 772.45,-19.25"/>
<text text-anchor="middle" x="744.58" y="-5.75" font-family="Helvetica,sans-Serif" font-size="10.00">concepts</text>
</a>
</g>
</g>
<!-- Node7&#45;&gt;Node10 -->
<g id="edge45_Node000007_Node000010" class="edge">
<title>Node7&#45;&gt;Node10</title>
<g id="a_edge45_Node000007_Node000010"><a xlink:title=" ">
<path fill="none" stroke="#63b8ff" d="M685.21,-176.64C680.36,-162.34 672.7,-133.67 679.58,-110.5 689.1,-78.41 712.55,-46.99 728.52,-28.21"/>
<polygon fill="#63b8ff" stroke="#63b8ff" points="731.11,-30.56 735.08,-20.74 725.85,-25.95 731.11,-30.56"/>
</a>
</g>
</g>
<!-- Node12 -->
<g id="Node000012" class="node">
<title>Node12</title>
<g id="a_Node000012"><a xlink:title=" ">
<polygon fill="#e0e0e0" stroke="#999999" points="427.08,-19.25 390.08,-19.25 390.08,0 427.08,0 427.08,-19.25"/>
<text text-anchor="middle" x="408.58" y="-5.75" font-family="Helvetica,sans-Serif" font-size="10.00">tuple</text>
</a>
</g>
</g>
<!-- Node7&#45;&gt;Node12 -->
<g id="edge46_Node000007_Node000012" class="edge">
<title>Node7&#45;&gt;Node12</title>
<g id="a_edge46_Node000007_Node000012"><a xlink:title=" ">
<path fill="none" stroke="#63b8ff" d="M621.01,-186.31C456.96,-187.28 47.97,-185.19 6.58,-141 -2.69,-131.11 -1.5,-121.39 6.58,-110.5 29.23,-79.95 288.91,-31.7 378.45,-15.85"/>
<polygon fill="#63b8ff" stroke="#63b8ff" points="378.94,-19.32 388.19,-14.14 377.73,-12.43 378.94,-19.32"/>
</a>
</g>
</g>
<!-- Node15 -->
<g id="Node000015" class="node">
<title>Node15</title>
<g id="a_Node000015"><a xlink:href="x__z__p__q__r_8hpp.xhtml" target="_top" xlink:title=" ">
<polygon fill="white" stroke="#666666" points="943.33,-135.38 865.83,-135.38 865.83,-116.12 943.33,-116.12 943.33,-135.38"/>
<text text-anchor="middle" x="904.58" y="-121.88" font-family="Helvetica,sans-Serif" font-size="10.00">x_z_p_q_r.hpp</text>
</a>
</g>
</g>
<!-- Node7&#45;&gt;Node15 -->
<g id="edge16_Node000007_Node000015" class="edge">
<title>Node7&#45;&gt;Node15</title>
<g id="a_edge16_Node000007_Node000015"><a xlink:title=" ">
<path fill="none" stroke="#63b8ff" d="M724.62,-176.51C758.9,-167.75 811.89,-153.95 857.58,-141 859.82,-140.36 862.12,-139.7 864.44,-139.02"/>
<polygon fill="#63b8ff" stroke="#63b8ff" points="865.25,-142.44 873.84,-136.24 863.26,-135.72 865.25,-142.44"/>
</a>
</g>
</g>
<!-- Node16 -->
<g id="Node000016" class="node">
<title>Node16</title>
<g id="a_Node000016"><a xlink:href="x__z__p__q__r__h__f_8hpp.xhtml" target="_top" xlink:title=" ">
<polygon fill="white" stroke="#666666" points="1057.7,-135.38 961.45,-135.38 961.45,-116.12 1057.7,-116.12 1057.7,-135.38"/>
<text text-anchor="middle" x="1009.58" y="-121.88" font-family="Helvetica,sans-Serif" font-size="10.00">x_z_p_q_r_h_f.hpp</text>
</a>
</g>
</g>
<!-- Node7&#45;&gt;Node16 -->
<g id="edge18_Node000007_Node000016" class="edge">
<title>Node7&#45;&gt;Node16</title>
<g id="a_edge18_Node000007_Node000016"><a xlink:title=" ">
<path fill="none" stroke="#63b8ff" d="M750.71,-176.51C804.37,-168.32 883.87,-155.37 952.58,-141 956.34,-140.21 960.22,-139.35 964.11,-138.45"/>
<polygon fill="#63b8ff" stroke="#63b8ff" points="964.63,-141.93 973.54,-136.2 963,-135.12 964.63,-141.93"/>
</a>
</g>
</g>
<!-- Node17 -->
<g id="Node000017" class="node">
<title>Node17</title>
<g id="a_Node000017"><a xlink:href="x__z__p__q__r__hh__us__ps_8hpp.xhtml" target="_top" xlink:title=" ">
<polygon fill="white" stroke="#666666" points="139.95,-135.38 15.2,-135.38 15.2,-116.12 139.95,-116.12 139.95,-135.38"/>
<text text-anchor="middle" x="77.58" y="-121.88" font-family="Helvetica,sans-Serif" font-size="10.00">x_z_p_q_r_hh_us_ps.hpp</text>
</a>
</g>
</g>
<!-- Node7&#45;&gt;Node17 -->
<g id="edge20_Node000007_Node000017" class="edge">
<title>Node7&#45;&gt;Node17</title>
<g id="a_edge20_Node000007_Node000017"><a xlink:title=" ">
<path fill="none" stroke="#63b8ff" d="M620.95,-182.55C518.41,-177.32 317.64,-164.87 148.58,-141 142.51,-140.14 136.18,-139.1 129.9,-137.96"/>
<polygon fill="#63b8ff" stroke="#63b8ff" points="130.7,-134.55 120.22,-136.13 129.4,-141.43 130.7,-134.55"/>
</a>
</g>
</g>
<!-- Node20 -->
<g id="Node000020" class="node">
<title>Node20</title>
<g id="a_Node000020"><a xlink:href="x__z__p__qq__rr__f_8hpp.xhtml" target="_top" xlink:title=" ">
<polygon fill="white" stroke="#666666" points="251.58,-135.38 157.58,-135.38 157.58,-116.12 251.58,-116.12 251.58,-135.38"/>
<text text-anchor="middle" x="204.58" y="-121.88" font-family="Helvetica,sans-Serif" font-size="10.00">x_z_p_qq_rr_f.hpp</text>
</a>
</g>
</g>
<!-- Node7&#45;&gt;Node20 -->
<g id="edge25_Node000007_Node000020" class="edge">
<title>Node7&#45;&gt;Node20</title>
<g id="a_edge25_Node000007_Node000020"><a xlink:title=" ">
<path fill="none" stroke="#63b8ff" d="M621.07,-181.63C536.36,-175.92 386.89,-163.53 260.58,-141 256.48,-140.27 252.25,-139.4 248.03,-138.46"/>
<polygon fill="#63b8ff" stroke="#63b8ff" points="248.99,-135.09 238.45,-136.19 247.37,-141.9 248.99,-135.09"/>
</a>
</g>
</g>
<!-- Node21 -->
<g id="Node000021" class="node">
<title>Node21</title>
<g id="a_Node000021"><a xlink:href="x__z__p__r_8hpp.xhtml" target="_top" xlink:title=" ">
<polygon fill="white" stroke="#666666" points="755.08,-135.38 688.08,-135.38 688.08,-116.12 755.08,-116.12 755.08,-135.38"/>
<text text-anchor="middle" x="721.58" y="-121.88" font-family="Helvetica,sans-Serif" font-size="10.00">x_z_p_r.hpp</text>
</a>
</g>
</g>
<!-- Node7&#45;&gt;Node21 -->
<g id="edge29_Node000007_Node000021" class="edge">
<title>Node7&#45;&gt;Node21</title>
<g id="a_edge29_Node000007_Node000021"><a xlink:title=" ">
<path fill="none" stroke="#63b8ff" d="M693.59,-176.68C698.19,-168.47 705.16,-156.03 711,-145.62"/>
<polygon fill="#63b8ff" stroke="#63b8ff" points="713.94,-147.53 715.78,-137.1 707.84,-144.11 713.94,-147.53"/>
</a>
</g>
</g>
<!-- Node22 -->
<g id="Node000022" class="node">
<title>Node22</title>
<g id="a_Node000022"><a xlink:href="x__z__p__r__f_8hpp.xhtml" target="_top" xlink:title=" ">
<polygon fill="white" stroke="#666666" points="848.2,-135.38 772.95,-135.38 772.95,-116.12 848.2,-116.12 848.2,-135.38"/>
<text text-anchor="middle" x="810.58" y="-121.88" font-family="Helvetica,sans-Serif" font-size="10.00">x_z_p_r_f.hpp</text>
</a>
</g>
</g>
<!-- Node7&#45;&gt;Node22 -->
<g id="edge31_Node000007_Node000022" class="edge">
<title>Node7&#45;&gt;Node22</title>
<g id="a_edge31_Node000007_Node000022"><a xlink:title=" ">
<path fill="none" stroke="#63b8ff" d="M707.37,-176.55C727.22,-166.98 758.77,-151.75 781.76,-140.66"/>
<polygon fill="#63b8ff" stroke="#63b8ff" points="783.11,-143.89 790.6,-136.39 780.07,-137.59 783.11,-143.89"/>
</a>
</g>
</g>
<!-- Node23 -->
<g id="Node000023" class="node">
<title>Node23</title>
<g id="a_Node000023"><a xlink:href="x__z__u__p__q__r_8hpp.xhtml" target="_top" xlink:title=" ">
<polygon fill="white" stroke="#666666" points="357.58,-135.38 269.58,-135.38 269.58,-116.12 357.58,-116.12 357.58,-135.38"/>
<text text-anchor="middle" x="313.58" y="-121.88" font-family="Helvetica,sans-Serif" font-size="10.00">x_z_u_p_q_r.hpp</text>
</a>
</g>
</g>
<!-- Node7&#45;&gt;Node23 -->
<g id="edge33_Node000007_Node000023" class="edge">
<title>Node7&#45;&gt;Node23</title>
<g id="a_edge33_Node000007_Node000023"><a xlink:title=" ">
<path fill="none" stroke="#63b8ff" d="M620.94,-178.74C555.5,-171.49 453.69,-158.68 366.58,-141 363.03,-140.28 359.37,-139.46 355.7,-138.58"/>
<polygon fill="#63b8ff" stroke="#63b8ff" points="356.83,-135.26 346.28,-136.21 355.12,-142.05 356.83,-135.26"/>
</a>
</g>
</g>
<!-- Node24 -->
<g id="Node000024" class="node">
<title>Node24</title>
<g id="a_Node000024"><a xlink:href="x__z__u__p__q__r__f__g__ps_8hpp.xhtml" target="_top" xlink:title=" ">
<polygon fill="white" stroke="#666666" points="497.83,-135.38 375.33,-135.38 375.33,-116.12 497.83,-116.12 497.83,-135.38"/>
<text text-anchor="middle" x="436.58" y="-121.88" font-family="Helvetica,sans-Serif" font-size="10.00">x_z_u_p_q_r_f_g_ps.hpp</text>
</a>
</g>
</g>
<!-- Node7&#45;&gt;Node24 -->
<g id="edge37_Node000007_Node000024" class="edge">
<title>Node7&#45;&gt;Node24</title>
<g id="a_edge37_Node000007_Node000024"><a xlink:title=" ">
<path fill="none" stroke="#63b8ff" d="M649.75,-176.55C605.91,-166.31 534.45,-149.62 486.5,-138.41"/>
<polygon fill="#63b8ff" stroke="#63b8ff" points="487.45,-135.04 476.92,-136.17 485.86,-141.86 487.45,-135.04"/>
</a>
</g>
</g>
<!-- Node25 -->
<g id="Node000025" class="node">
<title>Node25</title>
<g id="a_Node000025"><a xlink:href="x__z__u__p__q__r__h__f__g__us__ps_8hpp.xhtml" target="_top" xlink:title=" ">
<polygon fill="white" stroke="#666666" points="631.08,-141 516.08,-141 516.08,-110.5 631.08,-110.5 631.08,-141"/>
<text text-anchor="start" x="524.08" y="-127.5" font-family="Helvetica,sans-Serif" font-size="10.00">x_z_u_p_q_r_h_f_g_us</text>
<text text-anchor="middle" x="573.58" y="-116.25" font-family="Helvetica,sans-Serif" font-size="10.00">_ps.hpp</text>
</a>
</g>
</g>
<!-- Node7&#45;&gt;Node25 -->
<g id="edge41_Node000007_Node000025" class="edge">
<title>Node7&#45;&gt;Node25</title>
<g id="a_edge41_Node000007_Node000025"><a xlink:title=" ">
<path fill="none" stroke="#63b8ff" d="M671.11,-176.68C655.49,-168.68 632.03,-156.68 612.04,-146.44"/>
<polygon fill="#63b8ff" stroke="#63b8ff" points="613.81,-143.41 603.31,-141.97 610.62,-149.64 613.81,-143.41"/>
</a>
</g>
</g>
<!-- Node8&#45;&gt;Node4 -->
<g id="edge15_Node000008_Node000004" class="edge">
<title>Node8&#45;&gt;Node4</title>
<g id="a_edge15_Node000008_Node000004"><a xlink:title=" ">
<path fill="none" stroke="#63b8ff" d="M1152.98,-115.66C1172.73,-102.3 1210.85,-76.62 1243.58,-55.25 1258.87,-45.27 1276.17,-34.24 1289.75,-25.64"/>
<polygon fill="#63b8ff" stroke="#63b8ff" points="1291.45,-28.7 1298.03,-20.4 1287.71,-22.79 1291.45,-28.7"/>
</a>
</g>
</g>
<!-- Node8&#45;&gt;Node9 -->
<g id="edge8_Node000008_Node000009" class="edge">
<title>Node8&#45;&gt;Node9</title>
<g id="a_edge8_Node000008_Node000009"><a xlink:title=" ">
<path fill="none" stroke="#63b8ff" d="M1116.09,-115.68C1110.71,-113.8 1104.99,-111.95 1099.58,-110.5 1029.44,-91.67 945.75,-78.17 897.43,-71.23"/>
<polygon fill="#63b8ff" stroke="#63b8ff" points="898.11,-67.79 887.72,-69.85 897.13,-74.72 898.11,-67.79"/>
</a>
</g>
</g>
<!-- Node14 -->
<g id="Node000014" class="node">
<title>Node14</title>
<g id="a_Node000014"><a xlink:title=" ">
<polygon fill="#e0e0e0" stroke="#999999" points="1120.33,-74.5 1048.83,-74.5 1048.83,-55.25 1120.33,-55.25 1120.33,-74.5"/>
<text text-anchor="middle" x="1084.58" y="-61" font-family="Helvetica,sans-Serif" font-size="10.00">initializer_list</text>
</a>
</g>
</g>
<!-- Node8&#45;&gt;Node14 -->
<g id="edge14_Node000008_Node000014" class="edge">
<title>Node8&#45;&gt;Node14</title>
<g id="a_edge14_Node000008_Node000014"><a xlink:title=" ">
<path fill="none" stroke="#63b8ff" d="M1131.22,-115.81C1123.15,-107.16 1110.7,-93.84 1100.69,-83.12"/>
<polygon fill="#63b8ff" stroke="#63b8ff" points="1103.43,-80.93 1094.04,-76.01 1098.31,-85.7 1103.43,-80.93"/>
</a>
</g>
</g>
<!-- Node9&#45;&gt;Node4 -->
<g id="edge12_Node000009_Node000004" class="edge">
<title>Node9&#45;&gt;Node4</title>
<g id="a_edge12_Node000009_Node000004"><a xlink:title=" ">
<path fill="none" stroke="#63b8ff" d="M886.1,-60.54C963.81,-51.47 1179.54,-26.28 1271.35,-15.56"/>
<polygon fill="#63b8ff" stroke="#63b8ff" points="1271.65,-19.04 1281.18,-14.41 1270.84,-12.09 1271.65,-19.04"/>
</a>
</g>
</g>
<!-- Node9&#45;&gt;Node10 -->
<g id="edge9_Node000009_Node000010" class="edge">
<title>Node9&#45;&gt;Node10</title>
<g id="a_edge9_Node000009_Node000010"><a xlink:title=" ">
<path fill="none" stroke="#63b8ff" d="M838.41,-54.84C820.79,-46.54 794.42,-34.11 774.11,-24.54"/>
<polygon fill="#63b8ff" stroke="#63b8ff" points="775.75,-21.44 765.21,-20.35 772.76,-27.78 775.75,-21.44"/>
</a>
</g>
</g>
<!-- Node11 -->
<g id="Node000011" class="node">
<title>Node11</title>
<g id="a_Node000011"><a xlink:title=" ">
<polygon fill="#e0e0e0" stroke="#999999" points="924.7,-19.25 876.45,-19.25 876.45,0 924.7,0 924.7,-19.25"/>
<text text-anchor="middle" x="900.58" y="-5.75" font-family="Helvetica,sans-Serif" font-size="10.00">cstddef</text>
</a>
</g>
</g>
<!-- Node9&#45;&gt;Node11 -->
<g id="edge10_Node000009_Node000011" class="edge">
<title>Node9&#45;&gt;Node11</title>
<g id="a_edge10_Node000009_Node000011"><a xlink:title=" ">
<path fill="none" stroke="#63b8ff" d="M864.68,-55.08C870.49,-47.88 878.91,-37.46 886.13,-28.51"/>
<polygon fill="#63b8ff" stroke="#63b8ff" points="888.81,-30.77 892.37,-20.79 883.37,-26.37 888.81,-30.77"/>
</a>
</g>
</g>
<!-- Node9&#45;&gt;Node12 -->
<g id="edge11_Node000009_Node000012" class="edge">
<title>Node9&#45;&gt;Node12</title>
<g id="a_edge11_Node000009_Node000012"><a xlink:title=" ">
<path fill="none" stroke="#63b8ff" d="M829.15,-60.5C748.76,-50.97 520.29,-23.87 438.32,-14.15"/>
<polygon fill="#63b8ff" stroke="#63b8ff" points="438.95,-10.7 428.61,-13 438.12,-17.65 438.95,-10.7"/>
</a>
</g>
</g>
<!-- Node13 -->
<g id="Node000013" class="node">
<title>Node13</title>
<g id="a_Node000013"><a xlink:title=" ">
<polygon fill="#e0e0e0" stroke="#999999" points="1188.83,-19.25 1150.33,-19.25 1150.33,0 1188.83,0 1188.83,-19.25"/>
<text text-anchor="middle" x="1169.58" y="-5.75" font-family="Helvetica,sans-Serif" font-size="10.00">utility</text>
</a>
</g>
</g>
<!-- Node9&#45;&gt;Node13 -->
<g id="edge13_Node000009_Node000013" class="edge">
<title>Node9&#45;&gt;Node13</title>
<g id="a_edge13_Node000009_Node000013"><a xlink:title=" ">
<path fill="none" stroke="#63b8ff" d="M886.09,-59.01C944.76,-49 1078.53,-26.16 1138.95,-15.85"/>
<polygon fill="#63b8ff" stroke="#63b8ff" points="1139.26,-19.35 1148.52,-14.22 1138.08,-12.45 1139.26,-19.35"/>
</a>
</g>
</g>
<!-- Node15&#45;&gt;Node9 -->
<g id="edge17_Node000015_Node000009" class="edge">
<title>Node15&#45;&gt;Node9</title>
<g id="a_edge17_Node000015_Node000009"><a xlink:title=" ">
<path fill="none" stroke="#63b8ff" d="M897.44,-115.81C890.68,-107.34 880.32,-94.37 871.86,-83.77"/>
<polygon fill="#63b8ff" stroke="#63b8ff" points="874.7,-81.72 865.73,-76.08 869.23,-86.08 874.7,-81.72"/>
</a>
</g>
</g>
<!-- Node16&#45;&gt;Node9 -->
<g id="edge19_Node000016_Node000009" class="edge">
<title>Node16&#45;&gt;Node9</title>
<g id="a_edge19_Node000016_Node000009"><a xlink:title=" ">
<path fill="none" stroke="#63b8ff" d="M986.16,-115.68C960.83,-105.87 920.22,-90.14 891.42,-78.98"/>
<polygon fill="#63b8ff" stroke="#63b8ff" points="893.02,-75.85 882.43,-75.5 890.49,-82.38 893.02,-75.85"/>
</a>
</g>
</g>
<!-- Node17&#45;&gt;Node9 -->
<g id="edge23_Node000017_Node000009" class="edge">
<title>Node17&#45;&gt;Node9</title>
<g id="a_edge23_Node000017_Node000009"><a xlink:title=" ">
<path fill="none" stroke="#63b8ff" d="M117.97,-115.66C127.93,-113.69 138.61,-111.81 148.58,-110.5 401.99,-77.25 709.73,-68.59 817.78,-66.5"/>
<polygon fill="#63b8ff" stroke="#63b8ff" points="817.63,-70 827.56,-66.32 817.5,-63 817.63,-70"/>
</a>
</g>
</g>
<!-- Node17&#45;&gt;Node12 -->
<g id="edge24_Node000017_Node000012" class="edge">
<title>Node17&#45;&gt;Node12</title>
<g id="a_edge24_Node000017_Node000012"><a xlink:title=" ">
<path fill="none" stroke="#63b8ff" d="M96.93,-115.66C127.57,-101.49 189.35,-73.85 243.58,-55.25 290.28,-39.24 345.98,-25.19 379.24,-17.31"/>
<polygon fill="#63b8ff" stroke="#63b8ff" points="379.61,-20.82 388.55,-15.14 378.02,-14.01 379.61,-20.82"/>
</a>
</g>
</g>
<!-- Node18 -->
<g id="Node000018" class="node">
<title>Node18</title>
<g id="a_Node000018"><a xlink:href="function_8hpp.xhtml" target="_top" xlink:title=" ">
<polygon fill="white" stroke="#666666" points="347.83,-74.5 279.33,-74.5 279.33,-55.25 347.83,-55.25 347.83,-74.5"/>
<text text-anchor="middle" x="313.58" y="-61" font-family="Helvetica,sans-Serif" font-size="10.00">function.hpp</text>
</a>
</g>
</g>
<!-- Node17&#45;&gt;Node18 -->
<g id="edge21_Node000017_Node000018" class="edge">
<title>Node17&#45;&gt;Node18</title>
<g id="a_edge21_Node000017_Node000018"><a xlink:title=" ">
<path fill="none" stroke="#63b8ff" d="M113.94,-115.68C155.42,-105.33 223.3,-88.4 268.21,-77.19"/>
<polygon fill="#63b8ff" stroke="#63b8ff" points="268.78,-80.66 277.63,-74.84 267.08,-73.87 268.78,-80.66"/>
</a>
</g>
</g>
<!-- Node19 -->
<g id="Node000019" class="node">
<title>Node19</title>
<g id="a_Node000019"><a xlink:title=" ">
<polygon fill="#e0e0e0" stroke="#999999" points="338.83,-19.25 288.33,-19.25 288.33,0 338.83,0 338.83,-19.25"/>
<text text-anchor="middle" x="313.58" y="-5.75" font-family="Helvetica,sans-Serif" font-size="10.00">memory</text>
</a>
</g>
</g>
<!-- Node18&#45;&gt;Node19 -->
<g id="edge22_Node000018_Node000019" class="edge">
<title>Node18&#45;&gt;Node19</title>
<g id="a_edge22_Node000018_Node000019"><a xlink:title=" ">
<path fill="none" stroke="#63b8ff" d="M313.58,-55.08C313.58,-48.57 313.58,-39.42 313.58,-31.12"/>
<polygon fill="#63b8ff" stroke="#63b8ff" points="317.08,-31.12 313.58,-21.12 310.08,-31.12 317.08,-31.12"/>
</a>
</g>
</g>
<!-- Node20&#45;&gt;Node9 -->
<g id="edge27_Node000020_Node000009" class="edge">
<title>Node20&#45;&gt;Node9</title>
<g id="a_edge27_Node000020_Node000009"><a xlink:title=" ">
<path fill="none" stroke="#63b8ff" d="M236.36,-115.64C244.22,-113.67 252.66,-111.79 260.58,-110.5 468.38,-76.56 721.16,-68.39 817.59,-66.46"/>
<polygon fill="#63b8ff" stroke="#63b8ff" points="817.65,-69.96 827.58,-66.27 817.52,-62.96 817.65,-69.96"/>
</a>
</g>
</g>
<!-- Node20&#45;&gt;Node12 -->
<g id="edge28_Node000020_Node000012" class="edge">
<title>Node20&#45;&gt;Node12</title>
<g id="a_edge28_Node000020_Node000012"><a xlink:title=" ">
<path fill="none" stroke="#63b8ff" d="M210.81,-115.7C221.41,-100.96 244.39,-71.74 270.58,-55.25 304.47,-33.91 349.53,-21.86 378.79,-15.79"/>
<polygon fill="#63b8ff" stroke="#63b8ff" points="379.29,-19.26 388.43,-13.91 377.94,-12.39 379.29,-19.26"/>
</a>
</g>
</g>
<!-- Node20&#45;&gt;Node18 -->
<g id="edge26_Node000020_Node000018" class="edge">
<title>Node20&#45;&gt;Node18</title>
<g id="a_edge26_Node000020_Node000018"><a xlink:title=" ">
<path fill="none" stroke="#63b8ff" d="M221.13,-115.81C238.58,-106.38 266.32,-91.4 286.87,-80.3"/>
<polygon fill="#63b8ff" stroke="#63b8ff" points="288.4,-83.45 295.54,-75.62 285.07,-77.29 288.4,-83.45"/>
</a>
</g>
</g>
<!-- Node21&#45;&gt;Node9 -->
<g id="edge30_Node000021_Node000009" class="edge">
<title>Node21&#45;&gt;Node9</title>
<g id="a_edge30_Node000021_Node000009"><a xlink:title=" ">
<path fill="none" stroke="#63b8ff" d="M742.53,-115.68C764.96,-105.97 800.78,-90.46 826.49,-79.33"/>
<polygon fill="#63b8ff" stroke="#63b8ff" points="827.65,-82.64 835.44,-75.46 824.87,-76.22 827.65,-82.64"/>
</a>
</g>
</g>
<!-- Node22&#45;&gt;Node9 -->
<g id="edge32_Node000022_Node000009" class="edge">
<title>Node22&#45;&gt;Node9</title>
<g id="a_edge32_Node000022_Node000009"><a xlink:title=" ">
<path fill="none" stroke="#63b8ff" d="M817.72,-115.81C824.48,-107.34 834.83,-94.37 843.29,-83.77"/>
<polygon fill="#63b8ff" stroke="#63b8ff" points="845.92,-86.08 849.43,-76.08 840.45,-81.72 845.92,-86.08"/>
</a>
</g>
</g>
<!-- Node23&#45;&gt;Node9 -->
<g id="edge35_Node000023_Node000009" class="edge">
<title>Node23&#45;&gt;Node9</title>
<g id="a_edge35_Node000023_Node000009"><a xlink:title=" ">
<path fill="none" stroke="#63b8ff" d="M343.92,-115.63C351.28,-113.69 359.17,-111.82 366.58,-110.5 532.39,-80.9 733.41,-70.44 817.53,-67.18"/>
<polygon fill="#63b8ff" stroke="#63b8ff" points="817.47,-70.69 827.33,-66.82 817.21,-63.69 817.47,-70.69"/>
</a>
</g>
</g>
<!-- Node23&#45;&gt;Node12 -->
<g id="edge36_Node000023_Node000012" class="edge">
<title>Node23&#45;&gt;Node12</title>
<g id="a_edge36_Node000023_Node000012"><a xlink:title=" ">
<path fill="none" stroke="#63b8ff" d="M321.26,-115.91C329.91,-105.92 344.36,-89.13 356.58,-74.5 369.57,-58.93 384.13,-41 394.53,-28.11"/>
<polygon fill="#63b8ff" stroke="#63b8ff" points="397.09,-30.52 400.63,-20.54 391.63,-26.13 397.09,-30.52"/>
</a>
</g>
</g>
<!-- Node23&#45;&gt;Node18 -->
<g id="edge34_Node000023_Node000018" class="edge">
<title>Node23&#45;&gt;Node18</title>
<g id="a_edge34_Node000023_Node000018"><a xlink:title=" ">
<path fill="none" stroke="#63b8ff" d="M313.58,-115.81C313.58,-108.03 313.58,-96.45 313.58,-86.41"/>
<polygon fill="#63b8ff" stroke="#63b8ff" points="317.08,-86.41 313.58,-76.41 310.08,-86.41 317.08,-86.41"/>
</a>
</g>
</g>
<!-- Node24&#45;&gt;Node9 -->
<g id="edge39_Node000024_Node000009" class="edge">
<title>Node24&#45;&gt;Node9</title>
<g id="a_edge39_Node000024_Node000009"><a xlink:title=" ">
<path fill="none" stroke="#63b8ff" d="M479.29,-115.67C488.59,-113.83 498.4,-112 507.58,-110.5 619.4,-92.17 752.37,-77.03 817.54,-70.04"/>
<polygon fill="#63b8ff" stroke="#63b8ff" points="817.82,-73.53 827.39,-68.99 817.08,-66.57 817.82,-73.53"/>
</a>
</g>
</g>
<!-- Node24&#45;&gt;Node12 -->
<g id="edge40_Node000024_Node000012" class="edge">
<title>Node24&#45;&gt;Node12</title>
<g id="a_edge40_Node000024_Node000012"><a xlink:title=" ">
<path fill="none" stroke="#63b8ff" d="M434.38,-115.79C429.9,-97.54 419.63,-55.66 413.48,-30.6"/>
<polygon fill="#63b8ff" stroke="#63b8ff" points="416.91,-29.89 411.12,-21.01 410.11,-31.55 416.91,-29.89"/>
</a>
</g>
</g>
<!-- Node24&#45;&gt;Node18 -->
<g id="edge38_Node000024_Node000018" class="edge">
<title>Node24&#45;&gt;Node18</title>
<g id="a_edge38_Node000024_Node000018"><a xlink:title=" ">
<path fill="none" stroke="#63b8ff" d="M417.63,-115.68C397.62,-106.1 365.81,-90.88 342.63,-79.78"/>
<polygon fill="#63b8ff" stroke="#63b8ff" points="344.24,-76.67 333.71,-75.51 341.22,-82.99 344.24,-76.67"/>
</a>
</g>
</g>
<!-- Node25&#45;&gt;Node9 -->
<g id="edge43_Node000025_Node000009" class="edge">
<title>Node25&#45;&gt;Node9</title>
<g id="a_edge43_Node000025_Node000009"><a xlink:title=" ">
<path fill="none" stroke="#63b8ff" d="M631.39,-112.76C686.95,-101.25 769.4,-84.15 817.9,-74.1"/>
<polygon fill="#63b8ff" stroke="#63b8ff" points="818.32,-77.59 827.4,-72.13 816.9,-70.73 818.32,-77.59"/>
</a>
</g>
</g>
<!-- Node25&#45;&gt;Node12 -->
<g id="edge44_Node000025_Node000012" class="edge">
<title>Node25&#45;&gt;Node12</title>
<g id="a_edge44_Node000025_Node000012"><a xlink:title=" ">
<path fill="none" stroke="#63b8ff" d="M552.34,-110.06C521.09,-88.44 462.94,-48.23 431.01,-26.14"/>
<polygon fill="#63b8ff" stroke="#63b8ff" points="433.09,-23.33 422.88,-20.52 429.11,-29.08 433.09,-23.33"/>
</a>
</g>
</g>
<!-- Node25&#45;&gt;Node18 -->
<g id="edge42_Node000025_Node000018" class="edge">
<title>Node25&#45;&gt;Node18</title>
<g id="a_edge42_Node000025_Node000018"><a xlink:title=" ">
<path fill="none" stroke="#63b8ff" d="M515.87,-111.68C468.63,-100.99 402.71,-86.06 359.12,-76.19"/>
<polygon fill="#63b8ff" stroke="#63b8ff" points="360.01,-72.8 349.48,-74 358.46,-79.63 360.01,-72.8"/>
</a>
</g>
</g>
<!-- Node26&#45;&gt;Node9 -->
<g id="edge49_Node000026_Node000009" class="edge">
<title>Node26&#45;&gt;Node9</title>
<g id="a_edge49_Node000026_Node000009"><a xlink:title=" ">
<path fill="none" stroke="#63b8ff" d="M1204.01,-115.67C1194.3,-113.88 1184.12,-112.06 1174.58,-110.5 1075.09,-94.18 957.42,-78.58 897.29,-70.88"/>
<polygon fill="#63b8ff" stroke="#63b8ff" points="897.92,-67.43 887.56,-69.63 897.04,-74.37 897.92,-67.43"/>
</a>
</g>
</g>
<!-- Node26&#45;&gt;Node11 -->
<g id="edge50_Node000026_Node000011" class="edge">
<title>Node26&#45;&gt;Node11</title>
<g id="a_edge50_Node000026_Node000011"><a xlink:title=" ">
<path fill="none" stroke="#63b8ff" d="M1246.92,-115.72C1240.22,-100.46 1224.44,-69.79 1200.58,-55.25 1156.8,-28.57 1006.03,-16.66 936.38,-12.48"/>
<polygon fill="#63b8ff" stroke="#63b8ff" points="936.84,-9 926.65,-11.92 936.43,-15.99 936.84,-9"/>
</a>
</g>
</g>
<!-- Node26&#45;&gt;Node12 -->
<g id="edge52_Node000026_Node000012" class="edge">
<title>Node26&#45;&gt;Node12</title>
<g id="a_edge52_Node000026_Node000012"><a xlink:title=" ">
<path fill="none" stroke="#63b8ff" d="M1239.06,-115.67C1218.48,-100.02 1173.43,-68.41 1129.58,-55.25 1062.67,-35.17 566.05,-16.24 438.41,-11.67"/>
<polygon fill="#63b8ff" stroke="#63b8ff" points="438.87,-8.18 428.75,-11.32 438.62,-15.18 438.87,-8.18"/>
</a>
</g>
</g>
<!-- Node27 -->
<g id="Node000027" class="node">
<title>Node27</title>
<g id="a_Node000027"><a xlink:title=" ">
<polygon fill="#e0e0e0" stroke="#999999" points="1296.45,-74.5 1252.7,-74.5 1252.7,-55.25 1296.45,-55.25 1296.45,-74.5"/>
<text text-anchor="middle" x="1274.58" y="-61" font-family="Helvetica,sans-Serif" font-size="10.00">format</text>
</a>
</g>
</g>
<!-- Node26&#45;&gt;Node27 -->
<g id="edge51_Node000026_Node000027" class="edge">
<title>Node26&#45;&gt;Node27</title>
<g id="a_edge51_Node000026_Node000027"><a xlink:title=" ">
<path fill="none" stroke="#63b8ff" d="M1254.22,-115.81C1257.5,-107.77 1262.43,-95.68 1266.61,-85.41"/>
<polygon fill="#63b8ff" stroke="#63b8ff" points="1269.79,-86.88 1270.33,-76.3 1263.31,-84.24 1269.79,-86.88"/>
</a>
</g>
</g>
<!-- Node28&#45;&gt;Node9 -->
<g id="edge54_Node000028_Node000009" class="edge">
<title>Node28&#45;&gt;Node9</title>
<g id="a_edge54_Node000028_Node000009"><a xlink:title=" ">
<path fill="none" stroke="#63b8ff" d="M1356.03,-115.66C1346.39,-113.76 1336.15,-111.91 1326.58,-110.5 1168.64,-87.2 978.89,-73.49 897.66,-68.29"/>
<polygon fill="#63b8ff" stroke="#63b8ff" points="897.96,-64.8 887.76,-67.66 897.52,-71.79 897.96,-64.8"/>
</a>
</g>
</g>
<!-- Node28&#45;&gt;Node13 -->
<g id="edge56_Node000028_Node000013" class="edge">
<title>Node28&#45;&gt;Node13</title>
<g id="a_edge56_Node000028_Node000013"><a xlink:title=" ">
<path fill="none" stroke="#63b8ff" d="M1387.84,-115.64C1371.82,-101.07 1338.39,-72.42 1305.58,-55.25 1271.32,-37.33 1228.48,-24.71 1200.13,-17.57"/>
<polygon fill="#63b8ff" stroke="#63b8ff" points="1201.32,-14.25 1190.77,-15.28 1199.66,-21.05 1201.32,-14.25"/>
</a>
</g>
</g>
<!-- Node29 -->
<g id="Node000029" class="node">
<title>Node29</title>
<g id="a_Node000029"><a xlink:title=" ">
<polygon fill="#e0e0e0" stroke="#999999" points="1414.95,-74.5 1380.2,-74.5 1380.2,-55.25 1414.95,-55.25 1414.95,-74.5"/>
<text text-anchor="middle" x="1397.58" y="-61" font-family="Helvetica,sans-Serif" font-size="10.00">print</text>
</a>
</g>
</g>
<!-- Node28&#45;&gt;Node29 -->
<g id="edge55_Node000028_Node000029" class="edge">
<title>Node28&#45;&gt;Node29</title>
<g id="a_edge55_Node000028_Node000029"><a xlink:title=" ">
<path fill="none" stroke="#63b8ff" d="M1397.58,-115.81C1397.58,-108.03 1397.58,-96.45 1397.58,-86.41"/>
<polygon fill="#63b8ff" stroke="#63b8ff" points="1401.08,-86.41 1397.58,-76.41 1394.08,-86.41 1401.08,-86.41"/>
</a>
</g>
</g>
</g>
</svg>
