<?xml version="1.0" encoding="UTF-8" standalone="no"?>
<!DOCTYPE svg PUBLIC "-//W3C//DTD SVG 1.1//EN"
 "http://www.w3.org/Graphics/SVG/1.1/DTD/svg11.dtd">
<!-- Generated by graphviz version 7.0.5 (20221223.1930)
 -->
<!-- Title: /github/workspace/benchmark/predict_linalg_x1x.cpp Pages: 1 -->
<svg width="1135pt" height="313pt"
 viewBox="0.00 0.00 1134.50 313.00" xmlns="http://www.w3.org/2000/svg" xmlns:xlink="http://www.w3.org/1999/xlink">
<g id="graph0" class="graph" transform="scale(1 1) rotate(0) translate(4 309)">
<title>/github/workspace/benchmark/predict_linalg_x1x.cpp</title>
<!-- Node1 -->
<g id="node1" class="node">
<title>Node1</title>
<g id="a_node1"><a xlink:title=" ">
<polygon fill="#999999" stroke="#666666" points="741.5,-305 594.5,-305 594.5,-275 741.5,-275 741.5,-305"/>
<text text-anchor="start" x="602.5" y="-293" font-family="Helvetica,sans-Serif" font-size="10.00">/github/workspace/benchmark</text>
<text text-anchor="middle" x="668" y="-282" font-family="Helvetica,sans-Serif" font-size="10.00">/predict_linalg_x1x.cpp</text>
</a>
</g>
</g>
<!-- Node2 -->
<g id="node2" class="node">
<title>Node2</title>
<g id="a_node2"><a xlink:href="benchmark_8hpp.xhtml" target="_top" xlink:title="Benchmarking support.">
<polygon fill="white" stroke="#666666" points="116.5,-239 33.5,-239 33.5,-220 116.5,-220 116.5,-239"/>
<text text-anchor="middle" x="75" y="-227" font-family="Helvetica,sans-Serif" font-size="10.00">benchmark.hpp</text>
</a>
</g>
</g>
<!-- Node1&#45;&gt;Node2 -->
<g id="edge1" class="edge">
<title>Node1&#45;&gt;Node2</title>
<path fill="none" stroke="#63b8ff" d="M594.02,-283.47C490.33,-275.42 295.97,-259.18 131,-239 130,-238.88 128.98,-238.75 127.96,-238.62"/>
<polygon fill="#63b8ff" stroke="#63b8ff" points="128.74,-235.19 118.36,-237.33 127.8,-242.13 128.74,-235.19"/>
</g>
<!-- Node3 -->
<g id="node3" class="node">
<title>Node3</title>
<g id="a_node3"><a xlink:title=" ">
<polygon fill="#e0e0e0" stroke="#999999" points="46,-184 0,-184 0,-165 46,-165 46,-184"/>
<text text-anchor="middle" x="23" y="-172" font-family="Helvetica,sans-Serif" font-size="10.00">chrono</text>
</a>
</g>
</g>
<!-- Node1&#45;&gt;Node3 -->
<g id="edge29" class="edge">
<title>Node1&#45;&gt;Node3</title>
<path fill="none" stroke="#63b8ff" d="M594.24,-288.73C433.4,-287.38 62.38,-279.83 24,-239 13.25,-227.57 14.15,-209.22 17.06,-195.18"/>
<polygon fill="#63b8ff" stroke="#63b8ff" points="20.39,-196.26 19.52,-185.7 13.62,-194.5 20.39,-196.26"/>
</g>
<!-- Node5 -->
<g id="node5" class="node">
<title>Node5</title>
<g id="a_node5"><a xlink:href="internal_2utility_8hpp.xhtml" target="_top" xlink:title=" ">
<polygon fill="white" stroke="#666666" points="545,-74 413,-74 413,-55 545,-55 545,-74"/>
<text text-anchor="middle" x="479" y="-62" font-family="Helvetica,sans-Serif" font-size="10.00">fcarouge/internal/utility.hpp</text>
</a>
</g>
</g>
<!-- Node1&#45;&gt;Node5 -->
<g id="edge4" class="edge">
<title>Node1&#45;&gt;Node5</title>
<path fill="none" stroke="#63b8ff" d="M594.2,-283.99C473.43,-274.03 242.23,-247.02 195,-184 137.72,-107.56 298.99,-80.09 401.46,-70.47"/>
<polygon fill="#63b8ff" stroke="#63b8ff" points="401.57,-73.98 411.22,-69.6 400.95,-67.01 401.57,-73.98"/>
</g>
<!-- Node7 -->
<g id="node7" class="node">
<title>Node7</title>
<g id="a_node7"><a xlink:href="kalman_8hpp.xhtml" target="_top" xlink:title="The Kalman filter class and library top&#45;level header.">
<polygon fill="white" stroke="#666666" points="498.5,-239 391.5,-239 391.5,-220 498.5,-220 498.5,-239"/>
<text text-anchor="middle" x="445" y="-227" font-family="Helvetica,sans-Serif" font-size="10.00">fcarouge/kalman.hpp</text>
</a>
</g>
</g>
<!-- Node1&#45;&gt;Node7 -->
<g id="edge7" class="edge">
<title>Node1&#45;&gt;Node7</title>
<path fill="none" stroke="#63b8ff" d="M612.88,-274.54C575.05,-264.62 525.48,-251.61 490.03,-242.31"/>
<polygon fill="#63b8ff" stroke="#63b8ff" points="491.07,-238.97 480.51,-239.82 489.3,-245.74 491.07,-238.97"/>
</g>
<!-- Node16 -->
<g id="node16" class="node">
<title>Node16</title>
<g id="a_node16"><a xlink:title=" ">
<polygon fill="#e0e0e0" stroke="#999999" points="907.5,-184 858.5,-184 858.5,-165 907.5,-165 907.5,-184"/>
<text text-anchor="middle" x="883" y="-172" font-family="Helvetica,sans-Serif" font-size="10.00">cstddef</text>
</a>
</g>
</g>
<!-- Node1&#45;&gt;Node16 -->
<g id="edge31" class="edge">
<title>Node1&#45;&gt;Node16</title>
<path fill="none" stroke="#63b8ff" d="M599.92,-274.54C560.89,-263.2 523.7,-245.11 546,-220 588.96,-171.63 765.06,-193.94 847.04,-183.79"/>
<polygon fill="#63b8ff" stroke="#63b8ff" points="847.34,-187.28 856.7,-182.31 846.29,-180.36 847.34,-187.28"/>
</g>
<!-- Node20 -->
<g id="node20" class="node">
<title>Node20</title>
<g id="a_node20"><a xlink:title=" ">
<polygon fill="#e0e0e0" stroke="#999999" points="653,-239 555,-239 555,-220 653,-220 653,-239"/>
<text text-anchor="middle" x="604" y="-227" font-family="Helvetica,sans-Serif" font-size="10.00">fcarouge/linalg.hpp</text>
</a>
</g>
</g>
<!-- Node1&#45;&gt;Node20 -->
<g id="edge26" class="edge">
<title>Node1&#45;&gt;Node20</title>
<path fill="none" stroke="#63b8ff" d="M652.18,-274.54C642.98,-266.13 631.36,-255.51 621.83,-246.8"/>
<polygon fill="#63b8ff" stroke="#63b8ff" points="624.35,-244.36 614.61,-240.2 619.63,-249.53 624.35,-244.36"/>
</g>
<!-- Node21 -->
<g id="node21" class="node">
<title>Node21</title>
<g id="a_node21"><a xlink:title=" ">
<polygon fill="#e0e0e0" stroke="#999999" points="794.5,-239 671.5,-239 671.5,-220 794.5,-220 794.5,-239"/>
<text text-anchor="middle" x="733" y="-227" font-family="Helvetica,sans-Serif" font-size="10.00">benchmark/benchmark.h</text>
</a>
</g>
</g>
<!-- Node1&#45;&gt;Node21 -->
<g id="edge27" class="edge">
<title>Node1&#45;&gt;Node21</title>
<path fill="none" stroke="#63b8ff" d="M684.07,-274.54C693.41,-266.13 705.22,-255.51 714.89,-246.8"/>
<polygon fill="#63b8ff" stroke="#63b8ff" points="717.14,-249.48 722.24,-240.19 712.46,-244.28 717.14,-249.48"/>
</g>
<!-- Node22 -->
<g id="node22" class="node">
<title>Node22</title>
<g id="a_node22"><a xlink:title=" ">
<polygon fill="#e0e0e0" stroke="#999999" points="869,-239 813,-239 813,-220 869,-220 869,-239"/>
<text text-anchor="middle" x="841" y="-227" font-family="Helvetica,sans-Serif" font-size="10.00">algorithm</text>
</a>
</g>
</g>
<!-- Node1&#45;&gt;Node22 -->
<g id="edge28" class="edge">
<title>Node1&#45;&gt;Node22</title>
<path fill="none" stroke="#63b8ff" d="M710.76,-274.54C739.35,-264.87 776.57,-252.29 803.9,-243.04"/>
<polygon fill="#63b8ff" stroke="#63b8ff" points="804.8,-246.44 813.15,-239.92 802.56,-239.8 804.8,-246.44"/>
</g>
<!-- Node23 -->
<g id="node23" class="node">
<title>Node23</title>
<g id="a_node23"><a xlink:title=" ">
<polygon fill="#e0e0e0" stroke="#999999" points="931,-239 887,-239 887,-220 931,-220 931,-239"/>
<text text-anchor="middle" x="909" y="-227" font-family="Helvetica,sans-Serif" font-size="10.00">cmath</text>
</a>
</g>
</g>
<!-- Node1&#45;&gt;Node23 -->
<g id="edge30" class="edge">
<title>Node1&#45;&gt;Node23</title>
<path fill="none" stroke="#63b8ff" d="M731.08,-274.57C770.24,-265.47 821.87,-253.24 875.85,-239.49"/>
<polygon fill="#63b8ff" stroke="#63b8ff" points="876.39,-242.96 885.21,-237.09 874.65,-236.18 876.39,-242.96"/>
</g>
<!-- Node24 -->
<g id="node24" class="node">
<title>Node24</title>
<g id="a_node24"><a xlink:title=" ">
<polygon fill="#e0e0e0" stroke="#999999" points="995,-239 949,-239 949,-220 995,-220 995,-239"/>
<text text-anchor="middle" x="972" y="-227" font-family="Helvetica,sans-Serif" font-size="10.00">cstdint</text>
</a>
</g>
</g>
<!-- Node1&#45;&gt;Node24 -->
<g id="edge32" class="edge">
<title>Node1&#45;&gt;Node24</title>
<path fill="none" stroke="#63b8ff" d="M741.91,-277.01C794.11,-268.18 865.93,-255.29 937.6,-239.4"/>
<polygon fill="#63b8ff" stroke="#63b8ff" points="938.16,-242.86 947.16,-237.26 936.63,-236.03 938.16,-242.86"/>
</g>
<!-- Node25 -->
<g id="node25" class="node">
<title>Node25</title>
<g id="a_node25"><a xlink:title=" ">
<polygon fill="#e0e0e0" stroke="#999999" points="1059,-239 1013,-239 1013,-220 1059,-220 1059,-239"/>
<text text-anchor="middle" x="1036" y="-227" font-family="Helvetica,sans-Serif" font-size="10.00">cstring</text>
</a>
</g>
</g>
<!-- Node1&#45;&gt;Node25 -->
<g id="edge33" class="edge">
<title>Node1&#45;&gt;Node25</title>
<path fill="none" stroke="#63b8ff" d="M741.83,-280.43C807.58,-272.24 906.59,-258.58 1001.41,-239.34"/>
<polygon fill="#63b8ff" stroke="#63b8ff" points="1002.08,-242.77 1011.17,-237.33 1000.67,-235.92 1002.08,-242.77"/>
</g>
<!-- Node26 -->
<g id="node26" class="node">
<title>Node26</title>
<g id="a_node26"><a xlink:title=" ">
<polygon fill="#e0e0e0" stroke="#999999" points="1126.5,-239 1077.5,-239 1077.5,-220 1126.5,-220 1126.5,-239"/>
<text text-anchor="middle" x="1102" y="-227" font-family="Helvetica,sans-Serif" font-size="10.00">random</text>
</a>
</g>
</g>
<!-- Node1&#45;&gt;Node26 -->
<g id="edge34" class="edge">
<title>Node1&#45;&gt;Node26</title>
<path fill="none" stroke="#63b8ff" d="M741.77,-282.47C819.9,-274.95 947.02,-260.99 1066.07,-239.14"/>
<polygon fill="#63b8ff" stroke="#63b8ff" points="1066.51,-242.62 1075.71,-237.35 1065.23,-235.73 1066.51,-242.62"/>
</g>
<!-- Node2&#45;&gt;Node3 -->
<g id="edge2" class="edge">
<title>Node2&#45;&gt;Node3</title>
<path fill="none" stroke="#63b8ff" d="M66.41,-219.75C59.16,-212.35 48.55,-201.54 39.63,-192.45"/>
<polygon fill="#63b8ff" stroke="#63b8ff" points="42.34,-190.21 32.83,-185.52 37.34,-195.11 42.34,-190.21"/>
</g>
<!-- Node4 -->
<g id="node4" class="node">
<title>Node4</title>
<g id="a_node4"><a xlink:title=" ">
<polygon fill="#e0e0e0" stroke="#999999" points="267,-19 205,-19 205,0 267,0 267,-19"/>
<text text-anchor="middle" x="236" y="-7" font-family="Helvetica,sans-Serif" font-size="10.00">type_traits</text>
</a>
</g>
</g>
<!-- Node2&#45;&gt;Node4 -->
<g id="edge3" class="edge">
<title>Node2&#45;&gt;Node4</title>
<path fill="none" stroke="#63b8ff" d="M77.45,-219.52C85.36,-191.95 112.54,-107.26 161,-55 172.93,-42.14 189.43,-31.8 203.91,-24.34"/>
<polygon fill="#63b8ff" stroke="#63b8ff" points="205.19,-27.61 212.65,-20.08 202.12,-21.32 205.19,-27.61"/>
</g>
<!-- Node5&#45;&gt;Node4 -->
<g id="edge6" class="edge">
<title>Node5&#45;&gt;Node4</title>
<path fill="none" stroke="#63b8ff" d="M437.78,-54.51C393.43,-44.84 323.26,-29.53 278.45,-19.76"/>
<polygon fill="#63b8ff" stroke="#63b8ff" points="279.35,-16.37 268.83,-17.66 277.86,-23.21 279.35,-16.37"/>
</g>
<!-- Node6 -->
<g id="node6" class="node">
<title>Node6</title>
<g id="a_node6"><a xlink:title=" ">
<polygon fill="#e0e0e0" stroke="#999999" points="636,-19 580,-19 580,0 636,0 636,-19"/>
<text text-anchor="middle" x="608" y="-7" font-family="Helvetica,sans-Serif" font-size="10.00">concepts</text>
</a>
</g>
</g>
<!-- Node5&#45;&gt;Node6 -->
<g id="edge5" class="edge">
<title>Node5&#45;&gt;Node6</title>
<path fill="none" stroke="#63b8ff" d="M500.88,-54.51C521.49,-46.04 552.59,-33.27 575.98,-23.66"/>
<polygon fill="#63b8ff" stroke="#63b8ff" points="577.12,-26.97 585.04,-19.93 574.46,-20.5 577.12,-26.97"/>
</g>
<!-- Node7&#45;&gt;Node4 -->
<g id="edge23" class="edge">
<title>Node7&#45;&gt;Node4</title>
<path fill="none" stroke="#63b8ff" d="M391.21,-226.73C325.35,-223.31 219.52,-213.27 195,-184 156.63,-138.2 199.44,-62.82 222.81,-28.51"/>
<polygon fill="#63b8ff" stroke="#63b8ff" points="225.56,-30.69 228.46,-20.5 219.84,-26.66 225.56,-30.69"/>
</g>
<!-- Node7&#45;&gt;Node6 -->
<g id="edge20" class="edge">
<title>Node7&#45;&gt;Node6</title>
<path fill="none" stroke="#63b8ff" d="M498.76,-223.49C574.47,-215.89 704.91,-200.56 719,-184 756.24,-140.22 745.27,-100.37 710,-55 694.75,-35.39 669.09,-24.25 647.32,-18.02"/>
<polygon fill="#63b8ff" stroke="#63b8ff" points="648.39,-14.68 637.83,-15.57 646.64,-21.46 648.39,-14.68"/>
</g>
<!-- Node8 -->
<g id="node8" class="node">
<title>Node8</title>
<g id="a_node8"><a xlink:href="algorithm_8hpp.xhtml" target="_top" xlink:title="The collection of Kalman algorithms.">
<polygon fill="white" stroke="#666666" points="840,-184 766,-184 766,-165 840,-165 840,-184"/>
<text text-anchor="middle" x="803" y="-172" font-family="Helvetica,sans-Serif" font-size="10.00">algorithm.hpp</text>
</a>
</g>
</g>
<!-- Node7&#45;&gt;Node8 -->
<g id="edge8" class="edge">
<title>Node7&#45;&gt;Node8</title>
<path fill="none" stroke="#63b8ff" d="M498.85,-221.05C560.19,-212.48 663.4,-197.8 752,-184 752.83,-183.87 753.67,-183.74 754.52,-183.61"/>
<polygon fill="#63b8ff" stroke="#63b8ff" points="754.88,-187.09 764.2,-182.05 753.77,-180.18 754.88,-187.09"/>
</g>
<!-- Node9 -->
<g id="node9" class="node">
<title>Node9</title>
<g id="a_node9"><a xlink:href="format_8hpp.xhtml" target="_top" xlink:title=" ">
<polygon fill="white" stroke="#666666" points="551.5,-184 454.5,-184 454.5,-165 551.5,-165 551.5,-184"/>
<text text-anchor="middle" x="503" y="-172" font-family="Helvetica,sans-Serif" font-size="10.00">internal/format.hpp</text>
</a>
</g>
</g>
<!-- Node7&#45;&gt;Node9 -->
<g id="edge9" class="edge">
<title>Node7&#45;&gt;Node9</title>
<path fill="none" stroke="#63b8ff" d="M454.84,-219.51C463.05,-212 474.98,-201.1 484.91,-192.03"/>
<polygon fill="#63b8ff" stroke="#63b8ff" points="487.17,-194.71 492.19,-185.38 482.45,-189.54 487.17,-194.71"/>
</g>
<!-- Node10 -->
<g id="node10" class="node">
<title>Node10</title>
<g id="a_node10"><a xlink:href="utility_8hpp.xhtml" target="_top" xlink:title="The collection of utilities supporting the library.">
<polygon fill="white" stroke="#666666" points="528,-129 430,-129 430,-110 528,-110 528,-129"/>
<text text-anchor="middle" x="479" y="-117" font-family="Helvetica,sans-Serif" font-size="10.00">fcarouge/utility.hpp</text>
</a>
</g>
</g>
<!-- Node7&#45;&gt;Node10 -->
<g id="edge19" class="edge">
<title>Node7&#45;&gt;Node10</title>
<path fill="none" stroke="#63b8ff" d="M498.72,-221.55C521.9,-215.59 546.89,-204.53 561,-184 575.97,-162.23 546.83,-144.55 519.23,-133.43"/>
<polygon fill="#63b8ff" stroke="#63b8ff" points="520.83,-130.29 510.24,-130.03 518.36,-136.84 520.83,-130.29"/>
</g>
<!-- Node12 -->
<g id="node12" class="node">
<title>Node12</title>
<g id="a_node12"><a xlink:href="internal_2kalman_8hpp.xhtml" target="_top" xlink:title=" ">
<polygon fill="white" stroke="#666666" points="709.5,-184 608.5,-184 608.5,-165 709.5,-165 709.5,-184"/>
<text text-anchor="middle" x="659" y="-172" font-family="Helvetica,sans-Serif" font-size="10.00">internal/kalman.hpp</text>
</a>
</g>
</g>
<!-- Node7&#45;&gt;Node12 -->
<g id="edge14" class="edge">
<title>Node7&#45;&gt;Node12</title>
<path fill="none" stroke="#63b8ff" d="M481.3,-219.51C517.23,-210.61 572.4,-196.95 611.73,-187.21"/>
<polygon fill="#63b8ff" stroke="#63b8ff" points="612.54,-190.61 621.41,-184.81 610.86,-183.82 612.54,-190.61"/>
</g>
<!-- Node7&#45;&gt;Node16 -->
<g id="edge21" class="edge">
<title>Node7&#45;&gt;Node16</title>
<path fill="none" stroke="#63b8ff" d="M498.81,-221.68C503.61,-221.1 508.39,-220.53 513,-220 658.54,-203.11 699.16,-209.92 846.91,-184.12"/>
<polygon fill="#63b8ff" stroke="#63b8ff" points="847.48,-187.57 856.71,-182.38 846.26,-180.68 847.48,-187.57"/>
</g>
<!-- Node17 -->
<g id="node17" class="node">
<title>Node17</title>
<g id="a_node17"><a xlink:title=" ">
<polygon fill="#e0e0e0" stroke="#999999" points="262.5,-184 203.5,-184 203.5,-165 262.5,-165 262.5,-184"/>
<text text-anchor="middle" x="233" y="-172" font-family="Helvetica,sans-Serif" font-size="10.00">functional</text>
</a>
</g>
</g>
<!-- Node7&#45;&gt;Node17 -->
<g id="edge22" class="edge">
<title>Node7&#45;&gt;Node17</title>
<path fill="none" stroke="#63b8ff" d="M409.04,-219.51C371.62,-210.16 313.13,-195.53 273.96,-185.74"/>
<polygon fill="#63b8ff" stroke="#63b8ff" points="274.98,-182.39 264.43,-183.36 273.28,-189.18 274.98,-182.39"/>
</g>
<!-- Node18 -->
<g id="node18" class="node">
<title>Node18</title>
<g id="a_node18"><a xlink:title=" ">
<polygon fill="#e0e0e0" stroke="#999999" points="319.5,-184 280.5,-184 280.5,-165 319.5,-165 319.5,-184"/>
<text text-anchor="middle" x="300" y="-172" font-family="Helvetica,sans-Serif" font-size="10.00">utility</text>
</a>
</g>
</g>
<!-- Node7&#45;&gt;Node18 -->
<g id="edge24" class="edge">
<title>Node7&#45;&gt;Node18</title>
<path fill="none" stroke="#63b8ff" d="M420.4,-219.51C395.52,-210.41 357,-196.33 330.26,-186.56"/>
<polygon fill="#63b8ff" stroke="#63b8ff" points="331.61,-183.33 321.01,-183.18 329.21,-189.9 331.61,-183.33"/>
</g>
<!-- Node19 -->
<g id="node19" class="node">
<title>Node19</title>
<g id="a_node19"><a xlink:title=" ">
<polygon fill="#e0e0e0" stroke="#999999" points="436,-184 338,-184 338,-165 436,-165 436,-184"/>
<text text-anchor="middle" x="387" y="-172" font-family="Helvetica,sans-Serif" font-size="10.00">internal/kalman.tpp</text>
</a>
</g>
</g>
<!-- Node7&#45;&gt;Node19 -->
<g id="edge25" class="edge">
<title>Node7&#45;&gt;Node19</title>
<path fill="none" stroke="#63b8ff" d="M435.16,-219.51C426.95,-212 415.02,-201.1 405.09,-192.03"/>
<polygon fill="#63b8ff" stroke="#63b8ff" points="407.55,-189.54 397.81,-185.38 402.83,-194.71 407.55,-189.54"/>
</g>
<!-- Node9&#45;&gt;Node4 -->
<g id="edge13" class="edge">
<title>Node9&#45;&gt;Node4</title>
<path fill="none" stroke="#63b8ff" d="M454.98,-164.57C425.82,-157.75 388.63,-146.49 359,-129 312.81,-101.73 270.48,-53.83 249.62,-28.08"/>
<polygon fill="#63b8ff" stroke="#63b8ff" points="252.62,-26.22 243.66,-20.56 247.13,-30.57 252.62,-26.22"/>
</g>
<!-- Node9&#45;&gt;Node10 -->
<g id="edge10" class="edge">
<title>Node9&#45;&gt;Node10</title>
<path fill="none" stroke="#63b8ff" d="M499.04,-164.75C495.96,-157.96 491.59,-148.3 487.71,-139.73"/>
<polygon fill="#63b8ff" stroke="#63b8ff" points="490.99,-138.49 483.67,-130.82 484.61,-141.37 490.99,-138.49"/>
</g>
<!-- Node11 -->
<g id="node11" class="node">
<title>Node11</title>
<g id="a_node11"><a xlink:title=" ">
<polygon fill="#e0e0e0" stroke="#999999" points="412,-129 368,-129 368,-110 412,-110 412,-129"/>
<text text-anchor="middle" x="390" y="-117" font-family="Helvetica,sans-Serif" font-size="10.00">format</text>
</a>
</g>
</g>
<!-- Node9&#45;&gt;Node11 -->
<g id="edge12" class="edge">
<title>Node9&#45;&gt;Node11</title>
<path fill="none" stroke="#63b8ff" d="M483.83,-164.51C466.11,-156.2 439.52,-143.73 419.17,-134.18"/>
<polygon fill="#63b8ff" stroke="#63b8ff" points="420.8,-131.08 410.26,-130 417.82,-137.42 420.8,-131.08"/>
</g>
<!-- Node10&#45;&gt;Node5 -->
<g id="edge11" class="edge">
<title>Node10&#45;&gt;Node5</title>
<path fill="none" stroke="#63b8ff" d="M479,-109.75C479,-103.27 479,-94.16 479,-85.9"/>
<polygon fill="#63b8ff" stroke="#63b8ff" points="482.5,-85.96 479,-75.96 475.5,-85.96 482.5,-85.96"/>
</g>
<!-- Node12&#45;&gt;Node5 -->
<g id="edge17" class="edge">
<title>Node12&#45;&gt;Node5</title>
<path fill="none" stroke="#63b8ff" d="M641.02,-164.62C623.83,-155.97 597.28,-142.23 575,-129 548.93,-113.52 520.04,-94.08 500.83,-80.82"/>
<polygon fill="#63b8ff" stroke="#63b8ff" points="502.93,-78.02 492.73,-75.19 498.94,-83.77 502.93,-78.02"/>
</g>
<!-- Node13 -->
<g id="node13" class="node">
<title>Node13</title>
<g id="a_node13"><a xlink:href="function_8hpp.xhtml" target="_top" xlink:title=" ">
<polygon fill="white" stroke="#666666" points="709.5,-129 640.5,-129 640.5,-110 709.5,-110 709.5,-129"/>
<text text-anchor="middle" x="675" y="-117" font-family="Helvetica,sans-Serif" font-size="10.00">function.hpp</text>
</a>
</g>
</g>
<!-- Node12&#45;&gt;Node13 -->
<g id="edge15" class="edge">
<title>Node12&#45;&gt;Node13</title>
<path fill="none" stroke="#63b8ff" d="M661.64,-164.75C663.64,-158.11 666.48,-148.73 669.02,-140.31"/>
<polygon fill="#63b8ff" stroke="#63b8ff" points="672.32,-141.48 671.86,-130.89 665.62,-139.45 672.32,-141.48"/>
</g>
<!-- Node15 -->
<g id="node15" class="node">
<title>Node15</title>
<g id="a_node15"><a xlink:title=" ">
<polygon fill="#e0e0e0" stroke="#999999" points="622,-129 584,-129 584,-110 622,-110 622,-129"/>
<text text-anchor="middle" x="603" y="-117" font-family="Helvetica,sans-Serif" font-size="10.00">tuple</text>
</a>
</g>
</g>
<!-- Node12&#45;&gt;Node15 -->
<g id="edge18" class="edge">
<title>Node12&#45;&gt;Node15</title>
<path fill="none" stroke="#63b8ff" d="M649.5,-164.51C641.57,-157 630.05,-146.1 620.46,-137.03"/>
<polygon fill="#63b8ff" stroke="#63b8ff" points="623.13,-134.73 613.46,-130.4 618.32,-139.81 623.13,-134.73"/>
</g>
<!-- Node14 -->
<g id="node14" class="node">
<title>Node14</title>
<g id="a_node14"><a xlink:title=" ">
<polygon fill="#e0e0e0" stroke="#999999" points="700.5,-74 649.5,-74 649.5,-55 700.5,-55 700.5,-74"/>
<text text-anchor="middle" x="675" y="-62" font-family="Helvetica,sans-Serif" font-size="10.00">memory</text>
</a>
</g>
</g>
<!-- Node13&#45;&gt;Node14 -->
<g id="edge16" class="edge">
<title>Node13&#45;&gt;Node14</title>
<path fill="none" stroke="#63b8ff" d="M675,-109.75C675,-103.27 675,-94.16 675,-85.9"/>
<polygon fill="#63b8ff" stroke="#63b8ff" points="678.5,-85.96 675,-75.96 671.5,-85.96 678.5,-85.96"/>
</g>
</g>
</svg>
