<?xml version="1.0" encoding="UTF-8" standalone="no"?>
<!DOCTYPE svg PUBLIC "-//W3C//DTD SVG 1.1//EN"
 "http://www.w3.org/Graphics/SVG/1.1/DTD/svg11.dtd">
<!-- Generated by graphviz version 12.2.0 (20241103.1931)
 -->
<!-- Title: /github/workspace/benchmark/predict_1x1x1.cpp Pages: 1 -->
<!--zoomable 381 -->

<svg id="main" version="1.1" xmlns="http://www.w3.org/2000/svg" xmlns:xlink="http://www.w3.org/1999/xlink" xml:space="preserve" onload="init(evt)">

<style type="text/css"><![CDATA[
.node, .edge {opacity: 0.7;}
.node.selected, .edge.selected {opacity: 1;}
.edge:hover path { stroke: red; }
.edge:hover polygon { stroke: red; fill: red; }
]]></style>

<defs>
  <circle id="rim" cx="0" cy="0" r="7"/>
  <circle id="rim2" cx="0" cy="0" r="3.5"/>
  <g id="zoomPlus">
    <use xlink:href="#rim" fill="#404040"><set attributeName="fill" to="#808080" begin="zoomplus.mouseover" end="zoomplus.mouseout"/></use>
    <path d="M-4,0h8M0,-4v8" fill="none" stroke="white" stroke-width="1.5" pointer-events="none"/>
  </g>
  <g id="zoomMin">
    <use xlink:href="#rim" fill="#404040"><set attributeName="fill" to="#808080" begin="zoomminus.mouseover" end="zoomminus.mouseout"/></use>
    <path d="M-4,0h8" fill="none" stroke="white" stroke-width="1.5" pointer-events="none"/>
  </g>
  <g id="arrowUp" transform="translate(30 24)">
    <use xlink:href="#rim"/>
    <path pointer-events="none" fill="none" stroke="white" stroke-width="1.5" d="M0,-3.0v7 M-2.5,-0.5L0,-3.0L2.5,-0.5"/>
  </g>
  <g id="arrowRight" transform="rotate(90) translate(36 -43)">
    <use xlink:href="#rim"/>
    <path pointer-events="none" fill="none" stroke="white" stroke-width="1.5" d="M0,-3.0v7 M-2.5,-0.5L0,-3.0L2.5,-0.5"/>
  </g>
  <g id="arrowDown" transform="rotate(180) translate(-30 -48)">
    <use xlink:href="#rim"/>
    <path pointer-events="none" fill="none" stroke="white" stroke-width="1.5" d="M0,-3.0v7 M-2.5,-0.5L0,-3.0L2.5,-0.5"/>
  </g>
  <g id="arrowLeft" transform="rotate(270) translate(-36 17)">
    <use xlink:href="#rim"/>
    <path pointer-events="none" fill="none" stroke="white" stroke-width="1.5" d="M0,-3.0v7 M-2.5,-0.5L0,-3.0L2.5,-0.5"/>
  </g>
  <g id="resetDef">
    <use xlink:href="#rim2" fill="#404040"><set attributeName="fill" to="#808080" begin="reset.mouseover" end="reset.mouseout"/></use>
  </g>
</defs>
<script type="application/ecmascript">
var viewWidth = 1385;
var viewHeight = 381;
var sectionId = 'dynsection-0';
</script>
<script type="application/ecmascript" xlink:href="svg.min.js"/>
<svg id="graph" class="graph">
<g id="viewport">
<title>/github/workspace/benchmark/predict_1x1x1.cpp</title>
<!-- Node1 -->
<g id="Node000001" class="node">
<title>Node1</title>
<g id="a_Node000001"><a xlink:title=" ">
<polygon fill="#999999" stroke="#666666" points="368.88,-373.25 222.38,-373.25 222.38,-342.75 368.88,-342.75 368.88,-373.25"/>
<text text-anchor="start" x="230.38" y="-359.75" font-family="Helvetica,sans-Serif" font-size="10.00">/github/workspace/benchmark</text>
<text text-anchor="middle" x="295.62" y="-348.5" font-family="Helvetica,sans-Serif" font-size="10.00">/predict_1x1x1.cpp</text>
</a>
</g>
</g>
<!-- Node2 -->
<g id="Node000002" class="node">
<title>Node2</title>
<g id="a_Node000002"><a xlink:href="benchmark_8hpp.xhtml" target="_top" xlink:title="Benchmarking support.">
<polygon fill="white" stroke="#666666" points="132.62,-306.75 50.62,-306.75 50.62,-287.5 132.62,-287.5 132.62,-306.75"/>
<text text-anchor="middle" x="91.62" y="-293.25" font-family="Helvetica,sans-Serif" font-size="10.00">benchmark.hpp</text>
</a>
</g>
</g>
<!-- Node1&#45;&gt;Node2 -->
<g id="edge1_Node000001_Node000002" class="edge">
<title>Node1&#45;&gt;Node2</title>
<g id="a_edge1_Node000001_Node000002"><a xlink:title=" ">
<path fill="none" stroke="#63b8ff" d="M244.67,-342.3C210.58,-332.45 166.22,-319.65 134.05,-310.37"/>
<polygon fill="#63b8ff" stroke="#63b8ff" points="135.24,-307.07 124.66,-307.66 133.3,-313.8 135.24,-307.07"/>
</a>
</g>
</g>
<!-- Node3 -->
<g id="Node000003" class="node">
<title>Node3</title>
<g id="a_Node000003"><a xlink:title=" ">
<polygon fill="#e0e0e0" stroke="#999999" points="45.25,-251.5 0,-251.5 0,-232.25 45.25,-232.25 45.25,-251.5"/>
<text text-anchor="middle" x="22.62" y="-238" font-family="Helvetica,sans-Serif" font-size="10.00">chrono</text>
</a>
</g>
</g>
<!-- Node1&#45;&gt;Node3 -->
<g id="edge53_Node000001_Node000003" class="edge">
<title>Node1&#45;&gt;Node3</title>
<g id="a_edge53_Node000001_Node000003"><a xlink:title=" ">
<path fill="none" stroke="#63b8ff" d="M222.13,-350.86C156.77,-343.94 67.64,-330.43 41.62,-306.75 29.45,-295.67 24.94,-277.17 23.33,-262.92"/>
<polygon fill="#63b8ff" stroke="#63b8ff" points="26.85,-263.03 22.66,-253.3 19.87,-263.52 26.85,-263.03"/>
</a>
</g>
</g>
<!-- Node5 -->
<g id="Node000005" class="node">
<title>Node5</title>
<g id="a_Node000005"><a xlink:href="kalman_8hpp.xhtml" target="_top" xlink:title="The Kalman filter class and library top&#45;level header.">
<polygon fill="white" stroke="#666666" points="282.62,-306.75 176.62,-306.75 176.62,-287.5 282.62,-287.5 282.62,-306.75"/>
<text text-anchor="middle" x="229.62" y="-293.25" font-family="Helvetica,sans-Serif" font-size="10.00">fcarouge/kalman.hpp</text>
</a>
</g>
</g>
<!-- Node1&#45;&gt;Node5 -->
<g id="edge4_Node000001_Node000005" class="edge">
<title>Node1&#45;&gt;Node5</title>
<g id="a_edge4_Node000001_Node000005"><a xlink:title=" ">
<path fill="none" stroke="#63b8ff" d="M279.31,-342.45C269.94,-334.09 258.13,-323.55 248.37,-314.85"/>
<polygon fill="#63b8ff" stroke="#63b8ff" points="250.72,-312.25 240.93,-308.21 246.06,-317.48 250.72,-312.25"/>
</a>
</g>
</g>
<!-- Node29 -->
<g id="Node000029" class="node">
<title>Node29</title>
<g id="a_Node000029"><a xlink:title=" ">
<polygon fill="#e0e0e0" stroke="#999999" points="422.88,-306.75 300.38,-306.75 300.38,-287.5 422.88,-287.5 422.88,-306.75"/>
<text text-anchor="middle" x="361.62" y="-293.25" font-family="Helvetica,sans-Serif" font-size="10.00">benchmark/benchmark.h</text>
</a>
</g>
</g>
<!-- Node1&#45;&gt;Node29 -->
<g id="edge51_Node000001_Node000029" class="edge">
<title>Node1&#45;&gt;Node29</title>
<g id="a_edge51_Node000001_Node000029"><a xlink:title=" ">
<path fill="none" stroke="#63b8ff" d="M311.94,-342.45C321.31,-334.09 333.12,-323.55 342.88,-314.85"/>
<polygon fill="#63b8ff" stroke="#63b8ff" points="345.19,-317.48 350.32,-308.21 340.53,-312.25 345.19,-317.48"/>
</a>
</g>
</g>
<!-- Node30 -->
<g id="Node000030" class="node">
<title>Node30</title>
<g id="a_Node000030"><a xlink:title=" ">
<polygon fill="#e0e0e0" stroke="#999999" points="496.5,-306.75 440.75,-306.75 440.75,-287.5 496.5,-287.5 496.5,-306.75"/>
<text text-anchor="middle" x="468.62" y="-293.25" font-family="Helvetica,sans-Serif" font-size="10.00">algorithm</text>
</a>
</g>
</g>
<!-- Node1&#45;&gt;Node30 -->
<g id="edge52_Node000001_Node000030" class="edge">
<title>Node1&#45;&gt;Node30</title>
<g id="a_edge52_Node000001_Node000030"><a xlink:title=" ">
<path fill="none" stroke="#63b8ff" d="M338.83,-342.3C367.25,-332.63 404.05,-320.1 431.21,-310.86"/>
<polygon fill="#63b8ff" stroke="#63b8ff" points="432.07,-314.26 440.41,-307.73 429.81,-307.64 432.07,-314.26"/>
</a>
</g>
</g>
<!-- Node31 -->
<g id="Node000031" class="node">
<title>Node31</title>
<g id="a_Node000031"><a xlink:title=" ">
<polygon fill="#e0e0e0" stroke="#999999" points="562.75,-306.75 514.5,-306.75 514.5,-287.5 562.75,-287.5 562.75,-306.75"/>
<text text-anchor="middle" x="538.62" y="-293.25" font-family="Helvetica,sans-Serif" font-size="10.00">random</text>
</a>
</g>
</g>
<!-- Node1&#45;&gt;Node31 -->
<g id="edge54_Node000001_Node000031" class="edge">
<title>Node1&#45;&gt;Node31</title>
<g id="a_edge54_Node000001_Node000031"><a xlink:title=" ">
<path fill="none" stroke="#63b8ff" d="M358.65,-342.28C397.71,-333.07 449.2,-320.79 502.98,-307.38"/>
<polygon fill="#63b8ff" stroke="#63b8ff" points="503.81,-310.78 512.66,-304.95 502.11,-303.99 503.81,-310.78"/>
</a>
</g>
</g>
<!-- Node2&#45;&gt;Node3 -->
<g id="edge2_Node000002_Node000003" class="edge">
<title>Node2&#45;&gt;Node3</title>
<g id="a_edge2_Node000002_Node000003"><a xlink:title=" ">
<path fill="none" stroke="#63b8ff" d="M79.92,-287.09C69.85,-279.32 55.08,-267.92 43.06,-258.65"/>
<polygon fill="#63b8ff" stroke="#63b8ff" points="45.41,-256.04 35.36,-252.7 41.13,-261.58 45.41,-256.04"/>
</a>
</g>
</g>
<!-- Node4 -->
<g id="Node000004" class="node">
<title>Node4</title>
<g id="a_Node000004"><a xlink:title=" ">
<polygon fill="#e0e0e0" stroke="#999999" points="213.12,-19.25 152.12,-19.25 152.12,0 213.12,0 213.12,-19.25"/>
<text text-anchor="middle" x="182.62" y="-5.75" font-family="Helvetica,sans-Serif" font-size="10.00">type_traits</text>
</a>
</g>
</g>
<!-- Node2&#45;&gt;Node4 -->
<g id="edge3_Node000002_Node000004" class="edge">
<title>Node2&#45;&gt;Node4</title>
<g id="a_edge3_Node000002_Node000004"><a xlink:title=" ">
<path fill="none" stroke="#63b8ff" d="M89.2,-287.03C84.28,-267.8 73.62,-221.51 73.62,-182 73.62,-182 73.62,-182 73.62,-119.12 73.62,-74.55 119.97,-41.97 152.22,-24.7"/>
<polygon fill="#63b8ff" stroke="#63b8ff" points="153.47,-28 160.78,-20.32 150.28,-21.76 153.47,-28"/>
</a>
</g>
</g>
<!-- Node6 -->
<g id="Node000006" class="node">
<title>Node6</title>
<g id="a_Node000006"><a xlink:href="format_8hpp.xhtml" target="_top" xlink:title="Formatting support for the Kalman filter.">
<polygon fill="white" stroke="#666666" points="329.5,-190.62 267.75,-190.62 267.75,-171.38 329.5,-171.38 329.5,-190.62"/>
<text text-anchor="middle" x="298.62" y="-177.12" font-family="Helvetica,sans-Serif" font-size="10.00">format.hpp</text>
</a>
</g>
</g>
<!-- Node5&#45;&gt;Node6 -->
<g id="edge5_Node000005_Node000006" class="edge">
<title>Node5&#45;&gt;Node6</title>
<g id="a_edge5_Node000005_Node000006"><a xlink:title=" ">
<path fill="none" stroke="#63b8ff" d="M247.85,-287.01C261.1,-279.38 278.28,-267.23 287.62,-251.5 296.5,-236.55 298.91,-216.75 299.3,-202.1"/>
<polygon fill="#63b8ff" stroke="#63b8ff" points="302.8,-202.31 299.24,-192.33 295.8,-202.35 302.8,-202.31"/>
</a>
</g>
</g>
<!-- Node7 -->
<g id="Node000007" class="node">
<title>Node7</title>
<g id="a_Node000007"><a xlink:href="utility_8hpp.xhtml" target="_top" xlink:title="The collection of utilities supporting the library.">
<polygon fill="white" stroke="#666666" points="700.12,-129.75 603.12,-129.75 603.12,-110.5 700.12,-110.5 700.12,-129.75"/>
<text text-anchor="middle" x="651.62" y="-116.25" font-family="Helvetica,sans-Serif" font-size="10.00">fcarouge/utility.hpp</text>
</a>
</g>
</g>
<!-- Node5&#45;&gt;Node7 -->
<g id="edge49_Node000005_Node000007" class="edge">
<title>Node5&#45;&gt;Node7</title>
<g id="a_edge49_Node000005_Node000007"><a xlink:title=" ">
<path fill="none" stroke="#63b8ff" d="M261.51,-287C311.05,-272.09 408.61,-239.75 483.62,-196.25 502.36,-185.39 502.66,-176.2 521.62,-165.75 547.3,-151.61 578.26,-140.76 603.53,-133.31"/>
<polygon fill="#63b8ff" stroke="#63b8ff" points="604.22,-136.75 612.88,-130.64 602.3,-130.02 604.22,-136.75"/>
</a>
</g>
</g>
<!-- Node14 -->
<g id="Node000014" class="node">
<title>Node14</title>
<g id="a_Node000014"><a xlink:href="factory_8hpp.xhtml" target="_top" xlink:title=" ">
<polygon fill="white" stroke="#666666" points="741.5,-251.5 643.75,-251.5 643.75,-232.25 741.5,-232.25 741.5,-251.5"/>
<text text-anchor="middle" x="692.62" y="-238" font-family="Helvetica,sans-Serif" font-size="10.00">internal/factory.hpp</text>
</a>
</g>
</g>
<!-- Node5&#45;&gt;Node14 -->
<g id="edge17_Node000005_Node000014" class="edge">
<title>Node5&#45;&gt;Node14</title>
<g id="a_edge17_Node000005_Node000014"><a xlink:title=" ">
<path fill="none" stroke="#63b8ff" d="M283.05,-288.6C285.95,-288.22 288.82,-287.85 291.62,-287.5 412.36,-272.39 553.88,-257.24 632.38,-249.06"/>
<polygon fill="#63b8ff" stroke="#63b8ff" points="632.41,-252.58 641.99,-248.06 631.68,-245.61 632.41,-252.58"/>
</a>
</g>
</g>
<!-- Node26 -->
<g id="Node000026" class="node">
<title>Node26</title>
<g id="a_Node000026"><a xlink:href="printer_8hpp.xhtml" target="_top" xlink:title="Filter decoration support for printing operations.">
<polygon fill="white" stroke="#666666" points="163.12,-251.5 102.12,-251.5 102.12,-232.25 163.12,-232.25 163.12,-251.5"/>
<text text-anchor="middle" x="132.62" y="-238" font-family="Helvetica,sans-Serif" font-size="10.00">printer.hpp</text>
</a>
</g>
</g>
<!-- Node5&#45;&gt;Node26 -->
<g id="edge47_Node000005_Node000026" class="edge">
<title>Node5&#45;&gt;Node26</title>
<g id="a_edge47_Node000005_Node000026"><a xlink:title=" ">
<path fill="none" stroke="#63b8ff" d="M213.17,-287.09C198.4,-278.98 176.45,-266.93 159.19,-257.46"/>
<polygon fill="#63b8ff" stroke="#63b8ff" points="160.94,-254.43 150.49,-252.68 157.57,-260.56 160.94,-254.43"/>
</a>
</g>
</g>
<!-- Node28 -->
<g id="Node000028" class="node">
<title>Node28</title>
<g id="a_Node000028"><a xlink:title=" ">
<polygon fill="#e0e0e0" stroke="#999999" points="278.5,-251.5 180.75,-251.5 180.75,-232.25 278.5,-232.25 278.5,-251.5"/>
<text text-anchor="middle" x="229.62" y="-238" font-family="Helvetica,sans-Serif" font-size="10.00">internal/kalman.tpp</text>
</a>
</g>
</g>
<!-- Node5&#45;&gt;Node28 -->
<g id="edge50_Node000005_Node000028" class="edge">
<title>Node5&#45;&gt;Node28</title>
<g id="a_edge50_Node000005_Node000028"><a xlink:title=" ">
<path fill="none" stroke="#63b8ff" d="M229.62,-287.33C229.62,-280.82 229.62,-271.67 229.62,-263.37"/>
<polygon fill="#63b8ff" stroke="#63b8ff" points="233.13,-263.37 229.63,-253.37 226.13,-263.37 233.13,-263.37"/>
</a>
</g>
</g>
<!-- Node6&#45;&gt;Node7 -->
<g id="edge6_Node000006_Node000007" class="edge">
<title>Node6&#45;&gt;Node7</title>
<g id="a_edge6_Node000006_Node000007"><a xlink:title=" ">
<path fill="none" stroke="#63b8ff" d="M321.65,-170.91C327.15,-168.99 333.04,-167.13 338.62,-165.75 425.17,-144.4 527.86,-132.18 591.39,-126.1"/>
<polygon fill="#63b8ff" stroke="#63b8ff" points="591.65,-129.59 601.28,-125.17 591,-122.62 591.65,-129.59"/>
</a>
</g>
</g>
<!-- Node10 -->
<g id="Node000010" class="node">
<title>Node10</title>
<g id="a_Node000010"><a xlink:title=" ">
<polygon fill="#e0e0e0" stroke="#999999" points="411.75,-19.25 363.5,-19.25 363.5,0 411.75,0 411.75,-19.25"/>
<text text-anchor="middle" x="387.62" y="-5.75" font-family="Helvetica,sans-Serif" font-size="10.00">cstddef</text>
</a>
</g>
</g>
<!-- Node6&#45;&gt;Node10 -->
<g id="edge14_Node000006_Node000010" class="edge">
<title>Node6&#45;&gt;Node10</title>
<g id="a_edge14_Node000006_Node000010"><a xlink:title=" ">
<path fill="none" stroke="#63b8ff" d="M305.99,-170.96C319.99,-153.38 350.65,-112.93 368.62,-74.5 375.24,-60.36 380.16,-43.39 383.33,-30.49"/>
<polygon fill="#63b8ff" stroke="#63b8ff" points="386.66,-31.61 385.5,-21.08 379.84,-30.04 386.66,-31.61"/>
</a>
</g>
</g>
<!-- Node11 -->
<g id="Node000011" class="node">
<title>Node11</title>
<g id="a_Node000011"><a xlink:title=" ">
<polygon fill="#e0e0e0" stroke="#999999" points="970.12,-19.25 933.12,-19.25 933.12,0 970.12,0 970.12,-19.25"/>
<text text-anchor="middle" x="951.62" y="-5.75" font-family="Helvetica,sans-Serif" font-size="10.00">tuple</text>
</a>
</g>
</g>
<!-- Node6&#45;&gt;Node11 -->
<g id="edge16_Node000006_Node000011" class="edge">
<title>Node6&#45;&gt;Node11</title>
<g id="a_edge16_Node000006_Node000011"><a xlink:title=" ">
<path fill="none" stroke="#63b8ff" d="M319.03,-170.89C350.02,-157.17 410.94,-130.67 463.62,-110.5 533.88,-83.61 550.44,-72.68 623.62,-55.25 731.66,-29.51 863.5,-17.2 921.64,-12.72"/>
<polygon fill="#63b8ff" stroke="#63b8ff" points="921.67,-16.22 931.38,-11.99 921.15,-9.24 921.67,-16.22"/>
</a>
</g>
</g>
<!-- Node13 -->
<g id="Node000013" class="node">
<title>Node13</title>
<g id="a_Node000013"><a xlink:title=" ">
<polygon fill="#e0e0e0" stroke="#999999" points="320.5,-129.75 276.75,-129.75 276.75,-110.5 320.5,-110.5 320.5,-129.75"/>
<text text-anchor="middle" x="298.62" y="-116.25" font-family="Helvetica,sans-Serif" font-size="10.00">format</text>
</a>
</g>
</g>
<!-- Node6&#45;&gt;Node13 -->
<g id="edge15_Node000006_Node000013" class="edge">
<title>Node6&#45;&gt;Node13</title>
<g id="a_edge15_Node000006_Node000013"><a xlink:title=" ">
<path fill="none" stroke="#63b8ff" d="M298.62,-171.06C298.62,-163.28 298.62,-151.7 298.62,-141.66"/>
<polygon fill="#63b8ff" stroke="#63b8ff" points="302.13,-141.66 298.63,-131.66 295.13,-141.66 302.13,-141.66"/>
</a>
</g>
</g>
<!-- Node8 -->
<g id="Node000008" class="node">
<title>Node8</title>
<g id="a_Node000008"><a xlink:href="internal_2utility_8hpp.xhtml" target="_top" xlink:title=" ">
<polygon fill="white" stroke="#666666" points="359.12,-74.5 268.12,-74.5 268.12,-55.25 359.12,-55.25 359.12,-74.5"/>
<text text-anchor="middle" x="313.62" y="-61" font-family="Helvetica,sans-Serif" font-size="10.00">internal/utility.hpp</text>
</a>
</g>
</g>
<!-- Node7&#45;&gt;Node8 -->
<g id="edge7_Node000007_Node000008" class="edge">
<title>Node7&#45;&gt;Node8</title>
<g id="a_edge7_Node000007_Node000008"><a xlink:title=" ">
<path fill="none" stroke="#63b8ff" d="M602.84,-111.44C541.35,-101.75 435.86,-85.13 370.7,-74.87"/>
<polygon fill="#63b8ff" stroke="#63b8ff" points="371.33,-71.42 360.91,-73.32 370.25,-78.34 371.33,-71.42"/>
</a>
</g>
</g>
<!-- Node7&#45;&gt;Node10 -->
<g id="edge12_Node000007_Node000010" class="edge">
<title>Node7&#45;&gt;Node10</title>
<g id="a_edge12_Node000007_Node000010"><a xlink:title=" ">
<path fill="none" stroke="#63b8ff" d="M629.57,-110.06C583.08,-90.95 474.82,-46.46 420.27,-24.04"/>
<polygon fill="#63b8ff" stroke="#63b8ff" points="421.78,-20.88 411.2,-20.31 419.12,-27.35 421.78,-20.88"/>
</a>
</g>
</g>
<!-- Node12 -->
<g id="Node000012" class="node">
<title>Node12</title>
<g id="a_Node000012"><a xlink:title=" ">
<polygon fill="#e0e0e0" stroke="#999999" points="670.88,-74.5 632.38,-74.5 632.38,-55.25 670.88,-55.25 670.88,-74.5"/>
<text text-anchor="middle" x="651.62" y="-61" font-family="Helvetica,sans-Serif" font-size="10.00">utility</text>
</a>
</g>
</g>
<!-- Node7&#45;&gt;Node12 -->
<g id="edge13_Node000007_Node000012" class="edge">
<title>Node7&#45;&gt;Node12</title>
<g id="a_edge13_Node000007_Node000012"><a xlink:title=" ">
<path fill="none" stroke="#63b8ff" d="M651.62,-110.33C651.62,-103.82 651.62,-94.67 651.62,-86.37"/>
<polygon fill="#63b8ff" stroke="#63b8ff" points="655.13,-86.37 651.63,-76.37 648.13,-86.37 655.13,-86.37"/>
</a>
</g>
</g>
<!-- Node8&#45;&gt;Node4 -->
<g id="edge11_Node000008_Node000004" class="edge">
<title>Node8&#45;&gt;Node4</title>
<g id="a_edge11_Node000008_Node000004"><a xlink:title=" ">
<path fill="none" stroke="#63b8ff" d="M291.4,-54.84C270.61,-46.39 239.28,-33.65 215.57,-24.02"/>
<polygon fill="#63b8ff" stroke="#63b8ff" points="216.94,-20.8 206.36,-20.27 214.3,-27.28 216.94,-20.8"/>
</a>
</g>
</g>
<!-- Node9 -->
<g id="Node000009" class="node">
<title>Node9</title>
<g id="a_Node000009"><a xlink:title=" ">
<polygon fill="#e0e0e0" stroke="#999999" points="323.5,-19.25 267.75,-19.25 267.75,0 323.5,0 323.5,-19.25"/>
<text text-anchor="middle" x="295.62" y="-5.75" font-family="Helvetica,sans-Serif" font-size="10.00">concepts</text>
</a>
</g>
</g>
<!-- Node8&#45;&gt;Node9 -->
<g id="edge8_Node000008_Node000009" class="edge">
<title>Node8&#45;&gt;Node9</title>
<g id="a_edge8_Node000008_Node000009"><a xlink:title=" ">
<path fill="none" stroke="#63b8ff" d="M310.65,-55.08C308.37,-48.34 305.14,-38.77 302.26,-30.24"/>
<polygon fill="#63b8ff" stroke="#63b8ff" points="305.66,-29.4 299.15,-21.04 299.03,-31.64 305.66,-29.4"/>
</a>
</g>
</g>
<!-- Node8&#45;&gt;Node10 -->
<g id="edge9_Node000008_Node000010" class="edge">
<title>Node8&#45;&gt;Node10</title>
<g id="a_edge9_Node000008_Node000010"><a xlink:title=" ">
<path fill="none" stroke="#63b8ff" d="M326.18,-54.84C337.09,-46.99 353.13,-35.45 366.09,-26.12"/>
<polygon fill="#63b8ff" stroke="#63b8ff" points="367.96,-29.09 374.03,-20.41 363.87,-23.41 367.96,-29.09"/>
</a>
</g>
</g>
<!-- Node8&#45;&gt;Node11 -->
<g id="edge10_Node000008_Node000011" class="edge">
<title>Node8&#45;&gt;Node11</title>
<g id="a_edge10_Node000008_Node000011"><a xlink:title=" ">
<path fill="none" stroke="#63b8ff" d="M359.51,-60.05C482.78,-49.76 818.78,-21.71 921.43,-13.15"/>
<polygon fill="#63b8ff" stroke="#63b8ff" points="921.58,-16.64 931.26,-12.33 921,-9.67 921.58,-16.64"/>
</a>
</g>
</g>
<!-- Node14&#45;&gt;Node4 -->
<g id="edge46_Node000014_Node000004" class="edge">
<title>Node14&#45;&gt;Node4</title>
<g id="a_edge46_Node000014_Node000004"><a xlink:title=" ">
<path fill="none" stroke="#63b8ff" d="M643.5,-239.17C531.89,-234.85 266.47,-221.97 235.62,-196.25 185.78,-154.69 181.02,-69.8 181.65,-30.9"/>
<polygon fill="#63b8ff" stroke="#63b8ff" points="185.15,-31.03 181.98,-20.92 178.16,-30.8 185.15,-31.03"/>
</a>
</g>
</g>
<!-- Node14&#45;&gt;Node9 -->
<g id="edge45_Node000014_Node000009" class="edge">
<title>Node14&#45;&gt;Node9</title>
<g id="a_edge45_Node000014_Node000009"><a xlink:title=" ">
<path fill="none" stroke="#63b8ff" d="M643.46,-239.45C535.25,-235.82 284.03,-224.4 258.62,-196.25 246.7,-183.04 217.89,-171.78 259.62,-55.25 263.29,-45.01 270.39,-35.39 277.31,-27.71"/>
<polygon fill="#63b8ff" stroke="#63b8ff" points="279.61,-30.37 284.1,-20.77 274.61,-25.48 279.61,-30.37"/>
</a>
</g>
</g>
<!-- Node15 -->
<g id="Node000015" class="node">
<title>Node15</title>
<g id="a_Node000015"><a xlink:href="type_8hpp.xhtml" target="_top" xlink:title=" ">
<polygon fill="white" stroke="#666666" points="474.12,-190.62 347.12,-190.62 347.12,-171.38 474.12,-171.38 474.12,-190.62"/>
<text text-anchor="middle" x="410.62" y="-177.12" font-family="Helvetica,sans-Serif" font-size="10.00">fcarouge/internal/type.hpp</text>
</a>
</g>
</g>
<!-- Node14&#45;&gt;Node15 -->
<g id="edge18_Node000014_Node000015" class="edge">
<title>Node14&#45;&gt;Node15</title>
<g id="a_edge18_Node000014_Node000015"><a xlink:title=" ">
<path fill="none" stroke="#63b8ff" d="M649.18,-231.8C599.71,-221.48 518.8,-204.58 465.14,-193.38"/>
<polygon fill="#63b8ff" stroke="#63b8ff" points="466.1,-190.01 455.6,-191.39 464.67,-196.86 466.1,-190.01"/>
</a>
</g>
</g>
<!-- Node17 -->
<g id="Node000017" class="node">
<title>Node17</title>
<g id="a_Node000017"><a xlink:href="x__z__p__q__r__h__f_8hpp.xhtml" target="_top" xlink:title=" ">
<polygon fill="white" stroke="#666666" points="626.38,-196.25 530.88,-196.25 530.88,-165.75 626.38,-165.75 626.38,-196.25"/>
<text text-anchor="start" x="538.88" y="-182.75" font-family="Helvetica,sans-Serif" font-size="10.00">fcarouge/internal/x</text>
<text text-anchor="middle" x="578.62" y="-171.5" font-family="Helvetica,sans-Serif" font-size="10.00">_z_p_q_r_h_f.hpp</text>
</a>
</g>
</g>
<!-- Node14&#45;&gt;Node17 -->
<g id="edge22_Node000014_Node000017" class="edge">
<title>Node14&#45;&gt;Node17</title>
<g id="a_edge22_Node000014_Node000017"><a xlink:title=" ">
<path fill="none" stroke="#63b8ff" d="M675.31,-231.93C659.82,-223.93 636.57,-211.93 616.76,-201.69"/>
<polygon fill="#63b8ff" stroke="#63b8ff" points="618.6,-198.71 608.11,-197.23 615.39,-204.93 618.6,-198.71"/>
</a>
</g>
</g>
<!-- Node18 -->
<g id="Node000018" class="node">
<title>Node18</title>
<g id="a_Node000018"><a xlink:href="x__z__p__q__r__hh__us__ps_8hpp.xhtml" target="_top" xlink:title=" ">
<polygon fill="white" stroke="#666666" points="1376.75,-196.25 1256.5,-196.25 1256.5,-165.75 1376.75,-165.75 1376.75,-196.25"/>
<text text-anchor="start" x="1264.5" y="-182.75" font-family="Helvetica,sans-Serif" font-size="10.00">fcarouge/internal/x</text>
<text text-anchor="middle" x="1316.62" y="-171.5" font-family="Helvetica,sans-Serif" font-size="10.00">_z_p_q_r_hh_us_ps.hpp</text>
</a>
</g>
</g>
<!-- Node14&#45;&gt;Node18 -->
<g id="edge24_Node000014_Node000018" class="edge">
<title>Node14&#45;&gt;Node18</title>
<g id="a_edge24_Node000014_Node000018"><a xlink:title=" ">
<path fill="none" stroke="#63b8ff" d="M741.85,-238.96C837.13,-234.81 1053.53,-223.23 1245,-196.51"/>
<polygon fill="#63b8ff" stroke="#63b8ff" points="1245.21,-200.01 1254.62,-195.15 1244.23,-193.08 1245.21,-200.01"/>
</a>
</g>
</g>
<!-- Node21 -->
<g id="Node000021" class="node">
<title>Node21</title>
<g id="a_Node000021"><a xlink:href="x__z__p__qq__rr__f_8hpp.xhtml" target="_top" xlink:title=" ">
<polygon fill="white" stroke="#666666" points="968.38,-196.25 872.88,-196.25 872.88,-165.75 968.38,-165.75 968.38,-196.25"/>
<text text-anchor="start" x="880.88" y="-182.75" font-family="Helvetica,sans-Serif" font-size="10.00">fcarouge/internal/x</text>
<text text-anchor="middle" x="920.62" y="-171.5" font-family="Helvetica,sans-Serif" font-size="10.00">_z_p_qq_rr_f.hpp</text>
</a>
</g>
</g>
<!-- Node14&#45;&gt;Node21 -->
<g id="edge29_Node000014_Node000021" class="edge">
<title>Node14&#45;&gt;Node21</title>
<g id="a_edge29_Node000014_Node000021"><a xlink:title=" ">
<path fill="none" stroke="#63b8ff" d="M727.75,-231.8C763.41,-222.6 819.27,-208.17 861.72,-197.21"/>
<polygon fill="#63b8ff" stroke="#63b8ff" points="862.48,-200.63 871.28,-194.74 860.73,-193.85 862.48,-200.63"/>
</a>
</g>
</g>
<!-- Node22 -->
<g id="Node000022" class="node">
<title>Node22</title>
<g id="a_Node000022"><a xlink:href="x__z__p__r_8hpp.xhtml" target="_top" xlink:title=" ">
<polygon fill="white" stroke="#666666" points="740.38,-196.25 644.88,-196.25 644.88,-165.75 740.38,-165.75 740.38,-196.25"/>
<text text-anchor="start" x="652.88" y="-182.75" font-family="Helvetica,sans-Serif" font-size="10.00">fcarouge/internal/x</text>
<text text-anchor="middle" x="692.62" y="-171.5" font-family="Helvetica,sans-Serif" font-size="10.00">_z_p_r.hpp</text>
</a>
</g>
</g>
<!-- Node14&#45;&gt;Node22 -->
<g id="edge33_Node000014_Node000022" class="edge">
<title>Node14&#45;&gt;Node22</title>
<g id="a_edge33_Node000014_Node000022"><a xlink:title=" ">
<path fill="none" stroke="#63b8ff" d="M692.62,-231.93C692.62,-225.48 692.62,-216.41 692.62,-207.76"/>
<polygon fill="#63b8ff" stroke="#63b8ff" points="696.13,-208.05 692.63,-198.05 689.13,-208.05 696.13,-208.05"/>
</a>
</g>
</g>
<!-- Node23 -->
<g id="Node000023" class="node">
<title>Node23</title>
<g id="a_Node000023"><a xlink:href="x__z__p__r__f_8hpp.xhtml" target="_top" xlink:title=" ">
<polygon fill="white" stroke="#666666" points="854.38,-196.25 758.88,-196.25 758.88,-165.75 854.38,-165.75 854.38,-196.25"/>
<text text-anchor="start" x="766.88" y="-182.75" font-family="Helvetica,sans-Serif" font-size="10.00">fcarouge/internal/x</text>
<text text-anchor="middle" x="806.62" y="-171.5" font-family="Helvetica,sans-Serif" font-size="10.00">_z_p_r_f.hpp</text>
</a>
</g>
</g>
<!-- Node14&#45;&gt;Node23 -->
<g id="edge35_Node000014_Node000023" class="edge">
<title>Node14&#45;&gt;Node23</title>
<g id="a_edge35_Node000014_Node000023"><a xlink:title=" ">
<path fill="none" stroke="#63b8ff" d="M709.94,-231.93C725.43,-223.93 748.68,-211.93 768.49,-201.69"/>
<polygon fill="#63b8ff" stroke="#63b8ff" points="769.86,-204.93 777.14,-197.23 766.65,-198.71 769.86,-204.93"/>
</a>
</g>
</g>
<!-- Node24 -->
<g id="Node000024" class="node">
<title>Node24</title>
<g id="a_Node000024"><a xlink:href="x__z__u__p__q__r__f__g__ps_8hpp.xhtml" target="_top" xlink:title=" ">
<polygon fill="white" stroke="#666666" points="1104.62,-196.25 986.62,-196.25 986.62,-165.75 1104.62,-165.75 1104.62,-196.25"/>
<text text-anchor="start" x="994.62" y="-182.75" font-family="Helvetica,sans-Serif" font-size="10.00">fcarouge/internal/x</text>
<text text-anchor="middle" x="1045.62" y="-171.5" font-family="Helvetica,sans-Serif" font-size="10.00">_z_u_p_q_r_f_g_ps.hpp</text>
</a>
</g>
</g>
<!-- Node14&#45;&gt;Node24 -->
<g id="edge37_Node000014_Node000024" class="edge">
<title>Node14&#45;&gt;Node24</title>
<g id="a_edge37_Node000014_Node000024"><a xlink:title=" ">
<path fill="none" stroke="#63b8ff" d="M741.93,-233.94C796.52,-226.08 887.39,-212.5 975.09,-196.66"/>
<polygon fill="#63b8ff" stroke="#63b8ff" points="975.62,-200.12 984.83,-194.89 974.37,-193.23 975.62,-200.12"/>
</a>
</g>
</g>
<!-- Node25 -->
<g id="Node000025" class="node">
<title>Node25</title>
<g id="a_Node000025"><a xlink:href="x__z__u__p__q__r__us__ps_8hpp.xhtml" target="_top" xlink:title=" ">
<polygon fill="white" stroke="#666666" points="1238.12,-196.25 1123.12,-196.25 1123.12,-165.75 1238.12,-165.75 1238.12,-196.25"/>
<text text-anchor="start" x="1131.12" y="-182.75" font-family="Helvetica,sans-Serif" font-size="10.00">fcarouge/internal/x</text>
<text text-anchor="middle" x="1180.62" y="-171.5" font-family="Helvetica,sans-Serif" font-size="10.00">_z_u_p_q_r_us_ps.hpp</text>
</a>
</g>
</g>
<!-- Node14&#45;&gt;Node25 -->
<g id="edge41_Node000014_Node000025" class="edge">
<title>Node14&#45;&gt;Node25</title>
<g id="a_edge41_Node000014_Node000025"><a xlink:title=" ">
<path fill="none" stroke="#63b8ff" d="M741.78,-237.33C818.5,-231.44 971.53,-218.22 1111.6,-196.45"/>
<polygon fill="#63b8ff" stroke="#63b8ff" points="1112.12,-199.91 1121.46,-194.9 1111.03,-193 1112.12,-199.91"/>
</a>
</g>
</g>
<!-- Node15&#45;&gt;Node4 -->
<g id="edge21_Node000015_Node000004" class="edge">
<title>Node15&#45;&gt;Node4</title>
<g id="a_edge21_Node000015_Node000004"><a xlink:title=" ">
<path fill="none" stroke="#63b8ff" d="M401.72,-171.11C387.38,-157.11 357.92,-129.53 329.62,-110.5 300.6,-90.98 288.82,-93.78 259.62,-74.5 238.02,-60.23 215.47,-40.92 200.4,-27.28"/>
<polygon fill="#63b8ff" stroke="#63b8ff" points="202.9,-24.83 193.17,-20.64 198.17,-29.98 202.9,-24.83"/>
</a>
</g>
</g>
<!-- Node15&#45;&gt;Node7 -->
<g id="edge19_Node000015_Node000007" class="edge">
<title>Node15&#45;&gt;Node7</title>
<g id="a_edge19_Node000015_Node000007"><a xlink:title=" ">
<path fill="none" stroke="#63b8ff" d="M447.75,-170.93C489.5,-160.73 557.44,-144.13 603.3,-132.93"/>
<polygon fill="#63b8ff" stroke="#63b8ff" points="604.1,-136.34 612.98,-130.56 602.44,-129.54 604.1,-136.34"/>
</a>
</g>
</g>
<!-- Node16 -->
<g id="Node000016" class="node">
<title>Node16</title>
<g id="a_Node000016"><a xlink:title=" ">
<polygon fill="#e0e0e0" stroke="#999999" points="544.38,-129.75 472.88,-129.75 472.88,-110.5 544.38,-110.5 544.38,-129.75"/>
<text text-anchor="middle" x="508.62" y="-116.25" font-family="Helvetica,sans-Serif" font-size="10.00">initializer_list</text>
</a>
</g>
</g>
<!-- Node15&#45;&gt;Node16 -->
<g id="edge20_Node000015_Node000016" class="edge">
<title>Node15&#45;&gt;Node16</title>
<g id="a_edge20_Node000015_Node000016"><a xlink:title=" ">
<path fill="none" stroke="#63b8ff" d="M425.51,-171.06C440.98,-161.76 465.45,-147.06 483.85,-136.01"/>
<polygon fill="#63b8ff" stroke="#63b8ff" points="485.53,-139.08 492.3,-130.93 481.93,-133.08 485.53,-139.08"/>
</a>
</g>
</g>
<!-- Node17&#45;&gt;Node7 -->
<g id="edge23_Node000017_Node000007" class="edge">
<title>Node17&#45;&gt;Node7</title>
<g id="a_edge23_Node000017_Node000007"><a xlink:title=" ">
<path fill="none" stroke="#63b8ff" d="M596.67,-165.45C607.25,-156.91 620.64,-146.12 631.55,-137.31"/>
<polygon fill="#63b8ff" stroke="#63b8ff" points="633.61,-140.15 639.19,-131.15 629.21,-134.7 633.61,-140.15"/>
</a>
</g>
</g>
<!-- Node18&#45;&gt;Node7 -->
<g id="edge25_Node000018_Node000007" class="edge">
<title>Node18&#45;&gt;Node7</title>
<g id="a_edge25_Node000018_Node000007"><a xlink:title=" ">
<path fill="none" stroke="#63b8ff" d="M1256.12,-167.04C1253.25,-166.58 1250.41,-166.14 1247.62,-165.75 1052.8,-138.46 819.66,-127.11 711.81,-123.07"/>
<polygon fill="#63b8ff" stroke="#63b8ff" points="712.16,-119.58 702.04,-122.71 711.9,-126.57 712.16,-119.58"/>
</a>
</g>
</g>
<!-- Node18&#45;&gt;Node11 -->
<g id="edge28_Node000018_Node000011" class="edge">
<title>Node18&#45;&gt;Node11</title>
<g id="a_edge28_Node000018_Node000011"><a xlink:title=" ">
<path fill="none" stroke="#63b8ff" d="M1298.11,-165.31C1264.72,-139.48 1191.38,-85.81 1121.62,-55.25 1074.75,-34.71 1016.32,-21.93 981.6,-15.56"/>
<polygon fill="#63b8ff" stroke="#63b8ff" points="982.32,-12.13 971.86,-13.83 981.1,-19.02 982.32,-12.13"/>
</a>
</g>
</g>
<!-- Node19 -->
<g id="Node000019" class="node">
<title>Node19</title>
<g id="a_Node000019"><a xlink:href="function_8hpp.xhtml" target="_top" xlink:title=" ">
<polygon fill="white" stroke="#666666" points="1097.88,-129.75 1029.38,-129.75 1029.38,-110.5 1097.88,-110.5 1097.88,-129.75"/>
<text text-anchor="middle" x="1063.62" y="-116.25" font-family="Helvetica,sans-Serif" font-size="10.00">function.hpp</text>
</a>
</g>
</g>
<!-- Node18&#45;&gt;Node19 -->
<g id="edge26_Node000018_Node000019" class="edge">
<title>Node18&#45;&gt;Node19</title>
<g id="a_edge26_Node000018_Node000019"><a xlink:title=" ">
<path fill="none" stroke="#63b8ff" d="M1256.03,-165.9C1210.86,-155.39 1150.15,-141.26 1109.09,-131.71"/>
<polygon fill="#63b8ff" stroke="#63b8ff" points="1110.07,-128.34 1099.54,-129.48 1108.49,-135.16 1110.07,-128.34"/>
</a>
</g>
</g>
<!-- Node20 -->
<g id="Node000020" class="node">
<title>Node20</title>
<g id="a_Node000020"><a xlink:title=" ">
<polygon fill="#e0e0e0" stroke="#999999" points="1088.88,-74.5 1038.38,-74.5 1038.38,-55.25 1088.88,-55.25 1088.88,-74.5"/>
<text text-anchor="middle" x="1063.62" y="-61" font-family="Helvetica,sans-Serif" font-size="10.00">memory</text>
</a>
</g>
</g>
<!-- Node19&#45;&gt;Node20 -->
<g id="edge27_Node000019_Node000020" class="edge">
<title>Node19&#45;&gt;Node20</title>
<g id="a_edge27_Node000019_Node000020"><a xlink:title=" ">
<path fill="none" stroke="#63b8ff" d="M1063.62,-110.33C1063.62,-103.82 1063.62,-94.67 1063.62,-86.37"/>
<polygon fill="#63b8ff" stroke="#63b8ff" points="1067.13,-86.37 1063.63,-76.37 1060.13,-86.37 1067.13,-86.37"/>
</a>
</g>
</g>
<!-- Node21&#45;&gt;Node7 -->
<g id="edge30_Node000021_Node000007" class="edge">
<title>Node21&#45;&gt;Node7</title>
<g id="a_edge30_Node000021_Node000007"><a xlink:title=" ">
<path fill="none" stroke="#63b8ff" d="M872.45,-167.82C869.47,-167.11 866.51,-166.41 863.62,-165.75 811.14,-153.67 751.03,-141.14 708.26,-132.44"/>
<polygon fill="#63b8ff" stroke="#63b8ff" points="709.2,-129.07 698.71,-130.51 707.81,-135.93 709.2,-129.07"/>
</a>
</g>
</g>
<!-- Node21&#45;&gt;Node11 -->
<g id="edge32_Node000021_Node000011" class="edge">
<title>Node21&#45;&gt;Node11</title>
<g id="a_edge32_Node000021_Node000011"><a xlink:title=" ">
<path fill="none" stroke="#63b8ff" d="M923.32,-165.27C928.88,-134.87 941.64,-65.19 947.95,-30.71"/>
<polygon fill="#63b8ff" stroke="#63b8ff" points="951.33,-31.69 949.69,-21.22 944.44,-30.43 951.33,-31.69"/>
</a>
</g>
</g>
<!-- Node21&#45;&gt;Node19 -->
<g id="edge31_Node000021_Node000019" class="edge">
<title>Node21&#45;&gt;Node19</title>
<g id="a_edge31_Node000021_Node000019"><a xlink:title=" ">
<path fill="none" stroke="#63b8ff" d="M956.34,-165.3C979.27,-155.85 1008.81,-143.69 1031.09,-134.52"/>
<polygon fill="#63b8ff" stroke="#63b8ff" points="1032.38,-137.77 1040.3,-130.73 1029.72,-131.3 1032.38,-137.77"/>
</a>
</g>
</g>
<!-- Node22&#45;&gt;Node7 -->
<g id="edge34_Node000022_Node000007" class="edge">
<title>Node22&#45;&gt;Node7</title>
<g id="a_edge34_Node000022_Node000007"><a xlink:title=" ">
<path fill="none" stroke="#63b8ff" d="M682.49,-165.45C677.03,-157.6 670.23,-147.85 664.41,-139.49"/>
<polygon fill="#63b8ff" stroke="#63b8ff" points="667.4,-137.65 658.81,-131.44 661.65,-141.65 667.4,-137.65"/>
</a>
</g>
</g>
<!-- Node23&#45;&gt;Node7 -->
<g id="edge36_Node000023_Node000007" class="edge">
<title>Node23&#45;&gt;Node7</title>
<g id="a_edge36_Node000023_Node000007"><a xlink:title=" ">
<path fill="none" stroke="#63b8ff" d="M767.91,-165.3C742.72,-155.73 710.16,-143.36 685.9,-134.14"/>
<polygon fill="#63b8ff" stroke="#63b8ff" points="687.4,-130.97 676.81,-130.69 684.92,-137.51 687.4,-130.97"/>
</a>
</g>
</g>
<!-- Node24&#45;&gt;Node7 -->
<g id="edge38_Node000024_Node000007" class="edge">
<title>Node24&#45;&gt;Node7</title>
<g id="a_edge38_Node000024_Node000007"><a xlink:title=" ">
<path fill="none" stroke="#63b8ff" d="M986.33,-167.32C983.39,-166.77 980.48,-166.24 977.62,-165.75 885.23,-149.77 777.29,-135.93 711.73,-128.06"/>
<polygon fill="#63b8ff" stroke="#63b8ff" points="712.24,-124.6 701.9,-126.89 711.41,-131.55 712.24,-124.6"/>
</a>
</g>
</g>
<!-- Node24&#45;&gt;Node11 -->
<g id="edge40_Node000024_Node000011" class="edge">
<title>Node24&#45;&gt;Node11</title>
<g id="a_edge40_Node000024_Node000011"><a xlink:title=" ">
<path fill="none" stroke="#63b8ff" d="M1037.45,-165.27C1020.36,-134.47 980.89,-63.35 962.03,-29.37"/>
<polygon fill="#63b8ff" stroke="#63b8ff" points="965.33,-28.1 957.42,-21.06 959.21,-31.5 965.33,-28.1"/>
</a>
</g>
</g>
<!-- Node24&#45;&gt;Node19 -->
<g id="edge39_Node000024_Node000019" class="edge">
<title>Node24&#45;&gt;Node19</title>
<g id="a_edge39_Node000024_Node000019"><a xlink:title=" ">
<path fill="none" stroke="#63b8ff" d="M1050.07,-165.45C1052.31,-158.12 1055.06,-149.12 1057.5,-141.16"/>
<polygon fill="#63b8ff" stroke="#63b8ff" points="1060.83,-142.24 1060.41,-131.65 1054.14,-140.19 1060.83,-142.24"/>
</a>
</g>
</g>
<!-- Node25&#45;&gt;Node7 -->
<g id="edge42_Node000025_Node000007" class="edge">
<title>Node25&#45;&gt;Node7</title>
<g id="a_edge42_Node000025_Node000007"><a xlink:title=" ">
<path fill="none" stroke="#63b8ff" d="M1122.96,-167.3C1119.81,-166.74 1116.68,-166.22 1113.62,-165.75 970.33,-143.66 800.25,-130.58 711.82,-124.75"/>
<polygon fill="#63b8ff" stroke="#63b8ff" points="712.12,-121.27 701.92,-124.11 711.67,-128.25 712.12,-121.27"/>
</a>
</g>
</g>
<!-- Node25&#45;&gt;Node11 -->
<g id="edge44_Node000025_Node000011" class="edge">
<title>Node25&#45;&gt;Node11</title>
<g id="a_edge44_Node000025_Node000011"><a xlink:title=" ">
<path fill="none" stroke="#63b8ff" d="M1174.82,-165.29C1163.78,-139.19 1137.26,-84.77 1097.62,-55.25 1062.94,-29.42 1013.17,-18.39 981.62,-13.78"/>
<polygon fill="#63b8ff" stroke="#63b8ff" points="982.37,-10.35 971.99,-12.51 981.45,-17.29 982.37,-10.35"/>
</a>
</g>
</g>
<!-- Node25&#45;&gt;Node19 -->
<g id="edge43_Node000025_Node000019" class="edge">
<title>Node25&#45;&gt;Node19</title>
<g id="a_edge43_Node000025_Node000019"><a xlink:title=" ">
<path fill="none" stroke="#63b8ff" d="M1151.4,-165.3C1133.16,-156.11 1109.79,-144.36 1091.75,-135.28"/>
<polygon fill="#63b8ff" stroke="#63b8ff" points="1093.43,-132.2 1082.92,-130.83 1090.28,-138.46 1093.43,-132.2"/>
</a>
</g>
</g>
<!-- Node27 -->
<g id="Node000027" class="node">
<title>Node27</title>
<g id="a_Node000027"><a xlink:title=" ">
<polygon fill="#e0e0e0" stroke="#999999" points="136,-190.62 101.25,-190.62 101.25,-171.38 136,-171.38 136,-190.62"/>
<text text-anchor="middle" x="118.62" y="-177.12" font-family="Helvetica,sans-Serif" font-size="10.00">print</text>
</a>
</g>
</g>
<!-- Node26&#45;&gt;Node27 -->
<g id="edge48_Node000026_Node000027" class="edge">
<title>Node26&#45;&gt;Node27</title>
<g id="a_edge48_Node000026_Node000027"><a xlink:title=" ">
<path fill="none" stroke="#63b8ff" d="M130.5,-231.93C128.63,-224.07 125.84,-212.32 123.43,-202.2"/>
<polygon fill="#63b8ff" stroke="#63b8ff" points="126.84,-201.42 121.12,-192.5 120.03,-203.04 126.84,-201.42"/>
</a>
</g>
</g>
</g>
</svg>

<g id="navigator" transform="translate(0 0)" fill="#404254">
  <rect fill="#f2f5e9" fill-opacity="0.5" stroke="#606060" stroke-width=".5" x="0" y="0" width="60" height="60"/>
  <use id="zoomplus" xlink:href="#zoomPlus" x="17" y="9" onmousedown="handleZoom(evt,'in')"/>
  <use id="zoomminus" xlink:href="#zoomMin" x="42" y="9" onmousedown="handleZoom(evt,'out')"/>
  <use id="reset" xlink:href="#resetDef" x="30" y="36" onmousedown="handleReset()"/>
   <use id="arrowup" xlink:href="#arrowUp" x="0" y="0" onmousedown="handlePan(0,-1)"/>
  <use id="arrowright" xlink:href="#arrowRight" x="0" y="0" onmousedown="handlePan(1,0)"/>
  <use id="arrowdown" xlink:href="#arrowDown" x="0" y="0" onmousedown="handlePan(0,1)"/>
  <use id="arrowleft" xlink:href="#arrowLeft" x="0" y="0" onmousedown="handlePan(-1,0)"/>
</g>
<svg viewBox="0 0 15 15" width="100%" height="30px" preserveAspectRatio="xMaxYMin meet">
 <g id="arrow_out" transform="scale(0.3 0.3)">
  <a xlink:href="predict__1x1x1_8cpp__incl_org.svg" target="_base">
   <rect id="button" ry="5" rx="5" y="6" x="6" height="38" width="38"
        fill="#f2f5e9" fill-opacity="0.5" stroke="#606060" stroke-width="1.0"/>
   <path id="arrow"
     d="M 11.500037,31.436501 C 11.940474,20.09759 22.043105,11.32322 32.158766,21.979434 L 37.068811,17.246167 C 37.068811,17.246167 37.088388,32 37.088388,32 L 22.160133,31.978069 C 22.160133,31.978069 26.997745,27.140456 26.997745,27.140456 C 18.528582,18.264221 13.291696,25.230495 11.500037,31.436501 z"
     style="fill:#404040;"/>
  </a>
 </g>
</svg>

<style type='text/css'>
<![CDATA[
[data-mouse-over-selected='false'] { opacity: 0.7; }
[data-mouse-over-selected='true']  { opacity: 1.0; }
]]>
</style>
<script type="application/ecmascript"><![CDATA[
document.addEventListener('DOMContentLoaded', (event) => {
  highlightEdges();
  highlightAdjacentNodes();
});
]]></script>
</svg>
