<?xml version="1.0" encoding="UTF-8" standalone="no"?>
<!DOCTYPE svg PUBLIC "-//W3C//DTD SVG 1.1//EN"
 "http://www.w3.org/Graphics/SVG/1.1/DTD/svg11.dtd">
<!-- Generated by graphviz version 12.2.0 (20241103.1931)
 -->
<!-- Title: /github/workspace/benchmark/predict_linalg_x1x.cpp Pages: 1 -->
<svg width="1425pt" height="381pt"
 viewBox="0.00 0.00 1424.99 381.25" xmlns="http://www.w3.org/2000/svg" xmlns:xlink="http://www.w3.org/1999/xlink">
<g id="graph0" class="graph" transform="scale(1 1) rotate(0) translate(4 377.25)">
<title>/github/workspace/benchmark/predict_linalg_x1x.cpp</title>
<!-- Node1 -->
<g id="Node000001" class="node">
<title>Node1</title>
<g id="a_Node000001"><a xlink:title=" ">
<polygon fill="#999999" stroke="#666666" points="913.88,-373.25 767.38,-373.25 767.38,-342.75 913.88,-342.75 913.88,-373.25"/>
<text text-anchor="start" x="775.38" y="-359.75" font-family="Helvetica,sans-Serif" font-size="10.00">/github/workspace/benchmark</text>
<text text-anchor="middle" x="840.62" y="-348.5" font-family="Helvetica,sans-Serif" font-size="10.00">/predict_linalg_x1x.cpp</text>
</a>
</g>
</g>
<!-- Node2 -->
<g id="Node000002" class="node">
<title>Node2</title>
<g id="a_Node000002"><a xlink:href="benchmark_8hpp.xhtml" target="_top" xlink:title="Benchmarking support.">
<polygon fill="white" stroke="#666666" points="115.62,-306.75 33.62,-306.75 33.62,-287.5 115.62,-287.5 115.62,-306.75"/>
<text text-anchor="middle" x="74.62" y="-293.25" font-family="Helvetica,sans-Serif" font-size="10.00">benchmark.hpp</text>
</a>
</g>
</g>
<!-- Node1&#45;&gt;Node2 -->
<g id="edge1_Node000001_Node000002" class="edge">
<title>Node1&#45;&gt;Node2</title>
<g id="a_edge1_Node000001_Node000002"><a xlink:title=" ">
<path fill="none" stroke="#63b8ff" d="M767,-353.86C637.7,-347.89 361.55,-333.08 129.62,-306.75 128.8,-306.66 127.96,-306.56 127.12,-306.46"/>
<polygon fill="#63b8ff" stroke="#63b8ff" points="127.89,-303.03 117.52,-305.2 126.98,-309.97 127.89,-303.03"/>
</a>
</g>
</g>
<!-- Node3 -->
<g id="Node000003" class="node">
<title>Node3</title>
<g id="a_Node000003"><a xlink:title=" ">
<polygon fill="#e0e0e0" stroke="#999999" points="45.25,-251.5 0,-251.5 0,-232.25 45.25,-232.25 45.25,-251.5"/>
<text text-anchor="middle" x="22.62" y="-238" font-family="Helvetica,sans-Serif" font-size="10.00">chrono</text>
</a>
</g>
</g>
<!-- Node1&#45;&gt;Node3 -->
<g id="edge55_Node000001_Node000003" class="edge">
<title>Node1&#45;&gt;Node3</title>
<g id="a_edge55_Node000001_Node000003"><a xlink:title=" ">
<path fill="none" stroke="#63b8ff" d="M766.97,-355.13C571.07,-349.79 50.28,-333.19 24.62,-306.75 13.63,-295.42 14.24,-276.95 16.95,-262.77"/>
<polygon fill="#63b8ff" stroke="#63b8ff" points="20.32,-263.73 19.28,-253.18 13.52,-262.08 20.32,-263.73"/>
</a>
</g>
</g>
<!-- Node5 -->
<g id="Node000005" class="node">
<title>Node5</title>
<g id="a_Node000005"><a xlink:href="internal_2utility_8hpp.xhtml" target="_top" xlink:title=" ">
<polygon fill="white" stroke="#666666" points="467.38,-74.5 335.88,-74.5 335.88,-55.25 467.38,-55.25 467.38,-74.5"/>
<text text-anchor="middle" x="401.62" y="-61" font-family="Helvetica,sans-Serif" font-size="10.00">fcarouge/internal/utility.hpp</text>
</a>
</g>
</g>
<!-- Node1&#45;&gt;Node5 -->
<g id="edge4_Node000001_Node000005" class="edge">
<title>Node1&#45;&gt;Node5</title>
<g id="a_edge4_Node000001_Node000005"><a xlink:title=" ">
<path fill="none" stroke="#63b8ff" d="M767.07,-353.55C600.41,-343.77 204.56,-308.84 154.62,-196.25 121.33,-121.16 240.24,-88.36 324.51,-74.76"/>
<polygon fill="#63b8ff" stroke="#63b8ff" points="324.79,-78.26 334.14,-73.28 323.72,-71.34 324.79,-78.26"/>
</a>
</g>
</g>
<!-- Node7 -->
<g id="Node000007" class="node">
<title>Node7</title>
<g id="a_Node000007"><a xlink:title=" ">
<polygon fill="#e0e0e0" stroke="#999999" points="569.75,-19.25 521.5,-19.25 521.5,0 569.75,0 569.75,-19.25"/>
<text text-anchor="middle" x="545.62" y="-5.75" font-family="Helvetica,sans-Serif" font-size="10.00">cstddef</text>
</a>
</g>
</g>
<!-- Node1&#45;&gt;Node7 -->
<g id="edge57_Node000001_Node000007" class="edge">
<title>Node1&#45;&gt;Node7</title>
<g id="a_edge57_Node000001_Node000007"><a xlink:title=" ">
<path fill="none" stroke="#63b8ff" d="M773.16,-342.34C734.47,-330.87 697.59,-312.64 719.62,-287.5 822.25,-170.41 1493.5,-296.93 1409.62,-165.75 1346.59,-67.15 1283.95,-84.45 1170.62,-55.25 1057.82,-26.18 696.32,-14.52 581.2,-11.48"/>
<polygon fill="#63b8ff" stroke="#63b8ff" points="581.52,-7.99 571.43,-11.23 581.34,-14.99 581.52,-7.99"/>
</a>
</g>
</g>
<!-- Node9 -->
<g id="Node000009" class="node">
<title>Node9</title>
<g id="a_Node000009"><a xlink:href="kalman_8hpp.xhtml" target="_top" xlink:title="The Kalman filter class and library top&#45;level header.">
<polygon fill="white" stroke="#666666" points="540.62,-306.75 434.62,-306.75 434.62,-287.5 540.62,-287.5 540.62,-306.75"/>
<text text-anchor="middle" x="487.62" y="-293.25" font-family="Helvetica,sans-Serif" font-size="10.00">fcarouge/kalman.hpp</text>
</a>
</g>
</g>
<!-- Node1&#45;&gt;Node9 -->
<g id="edge9_Node000001_Node000009" class="edge">
<title>Node1&#45;&gt;Node9</title>
<g id="a_edge9_Node000001_Node000009"><a xlink:title=" ">
<path fill="none" stroke="#63b8ff" d="M767.05,-344.73C703.65,-334.16 613.01,-319.04 552.33,-308.92"/>
<polygon fill="#63b8ff" stroke="#63b8ff" points="552.92,-305.47 542.48,-307.27 551.77,-312.37 552.92,-305.47"/>
</a>
</g>
</g>
<!-- Node29 -->
<g id="Node000029" class="node">
<title>Node29</title>
<g id="a_Node000029"><a xlink:title=" ">
<polygon fill="#e0e0e0" stroke="#999999" points="825.12,-306.75 728.12,-306.75 728.12,-287.5 825.12,-287.5 825.12,-306.75"/>
<text text-anchor="middle" x="776.62" y="-293.25" font-family="Helvetica,sans-Serif" font-size="10.00">fcarouge/linalg.hpp</text>
</a>
</g>
</g>
<!-- Node1&#45;&gt;Node29 -->
<g id="edge52_Node000001_Node000029" class="edge">
<title>Node1&#45;&gt;Node29</title>
<g id="a_edge52_Node000001_Node000029"><a xlink:title=" ">
<path fill="none" stroke="#63b8ff" d="M824.8,-342.45C815.72,-334.09 804.26,-323.55 794.81,-314.85"/>
<polygon fill="#63b8ff" stroke="#63b8ff" points="797.33,-312.42 787.61,-308.23 792.6,-317.57 797.33,-312.42"/>
</a>
</g>
</g>
<!-- Node30 -->
<g id="Node000030" class="node">
<title>Node30</title>
<g id="a_Node000030"><a xlink:title=" ">
<polygon fill="#e0e0e0" stroke="#999999" points="965.88,-306.75 843.38,-306.75 843.38,-287.5 965.88,-287.5 965.88,-306.75"/>
<text text-anchor="middle" x="904.62" y="-293.25" font-family="Helvetica,sans-Serif" font-size="10.00">benchmark/benchmark.h</text>
</a>
</g>
</g>
<!-- Node1&#45;&gt;Node30 -->
<g id="edge53_Node000001_Node000030" class="edge">
<title>Node1&#45;&gt;Node30</title>
<g id="a_edge53_Node000001_Node000030"><a xlink:title=" ">
<path fill="none" stroke="#63b8ff" d="M856.45,-342.45C865.53,-334.09 876.99,-323.55 886.44,-314.85"/>
<polygon fill="#63b8ff" stroke="#63b8ff" points="888.65,-317.57 893.64,-308.23 883.92,-312.42 888.65,-317.57"/>
</a>
</g>
</g>
<!-- Node31 -->
<g id="Node000031" class="node">
<title>Node31</title>
<g id="a_Node000031"><a xlink:title=" ">
<polygon fill="#e0e0e0" stroke="#999999" points="1039.5,-306.75 983.75,-306.75 983.75,-287.5 1039.5,-287.5 1039.5,-306.75"/>
<text text-anchor="middle" x="1011.62" y="-293.25" font-family="Helvetica,sans-Serif" font-size="10.00">algorithm</text>
</a>
</g>
</g>
<!-- Node1&#45;&gt;Node31 -->
<g id="edge54_Node000001_Node000031" class="edge">
<title>Node1&#45;&gt;Node31</title>
<g id="a_edge54_Node000001_Node000031"><a xlink:title=" ">
<path fill="none" stroke="#63b8ff" d="M883.33,-342.3C911.29,-332.67 947.48,-320.21 974.28,-310.98"/>
<polygon fill="#63b8ff" stroke="#63b8ff" points="975.4,-314.3 983.72,-307.73 973.12,-307.68 975.4,-314.3"/>
</a>
</g>
</g>
<!-- Node32 -->
<g id="Node000032" class="node">
<title>Node32</title>
<g id="a_Node000032"><a xlink:title=" ">
<polygon fill="#e0e0e0" stroke="#999999" points="1100.12,-306.75 1057.12,-306.75 1057.12,-287.5 1100.12,-287.5 1100.12,-306.75"/>
<text text-anchor="middle" x="1078.62" y="-293.25" font-family="Helvetica,sans-Serif" font-size="10.00">cmath</text>
</a>
</g>
</g>
<!-- Node1&#45;&gt;Node32 -->
<g id="edge56_Node000001_Node000032" class="edge">
<title>Node1&#45;&gt;Node32</title>
<g id="a_edge56_Node000001_Node000032"><a xlink:title=" ">
<path fill="none" stroke="#63b8ff" d="M904.53,-342.31C943.11,-333.27 993.5,-321.16 1045.85,-307.41"/>
<polygon fill="#63b8ff" stroke="#63b8ff" points="1046.46,-310.87 1055.24,-304.93 1044.67,-304.1 1046.46,-310.87"/>
</a>
</g>
</g>
<!-- Node33 -->
<g id="Node000033" class="node">
<title>Node33</title>
<g id="a_Node000033"><a xlink:title=" ">
<polygon fill="#e0e0e0" stroke="#999999" points="1163.25,-306.75 1118,-306.75 1118,-287.5 1163.25,-287.5 1163.25,-306.75"/>
<text text-anchor="middle" x="1140.62" y="-293.25" font-family="Helvetica,sans-Serif" font-size="10.00">cstdint</text>
</a>
</g>
</g>
<!-- Node1&#45;&gt;Node33 -->
<g id="edge58_Node000001_Node000033" class="edge">
<title>Node1&#45;&gt;Node33</title>
<g id="a_edge58_Node000001_Node000033"><a xlink:title=" ">
<path fill="none" stroke="#63b8ff" d="M914.34,-345C965.95,-336.2 1036.71,-323.31 1106.86,-307.25"/>
<polygon fill="#63b8ff" stroke="#63b8ff" points="1107.23,-310.76 1116.18,-305.09 1105.65,-303.94 1107.23,-310.76"/>
</a>
</g>
</g>
<!-- Node34 -->
<g id="Node000034" class="node">
<title>Node34</title>
<g id="a_Node000034"><a xlink:title=" ">
<polygon fill="#e0e0e0" stroke="#999999" points="1226.25,-306.75 1181,-306.75 1181,-287.5 1226.25,-287.5 1226.25,-306.75"/>
<text text-anchor="middle" x="1203.62" y="-293.25" font-family="Helvetica,sans-Serif" font-size="10.00">cstring</text>
</a>
</g>
</g>
<!-- Node1&#45;&gt;Node34 -->
<g id="edge59_Node000001_Node000034" class="edge">
<title>Node1&#45;&gt;Node34</title>
<g id="a_edge59_Node000001_Node000034"><a xlink:title=" ">
<path fill="none" stroke="#63b8ff" d="M914.28,-348.45C979.29,-340.32 1076.78,-326.68 1169.67,-307.19"/>
<polygon fill="#63b8ff" stroke="#63b8ff" points="1170.15,-310.66 1179.2,-305.16 1168.69,-303.82 1170.15,-310.66"/>
</a>
</g>
</g>
<!-- Node35 -->
<g id="Node000035" class="node">
<title>Node35</title>
<g id="a_Node000035"><a xlink:title=" ">
<polygon fill="#e0e0e0" stroke="#999999" points="1292.75,-306.75 1244.5,-306.75 1244.5,-287.5 1292.75,-287.5 1292.75,-306.75"/>
<text text-anchor="middle" x="1268.62" y="-293.25" font-family="Helvetica,sans-Serif" font-size="10.00">random</text>
</a>
</g>
</g>
<!-- Node1&#45;&gt;Node35 -->
<g id="edge60_Node000001_Node000035" class="edge">
<title>Node1&#45;&gt;Node35</title>
<g id="a_edge60_Node000001_Node000035"><a xlink:title=" ">
<path fill="none" stroke="#63b8ff" d="M914.24,-350.5C991.42,-343.05 1116.38,-329.15 1232.94,-307.05"/>
<polygon fill="#63b8ff" stroke="#63b8ff" points="1233.55,-310.5 1242.71,-305.17 1232.23,-303.62 1233.55,-310.5"/>
</a>
</g>
</g>
<!-- Node2&#45;&gt;Node3 -->
<g id="edge2_Node000002_Node000003" class="edge">
<title>Node2&#45;&gt;Node3</title>
<g id="a_edge2_Node000002_Node000003"><a xlink:title=" ">
<path fill="none" stroke="#63b8ff" d="M66.04,-287.33C58.78,-279.9 48.17,-269.04 39.26,-259.91"/>
<polygon fill="#63b8ff" stroke="#63b8ff" points="41.95,-257.65 32.46,-252.94 36.94,-262.54 41.95,-257.65"/>
</a>
</g>
</g>
<!-- Node4 -->
<g id="Node000004" class="node">
<title>Node4</title>
<g id="a_Node000004"><a xlink:title=" ">
<polygon fill="#e0e0e0" stroke="#999999" points="294.12,-19.25 233.12,-19.25 233.12,0 294.12,0 294.12,-19.25"/>
<text text-anchor="middle" x="263.62" y="-5.75" font-family="Helvetica,sans-Serif" font-size="10.00">type_traits</text>
</a>
</g>
</g>
<!-- Node2&#45;&gt;Node4 -->
<g id="edge3_Node000002_Node000004" class="edge">
<title>Node2&#45;&gt;Node4</title>
<g id="a_edge3_Node000002_Node000004"><a xlink:title=" ">
<path fill="none" stroke="#63b8ff" d="M75.67,-287.26C77.84,-268.09 82.62,-221.33 82.62,-182 82.62,-182 82.62,-182 82.62,-119.12 82.62,-54.61 168.25,-27.52 221.72,-16.88"/>
<polygon fill="#63b8ff" stroke="#63b8ff" points="222.24,-20.35 231.43,-15.08 220.96,-13.47 222.24,-20.35"/>
</a>
</g>
</g>
<!-- Node5&#45;&gt;Node4 -->
<g id="edge8_Node000005_Node000004" class="edge">
<title>Node5&#45;&gt;Node4</title>
<g id="a_edge8_Node000005_Node000004"><a xlink:title=" ">
<path fill="none" stroke="#63b8ff" d="M378.22,-54.84C356.11,-46.31 322.71,-33.42 297.66,-23.76"/>
<polygon fill="#63b8ff" stroke="#63b8ff" points="299.15,-20.58 288.56,-20.25 296.63,-27.11 299.15,-20.58"/>
</a>
</g>
</g>
<!-- Node6 -->
<g id="Node000006" class="node">
<title>Node6</title>
<g id="a_Node000006"><a xlink:title=" ">
<polygon fill="#e0e0e0" stroke="#999999" points="417.5,-19.25 361.75,-19.25 361.75,0 417.5,0 417.5,-19.25"/>
<text text-anchor="middle" x="389.62" y="-5.75" font-family="Helvetica,sans-Serif" font-size="10.00">concepts</text>
</a>
</g>
</g>
<!-- Node5&#45;&gt;Node6 -->
<g id="edge5_Node000005_Node000006" class="edge">
<title>Node5&#45;&gt;Node6</title>
<g id="a_edge5_Node000005_Node000006"><a xlink:title=" ">
<path fill="none" stroke="#63b8ff" d="M399.64,-55.08C398.16,-48.49 396.07,-39.21 394.18,-30.82"/>
<polygon fill="#63b8ff" stroke="#63b8ff" points="397.6,-30.07 391.98,-21.09 390.77,-31.61 397.6,-30.07"/>
</a>
</g>
</g>
<!-- Node5&#45;&gt;Node7 -->
<g id="edge6_Node000005_Node000007" class="edge">
<title>Node5&#45;&gt;Node7</title>
<g id="a_edge6_Node000005_Node000007"><a xlink:title=" ">
<path fill="none" stroke="#63b8ff" d="M426.05,-54.84C449.22,-46.27 484.29,-33.31 510.46,-23.63"/>
<polygon fill="#63b8ff" stroke="#63b8ff" points="511.49,-26.98 519.66,-20.23 509.06,-20.41 511.49,-26.98"/>
</a>
</g>
</g>
<!-- Node8 -->
<g id="Node000008" class="node">
<title>Node8</title>
<g id="a_Node000008"><a xlink:title=" ">
<polygon fill="#e0e0e0" stroke="#999999" points="1025.12,-19.25 988.12,-19.25 988.12,0 1025.12,0 1025.12,-19.25"/>
<text text-anchor="middle" x="1006.62" y="-5.75" font-family="Helvetica,sans-Serif" font-size="10.00">tuple</text>
</a>
</g>
</g>
<!-- Node5&#45;&gt;Node8 -->
<g id="edge7_Node000005_Node000008" class="edge">
<title>Node5&#45;&gt;Node8</title>
<g id="a_edge7_Node000005_Node000008"><a xlink:title=" ">
<path fill="none" stroke="#63b8ff" d="M467.81,-58.05C598.1,-46.58 883.25,-21.48 976.48,-13.28"/>
<polygon fill="#63b8ff" stroke="#63b8ff" points="976.68,-16.77 986.33,-12.41 976.06,-9.8 976.68,-16.77"/>
</a>
</g>
</g>
<!-- Node10 -->
<g id="Node000010" class="node">
<title>Node10</title>
<g id="a_Node000010"><a xlink:href="format_8hpp.xhtml" target="_top" xlink:title="Formatting support for the Kalman filter.">
<polygon fill="white" stroke="#666666" points="498.5,-190.62 436.75,-190.62 436.75,-171.38 498.5,-171.38 498.5,-190.62"/>
<text text-anchor="middle" x="467.62" y="-177.12" font-family="Helvetica,sans-Serif" font-size="10.00">format.hpp</text>
</a>
</g>
</g>
<!-- Node9&#45;&gt;Node10 -->
<g id="edge10_Node000009_Node000010" class="edge">
<title>Node9&#45;&gt;Node10</title>
<g id="a_edge10_Node000009_Node000010"><a xlink:title=" ">
<path fill="none" stroke="#63b8ff" d="M444.18,-287.14C424.6,-280.69 403.29,-269.78 391.62,-251.5 376.94,-228.48 406.83,-208.19 433.33,-195.57"/>
<polygon fill="#63b8ff" stroke="#63b8ff" points="434.52,-198.87 442.21,-191.58 431.66,-192.48 434.52,-198.87"/>
</a>
</g>
</g>
<!-- Node11 -->
<g id="Node000011" class="node">
<title>Node11</title>
<g id="a_Node000011"><a xlink:href="utility_8hpp.xhtml" target="_top" xlink:title="The collection of utilities supporting the library.">
<polygon fill="white" stroke="#666666" points="762.12,-129.75 665.12,-129.75 665.12,-110.5 762.12,-110.5 762.12,-129.75"/>
<text text-anchor="middle" x="713.62" y="-116.25" font-family="Helvetica,sans-Serif" font-size="10.00">fcarouge/utility.hpp</text>
</a>
</g>
</g>
<!-- Node9&#45;&gt;Node11 -->
<g id="edge50_Node000009_Node000011" class="edge">
<title>Node9&#45;&gt;Node11</title>
<g id="a_edge50_Node000009_Node000011"><a xlink:title=" ">
<path fill="none" stroke="#63b8ff" d="M491.62,-287.24C495.67,-278.24 502.1,-263.91 507.62,-251.5 524.59,-213.42 513.92,-192.82 545.62,-165.75 562.02,-151.75 612.46,-139.48 653.83,-131.36"/>
<polygon fill="#63b8ff" stroke="#63b8ff" points="654.29,-134.84 663.46,-129.52 652.98,-127.96 654.29,-134.84"/>
</a>
</g>
</g>
<!-- Node14 -->
<g id="Node000014" class="node">
<title>Node14</title>
<g id="a_Node000014"><a xlink:href="factory_8hpp.xhtml" target="_top" xlink:title=" ">
<polygon fill="white" stroke="#666666" points="765.5,-251.5 667.75,-251.5 667.75,-232.25 765.5,-232.25 765.5,-251.5"/>
<text text-anchor="middle" x="716.62" y="-238" font-family="Helvetica,sans-Serif" font-size="10.00">internal/factory.hpp</text>
</a>
</g>
</g>
<!-- Node9&#45;&gt;Node14 -->
<g id="edge18_Node000009_Node000014" class="edge">
<title>Node9&#45;&gt;Node14</title>
<g id="a_edge18_Node000009_Node000014"><a xlink:title=" ">
<path fill="none" stroke="#63b8ff" d="M526.73,-287.03C565.35,-278.05 624.56,-264.28 666.58,-254.51"/>
<polygon fill="#63b8ff" stroke="#63b8ff" points="667.26,-257.95 676.21,-252.27 665.67,-251.13 667.26,-257.95"/>
</a>
</g>
</g>
<!-- Node26 -->
<g id="Node000026" class="node">
<title>Node26</title>
<g id="a_Node000026"><a xlink:href="printer_8hpp.xhtml" target="_top" xlink:title="Filter decoration support for printing operations.">
<polygon fill="white" stroke="#666666" points="285.12,-251.5 224.12,-251.5 224.12,-232.25 285.12,-232.25 285.12,-251.5"/>
<text text-anchor="middle" x="254.62" y="-238" font-family="Helvetica,sans-Serif" font-size="10.00">printer.hpp</text>
</a>
</g>
</g>
<!-- Node9&#45;&gt;Node26 -->
<g id="edge48_Node000009_Node000026" class="edge">
<title>Node9&#45;&gt;Node26</title>
<g id="a_edge48_Node000009_Node000026"><a xlink:title=" ">
<path fill="none" stroke="#63b8ff" d="M447.84,-287.03C405.69,-277.4 339.43,-262.26 296.5,-252.45"/>
<polygon fill="#63b8ff" stroke="#63b8ff" points="297.33,-249.04 286.8,-250.23 295.77,-255.87 297.33,-249.04"/>
</a>
</g>
</g>
<!-- Node28 -->
<g id="Node000028" class="node">
<title>Node28</title>
<g id="a_Node000028"><a xlink:title=" ">
<polygon fill="#e0e0e0" stroke="#999999" points="498.5,-251.5 400.75,-251.5 400.75,-232.25 498.5,-232.25 498.5,-251.5"/>
<text text-anchor="middle" x="449.62" y="-238" font-family="Helvetica,sans-Serif" font-size="10.00">internal/kalman.tpp</text>
</a>
</g>
</g>
<!-- Node9&#45;&gt;Node28 -->
<g id="edge51_Node000009_Node000028" class="edge">
<title>Node9&#45;&gt;Node28</title>
<g id="a_edge51_Node000009_Node000028"><a xlink:title=" ">
<path fill="none" stroke="#63b8ff" d="M481.35,-287.33C476.27,-280.21 468.93,-269.93 462.59,-261.05"/>
<polygon fill="#63b8ff" stroke="#63b8ff" points="465.57,-259.2 456.92,-253.09 459.88,-263.26 465.57,-259.2"/>
</a>
</g>
</g>
<!-- Node10&#45;&gt;Node7 -->
<g id="edge15_Node000010_Node000007" class="edge">
<title>Node10&#45;&gt;Node7</title>
<g id="a_edge15_Node000010_Node000007"><a xlink:title=" ">
<path fill="none" stroke="#63b8ff" d="M473.84,-171.02C480.49,-161.18 491.1,-144.78 498.62,-129.75 515.58,-95.89 530.78,-54.36 539.05,-30.35"/>
<polygon fill="#63b8ff" stroke="#63b8ff" points="542.34,-31.55 542.23,-20.96 535.71,-29.31 542.34,-31.55"/>
</a>
</g>
</g>
<!-- Node10&#45;&gt;Node8 -->
<g id="edge17_Node000010_Node000008" class="edge">
<title>Node10&#45;&gt;Node8</title>
<g id="a_edge17_Node000010_Node000008"><a xlink:title=" ">
<path fill="none" stroke="#63b8ff" d="M479.6,-170.9C511.26,-147.36 600.61,-84.27 685.62,-55.25 788.53,-20.12 919,-12.6 976.77,-11.02"/>
<polygon fill="#63b8ff" stroke="#63b8ff" points="976.53,-14.53 986.45,-10.8 976.37,-7.53 976.53,-14.53"/>
</a>
</g>
</g>
<!-- Node10&#45;&gt;Node11 -->
<g id="edge11_Node000010_Node000011" class="edge">
<title>Node10&#45;&gt;Node11</title>
<g id="a_edge11_Node000010_Node000011"><a xlink:title=" ">
<path fill="none" stroke="#63b8ff" d="M494.64,-171.02C500.54,-169.18 506.77,-167.32 512.62,-165.75 560.64,-152.84 615.82,-140.79 656.2,-132.47"/>
<polygon fill="#63b8ff" stroke="#63b8ff" points="656.86,-135.91 665.96,-130.47 655.46,-129.05 656.86,-135.91"/>
</a>
</g>
</g>
<!-- Node13 -->
<g id="Node000013" class="node">
<title>Node13</title>
<g id="a_Node000013"><a xlink:title=" ">
<polygon fill="#e0e0e0" stroke="#999999" points="489.5,-129.75 445.75,-129.75 445.75,-110.5 489.5,-110.5 489.5,-129.75"/>
<text text-anchor="middle" x="467.62" y="-116.25" font-family="Helvetica,sans-Serif" font-size="10.00">format</text>
</a>
</g>
</g>
<!-- Node10&#45;&gt;Node13 -->
<g id="edge16_Node000010_Node000013" class="edge">
<title>Node10&#45;&gt;Node13</title>
<g id="a_edge16_Node000010_Node000013"><a xlink:title=" ">
<path fill="none" stroke="#63b8ff" d="M467.62,-171.06C467.62,-163.28 467.62,-151.7 467.62,-141.66"/>
<polygon fill="#63b8ff" stroke="#63b8ff" points="471.13,-141.66 467.63,-131.66 464.13,-141.66 471.13,-141.66"/>
</a>
</g>
</g>
<!-- Node11&#45;&gt;Node5 -->
<g id="edge12_Node000011_Node000005" class="edge">
<title>Node11&#45;&gt;Node5</title>
<g id="a_edge12_Node000011_Node000005"><a xlink:title=" ">
<path fill="none" stroke="#63b8ff" d="M664.88,-110.8C611.34,-101.67 525.14,-86.96 466.06,-76.87"/>
<polygon fill="#63b8ff" stroke="#63b8ff" points="466.93,-73.47 456.49,-75.24 465.75,-80.37 466.93,-73.47"/>
</a>
</g>
</g>
<!-- Node11&#45;&gt;Node7 -->
<g id="edge13_Node000011_Node000007" class="edge">
<title>Node11&#45;&gt;Node7</title>
<g id="a_edge13_Node000011_Node000007"><a xlink:title=" ">
<path fill="none" stroke="#63b8ff" d="M699.59,-110.06C670.74,-91.43 604.5,-48.65 569.04,-25.75"/>
<polygon fill="#63b8ff" stroke="#63b8ff" points="571.07,-22.89 560.77,-20.41 567.27,-28.77 571.07,-22.89"/>
</a>
</g>
</g>
<!-- Node12 -->
<g id="Node000012" class="node">
<title>Node12</title>
<g id="a_Node000012"><a xlink:title=" ">
<polygon fill="#e0e0e0" stroke="#999999" points="732.88,-74.5 694.38,-74.5 694.38,-55.25 732.88,-55.25 732.88,-74.5"/>
<text text-anchor="middle" x="713.62" y="-61" font-family="Helvetica,sans-Serif" font-size="10.00">utility</text>
</a>
</g>
</g>
<!-- Node11&#45;&gt;Node12 -->
<g id="edge14_Node000011_Node000012" class="edge">
<title>Node11&#45;&gt;Node12</title>
<g id="a_edge14_Node000011_Node000012"><a xlink:title=" ">
<path fill="none" stroke="#63b8ff" d="M713.62,-110.33C713.62,-103.82 713.62,-94.67 713.62,-86.37"/>
<polygon fill="#63b8ff" stroke="#63b8ff" points="717.13,-86.37 713.63,-76.37 710.13,-86.37 717.13,-86.37"/>
</a>
</g>
</g>
<!-- Node14&#45;&gt;Node4 -->
<g id="edge47_Node000014_Node000004" class="edge">
<title>Node14&#45;&gt;Node4</title>
<g id="a_edge47_Node000014_Node000004"><a xlink:title=" ">
<path fill="none" stroke="#63b8ff" d="M667.41,-237.78C553.06,-230.34 278.07,-211 264.62,-196.25 222.52,-150.03 243.66,-67.26 256.36,-29.88"/>
<polygon fill="#63b8ff" stroke="#63b8ff" points="259.52,-31.46 259.59,-20.87 252.93,-29.1 259.52,-31.46"/>
</a>
</g>
</g>
<!-- Node14&#45;&gt;Node6 -->
<g id="edge46_Node000014_Node000006" class="edge">
<title>Node14&#45;&gt;Node6</title>
<g id="a_edge46_Node000014_Node000006"><a xlink:title=" ">
<path fill="none" stroke="#63b8ff" d="M667.57,-239.44C559.61,-235.79 308.97,-224.34 283.62,-196.25 253.19,-162.51 270.54,-127.1 326.62,-55.25 336.03,-43.2 349.56,-33.03 361.68,-25.45"/>
<polygon fill="#63b8ff" stroke="#63b8ff" points="363.26,-28.58 370.09,-20.49 359.7,-22.56 363.26,-28.58"/>
</a>
</g>
</g>
<!-- Node15 -->
<g id="Node000015" class="node">
<title>Node15</title>
<g id="a_Node000015"><a xlink:href="type_8hpp.xhtml" target="_top" xlink:title=" ">
<polygon fill="white" stroke="#666666" points="419.12,-190.62 292.12,-190.62 292.12,-171.38 419.12,-171.38 419.12,-190.62"/>
<text text-anchor="middle" x="355.62" y="-177.12" font-family="Helvetica,sans-Serif" font-size="10.00">fcarouge/internal/type.hpp</text>
</a>
</g>
</g>
<!-- Node14&#45;&gt;Node15 -->
<g id="edge19_Node000014_Node000015" class="edge">
<title>Node14&#45;&gt;Node15</title>
<g id="a_edge19_Node000014_Node000015"><a xlink:title=" ">
<path fill="none" stroke="#63b8ff" d="M667.43,-233.92C609.84,-225.64 511.62,-211.04 427.62,-196.25 422.33,-195.32 416.83,-194.31 411.34,-193.27"/>
<polygon fill="#63b8ff" stroke="#63b8ff" points="412.09,-189.85 401.61,-191.4 410.77,-196.72 412.09,-189.85"/>
</a>
</g>
</g>
<!-- Node17 -->
<g id="Node000017" class="node">
<title>Node17</title>
<g id="a_Node000017"><a xlink:href="x__z__p__q__r__h__f_8hpp.xhtml" target="_top" xlink:title=" ">
<polygon fill="white" stroke="#666666" points="764.38,-196.25 668.88,-196.25 668.88,-165.75 764.38,-165.75 764.38,-196.25"/>
<text text-anchor="start" x="676.88" y="-182.75" font-family="Helvetica,sans-Serif" font-size="10.00">fcarouge/internal/x</text>
<text text-anchor="middle" x="716.62" y="-171.5" font-family="Helvetica,sans-Serif" font-size="10.00">_z_p_q_r_h_f.hpp</text>
</a>
</g>
</g>
<!-- Node14&#45;&gt;Node17 -->
<g id="edge23_Node000014_Node000017" class="edge">
<title>Node14&#45;&gt;Node17</title>
<g id="a_edge23_Node000014_Node000017"><a xlink:title=" ">
<path fill="none" stroke="#63b8ff" d="M716.62,-231.93C716.62,-225.48 716.62,-216.41 716.62,-207.76"/>
<polygon fill="#63b8ff" stroke="#63b8ff" points="720.13,-208.05 716.63,-198.05 713.13,-208.05 720.13,-208.05"/>
</a>
</g>
</g>
<!-- Node18 -->
<g id="Node000018" class="node">
<title>Node18</title>
<g id="a_Node000018"><a xlink:href="x__z__p__q__r__hh__us__ps_8hpp.xhtml" target="_top" xlink:title=" ">
<polygon fill="white" stroke="#666666" points="1400.75,-196.25 1280.5,-196.25 1280.5,-165.75 1400.75,-165.75 1400.75,-196.25"/>
<text text-anchor="start" x="1288.5" y="-182.75" font-family="Helvetica,sans-Serif" font-size="10.00">fcarouge/internal/x</text>
<text text-anchor="middle" x="1340.62" y="-171.5" font-family="Helvetica,sans-Serif" font-size="10.00">_z_p_q_r_hh_us_ps.hpp</text>
</a>
</g>
</g>
<!-- Node14&#45;&gt;Node18 -->
<g id="edge25_Node000014_Node000018" class="edge">
<title>Node14&#45;&gt;Node18</title>
<g id="a_edge25_Node000014_Node000018"><a xlink:title=" ">
<path fill="none" stroke="#63b8ff" d="M765.85,-238.96C861.13,-234.81 1077.53,-223.23 1269,-196.51"/>
<polygon fill="#63b8ff" stroke="#63b8ff" points="1269.21,-200.01 1278.62,-195.15 1268.23,-193.08 1269.21,-200.01"/>
</a>
</g>
</g>
<!-- Node21 -->
<g id="Node000021" class="node">
<title>Node21</title>
<g id="a_Node000021"><a xlink:href="x__z__p__qq__rr__f_8hpp.xhtml" target="_top" xlink:title=" ">
<polygon fill="white" stroke="#666666" points="992.38,-196.25 896.88,-196.25 896.88,-165.75 992.38,-165.75 992.38,-196.25"/>
<text text-anchor="start" x="904.88" y="-182.75" font-family="Helvetica,sans-Serif" font-size="10.00">fcarouge/internal/x</text>
<text text-anchor="middle" x="944.62" y="-171.5" font-family="Helvetica,sans-Serif" font-size="10.00">_z_p_qq_rr_f.hpp</text>
</a>
</g>
</g>
<!-- Node14&#45;&gt;Node21 -->
<g id="edge30_Node000014_Node000021" class="edge">
<title>Node14&#45;&gt;Node21</title>
<g id="a_edge30_Node000014_Node000021"><a xlink:title=" ">
<path fill="none" stroke="#63b8ff" d="M751.75,-231.8C787.41,-222.6 843.27,-208.17 885.72,-197.21"/>
<polygon fill="#63b8ff" stroke="#63b8ff" points="886.48,-200.63 895.28,-194.74 884.73,-193.85 886.48,-200.63"/>
</a>
</g>
</g>
<!-- Node22 -->
<g id="Node000022" class="node">
<title>Node22</title>
<g id="a_Node000022"><a xlink:href="x__z__p__r_8hpp.xhtml" target="_top" xlink:title=" ">
<polygon fill="white" stroke="#666666" points="650.38,-196.25 554.88,-196.25 554.88,-165.75 650.38,-165.75 650.38,-196.25"/>
<text text-anchor="start" x="562.88" y="-182.75" font-family="Helvetica,sans-Serif" font-size="10.00">fcarouge/internal/x</text>
<text text-anchor="middle" x="602.62" y="-171.5" font-family="Helvetica,sans-Serif" font-size="10.00">_z_p_r.hpp</text>
</a>
</g>
</g>
<!-- Node14&#45;&gt;Node22 -->
<g id="edge34_Node000014_Node000022" class="edge">
<title>Node14&#45;&gt;Node22</title>
<g id="a_edge34_Node000014_Node000022"><a xlink:title=" ">
<path fill="none" stroke="#63b8ff" d="M699.31,-231.93C683.82,-223.93 660.57,-211.93 640.76,-201.69"/>
<polygon fill="#63b8ff" stroke="#63b8ff" points="642.6,-198.71 632.11,-197.23 639.39,-204.93 642.6,-198.71"/>
</a>
</g>
</g>
<!-- Node23 -->
<g id="Node000023" class="node">
<title>Node23</title>
<g id="a_Node000023"><a xlink:href="x__z__p__r__f_8hpp.xhtml" target="_top" xlink:title=" ">
<polygon fill="white" stroke="#666666" points="878.38,-196.25 782.88,-196.25 782.88,-165.75 878.38,-165.75 878.38,-196.25"/>
<text text-anchor="start" x="790.88" y="-182.75" font-family="Helvetica,sans-Serif" font-size="10.00">fcarouge/internal/x</text>
<text text-anchor="middle" x="830.62" y="-171.5" font-family="Helvetica,sans-Serif" font-size="10.00">_z_p_r_f.hpp</text>
</a>
</g>
</g>
<!-- Node14&#45;&gt;Node23 -->
<g id="edge36_Node000014_Node000023" class="edge">
<title>Node14&#45;&gt;Node23</title>
<g id="a_edge36_Node000014_Node000023"><a xlink:title=" ">
<path fill="none" stroke="#63b8ff" d="M733.94,-231.93C749.43,-223.93 772.68,-211.93 792.49,-201.69"/>
<polygon fill="#63b8ff" stroke="#63b8ff" points="793.86,-204.93 801.14,-197.23 790.65,-198.71 793.86,-204.93"/>
</a>
</g>
</g>
<!-- Node24 -->
<g id="Node000024" class="node">
<title>Node24</title>
<g id="a_Node000024"><a xlink:href="x__z__u__p__q__r__f__g__ps_8hpp.xhtml" target="_top" xlink:title=" ">
<polygon fill="white" stroke="#666666" points="1128.62,-196.25 1010.62,-196.25 1010.62,-165.75 1128.62,-165.75 1128.62,-196.25"/>
<text text-anchor="start" x="1018.62" y="-182.75" font-family="Helvetica,sans-Serif" font-size="10.00">fcarouge/internal/x</text>
<text text-anchor="middle" x="1069.62" y="-171.5" font-family="Helvetica,sans-Serif" font-size="10.00">_z_u_p_q_r_f_g_ps.hpp</text>
</a>
</g>
</g>
<!-- Node14&#45;&gt;Node24 -->
<g id="edge38_Node000014_Node000024" class="edge">
<title>Node14&#45;&gt;Node24</title>
<g id="a_edge38_Node000014_Node000024"><a xlink:title=" ">
<path fill="none" stroke="#63b8ff" d="M765.93,-233.94C820.52,-226.08 911.39,-212.5 999.09,-196.66"/>
<polygon fill="#63b8ff" stroke="#63b8ff" points="999.62,-200.12 1008.83,-194.89 998.37,-193.23 999.62,-200.12"/>
</a>
</g>
</g>
<!-- Node25 -->
<g id="Node000025" class="node">
<title>Node25</title>
<g id="a_Node000025"><a xlink:href="x__z__u__p__q__r__us__ps_8hpp.xhtml" target="_top" xlink:title=" ">
<polygon fill="white" stroke="#666666" points="1262.12,-196.25 1147.12,-196.25 1147.12,-165.75 1262.12,-165.75 1262.12,-196.25"/>
<text text-anchor="start" x="1155.12" y="-182.75" font-family="Helvetica,sans-Serif" font-size="10.00">fcarouge/internal/x</text>
<text text-anchor="middle" x="1204.62" y="-171.5" font-family="Helvetica,sans-Serif" font-size="10.00">_z_u_p_q_r_us_ps.hpp</text>
</a>
</g>
</g>
<!-- Node14&#45;&gt;Node25 -->
<g id="edge42_Node000014_Node000025" class="edge">
<title>Node14&#45;&gt;Node25</title>
<g id="a_edge42_Node000014_Node000025"><a xlink:title=" ">
<path fill="none" stroke="#63b8ff" d="M765.78,-237.33C842.5,-231.44 995.53,-218.22 1135.6,-196.45"/>
<polygon fill="#63b8ff" stroke="#63b8ff" points="1136.12,-199.91 1145.46,-194.9 1135.03,-193 1136.12,-199.91"/>
</a>
</g>
</g>
<!-- Node15&#45;&gt;Node4 -->
<g id="edge22_Node000015_Node000004" class="edge">
<title>Node15&#45;&gt;Node4</title>
<g id="a_edge22_Node000015_Node000004"><a xlink:title=" ">
<path fill="none" stroke="#63b8ff" d="M348.71,-171.03C341.3,-161.2 329.4,-144.82 320.62,-129.75 300.88,-95.85 282.07,-54.05 271.76,-30.06"/>
<polygon fill="#63b8ff" stroke="#63b8ff" points="275.02,-28.78 267.89,-20.94 268.58,-31.51 275.02,-28.78"/>
</a>
</g>
</g>
<!-- Node15&#45;&gt;Node11 -->
<g id="edge20_Node000015_Node000011" class="edge">
<title>Node15&#45;&gt;Node11</title>
<g id="a_edge20_Node000015_Node000011"><a xlink:title=" ">
<path fill="none" stroke="#63b8ff" d="M400.12,-170.9C409.21,-169.12 418.72,-167.33 427.62,-165.75 505.45,-151.98 595.59,-138.29 653.54,-129.78"/>
<polygon fill="#63b8ff" stroke="#63b8ff" points="653.81,-133.27 663.19,-128.36 652.79,-126.35 653.81,-133.27"/>
</a>
</g>
</g>
<!-- Node16 -->
<g id="Node000016" class="node">
<title>Node16</title>
<g id="a_Node000016"><a xlink:title=" ">
<polygon fill="#e0e0e0" stroke="#999999" points="401.38,-129.75 329.88,-129.75 329.88,-110.5 401.38,-110.5 401.38,-129.75"/>
<text text-anchor="middle" x="365.62" y="-116.25" font-family="Helvetica,sans-Serif" font-size="10.00">initializer_list</text>
</a>
</g>
</g>
<!-- Node15&#45;&gt;Node16 -->
<g id="edge21_Node000015_Node000016" class="edge">
<title>Node15&#45;&gt;Node16</title>
<g id="a_edge21_Node000015_Node000016"><a xlink:title=" ">
<path fill="none" stroke="#63b8ff" d="M357.14,-171.06C358.48,-163.19 360.47,-151.45 362.19,-141.32"/>
<polygon fill="#63b8ff" stroke="#63b8ff" points="365.61,-142.09 363.84,-131.64 358.71,-140.92 365.61,-142.09"/>
</a>
</g>
</g>
<!-- Node17&#45;&gt;Node11 -->
<g id="edge24_Node000017_Node000011" class="edge">
<title>Node17&#45;&gt;Node11</title>
<g id="a_edge24_Node000017_Node000011"><a xlink:title=" ">
<path fill="none" stroke="#63b8ff" d="M715.88,-165.45C715.51,-158.21 715.06,-149.34 714.66,-141.44"/>
<polygon fill="#63b8ff" stroke="#63b8ff" points="718.17,-141.52 714.16,-131.71 711.18,-141.88 718.17,-141.52"/>
</a>
</g>
</g>
<!-- Node18&#45;&gt;Node8 -->
<g id="edge29_Node000018_Node000008" class="edge">
<title>Node18&#45;&gt;Node8</title>
<g id="a_edge29_Node000018_Node000008"><a xlink:title=" ">
<path fill="none" stroke="#63b8ff" d="M1327.81,-165.57C1303.79,-139.42 1249.17,-84.25 1191.62,-55.25 1140.78,-29.62 1074.54,-18.27 1036.69,-13.6"/>
<polygon fill="#63b8ff" stroke="#63b8ff" points="1037.29,-10.14 1026.95,-12.47 1036.49,-17.1 1037.29,-10.14"/>
</a>
</g>
</g>
<!-- Node18&#45;&gt;Node11 -->
<g id="edge26_Node000018_Node000011" class="edge">
<title>Node18&#45;&gt;Node11</title>
<g id="a_edge26_Node000018_Node000011"><a xlink:title=" ">
<path fill="none" stroke="#63b8ff" d="M1280.12,-167.06C1277.25,-166.59 1274.41,-166.15 1271.62,-165.75 1091.44,-140.04 876.25,-128.06 773.71,-123.49"/>
<polygon fill="#63b8ff" stroke="#63b8ff" points="774.02,-120 763.88,-123.06 773.71,-126.99 774.02,-120"/>
</a>
</g>
</g>
<!-- Node19 -->
<g id="Node000019" class="node">
<title>Node19</title>
<g id="a_Node000019"><a xlink:href="function_8hpp.xhtml" target="_top" xlink:title=" ">
<polygon fill="white" stroke="#666666" points="1170.88,-129.75 1102.38,-129.75 1102.38,-110.5 1170.88,-110.5 1170.88,-129.75"/>
<text text-anchor="middle" x="1136.62" y="-116.25" font-family="Helvetica,sans-Serif" font-size="10.00">function.hpp</text>
</a>
</g>
</g>
<!-- Node18&#45;&gt;Node19 -->
<g id="edge27_Node000018_Node000019" class="edge">
<title>Node18&#45;&gt;Node19</title>
<g id="a_edge27_Node000018_Node000019"><a xlink:title=" ">
<path fill="none" stroke="#63b8ff" d="M1289.67,-165.3C1255.58,-155.45 1211.22,-142.65 1179.05,-133.37"/>
<polygon fill="#63b8ff" stroke="#63b8ff" points="1180.24,-130.07 1169.66,-130.66 1178.3,-136.8 1180.24,-130.07"/>
</a>
</g>
</g>
<!-- Node20 -->
<g id="Node000020" class="node">
<title>Node20</title>
<g id="a_Node000020"><a xlink:title=" ">
<polygon fill="#e0e0e0" stroke="#999999" points="1161.88,-74.5 1111.38,-74.5 1111.38,-55.25 1161.88,-55.25 1161.88,-74.5"/>
<text text-anchor="middle" x="1136.62" y="-61" font-family="Helvetica,sans-Serif" font-size="10.00">memory</text>
</a>
</g>
</g>
<!-- Node19&#45;&gt;Node20 -->
<g id="edge28_Node000019_Node000020" class="edge">
<title>Node19&#45;&gt;Node20</title>
<g id="a_edge28_Node000019_Node000020"><a xlink:title=" ">
<path fill="none" stroke="#63b8ff" d="M1136.62,-110.33C1136.62,-103.82 1136.62,-94.67 1136.62,-86.37"/>
<polygon fill="#63b8ff" stroke="#63b8ff" points="1140.13,-86.37 1136.63,-76.37 1133.13,-86.37 1140.13,-86.37"/>
</a>
</g>
</g>
<!-- Node21&#45;&gt;Node8 -->
<g id="edge33_Node000021_Node000008" class="edge">
<title>Node21&#45;&gt;Node8</title>
<g id="a_edge33_Node000021_Node000008"><a xlink:title=" ">
<path fill="none" stroke="#63b8ff" d="M950.02,-165.27C961.19,-134.74 986.88,-64.58 999.44,-30.26"/>
<polygon fill="#63b8ff" stroke="#63b8ff" points="1002.62,-31.75 1002.77,-21.16 996.05,-29.34 1002.62,-31.75"/>
</a>
</g>
</g>
<!-- Node21&#45;&gt;Node11 -->
<g id="edge31_Node000021_Node000011" class="edge">
<title>Node21&#45;&gt;Node11</title>
<g id="a_edge31_Node000021_Node000011"><a xlink:title=" ">
<path fill="none" stroke="#63b8ff" d="M896.48,-167.73C856.44,-157.52 799.8,-143.09 760.2,-133"/>
<polygon fill="#63b8ff" stroke="#63b8ff" points="761.28,-129.66 750.72,-130.58 759.55,-136.44 761.28,-129.66"/>
</a>
</g>
</g>
<!-- Node21&#45;&gt;Node19 -->
<g id="edge32_Node000021_Node000019" class="edge">
<title>Node21&#45;&gt;Node19</title>
<g id="a_edge32_Node000021_Node000019"><a xlink:title=" ">
<path fill="none" stroke="#63b8ff" d="M992.58,-165.3C1024.39,-155.54 1065.69,-142.88 1095.9,-133.61"/>
<polygon fill="#63b8ff" stroke="#63b8ff" points="1096.92,-136.96 1105.45,-130.68 1094.86,-130.27 1096.92,-136.96"/>
</a>
</g>
</g>
<!-- Node22&#45;&gt;Node11 -->
<g id="edge35_Node000022_Node000011" class="edge">
<title>Node22&#45;&gt;Node11</title>
<g id="a_edge35_Node000022_Node000011"><a xlink:title=" ">
<path fill="none" stroke="#63b8ff" d="M630.35,-165.3C647.58,-156.16 669.62,-144.47 686.7,-135.41"/>
<polygon fill="#63b8ff" stroke="#63b8ff" points="688.07,-138.64 695.27,-130.86 684.79,-132.46 688.07,-138.64"/>
</a>
</g>
</g>
<!-- Node23&#45;&gt;Node11 -->
<g id="edge37_Node000023_Node000011" class="edge">
<title>Node23&#45;&gt;Node11</title>
<g id="a_edge37_Node000023_Node000011"><a xlink:title=" ">
<path fill="none" stroke="#63b8ff" d="M801.4,-165.3C783.16,-156.11 759.79,-144.36 741.75,-135.28"/>
<polygon fill="#63b8ff" stroke="#63b8ff" points="743.43,-132.2 732.92,-130.83 740.28,-138.46 743.43,-132.2"/>
</a>
</g>
</g>
<!-- Node24&#45;&gt;Node8 -->
<g id="edge41_Node000024_Node000008" class="edge">
<title>Node24&#45;&gt;Node8</title>
<g id="a_edge41_Node000024_Node000008"><a xlink:title=" ">
<path fill="none" stroke="#63b8ff" d="M1064.14,-165.27C1052.79,-134.74 1026.69,-64.58 1013.93,-30.26"/>
<polygon fill="#63b8ff" stroke="#63b8ff" points="1017.31,-29.31 1010.54,-21.15 1010.75,-31.75 1017.31,-29.31"/>
</a>
</g>
</g>
<!-- Node24&#45;&gt;Node11 -->
<g id="edge39_Node000024_Node000011" class="edge">
<title>Node24&#45;&gt;Node11</title>
<g id="a_edge39_Node000024_Node000011"><a xlink:title=" ">
<path fill="none" stroke="#63b8ff" d="M1010.32,-167.38C1007.38,-166.82 1004.47,-166.27 1001.62,-165.75 923.11,-151.45 832.01,-137.83 773.64,-129.48"/>
<polygon fill="#63b8ff" stroke="#63b8ff" points="774.31,-126.04 763.92,-128.1 773.33,-132.97 774.31,-126.04"/>
</a>
</g>
</g>
<!-- Node24&#45;&gt;Node19 -->
<g id="edge40_Node000024_Node000019" class="edge">
<title>Node24&#45;&gt;Node19</title>
<g id="a_edge40_Node000024_Node000019"><a xlink:title=" ">
<path fill="none" stroke="#63b8ff" d="M1086.19,-165.45C1095.8,-157 1107.94,-146.33 1117.9,-137.58"/>
<polygon fill="#63b8ff" stroke="#63b8ff" points="1119.96,-140.43 1125.16,-131.2 1115.34,-135.17 1119.96,-140.43"/>
</a>
</g>
</g>
<!-- Node25&#45;&gt;Node8 -->
<g id="edge45_Node000025_Node000008" class="edge">
<title>Node25&#45;&gt;Node8</title>
<g id="a_edge45_Node000025_Node000008"><a xlink:title=" ">
<path fill="none" stroke="#63b8ff" d="M1205.03,-165.41C1204.91,-139.52 1200.79,-85.4 1170.62,-55.25 1134.91,-19.55 1073.64,-11.64 1036.96,-10.32"/>
<polygon fill="#63b8ff" stroke="#63b8ff" points="1037.11,-6.82 1027.04,-10.12 1036.97,-13.82 1037.11,-6.82"/>
</a>
</g>
</g>
<!-- Node25&#45;&gt;Node11 -->
<g id="edge43_Node000025_Node000011" class="edge">
<title>Node25&#45;&gt;Node11</title>
<g id="a_edge43_Node000025_Node000011"><a xlink:title=" ">
<path fill="none" stroke="#63b8ff" d="M1146.95,-167.33C1143.8,-166.77 1140.68,-166.23 1137.62,-165.75 1008.76,-145.32 856.34,-131.87 773.89,-125.47"/>
<polygon fill="#63b8ff" stroke="#63b8ff" points="774.24,-121.99 764,-124.71 773.7,-128.97 774.24,-121.99"/>
</a>
</g>
</g>
<!-- Node25&#45;&gt;Node19 -->
<g id="edge44_Node000025_Node000019" class="edge">
<title>Node25&#45;&gt;Node19</title>
<g id="a_edge44_Node000025_Node000019"><a xlink:title=" ">
<path fill="none" stroke="#63b8ff" d="M1187.82,-165.45C1178.06,-157 1165.74,-146.33 1155.63,-137.58"/>
<polygon fill="#63b8ff" stroke="#63b8ff" points="1158.1,-135.09 1148.25,-131.19 1153.52,-140.38 1158.1,-135.09"/>
</a>
</g>
</g>
<!-- Node27 -->
<g id="Node000027" class="node">
<title>Node27</title>
<g id="a_Node000027"><a xlink:title=" ">
<polygon fill="#e0e0e0" stroke="#999999" points="198,-190.62 163.25,-190.62 163.25,-171.38 198,-171.38 198,-190.62"/>
<text text-anchor="middle" x="180.62" y="-177.12" font-family="Helvetica,sans-Serif" font-size="10.00">print</text>
</a>
</g>
</g>
<!-- Node26&#45;&gt;Node27 -->
<g id="edge49_Node000026_Node000027" class="edge">
<title>Node26&#45;&gt;Node27</title>
<g id="a_edge49_Node000026_Node000027"><a xlink:title=" ">
<path fill="none" stroke="#63b8ff" d="M243.39,-231.93C232.09,-222.94 214.42,-208.89 200.71,-197.98"/>
<polygon fill="#63b8ff" stroke="#63b8ff" points="203.16,-195.46 193.15,-191.97 198.8,-200.93 203.16,-195.46"/>
</a>
</g>
</g>
</g>
</svg>
