<?xml version="1.0" encoding="UTF-8" standalone="no"?>
<!DOCTYPE svg PUBLIC "-//W3C//DTD SVG 1.1//EN"
 "http://www.w3.org/Graphics/SVG/1.1/DTD/svg11.dtd">
<!-- Generated by graphviz version 9.0.0 (20230911.1827)
 -->
<!-- Title: /github/workspace/benchmark/predict_1x1x0.cpp Pages: 1 -->
<svg width="1319pt" height="381pt"
 viewBox="0.00 0.00 1319.14 381.25" xmlns="http://www.w3.org/2000/svg" xmlns:xlink="http://www.w3.org/1999/xlink">
<g id="graph0" class="graph" transform="scale(1 1) rotate(0) translate(4 377.25)">
<title>/github/workspace/benchmark/predict_1x1x0.cpp</title>
<!-- Node1 -->
<g id="Node000001" class="node">
<title>Node1</title>
<g id="a_Node000001"><a xlink:title=" ">
<polygon fill="#999999" stroke="#666666" points="320.88,-373.25 174.38,-373.25 174.38,-342.75 320.88,-342.75 320.88,-373.25"/>
<text text-anchor="start" x="182.38" y="-359.75" font-family="Helvetica,sans-Serif" font-size="10.00">/github/workspace/benchmark</text>
<text text-anchor="middle" x="247.62" y="-348.5" font-family="Helvetica,sans-Serif" font-size="10.00">/predict_1x1x0.cpp</text>
</a>
</g>
</g>
<!-- Node2 -->
<g id="Node000002" class="node">
<title>Node2</title>
<g id="a_Node000002"><a xlink:href="benchmark_8hpp.xhtml" target="_top" xlink:title="Benchmarking support.">
<polygon fill="white" stroke="#666666" points="132.62,-306.75 50.62,-306.75 50.62,-287.5 132.62,-287.5 132.62,-306.75"/>
<text text-anchor="middle" x="91.62" y="-293.25" font-family="Helvetica,sans-Serif" font-size="10.00">benchmark.hpp</text>
</a>
</g>
</g>
<!-- Node1&#45;&gt;Node2 -->
<g id="edge1_Node000001_Node000002" class="edge">
<title>Node1&#45;&gt;Node2</title>
<g id="a_edge1_Node000001_Node000002"><a xlink:title=" ">
<path fill="none" stroke="#63b8ff" d="M208.66,-342.3C183.31,-332.73 150.53,-320.36 126.12,-311.14"/>
<polygon fill="#63b8ff" stroke="#63b8ff" points="127.56,-307.94 116.97,-307.69 125.09,-314.49 127.56,-307.94"/>
</a>
</g>
</g>
<!-- Node3 -->
<g id="Node000003" class="node">
<title>Node3</title>
<g id="a_Node000003"><a xlink:title=" ">
<polygon fill="#e0e0e0" stroke="#999999" points="45.25,-251.5 0,-251.5 0,-232.25 45.25,-232.25 45.25,-251.5"/>
<text text-anchor="middle" x="22.62" y="-238" font-family="Helvetica,sans-Serif" font-size="10.00">chrono</text>
</a>
</g>
</g>
<!-- Node1&#45;&gt;Node3 -->
<g id="edge49_Node000001_Node000003" class="edge">
<title>Node1&#45;&gt;Node3</title>
<g id="a_edge49_Node000001_Node000003"><a xlink:title=" ">
<path fill="none" stroke="#63b8ff" d="M174.06,-346.92C122.95,-338.49 60.73,-324.92 41.62,-306.75 29.7,-295.4 25.16,-276.93 23.48,-262.76"/>
<polygon fill="#63b8ff" stroke="#63b8ff" points="27,-262.92 22.74,-253.22 20.02,-263.46 27,-262.92"/>
</a>
</g>
</g>
<!-- Node5 -->
<g id="Node000005" class="node">
<title>Node5</title>
<g id="a_Node000005"><a xlink:href="kalman_8hpp.xhtml" target="_top" xlink:title="The Kalman filter class and library top&#45;level header.">
<polygon fill="white" stroke="#666666" points="300.62,-306.75 194.62,-306.75 194.62,-287.5 300.62,-287.5 300.62,-306.75"/>
<text text-anchor="middle" x="247.62" y="-293.25" font-family="Helvetica,sans-Serif" font-size="10.00">fcarouge/kalman.hpp</text>
</a>
</g>
</g>
<!-- Node1&#45;&gt;Node5 -->
<g id="edge4_Node000001_Node000005" class="edge">
<title>Node1&#45;&gt;Node5</title>
<g id="a_edge4_Node000001_Node000005"><a xlink:title=" ">
<path fill="none" stroke="#63b8ff" d="M247.62,-342.45C247.62,-335.21 247.62,-326.34 247.62,-318.44"/>
<polygon fill="#63b8ff" stroke="#63b8ff" points="251.13,-318.71 247.63,-308.71 244.13,-318.71 251.13,-318.71"/>
</a>
</g>
</g>
<!-- Node27 -->
<g id="Node000027" class="node">
<title>Node27</title>
<g id="a_Node000027"><a xlink:title=" ">
<polygon fill="#e0e0e0" stroke="#999999" points="440.88,-306.75 318.38,-306.75 318.38,-287.5 440.88,-287.5 440.88,-306.75"/>
<text text-anchor="middle" x="379.62" y="-293.25" font-family="Helvetica,sans-Serif" font-size="10.00">benchmark/benchmark.h</text>
</a>
</g>
</g>
<!-- Node1&#45;&gt;Node27 -->
<g id="edge47_Node000001_Node000027" class="edge">
<title>Node1&#45;&gt;Node27</title>
<g id="a_edge47_Node000001_Node000027"><a xlink:title=" ">
<path fill="none" stroke="#63b8ff" d="M280.59,-342.3C301.57,-332.94 328.53,-320.91 349.03,-311.77"/>
<polygon fill="#63b8ff" stroke="#63b8ff" points="350.29,-315.04 358,-307.77 347.44,-308.65 350.29,-315.04"/>
</a>
</g>
</g>
<!-- Node28 -->
<g id="Node000028" class="node">
<title>Node28</title>
<g id="a_Node000028"><a xlink:title=" ">
<polygon fill="#e0e0e0" stroke="#999999" points="514.5,-306.75 458.75,-306.75 458.75,-287.5 514.5,-287.5 514.5,-306.75"/>
<text text-anchor="middle" x="486.62" y="-293.25" font-family="Helvetica,sans-Serif" font-size="10.00">algorithm</text>
</a>
</g>
</g>
<!-- Node1&#45;&gt;Node28 -->
<g id="edge48_Node000001_Node000028" class="edge">
<title>Node1&#45;&gt;Node28</title>
<g id="a_edge48_Node000001_Node000028"><a xlink:title=" ">
<path fill="none" stroke="#63b8ff" d="M307.32,-342.3C351.05,-331.52 409.17,-317.2 447.22,-307.83"/>
<polygon fill="#63b8ff" stroke="#63b8ff" points="448.01,-311.24 456.88,-305.45 446.33,-304.45 448.01,-311.24"/>
</a>
</g>
</g>
<!-- Node2&#45;&gt;Node3 -->
<g id="edge2_Node000002_Node000003" class="edge">
<title>Node2&#45;&gt;Node3</title>
<g id="a_edge2_Node000002_Node000003"><a xlink:title=" ">
<path fill="none" stroke="#63b8ff" d="M79.92,-287.09C69.85,-279.32 55.08,-267.92 43.06,-258.65"/>
<polygon fill="#63b8ff" stroke="#63b8ff" points="45.41,-256.04 35.36,-252.7 41.13,-261.58 45.41,-256.04"/>
</a>
</g>
</g>
<!-- Node4 -->
<g id="Node000004" class="node">
<title>Node4</title>
<g id="a_Node000004"><a xlink:title=" ">
<polygon fill="#e0e0e0" stroke="#999999" points="451.12,-19.25 390.12,-19.25 390.12,0 451.12,0 451.12,-19.25"/>
<text text-anchor="middle" x="420.62" y="-5.75" font-family="Helvetica,sans-Serif" font-size="10.00">type_traits</text>
</a>
</g>
</g>
<!-- Node2&#45;&gt;Node4 -->
<g id="edge3_Node000002_Node000004" class="edge">
<title>Node2&#45;&gt;Node4</title>
<g id="a_edge3_Node000002_Node000004"><a xlink:title=" ">
<path fill="none" stroke="#63b8ff" d="M89.2,-287.03C84.28,-267.8 73.62,-221.51 73.62,-182 73.62,-182 73.62,-182 73.62,-119.12 73.62,-55.94 285.89,-25.22 378.39,-14.83"/>
<polygon fill="#63b8ff" stroke="#63b8ff" points="378.77,-18.31 388.33,-13.75 378.01,-11.35 378.77,-18.31"/>
</a>
</g>
</g>
<!-- Node6 -->
<g id="Node000006" class="node">
<title>Node6</title>
<g id="a_Node000006"><a xlink:href="format_8hpp.xhtml" target="_top" xlink:title="Formatting support for the Kalman filter.">
<polygon fill="white" stroke="#666666" points="316.5,-190.62 254.75,-190.62 254.75,-171.38 316.5,-171.38 316.5,-190.62"/>
<text text-anchor="middle" x="285.62" y="-177.12" font-family="Helvetica,sans-Serif" font-size="10.00">format.hpp</text>
</a>
</g>
</g>
<!-- Node5&#45;&gt;Node6 -->
<g id="edge5_Node000005_Node000006" class="edge">
<title>Node5&#45;&gt;Node6</title>
<g id="a_edge5_Node000005_Node000006"><a xlink:title=" ">
<path fill="none" stroke="#63b8ff" d="M258.98,-287.26C268.41,-279.13 281.13,-266.14 286.62,-251.5 292.59,-235.6 291.7,-216.17 289.68,-201.9"/>
<polygon fill="#63b8ff" stroke="#63b8ff" points="293.19,-201.65 288.02,-192.4 286.29,-202.85 293.19,-201.65"/>
</a>
</g>
</g>
<!-- Node7 -->
<g id="Node000007" class="node">
<title>Node7</title>
<g id="a_Node000007"><a xlink:href="utility_8hpp.xhtml" target="_top" xlink:title="The collection of utilities supporting the library.">
<polygon fill="white" stroke="#666666" points="766.12,-129.75 669.12,-129.75 669.12,-110.5 766.12,-110.5 766.12,-129.75"/>
<text text-anchor="middle" x="717.62" y="-116.25" font-family="Helvetica,sans-Serif" font-size="10.00">fcarouge/utility.hpp</text>
</a>
</g>
</g>
<!-- Node5&#45;&gt;Node7 -->
<g id="edge45_Node000005_Node000007" class="edge">
<title>Node5&#45;&gt;Node7</title>
<g id="a_edge45_Node000005_Node000007"><a xlink:title=" ">
<path fill="none" stroke="#63b8ff" d="M259.33,-287.05C270.75,-278.14 288.55,-264.09 303.62,-251.5 348.05,-214.4 349.01,-189.85 401.62,-165.75 445.97,-145.43 578.82,-131.95 657.44,-125.52"/>
<polygon fill="#63b8ff" stroke="#63b8ff" points="657.43,-129.03 667.12,-124.74 656.87,-122.05 657.43,-129.03"/>
</a>
</g>
</g>
<!-- Node13 -->
<g id="Node000013" class="node">
<title>Node13</title>
<g id="a_Node000013"><a xlink:href="factory_8hpp.xhtml" target="_top" xlink:title=" ">
<polygon fill="white" stroke="#666666" points="823.5,-251.5 725.75,-251.5 725.75,-232.25 823.5,-232.25 823.5,-251.5"/>
<text text-anchor="middle" x="774.62" y="-238" font-family="Helvetica,sans-Serif" font-size="10.00">internal/factory.hpp</text>
</a>
</g>
</g>
<!-- Node5&#45;&gt;Node13 -->
<g id="edge15_Node000005_Node000013" class="edge">
<title>Node5&#45;&gt;Node13</title>
<g id="a_edge15_Node000005_Node000013"><a xlink:title=" ">
<path fill="none" stroke="#63b8ff" d="M301.04,-288.55C303.94,-288.18 306.82,-287.83 309.62,-287.5 454.35,-270.5 624.99,-255.38 713.87,-247.87"/>
<polygon fill="#63b8ff" stroke="#63b8ff" points="714.16,-251.36 723.83,-247.04 713.58,-244.39 714.16,-251.36"/>
</a>
</g>
</g>
<!-- Node24 -->
<g id="Node000024" class="node">
<title>Node24</title>
<g id="a_Node000024"><a xlink:href="printer_8hpp.xhtml" target="_top" xlink:title="Filter decoration support for printing operations.">
<polygon fill="white" stroke="#666666" points="278.12,-251.5 217.12,-251.5 217.12,-232.25 278.12,-232.25 278.12,-251.5"/>
<text text-anchor="middle" x="247.62" y="-238" font-family="Helvetica,sans-Serif" font-size="10.00">printer.hpp</text>
</a>
</g>
</g>
<!-- Node5&#45;&gt;Node24 -->
<g id="edge43_Node000005_Node000024" class="edge">
<title>Node5&#45;&gt;Node24</title>
<g id="a_edge43_Node000005_Node000024"><a xlink:title=" ">
<path fill="none" stroke="#63b8ff" d="M247.62,-287.33C247.62,-280.82 247.62,-271.67 247.62,-263.37"/>
<polygon fill="#63b8ff" stroke="#63b8ff" points="251.13,-263.37 247.63,-253.37 244.13,-263.37 251.13,-263.37"/>
</a>
</g>
</g>
<!-- Node26 -->
<g id="Node000026" class="node">
<title>Node26</title>
<g id="a_Node000026"><a xlink:title=" ">
<polygon fill="#e0e0e0" stroke="#999999" points="199.5,-251.5 101.75,-251.5 101.75,-232.25 199.5,-232.25 199.5,-251.5"/>
<text text-anchor="middle" x="150.62" y="-238" font-family="Helvetica,sans-Serif" font-size="10.00">internal/kalman.tpp</text>
</a>
</g>
</g>
<!-- Node5&#45;&gt;Node26 -->
<g id="edge46_Node000005_Node000026" class="edge">
<title>Node5&#45;&gt;Node26</title>
<g id="a_edge46_Node000005_Node000026"><a xlink:title=" ">
<path fill="none" stroke="#63b8ff" d="M231.17,-287.09C216.4,-278.98 194.45,-266.93 177.19,-257.46"/>
<polygon fill="#63b8ff" stroke="#63b8ff" points="178.94,-254.43 168.49,-252.68 175.57,-260.56 178.94,-254.43"/>
</a>
</g>
</g>
<!-- Node6&#45;&gt;Node7 -->
<g id="edge6_Node000006_Node000007" class="edge">
<title>Node6&#45;&gt;Node7</title>
<g id="a_edge6_Node000006_Node000007"><a xlink:title=" ">
<path fill="none" stroke="#63b8ff" d="M311.1,-171C317.42,-169.03 324.21,-167.12 330.62,-165.75 444.8,-141.33 580.98,-129.55 657.56,-124.47"/>
<polygon fill="#63b8ff" stroke="#63b8ff" points="657.61,-127.97 667.36,-123.84 657.16,-120.99 657.61,-127.97"/>
</a>
</g>
</g>
<!-- Node10 -->
<g id="Node000010" class="node">
<title>Node10</title>
<g id="a_Node000010"><a xlink:title=" ">
<polygon fill="#e0e0e0" stroke="#999999" points="629.75,-19.25 581.5,-19.25 581.5,0 629.75,0 629.75,-19.25"/>
<text text-anchor="middle" x="605.62" y="-5.75" font-family="Helvetica,sans-Serif" font-size="10.00">cstddef</text>
</a>
</g>
</g>
<!-- Node6&#45;&gt;Node10 -->
<g id="edge12_Node000006_Node000010" class="edge">
<title>Node6&#45;&gt;Node10</title>
<g id="a_edge12_Node000006_Node000010"><a xlink:title=" ">
<path fill="none" stroke="#63b8ff" d="M278.26,-171.16C267.58,-157.21 250.46,-129.71 263.62,-110.5 298.8,-59.2 489.77,-26.86 570.05,-15.36"/>
<polygon fill="#63b8ff" stroke="#63b8ff" points="570.14,-18.88 579.56,-14.02 569.17,-11.95 570.14,-18.88"/>
</a>
</g>
</g>
<!-- Node11 -->
<g id="Node000011" class="node">
<title>Node11</title>
<g id="a_Node000011"><a xlink:title=" ">
<polygon fill="#e0e0e0" stroke="#999999" points="881.12,-19.25 844.12,-19.25 844.12,0 881.12,0 881.12,-19.25"/>
<text text-anchor="middle" x="862.62" y="-5.75" font-family="Helvetica,sans-Serif" font-size="10.00">tuple</text>
</a>
</g>
</g>
<!-- Node6&#45;&gt;Node11 -->
<g id="edge14_Node000006_Node000011" class="edge">
<title>Node6&#45;&gt;Node11</title>
<g id="a_edge14_Node000006_Node000011"><a xlink:title=" ">
<path fill="none" stroke="#63b8ff" d="M309.42,-170.89C345.55,-157.17 416.52,-130.66 477.62,-110.5 559.11,-83.61 579.59,-76.88 662.62,-55.25 722.53,-39.64 793.4,-24.64 832.65,-16.62"/>
<polygon fill="#63b8ff" stroke="#63b8ff" points="833.18,-20.09 842.29,-14.67 831.79,-13.23 833.18,-20.09"/>
</a>
</g>
</g>
<!-- Node12 -->
<g id="Node000012" class="node">
<title>Node12</title>
<g id="a_Node000012"><a xlink:title=" ">
<polygon fill="#e0e0e0" stroke="#999999" points="316.5,-129.75 272.75,-129.75 272.75,-110.5 316.5,-110.5 316.5,-129.75"/>
<text text-anchor="middle" x="294.62" y="-116.25" font-family="Helvetica,sans-Serif" font-size="10.00">format</text>
</a>
</g>
</g>
<!-- Node6&#45;&gt;Node12 -->
<g id="edge13_Node000006_Node000012" class="edge">
<title>Node6&#45;&gt;Node12</title>
<g id="a_edge13_Node000006_Node000012"><a xlink:title=" ">
<path fill="none" stroke="#63b8ff" d="M286.99,-171.06C288.19,-163.19 289.99,-151.45 291.54,-141.32"/>
<polygon fill="#63b8ff" stroke="#63b8ff" points="294.97,-142.06 293.02,-131.65 288.05,-141 294.97,-142.06"/>
</a>
</g>
</g>
<!-- Node8 -->
<g id="Node000008" class="node">
<title>Node8</title>
<g id="a_Node000008"><a xlink:href="internal_2utility_8hpp.xhtml" target="_top" xlink:title=" ">
<polygon fill="white" stroke="#666666" points="763.12,-74.5 672.12,-74.5 672.12,-55.25 763.12,-55.25 763.12,-74.5"/>
<text text-anchor="middle" x="717.62" y="-61" font-family="Helvetica,sans-Serif" font-size="10.00">internal/utility.hpp</text>
</a>
</g>
</g>
<!-- Node7&#45;&gt;Node8 -->
<g id="edge7_Node000007_Node000008" class="edge">
<title>Node7&#45;&gt;Node8</title>
<g id="a_edge7_Node000007_Node000008"><a xlink:title=" ">
<path fill="none" stroke="#63b8ff" d="M717.62,-110.33C717.62,-103.82 717.62,-94.67 717.62,-86.37"/>
<polygon fill="#63b8ff" stroke="#63b8ff" points="721.13,-86.37 717.63,-76.37 714.13,-86.37 721.13,-86.37"/>
</a>
</g>
</g>
<!-- Node8&#45;&gt;Node4 -->
<g id="edge11_Node000008_Node000004" class="edge">
<title>Node8&#45;&gt;Node4</title>
<g id="a_edge11_Node000008_Node000004"><a xlink:title=" ">
<path fill="none" stroke="#63b8ff" d="M671.87,-55.67C614.75,-45.43 517.85,-28.06 462.57,-18.15"/>
<polygon fill="#63b8ff" stroke="#63b8ff" points="463.39,-14.74 452.93,-16.42 462.15,-21.63 463.39,-14.74"/>
</a>
</g>
</g>
<!-- Node9 -->
<g id="Node000009" class="node">
<title>Node9</title>
<g id="a_Node000009"><a xlink:title=" ">
<polygon fill="#e0e0e0" stroke="#999999" points="1164.5,-19.25 1108.75,-19.25 1108.75,0 1164.5,0 1164.5,-19.25"/>
<text text-anchor="middle" x="1136.62" y="-5.75" font-family="Helvetica,sans-Serif" font-size="10.00">concepts</text>
</a>
</g>
</g>
<!-- Node8&#45;&gt;Node9 -->
<g id="edge8_Node000008_Node000009" class="edge">
<title>Node8&#45;&gt;Node9</title>
<g id="a_edge8_Node000008_Node000009"><a xlink:title=" ">
<path fill="none" stroke="#63b8ff" d="M763.26,-58.07C845.98,-47.56 1019.3,-25.54 1097.21,-15.63"/>
<polygon fill="#63b8ff" stroke="#63b8ff" points="1097.45,-19.13 1106.93,-14.4 1096.57,-12.19 1097.45,-19.13"/>
</a>
</g>
</g>
<!-- Node8&#45;&gt;Node10 -->
<g id="edge9_Node000008_Node000010" class="edge">
<title>Node8&#45;&gt;Node10</title>
<g id="a_edge9_Node000008_Node000010"><a xlink:title=" ">
<path fill="none" stroke="#63b8ff" d="M698.63,-54.84C681.17,-46.54 655.03,-34.11 634.9,-24.54"/>
<polygon fill="#63b8ff" stroke="#63b8ff" points="636.62,-21.49 626.08,-20.35 633.61,-27.81 636.62,-21.49"/>
</a>
</g>
</g>
<!-- Node8&#45;&gt;Node11 -->
<g id="edge10_Node000008_Node000011" class="edge">
<title>Node8&#45;&gt;Node11</title>
<g id="a_edge10_Node000008_Node000011"><a xlink:title=" ">
<path fill="none" stroke="#63b8ff" d="M742.22,-54.84C767.39,-45.6 806.5,-31.24 833.27,-21.4"/>
<polygon fill="#63b8ff" stroke="#63b8ff" points="834.31,-24.75 842.49,-18.02 831.9,-18.18 834.31,-24.75"/>
</a>
</g>
</g>
<!-- Node13&#45;&gt;Node4 -->
<g id="edge42_Node000013_Node000004" class="edge">
<title>Node13&#45;&gt;Node4</title>
<g id="a_edge42_Node000013_Node000004"><a xlink:title=" ">
<path fill="none" stroke="#63b8ff" d="M725.52,-238.57C629.16,-233.54 422.78,-220.09 401.62,-196.25 359.73,-149.04 392.61,-66.16 410.72,-29.26"/>
<polygon fill="#63b8ff" stroke="#63b8ff" points="413.65,-31.22 415.07,-20.72 407.41,-28.04 413.65,-31.22"/>
</a>
</g>
</g>
<!-- Node13&#45;&gt;Node9 -->
<g id="edge41_Node000013_Node000009" class="edge">
<title>Node13&#45;&gt;Node9</title>
<g id="a_edge41_Node000013_Node000009"><a xlink:title=" ">
<path fill="none" stroke="#63b8ff" d="M823.86,-240.37C947.79,-238.59 1265.02,-230.67 1296.62,-196.25 1353.9,-133.87 1225.38,-56.27 1165.36,-24.84"/>
<polygon fill="#63b8ff" stroke="#63b8ff" points="1167.19,-21.84 1156.69,-20.38 1163.98,-28.06 1167.19,-21.84"/>
</a>
</g>
</g>
<!-- Node14 -->
<g id="Node000014" class="node">
<title>Node14</title>
<g id="a_Node000014"><a xlink:href="type_8hpp.xhtml" target="_top" xlink:title=" ">
<polygon fill="white" stroke="#666666" points="538.12,-190.62 411.12,-190.62 411.12,-171.38 538.12,-171.38 538.12,-190.62"/>
<text text-anchor="middle" x="474.62" y="-177.12" font-family="Helvetica,sans-Serif" font-size="10.00">fcarouge/internal/type.hpp</text>
</a>
</g>
</g>
<!-- Node13&#45;&gt;Node14 -->
<g id="edge16_Node000013_Node000014" class="edge">
<title>Node13&#45;&gt;Node14</title>
<g id="a_edge16_Node000013_Node000014"><a xlink:title=" ">
<path fill="none" stroke="#63b8ff" d="M727.9,-231.76C681.81,-222.76 609.35,-208.6 546.62,-196.25 541.71,-195.28 536.61,-194.28 531.49,-193.27"/>
<polygon fill="#63b8ff" stroke="#63b8ff" points="532.3,-189.86 521.81,-191.35 530.94,-196.73 532.3,-189.86"/>
</a>
</g>
</g>
<!-- Node16 -->
<g id="Node000016" class="node">
<title>Node16</title>
<g id="a_Node000016"><a xlink:href="x__z__p__q__r__h__f_8hpp.xhtml" target="_top" xlink:title=" ">
<polygon fill="white" stroke="#666666" points="651.38,-196.25 555.88,-196.25 555.88,-165.75 651.38,-165.75 651.38,-196.25"/>
<text text-anchor="start" x="563.88" y="-182.75" font-family="Helvetica,sans-Serif" font-size="10.00">fcarouge/internal/x</text>
<text text-anchor="middle" x="603.62" y="-171.5" font-family="Helvetica,sans-Serif" font-size="10.00">_z_p_q_r_h_f.hpp</text>
</a>
</g>
</g>
<!-- Node13&#45;&gt;Node16 -->
<g id="edge20_Node000013_Node000016" class="edge">
<title>Node13&#45;&gt;Node16</title>
<g id="a_edge20_Node000013_Node000016"><a xlink:title=" ">
<path fill="none" stroke="#63b8ff" d="M748.28,-231.8C724.08,-223.47 687.49,-210.87 657.16,-200.43"/>
<polygon fill="#63b8ff" stroke="#63b8ff" points="658.33,-197.13 647.74,-197.19 656.05,-203.75 658.33,-197.13"/>
</a>
</g>
</g>
<!-- Node17 -->
<g id="Node000017" class="node">
<title>Node17</title>
<g id="a_Node000017"><a xlink:href="x__z__p__q__r__hh__us__ps_8hpp.xhtml" target="_top" xlink:title=" ">
<polygon fill="white" stroke="#666666" points="1287.75,-196.25 1167.5,-196.25 1167.5,-165.75 1287.75,-165.75 1287.75,-196.25"/>
<text text-anchor="start" x="1175.5" y="-182.75" font-family="Helvetica,sans-Serif" font-size="10.00">fcarouge/internal/x</text>
<text text-anchor="middle" x="1227.62" y="-171.5" font-family="Helvetica,sans-Serif" font-size="10.00">_z_p_q_r_hh_us_ps.hpp</text>
</a>
</g>
</g>
<!-- Node13&#45;&gt;Node17 -->
<g id="edge22_Node000013_Node000017" class="edge">
<title>Node13&#45;&gt;Node17</title>
<g id="a_edge22_Node000013_Node000017"><a xlink:title=" ">
<path fill="none" stroke="#63b8ff" d="M823.92,-236.55C895.03,-229.99 1030.77,-216.34 1155.81,-196.62"/>
<polygon fill="#63b8ff" stroke="#63b8ff" points="1156.28,-200.09 1165.6,-195.05 1155.18,-193.17 1156.28,-200.09"/>
</a>
</g>
</g>
<!-- Node20 -->
<g id="Node000020" class="node">
<title>Node20</title>
<g id="a_Node000020"><a xlink:href="x__z__p__qq__rr__f_8hpp.xhtml" target="_top" xlink:title=" ">
<polygon fill="white" stroke="#666666" points="879.38,-196.25 783.88,-196.25 783.88,-165.75 879.38,-165.75 879.38,-196.25"/>
<text text-anchor="start" x="791.88" y="-182.75" font-family="Helvetica,sans-Serif" font-size="10.00">fcarouge/internal/x</text>
<text text-anchor="middle" x="831.62" y="-171.5" font-family="Helvetica,sans-Serif" font-size="10.00">_z_p_qq_rr_f.hpp</text>
</a>
</g>
</g>
<!-- Node13&#45;&gt;Node20 -->
<g id="edge27_Node000013_Node000020" class="edge">
<title>Node13&#45;&gt;Node20</title>
<g id="a_edge27_Node000013_Node000020"><a xlink:title=" ">
<path fill="none" stroke="#63b8ff" d="M783.28,-231.93C790.32,-224.67 800.55,-214.1 809.79,-204.55"/>
<polygon fill="#63b8ff" stroke="#63b8ff" points="812.06,-207.24 816.5,-197.62 807.03,-202.37 812.06,-207.24"/>
</a>
</g>
</g>
<!-- Node21 -->
<g id="Node000021" class="node">
<title>Node21</title>
<g id="a_Node000021"><a xlink:href="x__z__p__r__f_8hpp.xhtml" target="_top" xlink:title=" ">
<polygon fill="white" stroke="#666666" points="765.38,-196.25 669.88,-196.25 669.88,-165.75 765.38,-165.75 765.38,-196.25"/>
<text text-anchor="start" x="677.88" y="-182.75" font-family="Helvetica,sans-Serif" font-size="10.00">fcarouge/internal/x</text>
<text text-anchor="middle" x="717.62" y="-171.5" font-family="Helvetica,sans-Serif" font-size="10.00">_z_p_r_f.hpp</text>
</a>
</g>
</g>
<!-- Node13&#45;&gt;Node21 -->
<g id="edge31_Node000013_Node000021" class="edge">
<title>Node13&#45;&gt;Node21</title>
<g id="a_edge31_Node000013_Node000021"><a xlink:title=" ">
<path fill="none" stroke="#63b8ff" d="M765.97,-231.93C758.93,-224.67 748.7,-214.1 739.46,-204.55"/>
<polygon fill="#63b8ff" stroke="#63b8ff" points="742.22,-202.37 732.75,-197.62 737.19,-207.24 742.22,-202.37"/>
</a>
</g>
</g>
<!-- Node22 -->
<g id="Node000022" class="node">
<title>Node22</title>
<g id="a_Node000022"><a xlink:href="x__z__u__p__q__r__f__g__ps_8hpp.xhtml" target="_top" xlink:title=" ">
<polygon fill="white" stroke="#666666" points="1015.62,-196.25 897.62,-196.25 897.62,-165.75 1015.62,-165.75 1015.62,-196.25"/>
<text text-anchor="start" x="905.62" y="-182.75" font-family="Helvetica,sans-Serif" font-size="10.00">fcarouge/internal/x</text>
<text text-anchor="middle" x="956.62" y="-171.5" font-family="Helvetica,sans-Serif" font-size="10.00">_z_u_p_q_r_f_g_ps.hpp</text>
</a>
</g>
</g>
<!-- Node13&#45;&gt;Node22 -->
<g id="edge33_Node000013_Node000022" class="edge">
<title>Node13&#45;&gt;Node22</title>
<g id="a_edge33_Node000013_Node000022"><a xlink:title=" ">
<path fill="none" stroke="#63b8ff" d="M802.66,-231.8C828.64,-223.4 868.05,-210.65 900.49,-200.16"/>
<polygon fill="#63b8ff" stroke="#63b8ff" points="901.32,-203.57 909.76,-197.16 899.17,-196.91 901.32,-203.57"/>
</a>
</g>
</g>
<!-- Node23 -->
<g id="Node000023" class="node">
<title>Node23</title>
<g id="a_Node000023"><a xlink:href="x__z__u__p__q__r__us__ps_8hpp.xhtml" target="_top" xlink:title=" ">
<polygon fill="white" stroke="#666666" points="1149.12,-196.25 1034.12,-196.25 1034.12,-165.75 1149.12,-165.75 1149.12,-196.25"/>
<text text-anchor="start" x="1042.12" y="-182.75" font-family="Helvetica,sans-Serif" font-size="10.00">fcarouge/internal/x</text>
<text text-anchor="middle" x="1091.62" y="-171.5" font-family="Helvetica,sans-Serif" font-size="10.00">_z_u_p_q_r_us_ps.hpp</text>
</a>
</g>
</g>
<!-- Node13&#45;&gt;Node23 -->
<g id="edge37_Node000013_Node000023" class="edge">
<title>Node13&#45;&gt;Node23</title>
<g id="a_edge37_Node000013_Node000023"><a xlink:title=" ">
<path fill="none" stroke="#63b8ff" d="M823.58,-232.63C871.68,-224.41 947.44,-211.19 1022.79,-196.57"/>
<polygon fill="#63b8ff" stroke="#63b8ff" points="1023.28,-200.04 1032.42,-194.69 1021.94,-193.17 1023.28,-200.04"/>
</a>
</g>
</g>
<!-- Node14&#45;&gt;Node4 -->
<g id="edge19_Node000014_Node000004" class="edge">
<title>Node14&#45;&gt;Node4</title>
<g id="a_edge19_Node000014_Node000004"><a xlink:title=" ">
<path fill="none" stroke="#63b8ff" d="M471.72,-170.89C463.26,-144.35 438.48,-66.61 426.82,-30.05"/>
<polygon fill="#63b8ff" stroke="#63b8ff" points="430.24,-29.27 423.87,-20.81 423.57,-31.4 430.24,-29.27"/>
</a>
</g>
</g>
<!-- Node14&#45;&gt;Node7 -->
<g id="edge17_Node000014_Node000007" class="edge">
<title>Node14&#45;&gt;Node7</title>
<g id="a_edge17_Node000014_Node000007"><a xlink:title=" ">
<path fill="none" stroke="#63b8ff" d="M512.06,-170.93C554.25,-160.71 622.95,-144.06 669.19,-132.86"/>
<polygon fill="#63b8ff" stroke="#63b8ff" points="669.78,-136.32 678.68,-130.56 668.13,-129.52 669.78,-136.32"/>
</a>
</g>
</g>
<!-- Node15 -->
<g id="Node000015" class="node">
<title>Node15</title>
<g id="a_Node000015"><a xlink:title=" ">
<polygon fill="#e0e0e0" stroke="#999999" points="558.38,-129.75 486.88,-129.75 486.88,-110.5 558.38,-110.5 558.38,-129.75"/>
<text text-anchor="middle" x="522.62" y="-116.25" font-family="Helvetica,sans-Serif" font-size="10.00">initializer_list</text>
</a>
</g>
</g>
<!-- Node14&#45;&gt;Node15 -->
<g id="edge18_Node000014_Node000015" class="edge">
<title>Node14&#45;&gt;Node15</title>
<g id="a_edge18_Node000014_Node000015"><a xlink:title=" ">
<path fill="none" stroke="#63b8ff" d="M481.92,-171.06C488.82,-162.59 499.4,-149.62 508.04,-139.02"/>
<polygon fill="#63b8ff" stroke="#63b8ff" points="510.7,-141.29 514.31,-131.32 505.28,-136.86 510.7,-141.29"/>
</a>
</g>
</g>
<!-- Node16&#45;&gt;Node7 -->
<g id="edge21_Node000016_Node000007" class="edge">
<title>Node16&#45;&gt;Node7</title>
<g id="a_edge21_Node000016_Node000007"><a xlink:title=" ">
<path fill="none" stroke="#63b8ff" d="M632.1,-165.3C649.79,-156.16 672.43,-144.47 689.97,-135.41"/>
<polygon fill="#63b8ff" stroke="#63b8ff" points="691.52,-138.55 698.8,-130.85 688.31,-132.33 691.52,-138.55"/>
</a>
</g>
</g>
<!-- Node17&#45;&gt;Node7 -->
<g id="edge23_Node000017_Node000007" class="edge">
<title>Node17&#45;&gt;Node7</title>
<g id="a_edge23_Node000017_Node000007"><a xlink:title=" ">
<path fill="none" stroke="#63b8ff" d="M1167.11,-167.13C1164.24,-166.64 1161.41,-166.18 1158.62,-165.75 1023.18,-144.97 862.8,-131.51 777.7,-125.24"/>
<polygon fill="#63b8ff" stroke="#63b8ff" points="778.19,-121.76 767.96,-124.53 777.68,-128.74 778.19,-121.76"/>
</a>
</g>
</g>
<!-- Node17&#45;&gt;Node11 -->
<g id="edge26_Node000017_Node000011" class="edge">
<title>Node17&#45;&gt;Node11</title>
<g id="a_edge26_Node000017_Node000011"><a xlink:title=" ">
<path fill="none" stroke="#63b8ff" d="M1208.99,-165.32C1175.4,-139.53 1101.65,-85.89 1031.62,-55.25 985.12,-34.9 927.23,-22.09 892.69,-15.66"/>
<polygon fill="#63b8ff" stroke="#63b8ff" points="893.46,-12.24 883,-13.91 892.22,-19.13 893.46,-12.24"/>
</a>
</g>
</g>
<!-- Node18 -->
<g id="Node000018" class="node">
<title>Node18</title>
<g id="a_Node000018"><a xlink:href="function_8hpp.xhtml" target="_top" xlink:title=" ">
<polygon fill="white" stroke="#666666" points="1008.88,-129.75 940.38,-129.75 940.38,-110.5 1008.88,-110.5 1008.88,-129.75"/>
<text text-anchor="middle" x="974.62" y="-116.25" font-family="Helvetica,sans-Serif" font-size="10.00">function.hpp</text>
</a>
</g>
</g>
<!-- Node17&#45;&gt;Node18 -->
<g id="edge24_Node000017_Node000018" class="edge">
<title>Node17&#45;&gt;Node18</title>
<g id="a_edge24_Node000017_Node000018"><a xlink:title=" ">
<path fill="none" stroke="#63b8ff" d="M1167.03,-165.9C1121.86,-155.39 1061.15,-141.26 1020.09,-131.71"/>
<polygon fill="#63b8ff" stroke="#63b8ff" points="1021.07,-128.34 1010.54,-129.48 1019.49,-135.16 1021.07,-128.34"/>
</a>
</g>
</g>
<!-- Node19 -->
<g id="Node000019" class="node">
<title>Node19</title>
<g id="a_Node000019"><a xlink:title=" ">
<polygon fill="#e0e0e0" stroke="#999999" points="999.88,-74.5 949.38,-74.5 949.38,-55.25 999.88,-55.25 999.88,-74.5"/>
<text text-anchor="middle" x="974.62" y="-61" font-family="Helvetica,sans-Serif" font-size="10.00">memory</text>
</a>
</g>
</g>
<!-- Node18&#45;&gt;Node19 -->
<g id="edge25_Node000018_Node000019" class="edge">
<title>Node18&#45;&gt;Node19</title>
<g id="a_edge25_Node000018_Node000019"><a xlink:title=" ">
<path fill="none" stroke="#63b8ff" d="M974.62,-110.33C974.62,-103.82 974.62,-94.67 974.62,-86.37"/>
<polygon fill="#63b8ff" stroke="#63b8ff" points="978.13,-86.37 974.63,-76.37 971.13,-86.37 978.13,-86.37"/>
</a>
</g>
</g>
<!-- Node20&#45;&gt;Node7 -->
<g id="edge28_Node000020_Node000007" class="edge">
<title>Node20&#45;&gt;Node7</title>
<g id="a_edge28_Node000020_Node000007"><a xlink:title=" ">
<path fill="none" stroke="#63b8ff" d="M803.15,-165.3C785.46,-156.16 762.82,-144.47 745.28,-135.41"/>
<polygon fill="#63b8ff" stroke="#63b8ff" points="746.94,-132.33 736.45,-130.85 743.73,-138.55 746.94,-132.33"/>
</a>
</g>
</g>
<!-- Node20&#45;&gt;Node11 -->
<g id="edge30_Node000020_Node000011" class="edge">
<title>Node20&#45;&gt;Node11</title>
<g id="a_edge30_Node000020_Node000011"><a xlink:title=" ">
<path fill="none" stroke="#63b8ff" d="M834.32,-165.27C839.88,-134.87 852.64,-65.19 858.95,-30.71"/>
<polygon fill="#63b8ff" stroke="#63b8ff" points="862.33,-31.69 860.69,-21.22 855.44,-30.43 862.33,-31.69"/>
</a>
</g>
</g>
<!-- Node20&#45;&gt;Node18 -->
<g id="edge29_Node000020_Node000018" class="edge">
<title>Node20&#45;&gt;Node18</title>
<g id="a_edge29_Node000020_Node000018"><a xlink:title=" ">
<path fill="none" stroke="#63b8ff" d="M867.34,-165.3C890.27,-155.85 919.81,-143.69 942.09,-134.52"/>
<polygon fill="#63b8ff" stroke="#63b8ff" points="943.38,-137.77 951.3,-130.73 940.72,-131.3 943.38,-137.77"/>
</a>
</g>
</g>
<!-- Node21&#45;&gt;Node7 -->
<g id="edge32_Node000021_Node000007" class="edge">
<title>Node21&#45;&gt;Node7</title>
<g id="a_edge32_Node000021_Node000007"><a xlink:title=" ">
<path fill="none" stroke="#63b8ff" d="M717.62,-165.45C717.62,-158.21 717.62,-149.34 717.62,-141.44"/>
<polygon fill="#63b8ff" stroke="#63b8ff" points="721.13,-141.71 717.63,-131.71 714.13,-141.71 721.13,-141.71"/>
</a>
</g>
</g>
<!-- Node22&#45;&gt;Node7 -->
<g id="edge34_Node000022_Node000007" class="edge">
<title>Node22&#45;&gt;Node7</title>
<g id="a_edge34_Node000022_Node000007"><a xlink:title=" ">
<path fill="none" stroke="#63b8ff" d="M897.24,-165.37C856.47,-155.33 803.08,-142.18 765.13,-132.83"/>
<polygon fill="#63b8ff" stroke="#63b8ff" points="766.39,-129.53 755.84,-130.54 764.72,-136.33 766.39,-129.53"/>
</a>
</g>
</g>
<!-- Node22&#45;&gt;Node11 -->
<g id="edge36_Node000022_Node000011" class="edge">
<title>Node22&#45;&gt;Node11</title>
<g id="a_edge36_Node000022_Node000011"><a xlink:title=" ">
<path fill="none" stroke="#63b8ff" d="M948.45,-165.27C931.36,-134.47 891.89,-63.35 873.03,-29.37"/>
<polygon fill="#63b8ff" stroke="#63b8ff" points="876.33,-28.1 868.42,-21.06 870.21,-31.5 876.33,-28.1"/>
</a>
</g>
</g>
<!-- Node22&#45;&gt;Node18 -->
<g id="edge35_Node000022_Node000018" class="edge">
<title>Node22&#45;&gt;Node18</title>
<g id="a_edge35_Node000022_Node000018"><a xlink:title=" ">
<path fill="none" stroke="#63b8ff" d="M961.07,-165.45C963.31,-158.12 966.06,-149.12 968.5,-141.16"/>
<polygon fill="#63b8ff" stroke="#63b8ff" points="971.83,-142.24 971.41,-131.65 965.14,-140.19 971.83,-142.24"/>
</a>
</g>
</g>
<!-- Node23&#45;&gt;Node7 -->
<g id="edge38_Node000023_Node000007" class="edge">
<title>Node23&#45;&gt;Node7</title>
<g id="a_edge38_Node000023_Node000007"><a xlink:title=" ">
<path fill="none" stroke="#63b8ff" d="M1033.93,-167.48C1030.79,-166.88 1027.67,-166.29 1024.62,-165.75 939.15,-150.47 839.58,-136.73 777.57,-128.66"/>
<polygon fill="#63b8ff" stroke="#63b8ff" points="778.3,-125.23 767.94,-127.42 777.4,-132.17 778.3,-125.23"/>
</a>
</g>
</g>
<!-- Node23&#45;&gt;Node11 -->
<g id="edge40_Node000023_Node000011" class="edge">
<title>Node23&#45;&gt;Node11</title>
<g id="a_edge40_Node000023_Node000011"><a xlink:title=" ">
<path fill="none" stroke="#63b8ff" d="M1085.82,-165.29C1074.78,-139.19 1048.26,-84.77 1008.62,-55.25 973.94,-29.42 924.17,-18.39 892.62,-13.78"/>
<polygon fill="#63b8ff" stroke="#63b8ff" points="893.37,-10.35 882.99,-12.51 892.45,-17.29 893.37,-10.35"/>
</a>
</g>
</g>
<!-- Node23&#45;&gt;Node18 -->
<g id="edge39_Node000023_Node000018" class="edge">
<title>Node23&#45;&gt;Node18</title>
<g id="a_edge39_Node000023_Node000018"><a xlink:title=" ">
<path fill="none" stroke="#63b8ff" d="M1062.4,-165.3C1044.16,-156.11 1020.79,-144.36 1002.75,-135.28"/>
<polygon fill="#63b8ff" stroke="#63b8ff" points="1004.43,-132.2 993.92,-130.83 1001.28,-138.46 1004.43,-132.2"/>
</a>
</g>
</g>
<!-- Node25 -->
<g id="Node000025" class="node">
<title>Node25</title>
<g id="a_Node000025"><a xlink:title=" ">
<polygon fill="#e0e0e0" stroke="#999999" points="237,-190.62 202.25,-190.62 202.25,-171.38 237,-171.38 237,-190.62"/>
<text text-anchor="middle" x="219.62" y="-177.12" font-family="Helvetica,sans-Serif" font-size="10.00">print</text>
</a>
</g>
</g>
<!-- Node24&#45;&gt;Node25 -->
<g id="edge44_Node000024_Node000025" class="edge">
<title>Node24&#45;&gt;Node25</title>
<g id="a_edge44_Node000024_Node000025"><a xlink:title=" ">
<path fill="none" stroke="#63b8ff" d="M243.37,-231.93C239.51,-223.81 233.68,-211.54 228.76,-201.2"/>
<polygon fill="#63b8ff" stroke="#63b8ff" points="232.02,-199.92 224.57,-192.39 225.7,-202.93 232.02,-199.92"/>
</a>
</g>
</g>
</g>
</svg>
