<?xml version="1.0" encoding="UTF-8" standalone="no"?>
<!DOCTYPE svg PUBLIC "-//W3C//DTD SVG 1.1//EN"
 "http://www.w3.org/Graphics/SVG/1.1/DTD/svg11.dtd">
<!-- Generated by graphviz version 12.2.0 (20241103.1931)
 -->
<!-- Title: /github/workspace/include/fcarouge/kalman_internal/printer.hpp Pages: 1 -->
<svg width="6236pt" height="194pt"
 viewBox="0.00 0.00 6235.75 194.00" xmlns="http://www.w3.org/2000/svg" xmlns:xlink="http://www.w3.org/1999/xlink">
<g id="graph0" class="graph" transform="scale(1 1) rotate(0) translate(4 190)">
<title>/github/workspace/include/fcarouge/kalman_internal/printer.hpp</title>
<!-- Node1 -->
<g id="Node000001" class="node">
<title>Node1</title>
<g id="a_Node000001"><a xlink:title="Filter decoration support for printing operations.">
<polygon fill="#999999" stroke="#666666" points="3303.88,-186 3174.62,-186 3174.62,-144.25 3303.88,-144.25 3303.88,-186"/>
<text text-anchor="start" x="3182.62" y="-172.5" font-family="Helvetica,sans-Serif" font-size="10.00">/github/workspace/include</text>
<text text-anchor="start" x="3182.62" y="-161.25" font-family="Helvetica,sans-Serif" font-size="10.00">/fcarouge/kalman_internal</text>
<text text-anchor="middle" x="3239.25" y="-150" font-family="Helvetica,sans-Serif" font-size="10.00">/printer.hpp</text>
</a>
</g>
</g>
<!-- Node2 -->
<g id="Node000002" class="node">
<title>Node2</title>
<g id="a_Node000002"><a xlink:href="kalman_8hpp.xhtml" target="_top" xlink:title="The Kalman filter class and library top&#45;level header.">
<polygon fill="white" stroke="#666666" points="3303.88,-108.25 3174.62,-108.25 3174.62,-77.75 3303.88,-77.75 3303.88,-108.25"/>
<text text-anchor="start" x="3182.62" y="-94.75" font-family="Helvetica,sans-Serif" font-size="10.00">/github/workspace/include</text>
<text text-anchor="middle" x="3239.25" y="-83.5" font-family="Helvetica,sans-Serif" font-size="10.00">/fcarouge/kalman.hpp</text>
</a>
</g>
</g>
<!-- Node1&#45;&gt;Node2 -->
<g id="edge1_Node000001_Node000002" class="edge">
<title>Node1&#45;&gt;Node2</title>
<g id="a_edge1_Node000001_Node000002"><a xlink:title=" ">
<path fill="none" stroke="#63b8ff" d="M3239.25,-132.38C3239.25,-124.02 3239.25,-115.4 3239.25,-108.45"/>
<polygon fill="#63b8ff" stroke="#63b8ff" points="3235.75,-132.33 3239.25,-142.33 3242.75,-132.33 3235.75,-132.33"/>
</a>
</g>
</g>
<!-- Node3 -->
<g id="Node000003" class="node">
<title>Node3</title>
<g id="a_Node000003"><a xlink:href="predict__1x1x0_8cpp.xhtml" target="_top" xlink:title=" ">
<polygon fill="white" stroke="#666666" points="146.5,-36.12 0,-36.12 0,-5.62 146.5,-5.62 146.5,-36.12"/>
<text text-anchor="start" x="8" y="-22.62" font-family="Helvetica,sans-Serif" font-size="10.00">/github/workspace/benchmark</text>
<text text-anchor="middle" x="73.25" y="-11.38" font-family="Helvetica,sans-Serif" font-size="10.00">/predict_1x1x0.cpp</text>
</a>
</g>
</g>
<!-- Node2&#45;&gt;Node3 -->
<g id="edge2_Node000002_Node000003" class="edge">
<title>Node2&#45;&gt;Node3</title>
<g id="a_edge2_Node000002_Node000003"><a xlink:title=" ">
<path fill="none" stroke="#63b8ff" d="M3162.79,-91.75C2716.98,-90.19 462.32,-80.42 156.25,-41.75 146.69,-40.54 136.64,-38.67 126.96,-36.54"/>
<polygon fill="#63b8ff" stroke="#63b8ff" points="3162.7,-95.25 3172.71,-91.79 3162.72,-88.25 3162.7,-95.25"/>
</a>
</g>
</g>
<!-- Node4 -->
<g id="Node000004" class="node">
<title>Node4</title>
<g id="a_Node000004"><a xlink:href="predict__1x1x1_8cpp.xhtml" target="_top" xlink:title=" ">
<polygon fill="white" stroke="#666666" points="311.5,-36.12 165,-36.12 165,-5.62 311.5,-5.62 311.5,-36.12"/>
<text text-anchor="start" x="173" y="-22.62" font-family="Helvetica,sans-Serif" font-size="10.00">/github/workspace/benchmark</text>
<text text-anchor="middle" x="238.25" y="-11.38" font-family="Helvetica,sans-Serif" font-size="10.00">/predict_1x1x1.cpp</text>
</a>
</g>
</g>
<!-- Node2&#45;&gt;Node4 -->
<g id="edge3_Node000002_Node000004" class="edge">
<title>Node2&#45;&gt;Node4</title>
<g id="a_edge3_Node000002_Node000004"><a xlink:title=" ">
<path fill="none" stroke="#63b8ff" d="M3162.78,-91.68C2731.28,-89.73 610,-78.36 321.25,-41.75 311.7,-40.54 301.64,-38.66 291.96,-36.53"/>
<polygon fill="#63b8ff" stroke="#63b8ff" points="3162.63,-95.18 3172.64,-91.72 3162.66,-88.18 3162.63,-95.18"/>
</a>
</g>
</g>
<!-- Node5 -->
<g id="Node000005" class="node">
<title>Node5</title>
<g id="a_Node000005"><a xlink:href="predict__linalg__x1x_8cpp.xhtml" target="_top" xlink:title=" ">
<polygon fill="white" stroke="#666666" points="476.5,-36.12 330,-36.12 330,-5.62 476.5,-5.62 476.5,-36.12"/>
<text text-anchor="start" x="338" y="-22.62" font-family="Helvetica,sans-Serif" font-size="10.00">/github/workspace/benchmark</text>
<text text-anchor="middle" x="403.25" y="-11.38" font-family="Helvetica,sans-Serif" font-size="10.00">/predict_linalg_x1x.cpp</text>
</a>
</g>
</g>
<!-- Node2&#45;&gt;Node5 -->
<g id="edge4_Node000002_Node000005" class="edge">
<title>Node2&#45;&gt;Node5</title>
<g id="a_edge4_Node000002_Node000005"><a xlink:title=" ">
<path fill="none" stroke="#63b8ff" d="M3163.13,-91.6C2747.17,-89.26 757.78,-76.32 486.25,-41.75 476.84,-40.55 466.95,-38.71 457.41,-36.62"/>
<polygon fill="#63b8ff" stroke="#63b8ff" points="3162.87,-95.09 3172.89,-91.65 3162.91,-88.09 3162.87,-95.09"/>
</a>
</g>
</g>
<!-- Node6 -->
<g id="Node000006" class="node">
<title>Node6</title>
<g id="a_Node000006"><a xlink:href="update__1x1x0_8cpp.xhtml" target="_top" xlink:title=" ">
<polygon fill="white" stroke="#666666" points="641.5,-36.12 495,-36.12 495,-5.62 641.5,-5.62 641.5,-36.12"/>
<text text-anchor="start" x="503" y="-22.62" font-family="Helvetica,sans-Serif" font-size="10.00">/github/workspace/benchmark</text>
<text text-anchor="middle" x="568.25" y="-11.38" font-family="Helvetica,sans-Serif" font-size="10.00">/update_1x1x0.cpp</text>
</a>
</g>
</g>
<!-- Node2&#45;&gt;Node6 -->
<g id="edge5_Node000002_Node000006" class="edge">
<title>Node2&#45;&gt;Node6</title>
<g id="a_edge5_Node000002_Node000006"><a xlink:title=" ">
<path fill="none" stroke="#63b8ff" d="M3162.92,-91.5C2761.7,-88.73 905.47,-74.27 651.25,-41.75 641.84,-40.55 631.95,-38.7 622.41,-36.61"/>
<polygon fill="#63b8ff" stroke="#63b8ff" points="3162.83,-95 3172.85,-91.57 3162.88,-88 3162.83,-95"/>
</a>
</g>
</g>
<!-- Node7 -->
<g id="Node000007" class="node">
<title>Node7</title>
<g id="a_Node000007"><a xlink:href="update__1x1x1_8cpp.xhtml" target="_top" xlink:title=" ">
<polygon fill="white" stroke="#666666" points="806.5,-36.12 660,-36.12 660,-5.62 806.5,-5.62 806.5,-36.12"/>
<text text-anchor="start" x="668" y="-22.62" font-family="Helvetica,sans-Serif" font-size="10.00">/github/workspace/benchmark</text>
<text text-anchor="middle" x="733.25" y="-11.38" font-family="Helvetica,sans-Serif" font-size="10.00">/update_1x1x1.cpp</text>
</a>
</g>
</g>
<!-- Node2&#45;&gt;Node7 -->
<g id="edge6_Node000002_Node000007" class="edge">
<title>Node2&#45;&gt;Node7</title>
<g id="a_edge6_Node000002_Node000007"><a xlink:title=" ">
<path fill="none" stroke="#63b8ff" d="M3162.85,-91.39C2777.18,-88.18 1053.22,-72.22 816.25,-41.75 806.84,-40.54 796.95,-38.69 787.41,-36.6"/>
<polygon fill="#63b8ff" stroke="#63b8ff" points="3162.59,-94.89 3172.62,-91.47 3162.65,-87.89 3162.59,-94.89"/>
</a>
</g>
</g>
<!-- Node8 -->
<g id="Node000008" class="node">
<title>Node8</title>
<g id="a_Node000008"><a xlink:href="update__linalg__xx0_8cpp.xhtml" target="_top" xlink:title=" ">
<polygon fill="white" stroke="#666666" points="971.5,-36.12 825,-36.12 825,-5.62 971.5,-5.62 971.5,-36.12"/>
<text text-anchor="start" x="833" y="-22.62" font-family="Helvetica,sans-Serif" font-size="10.00">/github/workspace/benchmark</text>
<text text-anchor="middle" x="898.25" y="-11.38" font-family="Helvetica,sans-Serif" font-size="10.00">/update_linalg_xx0.cpp</text>
</a>
</g>
</g>
<!-- Node2&#45;&gt;Node8 -->
<g id="edge7_Node000002_Node000008" class="edge">
<title>Node2&#45;&gt;Node8</title>
<g id="a_edge7_Node000002_Node000008"><a xlink:title=" ">
<path fill="none" stroke="#63b8ff" d="M3163,-91.28C2793.75,-87.66 1200.12,-70.5 980.25,-41.75 970.95,-40.53 961.18,-38.68 951.75,-36.59"/>
<polygon fill="#63b8ff" stroke="#63b8ff" points="3162.79,-94.78 3172.83,-91.38 3162.86,-87.78 3162.79,-94.78"/>
</a>
</g>
</g>
<!-- Node9 -->
<g id="Node000009" class="node">
<title>Node9</title>
<g id="a_Node000009"><a xlink:href="ekf__4x1x0__soaring_8cpp.xhtml" target="_top" xlink:title=" ">
<polygon fill="white" stroke="#666666" points="1119.25,-36.12 989.25,-36.12 989.25,-5.62 1119.25,-5.62 1119.25,-36.12"/>
<text text-anchor="start" x="997.25" y="-22.62" font-family="Helvetica,sans-Serif" font-size="10.00">/github/workspace/sample</text>
<text text-anchor="middle" x="1054.25" y="-11.38" font-family="Helvetica,sans-Serif" font-size="10.00">/ekf_4x1x0_soaring.cpp</text>
</a>
</g>
</g>
<!-- Node2&#45;&gt;Node9 -->
<g id="edge8_Node000002_Node000009" class="edge">
<title>Node2&#45;&gt;Node9</title>
<g id="a_edge8_Node000002_Node000009"><a xlink:title=" ">
<path fill="none" stroke="#63b8ff" d="M3162.86,-91.26C2808.39,-87.69 1332.35,-71.16 1128.25,-41.75 1119.82,-40.54 1110.99,-38.69 1102.47,-36.6"/>
<polygon fill="#63b8ff" stroke="#63b8ff" points="3162.71,-94.76 3172.74,-91.36 3162.78,-87.76 3162.71,-94.76"/>
</a>
</g>
</g>
<!-- Node10 -->
<g id="Node000010" class="node">
<title>Node10</title>
<g id="a_Node000010"><a xlink:href="kf__1x1x0__building__height_8cpp.xhtml" target="_top" xlink:title=" ">
<polygon fill="white" stroke="#666666" points="1282.75,-36.12 1137.75,-36.12 1137.75,-5.62 1282.75,-5.62 1282.75,-36.12"/>
<text text-anchor="start" x="1145.75" y="-22.62" font-family="Helvetica,sans-Serif" font-size="10.00">/github/workspace/sample</text>
<text text-anchor="middle" x="1210.25" y="-11.38" font-family="Helvetica,sans-Serif" font-size="10.00">/kf_1x1x0_building_height.cpp</text>
</a>
</g>
</g>
<!-- Node2&#45;&gt;Node10 -->
<g id="edge9_Node000002_Node000010" class="edge">
<title>Node2&#45;&gt;Node10</title>
<g id="a_edge9_Node000002_Node000010"><a xlink:title=" ">
<path fill="none" stroke="#63b8ff" d="M3162.98,-92.19C2850.03,-92.63 1663.51,-90.97 1292.25,-41.75 1282.96,-40.52 1273.18,-38.66 1263.75,-36.57"/>
<polygon fill="#63b8ff" stroke="#63b8ff" points="3162.67,-95.69 3172.66,-92.17 3162.66,-88.69 3162.67,-95.69"/>
</a>
</g>
</g>
<!-- Node11 -->
<g id="Node000011" class="node">
<title>Node11</title>
<g id="a_Node000011"><a xlink:href="kf__1x1x0__building__height__unit_8cpp.xhtml" target="_top" xlink:title=" ">
<polygon fill="white" stroke="#666666" points="1431.25,-41.75 1301.25,-41.75 1301.25,0 1431.25,0 1431.25,-41.75"/>
<text text-anchor="start" x="1309.25" y="-28.25" font-family="Helvetica,sans-Serif" font-size="10.00">/github/workspace/sample</text>
<text text-anchor="start" x="1309.25" y="-17" font-family="Helvetica,sans-Serif" font-size="10.00">/kf_1x1x0_building_height</text>
<text text-anchor="middle" x="1366.25" y="-5.75" font-family="Helvetica,sans-Serif" font-size="10.00">_unit.cpp</text>
</a>
</g>
</g>
<!-- Node2&#45;&gt;Node11 -->
<g id="edge10_Node000002_Node000011" class="edge">
<title>Node2&#45;&gt;Node11</title>
<g id="a_edge10_Node000002_Node000011"><a xlink:title=" ">
<path fill="none" stroke="#63b8ff" d="M3162.95,-92.25C2865.1,-92.84 1780.42,-91.48 1440.25,-41.75 1437.35,-41.33 1434.41,-40.83 1431.45,-40.27"/>
<polygon fill="#63b8ff" stroke="#63b8ff" points="3162.95,-95.75 3172.95,-92.23 3162.94,-88.75 3162.95,-95.75"/>
</a>
</g>
</g>
<!-- Node12 -->
<g id="Node000012" class="node">
<title>Node12</title>
<g id="a_Node000012"><a xlink:href="kf__1x1x0__liquid__temperature_8cpp.xhtml" target="_top" xlink:title=" ">
<polygon fill="white" stroke="#666666" points="1609.25,-36.12 1449.25,-36.12 1449.25,-5.62 1609.25,-5.62 1609.25,-36.12"/>
<text text-anchor="start" x="1457.25" y="-22.62" font-family="Helvetica,sans-Serif" font-size="10.00">/github/workspace/sample</text>
<text text-anchor="middle" x="1529.25" y="-11.38" font-family="Helvetica,sans-Serif" font-size="10.00">/kf_1x1x0_liquid_temperature.cpp</text>
</a>
</g>
</g>
<!-- Node2&#45;&gt;Node12 -->
<g id="edge11_Node000002_Node000012" class="edge">
<title>Node2&#45;&gt;Node12</title>
<g id="a_edge11_Node000002_Node000012"><a xlink:title=" ">
<path fill="none" stroke="#63b8ff" d="M3163.22,-91.55C2885.03,-89.59 1922.88,-80.14 1618.25,-41.75 1608.35,-40.5 1597.94,-38.67 1587.86,-36.61"/>
<polygon fill="#63b8ff" stroke="#63b8ff" points="3162.85,-95.04 3172.88,-91.61 3162.9,-88.04 3162.85,-95.04"/>
</a>
</g>
</g>
<!-- Node13 -->
<g id="Node000013" class="node">
<title>Node13</title>
<g id="a_Node000013"><a xlink:href="kf__1x1x0__liquid__temperature__unit_8cpp.xhtml" target="_top" xlink:title=" ">
<polygon fill="white" stroke="#666666" points="1769.25,-41.75 1627.25,-41.75 1627.25,0 1769.25,0 1769.25,-41.75"/>
<text text-anchor="start" x="1635.25" y="-28.25" font-family="Helvetica,sans-Serif" font-size="10.00">/github/workspace/sample</text>
<text text-anchor="start" x="1635.25" y="-17" font-family="Helvetica,sans-Serif" font-size="10.00">/kf_1x1x0_liquid_temperature</text>
<text text-anchor="middle" x="1698.25" y="-5.75" font-family="Helvetica,sans-Serif" font-size="10.00">_unit.cpp</text>
</a>
</g>
</g>
<!-- Node2&#45;&gt;Node13 -->
<g id="edge12_Node000002_Node000013" class="edge">
<title>Node2&#45;&gt;Node13</title>
<g id="a_edge12_Node000002_Node000013"><a xlink:title=" ">
<path fill="none" stroke="#63b8ff" d="M3162.97,-91.48C2902.52,-89.38 2049.6,-79.7 1778.25,-41.75 1775.42,-41.35 1772.54,-40.9 1769.63,-40.39"/>
<polygon fill="#63b8ff" stroke="#63b8ff" points="3162.64,-94.98 3172.67,-91.56 3162.7,-87.98 3162.64,-94.98"/>
</a>
</g>
</g>
<!-- Node14 -->
<g id="Node000014" class="node">
<title>Node14</title>
<g id="a_Node000014"><a xlink:href="kf__1x1x1__dog__position_8cpp.xhtml" target="_top" xlink:title=" ">
<polygon fill="white" stroke="#666666" points="1922.88,-36.12 1787.62,-36.12 1787.62,-5.62 1922.88,-5.62 1922.88,-36.12"/>
<text text-anchor="start" x="1795.62" y="-22.62" font-family="Helvetica,sans-Serif" font-size="10.00">/github/workspace/sample</text>
<text text-anchor="middle" x="1855.25" y="-11.38" font-family="Helvetica,sans-Serif" font-size="10.00">/kf_1x1x1_dog_position.cpp</text>
</a>
</g>
</g>
<!-- Node2&#45;&gt;Node14 -->
<g id="edge13_Node000002_Node000014" class="edge">
<title>Node2&#45;&gt;Node14</title>
<g id="a_edge13_Node000002_Node000014"><a xlink:title=" ">
<path fill="none" stroke="#63b8ff" d="M3162.99,-91.21C2920.97,-88.37 2172.1,-76.9 1932.25,-41.75 1923.64,-40.49 1914.61,-38.64 1905.88,-36.58"/>
<polygon fill="#63b8ff" stroke="#63b8ff" points="3162.91,-94.71 3172.95,-91.33 3162.99,-87.71 3162.91,-94.71"/>
</a>
</g>
</g>
<!-- Node15 -->
<g id="Node000015" class="node">
<title>Node15</title>
<g id="a_Node000015"><a xlink:href="kf__1x1x1__dog__position__unit_8cpp.xhtml" target="_top" xlink:title=" ">
<polygon fill="white" stroke="#666666" points="2071.25,-41.75 1941.25,-41.75 1941.25,0 2071.25,0 2071.25,-41.75"/>
<text text-anchor="start" x="1949.25" y="-28.25" font-family="Helvetica,sans-Serif" font-size="10.00">/github/workspace/sample</text>
<text text-anchor="start" x="1949.25" y="-17" font-family="Helvetica,sans-Serif" font-size="10.00">/kf_1x1x1_dog_position</text>
<text text-anchor="middle" x="2006.25" y="-5.75" font-family="Helvetica,sans-Serif" font-size="10.00">_unit.cpp</text>
</a>
</g>
</g>
<!-- Node2&#45;&gt;Node15 -->
<g id="edge14_Node000002_Node000015" class="edge">
<title>Node2&#45;&gt;Node15</title>
<g id="a_edge14_Node000002_Node000015"><a xlink:title=" ">
<path fill="none" stroke="#63b8ff" d="M3162.96,-90.87C2939.65,-87.22 2289.97,-74.06 2080.25,-41.75 2077.36,-41.3 2074.42,-40.79 2071.45,-40.22"/>
<polygon fill="#63b8ff" stroke="#63b8ff" points="3162.64,-94.37 3172.7,-91.03 3162.76,-87.37 3162.64,-94.37"/>
</a>
</g>
</g>
<!-- Node16 -->
<g id="Node000016" class="node">
<title>Node16</title>
<g id="a_Node000016"><a xlink:href="kf__2x1x1__rocket__altitude_8cpp.xhtml" target="_top" xlink:title=" ">
<polygon fill="white" stroke="#666666" points="2233.38,-36.12 2089.12,-36.12 2089.12,-5.62 2233.38,-5.62 2233.38,-36.12"/>
<text text-anchor="start" x="2097.12" y="-22.62" font-family="Helvetica,sans-Serif" font-size="10.00">/github/workspace/sample</text>
<text text-anchor="middle" x="2161.25" y="-11.38" font-family="Helvetica,sans-Serif" font-size="10.00">/kf_2x1x1_rocket_altitude.cpp</text>
</a>
</g>
</g>
<!-- Node2&#45;&gt;Node16 -->
<g id="edge15_Node000002_Node000016" class="edge">
<title>Node2&#45;&gt;Node16</title>
<g id="a_edge15_Node000002_Node000016"><a xlink:title=" ">
<path fill="none" stroke="#63b8ff" d="M3163.11,-90.04C2961.96,-84.56 2419.72,-67.75 2242.25,-41.75 2233.37,-40.45 2224.04,-38.61 2214.99,-36.58"/>
<polygon fill="#63b8ff" stroke="#63b8ff" points="3162.83,-93.53 3172.92,-90.3 3163.02,-86.53 3162.83,-93.53"/>
</a>
</g>
</g>
<!-- Node17 -->
<g id="Node000017" class="node">
<title>Node17</title>
<g id="a_Node000017"><a xlink:href="kf__6x2x0__vehicle__location_8cpp.xhtml" target="_top" xlink:title=" ">
<polygon fill="white" stroke="#666666" points="2401.38,-36.12 2251.12,-36.12 2251.12,-5.62 2401.38,-5.62 2401.38,-36.12"/>
<text text-anchor="start" x="2259.12" y="-22.62" font-family="Helvetica,sans-Serif" font-size="10.00">/github/workspace/sample</text>
<text text-anchor="middle" x="2326.25" y="-11.38" font-family="Helvetica,sans-Serif" font-size="10.00">/kf_6x2x0_vehicle_location.cpp</text>
</a>
</g>
</g>
<!-- Node2&#45;&gt;Node17 -->
<g id="edge16_Node000002_Node000017" class="edge">
<title>Node2&#45;&gt;Node17</title>
<g id="a_edge16_Node000002_Node000017"><a xlink:title=" ">
<path fill="none" stroke="#63b8ff" d="M3162.86,-91.74C3016.18,-90.28 2685.24,-82.31 2410.25,-41.75 2401.21,-40.42 2391.7,-38.59 2382.47,-36.58"/>
<polygon fill="#63b8ff" stroke="#63b8ff" points="3162.82,-95.24 3172.85,-91.83 3162.88,-88.24 3162.82,-95.24"/>
</a>
</g>
</g>
<!-- Node18 -->
<g id="Node000018" class="node">
<title>Node18</title>
<g id="a_Node000018"><a xlink:href="kf__6x2x0__vehicle__location__unit_8cpp.xhtml" target="_top" xlink:title=" ">
<polygon fill="white" stroke="#666666" points="2551.38,-41.75 2419.12,-41.75 2419.12,0 2551.38,0 2551.38,-41.75"/>
<text text-anchor="start" x="2427.12" y="-28.25" font-family="Helvetica,sans-Serif" font-size="10.00">/github/workspace/sample</text>
<text text-anchor="start" x="2427.12" y="-17" font-family="Helvetica,sans-Serif" font-size="10.00">/kf_6x2x0_vehicle_location</text>
<text text-anchor="middle" x="2485.25" y="-5.75" font-family="Helvetica,sans-Serif" font-size="10.00">_unit.cpp</text>
</a>
</g>
</g>
<!-- Node2&#45;&gt;Node18 -->
<g id="edge17_Node000002_Node000018" class="edge">
<title>Node2&#45;&gt;Node18</title>
<g id="a_edge17_Node000002_Node000018"><a xlink:title=" ">
<path fill="none" stroke="#63b8ff" d="M3162.74,-90.94C3036.43,-88.17 2776.72,-78.12 2560.25,-41.75 2557.46,-41.28 2554.62,-40.76 2551.77,-40.19"/>
<polygon fill="#63b8ff" stroke="#63b8ff" points="3162.59,-94.44 3172.66,-91.15 3162.74,-87.44 3162.59,-94.44"/>
</a>
</g>
</g>
<!-- Node19 -->
<g id="Node000019" class="node">
<title>Node19</title>
<g id="a_Node000019"><a xlink:href="kf__8x4x0__deep__sort__bounding__box_8cpp.xhtml" target="_top" xlink:title=" ">
<polygon fill="white" stroke="#666666" points="2719,-41.75 2569.5,-41.75 2569.5,0 2719,0 2719,-41.75"/>
<text text-anchor="start" x="2577.5" y="-28.25" font-family="Helvetica,sans-Serif" font-size="10.00">/github/workspace/sample</text>
<text text-anchor="start" x="2577.5" y="-17" font-family="Helvetica,sans-Serif" font-size="10.00">/kf_8x4x0_deep_sort_bounding</text>
<text text-anchor="middle" x="2644.25" y="-5.75" font-family="Helvetica,sans-Serif" font-size="10.00">_box.cpp</text>
</a>
</g>
</g>
<!-- Node2&#45;&gt;Node19 -->
<g id="edge18_Node000002_Node000019" class="edge">
<title>Node2&#45;&gt;Node19</title>
<g id="a_edge18_Node000002_Node000019"><a xlink:title=" ">
<path fill="none" stroke="#63b8ff" d="M3163.13,-87.72C3062.92,-81.35 2881.5,-67.3 2728.25,-41.75 2725.29,-41.26 2722.29,-40.72 2719.25,-40.15"/>
<polygon fill="#63b8ff" stroke="#63b8ff" points="3162.64,-91.19 3172.84,-88.32 3163.08,-84.21 3162.64,-91.19"/>
</a>
</g>
</g>
<!-- Node20 -->
<g id="Node000020" class="node">
<title>Node20</title>
<g id="a_Node000020"><a xlink:href="kalman__assign__move__5x4x3_8cpp.xhtml" target="_top" xlink:title=" ">
<polygon fill="white" stroke="#666666" points="2899,-36.12 2737.5,-36.12 2737.5,-5.62 2899,-5.62 2899,-36.12"/>
<text text-anchor="start" x="2745.5" y="-22.62" font-family="Helvetica,sans-Serif" font-size="10.00">/github/workspace/test</text>
<text text-anchor="middle" x="2818.25" y="-11.38" font-family="Helvetica,sans-Serif" font-size="10.00">/kalman_assign_move_5x4x3.cpp</text>
</a>
</g>
</g>
<!-- Node2&#45;&gt;Node20 -->
<g id="edge19_Node000002_Node000020" class="edge">
<title>Node2&#45;&gt;Node20</title>
<g id="a_edge19_Node000002_Node000020"><a xlink:title=" ">
<path fill="none" stroke="#63b8ff" d="M3162.77,-81.96C3095.32,-72.74 2994.46,-58.07 2907.25,-41.75 2898.85,-40.18 2890.03,-38.38 2881.34,-36.53"/>
<polygon fill="#63b8ff" stroke="#63b8ff" points="3162.26,-85.42 3172.64,-83.3 3163.2,-78.49 3162.26,-85.42"/>
</a>
</g>
</g>
<!-- Node21 -->
<g id="Node000021" class="node">
<title>Node21</title>
<g id="a_Node000021"><a xlink:href="kalman__constructor__default_8cpp.xhtml" target="_top" xlink:title=" ">
<polygon fill="white" stroke="#666666" points="3073.75,-36.12 2916.75,-36.12 2916.75,-5.62 3073.75,-5.62 3073.75,-36.12"/>
<text text-anchor="start" x="2924.75" y="-22.62" font-family="Helvetica,sans-Serif" font-size="10.00">/github/workspace/test</text>
<text text-anchor="middle" x="2995.25" y="-11.38" font-family="Helvetica,sans-Serif" font-size="10.00">/kalman_constructor_default.cpp</text>
</a>
</g>
</g>
<!-- Node2&#45;&gt;Node21 -->
<g id="edge20_Node000002_Node000021" class="edge">
<title>Node2&#45;&gt;Node21</title>
<g id="a_edge20_Node000002_Node000021"><a xlink:title=" ">
<path fill="none" stroke="#63b8ff" d="M3177.27,-74.19C3136.75,-62.54 3084.46,-47.51 3046.33,-36.56"/>
<polygon fill="#63b8ff" stroke="#63b8ff" points="3176.07,-77.48 3186.64,-76.88 3178,-70.76 3176.07,-77.48"/>
</a>
</g>
</g>
<!-- Node22 -->
<g id="Node000022" class="node">
<title>Node22</title>
<g id="a_Node000022"><a xlink:href="kalman__constructor__default__1x1x3_8cpp.xhtml" target="_top" xlink:title=" ">
<polygon fill="white" stroke="#666666" points="3230.75,-41.75 3091.75,-41.75 3091.75,0 3230.75,0 3230.75,-41.75"/>
<text text-anchor="start" x="3099.75" y="-28.25" font-family="Helvetica,sans-Serif" font-size="10.00">/github/workspace/test</text>
<text text-anchor="start" x="3099.75" y="-17" font-family="Helvetica,sans-Serif" font-size="10.00">/kalman_constructor_default</text>
<text text-anchor="middle" x="3161.25" y="-5.75" font-family="Helvetica,sans-Serif" font-size="10.00">_1x1x3.cpp</text>
</a>
</g>
</g>
<!-- Node2&#45;&gt;Node22 -->
<g id="edge21_Node000002_Node000022" class="edge">
<title>Node2&#45;&gt;Node22</title>
<g id="a_edge21_Node000002_Node000022"><a xlink:title=" ">
<path fill="none" stroke="#63b8ff" d="M3214.55,-69.79C3204.73,-60.97 3193.51,-50.87 3183.9,-42.24"/>
<polygon fill="#63b8ff" stroke="#63b8ff" points="3212.19,-72.38 3221.96,-76.46 3216.87,-67.17 3212.19,-72.38"/>
</a>
</g>
</g>
<!-- Node23 -->
<g id="Node000023" class="node">
<title>Node23</title>
<g id="a_Node000023"><a xlink:href="kalman__constructor__default__1x4x1_8cpp.xhtml" target="_top" xlink:title=" ">
<polygon fill="white" stroke="#666666" points="3387.75,-41.75 3248.75,-41.75 3248.75,0 3387.75,0 3387.75,-41.75"/>
<text text-anchor="start" x="3256.75" y="-28.25" font-family="Helvetica,sans-Serif" font-size="10.00">/github/workspace/test</text>
<text text-anchor="start" x="3256.75" y="-17" font-family="Helvetica,sans-Serif" font-size="10.00">/kalman_constructor_default</text>
<text text-anchor="middle" x="3318.25" y="-5.75" font-family="Helvetica,sans-Serif" font-size="10.00">_1x4x1.cpp</text>
</a>
</g>
</g>
<!-- Node2&#45;&gt;Node23 -->
<g id="edge22_Node000002_Node000023" class="edge">
<title>Node2&#45;&gt;Node23</title>
<g id="a_edge22_Node000002_Node000023"><a xlink:title=" ">
<path fill="none" stroke="#63b8ff" d="M3263.96,-70.06C3273.98,-61.17 3285.48,-50.96 3295.31,-42.24"/>
<polygon fill="#63b8ff" stroke="#63b8ff" points="3261.91,-67.21 3256.75,-76.47 3266.55,-72.44 3261.91,-67.21"/>
</a>
</g>
</g>
<!-- Node24 -->
<g id="Node000024" class="node">
<title>Node24</title>
<g id="a_Node000024"><a xlink:href="kalman__constructor__default__1x4x3_8cpp.xhtml" target="_top" xlink:title=" ">
<polygon fill="white" stroke="#666666" points="3544.75,-41.75 3405.75,-41.75 3405.75,0 3544.75,0 3544.75,-41.75"/>
<text text-anchor="start" x="3413.75" y="-28.25" font-family="Helvetica,sans-Serif" font-size="10.00">/github/workspace/test</text>
<text text-anchor="start" x="3413.75" y="-17" font-family="Helvetica,sans-Serif" font-size="10.00">/kalman_constructor_default</text>
<text text-anchor="middle" x="3475.25" y="-5.75" font-family="Helvetica,sans-Serif" font-size="10.00">_1x4x3.cpp</text>
</a>
</g>
</g>
<!-- Node2&#45;&gt;Node24 -->
<g id="edge23_Node000002_Node000024" class="edge">
<title>Node2&#45;&gt;Node24</title>
<g id="a_edge23_Node000002_Node000024"><a xlink:title=" ">
<path fill="none" stroke="#63b8ff" d="M3299.53,-74.09C3332.35,-64.34 3373.07,-52.24 3407.05,-42.14"/>
<polygon fill="#63b8ff" stroke="#63b8ff" points="3298.76,-70.66 3290.17,-76.87 3300.76,-77.38 3298.76,-70.66"/>
</a>
</g>
</g>
<!-- Node25 -->
<g id="Node000025" class="node">
<title>Node25</title>
<g id="a_Node000025"><a xlink:href="kalman__constructor__default__5x1x1_8cpp.xhtml" target="_top" xlink:title=" ">
<polygon fill="white" stroke="#666666" points="3701.75,-41.75 3562.75,-41.75 3562.75,0 3701.75,0 3701.75,-41.75"/>
<text text-anchor="start" x="3570.75" y="-28.25" font-family="Helvetica,sans-Serif" font-size="10.00">/github/workspace/test</text>
<text text-anchor="start" x="3570.75" y="-17" font-family="Helvetica,sans-Serif" font-size="10.00">/kalman_constructor_default</text>
<text text-anchor="middle" x="3632.25" y="-5.75" font-family="Helvetica,sans-Serif" font-size="10.00">_5x1x1.cpp</text>
</a>
</g>
</g>
<!-- Node2&#45;&gt;Node25 -->
<g id="edge24_Node000002_Node000025" class="edge">
<title>Node2&#45;&gt;Node25</title>
<g id="a_edge24_Node000002_Node000025"><a xlink:title=" ">
<path fill="none" stroke="#63b8ff" d="M3315.32,-81.85C3379.34,-72.84 3473.16,-58.51 3554.25,-41.75 3556.99,-41.18 3559.77,-40.59 3562.58,-39.96"/>
<polygon fill="#63b8ff" stroke="#63b8ff" points="3315.03,-78.36 3305.61,-83.21 3316,-85.29 3315.03,-78.36"/>
</a>
</g>
</g>
<!-- Node26 -->
<g id="Node000026" class="node">
<title>Node26</title>
<g id="a_Node000026"><a xlink:href="kalman__constructor__default__5x1x3_8cpp.xhtml" target="_top" xlink:title=" ">
<polygon fill="white" stroke="#666666" points="3858.75,-41.75 3719.75,-41.75 3719.75,0 3858.75,0 3858.75,-41.75"/>
<text text-anchor="start" x="3727.75" y="-28.25" font-family="Helvetica,sans-Serif" font-size="10.00">/github/workspace/test</text>
<text text-anchor="start" x="3727.75" y="-17" font-family="Helvetica,sans-Serif" font-size="10.00">/kalman_constructor_default</text>
<text text-anchor="middle" x="3789.25" y="-5.75" font-family="Helvetica,sans-Serif" font-size="10.00">_5x1x3.cpp</text>
</a>
</g>
</g>
<!-- Node2&#45;&gt;Node26 -->
<g id="edge25_Node000002_Node000026" class="edge">
<title>Node2&#45;&gt;Node26</title>
<g id="a_edge25_Node000002_Node000026"><a xlink:title=" ">
<path fill="none" stroke="#63b8ff" d="M3315.53,-87.26C3409.25,-80.66 3572.85,-66.62 3711.25,-41.75 3714,-41.26 3716.8,-40.72 3719.62,-40.14"/>
<polygon fill="#63b8ff" stroke="#63b8ff" points="3315.42,-83.76 3305.69,-87.94 3315.91,-90.74 3315.42,-83.76"/>
</a>
</g>
</g>
<!-- Node27 -->
<g id="Node000027" class="node">
<title>Node27</title>
<g id="a_Node000027"><a xlink:href="kalman__constructor__default__5x4x0_8cpp.xhtml" target="_top" xlink:title=" ">
<polygon fill="white" stroke="#666666" points="4015.75,-41.75 3876.75,-41.75 3876.75,0 4015.75,0 4015.75,-41.75"/>
<text text-anchor="start" x="3884.75" y="-28.25" font-family="Helvetica,sans-Serif" font-size="10.00">/github/workspace/test</text>
<text text-anchor="start" x="3884.75" y="-17" font-family="Helvetica,sans-Serif" font-size="10.00">/kalman_constructor_default</text>
<text text-anchor="middle" x="3946.25" y="-5.75" font-family="Helvetica,sans-Serif" font-size="10.00">_5x4x0.cpp</text>
</a>
</g>
</g>
<!-- Node2&#45;&gt;Node27 -->
<g id="edge26_Node000002_Node000027" class="edge">
<title>Node2&#45;&gt;Node27</title>
<g id="a_edge26_Node000002_Node000027"><a xlink:title=" ">
<path fill="none" stroke="#63b8ff" d="M3315.45,-90.08C3434.28,-86.15 3670.58,-74.58 3868.25,-41.75 3871.01,-41.29 3873.81,-40.78 3876.63,-40.24"/>
<polygon fill="#63b8ff" stroke="#63b8ff" points="3315.38,-86.58 3305.49,-90.4 3315.6,-93.58 3315.38,-86.58"/>
</a>
</g>
</g>
<!-- Node28 -->
<g id="Node000028" class="node">
<title>Node28</title>
<g id="a_Node000028"><a xlink:href="kalman__constructor__default__5x4x1_8cpp.xhtml" target="_top" xlink:title=" ">
<polygon fill="white" stroke="#666666" points="4172.75,-41.75 4033.75,-41.75 4033.75,0 4172.75,0 4172.75,-41.75"/>
<text text-anchor="start" x="4041.75" y="-28.25" font-family="Helvetica,sans-Serif" font-size="10.00">/github/workspace/test</text>
<text text-anchor="start" x="4041.75" y="-17" font-family="Helvetica,sans-Serif" font-size="10.00">/kalman_constructor_default</text>
<text text-anchor="middle" x="4103.25" y="-5.75" font-family="Helvetica,sans-Serif" font-size="10.00">_5x4x1.cpp</text>
</a>
</g>
</g>
<!-- Node2&#45;&gt;Node28 -->
<g id="edge27_Node000002_Node000028" class="edge">
<title>Node2&#45;&gt;Node28</title>
<g id="a_edge27_Node000002_Node000028"><a xlink:title=" ">
<path fill="none" stroke="#63b8ff" d="M3315.63,-91.81C3456.7,-90.42 3767.27,-82.5 4025.25,-41.75 4028.01,-41.31 4030.82,-40.82 4033.64,-40.29"/>
<polygon fill="#63b8ff" stroke="#63b8ff" points="3315.62,-88.31 3305.65,-91.9 3315.68,-95.31 3315.62,-88.31"/>
</a>
</g>
</g>
<!-- Node29 -->
<g id="Node000029" class="node">
<title>Node29</title>
<g id="a_Node000029"><a xlink:href="kalman__constructor__default__5x4x3_8cpp.xhtml" target="_top" xlink:title=" ">
<polygon fill="white" stroke="#666666" points="4329.75,-41.75 4190.75,-41.75 4190.75,0 4329.75,0 4329.75,-41.75"/>
<text text-anchor="start" x="4198.75" y="-28.25" font-family="Helvetica,sans-Serif" font-size="10.00">/github/workspace/test</text>
<text text-anchor="start" x="4198.75" y="-17" font-family="Helvetica,sans-Serif" font-size="10.00">/kalman_constructor_default</text>
<text text-anchor="middle" x="4260.25" y="-5.75" font-family="Helvetica,sans-Serif" font-size="10.00">_5x4x3.cpp</text>
</a>
</g>
</g>
<!-- Node2&#45;&gt;Node29 -->
<g id="edge28_Node000002_Node000029" class="edge">
<title>Node2&#45;&gt;Node29</title>
<g id="a_edge28_Node000002_Node000029"><a xlink:title=" ">
<path fill="none" stroke="#63b8ff" d="M3315.62,-89.86C3509.25,-84.14 4015.78,-67.14 4182.25,-41.75 4185.01,-41.33 4187.82,-40.85 4190.65,-40.33"/>
<polygon fill="#63b8ff" stroke="#63b8ff" points="3315.56,-86.36 3305.66,-90.16 3315.76,-93.36 3315.56,-86.36"/>
</a>
</g>
</g>
<!-- Node30 -->
<g id="Node000030" class="node">
<title>Node30</title>
<g id="a_Node000030"><a xlink:href="kalman__constructor__default__float__1x1x1_8cpp.xhtml" target="_top" xlink:title=" ">
<polygon fill="white" stroke="#666666" points="4486.75,-41.75 4347.75,-41.75 4347.75,0 4486.75,0 4486.75,-41.75"/>
<text text-anchor="start" x="4355.75" y="-28.25" font-family="Helvetica,sans-Serif" font-size="10.00">/github/workspace/test</text>
<text text-anchor="start" x="4355.75" y="-17" font-family="Helvetica,sans-Serif" font-size="10.00">/kalman_constructor_default</text>
<text text-anchor="middle" x="4417.25" y="-5.75" font-family="Helvetica,sans-Serif" font-size="10.00">_float_1x1x1.cpp</text>
</a>
</g>
</g>
<!-- Node2&#45;&gt;Node30 -->
<g id="edge29_Node000002_Node000030" class="edge">
<title>Node2&#45;&gt;Node30</title>
<g id="a_edge29_Node000002_Node000030"><a xlink:title=" ">
<path fill="none" stroke="#63b8ff" d="M3315.65,-90.54C3531.21,-86.09 4141.27,-71.18 4339.25,-41.75 4342.01,-41.34 4344.82,-40.87 4347.65,-40.36"/>
<polygon fill="#63b8ff" stroke="#63b8ff" points="3315.6,-87.04 3305.68,-90.74 3315.75,-94.04 3315.6,-87.04"/>
</a>
</g>
</g>
<!-- Node31 -->
<g id="Node000031" class="node">
<title>Node31</title>
<g id="a_Node000031"><a xlink:href="kalman__constructor__move__5x4x3_8cpp.xhtml" target="_top" xlink:title=" ">
<polygon fill="white" stroke="#666666" points="4638.12,-41.75 4504.38,-41.75 4504.38,0 4638.12,0 4638.12,-41.75"/>
<text text-anchor="start" x="4512.38" y="-28.25" font-family="Helvetica,sans-Serif" font-size="10.00">/github/workspace/test</text>
<text text-anchor="start" x="4512.38" y="-17" font-family="Helvetica,sans-Serif" font-size="10.00">/kalman_constructor_move</text>
<text text-anchor="middle" x="4571.25" y="-5.75" font-family="Helvetica,sans-Serif" font-size="10.00">_5x4x3.cpp</text>
</a>
</g>
</g>
<!-- Node2&#45;&gt;Node31 -->
<g id="edge30_Node000002_Node000031" class="edge">
<title>Node2&#45;&gt;Node31</title>
<g id="a_edge30_Node000002_Node000031"><a xlink:title=" ">
<path fill="none" stroke="#63b8ff" d="M3315.45,-91.14C3551.2,-88.14 4266.63,-76.34 4496.25,-41.75 4498.78,-41.37 4501.35,-40.93 4503.94,-40.46"/>
<polygon fill="#63b8ff" stroke="#63b8ff" points="3315.72,-87.64 3305.77,-91.26 3315.81,-94.64 3315.72,-87.64"/>
</a>
</g>
</g>
<!-- Node32 -->
<g id="Node000032" class="node">
<title>Node32</title>
<g id="a_Node000032"><a xlink:href="kalman__f_8cpp.xhtml" target="_top" xlink:title=" ">
<polygon fill="white" stroke="#666666" points="4770.75,-36.12 4655.75,-36.12 4655.75,-5.62 4770.75,-5.62 4770.75,-36.12"/>
<text text-anchor="start" x="4663.75" y="-22.62" font-family="Helvetica,sans-Serif" font-size="10.00">/github/workspace/test</text>
<text text-anchor="middle" x="4713.25" y="-11.38" font-family="Helvetica,sans-Serif" font-size="10.00">/kalman_f.cpp</text>
</a>
</g>
</g>
<!-- Node2&#45;&gt;Node32 -->
<g id="edge31_Node000002_Node000032" class="edge">
<title>Node2&#45;&gt;Node32</title>
<g id="a_edge31_Node000002_Node000032"><a xlink:title=" ">
<path fill="none" stroke="#63b8ff" d="M3315.38,-91.85C3569.58,-90.96 4387.6,-84.74 4647.25,-41.75 4654.81,-40.5 4662.71,-38.63 4670.31,-36.53"/>
<polygon fill="#63b8ff" stroke="#63b8ff" points="3315.57,-88.35 3305.58,-91.89 3315.59,-95.35 3315.57,-88.35"/>
</a>
</g>
</g>
<!-- Node33 -->
<g id="Node000033" class="node">
<title>Node33</title>
<g id="a_Node000033"><a xlink:href="kalman__f__5x4x3_8cpp.xhtml" target="_top" xlink:title=" ">
<polygon fill="white" stroke="#666666" points="4903.75,-36.12 4788.75,-36.12 4788.75,-5.62 4903.75,-5.62 4903.75,-36.12"/>
<text text-anchor="start" x="4796.75" y="-22.62" font-family="Helvetica,sans-Serif" font-size="10.00">/github/workspace/test</text>
<text text-anchor="middle" x="4846.25" y="-11.38" font-family="Helvetica,sans-Serif" font-size="10.00">/kalman_f_5x4x3.cpp</text>
</a>
</g>
</g>
<!-- Node2&#45;&gt;Node33 -->
<g id="edge32_Node000002_Node000033" class="edge">
<title>Node2&#45;&gt;Node33</title>
<g id="a_edge32_Node000002_Node000033"><a xlink:title=" ">
<path fill="none" stroke="#63b8ff" d="M3315.2,-92.13C3584.59,-92.18 4493.48,-88.78 4780.25,-41.75 4787.81,-40.51 4795.71,-38.65 4803.32,-36.55"/>
<polygon fill="#63b8ff" stroke="#63b8ff" points="3315.51,-88.63 3305.51,-92.13 3315.51,-95.63 3315.51,-88.63"/>
</a>
</g>
</g>
<!-- Node34 -->
<g id="Node000034" class="node">
<title>Node34</title>
<g id="a_Node000034"><a xlink:href="kalman__format_8cpp.xhtml" target="_top" xlink:title=" ">
<polygon fill="white" stroke="#666666" points="5036.75,-36.12 4921.75,-36.12 4921.75,-5.62 5036.75,-5.62 5036.75,-36.12"/>
<text text-anchor="start" x="4929.75" y="-22.62" font-family="Helvetica,sans-Serif" font-size="10.00">/github/workspace/test</text>
<text text-anchor="middle" x="4979.25" y="-11.38" font-family="Helvetica,sans-Serif" font-size="10.00">/kalman_format.cpp</text>
</a>
</g>
</g>
<!-- Node2&#45;&gt;Node34 -->
<g id="edge33_Node000002_Node000034" class="edge">
<title>Node2&#45;&gt;Node34</title>
<g id="a_edge33_Node000002_Node000034"><a xlink:title=" ">
<path fill="none" stroke="#63b8ff" d="M3315.45,-92.36C3599.91,-93.3 4599.41,-92.8 4913.25,-41.75 4920.81,-40.52 4928.71,-38.66 4936.32,-36.57"/>
<polygon fill="#63b8ff" stroke="#63b8ff" points="3315.56,-88.86 3305.55,-92.33 3315.54,-95.86 3315.56,-88.86"/>
</a>
</g>
</g>
<!-- Node35 -->
<g id="Node000035" class="node">
<title>Node35</title>
<g id="a_Node000035"><a xlink:href="kalman__format__1x4x3_8cpp.xhtml" target="_top" xlink:title=" ">
<polygon fill="white" stroke="#666666" points="5186,-36.12 5054.5,-36.12 5054.5,-5.62 5186,-5.62 5186,-36.12"/>
<text text-anchor="start" x="5062.5" y="-22.62" font-family="Helvetica,sans-Serif" font-size="10.00">/github/workspace/test</text>
<text text-anchor="middle" x="5120.25" y="-11.38" font-family="Helvetica,sans-Serif" font-size="10.00">/kalman_format_1x4x3.cpp</text>
</a>
</g>
</g>
<!-- Node2&#45;&gt;Node35 -->
<g id="edge34_Node000002_Node000035" class="edge">
<title>Node2&#45;&gt;Node35</title>
<g id="a_edge34_Node000002_Node000035"><a xlink:title=" ">
<path fill="none" stroke="#63b8ff" d="M3315.45,-92.26C3613.99,-92.9 4704.39,-91.7 5046.25,-41.75 5054.67,-40.52 5063.51,-38.66 5072.03,-36.57"/>
<polygon fill="#63b8ff" stroke="#63b8ff" points="3315.85,-88.76 3305.84,-92.24 3315.83,-95.76 3315.85,-88.76"/>
</a>
</g>
</g>
<!-- Node36 -->
<g id="Node000036" class="node">
<title>Node36</title>
<g id="a_Node000036"><a xlink:href="kalman__format__5x4x3_8cpp.xhtml" target="_top" xlink:title=" ">
<polygon fill="white" stroke="#666666" points="5336,-36.12 5204.5,-36.12 5204.5,-5.62 5336,-5.62 5336,-36.12"/>
<text text-anchor="start" x="5212.5" y="-22.62" font-family="Helvetica,sans-Serif" font-size="10.00">/github/workspace/test</text>
<text text-anchor="middle" x="5270.25" y="-11.38" font-family="Helvetica,sans-Serif" font-size="10.00">/kalman_format_5x4x3.cpp</text>
</a>
</g>
</g>
<!-- Node2&#45;&gt;Node36 -->
<g id="edge35_Node000002_Node000036" class="edge">
<title>Node2&#45;&gt;Node36</title>
<g id="a_edge35_Node000002_Node000036"><a xlink:title=" ">
<path fill="none" stroke="#63b8ff" d="M3315.38,-92.41C3629.09,-93.75 4822.61,-95.16 5195.25,-41.75 5203.78,-40.53 5212.74,-38.67 5221.37,-36.58"/>
<polygon fill="#63b8ff" stroke="#63b8ff" points="3315.68,-88.92 3305.67,-92.37 3315.65,-95.92 3315.68,-88.92"/>
</a>
</g>
</g>
<!-- Node37 -->
<g id="Node000037" class="node">
<title>Node37</title>
<g id="a_Node000037"><a xlink:href="kalman__format__arguments_8cpp.xhtml" target="_top" xlink:title=" ">
<polygon fill="white" stroke="#666666" points="5506.5,-36.12 5354,-36.12 5354,-5.62 5506.5,-5.62 5506.5,-36.12"/>
<text text-anchor="start" x="5362" y="-22.62" font-family="Helvetica,sans-Serif" font-size="10.00">/github/workspace/test</text>
<text text-anchor="middle" x="5430.25" y="-11.38" font-family="Helvetica,sans-Serif" font-size="10.00">/kalman_format_arguments.cpp</text>
</a>
</g>
</g>
<!-- Node2&#45;&gt;Node37 -->
<g id="edge36_Node000002_Node000037" class="edge">
<title>Node2&#45;&gt;Node37</title>
<g id="a_edge36_Node000002_Node000037"><a xlink:title=" ">
<path fill="none" stroke="#63b8ff" d="M3315.4,-92.28C3643.86,-93.17 4940.88,-93.29 5345.25,-41.75 5354.87,-40.52 5364.99,-38.67 5374.77,-36.58"/>
<polygon fill="#63b8ff" stroke="#63b8ff" points="3315.66,-88.78 3305.65,-92.25 3315.64,-95.78 3315.66,-88.78"/>
</a>
</g>
</g>
<!-- Node38 -->
<g id="Node000038" class="node">
<title>Node38</title>
<g id="a_Node000038"><a xlink:href="kalman__format__float__1x1x1_8cpp.xhtml" target="_top" xlink:title=" ">
<polygon fill="white" stroke="#666666" points="5679.62,-36.12 5524.88,-36.12 5524.88,-5.62 5679.62,-5.62 5679.62,-36.12"/>
<text text-anchor="start" x="5532.88" y="-22.62" font-family="Helvetica,sans-Serif" font-size="10.00">/github/workspace/test</text>
<text text-anchor="middle" x="5602.25" y="-11.38" font-family="Helvetica,sans-Serif" font-size="10.00">/kalman_format_float_1x1x1.cpp</text>
</a>
</g>
</g>
<!-- Node2&#45;&gt;Node38 -->
<g id="edge37_Node000002_Node000038" class="edge">
<title>Node2&#45;&gt;Node38</title>
<g id="a_edge37_Node000002_Node000038"><a xlink:title=" ">
<path fill="none" stroke="#63b8ff" d="M3315.51,-92.39C3660.29,-93.83 5075.55,-96.26 5515.25,-41.75 5525.09,-40.53 5535.45,-38.68 5545.45,-36.59"/>
<polygon fill="#63b8ff" stroke="#63b8ff" points="3315.71,-88.89 3305.7,-92.35 3315.68,-95.89 3315.71,-88.89"/>
</a>
</g>
</g>
<!-- Node39 -->
<g id="Node000039" class="node">
<title>Node39</title>
<g id="a_Node000039"><a xlink:href="kalman__h__5x4x3_8cpp.xhtml" target="_top" xlink:title=" ">
<polygon fill="white" stroke="#666666" points="5812.75,-36.12 5697.75,-36.12 5697.75,-5.62 5812.75,-5.62 5812.75,-36.12"/>
<text text-anchor="start" x="5705.75" y="-22.62" font-family="Helvetica,sans-Serif" font-size="10.00">/github/workspace/test</text>
<text text-anchor="middle" x="5755.25" y="-11.38" font-family="Helvetica,sans-Serif" font-size="10.00">/kalman_h_5x4x3.cpp</text>
</a>
</g>
</g>
<!-- Node2&#45;&gt;Node39 -->
<g id="edge38_Node000002_Node000039" class="edge">
<title>Node2&#45;&gt;Node39</title>
<g id="a_edge38_Node000002_Node000039"><a xlink:title=" ">
<path fill="none" stroke="#63b8ff" d="M3315.55,-91.65C3703.64,-89.7 5449.44,-78.93 5688.25,-41.75 5696.04,-40.54 5704.2,-38.66 5712.03,-36.53"/>
<polygon fill="#63b8ff" stroke="#63b8ff" points="3315.69,-88.15 3305.71,-91.7 3315.73,-95.15 3315.69,-88.15"/>
</a>
</g>
</g>
<!-- Node40 -->
<g id="Node000040" class="node">
<title>Node40</title>
<g id="a_Node000040"><a xlink:href="kalman__println__1x1x0_8cpp.xhtml" target="_top" xlink:title=" ">
<polygon fill="white" stroke="#666666" points="5961.25,-36.12 5831.25,-36.12 5831.25,-5.62 5961.25,-5.62 5961.25,-36.12"/>
<text text-anchor="start" x="5839.25" y="-22.62" font-family="Helvetica,sans-Serif" font-size="10.00">/github/workspace/test</text>
<text text-anchor="middle" x="5896.25" y="-11.38" font-family="Helvetica,sans-Serif" font-size="10.00">/kalman_println_1x1x0.cpp</text>
</a>
</g>
</g>
<!-- Node2&#45;&gt;Node40 -->
<g id="edge39_Node000002_Node000040" class="edge">
<title>Node2&#45;&gt;Node40</title>
<g id="a_edge39_Node000002_Node000040"><a xlink:title=" ">
<path fill="none" stroke="#63b8ff" d="M3315.77,-91.62C3716.98,-89.47 5569.06,-77.67 5822.25,-41.75 5830.81,-40.54 5839.8,-38.66 5848.44,-36.53"/>
<polygon fill="#63b8ff" stroke="#63b8ff" points="3315.82,-88.12 3305.84,-91.67 3315.86,-95.12 3315.82,-88.12"/>
</a>
</g>
</g>
<!-- Node41 -->
<g id="Node000041" class="node">
<title>Node41</title>
<g id="a_Node000041"><a xlink:href="printer__1x1x0_8cpp.xhtml" target="_top" xlink:title=" ">
<polygon fill="white" stroke="#666666" points="6094.75,-36.12 5979.75,-36.12 5979.75,-5.62 6094.75,-5.62 6094.75,-36.12"/>
<text text-anchor="start" x="5987.75" y="-22.62" font-family="Helvetica,sans-Serif" font-size="10.00">/github/workspace/test</text>
<text text-anchor="middle" x="6037.25" y="-11.38" font-family="Helvetica,sans-Serif" font-size="10.00">/printer_1x1x0.cpp</text>
</a>
</g>
</g>
<!-- Node2&#45;&gt;Node41 -->
<g id="edge40_Node000002_Node000041" class="edge">
<title>Node2&#45;&gt;Node41</title>
<g id="a_edge40_Node000002_Node000041"><a xlink:title=" ">
<path fill="none" stroke="#63b8ff" d="M3315.46,-91.82C3729.75,-90.7 5702.05,-83.21 5970.25,-41.75 5978.04,-40.55 5986.2,-38.67 5994.03,-36.54"/>
<polygon fill="#63b8ff" stroke="#63b8ff" points="3315.74,-88.32 3305.75,-91.85 3315.76,-95.32 3315.74,-88.32"/>
</a>
</g>
</g>
<!-- Node42 -->
<g id="Node000042" class="node">
<title>Node42</title>
<g id="a_Node000042"><a xlink:href="printer__2x3x4_8cpp.xhtml" target="_top" xlink:title=" ">
<polygon fill="white" stroke="#666666" points="6227.75,-36.12 6112.75,-36.12 6112.75,-5.62 6227.75,-5.62 6227.75,-36.12"/>
<text text-anchor="start" x="6120.75" y="-22.62" font-family="Helvetica,sans-Serif" font-size="10.00">/github/workspace/test</text>
<text text-anchor="middle" x="6170.25" y="-11.38" font-family="Helvetica,sans-Serif" font-size="10.00">/printer_2x3x4.cpp</text>
</a>
</g>
</g>
<!-- Node2&#45;&gt;Node42 -->
<g id="edge41_Node000002_Node000042" class="edge">
<title>Node2&#45;&gt;Node42</title>
<g id="a_edge41_Node000002_Node000042"><a xlink:title=" ">
<path fill="none" stroke="#63b8ff" d="M3315.4,-91.91C3741.6,-91.26 5822.13,-85.84 6104.25,-41.75 6111.94,-40.55 6119.97,-38.68 6127.69,-36.55"/>
<polygon fill="#63b8ff" stroke="#63b8ff" points="3315.67,-88.41 3305.67,-91.93 3315.68,-95.41 3315.67,-88.41"/>
</a>
</g>
</g>
</g>
</svg>
