<?xml version="1.0" encoding="UTF-8" standalone="no"?>
<!DOCTYPE svg PUBLIC "-//W3C//DTD SVG 1.1//EN"
 "http://www.w3.org/Graphics/SVG/1.1/DTD/svg11.dtd">
<!-- Generated by graphviz version 12.2.0 (20241103.1931)
 -->
<!-- Title: /github/workspace/test/print_2x3x4.cpp Pages: 1 -->
<svg width="1507pt" height="326pt"
 viewBox="0.00 0.00 1507.38 326.00" xmlns="http://www.w3.org/2000/svg" xmlns:xlink="http://www.w3.org/1999/xlink">
<g id="graph0" class="graph" transform="scale(1 1) rotate(0) translate(4 322)">
<title>/github/workspace/test/print_2x3x4.cpp</title>
<!-- Node1 -->
<g id="Node000001" class="node">
<title>Node1</title>
<g id="a_Node000001"><a xlink:title=" ">
<polygon fill="#999999" stroke="#666666" points="1398.88,-318 1283.88,-318 1283.88,-287.5 1398.88,-287.5 1398.88,-318"/>
<text text-anchor="start" x="1291.88" y="-304.5" font-family="Helvetica,sans-Serif" font-size="10.00">/github/workspace/test</text>
<text text-anchor="middle" x="1341.38" y="-293.25" font-family="Helvetica,sans-Serif" font-size="10.00">/print_2x3x4.cpp</text>
</a>
</g>
</g>
<!-- Node2 -->
<g id="Node000002" class="node">
<title>Node2</title>
<g id="a_Node000002"><a xlink:href="kalman_8hpp.xhtml" target="_top" xlink:title="The Kalman filter class and library top&#45;level header.">
<polygon fill="white" stroke="#666666" points="1229.38,-251.5 1123.38,-251.5 1123.38,-232.25 1229.38,-232.25 1229.38,-251.5"/>
<text text-anchor="middle" x="1176.38" y="-238" font-family="Helvetica,sans-Serif" font-size="10.00">fcarouge/kalman.hpp</text>
</a>
</g>
</g>
<!-- Node1&#45;&gt;Node2 -->
<g id="edge1_Node000001_Node000002" class="edge">
<title>Node1&#45;&gt;Node2</title>
<g id="a_edge1_Node000001_Node000002"><a xlink:title=" ">
<path fill="none" stroke="#63b8ff" d="M1300.16,-287.05C1273.22,-277.43 1238.37,-265 1212.51,-255.77"/>
<polygon fill="#63b8ff" stroke="#63b8ff" points="1213.7,-252.48 1203.1,-252.41 1211.35,-259.07 1213.7,-252.48"/>
</a>
</g>
</g>
<!-- Node29 -->
<g id="Node000029" class="node">
<title>Node29</title>
<g id="a_Node000029"><a xlink:title=" ">
<polygon fill="#e0e0e0" stroke="#999999" points="1344.88,-251.5 1247.88,-251.5 1247.88,-232.25 1344.88,-232.25 1344.88,-251.5"/>
<text text-anchor="middle" x="1296.38" y="-238" font-family="Helvetica,sans-Serif" font-size="10.00">fcarouge/linalg.hpp</text>
</a>
</g>
</g>
<!-- Node1&#45;&gt;Node29 -->
<g id="edge56_Node000001_Node000029" class="edge">
<title>Node1&#45;&gt;Node29</title>
<g id="a_edge56_Node000001_Node000029"><a xlink:title=" ">
<path fill="none" stroke="#63b8ff" d="M1330.25,-287.2C1324.19,-279.27 1316.63,-269.38 1310.2,-260.96"/>
<polygon fill="#63b8ff" stroke="#63b8ff" points="1313.08,-258.97 1304.23,-253.15 1307.52,-263.22 1313.08,-258.97"/>
</a>
</g>
</g>
<!-- Node30 -->
<g id="Node000030" class="node">
<title>Node30</title>
<g id="a_Node000030"><a xlink:title=" ">
<polygon fill="#e0e0e0" stroke="#999999" points="1411.5,-251.5 1363.25,-251.5 1363.25,-232.25 1411.5,-232.25 1411.5,-251.5"/>
<text text-anchor="middle" x="1387.38" y="-238" font-family="Helvetica,sans-Serif" font-size="10.00">cassert</text>
</a>
</g>
</g>
<!-- Node1&#45;&gt;Node30 -->
<g id="edge57_Node000001_Node000030" class="edge">
<title>Node1&#45;&gt;Node30</title>
<g id="a_edge57_Node000001_Node000030"><a xlink:title=" ">
<path fill="none" stroke="#63b8ff" d="M1352.75,-287.2C1358.94,-279.27 1366.67,-269.38 1373.24,-260.96"/>
<polygon fill="#63b8ff" stroke="#63b8ff" points="1375.95,-263.18 1379.35,-253.14 1370.44,-258.87 1375.95,-263.18"/>
</a>
</g>
</g>
<!-- Node31 -->
<g id="Node000031" class="node">
<title>Node31</title>
<g id="a_Node000031"><a xlink:title=" ">
<polygon fill="#e0e0e0" stroke="#999999" points="1472.88,-251.5 1429.88,-251.5 1429.88,-232.25 1472.88,-232.25 1472.88,-251.5"/>
<text text-anchor="middle" x="1451.38" y="-238" font-family="Helvetica,sans-Serif" font-size="10.00">cmath</text>
</a>
</g>
</g>
<!-- Node1&#45;&gt;Node31 -->
<g id="edge58_Node000001_Node000031" class="edge">
<title>Node1&#45;&gt;Node31</title>
<g id="a_edge58_Node000001_Node000031"><a xlink:title=" ">
<path fill="none" stroke="#63b8ff" d="M1368.85,-287.05C1385.92,-277.91 1407.77,-266.22 1424.69,-257.16"/>
<polygon fill="#63b8ff" stroke="#63b8ff" points="1426.01,-260.42 1433.17,-252.62 1422.7,-254.25 1426.01,-260.42"/>
</a>
</g>
</g>
<!-- Node3 -->
<g id="Node000003" class="node">
<title>Node3</title>
<g id="a_Node000003"><a xlink:href="kalman__forward_8hpp.xhtml" target="_top" xlink:title="Authoritative forward declaration header.">
<polygon fill="white" stroke="#666666" points="629.88,-196.25 526.88,-196.25 526.88,-177 629.88,-177 629.88,-196.25"/>
<text text-anchor="middle" x="578.38" y="-182.75" font-family="Helvetica,sans-Serif" font-size="10.00">kalman_forward.hpp</text>
</a>
</g>
</g>
<!-- Node2&#45;&gt;Node3 -->
<g id="edge2_Node000002_Node000003" class="edge">
<title>Node2&#45;&gt;Node3</title>
<g id="a_edge2_Node000002_Node000003"><a xlink:title=" ">
<path fill="none" stroke="#63b8ff" d="M1122.92,-237.46C1028.19,-231.17 824.39,-216.66 641.45,-196.42"/>
<polygon fill="#63b8ff" stroke="#63b8ff" points="642.09,-192.97 631.77,-195.34 641.32,-199.92 642.09,-192.97"/>
</a>
</g>
</g>
<!-- Node4 -->
<g id="Node000004" class="node">
<title>Node4</title>
<g id="a_Node000004"><a xlink:href="factory_8hpp.xhtml" target="_top" xlink:title=" ">
<polygon fill="white" stroke="#666666" points="782.62,-196.25 648.12,-196.25 648.12,-177 782.62,-177 782.62,-196.25"/>
<text text-anchor="middle" x="715.38" y="-182.75" font-family="Helvetica,sans-Serif" font-size="10.00">kalman_internal/factory.hpp</text>
</a>
</g>
</g>
<!-- Node2&#45;&gt;Node4 -->
<g id="edge3_Node000002_Node000004" class="edge">
<title>Node2&#45;&gt;Node4</title>
<g id="a_edge3_Node000002_Node000004"><a xlink:title=" ">
<path fill="none" stroke="#63b8ff" d="M1123.04,-234.71C1042.16,-225.37 887.98,-207.56 794.16,-196.72"/>
<polygon fill="#63b8ff" stroke="#63b8ff" points="794.58,-193.25 784.24,-195.58 793.78,-200.2 794.58,-193.25"/>
</a>
</g>
</g>
<!-- Node6 -->
<g id="Node000006" class="node">
<title>Node6</title>
<g id="a_Node000006"><a xlink:href="utility_8hpp.xhtml" target="_top" xlink:title=" ">
<polygon fill="white" stroke="#666666" points="873.62,-74.5 817.12,-74.5 817.12,-55.25 873.62,-55.25 873.62,-74.5"/>
<text text-anchor="middle" x="845.38" y="-61" font-family="Helvetica,sans-Serif" font-size="10.00">utility.hpp</text>
</a>
</g>
</g>
<!-- Node2&#45;&gt;Node6 -->
<g id="edge54_Node000002_Node000006" class="edge">
<title>Node2&#45;&gt;Node6</title>
<g id="a_edge54_Node000002_Node000006"><a xlink:title=" ">
<path fill="none" stroke="#63b8ff" d="M1176.79,-231.88C1177.36,-207.95 1175.31,-142.4 1138.38,-110.5 1096.65,-74.46 952.59,-84.57 884.74,-75.33"/>
<polygon fill="#63b8ff" stroke="#63b8ff" points="885.7,-71.94 875.26,-73.77 884.56,-78.85 885.7,-71.94"/>
</a>
</g>
</g>
<!-- Node24 -->
<g id="Node000024" class="node">
<title>Node24</title>
<g id="a_Node000024"><a xlink:href="format_8hpp.xhtml" target="_top" xlink:title="Formatting support for the Kalman filter.">
<polygon fill="white" stroke="#666666" points="1356.88,-135.38 1223.88,-135.38 1223.88,-116.12 1356.88,-116.12 1356.88,-135.38"/>
<text text-anchor="middle" x="1290.38" y="-121.88" font-family="Helvetica,sans-Serif" font-size="10.00">kalman_internal/format.hpp</text>
</a>
</g>
</g>
<!-- Node2&#45;&gt;Node24 -->
<g id="edge45_Node000002_Node000024" class="edge">
<title>Node2&#45;&gt;Node24</title>
<g id="a_edge45_Node000002_Node000024"><a xlink:title=" ">
<path fill="none" stroke="#63b8ff" d="M1181.05,-231.88C1188.13,-218.8 1202.56,-194.21 1219.38,-177 1232.71,-163.35 1250.17,-150.94 1264.44,-141.86"/>
<polygon fill="#63b8ff" stroke="#63b8ff" points="1266.2,-144.89 1272.88,-136.67 1262.53,-138.93 1266.2,-144.89"/>
</a>
</g>
</g>
<!-- Node26 -->
<g id="Node000026" class="node">
<title>Node26</title>
<g id="a_Node000026"><a xlink:href="print_8hpp.xhtml" target="_top" xlink:title=" ">
<polygon fill="white" stroke="#666666" points="1499.38,-135.38 1375.38,-135.38 1375.38,-116.12 1499.38,-116.12 1499.38,-135.38"/>
<text text-anchor="middle" x="1437.38" y="-121.88" font-family="Helvetica,sans-Serif" font-size="10.00">kalman_internal/print.hpp</text>
</a>
</g>
</g>
<!-- Node2&#45;&gt;Node26 -->
<g id="edge50_Node000002_Node000026" class="edge">
<title>Node2&#45;&gt;Node26</title>
<g id="a_edge50_Node000002_Node000026"><a xlink:title=" ">
<path fill="none" stroke="#63b8ff" d="M1184.36,-232.05C1197.31,-218.27 1224.28,-191.7 1252.38,-177 1275.33,-164.99 1338.77,-149.01 1384.97,-138.32"/>
<polygon fill="#63b8ff" stroke="#63b8ff" points="1385.58,-141.77 1394.54,-136.13 1384.01,-134.95 1385.58,-141.77"/>
</a>
</g>
</g>
<!-- Node28 -->
<g id="Node000028" class="node">
<title>Node28</title>
<g id="a_Node000028"><a xlink:title=" ">
<polygon fill="#e0e0e0" stroke="#999999" points="1395.62,-196.25 1261.12,-196.25 1261.12,-177 1395.62,-177 1395.62,-196.25"/>
<text text-anchor="middle" x="1328.38" y="-182.75" font-family="Helvetica,sans-Serif" font-size="10.00">kalman_internal/kalman.tpp</text>
</a>
</g>
</g>
<!-- Node2&#45;&gt;Node28 -->
<g id="edge55_Node000002_Node000028" class="edge">
<title>Node2&#45;&gt;Node28</title>
<g id="a_edge55_Node000002_Node000028"><a xlink:title=" ">
<path fill="none" stroke="#63b8ff" d="M1202.16,-231.84C1226.73,-223.24 1263.96,-210.19 1291.63,-200.5"/>
<polygon fill="#63b8ff" stroke="#63b8ff" points="1292.75,-203.81 1301.04,-197.2 1290.44,-197.21 1292.75,-203.81"/>
</a>
</g>
</g>
<!-- Node5 -->
<g id="Node000005" class="node">
<title>Node5</title>
<g id="a_Node000005"><a xlink:href="type_8hpp.xhtml" target="_top" xlink:title=" ">
<polygon fill="white" stroke="#666666" points="741.38,-135.38 689.38,-135.38 689.38,-116.12 741.38,-116.12 741.38,-135.38"/>
<text text-anchor="middle" x="715.38" y="-121.88" font-family="Helvetica,sans-Serif" font-size="10.00">type.hpp</text>
</a>
</g>
</g>
<!-- Node4&#45;&gt;Node5 -->
<g id="edge4_Node000004_Node000005" class="edge">
<title>Node4&#45;&gt;Node5</title>
<g id="a_edge4_Node000004_Node000005"><a xlink:title=" ">
<path fill="none" stroke="#63b8ff" d="M715.38,-176.68C715.38,-168.9 715.38,-157.33 715.38,-147.28"/>
<polygon fill="#63b8ff" stroke="#63b8ff" points="718.88,-147.29 715.38,-137.29 711.88,-147.29 718.88,-147.29"/>
</a>
</g>
</g>
<!-- Node7 -->
<g id="Node000007" class="node">
<title>Node7</title>
<g id="a_Node000007"><a xlink:title=" ">
<polygon fill="#e0e0e0" stroke="#999999" points="743.25,-19.25 687.5,-19.25 687.5,0 743.25,0 743.25,-19.25"/>
<text text-anchor="middle" x="715.38" y="-5.75" font-family="Helvetica,sans-Serif" font-size="10.00">concepts</text>
</a>
</g>
</g>
<!-- Node4&#45;&gt;Node7 -->
<g id="edge42_Node000004_Node000007" class="edge">
<title>Node4&#45;&gt;Node7</title>
<g id="a_edge42_Node000004_Node000007"><a xlink:title=" ">
<path fill="none" stroke="#63b8ff" d="M705.16,-176.52C696.68,-168.23 685.26,-155.15 680.38,-141 667.93,-104.98 667.93,-91.27 680.38,-55.25 683.85,-45.19 690.63,-35.68 697.3,-28.03"/>
<polygon fill="#63b8ff" stroke="#63b8ff" points="699.78,-30.5 704.12,-20.83 694.7,-25.69 699.78,-30.5"/>
</a>
</g>
</g>
<!-- Node9 -->
<g id="Node000009" class="node">
<title>Node9</title>
<g id="a_Node000009"><a xlink:title=" ">
<polygon fill="#e0e0e0" stroke="#999999" points="526.88,-19.25 489.88,-19.25 489.88,0 526.88,0 526.88,-19.25"/>
<text text-anchor="middle" x="508.38" y="-5.75" font-family="Helvetica,sans-Serif" font-size="10.00">tuple</text>
</a>
</g>
</g>
<!-- Node4&#45;&gt;Node9 -->
<g id="edge43_Node000004_Node000009" class="edge">
<title>Node4&#45;&gt;Node9</title>
<g id="a_edge43_Node000004_Node000009"><a xlink:title=" ">
<path fill="none" stroke="#63b8ff" d="M704.83,-176.71C671.89,-148.86 570.62,-63.25 527.81,-27.05"/>
<polygon fill="#63b8ff" stroke="#63b8ff" points="530.2,-24.5 520.31,-20.71 525.68,-29.84 530.2,-24.5"/>
</a>
</g>
</g>
<!-- Node10 -->
<g id="Node000010" class="node">
<title>Node10</title>
<g id="a_Node000010"><a xlink:title=" ">
<polygon fill="#e0e0e0" stroke="#999999" points="875.88,-19.25 814.88,-19.25 814.88,0 875.88,0 875.88,-19.25"/>
<text text-anchor="middle" x="845.38" y="-5.75" font-family="Helvetica,sans-Serif" font-size="10.00">type_traits</text>
</a>
</g>
</g>
<!-- Node4&#45;&gt;Node10 -->
<g id="edge44_Node000004_Node000010" class="edge">
<title>Node4&#45;&gt;Node10</title>
<g id="a_edge44_Node000004_Node000010"><a xlink:title=" ">
<path fill="none" stroke="#63b8ff" d="M782.78,-183.37C896.18,-178.87 1115.06,-166.9 1138.38,-141 1213.99,-56.99 985.45,-24.24 887.58,-14.27"/>
<polygon fill="#63b8ff" stroke="#63b8ff" points="888.12,-10.81 877.82,-13.32 887.43,-17.78 888.12,-10.81"/>
</a>
</g>
</g>
<!-- Node13 -->
<g id="Node000013" class="node">
<title>Node13</title>
<g id="a_Node000013"><a xlink:href="x__z__p__q__r_8hpp.xhtml" target="_top" xlink:title=" ">
<polygon fill="white" stroke="#666666" points="1015.12,-135.38 937.62,-135.38 937.62,-116.12 1015.12,-116.12 1015.12,-135.38"/>
<text text-anchor="middle" x="976.38" y="-121.88" font-family="Helvetica,sans-Serif" font-size="10.00">x_z_p_q_r.hpp</text>
</a>
</g>
</g>
<!-- Node4&#45;&gt;Node13 -->
<g id="edge13_Node000004_Node000013" class="edge">
<title>Node4&#45;&gt;Node13</title>
<g id="a_edge13_Node000004_Node000013"><a xlink:title=" ">
<path fill="none" stroke="#63b8ff" d="M764.96,-176.58C808.52,-168.33 873.48,-155.27 929.38,-141 931.95,-140.34 934.6,-139.63 937.27,-138.89"/>
<polygon fill="#63b8ff" stroke="#63b8ff" points="938.06,-142.31 946.7,-136.17 936.12,-135.58 938.06,-142.31"/>
</a>
</g>
</g>
<!-- Node14 -->
<g id="Node000014" class="node">
<title>Node14</title>
<g id="a_Node000014"><a xlink:href="x__z__p__q__r__h__f_8hpp.xhtml" target="_top" xlink:title=" ">
<polygon fill="white" stroke="#666666" points="1129.5,-135.38 1033.25,-135.38 1033.25,-116.12 1129.5,-116.12 1129.5,-135.38"/>
<text text-anchor="middle" x="1081.38" y="-121.88" font-family="Helvetica,sans-Serif" font-size="10.00">x_z_p_q_r_h_f.hpp</text>
</a>
</g>
</g>
<!-- Node4&#45;&gt;Node14 -->
<g id="edge15_Node000004_Node000014" class="edge">
<title>Node4&#45;&gt;Node14</title>
<g id="a_edge15_Node000004_Node000014"><a xlink:title=" ">
<path fill="none" stroke="#63b8ff" d="M782.92,-177.88C845.74,-170.19 941.81,-157.24 1024.38,-141 1028.25,-140.24 1032.25,-139.38 1036.25,-138.48"/>
<polygon fill="#63b8ff" stroke="#63b8ff" points="1037.04,-141.89 1045.97,-136.18 1035.43,-135.07 1037.04,-141.89"/>
</a>
</g>
</g>
<!-- Node15 -->
<g id="Node000015" class="node">
<title>Node15</title>
<g id="a_Node000015"><a xlink:href="x__z__p__q__r__hh__us__ps_8hpp.xhtml" target="_top" xlink:title=" ">
<polygon fill="white" stroke="#666666" points="124.75,-135.38 0,-135.38 0,-116.12 124.75,-116.12 124.75,-135.38"/>
<text text-anchor="middle" x="62.38" y="-121.88" font-family="Helvetica,sans-Serif" font-size="10.00">x_z_p_q_r_hh_us_ps.hpp</text>
</a>
</g>
</g>
<!-- Node4&#45;&gt;Node15 -->
<g id="edge17_Node000004_Node000015" class="edge">
<title>Node4&#45;&gt;Node15</title>
<g id="a_edge17_Node000004_Node000015"><a xlink:title=" ">
<path fill="none" stroke="#63b8ff" d="M647.85,-177.81C644.98,-177.53 642.15,-177.26 639.38,-177 414.87,-156.28 356.79,-171.24 133.38,-141 127.22,-140.17 120.8,-139.13 114.45,-137.99"/>
<polygon fill="#63b8ff" stroke="#63b8ff" points="115.11,-134.55 104.64,-136.14 113.81,-141.43 115.11,-134.55"/>
</a>
</g>
</g>
<!-- Node18 -->
<g id="Node000018" class="node">
<title>Node18</title>
<g id="a_Node000018"><a xlink:href="x__z__p__qq__rr__f_8hpp.xhtml" target="_top" xlink:title=" ">
<polygon fill="white" stroke="#666666" points="595.38,-135.38 501.38,-135.38 501.38,-116.12 595.38,-116.12 595.38,-135.38"/>
<text text-anchor="middle" x="548.38" y="-121.88" font-family="Helvetica,sans-Serif" font-size="10.00">x_z_p_qq_rr_f.hpp</text>
</a>
</g>
</g>
<!-- Node4&#45;&gt;Node18 -->
<g id="edge22_Node000004_Node000018" class="edge">
<title>Node4&#45;&gt;Node18</title>
<g id="a_edge22_Node000004_Node000018"><a xlink:title=" ">
<path fill="none" stroke="#63b8ff" d="M689.65,-176.55C661.57,-166.66 616.41,-150.74 584.73,-139.57"/>
<polygon fill="#63b8ff" stroke="#63b8ff" points="586.15,-136.36 575.56,-136.33 583.83,-142.96 586.15,-136.36"/>
</a>
</g>
</g>
<!-- Node19 -->
<g id="Node000019" class="node">
<title>Node19</title>
<g id="a_Node000019"><a xlink:href="x__z__p__r_8hpp.xhtml" target="_top" xlink:title=" ">
<polygon fill="white" stroke="#666666" points="826.88,-135.38 759.88,-135.38 759.88,-116.12 826.88,-116.12 826.88,-135.38"/>
<text text-anchor="middle" x="793.38" y="-121.88" font-family="Helvetica,sans-Serif" font-size="10.00">x_z_p_r.hpp</text>
</a>
</g>
</g>
<!-- Node4&#45;&gt;Node19 -->
<g id="edge26_Node000004_Node000019" class="edge">
<title>Node4&#45;&gt;Node19</title>
<g id="a_edge26_Node000004_Node000019"><a xlink:title=" ">
<path fill="none" stroke="#63b8ff" d="M727.22,-176.68C739.25,-167.61 758.11,-153.37 772.62,-142.41"/>
<polygon fill="#63b8ff" stroke="#63b8ff" points="774.34,-145.51 780.21,-136.69 770.12,-139.92 774.34,-145.51"/>
</a>
</g>
</g>
<!-- Node20 -->
<g id="Node000020" class="node">
<title>Node20</title>
<g id="a_Node000020"><a xlink:href="x__z__p__r__f_8hpp.xhtml" target="_top" xlink:title=" ">
<polygon fill="white" stroke="#666666" points="920,-135.38 844.75,-135.38 844.75,-116.12 920,-116.12 920,-135.38"/>
<text text-anchor="middle" x="882.38" y="-121.88" font-family="Helvetica,sans-Serif" font-size="10.00">x_z_p_r_f.hpp</text>
</a>
</g>
</g>
<!-- Node4&#45;&gt;Node20 -->
<g id="edge28_Node000004_Node000020" class="edge">
<title>Node4&#45;&gt;Node20</title>
<g id="a_edge28_Node000004_Node000020"><a xlink:title=" ">
<path fill="none" stroke="#63b8ff" d="M741.1,-176.55C769.18,-166.66 814.34,-150.74 846.02,-139.57"/>
<polygon fill="#63b8ff" stroke="#63b8ff" points="846.92,-142.96 855.19,-136.33 844.6,-136.36 846.92,-142.96"/>
</a>
</g>
</g>
<!-- Node21 -->
<g id="Node000021" class="node">
<title>Node21</title>
<g id="a_Node000021"><a xlink:href="x__z__u__p__q__r_8hpp.xhtml" target="_top" xlink:title=" ">
<polygon fill="white" stroke="#666666" points="483.38,-135.38 395.38,-135.38 395.38,-116.12 483.38,-116.12 483.38,-135.38"/>
<text text-anchor="middle" x="439.38" y="-121.88" font-family="Helvetica,sans-Serif" font-size="10.00">x_z_u_p_q_r.hpp</text>
</a>
</g>
</g>
<!-- Node4&#45;&gt;Node21 -->
<g id="edge30_Node000004_Node000021" class="edge">
<title>Node4&#45;&gt;Node21</title>
<g id="a_edge30_Node000004_Node000021"><a xlink:title=" ">
<path fill="none" stroke="#63b8ff" d="M665.13,-176.54C619.8,-168.11 551.38,-154.82 492.38,-141 489.24,-140.27 486.02,-139.48 482.77,-138.66"/>
<polygon fill="#63b8ff" stroke="#63b8ff" points="483.83,-135.32 473.27,-136.21 482.08,-142.1 483.83,-135.32"/>
</a>
</g>
</g>
<!-- Node22 -->
<g id="Node000022" class="node">
<title>Node22</title>
<g id="a_Node000022"><a xlink:href="x__z__u__p__q__r__h__f__g__us__ps_8hpp.xhtml" target="_top" xlink:title=" ">
<polygon fill="white" stroke="#666666" points="257.88,-141 142.88,-141 142.88,-110.5 257.88,-110.5 257.88,-141"/>
<text text-anchor="start" x="150.88" y="-127.5" font-family="Helvetica,sans-Serif" font-size="10.00">x_z_u_p_q_r_h_f_g_us</text>
<text text-anchor="middle" x="200.38" y="-116.25" font-family="Helvetica,sans-Serif" font-size="10.00">_ps.hpp</text>
</a>
</g>
</g>
<!-- Node4&#45;&gt;Node22 -->
<g id="edge34_Node000004_Node000022" class="edge">
<title>Node4&#45;&gt;Node22</title>
<g id="a_edge34_Node000004_Node000022"><a xlink:title=" ">
<path fill="none" stroke="#63b8ff" d="M647.84,-177.9C644.98,-177.59 642.15,-177.29 639.38,-177 477.3,-159.98 432.84,-166.33 269.2,-141.34"/>
<polygon fill="#63b8ff" stroke="#63b8ff" points="270.16,-137.94 259.75,-139.88 269.1,-144.86 270.16,-137.94"/>
</a>
</g>
</g>
<!-- Node23 -->
<g id="Node000023" class="node">
<title>Node23</title>
<g id="a_Node000023"><a xlink:href="x__z__u__p__qq__r__ff__gg__ps_8hpp.xhtml" target="_top" xlink:title=" ">
<polygon fill="white" stroke="#666666" points="377.12,-141 275.62,-141 275.62,-110.5 377.12,-110.5 377.12,-141"/>
<text text-anchor="start" x="283.62" y="-127.5" font-family="Helvetica,sans-Serif" font-size="10.00">x_z_u_p_qq_r_ff_gg</text>
<text text-anchor="middle" x="326.38" y="-116.25" font-family="Helvetica,sans-Serif" font-size="10.00">_ps.hpp</text>
</a>
</g>
</g>
<!-- Node4&#45;&gt;Node23 -->
<g id="edge38_Node000004_Node000023" class="edge">
<title>Node4&#45;&gt;Node23</title>
<g id="a_edge38_Node000004_Node000023"><a xlink:title=" ">
<path fill="none" stroke="#63b8ff" d="M647.74,-177.25C571.41,-167.66 450.77,-152.09 388.63,-141.25"/>
<polygon fill="#63b8ff" stroke="#63b8ff" points="389.32,-137.82 378.85,-139.49 388.07,-144.71 389.32,-137.82"/>
</a>
</g>
</g>
<!-- Node5&#45;&gt;Node6 -->
<g id="edge5_Node000005_Node000006" class="edge">
<title>Node5&#45;&gt;Node6</title>
<g id="a_edge5_Node000005_Node000006"><a xlink:title=" ">
<path fill="none" stroke="#63b8ff" d="M735.4,-115.68C756.74,-106.01 790.77,-90.6 815.33,-79.48"/>
<polygon fill="#63b8ff" stroke="#63b8ff" points="816.49,-82.8 824.16,-75.48 813.61,-76.42 816.49,-82.8"/>
</a>
</g>
</g>
<!-- Node5&#45;&gt;Node10 -->
<g id="edge12_Node000005_Node000010" class="edge">
<title>Node5&#45;&gt;Node10</title>
<g id="a_edge12_Node000005_Node000010"><a xlink:title=" ">
<path fill="none" stroke="#63b8ff" d="M725.58,-115.79C747.41,-96.63 798.94,-51.39 826.77,-26.96"/>
<polygon fill="#63b8ff" stroke="#63b8ff" points="828.88,-29.76 834.08,-20.54 824.26,-24.5 828.88,-29.76"/>
</a>
</g>
</g>
<!-- Node12 -->
<g id="Node000012" class="node">
<title>Node12</title>
<g id="a_Node000012"><a xlink:title=" ">
<polygon fill="#e0e0e0" stroke="#999999" points="761.12,-74.5 689.62,-74.5 689.62,-55.25 761.12,-55.25 761.12,-74.5"/>
<text text-anchor="middle" x="725.38" y="-61" font-family="Helvetica,sans-Serif" font-size="10.00">initializer_list</text>
</a>
</g>
</g>
<!-- Node5&#45;&gt;Node12 -->
<g id="edge11_Node000005_Node000012" class="edge">
<title>Node5&#45;&gt;Node12</title>
<g id="a_edge11_Node000005_Node000012"><a xlink:title=" ">
<path fill="none" stroke="#63b8ff" d="M716.89,-115.81C718.23,-107.94 720.22,-96.2 721.94,-86.07"/>
<polygon fill="#63b8ff" stroke="#63b8ff" points="725.36,-86.84 723.59,-76.39 718.46,-85.67 725.36,-86.84"/>
</a>
</g>
</g>
<!-- Node6&#45;&gt;Node7 -->
<g id="edge6_Node000006_Node000007" class="edge">
<title>Node6&#45;&gt;Node7</title>
<g id="a_edge6_Node000006_Node000007"><a xlink:title=" ">
<path fill="none" stroke="#63b8ff" d="M823.32,-54.84C802.69,-46.39 771.59,-33.65 748.07,-24.02"/>
<polygon fill="#63b8ff" stroke="#63b8ff" points="749.52,-20.83 738.94,-20.28 746.86,-27.31 749.52,-20.83"/>
</a>
</g>
</g>
<!-- Node8 -->
<g id="Node000008" class="node">
<title>Node8</title>
<g id="a_Node000008"><a xlink:title=" ">
<polygon fill="#e0e0e0" stroke="#999999" points="1103.5,-19.25 1055.25,-19.25 1055.25,0 1103.5,0 1103.5,-19.25"/>
<text text-anchor="middle" x="1079.38" y="-5.75" font-family="Helvetica,sans-Serif" font-size="10.00">cstddef</text>
</a>
</g>
</g>
<!-- Node6&#45;&gt;Node8 -->
<g id="edge7_Node000006_Node000008" class="edge">
<title>Node6&#45;&gt;Node8</title>
<g id="a_edge7_Node000006_Node000008"><a xlink:title=" ">
<path fill="none" stroke="#63b8ff" d="M874.07,-57.35C916.93,-47.59 997.6,-29.23 1044.04,-18.67"/>
<polygon fill="#63b8ff" stroke="#63b8ff" points="1044.61,-22.12 1053.59,-16.49 1043.06,-15.3 1044.61,-22.12"/>
</a>
</g>
</g>
<!-- Node6&#45;&gt;Node9 -->
<g id="edge8_Node000006_Node000009" class="edge">
<title>Node6&#45;&gt;Node9</title>
<g id="a_edge8_Node000006_Node000009"><a xlink:title=" ">
<path fill="none" stroke="#63b8ff" d="M816.64,-59.33C753.39,-49.34 602.62,-25.52 538.29,-15.35"/>
<polygon fill="#63b8ff" stroke="#63b8ff" points="538.9,-11.9 528.47,-13.8 537.8,-18.82 538.9,-11.9"/>
</a>
</g>
</g>
<!-- Node6&#45;&gt;Node10 -->
<g id="edge9_Node000006_Node000010" class="edge">
<title>Node6&#45;&gt;Node10</title>
<g id="a_edge9_Node000006_Node000010"><a xlink:title=" ">
<path fill="none" stroke="#63b8ff" d="M845.38,-55.08C845.38,-48.57 845.38,-39.42 845.38,-31.12"/>
<polygon fill="#63b8ff" stroke="#63b8ff" points="848.88,-31.12 845.38,-21.12 841.88,-31.12 848.88,-31.12"/>
</a>
</g>
</g>
<!-- Node11 -->
<g id="Node000011" class="node">
<title>Node11</title>
<g id="a_Node000011"><a xlink:title=" ">
<polygon fill="#e0e0e0" stroke="#999999" points="1285.62,-19.25 1247.12,-19.25 1247.12,0 1285.62,0 1285.62,-19.25"/>
<text text-anchor="middle" x="1266.38" y="-5.75" font-family="Helvetica,sans-Serif" font-size="10.00">utility</text>
</a>
</g>
</g>
<!-- Node6&#45;&gt;Node11 -->
<g id="edge10_Node000006_Node000011" class="edge">
<title>Node6&#45;&gt;Node11</title>
<g id="a_edge10_Node000006_Node000011"><a xlink:title=" ">
<path fill="none" stroke="#63b8ff" d="M873.98,-60.26C950.2,-50.62 1157.71,-24.37 1235.96,-14.47"/>
<polygon fill="#63b8ff" stroke="#63b8ff" points="1235.97,-18 1245.45,-13.27 1235.09,-11.05 1235.97,-18"/>
</a>
</g>
</g>
<!-- Node13&#45;&gt;Node6 -->
<g id="edge14_Node000013_Node000006" class="edge">
<title>Node13&#45;&gt;Node6</title>
<g id="a_edge14_Node000013_Node000006"><a xlink:title=" ">
<path fill="none" stroke="#63b8ff" d="M956.19,-115.68C934.69,-106.01 900.4,-90.6 875.65,-79.48"/>
<polygon fill="#63b8ff" stroke="#63b8ff" points="877.3,-76.39 866.75,-75.48 874.43,-82.77 877.3,-76.39"/>
</a>
</g>
</g>
<!-- Node14&#45;&gt;Node6 -->
<g id="edge16_Node000014_Node000006" class="edge">
<title>Node14&#45;&gt;Node6</title>
<g id="a_edge16_Node000014_Node000006"><a xlink:title=" ">
<path fill="none" stroke="#63b8ff" d="M1045.19,-115.7C1038.28,-113.97 1031.1,-112.18 1024.38,-110.5 976.43,-98.53 921.25,-84.78 884.98,-75.74"/>
<polygon fill="#63b8ff" stroke="#63b8ff" points="885.92,-72.37 875.37,-73.35 884.22,-79.16 885.92,-72.37"/>
</a>
</g>
</g>
<!-- Node15&#45;&gt;Node6 -->
<g id="edge20_Node000015_Node000006" class="edge">
<title>Node15&#45;&gt;Node6</title>
<g id="a_edge20_Node000015_Node000006"><a xlink:title=" ">
<path fill="none" stroke="#63b8ff" d="M102.39,-115.69C112.46,-113.69 123.27,-111.79 133.38,-110.5 414.64,-74.51 487.85,-98.71 770.38,-74.5 781.81,-73.52 794.2,-72.2 805.55,-70.89"/>
<polygon fill="#63b8ff" stroke="#63b8ff" points="805.9,-74.37 815.42,-69.72 805.08,-67.42 805.9,-74.37"/>
</a>
</g>
</g>
<!-- Node15&#45;&gt;Node9 -->
<g id="edge21_Node000015_Node000009" class="edge">
<title>Node15&#45;&gt;Node9</title>
<g id="a_edge21_Node000015_Node000009"><a xlink:title=" ">
<path fill="none" stroke="#63b8ff" d="M83,-115.64C117.02,-100.95 187.34,-71.97 249.38,-55.25 330.81,-33.31 429.67,-19.79 478.34,-13.97"/>
<polygon fill="#63b8ff" stroke="#63b8ff" points="478.56,-17.46 488.09,-12.83 477.75,-10.51 478.56,-17.46"/>
</a>
</g>
</g>
<!-- Node16 -->
<g id="Node000016" class="node">
<title>Node16</title>
<g id="a_Node000016"><a xlink:href="function_8hpp.xhtml" target="_top" xlink:title=" ">
<polygon fill="white" stroke="#666666" points="360.62,-74.5 292.12,-74.5 292.12,-55.25 360.62,-55.25 360.62,-74.5"/>
<text text-anchor="middle" x="326.38" y="-61" font-family="Helvetica,sans-Serif" font-size="10.00">function.hpp</text>
</a>
</g>
</g>
<!-- Node15&#45;&gt;Node16 -->
<g id="edge18_Node000015_Node000016" class="edge">
<title>Node15&#45;&gt;Node16</title>
<g id="a_edge18_Node000015_Node000016"><a xlink:title=" ">
<path fill="none" stroke="#63b8ff" d="M103.05,-115.68C151.08,-104.97 230.78,-87.19 280.84,-76.03"/>
<polygon fill="#63b8ff" stroke="#63b8ff" points="281.49,-79.47 290.49,-73.88 279.97,-72.64 281.49,-79.47"/>
</a>
</g>
</g>
<!-- Node17 -->
<g id="Node000017" class="node">
<title>Node17</title>
<g id="a_Node000017"><a xlink:title=" ">
<polygon fill="#e0e0e0" stroke="#999999" points="351.62,-19.25 301.12,-19.25 301.12,0 351.62,0 351.62,-19.25"/>
<text text-anchor="middle" x="326.38" y="-5.75" font-family="Helvetica,sans-Serif" font-size="10.00">memory</text>
</a>
</g>
</g>
<!-- Node16&#45;&gt;Node17 -->
<g id="edge19_Node000016_Node000017" class="edge">
<title>Node16&#45;&gt;Node17</title>
<g id="a_edge19_Node000016_Node000017"><a xlink:title=" ">
<path fill="none" stroke="#63b8ff" d="M326.38,-55.08C326.38,-48.57 326.38,-39.42 326.38,-31.12"/>
<polygon fill="#63b8ff" stroke="#63b8ff" points="329.88,-31.12 326.38,-21.12 322.88,-31.12 329.88,-31.12"/>
</a>
</g>
</g>
<!-- Node18&#45;&gt;Node6 -->
<g id="edge24_Node000018_Node000006" class="edge">
<title>Node18&#45;&gt;Node6</title>
<g id="a_edge24_Node000018_Node000006"><a xlink:title=" ">
<path fill="none" stroke="#63b8ff" d="M594.13,-115.68C652.16,-104.18 751.25,-84.53 806.04,-73.67"/>
<polygon fill="#63b8ff" stroke="#63b8ff" points="806.42,-77.17 815.55,-71.79 805.06,-70.3 806.42,-77.17"/>
</a>
</g>
</g>
<!-- Node18&#45;&gt;Node9 -->
<g id="edge25_Node000018_Node000009" class="edge">
<title>Node18&#45;&gt;Node9</title>
<g id="a_edge25_Node000018_Node000009"><a xlink:title=" ">
<path fill="none" stroke="#63b8ff" d="M545.24,-115.79C538.81,-97.46 524.02,-55.28 515.26,-30.26"/>
<polygon fill="#63b8ff" stroke="#63b8ff" points="518.61,-29.25 512,-20.97 512,-31.56 518.61,-29.25"/>
</a>
</g>
</g>
<!-- Node18&#45;&gt;Node16 -->
<g id="edge23_Node000018_Node000016" class="edge">
<title>Node18&#45;&gt;Node16</title>
<g id="a_edge23_Node000018_Node000016"><a xlink:title=" ">
<path fill="none" stroke="#63b8ff" d="M514.17,-115.68C475.96,-105.55 413.93,-89.09 371.7,-77.89"/>
<polygon fill="#63b8ff" stroke="#63b8ff" points="372.64,-74.52 362.08,-75.34 370.85,-81.29 372.64,-74.52"/>
</a>
</g>
</g>
<!-- Node19&#45;&gt;Node6 -->
<g id="edge27_Node000019_Node000006" class="edge">
<title>Node19&#45;&gt;Node6</title>
<g id="a_edge27_Node000019_Node000006"><a xlink:title=" ">
<path fill="none" stroke="#63b8ff" d="M801.27,-115.81C808.83,-107.25 820.44,-94.1 829.86,-83.45"/>
<polygon fill="#63b8ff" stroke="#63b8ff" points="832.4,-85.85 836.4,-76.04 827.16,-81.21 832.4,-85.85"/>
</a>
</g>
</g>
<!-- Node20&#45;&gt;Node6 -->
<g id="edge29_Node000020_Node000006" class="edge">
<title>Node20&#45;&gt;Node6</title>
<g id="a_edge29_Node000020_Node000006"><a xlink:title=" ">
<path fill="none" stroke="#63b8ff" d="M876.76,-115.81C871.54,-107.51 863.61,-94.89 857.03,-84.42"/>
<polygon fill="#63b8ff" stroke="#63b8ff" points="860.14,-82.79 851.85,-76.18 854.21,-86.51 860.14,-82.79"/>
</a>
</g>
</g>
<!-- Node21&#45;&gt;Node6 -->
<g id="edge32_Node000021_Node000006" class="edge">
<title>Node21&#45;&gt;Node6</title>
<g id="a_edge32_Node000021_Node000006"><a xlink:title=" ">
<path fill="none" stroke="#63b8ff" d="M470.32,-115.67C477.51,-113.77 485.18,-111.92 492.38,-110.5 522.55,-104.57 719.37,-80.86 805.33,-70.62"/>
<polygon fill="#63b8ff" stroke="#63b8ff" points="805.67,-74.11 815.19,-69.45 804.84,-67.16 805.67,-74.11"/>
</a>
</g>
</g>
<!-- Node21&#45;&gt;Node9 -->
<g id="edge33_Node000021_Node000009" class="edge">
<title>Node21&#45;&gt;Node9</title>
<g id="a_edge33_Node000021_Node000009"><a xlink:title=" ">
<path fill="none" stroke="#63b8ff" d="M444.79,-115.79C456.03,-97.21 482.08,-54.12 497.12,-29.25"/>
<polygon fill="#63b8ff" stroke="#63b8ff" points="500.02,-31.2 502.2,-20.83 494.03,-27.58 500.02,-31.2"/>
</a>
</g>
</g>
<!-- Node21&#45;&gt;Node16 -->
<g id="edge31_Node000021_Node000016" class="edge">
<title>Node21&#45;&gt;Node16</title>
<g id="a_edge31_Node000021_Node000016"><a xlink:title=" ">
<path fill="none" stroke="#63b8ff" d="M422.21,-115.81C404.04,-106.34 375.1,-91.26 353.77,-80.15"/>
<polygon fill="#63b8ff" stroke="#63b8ff" points="355.53,-77.12 345.04,-75.6 352.29,-83.33 355.53,-77.12"/>
</a>
</g>
</g>
<!-- Node22&#45;&gt;Node6 -->
<g id="edge36_Node000022_Node000006" class="edge">
<title>Node22&#45;&gt;Node6</title>
<g id="a_edge36_Node000022_Node000006"><a xlink:title=" ">
<path fill="none" stroke="#63b8ff" d="M258.24,-111.77C260.98,-111.31 263.71,-110.88 266.38,-110.5 488.69,-78.72 546.77,-95.33 770.38,-74.5 781.8,-73.44 794.19,-72.09 805.54,-70.78"/>
<polygon fill="#63b8ff" stroke="#63b8ff" points="805.89,-74.26 815.41,-69.62 805.07,-67.31 805.89,-74.26"/>
</a>
</g>
</g>
<!-- Node22&#45;&gt;Node9 -->
<g id="edge37_Node000022_Node000009" class="edge">
<title>Node22&#45;&gt;Node9</title>
<g id="a_edge37_Node000022_Node000009"><a xlink:title=" ">
<path fill="none" stroke="#63b8ff" d="M213.5,-110.01C228.69,-93.94 255.23,-68.72 283.38,-55.25 348.22,-24.21 433.5,-14.76 478.15,-11.88"/>
<polygon fill="#63b8ff" stroke="#63b8ff" points="478.31,-15.38 488.1,-11.32 477.92,-8.39 478.31,-15.38"/>
</a>
</g>
</g>
<!-- Node22&#45;&gt;Node16 -->
<g id="edge35_Node000022_Node000016" class="edge">
<title>Node22&#45;&gt;Node16</title>
<g id="a_edge35_Node000022_Node000016"><a xlink:title=" ">
<path fill="none" stroke="#63b8ff" d="M231.85,-110.05C251.68,-100.78 277.13,-88.88 296.63,-79.77"/>
<polygon fill="#63b8ff" stroke="#63b8ff" points="298.1,-82.95 305.68,-75.54 295.14,-76.61 298.1,-82.95"/>
</a>
</g>
</g>
<!-- Node23&#45;&gt;Node6 -->
<g id="edge40_Node000023_Node000006" class="edge">
<title>Node23&#45;&gt;Node6</title>
<g id="a_edge40_Node000023_Node000006"><a xlink:title=" ">
<path fill="none" stroke="#63b8ff" d="M377.34,-112.13C380.39,-111.54 383.42,-110.99 386.38,-110.5 555.51,-82.63 599.89,-92.29 770.38,-74.5 781.79,-73.31 794.17,-71.92 805.53,-70.62"/>
<polygon fill="#63b8ff" stroke="#63b8ff" points="805.87,-74.1 815.4,-69.47 805.06,-67.15 805.87,-74.1"/>
</a>
</g>
</g>
<!-- Node23&#45;&gt;Node9 -->
<g id="edge41_Node000023_Node000009" class="edge">
<title>Node23&#45;&gt;Node9</title>
<g id="a_edge41_Node000023_Node000009"><a xlink:title=" ">
<path fill="none" stroke="#63b8ff" d="M349.8,-110.06C384.57,-88.26 449.52,-47.53 484.54,-25.57"/>
<polygon fill="#63b8ff" stroke="#63b8ff" points="486.08,-28.74 492.69,-20.46 482.36,-22.81 486.08,-28.74"/>
</a>
</g>
</g>
<!-- Node23&#45;&gt;Node16 -->
<g id="edge39_Node000023_Node000016" class="edge">
<title>Node23&#45;&gt;Node16</title>
<g id="a_edge39_Node000023_Node000016"><a xlink:title=" ">
<path fill="none" stroke="#63b8ff" d="M326.38,-110.2C326.38,-102.96 326.38,-94.09 326.38,-86.19"/>
<polygon fill="#63b8ff" stroke="#63b8ff" points="329.88,-86.46 326.38,-76.46 322.88,-86.46 329.88,-86.46"/>
</a>
</g>
</g>
<!-- Node24&#45;&gt;Node6 -->
<g id="edge46_Node000024_Node000006" class="edge">
<title>Node24&#45;&gt;Node6</title>
<g id="a_edge46_Node000024_Node000006"><a xlink:title=" ">
<path fill="none" stroke="#63b8ff" d="M1223.75,-115.94C1129.78,-103.5 961.24,-81.2 884.89,-71.1"/>
<polygon fill="#63b8ff" stroke="#63b8ff" points="885.75,-67.69 875.38,-69.84 884.84,-74.63 885.75,-67.69"/>
</a>
</g>
</g>
<!-- Node24&#45;&gt;Node8 -->
<g id="edge47_Node000024_Node000008" class="edge">
<title>Node24&#45;&gt;Node8</title>
<g id="a_edge47_Node000024_Node000008"><a xlink:title=" ">
<path fill="none" stroke="#63b8ff" d="M1282.23,-115.84C1268.49,-101.3 1239.29,-72.37 1209.38,-55.25 1179.29,-38.03 1141.5,-25.99 1114.43,-18.79"/>
<polygon fill="#63b8ff" stroke="#63b8ff" points="1115.56,-15.46 1105,-16.37 1113.82,-22.24 1115.56,-15.46"/>
</a>
</g>
</g>
<!-- Node24&#45;&gt;Node9 -->
<g id="edge49_Node000024_Node000009" class="edge">
<title>Node24&#45;&gt;Node9</title>
<g id="a_edge49_Node000024_Node000009"><a xlink:title=" ">
<path fill="none" stroke="#63b8ff" d="M1241.83,-115.67C1165.5,-101.58 1012.69,-74.11 882.38,-55.25 754.7,-36.77 601.69,-20.27 538.22,-13.67"/>
<polygon fill="#63b8ff" stroke="#63b8ff" points="538.91,-10.23 528.6,-12.68 538.19,-17.19 538.91,-10.23"/>
</a>
</g>
</g>
<!-- Node25 -->
<g id="Node000025" class="node">
<title>Node25</title>
<g id="a_Node000025"><a xlink:title=" ">
<polygon fill="#e0e0e0" stroke="#999999" points="1312.25,-74.5 1268.5,-74.5 1268.5,-55.25 1312.25,-55.25 1312.25,-74.5"/>
<text text-anchor="middle" x="1290.38" y="-61" font-family="Helvetica,sans-Serif" font-size="10.00">format</text>
</a>
</g>
</g>
<!-- Node24&#45;&gt;Node25 -->
<g id="edge48_Node000024_Node000025" class="edge">
<title>Node24&#45;&gt;Node25</title>
<g id="a_edge48_Node000024_Node000025"><a xlink:title=" ">
<path fill="none" stroke="#63b8ff" d="M1290.38,-115.81C1290.38,-108.03 1290.38,-96.45 1290.38,-86.41"/>
<polygon fill="#63b8ff" stroke="#63b8ff" points="1293.88,-86.41 1290.38,-76.41 1286.88,-86.41 1293.88,-86.41"/>
</a>
</g>
</g>
<!-- Node26&#45;&gt;Node6 -->
<g id="edge51_Node000026_Node000006" class="edge">
<title>Node26&#45;&gt;Node6</title>
<g id="a_edge51_Node000026_Node000006"><a xlink:title=" ">
<path fill="none" stroke="#63b8ff" d="M1396.21,-115.67C1386.47,-113.75 1376.08,-111.89 1366.38,-110.5 1187.87,-85.02 972.73,-72.22 885.26,-67.76"/>
<polygon fill="#63b8ff" stroke="#63b8ff" points="885.7,-64.27 875.54,-67.27 885.35,-71.27 885.7,-64.27"/>
</a>
</g>
</g>
<!-- Node26&#45;&gt;Node11 -->
<g id="edge53_Node000026_Node000011" class="edge">
<title>Node26&#45;&gt;Node11</title>
<g id="a_edge53_Node000026_Node000011"><a xlink:title=" ">
<path fill="none" stroke="#63b8ff" d="M1423.96,-115.79C1394.74,-96.29 1325.09,-49.81 1288.97,-25.7"/>
<polygon fill="#63b8ff" stroke="#63b8ff" points="1291.25,-23.02 1280.99,-20.38 1287.36,-28.84 1291.25,-23.02"/>
</a>
</g>
</g>
<!-- Node27 -->
<g id="Node000027" class="node">
<title>Node27</title>
<g id="a_Node000027"><a xlink:title=" ">
<polygon fill="#e0e0e0" stroke="#999999" points="1454.75,-74.5 1420,-74.5 1420,-55.25 1454.75,-55.25 1454.75,-74.5"/>
<text text-anchor="middle" x="1437.38" y="-61" font-family="Helvetica,sans-Serif" font-size="10.00">print</text>
</a>
</g>
</g>
<!-- Node26&#45;&gt;Node27 -->
<g id="edge52_Node000026_Node000027" class="edge">
<title>Node26&#45;&gt;Node27</title>
<g id="a_edge52_Node000026_Node000027"><a xlink:title=" ">
<path fill="none" stroke="#63b8ff" d="M1437.38,-115.81C1437.38,-108.03 1437.38,-96.45 1437.38,-86.41"/>
<polygon fill="#63b8ff" stroke="#63b8ff" points="1440.88,-86.41 1437.38,-76.41 1433.88,-86.41 1440.88,-86.41"/>
</a>
</g>
</g>
</g>
</svg>
