<?xml version="1.0" encoding="UTF-8" standalone="no"?>
<!DOCTYPE svg PUBLIC "-//W3C//DTD SVG 1.1//EN"
 "http://www.w3.org/Graphics/SVG/1.1/DTD/svg11.dtd">
<!-- Generated by graphviz version 12.2.0 (20241103.1931)
 -->
<!-- Title: /github/workspace/test/print_2x3x4.cpp Pages: 1 -->
<svg width="1613pt" height="326pt"
 viewBox="0.00 0.00 1613.30 326.00" xmlns="http://www.w3.org/2000/svg" xmlns:xlink="http://www.w3.org/1999/xlink">
<g id="graph0" class="graph" transform="scale(1 1) rotate(0) translate(4 322)">
<title>/github/workspace/test/print_2x3x4.cpp</title>
<!-- Node1 -->
<g id="Node000001" class="node">
<title>Node1</title>
<g id="a_Node000001"><a xlink:title=" ">
<polygon fill="#999999" stroke="#666666" points="1434.8,-318 1319.8,-318 1319.8,-287.5 1434.8,-287.5 1434.8,-318"/>
<text text-anchor="start" x="1327.8" y="-304.5" font-family="Helvetica,sans-Serif" font-size="10.00">/github/workspace/test</text>
<text text-anchor="middle" x="1377.3" y="-293.25" font-family="Helvetica,sans-Serif" font-size="10.00">/print_2x3x4.cpp</text>
</a>
</g>
</g>
<!-- Node2 -->
<g id="Node000002" class="node">
<title>Node2</title>
<g id="a_Node000002"><a xlink:href="kalman_8hpp.xhtml" target="_top" xlink:title="The Kalman filter class and library top&#45;level header.">
<polygon fill="white" stroke="#666666" points="1265.3,-251.5 1159.3,-251.5 1159.3,-232.25 1265.3,-232.25 1265.3,-251.5"/>
<text text-anchor="middle" x="1212.3" y="-238" font-family="Helvetica,sans-Serif" font-size="10.00">fcarouge/kalman.hpp</text>
</a>
</g>
</g>
<!-- Node1&#45;&gt;Node2 -->
<g id="edge1_Node000001_Node000002" class="edge">
<title>Node1&#45;&gt;Node2</title>
<g id="a_edge1_Node000001_Node000002"><a xlink:title=" ">
<path fill="none" stroke="#63b8ff" d="M1336.09,-287.05C1309.15,-277.43 1274.3,-265 1248.44,-255.77"/>
<polygon fill="#63b8ff" stroke="#63b8ff" points="1249.63,-252.48 1239.03,-252.41 1247.28,-259.07 1249.63,-252.48"/>
</a>
</g>
</g>
<!-- Node30 -->
<g id="Node000030" class="node">
<title>Node30</title>
<g id="a_Node000030"><a xlink:title=" ">
<polygon fill="#e0e0e0" stroke="#999999" points="1380.8,-251.5 1283.8,-251.5 1283.8,-232.25 1380.8,-232.25 1380.8,-251.5"/>
<text text-anchor="middle" x="1332.3" y="-238" font-family="Helvetica,sans-Serif" font-size="10.00">fcarouge/linalg.hpp</text>
</a>
</g>
</g>
<!-- Node1&#45;&gt;Node30 -->
<g id="edge60_Node000001_Node000030" class="edge">
<title>Node1&#45;&gt;Node30</title>
<g id="a_edge60_Node000001_Node000030"><a xlink:title=" ">
<path fill="none" stroke="#63b8ff" d="M1366.18,-287.2C1360.12,-279.27 1352.56,-269.38 1346.13,-260.96"/>
<polygon fill="#63b8ff" stroke="#63b8ff" points="1349.01,-258.97 1340.16,-253.15 1343.45,-263.22 1349.01,-258.97"/>
</a>
</g>
</g>
<!-- Node31 -->
<g id="Node000031" class="node">
<title>Node31</title>
<g id="a_Node000031"><a xlink:title=" ">
<polygon fill="#e0e0e0" stroke="#999999" points="1447.43,-251.5 1399.18,-251.5 1399.18,-232.25 1447.43,-232.25 1447.43,-251.5"/>
<text text-anchor="middle" x="1423.3" y="-238" font-family="Helvetica,sans-Serif" font-size="10.00">cassert</text>
</a>
</g>
</g>
<!-- Node1&#45;&gt;Node31 -->
<g id="edge61_Node000001_Node000031" class="edge">
<title>Node1&#45;&gt;Node31</title>
<g id="a_edge61_Node000001_Node000031"><a xlink:title=" ">
<path fill="none" stroke="#63b8ff" d="M1388.68,-287.2C1394.87,-279.27 1402.59,-269.38 1409.17,-260.96"/>
<polygon fill="#63b8ff" stroke="#63b8ff" points="1411.88,-263.18 1415.28,-253.14 1406.37,-258.87 1411.88,-263.18"/>
</a>
</g>
</g>
<!-- Node32 -->
<g id="Node000032" class="node">
<title>Node32</title>
<g id="a_Node000032"><a xlink:title=" ">
<polygon fill="#e0e0e0" stroke="#999999" points="1508.8,-251.5 1465.8,-251.5 1465.8,-232.25 1508.8,-232.25 1508.8,-251.5"/>
<text text-anchor="middle" x="1487.3" y="-238" font-family="Helvetica,sans-Serif" font-size="10.00">cmath</text>
</a>
</g>
</g>
<!-- Node1&#45;&gt;Node32 -->
<g id="edge62_Node000001_Node000032" class="edge">
<title>Node1&#45;&gt;Node32</title>
<g id="a_edge62_Node000001_Node000032"><a xlink:title=" ">
<path fill="none" stroke="#63b8ff" d="M1404.78,-287.05C1421.85,-277.91 1443.7,-266.22 1460.62,-257.16"/>
<polygon fill="#63b8ff" stroke="#63b8ff" points="1461.94,-260.42 1469.1,-252.62 1458.63,-254.25 1461.94,-260.42"/>
</a>
</g>
</g>
<!-- Node3 -->
<g id="Node000003" class="node">
<title>Node3</title>
<g id="a_Node000003"><a xlink:href="kalman__forward_8hpp.xhtml" target="_top" xlink:title="Authoritative forward declaration header.">
<polygon fill="white" stroke="#666666" points="695.8,-196.25 592.8,-196.25 592.8,-177 695.8,-177 695.8,-196.25"/>
<text text-anchor="middle" x="644.3" y="-182.75" font-family="Helvetica,sans-Serif" font-size="10.00">kalman_forward.hpp</text>
</a>
</g>
</g>
<!-- Node2&#45;&gt;Node3 -->
<g id="edge2_Node000002_Node000003" class="edge">
<title>Node2&#45;&gt;Node3</title>
<g id="a_edge2_Node000002_Node000003"><a xlink:title=" ">
<path fill="none" stroke="#63b8ff" d="M1158.93,-237.11C1068.4,-230.51 878.72,-215.82 707.45,-196.43"/>
<polygon fill="#63b8ff" stroke="#63b8ff" points="708.03,-192.98 697.7,-195.32 707.24,-199.93 708.03,-192.98"/>
</a>
</g>
</g>
<!-- Node4 -->
<g id="Node000004" class="node">
<title>Node4</title>
<g id="a_Node000004"><a xlink:href="factory_8hpp.xhtml" target="_top" xlink:title=" ">
<polygon fill="white" stroke="#666666" points="848.55,-196.25 714.05,-196.25 714.05,-177 848.55,-177 848.55,-196.25"/>
<text text-anchor="middle" x="781.3" y="-182.75" font-family="Helvetica,sans-Serif" font-size="10.00">kalman_internal/factory.hpp</text>
</a>
</g>
</g>
<!-- Node2&#45;&gt;Node4 -->
<g id="edge3_Node000002_Node000004" class="edge">
<title>Node2&#45;&gt;Node4</title>
<g id="a_edge3_Node000002_Node000004"><a xlink:title=" ">
<path fill="none" stroke="#63b8ff" d="M1159.02,-234.29C1084.12,-225.04 947.16,-208.12 860.36,-197.39"/>
<polygon fill="#63b8ff" stroke="#63b8ff" points="860.84,-193.93 850.49,-196.17 859.98,-200.87 860.84,-193.93"/>
</a>
</g>
</g>
<!-- Node6 -->
<g id="Node000006" class="node">
<title>Node6</title>
<g id="a_Node000006"><a xlink:href="utility_8hpp.xhtml" target="_top" xlink:title=" ">
<polygon fill="white" stroke="#666666" points="946.55,-74.5 890.05,-74.5 890.05,-55.25 946.55,-55.25 946.55,-74.5"/>
<text text-anchor="middle" x="918.3" y="-61" font-family="Helvetica,sans-Serif" font-size="10.00">utility.hpp</text>
</a>
</g>
</g>
<!-- Node2&#45;&gt;Node6 -->
<g id="edge58_Node000002_Node000006" class="edge">
<title>Node2&#45;&gt;Node6</title>
<g id="a_edge58_Node000002_Node000006"><a xlink:title=" ">
<path fill="none" stroke="#63b8ff" d="M1212.66,-231.95C1213.07,-208.2 1210.68,-143.04 1174.3,-110.5 1142.97,-82.46 1021.55,-71.6 957.84,-67.76"/>
<polygon fill="#63b8ff" stroke="#63b8ff" points="958.34,-64.28 948.16,-67.21 957.94,-71.27 958.34,-64.28"/>
</a>
</g>
</g>
<!-- Node25 -->
<g id="Node000025" class="node">
<title>Node25</title>
<g id="a_Node000025"><a xlink:href="format_8hpp.xhtml" target="_top" xlink:title="Formatting support for the Kalman filter.">
<polygon fill="white" stroke="#666666" points="1462.8,-135.38 1329.8,-135.38 1329.8,-116.12 1462.8,-116.12 1462.8,-135.38"/>
<text text-anchor="middle" x="1396.3" y="-121.88" font-family="Helvetica,sans-Serif" font-size="10.00">kalman_internal/format.hpp</text>
</a>
</g>
</g>
<!-- Node2&#45;&gt;Node25 -->
<g id="edge49_Node000002_Node000025" class="edge">
<title>Node2&#45;&gt;Node25</title>
<g id="a_edge49_Node000002_Node000025"><a xlink:title=" ">
<path fill="none" stroke="#63b8ff" d="M1215.99,-232.14C1222.16,-218.48 1235.88,-192.09 1255.3,-177 1279.21,-158.44 1310.54,-146.36 1337.6,-138.72"/>
<polygon fill="#63b8ff" stroke="#63b8ff" points="1338.29,-142.16 1347.05,-136.2 1336.48,-135.39 1338.29,-142.16"/>
</a>
</g>
</g>
<!-- Node27 -->
<g id="Node000027" class="node">
<title>Node27</title>
<g id="a_Node000027"><a xlink:href="print_8hpp.xhtml" target="_top" xlink:title=" ">
<polygon fill="white" stroke="#666666" points="1605.3,-135.38 1481.3,-135.38 1481.3,-116.12 1605.3,-116.12 1605.3,-135.38"/>
<text text-anchor="middle" x="1543.3" y="-121.88" font-family="Helvetica,sans-Serif" font-size="10.00">kalman_internal/print.hpp</text>
</a>
</g>
</g>
<!-- Node2&#45;&gt;Node27 -->
<g id="edge54_Node000002_Node000027" class="edge">
<title>Node2&#45;&gt;Node27</title>
<g id="a_edge54_Node000002_Node000027"><a xlink:title=" ">
<path fill="none" stroke="#63b8ff" d="M1220.17,-231.81C1232.95,-217.69 1259.69,-190.68 1288.3,-177 1363.48,-141.05 1390.57,-157.2 1472.3,-141 1477.15,-140.04 1482.19,-139.04 1487.23,-138.03"/>
<polygon fill="#63b8ff" stroke="#63b8ff" points="1487.64,-141.52 1496.76,-136.13 1486.26,-134.65 1487.64,-141.52"/>
</a>
</g>
</g>
<!-- Node29 -->
<g id="Node000029" class="node">
<title>Node29</title>
<g id="a_Node000029"><a xlink:title=" ">
<polygon fill="#e0e0e0" stroke="#999999" points="1431.55,-196.25 1297.05,-196.25 1297.05,-177 1431.55,-177 1431.55,-196.25"/>
<text text-anchor="middle" x="1364.3" y="-182.75" font-family="Helvetica,sans-Serif" font-size="10.00">kalman_internal/kalman.tpp</text>
</a>
</g>
</g>
<!-- Node2&#45;&gt;Node29 -->
<g id="edge59_Node000002_Node000029" class="edge">
<title>Node2&#45;&gt;Node29</title>
<g id="a_edge59_Node000002_Node000029"><a xlink:title=" ">
<path fill="none" stroke="#63b8ff" d="M1238.09,-231.84C1262.66,-223.24 1299.89,-210.19 1327.56,-200.5"/>
<polygon fill="#63b8ff" stroke="#63b8ff" points="1328.68,-203.81 1336.96,-197.2 1326.37,-197.21 1328.68,-203.81"/>
</a>
</g>
</g>
<!-- Node5 -->
<g id="Node000005" class="node">
<title>Node5</title>
<g id="a_Node000005"><a xlink:href="type_8hpp.xhtml" target="_top" xlink:title=" ">
<polygon fill="white" stroke="#666666" points="1273.3,-135.38 1221.3,-135.38 1221.3,-116.12 1273.3,-116.12 1273.3,-135.38"/>
<text text-anchor="middle" x="1247.3" y="-121.88" font-family="Helvetica,sans-Serif" font-size="10.00">type.hpp</text>
</a>
</g>
</g>
<!-- Node4&#45;&gt;Node5 -->
<g id="edge4_Node000004_Node000005" class="edge">
<title>Node4&#45;&gt;Node5</title>
<g id="a_edge4_Node000004_Node000005"><a xlink:title=" ">
<path fill="none" stroke="#63b8ff" d="M848.98,-179.59C927.46,-172.22 1060.63,-158.52 1174.3,-141 1185.98,-139.2 1198.64,-136.87 1210.08,-134.61"/>
<polygon fill="#63b8ff" stroke="#63b8ff" points="1210.44,-138.11 1219.55,-132.7 1209.06,-131.25 1210.44,-138.11"/>
</a>
</g>
</g>
<!-- Node7 -->
<g id="Node000007" class="node">
<title>Node7</title>
<g id="a_Node000007"><a xlink:title=" ">
<polygon fill="#e0e0e0" stroke="#999999" points="454.18,-19.25 398.43,-19.25 398.43,0 454.18,0 454.18,-19.25"/>
<text text-anchor="middle" x="426.3" y="-5.75" font-family="Helvetica,sans-Serif" font-size="10.00">concepts</text>
</a>
</g>
</g>
<!-- Node4&#45;&gt;Node7 -->
<g id="edge46_Node000004_Node000007" class="edge">
<title>Node4&#45;&gt;Node7</title>
<g id="a_edge46_Node000004_Node000007"><a xlink:title=" ">
<path fill="none" stroke="#63b8ff" d="M713.78,-177.74C710.92,-177.48 708.08,-177.23 705.3,-177 666.72,-173.82 35.97,-169.08 9.3,-141 -24.5,-105.4 47.36,-59.99 56.3,-55.25 186.27,13.65 240.05,-42.42 385.3,-19.25 385.83,-19.17 386.35,-19.08 386.88,-18.99"/>
<polygon fill="#63b8ff" stroke="#63b8ff" points="387.45,-22.45 396.65,-17.2 386.19,-15.56 387.45,-22.45"/>
</a>
</g>
</g>
<!-- Node9 -->
<g id="Node000009" class="node">
<title>Node9</title>
<g id="a_Node000009"><a xlink:title=" ">
<polygon fill="#e0e0e0" stroke="#999999" points="510.8,-19.25 473.8,-19.25 473.8,0 510.8,0 510.8,-19.25"/>
<text text-anchor="middle" x="492.3" y="-5.75" font-family="Helvetica,sans-Serif" font-size="10.00">tuple</text>
</a>
</g>
</g>
<!-- Node4&#45;&gt;Node9 -->
<g id="edge47_Node000004_Node000009" class="edge">
<title>Node4&#45;&gt;Node9</title>
<g id="a_edge47_Node000004_Node000009"><a xlink:title=" ">
<path fill="none" stroke="#63b8ff" d="M713.78,-177.75C710.92,-177.48 708.08,-177.23 705.3,-177 667.66,-173.87 52.3,-168.41 26.3,-141 -66.65,-42.99 364.45,-32.76 462.11,-18.66"/>
<polygon fill="#63b8ff" stroke="#63b8ff" points="462.64,-22.12 471.89,-16.95 461.43,-15.23 462.64,-22.12"/>
</a>
</g>
</g>
<!-- Node10 -->
<g id="Node000010" class="node">
<title>Node10</title>
<g id="a_Node000010"><a xlink:title=" ">
<polygon fill="#e0e0e0" stroke="#999999" points="1285.8,-19.25 1224.8,-19.25 1224.8,0 1285.8,0 1285.8,-19.25"/>
<text text-anchor="middle" x="1255.3" y="-5.75" font-family="Helvetica,sans-Serif" font-size="10.00">type_traits</text>
</a>
</g>
</g>
<!-- Node4&#45;&gt;Node10 -->
<g id="edge48_Node000004_Node000010" class="edge">
<title>Node4&#45;&gt;Node10</title>
<g id="a_edge48_Node000004_Node000010"><a xlink:title=" ">
<path fill="none" stroke="#63b8ff" d="M848.94,-184.57C978.98,-181.82 1253.62,-172.35 1282.3,-141 1310.81,-109.85 1284.89,-56.77 1267.7,-28.92"/>
<polygon fill="#63b8ff" stroke="#63b8ff" points="1270.85,-27.36 1262.49,-20.85 1264.97,-31.15 1270.85,-27.36"/>
</a>
</g>
</g>
<!-- Node13 -->
<g id="Node000013" class="node">
<title>Node13</title>
<g id="a_Node000013"><a xlink:href="x__z__p__q__r_8hpp.xhtml" target="_top" xlink:title=" ">
<polygon fill="white" stroke="#666666" points="1051.05,-135.38 973.55,-135.38 973.55,-116.12 1051.05,-116.12 1051.05,-135.38"/>
<text text-anchor="middle" x="1012.3" y="-121.88" font-family="Helvetica,sans-Serif" font-size="10.00">x_z_p_q_r.hpp</text>
</a>
</g>
</g>
<!-- Node4&#45;&gt;Node13 -->
<g id="edge13_Node000004_Node000013" class="edge">
<title>Node4&#45;&gt;Node13</title>
<g id="a_edge13_Node000004_Node000013"><a xlink:title=" ">
<path fill="none" stroke="#63b8ff" d="M821.67,-176.53C859.07,-167.93 916.15,-154.4 965.3,-141 967.59,-140.38 969.92,-139.72 972.28,-139.05"/>
<polygon fill="#63b8ff" stroke="#63b8ff" points="973.23,-142.42 981.84,-136.25 971.26,-135.7 973.23,-142.42"/>
</a>
</g>
</g>
<!-- Node14 -->
<g id="Node000014" class="node">
<title>Node14</title>
<g id="a_Node000014"><a xlink:href="x__z__p__q__r__h__f_8hpp.xhtml" target="_top" xlink:title=" ">
<polygon fill="white" stroke="#666666" points="1165.43,-135.38 1069.18,-135.38 1069.18,-116.12 1165.43,-116.12 1165.43,-135.38"/>
<text text-anchor="middle" x="1117.3" y="-121.88" font-family="Helvetica,sans-Serif" font-size="10.00">x_z_p_q_r_h_f.hpp</text>
</a>
</g>
</g>
<!-- Node4&#45;&gt;Node14 -->
<g id="edge15_Node000004_Node000014" class="edge">
<title>Node4&#45;&gt;Node14</title>
<g id="a_edge15_Node000004_Node000014"><a xlink:title=" ">
<path fill="none" stroke="#63b8ff" d="M848.68,-176.51C905.38,-168.45 988.46,-155.7 1060.3,-141 1064.12,-140.22 1068.06,-139.36 1072.01,-138.45"/>
<polygon fill="#63b8ff" stroke="#63b8ff" points="1072.66,-141.89 1081.58,-136.17 1071.04,-135.08 1072.66,-141.89"/>
</a>
</g>
</g>
<!-- Node15 -->
<g id="Node000015" class="node">
<title>Node15</title>
<g id="a_Node000015"><a xlink:href="x__z__p__q__r__hh__f__us__ps_8hpp.xhtml" target="_top" xlink:title=" ">
<polygon fill="white" stroke="#666666" points="558.8,-135.38 425.8,-135.38 425.8,-116.12 558.8,-116.12 558.8,-135.38"/>
<text text-anchor="middle" x="492.3" y="-121.88" font-family="Helvetica,sans-Serif" font-size="10.00">x_z_p_q_r_hh_f_us_ps.hpp</text>
</a>
</g>
</g>
<!-- Node4&#45;&gt;Node15 -->
<g id="edge17_Node000004_Node000015" class="edge">
<title>Node4&#45;&gt;Node15</title>
<g id="a_edge17_Node000004_Node000015"><a xlink:title=" ">
<path fill="none" stroke="#63b8ff" d="M736.78,-176.55C685.97,-166.2 602.82,-149.26 547.82,-138.06"/>
<polygon fill="#63b8ff" stroke="#63b8ff" points="548.86,-134.7 538.36,-136.13 547.46,-141.56 548.86,-134.7"/>
</a>
</g>
</g>
<!-- Node18 -->
<g id="Node000018" class="node">
<title>Node18</title>
<g id="a_Node000018"><a xlink:href="x__z__p__q__r__hh__ff__ps_8hpp.xhtml" target="_top" xlink:title=" ">
<polygon fill="white" stroke="#666666" points="408.05,-135.38 288.55,-135.38 288.55,-116.12 408.05,-116.12 408.05,-135.38"/>
<text text-anchor="middle" x="348.3" y="-121.88" font-family="Helvetica,sans-Serif" font-size="10.00">x_z_p_q_r_hh_ff_ps.hpp</text>
</a>
</g>
</g>
<!-- Node4&#45;&gt;Node18 -->
<g id="edge22_Node000004_Node000018" class="edge">
<title>Node4&#45;&gt;Node18</title>
<g id="a_edge22_Node000004_Node000018"><a xlink:title=" ">
<path fill="none" stroke="#63b8ff" d="M713.82,-177.69C616.41,-166.19 444.88,-145.73 416.3,-141 411.01,-140.12 405.49,-139.12 400,-138.06"/>
<polygon fill="#63b8ff" stroke="#63b8ff" points="400.81,-134.65 390.31,-136.13 399.44,-141.52 400.81,-134.65"/>
</a>
</g>
</g>
<!-- Node19 -->
<g id="Node000019" class="node">
<title>Node19</title>
<g id="a_Node000019"><a xlink:href="x__z__p__qq__rr__f_8hpp.xhtml" target="_top" xlink:title=" ">
<polygon fill="white" stroke="#666666" points="671.3,-135.38 577.3,-135.38 577.3,-116.12 671.3,-116.12 671.3,-135.38"/>
<text text-anchor="middle" x="624.3" y="-121.88" font-family="Helvetica,sans-Serif" font-size="10.00">x_z_p_qq_rr_f.hpp</text>
</a>
</g>
</g>
<!-- Node4&#45;&gt;Node19 -->
<g id="edge26_Node000004_Node000019" class="edge">
<title>Node4&#45;&gt;Node19</title>
<g id="a_edge26_Node000004_Node000019"><a xlink:title=" ">
<path fill="none" stroke="#63b8ff" d="M757.12,-176.55C730.96,-166.74 689.01,-151.01 659.26,-139.86"/>
<polygon fill="#63b8ff" stroke="#63b8ff" points="660.53,-136.6 649.94,-136.36 658.07,-143.15 660.53,-136.6"/>
</a>
</g>
</g>
<!-- Node20 -->
<g id="Node000020" class="node">
<title>Node20</title>
<g id="a_Node000020"><a xlink:href="x__z__p__r_8hpp.xhtml" target="_top" xlink:title=" ">
<polygon fill="white" stroke="#666666" points="862.8,-135.38 795.8,-135.38 795.8,-116.12 862.8,-116.12 862.8,-135.38"/>
<text text-anchor="middle" x="829.3" y="-121.88" font-family="Helvetica,sans-Serif" font-size="10.00">x_z_p_r.hpp</text>
</a>
</g>
</g>
<!-- Node4&#45;&gt;Node20 -->
<g id="edge30_Node000004_Node000020" class="edge">
<title>Node4&#45;&gt;Node20</title>
<g id="a_edge30_Node000004_Node000020"><a xlink:title=" ">
<path fill="none" stroke="#63b8ff" d="M788.59,-176.68C795.5,-168.21 806.08,-155.24 814.72,-144.64"/>
<polygon fill="#63b8ff" stroke="#63b8ff" points="817.38,-146.91 820.99,-136.95 811.96,-142.49 817.38,-146.91"/>
</a>
</g>
</g>
<!-- Node21 -->
<g id="Node000021" class="node">
<title>Node21</title>
<g id="a_Node000021"><a xlink:href="x__z__p__r__f_8hpp.xhtml" target="_top" xlink:title=" ">
<polygon fill="white" stroke="#666666" points="955.93,-135.38 880.68,-135.38 880.68,-116.12 955.93,-116.12 955.93,-135.38"/>
<text text-anchor="middle" x="918.3" y="-121.88" font-family="Helvetica,sans-Serif" font-size="10.00">x_z_p_r_f.hpp</text>
</a>
</g>
</g>
<!-- Node4&#45;&gt;Node21 -->
<g id="edge32_Node000004_Node000021" class="edge">
<title>Node4&#45;&gt;Node21</title>
<g id="a_edge32_Node000004_Node000021"><a xlink:title=" ">
<path fill="none" stroke="#63b8ff" d="M802.41,-176.55C825,-166.85 861.09,-151.34 886.99,-140.21"/>
<polygon fill="#63b8ff" stroke="#63b8ff" points="888.2,-143.5 896.01,-136.33 885.44,-137.06 888.2,-143.5"/>
</a>
</g>
</g>
<!-- Node22 -->
<g id="Node000022" class="node">
<title>Node22</title>
<g id="a_Node000022"><a xlink:href="x__z__u__p__q__r_8hpp.xhtml" target="_top" xlink:title=" ">
<polygon fill="white" stroke="#666666" points="777.3,-135.38 689.3,-135.38 689.3,-116.12 777.3,-116.12 777.3,-135.38"/>
<text text-anchor="middle" x="733.3" y="-121.88" font-family="Helvetica,sans-Serif" font-size="10.00">x_z_u_p_q_r.hpp</text>
</a>
</g>
</g>
<!-- Node4&#45;&gt;Node22 -->
<g id="edge34_Node000004_Node000022" class="edge">
<title>Node4&#45;&gt;Node22</title>
<g id="a_edge34_Node000004_Node000022"><a xlink:title=" ">
<path fill="none" stroke="#63b8ff" d="M774.01,-176.68C767.11,-168.21 756.53,-155.24 747.89,-144.64"/>
<polygon fill="#63b8ff" stroke="#63b8ff" points="750.65,-142.49 741.62,-136.95 745.23,-146.91 750.65,-142.49"/>
</a>
</g>
</g>
<!-- Node23 -->
<g id="Node000023" class="node">
<title>Node23</title>
<g id="a_Node000023"><a xlink:href="x__z__u__p__q__r__h__f__g__us__ps_8hpp.xhtml" target="_top" xlink:title=" ">
<polygon fill="white" stroke="#666666" points="150.8,-141 35.8,-141 35.8,-110.5 150.8,-110.5 150.8,-141"/>
<text text-anchor="start" x="43.8" y="-127.5" font-family="Helvetica,sans-Serif" font-size="10.00">x_z_u_p_q_r_h_f_g_us</text>
<text text-anchor="middle" x="93.3" y="-116.25" font-family="Helvetica,sans-Serif" font-size="10.00">_ps.hpp</text>
</a>
</g>
</g>
<!-- Node4&#45;&gt;Node23 -->
<g id="edge38_Node000004_Node000023" class="edge">
<title>Node4&#45;&gt;Node23</title>
<g id="a_edge38_Node000004_Node000023"><a xlink:title=" ">
<path fill="none" stroke="#63b8ff" d="M713.78,-177.79C710.92,-177.52 708.08,-177.25 705.3,-177 466.75,-155.61 402.09,-174.17 162.35,-141.3"/>
<polygon fill="#63b8ff" stroke="#63b8ff" points="163.05,-137.86 152.67,-139.95 162.09,-144.8 163.05,-137.86"/>
</a>
</g>
</g>
<!-- Node24 -->
<g id="Node000024" class="node">
<title>Node24</title>
<g id="a_Node000024"><a xlink:href="x__z__u__p__qq__r__ff__gg__ps_8hpp.xhtml" target="_top" xlink:title=" ">
<polygon fill="white" stroke="#666666" points="270.05,-141 168.55,-141 168.55,-110.5 270.05,-110.5 270.05,-141"/>
<text text-anchor="start" x="176.55" y="-127.5" font-family="Helvetica,sans-Serif" font-size="10.00">x_z_u_p_qq_r_ff_gg</text>
<text text-anchor="middle" x="219.3" y="-116.25" font-family="Helvetica,sans-Serif" font-size="10.00">_ps.hpp</text>
</a>
</g>
</g>
<!-- Node4&#45;&gt;Node24 -->
<g id="edge42_Node000004_Node000024" class="edge">
<title>Node4&#45;&gt;Node24</title>
<g id="a_edge42_Node000004_Node000024"><a xlink:title=" ">
<path fill="none" stroke="#63b8ff" d="M713.77,-177.86C710.91,-177.56 708.08,-177.27 705.3,-177 519.91,-158.65 468.9,-170.55 281.62,-141.2"/>
<polygon fill="#63b8ff" stroke="#63b8ff" points="282.18,-137.75 271.76,-139.64 281.09,-144.66 282.18,-137.75"/>
</a>
</g>
</g>
<!-- Node5&#45;&gt;Node6 -->
<g id="edge5_Node000005_Node000006" class="edge">
<title>Node5&#45;&gt;Node6</title>
<g id="a_edge5_Node000005_Node000006"><a xlink:title=" ">
<path fill="none" stroke="#63b8ff" d="M1224.27,-115.71C1218.77,-113.78 1212.88,-111.91 1207.3,-110.5 1119.77,-88.36 1014.38,-75.45 958.19,-69.62"/>
<polygon fill="#63b8ff" stroke="#63b8ff" points="958.77,-66.16 948.47,-68.64 958.07,-73.13 958.77,-66.16"/>
</a>
</g>
</g>
<!-- Node5&#45;&gt;Node10 -->
<g id="edge12_Node000005_Node000010" class="edge">
<title>Node5&#45;&gt;Node10</title>
<g id="a_edge12_Node000005_Node000010"><a xlink:title=" ">
<path fill="none" stroke="#63b8ff" d="M1247.93,-115.79C1249.21,-97.63 1252.12,-56.04 1253.88,-30.95"/>
<polygon fill="#63b8ff" stroke="#63b8ff" points="1257.37,-31.27 1254.57,-21.05 1250.38,-30.78 1257.37,-31.27"/>
</a>
</g>
</g>
<!-- Node12 -->
<g id="Node000012" class="node">
<title>Node12</title>
<g id="a_Node000012"><a xlink:title=" ">
<polygon fill="#e0e0e0" stroke="#999999" points="1227.05,-74.5 1155.55,-74.5 1155.55,-55.25 1227.05,-55.25 1227.05,-74.5"/>
<text text-anchor="middle" x="1191.3" y="-61" font-family="Helvetica,sans-Serif" font-size="10.00">initializer_list</text>
</a>
</g>
</g>
<!-- Node5&#45;&gt;Node12 -->
<g id="edge11_Node000005_Node000012" class="edge">
<title>Node5&#45;&gt;Node12</title>
<g id="a_edge11_Node000005_Node000012"><a xlink:title=" ">
<path fill="none" stroke="#63b8ff" d="M1238.8,-115.81C1230.58,-107.16 1217.9,-93.84 1207.71,-83.12"/>
<polygon fill="#63b8ff" stroke="#63b8ff" points="1210.36,-80.83 1200.93,-76 1205.29,-85.66 1210.36,-80.83"/>
</a>
</g>
</g>
<!-- Node6&#45;&gt;Node7 -->
<g id="edge6_Node000006_Node000007" class="edge">
<title>Node6&#45;&gt;Node7</title>
<g id="a_edge6_Node000006_Node000007"><a xlink:title=" ">
<path fill="none" stroke="#63b8ff" d="M889.72,-62.31C819.41,-58.2 632.26,-45.67 465.41,-19.19"/>
<polygon fill="#63b8ff" stroke="#63b8ff" points="466.37,-15.8 455.94,-17.67 465.26,-22.71 466.37,-15.8"/>
</a>
</g>
</g>
<!-- Node8 -->
<g id="Node000008" class="node">
<title>Node8</title>
<g id="a_Node000008"><a xlink:title=" ">
<polygon fill="#e0e0e0" stroke="#999999" points="1380.43,-19.25 1332.18,-19.25 1332.18,0 1380.43,0 1380.43,-19.25"/>
<text text-anchor="middle" x="1356.3" y="-5.75" font-family="Helvetica,sans-Serif" font-size="10.00">cstddef</text>
</a>
</g>
</g>
<!-- Node6&#45;&gt;Node8 -->
<g id="edge7_Node000006_Node000008" class="edge">
<title>Node6&#45;&gt;Node8</title>
<g id="a_edge7_Node000006_Node000008"><a xlink:title=" ">
<path fill="none" stroke="#63b8ff" d="M946.71,-60.74C1009.58,-53.74 1165.24,-36.14 1295.3,-19.25 1303.45,-18.19 1312.2,-16.99 1320.46,-15.83"/>
<polygon fill="#63b8ff" stroke="#63b8ff" points="1320.78,-19.32 1330.19,-14.45 1319.8,-12.39 1320.78,-19.32"/>
</a>
</g>
</g>
<!-- Node6&#45;&gt;Node9 -->
<g id="edge8_Node000006_Node000009" class="edge">
<title>Node6&#45;&gt;Node9</title>
<g id="a_edge8_Node000006_Node000009"><a xlink:title=" ">
<path fill="none" stroke="#63b8ff" d="M889.69,-60.3C812.5,-50.65 600.55,-24.16 522.06,-14.34"/>
<polygon fill="#63b8ff" stroke="#63b8ff" points="522.92,-10.92 512.56,-13.16 522.05,-17.87 522.92,-10.92"/>
</a>
</g>
</g>
<!-- Node6&#45;&gt;Node10 -->
<g id="edge9_Node000006_Node000010" class="edge">
<title>Node6&#45;&gt;Node10</title>
<g id="a_edge9_Node000006_Node000010"><a xlink:title=" ">
<path fill="none" stroke="#63b8ff" d="M947.04,-59.33C1006.62,-49.92 1143.87,-28.23 1213.36,-17.25"/>
<polygon fill="#63b8ff" stroke="#63b8ff" points="1213.88,-20.71 1223.22,-15.7 1212.79,-13.8 1213.88,-20.71"/>
</a>
</g>
</g>
<!-- Node11 -->
<g id="Node000011" class="node">
<title>Node11</title>
<g id="a_Node000011"><a xlink:title=" ">
<polygon fill="#e0e0e0" stroke="#999999" points="1480.55,-19.25 1442.05,-19.25 1442.05,0 1480.55,0 1480.55,-19.25"/>
<text text-anchor="middle" x="1461.3" y="-5.75" font-family="Helvetica,sans-Serif" font-size="10.00">utility</text>
</a>
</g>
</g>
<!-- Node6&#45;&gt;Node11 -->
<g id="edge10_Node000006_Node000011" class="edge">
<title>Node6&#45;&gt;Node11</title>
<g id="a_edge10_Node000006_Node000011"><a xlink:title=" ">
<path fill="none" stroke="#63b8ff" d="M947,-61.41C1020.57,-55.02 1221.88,-37.21 1389.3,-19.25 1402.77,-17.81 1417.64,-16.05 1430.35,-14.5"/>
<polygon fill="#63b8ff" stroke="#63b8ff" points="1430.76,-17.98 1440.26,-13.28 1429.91,-11.03 1430.76,-17.98"/>
</a>
</g>
</g>
<!-- Node13&#45;&gt;Node6 -->
<g id="edge14_Node000013_Node000006" class="edge">
<title>Node13&#45;&gt;Node6</title>
<g id="a_edge14_Node000013_Node000006"><a xlink:title=" ">
<path fill="none" stroke="#63b8ff" d="M998.03,-115.81C983.26,-106.56 959.93,-91.95 942.32,-80.92"/>
<polygon fill="#63b8ff" stroke="#63b8ff" points="944.33,-78.05 934,-75.7 940.62,-83.98 944.33,-78.05"/>
</a>
</g>
</g>
<!-- Node14&#45;&gt;Node6 -->
<g id="edge16_Node000014_Node000006" class="edge">
<title>Node14&#45;&gt;Node6</title>
<g id="a_edge16_Node000014_Node000006"><a xlink:title=" ">
<path fill="none" stroke="#63b8ff" d="M1086.65,-115.68C1051.92,-105.4 995.24,-88.64 957.37,-77.43"/>
<polygon fill="#63b8ff" stroke="#63b8ff" points="958.77,-74.2 948.19,-74.72 956.79,-80.91 958.77,-74.2"/>
</a>
</g>
</g>
<!-- Node15&#45;&gt;Node6 -->
<g id="edge20_Node000015_Node000006" class="edge">
<title>Node15&#45;&gt;Node6</title>
<g id="a_edge20_Node000015_Node000006"><a xlink:title=" ">
<path fill="none" stroke="#63b8ff" d="M538.45,-115.65C548.28,-113.84 558.62,-112.02 568.3,-110.5 680.24,-92.89 813.16,-77.43 878.29,-70.21"/>
<polygon fill="#63b8ff" stroke="#63b8ff" points="878.58,-73.69 888.14,-69.12 877.81,-66.74 878.58,-73.69"/>
</a>
</g>
</g>
<!-- Node15&#45;&gt;Node9 -->
<g id="edge21_Node000015_Node000009" class="edge">
<title>Node15&#45;&gt;Node9</title>
<g id="a_edge21_Node000015_Node000009"><a xlink:title=" ">
<path fill="none" stroke="#63b8ff" d="M492.3,-115.79C492.3,-97.63 492.3,-56.04 492.3,-30.95"/>
<polygon fill="#63b8ff" stroke="#63b8ff" points="495.8,-31.05 492.3,-21.05 488.8,-31.05 495.8,-31.05"/>
</a>
</g>
</g>
<!-- Node16 -->
<g id="Node000016" class="node">
<title>Node16</title>
<g id="a_Node000016"><a xlink:href="function_8hpp.xhtml" target="_top" xlink:title=" ">
<polygon fill="white" stroke="#666666" points="385.55,-74.5 317.05,-74.5 317.05,-55.25 385.55,-55.25 385.55,-74.5"/>
<text text-anchor="middle" x="351.3" y="-61" font-family="Helvetica,sans-Serif" font-size="10.00">function.hpp</text>
</a>
</g>
</g>
<!-- Node15&#45;&gt;Node16 -->
<g id="edge18_Node000015_Node000016" class="edge">
<title>Node15&#45;&gt;Node16</title>
<g id="a_edge18_Node000015_Node000016"><a xlink:title=" ">
<path fill="none" stroke="#63b8ff" d="M470.58,-115.68C447.23,-105.93 409.86,-90.33 383.18,-79.18"/>
<polygon fill="#63b8ff" stroke="#63b8ff" points="384.79,-76.07 374.22,-75.44 382.1,-82.53 384.79,-76.07"/>
</a>
</g>
</g>
<!-- Node17 -->
<g id="Node000017" class="node">
<title>Node17</title>
<g id="a_Node000017"><a xlink:title=" ">
<polygon fill="#e0e0e0" stroke="#999999" points="376.55,-19.25 326.05,-19.25 326.05,0 376.55,0 376.55,-19.25"/>
<text text-anchor="middle" x="351.3" y="-5.75" font-family="Helvetica,sans-Serif" font-size="10.00">memory</text>
</a>
</g>
</g>
<!-- Node16&#45;&gt;Node17 -->
<g id="edge19_Node000016_Node000017" class="edge">
<title>Node16&#45;&gt;Node17</title>
<g id="a_edge19_Node000016_Node000017"><a xlink:title=" ">
<path fill="none" stroke="#63b8ff" d="M351.3,-55.08C351.3,-48.57 351.3,-39.42 351.3,-31.12"/>
<polygon fill="#63b8ff" stroke="#63b8ff" points="354.8,-31.12 351.3,-21.12 347.8,-31.12 354.8,-31.12"/>
</a>
</g>
</g>
<!-- Node18&#45;&gt;Node6 -->
<g id="edge24_Node000018_Node000006" class="edge">
<title>Node18&#45;&gt;Node6</title>
<g id="a_edge24_Node000018_Node000006"><a xlink:title=" ">
<path fill="none" stroke="#63b8ff" d="M387.72,-115.67C397.05,-113.75 407,-111.88 416.3,-110.5 587.02,-85.11 792.71,-72.35 878.11,-67.84"/>
<polygon fill="#63b8ff" stroke="#63b8ff" points="878.27,-71.33 888.07,-67.32 877.9,-64.34 878.27,-71.33"/>
</a>
</g>
</g>
<!-- Node18&#45;&gt;Node9 -->
<g id="edge25_Node000018_Node000009" class="edge">
<title>Node18&#45;&gt;Node9</title>
<g id="a_edge25_Node000018_Node000009"><a xlink:title=" ">
<path fill="none" stroke="#63b8ff" d="M359.6,-115.79C383.89,-96.54 441.36,-51 472.1,-26.64"/>
<polygon fill="#63b8ff" stroke="#63b8ff" points="474.21,-29.43 479.87,-20.48 469.86,-23.95 474.21,-29.43"/>
</a>
</g>
</g>
<!-- Node18&#45;&gt;Node16 -->
<g id="edge23_Node000018_Node000016" class="edge">
<title>Node18&#45;&gt;Node16</title>
<g id="a_edge23_Node000018_Node000016"><a xlink:title=" ">
<path fill="none" stroke="#63b8ff" d="M348.76,-115.81C349.16,-107.94 349.76,-96.2 350.28,-86.07"/>
<polygon fill="#63b8ff" stroke="#63b8ff" points="353.75,-86.58 350.77,-76.41 346.76,-86.22 353.75,-86.58"/>
</a>
</g>
</g>
<!-- Node19&#45;&gt;Node6 -->
<g id="edge28_Node000019_Node000006" class="edge">
<title>Node19&#45;&gt;Node6</title>
<g id="a_edge28_Node000019_Node000006"><a xlink:title=" ">
<path fill="none" stroke="#63b8ff" d="M658.58,-115.66C665.74,-113.87 673.25,-112.06 680.3,-110.5 749.56,-95.21 830.89,-80.69 878.31,-72.57"/>
<polygon fill="#63b8ff" stroke="#63b8ff" points="878.85,-76.03 888.12,-70.9 877.67,-69.13 878.85,-76.03"/>
</a>
</g>
</g>
<!-- Node19&#45;&gt;Node9 -->
<g id="edge29_Node000019_Node000009" class="edge">
<title>Node19&#45;&gt;Node9</title>
<g id="a_edge29_Node000019_Node000009"><a xlink:title=" ">
<path fill="none" stroke="#63b8ff" d="M613.95,-115.79C591.78,-96.63 539.46,-51.39 511.2,-26.96"/>
<polygon fill="#63b8ff" stroke="#63b8ff" points="513.61,-24.42 503.76,-20.53 509.03,-29.72 513.61,-24.42"/>
</a>
</g>
</g>
<!-- Node19&#45;&gt;Node16 -->
<g id="edge27_Node000019_Node000016" class="edge">
<title>Node19&#45;&gt;Node16</title>
<g id="a_edge27_Node000019_Node000016"><a xlink:title=" ">
<path fill="none" stroke="#63b8ff" d="M589.71,-115.68C582.64,-113.9 575.25,-112.1 568.3,-110.5 509.47,-96.97 441.2,-83.26 397.18,-74.67"/>
<polygon fill="#63b8ff" stroke="#63b8ff" points="397.96,-71.25 387.47,-72.78 396.62,-78.13 397.96,-71.25"/>
</a>
</g>
</g>
<!-- Node20&#45;&gt;Node6 -->
<g id="edge31_Node000020_Node000006" class="edge">
<title>Node20&#45;&gt;Node6</title>
<g id="a_edge31_Node000020_Node000006"><a xlink:title=" ">
<path fill="none" stroke="#63b8ff" d="M842.82,-115.81C856.67,-106.64 878.48,-92.22 895.1,-81.23"/>
<polygon fill="#63b8ff" stroke="#63b8ff" points="896.99,-84.17 903.4,-75.74 893.13,-78.33 896.99,-84.17"/>
</a>
</g>
</g>
<!-- Node21&#45;&gt;Node6 -->
<g id="edge33_Node000021_Node000006" class="edge">
<title>Node21&#45;&gt;Node6</title>
<g id="a_edge33_Node000021_Node000006"><a xlink:title=" ">
<path fill="none" stroke="#63b8ff" d="M918.3,-115.81C918.3,-108.03 918.3,-96.45 918.3,-86.41"/>
<polygon fill="#63b8ff" stroke="#63b8ff" points="921.8,-86.41 918.3,-76.41 914.8,-86.41 921.8,-86.41"/>
</a>
</g>
</g>
<!-- Node22&#45;&gt;Node6 -->
<g id="edge36_Node000022_Node000006" class="edge">
<title>Node22&#45;&gt;Node6</title>
<g id="a_edge36_Node000022_Node000006"><a xlink:title=" ">
<path fill="none" stroke="#63b8ff" d="M761.81,-115.68C793.18,-105.7 843.81,-89.58 878.95,-78.4"/>
<polygon fill="#63b8ff" stroke="#63b8ff" points="879.86,-81.78 888.33,-75.41 877.74,-75.11 879.86,-81.78"/>
</a>
</g>
</g>
<!-- Node22&#45;&gt;Node9 -->
<g id="edge37_Node000022_Node000009" class="edge">
<title>Node22&#45;&gt;Node9</title>
<g id="a_edge37_Node000022_Node000009"><a xlink:title=" ">
<path fill="none" stroke="#63b8ff" d="M714.39,-115.79C672.42,-95.92 571.26,-48.01 521.26,-24.34"/>
<polygon fill="#63b8ff" stroke="#63b8ff" points="523.03,-21.3 512.5,-20.19 520.04,-27.63 523.03,-21.3"/>
</a>
</g>
</g>
<!-- Node22&#45;&gt;Node16 -->
<g id="edge35_Node000022_Node000016" class="edge">
<title>Node22&#45;&gt;Node16</title>
<g id="a_edge35_Node000022_Node000016"><a xlink:title=" ">
<path fill="none" stroke="#63b8ff" d="M702.07,-115.64C694.96,-113.77 687.4,-111.93 680.3,-110.5 580.03,-90.31 460.69,-76.67 396.89,-70.2"/>
<polygon fill="#63b8ff" stroke="#63b8ff" points="397.45,-66.73 387.15,-69.22 396.75,-73.7 397.45,-66.73"/>
</a>
</g>
</g>
<!-- Node23&#45;&gt;Node6 -->
<g id="edge40_Node000023_Node000006" class="edge">
<title>Node23&#45;&gt;Node6</title>
<g id="a_edge40_Node000023_Node000006"><a xlink:title=" ">
<path fill="none" stroke="#63b8ff" d="M151.16,-111.73C153.91,-111.28 156.63,-110.86 159.3,-110.5 432.5,-73.2 765.21,-67.06 878.41,-66.06"/>
<polygon fill="#63b8ff" stroke="#63b8ff" points="878.41,-69.56 888.38,-65.99 878.35,-62.56 878.41,-69.56"/>
</a>
</g>
</g>
<!-- Node23&#45;&gt;Node9 -->
<g id="edge41_Node000023_Node000009" class="edge">
<title>Node23&#45;&gt;Node9</title>
<g id="a_edge41_Node000023_Node000009"><a xlink:title=" ">
<path fill="none" stroke="#63b8ff" d="M125.67,-110.09C161.06,-94.57 219.74,-70.27 272.3,-55.25 352.04,-32.47 377.33,-38.99 462.39,-19.19"/>
<polygon fill="#63b8ff" stroke="#63b8ff" points="462.96,-22.65 471.88,-16.92 461.34,-15.84 462.96,-22.65"/>
</a>
</g>
</g>
<!-- Node23&#45;&gt;Node16 -->
<g id="edge39_Node000023_Node000016" class="edge">
<title>Node23&#45;&gt;Node16</title>
<g id="a_edge39_Node000023_Node000016"><a xlink:title=" ">
<path fill="none" stroke="#63b8ff" d="M151.2,-111.54C197.85,-100.89 262.52,-86.13 305.58,-76.31"/>
<polygon fill="#63b8ff" stroke="#63b8ff" points="306.13,-79.77 315.1,-74.14 304.58,-72.95 306.13,-79.77"/>
</a>
</g>
</g>
<!-- Node24&#45;&gt;Node6 -->
<g id="edge44_Node000024_Node000006" class="edge">
<title>Node24&#45;&gt;Node6</title>
<g id="a_edge44_Node000024_Node000006"><a xlink:title=" ">
<path fill="none" stroke="#63b8ff" d="M270.26,-112.05C273.31,-111.48 276.34,-110.95 279.3,-110.5 504.05,-76.2 777.36,-68.22 878.33,-66.4"/>
<polygon fill="#63b8ff" stroke="#63b8ff" points="878.33,-69.9 888.27,-66.23 878.21,-62.9 878.33,-69.9"/>
</a>
</g>
</g>
<!-- Node24&#45;&gt;Node9 -->
<g id="edge45_Node000024_Node000009" class="edge">
<title>Node24&#45;&gt;Node9</title>
<g id="a_edge45_Node000024_Node000009"><a xlink:title=" ">
<path fill="none" stroke="#63b8ff" d="M233.68,-110.22C250.24,-94.33 278.94,-69.28 308.3,-55.25 369.01,-26.26 392.61,-36.21 462.22,-19.28"/>
<polygon fill="#63b8ff" stroke="#63b8ff" points="463.03,-22.69 471.85,-16.83 461.3,-15.9 463.03,-22.69"/>
</a>
</g>
</g>
<!-- Node24&#45;&gt;Node16 -->
<g id="edge43_Node000024_Node000016" class="edge">
<title>Node24&#45;&gt;Node16</title>
<g id="a_edge43_Node000024_Node000016"><a xlink:title=" ">
<path fill="none" stroke="#63b8ff" d="M252.27,-110.05C273.25,-100.69 300.21,-88.66 320.71,-79.52"/>
<polygon fill="#63b8ff" stroke="#63b8ff" points="321.97,-82.79 329.68,-75.52 319.12,-76.4 321.97,-82.79"/>
</a>
</g>
</g>
<!-- Node25&#45;&gt;Node6 -->
<g id="edge50_Node000025_Node000006" class="edge">
<title>Node25&#45;&gt;Node6</title>
<g id="a_edge50_Node000025_Node000006"><a xlink:title=" ">
<path fill="none" stroke="#63b8ff" d="M1329.4,-116.36C1313.93,-114.43 1297.55,-112.39 1282.3,-110.5 1164.28,-95.89 1024.71,-78.84 957.86,-70.69"/>
<polygon fill="#63b8ff" stroke="#63b8ff" points="958.48,-67.24 948.13,-69.51 957.63,-74.19 958.48,-67.24"/>
</a>
</g>
</g>
<!-- Node25&#45;&gt;Node8 -->
<g id="edge51_Node000025_Node000008" class="edge">
<title>Node25&#45;&gt;Node8</title>
<g id="a_edge51_Node000025_Node000008"><a xlink:title=" ">
<path fill="none" stroke="#63b8ff" d="M1393.17,-115.79C1386.74,-97.46 1371.95,-55.28 1363.19,-30.26"/>
<polygon fill="#63b8ff" stroke="#63b8ff" points="1366.54,-29.25 1359.93,-20.97 1359.93,-31.56 1366.54,-29.25"/>
</a>
</g>
</g>
<!-- Node25&#45;&gt;Node9 -->
<g id="edge53_Node000025_Node000009" class="edge">
<title>Node25&#45;&gt;Node9</title>
<g id="a_edge53_Node000025_Node000009"><a xlink:title=" ">
<path fill="none" stroke="#63b8ff" d="M1380.6,-115.7C1352.65,-100.1 1291.97,-68.57 1236.3,-55.25 1097.3,-21.99 644.17,-12.9 522.57,-11.04"/>
<polygon fill="#63b8ff" stroke="#63b8ff" points="522.8,-7.54 512.75,-10.89 522.7,-14.54 522.8,-7.54"/>
</a>
</g>
</g>
<!-- Node26 -->
<g id="Node000026" class="node">
<title>Node26</title>
<g id="a_Node000026"><a xlink:title=" ">
<polygon fill="#e0e0e0" stroke="#999999" points="1449.18,-74.5 1405.43,-74.5 1405.43,-55.25 1449.18,-55.25 1449.18,-74.5"/>
<text text-anchor="middle" x="1427.3" y="-61" font-family="Helvetica,sans-Serif" font-size="10.00">format</text>
</a>
</g>
</g>
<!-- Node25&#45;&gt;Node26 -->
<g id="edge52_Node000025_Node000026" class="edge">
<title>Node25&#45;&gt;Node26</title>
<g id="a_edge52_Node000025_Node000026"><a xlink:title=" ">
<path fill="none" stroke="#63b8ff" d="M1401.01,-115.81C1405.29,-107.68 1411.75,-95.42 1417.19,-85.08"/>
<polygon fill="#63b8ff" stroke="#63b8ff" points="1420.28,-86.72 1421.85,-76.24 1414.09,-83.46 1420.28,-86.72"/>
</a>
</g>
</g>
<!-- Node27&#45;&gt;Node6 -->
<g id="edge55_Node000027_Node000006" class="edge">
<title>Node27&#45;&gt;Node6</title>
<g id="a_edge55_Node000027_Node000006"><a xlink:title=" ">
<path fill="none" stroke="#63b8ff" d="M1502.15,-115.64C1492.4,-113.72 1482.02,-111.86 1472.3,-110.5 1280.94,-83.68 1049.96,-71.51 958.44,-67.49"/>
<polygon fill="#63b8ff" stroke="#63b8ff" points="958.63,-63.99 948.49,-67.06 958.33,-70.99 958.63,-63.99"/>
</a>
</g>
</g>
<!-- Node27&#45;&gt;Node11 -->
<g id="edge57_Node000027_Node000011" class="edge">
<title>Node27&#45;&gt;Node11</title>
<g id="a_edge57_Node000027_Node000011"><a xlink:title=" ">
<path fill="none" stroke="#63b8ff" d="M1536.87,-115.79C1523.4,-97.04 1492,-53.35 1474.21,-28.58"/>
<polygon fill="#63b8ff" stroke="#63b8ff" points="1477.27,-26.85 1468.59,-20.77 1471.59,-30.93 1477.27,-26.85"/>
</a>
</g>
</g>
<!-- Node28 -->
<g id="Node000028" class="node">
<title>Node28</title>
<g id="a_Node000028"><a xlink:title=" ">
<polygon fill="#e0e0e0" stroke="#999999" points="1560.68,-74.5 1525.93,-74.5 1525.93,-55.25 1560.68,-55.25 1560.68,-74.5"/>
<text text-anchor="middle" x="1543.3" y="-61" font-family="Helvetica,sans-Serif" font-size="10.00">print</text>
</a>
</g>
</g>
<!-- Node27&#45;&gt;Node28 -->
<g id="edge56_Node000027_Node000028" class="edge">
<title>Node27&#45;&gt;Node28</title>
<g id="a_edge56_Node000027_Node000028"><a xlink:title=" ">
<path fill="none" stroke="#63b8ff" d="M1543.3,-115.81C1543.3,-108.03 1543.3,-96.45 1543.3,-86.41"/>
<polygon fill="#63b8ff" stroke="#63b8ff" points="1546.8,-86.41 1543.3,-76.41 1539.8,-86.41 1546.8,-86.41"/>
</a>
</g>
</g>
</g>
</svg>
