<?xml version="1.0" encoding="UTF-8" standalone="no"?>
<!DOCTYPE svg PUBLIC "-//W3C//DTD SVG 1.1//EN"
 "http://www.w3.org/Graphics/SVG/1.1/DTD/svg11.dtd">
<!-- Generated by graphviz version 12.2.0 (20241103.1931)
 -->
<!-- Title: /github/workspace/test/print_2x3x4.cpp Pages: 1 -->
<!--zoomable 326 -->

<svg id="main" version="1.1" xmlns="http://www.w3.org/2000/svg" xmlns:xlink="http://www.w3.org/1999/xlink" xml:space="preserve" onload="init(evt)">

<style type="text/css"><![CDATA[
.node, .edge {opacity: 0.7;}
.node.selected, .edge.selected {opacity: 1;}
.edge:hover path { stroke: red; }
.edge:hover polygon { stroke: red; fill: red; }
]]></style>

<defs>
  <circle id="rim" cx="0" cy="0" r="7"/>
  <circle id="rim2" cx="0" cy="0" r="3.5"/>
  <g id="zoomPlus">
    <use xlink:href="#rim" fill="#404040"><set attributeName="fill" to="#808080" begin="zoomplus.mouseover" end="zoomplus.mouseout"/></use>
    <path d="M-4,0h8M0,-4v8" fill="none" stroke="white" stroke-width="1.5" pointer-events="none"/>
  </g>
  <g id="zoomMin">
    <use xlink:href="#rim" fill="#404040"><set attributeName="fill" to="#808080" begin="zoomminus.mouseover" end="zoomminus.mouseout"/></use>
    <path d="M-4,0h8" fill="none" stroke="white" stroke-width="1.5" pointer-events="none"/>
  </g>
  <g id="arrowUp" transform="translate(30 24)">
    <use xlink:href="#rim"/>
    <path pointer-events="none" fill="none" stroke="white" stroke-width="1.5" d="M0,-3.0v7 M-2.5,-0.5L0,-3.0L2.5,-0.5"/>
  </g>
  <g id="arrowRight" transform="rotate(90) translate(36 -43)">
    <use xlink:href="#rim"/>
    <path pointer-events="none" fill="none" stroke="white" stroke-width="1.5" d="M0,-3.0v7 M-2.5,-0.5L0,-3.0L2.5,-0.5"/>
  </g>
  <g id="arrowDown" transform="rotate(180) translate(-30 -48)">
    <use xlink:href="#rim"/>
    <path pointer-events="none" fill="none" stroke="white" stroke-width="1.5" d="M0,-3.0v7 M-2.5,-0.5L0,-3.0L2.5,-0.5"/>
  </g>
  <g id="arrowLeft" transform="rotate(270) translate(-36 17)">
    <use xlink:href="#rim"/>
    <path pointer-events="none" fill="none" stroke="white" stroke-width="1.5" d="M0,-3.0v7 M-2.5,-0.5L0,-3.0L2.5,-0.5"/>
  </g>
  <g id="resetDef">
    <use xlink:href="#rim2" fill="#404040"><set attributeName="fill" to="#808080" begin="reset.mouseover" end="reset.mouseout"/></use>
  </g>
</defs>
<script type="application/ecmascript">
var viewWidth = 1801;
var viewHeight = 326;
var sectionId = 'dynsection-0';
</script>
<script type="application/ecmascript" xlink:href="svg.min.js"/>
<svg id="graph" class="graph">
<g id="viewport">
<title>/github/workspace/test/print_2x3x4.cpp</title>
<!-- Node1 -->
<g id="Node000001" class="node">
<title>Node1</title>
<g id="a_Node000001"><a xlink:title=" ">
<polygon fill="#999999" stroke="#666666" points="1668.44,-318 1553.44,-318 1553.44,-287.5 1668.44,-287.5 1668.44,-318"/>
<text text-anchor="start" x="1561.44" y="-304.5" font-family="Helvetica,sans-Serif" font-size="10.00">/github/workspace/test</text>
<text text-anchor="middle" x="1610.94" y="-293.25" font-family="Helvetica,sans-Serif" font-size="10.00">/print_2x3x4.cpp</text>
</a>
</g>
</g>
<!-- Node2 -->
<g id="Node000002" class="node">
<title>Node2</title>
<g id="a_Node000002"><a xlink:href="kalman_8hpp.xhtml" target="_top" xlink:title="The Kalman filter class and library top&#45;level header.">
<polygon fill="white" stroke="#666666" points="1483.94,-251.5 1377.94,-251.5 1377.94,-232.25 1483.94,-232.25 1483.94,-251.5"/>
<text text-anchor="middle" x="1430.94" y="-238" font-family="Helvetica,sans-Serif" font-size="10.00">fcarouge/kalman.hpp</text>
</a>
</g>
</g>
<!-- Node1&#45;&gt;Node2 -->
<g id="edge1_Node000001_Node000002" class="edge">
<title>Node1&#45;&gt;Node2</title>
<g id="a_edge1_Node000001_Node000002"><a xlink:title=" ">
<path fill="none" stroke="#63b8ff" d="M1565.98,-287.05C1536.29,-277.33 1497.78,-264.74 1469.49,-255.48"/>
<polygon fill="#63b8ff" stroke="#63b8ff" points="1470.84,-252.24 1460.25,-252.46 1468.66,-258.9 1470.84,-252.24"/>
</a>
</g>
</g>
<!-- Node29 -->
<g id="Node000029" class="node">
<title>Node29</title>
<g id="a_Node000029"><a xlink:title=" ">
<polygon fill="#e0e0e0" stroke="#999999" points="1599.44,-251.5 1502.44,-251.5 1502.44,-232.25 1599.44,-232.25 1599.44,-251.5"/>
<text text-anchor="middle" x="1550.94" y="-238" font-family="Helvetica,sans-Serif" font-size="10.00">fcarouge/linalg.hpp</text>
</a>
</g>
</g>
<!-- Node1&#45;&gt;Node29 -->
<g id="edge56_Node000001_Node000029" class="edge">
<title>Node1&#45;&gt;Node29</title>
<g id="a_edge56_Node000001_Node000029"><a xlink:title=" ">
<path fill="none" stroke="#63b8ff" d="M1596.11,-287.2C1587.67,-278.92 1577.07,-268.52 1568.26,-259.87"/>
<polygon fill="#63b8ff" stroke="#63b8ff" points="1570.86,-257.52 1561.27,-253.01 1565.95,-262.51 1570.86,-257.52"/>
</a>
</g>
</g>
<!-- Node30 -->
<g id="Node000030" class="node">
<title>Node30</title>
<g id="a_Node000030"><a xlink:title=" ">
<polygon fill="#e0e0e0" stroke="#999999" points="1726.44,-251.5 1617.44,-251.5 1617.44,-232.25 1726.44,-232.25 1726.44,-251.5"/>
<text text-anchor="middle" x="1671.94" y="-238" font-family="Helvetica,sans-Serif" font-size="10.00">fcarouge/realtime.hpp</text>
</a>
</g>
</g>
<!-- Node1&#45;&gt;Node30 -->
<g id="edge57_Node000001_Node000030" class="edge">
<title>Node1&#45;&gt;Node30</title>
<g id="a_edge57_Node000001_Node000030"><a xlink:title=" ">
<path fill="none" stroke="#63b8ff" d="M1626.02,-287.2C1634.59,-278.92 1645.37,-268.52 1654.33,-259.87"/>
<polygon fill="#63b8ff" stroke="#63b8ff" points="1656.68,-262.47 1661.45,-253 1651.82,-257.43 1656.68,-262.47"/>
</a>
</g>
</g>
<!-- Node31 -->
<g id="Node000031" class="node">
<title>Node31</title>
<g id="a_Node000031"><a xlink:title=" ">
<polygon fill="#e0e0e0" stroke="#999999" points="1793.06,-251.5 1744.81,-251.5 1744.81,-232.25 1793.06,-232.25 1793.06,-251.5"/>
<text text-anchor="middle" x="1768.94" y="-238" font-family="Helvetica,sans-Serif" font-size="10.00">cassert</text>
</a>
</g>
</g>
<!-- Node1&#45;&gt;Node31 -->
<g id="edge58_Node000001_Node000031" class="edge">
<title>Node1&#45;&gt;Node31</title>
<g id="a_edge58_Node000001_Node000031"><a xlink:title=" ">
<path fill="none" stroke="#63b8ff" d="M1650.4,-287.05C1676.08,-277.48 1709.27,-265.11 1734,-255.89"/>
<polygon fill="#63b8ff" stroke="#63b8ff" points="1735.14,-259.2 1743.29,-252.43 1732.7,-252.64 1735.14,-259.2"/>
</a>
</g>
</g>
<!-- Node3 -->
<g id="Node000003" class="node">
<title>Node3</title>
<g id="a_Node000003"><a xlink:href="kalman__forward_8hpp.xhtml" target="_top" xlink:title="Authoritative forward declaration header.">
<polygon fill="white" stroke="#666666" points="1429.44,-135.38 1326.44,-135.38 1326.44,-116.12 1429.44,-116.12 1429.44,-135.38"/>
<text text-anchor="middle" x="1377.94" y="-121.88" font-family="Helvetica,sans-Serif" font-size="10.00">kalman_forward.hpp</text>
</a>
</g>
</g>
<!-- Node2&#45;&gt;Node3 -->
<g id="edge2_Node000002_Node000003" class="edge">
<title>Node2&#45;&gt;Node3</title>
<g id="a_edge2_Node000002_Node000003"><a xlink:title=" ">
<path fill="none" stroke="#63b8ff" d="M1426.78,-231.92C1418.23,-213.5 1398.5,-171.02 1386.9,-146.04"/>
<polygon fill="#63b8ff" stroke="#63b8ff" points="1390.1,-144.63 1382.72,-137.04 1383.75,-147.58 1390.1,-144.63"/>
</a>
</g>
</g>
<!-- Node4 -->
<g id="Node000004" class="node">
<title>Node4</title>
<g id="a_Node000004"><a xlink:href="factory_8hpp.xhtml" target="_top" xlink:title=" ">
<polygon fill="white" stroke="#666666" points="783.19,-196.25 648.69,-196.25 648.69,-177 783.19,-177 783.19,-196.25"/>
<text text-anchor="middle" x="715.94" y="-182.75" font-family="Helvetica,sans-Serif" font-size="10.00">kalman_internal/factory.hpp</text>
</a>
</g>
</g>
<!-- Node2&#45;&gt;Node4 -->
<g id="edge3_Node000002_Node000004" class="edge">
<title>Node2&#45;&gt;Node4</title>
<g id="a_edge3_Node000002_Node000004"><a xlink:title=" ">
<path fill="none" stroke="#63b8ff" d="M1377.49,-236.89C1252.6,-227.59 941.16,-204.4 794.57,-193.48"/>
<polygon fill="#63b8ff" stroke="#63b8ff" points="795.2,-190.02 784.97,-192.77 794.68,-197 795.2,-190.02"/>
</a>
</g>
</g>
<!-- Node6 -->
<g id="Node000006" class="node">
<title>Node6</title>
<g id="a_Node000006"><a xlink:href="utility_8hpp.xhtml" target="_top" xlink:title=" ">
<polygon fill="white" stroke="#666666" points="968.19,-74.5 911.69,-74.5 911.69,-55.25 968.19,-55.25 968.19,-74.5"/>
<text text-anchor="middle" x="939.94" y="-61" font-family="Helvetica,sans-Serif" font-size="10.00">utility.hpp</text>
</a>
</g>
</g>
<!-- Node2&#45;&gt;Node6 -->
<g id="edge54_Node000002_Node000006" class="edge">
<title>Node2&#45;&gt;Node6</title>
<g id="a_edge54_Node000002_Node000006"><a xlink:title=" ">
<path fill="none" stroke="#63b8ff" d="M1405.26,-231.77C1362.79,-216.18 1275.97,-182.06 1208.94,-141 1190.47,-129.69 1190.59,-119.6 1170.94,-110.5 1108.24,-81.47 1027.53,-71.32 980,-67.77"/>
<polygon fill="#63b8ff" stroke="#63b8ff" points="980.38,-64.29 970.17,-67.11 979.91,-71.28 980.38,-64.29"/>
</a>
</g>
</g>
<!-- Node24 -->
<g id="Node000024" class="node">
<title>Node24</title>
<g id="a_Node000024"><a xlink:href="format_8hpp.xhtml" target="_top" xlink:title="Formatting support for the Kalman filter.">
<polygon fill="white" stroke="#666666" points="1556.44,-196.25 1423.44,-196.25 1423.44,-177 1556.44,-177 1556.44,-196.25"/>
<text text-anchor="middle" x="1489.94" y="-182.75" font-family="Helvetica,sans-Serif" font-size="10.00">kalman_internal/format.hpp</text>
</a>
</g>
</g>
<!-- Node2&#45;&gt;Node24 -->
<g id="edge43_Node000002_Node000024" class="edge">
<title>Node2&#45;&gt;Node24</title>
<g id="a_edge43_Node000002_Node000024"><a xlink:title=" ">
<path fill="none" stroke="#63b8ff" d="M1440.95,-231.84C1449.3,-224.3 1461.44,-213.35 1471.54,-204.23"/>
<polygon fill="#63b8ff" stroke="#63b8ff" points="1473.88,-206.84 1478.95,-197.54 1469.19,-201.64 1473.88,-206.84"/>
</a>
</g>
</g>
<!-- Node25 -->
<g id="Node000025" class="node">
<title>Node25</title>
<g id="a_Node000025"><a xlink:href="print_8hpp.xhtml" target="_top" xlink:title=" ">
<polygon fill="white" stroke="#666666" points="1676.31,-135.38 1623.56,-135.38 1623.56,-116.12 1676.31,-116.12 1676.31,-135.38"/>
<text text-anchor="middle" x="1649.94" y="-121.88" font-family="Helvetica,sans-Serif" font-size="10.00">print.hpp</text>
</a>
</g>
</g>
<!-- Node2&#45;&gt;Node25 -->
<g id="edge53_Node000002_Node000025" class="edge">
<title>Node2&#45;&gt;Node25</title>
<g id="a_edge53_Node000002_Node000025"><a xlink:title=" ">
<path fill="none" stroke="#63b8ff" d="M1471.24,-231.76C1498.96,-224.5 1536.02,-212.8 1565.94,-196.25 1591.93,-181.87 1617.62,-159 1633.62,-143.46"/>
<polygon fill="#63b8ff" stroke="#63b8ff" points="1635.75,-146.28 1640.37,-136.74 1630.81,-141.31 1635.75,-146.28"/>
</a>
</g>
</g>
<!-- Node28 -->
<g id="Node000028" class="node">
<title>Node28</title>
<g id="a_Node000028"><a xlink:title=" ">
<polygon fill="#e0e0e0" stroke="#999999" points="1747.19,-196.25 1612.69,-196.25 1612.69,-177 1747.19,-177 1747.19,-196.25"/>
<text text-anchor="middle" x="1679.94" y="-182.75" font-family="Helvetica,sans-Serif" font-size="10.00">kalman_internal/kalman.tpp</text>
</a>
</g>
</g>
<!-- Node2&#45;&gt;Node28 -->
<g id="edge55_Node000002_Node000028" class="edge">
<title>Node2&#45;&gt;Node28</title>
<g id="a_edge55_Node000002_Node000028"><a xlink:title=" ">
<path fill="none" stroke="#63b8ff" d="M1473.46,-231.78C1515.72,-222.74 1580.65,-208.86 1626.4,-199.07"/>
<polygon fill="#63b8ff" stroke="#63b8ff" points="1627.07,-202.51 1636.11,-197 1625.6,-195.67 1627.07,-202.51"/>
</a>
</g>
</g>
<!-- Node5 -->
<g id="Node000005" class="node">
<title>Node5</title>
<g id="a_Node000005"><a xlink:href="type_8hpp.xhtml" target="_top" xlink:title=" ">
<polygon fill="white" stroke="#666666" points="1269.94,-135.38 1217.94,-135.38 1217.94,-116.12 1269.94,-116.12 1269.94,-135.38"/>
<text text-anchor="middle" x="1243.94" y="-121.88" font-family="Helvetica,sans-Serif" font-size="10.00">type.hpp</text>
</a>
</g>
</g>
<!-- Node4&#45;&gt;Node5 -->
<g id="edge4_Node000004_Node000005" class="edge">
<title>Node4&#45;&gt;Node5</title>
<g id="a_edge4_Node000004_Node000005"><a xlink:title=" ">
<path fill="none" stroke="#63b8ff" d="M783.64,-181C872.73,-174.46 1034.09,-161.02 1170.94,-141 1182.63,-139.29 1195.29,-136.98 1206.73,-134.72"/>
<polygon fill="#63b8ff" stroke="#63b8ff" points="1207.1,-138.22 1216.2,-132.8 1205.71,-131.36 1207.1,-138.22"/>
</a>
</g>
</g>
<!-- Node7 -->
<g id="Node000007" class="node">
<title>Node7</title>
<g id="a_Node000007"><a xlink:title=" ">
<polygon fill="#e0e0e0" stroke="#999999" points="222.81,-19.25 167.06,-19.25 167.06,0 222.81,0 222.81,-19.25"/>
<text text-anchor="middle" x="194.94" y="-5.75" font-family="Helvetica,sans-Serif" font-size="10.00">concepts</text>
</a>
</g>
</g>
<!-- Node4&#45;&gt;Node7 -->
<g id="edge40_Node000004_Node000007" class="edge">
<title>Node4&#45;&gt;Node7</title>
<g id="a_edge40_Node000004_Node000007"><a xlink:title=" ">
<path fill="none" stroke="#63b8ff" d="M648.33,-183.81C476.22,-178.88 33.52,-163.99 11.94,-141 -39.15,-86.58 88.38,-40.67 156.04,-20.96"/>
<polygon fill="#63b8ff" stroke="#63b8ff" points="156.63,-24.43 165.29,-18.33 154.72,-17.7 156.63,-24.43"/>
</a>
</g>
</g>
<!-- Node10 -->
<g id="Node000010" class="node">
<title>Node10</title>
<g id="a_Node000010"><a xlink:title=" ">
<polygon fill="#e0e0e0" stroke="#999999" points="505.44,-19.25 468.44,-19.25 468.44,0 505.44,0 505.44,-19.25"/>
<text text-anchor="middle" x="486.94" y="-5.75" font-family="Helvetica,sans-Serif" font-size="10.00">tuple</text>
</a>
</g>
</g>
<!-- Node4&#45;&gt;Node10 -->
<g id="edge41_Node000004_Node000010" class="edge">
<title>Node4&#45;&gt;Node10</title>
<g id="a_edge41_Node000004_Node000010"><a xlink:title=" ">
<path fill="none" stroke="#63b8ff" d="M648.46,-183.75C478.38,-178.69 44.13,-163.6 22.94,-141 13.67,-131.11 14.47,-121.08 22.94,-110.5 77.81,-41.93 362.99,-18.31 456.91,-12.32"/>
<polygon fill="#63b8ff" stroke="#63b8ff" points="456.85,-15.83 466.61,-11.72 456.42,-8.84 456.85,-15.83"/>
</a>
</g>
</g>
<!-- Node11 -->
<g id="Node000011" class="node">
<title>Node11</title>
<g id="a_Node000011"><a xlink:title=" ">
<polygon fill="#e0e0e0" stroke="#999999" points="1263.44,-19.25 1202.44,-19.25 1202.44,0 1263.44,0 1263.44,-19.25"/>
<text text-anchor="middle" x="1232.94" y="-5.75" font-family="Helvetica,sans-Serif" font-size="10.00">type_traits</text>
</a>
</g>
</g>
<!-- Node4&#45;&gt;Node11 -->
<g id="edge42_Node000004_Node000011" class="edge">
<title>Node4&#45;&gt;Node11</title>
<g id="a_edge42_Node000004_Node000011"><a xlink:title=" ">
<path fill="none" stroke="#63b8ff" d="M783.66,-185.29C926.02,-183.88 1245.94,-176.72 1278.94,-141 1308.95,-108.51 1271.92,-55.24 1248.82,-27.94"/>
<polygon fill="#63b8ff" stroke="#63b8ff" points="1251.58,-25.79 1242.36,-20.58 1246.32,-30.41 1251.58,-25.79"/>
</a>
</g>
</g>
<!-- Node14 -->
<g id="Node000014" class="node">
<title>Node14</title>
<g id="a_Node000014"><a xlink:href="x__z__p__q__r_8hpp.xhtml" target="_top" xlink:title=" ">
<polygon fill="white" stroke="#666666" points="1161.69,-135.38 1084.19,-135.38 1084.19,-116.12 1161.69,-116.12 1161.69,-135.38"/>
<text text-anchor="middle" x="1122.94" y="-121.88" font-family="Helvetica,sans-Serif" font-size="10.00">x_z_p_q_r.hpp</text>
</a>
</g>
</g>
<!-- Node4&#45;&gt;Node14 -->
<g id="edge14_Node000004_Node000014" class="edge">
<title>Node4&#45;&gt;Node14</title>
<g id="a_edge14_Node000004_Node000014"><a xlink:title=" ">
<path fill="none" stroke="#63b8ff" d="M783.52,-180.72C856.3,-174.63 975.21,-162.35 1075.94,-141 1078.89,-140.38 1081.92,-139.65 1084.95,-138.87"/>
<polygon fill="#63b8ff" stroke="#63b8ff" points="1085.66,-142.3 1094.35,-136.24 1083.78,-135.56 1085.66,-142.3"/>
</a>
</g>
</g>
<!-- Node15 -->
<g id="Node000015" class="node">
<title>Node15</title>
<g id="a_Node000015"><a xlink:href="x__z__p__q__r__h__f_8hpp.xhtml" target="_top" xlink:title=" ">
<polygon fill="white" stroke="#666666" points="888.06,-135.38 791.81,-135.38 791.81,-116.12 888.06,-116.12 888.06,-135.38"/>
<text text-anchor="middle" x="839.94" y="-121.88" font-family="Helvetica,sans-Serif" font-size="10.00">x_z_p_q_r_h_f.hpp</text>
</a>
</g>
</g>
<!-- Node4&#45;&gt;Node15 -->
<g id="edge16_Node000004_Node000015" class="edge">
<title>Node4&#45;&gt;Node15</title>
<g id="a_edge16_Node000004_Node000015"><a xlink:title=" ">
<path fill="none" stroke="#63b8ff" d="M735.04,-176.55C755.22,-166.98 787.28,-151.75 810.65,-140.66"/>
<polygon fill="#63b8ff" stroke="#63b8ff" points="812.12,-143.83 819.65,-136.38 809.12,-137.51 812.12,-143.83"/>
</a>
</g>
</g>
<!-- Node16 -->
<g id="Node000016" class="node">
<title>Node16</title>
<g id="a_Node000016"><a xlink:href="x__z__p__q__r__hh__f__us__ps_8hpp.xhtml" target="_top" xlink:title=" ">
<polygon fill="white" stroke="#666666" points="284.44,-135.38 151.44,-135.38 151.44,-116.12 284.44,-116.12 284.44,-135.38"/>
<text text-anchor="middle" x="217.94" y="-121.88" font-family="Helvetica,sans-Serif" font-size="10.00">x_z_p_q_r_hh_f_us_ps.hpp</text>
</a>
</g>
</g>
<!-- Node4&#45;&gt;Node16 -->
<g id="edge18_Node000004_Node000016" class="edge">
<title>Node4&#45;&gt;Node16</title>
<g id="a_edge18_Node000004_Node000016"><a xlink:title=" ">
<path fill="none" stroke="#63b8ff" d="M648.32,-180.23C564.63,-173.15 417.86,-159.43 292.94,-141 286.64,-140.07 280.06,-138.99 273.53,-137.84"/>
<polygon fill="#63b8ff" stroke="#63b8ff" points="274.6,-134.48 264.14,-136.14 273.36,-141.37 274.6,-134.48"/>
</a>
</g>
</g>
<!-- Node17 -->
<g id="Node000017" class="node">
<title>Node17</title>
<g id="a_Node000017"><a xlink:href="x__z__p__q__r__hh__ff__ps_8hpp.xhtml" target="_top" xlink:title=" ">
<polygon fill="white" stroke="#666666" points="421.69,-135.38 302.19,-135.38 302.19,-116.12 421.69,-116.12 421.69,-135.38"/>
<text text-anchor="middle" x="361.94" y="-121.88" font-family="Helvetica,sans-Serif" font-size="10.00">x_z_p_q_r_hh_ff_ps.hpp</text>
</a>
</g>
</g>
<!-- Node4&#45;&gt;Node17 -->
<g id="edge21_Node000004_Node000017" class="edge">
<title>Node4&#45;&gt;Node17</title>
<g id="a_edge21_Node000004_Node000017"><a xlink:title=" ">
<path fill="none" stroke="#63b8ff" d="M652.12,-176.53C594.26,-168.08 506.7,-154.75 430.94,-141 425.79,-140.07 420.44,-139.05 415.1,-138"/>
<polygon fill="#63b8ff" stroke="#63b8ff" points="416.18,-134.64 405.69,-136.11 414.81,-141.51 416.18,-134.64"/>
</a>
</g>
</g>
<!-- Node18 -->
<g id="Node000018" class="node">
<title>Node18</title>
<g id="a_Node000018"><a xlink:href="x__z__p__qq__rr__f_8hpp.xhtml" target="_top" xlink:title=" ">
<polygon fill="white" stroke="#666666" points="533.94,-135.38 439.94,-135.38 439.94,-116.12 533.94,-116.12 533.94,-135.38"/>
<text text-anchor="middle" x="486.94" y="-121.88" font-family="Helvetica,sans-Serif" font-size="10.00">x_z_p_qq_rr_f.hpp</text>
</a>
</g>
</g>
<!-- Node4&#45;&gt;Node18 -->
<g id="edge24_Node000004_Node000018" class="edge">
<title>Node4&#45;&gt;Node18</title>
<g id="a_edge24_Node000004_Node000018"><a xlink:title=" ">
<path fill="none" stroke="#63b8ff" d="M680.66,-176.55C641.07,-166.38 576.7,-149.83 533.13,-138.63"/>
<polygon fill="#63b8ff" stroke="#63b8ff" points="534.28,-135.31 523.72,-136.21 532.54,-142.09 534.28,-135.31"/>
</a>
</g>
</g>
<!-- Node19 -->
<g id="Node000019" class="node">
<title>Node19</title>
<g id="a_Node000019"><a xlink:href="x__z__p__r_8hpp.xhtml" target="_top" xlink:title=" ">
<polygon fill="white" stroke="#666666" points="973.44,-135.38 906.44,-135.38 906.44,-116.12 973.44,-116.12 973.44,-135.38"/>
<text text-anchor="middle" x="939.94" y="-121.88" font-family="Helvetica,sans-Serif" font-size="10.00">x_z_p_r.hpp</text>
</a>
</g>
</g>
<!-- Node4&#45;&gt;Node19 -->
<g id="edge27_Node000004_Node000019" class="edge">
<title>Node4&#45;&gt;Node19</title>
<g id="a_edge27_Node000004_Node000019"><a xlink:title=" ">
<path fill="none" stroke="#63b8ff" d="M756.8,-176.51C793.64,-168.07 849.21,-154.77 896.94,-141 898.89,-140.44 900.89,-139.84 902.91,-139.23"/>
<polygon fill="#63b8ff" stroke="#63b8ff" points="903.74,-142.63 912.22,-136.28 901.63,-135.96 903.74,-142.63"/>
</a>
</g>
</g>
<!-- Node20 -->
<g id="Node000020" class="node">
<title>Node20</title>
<g id="a_Node000020"><a xlink:href="x__z__p__r__f_8hpp.xhtml" target="_top" xlink:title=" ">
<polygon fill="white" stroke="#666666" points="1066.56,-135.38 991.31,-135.38 991.31,-116.12 1066.56,-116.12 1066.56,-135.38"/>
<text text-anchor="middle" x="1028.94" y="-121.88" font-family="Helvetica,sans-Serif" font-size="10.00">x_z_p_r_f.hpp</text>
</a>
</g>
</g>
<!-- Node4&#45;&gt;Node20 -->
<g id="edge29_Node000004_Node000020" class="edge">
<title>Node4&#45;&gt;Node20</title>
<g id="a_edge29_Node000004_Node000020"><a xlink:title=" ">
<path fill="none" stroke="#63b8ff" d="M783.65,-176.71C837.69,-169.01 915.15,-156.66 981.94,-141 984.7,-140.35 987.53,-139.63 990.38,-138.87"/>
<polygon fill="#63b8ff" stroke="#63b8ff" points="991.14,-142.29 999.81,-136.2 989.23,-135.56 991.14,-142.29"/>
</a>
</g>
</g>
<!-- Node21 -->
<g id="Node000021" class="node">
<title>Node21</title>
<g id="a_Node000021"><a xlink:href="x__z__u__p__q__r_8hpp.xhtml" target="_top" xlink:title=" ">
<polygon fill="white" stroke="#666666" points="639.94,-135.38 551.94,-135.38 551.94,-116.12 639.94,-116.12 639.94,-135.38"/>
<text text-anchor="middle" x="595.94" y="-121.88" font-family="Helvetica,sans-Serif" font-size="10.00">x_z_u_p_q_r.hpp</text>
</a>
</g>
</g>
<!-- Node4&#45;&gt;Node21 -->
<g id="edge31_Node000004_Node000021" class="edge">
<title>Node4&#45;&gt;Node21</title>
<g id="a_edge31_Node000004_Node000021"><a xlink:title=" ">
<path fill="none" stroke="#63b8ff" d="M697.45,-176.55C677.93,-166.98 646.9,-151.75 624.28,-140.66"/>
<polygon fill="#63b8ff" stroke="#63b8ff" points="626.13,-137.66 615.61,-136.4 623.04,-143.95 626.13,-137.66"/>
</a>
</g>
</g>
<!-- Node22 -->
<g id="Node000022" class="node">
<title>Node22</title>
<g id="a_Node000022"><a xlink:href="x__z__u__p__q__r__h__f__g__us__ps_8hpp.xhtml" target="_top" xlink:title=" ">
<polygon fill="white" stroke="#666666" points="773.44,-141 658.44,-141 658.44,-110.5 773.44,-110.5 773.44,-141"/>
<text text-anchor="start" x="666.44" y="-127.5" font-family="Helvetica,sans-Serif" font-size="10.00">x_z_u_p_q_r_h_f_g_us</text>
<text text-anchor="middle" x="715.94" y="-116.25" font-family="Helvetica,sans-Serif" font-size="10.00">_ps.hpp</text>
</a>
</g>
</g>
<!-- Node4&#45;&gt;Node22 -->
<g id="edge34_Node000004_Node000022" class="edge">
<title>Node4&#45;&gt;Node22</title>
<g id="a_edge34_Node000004_Node000022"><a xlink:title=" ">
<path fill="none" stroke="#63b8ff" d="M715.94,-176.68C715.94,-170.23 715.94,-161.16 715.94,-152.51"/>
<polygon fill="#63b8ff" stroke="#63b8ff" points="719.44,-152.8 715.94,-142.8 712.44,-152.8 719.44,-152.8"/>
</a>
</g>
</g>
<!-- Node23 -->
<g id="Node000023" class="node">
<title>Node23</title>
<g id="a_Node000023"><a xlink:href="x__z__u__p__qq__r__ff__gg__ps_8hpp.xhtml" target="_top" xlink:title=" ">
<polygon fill="white" stroke="#666666" points="133.69,-141 32.19,-141 32.19,-110.5 133.69,-110.5 133.69,-141"/>
<text text-anchor="start" x="40.19" y="-127.5" font-family="Helvetica,sans-Serif" font-size="10.00">x_z_u_p_qq_r_ff_gg</text>
<text text-anchor="middle" x="82.94" y="-116.25" font-family="Helvetica,sans-Serif" font-size="10.00">_ps.hpp</text>
</a>
</g>
</g>
<!-- Node4&#45;&gt;Node23 -->
<g id="edge37_Node000004_Node000023" class="edge">
<title>Node4&#45;&gt;Node23</title>
<g id="a_edge37_Node000004_Node000023"><a xlink:title=" ">
<path fill="none" stroke="#63b8ff" d="M648.37,-183.86C542.75,-180.33 332.02,-170.21 145.14,-141.36"/>
<polygon fill="#63b8ff" stroke="#63b8ff" points="145.92,-137.94 135.5,-139.85 144.84,-144.85 145.92,-137.94"/>
</a>
</g>
</g>
<!-- Node5&#45;&gt;Node6 -->
<g id="edge5_Node000005_Node000006" class="edge">
<title>Node5&#45;&gt;Node6</title>
<g id="a_edge5_Node000005_Node000006"><a xlink:title=" ">
<path fill="none" stroke="#63b8ff" d="M1220.89,-115.76C1215.39,-113.84 1209.5,-111.95 1203.94,-110.5 1125.69,-90.12 1031.89,-76.83 979.8,-70.41"/>
<polygon fill="#63b8ff" stroke="#63b8ff" points="980.26,-66.94 969.92,-69.21 979.42,-73.89 980.26,-66.94"/>
</a>
</g>
</g>
<!-- Node5&#45;&gt;Node11 -->
<g id="edge13_Node000005_Node000011" class="edge">
<title>Node5&#45;&gt;Node11</title>
<g id="a_edge13_Node000005_Node000011"><a xlink:title=" ">
<path fill="none" stroke="#63b8ff" d="M1243.08,-115.79C1241.32,-97.63 1237.32,-56.04 1234.9,-30.95"/>
<polygon fill="#63b8ff" stroke="#63b8ff" points="1238.39,-30.66 1233.94,-21.05 1231.42,-31.33 1238.39,-30.66"/>
</a>
</g>
</g>
<!-- Node13 -->
<g id="Node000013" class="node">
<title>Node13</title>
<g id="a_Node000013"><a xlink:title=" ">
<polygon fill="#e0e0e0" stroke="#999999" points="1204.69,-74.5 1133.19,-74.5 1133.19,-55.25 1204.69,-55.25 1204.69,-74.5"/>
<text text-anchor="middle" x="1168.94" y="-61" font-family="Helvetica,sans-Serif" font-size="10.00">initializer_list</text>
</a>
</g>
</g>
<!-- Node5&#45;&gt;Node13 -->
<g id="edge12_Node000005_Node000013" class="edge">
<title>Node5&#45;&gt;Node13</title>
<g id="a_edge12_Node000005_Node000013"><a xlink:title=" ">
<path fill="none" stroke="#63b8ff" d="M1232.55,-115.81C1221.09,-106.82 1203.19,-92.76 1189.29,-81.85"/>
<polygon fill="#63b8ff" stroke="#63b8ff" points="1191.65,-79.26 1181.63,-75.84 1187.33,-84.76 1191.65,-79.26"/>
</a>
</g>
</g>
<!-- Node6&#45;&gt;Node7 -->
<g id="edge6_Node000006_Node000007" class="edge">
<title>Node6&#45;&gt;Node7</title>
<g id="a_edge6_Node000006_Node000007"><a xlink:title=" ">
<path fill="none" stroke="#63b8ff" d="M911.19,-61.82C795.94,-53.58 367.19,-22.94 234.4,-13.45"/>
<polygon fill="#63b8ff" stroke="#63b8ff" points="234.94,-9.98 224.71,-12.75 234.44,-16.96 234.94,-9.98"/>
</a>
</g>
</g>
<!-- Node8 -->
<g id="Node000008" class="node">
<title>Node8</title>
<g id="a_Node000008"><a xlink:title=" ">
<polygon fill="#e0e0e0" stroke="#999999" points="1469.06,-19.25 1420.81,-19.25 1420.81,0 1469.06,0 1469.06,-19.25"/>
<text text-anchor="middle" x="1444.94" y="-5.75" font-family="Helvetica,sans-Serif" font-size="10.00">cstddef</text>
</a>
</g>
</g>
<!-- Node6&#45;&gt;Node8 -->
<g id="edge7_Node000006_Node000008" class="edge">
<title>Node6&#45;&gt;Node8</title>
<g id="a_edge7_Node000006_Node000008"><a xlink:title=" ">
<path fill="none" stroke="#63b8ff" d="M968.54,-60.86C1055.08,-51.73 1314.04,-24.43 1409.28,-14.39"/>
<polygon fill="#63b8ff" stroke="#63b8ff" points="1409.49,-17.88 1419.07,-13.35 1408.76,-10.92 1409.49,-17.88"/>
</a>
</g>
</g>
<!-- Node9 -->
<g id="Node000009" class="node">
<title>Node9</title>
<g id="a_Node000009"><a xlink:title=" ">
<polygon fill="#e0e0e0" stroke="#999999" points="965.19,-19.25 914.69,-19.25 914.69,0 965.19,0 965.19,-19.25"/>
<text text-anchor="middle" x="939.94" y="-5.75" font-family="Helvetica,sans-Serif" font-size="10.00">memory</text>
</a>
</g>
</g>
<!-- Node6&#45;&gt;Node9 -->
<g id="edge8_Node000006_Node000009" class="edge">
<title>Node6&#45;&gt;Node9</title>
<g id="a_edge8_Node000006_Node000009"><a xlink:title=" ">
<path fill="none" stroke="#63b8ff" d="M939.94,-55.08C939.94,-48.57 939.94,-39.42 939.94,-31.12"/>
<polygon fill="#63b8ff" stroke="#63b8ff" points="943.44,-31.12 939.94,-21.12 936.44,-31.12 943.44,-31.12"/>
</a>
</g>
</g>
<!-- Node6&#45;&gt;Node10 -->
<g id="edge9_Node000006_Node000010" class="edge">
<title>Node6&#45;&gt;Node10</title>
<g id="a_edge9_Node000006_Node000010"><a xlink:title=" ">
<path fill="none" stroke="#63b8ff" d="M911.26,-60.5C830.15,-50.97 599.65,-23.87 516.94,-14.15"/>
<polygon fill="#63b8ff" stroke="#63b8ff" points="517.47,-10.69 507.13,-13 516.66,-17.64 517.47,-10.69"/>
</a>
</g>
</g>
<!-- Node6&#45;&gt;Node11 -->
<g id="edge10_Node000006_Node000011" class="edge">
<title>Node6&#45;&gt;Node11</title>
<g id="a_edge10_Node000006_Node000011"><a xlink:title=" ">
<path fill="none" stroke="#63b8ff" d="M968.57,-58.67C1020.51,-49.23 1130.5,-29.24 1190.96,-18.25"/>
<polygon fill="#63b8ff" stroke="#63b8ff" points="1191.3,-21.75 1200.51,-16.52 1190.04,-14.86 1191.3,-21.75"/>
</a>
</g>
</g>
<!-- Node12 -->
<g id="Node000012" class="node">
<title>Node12</title>
<g id="a_Node000012"><a xlink:title=" ">
<polygon fill="#e0e0e0" stroke="#999999" points="1594.19,-19.25 1555.69,-19.25 1555.69,0 1594.19,0 1594.19,-19.25"/>
<text text-anchor="middle" x="1574.94" y="-5.75" font-family="Helvetica,sans-Serif" font-size="10.00">utility</text>
</a>
</g>
</g>
<!-- Node6&#45;&gt;Node12 -->
<g id="edge11_Node000006_Node000012" class="edge">
<title>Node6&#45;&gt;Node12</title>
<g id="a_edge11_Node000006_Node000012"><a xlink:title=" ">
<path fill="none" stroke="#63b8ff" d="M968.52,-61.56C1048.81,-55.06 1283.24,-35.98 1477.94,-19.25 1500.01,-17.35 1524.91,-15.14 1543.95,-13.43"/>
<polygon fill="#63b8ff" stroke="#63b8ff" points="1544.1,-16.93 1553.74,-12.55 1543.47,-9.96 1544.1,-16.93"/>
</a>
</g>
</g>
<!-- Node14&#45;&gt;Node6 -->
<g id="edge15_Node000014_Node000006" class="edge">
<title>Node14&#45;&gt;Node6</title>
<g id="a_edge15_Node000014_Node000006"><a xlink:title=" ">
<path fill="none" stroke="#63b8ff" d="M1094.75,-115.68C1063.72,-105.7 1013.63,-89.58 978.87,-78.4"/>
<polygon fill="#63b8ff" stroke="#63b8ff" points="980.2,-75.15 969.6,-75.42 978.05,-81.81 980.2,-75.15"/>
</a>
</g>
</g>
<!-- Node15&#45;&gt;Node6 -->
<g id="edge17_Node000015_Node000006" class="edge">
<title>Node15&#45;&gt;Node6</title>
<g id="a_edge17_Node000015_Node000006"><a xlink:title=" ">
<path fill="none" stroke="#63b8ff" d="M855.13,-115.81C870.99,-106.47 896.12,-91.67 914.92,-80.61"/>
<polygon fill="#63b8ff" stroke="#63b8ff" points="916.46,-83.76 923.3,-75.67 912.91,-77.73 916.46,-83.76"/>
</a>
</g>
</g>
<!-- Node16&#45;&gt;Node6 -->
<g id="edge19_Node000016_Node000006" class="edge">
<title>Node16&#45;&gt;Node6</title>
<g id="a_edge19_Node000016_Node000006"><a xlink:title=" ">
<path fill="none" stroke="#63b8ff" d="M261.03,-115.66C271.44,-113.71 282.55,-111.84 292.94,-110.5 521.73,-80.98 798.73,-70.13 900.22,-66.97"/>
<polygon fill="#63b8ff" stroke="#63b8ff" points="900.04,-70.48 909.93,-66.68 899.83,-63.48 900.04,-70.48"/>
</a>
</g>
</g>
<!-- Node16&#45;&gt;Node10 -->
<g id="edge20_Node000016_Node000010" class="edge">
<title>Node16&#45;&gt;Node10</title>
<g id="a_edge20_Node000016_Node000010"><a xlink:title=" ">
<path fill="none" stroke="#63b8ff" d="M239.05,-115.79C286.79,-95.54 403.14,-46.18 457.74,-23.01"/>
<polygon fill="#63b8ff" stroke="#63b8ff" points="458.87,-26.33 466.71,-19.21 456.14,-19.89 458.87,-26.33"/>
</a>
</g>
</g>
<!-- Node17&#45;&gt;Node6 -->
<g id="edge22_Node000017_Node000006" class="edge">
<title>Node17&#45;&gt;Node6</title>
<g id="a_edge22_Node000017_Node000006"><a xlink:title=" ">
<path fill="none" stroke="#63b8ff" d="M401.93,-115.67C411.41,-113.75 421.5,-111.88 430.94,-110.5 604.67,-85.03 814.04,-72.27 900.08,-67.79"/>
<polygon fill="#63b8ff" stroke="#63b8ff" points="900.06,-71.3 909.87,-67.29 899.71,-64.3 900.06,-71.3"/>
</a>
</g>
</g>
<!-- Node17&#45;&gt;Node10 -->
<g id="edge23_Node000017_Node000010" class="edge">
<title>Node17&#45;&gt;Node10</title>
<g id="a_edge23_Node000017_Node000010"><a xlink:title=" ">
<path fill="none" stroke="#63b8ff" d="M371.75,-115.79C392.65,-96.71 441.86,-51.78 468.7,-27.28"/>
<polygon fill="#63b8ff" stroke="#63b8ff" points="471.03,-29.89 476.06,-20.56 466.31,-24.72 471.03,-29.89"/>
</a>
</g>
</g>
<!-- Node18&#45;&gt;Node6 -->
<g id="edge25_Node000018_Node000006" class="edge">
<title>Node18&#45;&gt;Node6</title>
<g id="a_edge25_Node000018_Node000006"><a xlink:title=" ">
<path fill="none" stroke="#63b8ff" d="M519.64,-115.63C527.25,-113.73 535.34,-111.89 542.94,-110.5 672.53,-86.84 828.35,-73.73 900.15,-68.53"/>
<polygon fill="#63b8ff" stroke="#63b8ff" points="900.1,-72.04 909.83,-67.84 899.61,-65.06 900.1,-72.04"/>
</a>
</g>
</g>
<!-- Node18&#45;&gt;Node10 -->
<g id="edge26_Node000018_Node000010" class="edge">
<title>Node18&#45;&gt;Node10</title>
<g id="a_edge26_Node000018_Node000010"><a xlink:title=" ">
<path fill="none" stroke="#63b8ff" d="M486.94,-115.79C486.94,-97.63 486.94,-56.04 486.94,-30.95"/>
<polygon fill="#63b8ff" stroke="#63b8ff" points="490.44,-31.05 486.94,-21.05 483.44,-31.05 490.44,-31.05"/>
</a>
</g>
</g>
<!-- Node19&#45;&gt;Node6 -->
<g id="edge28_Node000019_Node000006" class="edge">
<title>Node19&#45;&gt;Node6</title>
<g id="a_edge28_Node000019_Node000006"><a xlink:title=" ">
<path fill="none" stroke="#63b8ff" d="M939.94,-115.81C939.94,-108.03 939.94,-96.45 939.94,-86.41"/>
<polygon fill="#63b8ff" stroke="#63b8ff" points="943.44,-86.41 939.94,-76.41 936.44,-86.41 943.44,-86.41"/>
</a>
</g>
</g>
<!-- Node20&#45;&gt;Node6 -->
<g id="edge30_Node000020_Node000006" class="edge">
<title>Node20&#45;&gt;Node6</title>
<g id="a_edge30_Node000020_Node000006"><a xlink:title=" ">
<path fill="none" stroke="#63b8ff" d="M1015.42,-115.81C1001.57,-106.64 979.76,-92.22 963.14,-81.23"/>
<polygon fill="#63b8ff" stroke="#63b8ff" points="965.12,-78.33 954.85,-75.74 961.25,-84.17 965.12,-78.33"/>
</a>
</g>
</g>
<!-- Node21&#45;&gt;Node6 -->
<g id="edge32_Node000021_Node000006" class="edge">
<title>Node21&#45;&gt;Node6</title>
<g id="a_edge32_Node000021_Node000006"><a xlink:title=" ">
<path fill="none" stroke="#63b8ff" d="M627.47,-115.66C634.5,-113.8 641.95,-111.97 648.94,-110.5 737.89,-91.78 843.7,-77.53 900.01,-70.58"/>
<polygon fill="#63b8ff" stroke="#63b8ff" points="900.24,-74.08 909.75,-69.39 899.4,-67.13 900.24,-74.08"/>
</a>
</g>
</g>
<!-- Node21&#45;&gt;Node10 -->
<g id="edge33_Node000021_Node000010" class="edge">
<title>Node21&#45;&gt;Node10</title>
<g id="a_edge33_Node000021_Node000010"><a xlink:title=" ">
<path fill="none" stroke="#63b8ff" d="M587.39,-115.79C569.24,-96.79 526.62,-52.18 503.15,-27.6"/>
<polygon fill="#63b8ff" stroke="#63b8ff" points="505.94,-25.45 496.5,-20.63 500.87,-30.28 505.94,-25.45"/>
</a>
</g>
</g>
<!-- Node22&#45;&gt;Node6 -->
<g id="edge35_Node000022_Node000006" class="edge">
<title>Node22&#45;&gt;Node6</title>
<g id="a_edge35_Node000022_Node000006"><a xlink:title=" ">
<path fill="none" stroke="#63b8ff" d="M771.89,-110.05C811.88,-99.53 864.71,-85.65 900.38,-76.27"/>
<polygon fill="#63b8ff" stroke="#63b8ff" points="901.07,-79.71 909.85,-73.78 899.29,-72.94 901.07,-79.71"/>
</a>
</g>
</g>
<!-- Node22&#45;&gt;Node10 -->
<g id="edge36_Node000022_Node000010" class="edge">
<title>Node22&#45;&gt;Node10</title>
<g id="a_edge36_Node000022_Node000010"><a xlink:title=" ">
<path fill="none" stroke="#63b8ff" d="M686.47,-110.06C642.15,-87.98 558.88,-46.48 515.25,-24.73"/>
<polygon fill="#63b8ff" stroke="#63b8ff" points="516.92,-21.66 506.41,-20.33 513.8,-27.92 516.92,-21.66"/>
</a>
</g>
</g>
<!-- Node23&#45;&gt;Node6 -->
<g id="edge38_Node000023_Node000006" class="edge">
<title>Node23&#45;&gt;Node6</title>
<g id="a_edge38_Node000023_Node000006"><a xlink:title=" ">
<path fill="none" stroke="#63b8ff" d="M133.99,-111.82C136.67,-111.33 139.33,-110.88 141.94,-110.5 430.59,-67.93 783.46,-65.19 900.29,-65.56"/>
<polygon fill="#63b8ff" stroke="#63b8ff" points="899.95,-69.06 909.97,-65.61 899.98,-62.06 899.95,-69.06"/>
</a>
</g>
</g>
<!-- Node23&#45;&gt;Node10 -->
<g id="edge39_Node000023_Node000010" class="edge">
<title>Node23&#45;&gt;Node10</title>
<g id="a_edge39_Node000023_Node000010"><a xlink:title=" ">
<path fill="none" stroke="#63b8ff" d="M134.11,-110.3C219.61,-86.14 388.88,-38.32 457.26,-19.01"/>
<polygon fill="#63b8ff" stroke="#63b8ff" points="457.95,-22.45 466.62,-16.37 456.04,-15.72 457.95,-22.45"/>
</a>
</g>
</g>
<!-- Node24&#45;&gt;Node3 -->
<g id="edge44_Node000024_Node000003" class="edge">
<title>Node24&#45;&gt;Node3</title>
<g id="a_edge44_Node000024_Node000003"><a xlink:title=" ">
<path fill="none" stroke="#63b8ff" d="M1472.93,-176.68C1454.92,-167.22 1426.23,-152.14 1405.09,-141.02"/>
<polygon fill="#63b8ff" stroke="#63b8ff" points="1406.93,-138.04 1396.45,-136.48 1403.67,-144.23 1406.93,-138.04"/>
</a>
</g>
</g>
<!-- Node24&#45;&gt;Node6 -->
<g id="edge49_Node000024_Node000006" class="edge">
<title>Node24&#45;&gt;Node6</title>
<g id="a_edge49_Node000024_Node000006"><a xlink:title=" ">
<path fill="none" stroke="#63b8ff" d="M1486.76,-176.51C1480.51,-160.07 1464.89,-125.77 1438.94,-110.5 1399.74,-87.44 1091.58,-72.28 980.05,-67.5"/>
<polygon fill="#63b8ff" stroke="#63b8ff" points="980.32,-64 970.18,-67.08 980.02,-71 980.32,-64"/>
</a>
</g>
</g>
<!-- Node24&#45;&gt;Node8 -->
<g id="edge50_Node000024_Node000008" class="edge">
<title>Node24&#45;&gt;Node8</title>
<g id="a_edge50_Node000024_Node000008"><a xlink:title=" ">
<path fill="none" stroke="#63b8ff" d="M1526.72,-176.59C1545.21,-169.99 1565.96,-158.96 1576.94,-141 1584.01,-129.43 1582.98,-122.64 1576.94,-110.5 1556.3,-69 1509.28,-40.15 1477.31,-24.49"/>
<polygon fill="#63b8ff" stroke="#63b8ff" points="1479.01,-21.42 1468.47,-20.32 1476.03,-27.75 1479.01,-21.42"/>
</a>
</g>
</g>
<!-- Node24&#45;&gt;Node10 -->
<g id="edge52_Node000024_Node000010" class="edge">
<title>Node24&#45;&gt;Node10</title>
<g id="a_edge52_Node000024_Node000010"><a xlink:title=" ">
<path fill="none" stroke="#63b8ff" d="M1490.07,-176.73C1489.8,-160.96 1486.83,-128.1 1467.94,-110.5 1383.41,-31.75 1328.37,-71.11 1213.94,-55.25 945.5,-18.04 617.01,-11.86 517.14,-10.83"/>
<polygon fill="#63b8ff" stroke="#63b8ff" points="517.4,-7.33 507.37,-10.74 517.34,-14.33 517.4,-7.33"/>
</a>
</g>
</g>
<!-- Node24&#45;&gt;Node25 -->
<g id="edge45_Node000024_Node000025" class="edge">
<title>Node24&#45;&gt;Node25</title>
<g id="a_edge45_Node000024_Node000025"><a xlink:title=" ">
<path fill="none" stroke="#63b8ff" d="M1514.59,-176.55C1541.37,-166.7 1584.37,-150.88 1614.71,-139.71"/>
<polygon fill="#63b8ff" stroke="#63b8ff" points="1615.66,-143.09 1623.84,-136.35 1613.25,-136.52 1615.66,-143.09"/>
</a>
</g>
</g>
<!-- Node27 -->
<g id="Node000027" class="node">
<title>Node27</title>
<g id="a_Node000027"><a xlink:title=" ">
<polygon fill="#e0e0e0" stroke="#999999" points="1567.81,-135.38 1524.06,-135.38 1524.06,-116.12 1567.81,-116.12 1567.81,-135.38"/>
<text text-anchor="middle" x="1545.94" y="-121.88" font-family="Helvetica,sans-Serif" font-size="10.00">format</text>
</a>
</g>
</g>
<!-- Node24&#45;&gt;Node27 -->
<g id="edge51_Node000024_Node000027" class="edge">
<title>Node24&#45;&gt;Node27</title>
<g id="a_edge51_Node000024_Node000027"><a xlink:title=" ">
<path fill="none" stroke="#63b8ff" d="M1498.44,-176.68C1506.67,-168.04 1519.34,-154.71 1529.53,-144"/>
<polygon fill="#63b8ff" stroke="#63b8ff" points="1531.95,-146.53 1536.31,-136.87 1526.88,-141.71 1531.95,-146.53"/>
</a>
</g>
</g>
<!-- Node25&#45;&gt;Node6 -->
<g id="edge46_Node000025_Node000006" class="edge">
<title>Node25&#45;&gt;Node6</title>
<g id="a_edge46_Node000025_Node000006"><a xlink:title=" ">
<path fill="none" stroke="#63b8ff" d="M1623.37,-118.75C1609.58,-115.84 1592.43,-112.55 1576.94,-110.5 1460.47,-95.11 1100.24,-74.62 979.7,-68.02"/>
<polygon fill="#63b8ff" stroke="#63b8ff" points="980.16,-64.54 969.98,-67.49 979.78,-71.53 980.16,-64.54"/>
</a>
</g>
</g>
<!-- Node25&#45;&gt;Node12 -->
<g id="edge48_Node000025_Node000012" class="edge">
<title>Node25&#45;&gt;Node12</title>
<g id="a_edge48_Node000025_Node000012"><a xlink:title=" ">
<path fill="none" stroke="#63b8ff" d="M1645.4,-115.95C1638.35,-102.52 1624.11,-76.25 1609.94,-55.25 1603.75,-46.08 1596.26,-36.37 1589.79,-28.35"/>
<polygon fill="#63b8ff" stroke="#63b8ff" points="1592.59,-26.24 1583.53,-20.74 1587.18,-30.69 1592.59,-26.24"/>
</a>
</g>
</g>
<!-- Node26 -->
<g id="Node000026" class="node">
<title>Node26</title>
<g id="a_Node000026"><a xlink:title=" ">
<polygon fill="#e0e0e0" stroke="#999999" points="1696.31,-74.5 1661.56,-74.5 1661.56,-55.25 1696.31,-55.25 1696.31,-74.5"/>
<text text-anchor="middle" x="1678.94" y="-61" font-family="Helvetica,sans-Serif" font-size="10.00">print</text>
</a>
</g>
</g>
<!-- Node25&#45;&gt;Node26 -->
<g id="edge47_Node000025_Node000026" class="edge">
<title>Node25&#45;&gt;Node26</title>
<g id="a_edge47_Node000025_Node000026"><a xlink:title=" ">
<path fill="none" stroke="#63b8ff" d="M1654.34,-115.81C1658.35,-107.68 1664.39,-95.42 1669.48,-85.08"/>
<polygon fill="#63b8ff" stroke="#63b8ff" points="1672.54,-86.78 1673.82,-76.26 1666.27,-83.68 1672.54,-86.78"/>
</a>
</g>
</g>
</g>
</svg>

<g id="navigator" transform="translate(0 0)" fill="#404254">
  <rect fill="#f2f5e9" fill-opacity="0.5" stroke="#606060" stroke-width=".5" x="0" y="0" width="60" height="60"/>
  <use id="zoomplus" xlink:href="#zoomPlus" x="17" y="9" onmousedown="handleZoom(evt,'in')"/>
  <use id="zoomminus" xlink:href="#zoomMin" x="42" y="9" onmousedown="handleZoom(evt,'out')"/>
  <use id="reset" xlink:href="#resetDef" x="30" y="36" onmousedown="handleReset()"/>
   <use id="arrowup" xlink:href="#arrowUp" x="0" y="0" onmousedown="handlePan(0,-1)"/>
  <use id="arrowright" xlink:href="#arrowRight" x="0" y="0" onmousedown="handlePan(1,0)"/>
  <use id="arrowdown" xlink:href="#arrowDown" x="0" y="0" onmousedown="handlePan(0,1)"/>
  <use id="arrowleft" xlink:href="#arrowLeft" x="0" y="0" onmousedown="handlePan(-1,0)"/>
</g>
<svg viewBox="0 0 15 15" width="100%" height="30px" preserveAspectRatio="xMaxYMin meet">
 <g id="arrow_out" transform="scale(0.3 0.3)">
  <a xlink:href="print__2x3x4_8cpp__incl_org.svg" target="_base">
   <rect id="button" ry="5" rx="5" y="6" x="6" height="38" width="38"
        fill="#f2f5e9" fill-opacity="0.5" stroke="#606060" stroke-width="1.0"/>
   <path id="arrow"
     d="M 11.500037,31.436501 C 11.940474,20.09759 22.043105,11.32322 32.158766,21.979434 L 37.068811,17.246167 C 37.068811,17.246167 37.088388,32 37.088388,32 L 22.160133,31.978069 C 22.160133,31.978069 26.997745,27.140456 26.997745,27.140456 C 18.528582,18.264221 13.291696,25.230495 11.500037,31.436501 z"
     style="fill:#404040;"/>
  </a>
 </g>
</svg>

<style type='text/css'>
<![CDATA[
[data-mouse-over-selected='false'] { opacity: 0.7; }
[data-mouse-over-selected='true']  { opacity: 1.0; }
]]>
</style>
<script type="application/ecmascript"><![CDATA[
document.addEventListener('DOMContentLoaded', (event) => {
  highlightEdges();
  highlightAdjacentNodes();
});
]]></script>
</svg>
