<?xml version="1.0" encoding="UTF-8" standalone="no"?>
<!DOCTYPE svg PUBLIC "-//W3C//DTD SVG 1.1//EN"
 "http://www.w3.org/Graphics/SVG/1.1/DTD/svg11.dtd">
<!-- Generated by graphviz version 2.49.3 (20211027.1534)
 -->
<!-- Title: sample/rocket_altitude.cpp Pages: 1 -->
<svg width="715pt" height="308pt"
 viewBox="0.00 0.00 715.03 308.00" xmlns="http://www.w3.org/2000/svg" xmlns:xlink="http://www.w3.org/1999/xlink">
<g id="graph0" class="graph" transform="scale(1 1) rotate(0) translate(4 304)">
<title>sample/rocket_altitude.cpp</title>
<polygon fill="white" stroke="transparent" points="-4,4 -4,-304 711.03,-304 711.03,4 -4,4"/>
<!-- Node1 -->
<g id="node1" class="node">
<title>Node1</title>
<g id="a_node1"><a xlink:title=" ">
<polygon fill="#bfbfbf" stroke="black" points="551.53,-280.5 551.53,-299.5 684.53,-299.5 684.53,-280.5 551.53,-280.5"/>
<text text-anchor="middle" x="618.03" y="-287.5" font-family="Helvetica,sans-Serif" font-size="10.00">sample/rocket_altitude.cpp</text>
</a>
</g>
</g>
<!-- Node2 -->
<g id="node2" class="node">
<title>Node2</title>
<g id="a_node2"><a xlink:href="kalman__eigen_8hpp.xhtml" target="_top" xlink:title="Kalman operation for Eigen 3 types.">
<polygon fill="white" stroke="black" points="440.53,-224.5 440.53,-243.5 575.53,-243.5 575.53,-224.5 440.53,-224.5"/>
<text text-anchor="middle" x="508.03" y="-231.5" font-family="Helvetica,sans-Serif" font-size="10.00">fcarouge/kalman_eigen.hpp</text>
</a>
</g>
</g>
<!-- Node1&#45;&gt;Node2 -->
<g id="edge1" class="edge">
<title>Node1&#45;&gt;Node2</title>
<path fill="none" stroke="midnightblue" d="M600.36,-280.32C582.64,-271.62 555.13,-258.12 534.74,-248.11"/>
<polygon fill="midnightblue" stroke="midnightblue" points="536.18,-244.92 525.66,-243.65 533.09,-251.2 536.18,-244.92"/>
</g>
<!-- Node14 -->
<g id="node14" class="node">
<title>Node14</title>
<g id="a_node14"><a xlink:title=" ">
<polygon fill="white" stroke="#bfbfbf" points="593.53,-224.5 593.53,-243.5 642.53,-243.5 642.53,-224.5 593.53,-224.5"/>
<text text-anchor="middle" x="618.03" y="-231.5" font-family="Helvetica,sans-Serif" font-size="10.00">cassert</text>
</a>
</g>
</g>
<!-- Node1&#45;&gt;Node14 -->
<g id="edge20" class="edge">
<title>Node1&#45;&gt;Node14</title>
<path fill="none" stroke="midnightblue" d="M618.03,-280.08C618.03,-273.01 618.03,-262.86 618.03,-253.99"/>
<polygon fill="midnightblue" stroke="midnightblue" points="621.53,-253.75 618.03,-243.75 614.53,-253.75 621.53,-253.75"/>
</g>
<!-- Node15 -->
<g id="node15" class="node">
<title>Node15</title>
<g id="a_node15"><a xlink:title=" ">
<polygon fill="white" stroke="#bfbfbf" points="661.03,-224.5 661.03,-243.5 707.03,-243.5 707.03,-224.5 661.03,-224.5"/>
<text text-anchor="middle" x="684.03" y="-231.5" font-family="Helvetica,sans-Serif" font-size="10.00">chrono</text>
</a>
</g>
</g>
<!-- Node1&#45;&gt;Node15 -->
<g id="edge21" class="edge">
<title>Node1&#45;&gt;Node15</title>
<path fill="none" stroke="midnightblue" d="M628.63,-280.32C638.49,-272.26 653.38,-260.08 665.24,-250.37"/>
<polygon fill="midnightblue" stroke="midnightblue" points="667.71,-252.88 673.23,-243.83 663.28,-247.46 667.71,-252.88"/>
</g>
<!-- Node3 -->
<g id="node3" class="node">
<title>Node3</title>
<g id="a_node3"><a xlink:href="eigen_8hpp.xhtml" target="_top" xlink:title="Kalman operation for Eigen 3 types.">
<polygon fill="white" stroke="black" points="338.03,-168.5 338.03,-187.5 430.03,-187.5 430.03,-168.5 338.03,-168.5"/>
<text text-anchor="middle" x="384.03" y="-175.5" font-family="Helvetica,sans-Serif" font-size="10.00">internal/eigen.hpp</text>
</a>
</g>
</g>
<!-- Node2&#45;&gt;Node3 -->
<g id="edge2" class="edge">
<title>Node2&#45;&gt;Node3</title>
<path fill="none" stroke="midnightblue" d="M488.38,-224.44C468.07,-215.6 436.13,-201.69 412.93,-191.59"/>
<polygon fill="midnightblue" stroke="midnightblue" points="414.15,-188.3 403.59,-187.52 411.36,-194.72 414.15,-188.3"/>
</g>
<!-- Node7 -->
<g id="node7" class="node">
<title>Node7</title>
<g id="a_node7"><a xlink:href="internal_2kalman_8hpp.xhtml" target="_top" xlink:title=" ">
<polygon fill="white" stroke="black" points="297.53,-56.5 297.53,-75.5 398.53,-75.5 398.53,-56.5 297.53,-56.5"/>
<text text-anchor="middle" x="348.03" y="-63.5" font-family="Helvetica,sans-Serif" font-size="10.00">internal/kalman.hpp</text>
</a>
</g>
</g>
<!-- Node2&#45;&gt;Node7 -->
<g id="edge18" class="edge">
<title>Node2&#45;&gt;Node7</title>
<path fill="none" stroke="midnightblue" d="M515.1,-224.36C531.69,-202.99 569.72,-146.85 542.03,-112 525.58,-91.3 459.53,-79.27 409.02,-72.94"/>
<polygon fill="midnightblue" stroke="midnightblue" points="409.17,-69.43 398.82,-71.71 408.33,-76.38 409.17,-69.43"/>
</g>
<!-- Node13 -->
<g id="node13" class="node">
<title>Node13</title>
<g id="a_node13"><a xlink:title=" ">
<polygon fill="white" stroke="#bfbfbf" points="483.53,-112.5 483.53,-131.5 532.53,-131.5 532.53,-112.5 483.53,-112.5"/>
<text text-anchor="middle" x="508.03" y="-119.5" font-family="Helvetica,sans-Serif" font-size="10.00">cstddef</text>
</a>
</g>
</g>
<!-- Node2&#45;&gt;Node13 -->
<g id="edge19" class="edge">
<title>Node2&#45;&gt;Node13</title>
<path fill="none" stroke="midnightblue" d="M508.03,-224.37C508.03,-206.62 508.03,-165.67 508.03,-141.6"/>
<polygon fill="midnightblue" stroke="midnightblue" points="511.53,-141.59 508.03,-131.59 504.53,-141.59 511.53,-141.59"/>
</g>
<!-- Node4 -->
<g id="node4" class="node">
<title>Node4</title>
<g id="a_node4"><a xlink:href="kalman_8hpp.xhtml" target="_top" xlink:title="The main Kalman filter class.">
<polygon fill="white" stroke="black" points="206.53,-112.5 206.53,-131.5 313.53,-131.5 313.53,-112.5 206.53,-112.5"/>
<text text-anchor="middle" x="260.03" y="-119.5" font-family="Helvetica,sans-Serif" font-size="10.00">fcarouge/kalman.hpp</text>
</a>
</g>
</g>
<!-- Node3&#45;&gt;Node4 -->
<g id="edge3" class="edge">
<title>Node3&#45;&gt;Node4</title>
<path fill="none" stroke="midnightblue" d="M364.38,-168.44C344.07,-159.6 312.13,-145.69 288.93,-135.59"/>
<polygon fill="midnightblue" stroke="midnightblue" points="290.15,-132.3 279.59,-131.52 287.36,-138.72 290.15,-132.3"/>
</g>
<!-- Node8 -->
<g id="node8" class="node">
<title>Node8</title>
<g id="a_node8"><a xlink:title=" ">
<polygon fill="white" stroke="#bfbfbf" points="397.53,-0.5 397.53,-19.5 456.53,-19.5 456.53,-0.5 397.53,-0.5"/>
<text text-anchor="middle" x="427.03" y="-7.5" font-family="Helvetica,sans-Serif" font-size="10.00">functional</text>
</a>
</g>
</g>
<!-- Node3&#45;&gt;Node8 -->
<g id="edge16" class="edge">
<title>Node3&#45;&gt;Node8</title>
<path fill="none" stroke="midnightblue" d="M396.53,-168.3C406.9,-160.25 420.92,-147.24 427.03,-132 440.66,-98 435.72,-54.17 431.19,-29.69"/>
<polygon fill="midnightblue" stroke="midnightblue" points="434.56,-28.72 429.14,-19.62 427.7,-30.12 434.56,-28.72"/>
</g>
<!-- Node9 -->
<g id="node9" class="node">
<title>Node9</title>
<g id="a_node9"><a xlink:title=" ">
<polygon fill="white" stroke="#bfbfbf" points="181.03,-0.5 181.03,-19.5 243.03,-19.5 243.03,-0.5 181.03,-0.5"/>
<text text-anchor="middle" x="212.03" y="-7.5" font-family="Helvetica,sans-Serif" font-size="10.00">type_traits</text>
</a>
</g>
</g>
<!-- Node3&#45;&gt;Node9 -->
<g id="edge17" class="edge">
<title>Node3&#45;&gt;Node9</title>
<path fill="none" stroke="midnightblue" d="M337.69,-172.15C244.78,-161.31 41.37,-131.61 4.03,-76 -0.93,-68.62 -1.55,-62.92 4.03,-56 6.67,-52.72 111.19,-31.26 171.04,-19.2"/>
<polygon fill="midnightblue" stroke="midnightblue" points="171.83,-22.61 180.95,-17.2 170.45,-15.75 171.83,-22.61"/>
</g>
<!-- Node10 -->
<g id="node10" class="node">
<title>Node10</title>
<g id="a_node10"><a xlink:title=" ">
<polygon fill="white" stroke="#bfbfbf" points="13.03,-56.5 13.03,-75.5 69.03,-75.5 69.03,-56.5 13.03,-56.5"/>
<text text-anchor="middle" x="41.03" y="-63.5" font-family="Helvetica,sans-Serif" font-size="10.00">concepts</text>
</a>
</g>
</g>
<!-- Node3&#45;&gt;Node10 -->
<g id="edge14" class="edge">
<title>Node3&#45;&gt;Node10</title>
<path fill="none" stroke="midnightblue" d="M340.03,-168.47C301.78,-160.57 245.12,-147.7 197.03,-132 150.72,-116.89 98.86,-94.04 68.13,-79.84"/>
<polygon fill="midnightblue" stroke="midnightblue" points="69.47,-76.61 58.93,-75.56 66.52,-82.95 69.47,-76.61"/>
</g>
<!-- Node12 -->
<g id="node12" class="node">
<title>Node12</title>
<g id="a_node12"><a xlink:title=" ">
<polygon fill="white" stroke="#bfbfbf" points="350.03,-112.5 350.03,-131.5 418.03,-131.5 418.03,-112.5 350.03,-112.5"/>
<text text-anchor="middle" x="384.03" y="-119.5" font-family="Helvetica,sans-Serif" font-size="10.00">Eigen/Eigen</text>
</a>
</g>
</g>
<!-- Node3&#45;&gt;Node12 -->
<g id="edge13" class="edge">
<title>Node3&#45;&gt;Node12</title>
<path fill="none" stroke="midnightblue" d="M384.03,-168.08C384.03,-161.01 384.03,-150.86 384.03,-141.99"/>
<polygon fill="midnightblue" stroke="midnightblue" points="387.53,-141.75 384.03,-131.75 380.53,-141.75 387.53,-141.75"/>
</g>
<!-- Node3&#45;&gt;Node13 -->
<g id="edge15" class="edge">
<title>Node3&#45;&gt;Node13</title>
<path fill="none" stroke="midnightblue" d="M403.68,-168.44C423.99,-159.6 455.93,-145.69 479.13,-135.59"/>
<polygon fill="midnightblue" stroke="midnightblue" points="480.7,-138.72 488.47,-131.52 477.91,-132.3 480.7,-138.72"/>
</g>
<!-- Node5 -->
<g id="node5" class="node">
<title>Node5</title>
<g id="a_node5"><a xlink:href="format_8hpp.xhtml" target="_top" xlink:title=" ">
<polygon fill="white" stroke="black" points="86.53,-56.5 86.53,-75.5 183.53,-75.5 183.53,-56.5 86.53,-56.5"/>
<text text-anchor="middle" x="135.03" y="-63.5" font-family="Helvetica,sans-Serif" font-size="10.00">internal/format.hpp</text>
</a>
</g>
</g>
<!-- Node4&#45;&gt;Node5 -->
<g id="edge4" class="edge">
<title>Node4&#45;&gt;Node5</title>
<path fill="none" stroke="midnightblue" d="M240.22,-112.44C219.74,-103.6 187.55,-89.69 164.16,-79.59"/>
<polygon fill="midnightblue" stroke="midnightblue" points="165.31,-76.27 154.74,-75.52 162.54,-82.7 165.31,-76.27"/>
</g>
<!-- Node4&#45;&gt;Node7 -->
<g id="edge6" class="edge">
<title>Node4&#45;&gt;Node7</title>
<path fill="none" stroke="midnightblue" d="M274.17,-112.32C287.9,-103.9 308.97,-90.97 325.09,-81.07"/>
<polygon fill="midnightblue" stroke="midnightblue" points="327.23,-83.87 333.93,-75.65 323.57,-77.9 327.23,-83.87"/>
</g>
<!-- Node4&#45;&gt;Node8 -->
<g id="edge10" class="edge">
<title>Node4&#45;&gt;Node8</title>
<path fill="none" stroke="midnightblue" d="M313.61,-116.9C344.67,-111.82 382.38,-100.61 407.03,-76 419.16,-63.89 423.96,-44.61 425.85,-30.18"/>
<polygon fill="midnightblue" stroke="midnightblue" points="429.37,-30.17 426.82,-19.89 422.4,-29.52 429.37,-30.17"/>
</g>
<!-- Node4&#45;&gt;Node9 -->
<g id="edge11" class="edge">
<title>Node4&#45;&gt;Node9</title>
<path fill="none" stroke="midnightblue" d="M253.46,-112.47C246.99,-103.72 237.21,-89.53 231.03,-76 224.16,-60.96 219.11,-42.83 215.94,-29.54"/>
<polygon fill="midnightblue" stroke="midnightblue" points="219.34,-28.69 213.73,-19.7 212.51,-30.22 219.34,-28.69"/>
</g>
<!-- Node4&#45;&gt;Node10 -->
<g id="edge9" class="edge">
<title>Node4&#45;&gt;Node10</title>
<path fill="none" stroke="midnightblue" d="M225.28,-112.5C190.47,-103.97 135.11,-90.38 79.06,-76.5"/>
<polygon fill="midnightblue" stroke="midnightblue" points="79.87,-73.09 69.33,-74.08 78.19,-79.89 79.87,-73.09"/>
</g>
<!-- Node11 -->
<g id="node11" class="node">
<title>Node11</title>
<g id="a_node11"><a xlink:title=" ">
<polygon fill="white" stroke="#bfbfbf" points="240.53,-56.5 240.53,-75.5 279.53,-75.5 279.53,-56.5 240.53,-56.5"/>
<text text-anchor="middle" x="260.03" y="-63.5" font-family="Helvetica,sans-Serif" font-size="10.00">utility</text>
</a>
</g>
</g>
<!-- Node4&#45;&gt;Node11 -->
<g id="edge12" class="edge">
<title>Node4&#45;&gt;Node11</title>
<path fill="none" stroke="midnightblue" d="M260.03,-112.08C260.03,-105.01 260.03,-94.86 260.03,-85.99"/>
<polygon fill="midnightblue" stroke="midnightblue" points="263.53,-85.75 260.03,-75.75 256.53,-85.75 263.53,-85.75"/>
</g>
<!-- Node6 -->
<g id="node6" class="node">
<title>Node6</title>
<g id="a_node6"><a xlink:title=" ">
<polygon fill="white" stroke="#bfbfbf" points="113.03,-0.5 113.03,-19.5 157.03,-19.5 157.03,-0.5 113.03,-0.5"/>
<text text-anchor="middle" x="135.03" y="-7.5" font-family="Helvetica,sans-Serif" font-size="10.00">format</text>
</a>
</g>
</g>
<!-- Node5&#45;&gt;Node6 -->
<g id="edge5" class="edge">
<title>Node5&#45;&gt;Node6</title>
<path fill="none" stroke="midnightblue" d="M135.03,-56.08C135.03,-49.01 135.03,-38.86 135.03,-29.99"/>
<polygon fill="midnightblue" stroke="midnightblue" points="138.53,-29.75 135.03,-19.75 131.53,-29.75 138.53,-29.75"/>
</g>
<!-- Node7&#45;&gt;Node8 -->
<g id="edge7" class="edge">
<title>Node7&#45;&gt;Node8</title>
<path fill="none" stroke="midnightblue" d="M360.72,-56.32C372.93,-47.98 391.61,-35.21 406.03,-25.35"/>
<polygon fill="midnightblue" stroke="midnightblue" points="408.09,-28.19 414.37,-19.65 404.14,-22.41 408.09,-28.19"/>
</g>
<!-- Node7&#45;&gt;Node9 -->
<g id="edge8" class="edge">
<title>Node7&#45;&gt;Node9</title>
<path fill="none" stroke="midnightblue" d="M326.48,-56.44C304,-47.52 268.54,-33.44 243.05,-23.32"/>
<polygon fill="midnightblue" stroke="midnightblue" points="244.06,-19.95 233.48,-19.52 241.48,-26.46 244.06,-19.95"/>
</g>
</g>
</svg>
