<?xml version="1.0" encoding="UTF-8" standalone="no"?>
<!DOCTYPE svg PUBLIC "-//W3C//DTD SVG 1.1//EN"
 "http://www.w3.org/Graphics/SVG/1.1/DTD/svg11.dtd">
<!-- Generated by graphviz version 2.44.0 ()
 -->
<!-- Title: sample/rocket_altitude.cpp Pages: 1 -->
<svg width="388pt" height="308pt"
 viewBox="0.00 0.00 388.00 308.00" xmlns="http://www.w3.org/2000/svg" xmlns:xlink="http://www.w3.org/1999/xlink">
<g id="graph0" class="graph" transform="scale(1 1) rotate(0) translate(4 304)">
<title>sample/rocket_altitude.cpp</title>
<polygon fill="white" stroke="transparent" points="-4,4 -4,-304 384,-304 384,4 -4,4"/>
<!-- Node1 -->
<g id="node1" class="node">
<title>Node1</title>
<g id="a_node1"><a xlink:title=" ">
<polygon fill="#bfbfbf" stroke="black" points="224.5,-280.5 224.5,-299.5 357.5,-299.5 357.5,-280.5 224.5,-280.5"/>
<text text-anchor="middle" x="291" y="-287.5" font-family="Helvetica,sans-Serif" font-size="10.00">sample/rocket_altitude.cpp</text>
</a>
</g>
</g>
<!-- Node2 -->
<g id="node2" class="node">
<title>Node2</title>
<g id="a_node2"><a xlink:href="kalman__eigen_8hpp.xhtml" target="_top" xlink:title="Kalman operation for Eigen 3 types.">
<polygon fill="white" stroke="black" points="113.5,-224.5 113.5,-243.5 248.5,-243.5 248.5,-224.5 113.5,-224.5"/>
<text text-anchor="middle" x="181" y="-231.5" font-family="Helvetica,sans-Serif" font-size="10.00">fcarouge/kalman_eigen.hpp</text>
</a>
</g>
</g>
<!-- Node1&#45;&gt;Node2 -->
<g id="edge1" class="edge">
<title>Node1&#45;&gt;Node2</title>
<path fill="none" stroke="midnightblue" d="M273.33,-280.32C255.61,-271.62 228.1,-258.12 207.71,-248.11"/>
<polygon fill="midnightblue" stroke="midnightblue" points="209.15,-244.92 198.63,-243.65 206.06,-251.2 209.15,-244.92"/>
</g>
<!-- Node9 -->
<g id="node9" class="node">
<title>Node9</title>
<g id="a_node9"><a xlink:title=" ">
<polygon fill="white" stroke="#bfbfbf" points="266.5,-224.5 266.5,-243.5 315.5,-243.5 315.5,-224.5 266.5,-224.5"/>
<text text-anchor="middle" x="291" y="-231.5" font-family="Helvetica,sans-Serif" font-size="10.00">cassert</text>
</a>
</g>
</g>
<!-- Node1&#45;&gt;Node9 -->
<g id="edge11" class="edge">
<title>Node1&#45;&gt;Node9</title>
<path fill="none" stroke="midnightblue" d="M291,-280.08C291,-273.01 291,-262.86 291,-253.99"/>
<polygon fill="midnightblue" stroke="midnightblue" points="294.5,-253.75 291,-243.75 287.5,-253.75 294.5,-253.75"/>
</g>
<!-- Node10 -->
<g id="node10" class="node">
<title>Node10</title>
<g id="a_node10"><a xlink:title=" ">
<polygon fill="white" stroke="#bfbfbf" points="334,-224.5 334,-243.5 380,-243.5 380,-224.5 334,-224.5"/>
<text text-anchor="middle" x="357" y="-231.5" font-family="Helvetica,sans-Serif" font-size="10.00">chrono</text>
</a>
</g>
</g>
<!-- Node1&#45;&gt;Node10 -->
<g id="edge12" class="edge">
<title>Node1&#45;&gt;Node10</title>
<path fill="none" stroke="midnightblue" d="M301.6,-280.32C311.46,-272.26 326.35,-260.08 338.22,-250.37"/>
<polygon fill="midnightblue" stroke="midnightblue" points="340.68,-252.88 346.2,-243.83 336.25,-247.46 340.68,-252.88"/>
</g>
<!-- Node3 -->
<g id="node3" class="node">
<title>Node3</title>
<g id="a_node3"><a xlink:href="kalman_8hpp.xhtml" target="_top" xlink:title="The main Kalman filter class.">
<polygon fill="white" stroke="black" points="103,-112.5 103,-131.5 169,-131.5 169,-112.5 103,-112.5"/>
<text text-anchor="middle" x="136" y="-119.5" font-family="Helvetica,sans-Serif" font-size="10.00">kalman.hpp</text>
</a>
</g>
</g>
<!-- Node2&#45;&gt;Node3 -->
<g id="edge2" class="edge">
<title>Node2&#45;&gt;Node3</title>
<path fill="none" stroke="midnightblue" d="M152.63,-224.49C135.25,-217.65 114.4,-206.13 104,-188 94.67,-171.74 107.05,-152.38 119.03,-139.04"/>
<polygon fill="midnightblue" stroke="midnightblue" points="121.79,-141.21 126.23,-131.59 116.76,-136.34 121.79,-141.21"/>
</g>
<!-- Node7 -->
<g id="node7" class="node">
<title>Node7</title>
<g id="a_node7"><a xlink:href="kalman__eigen__operator_8hpp.xhtml" target="_top" xlink:title="Kalman operation for Eigen 3 types.">
<polygon fill="white" stroke="black" points="113.5,-168.5 113.5,-187.5 248.5,-187.5 248.5,-168.5 113.5,-168.5"/>
<text text-anchor="middle" x="181" y="-175.5" font-family="Helvetica,sans-Serif" font-size="10.00">kalman_eigen_operator.hpp</text>
</a>
</g>
</g>
<!-- Node2&#45;&gt;Node7 -->
<g id="edge7" class="edge">
<title>Node2&#45;&gt;Node7</title>
<path fill="none" stroke="midnightblue" d="M181,-224.08C181,-217.01 181,-206.86 181,-197.99"/>
<polygon fill="midnightblue" stroke="midnightblue" points="184.5,-197.75 181,-187.75 177.5,-197.75 184.5,-197.75"/>
</g>
<!-- Node8 -->
<g id="node8" class="node">
<title>Node8</title>
<g id="a_node8"><a xlink:title=" ">
<polygon fill="white" stroke="#bfbfbf" points="192,-112.5 192,-131.5 260,-131.5 260,-112.5 192,-112.5"/>
<text text-anchor="middle" x="226" y="-119.5" font-family="Helvetica,sans-Serif" font-size="10.00">Eigen/Eigen</text>
</a>
</g>
</g>
<!-- Node2&#45;&gt;Node8 -->
<g id="edge10" class="edge">
<title>Node2&#45;&gt;Node8</title>
<path fill="none" stroke="midnightblue" d="M209.37,-224.49C226.75,-217.65 247.6,-206.13 258,-188 267.33,-171.74 254.95,-152.38 242.97,-139.04"/>
<polygon fill="midnightblue" stroke="midnightblue" points="245.24,-136.34 235.77,-131.59 240.21,-141.21 245.24,-136.34"/>
</g>
<!-- Node4 -->
<g id="node4" class="node">
<title>Node4</title>
<g id="a_node4"><a xlink:href="kalman__equation_8hpp.xhtml" target="_top" xlink:title="Kalman filter main project header.">
<polygon fill="white" stroke="black" points="0,-56.5 0,-75.5 108,-75.5 108,-56.5 0,-56.5"/>
<text text-anchor="middle" x="54" y="-63.5" font-family="Helvetica,sans-Serif" font-size="10.00">kalman_equation.hpp</text>
</a>
</g>
</g>
<!-- Node3&#45;&gt;Node4 -->
<g id="edge3" class="edge">
<title>Node3&#45;&gt;Node4</title>
<path fill="none" stroke="midnightblue" d="M122.83,-112.32C110.15,-103.98 90.77,-91.21 75.79,-81.35"/>
<polygon fill="midnightblue" stroke="midnightblue" points="77.42,-78.23 67.14,-75.65 73.57,-84.08 77.42,-78.23"/>
</g>
<!-- Node5 -->
<g id="node5" class="node">
<title>Node5</title>
<g id="a_node5"><a xlink:title=" ">
<polygon fill="white" stroke="#bfbfbf" points="64,-0.5 64,-19.5 126,-19.5 126,-0.5 64,-0.5"/>
<text text-anchor="middle" x="95" y="-7.5" font-family="Helvetica,sans-Serif" font-size="10.00">type_traits</text>
</a>
</g>
</g>
<!-- Node3&#45;&gt;Node5 -->
<g id="edge6" class="edge">
<title>Node3&#45;&gt;Node5</title>
<path fill="none" stroke="midnightblue" d="M133.99,-112.43C130.93,-99.85 124.64,-75.73 117,-56 113.43,-46.78 108.69,-36.86 104.52,-28.7"/>
<polygon fill="midnightblue" stroke="midnightblue" points="107.58,-27 99.84,-19.76 101.38,-30.25 107.58,-27"/>
</g>
<!-- Node6 -->
<g id="node6" class="node">
<title>Node6</title>
<g id="a_node6"><a xlink:href="kalman__operator_8hpp.xhtml" target="_top" xlink:title="Kalman operation for standard types.">
<polygon fill="white" stroke="black" points="164.5,-56.5 164.5,-75.5 271.5,-75.5 271.5,-56.5 164.5,-56.5"/>
<text text-anchor="middle" x="218" y="-63.5" font-family="Helvetica,sans-Serif" font-size="10.00">kalman_operator.hpp</text>
</a>
</g>
</g>
<!-- Node3&#45;&gt;Node6 -->
<g id="edge5" class="edge">
<title>Node3&#45;&gt;Node6</title>
<path fill="none" stroke="midnightblue" d="M149.17,-112.32C161.85,-103.98 181.23,-91.21 196.21,-81.35"/>
<polygon fill="midnightblue" stroke="midnightblue" points="198.43,-84.08 204.86,-75.65 194.58,-78.23 198.43,-84.08"/>
</g>
<!-- Node4&#45;&gt;Node5 -->
<g id="edge4" class="edge">
<title>Node4&#45;&gt;Node5</title>
<path fill="none" stroke="midnightblue" d="M60.77,-56.08C66.56,-48.46 75.06,-37.26 82.14,-27.94"/>
<polygon fill="midnightblue" stroke="midnightblue" points="85.1,-29.83 88.36,-19.75 79.52,-25.6 85.1,-29.83"/>
</g>
<!-- Node7&#45;&gt;Node3 -->
<g id="edge8" class="edge">
<title>Node7&#45;&gt;Node3</title>
<path fill="none" stroke="midnightblue" d="M173.57,-168.08C167.15,-160.38 157.69,-149.03 149.88,-139.65"/>
<polygon fill="midnightblue" stroke="midnightblue" points="152.38,-137.19 143.29,-131.75 147.01,-141.67 152.38,-137.19"/>
</g>
<!-- Node7&#45;&gt;Node8 -->
<g id="edge9" class="edge">
<title>Node7&#45;&gt;Node8</title>
<path fill="none" stroke="midnightblue" d="M188.43,-168.08C194.85,-160.38 204.31,-149.03 212.12,-139.65"/>
<polygon fill="midnightblue" stroke="midnightblue" points="214.99,-141.67 218.71,-131.75 209.62,-137.19 214.99,-141.67"/>
</g>
</g>
</svg>
