<?xml version="1.0" encoding="UTF-8" standalone="no"?>
<!DOCTYPE svg PUBLIC "-//W3C//DTD SVG 1.1//EN"
 "http://www.w3.org/Graphics/SVG/1.1/DTD/svg11.dtd">
<!-- Generated by graphviz version 9.0.0 (20230911.1827)
 -->
<!-- Title: std::formatter&lt; Filter, Char &gt; Pages: 1 -->
<svg width="108pt" height="83pt"
 viewBox="0.00 0.00 108.00 83.00" xmlns="http://www.w3.org/2000/svg" xmlns:xlink="http://www.w3.org/1999/xlink">
<g id="graph0" class="graph" transform="scale(1 1) rotate(0) translate(4 79)">
<title>std::formatter&lt; Filter, Char &gt;</title>
<!-- Node1 -->
<g id="Node000001" class="node">
<title>Node1</title>
<g id="a_Node000001"><a xlink:title="Specialization of the standard formatter for the Kalman filters.">
<polygon fill="#999999" stroke="none" points="100,-75 0,-75 0,0 100,0 100,-75"/>
<text text-anchor="start" x="5" y="-61.5" font-family="Helvetica,sans-Serif" font-size="10.00">std::formatter&lt; Filter,</text>
<text text-anchor="start" x="34.62" y="-50.25" font-family="Helvetica,sans-Serif" font-size="10.00"> Char &gt;</text>
<text text-anchor="start" x="48.5" y="-35.5" font-family="Helvetica,sans-Serif" font-size="10.00"> </text>
<text text-anchor="start" x="16" y="-20.5" font-family="Helvetica,sans-Serif" font-size="10.00">+</text>
<text text-anchor="start" x="38" y="-20.5" font-family="Helvetica,sans-Serif" font-size="10.00">parse()</text>
<text text-anchor="start" x="16" y="-5.5" font-family="Helvetica,sans-Serif" font-size="10.00">+</text>
<text text-anchor="start" x="38" y="-5.5" font-family="Helvetica,sans-Serif" font-size="10.00">format()</text>
<polygon fill="#666666" stroke="#666666" points="0,-47 0,-47 100,-47 100,-47 0,-47"/>
<polygon fill="#666666" stroke="#666666" points="0,-32 0,-32 100,-32 100,-32 0,-32"/>
<polygon fill="none" stroke="#666666" points="0,0 0,-75 100,-75 100,0 0,0"/>
</a>
</g>
</g>
</g>
</svg>
