<?xml version="1.0" encoding="UTF-8" standalone="no"?>
<!DOCTYPE svg PUBLIC "-//W3C//DTD SVG 1.1//EN"
 "http://www.w3.org/Graphics/SVG/1.1/DTD/svg11.dtd">
<!-- Generated by graphviz version 12.2.0 (20241103.1931)
 -->
<!-- Title: fcarouge::indexed::matrix&lt; Matrix, RowIndexes, ColumnIndexes &gt; Pages: 1 -->
<!--zoomable 463 -->

<svg id="main" version="1.1" xmlns="http://www.w3.org/2000/svg" xmlns:xlink="http://www.w3.org/1999/xlink" xml:space="preserve" onload="init(evt)">

<style type="text/css"><![CDATA[
.node, .edge {opacity: 0.7;}
.node.selected, .edge.selected {opacity: 1;}
.edge:hover path { stroke: red; }
.edge:hover polygon { stroke: red; fill: red; }
]]></style>

<defs>
  <circle id="rim" cx="0" cy="0" r="7"/>
  <circle id="rim2" cx="0" cy="0" r="3.5"/>
  <g id="zoomPlus">
    <use xlink:href="#rim" fill="#404040"><set attributeName="fill" to="#808080" begin="zoomplus.mouseover" end="zoomplus.mouseout"/></use>
    <path d="M-4,0h8M0,-4v8" fill="none" stroke="white" stroke-width="1.5" pointer-events="none"/>
  </g>
  <g id="zoomMin">
    <use xlink:href="#rim" fill="#404040"><set attributeName="fill" to="#808080" begin="zoomminus.mouseover" end="zoomminus.mouseout"/></use>
    <path d="M-4,0h8" fill="none" stroke="white" stroke-width="1.5" pointer-events="none"/>
  </g>
  <g id="arrowUp" transform="translate(30 24)">
    <use xlink:href="#rim"/>
    <path pointer-events="none" fill="none" stroke="white" stroke-width="1.5" d="M0,-3.0v7 M-2.5,-0.5L0,-3.0L2.5,-0.5"/>
  </g>
  <g id="arrowRight" transform="rotate(90) translate(36 -43)">
    <use xlink:href="#rim"/>
    <path pointer-events="none" fill="none" stroke="white" stroke-width="1.5" d="M0,-3.0v7 M-2.5,-0.5L0,-3.0L2.5,-0.5"/>
  </g>
  <g id="arrowDown" transform="rotate(180) translate(-30 -48)">
    <use xlink:href="#rim"/>
    <path pointer-events="none" fill="none" stroke="white" stroke-width="1.5" d="M0,-3.0v7 M-2.5,-0.5L0,-3.0L2.5,-0.5"/>
  </g>
  <g id="arrowLeft" transform="rotate(270) translate(-36 17)">
    <use xlink:href="#rim"/>
    <path pointer-events="none" fill="none" stroke="white" stroke-width="1.5" d="M0,-3.0v7 M-2.5,-0.5L0,-3.0L2.5,-0.5"/>
  </g>
  <g id="resetDef">
    <use xlink:href="#rim2" fill="#404040"><set attributeName="fill" to="#808080" begin="reset.mouseover" end="reset.mouseout"/></use>
  </g>
</defs>
<script type="application/ecmascript">
var viewWidth = 138;
var viewHeight = 463;
var sectionId = 'dynsection-0';
</script>
<script type="application/ecmascript" xlink:href="svg.min.js"/>
<svg id="graph" class="graph">
<g id="viewport">
<title>fcarouge::indexed::matrix&lt; Matrix, RowIndexes, ColumnIndexes &gt;</title>
<!-- Node1 -->
<g id="Node000001" class="node">
<title>Node1</title>
<g id="a_Node000001"><a xlink:title="Indexed matrix.">
<polygon fill="#999999" stroke="none" points="130.25,-346.75 0,-346.75 0,0 130.25,0 130.25,-346.75"/>
<text text-anchor="start" x="4" y="-333.25" font-family="Helvetica,sans-Serif" font-size="10.00">fcarouge::indexed::</text>
<text text-anchor="start" x="4" y="-322" font-family="Helvetica,sans-Serif" font-size="10.00">matrix&lt; Matrix, RowIndexes,</text>
<text text-anchor="start" x="26.5" y="-310.75" font-family="Helvetica,sans-Serif" font-size="10.00"> ColumnIndexes &gt;</text>
<text text-anchor="start" x="63.62" y="-295.5" font-family="Helvetica,sans-Serif" font-size="10.00"> </text>
<text text-anchor="start" x="20.25" y="-280.25" font-family="Helvetica,sans-Serif" font-size="10.00">+</text>
<text text-anchor="start" x="46.5" y="-280.25" font-family="Helvetica,sans-Serif" font-size="10.00">matrix()</text>
<text text-anchor="start" x="20.25" y="-265" font-family="Helvetica,sans-Serif" font-size="10.00">+</text>
<text text-anchor="start" x="46.5" y="-265" font-family="Helvetica,sans-Serif" font-size="10.00">matrix()</text>
<text text-anchor="start" x="20.25" y="-249.75" font-family="Helvetica,sans-Serif" font-size="10.00">+</text>
<text text-anchor="start" x="46.5" y="-249.75" font-family="Helvetica,sans-Serif" font-size="10.00">operator=()</text>
<text text-anchor="start" x="20.25" y="-234.5" font-family="Helvetica,sans-Serif" font-size="10.00">+</text>
<text text-anchor="start" x="46.5" y="-234.5" font-family="Helvetica,sans-Serif" font-size="10.00">matrix()</text>
<text text-anchor="start" x="20.25" y="-219.25" font-family="Helvetica,sans-Serif" font-size="10.00">+</text>
<text text-anchor="start" x="46.5" y="-219.25" font-family="Helvetica,sans-Serif" font-size="10.00">operator=()</text>
<text text-anchor="start" x="20.25" y="-204" font-family="Helvetica,sans-Serif" font-size="10.00">+</text>
<text text-anchor="start" x="46.5" y="-204" font-family="Helvetica,sans-Serif" font-size="10.00">matrix()</text>
<text text-anchor="start" x="20.25" y="-188.75" font-family="Helvetica,sans-Serif" font-size="10.00">+</text>
<text text-anchor="start" x="46.5" y="-188.75" font-family="Helvetica,sans-Serif" font-size="10.00">matrix()</text>
<text text-anchor="start" x="20.25" y="-173.5" font-family="Helvetica,sans-Serif" font-size="10.00">+</text>
<text text-anchor="start" x="46.5" y="-173.5" font-family="Helvetica,sans-Serif" font-size="10.00">matrix()</text>
<text text-anchor="start" x="20.25" y="-158.25" font-family="Helvetica,sans-Serif" font-size="10.00">+</text>
<text text-anchor="start" x="46.5" y="-158.25" font-family="Helvetica,sans-Serif" font-size="10.00">matrix()</text>
<text text-anchor="start" x="20.25" y="-143" font-family="Helvetica,sans-Serif" font-size="10.00">+</text>
<text text-anchor="start" x="46.5" y="-143" font-family="Helvetica,sans-Serif" font-size="10.00">matrix()</text>
<text text-anchor="start" x="20.25" y="-127.75" font-family="Helvetica,sans-Serif" font-size="10.00">+</text>
<text text-anchor="start" x="46.5" y="-127.75" font-family="Helvetica,sans-Serif" font-size="10.00">matrix()</text>
<text text-anchor="start" x="20.25" y="-112.5" font-family="Helvetica,sans-Serif" font-size="10.00">+</text>
<text text-anchor="start" x="46.5" y="-112.5" font-family="Helvetica,sans-Serif" font-size="10.00">matrix()</text>
<text text-anchor="start" x="20.25" y="-97.25" font-family="Helvetica,sans-Serif" font-size="10.00">+</text>
<text text-anchor="start" x="46.5" y="-97.25" font-family="Helvetica,sans-Serif" font-size="10.00">explicit()</text>
<text text-anchor="start" x="20.25" y="-82" font-family="Helvetica,sans-Serif" font-size="10.00">+</text>
<text text-anchor="start" x="46.5" y="-82" font-family="Helvetica,sans-Serif" font-size="10.00">operator[]()</text>
<text text-anchor="start" x="20.25" y="-66.75" font-family="Helvetica,sans-Serif" font-size="10.00">+</text>
<text text-anchor="start" x="46.5" y="-66.75" font-family="Helvetica,sans-Serif" font-size="10.00">operator[]()</text>
<text text-anchor="start" x="20.25" y="-51.5" font-family="Helvetica,sans-Serif" font-size="10.00">+</text>
<text text-anchor="start" x="46.5" y="-51.5" font-family="Helvetica,sans-Serif" font-size="10.00">operator()()</text>
<text text-anchor="start" x="20.25" y="-36.25" font-family="Helvetica,sans-Serif" font-size="10.00">+</text>
<text text-anchor="start" x="46.5" y="-36.25" font-family="Helvetica,sans-Serif" font-size="10.00">operator()()</text>
<text text-anchor="start" x="20.25" y="-21" font-family="Helvetica,sans-Serif" font-size="10.00">+</text>
<text text-anchor="start" x="46.5" y="-21" font-family="Helvetica,sans-Serif" font-size="10.00">at()</text>
<text text-anchor="start" x="20.25" y="-5.75" font-family="Helvetica,sans-Serif" font-size="10.00">+</text>
<text text-anchor="start" x="46.5" y="-5.75" font-family="Helvetica,sans-Serif" font-size="10.00">at()</text>
<polygon fill="#666666" stroke="#666666" points="0,-307 0,-307 130.25,-307 130.25,-307 0,-307"/>
<polygon fill="#666666" stroke="#666666" points="0,-291.75 0,-291.75 130.25,-291.75 130.25,-291.75 0,-291.75"/>
<polygon fill="none" stroke="#666666" points="0,0 0,-346.75 130.25,-346.75 130.25,0 0,0"/>
</a>
</g>
</g>
<!-- Node2 -->
<g id="Node000002" class="node">
<title>Node2</title>
<g id="a_Node000002"><a xlink:title=" ">
<polygon fill="white" stroke="none" points="47.88,-455 14.38,-455 14.38,-405.25 47.88,-405.25 47.88,-455"/>
<text text-anchor="start" x="18.38" y="-441.5" font-family="Helvetica,sans-Serif" font-size="10.00">size_t</text>
<text text-anchor="start" x="29.62" y="-426.25" font-family="Helvetica,sans-Serif" font-size="10.00"> </text>
<text text-anchor="start" x="29.62" y="-411" font-family="Helvetica,sans-Serif" font-size="10.00"> </text>
<polygon fill="#666666" stroke="#666666" points="14.38,-437.75 14.38,-437.75 47.88,-437.75 47.88,-437.75 14.38,-437.75"/>
<polygon fill="#666666" stroke="#666666" points="14.38,-422.5 14.38,-422.5 47.88,-422.5 47.88,-422.5 14.38,-422.5"/>
<polygon fill="none" stroke="#666666" points="14.38,-405.25 14.38,-455 47.88,-455 47.88,-405.25 14.38,-405.25"/>
</a>
</g>
</g>
<!-- Node2&#45;&gt;Node1 -->
<g id="edge1_Node000001_Node000002" class="edge">
<title>Node2&#45;&gt;Node1</title>
<g id="a_edge1_Node000001_Node000002"><a xlink:title=" ">
<path fill="none" stroke="#63b8ff" d="M30.61,-405.53C30.57,-393.33 30.86,-378.22 32.12,-364.75 32.29,-362.99 32.46,-361.22 32.64,-359.45"/>
<polygon fill="none" stroke="#63b8ff" points="32.63,-359.55 29.3,-353.16 33.93,-347.62 37.26,-354.02 32.63,-359.55"/>
</a>
</g>
<text text-anchor="middle" x="54.62" y="-377.75" font-family="Helvetica,sans-Serif" font-size="10.00" fill="grey"> +columns</text>
<text text-anchor="middle" x="54.62" y="-366.5" font-family="Helvetica,sans-Serif" font-size="10.00" fill="grey">+rows</text>
</g>
<!-- Node3 -->
<g id="Node000003" class="node">
<title>Node3</title>
<g id="a_Node000003"><a xlink:title=" ">
<polygon fill="white" stroke="none" points="116.25,-455 82,-455 82,-405.25 116.25,-405.25 116.25,-455"/>
<text text-anchor="start" x="86" y="-441.5" font-family="Helvetica,sans-Serif" font-size="10.00">Matrix</text>
<text text-anchor="start" x="97.62" y="-426.25" font-family="Helvetica,sans-Serif" font-size="10.00"> </text>
<text text-anchor="start" x="97.62" y="-411" font-family="Helvetica,sans-Serif" font-size="10.00"> </text>
<polygon fill="#666666" stroke="#666666" points="82,-437.75 82,-437.75 116.25,-437.75 116.25,-437.75 82,-437.75"/>
<polygon fill="#666666" stroke="#666666" points="82,-422.5 82,-422.5 116.25,-422.5 116.25,-422.5 82,-422.5"/>
<polygon fill="none" stroke="#666666" points="82,-405.25 82,-455 116.25,-455 116.25,-405.25 82,-405.25"/>
</a>
</g>
</g>
<!-- Node3&#45;&gt;Node1 -->
<g id="edge2_Node000001_Node000003" class="edge">
<title>Node3&#45;&gt;Node1</title>
<g id="a_edge2_Node000001_Node000003"><a xlink:title=" ">
<path fill="none" stroke="#63b8ff" d="M95.99,-405.62C94.36,-393.46 92.22,-377.39 89.82,-359.37"/>
<polygon fill="none" stroke="#63b8ff" points="89.82,-359.4 85.06,-353.98 88.23,-347.51 92.99,-352.92 89.82,-359.4"/>
</a>
</g>
<text text-anchor="middle" x="106.92" y="-372.12" font-family="Helvetica,sans-Serif" font-size="10.00" fill="grey"> +data</text>
</g>
</g>
</svg>

<g id="navigator" transform="translate(0 0)" fill="#404254">
  <rect fill="#f2f5e9" fill-opacity="0.5" stroke="#606060" stroke-width=".5" x="0" y="0" width="60" height="60"/>
  <use id="zoomplus" xlink:href="#zoomPlus" x="17" y="9" onmousedown="handleZoom(evt,'in')"/>
  <use id="zoomminus" xlink:href="#zoomMin" x="42" y="9" onmousedown="handleZoom(evt,'out')"/>
  <use id="reset" xlink:href="#resetDef" x="30" y="36" onmousedown="handleReset()"/>
   <use id="arrowup" xlink:href="#arrowUp" x="0" y="0" onmousedown="handlePan(0,-1)"/>
  <use id="arrowright" xlink:href="#arrowRight" x="0" y="0" onmousedown="handlePan(1,0)"/>
  <use id="arrowdown" xlink:href="#arrowDown" x="0" y="0" onmousedown="handlePan(0,1)"/>
  <use id="arrowleft" xlink:href="#arrowLeft" x="0" y="0" onmousedown="handlePan(-1,0)"/>
</g>
<svg viewBox="0 0 15 15" width="100%" height="30px" preserveAspectRatio="xMaxYMin meet">
 <g id="arrow_out" transform="scale(0.3 0.3)">
  <a xlink:href="structfcarouge_1_1indexed_1_1matrix__coll__graph_org.svg" target="_base">
   <rect id="button" ry="5" rx="5" y="6" x="6" height="38" width="38"
        fill="#f2f5e9" fill-opacity="0.5" stroke="#606060" stroke-width="1.0"/>
   <path id="arrow"
     d="M 11.500037,31.436501 C 11.940474,20.09759 22.043105,11.32322 32.158766,21.979434 L 37.068811,17.246167 C 37.068811,17.246167 37.088388,32 37.088388,32 L 22.160133,31.978069 C 22.160133,31.978069 26.997745,27.140456 26.997745,27.140456 C 18.528582,18.264221 13.291696,25.230495 11.500037,31.436501 z"
     style="fill:#404040;"/>
  </a>
 </g>
</svg>

<style type='text/css'>
<![CDATA[
[data-mouse-over-selected='false'] { opacity: 0.7; }
[data-mouse-over-selected='true']  { opacity: 1.0; }
]]>
</style>
<script type="application/ecmascript"><![CDATA[
document.addEventListener('DOMContentLoaded', (event) => {
  highlightEdges();
  highlightAdjacentNodes();
});
]]></script>
</svg>
