<?xml version="1.0" encoding="UTF-8" standalone="no"?>
<!DOCTYPE svg PUBLIC "-//W3C//DTD SVG 1.1//EN"
 "http://www.w3.org/Graphics/SVG/1.1/DTD/svg11.dtd">
<!-- Generated by graphviz version 12.2.0 (20241103.1931)
 -->
<!-- Title: fcarouge::matrix&lt; Type, Row, Column, Copyable &gt; Pages: 1 -->
<!--zoomable 543 -->

<svg id="main" version="1.1" xmlns="http://www.w3.org/2000/svg" xmlns:xlink="http://www.w3.org/1999/xlink" xml:space="preserve" onload="init(evt)">

<style type="text/css"><![CDATA[
.node, .edge {opacity: 0.7;}
.node.selected, .edge.selected {opacity: 1;}
.edge:hover path { stroke: red; }
.edge:hover polygon { stroke: red; fill: red; }
]]></style>

<defs>
  <circle id="rim" cx="0" cy="0" r="7"/>
  <circle id="rim2" cx="0" cy="0" r="3.5"/>
  <g id="zoomPlus">
    <use xlink:href="#rim" fill="#404040"><set attributeName="fill" to="#808080" begin="zoomplus.mouseover" end="zoomplus.mouseout"/></use>
    <path d="M-4,0h8M0,-4v8" fill="none" stroke="white" stroke-width="1.5" pointer-events="none"/>
  </g>
  <g id="zoomMin">
    <use xlink:href="#rim" fill="#404040"><set attributeName="fill" to="#808080" begin="zoomminus.mouseover" end="zoomminus.mouseout"/></use>
    <path d="M-4,0h8" fill="none" stroke="white" stroke-width="1.5" pointer-events="none"/>
  </g>
  <g id="arrowUp" transform="translate(30 24)">
    <use xlink:href="#rim"/>
    <path pointer-events="none" fill="none" stroke="white" stroke-width="1.5" d="M0,-3.0v7 M-2.5,-0.5L0,-3.0L2.5,-0.5"/>
  </g>
  <g id="arrowRight" transform="rotate(90) translate(36 -43)">
    <use xlink:href="#rim"/>
    <path pointer-events="none" fill="none" stroke="white" stroke-width="1.5" d="M0,-3.0v7 M-2.5,-0.5L0,-3.0L2.5,-0.5"/>
  </g>
  <g id="arrowDown" transform="rotate(180) translate(-30 -48)">
    <use xlink:href="#rim"/>
    <path pointer-events="none" fill="none" stroke="white" stroke-width="1.5" d="M0,-3.0v7 M-2.5,-0.5L0,-3.0L2.5,-0.5"/>
  </g>
  <g id="arrowLeft" transform="rotate(270) translate(-36 17)">
    <use xlink:href="#rim"/>
    <path pointer-events="none" fill="none" stroke="white" stroke-width="1.5" d="M0,-3.0v7 M-2.5,-0.5L0,-3.0L2.5,-0.5"/>
  </g>
  <g id="resetDef">
    <use xlink:href="#rim2" fill="#404040"><set attributeName="fill" to="#808080" begin="reset.mouseover" end="reset.mouseout"/></use>
  </g>
</defs>
<script type="application/ecmascript">
var viewWidth = 170;
var viewHeight = 543;
var sectionId = 'dynsection-0';
</script>
<script type="application/ecmascript" xlink:href="svg.min.js"/>
<svg id="graph" class="graph">
<g id="viewport">
<title>fcarouge::matrix&lt; Type, Row, Column, Copyable &gt;</title>
<!-- Node1 -->
<g id="Node000001" class="node">
<title>Node1</title>
<g id="a_Node000001"><a xlink:title="Coroutine lazy matrix.">
<polygon fill="#999999" stroke="none" points="130.62,-427 9.38,-427 9.38,0 130.62,0 130.62,-427"/>
<text text-anchor="start" x="13.38" y="-413.5" font-family="Helvetica,sans-Serif" font-size="10.00">fcarouge::matrix&lt; Type,</text>
<text text-anchor="start" x="13.38" y="-402.25" font-family="Helvetica,sans-Serif" font-size="10.00"> Row, Column, Copyable &gt;</text>
<text text-anchor="start" x="68.5" y="-387" font-family="Helvetica,sans-Serif" font-size="10.00"> </text>
<text text-anchor="start" x="27" y="-371.75" font-family="Helvetica,sans-Serif" font-size="10.00">+</text>
<text text-anchor="start" x="50.62" y="-371.75" font-family="Helvetica,sans-Serif" font-size="10.00">matrix()</text>
<text text-anchor="start" x="27" y="-356.5" font-family="Helvetica,sans-Serif" font-size="10.00">+</text>
<text text-anchor="start" x="50.62" y="-356.5" font-family="Helvetica,sans-Serif" font-size="10.00">matrix()</text>
<text text-anchor="start" x="27" y="-341.25" font-family="Helvetica,sans-Serif" font-size="10.00">+</text>
<text text-anchor="start" x="50.62" y="-341.25" font-family="Helvetica,sans-Serif" font-size="10.00">matrix()</text>
<text text-anchor="start" x="27" y="-326" font-family="Helvetica,sans-Serif" font-size="10.00">+</text>
<text text-anchor="start" x="50.62" y="-326" font-family="Helvetica,sans-Serif" font-size="10.00">operator=()</text>
<text text-anchor="start" x="27" y="-310.75" font-family="Helvetica,sans-Serif" font-size="10.00">+</text>
<text text-anchor="start" x="50.62" y="-310.75" font-family="Helvetica,sans-Serif" font-size="10.00">operator=()</text>
<text text-anchor="start" x="27" y="-295.5" font-family="Helvetica,sans-Serif" font-size="10.00">+</text>
<text text-anchor="start" x="50.62" y="-295.5" font-family="Helvetica,sans-Serif" font-size="10.00">matrix()</text>
<text text-anchor="start" x="27" y="-280.25" font-family="Helvetica,sans-Serif" font-size="10.00">+</text>
<text text-anchor="start" x="50.62" y="-280.25" font-family="Helvetica,sans-Serif" font-size="10.00">matrix()</text>
<text text-anchor="start" x="27" y="-265" font-family="Helvetica,sans-Serif" font-size="10.00">+</text>
<text text-anchor="start" x="50.62" y="-265" font-family="Helvetica,sans-Serif" font-size="10.00">operator=()</text>
<text text-anchor="start" x="27" y="-249.75" font-family="Helvetica,sans-Serif" font-size="10.00">+</text>
<text text-anchor="start" x="50.62" y="-249.75" font-family="Helvetica,sans-Serif" font-size="10.00">operator=()</text>
<text text-anchor="start" x="27" y="-234.5" font-family="Helvetica,sans-Serif" font-size="10.00">+</text>
<text text-anchor="start" x="50.62" y="-234.5" font-family="Helvetica,sans-Serif" font-size="10.00">matrix()</text>
<text text-anchor="start" x="27" y="-219.25" font-family="Helvetica,sans-Serif" font-size="10.00">+</text>
<text text-anchor="start" x="50.62" y="-219.25" font-family="Helvetica,sans-Serif" font-size="10.00">matrix()</text>
<text text-anchor="start" x="27" y="-204" font-family="Helvetica,sans-Serif" font-size="10.00">+</text>
<text text-anchor="start" x="50.62" y="-204" font-family="Helvetica,sans-Serif" font-size="10.00">matrix()</text>
<text text-anchor="start" x="27" y="-188.75" font-family="Helvetica,sans-Serif" font-size="10.00">+</text>
<text text-anchor="start" x="50.62" y="-188.75" font-family="Helvetica,sans-Serif" font-size="10.00">matrix()</text>
<text text-anchor="start" x="27" y="-173.5" font-family="Helvetica,sans-Serif" font-size="10.00">+</text>
<text text-anchor="start" x="50.62" y="-173.5" font-family="Helvetica,sans-Serif" font-size="10.00">matrix()</text>
<text text-anchor="start" x="27" y="-158.25" font-family="Helvetica,sans-Serif" font-size="10.00">+</text>
<text text-anchor="start" x="50.62" y="-158.25" font-family="Helvetica,sans-Serif" font-size="10.00">clone()</text>
<text text-anchor="start" x="27" y="-143" font-family="Helvetica,sans-Serif" font-size="10.00">+</text>
<text text-anchor="start" x="50.62" y="-143" font-family="Helvetica,sans-Serif" font-size="10.00">explicit()</text>
<text text-anchor="start" x="27" y="-127.75" font-family="Helvetica,sans-Serif" font-size="10.00">+</text>
<text text-anchor="start" x="50.62" y="-127.75" font-family="Helvetica,sans-Serif" font-size="10.00">!Copyable()</text>
<text text-anchor="start" x="27" y="-112.5" font-family="Helvetica,sans-Serif" font-size="10.00">+</text>
<text text-anchor="start" x="50.62" y="-112.5" font-family="Helvetica,sans-Serif" font-size="10.00">explicit()</text>
<text text-anchor="start" x="27" y="-97.25" font-family="Helvetica,sans-Serif" font-size="10.00">+</text>
<text text-anchor="start" x="50.62" y="-97.25" font-family="Helvetica,sans-Serif" font-size="10.00">explicit()</text>
<text text-anchor="start" x="27" y="-82" font-family="Helvetica,sans-Serif" font-size="10.00">+</text>
<text text-anchor="start" x="50.62" y="-82" font-family="Helvetica,sans-Serif" font-size="10.00">operator[]()</text>
<text text-anchor="start" x="27" y="-66.75" font-family="Helvetica,sans-Serif" font-size="10.00">+</text>
<text text-anchor="start" x="50.62" y="-66.75" font-family="Helvetica,sans-Serif" font-size="10.00">operator()()</text>
<text text-anchor="start" x="27" y="-51.5" font-family="Helvetica,sans-Serif" font-size="10.00">+</text>
<text text-anchor="start" x="50.62" y="-51.5" font-family="Helvetica,sans-Serif" font-size="10.00">operator()()</text>
<text text-anchor="start" x="27" y="-36.25" font-family="Helvetica,sans-Serif" font-size="10.00">+</text>
<text text-anchor="start" x="50.62" y="-36.25" font-family="Helvetica,sans-Serif" font-size="10.00">operator()()</text>
<text text-anchor="start" x="27" y="-21" font-family="Helvetica,sans-Serif" font-size="10.00">+</text>
<text text-anchor="start" x="50.62" y="-21" font-family="Helvetica,sans-Serif" font-size="10.00">begin()</text>
<text text-anchor="start" x="27" y="-5.75" font-family="Helvetica,sans-Serif" font-size="10.00">+</text>
<text text-anchor="start" x="50.62" y="-5.75" font-family="Helvetica,sans-Serif" font-size="10.00">end()</text>
<polygon fill="#666666" stroke="#666666" points="9.38,-398.5 9.38,-398.5 130.62,-398.5 130.62,-398.5 9.38,-398.5"/>
<polygon fill="#666666" stroke="#666666" points="9.38,-383.25 9.38,-383.25 130.62,-383.25 130.62,-383.25 9.38,-383.25"/>
<polygon fill="none" stroke="#666666" points="9.38,0 9.38,-427 130.62,-427 130.62,0 9.38,0"/>
</a>
</g>
</g>
<!-- Node2 -->
<g id="Node000002" class="node">
<title>Node2</title>
<g id="a_Node000002"><a xlink:title=" ">
<polygon fill="white" stroke="none" points="50,-535.25 0,-535.25 0,-485.5 50,-485.5 50,-535.25"/>
<text text-anchor="start" x="4" y="-521.75" font-family="Helvetica,sans-Serif" font-size="10.00">constexpr</text>
<text text-anchor="start" x="23.5" y="-506.5" font-family="Helvetica,sans-Serif" font-size="10.00"> </text>
<text text-anchor="start" x="23.5" y="-491.25" font-family="Helvetica,sans-Serif" font-size="10.00"> </text>
<polygon fill="#666666" stroke="#666666" points="0,-518 0,-518 50,-518 50,-518 0,-518"/>
<polygon fill="#666666" stroke="#666666" points="0,-502.75 0,-502.75 50,-502.75 50,-502.75 0,-502.75"/>
<polygon fill="none" stroke="#666666" points="0,-485.5 0,-535.25 50,-535.25 50,-485.5 0,-485.5"/>
</a>
</g>
</g>
<!-- Node2&#45;&gt;Node1 -->
<g id="edge1_Node000001_Node000002" class="edge">
<title>Node2&#45;&gt;Node1</title>
<g id="a_edge1_Node000001_Node000002"><a xlink:title=" ">
<path fill="none" stroke="#63b8ff" d="M28.61,-485.74C30.45,-473.69 32.88,-457.75 35.65,-439.62"/>
<polygon fill="none" stroke="#63b8ff" points="35.67,-439.49 32.62,-432.95 37.48,-427.63 40.52,-434.16 35.67,-439.49"/>
</a>
</g>
<text text-anchor="middle" x="55.34" y="-458" font-family="Helvetica,sans-Serif" font-size="10.00" fill="grey"> +Column</text>
<text text-anchor="middle" x="55.34" y="-446.75" font-family="Helvetica,sans-Serif" font-size="10.00" fill="grey">+Row</text>
</g>
<!-- Node3 -->
<g id="Node000003" class="node">
<title>Node3</title>
<g id="a_Node000003"><a xlink:title=" ">
<polygon fill="white" stroke="none" points="161.75,-535.25 68.25,-535.25 68.25,-485.5 161.75,-485.5 161.75,-535.25"/>
<text text-anchor="start" x="72.25" y="-521.75" font-family="Helvetica,sans-Serif" font-size="10.00">generator&lt; double &gt;</text>
<text text-anchor="start" x="113.5" y="-506.5" font-family="Helvetica,sans-Serif" font-size="10.00"> </text>
<text text-anchor="start" x="113.5" y="-491.25" font-family="Helvetica,sans-Serif" font-size="10.00"> </text>
<polygon fill="#666666" stroke="#666666" points="68.25,-518 68.25,-518 161.75,-518 161.75,-518 68.25,-518"/>
<polygon fill="#666666" stroke="#666666" points="68.25,-502.75 68.25,-502.75 161.75,-502.75 161.75,-502.75 68.25,-502.75"/>
<polygon fill="none" stroke="#666666" points="68.25,-485.5 68.25,-535.25 161.75,-535.25 161.75,-485.5 68.25,-485.5"/>
</a>
</g>
</g>
<!-- Node3&#45;&gt;Node1 -->
<g id="edge2_Node000001_Node000003" class="edge">
<title>Node3&#45;&gt;Node1</title>
<g id="a_edge2_Node000001_Node000003"><a xlink:title=" ">
<path fill="none" stroke="#63b8ff" d="M111.39,-485.74C109.55,-473.69 107.12,-457.75 104.35,-439.62"/>
<polygon fill="none" stroke="#63b8ff" points="104.33,-439.49 99.48,-434.16 102.52,-427.63 107.38,-432.95 104.33,-439.49"/>
</a>
</g>
<text text-anchor="middle" x="124.22" y="-452.38" font-family="Helvetica,sans-Serif" font-size="10.00" fill="grey"> +genie</text>
</g>
</g>
</svg>

<g id="navigator" transform="translate(0 0)" fill="#404254">
  <rect fill="#f2f5e9" fill-opacity="0.5" stroke="#606060" stroke-width=".5" x="0" y="0" width="60" height="60"/>
  <use id="zoomplus" xlink:href="#zoomPlus" x="17" y="9" onmousedown="handleZoom(evt,'in')"/>
  <use id="zoomminus" xlink:href="#zoomMin" x="42" y="9" onmousedown="handleZoom(evt,'out')"/>
  <use id="reset" xlink:href="#resetDef" x="30" y="36" onmousedown="handleReset()"/>
   <use id="arrowup" xlink:href="#arrowUp" x="0" y="0" onmousedown="handlePan(0,-1)"/>
  <use id="arrowright" xlink:href="#arrowRight" x="0" y="0" onmousedown="handlePan(1,0)"/>
  <use id="arrowdown" xlink:href="#arrowDown" x="0" y="0" onmousedown="handlePan(0,1)"/>
  <use id="arrowleft" xlink:href="#arrowLeft" x="0" y="0" onmousedown="handlePan(-1,0)"/>
</g>
<svg viewBox="0 0 15 15" width="100%" height="30px" preserveAspectRatio="xMaxYMin meet">
 <g id="arrow_out" transform="scale(0.3 0.3)">
  <a xlink:href="structfcarouge_1_1matrix__coll__graph_org.svg" target="_base">
   <rect id="button" ry="5" rx="5" y="6" x="6" height="38" width="38"
        fill="#f2f5e9" fill-opacity="0.5" stroke="#606060" stroke-width="1.0"/>
   <path id="arrow"
     d="M 11.500037,31.436501 C 11.940474,20.09759 22.043105,11.32322 32.158766,21.979434 L 37.068811,17.246167 C 37.068811,17.246167 37.088388,32 37.088388,32 L 22.160133,31.978069 C 22.160133,31.978069 26.997745,27.140456 26.997745,27.140456 C 18.528582,18.264221 13.291696,25.230495 11.500037,31.436501 z"
     style="fill:#404040;"/>
  </a>
 </g>
</svg>

<style type='text/css'>
<![CDATA[
[data-mouse-over-selected='false'] { opacity: 0.7; }
[data-mouse-over-selected='true']  { opacity: 1.0; }
]]>
</style>
<script type="application/ecmascript"><![CDATA[
document.addEventListener('DOMContentLoaded', (event) => {
  highlightEdges();
  highlightAdjacentNodes();
});
]]></script>
</svg>
