<?xml version="1.0" encoding="UTF-8" standalone="no"?>
<!DOCTYPE svg PUBLIC "-//W3C//DTD SVG 1.1//EN"
 "http://www.w3.org/Graphics/SVG/1.1/DTD/svg11.dtd">
<!-- Generated by graphviz version 2.49.3 (20211027.1534)
 -->
<!-- Title: fcarouge::internal::kalman&lt; State, Output, Input, Transpose, Symmetrize, Divide, Identity, Multiply, PredictionArguments &gt; Pages: 1 -->
<svg width="1064pt" height="512pt"
 viewBox="0.00 0.00 1064.00 512.00" xmlns="http://www.w3.org/2000/svg" xmlns:xlink="http://www.w3.org/1999/xlink">
<g id="graph0" class="graph" transform="scale(1 1) rotate(0) translate(4 508)">
<title>fcarouge::internal::kalman&lt; State, Output, Input, Transpose, Symmetrize, Divide, Identity, Multiply, PredictionArguments &gt;</title>
<polygon fill="white" stroke="transparent" points="-4,4 -4,-508 1060,-508 1060,4 -4,4"/>
<!-- Node1 -->
<g id="node1" class="node">
<title>Node1</title>
<g id="a_node1"><a xlink:title=" ">
<polygon fill="#bfbfbf" stroke="black" points="518.5,-0.5 518.5,-288.5 669.5,-288.5 669.5,-0.5 518.5,-0.5"/>
<text text-anchor="start" x="526.5" y="-276.5" font-family="Helvetica,sans-Serif" font-size="10.00">fcarouge::internal</text>
<text text-anchor="start" x="526.5" y="-265.5" font-family="Helvetica,sans-Serif" font-size="10.00">::kalman&lt; State, Output,</text>
<text text-anchor="start" x="526.5" y="-254.5" font-family="Helvetica,sans-Serif" font-size="10.00"> Input, Transpose, Symmetrize,</text>
<text text-anchor="start" x="526.5" y="-243.5" font-family="Helvetica,sans-Serif" font-size="10.00"> Divide, Identity, Multiply,</text>
<text text-anchor="middle" x="594" y="-232.5" font-family="Helvetica,sans-Serif" font-size="10.00"> PredictionArguments &gt;</text>
<polyline fill="none" stroke="black" points="518.5,-225.5 669.5,-225.5 "/>
<text text-anchor="middle" x="594" y="-213.5" font-family="Helvetica,sans-Serif" font-size="10.00"> </text>
<polyline fill="none" stroke="black" points="518.5,-206.5 669.5,-206.5 "/>
<text text-anchor="start" x="526.5" y="-194.5" font-family="Helvetica,sans-Serif" font-size="10.00">+ update()</text>
<text text-anchor="start" x="526.5" y="-183.5" font-family="Helvetica,sans-Serif" font-size="10.00">+ predict()</text>
<text text-anchor="start" x="526.5" y="-172.5" font-family="Helvetica,sans-Serif" font-size="10.00">+ predict()</text>
<text text-anchor="start" x="526.5" y="-161.5" font-family="Helvetica,sans-Serif" font-size="10.00">* state</text>
<text text-anchor="start" x="526.5" y="-150.5" font-family="Helvetica,sans-Serif" font-size="10.00">* output</text>
<text text-anchor="start" x="526.5" y="-139.5" font-family="Helvetica,sans-Serif" font-size="10.00">* input</text>
<text text-anchor="start" x="526.5" y="-128.5" font-family="Helvetica,sans-Serif" font-size="10.00">* estimate_uncertainty</text>
<text text-anchor="start" x="526.5" y="-117.5" font-family="Helvetica,sans-Serif" font-size="10.00">* process_uncertainty</text>
<text text-anchor="start" x="526.5" y="-106.5" font-family="Helvetica,sans-Serif" font-size="10.00">* output_uncertainty</text>
<text text-anchor="start" x="526.5" y="-95.5" font-family="Helvetica,sans-Serif" font-size="10.00">* state_transition</text>
<text text-anchor="start" x="526.5" y="-84.5" font-family="Helvetica,sans-Serif" font-size="10.00">* output_model</text>
<text text-anchor="start" x="526.5" y="-73.5" font-family="Helvetica,sans-Serif" font-size="10.00">* input_control</text>
<text text-anchor="start" x="526.5" y="-62.5" font-family="Helvetica,sans-Serif" font-size="10.00">* innovation</text>
<text text-anchor="start" x="526.5" y="-51.5" font-family="Helvetica,sans-Serif" font-size="10.00">* innovation_uncertainty</text>
<text text-anchor="start" x="526.5" y="-40.5" font-family="Helvetica,sans-Serif" font-size="10.00">* gain</text>
<text text-anchor="start" x="526.5" y="-29.5" font-family="Helvetica,sans-Serif" font-size="10.00">* update()</text>
<text text-anchor="start" x="526.5" y="-18.5" font-family="Helvetica,sans-Serif" font-size="10.00">* predict()</text>
<text text-anchor="start" x="526.5" y="-7.5" font-family="Helvetica,sans-Serif" font-size="10.00">* predict()</text>
</a>
</g>
</g>
<!-- Node2 -->
<g id="node2" class="node">
<title>Node2</title>
<g id="a_node2"><a xlink:title=" ">
<polygon fill="white" stroke="#bfbfbf" points="0,-441 0,-498 40,-498 40,-441 0,-441"/>
<text text-anchor="middle" x="20" y="-486" font-family="Helvetica,sans-Serif" font-size="10.00">State</text>
<polyline fill="none" stroke="#bfbfbf" points="0,-479 40,-479 "/>
<text text-anchor="middle" x="20" y="-467" font-family="Helvetica,sans-Serif" font-size="10.00"> </text>
<polyline fill="none" stroke="#bfbfbf" points="0,-460 40,-460 "/>
<text text-anchor="middle" x="20" y="-448" font-family="Helvetica,sans-Serif" font-size="10.00"> </text>
</a>
</g>
</g>
<!-- Node2&#45;&gt;Node1 -->
<g id="edge1" class="edge">
<title>Node2&#45;&gt;Node1</title>
<path fill="none" stroke="#404040" d="M36.31,-440.97C58.68,-405.39 102.07,-343.68 154,-307 262.99,-230.01 412.89,-185.39 506.57,-163.26"/>
<polygon fill="none" stroke="#404040" points="506.59,-163.25 511.53,-158 518.28,-160.54 513.34,-165.79 506.59,-163.25"/>
<text text-anchor="middle" x="160.5" y="-359.5" font-family="Helvetica,sans-Serif" font-size="10.00"> +x</text>
</g>
<!-- Node3 -->
<g id="node3" class="node">
<title>Node3</title>
<g id="a_node3"><a xlink:title=" ">
<polygon fill="white" stroke="#bfbfbf" points="58.5,-435.5 58.5,-503.5 179.5,-503.5 179.5,-435.5 58.5,-435.5"/>
<text text-anchor="start" x="66.5" y="-491.5" font-family="Helvetica,sans-Serif" font-size="10.00">invoke_result_t&lt; Divide,</text>
<text text-anchor="middle" x="119" y="-480.5" font-family="Helvetica,sans-Serif" font-size="10.00"> State, State &gt;</text>
<polyline fill="none" stroke="#bfbfbf" points="58.5,-473.5 179.5,-473.5 "/>
<text text-anchor="middle" x="119" y="-461.5" font-family="Helvetica,sans-Serif" font-size="10.00"> </text>
<polyline fill="none" stroke="#bfbfbf" points="58.5,-454.5 179.5,-454.5 "/>
<text text-anchor="middle" x="119" y="-442.5" font-family="Helvetica,sans-Serif" font-size="10.00"> </text>
</a>
</g>
</g>
<!-- Node3&#45;&gt;Node1 -->
<g id="edge2" class="edge">
<title>Node3&#45;&gt;Node1</title>
<path fill="none" stroke="#404040" d="M150.09,-435.22C183.54,-400.57 239.31,-346.01 294,-307 361.69,-258.72 445.49,-214.77 507.3,-184.95"/>
<polygon fill="none" stroke="#404040" points="507.37,-184.92 511.05,-178.72 518.19,-179.73 514.51,-185.93 507.37,-184.92"/>
<text text-anchor="middle" x="300" y="-370.5" font-family="Helvetica,sans-Serif" font-size="10.00"> +f</text>
<text text-anchor="middle" x="300" y="-359.5" font-family="Helvetica,sans-Serif" font-size="10.00">+p</text>
<text text-anchor="middle" x="300" y="-348.5" font-family="Helvetica,sans-Serif" font-size="10.00">+q</text>
</g>
<!-- Node4 -->
<g id="node4" class="node">
<title>Node4</title>
<g id="a_node4"><a xlink:title=" ">
<polygon fill="white" stroke="#bfbfbf" points="197.5,-435.5 197.5,-503.5 318.5,-503.5 318.5,-435.5 197.5,-435.5"/>
<text text-anchor="start" x="205.5" y="-491.5" font-family="Helvetica,sans-Serif" font-size="10.00">invoke_result_t&lt; Divide,</text>
<text text-anchor="middle" x="258" y="-480.5" font-family="Helvetica,sans-Serif" font-size="10.00"> Output, Output &gt;</text>
<polyline fill="none" stroke="#bfbfbf" points="197.5,-473.5 318.5,-473.5 "/>
<text text-anchor="middle" x="258" y="-461.5" font-family="Helvetica,sans-Serif" font-size="10.00"> </text>
<polyline fill="none" stroke="#bfbfbf" points="197.5,-454.5 318.5,-454.5 "/>
<text text-anchor="middle" x="258" y="-442.5" font-family="Helvetica,sans-Serif" font-size="10.00"> </text>
</a>
</g>
</g>
<!-- Node4&#45;&gt;Node1 -->
<g id="edge3" class="edge">
<title>Node4&#45;&gt;Node1</title>
<path fill="none" stroke="#404040" d="M288.7,-435.35C319.69,-402.22 369.23,-350.15 414,-307 444.41,-277.69 478.71,-246.48 509.15,-219.39"/>
<polygon fill="none" stroke="#404040" points="509.5,-219.08 511.33,-212.11 518.47,-211.12 516.64,-218.09 509.5,-219.08"/>
<text text-anchor="middle" x="420" y="-359.5" font-family="Helvetica,sans-Serif" font-size="10.00"> +r</text>
</g>
<!-- Node5 -->
<g id="node5" class="node">
<title>Node5</title>
<g id="a_node5"><a xlink:title=" ">
<polygon fill="white" stroke="#bfbfbf" points="336.5,-435.5 336.5,-503.5 457.5,-503.5 457.5,-435.5 336.5,-435.5"/>
<text text-anchor="start" x="344.5" y="-491.5" font-family="Helvetica,sans-Serif" font-size="10.00">invoke_result_t&lt; Divide,</text>
<text text-anchor="middle" x="397" y="-480.5" font-family="Helvetica,sans-Serif" font-size="10.00"> Output, State &gt;</text>
<polyline fill="none" stroke="#bfbfbf" points="336.5,-473.5 457.5,-473.5 "/>
<text text-anchor="middle" x="397" y="-461.5" font-family="Helvetica,sans-Serif" font-size="10.00"> </text>
<polyline fill="none" stroke="#bfbfbf" points="336.5,-454.5 457.5,-454.5 "/>
<text text-anchor="middle" x="397" y="-442.5" font-family="Helvetica,sans-Serif" font-size="10.00"> </text>
</a>
</g>
</g>
<!-- Node5&#45;&gt;Node1 -->
<g id="edge4" class="edge">
<title>Node5&#45;&gt;Node1</title>
<path fill="none" stroke="#404040" d="M417.16,-435.45C439.54,-398.75 477.13,-337.13 511.9,-280.11"/>
<polygon fill="none" stroke="#404040" points="512.11,-279.77 511.82,-272.56 518.36,-269.52 518.65,-276.73 512.11,-279.77"/>
<text text-anchor="middle" x="502" y="-359.5" font-family="Helvetica,sans-Serif" font-size="10.00"> +h</text>
</g>
<!-- Node6 -->
<g id="node6" class="node">
<title>Node6</title>
<g id="a_node6"><a xlink:title=" ">
<polygon fill="white" stroke="#bfbfbf" points="475.5,-435.5 475.5,-503.5 596.5,-503.5 596.5,-435.5 475.5,-435.5"/>
<text text-anchor="start" x="483.5" y="-491.5" font-family="Helvetica,sans-Serif" font-size="10.00">invoke_result_t&lt; Divide,</text>
<text text-anchor="middle" x="536" y="-480.5" font-family="Helvetica,sans-Serif" font-size="10.00"> State, Input &gt;</text>
<polyline fill="none" stroke="#bfbfbf" points="475.5,-473.5 596.5,-473.5 "/>
<text text-anchor="middle" x="536" y="-461.5" font-family="Helvetica,sans-Serif" font-size="10.00"> </text>
<polyline fill="none" stroke="#bfbfbf" points="475.5,-454.5 596.5,-454.5 "/>
<text text-anchor="middle" x="536" y="-442.5" font-family="Helvetica,sans-Serif" font-size="10.00"> </text>
</a>
</g>
</g>
<!-- Node6&#45;&gt;Node1 -->
<g id="edge5" class="edge">
<title>Node6&#45;&gt;Node1</title>
<path fill="none" stroke="#404040" d="M539.38,-435.26C542.93,-402.51 549.1,-351.11 557,-307 557.37,-304.96 557.74,-302.9 558.12,-300.83"/>
<polygon fill="none" stroke="#404040" points="558.15,-300.67 555.35,-294.03 560.4,-288.89 563.21,-295.53 558.15,-300.67"/>
<text text-anchor="middle" x="564" y="-359.5" font-family="Helvetica,sans-Serif" font-size="10.00"> +g</text>
</g>
<!-- Node7 -->
<g id="node7" class="node">
<title>Node7</title>
<g id="a_node7"><a xlink:title=" ">
<polygon fill="white" stroke="#bfbfbf" points="614.5,-441 614.5,-498 671.5,-498 671.5,-441 614.5,-441"/>
<text text-anchor="middle" x="643" y="-486" font-family="Helvetica,sans-Serif" font-size="10.00">function&lt;</text>
<polyline fill="none" stroke="#bfbfbf" points="614.5,-479 671.5,-479 "/>
<text text-anchor="middle" x="643" y="-467" font-family="Helvetica,sans-Serif" font-size="10.00"> </text>
<polyline fill="none" stroke="#bfbfbf" points="614.5,-460 671.5,-460 "/>
<text text-anchor="middle" x="643" y="-448" font-family="Helvetica,sans-Serif" font-size="10.00"> </text>
</a>
</g>
</g>
<!-- Node7&#45;&gt;Node1 -->
<g id="edge6" class="edge">
<title>Node7&#45;&gt;Node1</title>
<path fill="none" stroke="#404040" d="M614.28,-441.3C605.38,-432.15 597.29,-422.8 595,-417 580.69,-380.86 575.5,-339.83 575.03,-300.81"/>
<polygon fill="none" stroke="#404040" points="575.03,-300.77 571.03,-294.77 575.03,-288.77 579.03,-294.77 575.03,-300.77"/>
<text text-anchor="start" x="595" y="-409" font-family="Helvetica,sans-Serif" font-size="10.00"> +noise_observation</text>
<text text-anchor="middle" x="646" y="-398" font-family="Helvetica,sans-Serif" font-size="10.00">_r</text>
<text text-anchor="start" x="595" y="-387" font-family="Helvetica,sans-Serif" font-size="10.00">+noise_process</text>
<text text-anchor="middle" x="646" y="-376" font-family="Helvetica,sans-Serif" font-size="10.00">_q</text>
<text text-anchor="middle" x="646" y="-365" font-family="Helvetica,sans-Serif" font-size="10.00">+predict_state</text>
<text text-anchor="start" x="595" y="-354" font-family="Helvetica,sans-Serif" font-size="10.00">+transition_control</text>
<text text-anchor="middle" x="646" y="-343" font-family="Helvetica,sans-Serif" font-size="10.00">_g</text>
<text text-anchor="start" x="595" y="-332" font-family="Helvetica,sans-Serif" font-size="10.00">+transition_observation</text>
<text text-anchor="middle" x="646" y="-321" font-family="Helvetica,sans-Serif" font-size="10.00">_h</text>
<text text-anchor="middle" x="646" y="-310" font-family="Helvetica,sans-Serif" font-size="10.00">+transition_state_f</text>
</g>
<!-- Node8 -->
<g id="node8" class="node">
<title>Node8</title>
<g id="a_node8"><a xlink:title=" ">
<polygon fill="white" stroke="#bfbfbf" points="690,-441 690,-498 752,-498 752,-441 690,-441"/>
<text text-anchor="middle" x="721" y="-486" font-family="Helvetica,sans-Serif" font-size="10.00">Transpose</text>
<polyline fill="none" stroke="#bfbfbf" points="690,-479 752,-479 "/>
<text text-anchor="middle" x="721" y="-467" font-family="Helvetica,sans-Serif" font-size="10.00"> </text>
<polyline fill="none" stroke="#bfbfbf" points="690,-460 752,-460 "/>
<text text-anchor="middle" x="721" y="-448" font-family="Helvetica,sans-Serif" font-size="10.00"> </text>
</a>
</g>
</g>
<!-- Node8&#45;&gt;Node1 -->
<g id="edge7" class="edge">
<title>Node8&#45;&gt;Node1</title>
<path fill="none" stroke="#404040" d="M720.38,-440.77C718.86,-407.88 713.77,-351.87 697,-307 691.24,-291.58 683.86,-276.09 675.69,-261.13"/>
<polygon fill="none" stroke="#404040" points="675.51,-260.8 669.08,-257.53 669.62,-250.34 676.05,-253.61 675.51,-260.8"/>
<text text-anchor="middle" x="744" y="-359.5" font-family="Helvetica,sans-Serif" font-size="10.00"> +transpose</text>
</g>
<!-- Node9 -->
<g id="node9" class="node">
<title>Node9</title>
<g id="a_node9"><a xlink:title=" ">
<polygon fill="white" stroke="#bfbfbf" points="770,-441 770,-498 814,-498 814,-441 770,-441"/>
<text text-anchor="middle" x="792" y="-486" font-family="Helvetica,sans-Serif" font-size="10.00">Divide</text>
<polyline fill="none" stroke="#bfbfbf" points="770,-479 814,-479 "/>
<text text-anchor="middle" x="792" y="-467" font-family="Helvetica,sans-Serif" font-size="10.00"> </text>
<polyline fill="none" stroke="#bfbfbf" points="770,-460 814,-460 "/>
<text text-anchor="middle" x="792" y="-448" font-family="Helvetica,sans-Serif" font-size="10.00"> </text>
</a>
</g>
</g>
<!-- Node9&#45;&gt;Node1 -->
<g id="edge8" class="edge">
<title>Node9&#45;&gt;Node1</title>
<path fill="none" stroke="#404040" d="M794.22,-440.8C795.69,-407.2 794.18,-349.76 772,-307 750.48,-265.53 713.74,-229.44 679.2,-201.96"/>
<polygon fill="none" stroke="#404040" points="679,-201.8 671.81,-201.28 669.53,-194.43 676.72,-194.96 679,-201.8"/>
<text text-anchor="middle" x="811" y="-359.5" font-family="Helvetica,sans-Serif" font-size="10.00"> +divide</text>
</g>
<!-- Node10 -->
<g id="node10" class="node">
<title>Node10</title>
<g id="a_node10"><a xlink:title=" ">
<polygon fill="white" stroke="#bfbfbf" points="832,-441 832,-498 900,-498 900,-441 832,-441"/>
<text text-anchor="middle" x="866" y="-486" font-family="Helvetica,sans-Serif" font-size="10.00">Symmetrize</text>
<polyline fill="none" stroke="#bfbfbf" points="832,-479 900,-479 "/>
<text text-anchor="middle" x="866" y="-467" font-family="Helvetica,sans-Serif" font-size="10.00"> </text>
<polyline fill="none" stroke="#bfbfbf" points="832,-460 900,-460 "/>
<text text-anchor="middle" x="866" y="-448" font-family="Helvetica,sans-Serif" font-size="10.00"> </text>
</a>
</g>
</g>
<!-- Node10&#45;&gt;Node1 -->
<g id="edge9" class="edge">
<title>Node10&#45;&gt;Node1</title>
<path fill="none" stroke="#404040" d="M862.72,-440.91C857.52,-400.75 846.49,-328.59 832,-307 795.05,-251.94 732.38,-210.54 680.63,-183.45"/>
<polygon fill="none" stroke="#404040" points="680.45,-183.36 673.28,-184.18 669.77,-177.89 676.93,-177.06 680.45,-183.36"/>
<text text-anchor="middle" x="888" y="-359.5" font-family="Helvetica,sans-Serif" font-size="10.00"> +symmetrize</text>
</g>
<!-- Node11 -->
<g id="node11" class="node">
<title>Node11</title>
<g id="a_node11"><a xlink:title=" ">
<polygon fill="white" stroke="#bfbfbf" points="918,-441 918,-498 966,-498 966,-441 918,-441"/>
<text text-anchor="middle" x="942" y="-486" font-family="Helvetica,sans-Serif" font-size="10.00">Identity</text>
<polyline fill="none" stroke="#bfbfbf" points="918,-479 966,-479 "/>
<text text-anchor="middle" x="942" y="-467" font-family="Helvetica,sans-Serif" font-size="10.00"> </text>
<polyline fill="none" stroke="#bfbfbf" points="918,-460 966,-460 "/>
<text text-anchor="middle" x="942" y="-448" font-family="Helvetica,sans-Serif" font-size="10.00"> </text>
</a>
</g>
</g>
<!-- Node11&#45;&gt;Node1 -->
<g id="edge10" class="edge">
<title>Node11&#45;&gt;Node1</title>
<path fill="none" stroke="#404040" d="M945.6,-440.81C948.57,-406.19 948.49,-346.64 920,-307 863.41,-228.25 757.44,-185.87 681.67,-164.56"/>
<polygon fill="none" stroke="#404040" points="681.36,-164.47 674.52,-166.75 669.78,-161.32 676.62,-159.04 681.36,-164.47"/>
<text text-anchor="middle" x="966" y="-359.5" font-family="Helvetica,sans-Serif" font-size="10.00"> +identity</text>
</g>
<!-- Node12 -->
<g id="node12" class="node">
<title>Node12</title>
<g id="a_node12"><a xlink:title=" ">
<polygon fill="white" stroke="#bfbfbf" points="984,-441 984,-498 1034,-498 1034,-441 984,-441"/>
<text text-anchor="middle" x="1009" y="-486" font-family="Helvetica,sans-Serif" font-size="10.00">Multiply</text>
<polyline fill="none" stroke="#bfbfbf" points="984,-479 1034,-479 "/>
<text text-anchor="middle" x="1009" y="-467" font-family="Helvetica,sans-Serif" font-size="10.00"> </text>
<polyline fill="none" stroke="#bfbfbf" points="984,-460 1034,-460 "/>
<text text-anchor="middle" x="1009" y="-448" font-family="Helvetica,sans-Serif" font-size="10.00"> </text>
</a>
</g>
</g>
<!-- Node12&#45;&gt;Node1 -->
<g id="edge11" class="edge">
<title>Node12&#45;&gt;Node1</title>
<path fill="none" stroke="#404040" d="M1013,-440.79C1016.46,-405.87 1016.94,-345.73 987,-307 913.16,-211.5 773.12,-172.1 681.7,-156.1"/>
<polygon fill="none" stroke="#404040" points="681.52,-156.07 674.95,-159.02 669.69,-154.09 676.27,-151.13 681.52,-156.07"/>
<text text-anchor="middle" x="1035" y="-359.5" font-family="Helvetica,sans-Serif" font-size="10.00"> +multiply</text>
</g>
</g>
</svg>
