<?xml version="1.0" encoding="UTF-8" standalone="no"?>
<!DOCTYPE svg PUBLIC "-//W3C//DTD SVG 1.1//EN"
 "http://www.w3.org/Graphics/SVG/1.1/DTD/svg11.dtd">
<!-- Generated by graphviz version 3.0.0 (20221109.1736)
 -->
<!-- Title: fcarouge::matrix&lt; Type, Row, Column, Copyable &gt; Pages: 1 -->
<svg width="251pt" height="622pt"
 viewBox="0.00 0.00 251.00 622.00" xmlns="http://www.w3.org/2000/svg" xmlns:xlink="http://www.w3.org/1999/xlink">
<g id="graph0" class="graph" transform="scale(1 1) rotate(0) translate(4 618)">
<title>fcarouge::matrix&lt; Type, Row, Column, Copyable &gt;</title>
<polygon fill="white" stroke="transparent" points="-4,4 -4,-618 247,-618 247,4 -4,4"/>
<!-- Node1 -->
<g id="node1" class="node">
<title>Node1</title>
<g id="a_node1"><a xlink:title=" ">
<polygon fill="#bfbfbf" stroke="black" points="63.5,-0.5 63.5,-497.5 193.5,-497.5 193.5,-0.5 63.5,-0.5"/>
<text text-anchor="start" x="71.5" y="-485.5" font-family="Helvetica,sans-Serif" font-size="10.00">fcarouge::matrix&lt; Type,</text>
<text text-anchor="middle" x="128.5" y="-474.5" font-family="Helvetica,sans-Serif" font-size="10.00"> Row, Column, Copyable &gt;</text>
<polyline fill="none" stroke="black" points="63.5,-467.5 193.5,-467.5 "/>
<text text-anchor="middle" x="128.5" y="-455.5" font-family="Helvetica,sans-Serif" font-size="10.00"> </text>
<polyline fill="none" stroke="black" points="63.5,-448.5 193.5,-448.5 "/>
<text text-anchor="start" x="71.5" y="-436.5" font-family="Helvetica,sans-Serif" font-size="10.00">+ matrix()</text>
<text text-anchor="start" x="71.5" y="-425.5" font-family="Helvetica,sans-Serif" font-size="10.00">+ matrix()</text>
<text text-anchor="start" x="71.5" y="-414.5" font-family="Helvetica,sans-Serif" font-size="10.00">+ matrix()</text>
<text text-anchor="start" x="71.5" y="-403.5" font-family="Helvetica,sans-Serif" font-size="10.00">+ operator=()</text>
<text text-anchor="start" x="71.5" y="-392.5" font-family="Helvetica,sans-Serif" font-size="10.00">+ operator=()</text>
<text text-anchor="start" x="71.5" y="-381.5" font-family="Helvetica,sans-Serif" font-size="10.00">+ matrix()</text>
<text text-anchor="start" x="71.5" y="-370.5" font-family="Helvetica,sans-Serif" font-size="10.00">+ matrix()</text>
<text text-anchor="start" x="71.5" y="-359.5" font-family="Helvetica,sans-Serif" font-size="10.00">+ operator=()</text>
<text text-anchor="start" x="71.5" y="-348.5" font-family="Helvetica,sans-Serif" font-size="10.00">+ operator=()</text>
<text text-anchor="start" x="71.5" y="-337.5" font-family="Helvetica,sans-Serif" font-size="10.00">+ matrix()</text>
<text text-anchor="start" x="71.5" y="-326.5" font-family="Helvetica,sans-Serif" font-size="10.00">+ matrix()</text>
<text text-anchor="start" x="71.5" y="-315.5" font-family="Helvetica,sans-Serif" font-size="10.00">+ matrix()</text>
<text text-anchor="start" x="71.5" y="-304.5" font-family="Helvetica,sans-Serif" font-size="10.00">+ matrix()</text>
<text text-anchor="start" x="71.5" y="-293.5" font-family="Helvetica,sans-Serif" font-size="10.00">+ matrix()</text>
<text text-anchor="start" x="71.5" y="-282.5" font-family="Helvetica,sans-Serif" font-size="10.00">+ clone()</text>
<text text-anchor="start" x="71.5" y="-271.5" font-family="Helvetica,sans-Serif" font-size="10.00">+ explicit()</text>
<text text-anchor="start" x="71.5" y="-260.5" font-family="Helvetica,sans-Serif" font-size="10.00">+ !Copyable()</text>
<text text-anchor="start" x="71.5" y="-249.5" font-family="Helvetica,sans-Serif" font-size="10.00">+ explicit()</text>
<text text-anchor="start" x="71.5" y="-238.5" font-family="Helvetica,sans-Serif" font-size="10.00">+ explicit()</text>
<text text-anchor="start" x="71.5" y="-227.5" font-family="Helvetica,sans-Serif" font-size="10.00">+ operator[]()</text>
<text text-anchor="start" x="71.5" y="-216.5" font-family="Helvetica,sans-Serif" font-size="10.00">+ operator()()</text>
<text text-anchor="start" x="71.5" y="-205.5" font-family="Helvetica,sans-Serif" font-size="10.00">+ operator()()</text>
<text text-anchor="start" x="71.5" y="-194.5" font-family="Helvetica,sans-Serif" font-size="10.00">+ operator()()</text>
<text text-anchor="start" x="71.5" y="-183.5" font-family="Helvetica,sans-Serif" font-size="10.00">+ begin()</text>
<text text-anchor="start" x="71.5" y="-172.5" font-family="Helvetica,sans-Serif" font-size="10.00">+ end()</text>
<text text-anchor="start" x="71.5" y="-161.5" font-family="Helvetica,sans-Serif" font-size="10.00">+ matrix()</text>
<text text-anchor="start" x="71.5" y="-150.5" font-family="Helvetica,sans-Serif" font-size="10.00">+ explicit()</text>
<text text-anchor="start" x="71.5" y="-139.5" font-family="Helvetica,sans-Serif" font-size="10.00">+ matrix()</text>
<text text-anchor="start" x="71.5" y="-128.5" font-family="Helvetica,sans-Serif" font-size="10.00">+ matrix()</text>
<text text-anchor="start" x="71.5" y="-117.5" font-family="Helvetica,sans-Serif" font-size="10.00">+ matrix()</text>
<text text-anchor="start" x="71.5" y="-106.5" font-family="Helvetica,sans-Serif" font-size="10.00">+ matrix()</text>
<text text-anchor="start" x="71.5" y="-95.5" font-family="Helvetica,sans-Serif" font-size="10.00">+ matrix()</text>
<text text-anchor="start" x="71.5" y="-84.5" font-family="Helvetica,sans-Serif" font-size="10.00">+ matrix()</text>
<text text-anchor="start" x="71.5" y="-73.5" font-family="Helvetica,sans-Serif" font-size="10.00">+ explicit()</text>
<text text-anchor="start" x="71.5" y="-62.5" font-family="Helvetica,sans-Serif" font-size="10.00">+ operator[]()</text>
<text text-anchor="start" x="71.5" y="-51.5" font-family="Helvetica,sans-Serif" font-size="10.00">+ operator[]()</text>
<text text-anchor="start" x="71.5" y="-40.5" font-family="Helvetica,sans-Serif" font-size="10.00">+ operator()()</text>
<text text-anchor="start" x="71.5" y="-29.5" font-family="Helvetica,sans-Serif" font-size="10.00">+ operator()()</text>
<text text-anchor="start" x="71.5" y="-18.5" font-family="Helvetica,sans-Serif" font-size="10.00">+ operator()()</text>
<text text-anchor="start" x="71.5" y="-7.5" font-family="Helvetica,sans-Serif" font-size="10.00">+ operator==()</text>
</a>
</g>
</g>
<!-- Node2 -->
<g id="node2" class="node">
<title>Node2</title>
<g id="a_node2"><a xlink:title=" ">
<polygon fill="white" stroke="black" points="0,-556.5 0,-613.5 59,-613.5 59,-556.5 0,-556.5"/>
<text text-anchor="middle" x="29.5" y="-601.5" font-family="Helvetica,sans-Serif" font-size="10.00">constexpr</text>
<polyline fill="none" stroke="black" points="0,-594.5 59,-594.5 "/>
<text text-anchor="middle" x="29.5" y="-582.5" font-family="Helvetica,sans-Serif" font-size="10.00"> </text>
<polyline fill="none" stroke="black" points="0,-575.5 59,-575.5 "/>
<text text-anchor="middle" x="29.5" y="-563.5" font-family="Helvetica,sans-Serif" font-size="10.00"> </text>
</a>
</g>
</g>
<!-- Node2&#45;&gt;Node1 -->
<g id="edge1" class="edge">
<title>Node2&#45;&gt;Node1</title>
<path fill="none" stroke="#404040" d="M37.69,-556.38C43.23,-537.67 51.15,-510.96 60.02,-481.02"/>
<polygon fill="none" stroke="#404040" points="60.06,-480.9 57.93,-474.01 63.47,-469.39 65.6,-476.28 60.06,-480.9"/>
<text text-anchor="middle" x="69.5" y="-530" font-family="Helvetica,sans-Serif" font-size="10.00"> +Column</text>
<text text-anchor="middle" x="69.5" y="-519" font-family="Helvetica,sans-Serif" font-size="10.00">+Row</text>
</g>
<!-- Node3 -->
<g id="node3" class="node">
<title>Node3</title>
<g id="a_node3"><a xlink:title=" ">
<polygon fill="white" stroke="black" points="77.5,-556.5 77.5,-613.5 179.5,-613.5 179.5,-556.5 77.5,-556.5"/>
<text text-anchor="middle" x="128.5" y="-601.5" font-family="Helvetica,sans-Serif" font-size="10.00">generator&lt; double &gt;</text>
<polyline fill="none" stroke="black" points="77.5,-594.5 179.5,-594.5 "/>
<text text-anchor="middle" x="128.5" y="-582.5" font-family="Helvetica,sans-Serif" font-size="10.00"> </text>
<polyline fill="none" stroke="black" points="77.5,-575.5 179.5,-575.5 "/>
<text text-anchor="middle" x="128.5" y="-563.5" font-family="Helvetica,sans-Serif" font-size="10.00"> </text>
</a>
</g>
</g>
<!-- Node3&#45;&gt;Node1 -->
<g id="edge2" class="edge">
<title>Node3&#45;&gt;Node1</title>
<path fill="none" stroke="#404040" d="M128.5,-556.38C128.5,-543.95 128.5,-527.98 128.5,-509.87"/>
<polygon fill="none" stroke="#404040" points="128.5,-509.68 124.5,-503.68 128.5,-497.68 132.5,-503.68 128.5,-509.68"/>
<text text-anchor="middle" x="144.5" y="-524.5" font-family="Helvetica,sans-Serif" font-size="10.00"> +genie</text>
</g>
<!-- Node4 -->
<g id="node4" class="node">
<title>Node4</title>
<g id="a_node4"><a xlink:title=" ">
<polygon fill="white" stroke="black" points="198,-556.5 198,-613.5 243,-613.5 243,-556.5 198,-556.5"/>
<text text-anchor="middle" x="220.5" y="-601.5" font-family="Helvetica,sans-Serif" font-size="10.00">double</text>
<polyline fill="none" stroke="black" points="198,-594.5 243,-594.5 "/>
<text text-anchor="middle" x="220.5" y="-582.5" font-family="Helvetica,sans-Serif" font-size="10.00"> </text>
<polyline fill="none" stroke="black" points="198,-575.5 243,-575.5 "/>
<text text-anchor="middle" x="220.5" y="-563.5" font-family="Helvetica,sans-Serif" font-size="10.00"> </text>
</a>
</g>
</g>
<!-- Node4&#45;&gt;Node1 -->
<g id="edge3" class="edge">
<title>Node4&#45;&gt;Node1</title>
<path fill="none" stroke="#404040" d="M212.89,-556.38C208.71,-541.21 203.08,-520.76 196.7,-497.6"/>
<polygon fill="none" stroke="#404040" points="196.7,-497.59 191.25,-492.87 193.51,-486.02 198.96,-490.74 196.7,-497.59"/>
<text text-anchor="middle" x="220.5" y="-524.5" font-family="Helvetica,sans-Serif" font-size="10.00"> +data</text>
</g>
</g>
</svg>
