<?xml version="1.0" encoding="UTF-8" standalone="no"?>
<!DOCTYPE svg PUBLIC "-//W3C//DTD SVG 1.1//EN"
 "http://www.w3.org/Graphics/SVG/1.1/DTD/svg11.dtd">
<!-- Generated by graphviz version 12.2.0 (20241103.1931)
 -->
<!-- Title: fcarouge::indexed::matrix&lt; Matrix, RowIndexes, ColumnIndexes &gt; Pages: 1 -->
<svg width="138pt" height="498pt"
 viewBox="0.00 0.00 138.25 497.50" xmlns="http://www.w3.org/2000/svg" xmlns:xlink="http://www.w3.org/1999/xlink">
<g id="graph0" class="graph" transform="scale(1 1) rotate(0) translate(4 493.5)">
<title>fcarouge::indexed::matrix&lt; Matrix, RowIndexes, ColumnIndexes &gt;</title>
<!-- Node1 -->
<g id="Node000001" class="node">
<title>Node1</title>
<g id="a_Node000001"><a xlink:title="Indexed matrix.">
<polygon fill="#999999" stroke="none" points="130.25,-392.5 0,-392.5 0,0 130.25,0 130.25,-392.5"/>
<text text-anchor="start" x="4" y="-379" font-family="Helvetica,sans-Serif" font-size="10.00">fcarouge::indexed::</text>
<text text-anchor="start" x="4" y="-367.75" font-family="Helvetica,sans-Serif" font-size="10.00">matrix&lt; Matrix, RowIndexes,</text>
<text text-anchor="start" x="26.5" y="-356.5" font-family="Helvetica,sans-Serif" font-size="10.00"> ColumnIndexes &gt;</text>
<text text-anchor="start" x="63.62" y="-341.25" font-family="Helvetica,sans-Serif" font-size="10.00"> </text>
<text text-anchor="start" x="20.25" y="-326" font-family="Helvetica,sans-Serif" font-size="10.00">+</text>
<text text-anchor="start" x="46.5" y="-326" font-family="Helvetica,sans-Serif" font-size="10.00">matrix()</text>
<text text-anchor="start" x="20.25" y="-310.75" font-family="Helvetica,sans-Serif" font-size="10.00">+</text>
<text text-anchor="start" x="46.5" y="-310.75" font-family="Helvetica,sans-Serif" font-size="10.00">matrix()</text>
<text text-anchor="start" x="20.25" y="-295.5" font-family="Helvetica,sans-Serif" font-size="10.00">+</text>
<text text-anchor="start" x="46.5" y="-295.5" font-family="Helvetica,sans-Serif" font-size="10.00">operator=()</text>
<text text-anchor="start" x="20.25" y="-280.25" font-family="Helvetica,sans-Serif" font-size="10.00">+</text>
<text text-anchor="start" x="46.5" y="-280.25" font-family="Helvetica,sans-Serif" font-size="10.00">matrix()</text>
<text text-anchor="start" x="20.25" y="-265" font-family="Helvetica,sans-Serif" font-size="10.00">+</text>
<text text-anchor="start" x="46.5" y="-265" font-family="Helvetica,sans-Serif" font-size="10.00">operator=()</text>
<text text-anchor="start" x="20.25" y="-249.75" font-family="Helvetica,sans-Serif" font-size="10.00">+</text>
<text text-anchor="start" x="46.5" y="-249.75" font-family="Helvetica,sans-Serif" font-size="10.00">matrix()</text>
<text text-anchor="start" x="20.25" y="-234.5" font-family="Helvetica,sans-Serif" font-size="10.00">+</text>
<text text-anchor="start" x="46.5" y="-234.5" font-family="Helvetica,sans-Serif" font-size="10.00">matrix()</text>
<text text-anchor="start" x="20.25" y="-219.25" font-family="Helvetica,sans-Serif" font-size="10.00">+</text>
<text text-anchor="start" x="46.5" y="-219.25" font-family="Helvetica,sans-Serif" font-size="10.00">matrix()</text>
<text text-anchor="start" x="20.25" y="-204" font-family="Helvetica,sans-Serif" font-size="10.00">+</text>
<text text-anchor="start" x="46.5" y="-204" font-family="Helvetica,sans-Serif" font-size="10.00">matrix()</text>
<text text-anchor="start" x="20.25" y="-188.75" font-family="Helvetica,sans-Serif" font-size="10.00">+</text>
<text text-anchor="start" x="46.5" y="-188.75" font-family="Helvetica,sans-Serif" font-size="10.00">matrix()</text>
<text text-anchor="start" x="20.25" y="-173.5" font-family="Helvetica,sans-Serif" font-size="10.00">+</text>
<text text-anchor="start" x="46.5" y="-173.5" font-family="Helvetica,sans-Serif" font-size="10.00">operator[]()</text>
<text text-anchor="start" x="20.25" y="-158.25" font-family="Helvetica,sans-Serif" font-size="10.00">+</text>
<text text-anchor="start" x="46.5" y="-158.25" font-family="Helvetica,sans-Serif" font-size="10.00">operator[]()</text>
<text text-anchor="start" x="20.25" y="-143" font-family="Helvetica,sans-Serif" font-size="10.00">+</text>
<text text-anchor="start" x="46.5" y="-143" font-family="Helvetica,sans-Serif" font-size="10.00">operator[]()</text>
<text text-anchor="start" x="20.25" y="-127.75" font-family="Helvetica,sans-Serif" font-size="10.00">+</text>
<text text-anchor="start" x="46.5" y="-127.75" font-family="Helvetica,sans-Serif" font-size="10.00">operator[]()</text>
<text text-anchor="start" x="20.25" y="-112.5" font-family="Helvetica,sans-Serif" font-size="10.00">+</text>
<text text-anchor="start" x="46.5" y="-112.5" font-family="Helvetica,sans-Serif" font-size="10.00">operator[]()</text>
<text text-anchor="start" x="20.25" y="-97.25" font-family="Helvetica,sans-Serif" font-size="10.00">+</text>
<text text-anchor="start" x="46.5" y="-97.25" font-family="Helvetica,sans-Serif" font-size="10.00">operator[]()</text>
<text text-anchor="start" x="20.25" y="-82" font-family="Helvetica,sans-Serif" font-size="10.00">+</text>
<text text-anchor="start" x="46.5" y="-82" font-family="Helvetica,sans-Serif" font-size="10.00">operator()()</text>
<text text-anchor="start" x="20.25" y="-66.75" font-family="Helvetica,sans-Serif" font-size="10.00">+</text>
<text text-anchor="start" x="46.5" y="-66.75" font-family="Helvetica,sans-Serif" font-size="10.00">operator()()</text>
<text text-anchor="start" x="20.25" y="-51.5" font-family="Helvetica,sans-Serif" font-size="10.00">+</text>
<text text-anchor="start" x="46.5" y="-51.5" font-family="Helvetica,sans-Serif" font-size="10.00">operator()()</text>
<text text-anchor="start" x="20.25" y="-36.25" font-family="Helvetica,sans-Serif" font-size="10.00">+</text>
<text text-anchor="start" x="46.5" y="-36.25" font-family="Helvetica,sans-Serif" font-size="10.00">operator()()</text>
<text text-anchor="start" x="20.25" y="-21" font-family="Helvetica,sans-Serif" font-size="10.00">+</text>
<text text-anchor="start" x="46.5" y="-21" font-family="Helvetica,sans-Serif" font-size="10.00">operator()()</text>
<text text-anchor="start" x="20.25" y="-5.75" font-family="Helvetica,sans-Serif" font-size="10.00">+</text>
<text text-anchor="start" x="46.5" y="-5.75" font-family="Helvetica,sans-Serif" font-size="10.00">operator()()</text>
<polygon fill="#666666" stroke="#666666" points="0,-352.75 0,-352.75 130.25,-352.75 130.25,-352.75 0,-352.75"/>
<polygon fill="#666666" stroke="#666666" points="0,-337.5 0,-337.5 130.25,-337.5 130.25,-337.5 0,-337.5"/>
<polygon fill="none" stroke="#666666" points="0,0 0,-392.5 130.25,-392.5 130.25,0 0,0"/>
</a>
</g>
</g>
<!-- Node2 -->
<g id="Node000002" class="node">
<title>Node2</title>
<g id="a_Node000002"><a xlink:title=" ">
<polygon fill="white" stroke="none" points="82.25,-489.5 48,-489.5 48,-439.75 82.25,-439.75 82.25,-489.5"/>
<text text-anchor="start" x="52" y="-476" font-family="Helvetica,sans-Serif" font-size="10.00">Matrix</text>
<text text-anchor="start" x="63.62" y="-460.75" font-family="Helvetica,sans-Serif" font-size="10.00"> </text>
<text text-anchor="start" x="63.62" y="-445.5" font-family="Helvetica,sans-Serif" font-size="10.00"> </text>
<polygon fill="#666666" stroke="#666666" points="48,-472.25 48,-472.25 82.25,-472.25 82.25,-472.25 48,-472.25"/>
<polygon fill="#666666" stroke="#666666" points="48,-457 48,-457 82.25,-457 82.25,-457 48,-457"/>
<polygon fill="none" stroke="#666666" points="48,-439.75 48,-489.5 82.25,-489.5 82.25,-439.75 48,-439.75"/>
</a>
</g>
</g>
<!-- Node2&#45;&gt;Node1 -->
<g id="edge1_Node000001_Node000002" class="edge">
<title>Node2&#45;&gt;Node1</title>
<g id="a_edge1_Node000001_Node000002"><a xlink:title=" ">
<path fill="none" stroke="#63b8ff" d="M65.12,-439.99C65.12,-430.43 65.12,-418.47 65.12,-405"/>
<polygon fill="none" stroke="#63b8ff" points="65.13,-405.14 61.13,-399.14 65.13,-393.14 69.13,-399.14 65.13,-405.14"/>
</a>
</g>
<text text-anchor="middle" x="78.62" y="-412.25" font-family="Helvetica,sans-Serif" font-size="10.00" fill="grey"> +data</text>
</g>
</g>
</svg>
