<?xml version="1.0" encoding="UTF-8" standalone="no"?>
<!DOCTYPE svg PUBLIC "-//W3C//DTD SVG 1.1//EN"
 "http://www.w3.org/Graphics/SVG/1.1/DTD/svg11.dtd">
<!-- Generated by graphviz version 12.2.0 (20241103.1931)
 -->
<!-- Title: fcarouge::indexed::matrix::matrix Pages: 1 -->
<svg width="530pt" height="100pt"
 viewBox="0.00 0.00 529.50 99.50" xmlns="http://www.w3.org/2000/svg" xmlns:xlink="http://www.w3.org/1999/xlink">
<g id="graph0" class="graph" transform="scale(1 1) rotate(0) translate(4 95.5)">
<title>fcarouge::indexed::matrix::matrix</title>
<!-- Node1 -->
<g id="Node000001" class="node">
<title>Node1</title>
<g id="a_Node000001"><a xlink:title=" ">
<polygon fill="#999999" stroke="#666666" points="95.5,-51.5 0,-51.5 0,-21 95.5,-21 95.5,-51.5"/>
<text text-anchor="start" x="8" y="-38" font-family="Helvetica,sans-Serif" font-size="10.00">fcarouge::indexed::</text>
<text text-anchor="middle" x="47.75" y="-26.75" font-family="Helvetica,sans-Serif" font-size="10.00">matrix::matrix</text>
</a>
</g>
</g>
<!-- Node2 -->
<g id="Node000002" class="node">
<title>Node2</title>
<g id="a_Node000002"><a xlink:href="namespacefcarouge.xhtml#a5ad0022b969a210b7261d0158bc1dd7b" target="_top" xlink:title="Compile&#45;time for loop.">
<polygon fill="white" stroke="#666666" points="259.25,-67.88 142.75,-67.88 142.75,-48.62 259.25,-48.62 259.25,-67.88"/>
<text text-anchor="middle" x="201" y="-54.38" font-family="Helvetica,sans-Serif" font-size="10.00">fcarouge::for_constexpr</text>
</a>
</g>
</g>
<!-- Node1&#45;&gt;Node2 -->
<g id="edge1_Node000001_Node000002" class="edge">
<title>Node1&#45;&gt;Node2</title>
<g id="a_edge1_Node000001_Node000002"><a xlink:title=" ">
<path fill="none" stroke="#63b8ff" d="M95.78,-43.09C106.95,-44.72 119.1,-46.48 131.02,-48.22"/>
<polygon fill="#63b8ff" stroke="#63b8ff" points="130.45,-51.67 140.85,-49.65 131.46,-44.74 130.45,-51.67"/>
</a>
</g>
</g>
<!-- Node5 -->
<g id="Node000005" class="node">
<title>Node5</title>
<g id="a_Node000005"><a xlink:href="structfcarouge_1_1indexed_1_1element__traits.xhtml#a8d479a35602790f3dff1ac6975b58748" target="_top" xlink:title=" ">
<polygon fill="white" stroke="#666666" points="270.5,-30.5 131.5,-30.5 131.5,0 270.5,0 270.5,-30.5"/>
<text text-anchor="start" x="139.5" y="-17" font-family="Helvetica,sans-Serif" font-size="10.00">fcarouge::indexed::</text>
<text text-anchor="middle" x="201" y="-5.75" font-family="Helvetica,sans-Serif" font-size="10.00">element_traits::to_underlying</text>
</a>
</g>
</g>
<!-- Node1&#45;&gt;Node5 -->
<g id="edge5_Node000001_Node000005" class="edge">
<title>Node1&#45;&gt;Node5</title>
<g id="a_edge5_Node000001_Node000005"><a xlink:title=" ">
<path fill="none" stroke="#63b8ff" d="M95.78,-29.72C103.47,-28.65 111.62,-27.52 119.85,-26.38"/>
<polygon fill="#63b8ff" stroke="#63b8ff" points="120.15,-29.87 129.57,-25.03 119.19,-22.94 120.15,-29.87"/>
</a>
</g>
</g>
<!-- Node3 -->
<g id="Node000003" class="node">
<title>Node3</title>
<g id="a_Node000003"><a xlink:href="namespacefcarouge_1_1internal.xhtml#a4c0bbc15a41d76dd2b4b23d8566fba57" target="_top" xlink:title=" ">
<polygon fill="white" stroke="#666666" points="396,-73.5 306.5,-73.5 306.5,-43 396,-43 396,-73.5"/>
<text text-anchor="start" x="314.5" y="-60" font-family="Helvetica,sans-Serif" font-size="10.00">fcarouge::internal</text>
<text text-anchor="middle" x="351.25" y="-48.75" font-family="Helvetica,sans-Serif" font-size="10.00">::for_constexpr</text>
</a>
</g>
</g>
<!-- Node2&#45;&gt;Node3 -->
<g id="edge2_Node000002_Node000003" class="edge">
<title>Node2&#45;&gt;Node3</title>
<g id="a_edge2_Node000002_Node000003"><a xlink:title=" ">
<path fill="none" stroke="#63b8ff" d="M259.74,-58.25C271.33,-58.25 283.47,-58.25 294.97,-58.25"/>
<polygon fill="#63b8ff" stroke="#63b8ff" points="294.7,-61.75 304.7,-58.25 294.7,-54.75 294.7,-61.75"/>
</a>
</g>
</g>
<!-- Node3&#45;&gt;Node3 -->
<g id="edge3_Node000003_Node000003" class="edge">
<title>Node3&#45;&gt;Node3</title>
<g id="a_edge3_Node000003_Node000003"><a xlink:title=" ">
<path fill="none" stroke="#63b8ff" d="M329.01,-73.99C324.47,-83.06 331.89,-91.5 351.25,-91.5 361.84,-91.5 368.86,-88.97 372.3,-85.2"/>
<polygon fill="#63b8ff" stroke="#63b8ff" points="375.75,-85.8 373.33,-75.49 368.79,-85.06 375.75,-85.8"/>
</a>
</g>
</g>
<!-- Node4 -->
<g id="Node000004" class="node">
<title>Node4</title>
<g id="a_Node000004"><a xlink:href="namespacefcarouge_1_1internal.xhtml#a90ed417b141d4a9d567a4bcfadcd6b6e" target="_top" xlink:title=" ">
<polygon fill="white" stroke="#666666" points="521.5,-73.5 432,-73.5 432,-43 521.5,-43 521.5,-73.5"/>
<text text-anchor="start" x="440" y="-60" font-family="Helvetica,sans-Serif" font-size="10.00">fcarouge::internal</text>
<text text-anchor="middle" x="476.75" y="-48.75" font-family="Helvetica,sans-Serif" font-size="10.00">::function</text>
</a>
</g>
</g>
<!-- Node3&#45;&gt;Node4 -->
<g id="edge4_Node000003_Node000004" class="edge">
<title>Node3&#45;&gt;Node4</title>
<g id="a_edge4_Node000003_Node000004"><a xlink:title=" ">
<path fill="none" stroke="#63b8ff" d="M396.49,-58.25C404.3,-58.25 412.51,-58.25 420.58,-58.25"/>
<polygon fill="#63b8ff" stroke="#63b8ff" points="420.31,-61.75 430.31,-58.25 420.31,-54.75 420.31,-61.75"/>
</a>
</g>
</g>
</g>
</svg>
