<?xml version="1.0" encoding="UTF-8" standalone="no"?>
<!DOCTYPE svg PUBLIC "-//W3C//DTD SVG 1.1//EN"
 "http://www.w3.org/Graphics/SVG/1.1/DTD/svg11.dtd">
<!-- Generated by graphviz version 3.0.0 (20221109.1736)
 -->
<!-- Title: fcarouge::matrix&lt; Type, Row, Column, Copyable &gt; Pages: 1 -->
<svg width="251pt" height="666pt"
 viewBox="0.00 0.00 251.00 666.00" xmlns="http://www.w3.org/2000/svg" xmlns:xlink="http://www.w3.org/1999/xlink">
<g id="graph0" class="graph" transform="scale(1 1) rotate(0) translate(4 662)">
<title>fcarouge::matrix&lt; Type, Row, Column, Copyable &gt;</title>
<polygon fill="white" stroke="transparent" points="-4,4 -4,-662 247,-662 247,4 -4,4"/>
<!-- Node1 -->
<g id="node1" class="node">
<title>Node1</title>
<g id="a_node1"><a xlink:title=" ">
<polygon fill="#bfbfbf" stroke="black" points="63.5,-0.5 63.5,-541.5 193.5,-541.5 193.5,-0.5 63.5,-0.5"/>
<text text-anchor="start" x="71.5" y="-529.5" font-family="Helvetica,sans-Serif" font-size="10.00">fcarouge::matrix&lt; Type,</text>
<text text-anchor="middle" x="128.5" y="-518.5" font-family="Helvetica,sans-Serif" font-size="10.00"> Row, Column, Copyable &gt;</text>
<polyline fill="none" stroke="black" points="63.5,-511.5 193.5,-511.5 "/>
<text text-anchor="middle" x="128.5" y="-499.5" font-family="Helvetica,sans-Serif" font-size="10.00"> </text>
<polyline fill="none" stroke="black" points="63.5,-492.5 193.5,-492.5 "/>
<text text-anchor="start" x="71.5" y="-480.5" font-family="Helvetica,sans-Serif" font-size="10.00">+ matrix()</text>
<text text-anchor="start" x="71.5" y="-469.5" font-family="Helvetica,sans-Serif" font-size="10.00">+ matrix()</text>
<text text-anchor="start" x="71.5" y="-458.5" font-family="Helvetica,sans-Serif" font-size="10.00">+ matrix()</text>
<text text-anchor="start" x="71.5" y="-447.5" font-family="Helvetica,sans-Serif" font-size="10.00">+ operator=()</text>
<text text-anchor="start" x="71.5" y="-436.5" font-family="Helvetica,sans-Serif" font-size="10.00">+ operator=()</text>
<text text-anchor="start" x="71.5" y="-425.5" font-family="Helvetica,sans-Serif" font-size="10.00">+ matrix()</text>
<text text-anchor="start" x="71.5" y="-414.5" font-family="Helvetica,sans-Serif" font-size="10.00">+ matrix()</text>
<text text-anchor="start" x="71.5" y="-403.5" font-family="Helvetica,sans-Serif" font-size="10.00">+ operator=()</text>
<text text-anchor="start" x="71.5" y="-392.5" font-family="Helvetica,sans-Serif" font-size="10.00">+ operator=()</text>
<text text-anchor="start" x="71.5" y="-381.5" font-family="Helvetica,sans-Serif" font-size="10.00">+ matrix()</text>
<text text-anchor="start" x="71.5" y="-370.5" font-family="Helvetica,sans-Serif" font-size="10.00">+ matrix()</text>
<text text-anchor="start" x="71.5" y="-359.5" font-family="Helvetica,sans-Serif" font-size="10.00">+ matrix()</text>
<text text-anchor="start" x="71.5" y="-348.5" font-family="Helvetica,sans-Serif" font-size="10.00">+ matrix()</text>
<text text-anchor="start" x="71.5" y="-337.5" font-family="Helvetica,sans-Serif" font-size="10.00">+ matrix()</text>
<text text-anchor="start" x="71.5" y="-326.5" font-family="Helvetica,sans-Serif" font-size="10.00">+ clone()</text>
<text text-anchor="start" x="71.5" y="-315.5" font-family="Helvetica,sans-Serif" font-size="10.00">+ explicit()</text>
<text text-anchor="start" x="71.5" y="-304.5" font-family="Helvetica,sans-Serif" font-size="10.00">+ !Copyable()</text>
<text text-anchor="start" x="71.5" y="-293.5" font-family="Helvetica,sans-Serif" font-size="10.00">+ explicit()</text>
<text text-anchor="start" x="71.5" y="-282.5" font-family="Helvetica,sans-Serif" font-size="10.00">+ explicit()</text>
<text text-anchor="start" x="71.5" y="-271.5" font-family="Helvetica,sans-Serif" font-size="10.00">+ operator[]()</text>
<text text-anchor="start" x="71.5" y="-260.5" font-family="Helvetica,sans-Serif" font-size="10.00">+ operator()()</text>
<text text-anchor="start" x="71.5" y="-249.5" font-family="Helvetica,sans-Serif" font-size="10.00">+ operator()()</text>
<text text-anchor="start" x="71.5" y="-238.5" font-family="Helvetica,sans-Serif" font-size="10.00">+ operator()()</text>
<text text-anchor="start" x="71.5" y="-227.5" font-family="Helvetica,sans-Serif" font-size="10.00">+ begin()</text>
<text text-anchor="start" x="71.5" y="-216.5" font-family="Helvetica,sans-Serif" font-size="10.00">+ end()</text>
<text text-anchor="start" x="71.5" y="-205.5" font-family="Helvetica,sans-Serif" font-size="10.00">+ matrix()</text>
<text text-anchor="start" x="71.5" y="-194.5" font-family="Helvetica,sans-Serif" font-size="10.00">+ matrix()</text>
<text text-anchor="start" x="71.5" y="-183.5" font-family="Helvetica,sans-Serif" font-size="10.00">+ operator=()</text>
<text text-anchor="start" x="71.5" y="-172.5" font-family="Helvetica,sans-Serif" font-size="10.00">+ matrix()</text>
<text text-anchor="start" x="71.5" y="-161.5" font-family="Helvetica,sans-Serif" font-size="10.00">+ operator=()</text>
<text text-anchor="start" x="71.5" y="-150.5" font-family="Helvetica,sans-Serif" font-size="10.00">+ explicit()</text>
<text text-anchor="start" x="71.5" y="-139.5" font-family="Helvetica,sans-Serif" font-size="10.00">+ matrix()</text>
<text text-anchor="start" x="71.5" y="-128.5" font-family="Helvetica,sans-Serif" font-size="10.00">+ matrix()</text>
<text text-anchor="start" x="71.5" y="-117.5" font-family="Helvetica,sans-Serif" font-size="10.00">+ matrix()</text>
<text text-anchor="start" x="71.5" y="-106.5" font-family="Helvetica,sans-Serif" font-size="10.00">+ matrix()</text>
<text text-anchor="start" x="71.5" y="-95.5" font-family="Helvetica,sans-Serif" font-size="10.00">+ matrix()</text>
<text text-anchor="start" x="71.5" y="-84.5" font-family="Helvetica,sans-Serif" font-size="10.00">+ matrix()</text>
<text text-anchor="start" x="71.5" y="-73.5" font-family="Helvetica,sans-Serif" font-size="10.00">+ explicit()</text>
<text text-anchor="start" x="71.5" y="-62.5" font-family="Helvetica,sans-Serif" font-size="10.00">+ operator[]()</text>
<text text-anchor="start" x="71.5" y="-51.5" font-family="Helvetica,sans-Serif" font-size="10.00">+ operator[]()</text>
<text text-anchor="start" x="71.5" y="-40.5" font-family="Helvetica,sans-Serif" font-size="10.00">+ operator()()</text>
<text text-anchor="start" x="71.5" y="-29.5" font-family="Helvetica,sans-Serif" font-size="10.00">+ operator()()</text>
<text text-anchor="start" x="71.5" y="-18.5" font-family="Helvetica,sans-Serif" font-size="10.00">+ operator()()</text>
<text text-anchor="start" x="71.5" y="-7.5" font-family="Helvetica,sans-Serif" font-size="10.00">+ operator==()</text>
</a>
</g>
</g>
<!-- Node2 -->
<g id="node2" class="node">
<title>Node2</title>
<g id="a_node2"><a xlink:title=" ">
<polygon fill="white" stroke="black" points="0,-600.5 0,-657.5 59,-657.5 59,-600.5 0,-600.5"/>
<text text-anchor="middle" x="29.5" y="-645.5" font-family="Helvetica,sans-Serif" font-size="10.00">constexpr</text>
<polyline fill="none" stroke="black" points="0,-638.5 59,-638.5 "/>
<text text-anchor="middle" x="29.5" y="-626.5" font-family="Helvetica,sans-Serif" font-size="10.00"> </text>
<polyline fill="none" stroke="black" points="0,-619.5 59,-619.5 "/>
<text text-anchor="middle" x="29.5" y="-607.5" font-family="Helvetica,sans-Serif" font-size="10.00"> </text>
</a>
</g>
</g>
<!-- Node2&#45;&gt;Node1 -->
<g id="edge1" class="edge">
<title>Node2&#45;&gt;Node1</title>
<path fill="none" stroke="#404040" d="M37.19,-600.36C42.77,-580.27 50.95,-550.88 60.14,-517.82"/>
<polygon fill="none" stroke="#404040" points="60.22,-517.54 57.97,-510.69 63.43,-505.98 65.68,-512.83 60.22,-517.54"/>
<text text-anchor="middle" x="67.5" y="-574" font-family="Helvetica,sans-Serif" font-size="10.00"> +Column</text>
<text text-anchor="middle" x="67.5" y="-563" font-family="Helvetica,sans-Serif" font-size="10.00">+Row</text>
</g>
<!-- Node3 -->
<g id="node3" class="node">
<title>Node3</title>
<g id="a_node3"><a xlink:title=" ">
<polygon fill="white" stroke="black" points="77.5,-600.5 77.5,-657.5 179.5,-657.5 179.5,-600.5 77.5,-600.5"/>
<text text-anchor="middle" x="128.5" y="-645.5" font-family="Helvetica,sans-Serif" font-size="10.00">generator&lt; double &gt;</text>
<polyline fill="none" stroke="black" points="77.5,-638.5 179.5,-638.5 "/>
<text text-anchor="middle" x="128.5" y="-626.5" font-family="Helvetica,sans-Serif" font-size="10.00"> </text>
<polyline fill="none" stroke="black" points="77.5,-619.5 179.5,-619.5 "/>
<text text-anchor="middle" x="128.5" y="-607.5" font-family="Helvetica,sans-Serif" font-size="10.00"> </text>
</a>
</g>
</g>
<!-- Node3&#45;&gt;Node1 -->
<g id="edge2" class="edge">
<title>Node3&#45;&gt;Node1</title>
<path fill="none" stroke="#404040" d="M128.5,-600.36C128.5,-587.97 128.5,-572.03 128.5,-553.88"/>
<polygon fill="none" stroke="#404040" points="128.5,-553.65 124.5,-547.65 128.5,-541.65 132.5,-547.65 128.5,-553.65"/>
<text text-anchor="middle" x="144.5" y="-568.5" font-family="Helvetica,sans-Serif" font-size="10.00"> +genie</text>
</g>
<!-- Node4 -->
<g id="node4" class="node">
<title>Node4</title>
<g id="a_node4"><a xlink:title=" ">
<polygon fill="white" stroke="black" points="198,-600.5 198,-657.5 243,-657.5 243,-600.5 198,-600.5"/>
<text text-anchor="middle" x="220.5" y="-645.5" font-family="Helvetica,sans-Serif" font-size="10.00">double</text>
<polyline fill="none" stroke="black" points="198,-638.5 243,-638.5 "/>
<text text-anchor="middle" x="220.5" y="-626.5" font-family="Helvetica,sans-Serif" font-size="10.00"> </text>
<polyline fill="none" stroke="black" points="198,-619.5 243,-619.5 "/>
<text text-anchor="middle" x="220.5" y="-607.5" font-family="Helvetica,sans-Serif" font-size="10.00"> </text>
</a>
</g>
</g>
<!-- Node4&#45;&gt;Node1 -->
<g id="edge3" class="edge">
<title>Node4&#45;&gt;Node1</title>
<path fill="none" stroke="#404040" d="M213.36,-600.36C209.11,-583.92 203.25,-561.27 196.59,-535.47"/>
<polygon fill="none" stroke="#404040" points="196.58,-535.44 191.21,-530.63 193.58,-523.82 198.95,-528.63 196.58,-535.44"/>
<text text-anchor="middle" x="220.5" y="-568.5" font-family="Helvetica,sans-Serif" font-size="10.00"> +data</text>
</g>
</g>
</svg>
