<?xml version="1.0" encoding="UTF-8" standalone="no"?>
<!DOCTYPE svg PUBLIC "-//W3C//DTD SVG 1.1//EN"
 "http://www.w3.org/Graphics/SVG/1.1/DTD/svg11.dtd">
<!-- Generated by graphviz version 2.44.0 ()
 -->
<!-- Title: fcarouge::internal::kalman&lt; State, Output, Input, Transpose, Symmetrize, Divide, Identity, PredictionArguments &gt; Pages: 1 -->
<!--zoomable 413 -->
<svg id="main" version="1.1" xmlns="http://www.w3.org/2000/svg" xmlns:xlink="http://www.w3.org/1999/xlink" xml:space="preserve" onload="init(evt)">
<style type="text/css"><![CDATA[
.edge:hover path { stroke: red; }
.edge:hover polygon { stroke: red; fill: red; }
]]></style>
<script type="text/javascript"><![CDATA[
var edges = document.getElementsByTagName('g');
if (edges && edges.length) {
  for (var i=0;i<edges.length;i++) {
    if (edges[i].id.substr(0,4)=='edge') {
      edges[i].setAttribute('class','edge');
    }
  }
}
]]></script>
        <defs>
                <circle id="rim" cx="0" cy="0" r="7"/>
                <circle id="rim2" cx="0" cy="0" r="3.5"/>
                <g id="zoomPlus">
                        <use xlink:href="#rim" fill="#404040">
                                <set attributeName="fill" to="#808080" begin="zoomplus.mouseover" end="zoomplus.mouseout"/>
                        </use>
                        <path d="M-4,0h8M0,-4v8" fill="none" stroke="white" stroke-width="1.5" pointer-events="none"/>
                </g>
                <g id="zoomMin">
                        <use xlink:href="#rim" fill="#404040">
                                <set attributeName="fill" to="#808080" begin="zoomminus.mouseover" end="zoomminus.mouseout"/>
                        </use>
                        <path d="M-4,0h8" fill="none" stroke="white" stroke-width="1.5" pointer-events="none"/>
                </g>
                <g id="dirArrow">
                        <path fill="none" stroke="white" stroke-width="1.5" d="M0,-3.0v7 M-2.5,-0.5L0,-3.0L2.5,-0.5"/>
                </g>
               <g id="resetDef">
                       <use xlink:href="#rim2" fill="#404040">
                               <set attributeName="fill" to="#808080" begin="reset.mouseover" end="reset.mouseout"/>
                       </use>
               </g>
        </defs>

<script type="text/javascript">
var viewWidth = 1146;
var viewHeight = 413;
var sectionId = 'dynsection-1';
</script>
<script xlink:href="svgpan.js"/>
<svg id="graph" class="graph">
<g id="viewport">
<title>fcarouge::internal::kalman&lt; State, Output, Input, Transpose, Symmetrize, Divide, Identity, PredictionArguments &gt;</title>
<polygon fill="white" stroke="transparent" points="-4,4 -4,-409 1141.5,-409 1141.5,4 -4,4"/>
<!-- Node1 -->
<g id="node1" class="node">
<title>Node1</title>
<g id="a_node1"><a xlink:title=" ">
<polygon fill="#bfbfbf" stroke="black" points="512,-0.5 512,-222.5 699,-222.5 699,-0.5 512,-0.5"/>
<text text-anchor="start" x="520" y="-210.5" font-family="Helvetica,sans-Serif" font-size="10.00">fcarouge::internal</text>
<text text-anchor="start" x="520" y="-199.5" font-family="Helvetica,sans-Serif" font-size="10.00">::kalman&lt; State, Output,</text>
<text text-anchor="start" x="520" y="-188.5" font-family="Helvetica,sans-Serif" font-size="10.00"> Input, Transpose, Symmetrize,</text>
<text text-anchor="middle" x="605.5" y="-177.5" font-family="Helvetica,sans-Serif" font-size="10.00"> Divide, Identity, PredictionArguments &gt;</text>
<polyline fill="none" stroke="black" points="512,-170.5 699,-170.5 "/>
<text text-anchor="middle" x="605.5" y="-158.5" font-family="Helvetica,sans-Serif" font-size="10.00"> </text>
<polyline fill="none" stroke="black" points="512,-151.5 699,-151.5 "/>
<text text-anchor="start" x="520" y="-139.5" font-family="Helvetica,sans-Serif" font-size="10.00">+ update()</text>
<text text-anchor="start" x="520" y="-128.5" font-family="Helvetica,sans-Serif" font-size="10.00">+ predict()</text>
<text text-anchor="start" x="520" y="-117.5" font-family="Helvetica,sans-Serif" font-size="10.00">* state</text>
<text text-anchor="start" x="520" y="-106.5" font-family="Helvetica,sans-Serif" font-size="10.00">* output</text>
<text text-anchor="start" x="520" y="-95.5" font-family="Helvetica,sans-Serif" font-size="10.00">* input</text>
<text text-anchor="start" x="520" y="-84.5" font-family="Helvetica,sans-Serif" font-size="10.00">* estimate_uncertainty</text>
<text text-anchor="start" x="520" y="-73.5" font-family="Helvetica,sans-Serif" font-size="10.00">* process_uncertainty</text>
<text text-anchor="start" x="520" y="-62.5" font-family="Helvetica,sans-Serif" font-size="10.00">* output_uncertainty</text>
<text text-anchor="start" x="520" y="-51.5" font-family="Helvetica,sans-Serif" font-size="10.00">* state_transition</text>
<text text-anchor="start" x="520" y="-40.5" font-family="Helvetica,sans-Serif" font-size="10.00">* output_model</text>
<text text-anchor="start" x="520" y="-29.5" font-family="Helvetica,sans-Serif" font-size="10.00">* input_control</text>
<text text-anchor="start" x="520" y="-18.5" font-family="Helvetica,sans-Serif" font-size="10.00">* update()</text>
<text text-anchor="start" x="520" y="-7.5" font-family="Helvetica,sans-Serif" font-size="10.00">* predict()</text>
</a>
</g>
</g>
<!-- Node2 -->
<g id="node2" class="node">
<title>Node2</title>
<g id="a_node2"><a xlink:title=" ">
<polygon fill="white" stroke="#bfbfbf" points="0,-331 0,-399 161,-399 161,-331 0,-331"/>
<text text-anchor="start" x="8" y="-387" font-family="Helvetica,sans-Serif" font-size="10.00">function&lt; state_transition</text>
<text text-anchor="middle" x="80.5" y="-376" font-family="Helvetica,sans-Serif" font-size="10.00">(const PredictionArguments &amp;...)&gt;</text>
<polyline fill="none" stroke="#bfbfbf" points="0,-369 161,-369 "/>
<text text-anchor="middle" x="80.5" y="-357" font-family="Helvetica,sans-Serif" font-size="10.00"> </text>
<polyline fill="none" stroke="#bfbfbf" points="0,-350 161,-350 "/>
<text text-anchor="middle" x="80.5" y="-338" font-family="Helvetica,sans-Serif" font-size="10.00"> </text>
</a>
</g>
</g>
<!-- Node2&#45;&gt;Node1 -->
<g id="edge1" class="edge">
<title>Node2&#45;&gt;Node1</title>
<path fill="none" stroke="#404040" d="M99.04,-330.84C116.21,-303.01 144.25,-264.19 178.5,-241 276.05,-174.95 408.5,-142.02 499.89,-126.17"/>
<polygon fill="none" stroke="#404040" points="500.11,-126.14 505.36,-121.19 511.94,-124.14 506.69,-129.08 500.11,-126.14"/>
<text text-anchor="middle" x="220.5" y="-271.5" font-family="Helvetica,sans-Serif" font-size="10.00"> +transition_state_f</text>
</g>
<!-- Node3 -->
<g id="node3" class="node">
<title>Node3</title>
<g id="a_node3"><a xlink:title=" ">
<polygon fill="white" stroke="#bfbfbf" points="179.5,-325.5 179.5,-404.5 287.5,-404.5 287.5,-325.5 179.5,-325.5"/>
<text text-anchor="start" x="187.5" y="-392.5" font-family="Helvetica,sans-Serif" font-size="10.00">function&lt; state(const</text>
<text text-anchor="start" x="187.5" y="-381.5" font-family="Helvetica,sans-Serif" font-size="10.00"> state &amp;, const state</text>
<text text-anchor="middle" x="233.5" y="-370.5" font-family="Helvetica,sans-Serif" font-size="10.00">_transition &amp;)&gt;</text>
<polyline fill="none" stroke="#bfbfbf" points="179.5,-363.5 287.5,-363.5 "/>
<text text-anchor="middle" x="233.5" y="-351.5" font-family="Helvetica,sans-Serif" font-size="10.00"> </text>
<polyline fill="none" stroke="#bfbfbf" points="179.5,-344.5 287.5,-344.5 "/>
<text text-anchor="middle" x="233.5" y="-332.5" font-family="Helvetica,sans-Serif" font-size="10.00"> </text>
</a>
</g>
</g>
<!-- Node3&#45;&gt;Node1 -->
<g id="edge2" class="edge">
<title>Node3&#45;&gt;Node1</title>
<path fill="none" stroke="#404040" d="M253.83,-325.49C269.43,-298.92 293.09,-264.32 321.5,-241 374.04,-197.87 443.38,-166.13 500.4,-144.99"/>
<polygon fill="none" stroke="#404040" points="500.72,-144.87 504.99,-139.06 512,-140.77 507.73,-146.58 500.72,-144.87"/>
<text text-anchor="middle" x="354" y="-271.5" font-family="Helvetica,sans-Serif" font-size="10.00"> +predict_state</text>
</g>
<!-- Node4 -->
<g id="node4" class="node">
<title>Node4</title>
<g id="a_node4"><a xlink:title=" ">
<polygon fill="white" stroke="#bfbfbf" points="305.5,-336.5 305.5,-393.5 435.5,-393.5 435.5,-336.5 305.5,-336.5"/>
<text text-anchor="middle" x="370.5" y="-381.5" font-family="Helvetica,sans-Serif" font-size="10.00">function&lt; output_model()&gt;</text>
<polyline fill="none" stroke="#bfbfbf" points="305.5,-374.5 435.5,-374.5 "/>
<text text-anchor="middle" x="370.5" y="-362.5" font-family="Helvetica,sans-Serif" font-size="10.00"> </text>
<polyline fill="none" stroke="#bfbfbf" points="305.5,-355.5 435.5,-355.5 "/>
<text text-anchor="middle" x="370.5" y="-343.5" font-family="Helvetica,sans-Serif" font-size="10.00"> </text>
</a>
</g>
</g>
<!-- Node4&#45;&gt;Node1 -->
<g id="edge3" class="edge">
<title>Node4&#45;&gt;Node1</title>
<path fill="none" stroke="#404040" d="M378.22,-336.3C386.63,-309.76 402.1,-269.61 425.5,-241 446.72,-215.06 474.39,-191.87 501.65,-172.57"/>
<polygon fill="none" stroke="#404040" points="501.8,-172.47 504.46,-165.77 511.67,-165.64 509.01,-172.35 501.8,-172.47"/>
<text text-anchor="middle" x="483" y="-271.5" font-family="Helvetica,sans-Serif" font-size="10.00"> +transition_observation_h</text>
</g>
<!-- Node5 -->
<g id="node5" class="node">
<title>Node5</title>
<g id="a_node5"><a xlink:title=" ">
<polygon fill="white" stroke="#bfbfbf" points="454,-336.5 454,-393.5 605,-393.5 605,-336.5 454,-336.5"/>
<text text-anchor="middle" x="529.5" y="-381.5" font-family="Helvetica,sans-Serif" font-size="10.00">function&lt; output_uncertainty()&gt;</text>
<polyline fill="none" stroke="#bfbfbf" points="454,-374.5 605,-374.5 "/>
<text text-anchor="middle" x="529.5" y="-362.5" font-family="Helvetica,sans-Serif" font-size="10.00"> </text>
<polyline fill="none" stroke="#bfbfbf" points="454,-355.5 605,-355.5 "/>
<text text-anchor="middle" x="529.5" y="-343.5" font-family="Helvetica,sans-Serif" font-size="10.00"> </text>
</a>
</g>
</g>
<!-- Node5&#45;&gt;Node1 -->
<g id="edge4" class="edge">
<title>Node5&#45;&gt;Node1</title>
<path fill="none" stroke="#404040" d="M536.83,-336.05C543.48,-311.05 553.72,-273.45 563.5,-241 564.15,-238.86 564.8,-236.7 565.46,-234.53"/>
<polygon fill="none" stroke="#404040" points="565.55,-234.26 563.49,-227.35 569.09,-222.8 571.14,-229.71 565.55,-234.26"/>
<text text-anchor="middle" x="611.5" y="-271.5" font-family="Helvetica,sans-Serif" font-size="10.00"> +noise_observation_r</text>
</g>
<!-- Node6 -->
<g id="node6" class="node">
<title>Node6</title>
<g id="a_node6"><a xlink:title=" ">
<polygon fill="white" stroke="#bfbfbf" points="623.5,-325.5 623.5,-404.5 739.5,-404.5 739.5,-325.5 623.5,-325.5"/>
<text text-anchor="start" x="631.5" y="-392.5" font-family="Helvetica,sans-Serif" font-size="10.00">invoke_result_t&lt; divide</text>
<text text-anchor="start" x="631.5" y="-381.5" font-family="Helvetica,sans-Serif" font-size="10.00">&lt; State, State &gt;, State,</text>
<text text-anchor="middle" x="681.5" y="-370.5" font-family="Helvetica,sans-Serif" font-size="10.00"> State &gt;</text>
<polyline fill="none" stroke="#bfbfbf" points="623.5,-363.5 739.5,-363.5 "/>
<text text-anchor="middle" x="681.5" y="-351.5" font-family="Helvetica,sans-Serif" font-size="10.00"> </text>
<polyline fill="none" stroke="#bfbfbf" points="623.5,-344.5 739.5,-344.5 "/>
<text text-anchor="middle" x="681.5" y="-332.5" font-family="Helvetica,sans-Serif" font-size="10.00"> </text>
</a>
</g>
</g>
<!-- Node6&#45;&gt;Node1 -->
<g id="edge5" class="edge">
<title>Node6&#45;&gt;Node1</title>
<path fill="none" stroke="#404040" d="M676.81,-325.26C673.3,-300.79 667.68,-268.67 659.5,-241 658.83,-238.74 658.13,-236.46 657.41,-234.17"/>
<polygon fill="none" stroke="#404040" points="657.38,-234.08 651.7,-229.63 653.62,-222.68 659.3,-227.13 657.38,-234.08"/>
<text text-anchor="middle" x="679.5" y="-299" font-family="Helvetica,sans-Serif" font-size="10.00"> +f</text>
<text text-anchor="middle" x="679.5" y="-288" font-family="Helvetica,sans-Serif" font-size="10.00">+g</text>
<text text-anchor="middle" x="679.5" y="-277" font-family="Helvetica,sans-Serif" font-size="10.00">+h</text>
<text text-anchor="middle" x="679.5" y="-266" font-family="Helvetica,sans-Serif" font-size="10.00">+p</text>
<text text-anchor="middle" x="679.5" y="-255" font-family="Helvetica,sans-Serif" font-size="10.00">+q</text>
<text text-anchor="middle" x="679.5" y="-244" font-family="Helvetica,sans-Serif" font-size="10.00">+r</text>
</g>
<!-- Node7 -->
<g id="node7" class="node">
<title>Node7</title>
<g id="a_node7"><a xlink:title=" ">
<polygon fill="white" stroke="#bfbfbf" points="758,-331 758,-399 919,-399 919,-331 758,-331"/>
<text text-anchor="start" x="766" y="-387" font-family="Helvetica,sans-Serif" font-size="10.00">function&lt; process_uncertainty</text>
<text text-anchor="middle" x="838.5" y="-376" font-family="Helvetica,sans-Serif" font-size="10.00">(const PredictionArguments &amp;...)&gt;</text>
<polyline fill="none" stroke="#bfbfbf" points="758,-369 919,-369 "/>
<text text-anchor="middle" x="838.5" y="-357" font-family="Helvetica,sans-Serif" font-size="10.00"> </text>
<polyline fill="none" stroke="#bfbfbf" points="758,-350 919,-350 "/>
<text text-anchor="middle" x="838.5" y="-338" font-family="Helvetica,sans-Serif" font-size="10.00"> </text>
</a>
</g>
</g>
<!-- Node7&#45;&gt;Node1 -->
<g id="edge6" class="edge">
<title>Node7&#45;&gt;Node1</title>
<path fill="none" stroke="#404040" d="M807.8,-330.86C782.07,-303.08 743.8,-261.78 707.45,-222.54"/>
<polygon fill="none" stroke="#404040" points="707.4,-222.49 700.39,-220.8 699.24,-213.68 706.25,-215.37 707.4,-222.49"/>
<text text-anchor="middle" x="822.5" y="-271.5" font-family="Helvetica,sans-Serif" font-size="10.00"> +noise_process_q</text>
</g>
<!-- Node8 -->
<g id="node8" class="node">
<title>Node8</title>
<g id="a_node8"><a xlink:title=" ">
<polygon fill="white" stroke="#bfbfbf" points="937,-325.5 937,-404.5 1074,-404.5 1074,-325.5 937,-325.5"/>
<text text-anchor="start" x="945" y="-392.5" font-family="Helvetica,sans-Serif" font-size="10.00">function&lt; input_control</text>
<text text-anchor="start" x="945" y="-381.5" font-family="Helvetica,sans-Serif" font-size="10.00">(const PredictionArguments</text>
<text text-anchor="middle" x="1005.5" y="-370.5" font-family="Helvetica,sans-Serif" font-size="10.00"> &amp;...)&gt;</text>
<polyline fill="none" stroke="#bfbfbf" points="937,-363.5 1074,-363.5 "/>
<text text-anchor="middle" x="1005.5" y="-351.5" font-family="Helvetica,sans-Serif" font-size="10.00"> </text>
<polyline fill="none" stroke="#bfbfbf" points="937,-344.5 1074,-344.5 "/>
<text text-anchor="middle" x="1005.5" y="-332.5" font-family="Helvetica,sans-Serif" font-size="10.00"> </text>
</a>
</g>
</g>
<!-- Node8&#45;&gt;Node1 -->
<g id="edge7" class="edge">
<title>Node8&#45;&gt;Node1</title>
<path fill="none" stroke="#404040" d="M968,-325.44C941.48,-299.53 904.25,-265.71 867.5,-241 818.45,-208.02 759.69,-178.41 710.25,-155.94"/>
<polygon fill="none" stroke="#404040" points="710.15,-155.9 703.04,-157.08 699.21,-150.97 706.32,-149.79 710.15,-155.9"/>
<text text-anchor="middle" x="992.5" y="-271.5" font-family="Helvetica,sans-Serif" font-size="10.00"> +transition_control_g</text>
</g>
<!-- Node9 -->
<g id="node9" class="node">
<title>Node9</title>
<g id="a_node9"><a xlink:title=" ">
<polygon fill="white" stroke="#bfbfbf" points="1097.5,-336.5 1097.5,-393.5 1137.5,-393.5 1137.5,-336.5 1097.5,-336.5"/>
<text text-anchor="middle" x="1117.5" y="-381.5" font-family="Helvetica,sans-Serif" font-size="10.00">State</text>
<polyline fill="none" stroke="#bfbfbf" points="1097.5,-374.5 1137.5,-374.5 "/>
<text text-anchor="middle" x="1117.5" y="-362.5" font-family="Helvetica,sans-Serif" font-size="10.00"> </text>
<polyline fill="none" stroke="#bfbfbf" points="1097.5,-355.5 1137.5,-355.5 "/>
<text text-anchor="middle" x="1117.5" y="-343.5" font-family="Helvetica,sans-Serif" font-size="10.00"> </text>
</a>
</g>
</g>
<!-- Node9&#45;&gt;Node1 -->
<g id="edge8" class="edge">
<title>Node9&#45;&gt;Node1</title>
<path fill="none" stroke="#404040" d="M1107.82,-336.4C1096.6,-308.37 1075.46,-265.67 1043.5,-241 946.34,-166.01 806.43,-134.73 711.06,-121.71"/>
<polygon fill="none" stroke="#404040" points="710.97,-121.7 704.5,-124.88 699.07,-120.14 705.54,-116.95 710.97,-121.7"/>
<text text-anchor="middle" x="1099" y="-271.5" font-family="Helvetica,sans-Serif" font-size="10.00"> +x</text>
</g>
</g>
</svg>
        <g id="navigator" transform="translate(0 0)" fill="#404254">
                <rect fill="#f2f5e9" fill-opacity="0.5" stroke="#606060" stroke-width=".5" x="0" y="0" width="60" height="60"/>
                <use id="zoomplus" xlink:href="#zoomPlus" x="17" y="9" onmousedown="handleZoom(evt,'in')"/>
                <use id="zoomminus" xlink:href="#zoomMin" x="42" y="9" onmousedown="handleZoom(evt,'out')"/>
                <use id="reset" xlink:href="#resetDef" x="30" y="36" onmousedown="handleReset()"/>
                <g id="arrowUp" xlink:href="#dirArrow" transform="translate(30 24)" onmousedown="handlePan(0,-1)">
                  <use xlink:href="#rim" fill="#404040">
                        <set attributeName="fill" to="#808080" begin="arrowUp.mouseover" end="arrowUp.mouseout"/>
                  </use>
                  <path fill="none" stroke="white" stroke-width="1.5" d="M0,-3.0v7 M-2.5,-0.5L0,-3.0L2.5,-0.5"/>
                </g>
                <g id="arrowRight" xlink:href="#dirArrow" transform="rotate(90) translate(36 -43)" onmousedown="handlePan(1,0)">
                  <use xlink:href="#rim" fill="#404040">
                        <set attributeName="fill" to="#808080" begin="arrowRight.mouseover" end="arrowRight.mouseout"/>
                  </use>
                  <path fill="none" stroke="white" stroke-width="1.5" d="M0,-3.0v7 M-2.5,-0.5L0,-3.0L2.5,-0.5"/>
                </g>
                <g id="arrowDown" xlink:href="#dirArrow" transform="rotate(180) translate(-30 -48)" onmousedown="handlePan(0,1)">
                  <use xlink:href="#rim" fill="#404040">
                        <set attributeName="fill" to="#808080" begin="arrowDown.mouseover" end="arrowDown.mouseout"/>
                  </use>
                  <path fill="none" stroke="white" stroke-width="1.5" d="M0,-3.0v7 M-2.5,-0.5L0,-3.0L2.5,-0.5"/>
                </g>
                <g id="arrowLeft" xlink:href="#dirArrow" transform="rotate(270) translate(-36 17)" onmousedown="handlePan(-1,0)">
                  <use xlink:href="#rim" fill="#404040">
                        <set attributeName="fill" to="#808080" begin="arrowLeft.mouseover" end="arrowLeft.mouseout"/>
                  </use>
                  <path fill="none" stroke="white" stroke-width="1.5" d="M0,-3.0v7 M-2.5,-0.5L0,-3.0L2.5,-0.5"/>
                </g>
        </g>
        <svg viewBox="0 0 15 15" width="100%" height="30px" preserveAspectRatio="xMaxYMin meet">
         <g id="arrow_out" transform="scale(0.3 0.3)">
          <a xlink:href="structfcarouge_1_1internal_1_1kalman__coll__graph_org.svg" target="_base">
           <rect id="button" ry="5" rx="5" y="6" x="6" height="38" width="38"
                fill="#f2f5e9" fill-opacity="0.5" stroke="#606060" stroke-width="1.0"/>
           <path id="arrow"
             d="M 11.500037,31.436501 C 11.940474,20.09759 22.043105,11.32322 32.158766,21.979434 L 37.068811,17.246167 C 37.068811,17.246167 37.088388,32 37.088388,32 L 22.160133,31.978069 C 22.160133,31.978069 26.997745,27.140456 26.997745,27.140456 C 18.528582,18.264221 13.291696,25.230495 11.500037,31.436501 z"
             style="fill:#404040;"/>
          </a>
         </g>
        </svg>
</svg>
