<?xml version="1.0" encoding="UTF-8" standalone="no"?>
<!DOCTYPE svg PUBLIC "-//W3C//DTD SVG 1.1//EN"
 "http://www.w3.org/Graphics/SVG/1.1/DTD/svg11.dtd">
<!-- Generated by graphviz version 12.2.0 (20241103.1931)
 -->
<!-- Title: fcarouge::multiplies&lt; mp_units::quantity_point&lt; Reference1 &gt;, mp_units::quantity_point&lt; Reference2 &gt; &gt; Pages: 1 -->
<svg width="123pt" height="103pt"
 viewBox="0.00 0.00 122.50 102.75" xmlns="http://www.w3.org/2000/svg" xmlns:xlink="http://www.w3.org/1999/xlink">
<g id="graph0" class="graph" transform="scale(1 1) rotate(0) translate(4 98.75)">
<title>fcarouge::multiplies&lt; mp_units::quantity_point&lt; Reference1 &gt;, mp_units::quantity_point&lt; Reference2 &gt; &gt;</title>
<!-- Node1 -->
<g id="Node000001" class="node">
<title>Node1</title>
<g id="a_Node000001"><a xlink:title=" ">
<polygon fill="#999999" stroke="none" points="114.5,-94.75 0,-94.75 0,0 114.5,0 114.5,-94.75"/>
<text text-anchor="start" x="4" y="-81.25" font-family="Helvetica,sans-Serif" font-size="10.00">fcarouge::multiplies</text>
<text text-anchor="start" x="4" y="-70" font-family="Helvetica,sans-Serif" font-size="10.00">&lt; mp_units::quantity</text>
<text text-anchor="start" x="4" y="-58.75" font-family="Helvetica,sans-Serif" font-size="10.00">_point&lt; Reference1 &gt;,</text>
<text text-anchor="start" x="4" y="-47.5" font-family="Helvetica,sans-Serif" font-size="10.00"> mp_units::quantity_point</text>
<text text-anchor="start" x="20.12" y="-36.25" font-family="Helvetica,sans-Serif" font-size="10.00">&lt; Reference2 &gt; &gt;</text>
<text text-anchor="start" x="55.75" y="-21" font-family="Helvetica,sans-Serif" font-size="10.00"> </text>
<text text-anchor="start" x="16.31" y="-5.75" font-family="Helvetica,sans-Serif" font-size="10.00">+</text>
<text text-anchor="start" x="38.62" y="-5.75" font-family="Helvetica,sans-Serif" font-size="10.00">operator()()</text>
<polygon fill="#666666" stroke="#666666" points="0,-32.5 0,-32.5 114.5,-32.5 114.5,-32.5 0,-32.5"/>
<polygon fill="#666666" stroke="#666666" points="0,-17.25 0,-17.25 114.5,-17.25 114.5,-17.25 0,-17.25"/>
<polygon fill="none" stroke="#666666" points="0,0 0,-94.75 114.5,-94.75 114.5,0 0,0"/>
</a>
</g>
</g>
</g>
</svg>
