<?xml version="1.0" encoding="UTF-8" standalone="no"?>
<!DOCTYPE svg PUBLIC "-//W3C//DTD SVG 1.1//EN"
 "http://www.w3.org/Graphics/SVG/1.1/DTD/svg11.dtd">
<!-- Generated by graphviz version 3.0.0 (20221109.1736)
 -->
<!-- Title: std::formatter&lt; fcarouge::kalman&lt; State, Output, Input, UpdateTypes, PredictionTypes &gt;, Char &gt;::format Pages: 1 -->
<svg width="286pt" height="61pt"
 viewBox="0.00 0.00 286.00 61.00" xmlns="http://www.w3.org/2000/svg" xmlns:xlink="http://www.w3.org/1999/xlink">
<g id="graph0" class="graph" transform="scale(1 1) rotate(0) translate(4 57)">
<title>std::formatter&lt; fcarouge::kalman&lt; State, Output, Input, UpdateTypes, PredictionTypes &gt;, Char &gt;::format</title>
<polygon fill="white" stroke="transparent" points="-4,4 -4,-57 282,-57 282,4 -4,4"/>
<!-- Node1 -->
<g id="node1" class="node">
<title>Node1</title>
<g id="a_node1"><a xlink:title=" ">
<polygon fill="#bfbfbf" stroke="black" points="0,-0.5 0,-52.5 152,-52.5 152,-0.5 0,-0.5"/>
<text text-anchor="start" x="8" y="-40.5" font-family="Helvetica,sans-Serif" font-size="10.00">std::formatter&lt; fcarouge</text>
<text text-anchor="start" x="8" y="-29.5" font-family="Helvetica,sans-Serif" font-size="10.00">::kalman&lt; State, Output,</text>
<text text-anchor="start" x="8" y="-18.5" font-family="Helvetica,sans-Serif" font-size="10.00"> Input, UpdateTypes, Prediction</text>
<text text-anchor="middle" x="76" y="-7.5" font-family="Helvetica,sans-Serif" font-size="10.00">Types &gt;, Char &gt;::format</text>
</a>
</g>
</g>
<!-- Node2 -->
<g id="node2" class="node">
<title>Node2</title>
<g id="a_node2"><a xlink:href="namespacefcarouge_1_1internal.xhtml#a4c0bbc15a41d76dd2b4b23d8566fba57" target="_top" xlink:title=" ">
<polygon fill="white" stroke="black" points="188,-11.5 188,-41.5 278,-41.5 278,-11.5 188,-11.5"/>
<text text-anchor="start" x="196" y="-29.5" font-family="Helvetica,sans-Serif" font-size="10.00">fcarouge::internal</text>
<text text-anchor="middle" x="233" y="-18.5" font-family="Helvetica,sans-Serif" font-size="10.00">::for_constexpr</text>
</a>
</g>
</g>
<!-- Node1&#45;&gt;Node2 -->
<g id="edge1" class="edge">
<title>Node1&#45;&gt;Node2</title>
<path fill="none" stroke="midnightblue" d="M152.23,-26.5C160.8,-26.5 169.4,-26.5 177.63,-26.5"/>
<polygon fill="midnightblue" stroke="midnightblue" points="177.81,-30 187.81,-26.5 177.81,-23 177.81,-30"/>
</g>
</g>
</svg>
