<?xml version="1.0" encoding="UTF-8" standalone="no"?>
<!DOCTYPE svg PUBLIC "-//W3C//DTD SVG 1.1//EN"
 "http://www.w3.org/Graphics/SVG/1.1/DTD/svg11.dtd">
<!-- Generated by graphviz version 9.0.0 (20230911.1827)
 -->
<!-- Title: fcarouge::matrix&lt; Type, Row, Column, Copyable &gt; Pages: 1 -->
<svg width="230pt" height="791pt"
 viewBox="0.00 0.00 230.00 790.50" xmlns="http://www.w3.org/2000/svg" xmlns:xlink="http://www.w3.org/1999/xlink">
<g id="graph0" class="graph" transform="scale(1 1) rotate(0) translate(4 786.5)">
<title>fcarouge::matrix&lt; Type, Row, Column, Copyable &gt;</title>
<!-- Node1 -->
<g id="Node000001" class="node">
<title>Node1</title>
<g id="a_Node000001"><a xlink:title=" ">
<polygon fill="#999999" stroke="none" points="179.5,-675 56.5,-675 56.5,0 179.5,0 179.5,-675"/>
<text text-anchor="start" x="61.38" y="-661.5" font-family="Helvetica,sans-Serif" font-size="10.00">fcarouge::matrix&lt; Type,</text>
<text text-anchor="start" x="61.38" y="-650.25" font-family="Helvetica,sans-Serif" font-size="10.00"> Row, Column, Copyable &gt;</text>
<text text-anchor="start" x="116.5" y="-635.5" font-family="Helvetica,sans-Serif" font-size="10.00"> </text>
<text text-anchor="start" x="74.5" y="-620.5" font-family="Helvetica,sans-Serif" font-size="10.00">+</text>
<text text-anchor="start" x="98.5" y="-620.5" font-family="Helvetica,sans-Serif" font-size="10.00">matrix()</text>
<text text-anchor="start" x="74.5" y="-605.5" font-family="Helvetica,sans-Serif" font-size="10.00">+</text>
<text text-anchor="start" x="98.5" y="-605.5" font-family="Helvetica,sans-Serif" font-size="10.00">matrix()</text>
<text text-anchor="start" x="74.5" y="-590.5" font-family="Helvetica,sans-Serif" font-size="10.00">+</text>
<text text-anchor="start" x="98.5" y="-590.5" font-family="Helvetica,sans-Serif" font-size="10.00">matrix()</text>
<text text-anchor="start" x="74.5" y="-575.5" font-family="Helvetica,sans-Serif" font-size="10.00">+</text>
<text text-anchor="start" x="98.5" y="-575.5" font-family="Helvetica,sans-Serif" font-size="10.00">operator=()</text>
<text text-anchor="start" x="74.5" y="-560.5" font-family="Helvetica,sans-Serif" font-size="10.00">+</text>
<text text-anchor="start" x="98.5" y="-560.5" font-family="Helvetica,sans-Serif" font-size="10.00">operator=()</text>
<text text-anchor="start" x="74.5" y="-545.5" font-family="Helvetica,sans-Serif" font-size="10.00">+</text>
<text text-anchor="start" x="98.5" y="-545.5" font-family="Helvetica,sans-Serif" font-size="10.00">matrix()</text>
<text text-anchor="start" x="74.5" y="-530.5" font-family="Helvetica,sans-Serif" font-size="10.00">+</text>
<text text-anchor="start" x="98.5" y="-530.5" font-family="Helvetica,sans-Serif" font-size="10.00">matrix()</text>
<text text-anchor="start" x="74.5" y="-515.5" font-family="Helvetica,sans-Serif" font-size="10.00">+</text>
<text text-anchor="start" x="98.5" y="-515.5" font-family="Helvetica,sans-Serif" font-size="10.00">operator=()</text>
<text text-anchor="start" x="74.5" y="-500.5" font-family="Helvetica,sans-Serif" font-size="10.00">+</text>
<text text-anchor="start" x="98.5" y="-500.5" font-family="Helvetica,sans-Serif" font-size="10.00">operator=()</text>
<text text-anchor="start" x="74.5" y="-485.5" font-family="Helvetica,sans-Serif" font-size="10.00">+</text>
<text text-anchor="start" x="98.5" y="-485.5" font-family="Helvetica,sans-Serif" font-size="10.00">matrix()</text>
<text text-anchor="start" x="74.5" y="-470.5" font-family="Helvetica,sans-Serif" font-size="10.00">+</text>
<text text-anchor="start" x="98.5" y="-470.5" font-family="Helvetica,sans-Serif" font-size="10.00">matrix()</text>
<text text-anchor="start" x="74.5" y="-455.5" font-family="Helvetica,sans-Serif" font-size="10.00">+</text>
<text text-anchor="start" x="98.5" y="-455.5" font-family="Helvetica,sans-Serif" font-size="10.00">matrix()</text>
<text text-anchor="start" x="74.5" y="-440.5" font-family="Helvetica,sans-Serif" font-size="10.00">+</text>
<text text-anchor="start" x="98.5" y="-440.5" font-family="Helvetica,sans-Serif" font-size="10.00">matrix()</text>
<text text-anchor="start" x="74.5" y="-425.5" font-family="Helvetica,sans-Serif" font-size="10.00">+</text>
<text text-anchor="start" x="98.5" y="-425.5" font-family="Helvetica,sans-Serif" font-size="10.00">matrix()</text>
<text text-anchor="start" x="74.5" y="-410.5" font-family="Helvetica,sans-Serif" font-size="10.00">+</text>
<text text-anchor="start" x="98.5" y="-410.5" font-family="Helvetica,sans-Serif" font-size="10.00">clone()</text>
<text text-anchor="start" x="74.5" y="-395.5" font-family="Helvetica,sans-Serif" font-size="10.00">+</text>
<text text-anchor="start" x="98.5" y="-395.5" font-family="Helvetica,sans-Serif" font-size="10.00">explicit()</text>
<text text-anchor="start" x="74.5" y="-380.5" font-family="Helvetica,sans-Serif" font-size="10.00">+</text>
<text text-anchor="start" x="98.5" y="-380.5" font-family="Helvetica,sans-Serif" font-size="10.00">!Copyable()</text>
<text text-anchor="start" x="74.5" y="-365.5" font-family="Helvetica,sans-Serif" font-size="10.00">+</text>
<text text-anchor="start" x="98.5" y="-365.5" font-family="Helvetica,sans-Serif" font-size="10.00">explicit()</text>
<text text-anchor="start" x="74.5" y="-350.5" font-family="Helvetica,sans-Serif" font-size="10.00">+</text>
<text text-anchor="start" x="98.5" y="-350.5" font-family="Helvetica,sans-Serif" font-size="10.00">explicit()</text>
<text text-anchor="start" x="74.5" y="-335.5" font-family="Helvetica,sans-Serif" font-size="10.00">+</text>
<text text-anchor="start" x="98.5" y="-335.5" font-family="Helvetica,sans-Serif" font-size="10.00">operator[]()</text>
<text text-anchor="start" x="74.5" y="-320.5" font-family="Helvetica,sans-Serif" font-size="10.00">+</text>
<text text-anchor="start" x="98.5" y="-320.5" font-family="Helvetica,sans-Serif" font-size="10.00">operator()()</text>
<text text-anchor="start" x="74.5" y="-305.5" font-family="Helvetica,sans-Serif" font-size="10.00">+</text>
<text text-anchor="start" x="98.5" y="-305.5" font-family="Helvetica,sans-Serif" font-size="10.00">operator()()</text>
<text text-anchor="start" x="74.5" y="-290.5" font-family="Helvetica,sans-Serif" font-size="10.00">+</text>
<text text-anchor="start" x="98.5" y="-290.5" font-family="Helvetica,sans-Serif" font-size="10.00">operator()()</text>
<text text-anchor="start" x="74.5" y="-275.5" font-family="Helvetica,sans-Serif" font-size="10.00">+</text>
<text text-anchor="start" x="98.5" y="-275.5" font-family="Helvetica,sans-Serif" font-size="10.00">begin()</text>
<text text-anchor="start" x="74.5" y="-260.5" font-family="Helvetica,sans-Serif" font-size="10.00">+</text>
<text text-anchor="start" x="98.5" y="-260.5" font-family="Helvetica,sans-Serif" font-size="10.00">end()</text>
<text text-anchor="start" x="74.5" y="-245.5" font-family="Helvetica,sans-Serif" font-size="10.00">+</text>
<text text-anchor="start" x="98.5" y="-245.5" font-family="Helvetica,sans-Serif" font-size="10.00">matrix()</text>
<text text-anchor="start" x="74.5" y="-230.5" font-family="Helvetica,sans-Serif" font-size="10.00">+</text>
<text text-anchor="start" x="98.5" y="-230.5" font-family="Helvetica,sans-Serif" font-size="10.00">matrix()</text>
<text text-anchor="start" x="74.5" y="-215.5" font-family="Helvetica,sans-Serif" font-size="10.00">+</text>
<text text-anchor="start" x="98.5" y="-215.5" font-family="Helvetica,sans-Serif" font-size="10.00">operator=()</text>
<text text-anchor="start" x="74.5" y="-200.5" font-family="Helvetica,sans-Serif" font-size="10.00">+</text>
<text text-anchor="start" x="98.5" y="-200.5" font-family="Helvetica,sans-Serif" font-size="10.00">matrix()</text>
<text text-anchor="start" x="74.5" y="-185.5" font-family="Helvetica,sans-Serif" font-size="10.00">+</text>
<text text-anchor="start" x="98.5" y="-185.5" font-family="Helvetica,sans-Serif" font-size="10.00">operator=()</text>
<text text-anchor="start" x="74.5" y="-170.5" font-family="Helvetica,sans-Serif" font-size="10.00">+</text>
<text text-anchor="start" x="98.5" y="-170.5" font-family="Helvetica,sans-Serif" font-size="10.00">matrix()</text>
<text text-anchor="start" x="74.5" y="-155.5" font-family="Helvetica,sans-Serif" font-size="10.00">+</text>
<text text-anchor="start" x="98.5" y="-155.5" font-family="Helvetica,sans-Serif" font-size="10.00">matrix()</text>
<text text-anchor="start" x="74.5" y="-140.5" font-family="Helvetica,sans-Serif" font-size="10.00">+</text>
<text text-anchor="start" x="98.5" y="-140.5" font-family="Helvetica,sans-Serif" font-size="10.00">matrix()</text>
<text text-anchor="start" x="74.5" y="-125.5" font-family="Helvetica,sans-Serif" font-size="10.00">+</text>
<text text-anchor="start" x="98.5" y="-125.5" font-family="Helvetica,sans-Serif" font-size="10.00">matrix()</text>
<text text-anchor="start" x="74.5" y="-110.5" font-family="Helvetica,sans-Serif" font-size="10.00">+</text>
<text text-anchor="start" x="98.5" y="-110.5" font-family="Helvetica,sans-Serif" font-size="10.00">matrix()</text>
<text text-anchor="start" x="74.5" y="-95.5" font-family="Helvetica,sans-Serif" font-size="10.00">+</text>
<text text-anchor="start" x="98.5" y="-95.5" font-family="Helvetica,sans-Serif" font-size="10.00">matrix()</text>
<text text-anchor="start" x="74.5" y="-80.5" font-family="Helvetica,sans-Serif" font-size="10.00">+</text>
<text text-anchor="start" x="98.5" y="-80.5" font-family="Helvetica,sans-Serif" font-size="10.00">explicit()</text>
<text text-anchor="start" x="74.5" y="-65.5" font-family="Helvetica,sans-Serif" font-size="10.00">+</text>
<text text-anchor="start" x="98.5" y="-65.5" font-family="Helvetica,sans-Serif" font-size="10.00">operator[]()</text>
<text text-anchor="start" x="74.5" y="-50.5" font-family="Helvetica,sans-Serif" font-size="10.00">+</text>
<text text-anchor="start" x="98.5" y="-50.5" font-family="Helvetica,sans-Serif" font-size="10.00">operator[]()</text>
<text text-anchor="start" x="74.5" y="-35.5" font-family="Helvetica,sans-Serif" font-size="10.00">+</text>
<text text-anchor="start" x="98.5" y="-35.5" font-family="Helvetica,sans-Serif" font-size="10.00">operator()()</text>
<text text-anchor="start" x="74.5" y="-20.5" font-family="Helvetica,sans-Serif" font-size="10.00">+</text>
<text text-anchor="start" x="98.5" y="-20.5" font-family="Helvetica,sans-Serif" font-size="10.00">operator()()</text>
<text text-anchor="start" x="74.5" y="-5.5" font-family="Helvetica,sans-Serif" font-size="10.00">+</text>
<text text-anchor="start" x="98.5" y="-5.5" font-family="Helvetica,sans-Serif" font-size="10.00">operator()()</text>
<polygon fill="#666666" stroke="#666666" points="56.5,-647 56.5,-647 179.5,-647 179.5,-647 56.5,-647"/>
<polygon fill="#666666" stroke="#666666" points="56.5,-632 56.5,-632 179.5,-632 179.5,-632 56.5,-632"/>
<polygon fill="none" stroke="#666666" points="56.5,0 56.5,-675 179.5,-675 179.5,0 56.5,0"/>
</a>
</g>
</g>
<!-- Node2 -->
<g id="Node000002" class="node">
<title>Node2</title>
<g id="a_Node000002"><a xlink:title=" ">
<polygon fill="white" stroke="none" points="52,-782.5 0,-782.5 0,-733.5 52,-733.5 52,-782.5"/>
<text text-anchor="start" x="5" y="-769" font-family="Helvetica,sans-Serif" font-size="10.00">constexpr</text>
<text text-anchor="start" x="24.5" y="-754" font-family="Helvetica,sans-Serif" font-size="10.00"> </text>
<text text-anchor="start" x="24.5" y="-739" font-family="Helvetica,sans-Serif" font-size="10.00"> </text>
<polygon fill="#666666" stroke="#666666" points="0,-765.5 0,-765.5 52,-765.5 52,-765.5 0,-765.5"/>
<polygon fill="#666666" stroke="#666666" points="0,-750.5 0,-750.5 52,-750.5 52,-750.5 0,-750.5"/>
<polygon fill="none" stroke="#666666" points="0,-733.5 0,-782.5 52,-782.5 52,-733.5 0,-733.5"/>
</a>
</g>
</g>
<!-- Node2&#45;&gt;Node1 -->
<g id="edge1_Node000001_Node000002" class="edge">
<title>Node2&#45;&gt;Node1</title>
<g id="a_edge1_Node000001_Node000002"><a xlink:title=" ">
<path fill="none" stroke="#63b8ff" d="M31.14,-733.6C36.15,-710.84 44.36,-673.47 53.8,-630.56"/>
<polygon fill="none" stroke="#63b8ff" points="53.78,-630.61 51.17,-623.89 56.36,-618.89 58.98,-625.61 53.78,-630.61"/>
</a>
</g>
<text text-anchor="middle" x="60.62" y="-706" font-family="Helvetica,sans-Serif" font-size="10.00" fill="grey"> +Column</text>
<text text-anchor="middle" x="60.62" y="-694.75" font-family="Helvetica,sans-Serif" font-size="10.00" fill="grey">+Row</text>
</g>
<!-- Node3 -->
<g id="Node000003" class="node">
<title>Node3</title>
<g id="a_Node000003"><a xlink:title=" ">
<polygon fill="white" stroke="none" points="165.5,-782.5 70.5,-782.5 70.5,-733.5 165.5,-733.5 165.5,-782.5"/>
<text text-anchor="start" x="75.25" y="-769" font-family="Helvetica,sans-Serif" font-size="10.00">generator&lt; double &gt;</text>
<text text-anchor="start" x="116.5" y="-754" font-family="Helvetica,sans-Serif" font-size="10.00"> </text>
<text text-anchor="start" x="116.5" y="-739" font-family="Helvetica,sans-Serif" font-size="10.00"> </text>
<polygon fill="#666666" stroke="#666666" points="70.5,-765.5 70.5,-765.5 165.5,-765.5 165.5,-765.5 70.5,-765.5"/>
<polygon fill="#666666" stroke="#666666" points="70.5,-750.5 70.5,-750.5 165.5,-750.5 165.5,-750.5 70.5,-750.5"/>
<polygon fill="none" stroke="#666666" points="70.5,-733.5 70.5,-782.5 165.5,-782.5 165.5,-733.5 70.5,-733.5"/>
</a>
</g>
</g>
<!-- Node3&#45;&gt;Node1 -->
<g id="edge2_Node000001_Node000003" class="edge">
<title>Node3&#45;&gt;Node1</title>
<g id="a_edge2_Node000001_Node000003"><a xlink:title=" ">
<path fill="none" stroke="#63b8ff" d="M118,-733.6C118,-721.8 118,-706.07 118,-687.67"/>
<polygon fill="none" stroke="#63b8ff" points="118,-687.78 114,-681.78 118,-675.78 122,-681.78 118,-687.78"/>
</a>
</g>
<text text-anchor="middle" x="133.75" y="-700.38" font-family="Helvetica,sans-Serif" font-size="10.00" fill="grey"> +genie</text>
</g>
<!-- Node4 -->
<g id="Node000004" class="node">
<title>Node4</title>
<g id="a_Node000004"><a xlink:title=" ">
<polygon fill="white" stroke="none" points="222,-782.5 184,-782.5 184,-733.5 222,-733.5 222,-782.5"/>
<text text-anchor="start" x="188.75" y="-769" font-family="Helvetica,sans-Serif" font-size="10.00">double</text>
<text text-anchor="start" x="201.5" y="-754" font-family="Helvetica,sans-Serif" font-size="10.00"> </text>
<text text-anchor="start" x="201.5" y="-739" font-family="Helvetica,sans-Serif" font-size="10.00"> </text>
<polygon fill="#666666" stroke="#666666" points="184,-765.5 184,-765.5 222,-765.5 222,-765.5 184,-765.5"/>
<polygon fill="#666666" stroke="#666666" points="184,-750.5 184,-750.5 222,-750.5 222,-750.5 184,-750.5"/>
<polygon fill="none" stroke="#666666" points="184,-733.5 184,-782.5 222,-782.5 222,-733.5 184,-733.5"/>
</a>
</g>
</g>
<!-- Node4&#45;&gt;Node1 -->
<g id="edge3_Node000001_Node000004" class="edge">
<title>Node4&#45;&gt;Node1</title>
<g id="a_edge3_Node000001_Node000004"><a xlink:title=" ">
<path fill="none" stroke="#63b8ff" d="M198.25,-733.6C194.46,-714.98 188.7,-686.57 181.95,-653.36"/>
<polygon fill="none" stroke="#63b8ff" points="181.99,-653.56 176.88,-648.48 179.6,-641.8 184.72,-646.88 181.99,-653.56"/>
</a>
</g>
<text text-anchor="middle" x="207.5" y="-700.38" font-family="Helvetica,sans-Serif" font-size="10.00" fill="grey"> +data</text>
</g>
</g>
</svg>
