<?xml version="1.0" encoding="UTF-8" standalone="no"?>
<!DOCTYPE svg PUBLIC "-//W3C//DTD SVG 1.1//EN"
 "http://www.w3.org/Graphics/SVG/1.1/DTD/svg11.dtd">
<!-- Generated by graphviz version 12.2.0 (20241103.1931)
 -->
<!-- Title: fcarouge::indexed::matrix&lt; Matrix, RowIndexes, ColumnIndexes &gt; Pages: 1 -->
<svg width="140pt" height="437pt"
 viewBox="0.00 0.00 140.12 436.50" xmlns="http://www.w3.org/2000/svg" xmlns:xlink="http://www.w3.org/1999/xlink">
<g id="graph0" class="graph" transform="scale(1 1) rotate(0) translate(4 432.5)">
<title>fcarouge::indexed::matrix&lt; Matrix, RowIndexes, ColumnIndexes &gt;</title>
<!-- Node1 -->
<g id="Node000001" class="node">
<title>Node1</title>
<g id="a_Node000001"><a xlink:title="Indexed matrix.">
<polygon fill="#999999" stroke="none" points="132.12,-331.5 1.88,-331.5 1.88,0 132.12,0 132.12,-331.5"/>
<text text-anchor="start" x="5.88" y="-318" font-family="Helvetica,sans-Serif" font-size="10.00">fcarouge::indexed::</text>
<text text-anchor="start" x="5.88" y="-306.75" font-family="Helvetica,sans-Serif" font-size="10.00">matrix&lt; Matrix, RowIndexes,</text>
<text text-anchor="start" x="28.38" y="-295.5" font-family="Helvetica,sans-Serif" font-size="10.00"> ColumnIndexes &gt;</text>
<text text-anchor="start" x="65.5" y="-280.25" font-family="Helvetica,sans-Serif" font-size="10.00"> </text>
<text text-anchor="start" x="15.75" y="-265" font-family="Helvetica,sans-Serif" font-size="10.00">+</text>
<text text-anchor="start" x="35.62" y="-265" font-family="Helvetica,sans-Serif" font-size="10.00">matrix()</text>
<text text-anchor="start" x="15.75" y="-249.75" font-family="Helvetica,sans-Serif" font-size="10.00">+</text>
<text text-anchor="start" x="35.62" y="-249.75" font-family="Helvetica,sans-Serif" font-size="10.00">matrix()</text>
<text text-anchor="start" x="15.75" y="-234.5" font-family="Helvetica,sans-Serif" font-size="10.00">+</text>
<text text-anchor="start" x="35.62" y="-234.5" font-family="Helvetica,sans-Serif" font-size="10.00">operator=()</text>
<text text-anchor="start" x="15.75" y="-219.25" font-family="Helvetica,sans-Serif" font-size="10.00">+</text>
<text text-anchor="start" x="35.62" y="-219.25" font-family="Helvetica,sans-Serif" font-size="10.00">matrix()</text>
<text text-anchor="start" x="15.75" y="-204" font-family="Helvetica,sans-Serif" font-size="10.00">+</text>
<text text-anchor="start" x="35.62" y="-204" font-family="Helvetica,sans-Serif" font-size="10.00">operator=()</text>
<text text-anchor="start" x="15.75" y="-188.75" font-family="Helvetica,sans-Serif" font-size="10.00">+</text>
<text text-anchor="start" x="35.62" y="-188.75" font-family="Helvetica,sans-Serif" font-size="10.00">matrix()</text>
<text text-anchor="start" x="15.75" y="-173.5" font-family="Helvetica,sans-Serif" font-size="10.00">+</text>
<text text-anchor="start" x="35.62" y="-173.5" font-family="Helvetica,sans-Serif" font-size="10.00">matrix()</text>
<text text-anchor="start" x="15.75" y="-158.25" font-family="Helvetica,sans-Serif" font-size="10.00">+</text>
<text text-anchor="start" x="35.62" y="-158.25" font-family="Helvetica,sans-Serif" font-size="10.00">matrix()</text>
<text text-anchor="start" x="15.75" y="-143" font-family="Helvetica,sans-Serif" font-size="10.00">+</text>
<text text-anchor="start" x="35.62" y="-143" font-family="Helvetica,sans-Serif" font-size="10.00">matrix()</text>
<text text-anchor="start" x="15.75" y="-127.75" font-family="Helvetica,sans-Serif" font-size="10.00">+</text>
<text text-anchor="start" x="35.62" y="-127.75" font-family="Helvetica,sans-Serif" font-size="10.00">matrix()</text>
<text text-anchor="start" x="15.75" y="-112.5" font-family="Helvetica,sans-Serif" font-size="10.00">+</text>
<text text-anchor="start" x="35.62" y="-112.5" font-family="Helvetica,sans-Serif" font-size="10.00">explicit()</text>
<text text-anchor="start" x="15.75" y="-97.25" font-family="Helvetica,sans-Serif" font-size="10.00">+</text>
<text text-anchor="start" x="35.62" y="-97.25" font-family="Helvetica,sans-Serif" font-size="10.00">ColumnIndexes()</text>
<text text-anchor="start" x="15.75" y="-82" font-family="Helvetica,sans-Serif" font-size="10.00">+</text>
<text text-anchor="start" x="35.62" y="-82" font-family="Helvetica,sans-Serif" font-size="10.00">operator[]()</text>
<text text-anchor="start" x="15.75" y="-66.75" font-family="Helvetica,sans-Serif" font-size="10.00">+</text>
<text text-anchor="start" x="35.62" y="-66.75" font-family="Helvetica,sans-Serif" font-size="10.00">operator[]()</text>
<text text-anchor="start" x="15.75" y="-51.5" font-family="Helvetica,sans-Serif" font-size="10.00">+</text>
<text text-anchor="start" x="35.62" y="-51.5" font-family="Helvetica,sans-Serif" font-size="10.00">operator[]()</text>
<text text-anchor="start" x="15.75" y="-36.25" font-family="Helvetica,sans-Serif" font-size="10.00">+</text>
<text text-anchor="start" x="35.62" y="-36.25" font-family="Helvetica,sans-Serif" font-size="10.00">operator()()</text>
<text text-anchor="start" x="15.75" y="-21" font-family="Helvetica,sans-Serif" font-size="10.00">+</text>
<text text-anchor="start" x="35.62" y="-21" font-family="Helvetica,sans-Serif" font-size="10.00">operator()()</text>
<text text-anchor="start" x="15.75" y="-5.75" font-family="Helvetica,sans-Serif" font-size="10.00">+</text>
<text text-anchor="start" x="35.62" y="-5.75" font-family="Helvetica,sans-Serif" font-size="10.00">operator()()</text>
<polygon fill="#666666" stroke="#666666" points="1.88,-291.75 1.88,-291.75 132.12,-291.75 132.12,-291.75 1.88,-291.75"/>
<polygon fill="#666666" stroke="#666666" points="1.88,-276.5 1.88,-276.5 132.12,-276.5 132.12,-276.5 1.88,-276.5"/>
<polygon fill="none" stroke="#666666" points="1.88,0 1.88,-331.5 132.12,-331.5 132.12,0 1.88,0"/>
</a>
</g>
</g>
<!-- Node2 -->
<g id="Node000002" class="node">
<title>Node2</title>
<g id="a_Node000002"><a xlink:title=" ">
<polygon fill="white" stroke="none" points="50,-428.5 0,-428.5 0,-378.75 50,-378.75 50,-428.5"/>
<text text-anchor="start" x="4" y="-415" font-family="Helvetica,sans-Serif" font-size="10.00">constexpr</text>
<text text-anchor="start" x="23.5" y="-399.75" font-family="Helvetica,sans-Serif" font-size="10.00"> </text>
<text text-anchor="start" x="23.5" y="-384.5" font-family="Helvetica,sans-Serif" font-size="10.00"> </text>
<polygon fill="#666666" stroke="#666666" points="0,-411.25 0,-411.25 50,-411.25 50,-411.25 0,-411.25"/>
<polygon fill="#666666" stroke="#666666" points="0,-396 0,-396 50,-396 50,-396 0,-396"/>
<polygon fill="none" stroke="#666666" points="0,-378.75 0,-428.5 50,-428.5 50,-378.75 0,-378.75"/>
</a>
</g>
</g>
<!-- Node2&#45;&gt;Node1 -->
<g id="edge1_Node000001_Node000002" class="edge">
<title>Node2&#45;&gt;Node1</title>
<g id="a_edge1_Node000001_Node000002"><a xlink:title=" ">
<path fill="none" stroke="#63b8ff" d="M24.71,-378.75C24.85,-369.58 25.32,-359.02 26.5,-349.5 26.72,-347.73 26.95,-345.95 27.18,-344.16"/>
<polygon fill="none" stroke="#63b8ff" points="27.19,-344.14 24.08,-337.64 28.88,-332.26 32,-338.77 27.19,-344.14"/>
</a>
</g>
<text text-anchor="middle" x="57.25" y="-351.25" font-family="Helvetica,sans-Serif" font-size="10.00" fill="grey"> +RowIndexes</text>
</g>
<!-- Node3 -->
<g id="Node000003" class="node">
<title>Node3</title>
<g id="a_Node000003"><a xlink:title=" ">
<polygon fill="white" stroke="none" points="127.12,-428.5 92.88,-428.5 92.88,-378.75 127.12,-378.75 127.12,-428.5"/>
<text text-anchor="start" x="96.88" y="-415" font-family="Helvetica,sans-Serif" font-size="10.00">Matrix</text>
<text text-anchor="start" x="108.5" y="-399.75" font-family="Helvetica,sans-Serif" font-size="10.00"> </text>
<text text-anchor="start" x="108.5" y="-384.5" font-family="Helvetica,sans-Serif" font-size="10.00"> </text>
<polygon fill="#666666" stroke="#666666" points="92.88,-411.25 92.88,-411.25 127.12,-411.25 127.12,-411.25 92.88,-411.25"/>
<polygon fill="#666666" stroke="#666666" points="92.88,-396 92.88,-396 127.12,-396 127.12,-396 92.88,-396"/>
<polygon fill="none" stroke="#666666" points="92.88,-378.75 92.88,-428.5 127.12,-428.5 127.12,-378.75 92.88,-378.75"/>
</a>
</g>
</g>
<!-- Node3&#45;&gt;Node1 -->
<g id="edge2_Node000001_Node000003" class="edge">
<title>Node3&#45;&gt;Node1</title>
<g id="a_edge2_Node000001_Node000003"><a xlink:title=" ">
<path fill="none" stroke="#63b8ff" d="M105.72,-379.15C103.96,-369.51 101.76,-357.45 99.31,-343.99"/>
<polygon fill="none" stroke="#63b8ff" points="99.31,-343.97 94.3,-338.78 97.15,-332.16 102.17,-337.35 99.31,-343.97"/>
</a>
</g>
<text text-anchor="middle" x="115.27" y="-351.25" font-family="Helvetica,sans-Serif" font-size="10.00" fill="grey"> +data</text>
</g>
</g>
</svg>
