<?xml version="1.0" encoding="UTF-8" standalone="no"?>
<!DOCTYPE svg PUBLIC "-//W3C//DTD SVG 1.1//EN"
 "http://www.w3.org/Graphics/SVG/1.1/DTD/svg11.dtd">
<!-- Generated by graphviz version 2.49.3 (20211027.1534)
 -->
<!-- Title: fcarouge::internal::kalman&lt; State, Output, Input, Transpose, Symmetrize, Divide, Identity, Multiply, PredictionArguments &gt; Pages: 1 -->
<svg width="1380pt" height="512pt"
 viewBox="0.00 0.00 1380.00 512.00" xmlns="http://www.w3.org/2000/svg" xmlns:xlink="http://www.w3.org/1999/xlink">
<g id="graph0" class="graph" transform="scale(1 1) rotate(0) translate(4 508)">
<title>fcarouge::internal::kalman&lt; State, Output, Input, Transpose, Symmetrize, Divide, Identity, Multiply, PredictionArguments &gt;</title>
<polygon fill="white" stroke="transparent" points="-4,4 -4,-508 1376,-508 1376,4 -4,4"/>
<!-- Node1 -->
<g id="node1" class="node">
<title>Node1</title>
<g id="a_node1"><a xlink:title=" ">
<polygon fill="#bfbfbf" stroke="black" points="745.5,-0.5 745.5,-288.5 896.5,-288.5 896.5,-0.5 745.5,-0.5"/>
<text text-anchor="start" x="753.5" y="-276.5" font-family="Helvetica,sans-Serif" font-size="10.00">fcarouge::internal</text>
<text text-anchor="start" x="753.5" y="-265.5" font-family="Helvetica,sans-Serif" font-size="10.00">::kalman&lt; State, Output,</text>
<text text-anchor="start" x="753.5" y="-254.5" font-family="Helvetica,sans-Serif" font-size="10.00"> Input, Transpose, Symmetrize,</text>
<text text-anchor="start" x="753.5" y="-243.5" font-family="Helvetica,sans-Serif" font-size="10.00"> Divide, Identity, Multiply,</text>
<text text-anchor="middle" x="821" y="-232.5" font-family="Helvetica,sans-Serif" font-size="10.00"> PredictionArguments &gt;</text>
<polyline fill="none" stroke="black" points="745.5,-225.5 896.5,-225.5 "/>
<text text-anchor="middle" x="821" y="-213.5" font-family="Helvetica,sans-Serif" font-size="10.00"> </text>
<polyline fill="none" stroke="black" points="745.5,-206.5 896.5,-206.5 "/>
<text text-anchor="start" x="753.5" y="-194.5" font-family="Helvetica,sans-Serif" font-size="10.00">+ update()</text>
<text text-anchor="start" x="753.5" y="-183.5" font-family="Helvetica,sans-Serif" font-size="10.00">+ predict()</text>
<text text-anchor="start" x="753.5" y="-172.5" font-family="Helvetica,sans-Serif" font-size="10.00">+ predict()</text>
<text text-anchor="start" x="753.5" y="-161.5" font-family="Helvetica,sans-Serif" font-size="10.00">* state</text>
<text text-anchor="start" x="753.5" y="-150.5" font-family="Helvetica,sans-Serif" font-size="10.00">* output</text>
<text text-anchor="start" x="753.5" y="-139.5" font-family="Helvetica,sans-Serif" font-size="10.00">* input</text>
<text text-anchor="start" x="753.5" y="-128.5" font-family="Helvetica,sans-Serif" font-size="10.00">* estimate_uncertainty</text>
<text text-anchor="start" x="753.5" y="-117.5" font-family="Helvetica,sans-Serif" font-size="10.00">* process_uncertainty</text>
<text text-anchor="start" x="753.5" y="-106.5" font-family="Helvetica,sans-Serif" font-size="10.00">* output_uncertainty</text>
<text text-anchor="start" x="753.5" y="-95.5" font-family="Helvetica,sans-Serif" font-size="10.00">* state_transition</text>
<text text-anchor="start" x="753.5" y="-84.5" font-family="Helvetica,sans-Serif" font-size="10.00">* output_model</text>
<text text-anchor="start" x="753.5" y="-73.5" font-family="Helvetica,sans-Serif" font-size="10.00">* input_control</text>
<text text-anchor="start" x="753.5" y="-62.5" font-family="Helvetica,sans-Serif" font-size="10.00">* gain</text>
<text text-anchor="start" x="753.5" y="-51.5" font-family="Helvetica,sans-Serif" font-size="10.00">* innovation</text>
<text text-anchor="start" x="753.5" y="-40.5" font-family="Helvetica,sans-Serif" font-size="10.00">* innovation_uncertainty</text>
<text text-anchor="start" x="753.5" y="-29.5" font-family="Helvetica,sans-Serif" font-size="10.00">* update()</text>
<text text-anchor="start" x="753.5" y="-18.5" font-family="Helvetica,sans-Serif" font-size="10.00">* predict()</text>
<text text-anchor="start" x="753.5" y="-7.5" font-family="Helvetica,sans-Serif" font-size="10.00">* predict()</text>
</a>
</g>
</g>
<!-- Node2 -->
<g id="node2" class="node">
<title>Node2</title>
<g id="a_node2"><a xlink:title=" ">
<polygon fill="white" stroke="#bfbfbf" points="0,-435.5 0,-492.5 40,-492.5 40,-435.5 0,-435.5"/>
<text text-anchor="middle" x="20" y="-480.5" font-family="Helvetica,sans-Serif" font-size="10.00">State</text>
<polyline fill="none" stroke="#bfbfbf" points="0,-473.5 40,-473.5 "/>
<text text-anchor="middle" x="20" y="-461.5" font-family="Helvetica,sans-Serif" font-size="10.00"> </text>
<polyline fill="none" stroke="#bfbfbf" points="0,-454.5 40,-454.5 "/>
<text text-anchor="middle" x="20" y="-442.5" font-family="Helvetica,sans-Serif" font-size="10.00"> </text>
</a>
</g>
</g>
<!-- Node2&#45;&gt;Node1 -->
<g id="edge1" class="edge">
<title>Node2&#45;&gt;Node1</title>
<path fill="none" stroke="#404040" d="M37.16,-435.32C60.74,-399.76 106.59,-338.84 162,-307 347.46,-200.43 601.37,-163.79 733.33,-151.49"/>
<polygon fill="none" stroke="#404040" points="733.37,-151.49 738.99,-146.96 745.32,-150.41 739.71,-154.93 733.37,-151.49"/>
<text text-anchor="middle" x="168.5" y="-354" font-family="Helvetica,sans-Serif" font-size="10.00"> +x</text>
</g>
<!-- Node3 -->
<g id="node3" class="node">
<title>Node3</title>
<g id="a_node3"><a xlink:title=" ">
<polygon fill="white" stroke="#bfbfbf" points="58.5,-424.5 58.5,-503.5 179.5,-503.5 179.5,-424.5 58.5,-424.5"/>
<text text-anchor="start" x="66.5" y="-491.5" font-family="Helvetica,sans-Serif" font-size="10.00">decay_t&lt; std::invoke</text>
<text text-anchor="start" x="66.5" y="-480.5" font-family="Helvetica,sans-Serif" font-size="10.00">_result_t&lt; Divide, State,</text>
<text text-anchor="middle" x="119" y="-469.5" font-family="Helvetica,sans-Serif" font-size="10.00"> State &gt; &gt;</text>
<polyline fill="none" stroke="#bfbfbf" points="58.5,-462.5 179.5,-462.5 "/>
<text text-anchor="middle" x="119" y="-450.5" font-family="Helvetica,sans-Serif" font-size="10.00"> </text>
<polyline fill="none" stroke="#bfbfbf" points="58.5,-443.5 179.5,-443.5 "/>
<text text-anchor="middle" x="119" y="-431.5" font-family="Helvetica,sans-Serif" font-size="10.00"> </text>
</a>
</g>
</g>
<!-- Node3&#45;&gt;Node1 -->
<g id="edge2" class="edge">
<title>Node3&#45;&gt;Node1</title>
<path fill="none" stroke="#404040" d="M157.12,-424.39C193.54,-389.41 251.43,-338.65 310,-307 448.91,-231.92 628.22,-185.41 733.31,-162.59"/>
<polygon fill="none" stroke="#404040" points="733.39,-162.57 738.42,-157.4 745.13,-160.05 740.1,-165.22 733.39,-162.57"/>
<text text-anchor="middle" x="316" y="-365" font-family="Helvetica,sans-Serif" font-size="10.00"> +f</text>
<text text-anchor="middle" x="316" y="-354" font-family="Helvetica,sans-Serif" font-size="10.00">+p</text>
<text text-anchor="middle" x="316" y="-343" font-family="Helvetica,sans-Serif" font-size="10.00">+q</text>
</g>
<!-- Node4 -->
<g id="node4" class="node">
<title>Node4</title>
<g id="a_node4"><a xlink:title=" ">
<polygon fill="white" stroke="#bfbfbf" points="197.5,-424.5 197.5,-503.5 324.5,-503.5 324.5,-424.5 197.5,-424.5"/>
<text text-anchor="start" x="205.5" y="-491.5" font-family="Helvetica,sans-Serif" font-size="10.00">decay_t&lt; std::invoke</text>
<text text-anchor="start" x="205.5" y="-480.5" font-family="Helvetica,sans-Serif" font-size="10.00">_result_t&lt; Divide, Output,</text>
<text text-anchor="middle" x="261" y="-469.5" font-family="Helvetica,sans-Serif" font-size="10.00"> Output &gt; &gt;</text>
<polyline fill="none" stroke="#bfbfbf" points="197.5,-462.5 324.5,-462.5 "/>
<text text-anchor="middle" x="261" y="-450.5" font-family="Helvetica,sans-Serif" font-size="10.00"> </text>
<polyline fill="none" stroke="#bfbfbf" points="197.5,-443.5 324.5,-443.5 "/>
<text text-anchor="middle" x="261" y="-431.5" font-family="Helvetica,sans-Serif" font-size="10.00"> </text>
</a>
</g>
</g>
<!-- Node4&#45;&gt;Node1 -->
<g id="edge3" class="edge">
<title>Node4&#45;&gt;Node1</title>
<path fill="none" stroke="#404040" d="M301.37,-424.49C338.43,-390.54 395.93,-341.28 452,-307 543.08,-251.32 656.76,-204.61 733.69,-175.98"/>
<polygon fill="none" stroke="#404040" points="733.98,-175.87 738.22,-170.04 745.24,-171.72 741,-177.55 733.98,-175.87"/>
<text text-anchor="middle" x="458" y="-354" font-family="Helvetica,sans-Serif" font-size="10.00"> +r</text>
</g>
<!-- Node5 -->
<g id="node5" class="node">
<title>Node5</title>
<g id="a_node5"><a xlink:title=" ">
<polygon fill="white" stroke="#bfbfbf" points="342.5,-424.5 342.5,-503.5 469.5,-503.5 469.5,-424.5 342.5,-424.5"/>
<text text-anchor="start" x="350.5" y="-491.5" font-family="Helvetica,sans-Serif" font-size="10.00">decay_t&lt; std::invoke</text>
<text text-anchor="start" x="350.5" y="-480.5" font-family="Helvetica,sans-Serif" font-size="10.00">_result_t&lt; Divide, Output,</text>
<text text-anchor="middle" x="406" y="-469.5" font-family="Helvetica,sans-Serif" font-size="10.00"> State &gt; &gt;</text>
<polyline fill="none" stroke="#bfbfbf" points="342.5,-462.5 469.5,-462.5 "/>
<text text-anchor="middle" x="406" y="-450.5" font-family="Helvetica,sans-Serif" font-size="10.00"> </text>
<polyline fill="none" stroke="#bfbfbf" points="342.5,-443.5 469.5,-443.5 "/>
<text text-anchor="middle" x="406" y="-431.5" font-family="Helvetica,sans-Serif" font-size="10.00"> </text>
</a>
</g>
</g>
<!-- Node5&#45;&gt;Node1 -->
<g id="edge4" class="edge">
<title>Node5&#45;&gt;Node1</title>
<path fill="none" stroke="#404040" d="M446.93,-424.27C482.01,-391.73 534.44,-344.64 583,-307 631.8,-269.18 688.98,-230.22 735.07,-200.04"/>
<polygon fill="none" stroke="#404040" points="735.27,-199.9 738.11,-193.27 745.32,-193.35 742.48,-199.97 735.27,-199.9"/>
<text text-anchor="middle" x="590" y="-354" font-family="Helvetica,sans-Serif" font-size="10.00"> +h</text>
</g>
<!-- Node6 -->
<g id="node6" class="node">
<title>Node6</title>
<g id="a_node6"><a xlink:title=" ">
<polygon fill="white" stroke="#bfbfbf" points="487.5,-424.5 487.5,-503.5 608.5,-503.5 608.5,-424.5 487.5,-424.5"/>
<text text-anchor="start" x="495.5" y="-491.5" font-family="Helvetica,sans-Serif" font-size="10.00">decay_t&lt; std::invoke</text>
<text text-anchor="start" x="495.5" y="-480.5" font-family="Helvetica,sans-Serif" font-size="10.00">_result_t&lt; Divide, State,</text>
<text text-anchor="middle" x="548" y="-469.5" font-family="Helvetica,sans-Serif" font-size="10.00"> Input &gt; &gt;</text>
<polyline fill="none" stroke="#bfbfbf" points="487.5,-462.5 608.5,-462.5 "/>
<text text-anchor="middle" x="548" y="-450.5" font-family="Helvetica,sans-Serif" font-size="10.00"> </text>
<polyline fill="none" stroke="#bfbfbf" points="487.5,-443.5 608.5,-443.5 "/>
<text text-anchor="middle" x="548" y="-431.5" font-family="Helvetica,sans-Serif" font-size="10.00"> </text>
</a>
</g>
</g>
<!-- Node6&#45;&gt;Node1 -->
<g id="edge5" class="edge">
<title>Node6&#45;&gt;Node1</title>
<path fill="none" stroke="#404040" d="M581.2,-424.39C619.72,-379.59 684.68,-304.05 737.27,-242.88"/>
<polygon fill="none" stroke="#404040" points="737.45,-242.67 738.32,-235.52 745.27,-233.57 744.39,-240.73 737.45,-242.67"/>
<text text-anchor="middle" x="683" y="-354" font-family="Helvetica,sans-Serif" font-size="10.00"> +g</text>
</g>
<!-- Node7 -->
<g id="node7" class="node">
<title>Node7</title>
<g id="a_node7"><a xlink:title=" ">
<polygon fill="white" stroke="#bfbfbf" points="626.5,-424.5 626.5,-503.5 737.5,-503.5 737.5,-424.5 626.5,-424.5"/>
<text text-anchor="start" x="634.5" y="-491.5" font-family="Helvetica,sans-Serif" font-size="10.00">decay_t&lt; std::invoke</text>
<text text-anchor="start" x="634.5" y="-480.5" font-family="Helvetica,sans-Serif" font-size="10.00">_result_t&lt; Transpose,</text>
<text text-anchor="middle" x="682" y="-469.5" font-family="Helvetica,sans-Serif" font-size="10.00"> output_model &gt; &gt;</text>
<polyline fill="none" stroke="#bfbfbf" points="626.5,-462.5 737.5,-462.5 "/>
<text text-anchor="middle" x="682" y="-450.5" font-family="Helvetica,sans-Serif" font-size="10.00"> </text>
<polyline fill="none" stroke="#bfbfbf" points="626.5,-443.5 737.5,-443.5 "/>
<text text-anchor="middle" x="682" y="-431.5" font-family="Helvetica,sans-Serif" font-size="10.00"> </text>
</a>
</g>
</g>
<!-- Node7&#45;&gt;Node1 -->
<g id="edge6" class="edge">
<title>Node7&#45;&gt;Node1</title>
<path fill="none" stroke="#404040" d="M698.91,-424.39C712.7,-392.87 733.16,-346.14 753.41,-299.9"/>
<polygon fill="none" stroke="#404040" points="753.45,-299.79 752.2,-292.69 758.27,-288.79 759.52,-295.9 753.45,-299.79"/>
<text text-anchor="middle" x="754" y="-354" font-family="Helvetica,sans-Serif" font-size="10.00"> +k</text>
</g>
<!-- Node8 -->
<g id="node8" class="node">
<title>Node8</title>
<g id="a_node8"><a xlink:title=" ">
<polygon fill="white" stroke="#bfbfbf" points="755,-435.5 755,-492.5 799,-492.5 799,-435.5 755,-435.5"/>
<text text-anchor="middle" x="777" y="-480.5" font-family="Helvetica,sans-Serif" font-size="10.00">output</text>
<polyline fill="none" stroke="#bfbfbf" points="755,-473.5 799,-473.5 "/>
<text text-anchor="middle" x="777" y="-461.5" font-family="Helvetica,sans-Serif" font-size="10.00"> </text>
<polyline fill="none" stroke="#bfbfbf" points="755,-454.5 799,-454.5 "/>
<text text-anchor="middle" x="777" y="-442.5" font-family="Helvetica,sans-Serif" font-size="10.00"> </text>
</a>
</g>
</g>
<!-- Node8&#45;&gt;Node1 -->
<g id="edge7" class="edge">
<title>Node8&#45;&gt;Node1</title>
<path fill="none" stroke="#404040" d="M780.83,-435.38C785.09,-404.66 792.31,-352.52 799.47,-300.86"/>
<polygon fill="none" stroke="#404040" points="799.49,-300.69 796.35,-294.2 801.14,-288.8 804.28,-295.3 799.49,-300.69"/>
<text text-anchor="middle" x="803.5" y="-354" font-family="Helvetica,sans-Serif" font-size="10.00"> +y</text>
</g>
<!-- Node9 -->
<g id="node9" class="node">
<title>Node9</title>
<g id="a_node9"><a xlink:title=" ">
<polygon fill="white" stroke="#bfbfbf" points="817,-435.5 817,-492.5 913,-492.5 913,-435.5 817,-435.5"/>
<text text-anchor="middle" x="865" y="-480.5" font-family="Helvetica,sans-Serif" font-size="10.00">output_uncertainty</text>
<polyline fill="none" stroke="#bfbfbf" points="817,-473.5 913,-473.5 "/>
<text text-anchor="middle" x="865" y="-461.5" font-family="Helvetica,sans-Serif" font-size="10.00"> </text>
<polyline fill="none" stroke="#bfbfbf" points="817,-454.5 913,-454.5 "/>
<text text-anchor="middle" x="865" y="-442.5" font-family="Helvetica,sans-Serif" font-size="10.00"> </text>
</a>
</g>
</g>
<!-- Node9&#45;&gt;Node1 -->
<g id="edge8" class="edge">
<title>Node9&#45;&gt;Node1</title>
<path fill="none" stroke="#404040" d="M861.17,-435.38C856.91,-404.66 849.69,-352.52 842.53,-300.86"/>
<polygon fill="none" stroke="#404040" points="842.51,-300.69 837.72,-295.3 840.86,-288.8 845.65,-294.2 842.51,-300.69"/>
<text text-anchor="middle" x="863" y="-354" font-family="Helvetica,sans-Serif" font-size="10.00"> +s</text>
</g>
<!-- Node10 -->
<g id="node10" class="node">
<title>Node10</title>
<g id="a_node10"><a xlink:title=" ">
<polygon fill="white" stroke="#bfbfbf" points="931.5,-435.5 931.5,-492.5 988.5,-492.5 988.5,-435.5 931.5,-435.5"/>
<text text-anchor="middle" x="960" y="-480.5" font-family="Helvetica,sans-Serif" font-size="10.00">function&lt;</text>
<polyline fill="none" stroke="#bfbfbf" points="931.5,-473.5 988.5,-473.5 "/>
<text text-anchor="middle" x="960" y="-461.5" font-family="Helvetica,sans-Serif" font-size="10.00"> </text>
<polyline fill="none" stroke="#bfbfbf" points="931.5,-454.5 988.5,-454.5 "/>
<text text-anchor="middle" x="960" y="-442.5" font-family="Helvetica,sans-Serif" font-size="10.00"> </text>
</a>
</g>
</g>
<!-- Node10&#45;&gt;Node1 -->
<g id="edge9" class="edge">
<title>Node10&#45;&gt;Node1</title>
<path fill="none" stroke="#404040" d="M931.94,-435.41C924.05,-426.57 916,-416.37 910,-406 906.77,-400.41 890.4,-353.12 872.57,-300.33"/>
<polygon fill="none" stroke="#404040" points="872.46,-300 866.75,-295.6 868.63,-288.63 874.33,-293.04 872.46,-300"/>
<text text-anchor="start" x="910" y="-398" font-family="Helvetica,sans-Serif" font-size="10.00"> +noise_observation</text>
<text text-anchor="middle" x="961" y="-387" font-family="Helvetica,sans-Serif" font-size="10.00">_r</text>
<text text-anchor="start" x="910" y="-376" font-family="Helvetica,sans-Serif" font-size="10.00">+noise_process</text>
<text text-anchor="middle" x="961" y="-365" font-family="Helvetica,sans-Serif" font-size="10.00">_q</text>
<text text-anchor="start" x="910" y="-354" font-family="Helvetica,sans-Serif" font-size="10.00">+transition_control</text>
<text text-anchor="middle" x="961" y="-343" font-family="Helvetica,sans-Serif" font-size="10.00">_g</text>
<text text-anchor="start" x="910" y="-332" font-family="Helvetica,sans-Serif" font-size="10.00">+transition_observation</text>
<text text-anchor="middle" x="961" y="-321" font-family="Helvetica,sans-Serif" font-size="10.00">_h</text>
<text text-anchor="middle" x="961" y="-310" font-family="Helvetica,sans-Serif" font-size="10.00">+transition_state_f</text>
</g>
<!-- Node11 -->
<g id="node11" class="node">
<title>Node11</title>
<g id="a_node11"><a xlink:title=" ">
<polygon fill="white" stroke="#bfbfbf" points="1007,-435.5 1007,-492.5 1069,-492.5 1069,-435.5 1007,-435.5"/>
<text text-anchor="middle" x="1038" y="-480.5" font-family="Helvetica,sans-Serif" font-size="10.00">Transpose</text>
<polyline fill="none" stroke="#bfbfbf" points="1007,-473.5 1069,-473.5 "/>
<text text-anchor="middle" x="1038" y="-461.5" font-family="Helvetica,sans-Serif" font-size="10.00"> </text>
<polyline fill="none" stroke="#bfbfbf" points="1007,-454.5 1069,-454.5 "/>
<text text-anchor="middle" x="1038" y="-442.5" font-family="Helvetica,sans-Serif" font-size="10.00"> </text>
</a>
</g>
</g>
<!-- Node11&#45;&gt;Node1 -->
<g id="edge10" class="edge">
<title>Node11&#45;&gt;Node1</title>
<path fill="none" stroke="#404040" d="M1035.69,-435.27C1032.06,-396.5 1024.18,-328.42 1012,-307 986.98,-262.99 945.13,-225.57 906.98,-197.87"/>
<polygon fill="none" stroke="#404040" points="906.64,-197.63 899.43,-197.41 896.85,-190.68 904.06,-190.89 906.64,-197.63"/>
<text text-anchor="middle" x="1058" y="-354" font-family="Helvetica,sans-Serif" font-size="10.00"> +transpose</text>
</g>
<!-- Node12 -->
<g id="node12" class="node">
<title>Node12</title>
<g id="a_node12"><a xlink:title=" ">
<polygon fill="white" stroke="#bfbfbf" points="1087,-435.5 1087,-492.5 1131,-492.5 1131,-435.5 1087,-435.5"/>
<text text-anchor="middle" x="1109" y="-480.5" font-family="Helvetica,sans-Serif" font-size="10.00">Divide</text>
<polyline fill="none" stroke="#bfbfbf" points="1087,-473.5 1131,-473.5 "/>
<text text-anchor="middle" x="1109" y="-461.5" font-family="Helvetica,sans-Serif" font-size="10.00"> </text>
<polyline fill="none" stroke="#bfbfbf" points="1087,-454.5 1131,-454.5 "/>
<text text-anchor="middle" x="1109" y="-442.5" font-family="Helvetica,sans-Serif" font-size="10.00"> </text>
</a>
</g>
</g>
<!-- Node12&#45;&gt;Node1 -->
<g id="edge11" class="edge">
<title>Node12&#45;&gt;Node1</title>
<path fill="none" stroke="#404040" d="M1111.86,-435.45C1113.9,-402.21 1112.66,-345.94 1087,-307 1045.04,-243.32 968.48,-200.77 908.24,-175.4"/>
<polygon fill="none" stroke="#404040" points="907.91,-175.26 900.84,-176.69 896.81,-170.71 903.88,-169.29 907.91,-175.26"/>
<text text-anchor="middle" x="1129" y="-354" font-family="Helvetica,sans-Serif" font-size="10.00"> +divide</text>
</g>
<!-- Node13 -->
<g id="node13" class="node">
<title>Node13</title>
<g id="a_node13"><a xlink:title=" ">
<polygon fill="white" stroke="#bfbfbf" points="1149,-435.5 1149,-492.5 1217,-492.5 1217,-435.5 1149,-435.5"/>
<text text-anchor="middle" x="1183" y="-480.5" font-family="Helvetica,sans-Serif" font-size="10.00">Symmetrize</text>
<polyline fill="none" stroke="#bfbfbf" points="1149,-473.5 1217,-473.5 "/>
<text text-anchor="middle" x="1183" y="-461.5" font-family="Helvetica,sans-Serif" font-size="10.00"> </text>
<polyline fill="none" stroke="#bfbfbf" points="1149,-454.5 1217,-454.5 "/>
<text text-anchor="middle" x="1183" y="-442.5" font-family="Helvetica,sans-Serif" font-size="10.00"> </text>
</a>
</g>
</g>
<!-- Node13&#45;&gt;Node1 -->
<g id="edge12" class="edge">
<title>Node13&#45;&gt;Node1</title>
<path fill="none" stroke="#404040" d="M1180.09,-435.44C1175.46,-396.18 1165.35,-326.71 1150,-307 1090.08,-230.03 983.95,-187.33 908.44,-165.46"/>
<polygon fill="none" stroke="#404040" points="908.14,-165.38 901.28,-167.6 896.59,-162.13 903.45,-159.9 908.14,-165.38"/>
<text text-anchor="middle" x="1204" y="-354" font-family="Helvetica,sans-Serif" font-size="10.00"> +symmetrize</text>
</g>
<!-- Node14 -->
<g id="node14" class="node">
<title>Node14</title>
<g id="a_node14"><a xlink:title=" ">
<polygon fill="white" stroke="#bfbfbf" points="1235,-435.5 1235,-492.5 1283,-492.5 1283,-435.5 1235,-435.5"/>
<text text-anchor="middle" x="1259" y="-480.5" font-family="Helvetica,sans-Serif" font-size="10.00">Identity</text>
<polyline fill="none" stroke="#bfbfbf" points="1235,-473.5 1283,-473.5 "/>
<text text-anchor="middle" x="1259" y="-461.5" font-family="Helvetica,sans-Serif" font-size="10.00"> </text>
<polyline fill="none" stroke="#bfbfbf" points="1235,-454.5 1283,-454.5 "/>
<text text-anchor="middle" x="1259" y="-442.5" font-family="Helvetica,sans-Serif" font-size="10.00"> </text>
</a>
</g>
</g>
<!-- Node14&#45;&gt;Node1 -->
<g id="edge13" class="edge">
<title>Node14&#45;&gt;Node1</title>
<path fill="none" stroke="#404040" d="M1258.39,-435.34C1256.98,-395.96 1252.33,-326.34 1237,-307 1156.92,-205.99 1005.21,-168.06 908.8,-153.88"/>
<polygon fill="none" stroke="#404040" points="908.63,-153.86 902.13,-156.98 896.75,-152.19 903.25,-149.06 908.63,-153.86"/>
<text text-anchor="middle" x="1276" y="-354" font-family="Helvetica,sans-Serif" font-size="10.00"> +identity</text>
</g>
<!-- Node15 -->
<g id="node15" class="node">
<title>Node15</title>
<g id="a_node15"><a xlink:title=" ">
<polygon fill="white" stroke="#bfbfbf" points="1301,-435.5 1301,-492.5 1351,-492.5 1351,-435.5 1301,-435.5"/>
<text text-anchor="middle" x="1326" y="-480.5" font-family="Helvetica,sans-Serif" font-size="10.00">Multiply</text>
<polyline fill="none" stroke="#bfbfbf" points="1301,-473.5 1351,-473.5 "/>
<text text-anchor="middle" x="1326" y="-461.5" font-family="Helvetica,sans-Serif" font-size="10.00"> </text>
<polyline fill="none" stroke="#bfbfbf" points="1301,-454.5 1351,-454.5 "/>
<text text-anchor="middle" x="1326" y="-442.5" font-family="Helvetica,sans-Serif" font-size="10.00"> </text>
</a>
</g>
</g>
<!-- Node15&#45;&gt;Node1 -->
<g id="edge14" class="edge">
<title>Node15&#45;&gt;Node1</title>
<path fill="none" stroke="#404040" d="M1329.33,-435.25C1331.83,-401.02 1330.62,-342.96 1300,-307 1201.8,-191.68 1018.28,-158.45 909.13,-149.03"/>
<polygon fill="none" stroke="#404040" points="908.81,-149.01 902.51,-152.52 896.85,-148.05 903.15,-144.54 908.81,-149.01"/>
<text text-anchor="middle" x="1351" y="-354" font-family="Helvetica,sans-Serif" font-size="10.00"> +multiply</text>
</g>
</g>
</svg>
