<?xml version="1.0" encoding="UTF-8" standalone="no"?>
<!DOCTYPE svg PUBLIC "-//W3C//DTD SVG 1.1//EN"
 "http://www.w3.org/Graphics/SVG/1.1/DTD/svg11.dtd">
<!-- Generated by graphviz version 12.2.0 (20241103.1931)
 -->
<!-- Title: fcarouge::matrix::begin Pages: 1 -->
<svg width="418pt" height="323pt"
 viewBox="0.00 0.00 418.25 323.25" xmlns="http://www.w3.org/2000/svg" xmlns:xlink="http://www.w3.org/1999/xlink">

<svg id="main" version="1.1" xmlns="http://www.w3.org/2000/svg" xmlns:xlink="http://www.w3.org/1999/xlink" xml:space="preserve">

<style type="text/css"><![CDATA[
.node, .edge {opacity: 0.7;}
.node.selected, .edge.selected {opacity: 1;}
.edge:hover path { stroke: red; }
.edge:hover polygon { stroke: red; fill: red; }
]]></style>
<script type="application/ecmascript" xlink:href="svg.min.js"/>
<svg id="graph" class="graph">
<g id="graph0" class="graph" transform="scale(1 1) rotate(0) translate(4 319.25)">
<title>fcarouge::matrix::begin</title>
<!-- Node1 -->
<g id="Node000001" class="node">
<title>Node1</title>
<g id="a_Node000001"><a xlink:title=" ">
<polygon fill="#999999" stroke="#666666" points="410.25,-191.25 298.25,-191.25 298.25,-172 410.25,-172 410.25,-191.25"/>
<text text-anchor="middle" x="354.25" y="-177.75" font-family="Helvetica,sans-Serif" font-size="10.00">fcarouge::matrix::begin</text>
</a>
</g>
</g>
<!-- Node2 -->
<g id="Node000002" class="node">
<title>Node2</title>
<g id="a_Node000002"><a xlink:href="namespacefcarouge.xhtml#a0647c4efb9c02b9ea365aacec50e4ae0" target="_top" xlink:title=" ">
<polygon fill="white" stroke="#666666" points="112,-315.25 15,-315.25 15,-296 112,-296 112,-315.25"/>
<text text-anchor="middle" x="63.5" y="-301.75" font-family="Helvetica,sans-Serif" font-size="10.00">fcarouge::operator*</text>
</a>
</g>
</g>
<!-- Node1&#45;&gt;Node2 -->
<g id="edge1_Node000001_Node000002" class="edge">
<title>Node1&#45;&gt;Node2</title>
<g id="a_edge1_Node000001_Node000002"><a xlink:title=" ">
<path fill="none" stroke="#63b8ff" d="M332.8,-198.83C315.09,-213.02 288.28,-232.82 262.25,-245.62 205.77,-273.4 187.3,-269.58 127,-287.62 118.24,-290.25 108.76,-293.01 99.9,-295.57"/>
<polygon fill="#63b8ff" stroke="#63b8ff" points="334.94,-201.6 340.47,-192.56 330.52,-196.18 334.94,-201.6"/>
</a>
</g>
</g>
<!-- Node3 -->
<g id="Node000003" class="node">
<title>Node3</title>
<g id="a_Node000003"><a xlink:href="namespacefcarouge.xhtml#a5f46009dfa013275132875c5be3ab85c" target="_top" xlink:title=" ">
<polygon fill="white" stroke="#666666" points="261.12,-218.25 164.12,-218.25 164.12,-199 261.12,-199 261.12,-218.25"/>
<text text-anchor="middle" x="212.62" y="-204.75" font-family="Helvetica,sans-Serif" font-size="10.00">fcarouge::operator*</text>
</a>
</g>
</g>
<!-- Node1&#45;&gt;Node3 -->
<g id="edge2_Node000001_Node000003" class="edge">
<title>Node1&#45;&gt;Node3</title>
<g id="a_edge2_Node000001_Node000003"><a xlink:title=" ">
<path fill="none" stroke="#63b8ff" d="M290.1,-193.84C280.49,-195.69 270.72,-197.59 261.51,-199.37"/>
<polygon fill="#63b8ff" stroke="#63b8ff" points="290.62,-197.3 299.77,-191.97 289.29,-190.43 290.62,-197.3"/>
</a>
</g>
</g>
<!-- Node8 -->
<g id="Node000008" class="node">
<title>Node8</title>
<g id="a_Node000008"><a xlink:href="namespacefcarouge.xhtml#a37839500158d123b7bdc6824a025f0bc" target="_top" xlink:title=" ">
<polygon fill="white" stroke="#666666" points="113.12,-130.25 13.88,-130.25 13.88,-111 113.12,-111 113.12,-130.25"/>
<text text-anchor="middle" x="63.5" y="-116.75" font-family="Helvetica,sans-Serif" font-size="10.00">fcarouge::operator+</text>
</a>
</g>
</g>
<!-- Node1&#45;&gt;Node8 -->
<g id="edge9_Node000001_Node000008" class="edge">
<title>Node1&#45;&gt;Node8</title>
<g id="a_edge9_Node000001_Node000008"><a xlink:title=" ">
<path fill="none" stroke="#63b8ff" d="M294.5,-169.21C240.75,-157.86 162.23,-141.27 112.25,-130.71"/>
<polygon fill="#63b8ff" stroke="#63b8ff" points="293.58,-172.6 304.09,-171.24 295.03,-165.75 293.58,-172.6"/>
</a>
</g>
</g>
<!-- Node9 -->
<g id="Node000009" class="node">
<title>Node9</title>
<g id="a_Node000009"><a xlink:href="namespacefcarouge.xhtml#a214880fe1dfe8701212c14c9ece44013" target="_top" xlink:title=" ">
<polygon fill="white" stroke="#666666" points="262.25,-93.25 163,-93.25 163,-74 262.25,-74 262.25,-93.25"/>
<text text-anchor="middle" x="212.62" y="-79.75" font-family="Helvetica,sans-Serif" font-size="10.00">fcarouge::operator+</text>
</a>
</g>
</g>
<!-- Node1&#45;&gt;Node9 -->
<g id="edge10_Node000001_Node000009" class="edge">
<title>Node1&#45;&gt;Node9</title>
<g id="a_edge10_Node000001_Node000009"><a xlink:title=" ">
<path fill="none" stroke="#63b8ff" d="M329.76,-165.14C300.58,-144.65 251.72,-110.36 227.76,-93.54"/>
<polygon fill="#63b8ff" stroke="#63b8ff" points="327.4,-167.76 337.59,-170.64 331.42,-162.03 327.4,-167.76"/>
</a>
</g>
</g>
<!-- Node3&#45;&gt;Node2 -->
<g id="edge7_Node000003_Node000002" class="edge">
<title>Node3&#45;&gt;Node2</title>
<g id="a_edge7_Node000003_Node000002"><a xlink:title=" ">
<path fill="none" stroke="#63b8ff" d="M196.43,-227.19C180.79,-245.13 154.84,-271.84 127,-287.62 121.5,-290.74 115.41,-293.36 109.26,-295.54"/>
<polygon fill="#63b8ff" stroke="#63b8ff" points="198.84,-229.75 202.64,-219.86 193.5,-225.22 198.84,-229.75"/>
</a>
</g>
</g>
<!-- Node3&#45;&gt;Node3 -->
<g id="edge8_Node000003_Node000003" class="edge">
<title>Node3&#45;&gt;Node3</title>
<g id="a_edge8_Node000003_Node000003"><a xlink:title=" ">
<path fill="none" stroke="#63b8ff" d="M237.76,-229.65C234.62,-233.53 226.24,-236.25 212.62,-236.25 187.73,-236.25 180.34,-227.15 190.45,-218.54"/>
<polygon fill="#63b8ff" stroke="#63b8ff" points="241.15,-228.76 235.19,-220 234.38,-230.56 241.15,-228.76"/>
</a>
</g>
</g>
<!-- Node4 -->
<g id="Node000004" class="node">
<title>Node4</title>
<g id="a_Node000004"><a xlink:href="namespacefcarouge_1_1naive.xhtml#a115d99c67c06a512a5f8edf90b79fc51" target="_top" xlink:title=" ">
<polygon fill="white" stroke="#666666" points="125.88,-278.25 1.13,-278.25 1.13,-259 125.88,-259 125.88,-278.25"/>
<text text-anchor="middle" x="63.5" y="-264.75" font-family="Helvetica,sans-Serif" font-size="10.00">fcarouge::naive::operator*</text>
</a>
</g>
</g>
<!-- Node3&#45;&gt;Node4 -->
<g id="edge3_Node000003_Node000004" class="edge">
<title>Node3&#45;&gt;Node4</title>
<g id="a_edge3_Node000003_Node000004"><a xlink:title=" ">
<path fill="none" stroke="#63b8ff" d="M183.98,-223.93C167.72,-232.53 146.56,-243.02 127,-250.62 119.53,-253.53 111.39,-256.21 103.54,-258.56"/>
<polygon fill="#63b8ff" stroke="#63b8ff" points="185.41,-227.13 192.56,-219.32 182.09,-220.97 185.41,-227.13"/>
</a>
</g>
</g>
<!-- Node5 -->
<g id="Node000005" class="node">
<title>Node5</title>
<g id="a_Node000005"><a xlink:href="namespacefcarouge_1_1naive.xhtml#ac46650cefff4c16c6fa4774e39333281" target="_top" xlink:title=" ">
<polygon fill="white" stroke="#666666" points="125.88,-241.25 1.13,-241.25 1.13,-222 125.88,-222 125.88,-241.25"/>
<text text-anchor="middle" x="63.5" y="-227.75" font-family="Helvetica,sans-Serif" font-size="10.00">fcarouge::naive::operator*</text>
</a>
</g>
</g>
<!-- Node3&#45;&gt;Node5 -->
<g id="edge4_Node000003_Node000005" class="edge">
<title>Node3&#45;&gt;Node5</title>
<g id="a_edge4_Node000003_Node000005"><a xlink:title=" ">
<path fill="none" stroke="#63b8ff" d="M152.64,-217.85C143.95,-219.2 134.98,-220.61 126.24,-221.97"/>
<polygon fill="#63b8ff" stroke="#63b8ff" points="153.02,-221.33 162.36,-216.33 151.94,-214.41 153.02,-221.33"/>
</a>
</g>
</g>
<!-- Node6 -->
<g id="Node000006" class="node">
<title>Node6</title>
<g id="a_Node000006"><a xlink:href="namespacefcarouge_1_1naive.xhtml#a5c10d2d71989bcf9c945db4675c97cc7" target="_top" xlink:title=" ">
<polygon fill="white" stroke="#666666" points="125.88,-204.25 1.13,-204.25 1.13,-185 125.88,-185 125.88,-204.25"/>
<text text-anchor="middle" x="63.5" y="-190.75" font-family="Helvetica,sans-Serif" font-size="10.00">fcarouge::naive::operator*</text>
</a>
</g>
</g>
<!-- Node3&#45;&gt;Node6 -->
<g id="edge5_Node000003_Node000006" class="edge">
<title>Node3&#45;&gt;Node6</title>
<g id="a_edge5_Node000003_Node000006"><a xlink:title=" ">
<path fill="none" stroke="#63b8ff" d="M152.64,-203.01C143.95,-202.19 134.98,-201.33 126.24,-200.5"/>
<polygon fill="#63b8ff" stroke="#63b8ff" points="152.06,-206.47 162.35,-203.94 152.73,-199.5 152.06,-206.47"/>
</a>
</g>
</g>
<!-- Node7 -->
<g id="Node000007" class="node">
<title>Node7</title>
<g id="a_Node000007"><a xlink:href="namespacefcarouge_1_1naive.xhtml#afcc4087b37e143564aff2e9edb4bd6dd" target="_top" xlink:title=" ">
<polygon fill="white" stroke="#666666" points="125.88,-167.25 1.13,-167.25 1.13,-148 125.88,-148 125.88,-167.25"/>
<text text-anchor="middle" x="63.5" y="-153.75" font-family="Helvetica,sans-Serif" font-size="10.00">fcarouge::naive::operator*</text>
</a>
</g>
</g>
<!-- Node3&#45;&gt;Node7 -->
<g id="edge6_Node000003_Node000007" class="edge">
<title>Node3&#45;&gt;Node7</title>
<g id="a_edge6_Node000003_Node000007"><a xlink:title=" ">
<path fill="none" stroke="#63b8ff" d="M177.24,-194.39C161.97,-188.29 143.71,-181.28 127,-175.62 118.87,-172.88 110.06,-170.17 101.69,-167.73"/>
<polygon fill="#63b8ff" stroke="#63b8ff" points="175.78,-197.58 186.36,-198.08 178.4,-191.09 175.78,-197.58"/>
</a>
</g>
</g>
<!-- Node9&#45;&gt;Node8 -->
<g id="edge14_Node000009_Node000008" class="edge">
<title>Node9&#45;&gt;Node8</title>
<g id="a_edge14_Node000009_Node000008"><a xlink:title=" ">
<path fill="none" stroke="#63b8ff" d="M160.37,-96.52C142.11,-101.11 121.84,-106.2 104.65,-110.53"/>
<polygon fill="#63b8ff" stroke="#63b8ff" points="161.11,-99.94 169.95,-94.1 159.4,-93.15 161.11,-99.94"/>
</a>
</g>
</g>
<!-- Node9&#45;&gt;Node9 -->
<g id="edge15_Node000009_Node000009" class="edge">
<title>Node9&#45;&gt;Node9</title>
<g id="a_edge15_Node000009_Node000009"><a xlink:title=" ">
<path fill="none" stroke="#63b8ff" d="M237.76,-104.65C234.62,-108.53 226.24,-111.25 212.62,-111.25 187.73,-111.25 180.34,-102.15 190.45,-93.54"/>
<polygon fill="#63b8ff" stroke="#63b8ff" points="241.15,-103.76 235.19,-95 234.38,-105.56 241.15,-103.76"/>
</a>
</g>
</g>
<!-- Node10 -->
<g id="Node000010" class="node">
<title>Node10</title>
<g id="a_Node000010"><a xlink:href="namespacefcarouge_1_1naive.xhtml#a4609e383f7ab9e61b9f11aa24f85e94f" target="_top" xlink:title=" ">
<polygon fill="white" stroke="#666666" points="127,-93.25 0,-93.25 0,-74 127,-74 127,-93.25"/>
<text text-anchor="middle" x="63.5" y="-79.75" font-family="Helvetica,sans-Serif" font-size="10.00">fcarouge::naive::operator+</text>
</a>
</g>
</g>
<!-- Node9&#45;&gt;Node10 -->
<g id="edge11_Node000009_Node000010" class="edge">
<title>Node9&#45;&gt;Node10</title>
<g id="a_edge11_Node000009_Node000010"><a xlink:title=" ">
<path fill="none" stroke="#63b8ff" d="M151.29,-83.62C143.41,-83.62 135.33,-83.62 127.41,-83.62"/>
<polygon fill="#63b8ff" stroke="#63b8ff" points="151.12,-87.13 161.12,-83.63 151.12,-80.13 151.12,-87.13"/>
</a>
</g>
</g>
<!-- Node11 -->
<g id="Node000011" class="node">
<title>Node11</title>
<g id="a_Node000011"><a xlink:href="namespacefcarouge_1_1naive.xhtml#ab78ca164e4948b0fa2f060d330af59f5" target="_top" xlink:title=" ">
<polygon fill="white" stroke="#666666" points="127,-56.25 0,-56.25 0,-37 127,-37 127,-56.25"/>
<text text-anchor="middle" x="63.5" y="-42.75" font-family="Helvetica,sans-Serif" font-size="10.00">fcarouge::naive::operator+</text>
</a>
</g>
</g>
<!-- Node9&#45;&gt;Node11 -->
<g id="edge12_Node000009_Node000011" class="edge">
<title>Node9&#45;&gt;Node11</title>
<g id="a_edge12_Node000009_Node000011"><a xlink:title=" ">
<path fill="none" stroke="#63b8ff" d="M160.37,-70.73C142.11,-66.14 121.84,-61.05 104.65,-56.72"/>
<polygon fill="#63b8ff" stroke="#63b8ff" points="159.4,-74.1 169.95,-73.15 161.11,-67.31 159.4,-74.1"/>
</a>
</g>
</g>
<!-- Node12 -->
<g id="Node000012" class="node">
<title>Node12</title>
<g id="a_Node000012"><a xlink:href="namespacefcarouge_1_1naive.xhtml#a3ac631bf6ae71fc51e4345388b6f9690" target="_top" xlink:title=" ">
<polygon fill="white" stroke="#666666" points="127,-19.25 0,-19.25 0,0 127,0 127,-19.25"/>
<text text-anchor="middle" x="63.5" y="-5.75" font-family="Helvetica,sans-Serif" font-size="10.00">fcarouge::naive::operator+</text>
</a>
</g>
</g>
<!-- Node9&#45;&gt;Node12 -->
<g id="edge13_Node000009_Node000012" class="edge">
<title>Node9&#45;&gt;Node12</title>
<g id="a_edge13_Node000009_Node000012"><a xlink:title=" ">
<path fill="none" stroke="#63b8ff" d="M190.36,-66.9C173.86,-54.6 150,-38.24 127,-27.62 120.44,-24.6 113.25,-21.96 106.16,-19.7"/>
<polygon fill="#63b8ff" stroke="#63b8ff" points="187.88,-69.41 197.95,-72.68 192.11,-63.84 187.88,-69.41"/>
</a>
</g>
</g>
</g>
</svg>
</svg>

<style type='text/css'>
<![CDATA[
[data-mouse-over-selected='false'] { opacity: 0.7; }
[data-mouse-over-selected='true']  { opacity: 1.0; }
]]>
</style>
<script type="application/ecmascript"><![CDATA[
document.addEventListener('DOMContentLoaded', (event) => {
  highlightEdges();
  highlightAdjacentNodes();
});
]]></script>
</svg>
