<?xml version="1.0" encoding="UTF-8" standalone="no"?>
<!DOCTYPE svg PUBLIC "-//W3C//DTD SVG 1.1//EN"
 "http://www.w3.org/Graphics/SVG/1.1/DTD/svg11.dtd">
<!-- Generated by graphviz version 2.49.3 (20211027.1534)
 -->
<!-- Title: std::formatter&lt; fcarouge::kalman&lt; State, Output, Input, Transpose, Symmetrize, Divide, Identity, UpdateTypes, PredictionTypes &gt;, Char &gt;::format Pages: 1 -->
<svg width="297pt" height="72pt"
 viewBox="0.00 0.00 297.00 72.00" xmlns="http://www.w3.org/2000/svg" xmlns:xlink="http://www.w3.org/1999/xlink">
<g id="graph0" class="graph" transform="scale(1 1) rotate(0) translate(4 68)">
<title>std::formatter&lt; fcarouge::kalman&lt; State, Output, Input, Transpose, Symmetrize, Divide, Identity, UpdateTypes, PredictionTypes &gt;, Char &gt;::format</title>
<polygon fill="white" stroke="transparent" points="-4,4 -4,-68 293,-68 293,4 -4,4"/>
<!-- Node1 -->
<g id="node1" class="node">
<title>Node1</title>
<g id="a_node1"><a xlink:title=" ">
<polygon fill="#bfbfbf" stroke="black" points="0,-0.5 0,-63.5 163,-63.5 163,-0.5 0,-0.5"/>
<text text-anchor="start" x="8" y="-51.5" font-family="Helvetica,sans-Serif" font-size="10.00">std::formatter&lt; fcarouge</text>
<text text-anchor="start" x="8" y="-40.5" font-family="Helvetica,sans-Serif" font-size="10.00">::kalman&lt; State, Output,</text>
<text text-anchor="start" x="8" y="-29.5" font-family="Helvetica,sans-Serif" font-size="10.00"> Input, Transpose, Symmetrize,</text>
<text text-anchor="start" x="8" y="-18.5" font-family="Helvetica,sans-Serif" font-size="10.00"> Divide, Identity, UpdateTypes,</text>
<text text-anchor="middle" x="81.5" y="-7.5" font-family="Helvetica,sans-Serif" font-size="10.00"> PredictionTypes &gt;, Char &gt;::format</text>
</a>
</g>
</g>
<!-- Node2 -->
<g id="node2" class="node">
<title>Node2</title>
<g id="a_node2"><a xlink:href="namespacefcarouge_1_1internal.xhtml#a4c0bbc15a41d76dd2b4b23d8566fba57" target="_top" xlink:title=" ">
<polygon fill="white" stroke="black" points="199,-17 199,-47 289,-47 289,-17 199,-17"/>
<text text-anchor="start" x="207" y="-35" font-family="Helvetica,sans-Serif" font-size="10.00">fcarouge::internal</text>
<text text-anchor="middle" x="244" y="-24" font-family="Helvetica,sans-Serif" font-size="10.00">::for_constexpr</text>
</a>
</g>
</g>
<!-- Node1&#45;&gt;Node2 -->
<g id="edge1" class="edge">
<title>Node1&#45;&gt;Node2</title>
<path fill="none" stroke="midnightblue" d="M163.22,-32C171.78,-32 180.34,-32 188.5,-32"/>
<polygon fill="midnightblue" stroke="midnightblue" points="188.59,-35.5 198.59,-32 188.59,-28.5 188.59,-35.5"/>
</g>
</g>
</svg>
