<?xml version="1.0" encoding="UTF-8" standalone="no"?>
<!DOCTYPE svg PUBLIC "-//W3C//DTD SVG 1.1//EN"
 "http://www.w3.org/Graphics/SVG/1.1/DTD/svg11.dtd">
<!-- Generated by graphviz version 9.0.0 (20230911.1827)
 -->
<!-- Title: fcarouge::divider&lt; Lhs, Rhs &gt; Pages: 1 -->
<svg width="94pt" height="83pt"
 viewBox="0.00 0.00 94.00 83.00" xmlns="http://www.w3.org/2000/svg" xmlns:xlink="http://www.w3.org/1999/xlink">
<g id="graph0" class="graph" transform="scale(1 1) rotate(0) translate(4 79)">
<title>fcarouge::divider&lt; Lhs, Rhs &gt;</title>
<!-- Node1 -->
<g id="Node000001" class="node">
<title>Node1</title>
<g id="a_Node000001"><a xlink:title="A possible solution to the matrix division.">
<polygon fill="#999999" stroke="none" points="86,-75 0,-75 0,0 86,0 86,-75"/>
<text text-anchor="start" x="4.75" y="-61.5" font-family="Helvetica,sans-Serif" font-size="10.00">fcarouge::divider&lt;</text>
<text text-anchor="start" x="18.25" y="-50.25" font-family="Helvetica,sans-Serif" font-size="10.00"> Lhs, Rhs &gt;</text>
<text text-anchor="start" x="41.5" y="-35.5" font-family="Helvetica,sans-Serif" font-size="10.00"> </text>
<text text-anchor="start" x="9" y="-20.5" font-family="Helvetica,sans-Serif" font-size="10.00">+</text>
<text text-anchor="start" x="24" y="-20.5" font-family="Helvetica,sans-Serif" font-size="10.00">operator()()</text>
<text text-anchor="start" x="9" y="-5.5" font-family="Helvetica,sans-Serif" font-size="10.00">+</text>
<text text-anchor="start" x="24" y="-5.5" font-family="Helvetica,sans-Serif" font-size="10.00">operator()()</text>
<polygon fill="#666666" stroke="#666666" points="0,-47 0,-47 86,-47 86,-47 0,-47"/>
<polygon fill="#666666" stroke="#666666" points="0,-32 0,-32 86,-32 86,-32 0,-32"/>
<polygon fill="none" stroke="#666666" points="0,0 0,-75 86,-75 86,0 0,0"/>
</a>
</g>
</g>
</g>
</svg>
