<?xml version="1.0" encoding="UTF-8" standalone="no"?>
<!DOCTYPE svg PUBLIC "-//W3C//DTD SVG 1.1//EN"
 "http://www.w3.org/Graphics/SVG/1.1/DTD/svg11.dtd">
<!-- Generated by graphviz version 9.0.0 (20230911.1827)
 -->
<!-- Title: /github/workspace/include/fcarouge/internal/type.hpp Pages: 1 -->
<svg width="290pt" height="204pt"
 viewBox="0.00 0.00 289.75 204.25" xmlns="http://www.w3.org/2000/svg" xmlns:xlink="http://www.w3.org/1999/xlink">

<svg id="main" version="1.1" xmlns="http://www.w3.org/2000/svg" xmlns:xlink="http://www.w3.org/1999/xlink" xml:space="preserve" onload="init(evt)">
<style type="text/css"><![CDATA[
.node, .edge {opacity: 0.7;}
.node.selected, .edge.selected {opacity: 1;}
.edge:hover path { stroke: red; }
.edge:hover polygon { stroke: red; fill: red; }
]]></style>
<script type="application/ecmascript" xlink:href="svg.min.js"/>
<svg id="graph" class="graph">
<g id="graph0" class="graph" transform="scale(1 1) rotate(0) translate(4 200.25)">
<title>/github/workspace/include/fcarouge/internal/type.hpp</title>
<!-- Node1 -->
<g id="Node000001" class="node">
<title>Node1</title>
<g id="a_Node000001"><a xlink:title=" ">
<polygon fill="#999999" stroke="#666666" points="222.5,-196.25 92.5,-196.25 92.5,-165.75 222.5,-165.75 222.5,-196.25"/>
<text text-anchor="start" x="100.5" y="-182.75" font-family="Helvetica,sans-Serif" font-size="10.00">/github/workspace/include</text>
<text text-anchor="middle" x="157.5" y="-171.5" font-family="Helvetica,sans-Serif" font-size="10.00">/fcarouge/internal/type.hpp</text>
</a>
</g>
</g>
<!-- Node2 -->
<g id="Node000002" class="node">
<title>Node2</title>
<g id="a_Node000002"><a xlink:href="utility_8hpp.xhtml" target="_top" xlink:title="The collection of utilities supporting the library.">
<polygon fill="white" stroke="#666666" points="97,-129.75 0,-129.75 0,-110.5 97,-110.5 97,-129.75"/>
<text text-anchor="middle" x="48.5" y="-116.25" font-family="Helvetica,sans-Serif" font-size="10.00">fcarouge/utility.hpp</text>
</a>
</g>
</g>
<!-- Node1&#45;&gt;Node2 -->
<g id="edge1_Node000001_Node000002" class="edge">
<title>Node1&#45;&gt;Node2</title>
<g id="a_edge1_Node000001_Node000002"><a xlink:title=" ">
<path fill="none" stroke="#63b8ff" d="M130.28,-165.3C113.36,-156.16 91.71,-144.47 74.94,-135.41"/>
<polygon fill="#63b8ff" stroke="#63b8ff" points="77.01,-132.55 66.55,-130.87 73.68,-138.71 77.01,-132.55"/>
</a>
</g>
</g>
<!-- Node5 -->
<g id="Node000005" class="node">
<title>Node5</title>
<g id="a_Node000005"><a xlink:title=" ">
<polygon fill="#e0e0e0" stroke="#999999" points="156,-19.25 95,-19.25 95,0 156,0 156,-19.25"/>
<text text-anchor="middle" x="125.5" y="-5.75" font-family="Helvetica,sans-Serif" font-size="10.00">type_traits</text>
</a>
</g>
</g>
<!-- Node1&#45;&gt;Node5 -->
<g id="edge6_Node000001_Node000005" class="edge">
<title>Node1&#45;&gt;Node5</title>
<g id="a_edge6_Node000001_Node000005"><a xlink:title=" ">
<path fill="none" stroke="#63b8ff" d="M153.38,-165.57C150.62,-155.57 147.04,-141.92 144.5,-129.75 137.32,-95.33 131.38,-54.81 128.15,-31.01"/>
<polygon fill="#63b8ff" stroke="#63b8ff" points="131.63,-30.6 126.84,-21.14 124.69,-31.52 131.63,-30.6"/>
</a>
</g>
</g>
<!-- Node6 -->
<g id="Node000006" class="node">
<title>Node6</title>
<g id="a_Node000006"><a xlink:title=" ">
<polygon fill="#e0e0e0" stroke="#999999" points="225.25,-129.75 153.75,-129.75 153.75,-110.5 225.25,-110.5 225.25,-129.75"/>
<text text-anchor="middle" x="189.5" y="-116.25" font-family="Helvetica,sans-Serif" font-size="10.00">initializer_list</text>
</a>
</g>
</g>
<!-- Node1&#45;&gt;Node6 -->
<g id="edge5_Node000001_Node000006" class="edge">
<title>Node1&#45;&gt;Node6</title>
<g id="a_edge5_Node000001_Node000006"><a xlink:title=" ">
<path fill="none" stroke="#63b8ff" d="M165.41,-165.45C169.53,-157.86 174.63,-148.49 179.07,-140.32"/>
<polygon fill="#63b8ff" stroke="#63b8ff" points="182.14,-141.99 183.84,-131.53 175.99,-138.65 182.14,-141.99"/>
</a>
</g>
</g>
<!-- Node7 -->
<g id="Node000007" class="node">
<title>Node7</title>
<g id="a_Node000007"><a xlink:title=" ">
<polygon fill="#e0e0e0" stroke="#999999" points="281.75,-129.75 243.25,-129.75 243.25,-110.5 281.75,-110.5 281.75,-129.75"/>
<text text-anchor="middle" x="262.5" y="-116.25" font-family="Helvetica,sans-Serif" font-size="10.00">utility</text>
</a>
</g>
</g>
<!-- Node1&#45;&gt;Node7 -->
<g id="edge7_Node000001_Node000007" class="edge">
<title>Node1&#45;&gt;Node7</title>
<g id="a_edge7_Node000001_Node000007"><a xlink:title=" ">
<path fill="none" stroke="#63b8ff" d="M183.73,-165.3C199.87,-156.24 220.48,-144.69 236.57,-135.66"/>
<polygon fill="#63b8ff" stroke="#63b8ff" points="238.07,-138.84 245.08,-130.89 234.64,-132.73 238.07,-138.84"/>
</a>
</g>
</g>
<!-- Node3 -->
<g id="Node000003" class="node">
<title>Node3</title>
<g id="a_Node000003"><a xlink:href="internal_2utility_8hpp.xhtml" target="_top" xlink:title=" ">
<polygon fill="white" stroke="#666666" points="95,-74.5 4,-74.5 4,-55.25 95,-55.25 95,-74.5"/>
<text text-anchor="middle" x="49.5" y="-61" font-family="Helvetica,sans-Serif" font-size="10.00">internal/utility.hpp</text>
</a>
</g>
</g>
<!-- Node2&#45;&gt;Node3 -->
<g id="edge2_Node000002_Node000003" class="edge">
<title>Node2&#45;&gt;Node3</title>
<g id="a_edge2_Node000002_Node000003"><a xlink:title=" ">
<path fill="none" stroke="#63b8ff" d="M48.67,-110.33C48.79,-103.82 48.96,-94.67 49.12,-86.37"/>
<polygon fill="#63b8ff" stroke="#63b8ff" points="52.61,-86.44 49.3,-76.37 45.62,-86.3 52.61,-86.44"/>
</a>
</g>
</g>
<!-- Node4 -->
<g id="Node000004" class="node">
<title>Node4</title>
<g id="a_Node000004"><a xlink:title=" ">
<polygon fill="#e0e0e0" stroke="#999999" points="77.38,-19.25 21.62,-19.25 21.62,0 77.38,0 77.38,-19.25"/>
<text text-anchor="middle" x="49.5" y="-5.75" font-family="Helvetica,sans-Serif" font-size="10.00">concepts</text>
</a>
</g>
</g>
<!-- Node3&#45;&gt;Node4 -->
<g id="edge3_Node000003_Node000004" class="edge">
<title>Node3&#45;&gt;Node4</title>
<g id="a_edge3_Node000003_Node000004"><a xlink:title=" ">
<path fill="none" stroke="#63b8ff" d="M49.5,-55.08C49.5,-48.57 49.5,-39.42 49.5,-31.12"/>
<polygon fill="#63b8ff" stroke="#63b8ff" points="53,-31.12 49.5,-21.12 46,-31.12 53,-31.12"/>
</a>
</g>
</g>
<!-- Node3&#45;&gt;Node5 -->
<g id="edge4_Node000003_Node000005" class="edge">
<title>Node3&#45;&gt;Node5</title>
<g id="a_edge4_Node000003_Node000005"><a xlink:title=" ">
<path fill="none" stroke="#63b8ff" d="M62.39,-54.84C73.53,-47.04 89.87,-35.59 103.14,-26.29"/>
<polygon fill="#63b8ff" stroke="#63b8ff" points="105.12,-29.18 111.3,-20.57 101.11,-23.44 105.12,-29.18"/>
</a>
</g>
</g>
</g>
</svg>
</svg>

<style type='text/css'>
<![CDATA[
[data-mouse-over-selected='false'] { opacity: 0.7; }
[data-mouse-over-selected='true']  { opacity: 1.0; }
]]>
</style>
<script type="application/ecmascript"><![CDATA[
document.addEventListener('DOMContentLoaded', (event) => {
  highlightEdges();
  highlightAdjacentNodes();
});
]]></script>
</svg>
