<?xml version="1.0" encoding="UTF-8" standalone="no"?>
<!DOCTYPE svg PUBLIC "-//W3C//DTD SVG 1.1//EN"
 "http://www.w3.org/Graphics/SVG/1.1/DTD/svg11.dtd">
<!-- Generated by graphviz version 12.2.0 (20241103.1931)
 -->
<!-- Title: /github/workspace/support/mp_units/fcarouge/unit.hpp Pages: 1 -->
<svg width="334pt" height="194pt"
 viewBox="0.00 0.00 333.88 194.00" xmlns="http://www.w3.org/2000/svg" xmlns:xlink="http://www.w3.org/1999/xlink">
<g id="graph0" class="graph" transform="scale(1 1) rotate(0) translate(4 190)">
<title>/github/workspace/support/mp_units/fcarouge/unit.hpp</title>
<!-- Node1 -->
<g id="Node000001" class="node">
<title>Node1</title>
<g id="a_Node000001"><a xlink:title="Quantities and units facade for mp&#45;units third party implementation.">
<polygon fill="#999999" stroke="#666666" points="244,-186 108,-186 108,-155.5 244,-155.5 244,-186"/>
<text text-anchor="start" x="116" y="-172.5" font-family="Helvetica,sans-Serif" font-size="10.00">/github/workspace/support</text>
<text text-anchor="middle" x="176" y="-161.25" font-family="Helvetica,sans-Serif" font-size="10.00">/mp_units/fcarouge/unit.hpp</text>
</a>
</g>
</g>
<!-- Node2 -->
<g id="Node000002" class="node">
<title>Node2</title>
<g id="a_Node000002"><a xlink:href="quantity_8hpp.xhtml" target="_top" xlink:title="Indexed&#45;based linear algebra with mp&#45;units with Eigen implementations.">
<polygon fill="white" stroke="#666666" points="148,-113.88 0,-113.88 0,-83.38 148,-83.38 148,-113.88"/>
<text text-anchor="start" x="8" y="-100.38" font-family="Helvetica,sans-Serif" font-size="10.00">/github/workspace/support</text>
<text text-anchor="middle" x="74" y="-89.12" font-family="Helvetica,sans-Serif" font-size="10.00">/quantity/fcarouge/quantity.hpp</text>
</a>
</g>
</g>
<!-- Node1&#45;&gt;Node2 -->
<g id="edge1_Node000001_Node000002" class="edge">
<title>Node1&#45;&gt;Node2</title>
<g id="a_edge1_Node000001_Node000002"><a xlink:title=" ">
<path fill="none" stroke="#63b8ff" d="M145.73,-148.94C129.43,-137.73 109.73,-124.19 95.11,-114.14"/>
<polygon fill="#63b8ff" stroke="#63b8ff" points="143.4,-151.58 153.62,-154.36 147.36,-145.81 143.4,-151.58"/>
</a>
</g>
</g>
<!-- Node3 -->
<g id="Node000003" class="node">
<title>Node3</title>
<g id="a_Node000003"><a xlink:href="units__kf__6x2x0__vehicle__location_8cpp.xhtml" target="_top" xlink:title=" ">
<polygon fill="white" stroke="#666666" points="184.75,-41.75 65.25,-41.75 65.25,0 184.75,0 184.75,-41.75"/>
<text text-anchor="start" x="73.25" y="-28.25" font-family="Helvetica,sans-Serif" font-size="10.00">/github/workspace/test</text>
<text text-anchor="start" x="73.25" y="-17" font-family="Helvetica,sans-Serif" font-size="10.00">/units_kf_6x2x0_vehicle</text>
<text text-anchor="middle" x="125" y="-5.75" font-family="Helvetica,sans-Serif" font-size="10.00">_location.cpp</text>
</a>
</g>
</g>
<!-- Node1&#45;&gt;Node3 -->
<g id="edge4_Node000001_Node000003" class="edge">
<title>Node1&#45;&gt;Node3</title>
<g id="a_edge4_Node000001_Node000003"><a xlink:title=" ">
<path fill="none" stroke="#63b8ff" d="M172.88,-143.79C170.08,-125.02 165.15,-99.27 157,-77.75 152.29,-65.31 145.04,-52.36 138.64,-42.07"/>
<polygon fill="#63b8ff" stroke="#63b8ff" points="169.38,-144.08 174.21,-153.51 176.32,-143.13 169.38,-144.08"/>
</a>
</g>
</g>
<!-- Node4 -->
<g id="Node000004" class="node">
<title>Node4</title>
<g id="a_Node000004"><a xlink:href="units__kf__1x1x0__building__height_8cpp.xhtml" target="_top" xlink:title=" ">
<polygon fill="white" stroke="#666666" points="325.88,-119.5 204.12,-119.5 204.12,-77.75 325.88,-77.75 325.88,-119.5"/>
<text text-anchor="start" x="212.12" y="-106" font-family="Helvetica,sans-Serif" font-size="10.00">/github/workspace/test</text>
<text text-anchor="start" x="212.12" y="-94.75" font-family="Helvetica,sans-Serif" font-size="10.00">/units_kf_1x1x0_building</text>
<text text-anchor="middle" x="265" y="-83.5" font-family="Helvetica,sans-Serif" font-size="10.00">_height.cpp</text>
</a>
</g>
</g>
<!-- Node1&#45;&gt;Node4 -->
<g id="edge3_Node000001_Node000004" class="edge">
<title>Node1&#45;&gt;Node4</title>
<g id="a_edge3_Node000001_Node000004"><a xlink:title=" ">
<path fill="none" stroke="#63b8ff" d="M203.16,-148.35C214.6,-139.33 227.86,-128.89 239.16,-119.99"/>
<polygon fill="#63b8ff" stroke="#63b8ff" points="201.32,-145.35 195.63,-154.28 205.65,-150.84 201.32,-145.35"/>
</a>
</g>
</g>
<!-- Node2&#45;&gt;Node3 -->
<g id="edge2_Node000002_Node000003" class="edge">
<title>Node2&#45;&gt;Node3</title>
<g id="a_edge2_Node000002_Node000003"><a xlink:title=" ">
<path fill="none" stroke="#63b8ff" d="M90.21,-73.55C97.01,-63.45 104.84,-51.82 111.34,-42.16"/>
<polygon fill="#63b8ff" stroke="#63b8ff" points="87.36,-71.51 84.68,-81.76 93.17,-75.42 87.36,-71.51"/>
</a>
</g>
</g>
</g>
</svg>
