<?xml version="1.0" encoding="UTF-8" standalone="no"?>
<!DOCTYPE svg PUBLIC "-//W3C//DTD SVG 1.1//EN"
 "http://www.w3.org/Graphics/SVG/1.1/DTD/svg11.dtd">
<!-- Generated by graphviz version 12.2.0 (20241103.1931)
 -->
<!-- Title: /github/workspace/support/mp_units/fcarouge/unit.hpp Pages: 1 -->
<svg width="700pt" height="105pt"
 viewBox="0.00 0.00 699.50 105.00" xmlns="http://www.w3.org/2000/svg" xmlns:xlink="http://www.w3.org/1999/xlink">
<g id="graph0" class="graph" transform="scale(1 1) rotate(0) translate(4 101)">
<title>/github/workspace/support/mp_units/fcarouge/unit.hpp</title>
<!-- Node1 -->
<g id="Node000001" class="node">
<title>Node1</title>
<g id="a_Node000001"><a xlink:title="Quantities and units facade for mp&#45;units third party implementation.">
<polygon fill="#999999" stroke="#666666" points="404.88,-97 268.88,-97 268.88,-66.5 404.88,-66.5 404.88,-97"/>
<text text-anchor="start" x="276.88" y="-83.5" font-family="Helvetica,sans-Serif" font-size="10.00">/github/workspace/support</text>
<text text-anchor="middle" x="336.88" y="-72.25" font-family="Helvetica,sans-Serif" font-size="10.00">/mp_units/fcarouge/unit.hpp</text>
</a>
</g>
</g>
<!-- Node2 -->
<g id="Node000002" class="node">
<title>Node2</title>
<g id="a_Node000002"><a xlink:title=" ">
<polygon fill="#e0e0e0" stroke="#999999" points="91.75,-24.88 0,-24.88 0,-5.63 91.75,-5.63 91.75,-24.88"/>
<text text-anchor="middle" x="45.88" y="-11.38" font-family="Helvetica,sans-Serif" font-size="10.00">mp&#45;units/format.h</text>
</a>
</g>
</g>
<!-- Node1&#45;&gt;Node2 -->
<g id="edge1_Node000001_Node000002" class="edge">
<title>Node1&#45;&gt;Node2</title>
<g id="a_edge1_Node000001_Node000002"><a xlink:title=" ">
<path fill="none" stroke="#63b8ff" d="M268.54,-67.02C221.32,-57.34 157.14,-43.77 100.88,-30.5 97.57,-29.72 94.17,-28.89 90.74,-28.05"/>
<polygon fill="#63b8ff" stroke="#63b8ff" points="91.87,-24.72 81.32,-25.67 90.16,-31.51 91.87,-24.72"/>
</a>
</g>
</g>
<!-- Node3 -->
<g id="Node000003" class="node">
<title>Node3</title>
<g id="a_Node000003"><a xlink:title=" ">
<polygon fill="#e0e0e0" stroke="#999999" points="212,-30.5 109.75,-30.5 109.75,0 212,0 212,-30.5"/>
<text text-anchor="start" x="117.75" y="-17" font-family="Helvetica,sans-Serif" font-size="10.00">mp&#45;units/framework</text>
<text text-anchor="middle" x="160.88" y="-5.75" font-family="Helvetica,sans-Serif" font-size="10.00">/quantity.h</text>
</a>
</g>
</g>
<!-- Node1&#45;&gt;Node3 -->
<g id="edge2_Node000001_Node000003" class="edge">
<title>Node1&#45;&gt;Node3</title>
<g id="a_edge2_Node000001_Node000003"><a xlink:title=" ">
<path fill="none" stroke="#63b8ff" d="M296.94,-66.11C271.6,-56.83 238.59,-44.73 211.43,-34.78"/>
<polygon fill="#63b8ff" stroke="#63b8ff" points="212.97,-31.62 202.38,-31.46 210.56,-38.19 212.97,-31.62"/>
</a>
</g>
</g>
<!-- Node4 -->
<g id="Node000004" class="node">
<title>Node4</title>
<g id="a_Node000004"><a xlink:title=" ">
<polygon fill="#e0e0e0" stroke="#999999" points="332,-30.5 229.75,-30.5 229.75,0 332,0 332,-30.5"/>
<text text-anchor="start" x="237.75" y="-17" font-family="Helvetica,sans-Serif" font-size="10.00">mp&#45;units/framework</text>
<text text-anchor="middle" x="280.88" y="-5.75" font-family="Helvetica,sans-Serif" font-size="10.00">/quantity_point.h</text>
</a>
</g>
</g>
<!-- Node1&#45;&gt;Node4 -->
<g id="edge3_Node000001_Node000004" class="edge">
<title>Node1&#45;&gt;Node4</title>
<g id="a_edge3_Node000001_Node000004"><a xlink:title=" ">
<path fill="none" stroke="#63b8ff" d="M324.17,-66.11C317.29,-58.2 308.65,-48.24 300.89,-39.3"/>
<polygon fill="#63b8ff" stroke="#63b8ff" points="303.72,-37.23 294.52,-31.97 298.44,-41.82 303.72,-37.23"/>
</a>
</g>
</g>
<!-- Node5 -->
<g id="Node000005" class="node">
<title>Node5</title>
<g id="a_Node000005"><a xlink:title=" ">
<polygon fill="#e0e0e0" stroke="#999999" points="435.75,-24.88 350,-24.88 350,-5.63 435.75,-5.63 435.75,-24.88"/>
<text text-anchor="middle" x="392.88" y="-11.38" font-family="Helvetica,sans-Serif" font-size="10.00">mp&#45;units/math.h</text>
</a>
</g>
</g>
<!-- Node1&#45;&gt;Node5 -->
<g id="edge4_Node000001_Node000005" class="edge">
<title>Node1&#45;&gt;Node5</title>
<g id="a_edge4_Node000001_Node000005"><a xlink:title=" ">
<path fill="none" stroke="#63b8ff" d="M349.58,-66.11C357.98,-56.44 369.03,-43.71 377.87,-33.54"/>
<polygon fill="#63b8ff" stroke="#63b8ff" points="380.31,-36.06 384.22,-26.22 375.02,-31.47 380.31,-36.06"/>
</a>
</g>
</g>
<!-- Node6 -->
<g id="Node000006" class="node">
<title>Node6</title>
<g id="a_Node000006"><a xlink:title=" ">
<polygon fill="#e0e0e0" stroke="#999999" points="562.38,-30.5 453.38,-30.5 453.38,0 562.38,0 562.38,-30.5"/>
<text text-anchor="start" x="461.38" y="-17" font-family="Helvetica,sans-Serif" font-size="10.00">mp&#45;units/systems/isq</text>
<text text-anchor="middle" x="507.88" y="-5.75" font-family="Helvetica,sans-Serif" font-size="10.00">/thermodynamics.h</text>
</a>
</g>
</g>
<!-- Node1&#45;&gt;Node6 -->
<g id="edge5_Node000001_Node000006" class="edge">
<title>Node1&#45;&gt;Node6</title>
<g id="a_edge5_Node000001_Node000006"><a xlink:title=" ">
<path fill="none" stroke="#63b8ff" d="M375.68,-66.11C400.19,-56.87 432.08,-44.84 458.4,-34.91"/>
<polygon fill="#63b8ff" stroke="#63b8ff" points="459.39,-38.28 467.51,-31.47 456.92,-31.73 459.39,-38.28"/>
</a>
</g>
</g>
<!-- Node7 -->
<g id="Node000007" class="node">
<title>Node7</title>
<g id="a_Node000007"><a xlink:title=" ">
<polygon fill="#e0e0e0" stroke="#999999" points="691.5,-24.88 580.25,-24.88 580.25,-5.63 691.5,-5.63 691.5,-24.88"/>
<text text-anchor="middle" x="635.88" y="-11.38" font-family="Helvetica,sans-Serif" font-size="10.00">mp&#45;units/systems/si.h</text>
</a>
</g>
</g>
<!-- Node1&#45;&gt;Node7 -->
<g id="edge6_Node000001_Node000007" class="edge">
<title>Node1&#45;&gt;Node7</title>
<g id="a_edge6_Node000001_Node000007"><a xlink:title=" ">
<path fill="none" stroke="#63b8ff" d="M405.29,-66.28C452.19,-56.32 515.83,-42.73 571.88,-30.5 575.89,-29.62 580.05,-28.71 584.23,-27.79"/>
<polygon fill="#63b8ff" stroke="#63b8ff" points="584.77,-31.25 593.78,-25.67 583.26,-24.42 584.77,-31.25"/>
</a>
</g>
</g>
</g>
</svg>
