<?xml version="1.0" encoding="UTF-8" standalone="no"?>
<!DOCTYPE svg PUBLIC "-//W3C//DTD SVG 1.1//EN"
 "http://www.w3.org/Graphics/SVG/1.1/DTD/svg11.dtd">
<!-- Generated by graphviz version 12.2.0 (20241103.1931)
 -->
<!-- Title: /github/workspace/benchmark/update_linalg_xx0.cpp Pages: 1 -->
<!--zoomable 326 -->

<svg id="main" version="1.1" xmlns="http://www.w3.org/2000/svg" xmlns:xlink="http://www.w3.org/1999/xlink" xml:space="preserve" onload="init(evt)">

<style type="text/css"><![CDATA[
.node, .edge {opacity: 0.7;}
.node.selected, .edge.selected {opacity: 1;}
.edge:hover path { stroke: red; }
.edge:hover polygon { stroke: red; fill: red; }
]]></style>

<defs>
  <circle id="rim" cx="0" cy="0" r="7"/>
  <circle id="rim2" cx="0" cy="0" r="3.5"/>
  <g id="zoomPlus">
    <use xlink:href="#rim" fill="#404040"><set attributeName="fill" to="#808080" begin="zoomplus.mouseover" end="zoomplus.mouseout"/></use>
    <path d="M-4,0h8M0,-4v8" fill="none" stroke="white" stroke-width="1.5" pointer-events="none"/>
  </g>
  <g id="zoomMin">
    <use xlink:href="#rim" fill="#404040"><set attributeName="fill" to="#808080" begin="zoomminus.mouseover" end="zoomminus.mouseout"/></use>
    <path d="M-4,0h8" fill="none" stroke="white" stroke-width="1.5" pointer-events="none"/>
  </g>
  <g id="arrowUp" transform="translate(30 24)">
    <use xlink:href="#rim"/>
    <path pointer-events="none" fill="none" stroke="white" stroke-width="1.5" d="M0,-3.0v7 M-2.5,-0.5L0,-3.0L2.5,-0.5"/>
  </g>
  <g id="arrowRight" transform="rotate(90) translate(36 -43)">
    <use xlink:href="#rim"/>
    <path pointer-events="none" fill="none" stroke="white" stroke-width="1.5" d="M0,-3.0v7 M-2.5,-0.5L0,-3.0L2.5,-0.5"/>
  </g>
  <g id="arrowDown" transform="rotate(180) translate(-30 -48)">
    <use xlink:href="#rim"/>
    <path pointer-events="none" fill="none" stroke="white" stroke-width="1.5" d="M0,-3.0v7 M-2.5,-0.5L0,-3.0L2.5,-0.5"/>
  </g>
  <g id="arrowLeft" transform="rotate(270) translate(-36 17)">
    <use xlink:href="#rim"/>
    <path pointer-events="none" fill="none" stroke="white" stroke-width="1.5" d="M0,-3.0v7 M-2.5,-0.5L0,-3.0L2.5,-0.5"/>
  </g>
  <g id="resetDef">
    <use xlink:href="#rim2" fill="#404040"><set attributeName="fill" to="#808080" begin="reset.mouseover" end="reset.mouseout"/></use>
  </g>
</defs>
<script type="application/ecmascript">
var viewWidth = 1490;
var viewHeight = 326;
var sectionId = 'dynsection-0';
</script>
<script type="application/ecmascript" xlink:href="svg.min.js"/>
<svg id="graph" class="graph">
<g id="viewport">
<title>/github/workspace/benchmark/update_linalg_xx0.cpp</title>
<!-- Node1 -->
<g id="Node000001" class="node">
<title>Node1</title>
<g id="a_Node000001"><a xlink:title=" ">
<polygon fill="#999999" stroke="#666666" points="509.55,-318 363.05,-318 363.05,-287.5 509.55,-287.5 509.55,-318"/>
<text text-anchor="start" x="371.05" y="-304.5" font-family="Helvetica,sans-Serif" font-size="10.00">/github/workspace/benchmark</text>
<text text-anchor="middle" x="436.3" y="-293.25" font-family="Helvetica,sans-Serif" font-size="10.00">/update_linalg_xx0.cpp</text>
</a>
</g>
</g>
<!-- Node2 -->
<g id="Node000002" class="node">
<title>Node2</title>
<g id="a_Node000002"><a xlink:href="benchmark_8hpp.xhtml" target="_top" xlink:title="Benchmarking support.">
<polygon fill="white" stroke="#666666" points="94.3,-251.5 12.3,-251.5 12.3,-232.25 94.3,-232.25 94.3,-251.5"/>
<text text-anchor="middle" x="53.3" y="-238" font-family="Helvetica,sans-Serif" font-size="10.00">benchmark.hpp</text>
</a>
</g>
</g>
<!-- Node1&#45;&gt;Node2 -->
<g id="edge1_Node000001_Node000002" class="edge">
<title>Node1&#45;&gt;Node2</title>
<g id="a_edge1_Node000001_Node000002"><a xlink:title=" ">
<path fill="none" stroke="#63b8ff" d="M362.68,-290.55C296.2,-280.41 195.68,-265.05 108.3,-251.5 107.47,-251.37 106.64,-251.24 105.81,-251.11"/>
<polygon fill="#63b8ff" stroke="#63b8ff" points="106.65,-247.7 96.23,-249.62 105.58,-254.62 106.65,-247.7"/>
</a>
</g>
</g>
<!-- Node3 -->
<g id="Node000003" class="node">
<title>Node3</title>
<g id="a_Node000003"><a xlink:title=" ">
<polygon fill="#e0e0e0" stroke="#999999" points="82.92,-196.25 37.67,-196.25 37.67,-177 82.92,-177 82.92,-196.25"/>
<text text-anchor="middle" x="60.3" y="-182.75" font-family="Helvetica,sans-Serif" font-size="10.00">chrono</text>
</a>
</g>
</g>
<!-- Node1&#45;&gt;Node3 -->
<g id="edge61_Node000001_Node000003" class="edge">
<title>Node1&#45;&gt;Node3</title>
<g id="a_edge61_Node000001_Node000003"><a xlink:title=" ">
<path fill="none" stroke="#63b8ff" d="M362.72,-298.43C302.45,-293.53 216.03,-281.41 146.3,-251.5 119.76,-240.12 93.78,-219.05 77.44,-204.23"/>
<polygon fill="#63b8ff" stroke="#63b8ff" points="80.22,-202.03 70.52,-197.77 75.45,-207.15 80.22,-202.03"/>
</a>
</g>
</g>
<!-- Node5 -->
<g id="Node000005" class="node">
<title>Node5</title>
<g id="a_Node000005"><a xlink:href="kalman_8hpp.xhtml" target="_top" xlink:title="The Kalman filter class and library top&#45;level header.">
<polygon fill="white" stroke="#666666" points="305.3,-251.5 199.3,-251.5 199.3,-232.25 305.3,-232.25 305.3,-251.5"/>
<text text-anchor="middle" x="252.3" y="-238" font-family="Helvetica,sans-Serif" font-size="10.00">fcarouge/kalman.hpp</text>
</a>
</g>
</g>
<!-- Node1&#45;&gt;Node5 -->
<g id="edge4_Node000001_Node000005" class="edge">
<title>Node1&#45;&gt;Node5</title>
<g id="a_edge4_Node000001_Node000005"><a xlink:title=" ">
<path fill="none" stroke="#63b8ff" d="M390.34,-287.05C359.99,-277.33 320.63,-264.74 291.71,-255.48"/>
<polygon fill="#63b8ff" stroke="#63b8ff" points="292.82,-252.17 282.23,-252.45 290.68,-258.83 292.82,-252.17"/>
</a>
</g>
</g>
<!-- Node9 -->
<g id="Node000009" class="node">
<title>Node9</title>
<g id="a_Node000009"><a xlink:href="utility_8hpp.xhtml" target="_top" xlink:title=" ">
<polygon fill="white" stroke="#666666" points="550.55,-74.5 494.05,-74.5 494.05,-55.25 550.55,-55.25 550.55,-74.5"/>
<text text-anchor="middle" x="522.3" y="-61" font-family="Helvetica,sans-Serif" font-size="10.00">utility.hpp</text>
</a>
</g>
</g>
<!-- Node1&#45;&gt;Node9 -->
<g id="edge57_Node000001_Node000009" class="edge">
<title>Node1&#45;&gt;Node9</title>
<g id="a_edge57_Node000001_Node000009"><a xlink:title=" ">
<path fill="none" stroke="#63b8ff" d="M362.6,-298.45C245.26,-292.44 26.73,-277.81 3.3,-251.5 -2.39,-245.11 1.49,-240.61 3.3,-232.25 16.75,-169.9 23.58,-141.56 79.3,-110.5 147.85,-72.29 386.38,-66.62 482.1,-65.91"/>
<polygon fill="#63b8ff" stroke="#63b8ff" points="482.08,-69.41 492.06,-65.85 482.04,-62.41 482.08,-69.41"/>
</a>
</g>
</g>
<!-- Node11 -->
<g id="Node000011" class="node">
<title>Node11</title>
<g id="a_Node000011"><a xlink:title=" ">
<polygon fill="#e0e0e0" stroke="#999999" points="576.42,-19.25 528.17,-19.25 528.17,0 576.42,0 576.42,-19.25"/>
<text text-anchor="middle" x="552.3" y="-5.75" font-family="Helvetica,sans-Serif" font-size="10.00">cstddef</text>
</a>
</g>
</g>
<!-- Node1&#45;&gt;Node11 -->
<g id="edge63_Node000001_Node000011" class="edge">
<title>Node1&#45;&gt;Node11</title>
<g id="a_edge63_Node000001_Node000011"><a xlink:title=" ">
<path fill="none" stroke="#63b8ff" d="M362.57,-297.8C311.63,-292.49 243.69,-280.14 190.3,-251.5 128.95,-218.6 106.01,-205.28 79.3,-141 74.09,-128.48 75.27,-123.45 79.3,-110.5 88.14,-82.04 91.56,-70.29 117.3,-55.25 191.86,-11.68 413.62,-32.91 516.53,-19.23"/>
<polygon fill="#63b8ff" stroke="#63b8ff" points="517.04,-22.69 526.39,-17.72 515.98,-15.78 517.04,-22.69"/>
</a>
</g>
</g>
<!-- Node31 -->
<g id="Node000031" class="node">
<title>Node31</title>
<g id="a_Node000031"><a xlink:title=" ">
<polygon fill="#e0e0e0" stroke="#999999" points="420.8,-251.5 323.8,-251.5 323.8,-232.25 420.8,-232.25 420.8,-251.5"/>
<text text-anchor="middle" x="372.3" y="-238" font-family="Helvetica,sans-Serif" font-size="10.00">fcarouge/linalg.hpp</text>
</a>
</g>
</g>
<!-- Node1&#45;&gt;Node31 -->
<g id="edge58_Node000001_Node000031" class="edge">
<title>Node1&#45;&gt;Node31</title>
<g id="a_edge58_Node000001_Node000031"><a xlink:title=" ">
<path fill="none" stroke="#63b8ff" d="M420.48,-287.2C411.39,-278.84 399.94,-268.3 390.48,-259.6"/>
<polygon fill="#63b8ff" stroke="#63b8ff" points="393.01,-257.17 383.28,-252.98 388.27,-262.32 393.01,-257.17"/>
</a>
</g>
</g>
<!-- Node32 -->
<g id="Node000032" class="node">
<title>Node32</title>
<g id="a_Node000032"><a xlink:title=" ">
<polygon fill="#e0e0e0" stroke="#999999" points="561.55,-251.5 439.05,-251.5 439.05,-232.25 561.55,-232.25 561.55,-251.5"/>
<text text-anchor="middle" x="500.3" y="-238" font-family="Helvetica,sans-Serif" font-size="10.00">benchmark/benchmark.h</text>
</a>
</g>
</g>
<!-- Node1&#45;&gt;Node32 -->
<g id="edge59_Node000001_Node000032" class="edge">
<title>Node1&#45;&gt;Node32</title>
<g id="a_edge59_Node000001_Node000032"><a xlink:title=" ">
<path fill="none" stroke="#63b8ff" d="M452.12,-287.2C461.21,-278.84 472.66,-268.3 482.11,-259.6"/>
<polygon fill="#63b8ff" stroke="#63b8ff" points="484.33,-262.32 489.32,-252.98 479.59,-257.17 484.33,-262.32"/>
</a>
</g>
</g>
<!-- Node33 -->
<g id="Node000033" class="node">
<title>Node33</title>
<g id="a_Node000033"><a xlink:title=" ">
<polygon fill="#e0e0e0" stroke="#999999" points="635.17,-251.5 579.42,-251.5 579.42,-232.25 635.17,-232.25 635.17,-251.5"/>
<text text-anchor="middle" x="607.3" y="-238" font-family="Helvetica,sans-Serif" font-size="10.00">algorithm</text>
</a>
</g>
</g>
<!-- Node1&#45;&gt;Node33 -->
<g id="edge60_Node000001_Node000033" class="edge">
<title>Node1&#45;&gt;Node33</title>
<g id="a_edge60_Node000001_Node000033"><a xlink:title=" ">
<path fill="none" stroke="#63b8ff" d="M479.01,-287.05C506.96,-277.42 543.15,-264.96 569.96,-255.73"/>
<polygon fill="#63b8ff" stroke="#63b8ff" points="571.07,-259.05 579.39,-252.48 568.79,-252.43 571.07,-259.05"/>
</a>
</g>
</g>
<!-- Node34 -->
<g id="Node000034" class="node">
<title>Node34</title>
<g id="a_Node000034"><a xlink:title=" ">
<polygon fill="#e0e0e0" stroke="#999999" points="695.8,-251.5 652.8,-251.5 652.8,-232.25 695.8,-232.25 695.8,-251.5"/>
<text text-anchor="middle" x="674.3" y="-238" font-family="Helvetica,sans-Serif" font-size="10.00">cmath</text>
</a>
</g>
</g>
<!-- Node1&#45;&gt;Node34 -->
<g id="edge62_Node000001_Node000034" class="edge">
<title>Node1&#45;&gt;Node34</title>
<g id="a_edge62_Node000001_Node000034"><a xlink:title=" ">
<path fill="none" stroke="#63b8ff" d="M500.2,-287.06C538.78,-278.02 589.17,-265.91 641.53,-252.16"/>
<polygon fill="#63b8ff" stroke="#63b8ff" points="642.13,-255.62 650.91,-249.68 640.35,-248.85 642.13,-255.62"/>
</a>
</g>
</g>
<!-- Node35 -->
<g id="Node000035" class="node">
<title>Node35</title>
<g id="a_Node000035"><a xlink:title=" ">
<polygon fill="#e0e0e0" stroke="#999999" points="758.92,-251.5 713.67,-251.5 713.67,-232.25 758.92,-232.25 758.92,-251.5"/>
<text text-anchor="middle" x="736.3" y="-238" font-family="Helvetica,sans-Serif" font-size="10.00">cstdint</text>
</a>
</g>
</g>
<!-- Node1&#45;&gt;Node35 -->
<g id="edge64_Node000001_Node000035" class="edge">
<title>Node1&#45;&gt;Node35</title>
<g id="a_edge64_Node000001_Node000035"><a xlink:title=" ">
<path fill="none" stroke="#63b8ff" d="M510.01,-289.75C561.62,-280.95 632.38,-268.06 702.53,-252"/>
<polygon fill="#63b8ff" stroke="#63b8ff" points="702.9,-255.51 711.86,-249.84 701.32,-248.69 702.9,-255.51"/>
</a>
</g>
</g>
<!-- Node36 -->
<g id="Node000036" class="node">
<title>Node36</title>
<g id="a_Node000036"><a xlink:title=" ">
<polygon fill="#e0e0e0" stroke="#999999" points="821.92,-251.5 776.67,-251.5 776.67,-232.25 821.92,-232.25 821.92,-251.5"/>
<text text-anchor="middle" x="799.3" y="-238" font-family="Helvetica,sans-Serif" font-size="10.00">cstring</text>
</a>
</g>
</g>
<!-- Node1&#45;&gt;Node36 -->
<g id="edge65_Node000001_Node000036" class="edge">
<title>Node1&#45;&gt;Node36</title>
<g id="a_edge65_Node000001_Node000036"><a xlink:title=" ">
<path fill="none" stroke="#63b8ff" d="M509.95,-293.2C574.96,-285.07 672.45,-271.43 765.34,-251.94"/>
<polygon fill="#63b8ff" stroke="#63b8ff" points="765.82,-255.41 774.87,-249.91 764.36,-248.57 765.82,-255.41"/>
</a>
</g>
</g>
<!-- Node37 -->
<g id="Node000037" class="node">
<title>Node37</title>
<g id="a_Node000037"><a xlink:title=" ">
<polygon fill="#e0e0e0" stroke="#999999" points="888.42,-251.5 840.17,-251.5 840.17,-232.25 888.42,-232.25 888.42,-251.5"/>
<text text-anchor="middle" x="864.3" y="-238" font-family="Helvetica,sans-Serif" font-size="10.00">random</text>
</a>
</g>
</g>
<!-- Node1&#45;&gt;Node37 -->
<g id="edge66_Node000001_Node000037" class="edge">
<title>Node1&#45;&gt;Node37</title>
<g id="a_edge66_Node000001_Node000037"><a xlink:title=" ">
<path fill="none" stroke="#63b8ff" d="M509.91,-295.25C587.09,-287.8 712.05,-273.9 828.62,-251.8"/>
<polygon fill="#63b8ff" stroke="#63b8ff" points="829.22,-255.25 838.38,-249.92 827.9,-248.37 829.22,-255.25"/>
</a>
</g>
</g>
<!-- Node2&#45;&gt;Node3 -->
<g id="edge2_Node000002_Node000003" class="edge">
<title>Node2&#45;&gt;Node3</title>
<g id="a_edge2_Node000002_Node000003"><a xlink:title=" ">
<path fill="none" stroke="#63b8ff" d="M54.45,-232.08C55.32,-225.49 56.54,-216.21 57.64,-207.82"/>
<polygon fill="#63b8ff" stroke="#63b8ff" points="61.08,-208.48 58.92,-198.11 54.14,-207.57 61.08,-208.48"/>
</a>
</g>
</g>
<!-- Node4 -->
<g id="Node000004" class="node">
<title>Node4</title>
<g id="a_Node000004"><a xlink:title=" ">
<polygon fill="#e0e0e0" stroke="#999999" points="90.8,-19.25 29.8,-19.25 29.8,0 90.8,0 90.8,-19.25"/>
<text text-anchor="middle" x="60.3" y="-5.75" font-family="Helvetica,sans-Serif" font-size="10.00">type_traits</text>
</a>
</g>
</g>
<!-- Node2&#45;&gt;Node4 -->
<g id="edge3_Node000002_Node000004" class="edge">
<title>Node2&#45;&gt;Node4</title>
<g id="a_edge3_Node000002_Node000004"><a xlink:title=" ">
<path fill="none" stroke="#63b8ff" d="M46.43,-231.9C40.31,-223.29 31.8,-209.65 28.3,-196.25 12.71,-136.53 37.5,-63.97 51.6,-29.96"/>
<polygon fill="#63b8ff" stroke="#63b8ff" points="54.71,-31.58 55.46,-21.02 48.29,-28.81 54.71,-31.58"/>
</a>
</g>
</g>
<!-- Node6 -->
<g id="Node000006" class="node">
<title>Node6</title>
<g id="a_Node000006"><a xlink:href="kalman__forward_8hpp.xhtml" target="_top" xlink:title="Authoritative forward declaration header.">
<polygon fill="white" stroke="#666666" points="704.8,-196.25 601.8,-196.25 601.8,-177 704.8,-177 704.8,-196.25"/>
<text text-anchor="middle" x="653.3" y="-182.75" font-family="Helvetica,sans-Serif" font-size="10.00">kalman_forward.hpp</text>
</a>
</g>
</g>
<!-- Node5&#45;&gt;Node6 -->
<g id="edge5_Node000005_Node000006" class="edge">
<title>Node5&#45;&gt;Node6</title>
<g id="a_edge5_Node000005_Node000006"><a xlink:title=" ">
<path fill="none" stroke="#63b8ff" d="M305.57,-233.56C308.86,-233.12 312.12,-232.68 315.3,-232.25 366.98,-225.3 507.66,-206.77 590.32,-195.9"/>
<polygon fill="#63b8ff" stroke="#63b8ff" points="590.63,-199.39 600.09,-194.62 589.72,-192.45 590.63,-199.39"/>
</a>
</g>
</g>
<!-- Node7 -->
<g id="Node000007" class="node">
<title>Node7</title>
<g id="a_Node000007"><a xlink:href="factory_8hpp.xhtml" target="_top" xlink:title=" ">
<polygon fill="white" stroke="#666666" points="545.55,-196.25 411.05,-196.25 411.05,-177 545.55,-177 545.55,-196.25"/>
<text text-anchor="middle" x="478.3" y="-182.75" font-family="Helvetica,sans-Serif" font-size="10.00">kalman_internal/factory.hpp</text>
</a>
</g>
</g>
<!-- Node5&#45;&gt;Node7 -->
<g id="edge6_Node000005_Node000007" class="edge">
<title>Node5&#45;&gt;Node7</title>
<g id="a_edge6_Node000005_Node000007"><a xlink:title=" ">
<path fill="none" stroke="#63b8ff" d="M290.89,-231.78C329,-222.8 387.43,-209.03 428.91,-199.26"/>
<polygon fill="#63b8ff" stroke="#63b8ff" points="429.46,-202.73 438.39,-197.03 427.85,-195.91 429.46,-202.73"/>
</a>
</g>
</g>
<!-- Node5&#45;&gt;Node9 -->
<g id="edge55_Node000005_Node000009" class="edge">
<title>Node5&#45;&gt;Node9</title>
<g id="a_edge55_Node000005_Node000009"><a xlink:title=" ">
<path fill="none" stroke="#63b8ff" d="M229.21,-231.83C214.3,-224.63 196.1,-212.96 187.3,-196.25 169.88,-163.17 210.92,-120.35 225.3,-110.5 266.46,-82.32 412.02,-71.33 482.91,-67.58"/>
<polygon fill="#63b8ff" stroke="#63b8ff" points="482.7,-71.1 492.52,-67.1 482.35,-64.11 482.7,-71.1"/>
</a>
</g>
</g>
<!-- Node26 -->
<g id="Node000026" class="node">
<title>Node26</title>
<g id="a_Node000026"><a xlink:href="format_8hpp.xhtml" target="_top" xlink:title="Formatting support for the Kalman filter.">
<polygon fill="white" stroke="#666666" points="1428.8,-135.38 1295.8,-135.38 1295.8,-116.12 1428.8,-116.12 1428.8,-135.38"/>
<text text-anchor="middle" x="1362.3" y="-121.88" font-family="Helvetica,sans-Serif" font-size="10.00">kalman_internal/format.hpp</text>
</a>
</g>
</g>
<!-- Node5&#45;&gt;Node26 -->
<g id="edge48_Node000005_Node000026" class="edge">
<title>Node5&#45;&gt;Node26</title>
<g id="a_edge48_Node000005_Node000026"><a xlink:title=" ">
<path fill="none" stroke="#63b8ff" d="M305.72,-233.42C389.27,-221.7 542.57,-199.91 554.3,-196.25 572.75,-190.49 574.59,-181.88 593.3,-177 741.43,-138.32 1129.18,-158.3 1281.3,-141 1289.01,-140.12 1297.1,-138.98 1305.06,-137.71"/>
<polygon fill="#63b8ff" stroke="#63b8ff" points="1305.39,-141.21 1314.68,-136.11 1304.24,-134.3 1305.39,-141.21"/>
</a>
</g>
</g>
<!-- Node28 -->
<g id="Node000028" class="node">
<title>Node28</title>
<g id="a_Node000028"><a xlink:href="printer_8hpp.xhtml" target="_top" xlink:title="Filter decoration support for printing operations.">
<polygon fill="white" stroke="#666666" points="1192.42,-196.25 1060.17,-196.25 1060.17,-177 1192.42,-177 1192.42,-196.25"/>
<text text-anchor="middle" x="1126.3" y="-182.75" font-family="Helvetica,sans-Serif" font-size="10.00">kalman_internal/printer.hpp</text>
</a>
</g>
</g>
<!-- Node5&#45;&gt;Node28 -->
<g id="edge53_Node000005_Node000028" class="edge">
<title>Node5&#45;&gt;Node28</title>
<g id="a_edge53_Node000005_Node000028"><a xlink:title=" ">
<path fill="none" stroke="#63b8ff" d="M305.54,-233.28C308.84,-232.9 312.11,-232.56 315.3,-232.25 583.85,-206.52 903.96,-194.32 1048.57,-189.8"/>
<polygon fill="#63b8ff" stroke="#63b8ff" points="1048.53,-193.31 1058.42,-189.5 1048.31,-186.31 1048.53,-193.31"/>
</a>
</g>
</g>
<!-- Node30 -->
<g id="Node000030" class="node">
<title>Node30</title>
<g id="a_Node000030"><a xlink:title=" ">
<polygon fill="#e0e0e0" stroke="#999999" points="330.55,-196.25 196.05,-196.25 196.05,-177 330.55,-177 330.55,-196.25"/>
<text text-anchor="middle" x="263.3" y="-182.75" font-family="Helvetica,sans-Serif" font-size="10.00">kalman_internal/kalman.tpp</text>
</a>
</g>
</g>
<!-- Node5&#45;&gt;Node30 -->
<g id="edge56_Node000005_Node000030" class="edge">
<title>Node5&#45;&gt;Node30</title>
<g id="a_edge56_Node000005_Node000030"><a xlink:title=" ">
<path fill="none" stroke="#63b8ff" d="M254.11,-232.08C255.47,-225.49 257.39,-216.21 259.12,-207.82"/>
<polygon fill="#63b8ff" stroke="#63b8ff" points="262.54,-208.59 261.13,-198.09 255.68,-207.18 262.54,-208.59"/>
</a>
</g>
</g>
<!-- Node7&#45;&gt;Node4 -->
<g id="edge47_Node000007_Node000004" class="edge">
<title>Node7&#45;&gt;Node4</title>
<g id="a_edge47_Node000007_Node000004"><a xlink:title=" ">
<path fill="none" stroke="#63b8ff" d="M410.85,-180.23C300.18,-171.07 91.05,-152.37 79.3,-141 49.65,-112.33 52.34,-59.36 56.52,-30.55"/>
<polygon fill="#63b8ff" stroke="#63b8ff" points="59.92,-31.44 58.13,-21 53.02,-30.28 59.92,-31.44"/>
</a>
</g>
</g>
<!-- Node8 -->
<g id="Node000008" class="node">
<title>Node8</title>
<g id="a_Node000008"><a xlink:href="type_8hpp.xhtml" target="_top" xlink:title=" ">
<polygon fill="white" stroke="#666666" points="140.3,-135.38 88.3,-135.38 88.3,-116.12 140.3,-116.12 140.3,-135.38"/>
<text text-anchor="middle" x="114.3" y="-121.88" font-family="Helvetica,sans-Serif" font-size="10.00">type.hpp</text>
</a>
</g>
</g>
<!-- Node7&#45;&gt;Node8 -->
<g id="edge7_Node000007_Node000008" class="edge">
<title>Node7&#45;&gt;Node8</title>
<g id="a_edge7_Node000007_Node000008"><a xlink:title=" ">
<path fill="none" stroke="#63b8ff" d="M416.85,-176.51C358.89,-167.8 269.59,-154.09 192.3,-141 179.1,-138.77 164.67,-136.17 151.86,-133.82"/>
<polygon fill="#63b8ff" stroke="#63b8ff" points="152.58,-130.39 142.11,-132.01 151.31,-137.27 152.58,-130.39"/>
</a>
</g>
</g>
<!-- Node10 -->
<g id="Node000010" class="node">
<title>Node10</title>
<g id="a_Node000010"><a xlink:title=" ">
<polygon fill="#e0e0e0" stroke="#999999" points="354.17,-19.25 298.42,-19.25 298.42,0 354.17,0 354.17,-19.25"/>
<text text-anchor="middle" x="326.3" y="-5.75" font-family="Helvetica,sans-Serif" font-size="10.00">concepts</text>
</a>
</g>
</g>
<!-- Node7&#45;&gt;Node10 -->
<g id="edge45_Node000007_Node000010" class="edge">
<title>Node7&#45;&gt;Node10</title>
<g id="a_edge45_Node000007_Node000010"><a xlink:title=" ">
<path fill="none" stroke="#63b8ff" d="M410.71,-183.21C343.96,-179.23 248.55,-168.72 225.3,-141 191.1,-100.24 259.76,-49.96 299.98,-25.46"/>
<polygon fill="#63b8ff" stroke="#63b8ff" points="301.63,-28.55 308.45,-20.44 298.06,-22.53 301.63,-28.55"/>
</a>
</g>
</g>
<!-- Node12 -->
<g id="Node000012" class="node">
<title>Node12</title>
<g id="a_Node000012"><a xlink:title=" ">
<polygon fill="#e0e0e0" stroke="#999999" points="1024.8,-19.25 987.8,-19.25 987.8,0 1024.8,0 1024.8,-19.25"/>
<text text-anchor="middle" x="1006.3" y="-5.75" font-family="Helvetica,sans-Serif" font-size="10.00">tuple</text>
</a>
</g>
</g>
<!-- Node7&#45;&gt;Node12 -->
<g id="edge46_Node000007_Node000012" class="edge">
<title>Node7&#45;&gt;Node12</title>
<g id="a_edge46_Node000007_Node000012"><a xlink:title=" ">
<path fill="none" stroke="#63b8ff" d="M545.73,-177.41C547.27,-177.26 548.79,-177.13 550.3,-177 588.98,-173.69 1221.56,-169.15 1248.3,-141 1316.6,-69.08 1114.5,-28.01 1036.03,-15.1"/>
<polygon fill="#63b8ff" stroke="#63b8ff" points="1036.9,-11.69 1026.47,-13.57 1035.79,-18.6 1036.9,-11.69"/>
</a>
</g>
</g>
<!-- Node15 -->
<g id="Node000015" class="node">
<title>Node15</title>
<g id="a_Node000015"><a xlink:href="x__z__p__q__r_8hpp.xhtml" target="_top" xlink:title=" ">
<polygon fill="white" stroke="#666666" points="312.05,-135.38 234.55,-135.38 234.55,-116.12 312.05,-116.12 312.05,-135.38"/>
<text text-anchor="middle" x="273.3" y="-121.88" font-family="Helvetica,sans-Serif" font-size="10.00">x_z_p_q_r.hpp</text>
</a>
</g>
</g>
<!-- Node7&#45;&gt;Node15 -->
<g id="edge16_Node000007_Node000015" class="edge">
<title>Node7&#45;&gt;Node15</title>
<g id="a_edge16_Node000007_Node000015"><a xlink:title=" ">
<path fill="none" stroke="#63b8ff" d="M445.79,-176.5C414.02,-167.56 364.29,-153.49 321.3,-141 319.17,-140.38 316.99,-139.74 314.79,-139.1"/>
<polygon fill="#63b8ff" stroke="#63b8ff" points="315.78,-135.75 305.2,-136.28 313.81,-142.46 315.78,-135.75"/>
</a>
</g>
</g>
<!-- Node16 -->
<g id="Node000016" class="node">
<title>Node16</title>
<g id="a_Node000016"><a xlink:href="x__z__p__q__r__h__f_8hpp.xhtml" target="_top" xlink:title=" ">
<polygon fill="white" stroke="#666666" points="426.42,-135.38 330.17,-135.38 330.17,-116.12 426.42,-116.12 426.42,-135.38"/>
<text text-anchor="middle" x="378.3" y="-121.88" font-family="Helvetica,sans-Serif" font-size="10.00">x_z_p_q_r_h_f.hpp</text>
</a>
</g>
</g>
<!-- Node7&#45;&gt;Node16 -->
<g id="edge18_Node000007_Node000016" class="edge">
<title>Node7&#45;&gt;Node16</title>
<g id="a_edge18_Node000007_Node000016"><a xlink:title=" ">
<path fill="none" stroke="#63b8ff" d="M463.11,-176.68C447.25,-167.35 422.12,-152.55 403.32,-141.48"/>
<polygon fill="#63b8ff" stroke="#63b8ff" points="405.32,-138.6 394.93,-136.54 401.77,-144.63 405.32,-138.6"/>
</a>
</g>
</g>
<!-- Node17 -->
<g id="Node000017" class="node">
<title>Node17</title>
<g id="a_Node000017"><a xlink:href="x__z__p__q__r__hh__us__ps_8hpp.xhtml" target="_top" xlink:title=" ">
<polygon fill="white" stroke="#666666" points="1239.67,-135.38 1114.92,-135.38 1114.92,-116.12 1239.67,-116.12 1239.67,-135.38"/>
<text text-anchor="middle" x="1177.3" y="-121.88" font-family="Helvetica,sans-Serif" font-size="10.00">x_z_p_q_r_hh_us_ps.hpp</text>
</a>
</g>
</g>
<!-- Node7&#45;&gt;Node17 -->
<g id="edge20_Node000007_Node000017" class="edge">
<title>Node7&#45;&gt;Node17</title>
<g id="a_edge20_Node000007_Node000017"><a xlink:title=" ">
<path fill="none" stroke="#63b8ff" d="M545.9,-178.22C550.43,-177.79 554.93,-177.38 559.3,-177 801.59,-156.12 864.17,-172.67 1105.3,-141 1111.77,-140.15 1118.54,-139.07 1125.22,-137.88"/>
<polygon fill="#63b8ff" stroke="#63b8ff" points="1125.65,-141.36 1134.84,-136.09 1124.37,-134.48 1125.65,-141.36"/>
</a>
</g>
</g>
<!-- Node20 -->
<g id="Node000020" class="node">
<title>Node20</title>
<g id="a_Node000020"><a xlink:href="x__z__p__qq__rr__f_8hpp.xhtml" target="_top" xlink:title=" ">
<polygon fill="white" stroke="#666666" points="956.3,-135.38 862.3,-135.38 862.3,-116.12 956.3,-116.12 956.3,-135.38"/>
<text text-anchor="middle" x="909.3" y="-121.88" font-family="Helvetica,sans-Serif" font-size="10.00">x_z_p_qq_rr_f.hpp</text>
</a>
</g>
</g>
<!-- Node7&#45;&gt;Node20 -->
<g id="edge25_Node000007_Node000020" class="edge">
<title>Node7&#45;&gt;Node20</title>
<g id="a_edge25_Node000007_Node000020"><a xlink:title=" ">
<path fill="none" stroke="#63b8ff" d="M546.01,-178.05C645.83,-166.82 823.89,-146.47 853.3,-141 857.33,-140.25 861.51,-139.38 865.67,-138.44"/>
<polygon fill="#63b8ff" stroke="#63b8ff" points="866.2,-141.91 875.11,-136.19 864.58,-135.1 866.2,-141.91"/>
</a>
</g>
</g>
<!-- Node21 -->
<g id="Node000021" class="node">
<title>Node21</title>
<g id="a_Node000021"><a xlink:href="x__z__p__r_8hpp.xhtml" target="_top" xlink:title=" ">
<polygon fill="white" stroke="#666666" points="511.8,-135.38 444.8,-135.38 444.8,-116.12 511.8,-116.12 511.8,-135.38"/>
<text text-anchor="middle" x="478.3" y="-121.88" font-family="Helvetica,sans-Serif" font-size="10.00">x_z_p_r.hpp</text>
</a>
</g>
</g>
<!-- Node7&#45;&gt;Node21 -->
<g id="edge29_Node000007_Node000021" class="edge">
<title>Node7&#45;&gt;Node21</title>
<g id="a_edge29_Node000007_Node000021"><a xlink:title=" ">
<path fill="none" stroke="#63b8ff" d="M478.3,-176.68C478.3,-168.9 478.3,-157.33 478.3,-147.28"/>
<polygon fill="#63b8ff" stroke="#63b8ff" points="481.8,-147.29 478.3,-137.29 474.8,-147.29 481.8,-147.29"/>
</a>
</g>
</g>
<!-- Node22 -->
<g id="Node000022" class="node">
<title>Node22</title>
<g id="a_Node000022"><a xlink:href="x__z__p__r__f_8hpp.xhtml" target="_top" xlink:title=" ">
<polygon fill="white" stroke="#666666" points="604.92,-135.38 529.67,-135.38 529.67,-116.12 604.92,-116.12 604.92,-135.38"/>
<text text-anchor="middle" x="567.3" y="-121.88" font-family="Helvetica,sans-Serif" font-size="10.00">x_z_p_r_f.hpp</text>
</a>
</g>
</g>
<!-- Node7&#45;&gt;Node22 -->
<g id="edge31_Node000007_Node000022" class="edge">
<title>Node7&#45;&gt;Node22</title>
<g id="a_edge31_Node000007_Node000022"><a xlink:title=" ">
<path fill="none" stroke="#63b8ff" d="M491.81,-176.68C505.67,-167.52 527.47,-153.09 544.09,-142.1"/>
<polygon fill="#63b8ff" stroke="#63b8ff" points="545.98,-145.05 552.39,-136.61 542.12,-139.21 545.98,-145.05"/>
</a>
</g>
</g>
<!-- Node23 -->
<g id="Node000023" class="node">
<title>Node23</title>
<g id="a_Node000023"><a xlink:href="x__z__u__p__q__r_8hpp.xhtml" target="_top" xlink:title=" ">
<polygon fill="white" stroke="#666666" points="844.3,-135.38 756.3,-135.38 756.3,-116.12 844.3,-116.12 844.3,-135.38"/>
<text text-anchor="middle" x="800.3" y="-121.88" font-family="Helvetica,sans-Serif" font-size="10.00">x_z_u_p_q_r.hpp</text>
</a>
</g>
</g>
<!-- Node7&#45;&gt;Node23 -->
<g id="edge33_Node000007_Node000023" class="edge">
<title>Node7&#45;&gt;Node23</title>
<g id="a_edge33_Node000007_Node000023"><a xlink:title=" ">
<path fill="none" stroke="#63b8ff" d="M544.42,-176.51C599.08,-168.53 678.59,-155.9 747.3,-141 750.63,-140.28 754.08,-139.48 757.53,-138.63"/>
<polygon fill="#63b8ff" stroke="#63b8ff" points="758.17,-142.08 767,-136.22 756.45,-135.3 758.17,-142.08"/>
</a>
</g>
</g>
<!-- Node24 -->
<g id="Node000024" class="node">
<title>Node24</title>
<g id="a_Node000024"><a xlink:href="x__z__u__p__q__r__f__g__ps_8hpp.xhtml" target="_top" xlink:title=" ">
<polygon fill="white" stroke="#666666" points="1096.55,-135.38 974.05,-135.38 974.05,-116.12 1096.55,-116.12 1096.55,-135.38"/>
<text text-anchor="middle" x="1035.3" y="-121.88" font-family="Helvetica,sans-Serif" font-size="10.00">x_z_u_p_q_r_f_g_ps.hpp</text>
</a>
</g>
</g>
<!-- Node7&#45;&gt;Node24 -->
<g id="edge37_Node000007_Node000024" class="edge">
<title>Node7&#45;&gt;Node24</title>
<g id="a_edge37_Node000007_Node000024"><a xlink:title=" ">
<path fill="none" stroke="#63b8ff" d="M545.91,-178.34C550.44,-177.87 554.93,-177.43 559.3,-177 739.59,-159.41 786.04,-167.11 965.3,-141 971.28,-140.13 977.52,-139.07 983.71,-137.93"/>
<polygon fill="#63b8ff" stroke="#63b8ff" points="984.07,-141.43 993.23,-136.1 982.75,-134.55 984.07,-141.43"/>
</a>
</g>
</g>
<!-- Node25 -->
<g id="Node000025" class="node">
<title>Node25</title>
<g id="a_Node000025"><a xlink:href="x__z__u__p__q__r__h__f__g__us__ps_8hpp.xhtml" target="_top" xlink:title=" ">
<polygon fill="white" stroke="#666666" points="737.8,-141 622.8,-141 622.8,-110.5 737.8,-110.5 737.8,-141"/>
<text text-anchor="start" x="630.8" y="-127.5" font-family="Helvetica,sans-Serif" font-size="10.00">x_z_u_p_q_r_h_f_g_us</text>
<text text-anchor="middle" x="680.3" y="-116.25" font-family="Helvetica,sans-Serif" font-size="10.00">_ps.hpp</text>
</a>
</g>
</g>
<!-- Node7&#45;&gt;Node25 -->
<g id="edge41_Node000007_Node000025" class="edge">
<title>Node7&#45;&gt;Node25</title>
<g id="a_edge41_Node000007_Node000025"><a xlink:title=" ">
<path fill="none" stroke="#63b8ff" d="M509.42,-176.55C538.5,-168.08 582.75,-155.18 618.93,-144.63"/>
<polygon fill="#63b8ff" stroke="#63b8ff" points="619.8,-148.03 628.43,-141.87 617.85,-141.31 619.8,-148.03"/>
</a>
</g>
</g>
<!-- Node8&#45;&gt;Node4 -->
<g id="edge15_Node000008_Node000004" class="edge">
<title>Node8&#45;&gt;Node4</title>
<g id="a_edge15_Node000008_Node000004"><a xlink:title=" ">
<path fill="none" stroke="#63b8ff" d="M110.06,-115.79C101.34,-97.38 81.24,-54.89 69.43,-29.92"/>
<polygon fill="#63b8ff" stroke="#63b8ff" points="72.6,-28.45 65.16,-20.91 66.27,-31.44 72.6,-28.45"/>
</a>
</g>
</g>
<!-- Node8&#45;&gt;Node9 -->
<g id="edge8_Node000008_Node000009" class="edge">
<title>Node8&#45;&gt;Node9</title>
<g id="a_edge8_Node000008_Node000009"><a xlink:title=" ">
<path fill="none" stroke="#63b8ff" d="M136.88,-115.72C142.5,-113.75 148.56,-111.85 154.3,-110.5 271.6,-82.86 414.19,-71.78 482.32,-67.82"/>
<polygon fill="#63b8ff" stroke="#63b8ff" points="482.46,-71.32 492.25,-67.27 482.07,-64.33 482.46,-71.32"/>
</a>
</g>
</g>
<!-- Node14 -->
<g id="Node000014" class="node">
<title>Node14</title>
<g id="a_Node000014"><a xlink:title=" ">
<polygon fill="#e0e0e0" stroke="#999999" points="198.05,-74.5 126.55,-74.5 126.55,-55.25 198.05,-55.25 198.05,-74.5"/>
<text text-anchor="middle" x="162.3" y="-61" font-family="Helvetica,sans-Serif" font-size="10.00">initializer_list</text>
</a>
</g>
</g>
<!-- Node8&#45;&gt;Node14 -->
<g id="edge14_Node000008_Node000014" class="edge">
<title>Node8&#45;&gt;Node14</title>
<g id="a_edge14_Node000008_Node000014"><a xlink:title=" ">
<path fill="none" stroke="#63b8ff" d="M121.59,-115.81C128.49,-107.34 139.07,-94.37 147.71,-83.77"/>
<polygon fill="#63b8ff" stroke="#63b8ff" points="150.37,-86.04 153.98,-76.07 144.95,-81.61 150.37,-86.04"/>
</a>
</g>
</g>
<!-- Node9&#45;&gt;Node4 -->
<g id="edge12_Node000009_Node000004" class="edge">
<title>Node9&#45;&gt;Node4</title>
<g id="a_edge12_Node000009_Node000004"><a xlink:title=" ">
<path fill="none" stroke="#63b8ff" d="M493.74,-60.58C415.07,-51.52 194.87,-26.14 102.22,-15.46"/>
<polygon fill="#63b8ff" stroke="#63b8ff" points="102.89,-12.01 92.56,-14.34 102.09,-18.97 102.89,-12.01"/>
</a>
</g>
</g>
<!-- Node9&#45;&gt;Node10 -->
<g id="edge9_Node000009_Node000010" class="edge">
<title>Node9&#45;&gt;Node10</title>
<g id="a_edge9_Node000009_Node000010"><a xlink:title=" ">
<path fill="none" stroke="#63b8ff" d="M493.8,-56.13C459.88,-46.92 403.08,-31.48 365.15,-21.18"/>
<polygon fill="#63b8ff" stroke="#63b8ff" points="366.54,-17.93 355.97,-18.69 364.71,-24.69 366.54,-17.93"/>
</a>
</g>
</g>
<!-- Node9&#45;&gt;Node11 -->
<g id="edge10_Node000009_Node000011" class="edge">
<title>Node9&#45;&gt;Node11</title>
<g id="a_edge10_Node000009_Node000011"><a xlink:title=" ">
<path fill="none" stroke="#63b8ff" d="M527.25,-55.08C531.18,-48.11 536.81,-38.12 541.73,-29.37"/>
<polygon fill="#63b8ff" stroke="#63b8ff" points="544.63,-31.36 546.49,-20.93 538.53,-27.92 544.63,-31.36"/>
</a>
</g>
</g>
<!-- Node9&#45;&gt;Node12 -->
<g id="edge11_Node000009_Node000012" class="edge">
<title>Node9&#45;&gt;Node12</title>
<g id="a_edge11_Node000009_Node000012"><a xlink:title=" ">
<path fill="none" stroke="#63b8ff" d="M550.92,-61.14C618.99,-54.58 795.91,-37.15 943.3,-19.25 954.13,-17.94 965.98,-16.35 976.46,-14.9"/>
<polygon fill="#63b8ff" stroke="#63b8ff" points="976.65,-18.41 986.07,-13.55 975.68,-11.47 976.65,-18.41"/>
</a>
</g>
</g>
<!-- Node13 -->
<g id="Node000013" class="node">
<title>Node13</title>
<g id="a_Node000013"><a xlink:title=" ">
<polygon fill="#e0e0e0" stroke="#999999" points="510.55,-19.25 472.05,-19.25 472.05,0 510.55,0 510.55,-19.25"/>
<text text-anchor="middle" x="491.3" y="-5.75" font-family="Helvetica,sans-Serif" font-size="10.00">utility</text>
</a>
</g>
</g>
<!-- Node9&#45;&gt;Node13 -->
<g id="edge13_Node000009_Node000013" class="edge">
<title>Node9&#45;&gt;Node13</title>
<g id="a_edge13_Node000009_Node000013"><a xlink:title=" ">
<path fill="none" stroke="#63b8ff" d="M517.18,-55.08C513.12,-48.11 507.3,-38.12 502.21,-29.37"/>
<polygon fill="#63b8ff" stroke="#63b8ff" points="505.34,-27.8 497.29,-20.92 499.29,-31.32 505.34,-27.8"/>
</a>
</g>
</g>
<!-- Node15&#45;&gt;Node9 -->
<g id="edge17_Node000015_Node000009" class="edge">
<title>Node15&#45;&gt;Node9</title>
<g id="a_edge17_Node000015_Node000009"><a xlink:title=" ">
<path fill="none" stroke="#63b8ff" d="M302.65,-115.68C308.79,-113.88 315.24,-112.07 321.3,-110.5 377,-96.07 442.13,-82.14 482.81,-73.79"/>
<polygon fill="#63b8ff" stroke="#63b8ff" points="483.27,-77.27 492.37,-71.84 481.87,-70.41 483.27,-77.27"/>
</a>
</g>
</g>
<!-- Node16&#45;&gt;Node9 -->
<g id="edge19_Node000016_Node000009" class="edge">
<title>Node16&#45;&gt;Node9</title>
<g id="a_edge19_Node000016_Node000009"><a xlink:title=" ">
<path fill="none" stroke="#63b8ff" d="M400.48,-115.68C424.33,-105.93 462.49,-90.33 489.75,-79.18"/>
<polygon fill="#63b8ff" stroke="#63b8ff" points="490.99,-82.46 498.92,-75.43 488.34,-75.98 490.99,-82.46"/>
</a>
</g>
</g>
<!-- Node17&#45;&gt;Node9 -->
<g id="edge23_Node000017_Node000009" class="edge">
<title>Node17&#45;&gt;Node9</title>
<g id="a_edge23_Node000017_Node000009"><a xlink:title=" ">
<path fill="none" stroke="#63b8ff" d="M1135.94,-115.69C1125.94,-113.74 1115.27,-111.86 1105.3,-110.5 902.27,-82.74 656.92,-71.01 562.24,-67.29"/>
<polygon fill="#63b8ff" stroke="#63b8ff" points="562.58,-63.8 552.45,-66.92 562.31,-70.8 562.58,-63.8"/>
</a>
</g>
</g>
<!-- Node17&#45;&gt;Node12 -->
<g id="edge24_Node000017_Node000012" class="edge">
<title>Node17&#45;&gt;Node12</title>
<g id="a_edge24_Node000017_Node000012"><a xlink:title=" ">
<path fill="none" stroke="#63b8ff" d="M1163.88,-115.79C1134.66,-96.29 1065.01,-49.81 1028.89,-25.7"/>
<polygon fill="#63b8ff" stroke="#63b8ff" points="1031.17,-23.02 1020.91,-20.38 1027.29,-28.84 1031.17,-23.02"/>
</a>
</g>
</g>
<!-- Node18 -->
<g id="Node000018" class="node">
<title>Node18</title>
<g id="a_Node000018"><a xlink:href="function_8hpp.xhtml" target="_top" xlink:title=" ">
<polygon fill="white" stroke="#666666" points="943.55,-74.5 875.05,-74.5 875.05,-55.25 943.55,-55.25 943.55,-74.5"/>
<text text-anchor="middle" x="909.3" y="-61" font-family="Helvetica,sans-Serif" font-size="10.00">function.hpp</text>
</a>
</g>
</g>
<!-- Node17&#45;&gt;Node18 -->
<g id="edge21_Node000017_Node000018" class="edge">
<title>Node17&#45;&gt;Node18</title>
<g id="a_edge21_Node000017_Node000018"><a xlink:title=" ">
<path fill="none" stroke="#63b8ff" d="M1136.01,-115.68C1087,-104.91 1005.55,-87.02 954.78,-75.87"/>
<polygon fill="#63b8ff" stroke="#63b8ff" points="955.81,-72.51 945.29,-73.78 954.3,-79.35 955.81,-72.51"/>
</a>
</g>
</g>
<!-- Node19 -->
<g id="Node000019" class="node">
<title>Node19</title>
<g id="a_Node000019"><a xlink:title=" ">
<polygon fill="#e0e0e0" stroke="#999999" points="934.55,-19.25 884.05,-19.25 884.05,0 934.55,0 934.55,-19.25"/>
<text text-anchor="middle" x="909.3" y="-5.75" font-family="Helvetica,sans-Serif" font-size="10.00">memory</text>
</a>
</g>
</g>
<!-- Node18&#45;&gt;Node19 -->
<g id="edge22_Node000018_Node000019" class="edge">
<title>Node18&#45;&gt;Node19</title>
<g id="a_edge22_Node000018_Node000019"><a xlink:title=" ">
<path fill="none" stroke="#63b8ff" d="M909.3,-55.08C909.3,-48.57 909.3,-39.42 909.3,-31.12"/>
<polygon fill="#63b8ff" stroke="#63b8ff" points="912.8,-31.12 909.3,-21.12 905.8,-31.12 912.8,-31.12"/>
</a>
</g>
</g>
<!-- Node20&#45;&gt;Node9 -->
<g id="edge27_Node000020_Node000009" class="edge">
<title>Node20&#45;&gt;Node9</title>
<g id="a_edge27_Node000020_Node000009"><a xlink:title=" ">
<path fill="none" stroke="#63b8ff" d="M876.27,-115.68C868.76,-113.8 860.78,-111.95 853.3,-110.5 749.01,-90.27 624.48,-76.14 562.08,-69.74"/>
<polygon fill="#63b8ff" stroke="#63b8ff" points="562.62,-66.28 552.32,-68.75 561.92,-73.24 562.62,-66.28"/>
</a>
</g>
</g>
<!-- Node20&#45;&gt;Node12 -->
<g id="edge28_Node000020_Node000012" class="edge">
<title>Node20&#45;&gt;Node12</title>
<g id="a_edge28_Node000020_Node000012"><a xlink:title=" ">
<path fill="none" stroke="#63b8ff" d="M916.92,-115.87C925.53,-105.84 939.95,-89.02 952.3,-74.5 965.49,-58.99 980.44,-41.3 991.25,-28.48"/>
<polygon fill="#63b8ff" stroke="#63b8ff" points="993.88,-30.79 997.65,-20.89 988.53,-26.28 993.88,-30.79"/>
</a>
</g>
</g>
<!-- Node20&#45;&gt;Node18 -->
<g id="edge26_Node000020_Node000018" class="edge">
<title>Node20&#45;&gt;Node18</title>
<g id="a_edge26_Node000020_Node000018"><a xlink:title=" ">
<path fill="none" stroke="#63b8ff" d="M909.3,-115.81C909.3,-108.03 909.3,-96.45 909.3,-86.41"/>
<polygon fill="#63b8ff" stroke="#63b8ff" points="912.8,-86.41 909.3,-76.41 905.8,-86.41 912.8,-86.41"/>
</a>
</g>
</g>
<!-- Node21&#45;&gt;Node9 -->
<g id="edge30_Node000021_Node000009" class="edge">
<title>Node21&#45;&gt;Node9</title>
<g id="a_edge30_Node000021_Node000009"><a xlink:title=" ">
<path fill="none" stroke="#63b8ff" d="M484.98,-115.81C491.25,-107.42 500.81,-94.63 508.68,-84.09"/>
<polygon fill="#63b8ff" stroke="#63b8ff" points="511.46,-86.22 514.64,-76.11 505.85,-82.03 511.46,-86.22"/>
</a>
</g>
</g>
<!-- Node22&#45;&gt;Node9 -->
<g id="edge32_Node000022_Node000009" class="edge">
<title>Node22&#45;&gt;Node9</title>
<g id="a_edge32_Node000022_Node000009"><a xlink:title=" ">
<path fill="none" stroke="#63b8ff" d="M560.46,-115.81C553.99,-107.34 544.07,-94.37 535.97,-83.77"/>
<polygon fill="#63b8ff" stroke="#63b8ff" points="538.97,-81.92 530.11,-76.1 533.41,-86.17 538.97,-81.92"/>
</a>
</g>
</g>
<!-- Node23&#45;&gt;Node9 -->
<g id="edge35_Node000023_Node000009" class="edge">
<title>Node23&#45;&gt;Node9</title>
<g id="a_edge35_Node000023_Node000009"><a xlink:title=" ">
<path fill="none" stroke="#63b8ff" d="M767.87,-115.66C761.09,-113.87 753.98,-112.06 747.3,-110.5 682.72,-95.43 606.96,-81.09 561.89,-72.9"/>
<polygon fill="#63b8ff" stroke="#63b8ff" points="562.79,-69.51 552.33,-71.17 561.55,-76.39 562.79,-69.51"/>
</a>
</g>
</g>
<!-- Node23&#45;&gt;Node12 -->
<g id="edge36_Node000023_Node000012" class="edge">
<title>Node23&#45;&gt;Node12</title>
<g id="a_edge36_Node000023_Node000012"><a xlink:title=" ">
<path fill="none" stroke="#63b8ff" d="M806.52,-115.69C817.11,-100.93 840.07,-71.69 866.3,-55.25 900.68,-33.7 946.39,-21.7 976.08,-15.7"/>
<polygon fill="#63b8ff" stroke="#63b8ff" points="976.71,-19.15 985.88,-13.84 975.4,-12.27 976.71,-19.15"/>
</a>
</g>
</g>
<!-- Node23&#45;&gt;Node18 -->
<g id="edge34_Node000023_Node000018" class="edge">
<title>Node23&#45;&gt;Node18</title>
<g id="a_edge34_Node000023_Node000018"><a xlink:title=" ">
<path fill="none" stroke="#63b8ff" d="M816.85,-115.81C834.3,-106.38 862.04,-91.4 882.59,-80.3"/>
<polygon fill="#63b8ff" stroke="#63b8ff" points="884.12,-83.45 891.25,-75.62 880.79,-77.29 884.12,-83.45"/>
</a>
</g>
</g>
<!-- Node24&#45;&gt;Node9 -->
<g id="edge39_Node000024_Node000009" class="edge">
<title>Node24&#45;&gt;Node9</title>
<g id="a_edge39_Node000024_Node000009"><a xlink:title=" ">
<path fill="none" stroke="#63b8ff" d="M994.33,-115.69C984.83,-113.79 974.74,-111.93 965.3,-110.5 817.37,-88.05 639.88,-74.04 562.1,-68.54"/>
<polygon fill="#63b8ff" stroke="#63b8ff" points="562.66,-65.07 552.44,-67.86 562.17,-72.05 562.66,-65.07"/>
</a>
</g>
</g>
<!-- Node24&#45;&gt;Node12 -->
<g id="edge40_Node000024_Node000012" class="edge">
<title>Node24&#45;&gt;Node12</title>
<g id="a_edge40_Node000024_Node000012"><a xlink:title=" ">
<path fill="none" stroke="#63b8ff" d="M1033.02,-115.79C1028.38,-97.54 1017.74,-55.66 1011.37,-30.6"/>
<polygon fill="#63b8ff" stroke="#63b8ff" points="1014.79,-29.84 1008.93,-21.01 1008,-31.56 1014.79,-29.84"/>
</a>
</g>
</g>
<!-- Node24&#45;&gt;Node18 -->
<g id="edge38_Node000024_Node000018" class="edge">
<title>Node24&#45;&gt;Node18</title>
<g id="a_edge38_Node000024_Node000018"><a xlink:title=" ">
<path fill="none" stroke="#63b8ff" d="M1015.88,-115.68C995.29,-106.06 962.51,-90.74 938.74,-79.63"/>
<polygon fill="#63b8ff" stroke="#63b8ff" points="940.44,-76.56 929.89,-75.5 937.47,-82.9 940.44,-76.56"/>
</a>
</g>
</g>
<!-- Node25&#45;&gt;Node9 -->
<g id="edge43_Node000025_Node000009" class="edge">
<title>Node25&#45;&gt;Node9</title>
<g id="a_edge43_Node000025_Node000009"><a xlink:title=" ">
<path fill="none" stroke="#63b8ff" d="M640.83,-110.05C615.15,-100.48 581.96,-88.11 557.23,-78.89"/>
<polygon fill="#63b8ff" stroke="#63b8ff" points="558.54,-75.64 547.95,-75.43 556.09,-82.2 558.54,-75.64"/>
</a>
</g>
</g>
<!-- Node25&#45;&gt;Node12 -->
<g id="edge44_Node000025_Node000012" class="edge">
<title>Node25&#45;&gt;Node12</title>
<g id="a_edge44_Node000025_Node000012"><a xlink:title=" ">
<path fill="none" stroke="#63b8ff" d="M710.23,-110.04C741.8,-94.92 793.23,-71.37 839.3,-55.25 886.43,-38.76 942.84,-24.85 976.56,-17.14"/>
<polygon fill="#63b8ff" stroke="#63b8ff" points="977.02,-20.62 986.01,-15.01 975.48,-13.79 977.02,-20.62"/>
</a>
</g>
</g>
<!-- Node25&#45;&gt;Node18 -->
<g id="edge42_Node000025_Node000018" class="edge">
<title>Node25&#45;&gt;Node18</title>
<g id="a_edge42_Node000025_Node000018"><a xlink:title=" ">
<path fill="none" stroke="#63b8ff" d="M737.49,-110.05C776.63,-99.98 827.8,-86.83 864.09,-77.5"/>
<polygon fill="#63b8ff" stroke="#63b8ff" points="864.57,-80.99 873.38,-75.11 862.83,-74.21 864.57,-80.99"/>
</a>
</g>
</g>
<!-- Node26&#45;&gt;Node9 -->
<g id="edge49_Node000026_Node000009" class="edge">
<title>Node26&#45;&gt;Node9</title>
<g id="a_edge49_Node000026_Node000009"><a xlink:title=" ">
<path fill="none" stroke="#63b8ff" d="M1295.46,-115.68C1279.99,-113.78 1263.59,-111.92 1248.3,-110.5 987.13,-86.17 671.82,-71.95 562.16,-67.44"/>
<polygon fill="#63b8ff" stroke="#63b8ff" points="562.36,-63.95 552.23,-67.04 562.08,-70.94 562.36,-63.95"/>
</a>
</g>
</g>
<!-- Node26&#45;&gt;Node11 -->
<g id="edge50_Node000026_Node000011" class="edge">
<title>Node26&#45;&gt;Node11</title>
<g id="a_edge50_Node000026_Node000011"><a xlink:title=" ">
<path fill="none" stroke="#63b8ff" d="M1314.15,-115.68C1237.68,-101.47 1083.67,-73.7 952.3,-55.25 818.2,-36.42 657.91,-20.53 587.92,-13.91"/>
<polygon fill="#63b8ff" stroke="#63b8ff" points="588.5,-10.45 578.21,-13 587.84,-17.42 588.5,-10.45"/>
</a>
</g>
</g>
<!-- Node26&#45;&gt;Node12 -->
<g id="edge52_Node000026_Node000012" class="edge">
<title>Node26&#45;&gt;Node12</title>
<g id="a_edge52_Node000026_Node000012"><a xlink:title=" ">
<path fill="none" stroke="#63b8ff" d="M1354.87,-115.75C1341.76,-100.53 1312.89,-69.93 1281.3,-55.25 1198.66,-16.85 1088.72,-10.8 1036.41,-10.28"/>
<polygon fill="#63b8ff" stroke="#63b8ff" points="1036.51,-6.78 1026.5,-10.26 1036.49,-13.78 1036.51,-6.78"/>
</a>
</g>
</g>
<!-- Node27 -->
<g id="Node000027" class="node">
<title>Node27</title>
<g id="a_Node000027"><a xlink:title=" ">
<polygon fill="#e0e0e0" stroke="#999999" points="1384.17,-74.5 1340.42,-74.5 1340.42,-55.25 1384.17,-55.25 1384.17,-74.5"/>
<text text-anchor="middle" x="1362.3" y="-61" font-family="Helvetica,sans-Serif" font-size="10.00">format</text>
</a>
</g>
</g>
<!-- Node26&#45;&gt;Node27 -->
<g id="edge51_Node000026_Node000027" class="edge">
<title>Node26&#45;&gt;Node27</title>
<g id="a_edge51_Node000026_Node000027"><a xlink:title=" ">
<path fill="none" stroke="#63b8ff" d="M1362.3,-115.81C1362.3,-108.03 1362.3,-96.45 1362.3,-86.41"/>
<polygon fill="#63b8ff" stroke="#63b8ff" points="1365.8,-86.41 1362.3,-76.41 1358.8,-86.41 1365.8,-86.41"/>
</a>
</g>
</g>
<!-- Node29 -->
<g id="Node000029" class="node">
<title>Node29</title>
<g id="a_Node000029"><a xlink:title=" ">
<polygon fill="#e0e0e0" stroke="#999999" points="1481.67,-135.38 1446.92,-135.38 1446.92,-116.12 1481.67,-116.12 1481.67,-135.38"/>
<text text-anchor="middle" x="1464.3" y="-121.88" font-family="Helvetica,sans-Serif" font-size="10.00">print</text>
</a>
</g>
</g>
<!-- Node28&#45;&gt;Node29 -->
<g id="edge54_Node000028_Node000029" class="edge">
<title>Node28&#45;&gt;Node29</title>
<g id="a_edge54_Node000028_Node000029"><a xlink:title=" ">
<path fill="none" stroke="#63b8ff" d="M1192.7,-183.01C1256.97,-178.89 1356.41,-168.29 1438.3,-141 1438.66,-140.88 1439.03,-140.75 1439.4,-140.62"/>
<polygon fill="#63b8ff" stroke="#63b8ff" points="1440.84,-143.81 1448.49,-136.48 1437.94,-137.44 1440.84,-143.81"/>
</a>
</g>
</g>
</g>
</svg>

<g id="navigator" transform="translate(0 0)" fill="#404254">
  <rect fill="#f2f5e9" fill-opacity="0.5" stroke="#606060" stroke-width=".5" x="0" y="0" width="60" height="60"/>
  <use id="zoomplus" xlink:href="#zoomPlus" x="17" y="9" onmousedown="handleZoom(evt,'in')"/>
  <use id="zoomminus" xlink:href="#zoomMin" x="42" y="9" onmousedown="handleZoom(evt,'out')"/>
  <use id="reset" xlink:href="#resetDef" x="30" y="36" onmousedown="handleReset()"/>
   <use id="arrowup" xlink:href="#arrowUp" x="0" y="0" onmousedown="handlePan(0,-1)"/>
  <use id="arrowright" xlink:href="#arrowRight" x="0" y="0" onmousedown="handlePan(1,0)"/>
  <use id="arrowdown" xlink:href="#arrowDown" x="0" y="0" onmousedown="handlePan(0,1)"/>
  <use id="arrowleft" xlink:href="#arrowLeft" x="0" y="0" onmousedown="handlePan(-1,0)"/>
</g>
<svg viewBox="0 0 15 15" width="100%" height="30px" preserveAspectRatio="xMaxYMin meet">
 <g id="arrow_out" transform="scale(0.3 0.3)">
  <a xlink:href="update__linalg__xx0_8cpp__incl_org.svg" target="_base">
   <rect id="button" ry="5" rx="5" y="6" x="6" height="38" width="38"
        fill="#f2f5e9" fill-opacity="0.5" stroke="#606060" stroke-width="1.0"/>
   <path id="arrow"
     d="M 11.500037,31.436501 C 11.940474,20.09759 22.043105,11.32322 32.158766,21.979434 L 37.068811,17.246167 C 37.068811,17.246167 37.088388,32 37.088388,32 L 22.160133,31.978069 C 22.160133,31.978069 26.997745,27.140456 26.997745,27.140456 C 18.528582,18.264221 13.291696,25.230495 11.500037,31.436501 z"
     style="fill:#404040;"/>
  </a>
 </g>
</svg>

<style type='text/css'>
<![CDATA[
[data-mouse-over-selected='false'] { opacity: 0.7; }
[data-mouse-over-selected='true']  { opacity: 1.0; }
]]>
</style>
<script type="application/ecmascript"><![CDATA[
document.addEventListener('DOMContentLoaded', (event) => {
  highlightEdges();
  highlightAdjacentNodes();
});
]]></script>
</svg>
