<?xml version="1.0" encoding="UTF-8" standalone="no"?>
<!DOCTYPE svg PUBLIC "-//W3C//DTD SVG 1.1//EN"
 "http://www.w3.org/Graphics/SVG/1.1/DTD/svg11.dtd">
<!-- Generated by graphviz version 9.0.0 (20230911.1827)
 -->
<!-- Title: /github/workspace/benchmark/update_linalg_xx0.cpp Pages: 1 -->
<!--zoomable 381 -->

<svg id="main" version="1.1" xmlns="http://www.w3.org/2000/svg" xmlns:xlink="http://www.w3.org/1999/xlink" xml:space="preserve" onload="init(evt)">
<style type="text/css"><![CDATA[
.node, .edge {opacity: 0.7;}
.node.selected, .edge.selected {opacity: 1;}
.edge:hover path { stroke: red; }
.edge:hover polygon { stroke: red; fill: red; }
]]></style>

<defs>
  <circle id="rim" cx="0" cy="0" r="7"/>
  <circle id="rim2" cx="0" cy="0" r="3.5"/>
  <g id="zoomPlus">
    <use xlink:href="#rim" fill="#404040"><set attributeName="fill" to="#808080" begin="zoomplus.mouseover" end="zoomplus.mouseout"/></use>
    <path d="M-4,0h8M0,-4v8" fill="none" stroke="white" stroke-width="1.5" pointer-events="none"/>
  </g>
  <g id="zoomMin">
    <use xlink:href="#rim" fill="#404040"><set attributeName="fill" to="#808080" begin="zoomminus.mouseover" end="zoomminus.mouseout"/></use>
    <path d="M-4,0h8" fill="none" stroke="white" stroke-width="1.5" pointer-events="none"/>
  </g>
  <g id="arrowUp" transform="translate(30 24)">
    <use xlink:href="#rim"/>
    <path pointer-events="none" fill="none" stroke="white" stroke-width="1.5" d="M0,-3.0v7 M-2.5,-0.5L0,-3.0L2.5,-0.5"/>
  </g>
  <g id="arrowRight" transform="rotate(90) translate(36 -43)">
    <use xlink:href="#rim"/>
    <path pointer-events="none" fill="none" stroke="white" stroke-width="1.5" d="M0,-3.0v7 M-2.5,-0.5L0,-3.0L2.5,-0.5"/>
  </g>
  <g id="arrowDown" transform="rotate(180) translate(-30 -48)">
    <use xlink:href="#rim"/>
    <path pointer-events="none" fill="none" stroke="white" stroke-width="1.5" d="M0,-3.0v7 M-2.5,-0.5L0,-3.0L2.5,-0.5"/>
  </g>
  <g id="arrowLeft" transform="rotate(270) translate(-36 17)">
    <use xlink:href="#rim"/>
    <path pointer-events="none" fill="none" stroke="white" stroke-width="1.5" d="M0,-3.0v7 M-2.5,-0.5L0,-3.0L2.5,-0.5"/>
  </g>
  <g id="resetDef">
    <use xlink:href="#rim2" fill="#404040"><set attributeName="fill" to="#808080" begin="reset.mouseover" end="reset.mouseout"/></use>
  </g>
</defs>
<script type="application/ecmascript">
var viewWidth = 1962;
var viewHeight = 381;
var sectionId = 'dynsection-0';
</script>
<script type="application/ecmascript" xlink:href="svg.min.js"/>
<svg id="graph" class="graph">
<g id="viewport">
<title>/github/workspace/benchmark/update_linalg_xx0.cpp</title>
<!-- Node1 -->
<g id="Node000001" class="node">
<title>Node1</title>
<g id="a_Node000001"><a xlink:title=" ">
<polygon fill="#999999" stroke="#666666" points="1574.88,-373.25 1428.38,-373.25 1428.38,-342.75 1574.88,-342.75 1574.88,-373.25"/>
<text text-anchor="start" x="1436.38" y="-359.75" font-family="Helvetica,sans-Serif" font-size="10.00">/github/workspace/benchmark</text>
<text text-anchor="middle" x="1501.62" y="-348.5" font-family="Helvetica,sans-Serif" font-size="10.00">/update_linalg_xx0.cpp</text>
</a>
</g>
</g>
<!-- Node2 -->
<g id="Node000002" class="node">
<title>Node2</title>
<g id="a_Node000002"><a xlink:href="benchmark_8hpp.xhtml" target="_top" xlink:title="Benchmarking support.">
<polygon fill="white" stroke="#666666" points="132.62,-306.75 50.62,-306.75 50.62,-287.5 132.62,-287.5 132.62,-306.75"/>
<text text-anchor="middle" x="91.62" y="-293.25" font-family="Helvetica,sans-Serif" font-size="10.00">benchmark.hpp</text>
</a>
</g>
</g>
<!-- Node1&#45;&gt;Node2 -->
<g id="edge1_Node000001_Node000002" class="edge">
<title>Node1&#45;&gt;Node2</title>
<g id="a_edge1_Node000001_Node000002"><a xlink:title=" ">
<path fill="none" stroke="#63b8ff" d="M1428.3,-353.94C1177.82,-343.48 359.77,-309.32 144.12,-300.32"/>
<polygon fill="#63b8ff" stroke="#63b8ff" points="144.49,-296.83 134.35,-299.91 144.2,-303.82 144.49,-296.83"/>
</a>
</g>
</g>
<!-- Node3 -->
<g id="Node000003" class="node">
<title>Node3</title>
<g id="a_Node000003"><a xlink:title=" ">
<polygon fill="#e0e0e0" stroke="#999999" points="45.25,-251.5 0,-251.5 0,-232.25 45.25,-232.25 45.25,-251.5"/>
<text text-anchor="middle" x="22.62" y="-238" font-family="Helvetica,sans-Serif" font-size="10.00">chrono</text>
</a>
</g>
</g>
<!-- Node1&#45;&gt;Node3 -->
<g id="edge54_Node000001_Node000003" class="edge">
<title>Node1&#45;&gt;Node3</title>
<g id="a_edge54_Node000001_Node000003"><a xlink:title=" ">
<path fill="none" stroke="#63b8ff" d="M1427.88,-356.83C1138.94,-355.88 96.9,-349.48 41.62,-306.75 28.46,-296.57 24.09,-277.66 22.79,-263.05"/>
<polygon fill="#63b8ff" stroke="#63b8ff" points="26.29,-262.99 22.36,-253.15 19.3,-263.29 26.29,-262.99"/>
</a>
</g>
</g>
<!-- Node5 -->
<g id="Node000005" class="node">
<title>Node5</title>
<g id="a_Node000005"><a xlink:href="internal_2utility_8hpp.xhtml" target="_top" xlink:title=" ">
<polygon fill="white" stroke="#666666" points="1239.38,-74.5 1107.88,-74.5 1107.88,-55.25 1239.38,-55.25 1239.38,-74.5"/>
<text text-anchor="middle" x="1173.62" y="-61" font-family="Helvetica,sans-Serif" font-size="10.00">fcarouge/internal/utility.hpp</text>
</a>
</g>
</g>
<!-- Node1&#45;&gt;Node5 -->
<g id="edge4_Node000001_Node000005" class="edge">
<title>Node1&#45;&gt;Node5</title>
<g id="a_edge4_Node000001_Node000005"><a xlink:title=" ">
<path fill="none" stroke="#63b8ff" d="M1441.5,-342.26C1419.91,-334.56 1396.7,-323.2 1379.62,-306.75 1353.41,-281.5 1362.41,-264.55 1345.62,-232.25 1329.82,-201.85 1329.44,-191.32 1306.62,-165.75 1274.61,-129.87 1227.96,-98.4 1199.27,-80.79"/>
<polygon fill="#63b8ff" stroke="#63b8ff" points="1201.24,-77.89 1190.86,-75.73 1197.62,-83.89 1201.24,-77.89"/>
</a>
</g>
</g>
<!-- Node7 -->
<g id="Node000007" class="node">
<title>Node7</title>
<g id="a_Node000007"><a xlink:href="kalman_8hpp.xhtml" target="_top" xlink:title="The Kalman filter class and library top&#45;level header.">
<polygon fill="white" stroke="#666666" points="560.62,-306.75 454.62,-306.75 454.62,-287.5 560.62,-287.5 560.62,-306.75"/>
<text text-anchor="middle" x="507.62" y="-293.25" font-family="Helvetica,sans-Serif" font-size="10.00">fcarouge/kalman.hpp</text>
</a>
</g>
</g>
<!-- Node1&#45;&gt;Node7 -->
<g id="edge7_Node000001_Node000007" class="edge">
<title>Node1&#45;&gt;Node7</title>
<g id="a_edge7_Node000001_Node000007"><a xlink:title=" ">
<path fill="none" stroke="#63b8ff" d="M1428.13,-352.65C1241.11,-341.57 749.45,-312.45 572.36,-301.96"/>
<polygon fill="#63b8ff" stroke="#63b8ff" points="572.61,-298.47 562.42,-301.37 572.2,-305.46 572.61,-298.47"/>
</a>
</g>
</g>
<!-- Node26 -->
<g id="Node000026" class="node">
<title>Node26</title>
<g id="a_Node000026"><a xlink:title=" ">
<polygon fill="#e0e0e0" stroke="#999999" points="1336.75,-251.5 1288.5,-251.5 1288.5,-232.25 1336.75,-232.25 1336.75,-251.5"/>
<text text-anchor="middle" x="1312.62" y="-238" font-family="Helvetica,sans-Serif" font-size="10.00">cstddef</text>
</a>
</g>
</g>
<!-- Node1&#45;&gt;Node26 -->
<g id="edge56_Node000001_Node000026" class="edge">
<title>Node1&#45;&gt;Node26</title>
<g id="a_edge56_Node000001_Node000026"><a xlink:title=" ">
<path fill="none" stroke="#63b8ff" d="M1428.01,-345.3C1400.13,-337.94 1369.61,-326.01 1346.62,-306.75 1332.78,-295.15 1323.77,-276.44 1318.52,-262.26"/>
<polygon fill="#63b8ff" stroke="#63b8ff" points="1321.95,-261.47 1315.46,-253.1 1315.31,-263.7 1321.95,-261.47"/>
</a>
</g>
</g>
<!-- Node29 -->
<g id="Node000029" class="node">
<title>Node29</title>
<g id="a_Node000029"><a xlink:title=" ">
<polygon fill="#e0e0e0" stroke="#999999" points="1486.12,-306.75 1389.12,-306.75 1389.12,-287.5 1486.12,-287.5 1486.12,-306.75"/>
<text text-anchor="middle" x="1437.62" y="-293.25" font-family="Helvetica,sans-Serif" font-size="10.00">fcarouge/linalg.hpp</text>
</a>
</g>
</g>
<!-- Node1&#45;&gt;Node29 -->
<g id="edge51_Node000001_Node000029" class="edge">
<title>Node1&#45;&gt;Node29</title>
<g id="a_edge51_Node000001_Node000029"><a xlink:title=" ">
<path fill="none" stroke="#63b8ff" d="M1485.8,-342.45C1476.72,-334.09 1465.26,-323.55 1455.81,-314.85"/>
<polygon fill="#63b8ff" stroke="#63b8ff" points="1458.33,-312.42 1448.61,-308.23 1453.6,-317.57 1458.33,-312.42"/>
</a>
</g>
</g>
<!-- Node30 -->
<g id="Node000030" class="node">
<title>Node30</title>
<g id="a_Node000030"><a xlink:title=" ">
<polygon fill="#e0e0e0" stroke="#999999" points="1626.88,-306.75 1504.38,-306.75 1504.38,-287.5 1626.88,-287.5 1626.88,-306.75"/>
<text text-anchor="middle" x="1565.62" y="-293.25" font-family="Helvetica,sans-Serif" font-size="10.00">benchmark/benchmark.h</text>
</a>
</g>
</g>
<!-- Node1&#45;&gt;Node30 -->
<g id="edge52_Node000001_Node000030" class="edge">
<title>Node1&#45;&gt;Node30</title>
<g id="a_edge52_Node000001_Node000030"><a xlink:title=" ">
<path fill="none" stroke="#63b8ff" d="M1517.45,-342.45C1526.53,-334.09 1537.99,-323.55 1547.44,-314.85"/>
<polygon fill="#63b8ff" stroke="#63b8ff" points="1549.65,-317.57 1554.64,-308.23 1544.92,-312.42 1549.65,-317.57"/>
</a>
</g>
</g>
<!-- Node31 -->
<g id="Node000031" class="node">
<title>Node31</title>
<g id="a_Node000031"><a xlink:title=" ">
<polygon fill="#e0e0e0" stroke="#999999" points="1700.5,-306.75 1644.75,-306.75 1644.75,-287.5 1700.5,-287.5 1700.5,-306.75"/>
<text text-anchor="middle" x="1672.62" y="-293.25" font-family="Helvetica,sans-Serif" font-size="10.00">algorithm</text>
</a>
</g>
</g>
<!-- Node1&#45;&gt;Node31 -->
<g id="edge53_Node000001_Node000031" class="edge">
<title>Node1&#45;&gt;Node31</title>
<g id="a_edge53_Node000001_Node000031"><a xlink:title=" ">
<path fill="none" stroke="#63b8ff" d="M1544.33,-342.3C1572.29,-332.67 1608.48,-320.21 1635.28,-310.98"/>
<polygon fill="#63b8ff" stroke="#63b8ff" points="1636.4,-314.3 1644.72,-307.73 1634.12,-307.68 1636.4,-314.3"/>
</a>
</g>
</g>
<!-- Node32 -->
<g id="Node000032" class="node">
<title>Node32</title>
<g id="a_Node000032"><a xlink:title=" ">
<polygon fill="#e0e0e0" stroke="#999999" points="1761.12,-306.75 1718.12,-306.75 1718.12,-287.5 1761.12,-287.5 1761.12,-306.75"/>
<text text-anchor="middle" x="1739.62" y="-293.25" font-family="Helvetica,sans-Serif" font-size="10.00">cmath</text>
</a>
</g>
</g>
<!-- Node1&#45;&gt;Node32 -->
<g id="edge55_Node000001_Node000032" class="edge">
<title>Node1&#45;&gt;Node32</title>
<g id="a_edge55_Node000001_Node000032"><a xlink:title=" ">
<path fill="none" stroke="#63b8ff" d="M1565.53,-342.31C1604.11,-333.27 1654.5,-321.16 1706.85,-307.41"/>
<polygon fill="#63b8ff" stroke="#63b8ff" points="1707.46,-310.87 1716.24,-304.93 1705.67,-304.1 1707.46,-310.87"/>
</a>
</g>
</g>
<!-- Node33 -->
<g id="Node000033" class="node">
<title>Node33</title>
<g id="a_Node000033"><a xlink:title=" ">
<polygon fill="#e0e0e0" stroke="#999999" points="1824.25,-306.75 1779,-306.75 1779,-287.5 1824.25,-287.5 1824.25,-306.75"/>
<text text-anchor="middle" x="1801.62" y="-293.25" font-family="Helvetica,sans-Serif" font-size="10.00">cstdint</text>
</a>
</g>
</g>
<!-- Node1&#45;&gt;Node33 -->
<g id="edge57_Node000001_Node000033" class="edge">
<title>Node1&#45;&gt;Node33</title>
<g id="a_edge57_Node000001_Node000033"><a xlink:title=" ">
<path fill="none" stroke="#63b8ff" d="M1575.31,-344.78C1626.69,-335.89 1697.05,-322.98 1767.72,-307.04"/>
<polygon fill="#63b8ff" stroke="#63b8ff" points="1768.16,-310.53 1777.13,-304.9 1766.6,-303.7 1768.16,-310.53"/>
</a>
</g>
</g>
<!-- Node34 -->
<g id="Node000034" class="node">
<title>Node34</title>
<g id="a_Node000034"><a xlink:title=" ">
<polygon fill="#e0e0e0" stroke="#999999" points="1887.25,-306.75 1842,-306.75 1842,-287.5 1887.25,-287.5 1887.25,-306.75"/>
<text text-anchor="middle" x="1864.62" y="-293.25" font-family="Helvetica,sans-Serif" font-size="10.00">cstring</text>
</a>
</g>
</g>
<!-- Node1&#45;&gt;Node34 -->
<g id="edge58_Node000001_Node000034" class="edge">
<title>Node1&#45;&gt;Node34</title>
<g id="a_edge58_Node000001_Node000034"><a xlink:title=" ">
<path fill="none" stroke="#63b8ff" d="M1575.28,-348.45C1640.29,-340.32 1737.78,-326.68 1830.67,-307.19"/>
<polygon fill="#63b8ff" stroke="#63b8ff" points="1831.15,-310.66 1840.2,-305.16 1829.69,-303.82 1831.15,-310.66"/>
</a>
</g>
</g>
<!-- Node35 -->
<g id="Node000035" class="node">
<title>Node35</title>
<g id="a_Node000035"><a xlink:title=" ">
<polygon fill="#e0e0e0" stroke="#999999" points="1953.75,-306.75 1905.5,-306.75 1905.5,-287.5 1953.75,-287.5 1953.75,-306.75"/>
<text text-anchor="middle" x="1929.62" y="-293.25" font-family="Helvetica,sans-Serif" font-size="10.00">random</text>
</a>
</g>
</g>
<!-- Node1&#45;&gt;Node35 -->
<g id="edge59_Node000001_Node000035" class="edge">
<title>Node1&#45;&gt;Node35</title>
<g id="a_edge59_Node000001_Node000035"><a xlink:title=" ">
<path fill="none" stroke="#63b8ff" d="M1575.24,-350.5C1652.42,-343.05 1777.38,-329.15 1893.94,-307.05"/>
<polygon fill="#63b8ff" stroke="#63b8ff" points="1894.55,-310.5 1903.71,-305.17 1893.23,-303.62 1894.55,-310.5"/>
</a>
</g>
</g>
<!-- Node2&#45;&gt;Node3 -->
<g id="edge2_Node000002_Node000003" class="edge">
<title>Node2&#45;&gt;Node3</title>
<g id="a_edge2_Node000002_Node000003"><a xlink:title=" ">
<path fill="none" stroke="#63b8ff" d="M79.92,-287.09C69.85,-279.32 55.08,-267.92 43.06,-258.65"/>
<polygon fill="#63b8ff" stroke="#63b8ff" points="45.41,-256.04 35.36,-252.7 41.13,-261.58 45.41,-256.04"/>
</a>
</g>
</g>
<!-- Node4 -->
<g id="Node000004" class="node">
<title>Node4</title>
<g id="a_Node000004"><a xlink:title=" ">
<polygon fill="#e0e0e0" stroke="#999999" points="282.12,-19.25 221.12,-19.25 221.12,0 282.12,0 282.12,-19.25"/>
<text text-anchor="middle" x="251.62" y="-5.75" font-family="Helvetica,sans-Serif" font-size="10.00">type_traits</text>
</a>
</g>
</g>
<!-- Node2&#45;&gt;Node4 -->
<g id="edge3_Node000002_Node000004" class="edge">
<title>Node2&#45;&gt;Node4</title>
<g id="a_edge3_Node000002_Node000004"><a xlink:title=" ">
<path fill="none" stroke="#63b8ff" d="M89.2,-287.03C84.28,-267.8 73.62,-221.51 73.62,-182 73.62,-182 73.62,-182 73.62,-119.12 73.62,-88.8 75.37,-75.85 97.62,-55.25 128.19,-26.97 175.61,-16.5 209.76,-12.69"/>
<polygon fill="#63b8ff" stroke="#63b8ff" points="209.66,-16.21 219.28,-11.78 209,-9.24 209.66,-16.21"/>
</a>
</g>
</g>
<!-- Node5&#45;&gt;Node4 -->
<g id="edge6_Node000005_Node000004" class="edge">
<title>Node5&#45;&gt;Node4</title>
<g id="a_edge6_Node000005_Node000004"><a xlink:title=" ">
<path fill="none" stroke="#63b8ff" d="M1107.49,-59.95C1082.47,-58.47 1053.73,-56.77 1027.62,-55.25 747.28,-38.91 409.93,-19.65 293.51,-13.01"/>
<polygon fill="#63b8ff" stroke="#63b8ff" points="294,-9.53 283.82,-12.46 293.61,-16.52 294,-9.53"/>
</a>
</g>
</g>
<!-- Node6 -->
<g id="Node000006" class="node">
<title>Node6</title>
<g id="a_Node000006"><a xlink:title=" ">
<polygon fill="#e0e0e0" stroke="#999999" points="1354.5,-19.25 1298.75,-19.25 1298.75,0 1354.5,0 1354.5,-19.25"/>
<text text-anchor="middle" x="1326.62" y="-5.75" font-family="Helvetica,sans-Serif" font-size="10.00">concepts</text>
</a>
</g>
</g>
<!-- Node5&#45;&gt;Node6 -->
<g id="edge5_Node000005_Node000006" class="edge">
<title>Node5&#45;&gt;Node6</title>
<g id="a_edge5_Node000005_Node000006"><a xlink:title=" ">
<path fill="none" stroke="#63b8ff" d="M1199.58,-54.84C1224.42,-46.2 1262.12,-33.07 1290.01,-23.37"/>
<polygon fill="#63b8ff" stroke="#63b8ff" points="1290.82,-26.79 1299.11,-20.2 1288.52,-20.18 1290.82,-26.79"/>
</a>
</g>
</g>
<!-- Node7&#45;&gt;Node4 -->
<g id="edge48_Node000007_Node000004" class="edge">
<title>Node7&#45;&gt;Node4</title>
<g id="a_edge48_Node000007_Node000004"><a xlink:title=" ">
<path fill="none" stroke="#63b8ff" d="M454.22,-291.96C346.13,-282.07 111.62,-252.47 111.62,-182 111.62,-182 111.62,-182 111.62,-119.12 111.62,-68.74 168.98,-38.4 210.27,-23.09"/>
<polygon fill="#63b8ff" stroke="#63b8ff" points="211.21,-26.47 219.47,-19.85 208.88,-19.87 211.21,-26.47"/>
</a>
</g>
</g>
<!-- Node7&#45;&gt;Node6 -->
<g id="edge45_Node000007_Node000006" class="edge">
<title>Node7&#45;&gt;Node6</title>
<g id="a_edge45_Node000007_Node000006"><a xlink:title=" ">
<path fill="none" stroke="#63b8ff" d="M560.88,-296.85C723.92,-297.98 1212.37,-293.07 1330.62,-196.25 1379.65,-156.11 1368.18,-116.41 1351.62,-55.25 1349.14,-46.06 1344.34,-36.73 1339.62,-29"/>
<polygon fill="#63b8ff" stroke="#63b8ff" points="1342.69,-27.3 1334.26,-20.88 1336.84,-31.15 1342.69,-27.3"/>
</a>
</g>
</g>
<!-- Node8 -->
<g id="Node000008" class="node">
<title>Node8</title>
<g id="a_Node000008"><a xlink:href="factory_8hpp.xhtml" target="_top" xlink:title=" ">
<polygon fill="white" stroke="#666666" points="840.5,-251.5 742.75,-251.5 742.75,-232.25 840.5,-232.25 840.5,-251.5"/>
<text text-anchor="middle" x="791.62" y="-238" font-family="Helvetica,sans-Serif" font-size="10.00">internal/factory.hpp</text>
</a>
</g>
</g>
<!-- Node7&#45;&gt;Node8 -->
<g id="edge8_Node000007_Node000008" class="edge">
<title>Node7&#45;&gt;Node8</title>
<g id="a_edge8_Node000007_Node000008"><a xlink:title=" ">
<path fill="none" stroke="#63b8ff" d="M556.12,-287.03C604.83,-277.9 679.96,-263.81 732.21,-254.01"/>
<polygon fill="#63b8ff" stroke="#63b8ff" points="732.66,-257.49 741.84,-252.21 731.37,-250.61 732.66,-257.49"/>
</a>
</g>
</g>
<!-- Node10 -->
<g id="Node000010" class="node">
<title>Node10</title>
<g id="a_Node000010"><a xlink:href="utility_8hpp.xhtml" target="_top" xlink:title="The collection of utilities supporting the library.">
<polygon fill="white" stroke="#666666" points="840.12,-129.75 743.12,-129.75 743.12,-110.5 840.12,-110.5 840.12,-129.75"/>
<text text-anchor="middle" x="791.62" y="-116.25" font-family="Helvetica,sans-Serif" font-size="10.00">fcarouge/utility.hpp</text>
</a>
</g>
</g>
<!-- Node7&#45;&gt;Node10 -->
<g id="edge44_Node000007_Node000010" class="edge">
<title>Node7&#45;&gt;Node10</title>
<g id="a_edge44_Node000007_Node000010"><a xlink:title=" ">
<path fill="none" stroke="#63b8ff" d="M527.15,-287.09C540.68,-279.65 557.66,-267.69 565.62,-251.5 582.53,-217.16 533.23,-195.24 557.62,-165.75 579.31,-139.54 669.76,-128.59 731.64,-124.11"/>
<polygon fill="#63b8ff" stroke="#63b8ff" points="731.59,-127.62 741.32,-123.45 731.11,-120.63 731.59,-127.62"/>
</a>
</g>
</g>
<!-- Node12 -->
<g id="Node000012" class="node">
<title>Node12</title>
<g id="a_Node000012"><a xlink:title=" ">
<polygon fill="#e0e0e0" stroke="#999999" points="382.88,-129.75 344.38,-129.75 344.38,-110.5 382.88,-110.5 382.88,-129.75"/>
<text text-anchor="middle" x="363.62" y="-116.25" font-family="Helvetica,sans-Serif" font-size="10.00">utility</text>
</a>
</g>
</g>
<!-- Node7&#45;&gt;Node12 -->
<g id="edge49_Node000007_Node000012" class="edge">
<title>Node7&#45;&gt;Node12</title>
<g id="a_edge49_Node000007_Node000012"><a xlink:title=" ">
<path fill="none" stroke="#63b8ff" d="M454.44,-292.25C425.92,-287.22 392.79,-276.04 373.62,-251.5 348.79,-219.69 353.62,-169.19 358.9,-141.3"/>
<polygon fill="#63b8ff" stroke="#63b8ff" points="362.28,-142.21 360.93,-131.7 355.43,-140.76 362.28,-142.21"/>
</a>
</g>
</g>
<!-- Node22 -->
<g id="Node000022" class="node">
<title>Node22</title>
<g id="a_Node000022"><a xlink:href="format_8hpp.xhtml" target="_top" xlink:title=" ">
<polygon fill="white" stroke="#666666" points="235.75,-190.62 139.5,-190.62 139.5,-171.38 235.75,-171.38 235.75,-190.62"/>
<text text-anchor="middle" x="187.62" y="-177.12" font-family="Helvetica,sans-Serif" font-size="10.00">internal/format.hpp</text>
</a>
</g>
</g>
<!-- Node7&#45;&gt;Node22 -->
<g id="edge38_Node000007_Node000022" class="edge">
<title>Node7&#45;&gt;Node22</title>
<g id="a_edge38_Node000007_Node000022"><a xlink:title=" ">
<path fill="none" stroke="#63b8ff" d="M454.17,-291.59C387.63,-285.17 278.47,-271.91 243.62,-251.5 223.2,-239.53 207.21,-217.1 197.64,-200.96"/>
<polygon fill="#63b8ff" stroke="#63b8ff" points="200.74,-199.33 192.8,-192.31 194.63,-202.74 200.74,-199.33"/>
</a>
</g>
</g>
<!-- Node24 -->
<g id="Node000024" class="node">
<title>Node24</title>
<g id="a_Node000024"><a xlink:href="printer_8hpp.xhtml" target="_top" xlink:title=" ">
<polygon fill="white" stroke="#666666" points="314.12,-251.5 253.12,-251.5 253.12,-232.25 314.12,-232.25 314.12,-251.5"/>
<text text-anchor="middle" x="283.62" y="-238" font-family="Helvetica,sans-Serif" font-size="10.00">printer.hpp</text>
</a>
</g>
</g>
<!-- Node7&#45;&gt;Node24 -->
<g id="edge42_Node000007_Node000024" class="edge">
<title>Node7&#45;&gt;Node24</title>
<g id="a_edge42_Node000007_Node000024"><a xlink:title=" ">
<path fill="none" stroke="#63b8ff" d="M469.37,-287.03C429.4,-277.53 366.86,-262.66 325.56,-252.84"/>
<polygon fill="#63b8ff" stroke="#63b8ff" points="326.52,-249.47 315.98,-250.57 324.9,-256.28 326.52,-249.47"/>
</a>
</g>
</g>
<!-- Node7&#45;&gt;Node26 -->
<g id="edge46_Node000007_Node000026" class="edge">
<title>Node7&#45;&gt;Node26</title>
<g id="a_edge46_Node000007_Node000026"><a xlink:title=" ">
<path fill="none" stroke="#63b8ff" d="M560.93,-296.04C686.13,-295.19 1008.51,-289.18 1274.62,-251.5 1275.45,-251.38 1276.29,-251.26 1277.13,-251.12"/>
<polygon fill="#63b8ff" stroke="#63b8ff" points="1277.54,-254.61 1286.72,-249.32 1276.24,-247.73 1277.54,-254.61"/>
</a>
</g>
</g>
<!-- Node27 -->
<g id="Node000027" class="node">
<title>Node27</title>
<g id="a_Node000027"><a xlink:title=" ">
<polygon fill="#e0e0e0" stroke="#999999" points="440.62,-251.5 382.62,-251.5 382.62,-232.25 440.62,-232.25 440.62,-251.5"/>
<text text-anchor="middle" x="411.62" y="-238" font-family="Helvetica,sans-Serif" font-size="10.00">functional</text>
</a>
</g>
</g>
<!-- Node7&#45;&gt;Node27 -->
<g id="edge47_Node000007_Node000027" class="edge">
<title>Node7&#45;&gt;Node27</title>
<g id="a_edge47_Node000007_Node000027"><a xlink:title=" ">
<path fill="none" stroke="#63b8ff" d="M491.34,-287.09C476.72,-278.98 455,-266.93 437.92,-257.46"/>
<polygon fill="#63b8ff" stroke="#63b8ff" points="439.76,-254.48 429.31,-252.69 436.36,-260.6 439.76,-254.48"/>
</a>
</g>
</g>
<!-- Node28 -->
<g id="Node000028" class="node">
<title>Node28</title>
<g id="a_Node000028"><a xlink:title=" ">
<polygon fill="#e0e0e0" stroke="#999999" points="556.5,-251.5 458.75,-251.5 458.75,-232.25 556.5,-232.25 556.5,-251.5"/>
<text text-anchor="middle" x="507.62" y="-238" font-family="Helvetica,sans-Serif" font-size="10.00">internal/kalman.tpp</text>
</a>
</g>
</g>
<!-- Node7&#45;&gt;Node28 -->
<g id="edge50_Node000007_Node000028" class="edge">
<title>Node7&#45;&gt;Node28</title>
<g id="a_edge50_Node000007_Node000028"><a xlink:title=" ">
<path fill="none" stroke="#63b8ff" d="M507.62,-287.33C507.62,-280.82 507.62,-271.67 507.62,-263.37"/>
<polygon fill="#63b8ff" stroke="#63b8ff" points="511.13,-263.37 507.63,-253.37 504.13,-263.37 511.13,-263.37"/>
</a>
</g>
</g>
<!-- Node8&#45;&gt;Node4 -->
<g id="edge37_Node000008_Node000004" class="edge">
<title>Node8&#45;&gt;Node4</title>
<g id="a_edge37_Node000008_Node000004"><a xlink:title=" ">
<path fill="none" stroke="#63b8ff" d="M742.51,-237.99C638.83,-231.55 404.54,-215.11 373.62,-196.25 309.32,-157.02 272.12,-69.59 258.1,-30.35"/>
<polygon fill="#63b8ff" stroke="#63b8ff" points="261.47,-29.38 254.91,-21.06 254.85,-31.65 261.47,-29.38"/>
</a>
</g>
</g>
<!-- Node8&#45;&gt;Node6 -->
<g id="edge36_Node000008_Node000006" class="edge">
<title>Node8&#45;&gt;Node6</title>
<g id="a_edge36_Node000008_Node000006"><a xlink:title=" ">
<path fill="none" stroke="#63b8ff" d="M840.89,-240.1C963.29,-237.69 1273.76,-228.43 1306.62,-196.25 1351.36,-152.44 1339.97,-69.06 1331.69,-30.77"/>
<polygon fill="#63b8ff" stroke="#63b8ff" points="1335.11,-30.05 1329.43,-21.11 1328.3,-31.64 1335.11,-30.05"/>
</a>
</g>
</g>
<!-- Node9 -->
<g id="Node000009" class="node">
<title>Node9</title>
<g id="a_Node000009"><a xlink:href="type_8hpp.xhtml" target="_top" xlink:title=" ">
<polygon fill="white" stroke="#666666" points="510.12,-190.62 383.12,-190.62 383.12,-171.38 510.12,-171.38 510.12,-190.62"/>
<text text-anchor="middle" x="446.62" y="-177.12" font-family="Helvetica,sans-Serif" font-size="10.00">fcarouge/internal/type.hpp</text>
</a>
</g>
</g>
<!-- Node8&#45;&gt;Node9 -->
<g id="edge9_Node000008_Node000009" class="edge">
<title>Node8&#45;&gt;Node9</title>
<g id="a_edge9_Node000008_Node000009"><a xlink:title=" ">
<path fill="none" stroke="#63b8ff" d="M742.56,-232.5C681.89,-222.15 578.44,-204.49 511.32,-193.04"/>
<polygon fill="#63b8ff" stroke="#63b8ff" points="511.99,-189.6 501.55,-191.37 510.82,-196.5 511.99,-189.6"/>
</a>
</g>
</g>
<!-- Node13 -->
<g id="Node000013" class="node">
<title>Node13</title>
<g id="a_Node000013"><a xlink:href="x__z__p__q__r__h__f_8hpp.xhtml" target="_top" xlink:title=" ">
<polygon fill="white" stroke="#666666" points="662.38,-196.25 566.88,-196.25 566.88,-165.75 662.38,-165.75 662.38,-196.25"/>
<text text-anchor="start" x="574.88" y="-182.75" font-family="Helvetica,sans-Serif" font-size="10.00">fcarouge/internal/x</text>
<text text-anchor="middle" x="614.62" y="-171.5" font-family="Helvetica,sans-Serif" font-size="10.00">_z_p_q_r_h_f.hpp</text>
</a>
</g>
</g>
<!-- Node8&#45;&gt;Node13 -->
<g id="edge15_Node000008_Node000013" class="edge">
<title>Node8&#45;&gt;Node13</title>
<g id="a_edge15_Node000008_Node000013"><a xlink:title=" ">
<path fill="none" stroke="#63b8ff" d="M764.36,-231.8C739.2,-223.44 701.1,-210.76 669.63,-200.29"/>
<polygon fill="#63b8ff" stroke="#63b8ff" points="670.83,-197.01 660.24,-197.17 668.62,-203.65 670.83,-197.01"/>
</a>
</g>
</g>
<!-- Node14 -->
<g id="Node000014" class="node">
<title>Node14</title>
<g id="a_Node000014"><a xlink:href="x__z__p__q__r__hh__us__ps_8hpp.xhtml" target="_top" xlink:title=" ">
<polygon fill="white" stroke="#666666" points="914.75,-196.25 794.5,-196.25 794.5,-165.75 914.75,-165.75 914.75,-196.25"/>
<text text-anchor="start" x="802.5" y="-182.75" font-family="Helvetica,sans-Serif" font-size="10.00">fcarouge/internal/x</text>
<text text-anchor="middle" x="854.62" y="-171.5" font-family="Helvetica,sans-Serif" font-size="10.00">_z_p_q_r_hh_us_ps.hpp</text>
</a>
</g>
</g>
<!-- Node8&#45;&gt;Node14 -->
<g id="edge17_Node000008_Node000014" class="edge">
<title>Node8&#45;&gt;Node14</title>
<g id="a_edge17_Node000008_Node000014"><a xlink:title=" ">
<path fill="none" stroke="#63b8ff" d="M801.19,-231.93C809.05,-224.59 820.51,-213.88 830.8,-204.26"/>
<polygon fill="#63b8ff" stroke="#63b8ff" points="833.05,-206.95 837.97,-197.57 828.27,-201.84 833.05,-206.95"/>
</a>
</g>
</g>
<!-- Node18 -->
<g id="Node000018" class="node">
<title>Node18</title>
<g id="a_Node000018"><a xlink:href="x__z__p__qq__rr__f_8hpp.xhtml" target="_top" xlink:title=" ">
<polygon fill="white" stroke="#666666" points="1028.38,-196.25 932.88,-196.25 932.88,-165.75 1028.38,-165.75 1028.38,-196.25"/>
<text text-anchor="start" x="940.88" y="-182.75" font-family="Helvetica,sans-Serif" font-size="10.00">fcarouge/internal/x</text>
<text text-anchor="middle" x="980.62" y="-171.5" font-family="Helvetica,sans-Serif" font-size="10.00">_z_p_qq_rr_f.hpp</text>
</a>
</g>
</g>
<!-- Node8&#45;&gt;Node18 -->
<g id="edge22_Node000008_Node000018" class="edge">
<title>Node8&#45;&gt;Node18</title>
<g id="a_edge22_Node000008_Node000018"><a xlink:title=" ">
<path fill="none" stroke="#63b8ff" d="M820.74,-231.8C847.84,-223.36 889,-210.54 922.77,-200.02"/>
<polygon fill="#63b8ff" stroke="#63b8ff" points="923.5,-203.46 932.01,-197.14 921.42,-196.78 923.5,-203.46"/>
</a>
</g>
</g>
<!-- Node19 -->
<g id="Node000019" class="node">
<title>Node19</title>
<g id="a_Node000019"><a xlink:href="x__z__p__r__f_8hpp.xhtml" target="_top" xlink:title=" ">
<polygon fill="white" stroke="#666666" points="776.38,-196.25 680.88,-196.25 680.88,-165.75 776.38,-165.75 776.38,-196.25"/>
<text text-anchor="start" x="688.88" y="-182.75" font-family="Helvetica,sans-Serif" font-size="10.00">fcarouge/internal/x</text>
<text text-anchor="middle" x="728.62" y="-171.5" font-family="Helvetica,sans-Serif" font-size="10.00">_z_p_r_f.hpp</text>
</a>
</g>
</g>
<!-- Node8&#45;&gt;Node19 -->
<g id="edge26_Node000008_Node000019" class="edge">
<title>Node8&#45;&gt;Node19</title>
<g id="a_edge26_Node000008_Node000019"><a xlink:title=" ">
<path fill="none" stroke="#63b8ff" d="M782.06,-231.93C774.2,-224.59 762.74,-213.88 752.45,-204.26"/>
<polygon fill="#63b8ff" stroke="#63b8ff" points="754.98,-201.84 745.28,-197.57 750.2,-206.95 754.98,-201.84"/>
</a>
</g>
</g>
<!-- Node20 -->
<g id="Node000020" class="node">
<title>Node20</title>
<g id="a_Node000020"><a xlink:href="x__z__u__p__q__r__f__g__ps_8hpp.xhtml" target="_top" xlink:title=" ">
<polygon fill="white" stroke="#666666" points="1164.62,-196.25 1046.62,-196.25 1046.62,-165.75 1164.62,-165.75 1164.62,-196.25"/>
<text text-anchor="start" x="1054.62" y="-182.75" font-family="Helvetica,sans-Serif" font-size="10.00">fcarouge/internal/x</text>
<text text-anchor="middle" x="1105.62" y="-171.5" font-family="Helvetica,sans-Serif" font-size="10.00">_z_u_p_q_r_f_g_ps.hpp</text>
</a>
</g>
</g>
<!-- Node8&#45;&gt;Node20 -->
<g id="edge28_Node000008_Node000020" class="edge">
<title>Node8&#45;&gt;Node20</title>
<g id="a_edge28_Node000008_Node000020"><a xlink:title=" ">
<path fill="none" stroke="#63b8ff" d="M840.71,-232.38C887.98,-224.1 961.82,-210.94 1035.04,-196.73"/>
<polygon fill="#63b8ff" stroke="#63b8ff" points="1035.67,-200.17 1044.82,-194.82 1034.34,-193.3 1035.67,-200.17"/>
</a>
</g>
</g>
<!-- Node21 -->
<g id="Node000021" class="node">
<title>Node21</title>
<g id="a_Node000021"><a xlink:href="x__z__u__p__q__r__us__ps_8hpp.xhtml" target="_top" xlink:title=" ">
<polygon fill="white" stroke="#666666" points="1298.12,-196.25 1183.12,-196.25 1183.12,-165.75 1298.12,-165.75 1298.12,-196.25"/>
<text text-anchor="start" x="1191.12" y="-182.75" font-family="Helvetica,sans-Serif" font-size="10.00">fcarouge/internal/x</text>
<text text-anchor="middle" x="1240.62" y="-171.5" font-family="Helvetica,sans-Serif" font-size="10.00">_z_u_p_q_r_us_ps.hpp</text>
</a>
</g>
</g>
<!-- Node8&#45;&gt;Node21 -->
<g id="edge32_Node000008_Node000021" class="edge">
<title>Node8&#45;&gt;Node21</title>
<g id="a_edge32_Node000008_Node000021"><a xlink:title=" ">
<path fill="none" stroke="#63b8ff" d="M840.98,-236.59C911.83,-230.12 1046.67,-216.6 1171.66,-196.47"/>
<polygon fill="#63b8ff" stroke="#63b8ff" points="1172.15,-199.93 1181.45,-194.87 1171.02,-193.02 1172.15,-199.93"/>
</a>
</g>
</g>
<!-- Node9&#45;&gt;Node4 -->
<g id="edge13_Node000009_Node000004" class="edge">
<title>Node9&#45;&gt;Node4</title>
<g id="a_edge13_Node000009_Node000004"><a xlink:title=" ">
<path fill="none" stroke="#63b8ff" d="M440.29,-171.06C430.48,-157.45 410.76,-130.95 391.62,-110.5 366.63,-83.79 360.29,-76.65 330.62,-55.25 314.75,-43.79 295.66,-32.94 280.23,-24.81"/>
<polygon fill="#63b8ff" stroke="#63b8ff" points="282.05,-21.81 271.55,-20.33 278.83,-28.03 282.05,-21.81"/>
</a>
</g>
</g>
<!-- Node9&#45;&gt;Node10 -->
<g id="edge10_Node000009_Node000010" class="edge">
<title>Node9&#45;&gt;Node10</title>
<g id="a_edge10_Node000009_Node000010"><a xlink:title=" ">
<path fill="none" stroke="#63b8ff" d="M495.7,-170.92C505.29,-169.18 515.27,-167.39 524.62,-165.75 595.72,-153.31 677.61,-139.74 731.75,-130.87"/>
<polygon fill="#63b8ff" stroke="#63b8ff" points="732.07,-134.36 741.37,-129.29 730.94,-127.45 732.07,-134.36"/>
</a>
</g>
</g>
<!-- Node11 -->
<g id="Node000011" class="node">
<title>Node11</title>
<g id="a_Node000011"><a xlink:title=" ">
<polygon fill="#e0e0e0" stroke="#999999" points="510.38,-129.75 438.88,-129.75 438.88,-110.5 510.38,-110.5 510.38,-129.75"/>
<text text-anchor="middle" x="474.62" y="-116.25" font-family="Helvetica,sans-Serif" font-size="10.00">initializer_list</text>
</a>
</g>
</g>
<!-- Node9&#45;&gt;Node11 -->
<g id="edge12_Node000009_Node000011" class="edge">
<title>Node9&#45;&gt;Node11</title>
<g id="a_edge12_Node000009_Node000011"><a xlink:title=" ">
<path fill="none" stroke="#63b8ff" d="M450.88,-171.06C454.74,-162.93 460.57,-150.67 465.49,-140.33"/>
<polygon fill="#63b8ff" stroke="#63b8ff" points="468.55,-142.05 469.68,-131.52 462.23,-139.05 468.55,-142.05"/>
</a>
</g>
</g>
<!-- Node9&#45;&gt;Node12 -->
<g id="edge14_Node000009_Node000012" class="edge">
<title>Node9&#45;&gt;Node12</title>
<g id="a_edge14_Node000009_Node000012"><a xlink:title=" ">
<path fill="none" stroke="#63b8ff" d="M434.02,-171.06C421.22,-161.98 401.15,-147.74 385.71,-136.79"/>
<polygon fill="#63b8ff" stroke="#63b8ff" points="387.77,-133.96 377.58,-131.03 383.72,-139.67 387.77,-133.96"/>
</a>
</g>
</g>
<!-- Node10&#45;&gt;Node5 -->
<g id="edge11_Node000010_Node000005" class="edge">
<title>Node10&#45;&gt;Node5</title>
<g id="a_edge11_Node000010_Node000005"><a xlink:title=" ">
<path fill="none" stroke="#63b8ff" d="M840.39,-112.33C905.29,-103.28 1020.72,-87.19 1097.22,-76.53"/>
<polygon fill="#63b8ff" stroke="#63b8ff" points="1097.3,-80.05 1106.72,-75.2 1096.33,-73.12 1097.3,-80.05"/>
</a>
</g>
</g>
<!-- Node13&#45;&gt;Node10 -->
<g id="edge16_Node000013_Node000010" class="edge">
<title>Node13&#45;&gt;Node10</title>
<g id="a_edge16_Node000013_Node000010"><a xlink:title=" ">
<path fill="none" stroke="#63b8ff" d="M658.83,-165.3C687.9,-155.63 725.56,-143.1 753.35,-133.86"/>
<polygon fill="#63b8ff" stroke="#63b8ff" points="754.4,-137.2 762.78,-130.72 752.19,-130.55 754.4,-137.2"/>
</a>
</g>
</g>
<!-- Node14&#45;&gt;Node10 -->
<g id="edge18_Node000014_Node000010" class="edge">
<title>Node14&#45;&gt;Node10</title>
<g id="a_edge18_Node000014_Node000010"><a xlink:title=" ">
<path fill="none" stroke="#63b8ff" d="M839.05,-165.45C830.11,-157.09 818.83,-146.55 809.52,-137.85"/>
<polygon fill="#63b8ff" stroke="#63b8ff" points="812.14,-135.51 802.44,-131.23 807.36,-140.62 812.14,-135.51"/>
</a>
</g>
</g>
<!-- Node15 -->
<g id="Node000015" class="node">
<title>Node15</title>
<g id="a_Node000015"><a xlink:href="function_8hpp.xhtml" target="_top" xlink:title=" ">
<polygon fill="white" stroke="#666666" points="1027.88,-129.75 959.38,-129.75 959.38,-110.5 1027.88,-110.5 1027.88,-129.75"/>
<text text-anchor="middle" x="993.62" y="-116.25" font-family="Helvetica,sans-Serif" font-size="10.00">function.hpp</text>
</a>
</g>
</g>
<!-- Node14&#45;&gt;Node15 -->
<g id="edge19_Node000014_Node000015" class="edge">
<title>Node14&#45;&gt;Node15</title>
<g id="a_edge19_Node000014_Node000015"><a xlink:title=" ">
<path fill="none" stroke="#63b8ff" d="M889.34,-165.3C911.63,-155.85 940.35,-143.69 962,-134.52"/>
<polygon fill="#63b8ff" stroke="#63b8ff" points="963.07,-137.87 970.91,-130.74 960.34,-131.42 963.07,-137.87"/>
</a>
</g>
</g>
<!-- Node17 -->
<g id="Node000017" class="node">
<title>Node17</title>
<g id="a_Node000017"><a xlink:title=" ">
<polygon fill="#e0e0e0" stroke="#999999" points="1097.12,-129.75 1060.12,-129.75 1060.12,-110.5 1097.12,-110.5 1097.12,-129.75"/>
<text text-anchor="middle" x="1078.62" y="-116.25" font-family="Helvetica,sans-Serif" font-size="10.00">tuple</text>
</a>
</g>
</g>
<!-- Node14&#45;&gt;Node17 -->
<g id="edge21_Node000014_Node000017" class="edge">
<title>Node14&#45;&gt;Node17</title>
<g id="a_edge21_Node000014_Node000017"><a xlink:title=" ">
<path fill="none" stroke="#63b8ff" d="M910.57,-165.3C954.35,-153.79 1013.51,-138.24 1048.71,-128.99"/>
<polygon fill="#63b8ff" stroke="#63b8ff" points="1049.42,-132.42 1058.2,-126.49 1047.64,-125.65 1049.42,-132.42"/>
</a>
</g>
</g>
<!-- Node16 -->
<g id="Node000016" class="node">
<title>Node16</title>
<g id="a_Node000016"><a xlink:title=" ">
<polygon fill="#e0e0e0" stroke="#999999" points="1018.88,-74.5 968.38,-74.5 968.38,-55.25 1018.88,-55.25 1018.88,-74.5"/>
<text text-anchor="middle" x="993.62" y="-61" font-family="Helvetica,sans-Serif" font-size="10.00">memory</text>
</a>
</g>
</g>
<!-- Node15&#45;&gt;Node16 -->
<g id="edge20_Node000015_Node000016" class="edge">
<title>Node15&#45;&gt;Node16</title>
<g id="a_edge20_Node000015_Node000016"><a xlink:title=" ">
<path fill="none" stroke="#63b8ff" d="M993.62,-110.33C993.62,-103.82 993.62,-94.67 993.62,-86.37"/>
<polygon fill="#63b8ff" stroke="#63b8ff" points="997.13,-86.37 993.63,-76.37 990.13,-86.37 997.13,-86.37"/>
</a>
</g>
</g>
<!-- Node18&#45;&gt;Node10 -->
<g id="edge23_Node000018_Node000010" class="edge">
<title>Node18&#45;&gt;Node10</title>
<g id="a_edge23_Node000018_Node000010"><a xlink:title=" ">
<path fill="none" stroke="#63b8ff" d="M933.42,-165.3C902.1,-155.54 861.45,-142.88 831.71,-133.61"/>
<polygon fill="#63b8ff" stroke="#63b8ff" points="832.92,-130.32 822.33,-130.69 830.84,-137.01 832.92,-130.32"/>
</a>
</g>
</g>
<!-- Node18&#45;&gt;Node15 -->
<g id="edge24_Node000018_Node000015" class="edge">
<title>Node18&#45;&gt;Node15</title>
<g id="a_edge24_Node000018_Node000015"><a xlink:title=" ">
<path fill="none" stroke="#63b8ff" d="M983.84,-165.45C985.44,-158.21 987.4,-149.34 989.14,-141.44"/>
<polygon fill="#63b8ff" stroke="#63b8ff" points="992.56,-142.2 991.29,-131.68 985.72,-140.69 992.56,-142.2"/>
</a>
</g>
</g>
<!-- Node18&#45;&gt;Node17 -->
<g id="edge25_Node000018_Node000017" class="edge">
<title>Node18&#45;&gt;Node17</title>
<g id="a_edge25_Node000018_Node000017"><a xlink:title=" ">
<path fill="none" stroke="#63b8ff" d="M1005.1,-165.3C1020.03,-156.33 1039.04,-144.91 1053.99,-135.92"/>
<polygon fill="#63b8ff" stroke="#63b8ff" points="1055.53,-139.08 1062.3,-130.93 1051.92,-133.08 1055.53,-139.08"/>
</a>
</g>
</g>
<!-- Node19&#45;&gt;Node10 -->
<g id="edge27_Node000019_Node000010" class="edge">
<title>Node19&#45;&gt;Node10</title>
<g id="a_edge27_Node000019_Node000010"><a xlink:title=" ">
<path fill="none" stroke="#63b8ff" d="M744.2,-165.45C753.14,-157.09 764.42,-146.55 773.73,-137.85"/>
<polygon fill="#63b8ff" stroke="#63b8ff" points="775.89,-140.62 780.81,-131.23 771.11,-135.51 775.89,-140.62"/>
</a>
</g>
</g>
<!-- Node20&#45;&gt;Node10 -->
<g id="edge29_Node000020_Node000010" class="edge">
<title>Node20&#45;&gt;Node10</title>
<g id="a_edge29_Node000020_Node000010"><a xlink:title=" ">
<path fill="none" stroke="#63b8ff" d="M1046.31,-167.47C1043.37,-166.88 1040.47,-166.31 1037.62,-165.75 974.19,-153.35 901.33,-140.28 851.46,-131.51"/>
<polygon fill="#63b8ff" stroke="#63b8ff" points="852.19,-128.09 841.73,-129.8 850.98,-134.98 852.19,-128.09"/>
</a>
</g>
</g>
<!-- Node20&#45;&gt;Node15 -->
<g id="edge30_Node000020_Node000015" class="edge">
<title>Node20&#45;&gt;Node15</title>
<g id="a_edge30_Node000020_Node000015"><a xlink:title=" ">
<path fill="none" stroke="#63b8ff" d="M1077.65,-165.3C1060.27,-156.16 1038.03,-144.47 1020.8,-135.41"/>
<polygon fill="#63b8ff" stroke="#63b8ff" points="1022.62,-132.41 1012.14,-130.86 1019.36,-138.61 1022.62,-132.41"/>
</a>
</g>
</g>
<!-- Node20&#45;&gt;Node17 -->
<g id="edge31_Node000020_Node000017" class="edge">
<title>Node20&#45;&gt;Node17</title>
<g id="a_edge31_Node000020_Node000017"><a xlink:title=" ">
<path fill="none" stroke="#63b8ff" d="M1098.95,-165.45C1095.51,-157.95 1091.27,-148.7 1087.55,-140.6"/>
<polygon fill="#63b8ff" stroke="#63b8ff" points="1090.77,-139.21 1083.42,-131.58 1084.41,-142.13 1090.77,-139.21"/>
</a>
</g>
</g>
<!-- Node21&#45;&gt;Node10 -->
<g id="edge33_Node000021_Node000010" class="edge">
<title>Node21&#45;&gt;Node10</title>
<g id="a_edge33_Node000021_Node000010"><a xlink:title=" ">
<path fill="none" stroke="#63b8ff" d="M1182.95,-167.38C1179.8,-166.8 1176.68,-166.25 1173.62,-165.75 1060.35,-147.13 926.93,-133.39 851.52,-126.38"/>
<polygon fill="#63b8ff" stroke="#63b8ff" points="852.16,-122.92 841.88,-125.49 851.51,-129.89 852.16,-122.92"/>
</a>
</g>
</g>
<!-- Node21&#45;&gt;Node15 -->
<g id="edge34_Node000021_Node000015" class="edge">
<title>Node21&#45;&gt;Node15</title>
<g id="a_edge34_Node000021_Node000015"><a xlink:title=" ">
<path fill="none" stroke="#63b8ff" d="M1182.71,-166.2C1139.02,-155.78 1079.88,-141.69 1039.45,-132.05"/>
<polygon fill="#63b8ff" stroke="#63b8ff" points="1040.32,-128.66 1029.78,-129.74 1038.7,-135.47 1040.32,-128.66"/>
</a>
</g>
</g>
<!-- Node21&#45;&gt;Node17 -->
<g id="edge35_Node000021_Node000017" class="edge">
<title>Node21&#45;&gt;Node17</title>
<g id="a_edge35_Node000021_Node000017"><a xlink:title=" ">
<path fill="none" stroke="#63b8ff" d="M1200.16,-165.3C1171.59,-154.91 1133.95,-141.23 1108.17,-131.86"/>
<polygon fill="#63b8ff" stroke="#63b8ff" points="1109.59,-128.66 1099,-128.53 1107.2,-135.23 1109.59,-128.66"/>
</a>
</g>
</g>
<!-- Node22&#45;&gt;Node4 -->
<g id="edge41_Node000022_Node000004" class="edge">
<title>Node22&#45;&gt;Node4</title>
<g id="a_edge41_Node000022_Node000004"><a xlink:title=" ">
<path fill="none" stroke="#63b8ff" d="M189.54,-171.31C192.57,-158.01 198.92,-131.92 206.62,-110.5 217,-81.63 232.17,-49.48 241.97,-29.65"/>
<polygon fill="#63b8ff" stroke="#63b8ff" points="245.02,-31.38 246.37,-20.87 238.76,-28.25 245.02,-31.38"/>
</a>
</g>
</g>
<!-- Node22&#45;&gt;Node10 -->
<g id="edge39_Node000022_Node000010" class="edge">
<title>Node22&#45;&gt;Node10</title>
<g id="a_edge39_Node000022_Node000010"><a xlink:title=" ">
<path fill="none" stroke="#63b8ff" d="M220.56,-170.94C228.7,-168.97 237.44,-167.08 245.62,-165.75 420.58,-137.29 630.18,-126.62 731.25,-122.92"/>
<polygon fill="#63b8ff" stroke="#63b8ff" points="731.35,-126.42 741.22,-122.56 731.11,-119.42 731.35,-126.42"/>
</a>
</g>
</g>
<!-- Node23 -->
<g id="Node000023" class="node">
<title>Node23</title>
<g id="a_Node000023"><a xlink:title=" ">
<polygon fill="#e0e0e0" stroke="#999999" points="259.5,-129.75 215.75,-129.75 215.75,-110.5 259.5,-110.5 259.5,-129.75"/>
<text text-anchor="middle" x="237.62" y="-116.25" font-family="Helvetica,sans-Serif" font-size="10.00">format</text>
</a>
</g>
</g>
<!-- Node22&#45;&gt;Node23 -->
<g id="edge40_Node000022_Node000023" class="edge">
<title>Node22&#45;&gt;Node23</title>
<g id="a_edge40_Node000022_Node000023"><a xlink:title=" ">
<path fill="none" stroke="#63b8ff" d="M195.22,-171.06C202.49,-162.5 213.65,-149.35 222.7,-138.7"/>
<polygon fill="#63b8ff" stroke="#63b8ff" points="225.17,-141.19 228.98,-131.3 219.84,-136.66 225.17,-141.19"/>
</a>
</g>
</g>
<!-- Node25 -->
<g id="Node000025" class="node">
<title>Node25</title>
<g id="a_Node000025"><a xlink:title=" ">
<polygon fill="#e0e0e0" stroke="#999999" points="289,-190.62 254.25,-190.62 254.25,-171.38 289,-171.38 289,-190.62"/>
<text text-anchor="middle" x="271.62" y="-177.12" font-family="Helvetica,sans-Serif" font-size="10.00">print</text>
</a>
</g>
</g>
<!-- Node24&#45;&gt;Node25 -->
<g id="edge43_Node000024_Node000025" class="edge">
<title>Node24&#45;&gt;Node25</title>
<g id="a_edge43_Node000024_Node000025"><a xlink:title=" ">
<path fill="none" stroke="#63b8ff" d="M281.8,-231.93C280.2,-224.07 277.81,-212.32 275.74,-202.2"/>
<polygon fill="#63b8ff" stroke="#63b8ff" points="279.19,-201.61 273.77,-192.51 272.33,-203.01 279.19,-201.61"/>
</a>
</g>
</g>
</g>
</svg>

<g id="navigator" transform="translate(0 0)" fill="#404254">
  <rect fill="#f2f5e9" fill-opacity="0.5" stroke="#606060" stroke-width=".5" x="0" y="0" width="60" height="60"/>
  <use id="zoomplus" xlink:href="#zoomPlus" x="17" y="9" onmousedown="handleZoom(evt,'in')"/>
  <use id="zoomminus" xlink:href="#zoomMin" x="42" y="9" onmousedown="handleZoom(evt,'out')"/>
  <use id="reset" xlink:href="#resetDef" x="30" y="36" onmousedown="handleReset()"/>
   <use id="arrowup" xlink:href="#arrowUp" x="0" y="0" onmousedown="handlePan(0,-1)"/>
  <use id="arrowright" xlink:href="#arrowRight" x="0" y="0" onmousedown="handlePan(1,0)"/>
  <use id="arrowdown" xlink:href="#arrowDown" x="0" y="0" onmousedown="handlePan(0,1)"/>
  <use id="arrowleft" xlink:href="#arrowLeft" x="0" y="0" onmousedown="handlePan(-1,0)"/>
</g>
<svg viewBox="0 0 15 15" width="100%" height="30px" preserveAspectRatio="xMaxYMin meet">
 <g id="arrow_out" transform="scale(0.3 0.3)">
  <a xlink:href="update__linalg__xx0_8cpp__incl_org.svg" target="_base">
   <rect id="button" ry="5" rx="5" y="6" x="6" height="38" width="38"
        fill="#f2f5e9" fill-opacity="0.5" stroke="#606060" stroke-width="1.0"/>
   <path id="arrow"
     d="M 11.500037,31.436501 C 11.940474,20.09759 22.043105,11.32322 32.158766,21.979434 L 37.068811,17.246167 C 37.068811,17.246167 37.088388,32 37.088388,32 L 22.160133,31.978069 C 22.160133,31.978069 26.997745,27.140456 26.997745,27.140456 C 18.528582,18.264221 13.291696,25.230495 11.500037,31.436501 z"
     style="fill:#404040;"/>
  </a>
 </g>
</svg>

<style type='text/css'>
<![CDATA[
[data-mouse-over-selected='false'] { opacity: 0.7; }
[data-mouse-over-selected='true']  { opacity: 1.0; }
]]>
</style>
<script type="application/ecmascript"><![CDATA[
document.addEventListener('DOMContentLoaded', (event) => {
  highlightEdges();
  highlightAdjacentNodes();
});
]]></script>
</svg>
