<?xml version="1.0" encoding="UTF-8" standalone="no"?>
<!DOCTYPE svg PUBLIC "-//W3C//DTD SVG 1.1//EN"
 "http://www.w3.org/Graphics/SVG/1.1/DTD/svg11.dtd">
<!-- Generated by graphviz version 12.2.0 (20241103.1931)
 -->
<!-- Title: /github/workspace/benchmark/update_linalg_xx0.cpp Pages: 1 -->
<!--zoomable 326 -->

<svg id="main" version="1.1" xmlns="http://www.w3.org/2000/svg" xmlns:xlink="http://www.w3.org/1999/xlink" xml:space="preserve" onload="init(evt)">

<style type="text/css"><![CDATA[
.node, .edge {opacity: 0.7;}
.node.selected, .edge.selected {opacity: 1;}
.edge:hover path { stroke: red; }
.edge:hover polygon { stroke: red; fill: red; }
]]></style>

<defs>
  <circle id="rim" cx="0" cy="0" r="7"/>
  <circle id="rim2" cx="0" cy="0" r="3.5"/>
  <g id="zoomPlus">
    <use xlink:href="#rim" fill="#404040"><set attributeName="fill" to="#808080" begin="zoomplus.mouseover" end="zoomplus.mouseout"/></use>
    <path d="M-4,0h8M0,-4v8" fill="none" stroke="white" stroke-width="1.5" pointer-events="none"/>
  </g>
  <g id="zoomMin">
    <use xlink:href="#rim" fill="#404040"><set attributeName="fill" to="#808080" begin="zoomminus.mouseover" end="zoomminus.mouseout"/></use>
    <path d="M-4,0h8" fill="none" stroke="white" stroke-width="1.5" pointer-events="none"/>
  </g>
  <g id="arrowUp" transform="translate(30 24)">
    <use xlink:href="#rim"/>
    <path pointer-events="none" fill="none" stroke="white" stroke-width="1.5" d="M0,-3.0v7 M-2.5,-0.5L0,-3.0L2.5,-0.5"/>
  </g>
  <g id="arrowRight" transform="rotate(90) translate(36 -43)">
    <use xlink:href="#rim"/>
    <path pointer-events="none" fill="none" stroke="white" stroke-width="1.5" d="M0,-3.0v7 M-2.5,-0.5L0,-3.0L2.5,-0.5"/>
  </g>
  <g id="arrowDown" transform="rotate(180) translate(-30 -48)">
    <use xlink:href="#rim"/>
    <path pointer-events="none" fill="none" stroke="white" stroke-width="1.5" d="M0,-3.0v7 M-2.5,-0.5L0,-3.0L2.5,-0.5"/>
  </g>
  <g id="arrowLeft" transform="rotate(270) translate(-36 17)">
    <use xlink:href="#rim"/>
    <path pointer-events="none" fill="none" stroke="white" stroke-width="1.5" d="M0,-3.0v7 M-2.5,-0.5L0,-3.0L2.5,-0.5"/>
  </g>
  <g id="resetDef">
    <use xlink:href="#rim2" fill="#404040"><set attributeName="fill" to="#808080" begin="reset.mouseover" end="reset.mouseout"/></use>
  </g>
</defs>
<script type="application/ecmascript">
var viewWidth = 2298;
var viewHeight = 326;
var sectionId = 'dynsection-0';
</script>
<script type="application/ecmascript" xlink:href="svg.min.js"/>
<svg id="graph" class="graph">
<g id="viewport">
<title>/github/workspace/benchmark/update_linalg_xx0.cpp</title>
<!-- Node1 -->
<g id="Node000001" class="node">
<title>Node1</title>
<g id="a_Node000001"><a xlink:title=" ">
<polygon fill="#999999" stroke="#666666" points="1910.88,-318 1764.38,-318 1764.38,-287.5 1910.88,-287.5 1910.88,-318"/>
<text text-anchor="start" x="1772.38" y="-304.5" font-family="Helvetica,sans-Serif" font-size="10.00">/github/workspace/benchmark</text>
<text text-anchor="middle" x="1837.62" y="-293.25" font-family="Helvetica,sans-Serif" font-size="10.00">/update_linalg_xx0.cpp</text>
</a>
</g>
</g>
<!-- Node2 -->
<g id="Node000002" class="node">
<title>Node2</title>
<g id="a_Node000002"><a xlink:href="benchmark_8hpp.xhtml" target="_top" xlink:title="Benchmarking support.">
<polygon fill="white" stroke="#666666" points="132.62,-251.5 50.62,-251.5 50.62,-232.25 132.62,-232.25 132.62,-251.5"/>
<text text-anchor="middle" x="91.62" y="-238" font-family="Helvetica,sans-Serif" font-size="10.00">benchmark.hpp</text>
</a>
</g>
</g>
<!-- Node1&#45;&gt;Node2 -->
<g id="edge1_Node000001_Node000002" class="edge">
<title>Node1&#45;&gt;Node2</title>
<g id="a_edge1_Node000001_Node000002"><a xlink:title=" ">
<path fill="none" stroke="#63b8ff" d="M1763.99,-299.27C1471.46,-289.4 395.13,-253.11 144.17,-244.65"/>
<polygon fill="#63b8ff" stroke="#63b8ff" points="144.48,-241.16 134.37,-244.32 144.24,-248.15 144.48,-241.16"/>
</a>
</g>
</g>
<!-- Node3 -->
<g id="Node000003" class="node">
<title>Node3</title>
<g id="a_Node000003"><a xlink:title=" ">
<polygon fill="#e0e0e0" stroke="#999999" points="45.25,-196.25 0,-196.25 0,-177 45.25,-177 45.25,-196.25"/>
<text text-anchor="middle" x="22.62" y="-182.75" font-family="Helvetica,sans-Serif" font-size="10.00">chrono</text>
</a>
</g>
</g>
<!-- Node1&#45;&gt;Node3 -->
<g id="edge63_Node000001_Node000003" class="edge">
<title>Node1&#45;&gt;Node3</title>
<g id="a_edge63_Node000001_Node000003"><a xlink:title=" ">
<path fill="none" stroke="#63b8ff" d="M1763.98,-302.08C1434.74,-303.27 110.92,-304.71 41.62,-251.5 28.42,-241.36 24.06,-222.45 22.77,-207.82"/>
<polygon fill="#63b8ff" stroke="#63b8ff" points="26.27,-207.75 22.35,-197.91 19.28,-208.05 26.27,-207.75"/>
</a>
</g>
</g>
<!-- Node5 -->
<g id="Node000005" class="node">
<title>Node5</title>
<g id="a_Node000005"><a xlink:href="kalman_8hpp.xhtml" target="_top" xlink:title="The Kalman filter class and library top&#45;level header.">
<polygon fill="white" stroke="#666666" points="1631.62,-251.5 1525.62,-251.5 1525.62,-232.25 1631.62,-232.25 1631.62,-251.5"/>
<text text-anchor="middle" x="1578.62" y="-238" font-family="Helvetica,sans-Serif" font-size="10.00">fcarouge/kalman.hpp</text>
</a>
</g>
</g>
<!-- Node1&#45;&gt;Node5 -->
<g id="edge4_Node000001_Node000005" class="edge">
<title>Node1&#45;&gt;Node5</title>
<g id="a_edge4_Node000001_Node000005"><a xlink:title=" ">
<path fill="none" stroke="#63b8ff" d="M1772.94,-287.05C1728.7,-276.99 1670.87,-263.84 1629.83,-254.51"/>
<polygon fill="#63b8ff" stroke="#63b8ff" points="1630.73,-251.13 1620.2,-252.33 1629.18,-257.96 1630.73,-251.13"/>
</a>
</g>
</g>
<!-- Node9 -->
<g id="Node000009" class="node">
<title>Node9</title>
<g id="a_Node000009"><a xlink:href="utility_8hpp.xhtml" target="_top" xlink:title=" ">
<polygon fill="white" stroke="#666666" points="975.88,-74.5 919.38,-74.5 919.38,-55.25 975.88,-55.25 975.88,-74.5"/>
<text text-anchor="middle" x="947.62" y="-61" font-family="Helvetica,sans-Serif" font-size="10.00">utility.hpp</text>
</a>
</g>
</g>
<!-- Node1&#45;&gt;Node9 -->
<g id="edge59_Node000001_Node000009" class="edge">
<title>Node1&#45;&gt;Node9</title>
<g id="a_edge59_Node000001_Node000009"><a xlink:title=" ">
<path fill="none" stroke="#63b8ff" d="M1763.99,-293.6C1698.51,-285.56 1600.42,-271.54 1516.62,-251.5 1439.36,-233.02 1409.91,-244.28 1346.62,-196.25 1310.17,-168.58 1328.47,-134.69 1289.62,-110.5 1239.95,-79.57 1066.75,-69.85 987.62,-66.99"/>
<polygon fill="#63b8ff" stroke="#63b8ff" points="987.83,-63.5 977.72,-66.65 987.59,-70.49 987.83,-63.5"/>
</a>
</g>
</g>
<!-- Node11 -->
<g id="Node000011" class="node">
<title>Node11</title>
<g id="a_Node000011"><a xlink:title=" ">
<polygon fill="#e0e0e0" stroke="#999999" points="1632.75,-19.25 1584.5,-19.25 1584.5,0 1632.75,0 1632.75,-19.25"/>
<text text-anchor="middle" x="1608.62" y="-5.75" font-family="Helvetica,sans-Serif" font-size="10.00">cstddef</text>
</a>
</g>
</g>
<!-- Node1&#45;&gt;Node11 -->
<g id="edge65_Node000001_Node000011" class="edge">
<title>Node1&#45;&gt;Node11</title>
<g id="a_edge65_Node000001_Node000011"><a xlink:title=" ">
<path fill="none" stroke="#63b8ff" d="M1776.14,-287.07C1755.01,-279.44 1732.67,-268.1 1716.62,-251.5 1692.04,-226.06 1701.92,-209.78 1688.62,-177 1676.5,-147.12 1673.41,-139.65 1659.62,-110.5 1646.14,-81.97 1629.28,-49.53 1618.73,-29.57"/>
<polygon fill="#63b8ff" stroke="#63b8ff" points="1621.94,-28.15 1614.16,-20.96 1615.76,-31.43 1621.94,-28.15"/>
</a>
</g>
</g>
<!-- Node31 -->
<g id="Node000031" class="node">
<title>Node31</title>
<g id="a_Node000031"><a xlink:title=" ">
<polygon fill="#e0e0e0" stroke="#999999" points="1822.12,-251.5 1725.12,-251.5 1725.12,-232.25 1822.12,-232.25 1822.12,-251.5"/>
<text text-anchor="middle" x="1773.62" y="-238" font-family="Helvetica,sans-Serif" font-size="10.00">fcarouge/linalg.hpp</text>
</a>
</g>
</g>
<!-- Node1&#45;&gt;Node31 -->
<g id="edge60_Node000001_Node000031" class="edge">
<title>Node1&#45;&gt;Node31</title>
<g id="a_edge60_Node000001_Node000031"><a xlink:title=" ">
<path fill="none" stroke="#63b8ff" d="M1821.8,-287.2C1812.72,-278.84 1801.26,-268.3 1791.81,-259.6"/>
<polygon fill="#63b8ff" stroke="#63b8ff" points="1794.33,-257.17 1784.61,-252.98 1789.6,-262.32 1794.33,-257.17"/>
</a>
</g>
</g>
<!-- Node32 -->
<g id="Node000032" class="node">
<title>Node32</title>
<g id="a_Node000032"><a xlink:title=" ">
<polygon fill="#e0e0e0" stroke="#999999" points="1962.88,-251.5 1840.38,-251.5 1840.38,-232.25 1962.88,-232.25 1962.88,-251.5"/>
<text text-anchor="middle" x="1901.62" y="-238" font-family="Helvetica,sans-Serif" font-size="10.00">benchmark/benchmark.h</text>
</a>
</g>
</g>
<!-- Node1&#45;&gt;Node32 -->
<g id="edge61_Node000001_Node000032" class="edge">
<title>Node1&#45;&gt;Node32</title>
<g id="a_edge61_Node000001_Node000032"><a xlink:title=" ">
<path fill="none" stroke="#63b8ff" d="M1853.45,-287.2C1862.53,-278.84 1873.99,-268.3 1883.44,-259.6"/>
<polygon fill="#63b8ff" stroke="#63b8ff" points="1885.65,-262.32 1890.64,-252.98 1880.92,-257.17 1885.65,-262.32"/>
</a>
</g>
</g>
<!-- Node33 -->
<g id="Node000033" class="node">
<title>Node33</title>
<g id="a_Node000033"><a xlink:title=" ">
<polygon fill="#e0e0e0" stroke="#999999" points="2036.5,-251.5 1980.75,-251.5 1980.75,-232.25 2036.5,-232.25 2036.5,-251.5"/>
<text text-anchor="middle" x="2008.62" y="-238" font-family="Helvetica,sans-Serif" font-size="10.00">algorithm</text>
</a>
</g>
</g>
<!-- Node1&#45;&gt;Node33 -->
<g id="edge62_Node000001_Node000033" class="edge">
<title>Node1&#45;&gt;Node33</title>
<g id="a_edge62_Node000001_Node000033"><a xlink:title=" ">
<path fill="none" stroke="#63b8ff" d="M1880.33,-287.05C1908.29,-277.42 1944.48,-264.96 1971.28,-255.73"/>
<polygon fill="#63b8ff" stroke="#63b8ff" points="1972.4,-259.05 1980.72,-252.48 1970.12,-252.43 1972.4,-259.05"/>
</a>
</g>
</g>
<!-- Node34 -->
<g id="Node000034" class="node">
<title>Node34</title>
<g id="a_Node000034"><a xlink:title=" ">
<polygon fill="#e0e0e0" stroke="#999999" points="2097.12,-251.5 2054.12,-251.5 2054.12,-232.25 2097.12,-232.25 2097.12,-251.5"/>
<text text-anchor="middle" x="2075.62" y="-238" font-family="Helvetica,sans-Serif" font-size="10.00">cmath</text>
</a>
</g>
</g>
<!-- Node1&#45;&gt;Node34 -->
<g id="edge64_Node000001_Node000034" class="edge">
<title>Node1&#45;&gt;Node34</title>
<g id="a_edge64_Node000001_Node000034"><a xlink:title=" ">
<path fill="none" stroke="#63b8ff" d="M1901.53,-287.06C1940.11,-278.02 1990.5,-265.91 2042.85,-252.16"/>
<polygon fill="#63b8ff" stroke="#63b8ff" points="2043.46,-255.62 2052.24,-249.68 2041.67,-248.85 2043.46,-255.62"/>
</a>
</g>
</g>
<!-- Node35 -->
<g id="Node000035" class="node">
<title>Node35</title>
<g id="a_Node000035"><a xlink:title=" ">
<polygon fill="#e0e0e0" stroke="#999999" points="2160.25,-251.5 2115,-251.5 2115,-232.25 2160.25,-232.25 2160.25,-251.5"/>
<text text-anchor="middle" x="2137.62" y="-238" font-family="Helvetica,sans-Serif" font-size="10.00">cstdint</text>
</a>
</g>
</g>
<!-- Node1&#45;&gt;Node35 -->
<g id="edge66_Node000001_Node000035" class="edge">
<title>Node1&#45;&gt;Node35</title>
<g id="a_edge66_Node000001_Node000035"><a xlink:title=" ">
<path fill="none" stroke="#63b8ff" d="M1911.34,-289.75C1962.95,-280.95 2033.71,-268.06 2103.86,-252"/>
<polygon fill="#63b8ff" stroke="#63b8ff" points="2104.23,-255.51 2113.18,-249.84 2102.65,-248.69 2104.23,-255.51"/>
</a>
</g>
</g>
<!-- Node36 -->
<g id="Node000036" class="node">
<title>Node36</title>
<g id="a_Node000036"><a xlink:title=" ">
<polygon fill="#e0e0e0" stroke="#999999" points="2223.25,-251.5 2178,-251.5 2178,-232.25 2223.25,-232.25 2223.25,-251.5"/>
<text text-anchor="middle" x="2200.62" y="-238" font-family="Helvetica,sans-Serif" font-size="10.00">cstring</text>
</a>
</g>
</g>
<!-- Node1&#45;&gt;Node36 -->
<g id="edge67_Node000001_Node000036" class="edge">
<title>Node1&#45;&gt;Node36</title>
<g id="a_edge67_Node000001_Node000036"><a xlink:title=" ">
<path fill="none" stroke="#63b8ff" d="M1911.28,-293.2C1976.29,-285.07 2073.78,-271.43 2166.67,-251.94"/>
<polygon fill="#63b8ff" stroke="#63b8ff" points="2167.15,-255.41 2176.2,-249.91 2165.69,-248.57 2167.15,-255.41"/>
</a>
</g>
</g>
<!-- Node37 -->
<g id="Node000037" class="node">
<title>Node37</title>
<g id="a_Node000037"><a xlink:title=" ">
<polygon fill="#e0e0e0" stroke="#999999" points="2289.75,-251.5 2241.5,-251.5 2241.5,-232.25 2289.75,-232.25 2289.75,-251.5"/>
<text text-anchor="middle" x="2265.62" y="-238" font-family="Helvetica,sans-Serif" font-size="10.00">random</text>
</a>
</g>
</g>
<!-- Node1&#45;&gt;Node37 -->
<g id="edge68_Node000001_Node000037" class="edge">
<title>Node1&#45;&gt;Node37</title>
<g id="a_edge68_Node000001_Node000037"><a xlink:title=" ">
<path fill="none" stroke="#63b8ff" d="M1911.24,-295.25C1988.42,-287.8 2113.38,-273.9 2229.94,-251.8"/>
<polygon fill="#63b8ff" stroke="#63b8ff" points="2230.55,-255.25 2239.71,-249.92 2229.23,-248.37 2230.55,-255.25"/>
</a>
</g>
</g>
<!-- Node2&#45;&gt;Node3 -->
<g id="edge2_Node000002_Node000003" class="edge">
<title>Node2&#45;&gt;Node3</title>
<g id="a_edge2_Node000002_Node000003"><a xlink:title=" ">
<path fill="none" stroke="#63b8ff" d="M79.92,-231.84C69.85,-224.07 55.08,-212.67 43.06,-203.4"/>
<polygon fill="#63b8ff" stroke="#63b8ff" points="45.41,-200.79 35.36,-197.45 41.13,-206.33 45.41,-200.79"/>
</a>
</g>
</g>
<!-- Node4 -->
<g id="Node000004" class="node">
<title>Node4</title>
<g id="a_Node000004"><a xlink:title=" ">
<polygon fill="#e0e0e0" stroke="#999999" points="206.12,-19.25 145.12,-19.25 145.12,0 206.12,0 206.12,-19.25"/>
<text text-anchor="middle" x="175.62" y="-5.75" font-family="Helvetica,sans-Serif" font-size="10.00">type_traits</text>
</a>
</g>
</g>
<!-- Node2&#45;&gt;Node4 -->
<g id="edge3_Node000002_Node000004" class="edge">
<title>Node2&#45;&gt;Node4</title>
<g id="a_edge3_Node000002_Node000004"><a xlink:title=" ">
<path fill="none" stroke="#63b8ff" d="M90.79,-232.01C88.58,-203.95 84.9,-115.36 119.62,-55.25 126.53,-43.3 137.98,-33.32 148.73,-25.85"/>
<polygon fill="#63b8ff" stroke="#63b8ff" points="150.47,-28.89 156.98,-20.53 146.68,-23.01 150.47,-28.89"/>
</a>
</g>
</g>
<!-- Node6 -->
<g id="Node000006" class="node">
<title>Node6</title>
<g id="a_Node000006"><a xlink:href="kalman__forward_8hpp.xhtml" target="_top" xlink:title="Authoritative forward declaration header.">
<polygon fill="white" stroke="#666666" points="1630.12,-196.25 1527.12,-196.25 1527.12,-177 1630.12,-177 1630.12,-196.25"/>
<text text-anchor="middle" x="1578.62" y="-182.75" font-family="Helvetica,sans-Serif" font-size="10.00">kalman_forward.hpp</text>
</a>
</g>
</g>
<!-- Node5&#45;&gt;Node6 -->
<g id="edge5_Node000005_Node000006" class="edge">
<title>Node5&#45;&gt;Node6</title>
<g id="a_edge5_Node000005_Node000006"><a xlink:title=" ">
<path fill="none" stroke="#63b8ff" d="M1578.62,-232.08C1578.62,-225.57 1578.62,-216.42 1578.62,-208.12"/>
<polygon fill="#63b8ff" stroke="#63b8ff" points="1582.13,-208.12 1578.63,-198.12 1575.13,-208.12 1582.13,-208.12"/>
</a>
</g>
</g>
<!-- Node7 -->
<g id="Node000007" class="node">
<title>Node7</title>
<g id="a_Node000007"><a xlink:href="factory_8hpp.xhtml" target="_top" xlink:title=" ">
<polygon fill="white" stroke="#666666" points="792.88,-196.25 658.38,-196.25 658.38,-177 792.88,-177 792.88,-196.25"/>
<text text-anchor="middle" x="725.62" y="-182.75" font-family="Helvetica,sans-Serif" font-size="10.00">kalman_internal/factory.hpp</text>
</a>
</g>
</g>
<!-- Node5&#45;&gt;Node7 -->
<g id="edge6_Node000005_Node000007" class="edge">
<title>Node5&#45;&gt;Node7</title>
<g id="a_edge6_Node000005_Node000007"><a xlink:title=" ">
<path fill="none" stroke="#63b8ff" d="M1525.27,-237.54C1379.89,-228.47 976.23,-203.27 804.54,-192.55"/>
<polygon fill="#63b8ff" stroke="#63b8ff" points="804.79,-189.06 794.59,-191.93 804.36,-196.05 804.79,-189.06"/>
</a>
</g>
</g>
<!-- Node5&#45;&gt;Node9 -->
<g id="edge57_Node000005_Node000009" class="edge">
<title>Node5&#45;&gt;Node9</title>
<g id="a_edge57_Node000005_Node000009"><a xlink:title=" ">
<path fill="none" stroke="#63b8ff" d="M1525.13,-235.02C1470.44,-228.11 1390.13,-215.12 1365.62,-196.25 1331.85,-170.24 1357.52,-135 1322.62,-110.5 1269.33,-73.08 1072.93,-66.86 987.62,-65.96"/>
<polygon fill="#63b8ff" stroke="#63b8ff" points="987.89,-62.46 977.86,-65.87 987.83,-69.46 987.89,-62.46"/>
</a>
</g>
</g>
<!-- Node26 -->
<g id="Node000026" class="node">
<title>Node26</title>
<g id="a_Node000026"><a xlink:href="format_8hpp.xhtml" target="_top" xlink:title="Formatting support for the Kalman filter.">
<polygon fill="white" stroke="#666666" points="1650.12,-135.38 1517.12,-135.38 1517.12,-116.12 1650.12,-116.12 1650.12,-135.38"/>
<text text-anchor="middle" x="1583.62" y="-121.88" font-family="Helvetica,sans-Serif" font-size="10.00">kalman_internal/format.hpp</text>
</a>
</g>
</g>
<!-- Node5&#45;&gt;Node26 -->
<g id="edge48_Node000005_Node000026" class="edge">
<title>Node5&#45;&gt;Node26</title>
<g id="a_edge48_Node000005_Node000026"><a xlink:title=" ">
<path fill="none" stroke="#63b8ff" d="M1620.7,-231.82C1640.02,-225.34 1661.14,-214.42 1672.62,-196.25 1688.37,-171.35 1654.96,-151.73 1624.68,-139.78"/>
<polygon fill="#63b8ff" stroke="#63b8ff" points="1626.2,-136.61 1615.6,-136.4 1623.75,-143.17 1626.2,-136.61"/>
</a>
</g>
</g>
<!-- Node28 -->
<g id="Node000028" class="node">
<title>Node28</title>
<g id="a_Node000028"><a xlink:href="print_8hpp.xhtml" target="_top" xlink:title=" ">
<polygon fill="white" stroke="#666666" points="1498.62,-135.38 1374.62,-135.38 1374.62,-116.12 1498.62,-116.12 1498.62,-135.38"/>
<text text-anchor="middle" x="1436.62" y="-121.88" font-family="Helvetica,sans-Serif" font-size="10.00">kalman_internal/print.hpp</text>
</a>
</g>
</g>
<!-- Node5&#45;&gt;Node28 -->
<g id="edge53_Node000005_Node000028" class="edge">
<title>Node5&#45;&gt;Node28</title>
<g id="a_edge53_Node000005_Node000028"><a xlink:title=" ">
<path fill="none" stroke="#63b8ff" d="M1598.45,-231.88C1621.98,-219.97 1656.07,-198.01 1639.62,-177 1634.91,-170.97 1548.32,-151.08 1489.77,-138.21"/>
<polygon fill="#63b8ff" stroke="#63b8ff" points="1490.82,-134.86 1480.31,-136.14 1489.33,-141.69 1490.82,-134.86"/>
</a>
</g>
</g>
<!-- Node30 -->
<g id="Node000030" class="node">
<title>Node30</title>
<g id="a_Node000030"><a xlink:title=" ">
<polygon fill="#e0e0e0" stroke="#999999" points="1508.88,-196.25 1374.38,-196.25 1374.38,-177 1508.88,-177 1508.88,-196.25"/>
<text text-anchor="middle" x="1441.62" y="-182.75" font-family="Helvetica,sans-Serif" font-size="10.00">kalman_internal/kalman.tpp</text>
</a>
</g>
</g>
<!-- Node5&#45;&gt;Node30 -->
<g id="edge58_Node000005_Node000030" class="edge">
<title>Node5&#45;&gt;Node30</title>
<g id="a_edge58_Node000005_Node000030"><a xlink:title=" ">
<path fill="none" stroke="#63b8ff" d="M1555.38,-231.84C1533.44,-223.31 1500.28,-210.42 1475.41,-200.76"/>
<polygon fill="#63b8ff" stroke="#63b8ff" points="1476.98,-197.61 1466.39,-197.25 1474.44,-204.14 1476.98,-197.61"/>
</a>
</g>
</g>
<!-- Node7&#45;&gt;Node4 -->
<g id="edge47_Node000007_Node000004" class="edge">
<title>Node7&#45;&gt;Node4</title>
<g id="a_edge47_Node000007_Node000004"><a xlink:title=" ">
<path fill="none" stroke="#63b8ff" d="M657.88,-185.11C511.9,-183.36 177.81,-175.56 140.62,-141 112.52,-114.88 115.87,-90.67 130.62,-55.25 135.27,-44.09 144.22,-34.3 152.92,-26.74"/>
<polygon fill="#63b8ff" stroke="#63b8ff" points="154.89,-29.65 160.52,-20.67 150.52,-24.18 154.89,-29.65"/>
</a>
</g>
</g>
<!-- Node8 -->
<g id="Node000008" class="node">
<title>Node8</title>
<g id="a_Node000008"><a xlink:href="type_8hpp.xhtml" target="_top" xlink:title=" ">
<polygon fill="white" stroke="#666666" points="201.62,-135.38 149.62,-135.38 149.62,-116.12 201.62,-116.12 201.62,-135.38"/>
<text text-anchor="middle" x="175.62" y="-121.88" font-family="Helvetica,sans-Serif" font-size="10.00">type.hpp</text>
</a>
</g>
</g>
<!-- Node7&#45;&gt;Node8 -->
<g id="edge7_Node000007_Node000008" class="edge">
<title>Node7&#45;&gt;Node8</title>
<g id="a_edge7_Node000007_Node000008"><a xlink:title=" ">
<path fill="none" stroke="#63b8ff" d="M657.98,-185.16C559.52,-183.26 371.5,-175 215.62,-141 213.32,-140.5 210.96,-139.9 208.61,-139.23"/>
<polygon fill="#63b8ff" stroke="#63b8ff" points="209.79,-135.94 199.2,-136.23 207.66,-142.6 209.79,-135.94"/>
</a>
</g>
</g>
<!-- Node10 -->
<g id="Node000010" class="node">
<title>Node10</title>
<g id="a_Node000010"><a xlink:title=" ">
<polygon fill="#e0e0e0" stroke="#999999" points="942.5,-19.25 886.75,-19.25 886.75,0 942.5,0 942.5,-19.25"/>
<text text-anchor="middle" x="914.62" y="-5.75" font-family="Helvetica,sans-Serif" font-size="10.00">concepts</text>
</a>
</g>
</g>
<!-- Node7&#45;&gt;Node10 -->
<g id="edge45_Node000007_Node000010" class="edge">
<title>Node7&#45;&gt;Node10</title>
<g id="a_edge45_Node000007_Node000010"><a xlink:title=" ">
<path fill="none" stroke="#63b8ff" d="M790.64,-176.56C815.71,-170.2 843.01,-159.39 862.62,-141 894.39,-111.23 907.14,-59.52 911.95,-30.99"/>
<polygon fill="#63b8ff" stroke="#63b8ff" points="915.4,-31.58 913.42,-21.17 908.48,-30.54 915.4,-31.58"/>
</a>
</g>
</g>
<!-- Node12 -->
<g id="Node000012" class="node">
<title>Node12</title>
<g id="a_Node000012"><a xlink:title=" ">
<polygon fill="#e0e0e0" stroke="#999999" points="654.12,-19.25 617.12,-19.25 617.12,0 654.12,0 654.12,-19.25"/>
<text text-anchor="middle" x="635.62" y="-5.75" font-family="Helvetica,sans-Serif" font-size="10.00">tuple</text>
</a>
</g>
</g>
<!-- Node7&#45;&gt;Node12 -->
<g id="edge46_Node000007_Node000012" class="edge">
<title>Node7&#45;&gt;Node12</title>
<g id="a_edge46_Node000007_Node000012"><a xlink:title=" ">
<path fill="none" stroke="#63b8ff" d="M658.09,-184.24C533.04,-180.97 275.65,-170.67 248.62,-141 239.5,-130.98 240.69,-121.49 248.62,-110.5 270.02,-80.89 518.11,-32.41 605.44,-16.14"/>
<polygon fill="#63b8ff" stroke="#63b8ff" points="605.97,-19.6 615.17,-14.34 604.7,-12.72 605.97,-19.6"/>
</a>
</g>
</g>
<!-- Node15 -->
<g id="Node000015" class="node">
<title>Node15</title>
<g id="a_Node000015"><a xlink:href="x__z__p__q__r_8hpp.xhtml" target="_top" xlink:title=" ">
<polygon fill="white" stroke="#666666" points="1080.38,-135.38 1002.88,-135.38 1002.88,-116.12 1080.38,-116.12 1080.38,-135.38"/>
<text text-anchor="middle" x="1041.62" y="-121.88" font-family="Helvetica,sans-Serif" font-size="10.00">x_z_p_q_r.hpp</text>
</a>
</g>
</g>
<!-- Node7&#45;&gt;Node15 -->
<g id="edge16_Node000007_Node000015" class="edge">
<title>Node7&#45;&gt;Node15</title>
<g id="a_edge16_Node000007_Node000015"><a xlink:title=" ">
<path fill="none" stroke="#63b8ff" d="M793.26,-176.89C847.95,-169.23 926.74,-156.85 994.62,-141 997.39,-140.36 1000.22,-139.64 1003.07,-138.88"/>
<polygon fill="#63b8ff" stroke="#63b8ff" points="1003.83,-142.3 1012.5,-136.21 1001.92,-135.56 1003.83,-142.3"/>
</a>
</g>
</g>
<!-- Node16 -->
<g id="Node000016" class="node">
<title>Node16</title>
<g id="a_Node000016"><a xlink:href="x__z__p__q__r__h__f_8hpp.xhtml" target="_top" xlink:title=" ">
<polygon fill="white" stroke="#666666" points="1194.75,-135.38 1098.5,-135.38 1098.5,-116.12 1194.75,-116.12 1194.75,-135.38"/>
<text text-anchor="middle" x="1146.62" y="-121.88" font-family="Helvetica,sans-Serif" font-size="10.00">x_z_p_q_r_h_f.hpp</text>
</a>
</g>
</g>
<!-- Node7&#45;&gt;Node16 -->
<g id="edge18_Node000007_Node000016" class="edge">
<title>Node7&#45;&gt;Node16</title>
<g id="a_edge18_Node000007_Node000016"><a xlink:title=" ">
<path fill="none" stroke="#63b8ff" d="M793.09,-179.86C866.45,-173.01 986.96,-160.05 1089.62,-141 1093.73,-140.24 1097.97,-139.36 1102.21,-138.41"/>
<polygon fill="#63b8ff" stroke="#63b8ff" points="1102.91,-141.84 1111.85,-136.15 1101.31,-135.03 1102.91,-141.84"/>
</a>
</g>
</g>
<!-- Node17 -->
<g id="Node000017" class="node">
<title>Node17</title>
<g id="a_Node000017"><a xlink:href="x__z__p__q__r__hh__us__ps_8hpp.xhtml" target="_top" xlink:title=" ">
<polygon fill="white" stroke="#666666" points="854,-135.38 729.25,-135.38 729.25,-116.12 854,-116.12 854,-135.38"/>
<text text-anchor="middle" x="791.62" y="-121.88" font-family="Helvetica,sans-Serif" font-size="10.00">x_z_p_q_r_hh_us_ps.hpp</text>
</a>
</g>
</g>
<!-- Node7&#45;&gt;Node17 -->
<g id="edge20_Node000007_Node000017" class="edge">
<title>Node7&#45;&gt;Node17</title>
<g id="a_edge20_Node000007_Node000017"><a xlink:title=" ">
<path fill="none" stroke="#63b8ff" d="M735.65,-176.68C745.53,-167.87 760.88,-154.18 773.01,-143.36"/>
<polygon fill="#63b8ff" stroke="#63b8ff" points="775.24,-146.05 780.38,-136.78 770.58,-140.83 775.24,-146.05"/>
</a>
</g>
</g>
<!-- Node20 -->
<g id="Node000020" class="node">
<title>Node20</title>
<g id="a_Node000020"><a xlink:href="x__z__p__qq__rr__f_8hpp.xhtml" target="_top" xlink:title=" ">
<polygon fill="white" stroke="#666666" points="591.62,-135.38 497.62,-135.38 497.62,-116.12 591.62,-116.12 591.62,-135.38"/>
<text text-anchor="middle" x="544.62" y="-121.88" font-family="Helvetica,sans-Serif" font-size="10.00">x_z_p_qq_rr_f.hpp</text>
</a>
</g>
</g>
<!-- Node7&#45;&gt;Node20 -->
<g id="edge25_Node000007_Node000020" class="edge">
<title>Node7&#45;&gt;Node20</title>
<g id="a_edge25_Node000007_Node000020"><a xlink:title=" ">
<path fill="none" stroke="#63b8ff" d="M697.74,-176.55C667.05,-166.57 617.51,-150.46 583.13,-139.27"/>
<polygon fill="#63b8ff" stroke="#63b8ff" points="584.57,-136.06 573.98,-136.3 582.41,-142.72 584.57,-136.06"/>
</a>
</g>
</g>
<!-- Node21 -->
<g id="Node000021" class="node">
<title>Node21</title>
<g id="a_Node000021"><a xlink:href="x__z__p__r_8hpp.xhtml" target="_top" xlink:title=" ">
<polygon fill="white" stroke="#666666" points="1280.12,-135.38 1213.12,-135.38 1213.12,-116.12 1280.12,-116.12 1280.12,-135.38"/>
<text text-anchor="middle" x="1246.62" y="-121.88" font-family="Helvetica,sans-Serif" font-size="10.00">x_z_p_r.hpp</text>
</a>
</g>
</g>
<!-- Node7&#45;&gt;Node21 -->
<g id="edge29_Node000007_Node000021" class="edge">
<title>Node7&#45;&gt;Node21</title>
<g id="a_edge29_Node000007_Node000021"><a xlink:title=" ">
<path fill="none" stroke="#63b8ff" d="M793.24,-184.13C886.5,-180.98 1059.44,-171.21 1203.62,-141 1206.22,-140.46 1208.88,-139.81 1211.54,-139.09"/>
<polygon fill="#63b8ff" stroke="#63b8ff" points="1212.3,-142.52 1220.88,-136.3 1210.3,-135.81 1212.3,-142.52"/>
</a>
</g>
</g>
<!-- Node22 -->
<g id="Node000022" class="node">
<title>Node22</title>
<g id="a_Node000022"><a xlink:href="x__z__p__r__f_8hpp.xhtml" target="_top" xlink:title=" ">
<polygon fill="white" stroke="#666666" points="985.25,-135.38 910,-135.38 910,-116.12 985.25,-116.12 985.25,-135.38"/>
<text text-anchor="middle" x="947.62" y="-121.88" font-family="Helvetica,sans-Serif" font-size="10.00">x_z_p_r_f.hpp</text>
</a>
</g>
</g>
<!-- Node7&#45;&gt;Node22 -->
<g id="edge31_Node000007_Node000022" class="edge">
<title>Node7&#45;&gt;Node22</title>
<g id="a_edge31_Node000007_Node000022"><a xlink:title=" ">
<path fill="none" stroke="#63b8ff" d="M760.82,-176.5C795.22,-167.56 849.06,-153.49 895.62,-141 898.22,-140.3 900.88,-139.59 903.57,-138.86"/>
<polygon fill="#63b8ff" stroke="#63b8ff" points="904.44,-142.25 913.17,-136.25 902.6,-135.49 904.44,-142.25"/>
</a>
</g>
</g>
<!-- Node23 -->
<g id="Node000023" class="node">
<title>Node23</title>
<g id="a_Node000023"><a xlink:href="x__z__u__p__q__r_8hpp.xhtml" target="_top" xlink:title=" ">
<polygon fill="white" stroke="#666666" points="345.62,-135.38 257.62,-135.38 257.62,-116.12 345.62,-116.12 345.62,-135.38"/>
<text text-anchor="middle" x="301.62" y="-121.88" font-family="Helvetica,sans-Serif" font-size="10.00">x_z_u_p_q_r.hpp</text>
</a>
</g>
</g>
<!-- Node7&#45;&gt;Node23 -->
<g id="edge33_Node000007_Node000023" class="edge">
<title>Node7&#45;&gt;Node23</title>
<g id="a_edge33_Node000007_Node000023"><a xlink:title=" ">
<path fill="none" stroke="#63b8ff" d="M658.15,-180.43C583.46,-174 459.72,-161.34 354.62,-141 351.02,-140.3 347.31,-139.49 343.59,-138.62"/>
<polygon fill="#63b8ff" stroke="#63b8ff" points="344.58,-135.26 334.03,-136.23 342.88,-142.05 344.58,-135.26"/>
</a>
</g>
</g>
<!-- Node24 -->
<g id="Node000024" class="node">
<title>Node24</title>
<g id="a_Node000024"><a xlink:href="x__z__u__p__q__r__h__f__g__us__ps_8hpp.xhtml" target="_top" xlink:title=" ">
<polygon fill="white" stroke="#666666" points="479.12,-141 364.12,-141 364.12,-110.5 479.12,-110.5 479.12,-141"/>
<text text-anchor="start" x="372.12" y="-127.5" font-family="Helvetica,sans-Serif" font-size="10.00">x_z_u_p_q_r_h_f_g_us</text>
<text text-anchor="middle" x="421.62" y="-116.25" font-family="Helvetica,sans-Serif" font-size="10.00">_ps.hpp</text>
</a>
</g>
</g>
<!-- Node7&#45;&gt;Node24 -->
<g id="edge37_Node000007_Node000024" class="edge">
<title>Node7&#45;&gt;Node24</title>
<g id="a_edge37_Node000007_Node000024"><a xlink:title=" ">
<path fill="none" stroke="#63b8ff" d="M675.62,-176.56C630.05,-168.22 560.58,-155.31 490.59,-141.36"/>
<polygon fill="#63b8ff" stroke="#63b8ff" points="491.33,-137.94 480.83,-139.41 489.95,-144.81 491.33,-137.94"/>
</a>
</g>
</g>
<!-- Node25 -->
<g id="Node000025" class="node">
<title>Node25</title>
<g id="a_Node000025"><a xlink:href="x__z__u__p__qq__r__ff__gg__ps_8hpp.xhtml" target="_top" xlink:title=" ">
<polygon fill="white" stroke="#666666" points="711.38,-141 609.88,-141 609.88,-110.5 711.38,-110.5 711.38,-141"/>
<text text-anchor="start" x="617.88" y="-127.5" font-family="Helvetica,sans-Serif" font-size="10.00">x_z_u_p_qq_r_ff_gg</text>
<text text-anchor="middle" x="660.62" y="-116.25" font-family="Helvetica,sans-Serif" font-size="10.00">_ps.hpp</text>
</a>
</g>
</g>
<!-- Node7&#45;&gt;Node25 -->
<g id="edge41_Node000007_Node000025" class="edge">
<title>Node7&#45;&gt;Node25</title>
<g id="a_edge41_Node000007_Node000025"><a xlink:title=" ">
<path fill="none" stroke="#63b8ff" d="M715.75,-176.68C707.65,-169.34 695.82,-158.63 685.2,-149.01"/>
<polygon fill="#63b8ff" stroke="#63b8ff" points="687.55,-146.42 677.79,-142.3 682.85,-151.61 687.55,-146.42"/>
</a>
</g>
</g>
<!-- Node8&#45;&gt;Node4 -->
<g id="edge15_Node000008_Node000004" class="edge">
<title>Node8&#45;&gt;Node4</title>
<g id="a_edge15_Node000008_Node000004"><a xlink:title=" ">
<path fill="none" stroke="#63b8ff" d="M187.45,-115.89C198.42,-106.87 214.02,-91.78 220.62,-74.5 227.52,-56.45 212.82,-38.71 198.41,-26.53"/>
<polygon fill="#63b8ff" stroke="#63b8ff" points="200.9,-24.03 190.86,-20.64 196.59,-29.55 200.9,-24.03"/>
</a>
</g>
</g>
<!-- Node8&#45;&gt;Node9 -->
<g id="edge8_Node000008_Node000009" class="edge">
<title>Node8&#45;&gt;Node9</title>
<g id="a_edge8_Node000008_Node000009"><a xlink:title=" ">
<path fill="none" stroke="#63b8ff" d="M201.85,-118.78C215.69,-115.85 233,-112.52 248.62,-110.5 498.01,-78.34 800.57,-69.02 907.7,-66.62"/>
<polygon fill="#63b8ff" stroke="#63b8ff" points="907.77,-70.12 917.69,-66.41 907.61,-63.12 907.77,-70.12"/>
</a>
</g>
</g>
<!-- Node14 -->
<g id="Node000014" class="node">
<title>Node14</title>
<g id="a_Node000014"><a xlink:title=" ">
<polygon fill="#e0e0e0" stroke="#999999" points="211.38,-74.5 139.88,-74.5 139.88,-55.25 211.38,-55.25 211.38,-74.5"/>
<text text-anchor="middle" x="175.62" y="-61" font-family="Helvetica,sans-Serif" font-size="10.00">initializer_list</text>
</a>
</g>
</g>
<!-- Node8&#45;&gt;Node14 -->
<g id="edge14_Node000008_Node000014" class="edge">
<title>Node8&#45;&gt;Node14</title>
<g id="a_edge14_Node000008_Node000014"><a xlink:title=" ">
<path fill="none" stroke="#63b8ff" d="M175.62,-115.81C175.62,-108.03 175.62,-96.45 175.62,-86.41"/>
<polygon fill="#63b8ff" stroke="#63b8ff" points="179.13,-86.41 175.63,-76.41 172.13,-86.41 179.13,-86.41"/>
</a>
</g>
</g>
<!-- Node9&#45;&gt;Node4 -->
<g id="edge12_Node000009_Node000004" class="edge">
<title>Node9&#45;&gt;Node4</title>
<g id="a_edge12_Node000009_Node000004"><a xlink:title=" ">
<path fill="none" stroke="#63b8ff" d="M919.23,-61.92C802.27,-53.85 357.34,-23.16 217.77,-13.53"/>
<polygon fill="#63b8ff" stroke="#63b8ff" points="218.08,-10.05 207.87,-12.85 217.6,-17.03 218.08,-10.05"/>
</a>
</g>
</g>
<!-- Node9&#45;&gt;Node10 -->
<g id="edge9_Node000009_Node000010" class="edge">
<title>Node9&#45;&gt;Node10</title>
<g id="a_edge9_Node000009_Node000010"><a xlink:title=" ">
<path fill="none" stroke="#63b8ff" d="M942.18,-55.08C937.85,-48.11 931.66,-38.12 926.24,-29.37"/>
<polygon fill="#63b8ff" stroke="#63b8ff" points="929.23,-27.55 920.99,-20.9 923.28,-31.24 929.23,-27.55"/>
</a>
</g>
</g>
<!-- Node9&#45;&gt;Node11 -->
<g id="edge10_Node000009_Node000011" class="edge">
<title>Node9&#45;&gt;Node11</title>
<g id="a_edge10_Node000009_Node000011"><a xlink:title=" ">
<path fill="none" stroke="#63b8ff" d="M976.03,-61.59C1082.22,-53.03 1455.81,-22.94 1573.11,-13.49"/>
<polygon fill="#63b8ff" stroke="#63b8ff" points="1573.07,-17 1582.76,-12.71 1572.51,-10.02 1573.07,-17"/>
</a>
</g>
</g>
<!-- Node9&#45;&gt;Node12 -->
<g id="edge11_Node000009_Node000012" class="edge">
<title>Node9&#45;&gt;Node12</title>
<g id="a_edge11_Node000009_Node000012"><a xlink:title=" ">
<path fill="none" stroke="#63b8ff" d="M919.11,-59.01C860.28,-48.97 725.94,-26.04 665.76,-15.77"/>
<polygon fill="#63b8ff" stroke="#63b8ff" points="666.36,-12.32 655.92,-14.09 665.18,-19.22 666.36,-12.32"/>
</a>
</g>
</g>
<!-- Node13 -->
<g id="Node000013" class="node">
<title>Node13</title>
<g id="a_Node000013"><a xlink:title=" ">
<polygon fill="#e0e0e0" stroke="#999999" points="1243.88,-19.25 1205.38,-19.25 1205.38,0 1243.88,0 1243.88,-19.25"/>
<text text-anchor="middle" x="1224.62" y="-5.75" font-family="Helvetica,sans-Serif" font-size="10.00">utility</text>
</a>
</g>
</g>
<!-- Node9&#45;&gt;Node13 -->
<g id="edge13_Node000009_Node000013" class="edge">
<title>Node9&#45;&gt;Node13</title>
<g id="a_edge13_Node000009_Node000013"><a xlink:title=" ">
<path fill="none" stroke="#63b8ff" d="M976.23,-58.38C1028.66,-48.3 1139.74,-26.94 1193.79,-16.55"/>
<polygon fill="#63b8ff" stroke="#63b8ff" points="1194.38,-20 1203.54,-14.68 1193.06,-13.13 1194.38,-20"/>
</a>
</g>
</g>
<!-- Node15&#45;&gt;Node9 -->
<g id="edge17_Node000015_Node000009" class="edge">
<title>Node15&#45;&gt;Node9</title>
<g id="a_edge17_Node000015_Node000009"><a xlink:title=" ">
<path fill="none" stroke="#63b8ff" d="M1027.35,-115.81C1012.58,-106.56 989.25,-91.95 971.64,-80.92"/>
<polygon fill="#63b8ff" stroke="#63b8ff" points="973.65,-78.05 963.32,-75.7 969.94,-83.98 973.65,-78.05"/>
</a>
</g>
</g>
<!-- Node16&#45;&gt;Node9 -->
<g id="edge19_Node000016_Node000009" class="edge">
<title>Node16&#45;&gt;Node9</title>
<g id="a_edge19_Node000016_Node000009"><a xlink:title=" ">
<path fill="none" stroke="#63b8ff" d="M1115.97,-115.68C1081.24,-105.4 1024.56,-88.64 986.69,-77.43"/>
<polygon fill="#63b8ff" stroke="#63b8ff" points="988.09,-74.2 977.51,-74.72 986.11,-80.91 988.09,-74.2"/>
</a>
</g>
</g>
<!-- Node17&#45;&gt;Node9 -->
<g id="edge23_Node000017_Node000009" class="edge">
<title>Node17&#45;&gt;Node9</title>
<g id="a_edge23_Node000017_Node000009"><a xlink:title=" ">
<path fill="none" stroke="#63b8ff" d="M815.66,-115.68C841.65,-105.87 883.33,-90.14 912.89,-78.98"/>
<polygon fill="#63b8ff" stroke="#63b8ff" points="914.03,-82.3 922.15,-75.49 911.56,-75.75 914.03,-82.3"/>
</a>
</g>
</g>
<!-- Node17&#45;&gt;Node12 -->
<g id="edge24_Node000017_Node000012" class="edge">
<title>Node17&#45;&gt;Node12</title>
<g id="a_edge24_Node000017_Node000012"><a xlink:title=" ">
<path fill="none" stroke="#63b8ff" d="M779.38,-115.79C752.96,-96.46 690.27,-50.6 657.09,-26.33"/>
<polygon fill="#63b8ff" stroke="#63b8ff" points="659.17,-23.51 649.03,-20.43 655.04,-29.16 659.17,-23.51"/>
</a>
</g>
</g>
<!-- Node18 -->
<g id="Node000018" class="node">
<title>Node18</title>
<g id="a_Node000018"><a xlink:href="function_8hpp.xhtml" target="_top" xlink:title=" ">
<polygon fill="white" stroke="#666666" points="578.88,-74.5 510.38,-74.5 510.38,-55.25 578.88,-55.25 578.88,-74.5"/>
<text text-anchor="middle" x="544.62" y="-61" font-family="Helvetica,sans-Serif" font-size="10.00">function.hpp</text>
</a>
</g>
</g>
<!-- Node17&#45;&gt;Node18 -->
<g id="edge21_Node000017_Node000018" class="edge">
<title>Node17&#45;&gt;Node18</title>
<g id="a_edge21_Node000017_Node000018"><a xlink:title=" ">
<path fill="none" stroke="#63b8ff" d="M753.57,-115.68C709.57,-105.19 637.17,-87.93 590.2,-76.74"/>
<polygon fill="#63b8ff" stroke="#63b8ff" points="591.14,-73.37 580.6,-74.45 589.52,-80.17 591.14,-73.37"/>
</a>
</g>
</g>
<!-- Node19 -->
<g id="Node000019" class="node">
<title>Node19</title>
<g id="a_Node000019"><a xlink:title=" ">
<polygon fill="#e0e0e0" stroke="#999999" points="569.88,-19.25 519.38,-19.25 519.38,0 569.88,0 569.88,-19.25"/>
<text text-anchor="middle" x="544.62" y="-5.75" font-family="Helvetica,sans-Serif" font-size="10.00">memory</text>
</a>
</g>
</g>
<!-- Node18&#45;&gt;Node19 -->
<g id="edge22_Node000018_Node000019" class="edge">
<title>Node18&#45;&gt;Node19</title>
<g id="a_edge22_Node000018_Node000019"><a xlink:title=" ">
<path fill="none" stroke="#63b8ff" d="M544.62,-55.08C544.62,-48.57 544.62,-39.42 544.62,-31.12"/>
<polygon fill="#63b8ff" stroke="#63b8ff" points="548.13,-31.12 544.63,-21.12 541.13,-31.12 548.13,-31.12"/>
</a>
</g>
</g>
<!-- Node20&#45;&gt;Node9 -->
<g id="edge27_Node000020_Node000009" class="edge">
<title>Node20&#45;&gt;Node9</title>
<g id="a_edge27_Node000020_Node000009"><a xlink:title=" ">
<path fill="none" stroke="#63b8ff" d="M577.64,-115.64C585.16,-113.77 593.14,-111.93 600.62,-110.5 710.99,-89.44 843.04,-75.52 907.81,-69.41"/>
<polygon fill="#63b8ff" stroke="#63b8ff" points="907.96,-72.91 917.6,-68.5 907.32,-65.94 907.96,-72.91"/>
</a>
</g>
</g>
<!-- Node20&#45;&gt;Node12 -->
<g id="edge28_Node000020_Node000012" class="edge">
<title>Node20&#45;&gt;Node12</title>
<g id="a_edge28_Node000020_Node000012"><a xlink:title=" ">
<path fill="none" stroke="#63b8ff" d="M552.73,-115.64C561.51,-105.68 575.84,-89.19 587.62,-74.5 599.82,-59.3 613.08,-41.55 622.57,-28.63"/>
<polygon fill="#63b8ff" stroke="#63b8ff" points="625.32,-30.8 628.38,-20.66 619.66,-26.67 625.32,-30.8"/>
</a>
</g>
</g>
<!-- Node20&#45;&gt;Node18 -->
<g id="edge26_Node000020_Node000018" class="edge">
<title>Node20&#45;&gt;Node18</title>
<g id="a_edge26_Node000020_Node000018"><a xlink:title=" ">
<path fill="none" stroke="#63b8ff" d="M544.62,-115.81C544.62,-108.03 544.62,-96.45 544.62,-86.41"/>
<polygon fill="#63b8ff" stroke="#63b8ff" points="548.13,-86.41 544.63,-76.41 541.13,-86.41 548.13,-86.41"/>
</a>
</g>
</g>
<!-- Node21&#45;&gt;Node9 -->
<g id="edge30_Node000021_Node000009" class="edge">
<title>Node21&#45;&gt;Node9</title>
<g id="a_edge30_Node000021_Node000009"><a xlink:title=" ">
<path fill="none" stroke="#63b8ff" d="M1221.34,-115.68C1215.57,-113.81 1209.42,-111.96 1203.62,-110.5 1128.13,-91.52 1038.09,-77.85 987.42,-70.96"/>
<polygon fill="#63b8ff" stroke="#63b8ff" points="988.2,-67.53 977.83,-69.67 987.27,-74.47 988.2,-67.53"/>
</a>
</g>
</g>
<!-- Node22&#45;&gt;Node9 -->
<g id="edge32_Node000022_Node000009" class="edge">
<title>Node22&#45;&gt;Node9</title>
<g id="a_edge32_Node000022_Node000009"><a xlink:title=" ">
<path fill="none" stroke="#63b8ff" d="M947.62,-115.81C947.62,-108.03 947.62,-96.45 947.62,-86.41"/>
<polygon fill="#63b8ff" stroke="#63b8ff" points="951.13,-86.41 947.63,-76.41 944.13,-86.41 951.13,-86.41"/>
</a>
</g>
</g>
<!-- Node23&#45;&gt;Node9 -->
<g id="edge35_Node000023_Node000009" class="edge">
<title>Node23&#45;&gt;Node9</title>
<g id="a_edge35_Node000023_Node000009"><a xlink:title=" ">
<path fill="none" stroke="#63b8ff" d="M331.4,-115.7C338.92,-113.7 347.02,-111.8 354.62,-110.5 560.56,-75.39 811.43,-67.9 907.54,-66.31"/>
<polygon fill="#63b8ff" stroke="#63b8ff" points="907.54,-69.81 917.49,-66.16 907.44,-62.81 907.54,-69.81"/>
</a>
</g>
</g>
<!-- Node23&#45;&gt;Node12 -->
<g id="edge36_Node000023_Node000012" class="edge">
<title>Node23&#45;&gt;Node12</title>
<g id="a_edge36_Node000023_Node000012"><a xlink:title=" ">
<path fill="none" stroke="#63b8ff" d="M321.47,-115.71C352.89,-101.6 416.21,-74.04 471.62,-55.25 517.67,-39.64 572.38,-25.64 605.53,-17.64"/>
<polygon fill="#63b8ff" stroke="#63b8ff" points="606.32,-21.05 615.24,-15.33 604.7,-14.24 606.32,-21.05"/>
</a>
</g>
</g>
<!-- Node23&#45;&gt;Node18 -->
<g id="edge34_Node000023_Node000018" class="edge">
<title>Node23&#45;&gt;Node18</title>
<g id="a_edge34_Node000023_Node000018"><a xlink:title=" ">
<path fill="none" stroke="#63b8ff" d="M334.66,-115.69C341.26,-113.93 348.16,-112.13 354.62,-110.5 403.97,-98.07 460.81,-84.87 499.36,-76.08"/>
<polygon fill="#63b8ff" stroke="#63b8ff" points="499.77,-79.57 508.75,-73.94 498.22,-72.75 499.77,-79.57"/>
</a>
</g>
</g>
<!-- Node24&#45;&gt;Node9 -->
<g id="edge39_Node000024_Node000009" class="edge">
<title>Node24&#45;&gt;Node9</title>
<g id="a_edge39_Node000024_Node000009"><a xlink:title=" ">
<path fill="none" stroke="#63b8ff" d="M479.29,-112.05C482.44,-111.5 485.57,-110.97 488.62,-110.5 642.53,-86.73 827.55,-73.32 907.55,-68.25"/>
<polygon fill="#63b8ff" stroke="#63b8ff" points="907.74,-71.74 917.51,-67.63 907.31,-64.76 907.74,-71.74"/>
</a>
</g>
</g>
<!-- Node24&#45;&gt;Node12 -->
<g id="edge40_Node000024_Node000012" class="edge">
<title>Node24&#45;&gt;Node12</title>
<g id="a_edge40_Node000024_Node000012"><a xlink:title=" ">
<path fill="none" stroke="#63b8ff" d="M435.04,-110.07C449.96,-94.52 475.42,-70.2 501.62,-55.25 534.98,-36.22 577.68,-23.77 605.81,-16.98"/>
<polygon fill="#63b8ff" stroke="#63b8ff" points="606.47,-20.41 615.42,-14.75 604.89,-13.6 606.47,-20.41"/>
</a>
</g>
</g>
<!-- Node24&#45;&gt;Node18 -->
<g id="edge38_Node000024_Node000018" class="edge">
<title>Node24&#45;&gt;Node18</title>
<g id="a_edge38_Node000024_Node000018"><a xlink:title=" ">
<path fill="none" stroke="#63b8ff" d="M452.35,-110.05C471.71,-100.78 496.55,-88.88 515.59,-79.77"/>
<polygon fill="#63b8ff" stroke="#63b8ff" points="516.89,-83.03 524.4,-75.56 513.87,-76.72 516.89,-83.03"/>
</a>
</g>
</g>
<!-- Node25&#45;&gt;Node9 -->
<g id="edge43_Node000025_Node000009" class="edge">
<title>Node25&#45;&gt;Node9</title>
<g id="a_edge43_Node000025_Node000009"><a xlink:title=" ">
<path fill="none" stroke="#63b8ff" d="M711.66,-112.49C714.69,-111.8 717.7,-111.14 720.62,-110.5 785.98,-96.32 862.35,-81.71 907.76,-73.22"/>
<polygon fill="#63b8ff" stroke="#63b8ff" points="908.21,-76.7 917.4,-71.43 906.92,-69.82 908.21,-76.7"/>
</a>
</g>
</g>
<!-- Node25&#45;&gt;Node12 -->
<g id="edge44_Node000025_Node000012" class="edge">
<title>Node25&#45;&gt;Node12</title>
<g id="a_edge44_Node000025_Node000012"><a xlink:title=" ">
<path fill="none" stroke="#63b8ff" d="M657.46,-110.3C653.05,-90.15 645.03,-53.56 640.03,-30.75"/>
<polygon fill="#63b8ff" stroke="#63b8ff" points="643.5,-30.2 637.94,-21.18 636.66,-31.69 643.5,-30.2"/>
</a>
</g>
</g>
<!-- Node25&#45;&gt;Node18 -->
<g id="edge42_Node000025_Node000018" class="edge">
<title>Node25&#45;&gt;Node18</title>
<g id="a_edge42_Node000025_Node000018"><a xlink:title=" ">
<path fill="none" stroke="#63b8ff" d="M631.65,-110.05C613.56,-100.86 590.4,-89.11 572.51,-80.03"/>
<polygon fill="#63b8ff" stroke="#63b8ff" points="574.27,-76.99 563.76,-75.59 571.1,-83.24 574.27,-76.99"/>
</a>
</g>
</g>
<!-- Node26&#45;&gt;Node9 -->
<g id="edge49_Node000026_Node000009" class="edge">
<title>Node26&#45;&gt;Node9</title>
<g id="a_edge49_Node000026_Node000009"><a xlink:title=" ">
<path fill="none" stroke="#63b8ff" d="M1539.55,-115.67C1529.11,-113.75 1518,-111.88 1507.62,-110.5 1313.59,-84.65 1079.6,-71.9 987.56,-67.6"/>
<polygon fill="#63b8ff" stroke="#63b8ff" points="987.96,-64.12 977.81,-67.16 987.64,-71.11 987.96,-64.12"/>
</a>
</g>
</g>
<!-- Node26&#45;&gt;Node11 -->
<g id="edge50_Node000026_Node000011" class="edge">
<title>Node26&#45;&gt;Node11</title>
<g id="a_edge50_Node000026_Node000011"><a xlink:title=" ">
<path fill="none" stroke="#63b8ff" d="M1585.59,-115.79C1589.58,-97.54 1598.76,-55.66 1604.25,-30.6"/>
<polygon fill="#63b8ff" stroke="#63b8ff" points="1607.63,-31.53 1606.35,-21.02 1600.79,-30.04 1607.63,-31.53"/>
</a>
</g>
</g>
<!-- Node26&#45;&gt;Node12 -->
<g id="edge52_Node000026_Node000012" class="edge">
<title>Node26&#45;&gt;Node12</title>
<g id="a_edge52_Node000026_Node000012"><a xlink:title=" ">
<path fill="none" stroke="#63b8ff" d="M1567.29,-115.69C1538.22,-100.08 1475.16,-68.53 1417.62,-55.25 1343.42,-38.13 800.32,-16.8 665.74,-11.74"/>
<polygon fill="#63b8ff" stroke="#63b8ff" points="665.99,-8.25 655.86,-11.37 665.73,-15.24 665.99,-8.25"/>
</a>
</g>
</g>
<!-- Node27 -->
<g id="Node000027" class="node">
<title>Node27</title>
<g id="a_Node000027"><a xlink:title=" ">
<polygon fill="#e0e0e0" stroke="#999999" points="1580.5,-74.5 1536.75,-74.5 1536.75,-55.25 1580.5,-55.25 1580.5,-74.5"/>
<text text-anchor="middle" x="1558.62" y="-61" font-family="Helvetica,sans-Serif" font-size="10.00">format</text>
</a>
</g>
</g>
<!-- Node26&#45;&gt;Node27 -->
<g id="edge51_Node000026_Node000027" class="edge">
<title>Node26&#45;&gt;Node27</title>
<g id="a_edge51_Node000026_Node000027"><a xlink:title=" ">
<path fill="none" stroke="#63b8ff" d="M1579.83,-115.81C1576.41,-107.77 1571.28,-95.68 1566.92,-85.41"/>
<polygon fill="#63b8ff" stroke="#63b8ff" points="1570.18,-84.13 1563.05,-76.29 1563.74,-86.87 1570.18,-84.13"/>
</a>
</g>
</g>
<!-- Node28&#45;&gt;Node9 -->
<g id="edge54_Node000028_Node000009" class="edge">
<title>Node28&#45;&gt;Node9</title>
<g id="a_edge54_Node000028_Node000009"><a xlink:title=" ">
<path fill="none" stroke="#63b8ff" d="M1391.31,-115.66C1381.23,-113.8 1370.59,-111.97 1360.62,-110.5 1224.16,-90.37 1061.07,-75.41 987.31,-69.13"/>
<polygon fill="#63b8ff" stroke="#63b8ff" points="988.03,-65.68 977.77,-68.32 987.44,-72.65 988.03,-65.68"/>
</a>
</g>
</g>
<!-- Node28&#45;&gt;Node13 -->
<g id="edge56_Node000028_Node000013" class="edge">
<title>Node28&#45;&gt;Node13</title>
<g id="a_edge56_Node000028_Node000013"><a xlink:title=" ">
<path fill="none" stroke="#63b8ff" d="M1436.9,-116.09C1436.88,-101.39 1434.58,-71.55 1417.62,-55.25 1394.65,-33.17 1303.82,-19.67 1255.4,-13.9"/>
<polygon fill="#63b8ff" stroke="#63b8ff" points="1255.91,-10.44 1245.58,-12.78 1255.11,-17.39 1255.91,-10.44"/>
</a>
</g>
</g>
<!-- Node29 -->
<g id="Node000029" class="node">
<title>Node29</title>
<g id="a_Node000029"><a xlink:title=" ">
<polygon fill="#e0e0e0" stroke="#999999" points="1409,-74.5 1374.25,-74.5 1374.25,-55.25 1409,-55.25 1409,-74.5"/>
<text text-anchor="middle" x="1391.62" y="-61" font-family="Helvetica,sans-Serif" font-size="10.00">print</text>
</a>
</g>
</g>
<!-- Node28&#45;&gt;Node29 -->
<g id="edge55_Node000028_Node000029" class="edge">
<title>Node28&#45;&gt;Node29</title>
<g id="a_edge55_Node000028_Node000029"><a xlink:title=" ">
<path fill="none" stroke="#63b8ff" d="M1429.79,-115.81C1423.31,-107.34 1413.4,-94.37 1405.3,-83.77"/>
<polygon fill="#63b8ff" stroke="#63b8ff" points="1408.3,-81.92 1399.44,-76.1 1402.73,-86.17 1408.3,-81.92"/>
</a>
</g>
</g>
</g>
</svg>

<g id="navigator" transform="translate(0 0)" fill="#404254">
  <rect fill="#f2f5e9" fill-opacity="0.5" stroke="#606060" stroke-width=".5" x="0" y="0" width="60" height="60"/>
  <use id="zoomplus" xlink:href="#zoomPlus" x="17" y="9" onmousedown="handleZoom(evt,'in')"/>
  <use id="zoomminus" xlink:href="#zoomMin" x="42" y="9" onmousedown="handleZoom(evt,'out')"/>
  <use id="reset" xlink:href="#resetDef" x="30" y="36" onmousedown="handleReset()"/>
   <use id="arrowup" xlink:href="#arrowUp" x="0" y="0" onmousedown="handlePan(0,-1)"/>
  <use id="arrowright" xlink:href="#arrowRight" x="0" y="0" onmousedown="handlePan(1,0)"/>
  <use id="arrowdown" xlink:href="#arrowDown" x="0" y="0" onmousedown="handlePan(0,1)"/>
  <use id="arrowleft" xlink:href="#arrowLeft" x="0" y="0" onmousedown="handlePan(-1,0)"/>
</g>
<svg viewBox="0 0 15 15" width="100%" height="30px" preserveAspectRatio="xMaxYMin meet">
 <g id="arrow_out" transform="scale(0.3 0.3)">
  <a xlink:href="update__linalg__xx0_8cpp__incl_org.svg" target="_base">
   <rect id="button" ry="5" rx="5" y="6" x="6" height="38" width="38"
        fill="#f2f5e9" fill-opacity="0.5" stroke="#606060" stroke-width="1.0"/>
   <path id="arrow"
     d="M 11.500037,31.436501 C 11.940474,20.09759 22.043105,11.32322 32.158766,21.979434 L 37.068811,17.246167 C 37.068811,17.246167 37.088388,32 37.088388,32 L 22.160133,31.978069 C 22.160133,31.978069 26.997745,27.140456 26.997745,27.140456 C 18.528582,18.264221 13.291696,25.230495 11.500037,31.436501 z"
     style="fill:#404040;"/>
  </a>
 </g>
</svg>

<style type='text/css'>
<![CDATA[
[data-mouse-over-selected='false'] { opacity: 0.7; }
[data-mouse-over-selected='true']  { opacity: 1.0; }
]]>
</style>
<script type="application/ecmascript"><![CDATA[
document.addEventListener('DOMContentLoaded', (event) => {
  highlightEdges();
  highlightAdjacentNodes();
});
]]></script>
</svg>
