<?xml version="1.0" encoding="UTF-8" standalone="no"?>
<!DOCTYPE svg PUBLIC "-//W3C//DTD SVG 1.1//EN"
 "http://www.w3.org/Graphics/SVG/1.1/DTD/svg11.dtd">
<!-- Generated by graphviz version 3.0.0 (20220413.0242)
 -->
<!-- Title: benchmark/update_1x1x1.cpp Pages: 1 -->
<svg width="634pt" height="252pt"
 viewBox="0.00 0.00 633.50 252.00" xmlns="http://www.w3.org/2000/svg" xmlns:xlink="http://www.w3.org/1999/xlink">
<g id="graph0" class="graph" transform="scale(1 1) rotate(0) translate(4 248)">
<title>benchmark/update_1x1x1.cpp</title>
<polygon fill="white" stroke="transparent" points="-4,4 -4,-248 629.5,-248 629.5,4 -4,4"/>
<!-- Node1 -->
<g id="node1" class="node">
<title>Node1</title>
<g id="a_node1"><a xlink:title=" ">
<polygon fill="#bfbfbf" stroke="black" points="282.5,-224.5 282.5,-243.5 427.5,-243.5 427.5,-224.5 282.5,-224.5"/>
<text text-anchor="middle" x="355" y="-231.5" font-family="Helvetica,sans-Serif" font-size="10.00">benchmark/update_1x1x1.cpp</text>
</a>
</g>
</g>
<!-- Node2 -->
<g id="node2" class="node">
<title>Node2</title>
<g id="a_node2"><a xlink:href="benchmark_8hpp.xhtml" target="_top" xlink:title="Benchmarking support.">
<polygon fill="white" stroke="black" points="51.5,-168.5 51.5,-187.5 134.5,-187.5 134.5,-168.5 51.5,-168.5"/>
<text text-anchor="middle" x="93" y="-175.5" font-family="Helvetica,sans-Serif" font-size="10.00">benchmark.hpp</text>
</a>
</g>
</g>
<!-- Node1&#45;&gt;Node2 -->
<g id="edge1" class="edge">
<title>Node1&#45;&gt;Node2</title>
<path fill="none" stroke="midnightblue" d="M313.49,-224.44C267.59,-214.98 193.62,-199.74 144.17,-189.55"/>
<polygon fill="midnightblue" stroke="midnightblue" points="144.82,-186.11 134.32,-187.52 143.41,-192.96 144.82,-186.11"/>
</g>
<!-- Node3 -->
<g id="node3" class="node">
<title>Node3</title>
<g id="a_node3"><a xlink:title=" ">
<polygon fill="white" stroke="#bfbfbf" points="0,-112.5 0,-131.5 46,-131.5 46,-112.5 0,-112.5"/>
<text text-anchor="middle" x="23" y="-119.5" font-family="Helvetica,sans-Serif" font-size="10.00">chrono</text>
</a>
</g>
</g>
<!-- Node1&#45;&gt;Node3 -->
<g id="edge24" class="edge">
<title>Node1&#45;&gt;Node3</title>
<path fill="none" stroke="midnightblue" d="M282.18,-231.43C201.11,-228.19 76.89,-218.26 42,-188 28.84,-176.58 24.55,-156.6 23.27,-141.79"/>
<polygon fill="midnightblue" stroke="midnightblue" points="26.76,-141.53 22.78,-131.71 19.77,-141.87 26.76,-141.53"/>
</g>
<!-- Node5 -->
<g id="node5" class="node">
<title>Node5</title>
<g id="a_node5"><a xlink:href="kalman_8hpp.xhtml" target="_top" xlink:title="The main Kalman filter class.">
<polygon fill="white" stroke="black" points="235.5,-168.5 235.5,-187.5 342.5,-187.5 342.5,-168.5 235.5,-168.5"/>
<text text-anchor="middle" x="289" y="-175.5" font-family="Helvetica,sans-Serif" font-size="10.00">fcarouge/kalman.hpp</text>
</a>
</g>
</g>
<!-- Node1&#45;&gt;Node5 -->
<g id="edge4" class="edge">
<title>Node1&#45;&gt;Node5</title>
<path fill="none" stroke="midnightblue" d="M344.4,-224.32C334.54,-216.26 319.65,-204.08 307.78,-194.37"/>
<polygon fill="midnightblue" stroke="midnightblue" points="309.75,-191.46 299.8,-187.83 305.32,-196.88 309.75,-191.46"/>
</g>
<!-- Node15 -->
<g id="node15" class="node">
<title>Node15</title>
<g id="a_node15"><a xlink:title=" ">
<polygon fill="white" stroke="#bfbfbf" points="360.5,-168.5 360.5,-187.5 483.5,-187.5 483.5,-168.5 360.5,-168.5"/>
<text text-anchor="middle" x="422" y="-175.5" font-family="Helvetica,sans-Serif" font-size="10.00">benchmark/benchmark.h</text>
</a>
</g>
</g>
<!-- Node1&#45;&gt;Node15 -->
<g id="edge22" class="edge">
<title>Node1&#45;&gt;Node15</title>
<path fill="none" stroke="midnightblue" d="M365.76,-224.32C375.77,-216.26 390.89,-204.08 402.93,-194.37"/>
<polygon fill="midnightblue" stroke="midnightblue" points="405.45,-196.83 411.04,-187.83 401.06,-191.38 405.45,-196.83"/>
</g>
<!-- Node16 -->
<g id="node16" class="node">
<title>Node16</title>
<g id="a_node16"><a xlink:title=" ">
<polygon fill="white" stroke="#bfbfbf" points="502,-168.5 502,-187.5 558,-187.5 558,-168.5 502,-168.5"/>
<text text-anchor="middle" x="530" y="-175.5" font-family="Helvetica,sans-Serif" font-size="10.00">algorithm</text>
</a>
</g>
</g>
<!-- Node1&#45;&gt;Node16 -->
<g id="edge23" class="edge">
<title>Node1&#45;&gt;Node16</title>
<path fill="none" stroke="midnightblue" d="M382.73,-224.44C412.43,-215.28 459.72,-200.69 492.67,-190.52"/>
<polygon fill="midnightblue" stroke="midnightblue" points="493.88,-193.81 502.4,-187.52 491.81,-187.12 493.88,-193.81"/>
</g>
<!-- Node17 -->
<g id="node17" class="node">
<title>Node17</title>
<g id="a_node17"><a xlink:title=" ">
<polygon fill="white" stroke="#bfbfbf" points="576.5,-168.5 576.5,-187.5 625.5,-187.5 625.5,-168.5 576.5,-168.5"/>
<text text-anchor="middle" x="601" y="-175.5" font-family="Helvetica,sans-Serif" font-size="10.00">random</text>
</a>
</g>
</g>
<!-- Node1&#45;&gt;Node17 -->
<g id="edge25" class="edge">
<title>Node1&#45;&gt;Node17</title>
<path fill="none" stroke="midnightblue" d="M398.18,-224.49C439.02,-216.29 502.25,-203.22 566.29,-188.08"/>
<polygon fill="midnightblue" stroke="midnightblue" points="567.24,-191.45 576.15,-185.73 565.61,-184.64 567.24,-191.45"/>
</g>
<!-- Node2&#45;&gt;Node3 -->
<g id="edge2" class="edge">
<title>Node2&#45;&gt;Node3</title>
<path fill="none" stroke="midnightblue" d="M81.75,-168.32C71.2,-160.18 55.2,-147.84 42.56,-138.09"/>
<polygon fill="midnightblue" stroke="midnightblue" points="44.51,-135.17 34.45,-131.83 40.23,-140.71 44.51,-135.17"/>
</g>
<!-- Node4 -->
<g id="node4" class="node">
<title>Node4</title>
<g id="a_node4"><a xlink:title=" ">
<polygon fill="white" stroke="#bfbfbf" points="100,-0.5 100,-19.5 162,-19.5 162,-0.5 100,-0.5"/>
<text text-anchor="middle" x="131" y="-7.5" font-family="Helvetica,sans-Serif" font-size="10.00">type_traits</text>
</a>
</g>
</g>
<!-- Node2&#45;&gt;Node4 -->
<g id="edge3" class="edge">
<title>Node2&#45;&gt;Node4</title>
<path fill="none" stroke="midnightblue" d="M91.7,-168.47C88.96,-148.25 83.96,-96.08 98,-56 101.67,-45.53 108.66,-35.41 115.27,-27.44"/>
<polygon fill="midnightblue" stroke="midnightblue" points="118.11,-29.51 122.12,-19.71 112.87,-24.87 118.11,-29.51"/>
</g>
<!-- Node5&#45;&gt;Node4 -->
<g id="edge20" class="edge">
<title>Node5&#45;&gt;Node4</title>
<path fill="none" stroke="midnightblue" d="M235.15,-168.72C194.54,-161.25 143.72,-148.84 131,-132 108.41,-102.07 117.32,-55.05 124.79,-29.33"/>
<polygon fill="midnightblue" stroke="midnightblue" points="128.15,-30.3 127.8,-19.72 121.47,-28.21 128.15,-30.3"/>
</g>
<!-- Node6 -->
<g id="node6" class="node">
<title>Node6</title>
<g id="a_node6"><a xlink:href="format_8hpp.xhtml" target="_top" xlink:title=" ">
<polygon fill="white" stroke="black" points="336.5,-112.5 336.5,-131.5 433.5,-131.5 433.5,-112.5 336.5,-112.5"/>
<text text-anchor="middle" x="385" y="-119.5" font-family="Helvetica,sans-Serif" font-size="10.00">internal/format.hpp</text>
</a>
</g>
</g>
<!-- Node5&#45;&gt;Node6 -->
<g id="edge5" class="edge">
<title>Node5&#45;&gt;Node6</title>
<path fill="none" stroke="midnightblue" d="M304.42,-168.32C319.54,-159.82 342.82,-146.73 360.47,-136.8"/>
<polygon fill="midnightblue" stroke="midnightblue" points="362.61,-139.61 369.61,-131.65 359.18,-133.51 362.61,-139.61"/>
</g>
<!-- Node7 -->
<g id="node7" class="node">
<title>Node7</title>
<g id="a_node7"><a xlink:href="internal_2utility_8hpp.xhtml" target="_top" xlink:title=" ">
<polygon fill="white" stroke="black" points="311.5,-56.5 311.5,-75.5 368.5,-75.5 368.5,-56.5 311.5,-56.5"/>
<text text-anchor="middle" x="340" y="-63.5" font-family="Helvetica,sans-Serif" font-size="10.00">utility.hpp</text>
</a>
</g>
</g>
<!-- Node5&#45;&gt;Node7 -->
<g id="edge16" class="edge">
<title>Node5&#45;&gt;Node7</title>
<path fill="none" stroke="midnightblue" d="M293,-168.37C301.31,-150.46 320.56,-108.92 331.68,-84.95"/>
<polygon fill="midnightblue" stroke="midnightblue" points="334.99,-86.14 336.02,-75.59 328.64,-83.19 334.99,-86.14"/>
</g>
<!-- Node8 -->
<g id="node8" class="node">
<title>Node8</title>
<g id="a_node8"><a xlink:title=" ">
<polygon fill="white" stroke="#bfbfbf" points="420,-0.5 420,-19.5 476,-19.5 476,-0.5 420,-0.5"/>
<text text-anchor="middle" x="448" y="-7.5" font-family="Helvetica,sans-Serif" font-size="10.00">concepts</text>
</a>
</g>
</g>
<!-- Node5&#45;&gt;Node8 -->
<g id="edge17" class="edge">
<title>Node5&#45;&gt;Node8</title>
<path fill="none" stroke="midnightblue" d="M340.12,-168.48C405.49,-157.36 511.01,-138.55 517,-132 539.88,-107.01 539.69,-85.48 523,-56 514.65,-41.26 499.34,-30.82 484.71,-23.73"/>
<polygon fill="midnightblue" stroke="midnightblue" points="485.84,-20.4 475.28,-19.55 483,-26.8 485.84,-20.4"/>
</g>
<!-- Node9 -->
<g id="node9" class="node">
<title>Node9</title>
<g id="a_node9"><a xlink:title=" ">
<polygon fill="white" stroke="#bfbfbf" points="464.5,-56.5 464.5,-75.5 513.5,-75.5 513.5,-56.5 464.5,-56.5"/>
<text text-anchor="middle" x="489" y="-63.5" font-family="Helvetica,sans-Serif" font-size="10.00">cstddef</text>
</a>
</g>
</g>
<!-- Node5&#45;&gt;Node9 -->
<g id="edge18" class="edge">
<title>Node5&#45;&gt;Node9</title>
<path fill="none" stroke="midnightblue" d="M342.62,-169.12C401.8,-159.88 490.07,-144.27 500,-132 510.66,-118.83 505.31,-99.15 498.9,-84.9"/>
<polygon fill="midnightblue" stroke="midnightblue" points="501.88,-83.02 494.26,-75.65 495.62,-86.16 501.88,-83.02"/>
</g>
<!-- Node11 -->
<g id="node11" class="node">
<title>Node11</title>
<g id="a_node11"><a xlink:href="internal_2kalman_8hpp.xhtml" target="_top" xlink:title=" ">
<polygon fill="white" stroke="black" points="140.5,-112.5 140.5,-131.5 241.5,-131.5 241.5,-112.5 140.5,-112.5"/>
<text text-anchor="middle" x="191" y="-119.5" font-family="Helvetica,sans-Serif" font-size="10.00">internal/kalman.hpp</text>
</a>
</g>
</g>
<!-- Node5&#45;&gt;Node11 -->
<g id="edge11" class="edge">
<title>Node5&#45;&gt;Node11</title>
<path fill="none" stroke="midnightblue" d="M273.25,-168.32C257.68,-159.74 233.62,-146.49 215.54,-136.52"/>
<polygon fill="midnightblue" stroke="midnightblue" points="217.15,-133.42 206.71,-131.65 213.78,-139.55 217.15,-133.42"/>
</g>
<!-- Node12 -->
<g id="node12" class="node">
<title>Node12</title>
<g id="a_node12"><a xlink:title=" ">
<polygon fill="white" stroke="#bfbfbf" points="234.5,-56.5 234.5,-75.5 293.5,-75.5 293.5,-56.5 234.5,-56.5"/>
<text text-anchor="middle" x="264" y="-63.5" font-family="Helvetica,sans-Serif" font-size="10.00">functional</text>
</a>
</g>
</g>
<!-- Node5&#45;&gt;Node12 -->
<g id="edge19" class="edge">
<title>Node5&#45;&gt;Node12</title>
<path fill="none" stroke="midnightblue" d="M287.04,-168.37C283,-150.62 273.7,-109.67 268.23,-85.6"/>
<polygon fill="midnightblue" stroke="midnightblue" points="271.58,-84.57 265.95,-75.59 264.76,-86.12 271.58,-84.57"/>
</g>
<!-- Node14 -->
<g id="node14" class="node">
<title>Node14</title>
<g id="a_node14"><a xlink:title=" ">
<polygon fill="white" stroke="#bfbfbf" points="451.5,-112.5 451.5,-131.5 490.5,-131.5 490.5,-112.5 451.5,-112.5"/>
<text text-anchor="middle" x="471" y="-119.5" font-family="Helvetica,sans-Serif" font-size="10.00">utility</text>
</a>
</g>
</g>
<!-- Node5&#45;&gt;Node14 -->
<g id="edge21" class="edge">
<title>Node5&#45;&gt;Node14</title>
<path fill="none" stroke="midnightblue" d="M319.17,-168.44C348.33,-160.11 393.97,-146.93 441.84,-132.3"/>
<polygon fill="midnightblue" stroke="midnightblue" points="442.9,-135.64 451.44,-129.36 440.85,-128.95 442.9,-135.64"/>
</g>
<!-- Node6&#45;&gt;Node7 -->
<g id="edge6" class="edge">
<title>Node6&#45;&gt;Node7</title>
<path fill="none" stroke="midnightblue" d="M377.57,-112.08C371.15,-104.38 361.69,-93.03 353.88,-83.65"/>
<polygon fill="midnightblue" stroke="midnightblue" points="356.38,-81.19 347.29,-75.75 351.01,-85.67 356.38,-81.19"/>
</g>
<!-- Node6&#45;&gt;Node9 -->
<g id="edge9" class="edge">
<title>Node6&#45;&gt;Node9</title>
<path fill="none" stroke="midnightblue" d="M401.71,-112.32C418.31,-103.7 444,-90.36 463.22,-80.39"/>
<polygon fill="midnightblue" stroke="midnightblue" points="465.07,-83.37 472.33,-75.65 461.84,-77.16 465.07,-83.37"/>
</g>
<!-- Node10 -->
<g id="node10" class="node">
<title>Node10</title>
<g id="a_node10"><a xlink:title=" ">
<polygon fill="white" stroke="#bfbfbf" points="387,-56.5 387,-75.5 431,-75.5 431,-56.5 387,-56.5"/>
<text text-anchor="middle" x="409" y="-63.5" font-family="Helvetica,sans-Serif" font-size="10.00">format</text>
</a>
</g>
</g>
<!-- Node6&#45;&gt;Node10 -->
<g id="edge10" class="edge">
<title>Node6&#45;&gt;Node10</title>
<path fill="none" stroke="midnightblue" d="M388.96,-112.08C392.21,-104.77 396.92,-94.18 400.95,-85.1"/>
<polygon fill="midnightblue" stroke="midnightblue" points="404.25,-86.31 405.11,-75.75 397.85,-83.47 404.25,-86.31"/>
</g>
<!-- Node7&#45;&gt;Node4 -->
<g id="edge8" class="edge">
<title>Node7&#45;&gt;Node4</title>
<path fill="none" stroke="midnightblue" d="M311.38,-57.6C275.33,-48.29 213.16,-32.23 172.05,-21.61"/>
<polygon fill="midnightblue" stroke="midnightblue" points="172.9,-18.21 162.34,-19.1 171.15,-24.99 172.9,-18.21"/>
</g>
<!-- Node7&#45;&gt;Node8 -->
<g id="edge7" class="edge">
<title>Node7&#45;&gt;Node8</title>
<path fill="none" stroke="midnightblue" d="M357.35,-56.32C374.67,-47.66 401.52,-34.24 421.5,-24.25"/>
<polygon fill="midnightblue" stroke="midnightblue" points="423.31,-27.26 430.69,-19.65 420.18,-21 423.31,-27.26"/>
</g>
<!-- Node11&#45;&gt;Node4 -->
<g id="edge15" class="edge">
<title>Node11&#45;&gt;Node4</title>
<path fill="none" stroke="midnightblue" d="M186.29,-112.37C176.48,-94.38 153.66,-52.55 140.61,-28.63"/>
<polygon fill="midnightblue" stroke="midnightblue" points="143.55,-26.69 135.69,-19.59 137.4,-30.05 143.55,-26.69"/>
</g>
<!-- Node11&#45;&gt;Node7 -->
<g id="edge12" class="edge">
<title>Node11&#45;&gt;Node7</title>
<path fill="none" stroke="midnightblue" d="M214.61,-112.44C239.46,-103.44 278.77,-89.19 306.75,-79.05"/>
<polygon fill="midnightblue" stroke="midnightblue" points="308.29,-82.21 316.5,-75.52 305.91,-75.63 308.29,-82.21"/>
</g>
<!-- Node11&#45;&gt;Node12 -->
<g id="edge13" class="edge">
<title>Node11&#45;&gt;Node12</title>
<path fill="none" stroke="midnightblue" d="M202.73,-112.32C213.84,-104.11 230.74,-91.6 243.98,-81.81"/>
<polygon fill="midnightblue" stroke="midnightblue" points="246.1,-84.59 252.06,-75.83 241.94,-78.97 246.1,-84.59"/>
</g>
<!-- Node13 -->
<g id="node13" class="node">
<title>Node13</title>
<g id="a_node13"><a xlink:title=" ">
<polygon fill="white" stroke="#bfbfbf" points="178,-56.5 178,-75.5 216,-75.5 216,-56.5 178,-56.5"/>
<text text-anchor="middle" x="197" y="-63.5" font-family="Helvetica,sans-Serif" font-size="10.00">tuple</text>
</a>
</g>
</g>
<!-- Node11&#45;&gt;Node13 -->
<g id="edge14" class="edge">
<title>Node11&#45;&gt;Node13</title>
<path fill="none" stroke="midnightblue" d="M191.99,-112.08C192.79,-104.93 193.93,-94.64 194.92,-85.69"/>
<polygon fill="midnightblue" stroke="midnightblue" points="198.4,-86.08 196.03,-75.75 191.44,-85.3 198.4,-86.08"/>
</g>
</g>
</svg>
