<?xml version="1.0" encoding="UTF-8" standalone="no"?>
<!DOCTYPE svg PUBLIC "-//W3C//DTD SVG 1.1//EN"
 "http://www.w3.org/Graphics/SVG/1.1/DTD/svg11.dtd">
<!-- Generated by graphviz version 9.0.0 (20230911.1827)
 -->
<!-- Title: /github/workspace/benchmark/update_1x1x0.cpp Pages: 1 -->
<svg width="1419pt" height="381pt"
 viewBox="0.00 0.00 1419.38 381.25" xmlns="http://www.w3.org/2000/svg" xmlns:xlink="http://www.w3.org/1999/xlink">
<g id="graph0" class="graph" transform="scale(1 1) rotate(0) translate(4 377.25)">
<title>/github/workspace/benchmark/update_1x1x0.cpp</title>
<!-- Node1 -->
<g id="Node000001" class="node">
<title>Node1</title>
<g id="a_Node000001"><a xlink:title=" ">
<polygon fill="#999999" stroke="#666666" points="441.88,-373.25 295.38,-373.25 295.38,-342.75 441.88,-342.75 441.88,-373.25"/>
<text text-anchor="start" x="303.38" y="-359.75" font-family="Helvetica,sans-Serif" font-size="10.00">/github/workspace/benchmark</text>
<text text-anchor="middle" x="368.62" y="-348.5" font-family="Helvetica,sans-Serif" font-size="10.00">/update_1x1x0.cpp</text>
</a>
</g>
</g>
<!-- Node2 -->
<g id="Node000002" class="node">
<title>Node2</title>
<g id="a_Node000002"><a xlink:href="benchmark_8hpp.xhtml" target="_top" xlink:title="Benchmarking support.">
<polygon fill="white" stroke="#666666" points="132.62,-306.75 50.62,-306.75 50.62,-287.5 132.62,-287.5 132.62,-306.75"/>
<text text-anchor="middle" x="91.62" y="-293.25" font-family="Helvetica,sans-Serif" font-size="10.00">benchmark.hpp</text>
</a>
</g>
</g>
<!-- Node1&#45;&gt;Node2 -->
<g id="edge1_Node000001_Node000002" class="edge">
<title>Node1&#45;&gt;Node2</title>
<g id="a_edge1_Node000001_Node000002"><a xlink:title=" ">
<path fill="none" stroke="#63b8ff" d="M299.44,-342.3C251.24,-332.05 187.94,-318.6 143.92,-309.24"/>
<polygon fill="#63b8ff" stroke="#63b8ff" points="144.88,-305.87 134.37,-307.21 143.42,-312.71 144.88,-305.87"/>
</a>
</g>
</g>
<!-- Node3 -->
<g id="Node000003" class="node">
<title>Node3</title>
<g id="a_Node000003"><a xlink:title=" ">
<polygon fill="#e0e0e0" stroke="#999999" points="45.25,-251.5 0,-251.5 0,-232.25 45.25,-232.25 45.25,-251.5"/>
<text text-anchor="middle" x="22.62" y="-238" font-family="Helvetica,sans-Serif" font-size="10.00">chrono</text>
</a>
</g>
</g>
<!-- Node1&#45;&gt;Node3 -->
<g id="edge55_Node000001_Node000003" class="edge">
<title>Node1&#45;&gt;Node3</title>
<g id="a_edge55_Node000001_Node000003"><a xlink:title=" ">
<path fill="none" stroke="#63b8ff" d="M295.17,-354.66C210.55,-350.47 78.42,-338.83 41.62,-306.75 29.21,-295.93 24.73,-277.4 23.2,-263.08"/>
<polygon fill="#63b8ff" stroke="#63b8ff" points="26.71,-263.14 22.58,-253.38 19.72,-263.58 26.71,-263.14"/>
</a>
</g>
</g>
<!-- Node5 -->
<g id="Node000005" class="node">
<title>Node5</title>
<g id="a_Node000005"><a xlink:href="kalman_8hpp.xhtml" target="_top" xlink:title="The Kalman filter class and library top&#45;level header.">
<polygon fill="white" stroke="#666666" points="355.62,-306.75 249.62,-306.75 249.62,-287.5 355.62,-287.5 355.62,-306.75"/>
<text text-anchor="middle" x="302.62" y="-293.25" font-family="Helvetica,sans-Serif" font-size="10.00">fcarouge/kalman.hpp</text>
</a>
</g>
</g>
<!-- Node1&#45;&gt;Node5 -->
<g id="edge4_Node000001_Node000005" class="edge">
<title>Node1&#45;&gt;Node5</title>
<g id="a_edge4_Node000001_Node000005"><a xlink:title=" ">
<path fill="none" stroke="#63b8ff" d="M352.31,-342.45C342.94,-334.09 331.13,-323.55 321.37,-314.85"/>
<polygon fill="#63b8ff" stroke="#63b8ff" points="323.72,-312.25 313.93,-308.21 319.06,-317.48 323.72,-312.25"/>
</a>
</g>
</g>
<!-- Node29 -->
<g id="Node000029" class="node">
<title>Node29</title>
<g id="a_Node000029"><a xlink:title=" ">
<polygon fill="#e0e0e0" stroke="#999999" points="495.88,-306.75 373.38,-306.75 373.38,-287.5 495.88,-287.5 495.88,-306.75"/>
<text text-anchor="middle" x="434.62" y="-293.25" font-family="Helvetica,sans-Serif" font-size="10.00">benchmark/benchmark.h</text>
</a>
</g>
</g>
<!-- Node1&#45;&gt;Node29 -->
<g id="edge53_Node000001_Node000029" class="edge">
<title>Node1&#45;&gt;Node29</title>
<g id="a_edge53_Node000001_Node000029"><a xlink:title=" ">
<path fill="none" stroke="#63b8ff" d="M384.94,-342.45C394.31,-334.09 406.12,-323.55 415.88,-314.85"/>
<polygon fill="#63b8ff" stroke="#63b8ff" points="418.19,-317.48 423.32,-308.21 413.53,-312.25 418.19,-317.48"/>
</a>
</g>
</g>
<!-- Node30 -->
<g id="Node000030" class="node">
<title>Node30</title>
<g id="a_Node000030"><a xlink:title=" ">
<polygon fill="#e0e0e0" stroke="#999999" points="569.5,-306.75 513.75,-306.75 513.75,-287.5 569.5,-287.5 569.5,-306.75"/>
<text text-anchor="middle" x="541.62" y="-293.25" font-family="Helvetica,sans-Serif" font-size="10.00">algorithm</text>
</a>
</g>
</g>
<!-- Node1&#45;&gt;Node30 -->
<g id="edge54_Node000001_Node000030" class="edge">
<title>Node1&#45;&gt;Node30</title>
<g id="a_edge54_Node000001_Node000030"><a xlink:title=" ">
<path fill="none" stroke="#63b8ff" d="M411.83,-342.3C440.25,-332.63 477.05,-320.1 504.21,-310.86"/>
<polygon fill="#63b8ff" stroke="#63b8ff" points="505.07,-314.26 513.41,-307.73 502.81,-307.64 505.07,-314.26"/>
</a>
</g>
</g>
<!-- Node31 -->
<g id="Node000031" class="node">
<title>Node31</title>
<g id="a_Node000031"><a xlink:title=" ">
<polygon fill="#e0e0e0" stroke="#999999" points="635.75,-306.75 587.5,-306.75 587.5,-287.5 635.75,-287.5 635.75,-306.75"/>
<text text-anchor="middle" x="611.62" y="-293.25" font-family="Helvetica,sans-Serif" font-size="10.00">random</text>
</a>
</g>
</g>
<!-- Node1&#45;&gt;Node31 -->
<g id="edge56_Node000001_Node000031" class="edge">
<title>Node1&#45;&gt;Node31</title>
<g id="a_edge56_Node000001_Node000031"><a xlink:title=" ">
<path fill="none" stroke="#63b8ff" d="M431.65,-342.28C470.71,-333.07 522.2,-320.79 575.98,-307.38"/>
<polygon fill="#63b8ff" stroke="#63b8ff" points="576.81,-310.78 585.66,-304.95 575.11,-303.99 576.81,-310.78"/>
</a>
</g>
</g>
<!-- Node2&#45;&gt;Node3 -->
<g id="edge2_Node000002_Node000003" class="edge">
<title>Node2&#45;&gt;Node3</title>
<g id="a_edge2_Node000002_Node000003"><a xlink:title=" ">
<path fill="none" stroke="#63b8ff" d="M79.92,-287.09C69.85,-279.32 55.08,-267.92 43.06,-258.65"/>
<polygon fill="#63b8ff" stroke="#63b8ff" points="45.41,-256.04 35.36,-252.7 41.13,-261.58 45.41,-256.04"/>
</a>
</g>
</g>
<!-- Node4 -->
<g id="Node000004" class="node">
<title>Node4</title>
<g id="a_Node000004"><a xlink:title=" ">
<polygon fill="#e0e0e0" stroke="#999999" points="315.12,-19.25 254.12,-19.25 254.12,0 315.12,0 315.12,-19.25"/>
<text text-anchor="middle" x="284.62" y="-5.75" font-family="Helvetica,sans-Serif" font-size="10.00">type_traits</text>
</a>
</g>
</g>
<!-- Node2&#45;&gt;Node4 -->
<g id="edge3_Node000002_Node000004" class="edge">
<title>Node2&#45;&gt;Node4</title>
<g id="a_edge3_Node000002_Node000004"><a xlink:title=" ">
<path fill="none" stroke="#63b8ff" d="M89.2,-287.03C84.28,-267.8 73.62,-221.51 73.62,-182 73.62,-182 73.62,-182 73.62,-119.12 73.62,-43.86 181.12,-20.76 242.66,-13.7"/>
<polygon fill="#63b8ff" stroke="#63b8ff" points="242.85,-17.2 252.44,-12.69 242.13,-10.24 242.85,-17.2"/>
</a>
</g>
</g>
<!-- Node5&#45;&gt;Node4 -->
<g id="edge50_Node000005_Node000004" class="edge">
<title>Node5&#45;&gt;Node4</title>
<g id="a_edge50_Node000005_Node000004"><a xlink:title=" ">
<path fill="none" stroke="#63b8ff" d="M249.17,-287.67C192.66,-275.33 111.62,-246.41 111.62,-182 111.62,-182 111.62,-182 111.62,-119.12 111.62,-57.49 191.41,-29.53 242.62,-17.93"/>
<polygon fill="#63b8ff" stroke="#63b8ff" points="243.16,-21.39 252.22,-15.89 241.71,-14.55 243.16,-21.39"/>
</a>
</g>
</g>
<!-- Node6 -->
<g id="Node000006" class="node">
<title>Node6</title>
<g id="a_Node000006"><a xlink:href="factory_8hpp.xhtml" target="_top" xlink:title=" ">
<polygon fill="white" stroke="#666666" points="794.5,-251.5 696.75,-251.5 696.75,-232.25 794.5,-232.25 794.5,-251.5"/>
<text text-anchor="middle" x="745.62" y="-238" font-family="Helvetica,sans-Serif" font-size="10.00">internal/factory.hpp</text>
</a>
</g>
</g>
<!-- Node5&#45;&gt;Node6 -->
<g id="edge5_Node000005_Node000006" class="edge">
<title>Node5&#45;&gt;Node6</title>
<g id="a_edge5_Node000005_Node000006"><a xlink:title=" ">
<path fill="none" stroke="#63b8ff" d="M356.05,-288.62C358.95,-288.23 361.82,-287.86 364.62,-287.5 477.72,-273.01 609.96,-257.94 685.15,-249.55"/>
<polygon fill="#63b8ff" stroke="#63b8ff" points="685.21,-253.06 694.76,-248.48 684.43,-246.11 685.21,-253.06"/>
</a>
</g>
</g>
<!-- Node8 -->
<g id="Node000008" class="node">
<title>Node8</title>
<g id="a_Node000008"><a xlink:href="utility_8hpp.xhtml" target="_top" xlink:title="The collection of utilities supporting the library.">
<polygon fill="white" stroke="#666666" points="890.12,-129.75 793.12,-129.75 793.12,-110.5 890.12,-110.5 890.12,-129.75"/>
<text text-anchor="middle" x="841.62" y="-116.25" font-family="Helvetica,sans-Serif" font-size="10.00">fcarouge/utility.hpp</text>
</a>
</g>
</g>
<!-- Node5&#45;&gt;Node8 -->
<g id="edge46_Node000005_Node000008" class="edge">
<title>Node5&#45;&gt;Node8</title>
<g id="a_edge46_Node000005_Node000008"><a xlink:title=" ">
<path fill="none" stroke="#63b8ff" d="M356.04,-288.5C358.94,-288.15 361.82,-287.81 364.62,-287.5 461.92,-276.75 714.48,-291.93 803.62,-251.5 835.76,-236.93 846.87,-228.74 860.62,-196.25 868.39,-177.91 860.82,-155.65 853.05,-140.15"/>
<polygon fill="#63b8ff" stroke="#63b8ff" points="856.2,-138.6 848.31,-131.53 850.06,-141.98 856.2,-138.6"/>
</a>
</g>
</g>
<!-- Node10 -->
<g id="Node000010" class="node">
<title>Node10</title>
<g id="a_Node000010"><a xlink:title=" ">
<polygon fill="#e0e0e0" stroke="#999999" points="641.5,-19.25 585.75,-19.25 585.75,0 641.5,0 641.5,-19.25"/>
<text text-anchor="middle" x="613.62" y="-5.75" font-family="Helvetica,sans-Serif" font-size="10.00">concepts</text>
</a>
</g>
</g>
<!-- Node5&#45;&gt;Node10 -->
<g id="edge47_Node000005_Node000010" class="edge">
<title>Node5&#45;&gt;Node10</title>
<g id="a_edge47_Node000005_Node000010"><a xlink:title=" ">
<path fill="none" stroke="#63b8ff" d="M325.03,-287.12C340.59,-279.75 360.6,-267.88 372.62,-251.5 411.03,-199.18 369.39,-160.62 410.62,-110.5 452.95,-59.05 528.31,-31.93 574.35,-19.49"/>
<polygon fill="#63b8ff" stroke="#63b8ff" points="575.11,-22.91 583.91,-17.02 573.36,-16.13 575.11,-22.91"/>
</a>
</g>
</g>
<!-- Node13 -->
<g id="Node000013" class="node">
<title>Node13</title>
<g id="a_Node000013"><a xlink:title=" ">
<polygon fill="#e0e0e0" stroke="#999999" points="457.88,-129.75 419.38,-129.75 419.38,-110.5 457.88,-110.5 457.88,-129.75"/>
<text text-anchor="middle" x="438.62" y="-116.25" font-family="Helvetica,sans-Serif" font-size="10.00">utility</text>
</a>
</g>
</g>
<!-- Node5&#45;&gt;Node13 -->
<g id="edge51_Node000005_Node000013" class="edge">
<title>Node5&#45;&gt;Node13</title>
<g id="a_edge51_Node000005_Node000013"><a xlink:title=" ">
<path fill="none" stroke="#63b8ff" d="M300.31,-287.31C298.08,-278.37 294.88,-264.08 293.62,-251.5 289.66,-211.74 292.03,-193.66 320.62,-165.75 344.41,-142.53 381.46,-131.16 407.69,-125.75"/>
<polygon fill="#63b8ff" stroke="#63b8ff" points="408.22,-129.21 417.41,-123.94 406.94,-122.33 408.22,-129.21"/>
</a>
</g>
</g>
<!-- Node22 -->
<g id="Node000022" class="node">
<title>Node22</title>
<g id="a_Node000022"><a xlink:href="format_8hpp.xhtml" target="_top" xlink:title=" ">
<polygon fill="white" stroke="#666666" points="273.75,-190.62 177.5,-190.62 177.5,-171.38 273.75,-171.38 273.75,-190.62"/>
<text text-anchor="middle" x="225.62" y="-177.12" font-family="Helvetica,sans-Serif" font-size="10.00">internal/format.hpp</text>
</a>
</g>
</g>
<!-- Node5&#45;&gt;Node22 -->
<g id="edge38_Node000005_Node000022" class="edge">
<title>Node5&#45;&gt;Node22</title>
<g id="a_edge38_Node000005_Node000022"><a xlink:title=" ">
<path fill="none" stroke="#63b8ff" d="M292.47,-287.31C283.11,-278.81 269.25,-265.25 259.62,-251.5 248.56,-235.7 239.21,-215.75 233.13,-201.29"/>
<polygon fill="#63b8ff" stroke="#63b8ff" points="236.55,-200.41 229.56,-192.45 230.06,-203.03 236.55,-200.41"/>
</a>
</g>
</g>
<!-- Node23 -->
<g id="Node000023" class="node">
<title>Node23</title>
<g id="a_Node000023"><a xlink:title=" ">
<polygon fill="#e0e0e0" stroke="#999999" points="187.75,-129.75 139.5,-129.75 139.5,-110.5 187.75,-110.5 187.75,-129.75"/>
<text text-anchor="middle" x="163.62" y="-116.25" font-family="Helvetica,sans-Serif" font-size="10.00">cstddef</text>
</a>
</g>
</g>
<!-- Node5&#45;&gt;Node23 -->
<g id="edge48_Node000005_Node000023" class="edge">
<title>Node5&#45;&gt;Node23</title>
<g id="a_edge48_Node000005_Node000023"><a xlink:title=" ">
<path fill="none" stroke="#63b8ff" d="M280.81,-287.07C249.7,-272.86 193.59,-242.12 168.62,-196.25 159.45,-179.4 159.16,-157.18 160.57,-141.28"/>
<polygon fill="#63b8ff" stroke="#63b8ff" points="164.01,-141.97 161.75,-131.62 157.06,-141.12 164.01,-141.97"/>
</a>
</g>
</g>
<!-- Node25 -->
<g id="Node000025" class="node">
<title>Node25</title>
<g id="a_Node000025"><a xlink:href="printer_8hpp.xhtml" target="_top" xlink:title=" ">
<polygon fill="white" stroke="#666666" points="363.12,-251.5 302.12,-251.5 302.12,-232.25 363.12,-232.25 363.12,-251.5"/>
<text text-anchor="middle" x="332.62" y="-238" font-family="Helvetica,sans-Serif" font-size="10.00">printer.hpp</text>
</a>
</g>
</g>
<!-- Node5&#45;&gt;Node25 -->
<g id="edge44_Node000005_Node000025" class="edge">
<title>Node5&#45;&gt;Node25</title>
<g id="a_edge44_Node000005_Node000025"><a xlink:title=" ">
<path fill="none" stroke="#63b8ff" d="M307.58,-287.33C311.51,-280.36 317.14,-270.37 322.06,-261.62"/>
<polygon fill="#63b8ff" stroke="#63b8ff" points="324.96,-263.61 326.82,-253.18 318.86,-260.17 324.96,-263.61"/>
</a>
</g>
</g>
<!-- Node27 -->
<g id="Node000027" class="node">
<title>Node27</title>
<g id="a_Node000027"><a xlink:title=" ">
<polygon fill="#e0e0e0" stroke="#999999" points="477.62,-251.5 419.62,-251.5 419.62,-232.25 477.62,-232.25 477.62,-251.5"/>
<text text-anchor="middle" x="448.62" y="-238" font-family="Helvetica,sans-Serif" font-size="10.00">functional</text>
</a>
</g>
</g>
<!-- Node5&#45;&gt;Node27 -->
<g id="edge49_Node000005_Node000027" class="edge">
<title>Node5&#45;&gt;Node27</title>
<g id="a_edge49_Node000005_Node000027"><a xlink:title=" ">
<path fill="none" stroke="#63b8ff" d="M327.39,-287.09C350.88,-278.52 386.44,-265.56 412.98,-255.88"/>
<polygon fill="#63b8ff" stroke="#63b8ff" points="414.12,-259.19 422.31,-252.47 411.72,-252.61 414.12,-259.19"/>
</a>
</g>
</g>
<!-- Node28 -->
<g id="Node000028" class="node">
<title>Node28</title>
<g id="a_Node000028"><a xlink:title=" ">
<polygon fill="#e0e0e0" stroke="#999999" points="593.5,-251.5 495.75,-251.5 495.75,-232.25 593.5,-232.25 593.5,-251.5"/>
<text text-anchor="middle" x="544.62" y="-238" font-family="Helvetica,sans-Serif" font-size="10.00">internal/kalman.tpp</text>
</a>
</g>
</g>
<!-- Node5&#45;&gt;Node28 -->
<g id="edge52_Node000005_Node000028" class="edge">
<title>Node5&#45;&gt;Node28</title>
<g id="a_edge52_Node000005_Node000028"><a xlink:title=" ">
<path fill="none" stroke="#63b8ff" d="M343.95,-287.03C384.93,-278.01 447.86,-264.17 492.31,-254.39"/>
<polygon fill="#63b8ff" stroke="#63b8ff" points="492.98,-257.82 501.99,-252.26 491.47,-250.99 492.98,-257.82"/>
</a>
</g>
</g>
<!-- Node6&#45;&gt;Node4 -->
<g id="edge37_Node000006_Node000004" class="edge">
<title>Node6&#45;&gt;Node4</title>
<g id="a_edge37_Node000006_Node000004"><a xlink:title=" ">
<path fill="none" stroke="#63b8ff" d="M696.45,-237.52C623.63,-231.87 491.26,-218.83 449.62,-196.25 375.11,-155.84 317.73,-68.03 295.12,-29.45"/>
<polygon fill="#63b8ff" stroke="#63b8ff" points="298.21,-27.81 290.21,-20.87 292.14,-31.28 298.21,-27.81"/>
</a>
</g>
</g>
<!-- Node7 -->
<g id="Node000007" class="node">
<title>Node7</title>
<g id="a_Node000007"><a xlink:href="type_8hpp.xhtml" target="_top" xlink:title=" ">
<polygon fill="white" stroke="#666666" points="585.12,-190.62 458.12,-190.62 458.12,-171.38 585.12,-171.38 585.12,-190.62"/>
<text text-anchor="middle" x="521.62" y="-177.12" font-family="Helvetica,sans-Serif" font-size="10.00">fcarouge/internal/type.hpp</text>
</a>
</g>
</g>
<!-- Node6&#45;&gt;Node7 -->
<g id="edge6_Node000006_Node000007" class="edge">
<title>Node6&#45;&gt;Node7</title>
<g id="a_edge6_Node000006_Node000007"><a xlink:title=" ">
<path fill="none" stroke="#63b8ff" d="M711.12,-231.8C672.48,-221.65 609.7,-205.15 567.08,-193.95"/>
<polygon fill="#63b8ff" stroke="#63b8ff" points="568.2,-190.62 557.64,-191.47 566.42,-197.39 568.2,-190.62"/>
</a>
</g>
</g>
<!-- Node6&#45;&gt;Node10 -->
<g id="edge36_Node000006_Node000010" class="edge">
<title>Node6&#45;&gt;Node10</title>
<g id="a_edge36_Node000006_Node000010"><a xlink:title=" ">
<path fill="none" stroke="#63b8ff" d="M696.49,-233.48C673.48,-227.4 647.85,-216.34 632.62,-196.25 595.18,-146.82 603.11,-67.52 609.49,-30.66"/>
<polygon fill="#63b8ff" stroke="#63b8ff" points="612.9,-31.48 611.33,-21 606.02,-30.17 612.9,-31.48"/>
</a>
</g>
</g>
<!-- Node14 -->
<g id="Node000014" class="node">
<title>Node14</title>
<g id="a_Node000014"><a xlink:href="x__z__p__q__r__h__f_8hpp.xhtml" target="_top" xlink:title=" ">
<polygon fill="white" stroke="#666666" points="737.38,-196.25 641.88,-196.25 641.88,-165.75 737.38,-165.75 737.38,-196.25"/>
<text text-anchor="start" x="649.88" y="-182.75" font-family="Helvetica,sans-Serif" font-size="10.00">fcarouge/internal/x</text>
<text text-anchor="middle" x="689.62" y="-171.5" font-family="Helvetica,sans-Serif" font-size="10.00">_z_p_q_r_h_f.hpp</text>
</a>
</g>
</g>
<!-- Node6&#45;&gt;Node14 -->
<g id="edge15_Node000006_Node000014" class="edge">
<title>Node6&#45;&gt;Node14</title>
<g id="a_edge15_Node000006_Node000014"><a xlink:title=" ">
<path fill="none" stroke="#63b8ff" d="M737.12,-231.93C730.28,-224.74 720.36,-214.31 711.35,-204.84"/>
<polygon fill="#63b8ff" stroke="#63b8ff" points="713.92,-202.46 704.49,-197.63 708.85,-207.29 713.92,-202.46"/>
</a>
</g>
</g>
<!-- Node15 -->
<g id="Node000015" class="node">
<title>Node15</title>
<g id="a_Node000015"><a xlink:href="x__z__p__q__r__hh__us__ps_8hpp.xhtml" target="_top" xlink:title=" ">
<polygon fill="white" stroke="#666666" points="1297.75,-196.25 1177.5,-196.25 1177.5,-165.75 1297.75,-165.75 1297.75,-196.25"/>
<text text-anchor="start" x="1185.5" y="-182.75" font-family="Helvetica,sans-Serif" font-size="10.00">fcarouge/internal/x</text>
<text text-anchor="middle" x="1237.62" y="-171.5" font-family="Helvetica,sans-Serif" font-size="10.00">_z_p_q_r_hh_us_ps.hpp</text>
</a>
</g>
</g>
<!-- Node6&#45;&gt;Node15 -->
<g id="edge17_Node000006_Node000015" class="edge">
<title>Node6&#45;&gt;Node15</title>
<g id="a_edge17_Node000006_Node000015"><a xlink:title=" ">
<path fill="none" stroke="#63b8ff" d="M794.68,-237.28C871.63,-231.29 1025.61,-217.93 1165.75,-196.6"/>
<polygon fill="#63b8ff" stroke="#63b8ff" points="1166.26,-200.06 1175.61,-195.08 1165.19,-193.15 1166.26,-200.06"/>
</a>
</g>
</g>
<!-- Node18 -->
<g id="Node000018" class="node">
<title>Node18</title>
<g id="a_Node000018"><a xlink:href="x__z__p__qq__rr__f_8hpp.xhtml" target="_top" xlink:title=" ">
<polygon fill="white" stroke="#666666" points="1411.38,-196.25 1315.88,-196.25 1315.88,-165.75 1411.38,-165.75 1411.38,-196.25"/>
<text text-anchor="start" x="1323.88" y="-182.75" font-family="Helvetica,sans-Serif" font-size="10.00">fcarouge/internal/x</text>
<text text-anchor="middle" x="1363.62" y="-171.5" font-family="Helvetica,sans-Serif" font-size="10.00">_z_p_qq_rr_f.hpp</text>
</a>
</g>
</g>
<!-- Node6&#45;&gt;Node18 -->
<g id="edge22_Node000006_Node000018" class="edge">
<title>Node6&#45;&gt;Node18</title>
<g id="a_edge22_Node000006_Node000018"><a xlink:title=" ">
<path fill="none" stroke="#63b8ff" d="M794.73,-239.7C890.82,-236.81 1110.51,-227.31 1304.29,-196.44"/>
<polygon fill="#63b8ff" stroke="#63b8ff" points="1304.73,-199.91 1314.05,-194.86 1303.61,-193 1304.73,-199.91"/>
</a>
</g>
</g>
<!-- Node19 -->
<g id="Node000019" class="node">
<title>Node19</title>
<g id="a_Node000019"><a xlink:href="x__z__p__r__f_8hpp.xhtml" target="_top" xlink:title=" ">
<polygon fill="white" stroke="#666666" points="851.38,-196.25 755.88,-196.25 755.88,-165.75 851.38,-165.75 851.38,-196.25"/>
<text text-anchor="start" x="763.88" y="-182.75" font-family="Helvetica,sans-Serif" font-size="10.00">fcarouge/internal/x</text>
<text text-anchor="middle" x="803.62" y="-171.5" font-family="Helvetica,sans-Serif" font-size="10.00">_z_p_r_f.hpp</text>
</a>
</g>
</g>
<!-- Node6&#45;&gt;Node19 -->
<g id="edge26_Node000006_Node000019" class="edge">
<title>Node6&#45;&gt;Node19</title>
<g id="a_edge26_Node000006_Node000019"><a xlink:title=" ">
<path fill="none" stroke="#63b8ff" d="M754.43,-231.93C761.59,-224.67 772.01,-214.1 781.41,-204.55"/>
<polygon fill="#63b8ff" stroke="#63b8ff" points="783.72,-207.19 788.25,-197.61 778.74,-202.28 783.72,-207.19"/>
</a>
</g>
</g>
<!-- Node20 -->
<g id="Node000020" class="node">
<title>Node20</title>
<g id="a_Node000020"><a xlink:href="x__z__u__p__q__r__f__g__ps_8hpp.xhtml" target="_top" xlink:title=" ">
<polygon fill="white" stroke="#666666" points="1025.62,-196.25 907.62,-196.25 907.62,-165.75 1025.62,-165.75 1025.62,-196.25"/>
<text text-anchor="start" x="915.62" y="-182.75" font-family="Helvetica,sans-Serif" font-size="10.00">fcarouge/internal/x</text>
<text text-anchor="middle" x="966.62" y="-171.5" font-family="Helvetica,sans-Serif" font-size="10.00">_z_u_p_q_r_f_g_ps.hpp</text>
</a>
</g>
</g>
<!-- Node6&#45;&gt;Node20 -->
<g id="edge28_Node000006_Node000020" class="edge">
<title>Node6&#45;&gt;Node20</title>
<g id="a_edge28_Node000006_Node000020"><a xlink:title=" ">
<path fill="none" stroke="#63b8ff" d="M779.67,-231.8C811.77,-223.25 860.74,-210.21 900.51,-199.61"/>
<polygon fill="#63b8ff" stroke="#63b8ff" points="901.24,-203.04 910,-197.08 899.44,-196.28 901.24,-203.04"/>
</a>
</g>
</g>
<!-- Node21 -->
<g id="Node000021" class="node">
<title>Node21</title>
<g id="a_Node000021"><a xlink:href="x__z__u__p__q__r__us__ps_8hpp.xhtml" target="_top" xlink:title=" ">
<polygon fill="white" stroke="#666666" points="1159.12,-196.25 1044.12,-196.25 1044.12,-165.75 1159.12,-165.75 1159.12,-196.25"/>
<text text-anchor="start" x="1052.12" y="-182.75" font-family="Helvetica,sans-Serif" font-size="10.00">fcarouge/internal/x</text>
<text text-anchor="middle" x="1101.62" y="-171.5" font-family="Helvetica,sans-Serif" font-size="10.00">_z_u_p_q_r_us_ps.hpp</text>
</a>
</g>
</g>
<!-- Node6&#45;&gt;Node21 -->
<g id="edge32_Node000006_Node000021" class="edge">
<title>Node6&#45;&gt;Node21</title>
<g id="a_edge32_Node000006_Node000021"><a xlink:title=" ">
<path fill="none" stroke="#63b8ff" d="M794.86,-234.14C850.18,-226.37 942.93,-212.78 1032.71,-196.53"/>
<polygon fill="#63b8ff" stroke="#63b8ff" points="1033.22,-200 1042.43,-194.76 1031.97,-193.11 1033.22,-200"/>
</a>
</g>
</g>
<!-- Node7&#45;&gt;Node4 -->
<g id="edge13_Node000007_Node000004" class="edge">
<title>Node7&#45;&gt;Node4</title>
<g id="a_edge13_Node000007_Node000004"><a xlink:title=" ">
<path fill="none" stroke="#63b8ff" d="M516.14,-170.95C507.17,-156.73 488.18,-128.85 466.62,-110.5 420.46,-71.21 356.4,-40.44 317.88,-23.95"/>
<polygon fill="#63b8ff" stroke="#63b8ff" points="319.7,-20.92 309.13,-20.27 316.99,-27.37 319.7,-20.92"/>
</a>
</g>
</g>
<!-- Node7&#45;&gt;Node8 -->
<g id="edge7_Node000007_Node000008" class="edge">
<title>Node7&#45;&gt;Node8</title>
<g id="a_edge7_Node000007_Node000008"><a xlink:title=" ">
<path fill="none" stroke="#63b8ff" d="M570.92,-170.93C627.7,-160.48 720.95,-143.33 781.82,-132.13"/>
<polygon fill="#63b8ff" stroke="#63b8ff" points="782.11,-135.63 791.31,-130.38 780.84,-128.75 782.11,-135.63"/>
</a>
</g>
</g>
<!-- Node12 -->
<g id="Node000012" class="node">
<title>Node12</title>
<g id="a_Node000012"><a xlink:title=" ">
<polygon fill="#e0e0e0" stroke="#999999" points="585.38,-129.75 513.88,-129.75 513.88,-110.5 585.38,-110.5 585.38,-129.75"/>
<text text-anchor="middle" x="549.62" y="-116.25" font-family="Helvetica,sans-Serif" font-size="10.00">initializer_list</text>
</a>
</g>
</g>
<!-- Node7&#45;&gt;Node12 -->
<g id="edge12_Node000007_Node000012" class="edge">
<title>Node7&#45;&gt;Node12</title>
<g id="a_edge12_Node000007_Node000012"><a xlink:title=" ">
<path fill="none" stroke="#63b8ff" d="M525.88,-171.06C529.74,-162.93 535.57,-150.67 540.49,-140.33"/>
<polygon fill="#63b8ff" stroke="#63b8ff" points="543.55,-142.05 544.68,-131.52 537.23,-139.05 543.55,-142.05"/>
</a>
</g>
</g>
<!-- Node7&#45;&gt;Node13 -->
<g id="edge14_Node000007_Node000013" class="edge">
<title>Node7&#45;&gt;Node13</title>
<g id="a_edge14_Node000007_Node000013"><a xlink:title=" ">
<path fill="none" stroke="#63b8ff" d="M509.02,-171.06C496.22,-161.98 476.15,-147.74 460.71,-136.79"/>
<polygon fill="#63b8ff" stroke="#63b8ff" points="462.77,-133.96 452.58,-131.03 458.72,-139.67 462.77,-133.96"/>
</a>
</g>
</g>
<!-- Node9 -->
<g id="Node000009" class="node">
<title>Node9</title>
<g id="a_Node000009"><a xlink:href="internal_2utility_8hpp.xhtml" target="_top" xlink:title=" ">
<polygon fill="white" stroke="#666666" points="733.12,-74.5 642.12,-74.5 642.12,-55.25 733.12,-55.25 733.12,-74.5"/>
<text text-anchor="middle" x="687.62" y="-61" font-family="Helvetica,sans-Serif" font-size="10.00">internal/utility.hpp</text>
</a>
</g>
</g>
<!-- Node8&#45;&gt;Node9 -->
<g id="edge8_Node000008_Node000009" class="edge">
<title>Node8&#45;&gt;Node9</title>
<g id="a_edge8_Node000008_Node000009"><a xlink:title=" ">
<path fill="none" stroke="#63b8ff" d="M815.5,-110.09C790.5,-101.45 752.55,-88.32 724.48,-78.62"/>
<polygon fill="#63b8ff" stroke="#63b8ff" points="725.9,-75.41 715.31,-75.45 723.61,-82.02 725.9,-75.41"/>
</a>
</g>
</g>
<!-- Node9&#45;&gt;Node4 -->
<g id="edge11_Node000009_Node000004" class="edge">
<title>Node9&#45;&gt;Node4</title>
<g id="a_edge11_Node000009_Node000004"><a xlink:title=" ">
<path fill="none" stroke="#63b8ff" d="M641.79,-57.82C562.9,-47.4 402.64,-26.22 326.55,-16.16"/>
<polygon fill="#63b8ff" stroke="#63b8ff" points="327.39,-12.75 317.02,-14.9 326.47,-19.68 327.39,-12.75"/>
</a>
</g>
</g>
<!-- Node9&#45;&gt;Node10 -->
<g id="edge9_Node000009_Node000010" class="edge">
<title>Node9&#45;&gt;Node10</title>
<g id="a_edge9_Node000009_Node000010"><a xlink:title=" ">
<path fill="none" stroke="#63b8ff" d="M675.07,-54.84C664.16,-46.99 648.12,-35.45 635.16,-26.12"/>
<polygon fill="#63b8ff" stroke="#63b8ff" points="637.38,-23.41 627.22,-20.41 633.29,-29.09 637.38,-23.41"/>
</a>
</g>
</g>
<!-- Node11 -->
<g id="Node000011" class="node">
<title>Node11</title>
<g id="a_Node000011"><a xlink:title=" ">
<polygon fill="#e0e0e0" stroke="#999999" points="1021.12,-19.25 984.12,-19.25 984.12,0 1021.12,0 1021.12,-19.25"/>
<text text-anchor="middle" x="1002.62" y="-5.75" font-family="Helvetica,sans-Serif" font-size="10.00">tuple</text>
</a>
</g>
</g>
<!-- Node9&#45;&gt;Node11 -->
<g id="edge10_Node000009_Node000011" class="edge">
<title>Node9&#45;&gt;Node11</title>
<g id="a_edge10_Node000009_Node000011"><a xlink:title=" ">
<path fill="none" stroke="#63b8ff" d="M733.43,-56.13C798.92,-45.06 917.51,-25.01 972.78,-15.67"/>
<polygon fill="#63b8ff" stroke="#63b8ff" points="973.11,-19.16 982.38,-14.05 971.94,-12.26 973.11,-19.16"/>
</a>
</g>
</g>
<!-- Node14&#45;&gt;Node8 -->
<g id="edge16_Node000014_Node000008" class="edge">
<title>Node14&#45;&gt;Node8</title>
<g id="a_edge16_Node000014_Node000008"><a xlink:title=" ">
<path fill="none" stroke="#63b8ff" d="M727.59,-165.3C752.18,-155.77 783.94,-143.47 807.69,-134.27"/>
<polygon fill="#63b8ff" stroke="#63b8ff" points="808.84,-137.58 816.9,-130.7 806.31,-131.05 808.84,-137.58"/>
</a>
</g>
</g>
<!-- Node15&#45;&gt;Node8 -->
<g id="edge18_Node000015_Node000008" class="edge">
<title>Node15&#45;&gt;Node8</title>
<g id="a_edge18_Node000015_Node000008"><a xlink:title=" ">
<path fill="none" stroke="#63b8ff" d="M1177.09,-167.25C1174.23,-166.73 1171.4,-166.22 1168.62,-165.75 1075.93,-149.87 967.66,-136.01 901.91,-128.1"/>
<polygon fill="#63b8ff" stroke="#63b8ff" points="902.38,-124.64 892.04,-126.93 901.55,-131.59 902.38,-124.64"/>
</a>
</g>
</g>
<!-- Node15&#45;&gt;Node11 -->
<g id="edge21_Node000015_Node000011" class="edge">
<title>Node15&#45;&gt;Node11</title>
<g id="a_edge21_Node000015_Node000011"><a xlink:title=" ">
<path fill="none" stroke="#63b8ff" d="M1231.73,-165.25C1220.52,-139.09 1193.63,-84.59 1153.62,-55.25 1117.3,-28.61 1065.19,-17.78 1032.65,-13.44"/>
<polygon fill="#63b8ff" stroke="#63b8ff" points="1033.46,-10.01 1023.12,-12.3 1032.63,-16.96 1033.46,-10.01"/>
</a>
</g>
</g>
<!-- Node16 -->
<g id="Node000016" class="node">
<title>Node16</title>
<g id="a_Node000016"><a xlink:href="function_8hpp.xhtml" target="_top" xlink:title=" ">
<polygon fill="white" stroke="#666666" points="1153.88,-129.75 1085.38,-129.75 1085.38,-110.5 1153.88,-110.5 1153.88,-129.75"/>
<text text-anchor="middle" x="1119.62" y="-116.25" font-family="Helvetica,sans-Serif" font-size="10.00">function.hpp</text>
</a>
</g>
</g>
<!-- Node15&#45;&gt;Node16 -->
<g id="edge19_Node000015_Node000016" class="edge">
<title>Node15&#45;&gt;Node16</title>
<g id="a_edge19_Node000015_Node000016"><a xlink:title=" ">
<path fill="none" stroke="#63b8ff" d="M1208.15,-165.3C1189.75,-156.11 1166.18,-144.36 1147.99,-135.28"/>
<polygon fill="#63b8ff" stroke="#63b8ff" points="1149.59,-132.16 1139.08,-130.83 1146.46,-138.43 1149.59,-132.16"/>
</a>
</g>
</g>
<!-- Node17 -->
<g id="Node000017" class="node">
<title>Node17</title>
<g id="a_Node000017"><a xlink:title=" ">
<polygon fill="#e0e0e0" stroke="#999999" points="1144.88,-74.5 1094.38,-74.5 1094.38,-55.25 1144.88,-55.25 1144.88,-74.5"/>
<text text-anchor="middle" x="1119.62" y="-61" font-family="Helvetica,sans-Serif" font-size="10.00">memory</text>
</a>
</g>
</g>
<!-- Node16&#45;&gt;Node17 -->
<g id="edge20_Node000016_Node000017" class="edge">
<title>Node16&#45;&gt;Node17</title>
<g id="a_edge20_Node000016_Node000017"><a xlink:title=" ">
<path fill="none" stroke="#63b8ff" d="M1119.62,-110.33C1119.62,-103.82 1119.62,-94.67 1119.62,-86.37"/>
<polygon fill="#63b8ff" stroke="#63b8ff" points="1123.13,-86.37 1119.63,-76.37 1116.13,-86.37 1123.13,-86.37"/>
</a>
</g>
</g>
<!-- Node18&#45;&gt;Node8 -->
<g id="edge23_Node000018_Node000008" class="edge">
<title>Node18&#45;&gt;Node8</title>
<g id="a_edge23_Node000018_Node000008"><a xlink:title=" ">
<path fill="none" stroke="#63b8ff" d="M1315.53,-167.44C1312.53,-166.82 1309.54,-166.25 1306.62,-165.75 1162.63,-140.98 991.01,-128.97 901.96,-124.03"/>
<polygon fill="#63b8ff" stroke="#63b8ff" points="902.16,-120.54 891.99,-123.49 901.78,-127.53 902.16,-120.54"/>
</a>
</g>
</g>
<!-- Node18&#45;&gt;Node11 -->
<g id="edge25_Node000018_Node000011" class="edge">
<title>Node18&#45;&gt;Node11</title>
<g id="a_edge25_Node000018_Node000011"><a xlink:title=" ">
<path fill="none" stroke="#63b8ff" d="M1346.25,-165.42C1314.55,-139.55 1244.34,-85.46 1176.62,-55.25 1128.52,-33.79 1068.15,-21.22 1032.64,-15.15"/>
<polygon fill="#63b8ff" stroke="#63b8ff" points="1033.53,-11.75 1023.09,-13.59 1032.39,-18.66 1033.53,-11.75"/>
</a>
</g>
</g>
<!-- Node18&#45;&gt;Node16 -->
<g id="edge24_Node000018_Node000016" class="edge">
<title>Node18&#45;&gt;Node16</title>
<g id="a_edge24_Node000018_Node000016"><a xlink:title=" ">
<path fill="none" stroke="#63b8ff" d="M1315.43,-167.91C1312.45,-167.18 1309.5,-166.45 1306.62,-165.75 1258.44,-153.98 1203.17,-140.83 1165.29,-131.88"/>
<polygon fill="#63b8ff" stroke="#63b8ff" points="1166.13,-128.48 1155.59,-129.59 1164.52,-135.29 1166.13,-128.48"/>
</a>
</g>
</g>
<!-- Node19&#45;&gt;Node8 -->
<g id="edge27_Node000019_Node000008" class="edge">
<title>Node19&#45;&gt;Node8</title>
<g id="a_edge27_Node000019_Node000008"><a xlink:title=" ">
<path fill="none" stroke="#63b8ff" d="M813.02,-165.45C818.03,-157.69 824.24,-148.06 829.6,-139.76"/>
<polygon fill="#63b8ff" stroke="#63b8ff" points="832.46,-141.77 834.95,-131.47 826.58,-137.98 832.46,-141.77"/>
</a>
</g>
</g>
<!-- Node20&#45;&gt;Node8 -->
<g id="edge29_Node000020_Node000008" class="edge">
<title>Node20&#45;&gt;Node8</title>
<g id="a_edge29_Node000020_Node000008"><a xlink:title=" ">
<path fill="none" stroke="#63b8ff" d="M935.4,-165.3C915.73,-156.03 890.48,-144.13 871.14,-135.02"/>
<polygon fill="#63b8ff" stroke="#63b8ff" points="872.7,-131.89 862.16,-130.8 869.72,-138.23 872.7,-131.89"/>
</a>
</g>
</g>
<!-- Node20&#45;&gt;Node11 -->
<g id="edge31_Node000020_Node000011" class="edge">
<title>Node20&#45;&gt;Node11</title>
<g id="a_edge31_Node000020_Node000011"><a xlink:title=" ">
<path fill="none" stroke="#63b8ff" d="M969.76,-165.27C976.22,-134.87 991.03,-65.19 998.36,-30.71"/>
<polygon fill="#63b8ff" stroke="#63b8ff" points="1001.72,-31.72 1000.37,-21.22 994.87,-30.27 1001.72,-31.72"/>
</a>
</g>
</g>
<!-- Node20&#45;&gt;Node16 -->
<g id="edge30_Node000020_Node000016" class="edge">
<title>Node20&#45;&gt;Node16</title>
<g id="a_edge30_Node000020_Node000016"><a xlink:title=" ">
<path fill="none" stroke="#63b8ff" d="M1004.84,-165.3C1029.6,-155.77 1061.56,-143.47 1085.47,-134.27"/>
<polygon fill="#63b8ff" stroke="#63b8ff" points="1086.67,-137.56 1094.75,-130.7 1084.16,-131.02 1086.67,-137.56"/>
</a>
</g>
</g>
<!-- Node21&#45;&gt;Node8 -->
<g id="edge33_Node000021_Node000008" class="edge">
<title>Node21&#45;&gt;Node8</title>
<g id="a_edge33_Node000021_Node000008"><a xlink:title=" ">
<path fill="none" stroke="#63b8ff" d="M1043.92,-166.93C998.74,-156.7 936.47,-142.6 893,-132.76"/>
<polygon fill="#63b8ff" stroke="#63b8ff" points="893.82,-129.36 883.29,-130.56 892.27,-136.18 893.82,-129.36"/>
</a>
</g>
</g>
<!-- Node21&#45;&gt;Node11 -->
<g id="edge35_Node000021_Node000011" class="edge">
<title>Node21&#45;&gt;Node11</title>
<g id="a_edge35_Node000021_Node000011"><a xlink:title=" ">
<path fill="none" stroke="#63b8ff" d="M1093.01,-165.27C1075.01,-134.47 1033.44,-63.35 1013.58,-29.37"/>
<polygon fill="#63b8ff" stroke="#63b8ff" points="1016.78,-27.91 1008.71,-21.04 1010.74,-31.44 1016.78,-27.91"/>
</a>
</g>
</g>
<!-- Node21&#45;&gt;Node16 -->
<g id="edge34_Node000021_Node000016" class="edge">
<title>Node21&#45;&gt;Node16</title>
<g id="a_edge34_Node000021_Node000016"><a xlink:title=" ">
<path fill="none" stroke="#63b8ff" d="M1106.07,-165.45C1108.31,-158.12 1111.06,-149.12 1113.5,-141.16"/>
<polygon fill="#63b8ff" stroke="#63b8ff" points="1116.83,-142.24 1116.41,-131.65 1110.14,-140.19 1116.83,-142.24"/>
</a>
</g>
</g>
<!-- Node22&#45;&gt;Node4 -->
<g id="edge43_Node000022_Node000004" class="edge">
<title>Node22&#45;&gt;Node4</title>
<g id="a_edge43_Node000022_Node000004"><a xlink:title=" ">
<path fill="none" stroke="#63b8ff" d="M225.82,-171.24C226.34,-157.87 228.16,-131.68 234.62,-110.5 243.76,-80.6 261.22,-48.74 272.9,-29.25"/>
<polygon fill="#63b8ff" stroke="#63b8ff" points="275.81,-31.2 278.06,-20.84 269.85,-27.54 275.81,-31.2"/>
</a>
</g>
</g>
<!-- Node22&#45;&gt;Node8 -->
<g id="edge39_Node000022_Node000008" class="edge">
<title>Node22&#45;&gt;Node8</title>
<g id="a_edge39_Node000022_Node000008"><a xlink:title=" ">
<path fill="none" stroke="#63b8ff" d="M273.87,-172.16C288.83,-169.89 305.39,-167.54 320.62,-165.75 486.97,-146.17 684.16,-131.63 781.33,-125.04"/>
<polygon fill="#63b8ff" stroke="#63b8ff" points="781.42,-128.54 791.17,-124.38 780.95,-121.56 781.42,-128.54"/>
</a>
</g>
</g>
<!-- Node22&#45;&gt;Node11 -->
<g id="edge42_Node000022_Node000011" class="edge">
<title>Node22&#45;&gt;Node11</title>
<g id="a_edge42_Node000022_Node000011"><a xlink:title=" ">
<path fill="none" stroke="#63b8ff" d="M244.83,-170.93C277.89,-155.75 348.04,-125.4 410.62,-110.5 555.01,-76.13 596.46,-100.26 742.62,-74.5 827.2,-59.59 925.13,-32.93 973.08,-19.25"/>
<polygon fill="#63b8ff" stroke="#63b8ff" points="973.79,-22.69 982.43,-16.56 971.85,-15.96 973.79,-22.69"/>
</a>
</g>
</g>
<!-- Node22&#45;&gt;Node23 -->
<g id="edge40_Node000022_Node000023" class="edge">
<title>Node22&#45;&gt;Node23</title>
<g id="a_edge40_Node000022_Node000023"><a xlink:title=" ">
<path fill="none" stroke="#63b8ff" d="M216.21,-171.06C207.01,-162.33 192.79,-148.82 181.45,-138.05"/>
<polygon fill="#63b8ff" stroke="#63b8ff" points="183.89,-135.54 174.23,-131.19 179.07,-140.62 183.89,-135.54"/>
</a>
</g>
</g>
<!-- Node24 -->
<g id="Node000024" class="node">
<title>Node24</title>
<g id="a_Node000024"><a xlink:title=" ">
<polygon fill="#e0e0e0" stroke="#999999" points="287.5,-129.75 243.75,-129.75 243.75,-110.5 287.5,-110.5 287.5,-129.75"/>
<text text-anchor="middle" x="265.62" y="-116.25" font-family="Helvetica,sans-Serif" font-size="10.00">format</text>
</a>
</g>
</g>
<!-- Node22&#45;&gt;Node24 -->
<g id="edge41_Node000022_Node000024" class="edge">
<title>Node22&#45;&gt;Node24</title>
<g id="a_edge41_Node000022_Node000024"><a xlink:title=" ">
<path fill="none" stroke="#63b8ff" d="M231.7,-171.06C237.34,-162.76 245.91,-150.14 253.02,-139.67"/>
<polygon fill="#63b8ff" stroke="#63b8ff" points="255.92,-141.64 258.64,-131.4 250.13,-137.71 255.92,-141.64"/>
</a>
</g>
</g>
<!-- Node26 -->
<g id="Node000026" class="node">
<title>Node26</title>
<g id="a_Node000026"><a xlink:title=" ">
<polygon fill="#e0e0e0" stroke="#999999" points="364,-190.62 329.25,-190.62 329.25,-171.38 364,-171.38 364,-190.62"/>
<text text-anchor="middle" x="346.62" y="-177.12" font-family="Helvetica,sans-Serif" font-size="10.00">print</text>
</a>
</g>
</g>
<!-- Node25&#45;&gt;Node26 -->
<g id="edge45_Node000025_Node000026" class="edge">
<title>Node25&#45;&gt;Node26</title>
<g id="a_edge45_Node000025_Node000026"><a xlink:title=" ">
<path fill="none" stroke="#63b8ff" d="M334.75,-231.93C336.62,-224.07 339.41,-212.32 341.82,-202.2"/>
<polygon fill="#63b8ff" stroke="#63b8ff" points="345.22,-203.04 344.13,-192.5 338.41,-201.42 345.22,-203.04"/>
</a>
</g>
</g>
</g>
</svg>
