<?xml version="1.0" encoding="UTF-8" standalone="no"?>
<!DOCTYPE svg PUBLIC "-//W3C//DTD SVG 1.1//EN"
 "http://www.w3.org/Graphics/SVG/1.1/DTD/svg11.dtd">
<!-- Generated by graphviz version 12.2.0 (20241103.1931)
 -->
<!-- Title: /github/workspace/benchmark/update_linalg_xx0.cpp Pages: 1 -->
<svg width="1485pt" height="326pt"
 viewBox="0.00 0.00 1485.33 326.00" xmlns="http://www.w3.org/2000/svg" xmlns:xlink="http://www.w3.org/1999/xlink">
<g id="graph0" class="graph" transform="scale(1 1) rotate(0) translate(4 322)">
<title>/github/workspace/benchmark/update_linalg_xx0.cpp</title>
<!-- Node1 -->
<g id="Node000001" class="node">
<title>Node1</title>
<g id="a_Node000001"><a xlink:title=" ">
<polygon fill="#999999" stroke="#666666" points="1018.25,-318 871.75,-318 871.75,-287.5 1018.25,-287.5 1018.25,-318"/>
<text text-anchor="start" x="879.75" y="-304.5" font-family="Helvetica,sans-Serif" font-size="10.00">/github/workspace/benchmark</text>
<text text-anchor="middle" x="945" y="-293.25" font-family="Helvetica,sans-Serif" font-size="10.00">/update_linalg_xx0.cpp</text>
</a>
</g>
</g>
<!-- Node2 -->
<g id="Node000002" class="node">
<title>Node2</title>
<g id="a_Node000002"><a xlink:href="benchmark_8hpp.xhtml" target="_top" xlink:title="Benchmarking support.">
<polygon fill="white" stroke="#666666" points="82,-251.5 0,-251.5 0,-232.25 82,-232.25 82,-251.5"/>
<text text-anchor="middle" x="41" y="-238" font-family="Helvetica,sans-Serif" font-size="10.00">benchmark.hpp</text>
</a>
</g>
</g>
<!-- Node1&#45;&gt;Node2 -->
<g id="edge1_Node000001_Node000002" class="edge">
<title>Node1&#45;&gt;Node2</title>
<g id="a_edge1_Node000001_Node000002"><a xlink:title=" ">
<path fill="none" stroke="#63b8ff" d="M871.27,-299.78C723.71,-295.31 381.72,-282.29 96,-251.5 95.17,-251.41 94.34,-251.32 93.5,-251.22"/>
<polygon fill="#63b8ff" stroke="#63b8ff" points="94.25,-247.79 83.89,-249.99 93.36,-254.73 94.25,-247.79"/>
</a>
</g>
</g>
<!-- Node3 -->
<g id="Node000003" class="node">
<title>Node3</title>
<g id="a_Node000003"><a xlink:title=" ">
<polygon fill="#e0e0e0" stroke="#999999" points="97.62,-196.25 52.38,-196.25 52.38,-177 97.62,-177 97.62,-196.25"/>
<text text-anchor="middle" x="75" y="-182.75" font-family="Helvetica,sans-Serif" font-size="10.00">chrono</text>
</a>
</g>
</g>
<!-- Node1&#45;&gt;Node3 -->
<g id="edge60_Node000001_Node000003" class="edge">
<title>Node1&#45;&gt;Node3</title>
<g id="a_edge60_Node000001_Node000003"><a xlink:title=" ">
<path fill="none" stroke="#63b8ff" d="M871.44,-300.31C684.19,-296.2 199.58,-282.65 134,-251.5 113.39,-241.71 96.55,-221.22 86.22,-206.07"/>
<polygon fill="#63b8ff" stroke="#63b8ff" points="89.31,-204.42 80.95,-197.91 83.43,-208.21 89.31,-204.42"/>
</a>
</g>
</g>
<!-- Node5 -->
<g id="Node000005" class="node">
<title>Node5</title>
<g id="a_Node000005"><a xlink:href="kalman_8hpp.xhtml" target="_top" xlink:title="The Kalman filter class and library top&#45;level header.">
<polygon fill="white" stroke="#666666" points="675,-251.5 569,-251.5 569,-232.25 675,-232.25 675,-251.5"/>
<text text-anchor="middle" x="622" y="-238" font-family="Helvetica,sans-Serif" font-size="10.00">fcarouge/kalman.hpp</text>
</a>
</g>
</g>
<!-- Node1&#45;&gt;Node5 -->
<g id="edge4_Node000001_Node000005" class="edge">
<title>Node1&#45;&gt;Node5</title>
<g id="a_edge4_Node000001_Node000005"><a xlink:title=" ">
<path fill="none" stroke="#63b8ff" d="M871.3,-288.32C814.29,-277.92 736.29,-263.71 682.81,-253.96"/>
<polygon fill="#63b8ff" stroke="#63b8ff" points="683.74,-250.57 673.28,-252.22 682.49,-257.46 683.74,-250.57"/>
</a>
</g>
</g>
<!-- Node9 -->
<g id="Node000009" class="node">
<title>Node9</title>
<g id="a_Node000009"><a xlink:href="utility_8hpp.xhtml" target="_top" xlink:title=" ">
<polygon fill="white" stroke="#666666" points="611.25,-74.5 554.75,-74.5 554.75,-55.25 611.25,-55.25 611.25,-74.5"/>
<text text-anchor="middle" x="583" y="-61" font-family="Helvetica,sans-Serif" font-size="10.00">utility.hpp</text>
</a>
</g>
</g>
<!-- Node1&#45;&gt;Node9 -->
<g id="edge56_Node000001_Node000009" class="edge">
<title>Node1&#45;&gt;Node9</title>
<g id="a_edge56_Node000001_Node000009"><a xlink:title=" ">
<path fill="none" stroke="#63b8ff" d="M871.4,-300.62C711.39,-296.63 338.96,-278.52 249,-196.25 220.45,-170.14 208.44,-139.54 234,-110.5 254.19,-87.57 455.95,-73.23 543.17,-68.05"/>
<polygon fill="#63b8ff" stroke="#63b8ff" points="543.16,-71.56 552.94,-67.48 542.75,-64.57 543.16,-71.56"/>
</a>
</g>
</g>
<!-- Node11 -->
<g id="Node000011" class="node">
<title>Node11</title>
<g id="a_Node000011"><a xlink:title=" ">
<polygon fill="#e0e0e0" stroke="#999999" points="1391.12,-19.25 1342.88,-19.25 1342.88,0 1391.12,0 1391.12,-19.25"/>
<text text-anchor="middle" x="1367" y="-5.75" font-family="Helvetica,sans-Serif" font-size="10.00">cstddef</text>
</a>
</g>
</g>
<!-- Node1&#45;&gt;Node11 -->
<g id="edge62_Node000001_Node000011" class="edge">
<title>Node1&#45;&gt;Node11</title>
<g id="a_edge62_Node000001_Node000011"><a xlink:title=" ">
<path fill="none" stroke="#63b8ff" d="M878.3,-287.01C838.93,-275.36 800.93,-256.94 824,-232.25 864.22,-189.2 1295.98,-211.09 1353,-196.25 1408.65,-181.77 1439.22,-189.58 1470,-141 1498.35,-96.27 1433.06,-48.64 1393.86,-25.28"/>
<polygon fill="#63b8ff" stroke="#63b8ff" points="1395.78,-22.35 1385.37,-20.37 1392.28,-28.41 1395.78,-22.35"/>
</a>
</g>
</g>
<!-- Node31 -->
<g id="Node000031" class="node">
<title>Node31</title>
<g id="a_Node000031"><a xlink:title=" ">
<polygon fill="#e0e0e0" stroke="#999999" points="929.5,-251.5 832.5,-251.5 832.5,-232.25 929.5,-232.25 929.5,-251.5"/>
<text text-anchor="middle" x="881" y="-238" font-family="Helvetica,sans-Serif" font-size="10.00">fcarouge/linalg.hpp</text>
</a>
</g>
</g>
<!-- Node1&#45;&gt;Node31 -->
<g id="edge57_Node000001_Node000031" class="edge">
<title>Node1&#45;&gt;Node31</title>
<g id="a_edge57_Node000001_Node000031"><a xlink:title=" ">
<path fill="none" stroke="#63b8ff" d="M929.18,-287.2C920.09,-278.84 908.64,-268.3 899.18,-259.6"/>
<polygon fill="#63b8ff" stroke="#63b8ff" points="901.71,-257.17 891.98,-252.98 896.97,-262.32 901.71,-257.17"/>
</a>
</g>
</g>
<!-- Node32 -->
<g id="Node000032" class="node">
<title>Node32</title>
<g id="a_Node000032"><a xlink:title=" ">
<polygon fill="#e0e0e0" stroke="#999999" points="1070.25,-251.5 947.75,-251.5 947.75,-232.25 1070.25,-232.25 1070.25,-251.5"/>
<text text-anchor="middle" x="1009" y="-238" font-family="Helvetica,sans-Serif" font-size="10.00">benchmark/benchmark.h</text>
</a>
</g>
</g>
<!-- Node1&#45;&gt;Node32 -->
<g id="edge58_Node000001_Node000032" class="edge">
<title>Node1&#45;&gt;Node32</title>
<g id="a_edge58_Node000001_Node000032"><a xlink:title=" ">
<path fill="none" stroke="#63b8ff" d="M960.82,-287.2C969.91,-278.84 981.36,-268.3 990.82,-259.6"/>
<polygon fill="#63b8ff" stroke="#63b8ff" points="993.03,-262.32 998.02,-252.98 988.29,-257.17 993.03,-262.32"/>
</a>
</g>
</g>
<!-- Node33 -->
<g id="Node000033" class="node">
<title>Node33</title>
<g id="a_Node000033"><a xlink:title=" ">
<polygon fill="#e0e0e0" stroke="#999999" points="1143.88,-251.5 1088.12,-251.5 1088.12,-232.25 1143.88,-232.25 1143.88,-251.5"/>
<text text-anchor="middle" x="1116" y="-238" font-family="Helvetica,sans-Serif" font-size="10.00">algorithm</text>
</a>
</g>
</g>
<!-- Node1&#45;&gt;Node33 -->
<g id="edge59_Node000001_Node000033" class="edge">
<title>Node1&#45;&gt;Node33</title>
<g id="a_edge59_Node000001_Node000033"><a xlink:title=" ">
<path fill="none" stroke="#63b8ff" d="M987.71,-287.05C1015.67,-277.42 1051.85,-264.96 1078.66,-255.73"/>
<polygon fill="#63b8ff" stroke="#63b8ff" points="1079.78,-259.05 1088.09,-252.48 1077.5,-252.43 1079.78,-259.05"/>
</a>
</g>
</g>
<!-- Node34 -->
<g id="Node000034" class="node">
<title>Node34</title>
<g id="a_Node000034"><a xlink:title=" ">
<polygon fill="#e0e0e0" stroke="#999999" points="1204.5,-251.5 1161.5,-251.5 1161.5,-232.25 1204.5,-232.25 1204.5,-251.5"/>
<text text-anchor="middle" x="1183" y="-238" font-family="Helvetica,sans-Serif" font-size="10.00">cmath</text>
</a>
</g>
</g>
<!-- Node1&#45;&gt;Node34 -->
<g id="edge61_Node000001_Node000034" class="edge">
<title>Node1&#45;&gt;Node34</title>
<g id="a_edge61_Node000001_Node000034"><a xlink:title=" ">
<path fill="none" stroke="#63b8ff" d="M1008.9,-287.06C1047.48,-278.02 1097.87,-265.91 1150.23,-252.16"/>
<polygon fill="#63b8ff" stroke="#63b8ff" points="1150.84,-255.62 1159.61,-249.68 1149.05,-248.85 1150.84,-255.62"/>
</a>
</g>
</g>
<!-- Node35 -->
<g id="Node000035" class="node">
<title>Node35</title>
<g id="a_Node000035"><a xlink:title=" ">
<polygon fill="#e0e0e0" stroke="#999999" points="1267.62,-251.5 1222.38,-251.5 1222.38,-232.25 1267.62,-232.25 1267.62,-251.5"/>
<text text-anchor="middle" x="1245" y="-238" font-family="Helvetica,sans-Serif" font-size="10.00">cstdint</text>
</a>
</g>
</g>
<!-- Node1&#45;&gt;Node35 -->
<g id="edge63_Node000001_Node000035" class="edge">
<title>Node1&#45;&gt;Node35</title>
<g id="a_edge63_Node000001_Node000035"><a xlink:title=" ">
<path fill="none" stroke="#63b8ff" d="M1018.71,-289.75C1070.32,-280.95 1141.08,-268.06 1211.24,-252"/>
<polygon fill="#63b8ff" stroke="#63b8ff" points="1211.61,-255.51 1220.56,-249.84 1210.03,-248.69 1211.61,-255.51"/>
</a>
</g>
</g>
<!-- Node36 -->
<g id="Node000036" class="node">
<title>Node36</title>
<g id="a_Node000036"><a xlink:title=" ">
<polygon fill="#e0e0e0" stroke="#999999" points="1330.62,-251.5 1285.38,-251.5 1285.38,-232.25 1330.62,-232.25 1330.62,-251.5"/>
<text text-anchor="middle" x="1308" y="-238" font-family="Helvetica,sans-Serif" font-size="10.00">cstring</text>
</a>
</g>
</g>
<!-- Node1&#45;&gt;Node36 -->
<g id="edge64_Node000001_Node000036" class="edge">
<title>Node1&#45;&gt;Node36</title>
<g id="a_edge64_Node000001_Node000036"><a xlink:title=" ">
<path fill="none" stroke="#63b8ff" d="M1018.65,-293.2C1083.66,-285.07 1181.16,-271.43 1274.04,-251.94"/>
<polygon fill="#63b8ff" stroke="#63b8ff" points="1274.52,-255.41 1283.57,-249.91 1273.06,-248.57 1274.52,-255.41"/>
</a>
</g>
</g>
<!-- Node37 -->
<g id="Node000037" class="node">
<title>Node37</title>
<g id="a_Node000037"><a xlink:title=" ">
<polygon fill="#e0e0e0" stroke="#999999" points="1397.12,-251.5 1348.88,-251.5 1348.88,-232.25 1397.12,-232.25 1397.12,-251.5"/>
<text text-anchor="middle" x="1373" y="-238" font-family="Helvetica,sans-Serif" font-size="10.00">random</text>
</a>
</g>
</g>
<!-- Node1&#45;&gt;Node37 -->
<g id="edge65_Node000001_Node000037" class="edge">
<title>Node1&#45;&gt;Node37</title>
<g id="a_edge65_Node000001_Node000037"><a xlink:title=" ">
<path fill="none" stroke="#63b8ff" d="M1018.61,-295.25C1095.8,-287.8 1220.75,-273.9 1337.32,-251.8"/>
<polygon fill="#63b8ff" stroke="#63b8ff" points="1337.93,-255.25 1347.09,-249.92 1336.6,-248.37 1337.93,-255.25"/>
</a>
</g>
</g>
<!-- Node2&#45;&gt;Node3 -->
<g id="edge2_Node000002_Node000003" class="edge">
<title>Node2&#45;&gt;Node3</title>
<g id="a_edge2_Node000002_Node000003"><a xlink:title=" ">
<path fill="none" stroke="#63b8ff" d="M46.61,-232.08C51.12,-225.03 57.59,-214.9 63.21,-206.08"/>
<polygon fill="#63b8ff" stroke="#63b8ff" points="66.02,-208.2 68.45,-197.88 60.12,-204.43 66.02,-208.2"/>
</a>
</g>
</g>
<!-- Node4 -->
<g id="Node000004" class="node">
<title>Node4</title>
<g id="a_Node000004"><a xlink:title=" ">
<polygon fill="#e0e0e0" stroke="#999999" points="89.5,-19.25 28.5,-19.25 28.5,0 89.5,0 89.5,-19.25"/>
<text text-anchor="middle" x="59" y="-5.75" font-family="Helvetica,sans-Serif" font-size="10.00">type_traits</text>
</a>
</g>
</g>
<!-- Node2&#45;&gt;Node4 -->
<g id="edge3_Node000002_Node000004" class="edge">
<title>Node2&#45;&gt;Node4</title>
<g id="a_edge3_Node000002_Node000004"><a xlink:title=" ">
<path fill="none" stroke="#63b8ff" d="M39.38,-231.84C34.82,-204.68 23.16,-121.62 38,-55.25 39.98,-46.38 43.93,-37.19 47.88,-29.48"/>
<polygon fill="#63b8ff" stroke="#63b8ff" points="50.92,-31.2 52.69,-20.76 44.79,-27.82 50.92,-31.2"/>
</a>
</g>
</g>
<!-- Node6 -->
<g id="Node000006" class="node">
<title>Node6</title>
<g id="a_Node000006"><a xlink:href="kalman__forward_8hpp.xhtml" target="_top" xlink:title="Authoritative forward declaration header.">
<polygon fill="white" stroke="#666666" points="536.5,-196.25 433.5,-196.25 433.5,-177 536.5,-177 536.5,-196.25"/>
<text text-anchor="middle" x="485" y="-182.75" font-family="Helvetica,sans-Serif" font-size="10.00">kalman_forward.hpp</text>
</a>
</g>
</g>
<!-- Node5&#45;&gt;Node6 -->
<g id="edge5_Node000005_Node000006" class="edge">
<title>Node5&#45;&gt;Node6</title>
<g id="a_edge5_Node000005_Node000006"><a xlink:title=" ">
<path fill="none" stroke="#63b8ff" d="M598.76,-231.84C576.81,-223.31 543.65,-210.42 518.79,-200.76"/>
<polygon fill="#63b8ff" stroke="#63b8ff" points="520.35,-197.61 509.76,-197.25 517.82,-204.14 520.35,-197.61"/>
</a>
</g>
</g>
<!-- Node7 -->
<g id="Node000007" class="node">
<title>Node7</title>
<g id="a_Node000007"><a xlink:href="factory_8hpp.xhtml" target="_top" xlink:title=" ">
<polygon fill="white" stroke="#666666" points="689.25,-196.25 554.75,-196.25 554.75,-177 689.25,-177 689.25,-196.25"/>
<text text-anchor="middle" x="622" y="-182.75" font-family="Helvetica,sans-Serif" font-size="10.00">kalman_internal/factory.hpp</text>
</a>
</g>
</g>
<!-- Node5&#45;&gt;Node7 -->
<g id="edge6_Node000005_Node000007" class="edge">
<title>Node5&#45;&gt;Node7</title>
<g id="a_edge6_Node000005_Node000007"><a xlink:title=" ">
<path fill="none" stroke="#63b8ff" d="M622,-232.08C622,-225.57 622,-216.42 622,-208.12"/>
<polygon fill="#63b8ff" stroke="#63b8ff" points="625.5,-208.12 622,-198.12 618.5,-208.12 625.5,-208.12"/>
</a>
</g>
</g>
<!-- Node5&#45;&gt;Node9 -->
<g id="edge54_Node000005_Node000009" class="edge">
<title>Node5&#45;&gt;Node9</title>
<g id="a_edge54_Node000005_Node000009"><a xlink:title=" ">
<path fill="none" stroke="#63b8ff" d="M568.65,-239.99C482.79,-237.6 318.85,-228.79 272,-196.25 249.22,-180.43 249.64,-167.93 243,-141 239.76,-127.84 234.06,-120.69 243,-110.5 262.55,-88.22 457.41,-73.6 543.02,-68.2"/>
<polygon fill="#63b8ff" stroke="#63b8ff" points="543.07,-71.71 552.83,-67.6 542.63,-64.72 543.07,-71.71"/>
</a>
</g>
</g>
<!-- Node26 -->
<g id="Node000026" class="node">
<title>Node26</title>
<g id="a_Node000026"><a xlink:href="format_8hpp.xhtml" target="_top" xlink:title="Formatting support for the Kalman filter.">
<polygon fill="white" stroke="#666666" points="1408.5,-135.38 1275.5,-135.38 1275.5,-116.12 1408.5,-116.12 1408.5,-135.38"/>
<text text-anchor="middle" x="1342" y="-121.88" font-family="Helvetica,sans-Serif" font-size="10.00">kalman_internal/format.hpp</text>
</a>
</g>
</g>
<!-- Node5&#45;&gt;Node26 -->
<g id="edge47_Node000005_Node000026" class="edge">
<title>Node5&#45;&gt;Node26</title>
<g id="a_edge47_Node000005_Node000026"><a xlink:title=" ">
<path fill="none" stroke="#63b8ff" d="M675.1,-233.22C785.37,-217.19 1047.14,-178.48 1266,-141 1271.64,-140.03 1277.52,-138.99 1283.39,-137.93"/>
<polygon fill="#63b8ff" stroke="#63b8ff" points="1283.91,-141.39 1293.12,-136.15 1282.65,-134.51 1283.91,-141.39"/>
</a>
</g>
</g>
<!-- Node28 -->
<g id="Node000028" class="node">
<title>Node28</title>
<g id="a_Node000028"><a xlink:href="printer_8hpp.xhtml" target="_top" xlink:title="Filter decoration support for printing operations.">
<polygon fill="white" stroke="#666666" points="1344.12,-196.25 1211.88,-196.25 1211.88,-177 1344.12,-177 1344.12,-196.25"/>
<text text-anchor="middle" x="1278" y="-182.75" font-family="Helvetica,sans-Serif" font-size="10.00">kalman_internal/printer.hpp</text>
</a>
</g>
</g>
<!-- Node5&#45;&gt;Node28 -->
<g id="edge52_Node000005_Node000028" class="edge">
<title>Node5&#45;&gt;Node28</title>
<g id="a_edge52_Node000005_Node000028"><a xlink:title=" ">
<path fill="none" stroke="#63b8ff" d="M675.41,-236.54C791.03,-227.15 1064.98,-204.92 1200.01,-193.96"/>
<polygon fill="#63b8ff" stroke="#63b8ff" points="1200.26,-197.45 1209.95,-193.15 1199.7,-190.47 1200.26,-197.45"/>
</a>
</g>
</g>
<!-- Node30 -->
<g id="Node000030" class="node">
<title>Node30</title>
<g id="a_Node000030"><a xlink:title=" ">
<polygon fill="#e0e0e0" stroke="#999999" points="415.25,-196.25 280.75,-196.25 280.75,-177 415.25,-177 415.25,-196.25"/>
<text text-anchor="middle" x="348" y="-182.75" font-family="Helvetica,sans-Serif" font-size="10.00">kalman_internal/kalman.tpp</text>
</a>
</g>
</g>
<!-- Node5&#45;&gt;Node30 -->
<g id="edge55_Node000005_Node000030" class="edge">
<title>Node5&#45;&gt;Node30</title>
<g id="a_edge55_Node000005_Node000030"><a xlink:title=" ">
<path fill="none" stroke="#63b8ff" d="M575.21,-231.78C528.32,-222.67 456.04,-208.62 405.64,-198.83"/>
<polygon fill="#63b8ff" stroke="#63b8ff" points="406.57,-195.44 396.08,-196.97 405.23,-202.31 406.57,-195.44"/>
</a>
</g>
</g>
<!-- Node7&#45;&gt;Node4 -->
<g id="edge46_Node000007_Node000004" class="edge">
<title>Node7&#45;&gt;Node4</title>
<g id="a_edge46_Node000007_Node000004"><a xlink:title=" ">
<path fill="none" stroke="#63b8ff" d="M554.47,-177.82C551.61,-177.54 548.78,-177.26 546,-177 491.98,-171.94 95.93,-180.76 59,-141 31.23,-111.11 42.57,-58.67 51.71,-30.26"/>
<polygon fill="#63b8ff" stroke="#63b8ff" points="54.91,-31.72 54.87,-21.12 48.29,-29.43 54.91,-31.72"/>
</a>
</g>
</g>
<!-- Node8 -->
<g id="Node000008" class="node">
<title>Node8</title>
<g id="a_Node000008"><a xlink:href="type_8hpp.xhtml" target="_top" xlink:title=" ">
<polygon fill="white" stroke="#666666" points="120,-135.38 68,-135.38 68,-116.12 120,-116.12 120,-135.38"/>
<text text-anchor="middle" x="94" y="-121.88" font-family="Helvetica,sans-Serif" font-size="10.00">type.hpp</text>
</a>
</g>
</g>
<!-- Node7&#45;&gt;Node8 -->
<g id="edge7_Node000007_Node000008" class="edge">
<title>Node7&#45;&gt;Node8</title>
<g id="a_edge7_Node000007_Node000008"><a xlink:title=" ">
<path fill="none" stroke="#63b8ff" d="M554.46,-177.94C551.6,-177.62 548.77,-177.31 546,-177 396.72,-160.53 359.2,-158.16 210,-141 183.74,-137.98 154.16,-134.34 131.45,-131.5"/>
<polygon fill="#63b8ff" stroke="#63b8ff" points="132.11,-128.05 121.75,-130.28 131.23,-135 132.11,-128.05"/>
</a>
</g>
</g>
<!-- Node10 -->
<g id="Node000010" class="node">
<title>Node10</title>
<g id="a_Node000010"><a xlink:title=" ">
<polygon fill="#e0e0e0" stroke="#999999" points="398.88,-19.25 343.12,-19.25 343.12,0 398.88,0 398.88,-19.25"/>
<text text-anchor="middle" x="371" y="-5.75" font-family="Helvetica,sans-Serif" font-size="10.00">concepts</text>
</a>
</g>
</g>
<!-- Node7&#45;&gt;Node10 -->
<g id="edge45_Node000007_Node000010" class="edge">
<title>Node7&#45;&gt;Node10</title>
<g id="a_edge45_Node000007_Node000010"><a xlink:title=" ">
<path fill="none" stroke="#63b8ff" d="M554.52,-177.96C445.92,-165.59 244.29,-142.45 243,-141 203.63,-96.72 289.86,-47.65 339.36,-24.35"/>
<polygon fill="#63b8ff" stroke="#63b8ff" points="340.6,-27.63 348.23,-20.28 337.68,-21.27 340.6,-27.63"/>
</a>
</g>
</g>
<!-- Node15 -->
<g id="Node000015" class="node">
<title>Node15</title>
<g id="a_Node000015"><a xlink:href="x__z__p__q__r_8hpp.xhtml" target="_top" xlink:title=" ">
<polygon fill="white" stroke="#666666" points="621.75,-135.38 544.25,-135.38 544.25,-116.12 621.75,-116.12 621.75,-135.38"/>
<text text-anchor="middle" x="583" y="-121.88" font-family="Helvetica,sans-Serif" font-size="10.00">x_z_p_q_r.hpp</text>
</a>
</g>
</g>
<!-- Node7&#45;&gt;Node15 -->
<g id="edge16_Node000007_Node000015" class="edge">
<title>Node7&#45;&gt;Node15</title>
<g id="a_edge16_Node000007_Node000015"><a xlink:title=" ">
<path fill="none" stroke="#63b8ff" d="M616.08,-176.68C610.58,-168.38 602.22,-155.77 595.29,-145.3"/>
<polygon fill="#63b8ff" stroke="#63b8ff" points="598.26,-143.44 589.81,-137.04 592.42,-147.31 598.26,-143.44"/>
</a>
</g>
</g>
<!-- Node16 -->
<g id="Node000016" class="node">
<title>Node16</title>
<g id="a_Node000016"><a xlink:href="x__z__p__q__r__h__f_8hpp.xhtml" target="_top" xlink:title=" ">
<polygon fill="white" stroke="#666666" points="348.12,-135.38 251.88,-135.38 251.88,-116.12 348.12,-116.12 348.12,-135.38"/>
<text text-anchor="middle" x="300" y="-121.88" font-family="Helvetica,sans-Serif" font-size="10.00">x_z_p_q_r_h_f.hpp</text>
</a>
</g>
</g>
<!-- Node7&#45;&gt;Node16 -->
<g id="edge18_Node000007_Node000016" class="edge">
<title>Node7&#45;&gt;Node16</title>
<g id="a_edge18_Node000007_Node000016"><a xlink:title=" ">
<path fill="none" stroke="#63b8ff" d="M560.42,-176.53C506.76,-168.29 426.96,-155.28 358,-141 354.18,-140.21 350.23,-139.34 346.27,-138.44"/>
<polygon fill="#63b8ff" stroke="#63b8ff" points="347.19,-135.06 336.65,-136.18 345.58,-141.87 347.19,-135.06"/>
</a>
</g>
</g>
<!-- Node17 -->
<g id="Node000017" class="node">
<title>Node17</title>
<g id="a_Node000017"><a xlink:href="x__z__p__q__r__hh__us__ps_8hpp.xhtml" target="_top" xlink:title=" ">
<polygon fill="white" stroke="#666666" points="764.38,-135.38 639.62,-135.38 639.62,-116.12 764.38,-116.12 764.38,-135.38"/>
<text text-anchor="middle" x="702" y="-121.88" font-family="Helvetica,sans-Serif" font-size="10.00">x_z_p_q_r_hh_us_ps.hpp</text>
</a>
</g>
</g>
<!-- Node7&#45;&gt;Node17 -->
<g id="edge20_Node000007_Node000017" class="edge">
<title>Node7&#45;&gt;Node17</title>
<g id="a_edge20_Node000007_Node000017"><a xlink:title=" ">
<path fill="none" stroke="#63b8ff" d="M634.15,-176.68C646.48,-167.61 665.83,-153.37 680.72,-142.41"/>
<polygon fill="#63b8ff" stroke="#63b8ff" points="682.54,-145.42 688.52,-136.67 678.39,-139.78 682.54,-145.42"/>
</a>
</g>
</g>
<!-- Node20 -->
<g id="Node000020" class="node">
<title>Node20</title>
<g id="a_Node000020"><a xlink:href="x__z__p__qq__rr__f_8hpp.xhtml" target="_top" xlink:title=" ">
<polygon fill="white" stroke="#666666" points="1151,-135.38 1057,-135.38 1057,-116.12 1151,-116.12 1151,-135.38"/>
<text text-anchor="middle" x="1104" y="-121.88" font-family="Helvetica,sans-Serif" font-size="10.00">x_z_p_qq_rr_f.hpp</text>
</a>
</g>
</g>
<!-- Node7&#45;&gt;Node20 -->
<g id="edge25_Node000007_Node000020" class="edge">
<title>Node7&#45;&gt;Node20</title>
<g id="a_edge25_Node000007_Node000020"><a xlink:title=" ">
<path fill="none" stroke="#63b8ff" d="M689.57,-181.58C773.93,-175.83 922.45,-163.43 1048,-141 1052.09,-140.27 1056.33,-139.4 1060.55,-138.46"/>
<polygon fill="#63b8ff" stroke="#63b8ff" points="1061.2,-141.9 1070.13,-136.19 1059.59,-135.09 1061.2,-141.9"/>
</a>
</g>
</g>
<!-- Node21 -->
<g id="Node000021" class="node">
<title>Node21</title>
<g id="a_Node000021"><a xlink:href="x__z__p__r_8hpp.xhtml" target="_top" xlink:title=" ">
<polygon fill="white" stroke="#666666" points="433.5,-135.38 366.5,-135.38 366.5,-116.12 433.5,-116.12 433.5,-135.38"/>
<text text-anchor="middle" x="400" y="-121.88" font-family="Helvetica,sans-Serif" font-size="10.00">x_z_p_r.hpp</text>
</a>
</g>
</g>
<!-- Node7&#45;&gt;Node21 -->
<g id="edge29_Node000007_Node000021" class="edge">
<title>Node7&#45;&gt;Node21</title>
<g id="a_edge29_Node000007_Node000021"><a xlink:title=" ">
<path fill="none" stroke="#63b8ff" d="M581.35,-176.58C544.69,-168.17 489.43,-154.9 442,-141 440.17,-140.46 438.3,-139.9 436.42,-139.31"/>
<polygon fill="#63b8ff" stroke="#63b8ff" points="437.69,-136.05 427.1,-136.3 435.54,-142.71 437.69,-136.05"/>
</a>
</g>
</g>
<!-- Node22 -->
<g id="Node000022" class="node">
<title>Node22</title>
<g id="a_Node000022"><a xlink:href="x__z__p__r__f_8hpp.xhtml" target="_top" xlink:title=" ">
<polygon fill="white" stroke="#666666" points="526.62,-135.38 451.38,-135.38 451.38,-116.12 526.62,-116.12 526.62,-135.38"/>
<text text-anchor="middle" x="489" y="-121.88" font-family="Helvetica,sans-Serif" font-size="10.00">x_z_p_r_f.hpp</text>
</a>
</g>
</g>
<!-- Node7&#45;&gt;Node22 -->
<g id="edge31_Node000007_Node000022" class="edge">
<title>Node7&#45;&gt;Node22</title>
<g id="a_edge31_Node000007_Node000022"><a xlink:title=" ">
<path fill="none" stroke="#63b8ff" d="M601.51,-176.55C579.68,-166.89 544.86,-151.48 519.74,-140.36"/>
<polygon fill="#63b8ff" stroke="#63b8ff" points="521.24,-137.19 510.68,-136.35 518.41,-143.59 521.24,-137.19"/>
</a>
</g>
</g>
<!-- Node23 -->
<g id="Node000023" class="node">
<title>Node23</title>
<g id="a_Node000023"><a xlink:href="x__z__u__p__q__r_8hpp.xhtml" target="_top" xlink:title=" ">
<polygon fill="white" stroke="#666666" points="1257,-135.38 1169,-135.38 1169,-116.12 1257,-116.12 1257,-135.38"/>
<text text-anchor="middle" x="1213" y="-121.88" font-family="Helvetica,sans-Serif" font-size="10.00">x_z_u_p_q_r.hpp</text>
</a>
</g>
</g>
<!-- Node7&#45;&gt;Node23 -->
<g id="edge33_Node000007_Node000023" class="edge">
<title>Node7&#45;&gt;Node23</title>
<g id="a_edge33_Node000007_Node000023"><a xlink:title=" ">
<path fill="none" stroke="#63b8ff" d="M689.59,-183.91C792.03,-180.45 992.42,-170.23 1160,-141 1163.87,-140.32 1167.87,-139.5 1171.86,-138.58"/>
<polygon fill="#63b8ff" stroke="#63b8ff" points="1172.61,-142 1181.47,-136.2 1170.92,-135.21 1172.61,-142"/>
</a>
</g>
</g>
<!-- Node24 -->
<g id="Node000024" class="node">
<title>Node24</title>
<g id="a_Node000024"><a xlink:href="x__z__u__p__q__r__f__g__ps_8hpp.xhtml" target="_top" xlink:title=" ">
<polygon fill="white" stroke="#666666" points="905.25,-135.38 782.75,-135.38 782.75,-116.12 905.25,-116.12 905.25,-135.38"/>
<text text-anchor="middle" x="844" y="-121.88" font-family="Helvetica,sans-Serif" font-size="10.00">x_z_u_p_q_r_f_g_ps.hpp</text>
</a>
</g>
</g>
<!-- Node7&#45;&gt;Node24 -->
<g id="edge37_Node000007_Node000024" class="edge">
<title>Node7&#45;&gt;Node24</title>
<g id="a_edge37_Node000007_Node000024"><a xlink:title=" ">
<path fill="none" stroke="#63b8ff" d="M656.2,-176.55C694.42,-166.42 756.45,-149.97 798.68,-138.77"/>
<polygon fill="#63b8ff" stroke="#63b8ff" points="799.53,-142.17 808.3,-136.22 797.73,-135.4 799.53,-142.17"/>
</a>
</g>
</g>
<!-- Node25 -->
<g id="Node000025" class="node">
<title>Node25</title>
<g id="a_Node000025"><a xlink:href="x__z__u__p__q__r__h__f__g__us__ps_8hpp.xhtml" target="_top" xlink:title=" ">
<polygon fill="white" stroke="#666666" points="1038.5,-141 923.5,-141 923.5,-110.5 1038.5,-110.5 1038.5,-141"/>
<text text-anchor="start" x="931.5" y="-127.5" font-family="Helvetica,sans-Serif" font-size="10.00">x_z_u_p_q_r_h_f_g_us</text>
<text text-anchor="middle" x="981" y="-116.25" font-family="Helvetica,sans-Serif" font-size="10.00">_ps.hpp</text>
</a>
</g>
</g>
<!-- Node7&#45;&gt;Node25 -->
<g id="edge41_Node000007_Node000025" class="edge">
<title>Node7&#45;&gt;Node25</title>
<g id="a_edge41_Node000007_Node000025"><a xlink:title=" ">
<path fill="none" stroke="#63b8ff" d="M688.87,-176.53C745.62,-168.55 829.48,-156.17 912.17,-141.27"/>
<polygon fill="#63b8ff" stroke="#63b8ff" points="912.6,-144.75 921.81,-139.51 911.34,-137.86 912.6,-144.75"/>
</a>
</g>
</g>
<!-- Node8&#45;&gt;Node4 -->
<g id="edge15_Node000008_Node000004" class="edge">
<title>Node8&#45;&gt;Node4</title>
<g id="a_edge15_Node000008_Node000004"><a xlink:title=" ">
<path fill="none" stroke="#63b8ff" d="M91.25,-115.79C85.63,-97.46 72.69,-55.28 65.02,-30.26"/>
<polygon fill="#63b8ff" stroke="#63b8ff" points="68.46,-29.52 62.18,-20.99 61.76,-31.57 68.46,-29.52"/>
</a>
</g>
</g>
<!-- Node8&#45;&gt;Node9 -->
<g id="edge8_Node000008_Node000009" class="edge">
<title>Node8&#45;&gt;Node9</title>
<g id="a_edge8_Node000008_Node000009"><a xlink:title=" ">
<path fill="none" stroke="#63b8ff" d="M116.56,-115.64C122.18,-113.67 128.25,-111.79 134,-110.5 282.32,-77.23 463.75,-68.76 542.89,-66.61"/>
<polygon fill="#63b8ff" stroke="#63b8ff" points="542.83,-70.11 552.74,-66.36 542.65,-63.11 542.83,-70.11"/>
</a>
</g>
</g>
<!-- Node14 -->
<g id="Node000014" class="node">
<title>Node14</title>
<g id="a_Node000014"><a xlink:title=" ">
<polygon fill="#e0e0e0" stroke="#999999" points="177.75,-74.5 106.25,-74.5 106.25,-55.25 177.75,-55.25 177.75,-74.5"/>
<text text-anchor="middle" x="142" y="-61" font-family="Helvetica,sans-Serif" font-size="10.00">initializer_list</text>
</a>
</g>
</g>
<!-- Node8&#45;&gt;Node14 -->
<g id="edge14_Node000008_Node000014" class="edge">
<title>Node8&#45;&gt;Node14</title>
<g id="a_edge14_Node000008_Node000014"><a xlink:title=" ">
<path fill="none" stroke="#63b8ff" d="M101.29,-115.81C108.2,-107.34 118.77,-94.37 127.41,-83.77"/>
<polygon fill="#63b8ff" stroke="#63b8ff" points="130.08,-86.04 133.68,-76.07 124.65,-81.61 130.08,-86.04"/>
</a>
</g>
</g>
<!-- Node9&#45;&gt;Node4 -->
<g id="edge12_Node000009_Node000004" class="edge">
<title>Node9&#45;&gt;Node4</title>
<g id="a_edge12_Node000009_Node000004"><a xlink:title=" ">
<path fill="none" stroke="#63b8ff" d="M554.46,-60.97C467.26,-52.11 204.1,-25.37 101.04,-14.9"/>
<polygon fill="#63b8ff" stroke="#63b8ff" points="101.66,-11.44 91.36,-13.91 100.95,-18.41 101.66,-11.44"/>
</a>
</g>
</g>
<!-- Node9&#45;&gt;Node10 -->
<g id="edge9_Node000009_Node000010" class="edge">
<title>Node9&#45;&gt;Node10</title>
<g id="a_edge9_Node000009_Node000010"><a xlink:title=" ">
<path fill="none" stroke="#63b8ff" d="M554.41,-56.69C517.22,-47.35 452.07,-30.99 410.27,-20.49"/>
<polygon fill="#63b8ff" stroke="#63b8ff" points="411.16,-17.1 400.61,-18.06 409.45,-23.89 411.16,-17.1"/>
</a>
</g>
</g>
<!-- Node9&#45;&gt;Node11 -->
<g id="edge10_Node000009_Node000011" class="edge">
<title>Node9&#45;&gt;Node11</title>
<g id="a_edge10_Node000009_Node000011"><a xlink:title=" ">
<path fill="none" stroke="#63b8ff" d="M611.37,-61.95C731.55,-53.79 1198.66,-22.06 1331.55,-13.03"/>
<polygon fill="#63b8ff" stroke="#63b8ff" points="1331.4,-16.55 1341.14,-12.38 1330.93,-9.57 1331.4,-16.55"/>
</a>
</g>
</g>
<!-- Node12 -->
<g id="Node000012" class="node">
<title>Node12</title>
<g id="a_Node000012"><a xlink:title=" ">
<polygon fill="#e0e0e0" stroke="#999999" points="962.5,-19.25 925.5,-19.25 925.5,0 962.5,0 962.5,-19.25"/>
<text text-anchor="middle" x="944" y="-5.75" font-family="Helvetica,sans-Serif" font-size="10.00">tuple</text>
</a>
</g>
</g>
<!-- Node9&#45;&gt;Node12 -->
<g id="edge11_Node000009_Node000012" class="edge">
<title>Node9&#45;&gt;Node12</title>
<g id="a_edge11_Node000009_Node000012"><a xlink:title=" ">
<path fill="none" stroke="#63b8ff" d="M611.63,-59.65C678.65,-49.77 845.23,-25.19 913.78,-15.08"/>
<polygon fill="#63b8ff" stroke="#63b8ff" points="914.15,-18.57 923.53,-13.64 913.13,-11.64 914.15,-18.57"/>
</a>
</g>
</g>
<!-- Node13 -->
<g id="Node000013" class="node">
<title>Node13</title>
<g id="a_Node000013"><a xlink:title=" ">
<polygon fill="#e0e0e0" stroke="#999999" points="602.25,-19.25 563.75,-19.25 563.75,0 602.25,0 602.25,-19.25"/>
<text text-anchor="middle" x="583" y="-5.75" font-family="Helvetica,sans-Serif" font-size="10.00">utility</text>
</a>
</g>
</g>
<!-- Node9&#45;&gt;Node13 -->
<g id="edge13_Node000009_Node000013" class="edge">
<title>Node9&#45;&gt;Node13</title>
<g id="a_edge13_Node000009_Node000013"><a xlink:title=" ">
<path fill="none" stroke="#63b8ff" d="M583,-55.08C583,-48.57 583,-39.42 583,-31.12"/>
<polygon fill="#63b8ff" stroke="#63b8ff" points="586.5,-31.12 583,-21.12 579.5,-31.12 586.5,-31.12"/>
</a>
</g>
</g>
<!-- Node15&#45;&gt;Node9 -->
<g id="edge17_Node000015_Node000009" class="edge">
<title>Node15&#45;&gt;Node9</title>
<g id="a_edge17_Node000015_Node000009"><a xlink:title=" ">
<path fill="none" stroke="#63b8ff" d="M583,-115.81C583,-108.03 583,-96.45 583,-86.41"/>
<polygon fill="#63b8ff" stroke="#63b8ff" points="586.5,-86.41 583,-76.41 579.5,-86.41 586.5,-86.41"/>
</a>
</g>
</g>
<!-- Node16&#45;&gt;Node9 -->
<g id="edge19_Node000016_Node000009" class="edge">
<title>Node16&#45;&gt;Node9</title>
<g id="a_edge19_Node000016_Node000009"><a xlink:title=" ">
<path fill="none" stroke="#63b8ff" d="M335.83,-115.68C343.15,-113.9 350.81,-112.09 358,-110.5 422.73,-96.14 498.44,-81.58 543.47,-73.16"/>
<polygon fill="#63b8ff" stroke="#63b8ff" points="543.82,-76.65 553.01,-71.38 542.54,-69.77 543.82,-76.65"/>
</a>
</g>
</g>
<!-- Node17&#45;&gt;Node9 -->
<g id="edge23_Node000017_Node000009" class="edge">
<title>Node17&#45;&gt;Node9</title>
<g id="a_edge23_Node000017_Node000009"><a xlink:title=" ">
<path fill="none" stroke="#63b8ff" d="M683.67,-115.68C664.39,-106.14 633.82,-91.02 611.41,-79.93"/>
<polygon fill="#63b8ff" stroke="#63b8ff" points="613.03,-76.83 602.52,-75.53 609.93,-83.1 613.03,-76.83"/>
</a>
</g>
</g>
<!-- Node17&#45;&gt;Node12 -->
<g id="edge24_Node000017_Node000012" class="edge">
<title>Node17&#45;&gt;Node12</title>
<g id="a_edge24_Node000017_Node000012"><a xlink:title=" ">
<path fill="none" stroke="#63b8ff" d="M720.99,-115.79C763.14,-95.92 864.72,-48.01 914.92,-24.34"/>
<polygon fill="#63b8ff" stroke="#63b8ff" points="916.18,-27.62 923.73,-20.18 913.19,-21.28 916.18,-27.62"/>
</a>
</g>
</g>
<!-- Node18 -->
<g id="Node000018" class="node">
<title>Node18</title>
<g id="a_Node000018"><a xlink:href="function_8hpp.xhtml" target="_top" xlink:title=" ">
<polygon fill="white" stroke="#666666" points="1040.25,-74.5 971.75,-74.5 971.75,-55.25 1040.25,-55.25 1040.25,-74.5"/>
<text text-anchor="middle" x="1006" y="-61" font-family="Helvetica,sans-Serif" font-size="10.00">function.hpp</text>
</a>
</g>
</g>
<!-- Node17&#45;&gt;Node18 -->
<g id="edge21_Node000017_Node000018" class="edge">
<title>Node17&#45;&gt;Node18</title>
<g id="a_edge21_Node000017_Node000018"><a xlink:title=" ">
<path fill="none" stroke="#63b8ff" d="M747.7,-115.67C756.43,-113.94 765.5,-112.16 774,-110.5 838.57,-97.9 913.31,-83.57 960.12,-74.62"/>
<polygon fill="#63b8ff" stroke="#63b8ff" points="960.75,-78.07 969.91,-72.75 959.43,-71.19 960.75,-78.07"/>
</a>
</g>
</g>
<!-- Node19 -->
<g id="Node000019" class="node">
<title>Node19</title>
<g id="a_Node000019"><a xlink:title=" ">
<polygon fill="#e0e0e0" stroke="#999999" points="1031.25,-19.25 980.75,-19.25 980.75,0 1031.25,0 1031.25,-19.25"/>
<text text-anchor="middle" x="1006" y="-5.75" font-family="Helvetica,sans-Serif" font-size="10.00">memory</text>
</a>
</g>
</g>
<!-- Node18&#45;&gt;Node19 -->
<g id="edge22_Node000018_Node000019" class="edge">
<title>Node18&#45;&gt;Node19</title>
<g id="a_edge22_Node000018_Node000019"><a xlink:title=" ">
<path fill="none" stroke="#63b8ff" d="M1006,-55.08C1006,-48.57 1006,-39.42 1006,-31.12"/>
<polygon fill="#63b8ff" stroke="#63b8ff" points="1009.5,-31.12 1006,-21.12 1002.5,-31.12 1009.5,-31.12"/>
</a>
</g>
</g>
<!-- Node20&#45;&gt;Node9 -->
<g id="edge27_Node000020_Node000009" class="edge">
<title>Node20&#45;&gt;Node9</title>
<g id="a_edge27_Node000020_Node000009"><a xlink:title=" ">
<path fill="none" stroke="#63b8ff" d="M1071.9,-115.68C1064.13,-113.74 1055.81,-111.86 1048,-110.5 891.89,-83.31 703.2,-71.63 622.6,-67.62"/>
<polygon fill="#63b8ff" stroke="#63b8ff" points="623.18,-64.15 613.02,-67.16 622.84,-71.14 623.18,-64.15"/>
</a>
</g>
</g>
<!-- Node20&#45;&gt;Node12 -->
<g id="edge28_Node000020_Node000012" class="edge">
<title>Node20&#45;&gt;Node12</title>
<g id="a_edge28_Node000020_Node000012"><a xlink:title=" ">
<path fill="none" stroke="#63b8ff" d="M1099.02,-115.9C1090.48,-101.43 1071.76,-72.61 1049,-55.25 1036.67,-45.84 1000.12,-31.24 973.61,-21.32"/>
<polygon fill="#63b8ff" stroke="#63b8ff" points="974.97,-18.1 964.38,-17.91 972.54,-24.66 974.97,-18.1"/>
</a>
</g>
</g>
<!-- Node20&#45;&gt;Node18 -->
<g id="edge26_Node000020_Node000018" class="edge">
<title>Node20&#45;&gt;Node18</title>
<g id="a_edge26_Node000020_Node000018"><a xlink:title=" ">
<path fill="none" stroke="#63b8ff" d="M1089.12,-115.81C1073.65,-106.51 1049.17,-91.81 1030.78,-80.76"/>
<polygon fill="#63b8ff" stroke="#63b8ff" points="1032.7,-77.83 1022.32,-75.68 1029.09,-83.83 1032.7,-77.83"/>
</a>
</g>
</g>
<!-- Node21&#45;&gt;Node9 -->
<g id="edge30_Node000021_Node000009" class="edge">
<title>Node21&#45;&gt;Node9</title>
<g id="a_edge30_Node000021_Node000009"><a xlink:title=" ">
<path fill="none" stroke="#63b8ff" d="M426.19,-115.77C431.42,-114.01 436.88,-112.18 442,-110.5 476.25,-99.27 515.33,-86.94 543.65,-78.09"/>
<polygon fill="#63b8ff" stroke="#63b8ff" points="544.37,-81.53 552.87,-75.21 542.29,-74.85 544.37,-81.53"/>
</a>
</g>
</g>
<!-- Node22&#45;&gt;Node9 -->
<g id="edge32_Node000022_Node000009" class="edge">
<title>Node22&#45;&gt;Node9</title>
<g id="a_edge32_Node000022_Node000009"><a xlink:title=" ">
<path fill="none" stroke="#63b8ff" d="M503.28,-115.81C518.05,-106.56 541.37,-91.95 558.99,-80.92"/>
<polygon fill="#63b8ff" stroke="#63b8ff" points="560.69,-83.98 567.31,-75.7 556.97,-78.05 560.69,-83.98"/>
</a>
</g>
</g>
<!-- Node23&#45;&gt;Node9 -->
<g id="edge35_Node000023_Node000009" class="edge">
<title>Node23&#45;&gt;Node9</title>
<g id="a_edge35_Node000023_Node000009"><a xlink:title=" ">
<path fill="none" stroke="#63b8ff" d="M1182.95,-115.63C1175.51,-113.66 1167.51,-111.79 1160,-110.5 960.34,-76.24 717.26,-68.27 623.01,-66.42"/>
<polygon fill="#63b8ff" stroke="#63b8ff" points="623.32,-62.93 613.26,-66.25 623.2,-69.93 623.32,-62.93"/>
</a>
</g>
</g>
<!-- Node23&#45;&gt;Node12 -->
<g id="edge36_Node000023_Node000012" class="edge">
<title>Node23&#45;&gt;Node12</title>
<g id="a_edge36_Node000023_Node000012"><a xlink:title=" ">
<path fill="none" stroke="#63b8ff" d="M1196.51,-115.7C1170.66,-101.71 1118.8,-74.45 1073,-55.25 1054.72,-47.59 1005.25,-30.89 973.16,-20.23"/>
<polygon fill="#63b8ff" stroke="#63b8ff" points="974.64,-17.03 964.05,-17.21 972.44,-23.68 974.64,-17.03"/>
</a>
</g>
</g>
<!-- Node23&#45;&gt;Node18 -->
<g id="edge34_Node000023_Node000018" class="edge">
<title>Node23&#45;&gt;Node18</title>
<g id="a_edge34_Node000023_Node000018"><a xlink:title=" ">
<path fill="none" stroke="#63b8ff" d="M1181.11,-115.68C1145.63,-105.59 1088.13,-89.23 1048.76,-78.04"/>
<polygon fill="#63b8ff" stroke="#63b8ff" points="1049.96,-74.74 1039.38,-75.37 1048.04,-81.47 1049.96,-74.74"/>
</a>
</g>
</g>
<!-- Node24&#45;&gt;Node9 -->
<g id="edge39_Node000024_Node000009" class="edge">
<title>Node24&#45;&gt;Node9</title>
<g id="a_edge39_Node000024_Node000009"><a xlink:title=" ">
<path fill="none" stroke="#63b8ff" d="M803.79,-115.68C754.55,-104.57 671.65,-85.87 622.66,-74.82"/>
<polygon fill="#63b8ff" stroke="#63b8ff" points="623.57,-71.44 613.04,-72.65 622.03,-78.27 623.57,-71.44"/>
</a>
</g>
</g>
<!-- Node24&#45;&gt;Node12 -->
<g id="edge40_Node000024_Node000012" class="edge">
<title>Node24&#45;&gt;Node12</title>
<g id="a_edge40_Node000024_Node000012"><a xlink:title=" ">
<path fill="none" stroke="#63b8ff" d="M851.85,-115.79C868.42,-96.88 907.25,-52.57 928.84,-27.93"/>
<polygon fill="#63b8ff" stroke="#63b8ff" points="931.23,-30.5 935.19,-20.68 925.97,-25.89 931.23,-30.5"/>
</a>
</g>
</g>
<!-- Node24&#45;&gt;Node18 -->
<g id="edge38_Node000024_Node000018" class="edge">
<title>Node24&#45;&gt;Node18</title>
<g id="a_edge38_Node000024_Node000018"><a xlink:title=" ">
<path fill="none" stroke="#63b8ff" d="M868.96,-115.68C896.07,-105.83 939.62,-90 970.33,-78.84"/>
<polygon fill="#63b8ff" stroke="#63b8ff" points="971.39,-82.18 979.59,-75.47 969,-75.6 971.39,-82.18"/>
</a>
</g>
</g>
<!-- Node25&#45;&gt;Node9 -->
<g id="edge43_Node000025_Node000009" class="edge">
<title>Node25&#45;&gt;Node9</title>
<g id="a_edge43_Node000025_Node000009"><a xlink:title=" ">
<path fill="none" stroke="#63b8ff" d="M923.31,-112.19C920.17,-111.6 917.05,-111.03 914,-110.5 809.34,-92.34 684.97,-77.32 622.69,-70.24"/>
<polygon fill="#63b8ff" stroke="#63b8ff" points="623.28,-66.79 612.95,-69.15 622.5,-73.74 623.28,-66.79"/>
</a>
</g>
</g>
<!-- Node25&#45;&gt;Node12 -->
<g id="edge44_Node000025_Node000012" class="edge">
<title>Node25&#45;&gt;Node12</title>
<g id="a_edge44_Node000025_Node000012"><a xlink:title=" ">
<path fill="none" stroke="#63b8ff" d="M975.59,-110.31C971.9,-100.31 966.98,-86.65 963,-74.5 958.19,-59.82 953.23,-43.08 949.59,-30.42"/>
<polygon fill="#63b8ff" stroke="#63b8ff" points="952.95,-29.46 946.85,-20.81 946.22,-31.38 952.95,-29.46"/>
</a>
</g>
</g>
<!-- Node25&#45;&gt;Node18 -->
<g id="edge42_Node000025_Node000018" class="edge">
<title>Node25&#45;&gt;Node18</title>
<g id="a_edge42_Node000025_Node000018"><a xlink:title=" ">
<path fill="none" stroke="#63b8ff" d="M987.18,-110.2C990.36,-102.7 994.29,-93.45 997.73,-85.35"/>
<polygon fill="#63b8ff" stroke="#63b8ff" points="1000.87,-86.92 1001.55,-76.34 994.42,-84.18 1000.87,-86.92"/>
</a>
</g>
</g>
<!-- Node26&#45;&gt;Node9 -->
<g id="edge48_Node000026_Node000009" class="edge">
<title>Node26&#45;&gt;Node9</title>
<g id="a_edge48_Node000026_Node000009"><a xlink:title=" ">
<path fill="none" stroke="#63b8ff" d="M1298.34,-115.63C1287.79,-113.69 1276.52,-111.83 1266,-110.5 1023.06,-79.9 728.7,-69.65 623.1,-66.81"/>
<polygon fill="#63b8ff" stroke="#63b8ff" points="623.35,-63.32 613.26,-66.56 623.17,-70.32 623.35,-63.32"/>
</a>
</g>
</g>
<!-- Node26&#45;&gt;Node11 -->
<g id="edge49_Node000026_Node000011" class="edge">
<title>Node26&#45;&gt;Node11</title>
<g id="a_edge49_Node000026_Node000011"><a xlink:title=" ">
<path fill="none" stroke="#63b8ff" d="M1343.96,-115.79C1347.96,-97.54 1357.14,-55.66 1362.62,-30.6"/>
<polygon fill="#63b8ff" stroke="#63b8ff" points="1366,-31.53 1364.72,-21.02 1359.16,-30.04 1366,-31.53"/>
</a>
</g>
</g>
<!-- Node26&#45;&gt;Node12 -->
<g id="edge51_Node000026_Node000012" class="edge">
<title>Node26&#45;&gt;Node12</title>
<g id="a_edge51_Node000026_Node000012"><a xlink:title=" ">
<path fill="none" stroke="#63b8ff" d="M1312.4,-115.72C1267.91,-102.21 1181.13,-76.09 1107,-55.25 1050.49,-39.36 1033.52,-36.66 973.76,-19.67"/>
<polygon fill="#63b8ff" stroke="#63b8ff" points="974.98,-16.38 964.4,-16.99 973.05,-23.1 974.98,-16.38"/>
</a>
</g>
</g>
<!-- Node27 -->
<g id="Node000027" class="node">
<title>Node27</title>
<g id="a_Node000027"><a xlink:title=" ">
<polygon fill="#e0e0e0" stroke="#999999" points="1338.88,-74.5 1295.12,-74.5 1295.12,-55.25 1338.88,-55.25 1338.88,-74.5"/>
<text text-anchor="middle" x="1317" y="-61" font-family="Helvetica,sans-Serif" font-size="10.00">format</text>
</a>
</g>
</g>
<!-- Node26&#45;&gt;Node27 -->
<g id="edge50_Node000026_Node000027" class="edge">
<title>Node26&#45;&gt;Node27</title>
<g id="a_edge50_Node000026_Node000027"><a xlink:title=" ">
<path fill="none" stroke="#63b8ff" d="M1338.2,-115.81C1334.79,-107.77 1329.66,-95.68 1325.29,-85.41"/>
<polygon fill="#63b8ff" stroke="#63b8ff" points="1328.55,-84.13 1321.42,-76.29 1322.11,-86.87 1328.55,-84.13"/>
</a>
</g>
</g>
<!-- Node29 -->
<g id="Node000029" class="node">
<title>Node29</title>
<g id="a_Node000029"><a xlink:title=" ">
<polygon fill="#e0e0e0" stroke="#999999" points="1461.38,-135.38 1426.62,-135.38 1426.62,-116.12 1461.38,-116.12 1461.38,-135.38"/>
<text text-anchor="middle" x="1444" y="-121.88" font-family="Helvetica,sans-Serif" font-size="10.00">print</text>
</a>
</g>
</g>
<!-- Node28&#45;&gt;Node29 -->
<g id="edge53_Node000028_Node000029" class="edge">
<title>Node28&#45;&gt;Node29</title>
<g id="a_edge53_Node000028_Node000029"><a xlink:title=" ">
<path fill="none" stroke="#63b8ff" d="M1312.91,-176.52C1341.65,-168.55 1383.18,-155.93 1418,-141 1418.11,-140.95 1418.22,-140.91 1418.33,-140.86"/>
<polygon fill="#63b8ff" stroke="#63b8ff" points="1419.77,-144.05 1427.21,-136.51 1416.69,-137.76 1419.77,-144.05"/>
</a>
</g>
</g>
</g>
</svg>
