<?xml version="1.0" encoding="UTF-8" standalone="no"?>
<!DOCTYPE svg PUBLIC "-//W3C//DTD SVG 1.1//EN"
 "http://www.w3.org/Graphics/SVG/1.1/DTD/svg11.dtd">
<!-- Generated by graphviz version 12.2.0 (20241103.1931)
 -->
<!-- Title: /github/workspace/benchmark/update_1x1x0.cpp Pages: 1 -->
<!--zoomable 326 -->

<svg id="main" version="1.1" xmlns="http://www.w3.org/2000/svg" xmlns:xlink="http://www.w3.org/1999/xlink" xml:space="preserve" onload="init(evt)">

<style type="text/css"><![CDATA[
.node, .edge {opacity: 0.7;}
.node.selected, .edge.selected {opacity: 1;}
.edge:hover path { stroke: red; }
.edge:hover polygon { stroke: red; fill: red; }
]]></style>

<defs>
  <circle id="rim" cx="0" cy="0" r="7"/>
  <circle id="rim2" cx="0" cy="0" r="3.5"/>
  <g id="zoomPlus">
    <use xlink:href="#rim" fill="#404040"><set attributeName="fill" to="#808080" begin="zoomplus.mouseover" end="zoomplus.mouseout"/></use>
    <path d="M-4,0h8M0,-4v8" fill="none" stroke="white" stroke-width="1.5" pointer-events="none"/>
  </g>
  <g id="zoomMin">
    <use xlink:href="#rim" fill="#404040"><set attributeName="fill" to="#808080" begin="zoomminus.mouseover" end="zoomminus.mouseout"/></use>
    <path d="M-4,0h8" fill="none" stroke="white" stroke-width="1.5" pointer-events="none"/>
  </g>
  <g id="arrowUp" transform="translate(30 24)">
    <use xlink:href="#rim"/>
    <path pointer-events="none" fill="none" stroke="white" stroke-width="1.5" d="M0,-3.0v7 M-2.5,-0.5L0,-3.0L2.5,-0.5"/>
  </g>
  <g id="arrowRight" transform="rotate(90) translate(36 -43)">
    <use xlink:href="#rim"/>
    <path pointer-events="none" fill="none" stroke="white" stroke-width="1.5" d="M0,-3.0v7 M-2.5,-0.5L0,-3.0L2.5,-0.5"/>
  </g>
  <g id="arrowDown" transform="rotate(180) translate(-30 -48)">
    <use xlink:href="#rim"/>
    <path pointer-events="none" fill="none" stroke="white" stroke-width="1.5" d="M0,-3.0v7 M-2.5,-0.5L0,-3.0L2.5,-0.5"/>
  </g>
  <g id="arrowLeft" transform="rotate(270) translate(-36 17)">
    <use xlink:href="#rim"/>
    <path pointer-events="none" fill="none" stroke="white" stroke-width="1.5" d="M0,-3.0v7 M-2.5,-0.5L0,-3.0L2.5,-0.5"/>
  </g>
  <g id="resetDef">
    <use xlink:href="#rim2" fill="#404040"><set attributeName="fill" to="#808080" begin="reset.mouseover" end="reset.mouseout"/></use>
  </g>
</defs>
<script type="application/ecmascript">
var viewWidth = 1787;
var viewHeight = 326;
var sectionId = 'dynsection-0';
</script>
<script type="application/ecmascript" xlink:href="svg.min.js"/>
<svg id="graph" class="graph">
<g id="viewport">
<title>/github/workspace/benchmark/update_1x1x0.cpp</title>
<!-- Node1 -->
<g id="Node000001" class="node">
<title>Node1</title>
<g id="a_Node000001"><a xlink:title=" ">
<polygon fill="#999999" stroke="#666666" points="1590.75,-318 1444.25,-318 1444.25,-287.5 1590.75,-287.5 1590.75,-318"/>
<text text-anchor="start" x="1452.25" y="-304.5" font-family="Helvetica,sans-Serif" font-size="10.00">/github/workspace/benchmark</text>
<text text-anchor="middle" x="1517.5" y="-293.25" font-family="Helvetica,sans-Serif" font-size="10.00">/update_1x1x0.cpp</text>
</a>
</g>
</g>
<!-- Node2 -->
<g id="Node000002" class="node">
<title>Node2</title>
<g id="a_Node000002"><a xlink:href="benchmark_8hpp.xhtml" target="_top" xlink:title="Benchmarking support.">
<polygon fill="white" stroke="#666666" points="1498.5,-251.5 1416.5,-251.5 1416.5,-232.25 1498.5,-232.25 1498.5,-251.5"/>
<text text-anchor="middle" x="1457.5" y="-238" font-family="Helvetica,sans-Serif" font-size="10.00">benchmark.hpp</text>
</a>
</g>
</g>
<!-- Node1&#45;&gt;Node2 -->
<g id="edge1_Node000001_Node000002" class="edge">
<title>Node1&#45;&gt;Node2</title>
<g id="a_edge1_Node000001_Node000002"><a xlink:title=" ">
<path fill="none" stroke="#63b8ff" d="M1502.67,-287.2C1494.24,-278.92 1483.63,-268.52 1474.82,-259.87"/>
<polygon fill="#63b8ff" stroke="#63b8ff" points="1477.42,-257.52 1467.83,-253.01 1472.52,-262.51 1477.42,-257.52"/>
</a>
</g>
</g>
<!-- Node3 -->
<g id="Node000003" class="node">
<title>Node3</title>
<g id="a_Node000003"><a xlink:title=" ">
<polygon fill="#e0e0e0" stroke="#999999" points="1446.12,-196.25 1400.88,-196.25 1400.88,-177 1446.12,-177 1446.12,-196.25"/>
<text text-anchor="middle" x="1423.5" y="-182.75" font-family="Helvetica,sans-Serif" font-size="10.00">chrono</text>
</a>
</g>
</g>
<!-- Node1&#45;&gt;Node3 -->
<g id="edge61_Node000001_Node000003" class="edge">
<title>Node1&#45;&gt;Node3</title>
<g id="a_edge61_Node000001_Node000003"><a xlink:title=" ">
<path fill="none" stroke="#63b8ff" d="M1454.5,-287.03C1436.21,-279.53 1418.28,-268.28 1407.5,-251.5 1398.72,-237.84 1404.61,-219.68 1411.59,-206.21"/>
<polygon fill="#63b8ff" stroke="#63b8ff" points="1414.42,-208.31 1416.41,-197.9 1408.36,-204.8 1414.42,-208.31"/>
</a>
</g>
</g>
<!-- Node5 -->
<g id="Node000005" class="node">
<title>Node5</title>
<g id="a_Node000005"><a xlink:href="kalman_8hpp.xhtml" target="_top" xlink:title="The Kalman filter class and library top&#45;level header.">
<polygon fill="white" stroke="#666666" points="962.5,-251.5 856.5,-251.5 856.5,-232.25 962.5,-232.25 962.5,-251.5"/>
<text text-anchor="middle" x="909.5" y="-238" font-family="Helvetica,sans-Serif" font-size="10.00">fcarouge/kalman.hpp</text>
</a>
</g>
</g>
<!-- Node1&#45;&gt;Node5 -->
<g id="edge4_Node000001_Node000005" class="edge">
<title>Node1&#45;&gt;Node5</title>
<g id="a_edge4_Node000001_Node000005"><a xlink:title=" ">
<path fill="none" stroke="#63b8ff" d="M1443.86,-294.62C1323.89,-283 1088.23,-260.18 974.26,-249.15"/>
<polygon fill="#63b8ff" stroke="#63b8ff" points="974.76,-245.68 964.47,-248.2 974.08,-252.65 974.76,-245.68"/>
</a>
</g>
</g>
<!-- Node31 -->
<g id="Node000031" class="node">
<title>Node31</title>
<g id="a_Node000031"><a xlink:title=" ">
<polygon fill="#e0e0e0" stroke="#999999" points="1638.75,-251.5 1516.25,-251.5 1516.25,-232.25 1638.75,-232.25 1638.75,-251.5"/>
<text text-anchor="middle" x="1577.5" y="-238" font-family="Helvetica,sans-Serif" font-size="10.00">benchmark/benchmark.h</text>
</a>
</g>
</g>
<!-- Node1&#45;&gt;Node31 -->
<g id="edge59_Node000001_Node000031" class="edge">
<title>Node1&#45;&gt;Node31</title>
<g id="a_edge59_Node000001_Node000031"><a xlink:title=" ">
<path fill="none" stroke="#63b8ff" d="M1532.33,-287.2C1540.76,-278.92 1551.37,-268.52 1560.18,-259.87"/>
<polygon fill="#63b8ff" stroke="#63b8ff" points="1562.48,-262.51 1567.17,-253.01 1557.58,-257.52 1562.48,-262.51"/>
</a>
</g>
</g>
<!-- Node32 -->
<g id="Node000032" class="node">
<title>Node32</title>
<g id="a_Node000032"><a xlink:title=" ">
<polygon fill="#e0e0e0" stroke="#999999" points="1712.38,-251.5 1656.62,-251.5 1656.62,-232.25 1712.38,-232.25 1712.38,-251.5"/>
<text text-anchor="middle" x="1684.5" y="-238" font-family="Helvetica,sans-Serif" font-size="10.00">algorithm</text>
</a>
</g>
</g>
<!-- Node1&#45;&gt;Node32 -->
<g id="edge60_Node000001_Node000032" class="edge">
<title>Node1&#45;&gt;Node32</title>
<g id="a_edge60_Node000001_Node000032"><a xlink:title=" ">
<path fill="none" stroke="#63b8ff" d="M1559.21,-287.05C1586.6,-277.39 1622.07,-264.88 1648.28,-255.65"/>
<polygon fill="#63b8ff" stroke="#63b8ff" points="1649.19,-259.03 1657.46,-252.41 1646.87,-252.43 1649.19,-259.03"/>
</a>
</g>
</g>
<!-- Node33 -->
<g id="Node000033" class="node">
<title>Node33</title>
<g id="a_Node000033"><a xlink:title=" ">
<polygon fill="#e0e0e0" stroke="#999999" points="1778.62,-251.5 1730.38,-251.5 1730.38,-232.25 1778.62,-232.25 1778.62,-251.5"/>
<text text-anchor="middle" x="1754.5" y="-238" font-family="Helvetica,sans-Serif" font-size="10.00">random</text>
</a>
</g>
</g>
<!-- Node1&#45;&gt;Node33 -->
<g id="edge62_Node000001_Node000033" class="edge">
<title>Node1&#45;&gt;Node33</title>
<g id="a_edge62_Node000001_Node000033"><a xlink:title=" ">
<path fill="none" stroke="#63b8ff" d="M1578.26,-287.02C1616.23,-277.76 1666.44,-265.42 1719.09,-252.09"/>
<polygon fill="#63b8ff" stroke="#63b8ff" points="1719.7,-255.54 1728.53,-249.69 1717.98,-248.76 1719.7,-255.54"/>
</a>
</g>
</g>
<!-- Node2&#45;&gt;Node3 -->
<g id="edge2_Node000002_Node000003" class="edge">
<title>Node2&#45;&gt;Node3</title>
<g id="a_edge2_Node000002_Node000003"><a xlink:title=" ">
<path fill="none" stroke="#63b8ff" d="M1451.89,-232.08C1447.38,-225.03 1440.91,-214.9 1435.29,-206.08"/>
<polygon fill="#63b8ff" stroke="#63b8ff" points="1438.38,-204.43 1430.05,-197.88 1432.48,-208.2 1438.38,-204.43"/>
</a>
</g>
</g>
<!-- Node4 -->
<g id="Node000004" class="node">
<title>Node4</title>
<g id="a_Node000004"><a xlink:title=" ">
<polygon fill="#e0e0e0" stroke="#999999" points="1535,-19.25 1474,-19.25 1474,0 1535,0 1535,-19.25"/>
<text text-anchor="middle" x="1504.5" y="-5.75" font-family="Helvetica,sans-Serif" font-size="10.00">type_traits</text>
</a>
</g>
</g>
<!-- Node2&#45;&gt;Node4 -->
<g id="edge3_Node000002_Node000004" class="edge">
<title>Node2&#45;&gt;Node4</title>
<g id="a_edge3_Node000002_Node000004"><a xlink:title=" ">
<path fill="none" stroke="#63b8ff" d="M1466.35,-231.79C1488.53,-208.26 1546.05,-142.44 1564.5,-74.5 1566.74,-66.24 1568.34,-62.89 1564.5,-55.25 1558.14,-42.6 1546.31,-32.63 1534.83,-25.35"/>
<polygon fill="#63b8ff" stroke="#63b8ff" points="1536.69,-22.38 1526.28,-20.41 1533.18,-28.44 1536.69,-22.38"/>
</a>
</g>
</g>
<!-- Node6 -->
<g id="Node000006" class="node">
<title>Node6</title>
<g id="a_Node000006"><a xlink:href="kalman__forward_8hpp.xhtml" target="_top" xlink:title="Authoritative forward declaration header.">
<polygon fill="white" stroke="#666666" points="1098,-196.25 995,-196.25 995,-177 1098,-177 1098,-196.25"/>
<text text-anchor="middle" x="1046.5" y="-182.75" font-family="Helvetica,sans-Serif" font-size="10.00">kalman_forward.hpp</text>
</a>
</g>
</g>
<!-- Node5&#45;&gt;Node6 -->
<g id="edge5_Node000005_Node000006" class="edge">
<title>Node5&#45;&gt;Node6</title>
<g id="a_edge5_Node000005_Node000006"><a xlink:title=" ">
<path fill="none" stroke="#63b8ff" d="M932.74,-231.84C954.69,-223.31 987.85,-210.42 1012.71,-200.76"/>
<polygon fill="#63b8ff" stroke="#63b8ff" points="1013.68,-204.14 1021.74,-197.25 1011.15,-197.61 1013.68,-204.14"/>
</a>
</g>
</g>
<!-- Node7 -->
<g id="Node000007" class="node">
<title>Node7</title>
<g id="a_Node000007"><a xlink:href="factory_8hpp.xhtml" target="_top" xlink:title=" ">
<polygon fill="white" stroke="#666666" points="976.75,-196.25 842.25,-196.25 842.25,-177 976.75,-177 976.75,-196.25"/>
<text text-anchor="middle" x="909.5" y="-182.75" font-family="Helvetica,sans-Serif" font-size="10.00">kalman_internal/factory.hpp</text>
</a>
</g>
</g>
<!-- Node5&#45;&gt;Node7 -->
<g id="edge6_Node000005_Node000007" class="edge">
<title>Node5&#45;&gt;Node7</title>
<g id="a_edge6_Node000005_Node000007"><a xlink:title=" ">
<path fill="none" stroke="#63b8ff" d="M909.5,-232.08C909.5,-225.57 909.5,-216.42 909.5,-208.12"/>
<polygon fill="#63b8ff" stroke="#63b8ff" points="913,-208.12 909.5,-198.12 906,-208.12 913,-208.12"/>
</a>
</g>
</g>
<!-- Node9 -->
<g id="Node000009" class="node">
<title>Node9</title>
<g id="a_Node000009"><a xlink:href="utility_8hpp.xhtml" target="_top" xlink:title=" ">
<polygon fill="white" stroke="#666666" points="747.75,-74.5 691.25,-74.5 691.25,-55.25 747.75,-55.25 747.75,-74.5"/>
<text text-anchor="middle" x="719.5" y="-61" font-family="Helvetica,sans-Serif" font-size="10.00">utility.hpp</text>
</a>
</g>
</g>
<!-- Node5&#45;&gt;Node9 -->
<g id="edge57_Node000005_Node000009" class="edge">
<title>Node5&#45;&gt;Node9</title>
<g id="a_edge57_Node000005_Node000009"><a xlink:title=" ">
<path fill="none" stroke="#63b8ff" d="M856.07,-240.18C724.51,-237.23 390.69,-221.77 322.5,-141 313.76,-130.64 313.47,-120.61 322.5,-110.5 346.05,-84.16 583.6,-71.48 679.58,-67.4"/>
<polygon fill="#63b8ff" stroke="#63b8ff" points="679.47,-70.91 689.32,-67 679.18,-63.91 679.47,-70.91"/>
</a>
</g>
</g>
<!-- Node26 -->
<g id="Node000026" class="node">
<title>Node26</title>
<g id="a_Node000026"><a xlink:href="format_8hpp.xhtml" target="_top" xlink:title="Formatting support for the Kalman filter.">
<polygon fill="white" stroke="#666666" points="133,-135.38 0,-135.38 0,-116.12 133,-116.12 133,-135.38"/>
<text text-anchor="middle" x="66.5" y="-121.88" font-family="Helvetica,sans-Serif" font-size="10.00">kalman_internal/format.hpp</text>
</a>
</g>
</g>
<!-- Node5&#45;&gt;Node26 -->
<g id="edge48_Node000005_Node000026" class="edge">
<title>Node5&#45;&gt;Node26</title>
<g id="a_edge48_Node000005_Node000026"><a xlink:title=" ">
<path fill="none" stroke="#63b8ff" d="M856.13,-239.17C721.48,-234.55 370.57,-220.5 256.5,-196.25 197.81,-183.77 132.84,-157 96.11,-140.57"/>
<polygon fill="#63b8ff" stroke="#63b8ff" points="97.59,-137.39 87.03,-136.45 94.7,-143.77 97.59,-137.39"/>
</a>
</g>
</g>
<!-- Node28 -->
<g id="Node000028" class="node">
<title>Node28</title>
<g id="a_Node000028"><a xlink:href="print_8hpp.xhtml" target="_top" xlink:title=" ">
<polygon fill="white" stroke="#666666" points="275.5,-135.38 151.5,-135.38 151.5,-116.12 275.5,-116.12 275.5,-135.38"/>
<text text-anchor="middle" x="213.5" y="-121.88" font-family="Helvetica,sans-Serif" font-size="10.00">kalman_internal/print.hpp</text>
</a>
</g>
</g>
<!-- Node5&#45;&gt;Node28 -->
<g id="edge53_Node000005_Node000028" class="edge">
<title>Node5&#45;&gt;Node28</title>
<g id="a_edge53_Node000005_Node000028"><a xlink:title=" ">
<path fill="none" stroke="#63b8ff" d="M856.15,-241.48C725.1,-242.27 390.74,-239.81 289.5,-196.25 263.41,-185.03 240.44,-160.98 226.76,-144.34"/>
<polygon fill="#63b8ff" stroke="#63b8ff" points="229.71,-142.42 220.76,-136.74 224.21,-146.76 229.71,-142.42"/>
</a>
</g>
</g>
<!-- Node30 -->
<g id="Node000030" class="node">
<title>Node30</title>
<g id="a_Node000030"><a xlink:title=" ">
<polygon fill="#e0e0e0" stroke="#999999" points="1250.75,-196.25 1116.25,-196.25 1116.25,-177 1250.75,-177 1250.75,-196.25"/>
<text text-anchor="middle" x="1183.5" y="-182.75" font-family="Helvetica,sans-Serif" font-size="10.00">kalman_internal/kalman.tpp</text>
</a>
</g>
</g>
<!-- Node5&#45;&gt;Node30 -->
<g id="edge58_Node000005_Node000030" class="edge">
<title>Node5&#45;&gt;Node30</title>
<g id="a_edge58_Node000005_Node000030"><a xlink:title=" ">
<path fill="none" stroke="#63b8ff" d="M956.29,-231.78C1003.18,-222.67 1075.46,-208.62 1125.86,-198.83"/>
<polygon fill="#63b8ff" stroke="#63b8ff" points="1126.27,-202.31 1135.42,-196.97 1124.93,-195.44 1126.27,-202.31"/>
</a>
</g>
</g>
<!-- Node7&#45;&gt;Node4 -->
<g id="edge47_Node000007_Node000004" class="edge">
<title>Node7&#45;&gt;Node4</title>
<g id="a_edge47_Node000007_Node000004"><a xlink:title=" ">
<path fill="none" stroke="#63b8ff" d="M977.09,-177.9C980.27,-177.58 983.42,-177.28 986.5,-177 1098.54,-166.74 1390.81,-191.19 1491.5,-141 1526.6,-123.51 1535.74,-111.22 1549.5,-74.5 1552.5,-66.49 1552.79,-63.15 1549.5,-55.25 1544.85,-44.09 1535.91,-34.3 1527.21,-26.74"/>
<polygon fill="#63b8ff" stroke="#63b8ff" points="1529.61,-24.18 1519.61,-20.67 1525.24,-29.65 1529.61,-24.18"/>
</a>
</g>
</g>
<!-- Node8 -->
<g id="Node000008" class="node">
<title>Node8</title>
<g id="a_Node000008"><a xlink:href="type_8hpp.xhtml" target="_top" xlink:title=" ">
<polygon fill="white" stroke="#666666" points="1482.5,-135.38 1430.5,-135.38 1430.5,-116.12 1482.5,-116.12 1482.5,-135.38"/>
<text text-anchor="middle" x="1456.5" y="-121.88" font-family="Helvetica,sans-Serif" font-size="10.00">type.hpp</text>
</a>
</g>
</g>
<!-- Node7&#45;&gt;Node8 -->
<g id="edge7_Node000007_Node000008" class="edge">
<title>Node7&#45;&gt;Node8</title>
<g id="a_edge7_Node000007_Node000008"><a xlink:title=" ">
<path fill="none" stroke="#63b8ff" d="M977.09,-177.95C980.27,-177.62 983.42,-177.3 986.5,-177 1177.37,-158.32 1229.05,-181.52 1416.5,-141 1418.81,-140.5 1421.16,-139.9 1423.52,-139.24"/>
<polygon fill="#63b8ff" stroke="#63b8ff" points="1424.47,-142.61 1432.93,-136.24 1422.34,-135.94 1424.47,-142.61"/>
</a>
</g>
</g>
<!-- Node10 -->
<g id="Node000010" class="node">
<title>Node10</title>
<g id="a_Node000010"><a xlink:title=" ">
<polygon fill="#e0e0e0" stroke="#999999" points="1319.38,-19.25 1263.62,-19.25 1263.62,0 1319.38,0 1319.38,-19.25"/>
<text text-anchor="middle" x="1291.5" y="-5.75" font-family="Helvetica,sans-Serif" font-size="10.00">concepts</text>
</a>
</g>
</g>
<!-- Node7&#45;&gt;Node10 -->
<g id="edge45_Node000007_Node000010" class="edge">
<title>Node7&#45;&gt;Node10</title>
<g id="a_edge45_Node000007_Node000010"><a xlink:title=" ">
<path fill="none" stroke="#63b8ff" d="M977.1,-177.99C980.28,-177.65 983.42,-177.32 986.5,-177 1028.24,-172.66 1334.27,-172.06 1362.5,-141 1394.7,-105.57 1342.77,-52.9 1311.86,-26.67"/>
<polygon fill="#63b8ff" stroke="#63b8ff" points="1314.18,-24.04 1304.23,-20.39 1309.73,-29.45 1314.18,-24.04"/>
</a>
</g>
</g>
<!-- Node12 -->
<g id="Node000012" class="node">
<title>Node12</title>
<g id="a_Node000012"><a xlink:title=" ">
<polygon fill="#e0e0e0" stroke="#999999" points="956,-19.25 919,-19.25 919,0 956,0 956,-19.25"/>
<text text-anchor="middle" x="937.5" y="-5.75" font-family="Helvetica,sans-Serif" font-size="10.00">tuple</text>
</a>
</g>
</g>
<!-- Node7&#45;&gt;Node12 -->
<g id="edge46_Node000007_Node000012" class="edge">
<title>Node7&#45;&gt;Node12</title>
<g id="a_edge46_Node000007_Node000012"><a xlink:title=" ">
<path fill="none" stroke="#63b8ff" d="M977.1,-178.01C980.28,-177.66 983.42,-177.33 986.5,-177 1026.37,-172.77 1318.6,-170.73 1345.5,-141 1354.59,-130.95 1353.82,-121.2 1345.5,-110.5 1333.59,-95.18 1059.26,-36.25 967.26,-16.86"/>
<polygon fill="#63b8ff" stroke="#63b8ff" points="968.24,-13.49 957.74,-14.85 966.8,-20.34 968.24,-13.49"/>
</a>
</g>
</g>
<!-- Node15 -->
<g id="Node000015" class="node">
<title>Node15</title>
<g id="a_Node000015"><a xlink:href="x__z__p__q__r_8hpp.xhtml" target="_top" xlink:title=" ">
<polygon fill="white" stroke="#666666" points="502.25,-135.38 424.75,-135.38 424.75,-116.12 502.25,-116.12 502.25,-135.38"/>
<text text-anchor="middle" x="463.5" y="-121.88" font-family="Helvetica,sans-Serif" font-size="10.00">x_z_p_q_r.hpp</text>
</a>
</g>
</g>
<!-- Node7&#45;&gt;Node15 -->
<g id="edge16_Node000007_Node000015" class="edge">
<title>Node7&#45;&gt;Node15</title>
<g id="a_edge16_Node000007_Node000015"><a xlink:title=" ">
<path fill="none" stroke="#63b8ff" d="M842.04,-181.71C762.42,-176.25 626.32,-164.29 511.5,-141 508.35,-140.36 505.1,-139.61 501.85,-138.79"/>
<polygon fill="#63b8ff" stroke="#63b8ff" points="502.98,-135.47 492.42,-136.21 501.14,-142.22 502.98,-135.47"/>
</a>
</g>
</g>
<!-- Node16 -->
<g id="Node000016" class="node">
<title>Node16</title>
<g id="a_Node000016"><a xlink:href="x__z__p__q__r__h__f_8hpp.xhtml" target="_top" xlink:title=" ">
<polygon fill="white" stroke="#666666" points="616.62,-135.38 520.38,-135.38 520.38,-116.12 616.62,-116.12 616.62,-135.38"/>
<text text-anchor="middle" x="568.5" y="-121.88" font-family="Helvetica,sans-Serif" font-size="10.00">x_z_p_q_r_h_f.hpp</text>
</a>
</g>
</g>
<!-- Node7&#45;&gt;Node16 -->
<g id="edge18_Node000007_Node000016" class="edge">
<title>Node7&#45;&gt;Node16</title>
<g id="a_edge18_Node000007_Node000016"><a xlink:title=" ">
<path fill="none" stroke="#63b8ff" d="M842.03,-176.62C784.51,-168.56 699.76,-155.75 626.5,-141 622.5,-140.2 618.37,-139.3 614.23,-138.37"/>
<polygon fill="#63b8ff" stroke="#63b8ff" points="615.37,-135.04 604.83,-136.17 613.77,-141.85 615.37,-135.04"/>
</a>
</g>
</g>
<!-- Node17 -->
<g id="Node000017" class="node">
<title>Node17</title>
<g id="a_Node000017"><a xlink:href="x__z__p__q__r__hh__us__ps_8hpp.xhtml" target="_top" xlink:title=" ">
<polygon fill="white" stroke="#666666" points="844.88,-135.38 720.12,-135.38 720.12,-116.12 844.88,-116.12 844.88,-135.38"/>
<text text-anchor="middle" x="782.5" y="-121.88" font-family="Helvetica,sans-Serif" font-size="10.00">x_z_p_q_r_hh_us_ps.hpp</text>
</a>
</g>
</g>
<!-- Node7&#45;&gt;Node17 -->
<g id="edge20_Node000007_Node000017" class="edge">
<title>Node7&#45;&gt;Node17</title>
<g id="a_edge20_Node000007_Node000017"><a xlink:title=" ">
<path fill="none" stroke="#63b8ff" d="M889.93,-176.55C869.18,-166.93 836.14,-151.62 812.17,-140.51"/>
<polygon fill="#63b8ff" stroke="#63b8ff" points="813.8,-137.4 803.25,-136.37 810.85,-143.75 813.8,-137.4"/>
</a>
</g>
</g>
<!-- Node20 -->
<g id="Node000020" class="node">
<title>Node20</title>
<g id="a_Node000020"><a xlink:href="x__z__p__qq__rr__f_8hpp.xhtml" target="_top" xlink:title=" ">
<polygon fill="white" stroke="#666666" points="956.5,-135.38 862.5,-135.38 862.5,-116.12 956.5,-116.12 956.5,-135.38"/>
<text text-anchor="middle" x="909.5" y="-121.88" font-family="Helvetica,sans-Serif" font-size="10.00">x_z_p_qq_rr_f.hpp</text>
</a>
</g>
</g>
<!-- Node7&#45;&gt;Node20 -->
<g id="edge25_Node000007_Node000020" class="edge">
<title>Node7&#45;&gt;Node20</title>
<g id="a_edge25_Node000007_Node000020"><a xlink:title=" ">
<path fill="none" stroke="#63b8ff" d="M909.5,-176.68C909.5,-168.9 909.5,-157.33 909.5,-147.28"/>
<polygon fill="#63b8ff" stroke="#63b8ff" points="913,-147.29 909.5,-137.29 906,-147.29 913,-147.29"/>
</a>
</g>
</g>
<!-- Node21 -->
<g id="Node000021" class="node">
<title>Node21</title>
<g id="a_Node000021"><a xlink:href="x__z__p__r_8hpp.xhtml" target="_top" xlink:title=" ">
<polygon fill="white" stroke="#666666" points="702,-135.38 635,-135.38 635,-116.12 702,-116.12 702,-135.38"/>
<text text-anchor="middle" x="668.5" y="-121.88" font-family="Helvetica,sans-Serif" font-size="10.00">x_z_p_r.hpp</text>
</a>
</g>
</g>
<!-- Node7&#45;&gt;Node21 -->
<g id="edge29_Node000007_Node000021" class="edge">
<title>Node7&#45;&gt;Node21</title>
<g id="a_edge29_Node000007_Node000021"><a xlink:title=" ">
<path fill="none" stroke="#63b8ff" d="M863.17,-176.53C822.84,-168.29 762.94,-155.28 711.5,-141 709.4,-140.42 707.24,-139.79 705.08,-139.14"/>
<polygon fill="#63b8ff" stroke="#63b8ff" points="706.33,-135.87 695.74,-136.21 704.23,-142.54 706.33,-135.87"/>
</a>
</g>
</g>
<!-- Node22 -->
<g id="Node000022" class="node">
<title>Node22</title>
<g id="a_Node000022"><a xlink:href="x__z__p__r__f_8hpp.xhtml" target="_top" xlink:title=" ">
<polygon fill="white" stroke="#666666" points="407.12,-135.38 331.88,-135.38 331.88,-116.12 407.12,-116.12 407.12,-135.38"/>
<text text-anchor="middle" x="369.5" y="-121.88" font-family="Helvetica,sans-Serif" font-size="10.00">x_z_p_r_f.hpp</text>
</a>
</g>
</g>
<!-- Node7&#45;&gt;Node22 -->
<g id="edge31_Node000007_Node000022" class="edge">
<title>Node7&#45;&gt;Node22</title>
<g id="a_edge31_Node000007_Node000022"><a xlink:title=" ">
<path fill="none" stroke="#63b8ff" d="M842.15,-184.02C746.47,-180.72 566.08,-170.78 415.5,-141 412.53,-140.41 409.47,-139.7 406.42,-138.92"/>
<polygon fill="#63b8ff" stroke="#63b8ff" points="407.56,-135.61 396.98,-136.27 405.66,-142.35 407.56,-135.61"/>
</a>
</g>
</g>
<!-- Node23 -->
<g id="Node000023" class="node">
<title>Node23</title>
<g id="a_Node000023"><a xlink:href="x__z__u__p__q__r_8hpp.xhtml" target="_top" xlink:title=" ">
<polygon fill="white" stroke="#666666" points="1062.5,-135.38 974.5,-135.38 974.5,-116.12 1062.5,-116.12 1062.5,-135.38"/>
<text text-anchor="middle" x="1018.5" y="-121.88" font-family="Helvetica,sans-Serif" font-size="10.00">x_z_u_p_q_r.hpp</text>
</a>
</g>
</g>
<!-- Node7&#45;&gt;Node23 -->
<g id="edge33_Node000007_Node000023" class="edge">
<title>Node7&#45;&gt;Node23</title>
<g id="a_edge33_Node000007_Node000023"><a xlink:title=" ">
<path fill="none" stroke="#63b8ff" d="M926.05,-176.68C943.5,-167.26 971.25,-152.27 991.79,-141.18"/>
<polygon fill="#63b8ff" stroke="#63b8ff" points="993.32,-144.33 1000.46,-136.5 990,-138.17 993.32,-144.33"/>
</a>
</g>
</g>
<!-- Node24 -->
<g id="Node000024" class="node">
<title>Node24</title>
<g id="a_Node000024"><a xlink:href="x__z__u__p__q__r__f__g__ps_8hpp.xhtml" target="_top" xlink:title=" ">
<polygon fill="white" stroke="#666666" points="1202.75,-135.38 1080.25,-135.38 1080.25,-116.12 1202.75,-116.12 1202.75,-135.38"/>
<text text-anchor="middle" x="1141.5" y="-121.88" font-family="Helvetica,sans-Serif" font-size="10.00">x_z_u_p_q_r_f_g_ps.hpp</text>
</a>
</g>
</g>
<!-- Node7&#45;&gt;Node24 -->
<g id="edge37_Node000007_Node000024" class="edge">
<title>Node7&#45;&gt;Node24</title>
<g id="a_edge37_Node000007_Node000024"><a xlink:title=" ">
<path fill="none" stroke="#63b8ff" d="M945.24,-176.55C985.35,-166.38 1050.56,-149.83 1094.7,-138.63"/>
<polygon fill="#63b8ff" stroke="#63b8ff" points="1095.42,-142.06 1104.25,-136.2 1093.7,-135.27 1095.42,-142.06"/>
</a>
</g>
</g>
<!-- Node25 -->
<g id="Node000025" class="node">
<title>Node25</title>
<g id="a_Node000025"><a xlink:href="x__z__u__p__q__r__h__f__g__us__ps_8hpp.xhtml" target="_top" xlink:title=" ">
<polygon fill="white" stroke="#666666" points="1336,-141 1221,-141 1221,-110.5 1336,-110.5 1336,-141"/>
<text text-anchor="start" x="1229" y="-127.5" font-family="Helvetica,sans-Serif" font-size="10.00">x_z_u_p_q_r_h_f_g_us</text>
<text text-anchor="middle" x="1278.5" y="-116.25" font-family="Helvetica,sans-Serif" font-size="10.00">_ps.hpp</text>
</a>
</g>
</g>
<!-- Node7&#45;&gt;Node25 -->
<g id="edge41_Node000007_Node000025" class="edge">
<title>Node7&#45;&gt;Node25</title>
<g id="a_edge41_Node000007_Node000025"><a xlink:title=" ">
<path fill="none" stroke="#63b8ff" d="M977.17,-176.87C1035.93,-168.98 1123.56,-156.54 1209.51,-141.28"/>
<polygon fill="#63b8ff" stroke="#63b8ff" points="1210.09,-144.74 1219.31,-139.53 1208.85,-137.85 1210.09,-144.74"/>
</a>
</g>
</g>
<!-- Node8&#45;&gt;Node4 -->
<g id="edge15_Node000008_Node000004" class="edge">
<title>Node8&#45;&gt;Node4</title>
<g id="a_edge15_Node000008_Node000004"><a xlink:title=" ">
<path fill="none" stroke="#63b8ff" d="M1454.88,-115.72C1452.84,-102 1450.61,-75.35 1459.5,-55.25 1464.45,-44.05 1473.61,-34.15 1482.38,-26.54"/>
<polygon fill="#63b8ff" stroke="#63b8ff" points="1484.39,-29.41 1490,-20.43 1480.01,-23.95 1484.39,-29.41"/>
</a>
</g>
</g>
<!-- Node8&#45;&gt;Node9 -->
<g id="edge8_Node000008_Node000009" class="edge">
<title>Node8&#45;&gt;Node9</title>
<g id="a_edge8_Node000008_Node000009"><a xlink:title=" ">
<path fill="none" stroke="#63b8ff" d="M1430.08,-120.93C1407.62,-117.79 1374.5,-113.39 1345.5,-110.5 1124.37,-88.44 858.24,-73.21 759.18,-67.92"/>
<polygon fill="#63b8ff" stroke="#63b8ff" points="759.62,-64.44 749.45,-67.41 759.25,-71.43 759.62,-64.44"/>
</a>
</g>
</g>
<!-- Node14 -->
<g id="Node000014" class="node">
<title>Node14</title>
<g id="a_Node000014"><a xlink:title=" ">
<polygon fill="#e0e0e0" stroke="#999999" points="1540.25,-74.5 1468.75,-74.5 1468.75,-55.25 1540.25,-55.25 1540.25,-74.5"/>
<text text-anchor="middle" x="1504.5" y="-61" font-family="Helvetica,sans-Serif" font-size="10.00">initializer_list</text>
</a>
</g>
</g>
<!-- Node8&#45;&gt;Node14 -->
<g id="edge14_Node000008_Node000014" class="edge">
<title>Node8&#45;&gt;Node14</title>
<g id="a_edge14_Node000008_Node000014"><a xlink:title=" ">
<path fill="none" stroke="#63b8ff" d="M1463.79,-115.81C1470.7,-107.34 1481.27,-94.37 1489.91,-83.77"/>
<polygon fill="#63b8ff" stroke="#63b8ff" points="1492.58,-86.04 1496.18,-76.07 1487.15,-81.61 1492.58,-86.04"/>
</a>
</g>
</g>
<!-- Node9&#45;&gt;Node4 -->
<g id="edge12_Node000009_Node000004" class="edge">
<title>Node9&#45;&gt;Node4</title>
<g id="a_edge12_Node000009_Node000004"><a xlink:title=" ">
<path fill="none" stroke="#63b8ff" d="M747.9,-61.95C866.34,-53.91 1321.29,-23.05 1462.47,-13.48"/>
<polygon fill="#63b8ff" stroke="#63b8ff" points="1462.36,-16.99 1472.1,-12.82 1461.89,-10.01 1462.36,-16.99"/>
</a>
</g>
</g>
<!-- Node9&#45;&gt;Node10 -->
<g id="edge9_Node000009_Node000010" class="edge">
<title>Node9&#45;&gt;Node10</title>
<g id="a_edge9_Node000009_Node000010"><a xlink:title=" ">
<path fill="none" stroke="#63b8ff" d="M747.87,-61.23C841.84,-52.49 1143.18,-24.43 1251.91,-14.31"/>
<polygon fill="#63b8ff" stroke="#63b8ff" points="1252.16,-17.8 1261.79,-13.39 1251.51,-10.83 1252.16,-17.8"/>
</a>
</g>
</g>
<!-- Node11 -->
<g id="Node000011" class="node">
<title>Node11</title>
<g id="a_Node000011"><a xlink:title=" ">
<polygon fill="#e0e0e0" stroke="#999999" points="277.62,-19.25 229.38,-19.25 229.38,0 277.62,0 277.62,-19.25"/>
<text text-anchor="middle" x="253.5" y="-5.75" font-family="Helvetica,sans-Serif" font-size="10.00">cstddef</text>
</a>
</g>
</g>
<!-- Node9&#45;&gt;Node11 -->
<g id="edge10_Node000009_Node000011" class="edge">
<title>Node9&#45;&gt;Node11</title>
<g id="a_edge10_Node000009_Node000011"><a xlink:title=" ">
<path fill="none" stroke="#63b8ff" d="M691.05,-60.62C610.1,-51.37 378.56,-24.92 289.25,-14.71"/>
<polygon fill="#63b8ff" stroke="#63b8ff" points="289.7,-11.24 279.36,-13.58 288.9,-18.19 289.7,-11.24"/>
</a>
</g>
</g>
<!-- Node9&#45;&gt;Node12 -->
<g id="edge11_Node000009_Node000012" class="edge">
<title>Node9&#45;&gt;Node12</title>
<g id="a_edge11_Node000009_Node000012"><a xlink:title=" ">
<path fill="none" stroke="#63b8ff" d="M748,-56.91C789.27,-46.83 865.31,-28.26 907.44,-17.97"/>
<polygon fill="#63b8ff" stroke="#63b8ff" points="908.25,-21.37 917.14,-15.6 906.59,-14.57 908.25,-21.37"/>
</a>
</g>
</g>
<!-- Node13 -->
<g id="Node000013" class="node">
<title>Node13</title>
<g id="a_Node000013"><a xlink:title=" ">
<polygon fill="#e0e0e0" stroke="#999999" points="603.75,-19.25 565.25,-19.25 565.25,0 603.75,0 603.75,-19.25"/>
<text text-anchor="middle" x="584.5" y="-5.75" font-family="Helvetica,sans-Serif" font-size="10.00">utility</text>
</a>
</g>
</g>
<!-- Node9&#45;&gt;Node13 -->
<g id="edge13_Node000009_Node000013" class="edge">
<title>Node9&#45;&gt;Node13</title>
<g id="a_edge13_Node000009_Node000013"><a xlink:title=" ">
<path fill="none" stroke="#63b8ff" d="M696.6,-54.84C674.03,-45.94 639.41,-32.29 614.62,-22.51"/>
<polygon fill="#63b8ff" stroke="#63b8ff" points="616,-19.29 605.41,-18.87 613.43,-25.8 616,-19.29"/>
</a>
</g>
</g>
<!-- Node15&#45;&gt;Node9 -->
<g id="edge17_Node000015_Node000009" class="edge">
<title>Node15&#45;&gt;Node9</title>
<g id="a_edge17_Node000015_Node000009"><a xlink:title=" ">
<path fill="none" stroke="#63b8ff" d="M492.85,-115.65C498.99,-113.85 505.44,-112.05 511.5,-110.5 569.72,-95.64 637.96,-81.64 679.96,-73.41"/>
<polygon fill="#63b8ff" stroke="#63b8ff" points="680.44,-76.88 689.59,-71.54 679.11,-70.01 680.44,-76.88"/>
</a>
</g>
</g>
<!-- Node16&#45;&gt;Node9 -->
<g id="edge19_Node000016_Node000009" class="edge">
<title>Node16&#45;&gt;Node9</title>
<g id="a_edge19_Node000016_Node000009"><a xlink:title=" ">
<path fill="none" stroke="#63b8ff" d="M591.76,-115.68C616.81,-105.91 656.91,-90.28 685.5,-79.13"/>
<polygon fill="#63b8ff" stroke="#63b8ff" points="686.76,-82.4 694.8,-75.51 684.21,-75.88 686.76,-82.4"/>
</a>
</g>
</g>
<!-- Node17&#45;&gt;Node9 -->
<g id="edge23_Node000017_Node000009" class="edge">
<title>Node17&#45;&gt;Node9</title>
<g id="a_edge23_Node000017_Node000009"><a xlink:title=" ">
<path fill="none" stroke="#63b8ff" d="M772.93,-115.81C763.5,-106.99 748.85,-93.3 737.27,-82.48"/>
<polygon fill="#63b8ff" stroke="#63b8ff" points="739.96,-80.21 730.26,-75.93 735.18,-85.32 739.96,-80.21"/>
</a>
</g>
</g>
<!-- Node17&#45;&gt;Node12 -->
<g id="edge24_Node000017_Node000012" class="edge">
<title>Node17&#45;&gt;Node12</title>
<g id="a_edge24_Node000017_Node000012"><a xlink:title=" ">
<path fill="none" stroke="#63b8ff" d="M794.66,-115.79C820.92,-96.46 883.2,-50.6 916.18,-26.33"/>
<polygon fill="#63b8ff" stroke="#63b8ff" points="918.2,-29.18 924.18,-20.44 914.05,-23.55 918.2,-29.18"/>
</a>
</g>
</g>
<!-- Node18 -->
<g id="Node000018" class="node">
<title>Node18</title>
<g id="a_Node000018"><a xlink:href="function_8hpp.xhtml" target="_top" xlink:title=" ">
<polygon fill="white" stroke="#666666" points="1052.75,-74.5 984.25,-74.5 984.25,-55.25 1052.75,-55.25 1052.75,-74.5"/>
<text text-anchor="middle" x="1018.5" y="-61" font-family="Helvetica,sans-Serif" font-size="10.00">function.hpp</text>
</a>
</g>
</g>
<!-- Node17&#45;&gt;Node18 -->
<g id="edge21_Node000017_Node000018" class="edge">
<title>Node17&#45;&gt;Node18</title>
<g id="a_edge21_Node000017_Node000018"><a xlink:title=" ">
<path fill="none" stroke="#63b8ff" d="M818.86,-115.68C860.34,-105.33 928.22,-88.4 973.13,-77.19"/>
<polygon fill="#63b8ff" stroke="#63b8ff" points="973.7,-80.66 982.55,-74.84 972,-73.87 973.7,-80.66"/>
</a>
</g>
</g>
<!-- Node19 -->
<g id="Node000019" class="node">
<title>Node19</title>
<g id="a_Node000019"><a xlink:title=" ">
<polygon fill="#e0e0e0" stroke="#999999" points="1043.75,-19.25 993.25,-19.25 993.25,0 1043.75,0 1043.75,-19.25"/>
<text text-anchor="middle" x="1018.5" y="-5.75" font-family="Helvetica,sans-Serif" font-size="10.00">memory</text>
</a>
</g>
</g>
<!-- Node18&#45;&gt;Node19 -->
<g id="edge22_Node000018_Node000019" class="edge">
<title>Node18&#45;&gt;Node19</title>
<g id="a_edge22_Node000018_Node000019"><a xlink:title=" ">
<path fill="none" stroke="#63b8ff" d="M1018.5,-55.08C1018.5,-48.57 1018.5,-39.42 1018.5,-31.12"/>
<polygon fill="#63b8ff" stroke="#63b8ff" points="1022,-31.12 1018.5,-21.12 1015,-31.12 1022,-31.12"/>
</a>
</g>
</g>
<!-- Node20&#45;&gt;Node9 -->
<g id="edge27_Node000020_Node000009" class="edge">
<title>Node20&#45;&gt;Node9</title>
<g id="a_edge27_Node000020_Node000009"><a xlink:title=" ">
<path fill="none" stroke="#63b8ff" d="M880.23,-115.68C847.68,-105.59 794.95,-89.25 758.82,-78.06"/>
<polygon fill="#63b8ff" stroke="#63b8ff" points="760.22,-74.83 749.63,-75.21 758.14,-81.51 760.22,-74.83"/>
</a>
</g>
</g>
<!-- Node20&#45;&gt;Node12 -->
<g id="edge28_Node000020_Node000012" class="edge">
<title>Node20&#45;&gt;Node12</title>
<g id="a_edge28_Node000020_Node000012"><a xlink:title=" ">
<path fill="none" stroke="#63b8ff" d="M911.7,-115.79C916.17,-97.54 926.45,-55.66 932.6,-30.6"/>
<polygon fill="#63b8ff" stroke="#63b8ff" points="935.97,-31.55 934.95,-21.01 929.17,-29.89 935.97,-31.55"/>
</a>
</g>
</g>
<!-- Node20&#45;&gt;Node18 -->
<g id="edge26_Node000020_Node000018" class="edge">
<title>Node20&#45;&gt;Node18</title>
<g id="a_edge26_Node000020_Node000018"><a xlink:title=" ">
<path fill="none" stroke="#63b8ff" d="M926.05,-115.81C943.5,-106.38 971.25,-91.4 991.79,-80.3"/>
<polygon fill="#63b8ff" stroke="#63b8ff" points="993.32,-83.45 1000.46,-75.62 990,-77.29 993.32,-83.45"/>
</a>
</g>
</g>
<!-- Node21&#45;&gt;Node9 -->
<g id="edge30_Node000021_Node000009" class="edge">
<title>Node21&#45;&gt;Node9</title>
<g id="a_edge30_Node000021_Node000009"><a xlink:title=" ">
<path fill="none" stroke="#63b8ff" d="M676.25,-115.81C683.66,-107.25 695.05,-94.1 704.28,-83.45"/>
<polygon fill="#63b8ff" stroke="#63b8ff" points="706.79,-85.9 710.69,-76.05 701.5,-81.31 706.79,-85.9"/>
</a>
</g>
</g>
<!-- Node22&#45;&gt;Node9 -->
<g id="edge32_Node000022_Node000009" class="edge">
<title>Node22&#45;&gt;Node9</title>
<g id="a_edge32_Node000022_Node000009"><a xlink:title=" ">
<path fill="none" stroke="#63b8ff" d="M396.07,-115.76C402.39,-113.83 409.14,-111.94 415.5,-110.5 509.19,-89.25 621.51,-75.81 679.88,-69.71"/>
<polygon fill="#63b8ff" stroke="#63b8ff" points="680.05,-73.21 689.64,-68.71 679.34,-66.25 680.05,-73.21"/>
</a>
</g>
</g>
<!-- Node23&#45;&gt;Node9 -->
<g id="edge35_Node000023_Node000009" class="edge">
<title>Node23&#45;&gt;Node9</title>
<g id="a_edge35_Node000023_Node000009"><a xlink:title=" ">
<path fill="none" stroke="#63b8ff" d="M986.37,-115.65C979.51,-113.84 972.29,-112.03 965.5,-110.5 893.32,-94.28 808.2,-79.88 759.38,-72.06"/>
<polygon fill="#63b8ff" stroke="#63b8ff" points="759.98,-68.61 749.56,-70.5 758.89,-75.53 759.98,-68.61"/>
</a>
</g>
</g>
<!-- Node23&#45;&gt;Node12 -->
<g id="edge36_Node000023_Node000012" class="edge">
<title>Node23&#45;&gt;Node12</title>
<g id="a_edge36_Node000023_Node000012"><a xlink:title=" ">
<path fill="none" stroke="#63b8ff" d="M1010.08,-115.87C1001.04,-106.12 986.48,-89.8 975.5,-74.5 965.15,-60.07 954.94,-42.68 947.71,-29.7"/>
<polygon fill="#63b8ff" stroke="#63b8ff" points="950.79,-28.03 942.93,-20.93 944.65,-31.39 950.79,-28.03"/>
</a>
</g>
</g>
<!-- Node23&#45;&gt;Node18 -->
<g id="edge34_Node000023_Node000018" class="edge">
<title>Node23&#45;&gt;Node18</title>
<g id="a_edge34_Node000023_Node000018"><a xlink:title=" ">
<path fill="none" stroke="#63b8ff" d="M1018.5,-115.81C1018.5,-108.03 1018.5,-96.45 1018.5,-86.41"/>
<polygon fill="#63b8ff" stroke="#63b8ff" points="1022,-86.41 1018.5,-76.41 1015,-86.41 1022,-86.41"/>
</a>
</g>
</g>
<!-- Node24&#45;&gt;Node9 -->
<g id="edge39_Node000024_Node000009" class="edge">
<title>Node24&#45;&gt;Node9</title>
<g id="a_edge39_Node000024_Node000009"><a xlink:title=" ">
<path fill="none" stroke="#63b8ff" d="M1099.4,-115.65C1090.22,-113.81 1080.56,-111.99 1071.5,-110.5 958.78,-91.91 824.64,-76.83 759.28,-69.94"/>
<polygon fill="#63b8ff" stroke="#63b8ff" points="759.71,-66.46 749.4,-68.9 758.98,-73.43 759.71,-66.46"/>
</a>
</g>
</g>
<!-- Node24&#45;&gt;Node12 -->
<g id="edge40_Node000024_Node000012" class="edge">
<title>Node24&#45;&gt;Node12</title>
<g id="a_edge40_Node000024_Node000012"><a xlink:title=" ">
<path fill="none" stroke="#63b8ff" d="M1133.45,-115.89C1119.87,-101.41 1091.02,-72.56 1061.5,-55.25 1031.38,-37.59 993.1,-25.12 967.09,-17.94"/>
<polygon fill="#63b8ff" stroke="#63b8ff" points="968.11,-14.59 957.55,-15.4 966.31,-21.35 968.11,-14.59"/>
</a>
</g>
</g>
<!-- Node24&#45;&gt;Node18 -->
<g id="edge38_Node000024_Node000018" class="edge">
<title>Node24&#45;&gt;Node18</title>
<g id="a_edge38_Node000024_Node000018"><a xlink:title=" ">
<path fill="none" stroke="#63b8ff" d="M1122.55,-115.68C1102.54,-106.1 1070.74,-90.88 1047.55,-79.78"/>
<polygon fill="#63b8ff" stroke="#63b8ff" points="1049.17,-76.67 1038.63,-75.51 1046.14,-82.99 1049.17,-76.67"/>
</a>
</g>
</g>
<!-- Node25&#45;&gt;Node9 -->
<g id="edge43_Node000025_Node000009" class="edge">
<title>Node25&#45;&gt;Node9</title>
<g id="a_edge43_Node000025_Node000009"><a xlink:title=" ">
<path fill="none" stroke="#63b8ff" d="M1220.84,-112.03C1217.68,-111.48 1214.56,-110.96 1211.5,-110.5 1044.62,-85.28 843.58,-72.46 759.51,-67.88"/>
<polygon fill="#63b8ff" stroke="#63b8ff" points="759.89,-64.4 749.72,-67.36 759.51,-71.39 759.89,-64.4"/>
</a>
</g>
</g>
<!-- Node25&#45;&gt;Node12 -->
<g id="edge44_Node000025_Node000012" class="edge">
<title>Node25&#45;&gt;Node12</title>
<g id="a_edge44_Node000025_Node000012"><a xlink:title=" ">
<path fill="none" stroke="#63b8ff" d="M1240.54,-110.06C1202.36,-95.48 1141.7,-72.82 1088.5,-55.25 1046.61,-41.41 997.53,-27.29 966.97,-18.74"/>
<polygon fill="#63b8ff" stroke="#63b8ff" points="968.25,-15.46 957.67,-16.15 966.37,-22.2 968.25,-15.46"/>
</a>
</g>
</g>
<!-- Node25&#45;&gt;Node18 -->
<g id="edge42_Node000025_Node000018" class="edge">
<title>Node25&#45;&gt;Node18</title>
<g id="a_edge42_Node000025_Node000018"><a xlink:title=" ">
<path fill="none" stroke="#63b8ff" d="M1220.8,-111.68C1173.55,-100.99 1107.63,-86.06 1064.05,-76.19"/>
<polygon fill="#63b8ff" stroke="#63b8ff" points="1064.93,-72.8 1054.4,-74 1063.38,-79.63 1064.93,-72.8"/>
</a>
</g>
</g>
<!-- Node26&#45;&gt;Node9 -->
<g id="edge49_Node000026_Node000009" class="edge">
<title>Node26&#45;&gt;Node9</title>
<g id="a_edge49_Node000026_Node000009"><a xlink:title=" ">
<path fill="none" stroke="#63b8ff" d="M110.58,-115.65C121.01,-113.73 132.12,-111.87 142.5,-110.5 343.34,-83.98 585.74,-71.55 679.65,-67.47"/>
<polygon fill="#63b8ff" stroke="#63b8ff" points="679.51,-70.98 689.36,-67.06 679.22,-63.99 679.51,-70.98"/>
</a>
</g>
</g>
<!-- Node26&#45;&gt;Node11 -->
<g id="edge50_Node000026_Node000011" class="edge">
<title>Node26&#45;&gt;Node11</title>
<g id="a_edge50_Node000026_Node000011"><a xlink:title=" ">
<path fill="none" stroke="#63b8ff" d="M66.28,-115.68C66.44,-100.9 68.99,-71.64 85.5,-55.25 120.73,-20.28 180.04,-11.82 217.95,-10.25"/>
<polygon fill="#63b8ff" stroke="#63b8ff" points="217.56,-13.76 227.46,-10 217.37,-6.76 217.56,-13.76"/>
</a>
</g>
</g>
<!-- Node26&#45;&gt;Node12 -->
<g id="edge52_Node000026_Node000012" class="edge">
<title>Node26&#45;&gt;Node12</title>
<g id="a_edge52_Node000026_Node000012"><a xlink:title=" ">
<path fill="none" stroke="#63b8ff" d="M82.84,-115.72C111.92,-100.17 175,-68.7 232.5,-55.25 363.84,-24.52 789.97,-13.65 907.33,-11.2"/>
<polygon fill="#63b8ff" stroke="#63b8ff" points="907.17,-14.71 917.09,-11 907.02,-7.71 907.17,-14.71"/>
</a>
</g>
</g>
<!-- Node27 -->
<g id="Node000027" class="node">
<title>Node27</title>
<g id="a_Node000027"><a xlink:title=" ">
<polygon fill="#e0e0e0" stroke="#999999" points="138.38,-74.5 94.62,-74.5 94.62,-55.25 138.38,-55.25 138.38,-74.5"/>
<text text-anchor="middle" x="116.5" y="-61" font-family="Helvetica,sans-Serif" font-size="10.00">format</text>
</a>
</g>
</g>
<!-- Node26&#45;&gt;Node27 -->
<g id="edge51_Node000026_Node000027" class="edge">
<title>Node26&#45;&gt;Node27</title>
<g id="a_edge51_Node000026_Node000027"><a xlink:title=" ">
<path fill="none" stroke="#63b8ff" d="M74.09,-115.81C81.36,-107.25 92.53,-94.1 101.58,-83.45"/>
<polygon fill="#63b8ff" stroke="#63b8ff" points="104.05,-85.94 107.85,-76.05 98.71,-81.41 104.05,-85.94"/>
</a>
</g>
</g>
<!-- Node28&#45;&gt;Node9 -->
<g id="edge54_Node000028_Node000009" class="edge">
<title>Node28&#45;&gt;Node9</title>
<g id="a_edge54_Node000028_Node000009"><a xlink:title=" ">
<path fill="none" stroke="#63b8ff" d="M258.81,-115.63C268.89,-113.77 279.54,-111.95 289.5,-110.5 432.44,-89.72 603.48,-74.96 679.59,-68.92"/>
<polygon fill="#63b8ff" stroke="#63b8ff" points="679.77,-72.41 689.46,-68.14 679.22,-65.44 679.77,-72.41"/>
</a>
</g>
</g>
<!-- Node28&#45;&gt;Node13 -->
<g id="edge56_Node000028_Node000013" class="edge">
<title>Node28&#45;&gt;Node13</title>
<g id="a_edge56_Node000028_Node000013"><a xlink:title=" ">
<path fill="none" stroke="#63b8ff" d="M213.05,-115.91C212.82,-100.92 214.74,-70.67 232.5,-55.25 280.18,-13.85 477.28,-10.14 553.87,-10.3"/>
<polygon fill="#63b8ff" stroke="#63b8ff" points="553.55,-13.8 563.57,-10.35 553.59,-6.8 553.55,-13.8"/>
</a>
</g>
</g>
<!-- Node29 -->
<g id="Node000029" class="node">
<title>Node29</title>
<g id="a_Node000029"><a xlink:title=" ">
<polygon fill="#e0e0e0" stroke="#999999" points="275.88,-74.5 241.12,-74.5 241.12,-55.25 275.88,-55.25 275.88,-74.5"/>
<text text-anchor="middle" x="258.5" y="-61" font-family="Helvetica,sans-Serif" font-size="10.00">print</text>
</a>
</g>
</g>
<!-- Node28&#45;&gt;Node29 -->
<g id="edge55_Node000028_Node000029" class="edge">
<title>Node28&#45;&gt;Node29</title>
<g id="a_edge55_Node000028_Node000029"><a xlink:title=" ">
<path fill="none" stroke="#63b8ff" d="M220.33,-115.81C226.81,-107.34 236.72,-94.37 244.82,-83.77"/>
<polygon fill="#63b8ff" stroke="#63b8ff" points="247.39,-86.17 250.68,-76.1 241.83,-81.92 247.39,-86.17"/>
</a>
</g>
</g>
</g>
</svg>

<g id="navigator" transform="translate(0 0)" fill="#404254">
  <rect fill="#f2f5e9" fill-opacity="0.5" stroke="#606060" stroke-width=".5" x="0" y="0" width="60" height="60"/>
  <use id="zoomplus" xlink:href="#zoomPlus" x="17" y="9" onmousedown="handleZoom(evt,'in')"/>
  <use id="zoomminus" xlink:href="#zoomMin" x="42" y="9" onmousedown="handleZoom(evt,'out')"/>
  <use id="reset" xlink:href="#resetDef" x="30" y="36" onmousedown="handleReset()"/>
   <use id="arrowup" xlink:href="#arrowUp" x="0" y="0" onmousedown="handlePan(0,-1)"/>
  <use id="arrowright" xlink:href="#arrowRight" x="0" y="0" onmousedown="handlePan(1,0)"/>
  <use id="arrowdown" xlink:href="#arrowDown" x="0" y="0" onmousedown="handlePan(0,1)"/>
  <use id="arrowleft" xlink:href="#arrowLeft" x="0" y="0" onmousedown="handlePan(-1,0)"/>
</g>
<svg viewBox="0 0 15 15" width="100%" height="30px" preserveAspectRatio="xMaxYMin meet">
 <g id="arrow_out" transform="scale(0.3 0.3)">
  <a xlink:href="update__1x1x0_8cpp__incl_org.svg" target="_base">
   <rect id="button" ry="5" rx="5" y="6" x="6" height="38" width="38"
        fill="#f2f5e9" fill-opacity="0.5" stroke="#606060" stroke-width="1.0"/>
   <path id="arrow"
     d="M 11.500037,31.436501 C 11.940474,20.09759 22.043105,11.32322 32.158766,21.979434 L 37.068811,17.246167 C 37.068811,17.246167 37.088388,32 37.088388,32 L 22.160133,31.978069 C 22.160133,31.978069 26.997745,27.140456 26.997745,27.140456 C 18.528582,18.264221 13.291696,25.230495 11.500037,31.436501 z"
     style="fill:#404040;"/>
  </a>
 </g>
</svg>

<style type='text/css'>
<![CDATA[
[data-mouse-over-selected='false'] { opacity: 0.7; }
[data-mouse-over-selected='true']  { opacity: 1.0; }
]]>
</style>
<script type="application/ecmascript"><![CDATA[
document.addEventListener('DOMContentLoaded', (event) => {
  highlightEdges();
  highlightAdjacentNodes();
});
]]></script>
</svg>
