<?xml version="1.0" encoding="UTF-8" standalone="no"?>
<!DOCTYPE svg PUBLIC "-//W3C//DTD SVG 1.1//EN"
 "http://www.w3.org/Graphics/SVG/1.1/DTD/svg11.dtd">
<!-- Generated by graphviz version 9.0.0 (20230911.1827)
 -->
<!-- Title: /github/workspace/benchmark/update_1x1x0.cpp Pages: 1 -->
<svg width="1285pt" height="381pt"
 viewBox="0.00 0.00 1285.29 381.25" xmlns="http://www.w3.org/2000/svg" xmlns:xlink="http://www.w3.org/1999/xlink">
<g id="graph0" class="graph" transform="scale(1 1) rotate(0) translate(4 377.25)">
<title>/github/workspace/benchmark/update_1x1x0.cpp</title>
<!-- Node1 -->
<g id="Node000001" class="node">
<title>Node1</title>
<g id="a_Node000001"><a xlink:title=" ">
<polygon fill="#999999" stroke="#666666" points="1089.42,-373.25 942.92,-373.25 942.92,-342.75 1089.42,-342.75 1089.42,-373.25"/>
<text text-anchor="start" x="950.92" y="-359.75" font-family="Helvetica,sans-Serif" font-size="10.00">/github/workspace/benchmark</text>
<text text-anchor="middle" x="1016.17" y="-348.5" font-family="Helvetica,sans-Serif" font-size="10.00">/update_1x1x0.cpp</text>
</a>
</g>
</g>
<!-- Node2 -->
<g id="Node000002" class="node">
<title>Node2</title>
<g id="a_Node000002"><a xlink:href="benchmark_8hpp.xhtml" target="_top" xlink:title="Benchmarking support.">
<polygon fill="white" stroke="#666666" points="997.17,-306.75 915.17,-306.75 915.17,-287.5 997.17,-287.5 997.17,-306.75"/>
<text text-anchor="middle" x="956.17" y="-293.25" font-family="Helvetica,sans-Serif" font-size="10.00">benchmark.hpp</text>
</a>
</g>
</g>
<!-- Node1&#45;&gt;Node2 -->
<g id="edge1_Node000001_Node000002" class="edge">
<title>Node1&#45;&gt;Node2</title>
<g id="a_edge1_Node000001_Node000002"><a xlink:title=" ">
<path fill="none" stroke="#63b8ff" d="M1001.34,-342.45C992.91,-334.17 982.3,-323.77 973.49,-315.12"/>
<polygon fill="#63b8ff" stroke="#63b8ff" points="976.09,-312.77 966.5,-308.26 971.19,-317.76 976.09,-312.77"/>
</a>
</g>
</g>
<!-- Node3 -->
<g id="Node000003" class="node">
<title>Node3</title>
<g id="a_Node000003"><a xlink:title=" ">
<polygon fill="#e0e0e0" stroke="#999999" points="944.79,-251.5 899.54,-251.5 899.54,-232.25 944.79,-232.25 944.79,-251.5"/>
<text text-anchor="middle" x="922.17" y="-238" font-family="Helvetica,sans-Serif" font-size="10.00">chrono</text>
</a>
</g>
</g>
<!-- Node1&#45;&gt;Node3 -->
<g id="edge49_Node000001_Node000003" class="edge">
<title>Node1&#45;&gt;Node3</title>
<g id="a_edge49_Node000001_Node000003"><a xlink:title=" ">
<path fill="none" stroke="#63b8ff" d="M953.17,-342.28C934.88,-334.78 916.95,-323.53 906.17,-306.75 897.39,-293.09 903.28,-274.93 910.26,-261.46"/>
<polygon fill="#63b8ff" stroke="#63b8ff" points="913.09,-263.56 915.08,-253.15 907.03,-260.05 913.09,-263.56"/>
</a>
</g>
</g>
<!-- Node5 -->
<g id="Node000005" class="node">
<title>Node5</title>
<g id="a_Node000005"><a xlink:href="kalman_8hpp.xhtml" target="_top" xlink:title="The Kalman filter class and library top&#45;level header.">
<polygon fill="white" stroke="#666666" points="412.17,-306.75 306.17,-306.75 306.17,-287.5 412.17,-287.5 412.17,-306.75"/>
<text text-anchor="middle" x="359.17" y="-293.25" font-family="Helvetica,sans-Serif" font-size="10.00">fcarouge/kalman.hpp</text>
</a>
</g>
</g>
<!-- Node1&#45;&gt;Node5 -->
<g id="edge4_Node000001_Node000005" class="edge">
<title>Node1&#45;&gt;Node5</title>
<g id="a_edge4_Node000001_Node000005"><a xlink:title=" ">
<path fill="none" stroke="#63b8ff" d="M942.72,-350.42C813.29,-338.82 546.69,-314.93 423.81,-303.92"/>
<polygon fill="#63b8ff" stroke="#63b8ff" points="424.15,-300.43 413.88,-303.03 423.53,-307.41 424.15,-300.43"/>
</a>
</g>
</g>
<!-- Node27 -->
<g id="Node000027" class="node">
<title>Node27</title>
<g id="a_Node000027"><a xlink:title=" ">
<polygon fill="#e0e0e0" stroke="#999999" points="1137.42,-306.75 1014.92,-306.75 1014.92,-287.5 1137.42,-287.5 1137.42,-306.75"/>
<text text-anchor="middle" x="1076.17" y="-293.25" font-family="Helvetica,sans-Serif" font-size="10.00">benchmark/benchmark.h</text>
</a>
</g>
</g>
<!-- Node1&#45;&gt;Node27 -->
<g id="edge47_Node000001_Node000027" class="edge">
<title>Node1&#45;&gt;Node27</title>
<g id="a_edge47_Node000001_Node000027"><a xlink:title=" ">
<path fill="none" stroke="#63b8ff" d="M1031,-342.45C1039.43,-334.17 1050.04,-323.77 1058.85,-315.12"/>
<polygon fill="#63b8ff" stroke="#63b8ff" points="1061.15,-317.76 1065.84,-308.26 1056.25,-312.77 1061.15,-317.76"/>
</a>
</g>
</g>
<!-- Node28 -->
<g id="Node000028" class="node">
<title>Node28</title>
<g id="a_Node000028"><a xlink:title=" ">
<polygon fill="#e0e0e0" stroke="#999999" points="1211.04,-306.75 1155.29,-306.75 1155.29,-287.5 1211.04,-287.5 1211.04,-306.75"/>
<text text-anchor="middle" x="1183.17" y="-293.25" font-family="Helvetica,sans-Serif" font-size="10.00">algorithm</text>
</a>
</g>
</g>
<!-- Node1&#45;&gt;Node28 -->
<g id="edge48_Node000001_Node000028" class="edge">
<title>Node1&#45;&gt;Node28</title>
<g id="a_edge48_Node000001_Node000028"><a xlink:title=" ">
<path fill="none" stroke="#63b8ff" d="M1057.88,-342.3C1085.27,-332.64 1120.74,-320.13 1146.95,-310.9"/>
<polygon fill="#63b8ff" stroke="#63b8ff" points="1147.86,-314.28 1156.13,-307.66 1145.54,-307.68 1147.86,-314.28"/>
</a>
</g>
</g>
<!-- Node29 -->
<g id="Node000029" class="node">
<title>Node29</title>
<g id="a_Node000029"><a xlink:title=" ">
<polygon fill="#e0e0e0" stroke="#999999" points="1277.29,-306.75 1229.04,-306.75 1229.04,-287.5 1277.29,-287.5 1277.29,-306.75"/>
<text text-anchor="middle" x="1253.17" y="-293.25" font-family="Helvetica,sans-Serif" font-size="10.00">random</text>
</a>
</g>
</g>
<!-- Node1&#45;&gt;Node29 -->
<g id="edge50_Node000001_Node000029" class="edge">
<title>Node1&#45;&gt;Node29</title>
<g id="a_edge50_Node000001_Node000029"><a xlink:title=" ">
<path fill="none" stroke="#63b8ff" d="M1076.93,-342.27C1114.9,-333.01 1165.11,-320.67 1217.76,-307.34"/>
<polygon fill="#63b8ff" stroke="#63b8ff" points="1218.37,-310.79 1227.2,-304.94 1216.65,-304.01 1218.37,-310.79"/>
</a>
</g>
</g>
<!-- Node2&#45;&gt;Node3 -->
<g id="edge2_Node000002_Node000003" class="edge">
<title>Node2&#45;&gt;Node3</title>
<g id="a_edge2_Node000002_Node000003"><a xlink:title=" ">
<path fill="none" stroke="#63b8ff" d="M950.56,-287.33C946.05,-280.28 939.58,-270.15 933.96,-261.33"/>
<polygon fill="#63b8ff" stroke="#63b8ff" points="937.05,-259.68 928.72,-253.13 931.15,-263.45 937.05,-259.68"/>
</a>
</g>
</g>
<!-- Node4 -->
<g id="Node000004" class="node">
<title>Node4</title>
<g id="a_Node000004"><a xlink:title=" ">
<polygon fill="#e0e0e0" stroke="#999999" points="1038.67,-19.25 977.67,-19.25 977.67,0 1038.67,0 1038.67,-19.25"/>
<text text-anchor="middle" x="1008.17" y="-5.75" font-family="Helvetica,sans-Serif" font-size="10.00">type_traits</text>
</a>
</g>
</g>
<!-- Node2&#45;&gt;Node4 -->
<g id="edge3_Node000002_Node000004" class="edge">
<title>Node2&#45;&gt;Node4</title>
<g id="a_edge3_Node000002_Node000004"><a xlink:title=" ">
<path fill="none" stroke="#63b8ff" d="M986.34,-287.13C1045.97,-268.45 1173.17,-223.71 1173.17,-182 1173.17,-182 1173.17,-182 1173.17,-119.12 1173.17,-60.12 1098.6,-31.42 1049.73,-18.94"/>
<polygon fill="#63b8ff" stroke="#63b8ff" points="1050.83,-15.6 1040.29,-16.66 1049.19,-22.41 1050.83,-15.6"/>
</a>
</g>
</g>
<!-- Node6 -->
<g id="Node000006" class="node">
<title>Node6</title>
<g id="a_Node000006"><a xlink:href="factory_8hpp.xhtml" target="_top" xlink:title=" ">
<polygon fill="white" stroke="#666666" points="566.04,-251.5 468.29,-251.5 468.29,-232.25 566.04,-232.25 566.04,-251.5"/>
<text text-anchor="middle" x="517.17" y="-238" font-family="Helvetica,sans-Serif" font-size="10.00">internal/factory.hpp</text>
</a>
</g>
</g>
<!-- Node5&#45;&gt;Node6 -->
<g id="edge5_Node000005_Node000006" class="edge">
<title>Node5&#45;&gt;Node6</title>
<g id="a_edge5_Node000005_Node000006"><a xlink:title=" ">
<path fill="none" stroke="#63b8ff" d="M385.97,-287.09C411.62,-278.45 450.56,-265.32 479.36,-255.62"/>
<polygon fill="#63b8ff" stroke="#63b8ff" points="480.44,-258.95 488.8,-252.44 478.21,-252.31 480.44,-258.95"/>
</a>
</g>
</g>
<!-- Node8 -->
<g id="Node000008" class="node">
<title>Node8</title>
<g id="a_Node000008"><a xlink:href="utility_8hpp.xhtml" target="_top" xlink:title="The collection of utilities supporting the library.">
<polygon fill="white" stroke="#666666" points="565.67,-129.75 468.67,-129.75 468.67,-110.5 565.67,-110.5 565.67,-129.75"/>
<text text-anchor="middle" x="517.17" y="-116.25" font-family="Helvetica,sans-Serif" font-size="10.00">fcarouge/utility.hpp</text>
</a>
</g>
</g>
<!-- Node5&#45;&gt;Node8 -->
<g id="edge45_Node000005_Node000008" class="edge">
<title>Node5&#45;&gt;Node8</title>
<g id="a_edge45_Node000005_Node000008"><a xlink:title=" ">
<path fill="none" stroke="#63b8ff" d="M335.18,-287.03C285.03,-266.75 177.21,-215.65 220.17,-165.75 250.12,-130.96 379.39,-122.92 457.18,-121.29"/>
<polygon fill="#63b8ff" stroke="#63b8ff" points="456.81,-124.79 466.75,-121.12 456.69,-117.79 456.81,-124.79"/>
</a>
</g>
</g>
<!-- Node22 -->
<g id="Node000022" class="node">
<title>Node22</title>
<g id="a_Node000022"><a xlink:href="format_8hpp.xhtml" target="_top" xlink:title=" ">
<polygon fill="white" stroke="#666666" points="120.29,-190.62 24.04,-190.62 24.04,-171.38 120.29,-171.38 120.29,-190.62"/>
<text text-anchor="middle" x="72.17" y="-177.12" font-family="Helvetica,sans-Serif" font-size="10.00">internal/format.hpp</text>
</a>
</g>
</g>
<!-- Node5&#45;&gt;Node22 -->
<g id="edge38_Node000005_Node000022" class="edge">
<title>Node5&#45;&gt;Node22</title>
<g id="a_edge38_Node000005_Node000022"><a xlink:title=" ">
<path fill="none" stroke="#63b8ff" d="M305.91,-292.79C240.1,-287.67 133.02,-275.82 102.17,-251.5 86.86,-239.43 79.22,-218.01 75.5,-202.13"/>
<polygon fill="#63b8ff" stroke="#63b8ff" points="78.94,-201.49 73.58,-192.35 72.07,-202.84 78.94,-201.49"/>
</a>
</g>
</g>
<!-- Node24 -->
<g id="Node000024" class="node">
<title>Node24</title>
<g id="a_Node000024"><a xlink:href="printer_8hpp.xhtml" target="_top" xlink:title=" ">
<polygon fill="white" stroke="#666666" points="172.67,-251.5 111.67,-251.5 111.67,-232.25 172.67,-232.25 172.67,-251.5"/>
<text text-anchor="middle" x="142.17" y="-238" font-family="Helvetica,sans-Serif" font-size="10.00">printer.hpp</text>
</a>
</g>
</g>
<!-- Node5&#45;&gt;Node24 -->
<g id="edge43_Node000005_Node000024" class="edge">
<title>Node5&#45;&gt;Node24</title>
<g id="a_edge43_Node000005_Node000024"><a xlink:title=" ">
<path fill="none" stroke="#63b8ff" d="M322.36,-287.09C283.98,-277.67 223.93,-262.94 183.83,-253.1"/>
<polygon fill="#63b8ff" stroke="#63b8ff" points="184.85,-249.75 174.31,-250.76 183.18,-256.54 184.85,-249.75"/>
</a>
</g>
</g>
<!-- Node26 -->
<g id="Node000026" class="node">
<title>Node26</title>
<g id="a_Node000026"><a xlink:title=" ">
<polygon fill="#e0e0e0" stroke="#999999" points="682.04,-251.5 584.29,-251.5 584.29,-232.25 682.04,-232.25 682.04,-251.5"/>
<text text-anchor="middle" x="633.17" y="-238" font-family="Helvetica,sans-Serif" font-size="10.00">internal/kalman.tpp</text>
</a>
</g>
</g>
<!-- Node5&#45;&gt;Node26 -->
<g id="edge46_Node000005_Node000026" class="edge">
<title>Node5&#45;&gt;Node26</title>
<g id="a_edge46_Node000005_Node000026"><a xlink:title=" ">
<path fill="none" stroke="#63b8ff" d="M405.96,-287.03C452.85,-277.92 525.13,-263.87 575.53,-254.08"/>
<polygon fill="#63b8ff" stroke="#63b8ff" points="575.94,-257.56 585.09,-252.22 574.6,-250.69 575.94,-257.56"/>
</a>
</g>
</g>
<!-- Node6&#45;&gt;Node4 -->
<g id="edge37_Node000006_Node000004" class="edge">
<title>Node6&#45;&gt;Node4</title>
<g id="a_edge37_Node000006_Node000004"><a xlink:title=" ">
<path fill="none" stroke="#63b8ff" d="M566.51,-233.34C569.43,-232.96 572.34,-232.59 575.17,-232.25 618.93,-227.01 937.33,-225.64 970.17,-196.25 1017.64,-153.78 1015.04,-69.35 1010.95,-30.74"/>
<polygon fill="#63b8ff" stroke="#63b8ff" points="1014.43,-30.34 1009.74,-20.84 1007.48,-31.19 1014.43,-30.34"/>
</a>
</g>
</g>
<!-- Node7 -->
<g id="Node000007" class="node">
<title>Node7</title>
<g id="a_Node000007"><a xlink:href="type_8hpp.xhtml" target="_top" xlink:title=" ">
<polygon fill="white" stroke="#666666" points="1144.67,-190.62 1017.67,-190.62 1017.67,-171.38 1144.67,-171.38 1144.67,-190.62"/>
<text text-anchor="middle" x="1081.17" y="-177.12" font-family="Helvetica,sans-Serif" font-size="10.00">fcarouge/internal/type.hpp</text>
</a>
</g>
</g>
<!-- Node6&#45;&gt;Node7 -->
<g id="edge6_Node000006_Node000007" class="edge">
<title>Node6&#45;&gt;Node7</title>
<g id="a_edge6_Node000006_Node000007"><a xlink:title=" ">
<path fill="none" stroke="#63b8ff" d="M566.5,-233.32C569.43,-232.94 572.34,-232.58 575.17,-232.25 764.79,-210.2 813.94,-221.43 1003.17,-196.25 1010.07,-195.33 1017.28,-194.22 1024.41,-193.03"/>
<polygon fill="#63b8ff" stroke="#63b8ff" points="1024.76,-196.52 1034.01,-191.37 1023.56,-189.63 1024.76,-196.52"/>
</a>
</g>
</g>
<!-- Node10 -->
<g id="Node000010" class="node">
<title>Node10</title>
<g id="a_Node000010"><a xlink:title=" ">
<polygon fill="#e0e0e0" stroke="#999999" points="137.04,-19.25 81.29,-19.25 81.29,0 137.04,0 137.04,-19.25"/>
<text text-anchor="middle" x="109.17" y="-5.75" font-family="Helvetica,sans-Serif" font-size="10.00">concepts</text>
</a>
</g>
</g>
<!-- Node6&#45;&gt;Node10 -->
<g id="edge36_Node000006_Node000010" class="edge">
<title>Node6&#45;&gt;Node10</title>
<g id="a_edge36_Node000006_Node000010"><a xlink:title=" ">
<path fill="none" stroke="#63b8ff" d="M468.06,-240.19C347.66,-238 45.37,-229.25 15.17,-196.25 -33.14,-143.45 49.62,-61.2 89.52,-26.71"/>
<polygon fill="#63b8ff" stroke="#63b8ff" points="91.66,-29.47 97.04,-20.35 87.14,-24.13 91.66,-29.47"/>
</a>
</g>
</g>
<!-- Node14 -->
<g id="Node000014" class="node">
<title>Node14</title>
<g id="a_Node000014"><a xlink:href="x__z__p__q__r__h__f_8hpp.xhtml" target="_top" xlink:title=" ">
<polygon fill="white" stroke="#666666" points="438.92,-196.25 343.42,-196.25 343.42,-165.75 438.92,-165.75 438.92,-196.25"/>
<text text-anchor="start" x="351.42" y="-182.75" font-family="Helvetica,sans-Serif" font-size="10.00">fcarouge/internal/x</text>
<text text-anchor="middle" x="391.17" y="-171.5" font-family="Helvetica,sans-Serif" font-size="10.00">_z_p_q_r_h_f.hpp</text>
</a>
</g>
</g>
<!-- Node6&#45;&gt;Node14 -->
<g id="edge15_Node000006_Node000014" class="edge">
<title>Node6&#45;&gt;Node14</title>
<g id="a_edge15_Node000006_Node000014"><a xlink:title=" ">
<path fill="none" stroke="#63b8ff" d="M497.76,-231.8C480.55,-223.77 454.84,-211.75 432.99,-201.54"/>
<polygon fill="#63b8ff" stroke="#63b8ff" points="434.53,-198.4 423.99,-197.34 431.57,-204.74 434.53,-198.4"/>
</a>
</g>
</g>
<!-- Node15 -->
<g id="Node000015" class="node">
<title>Node15</title>
<g id="a_Node000015"><a xlink:href="x__z__p__q__r__hh__us__ps_8hpp.xhtml" target="_top" xlink:title=" ">
<polygon fill="white" stroke="#666666" points="577.29,-196.25 457.04,-196.25 457.04,-165.75 577.29,-165.75 577.29,-196.25"/>
<text text-anchor="start" x="465.04" y="-182.75" font-family="Helvetica,sans-Serif" font-size="10.00">fcarouge/internal/x</text>
<text text-anchor="middle" x="517.17" y="-171.5" font-family="Helvetica,sans-Serif" font-size="10.00">_z_p_q_r_hh_us_ps.hpp</text>
</a>
</g>
</g>
<!-- Node6&#45;&gt;Node15 -->
<g id="edge17_Node000006_Node000015" class="edge">
<title>Node6&#45;&gt;Node15</title>
<g id="a_edge17_Node000006_Node000015"><a xlink:title=" ">
<path fill="none" stroke="#63b8ff" d="M517.17,-231.93C517.17,-225.48 517.17,-216.41 517.17,-207.76"/>
<polygon fill="#63b8ff" stroke="#63b8ff" points="520.67,-208.05 517.17,-198.05 513.67,-208.05 520.67,-208.05"/>
</a>
</g>
</g>
<!-- Node18 -->
<g id="Node000018" class="node">
<title>Node18</title>
<g id="a_Node000018"><a xlink:href="x__z__p__qq__rr__f_8hpp.xhtml" target="_top" xlink:title=" ">
<polygon fill="white" stroke="#666666" points="690.92,-196.25 595.42,-196.25 595.42,-165.75 690.92,-165.75 690.92,-196.25"/>
<text text-anchor="start" x="603.42" y="-182.75" font-family="Helvetica,sans-Serif" font-size="10.00">fcarouge/internal/x</text>
<text text-anchor="middle" x="643.17" y="-171.5" font-family="Helvetica,sans-Serif" font-size="10.00">_z_p_qq_rr_f.hpp</text>
</a>
</g>
</g>
<!-- Node6&#45;&gt;Node18 -->
<g id="edge22_Node000006_Node000018" class="edge">
<title>Node6&#45;&gt;Node18</title>
<g id="a_edge22_Node000006_Node000018"><a xlink:title=" ">
<path fill="none" stroke="#63b8ff" d="M536.58,-231.8C553.79,-223.77 579.49,-211.75 601.35,-201.54"/>
<polygon fill="#63b8ff" stroke="#63b8ff" points="602.77,-204.74 610.35,-197.34 599.81,-198.4 602.77,-204.74"/>
</a>
</g>
</g>
<!-- Node19 -->
<g id="Node000019" class="node">
<title>Node19</title>
<g id="a_Node000019"><a xlink:href="x__z__p__r__f_8hpp.xhtml" target="_top" xlink:title=" ">
<polygon fill="white" stroke="#666666" points="324.92,-196.25 229.42,-196.25 229.42,-165.75 324.92,-165.75 324.92,-196.25"/>
<text text-anchor="start" x="237.42" y="-182.75" font-family="Helvetica,sans-Serif" font-size="10.00">fcarouge/internal/x</text>
<text text-anchor="middle" x="277.17" y="-171.5" font-family="Helvetica,sans-Serif" font-size="10.00">_z_p_r_f.hpp</text>
</a>
</g>
</g>
<!-- Node6&#45;&gt;Node19 -->
<g id="edge26_Node000006_Node000019" class="edge">
<title>Node6&#45;&gt;Node19</title>
<g id="a_edge26_Node000006_Node000019"><a xlink:title=" ">
<path fill="none" stroke="#63b8ff" d="M479.65,-231.79C444.96,-223.38 391.68,-210.42 336.44,-196.8"/>
<polygon fill="#63b8ff" stroke="#63b8ff" points="337.38,-193.43 326.84,-194.43 335.71,-200.23 337.38,-193.43"/>
</a>
</g>
</g>
<!-- Node20 -->
<g id="Node000020" class="node">
<title>Node20</title>
<g id="a_Node000020"><a xlink:href="x__z__u__p__q__r__f__g__ps_8hpp.xhtml" target="_top" xlink:title=" ">
<polygon fill="white" stroke="#666666" points="827.17,-196.25 709.17,-196.25 709.17,-165.75 827.17,-165.75 827.17,-196.25"/>
<text text-anchor="start" x="717.17" y="-182.75" font-family="Helvetica,sans-Serif" font-size="10.00">fcarouge/internal/x</text>
<text text-anchor="middle" x="768.17" y="-171.5" font-family="Helvetica,sans-Serif" font-size="10.00">_z_u_p_q_r_f_g_ps.hpp</text>
</a>
</g>
</g>
<!-- Node6&#45;&gt;Node20 -->
<g id="edge28_Node000006_Node000020" class="edge">
<title>Node6&#45;&gt;Node20</title>
<g id="a_edge28_Node000006_Node000020"><a xlink:title=" ">
<path fill="none" stroke="#63b8ff" d="M555.84,-231.8C593.57,-222.95 651.84,-209.29 697.8,-198.51"/>
<polygon fill="#63b8ff" stroke="#63b8ff" points="698.49,-201.94 707.42,-196.25 696.89,-195.13 698.49,-201.94"/>
</a>
</g>
</g>
<!-- Node21 -->
<g id="Node000021" class="node">
<title>Node21</title>
<g id="a_Node000021"><a xlink:href="x__z__u__p__q__r__us__ps_8hpp.xhtml" target="_top" xlink:title=" ">
<polygon fill="white" stroke="#666666" points="960.67,-196.25 845.67,-196.25 845.67,-165.75 960.67,-165.75 960.67,-196.25"/>
<text text-anchor="start" x="853.67" y="-182.75" font-family="Helvetica,sans-Serif" font-size="10.00">fcarouge/internal/x</text>
<text text-anchor="middle" x="903.17" y="-171.5" font-family="Helvetica,sans-Serif" font-size="10.00">_z_u_p_q_r_us_ps.hpp</text>
</a>
</g>
</g>
<!-- Node6&#45;&gt;Node21 -->
<g id="edge32_Node000006_Node000021" class="edge">
<title>Node6&#45;&gt;Node21</title>
<g id="a_edge32_Node000006_Node000021"><a xlink:title=" ">
<path fill="none" stroke="#63b8ff" d="M566.53,-233.5C569.45,-233.07 572.35,-232.65 575.17,-232.25 687.57,-216.14 718.95,-216.41 834.41,-196.47"/>
<polygon fill="#63b8ff" stroke="#63b8ff" points="834.74,-199.97 843.99,-194.81 833.53,-193.08 834.74,-199.97"/>
</a>
</g>
</g>
<!-- Node7&#45;&gt;Node4 -->
<g id="edge14_Node000007_Node000004" class="edge">
<title>Node7&#45;&gt;Node4</title>
<g id="a_edge14_Node000007_Node000004"><a xlink:title=" ">
<path fill="none" stroke="#63b8ff" d="M1073.56,-170.9C1065.78,-161.21 1053.79,-145.19 1046.17,-129.75 1029.8,-96.6 1018.39,-54.83 1012.59,-30.59"/>
<polygon fill="#63b8ff" stroke="#63b8ff" points="1016.07,-30.08 1010.41,-21.12 1009.24,-31.65 1016.07,-30.08"/>
</a>
</g>
</g>
<!-- Node7&#45;&gt;Node8 -->
<g id="edge7_Node000007_Node000008" class="edge">
<title>Node7&#45;&gt;Node8</title>
<g id="a_edge7_Node000007_Node000008"><a xlink:title=" ">
<path fill="none" stroke="#63b8ff" d="M1017.23,-171.46C1001.83,-169.5 985.42,-167.48 970.17,-165.75 829.64,-149.81 664.21,-134.35 577.37,-126.49"/>
<polygon fill="#63b8ff" stroke="#63b8ff" points="577.94,-123.02 567.66,-125.61 577.31,-129.99 577.94,-123.02"/>
</a>
</g>
</g>
<!-- Node13 -->
<g id="Node000013" class="node">
<title>Node13</title>
<g id="a_Node000013"><a xlink:title=" ">
<polygon fill="#e0e0e0" stroke="#999999" points="1126.92,-129.75 1055.42,-129.75 1055.42,-110.5 1126.92,-110.5 1126.92,-129.75"/>
<text text-anchor="middle" x="1091.17" y="-116.25" font-family="Helvetica,sans-Serif" font-size="10.00">initializer_list</text>
</a>
</g>
</g>
<!-- Node7&#45;&gt;Node13 -->
<g id="edge13_Node000007_Node000013" class="edge">
<title>Node7&#45;&gt;Node13</title>
<g id="a_edge13_Node000007_Node000013"><a xlink:title=" ">
<path fill="none" stroke="#63b8ff" d="M1082.69,-171.06C1084.02,-163.19 1086.02,-151.45 1087.74,-141.32"/>
<polygon fill="#63b8ff" stroke="#63b8ff" points="1091.16,-142.09 1089.38,-131.64 1084.26,-140.92 1091.16,-142.09"/>
</a>
</g>
</g>
<!-- Node9 -->
<g id="Node000009" class="node">
<title>Node9</title>
<g id="a_Node000009"><a xlink:href="internal_2utility_8hpp.xhtml" target="_top" xlink:title=" ">
<polygon fill="white" stroke="#666666" points="562.67,-74.5 471.67,-74.5 471.67,-55.25 562.67,-55.25 562.67,-74.5"/>
<text text-anchor="middle" x="517.17" y="-61" font-family="Helvetica,sans-Serif" font-size="10.00">internal/utility.hpp</text>
</a>
</g>
</g>
<!-- Node8&#45;&gt;Node9 -->
<g id="edge8_Node000008_Node000009" class="edge">
<title>Node8&#45;&gt;Node9</title>
<g id="a_edge8_Node000008_Node000009"><a xlink:title=" ">
<path fill="none" stroke="#63b8ff" d="M517.17,-110.33C517.17,-103.82 517.17,-94.67 517.17,-86.37"/>
<polygon fill="#63b8ff" stroke="#63b8ff" points="520.67,-86.37 517.17,-76.37 513.67,-86.37 520.67,-86.37"/>
</a>
</g>
</g>
<!-- Node9&#45;&gt;Node4 -->
<g id="edge12_Node000009_Node000004" class="edge">
<title>Node9&#45;&gt;Node4</title>
<g id="a_edge12_Node000009_Node000004"><a xlink:title=" ">
<path fill="none" stroke="#63b8ff" d="M562.92,-58.91C657.68,-48.64 874.22,-25.15 965.91,-15.21"/>
<polygon fill="#63b8ff" stroke="#63b8ff" points="966.15,-18.7 975.72,-14.14 965.4,-11.74 966.15,-18.7"/>
</a>
</g>
</g>
<!-- Node9&#45;&gt;Node10 -->
<g id="edge9_Node000009_Node000010" class="edge">
<title>Node9&#45;&gt;Node10</title>
<g id="a_edge9_Node000009_Node000010"><a xlink:title=" ">
<path fill="none" stroke="#63b8ff" d="M471.55,-57.92C390.86,-47.39 224.3,-25.65 148.4,-15.74"/>
<polygon fill="#63b8ff" stroke="#63b8ff" points="149.32,-12.34 138.95,-14.51 148.41,-19.28 149.32,-12.34"/>
</a>
</g>
</g>
<!-- Node11 -->
<g id="Node000011" class="node">
<title>Node11</title>
<g id="a_Node000011"><a xlink:title=" ">
<polygon fill="#e0e0e0" stroke="#999999" points="428.29,-19.25 380.04,-19.25 380.04,0 428.29,0 428.29,-19.25"/>
<text text-anchor="middle" x="404.17" y="-5.75" font-family="Helvetica,sans-Serif" font-size="10.00">cstddef</text>
</a>
</g>
</g>
<!-- Node9&#45;&gt;Node11 -->
<g id="edge10_Node000009_Node000011" class="edge">
<title>Node9&#45;&gt;Node11</title>
<g id="a_edge10_Node000009_Node000011"><a xlink:title=" ">
<path fill="none" stroke="#63b8ff" d="M498,-54.84C480.39,-46.54 454.01,-34.11 433.71,-24.54"/>
<polygon fill="#63b8ff" stroke="#63b8ff" points="435.34,-21.44 424.8,-20.35 432.36,-27.78 435.34,-21.44"/>
</a>
</g>
</g>
<!-- Node12 -->
<g id="Node000012" class="node">
<title>Node12</title>
<g id="a_Node000012"><a xlink:title=" ">
<polygon fill="#e0e0e0" stroke="#999999" points="636.67,-19.25 599.67,-19.25 599.67,0 636.67,0 636.67,-19.25"/>
<text text-anchor="middle" x="618.17" y="-5.75" font-family="Helvetica,sans-Serif" font-size="10.00">tuple</text>
</a>
</g>
</g>
<!-- Node9&#45;&gt;Node12 -->
<g id="edge11_Node000009_Node000012" class="edge">
<title>Node9&#45;&gt;Node12</title>
<g id="a_edge11_Node000009_Node000012"><a xlink:title=" ">
<path fill="none" stroke="#63b8ff" d="M534.3,-54.84C549.83,-46.66 572.97,-34.46 591.01,-24.94"/>
<polygon fill="#63b8ff" stroke="#63b8ff" points="592.4,-28.17 599.61,-20.41 589.14,-21.98 592.4,-28.17"/>
</a>
</g>
</g>
<!-- Node14&#45;&gt;Node8 -->
<g id="edge16_Node000014_Node000008" class="edge">
<title>Node14&#45;&gt;Node8</title>
<g id="a_edge16_Node000014_Node000008"><a xlink:title=" ">
<path fill="none" stroke="#63b8ff" d="M422.64,-165.3C442.47,-156.03 467.93,-144.13 487.42,-135.02"/>
<polygon fill="#63b8ff" stroke="#63b8ff" points="488.9,-138.2 496.48,-130.79 485.93,-131.86 488.9,-138.2"/>
</a>
</g>
</g>
<!-- Node15&#45;&gt;Node8 -->
<g id="edge18_Node000015_Node000008" class="edge">
<title>Node15&#45;&gt;Node8</title>
<g id="a_edge18_Node000015_Node000008"><a xlink:title=" ">
<path fill="none" stroke="#63b8ff" d="M517.17,-165.45C517.17,-158.21 517.17,-149.34 517.17,-141.44"/>
<polygon fill="#63b8ff" stroke="#63b8ff" points="520.67,-141.71 517.17,-131.71 513.67,-141.71 520.67,-141.71"/>
</a>
</g>
</g>
<!-- Node15&#45;&gt;Node12 -->
<g id="edge21_Node000015_Node000012" class="edge">
<title>Node15&#45;&gt;Node12</title>
<g id="a_edge21_Node000015_Node000012"><a xlink:title=" ">
<path fill="none" stroke="#63b8ff" d="M538.93,-165.42C551.02,-156.37 565.52,-143.81 575.17,-129.75 596.57,-98.58 608.62,-55.54 614.23,-30.64"/>
<polygon fill="#63b8ff" stroke="#63b8ff" points="617.58,-31.7 616.22,-21.19 610.73,-30.26 617.58,-31.7"/>
</a>
</g>
</g>
<!-- Node16 -->
<g id="Node000016" class="node">
<title>Node16</title>
<g id="a_Node000016"><a xlink:href="function_8hpp.xhtml" target="_top" xlink:title=" ">
<polygon fill="white" stroke="#666666" points="737.42,-129.75 668.92,-129.75 668.92,-110.5 737.42,-110.5 737.42,-129.75"/>
<text text-anchor="middle" x="703.17" y="-116.25" font-family="Helvetica,sans-Serif" font-size="10.00">function.hpp</text>
</a>
</g>
</g>
<!-- Node15&#45;&gt;Node16 -->
<g id="edge19_Node000015_Node000016" class="edge">
<title>Node15&#45;&gt;Node16</title>
<g id="a_edge19_Node000015_Node000016"><a xlink:title=" ">
<path fill="none" stroke="#63b8ff" d="M563.63,-165.3C594.44,-155.54 634.45,-142.88 663.72,-133.61"/>
<polygon fill="#63b8ff" stroke="#63b8ff" points="664.45,-137.05 672.93,-130.7 662.34,-130.38 664.45,-137.05"/>
</a>
</g>
</g>
<!-- Node17 -->
<g id="Node000017" class="node">
<title>Node17</title>
<g id="a_Node000017"><a xlink:title=" ">
<polygon fill="#e0e0e0" stroke="#999999" points="728.42,-74.5 677.92,-74.5 677.92,-55.25 728.42,-55.25 728.42,-74.5"/>
<text text-anchor="middle" x="703.17" y="-61" font-family="Helvetica,sans-Serif" font-size="10.00">memory</text>
</a>
</g>
</g>
<!-- Node16&#45;&gt;Node17 -->
<g id="edge20_Node000016_Node000017" class="edge">
<title>Node16&#45;&gt;Node17</title>
<g id="a_edge20_Node000016_Node000017"><a xlink:title=" ">
<path fill="none" stroke="#63b8ff" d="M703.17,-110.33C703.17,-103.82 703.17,-94.67 703.17,-86.37"/>
<polygon fill="#63b8ff" stroke="#63b8ff" points="706.67,-86.37 703.17,-76.37 699.67,-86.37 706.67,-86.37"/>
</a>
</g>
</g>
<!-- Node18&#45;&gt;Node8 -->
<g id="edge23_Node000018_Node000008" class="edge">
<title>Node18&#45;&gt;Node8</title>
<g id="a_edge23_Node000018_Node000008"><a xlink:title=" ">
<path fill="none" stroke="#63b8ff" d="M611.7,-165.3C591.87,-156.03 566.41,-144.13 546.92,-135.02"/>
<polygon fill="#63b8ff" stroke="#63b8ff" points="548.41,-131.86 537.86,-130.79 545.44,-138.2 548.41,-131.86"/>
</a>
</g>
</g>
<!-- Node18&#45;&gt;Node12 -->
<g id="edge25_Node000018_Node000012" class="edge">
<title>Node18&#45;&gt;Node12</title>
<g id="a_edge25_Node000018_Node000012"><a xlink:title=" ">
<path fill="none" stroke="#63b8ff" d="M640.99,-165.27C636.51,-134.87 626.22,-65.19 621.13,-30.71"/>
<polygon fill="#63b8ff" stroke="#63b8ff" points="624.66,-30.61 619.74,-21.23 617.73,-31.64 624.66,-30.61"/>
</a>
</g>
</g>
<!-- Node18&#45;&gt;Node16 -->
<g id="edge24_Node000018_Node000016" class="edge">
<title>Node18&#45;&gt;Node16</title>
<g id="a_edge24_Node000018_Node000016"><a xlink:title=" ">
<path fill="none" stroke="#63b8ff" d="M658,-165.45C666.43,-157.17 677.04,-146.77 685.85,-138.12"/>
<polygon fill="#63b8ff" stroke="#63b8ff" points="688.15,-140.76 692.84,-131.26 683.25,-135.77 688.15,-140.76"/>
</a>
</g>
</g>
<!-- Node19&#45;&gt;Node8 -->
<g id="edge27_Node000019_Node000008" class="edge">
<title>Node19&#45;&gt;Node8</title>
<g id="a_edge27_Node000019_Node000008"><a xlink:title=" ">
<path fill="none" stroke="#63b8ff" d="M325.37,-167.93C328.35,-167.19 331.3,-166.46 334.17,-165.75 379.77,-154.49 431.81,-141.82 468.71,-132.86"/>
<polygon fill="#63b8ff" stroke="#63b8ff" points="469.29,-136.32 478.18,-130.56 467.64,-129.52 469.29,-136.32"/>
</a>
</g>
</g>
<!-- Node20&#45;&gt;Node8 -->
<g id="edge29_Node000020_Node000008" class="edge">
<title>Node20&#45;&gt;Node8</title>
<g id="a_edge29_Node000020_Node000008"><a xlink:title=" ">
<path fill="none" stroke="#63b8ff" d="M708.69,-166.05C665.49,-155.91 607.7,-142.36 566.94,-132.8"/>
<polygon fill="#63b8ff" stroke="#63b8ff" points="567.93,-129.44 557.39,-130.56 566.33,-136.25 567.93,-129.44"/>
</a>
</g>
</g>
<!-- Node20&#45;&gt;Node12 -->
<g id="edge31_Node000020_Node000012" class="edge">
<title>Node20&#45;&gt;Node12</title>
<g id="a_edge31_Node000020_Node000012"><a xlink:title=" ">
<path fill="none" stroke="#63b8ff" d="M768.68,-165.31C768.75,-139.73 765.23,-86.74 737.17,-55.25 714.28,-29.56 675.13,-18.61 648.01,-13.98"/>
<polygon fill="#63b8ff" stroke="#63b8ff" points="648.77,-10.55 638.36,-12.53 647.73,-17.47 648.77,-10.55"/>
</a>
</g>
</g>
<!-- Node20&#45;&gt;Node16 -->
<g id="edge30_Node000020_Node000016" class="edge">
<title>Node20&#45;&gt;Node16</title>
<g id="a_edge30_Node000020_Node000016"><a xlink:title=" ">
<path fill="none" stroke="#63b8ff" d="M752.1,-165.45C742.87,-157.09 731.24,-146.55 721.64,-137.85"/>
<polygon fill="#63b8ff" stroke="#63b8ff" points="724.07,-135.34 714.31,-131.22 719.37,-140.52 724.07,-135.34"/>
</a>
</g>
</g>
<!-- Node21&#45;&gt;Node8 -->
<g id="edge33_Node000021_Node000008" class="edge">
<title>Node21&#45;&gt;Node8</title>
<g id="a_edge33_Node000021_Node000008"><a xlink:title=" ">
<path fill="none" stroke="#63b8ff" d="M845.48,-167.46C842.33,-166.86 839.21,-166.29 836.17,-165.75 746.29,-149.93 641.36,-136.14 577.1,-128.23"/>
<polygon fill="#63b8ff" stroke="#63b8ff" points="577.83,-124.79 567.48,-127.05 576.98,-131.74 577.83,-124.79"/>
</a>
</g>
</g>
<!-- Node21&#45;&gt;Node12 -->
<g id="edge35_Node000021_Node000012" class="edge">
<title>Node21&#45;&gt;Node12</title>
<g id="a_edge35_Node000021_Node000012"><a xlink:title=" ">
<path fill="none" stroke="#63b8ff" d="M890.09,-165.55C866.12,-139.88 812.49,-86.11 757.17,-55.25 722.15,-35.72 677.33,-23.28 648.2,-16.63"/>
<polygon fill="#63b8ff" stroke="#63b8ff" points="649.11,-13.25 638.59,-14.54 647.61,-20.09 649.11,-13.25"/>
</a>
</g>
</g>
<!-- Node21&#45;&gt;Node16 -->
<g id="edge34_Node000021_Node000016" class="edge">
<title>Node21&#45;&gt;Node16</title>
<g id="a_edge34_Node000021_Node000016"><a xlink:title=" ">
<path fill="none" stroke="#63b8ff" d="M853.22,-165.3C819.93,-155.5 776.68,-142.77 745.17,-133.49"/>
<polygon fill="#63b8ff" stroke="#63b8ff" points="746.17,-130.13 735.59,-130.67 744.19,-136.85 746.17,-130.13"/>
</a>
</g>
</g>
<!-- Node22&#45;&gt;Node8 -->
<g id="edge39_Node000022_Node000008" class="edge">
<title>Node22&#45;&gt;Node8</title>
<g id="a_edge39_Node000022_Node000008"><a xlink:title=" ">
<path fill="none" stroke="#63b8ff" d="M106.06,-170.91C113.93,-169.01 122.31,-167.16 130.17,-165.75 244.93,-145.12 380.63,-132.04 457.03,-125.69"/>
<polygon fill="#63b8ff" stroke="#63b8ff" points="457.12,-129.2 466.8,-124.89 456.55,-122.22 457.12,-129.2"/>
</a>
</g>
</g>
<!-- Node22&#45;&gt;Node11 -->
<g id="edge40_Node000022_Node000011" class="edge">
<title>Node22&#45;&gt;Node11</title>
<g id="a_edge40_Node000022_Node000011"><a xlink:title=" ">
<path fill="none" stroke="#63b8ff" d="M72.04,-171.02C72.33,-156.37 75.07,-127.29 91.17,-110.5 166.61,-31.82 303.84,-14.95 368.57,-11.46"/>
<polygon fill="#63b8ff" stroke="#63b8ff" points="368.44,-14.97 378.27,-11.02 368.12,-7.97 368.44,-14.97"/>
</a>
</g>
</g>
<!-- Node22&#45;&gt;Node12 -->
<g id="edge42_Node000022_Node000012" class="edge">
<title>Node22&#45;&gt;Node12</title>
<g id="a_edge42_Node000022_Node000012"><a xlink:title=" ">
<path fill="none" stroke="#63b8ff" d="M99.58,-170.96C163.24,-150.02 326.12,-96.83 463.17,-55.25 506.65,-42.06 557.29,-27.66 588.54,-18.89"/>
<polygon fill="#63b8ff" stroke="#63b8ff" points="589.37,-22.29 598.05,-16.22 587.48,-15.55 589.37,-22.29"/>
</a>
</g>
</g>
<!-- Node23 -->
<g id="Node000023" class="node">
<title>Node23</title>
<g id="a_Node000023"><a xlink:title=" ">
<polygon fill="#e0e0e0" stroke="#999999" points="144.04,-129.75 100.29,-129.75 100.29,-110.5 144.04,-110.5 144.04,-129.75"/>
<text text-anchor="middle" x="122.17" y="-116.25" font-family="Helvetica,sans-Serif" font-size="10.00">format</text>
</a>
</g>
</g>
<!-- Node22&#45;&gt;Node23 -->
<g id="edge41_Node000022_Node000023" class="edge">
<title>Node22&#45;&gt;Node23</title>
<g id="a_edge41_Node000022_Node000023"><a xlink:title=" ">
<path fill="none" stroke="#63b8ff" d="M79.76,-171.06C87.03,-162.5 98.2,-149.35 107.25,-138.7"/>
<polygon fill="#63b8ff" stroke="#63b8ff" points="109.72,-141.19 113.52,-131.3 104.38,-136.66 109.72,-141.19"/>
</a>
</g>
</g>
<!-- Node25 -->
<g id="Node000025" class="node">
<title>Node25</title>
<g id="a_Node000025"><a xlink:title=" ">
<polygon fill="#e0e0e0" stroke="#999999" points="173.54,-190.62 138.79,-190.62 138.79,-171.38 173.54,-171.38 173.54,-190.62"/>
<text text-anchor="middle" x="156.17" y="-177.12" font-family="Helvetica,sans-Serif" font-size="10.00">print</text>
</a>
</g>
</g>
<!-- Node24&#45;&gt;Node25 -->
<g id="edge44_Node000024_Node000025" class="edge">
<title>Node24&#45;&gt;Node25</title>
<g id="a_edge44_Node000024_Node000025"><a xlink:title=" ">
<path fill="none" stroke="#63b8ff" d="M144.3,-231.93C146.17,-224.07 148.96,-212.32 151.37,-202.2"/>
<polygon fill="#63b8ff" stroke="#63b8ff" points="154.76,-203.04 153.67,-192.5 147.95,-201.42 154.76,-203.04"/>
</a>
</g>
</g>
</g>
</svg>
