<?xml version="1.0" encoding="UTF-8" standalone="no"?>
<!DOCTYPE svg PUBLIC "-//W3C//DTD SVG 1.1//EN"
 "http://www.w3.org/Graphics/SVG/1.1/DTD/svg11.dtd">
<!-- Generated by graphviz version 12.2.0 (20241103.1931)
 -->
<!-- Title: /github/workspace/benchmark/update_1x1x1.cpp Pages: 1 -->
<svg width="1723pt" height="393pt"
 viewBox="0.00 0.00 1723.25 392.50" xmlns="http://www.w3.org/2000/svg" xmlns:xlink="http://www.w3.org/1999/xlink">
<g id="graph0" class="graph" transform="scale(1 1) rotate(0) translate(4 388.5)">
<title>/github/workspace/benchmark/update_1x1x1.cpp</title>
<!-- Node1 -->
<g id="Node000001" class="node">
<title>Node1</title>
<g id="a_Node000001"><a xlink:title=" ">
<polygon fill="#999999" stroke="#666666" points="1527.38,-384.5 1380.88,-384.5 1380.88,-354 1527.38,-354 1527.38,-384.5"/>
<text text-anchor="start" x="1388.88" y="-371" font-family="Helvetica,sans-Serif" font-size="10.00">/github/workspace/benchmark</text>
<text text-anchor="middle" x="1454.12" y="-359.75" font-family="Helvetica,sans-Serif" font-size="10.00">/update_1x1x1.cpp</text>
</a>
</g>
</g>
<!-- Node2 -->
<g id="Node000002" class="node">
<title>Node2</title>
<g id="a_Node000002"><a xlink:href="benchmark_8hpp.xhtml" target="_top" xlink:title="Benchmarking support.">
<polygon fill="white" stroke="#666666" points="1435.12,-318 1353.12,-318 1353.12,-298.75 1435.12,-298.75 1435.12,-318"/>
<text text-anchor="middle" x="1394.12" y="-304.5" font-family="Helvetica,sans-Serif" font-size="10.00">benchmark.hpp</text>
</a>
</g>
</g>
<!-- Node1&#45;&gt;Node2 -->
<g id="edge1_Node000001_Node000002" class="edge">
<title>Node1&#45;&gt;Node2</title>
<g id="a_edge1_Node000001_Node000002"><a xlink:title=" ">
<path fill="none" stroke="#63b8ff" d="M1439.29,-353.7C1430.86,-345.42 1420.26,-335.02 1411.44,-326.37"/>
<polygon fill="#63b8ff" stroke="#63b8ff" points="1414.04,-324.02 1404.45,-319.51 1409.14,-329.01 1414.04,-324.02"/>
</a>
</g>
</g>
<!-- Node3 -->
<g id="Node000003" class="node">
<title>Node3</title>
<g id="a_Node000003"><a xlink:title=" ">
<polygon fill="#e0e0e0" stroke="#999999" points="1412.75,-262.75 1367.5,-262.75 1367.5,-243.5 1412.75,-243.5 1412.75,-262.75"/>
<text text-anchor="middle" x="1390.12" y="-249.25" font-family="Helvetica,sans-Serif" font-size="10.00">chrono</text>
</a>
</g>
</g>
<!-- Node1&#45;&gt;Node3 -->
<g id="edge59_Node000001_Node000003" class="edge">
<title>Node1&#45;&gt;Node3</title>
<g id="a_edge59_Node000001_Node000003"><a xlink:title=" ">
<path fill="none" stroke="#63b8ff" d="M1391.12,-353.53C1372.84,-346.03 1354.91,-334.78 1344.12,-318 1333.32,-301.18 1349.88,-282.73 1366.07,-270"/>
<polygon fill="#63b8ff" stroke="#63b8ff" points="1368.11,-272.84 1374.12,-264.11 1363.98,-267.19 1368.11,-272.84"/>
</a>
</g>
</g>
<!-- Node5 -->
<g id="Node000005" class="node">
<title>Node5</title>
<g id="a_Node000005"><a xlink:href="kalman_8hpp.xhtml" target="_top" xlink:title="The Kalman filter class and library top&#45;level header.">
<polygon fill="white" stroke="#666666" points="1288.12,-318 1182.12,-318 1182.12,-298.75 1288.12,-298.75 1288.12,-318"/>
<text text-anchor="middle" x="1235.12" y="-304.5" font-family="Helvetica,sans-Serif" font-size="10.00">fcarouge/kalman.hpp</text>
</a>
</g>
</g>
<!-- Node1&#45;&gt;Node5 -->
<g id="edge4_Node000001_Node000005" class="edge">
<title>Node1&#45;&gt;Node5</title>
<g id="a_edge4_Node000001_Node000005"><a xlink:title=" ">
<path fill="none" stroke="#63b8ff" d="M1399.43,-353.55C1362.5,-343.62 1314.37,-330.68 1279.76,-321.38"/>
<polygon fill="#63b8ff" stroke="#63b8ff" points="1281.06,-318.1 1270.49,-318.88 1279.24,-324.86 1281.06,-318.1"/>
</a>
</g>
</g>
<!-- Node31 -->
<g id="Node000031" class="node">
<title>Node31</title>
<g id="a_Node000031"><a xlink:title=" ">
<polygon fill="#e0e0e0" stroke="#999999" points="1575.38,-318 1452.88,-318 1452.88,-298.75 1575.38,-298.75 1575.38,-318"/>
<text text-anchor="middle" x="1514.12" y="-304.5" font-family="Helvetica,sans-Serif" font-size="10.00">benchmark/benchmark.h</text>
</a>
</g>
</g>
<!-- Node1&#45;&gt;Node31 -->
<g id="edge57_Node000001_Node000031" class="edge">
<title>Node1&#45;&gt;Node31</title>
<g id="a_edge57_Node000001_Node000031"><a xlink:title=" ">
<path fill="none" stroke="#63b8ff" d="M1468.96,-353.7C1477.39,-345.42 1487.99,-335.02 1496.81,-326.37"/>
<polygon fill="#63b8ff" stroke="#63b8ff" points="1499.11,-329.01 1503.8,-319.51 1494.21,-324.02 1499.11,-329.01"/>
</a>
</g>
</g>
<!-- Node32 -->
<g id="Node000032" class="node">
<title>Node32</title>
<g id="a_Node000032"><a xlink:title=" ">
<polygon fill="#e0e0e0" stroke="#999999" points="1649,-318 1593.25,-318 1593.25,-298.75 1649,-298.75 1649,-318"/>
<text text-anchor="middle" x="1621.12" y="-304.5" font-family="Helvetica,sans-Serif" font-size="10.00">algorithm</text>
</a>
</g>
</g>
<!-- Node1&#45;&gt;Node32 -->
<g id="edge58_Node000001_Node000032" class="edge">
<title>Node1&#45;&gt;Node32</title>
<g id="a_edge58_Node000001_Node000032"><a xlink:title=" ">
<path fill="none" stroke="#63b8ff" d="M1495.84,-353.55C1523.22,-343.89 1558.7,-331.38 1584.9,-322.15"/>
<polygon fill="#63b8ff" stroke="#63b8ff" points="1585.82,-325.53 1594.09,-318.91 1583.49,-318.93 1585.82,-325.53"/>
</a>
</g>
</g>
<!-- Node33 -->
<g id="Node000033" class="node">
<title>Node33</title>
<g id="a_Node000033"><a xlink:title=" ">
<polygon fill="#e0e0e0" stroke="#999999" points="1715.25,-318 1667,-318 1667,-298.75 1715.25,-298.75 1715.25,-318"/>
<text text-anchor="middle" x="1691.12" y="-304.5" font-family="Helvetica,sans-Serif" font-size="10.00">random</text>
</a>
</g>
</g>
<!-- Node1&#45;&gt;Node33 -->
<g id="edge60_Node000001_Node000033" class="edge">
<title>Node1&#45;&gt;Node33</title>
<g id="a_edge60_Node000001_Node000033"><a xlink:title=" ">
<path fill="none" stroke="#63b8ff" d="M1514.88,-353.52C1552.86,-344.26 1603.07,-331.92 1655.71,-318.59"/>
<polygon fill="#63b8ff" stroke="#63b8ff" points="1656.33,-322.04 1665.16,-316.19 1654.61,-315.26 1656.33,-322.04"/>
</a>
</g>
</g>
<!-- Node2&#45;&gt;Node3 -->
<g id="edge2_Node000002_Node000003" class="edge">
<title>Node2&#45;&gt;Node3</title>
<g id="a_edge2_Node000002_Node000003"><a xlink:title=" ">
<path fill="none" stroke="#63b8ff" d="M1393.46,-298.58C1392.97,-291.99 1392.27,-282.71 1391.64,-274.32"/>
<polygon fill="#63b8ff" stroke="#63b8ff" points="1395.15,-274.33 1390.91,-264.62 1388.17,-274.85 1395.15,-274.33"/>
</a>
</g>
</g>
<!-- Node4 -->
<g id="Node000004" class="node">
<title>Node4</title>
<g id="a_Node000004"><a xlink:title=" ">
<polygon fill="#e0e0e0" stroke="#999999" points="1319.62,-19.25 1258.62,-19.25 1258.62,0 1319.62,0 1319.62,-19.25"/>
<text text-anchor="middle" x="1289.12" y="-5.75" font-family="Helvetica,sans-Serif" font-size="10.00">type_traits</text>
</a>
</g>
</g>
<!-- Node2&#45;&gt;Node4 -->
<g id="edge3_Node000002_Node000004" class="edge">
<title>Node2&#45;&gt;Node4</title>
<g id="a_edge3_Node000002_Node000004"><a xlink:title=" ">
<path fill="none" stroke="#63b8ff" d="M1408.4,-298.46C1434.7,-280.79 1488.12,-238.63 1488.12,-187.62 1488.12,-187.62 1488.12,-187.62 1488.12,-119.12 1488.12,-48.11 1389.23,-23.3 1330.87,-14.84"/>
<polygon fill="#63b8ff" stroke="#63b8ff" points="1331.66,-11.42 1321.28,-13.56 1330.73,-18.35 1331.66,-11.42"/>
</a>
</g>
</g>
<!-- Node6 -->
<g id="Node000006" class="node">
<title>Node6</title>
<g id="a_Node000006"><a xlink:href="format_8hpp.xhtml" target="_top" xlink:title="Formatting support for the Kalman filter.">
<polygon fill="white" stroke="#666666" points="1408,-196.25 1346.25,-196.25 1346.25,-177 1408,-177 1408,-196.25"/>
<text text-anchor="middle" x="1377.12" y="-182.75" font-family="Helvetica,sans-Serif" font-size="10.00">format.hpp</text>
</a>
</g>
</g>
<!-- Node5&#45;&gt;Node6 -->
<g id="edge5_Node000005_Node000006" class="edge">
<title>Node5&#45;&gt;Node6</title>
<g id="a_edge5_Node000005_Node000006"><a xlink:title=" ">
<path fill="none" stroke="#63b8ff" d="M1238.56,-298.52C1244.11,-285.17 1256.16,-259.74 1273.12,-243.5 1284.64,-232.48 1320.57,-214.22 1346.98,-201.59"/>
<polygon fill="#63b8ff" stroke="#63b8ff" points="1348.36,-204.81 1355.9,-197.37 1345.36,-198.48 1348.36,-204.81"/>
</a>
</g>
</g>
<!-- Node7 -->
<g id="Node000007" class="node">
<title>Node7</title>
<g id="a_Node000007"><a xlink:href="utility_8hpp.xhtml" target="_top" xlink:title="The collection of utilities supporting the library.">
<polygon fill="white" stroke="#666666" points="935.62,-129.75 838.62,-129.75 838.62,-110.5 935.62,-110.5 935.62,-129.75"/>
<text text-anchor="middle" x="887.12" y="-116.25" font-family="Helvetica,sans-Serif" font-size="10.00">fcarouge/utility.hpp</text>
</a>
</g>
</g>
<!-- Node5&#45;&gt;Node7 -->
<g id="edge55_Node000005_Node000007" class="edge">
<title>Node5&#45;&gt;Node7</title>
<g id="a_edge55_Node000005_Node000007"><a xlink:title=" ">
<path fill="none" stroke="#63b8ff" d="M1227.8,-298.41C1202.9,-267.95 1122.63,-170.15 1115.12,-165.75 1063.59,-135.52 995.36,-125.33 947.01,-122.11"/>
<polygon fill="#63b8ff" stroke="#63b8ff" points="947.48,-118.63 937.29,-121.55 947.08,-125.62 947.48,-118.63"/>
</a>
</g>
</g>
<!-- Node14 -->
<g id="Node000014" class="node">
<title>Node14</title>
<g id="a_Node000014"><a xlink:href="factory_8hpp.xhtml" target="_top" xlink:title=" ">
<polygon fill="white" stroke="#666666" points="822,-262.75 724.25,-262.75 724.25,-243.5 822,-243.5 822,-262.75"/>
<text text-anchor="middle" x="773.12" y="-249.25" font-family="Helvetica,sans-Serif" font-size="10.00">internal/factory.hpp</text>
</a>
</g>
</g>
<!-- Node5&#45;&gt;Node14 -->
<g id="edge17_Node000005_Node000014" class="edge">
<title>Node5&#45;&gt;Node14</title>
<g id="a_edge17_Node000005_Node000014"><a xlink:title=" ">
<path fill="none" stroke="#63b8ff" d="M1181.68,-301.21C1095.01,-291.22 924.36,-271.56 833.46,-261.08"/>
<polygon fill="#63b8ff" stroke="#63b8ff" points="834.08,-257.63 823.75,-259.96 833.28,-264.58 834.08,-257.63"/>
</a>
</g>
</g>
<!-- Node28 -->
<g id="Node000028" class="node">
<title>Node28</title>
<g id="a_Node000028"><a xlink:href="printer_8hpp.xhtml" target="_top" xlink:title="Filter decoration support for printing operations.">
<polygon fill="white" stroke="#666666" points="1342.62,-262.75 1281.62,-262.75 1281.62,-243.5 1342.62,-243.5 1342.62,-262.75"/>
<text text-anchor="middle" x="1312.12" y="-249.25" font-family="Helvetica,sans-Serif" font-size="10.00">printer.hpp</text>
</a>
</g>
</g>
<!-- Node5&#45;&gt;Node28 -->
<g id="edge53_Node000005_Node000028" class="edge">
<title>Node5&#45;&gt;Node28</title>
<g id="a_edge53_Node000005_Node000028"><a xlink:title=" ">
<path fill="none" stroke="#63b8ff" d="M1248.19,-298.34C1259.58,-290.46 1276.35,-278.86 1289.86,-269.52"/>
<polygon fill="#63b8ff" stroke="#63b8ff" points="1291.52,-272.63 1297.75,-264.06 1287.54,-266.87 1291.52,-272.63"/>
</a>
</g>
</g>
<!-- Node30 -->
<g id="Node000030" class="node">
<title>Node30</title>
<g id="a_Node000030"><a xlink:title=" ">
<polygon fill="#e0e0e0" stroke="#999999" points="706,-262.75 608.25,-262.75 608.25,-243.5 706,-243.5 706,-262.75"/>
<text text-anchor="middle" x="657.12" y="-249.25" font-family="Helvetica,sans-Serif" font-size="10.00">internal/kalman.tpp</text>
</a>
</g>
</g>
<!-- Node5&#45;&gt;Node30 -->
<g id="edge56_Node000005_Node000030" class="edge">
<title>Node5&#45;&gt;Node30</title>
<g id="a_edge56_Node000005_Node000030"><a xlink:title=" ">
<path fill="none" stroke="#63b8ff" d="M1181.87,-303.9C1089.57,-297.64 893.66,-283.29 717.75,-262.99"/>
<polygon fill="#63b8ff" stroke="#63b8ff" points="718.3,-259.53 707.96,-261.85 717.49,-266.48 718.3,-259.53"/>
</a>
</g>
</g>
<!-- Node6&#45;&gt;Node7 -->
<g id="edge6_Node000006_Node000007" class="edge">
<title>Node6&#45;&gt;Node7</title>
<g id="a_edge6_Node000006_Node000007"><a xlink:title=" ">
<path fill="none" stroke="#63b8ff" d="M1345.85,-176.58C1331.68,-172.76 1314.66,-168.56 1299.12,-165.75 1175.13,-143.35 1027.96,-130.72 947.36,-124.97"/>
<polygon fill="#63b8ff" stroke="#63b8ff" points="947.69,-121.48 937.47,-124.27 947.2,-128.46 947.69,-121.48"/>
</a>
</g>
</g>
<!-- Node10 -->
<g id="Node000010" class="node">
<title>Node10</title>
<g id="a_Node000010"><a xlink:title=" ">
<polygon fill="#e0e0e0" stroke="#999999" points="1212.25,-19.25 1164,-19.25 1164,0 1212.25,0 1212.25,-19.25"/>
<text text-anchor="middle" x="1188.12" y="-5.75" font-family="Helvetica,sans-Serif" font-size="10.00">cstddef</text>
</a>
</g>
</g>
<!-- Node6&#45;&gt;Node10 -->
<g id="edge14_Node000006_Node000010" class="edge">
<title>Node6&#45;&gt;Node10</title>
<g id="a_edge14_Node000006_Node000010"><a xlink:title=" ">
<path fill="none" stroke="#63b8ff" d="M1384.19,-176.64C1394.91,-161.84 1412.65,-131.86 1399.12,-110.5 1360.39,-49.31 1272.94,-24.89 1223.65,-15.71"/>
<polygon fill="#63b8ff" stroke="#63b8ff" points="1224.51,-12.31 1214.06,-14.05 1223.31,-19.2 1224.51,-12.31"/>
</a>
</g>
</g>
<!-- Node11 -->
<g id="Node000011" class="node">
<title>Node11</title>
<g id="a_Node000011"><a xlink:title=" ">
<polygon fill="#e0e0e0" stroke="#999999" points="457.62,-19.25 420.62,-19.25 420.62,0 457.62,0 457.62,-19.25"/>
<text text-anchor="middle" x="439.12" y="-5.75" font-family="Helvetica,sans-Serif" font-size="10.00">tuple</text>
</a>
</g>
</g>
<!-- Node6&#45;&gt;Node11 -->
<g id="edge16_Node000006_Node000011" class="edge">
<title>Node6&#45;&gt;Node11</title>
<g id="a_edge16_Node000006_Node000011"><a xlink:title=" ">
<path fill="none" stroke="#63b8ff" d="M1360.25,-176.6C1330.27,-160.93 1265.36,-128.61 1207.12,-110.5 1081,-71.27 1045.91,-73.71 915.12,-55.25 747.35,-31.57 544.48,-17.28 469.16,-12.46"/>
<polygon fill="#63b8ff" stroke="#63b8ff" points="469.51,-8.98 459.31,-11.84 469.07,-15.96 469.51,-8.98"/>
</a>
</g>
</g>
<!-- Node13 -->
<g id="Node000013" class="node">
<title>Node13</title>
<g id="a_Node000013"><a xlink:title=" ">
<polygon fill="#e0e0e0" stroke="#999999" points="1390,-129.75 1346.25,-129.75 1346.25,-110.5 1390,-110.5 1390,-129.75"/>
<text text-anchor="middle" x="1368.12" y="-116.25" font-family="Helvetica,sans-Serif" font-size="10.00">format</text>
</a>
</g>
</g>
<!-- Node6&#45;&gt;Node13 -->
<g id="edge15_Node000006_Node000013" class="edge">
<title>Node6&#45;&gt;Node13</title>
<g id="a_edge15_Node000006_Node000013"><a xlink:title=" ">
<path fill="none" stroke="#63b8ff" d="M1375.87,-176.66C1374.6,-167.51 1372.57,-153.02 1370.92,-141.13"/>
<polygon fill="#63b8ff" stroke="#63b8ff" points="1374.42,-140.94 1369.57,-131.52 1367.49,-141.9 1374.42,-140.94"/>
</a>
</g>
</g>
<!-- Node8 -->
<g id="Node000008" class="node">
<title>Node8</title>
<g id="a_Node000008"><a xlink:href="internal_2utility_8hpp.xhtml" target="_top" xlink:title=" ">
<polygon fill="white" stroke="#666666" points="1159.62,-74.5 1068.62,-74.5 1068.62,-55.25 1159.62,-55.25 1159.62,-74.5"/>
<text text-anchor="middle" x="1114.12" y="-61" font-family="Helvetica,sans-Serif" font-size="10.00">internal/utility.hpp</text>
</a>
</g>
</g>
<!-- Node7&#45;&gt;Node8 -->
<g id="edge7_Node000007_Node000008" class="edge">
<title>Node7&#45;&gt;Node8</title>
<g id="a_edge7_Node000007_Node000008"><a xlink:title=" ">
<path fill="none" stroke="#63b8ff" d="M925.89,-110.03C964.17,-101.05 1022.86,-87.28 1064.52,-77.51"/>
<polygon fill="#63b8ff" stroke="#63b8ff" points="1065.11,-80.97 1074.05,-75.28 1063.51,-74.15 1065.11,-80.97"/>
</a>
</g>
</g>
<!-- Node7&#45;&gt;Node10 -->
<g id="edge12_Node000007_Node000010" class="edge">
<title>Node7&#45;&gt;Node10</title>
<g id="a_edge12_Node000007_Node000010"><a xlink:title=" ">
<path fill="none" stroke="#63b8ff" d="M935.98,-117.53C1007.33,-114.21 1135.24,-104.18 1169.12,-74.5 1181.51,-63.65 1186,-45.13 1187.54,-30.81"/>
<polygon fill="#63b8ff" stroke="#63b8ff" points="1191.01,-31.33 1188.16,-21.12 1184.03,-30.88 1191.01,-31.33"/>
</a>
</g>
</g>
<!-- Node12 -->
<g id="Node000012" class="node">
<title>Node12</title>
<g id="a_Node000012"><a xlink:title=" ">
<polygon fill="#e0e0e0" stroke="#999999" points="906.38,-74.5 867.88,-74.5 867.88,-55.25 906.38,-55.25 906.38,-74.5"/>
<text text-anchor="middle" x="887.12" y="-61" font-family="Helvetica,sans-Serif" font-size="10.00">utility</text>
</a>
</g>
</g>
<!-- Node7&#45;&gt;Node12 -->
<g id="edge13_Node000007_Node000012" class="edge">
<title>Node7&#45;&gt;Node12</title>
<g id="a_edge13_Node000007_Node000012"><a xlink:title=" ">
<path fill="none" stroke="#63b8ff" d="M887.12,-110.33C887.12,-103.82 887.12,-94.67 887.12,-86.37"/>
<polygon fill="#63b8ff" stroke="#63b8ff" points="890.63,-86.37 887.13,-76.37 883.63,-86.37 890.63,-86.37"/>
</a>
</g>
</g>
<!-- Node8&#45;&gt;Node4 -->
<g id="edge11_Node000008_Node000004" class="edge">
<title>Node8&#45;&gt;Node4</title>
<g id="a_edge11_Node000008_Node000004"><a xlink:title=" ">
<path fill="none" stroke="#63b8ff" d="M1143.81,-54.84C1172.6,-46.08 1216.49,-32.73 1248.51,-22.98"/>
<polygon fill="#63b8ff" stroke="#63b8ff" points="1249.3,-26.4 1257.85,-20.14 1247.26,-19.71 1249.3,-26.4"/>
</a>
</g>
</g>
<!-- Node9 -->
<g id="Node000009" class="node">
<title>Node9</title>
<g id="a_Node000009"><a xlink:title=" ">
<polygon fill="#e0e0e0" stroke="#999999" points="905,-19.25 849.25,-19.25 849.25,0 905,0 905,-19.25"/>
<text text-anchor="middle" x="877.12" y="-5.75" font-family="Helvetica,sans-Serif" font-size="10.00">concepts</text>
</a>
</g>
</g>
<!-- Node8&#45;&gt;Node9 -->
<g id="edge8_Node000008_Node000009" class="edge">
<title>Node8&#45;&gt;Node9</title>
<g id="a_edge8_Node000008_Node000009"><a xlink:title=" ">
<path fill="none" stroke="#63b8ff" d="M1073.65,-54.78C1029.6,-44.88 959.64,-29.17 916.16,-19.4"/>
<polygon fill="#63b8ff" stroke="#63b8ff" points="917.18,-16.04 906.65,-17.26 915.64,-22.87 917.18,-16.04"/>
</a>
</g>
</g>
<!-- Node8&#45;&gt;Node10 -->
<g id="edge9_Node000008_Node000010" class="edge">
<title>Node8&#45;&gt;Node10</title>
<g id="a_edge9_Node000008_Node000010"><a xlink:title=" ">
<path fill="none" stroke="#63b8ff" d="M1126.68,-54.84C1137.59,-46.99 1153.63,-35.45 1166.59,-26.12"/>
<polygon fill="#63b8ff" stroke="#63b8ff" points="1168.46,-29.09 1174.53,-20.41 1164.37,-23.41 1168.46,-29.09"/>
</a>
</g>
</g>
<!-- Node8&#45;&gt;Node11 -->
<g id="edge10_Node000008_Node000011" class="edge">
<title>Node8&#45;&gt;Node11</title>
<g id="a_edge10_Node000008_Node000011"><a xlink:title=" ">
<path fill="none" stroke="#63b8ff" d="M1068.3,-56.95C1063.52,-56.33 1058.73,-55.75 1054.12,-55.25 830.24,-31.07 559.04,-16.5 469.45,-12.07"/>
<polygon fill="#63b8ff" stroke="#63b8ff" points="469.71,-8.58 459.55,-11.59 469.37,-15.57 469.71,-8.58"/>
</a>
</g>
</g>
<!-- Node14&#45;&gt;Node4 -->
<g id="edge52_Node000014_Node000004" class="edge">
<title>Node14&#45;&gt;Node4</title>
<g id="a_edge52_Node000014_Node000004"><a xlink:title=" ">
<path fill="none" stroke="#63b8ff" d="M822.28,-251.65C946.83,-249.95 1267.23,-242.21 1299.12,-207.5 1344.45,-158.17 1314.61,-69.17 1298.06,-30.01"/>
<polygon fill="#63b8ff" stroke="#63b8ff" points="1301.29,-28.68 1294.06,-20.94 1294.89,-31.5 1301.29,-28.68"/>
</a>
</g>
</g>
<!-- Node14&#45;&gt;Node9 -->
<g id="edge51_Node000014_Node000009" class="edge">
<title>Node14&#45;&gt;Node9</title>
<g id="a_edge51_Node000014_Node000009"><a xlink:title=" ">
<path fill="none" stroke="#63b8ff" d="M723.84,-245.78C700.1,-239.97 673.68,-228.83 659.12,-207.5 648.67,-192.17 650.62,-182.24 659.12,-165.75 697.41,-91.52 789.46,-45.04 840.86,-23.94"/>
<polygon fill="#63b8ff" stroke="#63b8ff" points="842.08,-27.22 850.08,-20.27 839.49,-20.72 842.08,-27.22"/>
</a>
</g>
</g>
<!-- Node15 -->
<g id="Node000015" class="node">
<title>Node15</title>
<g id="a_Node000015"><a xlink:href="type_8hpp.xhtml" target="_top" xlink:title=" ">
<polygon fill="white" stroke="#666666" points="1289.62,-196.25 1162.62,-196.25 1162.62,-177 1289.62,-177 1289.62,-196.25"/>
<text text-anchor="middle" x="1226.12" y="-182.75" font-family="Helvetica,sans-Serif" font-size="10.00">fcarouge/internal/type.hpp</text>
</a>
</g>
</g>
<!-- Node14&#45;&gt;Node15 -->
<g id="edge18_Node000014_Node000015" class="edge">
<title>Node14&#45;&gt;Node15</title>
<g id="a_edge18_Node000014_Node000015"><a xlink:title=" ">
<path fill="none" stroke="#63b8ff" d="M822.22,-246.46C888.73,-238.62 1011.13,-223.59 1115.12,-207.5 1131.94,-204.9 1150.14,-201.77 1166.84,-198.78"/>
<polygon fill="#63b8ff" stroke="#63b8ff" points="1167.42,-202.23 1176.64,-197 1166.17,-195.34 1167.42,-202.23"/>
</a>
</g>
</g>
<!-- Node17 -->
<g id="Node000017" class="node">
<title>Node17</title>
<g id="a_Node000017"><a xlink:href="x__z__p__q__r_8hpp.xhtml" target="_top" xlink:title=" ">
<polygon fill="white" stroke="#666666" points="877.88,-201.88 782.38,-201.88 782.38,-171.38 877.88,-171.38 877.88,-201.88"/>
<text text-anchor="start" x="790.38" y="-188.38" font-family="Helvetica,sans-Serif" font-size="10.00">fcarouge/internal/x</text>
<text text-anchor="middle" x="830.12" y="-177.12" font-family="Helvetica,sans-Serif" font-size="10.00">_z_p_q_r.hpp</text>
</a>
</g>
</g>
<!-- Node14&#45;&gt;Node17 -->
<g id="edge22_Node000014_Node000017" class="edge">
<title>Node14&#45;&gt;Node17</title>
<g id="a_edge22_Node000014_Node000017"><a xlink:title=" ">
<path fill="none" stroke="#63b8ff" d="M781.05,-243.16C788.48,-234.74 799.92,-221.81 809.88,-210.53"/>
<polygon fill="#63b8ff" stroke="#63b8ff" points="812.45,-212.91 816.45,-203.1 807.2,-208.28 812.45,-212.91"/>
</a>
</g>
</g>
<!-- Node18 -->
<g id="Node000018" class="node">
<title>Node18</title>
<g id="a_Node000018"><a xlink:href="x__z__p__q__r__h__f_8hpp.xhtml" target="_top" xlink:title=" ">
<polygon fill="white" stroke="#666666" points="991.88,-201.88 896.38,-201.88 896.38,-171.38 991.88,-171.38 991.88,-201.88"/>
<text text-anchor="start" x="904.38" y="-188.38" font-family="Helvetica,sans-Serif" font-size="10.00">fcarouge/internal/x</text>
<text text-anchor="middle" x="944.12" y="-177.12" font-family="Helvetica,sans-Serif" font-size="10.00">_z_p_q_r_h_f.hpp</text>
</a>
</g>
</g>
<!-- Node14&#45;&gt;Node18 -->
<g id="edge24_Node000014_Node000018" class="edge">
<title>Node14&#45;&gt;Node18</title>
<g id="a_edge24_Node000014_Node000018"><a xlink:title=" ">
<path fill="none" stroke="#63b8ff" d="M797.26,-243.02C822.49,-233.5 862.78,-218.31 894.79,-206.24"/>
<polygon fill="#63b8ff" stroke="#63b8ff" points="895.75,-209.61 903.87,-202.81 893.28,-203.06 895.75,-209.61"/>
</a>
</g>
</g>
<!-- Node19 -->
<g id="Node000019" class="node">
<title>Node19</title>
<g id="a_Node000019"><a xlink:href="x__z__p__q__r__hh__us__ps_8hpp.xhtml" target="_top" xlink:title=" ">
<polygon fill="white" stroke="#666666" points="120.25,-201.88 0,-201.88 0,-171.38 120.25,-171.38 120.25,-201.88"/>
<text text-anchor="start" x="8" y="-188.38" font-family="Helvetica,sans-Serif" font-size="10.00">fcarouge/internal/x</text>
<text text-anchor="middle" x="60.12" y="-177.12" font-family="Helvetica,sans-Serif" font-size="10.00">_z_p_q_r_hh_us_ps.hpp</text>
</a>
</g>
</g>
<!-- Node14&#45;&gt;Node19 -->
<g id="edge26_Node000014_Node000019" class="edge">
<title>Node14&#45;&gt;Node19</title>
<g id="a_edge26_Node000014_Node000019"><a xlink:title=" ">
<path fill="none" stroke="#63b8ff" d="M723.8,-244.49C720.87,-244.13 717.96,-243.8 715.12,-243.5 455.61,-216.28 386.26,-251.88 129.12,-207.5 125.08,-206.8 120.93,-205.95 116.78,-205.01"/>
<polygon fill="#63b8ff" stroke="#63b8ff" points="117.84,-201.66 107.29,-202.67 116.16,-208.46 117.84,-201.66"/>
</a>
</g>
</g>
<!-- Node22 -->
<g id="Node000022" class="node">
<title>Node22</title>
<g id="a_Node000022"><a xlink:href="x__z__p__qq__rr__f_8hpp.xhtml" target="_top" xlink:title=" ">
<polygon fill="white" stroke="#666666" points="611.88,-201.88 516.38,-201.88 516.38,-171.38 611.88,-171.38 611.88,-201.88"/>
<text text-anchor="start" x="524.38" y="-188.38" font-family="Helvetica,sans-Serif" font-size="10.00">fcarouge/internal/x</text>
<text text-anchor="middle" x="564.12" y="-177.12" font-family="Helvetica,sans-Serif" font-size="10.00">_z_p_qq_rr_f.hpp</text>
</a>
</g>
</g>
<!-- Node14&#45;&gt;Node22 -->
<g id="edge31_Node000014_Node000022" class="edge">
<title>Node14&#45;&gt;Node22</title>
<g id="a_edge31_Node000014_Node000022"><a xlink:title=" ">
<path fill="none" stroke="#63b8ff" d="M742.68,-243.03C712.92,-234.11 666.35,-220.05 626.12,-207.5 624.31,-206.93 622.46,-206.35 620.6,-205.77"/>
<polygon fill="#63b8ff" stroke="#63b8ff" points="621.84,-202.49 611.25,-202.81 619.73,-209.17 621.84,-202.49"/>
</a>
</g>
</g>
<!-- Node23 -->
<g id="Node000023" class="node">
<title>Node23</title>
<g id="a_Node000023"><a xlink:href="x__z__p__r_8hpp.xhtml" target="_top" xlink:title=" ">
<polygon fill="white" stroke="#666666" points="1105.88,-201.88 1010.38,-201.88 1010.38,-171.38 1105.88,-171.38 1105.88,-201.88"/>
<text text-anchor="start" x="1018.38" y="-188.38" font-family="Helvetica,sans-Serif" font-size="10.00">fcarouge/internal/x</text>
<text text-anchor="middle" x="1058.12" y="-177.12" font-family="Helvetica,sans-Serif" font-size="10.00">_z_p_r.hpp</text>
</a>
</g>
</g>
<!-- Node14&#45;&gt;Node23 -->
<g id="edge35_Node000014_Node000023" class="edge">
<title>Node14&#45;&gt;Node23</title>
<g id="a_edge35_Node000014_Node000023"><a xlink:title=" ">
<path fill="none" stroke="#63b8ff" d="M822.07,-244.62C868.55,-237 940.2,-224 1001.12,-207.5 1003.12,-206.96 1005.16,-206.38 1007.2,-205.78"/>
<polygon fill="#63b8ff" stroke="#63b8ff" points="1008.23,-209.13 1016.73,-202.81 1006.14,-202.44 1008.23,-209.13"/>
</a>
</g>
</g>
<!-- Node24 -->
<g id="Node000024" class="node">
<title>Node24</title>
<g id="a_Node000024"><a xlink:href="x__z__p__r__f_8hpp.xhtml" target="_top" xlink:title=" ">
<polygon fill="white" stroke="#666666" points="763.88,-201.88 668.38,-201.88 668.38,-171.38 763.88,-171.38 763.88,-201.88"/>
<text text-anchor="start" x="676.38" y="-188.38" font-family="Helvetica,sans-Serif" font-size="10.00">fcarouge/internal/x</text>
<text text-anchor="middle" x="716.12" y="-177.12" font-family="Helvetica,sans-Serif" font-size="10.00">_z_p_r_f.hpp</text>
</a>
</g>
</g>
<!-- Node14&#45;&gt;Node24 -->
<g id="edge37_Node000014_Node000024" class="edge">
<title>Node14&#45;&gt;Node24</title>
<g id="a_edge37_Node000014_Node000024"><a xlink:title=" ">
<path fill="none" stroke="#63b8ff" d="M765.2,-243.16C757.77,-234.74 746.33,-221.81 736.37,-210.53"/>
<polygon fill="#63b8ff" stroke="#63b8ff" points="739.05,-208.28 729.8,-203.1 733.8,-212.91 739.05,-208.28"/>
</a>
</g>
</g>
<!-- Node25 -->
<g id="Node000025" class="node">
<title>Node25</title>
<g id="a_Node000025"><a xlink:href="x__z__u__p__q__r_8hpp.xhtml" target="_top" xlink:title=" ">
<polygon fill="white" stroke="#666666" points="233.88,-201.88 138.38,-201.88 138.38,-171.38 233.88,-171.38 233.88,-201.88"/>
<text text-anchor="start" x="146.38" y="-188.38" font-family="Helvetica,sans-Serif" font-size="10.00">fcarouge/internal/x</text>
<text text-anchor="middle" x="186.12" y="-177.12" font-family="Helvetica,sans-Serif" font-size="10.00">_z_u_p_q_r.hpp</text>
</a>
</g>
</g>
<!-- Node14&#45;&gt;Node25 -->
<g id="edge39_Node000014_Node000025" class="edge">
<title>Node14&#45;&gt;Node25</title>
<g id="a_edge39_Node000014_Node000025"><a xlink:title=" ">
<path fill="none" stroke="#63b8ff" d="M723.8,-244.54C720.86,-244.17 717.96,-243.82 715.12,-243.5 506.05,-220.01 449.07,-250.5 243.12,-207.5 240.34,-206.92 237.51,-206.24 234.67,-205.48"/>
<polygon fill="#63b8ff" stroke="#63b8ff" points="235.79,-202.17 225.21,-202.71 233.82,-208.88 235.79,-202.17"/>
</a>
</g>
</g>
<!-- Node26 -->
<g id="Node000026" class="node">
<title>Node26</title>
<g id="a_Node000026"><a xlink:href="x__z__u__p__q__r__f__g__ps_8hpp.xhtml" target="_top" xlink:title=" ">
<polygon fill="white" stroke="#666666" points="498.12,-201.88 380.12,-201.88 380.12,-171.38 498.12,-171.38 498.12,-201.88"/>
<text text-anchor="start" x="388.12" y="-188.38" font-family="Helvetica,sans-Serif" font-size="10.00">fcarouge/internal/x</text>
<text text-anchor="middle" x="439.12" y="-177.12" font-family="Helvetica,sans-Serif" font-size="10.00">_z_u_p_q_r_f_g_ps.hpp</text>
</a>
</g>
</g>
<!-- Node14&#45;&gt;Node26 -->
<g id="edge43_Node000014_Node000026" class="edge">
<title>Node14&#45;&gt;Node26</title>
<g id="a_edge43_Node000014_Node000026"><a xlink:title=" ">
<path fill="none" stroke="#63b8ff" d="M723.75,-244.56C658.58,-234.45 547.4,-216.73 507.12,-207.5 504.03,-206.79 500.88,-206.02 497.7,-205.22"/>
<polygon fill="#63b8ff" stroke="#63b8ff" points="498.89,-201.91 488.33,-202.73 497.1,-208.68 498.89,-201.91"/>
</a>
</g>
</g>
<!-- Node27 -->
<g id="Node000027" class="node">
<title>Node27</title>
<g id="a_Node000027"><a xlink:href="x__z__u__p__q__r__h__f__g__us__ps_8hpp.xhtml" target="_top" xlink:title=" ">
<polygon fill="white" stroke="#666666" points="362.38,-207.5 251.88,-207.5 251.88,-165.75 362.38,-165.75 362.38,-207.5"/>
<text text-anchor="start" x="259.88" y="-194" font-family="Helvetica,sans-Serif" font-size="10.00">fcarouge/internal/x</text>
<text text-anchor="start" x="259.88" y="-182.75" font-family="Helvetica,sans-Serif" font-size="10.00">_z_u_p_q_r_h_f_g_us</text>
<text text-anchor="middle" x="307.12" y="-171.5" font-family="Helvetica,sans-Serif" font-size="10.00">_ps.hpp</text>
</a>
</g>
</g>
<!-- Node14&#45;&gt;Node27 -->
<g id="edge47_Node000014_Node000027" class="edge">
<title>Node14&#45;&gt;Node27</title>
<g id="a_edge47_Node000014_Node000027"><a xlink:title=" ">
<path fill="none" stroke="#63b8ff" d="M723.78,-244.64C720.86,-244.24 717.95,-243.86 715.12,-243.5 566.19,-224.64 523.68,-237.8 373.79,-207.85"/>
<polygon fill="#63b8ff" stroke="#63b8ff" points="374.78,-204.49 364.29,-205.93 373.39,-211.35 374.78,-204.49"/>
</a>
</g>
</g>
<!-- Node15&#45;&gt;Node4 -->
<g id="edge21_Node000015_Node000004" class="edge">
<title>Node15&#45;&gt;Node4</title>
<g id="a_edge21_Node000015_Node000004"><a xlink:title=" ">
<path fill="none" stroke="#63b8ff" d="M1229.34,-176.71C1239.06,-149.68 1268.39,-68.24 1282.02,-30.37"/>
<polygon fill="#63b8ff" stroke="#63b8ff" points="1285.24,-31.75 1285.33,-21.16 1278.65,-29.38 1285.24,-31.75"/>
</a>
</g>
</g>
<!-- Node15&#45;&gt;Node7 -->
<g id="edge19_Node000015_Node000007" class="edge">
<title>Node15&#45;&gt;Node7</title>
<g id="a_edge19_Node000015_Node000007"><a xlink:title=" ">
<path fill="none" stroke="#63b8ff" d="M1192.86,-176.52C1179.08,-172.92 1162.89,-168.89 1148.12,-165.75 1079.63,-151.19 1000.24,-138.16 947.17,-129.99"/>
<polygon fill="#63b8ff" stroke="#63b8ff" points="947.84,-126.55 937.43,-128.5 946.78,-133.47 947.84,-126.55"/>
</a>
</g>
</g>
<!-- Node16 -->
<g id="Node000016" class="node">
<title>Node16</title>
<g id="a_Node000016"><a xlink:title=" ">
<polygon fill="#e0e0e0" stroke="#999999" points="1197.88,-129.75 1126.38,-129.75 1126.38,-110.5 1197.88,-110.5 1197.88,-129.75"/>
<text text-anchor="middle" x="1162.12" y="-116.25" font-family="Helvetica,sans-Serif" font-size="10.00">initializer_list</text>
</a>
</g>
</g>
<!-- Node15&#45;&gt;Node16 -->
<g id="edge20_Node000015_Node000016" class="edge">
<title>Node15&#45;&gt;Node16</title>
<g id="a_edge20_Node000015_Node000016"><a xlink:title=" ">
<path fill="none" stroke="#63b8ff" d="M1217.23,-176.66C1207.39,-166.74 1191.31,-150.54 1179.05,-138.19"/>
<polygon fill="#63b8ff" stroke="#63b8ff" points="1181.54,-135.72 1172.01,-131.09 1176.57,-140.66 1181.54,-135.72"/>
</a>
</g>
</g>
<!-- Node17&#45;&gt;Node7 -->
<g id="edge23_Node000017_Node000007" class="edge">
<title>Node17&#45;&gt;Node7</title>
<g id="a_edge23_Node000017_Node000007"><a xlink:title=" ">
<path fill="none" stroke="#63b8ff" d="M843.06,-170.99C851.61,-161.31 862.86,-148.59 871.85,-138.41"/>
<polygon fill="#63b8ff" stroke="#63b8ff" points="874.33,-140.89 878.33,-131.08 869.08,-136.26 874.33,-140.89"/>
</a>
</g>
</g>
<!-- Node18&#45;&gt;Node7 -->
<g id="edge25_Node000018_Node000007" class="edge">
<title>Node18&#45;&gt;Node7</title>
<g id="a_edge25_Node000018_Node000007"><a xlink:title=" ">
<path fill="none" stroke="#63b8ff" d="M931.19,-170.99C922.64,-161.31 911.39,-148.59 902.4,-138.41"/>
<polygon fill="#63b8ff" stroke="#63b8ff" points="905.17,-136.26 895.92,-131.08 899.92,-140.89 905.17,-136.26"/>
</a>
</g>
</g>
<!-- Node19&#45;&gt;Node7 -->
<g id="edge27_Node000019_Node000007" class="edge">
<title>Node19&#45;&gt;Node7</title>
<g id="a_edge27_Node000019_Node000007"><a xlink:title=" ">
<path fill="none" stroke="#63b8ff" d="M105.82,-170.93C113.53,-168.89 121.51,-167.05 129.12,-165.75 263.02,-142.82 672.59,-127.89 827.2,-122.94"/>
<polygon fill="#63b8ff" stroke="#63b8ff" points="826.92,-126.45 836.8,-122.63 826.7,-119.45 826.92,-126.45"/>
</a>
</g>
</g>
<!-- Node19&#45;&gt;Node11 -->
<g id="edge30_Node000019_Node000011" class="edge">
<title>Node19&#45;&gt;Node11</title>
<g id="a_edge30_Node000019_Node000011"><a xlink:title=" ">
<path fill="none" stroke="#63b8ff" d="M76.43,-171.06C107.53,-144.06 178.43,-86.2 248.12,-55.25 302.02,-31.32 370.4,-19.34 409.01,-14.1"/>
<polygon fill="#63b8ff" stroke="#63b8ff" points="409.24,-17.6 418.71,-12.85 408.34,-10.66 409.24,-17.6"/>
</a>
</g>
</g>
<!-- Node20 -->
<g id="Node000020" class="node">
<title>Node20</title>
<g id="a_Node000020"><a xlink:href="function_8hpp.xhtml" target="_top" xlink:title=" ">
<polygon fill="white" stroke="#666666" points="341.38,-129.75 272.88,-129.75 272.88,-110.5 341.38,-110.5 341.38,-129.75"/>
<text text-anchor="middle" x="307.12" y="-116.25" font-family="Helvetica,sans-Serif" font-size="10.00">function.hpp</text>
</a>
</g>
</g>
<!-- Node19&#45;&gt;Node20 -->
<g id="edge28_Node000019_Node000020" class="edge">
<title>Node19&#45;&gt;Node20</title>
<g id="a_edge28_Node000019_Node000020"><a xlink:title=" ">
<path fill="none" stroke="#63b8ff" d="M110.57,-170.88C116.81,-169.12 123.11,-167.37 129.12,-165.75 173.96,-153.68 225.43,-140.89 261.45,-132.11"/>
<polygon fill="#63b8ff" stroke="#63b8ff" points="262.21,-135.53 271.11,-129.77 260.56,-128.73 262.21,-135.53"/>
</a>
</g>
</g>
<!-- Node21 -->
<g id="Node000021" class="node">
<title>Node21</title>
<g id="a_Node000021"><a xlink:title=" ">
<polygon fill="#e0e0e0" stroke="#999999" points="332.38,-74.5 281.88,-74.5 281.88,-55.25 332.38,-55.25 332.38,-74.5"/>
<text text-anchor="middle" x="307.12" y="-61" font-family="Helvetica,sans-Serif" font-size="10.00">memory</text>
</a>
</g>
</g>
<!-- Node20&#45;&gt;Node21 -->
<g id="edge29_Node000020_Node000021" class="edge">
<title>Node20&#45;&gt;Node21</title>
<g id="a_edge29_Node000020_Node000021"><a xlink:title=" ">
<path fill="none" stroke="#63b8ff" d="M307.12,-110.33C307.12,-103.82 307.12,-94.67 307.12,-86.37"/>
<polygon fill="#63b8ff" stroke="#63b8ff" points="310.63,-86.37 307.13,-76.37 303.63,-86.37 310.63,-86.37"/>
</a>
</g>
</g>
<!-- Node22&#45;&gt;Node7 -->
<g id="edge32_Node000022_Node000007" class="edge">
<title>Node22&#45;&gt;Node7</title>
<g id="a_edge32_Node000022_Node000007"><a xlink:title=" ">
<path fill="none" stroke="#63b8ff" d="M611.94,-175.5C627.03,-172.33 643.77,-168.86 659.12,-165.75 716.71,-154.09 782.57,-141.25 828.66,-132.35"/>
<polygon fill="#63b8ff" stroke="#63b8ff" points="829.29,-135.8 838.44,-130.46 827.96,-128.92 829.29,-135.8"/>
</a>
</g>
</g>
<!-- Node22&#45;&gt;Node11 -->
<g id="edge34_Node000022_Node000011" class="edge">
<title>Node22&#45;&gt;Node11</title>
<g id="a_edge34_Node000022_Node000011"><a xlink:title=" ">
<path fill="none" stroke="#63b8ff" d="M553.68,-171.01C530.93,-139.15 476.94,-63.57 452.07,-28.75"/>
<polygon fill="#63b8ff" stroke="#63b8ff" points="455.16,-27.05 446.5,-20.95 449.46,-31.12 455.16,-27.05"/>
</a>
</g>
</g>
<!-- Node22&#45;&gt;Node20 -->
<g id="edge33_Node000022_Node000020" class="edge">
<title>Node22&#45;&gt;Node20</title>
<g id="a_edge33_Node000022_Node000020"><a xlink:title=" ">
<path fill="none" stroke="#63b8ff" d="M523.83,-170.93C518.25,-169.08 512.57,-167.3 507.12,-165.75 454.85,-150.86 393.74,-137.85 352.96,-129.78"/>
<polygon fill="#63b8ff" stroke="#63b8ff" points="353.73,-126.36 343.24,-127.87 352.38,-133.23 353.73,-126.36"/>
</a>
</g>
</g>
<!-- Node23&#45;&gt;Node7 -->
<g id="edge36_Node000023_Node000007" class="edge">
<title>Node23&#45;&gt;Node7</title>
<g id="a_edge36_Node000023_Node000007"><a xlink:title=" ">
<path fill="none" stroke="#63b8ff" d="M1019.32,-170.99C989.92,-159.9 949.89,-144.8 921.6,-134.13"/>
<polygon fill="#63b8ff" stroke="#63b8ff" points="923.02,-130.92 912.43,-130.67 920.55,-137.47 923.02,-130.92"/>
</a>
</g>
</g>
<!-- Node24&#45;&gt;Node7 -->
<g id="edge38_Node000024_Node000007" class="edge">
<title>Node24&#45;&gt;Node7</title>
<g id="a_edge38_Node000024_Node000007"><a xlink:title=" ">
<path fill="none" stroke="#63b8ff" d="M754.93,-170.99C784.33,-159.9 824.36,-144.8 852.65,-134.13"/>
<polygon fill="#63b8ff" stroke="#63b8ff" points="853.7,-137.47 861.82,-130.67 851.23,-130.92 853.7,-137.47"/>
</a>
</g>
</g>
<!-- Node25&#45;&gt;Node7 -->
<g id="edge40_Node000025_Node000007" class="edge">
<title>Node25&#45;&gt;Node7</title>
<g id="a_edge40_Node000025_Node000007"><a xlink:title=" ">
<path fill="none" stroke="#63b8ff" d="M223.75,-170.93C230.13,-168.89 236.76,-167.06 243.12,-165.75 353.78,-143.05 689.48,-128.43 827.2,-123.24"/>
<polygon fill="#63b8ff" stroke="#63b8ff" points="826.96,-126.75 836.82,-122.88 826.7,-119.76 826.96,-126.75"/>
</a>
</g>
</g>
<!-- Node25&#45;&gt;Node11 -->
<g id="edge42_Node000025_Node000011" class="edge">
<title>Node25&#45;&gt;Node11</title>
<g id="a_edge42_Node000025_Node000011"><a xlink:title=" ">
<path fill="none" stroke="#63b8ff" d="M191.76,-170.97C202.96,-143.82 230.68,-85.71 273.12,-55.25 314.29,-25.7 373.88,-15.72 409.34,-12.35"/>
<polygon fill="#63b8ff" stroke="#63b8ff" points="409.19,-15.87 418.87,-11.56 408.62,-8.89 409.19,-15.87"/>
</a>
</g>
</g>
<!-- Node25&#45;&gt;Node20 -->
<g id="edge41_Node000025_Node000020" class="edge">
<title>Node25&#45;&gt;Node20</title>
<g id="a_edge41_Node000025_Node000020"><a xlink:title=" ">
<path fill="none" stroke="#63b8ff" d="M213.58,-170.99C233.56,-160.34 260.47,-145.99 280.3,-135.42"/>
<polygon fill="#63b8ff" stroke="#63b8ff" points="281.71,-138.64 288.89,-130.85 278.42,-132.46 281.71,-138.64"/>
</a>
</g>
</g>
<!-- Node26&#45;&gt;Node7 -->
<g id="edge44_Node000026_Node000007" class="edge">
<title>Node26&#45;&gt;Node7</title>
<g id="a_edge44_Node000026_Node000007"><a xlink:title=" ">
<path fill="none" stroke="#63b8ff" d="M485.69,-170.9C492.82,-168.97 500.13,-167.17 507.12,-165.75 619.04,-142.99 752.02,-130.67 827.3,-125.04"/>
<polygon fill="#63b8ff" stroke="#63b8ff" points="827.2,-128.56 836.92,-124.33 826.69,-121.57 827.2,-128.56"/>
</a>
</g>
</g>
<!-- Node26&#45;&gt;Node11 -->
<g id="edge46_Node000026_Node000011" class="edge">
<title>Node26&#45;&gt;Node11</title>
<g id="a_edge46_Node000026_Node000011"><a xlink:title=" ">
<path fill="none" stroke="#63b8ff" d="M439.12,-171.01C439.12,-139.84 439.12,-66.79 439.12,-31.05"/>
<polygon fill="#63b8ff" stroke="#63b8ff" points="442.63,-31.23 439.13,-21.23 435.63,-31.23 442.63,-31.23"/>
</a>
</g>
</g>
<!-- Node26&#45;&gt;Node20 -->
<g id="edge45_Node000026_Node000020" class="edge">
<title>Node26&#45;&gt;Node20</title>
<g id="a_edge45_Node000026_Node000020"><a xlink:title=" ">
<path fill="none" stroke="#63b8ff" d="M409.17,-170.99C387.18,-160.24 357.48,-145.73 335.79,-135.13"/>
<polygon fill="#63b8ff" stroke="#63b8ff" points="337.44,-132.04 326.92,-130.8 334.37,-138.33 337.44,-132.04"/>
</a>
</g>
</g>
<!-- Node27&#45;&gt;Node7 -->
<g id="edge48_Node000027_Node000007" class="edge">
<title>Node27&#45;&gt;Node7</title>
<g id="a_edge48_Node000027_Node000007"><a xlink:title=" ">
<path fill="none" stroke="#63b8ff" d="M362.79,-167.57C365.6,-166.9 368.38,-166.29 371.12,-165.75 533.92,-133.82 730.08,-124.73 826.95,-122.15"/>
<polygon fill="#63b8ff" stroke="#63b8ff" points="826.84,-125.65 836.75,-121.91 826.67,-118.66 826.84,-125.65"/>
</a>
</g>
</g>
<!-- Node27&#45;&gt;Node11 -->
<g id="edge50_Node000027_Node000011" class="edge">
<title>Node27&#45;&gt;Node11</title>
<g id="a_edge50_Node000027_Node000011"><a xlink:title=" ">
<path fill="none" stroke="#63b8ff" d="M322.72,-165.51C330.91,-154.9 341.1,-141.65 350.12,-129.75 377.16,-94.09 408.39,-52.1 425.74,-28.71"/>
<polygon fill="#63b8ff" stroke="#63b8ff" points="428.43,-30.96 431.57,-20.84 422.8,-26.79 428.43,-30.96"/>
</a>
</g>
</g>
<!-- Node27&#45;&gt;Node20 -->
<g id="edge49_Node000027_Node000020" class="edge">
<title>Node27&#45;&gt;Node20</title>
<g id="a_edge49_Node000027_Node000020"><a xlink:title=" ">
<path fill="none" stroke="#63b8ff" d="M307.12,-165.57C307.12,-157.9 307.12,-149.14 307.12,-141.45"/>
<polygon fill="#63b8ff" stroke="#63b8ff" points="310.63,-141.71 307.13,-131.71 303.63,-141.71 310.63,-141.71"/>
</a>
</g>
</g>
<!-- Node29 -->
<g id="Node000029" class="node">
<title>Node29</title>
<g id="a_Node000029"><a xlink:title=" ">
<polygon fill="#e0e0e0" stroke="#999999" points="1460.5,-196.25 1425.75,-196.25 1425.75,-177 1460.5,-177 1460.5,-196.25"/>
<text text-anchor="middle" x="1443.12" y="-182.75" font-family="Helvetica,sans-Serif" font-size="10.00">print</text>
</a>
</g>
</g>
<!-- Node28&#45;&gt;Node29 -->
<g id="edge54_Node000028_Node000029" class="edge">
<title>Node28&#45;&gt;Node29</title>
<g id="a_edge54_Node000028_Node000029"><a xlink:title=" ">
<path fill="none" stroke="#63b8ff" d="M1338.45,-243.04C1360.24,-235.03 1391.62,-222.35 1417.12,-207.5 1419.32,-206.22 1421.54,-204.79 1423.71,-203.28"/>
<polygon fill="#63b8ff" stroke="#63b8ff" points="1425.55,-206.28 1431.46,-197.48 1421.36,-200.67 1425.55,-206.28"/>
</a>
</g>
</g>
</g>
</svg>
