<?xml version="1.0" encoding="UTF-8" standalone="no"?>
<!DOCTYPE svg PUBLIC "-//W3C//DTD SVG 1.1//EN"
 "http://www.w3.org/Graphics/SVG/1.1/DTD/svg11.dtd">
<!-- Generated by graphviz version 2.49.3 (20211027.1534)
 -->
<!-- Title: benchmark/update1x1x0.cpp Pages: 1 -->
<svg width="574pt" height="207pt"
 viewBox="0.00 0.00 573.50 207.00" xmlns="http://www.w3.org/2000/svg" xmlns:xlink="http://www.w3.org/1999/xlink">
<g id="graph0" class="graph" transform="scale(1 1) rotate(0) translate(4 203)">
<title>benchmark/update1x1x0.cpp</title>
<polygon fill="white" stroke="transparent" points="-4,4 -4,-203 569.5,-203 569.5,4 -4,4"/>
<!-- Node1 -->
<g id="node1" class="node">
<title>Node1</title>
<g id="a_node1"><a xlink:title=" ">
<polygon fill="#bfbfbf" stroke="black" points="164,-179.5 164,-198.5 304,-198.5 304,-179.5 164,-179.5"/>
<text text-anchor="middle" x="234" y="-186.5" font-family="Helvetica,sans-Serif" font-size="10.00">benchmark/update1x1x0.cpp</text>
</a>
</g>
</g>
<!-- Node2 -->
<g id="node2" class="node">
<title>Node2</title>
<g id="a_node2"><a xlink:href="benchmark_8hpp.xhtml" target="_top" xlink:title="Benchmarking support.">
<polygon fill="white" stroke="black" points="51.5,-112.5 51.5,-142.5 156.5,-142.5 156.5,-112.5 51.5,-112.5"/>
<text text-anchor="start" x="59.5" y="-130.5" font-family="Helvetica,sans-Serif" font-size="10.00">fcarouge/benchmark</text>
<text text-anchor="middle" x="104" y="-119.5" font-family="Helvetica,sans-Serif" font-size="10.00">/benchmark.hpp</text>
</a>
</g>
</g>
<!-- Node1&#45;&gt;Node2 -->
<g id="edge1" class="edge">
<title>Node1&#45;&gt;Node2</title>
<path fill="none" stroke="midnightblue" d="M215.37,-179.48C196.78,-170.96 167.62,-157.62 143.8,-146.72"/>
<polygon fill="midnightblue" stroke="midnightblue" points="145.19,-143.5 134.64,-142.52 142.27,-149.87 145.19,-143.5"/>
</g>
<!-- Node3 -->
<g id="node3" class="node">
<title>Node3</title>
<g id="a_node3"><a xlink:title=" ">
<polygon fill="white" stroke="#bfbfbf" points="0,-56.5 0,-75.5 46,-75.5 46,-56.5 0,-56.5"/>
<text text-anchor="middle" x="23" y="-63.5" font-family="Helvetica,sans-Serif" font-size="10.00">chrono</text>
</a>
</g>
</g>
<!-- Node1&#45;&gt;Node3 -->
<g id="edge19" class="edge">
<title>Node1&#45;&gt;Node3</title>
<path fill="none" stroke="midnightblue" d="M164.99,-179.48C117.3,-172.21 59.44,-160.18 42,-143 26.82,-128.04 23.11,-102.93 22.51,-85.69"/>
<polygon fill="midnightblue" stroke="midnightblue" points="26.01,-85.67 22.47,-75.68 19.01,-85.7 26.01,-85.67"/>
</g>
<!-- Node5 -->
<g id="node5" class="node">
<title>Node5</title>
<g id="a_node5"><a xlink:href="kalman_8hpp.xhtml" target="_top" xlink:title="The main Kalman filter class.">
<polygon fill="white" stroke="black" points="180.5,-118 180.5,-137 287.5,-137 287.5,-118 180.5,-118"/>
<text text-anchor="middle" x="234" y="-125" font-family="Helvetica,sans-Serif" font-size="10.00">fcarouge/kalman.hpp</text>
</a>
</g>
</g>
<!-- Node1&#45;&gt;Node5 -->
<g id="edge4" class="edge">
<title>Node1&#45;&gt;Node5</title>
<path fill="none" stroke="midnightblue" d="M234,-179.48C234,-171.08 234,-157.98 234,-147.16"/>
<polygon fill="midnightblue" stroke="midnightblue" points="237.5,-147.01 234,-137.01 230.5,-147.01 237.5,-147.01"/>
</g>
<!-- Node14 -->
<g id="node14" class="node">
<title>Node14</title>
<g id="a_node14"><a xlink:title=" ">
<polygon fill="white" stroke="#bfbfbf" points="305.5,-118 305.5,-137 428.5,-137 428.5,-118 305.5,-118"/>
<text text-anchor="middle" x="367" y="-125" font-family="Helvetica,sans-Serif" font-size="10.00">benchmark/benchmark.h</text>
</a>
</g>
</g>
<!-- Node1&#45;&gt;Node14 -->
<g id="edge17" class="edge">
<title>Node1&#45;&gt;Node14</title>
<path fill="none" stroke="midnightblue" d="M253.06,-179.48C275.47,-169.45 312.91,-152.7 338.71,-141.15"/>
<polygon fill="midnightblue" stroke="midnightblue" points="340.28,-144.29 347.98,-137.01 337.42,-137.9 340.28,-144.29"/>
</g>
<!-- Node15 -->
<g id="node15" class="node">
<title>Node15</title>
<g id="a_node15"><a xlink:title=" ">
<polygon fill="white" stroke="#bfbfbf" points="447,-118 447,-137 503,-137 503,-118 447,-118"/>
<text text-anchor="middle" x="475" y="-125" font-family="Helvetica,sans-Serif" font-size="10.00">algorithm</text>
</a>
</g>
</g>
<!-- Node1&#45;&gt;Node15 -->
<g id="edge18" class="edge">
<title>Node1&#45;&gt;Node15</title>
<path fill="none" stroke="midnightblue" d="M282.78,-179.47C324.45,-171.65 385.78,-158.89 438,-143 440.43,-142.26 442.92,-141.44 445.41,-140.57"/>
<polygon fill="midnightblue" stroke="midnightblue" points="446.69,-143.82 454.85,-137.06 444.25,-137.26 446.69,-143.82"/>
</g>
<!-- Node2&#45;&gt;Node3 -->
<g id="edge2" class="edge">
<title>Node2&#45;&gt;Node3</title>
<path fill="none" stroke="midnightblue" d="M84.8,-112.4C72.18,-103.13 55.71,-91.03 42.94,-81.65"/>
<polygon fill="midnightblue" stroke="midnightblue" points="44.92,-78.76 34.79,-75.66 40.77,-84.4 44.92,-78.76"/>
</g>
<!-- Node4 -->
<g id="node4" class="node">
<title>Node4</title>
<g id="a_node4"><a xlink:title=" ">
<polygon fill="white" stroke="#bfbfbf" points="81,-0.5 81,-19.5 143,-19.5 143,-0.5 81,-0.5"/>
<text text-anchor="middle" x="112" y="-7.5" font-family="Helvetica,sans-Serif" font-size="10.00">type_traits</text>
</a>
</g>
</g>
<!-- Node2&#45;&gt;Node4 -->
<g id="edge3" class="edge">
<title>Node2&#45;&gt;Node4</title>
<path fill="none" stroke="midnightblue" d="M100.86,-112.39C98.13,-98.11 95.05,-75.43 98,-56 99.37,-47 102.19,-37.33 104.95,-29.26"/>
<polygon fill="midnightblue" stroke="midnightblue" points="108.27,-30.37 108.4,-19.78 101.69,-27.98 108.27,-30.37"/>
</g>
<!-- Node5&#45;&gt;Node4 -->
<g id="edge15" class="edge">
<title>Node5&#45;&gt;Node4</title>
<path fill="none" stroke="midnightblue" d="M200.78,-117.93C178.08,-110.43 148.95,-97.33 131,-76 120.01,-62.94 115.37,-43.79 113.42,-29.65"/>
<polygon fill="midnightblue" stroke="midnightblue" points="116.89,-29.18 112.36,-19.61 109.93,-29.92 116.89,-29.18"/>
</g>
<!-- Node6 -->
<g id="node6" class="node">
<title>Node6</title>
<g id="a_node6"><a xlink:href="format_8hpp.xhtml" target="_top" xlink:title=" ">
<polygon fill="white" stroke="black" points="468.5,-56.5 468.5,-75.5 565.5,-75.5 565.5,-56.5 468.5,-56.5"/>
<text text-anchor="middle" x="517" y="-63.5" font-family="Helvetica,sans-Serif" font-size="10.00">internal/format.hpp</text>
</a>
</g>
</g>
<!-- Node5&#45;&gt;Node6 -->
<g id="edge5" class="edge">
<title>Node5&#45;&gt;Node6</title>
<path fill="none" stroke="midnightblue" d="M269.7,-117.97C278.3,-115.96 287.47,-113.87 296,-112 352.96,-99.54 418.42,-86.35 463.23,-77.5"/>
<polygon fill="midnightblue" stroke="midnightblue" points="464.18,-80.88 473.31,-75.51 462.82,-74.01 464.18,-80.88"/>
</g>
<!-- Node8 -->
<g id="node8" class="node">
<title>Node8</title>
<g id="a_node8"><a xlink:href="internal_2kalman_8hpp.xhtml" target="_top" xlink:title=" ">
<polygon fill="white" stroke="black" points="310.5,-56.5 310.5,-75.5 411.5,-75.5 411.5,-56.5 310.5,-56.5"/>
<text text-anchor="middle" x="361" y="-63.5" font-family="Helvetica,sans-Serif" font-size="10.00">internal/kalman.hpp</text>
</a>
</g>
</g>
<!-- Node5&#45;&gt;Node8 -->
<g id="edge7" class="edge">
<title>Node5&#45;&gt;Node8</title>
<path fill="none" stroke="midnightblue" d="M252.2,-117.98C273.51,-107.99 309.03,-91.35 333.66,-79.81"/>
<polygon fill="midnightblue" stroke="midnightblue" points="335.27,-82.92 342.84,-75.51 332.3,-76.58 335.27,-82.92"/>
</g>
<!-- Node10 -->
<g id="node10" class="node">
<title>Node10</title>
<g id="a_node10"><a xlink:title=" ">
<polygon fill="white" stroke="#bfbfbf" points="407.5,-0.5 407.5,-19.5 456.5,-19.5 456.5,-0.5 407.5,-0.5"/>
<text text-anchor="middle" x="432" y="-7.5" font-family="Helvetica,sans-Serif" font-size="10.00">cstddef</text>
</a>
</g>
</g>
<!-- Node5&#45;&gt;Node10 -->
<g id="edge13" class="edge">
<title>Node5&#45;&gt;Node10</title>
<path fill="none" stroke="midnightblue" d="M269.68,-117.91C322.49,-105.05 415.83,-81.69 421,-76 432.17,-63.7 434.21,-44.44 433.88,-30.08"/>
<polygon fill="midnightblue" stroke="midnightblue" points="437.36,-29.59 433.24,-19.83 430.37,-30.03 437.36,-29.59"/>
</g>
<!-- Node11 -->
<g id="node11" class="node">
<title>Node11</title>
<g id="a_node11"><a xlink:title=" ">
<polygon fill="white" stroke="#bfbfbf" points="258.5,-0.5 258.5,-19.5 317.5,-19.5 317.5,-0.5 258.5,-0.5"/>
<text text-anchor="middle" x="288" y="-7.5" font-family="Helvetica,sans-Serif" font-size="10.00">functional</text>
</a>
</g>
</g>
<!-- Node5&#45;&gt;Node11 -->
<g id="edge14" class="edge">
<title>Node5&#45;&gt;Node11</title>
<path fill="none" stroke="midnightblue" d="M239.3,-117.74C245.21,-107.8 254.86,-91.03 262,-76 269.33,-60.56 276.45,-42.47 281.38,-29.3"/>
<polygon fill="midnightblue" stroke="midnightblue" points="284.8,-30.15 284.97,-19.56 278.23,-27.74 284.8,-30.15"/>
</g>
<!-- Node12 -->
<g id="node12" class="node">
<title>Node12</title>
<g id="a_node12"><a xlink:title=" ">
<polygon fill="white" stroke="#bfbfbf" points="140,-56.5 140,-75.5 196,-75.5 196,-56.5 140,-56.5"/>
<text text-anchor="middle" x="168" y="-63.5" font-family="Helvetica,sans-Serif" font-size="10.00">concepts</text>
</a>
</g>
</g>
<!-- Node5&#45;&gt;Node12 -->
<g id="edge12" class="edge">
<title>Node5&#45;&gt;Node12</title>
<path fill="none" stroke="midnightblue" d="M224.54,-117.98C214.25,-108.7 197.58,-93.67 185.01,-82.33"/>
<polygon fill="midnightblue" stroke="midnightblue" points="187.21,-79.61 177.44,-75.51 182.52,-84.8 187.21,-79.61"/>
</g>
<!-- Node13 -->
<g id="node13" class="node">
<title>Node13</title>
<g id="a_node13"><a xlink:title=" ">
<polygon fill="white" stroke="#bfbfbf" points="214.5,-56.5 214.5,-75.5 253.5,-75.5 253.5,-56.5 214.5,-56.5"/>
<text text-anchor="middle" x="234" y="-63.5" font-family="Helvetica,sans-Serif" font-size="10.00">utility</text>
</a>
</g>
</g>
<!-- Node5&#45;&gt;Node13 -->
<g id="edge16" class="edge">
<title>Node5&#45;&gt;Node13</title>
<path fill="none" stroke="midnightblue" d="M234,-117.98C234,-109.58 234,-96.48 234,-85.66"/>
<polygon fill="midnightblue" stroke="midnightblue" points="237.5,-85.51 234,-75.51 230.5,-85.51 237.5,-85.51"/>
</g>
<!-- Node7 -->
<g id="node7" class="node">
<title>Node7</title>
<g id="a_node7"><a xlink:title=" ">
<polygon fill="white" stroke="#bfbfbf" points="495,-0.5 495,-19.5 539,-19.5 539,-0.5 495,-0.5"/>
<text text-anchor="middle" x="517" y="-7.5" font-family="Helvetica,sans-Serif" font-size="10.00">format</text>
</a>
</g>
</g>
<!-- Node6&#45;&gt;Node7 -->
<g id="edge6" class="edge">
<title>Node6&#45;&gt;Node7</title>
<path fill="none" stroke="midnightblue" d="M517,-56.08C517,-49.01 517,-38.86 517,-29.99"/>
<polygon fill="midnightblue" stroke="midnightblue" points="520.5,-29.75 517,-19.75 513.5,-29.75 520.5,-29.75"/>
</g>
<!-- Node8&#45;&gt;Node4 -->
<g id="edge11" class="edge">
<title>Node8&#45;&gt;Node4</title>
<path fill="none" stroke="midnightblue" d="M321.55,-56.44C275.42,-46.44 199.48,-29.97 152.79,-19.85"/>
<polygon fill="midnightblue" stroke="midnightblue" points="153.52,-16.42 143.01,-17.73 152.04,-23.27 153.52,-16.42"/>
</g>
<!-- Node9 -->
<g id="node9" class="node">
<title>Node9</title>
<g id="a_node9"><a xlink:title=" ">
<polygon fill="white" stroke="#bfbfbf" points="342,-0.5 342,-19.5 380,-19.5 380,-0.5 342,-0.5"/>
<text text-anchor="middle" x="361" y="-7.5" font-family="Helvetica,sans-Serif" font-size="10.00">array</text>
</a>
</g>
</g>
<!-- Node8&#45;&gt;Node9 -->
<g id="edge8" class="edge">
<title>Node8&#45;&gt;Node9</title>
<path fill="none" stroke="midnightblue" d="M361,-56.08C361,-49.01 361,-38.86 361,-29.99"/>
<polygon fill="midnightblue" stroke="midnightblue" points="364.5,-29.75 361,-19.75 357.5,-29.75 364.5,-29.75"/>
</g>
<!-- Node8&#45;&gt;Node10 -->
<g id="edge9" class="edge">
<title>Node8&#45;&gt;Node10</title>
<path fill="none" stroke="midnightblue" d="M372.41,-56.32C383.11,-48.18 399.34,-35.84 412.16,-26.09"/>
<polygon fill="midnightblue" stroke="midnightblue" points="414.54,-28.67 420.39,-19.83 410.31,-23.1 414.54,-28.67"/>
</g>
<!-- Node8&#45;&gt;Node11 -->
<g id="edge10" class="edge">
<title>Node8&#45;&gt;Node11</title>
<path fill="none" stroke="midnightblue" d="M349.27,-56.32C338.16,-48.11 321.26,-35.6 308.02,-25.81"/>
<polygon fill="midnightblue" stroke="midnightblue" points="310.06,-22.97 299.94,-19.83 305.9,-28.59 310.06,-22.97"/>
</g>
</g>
</svg>
