<?xml version="1.0" encoding="UTF-8" standalone="no"?>
<!DOCTYPE svg PUBLIC "-//W3C//DTD SVG 1.1//EN"
 "http://www.w3.org/Graphics/SVG/1.1/DTD/svg11.dtd">
<!-- Generated by graphviz version 2.49.3 (20211027.1534)
 -->
<!-- Title: include/fcarouge/internal/utility.hpp Pages: 1 -->
<svg width="1918pt" height="285pt"
 viewBox="0.00 0.00 1918.00 285.00" xmlns="http://www.w3.org/2000/svg" xmlns:xlink="http://www.w3.org/1999/xlink">
<g id="graph0" class="graph" transform="scale(1 1) rotate(0) translate(4 281)">
<title>include/fcarouge/internal/utility.hpp</title>
<polygon fill="white" stroke="transparent" points="-4,4 -4,-281 1914,-281 1914,4 -4,4"/>
<!-- Node1 -->
<g id="node1" class="node">
<title>Node1</title>
<g id="a_node1"><a xlink:title=" ">
<polygon fill="#bfbfbf" stroke="black" points="1027,-246.5 1027,-276.5 1149,-276.5 1149,-246.5 1027,-246.5"/>
<text text-anchor="start" x="1035" y="-264.5" font-family="Helvetica,sans-Serif" font-size="10.00">include/fcarouge/internal</text>
<text text-anchor="middle" x="1088" y="-253.5" font-family="Helvetica,sans-Serif" font-size="10.00">/utility.hpp</text>
</a>
</g>
</g>
<!-- Node2 -->
<g id="node2" class="node">
<title>Node2</title>
<g id="a_node2"><a xlink:href="format_8hpp.xhtml" target="_top" xlink:title=" ">
<polygon fill="white" stroke="black" points="938,-179.5 938,-209.5 1060,-209.5 1060,-179.5 938,-179.5"/>
<text text-anchor="start" x="946" y="-197.5" font-family="Helvetica,sans-Serif" font-size="10.00">include/fcarouge/internal</text>
<text text-anchor="middle" x="999" y="-186.5" font-family="Helvetica,sans-Serif" font-size="10.00">/format.hpp</text>
</a>
</g>
</g>
<!-- Node1&#45;&gt;Node2 -->
<g id="edge1" class="edge">
<title>Node1&#45;&gt;Node2</title>
<path fill="none" stroke="midnightblue" d="M1060.55,-240.45C1046.86,-230.45 1030.63,-218.6 1018.27,-209.58"/>
<polygon fill="midnightblue" stroke="midnightblue" points="1058.55,-243.32 1068.69,-246.4 1062.68,-237.67 1058.55,-243.32"/>
</g>
<!-- Node3 -->
<g id="node3" class="node">
<title>Node3</title>
<g id="a_node3"><a xlink:href="kalman_8hpp.xhtml" target="_top" xlink:title="The main Kalman filter class.">
<polygon fill="white" stroke="black" points="1018,-123.5 1018,-142.5 1158,-142.5 1158,-123.5 1018,-123.5"/>
<text text-anchor="middle" x="1088" y="-130.5" font-family="Helvetica,sans-Serif" font-size="10.00">include/fcarouge/kalman.hpp</text>
</a>
</g>
</g>
<!-- Node1&#45;&gt;Node3 -->
<g id="edge25" class="edge">
<title>Node1&#45;&gt;Node3</title>
<path fill="none" stroke="midnightblue" d="M1088,-236.14C1088,-207.62 1088,-161.86 1088,-142.79"/>
<polygon fill="midnightblue" stroke="midnightblue" points="1084.5,-236.48 1088,-246.48 1091.5,-236.48 1084.5,-236.48"/>
</g>
<!-- Node24 -->
<g id="node24" class="node">
<title>Node24</title>
<g id="a_node24"><a xlink:href="internal_2kalman_8hpp.xhtml" target="_top" xlink:title=" ">
<polygon fill="white" stroke="black" points="1116,-179.5 1116,-209.5 1238,-209.5 1238,-179.5 1116,-179.5"/>
<text text-anchor="start" x="1124" y="-197.5" font-family="Helvetica,sans-Serif" font-size="10.00">include/fcarouge/internal</text>
<text text-anchor="middle" x="1177" y="-186.5" font-family="Helvetica,sans-Serif" font-size="10.00">/kalman.hpp</text>
</a>
</g>
</g>
<!-- Node1&#45;&gt;Node24 -->
<g id="edge23" class="edge">
<title>Node1&#45;&gt;Node24</title>
<path fill="none" stroke="midnightblue" d="M1115.45,-240.45C1129.14,-230.45 1145.37,-218.6 1157.73,-209.58"/>
<polygon fill="midnightblue" stroke="midnightblue" points="1113.32,-237.67 1107.31,-246.4 1117.45,-243.32 1113.32,-237.67"/>
</g>
<!-- Node2&#45;&gt;Node3 -->
<g id="edge2" class="edge">
<title>Node2&#45;&gt;Node3</title>
<path fill="none" stroke="midnightblue" d="M1028.5,-173.78C1044.28,-163.23 1062.9,-150.78 1075.05,-142.66"/>
<polygon fill="midnightblue" stroke="midnightblue" points="1026.46,-170.93 1020.09,-179.4 1030.35,-176.75 1026.46,-170.93"/>
</g>
<!-- Node4 -->
<g id="node4" class="node">
<title>Node4</title>
<g id="a_node4"><a xlink:href="operator1x1x0_8cpp.xhtml" target="_top" xlink:title=" ">
<polygon fill="white" stroke="black" points="0,-62 0,-81 146,-81 146,-62 0,-62"/>
<text text-anchor="middle" x="73" y="-69" font-family="Helvetica,sans-Serif" font-size="10.00">benchmark/operator1x1x0.cpp</text>
</a>
</g>
</g>
<!-- Node3&#45;&gt;Node4 -->
<g id="edge3" class="edge">
<title>Node3&#45;&gt;Node4</title>
<path fill="none" stroke="midnightblue" d="M1007.47,-131.55C845.51,-129.88 469.01,-122.19 155,-87 142.07,-85.55 128.1,-83.33 115.41,-81.06"/>
<polygon fill="midnightblue" stroke="midnightblue" points="1007.79,-135.05 1017.83,-131.65 1007.86,-128.05 1007.79,-135.05"/>
</g>
<!-- Node5 -->
<g id="node5" class="node">
<title>Node5</title>
<g id="a_node5"><a xlink:href="operator1x1x1_8cpp.xhtml" target="_top" xlink:title=" ">
<polygon fill="white" stroke="black" points="164,-62 164,-81 310,-81 310,-62 164,-62"/>
<text text-anchor="middle" x="237" y="-69" font-family="Helvetica,sans-Serif" font-size="10.00">benchmark/operator1x1x1.cpp</text>
</a>
</g>
</g>
<!-- Node3&#45;&gt;Node5 -->
<g id="edge4" class="edge">
<title>Node3&#45;&gt;Node5</title>
<path fill="none" stroke="midnightblue" d="M1007.55,-130.38C867.3,-126.86 569.09,-116.33 319,-87 306.22,-85.5 292.42,-83.29 279.84,-81.05"/>
<polygon fill="midnightblue" stroke="midnightblue" points="1007.7,-133.88 1017.78,-130.63 1007.87,-126.88 1007.7,-133.88"/>
</g>
<!-- Node6 -->
<g id="node6" class="node">
<title>Node6</title>
<g id="a_node6"><a xlink:href="predict1x1x0_8cpp.xhtml" target="_top" xlink:title=" ">
<polygon fill="white" stroke="black" points="328,-62 328,-81 468,-81 468,-62 328,-62"/>
<text text-anchor="middle" x="398" y="-69" font-family="Helvetica,sans-Serif" font-size="10.00">benchmark/predict1x1x0.cpp</text>
</a>
</g>
</g>
<!-- Node3&#45;&gt;Node6 -->
<g id="edge5" class="edge">
<title>Node3&#45;&gt;Node6</title>
<path fill="none" stroke="midnightblue" d="M1007.34,-128.84C890.17,-123.61 666.2,-111.26 477,-87 464.83,-85.44 451.69,-83.24 439.69,-81.02"/>
<polygon fill="midnightblue" stroke="midnightblue" points="1007.51,-132.35 1017.65,-129.29 1007.82,-125.35 1007.51,-132.35"/>
</g>
<!-- Node7 -->
<g id="node7" class="node">
<title>Node7</title>
<g id="a_node7"><a xlink:href="predict1x1x1_8cpp.xhtml" target="_top" xlink:title=" ">
<polygon fill="white" stroke="black" points="486,-62 486,-81 626,-81 626,-62 486,-62"/>
<text text-anchor="middle" x="556" y="-69" font-family="Helvetica,sans-Serif" font-size="10.00">benchmark/predict1x1x1.cpp</text>
</a>
</g>
</g>
<!-- Node3&#45;&gt;Node7 -->
<g id="edge6" class="edge">
<title>Node3&#45;&gt;Node7</title>
<path fill="none" stroke="midnightblue" d="M1007.73,-126.04C916.99,-118.83 764.98,-105.35 635,-87 623.26,-85.34 610.61,-83.19 598.95,-81.05"/>
<polygon fill="midnightblue" stroke="midnightblue" points="1007.7,-129.55 1017.94,-126.84 1008.25,-122.57 1007.7,-129.55"/>
</g>
<!-- Node8 -->
<g id="node8" class="node">
<title>Node8</title>
<g id="a_node8"><a xlink:href="update1x1x0_8cpp.xhtml" target="_top" xlink:title=" ">
<polygon fill="white" stroke="black" points="644,-62 644,-81 784,-81 784,-62 644,-62"/>
<text text-anchor="middle" x="714" y="-69" font-family="Helvetica,sans-Serif" font-size="10.00">benchmark/update1x1x0.cpp</text>
</a>
</g>
</g>
<!-- Node3&#45;&gt;Node8 -->
<g id="edge7" class="edge">
<title>Node3&#45;&gt;Node8</title>
<path fill="none" stroke="midnightblue" d="M1018.5,-122C958.66,-113.25 870.03,-99.94 793,-87 782,-85.15 770.16,-83.04 759.08,-81.02"/>
<polygon fill="midnightblue" stroke="midnightblue" points="1018.19,-125.49 1028.59,-123.47 1019.2,-118.57 1018.19,-125.49"/>
</g>
<!-- Node9 -->
<g id="node9" class="node">
<title>Node9</title>
<g id="a_node9"><a xlink:href="update1x1x1_8cpp.xhtml" target="_top" xlink:title=" ">
<polygon fill="white" stroke="black" points="802,-62 802,-81 942,-81 942,-62 802,-62"/>
<text text-anchor="middle" x="872" y="-69" font-family="Helvetica,sans-Serif" font-size="10.00">benchmark/update1x1x1.cpp</text>
</a>
</g>
</g>
<!-- Node3&#45;&gt;Node9 -->
<g id="edge8" class="edge">
<title>Node3&#45;&gt;Node9</title>
<path fill="none" stroke="midnightblue" d="M1047.16,-120.75C1005.19,-109.19 940.8,-91.45 902.89,-81.01"/>
<polygon fill="midnightblue" stroke="midnightblue" points="1046.48,-124.19 1057.05,-123.48 1048.34,-117.44 1046.48,-124.19"/>
</g>
<!-- Node10 -->
<g id="node10" class="node">
<title>Node10</title>
<g id="a_node10"><a xlink:href="eigen_2kalman_8hpp.xhtml" target="_top" xlink:title="Kalman operation for Eigen 3 types.">
<polygon fill="white" stroke="black" points="960,-56.5 960,-86.5 1074,-86.5 1074,-56.5 960,-56.5"/>
<text text-anchor="start" x="968" y="-74.5" font-family="Helvetica,sans-Serif" font-size="10.00">include/fcarouge/eigen</text>
<text text-anchor="middle" x="1017" y="-63.5" font-family="Helvetica,sans-Serif" font-size="10.00">/kalman.hpp</text>
</a>
</g>
</g>
<!-- Node3&#45;&gt;Node10 -->
<g id="edge9" class="edge">
<title>Node3&#45;&gt;Node10</title>
<path fill="none" stroke="midnightblue" d="M1070.01,-116.92C1058.86,-107.58 1044.64,-95.66 1033.73,-86.52"/>
<polygon fill="midnightblue" stroke="midnightblue" points="1067.91,-119.73 1077.83,-123.48 1072.41,-114.37 1067.91,-119.73"/>
</g>
<!-- Node17 -->
<g id="node17" class="node">
<title>Node17</title>
<g id="a_node17"><a xlink:href="building__height_8cpp.xhtml" target="_top" xlink:title=" ">
<polygon fill="white" stroke="black" points="1092,-62 1092,-81 1226,-81 1226,-62 1092,-62"/>
<text text-anchor="middle" x="1159" y="-69" font-family="Helvetica,sans-Serif" font-size="10.00">sample/building_height.cpp</text>
</a>
</g>
</g>
<!-- Node3&#45;&gt;Node17 -->
<g id="edge16" class="edge">
<title>Node3&#45;&gt;Node17</title>
<path fill="none" stroke="midnightblue" d="M1105.93,-116.97C1119.51,-105.59 1137.68,-90.37 1148.85,-81.01"/>
<polygon fill="midnightblue" stroke="midnightblue" points="1103.59,-114.37 1098.17,-123.48 1108.09,-119.73 1103.59,-114.37"/>
</g>
<!-- Node18 -->
<g id="node18" class="node">
<title>Node18</title>
<g id="a_node18"><a xlink:href="dog__position_8cpp.xhtml" target="_top" xlink:title=" ">
<polygon fill="white" stroke="black" points="1244,-62 1244,-81 1368,-81 1368,-62 1244,-62"/>
<text text-anchor="middle" x="1306" y="-69" font-family="Helvetica,sans-Serif" font-size="10.00">sample/dog_position.cpp</text>
</a>
</g>
</g>
<!-- Node3&#45;&gt;Node18 -->
<g id="edge17" class="edge">
<title>Node3&#45;&gt;Node18</title>
<path fill="none" stroke="midnightblue" d="M1128.95,-120.82C1171.3,-109.26 1236.48,-91.47 1274.82,-81.01"/>
<polygon fill="midnightblue" stroke="midnightblue" points="1127.96,-117.47 1119.23,-123.48 1129.8,-124.22 1127.96,-117.47"/>
</g>
<!-- Node19 -->
<g id="node19" class="node">
<title>Node19</title>
<g id="a_node19"><a xlink:href="liquid__temperature_8cpp.xhtml" target="_top" xlink:title=" ">
<polygon fill="white" stroke="black" points="1385.5,-62 1385.5,-81 1534.5,-81 1534.5,-62 1385.5,-62"/>
<text text-anchor="middle" x="1460" y="-69" font-family="Helvetica,sans-Serif" font-size="10.00">sample/liquid_temperature.cpp</text>
</a>
</g>
</g>
<!-- Node3&#45;&gt;Node19 -->
<g id="edge18" class="edge">
<title>Node3&#45;&gt;Node19</title>
<path fill="none" stroke="midnightblue" d="M1155.04,-121.92C1213.65,-113.02 1301.03,-99.55 1377,-87 1388.4,-85.12 1400.67,-83.01 1412.19,-81.01"/>
<polygon fill="midnightblue" stroke="midnightblue" points="1154.17,-118.51 1144.81,-123.47 1155.22,-125.43 1154.17,-118.51"/>
</g>
<!-- Node20 -->
<g id="node20" class="node">
<title>Node20</title>
<g id="a_node20"><a xlink:href="f_8cpp.xhtml" target="_top" xlink:title=" ">
<polygon fill="white" stroke="black" points="1552.5,-62 1552.5,-81 1609.5,-81 1609.5,-62 1552.5,-62"/>
<text text-anchor="middle" x="1581" y="-69" font-family="Helvetica,sans-Serif" font-size="10.00">test/f.cpp</text>
</a>
</g>
</g>
<!-- Node3&#45;&gt;Node20 -->
<g id="edge19" class="edge">
<title>Node3&#45;&gt;Node20</title>
<path fill="none" stroke="midnightblue" d="M1168.37,-130.48C1260.13,-127.27 1414.17,-117.38 1543,-87 1549.19,-85.54 1555.72,-83.32 1561.59,-81.04"/>
<polygon fill="midnightblue" stroke="midnightblue" points="1168.2,-126.98 1158.32,-130.81 1168.43,-133.98 1168.2,-126.98"/>
</g>
<!-- Node21 -->
<g id="node21" class="node">
<title>Node21</title>
<g id="a_node21"><a xlink:href="format_8cpp.xhtml" target="_top" xlink:title=" ">
<polygon fill="white" stroke="black" points="1628,-62 1628,-81 1710,-81 1710,-62 1628,-62"/>
<text text-anchor="middle" x="1669" y="-69" font-family="Helvetica,sans-Serif" font-size="10.00">test/format.cpp</text>
</a>
</g>
</g>
<!-- Node3&#45;&gt;Node21 -->
<g id="edge20" class="edge">
<title>Node3&#45;&gt;Node21</title>
<path fill="none" stroke="midnightblue" d="M1168.16,-129.98C1272.51,-126.27 1460.2,-115.85 1618,-87 1626.15,-85.51 1634.87,-83.28 1642.76,-81"/>
<polygon fill="midnightblue" stroke="midnightblue" points="1167.89,-126.49 1158.02,-130.33 1168.13,-133.49 1167.89,-126.49"/>
</g>
<!-- Node22 -->
<g id="node22" class="node">
<title>Node22</title>
<g id="a_node22"><a xlink:href="h_8cpp.xhtml" target="_top" xlink:title=" ">
<polygon fill="white" stroke="black" points="1728.5,-62 1728.5,-81 1787.5,-81 1787.5,-62 1728.5,-62"/>
<text text-anchor="middle" x="1758" y="-69" font-family="Helvetica,sans-Serif" font-size="10.00">test/h.cpp</text>
</a>
</g>
</g>
<!-- Node3&#45;&gt;Node22 -->
<g id="edge21" class="edge">
<title>Node3&#45;&gt;Node22</title>
<path fill="none" stroke="midnightblue" d="M1168.35,-129.12C1314.03,-123.42 1616.21,-109.29 1719,-87 1725.35,-85.62 1732.06,-83.42 1738.09,-81.15"/>
<polygon fill="midnightblue" stroke="midnightblue" points="1167.99,-125.63 1158.13,-129.51 1168.26,-132.62 1167.99,-125.63"/>
</g>
<!-- Node23 -->
<g id="node23" class="node">
<title>Node23</title>
<g id="a_node23"><a xlink:href="initialization_8cpp.xhtml" target="_top" xlink:title=" ">
<polygon fill="white" stroke="black" points="1806,-62 1806,-81 1910,-81 1910,-62 1806,-62"/>
<text text-anchor="middle" x="1858" y="-69" font-family="Helvetica,sans-Serif" font-size="10.00">test/initialization.cpp</text>
</a>
</g>
</g>
<!-- Node3&#45;&gt;Node23 -->
<g id="edge22" class="edge">
<title>Node3&#45;&gt;Node23</title>
<path fill="none" stroke="midnightblue" d="M1168.26,-131.23C1300.01,-129 1570.08,-120.36 1796,-87 1805.84,-85.55 1816.43,-83.32 1826.02,-81.05"/>
<polygon fill="midnightblue" stroke="midnightblue" points="1168.19,-127.73 1158.25,-131.39 1168.3,-134.73 1168.19,-127.73"/>
</g>
<!-- Node11 -->
<g id="node11" class="node">
<title>Node11</title>
<g id="a_node11"><a xlink:href="ardupilot__soaring_8cpp.xhtml" target="_top" xlink:title=" ">
<polygon fill="white" stroke="black" points="570.5,-0.5 570.5,-19.5 713.5,-19.5 713.5,-0.5 570.5,-0.5"/>
<text text-anchor="middle" x="642" y="-7.5" font-family="Helvetica,sans-Serif" font-size="10.00">sample/ardupilot_soaring.cpp</text>
</a>
</g>
</g>
<!-- Node10&#45;&gt;Node11 -->
<g id="edge10" class="edge">
<title>Node10&#45;&gt;Node11</title>
<path fill="none" stroke="midnightblue" d="M949.91,-55.88C861.74,-40.02 770.85,-27.4 710.35,-19.52"/>
<polygon fill="midnightblue" stroke="midnightblue" points="949.35,-59.33 959.81,-57.67 950.6,-52.44 949.35,-59.33"/>
</g>
<!-- Node12 -->
<g id="node12" class="node">
<title>Node12</title>
<g id="a_node12"><a xlink:href="rocket__altitude_8cpp.xhtml" target="_top" xlink:title=" ">
<polygon fill="white" stroke="black" points="731.5,-0.5 731.5,-19.5 864.5,-19.5 864.5,-0.5 731.5,-0.5"/>
<text text-anchor="middle" x="798" y="-7.5" font-family="Helvetica,sans-Serif" font-size="10.00">sample/rocket_altitude.cpp</text>
</a>
</g>
</g>
<!-- Node10&#45;&gt;Node12 -->
<g id="edge11" class="edge">
<title>Node10&#45;&gt;Node12</title>
<path fill="none" stroke="midnightblue" d="M955.72,-53.85C914.6,-42.68 862.15,-28.43 829.31,-19.51"/>
<polygon fill="midnightblue" stroke="midnightblue" points="954.81,-57.23 965.38,-56.47 956.64,-50.48 954.81,-57.23"/>
</g>
<!-- Node13 -->
<g id="node13" class="node">
<title>Node13</title>
<g id="a_node13"><a xlink:href="vehicle__location_8cpp.xhtml" target="_top" xlink:title=" ">
<polygon fill="white" stroke="black" points="882.5,-0.5 882.5,-19.5 1021.5,-19.5 1021.5,-0.5 882.5,-0.5"/>
<text text-anchor="middle" x="952" y="-7.5" font-family="Helvetica,sans-Serif" font-size="10.00">sample/vehicle_location.cpp</text>
</a>
</g>
</g>
<!-- Node10&#45;&gt;Node13 -->
<g id="edge12" class="edge">
<title>Node10&#45;&gt;Node13</title>
<path fill="none" stroke="midnightblue" d="M994.17,-49.6C982.93,-39.32 970.01,-27.48 961.46,-19.66"/>
<polygon fill="midnightblue" stroke="midnightblue" points="991.86,-52.23 1001.6,-56.4 996.58,-47.07 991.86,-52.23"/>
</g>
<!-- Node14 -->
<g id="node14" class="node">
<title>Node14</title>
<g id="a_node14"><a xlink:href="eigen__f_8cpp.xhtml" target="_top" xlink:title=" ">
<polygon fill="white" stroke="black" points="1040,-0.5 1040,-19.5 1126,-19.5 1126,-0.5 1040,-0.5"/>
<text text-anchor="middle" x="1083" y="-7.5" font-family="Helvetica,sans-Serif" font-size="10.00">test/eigen_f.cpp</text>
</a>
</g>
</g>
<!-- Node10&#45;&gt;Node14 -->
<g id="edge13" class="edge">
<title>Node10&#45;&gt;Node14</title>
<path fill="none" stroke="midnightblue" d="M1040.19,-49.6C1051.59,-39.32 1064.72,-27.48 1073.4,-19.66"/>
<polygon fill="midnightblue" stroke="midnightblue" points="1037.72,-47.1 1032.64,-56.4 1042.41,-52.3 1037.72,-47.1"/>
</g>
<!-- Node15 -->
<g id="node15" class="node">
<title>Node15</title>
<g id="a_node15"><a xlink:href="eigen__h_8cpp.xhtml" target="_top" xlink:title=" ">
<polygon fill="white" stroke="black" points="1144,-0.5 1144,-19.5 1232,-19.5 1232,-0.5 1144,-0.5"/>
<text text-anchor="middle" x="1188" y="-7.5" font-family="Helvetica,sans-Serif" font-size="10.00">test/eigen_h.cpp</text>
</a>
</g>
</g>
<!-- Node10&#45;&gt;Node15 -->
<g id="edge14" class="edge">
<title>Node10&#45;&gt;Node15</title>
<path fill="none" stroke="midnightblue" d="M1067.05,-53.09C1098.62,-42.1 1138.04,-28.39 1163.12,-19.66"/>
<polygon fill="midnightblue" stroke="midnightblue" points="1065.82,-49.81 1057.52,-56.4 1068.12,-56.42 1065.82,-49.81"/>
</g>
<!-- Node16 -->
<g id="node16" class="node">
<title>Node16</title>
<g id="a_node16"><a xlink:href="eigen__initialization_8cpp.xhtml" target="_top" xlink:title=" ">
<polygon fill="white" stroke="black" points="1250.5,-0.5 1250.5,-19.5 1383.5,-19.5 1383.5,-0.5 1250.5,-0.5"/>
<text text-anchor="middle" x="1317" y="-7.5" font-family="Helvetica,sans-Serif" font-size="10.00">test/eigen_initialization.cpp</text>
</a>
</g>
</g>
<!-- Node10&#45;&gt;Node16 -->
<g id="edge15" class="edge">
<title>Node10&#45;&gt;Node16</title>
<path fill="none" stroke="midnightblue" d="M1084.17,-55.79C1154.76,-41.33 1225.62,-27.92 1270.75,-19.52"/>
<polygon fill="midnightblue" stroke="midnightblue" points="1083.31,-52.39 1074.22,-57.83 1084.72,-59.25 1083.31,-52.39"/>
</g>
<!-- Node24&#45;&gt;Node3 -->
<g id="edge24" class="edge">
<title>Node24&#45;&gt;Node3</title>
<path fill="none" stroke="midnightblue" d="M1147.5,-173.78C1131.72,-163.23 1113.1,-150.78 1100.95,-142.66"/>
<polygon fill="midnightblue" stroke="midnightblue" points="1145.65,-176.75 1155.91,-179.4 1149.54,-170.93 1145.65,-176.75"/>
</g>
</g>
</svg>
